<svg xmlns="http://www.w3.org/2000/svg" fill="none" stroke="currentColor" aria-hidden="true" viewBox="0 0 32 32"><g id="Icon-Broadcast"><g clip-path="url(#clip0_4_775)"><g id="size=md (32px)"><path id="Vector" stroke-linecap="round" stroke-linejoin="round" stroke-width="2" d="M16 20C18.2091 20 20 18.2091 20 16C20 13.7909 18.2091 12 16 12C13.7909 12 12 13.7909 12 16C12 18.2091 13.7909 20 16 20Z"/><path id="Vector_2" stroke-linecap="round" stroke-linejoin="round" stroke-width="2" d="M9.63749 22.3625C8.81628 21.5422 8.16247 20.57 7.71249 19.5C7.24216 18.3931 6.99976 17.2027 6.99976 16C6.99976 14.7973 7.24216 13.6069 7.71249 12.5C8.16247 11.43 8.81628 10.4578 9.63749 9.6375"/><path id="Vector_3" stroke-linecap="round" stroke-linejoin="round" stroke-width="2" d="M22.3625 9.6375C23.1837 10.4578 23.8375 11.43 24.2875 12.5C24.7578 13.6069 25.0002 14.7973 25.0002 16C25.0002 17.2027 24.7578 18.3931 24.2875 19.5C23.8375 20.57 23.1837 21.5422 22.3625 22.3625"/><path id="Vector_4" stroke-linecap="round" stroke-linejoin="round" stroke-width="2" d="M6.09997 25.9C4.82454 24.6222 3.80613 23.1116 3.09997 21.45C2.3739 19.7248 1.99988 17.8718 1.99988 16C1.99988 14.1282 2.3739 12.2753 3.09997 10.55C3.80613 8.88843 4.82454 7.37779 6.09997 6.10001"/><path id="Vector_5" stroke-linecap="round" stroke-linejoin="round" stroke-width="2" d="M25.9 6.10001C27.1755 7.37779 28.1939 8.88843 28.9 10.55C29.6261 12.2753 30.0001 14.1282 30.0001 16C30.0001 17.8718 29.6261 19.7248 28.9 21.45C28.1939 23.1116 27.1755 24.6222 25.9 25.9"/></g></g></g><defs><clipPath id="clip0_4_775"><rect width="32" height="32" fill="white" rx="5"/></clipPath></defs></svg>