<svg xmlns="http://www.w3.org/2000/svg" fill="none" stroke="currentColor" aria-hidden="true" viewBox="0 0 32 32"><g clip-path="url(#a)"><path stroke-linecap="round" stroke-linejoin="round" stroke-width="2" d="M16.5 27H5.963A.95.95 0 0 1 5 26.038V15.5A11.5 11.5 0 0 1 16.5 4v0A11.5 11.5 0 0 1 28 15.5v0A11.5 11.5 0 0 1 16.5 27v0Z"/><path fill="#101828" d="M16.5 17.5a1.5 1.5 0 1 0 0-3 1.5 1.5 0 0 0 0 3Zm-6 0a1.5 1.5 0 1 0 0-3 1.5 1.5 0 0 0 0 3Zm12 0a1.5 1.5 0 1 0 0-3 1.5 1.5 0 0 0 0 3Z"/></g><defs><clipPath id="a"><rect width="32" height="32" fill="#fff" rx="5"/></clipPath></defs></svg>