<svg xmlns="http://www.w3.org/2000/svg" fill="none" stroke="currentColor" aria-hidden="true" viewBox="0 0 32 32"><g id="Icon-ChatTeardropText"><g clip-path="url(#clip0_4_591)"><g id="size=md (32px)"><path id="Vector" stroke-linecap="round" stroke-linejoin="round" stroke-width="2" d="M16.5 27H5.9625C5.83564 27.0017 5.70972 26.9779 5.59219 26.9302C5.47465 26.8824 5.36788 26.8115 5.27816 26.7218C5.18845 26.6321 5.11762 26.5253 5.06984 26.4078C5.02207 26.2903 4.99832 26.1644 5 26.0375V15.5C5 12.45 6.2116 9.52494 8.36827 7.36827C10.5249 5.2116 13.45 4 16.5 4V4C18.0102 4 19.5056 4.29746 20.9009 4.87539C22.2961 5.45331 23.5639 6.3004 24.6317 7.36827C25.6996 8.43615 26.5467 9.7039 27.1246 11.0991C27.7025 12.4944 28 13.9898 28 15.5V15.5C28 17.0102 27.7025 18.5056 27.1246 19.9009C26.5467 21.2961 25.6996 22.5639 24.6317 23.6317C23.5639 24.6996 22.2961 25.5467 20.9009 26.1246C19.5056 26.7025 18.0102 27 16.5 27V27Z"/><path id="Vector_2" stroke-linecap="round" stroke-linejoin="round" stroke-width="2" d="M12.5 14H20"/><path id="Vector_3" stroke-linecap="round" stroke-linejoin="round" stroke-width="2" d="M12.5 18H20"/></g></g></g><defs><clipPath id="clip0_4_591"><rect width="32" height="32" fill="white" rx="5"/></clipPath></defs></svg>