<svg xmlns="http://www.w3.org/2000/svg" fill="none" stroke="currentColor" aria-hidden="true" viewBox="0 0 32 32"><g id="Icon-ChatCenteredDots"><g clip-path="url(#clip0_4_470)"><g id="size=md (32px)"><path id="Vector" stroke-linecap="round" stroke-linejoin="round" stroke-width="2" d="M18.7125 24.4875L16.8625 27.575C16.7719 27.7224 16.6451 27.844 16.4941 27.9284C16.3431 28.0129 16.173 28.0572 16 28.0572C15.827 28.0572 15.6569 28.0129 15.5059 27.9284C15.3549 27.844 15.2281 27.7224 15.1375 27.575L13.2875 24.4875C13.2005 24.3393 13.0763 24.2164 12.9272 24.1309C12.7782 24.0454 12.6094 24.0003 12.4375 24H5C4.73478 24 4.48043 23.8946 4.29289 23.7071C4.10536 23.5196 4 23.2652 4 23V7C4 6.73478 4.10536 6.48043 4.29289 6.29289C4.48043 6.10536 4.73478 6 5 6H27C27.2652 6 27.5196 6.10536 27.7071 6.29289C27.8946 6.48043 28 6.73478 28 7V23C28 23.2652 27.8946 23.5196 27.7071 23.7071C27.5196 23.8946 27.2652 24 27 24H19.5625C19.3906 24.0003 19.2218 24.0454 19.0728 24.1309C18.9237 24.2164 18.7995 24.3393 18.7125 24.4875V24.4875Z"/><path id="Vector_2" fill="#101828" d="M16 16.5C16.8284 16.5 17.5 15.8284 17.5 15C17.5 14.1716 16.8284 13.5 16 13.5C15.1716 13.5 14.5 14.1716 14.5 15C14.5 15.8284 15.1716 16.5 16 16.5Z"/><path id="Vector_3" fill="#101828" d="M10 16.5C10.8284 16.5 11.5 15.8284 11.5 15C11.5 14.1716 10.8284 13.5 10 13.5C9.17157 13.5 8.5 14.1716 8.5 15C8.5 15.8284 9.17157 16.5 10 16.5Z"/><path id="Vector_4" fill="#101828" d="M22 16.5C22.8284 16.5 23.5 15.8284 23.5 15C23.5 14.1716 22.8284 13.5 22 13.5C21.1716 13.5 20.5 14.1716 20.5 15C20.5 15.8284 21.1716 16.5 22 16.5Z"/></g></g></g><defs><clipPath id="clip0_4_470"><rect width="32" height="32" fill="white" rx="5"/></clipPath></defs></svg>