<svg xmlns="http://www.w3.org/2000/svg" fill="none" stroke="currentColor" aria-hidden="true" viewBox="0 0 32 32"><g id="Icon-PaperPlane"><g clip-path="url(#clip0_4_412)"><g id="size=md (32px)"><path id="Vector" stroke-linecap="round" stroke-linejoin="round" stroke-width="2" d="M15.1125 4.5625L3.2875 25.675C3.18926 25.8528 3.14751 26.0564 3.16782 26.2585C3.18813 26.4607 3.26954 26.6519 3.4012 26.8066C3.53287 26.9613 3.70854 27.0723 3.90483 27.1247C4.10113 27.1771 4.30873 27.1685 4.5 27.1L15.65 23.125C15.8665 23.0374 16.1085 23.0374 16.325 23.125L27.475 27.1C27.6663 27.1685 27.8739 27.1771 28.0702 27.1247C28.2665 27.0723 28.4421 26.9613 28.5738 26.8066C28.7055 26.6519 28.7869 26.4607 28.8072 26.2585C28.8275 26.0564 28.7858 25.8528 28.6875 25.675L16.8625 4.5625C16.776 4.4062 16.6493 4.27592 16.4954 4.18519C16.3415 4.09447 16.1661 4.04662 15.9875 4.04662C15.8089 4.04662 15.6335 4.09447 15.4796 4.18519C15.3257 4.27592 15.199 4.4062 15.1125 4.5625Z"/><path id="Vector_2" stroke-linecap="round" stroke-linejoin="round" stroke-width="2" d="M15.9875 23V15"/></g></g></g><defs><clipPath id="clip0_4_412"><rect width="32" height="32" fill="white" rx="5"/></clipPath></defs></svg>