<svg xmlns="http://www.w3.org/2000/svg" fill="none" stroke="currentColor" aria-hidden="true" viewBox="0 0 32 32"><g stroke="#101828" stroke-linecap="round" stroke-linejoin="round" stroke-width="2" clip-path="url(#a)"><path d="m6 5 20 22M14.375 14.213c-.625.098-1.24.252-1.838.462a1 1 0 0 0-.65.737l-.725 3.688a1.026 1.026 0 0 1-.612.737L4.638 22.2a.988.988 0 0 1-1.163-.313 6 6 0 0 1 .5-7.912 17.012 17.012 0 0 1 6.5-4.05m4.588-.9a17.013 17.013 0 0 1 12.962 4.95 6 6 0 0 1 .5 7.912.988.988 0 0 1-1.162.313l-.5-.2"/></g><defs><clipPath id="a"><rect width="32" height="32" fill="#fff" rx="5"/></clipPath></defs></svg>