<svg xmlns="http://www.w3.org/2000/svg" fill="none" stroke="currentColor" aria-hidden="true" viewBox="0 0 32 32"><g id="Icon-RssSimple"><g clip-path="url(#clip0_4_259)"><g id="size=md (32px)"><path id="Vector" stroke-linecap="round" stroke-linejoin="round" stroke-width="2" d="M7 6C12.0381 6.00331 16.8689 8.00615 20.4314 11.5686C23.9938 15.1311 25.9967 19.9619 26 25"/><path id="Vector_2" stroke-linecap="round" stroke-linejoin="round" stroke-width="2" d="M7 15C8.31322 15 9.61358 15.2587 10.8268 15.7612C12.0401 16.2638 13.1425 17.0003 14.0711 17.9289C14.9997 18.8575 15.7362 19.9599 16.2388 21.1732C16.7413 22.3864 17 23.6868 17 25"/><path id="Vector_3" fill="#101828" d="M7 26.5C7.82843 26.5 8.5 25.8284 8.5 25C8.5 24.1716 7.82843 23.5 7 23.5C6.17157 23.5 5.5 24.1716 5.5 25C5.5 25.8284 6.17157 26.5 7 26.5Z"/></g></g></g><defs><clipPath id="clip0_4_259"><rect width="32" height="32" fill="white" rx="5"/></clipPath></defs></svg>