<svg xmlns="http://www.w3.org/2000/svg" fill="none" stroke="currentColor" aria-hidden="true" viewBox="0 0 32 32"><g id="Icon-Sticker"><g clip-path="url(#clip0_4_134)"><g id="size=md (32px)"><path id="Vector" stroke-linecap="round" stroke-linejoin="round" stroke-width="2" d="M17 27H11C9.4087 27 7.88258 26.3679 6.75736 25.2426C5.63214 24.1174 5 22.5913 5 21V11C5 9.4087 5.63214 7.88258 6.75736 6.75736C7.88258 5.63214 9.4087 5 11 5H21C22.5913 5 24.1174 5.63214 25.2426 6.75736C26.3679 7.88258 27 9.4087 27 11V17C26 20 20 26 17 27Z"/><path id="Vector_2" stroke-linecap="round" stroke-linejoin="round" stroke-width="2" d="M17 27V23C17 21.4087 17.6321 19.8826 18.7574 18.7574C19.8826 17.6321 21.4087 17 23 17H27"/></g></g></g><defs><clipPath id="clip0_4_134"><rect width="32" height="32" fill="white" rx="5"/></clipPath></defs></svg>