<svg width="32" height="32" viewBox="0 0 32 32" fill="none" xmlns="http://www.w3.org/2000/svg"><g id="Icon-AlignCenterVertical"><g clip-path="url(#clip0_8_1813)"><g id="size=md (32px)"><g id="AlignCenterVertical"><path id="Vector" d="M28 16H25" stroke="#101828" stroke-width="2" stroke-linecap="round" stroke-linejoin="round"/><path id="Vector_2" d="M7 16H4" stroke="#101828" stroke-width="2" stroke-linecap="round" stroke-linejoin="round"/><path id="Vector_3" d="M18 16H14" stroke="#101828" stroke-width="2" stroke-linecap="round" stroke-linejoin="round"/><path id="Vector_4" d="M25 23V9C25 8.44772 24.5523 8 24 8H19C18.4477 8 18 8.44772 18 9V23C18 23.5523 18.4477 24 19 24H24C24.5523 24 25 23.5523 25 23Z" stroke="#101828" stroke-width="2" stroke-linecap="round" stroke-linejoin="round"/><path id="Vector_5" d="M13 5H8C7.44772 5 7 5.44772 7 6V26C7 26.5523 7.44772 27 8 27H13C13.5523 27 14 26.5523 14 26V6C14 5.44772 13.5523 5 13 5Z" stroke="#101828" stroke-width="2" stroke-linecap="round" stroke-linejoin="round"/></g></g></g></g><defs><clipPath id="clip0_8_1813"><rect width="32" height="32" rx="5" fill="white"/></clipPath></defs></svg>