<svg width="32" height="32" viewBox="0 0 32 32" fill="none" xmlns="http://www.w3.org/2000/svg"><g id="Icon-BezierCurve"><g clip-path="url(#clip0_8_1658)"><g id="size=md (32px)"><g id="BezierCurve"><path id="Vector" d="M2 10H13" stroke="#101828" stroke-width="2" stroke-linecap="round" stroke-linejoin="round"/><path id="Vector_2" d="M19 10H30" stroke="#101828" stroke-width="2" stroke-linecap="round" stroke-linejoin="round"/><path id="Vector_3" d="M16 13C17.6569 13 19 11.6569 19 10C19 8.34315 17.6569 7 16 7C14.3431 7 13 8.34315 13 10C13 11.6569 14.3431 13 16 13Z" stroke="#101828" stroke-width="2" stroke-linecap="round" stroke-linejoin="round"/><path id="Vector_4" d="M5 25C6.65685 25 8 23.6569 8 22C8 20.3431 6.65685 19 5 19C3.34315 19 2 20.3431 2 22C2 23.6569 3.34315 25 5 25Z" stroke="#101828" stroke-width="2" stroke-linecap="round" stroke-linejoin="round"/><path id="Vector_5" d="M27 25C28.6569 25 30 23.6569 30 22C30 20.3431 28.6569 19 27 19C25.3431 19 24 20.3431 24 22C24 23.6569 25.3431 25 27 25Z" stroke="#101828" stroke-width="2" stroke-linecap="round" stroke-linejoin="round"/><path id="Vector_6" d="M18.975 10.4125C20.9547 10.9683 22.7393 12.0672 24.1266 13.585C25.514 15.1027 26.4487 16.9785 26.825 19" stroke="#101828" stroke-width="2" stroke-linecap="round" stroke-linejoin="round"/><path id="Vector_7" d="M5.17505 19C5.55131 16.9785 6.48604 15.1027 7.8734 13.585C9.26076 12.0672 11.0453 10.9683 13.025 10.4125" stroke="#101828" stroke-width="2" stroke-linecap="round" stroke-linejoin="round"/></g></g></g></g><defs><clipPath id="clip0_8_1658"><rect width="32" height="32" rx="5" fill="white"/></clipPath></defs></svg>