<svg width="32" height="32" viewBox="0 0 32 32" fill="none" xmlns="http://www.w3.org/2000/svg"><g id="Icon-CirclesThreePlus"><g clip-path="url(#clip0_8_1454)"><g id="size=md (32px)"><g id="CirclesThreePlus"><path id="Vector" d="M9.5 14C11.9853 14 14 11.9853 14 9.5C14 7.01472 11.9853 5 9.5 5C7.01472 5 5 7.01472 5 9.5C5 11.9853 7.01472 14 9.5 14Z" stroke="#101828" stroke-width="2" stroke-linecap="round" stroke-linejoin="round"/><path id="Vector_2" d="M22.5 14C24.9853 14 27 11.9853 27 9.5C27 7.01472 24.9853 5 22.5 5C20.0147 5 18 7.01472 18 9.5C18 11.9853 20.0147 14 22.5 14Z" stroke="#101828" stroke-width="2" stroke-linecap="round" stroke-linejoin="round"/><path id="Vector_3" d="M9.5 27C11.9853 27 14 24.9853 14 22.5C14 20.0147 11.9853 18 9.5 18C7.01472 18 5 20.0147 5 22.5C5 24.9853 7.01472 27 9.5 27Z" stroke="#101828" stroke-width="2" stroke-linecap="round" stroke-linejoin="round"/><path id="Vector_4" d="M22.5 19V26" stroke="#101828" stroke-width="2" stroke-linecap="round" stroke-linejoin="round"/><path id="Vector_5" d="M26 22.5H19" stroke="#101828" stroke-width="2" stroke-linecap="round" stroke-linejoin="round"/></g></g></g></g><defs><clipPath id="clip0_8_1454"><rect width="32" height="32" rx="5" fill="white"/></clipPath></defs></svg>