<svg width="32" height="32" viewBox="0 0 32 32" fill="none" xmlns="http://www.w3.org/2000/svg"><g id="Icon-Hexagon"><g clip-path="url(#clip0_8_1098)"><g id="size=md (32px)"><g id="Hexagon"><path id="Vector" d="M27.5 21.9125V10.0875C27.499 9.90947 27.4512 9.73484 27.3612 9.58122C27.2712 9.4276 27.1423 9.30042 26.9875 9.2125L16.4875 3.275C16.3393 3.18943 16.1711 3.14438 16 3.14438C15.8289 3.14438 15.6607 3.18943 15.5125 3.275L5.0125 9.2125C4.85769 9.30042 4.72879 9.4276 4.63882 9.58122C4.54884 9.73484 4.50096 9.90947 4.5 10.0875V21.9125C4.50096 22.0905 4.54884 22.2652 4.63882 22.4188C4.72879 22.5724 4.85769 22.6996 5.0125 22.7875L15.5125 28.725C15.6607 28.8106 15.8289 28.8556 16 28.8556C16.1711 28.8556 16.3393 28.8106 16.4875 28.725L26.9875 22.7875C27.1423 22.6996 27.2712 22.5724 27.3612 22.4188C27.4512 22.2652 27.499 22.0905 27.5 21.9125V21.9125Z" stroke="#101828" stroke-width="2" stroke-linecap="round" stroke-linejoin="round"/></g></g></g></g><defs><clipPath id="clip0_8_1098"><rect width="32" height="32" rx="5" fill="white"/></clipPath></defs></svg>