<svg width="32" height="32" viewBox="0 0 32 32" fill="none" xmlns="http://www.w3.org/2000/svg"><g id="Icon-LineSegments"><g clip-path="url(#clip0_8_988)"><g id="size=md (32px)"><g id="LineSegments"><path id="Vector" d="M5 28C6.65685 28 8 26.6569 8 25C8 23.3431 6.65685 22 5 22C3.34315 22 2 23.3431 2 25C2 26.6569 3.34315 28 5 28Z" stroke="#101828" stroke-width="2" stroke-linecap="round" stroke-linejoin="round"/><path id="Vector_2" d="M12 15C13.6569 15 15 13.6569 15 12C15 10.3431 13.6569 9 12 9C10.3431 9 9 10.3431 9 12C9 13.6569 10.3431 15 12 15Z" stroke="#101828" stroke-width="2" stroke-linecap="round" stroke-linejoin="round"/><path id="Vector_3" d="M20 23C21.6569 23 23 21.6569 23 20C23 18.3431 21.6569 17 20 17C18.3431 17 17 18.3431 17 20C17 21.6569 18.3431 23 20 23Z" stroke="#101828" stroke-width="2" stroke-linecap="round" stroke-linejoin="round"/><path id="Vector_4" d="M27 10C28.6569 10 30 8.65685 30 7C30 5.34315 28.6569 4 27 4C25.3431 4 24 5.34315 24 7C24 8.65685 25.3431 10 27 10Z" stroke="#101828" stroke-width="2" stroke-linecap="round" stroke-linejoin="round"/><path id="Vector_5" d="M10.575 14.6375L6.42505 22.3625" stroke="#101828" stroke-width="2" stroke-linecap="round" stroke-linejoin="round"/><path id="Vector_6" d="M17.875 17.875L14.125 14.125" stroke="#101828" stroke-width="2" stroke-linecap="round" stroke-linejoin="round"/><path id="Vector_7" d="M25.5751 9.6375L21.425 17.3625" stroke="#101828" stroke-width="2" stroke-linecap="round" stroke-linejoin="round"/></g></g></g></g><defs><clipPath id="clip0_8_988"><rect width="32" height="32" rx="5" fill="white"/></clipPath></defs></svg>