<svg width="32" height="32" viewBox="0 0 32 32" fill="none" xmlns="http://www.w3.org/2000/svg"><g id="Icon-LineSegment"><g clip-path="url(#clip0_8_1019)"><g id="size=md (32px)"><g id="LineSegment"><path id="Vector" d="M8 27C9.65685 27 11 25.6569 11 24C11 22.3431 9.65685 21 8 21C6.34315 21 5 22.3431 5 24C5 25.6569 6.34315 27 8 27Z" stroke="#101828" stroke-width="2" stroke-linecap="round" stroke-linejoin="round"/><path id="Vector_2" d="M24 11C25.6569 11 27 9.65685 27 8C27 6.34315 25.6569 5 24 5C22.3431 5 21 6.34315 21 8C21 9.65685 22.3431 11 24 11Z" stroke="#101828" stroke-width="2" stroke-linecap="round" stroke-linejoin="round"/><path id="Vector_3" d="M21.875 10.125L10.125 21.875" stroke="#101828" stroke-width="2" stroke-linecap="round" stroke-linejoin="round"/></g></g></g></g><defs><clipPath id="clip0_8_1019"><rect width="32" height="32" rx="5" fill="white"/></clipPath></defs></svg>