<svg width="32" height="32" viewBox="0 0 32 32" fill="none" xmlns="http://www.w3.org/2000/svg"><g id="Icon-Scissors"><g clip-path="url(#clip0_8_481)"><g id="size=md (32px)"><g id="Scissors"><path id="Vector" d="M7.5 13C9.433 13 11 11.433 11 9.5C11 7.567 9.433 6 7.5 6C5.567 6 4 7.567 4 9.5C4 11.433 5.567 13 7.5 13Z" stroke="#101828" stroke-width="2" stroke-linecap="round" stroke-linejoin="round"/><path id="Vector_2" d="M7.5 26C9.433 26 11 24.433 11 22.5C11 20.567 9.433 19 7.5 19C5.567 19 4 20.567 4 22.5C4 24.433 5.567 26 7.5 26Z" stroke="#101828" stroke-width="2" stroke-linecap="round" stroke-linejoin="round"/><path id="Vector_3" d="M17 16L10.3875 20.525" stroke="#101828" stroke-width="2" stroke-linecap="round" stroke-linejoin="round"/><path id="Vector_4" d="M29.0001 7.78751L20.5376 13.575" stroke="#101828" stroke-width="2" stroke-linecap="round" stroke-linejoin="round"/><path id="Vector_5" d="M29 24.2125L10.3875 11.475" stroke="#101828" stroke-width="2" stroke-linecap="round" stroke-linejoin="round"/></g></g></g></g><defs><clipPath id="clip0_8_481"><rect width="32" height="32" rx="5" fill="white"/></clipPath></defs></svg>