<svg width="32" height="32" viewBox="0 0 32 32" fill="none" xmlns="http://www.w3.org/2000/svg"><g id="Icon-Cardholder"><g clip-path="url(#clip0_12_6806)"><g id="size=md (32px)"><g id="Cardholder"><path id="Vector" d="M26 7H6C4.89543 7 4 7.89543 4 9V23C4 24.1046 4.89543 25 6 25H26C27.1046 25 28 24.1046 28 23V9C28 7.89543 27.1046 7 26 7Z" stroke="#101828" stroke-width="2" stroke-linecap="round" stroke-linejoin="round"/><path id="Vector_2" d="M4 15H11.1C11.3303 14.9987 11.5538 15.078 11.7318 15.2241C11.9099 15.3702 12.0313 15.5739 12.075 15.8C12.266 16.6994 12.76 17.5059 13.4745 18.0847C14.189 18.6634 15.0806 18.9791 16 18.9791C16.9194 18.9791 17.811 18.6634 18.5255 18.0847C19.24 17.5059 19.734 16.6994 19.925 15.8C19.9687 15.5739 20.0901 15.3702 20.2682 15.2241C20.4462 15.078 20.6697 14.9987 20.9 15H28" stroke="#101828" stroke-width="2" stroke-linecap="round" stroke-linejoin="round"/><path id="Vector_3" d="M4 11H28" stroke="#101828" stroke-width="2" stroke-linecap="round" stroke-linejoin="round"/></g></g></g><rect x="0.5" y="0.5" width="31" height="31" rx="4.5" stroke="#3D90E3" stroke-dasharray="10 5"/></g><defs><clipPath id="clip0_12_6806"><rect width="32" height="32" rx="5" fill="white"/></clipPath></defs></svg>