<svg width="32" height="32" viewBox="0 0 32 32" fill="none" xmlns="http://www.w3.org/2000/svg"><g id="Icon-Wine"><g clip-path="url(#clip0_12_5527)"><g id="size=md (32px)"><g id="Wine"><path id="Vector" d="M16 22V29" stroke="#101828" stroke-width="2" stroke-linecap="round" stroke-linejoin="round"/><path id="Vector_2" d="M11 29H21" stroke="#101828" stroke-width="2" stroke-linecap="round" stroke-linejoin="round"/><path id="Vector_3" d="M9.99954 3H21.9995L25.262 14.0375C25.4631 14.7289 25.4099 15.4695 25.112 16.125C24.3198 17.878 23.0387 19.3652 21.4224 20.4084C19.8061 21.4516 17.9232 22.0065 15.9995 22.0065C14.0758 22.0065 12.193 21.4516 10.5767 20.4084C8.96041 19.3652 7.67933 17.878 6.88704 16.125C6.58917 15.4695 6.53596 14.7289 6.73704 14.0375L9.99954 3Z" stroke="#101828" stroke-width="2" stroke-linecap="round" stroke-linejoin="round"/><path id="Vector_4" d="M7.1875 12.5375C8.5125 11.825 11.5875 10.8 16 13C20.7 15.35 23.8875 14.025 25.05 13.3375" stroke="#101828" stroke-width="2" stroke-linecap="round" stroke-linejoin="round"/></g></g></g><rect x="0.5" y="0.5" width="31" height="31" rx="4.5" stroke="#3D90E3" stroke-dasharray="10 5"/></g><defs><clipPath id="clip0_12_5527"><rect width="32" height="32" rx="5" fill="white"/></clipPath></defs></svg>