<svg width="32" height="32" viewBox="0 0 32 32" fill="none" xmlns="http://www.w3.org/2000/svg"><g id="Icon-CurrencyEur"><g clip-path="url(#clip0_12_6461)"><g id="size=md (32px)"><g id="CurrencyEur"><path id="Vector" d="M23.3625 24.3625C22.1038 25.6206 20.5005 26.4773 18.755 26.8243C17.0096 27.1713 15.2004 26.9931 13.5562 26.3122C11.9121 25.6312 10.5067 24.4781 9.5177 22.9986C8.52873 21.5191 8.00058 19.7796 8 18V14C8.00058 12.2204 8.52873 10.4809 9.5177 9.00141C10.5067 7.5219 11.9121 6.3688 13.5562 5.68785C15.2004 5.00691 17.0096 4.82868 18.755 5.17571C20.5005 5.52273 22.1038 6.37943 23.3625 7.63751" stroke="#101828" stroke-width="2" stroke-linecap="round" stroke-linejoin="round"/><path id="Vector_2" d="M5 14H17" stroke="#101828" stroke-width="2" stroke-linecap="round" stroke-linejoin="round"/><path id="Vector_3" d="M5 18H15" stroke="#101828" stroke-width="2" stroke-linecap="round" stroke-linejoin="round"/></g></g></g><rect x="0.5" y="0.5" width="31" height="31" rx="4.5" stroke="#3D90E3" stroke-dasharray="10 5"/></g><defs><clipPath id="clip0_12_6461"><rect width="32" height="32" rx="5" fill="white"/></clipPath></defs></svg>