<svg width="32" height="32" viewBox="0 0 32 32" fill="none" xmlns="http://www.w3.org/2000/svg"><g id="Icon-ShoppingBagOpen"><g clip-path="url(#clip0_12_5809)"><g id="size=md (32px)"><g id="ShoppingBagOpen"><path id="Vector" d="M27 6H5C4.44772 6 4 6.44772 4 7V25C4 25.5523 4.44772 26 5 26H27C27.5523 26 28 25.5523 28 25V7C28 6.44772 27.5523 6 27 6Z" stroke="#101828" stroke-width="2" stroke-linecap="round" stroke-linejoin="round"/><path id="Vector_2" d="M4 10H28" stroke="#101828" stroke-width="2" stroke-linecap="round" stroke-linejoin="round"/><path id="Vector_3" d="M21 14C21 15.3261 20.4732 16.5979 19.5355 17.5355C18.5979 18.4732 17.3261 19 16 19C14.6739 19 13.4021 18.4732 12.4645 17.5355C11.5268 16.5979 11 15.3261 11 14" stroke="#101828" stroke-width="2" stroke-linecap="round" stroke-linejoin="round"/></g></g></g><rect x="0.5" y="0.5" width="31" height="31" rx="4.5" stroke="#3D90E3" stroke-dasharray="10 5"/></g><defs><clipPath id="clip0_12_5809"><rect width="32" height="32" rx="5" fill="white"/></clipPath></defs></svg>