<svg width="32" height="32" viewBox="0 0 32 32" fill="none" xmlns="http://www.w3.org/2000/svg"><g id="Icon-HandbagSimple"><g clip-path="url(#clip0_12_6154)"><g id="size=md (32px)"><g id="HandbagSimple"><path id="Vector" d="M26.1005 9H5.90049C5.65443 9.00116 5.41721 9.09188 5.23317 9.25521C5.04913 9.41855 4.93087 9.64332 4.90049 9.8875L3.12549 25.8875C3.1097 26.0269 3.12343 26.1681 3.16577 26.3018C3.20812 26.4356 3.27813 26.5589 3.37127 26.6639C3.4644 26.7688 3.57858 26.8529 3.70636 26.9109C3.83415 26.9688 3.9727 26.9991 4.11299 27H27.888C28.0283 26.9991 28.1668 26.9688 28.2946 26.9109C28.4224 26.8529 28.5366 26.7688 28.6297 26.6639C28.7229 26.5589 28.7929 26.4356 28.8352 26.3018C28.8776 26.1681 28.8913 26.0269 28.8755 25.8875L27.1005 9.8875C27.0701 9.64332 26.9519 9.41855 26.7678 9.25521C26.5838 9.09188 26.3466 9.00116 26.1005 9V9Z" stroke="#101828" stroke-width="2" stroke-linecap="round" stroke-linejoin="round"/><path id="Vector_2" d="M11 9C11 7.67392 11.5268 6.40215 12.4645 5.46447C13.4021 4.52678 14.6739 4 16 4C17.3261 4 18.5979 4.52678 19.5355 5.46447C20.4732 6.40215 21 7.67392 21 9" stroke="#101828" stroke-width="2" stroke-linecap="round" stroke-linejoin="round"/></g></g></g><rect x="0.5" y="0.5" width="31" height="31" rx="4.5" stroke="#3D90E3" stroke-dasharray="10 5"/></g><defs><clipPath id="clip0_12_6154"><rect width="32" height="32" rx="5" fill="white"/></clipPath></defs></svg>