<svg width="32" height="32" viewBox="0 0 32 32" fill="none" xmlns="http://www.w3.org/2000/svg"><g id="Icon-CoinVertical"><g clip-path="url(#clip0_12_6684)"><g id="size=md (32px)"><g id="CoinVertical"><path id="Vector" d="M13 28C16.866 28 20 22.6274 20 16C20 9.37258 16.866 4 13 4C9.13401 4 6 9.37258 6 16C6 22.6274 9.13401 28 13 28Z" stroke="#101828" stroke-width="2" stroke-linecap="round" stroke-linejoin="round"/><path id="Vector_2" d="M13 4H19C22.8625 4 26 9.375 26 16C26 22.625 22.8625 28 19 28H13" stroke="#101828" stroke-width="2" stroke-linecap="round" stroke-linejoin="round"/><path id="Vector_3" d="M18.2129 8H24.2129" stroke="#101828" stroke-width="2" stroke-linecap="round" stroke-linejoin="round"/><path id="Vector_4" d="M20 16H26" stroke="#101828" stroke-width="2" stroke-linecap="round" stroke-linejoin="round"/><path id="Vector_5" d="M18.2129 24H24.2129" stroke="#101828" stroke-width="2" stroke-linecap="round" stroke-linejoin="round"/></g></g></g><rect x="0.5" y="0.5" width="31" height="31" rx="4.5" stroke="#3D90E3" stroke-dasharray="10 5"/></g><defs><clipPath id="clip0_12_6684"><rect width="32" height="32" rx="5" fill="white"/></clipPath></defs></svg>