<svg width="32" height="32" viewBox="0 0 32 32" fill="none" xmlns="http://www.w3.org/2000/svg"><g id="Icon-Factory"><g clip-path="url(#clip0_12_6255)"><g id="size=md (32px)"><g id="Factory"><path id="Vector" d="M10 22H13.5" stroke="#101828" stroke-width="2" stroke-linecap="round" stroke-linejoin="round"/><path id="Vector_2" d="M18.5 22H22" stroke="#101828" stroke-width="2" stroke-linecap="round" stroke-linejoin="round"/><path id="Vector_3" d="M27 27V17H21L13 11V17L5 11V27" stroke="#101828" stroke-width="2" stroke-linecap="round" stroke-linejoin="round"/><path id="Vector_4" d="M2 27H30" stroke="#101828" stroke-width="2" stroke-linecap="round" stroke-linejoin="round"/><path id="Vector_5" d="M27 17L25.125 3.8625C25.0919 3.62391 24.9738 3.40529 24.7923 3.24683C24.6109 3.08837 24.3784 3.00072 24.1375 3H21.8625C21.6216 3.00072 21.3891 3.08837 21.2077 3.24683C21.0262 3.40529 20.9081 3.62391 20.875 3.8625L19.1875 15.65" stroke="#101828" stroke-width="2" stroke-linecap="round" stroke-linejoin="round"/></g></g></g><rect x="0.5" y="0.5" width="31" height="31" rx="4.5" stroke="#3D90E3" stroke-dasharray="10 5"/></g><defs><clipPath id="clip0_12_6255"><rect width="32" height="32" rx="5" fill="white"/></clipPath></defs></svg>