<svg width="32" height="32" viewBox="0 0 32 32" fill="none" xmlns="http://www.w3.org/2000/svg"><g id="Icon-CurrencyBtc"><g clip-path="url(#clip0_12_6578)"><g id="size=md (32px)"><g id="CurrencyBtc"><path id="Vector" d="M10 15H19C20.3261 15 21.5979 15.5268 22.5355 16.4645C23.4732 17.4021 24 18.6739 24 20C24 21.3261 23.4732 22.5979 22.5355 23.5355C21.5979 24.4732 20.3261 25 19 25H10V6H17.5C18.6935 6 19.8381 6.47411 20.682 7.31802C21.5259 8.16193 22 9.30653 22 10.5C22 11.6935 21.5259 12.8381 20.682 13.682C19.8381 14.5259 18.6935 15 17.5 15" stroke="#101828" stroke-width="2" stroke-linecap="round" stroke-linejoin="round"/><path id="Vector_2" d="M8 6H10" stroke="#101828" stroke-width="2" stroke-linecap="round" stroke-linejoin="round"/><path id="Vector_3" d="M8 25H10" stroke="#101828" stroke-width="2" stroke-linecap="round" stroke-linejoin="round"/><path id="Vector_4" d="M13 6V3" stroke="#101828" stroke-width="2" stroke-linecap="round" stroke-linejoin="round"/><path id="Vector_5" d="M17 6V3" stroke="#101828" stroke-width="2" stroke-linecap="round" stroke-linejoin="round"/><path id="Vector_6" d="M13 28V25" stroke="#101828" stroke-width="2" stroke-linecap="round" stroke-linejoin="round"/><path id="Vector_7" d="M17 28V25" stroke="#101828" stroke-width="2" stroke-linecap="round" stroke-linejoin="round"/></g></g></g><rect x="0.5" y="0.5" width="31" height="31" rx="4.5" stroke="#3D90E3" stroke-dasharray="10 5"/></g><defs><clipPath id="clip0_12_6578"><rect width="32" height="32" rx="5" fill="white"/></clipPath></defs></svg>