<svg width="32" height="32" viewBox="0 0 32 32" fill="none" xmlns="http://www.w3.org/2000/svg"><g id="Icon-Eyeglasses"><g clip-path="url(#clip0_12_6280)"><g id="size=md (32px)"><g id="Eyeglasses"><path id="Vector" d="M8.5 25C10.9853 25 13 22.9853 13 20.5C13 18.0147 10.9853 16 8.5 16C6.01472 16 4 18.0147 4 20.5C4 22.9853 6.01472 25 8.5 25Z" stroke="#101828" stroke-width="2" stroke-linecap="round" stroke-linejoin="round"/><path id="Vector_2" d="M23.5 25C25.9853 25 28 22.9853 28 20.5C28 18.0147 25.9853 16 23.5 16C21.0147 16 19 18.0147 19 20.5C19 22.9853 21.0147 25 23.5 25Z" stroke="#101828" stroke-width="2" stroke-linecap="round" stroke-linejoin="round"/><path id="Vector_3" d="M13 20H19" stroke="#101828" stroke-width="2" stroke-linecap="round" stroke-linejoin="round"/><path id="Vector_4" d="M4.00003 20.5V9.00003C3.99837 8.6056 4.07484 8.21475 4.22502 7.85002C4.3752 7.4853 4.59611 7.15392 4.87502 6.87502C5.15392 6.59611 5.4853 6.3752 5.85002 6.22502C6.21475 6.07484 6.6056 5.99837 7.00003 6.00003" stroke="#101828" stroke-width="2" stroke-linecap="round" stroke-linejoin="round"/><path id="Vector_5" d="M25 6.00003C25.3944 5.99837 25.7853 6.07484 26.15 6.22502C26.5147 6.3752 26.8461 6.59611 27.125 6.87502C27.4039 7.15392 27.6248 7.4853 27.775 7.85002C27.9252 8.21475 28.0017 8.6056 28 9.00003V20.5" stroke="#101828" stroke-width="2" stroke-linecap="round" stroke-linejoin="round"/></g></g></g><rect x="0.5" y="0.5" width="31" height="31" rx="4.5" stroke="#3D90E3" stroke-dasharray="10 5"/></g><defs><clipPath id="clip0_12_6280"><rect width="32" height="32" rx="5" fill="white"/></clipPath></defs></svg>