<svg xmlns="http://www.w3.org/2000/svg" fill="none" stroke="currentColor" aria-hidden="true" viewBox="0 0 32 32"><g stroke="#101828" stroke-linecap="round" stroke-linejoin="round" stroke-width="2" clip-path="url(#a)"><path d="M2 10h11m6 0h11m-14 3a3 3 0 1 0 0-6 3 3 0 0 0 0 6ZM5 25a3 3 0 1 0 0-6 3 3 0 0 0 0 6Zm22 0a3 3 0 1 0 0-6 3 3 0 0 0 0 6Z"/><path d="M18.975 10.412A11.012 11.012 0 0 1 26.825 19m-21.65 0a11.012 11.012 0 0 1 7.85-8.588"/></g><defs><clipPath id="a"><rect width="32" height="32" fill="#fff" rx="5"/></clipPath></defs></svg>