<svg xmlns="http://www.w3.org/2000/svg" fill="none" stroke="currentColor" aria-hidden="true" viewBox="0 0 32 32"><g id="Icon-Eraser"><g clip-path="url(#clip0_8_1290)"><g id="size=md (32px)"><g id="Eraser"><path id="Vector" stroke-linecap="round" stroke-linejoin="round" stroke-width="2" d="M11.4375 12.4375L19.925 20.925"/><path id="Vector_2" stroke-linecap="round" stroke-linejoin="round" stroke-width="2" d="M27.0001 26.975H9.01255L4.37505 22.3375C4.18835 22.1527 4.04014 21.9327 3.93899 21.6902C3.83785 21.4478 3.78577 21.1877 3.78577 20.925C3.78577 20.6623 3.83785 20.4022 3.93899 20.1598C4.04014 19.9173 4.18835 19.6973 4.37505 19.5125L18.5126 5.375C18.6974 5.1883 18.9174 5.04009 19.1598 4.93894C19.4023 4.83779 19.6624 4.78571 19.9251 4.78571C20.1878 4.78571 20.4479 4.83779 20.6903 4.93894C20.9328 5.04009 21.1527 5.1883 21.3376 5.375L27.0001 11.025C27.3718 11.4036 27.5801 11.9131 27.5801 12.4438C27.5801 12.9744 27.3718 13.4839 27.0001 13.8625L13.8751 26.975"/></g></g></g></g><defs><clipPath id="clip0_8_1290"><rect width="32" height="32" fill="white" rx="5"/></clipPath></defs></svg>