<svg xmlns="http://www.w3.org/2000/svg" fill="none" stroke="currentColor" aria-hidden="true" viewBox="0 0 32 32"><g stroke="#101828" stroke-linecap="round" stroke-linejoin="round" stroke-width="2" clip-path="url(#a)"><path d="m6 5 20 22m-6.637-7.3A4.95 4.95 0 0 1 16 21a5 5 0 0 1-3.363-8.7"/><path d="M9.25 8.575C4.15 11.15 2 16 2 16s4 9 14 9c2.343.02 4.657-.52 6.75-1.575m3.325-2.288C28.8 18.7 30 16 30 16s-4-9-14-9c-.867-.002-1.732.07-2.587.213"/><path d="M16.938 11.088a4.988 4.988 0 0 1 4.037 4.437"/></g><defs><clipPath id="a"><rect width="32" height="32" fill="#fff" rx="5"/></clipPath></defs></svg>