<svg xmlns="http://www.w3.org/2000/svg" fill="none" stroke="currentColor" aria-hidden="true" viewBox="0 0 32 32"><g stroke="#101828" stroke-linecap="round" stroke-linejoin="round" stroke-width="2" clip-path="url(#a)"><path d="m22.475 14.475.612.613a2.012 2.012 0 0 1 0 2.825l-.875.875a1 1 0 0 1-1.425 0l-7.575-7.575a1 1 0 0 1 0-1.425l.875-.876a2.012 2.012 0 0 1 2.825 0l.613.613 3.45-3.45c1.35-1.35 3.55-1.425 4.925-.112a3.5 3.5 0 0 1 .075 5.012l-3.5 3.5Z"/><path d="m19.825 17.825-7 7a3.962 3.962 0 0 1-3.862 1.038l-2.925 1.274a1 1 0 0 1-1.1-.2v0a.713.713 0 0 1-.15-.8l1.35-3.1a3.962 3.962 0 0 1 1.037-3.862l7-7"/></g><defs><clipPath id="a"><rect width="32" height="32" fill="#fff" rx="5"/></clipPath></defs></svg>