<svg xmlns="http://www.w3.org/2000/svg" fill="none" stroke="currentColor" aria-hidden="true" viewBox="0 0 32 32"><g id="Icon-Intersect"><g clip-path="url(#clip0_8_1057)"><g id="size=md (32px)"><g id="Intersect"><path id="Vector" stroke-linecap="round" stroke-linejoin="round" stroke-width="2" d="M12 21C16.9706 21 21 16.9706 21 12C21 7.02944 16.9706 3 12 3C7.02944 3 3 7.02944 3 12C3 16.9706 7.02944 21 12 21Z"/><path id="Vector_2" stroke-linecap="round" stroke-linejoin="round" stroke-width="2" d="M20 29C24.9706 29 29 24.9706 29 20C29 15.0294 24.9706 11 20 11C15.0294 11 11 15.0294 11 20C11 24.9706 15.0294 29 20 29Z"/><path id="Vector_3" stroke-linecap="round" stroke-linejoin="round" stroke-width="2" d="M15.3125 12.3125L19.6875 16.6875"/><path id="Vector_4" stroke-linecap="round" stroke-linejoin="round" stroke-width="2" d="M12.3125 15.3125L16.6875 19.6875"/></g></g></g></g><defs><clipPath id="clip0_8_1057"><rect width="32" height="32" fill="white" rx="5"/></clipPath></defs></svg>