<svg xmlns="http://www.w3.org/2000/svg" fill="none" stroke="currentColor" aria-hidden="true" viewBox="0 0 32 32"><g stroke="#101828" stroke-linecap="round" stroke-linejoin="round" stroke-width="2" clip-path="url(#a)"><path d="M25 7H6a1 1 0 0 0-1 1v8a1 1 0 0 0 1 1h19a1 1 0 0 0 1-1V8a1 1 0 0 0-1-1Z"/><path d="M26 12h3a1 1 0 0 1 1 1v6.25a1.012 1.012 0 0 1-.725.962l-12.55 3.576a1.013 1.013 0 0 0-.725.962V29M5 12H2"/></g><defs><clipPath id="a"><rect width="32" height="32" fill="#fff" rx="5"/></clipPath></defs></svg>