<svg xmlns="http://www.w3.org/2000/svg" fill="none" stroke="currentColor" aria-hidden="true" viewBox="0 0 32 32"><g id="Icon-Palette"><g clip-path="url(#clip0_8_793)"><g id="size=md (32px)"><g id="Palette"><path id="Vector" stroke-linecap="round" stroke-linejoin="round" stroke-width="2" d="M27.7 18.675C27.9073 17.7648 28.008 16.8335 28 15.9C27.95 9.28749 22.475 3.93749 15.875 3.99999C13.0554 4.02972 10.3363 5.05141 8.19484 6.8858C6.05337 8.72019 4.62626 11.2501 4.16391 14.0317C3.70155 16.8133 4.23349 19.6688 5.66639 22.0973C7.09928 24.5258 9.34161 26.3722 12 27.3125C12.4522 27.4754 12.937 27.5268 13.4133 27.4623C13.8896 27.3978 14.3433 27.2194 14.7359 26.9421C15.1285 26.6648 15.4485 26.2969 15.6685 25.8696C15.8886 25.4422 16.0023 24.9681 16 24.4875V24C15.9983 23.6056 16.0748 23.2147 16.225 22.85C16.3751 22.4853 16.596 22.1539 16.875 21.875C17.1539 21.5961 17.4852 21.3752 17.85 21.225C18.2147 21.0748 18.6055 20.9983 19 21H24.775C25.4536 21.0004 26.1124 20.7707 26.6436 20.3485C27.1749 19.9262 27.5473 19.3362 27.7 18.675V18.675Z"/><path id="Vector_2" fill="#101828" d="M16 11C16.8284 11 17.5 10.3284 17.5 9.5C17.5 8.67157 16.8284 8 16 8C15.1716 8 14.5 8.67157 14.5 9.5C14.5 10.3284 15.1716 11 16 11Z"/><path id="Vector_3" fill="#101828" d="M10.375 14.25C11.2034 14.25 11.875 13.5784 11.875 12.75C11.875 11.9216 11.2034 11.25 10.375 11.25C9.54657 11.25 8.875 11.9216 8.875 12.75C8.875 13.5784 9.54657 14.25 10.375 14.25Z"/><path id="Vector_4" fill="#101828" d="M10.375 20.75C11.2034 20.75 11.875 20.0784 11.875 19.25C11.875 18.4216 11.2034 17.75 10.375 17.75C9.54657 17.75 8.875 18.4216 8.875 19.25C8.875 20.0784 9.54657 20.75 10.375 20.75Z"/><path id="Vector_5" fill="#101828" d="M21.625 14.25C22.4534 14.25 23.125 13.5784 23.125 12.75C23.125 11.9216 22.4534 11.25 21.625 11.25C20.7966 11.25 20.125 11.9216 20.125 12.75C20.125 13.5784 20.7966 14.25 21.625 14.25Z"/></g></g></g></g><defs><clipPath id="clip0_8_793"><rect width="32" height="32" fill="white" rx="5"/></clipPath></defs></svg>