<svg xmlns="http://www.w3.org/2000/svg" fill="none" stroke="currentColor" aria-hidden="true" viewBox="0 0 32 32"><g stroke="#101828" stroke-linecap="round" stroke-linejoin="round" stroke-width="2" clip-path="url(#a)"><path d="M16 19v12m0-12a2.5 2.5 0 1 0 0-5 2.5 2.5 0 0 0 0 5ZM9 9V4a1 1 0 0 1 1-1h12a1 1 0 0 1 1 1v5"/><path d="m9 9-3.425 6.925a1.025 1.025 0 0 0 .088 1.037L16 31l10.338-14.038a1.025 1.025 0 0 0 .087-1.037L23 9H9Z"/></g><defs><clipPath id="a"><rect width="32" height="32" fill="#fff" rx="5"/></clipPath></defs></svg>