<svg xmlns="http://www.w3.org/2000/svg" fill="none" stroke="currentColor" aria-hidden="true" viewBox="0 0 32 32"><g id="Icon-PenNib"><g clip-path="url(#clip0_8_645)"><g id="size=md (32px)"><g id="PenNib"><path id="Vector" stroke-linecap="round" stroke-linejoin="round" stroke-width="2" d="M14.5 20C15.8807 20 17 18.8807 17 17.5C17 16.1193 15.8807 15 14.5 15C13.1193 15 12 16.1193 12 17.5C12 18.8807 13.1193 20 14.5 20Z"/><path id="Vector_2" stroke-linecap="round" stroke-linejoin="round" stroke-width="2" d="M4 28L12.7375 19.2625"/><path id="Vector_3" stroke-linecap="round" stroke-linejoin="round" stroke-width="2" d="M4 28L21.4375 25.1C21.6096 25.0706 21.7709 24.9962 21.9048 24.8842C22.0387 24.7722 22.1406 24.6267 22.2 24.4625L25 17L15 7L7.5375 9.8C7.37305 9.86264 7.22777 9.96706 7.11598 10.103C7.00419 10.2389 6.92975 10.4016 6.9 10.575L4 28Z"/><path id="Vector_4" stroke-linecap="round" stroke-linejoin="round" stroke-width="2" d="M25 17L28.2875 13.7125C28.382 13.6194 28.457 13.5085 28.5082 13.3862C28.5595 13.2639 28.5858 13.1326 28.5858 13C28.5858 12.8674 28.5595 12.7361 28.5082 12.6138C28.457 12.4915 28.382 12.3805 28.2875 12.2875L19.7125 3.7125C19.6195 3.61801 19.5085 3.54298 19.3862 3.49176C19.2639 3.44054 19.1326 3.41417 19 3.41417C18.8674 3.41417 18.7361 3.44054 18.6138 3.49176C18.4915 3.54298 18.3805 3.61801 18.2875 3.7125L15 7"/></g></g></g></g><defs><clipPath id="clip0_8_645"><rect width="32" height="32" fill="white" rx="5"/></clipPath></defs></svg>