<svg xmlns="http://www.w3.org/2000/svg" fill="none" stroke="currentColor" aria-hidden="true" viewBox="0 0 32 32"><g id="Icon-PencilCircle"><g clip-path="url(#clip0_8_724)"><g id="size=md (32px)"><g id="PencilCircle"><path id="Vector" stroke-linecap="round" stroke-linejoin="round" stroke-width="2" d="M16 28C22.6274 28 28 22.6274 28 16C28 9.37258 22.6274 4 16 4C9.37258 4 4 9.37258 4 16C4 22.6274 9.37258 28 16 28Z"/><path id="Vector_2" stroke-linecap="round" stroke-linejoin="round" stroke-width="2" d="M22 26.4V22L16 9L10 22V26.4"/><path id="Vector_3" stroke-linecap="round" stroke-linejoin="round" stroke-width="2" d="M16 24C16 23.2044 16.3161 22.4413 16.8787 21.8787C17.4413 21.3161 18.2044 21 19 21C19.7956 21 20.5587 21.3161 21.1213 21.8787C21.6839 22.4413 22 23.2044 22 24"/><path id="Vector_4" stroke-linecap="round" stroke-linejoin="round" stroke-width="2" d="M16 28V24C16 23.2044 15.6839 22.4413 15.1213 21.8787C14.5587 21.3161 13.7956 21 13 21C12.2044 21 11.4413 21.3161 10.8787 21.8787C10.3161 22.4413 10 23.2044 10 24"/><path id="Vector_5" stroke-linecap="round" stroke-linejoin="round" stroke-width="2" d="M12.7749 16H19.2249"/></g></g></g></g><defs><clipPath id="clip0_8_724"><rect width="32" height="32" fill="white" rx="5"/></clipPath></defs></svg>