<svg xmlns="http://www.w3.org/2000/svg" fill="none" stroke="currentColor" aria-hidden="true" viewBox="0 0 32 32"><g id="Icon-Perspective"><g clip-path="url(#clip0_8_607)"><g id="size=md (32px)"><g id="Perspective"><path id="Vector" stroke-linecap="round" stroke-linejoin="round" stroke-width="2" d="M25.825 26.7875L5.825 23.15C5.59326 23.1088 5.38348 22.9872 5.23258 22.8066C5.08167 22.626 4.99931 22.3979 5 22.1625V9.83751C4.99931 9.60214 5.08167 9.37407 5.23258 9.19344C5.38348 9.01282 5.59326 8.8912 5.825 8.85002L25.825 5.21251C25.9691 5.1869 26.1171 5.19323 26.2585 5.23108C26.3999 5.26892 26.5313 5.33736 26.6434 5.43154C26.7555 5.52572 26.8455 5.64336 26.9071 5.77615C26.9687 5.90893 27.0004 6.05363 27 6.20001V25.8C27.0004 25.9464 26.9687 26.0911 26.9071 26.2239C26.8455 26.3567 26.7555 26.4743 26.6434 26.5685C26.5313 26.6627 26.3999 26.7311 26.2585 26.769C26.1171 26.8068 25.9691 26.8131 25.825 26.7875Z"/><path id="Vector_2" stroke-linecap="round" stroke-linejoin="round" stroke-width="2" d="M2 16H30"/></g></g></g></g><defs><clipPath id="clip0_8_607"><rect width="32" height="32" fill="white" rx="5"/></clipPath></defs></svg>