<svg xmlns="http://www.w3.org/2000/svg" fill="none" stroke="currentColor" aria-hidden="true" viewBox="0 0 32 32"><g stroke="#101828" stroke-linecap="round" stroke-linejoin="round" stroke-width="2" clip-path="url(#a)"><path d="M15 9a3 3 0 1 0 0-6 3 3 0 0 0 0 6ZM5 18a3 3 0 1 0 0-6 3 3 0 0 0 0 6Zm15 11a3 3 0 1 0 0-6 3 3 0 0 0 0 6Zm6-17a3 3 0 1 0 0-6 3 3 0 0 0 0 6Zm-2.9-3.787-5.2-1.425m-5.125 1.225-5.55 4.975m.2 3.787 10.15 7.45M21 23.175l4-11.35"/></g><defs><clipPath id="a"><rect width="32" height="32" fill="#fff" rx="5"/></clipPath></defs></svg>