<svg xmlns="http://www.w3.org/2000/svg" fill="none" stroke="currentColor" aria-hidden="true" viewBox="0 0 32 32"><g id="Icon-Polygon"><g clip-path="url(#clip0_8_557)"><g id="size=md (32px)"><g id="Polygon"><path id="Vector" stroke-linecap="round" stroke-linejoin="round" stroke-width="2" d="M15 9C16.6569 9 18 7.65685 18 6C18 4.34315 16.6569 3 15 3C13.3431 3 12 4.34315 12 6C12 7.65685 13.3431 9 15 9Z"/><path id="Vector_2" stroke-linecap="round" stroke-linejoin="round" stroke-width="2" d="M5 18C6.65685 18 8 16.6569 8 15C8 13.3431 6.65685 12 5 12C3.34315 12 2 13.3431 2 15C2 16.6569 3.34315 18 5 18Z"/><path id="Vector_3" stroke-linecap="round" stroke-linejoin="round" stroke-width="2" d="M20 29C21.6569 29 23 27.6569 23 26C23 24.3431 21.6569 23 20 23C18.3431 23 17 24.3431 17 26C17 27.6569 18.3431 29 20 29Z"/><path id="Vector_4" stroke-linecap="round" stroke-linejoin="round" stroke-width="2" d="M26 12C27.6569 12 29 10.6569 29 9C29 7.34315 27.6569 6 26 6C24.3431 6 23 7.34315 23 9C23 10.6569 24.3431 12 26 12Z"/><path id="Vector_5" stroke-linecap="round" stroke-linejoin="round" stroke-width="2" d="M23.1 8.21251L17.9 6.78751"/><path id="Vector_6" stroke-linecap="round" stroke-linejoin="round" stroke-width="2" d="M12.775 8.01251L7.22498 12.9875"/><path id="Vector_7" stroke-linecap="round" stroke-linejoin="round" stroke-width="2" d="M7.42505 16.775L17.575 24.225"/><path id="Vector_8" stroke-linecap="round" stroke-linejoin="round" stroke-width="2" d="M21 23.175L25 11.825"/></g></g></g></g><defs><clipPath id="clip0_8_557"><rect width="32" height="32" fill="white" rx="5"/></clipPath></defs></svg>