<svg xmlns="http://www.w3.org/2000/svg" fill="none" stroke="currentColor" aria-hidden="true" viewBox="0 0 32 32"><g id="Icon-SelectionAll"><g clip-path="url(#clip0_8_397)"><g id="size=md (32px)"><g id="SelectionAll"><path id="Vector" stroke-linecap="round" stroke-linejoin="round" stroke-width="2" d="M18 5H14"/><path id="Vector_2" stroke-linecap="round" stroke-linejoin="round" stroke-width="2" d="M14 27H18"/><path id="Vector_3" stroke-linecap="round" stroke-linejoin="round" stroke-width="2" d="M23 5H26C26.2652 5 26.5196 5.10536 26.7071 5.29289C26.8946 5.48043 27 5.73478 27 6V9"/><path id="Vector_4" stroke-linecap="round" stroke-linejoin="round" stroke-width="2" d="M27 18V14"/><path id="Vector_5" stroke-linecap="round" stroke-linejoin="round" stroke-width="2" d="M23 27H26C26.2652 27 26.5196 26.8946 26.7071 26.7071C26.8946 26.5196 27 26.2652 27 26V23"/><path id="Vector_6" stroke-linecap="round" stroke-linejoin="round" stroke-width="2" d="M5 14V18"/><path id="Vector_7" stroke-linecap="round" stroke-linejoin="round" stroke-width="2" d="M9 27H6C5.73478 27 5.48043 26.8946 5.29289 26.7071C5.10536 26.5196 5 26.2652 5 26V23"/><path id="Vector_8" stroke-linecap="round" stroke-linejoin="round" stroke-width="2" d="M9 5H6C5.73478 5 5.48043 5.10536 5.29289 5.29289C5.10536 5.48043 5 5.73478 5 6V9"/><path id="Vector_9" stroke-linecap="round" stroke-linejoin="round" stroke-width="2" d="M22 10H10V22H22V10Z"/></g></g></g></g><defs><clipPath id="clip0_8_397"><rect width="32" height="32" fill="white" rx="5"/></clipPath></defs></svg>