<svg xmlns="http://www.w3.org/2000/svg" fill="none" stroke="currentColor" aria-hidden="true" viewBox="0 0 32 32"><g id="Icon-SelectionForeground"><g clip-path="url(#clip0_8_332)"><g id="size=md (32px)"><g id="SelectionForeground"><path id="Vector" stroke-linecap="round" stroke-linejoin="round" stroke-width="2" d="M7 27H6C5.73478 27 5.48043 26.8946 5.29289 26.7071C5.10536 26.5196 5 26.2652 5 26V25"/><path id="Vector_2" stroke-linecap="round" stroke-linejoin="round" stroke-width="2" d="M14 11H11"/><path id="Vector_3" stroke-linecap="round" stroke-linejoin="round" stroke-width="2" d="M14 27H12"/><path id="Vector_4" stroke-linecap="round" stroke-linejoin="round" stroke-width="2" d="M21 21V18"/><path id="Vector_5" stroke-linecap="round" stroke-linejoin="round" stroke-width="2" d="M5 20V18"/><path id="Vector_6" stroke-linecap="round" stroke-linejoin="round" stroke-width="2" d="M19 27H20C20.2652 27 20.5196 26.8946 20.7071 26.7071C20.8946 26.5196 21 26.2652 21 26V25"/><path id="Vector_7" stroke-linecap="round" stroke-linejoin="round" stroke-width="2" d="M19 11H20C20.2652 11 20.5196 11.1054 20.7071 11.2929C20.8946 11.4804 21 11.7348 21 12V13"/><path id="Vector_8" stroke-linecap="round" stroke-linejoin="round" stroke-width="2" d="M7 11H6C5.73478 11 5.48043 11.1054 5.29289 11.2929C5.10536 11.4804 5 11.7348 5 12V13"/><path id="Vector_9" stroke-linecap="round" stroke-linejoin="round" stroke-width="2" d="M21 21H26C26.2652 21 26.5196 20.8946 26.7071 20.7071C26.8946 20.5196 27 20.2652 27 20V6C27 5.73478 26.8946 5.48043 26.7071 5.29289C26.5196 5.10536 26.2652 5 26 5H12C11.7348 5 11.4804 5.10536 11.2929 5.29289C11.1054 5.48043 11 5.73478 11 6V11"/></g></g></g></g><defs><clipPath id="clip0_8_332"><rect width="32" height="32" fill="white" rx="5"/></clipPath></defs></svg>