<svg width="32" height="32" viewBox="0 0 32 32" fill="none" xmlns="http://www.w3.org/2000/svg"><g id="Icon-Warning"><g clip-path="url(#clip0_10_138)"><g id="size=md (32px)"><g id="Group 3"><path id="Vector" d="M16 13V18" stroke="#101828" stroke-width="2" stroke-linecap="round" stroke-linejoin="round"/><path id="Vector_2" d="M14.2748 5L3.27479 24C3.09955 24.3035 3.00715 24.6478 3.00684 24.9982C3.00653 25.3487 3.09832 25.6931 3.27302 25.997C3.44773 26.3008 3.6992 26.5534 4.00226 26.7294C4.30532 26.9055 4.64932 26.9988 4.99979 27H26.9998C27.3503 26.9988 27.6943 26.9055 27.9973 26.7294C28.3004 26.5534 28.5519 26.3008 28.7266 25.997C28.9013 25.6931 28.9931 25.3487 28.9927 24.9982C28.9924 24.6478 28.9 24.3035 28.7248 24L17.7248 5C17.5509 4.69608 17.2997 4.44351 16.9968 4.26785C16.6939 4.09219 16.35 3.99968 15.9998 3.99968C15.6496 3.99968 15.3057 4.09219 15.0028 4.26785C14.6998 4.44351 14.4487 4.69608 14.2748 5V5Z" stroke="#101828" stroke-width="2" stroke-linecap="round" stroke-linejoin="round"/><path id="Vector_3" d="M16 24C16.8284 24 17.5 23.3284 17.5 22.5C17.5 21.6716 16.8284 21 16 21C15.1716 21 14.5 21.6716 14.5 22.5C14.5 23.3284 15.1716 24 16 24Z" fill="#101828"/></g></g></g><rect x="0.5" y="0.5" width="31" height="31" rx="4.5" stroke="#3D90E3" stroke-dasharray="10 5"/></g><defs><clipPath id="clip0_10_138"><rect width="32" height="32" rx="5" fill="white"/></clipPath></defs></svg>