<svg width="32" height="32" viewBox="0 0 32 32" fill="none" xmlns="http://www.w3.org/2000/svg"><g id="Icon-FingerprintSimple"><g clip-path="url(#clip0_10_523)"><g id="size=md (32px)"><path id="Vector" d="M22.0002 16C22.0033 19.9094 21.2433 23.7818 19.7627 27.4" stroke="#101828" stroke-width="2" stroke-linecap="round" stroke-linejoin="round"/><path id="Vector_2" d="M20.475 12C19.6651 11.0932 18.5989 10.4539 17.4175 10.1666C16.2361 9.87941 14.9954 9.95785 13.8596 10.3916C12.7238 10.8253 11.7465 11.5938 11.0573 12.5954C10.3681 13.5969 9.99935 14.7842 10 16C10.0074 19.0488 9.23276 22.0485 7.75 24.7125" stroke="#101828" stroke-width="2" stroke-linecap="round" stroke-linejoin="round"/><path id="Vector_3" d="M12 4.68749C13.2836 4.22902 14.637 3.99642 16 3.99999C19.1826 3.99999 22.2348 5.26428 24.4853 7.51471C26.7357 9.76515 28 12.8174 28 16C27.9987 18.6912 27.7011 21.374 27.1125 24" stroke="#101828" stroke-width="2" stroke-linecap="round" stroke-linejoin="round"/><path id="Vector_4" d="M2.9126 21C3.63224 19.4315 4.00326 17.7257 4.0001 16C3.99869 14.3124 4.35436 12.6436 5.04375 11.1032C5.73315 9.56287 6.74066 8.1858 8.0001 7.0625" stroke="#101828" stroke-width="2" stroke-linecap="round" stroke-linejoin="round"/><path id="Vector_5" d="M13.825 26C13.575 26.55 13.3 27.1 13 27.625" stroke="#101828" stroke-width="2" stroke-linecap="round" stroke-linejoin="round"/><path id="Vector_6" d="M15.9998 16C16.0029 18.0244 15.7467 20.0408 15.2373 22" stroke="#101828" stroke-width="2" stroke-linecap="round" stroke-linejoin="round"/></g></g><rect x="0.5" y="0.5" width="31" height="31" rx="4.5" stroke="#3D90E3" stroke-dasharray="10 5"/></g><defs><clipPath id="clip0_10_523"><rect width="32" height="32" rx="5" fill="white"/></clipPath></defs></svg>