<svg xmlns="http://www.w3.org/2000/svg" fill="none" aria-hidden="true" viewBox="0 0 48 48"><path fill="#00005B" d="M6 19.029c0-4.56 0-6.841.888-8.583a8.143 8.143 0 0 1 3.558-3.558C12.188 6 14.468 6 19.03 6h9.942c4.56 0 6.841 0 8.583.888a8.143 8.143 0 0 1 3.558 3.558C42 12.188 42 14.468 42 19.03v9.942c0 4.56 0 6.841-.888 8.583a8.143 8.143 0 0 1-3.558 3.558C35.812 42 33.532 42 28.97 42h-9.94c-4.56 0-6.841 0-8.583-.888a8.143 8.143 0 0 1-3.558-3.558C6 35.812 6 33.532 6 28.97v-9.94Z"/><path fill="#99F" d="M13.714 31.452V15.267c0-.11.045-.173.15-.173 1.555 0 3.11-.094 4.665-.094 2.523 0 5.255.88 6.213 3.57.226.66.346 1.337.346 2.045 0 1.353-.3 2.47-.902 3.35-1.681 2.46-4.595 2.422-7.207 2.422v5.049c.02.15-.104.22-.226.22h-2.858c-.12 0-.18-.063-.18-.204Zm3.28-13.322v5.285c1.036.077 2.12.085 3.114-.252 1.099-.323 1.7-1.292 1.7-2.454.031-.99-.498-1.939-1.399-2.296-.983-.417-2.354-.442-3.415-.283Zm10.134 1h2.64a.335.335 0 0 1 .315.253c.193.449.217.99.218 1.476a5.711 5.711 0 0 1 1.61-1.355 4.066 4.066 0 0 1 2.155-.57c.125-.019.236.097.218.228v3.064c0 .118-.081.177-.242.177-1.118-.08-2.858.196-3.67 1.114v7.967c0 .152-.064.228-.194.228h-2.832c-.14.021-.262-.11-.243-.253v-8.65c0-1.16.024-2.354-.145-3.502-.026-.106.07-.204.17-.177Z"/></svg>