<svg xmlns="http://www.w3.org/2000/svg" fill="none" aria-hidden="true" viewBox="0 0 48 48"><path fill="#00005B" d="M6 19.029c0-4.56 0-6.841.888-8.583a8.143 8.143 0 0 1 3.558-3.558C12.188 6 14.468 6 19.03 6h9.942c4.56 0 6.841 0 8.583.888a8.143 8.143 0 0 1 3.558 3.558C42 12.188 42 14.468 42 19.03v9.942c0 4.56 0 6.841-.888 8.583a8.143 8.143 0 0 1-3.558 3.558C35.812 42 33.532 42 28.97 42h-9.94c-4.56 0-6.841 0-8.583-.888a8.143 8.143 0 0 1-3.558-3.558C6 35.812 6 33.532 6 28.97v-9.94Z"/><path fill="#99F" d="M21.158 28.582h-5.579l-1.135 3.623a.288.288 0 0 1-.29.223H11.33c-.161 0-.218-.09-.17-.272l4.83-14.208c.05-.149.097-.294.146-.484.063-.33.095-.667.096-1.003a.153.153 0 0 1 .17-.174h3.84c.112 0 .176.041.192.124l5.483 15.77c.048.165 0 .247-.145.247h-3.14a.226.226 0 0 1-.241-.173l-1.232-3.673Zm-4.71-3.055h3.816c-.627-2.142-1.334-4.256-1.907-6.415-.65 2.24-1.25 4.316-1.908 6.415Zm13.545 1.656c.222 1.84 1.767 2.717 3.477 2.68.965-.02 1.996-.17 2.897-.534.08-.066.121-.025.121.124v2.353a.32.32 0 0 1-.145.297c-1.12.51-2.406.663-3.621.643-3.623 0-6.111-2.553-6.11-6.267-.01-3.519 2.274-6.488 5.82-6.488 3.006-.078 5.087 2.329 5.096 5.324 0 .546-.031 1.093-.097 1.635a.223.223 0 0 1-.217.198c-2.401 0-4.814.035-7.221.035Zm0-2.256c1.338 0 2.683.047 4.02-.013.202-.02.35-.058.35-.268-.027-1.11-.964-2.024-2.052-1.981-1.314-.081-2.155 1.028-2.318 2.262Z"/></svg>