<svg xmlns="http://www.w3.org/2000/svg" fill="none" aria-hidden="true" viewBox="0 0 48 48"><path fill="#00005B" d="M6 19.029c0-4.56 0-6.841.888-8.583a8.143 8.143 0 0 1 3.558-3.558C12.188 6 14.468 6 19.03 6h9.942c4.56 0 6.841 0 8.583.888a8.143 8.143 0 0 1 3.558 3.558C42 12.188 42 14.468 42 19.03v9.942c0 4.56 0 6.841-.888 8.583a8.143 8.143 0 0 1-3.558 3.558C35.812 42 33.532 42 28.97 42h-9.94c-4.56 0-6.841 0-8.583-.888a8.143 8.143 0 0 1-3.558-3.558C6 35.812 6 33.532 6 28.97v-9.94Z"/><path fill="#99F" d="M15.505 31.474h-2.882c-.13 0-.194-.075-.194-.226V15.301c0-.156.048-.226.15-.226 1.694-.053 3.388-.075 5.082-.075 3.102 0 6.276 1.386 6.276 5.045.018 1.978-1.293 3.662-3.028 4.376 1.418 2.243 2.848 4.502 4.264 6.746.06.073.116.319-.048.3h-3.513c-.13.008-.265-.032-.34-.149-1.165-1.757-2.196-3.633-3.204-5.49-.134-.212-.306-.434-.574-.42h-1.789v5.843c0 .148-.07.223-.2.223Zm.194-9.034c1.613 0 4.957.363 4.87-2.224 0-2.486-3.158-2.288-4.87-2.13v4.354Zm21.034-3.308v9.548c0 .655-.005 1.316.06 1.968.025.243.045.388.062.555.015.134-.04.2-.17.2h-2.593a.286.286 0 0 1-.29-.175 2.923 2.923 0 0 1-.122-.718c-.925.855-2.148 1.194-3.368 1.204-2.64.033-4.13-2.199-4.07-4.84v-7.717c-.016-.115.082-.217.194-.2h2.879c.111-.017.21.085.194.2v7.316c0 1.337.65 2.207 1.99 2.207.706.009 1.405-.283 1.973-.702v-8.846c0-.117.073-.176.218-.176h2.874c.097-.014.183.075.17.176Z"/></svg>