<svg xmlns="http://www.w3.org/2000/svg" fill="none" aria-hidden="true" viewBox="0 0 48 48"><rect width="36" height="36" x="6" y="6" fill="#300" rx="8"/><g fill="#FF9A00"><path d="M32.13 19.459a1.925 1.925 0 0 1-1.345-.502 1.81 1.81 0 0 1-.514-1.32 1.645 1.645 0 0 1 .544-1.277c.363-.33.847-.502 1.345-.502.59 0 1.043.172 1.376.502.332.344.514.803.498 1.277a1.76 1.76 0 0 1-.529 1.32 1.83 1.83 0 0 1-1.375.502Zm-1.692 12.454V20.865c0-.143.06-.2.196-.2h2.992c.136 0 .197.07.197.2v11.048c0 .158-.06.23-.197.23h-2.962c-.15 0-.226-.087-.226-.23Z"/><path fill-rule="evenodd" d="M24.046 28.555h-5.622l-1.149 3.372a.263.263 0 0 1-.287.201h-2.84c-.167 0-.212-.086-.167-.258l4.866-13.3.04-.13c.033-.107.068-.222.111-.344a4.8 4.8 0 0 0 .09-.933c-.014-.072.046-.143.122-.158h3.914c.12 0 .181.044.196.115l5.516 14.778c.045.158 0 .23-.151.23h-3.159a.228.228 0 0 1-.241-.158l-1.24-3.415ZM19.3 25.643h3.839a18.87 18.87 0 0 0-.348-1.033 41.972 41.972 0 0 1-.408-1.234l-.219-.66c-.072-.219-.144-.438-.22-.66a31.8 31.8 0 0 1-.407-1.277c-.054-.178-.104-.35-.153-.517-.062-.21-.12-.41-.18-.602h-.03a16.903 16.903 0 0 1-.514 1.85l-.26.798a97.16 97.16 0 0 1-.435 1.326 27.081 27.081 0 0 1-.665 2.009Z" clip-rule="evenodd"/></g></svg>