<svg xmlns="http://www.w3.org/2000/svg" fill="none" aria-hidden="true" viewBox="0 0 48 48"><g id="adobe-creativecloud-alt-Icon"><g id="Vector"><path fill="white" d="M6.105 27.4875C6.075 27.1875 6.03 26.9025 6 26.5875V25.4325C6.015 25.3725 6.03 25.3125 6.03 25.2375C6.09 24.1425 6.33 23.0625 6.72 22.0275C7.815 19.2525 9.675 17.1975 12.33 15.8625C13.695 15.1875 15.195 14.7975 16.725 14.7225C17.475 14.6775 18.225 14.7225 18.975 14.8275C19.05 14.8425 19.14 14.8125 19.185 14.7525C20.25 13.6575 21.495 12.7575 22.875 12.0825C24.195 11.4225 25.635 11.0025 27.12 10.8375C27.465 10.7925 27.825 10.7625 28.17 10.7325H29.265C29.34 10.7475 29.4 10.7625 29.475 10.7625C30.015 10.8225 30.54 10.8675 31.08 10.9575C32.715 11.2275 34.29 11.8275 35.685 12.7275C37.83 14.0475 39.555 15.9375 40.68 18.1875C41.34 19.5075 41.76 20.9325 41.925 22.4025C41.925 22.7175 41.97 23.0625 42 23.4075V24.5925C41.985 24.6525 41.97 24.7125 41.97 24.7875C41.91 25.2975 41.865 25.8225 41.79 26.3325C41.52 27.9825 40.92 29.5725 40.02 30.9825C38.7 33.1125 36.795 34.8375 34.545 35.9325C33.225 36.5925 31.8 37.0125 30.33 37.1775C30.045 37.2225 29.775 37.2525 29.505 37.2675H16.65C16.605 37.2675 16.56 37.2525 16.515 37.2525C15.24 37.1775 13.995 36.8775 12.84 36.3675C10.29 35.2575 8.4 33.4425 7.155 30.9825C6.6 29.8725 6.255 28.7025 6.105 27.4875V27.4875ZM20.8321 34.6054C20.0821 33.9004 19.3171 33.1954 18.5971 32.4754C18.4471 32.3404 18.3271 32.2654 18.1171 32.2804C17.3521 32.2954 16.5871 32.2954 15.8671 32.1304C12.1771 31.2904 10.0321 27.2854 11.3971 23.7454C12.4471 20.9554 15.4171 19.2604 18.3571 19.7854C19.6771 20.0254 20.8021 20.5804 21.7621 21.5704C22.9171 22.7554 24.0871 23.9104 25.2721 25.0954C25.5121 25.3504 25.8571 25.4854 26.2171 25.4404C26.6971 25.3654 27.0721 25.1254 27.2371 24.6604C27.4021 24.1954 27.3271 23.7604 26.9821 23.4154C25.7521 22.1704 24.5671 20.9104 23.2921 19.7104C21.5071 18.0604 19.4971 17.2354 17.3221 17.2654C16.4221 17.2804 15.5371 17.4304 14.6821 17.7004C10.3321 19.0204 7.81212 23.4904 8.78712 27.9004C9.67212 31.9054 13.2271 34.7554 17.3221 34.7554H20.7721C20.8321 34.7554 20.8921 34.7404 20.9821 34.7404C20.9371 34.6954 20.8771 34.6504 20.8321 34.6054V34.6054ZM27.7254 13.3019C26.3304 13.4219 24.9804 13.8269 23.7654 14.4869C23.0904 14.8169 22.4604 15.2369 21.8754 15.7169C21.8904 15.7469 21.9054 15.7619 21.9054 15.7619C22.6404 16.1219 23.3454 16.5569 24.0204 17.0519C24.0654 17.0819 24.1704 17.0669 24.2154 17.0369C26.0304 15.8669 28.0404 15.4619 30.1554 15.8369C32.2404 16.2119 33.9504 17.2619 35.2704 18.9269C36.7404 20.8169 37.2954 22.9469 36.9054 25.3319C36.6354 26.9219 35.9904 28.3619 34.9254 29.5469C32.9454 31.7369 30.4554 32.6369 27.5454 32.2469C25.7754 32.0219 24.1404 31.2119 22.8954 29.9369C21.2454 28.2719 19.5954 26.6219 17.9454 24.9569C17.7204 24.7319 17.4804 24.5519 17.1654 24.5219C16.6254 24.4319 16.1004 24.7319 15.8604 25.2269C15.6504 25.6769 15.6804 26.1719 16.1304 26.6219C17.9754 28.4369 19.7904 30.2519 21.6354 32.0669C21.9504 32.3819 22.2804 32.6669 22.6404 32.9219C24.0054 33.8969 25.5054 34.4369 27.1554 34.6469C28.4304 34.8269 29.7204 34.7819 30.9954 34.4969C33.3504 33.9869 35.4654 32.6969 36.9804 30.8219C38.3004 29.2469 39.0654 27.4319 39.3504 25.4219C39.5154 24.2669 39.4704 23.0819 39.2454 21.9419C38.9004 20.0819 38.0604 18.3719 36.8154 16.9619C34.6254 14.5169 31.9104 13.2869 28.7304 13.2719C28.3854 13.2719 28.0554 13.2869 27.7254 13.3019V13.3019Z"/><path fill="url(#paint0_radial_94_17311)" d="M6.105 27.4875C6.075 27.1875 6.03 26.9025 6 26.5875V25.4325C6.015 25.3725 6.03 25.3125 6.03 25.2375C6.09 24.1425 6.33 23.0625 6.72 22.0275C7.815 19.2525 9.675 17.1975 12.33 15.8625C13.695 15.1875 15.195 14.7975 16.725 14.7225C17.475 14.6775 18.225 14.7225 18.975 14.8275C19.05 14.8425 19.14 14.8125 19.185 14.7525C20.25 13.6575 21.495 12.7575 22.875 12.0825C24.195 11.4225 25.635 11.0025 27.12 10.8375C27.465 10.7925 27.825 10.7625 28.17 10.7325H29.265C29.34 10.7475 29.4 10.7625 29.475 10.7625C30.015 10.8225 30.54 10.8675 31.08 10.9575C32.715 11.2275 34.29 11.8275 35.685 12.7275C37.83 14.0475 39.555 15.9375 40.68 18.1875C41.34 19.5075 41.76 20.9325 41.925 22.4025C41.925 22.7175 41.97 23.0625 42 23.4075V24.5925C41.985 24.6525 41.97 24.7125 41.97 24.7875C41.91 25.2975 41.865 25.8225 41.79 26.3325C41.52 27.9825 40.92 29.5725 40.02 30.9825C38.7 33.1125 36.795 34.8375 34.545 35.9325C33.225 36.5925 31.8 37.0125 30.33 37.1775C30.045 37.2225 29.775 37.2525 29.505 37.2675H16.65C16.605 37.2675 16.56 37.2525 16.515 37.2525C15.24 37.1775 13.995 36.8775 12.84 36.3675C10.29 35.2575 8.4 33.4425 7.155 30.9825C6.6 29.8725 6.255 28.7025 6.105 27.4875V27.4875ZM20.8321 34.6054C20.0821 33.9004 19.3171 33.1954 18.5971 32.4754C18.4471 32.3404 18.3271 32.2654 18.1171 32.2804C17.3521 32.2954 16.5871 32.2954 15.8671 32.1304C12.1771 31.2904 10.0321 27.2854 11.3971 23.7454C12.4471 20.9554 15.4171 19.2604 18.3571 19.7854C19.6771 20.0254 20.8021 20.5804 21.7621 21.5704C22.9171 22.7554 24.0871 23.9104 25.2721 25.0954C25.5121 25.3504 25.8571 25.4854 26.2171 25.4404C26.6971 25.3654 27.0721 25.1254 27.2371 24.6604C27.4021 24.1954 27.3271 23.7604 26.9821 23.4154C25.7521 22.1704 24.5671 20.9104 23.2921 19.7104C21.5071 18.0604 19.4971 17.2354 17.3221 17.2654C16.4221 17.2804 15.5371 17.4304 14.6821 17.7004C10.3321 19.0204 7.81212 23.4904 8.78712 27.9004C9.67212 31.9054 13.2271 34.7554 17.3221 34.7554H20.7721C20.8321 34.7554 20.8921 34.7404 20.9821 34.7404C20.9371 34.6954 20.8771 34.6504 20.8321 34.6054V34.6054ZM27.7254 13.3019C26.3304 13.4219 24.9804 13.8269 23.7654 14.4869C23.0904 14.8169 22.4604 15.2369 21.8754 15.7169C21.8904 15.7469 21.9054 15.7619 21.9054 15.7619C22.6404 16.1219 23.3454 16.5569 24.0204 17.0519C24.0654 17.0819 24.1704 17.0669 24.2154 17.0369C26.0304 15.8669 28.0404 15.4619 30.1554 15.8369C32.2404 16.2119 33.9504 17.2619 35.2704 18.9269C36.7404 20.8169 37.2954 22.9469 36.9054 25.3319C36.6354 26.9219 35.9904 28.3619 34.9254 29.5469C32.9454 31.7369 30.4554 32.6369 27.5454 32.2469C25.7754 32.0219 24.1404 31.2119 22.8954 29.9369C21.2454 28.2719 19.5954 26.6219 17.9454 24.9569C17.7204 24.7319 17.4804 24.5519 17.1654 24.5219C16.6254 24.4319 16.1004 24.7319 15.8604 25.2269C15.6504 25.6769 15.6804 26.1719 16.1304 26.6219C17.9754 28.4369 19.7904 30.2519 21.6354 32.0669C21.9504 32.3819 22.2804 32.6669 22.6404 32.9219C24.0054 33.8969 25.5054 34.4369 27.1554 34.6469C28.4304 34.8269 29.7204 34.7819 30.9954 34.4969C33.3504 33.9869 35.4654 32.6969 36.9804 30.8219C38.3004 29.2469 39.0654 27.4319 39.3504 25.4219C39.5154 24.2669 39.4704 23.0819 39.2454 21.9419C38.9004 20.0819 38.0604 18.3719 36.8154 16.9619C34.6254 14.5169 31.9104 13.2869 28.7304 13.2719C28.3854 13.2719 28.0554 13.2869 27.7254 13.3019V13.3019Z"/><path fill="url(#paint1_radial_94_17311)" d="M6.105 27.4875C6.075 27.1875 6.03 26.9025 6 26.5875V25.4325C6.015 25.3725 6.03 25.3125 6.03 25.2375C6.09 24.1425 6.33 23.0625 6.72 22.0275C7.815 19.2525 9.675 17.1975 12.33 15.8625C13.695 15.1875 15.195 14.7975 16.725 14.7225C17.475 14.6775 18.225 14.7225 18.975 14.8275C19.05 14.8425 19.14 14.8125 19.185 14.7525C20.25 13.6575 21.495 12.7575 22.875 12.0825C24.195 11.4225 25.635 11.0025 27.12 10.8375C27.465 10.7925 27.825 10.7625 28.17 10.7325H29.265C29.34 10.7475 29.4 10.7625 29.475 10.7625C30.015 10.8225 30.54 10.8675 31.08 10.9575C32.715 11.2275 34.29 11.8275 35.685 12.7275C37.83 14.0475 39.555 15.9375 40.68 18.1875C41.34 19.5075 41.76 20.9325 41.925 22.4025C41.925 22.7175 41.97 23.0625 42 23.4075V24.5925C41.985 24.6525 41.97 24.7125 41.97 24.7875C41.91 25.2975 41.865 25.8225 41.79 26.3325C41.52 27.9825 40.92 29.5725 40.02 30.9825C38.7 33.1125 36.795 34.8375 34.545 35.9325C33.225 36.5925 31.8 37.0125 30.33 37.1775C30.045 37.2225 29.775 37.2525 29.505 37.2675H16.65C16.605 37.2675 16.56 37.2525 16.515 37.2525C15.24 37.1775 13.995 36.8775 12.84 36.3675C10.29 35.2575 8.4 33.4425 7.155 30.9825C6.6 29.8725 6.255 28.7025 6.105 27.4875V27.4875ZM20.8321 34.6054C20.0821 33.9004 19.3171 33.1954 18.5971 32.4754C18.4471 32.3404 18.3271 32.2654 18.1171 32.2804C17.3521 32.2954 16.5871 32.2954 15.8671 32.1304C12.1771 31.2904 10.0321 27.2854 11.3971 23.7454C12.4471 20.9554 15.4171 19.2604 18.3571 19.7854C19.6771 20.0254 20.8021 20.5804 21.7621 21.5704C22.9171 22.7554 24.0871 23.9104 25.2721 25.0954C25.5121 25.3504 25.8571 25.4854 26.2171 25.4404C26.6971 25.3654 27.0721 25.1254 27.2371 24.6604C27.4021 24.1954 27.3271 23.7604 26.9821 23.4154C25.7521 22.1704 24.5671 20.9104 23.2921 19.7104C21.5071 18.0604 19.4971 17.2354 17.3221 17.2654C16.4221 17.2804 15.5371 17.4304 14.6821 17.7004C10.3321 19.0204 7.81212 23.4904 8.78712 27.9004C9.67212 31.9054 13.2271 34.7554 17.3221 34.7554H20.7721C20.8321 34.7554 20.8921 34.7404 20.9821 34.7404C20.9371 34.6954 20.8771 34.6504 20.8321 34.6054V34.6054ZM27.7254 13.3019C26.3304 13.4219 24.9804 13.8269 23.7654 14.4869C23.0904 14.8169 22.4604 15.2369 21.8754 15.7169C21.8904 15.7469 21.9054 15.7619 21.9054 15.7619C22.6404 16.1219 23.3454 16.5569 24.0204 17.0519C24.0654 17.0819 24.1704 17.0669 24.2154 17.0369C26.0304 15.8669 28.0404 15.4619 30.1554 15.8369C32.2404 16.2119 33.9504 17.2619 35.2704 18.9269C36.7404 20.8169 37.2954 22.9469 36.9054 25.3319C36.6354 26.9219 35.9904 28.3619 34.9254 29.5469C32.9454 31.7369 30.4554 32.6369 27.5454 32.2469C25.7754 32.0219 24.1404 31.2119 22.8954 29.9369C21.2454 28.2719 19.5954 26.6219 17.9454 24.9569C17.7204 24.7319 17.4804 24.5519 17.1654 24.5219C16.6254 24.4319 16.1004 24.7319 15.8604 25.2269C15.6504 25.6769 15.6804 26.1719 16.1304 26.6219C17.9754 28.4369 19.7904 30.2519 21.6354 32.0669C21.9504 32.3819 22.2804 32.6669 22.6404 32.9219C24.0054 33.8969 25.5054 34.4369 27.1554 34.6469C28.4304 34.8269 29.7204 34.7819 30.9954 34.4969C33.3504 33.9869 35.4654 32.6969 36.9804 30.8219C38.3004 29.2469 39.0654 27.4319 39.3504 25.4219C39.5154 24.2669 39.4704 23.0819 39.2454 21.9419C38.9004 20.0819 38.0604 18.3719 36.8154 16.9619C34.6254 14.5169 31.9104 13.2869 28.7304 13.2719C28.3854 13.2719 28.0554 13.2869 27.7254 13.3019V13.3019Z"/><path fill="url(#paint2_radial_94_17311)" d="M6.105 27.4875C6.075 27.1875 6.03 26.9025 6 26.5875V25.4325C6.015 25.3725 6.03 25.3125 6.03 25.2375C6.09 24.1425 6.33 23.0625 6.72 22.0275C7.815 19.2525 9.675 17.1975 12.33 15.8625C13.695 15.1875 15.195 14.7975 16.725 14.7225C17.475 14.6775 18.225 14.7225 18.975 14.8275C19.05 14.8425 19.14 14.8125 19.185 14.7525C20.25 13.6575 21.495 12.7575 22.875 12.0825C24.195 11.4225 25.635 11.0025 27.12 10.8375C27.465 10.7925 27.825 10.7625 28.17 10.7325H29.265C29.34 10.7475 29.4 10.7625 29.475 10.7625C30.015 10.8225 30.54 10.8675 31.08 10.9575C32.715 11.2275 34.29 11.8275 35.685 12.7275C37.83 14.0475 39.555 15.9375 40.68 18.1875C41.34 19.5075 41.76 20.9325 41.925 22.4025C41.925 22.7175 41.97 23.0625 42 23.4075V24.5925C41.985 24.6525 41.97 24.7125 41.97 24.7875C41.91 25.2975 41.865 25.8225 41.79 26.3325C41.52 27.9825 40.92 29.5725 40.02 30.9825C38.7 33.1125 36.795 34.8375 34.545 35.9325C33.225 36.5925 31.8 37.0125 30.33 37.1775C30.045 37.2225 29.775 37.2525 29.505 37.2675H16.65C16.605 37.2675 16.56 37.2525 16.515 37.2525C15.24 37.1775 13.995 36.8775 12.84 36.3675C10.29 35.2575 8.4 33.4425 7.155 30.9825C6.6 29.8725 6.255 28.7025 6.105 27.4875V27.4875ZM20.8321 34.6054C20.0821 33.9004 19.3171 33.1954 18.5971 32.4754C18.4471 32.3404 18.3271 32.2654 18.1171 32.2804C17.3521 32.2954 16.5871 32.2954 15.8671 32.1304C12.1771 31.2904 10.0321 27.2854 11.3971 23.7454C12.4471 20.9554 15.4171 19.2604 18.3571 19.7854C19.6771 20.0254 20.8021 20.5804 21.7621 21.5704C22.9171 22.7554 24.0871 23.9104 25.2721 25.0954C25.5121 25.3504 25.8571 25.4854 26.2171 25.4404C26.6971 25.3654 27.0721 25.1254 27.2371 24.6604C27.4021 24.1954 27.3271 23.7604 26.9821 23.4154C25.7521 22.1704 24.5671 20.9104 23.2921 19.7104C21.5071 18.0604 19.4971 17.2354 17.3221 17.2654C16.4221 17.2804 15.5371 17.4304 14.6821 17.7004C10.3321 19.0204 7.81212 23.4904 8.78712 27.9004C9.67212 31.9054 13.2271 34.7554 17.3221 34.7554H20.7721C20.8321 34.7554 20.8921 34.7404 20.9821 34.7404C20.9371 34.6954 20.8771 34.6504 20.8321 34.6054V34.6054ZM27.7254 13.3019C26.3304 13.4219 24.9804 13.8269 23.7654 14.4869C23.0904 14.8169 22.4604 15.2369 21.8754 15.7169C21.8904 15.7469 21.9054 15.7619 21.9054 15.7619C22.6404 16.1219 23.3454 16.5569 24.0204 17.0519C24.0654 17.0819 24.1704 17.0669 24.2154 17.0369C26.0304 15.8669 28.0404 15.4619 30.1554 15.8369C32.2404 16.2119 33.9504 17.2619 35.2704 18.9269C36.7404 20.8169 37.2954 22.9469 36.9054 25.3319C36.6354 26.9219 35.9904 28.3619 34.9254 29.5469C32.9454 31.7369 30.4554 32.6369 27.5454 32.2469C25.7754 32.0219 24.1404 31.2119 22.8954 29.9369C21.2454 28.2719 19.5954 26.6219 17.9454 24.9569C17.7204 24.7319 17.4804 24.5519 17.1654 24.5219C16.6254 24.4319 16.1004 24.7319 15.8604 25.2269C15.6504 25.6769 15.6804 26.1719 16.1304 26.6219C17.9754 28.4369 19.7904 30.2519 21.6354 32.0669C21.9504 32.3819 22.2804 32.6669 22.6404 32.9219C24.0054 33.8969 25.5054 34.4369 27.1554 34.6469C28.4304 34.8269 29.7204 34.7819 30.9954 34.4969C33.3504 33.9869 35.4654 32.6969 36.9804 30.8219C38.3004 29.2469 39.0654 27.4319 39.3504 25.4219C39.5154 24.2669 39.4704 23.0819 39.2454 21.9419C38.9004 20.0819 38.0604 18.3719 36.8154 16.9619C34.6254 14.5169 31.9104 13.2869 28.7304 13.2719C28.3854 13.2719 28.0554 13.2869 27.7254 13.3019V13.3019Z"/><path fill="url(#paint3_radial_94_17311)" d="M6.105 27.4875C6.075 27.1875 6.03 26.9025 6 26.5875V25.4325C6.015 25.3725 6.03 25.3125 6.03 25.2375C6.09 24.1425 6.33 23.0625 6.72 22.0275C7.815 19.2525 9.675 17.1975 12.33 15.8625C13.695 15.1875 15.195 14.7975 16.725 14.7225C17.475 14.6775 18.225 14.7225 18.975 14.8275C19.05 14.8425 19.14 14.8125 19.185 14.7525C20.25 13.6575 21.495 12.7575 22.875 12.0825C24.195 11.4225 25.635 11.0025 27.12 10.8375C27.465 10.7925 27.825 10.7625 28.17 10.7325H29.265C29.34 10.7475 29.4 10.7625 29.475 10.7625C30.015 10.8225 30.54 10.8675 31.08 10.9575C32.715 11.2275 34.29 11.8275 35.685 12.7275C37.83 14.0475 39.555 15.9375 40.68 18.1875C41.34 19.5075 41.76 20.9325 41.925 22.4025C41.925 22.7175 41.97 23.0625 42 23.4075V24.5925C41.985 24.6525 41.97 24.7125 41.97 24.7875C41.91 25.2975 41.865 25.8225 41.79 26.3325C41.52 27.9825 40.92 29.5725 40.02 30.9825C38.7 33.1125 36.795 34.8375 34.545 35.9325C33.225 36.5925 31.8 37.0125 30.33 37.1775C30.045 37.2225 29.775 37.2525 29.505 37.2675H16.65C16.605 37.2675 16.56 37.2525 16.515 37.2525C15.24 37.1775 13.995 36.8775 12.84 36.3675C10.29 35.2575 8.4 33.4425 7.155 30.9825C6.6 29.8725 6.255 28.7025 6.105 27.4875V27.4875ZM20.8321 34.6054C20.0821 33.9004 19.3171 33.1954 18.5971 32.4754C18.4471 32.3404 18.3271 32.2654 18.1171 32.2804C17.3521 32.2954 16.5871 32.2954 15.8671 32.1304C12.1771 31.2904 10.0321 27.2854 11.3971 23.7454C12.4471 20.9554 15.4171 19.2604 18.3571 19.7854C19.6771 20.0254 20.8021 20.5804 21.7621 21.5704C22.9171 22.7554 24.0871 23.9104 25.2721 25.0954C25.5121 25.3504 25.8571 25.4854 26.2171 25.4404C26.6971 25.3654 27.0721 25.1254 27.2371 24.6604C27.4021 24.1954 27.3271 23.7604 26.9821 23.4154C25.7521 22.1704 24.5671 20.9104 23.2921 19.7104C21.5071 18.0604 19.4971 17.2354 17.3221 17.2654C16.4221 17.2804 15.5371 17.4304 14.6821 17.7004C10.3321 19.0204 7.81212 23.4904 8.78712 27.9004C9.67212 31.9054 13.2271 34.7554 17.3221 34.7554H20.7721C20.8321 34.7554 20.8921 34.7404 20.9821 34.7404C20.9371 34.6954 20.8771 34.6504 20.8321 34.6054V34.6054ZM27.7254 13.3019C26.3304 13.4219 24.9804 13.8269 23.7654 14.4869C23.0904 14.8169 22.4604 15.2369 21.8754 15.7169C21.8904 15.7469 21.9054 15.7619 21.9054 15.7619C22.6404 16.1219 23.3454 16.5569 24.0204 17.0519C24.0654 17.0819 24.1704 17.0669 24.2154 17.0369C26.0304 15.8669 28.0404 15.4619 30.1554 15.8369C32.2404 16.2119 33.9504 17.2619 35.2704 18.9269C36.7404 20.8169 37.2954 22.9469 36.9054 25.3319C36.6354 26.9219 35.9904 28.3619 34.9254 29.5469C32.9454 31.7369 30.4554 32.6369 27.5454 32.2469C25.7754 32.0219 24.1404 31.2119 22.8954 29.9369C21.2454 28.2719 19.5954 26.6219 17.9454 24.9569C17.7204 24.7319 17.4804 24.5519 17.1654 24.5219C16.6254 24.4319 16.1004 24.7319 15.8604 25.2269C15.6504 25.6769 15.6804 26.1719 16.1304 26.6219C17.9754 28.4369 19.7904 30.2519 21.6354 32.0669C21.9504 32.3819 22.2804 32.6669 22.6404 32.9219C24.0054 33.8969 25.5054 34.4369 27.1554 34.6469C28.4304 34.8269 29.7204 34.7819 30.9954 34.4969C33.3504 33.9869 35.4654 32.6969 36.9804 30.8219C38.3004 29.2469 39.0654 27.4319 39.3504 25.4219C39.5154 24.2669 39.4704 23.0819 39.2454 21.9419C38.9004 20.0819 38.0604 18.3719 36.8154 16.9619C34.6254 14.5169 31.9104 13.2869 28.7304 13.2719C28.3854 13.2719 28.0554 13.2869 27.7254 13.3019V13.3019Z"/><path fill="url(#paint4_radial_94_17311)" d="M6.105 27.4875C6.075 27.1875 6.03 26.9025 6 26.5875V25.4325C6.015 25.3725 6.03 25.3125 6.03 25.2375C6.09 24.1425 6.33 23.0625 6.72 22.0275C7.815 19.2525 9.675 17.1975 12.33 15.8625C13.695 15.1875 15.195 14.7975 16.725 14.7225C17.475 14.6775 18.225 14.7225 18.975 14.8275C19.05 14.8425 19.14 14.8125 19.185 14.7525C20.25 13.6575 21.495 12.7575 22.875 12.0825C24.195 11.4225 25.635 11.0025 27.12 10.8375C27.465 10.7925 27.825 10.7625 28.17 10.7325H29.265C29.34 10.7475 29.4 10.7625 29.475 10.7625C30.015 10.8225 30.54 10.8675 31.08 10.9575C32.715 11.2275 34.29 11.8275 35.685 12.7275C37.83 14.0475 39.555 15.9375 40.68 18.1875C41.34 19.5075 41.76 20.9325 41.925 22.4025C41.925 22.7175 41.97 23.0625 42 23.4075V24.5925C41.985 24.6525 41.97 24.7125 41.97 24.7875C41.91 25.2975 41.865 25.8225 41.79 26.3325C41.52 27.9825 40.92 29.5725 40.02 30.9825C38.7 33.1125 36.795 34.8375 34.545 35.9325C33.225 36.5925 31.8 37.0125 30.33 37.1775C30.045 37.2225 29.775 37.2525 29.505 37.2675H16.65C16.605 37.2675 16.56 37.2525 16.515 37.2525C15.24 37.1775 13.995 36.8775 12.84 36.3675C10.29 35.2575 8.4 33.4425 7.155 30.9825C6.6 29.8725 6.255 28.7025 6.105 27.4875V27.4875ZM20.8321 34.6054C20.0821 33.9004 19.3171 33.1954 18.5971 32.4754C18.4471 32.3404 18.3271 32.2654 18.1171 32.2804C17.3521 32.2954 16.5871 32.2954 15.8671 32.1304C12.1771 31.2904 10.0321 27.2854 11.3971 23.7454C12.4471 20.9554 15.4171 19.2604 18.3571 19.7854C19.6771 20.0254 20.8021 20.5804 21.7621 21.5704C22.9171 22.7554 24.0871 23.9104 25.2721 25.0954C25.5121 25.3504 25.8571 25.4854 26.2171 25.4404C26.6971 25.3654 27.0721 25.1254 27.2371 24.6604C27.4021 24.1954 27.3271 23.7604 26.9821 23.4154C25.7521 22.1704 24.5671 20.9104 23.2921 19.7104C21.5071 18.0604 19.4971 17.2354 17.3221 17.2654C16.4221 17.2804 15.5371 17.4304 14.6821 17.7004C10.3321 19.0204 7.81212 23.4904 8.78712 27.9004C9.67212 31.9054 13.2271 34.7554 17.3221 34.7554H20.7721C20.8321 34.7554 20.8921 34.7404 20.9821 34.7404C20.9371 34.6954 20.8771 34.6504 20.8321 34.6054V34.6054ZM27.7254 13.3019C26.3304 13.4219 24.9804 13.8269 23.7654 14.4869C23.0904 14.8169 22.4604 15.2369 21.8754 15.7169C21.8904 15.7469 21.9054 15.7619 21.9054 15.7619C22.6404 16.1219 23.3454 16.5569 24.0204 17.0519C24.0654 17.0819 24.1704 17.0669 24.2154 17.0369C26.0304 15.8669 28.0404 15.4619 30.1554 15.8369C32.2404 16.2119 33.9504 17.2619 35.2704 18.9269C36.7404 20.8169 37.2954 22.9469 36.9054 25.3319C36.6354 26.9219 35.9904 28.3619 34.9254 29.5469C32.9454 31.7369 30.4554 32.6369 27.5454 32.2469C25.7754 32.0219 24.1404 31.2119 22.8954 29.9369C21.2454 28.2719 19.5954 26.6219 17.9454 24.9569C17.7204 24.7319 17.4804 24.5519 17.1654 24.5219C16.6254 24.4319 16.1004 24.7319 15.8604 25.2269C15.6504 25.6769 15.6804 26.1719 16.1304 26.6219C17.9754 28.4369 19.7904 30.2519 21.6354 32.0669C21.9504 32.3819 22.2804 32.6669 22.6404 32.9219C24.0054 33.8969 25.5054 34.4369 27.1554 34.6469C28.4304 34.8269 29.7204 34.7819 30.9954 34.4969C33.3504 33.9869 35.4654 32.6969 36.9804 30.8219C38.3004 29.2469 39.0654 27.4319 39.3504 25.4219C39.5154 24.2669 39.4704 23.0819 39.2454 21.9419C38.9004 20.0819 38.0604 18.3719 36.8154 16.9619C34.6254 14.5169 31.9104 13.2869 28.7304 13.2719C28.3854 13.2719 28.0554 13.2869 27.7254 13.3019V13.3019Z"/><path fill="url(#paint5_radial_94_17311)" d="M6.105 27.4875C6.075 27.1875 6.03 26.9025 6 26.5875V25.4325C6.015 25.3725 6.03 25.3125 6.03 25.2375C6.09 24.1425 6.33 23.0625 6.72 22.0275C7.815 19.2525 9.675 17.1975 12.33 15.8625C13.695 15.1875 15.195 14.7975 16.725 14.7225C17.475 14.6775 18.225 14.7225 18.975 14.8275C19.05 14.8425 19.14 14.8125 19.185 14.7525C20.25 13.6575 21.495 12.7575 22.875 12.0825C24.195 11.4225 25.635 11.0025 27.12 10.8375C27.465 10.7925 27.825 10.7625 28.17 10.7325H29.265C29.34 10.7475 29.4 10.7625 29.475 10.7625C30.015 10.8225 30.54 10.8675 31.08 10.9575C32.715 11.2275 34.29 11.8275 35.685 12.7275C37.83 14.0475 39.555 15.9375 40.68 18.1875C41.34 19.5075 41.76 20.9325 41.925 22.4025C41.925 22.7175 41.97 23.0625 42 23.4075V24.5925C41.985 24.6525 41.97 24.7125 41.97 24.7875C41.91 25.2975 41.865 25.8225 41.79 26.3325C41.52 27.9825 40.92 29.5725 40.02 30.9825C38.7 33.1125 36.795 34.8375 34.545 35.9325C33.225 36.5925 31.8 37.0125 30.33 37.1775C30.045 37.2225 29.775 37.2525 29.505 37.2675H16.65C16.605 37.2675 16.56 37.2525 16.515 37.2525C15.24 37.1775 13.995 36.8775 12.84 36.3675C10.29 35.2575 8.4 33.4425 7.155 30.9825C6.6 29.8725 6.255 28.7025 6.105 27.4875V27.4875ZM20.8321 34.6054C20.0821 33.9004 19.3171 33.1954 18.5971 32.4754C18.4471 32.3404 18.3271 32.2654 18.1171 32.2804C17.3521 32.2954 16.5871 32.2954 15.8671 32.1304C12.1771 31.2904 10.0321 27.2854 11.3971 23.7454C12.4471 20.9554 15.4171 19.2604 18.3571 19.7854C19.6771 20.0254 20.8021 20.5804 21.7621 21.5704C22.9171 22.7554 24.0871 23.9104 25.2721 25.0954C25.5121 25.3504 25.8571 25.4854 26.2171 25.4404C26.6971 25.3654 27.0721 25.1254 27.2371 24.6604C27.4021 24.1954 27.3271 23.7604 26.9821 23.4154C25.7521 22.1704 24.5671 20.9104 23.2921 19.7104C21.5071 18.0604 19.4971 17.2354 17.3221 17.2654C16.4221 17.2804 15.5371 17.4304 14.6821 17.7004C10.3321 19.0204 7.81212 23.4904 8.78712 27.9004C9.67212 31.9054 13.2271 34.7554 17.3221 34.7554H20.7721C20.8321 34.7554 20.8921 34.7404 20.9821 34.7404C20.9371 34.6954 20.8771 34.6504 20.8321 34.6054V34.6054ZM27.7254 13.3019C26.3304 13.4219 24.9804 13.8269 23.7654 14.4869C23.0904 14.8169 22.4604 15.2369 21.8754 15.7169C21.8904 15.7469 21.9054 15.7619 21.9054 15.7619C22.6404 16.1219 23.3454 16.5569 24.0204 17.0519C24.0654 17.0819 24.1704 17.0669 24.2154 17.0369C26.0304 15.8669 28.0404 15.4619 30.1554 15.8369C32.2404 16.2119 33.9504 17.2619 35.2704 18.9269C36.7404 20.8169 37.2954 22.9469 36.9054 25.3319C36.6354 26.9219 35.9904 28.3619 34.9254 29.5469C32.9454 31.7369 30.4554 32.6369 27.5454 32.2469C25.7754 32.0219 24.1404 31.2119 22.8954 29.9369C21.2454 28.2719 19.5954 26.6219 17.9454 24.9569C17.7204 24.7319 17.4804 24.5519 17.1654 24.5219C16.6254 24.4319 16.1004 24.7319 15.8604 25.2269C15.6504 25.6769 15.6804 26.1719 16.1304 26.6219C17.9754 28.4369 19.7904 30.2519 21.6354 32.0669C21.9504 32.3819 22.2804 32.6669 22.6404 32.9219C24.0054 33.8969 25.5054 34.4369 27.1554 34.6469C28.4304 34.8269 29.7204 34.7819 30.9954 34.4969C33.3504 33.9869 35.4654 32.6969 36.9804 30.8219C38.3004 29.2469 39.0654 27.4319 39.3504 25.4219C39.5154 24.2669 39.4704 23.0819 39.2454 21.9419C38.9004 20.0819 38.0604 18.3719 36.8154 16.9619C34.6254 14.5169 31.9104 13.2869 28.7304 13.2719C28.3854 13.2719 28.0554 13.2869 27.7254 13.3019V13.3019Z"/><path fill="url(#paint6_radial_94_17311)" d="M6.105 27.4875C6.075 27.1875 6.03 26.9025 6 26.5875V25.4325C6.015 25.3725 6.03 25.3125 6.03 25.2375C6.09 24.1425 6.33 23.0625 6.72 22.0275C7.815 19.2525 9.675 17.1975 12.33 15.8625C13.695 15.1875 15.195 14.7975 16.725 14.7225C17.475 14.6775 18.225 14.7225 18.975 14.8275C19.05 14.8425 19.14 14.8125 19.185 14.7525C20.25 13.6575 21.495 12.7575 22.875 12.0825C24.195 11.4225 25.635 11.0025 27.12 10.8375C27.465 10.7925 27.825 10.7625 28.17 10.7325H29.265C29.34 10.7475 29.4 10.7625 29.475 10.7625C30.015 10.8225 30.54 10.8675 31.08 10.9575C32.715 11.2275 34.29 11.8275 35.685 12.7275C37.83 14.0475 39.555 15.9375 40.68 18.1875C41.34 19.5075 41.76 20.9325 41.925 22.4025C41.925 22.7175 41.97 23.0625 42 23.4075V24.5925C41.985 24.6525 41.97 24.7125 41.97 24.7875C41.91 25.2975 41.865 25.8225 41.79 26.3325C41.52 27.9825 40.92 29.5725 40.02 30.9825C38.7 33.1125 36.795 34.8375 34.545 35.9325C33.225 36.5925 31.8 37.0125 30.33 37.1775C30.045 37.2225 29.775 37.2525 29.505 37.2675H16.65C16.605 37.2675 16.56 37.2525 16.515 37.2525C15.24 37.1775 13.995 36.8775 12.84 36.3675C10.29 35.2575 8.4 33.4425 7.155 30.9825C6.6 29.8725 6.255 28.7025 6.105 27.4875V27.4875ZM20.8321 34.6054C20.0821 33.9004 19.3171 33.1954 18.5971 32.4754C18.4471 32.3404 18.3271 32.2654 18.1171 32.2804C17.3521 32.2954 16.5871 32.2954 15.8671 32.1304C12.1771 31.2904 10.0321 27.2854 11.3971 23.7454C12.4471 20.9554 15.4171 19.2604 18.3571 19.7854C19.6771 20.0254 20.8021 20.5804 21.7621 21.5704C22.9171 22.7554 24.0871 23.9104 25.2721 25.0954C25.5121 25.3504 25.8571 25.4854 26.2171 25.4404C26.6971 25.3654 27.0721 25.1254 27.2371 24.6604C27.4021 24.1954 27.3271 23.7604 26.9821 23.4154C25.7521 22.1704 24.5671 20.9104 23.2921 19.7104C21.5071 18.0604 19.4971 17.2354 17.3221 17.2654C16.4221 17.2804 15.5371 17.4304 14.6821 17.7004C10.3321 19.0204 7.81212 23.4904 8.78712 27.9004C9.67212 31.9054 13.2271 34.7554 17.3221 34.7554H20.7721C20.8321 34.7554 20.8921 34.7404 20.9821 34.7404C20.9371 34.6954 20.8771 34.6504 20.8321 34.6054V34.6054ZM27.7254 13.3019C26.3304 13.4219 24.9804 13.8269 23.7654 14.4869C23.0904 14.8169 22.4604 15.2369 21.8754 15.7169C21.8904 15.7469 21.9054 15.7619 21.9054 15.7619C22.6404 16.1219 23.3454 16.5569 24.0204 17.0519C24.0654 17.0819 24.1704 17.0669 24.2154 17.0369C26.0304 15.8669 28.0404 15.4619 30.1554 15.8369C32.2404 16.2119 33.9504 17.2619 35.2704 18.9269C36.7404 20.8169 37.2954 22.9469 36.9054 25.3319C36.6354 26.9219 35.9904 28.3619 34.9254 29.5469C32.9454 31.7369 30.4554 32.6369 27.5454 32.2469C25.7754 32.0219 24.1404 31.2119 22.8954 29.9369C21.2454 28.2719 19.5954 26.6219 17.9454 24.9569C17.7204 24.7319 17.4804 24.5519 17.1654 24.5219C16.6254 24.4319 16.1004 24.7319 15.8604 25.2269C15.6504 25.6769 15.6804 26.1719 16.1304 26.6219C17.9754 28.4369 19.7904 30.2519 21.6354 32.0669C21.9504 32.3819 22.2804 32.6669 22.6404 32.9219C24.0054 33.8969 25.5054 34.4369 27.1554 34.6469C28.4304 34.8269 29.7204 34.7819 30.9954 34.4969C33.3504 33.9869 35.4654 32.6969 36.9804 30.8219C38.3004 29.2469 39.0654 27.4319 39.3504 25.4219C39.5154 24.2669 39.4704 23.0819 39.2454 21.9419C38.9004 20.0819 38.0604 18.3719 36.8154 16.9619C34.6254 14.5169 31.9104 13.2869 28.7304 13.2719C28.3854 13.2719 28.0554 13.2869 27.7254 13.3019V13.3019Z"/></g></g><defs><radialGradient id="paint0_radial_94_17311" cx="0" cy="0" r="1" gradientTransform="rotate(38.197 -30.285 68.583) scale(18.7049 18.6611)" gradientUnits="userSpaceOnUse"><stop stop-color="#68E048"/><stop offset="1" stop-color="#5CE049" stop-opacity="0"/></radialGradient><radialGradient id="paint1_radial_94_17311" cx="0" cy="0" r="1" gradientTransform="matrix(-16.125 10.9429 -10.49065 -15.45856 11.7 33.299)" gradientUnits="userSpaceOnUse"><stop stop-color="#308CFE"/><stop offset="1" stop-color="#2F8BFF" stop-opacity="0"/></radialGradient><radialGradient id="paint2_radial_94_17311" cx="0" cy="0" r="1" gradientTransform="matrix(12.74998 1.30407 -1.01898 9.96262 35.25 25.588)" gradientUnits="userSpaceOnUse"><stop stop-color="#FDD511"/><stop offset="1" stop-color="#FDD20D" stop-opacity="0"/></radialGradient><radialGradient id="paint3_radial_94_17311" cx="0" cy="0" r="1" gradientTransform="rotate(-135.773 10.202 7.689) scale(16.0136 16.9456)" gradientUnits="userSpaceOnUse"><stop stop-color="#F928C2"/><stop offset="1" stop-color="#F922BC" stop-opacity="0"/></radialGradient><radialGradient id="paint4_radial_94_17311" cx="0" cy="0" r="1" gradientTransform="matrix(8.55 -12.58714 14.76667 10.03049 26.4 15.155)" gradientUnits="userSpaceOnUse"><stop stop-color="#F90700"/><stop offset="1" stop-color="#F90700" stop-opacity="0"/></radialGradient><radialGradient id="paint5_radial_94_17311" cx="0" cy="0" r="1" gradientTransform="matrix(4.725 -7.71103 9.23784 5.66058 40.05 14.588)" gradientUnits="userSpaceOnUse"><stop stop-color="#FB4200"/><stop offset="1" stop-color="#FB4300" stop-opacity="0"/></radialGradient><radialGradient id="paint6_radial_94_17311" cx="0" cy="0" r="1" gradientTransform="rotate(-142.329 7.257 5.32) scale(8.90671 8.8397)" gradientUnits="userSpaceOnUse"><stop stop-color="#FE0D88"/><stop offset="1" stop-color="#FE0D88" stop-opacity="0"/></radialGradient></defs></svg>