<svg xmlns="http://www.w3.org/2000/svg" fill="none" aria-hidden="true" viewBox="0 0 48 48"><rect width="36" height="36" x="6" y="6" fill="#300" rx="8"/><path fill="#FF9A00" d="M32.13 19.459a1.925 1.925 0 0 1-1.344-.502 1.81 1.81 0 0 1-.514-1.32 1.645 1.645 0 0 1 .544-1.277c.363-.33.846-.502 1.345-.502.59 0 1.042.172 1.375.502.332.344.514.803.499 1.277.015.488-.167.961-.53 1.32a1.83 1.83 0 0 1-1.375.502Zm-1.692 12.454V20.865c0-.143.06-.2.196-.2h2.993c.136 0 .196.07.196.2v11.048c0 .158-.06.23-.196.23h-2.962c-.151 0-.227-.087-.227-.23Z"/><path fill="#FF9A00" fill-rule="evenodd" d="M24.046 28.555h-5.622l-1.148 3.372a.263.263 0 0 1-.288.201h-2.84c-.167 0-.212-.086-.167-.258l4.866-13.3.04-.13c.033-.107.069-.222.111-.344a4.8 4.8 0 0 0 .091-.933c-.015-.072.045-.143.12-.158h3.915c.12 0 .181.044.196.115l5.516 14.778c.046.158 0 .23-.15.23h-3.16a.228.228 0 0 1-.241-.158l-1.24-3.415ZM19.3 25.643h3.838a18.87 18.87 0 0 0-.348-1.033 41.684 41.684 0 0 1-.408-1.234l-.219-.66a65.226 65.226 0 0 0-.219-.66 30.322 30.322 0 0 1-.408-1.277l-.153-.517c-.061-.21-.12-.41-.18-.602h-.03a16.903 16.903 0 0 1-.513 1.85c-.087.263-.173.53-.26.798-.142.438-.286.882-.436 1.326a27.175 27.175 0 0 1-.664 2.009Z" clip-rule="evenodd"/></svg>