<svg xmlns="http://www.w3.org/2000/svg" fill="none" aria-hidden="true" viewBox="0 0 48 48"><path fill="#584CCC" d="M6 19.029c0-4.56 0-6.841.888-8.583a8.143 8.143 0 0 1 3.558-3.558C12.188 6 14.468 6 19.03 6h9.942c4.56 0 6.841 0 8.583.888a8.143 8.143 0 0 1 3.558 3.558C42 12.188 42 14.468 42 19.03v9.942c0 4.56 0 6.841-.888 8.583a8.143 8.143 0 0 1-3.558 3.558C35.812 42 33.532 42 28.97 42h-9.94c-4.56 0-6.841 0-8.583-.888a8.143 8.143 0 0 1-3.558-3.558C6 35.812 6 33.532 6 28.97v-9.94Z"/><path fill="#fff" d="M34.337 26.44c-1.68-1.843-6.261-1.037-7.368-.922-1.569-1.613-2.675-3.441-3.123-4.133.56-1.728 1.008-3.672 1.008-5.515 0-1.728-.672-3.441-2.451-3.441-.673 0-1.233.345-1.57.921-.784 1.383-.447 4.133.785 6.999-.672 2.073-1.793 5.17-3.123 7.574-1.793.691-5.702 2.52-6.038 4.594-.112.576.112 1.267.56 1.612.449.461 1.01.576 1.57.576 2.339 0 4.692-3.326 6.373-6.321 1.345-.461 3.46-1.152 5.59-1.498 2.45 2.304 4.692 2.635 5.812 2.635 1.57 0 2.13-.69 2.34-1.267.294-.547.084-1.353-.365-1.814Zm-1.568 1.152c-.112.46-.673.921-1.681.691-1.233-.346-2.34-.922-3.236-1.728.784-.115 2.675-.346 4.02-.115.448.115 1.009.46.897 1.152ZM21.927 13.81a.614.614 0 0 1 .56-.346c.56 0 .672.692.672 1.268-.112 1.382-.336 2.865-.784 4.132-.897-2.52-.785-4.363-.448-5.054Zm-.113 12.974c.56-1.036 1.233-2.98 1.457-3.672.56 1.037 1.57 2.19 2.017 2.75.113-.1-1.905.346-3.474.922Zm-3.796 2.65c-1.555 2.52-3.011 4.133-3.908 4.133-.112 0-.336 0-.448-.115-.112-.23-.224-.461-.112-.692.112-.921 1.905-2.188 4.468-3.326Z"/></svg>