<svg xmlns="http://www.w3.org/2000/svg" fill="none" aria-hidden="true" viewBox="0 0 48 48"><path fill="#fff" d="M6 19.029c0-4.56 0-6.841.888-8.583a8.143 8.143 0 0 1 3.558-3.558C12.188 6 14.468 6 19.03 6h9.942c4.56 0 6.841 0 8.583.888a8.143 8.143 0 0 1 3.558 3.558C42 12.188 42 14.468 42 19.03v9.942c0 4.56 0 6.841-.888 8.583a8.143 8.143 0 0 1-3.558 3.558C35.812 42 33.532 42 28.97 42h-9.94c-4.56 0-6.841 0-8.583-.888a8.143 8.143 0 0 1-3.558-3.558C6 35.812 6 33.532 6 28.97v-9.94Z"/><path fill="url(#a)" d="M6 19.029c0-4.56 0-6.841.888-8.583a8.143 8.143 0 0 1 3.558-3.558C12.188 6 14.468 6 19.03 6h9.942c4.56 0 6.841 0 8.583.888a8.143 8.143 0 0 1 3.558 3.558C42 12.188 42 14.468 42 19.03v9.942c0 4.56 0 6.841-.888 8.583a8.143 8.143 0 0 1-3.558 3.558C35.812 42 33.532 42 28.97 42h-9.94c-4.56 0-6.841 0-8.583-.888a8.143 8.143 0 0 1-3.558-3.558C6 35.812 6 33.532 6 28.97v-9.94Z"/><path fill="url(#b)" d="M6 19.029c0-4.56 0-6.841.888-8.583a8.143 8.143 0 0 1 3.558-3.558C12.188 6 14.468 6 19.03 6h9.942c4.56 0 6.841 0 8.583.888a8.143 8.143 0 0 1 3.558 3.558C42 12.188 42 14.468 42 19.03v9.942c0 4.56 0 6.841-.888 8.583a8.143 8.143 0 0 1-3.558 3.558C35.812 42 33.532 42 28.97 42h-9.94c-4.56 0-6.841 0-8.583-.888a8.143 8.143 0 0 1-3.558-3.558C6 35.812 6 33.532 6 28.97v-9.94Z"/><path fill="url(#c)" d="M6 19.029c0-4.56 0-6.841.888-8.583a8.143 8.143 0 0 1 3.558-3.558C12.188 6 14.468 6 19.03 6h9.942c4.56 0 6.841 0 8.583.888a8.143 8.143 0 0 1 3.558 3.558C42 12.188 42 14.468 42 19.03v9.942c0 4.56 0 6.841-.888 8.583a8.143 8.143 0 0 1-3.558 3.558C35.812 42 33.532 42 28.97 42h-9.94c-4.56 0-6.841 0-8.583-.888a8.143 8.143 0 0 1-3.558-3.558C6 35.812 6 33.532 6 28.97v-9.94Z"/><path fill="url(#d)" d="M6 19.029c0-4.56 0-6.841.888-8.583a8.143 8.143 0 0 1 3.558-3.558C12.188 6 14.468 6 19.03 6h9.942c4.56 0 6.841 0 8.583.888a8.143 8.143 0 0 1 3.558 3.558C42 12.188 42 14.468 42 19.03v9.942c0 4.56 0 6.841-.888 8.583a8.143 8.143 0 0 1-3.558 3.558C35.812 42 33.532 42 28.97 42h-9.94c-4.56 0-6.841 0-8.583-.888a8.143 8.143 0 0 1-3.558-3.558C6 35.812 6 33.532 6 28.97v-9.94Z"/><path fill="url(#e)" d="M6 19.029c0-4.56 0-6.841.888-8.583a8.143 8.143 0 0 1 3.558-3.558C12.188 6 14.468 6 19.03 6h9.942c4.56 0 6.841 0 8.583.888a8.143 8.143 0 0 1 3.558 3.558C42 12.188 42 14.468 42 19.03v9.942c0 4.56 0 6.841-.888 8.583a8.143 8.143 0 0 1-3.558 3.558C35.812 42 33.532 42 28.97 42h-9.94c-4.56 0-6.841 0-8.583-.888a8.143 8.143 0 0 1-3.558-3.558C6 35.812 6 33.532 6 28.97v-9.94Z"/><path fill="url(#f)" d="M6 19.029c0-4.56 0-6.841.888-8.583a8.143 8.143 0 0 1 3.558-3.558C12.188 6 14.468 6 19.03 6h9.942c4.56 0 6.841 0 8.583.888a8.143 8.143 0 0 1 3.558 3.558C42 12.188 42 14.468 42 19.03v9.942c0 4.56 0 6.841-.888 8.583a8.143 8.143 0 0 1-3.558 3.558C35.812 42 33.532 42 28.97 42h-9.94c-4.56 0-6.841 0-8.583-.888a8.143 8.143 0 0 1-3.558-3.558C6 35.812 6 33.532 6 28.97v-9.94Z"/><path fill="url(#g)" d="M6 19.029c0-4.56 0-6.841.888-8.583a8.143 8.143 0 0 1 3.558-3.558C12.188 6 14.468 6 19.03 6h9.942c4.56 0 6.841 0 8.583.888a8.143 8.143 0 0 1 3.558 3.558C42 12.188 42 14.468 42 19.03v9.942c0 4.56 0 6.841-.888 8.583a8.143 8.143 0 0 1-3.558 3.558C35.812 42 33.532 42 28.97 42h-9.94c-4.56 0-6.841 0-8.583-.888a8.143 8.143 0 0 1-3.558-3.558C6 35.812 6 33.532 6 28.97v-9.94Z"/><path fill="#fff" d="M34.89 16.846a9.882 9.882 0 0 0-7.38-3.277c-2.73 0-5.505 1.2-7.29 3.139-.33-.031-.66-.062-.975-.062-5.355 0-8.67 4.616-8.67 8.892a9.312 9.312 0 0 0 2.43 6.216 8.446 8.446 0 0 0 6.24 2.77h8.265c5.61 0 10.17-4.724 10.17-10.509a10.855 10.855 0 0 0-2.79-7.169Zm-15.81 16.17c-3.975 0-7.185-3.308-7.185-7.385 0-4.046 3.195-7.339 7.155-7.37 1.755 0 3.6.585 4.77 1.862l3.015 3.17c.495.522.48 1.353-.03 1.86-.51.509-1.32.493-1.815-.03l-2.94-3.108a4.505 4.505 0 0 0-6.465.493 4.728 4.728 0 0 0-1.11 3.061c0 2.585 2.145 4.77 4.68 4.77h.585c.84 1.2 3.195 2.676 3.195 2.676H19.08Zm14.73-2.647a8.47 8.47 0 0 1-6.15 2.708c-2.205 0-4.455-1.015-6.18-2.77l-3.93-4.06a1.352 1.352 0 0 1 .015-1.862c.24-.247.555-.37.9-.37s.675.139.915.4l3.915 4.016c1.245 1.277 2.835 2 4.365 2a5.846 5.846 0 0 0 4.32-1.923 6.594 6.594 0 0 0 1.8-4.539c0-3.477-2.76-6.292-6.15-6.307-1.29 0-2.355.261-3.405 1.015-.594-.61-1.875-1.215-2.46-1.338 1.62-1.554 3.645-2.308 5.865-2.308 4.815 0 8.7 4 8.715 8.938 0 2.385-.9 4.693-2.535 6.4Z"/><defs><radialGradient id="a" cx="0" cy="0" r="1" gradientTransform="matrix(14.70004 15.69233 -16.07321 15.05684 35.925 36.77)" gradientUnits="userSpaceOnUse"><stop stop-color="#68E048"/><stop offset="1" stop-color="#5CE049" stop-opacity="0"/></radialGradient><radialGradient id="b" cx="0" cy="0" r="1" gradientTransform="rotate(137.364 -1.295 20.59) scale(21.9186 22.5347)" gradientUnits="userSpaceOnUse"><stop stop-color="#308CFE"/><stop offset="1" stop-color="#2F8BFF" stop-opacity="0"/></radialGradient><radialGradient id="c" cx="0" cy="0" r="1" gradientTransform="rotate(7.9 -171.756 268.324) scale(12.8722 13.5281)" gradientUnits="userSpaceOnUse"><stop stop-color="#FDD511"/><stop offset="1" stop-color="#FDD20D" stop-opacity="0"/></radialGradient><radialGradient id="d" cx="0" cy="0" r="1" gradientTransform="rotate(-127.134 10.798 6.48) scale(19.0083 19.3681)" gradientUnits="userSpaceOnUse"><stop stop-color="#F928C2"/><stop offset="1" stop-color="#F922BC" stop-opacity="0"/></radialGradient><radialGradient id="e" cx="0" cy="0" r="1" gradientTransform="matrix(8.54998 -17.07689 17.25474 8.63902 26.4 12)" gradientUnits="userSpaceOnUse"><stop stop-color="#F90700"/><stop offset="1" stop-color="#F90700" stop-opacity="0"/></radialGradient><radialGradient id="f" cx="0" cy="0" r="1" gradientTransform="matrix(4.725 -10.46155 10.5536 4.76657 40.05 11.23)" gradientUnits="userSpaceOnUse"><stop stop-color="#FB4200"/><stop offset="1" stop-color="#FB4300" stop-opacity="0"/></radialGradient><radialGradient id="g" cx="0" cy="0" r="1" gradientTransform="rotate(-133.672 7.097 3.106) scale(10.2096 10.4624)" gradientUnits="userSpaceOnUse"><stop stop-color="#FE0D88"/><stop offset="1" stop-color="#FE0D88" stop-opacity="0"/></radialGradient></defs></svg>