<svg xmlns="http://www.w3.org/2000/svg" fill="none" aria-hidden="true" viewBox="0 0 48 48"><path fill="#49021F" d="M6 19.029c0-4.56 0-6.841.888-8.583a8.143 8.143 0 0 1 3.558-3.558C12.188 6 14.468 6 19.03 6h9.942c4.56 0 6.841 0 8.583.888a8.143 8.143 0 0 1 3.558 3.558C42 12.188 42 14.468 42 19.03v9.942c0 4.56 0 6.841-.888 8.583a8.143 8.143 0 0 1-3.558 3.558C35.812 42 33.532 42 28.97 42h-9.94c-4.56 0-6.841 0-8.583-.888a8.143 8.143 0 0 1-3.558-3.558C6 35.812 6 33.532 6 28.97v-9.94Z"/><path fill="#F36" d="M19.748 16.488v16.008c0 .168-.076.252-.226.252h-3.036c-.134 0-.2-.084-.2-.252V16.488c0-.133.075-.2.226-.2h3.035a.18.18 0 0 1 .2.2Zm11.966 13.32v2.588a.248.248 0 0 1-.125.226c-.428.16-.875.262-1.33.302-.502.05-.987.075-1.455.075a7.646 7.646 0 0 1-2.785-.477 5.75 5.75 0 0 1-2.082-1.357 6.155 6.155 0 0 1-1.317-2.061 6.87 6.87 0 0 1-.464-2.538 6.462 6.462 0 0 1 .878-3.38 6.247 6.247 0 0 1 2.471-2.325c1.062-.57 2.304-.854 3.726-.854.494-.01.99.02 1.48.088.288.044.573.107.853.188a.3.3 0 0 1 .125.276l-.025 2.589c0 .15-.067.21-.2.176a4.517 4.517 0 0 0-.854-.214 7.744 7.744 0 0 0-1.254-.088c-2.065-.031-3.638 1.309-3.638 3.418 0 2.196 1.64 3.437 3.738 3.443.403.002.805-.02 1.204-.063.29-.026.575-.08.854-.163.133-.034.2.017.2.15Z"/></svg>