<svg xmlns="http://www.w3.org/2000/svg" fill="none" aria-hidden="true" viewBox="0 0 48 48"><rect width="36" height="36" x="5.999" y="6" fill="#001E36" rx="8"/><g fill="#31A8FF"><path fill-rule="evenodd" d="M13.168 31.66V16.083c0-.106.045-.166.15-.166.255 0 .495 0 .84-.016.185-.007.375-.011.57-.015.184-.004.373-.008.57-.015.21-.008.427-.011.652-.015.211-.004.428-.008.653-.015.465-.015.915-.015 1.365-.015 1.23 0 2.25.151 3.09.469a5.35 5.35 0 0 1 2.01 1.241 4.83 4.83 0 0 1 1.095 1.726c.225.636.345 1.287.345 1.968 0 1.302-.3 2.376-.9 3.224a5.144 5.144 0 0 1-2.415 1.847c-1.02.378-2.145.515-3.375.515-.36 0-.6 0-.75-.015-.15-.016-.36-.016-.645-.016v4.86a.188.188 0 0 1-.165.211h-2.91c-.12 0-.18-.06-.18-.196Zm3.27-12.822v5.086l.045.004c.193.014.373.027.54.027h.795c.585 0 1.17-.091 1.725-.273.48-.136.9-.424 1.23-.802.315-.379.465-.893.465-1.56a2.51 2.51 0 0 0-.345-1.347 2.18 2.18 0 0 0-1.05-.863 4.367 4.367 0 0 0-1.77-.302c-.39 0-.735 0-1.02.015a3.4 3.4 0 0 0-.615.015Z" clip-rule="evenodd"/><path d="M32.428 22.486c.51.106.99.273 1.44.515.06.03.135.03.27 0a.187.187 0 0 0 .075-.152v-2.467c0-.06-.015-.121-.03-.182a.269.269 0 0 0-.15-.136 5.243 5.243 0 0 0-1.29-.348 12.82 12.82 0 0 0-1.86-.136c-1.065 0-1.95.166-2.655.53-.645.302-1.2.787-1.575 1.392-.33.56-.51 1.181-.51 1.832-.015.53.105 1.06.345 1.544a3.91 3.91 0 0 0 1.14 1.287c.66.454 1.365.817 2.13 1.09.735.287 1.23.514 1.47.711.24.197.36.394.36.605 0 .273-.165.53-.405.636-.27.137-.675.212-1.245.212-.6 0-1.2-.075-1.77-.227a6.387 6.387 0 0 1-1.86-.742c-.045-.03-.09-.045-.135-.015-.045.03-.06.091-.06.137v2.634c-.015.12.06.227.165.287.48.227 1.005.394 1.53.485.675.136 1.35.196 2.04.196 1.08 0 1.98-.166 2.715-.484a3.765 3.765 0 0 0 1.68-1.347c.39-.59.6-1.302.585-2.014a3.293 3.293 0 0 0-.345-1.559 3.509 3.509 0 0 0-1.185-1.256c-.72-.454-1.5-.833-2.31-1.105-.36-.152-.72-.318-1.065-.5a1.695 1.695 0 0 1-.51-.409.677.677 0 0 1-.15-.393c0-.136.045-.288.12-.409a.77.77 0 0 1 .465-.303c.285-.075.6-.12.9-.106.57 0 1.125.076 1.68.197Z"/></g></svg>