<svg xmlns="http://www.w3.org/2000/svg" fill="none" aria-hidden="true" viewBox="0 0 48 48"><path fill="#001E36" d="M6 19.029c0-4.56 0-6.841.888-8.583a8.143 8.143 0 0 1 3.558-3.558C12.188 6 14.468 6 19.03 6h9.942c4.56 0 6.841 0 8.583.888a8.143 8.143 0 0 1 3.558 3.558C42 12.188 42 14.468 42 19.03v9.942c0 4.56 0 6.841-.888 8.583a8.143 8.143 0 0 1-3.558 3.558C35.812 42 33.532 42 28.97 42h-9.94c-4.56 0-6.841 0-8.583-.888a8.143 8.143 0 0 1-3.558-3.558C6 35.812 6 33.532 6 28.97v-9.94Z"/><g fill="#31A8FF"><path d="M16.539 29.561V17.956c0-.08.032-.127.111-.127 1.17 0 2.338-.064 3.508-.064 2.481-.05 4.926 1.354 4.926 4.017 0 3.592-3.164 4.129-6.09 4.129v3.618c.023.116-.083.16-.175.16h-2.153c-.08.032-.127-.016-.127-.128Zm2.455-9.548v3.794c.764.076 1.619.05 2.343-.191.824-.251 1.276-.923 1.276-1.77a1.682 1.682 0 0 0-1.068-1.642c-.748-.277-1.754-.324-2.551-.191Zm13.121 3.092c-.71-.371-1.548-.526-2.344-.526-.412 0-1.132.04-1.132.606 0 .525.92.826 1.291.957a7.9 7.9 0 0 1 1.738.829c.725.472 1.164 1.235 1.164 2.104.06 1.98-2.001 2.908-3.73 2.87-.902 0-1.857-.118-2.679-.511a.254.254 0 0 1-.127-.223v-1.96c0-.061.1-.168.143-.08.825.488 1.776.699 2.726.733.435.021 1.244-.049 1.244-.638-.049-.585-.931-.842-1.387-.988-1.336-.445-2.742-1.359-2.742-2.917 0-1.927 1.865-2.806 3.555-2.806.86 0 1.657.027 2.375.367.114.038.128.133.128.239v1.833c0 .114-.129.175-.223.111Z"/><path d="M24 39.429c-.622 0-1.212-.24-1.642-.686L9.253 25.64a2.319 2.319 0 0 1 0-3.284L22.358 9.253a2.32 2.32 0 0 1 3.284 0l13.105 13.103a2.319 2.319 0 0 1 0 3.284L25.642 38.743A2.33 2.33 0 0 1 24 39.43Zm-1.196-1.132a1.684 1.684 0 0 0 2.376 0l13.105-13.103a1.683 1.683 0 0 0 0-2.376L25.18 9.715a1.684 1.684 0 0 0-2.376 0L9.7 22.818a1.683 1.683 0 0 0 0 2.375l13.105 13.104Z"/></g></svg>