<svg xmlns="http://www.w3.org/2000/svg" fill="none" aria-hidden="true" viewBox="0 0 48 48"><g id="airflow-Icon"><g id="Group"><path id="Vector" fill="url(#paint0_radial_94_18873)" d="M31.1998 38.4H41.9998L24.7198 24C24.4826 29.2303 26.7851 34.3472 31.1998 38.4Z"/><path id="Vector_2" fill="url(#paint1_radial_94_18873)" d="M9.6001 31.2V42L24.0001 24.72C23.7546 24.7089 23.5103 24.7034 23.2653 24.7034C18.2928 24.7037 13.4626 26.9926 9.6001 31.2Z"/><path id="Vector_3" fill="url(#paint2_radial_94_18873)" d="M6 9.60004L23.28 24C23.5172 18.7699 21.2146 13.6528 16.8 9.60004H6Z"/><path id="Vector_4" fill="url(#paint3_radial_94_18873)" d="M38.4 6L24 23.2799C29.2303 23.5172 34.3472 21.2145 38.4 16.7999V6Z"/><path id="Vector_5" fill="url(#paint4_radial_94_18873)" d="M24 24C22.3858 28.1843 22.6296 32.4496 24.72 36.6001C26.88 37.68 28.68 38.4 31.2 38.4C26.7854 34.3472 24.4828 29.2303 24.72 24H24Z"/><path id="Vector_6" fill="url(#paint5_radial_94_18873)" d="M11.4001 24.72C10.3202 26.8801 9.6001 28.68 9.6001 31.2C13.6528 26.7853 18.7698 24.4829 24.0001 24.72V24C22.1798 23.2978 20.3447 22.9473 18.5101 22.9473C16.1271 22.9474 13.7452 23.5389 11.4001 24.72Z"/><path id="Vector_7" fill="url(#paint6_radial_94_18873)" d="M23.2798 24H23.9998C25.6139 19.8157 25.3702 15.5503 23.2798 11.4C21.1198 10.32 19.3199 9.60004 16.7998 9.60004C21.2144 13.6528 23.517 18.7699 23.2798 24Z"/><path id="Vector_8" fill="url(#paint7_radial_94_18873)" d="M24 23.2799V24C28.1843 25.6141 32.4496 25.3703 36.6 23.2799C37.68 21.1201 38.4 19.3201 38.4 16.7999C34.3472 21.2145 29.2303 23.5172 24 23.2799Z"/><path id="Vector_9" fill="url(#paint8_radial_94_18873)" d="M16.0801 29.4L24.7201 36.6002C22.6297 32.4496 22.3858 28.1843 24.0001 24C23.7503 23.9168 23.4575 23.8768 23.1341 23.8768C20.6593 23.877 16.3985 26.2161 16.0801 29.4Z"/><path id="Vector_10" fill="url(#paint9_radial_94_18873)" d="M11.3999 24.72C15.5503 22.6296 19.8156 22.3859 23.9999 24C24.7199 21.8402 22.1999 16.44 18.5999 16.08L11.3999 24.72Z"/><path id="Vector_11" fill="url(#paint10_radial_94_18873)" d="M23.9998 24C26.1598 24.72 31.5596 22.2 31.9198 18.6L23.2798 11.4C25.3702 15.5502 25.6139 19.8157 23.9998 24Z"/><path id="Vector_12" fill="url(#paint11_radial_94_18873)" d="M24.0001 24C23.2801 26.1601 25.8001 31.56 29.4001 31.92L36.6001 23.2798C32.4497 25.3702 28.1844 25.6141 24.0001 24Z"/><path id="Vector_13" fill="black" d="M24 23.1C24.4971 23.1 24.9 23.5029 24.9 23.9999C24.9 24.4971 24.4971 24.9 24 24.9C23.503 24.9 23.1001 24.4971 23.1001 23.9999C23.1001 23.5029 23.503 23.1 24 23.1Z"/></g></g><defs><radialGradient id="paint0_radial_94_18873" cx="0" cy="0" r="1" gradientTransform="matrix(17.2967 0 0 14.4 21.57 32.998)" gradientUnits="userSpaceOnUse"><stop stop-color="#00C812"/><stop offset="1" stop-color="#006E00"/></radialGradient><radialGradient id="paint1_radial_94_18873" cx="0" cy="0" r="1" gradientTransform="matrix(0 14.4001 -17.2966 0 -9.571 8.997)" gradientUnits="userSpaceOnUse"><stop stop-color="#56AFFD"/><stop offset="1" stop-color="#04A3FF"/></radialGradient><radialGradient id="paint2_radial_94_18873" cx="0" cy="0" r="1" gradientTransform="matrix(-17.2967 0 0 -14.4 -8.142 3.003)" gradientUnits="userSpaceOnUse"><stop stop-color="#DF1F00"/><stop offset="1" stop-color="#560D00"/></radialGradient><radialGradient id="paint3_radial_94_18873" cx="0" cy="0" r="1" gradientTransform="matrix(0 -14.4001 17.2965 0 20.424 -20.716)" gradientUnits="userSpaceOnUse"><stop stop-color="#00FFFD"/><stop offset="1" stop-color="#00DAFF"/></radialGradient><radialGradient id="paint4_radial_94_18873" cx="0" cy="0" r="1" gradientTransform="matrix(8.25271 0 0 14.4 22.947 38.4)" gradientUnits="userSpaceOnUse"><stop stop-color="#008200"/><stop offset="1" stop-color="#007500"/></radialGradient><radialGradient id="paint5_radial_94_18873" cx="0" cy="0" r="1" gradientTransform="matrix(0 14.4 -8.25271 0 -10.947 9.6)" gradientUnits="userSpaceOnUse"><stop stop-color="#3166D4"/><stop offset="1" stop-color="#1A509E"/></radialGradient><radialGradient id="paint6_radial_94_18873" cx="0" cy="0" r="1" gradientTransform="matrix(-8.25271 0 0 -14.4 -12.772 2.4)" gradientUnits="userSpaceOnUse"><stop stop-color="#8E1400"/><stop offset="1" stop-color="#4B0B00"/></radialGradient><radialGradient id="paint7_radial_94_18873" cx="0" cy="0" r="1" gradientTransform="matrix(0 -14.3999 8.25277 0 25.053 -26.119)" gradientUnits="userSpaceOnUse"><stop stop-color="#0090C4"/><stop offset="1" stop-color="#005D8C"/></radialGradient><radialGradient id="paint8_radial_94_18873" cx="0" cy="0" r="1" gradientTransform="matrix(8.64 0 0 12.7231 16.08 36.6)" gradientUnits="userSpaceOnUse"><stop stop-color="#00CD1C"/><stop offset="1" stop-color="#00E950"/></radialGradient><radialGradient id="paint9_radial_94_18873" cx="0" cy="0" r="1" gradientTransform="matrix(0 12.7231 -8.64001 0 -4.08 11.4)" gradientUnits="userSpaceOnUse"><stop stop-color="#B1C8FD"/><stop offset="1" stop-color="#7EC3FD"/></radialGradient><radialGradient id="paint10_radial_94_18873" cx="0" cy="0" r="1" gradientTransform="matrix(-8.64 0 0 -12.7231 -19.639 .6)" gradientUnits="userSpaceOnUse"><stop stop-color="#E12A00"/><stop offset="1" stop-color="#B62F00"/></radialGradient><radialGradient id="paint11_radial_94_18873" cx="0" cy="0" r="1" gradientTransform="matrix(0 -12.7229 8.64015 0 31.92 -24.319)" gradientUnits="userSpaceOnUse"><stop stop-color="#00B6DD"/><stop offset="1" stop-color="#00FFFF"/></radialGradient></defs></svg>