<svg xmlns="http://www.w3.org/2000/svg" fill="none" aria-hidden="true" viewBox="0 0 48 48"><g id="airtable-Icon"><g id="Group"><path id="Vector" fill="#FFBF00" d="M22.0753 9.32203L8.65351 14.8758C7.90712 15.1847 7.91485 16.2448 8.66592 16.5425L22.1438 21.8873C23.3281 22.3569 24.6469 22.3569 25.831 21.8873L39.3091 16.5425C40.06 16.2448 40.0679 15.1847 39.3213 14.8758L25.8998 9.32203C24.6752 8.81535 23.2996 8.81535 22.0753 9.32203Z"/><path id="Vector_2" fill="#26B5F8" d="M25.1831 24.806V38.1579C25.1831 38.793 25.8235 39.2279 26.4138 38.9939L41.4323 33.1644C41.7752 33.0285 42 32.6972 42 32.3285V18.9765C42 18.3414 41.3596 17.9066 40.7693 18.1406L25.7508 23.9701C25.4082 24.106 25.1831 24.4373 25.1831 24.806Z"/><path id="Vector_3" fill="#ED3049" d="M21.6762 25.4949L17.219 27.6469L16.7665 27.8657L7.35766 32.3739C6.76124 32.6617 6 32.227 6 31.5645V19.0326C6 18.7929 6.12291 18.5859 6.28773 18.43C6.35651 18.3611 6.43444 18.3043 6.51543 18.2593C6.74028 18.1244 7.06098 18.0884 7.33365 18.1962L21.6013 23.8493C22.3265 24.137 22.3835 25.1532 21.6762 25.4949Z"/><path id="Vector_4" fill="black" fill-opacity="0.25" d="M21.676 25.4949L17.2189 27.6469L6.2876 18.43C6.35638 18.3611 6.43431 18.3043 6.5153 18.2593C6.74015 18.1244 7.06085 18.0884 7.33352 18.1962L21.6012 23.8493C22.3264 24.137 22.3834 25.1532 21.676 25.4949Z"/></g></g></svg>