<svg xmlns="http://www.w3.org/2000/svg" fill="none" aria-hidden="true" viewBox="0 0 48 48"><path fill="#252F3E" d="M15.272 20.727c0 .493.053.892.147 1.184.106.293.24.612.425.958a.579.579 0 0 1 .094.306c0 .133-.08.266-.253.4l-.838.558a.64.64 0 0 1-.346.12c-.133 0-.266-.067-.4-.186a4.11 4.11 0 0 1-.478-.626 10.318 10.318 0 0 1-.413-.785c-1.037 1.224-2.341 1.836-3.911 1.836-1.118 0-2.009-.319-2.66-.958-.653-.638-.985-1.49-.985-2.554 0-1.13.399-2.049 1.21-2.74.812-.692 1.89-1.038 3.26-1.038.452 0 .918.04 1.41.106.492.067.998.173 1.53.293v-.971c0-1.011-.213-1.716-.625-2.129-.426-.412-1.145-.612-2.169-.612-.465 0-.944.054-1.437.173-.492.12-.97.266-1.436.453a3.818 3.818 0 0 1-.466.172.816.816 0 0 1-.213.04c-.186 0-.28-.133-.28-.412v-.652c0-.213.027-.372.094-.466.066-.093.186-.186.372-.279a7.66 7.66 0 0 1 1.677-.598 8.063 8.063 0 0 1 2.075-.253c1.583 0 2.74.359 3.486 1.077.731.719 1.104 1.81 1.104 3.273v4.31h.026ZM9.871 22.75c.44 0 .891-.08 1.37-.24a2.96 2.96 0 0 0 1.264-.851c.213-.253.373-.533.452-.852.08-.32.133-.705.133-1.157v-.559a11.136 11.136 0 0 0-1.223-.226c-.426-.053-.839-.08-1.251-.08-.891 0-1.543.173-1.982.532-.44.36-.652.865-.652 1.53 0 .625.16 1.091.492 1.41.32.333.785.492 1.397.492Zm10.683 1.436c-.24 0-.4-.04-.506-.133-.106-.08-.2-.266-.28-.519l-3.125-10.283c-.08-.266-.12-.44-.12-.532 0-.213.106-.333.32-.333h1.303c.253 0 .426.04.519.133.106.08.186.266.266.519l2.235 8.807 2.075-8.807c.067-.266.146-.44.253-.519.106-.08.293-.133.532-.133h1.064c.253 0 .426.04.532.133.107.08.2.266.253.519l2.102 8.913 2.302-8.913c.08-.266.173-.44.266-.519.106-.08.28-.133.519-.133H32.3c.213 0 .332.106.332.333 0 .066-.013.133-.026.212-.013.08-.04.187-.093.333l-3.206 10.284c-.08.266-.173.439-.28.519-.106.08-.28.133-.505.133h-1.144c-.253 0-.426-.04-.533-.133-.106-.094-.2-.267-.252-.533l-2.062-8.58-2.05 8.567c-.066.266-.145.44-.252.532-.106.093-.293.133-.532.133h-1.144Zm17.095.36c-.692 0-1.384-.08-2.049-.24-.665-.16-1.184-.333-1.53-.532-.213-.12-.359-.253-.412-.373a.94.94 0 0 1-.08-.372v-.679c0-.279.106-.412.306-.412.08 0 .16.013.24.04.08.026.199.08.332.133.452.2.945.36 1.463.465.533.107 1.051.16 1.584.16.838 0 1.49-.146 1.942-.439.452-.293.692-.718.692-1.264 0-.372-.12-.678-.36-.93-.239-.254-.691-.48-1.343-.693l-1.93-.598c-.97-.306-1.689-.759-2.128-1.357-.439-.586-.665-1.238-.665-1.93 0-.558.12-1.05.36-1.476a3.42 3.42 0 0 1 .957-1.091c.4-.306.852-.532 1.384-.692a5.796 5.796 0 0 1 1.676-.226c.293 0 .599.013.891.053a14 14 0 0 1 .865.147c.266.066.519.133.758.213a3 3 0 0 1 .56.239c.185.106.318.213.398.333.08.106.12.252.12.439v.625c0 .28-.106.426-.306.426-.107 0-.28-.054-.506-.16-.758-.346-1.61-.519-2.554-.519-.758 0-1.357.12-1.77.373-.412.252-.624.638-.624 1.184 0 .372.133.691.399.944s.758.506 1.463.732l1.89.599c.957.306 1.649.731 2.061 1.277a3.01 3.01 0 0 1 .612 1.862 3.42 3.42 0 0 1-.346 1.543 3.58 3.58 0 0 1-.971 1.171c-.412.333-.905.572-1.477.745a6.327 6.327 0 0 1-1.902.28Z"/><path fill="#F90" d="M40.163 31.011c-4.377 3.233-10.736 4.949-16.203 4.949-7.663 0-14.568-2.834-19.783-7.543-.412-.373-.04-.878.453-.586 5.64 3.273 12.598 5.255 19.795 5.255 4.856 0 10.19-1.01 15.1-3.086.732-.333 1.357.479.638 1.011Zm1.823-2.075c-.559-.719-3.698-.346-5.122-.173-.426.053-.492-.32-.106-.599 2.5-1.756 6.612-1.25 7.09-.665.48.599-.133 4.71-2.474 6.678-.36.306-.705.147-.545-.252.532-1.318 1.716-4.284 1.157-4.99Z"/></svg>