<svg xmlns="http://www.w3.org/2000/svg" fill="none" aria-hidden="true" viewBox="0 0 48 48"><path fill="#221F1F" d="m14.34 11.51-.281.039c-.9.111-1.756.451-2.487.988-.157.111-.301.23-.465.354a.28.28 0 0 1-.026-.092c-.026-.177-.052-.36-.085-.537-.046-.3-.196-.431-.497-.431h-.753c-.451 0-.537.085-.537.536v13.698c0 .065 0 .13.007.196.013.196.13.32.32.327.459.007.924.007 1.382 0 .19 0 .307-.13.327-.327.006-.065.006-.13.006-.196v-4.739c.072.06.112.092.144.125 1.172.975 2.52 1.296 3.992 1.008 1.336-.262 2.265-1.08 2.867-2.284.458-.91.648-1.879.674-2.886.033-1.12-.079-2.219-.53-3.26-.556-1.282-1.48-2.127-2.873-2.415-.21-.045-.425-.065-.641-.098-.184-.006-.36-.006-.544-.006Zm-3.102 2.742a.227.227 0 0 1 .112-.216c.896-.622 1.884-.949 2.984-.864.975.072 1.773.55 2.192 1.695.256.7.32 1.427.32 2.16 0 .68-.051 1.348-.26 2.002-.446 1.394-1.467 1.924-2.789 1.866-.916-.04-1.715-.393-2.447-.91a.234.234 0 0 1-.112-.216c.007-.923 0-1.84 0-2.762 0-.923.007-1.832 0-2.755ZM24.7 11.51c-.065.006-.13.02-.19.026a9.68 9.68 0 0 0-1.89.268c-.4.105-.786.249-1.172.38-.236.078-.354.249-.347.504.006.216-.007.432 0 .648.006.314.137.399.445.32.51-.13 1.02-.274 1.538-.373.805-.15 1.616-.216 2.434-.091.426.065.825.19 1.1.55.242.314.334.687.347 1.073.02.543.013 1.086.02 1.63a.507.507 0 0 1-.014.091c-.032-.007-.059 0-.085-.007a11.819 11.819 0 0 0-2.094-.32c-.74-.04-1.473.006-2.18.255-.844.295-1.524.805-1.923 1.63-.308.64-.354 1.322-.256 2.009.131.916.59 1.623 1.4 2.074.78.432 1.624.485 2.481.354.988-.15 1.865-.57 2.638-1.204a.485.485 0 0 1 .104-.073c.04.25.072.485.118.72.04.203.164.334.354.34.353.007.713.007 1.066 0a.317.317 0 0 0 .314-.307 1.7 1.7 0 0 0 .007-.183v-6.937a5.231 5.231 0 0 0-.059-.845c-.124-.844-.484-1.537-1.243-1.989-.439-.262-.923-.393-1.427-.465-.236-.032-.471-.052-.707-.085-.255.007-.517.007-.779.007Zm2.29 8.357a.217.217 0 0 1-.097.196c-.733.53-1.538.884-2.448.976-.373.039-.746.026-1.1-.118a1.314 1.314 0 0 1-.81-.87 2.154 2.154 0 0 1-.008-1.27c.164-.543.55-.851 1.074-1.021a4.013 4.013 0 0 1 1.623-.144c.55.046 1.086.15 1.636.222.105.013.137.066.137.17-.006.315 0 .622 0 .936 0 .315-.013.616-.006.923Zm8.365.406c-.844-2.337-1.689-4.675-2.533-7.016-.13-.373-.275-.74-.412-1.106-.072-.19-.21-.314-.42-.314-.496-.006-.994-.013-1.498-.006-.163 0-.242.13-.21.294.032.136.074.27.125.4 1.283 3.173 2.572 6.347 3.868 9.521.111.269.137.498.013.773-.216.477-.386.981-.609 1.46-.196.424-.523.745-.994.87-.329.085-.67.11-1.008.072-.164-.014-.328-.053-.491-.066-.223-.013-.334.085-.34.314a10 10 0 0 0 0 .648c.006.36.13.524.484.583.365.072.734.116 1.106.13 1.119.027 2.01-.425 2.585-1.4.232-.385.433-.788.602-1.204 1.551-3.914 3.091-7.832 4.62-11.754.048-.116.083-.237.105-.36.026-.183-.059-.288-.242-.288-.432-.007-.87 0-1.302 0a.494.494 0 0 0-.504.34c-.033.092-.072.177-.105.269l-2.277 6.544c-.164.471-.334.949-.504 1.453-.026-.072-.04-.111-.06-.157Z"/><path fill="#F90" d="M4 28.539c.15-.275.34-.321.635-.164.68.366 1.348.746 2.042 1.093a39.003 39.003 0 0 0 8.337 3.03c1.365.33 2.745.587 4.137.772a39.4 39.4 0 0 0 6.217.34 37.161 37.161 0 0 0 3.41-.248 39.509 39.509 0 0 0 10.687-2.801c.19-.079.386-.131.595-.079.439.118.59.59.268.91-.195.18-.405.341-.628.484-2.009 1.381-4.201 2.382-6.518 3.135a30.968 30.968 0 0 1-4.915 1.152 28.2 28.2 0 0 1-3.482.314c-.055.003-.11.01-.163.02H23.24a1.404 1.404 0 0 0-.164-.02 24.15 24.15 0 0 0-.7-.026 29.357 29.357 0 0 1-8.56-1.715 29.015 29.015 0 0 1-9.529-5.693c-.118-.105-.196-.25-.288-.373v-.131Zm40-.203c-.065-.327-.314-.452-.596-.543a5.79 5.79 0 0 0-1.374-.256 9.642 9.642 0 0 0-2.565.125c-.936.176-1.826.477-2.618 1.02a.9.9 0 0 0-.242.23.336.336 0 0 0-.033.262c.026.098.137.124.236.117.048.001.096 0 .144-.006.51-.053 1.014-.112 1.524-.164.746-.072 1.5-.118 2.245-.059.32.027.635.086.943.177.333.091.484.34.497.68.026.524-.092 1.028-.23 1.525-.267 1.008-.653 1.983-1.033 2.952a1.13 1.13 0 0 0-.066.196c-.032.19.079.314.269.269a.69.69 0 0 0 .314-.164c.295-.275.573-.567.831-.877.838-1.073 1.329-2.31 1.617-3.639.052-.235.091-.477.137-.713v-1.132Z"/></svg>