<svg xmlns="http://www.w3.org/2000/svg" fill="none" aria-hidden="true" viewBox="0 0 48 48"><path fill="#1D5FE6" d="M23.994 4C35.08 4.087 43.962 12.668 44 24.204c.035 10.574-8.603 20.024-20.509 19.792-10.86-.212-19.729-9.058-19.486-20.607C4.219 13.188 12.542 4.105 23.995 4Zm-4.212 23.025c.71 0 1.422.001 2.133-.001.34-.001.553.076.474.502-.174.937-.317 1.88-.47 2.821-.289 1.774-.576 3.547-.863 5.321-.028.17-.116.35.102.467.37.198 1.384-.055 1.594-.405 2.657-4.434 5.313-8.87 7.968-13.305.551-.923.262-1.422-.82-1.43-1.244-.009-2.49-.009-3.734 0-.386.002-.649-.049-.556-.555.278-1.504.531-3.013.786-4.522.199-1.18.39-2.363.571-3.547.028-.177.135-.396-.153-.5a1.506 1.506 0 0 0-1.646.57c-2.044 3.405-4.087 6.81-6.128 10.217-.616 1.027-1.25 2.044-1.837 3.088-.44.783-.151 1.267.712 1.276.622.007 1.245.002 1.867.003Z"/></svg>