<svg xmlns="http://www.w3.org/2000/svg" fill="none" aria-hidden="true" viewBox="0 0 48 48"><g fill-rule="evenodd" clip-rule="evenodd"><path fill="#03A9F4" d="M8.298 36.638a2.297 2.297 0 0 1-1.992-3.445L20.86 7.917a2.296 2.296 0 0 1 1.991-1.151c.852 0 1.595.463 1.992 1.15l14.553 25.277a2.297 2.297 0 0 1-1.991 3.445H8.297Z"/><path fill="url(#a)" d="M22.851 17.49v19.148H42L22.851 17.49Z"/><path fill="#039BE5" d="M20.86 7.917 6.306 33.193a2.297 2.297 0 0 0 1.991 3.445h14.554V6.766c-.852 0-1.595.463-1.991 1.15Z"/><path fill="#F1F1F1" d="m22.85 17.49 13.022 22.978-.766.766-12.255-4.596-12.255 4.596-.766-.766L22.85 17.49Z"/><path fill="#E1E1E1" d="m22.851 17.49 13.021 22.978-.766.766-12.255-4.596"/></g><defs><linearGradient id="a" x1="18.74" x2="38.974" y1="24.729" y2="36.22" gradientUnits="userSpaceOnUse"><stop stop-color="#1A237E" stop-opacity=".2"/><stop offset="1" stop-color="#1A237E" stop-opacity=".02"/></linearGradient></defs></svg>