<svg xmlns="http://www.w3.org/2000/svg" fill="none" aria-hidden="true" viewBox="0 0 48 48"><path fill="url(#a)" d="M31.045 4.189c-.624.366-1.67 1.42-2.918 2.94v.095l1.093 2.02.054.04c.804-1.148 1.615-2.185 2.442-3.067.063-.07.094-.101.094-.101-.031.03-.063.07-.094.101-.265.297-1.076 1.233-2.294 3.105l.14.031s2.848-.28 4.222-.515l.078-.07c.436-2.45-.43-3.573-.43-3.573S32.34 3.432 31.045 4.19Z"/><path fill="url(#b)" d="M25.904 14.861c.351-.647.702-1.287 1.053-1.903a47.05 47.05 0 0 1 1.124-1.865.497.497 0 0 0 .062-.11 45.6 45.6 0 0 1 1.131-1.7l-1.146-2.16c-.086.1-.172.21-.258.319-.327.413-.67.85-1.022 1.318a64.901 64.901 0 0 0-2.372 3.394c-.327.507-.663 1.022-.99 1.56-.016.024-.024.04-.04.063v.086l1.428 2.832.063.023c.32-.624.64-1.248.967-1.857Z"/><path fill="url(#c)" d="M19.686 28.725c.258-.671.53-1.35.804-2.037.265-.655.53-1.318.811-1.981.273-.663.562-1.326.85-1.997.297-.68.593-1.358.898-2.029.304-.663.608-1.326.92-1.981.11-.234.226-.476.344-.71.195-.406.397-.812.593-1.21.007-.023.023-.039.03-.062l-1.49-2.941-.07.117c-.343.57-.694 1.147-1.03 1.74a68.073 68.073 0 0 0-1.817 3.401c-.055.11-.102.21-.156.32-.328.67-.617 1.31-.882 1.935a44.518 44.518 0 0 0-.796 2.012c-.156.422-.288.82-.42 1.21a41.31 41.31 0 0 0-.297.99c-.227.78-.414 1.553-.57 2.333l.024.094 1.427 2.84.047.023c.195-.53.398-1.061.609-1.607.054-.156.117-.304.171-.46Z"/><path fill="url(#d)" d="M17.393 27.937c-.188.944-.32 1.888-.39 2.824 0 .031-.008.062-.008.101-.468-.749-1.717-1.474-1.717-1.474.898 1.295 1.576 2.582 1.678 3.846-.476.101-1.131-.047-1.896-.32.788.726 1.38.928 1.615.983-.726.047-1.482.546-2.247 1.116 1.116-.453 2.013-.632 2.66-.492-1.021 2.895-2.044 6.093-3.073 9.479.312-.094.499-.304.608-.593.18-.616 1.397-4.642 3.292-9.94.055-.147.11-.303.164-.452.016-.039.031-.085.047-.124.203-.554.406-1.124.624-1.701.047-.133.102-.265.148-.398v-.008l-1.49-2.949c0 .04-.008.07-.015.102Z"/><path fill="url(#e)" d="M29.423 9.33c-.336.515-.702 1.1-1.1 1.763-.024.031-.04.07-.063.101a78.73 78.73 0 0 0-2.114 3.823 73.658 73.658 0 0 0-.96 1.912l.07.03 3.628-.39.086-.062c1.1-.507 1.592-.967 2.068-1.63.125-.18.257-.375.382-.57a22.29 22.29 0 0 0 1.108-1.934c.327-.64.616-1.28.842-1.85a8.22 8.22 0 0 0 .5-1.748c-1.467.259-3.27.5-4.447.555Z"/><path fill="url(#f)" d="M25.046 17.233a72.12 72.12 0 0 1-.39.811c-.14.297-.289.609-.43.92-.07.157-.147.32-.218.477-.226.483-.444.983-.678 1.498a133.686 133.686 0 0 0-1.701 4.002c-.273.663-.546 1.35-.82 2.052-.249.632-.498 1.271-.748 1.942-.016.032-.024.063-.04.094-.249.663-.492 1.338-.75 2.032-.008.015-.021.056-.03.072l.055.012 1.085-.117.061-.025c-.023-.008-.038-.04-.061-.047 1.435-.18 3.347-1.256 4.587-2.582.57-.609 1.084-1.334 1.568-2.177a18.81 18.81 0 0 0 1.006-2.099c.281-.67.547-1.404.804-2.192-.328.172-.71.304-1.123.39-.07.016-.149.031-.227.047-.078.016-.156.023-.226.039 1.342-.515 2.185-1.514 2.8-2.73a4.834 4.834 0 0 1-1.614.71 3.152 3.152 0 0 1-.289.054c-.023 0-.047.008-.07.008a5.485 5.485 0 0 0 1.202-.671c.07-.055.14-.11.21-.172.102-.093.203-.187.297-.28.062-.063.117-.125.18-.196.132-.156.256-.327.374-.515.039-.054.07-.117.109-.171.047-.086.086-.172.125-.258a12.58 12.58 0 0 0 .608-1.42c.016-.046.031-.101.055-.148a6.2 6.2 0 0 0 .117-.382c.047-.164.07-.296.086-.39a1.35 1.35 0 0 1-.156.11c-.406.24-1.1.46-1.662.56l1.108-.124-1.108.125c-.078.015-.133.023-.195.039.005-.005-1.246.127-3.754.397a2.896 2.896 0 0 0-.147.305Z"/><path fill="url(#g)" d="M19.125 31.424c-.195.538-.398 1.092-.593 1.654 0 .008-.008.015-.008.023-.031.078-.055.156-.086.242-.132.382-.25.718-.515 1.498.437.203.788.725 1.124 1.326a2.351 2.351 0 0 0-.78-1.646c2.16.094 4.025-.452 4.985-2.028.086-.14.164-.289.234-.445-.437.554-.983.788-1.997.733h-.008.008c1.505-.67 2.254-1.318 2.925-2.387.156-.257.312-.53.468-.835-1.318 1.35-2.84 1.732-4.439 1.444l-1.201.132a5.55 5.55 0 0 0-.117.289Z"/><defs><linearGradient id="a" x1="29.086" x2="37.36" y1="7.421" y2="4.667" gradientUnits="userSpaceOnUse"><stop stop-color="#F69923"/><stop offset=".312" stop-color="#F79A23"/><stop offset=".838" stop-color="#E97826"/></linearGradient><linearGradient id="b" x1="10.763" x2="39.025" y1="44.994" y2="22.639" gradientUnits="userSpaceOnUse"><stop offset=".323" stop-color="#9E2064"/><stop offset=".63" stop-color="#C92037"/><stop offset=".751" stop-color="#CD2335"/><stop offset="1" stop-color="#E97826"/></linearGradient><linearGradient id="c" x1="11.382" x2="38.905" y1="42.774" y2="31.218" gradientUnits="userSpaceOnUse"><stop offset=".323" stop-color="#9E2064"/><stop offset=".63" stop-color="#C92037"/><stop offset=".751" stop-color="#CD2335"/><stop offset="1" stop-color="#E97826"/></linearGradient><linearGradient id="d" x1="13.12" x2="25.362" y1="40.34" y2="37.944" gradientUnits="userSpaceOnUse"><stop stop-color="#282662"/><stop offset=".095" stop-color="#662E8D"/><stop offset=".788" stop-color="#9F2064"/><stop offset=".949" stop-color="#CD2032"/></linearGradient><linearGradient id="e" x1="13.917" x2="29.332" y1="46.726" y2="9.51" gradientUnits="userSpaceOnUse"><stop offset=".323" stop-color="#9E2064"/><stop offset=".63" stop-color="#C92037"/><stop offset=".751" stop-color="#CD2335"/><stop offset="1" stop-color="#E97826"/></linearGradient><linearGradient id="f" x1="15.155" x2="39.607" y1="44.585" y2="13.89" gradientUnits="userSpaceOnUse"><stop offset=".323" stop-color="#9E2064"/><stop offset=".63" stop-color="#C92037"/><stop offset=".751" stop-color="#CD2335"/><stop offset="1" stop-color="#E97826"/></linearGradient><linearGradient id="g" x1="16.488" x2="25.792" y1="42.284" y2="20.156" gradientUnits="userSpaceOnUse"><stop stop-color="#282662"/><stop offset=".095" stop-color="#662E8D"/><stop offset=".788" stop-color="#9F2064"/><stop offset=".949" stop-color="#CD2032"/></linearGradient></defs></svg>