<svg xmlns="http://www.w3.org/2000/svg" fill="none" aria-hidden="true" viewBox="0 0 48 48"><path fill="#FA9012" d="m39.678 21.36-2.973-2.348v-5.339c0-.363-.144-.464-.402-.464h-2.72c-.295 0-.477.059-.477.464v2.496l-8.354-6.597c-.321-.253-.52-.32-.752-.32-.228 0-.427.067-.752.32-.32.254-14.495 11.45-14.926 11.788-.524.414-.376 1.01.207 1.01h2.766v15.019c0 .971.389 1.36 1.314 1.36h22.782c.925 0 1.314-.389 1.314-1.36V22.365h2.766c.583 0 .73-.59.207-1.005Zm-5.305 13.917c0 .672-.346 1.136-1.047 1.136H14.67c-.701 0-1.047-.464-1.047-1.136V21.242c0-.815.354-1.335.764-1.656l8.971-7.083c.236-.185.44-.266.638-.266s.401.08.638.27l8.97 7.084c.406.32.765.84.765 1.655v14.031h.004Z"/><path fill="#FFAB1F" d="M33.613 19.586 24.638 12.5c-.237-.186-.448-.266-.638-.266-.194 0-.401.08-.638.27l-8.975 7.083c-.405.321-.764.84-.764 1.656v14.035c0 .672.346 1.136 1.047 1.136h18.656c.7 0 1.047-.464 1.047-1.136V21.242c0-.815-.355-1.335-.76-1.656ZM32.05 33.17c0 .626-.355.917-.874.917H16.828c-.52 0-.874-.291-.874-.917V22.21c0-.608.144-.954.575-1.296.244-.195 6.77-5.348 6.943-5.483a.856.856 0 0 1 .528-.207c.169 0 .355.072.528.207.173.14 6.699 5.293 6.944 5.483.43.342.574.692.574 1.296l.004 10.96Z"/><path fill="#FFBE41" d="M31.472 20.913c-.245-.19-6.77-5.348-6.944-5.483a.856.856 0 0 0-.528-.207.882.882 0 0 0-.528.207c-.173.14-6.699 5.293-6.944 5.483-.43.342-.574.692-.574 1.296v10.96c0 .626.355.917.874.917h14.348c.52 0 .874-.291.874-.917V22.21c-.004-.604-.148-.954-.578-1.296Zm-1.753 10.149c0 .502-.279.697-.66.697H18.94c-.38 0-.659-.195-.659-.697V23.18c0-.351 0-.63.385-.938.253-.203 4.78-3.776 4.916-3.881A.667.667 0 0 1 24 18.2c.152.004.3.063.418.16.135.106 4.663 3.68 4.916 3.882.385.308.385.587.385.938v7.88Z"/><path fill="#FFD260" d="M29.334 22.243c-.253-.203-4.78-3.776-4.916-3.881A.67.67 0 0 0 24 18.2a.666.666 0 0 0-.418.16c-.135.106-4.667 3.68-4.916 3.882-.385.308-.385.587-.385.938v7.88c0 .503.279.698.66.698h10.115c.38 0 .659-.195.659-.697V23.18c.004-.355.004-.634-.38-.938Zm-1.942 6.716c0 .388-.195.473-.465.473h-5.85c-.27 0-.464-.09-.464-.473v-4.811c0-.27.122-.532.33-.701.117-.098 2.66-2.087 2.749-2.159a.484.484 0 0 1 .616 0c.093.072 2.632 2.061 2.75 2.159a.89.89 0 0 1 .33.7l.003 4.812Z"/><path fill="#FFE780" d="M24 29.427h2.923c.27 0 .464-.088.464-.473v-4.806a.911.911 0 0 0-.33-.701c-.117-.097-2.66-2.087-2.749-2.159a.484.484 0 0 0-.616 0c-.089.072-2.632 2.062-2.75 2.159a.89.89 0 0 0-.33.7v4.807c0 .389.195.473.465.473H24Z"/></svg>