<svg xmlns="http://www.w3.org/2000/svg" fill="none" aria-hidden="true" viewBox="0 0 48 48"><path fill="url(#a)" d="M9.128 36.766c.105-.24.225-.465.36-.706l1.185-2.25c2.91-.825 4.201 1.17 4.336 1.38l-1.725 3.271c-.135.24-.255.465-.39.69a3.23 3.23 0 0 1-.405.57c-.346.36-.78.6-1.246.66a1.888 1.888 0 0 1-1.35-.3 2.274 2.274 0 0 1-.915-1.125 2.563 2.563 0 0 1-.09-1.5 2.9 2.9 0 0 1 .24-.69ZM26.59 24.448a6.924 6.924 0 0 1-.81-4.5 6.11 6.11 0 0 1 1.605-3.301l6.587 11.732h4.98c.256 0 .51 0 .766.015.225.015.45.03.675.105.465.135.87.42 1.155.81.3.39.465.87.45 1.365.015.495-.15.975-.45 1.38-.285.39-.69.675-1.155.81-.225.06-.45.09-.675.105-.255.015-.51.015-.766.015h-2.385l1.815 3.256c.135.21.255.435.375.675.105.21.18.42.24.645.12.48.09.99-.09 1.456-.194.45-.525.84-.93 1.08a2.168 2.168 0 0 1-2.655-.345 2.571 2.571 0 0 1-.42-.555 5.84 5.84 0 0 1-.39-.66L26.59 24.447Zm-7.734-13.97a2.457 2.457 0 0 1 .09-1.471c.195-.465.525-.855.93-1.11.42-.24.9-.345 1.38-.285.496.075.93.3 1.276.645.165.165.3.36.42.555.135.225.27.45.39.675l.585 1.05.57-1.05c.135-.225.255-.45.39-.675.135-.195.27-.39.435-.555a2.27 2.27 0 0 1 1.26-.645 2.2 2.2 0 0 1 1.381.285c.42.255.75.645.93 1.11.195.465.225.975.105 1.47-.06.225-.15.45-.255.66-.105.225-.24.45-.36.69l-9.167 16.548h6.572c2.13 0 3.675 2.146 3.06 4.276-.06.21-.135.345-.15.405H9.046c-.255 0-.51 0-.75-.015a2.552 2.552 0 0 1-.676-.12 2.196 2.196 0 0 1-1.17-.81c-.285-.405-.45-.9-.45-1.395 0-.51.165-.99.45-1.395.3-.405.705-.69 1.17-.826.225-.06.435-.09.675-.105.24-.015.496-.015.75-.015h4.996l7.292-13.172-1.86-3.375c-.136-.24-.256-.466-.376-.69a3.475 3.475 0 0 1-.24-.66Z"/><defs><linearGradient id="a" x1="23.998" x2="23.998" y1="7.595" y2="40.405" gradientUnits="userSpaceOnUse"><stop stop-color="#0ED4FC"/><stop offset="1" stop-color="#0C57EF"/></linearGradient></defs></svg>