<svg xmlns="http://www.w3.org/2000/svg" fill="none" aria-hidden="true" viewBox="0 0 48 48"><path fill="#000" d="M11.309 18.11c-.469.556-1.219.994-1.969.931-.093-.75.275-1.55.707-2.037.468-.569 1.287-.975 1.956-1.006.075.775-.232 1.544-.694 2.112Zm.681 1.075c-1.087-.062-2.018.619-2.53.619-.526 0-1.313-.587-2.176-.569-1.118.019-2.156.65-2.725 1.656-1.174 2.019-.306 5 .832 6.644.556.812 1.218 1.706 2.093 1.674.831-.03 1.156-.537 2.156-.537 1.006 0 1.3.537 2.175.525.906-.019 1.475-.813 2.031-1.625a7.065 7.065 0 0 0 .906-1.869c-.018-.018-1.75-.68-1.768-2.68-.019-1.675 1.368-2.47 1.43-2.52-.78-1.162-1.999-1.287-2.424-1.318Zm6.275-2.262v12.18h1.893v-4.162h2.619c2.393 0 4.068-1.644 4.068-4.018 0-2.375-1.65-4-4.006-4h-4.574Zm1.893 1.594h2.181c1.644 0 2.581.875 2.581 2.412s-.937 2.425-2.587 2.425h-2.175v-4.837Zm10.137 10.68c1.187 0 2.287-.6 2.787-1.556h.038v1.462h1.75v-6.062c0-1.756-1.407-2.893-3.569-2.893-2.006 0-3.493 1.15-3.55 2.724h1.706c.144-.75.838-1.243 1.788-1.243 1.156 0 1.806.537 1.806 1.53v.676l-2.362.144c-2.194.13-3.381 1.03-3.381 2.593.006 1.575 1.23 2.625 2.987 2.625Zm.512-1.444c-1.006 0-1.65-.487-1.65-1.225 0-.768.62-1.212 1.8-1.28l2.1-.132v.687c0 1.138-.968 1.95-2.25 1.95Zm6.406 4.662c1.844 0 2.712-.706 3.468-2.837L44 20.266h-1.925L39.85 27.46h-.037l-2.225-7.194h-1.975l3.2 8.868-.175.538c-.288.912-.756 1.268-1.594 1.268a7.56 7.56 0 0 1-.556-.03v1.462c.113.025.581.043.725.043Z"/></svg>