<svg xmlns="http://www.w3.org/2000/svg" fill="none" aria-hidden="true" viewBox="0 0 48 48"><g fill="#61BB46"><path d="M18.197 14.39c-2.774 0-5.71 1.69-7.57 4.563a1.527 1.527 0 0 0-.035.056l-.014.023v.124l26.783.002.027-.024a8.16 8.16 0 0 1 1.36-.934l.1-.055-.071-.09c-1.853-2.32-4.459-3.668-6.926-3.668-1.628 0-2.786.389-3.812.774l-.275.104c-.913.347-1.732.658-2.728.658-1.08 0-2.036-.343-3.058-.708a81.93 81.93 0 0 0-.148-.053c-1.074-.384-2.222-.773-3.633-.773Z"/><path d="M31.24 6.089 31.227 6l-.09.006c-1.94.134-4.2 1.37-5.52 2.98-1.194 1.456-2.19 3.627-1.803 5.748l.015.077.078.002c2.124.066 4.31-1.204 5.578-2.838 1.179-1.521 2.082-3.676 1.755-5.886Z"/></g><path fill="#FDB827" fill-rule="evenodd" d="M10.58 19.017c-.794 1.25-1.343 3.04-1.49 4.61h25.764c.279-1.719 1.205-3.36 2.673-4.608l-26.947-.002h.002-.002Z" clip-rule="evenodd"/><path fill="#F5821F" d="m34.85 23.642.018-.112H9.104l-.01.087c-.158 1.428-.117 2.983.135 4.595l.096-.007v.09h26.17l-.06-.136a8.037 8.037 0 0 1-.586-4.517Z"/><path fill="#E03A3E" d="M35.409 28.101H9.21l.017.111a21.714 21.714 0 0 0 1.248 4.573v.079l29.147.002.054-.12.153-.339.042-.093-.096-.037a7.684 7.684 0 0 1-4.342-4.118l-.025-.058Z"/><path fill="#963D97" d="m39.658 32.672-29.226-.002.052.132a23.432 23.432 0 0 0 2.196 4.244l.228.345.03.044 24.121-.003.03-.042c.144-.212.283-.422.417-.627 1.001-1.53 1.421-2.36 2.143-3.954l.01-.02v-.117Z"/><path fill="#009DDC" d="m37.089 37.39.102-.152-24.383.003.1.15c.741 1.106 1.601 2.25 2.592 3.12.992.872 2.122 1.477 3.403 1.489 1.11.01 1.852-.322 2.637-.673l.173-.078c.848-.376 1.791-.754 3.357-.763 1.565-.009 2.492.368 3.323.747l.186.085c.764.352 1.491.687 2.595.677 1.23-.012 2.343-.629 3.328-1.504.985-.876 1.85-2.019 2.587-3.101Z"/></svg>