<svg xmlns="http://www.w3.org/2000/svg" fill="none" aria-hidden="true" viewBox="0 0 48 48"><path fill="#60B57D" d="M24 42c9.941 0 18-8.059 18-18S33.941 6 24 6 6 14.059 6 24s8.059 18 18 18Z"/><path fill="#fff" d="M22.568 14.317a.507.507 0 0 1-.635.79c-1.321-1.061-2.422-1.412-3.1-1.065-.79.403-1.097 1.7-.938 3.508l.024.244c.014.124.03.25.047.377l.037.259c.047.302.105.615.174.938a26.452 26.452 0 0 1 3.051-.284c.467-.6.941-1.162 1.418-1.683l.238-.258a20.532 20.532 0 0 1 1.786-1.694l.235-.193c2.151-1.727 4.153-2.41 5.447-1.57 1.128.732 1.43 2.389 1.012 4.61a.507.507 0 1 1-.997-.188c.351-1.86.12-3.126-.566-3.572-.893-.58-2.551.088-4.421 1.646l-.21.177c-.104.09-.21.182-.315.278l-.212.195a21.03 21.03 0 0 0-.643.625l-.216.221-.108.114-.216.231-.217.238-.217.244-.217.25-.216.257-.042.05a33.51 33.51 0 0 1 1.537.045l.202.011.401.026c.333.023.662.052.987.084l.388.042.192.022.381.048c.316.042.627.088.933.138l.365.063.359.066.354.07c1.17.242 2.245.548 3.193.906l.28.109c2.49.994 4.025 2.364 3.946 3.877-.065 1.252-1.187 2.285-3.067 3.025a.507.507 0 1 1-.371-.944c1.55-.61 2.386-1.38 2.426-2.133.05-.965-1.104-1.962-3.025-2.767l-.239-.097a16.014 16.014 0 0 0-.5-.19l-.261-.09-.268-.09-.275-.086-.28-.084a22.34 22.34 0 0 0-.144-.04l-.29-.081a18.644 18.644 0 0 0-.148-.04l-.3-.075a24.477 24.477 0 0 0-.935-.21l-.322-.065-.163-.03-.33-.06-.335-.056a40.082 40.082 0 0 0-.17-.026l-.342-.051-.346-.047-.35-.044-.356-.04a30.08 30.08 0 0 0-.54-.051l-.364-.03c-.122-.01-.244-.018-.367-.026l-.372-.021-.37-.018-.37-.012a30.47 30.47 0 0 0-1.264-.01l-.29.006-.113.15c-.071.096-.142.191-.212.288l-.21.293a31.04 31.04 0 0 0-.924 1.378l-.195.313a30.49 30.49 0 0 0-.595 1.01l.053.127.137.325.071.164.146.328.151.329.156.33.162.332.167.332.17.33.174.325.176.32.088.16.18.312.18.308.183.303c.06.1.122.199.184.297l.185.292.187.286c.156.236.314.466.472.69l.19.265c.127.175.255.345.383.512l.191.246.192.24.096.117.191.23.191.222c.192.219.382.428.571.625l.189.194.188.186c.093.091.186.18.279.265l.184.167c.092.081.183.16.274.235l.18.146c1.223.974 2.308 1.367 3.028 1 .676-.344.998-1.35.974-2.778l-.006-.217a10.451 10.451 0 0 0-.011-.224l-.017-.229a12.237 12.237 0 0 0-.021-.235l-.027-.24-.015-.123-.035-.249-.04-.254-.045-.258c-.04-.218-.085-.44-.135-.668l-.063-.275-.068-.279a22.502 22.502 0 0 0-.036-.14l-.076-.285-.08-.289a25.507 25.507 0 0 0-.043-.145l-.089-.294-.093-.297c-.048-.15-.098-.3-.15-.45l-.107-.305-.111-.307a28.253 28.253 0 0 0-.239-.62l-.126-.314-.132-.316a34.238 34.238 0 0 0-.068-.158l-.14-.318-.144-.32-.074-.16-.152-.321a26.208 26.208 0 0 0-.078-.16.507.507 0 0 1 .911-.445l.169.35c.055.116.109.233.162.349l.157.348c.155.347.3.692.438 1.034l.134.341.066.17.126.338.06.168.118.334c.076.222.149.442.217.66l.1.326c1.196 3.995 1.042 7.244-.75 8.158-1.451.74-3.507-.287-5.577-2.454l-.214-.228a19.51 19.51 0 0 1-.428-.48l-.214-.252a25.11 25.11 0 0 1-1.679-2.271l-.204-.314a31.8 31.8 0 0 1-1.462-2.537l-.092-.18c-.061-.12-.122-.24-.181-.36l-.176-.36a32.69 32.69 0 0 1-.397-.86l-.082.162-.075.152-.146.302-.14.3-.135.297-.065.148-.126.293-.06.146-.118.289a22.3 22.3 0 0 0-.057.143l-.109.284a27.76 27.76 0 0 0-.052.141l-.1.279-.094.275c-.046.137-.089.272-.13.405l-.08.265-.073.26-.035.129-.064.253c-.051.209-.096.413-.134.61l-.044.236c-.286 1.663-.1 2.89.611 3.351.716.465 2.044.111 3.682-1.071a.507.507 0 1 1 .594.822c-1.942 1.401-3.658 1.858-4.827 1.1-1.413-.917-1.512-3.341-.572-6.357l.097-.303c.068-.204.14-.41.216-.618l.118-.314c.162-.421.341-.85.538-1.286l.15-.328.158-.33c.2-.413.415-.83.644-1.25l-.09-.233-.131-.348a26.58 26.58 0 0 1-.464-1.366l-.1-.334a26.23 26.23 0 0 1-.175-.628l-.186.038-.275.06-.27.064-.131.033-.259.068-.251.071a13.95 13.95 0 0 0-.245.074l-.236.076c-.078.026-.154.052-.229.079l-.221.081c-1.52.579-2.445 1.338-2.488 2.164-.039.754.713 1.607 2.192 2.374a.507.507 0 1 1-.467.9c-1.794-.931-2.802-2.075-2.737-3.326.09-1.745 2.293-3.077 5.568-3.749-.662-3.167-.325-5.632 1.199-6.41 1.126-.574 2.597-.105 4.196 1.179Zm2.778 9.429a1.442 1.442 0 1 1-2.82.609 1.442 1.442 0 0 1 2.82-.61Zm-4.908-3.601-.091.006-.209.016-.33.029-.324.032-.16.017-.318.038-.157.02-.309.043-.122.018.043.162c.068.247.141.497.22.751l.098.307.051.154.106.312c.029.084.058.168.089.252.16-.267.326-.534.498-.802l.11-.17c.263-.406.532-.802.805-1.185Z"/></svg>