<svg xmlns="http://www.w3.org/2000/svg" fill="none" aria-hidden="true" viewBox="0 0 48 48"><path fill="#60B57D" d="M24 42c9.941 0 18-8.059 18-18S33.941 6 24 6 6 14.059 6 24s8.059 18 18 18Z"/><path fill="#fff" d="M22.569 14.317a.507.507 0 0 1-.635.79c-1.322-1.061-2.422-1.412-3.101-1.065-.79.403-1.097 1.7-.937 3.508l.024.244c.013.124.029.25.046.377l.038.259c.047.302.105.615.174.938a26.453 26.453 0 0 1 3.05-.284c.467-.6.942-1.162 1.418-1.683l.239-.258a20.547 20.547 0 0 1 1.785-1.694l.236-.192c2.15-1.728 4.152-2.412 5.447-1.571 1.128.732 1.43 2.389 1.011 4.61a.507.507 0 1 1-.996-.188c.35-1.86.12-3.126-.567-3.572-.892-.58-2.55.088-4.421 1.646l-.209.177c-.104.09-.21.183-.315.278l-.213.195a21.03 21.03 0 0 0-.643.625l-.215.221-.109.114-.216.231-.217.238-.216.244-.217.25-.216.257-.043.05c.505.004 1.018.018 1.538.045l.202.011.4.026c.333.023.663.052.987.084l.388.042.193.022.38.048c.317.042.628.088.934.138l.364.063.36.066.353.07a21.24 21.24 0 0 1 3.194.906l.28.109c2.49.994 4.024 2.364 3.945 3.877-.065 1.252-1.186 2.285-3.066 3.025a.507.507 0 1 1-.372-.943c1.55-.61 2.387-1.381 2.426-2.134.05-.965-1.104-1.962-3.024-2.767l-.24-.097a15.666 15.666 0 0 0-.5-.19l-.26-.09-.268-.09-.275-.086-.281-.084a20.648 20.648 0 0 0-.143-.04l-.291-.081a22.432 22.432 0 0 0-.148-.04l-.3-.075a24.714 24.714 0 0 0-.934-.21l-.323-.065-.163-.03-.33-.06-.335-.056a28.548 28.548 0 0 0-.17-.026l-.341-.051-.347-.047-.35-.044-.355-.04a30.08 30.08 0 0 0-.54-.051l-.364-.03c-.122-.01-.245-.018-.368-.026l-.371-.021-.371-.018-.369-.012c-.428-.012-.85-.015-1.264-.01l-.29.006-.114.15-.212.288-.21.293a30.937 30.937 0 0 0-.923 1.378l-.196.313c-.207.338-.406.674-.595 1.01l.053.127.138.325.07.164.147.328.15.329.157.33.162.332.166.332.171.33.174.325.175.32.089.16.179.312.18.308.183.303.184.297.186.292.187.286c.156.236.313.466.472.69l.19.265c.127.175.254.345.382.512l.192.246.191.24.096.117.192.23.191.222c.191.22.382.428.57.625l.19.194.187.186c.094.091.187.18.28.265l.184.167c.091.081.183.16.273.235l.18.147c1.224.973 2.308 1.367 3.028 1 .676-.345.999-1.352.975-2.78l-.006-.216a10.436 10.436 0 0 0-.012-.224l-.016-.229a11.485 11.485 0 0 0-.022-.235l-.027-.24a11.68 11.68 0 0 0-.015-.123l-.035-.249-.04-.254-.044-.258a17.92 17.92 0 0 0-.135-.668l-.063-.275-.069-.279a22.502 22.502 0 0 0-.035-.14l-.076-.285-.081-.289a19.349 19.349 0 0 0-.043-.145l-.088-.294-.094-.297c-.048-.15-.098-.3-.15-.45l-.106-.305-.112-.307a27.944 27.944 0 0 0-.238-.62l-.127-.314-.132-.316a34.238 34.238 0 0 0-.067-.158l-.14-.318-.144-.32a22.9 22.9 0 0 0-.075-.16l-.152-.32a26.23 26.23 0 0 0-.077-.162.507.507 0 0 1 .91-.444l.169.35c.055.117.11.233.163.349l.157.348c.154.347.3.692.437 1.034l.135.341.065.17.126.338.061.168.117.334c.077.222.15.442.218.66l.1.326c1.195 3.995 1.042 7.244-.751 8.158-1.45.74-3.507-.287-5.577-2.454l-.214-.228a19.329 19.329 0 0 1-.428-.48l-.213-.252a25.13 25.13 0 0 1-1.68-2.271l-.203-.314a31.798 31.798 0 0 1-1.462-2.537l-.093-.18-.18-.36-.176-.36c-.138-.288-.27-.574-.398-.86l-.081.162c-.026.05-.05.101-.075.152l-.146.302-.14.3-.135.297-.065.148-.126.293-.061.146-.118.289-.056.143-.11.284a27.76 27.76 0 0 0-.051.141l-.1.28-.095.274-.13.405-.08.265-.073.26-.034.129-.064.253a12.88 12.88 0 0 0-.135.61l-.043.236c-.287 1.663-.1 2.89.611 3.351.716.465 2.044.111 3.682-1.071a.507.507 0 1 1 .593.822c-1.941 1.401-3.658 1.858-4.827 1.1-1.412-.917-1.512-3.341-.572-6.357l.098-.303c.067-.204.14-.41.215-.618l.118-.314c.162-.421.341-.85.538-1.286l.15-.328.158-.33c.2-.413.415-.83.644-1.25l-.09-.233-.131-.348a27.55 27.55 0 0 1-.463-1.366l-.1-.334a19.334 19.334 0 0 1-.175-.628l-.186.038-.276.06-.269.064-.132.033-.258.068-.252.071a13.95 13.95 0 0 0-.244.074l-.237.076a11.51 11.51 0 0 0-.229.079l-.22.081c-1.52.579-2.445 1.338-2.488 2.164-.04.754.713 1.607 2.191 2.374a.507.507 0 0 1-.467.9c-1.793-.931-2.802-2.075-2.737-3.326.091-1.745 2.293-3.077 5.569-3.749-.663-3.167-.326-5.632 1.198-6.41 1.126-.574 2.598-.105 4.197 1.179Zm2.777 9.429a1.442 1.442 0 1 1-2.819.609 1.442 1.442 0 0 1 2.82-.61Zm-4.907-3.601-.092.006-.208.016-.33.029-.325.032-.16.017-.318.038a33.33 33.33 0 0 0-.156.02l-.31.043-.122.018.044.162c.067.247.14.497.22.751l.098.307.05.154.106.312.09.252c.16-.266.326-.534.497-.802l.11-.17a33.6 33.6 0 0 1 .806-1.185Z"/></svg>