<svg xmlns="http://www.w3.org/2000/svg" fill="none" aria-hidden="true" viewBox="0 0 48 48"><path fill="#F0A749" d="M16.751 14.595c4.709-2.219 10.414-2.088 15.085.175a17.385 17.385 0 0 1 7.684 7.227c-1.08.545-2.166 1.078-3.249 1.615a16.19 16.19 0 0 0-7.764-7.01c-4.313-1.884-9.464-1.829-13.678.31-2.357 1.135-4.311 2.939-5.927 4.974 1.804-3.148 4.545-5.768 7.85-7.291Z"/><path fill="#E15436" d="M13.43 24.3c2.288-3.552 6.31-6.034 10.595-5.992 4.306-.05 8.4 2.458 10.575 6.13-1.076.536-2.156 1.066-3.232 1.604-1.952-3.241-5.552-5.465-9.366-5.495-3.256-.131-6.344 1.457-8.573 3.754Z"/><path fill="#191918" d="M4 22.398c6.663 3.342 13.331 6.67 20 10.003 6.666-3.332 13.334-6.66 20-9.998-.005.94-.006 1.878-.003 2.817a20254.65 20254.65 0 0 0-20 10c-6.664-3.336-13.329-6.67-19.995-10 0-.942 0-1.882-.002-2.822Z"/><path fill="#84164D" d="M18.301 26.735c1.229-1.696 3.015-3.163 5.188-3.294 2.54-.264 4.925 1.294 6.219 3.402-1.073.543-2.153 1.073-3.226 1.614-1.002-1.52-2.593-2.76-4.463-2.868-1.348-.155-2.613.44-3.718 1.146Z"/></svg>