<svg xmlns="http://www.w3.org/2000/svg" fill="none" aria-hidden="true" viewBox="0 0 48 48"><path fill="#B7CA9D" d="m39.91 30.772-15.905-2.336-15.915 2.34 15.911 5.896 15.909-5.9Z"/><path fill="#4B612C" d="m11.275 30.5 2.688.84.245-.278V12.25l-.245-.321-2.688 1.028V30.5Z"/><path fill="#759C3E" d="m23.482 29.668-9.519 1.672V11.93l9.519 2.14v15.598Z"/><path fill="#4B612C" d="m19.238 32.958-3.71-1.144V7.855L19.238 6l.324.354v26.209l-.324.395Z"/><path fill="#759C3E" d="m31.95 29.976-12.712 2.982V6l12.713 4.955v19.02Z"/><path fill="#4B612C" d="M23.996 36.416 8.09 30.776v3.271L23.996 42v-5.584Z"/><path fill="#759C3E" d="M39.91 34.043 23.996 42v-5.584l15.914-5.644v3.271Z"/><path fill="#B7CA9D" d="M35.44 25.352h-3.856L20.59 26.1l3.41.628 11.44-1.377Z"/><path fill="#4B612C" d="M20.59 33.333 24 34.355l.098-.105-.003-7.688-.098-.094-3.406-.367v7.232Z"/><path fill="#759C3E" d="m35.44 25.352-11.444 1.116.003 7.887 11.44-3.444v-5.56Z"/></svg>