<svg xmlns="http://www.w3.org/2000/svg" fill="none" aria-hidden="true" viewBox="0 0 48 48"><path fill="#0089D6" d="M22.654 36.453c4.626-.817 8.446-1.493 8.49-1.503l.08-.016-4.367-5.194c-2.402-2.857-4.367-5.205-4.367-5.219 0-.026 4.51-12.442 4.534-12.486.009-.015 3.077 5.283 7.438 12.841l7.481 12.967.057.1-13.877-.003-13.878-.002 8.41-1.485ZM6 34.869c0-.007 2.058-3.579 4.572-7.937l4.573-7.924 5.328-4.471c2.93-2.46 5.336-4.475 5.346-4.479.01-.004-.029.094-.086.216l-5.786 12.41-5.682 12.188-4.133.005C7.86 34.88 6 34.877 6 34.87Z"/></svg>