<svg xmlns="http://www.w3.org/2000/svg" fill="none" aria-hidden="true" viewBox="0 0 48 48"><path fill="#00BEF2" d="M23.98 6c.039 0 .077.048.134.134.048.076 4.065 4.894 8.93 10.704 4.866 5.81 8.835 10.59 8.816 10.619-.01.028-3.883 3.206-8.606 7.05a5591.06 5591.06 0 0 0-8.92 7.27c-.315.258-.334.267-.449.153-.067-.067-4.093-3.358-8.949-7.318-4.856-3.959-8.815-7.222-8.796-7.27.019-.047 4.007-4.808 8.882-10.59 4.875-5.781 8.863-10.561 8.882-10.638.02-.076.048-.114.077-.114Z"/><path fill="#fff" d="M23.322 36.272c-.553-.2-1.22-.772-1.498-1.307-.343-.658-.314-1.688.067-2.509.296-.61.296-.63.105-.773-.105-.076-1.374-.782-2.805-1.555-1.43-.773-2.68-1.45-2.767-1.498-.114-.066-.305 0-.648.22-1.117.706-2.28.63-3.196-.22-.659-.61-.85-1.04-.85-1.917 0-.85.172-1.288.716-1.832.735-.735 1.717-.983 2.662-.668.515.172.525.172.849-.076.382-.287 3.444-3.082 4.923-4.484l1.02-.973-.304-.64c-.62-1.288-.306-2.719.782-3.577.591-.468 1.03-.611 1.88-.611 1.984 0 3.367 2.08 2.623 3.94-.2.515-.2.525-.01.84.163.276 2.92 3.606 4.38 5.304.257.296.543.535.639.535.095 0 .42-.096.725-.21 1.421-.563 2.92.067 3.51 1.479.383.906.048 2.127-.762 2.862-.573.515-.993.677-1.756.677-.534 0-.734-.057-1.297-.362-.42-.23-.745-.344-.878-.306-.23.058-3.75 2.471-4.532 3.101-.477.391-.515.534-.267 1.116.238.573.21 1.47-.057 2.032-.296.62-1.03 1.24-1.67 1.431-.649.182-1.04.182-1.584-.019Zm.163-10.513V20.32l-.306-.42c-.171-.228-.334-.42-.362-.42-.124 0-6.288 5.601-6.288 5.716 0 .028.096.315.21.62.115.315.2.763.191 1.02-.01.258-.01.545-.01.64.01.22 2.07 1.536 5.162 3.32.85.496 1.145.62 1.25.534.124-.105.152-1.164.152-5.571Zm2.614 4.808c4.083-2.566 4.846-3.082 4.894-3.272.029-.115.067-.563.076-1.012l.029-.801-2.08-2.471c-2.232-2.643-3.053-3.54-3.244-3.54-.067 0-.4.191-.744.42l-.63.42.029 5.428c.029 4.866.067 5.687.248 5.687.02.01.668-.382 1.422-.859Z"/></svg>