<svg xmlns="http://www.w3.org/2000/svg" fill="none" aria-hidden="true" viewBox="0 0 48 48"><rect width="48" height="48" fill="#1769FF" rx="24"/><path fill="#fff" fill-rule="evenodd" d="M23.47 20.045c0-.925-.242-1.718-.725-2.382-.805-1.08-2.17-1.635-4.1-1.663H11v15.607h7.128c.804 0 1.548-.069 2.236-.21.688-.142 1.282-.402 1.786-.784a4.338 4.338 0 0 0 1.12-1.228c.471-.734.706-1.564.706-2.489 0-.897-.206-1.66-.616-2.286-.413-.629-1.021-1.087-1.828-1.378.531-.268.933-.565 1.207-.888.49-.58.731-1.347.731-2.3Zm10.668-1.375h-6.78v-1.942h6.78v1.942Zm-5.99 6.024c.112-.751.384-1.347.816-1.786.432-.44 1.043-.66 1.826-.66.723 0 1.326.207 1.817.621.485.418.758 1.023.814 1.825h-5.273ZM33.54 20.3c.817.36 1.49.93 2.02 1.708.483.686.793 1.482.935 2.386.083.529.116 1.295.102 2.292h-8.524c.051 1.156.455 1.968 1.226 2.433.466.29 1.027.435 1.687.435.694 0 1.261-.176 1.696-.528.24-.192.45-.456.63-.795h3.124c-.083.683-.462 1.38-1.133 2.087C34.255 31.438 32.788 32 30.902 32c-1.558 0-2.933-.472-4.12-1.42-1.194-.945-1.787-2.487-1.787-4.62 0-2 .537-3.533 1.61-4.6 1.077-1.066 2.47-1.602 4.184-1.602 1.019 0 1.935.181 2.751.542Zm-19.387 8.598v-4.162h3.896c.677.006 1.205.095 1.582.264.672.305 1.007.861 1.007 1.675 0 .96-.347 1.607-1.04 1.948-.381.183-.917.275-1.603.275h-3.842Zm0-10.188v3.444h3.848c.684 0 1.243-.13 1.673-.388.428-.258.643-.716.643-1.37 0-.728-.283-1.208-.849-1.443-.49-.161-1.114-.243-1.87-.243h-3.445Z" clip-rule="evenodd"/></svg>