<svg xmlns="http://www.w3.org/2000/svg" fill="none" aria-hidden="true" viewBox="0 0 48 48"><rect width="48" height="48" fill="#1769FF" rx="24"/><path fill="#fff" fill-rule="evenodd" d="M23.47 20.045c0-.925-.242-1.718-.725-2.382-.806-1.08-2.17-1.635-4.1-1.663H11v15.607h7.128c.804 0 1.548-.069 2.235-.21.688-.142 1.283-.402 1.787-.784a4.338 4.338 0 0 0 1.12-1.228c.471-.734.706-1.564.706-2.489 0-.897-.206-1.66-.616-2.286-.414-.629-1.022-1.087-1.828-1.378.53-.268.933-.565 1.207-.888.489-.58.731-1.347.731-2.3Zm10.667-1.375h-6.779v-1.942h6.78v1.942Zm-5.989 6.024c.112-.751.384-1.347.816-1.786.432-.44 1.043-.66 1.826-.66.722 0 1.326.207 1.817.621.484.418.758 1.023.814 1.825h-5.273ZM33.54 20.3c.817.36 1.49.93 2.02 1.708.483.686.793 1.482.934 2.386.083.529.116 1.295.103 2.292h-8.524c.051 1.156.455 1.968 1.225 2.433.467.29 1.028.435 1.688.435.693 0 1.26-.176 1.696-.528.24-.192.45-.456.63-.795h3.124c-.083.683-.462 1.38-1.134 2.087-1.047 1.12-2.515 1.682-4.4 1.682-1.559 0-2.933-.472-4.12-1.42-1.194-.945-1.787-2.487-1.787-4.62 0-2 .537-3.533 1.61-4.6 1.077-1.066 2.469-1.602 4.183-1.602 1.02 0 1.936.181 2.752.542Zm-19.387 8.598v-4.162h3.896c.677.006 1.205.095 1.581.264.673.305 1.007.861 1.007 1.675 0 .96-.346 1.607-1.04 1.948-.38.183-.916.275-1.603.275h-3.84Zm0-10.188v3.444H18c.685 0 1.244-.13 1.674-.388.428-.258.643-.716.643-1.37 0-.728-.283-1.208-.85-1.443-.49-.161-1.113-.243-1.87-.243h-3.444Z" clip-rule="evenodd"/></svg>