<svg xmlns="http://www.w3.org/2000/svg" fill="none" aria-hidden="true" viewBox="0 0 48 48"><path fill="#7F7F7F" d="M22.875 17.872c-.006.048-.006.103-.006.156 0 .208.041.408.116.593l.067.138.265.678 1.377 3.512 1.2 3.067a3.05 3.05 0 0 0 1.554 1.365l.205.075c.008.003.022.003.033.006l3.291 1.131v.003l1.258.432.086.029.011.003a4.814 4.814 0 0 1 2.162 1.213c.168.16.322.333.465.517a4.833 4.833 0 0 1 .974 3.672v.005a7.134 7.134 0 0 1-.038.218c-.014.07-.027.14-.043.21a.475.475 0 0 1-.009.025 3.522 3.522 0 0 1-.117.411c-.022.071-.047.14-.076.208a1.98 1.98 0 0 1-.086.209 4.9 4.9 0 0 1-.838 1.29 10.75 10.75 0 0 0 2.827-6.178 10.756 10.756 0 0 0 .038-1.938 10.767 10.767 0 0 0-3.467-7.205 10.606 10.606 0 0 0-1.782-1.335l-1.21-.619L25 16.616a1.537 1.537 0 0 0-2.124 1.256Z"/><path fill="url(#a)" d="M22.875 17.872c-.006.048-.006.103-.006.156 0 .208.041.408.116.593l.067.138.265.678 1.377 3.512 1.2 3.067a3.05 3.05 0 0 0 1.554 1.365l.205.075c.008.003.022.003.033.006l3.291 1.131v.003l1.258.432.086.029.011.003a4.814 4.814 0 0 1 2.162 1.213c.168.16.322.333.465.517a4.833 4.833 0 0 1 .974 3.672v.005a7.134 7.134 0 0 1-.038.218c-.014.07-.027.14-.043.21a.475.475 0 0 1-.009.025 3.522 3.522 0 0 1-.117.411c-.022.071-.047.14-.076.208a1.98 1.98 0 0 1-.086.209 4.9 4.9 0 0 1-.838 1.29 10.75 10.75 0 0 0 2.827-6.178 10.756 10.756 0 0 0 .038-1.938 10.767 10.767 0 0 0-3.467-7.205 10.606 10.606 0 0 0-1.782-1.335l-1.21-.619L25 16.616a1.537 1.537 0 0 0-2.124 1.256Z"/><path fill="#7F7F7F" d="M11.955 4a1.604 1.604 0 0 0-1.574 1.603v27.96c.004.195.015.387.029.583a4.783 4.783 0 0 0 7.048 3.677l.244-.148.99-.582 1.258-.746.003-24.843a4.797 4.797 0 0 0-2.177-4.03l-4.896-3.2A1.63 1.63 0 0 0 12.012 4h-.057Z"/><path fill="url(#b)" d="M11.955 4a1.604 1.604 0 0 0-1.574 1.603v27.96c.004.195.015.387.029.583a4.783 4.783 0 0 0 7.048 3.677l.244-.148.99-.582 1.258-.746.003-24.843a4.797 4.797 0 0 0-2.177-4.03l-4.896-3.2A1.63 1.63 0 0 0 12.012 4h-.057Z"/><path fill="#7F7F7F" d="m31.369 29.543-11.257 6.673-.162.097v.036l-1.258.745-.99.584-.242.146-.016.008a4.782 4.782 0 0 1-6.988-3.371 10.67 10.67 0 0 0 1.592 4.503 10.813 10.813 0 0 0 8.08 4.985h2.079c1.84-.193 3.375-.93 4.99-1.924l2.482-1.518c1.118-.717 4.154-2.48 5.048-3.47a4.875 4.875 0 0 0 .924-1.496l.075-.21c.047-.134.084-.27.12-.41l.05-.235c.054-.295.084-.597.084-.91a4.849 4.849 0 0 0-1.485-3.502 4.805 4.805 0 0 0-2.162-1.213l-.011-.003-.086-.03-.867.515Z"/><path fill="url(#c)" d="m31.369 29.543-11.257 6.673-.162.097v.036l-1.258.745-.99.584-.242.146-.016.008a4.782 4.782 0 0 1-6.988-3.371 10.67 10.67 0 0 0 1.592 4.503 10.813 10.813 0 0 0 8.08 4.985h2.079c1.84-.193 3.375-.93 4.99-1.924l2.482-1.518c1.118-.717 4.154-2.48 5.048-3.47a4.875 4.875 0 0 0 .924-1.496l.075-.21c.047-.134.084-.27.12-.41l.05-.235c.054-.295.084-.597.084-.91a4.849 4.849 0 0 0-1.485-3.502 4.805 4.805 0 0 0-2.162-1.213l-.011-.003-.086-.03-.867.515Z"/><path fill="#7F7F7F" d="M35.98 33.775a4.994 4.994 0 0 1-.135 1.146 4.953 4.953 0 0 1-.281.828 4.826 4.826 0 0 1-.837 1.289c-.894.99-3.93 2.752-5.048 3.469l-2.482 1.518c-1.82 1.121-3.54 1.915-5.708 1.97a10.368 10.368 0 0 1-.72-.003 10.808 10.808 0 0 1-8.72-5.028 10.67 10.67 0 0 1-1.593-4.503 4.782 4.782 0 0 0 6.988 3.371l.016-.008.243-.146.989-.584 1.258-.745v-.036l.162-.097 11.257-6.673.867-.514.086.029.01.003a4.812 4.812 0 0 1 2.162 1.213c.168.16.323.333.465.517a4.849 4.849 0 0 1 1.02 2.984Z" opacity=".15"/><path fill="url(#d)" d="M35.98 33.775a4.994 4.994 0 0 1-.135 1.146 4.953 4.953 0 0 1-.281.828 4.826 4.826 0 0 1-.837 1.289c-.894.99-3.93 2.752-5.048 3.469l-2.482 1.518c-1.82 1.121-3.54 1.915-5.708 1.97a10.368 10.368 0 0 1-.72-.003 10.808 10.808 0 0 1-8.72-5.028 10.67 10.67 0 0 1-1.593-4.503 4.782 4.782 0 0 0 6.988 3.371l.016-.008.243-.146.989-.584 1.258-.745v-.036l.162-.097 11.257-6.673.867-.514.086.029.01.003a4.812 4.812 0 0 1 2.162 1.213c.168.16.323.333.465.517a4.849 4.849 0 0 1 1.02 2.984Z" opacity=".15"/><defs><linearGradient id="a" x1="24.696" x2="37.483" y1="18.207" y2="32.457" gradientUnits="userSpaceOnUse"><stop stop-color="#37BDFF"/><stop offset=".25" stop-color="#26C6F4"/><stop offset=".5" stop-color="#15D0E9"/><stop offset=".75" stop-color="#3BD6DF"/><stop offset="1" stop-color="#62DCD4"/></linearGradient><linearGradient id="b" x1="15.824" x2="15.412" y1="37.802" y2="6.179" gradientUnits="userSpaceOnUse"><stop stop-color="#1B48EF"/><stop offset=".5" stop-color="#2080F1"/><stop offset="1" stop-color="#26B8F4"/></linearGradient><linearGradient id="c" x1="23.218" x2="54.166" y1="36.489" y2="36.489" gradientUnits="userSpaceOnUse"><stop stop-color="#39D2FF"/><stop offset=".5" stop-color="#248FFA"/><stop offset="1" stop-color="#104CF5"/></linearGradient><linearGradient id="d" x1="23.218" x2="54.166" y1="36.489" y2="36.489" gradientUnits="userSpaceOnUse"><stop stop-color="#fff"/><stop offset="1"/></linearGradient></defs></svg>