<svg xmlns="http://www.w3.org/2000/svg" fill="none" aria-hidden="true" viewBox="0 0 48 48"><path fill="#fff" d="M24 6c-.854 0-1.709.22-2.474.663l-11.304 6.526a4.947 4.947 0 0 0-2.473 4.285v13.052c0 1.768.942 3.401 2.473 4.285l11.304 6.526a4.945 4.945 0 0 0 4.948 0l11.303-6.526a4.947 4.947 0 0 0 2.474-4.285V17.474a4.948 4.948 0 0 0-2.474-4.285L26.474 6.663A4.944 4.944 0 0 0 24 6Z"/><path fill="#298AEC" d="M37.777 13.19 26.474 6.663a4.947 4.947 0 0 0-4.948 0L10.222 13.19a4.947 4.947 0 0 0-2.473 4.284v13.052c0 1.768.942 3.401 2.473 4.285l11.304 6.526a4.947 4.947 0 0 0 4.948 0l11.303-6.526a4.947 4.947 0 0 0 2.474-4.285V17.474c0-1.768-.943-3.4-2.474-4.284Zm.92 16.712a4.474 4.474 0 0 1-2.238 3.875l-10.222 5.902a4.475 4.475 0 0 1-4.474 0L11.54 33.777a4.474 4.474 0 0 1-2.237-3.875V18.098c0-1.598.853-3.075 2.237-3.874l10.223-5.902a4.47 4.47 0 0 1 4.474 0l10.222 5.902a4.474 4.474 0 0 1 2.237 3.874v11.804Z"/><path fill="#44546C" d="M17.033 20h14.401v1.262h-14.4V20Zm0 4.245h14.401v1.263h-14.4v-1.263Zm0 4.232h14.401v1.262h-14.4v-1.262Z"/></svg>