<svg xmlns="http://www.w3.org/2000/svg" fill="none" aria-hidden="true" viewBox="0 0 48 48"><path fill="#F06A35" d="M10.114 41.858a5.67 5.67 0 0 1-1.792-.804c-.452-.31-1.114-.948-1.365-1.319a6.865 6.865 0 0 1-.805-1.767c-.147-.549-.149-.767-.152-13.94-.002-13.107 0-13.395.145-13.959.509-1.992 2.084-3.507 4.117-3.96.584-.13 26.687-.152 27.317-.023 1.706.35 3.048 1.375 3.824 2.926.617 1.232.562-.124.59 14.51.018 9.311.002 13.22-.058 13.707-.278 2.279-1.847 4.047-4.105 4.624-.577.148-.778.15-13.892.146-12.68-.004-13.33-.01-13.824-.14Z"/><path fill="#fff" d="M29.11 35.035c1.613-.22 2.877-.866 4.063-2.077.858-.877 1.394-1.825 1.745-3.084.146-.523.158-.778.185-3.849.02-2.317.003-3.403-.057-3.677-.087-.397-.335-.766-.618-.92-.087-.047-.645-.107-1.24-.134-.996-.044-1.108-.063-1.422-.247-.5-.293-.637-.609-.638-1.466-.003-1.638-.684-3.158-2.031-4.53-.96-.979-2.03-1.64-3.251-2.011-.293-.089-.948-.12-3.14-.145-3.442-.04-4.206.03-5.378.497-2.16.86-3.712 2.673-4.278 4.998-.106.436-.127 1.136-.152 5.155-.031 5.036.003 5.775.318 6.773.26.824.522 1.33 1.063 2.047 1.029 1.366 2.572 2.352 4.114 2.631.734.133 9.79.166 10.717.04Z"/><path fill="#F06A35" d="M28.826 27.156c.595.556.47 1.545-.248 1.952l-.737.12-4.35.05c-2.934.027-3.816-.03-3.996-.102l-.006-.002c-.354-.154-.683-.583-.74-.963-.054-.362.127-.86.406-1.111l.062-.054c.275-.226.591-.267 3.183-.276l2.998-.003c3.03.002 3.057.042 3.428.389Zm-4.271-8.206c.462.233.663.563.663 1.087 0 .455-.175.779-.562 1.04l-.075.048c-.189.112-.373.132-1.834.143l-.943.006c-1.168.002-2.068-.022-2.211-.062-.825-.227-1.133-1.41-.527-2.022l.056-.056c.325-.314.531-.347 2.432-.35l1.433.001c1.21.006 1.307.033 1.568.165Z"/></svg>