<svg xmlns="http://www.w3.org/2000/svg" fill="none" aria-hidden="true" viewBox="0 0 48 48"><path fill="#fff" d="M24.144 42c8.373 0 14.142-3.734 14.142-18S32.516 6 24.144 6 10 9.734 10 24s5.772 18 14.144 18Z"/><path fill="#0060A9" d="m25.693 14.889 3.17 2.976-3.168 2.974-.002-5.95Zm0 18.22 3.17-2.976-3.168-2.975-.002 5.95Zm-3.385-9.11-6.853-6.451 1.986-1.864 5.46 5.128V8.522l9.93 9.322-6.557 6.155 6.557 6.157-9.93 9.321v-12.29l-5.46 5.129-1.987-1.866L22.308 24ZM24.144 42c8.373 0 14.142-3.734 14.142-18S32.516 6 24.144 6 10 9.734 10 24s5.772 18 14.144 18Z"/></svg>