<svg xmlns="http://www.w3.org/2000/svg" fill="none" aria-hidden="true" viewBox="0 0 48 48"><path fill="#563D7C" d="M6 37.358A4.642 4.642 0 0 0 10.642 42h26.716A4.642 4.642 0 0 0 42 37.358V10.642A4.642 4.642 0 0 0 37.358 6H10.642A4.642 4.642 0 0 0 6 10.642v26.716Z"/><path fill="#fff" d="M20.929 21.924v-5.098h4.487c.428 0 .84.036 1.237.107a3.09 3.09 0 0 1 1.053.381c.305.184.55.438.733.764.183.325.274.742.274 1.251 0 .916-.274 1.578-.824 1.985-.55.407-1.252.61-2.107.61H20.93Zm-4.793-8.822v21.796h10.562c.977 0 1.929-.122 2.855-.366a7.632 7.632 0 0 0 2.473-1.13 5.563 5.563 0 0 0 1.724-1.969c.428-.803.641-1.755.641-2.854 0-1.363-.33-2.529-.992-3.495-.661-.967-1.664-1.644-3.007-2.03.977-.468 1.715-1.069 2.213-1.801.5-.733.748-1.649.748-2.748 0-1.018-.168-1.872-.503-2.564a4.189 4.189 0 0 0-1.42-1.664c-.61-.417-1.343-.717-2.198-.9-.855-.184-1.801-.275-2.839-.275H16.136Zm4.793 18.072v-5.983h5.22c1.038 0 1.872.239 2.503.717s.947 1.277.947 2.396c0 .57-.097 1.038-.29 1.405a2.303 2.303 0 0 1-.779.87 3.296 3.296 0 0 1-1.13.458 6.402 6.402 0 0 1-1.343.137H20.93Z"/></svg>