<svg xmlns="http://www.w3.org/2000/svg" fill="none" aria-hidden="true" viewBox="0 0 48 48"><path fill="#563D7C" d="M6 37.358A4.642 4.642 0 0 0 10.642 42h26.716A4.642 4.642 0 0 0 42 37.358V10.642A4.642 4.642 0 0 0 37.358 6H10.642A4.642 4.642 0 0 0 6 10.642v26.716Z"/><path fill="#fff" d="M20.928 21.924v-5.098h4.488c.427 0 .84.036 1.236.107.397.071.748.198 1.053.381.306.184.55.438.733.764.183.325.275.742.275 1.251 0 .916-.275 1.578-.824 1.985-.55.407-1.252.61-2.107.61h-4.854Zm-4.793-8.822v21.796h10.563c.977 0 1.928-.122 2.854-.366a7.632 7.632 0 0 0 2.473-1.13 5.563 5.563 0 0 0 1.725-1.969c.428-.803.641-1.755.641-2.854 0-1.363-.33-2.529-.992-3.495-.661-.967-1.664-1.644-3.007-2.03.977-.468 1.715-1.069 2.213-1.801.499-.733.748-1.649.748-2.748 0-1.018-.168-1.872-.504-2.564a4.188 4.188 0 0 0-1.42-1.664c-.61-.417-1.342-.717-2.197-.9-.855-.184-1.801-.275-2.84-.275H16.137Zm4.793 18.072v-5.983h5.22c1.039 0 1.873.239 2.504.717.63.478.946 1.277.946 2.396 0 .57-.096 1.038-.29 1.405a2.305 2.305 0 0 1-.778.87 3.296 3.296 0 0 1-1.13.458 6.402 6.402 0 0 1-1.343.137h-5.129Z"/></svg>