<svg xmlns="http://www.w3.org/2000/svg" fill="none" aria-hidden="true" viewBox="0 0 48 48"><path fill="#40D1F5" fill-rule="evenodd" d="M8 39.055h26.134v-3.976H11.976V12.921h22.169v14.546h-1.901l3.873 3.883L40 27.467h-1.89V8.945H8v30.11Zm10.078-23.69a21.77 21.77 0 0 1 1.777-.194c.678-.052 1.51-.072 2.517-.072.873 0 1.705.072 2.486.215.78.144 1.469.39 2.044.73.586.349 1.038.8 1.377 1.376.339.575.503 1.295.503 2.157 0 .514-.072.987-.226 1.428-.154.442-.36.822-.606 1.151a3.779 3.779 0 0 1-.863.812 2.255 2.255 0 0 1-.976.39c.37.051.77.164 1.223.339a4.034 4.034 0 0 1 2.198 2.106c.257.544.38 1.191.38 1.962 0 1.038-.195 1.89-.585 2.548a4.3 4.3 0 0 1-1.583 1.571c-.657.38-1.427.648-2.3.791-.874.144-1.788.216-2.743.216-.74 0-1.46-.02-2.178-.061a37.258 37.258 0 0 1-2.445-.227V15.366Zm3.472 14.609V24.99h1.438c.493 0 .945.041 1.356.124.411.082.76.215 1.058.42.298.196.524.463.678.792.154.328.237.74.237 1.232 0 .524-.103.956-.309 1.285a2.268 2.268 0 0 1-.79.77 3.082 3.082 0 0 1-1.028.37 6.38 6.38 0 0 1-1.058.092c-.236 0-.503-.01-.801-.02a11.57 11.57 0 0 1-.781-.082Zm1.058-7.613H21.55V17.76a7.034 7.034 0 0 1 1.13-.072c.318 0 .647.031.966.082.328.062.626.165.883.34.267.164.483.4.647.698.165.298.247.678.247 1.14 0 .483-.072.873-.216 1.192a1.849 1.849 0 0 1-.596.74 2.312 2.312 0 0 1-.904.38 5.963 5.963 0 0 1-1.099.102Z" clip-rule="evenodd"/></svg>