<svg xmlns="http://www.w3.org/2000/svg" fill="none" aria-hidden="true" viewBox="0 0 48 48"><path fill="url(#a)" d="m39.59 13.641.889-2.325s-1.163-1.299-2.599-2.735c-1.435-1.436-4.444-.615-4.444-.615L30.017 4H17.983l-3.419 3.966s-3.008-.82-4.444.615a76.333 76.333 0 0 0-2.598 2.735l1.025 2.325-1.162 3.419s3.419 13.265 3.829 14.906c.82 3.213 1.367 4.444 3.555 6.017a419.878 419.878 0 0 0 6.975 4.855C22.427 43.248 23.248 44 24 44c.752 0 1.573-.752 2.257-1.162.683-.41 4.786-3.214 6.974-4.855 2.188-1.641 2.803-2.872 3.555-6.017.41-1.641 3.83-14.906 3.83-14.906l-1.026-3.42Z"/><path fill="#fff" d="M24.069 28.889c.205 0 1.709.547 2.871 1.162 1.163.616 2.052 1.026 2.325 1.231.274.205.137.479-.137.684-.273.205-3.555 2.803-3.897 3.077-.342.273-.82.752-1.094.752-.274 0-.82-.479-1.094-.752-.342-.274-3.624-2.94-3.898-3.077-.273-.205-.41-.479-.136-.684.273-.205 1.094-.615 2.325-1.23 1.025-.684 2.53-1.163 2.735-1.163Zm0-18.735c.136 0 .752.068 1.64.342 1.026.342 2.052.752 2.599.752.547 0 4.24-.752 4.24-.752s4.375 5.401 4.375 6.564c0 1.162-.547 1.436-1.094 2.051-.547.616-3.008 3.214-3.282 3.556-.342.341-.957.82-.547 1.777.41.89.958 2.12.342 3.283-.615 1.162-1.71 1.982-2.393 1.846-.684-.137-2.325-1.026-2.872-1.368-.615-.41-2.461-1.983-2.461-2.598 0-.616 1.914-1.71 2.324-1.915.342-.273 1.983-1.23 2.052-1.572 0-.342 0-.479-.479-1.436s-1.368-2.188-1.23-3.009c.136-.82 1.572-1.23 2.53-1.64 1.025-.411 2.94-1.095 3.145-1.232.273-.136.205-.205-.548-.273-.752-.069-2.803-.342-3.76-.069-.957.274-2.53.684-2.667.89-.137.204-.273.273-.137 1.025.137.752.82 4.308.89 4.923.068.616.204 1.026-.48 1.23-.683.138-1.777.411-2.187.411-.41 0-1.505-.273-2.188-.41-.684-.137-.547-.547-.48-1.23.07-.616.753-4.172.89-4.924.136-.752 0-.752-.137-.957-.137-.205-1.71-.616-2.667-.89-.957-.273-3.008 0-3.76.07-.752.068-.82.204-.547.273.273.136 2.188.82 3.145 1.23 1.026.41 2.393.821 2.53 1.642.137.82-.752 2.05-1.23 3.008-.48.957-.48 1.026-.48 1.436 0 .342 1.642 1.3 2.052 1.573.342.273 2.325 1.367 2.325 1.914 0 .616-1.915 2.188-2.462 2.598-.615.41-2.188 1.231-2.872 1.368-.683.137-1.778-.684-2.393-1.846-.615-1.163-.068-2.393.342-3.282.41-.89-.274-1.436-.547-1.778-.342-.342-2.735-2.94-3.282-3.555-.547-.616-1.094-.89-1.094-2.052s4.376-6.564 4.376-6.564 3.692.752 4.24.752c.546 0 1.572-.41 2.598-.752.888-.41 1.504-.41 1.64-.41Z"/><path fill="url(#b)" d="m33.505 8.034-3.42-3.966H18.053l-3.42 3.966s-3.008-.82-4.444.616c0 0 4.035-.342 5.402 1.914 0 0 3.692.752 4.24.752.547 0 1.572-.41 2.598-.752 1.025-.342 1.64-.342 1.64-.342s.685 0 1.642.342c1.025.342 2.051.752 2.598.752.547 0 4.24-.752 4.24-.752C33.916 8.308 37.95 8.65 37.95 8.65c-1.436-1.505-4.444-.616-4.444-.616Z"/><defs><linearGradient id="a" x1="7.373" x2="40.739" y1="23.998" y2="23.998" gradientUnits="userSpaceOnUse"><stop stop-color="#F50"/><stop offset=".41" stop-color="#F50"/><stop offset=".582" stop-color="#FF2000"/><stop offset="1" stop-color="#FF2000"/></linearGradient><linearGradient id="b" x1="10.832" x2="37.93" y1="7.653" y2="7.653" gradientUnits="userSpaceOnUse"><stop stop-color="#FF452A"/><stop offset="1" stop-color="#FF2000"/></linearGradient></defs></svg>