<svg xmlns="http://www.w3.org/2000/svg" fill="none" aria-hidden="true" viewBox="0 0 48 48"><path fill="#94C039" fill-rule="evenodd" d="m30.968 24.585-.026.217-.07.191-1.654 2.87-1.937 3.348-.152.252-.19.208-.209.19-.216.148-.278.13-.247.087-.304.07-.279.026h-7.192l-.152-.027-.152-.034-.127-.096-.12-.086-.095-.096-.062-.156-.058-.156v-.338l.089-.182 1.874-3.287 1.69-2.966.158-.217.184-.217.215-.182.246-.182.242-.122.279-.095.278-.06h7.658l.113.06.156.06.095.087.122.13.06.122.035.156.026.147Zm0-2.523-.026-.217-.07-.19-1.654-2.88-1.937-3.365-.152-.217-.19-.217-.209-.19-.216-.157-.278-.121-.247-.096-.304-.06-.279-.026h-7.192l-.152.026-.152.034-.127.061-.12.087-.095.13-.062.156-.058.121v.373l.089.183 1.874 3.278 1.69 2.975.158.216.184.217.215.182.246.157.242.121.279.095.278.061.305.026H30.2l.161-.026.113-.034.156-.061.095-.096.122-.121.06-.121.035-.148.026-.156Z" clip-rule="evenodd"/><path fill="#D4247B" fill-rule="evenodd" d="m42 24.56-.026.216-.096.191-1.639 2.88-1.943 3.347-.156.252-.182.216-.217.182-.216.157-.287.13-.268.087-.278.069-.312.026h-7.198l-.157-.026-.154-.035-.127-.095-.121-.087-.09-.095-.095-.157-.03-.156-.033-.156.032-.19.095-.183 1.885-3.287 1.7-2.974.147-.217.191-.217.217-.182.243-.182.252-.122.277-.095.278-.06h7.692l.121.06.156.06.096.087.087.13.095.122.034.156.027.147Zm-13.625 9.513.032.191.095.19 1.636 2.88 1.949 3.374.147.251.191.182.217.191.243.19.252.122.277.087.277.06h7.693l.122-.06.156-.06.095-.096.087-.121.095-.122.035-.156.026-.156-.026-.217-.095-.156-1.883-3.313-1.7-2.949-.155-.242-.183-.217-.216-.19-.217-.148-.286-.122-.27-.095-.277-.07-.312-.026h-7.198l-.157.026-.154.035-.127.095-.121.087-.09.13-.095.122-.03.156-.033.147Z" clip-rule="evenodd"/><path fill="#069BB3" fill-rule="evenodd" d="m16.697 16.034 3.587 6.27.127.244.09.286.063.312v.546l-.063.287-.09.268-.127.252-1.732 2.931-1.887 3.279-.121.147-.185.121-.121.07-.154.026h-.157l-.154-.026-.126-.035-.154-.087-.09-.095-.095-.121-3.587-6.27-.153-.287-.095-.269-.027-.277-.03-.278.03-.304.059-.286.095-.243.121-.251 1.95-3.374 1.67-2.836.12-.19.153-.122.16-.06.153-.035h.157l.123.034.152.061.122.07.126.12.09.122Zm-6.492-9.74-.153.131-.127.156-1.67 2.87-1.949 3.34-.121.277-.095.243-.058.286-.032.278.032.303.058.278.095.277.121.287 3.587 6.235.095.156.122.087.127.096.126.034.154.026h.153l.153-.026.153-.06.16-.122.12-.156 1.887-3.278 1.732-2.932.127-.286.09-.243.063-.277v-.59l-.064-.278-.089-.277-.127-.278-3.587-6.244-.09-.147-.126-.096-.127-.095-.153-.026-.122-.035h-.153l-.154.035-.158.052Z" clip-rule="evenodd"/></svg>