<svg xmlns="http://www.w3.org/2000/svg" fill="none" aria-hidden="true" viewBox="0 0 48 48"><path fill="#F5BB60" d="M24.02 42C33.95 42 42 33.95 42 24.02S33.95 6.038 24.02 6.038s-17.98 8.05-17.98 17.98S14.09 42 24.02 42Z"/><path fill="#E86F32" d="M22.186 38.373c8.94 0 16.187-7.247 16.187-16.187C38.373 13.246 31.126 6 22.186 6 13.246 6 6 13.247 6 22.186c0 8.94 7.247 16.187 16.186 16.187Z"/><path fill="#E53D42" d="M24.332 34.082c7.754 0 14.04-6.286 14.04-14.04C38.373 12.285 32.087 6 24.333 6 16.577 6 10.29 12.286 10.29 20.041c0 7.755 6.287 14.041 14.042 14.041Z"/><path fill="#BFD141" d="M25.463 34.082c7.13 0 12.91-5.78 12.91-12.91s-5.78-12.91-12.91-12.91-12.91 5.78-12.91 12.91 5.78 12.91 12.91 12.91Z"/><path fill="#6DB64C" d="M24.527 34.082c6.613 0 11.974-5.36 11.974-11.974 0-6.613-5.361-11.974-11.974-11.974s-11.974 5.361-11.974 11.974 5.36 11.974 11.974 11.974Z"/><path fill="#AFDBE7" d="M22.616 30.299c5.557 0 10.062-4.505 10.062-10.063 0-5.557-4.505-10.063-10.062-10.063-5.558 0-10.063 4.506-10.063 10.063 0 5.558 4.505 10.063 10.063 10.063Z"/><path fill="#57BADF" d="M24.253 26.984a8.425 8.425 0 1 0 0-16.85 8.425 8.425 0 0 0 0 16.85Z"/><path fill="#02B2D6" d="M25.307 27.023a7.41 7.41 0 1 0 0-14.821 7.41 7.41 0 0 0 0 14.82Z"/><path fill="url(#a)" d="M24.215 26.984a6.319 6.319 0 1 0 0-12.637 6.319 6.319 0 0 0 0 12.637Z"/><path fill="#231F20" d="M24.215 26.984a6.319 6.319 0 1 0 0-12.637 6.319 6.319 0 0 0 0 12.637Z"/><path fill="#fff" d="M25.874 19.837c.626.281 1.49-.284 1.93-1.263.439-.979.287-2-.34-2.282-.626-.28-1.49.285-1.93 1.264-.438.979-.287 2 .34 2.281Z"/><defs><radialGradient id="a" cx="0" cy="0" r="1" gradientTransform="translate(24.232 20.666) scale(6.33354)" gradientUnits="userSpaceOnUse"><stop stop-color="#797979"/><stop offset="1" stop-color="#4C4C4C"/></radialGradient></defs></svg>