<svg xmlns="http://www.w3.org/2000/svg" fill="none" aria-hidden="true" viewBox="0 0 48 48"><path fill="#222" d="M24.89 42h-1.774c-.065-.013-.13-.03-.195-.039-.81-.103-1.63-.155-2.428-.316-3.93-.795-7.277-2.665-9.907-5.691-4.08-4.693-5.452-10.137-4.035-16.182C8.401 11.89 15.35 6.296 23.413 6.038c.176-.005.352-.025.528-.038h.165c.059.01.117.031.176.031a16.3 16.3 0 0 1 3.353.36c3.976.84 7.332 2.774 9.973 5.858 3.396 3.964 4.802 8.58 4.274 13.775a17.02 17.02 0 0 1-1.715 5.898c-1.834 3.687-4.605 6.443-8.295 8.266a17.39 17.39 0 0 1-6.23 1.733c-.252.022-.502.052-.752.079ZM14.043 23.72c.382-.388.533-.66.542-1.022a18.5 18.5 0 0 0 0-1.154c-.025-.688-.437-1.19-1.118-1.271-.542-.065-1.096-.047-1.644-.037-.25.005-.425.233-.425.5-.003 2.07-.003 4.138 0 6.206 0 .297.214.498.516.502.453.004.907.01 1.36-.001.88-.021 1.511-.67 1.514-1.548v-.886c.002-.567-.201-1.017-.745-1.29Zm10.189-.49v-2.483c0-.387-.194-.602-.543-.604-.354-.003-.555.208-.555.591v6.207c0 .38.205.59.56.586.34-.003.537-.219.537-.589v-2.655h1.211v.256c0 .804-.001 1.608.001 2.412.002.367.204.576.55.576.35.001.547-.206.547-.575v-6.248c0-.286-.136-.48-.376-.546-.386-.105-.717.134-.72.534-.005.763-.001 1.526-.002 2.288v.25h-1.21Zm-3.97 2.61.15.025c.946.142 1.663-.347 1.783-1.241.04-.298.01-.604.017-.906.007-.3-.015-.59-.24-.837.088-.012.155-.017.22-.03.337-.064.47-.252.42-.586-.042-.284-.19-.38-.54-.352-.04.004-.08.011-.122.015-.476.052-.952.12-1.43.149-.662.04-1.167.448-1.279 1.102-.045.268-.03.547-.044.82-.029.556.02 1.088.452 1.512-.276.199-.448.436-.473.761-.025.331.085.604.38.796l-.129.09c-.385.265-.532.637-.468 1.09.061.442.337.716.749.842.62.19 1.253.215 1.855-.044.26-.113.522-.298.695-.52.662-.85.182-2.06-.854-2.185-.285-.034-.576-.007-.865-.014-.331-.007-.425-.164-.276-.488Zm15.182-3.371c-.104-.087-.171-.157-.251-.208a1.151 1.151 0 0 0-1.159-.068c-.363.17-.502.5-.505.878a178.328 178.328 0 0 0 0 3.462c.008.642.468 1.053 1.11 1.035.348-.01.605-.188.821-.475.072.229.188.39.416.43.376.063.623-.147.624-.541.003-1.181.002-2.363.002-3.544 0-.914-.002-1.827 0-2.74 0-.206-.052-.383-.24-.491-.381-.219-.815.026-.817.464-.002.589 0 1.178 0 1.798Zm-18.04 4.62c.019.058.026.085.036.11.107.266.314.375.612.323.233-.04.361-.215.365-.497v-4.369c-.001-.348-.194-.536-.536-.534-.333.002-.52.195-.52.553-.002 1.181 0 2.363-.003 3.544 0 .079 0 .183-.047.232a.483.483 0 0 1-.511.126c-.17-.049-.234-.178-.244-.343-.006-.102-.013-.205-.013-.308l-.001-3.236c0-.373-.183-.567-.525-.568-.347 0-.53.19-.53.56-.002 1.257-.004 2.514 0 3.77.002.752.427 1.155 1.164 1.115.325-.017.572-.174.753-.479Zm11.08-1.953h1.4c.294-.002.44-.146.444-.445.003-.412.009-.824-.002-1.236-.02-.793-.55-1.348-1.3-1.374-.947-.033-1.535.4-1.577 1.264a37.453 37.453 0 0 0-.01 2.986c.019.64.392 1.058.96 1.185.178.04.367.05.55.05.845 0 1.377-.553 1.352-1.394-.01-.31-.182-.48-.492-.485-.328-.005-.497.156-.509.484-.001.04 0 .082-.004.123-.026.262-.165.399-.406.402-.236.003-.394-.138-.403-.4-.014-.377-.004-.754-.004-1.16Zm3.597-2.51c-.041-.222-.11-.398-.332-.453-.387-.095-.654.109-.656.508-.003.672 0 1.345 0 2.017 0 .755-.002 1.51 0 2.265 0 .305.125.49.365.552.386.1.69-.13.69-.53.002-1.187 0-2.374.001-3.561 0-.232.065-.288.297-.26.108.013.217.04.325.038.271-.002.44-.197.45-.507.013-.353-.128-.545-.419-.572-.379-.035-.527.064-.72.503Zm-19.594 3.86V24.25c.245 0 .485-.022.719.006.27.033.448.208.463.476.024.417.025.836.001 1.253-.015.27-.2.426-.468.47-.095.017-.19.025-.287.029-.136.004-.272 0-.428 0Zm.002-3.21v-2.102c.227.016.445.018.658.05.17.025.305.144.313.313.02.443.028.888.004 1.33-.012.216-.181.353-.403.379-.182.021-.366.02-.572.03Zm7.743.707c0-.193-.01-.386.002-.577.018-.287.191-.452.456-.457.28-.005.47.156.482.45.016.385.015.77.001 1.155-.01.293-.2.46-.476.458-.265-.003-.444-.169-.463-.452-.012-.192-.002-.385-.002-.577Zm.46 4.398c-.095-.012-.192-.016-.285-.037-.401-.088-.549-.49-.332-.897.086-.16.19-.274.402-.246.182.025.37.006.553.024.22.021.389.122.45.354.063.235-.005.496-.211.618-.171.101-.374.149-.563.22l-.014-.036Zm14.752-3.556v1.441c0 .238-.1.344-.354.382-.235.035-.41-.059-.472-.263a.863.863 0 0 1-.035-.242c-.002-.886-.004-1.771 0-2.657.002-.402.286-.594.646-.446.144.059.226.142.22.323-.014.486-.005.974-.005 1.462Zm-6.174-.536h-.778c0-.337-.016-.664.005-.989.015-.219.185-.34.396-.336.208.005.357.114.371.334.022.324.006.65.006.99Z"/><path fill="#6DB6D1" d="M37.932 26.24c.38-.002.637.248.642.623.004.388-.256.657-.635.656-.37 0-.628-.262-.63-.638-.002-.38.248-.638.623-.64Z"/></svg>