<svg xmlns="http://www.w3.org/2000/svg" fill="none" aria-hidden="true" viewBox="0 0 48 48"><path fill="#222" d="M24.89 42h-1.773c-.066-.013-.13-.03-.196-.039-.81-.103-1.63-.155-2.427-.316-3.931-.795-7.277-2.665-9.908-5.691-4.08-4.693-5.452-10.137-4.034-16.182C8.4 11.89 15.35 6.296 23.413 6.038c.177-.005.352-.025.528-.038h.165c.059.01.117.031.176.031a16.3 16.3 0 0 1 3.353.36c3.977.84 7.332 2.774 9.973 5.858 3.396 3.964 4.802 8.58 4.274 13.775a17.017 17.017 0 0 1-1.715 5.898c-1.834 3.687-4.604 6.443-8.295 8.266a17.389 17.389 0 0 1-6.23 1.733c-.252.022-.502.052-.752.079ZM14.044 23.72c.38-.388.533-.66.542-1.022.01-.384.013-.77 0-1.154-.026-.688-.437-1.19-1.119-1.271-.542-.065-1.096-.047-1.644-.037-.25.005-.425.233-.425.5a2104.48 2104.48 0 0 0 0 6.206c.001.297.215.498.516.502.453.004.907.01 1.36-.001.881-.021 1.512-.67 1.514-1.548v-.886c.002-.567-.201-1.017-.744-1.29Zm10.188-.49v-2.483c0-.387-.194-.602-.542-.604-.355-.003-.556.208-.556.591v6.207c0 .38.205.59.561.586.34-.003.536-.219.537-.589v-2.655h1.21v.256c0 .804 0 1.608.002 2.412 0 .367.204.576.55.576.349.001.546-.206.547-.575v-6.248c0-.286-.137-.48-.377-.546-.386-.105-.717.134-.72.534-.005.763-.001 1.526-.001 2.288v.25h-1.211Zm-3.97 2.61.15.025c.946.142 1.663-.347 1.783-1.241.04-.298.01-.604.017-.906.007-.3-.015-.59-.24-.837.088-.012.155-.017.22-.03.337-.064.471-.252.421-.586-.043-.284-.19-.38-.54-.352l-.122.015c-.477.052-.953.12-1.431.149-.661.04-1.167.448-1.278 1.102-.046.268-.03.547-.045.82-.029.556.02 1.088.452 1.512-.275.199-.447.436-.472.761-.026.331.084.604.38.796l-.13.09c-.384.265-.532.637-.468 1.09.062.442.337.716.749.842.62.19 1.253.215 1.855-.044a1.82 1.82 0 0 0 .695-.52c.662-.85.182-2.06-.854-2.185-.285-.034-.576-.007-.865-.014-.331-.007-.425-.164-.276-.488Zm15.183-3.371c-.104-.087-.172-.157-.252-.208a1.152 1.152 0 0 0-1.158-.068c-.364.17-.503.5-.506.878a177.536 177.536 0 0 0 0 3.462c.008.642.468 1.053 1.11 1.035.348-.01.606-.188.822-.475.071.229.187.39.416.43.375.063.623-.147.624-.541.003-1.181 0-2.363 0-3.544 0-.914 0-1.827.002-2.74 0-.206-.052-.383-.241-.491-.381-.219-.814.026-.816.464-.003.589-.001 1.178-.001 1.798Zm-18.041 4.62c.02.058.026.085.036.11.107.266.314.375.612.323.233-.04.361-.215.365-.497v-4.369c0-.348-.194-.536-.536-.534-.333.002-.52.195-.52.553-.002 1.181 0 2.363-.003 3.544 0 .079 0 .183-.047.232a.483.483 0 0 1-.51.126c-.17-.049-.235-.178-.244-.343a4.504 4.504 0 0 1-.013-.308c-.001-1.078 0-2.157-.002-3.236 0-.373-.183-.567-.525-.568-.347 0-.53.19-.53.56-.002 1.257-.004 2.514 0 3.77.003.752.428 1.155 1.164 1.115.326-.017.572-.174.753-.479Zm11.08-1.953h1.4c.295-.002.441-.146.444-.445.003-.412.01-.824-.001-1.236-.02-.793-.55-1.348-1.3-1.374-.947-.033-1.535.4-1.578 1.264a37.5 37.5 0 0 0-.01 2.986c.02.64.392 1.058.96 1.185.178.04.367.05.551.05.844 0 1.376-.553 1.35-1.394-.009-.31-.18-.48-.49-.485-.329-.005-.498.156-.51.484 0 .04 0 .082-.004.123-.026.262-.165.399-.406.402-.236.003-.394-.138-.403-.4-.013-.377-.003-.754-.003-1.16Zm3.598-2.51c-.042-.222-.11-.398-.333-.453-.386-.095-.654.109-.656.508-.003.672 0 1.345 0 2.017 0 .755-.002 1.51 0 2.265 0 .305.126.49.365.552.386.1.69-.13.69-.53.002-1.187.001-2.374.002-3.561 0-.232.064-.288.296-.26.109.013.217.04.326.038.27-.002.438-.197.45-.507.012-.353-.129-.545-.42-.572-.378-.035-.526.064-.72.503Zm-19.595 3.86V24.25c.246 0 .486-.022.72.006.27.033.447.208.462.476.024.417.025.836.001 1.253-.015.27-.199.426-.468.47a2.22 2.22 0 0 1-.286.029c-.136.004-.273 0-.429 0Zm.002-3.21v-2.102c.227.016.445.018.658.05.17.025.305.144.313.313.02.443.028.888.004 1.33-.011.216-.18.353-.402.379-.182.021-.367.02-.573.03Zm7.743.707c0-.193-.01-.386.002-.577.018-.287.191-.452.457-.457.28-.005.47.156.481.45.016.385.015.77.001 1.155-.01.293-.2.46-.476.458-.265-.003-.443-.169-.462-.452-.013-.192-.003-.385-.003-.577Zm.46 4.398c-.095-.012-.191-.016-.285-.037-.401-.088-.548-.49-.331-.897.085-.16.189-.274.4-.246.183.025.37.006.554.024.22.021.39.122.45.354.063.235-.004.496-.211.618-.17.101-.374.149-.562.22l-.015-.036Zm14.753-3.556v1.441c0 .238-.1.344-.355.382-.235.035-.41-.059-.471-.263a.856.856 0 0 1-.035-.242c-.003-.886-.004-1.771 0-2.657.001-.402.285-.594.646-.446.143.059.225.142.22.323-.015.486-.005.974-.005 1.462Zm-6.175-.536h-.778c0-.337-.016-.664.005-.989.015-.219.185-.34.396-.336.208.005.357.114.372.334.02.324.005.65.005.99Z"/><path fill="#6DB6D1" d="M37.933 26.24c.38-.002.637.248.64.623.005.388-.255.657-.633.656-.37 0-.629-.262-.631-.638-.002-.38.248-.638.624-.64Z"/></svg>