<svg xmlns="http://www.w3.org/2000/svg" fill="none" aria-hidden="true" viewBox="0 0 48 48"><path fill="#A179DC" d="M40.014 16.584c0-.605-.13-1.14-.392-1.6-.257-.45-.642-.829-1.159-1.128-4.264-2.459-8.532-4.91-12.795-7.371-1.15-.664-2.263-.64-3.404.033-1.697 1.001-10.195 5.87-12.727 7.336-1.043.604-1.55 1.528-1.55 2.729-.002 4.945 0 9.89-.002 14.834 0 .592.124 1.116.374 1.569.257.465.648.854 1.176 1.16 2.533 1.466 11.032 6.334 12.728 7.335 1.142.674 2.256.698 3.405.034 4.263-2.461 8.532-4.912 12.797-7.371.528-.306.919-.695 1.176-1.16.25-.452.374-.976.374-1.568l-.001-14.832Z"/><path fill="#280068" d="M24.05 23.952 8.36 32.986c.256.465.647.853 1.175 1.16 2.533 1.466 11.032 6.334 12.729 7.335 1.14.674 2.255.698 3.405.034 4.262-2.461 8.531-4.912 12.796-7.371.528-.306.919-.695 1.176-1.16L24.05 23.952Z"/><path fill="#390091" d="M40.014 16.584c0-.605-.13-1.14-.392-1.6L24.05 23.953l15.592 9.032c.25-.452.374-.976.374-1.569l-.001-14.831Z"/><path fill="#fff" d="M33.287 20.575v1.688h1.688v-1.689h.844v1.69h1.69v.843h-1.69v1.689h1.69v.844h-1.69v1.689h-.844V25.64h-1.688v1.689h-.845V25.64h-1.688v-.844h1.688v-1.689h-1.688v-.844h1.688v-1.689h.845Zm1.688 2.532h-1.688v1.689h1.688v-1.689Z"/><path fill="#fff" d="M24.084 12.094a11.9 11.9 0 0 1 10.309 5.948l-.02-.035-5.182 2.984a5.925 5.925 0 0 0-5.04-2.92h-.067a5.929 5.929 0 1 0 5.166 8.836l-.025.043 5.174 2.998a11.902 11.902 0 0 1-10.183 5.957h-.133A11.901 11.901 0 0 1 12.179 24c0-6.575 5.33-11.906 11.905-11.906Z"/></svg>