<svg xmlns="http://www.w3.org/2000/svg" fill="none" aria-hidden="true" viewBox="0 0 48 48"><path fill="#D33C44" fill-rule="evenodd" d="M4 27.124c0 3.446 8.952 6.243 19.997 6.243v6.241C12.952 39.608 4 36.813 4 33.368v-6.244Zm40 0v6.242c0 1.471-1.636 2.821-4.36 3.889l-15.644-3.89v-6.241L39.64 31.01c2.724-1.066 4.361-2.416 4.36-3.887ZM23.997 8.392c11.046 0 20.003 2.8 20.003 6.243v6.248c0 1.466-1.636 2.821-4.358 3.884l-15.645-3.884v6.24C12.952 27.124 4 24.329 4 20.884v-6.248c0-3.443 8.952-6.243 19.997-6.243Z" clip-rule="evenodd"/></svg>