<svg xmlns="http://www.w3.org/2000/svg" fill="none" aria-hidden="true" viewBox="0 0 48 48"><path fill="#A1070C" d="M9.76 32.222 24 40.444l14.24-8.222V15.779L24 7.557 9.76 15.78v16.443ZM24 42 8.41 33V15L24 6l15.589 9v18l-15.59 9Z"/><path fill="url(#a)" d="M9.578 15.674 24 7.347l14.422 8.326v16.654L24 40.654 9.578 32.327V15.674Z"/><path fill="#A1070C" d="M30.617 17.907a5.21 5.21 0 0 1-.387 1.95 7.199 7.199 0 0 1-1.04 1.794 7.602 7.602 0 0 1-1.504 1.446 5.799 5.799 0 0 1-1.769.891l-.27-.452c.36-.18.692-.413.993-.697.302-.284.56-.604.775-.962.215-.357.38-.736.497-1.136.116-.4.174-.807.174-1.22 0-.473-.069-.921-.206-1.343a3.235 3.235 0 0 0-.607-1.104 2.835 2.835 0 0 0-.988-.742c-.391-.18-.841-.271-1.349-.271-.62 0-1.188.12-1.704.361a4.942 4.942 0 0 0-1.395.975 6.634 6.634 0 0 0-1.078 1.408 9.714 9.714 0 0 0-.762 1.665 11.177 11.177 0 0 0-.458 1.762 9.817 9.817 0 0 0-.155 1.679c0 .534.056 1.084.168 1.652.112.569.276 1.128.49 1.679.216.55.483 1.072.801 1.562.319.49.687.921 1.104 1.291.418.37.882.665 1.395.885a4.2 4.2 0 0 0 1.672.329 4.37 4.37 0 0 0 1.207-.168 5.951 5.951 0 0 0 1.13-.452c.361-.19.703-.413 1.026-.671.323-.258.622-.538.897-.84l.426.414a9.974 9.974 0 0 1-1.349 1.44c-.52.46-1.082.869-1.685 1.226a9.202 9.202 0 0 1-1.891.852 6.382 6.382 0 0 1-1.956.316c-.629 0-1.22-.11-1.776-.329a5.857 5.857 0 0 1-1.53-.89 6.849 6.849 0 0 1-1.246-1.318 9.124 9.124 0 0 1-1.51-3.363 8.162 8.162 0 0 1-.2-1.769c0-.835.14-1.693.42-2.576a12.43 12.43 0 0 1 1.155-2.569 14.67 14.67 0 0 1 1.736-2.356 13.38 13.38 0 0 1 2.157-1.937 10.82 10.82 0 0 1 2.414-1.31 6.953 6.953 0 0 1 2.511-.485c.517 0 .999.076 1.446.226.448.151.835.368 1.162.652.327.284.586.637.775 1.06.19.42.284.903.284 1.445Z"/><defs><linearGradient id="a" x1="24" x2="24" y1="22.41" y2="40.654" gradientUnits="userSpaceOnUse"><stop stop-color="#F7F6F3"/><stop offset="1" stop-color="#FEF6D5"/></linearGradient></defs></svg>