<svg xmlns="http://www.w3.org/2000/svg" fill="none" aria-hidden="true" viewBox="0 0 48 48"><path fill="#2271CE" d="M29.409 30.571H18.593V11.133h10.816v19.438Z"/><path fill="#005EB6" d="M19.279 20.853a12.34 12.34 0 0 1 4.72-9.72 12.308 12.308 0 0 0-7.639-2.642C9.534 8.49 4 14.025 4 20.853c0 6.827 5.534 12.362 12.36 12.362 2.884 0 5.537-.988 7.64-2.644a12.34 12.34 0 0 1-4.721-9.718Z"/><path fill="#0099DF" d="M44 20.853c0 6.827-5.534 12.362-12.36 12.362-2.884 0-5.538-.988-7.64-2.644a12.341 12.341 0 0 0 4.721-9.718c0-3.943-1.846-7.456-4.721-9.72a12.308 12.308 0 0 1 7.64-2.642C38.465 8.49 44 14.025 44 20.853Z"/><path fill="#231F20" d="M32.39 36.404c-.343-.227-.817-.344-1.338-.344-.831 0-1.367.399-1.367 1.051 0 .535.399.865 1.133.968l.337.048c.39.055.576.158.576.343 0 .255-.26.398-.748.398-.495 0-.851-.157-1.092-.343l-.336.556c.391.289.886.426 1.42.426.949 0 1.498-.446 1.498-1.07 0-.578-.432-.88-1.147-.983l-.336-.048c-.309-.041-.556-.103-.556-.322 0-.24.233-.385.624-.385.42 0 .825.158 1.024.282l.309-.577Zm-16.863 1.38c0 .995.694 1.723 1.751 1.723.495 0 .824-.11 1.18-.391l-.343-.577a1.438 1.438 0 0 1-.858.296c-.57-.008-.988-.42-.988-1.051 0-.632.418-1.044.988-1.051.31 0 .591.103.858.296l.344-.577c-.357-.282-.686-.392-1.18-.392-1.058 0-1.752.728-1.752 1.724Zm6.884-1.724c-.412 0-.68.193-.865.481v-.398h-.707v3.282h.714v-1.84c0-.543.233-.845.7-.845.145 0 .295.02.446.083l.22-.673a1.515 1.515 0 0 0-.508-.09Zm2.652 0c-.412 0-.68.193-.865.481v-.398h-.707v3.282h.714v-1.84c0-.543.233-.845.7-.845.144 0 .295.02.446.083l.22-.673a1.515 1.515 0 0 0-.508-.09Zm-5.003 3.363h-.718v-3.277h.718v3.277Zm-.363-4.915a.496.496 0 0 1 .466.308.49.49 0 0 1 .04.198.495.495 0 0 1-.506.5.518.518 0 0 1-.358-.142.518.518 0 0 1-.141-.358.524.524 0 0 1 .141-.359.492.492 0 0 1 .358-.147Zm9.416 3.527c0 .26-.044.483-.128.67a1.297 1.297 0 0 1-.818.72 1.869 1.869 0 0 1-1.108 0 1.279 1.279 0 0 1-.82-.72 1.624 1.624 0 0 1-.126-.67v-1.889h.71v1.824c0 .157.02.291.06.402.04.11.097.2.167.268a.632.632 0 0 0 .252.15 1.039 1.039 0 0 0 .621-.001.62.62 0 0 0 .252-.149.701.701 0 0 0 .167-.268c.041-.11.06-.245.06-.402v-1.824h.71v1.889Z"/></svg>