<svg xmlns="http://www.w3.org/2000/svg" fill="none" aria-hidden="true" viewBox="0 0 48 48"><path fill="#005463" d="M25.5 6.488a2.652 2.652 0 0 0-1.457-.485 2.61 2.61 0 0 0-2.726 2.611A2.652 2.652 0 1 0 25.5 6.488Zm-1.744 24.609c.073-.08.146-.163.223-.249l.16.17c.093.097.17.178.243.262 2.862 3.28 5.717 6.568 8.566 9.86.457.529 1 1.014 1.689.805a2.66 2.66 0 0 0 1.367-1.02c.413-.644.119-1.327-.375-1.893-2.934-3.372-5.866-6.745-8.796-10.12a10.084 10.084 0 0 1-.39-.485l-.17-.218c.07-.082.13-.154.184-.22.104-.125.188-.226.275-.326 2.932-3.371 5.863-6.746 8.791-10.122.84-.968.854-1.998.053-2.67-.786-.657-1.812-.478-2.638.468a596.571 596.571 0 0 0-1.759 2.024l-7.19 8.271-1.227-1.41-3.172-3.647c-1.574-1.803-3.142-3.61-4.706-5.421a1.733 1.733 0 0 0-1.857-.614c-.68.177-1.186.682-1.162 1.343.035.615.261 1.205.647 1.685a831.201 831.201 0 0 0 6.448 7.469l2.264 2.605c.112.13.217.266.326.408l.155.2-.284.331-.653.757a8575.22 8575.22 0 0 0-8.343 9.594c-.816.94-.83 1.885-.058 2.605.78.726 1.791.59 2.63-.374l8.341-9.596c.136-.156.273-.31.418-.472Z"/></svg>