<svg xmlns="http://www.w3.org/2000/svg" fill="none" aria-hidden="true" viewBox="0 0 48 48"><path fill="#0071CE" d="M38.16 36.169a1.212 1.212 0 0 1-.377-2.363c2.305-.755 3.794-2.774 3.794-5.146a5.454 5.454 0 0 0-5.448-5.449c-.209 0-.433.017-.706.052l-1.185.154-.17-1.183c-.728-5.071-5.146-8.896-10.276-8.896-4.242 0-8.018 2.54-9.619 6.47l-.301.739-.798.014c-3.667.068-6.65 3.105-6.65 6.77 0 2.675 1.553 5.116 3.957 6.216a1.211 1.211 0 0 1-1.008 2.203C6.109 34.256 4 30.952 4 27.33c0-4.71 3.63-8.658 8.242-9.142a12.757 12.757 0 0 1 11.55-7.272c5.951 0 11.125 4.172 12.466 9.874 4.28.07 7.742 3.573 7.742 7.87 0 3.386-2.196 6.379-5.463 7.448-.125.041-.252.06-.377.06Z"/><path fill="#DC8327" d="M19.627 36.693h-.001v-.001h-.001l-.001-.001h-.001v-.001h-.002v-.001h-.002v-.001h-.001v-.001h-.002l-.002-.001h-.002v-.001h-.001a.205.205 0 0 0-.06-.012h-.008a.958.958 0 0 1-.956-.949V25.079h.816c.125.005.21-.09.21-.205a.205.205 0 0 0-.128-.19l-3.914-2.702a.205.205 0 0 0-.233 0l-3.945 2.723a.205.205 0 0 0 .116.374h.816v10.648a1.37 1.37 0 0 0 1.374 1.357h5.847a.206.206 0 0 0 .138-.057l.002-.002h.001v-.001h.001v-.001h.001v-.001h.001v-.001a.204.204 0 0 0 .058-.141v-.004a.207.207 0 0 0-.12-.183Z"/><path fill="#F4B21B" d="M28.082 36.693h-.002v-.001h-.001v-.001h-.001l-.001-.001h-.002v-.001h-.001l-.001-.001h-.001v-.001h-.003v-.001h-.002v-.001h-.001l-.001-.001a.2.2 0 0 0-.06-.012h-.01a.957.957 0 0 1-.955-.949v-8.26h.824a.205.205 0 0 0 .077-.395l-3.914-2.702a.205.205 0 0 0-.233 0L19.85 27.09a.205.205 0 0 0 .117.373h.812v8.265a1.37 1.37 0 0 0 1.373 1.357H28a.206.206 0 0 0 .138-.057l.002-.002.001-.001.001-.001.001-.001.001-.001a.204.204 0 0 0 .058-.142v-.002a.207.207 0 0 0-.121-.184Z"/><path fill="#F2D864" d="M36.559 36.693h-.002v-.001h-.001v-.001h-.001l-.001-.001h-.001v-.001h-.002l-.001-.001h-.001v-.001h-.003v-.001h-.001l-.002-.001-.001-.001a.202.202 0 0 0-.06-.012h-.01.001a.957.957 0 0 1-.955-.949v-5.878h.818a.208.208 0 0 0 .209-.204.205.205 0 0 0-.127-.19l-3.915-2.702a.205.205 0 0 0-.233 0l-3.945 2.723a.205.205 0 0 0 .116.373h.814v5.882a1.37 1.37 0 0 0 1.373 1.357h5.848a.205.205 0 0 0 .138-.057l.002-.002h.001v-.001h.001v-.001h.001v-.001h.001v-.001a.204.204 0 0 0 .058-.142v-.002a.206.206 0 0 0-.12-.184Z"/></svg>