<svg xmlns="http://www.w3.org/2000/svg" fill="none" aria-hidden="true" viewBox="0 0 48 48"><g fill-rule="evenodd" clip-rule="evenodd"><path fill="#fff" d="M24 45c11.598 0 21-9.402 21-21S35.598 3 24 3 3 12.402 3 24s9.402 21 21 21Z"/><path fill="#1848F7" d="M12.976 41.877C6.99 38.177 3 31.555 3 24 3 12.402 12.402 3 24 3s21 9.402 21 21-9.402 21-21 21a21.55 21.55 0 0 1-1.654-.064l2.066-5.676c.713-1.959 2.725-3.069 3.75-4.812.916-1.557 3.705-6.236 3.733-6.284a82.074 82.074 0 0 0 2.06-3.145l3.098-5.032c.567-.92.61-2.075.096-2.573-.683-.659-1.732.053-2.193.637-1.664 2.32-3.391 4.368-5.226 6.503-.278.325-.994.83-.875-.137.01-.048.555-2.34-.89-2.95l-.064-.024c-.781-.284-1.403.204-2.094 1.026-.276.328-.763-.03-.68-.398.247-1.102-.208-2.133-1.08-2.45l-.068-.023c-1.158-.371-1.964 1.299-2.797.996-.41-.15-.365-1.256-.403-1.584-.328-2.885-.06-5.712.11-8.604.024-.836-.487-1.923-1.462-1.8-.831.108-1.545 1.05-1.626 2.146L17.25 16.5c-.11 1.485.692 5.862-.713 6.831-1.34.944-2.872 2.063-2.93 3.829-.102 2.775 2.457 6.234 1.567 8.678l-2.198 6.04Z"/></g></svg>