<svg xmlns="http://www.w3.org/2000/svg" fill="none" aria-hidden="true" viewBox="0 0 48 48"><path fill="#264DE4" d="M23.984 42 13.57 39.108l-2.321-26.033h25.504l-2.323 26.03L23.984 42Z"/><path fill="#2965F1" d="m32.44 37.447 1.985-22.244H24v24.584l8.44-2.34Z"/><path fill="#EBEBEB" d="m16.568 24.859.287 3.193H24v-3.193h-7.432Zm-.574-6.463.29 3.193H24v-3.192h-8.006ZM24 33.151l-.014.004-3.556-.96-.227-2.547h-3.205l.447 5.014 6.54 1.815.015-.004v-3.322Z"/><path fill="#000" d="M17.25 6h3.867v1.617h-2.25v1.617h2.25v1.618H17.25V6Zm4.64 0h3.868v1.406h-2.25v.282h2.25v3.234H21.89V9.445h2.25v-.28h-2.25V6Zm4.641 0h3.867v1.406h-2.25v.282h2.25v3.234h-3.867V9.445h2.25v-.28h-2.25V6Z"/><path fill="#fff" d="m31.41 24.859.577-6.463H23.99v3.193h4.499l-.29 3.27h-4.21v3.193h3.933l-.371 4.14-3.561.962v3.322l6.545-1.814.049-.54.75-8.406.078-.857Z"/></svg>