<svg xmlns="http://www.w3.org/2000/svg" fill="none" aria-hidden="true" viewBox="0 0 48 48"><path fill="#00D2B8" d="m15.8 15.8-2.327-2.326.01 16.819.028.786c.011.37.08.787.194 1.22l18.437 6.5 4.608-2.041.002-.006L15.8 15.801Z"/><path fill="#55DDCA" d="M13.705 32.299h.001c0-.007-.005-.015-.005-.023 0 .008.001.015.004.023Zm23.045 4.459L32.142 38.8l-18.436-6.5c.353 1.351 1.132 2.87 1.971 3.7l6.017 5.983L35.07 42l1.681-5.248-.002.006Z"/><path fill="#0081C6" d="M6.307 24.297c-.595.636-.3 1.948.66 2.914l4.137 4.172 2.601.916a5.55 5.55 0 0 1-.194-1.22l-.028-.786-.01-16.819-7.166 10.823Z"/><path fill="#0079B3" d="M32.293 13.69a5.754 5.754 0 0 0-1.223-.19l-.831-.03-16.766.003 23.281 23.28h.002l2.045-4.614-6.508-18.449Z"/><path fill="#00A4E4" d="m32.272 13.685.022.006v-.001l-.022-.005Zm3.72 1.98c-.846-.852-2.344-1.626-3.698-1.974L38.8 32.139l-2.045 4.613h-.002l4.997-1.596.01-13.699-5.77-5.792Z"/><path fill="#00D2B8" d="m31.382 11.104-4.17-4.14c-.965-.955-2.277-1.252-2.911-.658l-10.828 7.167 16.766-.002.83.028c.377.012.792.08 1.224.191l-.911-2.586Z"/></svg>