<svg xmlns="http://www.w3.org/2000/svg" fill="none" aria-hidden="true" viewBox="0 0 48 48"><path fill="#0083CA" fill-rule="evenodd" d="m22.518 18.84-.45-.295c-.629.404-1.256.81-1.884 1.216a344.06 344.06 0 0 1-3.553 2.28c-.43-1.304-1.358-2.352-2.667-2.76-.923-.287-2.068-.25-3.252-.21-.714.023-1.442.047-2.144 0v8.783a28.308 28.308 0 0 1 2.125.007c.745.021 1.465.041 2.137-.007 2.079-.15 3.335-1.414 3.864-3.096.89.583 1.766 1.18 2.641 1.778.92.628 1.839 1.256 2.775 1.866.602-.385 1.208-.78 1.815-1.175 1.163-.758 2.33-1.517 3.476-2.216v2.843h5.942v-2.801c-.351-.005-.71-.003-1.07 0-.586.005-1.172.01-1.722-.021v-5.96H27.4v2.99l-1.167.75c-1.039.67-2.078 1.338-3.137 1.988a6.21 6.21 0 0 0-.255-.155c-.152-.09-.304-.179-.437-.287.595-.386 1.184-.779 1.773-1.17.804-.536 1.607-1.07 2.426-1.59a24.277 24.277 0 0 0-1.848-1.242c-1.307.84-2.62 1.673-3.933 2.507l-.33.21a5.43 5.43 0 0 0-.335-.232 5.42 5.42 0 0 1-.336-.231c.587-.375 1.17-.754 1.753-1.132.819-.532 1.638-1.063 2.467-1.585a25.966 25.966 0 0 0-1.524-1.053ZM11.57 25.053v-3.16c-.001-.03-.003-.06.021-.063.91-.058 1.565.036 1.953.485.582.672.449 1.934-.21 2.443-.4.309-.903.303-1.548.297l-.216-.002Z" clip-rule="evenodd"/><path fill="#0083CA" d="M37.311 19.071h-3.149c-.024.004-.023.033-.021.063v8.72h5.942v-2.801H37.31V19.07Z"/><path fill="#0083CA" fill-rule="evenodd" d="M24.65 3h-1.3c-6.29.347-10.852 2.777-14.194 6.13-3.327 3.337-5.814 7.841-6.13 14.196.003.024-.005.037-.022.042v1.264c.33 6.379 2.805 10.837 6.152 14.217 3.347 3.381 7.862 5.792 14.193 6.15h1.28c6.458-.318 10.735-2.823 14.215-6.128 3.312-3.48 5.83-7.758 6.152-14.24v-1.263c-.33-6.379-2.805-10.837-6.152-14.217C35.497 5.77 30.983 3.357 24.65 3Zm-8.796 4.276a18.185 18.185 0 0 1 3.38-1.264c1.257-.338 2.634-.52 4.094-.59 2.97-.142 5.744.52 7.874 1.412a18.06 18.06 0 0 1 5.606 3.686c3.127 3.021 5.496 6.983 5.773 12.827.147 3.085-.53 5.631-1.427 7.836-1.773 4.357-4.97 7.515-9.029 9.562-2.07 1.045-4.57 1.695-7.453 1.833a17.869 17.869 0 0 1-7.832-1.411c-4.357-1.848-7.506-4.889-9.574-9.016-1.047-2.09-1.71-4.541-1.847-7.456-.218-4.623 1.286-8.149 3.023-10.89 1.78-2.807 4.325-4.998 7.412-6.53Z" clip-rule="evenodd"/></svg>