<svg xmlns="http://www.w3.org/2000/svg" fill="none" aria-hidden="true" viewBox="0 0 48 48"><path fill="#5865F2" d="M22.492 23.139c0 1.11-.855 2.025-1.905 2.025s-1.905-.9-1.905-2.01c0-1.11.855-2.01 1.905-2.01s1.905.9 1.905 1.995Zm6.82 0c0 1.11-.854 2.025-1.904 2.025-1.05 0-1.905-.9-1.905-2.01 0-1.11.855-2.01 1.905-2.01s1.905.9 1.905 1.995Zm6.913 15.456-2.205-2.01-2.4-2.1 1.005 3.315h-21.06c-2.1 0-3.81-1.605-3.81-3.72V9.72c0-2.01 1.71-3.72 3.81-3.72H36.33c2.115 0 3.81 1.71 3.915 3.72V42l-4.02-3.405ZM27.1 14.535l-.03.015h.015l.015-.015Zm.015-.015-.015.015.045-.015h-.03Zm-.3.3c3.105.9 4.605 2.31 4.605 2.31-1.995-1.005-3.81-1.5-5.61-1.71-1.305-.195-2.61-.09-3.72 0h-.3c-.705 0-2.205.3-4.215 1.11-.69.3-1.095.495-1.095.495s1.5-1.5 4.815-2.295l-.21-.21s-2.505-.09-5.205 1.905c0 0-2.715 4.725-2.715 10.53 0 0 1.5 2.61 5.61 2.715 0 0 .6-.795 1.215-1.5-2.31-.705-3.21-2.115-3.21-2.115s.195.105.495.3h.09c.045 0 .075.03.09.045v.015c.03.015.045.045.09.045.495.195.99.405 1.395.6.705.3 1.605.6 2.7.795 1.395.21 3 .3 4.815 0 .9-.195 1.8-.39 2.7-.795.585-.3 1.305-.6 2.1-1.11 0 0-.9 1.41-3.3 2.115.495.69 1.185 1.5 1.185 1.5 4.11-.09 5.715-2.7 5.805-2.595 0-5.805-2.715-10.53-2.715-10.53-2.43-1.8-4.695-1.89-5.145-1.89l-.27.27Z"/></svg>