<svg xmlns="http://www.w3.org/2000/svg" fill="none" aria-hidden="true" viewBox="0 0 48 48"><path fill="#5865F2" d="M36.495 13.102a30.703 30.703 0 0 0-7.427-2.193c-.32.543-.693 1.274-.951 1.856a29.005 29.005 0 0 0-8.231 0 19.353 19.353 0 0 0-.963-1.856 30.599 30.599 0 0 0-7.433 2.198c-4.7 6.673-5.974 13.18-5.337 19.596a30.453 30.453 0 0 0 9.109 4.385 21.08 21.08 0 0 0 1.95-3.019 19.724 19.724 0 0 1-3.071-1.404c.257-.18.51-.367.753-.56 5.923 2.603 12.36 2.603 18.212 0 .246.193.498.38.753.56a19.68 19.68 0 0 1-3.078 1.407 20.98 20.98 0 0 0 1.951 3.019 30.393 30.393 0 0 0 9.115-4.388c.748-7.437-1.277-13.885-5.352-19.601ZM18.02 28.758c-1.778 0-3.237-1.56-3.237-3.46 0-1.898 1.427-3.46 3.237-3.46s3.267 1.559 3.236 3.46c.003 1.9-1.427 3.46-3.236 3.46Zm11.96 0c-1.778 0-3.236-1.56-3.236-3.46 0-1.898 1.427-3.46 3.236-3.46 1.81 0 3.268 1.559 3.237 3.46 0 1.9-1.428 3.46-3.237 3.46Z"/></svg>