<svg xmlns="http://www.w3.org/2000/svg" fill="none" aria-hidden="true" viewBox="0 0 48 48"><path fill="#2396ED" d="M41.257 20.924c-.81-.563-2.668-.773-4.12-.492-.17-1.406-.947-2.637-2.298-3.727l-.777-.562-.54.808c-.676 1.055-1.013 2.532-.912 3.938.034.492.203 1.37.71 2.144-.474.281-1.453.633-2.737.633H6.163l-.068.281c-.237 1.407-.237 5.8 2.533 9.176 2.094 2.566 5.202 3.867 9.289 3.867 8.85 0 15.402-4.254 18.476-11.953 1.216.035 3.817 0 5.134-2.636.034-.07.102-.212.338-.739l.135-.281-.743-.457ZM25.686 11.01H21.97v3.516h3.716V11.01Zm0 4.219H21.97v3.515h3.716V15.23Zm-4.391 0h-3.716v3.515h3.716V15.23Zm-4.392 0h-3.715v3.515h3.716V15.23Zm-4.39 4.218H8.796v3.516h3.715v-3.516Zm4.39 0h-3.715v3.516h3.716v-3.516Zm4.392 0h-3.716v3.516h3.716v-3.516Zm4.39 0H21.97v3.516h3.716v-3.516Zm4.392 0H26.36v3.516h3.716v-3.516Z"/></svg>