<svg xmlns="http://www.w3.org/2000/svg" fill="none" aria-hidden="true" viewBox="0 0 48 48"><path fill="#DE5833" d="M24 8.655c8.475 0 15.345 6.87 15.345 15.345 0 8.475-6.87 15.345-15.345 15.345-8.474 0-15.345-6.87-15.345-15.345 0-8.475 6.87-15.345 15.345-15.345Z"/><path fill="#DE5833" d="M24 42c9.941 0 18-8.059 18-18S33.941 6 24 6 6 14.059 6 24s8.059 18 18 18Zm0-1.5c-9.113 0-16.5-7.387-16.5-16.5S14.887 7.5 24 7.5 40.5 14.887 40.5 24 33.113 40.5 24 40.5Z"/><path fill="#D5D7D8" d="M16.525 13.64c-.003-.258.184-.403.434-.504a1.301 1.301 0 0 0-.322.091c-.26.118-.454.563-.452.774 1.26-.127 3.124-.04 4.487.367.1-.014.201-.028.303-.04-1.359-.603-2.975-.836-4.45-.688Zm.258-1.551.086-.014c-.272.034-.415.131-.62.165.222.02 1.062.411 1.59.627a.95.95 0 0 0 .195-.096c-.274-.04-.954-.655-1.25-.682Zm1.311 3.051a2.35 2.35 0 0 0-.21.092c-2.054 1.083-2.962 3.61-2.42 6.64.493 2.757 2.516 12.176 3.443 16.606.27.095.544.184.821.264-.825-3.989-3.077-14.44-3.602-17.376-.533-2.987-.015-5.13 1.968-6.226Z"/><path fill="#fff" d="M26.407 36.872a.967.967 0 0 1-.117.065c-.032.123-.081.217-.152.264-.424.282-1.623.424-2.256.282a.574.574 0 0 1-.255-.12c-1.08.6-2.634 1.4-2.95 1.22-.493-.283-.564-4.02-.493-4.936.052-.692 2.483.429 3.666 1.017.261-.244.902-.408 1.469-.463-.857-2.085-1.489-4.47-1.101-6.16-.536-.374-1.245-1.239-1.097-2.142.114-.687 1.89-1.988 3.147-2.066 1.26-.08 1.653-.062 2.703-.313l.17-.041c.647-2.272-.903-6.225-2.632-7.955-.564-.564-1.43-.918-2.407-1.106-.375-.515-.981-1.008-1.839-1.464-1.592-.846-3.56-1.19-5.394-.879l-.086.014c.297.027.977.641 1.25.682a.95.95 0 0 1-.194.096c-.257.097-.606.157-.88.269-.25.101-.437.246-.434.504 1.475-.148 3.09.085 4.45.688-.102.012-.203.026-.303.04-.964.136-1.85.386-2.49.723l-.088.05c-1.983 1.096-2.501 3.238-1.968 6.225.525 2.935 2.792 13.549 3.617 17.538 1.356.392 2.624.706 4.107.706 1.259 0 2.773-.28 3.943-.565-.41-.793-.94-1.67-1.266-2.298-.043.052-.078.097-.12.125Zm.83-15.05a.977.977 0 1 1 .003-1.955.977.977 0 0 1-.003 1.954Zm.587-3.674s-.615-.352-1.093-.346c-.981.013-1.248.447-1.248.447s.164-1.034 1.42-.827c.68.114.921.726.921.726Zm-10.347 1.27s-.442-.984.736-1.467c1.18-.483 1.754.275 1.754.275s-.857-.387-1.69.136c-.83.522-.8 1.057-.8 1.057Zm1.03 2.1a1.135 1.135 0 1 1 2.27-.002 1.135 1.135 0 0 1-2.27.002Z"/><path fill="#2D4F8E" d="M20.78 21.518a1.136 1.136 0 1 0-2.272-.001 1.136 1.136 0 0 0 2.271 0Zm-.633-.084a.295.295 0 1 1 .002-.59.295.295 0 0 1-.002.59Z"/><path fill="#fff" d="M20.147 20.844a.294.294 0 1 0 0 .59.294.294 0 0 0 0-.59Z"/><path fill="#2D4F8E" d="M27.237 19.869a.977.977 0 1 0 .002 1.953.977.977 0 0 0-.002-1.953Zm.433.903a.253.253 0 0 1 0-.505c.143 0 .254.114.254.252a.25.25 0 0 1-.254.253Z"/><path fill="#fff" d="M27.67 20.267a.253.253 0 0 0 0 .505.25.25 0 0 0 .254-.253.252.252 0 0 0-.254-.252Z"/><path fill="url(#a)" d="M19.967 18.226s-.575-.758-1.754-.275c-1.178.483-.736 1.468-.736 1.468s-.03-.535.8-1.057c.833-.523 1.69-.136 1.69-.136Z"/><path fill="url(#b)" d="M26.902 17.422c-1.255-.207-1.42.827-1.42.827s.268-.434 1.25-.447c.477-.006 1.092.346 1.092.346s-.241-.612-.922-.726Z"/><path fill="#FDD209" d="M26.268 23.833c-1.257.078-3.033 1.379-3.147 2.066-.148.903.562 1.768 1.097 2.141l.004.003c.535.373 4.099 1.575 5.867 1.541 1.77-.034 4.676-1.118 4.357-1.986-.318-.87-3.204.766-6.215.487-2.23-.207-2.624-1.206-2.13-1.936.62-.917 1.752.174 3.618-.384 1.868-.557 4.482-1.554 5.451-2.096 2.242-1.25-.938-1.768-1.689-1.422-.712.33-3.19.955-4.339 1.232l-.17.04c-1.05.252-1.444.234-2.704.314Z"/><path fill="#65BC46" d="M23.46 35.227c0-.13.104-.245.27-.343a.333.333 0 0 1 .12-.22c-1.183-.588-3.614-1.71-3.666-1.017-.071.917 0 4.653.493 4.935.316.18 1.87-.618 2.95-1.218-.312-.266-.167-.91-.167-2.137Zm3.052 1.513.015.007c.968.373 2.896 1.077 3.314.923.564-.216.423-4.725-.21-4.869-.508-.112-2.45 1.256-3.214 1.814.135.57.299 1.701.095 2.126Z"/><path fill="#43A244" d="M24.151 37.154c-.634-.14-.422-.776-.422-2.256l.001-.014c-.166.098-.27.213-.27.343 0 1.226-.145 1.871.167 2.137a.576.576 0 0 0 .256.119c.632.142 1.83 0 2.255-.282.071-.047.12-.14.152-.264-.497.238-1.557.349-2.139.217Z"/><path fill="#65BC46" d="M23.85 34.664a.334.334 0 0 0-.12.22l-.001.014c0 1.48-.212 2.115.422 2.256.582.132 1.642.02 2.139-.217a.967.967 0 0 0 .117-.065.321.321 0 0 0 .105-.131c.204-.425.04-1.555-.095-2.126a2.378 2.378 0 0 0-.08-.283c-.06-.144-.508-.181-1.018-.131-.567.055-1.208.219-1.469.463Z"/><defs><linearGradient id="a" x1="19.221" x2="17.396" y1="19.419" y2="19.419" gradientUnits="userSpaceOnUse"><stop stop-color="#394A9F"/><stop offset="1" stop-color="#6176B9"/></linearGradient><linearGradient id="b" x1="27.145" x2="25.483" y1="18.249" y2="18.249" gradientUnits="userSpaceOnUse"><stop stop-color="#394A9F"/><stop offset="1" stop-color="#6176B9"/></linearGradient></defs></svg>