<svg xmlns="http://www.w3.org/2000/svg" fill="none" aria-hidden="true" viewBox="0 0 48 48"><g id="dynamics-hr-Icon"><g id="Group"><path id="Vector" fill="#5E469B" d="M40.2744 42H7.75294C6.78668 42 6.01367 41.227 6.01367 40.2607V7.73926C6.01367 6.77301 6.78668 6 7.75294 6H40.2468C41.2131 6 41.9861 6.77301 41.9861 7.73926V40.2331C42.0137 41.227 41.2407 42 40.2744 42Z"/><g id="Vector_2" filter="url(#filter0_d_94_19191)"><path fill="#A886BC" d="M31.5229 42H6.01367V15.7454H29.2039C30.4738 15.7454 31.5229 16.7945 31.5229 18.0644V42V42Z"/></g><g id="Vector_3" filter="url(#filter1_d_94_19191)"><path fill="#E0C6DE" d="M21.2529 42H6.01367V26.2914H19.4585C20.4523 26.2914 21.2529 27.092 21.2529 28.0859V42V42Z"/></g><g id="Vector_4" filter="url(#filter2_d_94_19191)"><path fill="#E0C6DE" d="M13.7989 23.6963C18.0986 23.6963 21.5842 20.2107 21.5842 15.911C21.5842 11.6113 18.0986 8.12573 13.7989 8.12573C9.49926 8.12573 6.01367 11.6113 6.01367 15.911C6.01367 20.2107 9.49926 23.6963 13.7989 23.6963Z"/></g></g></g><defs><filter id="filter0_d_94_19191" width="29.5093" height="30.2546" x="6.01367" y="13.7454" color-interpolation-filters="sRGB" filterUnits="userSpaceOnUse"><feFlood flood-opacity="0" result="BackgroundImageFix"/><feColorMatrix in="SourceAlpha" result="hardAlpha" values="0 0 0 0 0 0 0 0 0 0 0 0 0 0 0 0 0 0 127 0"/><feOffset dx="2"/><feGaussianBlur stdDeviation="1"/><feComposite in2="hardAlpha" operator="out"/><feColorMatrix values="0 0 0 0 0 0 0 0 0 0 0 0 0 0 0 0 0 0 0.4 0"/><feBlend in2="BackgroundImageFix" result="effect1_dropShadow_94_19191"/><feBlend in="SourceGraphic" in2="effect1_dropShadow_94_19191" result="shape"/></filter><filter id="filter1_d_94_19191" width="19.2393" height="19.7086" x="6.01367" y="24.2914" color-interpolation-filters="sRGB" filterUnits="userSpaceOnUse"><feFlood flood-opacity="0" result="BackgroundImageFix"/><feColorMatrix in="SourceAlpha" result="hardAlpha" values="0 0 0 0 0 0 0 0 0 0 0 0 0 0 0 0 0 0 127 0"/><feOffset dx="2"/><feGaussianBlur stdDeviation="1"/><feComposite in2="hardAlpha" operator="out"/><feColorMatrix values="0 0 0 0 0 0 0 0 0 0 0 0 0 0 0 0 0 0 0.4 0"/><feBlend in2="BackgroundImageFix" result="effect1_dropShadow_94_19191"/><feBlend in="SourceGraphic" in2="effect1_dropShadow_94_19191" result="shape"/></filter><filter id="filter2_d_94_19191" width="18.0703" height="17.5706" x="6.01367" y="7.12573" color-interpolation-filters="sRGB" filterUnits="userSpaceOnUse"><feFlood flood-opacity="0" result="BackgroundImageFix"/><feColorMatrix in="SourceAlpha" result="hardAlpha" values="0 0 0 0 0 0 0 0 0 0 0 0 0 0 0 0 0 0 127 0"/><feOffset dx="1.5"/><feGaussianBlur stdDeviation="0.5"/><feComposite in2="hardAlpha" operator="out"/><feColorMatrix values="0 0 0 0 0 0 0 0 0 0 0 0 0 0 0 0 0 0 0.4 0"/><feBlend in2="BackgroundImageFix" result="effect1_dropShadow_94_19191"/><feBlend in="SourceGraphic" in2="effect1_dropShadow_94_19191" result="shape"/></filter></defs></svg>