<svg xmlns="http://www.w3.org/2000/svg" fill="none" aria-hidden="true" viewBox="0 0 48 48"><path fill="#2C2255" d="M41.377 28.65c-.736 2.508-2.102 4.756-4.1 6.74l-.089.089c-2.495 2.48-5.401 3.966-8.715 4.466-.837.126-1.7.192-2.59.192-4.45 0-8.257-1.58-11.422-4.746-1.986-1.986-3.342-4.233-4.073-6.74h30.989Zm.622-3.748a16.94 16.94 0 0 1-.18 1.753l-.032.19H9.981c-.096-.57-.163-1.15-.2-1.744l-.01-.199h32.228Zm-.212-3.749c.096.57.163 1.152.2 1.745l.011.199H9.771c.029-.597.09-1.18.179-1.753l.03-.19h31.807Zm-.41-1.805c-.735-2.514-2.102-4.772-4.101-6.771-2.509-2.509-5.436-4.014-8.778-4.52a17.402 17.402 0 0 0-2.614-.196c-4.452 0-8.258 1.573-11.424 4.716-1.986 2-3.343 4.257-4.073 6.771"/><path fill="#F7941E" d="M8.812 24c0-8.513 6.394-15.587 14.712-16.831a16.034 16.034 0 0 0-.622-.016C13.568 7.153 6 14.696 6 24c0 9.305 7.567 16.847 16.902 16.847.209 0 .416-.008.623-.015C15.206 39.587 8.812 32.514 8.812 24Z"/><path fill="url(#a)" d="M36.852 23.097a10.982 10.982 0 0 0-.334-1.944H15.251a10.98 10.98 0 0 0-.334 1.944h21.935Z"/><path fill="url(#b)" d="M36.852 24.902H14.918c.054.666.165 1.316.333 1.944H36.52a11.03 11.03 0 0 0 .333-1.944Z"/><path fill="url(#c)" d="M25.884 35.007c4.417 0 8.224-2.602 9.977-6.356H15.908a11.006 11.006 0 0 0 9.976 6.356Z"/><path fill="#fff" d="M41.783 26.845a15.87 15.87 0 0 1-.426 1.806h-30.97a15.869 15.869 0 0 1-.407-1.806h31.803Zm.188-3.748c.018.31.03.623.03.938 0 .29-.01.58-.025.867H9.765a16.438 16.438 0 0 1-.024-.867c0-.315.012-.628.03-.938h32.2Zm-.72-3.749c.18.588.323 1.191.434 1.805H9.98c.11-.614.226-1.217.406-1.805H41.25Z"/><defs><linearGradient id="a" x1="25.884" x2="25.884" y1="42.328" y2="18.053" gradientUnits="userSpaceOnUse"><stop offset=".303" stop-color="#473788"/><stop offset=".872" stop-color="#2C2255"/></linearGradient><linearGradient id="b" x1="25.884" x2="25.884" y1="42.328" y2="18.053" gradientUnits="userSpaceOnUse"><stop offset=".303" stop-color="#473788"/><stop offset=".872" stop-color="#2C2255"/></linearGradient><linearGradient id="c" x1="25.884" x2="25.884" y1="42.328" y2="18.054" gradientUnits="userSpaceOnUse"><stop offset=".303" stop-color="#473788"/><stop offset=".863" stop-color="#2C2255"/></linearGradient></defs></svg>