<svg xmlns="http://www.w3.org/2000/svg" fill="none" aria-hidden="true" viewBox="0 0 48 48"><mask id="a" width="36" height="36" x="6" y="6" maskUnits="userSpaceOnUse" style="mask-type:alpha"><path fill="#fff" d="M22.509 6c-1.694.008-3.379.24-5.01.691-10.644 3.37-14.41 15.045-8.977 25.77 1.732 3.324 4.714 7.225 8.353 8.955.206.104.394.19.564.253 3.705 1.577 2.536-2.883 2.277-4.84-.042-.982-.044-2.026.126-2.966-2.104-.417-4.196-1.847-5.623-3.206-4.897-4.78-5.016-11.762.099-15.534 1.445-.98 3.048-1.593 4.928-1.847 4.344-.431 8.856 1.424 10.847 5.14 1.663 3.456.203 7.003-3.728 8.063-1.442.37-2.98.24-4.427.537-1.96.618-1.466 2.446-.884 3.936.057.114.125.243.199.381.532-.364 1.236-.568 2.165-.546 2.576.328 5.06 1.414 7.666 1.617 7.136.468 11.574-4.6 10.77-11.287-1.2-7.31-7.649-12.953-15.116-14.698A21.299 21.299 0 0 0 22.7 6h-.191Z"/></mask><g mask="url(#a)"><path fill="url(#b)" fill-rule="evenodd" d="M22.509 6c-1.694.008-3.379.24-5.01.691-10.644 3.37-14.41 15.045-8.977 25.77 1.732 3.324 4.714 7.225 8.353 8.955.206.104.394.19.564.253 3.705 1.577 2.536-2.883 2.277-4.84-.042-.982-.044-2.026.126-2.966-2.104-.417-4.196-1.847-5.623-3.206-4.897-4.78-5.016-11.762.099-15.534 1.445-.98 3.048-1.593 4.928-1.847 4.344-.431 8.856 1.424 10.847 5.14 1.663 3.456.203 7.003-3.728 8.063-1.442.37-2.98.24-4.427.537-1.96.618-1.466 2.446-.884 3.936.057.114.125.243.199.381.532-.364 1.236-.568 2.165-.546 2.576.328 5.06 1.414 7.666 1.617 7.136.468 11.574-4.6 10.77-11.287-1.2-7.31-7.649-12.953-15.116-14.698A21.299 21.299 0 0 0 22.7 6h-.191Z" clip-rule="evenodd"/></g><mask id="c" width="29" height="17" x="6" y="6" maskUnits="userSpaceOnUse" style="mask-type:alpha"><path fill="#fff" d="M22.51 6c-1.694.008-3.379.24-5.01.691-7.43 2.353-11.506 8.752-11.444 16.05a58.788 58.788 0 0 0 4.462-.482c.07-2.722 1.32-5.307 3.801-7.136 1.445-.98 3.048-1.593 4.928-1.847 3.293-.327 6.683.66 8.998 2.777 2.713-1.742 4.923-3.754 6.5-5.957A22.032 22.032 0 0 0 26.74 6.42 21.299 21.299 0 0 0 22.701 6h-.192Z"/></mask><g mask="url(#c)"><path fill="#0068A6" fill-rule="evenodd" d="M22.51 6c-1.694.008-3.379.24-5.01.691-7.43 2.353-11.506 8.752-11.444 16.05a58.788 58.788 0 0 0 4.462-.482c.07-2.722 1.32-5.307 3.801-7.136 1.445-.98 3.048-1.593 4.928-1.847 3.293-.327 6.683.66 8.998 2.777 2.713-1.742 4.923-3.754 6.5-5.957A22.032 22.032 0 0 0 26.74 6.42 21.299 21.299 0 0 0 22.701 6h-.192Z" clip-rule="evenodd"/></g><defs><linearGradient id="b" x1="24" x2="24" y1="42" y2="6.072" gradientUnits="userSpaceOnUse"><stop stop-color="#0095DA"/><stop offset="1" stop-color="#0068A6"/></linearGradient></defs></svg>