<svg xmlns="http://www.w3.org/2000/svg" fill="none" aria-hidden="true" viewBox="0 0 48 48"><path fill="#F26522" d="M42 6H6v36h36V6Z"/><path fill="#fff" d="M20.84 28.494h5.507v-1.498h-3.806v-2.321h3.51v-1.498h-3.51v-2.173h3.806v-1.498h-5.506v8.988Zm12.863-2.443c0-1.795-.122-2.186-2.538-2.766-1.552-.378-1.579-.405-1.579-1.43 0-.784.203-1.027 1.35-1.027.783 0 1.66.108 2.402.27l.19-1.43a12.268 12.268 0 0 0-2.619-.297c-2.28 0-3.023.81-3.023 2.443 0 1.903.297 2.321 2.47 2.807 1.62.35 1.646.432 1.646 1.43 0 .864-.202 1.12-1.43 1.12-.891 0-1.701-.161-2.538-.418l-.297 1.336c.594.284 1.782.54 2.808.54 2.658 0 3.158-.877 3.158-2.578Zm3.13-3.347c0-1.376.662-1.646 2.255-1.646.283 0 .877.04 1.268.121l.108-1.376a7.827 7.827 0 0 0-1.552-.162c-2.456 0-3.725.756-3.725 3.13v3.28c0 1.553.46 2.578 2.78 2.578 2.12 0 2.767-1.053 2.767-2.456v-.648c0-1.552-.661-2.227-2.294-2.227-.58 0-1.134.081-1.606.243v-.837Zm1.35 2.011c.594 0 .905.203.905.85v.662c0 .688-.27.985-1.12.985-.85 0-1.134-.243-1.134-.985v-1.228a3.538 3.538 0 0 1 1.35-.284Z"/></svg>