<svg xmlns="http://www.w3.org/2000/svg" fill="none" aria-hidden="true" viewBox="0 0 48 48"><path fill="#8080F2" d="m16.964 19.518 6.83-3.943a.552.552 0 0 1 .552 0l6.83 3.943a.551.551 0 0 1 .277.479v7.886c0 .198-.105.38-.276.48l-6.83 3.943a.552.552 0 0 1-.553 0l-6.83-3.944a.553.553 0 0 1-.276-.479v-7.886c0-.198.105-.38.276-.479Z"/><path fill="#4B32C3" d="M41.777 23.294 33.607 9.08c-.296-.514-.844-.893-1.437-.893H15.83c-.593 0-1.141.38-1.438.893l-8.17 14.181a1.69 1.69 0 0 0 0 1.677l8.17 14.096c.297.514.845.777 1.439.777h16.338c.594 0 1.142-.255 1.439-.77l8.17-14.118a1.603 1.603 0 0 0 0-1.63Zm-6.764 6.834a.599.599 0 0 1-.307.507L24.3 36.639a.592.592 0 0 1-.589 0l-10.414-6.004a.6.6 0 0 1-.308-.507V18.12a.6.6 0 0 1 .306-.507l10.406-6.003a.59.59 0 0 1 .588 0l10.415 6.003a.6.6 0 0 1 .309.507v12.008Z"/></svg>