<svg xmlns="http://www.w3.org/2000/svg" fill="none" aria-hidden="true" viewBox="0 0 48 48"><path fill="#20C05C" fill-rule="evenodd" d="M36.606 13.568c-.238-1.277-.994-1.907-1.678-2.154-.737-.268-2.233-.545-4.112-.767-1.512-.18-3.29-.165-4.363-.132-.129-.886-.748-1.695-1.44-1.975-1.846-.746-4.697-.566-5.428-.36-.582.164-1.226.498-1.584 1.013-.24.345-.396.786-.397 1.402 0 .349.01 1.17.018 1.9l.018 1.338v.054c0 .652-.526 1.182-1.178 1.183H13.47c-.638 0-1.126.108-1.498.278-.373.17-.637.4-.838.67-.4.539-.47 1.203-.468 1.882 0 0 .006.554.14 1.627.11.83 1.007 6.628 1.858 8.391.33.687.55.972 1.199 1.275 1.445.62 4.747 1.312 6.294 1.51.256.033.496.072.721.108 1.134.184 1.888.306 2.37-.709.002-.003.116-.302.272-.742.502-1.525.572-2.88.572-3.859 0-.1.145-.104.145 0v.131c-.008.828-.029 3.045 1.71 3.665.727.259 2.236.49 3.768.67 1.386.16 2.391.707 2.391 4.276 0 2.172-.454 2.47-2.829 2.47h-.176c-1.794.001-2.483.002-2.483-1.486 0-1.135 1.024-1.123 1.892-1.113l.237.002c.255 0 .233-.12.181-.4a3.493 3.493 0 0 1-.07-.668c0-.323.085-.588.15-.787.086-.27.134-.42-.124-.426-3.133-.086-4.977-.003-4.977 3.93 0 3.572 1.361 4.235 5.808 4.235 3.487 0 4.716-.115 6.155-4.6.285-.884.974-3.586 1.39-8.122.264-2.868-.248-11.525-.654-13.71Zm-6.078 9.568a6.356 6.356 0 0 0-1.23.075c.108-.882.47-1.963 1.754-1.918 1.422.049 1.62 1.398 1.626 2.311-.6-.268-1.341-.44-2.15-.468ZM13.33 14.198c-.735 0-1.348.126-1.855.355-.023.01-.184.09-.304.15l-.003.001a.066.066 0 0 1 .021-.034l5.813-5.786a.062.062 0 0 1 .034-.02l-.103.194c-.214.43-.337.942-.337 1.53v.008c0 .689.034 3.098.037 3.28v.01a.31.31 0 0 1-.31.312H13.33Z" clip-rule="evenodd"/></svg>