<svg xmlns="http://www.w3.org/2000/svg" fill="none" aria-hidden="true" viewBox="0 0 48 48"><path fill="#20C05C" fill-rule="evenodd" d="M36.606 13.568c-.237-1.277-.994-1.907-1.677-2.154-.738-.268-2.234-.545-4.113-.767-1.512-.18-3.29-.165-4.363-.132-.129-.886-.748-1.695-1.44-1.975-1.845-.746-4.696-.566-5.428-.36-.582.164-1.226.498-1.584 1.013-.24.345-.396.786-.397 1.402 0 .349.01 1.17.018 1.9l.018 1.338v.054c0 .652-.526 1.182-1.178 1.183H13.47c-.638 0-1.126.108-1.498.278-.373.17-.637.4-.838.67-.4.539-.469 1.203-.467 1.882 0 0 .005.554.139 1.627.11.83 1.007 6.628 1.858 8.391.33.687.55.972 1.199 1.275 1.445.62 4.747 1.312 6.294 1.51.256.033.496.072.721.108 1.134.184 1.888.306 2.37-.709.002-.003.116-.302.273-.742.501-1.525.571-2.88.571-3.859 0-.1.146-.104.146 0l-.001.131c-.008.828-.028 3.045 1.71 3.665.728.259 2.236.49 3.768.67 1.386.16 2.391.707 2.391 4.276 0 2.172-.454 2.47-2.829 2.47h-.176c-1.794.001-2.482.002-2.482-1.486 0-1.135 1.023-1.123 1.89-1.113l.238.002c.255 0 .233-.12.182-.4a3.493 3.493 0 0 1-.07-.668c0-.323.084-.588.148-.787.087-.27.135-.42-.123-.426-3.133-.086-4.977-.003-4.977 3.93 0 3.572 1.361 4.235 5.808 4.235 3.487 0 4.716-.115 6.155-4.6.285-.884.974-3.586 1.391-8.122.264-2.868-.248-11.525-.655-13.71Zm-6.077 9.568a6.356 6.356 0 0 0-1.232.075c.109-.882.471-1.963 1.755-1.918 1.422.049 1.62 1.398 1.626 2.311-.6-.268-1.341-.44-2.15-.468ZM13.33 14.198c-.735 0-1.348.126-1.854.355-.024.01-.185.09-.305.15l-.003.001a.066.066 0 0 1 .021-.034l5.813-5.786a.062.062 0 0 1 .034-.02l-.102.194a3.39 3.39 0 0 0-.337 1.53v.008c0 .689.033 3.098.036 3.28v.01a.31.31 0 0 1-.31.312H13.33Z" clip-rule="evenodd"/></svg>