<svg xmlns="http://www.w3.org/2000/svg" fill="none" aria-hidden="true" viewBox="0 0 48 48"><path fill="#1877F2" d="m29.449 22.716-8.23 4.872c-.758.449-1.718-.093-1.718-.965v-9.746c0-.874.96-1.415 1.717-.966l8.23 4.872a1.121 1.121 0 0 1 0 1.933Z"/><path fill="#1877F2" fill-rule="evenodd" d="M37.126 36h-26.25A4.88 4.88 0 0 1 6 31.126v-18.75A4.88 4.88 0 0 1 10.875 7.5h26.25A4.88 4.88 0 0 1 42 12.375v18.75a4.88 4.88 0 0 1-4.874 4.876ZM10.876 9.75a2.628 2.628 0 0 0-2.626 2.626v18.75a2.628 2.628 0 0 0 2.625 2.625h26.25a2.628 2.628 0 0 0 2.625-2.625V12.374a2.628 2.628 0 0 0-2.625-2.625h-26.25Z" clip-rule="evenodd"/><path fill="#1877F2" d="M16.979 40.5h14.044a.852.852 0 0 0 .854-.852v-.545a.85.85 0 0 0-.853-.853H16.979a.852.852 0 0 0-.853.853v.544a.853.853 0 0 0 .853.853Z"/></svg>