<svg xmlns="http://www.w3.org/2000/svg" fill="none" aria-hidden="true" viewBox="0 0 48 48"><path fill="#363E4C" d="M37.693 31.416c-.486.558-1.332 1.44-2.7 1.44-1.908 0-2.538-1.386-3.114-2.844l-2.88-7.074-2.88 7.074c-.468 1.188-1.008 2.844-3.114 2.844s-2.628-1.656-3.132-2.844l-4.824-11.916h4.068l3.888 9.81 2.898-7.146c.45-1.134.99-2.844 3.096-2.844 2.052 0 2.628 1.71 3.096 2.844l3.15 7.74a12.172 12.172 0 0 0 1.89-8.298 12.081 12.081 0 0 0-4.032-7.488 12.112 12.112 0 0 0-7.956-3.006c-3.042-.018-5.994.936-8.496 2.7a14.515 14.515 0 0 0-5.184 7.164 14.373 14.373 0 0 0 0 8.874 14.173 14.173 0 0 0 5.238 7.146 14.25 14.25 0 0 0 8.442 2.7c1.314 0 2.61-.18 3.87-.54v3.798c-1.278.288-2.574.45-3.87.45a18.173 18.173 0 0 1-10.62-3.42 17.888 17.888 0 0 1-6.57-9 17.79 17.79 0 0 1-.018-11.16 18.026 18.026 0 0 1 6.588-9C17.605 7.188 21.33 6 25.147 6c8.712 0 15.804 7.092 15.804 15.822 0 3.456-1.152 6.84-3.258 9.594Z"/></svg>