<svg xmlns="http://www.w3.org/2000/svg" fill="none" aria-hidden="true" viewBox="0 0 48 48"><path fill="#FFA000" d="m9.46 36.274 4.923-31.505a.91.91 0 0 1 1.7-.288l5.092 9.496 2.03-3.864a.91.91 0 0 1 1.61 0l13.74 26.16H9.46Z"/><path fill="#F57C00" d="m26.47 24.002-5.297-10.03L9.46 36.275l17.01-12.272Z"/><path fill="#FFCA28" d="m38.555 36.274-3.771-23.335a.91.91 0 0 0-1.539-.492L9.46 36.273l13.16 7.38a2.727 2.727 0 0 0 2.66 0l13.275-7.38Z"/><path fill="#fff" fill-opacity=".2" d="M34.784 12.939a.91.91 0 0 0-1.539-.492l-4.72 4.733-3.713-7.067a.909.909 0 0 0-1.609 0l-2.03 3.864-5.091-9.496a.91.91 0 0 0-1.7.29L9.46 36.275h-.016l.016.018.13.063L33.239 12.68a.91.91 0 0 1 1.54.49l3.74 23.126.036-.022-3.77-23.335ZM9.504 36.23l4.88-31.236a.91.91 0 0 1 1.7-.29l5.091 9.496 2.03-3.864a.91.91 0 0 1 1.61 0l3.636 6.917L9.503 36.23Z"/><path fill="#A52714" d="M25.28 43.431a2.728 2.728 0 0 1-2.66 0l-13.128-7.36-.032.203 13.16 7.378a2.728 2.728 0 0 0 2.66 0l13.275-7.378-.034-.21-13.24 7.368Z" opacity=".2"/><path fill="url(#a)" d="M34.746 12.944a.904.904 0 0 0-1.533-.49l-4.705 4.73-3.699-7.065a.906.906 0 0 0-1.604 0l-2.022 3.863-5.074-9.493a.905.905 0 0 0-1.694.291L9.51 36.268l13.115 7.375a2.71 2.71 0 0 0 2.65 0l13.228-7.375-3.758-23.325Z"/><defs><linearGradient id="a" x1="8.499" x2="44.68" y1="10.814" y2="29.899" gradientUnits="userSpaceOnUse"><stop stop-color="#fff" stop-opacity=".1"/><stop offset=".14" stop-color="#fff" stop-opacity=".08"/><stop offset=".61" stop-color="#fff" stop-opacity=".02"/><stop offset="1" stop-color="#fff" stop-opacity="0"/></linearGradient></defs></svg>