<svg xmlns="http://www.w3.org/2000/svg" fill="none" aria-hidden="true" viewBox="0 0 48 48"><path fill="#00B0B9" d="M15.726 21.504s.015 0 0 0Zm-7.536.366c1.216 0 2.19.976 2.19 2.19a2.183 2.183 0 0 1-2.19 2.191A2.183 2.183 0 0 1 6 24.061c0-1.215.975-2.19 2.19-2.19Zm7.54-7.907a2.44 2.44 0 0 1 2.431 2.43 2.44 2.44 0 0 1-2.43 2.43 2.44 2.44 0 0 1-2.43-2.43 2.44 2.44 0 0 1 2.43-2.43Zm0 15.2v-.015a2.43 2.43 0 0 1 2.431 2.43c0 1.35-1.095 2.46-2.43 2.46a2.443 2.443 0 0 1-2.43-2.444 2.44 2.44 0 0 1 2.43-2.43Zm-.019-7.659c1.455.015 2.55 1.095 2.55 2.55 0 1.471-1.08 2.566-2.535 2.566-1.47 0-2.55-1.095-2.55-2.565 0-1.456 1.08-2.536 2.535-2.55Zm7.554 15.087c1.47 0 2.685 1.215 2.685 2.67a2.702 2.702 0 0 1-2.685 2.686c-1.455 0-2.67-1.23-2.67-2.686 0-1.455 1.215-2.67 2.67-2.67ZM25.95 8.739c0 1.455-1.215 2.67-2.685 2.67-1.455 0-2.67-1.215-2.67-2.67 0-1.47 1.215-2.686 2.67-2.686A2.702 2.702 0 0 1 25.95 8.74Zm-2.684 20.064c1.576 0 2.806 1.335 2.806 2.79 0 1.59-1.215 2.806-2.79 2.806-1.59 0-2.806-1.215-2.806-2.806 0-1.575 1.215-2.79 2.79-2.79Zm0-15.207c1.576 0 2.806 1.216 2.806 2.806 0 1.575-1.215 2.79-2.79 2.79-1.59 0-2.806-1.215-2.806-2.79 0-1.59 1.215-2.806 2.79-2.806Zm-.003 7.545h.015c1.576 0 2.91 1.336 2.91 2.926 0 1.575-1.334 2.91-2.91 2.91-1.59 0-2.925-1.335-2.925-2.91 0-1.59 1.335-2.926 2.91-2.926Zm7.434 7.298c1.695 0 3.15 1.455 3.15 3.165 0 1.695-1.455 3.166-3.15 3.166-1.71 0-3.165-1.47-3.165-3.166 0-1.695 1.455-3.165 3.165-3.165Zm0-15.21c1.695 0 3.15 1.47 3.15 3.166 0 1.695-1.455 3.165-3.15 3.165-1.71 0-3.165-1.455-3.165-3.165 0-1.696 1.455-3.166 3.165-3.166Zm-.003 7.546a3.275 3.275 0 0 1 3.286 3.286 3.266 3.266 0 0 1-3.286 3.285 3.275 3.275 0 0 1-3.285-3.285 3.266 3.266 0 0 1 3.285-3.286Zm7.66-.364v-.015c1.95 0 3.526 1.575 3.646 3.645 0 2.07-1.575 3.676-3.646 3.676-2.07 0-3.645-1.71-3.645-3.66 0-2.071 1.695-3.646 3.645-3.646Z"/></svg>