<svg xmlns="http://www.w3.org/2000/svg" fill="none" aria-hidden="true" viewBox="0 0 48 48"><path fill="#228BE6" d="M9.855 6h28.29A3.854 3.854 0 0 1 42 9.855v28.29A3.854 3.854 0 0 1 38.145 42H9.855A3.854 3.854 0 0 1 6 38.145V9.855A3.854 3.854 0 0 1 9.855 6Zm9.184 8.685c0-1.485-1.2-2.685-2.7-2.685a2.682 2.682 0 0 0-2.684 2.685c0 .825.39 1.605 1.05 2.115v17.565c0 .435.18.855.48 1.17.3.3.72.465 1.155.465.825 0 1.59-.63 1.59-1.635V30.72c.09-.045.195-.045.285-.09 1.59-.72 3.555-1.395 5.43-1.395 2.595 0 3.6 1.335 5.76 1.335 1.53 0 2.97-.525 4.32-1.095.33-.15.614-.285.614-.63v-11.28c0-.33-.33-.615-.72-.615-.48 0-2.49 1.29-4.32 1.29-1.364 0-2.895-1.29-5.94-1.29-2.625 0-5.19 1.275-5.385 1.335V16.8a2.568 2.568 0 0 0 1.066-2.115Z"/></svg>