<svg xmlns="http://www.w3.org/2000/svg" fill="none" aria-hidden="true" viewBox="0 0 48 48"><g id="fontawesome-Icon"><path id="Vector" fill="#228BE6" d="M9.855 6H38.145C40.275 6 42 7.725 42 9.855V38.145C42 40.275 40.275 42 38.145 42H9.855C7.725 42 6 40.275 6 38.145V9.855C6 7.725 7.725 6 9.855 6V6ZM19.0395 14.685C19.0395 13.2 17.8395 12 16.3395 12C14.8545 12 13.6545 13.2 13.6545 14.685C13.6545 15.51 14.0445 16.29 14.7045 16.8V34.365C14.7045 34.8 14.8845 35.22 15.1845 35.535C15.4845 35.835 15.9045 36 16.3395 36C17.1645 36 17.9295 35.37 17.9295 34.365V30.72C18.0195 30.675 18.1245 30.675 18.2145 30.63C19.8045 29.91 21.7695 29.235 23.6445 29.235C26.2395 29.235 27.2445 30.57 29.4045 30.57C30.9345 30.57 32.3745 30.045 33.7245 29.475C34.0545 29.325 34.3395 29.19 34.3395 28.845V17.565C34.3395 17.235 34.0095 16.95 33.6195 16.95C33.1395 16.95 31.1295 18.24 29.2995 18.24C27.9345 18.24 26.4045 16.95 23.3595 16.95C20.7345 16.95 18.1695 18.225 17.9745 18.285V16.8C18.6495 16.305 19.0545 15.525 19.0395 14.685V14.685Z"/></g></svg>