<svg xmlns="http://www.w3.org/2000/svg" fill="none" aria-hidden="true" viewBox="0 0 48 48"><path fill="url(#a)" fill-rule="evenodd" d="M16.13 11.016c-3.774-.758-12.647 3.105-12.106 7.44 1.342.4 2.511.887 2.32 1.387H43.27c.222-1.478-.938-2.612-.153-3.846.248-.39.437-.834.568-1.277v-2.4a.288.288 0 0 0-.064-.044c-9.17 2.968-4.716 2.34-14.502.002-1.698-2.132-7.335-3.675-9.962-3.847-1.01 0-3.027 2.585-3.027 2.585Z" clip-rule="evenodd"/><path fill="url(#b)" fill-rule="evenodd" d="M28.3 18.582v1.135H6.363c.02.336-.534.68-2.025 1.01 1.324 1.639 5.233 3.214 6.62 3.404a4.394 4.394 0 0 0-.817.27c4.438.558 9.685.747 12.294.802h8.609l-.286-.063c-1.915-.36-1.15-.1-2.081-.63 12.328-2.969 5.185-2.53 14.943-.379.316-.567-1.197-1.954-.504-3.72.264-.67.2-1.269.067-1.829H28.3Z" clip-rule="evenodd"/><path fill="url(#c)" fill-rule="evenodd" d="M19.724 23.06v1.134a257.92 257.92 0 0 0-8.989-.007c-2.223.629-6.149 3.983-6.711 5.956v.804a.808.808 0 0 0 .063.12c1.172.349 2.213.765 2.33 1.198H22.94V31.13h20.259c-.212-.94-.642-1.768-.082-2.648.576-1.24.846-2.09.883-2.65v-.25c-.161-2.085-4.683 1.234-7.188 1.26-2.838-.505-2.27-.882-6.053-1.702-1.915-.36-1.15-.1-2.081-.63a148.924 148.924 0 0 0 5.17-1.335v-.116H19.724Z" clip-rule="evenodd"/><path fill="#974DFF" fill-rule="evenodd" d="M18.21 14.105h.064c1.511 2.677.549 4.732-.252 7.378-.226.535.589.95.82.378.642-2.458 1.66-5.16.44-7.63h.127c5.834.045 11.739 1.105 17.025 3.658.35.08 1.48.948 1.702.252-2.546-3.011-12.454-4.726-16.646-4.604-.183.035-.619-.02-1.118-.075-.39-.044-.82-.087-1.198-.087-.702 0-1.22.15-.963.73Z" clip-rule="evenodd"/><path fill="#F1A5FF" fill-rule="evenodd" d="M18.21 14.105h.064c.911 1.724 1.145 3.832.252 5.612h.883c.459-1.788.613-3.705-.19-5.422 5.904.017 11.894.984 17.214 3.657.35.062 1.547 1.01 1.703.252-2.676-3.068-12.335-4.789-16.646-4.667-.208.04-.641-.018-1.127-.077a10.2 10.2 0 0 0-1.14-.09c-.66 0-1.16.152-1.012.736Z" clip-rule="evenodd"/><path fill="#974DFF" fill-rule="evenodd" d="M15.94 14.42h.064c1.224 1.667 1.17 3.682.378 5.487-.265.438.394.877.63.378.443-.934.749-1.99.757-3.027.01-1.167-.524-2.37-1.135-3.342-.08-.144-.196-.203-.315-.203-.305 0-.625.39-.378.708Z" clip-rule="evenodd"/><path fill="#F1A5FF" fill-rule="evenodd" d="M17.265 19.717c.366-1.525.637-3.148-.19-4.602-.115-.24-.455-.93-.44-1.199-.264-.486-.963-.002-.694.442h.063c1.121 1.6 1.261 3.596.441 5.36h.82Z" clip-rule="evenodd"/><path fill="#F1A5FF" fill-rule="evenodd" d="M15.94 14.358h.064c1.12 1.6 1.261 3.596.441 5.36h.82c.366-1.527.637-3.149-.19-4.604-.115-.239-.456-.928-.44-1.198-.079-.144-.195-.203-.313-.203-.28 0-.57.333-.381.645Z" clip-rule="evenodd"/><path fill="url(#d)" fill-rule="evenodd" d="M22.877 31.13v1.135H6.417c.096.355-.43.722-2.015 1.072 3.054 2.967 6.855 3.904 10.214 3.153.525 2.367 4.949 3.722 7.883 2.774a3.717 3.717 0 0 0-.316-1.765c4.1.698 14.107-2.449 14.629-2.712.472-.087 1.925.432 3.37.951 1.64.59 3.271 1.18 3.44.878.315-.568-1.198-1.955-.505-3.72.254-.646.204-1.224.082-1.766H22.877Z" clip-rule="evenodd"/><path fill="#373FFF" fill-rule="evenodd" d="M18.21 26.716h.064c1.526 2.693.52 4.774-.252 7.44-.226.537.589.95.82.38.69-2.43 1.633-5.124.44-7.568l.127-.063c5.832.048 11.744 1.01 17.025 3.595.35.08 1.48.947 1.702.252-2.546-3.011-12.454-4.727-16.646-4.603-.183.035-.618-.02-1.116-.076a11.39 11.39 0 0 0-1.2-.087c-.702 0-1.22.15-.963.73Z" clip-rule="evenodd"/><path fill="#F1A5FF" fill-rule="evenodd" d="M18.21 26.716h.064c.903 1.706 1.144 3.787.252 5.55h.883c.462-1.79.613-3.707-.19-5.423 5.898.02 11.87 1.077 17.215 3.657.35.08 1.482.948 1.702.252-2.546-3.011-12.454-4.727-16.646-4.603-.183.035-.618-.02-1.116-.076a11.392 11.392 0 0 0-1.2-.087c-.702 0-1.22.15-.963.73Z" clip-rule="evenodd"/><path fill="#373FFF" fill-rule="evenodd" d="M15.94 27.032h.064c1.224 1.666 1.17 3.68.378 5.485-.265.44.394.878.63.379.443-.934.748-1.989.757-3.027.025-1.2-.574-2.375-1.135-3.405-.311-.548-1.121.134-.693.568Z" clip-rule="evenodd"/><path fill="#F1A5FF" fill-rule="evenodd" d="M17.265 32.265c.163-1.032.552-2.08.315-3.153-.031-.623-1.594-4.321-1.765-2.143h.189c1.132 1.6 1.262 3.592.441 5.36l.82-.064Z" clip-rule="evenodd"/><path fill="#F1A5FF" fill-rule="evenodd" d="M15.815 26.968h.189c1.132 1.602 1.262 3.593.441 5.36l.82-.063c.163-1.031.552-2.08.315-3.153-.024-.484-.973-2.823-1.475-2.823-.145 0-.252.193-.29.679Z" clip-rule="evenodd"/><path fill="#000" fill-rule="evenodd" d="M10.833 14.862a1.703 1.703 0 1 1 0 3.405 1.703 1.703 0 0 1 0-3.405Z" clip-rule="evenodd"/><path fill="#fff" fill-rule="evenodd" d="M9.068 16.439a1.828 1.828 0 1 1 1.829 1.891 1.703 1.703 0 0 1-1.828-1.567l-.001-.01c.098.708.74 1.21 1.45 1.136a1.45 1.45 0 1 0-1.45-1.45Z" clip-rule="evenodd"/><path fill="#fff" fill-rule="evenodd" d="M9.825 16.439a.505.505 0 1 1 0 1.009.505.505 0 0 1 0-1.01Z" clip-rule="evenodd"/><path fill="#000" fill-rule="evenodd" d="M10.833 27.473a1.702 1.702 0 1 1 .001 3.404 1.702 1.702 0 0 1 0-3.404Z" clip-rule="evenodd"/><path fill="#fff" fill-rule="evenodd" d="M9.068 28.986a1.828 1.828 0 1 1 3.655.126 1.827 1.827 0 0 1-1.826 1.766 1.702 1.702 0 0 1-1.828-1.567l-.001-.01c.066.729.71 1.266 1.438 1.2l.012-.002a1.45 1.45 0 1 0-1.45-1.513Z" clip-rule="evenodd"/><path fill="#fff" fill-rule="evenodd" d="M9.825 29.05a.504.504 0 1 1 0 1.008.504.504 0 0 1 0-1.008Z" clip-rule="evenodd"/><defs><linearGradient id="a" x1="23.318" x2="23.318" y1="8.431" y2="19.774" gradientUnits="userSpaceOnUse"><stop stop-color="#E459FF"/><stop offset="1" stop-color="#914DFF"/></linearGradient><linearGradient id="b" x1="13.63" x2="25.248" y1="21.671" y2="29.429" gradientUnits="userSpaceOnUse"><stop stop-color="#F0A5FF"/><stop offset="1" stop-color="#FF676B"/></linearGradient><linearGradient id="c" x1="24.012" x2="24.012" y1="22.858" y2="32.549" gradientUnits="userSpaceOnUse"><stop stop-color="#6E3BFF"/><stop offset="1" stop-color="#3633FF"/></linearGradient><linearGradient id="d" x1="20.331" x2="23.322" y1="35.153" y2="38.736" gradientUnits="userSpaceOnUse"><stop stop-color="#F0A5FF"/><stop offset="1" stop-color="#FF676B"/></linearGradient></defs></svg>