<svg xmlns="http://www.w3.org/2000/svg" fill="none" aria-hidden="true" viewBox="0 0 48 48"><path fill="#00ACD7" d="m26.854 17.567.088.058c1.032.682 1.772 1.617 2.26 2.746.116.176.038.273-.196.331l-.395.101c-.895.23-1.604.425-2.487.655l-.503.131c-.181.045-.231.026-.424-.193l-.027-.032c-.275-.311-.481-.52-.845-.705l-.07-.035c-1.228-.603-2.416-.428-3.526.293-1.324.856-2.006 2.122-1.986 3.7.02 1.558 1.09 2.843 2.629 3.057 1.324.176 2.434-.292 3.31-1.285.176-.214.332-.448.527-.72h-3.76c-.408 0-.505-.254-.37-.585l.068-.159c.25-.582.639-1.42.891-1.898l.055-.103a.517.517 0 0 1 .467-.274h6.268c.281-.892.738-1.735 1.347-2.532 1.422-1.87 3.135-2.843 5.453-3.252 1.986-.35 3.856-.156 5.55.993 1.539 1.051 2.493 2.473 2.747 4.343.33 2.629-.429 4.771-2.24 6.602-1.286 1.305-2.863 2.123-4.674 2.493-.526.097-1.052.117-1.558.175-1.773-.039-3.389-.545-4.752-1.714-.96-.828-1.62-1.847-1.948-3.033-.227.46-.5.9-.818 1.32-1.402 1.85-3.233 2.999-5.55 3.31-1.909.253-3.681-.117-5.24-1.285-1.44-1.09-2.258-2.532-2.473-4.324-.253-2.122.37-4.031 1.656-5.706 1.383-1.811 3.213-2.96 5.453-3.37 1.797-.324 3.518-.124 5.073.896Zm9.265 2.79-.063.014c-1.81.41-2.98 1.558-3.408 3.389-.35 1.519.39 3.057 1.792 3.68 1.071.468 2.142.41 3.175-.116 1.538-.799 2.375-2.045 2.473-3.72-.02-.253-.02-.448-.059-.643-.346-1.906-2.083-2.994-3.91-2.604Zm-23.024 3.559c.078 0 .117.058.117.136l-.04.467c0 .078-.077.137-.135.137l-4.246-.02c-.078 0-.097-.058-.058-.117l.272-.486c.04-.059.117-.117.195-.117h3.895Zm.428-1.792c.078 0 .117.058.098.117l-.156.467c-.02.078-.097.117-.175.117l-9.212.02c-.078 0-.097-.04-.059-.098l.41-.526c.038-.058.136-.097.214-.097h8.88Zm1.013-1.792c.078 0 .098.059.059.117l-.332.506c-.038.059-.136.117-.194.117l-7.05-.02c-.078 0-.098-.038-.059-.097l.41-.525c.038-.059.136-.098.213-.098h6.953Z"/></svg>