<svg xmlns="http://www.w3.org/2000/svg" fill="none" aria-hidden="true" viewBox="0 0 48 48"><path fill="#34A853" d="M33.93 35.36v4.195A4.439 4.439 0 0 1 29.5 44a4.437 4.437 0 0 1-4.432-4.445V28.57l8.864 6.788Z"/><path fill="url(#a)" d="M33.93 8.445V35.36l-8.863-6.789V17.867l7.252-5.995a4.428 4.428 0 0 0 1.611-3.427Z"/><path fill="#EA4335" d="M33.928 8.29a4.428 4.428 0 0 1-1.609 3.58l-7.252 5.995v-9.42a4.439 4.439 0 0 1 2.02-3.727c.04-.025.076-.05.114-.073.07-.045.146-.086.214-.122l.195-.098.164-.075c.066-.027.132-.055.202-.08.066-.025.137-.047.205-.07.127-.039.257-.075.39-.102.04-.01.08-.016.123-.025a176.045 176.045 0 0 1 .246-.037 2.46 2.46 0 0 1 .186-.02c.05-.005.1-.01.15-.011.073-.003.148-.005.223-.005h.002c.162 0 .318.01.477.025a5.037 5.037 0 0 1 .475.08c.078.015.155.036.232.059.064.016.13.036.193.059a3.963 3.963 0 0 1 .546.218 4.371 4.371 0 0 1 .541.309c.011.01.023.016.034.023.111.077.218.161.325.247l.157.137.004.004a8.926 8.926 0 0 1 .298.298c.098.105.186.216.27.33.06.077.114.159.166.238.025.039.05.075.073.114.045.07.086.145.123.213.027.055.07.144.097.196a5.3 5.3 0 0 1 .152.366c.026.066.048.136.069.204a4.963 4.963 0 0 1 .107.425l.036.187c.01.05.014.1.02.15.01.061.016.122.02.186.005.05.01.1.012.15-.002.023 0 .048 0 .073Z"/><path fill="#FBBC04" d="M26.677 5.013a4.444 4.444 0 0 0-1.609 3.432v9.422l-3.764 3.116a4.375 4.375 0 0 1-2.811 1.013c-1.275 0-2.54-.55-3.414-1.616a4.458 4.458 0 0 1 .6-6.254l10.998-9.113Z"/><defs><linearGradient id="a" x1="29.499" x2="29.499" y1="35.569" y2="8.434" gradientUnits="userSpaceOnUse"><stop stop-color="#1A73E8"/><stop offset="1" stop-color="#4285F4"/></linearGradient></defs></svg>