<svg xmlns="http://www.w3.org/2000/svg" fill="none" aria-hidden="true" viewBox="0 0 48 48"><path fill="#4FC3F7" d="M29.788 29.778a8.225 8.225 0 0 1-5.4 2.393c-.123 0-.266.02-.388.02-.123 0-.266 0-.389-.02a13.118 13.118 0 0 1-6.075-1.697 12.565 12.565 0 0 1-2.782-2.128 12.977 12.977 0 0 1-2.884-4.336 13.09 13.09 0 0 1 .757-11.372A12.997 12.997 0 0 0 6 23.99c0 4.868 2.659 9.122 6.627 11.372a13.032 13.032 0 0 0 6.464 1.718A13.04 13.04 0 0 0 24 36.12a12.963 12.963 0 0 0 6.463-5.667 12.992 12.992 0 0 0 1.698-6.075 8.063 8.063 0 0 1-2.373 5.4Z"/><path fill="#4285F4" d="M33.245 9.835c-5.114-5.113-13.398-5.113-18.511 0-.86.86-1.555 1.8-2.127 2.782a13.086 13.086 0 0 0-.737 11.373 12.777 12.777 0 0 0 2.884 4.336c.86.86 1.8 1.555 2.782 2.127a13.12 13.12 0 0 0 6.075 1.698 8.268 8.268 0 0 1-5.4-2.393 8.097 8.097 0 0 1-2.393-5.768v-.02c0-2.23.573-4.46 1.718-6.464a12.568 12.568 0 0 1 2.127-2.782A12.978 12.978 0 0 1 24 11.84a13.135 13.135 0 0 1 11.393.757 13.048 13.048 0 0 0-2.148-2.761Z"/><path fill="#1A237E" d="M24 11.656a12.776 12.776 0 0 0-4.337 2.884c-.859.859-1.554 1.8-2.127 2.782a12.888 12.888 0 0 0-1.718 6.443v.102c.02-2.189.593-4.398 1.718-6.361a12.57 12.57 0 0 1 2.127-2.782A12.978 12.978 0 0 1 24 11.84a13.135 13.135 0 0 1 11.393.757l-.184-.307a13.14 13.14 0 0 0-11.21-.634Zm-9.246 16.466a12.977 12.977 0 0 1-2.884-4.337 13.088 13.088 0 0 1-.961-4.888c-.02 1.738.286 3.456.961 5.093a12.777 12.777 0 0 0 2.884 4.336c.86.86 1.8 1.555 2.782 2.127a13.12 13.12 0 0 0 6.075 1.698 8.384 8.384 0 0 1-2.536-.532 13.358 13.358 0 0 1-3.539-1.37 11.972 11.972 0 0 1-2.782-2.127Z" opacity=".2"/><path fill="#FFC107" d="M38.154 14.745a13.59 13.59 0 0 0-2.782-2.128 13.134 13.134 0 0 0-11.393-.757 12.776 12.776 0 0 0-4.336 2.885c-.86.859-1.555 1.8-2.127 2.781a13.079 13.079 0 0 0-1.698 6.443c0-2.086.798-4.172 2.393-5.768a8.225 8.225 0 0 1 5.4-2.393c.266-.02.532-.02.777 0a13.12 13.12 0 0 1 6.075 1.698 12.568 12.568 0 0 1 2.782 2.127 12.977 12.977 0 0 1 2.884 4.336 13.085 13.085 0 0 1-.757 11.373 12.568 12.568 0 0 0 2.782-2.127c5.113-5.073 5.113-13.377 0-18.47Z"/><path fill="#fff" d="M15.818 24.194a8.18 8.18 0 0 0 2.393 5.789 8.225 8.225 0 0 0 5.4 2.393c.123 0 .266.02.389.02.122 0 .266 0 .388-.02a8.268 8.268 0 0 0 5.4-2.393 8.216 8.216 0 0 0 2.352-4.889c.02-.225.041-.47.041-.695a8.176 8.176 0 0 1-2.393 5.38 8.225 8.225 0 0 1-5.4 2.392c-.122 0-.266.02-.388.02-.123 0-.266 0-.389-.02a8.268 8.268 0 0 1-5.4-2.393c-1.575-1.575-2.352-3.62-2.393-5.686v.102s0-.02 0 0Z" opacity=".2"/><path fill="#BF360C" d="M36.15 23.785a12.777 12.777 0 0 0-2.885-4.336c-.859-.86-1.8-1.555-2.781-2.127a13.12 13.12 0 0 0-6.075-1.698 4.94 4.94 0 0 0-.777 0 8.17 8.17 0 0 0-5.4 2.393 7.988 7.988 0 0 0-2.414 5.748v.122a8.118 8.118 0 0 1 2.393-5.686 8.225 8.225 0 0 1 5.4-2.393c.266-.02.532-.02.777 0a13.12 13.12 0 0 1 6.075 1.698 12.568 12.568 0 0 1 2.782 2.127 12.978 12.978 0 0 1 2.884 4.336c.634 1.575.94 3.232.94 4.889a12.807 12.807 0 0 0-.92-5.073Zm2.004 9.245a13.13 13.13 0 0 1-2.639 2.025c-.061.103-.102.205-.163.307a12.569 12.569 0 0 0 2.781-2.127 12.996 12.996 0 0 0 3.825-9.368 12.765 12.765 0 0 1-3.804 9.164Z" opacity=".2"/><path fill="#1A237E" d="M33.245 19.858a12.976 12.976 0 0 1 2.884 4.336c.634 1.575.94 3.232.94 4.889a13.233 13.233 0 0 0-.94-5.093 12.775 12.775 0 0 0-2.884-4.336 13.59 13.59 0 0 0-2.782-2.128 13.118 13.118 0 0 0-6.075-1.697c.86.04 1.718.225 2.537.531 1.227.287 2.413.737 3.538 1.37a11.98 11.98 0 0 1 2.782 2.128Z" opacity=".2"/><path fill="#fff" d="M38.154 14.745a13.59 13.59 0 0 0-2.782-2.128 12.563 12.563 0 0 0-2.127-2.782c-5.114-5.113-13.397-5.113-18.511 0-.86.86-1.555 1.8-2.127 2.782A13.078 13.078 0 0 0 6 23.99v.102a13.066 13.066 0 0 1 6.443-11.168 13.155 13.155 0 0 0-1.534 6.177c.04-2.168.593-4.336 1.698-6.28a12.568 12.568 0 0 1 2.127-2.781c5.114-5.113 13.397-5.113 18.51 0a12.61 12.61 0 0 1 1.944 2.495 13.071 13.071 0 0 0-11.209-.654 12.777 12.777 0 0 0-4.336 2.884c-.86.859-1.555 1.8-2.127 2.782a12.946 12.946 0 0 0-1.698 6.422 13.08 13.08 0 0 1 1.718-6.259 12.569 12.569 0 0 1 2.127-2.781A12.978 12.978 0 0 1 24 12.044a13.134 13.134 0 0 1 11.393.757 12.566 12.566 0 0 1 2.781 2.128A12.994 12.994 0 0 1 42 24.092c.02-3.395-1.248-6.77-3.846-9.347Z" opacity=".2"/><g filter="url(#a)"><path fill="#000" d="M36.15 23.99a12.776 12.776 0 0 0-2.884-4.336 13.59 13.59 0 0 0-2.782-2.128 13.118 13.118 0 0 0-6.075-1.697 8.17 8.17 0 0 1 5.4 2.393 8.2 8.2 0 0 1 2.373 5.359c0 .143.02.266.02.409 0 .143 0 .266-.02.409a12.993 12.993 0 0 1-1.698 6.075c-1.452 2.536-3.723 4.561-6.464 5.665a13.03 13.03 0 0 1-4.909.962c-2.352 0-4.56-.634-6.463-1.718a12.567 12.567 0 0 0 2.127 2.781c5.114 5.114 13.398 5.114 18.511 0a13.59 13.59 0 0 0 2.127-2.781 13.271 13.271 0 0 0 .737-11.393Z"/></g><path fill="#3367D6" d="M36.15 23.99a12.776 12.776 0 0 0-2.885-4.336c-.859-.86-1.8-1.555-2.781-2.128a13.118 13.118 0 0 0-6.075-1.697 8.17 8.17 0 0 1 5.4 2.393 8.2 8.2 0 0 1 2.372 5.359c0 .143.02.266.02.409 0 .143 0 .266-.02.409a12.993 12.993 0 0 1-1.697 6.075c-1.453 2.536-3.723 4.561-6.464 5.665a13.04 13.04 0 0 1-4.909.962 13.03 13.03 0 0 1-6.463-1.718 12.563 12.563 0 0 0 2.127 2.781c5.113 5.114 13.397 5.114 18.51 0 .86-.859 1.555-1.8 2.128-2.781a13.271 13.271 0 0 0 .736-11.393Z"/><path fill="#1A237E" d="M24 36.324a13.047 13.047 0 0 0 6.463-5.666 12.992 12.992 0 0 0 1.698-6.075c0-.143.02-.266.02-.41v-.101.306a12.994 12.994 0 0 1-1.697 6.075c-1.453 2.537-3.723 4.561-6.464 5.666a13.032 13.032 0 0 1-11.372-.757c.06.103.122.205.184.307a13.05 13.05 0 0 0 6.3 1.616A12.99 12.99 0 0 0 24 36.324Z" opacity=".2"/><path fill="#1A237E" d="M12.79 35.465a13.05 13.05 0 0 0 11.21.654 12.964 12.964 0 0 0 6.463-5.666 12.992 12.992 0 0 0 1.698-6.075c0 .164-.02.328-.041.491a13.037 13.037 0 0 1-1.657 5.38A13.048 13.048 0 0 1 24 35.914c-1.514.614-3.17.962-4.91.962-2.352 0-4.56-.634-6.463-1.718A13.082 13.082 0 0 1 6 23.888v.102c0 4.868 2.659 9.122 6.627 11.372" opacity=".2"/><path fill="url(#b)" d="M33.368 19.776a12.958 12.958 0 0 1 2.761 4.214 13.085 13.085 0 0 1-.757 11.372 12.565 12.565 0 0 0 2.782-2.127 12.85 12.85 0 0 0 3.252-5.42l-8.038-8.039Z"/><path fill="#1A237E" d="M35.372 35.158a12.563 12.563 0 0 1-2.127 2.782c-5.114 5.113-13.397 5.113-18.511 0a13.101 13.101 0 0 1-1.943-2.475c-.062-.041-.123-.062-.184-.103a12.565 12.565 0 0 0 2.127 2.782c5.114 5.114 13.397 5.114 18.51 0 .86-.859 1.555-1.8 2.128-2.782a12.859 12.859 0 0 0 1.698-6.484 12.747 12.747 0 0 1-1.698 6.28Z" opacity=".2"/><path fill="url(#c)" fill-opacity=".1" d="M38.154 14.745a13.59 13.59 0 0 0-2.782-2.128 12.563 12.563 0 0 0-2.127-2.782c-5.114-5.113-13.397-5.113-18.511 0-.86.86-1.555 1.8-2.127 2.782A13.078 13.078 0 0 0 6 23.99c0 4.868 2.659 9.122 6.627 11.372a12.569 12.569 0 0 0 2.127 2.782c5.114 5.114 13.398 5.114 18.511 0 .86-.859 1.555-1.8 2.128-2.782a12.566 12.566 0 0 0 2.781-2.127c5.093-5.093 5.093-13.397-.02-18.49ZM32.18 23.99A8.18 8.18 0 0 1 24 32.17a8.18 8.18 0 0 1-8.182-8.181A8.18 8.18 0 0 1 24 15.808a8.18 8.18 0 0 1 8.181 8.182Z"/><defs><radialGradient id="c" cx="0" cy="0" r="1" gradientTransform="translate(10.635 10.83) scale(35.7298)" gradientUnits="userSpaceOnUse"><stop stop-color="#fff"/><stop offset="1" stop-color="#fff" stop-opacity="0"/></radialGradient><linearGradient id="b" x1="33.485" x2="40.757" y1="26.674" y2="28.608" gradientUnits="userSpaceOnUse"><stop stop-color="#BF360C" stop-opacity=".2"/><stop offset="1" stop-color="#BF360C" stop-opacity="0"/></linearGradient><filter id="a" width="36.449" height="38.171" x="8.648" y="9.829" color-interpolation-filters="sRGB" filterUnits="userSpaceOnUse"><feFlood flood-opacity="0" result="BackgroundImageFix"/><feColorMatrix in="SourceAlpha" result="hardAlpha" values="0 0 0 0 0 0 0 0 0 0 0 0 0 0 0 0 0 0 127 0"/><feOffset dx="2"/><feGaussianBlur stdDeviation="3"/><feColorMatrix values="0 0 0 0 0.768627 0 0 0 0 0.489469 0 0 0 0 0.0235294 0 0 0 0.2 0"/><feBlend in2="BackgroundImageFix" result="effect1_dropShadow_5_2231"/><feBlend in="SourceGraphic" in2="effect1_dropShadow_5_2231" result="shape"/></filter></defs></svg>