<svg xmlns="http://www.w3.org/2000/svg" fill="none" aria-hidden="true" viewBox="0 0 48 48"><path fill="#FBBC04" d="m6 37.8 17.4-27.6h10.8v3.84l-15 23.76"/><path fill="#1A73E8" d="M34.2 37.8H23.4V10.2h10.8v27.6Z"/><path fill="#34A853" d="M42 30a7.8 7.8 0 0 1-7.8 7.8V22.2A7.8 7.8 0 0 1 42 30Z"/><path fill="#0D652D" d="M34.2 37.8a7.8 7.8 0 1 1 0-15.6v15.6Z"/><path fill="#1A73E8" d="M40.2 16.2a6 6 0 0 1-6 6v-12a6 6 0 0 1 6 6Z"/><path fill="#174EA6" d="M34.2 22.2a6 6 0 1 1 0-12v12Z"/><path fill="#EA4335" d="M6.6 15.6a5.4 5.4 0 1 1 10.8 0 5.4 5.4 0 0 1-10.8 0Z"/></svg>