<svg xmlns="http://www.w3.org/2000/svg" fill="none" aria-hidden="true" viewBox="0 0 48 48"><path fill="#EA4335" d="M16.218 12.131a1.886 1.886 0 1 1-3.773 0 1.886 1.886 0 0 1 3.773 0Zm0 7.86a1.886 1.886 0 1 1-3.773 0 1.886 1.886 0 0 1 3.773 0Zm-1.886 9.747a1.886 1.886 0 1 0 0-3.773 1.886 1.886 0 0 0 0 3.773Zm1.886 5.974a1.886 1.886 0 1 1-3.773 0 1.886 1.886 0 0 1 3.773 0Z"/><path fill="#FBBC04" d="M21.092 10.402a2.2 2.2 0 1 0 0-4.402 2.2 2.2 0 0 0 0 4.402Zm0 7.86a2.2 2.2 0 1 0 0-4.402 2.2 2.2 0 0 0 0 4.402Zm2.201 5.659a2.2 2.2 0 1 1-4.402 0 2.2 2.2 0 0 1 4.402 0Zm-2.201 10.062a2.2 2.2 0 1 0 0-4.402 2.2 2.2 0 0 0 0 4.402Zm2.201 5.817a2.2 2.2 0 1 1-4.402 0 2.2 2.2 0 0 1 4.402 0Z"/><path fill="#34A853" d="M30.367 12.21a2.594 2.594 0 1 1-5.188 0 2.594 2.594 0 0 1 5.188 0Zm0 7.86a2.594 2.594 0 1 1-5.188 0 2.594 2.594 0 0 1 5.188 0Zm-2.594 10.454a2.594 2.594 0 1 0 0-5.188 2.594 2.594 0 0 0 0 5.188Zm2.594 5.266a2.594 2.594 0 1 1-5.188 0 2.594 2.594 0 0 1 5.188 0Z"/><path fill="#4285F4" d="M37.441 16.061a2.987 2.987 0 1 1-5.974 0 2.987 2.987 0 0 1 5.974 0Zm-28.297 0a1.572 1.572 0 1 1-3.144 0 1.572 1.572 0 0 1 3.144 0Zm-1.572 9.432a1.572 1.572 0 1 0 0-3.144 1.572 1.572 0 0 0 0 3.144Zm1.572 6.289a1.572 1.572 0 1 1-3.144 0 1.572 1.572 0 0 1 3.144 0Zm25.31-4.874a2.987 2.987 0 1 0 0-5.974 2.987 2.987 0 0 0 0 5.974Zm2.987 4.874a2.987 2.987 0 1 1-5.974 0 2.987 2.987 0 0 1 5.974 0Z"/></svg>