<svg xmlns="http://www.w3.org/2000/svg" fill="none" aria-hidden="true" viewBox="0 0 48 48"><path fill="#8AB4F8" d="m26.782 38.69-5.555-5.417 11.93-12.182 5.75 5.636L26.782 38.69Z"/><path fill="#4285F4" d="m26.806 14.742-5.534-5.65L9.17 21.077a3.997 3.997 0 0 0 0 5.651l11.92 11.998 5.636-5.272-9.082-9.551 9.162-9.162Z"/><path fill="#8AB4F8" d="m38.828 21.171-12-12a4 4 0 0 0-5.657 5.657l12 12a4 4 0 0 0 5.657-5.657Z"/><path fill="#246FDB" d="M23.908 40a3.909 3.909 0 1 0 0-7.818 3.909 3.909 0 0 0 0 7.818Z"/></svg>