<svg xmlns="http://www.w3.org/2000/svg" fill="none" aria-hidden="true" viewBox="0 0 48 48"><path fill="#00A94B" d="M34.35 25.193a3.733 3.733 0 1 0 0-7.465 3.733 3.733 0 0 0 0 7.465Z"/><path fill="#FF4131" d="M38.512 17.276a3.487 3.487 0 1 0 0-6.975 3.487 3.487 0 0 0 0 6.975Z"/><path fill="#FFBC00" d="M29.415 37.756a3.493 3.493 0 0 1-3.19-2.07l-9.143-20.534a3.488 3.488 0 0 1 1.77-4.606 3.488 3.488 0 0 1 4.607 1.77l9.144 20.534a3.488 3.488 0 0 1-3.189 4.906Z"/><path fill="#0085F7" d="M18.623 37.702a3.802 3.802 0 0 1-3.473-2.253L6.329 15.628a3.797 3.797 0 0 1 6.937-3.09l8.822 19.822a3.797 3.797 0 0 1-3.464 5.342Z"/></svg>