<svg xmlns="http://www.w3.org/2000/svg" fill="none" aria-hidden="true" viewBox="0 0 48 48"><g fill-rule="evenodd" clip-rule="evenodd"><path fill="#FFC517" d="M12.258 4a2.707 2.707 0 0 0-2.706 2.715V44l11.74-5.418L33.03 44V6.715A2.709 2.709 0 0 1 35.743 4H12.258Z"/><path fill="#EEA90F" d="M38.448 6.715a2.709 2.709 0 1 0-5.418 0v29.079l5.418 2.709V6.715Z"/><path fill="#fff" d="M26.583 21.978h-5.166v2.093h2.974c-.278 1.33-1.437 2.093-2.974 2.093-1.814 0-3.276-1.428-3.276-3.201 0-1.773 1.462-3.202 3.276-3.202.781 0 1.487.271 2.041.715l1.613-1.577a5.593 5.593 0 0 0-3.654-1.354c-3.074 0-5.544 2.413-5.544 5.418 0 3.005 2.47 5.418 5.544 5.418 2.772 0 5.292-1.97 5.292-5.418 0-.32-.05-.665-.126-.985Z"/></g></svg>