<svg xmlns="http://www.w3.org/2000/svg" fill="none" aria-hidden="true" viewBox="0 0 48 48"><path fill="#E1BEE7" fill-rule="evenodd" d="M24.392 17.046c-2.578 0-4.816 1.404-6.027 3.477l4.743 2.734a2.57 2.57 0 0 0 2.569 0l4.734-2.734a6.917 6.917 0 0 0-6.019-3.477Z" clip-rule="evenodd"/><path fill="#FAFAFA" fill-rule="evenodd" d="m23.108 23.257-4.743-2.734a6.95 6.95 0 0 0 6.018 10.431 6.95 6.95 0 0 0 6.019-10.431l-4.734 2.734a2.553 2.553 0 0 1-2.56 0Z" clip-rule="evenodd"/><path fill="#7B1FA2" fill-rule="evenodd" d="m39.099 32.495-8.68-5.018a6.944 6.944 0 0 1-6.027 3.477v11.037c.413 0 .817-.11 1.184-.321l13.532-7.817s.009 0 .009-.009c.523-.294.505-1.055-.018-1.349Z" clip-rule="evenodd"/><path fill="#4A148C" fill-rule="evenodd" d="M24.392 30.954a6.944 6.944 0 0 1-6.027-3.477L8.805 33c.202.358.505.651.863.862L23.2 41.68c.367.21.77.321 1.183.321V30.954h.01Z" clip-rule="evenodd"/><path fill="#7B1FA2" fill-rule="evenodd" d="M24.392 17.046V6.009c-.413 0-.816.11-1.183.321L9.676 14.147c-.367.21-.66.514-.862.862l9.56 5.523a6.93 6.93 0 0 1 6.018-3.486Z" clip-rule="evenodd"/><path fill="#4A148C" fill-rule="evenodd" d="M39.117 14.147s-.01 0-.01-.01l-13.53-7.815A2.365 2.365 0 0 0 24.392 6v11.037a6.944 6.944 0 0 1 6.028 3.477l8.679-5.01c.523-.293.541-1.054.018-1.357Z" clip-rule="evenodd"/><path fill="#BA68C8" fill-rule="evenodd" d="M17.438 24c0-1.266.34-2.459.927-3.477L8.805 15a2.408 2.408 0 0 0-.321 1.183v15.624c0 .422.11.826.321 1.184l9.56-5.523A6.896 6.896 0 0 1 17.438 24Z" clip-rule="evenodd"/><path fill="url(#a)" fill-rule="evenodd" d="M30.42 27.477a6.94 6.94 0 0 1-6.019 3.477 7.07 7.07 0 0 1-2.89-.624l11.863 6.854 5.743-3.313a.793.793 0 0 0 0-1.376l-8.697-5.018Z" clip-rule="evenodd"/><defs><linearGradient id="a" x1="35.962" x2="32.298" y1="37.049" y2="24.446" gradientUnits="userSpaceOnUse"><stop stop-color="#1A237E" stop-opacity=".01"/><stop offset="1" stop-color="#1A237E" stop-opacity=".3"/></linearGradient></defs></svg>