<svg xmlns="http://www.w3.org/2000/svg" fill="none" aria-hidden="true" viewBox="0 0 48 48"><path fill="#1A73E8" d="M44 25.136C43.452 35.693 34.69 44 24 44 12.957 44 4 35.045 4 24 4 12.954 12.957 4 24 4h16.818A3.2 3.2 0 0 1 44 7.182v17.954Z"/><path fill="#fff" d="M40.818 4H24C12.954 4 4 12.95 4 23.989v-.005c.061-10.986 8.993-19.757 20-19.757h16.818A3.199 3.199 0 0 1 44 7.41v-.227A3.199 3.199 0 0 0 40.818 4Z" opacity=".2"/><path fill="#1A237E" fill-opacity=".2" d="M44 25.136v-.454c-.548 10.559-9.307 19.09-20 19.09-11.007 0-19.936-9.004-19.998-20L4 24c0 11.048 8.954 20.02 20 20 10.861-.02 19.516-8.323 20-19.09"/><path fill="#185ABC" d="M32.182 27.864c0 1.927-1.5 3.18-3.41 3.181H17.41c-1.907.003-3.407-1.24-3.409-3.166V29c.002 1.928 1.502 3.412 3.41 3.41h11.363c1.907-.002 3.411-1.482 3.409-3.41v-1.135Zm5.454.909c-.007.561-.752.868-1.136.454l-4.318-4.318v1.136l4.318 4.319c.455.434 1.136.16 1.136-.455v-1.136Z"/><path fill="#F1F3F4" d="m36.5 17.864-4.318 4.318v2.73l4.318 4.315c.403.427 1.137.132 1.137-.454V18.318c0-.573-.725-.859-1.137-.454Z"/><path fill="#fff" d="M28.773 15.818H17.409A3.397 3.397 0 0 0 14 19.228v8.636a3.397 3.397 0 0 0 3.41 3.409h11.363a3.397 3.397 0 0 0 3.409-3.41v-8.636a3.397 3.397 0 0 0-3.41-3.409Z"/><path fill="#BDC1C6" d="m32.182 25.182.002-.273.907.91v-4.546l-.909.909v3Z"/></svg>