<svg xmlns="http://www.w3.org/2000/svg" fill="none" aria-hidden="true" viewBox="0 0 48 48"><path fill="#0F9D58" d="M9.27 11.726h29.453v24.541H9.271v-24.54Z"/><path fill="#57BB8A" d="M30.541 24.82a1.84 1.84 0 1 0 0-3.68 1.84 1.84 0 0 0 0 3.68Zm0 1.226c-1.971 0-4.091 1.044-4.091 2.337v1.343h8.182v-1.343c0-1.293-2.12-2.337-4.091-2.337ZM17.453 24.82a1.84 1.84 0 1 0 0-3.68 1.84 1.84 0 0 0 0 3.68Zm0 1.225c-1.971 0-4.091 1.044-4.091 2.337v1.343h8.182v-1.343c0-1.293-2.12-2.337-4.091-2.337Z"/><path fill="#F7F7F7" d="M24 23.18a2.45 2.45 0 0 0 2.45-2.457c0-1.355-1.1-2.456-2.456-2.45A2.452 2.452 0 1 0 24 23.18Zm0 1.64c-2.76 0-5.726 1.468-5.726 3.271v1.635h11.452v-1.635c0-1.81-2.965-3.27-5.726-3.27Z"/><path fill="#F1F1F1" d="M27.27 34.638h7.362v1.636h-7.361v-1.636Z"/><path fill="#F4B400" d="M39.544 8.456H8.456A2.457 2.457 0 0 0 6 10.912v26.182c0 1.35 1.1 2.45 2.456 2.45h31.088c1.356 0 2.456-1.1 2.456-2.456V10.912a2.461 2.461 0 0 0-2.456-2.456Zm-.82 27.818H9.27V11.726h29.453v24.548Z"/><path fill="#fff" d="M39.544 8.456H8.456A2.457 2.457 0 0 0 6 10.912v.205c0-1.355 1.1-2.456 2.456-2.456h31.088c1.356 0 2.456 1.1 2.456 2.456v-.205a2.461 2.461 0 0 0-2.456-2.456Z" opacity=".2"/><path fill="#BF360C" d="M39.544 39.339H8.456A2.457 2.457 0 0 1 6 36.883v.205c0 1.355 1.1 2.456 2.456 2.456h31.088c1.356 0 2.456-1.1 2.456-2.456v-.205a2.461 2.461 0 0 1-2.456 2.456Z" opacity=".2"/><path fill="url(#a)" d="M34.62 36.274h-7.362l3.27 3.27h7.356l-3.264-3.27Z"/><path fill="#263238" d="M9.27 11.521h29.453v.205H9.271v-.205Z" opacity=".2"/><path fill="#fff" d="M9.27 36.274h29.453v.205H9.271v-.205Z" opacity=".2"/><path fill="url(#b)" d="M39.544 8.456H8.456A2.457 2.457 0 0 0 6 10.912v26.182c0 1.35 1.1 2.45 2.456 2.45h31.088c1.356 0 2.456-1.1 2.456-2.456V10.912a2.461 2.461 0 0 0-2.456-2.456Z"/><defs><radialGradient id="b" cx="0" cy="0" r="1" gradientTransform="matrix(42.9932 0 0 42.993 7.24 9.185)" gradientUnits="userSpaceOnUse"><stop stop-color="#fff" stop-opacity=".1"/><stop offset="1" stop-color="#fff" stop-opacity="0"/></radialGradient><linearGradient id="a" x1="32.573" x2="32.573" y1="36.317" y2="39.578" gradientUnits="userSpaceOnUse"><stop stop-color="#BF360C" stop-opacity=".2"/><stop offset="1" stop-color="#BF360C" stop-opacity=".02"/></linearGradient></defs></svg>