<svg xmlns="http://www.w3.org/2000/svg" fill="none" aria-hidden="true" viewBox="0 0 48 48"><path fill="#fff" d="M19.136 13.179H41.79v21.714H19.136V13.179Z"/><path fill="#4584F0" d="M28.98 26.293c-.79 0-1.363.595-1.363 1.418 0 .8.58 1.403 1.35 1.403.79 0 1.363-.589 1.363-1.41-.024-.83-.572-1.411-1.35-1.411Zm0-7.415c-.79 0-1.363.595-1.363 1.419 0 .799.58 1.402 1.35 1.402.79 0 1.363-.588 1.363-1.41-.024-.83-.572-1.411-1.35-1.411Zm4.414-2.132a.334.334 0 0 0-.26-.125H31.96a.326.326 0 0 0-.29.18.339.339 0 0 0 .024.345c1.427 1.96 2.116 4.187 2.116 6.828s-.689 4.89-2.115 6.881a.343.343 0 0 0-.025.346.33.33 0 0 0 .29.18h1.176a.328.328 0 0 0 .266-.133c1.57-2.085 2.33-4.453 2.33-7.251 0-2.83-.783-5.26-2.337-7.251Z"/><path fill="#3969BB" d="M43.993 34.384V18.753l-3.559-3.56c.313.415.51.932.51 1.49v14.62a2.48 2.48 0 0 1-2.47 2.47H23.8a2.49 2.49 0 0 1-1.457-.479l3.559 3.559h15.622a2.475 2.475 0 0 0 2.47-2.47Z"/><path fill="#4584F0" d="M41.516 11.14H18.602c-1.355 0-2.5-.118-4.295 1.67l-8.717 8.2c-2.116 2.116-2.124 3.857 0 5.981l8.717 8.2c1.7 1.7 2.931 1.67 4.295 1.67H25.9l-3.559-3.559a2.457 2.457 0 0 1-1.012-1.991v-14.62a2.48 2.48 0 0 1 2.47-2.47h14.674a2.43 2.43 0 0 1 1.49.51c.18.132.337.298.478.478L44 18.768v-5.142a2.495 2.495 0 0 0-2.484-2.486Zm-28.76 15.993a3.135 3.135 0 1 1 0-6.272 3.134 3.134 0 0 1 3.135 3.136 3.14 3.14 0 0 1-3.136 3.136Z"/></svg>