<svg xmlns="http://www.w3.org/2000/svg" fill="none" aria-hidden="true" viewBox="0 0 48 48"><path fill="#fff" d="M33.474 14.526H14.526v18.948h18.948V14.526Z"/><path fill="#EA4335" d="M33.474 42 42 33.474l-4.263-.728-4.263.728-.778 3.9.778 4.626Z"/><path fill="#188038" d="M6 33.474v5.684A2.841 2.841 0 0 0 8.842 42h5.684l.876-4.263-.876-4.263-4.645-.728L6 33.474Z"/><path fill="#1967D2" d="M42 14.526V8.842A2.841 2.841 0 0 0 39.158 6h-5.684c-.52 2.114-.778 3.67-.778 4.668 0 .998.259 2.284.778 3.858 1.885.54 3.306.81 4.263.81.956 0 2.377-.27 4.263-.81Z"/><path fill="#FBBC04" d="M42 14.526h-8.526v18.948H42V14.526Z"/><path fill="#34A853" d="M33.474 33.474H14.526V42h18.948v-8.526Z"/><path fill="#4285F4" d="M33.474 6H8.842A2.841 2.841 0 0 0 6 8.842v24.632h8.526V14.526h18.948V6Z"/><path fill="#4285F4" d="M18.413 29.225c-.708-.479-1.199-1.178-1.466-2.101l1.643-.677c.15.568.41 1.008.782 1.321.37.313.82.467 1.345.467.538 0 1-.164 1.386-.49.386-.328.58-.744.58-1.249 0-.516-.204-.938-.611-1.264-.407-.327-.919-.49-1.53-.49h-.95v-1.628h.853c.526 0 .969-.142 1.329-.426.36-.284.54-.673.54-1.168 0-.44-.161-.79-.483-1.054-.323-.263-.73-.395-1.225-.395-.483 0-.867.128-1.151.386a2.267 2.267 0 0 0-.62.95l-1.628-.678c.216-.61.611-1.15 1.192-1.617.58-.467 1.321-.702 2.221-.702.666 0 1.265.128 1.796.387.53.258.947.615 1.248 1.07.3.457.45.969.45 1.537 0 .58-.14 1.07-.42 1.473-.28.403-.622.71-1.03.926v.097c.526.217.983.574 1.322 1.03.343.462.516 1.014.516 1.659a3.1 3.1 0 0 1-.49 1.724c-.327.504-.78.902-1.353 1.191-.575.29-1.222.436-1.94.436a4.015 4.015 0 0 1-2.306-.715Zm10.096-8.157-1.804 1.305-.903-1.37 3.238-2.334h1.241v11.015h-1.772v-8.616Z"/></svg>