<svg xmlns="http://www.w3.org/2000/svg" fill="none" aria-hidden="true" viewBox="0 0 48 48"><g id="google-slides-Icon"><g id="Group"><path id="Path" fill="#F4B400" d="M27.2697 6H13.3622C12.0122 6 10.9077 7.10376 10.9077 8.45376V39.5462C10.9077 40.8962 12.0115 42 13.3615 42H34.631C35.981 42 37.0848 40.8962 37.0848 39.5462V15.8158L31.3543 11.7233L27.2697 6Z"/><path id="Shape" fill="#F1F1F1" d="M29.3161 22.362H18.6846C18.0092 22.362 17.4541 22.9171 17.4541 23.5925V34.2305C17.4541 34.9058 18.0092 35.461 18.6846 35.461H29.3226C29.9979 35.461 30.5531 34.9058 30.5531 34.2305V23.5925C30.5466 22.9171 29.9907 22.362 29.3161 22.362ZM28.9079 31.7695H19.0928V26.039H28.9086V31.7695H28.9079Z"/><path id="Path_1_" fill="url(#paint0_linear_94_17848)" d="M27.9941 15.0986L37.0928 24.1966V15.8158L27.9941 15.0986Z"/><path id="Path_2_" fill="#FADA80" d="M27.2715 6.003V13.365C27.2715 14.7222 28.368 15.8188 29.7252 15.8188H37.0872L27.2715 6.003Z"/><path id="Path_3_" fill="white" fill-opacity="0.1" d="M27.2695 6V6.20376L36.888 15.8158H37.0925L27.2695 6Z"/><path id="Path_4_" fill="white" fill-opacity="0.2" d="M13.3622 6C12.0122 6 10.9077 7.10376 10.9077 8.45376V8.65752C10.9077 7.30752 12.0115 6.20376 13.3615 6.20376H27.269V6H13.3622Z"/><path id="Path_5_" fill="#BF360C" fill-opacity="0.2" d="M34.638 41.7962H13.362C12.012 41.7962 10.9082 40.6925 10.9082 39.3425V39.5462C10.9082 40.8962 12.012 42 13.362 42H34.6315C35.9815 42 37.0852 40.8962 37.0852 39.5462V39.3425C37.0924 40.6925 35.988 41.7962 34.638 41.7962Z"/><path id="Path_6_" fill="#BF360C" fill-opacity="0.1" d="M29.7306 15.8158C28.3734 15.8158 27.2769 14.7192 27.2769 13.362V13.5658C27.2769 14.923 28.3734 16.0195 29.7306 16.0195H37.0926V15.8158H29.7306Z"/><path id="Path_7_" fill="url(#paint1_radial_94_17848)" d="M27.2697 6H13.3622C12.0122 6 10.9077 7.10376 10.9077 8.45376V39.5462C10.9077 40.8962 12.0115 42 13.3615 42H34.631C35.981 42 37.0848 40.8962 37.0848 39.5462V15.8158L27.2697 6Z"/></g></g><defs><linearGradient id="paint0_linear_94_17848" x1="32.5432" x2="32.5432" y1="15.8826" y2="24.201" gradientUnits="userSpaceOnUse"><stop stop-color="#BF360C" stop-opacity="0.2"/><stop offset="1" stop-color="#BF360C" stop-opacity="0.02"/></linearGradient><radialGradient id="paint1_radial_94_17848" cx="0" cy="0" r="1" gradientTransform="translate(11.74 6.976) scale(42.218)" gradientUnits="userSpaceOnUse"><stop stop-color="white" stop-opacity="0.1"/><stop offset="1" stop-color="white" stop-opacity="0"/></radialGradient></defs></svg>