<svg xmlns="http://www.w3.org/2000/svg" fill="none" aria-hidden="true" viewBox="0 0 48 48"><path fill="#255FDB" d="M18.411 27.751c-6.135-8.117-12.434-1.949-10.79 3.724 4.136 9.046 14.822 13.026 23.867 8.89a18.008 18.008 0 0 0 7.628-6.59c-4.743 4.443-13.355 3.7-20.705-6.024Z"/><path fill="#4285F4" d="M23.896 22.162C15.458 9.364 6 16.184 6 24.002a17.906 17.906 0 0 0 1.636 7.502c-1.123-5.299 4.965-9.385 10.634-1.78 8.232 11.044 16.31 9.101 20.83 4.076a17.923 17.923 0 0 0 2.744-7.386v.034c-1.94 6.021-10.506 7-17.948-4.286Z"/><path fill="#91BFFF" d="M29.68 16.436c-6.266-10.338-14.211-9.408-19.59-3.867A17.937 17.937 0 0 0 6 24.002c.562-7.567 9.714-12.833 17.997 0 7.362 11.421 16.534 8.446 17.839 2.478v-.057c.114-.813.163-1.634.145-2.454v-.818c-3.188 2.282-7.38 1.4-12.301-6.716Z"/><path fill="#C4E1FF" d="M29.723 18.276c5.738 9.226 10.685 6.866 12.27 4.892a17.944 17.944 0 0 0-.665-4.074c-2.675.055-3.298-.39-5.93-4.399-4.023-6.164-9.09-10.325-17.946-7.462a18.097 18.097 0 0 0-7.362 5.344c6.084-5.6 13.549-4.08 19.633 5.7Z"/><path fill="#F5F5F5" d="M35.005 15.489c2.624 4.014 4.221 4.219 6.323 3.605-2.726-9.574-12.697-15.126-22.272-12.4-.543.154-1.078.334-1.604.539 7.91-2.495 13.52 2.09 17.553 8.256Z"/><path fill="url(#a)" fill-opacity=".1" d="M23.997 42c9.939 0 17.996-8.058 17.996-17.997 0-9.94-8.057-17.997-17.996-17.997C14.057 6.006 6 14.063 6 24.003c0 9.939 8.057 17.996 17.997 17.996Z"/><path fill="#fff" fill-opacity=".2" d="M23.997 6.21c9.899 0 17.94 7.995 17.996 17.895v-.102c0-9.94-8.057-17.997-17.996-17.997C14.057 6.006 6 14.063 6 24.003v.102c.056-9.9 8.097-17.895 17.997-17.895Z"/><path fill="#1A237E" fill-opacity=".2" d="M23.997 41.795C14.097 41.795 6.057 33.8 6 23.9v.103c0 9.939 8.057 17.996 17.997 17.996 9.939 0 17.996-8.057 17.996-17.997V23.9c-.056 9.9-8.097 17.895-17.996 17.895Z"/><defs><radialGradient id="a" cx="0" cy="0" r="1" gradientTransform="translate(11.436 11.442) scale(35.7561)" gradientUnits="userSpaceOnUse"><stop stop-color="#fff"/><stop offset="1" stop-color="#fff" stop-opacity="0"/></radialGradient></defs></svg>