<svg xmlns="http://www.w3.org/2000/svg" fill="none" aria-hidden="true" viewBox="0 0 48 48"><path fill="#EA4335" d="M13.816 8.932a8.975 8.975 0 0 1 5.857 1.268c.977.576 1.759 1.41 2.56 2.2.582.569 1.157 1.145 1.74 1.713l.022.059c-.436.428-.93 1.286-1.483 2.572-1.16.408-1.95.82-2.374 1.235-.944-.909-1.858-1.85-2.799-2.764-.894-.838-2.246-1.175-3.417-.79-1.335.374-2.353 1.65-2.423 3.035-.046.72.142 1.452.531 2.06.243.391.597.69.915 1.017.763.767 1.545 1.516 2.297 2.294-.402.395-.877 1.159-1.426 2.292-1.169.553-1.98 1.057-2.432 1.51-1.015-.954-1.986-1.96-2.992-2.925a8.623 8.623 0 0 1-2.275-4.568 8.788 8.788 0 0 1 .832-5.408 8.99 8.99 0 0 1 3.097-3.432c1.139-.716 2.429-1.218 3.77-1.368Z"/><path fill="#34A853" d="m24.012 31.47 8.776-8.65 2.373 1.409 1.485 2.413L24.012 39.14l-8.764-8.67 1.682-2.367 2.2-1.465 4.882 4.83Z"/><path fill="#FBBC05" d="m20.146 17.988 2.207 1.194 1.659 2.639-8.764 8.65-3.864-3.837 8.762-8.646Z"/><path fill="#4285F4" d="M34.594 8.985c2.572.436 4.937 2.042 6.234 4.314 1.476 2.495 1.557 5.734.247 8.316-.544 1.11-1.373 2.046-2.256 2.896-.733.7-1.428 1.448-2.173 2.13a604.44 604.44 0 0 1-3.858-3.821c.91-.92 1.836-1.825 2.75-2.742a3.415 3.415 0 0 0 .988-2.251 3.415 3.415 0 0 0-1.027-2.583c-.705-.666-1.691-1.046-2.663-.965a3.426 3.426 0 0 0-2.23 1.01c-2.2 2.176-4.393 4.357-6.594 6.532-1.294-1.272-2.59-2.543-3.866-3.833l-.008-.009c1.29-1.266 2.57-2.54 3.857-3.807.933-.92 1.863-1.842 2.796-2.762 1.21-1.215 2.804-2.01 4.47-2.376a9.653 9.653 0 0 1 3.333-.049Z"/></svg>