<svg xmlns="http://www.w3.org/2000/svg" fill="none" aria-hidden="true" viewBox="0 0 48 48"><path fill="#FBBC04" d="M28.225 17.605c1.448-2.478.588-5.645-1.92-7.076-2.508-1.429-5.715-.582-7.162 1.896a5.639 5.639 0 0 0-.18.34l-4.894 8.372a6.163 6.163 0 0 0-.3.514l-5.082 8.77 9.081 5.09 5.056-8.696a4.99 4.99 0 0 0 .3-.514l4.895-8.373c.07-.105.142-.212.206-.323Z"/><path fill="#34A853" d="M17.81 35.484c-1.439 2.518-4.686 3.444-7.179 1.991-2.494-1.453-3.38-4.606-1.939-7.123 1.44-2.516 4.659-3.447 7.153-1.994 2.494 1.454 3.405 4.609 1.965 7.125"/><path fill="#4285F4" d="M37.407 19.262a5.192 5.192 0 0 0-7.082 1.892l-5.185 8.959a5.165 5.165 0 0 0 1.884 7.057l.014.008a5.192 5.192 0 0 0 7.083-1.893l5.184-8.958a5.166 5.166 0 0 0-1.886-7.058l-.012-.007Z"/></svg>