<svg xmlns="http://www.w3.org/2000/svg" fill="none" aria-hidden="true" viewBox="0 0 48 48"><g id="google-files-Icon"><g id="Group"><path id="green" fill="#34A853" d="M20.6916 12.9532H8.46729C7.1215 12.9532 6 14.0747 6 15.4205V28.2055C6 27.8691 6.11215 27.5326 6.33645 27.3083L20.6916 12.9532Z"/><path id="blue" fill="#4285F4" d="M39.5327 38.2991H8.46729C7.1215 38.2991 6 37.1776 6 35.8318V28.2056C6 27.8692 6.11215 27.5327 6.33645 27.3084L23.6075 10.0374C23.8318 9.81308 24.1682 9.70093 24.5047 9.70093H39.5327C40.8785 9.70093 42 10.8224 42 12.1682V35.9439C42 37.2897 40.8785 38.2991 39.5327 38.2991V38.2991Z"/><path id="red" fill="#EA4335" d="M23.6075 10.0374L6.33645 27.3084C6.11215 27.5327 6 27.8692 6 28.2056V28.3178C6 27.9813 6.2243 27.757 6.56075 27.757H21.4766C22.8224 27.757 23.9439 26.6355 23.9439 25.2897V10.3738C23.9439 10.0374 24.1682 9.81308 24.5047 9.70093H24.3925C24.1682 9.70093 23.8318 9.81308 23.6075 10.0374V10.0374Z"/><path id="yellow" fill="#FBBC04" d="M6 28.3179C6 27.8693 6.33645 27.4207 6.78505 27.3085L17.6636 23.8319C18.785 23.4954 19.6822 22.5982 20.0187 21.4767L23.4953 10.5982C23.6075 10.1496 24.0561 9.81319 24.6168 9.81319H24.5047C24.1682 9.81319 23.8318 9.92534 23.6075 10.1496L6.33645 27.3085C6.11215 27.5328 6 27.8693 6 28.3179H6Z"/></g></g></svg>