<svg xmlns="http://www.w3.org/2000/svg" fill="none" aria-hidden="true" viewBox="0 0 48 48"><path fill="#0535C1" d="M24 42c9.941 0 18-8.059 18-18S33.941 6 24 6 6 14.059 6 24s8.059 18 18 18Z"/><mask id="a" width="11" height="8" x="28" y="16" maskUnits="userSpaceOnUse" style="mask-type:alpha"><path fill="#fff" d="M35.864 18.613h-1.077a3.323 3.323 0 1 0-3.134 4.433h4.21a2.217 2.217 0 0 0 0-4.433Z"/></mask><g mask="url(#a)"><path fill="#EAEAEA" d="M35.864 18.613h-1.077a3.323 3.323 0 1 0-3.134 4.433h4.21a2.217 2.217 0 0 0 0-4.433Z"/><path fill="#fff" fill-opacity=".2" d="M38.08 20.856v-.027a2.217 2.217 0 0 0-2.216-2.216h-1.109v.056h1.108c1.213 0 2.2.975 2.216 2.187Z"/><path fill="url(#b)" d="M39.22 23.046h-7.567l3.136-4.433 4.431 4.433Z"/><mask id="c" width="8" height="6" x="31" y="18" maskUnits="userSpaceOnUse" style="mask-type:alpha"><path fill="#fff" d="M35.863 18.613h-4.21v4.432h4.21a2.217 2.217 0 0 0 0-4.432Z"/></mask><g mask="url(#c)"><g filter="url(#d)"><path fill="#000" d="m31.653 16.398 1.797 5.675c.6-.603 1.527-1.434 1.527-2.352a3.325 3.325 0 0 0-3.324-3.323Z"/></g><path fill="#E1E1E1" d="m31.653 16.398 1.797 5.675c.6-.603 1.527-1.434 1.527-2.352a3.325 3.325 0 0 0-3.324-3.323Z"/></g><path fill="#EEE" d="M31.653 23.045a3.324 3.324 0 1 0 0-6.647 3.324 3.324 0 0 0 0 6.647Z"/><path fill="#fff" fill-opacity=".2" d="M31.653 16.453a3.326 3.326 0 0 1 3.324 3.297v-.026a3.323 3.323 0 0 0-6.648-.003v.027a3.325 3.325 0 0 1 3.324-3.295Z"/><path fill="#212121" fill-opacity=".1" d="M35.864 22.99h-4.21a3.326 3.326 0 0 1-3.325-3.297v.027a3.325 3.325 0 0 0 3.324 3.323h4.21a2.217 2.217 0 0 0 2.216-2.215V20.8a2.217 2.217 0 0 1-2.215 2.19v-.001Z"/></g><path fill="url(#e)" d="M35.864 18.613h-1.077a3.323 3.323 0 1 0-3.134 4.433h4.21a2.217 2.217 0 0 0 0-4.433Z"/><path fill="#FFF176" d="M19.09 13.568h9.41v8.182h-9.41v-8.182Z"/><path fill="#fff" d="M18.068 26.045h11.25v11.25h-11.25v-11.25Z"/><path fill="#F4481E" d="M30.545 20.932h1.637v3.272H15.818v-3.272h1.636v-6.546L24 10.296l6.545 4.09v6.546Zm-3.273 0V16.2L24 14.155 20.727 16.2v4.732h6.546Z"/><path fill="#F4481E" d="m15.091 39.644 2.773-18.712h12.272l2.772 18.712A17.916 17.916 0 0 1 24 42c-3.24 0-6.282-.857-8.909-2.356Zm12.573-13.067-7.699 2.502-.936 6.316 9.485-3.082-.85-5.736Z"/><path fill="url(#f)" d="m30.53 24.204 2.287 15.44A17.916 17.916 0 0 1 23.908 42 17.92 17.92 0 0 1 15 39.644l2.287-15.44h-1.469v-3.272h1.636v-6.546L24 10.296l6.545 4.09v6.546h1.636v3.272H30.53Z"/><path fill="url(#g)" d="M24 20.932h-6.546v-6.546L24 10.296v10.636Z"/><path fill="url(#h)" d="M24 42a17.987 17.987 0 0 1-8.909-2.356l2.051-15.44H24V42Z"/><path fill="url(#i)" d="M24 20.932h-8.182v3.273H24v-3.273Z"/><path fill="url(#j)" d="M24 42c9.941 0 18-8.059 18-18S33.941 6 24 6 6 14.059 6 24s8.059 18 18 18Z"/><mask id="k" width="12" height="8" x="10" y="20" maskUnits="userSpaceOnUse" style="mask-type:alpha"><path fill="#fff" d="M19.09 22.772h-1.242a3.833 3.833 0 0 0-3.615-2.556 3.837 3.837 0 0 0-3.835 3.835 3.837 3.837 0 0 0 3.835 3.835h4.858a2.558 2.558 0 0 0 0-5.114Z"/></mask><g mask="url(#k)"><path fill="#FAFAFA" d="M19.09 22.772h-1.242a3.833 3.833 0 0 0-3.615-2.556 3.837 3.837 0 0 0-3.835 3.835 3.837 3.837 0 0 0 3.835 3.835h4.858a2.558 2.558 0 0 0 0-5.114Z"/><path fill="#fff" fill-opacity=".2" d="M21.648 25.36v-.03a2.558 2.558 0 0 0-2.557-2.558h-1.278v.065h1.278a2.557 2.557 0 0 1 2.557 2.523Z"/><path fill="url(#l)" d="M22.964 27.886h-8.731l3.618-5.114 5.113 5.114Z"/><mask id="m" width="8" height="6" x="14" y="22" maskUnits="userSpaceOnUse" style="mask-type:alpha"><path fill="#fff" d="M19.09 22.772h-4.857v5.114h4.858a2.558 2.558 0 0 0 0-5.114Z"/></mask><g mask="url(#m)"><g filter="url(#n)"><path fill="#000" d="m14.233 20.216 2.073 6.548c.694-.696 1.762-1.655 1.762-2.713a3.837 3.837 0 0 0-3.835-3.835Z"/></g><path fill="#E1E1E1" d="m14.233 20.216 2.073 6.548c.694-.696 1.762-1.655 1.762-2.713a3.837 3.837 0 0 0-3.835-3.835Z"/></g><path fill="#fff" d="M14.233 27.886a3.835 3.835 0 1 0 0-7.67 3.835 3.835 0 0 0 0 7.67Z"/><path fill="#fff" fill-opacity=".2" d="M14.233 20.28c2.107 0 3.817 1.7 3.835 3.804v-.03a3.835 3.835 0 0 0-7.67-.002v.03a3.836 3.836 0 0 1 3.835-3.802Z"/><path fill="#212121" fill-opacity=".1" d="M19.09 27.822h-4.857a3.837 3.837 0 0 1-3.835-3.804v.03a3.837 3.837 0 0 0 3.835 3.836h4.858a2.558 2.558 0 0 0 2.557-2.557v-.031a2.558 2.558 0 0 1-2.557 2.526Z"/></g><path fill="url(#o)" d="M19.09 22.772h-1.242a3.833 3.833 0 0 0-3.615-2.556 3.837 3.837 0 0 0-3.835 3.835 3.837 3.837 0 0 0 3.835 3.835h4.858a2.558 2.558 0 0 0 0-5.114Z"/><g opacity=".1"><path fill="#fff" d="M24 6.188c9.91 0 17.947 8.008 17.998 17.906L42 24c0-9.94-8.06-18-18-18S6 14.06 6 24l.002.094C6.053 14.196 14.09 6.188 24 6.188Z" opacity=".1"/><path fill="#263238" d="M41.998 23.906C41.947 33.804 33.91 41.812 24 41.812c-9.91 0-17.947-8.008-17.998-17.906L6 24c0 9.94 8.06 18 18 18s18-8.06 18-18l-.002-.094Z" opacity=".1"/></g><path fill="url(#p)" d="M24 42c9.941 0 18-8.059 18-18S33.941 6 24 6 6 14.059 6 24s8.059 18 18 18Z"/><defs><linearGradient id="b" x1="35.436" x2="35.436" y1="18.623" y2="23.033" gradientUnits="userSpaceOnUse"><stop stop-color="#212121" stop-opacity=".04"/><stop offset=".66" stop-color="#212121" stop-opacity="0"/></linearGradient><linearGradient id="f" x1="21.526" x2="34.129" y1="16.75" y2="37.519" gradientUnits="userSpaceOnUse"><stop stop-color="#fff" stop-opacity=".1"/><stop offset="1" stop-color="#fff" stop-opacity="0"/></linearGradient><linearGradient id="g" x1="21.967" x2="18.709" y1="17.29" y2="15.704" gradientUnits="userSpaceOnUse"><stop stop-color="#262626" stop-opacity=".1"/><stop offset="1" stop-color="#262626" stop-opacity="0"/></linearGradient><linearGradient id="h" x1="20.662" x2="11.505" y1="26.533" y2="37.207" gradientUnits="userSpaceOnUse"><stop stop-color="#262626" stop-opacity=".1"/><stop offset="1" stop-color="#262626" stop-opacity="0"/></linearGradient><linearGradient id="i" x1="24" x2="15.818" y1="22.568" y2="22.568" gradientUnits="userSpaceOnUse"><stop stop-color="#262626" stop-opacity=".1"/><stop offset="1" stop-color="#262626" stop-opacity="0"/></linearGradient><linearGradient id="l" x1="18.598" x2="18.598" y1="22.784" y2="27.872" gradientUnits="userSpaceOnUse"><stop stop-color="#212121" stop-opacity=".04"/><stop offset=".66" stop-color="#212121" stop-opacity="0"/></linearGradient><radialGradient id="e" cx="0" cy="0" r="1" gradientTransform="translate(21.901 17.346) scale(9.61039)" gradientUnits="userSpaceOnUse"><stop stop-color="#fff" stop-opacity=".1"/><stop offset="1" stop-color="#fff" stop-opacity="0"/></radialGradient><radialGradient id="j" cx="0" cy="0" r="1" gradientTransform="translate(11.216 11.25) scale(35.9903)" gradientUnits="userSpaceOnUse"><stop stop-color="#fff" stop-opacity=".1"/><stop offset="1" stop-color="#fff" stop-opacity="0"/></radialGradient><radialGradient id="o" cx="0" cy="0" r="1" gradientTransform="translate(9.778 21.31) scale(11.0889)" gradientUnits="userSpaceOnUse"><stop stop-color="#fff" stop-opacity=".1"/><stop offset="1" stop-color="#fff" stop-opacity="0"/></radialGradient><radialGradient id="p" cx="0" cy="0" r="1" gradientTransform="translate(11.216 11.25) scale(35.9903)" gradientUnits="userSpaceOnUse"><stop stop-color="#fff" stop-opacity=".1"/><stop offset="1" stop-color="#fff" stop-opacity="0"/></radialGradient><filter id="d" width="11.324" height="13.675" x="27.653" y="14.398" color-interpolation-filters="sRGB" filterUnits="userSpaceOnUse"><feFlood flood-opacity="0" result="BackgroundImageFix"/><feColorMatrix in="SourceAlpha" result="hardAlpha" values="0 0 0 0 0 0 0 0 0 0 0 0 0 0 0 0 0 0 127 0"/><feOffset dy="2"/><feGaussianBlur stdDeviation="2"/><feColorMatrix values="0 0 0 0 0 0 0 0 0 0 0 0 0 0 0 0 0 0 0.2 0"/><feBlend in2="BackgroundImageFix" result="effect1_dropShadow_5_1883"/><feBlend in="SourceGraphic" in2="effect1_dropShadow_5_1883" result="shape"/></filter><filter id="n" width="11.835" height="14.548" x="10.233" y="18.216" color-interpolation-filters="sRGB" filterUnits="userSpaceOnUse"><feFlood flood-opacity="0" result="BackgroundImageFix"/><feColorMatrix in="SourceAlpha" result="hardAlpha" values="0 0 0 0 0 0 0 0 0 0 0 0 0 0 0 0 0 0 127 0"/><feOffset dy="2"/><feGaussianBlur stdDeviation="2"/><feColorMatrix values="0 0 0 0 0 0 0 0 0 0 0 0 0 0 0 0 0 0 0.1 0"/><feBlend in2="BackgroundImageFix" result="effect1_dropShadow_5_1883"/><feBlend in="SourceGraphic" in2="effect1_dropShadow_5_1883" result="shape"/></filter></defs></svg>