<svg xmlns="http://www.w3.org/2000/svg" fill="none" aria-hidden="true" viewBox="0 0 48 48"><path fill="#EA4335" d="M39.14 14.192a7.756 7.756 0 0 0-10.591 2.84l-5.401 9.355c-1.563 2.702.449 3.646 2.692 4.991l5.198 3a3.678 3.678 0 0 0 5.023-1.345l5.552-9.615a6.753 6.753 0 0 0-2.473-9.226Z"/><path fill="#FBBC04" d="m33.029 18.065-5.197-3c-2.87-1.593-4.494-1.698-5.672.174l-7.665 13.275a7.743 7.743 0 0 0 2.84 10.58 6.753 6.753 0 0 0 9.225-2.473l7.812-13.531a3.674 3.674 0 0 0-1.343-5.025Z"/><path fill="#34A853" d="m34.03 11.24-3.65-2.108a8.44 8.44 0 0 0-11.532 3.09l-6.95 12.037a3.713 3.713 0 0 0 1.359 5.073l4.088 2.36a4.22 4.22 0 0 0 5.765-1.544l7.94-13.752a5.954 5.954 0 0 1 8.135-2.179l-5.156-2.976Z"/><path fill="#4285F4" d="m19.836 15.665-3.946-2.273a3.681 3.681 0 0 0-5.023 1.343l-4.735 8.18c-2.33 4.027-.948 9.178 3.09 11.502l3.004 1.73 3.643 2.099 1.581.91c-2.807-1.88-3.698-5.644-1.982-8.61l1.226-2.117 4.489-7.757a3.663 3.663 0 0 0-1.347-5.007Z"/></svg>