<svg xmlns="http://www.w3.org/2000/svg" fill="none" aria-hidden="true" viewBox="0 0 48 48"><g id="google-optimize-Icon"><g id="Group"><path id="Vector" fill="#B366F6" d="M28.8845 23.9305C28.8286 21.5066 26.8325 19.5791 24.4082 19.6078H12.8662V28.2533H20.3414V35.5237C20.2777 36.6737 20.6842 37.8002 21.4677 38.6444C22.2513 39.4886 23.3444 39.9779 24.4959 40C25.6715 39.9884 26.7943 39.5103 27.6174 38.6708C28.4404 37.8313 28.8962 36.6992 28.8845 35.5237V23.9305Z"/><path id="Vector_2" fill="#8430CE" d="M12.8149 28.3484C15.2265 28.3484 17.1815 26.3934 17.1815 23.9817C17.1815 21.5701 15.2265 19.6151 12.8149 19.6151C10.4032 19.6151 8.44824 21.5701 8.44824 23.9817C8.44824 26.3934 10.4032 28.3484 12.8149 28.3484Z"/><path id="Vector_3" fill="#C58AF8" d="M39.5416 12.3447C39.5175 9.9381 37.5597 8 35.153 8H23.3477C21.105 8.22512 19.3975 10.1126 19.3975 12.3666C19.3975 14.6206 21.105 16.5081 23.3477 16.7333H30.9107V23.9963C30.8454 25.5818 31.6541 27.0756 33.0173 27.8877C34.3805 28.6999 36.0791 28.6999 37.4423 27.8877C38.8055 27.0756 39.6141 25.5818 39.5489 23.9963L39.5416 12.3447Z"/></g></g></svg>