<svg xmlns="http://www.w3.org/2000/svg" fill="none" aria-hidden="true" viewBox="0 0 48 48"><g id="google-streetview-Icon"><g id="Group"><g id="Group_2"><path id="Vector" fill="#139F5A" d="M36.8396 9.4611C36.6 9.38693 36.3457 9.34692 36.0825 9.34692H8.58518C7.16736 9.34692 6.00732 10.507 6.00732 11.9248V39.4221C6.00732 39.6853 6.04734 39.9396 6.1215 40.1793L36.8396 9.4611H36.8396Z"/><path id="Vector_2" fill="#CDCDCD" d="M38.5606 40.1314L38.5664 40.1105L38.5757 40.0763L38.5816 40.0535L38.5906 40.0171L38.5951 39.9983L38.6065 39.9459L38.6106 39.9256L38.6177 39.8888L38.6217 39.8672L38.6287 39.8251L38.6311 39.8105L38.6389 39.7554L38.6412 39.7364L38.6459 39.6962L38.6479 39.6764L38.6524 39.6268L38.6531 39.6182L38.6568 39.5607L38.6577 39.5424L38.6593 39.4997L38.6598 39.4811L38.6606 39.422L38.6606 39.422V11.9248C38.6606 11.6616 38.6206 11.4073 38.5464 11.1677L7.82812 41.8858C8.06777 41.96 8.32208 42 8.58526 42L36.1597 41.9987L36.2036 41.9971L36.2209 41.9962L36.2792 41.9925L36.2861 41.9919L36.3374 41.9873L36.3563 41.9853L36.3977 41.9805L36.4157 41.9783L36.4714 41.9705L36.4845 41.9684L36.5283 41.9611L36.5489 41.9573L36.587 41.95L36.6062 41.9461L36.6592 41.9345L36.6766 41.9303L36.7145 41.921L36.7364 41.9153L36.7718 41.9057L36.7915 41.9002L36.8398 41.8858L36.8397 41.8858C37.6515 41.6345 38.2951 40.991 38.5463 40.1792L38.5463 40.1792L38.5607 40.1314H38.5606Z"/><path id="Vector_3" fill="#F5F5F5" d="M36.0825 9.34692L6.00732 39.4221C6.00732 40.8399 7.16736 42 8.58518 42H9.01483L38.6604 12.3545V11.9248C38.6604 10.507 37.5004 9.34694 36.0825 9.34694L36.0825 9.34692Z"/><path id="Vector_4" fill="white" d="M36.0825 9.34692H8.58518C7.16736 9.34692 6.00732 10.507 6.00732 11.9248V12.1396C6.00732 10.7218 7.16736 9.56177 8.58518 9.56177H36.0825C37.5003 9.56177 38.6604 10.7218 38.6604 12.1396V11.9248C38.6604 10.507 37.5003 9.34692 36.0825 9.34692H36.0825Z" opacity="0.2"/><path id="Vector_5" fill="url(#paint0_linear_94_18168)" d="M32.6674 25.8532H38.66V20.511L27.3154 20.634L32.6674 25.8532Z"/><path id="Vector_6" fill="#FFC108" d="M29.2171 25.4542C26.9056 26.0921 22.2495 27.8097 22.2495 30.4509V42H36.0824L36.1419 41.9992L36.1595 41.9987L36.2034 41.997L36.2207 41.9962L36.279 41.9925L36.2859 41.9919L36.3373 41.9873L36.3562 41.9853L36.3976 41.9805L36.4155 41.9783L36.4712 41.9705L36.4844 41.9684L36.5281 41.9611L36.5487 41.9573L36.5869 41.95L36.606 41.9461L36.659 41.9345L36.6764 41.9303L36.7143 41.921L36.7363 41.9153L36.7716 41.9057L36.7914 41.9002L36.8396 41.8858L36.8396 41.8858C37.6513 41.6345 38.2949 40.991 38.5462 40.1792L38.5462 40.1792L38.5605 40.1313L38.5663 40.1104L38.5756 40.0762L38.5815 40.0534L38.5904 40.017L38.595 39.9982L38.6064 39.9458L38.6105 39.9256L38.6176 39.8888L38.6216 39.8671L38.6286 39.8251L38.631 39.8105L38.6388 39.7554L38.6411 39.7363L38.6458 39.6962L38.6478 39.6763L38.6523 39.6268L38.653 39.6182L38.6567 39.5606L38.6575 39.5423L38.6592 39.4996L38.6597 39.4811L38.6605 39.422V25.9492C38.6605 25.9492 28.4811 25.6576 29.2173 25.4542H29.2171Z"/><path id="Vector_7" fill="#F79022" d="M29.3616 25.4149L29.2964 25.4325L29.2817 25.4365L29.2171 25.4542C28.4809 25.6576 27.512 25.9707 26.5337 26.3885L33.6042 33.4779L38.6603 28.3834V25.6768C35.806 24.7614 33.0158 24.4358 29.3616 25.415V25.4149Z"/><path id="Vector_8" fill="white" d="M29.2171 25.7267L29.2185 25.7264L29.2817 25.709L29.2964 25.705L29.3616 25.6874C33.0158 24.7082 35.806 25.0338 38.6603 25.9492V25.6767C35.806 24.7613 33.0159 24.4357 29.3616 25.4149L29.2964 25.4325L29.2817 25.4365L29.2171 25.4542C26.9056 26.0921 22.2495 27.8097 22.2495 30.4509V30.7234C22.2495 28.0822 26.9056 26.3645 29.2171 25.7267V25.7267Z" opacity="0.2"/><g id="Group_3"><path id="Vector_9" fill="#FFC20B" fill-rule="evenodd" d="M33.4076 6C38.149 6 41.9925 9.8436 41.9925 14.5849C41.9925 19.3262 38.149 23.1698 33.4076 23.1698C28.6664 23.1698 24.8228 19.3262 24.8228 14.5849C24.8228 9.8436 28.6664 6 33.4076 6Z" clip-rule="evenodd"/><path id="Vector_10" fill="white" fill-rule="evenodd" d="M33.4076 6.26241C38.1052 6.26241 41.9213 10.0353 41.9914 14.7161L41.9925 14.5849C41.9925 9.8436 38.149 6 33.4076 6C28.6664 6 24.8228 9.8436 24.8228 14.5849L24.8238 14.7161C24.894 10.0353 28.7102 6.26241 33.4076 6.26241Z" clip-rule="evenodd" opacity="0.2"/><g id="Group_4"><path id="Vector_11" fill="#263238" fill-rule="evenodd" d="M33.4076 22.9578C28.7017 22.9578 24.8802 19.1714 24.8234 14.4789L24.8228 14.5849C24.8228 19.3262 28.6664 23.1698 33.4076 23.1698C38.149 23.1698 41.9925 19.3262 41.9925 14.5849L41.9919 14.4789C41.9351 19.1714 38.1136 22.9578 33.4076 22.9578V22.9578Z" clip-rule="evenodd" opacity="0.1"/></g></g><path id="Vector_12" fill="#263238" d="M36.0825 41.7852H8.58518C7.16736 41.7852 6.00732 40.6251 6.00732 39.2073V39.4221C6.00732 40.84 7.16736 42 8.58518 42H36.0825C37.5003 42 38.6604 40.84 38.6604 39.4221V39.2073C38.6604 40.6251 37.5003 41.7852 36.0825 41.7852L36.0825 41.7852Z" opacity="0.1"/><path id="Vector_13" fill="#EEEEEE" d="M13.2813 15.8723V17.7026H15.8248C15.6229 18.7896 14.669 19.5801 13.2813 19.5801C11.7389 19.5801 10.4843 18.2741 10.4843 16.7359C10.4843 15.1977 11.7389 13.8916 13.2813 13.8916C13.9773 13.8916 14.596 14.1322 15.0901 14.5963L16.4435 13.2429C15.6229 12.4738 14.5573 12.0055 13.2813 12.0055C10.669 12.0055 8.55518 14.1194 8.55518 16.7316C8.55518 19.3438 10.669 21.4577 13.2813 21.4577C16.0095 21.4577 17.8183 19.5372 17.8183 16.839C17.8183 16.5039 17.7883 16.1817 17.7324 15.8723L13.2813 15.8723H13.2813Z"/></g><path id="Vector_14" fill="url(#paint1_radial_94_18168)" fill-rule="evenodd" d="M38.6604 28.4439V21.3754C38.8503 21.2282 39.034 21.0733 39.2107 20.911L39.2112 20.9106L39.2993 20.8286C39.4442 20.6918 39.5843 20.55 39.7195 20.4035L39.7221 20.4007L39.7993 20.3158L39.8029 20.3118C39.9351 20.1643 40.0622 20.0121 40.1841 19.8557L40.1895 19.8487L40.2559 19.7622L40.2624 19.7536L40.3298 19.6632L40.332 19.6601C40.4029 19.5636 40.4717 19.4657 40.5386 19.3662L40.5399 19.3642L40.6021 19.2702L40.6102 19.2577L40.6654 19.1716L40.6746 19.157L40.7299 19.0682L40.7361 19.0581C40.798 18.957 40.8578 18.8544 40.9156 18.7506L40.9204 18.7418L40.9708 18.6497L40.9809 18.6307L41.0254 18.5466L41.0364 18.5253L41.0803 18.4394L41.0893 18.4214L41.1393 18.3199L41.1402 18.3181L41.2409 18.1022L41.2481 18.086L41.2874 17.9969L41.2986 17.971L41.333 17.8897L41.3448 17.8614L41.3783 17.7789L41.3886 17.7533L41.4256 17.6586L41.4307 17.6455L41.5118 17.4238L41.52 17.4L41.5492 17.3143L41.56 17.2819L41.5855 17.2033L41.5966 17.1686L41.6211 17.0895L41.6311 17.0566L41.6572 16.9678L41.6638 16.945L41.7252 16.7178L41.7328 16.6875L41.7533 16.6048L41.7623 16.5666L41.78 16.4904L41.789 16.45L41.8056 16.3734L41.8138 16.3347L41.8308 16.2503L41.8369 16.2195L41.8586 16.1028C41.8586 16.1027 41.8586 16.1026 41.8586 16.1026L41.8783 15.9873L41.8839 15.9518L41.8966 15.8709L41.9028 15.8283L41.9134 15.7533L41.9194 15.7088L41.9289 15.6335L41.9341 15.5904L41.9432 15.5082L41.9471 15.4722L41.9585 15.3535L41.9587 15.3508L41.9681 15.235L41.9708 15.1964L41.9762 15.1155L41.9788 15.0702L41.9827 14.9949L41.9848 14.9479L41.9876 14.8724L41.989 14.8268L41.9908 14.7449L41.9916 14.7058L41.9925 14.5849C41.9923 9.8436 38.1488 6 33.4074 6L33.2862 6.0009L33.2472 6.00165L33.1651 6.00346L33.1195 6.00491L33.0437 6.00772L32.9968 6.0098L32.9211 6.01382L32.8761 6.01639L32.7939 6.02187L32.7565 6.02448L32.6374 6.03418L32.6336 6.03455L32.519 6.04561L32.4811 6.0497L32.4005 6.05867L32.3568 6.06395L32.2818 6.0734L32.2371 6.07938L32.1617 6.09003L32.1194 6.09622L32.0363 6.10919L32.0029 6.11452L31.8861 6.13462L31.8828 6.13525L31.7708 6.15613L31.7359 6.16303L31.6554 6.17925L31.6148 6.18783L31.5397 6.20412L31.4984 6.21337L31.4225 6.231L31.3841 6.24011L31.299 6.2612L31.2711 6.2682L31.1566 6.29834C31.1564 6.29837 31.1563 6.29841 31.1562 6.29844L31.0447 6.32951L31.014 6.33842L30.9328 6.36235L30.8964 6.37343L30.8205 6.39698L30.7837 6.40869L30.7063 6.43382L30.6731 6.44484L30.5843 6.47522L30.5639 6.48228L30.3436 6.56305L30.3183 6.5728L30.2356 6.60517L30.2042 6.61778L30.1271 6.64923L30.0954 6.66242L30.0163 6.69604L29.989 6.70777L29.8958 6.74893L29.884 6.75417L29.6705 6.85399L29.651 6.86352L29.5669 6.90508L29.541 6.91817L29.4626 6.95826L29.4365 6.97183L29.3555 7.01477L29.3347 7.02593L29.2365 7.07973L29.2345 7.08084L29.0286 7.19938L29.0147 7.20772L28.9298 7.25902L28.9092 7.27172L28.8302 7.32102L28.8096 7.33401L28.7274 7.38693L28.7127 7.39648C28.614 7.46109 28.5167 7.52768 28.4208 7.59621L28.4118 7.60272L28.3273 7.66402L28.3116 7.67564L28.2329 7.7344L28.2173 7.74623L28.1351 7.8095L28.126 7.81659C28.0325 7.88966 27.9405 7.96462 27.8502 8.04142L27.8448 8.04605L27.7626 8.11698L27.7507 8.12734L27.674 8.19537L27.6625 8.20569L27.5818 8.27934L27.5773 8.28351C27.4897 8.36457 27.4038 8.44745 27.3197 8.53206L27.3168 8.53498L27.2386 8.61481L27.2295 8.6242L27.1566 8.70065L27.148 8.70986L27.0694 8.79461C26.9885 8.88305 26.9095 8.97317 26.8324 9.06497L26.8304 9.06731L26.7583 9.15436L26.7508 9.16359L26.6836 9.24704L26.6765 9.25593L26.6053 9.34692C26.6053 9.34698 26.6052 9.34702 26.6052 9.34709H8.58518C8.25288 9.34709 7.93474 9.41082 7.64237 9.52666C7.5839 9.54982 7.52645 9.57508 7.47015 9.60232C7.39504 9.63864 7.32195 9.67849 7.25109 9.72168C7.18023 9.76486 7.11156 9.81136 7.04534 9.86097C7.01225 9.88576 6.97976 9.91133 6.94788 9.93767C6.66114 10.1746 6.42597 10.472 6.26254 10.8099C6.21713 10.9038 6.17726 11.0008 6.14336 11.1005C6.09537 11.2415 6.05984 11.3865 6.03717 11.5338C6.0306 11.5765 6.02511 11.6194 6.02071 11.6624L6.01487 11.7274C6.00988 11.7924 6.00732 11.8583 6.00732 11.9248L6.00859 39.4992L6.01028 39.5432L6.0111 39.5605L6.01482 39.6186L6.01545 39.6259L6.02 39.6768L6.02201 39.696L6.02674 39.7369L6.02901 39.7553L6.03683 39.8108L6.03906 39.8246L6.04622 39.8675V39.8676L6.05007 39.8887L6.05727 39.926L6.06126 39.9458L6.0728 39.9985L6.07715 40.0166L6.08626 40.0537L6.09207 40.0761L6.10155 40.1109V40.111L6.10718 40.1311L6.12153 40.1792L6.12157 40.1792L6.12914 40.203L6.13809 40.2304L6.14609 40.2543L6.16081 40.2958L6.16979 40.3201L6.18039 40.3478L6.19371 40.3815L6.20551 40.4102L6.21563 40.4341L6.23033 40.4675L6.24353 40.4965L6.2556 40.5223L6.26666 40.5451L6.28612 40.5841L6.29789 40.6069L6.31129 40.6322L6.32804 40.6629L6.34392 40.6913L6.35679 40.7136L6.37364 40.742L6.39156 40.7714L6.40664 40.7956L6.42028 40.817L6.44421 40.8532L6.45837 40.874L6.47446 40.8973L6.49311 40.9234L6.51402 40.952L6.52933 40.9724L6.54836 40.9972L6.57018 41.0249L6.58854 41.0477L6.60459 41.0672L6.63265 41.1003L6.64887 41.1189L6.66774 41.1401L6.68538 41.1597L6.71363 41.19L6.73113 41.2083L6.75217 41.2298L6.7772 41.2549L6.79877 41.2759L6.81707 41.2934L6.84753 41.3218L6.86692 41.3393L6.88813 41.3581L6.90673 41.3744L6.93989 41.4024L6.95935 41.4184L6.98221 41.4369L7.0098 41.4586L7.03467 41.4777L7.05504 41.493L7.08394 41.5141L7.10985 41.5325L7.13322 41.5487L7.15399 41.5629L7.19022 41.5868L7.21157 41.6004L7.23584 41.6156L7.26515 41.6335L7.29365 41.6504L7.31592 41.6632L7.34437 41.6792L7.37497 41.6958L7.4004 41.7093L7.42306 41.721L7.46211 41.7405L7.48497 41.7515L7.51071 41.7635L7.53986 41.7768L7.57327 41.7914L7.5971 41.8015L7.6259 41.8134L7.65953 41.8267L7.68728 41.8373L7.71145 41.8463L7.7531 41.8611L7.7769 41.8691L7.8044 41.8781L7.82815 41.8856L7.82813 41.8856L7.87616 41.9L7.89663 41.9057C7.89664 41.9057 7.89665 41.9057 7.89666 41.9057C7.89667 41.9057 7.89668 41.9057 7.89669 41.9057L7.93112 41.9151H7.93114L7.95376 41.9209L7.99056 41.93L8.00893 41.9344L8.06148 41.9459L8.08148 41.9499L8.11868 41.9571H8.11874L8.14012 41.961L8.18249 41.968C8.1825 41.968 8.18252 41.968 8.18253 41.968H8.18257L8.19682 41.9703L8.25205 41.9781L8.27092 41.9805L8.3112 41.9851L8.33098 41.9872H8.33102L8.38064 41.9916L8.38915 41.9923L8.44676 41.996L8.46486 41.9969L8.50764 41.9985L8.52618 41.999L8.5853 41.9998L36.1597 41.9985L36.2037 41.9969H36.2038L36.2208 41.996H36.2209L36.2792 41.9923L36.2859 41.9918H36.2859C36.286 41.9918 36.286 41.9918 36.2861 41.9917L36.3374 41.9871H36.3374L36.3562 41.9852C36.3562 41.9852 36.3563 41.9852 36.3563 41.9852L36.3977 41.9804C36.3978 41.9804 36.3978 41.9804 36.3979 41.9804L36.4156 41.9782H36.4157L36.4342 41.9756L36.4714 41.9704C36.4714 41.9704 36.4714 41.9703 36.4715 41.9703L36.4841 41.9683C36.4842 41.9683 36.4844 41.9683 36.4845 41.9682L36.5282 41.9609C36.5283 41.9609 36.5283 41.9609 36.5284 41.9609L36.5487 41.9572C36.5488 41.9572 36.5488 41.9572 36.5489 41.9572L36.587 41.9498C36.5871 41.9498 36.5872 41.9498 36.5873 41.9498L36.6061 41.946C36.6061 41.946 36.6061 41.946 36.6062 41.946L36.6592 41.9344C36.6592 41.9344 36.6593 41.9344 36.6593 41.9343L36.6761 41.9303C36.6762 41.9303 36.6764 41.9303 36.6765 41.9302L36.711 41.9218L36.7144 41.9209C36.7145 41.9209 36.7145 41.9209 36.7146 41.9209L36.7362 41.9152C36.7363 41.9152 36.7363 41.9152 36.7364 41.9152L36.7717 41.9056C36.7719 41.9055 36.772 41.9055 36.7722 41.9055L36.7913 41.9001C36.7914 41.9001 36.7914 41.9001 36.7915 41.9001L36.8397 41.8857L36.8397 41.8856C36.8397 41.8856 36.8398 41.8856 36.8398 41.8856C36.8399 41.8856 36.8398 41.8856 36.8398 41.8856L36.8631 41.8782L36.8912 41.869C36.8912 41.869 36.8912 41.869 36.8912 41.869C36.8912 41.869 36.8912 41.869 36.8912 41.869L36.9146 41.8612C36.9146 41.8612 36.9146 41.8612 36.9146 41.8612C36.9148 41.8611 36.915 41.861 36.9153 41.861L36.9566 41.8463L36.9803 41.8375L36.9898 41.834L37.0089 41.8266L37.0412 41.8138L37.071 41.8016L37.0943 41.7917C37.0943 41.7917 37.0943 41.7917 37.0943 41.7917C37.0943 41.7917 37.0944 41.7917 37.0944 41.7917L37.1294 41.7763C37.1295 41.7763 37.1295 41.7763 37.1296 41.7762C37.1296 41.7762 37.1296 41.7762 37.1296 41.7762L37.1565 41.764L37.1832 41.7514L37.2054 41.7408L37.2449 41.7211L37.2669 41.7097C37.2669 41.7097 37.2669 41.7097 37.2669 41.7097C37.2669 41.7097 37.2669 41.7097 37.2669 41.7097L37.2935 41.6956L37.3221 41.6801L37.3522 41.6632L37.3737 41.6508L37.404 41.6328L37.4311 41.6163L37.4567 41.6003L37.4771 41.5872C37.4772 41.5872 37.4772 41.5872 37.4772 41.5872C37.4772 41.5872 37.4772 41.5872 37.4772 41.5872L37.5141 41.5628L37.5338 41.5494C37.5338 41.5494 37.5338 41.5494 37.5339 41.5494C37.5339 41.5493 37.5339 41.5493 37.5339 41.5493L37.5586 41.5322C37.5586 41.5322 37.5586 41.5321 37.5587 41.5321C37.5587 41.5321 37.5587 41.5321 37.5587 41.5321L37.5819 41.5157L37.613 41.4929C37.613 41.4929 37.613 41.4929 37.6131 41.4929C37.6131 41.4929 37.6131 41.4928 37.6131 41.4928L37.6326 41.4782L37.6593 41.4577L37.6845 41.4378L37.7088 41.4182L37.7274 41.403C37.7274 41.4029 37.7274 41.4029 37.7274 41.4029C37.7275 41.4029 37.7275 41.4029 37.7275 41.4029L37.7613 41.3743C37.7613 41.3743 37.7613 41.3743 37.7613 41.3743C37.7613 41.3743 37.7613 41.3743 37.7613 41.3742L37.7788 41.359C37.7788 41.359 37.7788 41.359 37.7788 41.3589C37.7789 41.3589 37.7789 41.3589 37.7789 41.3589L37.8015 41.3388L37.8185 41.3235L37.8511 41.2932L37.8684 41.2767L37.8684 41.2766L37.8754 41.2699L37.8804 41.2651L37.8918 41.2537L37.9142 41.2313L37.9305 41.2149L37.9371 41.2079L37.9372 41.2079L37.9537 41.1906L37.984 41.158L37.9992 41.1411L37.9992 41.1411L38.0195 41.1183C38.0195 41.1183 38.0195 41.1183 38.0195 41.1183L38.0347 41.1009L38.0347 41.1008L38.0356 41.0999L38.0635 41.0668C38.0635 41.0668 38.0635 41.0668 38.0635 41.0668C38.0635 41.0668 38.0635 41.0668 38.0635 41.0668L38.0855 41.04L38.0975 41.025L38.0986 41.0237L38.1179 40.9992C38.1179 40.9992 38.1179 40.9992 38.1179 40.9992L38.118 40.9991L38.1388 40.9719C38.1388 40.9719 38.1388 40.9719 38.1388 40.9719C38.1388 40.9719 38.1388 40.9719 38.1388 40.9719L38.1532 40.9527C38.1532 40.9527 38.1532 40.9527 38.1533 40.9527C38.1533 40.9527 38.1533 40.9526 38.1533 40.9526L38.1768 40.9204L38.1924 40.8985C38.1924 40.8984 38.1924 40.8984 38.1924 40.8984C38.1924 40.8984 38.1924 40.8984 38.1924 40.8984L38.2099 40.8732C38.2099 40.8732 38.2099 40.8732 38.21 40.8731C38.21 40.8731 38.21 40.8731 38.21 40.8731L38.2232 40.8537L38.2461 40.8191L38.247 40.8177L38.2478 40.8164C38.2478 40.8164 38.2478 40.8164 38.2478 40.8164L38.2606 40.7965L38.2771 40.77L38.2926 40.7446C38.2926 40.7446 38.2926 40.7446 38.2927 40.7446C38.2927 40.7446 38.2927 40.7445 38.2928 40.7445L38.3115 40.7129L38.3236 40.6919L38.3252 40.6891L38.3274 40.6853L38.3413 40.6604C38.3413 40.6604 38.3413 40.6604 38.3413 40.6603L38.3558 40.6336L38.365 40.6165L38.3704 40.606L38.3815 40.5847L38.4006 40.5465L38.4016 40.5446C38.4016 40.5446 38.4016 40.5446 38.4016 40.5446L38.4118 40.5232L38.4249 40.4953C38.4249 40.4953 38.4249 40.4953 38.4249 40.4952C38.425 40.4952 38.425 40.4952 38.425 40.4952L38.4359 40.4712C38.4359 40.4712 38.436 40.4712 38.436 40.4711C38.436 40.471 38.4361 40.4708 38.4362 40.4707L38.4525 40.4334L38.4621 40.411C38.4621 40.4109 38.4621 40.4109 38.4621 40.4109C38.4621 40.4109 38.4621 40.4108 38.4621 40.4108L38.475 40.3795C38.475 40.3795 38.475 40.3795 38.475 40.3794L38.4869 40.3494C38.4869 40.3494 38.4869 40.3494 38.4869 40.3494L38.4947 40.3293L38.4969 40.3234L38.4984 40.3193L38.5068 40.2965C38.5069 40.2965 38.5069 40.2965 38.5069 40.2965C38.5069 40.2964 38.5069 40.2964 38.5069 40.2964L38.522 40.2538C38.522 40.2538 38.522 40.2537 38.522 40.2537C38.522 40.2537 38.522 40.2537 38.522 40.2537L38.5294 40.2315L38.5391 40.2019C38.5391 40.2019 38.5391 40.2018 38.5391 40.2018C38.5391 40.2018 38.5391 40.2018 38.5392 40.2017L38.5461 40.1798C38.5461 40.1797 38.5462 40.1797 38.5462 40.1797C38.5462 40.1795 38.5463 40.1794 38.5463 40.1792L38.5464 40.1792L38.5606 40.1313C38.5607 40.1311 38.5607 40.1309 38.5608 40.1308L38.566 40.112L38.5665 40.1104L38.5711 40.0934L38.5757 40.0763C38.5758 40.076 38.5759 40.0757 38.576 40.0754L38.5814 40.0542C38.5814 40.0542 38.5814 40.0542 38.5815 40.0542L38.5816 40.0537C38.5816 40.0536 38.5816 40.0535 38.5816 40.0534L38.5906 40.017L38.591 40.0154C38.591 40.0152 38.5911 40.0151 38.5911 40.0149C38.5911 40.0149 38.5911 40.0149 38.5911 40.0149L38.595 39.9987C38.595 39.9987 38.595 39.9987 38.595 39.9987C38.595 39.9987 38.595 39.9986 38.595 39.9985C38.5951 39.9984 38.5951 39.9983 38.5951 39.9982L38.6066 39.9459C38.6066 39.9457 38.6067 39.9454 38.6067 39.9452C38.6067 39.9452 38.6067 39.9452 38.6067 39.9452L38.6104 39.927L38.6107 39.9256L38.6142 39.9072L38.6165 39.8951L38.6177 39.8888L38.6179 39.8878L38.6215 39.8679C38.6215 39.8679 38.6215 39.8679 38.6215 39.8679C38.6216 39.8676 38.6217 39.8674 38.6217 39.8672L38.6287 39.8251C38.6287 39.8249 38.6288 39.8247 38.6288 39.8245L38.629 39.8233C38.629 39.8232 38.629 39.8231 38.629 39.8231L38.631 39.8109C38.631 39.8108 38.6311 39.8106 38.6311 39.8105L38.6388 39.7554L38.6389 39.7547C38.6389 39.7547 38.6389 39.7546 38.639 39.7546L38.641 39.7377L38.6412 39.7363L38.6458 39.6962L38.6459 39.6955L38.6479 39.677L38.6479 39.6763L38.6523 39.6268L38.653 39.6187V39.6187C38.653 39.6185 38.6531 39.6184 38.6531 39.6182L38.6568 39.5606L38.6568 39.56L38.6576 39.5436V39.5435C38.6576 39.5431 38.6576 39.5428 38.6576 39.5424L38.6584 39.521L38.6593 39.4997C38.6593 39.4995 38.6593 39.4993 38.6593 39.4991C38.6593 39.4989 38.6593 39.4988 38.6593 39.4987V39.4986L38.6598 39.4817C38.6598 39.4815 38.6598 39.4813 38.6598 39.4811L38.66 39.462L38.6602 39.4468L38.6605 39.4239L38.6606 39.4219V28.4439H38.6604Z" clip-rule="evenodd"/></g></g><defs><linearGradient id="paint0_linear_94_18168" x1="30.2193" x2="37.0199" y1="17.8039" y2="24.6044" gradientUnits="userSpaceOnUse"><stop stop-color="#263238" stop-opacity="0.2"/><stop offset="1" stop-color="#263238" stop-opacity="0.02"/></linearGradient><radialGradient id="paint1_radial_94_18168" cx="0" cy="0" r="1" gradientTransform="translate(7.93 9.819) scale(42.6466)" gradientUnits="userSpaceOnUse"><stop stop-color="white" stop-opacity="0.1"/><stop offset="1" stop-color="white" stop-opacity="0"/></radialGradient></defs></svg>