<svg xmlns="http://www.w3.org/2000/svg" fill="none" aria-hidden="true" viewBox="0 0 48 48"><path fill="#669DF6" d="M36.002 30.762h-11.62c-2.81 0-4.383 1.967-4.383 4.06 0 1.932 1.335 4.06 4.384 4.06h11.62v-8.12Z"/><path fill="#1A73E8" d="M36.002 38.876c2.208 0 3.998-1.818 3.998-4.06 0-2.243-1.79-4.061-3.998-4.061-2.207 0-3.997 1.818-3.997 4.06 0 2.243 1.79 4.061 3.997 4.061Z"/><path fill="#669DF6" d="M24.003 19.936h-11.62c-2.81 0-4.383 1.967-4.383 4.06 0 1.932 1.335 4.061 4.384 4.061h11.62v-8.121Z"/><path fill="#1A73E8" d="M24.003 28.057c2.208 0 3.998-1.818 3.998-4.06 0-2.243-1.79-4.061-3.998-4.061-2.207 0-3.997 1.818-3.997 4.06 0 2.243 1.79 4.061 3.997 4.061Z"/><path fill="#669DF6" d="M36.002 9.117h-11.62c-2.81 0-4.383 1.967-4.383 4.06 0 1.933 1.335 4.061 4.384 4.061h11.62V9.117Z"/><path fill="#1A73E8" d="M36.002 17.238c2.208 0 3.998-1.818 3.998-4.06 0-2.243-1.79-4.061-3.998-4.061-2.207 0-3.997 1.818-3.997 4.06 0 2.243 1.79 4.061 3.997 4.061Z"/></svg>