<svg xmlns="http://www.w3.org/2000/svg" fill="none" aria-hidden="true" viewBox="0 0 48 48"><path fill="#FBBC04" d="M40.349 25.543 26.227 39.665A3.3 3.3 0 0 1 21.56 35l14.124-14.124a3.3 3.3 0 1 1 4.665 4.668Z"/><path fill="#34A853" d="M26.227 39.666A3.3 3.3 0 1 0 21.559 35a3.3 3.3 0 0 0 4.668 4.667Z"/><path fill="#FBBC04" d="m28.729 13.922-7.063 7.06 4.666 4.667 7.063-7.06a3.3 3.3 0 0 0-4.667-4.667Z"/><path fill="#3B80EF" d="m19.271 32.711 7.061-7.06-4.666-4.667-7.06 7.061a3.3 3.3 0 0 0 4.665 4.666Z"/><path fill="#34A853" d="M26.35 25.634a3.3 3.3 0 1 0-4.669-4.667 3.3 3.3 0 0 0 4.668 4.667Z"/><path fill="#3B80EF" d="M26.44 11.633 12.316 25.756A3.3 3.3 0 0 1 7.65 21.09L21.773 6.967a3.3 3.3 0 0 1 4.667 4.666Z"/><path fill="#34A853" d="M24.106 12.601a3.3 3.3 0 1 0 0-6.601 3.3 3.3 0 0 0 0 6.601Z"/></svg>