<svg xmlns="http://www.w3.org/2000/svg" fill="none" aria-hidden="true" viewBox="0 0 48 48"><g id="google-wearos-Icon"><g id="Group"><path id="Vector" fill="#00A94B" d="M34.3504 25.1932C36.4119 25.1932 38.0831 23.522 38.0831 21.4605C38.0831 19.399 36.4119 17.7278 34.3504 17.7278C32.2889 17.7278 30.6177 19.399 30.6177 21.4605C30.6177 23.522 32.2889 25.1932 34.3504 25.1932Z"/><path id="Vector_2" fill="#FF4131" d="M38.5123 17.2755C40.4384 17.2755 41.9998 15.7142 41.9998 13.7881C41.9998 11.862 40.4384 10.3007 38.5123 10.3007C36.5863 10.3007 35.0249 11.862 35.0249 13.7881C35.0249 15.7142 36.5863 17.2755 38.5123 17.2755Z"/><path id="Vector_3" fill="#FFBC00" d="M29.4145 37.7557C28.0808 37.7557 26.8008 36.9815 26.2259 35.6862L17.0819 15.1525C16.3001 13.3896 17.0896 11.3278 18.8525 10.546C20.6154 9.76417 22.6772 10.5536 23.459 12.3165L32.603 32.8503C33.3848 34.6132 32.5953 36.675 30.8324 37.4568C30.3726 37.6637 29.8897 37.7557 29.4145 37.7557Z"/><path id="Vector_4" fill="#0085F7" d="M18.6226 37.7021C17.1663 37.7021 15.779 36.8589 15.1505 35.4486L6.32845 15.6277C5.47766 13.7115 6.33611 11.4658 8.25229 10.615C10.1685 9.76419 12.4142 10.6226 13.265 12.5388L22.0871 32.3598C22.9379 34.2759 22.0794 36.5217 20.1632 37.3725C19.665 37.5947 19.1362 37.7021 18.6226 37.7021Z"/></g></g></svg>