<svg xmlns="http://www.w3.org/2000/svg" fill="none" aria-hidden="true" viewBox="0 0 48 48"><path fill="#F8BB2D" d="M27.385 18.917c1.08-1.886.44-4.299-1.432-5.388a3.895 3.895 0 0 0-5.344 1.444L12.531 29.08c-1.08 1.886-.44 4.298 1.432 5.388a3.895 3.895 0 0 0 5.344-1.444l8.078-14.108Z"/><path fill="#3BA757" d="M19.826 31.055c0 2.179-1.752 3.945-3.913 3.945C13.752 35 12 33.234 12 31.055c0-2.18 1.752-3.946 3.913-3.946 2.161 0 3.913 1.767 3.913 3.946Z"/><path fill="#4689F2" d="M20.621 18.917c-1.08-1.886-.44-4.299 1.432-5.388a3.895 3.895 0 0 1 5.344 1.444l8.078 14.108c1.08 1.886.44 4.298-1.432 5.388a3.895 3.895 0 0 1-5.344-1.444l-8.078-14.108Z"/></svg>