<svg xmlns="http://www.w3.org/2000/svg" fill="none" aria-hidden="true" viewBox="0 0 48 48"><g id="google-Icon"><g id="super-g"><path id="Shape" fill="#EA4335" d="M24.3207 14.1867C27.3251 14.1867 29.3518 15.4844 30.5073 16.5689L35.0229 12.16C32.2496 9.58222 28.6407 8 24.3207 8C18.0629 8 12.6585 11.5911 10.0273 16.8178L15.2007 20.8356C16.4985 16.9778 20.0896 14.1867 24.3207 14.1867V14.1867Z"/><path id="Shape_2" fill="#4285F4" d="M39.6803 24.3556C39.6803 23.04 39.5736 22.08 39.3425 21.0844H24.3203V27.0222H33.1381C32.9603 28.4978 32.0003 30.72 29.867 32.2133L34.9159 36.1245C37.9381 33.3333 39.6803 29.2267 39.6803 24.3556V24.3556Z"/><path id="Shape_3" fill="#FBBC05" d="M15.2181 27.1644C14.8803 26.1689 14.6848 25.1022 14.6848 24C14.6848 22.8978 14.8803 21.8311 15.2003 20.8355L10.027 16.8178C8.94253 18.9867 8.32031 21.4222 8.32031 24C8.32031 26.5778 8.94253 29.0133 10.027 31.1822L15.2181 27.1644V27.1644Z"/><path id="Shape_4" fill="#34A853" d="M24.3205 40C28.6405 40 32.2671 38.5778 34.916 36.1244L29.8671 32.2133C28.516 33.1556 26.7027 33.8133 24.3205 33.8133C20.0894 33.8133 16.4983 31.0222 15.2183 27.1644L10.0449 31.1822C12.676 36.4089 18.0627 40 24.3205 40V40Z"/></g></g></svg>