<svg xmlns="http://www.w3.org/2000/svg" fill="none" aria-hidden="true" viewBox="0 0 48 48"><path fill="#EF3F36" d="M23.95 4.004s11.788-.528 18.038 11.28H22.946s-3.594-.116-6.663 4.228c-.882 1.824-1.83 3.702-.766 7.403-1.532-2.586-8.135-14.042-8.135-14.042s4.657-8.403 16.567-8.87Z"/><path fill="#FCD900" d="M41.376 33.977s-5.44 10.44-18.821 9.924l9.524-16.431s1.901-3.043-.342-7.864c-1.141-1.675-2.304-3.427-6.052-4.36 3.015-.028 16.27 0 16.27 0s4.966 8.22-.579 18.731Z"/><path fill="#61BC5B" d="M6.605 34.06s-6.355-9.913.788-21.204c1.648 2.85 9.518 16.432 9.518 16.432s1.697 3.163 7.005 3.635c2.023-.148 4.128-.274 6.818-3.037-1.483 2.614-8.136 14.037-8.136 14.037s-9.633.176-15.994-9.863Z"/><path fill="#5AB055" d="m22.55 44 2.678-11.137s2.943-.231 5.412-2.927A8325.615 8325.615 0 0 1 22.55 44Z"/><path fill="#fff" d="M14.977 24.125c0-4.91 3.995-8.89 8.923-8.89 4.927 0 8.923 3.98 8.923 8.89s-3.996 8.891-8.923 8.891c-4.928-.005-8.923-3.981-8.923-8.89Z"/><path fill="url(#a)" d="M16.47 24.125c0-4.085 3.324-7.402 7.43-7.402 4.1 0 7.43 3.311 7.43 7.402 0 4.086-3.324 7.403-7.43 7.403-4.1 0-7.43-3.317-7.43-7.403Z"/><path fill="#EACA05" d="m41.95 15.25-11.03 3.225s-1.664-2.433-5.241-3.223c3.103-.017 16.27 0 16.27 0Z"/><path fill="#DF3A32" d="M15.302 26.509c-1.549-2.675-7.92-13.636-7.92-13.636l8.168 8.05s-.838 1.72-.524 4.18l.276 1.406Z"/><defs><linearGradient id="a" x1="23.899" x2="23.899" y1="16.827" y2="31.083" gradientUnits="userSpaceOnUse"><stop stop-color="#86BBE5"/><stop offset="1" stop-color="#1072BA"/></linearGradient></defs></svg>