<svg xmlns="http://www.w3.org/2000/svg" fill="none" aria-hidden="true" viewBox="0 0 48 48"><path fill="#FBBC04" d="M23.27 8.051c.461-.038.91-.051 1.37-.051 8.333.307 15.027 6.989 15.36 15.322v12.582A4.116 4.116 0 0 1 35.865 40a4.568 4.568 0 0 1-3.852-4.096V23.32c-.346-4.39-4.186-7.68-8.576-7.334-.051 0-.103.013-.154.013"/><path fill="#4285F4" d="M40 35.993a3.999 3.999 0 0 1-3.994 3.994 3.999 3.999 0 0 1-3.993-3.994A3.999 3.999 0 0 1 36.006 32 3.999 3.999 0 0 1 40 35.993Z"/><path fill="#EA4335" d="M23.5 39.86a4.092 4.092 0 0 0 4.148-4.046v-.025a4 4 0 0 0-4.109-3.879h-.09c-4.364-.332-7.654-4.121-7.347-8.499v-.064a8.013 8.013 0 0 1 7.4-7.347 3.99 3.99 0 0 0 4.147-3.827v-.064c-.026-2.266-1.881-4.096-4.147-4.07h-.282C14.733 8.434 8.051 15.398 8 23.897v.064c0 9.97 8.742 15.91 15.258 15.91h.243v-.013Z"/></svg>