<svg xmlns="http://www.w3.org/2000/svg" fill="none" aria-hidden="true" viewBox="0 0 48 48"><path fill="#616161" d="M24.001 42c9.941 0 18-8.059 18-18s-8.059-18-18-18-18 8.059-18 18 8.059 18 18 18Z"/><path fill="#9E9E9E" d="M24.001 35.454c-6.327 0-11.454-5.127-11.454-11.454 0-6.327 5.127-11.454 11.454-11.454 3.162 0 6.025 1.282 8.1 3.355l4.628-4.629A17.945 17.945 0 0 0 24 6C14.059 6 6 14.059 6 24s8.059 18 18 18c4.97 0 9.47-2.015 12.73-5.27L32.1 32.1a11.433 11.433 0 0 1-8.1 3.354Z"/><path fill="#424242" d="M35.455 24h-5.728a5.727 5.727 0 1 0-9.854 3.968l-.005.005 7.092 7.091.001.001c4.891-1.305 8.494-5.764 8.494-11.065Z"/><path fill="#616161" d="M42 24h-6.546c0 5.301-3.605 9.76-8.493 11.065l5.055 5.055C37.934 37.172 42 31.06 42 24Z"/><path fill="#212121" fill-opacity=".1" d="M24.001 41.794c-9.907 0-17.942-8.003-17.999-17.897L6.001 24c0 9.941 8.059 18 18 18s18-8.059 18-18l-.002-.103c-.056 9.894-8.093 17.897-17.998 17.897Z"/><path fill="#fff" fill-opacity=".05" d="m26.963 35.065.16.16c4.806-1.358 8.332-5.776 8.332-11.02V24c0 5.301-3.604 9.76-8.492 11.065Z"/><path fill="#9E9E9E" d="M38.728 22.363H24a1.636 1.636 0 1 0 0 3.273h14.727a1.636 1.636 0 0 0 .001-3.273Z"/><path fill="#BDBDBD" d="M38.728 22.363H24a1.636 1.636 0 1 0 0 3.273h14.727a1.636 1.636 0 0 0 .001-3.273Z" opacity=".5"/><path fill="#BDBDBD" d="M9.273 25.227a1.227 1.227 0 1 0 0-2.454 1.227 1.227 0 0 0 0 2.454ZM24.001 10.5a1.227 1.227 0 1 0 0-2.455 1.227 1.227 0 0 0 0 2.454Zm0 29.454a1.227 1.227 0 1 0 0-2.454 1.227 1.227 0 0 0 0 2.454ZM13.57 14.813a1.227 1.227 0 1 0 0-2.454 1.227 1.227 0 0 0 0 2.454Zm0 20.846a1.227 1.227 0 1 0 0-2.454 1.227 1.227 0 0 0 0 2.454Z"/><path fill="#757575" d="M34.433 35.659a1.227 1.227 0 1 0 0-2.454 1.227 1.227 0 0 0 0 2.454Z"/><path fill="#fff" fill-opacity=".2" d="M24 22.568h14.727c.869 0 1.58.68 1.63 1.535.002-.035.006-.068.006-.103 0-.904-.732-1.636-1.636-1.636H24.001c-.904 0-1.636.732-1.636 1.636 0 .035.001.068.006.103.05-.856.76-1.535 1.63-1.535Z"/><path fill="#212121" fill-opacity=".2" d="M40.358 24.102a1.638 1.638 0 0 1-1.63 1.534H24c-.869 0-1.58-.679-1.63-1.534a.82.82 0 0 0-.006.101c0 .904.732 1.636 1.636 1.636h14.726c.904 0 1.636-.732 1.636-1.636a.82.82 0 0 0-.005-.101Z"/><path fill="#212121" fill-opacity=".1" d="M24.001 12.75c3.162 0 6.025 1.283 8.1 3.355l4.728-4.731-.102-.103-4.627 4.628a11.423 11.423 0 0 0-8.099-3.355c-6.327 0-11.454 5.128-11.454 11.454l.001.104c.055-6.28 5.161-11.352 11.453-11.352Z"/><path fill="url(#a)" d="M24.001 42c9.941 0 18-8.059 18-18s-8.059-18-18-18-18 8.059-18 18 8.059 18 18 18Z"/><defs><radialGradient id="a" cx="0" cy="0" r="1" gradientTransform="translate(11.28 11.238) scale(35.9378)" gradientUnits="userSpaceOnUse"><stop stop-color="#fff" stop-opacity=".1"/><stop offset="1" stop-color="#fff" stop-opacity="0"/></radialGradient></defs></svg>