<svg xmlns="http://www.w3.org/2000/svg" fill="none" aria-hidden="true" viewBox="0 0 48 48"><g fill-rule="evenodd" clip-rule="evenodd"><path fill="#15C39A" d="M42 24c0 9.88-8.058 17.891-18 17.891S6 33.881 6 24c0-9.88 8.058-17.89 18-17.89S42 14.12 42 24Z"/><path fill="#FEFEFE" d="M27.551 26.424c-.747 0-1.339.67-1.199 1.439.106.586.66.986 1.26.986h1.885l1.094-.151c-1.75 2.55-4.786 3.723-8.109 3.206-2.701-.422-5.025-2.24-6.004-4.778-2.225-5.765 2.01-11.266 7.528-11.266 2.877 0 5.399 1.673 6.845 3.693l.001.043c.385.551 1.144.708 1.698.327a1.192 1.192 0 0 0 .356-1.593h.008a10.582 10.582 0 0 0-9.637-4.82c-5.262.35-9.522 4.631-9.824 9.867-.353 6.09 4.508 11.063 10.553 11.063 3.176 0 6.02-1.374 7.958-3.6l-.231 1.276v1.153c0 .594.404 1.147.992 1.252a1.219 1.219 0 0 0 1.448-1.192v-6.905h-6.622Z"/></g></svg>