<svg xmlns="http://www.w3.org/2000/svg" fill="none" aria-hidden="true" viewBox="0 0 48 48"><path fill="#E535AB" fill-rule="evenodd" d="m27.076 10.126 7.402 4.273c.209-.22.452-.415.728-.576A3.216 3.216 0 0 1 39.591 15a3.215 3.215 0 0 1-2.031 4.726v8.55c.29.071.574.183.845.339A3.2 3.2 0 0 1 39.582 33a3.213 3.213 0 0 1-5.179.533l-7.357 4.247A3.212 3.212 0 0 1 24 42a3.205 3.205 0 0 1-3.079-4.116l-7.4-4.273A3.211 3.211 0 0 1 8.418 33a3.215 3.215 0 0 1 2.022-4.724v-8.55A3.213 3.213 0 0 1 8.408 15a3.213 3.213 0 0 1 5.11-.604l7.405-4.275A3.205 3.205 0 0 1 24 6a3.205 3.205 0 0 1 3.076 4.125Zm-.772 1.316 7.42 4.284a3.204 3.204 0 0 0 2.31 3.992v8.562a3.34 3.34 0 0 0-.125.033l-9.69-16.785.085-.086Zm-4.52.088-9.691 16.785a3.272 3.272 0 0 0-.127-.034v-8.563a3.204 3.204 0 0 0 2.308-3.996l7.418-4.283c.03.03.06.061.091.09Zm3.112.76 9.689 16.781a3.193 3.193 0 0 0-.903 1.566H14.318a3.22 3.22 0 0 0-.902-1.562l9.69-16.784a3.218 3.218 0 0 0 1.79 0Zm1.476 24.34 7.372-4.256a3.27 3.27 0 0 1-.059-.21H14.314c-.01.041-.022.082-.034.124l7.408 4.277A3.199 3.199 0 0 1 24 35.583a3.2 3.2 0 0 1 2.372 1.047Z" clip-rule="evenodd"/></svg>