<svg xmlns="http://www.w3.org/2000/svg" fill="none" aria-hidden="true" viewBox="0 0 48 48"><circle cx="16" cy="16" r="14" fill="#F8591A"/><path fill="#fff" d="M33.673 27.31c-1.247-.525-2.287-1.595-3.062-2.678-.89-1.244-1.8-2.466-2.797-3.625-.938-1.089-1.935-2.132-3.017-3.075-1.08-.941-2.256-1.837-3.551-2.459a16.772 16.772 0 0 0-2.688-.999c-.105-.029-.388-.157-.471-.028-.051.08-.012.229-.001.317.022.192.045.383.069.575.277 2.296.381 4.72-.332 6.951a7.29 7.29 0 0 1-2.01 3.152c-.772.705-1.872 1.419-2.966 1.368-3.163-.134-1.743-5.355-1.147-7.113 1.792-5.193 6.83-8.79 12.3-8.79 7.128 0 13.05 6.015 13.005 13.094-.017 2.104-.692 4.424-3.332 3.31Zm6.177-7.894C37.863 12.534 31.522 7.5 24 7.5c-7.52 0-13.863 5.034-15.85 11.916a16.56 16.56 0 0 0-.373 7.576C9.185 34.677 15.91 40.5 24 40.5c8.091 0 14.816-5.823 16.226-13.508a16.613 16.613 0 0 0-.376-7.576Z"/></svg>