<svg xmlns="http://www.w3.org/2000/svg" fill="none" aria-hidden="true" viewBox="0 0 48 48"><path fill="#FBA919" d="M12.373 14.75s.617 2.378.705 3.17c.088.793-1.586 2.554-1.586 3.435 0 .88.352 2.466 2.29 3.259 1.938.793 2.202 2.818 2.202 4.051s-.705 3.611-.705 3.611-.44 5.9 1.938 6.957c2.378 1.057 1.85 1.057 2.378 1.057s4.403 1.586 6.693.97c2.29-.617 2.906-1.322 2.906-1.322s2.29.176 2.994-1.85c.705-2.025 1.145-6.252.881-8.19-.264-1.938-.616-4.491.969-5.372 1.585-.881 3.259-1.938 2.994-2.818-.264-.881-1.673-2.114-1.673-2.114s-.352-2.202-.088-2.73c.264-.529 1.85-1.85.968-2.819-.88-.968-2.465-.968-2.465-.968l-2.026.175s-3.435-3.082-7.926-2.906c-4.492.177-7.31 2.906-7.31 2.906s-1.497-.528-2.818 0c-1.322.53-1.585 0-1.32 1.498Z"/><path fill="#E78724" d="M20.42 27.863s-1.743 2.666-3.023 4.559c-.198.292 1.28.313 1.28.313l1.744-4.872Zm.831-5.529s-.526 1.311-.814 2.006c-.312.756-1.504 1.132-1.504 1.132s.618-.648.618-2.29c0-.688.889-.962.889-.962l.811.114Z"/><path fill="#E78724" d="M20.72 23.075s-1.077 1.282-3.077.564c-2-.718-2.206-3.282-2.206-4s3.796.718 4.309 1.026c.513.307 1.487 1.538.974 2.41ZM13.165 9.374s1.846-.359 3.077.616c1.232.974 1.59 1.744 1.59 1.744l-2.075 1.644s-1.002-.465-1.31-1.798c-.307-1.334-.102-1.95-1.282-2.206Z"/><path fill="#E78724" d="M20.181 19.372c-.795-1.129-2.105-1.62-3.15-1.703-1.784-.139-2.63.491-2.63.491s2.92.124 3.762 1.23c1.567 2.058 3.854 2.225 4.22 1.773-.423.021-.889-.188-1.386-.659-.311-.294-.564-.774-.816-1.132Zm-4.931 3.989s-3.24-1.114-2.624-2.242c.615-1.128.125-1.743.125-1.743s-1.81 1.35-1.348 2.787c.283.881.759 1.52 3.37 2.743 1.252 2.326.258 6.512.317 6.532.1.033 1.759-.82 1.645-4.737-.034-1.203-.13-2.845-1.484-3.34Zm4.247-11.98c-1.358.69-3.22 1.652-3.22 1.652l.733.367c-.07.113-.104.18-.104.18l.752.342s1.836 1.33 2.96 2.185c-.374-1.155-1.475-2.969-1.475-2.969s-.312-.833.354-1.757Zm4.515 28.141c-4.177 0-5.592-2.12-5.592-2.12l.653 1.59c.247.687 2.879 2.827 4.932 2.827"/><path fill="#E78724" d="M18.878 35.969s.384 2.349 1.923 2.349c1.307 0 1.693-1.984 1.693-2.394l-3.616.045Zm-2.561-3.542c.137-.376.616-1.898.77-3.282.184-1.659.116-4.084.116-4.084s-.41 1.59-.769 1.846c-.359.257-1.026 2-1.026 2s-.357 2.596-.527 3.469c.47.094.867-.183 1.436.051Zm-3.716-10.29s.872-.308 1.129-2.205c.256-1.898-.308-3.54-.308-3.54s.051 2.616-.256 3.13c-.308.512-.565.666-.924 1.333-.359.667.154 1.077.36 1.282Z"/><path fill="#FDC168" d="m13.642 9.823-.178-.113c-.524.018.178.113.178.113Z"/><path fill="#FBA919" d="M20.207 10.82s-.82-.137-1.231-.753c-.41-.615-1.573-1.846-3.426-1.86-1.853-.014-3.686.492-3.686.492l1.6 1.012c.17-.006.465-.004.955.013 2.008.066 2.317 2.053 2.317 2.053l7.078-.975"/><path fill="#fff" d="M20.89 21.791s-.957.958-2.427.65c-1.47-.308-2.36-.958-2.428-2.086-.068-1.128.308-1.573.308-1.573s1.641.513 2.428 1.197c.786.684 1.367 1.778 2.12 1.812Z"/><path fill="#C9C9C9" d="M19.732 21.45s-.83.378-1.759.07c-1.215-.406-1.296-1.67-1.296-1.67s-.745 2.188 1.345 2.61c1.676.337 2.667-.634 2.667-.634l-.957-.377Z"/><path fill="#463014" d="M20.322 10.355c-.09-1.876 1.449-3.37 1.981-3.433.03.318-.03 1.558.503 1.939.156-1.013.68-2.13 2.75-2.861-.443 1.176-.058 2.162.125 2.618 1.414-1.283 2.367-1.071 2.367-1.071s-.983 1.695-.599 2.808c-2.839-.223-7.113.302-7.127 0Zm-6.018 2.858c-.677-.562-.173-1.084-.226-1.722-.03-.34-.056-.66-.168-.837-.623-.985-2.094-1.283-2.108-1.286l-.69-.135.456-.535c.06-.07 1.936-1.86 4.839-.922 2.03.655 3.534 2.876 3.59 2.966l-1.018.479c-.012-.019-1.2-2.107-2.943-2.669-1.409-.454-2.707-.022-3.263.262.591.236 1.364.665 1.83 1.4.22.348.257.785.292 1.208.048.56.092 1.09.504 1.432l-1.095.359Zm-1.809 8.203s.853-1.058 1.106-3.117c.1-.811-.077-2.411-.36-3.027.052 1.513-.333 3.027-.333 3.027s-.259 2.81-.413 3.117Z"/><path fill="#463014" d="M16.995 12.144c0-.002-.274-1.197-1.032-1.8-1.07-.85-2.375-.398-2.387-.394l-.19-.586c.063-.02 1.556-.49 2.93.476 1.384.972 1.55 1.854 1.565 1.951l-.886.353Zm-1.82 8.513s-.448-.64-.367-1.346c.04-.348.201-.705.49-.832.534-.235.772.372.772.372s-.754.186-.895 1.806Z"/><path fill="#463014" d="m20.09 21.634.03.054s-1.397 1.048-2.828-.015c-.766-.57-.694-1.98-.46-2.577a4.593 4.593 0 0 1 1.561.679c-.547-.488-1.025-.848-1.024-.856l-.621-.176-1.208-.414c-.016.092-.456 2.157.815 3.564.564.624 3.207 2.022 4.461-.367l-.725.108Z"/><path fill="#463014" d="M19.96 21.788c.786 1.196 2.77.512 2.736-.753 0 0-1.326.732-2.497-.615-.683-.787-2.874-2.955-5.845-2.234 2.052.451 4.768 2.326 5.606 3.602Z"/><path fill="#463014" d="M14.076 25.165c.19.109.856.8.857 1.833 0 .518-.052 3.12-.308 4.71.386.251.654.305 1.038.56.192-1.841.33-4.51.266-5.588-.073-1.228-.73-2.052-1.34-2.404-.192-.11-.391-.218-.592-.326-1.045-.565-2.125-1.149-2.125-2.146 0-.78.303-1.023.624-1.282l.035-.028c.213-.172.454-.367.597-.688.39-.876.453-3.108 0-3.674-.226-.283-.832-1.232-.658-1.87.066-.243.22-.424.47-.552.264-.135.62-.204 1.06-.204.863 0 1.82.263 2.314.42 1.764.559 3.893 2.171 4.503 2.652l.03.023.39.271-.243-.409c-.016-.025-1.562-2.568-4.328-3.501-.538-.181-1.596-.486-2.634-.486-.619 0-1.144.108-1.56.32-.506.26-.849.673-.991 1.196-.35 1.281.788 2.707.827 2.753.132.237.188 1.957-.118 2.645-.042.095-.157.188-.304.306a6.99 6.99 0 0 1-.151.117c-.432.326-1.086.82-1.086 1.955 0 1.555 1.576 2.398 2.842 3.076.208.112.406.217.585.32Z"/><path fill="#463014" d="M14.304 13.213c-.677-.562-.173-1.084-.226-1.722-.03-.34-.056-.66-.168-.837-.623-.985-2.094-1.283-2.108-1.286l-.69-.135.456-.535c.06-.07 1.936-1.86 4.839-.922 2.03.655 3.534 2.876 3.59 2.966l-1.018.479c-.012-.019-1.2-2.107-2.943-2.669-1.409-.454-2.707-.022-3.263.262.591.236 1.364.665 1.83 1.4.22.348.257.785.292 1.208.048.56.092 1.09.504 1.432l-1.095.359Z"/><path fill="#463014" d="m14.282 13.328-.044-.036c-.502-.417-.413-.828-.327-1.225.04-.184.08-.373.064-.568-.027-.326-.054-.635-.152-.79-.594-.938-2.028-1.238-2.042-1.24l-.862-.17.571-.668c.01-.012 1.215-1.228 3.255-1.228a5.51 5.51 0 0 1 1.693.275c2.12.684 3.632 2.987 3.646 3.01l.061.097-1.204.567-.049-.077c-.13-.22-1.271-2.104-2.887-2.626a4.038 4.038 0 0 0-1.242-.192 4.53 4.53 0 0 0-1.736.352c.558.252 1.235.675 1.663 1.35.233.368.271.818.308 1.252.045.54.088 1.049.467 1.364l.143.118-1.326.435Z"/><path fill="#463014" d="M16.995 12.144c0-.002-.274-1.197-1.032-1.8-1.07-.85-2.375-.398-2.387-.394l-.19-.586c.063-.02 1.556-.49 2.93.476 1.384.972 1.55 1.854 1.565 1.951l-.886.353Z"/><path fill="#463014" d="m16.921 12.284-.026-.118c-.003-.011-.271-1.165-.996-1.742-.413-.329-.911-.496-1.48-.496a2.72 2.72 0 0 0-.81.119l-.098.032-.254-.78.097-.032a3.47 3.47 0 0 1 1-.138c.74 0 1.438.217 2.022.627 1.418.997 1.591 1.918 1.606 2.02l.012.08-1.073.428Zm-2.502-2.56c.607 0 1.164.186 1.608.54.643.512.946 1.417 1.038 1.742l.697-.279c-.063-.246-.341-.985-1.504-1.803a3.243 3.243 0 0 0-1.903-.59c-.388 0-.69.063-.838.1l.126.39c.146-.04.426-.1.776-.1Zm6.318 28.03c-.303 0-.613-.11-.827-.295-.164-.142-.72-.652-.964-1.276-.091-.234-.07-.42.062-.555.091-.092.28-.202.666-.202h2.068c.292 0 .502.063.623.186.155.16.105.362.062.468-.076.187-.388.795-.916 1.36-.19.203-.465.314-.775.314Zm.317-15.896-1.094-.07s.28.492.46 1.13c.205.722-.186 1.776-.186 1.776s1.459-1.652.82-2.836Zm-1.366 18.785c-3.894-.299-5.264-3.979-5.264-4.745h1.017-.509.509c.005.331 1.04 3.479 4.325 3.731l-.078 1.014Z"/><path fill="#fff" d="M18.594 34.05a2.554 2.554 0 0 1 .007-1.013c-.296-.222-.827-.305-1.226-.434-.325-.206-1.993.211-3.203-1.253-1.515-1.833-1.196-2.928-1.196-2.928-.389.432-.766.268-1.358 2.281-.593 2.014.278 3.418 1.903 4.827.768.666 1.853.94 2.786 1.045-.313-.314.534-.346 1.117-.564-.046-.471.032-.928.383-1.297.212-.222.484-.354.767-.46l.044-.105a.882.882 0 0 1-.024-.099Z"/><path fill="#C9C9C9" d="M17.416 35.999a3.58 3.58 0 0 1-.084-.301c-.027-.111-.161-.425.005-.066a1.323 1.323 0 0 1-.091-.282c-2.631-.004-4.92-1.81-4.478-5.608-.345-.457-.827.922-.827.922s-1.317 3.825 2.085 5.307c1.133.495 2.135.849 2.371.706.493.1.937-.243 1.104-.469a2.515 2.515 0 0 1-.085-.21Z"/><path fill="#463014" d="M18.546 33.5c.005-.321.07-.632.225-.94.01-.022.023-.043.035-.063-1.012-.009-2.178-.106-3.171-.503-1.092-.437-2.457-1.93-2.691-3.685 0 0-2.056 1.586-1.452 4.98.567 3.188 3.234 4.227 6.277 4.403.001-.02-.342-.73-.234-1.165-1.727.125-3.659-.542-4.591-2.077-.854-1.404-.615-3.802-.264-4.153.856 2.7 3.936 3.25 5.866 3.202Z"/><path fill="#463014" d="M18.865 31.566c-.547 1.607-1.665 2.907-1.665 2.907s1.538-.07 1.623-.342c.062-.2 1.389-3.305 1.897-6.941-.478.786-1.808 4.239-1.855 4.376Z"/><path fill="#E78724" d="M27.58 27.863s1.743 2.666 3.023 4.559c.198.292-1.28.313-1.28.313l-1.743-4.872Zm-.83-5.529s.525 1.311.813 2.006c.312.756 1.504 1.132 1.504 1.132s-.618-.648-.618-2.29c0-.688-.889-.962-.889-.962l-.81.114Z"/><path fill="#E78724" d="M27.28 23.075s1.077 1.282 3.078.564c2-.718 2.205-3.282 2.205-4s-3.795.718-4.308 1.026c-.513.307-1.488 1.538-.975 2.41Zm7.555-13.701s-1.846-.359-3.077.616c-1.231.974-1.59 1.744-1.59 1.744l2.074 1.644s1.003-.465 1.311-1.798c.308-1.334.103-1.95 1.282-2.206Z"/><path fill="#E78724" d="M27.819 19.372c.795-1.129 2.104-1.62 3.15-1.703 1.784-.139 2.63.491 2.63.491s-2.92.124-3.762 1.23c-1.568 2.058-3.853 2.225-4.219 1.773.423.021.888-.188 1.386-.659.31-.294.563-.774.815-1.132Zm4.931 3.989s3.24-1.114 2.625-2.242c-.616-1.128-.126-1.743-.126-1.743s1.81 1.35 1.348 2.787c-.283.881-.759 1.52-3.37 2.743-1.251 2.326-.258 6.512-.317 6.532-.1.033-1.758-.82-1.645-4.737.035-1.203.13-2.845 1.485-3.34Zm-4.247-11.98c1.358.69 3.22 1.652 3.22 1.652l-.732.367c.07.113.104.18.104.18l-.753.342s-1.835 1.33-2.96 2.185c.374-1.155 1.475-2.969 1.475-2.969s.313-.833-.354-1.757Zm-4.514 28.141c4.176 0 5.59-2.12 5.59-2.12l-.652 1.59c-.247.687-2.879 2.827-4.932 2.827"/><path fill="#E78724" d="M29.122 35.969s-.384 2.349-1.923 2.349c-1.307 0-1.692-1.984-1.692-2.394l3.615.045Zm2.561-3.542c-.137-.376-.615-1.898-.77-3.282-.184-1.659-.116-4.084-.116-4.084s.41 1.59.769 1.846c.359.257 1.026 2 1.026 2s.357 2.596.527 3.469c-.47.094-.866-.183-1.436.051Zm3.717-10.29s-.873-.308-1.13-2.205c-.256-1.898.309-3.54.309-3.54s-.052 2.616.256 3.13c.308.512.564.666.923 1.333.359.667-.154 1.077-.359 1.282Z"/><path fill="#FDC168" d="m34.358 9.823.178-.113c.525.018-.178.113-.178.113Z"/><path fill="#FBA919" d="M27.793 10.82s.82-.137 1.23-.753c.411-.615 1.574-1.846 3.427-1.86 1.853-.014 3.686.492 3.686.492l-1.6 1.012c-.17-.006-.465-.004-.955.013-2.008.066-2.317 2.053-2.317 2.053l-7.078-.975"/><path fill="#fff" d="M27.11 21.791s.957.958 2.427.65c1.47-.308 2.36-.958 2.428-2.086.068-1.128-.308-1.573-.308-1.573s-1.641.513-2.427 1.197c-.787.684-1.368 1.778-2.12 1.812Z"/><path fill="#C9C9C9" d="M28.268 21.45s.83.378 1.758.07c1.216-.406 1.297-1.67 1.297-1.67s.745 2.188-1.345 2.61c-1.676.337-2.668-.634-2.668-.634l.958-.377Z"/><path fill="#463014" d="M33.696 13.213c.678-.562.173-1.084.227-1.722.028-.34.055-.66.167-.837.624-.985 2.094-1.283 2.11-1.286l.69-.135-.458-.535c-.059-.07-1.935-1.86-4.839-.922-2.03.655-3.534 2.876-3.59 2.966l1.018.479c.013-.019 1.201-2.107 2.944-2.669 1.408-.454 2.706-.022 3.262.262-.59.236-1.364.665-1.83 1.4-.22.348-.256.785-.292 1.208-.047.56-.091 1.09-.504 1.432l1.095.359Zm1.809 8.203s-.853-1.058-1.106-3.117c-.099-.811.077-2.411.36-3.027-.052 1.513.333 3.027.333 3.027s.26 2.81.413 3.117Z"/><path fill="#463014" d="M31.005 12.144c0-.002.274-1.197 1.032-1.8 1.07-.85 2.375-.398 2.387-.394l.19-.586c-.063-.02-1.555-.49-2.93.476-1.384.972-1.55 1.854-1.565 1.951l.886.353Zm1.82 8.513s.448-.64.367-1.346c-.04-.348-.201-.705-.49-.832-.534-.235-.772.372-.772.372s.754.186.895 1.806Z"/><path fill="#463014" d="M27.91 21.634c-.02.035-.029.054-.029.054s1.396 1.048 2.827-.015c.767-.57.694-1.98.46-2.577a4.61 4.61 0 0 0-1.561.679c.547-.488 1.025-.848 1.024-.856l.622-.176 1.207-.414c.016.092.456 2.158-.816 3.565-.563.624-3.206 2.02-4.46-.368l.726.108Z"/><path fill="#463014" d="M28.04 21.788c-.787 1.196-2.77.512-2.735-.753 0 0 1.325.732 2.496-.615.683-.787 2.875-2.955 5.846-2.234-2.052.451-4.768 2.326-5.607 3.602Z"/><path fill="#463014" d="M33.924 25.165c-.189.109-.856.8-.856 1.833 0 .518.05 3.12.308 4.71-.386.251-.655.305-1.039.56-.192-1.841-.33-4.51-.266-5.588.074-1.228.731-2.052 1.34-2.404.192-.11.391-.218.593-.326 1.044-.565 2.125-1.149 2.125-2.146 0-.78-.304-1.023-.625-1.282l-.034-.028c-.213-.172-.455-.367-.597-.688-.39-.876-.454-3.108 0-3.674.226-.283.832-1.232.658-1.87-.067-.243-.22-.424-.47-.552-.264-.135-.62-.204-1.06-.204-.863 0-1.82.263-2.314.42-1.765.559-3.894 2.171-4.504 2.652l-.03.023-.39.271.244-.409c.015-.025 1.562-2.568 4.327-3.501.539-.181 1.596-.486 2.635-.486.618 0 1.143.108 1.559.32.506.26.849.673.992 1.196.349 1.281-.789 2.707-.828 2.753-.132.237-.188 1.957.118 2.645.042.095.157.188.304.306.046.037.097.076.151.117.433.326 1.086.82 1.086 1.955 0 1.555-1.576 2.398-2.842 3.076-.208.112-.406.217-.585.32Z"/><path fill="#463014" d="M32.045 13.03c-.25-.425-.892-1.244-2.37-1.964-1.648-.804-3.556-1.212-5.67-1.213h-.01c-2.115.001-4.024.409-5.672 1.212-1.477.72-2.118 1.54-2.369 1.965l-.107.142 1.265.282.04-.051.021-.046c.02-.084.19-.535 1.6-1.223 1.507-.736 3.266-1.108 5.226-1.109 1.96 0 3.718.373 5.226 1.109 1.41.688 1.58 1.139 1.6 1.223l.02.046.04.05 1.266-.28-.107-.143Z"/><path fill="#463014" d="M33.696 13.213c.678-.562.173-1.084.227-1.722.028-.34.055-.66.167-.837.624-.985 2.094-1.283 2.11-1.286l.69-.135-.458-.535c-.059-.07-1.935-1.86-4.839-.922-2.03.655-3.534 2.876-3.59 2.966l1.018.479c.013-.019 1.201-2.107 2.944-2.669 1.408-.454 2.706-.022 3.262.262-.59.236-1.364.665-1.83 1.4-.22.348-.256.785-.292 1.208-.047.56-.091 1.09-.504 1.432l1.095.359Z"/><path fill="#463014" d="m32.392 12.894.143-.12c.38-.314.422-.822.468-1.362.036-.435.074-.885.307-1.252.428-.676 1.106-1.099 1.664-1.35a4.533 4.533 0 0 0-1.736-.353c-.428 0-.845.065-1.242.193-1.616.521-2.758 2.405-2.888 2.626l-.048.076-1.205-.566.061-.098c.015-.023 1.526-2.326 3.646-3.01a5.509 5.509 0 0 1 1.693-.275c2.04 0 3.245 1.216 3.255 1.229l.572.668-.862.169c-.015.003-1.449.303-2.043 1.24-.098.156-.124.464-.152.791-.016.195.025.384.064.567.087.398.175.809-.327 1.225l-.044.036-1.326-.434Z"/><path fill="#463014" d="M31.005 12.144c0-.002.274-1.197 1.032-1.8 1.07-.85 2.375-.398 2.387-.394l.19-.586c-.063-.02-1.555-.49-2.93.476-1.384.972-1.55 1.854-1.565 1.951l.886.353Z"/><path fill="#463014" d="m30.006 11.856.012-.08c.015-.102.189-1.023 1.607-2.02a3.493 3.493 0 0 1 2.02-.627c.561 0 .957.124 1.001.138l.098.031-.255.781-.098-.032a2.732 2.732 0 0 0-.81-.119c-.568 0-1.066.167-1.48.496-.724.577-.992 1.73-.995 1.742l-.027.117-1.073-.427Zm4.352-2.033.126-.389c-.149-.038-.45-.1-.838-.1-.707 0-1.347.2-1.903.59-1.164.818-1.442 1.557-1.505 1.803l.698.279c.091-.325.394-1.23 1.038-1.742.444-.354 1-.54 1.607-.54.35 0 .63.06.777.1ZM26.489 37.44c-.529-.565-.841-1.173-.917-1.36-.043-.106-.092-.309.063-.468.12-.123.33-.187.623-.187h1.795l.274.001c.385 0 .574.11.665.202.133.135.154.321.062.555-.244.625-.8 1.134-.963 1.276a1.294 1.294 0 0 1-.827.295 1.04 1.04 0 0 1-.775-.314Zm.457-15.582 1.094-.07s-.28.492-.46 1.13c-.205.722.186 1.776.186 1.776s-1.459-1.652-.82-2.836Z"/><path fill="#E78724" d="M24 17.951c-.697 0-1.606-.019-2.289-.51 0 0 .894 1.567 2.288 1.567L24 18.81l.001.198c1.395 0 2.288-1.566 2.288-1.566-.682.49-1.592.51-2.289.51Z"/><path fill="#463014" d="M25.92 17.944c-.7.423-1.324.57-1.92.583-.596-.013-1.22-.16-1.92-.583 0 0 1.019 1.243 1.915 1.252v.001h.01c.896-.01 1.915-1.253 1.915-1.253Zm2.392 22.699-.078-1.014c3.285-.252 4.32-3.4 4.325-3.731h1.017c0 .766-1.37 4.446-5.264 4.745Z"/><path fill="#fff" d="M29.406 34.05a2.552 2.552 0 0 0-.007-1.013c.296-.222.827-.305 1.226-.434.325-.206 1.993.211 3.203-1.253 1.516-1.833 1.196-2.928 1.196-2.928.39.432.766.268 1.358 2.281.594 2.014-.279 3.418-1.903 4.827-.767.666-1.852.94-2.786 1.045.313-.314-.534-.346-1.117-.564.047-.471-.032-.928-.383-1.297-.211-.222-.484-.354-.767-.46l-.044-.105a.928.928 0 0 0 .024-.099Z"/><path fill="#C9C9C9" d="M30.583 35.999c.035-.099.06-.2.085-.301.027-.111.161-.425-.005-.066.043-.092.07-.187.091-.282 2.631-.004 4.92-1.81 4.478-5.608.344-.457.827.922.827.922s1.317 3.825-2.085 5.307c-1.133.495-2.135.849-2.371.706-.493.1-.937-.243-1.104-.469.031-.07.06-.139.084-.21Z"/><path fill="#463014" d="M29.453 33.5a2.112 2.112 0 0 0-.224-.94c-.01-.022-.023-.043-.035-.063 1.012-.009 2.179-.106 3.171-.503 1.092-.437 2.457-1.93 2.692-3.685 0 0 2.055 1.586 1.45 4.98-.566 3.188-3.233 4.227-6.275 4.403-.002-.02.342-.73.233-1.165 1.727.125 3.659-.542 4.592-2.077.853-1.404.613-3.802.263-4.153-.856 2.7-3.936 3.25-5.867 3.202Z"/><path fill="#463014" d="M30.682 34.3c-.364-.394-1.032-.862-2.573-.862l-4.104-.003h-.01l-4.104.003c-1.54 0-2.209.468-2.572.861-.53.572-.613 1.367-.247 2.362.974 2.646 2.342 5.335 6.923 5.338V42h.01c4.58-.004 5.949-2.693 6.923-5.34.366-.994.283-1.79-.246-2.36Zm-.713 2.175c-.464 1.329-1.711 4.546-5.969 4.551-4.258-.005-5.505-3.222-5.969-4.551-.256-.737-.237-1.283.06-1.622.203-.232.67-.508 1.733-.508h1.11L24 34.342l3.066.001 1.11.001c1.063 0 1.53.276 1.733.508.297.34.316.885.06 1.622Z"/><path fill="#463014" d="M29.135 31.566c.547 1.607 1.665 2.907 1.665 2.907s-1.538-.07-1.623-.342c-.062-.2-1.388-3.305-1.897-6.941.478.786 1.808 4.239 1.855 4.376Z"/></svg>