<svg xmlns="http://www.w3.org/2000/svg" fill="none" aria-hidden="true" viewBox="0 0 48 48"><path fill="#D34A47" fill-rule="evenodd" d="M32.938 5.063V5.06l.008-.008c.095-.137-.075-.458-.389-.73-.322-.28-.674-.4-.786-.271l-4.723 5-.935 3.804A62.43 62.43 0 0 0 24 12.821c-4.974 0-9.006.567-9.006 1.266 0 .699 4.032 1.266 9.006 1.266s9.006-.567 9.006-1.266c0-.515-2.187-.958-5.326-1.156l.805-3.184 4.443-4.674a.138.138 0 0 0 .01-.01Zm-6.414 9.693c.513-.003.687-.042.687-.042h.01c.151-.021.376-.052.377-.232 0-.108-.09-.17-.195-.203l-.077.121c.064.016.1.035.1.056 0 .068-.485.1-.887.106-.402.005-.927-.042-.927-.111 0-.015.02-.029.053-.04l-.077-.123c-.082.034-.147.088-.147.178a.23.23 0 0 0 .06.154c.145.132.51.138 1.023.136Z" clip-rule="evenodd"/><path fill="#D34A47" d="m28.89 42.794.384-6.395 1.06-1.809s-2.412.987-6.45.987-6.413-.968-6.413-.968l1.188 1.973.42 6.212c0 .666 2.196 1.206 4.906 1.206 2.71 0 4.906-.54 4.906-1.206Z"/><path fill="#D34A47" d="M29.874 25.341c-.53.528-1.258 1.254-1.198 1.833.132 1.265 2.186.143 2.835-.489l-.793 7.132s-1.761 1.321-6.877 1.321c-5.115 0-6.813-1.342-6.813-1.342l-.64-6.157c1.076.527 1.946-.339 2.497-.886.08-.08.152-.151.217-.212.01.106-.077.373-.181.693-.218.667-.511 1.562-.135 1.681.428.136.665-.743.953-1.816.086-.319.177-.654.278-.985.066-.216.137-.436.207-.653.353-1.088.688-2.121.235-2.245-.382-.104-.578.56-.747 1.13-.072.243-.14.47-.214.613-.353.677-2.44 2.96-2.69 1.266-.196-1.329 1.288-3.993 1.978-4.668.346-.34.881-.652 1.266-.554.265.067.41.33.544.572.135.244.259.47.484.456 1.064-.06-.178-1.85-1.107-1.899-2.044-.105-3.341 3.034-3.887 4.586l-1.029-9.916s1.09.986 8.826.986c7.736 0 8.952-1.007 8.952-1.007l-1.208 10.864c-.44.592-1.468 1.243-2.102 1.326-.244.032-.031-.18.308-.52.568-.565 1.489-1.485 1.217-2.204-.367-.97-1.888.01-2.295.474.1-.291.17-.674-.244-.7-.21-.013-.306.29-.431.688-.12.382-.269.851-.573 1.207-.525.614-.841.718-1.31.871-.085.028-.175.057-.272.092-.578.204.488-2.242 1.269-4.034l.216-.497c.165-.382.545-1.407.084-1.559-.347-.115-.774.993-1.25 2.232-.156.404-.317.822-.482 1.216-.384.916-.526 1.466-.615 1.81-.067.259-.103.4-.19.494-.312.338-.824.49-.95.396-.339-.256.004-1.079.306-1.805.251-.602.475-1.138.26-1.231-.344-.149-.747.745-1.023 1.355-.105.234-.192.426-.25.502l-.001.002c-.05.066-1.135 1.506-1.537 1.2-.237-.18.118-1.062.426-1.764.024-.055.06-.126.101-.205.195-.38.496-.966.128-1.116-.444-.182-2.23 3.422-1.1 3.853.862.329 1.58-.462 1.9-1.029-.145 1.341 1.14 1.065 1.74.554.36 1.014 1.711.015 2.168-.323a8.1 8.1 0 0 1 .052-.038c-.117.392-.337.875-.554 1.354-.42.922-.83 1.824-.479 2.014.453.246 1.108-1.415 1.44-2.257.058-.148.107-.271.143-.354.647-1.503 1.288-2.939 2.576-3.012.258.02-.029.305-.43.704Z"/></svg>