<svg xmlns="http://www.w3.org/2000/svg" fill="none" aria-hidden="true" viewBox="0 0 48 48"><g fill="#D34A47"><path fill-rule="evenodd" d="m32.938 5.063.001-.002.007-.008c.095-.137-.075-.458-.389-.73-.322-.28-.674-.4-.786-.271l-4.723 5-.935 3.804A62.43 62.43 0 0 0 24 12.821c-4.974 0-9.006.567-9.006 1.266 0 .699 4.032 1.266 9.006 1.266s9.006-.567 9.006-1.266c0-.515-2.187-.958-5.326-1.156l.806-3.184 4.442-4.674a.12.12 0 0 0 .01-.01Zm-6.414 9.693c.513-.003.688-.042.688-.042h.009c.151-.021.376-.052.377-.232 0-.108-.09-.17-.195-.203l-.077.121c.064.016.1.035.1.056 0 .068-.485.1-.887.106-.402.005-.927-.042-.927-.111 0-.015.02-.029.054-.04l-.078-.123c-.082.034-.147.088-.147.178 0 .048.02.119.06.154.145.132.51.138 1.023.136Z" clip-rule="evenodd"/><path d="m28.89 42.794.384-6.395 1.06-1.809s-2.412.987-6.45.987c-4.037 0-6.413-.968-6.413-.968l1.188 1.973.42 6.212c0 .666 2.196 1.206 4.906 1.206 2.71 0 4.906-.54 4.906-1.206Z"/><path d="M29.874 25.341c-.529.528-1.258 1.254-1.198 1.833.132 1.265 2.186.143 2.835-.489l-.793 7.132s-1.761 1.321-6.877 1.321c-5.115 0-6.813-1.342-6.813-1.342l-.64-6.157c1.076.527 1.947-.339 2.497-.886.08-.08.152-.151.217-.212.01.106-.076.373-.18.693-.22.667-.512 1.562-.136 1.681.428.136.665-.743.954-1.816.085-.319.176-.654.277-.985.066-.216.137-.436.208-.653.352-1.088.687-2.121.234-2.245-.381-.104-.578.56-.747 1.13-.072.243-.14.47-.214.613-.353.677-2.44 2.96-2.69 1.266-.196-1.329 1.288-3.993 1.978-4.668.346-.34.881-.652 1.266-.554.265.067.41.33.544.572.135.244.259.47.484.456 1.064-.06-.178-1.85-1.107-1.899-2.044-.105-3.341 3.034-3.887 4.586l-1.029-9.916s1.09.986 8.826.986c7.736 0 8.952-1.007 8.952-1.007l-1.208 10.864c-.44.592-1.467 1.243-2.102 1.326-.244.032-.03-.18.308-.52.568-.565 1.489-1.485 1.217-2.204-.367-.97-1.888.01-2.295.474.1-.291.17-.674-.243-.7-.21-.013-.307.29-.432.688-.12.382-.269.851-.573 1.207-.525.614-.841.718-1.31.871-.085.028-.175.057-.272.092-.578.204.488-2.242 1.269-4.034l.216-.497c.166-.382.546-1.407.084-1.559-.347-.115-.774.993-1.25 2.232-.156.404-.317.822-.482 1.216a11.965 11.965 0 0 0-.615 1.81c-.067.259-.103.4-.19.494-.311.338-.824.49-.95.396-.339-.256.004-1.079.307-1.805.25-.602.474-1.138.259-1.231-.344-.149-.747.745-1.023 1.355-.105.234-.192.426-.25.502v.002c-.051.066-1.136 1.506-1.538 1.2-.237-.18.118-1.062.426-1.764.024-.055.06-.126.101-.205.195-.38.496-.966.129-1.116-.445-.182-2.232 3.422-1.1 3.853.861.329 1.579-.462 1.899-1.029-.145 1.341 1.14 1.065 1.74.554.36 1.014 1.712.015 2.169-.323l.051-.038c-.117.392-.337.875-.554 1.354-.42.922-.83 1.824-.479 2.014.453.246 1.108-1.415 1.44-2.257.058-.148.107-.271.143-.354.647-1.503 1.288-2.939 2.576-3.012.258.02-.028.305-.429.704Z"/></g></svg>