<svg xmlns="http://www.w3.org/2000/svg" fill="none" aria-hidden="true" viewBox="0 0 48 48"><path fill="url(#a)" d="m33.619 6.109-.225-.08a1.041 1.041 0 0 0-.755.106 512.306 512.306 0 0 0-4.958 2.048.375.375 0 0 0 .002.692l4.135 1.722c.14.058.231.195.232.347.002 1.354.02 2.622.003 3.979a.375.375 0 0 1-.23.34l-10.887 4.585a.376.376 0 0 1-.522-.347V9.291c0-.392-.22-.69-.548-.856a1.078 1.078 0 0 0-.097-.046l-5.444-2.306a1.041 1.041 0 0 0-.918.051 646.33 646.33 0 0 0-4.823 1.992.375.375 0 0 0-.007.69l4.053 1.791c.136.06.224.195.224.344v13.031c.032.142.09.264.167.365a.899.899 0 0 0 .404.34L25.4 30.385l.064.025a.95.95 0 0 0 .431.102l.07-.003a.982.982 0 0 0 .907-.983v-4.02c0-.164.106-.31.262-.359l4.434-1.409a.376.376 0 0 1 .49.359l-.005 17.282c0 .153.092.291.233.349l.206.084c.066.026.134.046.204.06.281.095.587.087.863-.024l5.43-2.22c.208-.092.35-.194.438-.31.136-.142.22-.33.22-.6V9.292a.9.9 0 0 0-.337-.702 1.046 1.046 0 0 0-.308-.2l-5.383-2.281Z"/><path fill="url(#b)" d="M20.437 33.99a.376.376 0 0 0-.215-.342l-6.042-2.872a.973.973 0 0 0-1.326.673v9.929c0 .15.09.285.227.345l.316.137a.993.993 0 0 0 .1.034c.257.126.564.145.85.028l5.383-2.144a1.063 1.063 0 0 0 .657-.981.904.904 0 0 0 .004-.088l.046-4.718Z"/><defs><linearGradient id="a" x1="23.713" x2="23.713" y1="7.549" y2="40.424" gradientUnits="userSpaceOnUse"><stop stop-color="#F1CB2B"/><stop offset="1" stop-color="#D62B5F"/></linearGradient><linearGradient id="b" x1="23.713" x2="23.713" y1="7.549" y2="40.424" gradientUnits="userSpaceOnUse"><stop stop-color="#F1CB2B"/><stop offset="1" stop-color="#D62B5F"/></linearGradient></defs></svg>