<svg xmlns="http://www.w3.org/2000/svg" fill="none" aria-hidden="true" viewBox="0 0 48 48"><path fill="#1B41E9" d="M23.409 38.11 8.745 23.447c-8.183-8.183 3.8-19.263 11.547-11.52l2.842 2.914a2.039 2.039 0 0 0 3.36 0l3.332-3.288a1.809 1.809 0 1 1 2.735 2.357l-7.932 7.992c-1.448 1.448.463 3.178 1.835 1.807l2.053-1.999a1.794 1.794 0 1 1 2.574 2.465L24.908 30.4c-1.544 1.544.183 3.441 1.758 1.864l8.738-8.556c2.092-2.093 4.375.66 2.59 2.446L26.21 38.115a1.984 1.984 0 0 1-2.804 0l.003-.005Zm14.845-17.149a1.873 1.873 0 1 1 3.746 0 1.873 1.873 0 0 1-3.746 0Zm-5.677-3.207c1.907-1.908 3.928-3.96 5.955-5.988 2.027-2.028 4.492.433 2.57 2.355-1.923 1.923-6.088 6.024-6.088 6.024a2.04 2.04 0 0 1-1.44.654 1.68 1.68 0 0 1-.997-3.043v-.002Z"/></svg>