<svg xmlns="http://www.w3.org/2000/svg" fill="none" aria-hidden="true" viewBox="0 0 48 48"><path fill="#21B5E7" d="M41.738 16.477c.848-1.92 1.674-4.722 1.674-6.865 0-5.681-6.222-7.685-16.38-3.014-8.41-.56-16.502 5.756-18.524 14.567 2.41-2.723 6.115-6.43 9.53-7.903-4.24 3.773-7.856 8.55-10.601 13.53C5.817 29.753 4 34.541 4 38.12c0 7.701 7.254 6.758 14.082 3.282 2.455 1.205 5.2 1.216 7.945 1.216 7.588 0 14.395-4.242 16.939-11.408h-9.44c-4.103 6.922-15.377 4.14-15.377-3.706h25.687c.5-3.404-.13-7.477-2.098-11.028ZM9.044 31.1c1.383 3.996 4.195 7.49 7.833 9.633C9.944 44.556 3.34 43.006 9.044 31.1Zm9.06-8.506c.157-4.309 3.928-7.412 8.124-7.412 4.173 0 7.967 3.103 8.123 7.412H18.104ZM32.521 7.938c1.674-.804 3.794-1.72 5.669-1.72 2.455 0 4.24 1.697 4.24 4.198 0 1.563-.58 3.829-1.138 5.302-2.053-3.304-5.155-6.374-8.77-7.78Z"/></svg>