<svg xmlns="http://www.w3.org/2000/svg" fill="none" aria-hidden="true" viewBox="0 0 48 48"><path fill="#283544" d="M42 24c0 9.936-8.055 18-18 18S6 33.936 6 24c0-9.945 8.055-18 18-18s18 8.055 18 18Z"/><path fill="#fff" d="M12.54 30.222h1.965V21.1H12.54v9.122Zm.978-10.318c.608 0 1.098-.517 1.098-1.162 0-.663-.49-1.17-1.098-1.17-.6 0-1.09.507-1.09 1.17 0 .645.49 1.162 1.09 1.162Zm7.856-2.307c-3.324 0-5.408 2.47-5.408 6.42 0 3.95 2.084 6.412 5.408 6.412 3.316 0 5.4-2.462 5.4-6.412 0-3.95-2.084-6.42-5.4-6.42Zm0 1.893c2.03 0 3.324 1.756 3.324 4.527 0 2.763-1.295 4.518-3.324 4.518-2.037 0-3.324-1.755-3.324-4.518 0-2.77 1.287-4.526 3.324-4.526Zm6.561 7.238c.087 2.29 1.809 3.7 4.43 3.7 2.755 0 4.492-1.48 4.492-3.838 0-1.85-.979-2.891-3.292-3.468l-1.31-.327c-1.398-.361-1.975-.843-1.975-1.67 0-1.032.869-1.72 2.156-1.72 1.303 0 2.195.697 2.29 1.858h1.942c-.048-2.186-1.706-3.666-4.216-3.666-2.48 0-4.24 1.49-4.24 3.692 0 1.773.995 2.874 3.095 3.4l1.476.378c1.437.37 2.021.886 2.021 1.782 0 1.032-.955 1.772-2.329 1.772-1.39 0-2.44-.748-2.566-1.893h-1.974Z"/></svg>