<svg xmlns="http://www.w3.org/2000/svg" fill="none" aria-hidden="true" viewBox="0 0 48 48"><path fill="#8A4182" d="m21.166 25.33 2.256 1.63v1.171l-4.391 6.01-3.376-2.439 4.39-6.01 1.121-.362Zm-.357-1.094.861-2.636-.693-.948-7.104-2.295-1.29 3.946 7.105 2.296 1.12-.363Zm1.797-3.312h2.788l.693-.949v-7.427h-4.174v7.428l.693.948Zm4.228 4.406-2.256 1.63v1.172l4.391 6.009 3.377-2.439-4.392-6.01-1.12-.362Zm.357-1.094L26.33 21.6l.692-.947 7.105-2.296 1.29 3.947-7.105 2.295-1.12-.362Zm2.312 1.994 5.4 1.745.357-1.094-5.4-1.745-.357 1.094Zm-1.488-6.876-.936-.676 3.338-4.568.936.676-3.338 4.568Zm-11.309-4.61 3.337 4.568.936-.676-3.337-4.568-.936.676Zm-3.631 13.163-.357-1.094 5.4-1.744.357 1.094-5.4 1.744Zm11.468 7.501h-1.157v-5.646h1.157v5.646Z"/><path fill="#8A4182" fill-rule="evenodd" d="M24 6.1c-9.925 0-18 8.029-18 17.897C6 33.87 14.075 41.9 24 41.9c9.926 0 18-8.03 18-17.902 0-9.868-8.074-17.896-18-17.896Zm0 3.624c7.927 0 14.355 6.39 14.355 14.273 0 7.886-6.428 14.278-14.354 14.278-7.93 0-14.356-6.392-14.356-14.278 0-7.883 6.427-14.273 14.356-14.273Z" clip-rule="evenodd"/></svg>