<svg xmlns="http://www.w3.org/2000/svg" fill="none" aria-hidden="true" viewBox="0 0 48 48"><path fill="#FFCA28" d="M6 6h36v36H6z"/><path fill="#3E3E3E" d="m27.857 35.941 2.65-1.754c.208.653 1.524 2.203 3.185 2.203 1.662 0 2.433-.908 2.433-1.51 0-1.639-1.696-2.217-2.511-2.495a4.674 4.674 0 0 1-.317-.115 4.616 4.616 0 0 0-.171-.067c-.907-.346-4.25-1.624-4.25-5.327 0-4.078 3.936-4.547 4.826-4.547.583 0 3.383.07 4.777 2.691l-2.571 1.795c-.564-1.142-1.5-1.52-2.077-1.52-1.424 0-1.721 1.045-1.721 1.52 0 1.334 1.547 1.931 2.854 2.436.342.132.667.258.944.389 1.424.673 3.52 1.774 3.52 5.24 0 1.737-1.456 4.549-5.122 4.549-4.926 0-6.231-2.958-6.449-3.488ZM15 36.29l2.763-1.753c.216.652 1.057 1.855 2.278 1.855 1.22 0 1.845-1.254 1.845-1.855V22.714h3.397v11.823c.055 1.63-.849 4.892-4.84 4.892-3.67 0-5.196-2.181-5.443-3.14Z"/></svg>