<svg xmlns="http://www.w3.org/2000/svg" fill="none" aria-hidden="true" viewBox="0 0 48 48"><path fill="#5382A1" d="M31.674 32.376c6.755-3.51 3.632-6.882 1.452-6.428-.534.111-.773.208-.773.208s.199-.311.578-.445c4.312-1.516 7.628 4.47-1.392 6.842 0 0 .104-.093.135-.177ZM17.62 27.934c-4.226-.565 2.317-2.119 2.317-2.119s-2.54-.17-5.666 1.34c-3.695 1.787 9.14 2.6 15.785.853.69-.472 1.645-.881 1.645-.881s-2.719.486-5.426.714c-3.314.278-6.87.332-8.655.093Zm1.608 3.351c-2.356-.243-.813-1.386-.813-1.386-6.098 2.024 3.392 4.32 11.913 1.828a4.268 4.268 0 0 1-1.482-.904c-4.164.802-6.57.777-9.618.462Zm1.027 3.627c-2.355-.271-.98-1.071-.98-1.071-5.535 1.547 3.367 4.742 10.415 1.721-1.155-.448-1.981-.967-1.981-.967-3.144.595-4.602.642-7.454.317Z"/><path fill="#5382A1" d="M34.995 36.756s1.018.839-1.121 1.488c-4.068 1.232-16.931 1.604-20.504.049-1.285-.559 1.124-1.334 1.882-1.497.79-.171 1.242-.14 1.242-.14-1.429-1.006-9.234 1.977-3.965 2.83 14.369 2.33 26.193-1.049 22.466-2.73Z"/><path fill="#5382A1" d="M37.275 38.589c-.235 3.068-10.191 3.713-16.674 3.298-4.23-.272-5.077-.95-5.09-.96 4.048.668 10.873.79 16.406-.252 4.905-.923 5.358-2.086 5.358-2.086Z"/><path fill="#E76F00" d="M24.055 15.496C31.343 9.742 27.602 6 27.602 6c1.008 3.966-1.698 6.085-4.343 8.156-1.319 1.032-2.622 2.053-3.442 3.284-1.68 2.522.824 5.232 4.235 8.31-.301-.682-.767-1.344-1.237-2.015-1.607-2.287-3.28-4.67 1.24-8.24Z"/><path fill="#E76F00" d="M25.218 27.012s2.193-1.8.456-3.798c-5.886-6.783 6.438-9.861 6.438-9.861-7.514 4.358-6.508 5.755-4.75 8.197l.24.335c2.025 2.85-2.384 5.127-2.384 5.127Z"/></svg>