<svg xmlns="http://www.w3.org/2000/svg" fill="none" aria-hidden="true" viewBox="0 0 48 48"><path fill="url(#a)" d="m15.113 34.069-8.72-6.863 4.332-8.043L23.156 24l-8.043 10.069Z"/><path fill="url(#b)" d="m42 15.619-.675 20.812L27.487 42l-8.324-5.4L31.313 24l-5.288-11.7 4.781-5.738L42 15.62Z"/><path fill="url(#c)" d="M42 15.619 31.031 28.556 26.025 12.3l4.781-5.738L42 15.62Z"/><path fill="url(#d)" d="M23.325 35.869 8.925 41.1l2.306-8.1 2.982-10.012L6 20.23 11.231 6l11.25 1.35L33.62 20.063 23.325 35.868Z"/><path fill="#000" d="M35.25 12.75h-22.5v22.5h22.5v-22.5Z"/><path fill="#fff" d="M14.887 31.031h8.438v1.407h-8.438V31.03Zm6.02-13.668v-1.688h-4.613v1.688h1.293v5.906h-1.293v1.744h4.612v-1.744h-1.293v-5.906h1.293Zm4.5 7.762a3.774 3.774 0 0 1-1.857-.394c-.47-.26-.89-.602-1.238-1.012l1.294-1.463c.234.257.498.484.788.675.272.16.584.238.9.225.347.027.684-.12.9-.393.26-.336.381-.76.337-1.182v-6.018h2.082v6.074c.02.498-.056.995-.226 1.463-.148.475-.42.902-.787 1.237-.638.474-1.4.748-2.194.788Z"/><defs><linearGradient id="a" x1="6.394" x2="23.122" y1="26.616" y2="26.616" gradientUnits="userSpaceOnUse"><stop offset=".26" stop-color="#F97A12"/><stop offset=".46" stop-color="#B07B58"/><stop offset=".72" stop-color="#577BAE"/><stop offset=".91" stop-color="#1E7CE5"/><stop offset="1" stop-color="#087CFA"/></linearGradient><linearGradient id="b" x1="19.241" x2="48.785" y1="18.802" y2="25.59" gradientUnits="userSpaceOnUse"><stop stop-color="#F97A12"/><stop offset=".07" stop-color="#CB7A3E"/><stop offset=".15" stop-color="#9E7B6A"/><stop offset=".24" stop-color="#757B91"/><stop offset=".33" stop-color="#537BB1"/><stop offset=".43" stop-color="#387CCC"/><stop offset=".54" stop-color="#237CE0"/><stop offset=".66" stop-color="#147CEF"/><stop offset=".79" stop-color="#0B7CF7"/><stop offset="1" stop-color="#087CFA"/></linearGradient><linearGradient id="c" x1="38.513" x2="25.93" y1="28.061" y2="8.215" gradientUnits="userSpaceOnUse"><stop stop-color="#FE315D"/><stop offset=".08" stop-color="#CB417E"/><stop offset=".16" stop-color="#9E4E9B"/><stop offset=".25" stop-color="#755BB4"/><stop offset=".34" stop-color="#5365CA"/><stop offset=".44" stop-color="#386DDB"/><stop offset=".54" stop-color="#2374E9"/><stop offset=".66" stop-color="#1478F3"/><stop offset=".79" stop-color="#0B7BF8"/><stop offset="1" stop-color="#087CFA"/></linearGradient><linearGradient id="d" x1="11.524" x2="41.82" y1="14.454" y2="45.485" gradientUnits="userSpaceOnUse"><stop stop-color="#FE315D"/><stop offset=".04" stop-color="#F63462"/><stop offset=".1" stop-color="#DF3A71"/><stop offset=".17" stop-color="#C24383"/><stop offset=".29" stop-color="#AD4A91"/><stop offset=".55" stop-color="#755BB4"/><stop offset=".92" stop-color="#1D76ED"/><stop offset="1" stop-color="#087CFA"/></linearGradient></defs></svg>