<svg xmlns="http://www.w3.org/2000/svg" fill="none" aria-hidden="true" viewBox="0 0 48 48"><path fill="url(#a)" d="m30.446 13.029 9.325 7.817-3.337 6.811-5.668-1.554H25.92l4.526-13.074Z"/><path fill="url(#b)" d="M21.029 18.103 19.2 27.657l-.183 3.291-4.526 1.966L8 33.6l1.966-20.71L21.669 8l7.222 4.754-7.862 5.349Z"/><path fill="url(#c)" d="m21.029 18.103.868 18.468-2.926 3.43L8 33.6l9.006-13.44 4.023-2.058Z"/><path fill="url(#d)" d="M33.097 16.731H21.988L31.819 8l1.28 8.731Z"/><path fill="url(#e)" d="m40 36.617-9.783 3.337-12.983-3.657 3.795-18.194 1.508-1.372L30.446 16l-.732 7.954 6.309-2.423L40 36.617Z"/><path fill="#000" d="M14.126 14.125h19.748v19.749H14.126V14.125Z"/><path fill="#fff" d="M27.383 16.594c-2.514 0-4.252 1.92-4.252 4.251 0 2.332 1.783 4.206 4.206 4.16 1.554 0 2.514-.548 3.337-1.463L29.531 22.4c-.64.594-1.234.96-2.148.96-1.417 0-2.377-1.098-2.377-2.515s1.005-2.56 2.377-2.56c.823 0 1.463.32 2.103.915l1.142-1.326c-.777-.777-1.69-1.28-3.245-1.28Z"/><path fill="#fff" fill-rule="evenodd" d="M15.954 16.731h3.291c1.966 0 3.154 1.143 3.154 2.834 0 1.875-1.463 2.926-3.291 2.926h-1.372v2.423h-1.782V16.73Zm3.2 4.114c.914 0 1.417-.594 1.417-1.28 0-.823-.549-1.234-1.463-1.234h-1.372v2.514h1.418Z" clip-rule="evenodd"/><path fill="#fff" d="M16 30.171h7.405v1.234H16v-1.234Z"/><defs><linearGradient id="a" x1="19.428" x2="38.471" y1="20.364" y2="20.364" gradientUnits="userSpaceOnUse"><stop stop-color="#21D789"/><stop offset="1" stop-color="#07C3F2"/></linearGradient><linearGradient id="b" x1="-3.227" x2="35.986" y1="35.008" y2="6.061" gradientUnits="userSpaceOnUse"><stop offset=".011" stop-color="#FCF84A"/><stop offset=".112" stop-color="#A7EB62"/><stop offset=".206" stop-color="#5FE077"/><stop offset=".273" stop-color="#32DA84"/><stop offset=".306" stop-color="#21D789"/><stop offset=".577" stop-color="#21D789"/><stop offset=".597" stop-color="#21D789"/><stop offset=".686" stop-color="#20D68C"/><stop offset=".763" stop-color="#1ED497"/><stop offset=".835" stop-color="#19D1A9"/><stop offset=".904" stop-color="#13CCC2"/><stop offset=".971" stop-color="#0BC6E1"/><stop offset="1" stop-color="#07C3F2"/></linearGradient><linearGradient id="c" x1="12.265" x2="18.805" y1="43.499" y2="22.976" gradientUnits="userSpaceOnUse"><stop stop-color="#21D789"/><stop offset=".164" stop-color="#24D788"/><stop offset=".305" stop-color="#2FD886"/><stop offset=".437" stop-color="#41DA82"/><stop offset=".564" stop-color="#5ADC7D"/><stop offset=".688" stop-color="#7AE077"/><stop offset=".809" stop-color="#A1E36E"/><stop offset=".925" stop-color="#CFE865"/><stop offset="1" stop-color="#F1EB5E"/></linearGradient><linearGradient id="d" x1="20.926" x2="35.158" y1="25.656" y2="6.521" gradientUnits="userSpaceOnUse"><stop stop-color="#21D789"/><stop offset=".061" stop-color="#24D788"/><stop offset=".113" stop-color="#2FD886"/><stop offset=".162" stop-color="#41DA82"/><stop offset=".209" stop-color="#5ADD7D"/><stop offset=".255" stop-color="#79E077"/><stop offset=".258" stop-color="#7CE076"/><stop offset=".499" stop-color="#8CE173"/><stop offset=".925" stop-color="#B2E56B"/></linearGradient><linearGradient id="e" x1="42.692" x2="14.015" y1="28.091" y2="27.826" gradientUnits="userSpaceOnUse"><stop offset=".387" stop-color="#FCF84A"/><stop offset=".536" stop-color="#ECF451"/><stop offset=".826" stop-color="#C2E964"/><stop offset=".925" stop-color="#B2E56B"/></linearGradient></defs></svg>