<svg xmlns="http://www.w3.org/2000/svg" fill="none" aria-hidden="true" viewBox="0 0 48 48"><g id="jb-rubymine-Icon"><g id="Group"><path id="Vector" fill="url(#paint0_linear_94_16921)" d="M35.8801 6L25.6792 9.72094L17.5201 6L9.6001 26.0391L18.721 22.3209L18.6001 32.5191L38.161 32.8791L42.0001 13.0791L35.8801 6Z"/><path id="Vector_2" fill="url(#paint1_linear_94_16921)" d="M32.1593 17.641L19.1993 9.11908L8.75928 15.5991L31.6812 24.481L32.1593 17.641Z"/><path id="Vector_3" fill="url(#paint2_linear_94_16921)" d="M20.9991 41.041L34.44 39.241L30.12 30.961L33 27.6L33.2391 25.44L19.1991 9.11908L6 12.3591V31.321L13.56 42L20.9991 41.041Z"/><path id="Vector_4" fill="black" d="M35.9981 11.9991H11.999V35.9981H35.9981V11.9991Z"/><path id="Vector_5" fill="white" d="M23.7607 14.4009H26.1598L28.6798 18.96L31.3207 14.4009H33.5988V25.2009H31.4388V18.1191L28.6798 22.7991L25.9207 18.24V25.2009H23.7607V14.4009ZM14.4007 14.4009H18.8388C20.0388 14.4009 20.9988 14.7609 21.7188 15.4809C22.3179 16.08 22.5626 16.9209 22.5626 18.0122C22.5652 18.7736 22.3579 19.5209 21.9635 20.1722C21.6166 20.758 21.0578 21.188 20.4026 21.3731L22.8017 25.2122H20.2704L18.2398 21.84H16.4398V25.2009H14.2798V14.4009H14.4007ZM18.7207 19.68C19.1513 19.7086 19.5778 19.5807 19.9217 19.32C20.221 19.0395 20.3944 18.6501 20.4026 18.24C20.4262 17.7885 20.2503 17.3495 19.9217 17.0391C19.5766 16.7813 19.1503 16.6565 18.7207 16.6875H16.5607V19.8009H18.7207V19.68ZM14.4007 32.0409H23.4007V33.4809H14.4007V32.0409Z"/></g></g><defs><linearGradient id="paint0_linear_94_16921" x1="31.5095" x2="24.4494" y1="33.0169" y2="8.84211" gradientUnits="userSpaceOnUse"><stop offset="0.17" stop-color="#FF1F51"/><stop offset="0.28" stop-color="#FF3648"/><stop offset="0.47" stop-color="#FF593B"/><stop offset="0.65" stop-color="#FF7231"/><stop offset="0.81" stop-color="#FF812B"/><stop offset="0.94" stop-color="#FF8629"/></linearGradient><linearGradient id="paint1_linear_94_16921" x1="23.1593" x2="21.2828" y1="12.6375" y2="23.6011" gradientUnits="userSpaceOnUse"><stop offset="0.02" stop-color="#9039D0"/><stop offset="0.63" stop-color="#FF1F51"/></linearGradient><linearGradient id="paint2_linear_94_16921" x1="6.135" x2="32.9734" y1="11.7713" y2="37.2969" gradientUnits="userSpaceOnUse"><stop offset="0.11" stop-color="#9039D0"/><stop offset="0.39" stop-color="#FF1F51"/><stop offset="0.63" stop-color="#FF1F51"/><stop offset="0.66" stop-color="#FF3648"/><stop offset="0.71" stop-color="#FF593B"/><stop offset="0.77" stop-color="#FF7231"/><stop offset="0.81" stop-color="#FF812B"/><stop offset="0.85" stop-color="#FF8629"/></linearGradient></defs></svg>