<svg xmlns="http://www.w3.org/2000/svg" fill="none" aria-hidden="true" viewBox="0 0 48 48"><path fill="url(#a)" d="m35.88 6-10.2 3.72L17.52 6 9.6 26.04l9.121-3.72-.12 10.2 19.56.36 3.84-19.8L35.88 6Z"/><path fill="url(#b)" d="M32.16 17.641 19.2 9.119 8.76 15.6l22.921 8.882.478-6.84Z"/><path fill="url(#c)" d="m21 41.041 13.44-1.8-4.32-8.28L33 27.6l.24-2.16L19.2 9.12 6 12.36v18.96L13.56 42l7.44-.959Z"/><path fill="#000" d="M35.998 12H12v23.998h24V12Z"/><path fill="#fff" d="M23.76 14.4h2.4l2.52 4.56 2.64-4.56h2.28v10.8h-2.16v-7.08l-2.76 4.68-2.758-4.56v6.96h-2.16V14.4Zm-9.36 0h4.439c1.2 0 2.16.36 2.88 1.08.599.6.844 1.44.844 2.532a4.143 4.143 0 0 1-.6 2.16 2.652 2.652 0 0 1-1.56 1.201l2.399 3.84H20.27l-2.03-3.373h-1.8v3.36h-2.16V14.4h.12Zm4.32 5.28c.431.029.858-.1 1.202-.36.299-.28.472-.67.48-1.08a1.541 1.541 0 0 0-.48-1.2 1.791 1.791 0 0 0-1.201-.352h-2.16V19.8h2.16v-.121ZM14.4 32.04h9v1.44h-9v-1.44Z"/><defs><linearGradient id="a" x1="31.509" x2="24.449" y1="33.017" y2="8.842" gradientUnits="userSpaceOnUse"><stop offset=".17" stop-color="#FF1F51"/><stop offset=".28" stop-color="#FF3648"/><stop offset=".47" stop-color="#FF593B"/><stop offset=".65" stop-color="#FF7231"/><stop offset=".81" stop-color="#FF812B"/><stop offset=".94" stop-color="#FF8629"/></linearGradient><linearGradient id="b" x1="23.159" x2="21.283" y1="12.637" y2="23.601" gradientUnits="userSpaceOnUse"><stop offset=".02" stop-color="#9039D0"/><stop offset=".63" stop-color="#FF1F51"/></linearGradient><linearGradient id="c" x1="6.135" x2="32.973" y1="11.771" y2="37.297" gradientUnits="userSpaceOnUse"><stop offset=".11" stop-color="#9039D0"/><stop offset=".39" stop-color="#FF1F51"/><stop offset=".63" stop-color="#FF1F51"/><stop offset=".66" stop-color="#FF3648"/><stop offset=".71" stop-color="#FF593B"/><stop offset=".77" stop-color="#FF7231"/><stop offset=".81" stop-color="#FF812B"/><stop offset=".85" stop-color="#FF8629"/></linearGradient></defs></svg>