<svg xmlns="http://www.w3.org/2000/svg" fill="none" aria-hidden="true" viewBox="0 0 48 48"><path fill="#fff" d="M44 33.193a6.22 6.22 0 0 1-6.21 6.21H4V14.807a6.22 6.22 0 0 1 6.21-6.21H44v24.596Z"/><path fill="url(#a)" d="M32.997 26.885h2.567c.074 0 .245-.024.318-.024.49-.098.905-.538.905-1.15 0-.586-.416-1.026-.905-1.149-.073-.024-.22-.024-.318-.024h-2.567v2.347Z"/><path fill="url(#b)" d="M35.271 10.675a4.45 4.45 0 0 0-4.45 4.45v4.62h6.284c.147 0 .318 0 .44.025 1.418.073 2.47.807 2.47 2.078 0 1.003-.71 1.859-2.03 2.03v.049c1.443.097 2.543.904 2.543 2.151 0 1.345-1.223 2.225-2.836 2.225h-6.895v9.047h6.528a4.45 4.45 0 0 0 4.45-4.45V10.675H35.27Z"/><path fill="url(#c)" d="M36.469 22.142a1.04 1.04 0 0 0-.905-1.052c-.049 0-.17-.024-.244-.024h-2.323v2.152h2.323c.073 0 .22 0 .244-.025a1.04 1.04 0 0 0 .905-1.051Z"/><path fill="url(#d)" d="M10.675 10.675a4.45 4.45 0 0 0-4.45 4.45v10.978c1.247.61 2.542 1.002 3.838 1.002 1.54 0 2.372-.929 2.372-2.2V19.72h3.814v5.16c0 2.004-1.247 3.642-5.477 3.642-2.567 0-4.572-.562-4.572-.562v9.364h6.528a4.45 4.45 0 0 0 4.45-4.45v-22.2h-6.504Z"/><path fill="url(#e)" d="M22.973 10.675a4.45 4.45 0 0 0-4.45 4.45v5.819c1.125-.954 3.081-1.565 6.235-1.418 1.687.073 3.497.538 3.497.538v1.882c-.905-.464-1.981-.88-3.375-.978-2.396-.17-3.838 1.003-3.838 3.056 0 2.079 1.442 3.252 3.838 3.057 1.394-.098 2.47-.538 3.375-.978v1.882s-1.785.465-3.497.538c-3.154.147-5.11-.464-6.235-1.418v10.27h6.529a4.45 4.45 0 0 0 4.45-4.45v-22.25h-6.529Z"/><defs><linearGradient id="a" x1="30.817" x2="41.804" y1="25.714" y2="25.714" gradientUnits="userSpaceOnUse"><stop stop-color="#007940"/><stop offset=".229" stop-color="#00873F"/><stop offset=".743" stop-color="#40A737"/><stop offset="1" stop-color="#5CB531"/></linearGradient><linearGradient id="b" x1="30.817" x2="41.805" y1="24.002" y2="24.002" gradientUnits="userSpaceOnUse"><stop stop-color="#007940"/><stop offset=".229" stop-color="#00873F"/><stop offset=".743" stop-color="#40A737"/><stop offset="1" stop-color="#5CB531"/></linearGradient><linearGradient id="c" x1="30.817" x2="41.804" y1="22.139" y2="22.139" gradientUnits="userSpaceOnUse"><stop stop-color="#007940"/><stop offset=".229" stop-color="#00873F"/><stop offset=".743" stop-color="#40A737"/><stop offset="1" stop-color="#5CB531"/></linearGradient><linearGradient id="d" x1="6.219" x2="17.377" y1="24.002" y2="24.002" gradientUnits="userSpaceOnUse"><stop stop-color="#1F286F"/><stop offset=".475" stop-color="#004E94"/><stop offset=".826" stop-color="#0066B1"/><stop offset="1" stop-color="#006FBC"/></linearGradient><linearGradient id="e" x1="18.46" x2="29.297" y1="24.002" y2="24.002" gradientUnits="userSpaceOnUse"><stop stop-color="#6C2C2F"/><stop offset=".173" stop-color="#882730"/><stop offset=".573" stop-color="#BE1833"/><stop offset=".859" stop-color="#DC0436"/><stop offset="1" stop-color="#E60039"/></linearGradient></defs></svg>