<svg xmlns="http://www.w3.org/2000/svg" fill="none" aria-hidden="true" viewBox="0 0 48 48"><g id="jira-Icon"><g id="Group"><path id="Shape" fill="#2684FF" d="M38.6635 8H23.2539C23.2539 9.84488 23.9868 11.6142 25.2913 12.9187C26.5958 14.2233 28.3652 14.9561 30.21 14.9561H33.0486V17.6967C33.0511 21.535 36.162 24.6459 40.0003 24.6484V9.33686C40.0003 8.59853 39.4018 8 38.6635 8Z"/><path id="Shape_2" fill="url(#paint0_linear_94_16735)" d="M31.0389 15.6781H15.6294C15.6319 19.5163 18.7428 22.6273 22.5811 22.6297H25.4197V25.3792C25.4246 29.2175 28.5375 32.3264 32.3758 32.3264V17.0149C32.3758 16.2766 31.7773 15.6781 31.0389 15.6781Z"/><path id="Shape_3" fill="url(#paint1_linear_94_16735)" d="M23.4096 23.3516H8C8 27.1934 11.1144 30.3078 14.9561 30.3078H17.8036V33.0483C17.8061 36.8831 20.9116 39.9926 24.7464 40V24.6885C24.7464 23.9502 24.1479 23.3516 23.4096 23.3516Z"/></g></g><defs><linearGradient id="paint0_linear_94_16735" x1="28.6461" x2="22.1309" y1="12.4464" y2="19.2447" gradientUnits="userSpaceOnUse"><stop offset="0.18" stop-color="#0052CC"/><stop offset="1" stop-color="#2684FF"/></linearGradient><linearGradient id="paint1_linear_94_16735" x1="495.726" x2="215.821" y1="459.777" y2="736.784" gradientUnits="userSpaceOnUse"><stop offset="0.18" stop-color="#0052CC"/><stop offset="1" stop-color="#2684FF"/></linearGradient></defs></svg>