<svg xmlns="http://www.w3.org/2000/svg" fill="none" aria-hidden="true" viewBox="0 0 48 48"><path fill="#2684FF" d="M38.663 8h-15.41a6.956 6.956 0 0 0 6.957 6.956h2.839v2.74A6.956 6.956 0 0 0 40 24.649V9.337C40 8.599 39.402 8 38.663 8Z"/><path fill="url(#a)" d="M31.039 15.678h-15.41a6.956 6.956 0 0 0 6.952 6.952h2.839v2.75a6.956 6.956 0 0 0 6.956 6.946V17.015c0-.738-.599-1.337-1.337-1.337Z"/><path fill="url(#b)" d="M23.41 23.352H8a6.956 6.956 0 0 0 6.956 6.956h2.848v2.74A6.956 6.956 0 0 0 24.746 40V24.689c0-.739-.598-1.337-1.336-1.337Z"/><defs><linearGradient id="a" x1="28.646" x2="22.131" y1="12.446" y2="19.245" gradientUnits="userSpaceOnUse"><stop offset=".18" stop-color="#0052CC"/><stop offset="1" stop-color="#2684FF"/></linearGradient><linearGradient id="b" x1="495.726" x2="215.821" y1="459.777" y2="736.784" gradientUnits="userSpaceOnUse"><stop offset=".18" stop-color="#0052CC"/><stop offset="1" stop-color="#2684FF"/></linearGradient></defs></svg>