<svg xmlns="http://www.w3.org/2000/svg" fill="none" aria-hidden="true" viewBox="0 0 48 48"><path fill="#F9AE41" d="M41.874 10.88a4.723 4.723 0 0 0-9.398-.667l-.048-.025c-3.862-1.742-7.116 1.343-7.116 1.343l-8.606 8.649 3.4 3.274 6.927-6.805c3.235-3.235 4.996-1.046 4.996-1.046 2.435 2.058.084 4.493.084 4.493l3.485 3.358c2.845-3.073 3.01-5.755 2.145-7.889a4.723 4.723 0 0 0 4.131-4.684Z"/><path fill="#EE4035" d="m37.787 32.602.025-.048c1.743-3.863-1.343-7.116-1.343-7.116L27.82 16.83l-3.274 3.401 6.805 6.927c3.235 3.235 1.046 4.996 1.046 4.996-2.057 2.435-4.493.084-4.493.084l-3.358 3.485c3.073 2.845 5.755 3.01 7.889 2.145a4.723 4.723 0 1 0 5.352-5.267Z"/><path fill="#4F91CD" d="m27.894 24.546-6.927 6.805c-3.235 3.235-4.996 1.046-4.996 1.046-2.435-2.058-.084-4.492-.084-4.492l-3.485-3.36c-2.845 3.074-3.01 5.756-2.145 7.89a4.722 4.722 0 1 0 5.267 5.352l.048.025c3.863 1.743 7.116-1.343 7.116-1.343l8.606-8.649-3.4-3.274Z"/><path fill="#7AC043" d="M16.649 20.84c-3.235-3.234-1.046-4.995-1.046-4.995 2.058-2.435 4.493-.084 4.493-.084l3.358-3.484c-3.073-2.846-5.755-3.01-7.889-2.146a4.723 4.723 0 1 0-5.352 5.267l-.025.048c-1.743 3.863 1.343 7.116 1.343 7.116l8.649 8.607 3.274-3.401-6.805-6.927Z"/></svg>