<svg xmlns="http://www.w3.org/2000/svg" fill="none" aria-hidden="true" viewBox="0 0 48 48"><path fill="#F7DF1E" d="M6.26 10.008h28.28v27.984H6.26V10.008Z"/><path fill="#EEE" d="M34.8 38.25H6V9.75h28.8v28.5Zm-28.26-.538h27.72V10.288H6.54v27.424Z"/><path fill="#000" d="M25.288 31.972c.571.933 1.314 1.618 2.628 1.618 1.104 0 1.808-.552 1.808-1.314 0-.913-.724-1.237-1.939-1.768l-.665-.286c-1.922-.818-3.2-1.844-3.2-4.013 0-1.998 1.523-3.518 3.902-3.518 1.693 0 2.91.589 3.788 2.132l-2.074 1.332c-.457-.82-.95-1.142-1.714-1.142-.78 0-1.275.495-1.275 1.142 0 .799.495 1.122 1.638 1.617l.666.286c2.263.97 3.54 1.96 3.54 4.184 0 2.398-1.883 3.712-4.413 3.712-2.474 0-4.072-1.179-4.854-2.724l2.164-1.258Zm9.609 0c.57.933 1.314 1.618 2.628 1.618 1.103 0 1.808-.552 1.808-1.314 0-.913-.724-1.237-1.939-1.768l-.666-.286c-1.922-.818-3.199-1.844-3.199-4.013 0-1.998 1.522-3.518 3.901-3.518 1.694 0 2.912.589 3.789 2.132l-2.075 1.332c-.456-.82-.949-1.142-1.714-1.142-.78 0-1.274.495-1.274 1.142 0 .799.495 1.122 1.637 1.617l.666.286c2.263.97 3.54 1.96 3.54 4.184 0 2.398-1.883 3.712-4.413 3.712-2.474 0-4.072-1.179-4.854-2.724l2.165-1.258Zm-19.018.231c.418.743.8 1.37 1.714 1.37.875 0 1.427-.342 1.427-1.673v-9.058h2.664v9.093c0 2.758-1.617 4.014-3.978 4.014-2.133 0-3.368-1.104-3.996-2.433l2.169-1.313Z"/></svg>