<svg xmlns="http://www.w3.org/2000/svg" fill="none" aria-hidden="true" viewBox="0 0 48 48"><path fill="#000" d="M23.992 4.5C12.4 4.5 3 11.958 3 21.16c0 5.951 3.927 11.163 9.841 14.123l-2.129 7.656s-.04.357.19.492c.228.134.504.031.504.031.663-.095 7.65-5.038 8.872-5.894 1.206.174 2.46.261 3.73.261C35.6 37.83 45 30.372 45 21.17S35.584 4.5 23.992 4.5Z"/><path fill="#FFE812" d="M12.384 26.968c-.67 0-1.214-.524-1.214-1.166v-7.244H9.277a1.185 1.185 0 0 1-1.183-1.19c0-.658.536-1.19 1.183-1.19h6.206c.655 0 1.183.532 1.183 1.19a1.19 1.19 0 0 1-1.183 1.19h-1.892v7.244c0 .634-.552 1.166-1.215 1.166h.008Zm10.622-.016c-.504 0-.89-.206-1.009-.54l-.6-1.586h-3.69l-.6 1.587c-.117.333-.504.54-1.009.54-.268 0-.528-.056-.772-.16-.332-.158-.655-.579-.284-1.73l2.894-7.67c.205-.588.828-1.191 1.616-1.207.789-.016 1.42.619 1.617 1.206l2.894 7.672c.37 1.15.047 1.587-.284 1.73a1.823 1.823 0 0 1-.773.158Zm-2.247-4.284-1.207-3.46-1.206 3.46h2.413Zm5.252 4.126c-.631 0-1.16-.5-1.16-1.111v-8.29c0-.675.553-1.223 1.239-1.223s1.238.556 1.238 1.222v7.156h2.57c.631 0 1.16.5 1.16 1.111 0 .61-.52 1.11-1.16 1.11l-3.887.025Zm5.512-1.064V17.4c0-.674.552-1.222 1.214-1.222a1.23 1.23 0 0 1 1.215 1.222v2.618l3.39-3.411c.374-.376 1.08-.343 1.507.087.401.404.506 1.086.087 1.515l-2.776 2.777 2.98 3.967c.401.516.304 1.32-.236 1.698-.532.396-1.314.264-1.695-.238l-2.84-3.785-.417.42v2.659c0 1.583-2.429 1.644-2.429.023Z"/></svg>