<svg xmlns="http://www.w3.org/2000/svg" fill="none" aria-hidden="true" viewBox="0 0 48 48"><g id="kayako-Icon"><g id="kayako"><path id="vector" fill="#F15713" d="M7.5 41.8801C7.5 42.838 8.05851 43.5 9.00743 43.5H26.9608C24.5513 38.7409 21.8538 34.3998 18.496 30.3302C15.0219 32.5084 11.3499 34.3919 7.5 35.927V41.8801Z"/><path id="vector_2" fill="#69AAB5" d="M7.5 12.2359C11.3401 13.7662 15.0037 15.6442 18.4692 17.8144C21.8386 13.7375 24.756 9.27127 27.1715 4.5H9.37104C8.33746 4.5 7.5 5.34565 7.5 6.38899"/><path id="vector_3" fill="#FFB1A2" d="M18.4963 30.3302C21.4795 28.4601 24.3165 26.3765 26.9732 24.0812C24.3086 21.7791 21.4612 19.6894 18.4707 17.8151C16.6533 20.0146 14.7006 22.0933 12.6401 24.0568C14.711 26.0312 16.6721 28.1203 18.4963 30.3302Z"/><path id="vector_4" fill="#F37036" d="M26.9723 24.0818C24.3158 26.3769 21.479 28.4603 18.4961 30.3302C21.8539 34.3998 24.5513 38.7409 26.9608 43.4999L40.443 43.5C41.6874 43.5 42.1472 42.6172 41.6874 41.8246C37.7869 35.1058 32.7968 29.1154 26.9723 24.0818Z"/><path id="vector_5" fill="#85B8C1" d="M27.1706 4.50202C24.7563 9.27039 21.8363 13.7401 18.4693 17.815C21.4598 19.6894 24.3085 21.7791 26.9731 24.0812C32.8853 18.97 37.9392 12.876 41.8647 6.03389C42.2545 5.35419 41.755 4.5 40.9754 4.5L27.1706 4.50202Z"/><path id="vector_6" fill="#F76F6D" d="M7.5 28.5102C9.28334 27.1069 10.9979 25.6224 12.6405 24.0574C10.9979 22.493 9.28334 21.0067 7.5 19.6052V28.5102Z"/><path id="vector_7" fill="#F39D90" d="M7.5 12.236C11.3401 13.7662 15.0037 15.6442 18.4692 17.8144C16.6518 20.0139 14.7004 22.0934 12.64 24.0568C10.9974 22.4925 9.28332 21.0068 7.50011 19.6054L7.5 12.236Z"/><path id="vector_8" fill="#FA8176" d="M18.4961 30.3303C16.672 28.1204 14.7107 26.0312 12.64 24.0569C10.9973 25.6219 9.28334 27.1071 7.5 28.5104V35.9269C11.3499 34.3918 15.0221 32.5085 18.4961 30.3303Z"/></g></g></svg>