<svg xmlns="http://www.w3.org/2000/svg" fill="none" aria-hidden="true" viewBox="0 0 48 48"><path fill="#0081C2" d="M24 6 7.18 14.262v19.476L24 42l16.82-8.262V14.262L24 6Z"/><path fill="#fff" d="M36.772 30.24a2.32 2.32 0 0 0-.394-.978 3.047 3.047 0 0 0-.667-.685 4.397 4.397 0 0 0-1.682-.762c.134-.175.256-.354.37-.54a5.29 5.29 0 0 0 .548-1.218c.126-.433.185-.9.129-1.36a2.668 2.668 0 0 0-.49-1.255 3.184 3.184 0 0 0-.432-.482l-.119-.105a6.106 6.106 0 0 0-.123-.098l-.128-.094-.125-.084a.147.147 0 0 0-.189.223l.103.11.093.106.09.11.085.113c.11.153.203.313.275.477.147.329.209.674.184 1.01a2.548 2.548 0 0 1-.29.972 4.2 4.2 0 0 1-.597.868 5.034 5.034 0 0 1-.465.464c-.016.013-.031.027-.045.037l-.005.004h-.001c-.003.003.02-.018.008-.008v-.001c.002-.002 0 0-.002 0l-.02.014a3.811 3.811 0 0 1-1.125.49c-.316.08-.632.11-.938.095a2.992 2.992 0 0 1-.887-.182l-.038-.014a3.02 3.02 0 0 0 .747-.202 2.44 2.44 0 0 0 1.003-.761 2.53 2.53 0 0 0 .31-.517 3.13 3.13 0 0 0 .268-1.021c.032-.326.026-.633.002-.93l-.01-.11-.013-.116c-.004-.037-.008-.078-.013-.112l-.015-.097-.008-.049-.003-.023-.002-.013-.001-.006v-.003a.233.233 0 0 1-.002-.013l-.015-.093-.03-.186a17.07 17.07 0 0 1-.1-.745c-.015-.124-.023-.248-.035-.372-.01-.124-.016-.248-.025-.372a9.793 9.793 0 0 1-.009-.74c.002-.124.012-.246.018-.368.011-.121.02-.244.037-.364a4.74 4.74 0 0 1 .143-.707 3.01 3.01 0 0 1 .268-.649c.112-.203.255-.385.43-.527a1.191 1.191 0 0 1 .447-.23c.027-.007.05-.01.076-.017.029-.005.064-.007.096-.01h.005a.147.147 0 0 0-.002-.293c-.033-.003-.063-.008-.1-.01-.038-.002-.08-.004-.117-.002a1.476 1.476 0 0 0-.647.175 2.306 2.306 0 0 0-.688.554 3.62 3.62 0 0 0-.476.723c-.129.255-.233.52-.32.787-.046.133-.082.268-.12.403-.033.135-.067.271-.094.407a10.974 10.974 0 0 0-.206 1.64c-.016.274-.025.547-.027.82v.306c0 .01-.001-.01-.001-.008v.096l-.002.098c0 .031-.002.055-.003.083l-.005.08-.006.085c-.018.225-.05.44-.103.63a2.278 2.278 0 0 1-.09.262 1.242 1.242 0 0 1-.113.203.563.563 0 0 1-.248.21.906.906 0 0 1-.334.064 2.078 2.078 0 0 1-.577-.068s-.67-.236-.45-1.003a1.2 1.2 0 0 1 .927-.638s1.075-8.327-5.663-13.68c-.004-.002-.009 0-.009 0-6.737 5.353-5.662 13.68-5.662 13.68.538.079.814.399.955.692a.77.77 0 0 1-.455.945 2.05 2.05 0 0 1-.093.02c-.183.04-.356.057-.498.052a.915.915 0 0 1-.335-.066.566.566 0 0 1-.247-.209 1.257 1.257 0 0 1-.112-.203 2.318 2.318 0 0 1-.09-.261 3.397 3.397 0 0 1-.103-.63l-.007-.085-.004-.08-.004-.084v-.148l-.001-.024v-.021c0-.004-.002.018 0 .007v-.102l-.001-.205c-.002-.272-.01-.545-.027-.819a10.974 10.974 0 0 0-.207-1.64c-.025-.136-.06-.272-.093-.407-.038-.135-.074-.27-.12-.403a5.56 5.56 0 0 0-.32-.787 3.62 3.62 0 0 0-.477-.723 2.302 2.302 0 0 0-.688-.554 1.498 1.498 0 0 0-.647-.175c-.037-.002-.079 0-.117.001-.037.003-.067.008-.1.011a.147.147 0 0 0-.001.292h.004c.032.004.068.006.096.011.026.006.05.01.077.018a1.186 1.186 0 0 1 .446.23c.175.141.318.323.43.526.114.201.202.421.268.65.067.228.112.466.143.707.018.12.026.242.037.363.006.123.017.244.018.367.009.245 0 .494-.01.74-.008.125-.014.249-.024.373-.012.124-.02.248-.036.372-.026.249-.06.497-.1.745l-.03.186-.014.093-.001.014v.002l-.001.007-.002.012-.004.024-.008.048-.014.097-.014.113-.012.114-.01.112c-.024.296-.031.604.002.93.016.162.044.329.086.5.043.17.1.345.18.52.08.176.183.351.312.516a2.443 2.443 0 0 0 1.003.762 3.011 3.011 0 0 0 .746.202l-.038.014c-.284.104-.58.169-.886.183a3.245 3.245 0 0 1-.939-.095 3.814 3.814 0 0 1-1.125-.491l-.02-.013s-.003-.002-.002 0l.01.009h-.002l-.005-.004a3.327 3.327 0 0 1-.14-.121 4.98 4.98 0 0 1-.37-.38 4.206 4.206 0 0 1-.597-.869 2.547 2.547 0 0 1-.29-.972c-.025-.336.037-.68.184-1.01.073-.164.166-.323.275-.476l.085-.113.09-.11.093-.107.103-.11a.147.147 0 0 0-.19-.223l-.124.084-.128.094-.123.099-.12.104a3.202 3.202 0 0 0-.43.482 2.657 2.657 0 0 0-.49 1.255c-.057.46.002.927.128 1.36.129.435.32.84.548 1.218.113.186.236.366.37.541a4.4 4.4 0 0 0-1.682.761 3.06 3.06 0 0 0-.667.685c-.193.277-.34.617-.393.978a2.2 2.2 0 0 0 .098 1.035 2.79 2.79 0 0 0 .437.797 4.2 4.2 0 0 0 .272.314l.076.076.038.038a.764.764 0 0 0 .036.034l.138.123c.188.162.384.313.584.453.404.28.827.515 1.254.715.392.184.787.337 1.176.482l.007.017.03.073.037.07.078.137.02.034.023.031.045.063c.031.041.062.084.094.123.268.312.607.526.951.653.346.127.701.169 1.038.153.042-.002.085-.003.127-.007l.123-.016.123-.017c.04-.006.08-.017.12-.025l.119-.028c.02-.005.039-.008.06-.015l.063-.019.124-.04.062-.02.056-.02.177-.078.022-.01c.013-.004-.02.008.03-.01l.005-.003.01-.005.039-.018.078-.036c.052-.026.105-.048.158-.07.053-.022.106-.046.16-.065a4.43 4.43 0 0 1 .663-.199 3.85 3.85 0 0 1 1.37-.068c.224.034.443.093.645.182.202.09.388.209.536.364l.055.06.05.063.025.031.021.034.044.069c.05.095.098.195.124.304.007.027.016.054.021.082l.014.084.007.042.004.043.006.087c.003.058 0 .113 0 .17-.005.062-.014.128-.02.192v.002a.146.146 0 0 0 .286.057c.018-.063.038-.122.056-.187.014-.07.032-.142.04-.213l.012-.106.005-.054.001-.054v-.108c0-.037-.005-.073-.008-.11a1.797 1.797 0 0 0-.095-.433l-.042-.104-.022-.053-.027-.05-.053-.1-.062-.095c-.04-.064-.089-.12-.136-.18-.023-.03-.05-.056-.076-.083-.026-.027-.05-.056-.078-.081a2.54 2.54 0 0 0-.351-.274 3.243 3.243 0 0 0-.793-.37 4.638 4.638 0 0 0-1.7-.184c-.284.019-.568.06-.846.122-.07.013-.139.032-.208.05-.07.017-.14.035-.207.056l-.103.032-.05.015-.014.005-.006.002c.046-.018.01-.005.018-.008l-.023.007-.187.051c-.017.006-.026.006-.037.007l-.031.004-.062.008-.031.005c-.01.002-.023.002-.035.003l-.072.005c-.023.002-.047.005-.07.005l-.07-.002h-.069l-.067-.008a1.21 1.21 0 0 1-.467-.142.719.719 0 0 1-.274-.26.478.478 0 0 1-.052-.28.847.847 0 0 1 .119-.332c.073-.124.178-.255.309-.383.27-.253.624-.49 1.018-.686l.072-.037.077-.035.153-.07c.1-.049.21-.087.314-.13l.36-.149.179-.073.022-.009.026-.012.051-.023.103-.048c.125-.059.252-.117.37-.18.795-.36 2.46-1.024 3.95-1.024 1.492 0 3.156.663 3.952 1.024.117.063.244.121.37.18l.103.048.05.023.026.012.023.009.179.073.36.149c.105.043.215.082.314.13l.153.07.076.035.073.038c.393.196.748.432 1.018.685.13.127.236.259.309.383a.848.848 0 0 1 .119.332.479.479 0 0 1-.052.28.721.721 0 0 1-.275.26c-.128.073-.29.124-.467.142l-.066.008h-.07l-.07.002c-.022 0-.046-.003-.07-.005l-.071-.005a.19.19 0 0 1-.035-.003l-.031-.005-.062-.008-.031-.004a.176.176 0 0 1-.037-.007l-.187-.051-.023-.007c.008.004-.028-.01.018.008l-.007-.002-.012-.005-.052-.015-.102-.032a3.466 3.466 0 0 0-.207-.056c-.07-.018-.138-.037-.208-.05a5.545 5.545 0 0 0-.847-.122 4.64 4.64 0 0 0-1.7.185 3.232 3.232 0 0 0-.792.369 2.51 2.51 0 0 0-.351.274c-.027.025-.053.054-.079.08-.025.028-.052.053-.075.084-.047.06-.096.116-.137.18-.02.032-.041.063-.06.095l-.055.1-.026.05-.022.053-.043.104a1.806 1.806 0 0 0-.094.434c-.003.036-.008.072-.008.109v.108l.001.054.005.054.012.106c.009.07.027.143.04.213.018.065.038.124.056.187.02.067.085.112.157.104a.147.147 0 0 0 .13-.161v-.002c-.007-.064-.016-.13-.02-.192 0-.057-.004-.112 0-.17l.006-.087.003-.043.007-.042.014-.084c.006-.028.015-.055.021-.082.027-.109.074-.209.125-.304l.043-.069.021-.034.026-.031.05-.064c.017-.02.037-.039.055-.059.148-.155.334-.274.535-.364.203-.09.421-.148.646-.181.45-.068.919-.03 1.37.067.225.05.447.115.662.2.055.018.107.042.16.064.054.022.107.044.159.07l.078.036.039.018.01.005.005.002.03.012.021.01.178.076a.386.386 0 0 0 .056.02l.061.021.125.04.063.02c.02.006.04.009.06.014l.119.028c.04.008.079.018.12.025l.122.017.124.016c.042.004.084.005.127.007.336.016.691-.026 1.037-.153.345-.127.684-.341.951-.653.033-.04.063-.082.095-.123l.045-.063.023-.031.02-.034.077-.137c.013-.024.026-.047.037-.07l.03-.073.007-.017c.39-.145.785-.298 1.176-.482.428-.2.851-.435 1.254-.715.2-.14.397-.291.585-.453l.138-.123a.754.754 0 0 0 .035-.034l.038-.038.077-.076a3.8 3.8 0 0 0 .271-.314 2.81 2.81 0 0 0 .438-.797 2.22 2.22 0 0 0 .098-1.034Zm-19.68.298c-.031.021-.062.04-.092.063l-.091.068-.18.137c-.031.022-.06.047-.09.072l-.088.076c-.059.05-.118.1-.175.153l-.17.167-.084.084-.08.093c-.054.061-.108.121-.16.186-.206.262-.393.56-.53.907a2.67 2.67 0 0 0-.152.556l-.02.15a.601.601 0 0 1-.002.02 12.12 12.12 0 0 1-.512-.333 7.549 7.549 0 0 1-.98-.789 6.224 6.224 0 0 1-.418-.444l-.097-.118-.022-.028-.017-.026-.036-.05a2.27 2.27 0 0 1-.137-.221 1.626 1.626 0 0 1-.098-.214 1.16 1.16 0 0 1-.05-.196.574.574 0 0 1 .03-.298.708.708 0 0 1 .164-.236c.08-.08.187-.159.316-.228a2.74 2.74 0 0 1 .93-.278 3.786 3.786 0 0 1 1.05.016 3.704 3.704 0 0 1 1.222.406l.11.062.093.049.067.032.064.03c.088.038.18.073.274.106l-.04.026Zm4.876-5.79a.542.542 0 1 1 0-1.085.542.542 0 0 1 0 1.085Zm4.064 0a.543.543 0 1 1 0-1.085.543.543 0 0 1 0 1.085Zm9.156 6.103c-.01.06-.026.127-.05.195a1.67 1.67 0 0 1-.097.215 2.352 2.352 0 0 1-.137.221l-.036.05-.017.026-.022.028-.097.118c-.13.154-.272.301-.419.444a7.537 7.537 0 0 1-.98.788c-.165.115-.336.226-.51.334-.002-.006-.002-.014-.003-.02l-.02-.15a2.653 2.653 0 0 0-.152-.557 3.613 3.613 0 0 0-.53-.906c-.05-.065-.105-.125-.159-.187l-.08-.092c-.028-.03-.056-.056-.084-.085l-.17-.167c-.058-.053-.117-.102-.175-.152l-.088-.076a1.32 1.32 0 0 0-.09-.072l-.18-.137L31 30.6c-.03-.022-.061-.041-.092-.062l-.04-.027a3.48 3.48 0 0 0 .274-.107l.065-.029.066-.032.094-.048.109-.063a3.721 3.721 0 0 1 1.222-.406 3.803 3.803 0 0 1 1.05-.016c.342.044.672.14.93.279.129.069.236.148.316.227a.7.7 0 0 1 .165.236.58.58 0 0 1 .029.299Z"/></svg>