<svg xmlns="http://www.w3.org/2000/svg" fill="none" aria-hidden="true" viewBox="0 0 48 48"><g id="kraken-js-Icon"><g id="Group"><path id="Vector" fill="#0081C2" d="M23.9999 6L7.18018 14.2624V24V33.7376L23.9999 42L40.8196 33.7376V24V14.2624L23.9999 6Z"/><path id="Vector_2" fill="white" d="M36.7716 30.2397C36.7187 29.879 36.5712 29.5384 36.3781 29.2622C36.1844 28.9849 35.953 28.7602 35.7107 28.5772C35.2237 28.212 34.6955 27.9873 34.1601 27.8476C34.1166 27.8361 34.073 27.8254 34.0289 27.815C34.1633 27.6397 34.2854 27.461 34.3984 27.2751C34.6266 26.8962 34.8179 26.4912 34.9469 26.0571C35.073 25.6238 35.132 25.1568 35.0757 24.6965C35.0214 24.2367 34.8467 23.7956 34.5852 23.4419C34.4564 23.2634 34.3105 23.1031 34.1542 22.9597L34.0351 22.8552C33.9942 22.8218 33.9533 22.7892 33.9117 22.7569L33.7837 22.6629L33.6592 22.579C33.6031 22.5413 33.5267 22.5458 33.4757 22.5942C33.4164 22.65 33.4142 22.7433 33.4701 22.8023L33.5732 22.9113L33.6662 23.0179L33.7559 23.1288L33.8409 23.2415C33.9501 23.3941 34.0434 23.5538 34.1163 23.7181C34.2632 24.047 34.3247 24.3916 34.2996 24.7272C34.2753 25.0635 34.1684 25.3911 34.0105 25.6996C33.8542 26.0085 33.6477 26.3002 33.4126 26.5676C33.2956 26.7012 33.1711 26.8297 33.0431 26.9478C33.0113 26.9772 32.9793 27.0058 32.9478 27.0322C32.9323 27.0453 32.9168 27.0587 32.9031 27.0691L32.8981 27.0728L32.8965 27.0736C32.8941 27.0755 32.9162 27.0547 32.905 27.0648C32.905 27.0645 32.9053 27.0643 32.9053 27.064C32.9066 27.0624 32.9039 27.0645 32.9031 27.0648L32.8836 27.0776C32.8238 27.1166 32.7519 27.161 32.6801 27.2008C32.3894 27.3622 32.0736 27.4904 31.7586 27.5684C31.4423 27.6478 31.126 27.6777 30.8201 27.6635C30.5137 27.6496 30.2177 27.5844 29.9334 27.4813C29.9206 27.4768 29.9078 27.4717 29.895 27.4666C29.9543 27.4581 30.0133 27.4485 30.0734 27.4364C30.2602 27.3988 30.4517 27.3437 30.6417 27.2644C30.8308 27.1853 31.0192 27.0811 31.1901 26.951C31.3619 26.8217 31.5161 26.6684 31.6446 26.5033C31.7731 26.3384 31.8767 26.1629 31.9555 25.9874C32.0354 25.8121 32.0931 25.6371 32.1369 25.4661C32.1784 25.2957 32.2061 25.1285 32.2224 24.966C32.255 24.6404 32.2483 24.3331 32.2246 24.0366L32.215 23.9252L32.2021 23.8103C32.1976 23.7729 32.1938 23.732 32.1888 23.6981L32.1738 23.6011L32.1663 23.5525L32.1626 23.5285L32.1607 23.5164L32.1599 23.5103L32.1594 23.5073C32.1594 23.5087 32.1575 23.4852 32.1583 23.4937L32.1431 23.4007L32.1134 23.2148C32.0742 22.9666 32.0408 22.7187 32.0135 22.4702C31.9975 22.3457 31.9903 22.2223 31.9782 22.0978C31.9678 21.9736 31.9622 21.8502 31.9534 21.7257C31.9435 21.4788 31.9355 21.2304 31.9443 20.9851C31.9457 20.8617 31.9563 20.7404 31.962 20.6178C31.9732 20.497 31.9815 20.3741 31.9991 20.2544C32.0303 20.014 32.0755 19.7762 32.1418 19.5475C32.2077 19.3189 32.2959 19.0995 32.41 18.8981C32.5222 18.6953 32.6648 18.5128 32.8404 18.3712C32.9277 18.2996 33.0242 18.2409 33.1273 18.1968C33.1786 18.1746 33.232 18.1559 33.2865 18.1415C33.3138 18.1337 33.337 18.1303 33.3632 18.1239C33.3918 18.119 33.4273 18.1172 33.4591 18.1134L33.4634 18.1132C33.5304 18.1057 33.5855 18.0525 33.5929 17.9828C33.6015 17.9021 33.543 17.8297 33.4623 17.8212C33.4289 17.8177 33.3993 17.8126 33.3627 17.8102C33.3237 17.8094 33.282 17.8073 33.2446 17.8091C33.1698 17.8118 33.0947 17.8204 33.021 17.8345C32.8738 17.8634 32.7308 17.9149 32.5981 17.9836C32.3312 18.1198 32.1014 18.3165 31.9104 18.5377C31.7191 18.7597 31.5642 19.0063 31.4343 19.2611C31.305 19.5163 31.2011 19.7802 31.1137 20.0477C31.0678 20.1812 31.0322 20.3159 30.9938 20.4511C30.9606 20.586 30.9265 20.7222 30.9 20.8582C30.842 21.1307 30.8025 21.4037 30.7656 21.6776C30.733 21.9509 30.709 22.225 30.6935 22.4983C30.6777 22.7716 30.6689 23.0446 30.6668 23.3171L30.6665 23.5215V23.6238C30.6673 23.6345 30.6654 23.6131 30.6657 23.6163V23.6196V23.6257L30.6654 23.638V23.6626L30.6652 23.7117L30.6644 23.8098C30.6641 23.841 30.6617 23.8651 30.6606 23.8931L30.6561 23.9738L30.6497 24.058C30.6323 24.2829 30.5997 24.4988 30.5468 24.6884C30.5204 24.783 30.4894 24.8707 30.4563 24.9503C30.4215 25.0277 30.3839 25.0967 30.344 25.1533C30.2634 25.2682 30.1819 25.3254 30.0964 25.3622C30.0114 25.3986 29.9056 25.4229 29.7619 25.4274C29.6198 25.4325 29.4472 25.4154 29.2637 25.3758C29.2375 25.3705 29.2113 25.3649 29.1846 25.3587C29.1846 25.3587 28.5148 25.1226 28.735 24.3561C28.8843 24.0785 29.1576 23.7927 29.6617 23.7181C29.6617 23.7181 30.737 15.3914 23.9991 10.0389C23.9948 10.0357 23.9902 10.0389 23.9902 10.0389C17.2531 15.3906 18.3284 23.7173 18.3284 23.7173C18.8659 23.7967 19.1416 24.1167 19.2832 24.4103C19.4446 25.0838 18.9028 25.3248 18.828 25.3545C18.7967 25.362 18.7657 25.3692 18.7353 25.375C18.5514 25.4146 18.3789 25.4317 18.2367 25.4266C18.0933 25.4218 17.9875 25.3978 17.9023 25.3614C17.817 25.3243 17.7353 25.2671 17.6549 25.1525C17.6153 25.0959 17.5774 25.0269 17.5427 24.9495C17.5095 24.8696 17.4785 24.7822 17.4521 24.6876C17.3995 24.498 17.3671 24.2818 17.3495 24.0572L17.3431 23.973L17.3388 23.8923C17.3375 23.8645 17.3353 23.8405 17.3348 23.809L17.3343 23.7109L17.334 23.6618L17.3337 23.6372V23.6249V23.6188V23.6155C17.334 23.6123 17.3321 23.6337 17.3329 23.623V23.5207L17.3327 23.3163C17.3305 23.0438 17.322 22.7708 17.306 22.4975C17.2905 22.2242 17.2664 21.9501 17.2338 21.6768C17.197 21.4029 17.1574 21.1299 17.0994 20.8574C17.0735 20.7214 17.0391 20.5852 17.0057 20.4503C16.9675 20.3151 16.9317 20.1804 16.886 20.0469C16.7984 19.7797 16.6947 19.5155 16.5651 19.2603C16.4356 19.0057 16.2803 18.7592 16.0891 18.5369C15.8983 18.3157 15.6683 18.119 15.4011 17.9828C15.2684 17.9141 15.1257 17.8628 14.9782 17.8337C14.9045 17.8198 14.8297 17.811 14.7546 17.8083C14.7172 17.8065 14.6753 17.8086 14.6365 17.8094C14.5999 17.8118 14.5703 17.8166 14.5369 17.8204C14.4562 17.8289 14.3977 17.9013 14.4062 17.982C14.4134 18.0517 14.4687 18.1049 14.5358 18.1124L14.5401 18.1126C14.5719 18.1164 14.6074 18.1182 14.636 18.1231C14.6622 18.1295 14.6857 18.1329 14.7127 18.1407C14.7672 18.1551 14.8201 18.1735 14.8716 18.196C14.9747 18.2401 15.0715 18.2988 15.1585 18.3704C15.3343 18.512 15.4767 18.6945 15.5889 18.8973C15.703 19.0984 15.7909 19.3181 15.8572 19.5467C15.9234 19.7754 15.9686 20.0132 15.9998 20.2536C16.0175 20.3733 16.026 20.4962 16.037 20.617C16.0426 20.7399 16.0535 20.8609 16.0543 20.9843C16.0634 21.2293 16.0554 21.478 16.0458 21.7249C16.0367 21.8494 16.0311 21.9728 16.0207 22.097C16.0086 22.2215 16.0014 22.3449 15.9854 22.4694C15.9584 22.7179 15.925 22.9658 15.8855 23.214L15.8556 23.3999L15.8409 23.4929C15.8414 23.4844 15.8395 23.5079 15.8395 23.5065L15.8393 23.5095L15.8385 23.5156L15.8366 23.5276L15.8326 23.5517L15.8251 23.6003L15.8104 23.6973C15.8056 23.7312 15.8013 23.7724 15.7971 23.8095L15.7845 23.9244L15.7749 24.0358C15.7511 24.3321 15.7439 24.6396 15.7768 24.9652C15.7933 25.1277 15.8208 25.2949 15.8625 25.4653C15.9063 25.6366 15.9638 25.8113 16.0434 25.9866C16.1225 26.1618 16.2261 26.3373 16.3549 26.5024C16.4831 26.6676 16.6375 26.8206 16.809 26.9502C16.9803 27.0803 17.1684 27.1845 17.3578 27.2636C17.5475 27.3429 17.739 27.398 17.9258 27.4356C17.9859 27.4477 18.0455 27.4573 18.1042 27.4658C18.0914 27.4709 18.0786 27.476 18.0658 27.4805C17.7815 27.5836 17.4855 27.6488 17.1793 27.6627C16.8734 27.6769 16.5569 27.6467 16.2411 27.5676C15.9256 27.4896 15.6103 27.3614 15.3191 27.2C15.2475 27.1602 15.1756 27.1161 15.1158 27.0768L15.0963 27.064C15.0955 27.0637 15.0928 27.0616 15.0939 27.0632C15.0939 27.0635 15.0944 27.0637 15.0944 27.064C15.0832 27.0539 15.1054 27.0747 15.103 27.0728L15.1016 27.0723L15.0968 27.0686C15.0835 27.0581 15.0677 27.0448 15.0522 27.0317C15.021 27.005 14.9886 26.9767 14.9568 26.9473C14.8289 26.8294 14.7044 26.7007 14.5874 26.5671C14.3523 26.2997 14.1458 26.0079 13.9895 25.6991C13.8316 25.3908 13.7244 25.063 13.7001 24.7267C13.675 24.3911 13.7365 24.0465 13.8834 23.7176C13.9566 23.5533 14.0498 23.3935 14.1591 23.241L14.2441 23.1282L14.3338 23.0174L14.4268 22.9108L14.5299 22.8018C14.5858 22.7427 14.5834 22.6495 14.5243 22.5937C14.4733 22.5453 14.3966 22.5408 14.3405 22.5784L14.216 22.6623L14.088 22.7564C14.0464 22.7887 14.0058 22.8216 13.9649 22.8547L13.8457 22.9591C13.6895 23.1026 13.5436 23.2629 13.4145 23.4414C13.153 23.7953 12.9785 24.2364 12.924 24.6959C12.8677 25.1562 12.9267 25.6232 13.0531 26.0566C13.1819 26.4907 13.3731 26.8957 13.6013 27.2745C13.7143 27.4605 13.8367 27.6395 13.971 27.815C13.927 27.8251 13.8831 27.8353 13.8393 27.8468C13.3042 27.9865 12.776 28.2112 12.289 28.5764C12.047 28.7597 11.8153 28.9841 11.6217 29.2614C11.4288 29.5376 11.2813 29.8785 11.2284 30.2389C11.1723 30.5998 11.2223 30.9637 11.3267 31.2736C11.3807 31.428 11.4467 31.5718 11.5204 31.7048C11.596 31.8354 11.6762 31.9605 11.764 32.0708C11.8503 32.1844 11.9425 32.2864 12.0357 32.385L12.1119 32.4609L12.1501 32.4988C12.1629 32.5116 12.176 32.5244 12.1856 32.5327L12.3235 32.6556C12.5116 32.8178 12.7079 32.9685 12.9083 33.1095C13.3114 33.3892 13.7349 33.6243 14.1623 33.8239C14.5537 34.0077 14.9488 34.1605 15.3381 34.3061C15.3402 34.3117 15.3424 34.3171 15.3445 34.3227L15.3755 34.3956C15.3867 34.4194 15.3998 34.4421 15.4123 34.4656C15.4375 34.5118 15.4634 34.5575 15.4901 34.6029L15.5101 34.6366L15.5326 34.6681L15.5783 34.7312C15.6092 34.7723 15.64 34.8145 15.6723 34.8541C15.94 35.1658 16.2785 35.3804 16.6231 35.507C16.9691 35.6344 17.3241 35.6758 17.661 35.6598C17.703 35.6577 17.7454 35.6566 17.7874 35.6531L17.9108 35.6371L18.0337 35.62C18.0743 35.6139 18.1138 35.6034 18.1537 35.5946L18.2725 35.5674C18.2926 35.562 18.3115 35.5588 18.3324 35.5524L18.3954 35.5332L18.5202 35.4934L18.5822 35.4728C18.6027 35.4658 18.6249 35.4584 18.6375 35.4522L18.8151 35.3755L18.8373 35.3659C18.8499 35.3609 18.8167 35.3731 18.867 35.3542L18.8718 35.352L18.8817 35.3475L18.9207 35.3293L18.9987 35.2927C19.0505 35.2668 19.1037 35.2449 19.1566 35.2227C19.2097 35.2006 19.2626 35.1768 19.3171 35.1581C19.5327 35.0745 19.7547 35.0082 19.9802 34.9593C20.4306 34.8618 20.8995 34.8247 21.3497 34.8915C21.5741 34.9249 21.7931 34.9839 21.9951 35.0731C22.1968 35.1629 22.3828 35.282 22.5305 35.4373C22.5487 35.457 22.5682 35.476 22.5861 35.4963L22.6355 35.5596L22.6606 35.5914L22.6822 35.6253L22.7258 35.6937C22.776 35.7891 22.8236 35.889 22.85 35.9978C22.8567 36.025 22.866 36.0517 22.8711 36.0795L22.885 36.1637L22.8922 36.2059C22.8938 36.22 22.8941 36.2347 22.8954 36.2489L22.9018 36.3357C22.9053 36.3937 22.9013 36.4485 22.9021 36.5062C22.8968 36.5684 22.8879 36.6341 22.8813 36.698V36.6996C22.8725 36.7805 22.931 36.8527 23.0116 36.8612C23.0832 36.8687 23.1482 36.8235 23.1679 36.7568C23.1864 36.6945 23.2061 36.6347 23.2238 36.57C23.2377 36.5 23.2556 36.4276 23.2644 36.3568L23.2761 36.2508C23.278 36.2331 23.2801 36.2152 23.2812 36.1973L23.282 36.1434L23.2825 36.0349C23.2823 35.9983 23.2769 35.9622 23.2743 35.9259C23.2638 35.7792 23.2264 35.6342 23.1794 35.4918L23.1367 35.3876L23.1145 35.3352L23.0883 35.2852L23.0346 35.1851C23.0154 35.1527 22.994 35.1223 22.9732 35.0905C22.9334 35.0256 22.8842 34.9692 22.8372 34.9099C22.8142 34.8792 22.787 34.8543 22.7613 34.8265C22.7351 34.7996 22.71 34.7712 22.6828 34.7456C22.5724 34.6451 22.456 34.5503 22.3315 34.4718C22.0838 34.3104 21.8148 34.1902 21.5391 34.1028C20.9863 33.93 20.4077 33.8792 19.8391 33.9179C19.5546 33.9369 19.2712 33.9772 18.9928 34.0398C18.9225 34.0534 18.8539 34.0721 18.7847 34.0897C18.7152 34.1068 18.6458 34.1247 18.5779 34.1464L18.4753 34.1776L18.424 34.1934L18.4112 34.1977L18.4048 34.1995C18.451 34.1822 18.4144 34.1955 18.4232 34.1923L18.4 34.1985L18.2132 34.25C18.1959 34.2556 18.1865 34.2556 18.1761 34.2567L18.1446 34.2607L18.0826 34.2695L18.0519 34.2743C18.0414 34.2759 18.0284 34.2762 18.0166 34.2773L17.9453 34.2823C17.9218 34.2837 17.898 34.2874 17.8745 34.2871L17.805 34.2855L17.7361 34.285C17.7136 34.2831 17.6915 34.2794 17.6693 34.2773C17.4922 34.2591 17.3308 34.2075 17.2023 34.1349C17.0735 34.0625 16.9806 33.9679 16.9279 33.8755C16.8782 33.7801 16.8668 33.6914 16.8758 33.5952C16.8865 33.4993 16.9218 33.3874 16.9947 33.2629C17.0677 33.1389 17.1729 33.0075 17.3036 32.8798C17.5737 32.6268 17.9282 32.3909 18.3214 32.1945L18.3938 32.1566L18.4705 32.1216L18.6236 32.0521C18.723 32.0032 18.833 31.9653 18.9375 31.9215L19.2979 31.7735L19.4769 31.7L19.4991 31.6912L19.5244 31.6792L19.576 31.6556L19.5763 31.6554L19.6789 31.6076C19.8042 31.5491 19.931 31.4905 20.0489 31.428C20.8439 31.0674 22.5083 30.4043 23.9996 30.4043C25.4909 30.4043 27.1553 31.0674 27.9506 31.428C28.0679 31.4905 28.195 31.5491 28.3203 31.6076L28.4235 31.6556L28.4747 31.6792L28.5004 31.6909L28.5226 31.7L28.7016 31.7735L29.062 31.9215C29.1667 31.9653 29.2768 32.0038 29.3761 32.0521L29.5289 32.1216L29.6054 32.1566L29.6778 32.1945C30.071 32.3909 30.4255 32.6268 30.6959 32.8798C30.8265 33.0075 30.9318 33.1389 31.0047 33.2629C31.0777 33.3874 31.1127 33.4993 31.1233 33.5952C31.1327 33.6911 31.1209 33.7798 31.0715 33.8755C31.0189 33.9679 30.9259 34.0622 30.7971 34.1349C30.6689 34.2075 30.5073 34.2591 30.3302 34.2773C30.308 34.2797 30.2858 34.2831 30.2634 34.285L30.1944 34.2855L30.1247 34.2871C30.1017 34.2874 30.0777 34.2837 30.0542 34.2823L29.9826 34.2773C29.9708 34.2762 29.9577 34.2759 29.9476 34.2743L29.9169 34.2695L29.8551 34.2607L29.8236 34.2567C29.8132 34.2556 29.8041 34.2554 29.7865 34.25L29.5997 34.1985L29.5765 34.1923C29.5853 34.1958 29.5485 34.1822 29.5947 34.1995L29.5883 34.1977L29.5754 34.1934L29.5241 34.1776L29.4216 34.1464C29.3534 34.1247 29.2842 34.1071 29.215 34.0897C29.1456 34.0724 29.0769 34.0534 29.0067 34.0398C28.7283 33.9772 28.4448 33.9369 28.1603 33.9179C27.5915 33.8792 27.0129 33.9302 26.4604 34.1028C26.1847 34.1902 25.9156 34.3101 25.668 34.4718C25.5432 34.5503 25.4267 34.6451 25.3167 34.7456C25.2894 34.7712 25.2643 34.7996 25.2381 34.8265C25.2128 34.8543 25.1855 34.8792 25.1625 34.9099C25.1155 34.9692 25.0664 35.0256 25.0263 35.0905C25.0054 35.1223 24.9843 35.1527 24.9651 35.1851L24.9114 35.2852L24.8852 35.3352L24.8633 35.3876L24.8203 35.4918C24.7733 35.6342 24.7361 35.7792 24.7257 35.9259C24.7228 35.9622 24.7177 35.9983 24.7177 36.0349L24.7182 36.1434L24.719 36.1973C24.7198 36.2152 24.7223 36.2331 24.7241 36.2508L24.7359 36.3568C24.7447 36.4276 24.7631 36.5 24.7765 36.57C24.7941 36.6347 24.8142 36.6945 24.8323 36.7568C24.8524 36.8235 24.917 36.8687 24.9889 36.8612C25.0696 36.8527 25.1281 36.78 25.1192 36.6996L25.119 36.698C25.1123 36.6344 25.1032 36.5687 25.0984 36.5062C25.0989 36.4485 25.0949 36.3937 25.0987 36.3357L25.1048 36.2489C25.1062 36.2347 25.1064 36.22 25.108 36.2059L25.1152 36.1637L25.1289 36.0795C25.1345 36.0517 25.1436 36.025 25.15 35.9978C25.1764 35.8893 25.224 35.7891 25.2745 35.6937L25.3183 35.6253L25.3394 35.5914L25.3648 35.5596L25.4145 35.4963C25.4321 35.4763 25.4516 35.4573 25.4698 35.4373C25.6178 35.282 25.8037 35.1629 26.0051 35.0731C26.2074 34.9839 26.4262 34.9249 26.6509 34.8915C27.101 34.8244 27.5699 34.8618 28.0203 34.9593C28.2458 35.0085 28.4678 35.0745 28.6829 35.1581C28.7374 35.1768 28.7903 35.2006 28.8437 35.2227C28.8971 35.2449 28.9498 35.2668 29.0016 35.2927L29.0799 35.3293L29.1189 35.3475L29.1285 35.352L29.1336 35.3542C29.1838 35.3731 29.1507 35.3609 29.1632 35.3657L29.1854 35.3755L29.363 35.4522C29.3753 35.4584 29.3975 35.4658 29.4183 35.4728L29.4801 35.4931L29.6048 35.5332L29.6676 35.5524C29.6884 35.5585 29.7074 35.562 29.7274 35.5674L29.8466 35.5946C29.8861 35.6032 29.9257 35.6133 29.9663 35.62L30.0892 35.6371L30.2129 35.6531C30.2545 35.6569 30.297 35.6579 30.3395 35.6598C30.6761 35.6758 31.0312 35.6342 31.3771 35.507C31.722 35.3801 32.0605 35.1658 32.3282 34.8541C32.3606 34.8145 32.3913 34.7723 32.4225 34.7312L32.4682 34.6681L32.4909 34.6366L32.5107 34.6029C32.5371 34.5575 32.5631 34.5118 32.5882 34.4656C32.6007 34.4421 32.6141 34.4194 32.625 34.3956L32.6558 34.3227C32.6582 34.3171 32.66 34.3117 32.6622 34.3061C33.0517 34.1605 33.4468 34.0077 33.8382 33.8239C34.2654 33.6241 34.6888 33.3892 35.092 33.1095C35.2921 32.9685 35.4884 32.8178 35.6765 32.6556L35.8144 32.5327C35.824 32.5244 35.8373 32.5116 35.8502 32.4988L35.8884 32.4609L35.9645 32.385C36.058 32.2864 36.1496 32.1844 36.2362 32.0708C36.3241 31.9605 36.4045 31.8354 36.4799 31.7048C36.5536 31.5718 36.6196 31.428 36.6738 31.2736C36.7775 30.9645 36.8274 30.6006 36.7716 30.2397ZM17.0914 30.5379C17.0607 30.559 17.03 30.5782 16.9995 30.6006L16.9087 30.669L16.7281 30.8061C16.6979 30.8283 16.6683 30.8528 16.6389 30.8785L16.5504 30.9538C16.4919 31.0046 16.4332 31.0535 16.3755 31.1066L16.2058 31.2736C16.1778 31.3019 16.1497 31.3292 16.1222 31.358L16.041 31.4505C15.9875 31.5125 15.9336 31.5723 15.8817 31.6372C15.6763 31.899 15.4885 32.1972 15.352 32.5437C15.2836 32.7165 15.2309 32.9041 15.1994 33.1004L15.1805 33.25C15.1799 33.2567 15.1791 33.2639 15.1783 33.2703C15.0033 33.1619 14.8321 33.0515 14.6662 32.9367C14.3111 32.6952 13.9831 32.4325 13.6865 32.1483C13.5393 32.0056 13.3985 31.8582 13.2679 31.704L13.1706 31.5859C13.1602 31.5742 13.1549 31.5659 13.149 31.5579L13.1314 31.5325L13.0956 31.4825C13.0453 31.4083 12.9972 31.3345 12.959 31.2608C12.9176 31.1879 12.8885 31.1157 12.8613 31.0465C12.8372 30.9776 12.8207 30.9119 12.8108 30.8512C12.7958 30.7294 12.8062 30.6335 12.8402 30.5526C12.8736 30.4719 12.9246 30.3965 13.005 30.3169C13.0851 30.2378 13.192 30.1582 13.3213 30.0893C13.5791 29.9501 13.9093 29.8547 14.2515 29.8107C14.5951 29.7655 14.9542 29.7743 15.3015 29.8267C15.6496 29.878 15.987 29.9779 16.2964 30.1192C16.3741 30.154 16.4495 30.1922 16.5232 30.2328L16.6322 30.2953L16.7257 30.3436L16.7925 30.3757L16.8571 30.4051C16.9448 30.4438 17.0361 30.4794 17.1304 30.5117L17.0914 30.5379ZM21.9681 24.7483C21.6684 24.7483 21.4255 24.5054 21.4255 24.2057C21.4255 23.9062 21.6684 23.6631 21.9681 23.6631C22.2679 23.6631 22.5107 23.9062 22.5107 24.2057C22.5107 24.5054 22.2679 24.7483 21.9681 24.7483ZM26.0316 24.7483C25.7318 24.7483 25.489 24.5054 25.489 24.2057C25.489 23.9062 25.7318 23.6631 26.0316 23.6631C26.3313 23.6631 26.5742 23.9062 26.5742 24.2057C26.5745 24.5054 26.3316 24.7483 26.0316 24.7483ZM35.1884 30.851C35.1785 30.9119 35.162 30.9776 35.1382 31.0463C35.1109 31.1155 35.0816 31.1873 35.0404 31.2605C35.0019 31.3343 34.9539 31.408 34.9039 31.4823L34.8681 31.5322L34.8505 31.5576C34.8448 31.5656 34.8392 31.5742 34.8291 31.5857L34.7318 31.7037C34.6012 31.8579 34.4601 32.0054 34.3132 32.148C34.0169 32.4323 33.6886 32.6949 33.3338 32.9364C33.1679 33.0513 32.9967 33.1616 32.8219 33.2703C32.8211 33.2637 32.8203 33.2565 32.8195 33.2498L32.8006 33.1002C32.7693 32.9038 32.7164 32.7163 32.648 32.5434C32.5115 32.1969 32.324 31.899 32.1185 31.6369C32.0669 31.572 32.0127 31.5122 31.9593 31.4502L31.8783 31.3578C31.8505 31.3289 31.8225 31.3017 31.7947 31.2733L31.6245 31.1064C31.5671 31.0532 31.5081 31.0043 31.4498 30.9536L31.3614 30.8782C31.3323 30.8526 31.3023 30.828 31.2722 30.8058L31.0916 30.6688L31.0007 30.6004C30.9705 30.5779 30.9395 30.5587 30.9088 30.5376L30.8695 30.5111C30.9641 30.4788 31.0552 30.443 31.1428 30.4045L31.2075 30.3752L31.2743 30.3431L31.3678 30.2947L31.4768 30.2322C31.5505 30.1919 31.6261 30.1534 31.7036 30.1187C32.013 29.9776 32.3507 29.8777 32.6985 29.8262C33.0461 29.7741 33.4051 29.765 33.7484 29.8101C34.0907 29.8542 34.4211 29.9493 34.6787 30.0888C34.8077 30.1577 34.9151 30.2373 34.9947 30.3164C35.0754 30.396 35.1264 30.4713 35.1596 30.552C35.193 30.633 35.2036 30.7291 35.1884 30.851Z"/></g></g></svg>