<svg xmlns="http://www.w3.org/2000/svg" fill="none" aria-hidden="true" viewBox="0 0 48 48"><path fill="#0081C2" d="M24 6 7.18 14.262v19.476L24 42l16.82-8.262V14.262L24 6Z"/><path fill="#fff" d="M36.772 30.24a2.32 2.32 0 0 0-.394-.978 3.047 3.047 0 0 0-.667-.685 4.397 4.397 0 0 0-1.682-.762c.134-.175.256-.354.37-.54a5.28 5.28 0 0 0 .548-1.218c.126-.433.185-.9.129-1.36a2.679 2.679 0 0 0-.49-1.255 3.184 3.184 0 0 0-.432-.482l-.119-.105a6.4 6.4 0 0 0-.123-.098l-.128-.094-.125-.084a.147.147 0 0 0-.189.223l.103.11.093.106.09.11.085.113c.11.153.202.313.275.477.147.329.209.674.184 1.01a2.548 2.548 0 0 1-.29.972c-.156.309-.362.6-.597.868a5.016 5.016 0 0 1-.465.464c-.016.013-.031.027-.045.037l-.005.004h-.002l.009-.008v-.001c.002-.002-.001 0-.002 0l-.02.014a3.81 3.81 0 0 1-1.125.49c-.316.08-.632.11-.938.095a2.992 2.992 0 0 1-.887-.182l-.038-.014a3.02 3.02 0 0 0 .747-.202 2.438 2.438 0 0 0 1.003-.761 2.53 2.53 0 0 0 .31-.517 3.112 3.112 0 0 0 .267-1.021c.033-.326.026-.633.003-.93l-.01-.11-.013-.116c-.004-.037-.008-.078-.013-.112l-.015-.097-.008-.049-.003-.023-.002-.013-.001-.006v-.003a.233.233 0 0 1-.002-.013l-.015-.093-.03-.186a15.9 15.9 0 0 1-.1-.745c-.015-.124-.023-.248-.035-.372-.01-.124-.016-.248-.025-.372a9.793 9.793 0 0 1-.009-.74c.002-.124.012-.246.018-.368.011-.121.02-.244.037-.364.031-.24.076-.478.143-.707.066-.228.154-.448.268-.649.112-.203.255-.385.43-.527a1.191 1.191 0 0 1 .446-.23c.028-.007.051-.01.077-.017.029-.005.064-.007.096-.01h.004a.147.147 0 0 0 0-.293c-.034-.003-.064-.008-.1-.01-.04-.002-.081-.004-.118-.002a1.476 1.476 0 0 0-.647.175 2.306 2.306 0 0 0-.688.554 3.62 3.62 0 0 0-.476.723c-.129.255-.233.52-.32.787-.046.133-.082.268-.12.403-.033.135-.067.271-.094.407a10.923 10.923 0 0 0-.206 1.64c-.016.274-.025.547-.027.82v.306c0 .01-.002-.01-.001-.008v.096l-.002.098c0 .031-.002.055-.003.083l-.005.08-.006.085c-.018.225-.05.44-.103.63a2.278 2.278 0 0 1-.09.262 1.234 1.234 0 0 1-.113.203.562.562 0 0 1-.248.21.907.907 0 0 1-.334.064 2.078 2.078 0 0 1-.577-.068s-.67-.236-.45-1.003a1.2 1.2 0 0 1 .927-.638s1.075-8.327-5.663-13.68c-.004-.002-.009 0-.009 0-6.737 5.353-5.662 13.68-5.662 13.68.538.079.814.399.955.692a.77.77 0 0 1-.455.945 2.05 2.05 0 0 1-.093.02c-.184.04-.356.057-.498.052a.914.914 0 0 1-.335-.066.566.566 0 0 1-.247-.209 1.25 1.25 0 0 1-.112-.203 2.279 2.279 0 0 1-.09-.261 3.389 3.389 0 0 1-.104-.63l-.006-.085-.004-.08c-.002-.029-.004-.053-.004-.084v-.098l-.001-.05v-.044l-.001.007v-.307a16.075 16.075 0 0 0-.027-.819 10.872 10.872 0 0 0-.207-1.64c-.026-.136-.06-.272-.093-.407-.038-.135-.074-.27-.12-.403a5.548 5.548 0 0 0-.32-.787 3.62 3.62 0 0 0-.477-.723 2.3 2.3 0 0 0-.688-.554 1.498 1.498 0 0 0-.646-.175c-.038-.002-.08 0-.118.001-.037.003-.067.008-.1.011a.147.147 0 0 0-.001.292h.004c.032.004.067.006.096.011.026.006.05.01.077.018a1.185 1.185 0 0 1 .446.23c.175.141.318.323.43.526.114.201.202.421.268.65.066.228.112.466.143.707.017.12.026.242.037.363.006.123.017.244.017.367.01.245.001.494-.008.74-.01.125-.015.249-.025.373-.012.124-.02.248-.036.372-.027.249-.06.497-.1.745l-.03.186-.014.093c0-.009-.002.015-.002.014v.007l-.002.012-.004.024-.008.048-.015.097-.013.113-.013.114-.01.112c-.023.296-.03.604.003.93.016.162.044.329.086.5.043.17.1.345.18.52.08.176.183.351.312.516a2.442 2.442 0 0 0 1.003.762 3.011 3.011 0 0 0 .746.202l-.038.014c-.284.104-.58.169-.887.183a3.245 3.245 0 0 1-.938-.095 3.814 3.814 0 0 1-1.125-.491l-.02-.013s-.003-.002-.002 0l.009.009h-.001l-.005-.004a1.856 1.856 0 0 1-.14-.122 4.997 4.997 0 0 1-.37-.38 4.206 4.206 0 0 1-.598-.868 2.547 2.547 0 0 1-.289-.972c-.025-.336.037-.68.183-1.01.074-.164.167-.323.276-.476l.085-.113.09-.11.093-.107.103-.11a.147.147 0 0 0-.19-.223l-.124.084-.128.094-.123.099-.12.104a3.213 3.213 0 0 0-.43.482 2.658 2.658 0 0 0-.491 1.255c-.056.46.003.927.13 1.36.128.435.32.84.547 1.218.113.186.236.366.37.541a4.398 4.398 0 0 0-1.682.761 3.057 3.057 0 0 0-.667.685 2.34 2.34 0 0 0-.394.978c-.056.36-.006.725.099 1.035a2.79 2.79 0 0 0 .437.797c.086.113.179.215.272.314l.076.076.038.038a.764.764 0 0 0 .036.034l.137.123c.189.162.385.313.585.453.403.28.827.515 1.254.715.392.184.787.337 1.176.482l.007.017.03.073.037.07c.025.046.051.091.078.137l.02.034.023.031.045.063c.031.041.062.084.094.123.268.312.607.526.951.653.346.127.701.169 1.038.153.042-.002.084-.003.126-.007l.124-.016.123-.017c.04-.006.08-.017.12-.025l.119-.028c.02-.005.038-.008.06-.015l.062-.019.125-.04.062-.02.055-.02.178-.078.022-.01c.013-.004-.02.008.03-.01l.005-.003.01-.005.039-.018.078-.036c.052-.026.105-.048.158-.07.053-.022.106-.046.16-.065a4.43 4.43 0 0 1 .663-.199 3.85 3.85 0 0 1 1.37-.068c.224.034.443.093.645.182.202.09.388.209.535.364.019.02.038.039.056.06l.05.063.025.031.021.034.044.069c.05.095.098.195.124.304.007.027.016.054.021.082l.014.084.007.042c.002.014.002.029.003.043l.007.087c.003.058 0 .113 0 .17-.005.062-.014.128-.02.192v.002a.146.146 0 0 0 .286.057c.018-.063.038-.122.056-.187.014-.07.032-.142.04-.213l.012-.106.005-.054.001-.054v-.108c0-.037-.005-.073-.008-.11a1.806 1.806 0 0 0-.095-.433l-.042-.104-.023-.053-.026-.05-.053-.1-.062-.095c-.04-.064-.089-.12-.136-.18-.023-.03-.05-.056-.076-.083-.026-.027-.051-.056-.078-.081a2.5 2.5 0 0 0-.352-.274 3.243 3.243 0 0 0-.792-.37 4.638 4.638 0 0 0-1.7-.184c-.284.019-.568.06-.846.122-.07.013-.14.032-.208.05-.07.017-.14.035-.207.056l-.103.032-.051.015-.013.005-.006.002c.046-.018.01-.005.018-.008l-.023.007-.187.051c-.017.006-.027.006-.037.007l-.031.004-.062.008-.031.005c-.01.002-.024.002-.035.003l-.072.005c-.023.002-.047.005-.07.005l-.07-.002h-.069l-.067-.008a1.21 1.21 0 0 1-.467-.142.72.72 0 0 1-.274-.26.479.479 0 0 1-.052-.28.85.85 0 0 1 .119-.332c.073-.124.178-.255.309-.383.27-.253.624-.49 1.017-.686l.073-.037.077-.035.153-.07c.099-.049.209-.087.314-.13l.36-.149.179-.073.022-.009.025-.012.052-.023.103-.048c.125-.059.252-.117.37-.18.795-.36 2.46-1.024 3.95-1.024 1.492 0 3.156.663 3.952 1.024.117.063.244.121.37.18l.102.048.052.023.025.012.023.009.179.073.36.149c.105.043.215.082.314.13l.153.07.076.035.073.038a4.36 4.36 0 0 1 1.018.685c.13.127.236.259.309.383a.845.845 0 0 1 .118.332.479.479 0 0 1-.052.28.72.72 0 0 1-.274.26c-.128.073-.29.124-.467.142l-.067.008h-.069l-.07.002c-.022 0-.046-.003-.07-.005l-.071-.005a.19.19 0 0 1-.035-.003l-.031-.005-.062-.008-.031-.004c-.01-.001-.02-.002-.038-.007l-.186-.051-.024-.007c.01.004-.027-.01.019.008l-.007-.002-.013-.005-.05-.015-.103-.032a3.47 3.47 0 0 0-.207-.056c-.07-.018-.138-.037-.208-.05a5.545 5.545 0 0 0-.847-.122 4.64 4.64 0 0 0-1.7.185 3.23 3.23 0 0 0-.792.369 2.505 2.505 0 0 0-.351.274c-.028.025-.053.054-.079.08-.025.028-.052.053-.075.084-.047.06-.097.116-.137.18-.02.032-.042.063-.06.095l-.055.1-.026.05-.022.053-.043.104a1.8 1.8 0 0 0-.094.434c-.003.036-.008.072-.008.109v.108l.001.054c0 .018.003.036.005.054l.012.106c.009.07.027.143.04.213.018.065.038.124.056.187.02.067.085.112.157.104a.147.147 0 0 0 .13-.161v-.002c-.007-.064-.016-.13-.02-.192 0-.057-.004-.112 0-.17l.006-.087c.001-.014.001-.029.003-.043l.007-.042.014-.084c.005-.028.015-.055.021-.082.026-.109.074-.209.125-.304l.043-.069.021-.034.026-.031.05-.064c.017-.02.037-.039.055-.059.148-.155.334-.274.535-.364a2.52 2.52 0 0 1 .646-.181c.45-.068.919-.03 1.37.067.225.05.447.115.662.2.054.018.107.042.16.064.054.022.107.044.159.07l.078.036.039.018.01.005.005.002.03.012.021.01.178.076a.414.414 0 0 0 .055.02l.062.021.125.04.063.02c.02.006.04.009.06.014l.119.028c.04.008.079.018.12.025l.122.017.124.016c.041.004.084.005.127.007.336.016.691-.026 1.037-.153.345-.127.683-.341.951-.653.033-.04.063-.082.094-.123l.046-.063.023-.031.02-.034.077-.137c.013-.024.026-.047.037-.07l.03-.073.007-.017c.39-.145.785-.298 1.176-.482.427-.2.85-.435 1.254-.715.2-.14.396-.291.584-.453l.138-.123a.806.806 0 0 0 .036-.034l.038-.038.077-.076a3.8 3.8 0 0 0 .271-.314 2.81 2.81 0 0 0 .438-.797c.104-.31.153-.673.098-1.034Zm-19.68.298c-.031.021-.062.04-.092.063l-.091.068-.18.137c-.031.022-.06.047-.09.072l-.089.076c-.058.05-.117.1-.175.153l-.17.167-.083.084-.081.093c-.053.061-.107.121-.16.186-.205.262-.393.56-.529.907-.068.173-.121.36-.153.556l-.018.15a.601.601 0 0 1-.003.02 12.056 12.056 0 0 1-.512-.333 7.549 7.549 0 0 1-.98-.789 6.224 6.224 0 0 1-.418-.444l-.097-.118-.022-.028-.018-.026-.035-.05a2.253 2.253 0 0 1-.137-.221 1.625 1.625 0 0 1-.098-.214 1.16 1.16 0 0 1-.05-.196.574.574 0 0 1 .03-.298.708.708 0 0 1 .164-.236c.08-.08.187-.159.316-.228a2.74 2.74 0 0 1 .93-.278 3.787 3.787 0 0 1 1.05.016 3.704 3.704 0 0 1 1.222.406l.11.062.093.049.067.032.064.03c.088.038.18.073.273.106l-.039.026Zm4.876-5.79a.543.543 0 1 1 0-1.085.543.543 0 0 1 0 1.085Zm4.064 0a.542.542 0 1 1 0-1.085.542.542 0 0 1 0 1.085Zm9.156 6.103a1.177 1.177 0 0 1-.148.41 2.373 2.373 0 0 1-.136.221l-.036.05-.018.026c-.005.008-.01.016-.02.028l-.098.118c-.13.154-.272.301-.419.444a7.537 7.537 0 0 1-.98.788c-.165.115-.336.226-.511.334l-.003-.02-.018-.15a2.653 2.653 0 0 0-.153-.557 3.613 3.613 0 0 0-.53-.906c-.051-.065-.105-.125-.159-.187l-.08-.092-.084-.085-.17-.167c-.058-.053-.117-.102-.175-.152l-.089-.076a1.476 1.476 0 0 0-.089-.072l-.18-.137L31 30.6c-.03-.022-.062-.041-.092-.062l-.04-.027c.095-.032.186-.068.274-.107l.064-.029.067-.032.094-.048.109-.063a3.721 3.721 0 0 1 1.222-.406 3.802 3.802 0 0 1 1.05-.016c.342.044.672.14.93.279.129.069.236.148.316.227.08.08.131.155.165.236a.58.58 0 0 1 .028.299Z"/></svg>