<svg xmlns="http://www.w3.org/2000/svg" fill="none" aria-hidden="true" viewBox="0 0 48 48"><path fill="#326CE5" d="M23.89 8.478a2.132 2.132 0 0 0-.816.206L11.949 14a2.125 2.125 0 0 0-1.151 1.431l-2.745 11.94a2.093 2.093 0 0 0 .41 1.786l7.7 9.574a2.126 2.126 0 0 0 1.664.794l12.348-.003a2.14 2.14 0 0 0 1.663-.793l7.697-9.575a2.103 2.103 0 0 0 .412-1.786l-2.75-11.94a2.102 2.102 0 0 0-1.15-1.431L24.92 8.684a2.142 2.142 0 0 0-1.032-.206Z"/><path fill="#fff" d="M24 12.541c-.368 0-.666.332-.666.74l.001.019c0 .055-.003.122-.001.17.008.236.06.416.09.634.057.464.104.85.075 1.208-.028.135-.128.258-.217.344l-.015.282a8.566 8.566 0 0 0-5.555 2.67c-.073-.05-.202-.142-.24-.17-.12.015-.24.052-.396-.039-.298-.2-.57-.477-.898-.811-.15-.16-.259-.312-.438-.465-.04-.035-.102-.082-.148-.118a.791.791 0 0 0-.464-.175.642.642 0 0 0-.53.234c-.23.288-.156.727.163.982l.01.007c.044.036.098.081.138.111.19.14.363.212.552.323.399.246.729.45.99.696.103.109.12.301.134.384l.214.19a8.616 8.616 0 0 0-1.359 6.008l-.279.08c-.073.096-.177.245-.286.29-.342.108-.728.147-1.194.196-.218.018-.407.007-.638.051-.051.01-.122.028-.178.041l-.006.002-.01.003c-.392.095-.645.455-.563.81.08.356.464.573.86.487l.009-.001.013-.004c.055-.012.124-.026.172-.039.228-.06.393-.15.598-.229.44-.158.805-.29 1.16-.341.149-.012.305.091.383.135l.29-.05a8.666 8.666 0 0 0 3.84 4.795l-.12.29c.043.113.091.265.059.377-.13.335-.35.688-.603 1.083-.122.182-.247.324-.357.532-.026.05-.06.127-.085.18-.171.365-.046.787.283.945.33.16.741-.008.919-.375l.001-.002v-.001c.026-.052.062-.12.083-.17.094-.215.126-.4.192-.61.176-.442.273-.907.515-1.196.067-.08.175-.11.287-.14l.151-.273a8.604 8.604 0 0 0 6.145.016c.043.075.121.22.143.256.114.037.238.056.34.206.181.31.305.677.456 1.12.067.209.1.394.194.61.021.05.057.119.082.171.178.368.59.537.92.377.33-.158.455-.58.284-.946-.025-.053-.06-.13-.087-.18-.11-.208-.235-.348-.357-.53-.252-.394-.461-.722-.59-1.057-.054-.173.009-.28.05-.393-.024-.029-.078-.192-.11-.269a8.665 8.665 0 0 0 3.839-4.829c.086.014.236.04.284.05.1-.066.192-.152.373-.138.355.052.72.184 1.16.341.206.079.37.17.599.231.048.013.117.025.172.037l.012.004.01.002c.395.085.779-.131.86-.487.08-.355-.171-.716-.564-.81-.057-.014-.138-.036-.193-.046-.232-.044-.42-.033-.639-.052-.466-.048-.851-.088-1.194-.196-.14-.054-.239-.22-.287-.289l-.269-.078a8.599 8.599 0 0 0-.14-3.109 8.617 8.617 0 0 0-1.247-2.884l.236-.212c.01-.12.001-.245.125-.377.262-.246.592-.45.99-.696.19-.11.364-.183.554-.323.043-.031.101-.081.146-.118.32-.255.393-.694.164-.981-.23-.288-.674-.315-.993-.06-.046.036-.107.083-.148.118-.179.154-.29.306-.44.465-.328.334-.6.612-.897.813-.13.075-.319.049-.405.044l-.253.18a8.727 8.727 0 0 0-5.527-2.67 15.73 15.73 0 0 1-.016-.297c-.087-.083-.191-.154-.218-.333-.029-.358.02-.744.076-1.208.03-.217.082-.398.09-.633.003-.054 0-.132 0-.19 0-.408-.299-.74-.666-.74Zm-.834 5.165-.198 3.493-.014.007a.587.587 0 0 1-.932.45l-.006.003-2.864-2.03a6.858 6.858 0 0 1 4.014-1.923Zm1.669 0a6.917 6.917 0 0 1 3.99 1.924l-2.846 2.017-.01-.004a.588.588 0 0 1-.934-.448l-.003-.002-.197-3.487Zm-6.722 3.227 2.616 2.339-.003.014a.586.586 0 0 1-.23 1.009l-.004.011-3.352.968a6.857 6.857 0 0 1 .973-4.341Zm11.754.001c.389.63.683 1.334.858 2.096.173.754.216 1.506.145 2.232l-3.369-.97-.003-.014a.587.587 0 0 1-.23-1.009l-.002-.007 2.601-2.328Zm-6.404 2.519h1.072l.665.832-.239 1.039-.961.462-.965-.464-.24-1.038.668-.831Zm3.435 2.848a.587.587 0 0 1 .135.01l.006-.007 3.467.586a6.866 6.866 0 0 1-2.776 3.487l-1.346-3.25.004-.006a.588.588 0 0 1 .51-.82Zm-5.824.014a.587.587 0 0 1 .531.819l.01.012-1.332 3.219a6.894 6.894 0 0 1-2.767-3.463l3.437-.584.006.007a.604.604 0 0 1 .115-.01Zm2.904 1.41a.583.583 0 0 1 .538.309h.013l1.694 3.062a7.03 7.03 0 0 1-.677.19 6.886 6.886 0 0 1-3.758-.194l1.69-3.056h.004a.588.588 0 0 1 .496-.31Z"/></svg>