<svg xmlns="http://www.w3.org/2000/svg" fill="none" aria-hidden="true" viewBox="0 0 48 48"><path fill="#fff" d="M45 24c0 11.592-9.398 21-21 21S3 35.592 3 24C3 12.398 12.398 3 24 3s21 9.398 21 21Z"/><path fill="#000" d="M16.96 32.865c-.188-.28-.352-.658-.486-1.11-2.41-2.718-.548-6.717 1.293-9.433a8.8 8.8 0 0 1 .578-.84c1.405-1.745 1.769-2.96 1.877-4.604.013-.306-.013-.71-.042-1.176-.148-2.376-.395-6.324 3.844-6.674 5.3-.438 4.868 4.429 4.829 7.282l-.004.344c-.015 1.72.883 2.897 1.82 4.126.342.45.69.905 1 1.396l.027.044c1.637 2.361 3.253 5.885 1.004 9.228-.316 1.14-.795 2.188-1.434 3.04-2.295 3.02-4.335 2.713-5.928 2.474-.48-.072-.92-.139-1.314-.105-.654.04-1.178.145-1.631.237-1.751.353-2.436.491-5.433-4.229Z"/><path fill="url(#a)" d="M27.021 11.692c-.049 1.399-1.532 2.614-3.31 2.726-1.78.112-3.174-.95-3.125-2.348.049-1.399 1.533-2.614 3.31-2.726 1.78-.102 3.174.95 3.125 2.348Z"/><g fill-rule="evenodd" clip-rule="evenodd"><path fill="url(#b)" d="M23.798 15.092c.015.76.363 1.409.852 1.701-1.596-.142-3.573.441-3.573 1.545-.025 1.868-1.064 4.192-1.813 5.864-.147.33-.283.634-.398.904-.463 1.147-.741 2.374-.774 3.577-1.227-1.69-.335-3.86.145-4.802.64-1.239.628-1.393.38-1.103-.953 1.62-2.747 4.872-.5 6.826a6.99 6.99 0 0 0 .66 2.495c3.007 6.064 8.637 3.573 10.494.43.247-.448.447-.88.606-1.298.093.058.192.103.298.133.933.276 2.329-.776 2.663-1.429.403-.868-.01-1.46-1.386-2.164a5.401 5.401 0 0 0-.208-.098c.528-2.221-.926-4.531-1.964-5.511-.194-.048-.22.062.08.362.654.626 2.076 2.86 1.306 4.94a2.493 2.493 0 0 0-.365-.071c-.236-1.419-.866-2.523-1.307-3.294-.1-.175-.19-.332-.263-.473a17.217 17.217 0 0 0-.514-.888c-.724-1.199-1.608-2.661-1.608-4.829-.111-.477-.561-.795-1.16-.97.695-.14 1.217-.953 1.199-1.93-.02-1.05-.678-1.888-1.464-1.867-.786.02-1.415.898-1.386 1.95Zm.649.234c-.01.582.265 1.052.629 1.052.354 0 .658-.47.668-1.041.01-.582-.265-1.052-.629-1.052-.363 0-.658.47-.668 1.041Z"/><path fill="url(#c)" d="M21.833 16.725c.57-.03.983-.796.934-1.705-.05-.908-.55-1.613-1.12-1.582-.57.03-.983.796-.934 1.705.05.908.55 1.613 1.12 1.582Zm.344-1.388c.05.48-.128.888-.383.929-.255.03-.501-.327-.55-.807-.05-.48.128-.888.383-.929.256-.03.501.327.55.807Z"/></g><path fill="url(#d)" d="M24.595 15c-.03.326.117.592.324.612.206.02.403-.235.432-.551.03-.327-.118-.592-.324-.613-.206-.02-.403.235-.432.552Z"/><path fill="url(#e)" d="M21.961 15.081c.03.266-.078.5-.235.521-.158.02-.305-.184-.334-.46-.03-.265.078-.5.235-.52.158-.02.305.194.334.46Z"/><path fill="url(#f)" d="M28.004 25.73c0 1.796-1.66 4.123-4.51 4.103-2.938.02-4.185-2.307-4.185-4.104 0-1.797 1.945-3.256 4.342-3.256 2.408.01 4.353 1.46 4.353 3.256Z"/><path fill="url(#g)" d="M26.451 20.084c-.03 1.858-1.198 2.297-2.672 2.297-1.474 0-2.545-.276-2.673-2.297 0-1.266 1.2-2.001 2.673-2.001 1.474-.01 2.672.725 2.672 2Z"/><path fill="url(#h)" d="M17.54 22.942c.963-1.521 2.997-3.859.383.327-2.122 3.45-.786 5.666-.098 6.278 1.985 1.838 1.906 3.073.344 2.103-3.35-2.072-2.653-5.564-.629-8.708Z"/><path fill="url(#i)" d="M31.482 23.565c-.835-1.787-3.488-6.32.128-1.052 3.29 4.768.982 8.086.57 8.412-.413.327-1.799.99-1.396-.163.413-1.154 2.456-3.338.698-7.197Z"/><path fill="url(#j)" d="M16.813 37.653c-2.201-1.215-5.394.235-4.235-3.053.236-.745-.344-1.868.03-2.593.442-.888 1.395-.694 1.965-1.286.56-.612.913-1.674 1.965-1.51 1.041.163 1.739 1.49 2.466 3.123.54 1.164 2.446 2.807 2.319 4.114-.157 2.001-2.349 2.379-4.51 1.205Z"/><path fill="#E68C3F" fill-rule="evenodd" d="M14.815 30.96c-.535.586-1.518.445-1.913 1.212-.253.491.024 1.247.061 1.786.046.665-.505 1.608-.224 2.177.315.638 1.74.555 2.367.647 1.547.226 4.103 2.228 5.502.63 1.368-1.562-1.26-3.538-1.905-4.927-.42-.942-1.047-2.748-2.215-2.931-.823-.128-1.198.887-1.673 1.407Zm1.772-2.093c1.455.228 2.182 2.113 2.72 3.319.814 1.748 3.605 3.627 1.796 5.694-1.643 1.876-4.237-.14-6.09-.41-.925-.135-2.385-.038-2.87-1.018-.416-.842.211-1.605.153-2.444-.05-.715-.332-1.483.016-2.162.476-.954 1.396-.723 2.021-1.367.664-.73 1.062-1.797 2.254-1.612Z" clip-rule="evenodd"/><path fill="url(#k)" d="M32.072 37.092c1.61-2.032 5.197-1.614 2.78-4.4-.51-.603-.354-1.89-.982-2.44-.737-.674-1.553-.123-2.3-.47-.746-.378-1.532-1.102-2.446-.592-.914.52-1.012 1.868-1.1 3.644-.079 1.276-1.2 3.41-.6 4.584.865 1.817 3.115 1.572 4.648-.326Z"/><path fill="#E68C3F" fill-rule="evenodd" d="M32.715 29.547c.413-.01.908.018 1.373.441.578.51.583 1.342.801 2.038.258.825 1.163 1.296 1.108 2.263-.088 1.581-2.826 1.962-3.669 3.025-.81 1.003-1.833 1.6-2.804 1.68-1.474.123-2.69-1.116-2.604-2.628.07-1.225.693-2.337.77-3.552.043-.88.09-1.695.25-2.357.16-.669.45-1.245 1.023-1.572 1.255-.701 2.468.696 3.752.662Zm-3.432-.052c-.34.194-.556.552-.695 1.13-.14.586-.186 1.336-.231 2.232-.075 1.217-.7 2.329-.77 3.55-.062 1.089.775 1.987 1.884 1.895.752-.062 1.62-.538 2.343-1.433.646-.813 3.457-1.569 3.516-2.62.038-.687-.865-1.33-1.077-2.008-.166-.53-.175-1.351-.6-1.724-.27-.248-.556-.285-.921-.275-1.057.027-2.467-1.294-3.449-.747Z" clip-rule="evenodd"/><path fill="url(#l)" d="M31.374 34.376c2.496-3.828.639-3.798.01-4.094-.63-.306-1.287-.909-2.024-.49-.737.429-.776 1.531-.796 2.981-.03 1.041-.865 2.787-.364 3.757.61 1.133 2.083-.51 3.174-2.154Z"/><path fill="url(#m)" d="M16.302 34.927c-3.734-2.511-1.985-3.369-1.425-3.767.678-.51.688-1.49 1.523-1.398.835.091 1.326 1.163 1.887 2.49.412.95 1.847 2.216 1.739 3.308-.138 1.286-2.113.44-3.724-.633Z"/><path fill="#000" d="M32.622 29.904c-.295.531-1.494 1.369-2.29 1.144-.815-.214-1.189-1.409-1.021-2.307.147-1.021 1.021-1.072 2.122-.562 1.17.552 1.533 1.021 1.189 1.726Z"/><path fill="url(#n)" d="M31.816 29.608c-.186.368-.973.95-1.523.797-.55-.153-.825-.98-.737-1.603.079-.704.668-.745 1.415-.398.806.388 1.061.714.845 1.204Z"/><path fill="url(#o)" d="M21.657 16.286c.393-.378 1.346-1.531 3.154-.327.334.225.609.245 1.247.531 1.287.552.678 1.879-.697 2.328-.59.194-1.12.94-2.181.868-.914-.051-1.15-.674-1.71-1.011-.992-.582-1.14-1.368-.6-1.787.54-.418.747-.571.787-.602Z"/><path fill="#E68C3F" fill-rule="evenodd" d="M20.99 17.055a.532.532 0 0 0-.203.605c.14.48 1.146 1.142 1.531 1.465.22.184.47.33.874.353.867.058 1.349-.61 2.108-.859.5-.163 1.557-.787 1.207-1.501-.299-.61-1.305-.647-1.805-.983-.86-.574-1.487-.57-1.933-.409-.49.176-1.336.986-1.779 1.33Zm1.647-1.723c.58-.209 1.335-.179 2.282.452.623.419 1.57.379 1.945 1.145.479.976-.68 1.838-1.443 2.088-.817.269-1.273.942-2.253.877a1.768 1.768 0 0 1-1.102-.444c-.554-.466-1.49-.908-1.705-1.646-.119-.409.055-.823.39-1.083.541-.42 1.272-1.167 1.886-1.389Z" clip-rule="evenodd"/><path fill="#E68C3F" fill-rule="evenodd" d="M26.212 17.35a.137.137 0 0 1-.127.147c-1.04.059-1.77 1.245-2.945 1.245-.657 0-1.177-.317-1.549-.622-.075-.061-.736-.57-.736-.7 0-.078.06-.14.134-.14.138 0 .555.453.71.58.35.287.87.605 1.441.605 1.163 0 1.876-1.186 2.931-1.246a.136.136 0 0 1 .14.131Z" clip-rule="evenodd"/><path fill="url(#p)" d="M22.266 16.184c.196-.184.815-.684 1.63-.174.178.102.354.215.61.368.52.316.265.776-.364 1.062-.285.122-.756.387-1.11.367-.393-.04-.658-.306-.914-.48-.481-.326-.452-.602-.226-.816.167-.164.354-.317.374-.327Z"/><defs><linearGradient id="a" x1="24.087" x2="23.755" y1="9.46" y2="13.959" gradientUnits="userSpaceOnUse"><stop stop-color="#fff" stop-opacity=".8"/><stop offset="1" stop-color="#fff" stop-opacity="0"/></linearGradient><linearGradient id="b" x1="19.345" x2="16.876" y1="34.008" y2="25.908" gradientUnits="userSpaceOnUse"><stop stop-color="#FFEED7"/><stop offset="1" stop-color="#BDBFC2"/></linearGradient><linearGradient id="c" x1="19.345" x2="16.876" y1="34.008" y2="25.908" gradientUnits="userSpaceOnUse"><stop stop-color="#FFEED7"/><stop offset="1" stop-color="#BDBFC2"/></linearGradient><linearGradient id="d" x1="25.003" x2="24.863" y1="14.483" y2="15.532" gradientUnits="userSpaceOnUse"><stop stop-color="#fff" stop-opacity=".65"/><stop offset="1" stop-color="#fff" stop-opacity="0"/></linearGradient><linearGradient id="e" x1="21.651" x2="21.802" y1="14.674" y2="15.523" gradientUnits="userSpaceOnUse"><stop stop-color="#fff" stop-opacity=".65"/><stop offset="1" stop-color="#fff" stop-opacity="0"/></linearGradient><linearGradient id="f" x1="23.642" x2="23.667" y1="23.446" y2="29.441" gradientUnits="userSpaceOnUse"><stop stop-color="#fff" stop-opacity=".8"/><stop offset="1" stop-color="#fff" stop-opacity="0"/></linearGradient><linearGradient id="g" x1="23.775" x2="23.803" y1="19.687" y2="22.071" gradientUnits="userSpaceOnUse"><stop stop-color="#fff" stop-opacity=".65"/><stop offset="1" stop-color="#fff" stop-opacity="0"/></linearGradient><linearGradient id="h" x1="17.579" x2="17.579" y1="21.158" y2="29.906" gradientUnits="userSpaceOnUse"><stop stop-color="#fff" stop-opacity=".65"/><stop offset="1" stop-color="#fff" stop-opacity="0"/></linearGradient><linearGradient id="i" x1="31.549" x2="31.546" y1="20.304" y2="28.208" gradientUnits="userSpaceOnUse"><stop stop-color="#fff" stop-opacity=".65"/><stop offset="1" stop-color="#fff" stop-opacity="0"/></linearGradient><linearGradient id="j" x1="17.142" x2="15.803" y1="33.656" y2="38.132" gradientUnits="userSpaceOnUse"><stop stop-color="#FFA63F"/><stop offset="1" stop-color="#FF0"/></linearGradient><linearGradient id="k" x1="29.823" x2="33.398" y1="32.295" y2="37.17" gradientUnits="userSpaceOnUse"><stop stop-color="#FFA63F"/><stop offset="1" stop-color="#FF0"/></linearGradient><linearGradient id="l" x1="30.78" x2="29.53" y1="28.4" y2="34.291" gradientUnits="userSpaceOnUse"><stop stop-color="#fff" stop-opacity=".65"/><stop offset="1" stop-color="#fff" stop-opacity="0"/></linearGradient><linearGradient id="m" x1="16.869" x2="17.117" y1="29.857" y2="36.486" gradientUnits="userSpaceOnUse"><stop stop-color="#fff" stop-opacity=".65"/><stop offset="1" stop-color="#fff" stop-opacity="0"/></linearGradient><linearGradient id="n" x1="30.563" x2="30.853" y1="28.293" y2="30.273" gradientUnits="userSpaceOnUse"><stop stop-color="#fff" stop-opacity=".65"/><stop offset="1" stop-color="#fff" stop-opacity="0"/></linearGradient><linearGradient id="o" x1="23.647" x2="23.671" y1="16.176" y2="19.664" gradientUnits="userSpaceOnUse"><stop stop-color="#FFA63F"/><stop offset="1" stop-color="#FF0"/></linearGradient><linearGradient id="p" x1="23.265" x2="23.259" y1="15.846" y2="17.691" gradientUnits="userSpaceOnUse"><stop stop-color="#fff" stop-opacity=".65"/><stop offset="1" stop-color="#fff" stop-opacity="0"/></linearGradient></defs></svg>