<svg xmlns="http://www.w3.org/2000/svg" fill="none" aria-hidden="true" viewBox="0 0 48 48"><path fill="#002B64" d="M43.122 10.72c-.618.02-.422.197-1.758.526-1.35.332-2.997.23-4.45.84-4.335 1.818-5.205 8.033-9.147 10.26-2.947 1.664-5.92 1.797-8.592 2.634-1.757.55-3.678 1.68-5.27 3.052-1.234 1.065-1.267 2-2.557 3.337-1.38 1.428-5.487.024-7.348 2.21.6.606.862.776 2.044.619-.245.463-1.687.854-1.404 1.536.296.718 3.782 1.204 6.95-.71 1.477-.89 2.652-2.174 4.95-2.48 2.974-.397 6.4.254 9.843.75-.51 1.522-1.535 2.535-2.356 3.747-.254.274.51.304 1.383.139 1.57-.388 2.701-.7 3.886-1.39 1.456-.848 1.676-3.02 3.462-3.49.995 1.53 3.7 1.89 5.38.667-1.473-.417-1.88-3.553-1.383-4.935.471-1.308.936-3.401 1.41-5.13.51-1.858.698-4.198 1.315-5.144.927-1.424 1.952-1.912 2.842-2.715.89-.802 1.704-1.584 1.677-3.42-.008-.592-.314-.921-.877-.904Z"/><path fill="#C49A6C" d="M41.798 11.807c.148.505.38.737 1.381.83-.146 1.27-.993 1.965-1.943 2.632-.837.586-1.753 1.151-2.341 2.067-.603.939-.986 4.15-1.921 7.322-.808 2.74-2.029 5.45-4.16 6.637-.223-.56.028-1.595-.415-1.935a17.35 17.35 0 0 1-.99 2.322c-1.25 2.39-3.102 4.18-6.197 4.727 1.469-1.987 2.873-4.039 2.903-7.463-1.033.223-1.011 2.664-2.073 3.317-.68.074-1.37.073-2.064.031-2.85-.17-5.774-1.027-8.44-.171-1.815.582-3.3 1.957-4.837 2.623-1.807.784-3.175 1.106-5.425.784-.286-.385 1.647-.882 1.531-1.717-.88-.097-1.392.116-2.157-.232.084-.156.209-.285.365-.393 1.403-.971 5.387-.23 6.454-1.277.658-.646 1.09-1.322 1.537-1.979.434-.637.882-1.257 1.565-1.816.252-.206.526-.41.817-.609a17.82 17.82 0 0 1 4.02-2.017c1.93-.678 3.886-.734 5.943-1.52 1.27-.486 2.653-1.086 3.78-1.925.267-.2.52-.412.754-.64 3.216-3.136 3.854-8.667 8.872-9.183.607-.062 1.104-.042 1.556-.056.522-.015.983-.076 1.485-.359ZM35.68 29.511c.06.958.616 2.86 1.107 3.322-.962.234-2.62-.152-3.044-.831.218-.98 1.355-1.876 1.937-2.492Z"/><path fill="#002B64" d="M42.16 12.88c-.194.406-.564.93-.564 1.962-.002.178-.135.3-.137.026.01-1.01.277-1.446.56-2.02.133-.234.212-.138.14.033Zm-.196-.152c-.228.387-.777 1.093-.868 2.122-.017.177-.16.286-.138.013.099-1.004.538-1.633.87-2.18.152-.222.223-.118.136.045Zm-.177-.203c-.26.367-1.106 1.215-1.283 2.233-.031.174-.183.27-.139.001.183-.993.912-1.773 1.29-2.29.17-.208.231-.099.132.056Zm-.159-.225-.085.09c-.378.406-1.257 1.395-1.55 2.3-.056.168-.22.243-.138-.018.321-.958 1.204-1.989 1.65-2.446.198-.183.244-.067.123.074Zm-4.539 2.049c.196-.842.85-1.225 1.98-1.132.273 1.256-1.253 1.763-1.98 1.132Z"/></svg>