<svg xmlns="http://www.w3.org/2000/svg" fill="none" aria-hidden="true" viewBox="0 0 48 48"><path fill="#DF4F4F" d="M8 8.312 35.405 37.34s.933.659 1.647-.11c.714-.768.165-1.536.165-1.536L8 8.312Zm8.677 2.744 20.87 22.498s.933.658 1.647-.11.165-1.536.165-1.536L16.677 11.056ZM31.45 39.425 10.582 16.927 33.263 37.78s.55.768-.165 1.537c-.714.768-1.647.11-1.647.11Zm-7.437-26.01 14.58 15.718s.652.46 1.151-.076c.499-.537.115-1.074.115-1.074L24.013 13.415ZM27.17 39.45 12.59 23.73 28.435 38.3s.384.536-.115 1.073c-.5.537-1.151.077-1.151.077Zm4.336-22.633 6.608 7.146s.322.216.57-.036c.246-.251.056-.503.056-.503l-7.235-6.607Zm-8.66 21.303-6.608-7.145 7.235 6.607s.19.251-.057.503c-.247.251-.57.035-.57.035Z"/></svg>