<svg xmlns="http://www.w3.org/2000/svg" fill="none" aria-hidden="true" viewBox="0 0 48 48"><path fill="#0078D7" d="M41.546 44H6.454A2.453 2.453 0 0 1 4 41.546V6.454A2.453 2.453 0 0 1 6.454 4h35.092A2.453 2.453 0 0 1 44 6.454v35.092A2.448 2.448 0 0 1 41.546 44Z"/><g fill="#fff"><path d="M31.506 16.838c.008-.117.008-.226.008-.343 0-4.15-3.368-7.51-7.502-7.525a7.515 7.515 0 0 0-7.51 7.868 33.82 33.82 0 0 1 2.83-.476 4.67 4.67 0 0 1 4.672-4.548 4.676 4.676 0 0 1 4.673 4.548 33.61 33.61 0 0 1 2.829.477Z"/><path fill-rule="evenodd" d="M35.28 19.245s2.024 14.206-11.244 19.785h-.032C10.736 33.451 12.76 19.245 12.76 19.245c3.094-1.156 7.001-1.844 11.26-1.844 4.259 0 8.166.688 11.26 1.844ZM27.661 30.56a3.667 3.667 0 0 0-2.579-3.993 2.81 2.81 0 0 0 1.735-2.594 2.808 2.808 0 0 0-2.805-2.806 2.803 2.803 0 0 0-2.805 2.806 2.81 2.81 0 0 0 1.735 2.594 3.676 3.676 0 0 0-2.571 3.993h7.29Z" clip-rule="evenodd"/></g></svg>