<svg xmlns="http://www.w3.org/2000/svg" fill="none" aria-hidden="true" viewBox="0 0 48 48"><path fill="#D97941" d="M7.16 15.073 6 15.64v1.083l1.16-.515v-1.135Zm0 3.533L6 19.147v1.083l1.16-.49v-1.134Zm1.393-2.089 1.495-.902v1.598l-1.495.826v-1.522Zm0 3.507 1.495-.902v1.598l-1.495.852v-1.548Zm8.949-2.294 2.965-1.497v2.889l-2.965 1.495V17.73Zm0 3.506 2.965-1.495v2.888l-2.965 1.496v-2.889Zm-3.198-3.61 2.527-1.212v2.553l-2.527 1.212v-2.553Zm0 3.507 2.527-1.186v2.527l-2.527 1.212v-2.553Zm-.903-2.501-2.063.928v-1.83l2.063-.98v1.882Zm0 3.507-2.063.928v-1.83L13.4 20.23v1.909Z"/><path fill="#4F89C8" d="M7.16 25.956 6 26.523v1.057l1.16-.515v-1.11Zm0 3.532L6 30.056v1.057l1.16-.516v-1.109ZM8.553 27.4l1.496-.903v1.573l-1.496.851v-1.522Zm0 3.507 1.496-.903v1.599l-1.496.85v-1.546Zm8.949-2.321 2.965-1.496v2.888L17.502 31.5v-2.914Zm0 3.534 2.965-1.497v2.888l-2.965 1.522v-2.914Zm-3.198-3.611 2.527-1.213v2.554l-2.527 1.211V28.51Zm0 3.507 2.527-1.212v2.553l-2.527 1.186v-2.527Zm-.903-2.528-2.063.955v-1.857l2.063-.98v1.882Zm0 3.534-2.063.954v-1.857l2.063-.98v1.883Z"/><path fill="#000" d="M24.825 36.477V11.153C30.344 8.755 36.043 8.6 42 11.437v25.117c-6.008-2.914-11.76-3.223-17.175-.077ZM21.112 16.13v-3.197l3.197-1.548v3.069l-3.197 1.676Zm0 3.662v-3.198l3.197-1.573v3.095l-3.197 1.676Zm0 3.61v-3.197l3.197-1.547v3.094l-3.197 1.65Zm0 3.662v-3.197l3.197-1.548v3.07l-3.197 1.675Zm0 3.585v-3.172l3.197-1.573v3.094l-3.197 1.651Zm0 3.739V31.19l3.197-1.547v3.095l-3.197 1.65Zm0 3.662v-3.198l3.197-1.547v3.07l-3.197 1.675Zm-.645-25.504-2.965 1.495v2.889l2.965-1.496v-2.888Zm-2.965 12.352 2.965-1.495v2.888l-2.965 1.521v-2.914Zm2.965 9.387-2.965 1.496v2.887l2.965-1.495v-2.888Zm-3.636-21.559-2.527 1.186v2.554l2.527-1.213v-2.527Zm-2.527 12.069 2.527-1.186v2.527l-2.527 1.212v-2.553Zm2.527 9.671-2.527 1.185v2.554l2.527-1.212v-2.527Zm-3.43-19.522-2.063.928v-1.83l2.063-.98v1.882ZM11.338 26.73l2.063-.93v-1.882l-2.063.98v1.831Zm2.063 9.953-2.063.928v-1.83l2.063-.98v1.882Zm-3.352-24.756-1.496.902v1.522l1.496-.851v-1.573ZM8.553 23.686l1.496-.902v1.598l-1.496.851v-1.547Zm1.496 9.98-1.496.903v1.521l1.495-.825v-1.599ZM7.16 11.385 6 11.978v1.058l1.16-.516v-1.135ZM6 22.81l1.16-.568v1.135L6 23.892V22.81Zm1.16 10.314L6 33.718v1.057l1.16-.516v-1.135Z"/><path fill="#D97941" fill-rule="evenodd" d="M24.8 14.686c2.269-1.005 4.125-1.547 5.75-1.65v7.994c-1.934.155-3.842.748-5.75 1.625v-7.969Z" clip-rule="evenodd"/><path fill="#8ABE6C" fill-rule="evenodd" d="M32.794 12.675v8.174h2.27c1.005 0 2.655.516 3.404.8v-8.072c-1.883-.799-3.791-1.083-5.674-.902Z" clip-rule="evenodd"/><path fill="#F2CA30" fill-rule="evenodd" d="M32.794 23.196v7.865c2.192-.103 3.868.233 5.673.826v-7.943c-1.882-.748-3.79-.98-5.673-.748Z" clip-rule="evenodd"/><path fill="#4F89C8" fill-rule="evenodd" d="M24.8 25.156c2.114-1.031 4.022-1.496 5.75-1.624v7.632c-2.037.362-3.997.904-5.75 1.728v-7.736Z" clip-rule="evenodd"/></svg>