<svg xmlns="http://www.w3.org/2000/svg" fill="none" aria-hidden="true" viewBox="0 0 48 48"><path fill="#8D6748" d="m38.88 33.7-13.914 8.04a1.92 1.92 0 0 1-1.932 0L9.121 33.7a1.932 1.932 0 0 1-.966-1.661V15.96c0-.695.367-1.314.966-1.662L23.034 6.26a1.92 1.92 0 0 1 1.932 0l13.913 8.038c.6.348.967.986.967 1.662v16.08a2.018 2.018 0 0 1-.967 1.661Z"/><path fill="#fff" d="M23.981 8.444c-.29 0-.58.078-.83.232l-12.02 6.938a1.64 1.64 0 0 0-.831 1.43v13.874c0 .599.309 1.14.83 1.43l12.02 6.937c.251.155.541.232.831.232.29 0 .58-.077.83-.232l12.02-6.937c.522-.29.831-.85.831-1.43V17.043c0-.599-.309-1.14-.83-1.43l-12.02-6.937a1.587 1.587 0 0 0-.831-.232Zm0 .58c.193 0 .367.058.541.155l12.02 6.937c.328.193.54.56.54.947v13.874c0 .387-.212.754-.54.947l-12.02 6.937a1.093 1.093 0 0 1-.541.155c-.193 0-.387-.058-.541-.155l-12.02-6.937a1.112 1.112 0 0 1-.54-.947V17.063c0-.387.212-.754.54-.947l12.02-6.937c.174-.097.367-.155.541-.155ZM22.87 21.121h1.623c.058 0 .097-.02.135-.058.966-1.082 1.063-3.343 1.063-4.02a.194.194 0 0 0-.193-.193h-3.633a.194.194 0 0 0-.193.194c0 .656.096 2.917 1.063 4.019a.176.176 0 0 0 .135.058Zm-.445-3.672h2.551c.097 0 .193.077.193.193 0 .542-.096 2.068-.753 2.86-.058.04-.097.058-.155.058h-1.14a.175.175 0 0 1-.135-.058c-.657-.772-.735-2.318-.754-2.86 0-.096.077-.193.193-.193Zm1.624-.985s.695-.406.27-1.14c-.251-.387-.367-.715-.27-.85-.252.309-.677.637-.213 1.333.155.174.232.54.213.657Zm-.773.058s.463-.27.174-.773c-.174-.251-.252-.483-.174-.56-.174.212-.445.425-.136.908.097.096.136.348.136.425Zm-.058 3.806h.966c.038 0 .077-.019.116-.057.328-.387.483-.986.56-1.508 0 0-.02.174-.483.348-.637.232-1.758.077-1.758.077.096.406.25.793.483 1.083.019.038.077.057.116.057Zm-7.266 5.43v-3.864h-.715l-1.179 1.816-1.178-1.816h-.715v3.884h.676v-2.763l1.198 1.797h.02l1.217-1.817v2.764h.676Zm4.329-3.787a2.245 2.245 0 0 0-.812-.154 1.9 1.9 0 0 0-.812.154 1.844 1.844 0 0 0-.637.425 1.941 1.941 0 0 0-.425.638 2.12 2.12 0 0 0-.155.773v.02c0 .27.058.54.154.772a1.845 1.845 0 0 0 1.043 1.063c.252.097.523.154.813.154.29 0 .56-.038.811-.154.251-.097.464-.251.638-.425.193-.193.328-.406.425-.638.096-.251.155-.502.155-.773v-.02c0-.27-.058-.54-.155-.772a1.843 1.843 0 0 0-1.044-1.063Zm.463 1.874c0 .174-.038.348-.096.522-.078.155-.155.31-.27.425a1.545 1.545 0 0 1-.407.29 1.15 1.15 0 0 1-.521.116 1.21 1.21 0 0 1-.522-.116 1.543 1.543 0 0 1-.406-.29 1.312 1.312 0 0 1-.27-.444 1.679 1.679 0 0 1-.097-.541v-.02c0-.174.038-.347.096-.521.078-.155.155-.31.271-.425.116-.116.251-.213.406-.29a1.15 1.15 0 0 1 .521-.116c.194 0 .368.038.522.116.155.077.29.174.406.29.116.135.213.27.27.444.059.174.097.348.097.541v.02Zm2.86-.58c.077-.154.155-.309.27-.424.117-.116.252-.213.406-.29a1.07 1.07 0 0 1 .503-.116c.232 0 .425.038.599.135s.328.213.483.348l.445-.502c-.097-.097-.194-.174-.29-.252-.097-.077-.213-.135-.329-.193-.135-.039-.251-.077-.406-.116a3.768 3.768 0 0 0-.483-.038c-.309 0-.56.057-.811.154a1.847 1.847 0 0 0-.638.425 2.23 2.23 0 0 0-.406.638 2.041 2.041 0 0 0-.154.773v.02c0 .27.058.52.154.772.097.251.232.464.406.638.174.174.386.328.618.425.232.097.483.154.773.154.174 0 .348 0 .522-.038.135-.02.29-.078.406-.136.116-.057.232-.116.348-.212.116-.097.212-.174.309-.29l-.445-.444a3.63 3.63 0 0 1-.502.367c-.155.097-.367.135-.6.135a1.47 1.47 0 0 1-.502-.116 1.204 1.204 0 0 1-.405-.29 1.31 1.31 0 0 1-.27-.444 1.675 1.675 0 0 1-.098-.541v-.02c0-.174.04-.347.097-.521Zm4.078-1.371v3.864h.676v-1.623h1.855v1.623h.676v-3.864h-.676v1.604h-1.855v-1.604h-.677Zm7.42 2.937.386.928h.715l-1.7-3.885h-.619l-1.7 3.885h.696l.405-.928h1.817Zm-.908-2.145.656 1.546h-1.313l.657-1.546ZM11.68 27.188h24.64v-.212H11.681v.212Zm14.165-7.478c0 .077-.02.135-.02.213H36.32v-.213H25.846Zm-4.31 0H11.68v.213h9.875c0-.078-.02-.136-.02-.213Z"/></svg>