<svg xmlns="http://www.w3.org/2000/svg" fill="none" aria-hidden="true" viewBox="0 0 48 48"><g id="ms-office-360-Icon"><g id="Group"><path id="Vector" fill="url(#paint0_linear_94_18237)" d="M25.4302 6.1192L28.1719 12.3775V34.1324L25.4898 41.8808L35.6818 38.9603C37.2315 38.4834 38.3043 37.053 38.3043 35.4437V12.4967C38.3043 10.8874 37.2315 9.45695 35.6818 8.98013L25.4302 6.1192Z"/><path id="Vector_2" fill="url(#paint1_linear_94_18237)" d="M12.4966 33.894L15.4768 32.2848C16.3112 31.8079 16.8476 30.9735 16.8476 30.0199V18.2781C16.8476 17.2053 17.5629 16.1921 18.5761 15.8344L28.1721 12.3775V9.75497C28.1721 8.08609 27.0397 6.59603 25.4304 6.11921C25.0728 6 24.7748 6 24.4172 6C23.7615 6 23.1059 6.17881 22.5695 6.47682L11.543 12.7351C10.4105 13.3907 9.69531 14.5828 9.69531 15.894V32.2252C9.69531 33.298 10.5297 34.1325 11.6026 34.1325C11.9006 34.1325 12.2582 34.0728 12.4966 33.894Z"/><path id="Vector_3" fill="url(#paint2_linear_94_18237)" d="M28.1722 34.1324H16.7881C15.7153 34.1324 14.8809 35.0265 14.8809 36.0397C14.8809 36.6954 15.2385 37.351 15.8345 37.7086L22.6292 41.5232C23.1656 41.8212 23.8213 42 24.4769 42C24.8345 42 25.1921 41.9404 25.4901 41.8808C27.0994 41.404 28.1722 39.9735 28.1722 38.3046V34.1324V34.1324Z"/><path id="Vector_4" fill="url(#paint3_linear_94_18237)" d="M12.4966 33.894L15.4768 32.2848C16.3112 31.8079 16.8476 30.9735 16.8476 30.0199V18.2781C16.8476 17.2053 17.5629 16.1921 18.5761 15.8344L28.1721 12.3775V9.75497C28.1721 8.08609 27.0397 6.59603 25.4304 6.11921C25.0728 6 24.7748 6 24.4172 6C23.7615 6 23.1059 6.17881 22.5695 6.47682L11.543 12.7351C10.4105 13.3907 9.69531 14.5828 9.69531 15.894V32.2252C9.69531 33.298 10.5297 34.1325 11.6026 34.1325C11.9006 34.1325 12.2582 34.0728 12.4966 33.894Z"/><path id="Vector_5" fill="url(#paint4_linear_94_18237)" d="M28.1722 34.1324H16.7881C15.7153 34.1324 14.8809 35.0265 14.8809 36.0397C14.8809 36.6954 15.2385 37.351 15.8345 37.7086L22.6292 41.5232C23.1656 41.8212 23.8213 42 24.4769 42C24.8345 42 25.1921 41.9404 25.4901 41.8808C27.0994 41.404 28.1722 39.9735 28.1722 38.3046V34.1324V34.1324Z"/></g></g><defs><linearGradient id="paint0_linear_94_18237" x1="31.8672" x2="31.8672" y1="4.08469" y2="149.405" gradientUnits="userSpaceOnUse"><stop stop-color="#FFB900"/><stop offset="0.17" stop-color="#EF8400"/><stop offset="0.31" stop-color="#E25C01"/><stop offset="0.43" stop-color="#DB4401"/><stop offset="0.5" stop-color="#D83B01"/><stop offset="1" stop-color="#D83B01"/></linearGradient><linearGradient id="paint1_linear_94_18237" x1="25.5132" x2="-51.4414" y1="5.32541" y2="115.211" gradientUnits="userSpaceOnUse"><stop stop-color="#800600"/><stop offset="0.6" stop-color="#C72127"/><stop offset="0.73" stop-color="#C13959"/><stop offset="0.85" stop-color="#BC4B81"/><stop offset="0.94" stop-color="#B95799"/><stop offset="1" stop-color="#B85BA2"/></linearGradient><linearGradient id="paint2_linear_94_18237" x1="15.9545" x2="116.417" y1="38.082" y2="38.082" gradientUnits="userSpaceOnUse"><stop stop-color="#F32B44"/><stop offset="0.6" stop-color="#A4070A"/><stop offset="1" stop-color="#A4070A"/></linearGradient><linearGradient id="paint3_linear_94_18237" x1="25.8837" x2="9.58976" y1="4.78547" y2="28.0485" gradientUnits="userSpaceOnUse"><stop stop-opacity="0.4"/><stop offset="1" stop-opacity="0"/></linearGradient><linearGradient id="paint4_linear_94_18237" x1="32.5324" x2="-12.4477" y1="38.6311" y2="34.7048" gradientUnits="userSpaceOnUse"><stop stop-opacity="0.4"/><stop offset="1" stop-opacity="0"/></linearGradient></defs></svg>