<svg xmlns="http://www.w3.org/2000/svg" fill="none" aria-hidden="true" viewBox="0 0 48 48"><path fill="url(#a)" d="m25.43 6.12 2.742 6.257v21.755l-2.682 7.749 10.192-2.92c1.55-.478 2.623-1.908 2.623-3.517V12.497c0-1.61-1.073-3.04-2.623-3.517L25.43 6.12Z"/><path fill="url(#b)" d="m12.497 33.894 2.98-1.61c.834-.476 1.37-1.31 1.37-2.264V18.278a2.64 2.64 0 0 1 1.73-2.444l9.595-3.457V9.755c0-1.669-1.132-3.159-2.742-3.636C25.073 6 24.775 6 24.417 6c-.655 0-1.311.179-1.848.477l-11.026 6.258c-1.132.656-1.848 1.848-1.848 3.159v16.331c0 1.073.835 1.907 1.908 1.907.298 0 .655-.06.894-.238Z"/><path fill="url(#c)" d="M28.172 34.132H16.788c-1.073 0-1.907.895-1.907 1.908 0 .655.357 1.311.953 1.669l6.795 3.814a3.872 3.872 0 0 0 1.848.477c.357 0 .715-.06 1.013-.12a3.702 3.702 0 0 0 2.682-3.575v-4.173Z"/><path fill="url(#d)" d="m12.497 33.894 2.98-1.61c.834-.476 1.37-1.31 1.37-2.264V18.278a2.64 2.64 0 0 1 1.73-2.444l9.595-3.457V9.755c0-1.669-1.132-3.159-2.742-3.636C25.073 6 24.775 6 24.417 6c-.655 0-1.311.179-1.848.477l-11.026 6.258c-1.132.656-1.848 1.848-1.848 3.159v16.331c0 1.073.835 1.907 1.908 1.907.298 0 .655-.06.894-.238Z"/><path fill="url(#e)" d="M28.172 34.132H16.788c-1.073 0-1.907.895-1.907 1.908 0 .655.357 1.311.953 1.669l6.795 3.814a3.872 3.872 0 0 0 1.848.477c.357 0 .715-.06 1.013-.12a3.702 3.702 0 0 0 2.682-3.575v-4.173Z"/><defs><linearGradient id="a" x1="31.867" x2="31.867" y1="4.085" y2="149.405" gradientUnits="userSpaceOnUse"><stop stop-color="#FFB900"/><stop offset=".17" stop-color="#EF8400"/><stop offset=".31" stop-color="#E25C01"/><stop offset=".43" stop-color="#DB4401"/><stop offset=".5" stop-color="#D83B01"/><stop offset="1" stop-color="#D83B01"/></linearGradient><linearGradient id="b" x1="25.513" x2="-51.441" y1="5.325" y2="115.211" gradientUnits="userSpaceOnUse"><stop stop-color="#800600"/><stop offset=".6" stop-color="#C72127"/><stop offset=".73" stop-color="#C13959"/><stop offset=".85" stop-color="#BC4B81"/><stop offset=".94" stop-color="#B95799"/><stop offset="1" stop-color="#B85BA2"/></linearGradient><linearGradient id="c" x1="15.954" x2="116.417" y1="38.082" y2="38.082" gradientUnits="userSpaceOnUse"><stop stop-color="#F32B44"/><stop offset=".6" stop-color="#A4070A"/><stop offset="1" stop-color="#A4070A"/></linearGradient><linearGradient id="d" x1="25.884" x2="9.59" y1="4.785" y2="28.049" gradientUnits="userSpaceOnUse"><stop stop-opacity=".4"/><stop offset="1" stop-opacity="0"/></linearGradient><linearGradient id="e" x1="32.532" x2="-12.448" y1="38.631" y2="34.705" gradientUnits="userSpaceOnUse"><stop stop-opacity=".4"/><stop offset="1" stop-opacity="0"/></linearGradient></defs></svg>