<svg xmlns="http://www.w3.org/2000/svg" fill="none" aria-hidden="true" viewBox="0 0 48 48"><circle cx="25.548" cy="24" r="14.452" fill="url(#a)"/><mask id="b" width="29" height="30" x="11" y="9" maskUnits="userSpaceOnUse" style="mask-type:alpha"><circle cx="25.548" cy="24" r="14.452" fill="#C4C4C4"/></mask><g mask="url(#b)"><path fill="url(#c)" d="M26.58 7.484h17.548v17.548H26.58z"/><path fill="#000" fill-opacity=".3" d="M14.193 19.774a3 3 0 0 1 3-3h8.452a3 3 0 0 1 3 3v12.58a3 3 0 0 1-3 3H14.193v-15.58Z"/><path fill="#EB6C4D" d="M9.032 7.484H26.58v17.548H9.032z"/></g><rect width="18.581" height="18.581" x="8" y="14.71" fill="url(#d)" rx="2"/><path fill="#fff" d="M21.42 22.407c0-2.226-1.467-3.568-3.791-3.568h-3.436V29.16h2.133v-3.14h1.214c2.176 0 3.88-1.24 3.88-3.614Zm-2.163.045c0 1.002-.636 1.651-1.673 1.651h-1.258V20.77h1.243c1.037 0 1.688.546 1.688 1.682Z"/><defs><linearGradient id="a" x1="11.097" x2="40" y1="25.993" y2="25.993" gradientUnits="userSpaceOnUse"><stop stop-color="#A73A24"/><stop offset="1" stop-color="#F75936"/></linearGradient><linearGradient id="c" x1="40.516" x2="26.58" y1="17.806" y2="17.806" gradientUnits="userSpaceOnUse"><stop stop-color="#FDB8A3"/><stop offset="1" stop-color="#F1876D"/></linearGradient><linearGradient id="d" x1="8" x2="26.581" y1="25.281" y2="25.281" gradientUnits="userSpaceOnUse"><stop stop-color="#A73A24"/><stop offset="1" stop-color="#F75936"/></linearGradient></defs></svg>