<svg xmlns="http://www.w3.org/2000/svg" fill="none" aria-hidden="true" viewBox="0 0 48 48"><mask id="a" width="30" height="40" x="9" y="4" maskUnits="userSpaceOnUse" style="mask-type:alpha"><path fill="#fff" d="M25.667 5.667c0-.92.746-1.667 1.666-1.667h10C38.253 4 39 4.746 39 5.667v36.666c0 .92-.746 1.667-1.667 1.667H10.667C9.747 44 9 43.254 9 42.333V25.667c0-.92.746-1.667 1.667-1.667h6.666v-8.333c0-.92.747-1.667 1.667-1.667h6.667V5.667Z"/></mask><g mask="url(#a)"><path fill="url(#b)" d="M39 4v40H25.667V4H39Z"/><g filter="url(#c)"><path fill="#000" fill-opacity=".2" d="M30.667 15.833v28.334H17.333v-30H29c.92 0 1.667.746 1.667 1.666Z"/></g><g filter="url(#d)"><path fill="#000" fill-opacity=".18" d="M30.667 16.5v28.333H17.333v-30H29c.92 0 1.667.746 1.667 1.667Z"/></g><path fill="url(#e)" d="M30.667 15.667V44H17.333V14H29c.92 0 1.667.746 1.667 1.667Z"/><path fill="url(#f)" d="M9 24v20h13.333V25.667c0-.92-.746-1.667-1.666-1.667H9Z"/></g><defs><linearGradient id="b" x1="23.444" x2="41.027" y1="4" y2="41.269" gradientUnits="userSpaceOnUse"><stop stop-color="#E6AD10"/><stop offset="1" stop-color="#C87E0E"/></linearGradient><linearGradient id="e" x1="17.332" x2="32.119" y1="14" y2="42.678" gradientUnits="userSpaceOnUse"><stop stop-color="#F6D751"/><stop offset="1" stop-color="#E6AD10"/></linearGradient><linearGradient id="f" x1="8.999" x2="17.17" y1="24" y2="43.366" gradientUnits="userSpaceOnUse"><stop stop-color="#F9E589"/><stop offset="1" stop-color="#F6D751"/></linearGradient><filter id="c" width="14.933" height="31.6" x="16.533" y="13.367" color-interpolation-filters="sRGB" filterUnits="userSpaceOnUse"><feFlood flood-opacity="0" result="BackgroundImageFix"/><feBlend in="SourceGraphic" in2="BackgroundImageFix" result="shape"/><feGaussianBlur result="effect1_foregroundBlur_5_1126" stdDeviation=".4"/></filter><filter id="d" width="29.333" height="46" x="9.333" y="6.833" color-interpolation-filters="sRGB" filterUnits="userSpaceOnUse"><feFlood flood-opacity="0" result="BackgroundImageFix"/><feBlend in="SourceGraphic" in2="BackgroundImageFix" result="shape"/><feGaussianBlur result="effect1_foregroundBlur_5_1126" stdDeviation="4"/></filter></defs></svg>