<svg xmlns="http://www.w3.org/2000/svg" fill="none" aria-hidden="true" viewBox="0 0 48 48"><circle cx="24" cy="24" r="21" fill="url(#a)" opacity=".852"/><path fill="url(#b)" d="M10.127 39.8a.583.583 0 0 1-.087-.08c-.544-.494-1.43-1.274-2.355-2.453-.799-1.734-.346-4.645 1.62-8.756 2.775-5.8 7.215-11.688 9.035-13.777-.518-.578-2.122-2.16-4.395-3.867-2.273-1.706-3.929-1.881-4.506-1.778.533-.577 1.776-1.666 2.819-2.4 3.232-1.6 9.204 1.104 11.764 2.645v10.6c-6.526 5.022-12.563 12.777-13.784 15.8-.932 2.306-.563 3.585-.198 3.986l.087.08Z"/><path fill="url(#c)" d="M10.127 39.8a.599.599 0 0 1-.087-.08c-.544-.495-1.43-1.275-2.355-2.454-.799-1.733-.346-4.645 1.62-8.755 3.222-6.734 9.035-13.778 9.035-13.778s1.038 2.578 3.393 7.044c-6.066 5.378-10.274 10.934-11.495 13.956-.932 2.306-.563 3.586-.198 3.987l.087.08Z"/><path fill="url(#d)" d="M37.917 39.8a.592.592 0 0 0 .088-.08c.543-.494 1.429-1.274 2.354-2.453.8-1.734.346-4.645-1.62-8.756-2.775-5.8-7.214-11.688-9.034-13.777.518-.578 2.122-2.16 4.395-3.867 2.273-1.706 3.928-1.881 4.505-1.778-.532-.577-1.775-1.666-2.819-2.4-3.231-1.6-9.204 1.104-11.764 2.645v10.6c6.526 5.022 12.564 12.777 13.784 15.8.932 2.306.564 3.585.199 3.986l-.088.08Z"/><path fill="url(#e)" d="M37.917 39.8a.604.604 0 0 0 .088-.08c.543-.495 1.429-1.275 2.354-2.454.8-1.733.346-4.645-1.62-8.755-3.222-6.734-9.034-13.778-9.034-13.778s-1.038 2.578-3.394 7.044c6.067 5.378 10.275 10.934 11.495 13.956.932 2.306.564 3.586.199 3.987l-.088.08Z"/><defs><linearGradient id="b" x1="19.489" x2="19.844" y1="7.089" y2="19.178" gradientUnits="userSpaceOnUse"><stop stop-color="#008B00"/><stop offset="1" stop-color="#6CC329"/></linearGradient><linearGradient id="c" x1="15.222" x2="19.311" y1="19" y2="24.6" gradientUnits="userSpaceOnUse"><stop stop-color="#008C00"/><stop offset="1" stop-color="#48BF21"/></linearGradient><linearGradient id="d" x1="28.556" x2="28.2" y1="7.089" y2="19.178" gradientUnits="userSpaceOnUse"><stop stop-color="#008B00"/><stop offset="1" stop-color="#6CC329"/></linearGradient><linearGradient id="e" x1="32.822" x2="28.733" y1="19" y2="24.6" gradientUnits="userSpaceOnUse"><stop stop-color="#008C00"/><stop offset="1" stop-color="#48BF21"/></linearGradient><radialGradient id="a" cx="0" cy="0" r="1" gradientTransform="rotate(90.055 1.135 22.864) scale(23.25)" gradientUnits="userSpaceOnUse"><stop stop-color="#FAFAFA"/><stop offset=".5" stop-color="#EFEFEF"/><stop offset=".829" stop-color="#C0BEC0"/><stop offset="1" stop-color="#879288"/></radialGradient></defs></svg>