<svg xmlns="http://www.w3.org/2000/svg" fill="none" aria-hidden="true" viewBox="0 0 48 48"><path fill="url(#a)" d="m27.839 3.124-.02 9.24-.018 9.242-.882-2.146v-.005l-1.145 20.572c1.125 2.728 1.726 4.186 1.733 4.191.006.006.645.039 1.419.072 2.34.099 5.241.313 7.446.55.512.055.946.082.978.06.032-.022.038-9.428.032-20.907l-.019-20.869h-9.524Z"/><path fill="url(#b)" d="M10.61 3.096v20.891c0 11.49.013 20.902.032 20.919.02.016.844-.055 1.841-.149a184.5 184.5 0 0 1 3.056-.264c1.048-.077 4.193-.248 4.55-.253.11 0 .116-.468.128-8.85l.02-8.85.76 1.848c.115.286.154.374.269.654L22.41 8.476c-.243-.589-.115-.28-.39-.952-.933-2.271-1.726-4.191-1.758-4.28l-.064-.153H10.61v.005Z"/><path fill="#E30A17" d="m10.61 3.096 9.62 23.46v-.011l.76 1.848c4.226 10.291 6.495 15.814 6.508 15.825.006.005.645.038 1.419.071 2.34.1 5.241.314 7.447.55.505.055.946.083.971.06l-9.537-23.3v.006l-.882-2.145-4.909-11.936c-.933-2.271-1.726-4.191-1.758-4.28l-.063-.153h-4.788l-4.788.005Z"/><defs><linearGradient id="a" x1="41.678" x2="26.434" y1="34.366" y2="41.06" gradientUnits="userSpaceOnUse"><stop stop-color="#B20610"/><stop offset=".256" stop-color="#B20610"/><stop offset="1" stop-color="#590004"/></linearGradient><linearGradient id="b" x1="5.988" x2="22.473" y1="12.257" y2="5.101" gradientUnits="userSpaceOnUse"><stop stop-color="#B20610"/><stop offset=".256" stop-color="#B20610"/><stop offset="1" stop-color="#590004"/></linearGradient></defs></svg>