<svg xmlns="http://www.w3.org/2000/svg" fill="none" aria-hidden="true" viewBox="0 0 48 48"><path fill="#539E43" d="M24 42a2.9 2.9 0 0 1-1.388-.364l-4.4-2.613c-.66-.363-.33-.496-.131-.562.893-.297 1.058-.364 1.984-.893.1-.066.232-.033.33.033l3.374 2.018c.132.066.298.066.397 0l13.196-7.64c.132-.066.199-.199.199-.364V16.368c0-.165-.067-.297-.199-.363L24.166 8.398c-.132-.066-.298-.066-.397 0l-13.196 7.607c-.132.066-.198.231-.198.363v15.247c0 .132.066.298.198.364l3.605 2.084c1.951.992 3.175-.166 3.175-1.324V17.691c0-.198.165-.397.397-.397h1.687c.198 0 .396.166.396.397V32.74c0 2.612-1.422 4.134-3.902 4.134-.76 0-1.356 0-3.043-.827l-3.473-1.984a2.791 2.791 0 0 1-1.389-2.415V16.401c0-.992.53-1.918 1.39-2.414l13.196-7.64c.826-.463 1.95-.463 2.778 0l13.196 7.64a2.791 2.791 0 0 1 1.389 2.414v15.247c0 .992-.53 1.918-1.39 2.415l-13.195 7.64c-.43.198-.926.297-1.39.297Zm4.069-10.484c-5.788 0-6.979-2.646-6.979-4.895 0-.198.166-.397.397-.397h1.72c.198 0 .364.133.364.33.264 1.754 1.025 2.614 4.53 2.614 2.779 0 3.97-.629 3.97-2.117 0-.86-.331-1.488-4.664-1.918-3.605-.364-5.854-1.158-5.854-4.035 0-2.68 2.25-4.267 6.02-4.267 4.233 0 6.316 1.456 6.581 4.63 0 .1-.033.2-.1.298-.065.066-.165.133-.264.133h-1.72a.387.387 0 0 1-.363-.298c-.397-1.82-1.422-2.414-4.134-2.414-3.043 0-3.407 1.058-3.407 1.852 0 .959.43 1.256 4.531 1.786 4.068.529 5.986 1.29 5.986 4.134-.033 2.91-2.414 4.564-6.614 4.564Z"/></svg>