<svg xmlns="http://www.w3.org/2000/svg" fill="none" aria-hidden="true" viewBox="0 0 48 48"><g id="openstack-Icon"><path id="Vector" fill="#DA1A32" d="M14.1309 30.3905V31.678C14.1309 32.677 14.9404 33.4865 15.9394 33.4865H32.0621C33.061 33.4865 33.8706 32.677 33.8706 31.678V30.3905H42V38.2727C42 40.1123 40.4949 41.6174 38.6553 41.6174H9.34471C7.50512 41.6174 6 40.1123 6 38.2727V30.3905H14.1309ZM14.1294 19.9346V28.064H6V19.9346H14.1294ZM42 19.9346V28.064H33.8706V19.9346H42ZM38.6553 6.38257C40.4949 6.38257 42 7.88769 42 9.72876V17.6095H33.8706V16.322C33.8706 15.323 33.061 14.5135 32.0621 14.5135H15.9379C14.939 14.5135 14.1294 15.323 14.1294 16.322V17.6095H6V9.72728C6 7.88769 7.50512 6.38257 9.34471 6.38257H38.6553Z"/></g></svg>