<svg xmlns="http://www.w3.org/2000/svg" fill="none" aria-hidden="true" viewBox="0 0 48 48"><path fill="#B8C6C9" d="M38.617 29.265c-.497 0-.978.108-1.404.302-.186-.114-.28-.224-.562-.331V16.703L23.965 9.32 13.31 15.61a36.343 36.343 0 0 1-.55-.33 3.384 3.384 0 0 0-3.38-3.353A3.385 3.385 0 0 0 6 15.308a3.386 3.386 0 0 0 3.382 3.382c.497 0 .989-.109 1.414-.302.176.107.402.211.543.313v12.646l12.668 7.333 10.757-6.292c.158.093.314.189.476.287a3.384 3.384 0 0 0 3.38 3.354A3.385 3.385 0 0 0 42 32.647a3.387 3.387 0 0 0-3.383-3.382Z"/><path fill="#759BC5" d="m23.983 36.58 10.849-6.347V17.767l-10.85-6.317-10.843 6.405v12.451l10.844 6.275Zm16.18-3.905a1.539 1.539 0 1 1-3.079.001 1.539 1.539 0 0 1 3.078-.002ZM7.838 15.306a1.539 1.539 0 1 1 3.078-.001 1.539 1.539 0 0 1-3.078.002Z"/><path fill="#343532" d="M38.638 33.583a.924.924 0 0 1 0-1.846.924.924 0 0 1 0 1.846ZM26.1 34.617c1.005-1.447 2.196-3.521 2.928-6.013 1.556.32 3.009.837 4.584 1.623l-7.512 4.39Zm-7.583-14.353a16.111 16.111 0 0 0-.446 3.227h-4.34v-4.98c1.547.835 3.177 1.397 4.786 1.753ZM9.38 16.23a.924.924 0 0 1 0-1.846.924.924 0 0 1 0 1.846Zm12.295-2.694c-1.01 1.41-2.165 3.386-2.887 5.784-1.454-.316-2.827-.811-4.304-1.542l7.19-4.242ZM24.4 27.187l.003-1.152a2.097 2.097 0 0 0 1.62-1.562l2.82.002a15.185 15.185 0 0 1-.42 3.023c-1.236-.201-2.548-.296-4.023-.311Zm-.002.984c1.387.014 2.614.099 3.766.278-.974 3.21-2.746 5.72-3.745 6.96a822.913 822.913 0 0 1-.02-7.238Zm-5.608.57c.723 2.408 1.88 4.377 2.89 5.775l-7.38-4.265a21.95 21.95 0 0 1 4.49-1.51Zm3.169-4.267a2.097 2.097 0 0 0 1.582 1.552c0 .393-.002.781-.003 1.163-1.52.026-2.913.186-4.155.418a15.286 15.286 0 0 1-.43-3.132l3.006-.001Zm1.579-3.695c0 .388.002.776.003 1.163a2.097 2.097 0 0 0-1.58 1.547l-3.007.002c.038-1.076.19-2.1.422-3.06 1.277.223 2.631.329 4.162.348Zm-.01-7.557c.001 2.16.002 4.371.007 6.572-1.44-.018-2.709-.112-3.9-.311 1.002-3.278 2.851-5.72 3.892-6.911v.65Zm5.48 6.068c-.73-2.44-1.9-4.467-2.893-5.89l7.562 4.398c-.934.424-2.546 1.053-4.67 1.492Zm-4.619-6.069v-.66c.986 1.205 2.77 3.686 3.757 6.89-1.134.193-2.39.323-3.75.342-.004-2.2-.005-4.412-.007-6.572Zm-.398 11.87a1.109 1.109 0 0 1 0-2.215 1.109 1.109 0 0 1 0 2.215Zm-.434 10.385c-1.028-1.173-2.894-3.623-3.91-6.91a23.717 23.717 0 0 1 3.89-.392c-.004 2.604.003 4.986.02 7.302Zm2.465-11.988a2.097 2.097 0 0 0-1.62-1.555 4265.6 4265.6 0 0 1-.003-1.155c1.462-.02 2.807-.16 4.012-.366.238.974.395 2.004.432 3.078-.914 0-1.846 0-2.821-.002Zm8.116 0-4.478.002c-.036-1.134-.219-2.218-.463-3.24 2.296-.476 4.096-1.166 4.94-1.616v4.853Zm-20.408.988h4.346c.034 1.166.187 2.271.434 3.305a23.417 23.417 0 0 0-4.78 1.63v-4.935Zm15.503 3.18c.236-1.005.368-2.07.404-3.181 1.495 0 3.093-.001 4.5-.003v4.968c-1.548-.862-3.227-1.433-4.904-1.784Zm9.405 2.85c-.578 0-1.13.23-1.518.602a32.536 32.536 0 0 0-1.716-1.008V17.41l-11.443-6.67-10.77 6.362a41.864 41.864 0 0 1-1.793-1.071 2.14 2.14 0 0 0 .132-.725 2.155 2.155 0 0 0-2.152-2.154 2.155 2.155 0 0 0-2.153 2.154c0 1.188.966 2.154 2.154 2.154a2.07 2.07 0 0 0 1.459-.602c.574.36 1.203.689 1.625.99v12.8l11.497 6.626 10.914-6.368c.55.31 1.13.653 1.73 1.03a2.158 2.158 0 0 0 2.032 2.879 2.157 2.157 0 0 0 2.155-2.155 2.155 2.155 0 0 0-2.153-2.154Z"/></svg>