<svg xmlns="http://www.w3.org/2000/svg" fill="none" aria-hidden="true" viewBox="0 0 48 48"><path fill="#253B80" d="m17.411 40.78.624-3.963-1.39-.033H10.01l4.61-29.243a.377.377 0 0 1 .375-.32h11.19c3.714 0 6.278.774 7.616 2.3.628.715 1.028 1.463 1.22 2.286.204.864.207 1.896.01 3.155l-.015.091v.807l.627.355c.529.28.949.602 1.27.969.538.612.885 1.39 1.032 2.312.151.948.101 2.077-.147 3.355-.286 1.47-.75 2.75-1.374 3.797a7.809 7.809 0 0 1-2.178 2.386c-.83.589-1.816 1.036-2.932 1.323-1.08.281-2.313.423-3.665.423h-.87a2.64 2.64 0 0 0-1.703.627c-.476.41-.79.97-.888 1.584l-.065.356-1.102 6.985-.05.257c-.014.08-.036.121-.07.149a.185.185 0 0 1-.114.042H17.41Z"/><path fill="#179BD7" d="M36.239 15.146a18.2 18.2 0 0 1-.115.656C34.65 23.38 29.6 25.997 23.152 25.997H19.87c-.788 0-1.453.573-1.576 1.35l-1.68 10.661-.477 3.022a.84.84 0 0 0 .83.97h5.822a1.4 1.4 0 0 0 1.384-1.18l.057-.296 1.097-6.957.07-.382A1.4 1.4 0 0 1 26.78 32h.87c5.643 0 10.06-2.29 11.35-8.92.539-2.768.26-5.08-1.167-6.706a5.566 5.566 0 0 0-1.594-1.229Z"/><path fill="#222D65" d="M34.695 14.53a11.591 11.591 0 0 0-1.435-.318 18.229 18.229 0 0 0-2.894-.21h-8.77a1.398 1.398 0 0 0-1.383 1.183l-1.866 11.817-.054.345a1.594 1.594 0 0 1 1.576-1.35h3.283c6.448 0 11.496-2.62 12.972-10.194.044-.225.081-.443.115-.657a7.853 7.853 0 0 0-1.214-.511 11.7 11.7 0 0 0-.33-.104Z"/><path fill="#253B80" d="M20.99 14.14c.185-.089.389-.138.605-.138h8.77c1.04 0 2.01.068 2.895.211a11.572 11.572 0 0 1 1.767.421c.435.145.84.316 1.213.512.439-2.8-.004-4.706-1.518-6.432C33.053 6.814 30.042 6 26.187 6h-11.19a1.6 1.6 0 0 0-1.581 1.352l-4.66 29.543a.961.961 0 0 0 .947 1.112h6.909l1.735-11.005 1.865-11.817c.073-.47.374-.852.778-1.045Z"/></svg>