<svg xmlns="http://www.w3.org/2000/svg" fill="none" aria-hidden="true" viewBox="0 0 48 48"><path fill="#5C007B" d="M25.851 9.6c3.033 1.35 5.714 3.444 5.714 3.444-.42-1.66-.724-2.549-.724-2.549 2.49 1.355 6.272 3.748 7.558 4.955a5.12 5.12 0 0 0 1.725-.382c.653-.274 1.201.397 1.408 1.08.207.678.455 1.726.467 2.863.012 1.266-.269 2.361-.836 3.253-1.134 1.784-3.396 2.96-5.79 4.204-2.497 1.299-4.58 2.617-6.21 5.041a15.258 15.258 0 0 0-1.933 4.097c-.465 1.543-.832 2.794-1.876 2.794-.944 0-1.508-1.217-1.934-1.904-.82-1.322-1.839-2.966-3.489-3.105-1.466-.217-2.669.325-3.538 1.042a5.93 5.93 0 0 0-1.058 1.143 27.02 27.02 0 0 0-.699.884c-.683.892-1.274 1.662-2.054 1.885a1.353 1.353 0 0 1-.374.055c-.1 0-.214-.014-.335-.052l-.002.004c-2.46-.721-2.586-5.218-2.586-5.218-1.183.281-2.404 1.059-2.404 1.059 1.101-3.772 3.212-6.237 3.212-6.237-1.632-.128-3.996.314-4.091.332h-.003c3.286-4.228 5.503-5.778 5.503-5.778-1.705-.745-3.874-1.133-3.962-1.148h-.002c4.002-2.312 7.974-3.443 7.974-3.443-.338-.318-1.017-.68-1.72-1.002l-.109-.05c-1.066-.48-2.15-.863-2.15-.863 2.763-.795 7.654-1.291 7.654-1.291a7.372 7.372 0 0 0-1.081-.72l-.095-.053c-.08-.044-.16-.088-.24-.13l-.095-.051c-.943-.494-1.866-.868-1.866-.868 4.121-.141 6.88 0 6.88 0-.727-1-2.602-2.308-2.602-2.308 3.904.367 6.687 1.336 6.687 1.336-.027-.217-.168-.607-.333-1.006l-.038-.092-.039-.092-.04-.092c-.235-.546-.474-1.037-.474-1.037ZM19.57 34.188c-.116.31-.247.646-.385.981-.534 1.293-1.173 2.63-1.863 2.738a.804.804 0 0 1-.123.01c-.508 0-.963-.468-1.388-1.43.748-1.054 2.232-2.282 3.759-2.299Zm11.855-3.767c-.418 1.569-.474 3.145-.519 4.411v.001c-.029.819-.053 1.526-.17 2.04-.157.69-.5 1.039-1.02 1.039h-.017c-.502-.008-1.035-.438-1.62-1.31.345-1.972 1.707-4.492 3.346-6.181ZM14.46 25.692 11.399 30.3l2.884-2.637.177-1.97Zm8.768-3.53-6.934 3.312 5.779-1.414 1.155-1.898Zm-6.203-.8L11.533 25.3l4.474-1.97 1.018-1.969Zm12.423-1.156-6.16.664 4.503.263 1.657-.927Zm-6.758-1.808-6.16.664 4.527.43 1.633-1.094Zm8.677-.772-4.592.974 3.573-.202 1.019-.772Zm-10.434-1.622 4.776 1.222 2.082-.691-6.858-.53Zm4.918-2.354 3.864 1.8 1.85-.382-5.714-1.418Z"/></svg>