<svg xmlns="http://www.w3.org/2000/svg" fill="none" aria-hidden="true" viewBox="0 0 48 48"><path fill="#3A3C5B" d="M41.999 24c0 9.941-8.059 18-18 18s-18-8.059-18-18 8.059-18 18-18 18 8.059 18 18Z"/><path fill="#fff" d="M36.538 25.331c-.606-3.827-4.621-6.306-7.611-8.175-1.306-.817-3.424-1.88-3.698-3.598-.113-.71-.109-1.444-.132-2.16-.01-.282-.014-.565-.04-.846-.032-.362-.4.085-.602-.232-.5-.782-.308.238-.259.65.116.967.252 1.932.244 2.909-.015 1.867-.316 3.654-.781 5.453-1.09 4.212-1.95 8.528-.872 12.839.223.893.514 1.774.896 2.612.116.254.337.962.655 1.046 1.145.306 2.01.394 2.925 1.246.567.529.993.24 1.665-.029 2.034-.814 3.796-1.838 5.238-3.514 2.025-2.357 2.861-5.115 2.372-8.2Zm-2.151 3.854c-.18 1.574-1.168 2.984-2.176 4.153-.73.847-1.72 1.947-2.803 2.333-.39.139.071-.642.128-.728.336-.504.75-.95 1.133-1.416.568-.69 1.06-1.415 1.392-2.25 1.103-2.774.853-6.136-.78-8.635-.89-1.36-2.11-2.51-3.34-3.56-.594-.507-1.195-.986-1.696-1.593-.115-.14-1.137-1.477-.819-1.675.103-.063 2.335 2.285 2.578 2.468.923.697 1.872 1.342 2.727 2.127 1.157 1.062 2.345 2.25 3.008 3.695.726 1.583.844 3.368.648 5.08Z"/><path fill="#fff" d="M23.336 6.485c.335.224.41 1.527.41 2.718 0 1.192.111 6.33-.261 7.708-.372 1.378-1.229 2.905-2.16 4.245-.93 1.34-2.01 4.17-1.973 5.92.037 1.75 1.042 4.618 1.824 5.81.785 1.195 2.118 2.862 1.825 3.239-.522.67-2.644-1.639-3.761-2.979s-2.234-4.059-2.271-6.181c-.038-2.123 1.154-4.096 2.01-5.288.857-1.191 2.532-3.24 2.98-4.17.446-.93.93-1.936 1.08-3.24.148-1.303 0-5.957 0-5.957s-.038-2.048.297-1.825Z"/><path fill="#fff" d="M22.442 8.682c.335.149.372.559.372.968 0 .41-.111 2.085-.223 3.724-.112 1.638-1.415 3.016-2.383 3.984s-3.761 3.984-4.804 5.474c-1.042 1.49-1.562 3.451-1.452 5.101.112 1.676.521 3.314 2.085 5.064s2.644 2.57 3.463 2.98c.82.409 1.639.707 1.453 1.079-.187.372-.969.111-1.825-.186-.857-.298-3.76-1.49-5.437-3.389-1.675-1.899-2.532-4.43-2.457-6.851.074-2.42.745-3.426 1.862-4.99s4.207-3.872 5.175-4.468c.969-.596 2.272-1.601 2.905-2.42.633-.82.968-1.49.93-2.607-.036-1.117.075-2.122.038-2.495-.037-.372-.037-1.117.298-.968Zm.094 29.188c.151-.006.055.65-.212.975-.267.326-.727.522-.782.39-.057-.13.331-.206.616-.523.261-.29.192-.835.378-.842Zm3.014-.018c-.152-.006-.056.65.211.976.268.325.727.521.782.39.056-.13-.331-.206-.616-.523-.261-.29-.192-.835-.378-.843Zm-1.34.712c0 .573.029 1.038-.097 1.038-.154 0-.095-.465-.095-1.038s-.053-1.037.095-1.037c.137 0 .096.464.096 1.037Z"/></svg>