<svg xmlns="http://www.w3.org/2000/svg" fill="none" aria-hidden="true" viewBox="0 0 48 48"><path fill="url(#a)" d="M24 34.516c11.046 0 20-4.708 20-10.516s-8.954-10.516-20-10.516S4 18.192 4 24s8.954 10.516 20 10.516Z"/><path fill="#6181B6" d="M24 33.734c10.614 0 19.219-4.358 19.219-9.734S34.614 14.266 24 14.266 4.781 18.624 4.781 24 13.386 33.734 24 33.734Z"/><path fill="#fff" fill-rule="evenodd" d="m28.844 22.25-.953 4.906c-.032.14-.157.25-.297.297H25.25a.281.281 0 0 1-.234-.11.327.327 0 0 1-.063-.265l.906-4.672c.11-.578.016-.765-.03-.812-.063-.063-.25-.188-.923-.188h-1.562l-1.125 5.782a.32.32 0 0 1-.313.25h-2.281a.281.281 0 0 1-.234-.11.327.327 0 0 1-.063-.265l.406-2.11a5.04 5.04 0 0 1-.968 1.203 4.428 4.428 0 0 1-1.641.985c-.578.187-1.344.28-2.234.28h-1.704l-.5 2.548a.32.32 0 0 1-.312.25h-2.297a.281.281 0 0 1-.234-.11.327.327 0 0 1-.063-.265l2.047-10.563a.32.32 0 0 1 .313-.25h4.39c1.422 0 2.469.39 3.14 1.157.376.406.595.906.688 1.5l1.016-5.204a.32.32 0 0 1 .313-.25h2.28c.095 0 .173.032.235.11a.327.327 0 0 1 .063.265l-.47 2.438h1.657c1.375 0 2.313.25 2.86.75.562.515.75 1.344.53 2.453ZM16.53 24.656c.39-.297.657-.828.797-1.562.125-.657.078-1.14-.125-1.39-.156-.173-.547-.376-1.515-.376h-1.313l-.734 3.781h1.015c.844 0 1.485-.156 1.875-.453Zm17.97-5.625c1.422 0 2.469.39 3.14 1.157.672.78.876 1.843.61 3.203a5.2 5.2 0 0 1-.547 1.5 5.03 5.03 0 0 1-1 1.25 4.43 4.43 0 0 1-1.64.984c-.579.188-1.344.281-2.235.281h-1.703l-.5 2.547a.32.32 0 0 1-.313.25h-2.296a.281.281 0 0 1-.235-.11.327.327 0 0 1-.062-.265l2.047-10.547a.32.32 0 0 1 .312-.25H34.5Zm-.047 5.625c.39-.297.656-.828.797-1.562.14-.657.094-1.14-.125-1.39-.156-.173-.547-.376-1.516-.376h-1.312l-.734 3.781h1.015c.844 0 1.484-.156 1.875-.453Z" clip-rule="evenodd"/><path fill="#000004" d="M21.703 16.547h2.281l-.547 2.797h2.032c1.281 0 2.156.218 2.64.672.485.453.625 1.172.438 2.172l-.953 4.906H25.28l.907-4.672c.109-.531.062-.89-.11-1.078-.172-.188-.562-.297-1.14-.297h-1.829l-1.172 6.047h-2.28l2.046-10.547Z"/><path fill="#000004" fill-rule="evenodd" d="M10.094 29.89h2.297l.546-2.796h1.97c.874 0 1.577-.094 2.14-.282a4.103 4.103 0 0 0 1.531-.921c.39-.36.703-.75.938-1.172.234-.422.406-.89.5-1.407.25-1.25.062-2.218-.547-2.921-.61-.703-1.578-1.047-2.907-1.047h-4.421L10.094 29.89Zm5.594-8.874c.874 0 1.453.156 1.75.484.296.328.359.875.203 1.656-.157.813-.47 1.407-.922 1.75-.453.344-1.14.516-2.063.516h-1.39l.859-4.406h1.563Zm14.625 8.874h-2.297l2.047-10.546h4.421c1.328 0 2.297.343 2.907 1.047.609.703.797 1.672.547 2.922a4.56 4.56 0 0 1-.5 1.406 4.69 4.69 0 0 1-.938 1.172 4.104 4.104 0 0 1-1.531.922c-.563.187-1.266.28-2.14.28h-1.97l-.547 2.798Zm5.046-8.39c-.297-.328-.875-.484-1.75-.484h-1.562l-.86 4.406h1.391c.922 0 1.61-.172 2.063-.516.453-.343.765-.937.922-1.75.156-.781.093-1.328-.204-1.656Z" clip-rule="evenodd"/><defs><radialGradient id="a" cx="0" cy="0" r="1" gradientTransform="translate(16.008 17.183) scale(26.2649)" gradientUnits="userSpaceOnUse"><stop stop-color="#fff"/><stop offset=".5" stop-color="#4C6B97"/><stop offset="1" stop-color="#231F20"/></radialGradient></defs></svg>