<svg xmlns="http://www.w3.org/2000/svg" fill="none" aria-hidden="true" viewBox="0 0 48 48"><g fill="#DD3735"><path d="m19.866 12.922-.105.067c-.008.009-.017.011-.017.012h.005c.007.035.01.065.014.1.002.028.005.058.01.095l.092-.134c.044-.064.083-.123.127-.182l-.024-.024-.102.066Zm3.809 6.058-.353.159c0 .005-.01.025-.022.047-.016.03-.034.062-.026.062.028-.006.072-.03.118-.055.054-.03.11-.06.149-.067.036 0 .085.012.121.025 0-.049 0-.098.013-.17Zm8.831 10.57a.238.238 0 0 1-.07-.106l-.007.09c-.01.103-.017.189-.017.275 0 .024.025.073.037.073.024.012.073-.013.097-.025a.092.092 0 0 0 .024-.048.485.485 0 0 0-.054-.03c-.018-.01-.037-.019-.055-.031.153-.08.103-.135.045-.197Z"/><path fill-rule="evenodd" d="M41.985 23.062a53.514 53.514 0 0 0-.06-1.398 53.102 53.102 0 0 1-.017-.356c-.016-.355-.032-.71-.069-1.065l-.006-.047c-.083-.63-.167-1.269-.31-1.886-.109-.522-.291-1.02-.474-1.519l-.04-.103c-.218-.55-.439-1.109-.713-1.635-.352-.668-.785-1.282-1.218-1.897-.15-.214-.3-.427-.447-.643a8.682 8.682 0 0 0-.583-.714c-.226-.258-.452-.516-.644-.805-.207-.316-.51-.583-.815-.826a21.386 21.386 0 0 0-1.506-1.082 15.11 15.11 0 0 0-1.191-.753 9.817 9.817 0 0 0-.744-.36 26.848 26.848 0 0 1-.277-.126l-.239-.116c-.307-.15-.617-.303-.964-.37a2.343 2.343 0 0 1-.25-.075l-.066-.022a16.436 16.436 0 0 1-.303-.11 9.45 9.45 0 0 0-.524-.182 22.154 22.154 0 0 1-.421-.139c-.281-.095-.563-.19-.855-.262-.425-.11-.863-.183-1.3-.243a14.78 14.78 0 0 0-.974-.102c-.166-.014-.332-.028-.497-.044a12.791 12.791 0 0 0-.936-.085 25.679 25.679 0 0 0-.926-.027l-.471-.01a14.417 14.417 0 0 1-.17-.01 4.646 4.646 0 0 0-.535-.014c-.352.012-.705.049-1.057.097-.24.026-.48.064-.715.1-.099.016-.197.032-.294.046-.2.024-.4.043-.6.06-.2.019-.402.037-.603.062-.26.033-.524.078-.787.123l-.355.059c-.067.012-.134.03-.2.048a2.393 2.393 0 0 1-.201.05c-.1.02-.2.036-.301.053a3.752 3.752 0 0 0-.587.128c-.522.158-1.045.34-1.555.535-.474.195-.936.401-1.385.644-.389.215-.76.464-1.128.711l-.21.14c-.412.28-.826.571-1.227.887-.389.304-.753.644-1.106.985-.127.127-.24.27-.353.417-.06.075-.119.152-.181.227l-.221.254c-.23.264-.458.527-.679.803-.178.223-.343.452-.51.683l-.182.253a15.51 15.51 0 0 0-1.094 1.75c-.133.241-.254.483-.375.725l-.002.004c-.06.12-.122.24-.184.36a15.17 15.17 0 0 0-.363.734 4.629 4.629 0 0 0-.291.814c-.17.595-.34 1.203-.499 1.798-.145.535-.182 1.094-.194 1.641-.012.477.035.942.082 1.418l.003.028c.003.034 0 .07-.003.106-.009.093-.017.189.088.259.012 0 0 .048-.012.06-.037.074 0 .146.073.17 0 0 .012.013.012.025h-.06c-.018.052 0 .099.02.146.02.053.041.106.016.17-.01.018.015.049.037.078l.023.031c0 .012 0 .025-.002.038a.213.213 0 0 0 .002.084c.005.045.017.09.028.136.016.066.033.133.033.204 0 .052.027.109.054.164.017.035.034.07.043.104.013.036 0 .097-.024.121-.073.085-.06.158.049.207.024.012.06.06.06.085a.66.66 0 0 1-.021.145l-.015.073c.024.025.037.049.024.073a.123.123 0 0 1-.014.05c-.009.018-.017.034-.01.048.097.194.134.413.146.631 0 .04.016.08.036.128l.012.03c.013 0 .05 0 .073.013l-.073.218a.635.635 0 0 1 .122-.054l.049-.019c.036.159.073.304.121.438a.208.208 0 0 0 .073.073.202.202 0 0 0-.01.032c-.005.022-.01.045-.026.053l.035.171c.03.157.06.309.123.46a.043.043 0 0 0 .018-.005.042.042 0 0 1 .018-.006c-.018-.11-.033-.222-.049-.335-.015-.112-.03-.224-.048-.334v-.072s.024-.013.036-.013l.015.051c.01.036.022.07.022.095.048 0 .11.015.17.03.06.016.121.03.17.03l.012-.039a.5.5 0 0 1 .025-.07 1.108 1.108 0 0 1-.104-.127 1.105 1.105 0 0 0-.103-.128c.017.07.01.108.004.137a.177.177 0 0 0-.004.034 2.356 2.356 0 0 0-.17-.073c.048-.061.097-.122.17-.195 0-.11-.06-.207-.231-.194.03-.01.06-.023.092-.035.044-.018.09-.036.139-.05l.001.003c.012.035.024.07.035.094.06-.105.028-.196-.006-.29a.544.544 0 0 1-.042-.184c.007-.124-.034-.248-.076-.375-.027-.084-.056-.17-.07-.257-.036-.2-.046-.46-.056-.71a7.758 7.758 0 0 0-.03-.481c0-.018-.02-.037-.04-.055a.411.411 0 0 1-.02-.018.71.71 0 0 0-.043.092c-.018.042-.036.084-.042.09.036.292.073.584.097.875-.012 0-.024 0-.024.012L7 24.75a33.08 33.08 0 0 0-.125-.643l-.013.08a.432.432 0 0 0-.011.09c-.019-.006-.03-.012-.046-.02-.015-.007-.033-.016-.064-.028.025.056.05.102.073.145.022.042.043.08.06.122-.084-.036-.181-.024-.181-.024v.34a1.031 1.031 0 0 1-.167-.221 1.16 1.16 0 0 0-.052-.083c-.012-.048-.021-.097-.03-.146a2.477 2.477 0 0 0-.03-.145l.036-.013a.436.436 0 0 0-.02-.054c-.008-.024-.017-.046-.017-.067a9.483 9.483 0 0 1-.036-.292.117.117 0 0 1 .03-.016.191.191 0 0 0 .055-.032l-.098-.146.078.01c.056.008.099.014.141.014 0-.01.002-.017.004-.023.002-.01.004-.018-.004-.025-.103-.094-.057-.178-.01-.262l.022-.042c.013-.025.04-.04.067-.055.028-.015.055-.03.067-.055.028-.051.06-.1.093-.149.081-.123.162-.244.162-.41 0-.066.014-.137.027-.207.009-.045.017-.09.022-.133.024-.207.048-.413.06-.62.01-.097.012-.193.014-.29.005-.17.009-.337.047-.5.098-.425.22-.85.353-1.276.097-.304.206-.595.328-.899l.081-.213c.154-.402.306-.802.502-1.185.251-.502.53-.99.811-1.48l.259-.452c.23-.401.474-.778.729-1.167l.085-.132c.215-.335.434-.674.68-.986.39-.498.815-.96 1.289-1.373.12-.108.24-.218.358-.327.36-.33.72-.66 1.112-.961.68-.523 1.398-.984 2.163-1.386.62-.328 1.264-.583 1.908-.826.242-.092.496-.156.75-.219.18-.045.362-.09.539-.146.486-.158.972-.23 1.482-.243.312-.011.613-.045.924-.08l.049-.005c.291-.024.583-.048.899-.085a.533.533 0 0 0-.061.098l-.205.29c-.07.097-.141.195-.208.293l-.17.243c-.058.082-.116.164-.17.243a33.3 33.3 0 0 1-.156.202c-.146.189-.294.379-.428.576-.117.169-.23.34-.345.511a19.51 19.51 0 0 1-.481.704c-.194.259-.4.507-.604.755l-.308.375c-.2.261-.395.526-.589.79-.195.264-.389.529-.59.79-.16.218-.324.432-.488.645-.21.273-.42.546-.617.826-.196.27-.378.551-.56.832-.112.173-.224.346-.34.517-.224.334-.45.665-.674.996-.225.331-.45.662-.675.997-.352.51-.705 1.008-1.07 1.519a.165.165 0 0 1-.066.054.49.49 0 0 0-.03.018c-.008.009-.02.017-.03.025-.022.016-.043.032-.043.049-.01.032-.015.065-.02.097-.01.051-.019.1-.041.146a7.561 7.561 0 0 1-.304.534 1.52 1.52 0 0 1-.13.17c-.03.035-.06.072-.089.11l-.01-.006-.007-.004a.081.081 0 0 0-.043-.014.375.375 0 0 1 .084-.112c.068-.07.139-.144.074-.265-.03.048-.061.094-.091.14-.03.045-.061.09-.092.14l-.146.29c.01.008.02.014.03.02.045.028.088.055.02.115-.02.03-.037.064-.056.097a2.887 2.887 0 0 1-.054.097c.006 0 .009.003.012.006.003.003.006.006.012.006a1.26 1.26 0 0 1 .055-.067.786.786 0 0 0 .054-.067c.007 0 .013.003.019.007a.043.043 0 0 0 .018.006c-.028.095-.08.182-.129.268a.62.62 0 0 1-.225.258c-.025.02-.05.038-.072.057.007.006.03.018.055.03a.502.502 0 0 1 .055.03.102.102 0 0 1 .043-.036.103.103 0 0 0 .042-.036c.012.019.028.012.042.005.013-.006.025-.01.031.007l.031-.04a.299.299 0 0 0 .054-.081.441.441 0 0 1 .243-.268.453.453 0 0 0 .12-.096l.002-.001c.08-.084.162-.167.243-.25.286-.29.57-.58.826-.892.34-.414.66-.839.979-1.264.159-.21.318-.422.48-.632.15-.194.318-.388.483-.577l.185-.213c.01.005.021.008.03.01.013.004.024.007.03.014-.024.255-.048.523-.06.778a49.52 49.52 0 0 0-.05.7c-.015.218-.03.438-.047.661-.007.091-.007.182-.007.273 0 .091 0 .183-.006.274 0 .024-.009.045-.018.067a.167.167 0 0 0-.018.067c0 .06.009.124.018.188.01.064.018.127.018.188-.018.225-.04.447-.06.669-.022.222-.043.443-.061.668-.01.073.016.146.04.214.007.023.015.044.02.066v-.001a.338.338 0 0 0-.06-.048c0 .251.017.5.034.75.03.448.06.894-.01 1.34.049-.012.073-.024.073-.048.004-.029.01-.057.015-.086a.913.913 0 0 0 .021-.17.643.643 0 0 0 .003-.146c-.001-.027-.003-.055-.003-.084v-.122c.005-.072.012-.145.02-.219.017-.15.033-.303.017-.45a2.286 2.286 0 0 1 .024-.704.535.535 0 0 0 .01-.122c.001-.07.002-.144.039-.219v.183c-.003.16-.004.32-.005.48-.003.533-.006 1.065-.08 1.598-.003.015-.002.033-.002.052.003.056.005.115-.095.106-.007 0-.013.016-.021.037-.008.02-.016.043-.028.06-.026.053-.016.112-.006.172.013.079.027.16-.043.23-.015.015 0 .067.015.121.009.03.018.06.022.085a.14.14 0 0 0 .003.025c.002.015.005.028-.003.035-.049.086-.049.086.024.098.006.137.016.268.025.398.01.122.018.243.024.367h.036c.092-.27.098-.543.103-.818.004-.197.008-.394.043-.591.012.194.024.389.012.595 0 .302-.01.592-.022.893l-.002.043c0 .06-.012.12-.024.18v.002c-.012.055-.021.11-.03.165-.02.114-.039.227-.08.333-.037.092-.032.219-.027.338l.003.112v.462c0 .004.004.01.01.02.01.018.026.045.026.077a.503.503 0 0 1-.01.14c-.011.064-.023.13-.002.2.01.02-.005.05-.018.073l-.006.012c-.012.037-.024.073-.012.11l.036.182c0 .008.005.015.011.026l.014.023c.012-.049.012-.085.012-.098.125.015.134.088.144.165.006.05.012.101.05.14a1.345 1.345 0 0 1-.037.017c-.029.013-.048.022-.048.03.005.019.01.035.017.05.01.028.02.054.02.085 0 .098-.01.187-.021.283l-.004.033c0 .14-.003.282-.006.422-.003.137-.006.272-.006.404 0 .018.003.036.006.055a.33.33 0 0 1 .006.054.14.14 0 0 1-.005.034.216.216 0 0 0-.007.051v.256h.049c-.025.036-.049.072-.085.109-.012 0-.05 0-.05-.012V29.15h-.181c-.008.222-.007.437-.007.649.001.482.002.943-.09 1.416-.059.005-.101.012-.141.018-.061.01-.117.019-.212.019-.377 0-.753 0-1.13.012-.225 0-.447.003-.669.006a49 49 0 0 1-.668.006c-.11 0-.222.006-.334.012-.112.006-.225.013-.334.013-.146 0-.295-.01-.444-.019-.149-.009-.298-.018-.443-.018-.27 0-.535.013-.8.026a24.071 24.071 0 0 1-1.027.035c-.165.003-.33.006-.495.012-.218.012-.437.024-.656.049-.068.008-.13.029-.203.053l-.1.032-.04-.002a.675.675 0 0 0-.155.002.932.932 0 0 0-.176.06.923.923 0 0 1-.177.061c-.182.037-.23.085-.206.268v.121a.362.362 0 0 0-.085-.06c-.012 0-.025.011-.025.011a.238.238 0 0 0 .025.049c.009.015.018.03.024.049a.444.444 0 0 0 .054-.035c.035-.024.072-.05.104-.05h.17c-.014 0-.024.025-.038.058a.525.525 0 0 1-.035.075c.097-.036.158-.06.219-.085a.344.344 0 0 1 .012.098c.053-.004.106-.012.157-.019a.85.85 0 0 1 .317-.006c.474.122.96.17 1.446.219.316.024.62.036.936.049.45.024.9.048 1.349.048.188 0 .374-.009.559-.018.185-.01.37-.018.559-.018.35 0 .7.01 1.05.021.172.006.345.011.518.015.053 0 .11-.003.167-.006.06-.003.123-.006.185-.006h.887c.393-.012.786-.021 1.178-.03.398-.01.795-.019 1.192-.03.225-.007.453-.016.68-.025.228-.01.456-.018.681-.024l1.386-.037c.264-.006.528-.009.791-.012a69.4 69.4 0 0 0 .8-.012c.39 0 .769-.012 1.157-.023l.034-.001c.304-.009.612-.028.919-.047.148-.01.296-.018.443-.026.243-.012.485-.037.728-.061l.286-.026c.201-.02.404-.039.602-.047.217-.012.438-.021.659-.03.223-.01.446-.019.666-.03l.404-.03c.413-.029.827-.059 1.248-.068.306-.015.616-.016.925-.018.207 0 .414-.001.619-.006.22-.006.44-.015.662-.024.231-.01.464-.019.699-.025l.766-.036s.51-.012.765-.037c.175-.01.35-.023.525-.037.262-.02.525-.04.788-.048.14-.006.28-.006.419-.006.14 0 .28 0 .42-.006l.445-.015c.305-.01.613-.021.915-.021.103 0 .211.008.329.018.076.007.157.013.242.018a5.648 5.648 0 0 1-.178.15l-.013.012-.04.032a.741.741 0 0 1 .144.06l.002.001c0 .005-.002.01-.004.016-.004.009-.008.018-.008.033-.03 0-.06.003-.09.006-.031.003-.062.006-.092.006a.69.69 0 0 1-.02.044.586.586 0 0 0-.053.163h.219c-.06 0-.115.055-.173.114-.023.023-.046.047-.07.068.006.006.012.009.018.012a.061.061 0 0 1 .018.012c-.133-.049-.218-.024-.267.11.036.012.06.012.097.012a1.61 1.61 0 0 0-.036.121.174.174 0 0 0-.025.085l-.036-.036c0-.025 0-.049-.012-.073a.744.744 0 0 1-.042.037c-.065.057-.13.113-.08.242l-.05.024a1.26 1.26 0 0 0-.12.062.2.2 0 0 0 .017.027.23.23 0 0 1 .032.058c-.11.012-.219.036-.195.17.03.007.061.02.089.03a.746.746 0 0 0 .045.018c-.03.012-.06.028-.091.043a1.23 1.23 0 0 1-.091.042.265.265 0 0 0-.012.03c-.01.027-.02.06-.037.068-.142.03-.098.077-.051.127l.027.03a.489.489 0 0 1-.11.061.213.213 0 0 1 .086.049.705.705 0 0 1-.083.047l-.003.002a.274.274 0 0 1 .013.006l.014.008a.16.16 0 0 0 .046.022 4 4 0 0 0-.182.146c0 .024 0 .036.012.06l-.002.002c-.047.048-.096.097-.144.169a.741.741 0 0 0-.053.102.614.614 0 0 1-.08.14 4.83 4.83 0 0 0-.233.282c-.156.2-.311.397-.533.545-.121.085-.23.195-.34.304-.088.083-.171.169-.255.255-.125.13-.25.26-.39.377-.303.255-.62.486-.947.717l-.005.003c-.4.278-.799.557-1.198.823-.135.09-.279.166-.424.242-.09.048-.18.096-.27.147-.115.068-.229.132-.342.196l-.338.193a2.862 2.862 0 0 0-.156.116c-.09.07-.18.142-.281.188-.268.114-.546.216-.825.32-.139.05-.277.101-.415.154l-.048.018-.049.018-.267.12a8.27 8.27 0 0 1-.632.27c-.28.096-.571.17-.863.23-.056.014-.115.012-.176.01a.979.979 0 0 0-.14.002l-.208.04a5.481 5.481 0 0 1-.412.07c-.267.036-.535.066-.802.097-.267.03-.535.06-.802.097-.158.018-.313.043-.468.067-.155.024-.31.049-.468.067a4.18 4.18 0 0 1-.403-.005 6.129 6.129 0 0 0-.265-.007c-.059 0-.12.005-.18.01a1.317 1.317 0 0 1-.306.002 9.369 9.369 0 0 1-.512-.095l-.254-.051-.028-.006c-.057-.012-.125-.027-.166-.006-.054.027-.104.016-.155.006-.04-.008-.082-.017-.125-.006-.034.007-.067-.005-.101-.017a.25.25 0 0 0-.081-.02.232.232 0 0 0-.08 0c-.029.003-.06.007-.09 0l-.074-.02a.87.87 0 0 0-.327-.053c-.1.009-.198-.022-.301-.054a1.738 1.738 0 0 0-.15-.043l-.312-.07-.331-.076a1.065 1.065 0 0 1-.243-.109.31.31 0 0 0-.013.007c-.023.012-.056.03-.097.03a4.798 4.798 0 0 0-.173-.027 2.048 2.048 0 0 1-.434-.095l-.1-.038c-.133-.052-.264-.103-.41-.084-.03.008-.054.002-.08-.004-.017-.004-.034-.008-.054-.008a.525.525 0 0 1-.037-.06c-.024-.043-.048-.086-.073-.086-.146.008-.258-.065-.368-.136a.885.885 0 0 0-.227-.119c-.055-.018-.103-.057-.152-.097s-.097-.079-.152-.097a1.958 1.958 0 0 1-.291-.16c-.155-.097-.31-.194-.499-.217a.907.907 0 0 1-.204-.06 1.3 1.3 0 0 0-.1-.037l.01.014.011.014c.026.035.047.064.076.093l-.024.025-.011-.007a40.611 40.611 0 0 0-.973-.564.214.214 0 0 1-.084-.055c-.013-.011-.025-.022-.038-.03l-.328-.22c-.036-.024-.11-.06-.11-.048-.06.07-.12.033-.166.004a4.879 4.879 0 0 0-.479-.288 3.872 3.872 0 0 1-.57-.36c-.045-.037-.093-.07-.141-.103a.951.951 0 0 1-.247-.213 1.914 1.914 0 0 0-.608-.474c-.182-.097-.352-.207-.523-.316-.085-.06-.17-.134-.17-.267 0-.085-.036-.17-.146-.122l-.02-.03c-.041-.064-.085-.131-.138-.152a.976.976 0 0 1-.288-.209l-.064-.059a1.506 1.506 0 0 1-.098-.098.63.63 0 0 0-.23-.18c-.21-.085-.347-.25-.474-.402a16.465 16.465 0 0 1-.786-1.017l-.235-.32a.256.256 0 0 0-.06-.057.453.453 0 0 1-.05-.04l-.011.012c.03.062.061.12.092.178.03.057.06.114.09.175a.17.17 0 0 1-.024.018.135.135 0 0 0-.025.018 3.3 3.3 0 0 0-.115-.127 4.358 4.358 0 0 1-.116-.128c-.012.012-.024.024-.036.024l.875 1.386c.036.054.07.108.103.163.033.055.067.11.104.165a.165.165 0 0 1-.05.036.478.478 0 0 1-.315-.23c-.11-.195-.231-.317-.474-.293a2.098 2.098 0 0 1-.06-.267c-.05 0-.086 0-.17-.012.17.267.315.498.473.766l-.06-.037a.637.637 0 0 0-.062-.036c.07.072.132.151.195.23.136.17.27.338.462.438.031.144.13.25.229.354.093.099.185.197.22.327a3.468 3.468 0 0 1-.085-.019l-.085-.018a8.135 8.135 0 0 0-.164-.196l-.152-.18a.614.614 0 0 0 .11.218l.077.098c.117.149.233.295.372.425.017.016.035.03.052.043.049.037.094.071.094.151.024-.024.048-.036.096-.06h.001a.767.767 0 0 0-.048.109c.026 0 .048.003.07.007.018.002.034.005.051.005a.22.22 0 0 1 .01.058c.008.06.014.118.124.1.012 0 .024.012.037.024.06.158.157.158.291.097.024-.012.085 0 .097.025.061.133.146.146.255.048 0 .032.004.065.007.095.003.027.006.053.006.076h.048c0-.01-.002-.021-.004-.035a.515.515 0 0 1-.008-.087.993.993 0 0 0 .06.046c.027.021.047.036.062.051l.015.022c.116.162.223.312.386.44.114.096.222.195.328.292.11.1.217.2.328.291.425.353.9.645 1.373.912.233.131.463.266.692.401.344.203.689.406 1.046.595.717.377 1.483.632 2.273.815.291.06.57.121.862.194.11.031.22.07.328.107.146.05.292.101.438.136.333.073.675.137 1.011.2h.002l.166.031.018.003.25.034v.024c.043 0 .09-.008.133-.015.065-.01.12-.02.134.003.047.075.086.063.136.048a.372.372 0 0 1 .046-.012c.085-.024.182-.024.28-.024.13.005.26.018.39.032.205.022.41.043.618.029a.344.344 0 0 0 .057-.008c.065-.011.14-.024.186.068.012-.006.021-.012.03-.018l.03-.018a.514.514 0 0 1 .08-.012.616.616 0 0 0 .079-.012v.024a.188.188 0 0 1-.05.014c-.014.003-.029.005-.047.01.06.012.097.024.133.037a.113.113 0 0 1-.043.028l-.018.008a.362.362 0 0 1-.018.008.424.424 0 0 0-.09.053c.437.085.85.097 1.215 0v-.073h.048a.17.17 0 0 0 .024.072 3.888 3.888 0 0 0 1.629-.206l.01.013.01.013c.04.054.075.103.138-.002.022-.033.076-.046.122-.057l.011-.003.066-.016c.094-.024.196-.05.275-.02.064.02.103-.004.141-.028a.164.164 0 0 1 .09-.033c.146 0 .28-.013.413-.037.043-.007.086-.023.132-.04.031-.011.064-.023.099-.033 0-.012 0-.024-.012-.036a2.009 2.009 0 0 0-.256-.024 11.5 11.5 0 0 1 .41-.193l.004-.002c0 .006.003.009.006.012.003.003.006.006.006.012a.13.13 0 0 0-.04.027c-.02.017-.04.034-.07.034h.17c-.022 0-.05.042-.081.092-.02.03-.041.063-.064.09l.657-.162.57-.142v-.024a.636.636 0 0 1-.06.011c-.022.004-.041.007-.061.014-.008-.154.09-.184.19-.216.067-.02.135-.042.174-.1a4.045 4.045 0 0 1-.364.097v-.025l.617-.27.634-.276c0 .006.003.009.006.012.003.003.007.006.007.012a2.565 2.565 0 0 1-.175.102 9.547 9.547 0 0 0-.08.044c.03.005.055.008.078.01.032.004.058.007.08.014 0 .036 0 .06-.013.073.145-.009.164-.1.184-.192a.401.401 0 0 1 .035-.112l.022.008c.033.012.07.026.1.016.087-.019.166-.046.25-.075l.065-.022h.003c.12-.037.242-.073.362-.121a4.75 4.75 0 0 0 .356-.18l.215-.112c.025-.008.06-.005.095-.003l.051.003c.036 0 .06-.024.085-.048.016-.013.032-.029.048-.044.032-.032.061-.062.086-.054.17.025.291-.036.34-.194.006 0 .01-.003.012-.006.003-.003.006-.007.012-.007l.002-.001c.06-.048.12-.096.18-.132l.4-.221.39-.217c.008-.008.021-.005.036-.003a.107.107 0 0 0 .025.003c.037 0 .085 0 .11-.012.158-.073.303-.158.45-.243-.012-.004-.016-.008-.02-.011-.01-.009-.019-.017-.102-.025v-.025c.12-.024.157-.036.23-.06l-.024-.025c.183-.182.394-.336.598-.486a5.74 5.74 0 0 0 .423-.328.91.91 0 0 1 .057.013.245.245 0 0 0 .065.011c.012-.036.012-.072.012-.097a3 3 0 0 0 .012-.016l.022-.027c.038-.05.077-.102.124-.139.104-.095.212-.184.32-.273.167-.139.334-.276.482-.432.352-.352.693-.717 1.009-1.094.291-.34.583-.68.826-1.057.31-.477.58-.964.856-1.46l.08-.144c.11-.195.213-.39.317-.585.103-.194.206-.388.315-.582.024-.036.073-.085.11-.085.157-.017.314-.032.47-.047.17-.016.337-.031.501-.05.061-.01.13-.046.194-.078l.037-.02c-.018-.03-.033-.063-.049-.097a.972.972 0 0 0-.048-.097.902.902 0 0 0-.085-.104 1.153 1.153 0 0 1-.205-.307l-.002-.002a1.911 1.911 0 0 0-.055-.086 2.26 2.26 0 0 1-.054-.084l-.002-.005a4.3 4.3 0 0 1-.21-.423c-.012-.036-.03-.087-.019-.119.114-.247.192-.505.27-.762.07-.235.142-.47.24-.696.164-.386.236-.81.308-1.23.018-.109.037-.218.057-.326.064-.373.107-.747.15-1.12l.044-.375.03-.274c.03-.257.059-.51.068-.77.065-.498.053-.966.04-1.431l-.004-.174ZM11.433 36.624a2.814 2.814 0 0 1-.12-.15 2.959 2.959 0 0 0-.123-.153l.037-.037.008.01c.131.142.262.285.393.44l-.062-.028c-.055-.024-.106-.046-.133-.082Zm.195.11a.262.262 0 0 1 .054-.012.348.348 0 0 0 .055-.012.98.98 0 0 1 .057.117c.012.03.025.06.04.09-.17-.013-.255-.086-.206-.183Zm12.638 5.019v-.036l.321-.035h.002l.358-.038v.036c-.23.037-.45.06-.68.073Zm3.063-.316c-.15.032-.31.055-.463.077l-.06.008-.042.013c-.049.018-.097.036-.116-.05a.172.172 0 0 1-.036.013.165.165 0 0 0-.036.012c.036.108.102.1.175.092.05-.006.104-.012.153.017-.126.017-.248.032-.37.046-.137.016-.272.032-.408.052v-.025a9.56 9.56 0 0 1 .116-.018l.115-.018v-.037a3.631 3.631 0 0 0-.365-.024c-.021 0-.047.017-.072.033a.241.241 0 0 1-.05.028.614.614 0 0 1-.157.024c-.102.006-.203.01-.302.012a9.477 9.477 0 0 0-.306.012.092.092 0 0 1-.024-.006c-.01-.003-.018-.006-.024-.006v-.036a1594.29 1594.29 0 0 0 2.43-.328c.006.012.01.024.012.036a.17.17 0 0 0 .012.037.423.423 0 0 0-.124.021.917.917 0 0 1-.058.015Zm.182-.121c.13-.018.255-.032.378-.046.142-.016.281-.032.424-.052-.559.158-.74.182-.802.097ZM17.353 16.197c.251-.342.504-.686.752-1.034.06-.08.115-.16.17-.243.055-.082.11-.164.17-.243.025-.033.056-.055.092-.081l.054-.04-.012-.025.043-.052c.032-.038.061-.072.079-.106a1.45 1.45 0 0 0 .105-.221l.04-.095a.172.172 0 0 1 .049-.049c.122.061.156-.015.189-.085a.25.25 0 0 1 .042-.073c.11-.121.219-.255.316-.377l.05-.066c.056-.072.11-.141.156-.225.009-.024-.005-.06-.018-.095a.39.39 0 0 1-.018-.051h-.036a.508.508 0 0 0 .054-.043.67.67 0 0 1 .055-.042l.01-.001c.004-.001.007-.004.014-.011l.004-.006c.072-.107.143-.215.215-.31.146-.195.304-.39.474-.56v.003c-.025.06-.049.12-.073.168.006 0 .01.003.012.006.003.003.006.006.012.006.073-.097.15-.191.225-.286.076-.094.152-.188.225-.285-.013-.013-.025-.024-.036-.024-.03.03-.058.06-.085.09-.028.031-.055.062-.086.092-.012-.013-.024-.024-.036-.024a8.18 8.18 0 0 0 .364-.499c.025.037.05.085.098.183.029-.073.058-.132.084-.186l.05-.106-.061.055a.834.834 0 0 0-.061.054l-.037-.036.22-.328.346-.498c.115-.168.23-.335.346-.499.037-.053.08-.102.121-.15.053-.062.105-.122.146-.19.142-.283.333-.53.525-.775.12-.156.242-.312.35-.477.046-.064.106-.121.163-.177l.056-.054c.06-.073.11-.048.158.012.164.207.328.417.492.626a53.05 53.05 0 0 0 .663.838v.001c.186.23.37.457.546.699.14.194.277.389.413.583.137.195.274.389.414.583a106.369 106.369 0 0 1 1.616 2.382c.225.34.45.68.68 1.021l.297.432c.24.35.48.697.712 1.05h-.62a18.19 18.19 0 0 1-.57-.02 13.711 13.711 0 0 0-1.155-.016c-.523.025-1.05.071-1.576.117-.258.023-.514.046-.77.066-.984.085-1.98.097-2.965.097-.235 0-.47.021-.706.043-.117.01-.234.022-.351.03l-.066.003a40.01 40.01 0 0 1-1.198.058 61.19 61.19 0 0 1-1.483.048 9.829 9.829 0 0 1-.571.003 15.18 15.18 0 0 0-.304-.003c.141-.194.284-.387.427-.582Zm13.512 6.172v.11h-.006l-.01.004a.08.08 0 0 1-.032.008l-.026-.09a6.732 6.732 0 0 0-.132-.433c-.122-.352-.255-.705-.474-1.02-.139-.195-.27-.393-.401-.592-.1-.15-.2-.302-.304-.454a1.357 1.357 0 0 0-.163-.177 3.608 3.608 0 0 1-.056-.054 28.504 28.504 0 0 1-.05-.056h-.002c-.238-.262-.48-.529-.786-.721a9.964 9.964 0 0 0-1.52-.778 3.537 3.537 0 0 1-.425-.219h.292l2.078-.036.445-.01c.297-.005.592-.01.892-.027.11 0 .17.037.23.134l.005.006c.108.18.216.36.336.54l.008.015c.012.023.029.053.029.083 0 .267 0 .547.012.814.006.14.015.276.024.413.01.137.018.274.024.414a9.9 9.9 0 0 1-.007.337 7.06 7.06 0 0 0-.005.525c.012.414.024.839.024 1.264ZM17.79 18.3c.291-.013.576-.029.86-.044.272-.015.543-.03.817-.042.22-.012.443-.021.666-.03.22-.01.441-.019.659-.03l.01-.001c.178-.012.346-.024.525 0-.195.098-.39.195-.56.316-.122.082-.24.178-.359.275a5.955 5.955 0 0 1-.285.224 3.687 3.687 0 0 0-.595.559 8.943 8.943 0 0 1-.453.496c-.092.097-.185.193-.276.294-.057.064-.116.128-.176.192a3.698 3.698 0 0 0-.335.39c-.185.241-.351.5-.524.771v.001l-.059.092.017-.329c.056-1.043.112-2.079.068-3.135Zm7.936 11.69-.154.039c-.34.086-.689.174-1.037.216-.283.04-.575.04-.868.037h-.177c-.316 0-.62-.012-.936-.037-.352-.036-.705-.073-1.045-.23-.109-.05-.219-.098-.33-.146-.186-.082-.374-.164-.557-.256-.292-.145-.584-.316-.802-.583a2.919 2.919 0 0 0-.41-.386 8.14 8.14 0 0 1-.162-.137l-.078-.151a6.7 6.7 0 0 1-.08-.152 9.96 9.96 0 0 1-.28-.486.28.28 0 0 1-.023-.055.217.217 0 0 0-.025-.055l-.001-.002a2.63 2.63 0 0 1-.257-.355 2.762 2.762 0 0 0-.216-.311c0 .017.003.034.006.052a.43.43 0 0 1 .006.07c-.012 0-.024.011-.024.011l-.255-.62c-.012 0-.012 0-.024.013l.219.802a.043.043 0 0 0-.019.006.042.042 0 0 1-.018.006.69.69 0 0 1-.097-.158c-.025-.097-.097-.097-.158-.06-.037.024-.061.109-.049.145.085.206.181.411.278.617l.002.003a1.5 1.5 0 0 0 .085.207c.004.008.01.016.018.025.015.017.03.036.03.06.015.028.027.056.04.084.032.068.063.135.106.195.055.073.113.146.17.219a5.872 5.872 0 0 1 .391.542l.083.126c.008.015.024.021.039.026.01.003.017.006.022.01.06.183.267.317.413.244.02.156.125.256.234.36.086.082.175.166.228.284a5.542 5.542 0 0 1-.352-.158.064.064 0 0 0-.015.025l-.01.024c.146.072.292.145.426.23.121.073.243.146.352.231.146.134.316.207.523.256-.013-.037-.025-.05-.025-.05.34.159.693.329.96.463l-4.01.073c0-.116-.003-.228-.006-.34a12.65 12.65 0 0 1-.006-.34c0-.04.004-.077.008-.114.005-.055.011-.108.004-.166-.012-.186-.02-.371-.028-.556-.017-.373-.033-.744-.081-1.11-.073-.583-.073-1.154-.061-1.737a8.511 8.511 0 0 0-.014-.726l-.01-.234c0-.426 0-.839.012-1.264 0-.052.018-.095.038-.145l.01-.025h.037c.005.01.006.02.006.032.002.017.003.033.018.04.037.037.097.098.122.086l.053-.033c.064-.039.134-.081.153-.137.06-.146.085-.304.085-.45 0-.11.049-.182.097-.255a.49.49 0 0 0 .04-.075 1.38 1.38 0 0 1 .021-.047.993.993 0 0 0-.063-.043 1.039 1.039 0 0 1-.095-.066.94.94 0 0 0 .028-.098c.026-.106.052-.211.191-.267.016-.008.022-.038.027-.067.003-.015.005-.03.01-.042l.018-.152.018-.152a.384.384 0 0 0 .06.073c.013-.024.025-.037.025-.037l-.003-.059c-.002-.043-.005-.086.003-.086.089-.015.101-.08.113-.144.008-.041.016-.083.045-.112.007-.007.002-.022-.004-.038a.119.119 0 0 1-.008-.034c0-.025 0-.061.012-.061.101-.022.134-.095.166-.169.023-.05.045-.1.09-.135.022-.015.035-.035.053-.062a.83.83 0 0 1 .044-.06c.062.11.014.183-.03.254a.294.294 0 0 0-.056.123c.207-.121.268-.413.146-.498a.693.693 0 0 0 .134-.134 6.54 6.54 0 0 1 .163-.17c.083-.084.165-.168.238-.255.042-.055.076-.116.11-.176.033-.061.066-.122.109-.177a.689.689 0 0 1 .218-.145c.22-.122.426-.256.56-.462a.664.664 0 0 1 .097-.073c.014-.01.034-.015.053-.021.03-.009.06-.018.068-.04.012-.024-.024-.085-.048-.121.02-.01.04-.025.064-.041a.95.95 0 0 1 .13-.081c-.02.04-.033.073-.044.102a.78.78 0 0 1-.029.068l.06.06a3.27 3.27 0 0 1 .258-.17l.132-.084c0-.012-.061-.061-.061-.061l-.073.038c-.064.033-.141.073-.219.108a.218.218 0 0 0 .024-.049.066.066 0 0 1 .013-.024c.17-.11.34-.219.522-.304.426-.195.851-.389 1.276-.571.053-.026.117-.021.18-.016.026.002.051.004.076.004.036 0 .06 0 .097-.012.194-.061.389-.122.583-.17a.983.983 0 0 1 .267-.037l.364.01c.243.005.487.01.73.027.158.012.304.048.45.097.182.06.377.146.547.23.206.11.4.231.595.365.137.09.27.182.4.275.21.146.417.291.633.418.34.207.608.486.827.802.05.071.102.141.154.21.221.3.44.594.538.969l.183.802c.01.04.023.08.037.12.036.107.074.218.048.342-.054.27-.099.548-.142.82l-.01.061-.006.042c-.024.122-.049.243-.037.365.024.366-.114.687-.255 1.018l-.012.027a2.155 2.155 0 0 1-.098.186c-.029.05-.058.1-.084.154a.368.368 0 0 0 .097.049l.11-.219.01.001c.003.001.006.004.014.011-.03.085-.058.174-.086.262a6.642 6.642 0 0 1-.085.26l-.04.106c-.133.343-.268.694-.433 1.025a1.988 1.988 0 0 1-.228.346c-.056.074-.113.147-.162.225a4.824 4.824 0 0 0-.152.232 3.4 3.4 0 0 1-.188.279 1.745 1.745 0 0 1-.364.364 9.339 9.339 0 0 1-1.021.68c-.219.134-.474.207-.717.268Zm-6.478-1.483a.573.573 0 0 0 .256.353c-.061.073-.146.036-.268-.158a.443.443 0 0 1-.097.049l.002-.005a4.82 4.82 0 0 1 .107-.239Zm0 .839-.012.012-.018-.008a.219.219 0 0 1-.067-.04l-.291-.438a.141.141 0 0 1-.025-.121c.134.206.268.4.413.595Zm7.56 1.665c.546-.231.996-.56 1.41-.936.06-.06.12-.121.194-.17.51-.316.887-.753 1.227-1.24.266-.381.469-.797.672-1.212.094-.193.188-.385.288-.574a1.32 1.32 0 0 1 .073-.134c-.024 1.386.134 2.747.316 4.12-1.373.049-2.77.097-4.18.146Zm12.322-.365c-.006.012-.015.024-.024.037a.251.251 0 0 0-.024.036.198.198 0 0 1-.014-.055c-.003-.016-.005-.034-.01-.054-.056.147-.16.127-.255.109a.47.47 0 0 0-.086-.012c-.656.012-1.324.012-1.98.012h-.001c-.632 0-1.276 0-1.908.012-.118 0-.241.017-.363.032-.09.012-.18.024-.269.03-.498.024-.996.036-1.494.048-.023 0-.046-.024-.074-.053a.628.628 0 0 0-.06-.056.799.799 0 0 1-.073.109c-.007-.014-.018-.027-.03-.043a.967.967 0 0 1-.03-.042.848.848 0 0 1-.037.097h-.037a3.297 3.297 0 0 0-.03-.172 1.675 1.675 0 0 1-.043-.326c0-.22.013-.438.027-.657.008-.146.017-.291.022-.437a3.36 3.36 0 0 0 .003-.329l-.003-.157.067.049.067.048c.024-.048.048-.084.072-.12v-.002s-.024-.012-.048-.036c.024-.012.048-.036.048-.048.005-.015.012-.03.018-.043a.154.154 0 0 0 .019-.055.745.745 0 0 0-.023-.163 1.432 1.432 0 0 1-.014-.068c.013 0 .025 0 .037-.012l.073.365h.036c-.02-.035-.005-.068.01-.102.022-.047.045-.096-.034-.154-.007-.007-.002-.035.004-.064a.337.337 0 0 0 .008-.057 1.8 1.8 0 0 1-.075-.184 9.042 9.042 0 0 0-.022-.059.293.293 0 0 1 .085-.036 1.306 1.306 0 0 1-.047-.026c-.027-.014-.05-.027-.075-.035.122-.11.122-.17.013-.292.009-.005.018-.007.026-.01.013-.004.022-.007.022-.014 0-.11 0-.219-.024-.328-.006-.032-.007-.065-.008-.098-.001-.095-.003-.189-.138-.242a.489.489 0 0 0 .008.021l-.004.005h.006c.01.024.021.044.039.07 0 0-.037.013-.073.037-.103-.095-.098-.21-.091-.34.003-.07.006-.143-.006-.219.084.024.144.048.204.072h.002c-.012-.042-.034-.088-.057-.137a1.407 1.407 0 0 1-.064-.154h-.049v-.802c0 .007.028.01.06.014a.53.53 0 0 1 .074.01c0-.006.003-.012.006-.018a.043.043 0 0 0 .006-.018 1.976 1.976 0 0 0-.066-.08 2.045 2.045 0 0 1-.068-.078l.025-.024c-.08-.1-.062-.234-.052-.298l.003-.03v-.851c.056.056.047.119.04.178-.009.07-.017.135.081.174V24.4h-.012a8.145 8.145 0 0 1-.012-.275 8.252 8.252 0 0 0-.012-.272h-.024a.133.133 0 0 0-.012.03.212.212 0 0 1-.013.03h-.024l.073-2.904c.033.044.068.086.102.128.09.111.177.22.238.334.215.391.479.74.744 1.09.08.106.161.212.24.32.22.302.427.625.63.943.066.104.131.207.197.308.164.25.324.498.485.746.161.25.323.5.487.75.243.376.498.753.754 1.117.23.328.474.644.717.96.103.14.21.281.317.421.106.14.212.279.315.418l.011.016c.24.335.479.67.718.993.121.17.255.34.389.51.056.074.133.135.199.186.02.016.039.03.056.045-.012 0-.024 0-.049-.012l.027.036c.023.03.04.055.058.073.134.073.146.146.073.255Zm.62-3.038v-.085a.2.2 0 0 0 .003.026c.002.02.005.043-.003.06Zm.413-5.36a.611.611 0 0 1-.097-.084.176.176 0 0 0-.007.045.18.18 0 0 1-.017.076c-.006-.017-.03-.024-.052-.03-.023-.006-.045-.012-.045-.03a.915.915 0 0 0 .03.255.92.92 0 0 1 .03.255.386.386 0 0 1 .09-.028c.052-.011.108-.024.129-.045a.092.092 0 0 0 .049.024c-.243.183-.183.365-.073.572a.548.548 0 0 0 .011.02c.03.053.077.138.013.223-.017.016-.005.056.009.1.005.019.012.039.015.058h.037v.024l-.11.036a.303.303 0 0 0-.06-.05c-.05-.037-.11-.08-.11-.12v.62c.084.025.11.113.134.193.01.037.021.072.037.099a.365.365 0 0 0 .048-.098l.012.013v.002a1.405 1.405 0 0 1-.048.216l-.012.05c-.02.09-.039.174-.05.266 0 .006.007.015.013.025.006.009.012.018.012.024-.084.191-.086.397-.088.602-.002.12-.003.24-.021.358-.02.126-.018.255-.016.386.001.11.003.22-.008.33a5.81 5.81 0 0 1-.122.633c-.012.036-.037.049-.097.073a.978.978 0 0 0-.012-.377.783.783 0 0 1-.092-.042.763.763 0 0 0-.09-.043c0 .105.036.232.073.36.023.08.046.16.06.236-.019-.007-.067-.033-.11-.056-.042-.022-.079-.042-.084-.042-.017.096-.022.213-.027.327a5.494 5.494 0 0 1-.01.172c-.006.058-.035.114-.064.172a.548.548 0 0 0-.07.192c0 .03.015.057.032.086.022.04.048.086.041.157h.098c0-.12.026-.234.053-.35.028-.118.056-.238.056-.367h.036a.14.14 0 0 0 .021.028c.013.014.023.026.016.033a2.847 2.847 0 0 1-.023.11c-.023.102-.047.206-.038.303 0 .03.01.06.02.09.015.044.031.09.017.141a1.182 1.182 0 0 0-.049.255l-.013-.056a.244.244 0 0 1-.011-.065.674.674 0 0 1-.067-.006l-.048-.005a.29.29 0 0 0-.02-.001c-.005.037.018.075.04.111.02.034.04.066.034.095-.008.008-.015.01-.026.015a.227.227 0 0 0-.023.01l-.4-.584h-.001c-.316-.462-.632-.924-.948-1.397a2.901 2.901 0 0 1-.218-.365 17.144 17.144 0 0 0-1.252-1.86 11.883 11.883 0 0 1-.61-.881 20.169 20.169 0 0 0-.35-.528 96.69 96.69 0 0 0-.456-.668c-.152-.222-.304-.444-.456-.669a3.87 3.87 0 0 0-.13-.162 2.378 2.378 0 0 1-.21-.275 27.67 27.67 0 0 1-.456-.754c-.149-.252-.297-.504-.455-.753-.195-.3-.402-.595-.608-.887a68.556 68.556 0 0 1-.523-.754.175.175 0 0 1-.024-.085c-.024-.267-.049-.535-.06-.79 0-.12.005-.24.011-.362a7.58 7.58 0 0 0 .013-.38v-.218c0-.03.003-.058.006-.085a.734.734 0 0 0 .006-.085.166.166 0 0 0 .018-.024.178.178 0 0 1 .018-.025l-.354-.002a15.77 15.77 0 0 0-.715.002c-.231.012-.353-.085-.51-.255-.308-.348-.562-.729-.816-1.11-.127-.19-.254-.38-.388-.567a74.26 74.26 0 0 0-1.154-1.58l-.478-.637-.47-.627c-.118-.162-.234-.324-.35-.486a55.585 55.585 0 0 0-.708-.972c-.437-.583-.887-1.167-1.336-1.75-.13-.167-.268-.33-.41-.496a29.42 29.42 0 0 1-.259-.306l.063.01c.134.02.26.04.387.05l.583.037c.11.01.222.018.332.026.327.025.654.05.98.095.23.031.46.071.691.112a15.648 15.648 0 0 1 2.773.678c.367.12.725.27 1.081.42a56 56 0 0 0 .244.103c.984.401 1.92.887 2.844 1.398.218.117.368.29.52.466.053.06.105.12.16.178l.006.005c.314.327.628.653.93.991.26.297.508.6.757.906l.264.322c.15.18.305.362.459.543.156.184.312.367.464.55.065.073.12.157.173.24.027.042.054.084.083.125.06.09.121.177.183.266.14.2.282.402.4.621.096.182.162.388.227.591l.053.163c.061.191.123.38.185.569l.18.549c.084.28.157.57.218.862.022.089.032.18.041.271.012.11.023.22.056.325.036.128.036.261.036.395s0 .267.037.395l.018.042.018.043c.049.049.086.097.013.17-.013.012-.013.06 0 .097a.291.291 0 0 0 .043-.058l.017-.027c0 .014.005.025.008.033.002.006.005.01.005.016l-.003.049a.288.288 0 0 0 .002.097c0 .018.015.044.027.065l.01.02a.35.35 0 0 1 .05-.04c.008-.005.017-.01.026-.018l.021-.015c.11.413.122.826.122 1.252 0 .092.004.185.008.277.012.308.025.615-.105.914.018-.068.005-.132-.007-.195a.374.374 0 0 1-.006-.182Z" clip-rule="evenodd"/><path d="M34.357 39.02a1.142 1.142 0 0 1-.438.22c-.006-.007-.009-.013-.012-.019a.063.063 0 0 0-.012-.018c.067-.043.137-.085.207-.128a9.3 9.3 0 0 0 .206-.127.253.253 0 0 0 .025.036.212.212 0 0 1 .024.037ZM11.57 22.553c.134-.17.268-.34.414-.51a.268.268 0 0 0 .06.024c.028.01.055.019.061.025l-.038.048c-.129.164-.29.37-.412.535-.01-.01-.023-.033-.036-.055-.017-.03-.035-.06-.049-.067Zm-3.599 5.636-.144-.313a.437.437 0 0 1 .11-.048c.087.127.144.27.2.412.029.074.058.149.091.22 0 0-.097.048-.109.048-.05-.104-.098-.212-.148-.32Zm3.247-5.514c-.037.055-.073.112-.11.17a7.987 7.987 0 0 1-.109.17c-.006-.006-.042.006-.079.018-.036.013-.073.025-.079.019.037-.055.1-.13.164-.207a2.81 2.81 0 0 0 .164-.206.165.165 0 0 0 .049.036Zm21.838 16.844c.007 0 .01-.003.013-.006.003-.003.006-.006.012-.006.085.012.182.024.28.024-.159.11-.256.097-.305-.012ZM11.242 23.186c.012-.037.037-.073.06-.11h.001a.25.25 0 0 0 .06-.012.598.598 0 0 0 .048-.109.448.448 0 0 1 .05-.11.06.06 0 0 0-.018-.012c-.006-.003-.012-.006-.018-.012a1.882 1.882 0 0 0-.11.079 2.363 2.363 0 0 1-.11.079c.025.024.025.036.025.06-.097-.011-.134.037-.182.17-.007.022-.03.035-.061.052a.487.487 0 0 0-.073.046.399.399 0 0 0-.018.054c-.008.027-.018.06-.03.092l.012.012a.18.18 0 0 1-.061.037c-.036.036-.076.07-.115.103-.04.033-.08.067-.116.103a.352.352 0 0 0-.024.11l.091-.094a5.09 5.09 0 0 1 .25-.247l.011.012c.024-.036.046-.073.067-.11.021-.036.043-.072.067-.108a.062.062 0 0 1 .012.018c.003.006.006.012.012.018l-.056.155-.053.149-.02.01c-.02.012-.04.023-.04.014a.637.637 0 0 0-.068.061.63.63 0 0 1-.067.06l-.218.146a8.184 8.184 0 0 1-.313.264l-.064.052-.103.159c-.052.079-.106.16-.165.255.146-.037.183.024.17.145.139.02.173-.064.207-.149a.763.763 0 0 1 .024-.057l.01-.024c.01-.024.021-.052.04-.061a3.27 3.27 0 0 1 .22-.177l.132-.103c.024-.024.024-.073.024-.11 0-.006-.02-.009-.044-.013a.342.342 0 0 1-.053-.01c.072-.081.167-.2.254-.31.044-.055.086-.108.123-.152.06-.037.121-.085.121-.122-.01-.113.05-.157.127-.197-.056.265-.219.491-.382.537.049.025.097.05.133.037.028-.01.048-.045.067-.078a.525.525 0 0 1 .018-.031l.329-.474.109-.183-.049-.048a4.442 4.442 0 0 1-.072.121 4.44 4.44 0 0 0-.074.122l-.042-.022.006-.002c-.049-.037-.06-.073-.06-.085Zm-3.715 5.206a.897.897 0 0 0-.089-.005c-.012.012.037.085.05.097h.254a.743.743 0 0 0-.006-.085.756.756 0 0 1-.006-.085h-.036c0 .024-.015.033-.03.043-.016.009-.031.018-.031.042a.87.87 0 0 1-.106-.007Zm-.221-.595c.012.01.025.02.035.03 0-.011.012-.024.025-.036-.013-.042-.022-.082-.031-.122a2.39 2.39 0 0 0-.03-.12c-.037.06-.073.12-.061.17 0 .025.031.051.062.078Zm.413-.557-.074-.19a.3.3 0 0 0-.11.049l.08.19c.028.063.055.126.079.186a.365.365 0 0 1 .097-.048l-.072-.187Zm27.127 11.387a.98.98 0 0 0-.149.041l-.036.066a1.293 1.293 0 0 0-.037.068c.012 0 .024.012.037.024.057-.058.123-.108.202-.169l.065-.05-.082.02Z"/></g></svg>