<svg xmlns="http://www.w3.org/2000/svg" fill="none" aria-hidden="true" viewBox="0 0 48 48"><path fill="#000" d="M41.366 27.565c-.21-.636-.76-1.079-1.47-1.185-.336-.05-.72-.028-1.174.065-.792.163-1.38.226-1.809.238 1.619-2.733 2.935-5.849 3.693-8.782 1.224-4.743.57-6.903-.195-7.88-2.025-2.588-4.978-3.977-8.542-4.02-1.9-.023-3.57.352-4.44.622a16.55 16.55 0 0 0-2.596-.238c-1.714-.027-3.229.347-4.523 1.115a20.644 20.644 0 0 0-3.194-.802c-3.123-.513-5.64-.113-7.482 1.187-2.23 1.575-3.263 4.311-3.072 8.133.061 1.213.74 4.905 1.808 8.406.615 2.012 1.27 3.683 1.947 4.967.96 1.82 1.989 2.893 3.143 3.278.647.215 1.822.366 3.058-.663.157.19.366.378.643.553.353.222.784.404 1.214.512 1.55.387 3.003.29 4.242-.253.008.22.014.43.019.613.008.295.016.584.027.854.073 1.829.198 3.25.566 4.245.02.055.048.139.076.227.184.563.492 1.506 1.274 2.244.81.765 1.79 1 2.688.999.45 0 .88-.059 1.256-.14 1.343-.288 2.868-.726 3.97-2.297 1.043-1.484 1.55-3.72 1.642-7.245l.034-.285.022-.186.245.021.063.004c1.368.063 3.04-.227 4.067-.704.812-.377 3.412-1.75 2.8-3.603Z"/><path fill="#336791" d="M39.028 27.925c-4.067.84-4.346-.538-4.346-.538 4.293-6.37 6.088-14.457 4.539-16.436-4.225-5.398-11.54-2.845-11.662-2.779l-.039.007a14.5 14.5 0 0 0-2.713-.282c-1.84-.03-3.235.482-4.294 1.285 0 0-13.048-5.375-12.441 6.76.129 2.582 3.7 19.535 7.96 14.414 1.556-1.872 3.06-3.455 3.06-3.455a3.95 3.95 0 0 0 2.58.658l.073-.062c-.023.233-.012.46.03.73-1.098 1.226-.776 1.44-2.97 1.892-2.22.458-.915 1.272-.064 1.485 1.032.258 3.42.624 5.034-1.635l-.065.258c.43.344.732 2.24.681 3.958-.05 1.719-.084 2.899.255 3.82.339.922.676 2.995 3.56 2.377 2.41-.516 3.658-1.854 3.832-4.086.123-1.587.402-1.353.42-2.771l.224-.672c.258-2.151.04-2.845 1.525-2.522l.361.031c1.093.05 2.523-.175 3.362-.565 1.807-.84 2.88-2.24 1.097-1.872Z"/><path fill="#fff" d="M21.276 17.097c-.366-.051-.698-.004-.866.123a.317.317 0 0 0-.131.212c-.021.15.084.318.15.404.183.244.452.411.718.448a.826.826 0 0 0 .115.008c.444 0 .848-.345.883-.6.045-.32-.42-.533-.869-.595Zm12.14.01c-.035-.25-.481-.322-.904-.263-.422.059-.831.25-.797.5.027.195.38.529.797.528.035 0 .07-.002.106-.007.279-.038.483-.215.58-.317.148-.155.233-.328.218-.441Z"/><path fill="#fff" d="M40.38 27.83c-.154-.469-.653-.62-1.483-.448-2.461.508-3.343.156-3.632-.058 1.913-2.915 3.487-6.438 4.336-9.726.403-1.557.625-3.003.643-4.182.02-1.294-.2-2.245-.655-2.826-1.832-2.341-4.521-3.597-7.777-3.632-2.238-.025-4.129.548-4.496.709a11.207 11.207 0 0 0-2.53-.325c-1.68-.027-3.132.375-4.334 1.195a19.36 19.36 0 0 0-3.523-.924c-2.854-.46-5.121-.111-6.74 1.035-1.93 1.369-2.822 3.814-2.65 7.269.059 1.162.72 4.738 1.766 8.162 1.376 4.507 2.871 7.059 4.445 7.584.184.061.396.104.63.104.574 0 1.278-.259 2.01-1.139a72.378 72.378 0 0 1 2.77-3.135 4.463 4.463 0 0 0 1.994.536l.005.055c-.14.165-.254.31-.352.434-.481.611-.582.738-2.132 1.058-.44.09-1.612.332-1.629 1.153-.019.897 1.384 1.273 1.544 1.313.557.14 1.094.209 1.606.209 1.244 0 2.34-.41 3.215-1.2-.027 3.197.106 6.347.49 7.307.315.786 1.083 2.707 3.51 2.707.355 0 .747-.042 1.178-.134 2.533-.543 3.632-1.662 4.058-4.13.227-1.318.618-4.468.802-6.157.387.121.887.177 1.426.177 1.126 0 2.425-.24 3.24-.618.914-.424 2.565-1.467 2.266-2.373Zm-6.03-11.414c-.008.499-.077.951-.15 1.424-.078.508-.159 1.034-.18 1.671-.02.621.058 1.267.133 1.89.152 1.261.307 2.559-.295 3.84a4.981 4.981 0 0 1-.266-.549c-.075-.18-.237-.472-.462-.875-.875-1.57-2.924-5.244-1.875-6.743.312-.446 1.105-.905 3.095-.658Zm-2.412-8.448c2.917.064 5.224 1.156 6.858 3.243 1.253 1.601-.127 8.887-4.121 15.173l-.121-.153-.05-.063c1.031-1.705.83-3.391.65-4.887-.074-.613-.144-1.193-.126-1.737.018-.577.095-1.072.168-1.55.091-.59.183-1.2.158-1.92a.795.795 0 0 0 .017-.27c-.065-.69-.853-2.755-2.458-4.623-.878-1.022-2.159-2.166-3.907-2.937.752-.156 1.78-.302 2.932-.276ZM15.616 29.984c-.807.97-1.364.784-1.547.723-1.194-.398-2.579-2.921-3.8-6.922-1.057-3.462-1.674-6.942-1.723-7.919-.154-3.086.594-5.238 2.224-6.394 2.653-1.882 7.015-.755 8.768-.184l-.077.073c-2.876 2.905-2.807 7.867-2.8 8.17 0 .118.01.284.023.512.05.834.141 2.388-.105 4.147-.229 1.635.275 3.235 1.383 4.39.114.12.234.232.357.338a73.85 73.85 0 0 0-2.703 3.066Zm3.073-4.101c-.892-.931-1.297-2.226-1.112-3.553.26-1.859.164-3.478.112-4.347l-.017-.313c.42-.372 2.367-1.416 3.756-1.097.634.145 1.02.576 1.18 1.319.831 3.842.11 5.444-.469 6.73-.12.265-.232.516-.328.775l-.075.2c-.19.508-.365.979-.474 1.426-.948-.003-1.871-.408-2.573-1.14Zm.146 5.182a2.226 2.226 0 0 1-.672-.29c.122-.057.339-.135.716-.212 1.823-.376 2.105-.64 2.72-1.422.14-.179.3-.382.522-.629.33-.37.48-.307.754-.193.222.091.438.37.525.675.042.144.088.419-.064.632-1.285 1.798-3.157 1.775-4.501 1.439Zm9.543 8.88c-2.23.479-3.02-.66-3.541-1.96-.336-.841-.501-4.63-.384-8.813a.502.502 0 0 0-.022-.16 2.103 2.103 0 0 0-.062-.295c-.174-.609-.599-1.118-1.108-1.33-.203-.083-.574-.237-1.02-.123.095-.392.26-.834.439-1.314l.075-.202c.085-.227.19-.463.303-.712.606-1.347 1.436-3.19.535-7.358-.337-1.56-1.464-2.322-3.172-2.145-1.025.106-1.962.52-2.429.756-.1.051-.192.1-.278.148.13-1.572.623-4.51 2.466-6.37 1.161-1.17 2.707-1.749 4.59-1.717 3.71.06 6.09 1.965 7.433 3.552 1.158 1.367 1.784 2.745 2.034 3.487-1.88-.19-3.16.18-3.808 1.108-1.41 2.016.772 5.93 1.82 7.81.193.345.36.643.411.77.342.827.784 1.38 1.107 1.784.099.123.195.243.268.348-.57.164-1.593.543-1.5 2.44-.075.951-.61 5.407-.881 6.981-.359 2.08-1.124 2.854-3.276 3.316ZM37.69 29.29c-.583.27-1.557.473-2.483.516-1.023.048-1.544-.114-1.666-.214-.058-1.182.382-1.306.848-1.436.073-.02.144-.04.213-.065.043.035.09.07.141.103.822.543 2.288.602 4.358.174l.023-.004c-.28.26-.757.611-1.434.925Z"/></svg>