<svg xmlns="http://www.w3.org/2000/svg" fill="none" aria-hidden="true" viewBox="0 0 48 48"><path fill="#FF6C37" d="M41.853 26.286c1.26-9.863-5.705-18.879-15.55-20.139-9.844-1.26-18.896 5.705-20.156 15.55-1.26 9.844 5.705 18.878 15.55 20.156 9.862 1.26 18.878-5.705 20.156-15.567Z"/><path fill="#fff" d="m30.497 17.557-7.595 7.595-2.141-2.142c7.468-7.468 8.206-6.82 9.736-5.453Z"/><path fill="#FF6C37" d="M22.902 25.332a.163.163 0 0 1-.126-.054l-2.16-2.142a.174.174 0 0 1 0-.252c7.595-7.594 8.387-6.875 9.989-5.435a.163.163 0 0 1 .054.126c0 .054-.018.09-.054.126l-7.595 7.577c-.018.036-.072.054-.108.054Zm-1.89-2.322 1.89 1.89 7.325-7.325c-1.332-1.188-2.232-1.547-9.215 5.435Z"/><path fill="#fff" d="m25.08 27.33-2.07-2.07 7.595-7.595c2.034 2.052-1.008 5.381-5.525 9.665Z"/><path fill="#FF6C37" d="M25.08 27.51a.163.163 0 0 1-.126-.055l-2.07-2.07c-.036-.035-.036-.071-.036-.125 0-.054.018-.09.054-.126l7.595-7.595a.174.174 0 0 1 .252 0 2.19 2.19 0 0 1 .702 1.674c-.036 1.998-2.304 4.535-6.227 8.242a.287.287 0 0 1-.144.055Zm-1.818-2.25c1.152 1.17 1.638 1.638 1.818 1.818 3.023-2.88 5.957-5.831 5.975-7.865a1.918 1.918 0 0 0-.468-1.296l-7.325 7.343Z"/><path fill="#fff" d="m20.797 23.064 1.53 1.53c.035.036.035.072 0 .108-.019.018-.019.018-.037.018l-3.167.684a.315.315 0 0 1-.342-.252.266.266 0 0 1 .072-.234l1.836-1.836c.036-.036.09-.054.108-.018Z"/><path fill="#FF6C37" d="M19.069 25.584a.469.469 0 0 1-.468-.486c0-.126.054-.252.144-.342l1.836-1.836a.274.274 0 0 1 .36 0l1.53 1.53c.107.09.107.252 0 .36a.29.29 0 0 1-.127.072l-3.167.684c-.036 0-.072.018-.108.018Zm1.674-2.322-1.764 1.764c-.036.036-.054.09-.018.144.018.054.072.072.126.054l2.97-.648-1.314-1.314Z"/><path fill="#fff" d="M34.51 13.346a2.907 2.907 0 0 0-4.121.09 2.906 2.906 0 0 0 .09 4.121 2.908 2.908 0 0 0 3.527.396l-2.051-2.051 2.555-2.556Z"/><path fill="#FF6C37" d="M32.495 18.547a3.095 3.095 0 1 1 2.141-5.327.163.163 0 0 1 .054.126c0 .054-.018.09-.054.126l-2.43 2.43 1.908 1.907a.174.174 0 0 1 0 .252l-.036.036a3.053 3.053 0 0 1-1.584.45Zm0-5.813a2.708 2.708 0 0 0-2.718 2.736 2.708 2.708 0 0 0 2.736 2.717c.413 0 .827-.09 1.205-.288l-1.89-1.872a.163.163 0 0 1-.053-.125c0-.054.018-.09.054-.126l2.411-2.412a2.667 2.667 0 0 0-1.745-.63Z"/><path fill="#fff" d="m34.564 13.4-.036-.036-2.573 2.538 2.033 2.033c.198-.126.396-.27.558-.432a2.884 2.884 0 0 0 .018-4.103Z"/><path fill="#FF6C37" d="M34.006 18.133a.163.163 0 0 1-.126-.054l-2.051-2.052a.164.164 0 0 1-.054-.126c0-.053.018-.09.054-.126l2.555-2.555a.174.174 0 0 1 .252 0l.054.036a3.112 3.112 0 0 1 .018 4.373c-.18.18-.378.342-.594.468-.054.018-.09.036-.108.036Zm-1.8-2.231 1.818 1.817a2.39 2.39 0 0 0 .396-.324 2.74 2.74 0 0 0 .09-3.78l-2.303 2.287Z"/><path fill="#fff" d="M30.803 17.881a1.108 1.108 0 0 0-1.566 0l-6.785 6.785 1.134 1.134 7.18-6.3c.469-.395.505-1.097.109-1.565a.248.248 0 0 1-.072-.054Z"/><path fill="#FF6C37" d="M23.568 25.98a.163.163 0 0 1-.126-.054l-1.134-1.134a.174.174 0 0 1 0-.252l6.785-6.785a1.282 1.282 0 0 1 1.818 0 1.282 1.282 0 0 1 0 1.818l-.054.054-7.181 6.299c-.018.036-.054.054-.108.054Zm-.864-1.314.882.882 7.055-6.191c.396-.324.432-.918.108-1.314s-.918-.432-1.314-.108a.248.248 0 0 1-.072.054l-6.659 6.677Z"/><path fill="#fff" d="M17.251 32.386c-.072.036-.108.108-.09.18l.306 1.296a.344.344 0 0 1-.234.45.361.361 0 0 1-.396-.108l-1.98-1.961 6.462-6.461 2.231.036 1.512 1.511c-.36.306-2.538 2.412-7.81 5.057Z"/><path fill="#FF6C37" d="M17.107 34.492a.49.49 0 0 1-.378-.162l-1.961-1.961a.163.163 0 0 1-.054-.126c0-.054.018-.09.054-.126l6.46-6.461a.194.194 0 0 1 .127-.054l2.231.036c.054 0 .09.018.126.054l1.512 1.511c.036.037.054.09.054.145 0 .053-.018.09-.072.126l-.126.107c-1.908 1.674-4.5 3.348-7.72 4.95l.305 1.277a.568.568 0 0 1-.27.612.617.617 0 0 1-.288.072Zm-1.98-2.25 1.854 1.836c.054.09.162.126.252.072.09-.054.126-.162.072-.252L17 32.602a.328.328 0 0 1 .18-.377c3.186-1.602 5.76-3.258 7.649-4.896l-1.332-1.331-2.07-.036-6.298 6.28Z"/><path fill="#fff" d="m13.328 33.79 1.548-1.547 2.303 2.303-3.671-.252a.287.287 0 0 1-.252-.324c0-.072.018-.144.072-.18Z"/><path fill="#FF6C37" d="m17.18 34.708-3.69-.252c-.27-.018-.45-.252-.432-.522.018-.108.054-.216.144-.288L14.75 32.1a.174.174 0 0 1 .252 0l2.303 2.303c.054.054.072.126.036.198-.036.072-.09.108-.162.108Zm-2.304-2.213-1.422 1.421c-.054.036-.054.126 0 .162.018.018.036.036.072.036l3.185.216-1.835-1.835Zm5.813-5.885a.18.18 0 0 1-.18-.18c0-.054.018-.09.054-.126l1.745-1.746a.174.174 0 0 1 .252 0l1.134 1.134c.054.054.072.108.054.18a.206.206 0 0 1-.144.126l-2.88.612h-.035Zm1.745-1.674-1.188 1.188 1.944-.414-.756-.774Z"/><path fill="#fff" d="m23.55 25.818-1.98.432a.268.268 0 0 1-.251-.45l1.097-1.098 1.134 1.116Z"/><path fill="#FF6C37" d="M21.535 26.43a.446.446 0 0 1-.45-.45c0-.126.054-.234.126-.324l1.097-1.098a.174.174 0 0 1 .252 0l1.134 1.134c.054.054.072.108.054.18a.206.206 0 0 1-.144.126l-1.98.432h-.09Zm.9-1.494-.973.972c-.035.036-.035.072-.017.108.017.036.053.054.107.054l1.656-.36-.774-.774Zm12.147-9.808c-.036-.108-.162-.162-.27-.126-.108.036-.162.162-.126.27 0 .018.018.036.018.054a.672.672 0 0 1-.072.683.219.219 0 0 0 .018.288c.09.072.216.055.288-.035.27-.343.324-.774.144-1.134Z"/></svg>