<svg xmlns="http://www.w3.org/2000/svg" fill="none" aria-hidden="true" viewBox="0 0 48 48"><path fill="#242424" d="M3 18.2c0-5.32 0-7.98 1.035-10.013a9.5 9.5 0 0 1 4.152-4.152C10.22 3 12.88 3 18.2 3h11.6c5.32 0 7.98 0 10.013 1.035a9.5 9.5 0 0 1 4.152 4.152C45 10.22 45 12.88 45 18.2v11.6c0 5.32 0 7.98-1.035 10.013a9.5 9.5 0 0 1-4.152 4.152C37.78 45 35.12 45 29.8 45H18.2c-5.32 0-7.98 0-10.013-1.035a9.5 9.5 0 0 1-4.152-4.152C3 37.78 3 35.12 3 29.8V18.2Z"/><path fill="url(#a)" d="M14.8 24.6c-5.85 4.305-7 10.6-7 15.85.266-1.567 1.49-5.24 4.25-7.4 4.1-3.209 11.6-2.152 19.8-7.6 8.2-5.448 9-12.55 7.95-18-.73 5.259-3.22 7.55-6.65 9.6C25.7 21.5 21.05 20 14.8 24.6Z"/><path fill="url(#b)" d="M14.8 24.6c-5.85 4.305-7 10.6-7 15.85.266-1.567 1.49-5.24 4.25-7.4 4.1-3.209 11.6-2.152 19.8-7.6 8.2-5.448 9-12.55 7.95-18-.73 5.259-3.22 7.55-6.65 9.6C25.7 21.5 21.05 20 14.8 24.6Z"/><path fill="url(#c)" d="M7.87 38.298c.321-4.744 1.861-9.967 6.93-13.698 3.258-2.398 6.082-3.138 9.094-3.928 1.758-.46 3.58-.939 5.59-1.772-.734.7-4.219 2.335-6.847 3.428-2.622 1.09-5.386 2.238-7.687 3.772-4.617 3.078-6.495 8.434-7.08 12.198Z"/><path fill="url(#d)" d="M7.87 38.298c.321-4.744 1.861-9.967 6.93-13.698 3.258-2.398 6.082-3.138 9.094-3.928 1.758-.46 3.58-.939 5.59-1.772-.734.7-4.219 2.335-6.847 3.428-2.622 1.09-5.386 2.238-7.687 3.772-4.617 3.078-6.495 8.434-7.08 12.198Z"/><path fill="url(#e)" d="M36.326 21.556A10.395 10.395 0 0 1 34.4 23.05c-3.2 1.92-6.601 2.54-9.911 3.142-2.637.48-5.216.95-7.59 2.058-5.349 2.5-8.649 7.7-9.099 12.2v-.003c0-.343.005-.691.016-1.043.027-.558.085-1.176.18-1.835.706-3.7 2.627-8.585 6.954-11.469 1.832-1.221 3.956-2.198 6.069-3.095 1.858-.61 3.532-.99 5.128-1.352 2.511-.569 4.827-1.094 7.353-2.403 5.301-2.747 6.69-8.392 6.316-11.712.793 4.207.473 9.382-3.49 14.018Z"/><path fill="url(#f)" d="M36.327 21.556A10.394 10.394 0 0 1 34.4 23.05c-3.2 1.92-6.601 2.54-9.91 3.142-2.638.48-5.217.95-7.59 2.058-3.076 1.438-5.475 3.768-7.044 6.345 1.385-1.945 3.493-4.117 6.094-4.945 2.539-.808 4.96-.891 7.475-.978.721-.025 1.45-.05 2.191-.092a29.148 29.148 0 0 0 6.234-3.13c1.846-1.227 3.317-2.537 4.477-3.894Z"/><path fill="url(#g)" d="M36.327 21.556A10.394 10.394 0 0 1 34.4 23.05c-3.2 1.92-6.601 2.54-9.91 3.142-2.638.48-5.217.95-7.59 2.058-3.076 1.438-5.475 3.768-7.044 6.345 1.385-1.945 3.493-4.117 6.094-4.945 2.539-.808 4.96-.891 7.475-.978.721-.025 1.45-.05 2.191-.092a29.148 29.148 0 0 0 6.234-3.13c1.846-1.227 3.317-2.537 4.477-3.894Z"/><path fill="url(#h)" d="M39.817 7.538a1.244 1.244 0 0 0-.017-.088c-.73 5.259-3.219 7.55-6.65 9.6a28.082 28.082 0 0 1-3.666 1.85c-.734.7-4.218 2.335-6.847 3.427-.535.223-1.076.448-1.617.678 1.858-.61 3.532-.99 5.127-1.352 2.512-.569 4.827-1.094 7.354-2.403 5.3-2.747 6.69-8.392 6.316-11.712Z"/><path fill="url(#i)" d="M39.817 7.538a1.244 1.244 0 0 0-.017-.088c-.73 5.259-3.219 7.55-6.65 9.6a28.082 28.082 0 0 1-3.666 1.85c-.734.7-4.218 2.335-6.847 3.427-.535.223-1.076.448-1.617.678 1.858-.61 3.532-.99 5.127-1.352 2.512-.569 4.827-1.094 7.354-2.403 5.3-2.747 6.69-8.392 6.316-11.712Z"/><defs><linearGradient id="a" x1="26.1" x2="8.8" y1="27.3" y2="39.7" gradientUnits="userSpaceOnUse"><stop stop-color="#FE5004"/><stop offset=".603" stop-color="#FFB915"/><stop offset="1" stop-color="#FFFC41"/></linearGradient><linearGradient id="b" x1="19.25" x2="19.35" y1="28.35" y2="30.15" gradientUnits="userSpaceOnUse"><stop stop-color="#FD3E00"/><stop offset="1" stop-color="#FD4400" stop-opacity="0"/></linearGradient><linearGradient id="c" x1="29.5" x2="5.1" y1="18" y2="39.7" gradientUnits="userSpaceOnUse"><stop stop-color="#005FC6"/><stop offset=".28" stop-color="#23A4DF"/><stop offset=".465" stop-color="#3AC2B7"/><stop offset=".641" stop-color="#60EC7A"/><stop offset=".819" stop-color="#CFFDBD"/><stop offset="1" stop-color="#D0FCB6"/></linearGradient><linearGradient id="d" x1="24.55" x2="22.45" y1="22.15" y2="20.25" gradientUnits="userSpaceOnUse"><stop stop-color="#0061CB"/><stop offset="1" stop-color="#067EEA" stop-opacity="0"/></linearGradient><linearGradient id="e" x1="39.9" x2="7.8" y1="7.5" y2="40.4" gradientUnits="userSpaceOnUse"><stop stop-color="#8E55F1"/><stop offset=".141" stop-color="#8B48DF"/><stop offset=".275" stop-color="#E04DD9"/><stop offset=".492" stop-color="#F496C8"/><stop offset=".633" stop-color="#FAD2BA"/><stop offset=".857" stop-color="#FEF7E5"/><stop offset="1" stop-color="#FFF5BF"/></linearGradient><linearGradient id="f" x1="36.75" x2="10.55" y1="21.25" y2="33.1" gradientUnits="userSpaceOnUse"><stop stop-color="#F41A73"/><stop offset=".4" stop-color="#FC50A3"/><stop offset=".585" stop-color="#FE9485"/><stop offset=".703" stop-color="#FFAF88"/><stop offset="1" stop-color="#FFC385"/></linearGradient><linearGradient id="g" x1="27.3" x2="27.35" y1="24.9" y2="27.3" gradientUnits="userSpaceOnUse"><stop stop-color="#9B0008"/><stop offset="1" stop-color="#EA115A" stop-opacity="0"/></linearGradient><linearGradient id="h" x1="39.901" x2="16.25" y1="10.2" y2="25.65" gradientUnits="userSpaceOnUse"><stop stop-color="#231283"/><stop offset=".363" stop-color="#7053C6"/><stop offset=".466" stop-color="#7272DB"/><stop offset=".634" stop-color="#399EE9"/><stop offset="1" stop-color="#00CFFF"/></linearGradient><linearGradient id="i" x1="34.001" x2="35.05" y1="18" y2="19.35" gradientUnits="userSpaceOnUse"><stop stop-color="#3F259D" stop-opacity="0"/><stop offset="1" stop-color="#412DAA"/></linearGradient></defs></svg>