<svg xmlns="http://www.w3.org/2000/svg" fill="none" aria-hidden="true" viewBox="0 0 48 48"><path fill="#B72D2C" fill-rule="evenodd" d="M26.875 34.54c-1.074.3-2.206.46-3.375.46C16.596 35 11 29.404 11 22.5S16.596 10 23.5 10 36 15.596 36 22.5c0 3.944-1.827 7.462-4.68 9.752.786.993 1.698 1.761 2.695 1.761 1.644 0 2.139-1.323 2.18-1.985H38c0 3.503-2.095 5.851-5.538 5.963-1.214.04-3.247.105-5.587-3.452Zm-1.1-1.914c-.66.244-1.414.374-2.275.374-5.171 0-6.5-4.701-6.5-10.5S18.33 12 23.5 12 30 16.701 30 22.5c0 2.354-.219 4.526-.825 6.277C28.195 27.054 26.65 25 23.801 25c-2.372 0-4.19.971-4.801 1.457l.753 1.505c.21-.07.738-.208 1.177-.208.549 0 2.494-.177 4.377 3.906.157.34.313.661.468.966Z" clip-rule="evenodd"/></svg>