<svg xmlns="http://www.w3.org/2000/svg" fill="none" aria-hidden="true" viewBox="0 0 48 48"><path fill="#fff" d="M24 3C12.417 3 3 12.417 3 24s9.417 21 21 21 21-9.417 21-21S35.583 3 24 3Z"/><path fill="#FECE48" d="M16.32 4.187a.366.366 0 0 0-.64 0l-3.716 6.636a.367.367 0 0 1-.247.18l-7.423 1.508a.367.367 0 0 0-.198.607l5.127 5.612a.367.367 0 0 1 .094.29l-.87 7.57a.366.366 0 0 0 .517.376l6.883-3.17a.366.366 0 0 1 .306 0l6.883 3.17c.26.12.55-.091.517-.376l-.637-5.538-.233-2.032a.367.367 0 0 1 .094-.29l5.127-5.612a.367.367 0 0 0-.198-.607l-7.423-1.507a.367.367 0 0 1-.247-.18L16.32 4.186Z"/><path fill="#F6AD46" d="M15.328 16.613c-.488-1.15-4.09-2.212-5.831-2.6 1.343-.904 6.34-.845 8.67-.702.6.069 2.118.232 3.431.738.073.029.1.116.052.178-.72.915-3.277 3.286-4.52 4.404l-.52.643c2.026.112 6.492.269 8.152 0-.55.703-1.384 1.529-1.831 1.926.03.245.06.642.152 1.285-8.622.758-12.12-.857-12.823-1.744.112-.112 1.282-1.094 5.068-4.128Z"/><path fill="#fff" d="M15.634 12.302c-2.293 0-4.91.925-6.199 1.517-.116.054-.075.218.053.216 4.9-.07 7.208.42 7.759.784.058.038.052.116-.003.158-2.143 1.652-6.01 4.838-6.986 5.65a.12.12 0 0 0 .064.21c6.378.775 12.138-.432 14.363-1.476.12-.056.065-.213-.067-.2-3.375.346-7.135-.518-8.64-1.068a.118.118 0 0 1-.032-.203c1.246-1.017 3.763-3.069 5.237-4.26a.12.12 0 0 0-.011-.196c-1.124-.71-2.403-1.132-5.538-1.132Z"/></svg>