<svg xmlns="http://www.w3.org/2000/svg" fill="none" aria-hidden="true" viewBox="0 0 48 48"><path fill="#000" d="M18.142 6c-.183.006-.378.073-.6.249-.546-.21-1.074-.283-1.546.144-.73-.094-.966.101-1.146.329-.16-.003-1.198-.165-1.674.545-1.196-.141-1.574.704-1.146 1.492-.244.378-.497.752.074 1.473-.202.401-.077.837.4 1.364-.126.565.12.963.564 1.273-.083.773.708 1.222.944 1.382.09.45.28.875 1.184 1.11.149.67.692.786 1.218.927-1.739 1.01-3.23 2.34-3.22 5.602l-.254.455c-1.993 1.212-3.787 5.108-.982 8.275.183.991.49 1.703.764 2.491.409 3.176 3.079 4.663 3.783 4.838 1.032.786 2.131 1.532 3.619 2.055C21.526 41.45 23.044 42 24.572 42c.022 0 3.114-.55 4.516-1.996 1.487-.523 2.586-1.269 3.618-2.055.704-.175 3.374-1.662 3.784-4.838.273-.788.58-1.5.764-2.491 2.804-3.167 1.01-7.064-.983-8.276l-.255-.454c.01-3.262-1.48-4.591-3.219-5.602.526-.141 1.07-.257 1.218-.928.904-.235 1.093-.66 1.184-1.11.236-.16 1.027-.609.945-1.381.442-.31.69-.709.564-1.273.476-.527.601-.963.4-1.365.57-.72.317-1.094.073-1.472.428-.788.05-1.633-1.146-1.492-.476-.71-1.514-.549-1.674-.545-.18-.228-.417-.423-1.146-.329-.472-.427-1-.354-1.545-.144-.647-.51-1.075-.102-1.564.053-.783-.256-.962.095-1.347.238-.854-.18-1.114.212-1.523.627l-.476-.01c-1.289.76-1.929 2.305-2.155 3.1-.227-.795-.866-2.34-2.154-3.1l-.476.01c-.41-.415-.67-.808-1.524-.627-.384-.143-.563-.494-1.347-.238-.32-.101-.616-.312-.963-.302L9.299 21.527"/><path fill="#75A928" d="M15.577 9.34c3.417 1.762 5.404 3.188 6.493 4.402-.558 2.234-3.466 2.336-4.529 2.273.218-.101.4-.223.464-.41-.267-.189-1.213-.02-1.873-.39.253-.053.372-.104.49-.291-.623-.2-1.296-.37-1.69-.7.213.002.412.047.69-.146-.559-.301-1.155-.54-1.618-1 .289-.007.6-.003.69-.11a6.23 6.23 0 0 1-1.3-1.054c.405.049.575.007.673-.064-.386-.396-.876-.73-1.11-1.218.301.103.576.143.774-.01-.132-.296-.694-.47-1.019-1.163.316.03.652.068.719 0-.147-.598-.399-.934-.646-1.282.677-.01 1.702.002 1.655-.055l-.418-.427c.661-.178 1.337.028 1.828.181.22-.173-.004-.393-.273-.618.562.075 1.07.204 1.528.382.245-.221-.16-.443-.355-.664.868.165 1.235.396 1.6.628.266-.254.016-.47-.163-.691.654.242.991.555 1.346.863.12-.162.305-.28.082-.672.464.267.814.583 1.073.936.287-.183.171-.433.173-.664.482.393.789.81 1.164 1.219.075-.055.141-.242.2-.537 1.151 1.118 2.778 3.932.418 5.047-2.009-1.657-4.408-2.86-7.067-3.764Zm18.134 0c-3.417 1.762-5.404 3.188-6.492 4.402.557 2.234 3.465 2.336 4.528 2.273-.218-.101-.4-.223-.464-.409.267-.19 1.213-.02 1.874-.391-.254-.053-.373-.104-.491-.291.624-.2 1.296-.37 1.691-.7-.213.002-.413.047-.691-.146.559-.301 1.155-.54 1.619-1-.29-.007-.6-.003-.691-.11a6.221 6.221 0 0 0 1.3-1.054c-.404.049-.575.007-.673-.064.387-.396.876-.73 1.11-1.218-.3.103-.576.143-.774-.01.132-.296.695-.47 1.019-1.163-.316.03-.651.069-.718 0 .147-.598.398-.934.645-1.283-.676-.01-1.701.003-1.655-.054l.418-.428c-.66-.177-1.337.029-1.828.182-.22-.174.004-.394.273-.618a6.637 6.637 0 0 0-1.527.382c-.245-.221.159-.443.354-.664-.867.165-1.235.396-1.6.628-.265-.255-.015-.47.164-.692-.655.243-.992.556-1.346.864-.12-.162-.306-.281-.082-.673a3.413 3.413 0 0 0-1.073.937c-.288-.183-.172-.433-.173-.664-.483.393-.79.81-1.164 1.219-.076-.055-.142-.242-.2-.537-1.152 1.117-2.779 3.931-.419 5.047 2.008-1.657 4.407-2.861 7.066-3.765Z"/><path fill="#BC1142" d="M28.783 32.09c.012 2.086-1.812 3.785-4.072 3.796-2.261.01-4.104-1.67-4.116-3.756v-.04c-.012-2.084 1.812-3.783 4.073-3.794 2.26-.011 4.103 1.67 4.115 3.755v.04ZM22.32 21.307c1.697 1.111 2.002 3.63.683 5.626-1.319 1.997-3.763 2.714-5.46 1.602-1.696-1.11-2.002-3.63-.683-5.626 1.32-1.996 3.764-2.713 5.46-1.602Zm4.579-.201c-1.697 1.111-2.002 3.63-.683 5.626 1.319 1.996 3.763 2.714 5.46 1.602 1.696-1.111 2.002-3.63.682-5.626-1.319-1.996-3.763-2.714-5.46-1.602Zm-13.057 2.018c1.832-.491.619 7.576-.871 6.914-1.64-1.318-2.167-5.179.871-6.914Zm21.165-.101c-1.832-.49-.618 7.577.872 6.915 1.639-1.318 2.167-5.18-.872-6.915Zm-6.223-6.007c3.16-.534 5.79 1.344 5.684 4.77-.104 1.315-6.848-4.575-5.684-4.77Zm-8.732-.101c-3.16-.534-5.79 1.345-5.684 4.771.104 1.314 6.848-4.575 5.684-4.771Zm4.54-.799c-1.886-.05-3.697 1.4-3.701 2.24-.005 1.021 1.491 2.067 3.714 2.094 2.27.016 3.718-.837 3.725-1.891.008-1.194-2.064-2.462-3.738-2.443Zm.115 20.942c1.645-.072 3.851.53 3.856 1.328.027.775-2.002 2.525-3.965 2.492-2.034.087-4.027-1.666-4.001-2.274-.03-.89 2.476-1.587 4.11-1.546Zm-6.075-4.728c1.171 1.41 1.705 3.888.728 4.619-.924.558-3.17.328-4.765-1.965-1.076-1.923-.938-3.88-.182-4.456 1.13-.688 2.876.242 4.22 1.801Zm11.915-.448c-1.267 1.484-1.972 4.19-1.048 5.062.884.677 3.256.582 5.008-1.849 1.273-1.633.846-4.36.12-5.084-1.08-.835-2.63.234-4.08 1.87Z"/></svg>