<svg xmlns="http://www.w3.org/2000/svg" fill="none" aria-hidden="true" viewBox="0 0 48 48"><path fill="#E00" d="M30.013 26.078c2.366 0 5.79-.487 5.79-3.302a2.652 2.652 0 0 0-.06-.646l-1.408-6.12c-.325-1.347-.611-1.958-2.975-3.14-1.835-.938-5.83-2.487-7.013-2.487-1.1 0-1.42 1.418-2.733 1.418-1.263 0-2.201-1.059-3.383-1.059-1.135 0-1.875.774-2.446 2.364 0 0-1.59 4.487-1.794 5.137-.033.12-.047.243-.042.367 0 1.744 6.865 7.46 16.064 7.46v.008Zm6.152-2.16c.328 1.55.328 1.712.328 1.916 0 2.648-2.977 4.118-6.89 4.118-8.844.005-16.59-5.177-16.59-8.602 0-.476.096-.948.285-1.386-3.18.159-7.298.726-7.298 4.361 0 5.954 14.107 13.292 25.277 13.292C39.84 37.617 42 33.744 42 30.686c0-2.406-2.08-5.137-5.83-6.767"/><path fill="#000" d="M36.165 23.919c.328 1.549.328 1.711.328 1.915 0 2.648-2.977 4.118-6.89 4.118-8.844.005-16.59-5.177-16.59-8.602 0-.476.096-.948.285-1.386l.693-1.713a1.214 1.214 0 0 0-.042.359c0 1.744 6.865 7.46 16.064 7.46 2.366 0 5.79-.487 5.79-3.301a2.647 2.647 0 0 0-.06-.647l.422 1.797Z"/></svg>