<svg xmlns="http://www.w3.org/2000/svg" fill="none" aria-hidden="true" viewBox="0 0 48 48"><path fill="url(#a)" d="M33.89 29.745 13.338 41.95l26.613-1.806L42 13.31l-8.11 16.436Z"/><path fill="url(#b)" d="m39.994 40.126-2.288-15.788-6.23 8.227 8.518 7.56Z"/><path fill="url(#c)" d="M40.025 40.126 23.267 38.81l-9.84 3.106 26.598-1.79Z"/><path fill="url(#d)" d="m13.45 41.92 4.186-13.716-9.212 1.97L13.45 41.92Z"/><path fill="url(#e)" d="m31.474 32.61-3.852-15.087L16.6 27.855l14.875 4.755Z"/><path fill="url(#f)" d="m41.126 17.735-10.42-8.51-2.902 9.38 13.322-.87Z"/><path fill="url(#g)" d="m36.253 6.19-6.129 3.387-3.866-3.433 9.995.046Z"/><path fill="url(#h)" d="m6 34.775 2.567-4.683-2.076-5.578L6 34.774Z"/><path fill="#fff" d="m6.353 24.338 2.09 5.927 9.079-2.037 10.366-9.634 2.925-9.292-4.606-3.252-7.832 2.93c-2.467 2.296-7.255 6.836-7.427 6.922-.171.087-3.162 5.74-4.595 8.436Z"/><path fill="url(#i)" d="M13.69 13.69c5.347-5.302 12.24-8.434 14.886-5.765 2.644 2.67-.16 9.156-5.507 14.456-5.348 5.3-12.156 8.605-14.8 5.936-2.645-2.667.073-9.326 5.42-14.627Z"/><path fill="url(#j)" d="m13.45 41.914 4.153-13.759 13.795 4.432c-4.988 4.677-10.535 8.63-17.948 9.327Z"/><path fill="url(#k)" d="m27.906 18.567 3.541 14.027c4.166-4.38 7.906-9.09 9.737-14.915l-13.278.888Z"/><path fill="url(#l)" d="M41.148 17.75c1.417-4.278 1.744-10.414-4.939-11.553l-5.483 3.03 10.422 8.523Z"/><path fill="#9E1209" d="M6 34.713c.196 7.06 5.29 7.164 7.459 7.226L8.447 30.236 6 34.713Z"/><path fill="url(#m)" d="M27.925 18.589c3.202 1.968 9.654 5.92 9.785 5.992.203.115 2.782-4.348 3.367-6.87l-13.152.878Z"/><path fill="url(#n)" d="m17.598 28.155 5.552 10.713c3.284-1.78 5.855-3.95 8.21-6.274l-13.762-4.439Z"/><path fill="url(#o)" d="m8.426 30.25-.787 9.369c1.485 2.028 3.527 2.204 5.67 2.046-1.55-3.858-4.647-11.57-4.883-11.415Z"/><path fill="url(#p)" d="m30.693 9.25 11.03 1.548c-.588-2.495-2.396-4.105-5.477-4.608l-5.553 3.06Z"/><defs><linearGradient id="a" x1="37.629" x2="30.043" y1="45.215" y2="31.801" gradientUnits="userSpaceOnUse"><stop stop-color="#FB7655"/><stop offset=".41" stop-color="#E42B1E"/><stop offset=".99" stop-color="#900"/><stop offset="1" stop-color="#900"/></linearGradient><linearGradient id="b" x1="41.412" x2="30.748" y1="33.951" y2="31.868" gradientUnits="userSpaceOnUse"><stop stop-color="#871101"/><stop offset=".99" stop-color="#911209"/><stop offset="1" stop-color="#911209"/></linearGradient><linearGradient id="c" x1="33.581" x2="33.444" y1="45.621" y2="38.857" gradientUnits="userSpaceOnUse"><stop stop-color="#871101"/><stop offset=".99" stop-color="#911209"/><stop offset="1" stop-color="#911209"/></linearGradient><linearGradient id="d" x1="13.031" x2="16.202" y1="29.197" y2="38.494" gradientUnits="userSpaceOnUse"><stop stop-color="#fff"/><stop offset=".23" stop-color="#E57252"/><stop offset=".46" stop-color="#DE3B20"/><stop offset=".99" stop-color="#A60003"/><stop offset="1" stop-color="#A60003"/></linearGradient><linearGradient id="e" x1="23.467" x2="24.043" y1="19.989" y2="30.052" gradientUnits="userSpaceOnUse"><stop stop-color="#fff"/><stop offset=".23" stop-color="#E4714E"/><stop offset=".56" stop-color="#BE1A0D"/><stop offset=".99" stop-color="#A80D00"/><stop offset="1" stop-color="#A80D00"/></linearGradient><linearGradient id="f" x1="32.728" x2="33.569" y1="10.687" y2="17.995" gradientUnits="userSpaceOnUse"><stop stop-color="#fff"/><stop offset=".18" stop-color="#E46342"/><stop offset=".4" stop-color="#C82410"/><stop offset=".99" stop-color="#A80D00"/><stop offset="1" stop-color="#A80D00"/></linearGradient><linearGradient id="g" x1="27.618" x2="28.804" y1="8.147" y2="3.12" gradientUnits="userSpaceOnUse"><stop stop-color="#fff"/><stop offset=".54" stop-color="#C81F11"/><stop offset=".99" stop-color="#BF0905"/><stop offset="1" stop-color="#BF0905"/></linearGradient><linearGradient id="h" x1="6.709" x2="9.81" y1="26.683" y2="28.626" gradientUnits="userSpaceOnUse"><stop stop-color="#fff"/><stop offset=".31" stop-color="#DE4024"/><stop offset=".99" stop-color="#BF190B"/><stop offset="1" stop-color="#BF190B"/></linearGradient><linearGradient id="i" x1="2.628" x2="30.491" y1="34.232" y2="5.5" gradientUnits="userSpaceOnUse"><stop stop-color="#BD0012"/><stop offset=".07" stop-color="#fff"/><stop offset=".17" stop-color="#fff"/><stop offset=".27" stop-color="#C82F1C"/><stop offset=".33" stop-color="#820C01"/><stop offset=".46" stop-color="#A31601"/><stop offset=".72" stop-color="#B31301"/><stop offset=".99" stop-color="#E82609"/><stop offset="1" stop-color="#E82609"/></linearGradient><linearGradient id="j" x1="24.002" x2="16.117" y1="37.127" y2="33.815" gradientUnits="userSpaceOnUse"><stop stop-color="#8C0C01"/><stop offset=".54" stop-color="#990C00"/><stop offset=".99" stop-color="#A80D0E"/><stop offset="1" stop-color="#A80D0E"/></linearGradient><linearGradient id="k" x1="38.438" x2="30.316" y1="27.039" y2="21.27" gradientUnits="userSpaceOnUse"><stop stop-color="#7E110B"/><stop offset=".99" stop-color="#9E0C00"/><stop offset="1" stop-color="#9E0C00"/></linearGradient><linearGradient id="l" x1="41.181" x2="37.362" y1="14.76" y2="10.883" gradientUnits="userSpaceOnUse"><stop stop-color="#79130D"/><stop offset=".99" stop-color="#9E120B"/><stop offset="1" stop-color="#9E120B"/></linearGradient><linearGradient id="o" x1="10.846" x2="3.998" y1="41.906" y2="36.221" gradientUnits="userSpaceOnUse"><stop stop-color="#8B2114"/><stop offset=".43" stop-color="#9E100A"/><stop offset=".99" stop-color="#B3100C"/><stop offset="1" stop-color="#B3100C"/></linearGradient><linearGradient id="p" x1="34.098" x2="36.042" y1="7.83" y2="12.748" gradientUnits="userSpaceOnUse"><stop stop-color="#B31000"/><stop offset=".44" stop-color="#910F08"/><stop offset=".99" stop-color="#791C12"/><stop offset="1" stop-color="#791C12"/></linearGradient><radialGradient id="m" cx="0" cy="0" r="1" gradientTransform="matrix(9.14992 0 0 4.78119 32.134 20.475)" gradientUnits="userSpaceOnUse"><stop stop-color="#A80D00"/><stop offset=".99" stop-color="#7E0E08"/><stop offset="1" stop-color="#7E0E08"/></radialGradient><radialGradient id="n" cx="0" cy="0" r="1" gradientTransform="matrix(12.1636 0 0 9.46878 19.462 32.533)" gradientUnits="userSpaceOnUse"><stop stop-color="#A30C00"/><stop offset=".99" stop-color="#800E08"/><stop offset="1" stop-color="#800E08"/></radialGradient></defs></svg>