<svg xmlns="http://www.w3.org/2000/svg" fill="none" aria-hidden="true" viewBox="0 0 48 48"><g id="safari-Icon"><g id="Group 597"><path id="vector" fill="url(#paint0_linear_94_18581)" d="M24 44C35.0457 44 44 35.0457 44 24C44 12.9543 35.0457 4 24 4C12.9543 4 4 12.9543 4 24C4 35.0457 12.9543 44 24 44Z"/><path id="vector_2" fill="url(#paint1_radial_94_18581)" d="M24 42.4999C34.2173 42.4999 42.5 34.2171 42.5 23.9999C42.5 13.7826 34.2173 5.49988 24 5.49988C13.7827 5.49988 5.5 13.7826 5.5 23.9999C5.5 34.2171 13.7827 42.4999 24 42.4999Z"/><path id="vector_3" fill="#F3F3F3" d="M24.0312 10.0001C23.9062 10.0001 23.7969 9.90637 23.7969 9.78137V6.51571C23.7969 6.39071 23.9062 6.297 24.0312 6.297C24.1562 6.297 24.2656 6.39071 24.2656 6.51571V9.78137C24.2499 9.90637 24.1562 10.0001 24.0312 10.0001Z"/><path id="vector_4" fill="white" d="M24.0312 10.0156C23.8906 10.0156 23.7812 9.90629 23.7812 9.78129V6.51566C23.7812 6.39067 23.8906 6.28131 24.0312 6.28131C24.1719 6.28131 24.2812 6.39067 24.2812 6.51566V9.78129C24.2812 9.90629 24.1562 10.0156 24.0312 10.0156ZM24.0312 6.31244C23.9219 6.31244 23.8125 6.40631 23.8125 6.51566V9.78129C23.8125 9.89064 23.9062 9.98451 24.0312 9.98451C24.1406 9.98451 24.2499 9.89064 24.2499 9.78129V6.51566C24.2345 6.40631 24.1406 6.31244 24.0312 6.31244V6.31244Z"/><path id="vector_5" fill="#F3F3F3" d="M25.5937 8.25011C25.4687 8.23447 25.375 8.14075 25.375 8.01575L25.4844 6.5625C25.4998 6.43766 25.6094 6.34379 25.7344 6.35943C25.8594 6.37508 25.9531 6.46895 25.9531 6.59395L25.8437 8.04704C25.8281 8.17205 25.7187 8.26576 25.5937 8.25027V8.25011Z"/><path id="vector_6" fill="white" d="M25.5937 8.26558C25.4531 8.24993 25.3594 8.14058 25.3594 8.01558L25.4687 6.56234C25.4844 6.4375 25.5937 6.32815 25.7344 6.34363C25.8749 6.35928 25.9687 6.46879 25.9687 6.59363L25.8594 8.04687C25.8437 8.18751 25.7344 8.28122 25.5937 8.26558ZM25.7344 6.37492C25.625 6.37492 25.5155 6.45315 25.5155 6.5625L25.4061 8.01574C25.4061 8.12493 25.4844 8.2188 25.6094 8.23429C25.7187 8.23429 25.8281 8.15622 25.8281 8.04687L25.9374 6.59363C25.9374 6.48428 25.8437 6.39057 25.7342 6.37492H25.7344Z"/><path id="vector_7" fill="#F3F3F3" d="M26.7657 10.2813C26.6406 10.25 26.5625 10.1406 26.5782 10.0156L27.2188 6.8124C27.2501 6.68756 27.3594 6.60934 27.4844 6.64063C27.6094 6.67192 27.6874 6.78127 27.6718 6.90628L27.0312 10.1095C27.0156 10.2187 26.8906 10.2969 26.7656 10.2813H26.7657Z"/><path id="vector_8" fill="white" d="M26.7657 10.2969C26.6249 10.2656 26.5469 10.1406 26.5625 10.0156L27.2031 6.81244C27.2344 6.6876 27.3594 6.59373 27.4999 6.62502C27.6405 6.65631 27.7187 6.78131 27.7031 6.90631L27.0625 10.1095C27.0312 10.2344 26.9062 10.3126 26.7657 10.2969ZM27.4999 6.65631C27.3905 6.64067 27.2812 6.70309 27.2499 6.8126L26.6095 10.0158C26.5938 10.125 26.6562 10.2344 26.7812 10.2658C26.8906 10.2813 26.9999 10.2187 27.0312 10.1094L27.6718 6.90631C27.6874 6.78131 27.6094 6.6876 27.4999 6.65631V6.65631Z"/><path id="vector_9" fill="#F3F3F3" d="M28.6403 8.875C28.6105 8.86783 28.5824 8.85486 28.5577 8.83684C28.5329 8.81881 28.512 8.79609 28.496 8.76996C28.4801 8.74384 28.4694 8.71482 28.4647 8.68458C28.46 8.65434 28.4613 8.62346 28.4685 8.59371L28.8591 7.18758C28.8903 7.06258 29.0153 7 29.1403 7.03129C29.2653 7.06258 29.3435 7.18758 29.3122 7.31258L28.9216 8.71887C28.8903 8.84371 28.7653 8.90629 28.6403 8.875Z"/><path id="vector_10" fill="white" d="M28.6411 8.89073C28.5161 8.85944 28.4224 8.7188 28.4693 8.59396L28.8599 7.18752C28.8911 7.06269 29.0317 6.98446 29.1567 7.01575C29.2817 7.04704 29.3754 7.18768 29.3286 7.31252L28.938 8.71896C28.9067 8.84379 28.7817 8.92202 28.6413 8.89073H28.6411ZM29.1567 7.06269C29.0473 7.0314 28.9223 7.09398 28.8911 7.20333L28.5006 8.60944C28.4693 8.7188 28.5318 8.82831 28.6567 8.85944C28.7661 8.89073 28.8911 8.82831 28.9223 8.71896L29.3129 7.31252C29.3286 7.20333 29.2662 7.09398 29.1567 7.06252V7.06269Z"/><path id="vector_11" fill="#F3F3F3" d="M29.4065 11.0782C29.2815 11.0313 29.2347 10.8906 29.2815 10.7813L30.5314 7.76563C30.5782 7.65627 30.719 7.59369 30.8282 7.65627C30.9533 7.70305 31.0003 7.84385 30.9533 7.95304L29.7034 10.9687C29.6566 11.0782 29.5158 11.1406 29.4066 11.0782H29.4065Z"/><path id="vector_12" fill="white" d="M29.4063 11.094C29.3463 11.0711 29.2977 11.0253 29.2714 10.9667C29.245 10.9081 29.243 10.8415 29.2657 10.7814L30.5157 7.76572C30.5626 7.64072 30.7033 7.59378 30.8439 7.64072C30.9039 7.6636 30.9525 7.70935 30.9788 7.76795C31.0052 7.82654 31.0073 7.89319 30.9846 7.9533L29.7345 10.969C29.6719 11.094 29.5313 11.1564 29.4063 11.094ZM30.8283 7.67201C30.7189 7.62524 30.5939 7.67201 30.547 7.78137L29.2969 10.797C29.2502 10.9064 29.3126 11.0157 29.4219 11.0627C29.5313 11.1095 29.6563 11.0627 29.7032 10.9533L30.9533 7.93766C30.9846 7.84379 30.9376 7.71878 30.8283 7.67201V7.67201Z"/><path id="vector_13" fill="#F3F3F3" d="M31.5153 10.0782C31.4058 10.0156 31.3589 9.89061 31.4058 9.78126L32.062 8.48451C32.1244 8.37499 32.2494 8.32806 32.3746 8.39064C32.4839 8.45322 32.5307 8.57822 32.4839 8.68741L31.8275 9.98432C31.7651 10.0937 31.6401 10.1408 31.5152 10.0782H31.5153Z"/><path id="vector_14" fill="white" d="M31.516 10.0939C31.3908 10.0314 31.344 9.89072 31.4064 9.76572L32.0628 8.46895C32.1252 8.34379 32.266 8.29702 32.3908 8.35944C32.5158 8.42202 32.5628 8.56266 32.5002 8.68766L31.844 9.98443C31.7814 10.1094 31.6408 10.1564 31.5158 10.0938L31.516 10.0939ZM32.3753 8.39073C32.2658 8.34395 32.1408 8.37508 32.094 8.48444L31.4377 9.78136C31.391 9.87507 31.4377 10.0001 31.5314 10.0627C31.6408 10.1094 31.7658 10.0783 31.8127 9.96894L32.4691 8.67202C32.5158 8.57831 32.4691 8.45331 32.3753 8.39073Z"/><path id="vector_15" fill="#F3F3F3" d="M31.8286 12.3908C31.7192 12.3127 31.6879 12.172 31.766 12.0783L33.5786 9.37509C33.641 9.26574 33.7818 9.25009 33.891 9.31267C34.0005 9.39074 34.0316 9.53139 33.9536 9.6251L32.141 12.3283C32.0786 12.4377 31.9379 12.469 31.8286 12.3908Z"/><path id="vector_16" fill="white" d="M31.8277 12.4063C31.7184 12.3282 31.6871 12.1719 31.7497 12.0626L33.5621 9.35942C33.6402 9.25007 33.7808 9.21878 33.9058 9.297C34.0152 9.37506 34.0465 9.53135 33.9841 9.6407L32.1715 12.3439C32.0934 12.4532 31.9371 12.4844 31.8277 12.4063ZM33.8902 9.32829C33.7966 9.26571 33.6558 9.28136 33.5934 9.37506L31.7808 12.0782C31.7184 12.1718 31.7495 12.2969 31.8434 12.3594C31.9371 12.4219 32.0777 12.4063 32.1402 12.3126L33.9528 9.62506C34.0152 9.53135 33.9841 9.39071 33.8902 9.32829V9.32829Z"/><path id="vector_17" fill="#F3F3F3" d="M34.1096 11.8127C34.016 11.7344 33.9847 11.5938 34.0628 11.5001L34.969 10.3594C35.0471 10.2659 35.1877 10.2501 35.2814 10.3283C35.3753 10.4064 35.4064 10.547 35.3282 10.6407L34.4221 11.7814C34.344 11.8751 34.2034 11.8907 34.1097 11.8127H34.1096Z"/><path id="vector_18" fill="white" d="M34.0937 11.8282C33.9844 11.75 33.9687 11.5937 34.0469 11.4843L34.953 10.3438C35.0311 10.2343 35.1874 10.2186 35.2967 10.3125C35.4061 10.3906 35.4217 10.5469 35.3435 10.6562L34.4374 11.7969C34.3594 11.9062 34.2031 11.9219 34.0937 11.8282V11.8282ZM35.2654 10.3436C35.1719 10.2656 35.0467 10.2812 34.9687 10.3749L34.0624 11.5156C34 11.6093 34.0157 11.7343 34.1092 11.8124C34.2031 11.8906 34.3281 11.875 34.4061 11.7812L35.3124 10.6406C35.3749 10.5469 35.3591 10.4062 35.2656 10.3438L35.2654 10.3436Z"/><path id="vector_19" fill="#F3F3F3" d="M33.9531 14.1563C33.8594 14.0626 33.8594 13.9219 33.9531 13.8437L36.2654 11.547C36.3593 11.4533 36.4998 11.4687 36.578 11.547C36.656 11.625 36.6717 11.7813 36.578 11.8594L34.2813 14.1563C34.1874 14.25 34.0468 14.25 33.9531 14.1563V14.1563Z"/><path id="vector_20" fill="white" d="M33.9375 14.172C33.8924 14.1261 33.8672 14.0644 33.8672 14.0001C33.8672 13.9358 33.8924 13.8741 33.9375 13.8283L36.25 11.5313C36.2958 11.4862 36.3576 11.4609 36.4219 11.4609C36.4863 11.4609 36.548 11.4862 36.5939 11.5313C36.6389 11.5772 36.6642 11.6389 36.6642 11.7032C36.6642 11.7675 36.6389 11.8292 36.5939 11.875L34.2812 14.1718C34.2354 14.2169 34.1737 14.2421 34.1094 14.2421C34.0451 14.2421 33.9834 14.2169 33.9375 14.1718V14.172ZM36.5782 11.547C36.5001 11.4688 36.3595 11.4688 36.2814 11.547L33.9688 13.8437C33.8906 13.922 33.8906 14.0626 33.9688 14.1407C34.0469 14.2189 34.1875 14.2189 34.2656 14.1407L36.5782 11.8439C36.6563 11.7657 36.6563 11.6407 36.5782 11.547Z"/><path id="vector_21" fill="#F3F3F3" d="M36.297 14.0313C36.2189 13.9376 36.2189 13.797 36.3126 13.7187L37.4219 12.7813C37.5156 12.7033 37.6562 12.7188 37.7344 12.8126C37.8125 12.9063 37.8125 13.047 37.7188 13.125L36.6095 14.0626C36.5157 14.1407 36.375 14.125 36.297 14.0313Z"/><path id="vector_22" fill="white" d="M36.2817 14.047C36.188 13.9376 36.2036 13.7813 36.2973 13.7033L37.4066 12.7657C37.5003 12.672 37.6566 12.6876 37.7503 12.797C37.8442 12.9063 37.8285 13.0626 37.7348 13.1407L36.6254 14.0783C36.5318 14.1718 36.3754 14.1563 36.2819 14.047H36.2817ZM37.7192 12.8126C37.641 12.7189 37.516 12.7189 37.4224 12.7813L36.313 13.7189C36.2349 13.797 36.2193 13.922 36.2973 14.0157C36.3754 14.1094 36.5005 14.1094 36.5941 14.047L37.7035 13.1094C37.7972 13.0313 37.7972 12.9063 37.7192 12.8126Z"/><path id="vector_23" fill="#F3F3F3" d="M35.6722 16.2814C35.5942 16.172 35.6255 16.0314 35.7348 15.9688L38.4534 14.1563C38.5627 14.0938 38.7034 14.125 38.7658 14.2189C38.844 14.3283 38.8127 14.4689 38.7034 14.5313L35.9848 16.3438C35.8909 16.4064 35.7503 16.3751 35.6722 16.2814V16.2814Z"/><path id="vector_24" fill="white" d="M35.6566 16.2813C35.5786 16.1719 35.6098 16.0156 35.7192 15.9376L38.4379 14.125C38.5473 14.0469 38.7036 14.0782 38.7816 14.2032C38.8598 14.3126 38.8284 14.4689 38.7192 14.5468L36.0005 16.3595C35.891 16.4377 35.7348 16.4064 35.6566 16.2814V16.2813ZM38.7503 14.2345C38.6879 14.1406 38.5629 14.1093 38.4692 14.1719L35.7503 15.9843C35.6568 16.0469 35.6253 16.1719 35.7036 16.2813C35.766 16.375 35.891 16.4063 35.9848 16.3438L38.7036 14.5313C38.7973 14.4532 38.8129 14.3281 38.7503 14.2345Z"/><path id="vector_25" fill="#F3F3F3" d="M38.0007 16.6094C37.9381 16.4999 37.9694 16.3594 38.0787 16.2968L39.3444 15.5781C39.4537 15.5156 39.5944 15.5625 39.6568 15.6717C39.7194 15.7812 39.6881 15.9217 39.5787 15.9843L38.3131 16.7031C38.2037 16.7655 38.0631 16.7188 38.0005 16.6092L38.0007 16.6094Z"/><path id="vector_26" fill="white" d="M37.985 16.625C37.9224 16.5 37.9537 16.3593 38.0631 16.2969L39.3288 15.5782C39.4381 15.5156 39.5944 15.5625 39.6568 15.6717C39.7194 15.7969 39.6881 15.9375 39.5788 15.9999L38.3131 16.7188C38.2037 16.7813 38.0474 16.7343 37.985 16.625V16.625ZM39.6412 15.6875C39.5788 15.5781 39.4538 15.5469 39.3601 15.6093L38.0944 16.3282C38.0007 16.3906 37.9694 16.5156 38.0162 16.6093C38.0787 16.7187 38.2037 16.75 38.2975 16.6875L39.5631 15.9686C39.6568 15.9219 39.6881 15.7969 39.6412 15.6875V15.6875Z"/><path id="vector_27" fill="#F3F3F3" d="M36.9533 18.6875C36.9066 18.5625 36.9533 18.4375 37.0783 18.3908L40.0939 17.1408C40.2033 17.0939 40.3439 17.1563 40.3907 17.2656C40.4376 17.3906 40.3907 17.5156 40.2657 17.5624L37.2503 18.8124C37.1408 18.8593 37.0003 18.8124 36.9533 18.6875Z"/><path id="vector_28" fill="white" d="M36.9377 18.7031C36.8909 18.5783 36.9377 18.4376 37.0627 18.375L40.0783 17.1251C40.1384 17.1024 40.205 17.1045 40.2636 17.1309C40.3221 17.1573 40.3679 17.2057 40.3907 17.2657C40.4377 17.3907 40.3907 17.5314 40.2657 17.5938L37.2503 18.8437C37.1902 18.8664 37.1236 18.8644 37.065 18.8381C37.0064 18.8117 36.9606 18.7633 36.9377 18.7033V18.7031ZM40.3596 17.2814C40.3127 17.172 40.1877 17.1251 40.094 17.1564L37.0784 18.4063C36.969 18.4531 36.9221 18.5783 36.969 18.6876C37.0158 18.797 37.1408 18.8439 37.2346 18.8126L40.2501 17.5627C40.3596 17.5159 40.4065 17.3907 40.3596 17.2814Z"/><path id="vector_29" fill="#F3F3F3" d="M39.1561 19.469C39.1094 19.3438 39.1718 19.219 39.2968 19.172L40.6716 18.7188C40.781 18.672 40.9216 18.7501 40.9529 18.8594C40.9997 18.9844 40.9373 19.1094 40.8123 19.1564L39.4374 19.6096C39.3281 19.6564 39.2031 19.594 39.1561 19.4688V19.469Z"/><path id="vector_30" fill="white" d="M39.1403 19.4843C39.0936 19.3593 39.156 19.2187 39.2968 19.1719L40.6715 18.7187C40.7965 18.6719 40.9371 18.75 40.984 18.8751C41.0308 19 40.9684 19.1406 40.8276 19.1875L39.4529 19.6408C39.3279 19.6719 39.1873 19.6093 39.1403 19.4843ZM40.9527 18.8908C40.9215 18.7812 40.7965 18.7187 40.6871 18.75L39.3123 19.2032C39.2029 19.2343 39.156 19.3593 39.1873 19.4688C39.2186 19.5782 39.3435 19.6406 39.4529 19.6093L40.8278 19.1563C40.9371 19.1095 40.984 19 40.9527 18.8906V18.8908Z"/><path id="vector_31" fill="#F3F3F3" d="M37.7501 21.3282C37.7188 21.2032 37.7968 21.0782 37.9218 21.0625L41.1248 20.4376C41.2497 20.4063 41.3592 20.5 41.3903 20.625C41.4216 20.75 41.3435 20.875 41.2185 20.8906L38.0155 21.5156C37.8905 21.5312 37.7656 21.4531 37.7499 21.3282H37.7501Z"/><path id="vector_32" fill="white" d="M37.719 21.3284C37.6877 21.1877 37.7814 21.0627 37.9064 21.0314L41.1096 20.4064C41.2346 20.3751 41.3596 20.4689 41.3907 20.6096C41.422 20.7501 41.3283 20.8751 41.2033 20.9064L38.0001 21.5314C37.8753 21.5627 37.7501 21.469 37.719 21.3282V21.3284ZM41.3596 20.6251C41.3439 20.5157 41.2346 20.4377 41.1252 20.4533L37.922 21.0783C37.8127 21.094 37.7346 21.2188 37.7657 21.3284C37.7814 21.4377 37.8907 21.5158 38.0003 21.5002L41.2033 20.8751C41.3127 20.8438 41.3907 20.7345 41.3596 20.6251Z"/><path id="vector_33" fill="#F3F3F3" d="M39.75 22.5312C39.7344 22.4062 39.8125 22.2968 39.9375 22.2812L41.3749 22.1092C41.4999 22.0937 41.6094 22.1875 41.6249 22.3125C41.6405 22.4375 41.5624 22.5469 41.4374 22.5625L39.9999 22.7343C39.8905 22.75 39.7655 22.6562 39.7499 22.5312H39.75Z"/><path id="vector_34" fill="white" d="M39.7341 22.5313C39.7185 22.3906 39.8122 22.2656 39.9372 22.25L41.3745 22.0782C41.4995 22.0626 41.6245 22.1563 41.6402 22.2969C41.6558 22.4376 41.5621 22.5626 41.4371 22.5782L39.9996 22.75C39.8748 22.7656 39.7496 22.6719 39.7341 22.5313ZM41.6245 22.3126C41.609 22.2032 41.4997 22.1094 41.3902 22.125L39.9528 22.2969C39.8435 22.3126 39.7653 22.4219 39.7809 22.5313C39.7965 22.6406 39.9059 22.7345 40.0152 22.7188L41.4528 22.5469C41.5621 22.5313 41.6402 22.4219 41.6247 22.3126H41.6245Z"/><path id="vector_35" fill="#F3F3F3" d="M38 24.0469C38 23.9219 38.0935 23.8126 38.2187 23.8126H41.4844C41.6094 23.8126 41.7031 23.9219 41.7031 24.0469C41.7031 24.1719 41.6094 24.2812 41.4844 24.2812H38.2187C38.0937 24.2812 38 24.1719 38 24.0469Z"/><path id="vector_36" fill="white" d="M37.9844 24.047C37.9844 23.9063 38.0937 23.797 38.2187 23.797H41.4844C41.6094 23.797 41.7187 23.9063 41.7187 24.047C41.7187 24.1876 41.6094 24.297 41.4844 24.297H38.2187C38.0937 24.297 37.9844 24.1876 37.9844 24.047ZM41.6874 24.0626C41.6874 23.9533 41.5937 23.8439 41.4842 23.8439H38.2189C38.1095 23.8439 38.0157 23.9375 38.0157 24.0626C38.0157 24.172 38.1095 24.2813 38.2189 24.2813H41.4845C41.5939 24.2657 41.6876 24.172 41.6876 24.0626H41.6874Z"/><path id="vector_37" fill="#F3F3F3" d="M39.7345 25.625C39.75 25.5 39.8439 25.4062 39.9689 25.4062L41.422 25.5156C41.5469 25.5312 41.6406 25.6406 41.6249 25.7656C41.6094 25.8906 41.5156 25.9843 41.3906 25.9843L39.9376 25.875C39.8282 25.8593 39.7344 25.75 39.7344 25.625H39.7345Z"/><path id="vector_38" fill="white" d="M39.7188 25.6251C39.7344 25.4845 39.8438 25.3907 39.9688 25.3907L41.4221 25.5001C41.547 25.5157 41.6564 25.6251 41.6407 25.7657C41.6252 25.9064 41.5157 26.0001 41.3907 26.0001L39.9375 25.8907C39.8125 25.8751 39.7188 25.7501 39.7188 25.6251ZM41.6252 25.7657C41.6407 25.6564 41.547 25.547 41.4376 25.547L39.9843 25.4377C39.8751 25.4377 39.7812 25.5157 39.7655 25.6409C39.75 25.7501 39.8438 25.8595 39.9531 25.8595L41.4065 25.9688C41.5157 25.9688 41.6096 25.8753 41.6252 25.7657V25.7657Z"/><path id="vector_39" fill="#F3F3F3" d="M37.7188 26.7657C37.7501 26.6407 37.8594 26.5624 37.9844 26.5783L41.1875 27.2189C41.3125 27.25 41.3908 27.3594 41.3595 27.4844C41.3282 27.6094 41.2188 27.6876 41.0938 27.672L37.8906 27.0313C37.7812 27.0157 37.7031 26.8907 37.7188 26.7657V26.7657Z"/><path id="vector_40" fill="white" d="M37.7032 26.7656C37.7345 26.625 37.8595 26.5469 37.9845 26.5624L41.1878 27.2032C41.3128 27.2343 41.4065 27.3593 41.3752 27.4999C41.3441 27.6405 41.2191 27.7188 41.0941 27.7031L37.8906 27.0625C37.7656 27.0313 37.6875 26.9063 37.7032 26.7658V26.7656ZM41.3441 27.4999C41.3597 27.3906 41.2973 27.2812 41.1878 27.2499L37.9843 26.6094C37.8751 26.5939 37.7656 26.6563 37.7343 26.7813C37.7188 26.8906 37.7812 27 37.8908 27.0313L41.0941 27.6718C41.2191 27.6875 41.3128 27.6093 41.3441 27.4999Z"/><path id="vector_41" fill="#F3F3F3" d="M39.1253 28.6406C39.1324 28.6109 39.1454 28.5829 39.1634 28.5581C39.1814 28.5334 39.2041 28.5125 39.2302 28.4965C39.2563 28.4806 39.2853 28.4699 39.3156 28.4652C39.3458 28.4604 39.3767 28.4617 39.4064 28.4689L40.8127 28.8594C40.9377 28.8907 41.0001 29.0158 40.9689 29.1407C40.9618 29.1705 40.9488 29.1985 40.9308 29.2233C40.9128 29.2481 40.8901 29.269 40.864 29.285C40.8378 29.301 40.8088 29.3116 40.7786 29.3164C40.7483 29.3211 40.7174 29.3199 40.6877 29.3126L39.2814 28.922C39.1564 28.8907 39.094 28.7657 39.1251 28.6406H39.1253Z"/><path id="vector_42" fill="white" d="M39.1093 28.6407C39.1406 28.5157 39.2813 28.422 39.4063 28.4689L40.8125 28.8593C40.9375 28.8906 41.0158 29.0312 40.9845 29.1562C40.9532 29.2812 40.8125 29.3749 40.6875 29.3281L39.2813 28.9376C39.1563 28.9063 39.0781 28.7813 39.1095 28.6408L39.1093 28.6407ZM40.9375 29.1562C40.9688 29.0469 40.9062 28.9219 40.7969 28.8906L39.3906 28.5C39.2813 28.4688 39.1719 28.5313 39.1406 28.6563C39.1095 28.7656 39.1719 28.8906 39.2813 28.9219L40.6875 29.3125C40.7969 29.3281 40.9062 29.2657 40.9375 29.1562Z"/><path id="vector_43" fill="#F3F3F3" d="M36.9222 29.3907C36.9689 29.2657 37.1097 29.2187 37.2189 29.2657L40.2346 30.5156C40.344 30.5624 40.4064 30.7032 40.3596 30.8124C40.3127 30.9375 40.172 30.9843 40.0627 30.9375L37.0471 29.6876C36.9222 29.6408 36.8752 29.5 36.9222 29.3908V29.3907Z"/><path id="vector_44" fill="white" d="M36.9065 29.375C36.9293 29.315 36.9751 29.2664 37.0337 29.2401C37.0923 29.2137 37.1589 29.2116 37.219 29.2343L40.2346 30.4844C40.3596 30.5313 40.4063 30.672 40.3596 30.8126C40.3367 30.8727 40.2909 30.9212 40.2324 30.9476C40.1738 30.9739 40.1071 30.976 40.047 30.9533L37.0315 29.7032C36.9065 29.6406 36.8597 29.5 36.9065 29.375ZM40.3283 30.797C40.3751 30.6876 40.3283 30.5626 40.2189 30.5157L37.2034 29.2656C37.094 29.2189 36.9847 29.2813 36.9377 29.3906C36.891 29.5 36.9377 29.625 37.0471 29.6719L40.0626 30.922C40.172 30.9533 40.297 30.9063 40.3283 30.797Z"/><path id="vector_45" fill="#F3F3F3" d="M37.9372 31.5C37.9998 31.3906 38.1246 31.3437 38.2339 31.3906L39.5307 32.047C39.64 32.0937 39.6869 32.2344 39.6245 32.3594C39.562 32.4688 39.437 32.5159 39.3276 32.4688L38.0311 31.8126C37.9216 31.75 37.8746 31.6093 37.9372 31.5Z"/><path id="vector_46" fill="white" d="M37.9221 31.4845C37.9846 31.3595 38.1253 31.3127 38.2503 31.3751L39.5471 32.0314C39.6721 32.094 39.719 32.2347 39.6565 32.3595C39.594 32.4845 39.4532 32.5314 39.3284 32.4689L38.0316 31.8127C37.9064 31.7659 37.8596 31.6095 37.9221 31.4845V31.4845ZM39.6097 32.3439C39.6565 32.2345 39.6252 32.1095 39.5158 32.0627L38.219 31.4064C38.1251 31.3596 38.0003 31.4064 37.9377 31.5001C37.8909 31.6095 37.9221 31.7345 38.0314 31.7814L39.3282 32.4377C39.4377 32.4845 39.5627 32.4534 39.6097 32.3439Z"/><path id="vector_47" fill="#F3F3F3" d="M35.641 31.7969C35.7192 31.6875 35.8442 31.6563 35.9536 31.7343L38.6724 33.5469C38.7817 33.6093 38.7974 33.7501 38.7349 33.8593C38.6567 33.9688 38.5317 34 38.4223 33.9219L35.7036 32.1093C35.5942 32.0313 35.5629 31.8906 35.641 31.7969Z"/><path id="vector_48" fill="white" d="M35.6248 31.7812C35.7031 31.6719 35.8594 31.6406 35.9687 31.7032L38.6876 33.5156C38.7969 33.5936 38.8282 33.7343 38.75 33.8593C38.6719 33.9688 38.5156 33.9999 38.4064 33.9375L35.6874 32.1249C35.5624 32.0469 35.5468 31.8906 35.6248 31.7812ZM38.7032 33.8436C38.7656 33.7501 38.75 33.6093 38.6564 33.5468L35.9374 31.7343C35.8437 31.6719 35.7187 31.7032 35.6561 31.7969C35.5937 31.8906 35.6094 32.0312 35.7029 32.0936L38.4219 33.9062C38.5156 33.9688 38.6406 33.9375 38.7032 33.8438V33.8436Z"/><path id="vector_49" fill="#F3F3F3" d="M36.219 34.0625C36.2971 33.9687 36.4377 33.9375 36.5314 34.0158L37.6721 34.9063C37.7658 34.9843 37.7814 35.125 37.7034 35.2189C37.6253 35.3124 37.4847 35.3439 37.3908 35.2656L36.2501 34.375C36.1566 34.2969 36.1408 34.1563 36.219 34.0625V34.0625Z"/><path id="vector_50" fill="white" d="M36.2031 34.047C36.2812 33.9377 36.4375 33.922 36.5468 34.0003L37.6874 34.8908C37.7968 34.9688 37.8124 35.1251 37.7342 35.2345C37.6561 35.344 37.4998 35.3595 37.3907 35.2814L36.2499 34.3908C36.1406 34.3127 36.1251 34.1564 36.2031 34.047ZM37.7031 35.219C37.7811 35.1251 37.7655 35.0001 37.6718 34.9221L36.5312 34.0314C36.4375 33.969 36.3125 33.9846 36.2344 34.0782C36.1562 34.172 36.1718 34.297 36.2655 34.3751L37.4061 35.2658C37.4998 35.3284 37.6248 35.3125 37.7029 35.219H37.7031Z"/><path id="vector_51" fill="#F3F3F3" d="M33.8906 33.9063C33.9845 33.8126 34.1251 33.8126 34.2032 33.9063L36.5156 36.2031C36.6095 36.297 36.5939 36.4376 36.5156 36.5157C36.4221 36.6094 36.2813 36.6094 36.2032 36.5157L33.8906 34.2189C33.8125 34.1407 33.8125 33.9844 33.8906 33.9063V33.9063Z"/><path id="vector_52" fill="white" d="M33.8906 33.8906C33.9365 33.8455 33.9982 33.8202 34.0626 33.8202C34.1269 33.8202 34.1886 33.8455 34.2345 33.8906L36.547 36.1873C36.5921 36.2332 36.6174 36.2949 36.6174 36.3592C36.6174 36.4236 36.5921 36.4853 36.547 36.5312C36.5012 36.5762 36.4394 36.6015 36.3751 36.6015C36.3109 36.6015 36.2491 36.5762 36.2033 36.5312L33.8906 34.2344C33.7813 34.1406 33.7813 33.9845 33.8906 33.8906ZM36.5157 36.4999C36.5939 36.4218 36.5939 36.2812 36.5157 36.2031L34.2032 33.9062C34.1251 33.8282 33.9845 33.8282 33.9064 33.9062C33.8282 33.9843 33.8282 34.1249 33.9064 34.203L36.2189 36.4999C36.297 36.5937 36.4222 36.5937 36.5157 36.4999Z"/><path id="vector_53" fill="#F3F3F3" d="M34.0315 36.2343C34.1253 36.1562 34.2658 36.1562 34.344 36.2499L35.2973 37.3437C35.3752 37.4375 35.3597 37.5782 35.2658 37.6562C35.1723 37.7343 35.0315 37.7343 34.9534 37.6406L34.0002 36.5469C33.9221 36.4688 33.9377 36.3282 34.0315 36.2343V36.2343Z"/><path id="vector_54" fill="white" d="M34.0163 36.2343C34.1256 36.1408 34.2663 36.1563 34.3598 36.25L35.313 37.3437C35.4068 37.4375 35.3911 37.5937 35.2818 37.6875C35.1724 37.7813 35.0318 37.7656 34.938 37.6719L33.9848 36.5782C33.9068 36.4688 33.9068 36.3126 34.0161 36.2343H34.0163ZM35.2663 37.6563C35.3598 37.5782 35.3598 37.453 35.2974 37.3595L34.3442 36.2656C34.2661 36.1876 34.1411 36.1719 34.0474 36.25C33.9537 36.3282 33.9537 36.4532 34.0161 36.5467L34.9693 37.6406C35.0474 37.7343 35.1726 37.7343 35.2661 37.6563H35.2663Z"/><path id="vector_55" fill="#F3F3F3" d="M31.7817 35.6407C31.891 35.5626 32.0317 35.5939 32.0943 35.7033L33.9067 38.4063C33.9692 38.5156 33.938 38.6563 33.8442 38.7189C33.7349 38.7969 33.5942 38.7656 33.5316 38.6563L31.7191 35.9531C31.6565 35.8439 31.6878 35.7031 31.7815 35.6407H31.7817Z"/><path id="vector_56" fill="white" d="M31.7817 35.625C31.8911 35.5469 32.0474 35.5782 32.1254 35.6876L33.9379 38.3906C34.0159 38.4998 33.9846 38.6561 33.8598 38.7342C33.7503 38.8124 33.5942 38.7811 33.516 38.6717L31.7037 35.9687C31.6256 35.8439 31.6569 35.7032 31.7817 35.6252V35.625ZM33.8442 38.703C33.9379 38.6405 33.9691 38.5155 33.9066 38.4218L32.0943 35.7187C32.0317 35.6252 31.9067 35.6094 31.7975 35.6719C31.7037 35.7344 31.6724 35.8593 31.735 35.9532L33.5472 38.6561C33.6098 38.7342 33.7505 38.7655 33.844 38.7029L33.8442 38.703Z"/><path id="vector_57" fill="#F3F3F3" d="M31.4527 37.9531C31.5621 37.8906 31.7027 37.9219 31.7651 38.0313L32.484 39.2969C32.5464 39.4063 32.4995 39.5469 32.3901 39.6094C32.2808 39.6719 32.1401 39.6407 32.0777 39.5313L31.359 38.2656C31.3121 38.1563 31.3434 38.0156 31.4526 37.9532L31.4527 37.9531Z"/><path id="vector_58" fill="white" d="M31.4531 37.9376C31.5781 37.875 31.7188 37.9063 31.7812 38.0157L32.4999 39.2815C32.5625 39.3908 32.5312 39.5471 32.4064 39.6096C32.2812 39.6721 32.1406 39.6408 32.0781 39.5315L31.3594 38.2657C31.2968 38.1563 31.3281 38.0157 31.453 37.9376H31.4531ZM32.3906 39.5941C32.4844 39.5315 32.5312 39.4065 32.4688 39.3127L31.7501 38.047C31.6875 37.9533 31.5625 37.922 31.4688 37.9687C31.3749 38.0313 31.3281 38.1563 31.3906 38.2501L32.1094 39.5158C32.1562 39.6096 32.2968 39.6565 32.3906 39.5939V39.5941Z"/><path id="vector_59" fill="#F3F3F3" d="M29.375 36.9219C29.5 36.8752 29.625 36.9219 29.6719 37.0313L30.9376 40.0469C30.9844 40.1562 30.922 40.2969 30.8126 40.3436C30.7032 40.3906 30.5626 40.3436 30.5158 40.2343L29.2502 37.2189C29.2032 37.1093 29.2656 36.9689 29.375 36.9219Z"/><path id="vector_60" fill="white" d="M29.3748 36.9063C29.4998 36.8596 29.6404 36.9063 29.703 37.0313L30.9686 40.047C30.9913 40.1071 30.9892 40.1737 30.9628 40.2322C30.9365 40.2908 30.888 40.3365 30.828 40.3594C30.703 40.4063 30.5623 40.3594 30.4999 40.2344L29.2343 37.2189C29.1874 37.1094 29.25 36.9689 29.3748 36.9063V36.9063ZM30.7967 40.3283C30.906 40.2813 30.953 40.1563 30.906 40.0626L29.6404 37.047C29.5937 36.9376 29.4687 36.8907 29.3593 36.9376C29.25 36.9844 29.2029 37.1094 29.25 37.2033L30.5154 40.2189C30.578 40.3283 30.6873 40.375 30.7967 40.3283Z"/><path id="vector_61" fill="#F3F3F3" d="M28.6091 39.1407C28.7343 39.0939 28.8591 39.1563 28.9061 39.2813L29.3593 40.6564C29.4061 40.7657 29.328 40.9064 29.2186 40.9377C29.0936 40.9844 28.9686 40.922 28.9219 40.797L28.4686 39.422C28.4219 39.3126 28.4843 39.1876 28.6093 39.1407H28.6091Z"/><path id="vector_62" fill="white" d="M28.594 39.1251C28.6541 39.1024 28.7207 39.1045 28.7793 39.1309C28.8378 39.1573 28.8836 39.2057 28.9064 39.2657L29.3597 40.6407C29.4065 40.7657 29.3284 40.9063 29.2033 40.9532C29.1432 40.9759 29.0765 40.9738 29.018 40.9474C28.9594 40.9211 28.9137 40.8726 28.8908 40.8126L28.4377 39.4377C28.4064 39.3127 28.469 39.172 28.594 39.1251ZM29.2034 40.9218C29.3128 40.8907 29.3752 40.7657 29.3441 40.6563L28.8908 39.2814C28.8597 39.172 28.7346 39.1251 28.6253 39.1564C28.5157 39.1877 28.4533 39.3127 28.4846 39.422L28.9377 40.7969C28.9457 40.8235 28.9592 40.848 28.9772 40.869C28.9953 40.89 29.0176 40.9069 29.0427 40.9187C29.0677 40.9305 29.095 40.9369 29.1227 40.9374C29.1504 40.938 29.1779 40.9327 29.2034 40.9219V40.9218Z"/><path id="vector_63" fill="#F3F3F3" d="M26.7659 37.7189C26.8907 37.6876 27.0159 37.7657 27.0314 37.8907L27.6878 41.094C27.7191 41.2188 27.6252 41.3284 27.5002 41.3595C27.3753 41.3908 27.2502 41.3127 27.2347 41.1877L26.5781 37.9844C26.5626 37.875 26.6407 37.75 26.7657 37.7187L26.7659 37.7189Z"/><path id="vector_64" fill="white" d="M26.7658 37.7029C26.9063 37.6717 27.0312 37.7654 27.0625 37.8905L27.7187 41.0939C27.75 41.2188 27.6561 41.3595 27.5312 41.3751C27.3905 41.4064 27.2656 41.3127 27.2344 41.1877L26.5781 37.9842C26.547 37.8592 26.6252 37.7341 26.7656 37.703L26.7658 37.7029ZM27.4999 41.3438C27.6094 41.3283 27.6874 41.2188 27.6718 41.0938L27.0156 37.8905C27.0001 37.7811 26.8751 37.703 26.7656 37.7341C26.6563 37.7498 26.5782 37.8592 26.5939 37.9842L27.2501 41.1877C27.2812 41.297 27.3905 41.3595 27.5 41.344L27.4999 41.3438Z"/><path id="vector_65" fill="#F3F3F3" d="M25.5788 39.7499C25.7038 39.7343 25.8131 39.8125 25.8444 39.9375L26.0318 41.3749C26.0475 41.4998 25.9538 41.6092 25.8286 41.6248C25.7038 41.6405 25.5944 41.5624 25.5631 41.4374L25.3757 39.9999C25.3601 39.8749 25.4538 39.7656 25.5788 39.7499Z"/><path id="vector_66" fill="white" d="M25.5779 39.7345C25.7186 39.719 25.8437 39.8127 25.8594 39.9377L26.0469 41.3752C26.0625 41.5002 25.9688 41.6252 25.8281 41.6408C25.6873 41.6565 25.5623 41.5628 25.5466 41.4376L25.3591 40.0001C25.3435 39.8751 25.4372 39.7501 25.5779 39.7345ZM25.8124 41.6096C25.9218 41.5941 26.0157 41.4845 26.0001 41.3752L25.8124 39.9377C25.7967 39.8283 25.6873 39.7501 25.5779 39.7658C25.4685 39.7814 25.3746 39.8908 25.3903 40.0001L25.5779 41.4378C25.5936 41.5471 25.703 41.6252 25.8124 41.6096Z"/><path id="vector_67" fill="#F3F3F3" d="M23.9687 37.9999C24.0937 37.9999 24.2031 38.0938 24.2031 38.2188V41.4843C24.2031 41.6093 24.0937 41.7032 23.9687 41.7032C23.8437 41.7032 23.7344 41.6093 23.7344 41.4843V38.2188C23.75 38.0938 23.8437 37.9999 23.9687 37.9999Z"/><path id="vector_68" fill="white" d="M23.9687 37.9842C24.1094 37.9842 24.2187 38.0935 24.2187 38.2185V41.4842C24.2187 41.6092 24.1094 41.7185 23.9687 41.7185C23.8281 41.7185 23.7188 41.6092 23.7188 41.4842V38.2187C23.7188 38.0937 23.8437 37.9842 23.9687 37.9842ZM23.9687 41.6874C24.0781 41.6874 24.1874 41.5937 24.1874 41.4842V38.2187C24.1874 38.1092 24.0937 38.0155 23.9687 38.0155C23.8594 38.0155 23.75 38.1092 23.75 38.2187V41.4842C23.7655 41.5937 23.8594 41.6874 23.9687 41.6874Z"/><path id="vector_69" fill="#F3F3F3" d="M22.4062 39.75C22.5312 39.7656 22.6249 39.8594 22.6249 39.9843L22.5156 41.4376C22.5001 41.5626 22.3906 41.6563 22.2656 41.6408C22.1406 41.625 22.0469 41.5313 22.0469 41.4063L22.1562 39.9531C22.1719 39.8282 22.2812 39.7344 22.4062 39.75Z"/><path id="vector_70" fill="white" d="M22.4062 39.7345C22.5469 39.7501 22.6406 39.8595 22.6406 39.9845L22.5312 41.4378C22.5156 41.5628 22.4062 41.6721 22.2656 41.6565C22.1251 41.6408 22.0312 41.5315 22.0312 41.4065L22.1406 39.9532C22.1562 39.8127 22.2656 39.719 22.4062 39.7345ZM22.2656 41.6252C22.375 41.6252 22.4845 41.5471 22.4845 41.4378L22.5938 39.9845C22.5938 39.8751 22.5156 39.7814 22.3906 39.7657C22.2812 39.7657 22.1719 39.8438 22.1719 39.9533L22.0625 41.4065C22.0625 41.5158 22.1562 41.6097 22.2658 41.6252H22.2656Z"/><path id="vector_71" fill="#F3F3F3" d="M21.2344 37.7187C21.3594 37.7498 21.4375 37.8592 21.4218 37.9842L20.7812 41.1877C20.7499 41.3127 20.6406 41.3909 20.5156 41.3595C20.3906 41.3283 20.3125 41.219 20.3282 41.0938L20.9688 37.8905C20.9844 37.7811 21.1094 37.703 21.2344 37.7187Z"/><path id="vector_72" fill="white" d="M21.2345 37.7029C21.375 37.7341 21.4532 37.8593 21.4375 37.9841L20.7969 41.1875C20.7656 41.3125 20.6406 41.4062 20.5001 41.3749C20.3595 41.3436 20.2813 41.2186 20.2969 41.0936L20.9375 37.8904C20.9688 37.7654 21.0938 37.6872 21.2343 37.703L21.2345 37.7029ZM20.5001 41.3436C20.6095 41.3593 20.7188 41.2969 20.7501 41.1875L21.3906 37.9841C21.4063 37.8748 21.3438 37.7654 21.2188 37.7341C21.1095 37.7187 21.0001 37.7811 20.9688 37.8906L20.3282 41.0936C20.3125 41.2186 20.3906 41.3125 20.5001 41.3436V41.3436Z"/><path id="vector_73" fill="#F3F3F3" d="M19.36 39.1253C19.4851 39.1566 19.5632 39.2816 19.5319 39.4065L19.1413 40.8127C19.1101 40.9377 18.9851 41.0001 18.8601 40.969C18.8304 40.9618 18.8023 40.9489 18.7775 40.9308C18.7528 40.9128 18.7318 40.8901 18.7158 40.864C18.6999 40.8379 18.6892 40.8088 18.6845 40.7786C18.6797 40.7483 18.681 40.7175 18.6882 40.6877L19.0788 39.2816C19.1101 39.1566 19.2351 39.0942 19.3601 39.1253H19.36Z"/><path id="vector_74" fill="white" d="M19.3598 39.1098C19.485 39.1409 19.5787 39.2816 19.5317 39.4066L19.1411 40.8128C19.11 40.9378 18.9693 41.016 18.8443 40.9846C18.7193 40.9535 18.6256 40.8128 18.6724 40.6878L19.063 39.2816C19.0943 39.1566 19.2193 39.0783 19.3598 39.1096V39.1098ZM18.8443 40.9378C18.9537 40.9691 19.0787 40.9065 19.11 40.7972L19.5004 39.3909C19.5317 39.2816 19.4693 39.1722 19.3443 39.1409C19.235 39.1096 19.11 39.1722 19.0787 39.2816L18.688 40.6878C18.6724 40.7972 18.7348 40.9065 18.8443 40.9378Z"/><path id="vector_75" fill="#F3F3F3" d="M18.5939 36.922C18.7189 36.9687 18.7657 37.1094 18.7189 37.2187L17.4689 40.2344C17.4222 40.3439 17.2814 40.4063 17.1722 40.3439C17.0627 40.2813 17.0001 40.1563 17.047 40.047L18.297 37.0313C18.3438 36.922 18.4846 36.8594 18.5937 36.922H18.5939Z"/><path id="vector_76" fill="white" d="M18.5939 36.9062C18.6539 36.9291 18.7024 36.9748 18.7288 37.0334C18.7551 37.092 18.7572 37.1587 18.7345 37.2188L17.4845 40.2342C17.4375 40.3592 17.2969 40.4062 17.1562 40.3592C17.0962 40.3363 17.0478 40.2906 17.0214 40.2321C16.995 40.1735 16.993 40.1069 17.0156 40.0468L18.2656 37.0312C18.3282 36.9062 18.4689 36.8438 18.5939 36.9062V36.9062ZM17.1719 40.3281C17.2812 40.3749 17.4063 40.3281 17.4532 40.2187L18.7032 37.2031C18.75 37.0938 18.6876 36.9843 18.5782 36.9375C18.4689 36.8907 18.3438 36.9375 18.2969 37.0468L17.0469 40.0624C17.0156 40.1562 17.0625 40.2812 17.1719 40.3281Z"/><path id="vector_77" fill="#F3F3F3" d="M16.484 37.9221C16.5933 37.9845 16.6401 38.1095 16.5933 38.2188L15.9371 39.5155C15.8745 39.6248 15.7495 39.6718 15.6245 39.6092C15.5151 39.5468 15.4684 39.4218 15.5151 39.3125L16.1716 38.0159C16.234 37.9064 16.359 37.8595 16.484 37.9221Z"/><path id="vector_78" fill="white" d="M16.4846 37.9064C16.6096 37.9688 16.6564 38.1096 16.594 38.2344L15.9377 39.5312C15.8751 39.6562 15.7345 39.7032 15.6096 39.6406C15.4846 39.5782 15.4377 39.4374 15.5003 39.3126L16.1564 38.0159C16.219 37.8907 16.3596 37.844 16.4846 37.9064ZM15.6253 39.6095C15.7346 39.6562 15.8596 39.625 15.9064 39.5156L16.5627 38.2189C16.6094 38.1251 16.5627 38.0001 16.469 37.9377C16.3596 37.8909 16.2346 37.922 16.1877 38.0314L15.5314 39.328C15.4846 39.4219 15.5314 39.5469 15.6253 39.6093V39.6095Z"/><path id="vector_79" fill="#F3F3F3" d="M16.1722 35.6095C16.2816 35.6876 16.3129 35.8282 16.2348 35.9219L14.4222 38.6254C14.3598 38.7346 14.219 38.7502 14.1098 38.6878C14.0005 38.6096 13.9692 38.4691 14.0472 38.3752L15.8598 35.6718C15.9222 35.5626 16.0629 35.5313 16.1722 35.6093V35.6095Z"/><path id="vector_80" fill="white" d="M16.1715 35.5938C16.2809 35.672 16.3122 35.8283 16.2496 35.9377L14.4371 38.641C14.3591 38.7502 14.2184 38.7814 14.0934 38.7034C13.9841 38.6251 13.9528 38.469 14.0152 38.3595L15.8278 35.6564C15.9059 35.547 16.0622 35.5158 16.1715 35.5938V35.5938ZM14.1091 38.6721C14.2026 38.7345 14.3434 38.7189 14.4058 38.6253L16.2185 35.922C16.2809 35.8283 16.2498 35.7033 16.1559 35.6408C16.0622 35.5783 15.9215 35.594 15.8591 35.6875L14.0465 38.3751C13.9841 38.469 14.0152 38.6095 14.1091 38.6719V38.6721Z"/><path id="vector_81" fill="#F3F3F3" d="M13.8908 36.1877C13.9847 36.2657 14.0158 36.4064 13.9377 36.5001L13.0315 37.6407C12.9534 37.7344 12.8128 37.75 12.719 37.672C12.6253 37.5939 12.5941 37.4533 12.6723 37.3594L13.5784 36.2188C13.6565 36.1253 13.7971 36.1095 13.8908 36.1877Z"/><path id="vector_82" fill="white" d="M13.9062 36.172C14.0155 36.2501 14.0312 36.4064 13.953 36.5157L13.0468 37.6564C12.9687 37.7658 12.8125 37.7814 12.7031 37.6877C12.5937 37.6095 12.5781 37.4533 12.6563 37.3438L13.5625 36.2033C13.6405 36.0938 13.7968 36.0783 13.9062 36.172ZM12.7344 37.6564C12.8279 37.7345 12.9531 37.719 13.0312 37.6251L13.9375 36.4844C14.0001 36.3909 13.9842 36.2657 13.8907 36.1876C13.7968 36.1094 13.6718 36.125 13.5938 36.2189L12.6875 37.3595C12.625 37.4533 12.6407 37.5938 12.7342 37.6564H12.7344Z"/><path id="vector_83" fill="#F3F3F3" d="M14.0469 33.8439C14.1406 33.9374 14.1406 34.0783 14.0469 34.1563L11.7345 36.4531C11.6407 36.547 11.5002 36.5313 11.422 36.4531C11.3439 36.375 11.3283 36.2187 11.422 36.1407L13.7187 33.8439C13.8125 33.75 13.9532 33.75 14.0469 33.8439V33.8439Z"/><path id="vector_84" fill="white" d="M14.0624 33.8283C14.1074 33.8741 14.1326 33.9358 14.1326 34C14.1326 34.0643 14.1074 34.126 14.0624 34.1718L11.7499 36.469C11.704 36.514 11.6423 36.5392 11.5781 36.5392C11.5139 36.5392 11.4522 36.514 11.4063 36.469C11.3612 36.4231 11.3359 36.3614 11.3359 36.297C11.3359 36.2327 11.3612 36.1709 11.4063 36.1251L13.7187 33.8283C13.7645 33.7832 13.8262 33.7579 13.8905 33.7579C13.9548 33.7579 14.0165 33.7832 14.0624 33.8283V33.8283ZM11.4218 36.4532C11.4999 36.5312 11.6405 36.5312 11.7186 36.4532L14.0311 34.1562C14.1093 34.0781 14.1093 33.9374 14.0311 33.8594C13.953 33.7812 13.8124 33.7812 13.7343 33.8594L11.4218 36.1562C11.3438 36.2343 11.3438 36.3594 11.4218 36.453V36.4532Z"/><path id="vector_85" fill="#F3F3F3" d="M11.7033 33.9689C11.7814 34.0625 11.7814 34.2033 11.6876 34.2813L10.5783 35.219C10.4846 35.2971 10.3439 35.2814 10.2657 35.1877C10.1876 35.0938 10.1876 34.9533 10.2814 34.8751L11.3907 33.9376C11.4846 33.8594 11.6251 33.875 11.7033 33.9689Z"/><path id="vector_86" fill="white" d="M11.7183 33.9531C11.812 34.0626 11.7964 34.2187 11.7027 34.297L10.5933 35.2343C10.4996 35.3282 10.3433 35.3125 10.2496 35.2032C10.1557 35.0937 10.1714 34.9376 10.2651 34.8593L11.3746 33.922C11.4682 33.8283 11.6246 33.8439 11.7182 33.9533L11.7183 33.9531ZM10.2807 35.1875C10.359 35.2812 10.484 35.2812 10.5775 35.2188L11.687 34.2813C11.7651 34.2033 11.7807 34.0781 11.7027 33.9846C11.6245 33.8907 11.4995 33.8907 11.4059 33.9533L10.2964 34.8906C10.2027 34.9687 10.2027 35.0938 10.2807 35.1874V35.1875Z"/><path id="vector_87" fill="#F3F3F3" d="M12.3286 31.7187C12.4066 31.8283 12.3753 31.9687 12.266 32.0313L9.54729 33.8438C9.43793 33.9062 9.29729 33.8749 9.23487 33.7812C9.15664 33.6719 9.18793 33.5312 9.29729 33.4687L12.0161 31.6563C12.11 31.5939 12.2505 31.625 12.3287 31.7187H12.3286Z"/><path id="vector_88" fill="white" d="M12.3441 31.7187C12.4222 31.8283 12.3909 31.9844 12.2816 32.0626L9.5629 33.875C9.45355 33.9532 9.29726 33.9218 9.2192 33.7969C9.14098 33.6876 9.17243 33.5313 9.28162 33.4532L12.0004 31.6407C12.1098 31.5626 12.2659 31.5939 12.344 31.7187H12.3441ZM9.25049 33.7656C9.31291 33.8594 9.43791 33.8906 9.53161 33.8282L12.2503 32.0157C12.3441 31.9533 12.3753 31.8283 12.2972 31.7189C12.2348 31.625 12.1098 31.5939 12.0159 31.6563L9.29726 33.4689C9.20356 33.5469 9.18791 33.6719 9.25049 33.7656V33.7656Z"/><path id="vector_89" fill="#F3F3F3" d="M10.0006 31.3907C10.0631 31.5 10.0318 31.6406 9.92249 31.7032L8.65683 32.4218C8.54747 32.4843 8.40682 32.4375 8.3444 32.3281C8.28182 32.2188 8.31311 32.0782 8.42247 32.0156L9.68813 31.297C9.79749 31.2344 9.93813 31.2813 10.0007 31.3907H10.0006Z"/><path id="vector_90" fill="white" d="M10.0163 31.375C10.0787 31.5 10.0474 31.6406 9.93809 31.7032L8.67246 32.4218C8.56311 32.4842 8.40682 32.4375 8.3444 32.3281C8.28182 32.2031 8.31311 32.0625 8.42247 31.9999L9.68809 31.2813C9.79745 31.2187 9.95374 31.2656 10.0162 31.375H10.0163ZM8.35989 32.3125C8.42247 32.4218 8.54746 32.4531 8.64117 32.3905L9.9068 31.6719C10.0005 31.6093 10.0318 31.4843 9.98503 31.3906C9.92245 31.2813 9.79745 31.25 9.70374 31.3126L8.43811 32.0312C8.3444 32.078 8.31311 32.2031 8.36005 32.3125H8.35989Z"/><path id="vector_91" fill="#F3F3F3" d="M11.0471 29.3126C11.0938 29.4376 11.0471 29.5627 10.9221 29.6094L7.90643 30.8594C7.79707 30.9064 7.65643 30.8439 7.60965 30.7344C7.56272 30.6094 7.60965 30.4844 7.73465 30.4377L10.7503 29.1876C10.8597 29.1409 11.0003 29.1876 11.0471 29.3126V29.3126Z"/><path id="vector_92" fill="white" d="M11.0627 29.297C11.1095 29.422 11.0627 29.5626 10.9377 29.6251L7.92207 30.875C7.86198 30.8977 7.79537 30.8956 7.73681 30.8692C7.67826 30.8429 7.63254 30.7944 7.60965 30.7344C7.56272 30.6094 7.60965 30.4688 7.73465 30.4063L10.7503 29.1563C10.8104 29.1337 10.877 29.1358 10.9356 29.1621C10.9941 29.1885 11.0398 29.237 11.0627 29.297V29.297ZM7.64078 30.7188C7.68772 30.8283 7.81272 30.8752 7.90643 30.8438L10.9221 29.5938C11.0314 29.547 11.0784 29.422 11.0314 29.3126C10.9847 29.2033 10.8597 29.1563 10.7658 29.1876L7.75014 30.4376C7.64078 30.4844 7.59401 30.6094 7.64078 30.7189V30.7188Z"/><path id="vector_93" fill="#F3F3F3" d="M8.84372 28.5313C8.89049 28.6563 8.82807 28.7813 8.70307 28.8281L7.32806 29.2813C7.21871 29.3281 7.07806 29.25 7.04677 29.1407C7 29.0157 7.06242 28.8907 7.18742 28.8439L8.56242 28.3907C8.67178 28.3439 8.79678 28.4063 8.84372 28.5313Z"/><path id="vector_94" fill="white" d="M8.85903 28.5157C8.90597 28.6407 8.84355 28.7813 8.7029 28.8283L7.32792 29.2814C7.20292 29.3282 7.06228 29.2501 7.01534 29.1251C6.96857 29.0001 7.03099 28.8594 7.17179 28.8126L8.54662 28.3594C8.67161 28.3282 8.81226 28.3907 8.85919 28.5158L8.85903 28.5157ZM7.0468 29.1096C7.07809 29.219 7.20308 29.2816 7.31244 29.2503L8.68742 28.797C8.79677 28.7659 8.84371 28.6408 8.81242 28.5315C8.78113 28.4221 8.65613 28.3595 8.54678 28.3908L7.17179 28.8441C7.06244 28.8909 7.01551 29.0002 7.0468 29.1096Z"/><path id="vector_95" fill="#F3F3F3" d="M10.2501 26.6719C10.2812 26.7969 10.2031 26.9219 10.0781 26.9375L6.87493 27.5625C6.74993 27.5938 6.64058 27.4999 6.60945 27.3749C6.57816 27.2499 6.65622 27.1249 6.78122 27.1093L9.98443 26.4843C10.1094 26.4688 10.2344 26.5469 10.2499 26.6719H10.2501Z"/><path id="vector_96" fill="white" d="M10.2814 26.6719C10.3127 26.8126 10.2189 26.9376 10.0939 26.9687L6.89072 27.5937C6.76572 27.625 6.64072 27.5313 6.60959 27.3906C6.5783 27.25 6.67201 27.125 6.79701 27.0939L10.0002 26.4689C10.1251 26.4376 10.2502 26.5313 10.2814 26.6719ZM6.64072 27.3751C6.65636 27.4843 6.76572 27.5626 6.87507 27.5469L10.0783 26.9219C10.1877 26.9063 10.2657 26.7813 10.2346 26.6719C10.2189 26.5626 10.1096 26.4844 10.0001 26.5L6.79701 27.125C6.68765 27.1563 6.60959 27.2656 6.64072 27.375V27.3751Z"/><path id="vector_97" fill="#F3F3F3" d="M8.25003 25.469C8.26552 25.5938 8.18745 25.7034 8.06245 25.719L6.62503 25.8908C6.49987 25.9065 6.39052 25.8127 6.37503 25.6875C6.35939 25.5627 6.43745 25.4533 6.56245 25.4375L8.00003 25.2657C8.10939 25.25 8.23439 25.3438 8.25003 25.469Z"/><path id="vector_98" fill="white" d="M8.26542 25.4688C8.28091 25.6093 8.1872 25.7343 8.0622 25.7499L6.62478 25.9218C6.49961 25.9375 6.37478 25.8438 6.35913 25.7032C6.34349 25.5625 6.43719 25.4375 6.56219 25.4219L7.99978 25.25C8.12461 25.2343 8.24978 25.3282 8.26526 25.4687L8.26542 25.4688ZM6.37461 25.6875C6.39026 25.7969 6.49978 25.8907 6.60913 25.8749L8.04655 25.7032C8.1559 25.6875 8.23413 25.5782 8.21849 25.4688C8.20284 25.3593 8.09349 25.2656 7.98413 25.2813L6.54655 25.4532C6.43719 25.4688 6.35913 25.5782 6.37461 25.6875V25.6875Z"/><path id="vector_99" fill="#F3F3F3" d="M9.99976 23.953C9.99976 24.0782 9.90621 24.1875 9.78105 24.1875H6.51558C6.39058 24.1875 6.29688 24.0782 6.29688 23.9532C6.29688 23.8282 6.39058 23.7187 6.51558 23.7187H9.78121C9.90621 23.7187 10.0001 23.8282 10.0001 23.9532L9.99976 23.953Z"/><path id="vector_100" fill="white" d="M10.0156 23.953C10.0156 24.0938 9.90609 24.203 9.78109 24.203H6.5156C6.3906 24.203 6.28125 24.0936 6.28125 23.953C6.28125 23.8125 6.3906 23.703 6.5156 23.703H9.78125C9.90625 23.703 10.0156 23.8125 10.0156 23.953ZM6.31238 23.9375C6.31238 24.0469 6.40609 24.1562 6.5156 24.1562H9.78109C9.89044 24.1562 9.98431 24.0625 9.98431 23.9375C9.98431 23.8282 9.89044 23.7186 9.78109 23.7186H6.5156C6.40625 23.7343 6.31254 23.8282 6.31254 23.9375H6.31238Z"/><path id="vector_101" fill="#E2E2E2" d="M8.26555 22.375C8.24974 22.5 8.15603 22.5937 8.03103 22.5937L6.57779 22.4844C6.45295 22.4687 6.35924 22.3594 6.37472 22.2344C6.39037 22.1094 6.48424 22.0157 6.60924 22.0157L8.06232 22.125C8.17168 22.1407 8.26555 22.25 8.26555 22.375Z"/><path id="vector_102" fill="white" d="M8.28068 22.375C8.26504 22.5156 8.15568 22.6094 8.03068 22.6094L6.57747 22.5C6.45263 22.4844 6.34327 22.375 6.35892 22.2344C6.3744 22.0939 6.48392 22 6.60892 22L8.06197 22.1094C8.18697 22.125 8.28068 22.25 8.28068 22.375ZM6.3744 22.2344C6.35892 22.3437 6.45263 22.4532 6.56198 22.4532L8.0152 22.5626C8.12439 22.5626 8.21826 22.4844 8.23391 22.3594C8.24955 22.25 8.15568 22.1406 8.04633 22.1406L6.59311 22.0313C6.48392 22.0313 6.39005 22.125 6.3744 22.2345V22.2344Z"/><path id="vector_103" fill="#F3F3F3" d="M10.2813 21.2343C10.25 21.3593 10.1407 21.4375 10.0157 21.4219L6.81262 20.7656C6.68762 20.7343 6.6094 20.625 6.64069 20.5C6.67198 20.375 6.78133 20.2968 6.90633 20.3126L10.1096 20.9532C10.2189 20.9843 10.297 21.1093 10.2813 21.2343V21.2343Z"/><path id="vector_104" fill="white" d="M10.297 21.2344C10.2657 21.375 10.1407 21.4532 10.0157 21.4376L6.81263 20.797C6.68763 20.7657 6.59392 20.6407 6.62521 20.5002C6.65634 20.3594 6.78134 20.2813 6.90634 20.297L10.1095 20.9376C10.2345 20.9689 10.3126 21.0939 10.297 21.2344V21.2344ZM6.65634 20.5C6.6407 20.6094 6.70312 20.7187 6.81263 20.75L10.0158 21.3907C10.1252 21.4063 10.2345 21.3439 10.2658 21.2187C10.2813 21.1094 10.2189 21 10.1094 20.9687L6.9065 20.3283C6.7815 20.3126 6.68779 20.3907 6.6565 20.5H6.65634Z"/><path id="vector_105" fill="#F3F3F3" d="M8.87525 19.3595C8.86808 19.3892 8.85511 19.4173 8.83708 19.442C8.81906 19.4668 8.79634 19.4877 8.77021 19.5037C8.74409 19.5196 8.71507 19.5303 8.68483 19.535C8.65458 19.5397 8.6237 19.5385 8.59395 19.5312L7.18765 19.1406C7.06265 19.1093 7.00023 18.9843 7.03136 18.8593C7.03853 18.8296 7.0515 18.8015 7.06952 18.7768C7.08754 18.7521 7.11027 18.7311 7.13639 18.7152C7.16252 18.6992 7.19153 18.6886 7.22178 18.6838C7.25202 18.6791 7.2829 18.6804 7.31265 18.6876L8.71896 19.0782C8.84396 19.1093 8.90638 19.2343 8.87525 19.3593V19.3595Z"/><path id="vector_106" fill="white" d="M8.89072 19.3595C8.85959 19.4843 8.71895 19.5781 8.59394 19.5312L7.18763 19.1406C7.06263 19.1093 6.9844 18.9687 7.01569 18.8438C7.04698 18.7187 7.18763 18.625 7.31263 18.6719L8.71895 19.0625C8.84395 19.0938 8.92218 19.2188 8.89072 19.3593V19.3595ZM7.06263 18.8435C7.03133 18.953 7.09392 19.078 7.20327 19.1091L8.60959 19.4998C8.71895 19.5311 8.8283 19.4685 8.85959 19.3435C8.89072 19.2341 8.8283 19.1091 8.71895 19.078L7.31263 18.6874C7.20327 18.6718 7.09392 18.7342 7.06263 18.8437V18.8435Z"/><path id="vector_107" fill="#F3F3F3" d="M11.0783 18.6096C11.0315 18.7344 10.8907 18.7813 10.7815 18.7344L7.7657 17.4844C7.65635 17.4376 7.59393 17.297 7.6407 17.1877C7.68764 17.0627 7.82828 17.0157 7.93764 17.0627L10.9533 18.3126C11.0783 18.3594 11.1252 18.5 11.0783 18.6094V18.6096Z"/><path id="vector_108" fill="white" d="M11.0941 18.6251C11.0712 18.6851 11.0255 18.7336 10.9669 18.76C10.9083 18.7863 10.8416 18.7884 10.7815 18.7657L7.76584 17.5157C7.64083 17.469 7.59406 17.3283 7.64083 17.1877C7.66372 17.1276 7.70947 17.0791 7.76806 17.0527C7.82665 17.0264 7.89331 17.0243 7.95342 17.047L10.9691 18.297C11.0941 18.3594 11.1409 18.5002 11.0941 18.6251V18.6251ZM7.67212 17.2033C7.62535 17.3127 7.67212 17.4377 7.78148 17.4844L10.7971 18.7344C10.9065 18.7813 11.0159 18.7188 11.0628 18.6094C11.1096 18.5001 11.0628 18.3751 10.9534 18.3283L7.93777 17.0783C7.82842 17.047 7.70342 17.094 7.67212 17.2033V17.2033Z"/><path id="vector_109" fill="#F3F3F3" d="M10.0631 16.5C10.0007 16.6094 9.87569 16.6563 9.76634 16.6094L8.4694 15.9532C8.36005 15.9063 8.31311 15.7656 8.37569 15.6406C8.43811 15.5312 8.56311 15.4843 8.67247 15.5312L9.96924 16.1876C10.0788 16.25 10.1257 16.3908 10.0631 16.5Z"/><path id="vector_110" fill="white" d="M10.0784 16.5157C10.0158 16.6407 9.87513 16.6876 9.75013 16.6251L8.45336 15.9688C8.32836 15.9063 8.28143 15.7657 8.34401 15.6407C8.40643 15.5157 8.54723 15.4687 8.67207 15.5313L9.96884 16.1876C10.094 16.2344 10.1408 16.3909 10.0784 16.5157V16.5157ZM8.39078 15.6563C8.34401 15.7657 8.3753 15.8907 8.48465 15.9376L9.78142 16.5939C9.87529 16.6407 10.0003 16.5939 10.0627 16.5001C10.1095 16.3907 10.0784 16.2657 9.969 16.2188L8.65627 15.5628C8.56256 15.516 8.43756 15.5471 8.39062 15.6565L8.39078 15.6563Z"/><path id="vector_111" fill="#F3F3F3" d="M12.3588 16.2031C12.2807 16.3126 12.1557 16.3439 12.0463 16.2657L9.34306 14.4689C9.23386 14.4063 9.21822 14.2657 9.28064 14.1563C9.34322 14.047 9.48387 14.0157 9.59323 14.0938L12.312 15.9063C12.4057 15.9689 12.437 16.1096 12.3588 16.2031Z"/><path id="vector_112" fill="white" d="M12.3753 16.2187C12.2973 16.3282 12.141 16.3594 12.0318 16.297L9.32858 14.4844C9.21922 14.4063 9.18793 14.2657 9.266 14.1408C9.34422 14.0313 9.50051 14 9.60986 14.0626L12.3129 15.875C12.4379 15.9532 12.4536 16.1094 12.3753 16.2187ZM9.29729 14.1563C9.23487 14.25 9.25051 14.3907 9.34406 14.4531L12.0629 16.2658C12.1566 16.3284 12.2816 16.2971 12.3442 16.2034C12.4066 16.1095 12.391 15.9689 12.2974 15.9065L9.57841 14.0939C9.4847 14.0313 9.35971 14.0626 9.29712 14.1563H9.29729Z"/><path id="vector_113" fill="#F3F3F3" d="M11.7814 13.9376C11.7033 14.0313 11.5627 14.0626 11.469 13.9843L10.3283 13.0939C10.2346 13.0157 10.219 12.875 10.297 12.7813C10.3751 12.6876 10.5158 12.6563 10.6096 12.7345L11.7501 13.625C11.844 13.7032 11.8596 13.8437 11.7814 13.9376V13.9376Z"/><path id="vector_114" fill="white" d="M11.7968 13.953C11.7187 14.0625 11.5624 14.0782 11.4531 13.9999L10.3125 13.1095C10.2031 13.0314 10.1875 12.8751 10.2657 12.7659C10.3438 12.6564 10.5 12.6408 10.6092 12.719L11.7499 13.6095C11.8594 13.6877 11.875 13.8438 11.7968 13.9533V13.953ZM10.2968 12.7813C10.2188 12.875 10.2344 13 10.3281 13.078L11.4687 13.9688C11.5624 14.0312 11.6874 14.0156 11.7655 13.9219C11.8437 13.8282 11.8281 13.7032 11.7344 13.6251L10.5938 12.7343C10.5 12.6719 10.3749 12.6875 10.297 12.7813H10.2968Z"/><path id="vector_115" fill="#F3F3F3" d="M14.1093 14.0937C14.0157 14.1876 13.8749 14.1876 13.7969 14.0937L11.4689 11.7969C11.3752 11.7032 11.3907 11.5626 11.4689 11.4843C11.5626 11.3908 11.7033 11.3908 11.7813 11.4843L14.094 13.7813C14.1877 13.8594 14.1877 14.0157 14.1096 14.0939L14.1093 14.0937Z"/><path id="vector_116" fill="white" d="M14.1095 14.1094C14.0636 14.1544 14.002 14.1796 13.9377 14.1796C13.8735 14.1796 13.8118 14.1544 13.7659 14.1094L11.4532 11.8123C11.4081 11.7665 11.3828 11.7047 11.3828 11.6404C11.3828 11.5761 11.4081 11.5143 11.4532 11.4685C11.4991 11.4234 11.5608 11.3981 11.6251 11.3981C11.6894 11.3981 11.7511 11.4234 11.7969 11.4685L14.1095 13.7654C14.2188 13.8591 14.2188 14.0154 14.1095 14.1091V14.1094ZM11.4848 11.4997C11.4066 11.578 11.4066 11.7186 11.4848 11.7965L13.7972 14.0934C13.8754 14.1717 14.0159 14.1717 14.094 14.0934C14.1722 14.0154 14.1722 13.8747 14.094 13.7967L11.7816 11.4843C11.7035 11.4062 11.5784 11.4062 11.4848 11.4999V11.4997Z"/><path id="vector_117" fill="#F3F3F3" d="M13.969 11.7656C13.8753 11.8439 13.7346 11.8439 13.6564 11.75L12.7032 10.6563C12.6253 10.5626 12.6408 10.4219 12.7347 10.3439C12.8282 10.2656 12.969 10.2656 13.0471 10.3593L14.0003 11.4532C14.0783 11.5313 14.0627 11.6719 13.969 11.7656Z"/><path id="vector_118" fill="white" d="M13.9844 11.7656C13.8751 11.8593 13.7344 11.8438 13.6406 11.7499L12.6875 10.6562C12.5938 10.5625 12.6094 10.4062 12.7188 10.3125C12.8281 10.2186 12.9688 10.2343 13.0625 10.3282L14.0157 11.4217C14.0938 11.5312 14.0938 11.6875 13.9844 11.7656V11.7656ZM12.7344 10.3438C12.6406 10.4219 12.6406 10.5469 12.7031 10.6406L13.6564 11.7343C13.7344 11.8125 13.8594 11.8282 13.9531 11.7499C14.0468 11.6719 14.0468 11.5467 13.9844 11.4532L13.0312 10.3593C12.9531 10.2657 12.828 10.2657 12.7344 10.3438V10.3438Z"/><path id="vector_119" fill="#F3F3F3" d="M16.2191 12.3596C16.1097 12.4376 15.9691 12.4064 15.9065 12.297L14.0785 9.59379C14.0159 9.48444 14.0472 9.3438 14.1409 9.28138C14.2502 9.20331 14.3909 9.2346 14.4535 9.34396L16.2659 12.047C16.3441 12.1564 16.3128 12.297 16.2191 12.3594V12.3596Z"/><path id="vector_120" fill="white" d="M16.2192 12.375C16.1099 12.4533 15.9536 12.4218 15.8754 12.3126L14.063 9.60936C13.985 9.50001 14.0163 9.34388 14.1411 9.26581C14.2505 9.18759 14.4067 9.21888 14.485 9.32823L16.2973 12.0313C16.3754 12.1563 16.3441 12.297 16.2192 12.375ZM14.1566 9.29694C14.0629 9.35936 14.0316 9.48436 14.0942 9.57824L15.9065 12.2813C15.9691 12.375 16.0941 12.3907 16.2033 12.3281C16.2971 12.2657 16.3284 12.1407 16.2658 12.047L14.4537 9.35936C14.3911 9.26581 14.2505 9.23436 14.1569 9.29694H14.1566Z"/><path id="vector_121" fill="#F3F3F3" d="M16.5465 10.0471C16.4371 10.1095 16.2965 10.0784 16.2341 9.969L15.5153 8.70335C15.4528 8.594 15.4996 8.45335 15.6091 8.39077C15.7185 8.32835 15.8591 8.35948 15.9215 8.469L16.6402 9.73448C16.6871 9.84384 16.6558 9.98448 16.5467 10.0471H16.5465Z"/><path id="vector_122" fill="white" d="M16.5469 10.0627C16.4219 10.1251 16.2812 10.094 16.2188 9.98449L15.4999 8.719C15.4375 8.60948 15.4688 8.45335 15.5938 8.39077C15.7188 8.32835 15.8594 8.35948 15.9219 8.469L16.6406 9.73449C16.7031 9.84385 16.6719 9.98449 16.547 10.0627H16.5469ZM15.6094 8.40642C15.5156 8.46884 15.4688 8.59384 15.5312 8.68771L16.2501 9.95336C16.3125 10.0469 16.4375 10.0784 16.5312 10.0314C16.6251 9.96901 16.6719 9.84385 16.6094 9.75014L15.8906 8.48448C15.8438 8.39093 15.7032 8.34384 15.6094 8.40642V8.40642Z"/><path id="vector_123" fill="#F3F3F3" d="M18.6249 11.0782C18.5001 11.125 18.3749 11.0782 18.3282 10.9689L17.0626 7.95305C17.0158 7.8437 17.0782 7.70305 17.1876 7.65612C17.3126 7.60934 17.4376 7.65612 17.4843 7.76547L18.7499 10.7811C18.7969 10.8905 18.7344 11.0311 18.6249 11.0779V11.0782Z"/><path id="vector_124" fill="white" d="M18.625 11.0939C18.5002 11.1406 18.3595 11.0939 18.2969 10.9687L17.0313 7.95323C17.0086 7.89312 17.0106 7.82647 17.037 7.76787C17.0634 7.70928 17.1119 7.66353 17.1719 7.64065C17.2969 7.59388 17.4376 7.64065 17.5002 7.76565L18.7657 10.7813C18.8126 10.8906 18.7502 11.0313 18.6252 11.0939H18.625ZM17.2032 7.67194C17.0939 7.71872 17.0469 7.84388 17.0939 7.93758L18.3594 10.953C18.4061 11.0624 18.5311 11.1092 18.6405 11.0624C18.7498 11.0156 18.7969 10.8905 18.7498 10.7968L17.4843 7.78113C17.4218 7.67178 17.3124 7.62484 17.2031 7.67178L17.2032 7.67194Z"/><path id="vector_125" fill="#F3F3F3" d="M19.3907 8.85965C19.2657 8.90642 19.1407 8.84384 19.094 8.719L18.6408 7.34386C18.594 7.23451 18.6721 7.09386 18.7814 7.06273C18.8908 7.03144 19.0314 7.07838 19.0782 7.20338L19.5313 8.57836C19.5781 8.68771 19.5157 8.81271 19.3907 8.85949V8.85965Z"/><path id="vector_126" fill="white" d="M19.4063 8.87503C19.3462 8.89768 19.2796 8.8956 19.2211 8.86924C19.1625 8.84288 19.1168 8.79439 19.0939 8.73439L18.6407 7.35939C18.5939 7.23439 18.672 7.09391 18.7971 7.04697C18.8572 7.02432 18.9238 7.02641 18.9824 7.05277C19.0409 7.07913 19.0867 7.12762 19.1096 7.18762L19.5626 8.56262C19.5939 8.68762 19.5313 8.82826 19.4063 8.87503V8.87503ZM18.797 7.07826C18.6876 7.10939 18.625 7.23439 18.6563 7.34374L19.1096 8.71891C19.1407 8.82826 19.2657 8.87503 19.3752 8.84374C19.4846 8.81262 19.547 8.68762 19.5157 8.57826L19.0626 7.2031C19.0546 7.17658 19.0412 7.15202 19.0231 7.13105C19.005 7.11007 18.9827 7.09313 18.9577 7.08134C18.9326 7.06955 18.9053 7.06317 18.8777 7.06261C18.85 7.06205 18.8225 7.06733 18.797 7.0781V7.07826Z"/><path id="vector_127" fill="#F3F3F3" d="M21.2346 10.2813C21.1096 10.3126 20.9846 10.2345 20.969 10.1093L20.3127 6.90628C20.2814 6.78128 20.3753 6.67193 20.5001 6.64064C20.6253 6.60935 20.7501 6.68741 20.7657 6.81257L21.4222 10.0158C21.4376 10.125 21.3596 10.25 21.2346 10.2813V10.2813Z"/><path id="vector_128" fill="white" d="M21.2347 10.297C21.094 10.3282 20.969 10.2344 20.9378 10.1094L20.2815 6.90631C20.2502 6.78131 20.344 6.64067 20.469 6.62502C20.6097 6.59373 20.7347 6.6876 20.7658 6.8126L21.4223 10.0158C21.4534 10.1407 21.3753 10.2658 21.2347 10.297V10.297ZM20.5003 6.65631C20.3908 6.67196 20.3127 6.78131 20.3284 6.90631L20.9847 10.1095C21.0003 10.2187 21.1252 10.297 21.2347 10.2657C21.344 10.25 21.4221 10.1407 21.4065 10.0157L20.7502 6.81244C20.719 6.70325 20.6097 6.64067 20.5002 6.65631H20.5003Z"/><path id="vector_129" fill="#F3F3F3" d="M22.4215 8.25005C22.2966 8.2657 22.1872 8.18763 22.1559 8.06263L21.9685 6.62503C21.9529 6.50003 22.0466 6.39068 22.1717 6.37503C22.2966 6.35939 22.4059 6.43761 22.4372 6.56261L22.6246 8.00005C22.6402 8.12505 22.5465 8.23441 22.4215 8.25005V8.25005Z"/><path id="vector_130" fill="white" d="M22.4216 8.2657C22.2809 8.28135 22.1559 8.18764 22.1403 8.06248L21.9529 6.62505C21.9372 6.50005 22.0309 6.37505 22.1716 6.3594C22.3122 6.34392 22.4372 6.43763 22.4528 6.56263L22.6403 8.00006C22.6559 8.12506 22.5622 8.25006 22.4216 8.2657V8.2657ZM22.1872 6.39069C22.0779 6.40634 21.984 6.51569 21.9996 6.62505L22.1872 8.06264C22.2029 8.17199 22.3122 8.25006 22.4216 8.23441C22.5309 8.21893 22.6248 8.10941 22.6091 8.00006L22.4216 6.56263C22.4059 6.45327 22.2966 6.37505 22.1872 6.39069V6.39069Z"/><path id="vector_131" fill="url(#paint2_linear_94_18581)" fill-opacity="0.2" d="M24.1094 42.4844C34.3266 42.4844 42.6094 34.2016 42.6094 23.9844C42.6094 13.7671 34.3266 5.48438 24.1094 5.48438C13.8921 5.48438 5.60938 13.7671 5.60938 23.9844C5.60938 34.2016 13.8921 42.4844 24.1094 42.4844Z"/><path id="vector_132" fill="black" fill-opacity="0.05" d="M36.9217 12.2501L21.9998 21.8126H21.9842V21.8281L21.9685 21.8438L12.6562 37.2033L26.3437 26.1876L26.3593 26.1722V26.1565L36.9219 12.2502L36.9217 12.2501Z"/><path id="vector_133" fill="#CD151E" d="M36.6406 11.3593L21.8906 21.8436L26.2656 26.1873L36.6406 11.3593"/><path id="vector_134" fill="#FA5153" d="M21.9062 21.8124L24.1095 23.9842L36.6405 11.3593L21.9062 21.8124V21.8124Z"/><path id="vector_135" fill="#ACACAC" d="M21.9063 21.8125L26.2813 26.156L11.5312 36.6405L21.9063 21.8123V21.8125Z"/><path id="vector_136" fill="#EEEEEE" d="M11.5312 36.6405L24.1093 23.9843L21.9061 21.8123L11.5312 36.6405Z"/></g></g><defs><linearGradient id="paint0_linear_94_18581" x1="24" x2="24" y1="44" y2="4" gradientUnits="userSpaceOnUse"><stop offset="0.25" stop-color="#DBDBDA"/><stop offset="1" stop-color="white"/></linearGradient><radialGradient id="paint1_radial_94_18581" cx="0" cy="0" r="1" gradientTransform="translate(26.6 19.936) scale(22.5818)" gradientUnits="userSpaceOnUse"><stop stop-color="#2ABCE1"/><stop offset="0.11363" stop-color="#2ABBE1"/><stop offset="1" stop-color="#3375F8"/></radialGradient><linearGradient id="paint2_linear_94_18581" x1="23.7579" x2="15.1232" y1="18.6945" y2="34.186" gradientUnits="userSpaceOnUse"><stop stop-opacity="0"/><stop offset="1"/></linearGradient></defs></svg>