<svg xmlns="http://www.w3.org/2000/svg" fill="none" aria-hidden="true" viewBox="0 0 48 48"><path fill="#00A1E0" fill-rule="evenodd" d="M20.646 13.055a7.011 7.011 0 0 1 5.072-2.178c2.64 0 4.944 1.472 6.171 3.658a8.53 8.53 0 0 1 3.488-.741c4.763 0 8.623 3.894 8.623 8.699s-3.86 8.699-8.623 8.699c-.582 0-1.15-.058-1.699-.169a6.304 6.304 0 0 1-8.26 2.593A7.193 7.193 0 0 1 18.798 38a7.195 7.195 0 0 1-6.749-4.708 6.635 6.635 0 0 1-1.372.143C6.989 33.434 4 30.414 4 26.69a6.755 6.755 0 0 1 3.338-5.844A7.727 7.727 0 0 1 6.7 17.76c0-4.286 3.478-7.76 7.769-7.76a7.757 7.757 0 0 1 6.177 3.054Z" clip-rule="evenodd"/><path fill="#fff" fill-rule="evenodd" d="m9.794 24.52.162-.449c.026-.077.084-.052.107-.037.045.027.078.05.136.085.477.301.919.304 1.056.304.357 0 .579-.189.579-.444v-.013c0-.277-.341-.382-.736-.503l-.087-.028c-.541-.154-1.12-.377-1.12-1.062v-.014c0-.65.524-1.103 1.275-1.103l.082-.001c.441 0 .868.128 1.176.315.028.018.055.05.04.093l-.167.45c-.029.076-.109.025-.109.025a2.366 2.366 0 0 0-1.042-.267c-.318 0-.523.169-.523.398v.014c0 .267.35.382.758.514l.07.022c.539.17 1.115.407 1.115 1.057v.013c0 .702-.51 1.138-1.33 1.138a2.44 2.44 0 0 1-1.197-.278c-.077-.045-.153-.083-.228-.138-.008-.011-.043-.025-.018-.09Zm12.011 0 .163-.449c.023-.073.092-.046.107-.037.044.027.078.05.136.085.477.301.918.304 1.057.304.356 0 .578-.189.578-.444v-.013c0-.277-.341-.382-.735-.503l-.088-.028c-.542-.154-1.12-.377-1.12-1.062v-.014c0-.65.524-1.103 1.275-1.103l.082-.001c.441 0 .867.128 1.177.315.027.018.054.05.04.093-.016.04-.153.407-.167.45-.03.076-.11.025-.11.025a2.367 2.367 0 0 0-1.042-.267c-.318 0-.523.169-.523.398v.014c0 .267.35.382.757.514l.07.022c.54.17 1.115.407 1.115 1.057v.013c0 .702-.51 1.138-1.33 1.138-.403 0-.788-.062-1.196-.278-.077-.045-.153-.083-.228-.138-.008-.011-.043-.025-.018-.09Zm8.885-2.112c.068.226.101.474.101.736s-.033.51-.1.735a1.65 1.65 0 0 1-.311.595 1.48 1.48 0 0 1-.527.397c-.21.096-.457.144-.734.144a1.75 1.75 0 0 1-.734-.144 1.48 1.48 0 0 1-.527-.396 1.659 1.659 0 0 1-.31-.596 2.582 2.582 0 0 1-.101-.735c0-.263.033-.51.1-.736.068-.228.172-.428.31-.595.145-.17.325-.307.528-.4.21-.098.456-.147.734-.147.278 0 .524.05.734.147.21.098.387.232.527.4.139.167.244.367.31.595Zm-.684.736c0-.397-.073-.709-.22-.928-.144-.217-.363-.322-.667-.322-.305 0-.521.105-.664.322-.143.219-.216.53-.216.928 0 .396.073.71.217.93.142.22.358.326.663.326.305 0 .523-.106.668-.325.145-.22.22-.535.22-.931Zm6.31 1.15.167.465a.063.063 0 0 1-.027.082c-.26.1-.62.172-.97.172-.594 0-1.05-.171-1.353-.509-.302-.337-.456-.795-.456-1.363 0-.263.038-.512.113-.737a1.58 1.58 0 0 1 .884-.995c.22-.097.476-.146.763-.146.194 0 .367.011.514.033.158.025.369.082.458.116.016.006.06.028.042.081-.064.183-.108.302-.168.468-.027.07-.08.047-.08.047a2.287 2.287 0 0 0-.724-.103c-.339 0-.593.113-.76.334-.168.222-.261.514-.263.902-.001.426.106.741.295.936.188.195.452.293.783.293.134 0 .261-.008.375-.026.113-.018.22-.053.319-.092 0 0 .064-.024.087.042Zm3.503-2.015c.15.522.072.973.07.998-.007.06-.068.06-.068.06l-2.318-.001c.014.352.099.601.27.77.167.166.433.273.793.273.55.001.785-.11.952-.17 0 0 .063-.024.088.04l.15.424c.031.071.007.096-.02.11-.144.08-.497.23-1.167.232a2.309 2.309 0 0 1-.841-.135 1.532 1.532 0 0 1-.583-.387 1.53 1.53 0 0 1-.337-.589 2.496 2.496 0 0 1-.104-.74c0-.263.033-.512.101-.74a1.69 1.69 0 0 1 .314-.602c.146-.174.328-.313.534-.407.213-.1.476-.15.766-.15.248 0 .474.054.663.135a1.421 1.421 0 0 1 .737.879Zm-2.305.484h1.654c-.017-.213-.059-.403-.154-.547-.146-.217-.346-.336-.65-.336-.304 0-.52.12-.664.336a1.359 1.359 0 0 0-.186.547Zm-16.263-.484c.149.522.072.973.07.998-.006.06-.068.06-.068.06l-2.318-.001c.015.352.099.601.27.77.167.166.433.273.793.273.55.001.786-.11.952-.17 0 0 .064-.024.087.04l.152.424c.03.071.006.096-.02.11-.146.08-.498.23-1.168.232a2.306 2.306 0 0 1-.841-.135 1.537 1.537 0 0 1-.584-.387 1.533 1.533 0 0 1-.335-.589 2.484 2.484 0 0 1-.105-.74c0-.263.034-.512.101-.74.063-.22.17-.425.314-.602.146-.174.328-.313.534-.407.213-.1.477-.15.765-.15.229 0 .454.046.664.135.146.063.292.175.441.336.095.101.238.324.296.543Zm-2.306.484H20.6c-.018-.213-.06-.403-.154-.547-.145-.217-.346-.336-.65-.336-.304 0-.52.12-.663.336a1.359 1.359 0 0 0-.188.547Zm-4.088-.11s.183.016.382.045v-.099c0-.309-.064-.454-.19-.552-.13-.099-.324-.15-.574-.15 0 0-.564-.007-1.01.235-.02.012-.038.02-.038.02s-.056.02-.076-.038l-.164-.441c-.025-.063.02-.092.02-.092.21-.163.715-.262.715-.262.205-.036.413-.055.621-.057.463 0 .822.108 1.065.32.244.215.369.56.369 1.024v2.12s.006.062-.053.076c0 0-.085.024-.161.042-.078.018-.357.075-.585.113a4.262 4.262 0 0 1-.704.059 2.78 2.78 0 0 1-.614-.063 1.278 1.278 0 0 1-.472-.205.959.959 0 0 1-.302-.362 1.2 1.2 0 0 1-.107-.53c0-.201.043-.381.124-.534.082-.152.195-.282.337-.383.147-.103.31-.179.484-.224.18-.048.372-.073.57-.073.146 0 .268.003.363.01Zm-.923 1.629c-.001 0 .208.164.68.135.331-.02.625-.083.625-.083v-1.055s-.296-.048-.63-.053c-.471-.006-.672.168-.671.168-.14.098-.207.245-.207.448 0 .13.023.231.07.302.03.047.042.065.133.138Zm19.623-2.824c-.022.063-.135.38-.175.486-.015.04-.04.068-.085.063 0 0-.133-.03-.254-.03-.084 0-.203.01-.31.043a.693.693 0 0 0-.287.172.855.855 0 0 0-.203.341 2.04 2.04 0 0 0-.077.608v1.728a.07.07 0 0 1-.07.07h-.609a.07.07 0 0 1-.072-.07v-3.458c0-.04.029-.07.068-.07h.593c.04 0 .068.03.068.07v.282a1.04 1.04 0 0 1 .392-.288c.144-.066.305-.114.597-.097.152.01.35.051.39.067a.063.063 0 0 1 .034.083Zm-5.718-1.603c.016.007.06.028.043.08l-.178.488c-.015.036-.025.058-.1.036a1.043 1.043 0 0 0-.31-.049.784.784 0 0 0-.248.037.473.473 0 0 0-.194.12.674.674 0 0 0-.163.247c-.085.245-.118.506-.123.523h.742c.062 0 .082.029.076.075l-.087.482c-.014.07-.078.067-.078.067h-.763l-.522 2.956a4.56 4.56 0 0 1-.204.778c-.082.214-.166.37-.302.52a1.064 1.064 0 0 1-.428.298 1.67 1.67 0 0 1-.569.09 1.39 1.39 0 0 1-.34-.034 1.84 1.84 0 0 1-.212-.062c-.028-.01-.052-.046-.035-.092l.171-.471c.024-.06.084-.037.084-.037.042.017.07.029.125.04.056.01.13.02.186.02a.851.851 0 0 0 .273-.04.421.421 0 0 0 .212-.162c.061-.08.111-.186.163-.33.05-.146.098-.338.138-.572l.52-2.901h-.512c-.062 0-.083-.03-.076-.076l.086-.482c.014-.07.079-.067.079-.067h.525l.029-.157c.078-.465.235-.82.466-1.051.232-.234.562-.353.981-.353a1.812 1.812 0 0 1 .545.08ZM17.482 24.87c0 .039-.028.07-.067.07H16.8c-.039 0-.066-.031-.066-.07v-4.95c0-.038.027-.07.066-.07h.615c.04 0 .067.032.067.07v4.949Z" clip-rule="evenodd"/></svg>