<svg xmlns="http://www.w3.org/2000/svg" fill="none" aria-hidden="true" viewBox="0 0 48 48"><path fill="#8CC84B" d="M17.93 28.029c-.572.358-1.434.937-2.101 1.568-1.095 1.034-1.324 2.468-.746 2.803.534.31 1.781-.059 2.674-1.032.937-1.023 1.323-2.319.924-3.79l-.138.082.001.002-.06.035a68.37 68.37 0 0 0-.554.332Zm16.079-.464c-.324.704-.34.93-.242 1.001.47-.169 1.248-.576 1.254-1.667a1.726 1.726 0 0 0-.093-.522 3.795 3.795 0 0 0-.92 1.188Zm5.046-2.13c-1.256-.146-2.237.03-2.998.347.141.367.25.749.265 1.133.035.845-.546 1.47-1.152 1.916-.354.26-.73.433-1.046.538-.253.107-.588.217-.827.168-.525-.107-.805-.573-.447-1.603.193-.557.75-1.405 1.649-2.136-.205-.421-.434-.851-.55-1.246a10.14 10.14 0 0 1-.299-1.25s-.74 1.537-1.697 2.934l-.165.24c.188.437.336.898.356 1.363.035.845-.33 1.483-.937 1.928-.329.243-.679.41-.98.516a3.452 3.452 0 0 1-1.139.26c-.303.02-.596.001-.76-.122-.224-.17-.251-.38-.135-.666.099-.243.835-1.084 1.452-1.82.171-.203.334-.41.479-.603l-.004-.008s.112-.145.294-.397c-.226-.486-.512-.991-.647-1.45a10.17 10.17 0 0 1-.298-1.25s-.752 1.926-1.534 3.463a49.653 49.653 0 0 1-1.192 2.228l-.002.013s-.027.046-.074.118l-.035.06-.001-.006c-.203.3-.659.887-1.112.887-1.244 0-.787-2.526-.787-2.526s-.364.936-.774 1.739c-.333.655-.638 1.21-1.303 1.21-.191 0-.495-.006-.746-.246-.572-.542-1.008-1.92-.923-2.988.073-.908.213-1.536.404-2.06-.34.185-.735.406-1.137.641l-.617.364.02.036c.51.988.647 3.153-.467 4.815-1.114 1.663-3.187 2.674-5.207 2.112-.652-.181-1.636-1.53-.787-3.409.75-1.657 3.743-3.224 4.532-3.615l.216-.12c-1.573-1.376-5.5-3.233-6.051-6.085-.155-.803.22-2.723 2.578-4.93 1.983-1.856 4.742-3.277 7.29-4.183 4.28-1.522 8.803-.624 9.5 2.105.683 2.684-1.645 5.895-4.627 7.049-2.663 1.03-4.864.867-5.769.57-1.028-.338-1.63-1.016-1.778-1.4-.058-.149-.157-.4 0-.488.097-.053.136-.04.394.245.245.271 1.233.998 3.108.788 4.922-.552 7.887-4.379 6.95-6.438-.656-1.441-4.45-2.092-9.19.272-5.785 2.884-6.099 5.262-6.148 6.166-.136 2.484 3.064 3.79 4.795 5.639l.067.073 1.002-.552c.872-.48 1.696-.93 2.08-1.139.609-.886 1.845-1.863 2.738-1.863 1.427 0 .936 2.051.936 2.051s.03-.094.068-.095c.04 0 .198-.27.639-.11.453.167.35.485.352.518.006.063-.535 1.886-.76 3.056-.107.558-.045.964-.013.964.044 0 .134-.142.218-.294l-.002-.005s.064-.115.17-.323l.02-.043v.002c.126-.244.3-.603.503-1.047.396-.873 1.908-4.245 2.036-4.618.128-.373.195-.758.258-.924.062-.165.597-.29 1.221-.285.625.004.688.27.692.326.005.055-.296.795-.366 1.317-.069.523-.003.784.054 1.223.037.287.217.652.43 1.064.645-1.057 1.782-3.078 1.892-3.644.075-.387.195-.759.258-.924.063-.165.596-.29 1.22-.285.626.004.689.27.693.326.005.055-.298.795-.366 1.318-.069.521-.003.783.054 1.222.049.376.34.88.627 1.455a6.308 6.308 0 0 1 2.795-.653c.448-.002.97.043 1.238.127v-8.64a1.69 1.69 0 0 0-.84-1.476L24.814 6.228a1.696 1.696 0 0 0-1.7 0L9.06 14.371c-.527.304-.809.867-.809 1.476v16.3c0 .608.283 1.17.81 1.475l14.078 8.149a1.679 1.679 0 0 0 1.693 0l14.085-8.149c.527-.305.834-.867.834-1.475v-6.588a4.603 4.603 0 0 0-.695-.124Zm-15.163-.853c-.303.338-.818 1.212-1.06 1.942-.478 1.452-.27 2.927.069 3.015.396.104 1.046-1.836 1.357-2.595.195-.475.953-2.584.787-2.865-.13-.22-.667-.043-1.153.503Zm5.483 4.891s-.096.09-.054.116c.056.033.177-.01.308-.079.373-.235 1.21-.82 1.212-1.686l-.003-.076a33.31 33.31 0 0 1-.527.674 29.876 29.876 0 0 1-.936 1.051Z"/></svg>