<svg xmlns="http://www.w3.org/2000/svg" fill="none" aria-hidden="true" viewBox="0 0 48 48"><path fill="#E12826" d="m10.398 29.21 9.592.004-5.372 10.132C6.868 34.614 3.859 24.85 7.602 16.577 11.698 7.526 22.354 3.51 31.406 7.604L14.142 24.868h15.37L18.21 36.283l4.668-8.806H11.692a12.991 12.991 0 0 1-.475-3.478c.01-7.054 5.726-12.772 12.78-12.78.15 0 .299.01.448.01l1.646-1.649c-.683-.1-1.373-.15-2.064-.15-8.033 0-14.589 6.536-14.589 14.57a14.42 14.42 0 0 0 .96 5.21Zm22.98-20.558c7.755 4.73 10.764 14.501 7.017 22.776-4.099 9.05-14.757 13.064-23.806 8.966L33.72 23.13H18.308l11.477-11.423-4.67 8.816h11.183c.48 1.616.48 3.476.48 3.476-.008 7.055-5.726 12.77-12.78 12.78-.169 0-.336-.012-.504-.012l-1.63 1.646a14.8 14.8 0 0 0 2.134.155c1.792 0 3.568-.328 5.24-.972 7.502-2.887 11.243-11.31 8.355-18.812h-9.589l5.373-10.132Z"/></svg>