<svg xmlns="http://www.w3.org/2000/svg" fill="none" aria-hidden="true" viewBox="0 0 48 48"><path fill="url(#a)" d="M3 23.997c0 11.596 9.403 21 21 21 11.598 0 21-9.404 21-21 0-11.6-9.402-21-21-21-11.597 0-21 9.4-21 21Z"/><path fill="#fff" fill-rule="evenodd" d="M29.47 37.688c.55-.53 3.781-3.642 5.64-5.692 1.77-1.958 2.662-4.479 2.502-7.092-.165-2.691-1.42-5.184-3.54-7.014-3.5-3.026-9.155-2.965-12.608.134-1.26 1.129-2.682 2.677-2.743 2.743a2.43 2.43 0 0 0 .145 3.432 2.43 2.43 0 0 0 3.43-.145c.012-.014 1.324-1.442 2.407-2.412 1.817-1.631 4.725-1.349 6.197-.076 1.12.968 1.783 2.258 1.867 3.632a4.8 4.8 0 0 1-1.254 3.534c-1.751 1.935-4.976 5.038-5.421 5.467l-.052.05a2.43 2.43 0 0 0 1.679 4.183c.601 0 1.205-.224 1.674-.671l.076-.073Zm-15.245-7.752c1.722 1.49 3.965 2.233 6.212 2.233 2.32 0 4.643-.792 6.396-2.366 1.155-1.038 2.45-2.426 2.701-2.696l.042-.044a2.43 2.43 0 0 0-.145-3.432 2.423 2.423 0 0 0-3.435.15c-.103.112-1.36 1.47-2.401 2.406-1.819 1.629-4.725 1.35-6.199.075-1.12-.969-1.782-2.26-1.867-3.635a4.808 4.808 0 0 1 1.255-3.533c1.876-2.07 5.436-5.48 5.473-5.514a2.43 2.43 0 0 0 .076-3.434 2.424 2.424 0 0 0-3.43-.078l-.016.015c-.299.288-3.753 3.6-5.698 5.75a9.627 9.627 0 0 0-2.504 7.09c.165 2.693 1.421 5.183 3.54 7.014Z" clip-rule="evenodd"/><defs><linearGradient id="a" x1="3" x2="3" y1="44.997" y2="2.997" gradientUnits="userSpaceOnUse"><stop stop-color="#25F"/><stop offset="1" stop-color="#0AF"/></linearGradient></defs></svg>