<svg xmlns="http://www.w3.org/2000/svg" fill="none" aria-hidden="true" viewBox="0 0 48 48"><g fill-rule="evenodd" clip-rule="evenodd"><path fill="#595961" d="M19.783 17.459h-.088a.787.787 0 0 1-.673-.767c-.022-.361-.218-8.8 4.543-10.719 1.195-.474 2.305-.384 3.24.316 1.151.835 1.978 2.505 2.478 4.942.347 1.715.412 3.204.412 3.272.022.36-.26.632-.63.564-.37-.045-.674-.383-.674-.745-.065-1.534-.565-5.754-2.217-6.972-.522-.384-1.175-.43-1.956-.113-4.088 1.647-3.892 9.568-3.892 9.658 0 .316-.216.564-.543.564Z"/><path fill="#B2B2C2" d="M26.564 6.334c-.869-.632-1.89-.722-3-.293-1.934.79-3.303 2.866-3.977 6.025-.5 2.324-.435 4.423-.435 4.513 0 .113.043.226.13.316.087.09.174.158.283.158h.065a.35.35 0 0 0 .349-.361c0-.09-.196-8.147 4-9.839.847-.338 1.585-.293 2.195.158 1.76 1.286 2.282 5.641 2.347 7.199 0 .225.196.45.435.473a.348.348 0 0 0 .392-.36c-.023-.271-.261-6.139-2.784-7.989Z" opacity=".46"/><path fill="#B2B2C2" d="M19.587 16.782h-.043c-.13-.023-.24-.158-.261-.293 0-.09-.066-2.144.434-4.468.652-3.092 2.022-5.145 3.913-5.913 1.065-.428 2.022-.338 2.848.249 2.435 1.782 2.674 7.56 2.674 7.807a.198.198 0 0 1-.24.204c-.13-.023-.238-.136-.26-.294 0-.068-.24-5.732-2.435-7.356-.653-.474-1.457-.542-2.37-.181-4.26 1.783-4.064 9.952-4.064 10.042.02.113-.066.203-.196.203Z" opacity=".46"/><path fill="#595961" d="M21.348 10.328c.174-.338.348-.677.5-1.038-.065.113-.5 1.287-1.826 1.106-.022 0 .782.248 1.326-.068Zm-.479 1.444c.13-.36.26-.744.348-1.105-.043.135-.26 1.354-1.652 1.354 0 0 .804.157 1.304-.249Zm7.631-2.91c-.174-.407-.37-.79-.566-1.196.065.135.718 1.421-.02 2.346 0 0 .564-.45.585-1.15ZM27.305 6.83a16.395 16.395 0 0 0-1.045-.812c.13.113 1.284.948 1.218 2.212-.022 0 .174-.745-.173-1.4Zm-5.327 2.257c.261-.27.478-.564.717-.88-.086.09-.804 1.015-2.086.677 0 0 .739.406 1.37.203Zm.804-1.038c.305-.226.586-.451.87-.7-.108.068-1 .813-2.239.271 0 0 .717.52 1.37.429Zm1.174-.745c.37-.113.718-.248 1.066-.384-.13.045-1.24.452-2.327-.406.023 0 .588.677 1.261.79Zm1.066-.406c.304.045.608.068.912.09-.108-.022-1.065-.09-1.608-.992 0 0 .218.609.696.902Zm1.261.496c.216.249.457.497.716.722-.086-.09-.825-.835-.651-1.76-.022 0-.261.52-.065 1.038Z" opacity=".62"/><path fill="url(#a)" d="M28.913 14.052c0-.249-.24-5.958-2.608-7.695a2.438 2.438 0 0 0-1.48-.497c-.391 0-.804.09-1.238.27-1.892.746-3.218 2.754-3.87 5.823-.5 2.302-.434 4.355-.434 4.445 0 .068.065.136.13.136h.02c.066 0 .11-.045.11-.113 0-.09-.217-8.327 4.152-10.087.957-.384 1.783-.316 2.479.203 2.26 1.647 2.5 7.402 2.5 7.47 0 .067.065.135.13.135h.021c.045.022.088-.023.088-.09Z" opacity=".74"/><path fill="url(#b)" d="M29.282 11.231c-.5-2.437-1.326-4.084-2.477-4.942-.63-.451-1.306-.654-2.045-.61.588.046 1.13.25 1.63.61 1.154.835 1.98 2.505 2.48 4.942.347 1.715.412 3.204.412 3.272 0 .27-.13.474-.348.542a.234.234 0 0 0 .11.022c.369.045.65-.203.63-.564.02-.068-.045-1.534-.392-3.272Z"/><path fill="url(#c)" d="M23.805 7.237c-4.088 1.647-3.892 9.568-3.892 9.658 0 .27-.13.474-.349.541a.194.194 0 0 0 .11.023h.086c.327 0 .543-.248.543-.564 0-.09-.194-7.988 3.892-9.636a2.87 2.87 0 0 1 .783-.203c-.349-.067-.739 0-1.173.18Z"/><path fill="url(#d)" d="m30 9.2-18.435 5.912s-.782.226-.977.474c-.196.248-.24.948-.24.948L7.5 39.325l21.39 4.152 1.654-34.3c-.24-.045-.48 0-.545.023Z"/><path fill="url(#e)" d="M36.37 12.133s-.023-.18-.13-.248c-.088-.068-.197-.068-.197-.068l-3.022-.225-2.216-2.28a.67.67 0 0 0-.284-.135l-1.65 34.3 11.585-2.595-4.086-28.749Z"/><path fill="url(#f)" d="M22.391 28.245a8.317 8.317 0 0 0-1.108-1.218 9.15 9.15 0 0 0-1.218-.925 7.874 7.874 0 0 1-.761-.542 4.003 4.003 0 0 1-.521-.52c-.13-.18-.24-.338-.304-.518a1.57 1.57 0 0 1-.088-.542c0-.248.065-.496.153-.7.086-.202.239-.383.39-.54a1.83 1.83 0 0 1 .61-.362c.239-.09.52-.135.825-.158.326-.022.653 0 .957.023.304.022.587.09.87.158.26.067.521.157.738.248.218.09.435.18.587.27l1.435-4.422a3.358 3.358 0 0 0-.76-.294 6.06 6.06 0 0 0-1-.203 9.72 9.72 0 0 0-1.175-.067 8.78 8.78 0 0 0-1.303.09c-.978.135-1.85.406-2.631.812a6.72 6.72 0 0 0-1.935 1.49 6.783 6.783 0 0 0-1.239 2.03 8.05 8.05 0 0 0-.5 2.483c-.022.541.021 1.038.152 1.49.108.45.283.88.522 1.285.217.407.5.768.804 1.106.304.338.674.654 1.043.948.304.225.566.451.784.654.216.203.391.406.52.632.13.203.218.406.284.632.065.203.087.429.065.654 0 .226-.065.452-.153.632a1.33 1.33 0 0 1-.37.497 1.208 1.208 0 0 1-.564.27 2.111 2.111 0 0 1-.762.023 3.57 3.57 0 0 1-.955-.27 6.489 6.489 0 0 1-.892-.43 7.87 7.87 0 0 1-.76-.496c-.24-.158-.436-.339-.587-.474l-.98 3.362c.154.226.37.43.61.632.24.203.521.406.848.61.326.18.673.36 1.043.518.37.158.783.294 1.196.407h.087c.89.203 1.739.248 2.543.135a5.131 5.131 0 0 0 2.239-.857c.673-.474 1.218-1.106 1.63-1.941.414-.835.653-1.85.696-3.001.022-.723-.065-1.354-.26-1.941a5.588 5.588 0 0 0-.805-1.67Z"/><path fill="#000" d="M12.706 35.537c-.05-.06-.098-.12-.141-.183l.979-3.363.043.039c.145.13.326.292.543.435.218.158.48.339.761.497.282.157.588.315.892.428.304.136.63.226.955.271.284.045.545.023.761-.022.218-.046.414-.136.566-.271.173-.136.283-.316.369-.497a1.49 1.49 0 0 0 .153-.632c.022-.225 0-.45-.066-.654a2.334 2.334 0 0 0-.283-.632 2.658 2.658 0 0 0-.49-.601c.107.12.198.244.273.375.131.204.217.407.282.632.066.203.088.43.066.655 0 .225-.066.451-.152.632-.087.18-.195.36-.37.496a1.22 1.22 0 0 1-.564.27c-.218.046-.48.069-.761.023a3.56 3.56 0 0 1-.957-.27 6.568 6.568 0 0 1-.892-.43 7.674 7.674 0 0 1-.76-.495 4.648 4.648 0 0 1-.544-.436l-.043-.038-.978 3.362c.097.144.22.278.358.41Zm3.203-6.797a6.32 6.32 0 0 1-.236-.246 5.715 5.715 0 0 1-.804-1.106 4.68 4.68 0 0 1-.52-1.286c-.132-.452-.176-.948-.154-1.49a8.098 8.098 0 0 1 .5-2.482 6.815 6.815 0 0 1 1.24-2.03 6.736 6.736 0 0 1 1.934-1.49 8.047 8.047 0 0 1 2.63-.813 8.83 8.83 0 0 1 1.304-.09c.414 0 .806.023 1.175.068.37.045.696.113 1 .203.282.068.543.18.761.293l-.034.106a3.095 3.095 0 0 0-.51-.174 6.082 6.082 0 0 0-1-.203 9.72 9.72 0 0 0-1.174-.067c-.412 0-.847.022-1.304.09-.977.135-1.848.406-2.63.813a6.715 6.715 0 0 0-1.935 1.489 6.784 6.784 0 0 0-1.239 2.03 8.05 8.05 0 0 0-.5 2.483c-.022.541.021 1.038.152 1.49.108.45.283.88.522 1.285.216.407.5.768.804 1.106l.018.02Zm2.952-3.607c.119.135.267.28.442.427.218.18.48.361.761.542a9.04 9.04 0 0 1 1.558 1.251 9.132 9.132 0 0 0-1.774-1.478 7.503 7.503 0 0 1-.761-.54 4.283 4.283 0 0 1-.226-.202Z" opacity=".227"/><path fill="url(#g)" d="m33.76 37.091-.739-25.5-.13-.134.348 25.273s-3.065 4.83-3.522 4.694c-.674-.203 1.326-31.863 1.326-31.863l-.218-.226a.807.807 0 0 0-.282-.135l-1.63 33.826-.022.474.565-.745 4.304-5.664Z" opacity=".41"/><path fill="url(#h)" d="M25.434 10.667a22.5 22.5 0 0 1-.825 2.662c-.153.362.02.7.347.745.349.045.739-.203.87-.564.022-.068.608-1.534.979-3.272v-.022l-1.371.45Z"/><path fill="url(#i)" d="M15.63 13.826a26.555 26.555 0 0 1-.826 1.67c-.195.338-.086.7.24.79.325.112.76-.09.955-.43.023-.044.653-1.15 1.219-2.55l-1.588.52Z"/><path fill="url(#j)" d="m28.89 43.477 4.87-6.386 6.74 3.791-11.61 2.595Z" opacity=".32"/><path fill="url(#k)" d="m28.89 43.477 4.827-6.386 6.783 3.791-11.61 2.595Z" opacity=".19"/><path fill="url(#l)" d="m28.89 43.477 4.827-6.386 6.783 3.791-11.61 2.595Z" opacity=".19"/><path fill="url(#m)" d="M24.152 25.605c2.522 3.543 4.218 7.38 5.065 11.103l1.326-27.553c-.238-.045-.479 0-.544.022l-18.434 5.935s-.174.045-.392.136c4.675 1.67 9.349 5.257 12.98 10.357Z" opacity=".6"/><path fill="url(#n)" d="M36.26 11.908c.11.09.11.226.11.226l4.042 28.726-6.652-3.791-.739-25.5 2.98.226c.02.023.15.023.259.113Z"/><path fill="url(#o)" d="M35.782 11.976s.13 0 .24.112c.107.09.13.226.13.226l3.979 28.41.304.181-4.044-28.749s-.021-.135-.109-.225c-.108-.09-.26-.09-.26-.09l-2.978-.226 2.738.36Z"/><path fill="url(#p)" d="m7.5 39.325 21.39 4.152 1.045-23.514-19.775.562-2.66 18.8Z"/><path fill="#fff" d="M14.522 15.44c-.195.55-.003 1.126.43 1.288.432.163.94-.15 1.135-.698.194-.549.001-1.125-.43-1.288-.432-.162-.94.15-1.135.699Z" opacity=".3"/><path fill="#000" d="M14.498 15.18c-.194.549-.002 1.125.43 1.288.432.163.94-.15 1.135-.699.195-.548.003-1.124-.43-1.287-.432-.163-.94.15-1.135.699Z" opacity=".89"/><path fill="url(#q)" d="m33.043 11.592-2.218-2.28a.807.807 0 0 0-.282-.135l-1.652 34.3 4.891-6.408-.739-25.477Z"/><path fill="url(#r)" d="m30 9.2-18.435 5.912s-.782.226-.977.474c-.023.023-.023.046-.044.068L29.13 10.33c.152-.046.522-.181.479.925l-1.13 32.178.391.068 1.651-34.3a.977.977 0 0 0-.522 0Z"/><path fill="url(#s)" d="m30 9.2-18.435 5.912s-.782.226-.977.474c-.023.023-.023.046-.044.068l4.304-1.241 14.804-4.761c.065-.023.304-.068.543-.023l-1.63 33.803.305.068 1.651-34.3a.977.977 0 0 0-.522 0Z"/><path fill="url(#t)" d="m34.74 37.633-.98-.564-4.89 6.408.26-.067s4.305-5.755 4.695-5.935c.284-.113.914.158.914.158Z" opacity=".32"/><path fill="url(#u)" d="m28.89 43.477 4.892-6.408c-.022.022-3.108 3.52-4.891 6.408Z" opacity=".57"/><path fill="url(#v)" d="m40.5 40.882-6.718-3.791c-.022 0 .761.135 6.718 3.791Z" opacity=".46"/><path fill="#fff" d="M24.46 13.19c-.195.55-.002 1.126.43 1.288.433.163.94-.15 1.135-.698.196-.549.003-1.125-.43-1.288-.43-.162-.94.15-1.134.699Z" opacity=".3"/><path fill="#000" d="M24.437 12.931c-.194.549-.001 1.125.43 1.288.432.163.94-.15 1.135-.698.195-.549.003-1.125-.429-1.288-.433-.163-.94.15-1.136.698Z" opacity=".89"/><path fill="#595961" d="M15.283 16.286h-.088c-.347-.045-.586-.384-.543-.768.043-.36 1.282-8.8 6.37-10.718 1.281-.474 2.369-.384 3.195.316 1 .835 1.543 2.504 1.63 4.941.066 1.716-.13 3.205-.13 3.273-.043.36-.37.631-.718.564a.643.643 0 0 1-.543-.745c.196-1.534.413-5.754-1.043-6.973-.457-.383-1.087-.429-1.934-.113-4.37 1.648-5.522 9.568-5.522 9.636-.088.339-.348.587-.674.587Z"/><path fill="#B2B2C2" d="M23.956 5.16c-.761-.631-1.761-.721-2.957-.293-2.065.79-3.804 2.866-5 6.003-.89 2.324-1.195 4.423-1.195 4.513a.42.42 0 0 0 .087.316c.065.09.153.158.261.158h.066a.404.404 0 0 0 .391-.361c.02-.09 1.174-8.146 5.674-9.839.912-.338 1.65-.293 2.173.158 1.543 1.286 1.326 5.641 1.13 7.199-.022.225.131.45.348.473a.417.417 0 0 0 .457-.36c.022-.249.783-6.116-1.435-7.966Z" opacity=".46"/><path fill="#B2B2C2" d="M15.195 15.609h-.043c-.13-.023-.218-.158-.195-.294.022-.09.304-2.143 1.195-4.468 1.196-3.091 2.892-5.145 4.913-5.912 1.152-.429 2.087-.338 2.804.248 2.13 1.783 1.391 7.56 1.348 7.808a.236.236 0 0 1-.283.203c-.13-.022-.217-.135-.217-.293 0-.068.74-5.732-1.173-7.357-.566-.428-1.349-.474-2.304-.113-4.588 1.738-5.783 9.884-5.783 9.974a.264.264 0 0 1-.262.204Z" opacity=".81"/><path fill="#595961" d="M18.065 9.155c.239-.339.457-.677.673-1.038-.086.112-.716 1.286-2.02 1.105-.023 0 .739.249 1.347-.067Zm-.739 1.444c.196-.361.392-.745.543-1.106-.065.135-.5 1.354-1.87 1.354 0 0 .762.158 1.327-.248Zm-.566 1.489c.174-.383.305-.767.435-1.15-.065.135-.304 1.376-1.739 1.534 0-.022.782.068 1.305-.383Z" opacity=".42"/><path fill="#595961" d="M25.456 7.688a12.28 12.28 0 0 0-.37-1.196c.044.135.479 1.421-.412 2.347 0 0 .652-.452.782-1.151Zm-.846-2.031c-.305-.293-.61-.564-.915-.812.11.112 1.13.947.849 2.211-.022 0 .304-.745.065-1.4Zm1.064 4.107a12.228 12.228 0 0 0-.153-1.241c0 .158.218 1.49-.826 2.211 0 0 .718-.316.979-.97Zm.108 2.121a11.15 11.15 0 0 0 0-1.24c0 .157.023 1.489-1.087 2.098 0-.023.761-.248 1.087-.858Z" opacity=".62"/><path fill="#595961" d="M16.26 13.736c.131-.407.219-.813.305-1.197-.043.136-.24 1.422-1.566 1.738.023 0 .805-.023 1.261-.541Zm2.631-5.823c.304-.27.588-.564.849-.88-.11.09-.98 1.016-2.196.677.02 0 .694.406 1.347.203Zm.978-1.037c.348-.226.675-.452 1-.7-.13.068-1.13.812-2.282.27 0 0 .608.52 1.282.43Z" opacity=".42"/><path fill="#595961" d="M21.195 6.131c.392-.113.761-.248 1.13-.384-.13.046-1.303.452-2.26-.406 0 0 .457.677 1.13.79Zm1.108-.406c.306.045.61.068.914.09-.108-.022-1.043-.09-1.457-.993.022 0 .13.61.543.903Zm1.175.496c.196.248.39.496.586.722-.065-.09-.673-.835-.37-1.76.023 0-.303.52-.216 1.038Z" opacity=".62"/><path fill="url(#w)" d="M24.978 12.878c.021-.248.761-5.957-1.304-7.695-.391-.338-.87-.496-1.391-.496-.392 0-.827.09-1.284.27-2 .745-3.673 2.754-4.847 5.823-.891 2.301-1.173 4.355-1.196 4.445 0 .068.044.135.109.135h.022c.065 0 .108-.045.108-.112.023-.09 1.196-8.327 5.87-10.087 1-.384 1.848-.316 2.456.203 1.978 1.647 1.24 7.401 1.219 7.469 0 .068.043.135.108.135h.02c.066.023.11-.022.11-.09Z"/><path fill="url(#x)" d="M25.848 10.057c-.088-2.437-.63-4.084-1.63-4.942-.544-.45-1.196-.654-1.935-.609a2.69 2.69 0 0 1 1.522.61c1 .834 1.543 2.504 1.629 4.941.065 1.715-.13 3.205-.13 3.272-.044.271-.217.474-.435.542a.197.197 0 0 0 .11.022.642.642 0 0 0 .716-.564c.022-.067.218-1.534.153-3.272Z"/><path fill="url(#y)" d="M21.044 6.063c-4.37 1.647-5.522 9.568-5.522 9.658-.043.271-.218.474-.435.542.043.022.066.022.109.022h.087a.643.643 0 0 0 .63-.564c.022-.09 1.152-7.988 5.521-9.635a3.23 3.23 0 0 1 .806-.203c-.326-.046-.74.022-1.196.18Z"/></g><defs><linearGradient id="a" x1="20.416" x2="19.734" y1="5.911" y2="15.193" gradientUnits="userSpaceOnUse"><stop stop-color="#fff" stop-opacity=".65"/><stop offset="1" stop-color="#fff" stop-opacity=".01"/></linearGradient><linearGradient id="b" x1="25.398" x2="30.198" y1="11.224" y2="15.428" gradientUnits="userSpaceOnUse"><stop stop-opacity=".01"/><stop offset="1" stop-opacity=".4"/></linearGradient><linearGradient id="c" x1="23.474" x2="28.554" y1="16.088" y2="11.355" gradientUnits="userSpaceOnUse"><stop stop-opacity=".01"/><stop offset="1" stop-opacity=".4"/></linearGradient><linearGradient id="d" x1="17.007" x2="-2.727" y1="2.278" y2="25.015" gradientUnits="userSpaceOnUse"><stop stop-color="#B8D26E"/><stop offset="1" stop-color="#7FB525"/></linearGradient><linearGradient id="e" x1="44.001" x2="33.171" y1="7.97" y2="8.171" gradientUnits="userSpaceOnUse"><stop stop-color="#B4E034"/><stop offset="1" stop-color="#60A927"/></linearGradient><linearGradient id="f" x1="11.787" x2="2.908" y1="23.131" y2="44.755" gradientUnits="userSpaceOnUse"><stop stop-color="#fff"/><stop offset="1" stop-color="#CECEEB"/></linearGradient><linearGradient id="g" x1="24.518" x2="38.581" y1="76.383" y2="76.354" gradientUnits="userSpaceOnUse"><stop stop-color="#1D1D1B" stop-opacity=".5"/><stop offset=".038" stop-color="#1D1D1B" stop-opacity=".484"/><stop offset=".424" stop-color="#1D1D1B" stop-opacity=".319"/><stop offset="1" stop-color="#1D1D1B" stop-opacity=".01"/></linearGradient><linearGradient id="h" x1="26.152" x2="23.819" y1="8.701" y2="9.957" gradientUnits="userSpaceOnUse"><stop stop-opacity=".01"/><stop offset="1" stop-opacity=".4"/></linearGradient><linearGradient id="i" x1="16.37" x2="14.73" y1="12.425" y2="13.835" gradientUnits="userSpaceOnUse"><stop stop-opacity=".01"/><stop offset="1" stop-opacity=".4"/></linearGradient><linearGradient id="j" x1="32.368" x2="32.534" y1="40.899" y2="43.088" gradientUnits="userSpaceOnUse"><stop stop-opacity=".01"/><stop offset="1" stop-opacity=".4"/></linearGradient><linearGradient id="k" x1="28.491" x2="28.877" y1="37.695" y2="43.385" gradientUnits="userSpaceOnUse"><stop stop-color="#fff" stop-opacity=".5"/><stop offset=".09" stop-color="#fff" stop-opacity=".455"/><stop offset="1" stop-color="#fff" stop-opacity=".01"/></linearGradient><linearGradient id="l" x1="27.751" x2="28.436" y1="38.58" y2="44.659" gradientUnits="userSpaceOnUse"><stop stop-opacity=".01"/><stop offset="1" stop-opacity=".4"/></linearGradient><linearGradient id="m" x1="25.064" x2="7.503" y1="3.606" y2="13.763" gradientUnits="userSpaceOnUse"><stop stop-color="#fff" stop-opacity=".5"/><stop offset="1" stop-color="#fff" stop-opacity=".01"/></linearGradient><linearGradient id="n" x1="28.453" x2="43.954" y1="56.69" y2="56.721" gradientUnits="userSpaceOnUse"><stop stop-color="#1D1D1B" stop-opacity=".5"/><stop offset=".09" stop-color="#1D1D1B" stop-opacity=".455"/><stop offset="1" stop-color="#1D1D1B" stop-opacity=".01"/></linearGradient><linearGradient id="o" x1="39.553" x2="37.352" y1="10.76" y2="11.299" gradientUnits="userSpaceOnUse"><stop stop-color="#fff" stop-opacity=".4"/><stop offset="1" stop-color="#fff" stop-opacity=".01"/></linearGradient><linearGradient id="p" x1="19.798" x2="20.943" y1="43.728" y2="38.208" gradientUnits="userSpaceOnUse"><stop stop-color="#1D1D1B" stop-opacity=".5"/><stop offset=".09" stop-color="#1D1D1B" stop-opacity=".455"/><stop offset="1" stop-color="#1D1D1B" stop-opacity=".01"/></linearGradient><linearGradient id="q" x1="26.417" x2="40.531" y1="75.68" y2="75.692" gradientUnits="userSpaceOnUse"><stop stop-color="#1D1D1B" stop-opacity=".5"/><stop offset="1" stop-color="#1D1D1B" stop-opacity=".01"/></linearGradient><linearGradient id="r" x1="13.521" x2="6.676" y1="7.212" y2="33.51" gradientUnits="userSpaceOnUse"><stop stop-color="#fff" stop-opacity=".5"/><stop offset="1" stop-color="#fff" stop-opacity=".01"/></linearGradient><linearGradient id="s" x1="13.521" x2="6.676" y1="7.212" y2="33.51" gradientUnits="userSpaceOnUse"><stop stop-color="#fff" stop-opacity=".5"/><stop offset="1" stop-color="#fff" stop-opacity=".01"/></linearGradient><linearGradient id="t" x1="30.133" x2="24.722" y1="34.779" y2="42.226" gradientUnits="userSpaceOnUse"><stop stop-color="#fff" stop-opacity=".5"/><stop offset=".09" stop-color="#fff" stop-opacity=".455"/><stop offset="1" stop-color="#fff" stop-opacity=".01"/></linearGradient><linearGradient id="u" x1="31.764" x2="31.229" y1="36.491" y2="37.692" gradientUnits="userSpaceOnUse"><stop stop-opacity=".01"/><stop offset="1" stop-opacity=".4"/></linearGradient><linearGradient id="v" x1="37.077" x2="37.051" y1="38.079" y2="38.402" gradientUnits="userSpaceOnUse"><stop stop-opacity=".01"/><stop offset="1" stop-opacity=".4"/></linearGradient><linearGradient id="w" x1="17.594" x2="15.255" y1="3.927" y2="13.167" gradientUnits="userSpaceOnUse"><stop stop-color="#fff" stop-opacity=".65"/><stop offset="1" stop-color="#fff" stop-opacity=".01"/></linearGradient><linearGradient id="x" x1="22.829" x2="26.897" y1="9.257" y2="13.394" gradientUnits="userSpaceOnUse"><stop stop-opacity=".01"/><stop offset="1" stop-opacity=".4"/></linearGradient><linearGradient id="y" x1="20.228" x2="25.85" y1="15.349" y2="9.576" gradientUnits="userSpaceOnUse"><stop stop-opacity=".01"/><stop offset="1" stop-opacity=".4"/></linearGradient></defs></svg>