<svg xmlns="http://www.w3.org/2000/svg" fill="none" aria-hidden="true" viewBox="0 0 48 48"><g id="shopify-Icon"><path id="Vector" fill="#595961" fill-rule="evenodd" d="M19.7831 17.459C19.7608 17.459 19.7177 17.459 19.6955 17.459C19.3261 17.4139 19.022 17.0754 19.022 16.6918C18.9997 16.3307 18.8038 7.89108 23.5647 5.97307C24.7605 5.49914 25.8703 5.58935 26.805 6.28902C27.9562 7.12393 28.7826 8.79375 29.2826 11.2309C29.6297 12.9459 29.695 14.4351 29.695 14.5029C29.7173 14.8639 29.4354 15.1348 29.0645 15.067C28.6951 15.0219 28.391 14.6835 28.391 14.3223C28.3257 12.7879 27.8257 8.56816 26.1744 7.34953C25.6522 6.96596 24.9994 6.92078 24.2175 7.23673C20.1302 8.88396 20.326 16.8046 20.326 16.8948C20.326 17.2108 20.1095 17.459 19.7831 17.459Z" clip-rule="evenodd"/><path id="Vector_2" fill="#B2B2C2" fill-rule="evenodd" d="M26.5644 6.33406C25.695 5.70215 24.6742 5.61195 23.5645 6.0407C21.6298 6.83043 20.2605 8.90657 19.587 12.0658C19.087 14.39 19.1522 16.4887 19.1522 16.5789C19.1522 16.6917 19.1953 16.8046 19.2828 16.8949C19.3688 16.9851 19.4564 17.0528 19.5647 17.0528C19.5869 17.0528 19.6092 17.0528 19.63 17.0528C19.8258 17.0528 19.9786 16.8949 19.9786 16.6917C19.9786 16.6015 19.7828 8.54544 23.9785 6.85302C24.8256 6.51463 25.5644 6.55966 26.1742 7.011C27.9338 8.29725 28.456 12.6525 28.5212 14.2096C28.5212 14.4352 28.7171 14.6609 28.956 14.6833C29.1741 14.7059 29.3476 14.5479 29.3476 14.3224C29.3254 14.0516 29.0865 8.18445 26.5644 6.33406Z" clip-rule="evenodd" opacity="0.46"/><path id="Vector_3" fill="#B2B2C2" fill-rule="evenodd" d="M19.5867 16.782C19.5645 16.782 19.5645 16.782 19.5437 16.782C19.4132 16.7594 19.3033 16.624 19.2826 16.4887C19.2826 16.3983 19.2173 14.3449 19.7173 12.0206C20.3686 8.92912 21.7394 6.87557 23.6296 6.10828C24.6948 5.67953 25.6518 5.76989 26.4782 6.35661C28.9128 8.13924 29.1516 13.9162 29.1516 14.1643C29.1516 14.2997 29.0433 14.3899 28.9128 14.3675C28.7822 14.3449 28.6739 14.2321 28.6516 14.0741C28.6516 14.0064 28.4128 8.34239 26.217 6.7176C25.5642 6.24381 24.7601 6.17605 23.8477 6.53703C19.5868 8.3198 19.7826 16.4887 19.7826 16.5789C19.8034 16.6917 19.7173 16.782 19.5867 16.782Z" clip-rule="evenodd" opacity="0.46"/><path id="Vector_4" fill="#595961" fill-rule="evenodd" d="M21.3484 10.3283C21.5219 9.98993 21.6955 9.65139 21.8483 9.29041C21.783 9.4032 21.3483 10.5767 20.0219 10.3961C19.9997 10.3961 20.8039 10.6443 21.3484 10.3283Z" clip-rule="evenodd" opacity="0.62"/><path id="Vector_5" fill="#595961" fill-rule="evenodd" d="M20.8686 11.7723C20.9992 11.4112 21.1297 11.0276 21.2172 10.6666C21.1742 10.802 20.9561 12.0205 19.5645 12.0205C19.5645 12.0205 20.3686 12.1785 20.8686 11.7723Z" clip-rule="evenodd" opacity="0.62"/><path id="Vector_6" fill="#595961" fill-rule="evenodd" d="M28.4991 8.86157C28.3256 8.45526 28.1297 8.07169 27.9338 7.66553C27.9991 7.80091 28.6519 9.08717 27.9131 10.0123C27.9131 10.0123 28.4784 9.5611 28.4991 8.86157Z" clip-rule="evenodd" opacity="0.62"/><path id="Vector_7" fill="#595961" fill-rule="evenodd" d="M27.3048 6.83064C26.9561 6.53727 26.6089 6.2665 26.2603 6.01831C26.3908 6.13111 27.5436 6.96602 27.4783 8.22983C27.456 8.22983 27.6519 7.48513 27.3048 6.83064Z" clip-rule="evenodd" opacity="0.62"/><path id="Vector_8" fill="#595961" fill-rule="evenodd" d="M21.9782 9.08688C22.2393 8.8161 22.4559 8.52274 22.6948 8.20679C22.6087 8.297 21.8907 9.22226 20.6089 8.88372C20.6089 8.88372 21.3477 9.29003 21.9782 9.08688Z" clip-rule="evenodd" opacity="0.62"/><path id="Vector_9" fill="#595961" fill-rule="evenodd" d="M22.7824 8.04901C23.0866 7.82342 23.3684 7.59767 23.6518 7.34949C23.5435 7.41725 22.6519 8.16181 21.4131 7.62026C21.4131 7.62026 22.1296 8.13922 22.7824 8.04901Z" clip-rule="evenodd" opacity="0.62"/><path id="Vector_10" fill="#595961" fill-rule="evenodd" d="M23.9564 7.30404C24.3259 7.19124 24.6745 7.05586 25.0217 6.92047C24.8911 6.9655 23.7828 7.37166 22.6953 6.51416C22.7176 6.51416 23.2829 7.19124 23.9564 7.30404Z" clip-rule="evenodd" opacity="0.62"/><path id="Vector_11" fill="#595961" fill-rule="evenodd" d="M25.0216 6.89828C25.3257 6.94346 25.6298 6.96605 25.934 6.98864C25.8257 6.96605 24.8687 6.89829 24.3257 5.99561C24.3257 5.99561 24.5439 6.60492 25.0216 6.89828Z" clip-rule="evenodd" opacity="0.62"/><path id="Vector_12" fill="#595961" fill-rule="evenodd" d="M26.2826 7.39424C26.4993 7.64257 26.7396 7.89076 26.9992 8.11636C26.9131 8.02615 26.1744 7.28144 26.3479 6.35632C26.3257 6.35632 26.0868 6.87528 26.2826 7.39424Z" clip-rule="evenodd" opacity="0.62"/><path id="Vector_13" fill="url(#paint0_linear_94_20594)" fill-rule="evenodd" d="M28.9128 14.0515C28.9128 13.8032 28.6739 8.09407 26.3046 6.35663C25.8476 6.01808 25.3476 5.86011 24.8254 5.86011C24.4337 5.86011 24.0212 5.95032 23.5865 6.13088C21.6949 6.87558 20.3686 8.88395 19.7173 11.9528C19.2173 14.2546 19.2826 16.3081 19.2826 16.3983C19.2826 16.4661 19.3479 16.5337 19.4132 16.5337H19.4339C19.4992 16.5337 19.5437 16.4887 19.5437 16.4209C19.5437 16.3307 19.3256 8.09407 23.6948 6.33404C24.6518 5.95032 25.4782 6.01808 26.174 6.53704C28.4335 8.18443 28.6739 13.9388 28.6739 14.0064C28.6739 14.0741 28.7392 14.1418 28.8045 14.1418C28.8045 14.1418 28.8044 14.1418 28.8252 14.1418C28.8697 14.1643 28.9128 14.1192 28.9128 14.0515Z" clip-rule="evenodd" opacity="0.74"/><path id="Vector_14" fill="url(#paint1_linear_94_20594)" fill-rule="evenodd" d="M29.2823 11.231C28.7823 8.79392 27.9559 7.14654 26.8047 6.28904C26.1741 5.83785 25.4991 5.63469 24.7603 5.67987C25.3478 5.7249 25.8908 5.92806 26.3907 6.28904C27.5435 7.1241 28.3699 8.79392 28.8699 11.231C29.2171 12.946 29.2823 14.4353 29.2823 14.5031C29.2823 14.7738 29.1517 14.977 28.9336 15.0446C28.9782 15.0672 29.0212 15.0672 29.0435 15.0672C29.4129 15.1124 29.6948 14.8641 29.674 14.5031C29.6948 14.4353 29.6294 12.9686 29.2823 11.231Z" clip-rule="evenodd"/><path id="Vector_15" fill="url(#paint2_linear_94_20594)" fill-rule="evenodd" d="M23.8047 7.2368C19.7173 8.88403 19.9131 16.8047 19.9131 16.8949C19.9131 17.1657 19.7825 17.3688 19.5645 17.4365C19.609 17.459 19.6298 17.459 19.6743 17.459C19.6951 17.459 19.7395 17.459 19.7603 17.459C20.0867 17.459 20.3033 17.2109 20.3033 16.8949C20.3033 16.8047 20.109 8.90662 24.1949 7.25939C24.4782 7.14659 24.7393 7.07882 24.9781 7.05623C24.6295 6.98861 24.2394 7.05623 23.8047 7.2368Z" clip-rule="evenodd"/><path id="Vector_16" fill="url(#paint3_linear_94_20594)" fill-rule="evenodd" d="M29.9991 9.19976L11.5652 15.1119C11.5652 15.1119 10.7833 15.3377 10.5875 15.5858C10.3916 15.834 10.3486 16.5336 10.3486 16.5336L7.5 39.3251L28.8908 43.4772L30.5436 9.17717C30.3047 9.13199 30.0643 9.17717 29.9991 9.19976Z" clip-rule="evenodd"/><path id="Vector_17" fill="url(#paint4_linear_94_20594)" fill-rule="evenodd" d="M36.3698 12.1333C36.3698 12.1333 36.3475 11.9528 36.2392 11.8851C36.1517 11.8174 36.0433 11.8174 36.0433 11.8174L33.0212 11.5918L30.8047 9.31264C30.7172 9.24487 30.6296 9.19984 30.5213 9.17725L28.8701 43.4773L40.4556 40.8822L36.3698 12.1333Z" clip-rule="evenodd"/><path id="Vector_18" fill="url(#paint5_linear_94_20594)" fill-rule="evenodd" d="M22.391 28.2452C22.0646 27.7939 21.6744 27.3877 21.2827 27.0266C20.891 26.6656 20.4786 26.3722 20.0647 26.1015C19.7828 25.9209 19.5217 25.7403 19.3036 25.5598C19.087 25.3794 18.9134 25.1988 18.7828 25.0408C18.6523 24.8602 18.5439 24.7023 18.4787 24.5219C18.4134 24.3413 18.3911 24.1607 18.3911 23.9802C18.3911 23.732 18.4564 23.4838 18.5439 23.2806C18.63 23.0776 18.7828 22.8971 18.9341 22.7391C19.1092 22.5811 19.3036 22.4683 19.5439 22.3781C19.7828 22.2877 20.0646 22.2427 20.3688 22.2201C20.6952 22.1975 21.0216 22.2201 21.3257 22.2427C21.6299 22.2652 21.9132 22.3329 22.1951 22.4005C22.4562 22.4683 22.7173 22.5585 22.9339 22.6489C23.152 22.7391 23.3686 22.8293 23.5214 22.9196L24.9562 18.4968C24.7396 18.384 24.4784 18.271 24.1951 18.2034C23.8909 18.113 23.5645 18.0454 23.1951 18.0002C22.8257 17.9552 22.434 17.9326 22.0215 17.9326C21.6091 17.9326 21.1744 17.9552 20.7175 18.0228C19.7398 18.1582 18.8689 18.429 18.087 18.8351C17.3482 19.2189 16.6954 19.7152 16.1524 20.3246C15.6301 20.9113 15.2177 21.5882 14.9135 22.3555C14.6301 23.1002 14.4566 23.9351 14.4136 24.8377C14.3913 25.3794 14.4343 25.8757 14.5649 26.3271C14.6732 26.7784 14.8482 27.2072 15.0871 27.6133C15.3037 28.0195 15.5871 28.3806 15.8912 28.719C16.1954 29.0575 16.5648 29.3735 16.9342 29.6669C17.2383 29.8925 17.4995 30.1181 17.7176 30.3212C17.9342 30.5244 18.1093 30.7274 18.2383 30.9531C18.3689 31.1561 18.4564 31.3593 18.5217 31.5849C18.587 31.788 18.6092 32.0136 18.587 32.2394C18.587 32.465 18.5217 32.6906 18.4342 32.8711C18.3482 33.0517 18.2383 33.2323 18.0647 33.3676C17.9134 33.503 17.7176 33.5932 17.4995 33.6384C17.2829 33.6834 17.0218 33.706 16.7384 33.661C16.4135 33.6158 16.0871 33.5256 15.7829 33.3901C15.4788 33.2773 15.1732 33.1193 14.8913 32.9613C14.6094 32.8035 14.3483 32.6229 14.1302 32.465C13.8914 32.307 13.6955 32.1264 13.5442 31.991L12.5649 35.3534C12.7178 35.579 12.9344 35.7822 13.1733 35.9852C13.4136 36.1883 13.6955 36.3913 14.0219 36.5945C14.3483 36.7751 14.6955 36.9555 15.0649 37.1134C15.4343 37.2714 15.8482 37.4068 16.2607 37.5198H16.2829H16.3037H16.326H16.3482C17.2384 37.7228 18.087 37.7679 18.8911 37.6551C19.7175 37.5422 20.4786 37.2488 21.1299 36.7976C21.8034 36.3237 22.3479 35.6918 22.7604 34.8569C23.1743 34.022 23.4131 33.0065 23.4562 31.8556C23.4784 31.1335 23.3909 30.5018 23.1951 29.915C22.9993 29.2381 22.7174 28.719 22.391 28.2452Z" clip-rule="evenodd"/><path id="Vector_19" fill="black" fill-rule="evenodd" d="M12.7057 35.5372C12.6553 35.4774 12.6078 35.4163 12.5647 35.3536L13.544 31.9912C13.5573 32.0037 13.5722 32.0167 13.587 32.03C13.7324 32.1599 13.9134 32.3218 14.13 32.4651C14.3481 32.6231 14.6092 32.8037 14.8911 32.9616C15.173 33.1195 15.4786 33.2774 15.7827 33.3904C16.0869 33.5258 16.4133 33.616 16.7382 33.6612C17.0216 33.7062 17.2827 33.6837 17.4993 33.6386C17.7174 33.5934 17.9132 33.5032 18.0646 33.3678C18.2381 33.2324 18.348 33.0518 18.434 32.8713C18.5215 32.6907 18.5868 32.4651 18.5868 32.2395C18.609 32.0138 18.5868 31.7882 18.5215 31.585C18.4562 31.3594 18.3687 31.1563 18.2381 30.9533C18.115 30.7387 17.9518 30.5447 17.7485 30.3516C17.8553 30.4723 17.9459 30.5961 18.0215 30.7275C18.1521 30.9307 18.2381 31.1337 18.3034 31.3594C18.3687 31.5624 18.391 31.7882 18.3687 32.0138C18.3687 32.2395 18.3035 32.4651 18.2174 32.6457C18.1299 32.8262 18.0215 33.0067 17.8479 33.1421C17.6951 33.2774 17.4993 33.3678 17.2827 33.4128C17.0646 33.458 16.8035 33.4806 16.5216 33.4354C16.1952 33.3904 15.8688 33.3 15.5647 33.1646C15.2605 33.0518 14.9564 32.8939 14.673 32.7359C14.3911 32.5779 14.13 32.3975 13.9134 32.2395C13.6953 32.0962 13.5143 31.9343 13.3689 31.8044C13.3541 31.7911 13.3407 31.7781 13.3258 31.7656L12.3481 35.1278C12.4446 35.2715 12.5678 35.406 12.7057 35.5372ZM15.9089 28.7397C15.8273 28.6589 15.7486 28.577 15.673 28.4936C15.3688 28.155 15.0869 27.794 14.8689 27.3879C14.63 26.9816 14.4564 26.5528 14.3481 26.1016C14.2175 25.6503 14.173 25.1538 14.1952 24.6122C14.2383 23.7095 14.4134 22.8746 14.6953 22.1299C14.9994 21.3628 15.4134 20.6858 15.9341 20.0991C16.4786 19.4898 17.1298 18.9933 17.8687 18.6097C18.652 18.2036 19.5214 17.9328 20.4991 17.7974C20.9561 17.7296 21.3908 17.707 21.8033 17.707C22.2172 17.707 22.6089 17.7296 22.9783 17.7748C23.3477 17.82 23.6741 17.8876 23.9783 17.978C24.2602 18.0456 24.5213 18.1584 24.7394 18.2712L24.7052 18.3767C24.548 18.3084 24.3759 18.2468 24.1949 18.2035C23.8907 18.1133 23.5643 18.0456 23.1949 18.0004C22.8255 17.9554 22.4338 17.9328 22.0213 17.9328C21.6089 17.9328 21.1742 17.9554 20.7173 18.023C19.7396 18.1584 18.8687 18.4291 18.0868 18.8355C17.348 19.219 16.6952 19.7154 16.1522 20.3247C15.6299 20.9114 15.2175 21.5884 14.9133 22.3557C14.6299 23.1004 14.4564 23.9353 14.4134 24.8378C14.3911 25.3795 14.4341 25.8759 14.5647 26.3272C14.673 26.7786 14.848 27.2073 15.0869 27.6135C15.3035 28.0196 15.5869 28.3808 15.891 28.7192C15.897 28.7259 15.9029 28.7329 15.9089 28.7397ZM18.8612 25.1334C18.9799 25.2676 19.1283 25.4138 19.3034 25.5599C19.5215 25.7405 19.7826 25.9211 20.0645 26.1016C20.4784 26.3724 20.8908 26.6658 21.2825 27.0267C21.3968 27.1319 21.5095 27.2407 21.6223 27.3535C21.4413 27.1589 21.2528 26.9748 21.0644 26.8012C20.6742 26.44 20.2603 26.1467 19.8479 25.8759C19.5645 25.6953 19.3034 25.5149 19.0868 25.3343C19.0052 25.267 18.931 25.1997 18.8612 25.1334Z" clip-rule="evenodd" opacity="0.226763"/><path id="Vector_20" fill="url(#paint6_linear_94_20594)" fill-rule="evenodd" d="M33.7598 37.0913L33.021 11.5919L32.8904 11.4565L33.2391 36.7302C33.2391 36.7302 30.174 41.5593 29.717 41.4239C29.0434 41.2209 31.0433 9.56093 31.0433 9.56093L30.8253 9.33534C30.7392 9.26757 30.6294 9.22254 30.5434 9.19995L28.9129 43.0261L28.8906 43.5L29.4559 42.7553L33.7598 37.0913Z" clip-rule="evenodd" opacity="0.41"/><path id="Vector_21" fill="url(#paint7_linear_94_20594)" fill-rule="evenodd" d="M25.4337 10.6668C25.1741 11.7273 24.8477 12.7202 24.6089 13.3295C24.456 13.6906 24.6296 14.029 24.956 14.0742C25.3047 14.1194 25.6949 13.8711 25.8254 13.5101C25.8477 13.4423 26.4337 11.9756 26.8046 10.238V10.2155L25.4337 10.6668Z" clip-rule="evenodd"/><path id="Vector_22" fill="url(#paint8_linear_94_20594)" fill-rule="evenodd" d="M15.63 13.8257C15.3259 14.5027 15.0217 15.0894 14.8036 15.4956C14.6093 15.8341 14.7176 16.1951 15.044 16.2853C15.3689 16.3982 15.8036 16.1951 15.9994 15.8566C16.0216 15.8115 16.6522 14.7058 17.2175 13.3066L15.63 13.8257Z" clip-rule="evenodd"/><path id="Vector_23" fill="url(#paint9_linear_94_20594)" fill-rule="evenodd" d="M28.8906 43.4772L33.7598 37.0909L40.4999 40.8821L28.8906 43.4772Z" clip-rule="evenodd" opacity="0.32"/><path id="Vector_24" fill="url(#paint10_linear_94_20594)" fill-rule="evenodd" d="M28.8906 43.4772L33.7168 37.0909L40.4999 40.8821L28.8906 43.4772Z" clip-rule="evenodd" opacity="0.19"/><path id="Vector_25" fill="url(#paint11_linear_94_20594)" fill-rule="evenodd" d="M28.8906 43.4772L33.7168 37.0909L40.4999 40.8821L28.8906 43.4772Z" clip-rule="evenodd" opacity="0.19"/><path id="Vector_26" fill="url(#paint12_linear_94_20594)" fill-rule="evenodd" d="M24.1521 25.6053C26.6742 29.1481 28.3699 32.9842 29.217 36.7076L30.5434 9.15476C30.3046 9.10973 30.0642 9.15476 29.999 9.17735L11.5651 15.1122C11.5651 15.1122 11.3914 15.1573 11.1733 15.2476C15.8482 16.9175 20.5217 20.5054 24.1521 25.6053Z" clip-rule="evenodd" opacity="0.6"/><path id="Vector_27" fill="url(#paint13_linear_94_20594)" fill-rule="evenodd" d="M36.2597 11.9077C36.3695 11.9981 36.3695 12.1335 36.3695 12.1335L40.4124 40.8596L33.7598 37.0686L33.021 11.5693L36.0001 11.7949C36.0209 11.8175 36.1514 11.8175 36.2597 11.9077Z" clip-rule="evenodd"/><path id="Vector_28" fill="url(#paint14_linear_94_20594)" fill-rule="evenodd" d="M35.7822 11.9757C35.7822 11.9757 35.9128 11.9757 36.0211 12.0885C36.1294 12.1789 36.1516 12.3143 36.1516 12.3143L40.1306 40.7246L40.4348 40.9052L36.3905 12.1563C36.3905 12.1563 36.3697 12.0209 36.2822 11.9307C36.1739 11.8403 36.0211 11.8403 36.0211 11.8403L33.0435 11.6147L35.7822 11.9757Z" clip-rule="evenodd"/><path id="Vector_29" fill="url(#paint15_linear_94_20594)" fill-rule="evenodd" d="M7.5 39.3248L28.8908 43.4769L29.9352 19.9633L10.1601 20.5254L7.5 39.3248Z" clip-rule="evenodd"/><path id="Vector_30" fill="white" fill-rule="evenodd" d="M14.5217 15.4407C14.3274 15.9892 14.5187 16.5655 14.9519 16.7282C15.3837 16.8907 15.8911 16.578 16.0869 16.0297C16.2813 15.4813 16.0884 14.9049 15.6567 14.7424C15.225 14.5797 14.7161 14.8924 14.5217 15.4407Z" clip-rule="evenodd" opacity="0.3"/><path id="Vector_31" fill="black" fill-rule="evenodd" d="M14.4981 15.1805C14.3037 15.7288 14.4965 16.3052 14.9283 16.4678C15.36 16.6305 15.8689 16.3178 16.0633 15.7694C16.2576 15.221 16.0663 14.6446 15.633 14.482C15.2013 14.3193 14.6939 14.632 14.4981 15.1805Z" clip-rule="evenodd" opacity="0.89"/><path id="Vector_32" fill="url(#paint16_linear_94_20594)" fill-rule="evenodd" d="M33.0433 11.5918L30.8253 9.31264C30.7392 9.24487 30.6294 9.19984 30.5434 9.17725L28.8906 43.4773L33.7821 37.0685L33.0433 11.5918Z" clip-rule="evenodd"/><path id="Vector_33" fill="url(#paint17_linear_94_20594)" fill-rule="evenodd" d="M29.9991 9.20022L11.5652 15.1124C11.5652 15.1124 10.7834 15.3381 10.5875 15.5863C10.5653 15.6089 10.5652 15.6315 10.5444 15.6541L29.1297 10.3285C29.2825 10.2833 29.652 10.1479 29.6089 11.2536L28.4784 43.4325L28.8701 43.5003L30.5213 9.20022C30.3047 9.13245 30.0644 9.17763 29.9991 9.20022Z" clip-rule="evenodd"/><path id="Vector_34" fill="url(#paint18_linear_94_20594)" fill-rule="evenodd" d="M29.9991 9.20022L11.5652 15.1124C11.5652 15.1124 10.7834 15.3381 10.5875 15.5863C10.5653 15.6089 10.5652 15.6315 10.5444 15.6541L14.8484 14.4129L29.6519 9.65156C29.7172 9.62897 29.9561 9.58379 30.195 9.62897L28.5645 43.4325L28.8701 43.5003L30.5213 9.20022C30.3047 9.13245 30.0644 9.17763 29.9991 9.20022Z" clip-rule="evenodd"/><path id="Vector_35" fill="url(#paint19_linear_94_20594)" fill-rule="evenodd" d="M34.7393 37.6327L33.76 37.0686L28.8701 43.4773L29.1297 43.4095C29.1297 43.4095 33.4351 37.6553 33.8253 37.4748C34.1087 37.362 34.7393 37.6327 34.7393 37.6327Z" clip-rule="evenodd" opacity="0.32"/><path id="Vector_36" fill="url(#paint20_linear_94_20594)" fill-rule="evenodd" d="M28.8906 43.4773L33.7821 37.0686C33.7598 37.0912 30.6739 40.5888 28.8906 43.4773Z" clip-rule="evenodd" opacity="0.57"/><path id="Vector_37" fill="url(#paint21_linear_94_20594)" fill-rule="evenodd" d="M40.5 40.8821L33.7822 37.0909C33.7599 37.0909 34.5433 37.2263 40.5 40.8821Z" clip-rule="evenodd" opacity="0.46"/><path id="Vector_38" fill="white" fill-rule="evenodd" d="M24.4609 13.1907C24.265 13.7392 24.4579 14.3156 24.8896 14.4783C25.3228 14.641 25.8303 14.3283 26.0246 13.7799C26.2205 13.2314 26.0276 12.655 25.5959 12.4923C25.1641 12.3298 24.6552 12.6423 24.4609 13.1907Z" clip-rule="evenodd" opacity="0.3"/><path id="Vector_39" fill="black" fill-rule="evenodd" d="M24.437 12.9315C24.2427 13.4799 24.4356 14.0563 24.8673 14.219C25.2991 14.3816 25.8079 14.069 26.0022 13.5205C26.1966 12.9722 26.0052 12.3958 25.5734 12.2331C25.1402 12.0704 24.6328 12.3831 24.437 12.9315Z" clip-rule="evenodd" opacity="0.89"/><path id="Vector_40" fill="#595961" fill-rule="evenodd" d="M15.283 16.2856C15.2607 16.2856 15.2177 16.2856 15.1954 16.2856C14.8483 16.2406 14.6094 15.9021 14.6525 15.5185C14.6955 15.1574 15.9343 6.71774 21.0216 4.79973C22.3034 4.3258 23.3909 4.41601 24.2173 5.11568C25.2172 5.95059 25.7602 7.62041 25.8478 10.0575C25.913 11.7725 25.7173 13.2618 25.7173 13.3296C25.6742 13.6905 25.3478 13.9615 24.9992 13.8937C24.652 13.8485 24.3909 13.5101 24.4561 13.149C24.652 11.6146 24.8686 7.39482 23.4132 6.17619C22.9562 5.79262 22.3257 5.74744 21.4786 6.06339C17.1094 7.71062 15.9565 15.6313 15.9565 15.6989C15.869 16.0375 15.6094 16.2856 15.283 16.2856Z" clip-rule="evenodd"/><path id="Vector_41" fill="#B2B2C2" fill-rule="evenodd" d="M23.956 5.16058C23.1949 4.52883 22.195 4.43862 20.9992 4.86737C18.934 5.6571 17.1951 7.73309 15.9994 10.8697C15.1092 13.1941 14.8036 15.2926 14.8036 15.383C14.7828 15.4958 14.8259 15.6086 14.8912 15.6989C14.9564 15.7891 15.0439 15.8569 15.1522 15.8569C15.173 15.8569 15.1953 15.8569 15.2175 15.8569C15.4134 15.8569 15.5869 15.6989 15.6092 15.4958C15.6299 15.4056 16.7828 7.34952 21.2826 5.6571C22.195 5.31856 22.9338 5.36374 23.456 5.81508C24.999 7.10133 24.7824 11.4565 24.5865 13.0135C24.5643 13.2392 24.7171 13.4648 24.9337 13.4874C25.1518 13.51 25.3684 13.352 25.3907 13.1264C25.4129 12.8781 26.174 7.01112 23.956 5.16058Z" clip-rule="evenodd" opacity="0.46"/><path id="Vector_42" fill="#B2B2C2" fill-rule="evenodd" d="M15.1955 15.6087C15.1732 15.6087 15.1732 15.6087 15.1524 15.6087C15.0219 15.5861 14.9343 15.4507 14.9566 15.3153C14.9788 15.225 15.2608 13.1716 16.1524 10.8472C17.3482 7.75578 19.0439 5.70223 21.0646 4.93494C22.2174 4.50619 23.1521 4.59655 23.8687 5.18327C25.9991 6.9659 25.2603 12.7428 25.2173 12.991C25.195 13.1264 25.0868 13.2166 24.9339 13.1942C24.8049 13.1716 24.7173 13.0588 24.7173 12.9008C24.7173 12.833 25.4562 7.16905 23.5438 5.54426C22.9785 5.11551 22.1952 5.07047 21.2398 5.43146C16.6524 7.16905 15.4566 15.3153 15.4566 15.4055C15.4344 15.5183 15.326 15.6087 15.1955 15.6087Z" clip-rule="evenodd" opacity="0.81"/><path id="Vector_43" fill="#595961" fill-rule="evenodd" d="M18.0649 9.15462C18.3038 8.81622 18.5218 8.47768 18.7384 8.1167C18.6524 8.2295 18.0219 9.40295 16.7178 9.22239C16.6955 9.22239 17.4566 9.47057 18.0649 9.15462Z" clip-rule="evenodd" opacity="0.42"/><path id="Vector_44" fill="#595961" fill-rule="evenodd" d="M17.3259 10.5986C17.5218 10.2375 17.7176 9.8539 17.8689 9.49292C17.8036 9.62831 17.3689 10.8468 15.9995 10.8468C15.9995 10.8468 16.7607 11.0048 17.3259 10.5986Z" clip-rule="evenodd" opacity="0.42"/><path id="Vector_45" fill="#595961" fill-rule="evenodd" d="M16.7606 12.0885C16.9342 11.7048 17.0648 11.3212 17.1953 10.9376C17.1301 11.073 16.8912 12.3141 15.4565 12.4721C15.4565 12.4495 16.2384 12.5398 16.7606 12.0885Z" clip-rule="evenodd" opacity="0.42"/><path id="Vector_46" fill="#595961" fill-rule="evenodd" d="M25.4561 7.68786C25.3478 7.28155 25.2395 6.89798 25.0867 6.49182C25.1297 6.62721 25.5645 7.91346 24.6743 8.83858C24.6743 8.83858 25.3256 8.38739 25.4561 7.68786Z" clip-rule="evenodd" opacity="0.62"/><path id="Vector_47" fill="#595961" fill-rule="evenodd" d="M24.6093 5.65692C24.3051 5.36356 23.9995 5.09279 23.6953 4.8446C23.8051 4.9574 24.8259 5.79231 24.544 7.05598C24.5217 7.05598 24.8481 6.31127 24.6093 5.65692Z" clip-rule="evenodd" opacity="0.62"/><path id="Vector_48" fill="#595961" fill-rule="evenodd" d="M25.674 9.76405C25.6517 9.35788 25.5865 8.92914 25.5212 8.52283C25.5212 8.6808 25.7393 10.0122 24.6948 10.7343C24.6948 10.7343 25.4129 10.4184 25.674 9.76405Z" clip-rule="evenodd" opacity="0.62"/><path id="Vector_49" fill="#595961" fill-rule="evenodd" d="M25.7824 11.8854C25.8046 11.4792 25.8046 11.0504 25.7824 10.6443C25.7824 10.8023 25.8046 12.1337 24.6948 12.7429C24.6948 12.7204 25.456 12.4947 25.7824 11.8854Z" clip-rule="evenodd" opacity="0.62"/><path id="Vector_50" fill="#595961" fill-rule="evenodd" d="M16.2605 13.7355C16.3911 13.3293 16.4787 12.9231 16.5647 12.5394C16.5217 12.6748 16.3259 13.9611 14.9995 14.277C15.0218 14.277 15.8036 14.2544 16.2605 13.7355Z" clip-rule="evenodd" opacity="0.42"/><path id="Vector_51" fill="#595961" fill-rule="evenodd" d="M18.8911 7.91317C19.1952 7.6424 19.4785 7.34903 19.7397 7.03308C19.6299 7.12329 18.7605 8.04856 17.5439 7.71002C17.5647 7.71002 18.2383 8.11633 18.8911 7.91317Z" clip-rule="evenodd" opacity="0.42"/><path id="Vector_52" fill="#595961" fill-rule="evenodd" d="M19.8688 6.87567C20.2174 6.65008 20.5438 6.42433 20.8687 6.17615C20.7397 6.24391 19.7397 6.98847 18.5869 6.44692C18.5869 6.44692 19.1952 6.96588 19.8688 6.87567Z" clip-rule="evenodd" opacity="0.42"/><path id="Vector_53" fill="#595961" fill-rule="evenodd" d="M21.1954 6.13107C21.5871 6.01812 21.9565 5.88274 22.3259 5.74735C22.1954 5.79253 21.0219 6.19869 20.0649 5.34119C20.0649 5.34119 20.5218 6.01812 21.1954 6.13107Z" clip-rule="evenodd" opacity="0.62"/><path id="Vector_54" fill="#595961" fill-rule="evenodd" d="M22.3033 5.72494C22.6089 5.77012 22.9131 5.79271 23.2172 5.8153C23.1089 5.79271 22.1742 5.72495 21.7603 4.82227C21.7825 4.82227 21.8909 5.43158 22.3033 5.72494Z" clip-rule="evenodd" opacity="0.62"/><path id="Vector_55" fill="#595961" fill-rule="evenodd" d="M23.4783 6.22105C23.6742 6.46923 23.8685 6.71742 24.0644 6.94316C23.9991 6.85281 23.3908 6.10825 23.6949 5.18298C23.7172 5.18298 23.3908 5.70209 23.4783 6.22105Z" clip-rule="evenodd" opacity="0.62"/><path id="Vector_56" fill="url(#paint22_linear_94_20594)" fill-rule="evenodd" d="M24.9784 12.8781C24.9991 12.6299 25.7395 6.92073 23.6743 5.18314C23.2826 4.84474 22.8049 4.68677 22.2827 4.68677C21.891 4.68677 21.4563 4.77698 20.9994 4.95754C18.9995 5.70224 17.3259 7.71061 16.1524 10.7795C15.2607 13.0812 14.9788 15.1348 14.9565 15.225C14.9565 15.2926 14.9997 15.3604 15.0649 15.3604H15.0871C15.1524 15.3604 15.1954 15.3152 15.1954 15.2476C15.2177 15.1572 16.3912 6.92073 21.0646 5.16055C22.0645 4.77698 22.9132 4.84474 23.5215 5.3637C25.4991 7.01094 24.7603 12.7653 24.7396 12.833C24.7396 12.9007 24.7826 12.9684 24.8479 12.9684C24.8479 12.9684 24.8478 12.9684 24.8686 12.9684C24.9339 12.991 24.9784 12.9458 24.9784 12.8781Z" clip-rule="evenodd"/><path id="Vector_57" fill="url(#paint23_linear_94_20594)" fill-rule="evenodd" d="M25.8478 10.0573C25.7602 7.62022 25.2172 5.97284 24.2173 5.11534C23.6743 4.66414 23.0216 4.46099 22.2827 4.50616C22.848 4.5512 23.3687 4.75435 23.8049 5.11534C24.8049 5.9504 25.3478 7.62022 25.4339 10.0573C25.4991 11.7723 25.3048 13.2616 25.3048 13.3294C25.2603 13.6001 25.0867 13.8033 24.8686 13.8709C24.9131 13.8935 24.9339 13.8935 24.9784 13.8935C25.3255 13.9387 25.652 13.6903 25.695 13.3294C25.7173 13.2616 25.9131 11.7949 25.8478 10.0573Z" clip-rule="evenodd"/><path id="Vector_58" fill="url(#paint24_linear_94_20594)" fill-rule="evenodd" d="M21.0441 6.0632C16.6749 7.71044 15.5221 15.6311 15.5221 15.7213C15.4791 15.9921 15.304 16.1952 15.0874 16.2629C15.1304 16.2855 15.1527 16.2854 15.1957 16.2854C15.218 16.2854 15.261 16.2854 15.2833 16.2854C15.6097 16.2854 15.8693 16.0373 15.9138 15.7213C15.9346 15.6311 17.0651 7.73303 21.4343 6.08565C21.74 5.97285 21.9996 5.90523 22.24 5.88264C21.9136 5.83746 21.4996 5.90523 21.0441 6.0632Z" clip-rule="evenodd"/></g><defs><linearGradient id="paint0_linear_94_20594" x1="20.4161" x2="19.7343" y1="5.91104" y2="15.1933" gradientUnits="userSpaceOnUse"><stop stop-color="white" stop-opacity="0.65"/><stop offset="1" stop-color="white" stop-opacity="0.01"/></linearGradient><linearGradient id="paint1_linear_94_20594" x1="25.3982" x2="30.1982" y1="11.2242" y2="15.4285" gradientUnits="userSpaceOnUse"><stop stop-opacity="0.01"/><stop offset="1" stop-opacity="0.4"/></linearGradient><linearGradient id="paint2_linear_94_20594" x1="23.4738" x2="28.5544" y1="16.0878" y2="11.3554" gradientUnits="userSpaceOnUse"><stop stop-opacity="0.01"/><stop offset="1" stop-opacity="0.4"/></linearGradient><linearGradient id="paint3_linear_94_20594" x1="17.007" x2="-2.72672" y1="2.27759" y2="25.0152" gradientUnits="userSpaceOnUse"><stop stop-color="#B8D26E"/><stop offset="1" stop-color="#7FB525"/></linearGradient><linearGradient id="paint4_linear_94_20594" x1="44.0014" x2="33.1711" y1="7.97013" y2="8.17124" gradientUnits="userSpaceOnUse"><stop stop-color="#B4E034"/><stop offset="1" stop-color="#60A927"/></linearGradient><linearGradient id="paint5_linear_94_20594" x1="11.7875" x2="2.90813" y1="23.1315" y2="44.7546" gradientUnits="userSpaceOnUse"><stop stop-color="white"/><stop offset="1" stop-color="#CECEEB"/></linearGradient><linearGradient id="paint6_linear_94_20594" x1="24.5184" x2="38.5815" y1="76.3826" y2="76.3541" gradientUnits="userSpaceOnUse"><stop stop-color="#1D1D1B" stop-opacity="0.5"/><stop offset="0.038033" stop-color="#1D1D1B" stop-opacity="0.4837"/><stop offset="0.4243" stop-color="#1D1D1B" stop-opacity="0.3185"/><stop offset="1" stop-color="#1D1D1B" stop-opacity="0.01"/></linearGradient><linearGradient id="paint7_linear_94_20594" x1="26.1518" x2="23.8187" y1="8.70095" y2="9.95661" gradientUnits="userSpaceOnUse"><stop stop-opacity="0.01"/><stop offset="1" stop-opacity="0.4"/></linearGradient><linearGradient id="paint8_linear_94_20594" x1="16.3704" x2="14.7303" y1="12.4251" y2="13.8345" gradientUnits="userSpaceOnUse"><stop stop-opacity="0.01"/><stop offset="1" stop-opacity="0.4"/></linearGradient><linearGradient id="paint9_linear_94_20594" x1="32.3682" x2="32.5343" y1="40.8989" y2="43.0877" gradientUnits="userSpaceOnUse"><stop stop-opacity="0.01"/><stop offset="1" stop-opacity="0.4"/></linearGradient><linearGradient id="paint10_linear_94_20594" x1="28.4915" x2="28.8765" y1="37.6946" y2="43.3853" gradientUnits="userSpaceOnUse"><stop stop-color="white" stop-opacity="0.5"/><stop offset="0.0896271" stop-color="white" stop-opacity="0.4552"/><stop offset="1" stop-color="white" stop-opacity="0.01"/></linearGradient><linearGradient id="paint11_linear_94_20594" x1="27.7512" x2="28.436" y1="38.5798" y2="44.6586" gradientUnits="userSpaceOnUse"><stop stop-opacity="0.01"/><stop offset="1" stop-opacity="0.4"/></linearGradient><linearGradient id="paint12_linear_94_20594" x1="25.0644" x2="7.50259" y1="3.60581" y2="13.7629" gradientUnits="userSpaceOnUse"><stop stop-color="white" stop-opacity="0.5"/><stop offset="1" stop-color="white" stop-opacity="0.01"/></linearGradient><linearGradient id="paint13_linear_94_20594" x1="28.453" x2="43.9537" y1="56.6902" y2="56.7215" gradientUnits="userSpaceOnUse"><stop stop-color="#1D1D1B" stop-opacity="0.5"/><stop offset="0.0896271" stop-color="#1D1D1B" stop-opacity="0.4552"/><stop offset="1" stop-color="#1D1D1B" stop-opacity="0.01"/></linearGradient><linearGradient id="paint14_linear_94_20594" x1="39.5535" x2="37.3516" y1="10.7596" y2="11.2991" gradientUnits="userSpaceOnUse"><stop stop-color="white" stop-opacity="0.4"/><stop offset="1" stop-color="white" stop-opacity="0.01"/></linearGradient><linearGradient id="paint15_linear_94_20594" x1="19.7977" x2="20.9427" y1="43.7281" y2="38.2079" gradientUnits="userSpaceOnUse"><stop stop-color="#1D1D1B" stop-opacity="0.5"/><stop offset="0.0896271" stop-color="#1D1D1B" stop-opacity="0.4552"/><stop offset="1" stop-color="#1D1D1B" stop-opacity="0.01"/></linearGradient><linearGradient id="paint16_linear_94_20594" x1="26.4174" x2="40.5311" y1="75.6798" y2="75.6921" gradientUnits="userSpaceOnUse"><stop stop-color="#1D1D1B" stop-opacity="0.5"/><stop offset="1" stop-color="#1D1D1B" stop-opacity="0.01"/></linearGradient><linearGradient id="paint17_linear_94_20594" x1="13.5206" x2="6.67551" y1="7.21164" y2="33.5102" gradientUnits="userSpaceOnUse"><stop stop-color="white" stop-opacity="0.5"/><stop offset="1" stop-color="white" stop-opacity="0.01"/></linearGradient><linearGradient id="paint18_linear_94_20594" x1="13.5206" x2="6.67551" y1="7.21164" y2="33.5102" gradientUnits="userSpaceOnUse"><stop stop-color="white" stop-opacity="0.5"/><stop offset="1" stop-color="white" stop-opacity="0.01"/></linearGradient><linearGradient id="paint19_linear_94_20594" x1="30.1327" x2="24.7223" y1="34.7793" y2="42.226" gradientUnits="userSpaceOnUse"><stop stop-color="white" stop-opacity="0.5"/><stop offset="0.0896271" stop-color="white" stop-opacity="0.4552"/><stop offset="1" stop-color="white" stop-opacity="0.01"/></linearGradient><linearGradient id="paint20_linear_94_20594" x1="31.7644" x2="31.2287" y1="36.4913" y2="37.6921" gradientUnits="userSpaceOnUse"><stop stop-opacity="0.01"/><stop offset="1" stop-opacity="0.4"/></linearGradient><linearGradient id="paint21_linear_94_20594" x1="37.0773" x2="37.0509" y1="38.079" y2="38.4017" gradientUnits="userSpaceOnUse"><stop stop-opacity="0.01"/><stop offset="1" stop-opacity="0.4"/></linearGradient><linearGradient id="paint22_linear_94_20594" x1="17.5944" x2="15.2555" y1="3.92715" y2="13.1671" gradientUnits="userSpaceOnUse"><stop stop-color="white" stop-opacity="0.65"/><stop offset="1" stop-color="white" stop-opacity="0.01"/></linearGradient><linearGradient id="paint23_linear_94_20594" x1="22.8287" x2="26.8974" y1="9.25727" y2="13.3938" gradientUnits="userSpaceOnUse"><stop stop-opacity="0.01"/><stop offset="1" stop-opacity="0.4"/></linearGradient><linearGradient id="paint24_linear_94_20594" x1="20.2282" x2="25.8497" y1="15.3488" y2="9.57551" gradientUnits="userSpaceOnUse"><stop stop-opacity="0.01"/><stop offset="1" stop-opacity="0.4"/></linearGradient></defs></svg>