<svg xmlns="http://www.w3.org/2000/svg" fill="none" aria-hidden="true" viewBox="0 0 48 48"><g fill="#EE3524"><path d="M26.786 30.193a9.8 9.8 0 0 1-3.53 1.15c2.748-1 5.2-3.1 6.242-5.497.878-2.023.73-4.049-.428-5.876l3.803-2.46a11.05 11.05 0 0 1 2.01 5.115h-3.717l-.011.277c-.132 3.195-1.683 5.784-4.37 7.29Z"/><path d="M31.712 23.202h3.228A11.053 11.053 0 0 1 33.78 29l-2.16-1.38-.15.263c-1.752 3.105-4.87 4.956-8.342 4.956h-.03c-1.922-.006-3.779-.574-5.43-1.613a11.89 11.89 0 0 0 4.22.787c1.823 0 3.607-.438 5.175-1.317 2.747-1.54 4.43-4.262 4.648-7.494Z"/><path d="M23.13 33.415h-.031c-3.46-.01-6.711-1.735-9.024-4.707 1.758 3.748 5.544 6.35 9.925 6.35 4.06 0 7.61-2.237 9.507-5.55l-1.69-1.079c-1.88 3.13-5.105 4.986-8.688 4.986Z"/><path fill-rule="evenodd" d="M8.123 24c0-8.836 7.108-16 15.877-16 8.769 0 15.876 7.163 15.876 16S32.768 40 24 40c-8.77 0-15.877-7.163-15.877-16Zm4.332 0c0 6.425 5.169 11.634 11.545 11.634 6.375 0 11.543-5.209 11.543-11.634 0-6.425-5.168-11.634-11.543-11.634-6.376 0-11.545 5.21-11.545 11.634Z" clip-rule="evenodd"/></g></svg>