<svg xmlns="http://www.w3.org/2000/svg" fill="none" aria-hidden="true" viewBox="0 0 48 48"><path fill="#EE3524" d="M26.786 30.193a9.801 9.801 0 0 1-3.53 1.15c2.749-1 5.201-3.1 6.242-5.497.878-2.023.73-4.049-.428-5.876l3.803-2.46a11.05 11.05 0 0 1 2.01 5.115h-3.716l-.012.277c-.132 3.195-1.683 5.784-4.369 7.29Z"/><path fill="#EE3524" d="M31.712 23.202h3.228c.018.264.032.53.032.799a11.052 11.052 0 0 1-1.19 5l-2.161-1.38-.149.262c-1.753 3.105-4.87 4.956-8.342 4.956h-.03c-1.923-.006-3.78-.574-5.43-1.613a11.89 11.89 0 0 0 4.22.787c1.822 0 3.607-.438 5.175-1.317 2.746-1.54 4.43-4.262 4.647-7.494Z"/><path fill="#EE3524" d="M23.13 33.415h-.031c-3.46-.01-6.71-1.735-9.024-4.707 1.758 3.748 5.545 6.35 9.925 6.35 4.061 0 7.61-2.237 9.507-5.55l-1.689-1.079c-1.881 3.13-5.105 4.986-8.688 4.986Z"/><path fill="#EE3524" fill-rule="evenodd" d="M8.124 24C8.124 15.164 15.23 8 24 8s15.877 7.163 15.877 16S32.769 40 24 40c-8.768 0-15.876-7.163-15.876-16Zm4.332 0c0 6.425 5.169 11.634 11.544 11.634 6.376 0 11.544-5.209 11.544-11.634 0-6.425-5.168-11.634-11.544-11.634-6.375 0-11.544 5.21-11.544 11.634Z" clip-rule="evenodd"/></svg>