<svg xmlns="http://www.w3.org/2000/svg" fill="none" aria-hidden="true" viewBox="0 0 48 48"><path fill="#fff" d="M37.73 31.573c-4.956-2.4-5.745-6.104-5.78-6.38-.043-.332-.091-.594.276-.932.354-.327 1.924-1.3 2.36-1.604.72-.504 1.038-1.007.804-1.625-.164-.428-.562-.589-.981-.589-.133 0-.265.015-.394.044-.791.172-1.56.569-2.004.676a.7.7 0 0 1-.164.022c-.237 0-.327-.106-.304-.391.056-.865.173-2.554.037-4.132-.188-2.17-.887-3.246-1.717-4.197-.402-.461-2.266-2.443-5.863-2.443-3.598 0-5.46 1.982-5.858 2.437-.832.952-1.532 2.027-1.717 4.198-.137 1.577-.014 3.265.037 4.131.016.272-.067.391-.304.391a.706.706 0 0 1-.164-.022c-.444-.107-1.212-.504-2.004-.675a1.819 1.819 0 0 0-.393-.045c-.421 0-.818.164-.981.59-.234.617.082 1.12.804 1.624.436.304 2.007 1.276 2.36 1.604.367.339.32.6.277.933-.035.279-.826 3.984-5.78 6.38-.29.14-.784.438.086.918 1.367.756 2.277.675 2.985 1.13.6.388.245 1.222.681 1.523.537.37 2.122-.027 4.17.65 1.717.566 2.76 2.165 5.805 2.165s4.118-1.607 5.805-2.165c2.044-.677 3.632-.28 4.17-.65.435-.301.081-1.135.681-1.522.708-.456 1.617-.375 2.985-1.13.869-.476.375-.773.085-.914Z"/><path fill="#000" d="M39.886 31.29c-.223-.605-.646-.928-1.129-1.197a2.816 2.816 0 0 0-.245-.128c-.144-.075-.291-.147-.438-.223-1.503-.797-2.677-1.803-3.491-2.995a6.796 6.796 0 0 1-.6-1.064c-.07-.198-.066-.311-.016-.414a.672.672 0 0 1 .192-.2c.258-.171.525-.345.706-.462.322-.208.577-.373.741-.49.617-.432 1.05-.891 1.319-1.404a2.795 2.795 0 0 0 .138-2.32c-.409-1.077-1.425-1.745-2.656-1.745a3.655 3.655 0 0 0-.975.129 22.793 22.793 0 0 0-.07-2.278c-.232-2.688-1.173-4.097-2.154-5.22a8.585 8.585 0 0 0-2.19-1.764c-1.49-.85-3.178-1.282-5.018-1.282-1.84 0-3.52.431-5.011 1.282a8.555 8.555 0 0 0-2.195 1.766c-.98 1.124-1.922 2.536-2.154 5.222a23.077 23.077 0 0 0-.071 2.277 3.661 3.661 0 0 0-.974-.13c-1.232 0-2.25.67-2.657 1.745a2.798 2.798 0 0 0 .135 2.324c.27.513.702.971 1.32 1.403.163.115.419.28.741.49.174.114.428.279.678.444a.73.73 0 0 1 .217.219c.053.107.054.222-.024.435a6.732 6.732 0 0 1-.589 1.04c-.796 1.166-1.936 2.154-3.391 2.945-.771.409-1.573.682-1.911 1.602-.255.694-.088 1.485.56 2.15.238.249.514.458.818.62a8.856 8.856 0 0 0 2 .8c.144.037.28.098.404.18.236.208.203.52.518.976.158.235.358.44.592.601.66.457 1.403.485 2.19.516.71.027 1.515.058 2.435.361.38.126.776.37 1.235.654 1.101.678 2.609 1.604 5.132 1.604 2.523 0 4.041-.931 5.15-1.61.456-.28.85-.522 1.22-.645.92-.304 1.725-.334 2.436-.361.786-.03 1.528-.059 2.189-.515a2.28 2.28 0 0 0 .674-.736c.226-.386.22-.655.433-.843.116-.078.244-.137.38-.173a8.888 8.888 0 0 0 2.027-.808c.323-.173.613-.4.858-.672l.009-.01c.608-.651.76-1.418.511-2.096Zm-2.243 1.206c-1.368.756-2.277.675-2.984 1.13-.601.387-.246 1.221-.682 1.522-.537.37-2.122-.026-4.17.65-1.69.559-2.767 2.165-5.805 2.165s-4.09-1.603-5.807-2.169c-2.044-.676-3.633-.28-4.17-.65-.436-.3-.082-1.135-.682-1.522-.708-.455-1.617-.374-2.984-1.126-.87-.48-.377-.779-.087-.92 4.955-2.399 5.746-6.104 5.78-6.378.043-.333.09-.595-.276-.933-.354-.328-1.924-1.3-2.36-1.604-.721-.504-1.038-1.007-.805-1.625.164-.428.563-.59.982-.59.132.001.264.016.393.045.791.172 1.56.568 2.004.676a.71.71 0 0 0 .163.022c.237 0 .32-.12.305-.391-.051-.866-.174-2.554-.037-4.132.187-2.17.886-3.246 1.717-4.197.399-.457 2.273-2.439 5.858-2.439 3.586 0 5.465 1.974 5.864 2.43.832.95 1.532 2.026 1.717 4.196.137 1.578.019 3.267-.037 4.132-.018.285.067.39.305.39a.64.64 0 0 0 .163-.021c.445-.107 1.213-.504 2.005-.676.129-.029.26-.044.393-.044.421 0 .818.164.981.589.234.618-.082 1.121-.804 1.625-.435.304-2.006 1.276-2.36 1.604-.367.338-.319.6-.276.933.035.279.825 3.984 5.78 6.379.293.146.787.444-.084.929Z"/></svg>