<svg xmlns="http://www.w3.org/2000/svg" fill="none" aria-hidden="true" viewBox="0 0 48 48"><rect width="48" height="48" fill="#FFE400" rx="24"/><path fill="#fff" d="M36.871 30.875c-4.645-2.249-5.386-5.721-5.419-5.979-.04-.312-.085-.557.26-.874.331-.307 1.804-1.218 2.212-1.503.675-.472.973-.944.754-1.523-.154-.401-.527-.552-.92-.552-.124 0-.248.014-.369.041-.742.161-1.462.533-1.88.633a.655.655 0 0 1-.153.02c-.222 0-.306-.098-.285-.365.052-.811.163-2.394.035-3.873-.176-2.034-.832-3.042-1.61-3.933-.376-.433-2.124-2.29-5.496-2.29-3.373 0-5.118 1.857-5.492 2.284-.78.892-1.436 1.9-1.61 3.934-.128 1.479-.013 3.06.035 3.872.015.255-.063.367-.285.367a.666.666 0 0 1-.154-.021c-.416-.1-1.136-.472-1.878-.633a1.706 1.706 0 0 0-.37-.042c-.394 0-.766.154-.919.552-.22.58.077 1.051.754 1.523.409.285 1.881 1.196 2.213 1.503.343.318.3.563.26.875-.034.261-.775 3.734-5.42 5.979-.272.131-.735.41.081.861 1.282.708 2.135.632 2.798 1.06.563.362.23 1.144.64 1.426.502.347 1.988-.025 3.908.61 1.61.53 2.588 2.028 5.442 2.028 2.855 0 3.861-1.505 5.443-2.029 1.916-.634 3.405-.262 3.909-.61.408-.281.076-1.063.639-1.426.663-.427 1.515-.35 2.798-1.059.814-.445.351-.724.08-.856Z"/><path fill="#000" fill-rule="evenodd" d="M37.835 29.488c.452.252.85.555 1.058 1.122.233.635.09 1.354-.48 1.964l-.008.01a2.99 2.99 0 0 1-.805.63c-.6.329-1.238.583-1.9.757a1.173 1.173 0 0 0-.356.162c-.114.1-.16.225-.22.381a2.472 2.472 0 0 1-.186.409 2.14 2.14 0 0 1-.632.69c-.62.427-1.315.454-2.053.482h-.002c-.665.026-1.42.054-2.281.34-.347.114-.716.34-1.143.602l-.003.002c-1.04.637-2.462 1.508-4.826 1.508-2.365 0-3.779-.868-4.81-1.503-.43-.266-.802-.495-1.16-.613-.861-.284-1.616-.313-2.282-.339-.738-.028-1.434-.055-2.053-.483a2.132 2.132 0 0 1-.555-.564 2.255 2.255 0 0 1-.266-.533c-.059-.156-.106-.28-.22-.38a1.238 1.238 0 0 0-.378-.17 8.306 8.306 0 0 1-1.875-.75 3.039 3.039 0 0 1-.767-.58c-.608-.624-.764-1.365-.525-2.015.27-.736.858-1.03 1.473-1.34.106-.053.212-.106.318-.162 1.365-.741 2.433-1.667 3.18-2.76.213-.308.397-.634.552-.975.073-.2.072-.307.022-.408a.681.681 0 0 0-.203-.205 76 76 0 0 0-.636-.415l-.173-.113c-.221-.145-.4-.261-.522-.347-.579-.405-.983-.835-1.237-1.315a2.62 2.62 0 0 1-.127-2.178c.382-1.009 1.336-1.635 2.492-1.635a3.43 3.43 0 0 1 .912.121 21.71 21.71 0 0 1 .067-2.134c.218-2.517 1.1-3.84 2.02-4.894a8.016 8.016 0 0 1 2.057-1.655C20.699 9.405 22.275 9 24 9c1.725 0 3.308.405 4.704 1.202.77.434 1.464.992 2.053 1.652.92 1.054 1.802 2.374 2.02 4.894.061.716.077 1.444.066 2.134a3.43 3.43 0 0 1 .914-.121c1.154 0 2.107.627 2.49 1.635a2.617 2.617 0 0 1-.13 2.175c-.253.481-.657.911-1.236 1.316-.153.109-.391.263-.691.457l-.004.003c-.17.11-.42.272-.662.432a.63.63 0 0 0-.18.188c-.047.096-.05.202.015.388.157.349.346.682.562.997.764 1.117 1.864 2.06 3.274 2.808l.215.109.195.099c.067.03.145.07.23.12Zm-2.804 2.922c.484-.13 1.057-.282 1.76-.67.816-.454.353-.733.078-.87-4.645-2.246-5.386-5.718-5.419-5.98l-.004-.03c-.038-.298-.07-.537.263-.844.226-.209.979-.696 1.566-1.077.277-.18.516-.334.647-.426.677-.472.973-.943.754-1.523-.154-.398-.526-.552-.92-.552-.124 0-.248.015-.369.042-.437.095-.867.263-1.232.405-.254.1-.476.187-.647.228a.65.65 0 0 1-.154.02c-.222 0-.302-.098-.285-.366l.006-.088c.054-.834.152-2.357.029-3.784-.174-2.034-.83-3.042-1.61-3.934-.374-.427-2.136-2.276-5.497-2.276-3.361 0-5.119 1.857-5.493 2.285-.779.892-1.434 1.9-1.61 3.934-.117 1.359-.03 2.805.022 3.66l.013.212c.015.255-.063.367-.285.367a.662.662 0 0 1-.153-.021 5.667 5.667 0 0 1-.646-.227c-.365-.143-.795-.311-1.233-.406a1.713 1.713 0 0 0-.369-.041c-.392 0-.766.15-.92.551-.219.58.079 1.051.755 1.523.13.092.37.248.648.427.587.38 1.339.868 1.565 1.076.332.308.3.547.262.845l-.003.03c-.033.258-.775 3.73-5.42 5.979-.272.131-.735.41.082.861.7.385 1.272.537 1.755.665.402.107.741.197 1.042.39.305.197.347.515.387.811.034.252.065.486.253.616.218.15.621.166 1.164.187.71.027 1.659.063 2.745.422.545.18 1.018.471 1.517.777.974.599 2.043 1.256 3.927 1.256 1.89 0 2.972-.663 3.948-1.262.494-.304.962-.59 1.494-.767 1.088-.359 2.037-.395 2.746-.422.543-.021.945-.037 1.163-.187.188-.13.22-.365.253-.616.04-.296.082-.614.387-.81.3-.194.638-.284 1.038-.39Z" clip-rule="evenodd"/></svg>