<svg xmlns="http://www.w3.org/2000/svg" fill="none" aria-hidden="true" viewBox="0 0 48 48"><path fill="#C7402B" d="M37.112 11.7 19.389 30.86l22.273-10.276a17.98 17.98 0 0 0-4.55-8.885ZM23.962 6c-2.455 0-4.795.492-6.928 1.381l-2.378 20.04L26.539 6.186A18.128 18.128 0 0 0 23.962 6ZM41.84 21.688 20.734 33.499l19.8-2.35a17.968 17.968 0 0 0 1.305-9.461Zm-7.781 17.29a18.124 18.124 0 0 0 5.699-6.24l-18.56 3.686 12.86 2.555ZM27.626 6.374 17.295 28.766 36.46 11.04a17.987 17.987 0 0 0-8.834-4.667ZM25.47 42a17.92 17.92 0 0 0 5.661-1.417L20.734 39.35 25.469 42ZM7.524 16.62a17.92 17.92 0 0 0-1.52 5.796l2.801 5.006L7.524 16.62Zm7.947-8.497a18.119 18.119 0 0 0-6.354 5.675l2.614 13.16 3.74-18.835Z"/></svg>