<svg xmlns="http://www.w3.org/2000/svg" fill="none" aria-hidden="true" viewBox="0 0 48 48"><g id="solr-Icon"><g id="Group"><path id="Vector" fill="#C7402B" d="M37.1119 11.6994L19.389 30.8601L41.6624 20.584C41.0035 17.1844 39.3901 14.1274 37.1119 11.6994ZM23.9622 6C21.5067 6 19.1673 6.49248 17.0341 7.38132L14.656 27.4212L26.5395 6.18636C25.6974 6.06552 24.8376 6 23.9622 6ZM41.839 21.688L20.7336 33.499L40.535 31.1493C41.4738 28.9662 41.9959 26.5612 41.9959 24.0338C41.9959 23.2379 41.9389 22.4565 41.839 21.688ZM34.0578 38.9786C36.416 37.3825 38.3741 35.2417 39.7571 32.7385L21.1968 36.4243L34.0578 38.9786ZM27.6262 6.37326L17.2948 28.766L36.4598 11.0398C34.0564 8.72773 31.0167 7.07305 27.6262 6.37326ZM25.4695 42C27.4663 41.8346 29.3707 41.3464 31.1301 40.5832L20.7337 39.3496L25.4695 42ZM7.52374 16.6202C6.71278 18.4156 6.18699 20.3657 6.00439 22.4162L8.80517 27.4216L7.52374 16.6202ZM15.4714 8.12273C12.9268 9.48364 10.7485 11.4364 9.11688 13.7978L11.7307 26.958L15.4714 8.12273Z"/></g></g></svg>