<svg xmlns="http://www.w3.org/2000/svg" fill="none" aria-hidden="true" viewBox="0 0 48 48"><g id="square-Icon"><g id="Group"><path id="Vector" fill="#2E3B4E" d="M35.9836 6H12.0164C8.69403 6 6 8.69321 6 12.0164V35.9836C6 39.3068 8.69403 42 12.0164 42H35.9836C39.3068 42 42 39.3068 42 35.9836V12.0164C42.0008 8.69321 39.3076 6 35.9836 6V6ZM35.4551 33.5579C35.4551 34.6068 34.6051 35.456 33.5571 35.456H14.447C13.3981 35.456 12.5481 34.6068 12.5481 33.5579V14.447C12.5481 13.3981 13.3981 12.5481 14.447 12.5481H33.5571C34.6051 12.5481 35.4551 13.3981 35.4551 14.447V33.5579Z"/><path id="Vector_2" fill="#2E3B4E" d="M20.1801 28.9094C19.5779 28.9094 19.0903 28.4186 19.0903 27.814V20.186C19.0903 19.5814 19.5779 19.0905 20.1801 19.0905H27.8195C28.4233 19.0905 28.9093 19.5814 28.9093 20.186V27.814C28.9093 28.4186 28.4233 28.9094 27.8195 28.9094H20.1801Z"/></g></g></svg>