<svg xmlns="http://www.w3.org/2000/svg" fill="none" aria-hidden="true" viewBox="0 0 48 48"><g id="statuspage-Icon"><g id="Group"><path id="Vector" fill="url(#paint0_linear_94_18725)" d="M23.9999 38.7108C29.1659 38.7108 33.3537 34.5229 33.3537 29.3569C33.3537 24.1909 29.1659 20.0031 23.9999 20.0031C18.8339 20.0031 14.646 24.1909 14.646 29.3569C14.646 34.5229 18.8339 38.7108 23.9999 38.7108Z"/><path id="Vector_2" fill="#2684FF" d="M4.25254 18.5477L9.28121 24.5039C9.46708 24.7224 9.7328 24.8574 10.0189 24.8786C10.3051 24.8997 10.5878 24.8053 10.8038 24.6165C18.9472 17.3147 29.0314 17.3147 37.1962 24.6165C37.4122 24.8053 37.6949 24.8997 37.9811 24.8786C38.2672 24.8574 38.5329 24.7224 38.7188 24.5039L43.7475 18.5477C44.1275 18.0971 44.0724 17.4242 43.6242 17.0413C31.8298 6.70515 16.1916 6.70515 4.37584 17.0413C3.9276 17.4242 3.87253 18.0971 4.25254 18.5477Z"/></g></g><defs><linearGradient id="paint0_linear_94_18725" x1="23.9999" x2="23.9999" y1="35.4929" y2="18.9215" gradientUnits="userSpaceOnUse"><stop stop-color="#2684FF"/><stop offset="0.82" stop-color="#0052CC"/></linearGradient></defs></svg>