<svg xmlns="http://www.w3.org/2000/svg" fill="none" aria-hidden="true" viewBox="0 0 48 48"><g id="sublimetext-Icon"><g id="Group"><path id="Vector" fill="url(#paint0_linear_94_18749)" d="M37.8542 24.1063C37.8542 23.6844 37.5424 23.4411 37.1598 23.5619L10.8361 31.9092C10.4526 32.0309 10.1416 32.472 10.1416 32.8931V41.4244C10.1416 41.8463 10.4526 42.0904 10.8361 41.9687L37.1598 33.6222C37.5424 33.5006 37.8542 33.0594 37.8542 32.6375V24.1063Z"/><path id="Vector_2" fill="#FF9800" d="M10.1416 23.8345C10.1416 24.2564 10.4526 24.6976 10.8361 24.8192L37.1636 33.1672C37.547 33.2889 37.858 33.0448 37.858 32.6237V24.0916C37.858 23.6705 37.547 23.2294 37.1636 23.1077L10.8361 14.7597C10.4526 14.638 10.1416 14.8813 10.1416 15.3032V23.8345Z"/><path id="Vector_3" fill="#FF9800" d="M37.8542 6.57559C37.8542 6.15369 37.5424 5.90963 37.1598 6.03127L10.8361 14.3778C10.4526 14.4994 10.1416 14.9406 10.1416 15.3625V23.8938C10.1416 24.3157 10.4526 24.5589 10.8361 24.4381L37.1598 16.0908C37.5424 15.9692 37.8542 15.528 37.8542 15.1069V6.57559Z"/></g></g><defs><linearGradient id="paint0_linear_94_18749" x1="25.416" x2="26.5783" y1="34.3685" y2="30.4821" gradientUnits="userSpaceOnUse"><stop stop-color="#FF9700"/><stop offset="0.53" stop-color="#F48E00"/><stop offset="1" stop-color="#D06F00"/></linearGradient></defs></svg>