<svg xmlns="http://www.w3.org/2000/svg" fill="none" aria-hidden="true" viewBox="0 0 48 48"><path fill="#FF3E00" d="M37.068 10.763C33.725 5.98 27.123 4.561 22.35 7.602l-8.384 5.343a9.618 9.618 0 0 0-4.345 6.443 10.13 10.13 0 0 0 .998 6.503 9.645 9.645 0 0 0-1.438 3.594 10.25 10.25 0 0 0 1.75 7.752c3.344 4.785 9.946 6.202 14.72 3.16l8.383-5.342a9.616 9.616 0 0 0 4.345-6.443 10.13 10.13 0 0 0-.998-6.503 9.643 9.643 0 0 0 1.438-3.594 10.247 10.247 0 0 0-1.75-7.752"/><path fill="#fff" d="M21.53 37.692a6.661 6.661 0 0 1-7.15-2.65 6.164 6.164 0 0 1-1.053-4.663c.048-.266.115-.527.2-.783l.158-.482.43.316a10.819 10.819 0 0 0 3.28 1.639l.312.094-.029.311a1.88 1.88 0 0 0 .338 1.247 2.006 2.006 0 0 0 2.153.8c.182-.05.356-.126.515-.227l8.387-5.344c.414-.262.7-.685.787-1.168a1.863 1.863 0 0 0-.317-1.405 2.007 2.007 0 0 0-2.154-.8 1.848 1.848 0 0 0-.514.226l-3.2 2.04c-.526.335-1.1.587-1.703.748a6.661 6.661 0 0 1-7.15-2.65 6.164 6.164 0 0 1-1.053-4.663 5.783 5.783 0 0 1 2.614-3.874l8.385-5.345a6.113 6.113 0 0 1 1.705-.749 6.661 6.661 0 0 1 7.15 2.65 6.165 6.165 0 0 1 1.053 4.663 5.9 5.9 0 0 1-.2.783l-.159.482-.43-.315a10.812 10.812 0 0 0-3.28-1.64l-.312-.095.03-.31a1.884 1.884 0 0 0-.34-1.248 2.006 2.006 0 0 0-2.152-.799 1.849 1.849 0 0 0-.515.227l-8.386 5.344c-.415.261-.7.685-.788 1.168a1.86 1.86 0 0 0 .317 1.405 2.01 2.01 0 0 0 2.154.8c.182-.05.356-.126.515-.227l3.2-2.04a6.1 6.1 0 0 1 1.702-.748 6.661 6.661 0 0 1 7.15 2.65 6.165 6.165 0 0 1 1.054 4.664 5.787 5.787 0 0 1-2.614 3.875l-8.386 5.344a6.11 6.11 0 0 1-1.704.749"/></svg>