<svg xmlns="http://www.w3.org/2000/svg" fill="none" aria-hidden="true" viewBox="0 0 48 49"><path fill="#000" d="M40.52 27.578a5.064 5.064 0 0 0 0-7.154 5.025 5.025 0 0 0-3.576-1.481 5.19 5.19 0 0 0-.945.086 5.07 5.07 0 0 0 2.213-4.18 5.065 5.065 0 0 0-5.059-5.058 5.07 5.07 0 0 0-4.185 2.22 5.07 5.07 0 0 0-1.39-4.529A5.025 5.025 0 0 0 24.001 6a5.025 5.025 0 0 0-3.577 1.482 5.07 5.07 0 0 0-1.389 4.53A5.07 5.07 0 0 0 14.85 9.79a5.064 5.064 0 0 0-5.06 5.06 5.07 5.07 0 0 0 2.213 4.18 5.136 5.136 0 0 0-.945-.087 5.025 5.025 0 0 0-3.577 1.481A5.025 5.025 0 0 0 6 24.001c0 1.351.527 2.622 1.482 3.577a5.026 5.026 0 0 0 3.577 1.482c.32 0 .637-.03.945-.087a5.07 5.07 0 0 0-2.213 4.18c0 2.79 2.27 5.058 5.059 5.058a5.07 5.07 0 0 0 4.185-2.22 5.07 5.07 0 0 0 1.39 4.53A5.026 5.026 0 0 0 24 42.002a5.026 5.026 0 0 0 3.577-1.482 5.07 5.07 0 0 0 1.39-4.53 5.07 5.07 0 0 0 4.185 2.221 5.064 5.064 0 0 0 5.059-5.058 5.07 5.07 0 0 0-2.213-4.18c.308.058.624.087.945.087a5.026 5.026 0 0 0 3.577-1.482Z"/><path fill="#FFB13B" d="M38.994 21.95a2.901 2.901 0 0 0-4.103 0h-5.938l4.199-4.2a2.901 2.901 0 1 0-2.901-2.9l-4.2 4.198v-5.937a2.901 2.901 0 1 0-4.102 0v5.937L17.75 14.85a2.901 2.901 0 1 0-2.901 2.9l4.198 4.2H13.11a2.901 2.901 0 1 0 0 4.103h5.938l-4.2 4.198a2.901 2.901 0 1 0 2.902 2.902l4.199-4.199v5.938a2.901 2.901 0 1 0 4.103 0v-5.938l4.199 4.199a2.901 2.901 0 1 0 2.901-2.901l-4.199-4.2h5.938a2.901 2.901 0 0 0 4.103-4.102Z"/></svg>