<svg xmlns="http://www.w3.org/2000/svg" fill="none" aria-hidden="true" viewBox="0 0 48 48"><path fill="url(#a)" d="M13.995 6h19.94c.97 0 1.913.155 2.827.478a7.944 7.944 0 0 1 3.417 2.419 7.885 7.885 0 0 1 1.73 3.853c.084.52.098 1.04.098 1.56v19.45c0 .62-.028 1.252-.154 1.857a7.961 7.961 0 0 1-1.899 3.754 7.961 7.961 0 0 1-3.516 2.264 8.454 8.454 0 0 1-2.517.366c-.38 0-19.983 0-20.278-.014a8.024 8.024 0 0 1-4.05-1.336 8.127 8.127 0 0 1-2.742-3.15 7.935 7.935 0 0 1-.802-3.502V14.002a7.465 7.465 0 0 1 .746-3.446 7.984 7.984 0 0 1 2.714-3.164 7.877 7.877 0 0 1 4.036-1.364c.14-.028.295-.028.45-.028Z"/><path fill="url(#b)" d="M36.368 35.447a5.494 5.494 0 0 0-.422-.577 5.974 5.974 0 0 0-1.21-1.097 3.702 3.702 0 0 0-1.897-.646 3.435 3.435 0 0 0-1.407.225c-.45.154-.886.38-1.308.604a18.53 18.53 0 0 1-1.504.717c-.619.254-1.266.45-1.927.591-.83.155-1.673.211-2.503.197a16.915 16.915 0 0 1-4.444-.675c-1.265-.38-2.475-.9-3.614-1.561a18.64 18.64 0 0 1-2.798-1.983 20.463 20.463 0 0 1-1.997-1.983 21.706 21.706 0 0 1-1.21-1.547 6.562 6.562 0 0 1-.421-.66l-3.713-4.008v-9.07C5.993 9.571 9.551 6 13.953 6h7.101l5.26 5.344c11.868 8.072 8.03 16.973 8.03 16.973s3.374 3.797 2.024 7.13Z"/><path fill="#fff" d="M26.341 11.344c11.87 8.072 8.03 16.973 8.03 16.973s3.375 3.811 2.011 7.144c0 0-1.392-2.334-3.726-2.334-2.25 0-3.572 2.334-8.1 2.334-10.083 0-14.85-8.423-14.85-8.423C18.79 33.014 24.99 28.78 24.99 28.78c-4.09-2.375-12.795-13.738-12.795-13.738 7.58 6.455 10.856 8.156 10.856 8.156-1.955-1.617-7.44-9.52-7.44-9.52C20 18.122 28.719 24.323 28.719 24.323c2.475-6.862-2.377-12.98-2.377-12.98Z"/><defs><linearGradient id="a" x1="27.409" x2="20.607" y1="4.715" y2="43.289" gradientUnits="userSpaceOnUse"><stop stop-color="#FAAE42"/><stop offset="1" stop-color="#EF3E31"/></linearGradient><linearGradient id="b" x1="24.36" x2="19.383" y1="6.582" y2="34.813" gradientUnits="userSpaceOnUse"><stop stop-color="#E39F3A"/><stop offset="1" stop-color="#D33929"/></linearGradient></defs></svg>