<svg xmlns="http://www.w3.org/2000/svg" fill="none" aria-hidden="true" viewBox="0 0 48 48"><path fill="#FDB511" d="M40.316 6v1.108h1.107V6h-1.108Zm0 2.215v1.108h1.107V8.215h-1.108Zm-3.324 1.108v1.108H38.1V9.323h-1.108Zm-14.493.83c-8.795 0-15.922 7.128-15.922 15.923S13.704 42 22.499 42c8.795 0 15.923-7.128 15.923-15.924 0-8.797-7.128-15.923-15.921-15.923h-.002Zm0 5.078c5.985 0 10.847 4.86 10.847 10.845 0 5.984-4.862 10.846-10.847 10.846-5.984 0-10.799-4.862-10.799-10.846 0-5.985 4.815-10.845 10.8-10.845Z"/><g fill="#000"><path d="M39.208 8.215V7.108h1.107v1.107h-1.107Zm-2.216 1.108h2.216V8.215h-2.216v1.108Z"/><path fill-rule="evenodd" d="M36.992 11.538V9.323h-1.107v2.215h-1.108v-1.107h-1.108v1.107h1.108v1.108h-2.215v1.108h-1.108v1.107h-1.108v1.108h-1.108v1.108h-1.107v1.107h-1.108c-2.892 3.613-3.62 5.2-4.772 8.122-1.307-2.643-2.867-4.468-5.568-5.676l-.028-.007c-.492-.127-.74-.19-1.08.284-.345.483-.134.918.278 1.43.288.358.585.708.882 1.058.82.967 1.639 1.932 2.256 3.05.615 1.11 1.323 2.668 1.87 3.872.332.73.605 1.331.76 1.62.33.61 1.128.878 1.434.878 1.476-.175 1.618-.871 1.862-2.067.026-.127.053-.26.083-.398.505-2.362 1.159-4.803 4.238-7.736v-1.106h1.108V20.4h1.108v-1.108h1.108v-1.107h1.107v-1.108h1.108v-1.108h1.108v-1.107h1.107v-2.216H38.1v-1.108h1.108v-1.107H38.1v1.107h-1.108Zm0 0h-1.107v1.108h-1.108v1.108h1.108v-1.108h1.107v-1.108Zm-4.43 6.647v-1.108h-1.108v1.108h1.108Zm-1.108-3.323v1.107h1.108v-1.107h-1.108Z" clip-rule="evenodd"/></g></svg>