<svg xmlns="http://www.w3.org/2000/svg" fill="none" aria-hidden="true" viewBox="0 0 48 48"><path fill="#C50000" d="M10.934 9.972h26.364v2.685H25.344v25.395h-2.685V12.657H10.934V9.972Z"/><path fill="red" d="M11.43 16.626A5.313 5.313 0 1 0 11.43 6a5.313 5.313 0 0 0 0 10.626Zm12.57 0A5.313 5.313 0 1 0 24 6a5.313 5.313 0 0 0 0 10.626Zm17.884-5.313a5.313 5.313 0 1 1-10.626 0 5.313 5.313 0 0 1 10.626 0ZM24 29.315a5.313 5.313 0 1 0 0-10.627 5.313 5.313 0 0 0 0 10.627Zm5.313 7.372a5.313 5.313 0 1 1-10.626 0 5.313 5.313 0 0 1 10.626 0Z"/><path fill="#CBD7DC" d="M16.742 24.002a5.313 5.313 0 1 1-10.626 0 5.313 5.313 0 0 1 10.626 0Zm25.142 0a5.313 5.313 0 1 1-10.626 0 5.313 5.313 0 0 1 10.626 0ZM11.43 42a5.313 5.313 0 1 0 0-10.626 5.313 5.313 0 0 0 0 10.626Zm30.454-5.313a5.313 5.313 0 1 1-10.626 0 5.313 5.313 0 0 1 10.626 0Z"/></svg>