<svg xmlns="http://www.w3.org/2000/svg" fill="none" aria-hidden="true" viewBox="0 0 48 48"><g id="tecsys-Icon"><g id="Group"><path id="Union" fill="#C50000" d="M10.9336 9.97247H37.2981V12.6569H25.3435V38.0523H22.6591V12.6569H10.9336V9.97247Z"/><g id="Union_2"><path fill="#FF0000" d="M11.4294 16.6263C14.3637 16.6263 16.7425 14.2475 16.7425 11.3132C16.7425 8.37878 14.3637 6 11.4294 6C8.49499 6 6.11621 8.37878 6.11621 11.3132C6.11621 14.2475 8.49499 16.6263 11.4294 16.6263Z"/><path fill="#FF0000" d="M24 16.6263C26.9344 16.6263 29.3131 14.2475 29.3131 11.3132C29.3131 8.37878 26.9344 6 24 6C21.0656 6 18.6868 8.37878 18.6868 11.3132C18.6868 14.2475 21.0656 16.6263 24 16.6263Z"/><path fill="#FF0000" d="M41.8841 11.3132C41.8841 14.2475 39.5053 16.6263 36.5709 16.6263C33.6365 16.6263 31.2578 14.2475 31.2578 11.3132C31.2578 8.37878 33.6365 6 36.5709 6C39.5053 6 41.8841 8.37878 41.8841 11.3132Z"/><path fill="#FF0000" d="M24 29.3147C26.9344 29.3147 29.3131 26.9359 29.3131 24.0015C29.3131 21.0672 26.9344 18.6884 24 18.6884C21.0656 18.6884 18.6868 21.0672 18.6868 24.0015C18.6868 26.9359 21.0656 29.3147 24 29.3147Z"/><path fill="#FF0000" d="M29.3131 36.6868C29.3131 39.6212 26.9344 42 24 42C21.0656 42 18.6868 39.6212 18.6868 36.6868C18.6868 33.7525 21.0656 31.3737 24 31.3737C26.9344 31.3737 29.3131 33.7525 29.3131 36.6868Z"/></g><g id="Union_3"><path fill="#CBD7DC" d="M16.7425 24.0016C16.7425 26.9359 14.3637 29.3147 11.4294 29.3147C8.49499 29.3147 6.11621 26.9359 6.11621 24.0016C6.11621 21.0672 8.49499 18.6884 11.4294 18.6884C14.3637 18.6884 16.7425 21.0672 16.7425 24.0016Z"/><path fill="#CBD7DC" d="M41.8841 24.0016C41.8841 26.9359 39.5053 29.3147 36.5709 29.3147C33.6365 29.3147 31.2578 26.9359 31.2578 24.0016C31.2578 21.0672 33.6365 18.6884 36.5709 18.6884C39.5053 18.6884 41.8841 21.0672 41.8841 24.0016Z"/><path fill="#CBD7DC" d="M11.4294 42C14.3637 42 16.7425 39.6212 16.7425 36.6869C16.7425 33.7525 14.3637 31.3737 11.4294 31.3737C8.49499 31.3737 6.11621 33.7525 6.11621 36.6869C6.11621 39.6212 8.49499 42 11.4294 42Z"/><path fill="#CBD7DC" d="M41.8841 36.6869C41.8841 39.6212 39.5053 42 36.5709 42C33.6365 42 31.2578 39.6212 31.2578 36.6869C31.2578 33.7525 33.6365 31.3737 36.5709 31.3737C39.5053 31.3737 41.8841 33.7525 41.8841 36.6869Z"/></g></g></g></svg>