<svg xmlns="http://www.w3.org/2000/svg" fill="none" aria-hidden="true" viewBox="0 0 48 48"><g id="testproject-Icon"><g id="Group"><path id="Union" fill="#EF516F" d="M7.01868 13.138C6.50959 14.3396 6.24463 15.6304 6.23926 16.9354C6.24277 18.2427 6.50682 19.5362 7.01597 20.7403C7.52512 21.9444 8.26917 23.035 9.20462 23.9483L17.2125 32.031C17.1978 32.1202 17.1887 32.2107 17.1852 32.3019C17.1646 32.8491 17.3507 33.384 17.7066 33.8001C18.1145 34.2035 18.6649 34.4297 19.2385 34.4297C19.8121 34.4297 20.3626 34.2035 20.7704 33.8001C21.178 33.3917 21.407 32.8382 21.407 32.2612C21.407 31.6842 21.178 31.1307 20.7704 30.7223C20.3526 30.3683 19.8169 30.1846 19.2698 30.2077C19.0561 30.2168 18.8467 30.2572 18.6479 30.3261L10.7084 22.3742C9.26917 20.9329 8.46081 18.9793 8.46081 16.9424C8.46081 14.9056 9.26917 12.952 10.7084 11.5106L11.2846 10.9344C12.2623 9.95566 13.4859 9.25888 14.8266 8.91754C16.1672 8.5762 17.5751 8.60295 18.9018 8.99497C19.185 9.09001 19.4945 9.06864 19.762 8.93554C20.0295 8.80244 20.2332 8.56852 20.3282 8.28525C20.4233 8.00197 20.4019 7.69254 20.2688 7.42503C20.1357 7.15751 19.9018 6.95383 19.6185 6.85878C17.9075 6.34035 16.0875 6.29799 14.3542 6.73627C12.6209 7.17455 11.0398 8.07689 9.78083 9.34631L9.20462 9.93657C8.27085 10.8482 7.52778 11.9364 7.01868 13.138Z"/><path id="Union_2" fill="#F8A266" d="M27.9317 16.7198C27.8768 16.7353 27.8212 16.7487 27.765 16.76C27.3423 16.8444 26.9041 16.8015 26.5058 16.6367C26.1075 16.4719 25.7671 16.1927 25.5276 15.8344C25.288 15.4761 25.1602 15.0548 25.1602 14.6238C25.1602 14.1928 25.288 13.7715 25.5276 13.4131C25.7671 13.0548 26.1075 12.7756 26.5058 12.6109C26.9041 12.4461 27.3423 12.4032 27.765 12.4876C28.1876 12.572 28.5758 12.7798 28.8803 13.0849C29.2845 13.4951 29.5111 14.0479 29.5111 14.6238C29.5111 14.7809 29.4943 14.9362 29.4615 15.0874L37.6774 23.316C38.6043 24.2356 39.339 25.3305 39.8384 26.537C40.3379 27.7434 40.5922 29.0372 40.5865 30.3429C40.5922 31.6487 40.3379 32.9425 39.8384 34.1489C39.339 35.3553 38.6043 36.4503 37.6774 37.3699L37.1011 37.9461C35.8377 39.2089 34.2571 40.1077 32.5259 40.5479C30.7946 40.9882 28.9767 40.9535 27.2635 40.4476C27.0289 40.3741 26.825 40.2256 26.6829 40.0251C26.5407 39.8246 26.4682 39.583 26.4764 39.3374C26.4764 39.0416 26.5929 38.7578 26.8008 38.5473C27.0086 38.3369 27.2909 38.2168 27.5867 38.2131C27.694 38.1997 27.8026 38.1997 27.9099 38.2131C29.2366 38.6051 30.6445 38.6319 31.9851 38.2905C33.3258 37.9492 34.5494 37.2524 35.5271 36.2737L36.1033 35.6975C36.8195 34.9842 37.388 34.1366 37.7763 33.2034C38.1645 32.2701 38.3649 31.2694 38.366 30.2586C38.3417 28.2533 37.5348 26.3369 36.1174 24.9182L27.9317 16.7198Z"/><path id="Union_3" fill="#923B95" d="M32.1038 29.979C32.651 29.9997 33.1859 29.8135 33.602 29.4576C34.0053 29.0498 34.2316 28.4993 34.2316 27.9257C34.2316 27.3521 34.0053 26.8017 33.602 26.3939C33.4007 26.1903 33.161 26.0287 32.8969 25.9185C32.6327 25.8082 32.3493 25.7514 32.0631 25.7514C31.7768 25.7514 31.4934 25.8082 31.2293 25.9185C30.9651 26.0287 30.7255 26.1903 30.5242 26.3939C30.1702 26.8116 29.9864 27.3473 30.0096 27.8944C30.0166 28.0593 30.0422 28.2216 30.0852 28.3784L21.909 36.5547C21.1963 37.269 20.3496 37.8357 19.4175 38.2224C18.4855 38.609 17.4863 38.8081 16.4772 38.8081C15.4681 38.8081 14.4689 38.609 13.5369 38.2224C12.6048 37.8357 11.7581 37.269 11.0454 36.5547L10.4692 35.9785C9.49044 35.0008 8.79367 33.7771 8.45233 32.4365C8.11099 31.0959 8.13774 29.688 8.52975 28.3613C8.61361 28.078 8.58151 27.773 8.44051 27.5134C8.2995 27.2538 8.06114 27.0609 7.77787 26.977C7.49459 26.8931 7.18961 26.9252 6.93 27.0662C6.67039 27.2072 6.47743 27.4456 6.39357 27.7289C6.12933 28.6423 5.99682 29.5888 6.00006 30.5396C5.99731 33.1727 7.03836 35.6996 8.89515 37.5666L9.44325 38.1287C10.365 39.0534 11.4602 39.787 12.666 40.2876C13.8718 40.7882 15.1646 41.0458 16.4702 41.0458C17.7758 41.0458 19.0685 40.7882 20.2744 40.2876C21.4802 39.787 22.5753 39.0534 23.4971 38.1287L31.7001 29.9257C31.8318 29.9558 31.9669 29.9739 32.1038 29.979Z"/><path id="Union_4" fill="#05A2D8" d="M17.1372 18.4461C17.1776 18.6127 17.1985 18.7849 17.1985 18.9592C17.1985 19.5328 16.9722 20.0832 16.5689 20.491C16.2652 20.7981 15.8771 21.0079 15.4539 21.0939C15.0307 21.1799 14.5915 21.1381 14.192 20.974C13.7926 20.8098 13.451 20.5306 13.2106 20.1719C12.9702 19.8131 12.8418 19.391 12.8418 18.9592C12.8418 18.5273 12.9702 18.1052 13.2106 17.7464C13.451 17.3877 13.7926 17.1085 14.192 16.9443C14.5915 16.7802 15.0307 16.7384 15.4539 16.8244C15.4944 16.8327 15.5346 16.842 15.5745 16.8525L23.2575 9.12153C24.1801 8.19857 25.2756 7.46641 26.4813 6.96689C27.687 6.46737 28.9793 6.21027 30.2844 6.21027C31.5895 6.21027 32.8817 6.46737 34.0874 6.96689C35.2931 7.46641 36.3886 8.19857 37.3113 9.12153L37.8875 9.7118C39.1594 10.9693 40.0644 12.5497 40.5051 14.2831C40.9459 16.0165 40.9058 17.8372 40.3891 19.5495C40.3494 19.6907 40.2823 19.8227 40.1916 19.9379C40.1009 20.0532 39.9884 20.1494 39.8605 20.2212C39.7327 20.293 39.5919 20.3389 39.4463 20.3562C39.3006 20.3736 39.153 20.3621 39.0118 20.3225C38.8706 20.2828 38.7386 20.2157 38.6234 20.125C38.5081 20.0343 38.4119 19.9218 38.3401 19.7939C38.2683 19.666 38.2224 19.5252 38.2051 19.3796C38.1877 19.234 38.1992 19.0864 38.2389 18.9452C38.6426 17.615 38.678 16.2002 38.3414 14.8514C38.0049 13.5027 37.3089 12.2704 36.3275 11.2858L35.7513 10.6956C34.31 9.25636 32.3564 8.448 30.3195 8.448C28.2827 8.448 26.3291 9.25636 24.8877 10.6956L17.1372 18.4461Z"/></g></g></svg>