<svg xmlns="http://www.w3.org/2000/svg" fill="none" aria-hidden="true" viewBox="0 0 48 48"><path fill="#EF516F" d="M7.019 13.138a9.838 9.838 0 0 0-.78 3.797 9.838 9.838 0 0 0 2.966 7.013l8.007 8.083a2.18 2.18 0 0 0 .495 1.77 2.178 2.178 0 0 0 3.063 0 2.179 2.179 0 0 0 0-3.079 2.179 2.179 0 0 0-2.122-.396l-7.94-7.952a7.687 7.687 0 0 1 0-10.863l.577-.577a7.687 7.687 0 0 1 7.617-1.939 1.127 1.127 0 1 0 .716-2.136 9.838 9.838 0 0 0-9.837 2.487l-.576.59c-.934.912-1.677 2-2.186 3.202Z"/><path fill="#F8A266" d="M27.932 16.72a2.178 2.178 0 1 1 .949-3.635 2.193 2.193 0 0 1 .58 2.002l8.216 8.229a9.837 9.837 0 0 1 2.91 7.027 9.837 9.837 0 0 1-2.91 7.027l-.576.576a9.935 9.935 0 0 1-9.837 2.502 1.123 1.123 0 0 1-.788-1.11 1.124 1.124 0 0 1 1.11-1.125 1.35 1.35 0 0 1 .324 0 7.687 7.687 0 0 0 7.617-1.94l.576-.576a7.69 7.69 0 0 0 2.263-5.438 7.688 7.688 0 0 0-2.249-5.34l-8.185-8.2Z"/><path fill="#923B95" d="M32.104 29.979a2.178 2.178 0 0 0 1.498-.521 2.179 2.179 0 0 0-.705-3.54 2.164 2.164 0 0 0-2.373.476 2.178 2.178 0 0 0-.439 1.984l-8.176 8.177a7.673 7.673 0 0 1-10.864 0l-.576-.577a7.688 7.688 0 0 1-1.94-7.617 1.114 1.114 0 0 0-2.135-.632A9.992 9.992 0 0 0 6 30.539a9.95 9.95 0 0 0 2.895 7.028l.548.562a9.922 9.922 0 0 0 14.054 0l8.203-8.203c.132.03.267.048.404.053Z"/><path fill="#05A2D8" d="M17.137 18.446a2.177 2.177 0 1 1-1.563-1.594l7.684-7.73a9.935 9.935 0 0 1 14.053 0l.577.59a9.837 9.837 0 0 1 2.501 9.837 1.116 1.116 0 0 1-2.15-.604 7.687 7.687 0 0 0-1.911-7.66l-.577-.59a7.687 7.687 0 0 0-10.863 0l-7.75 7.751Z"/></svg>