<svg xmlns="http://www.w3.org/2000/svg" fill="none" aria-hidden="true" viewBox="0 0 48 48"><g fill-rule="evenodd" clip-rule="evenodd"><path fill="#00F2EA" d="M20.872 20.6v-1.248a9.648 9.648 0 0 0-1.308-.095c-5.35 0-9.703 4.353-9.703 9.703a9.697 9.697 0 0 0 4.143 7.944 9.665 9.665 0 0 1-2.606-6.606c0-5.274 4.23-9.575 9.474-9.698"/><path fill="#00F2EA" d="M21.1 34.729a4.434 4.434 0 0 0 4.424-4.265l.008-21.126h3.86A7.337 7.337 0 0 1 29.266 8h-5.271l-.01 21.127a4.432 4.432 0 0 1-4.421 4.264 4.4 4.4 0 0 1-2.056-.509A4.424 4.424 0 0 0 21.1 34.73Zm15.501-18.22v-1.175a7.286 7.286 0 0 1-3.993-1.187 7.338 7.338 0 0 0 3.994 2.361"/><path fill="#FF004F" d="M32.607 14.146a7.302 7.302 0 0 1-1.804-4.808H29.39a7.346 7.346 0 0 0 3.216 4.808ZM19.564 24.528a4.437 4.437 0 0 0-4.431 4.431 4.434 4.434 0 0 0 2.374 3.923 4.403 4.403 0 0 1-.838-2.584 4.437 4.437 0 0 1 4.431-4.432c.457 0 .894.075 1.308.205V20.69a9.661 9.661 0 0 0-1.308-.095c-.077 0-.152.005-.229.006v4.134a4.36 4.36 0 0 0-1.307-.206"/><path fill="#FF004F" d="M36.6 16.508v4.097c-2.733 0-5.265-.874-7.333-2.358V28.96c0 5.35-4.352 9.703-9.703 9.703a9.644 9.644 0 0 1-5.56-1.76A9.676 9.676 0 0 0 21.1 40c5.35 0 9.703-4.353 9.703-9.702V19.585a12.538 12.538 0 0 0 7.334 2.358v-5.272a7.34 7.34 0 0 1-1.537-.163"/><path fill="#fff" d="M29.267 28.96V18.246a12.536 12.536 0 0 0 7.334 2.358v-4.097a7.338 7.338 0 0 1-3.994-2.362 7.349 7.349 0 0 1-3.216-4.808h-3.86l-.007 21.126A4.434 4.434 0 0 1 21.1 34.73a4.427 4.427 0 0 1-3.592-1.847 4.435 4.435 0 0 1-2.376-3.922 4.436 4.436 0 0 1 4.431-4.432c.456 0 .894.075 1.308.206V20.6c-5.245.123-9.474 4.424-9.474 9.698 0 2.55.991 4.872 2.606 6.606a9.645 9.645 0 0 0 5.56 1.758c5.35 0 9.703-4.352 9.703-9.703"/></g></svg>