<svg xmlns="http://www.w3.org/2000/svg" fill="none" aria-hidden="true" viewBox="0 0 48 48"><path fill="#F22F46" d="M28.483 15.774a3.743 3.743 0 1 0 0 7.486 3.743 3.743 0 0 0 0-7.486Zm0 8.966a3.743 3.743 0 1 0 0 7.486 3.743 3.743 0 0 0 0-7.486Zm-8.966 0a3.743 3.743 0 1 0 0 7.486 3.743 3.743 0 0 0 0-7.486Zm0-8.965a3.743 3.743 0 1 0 0 7.485 3.743 3.743 0 0 0 0-7.485Z"/><path fill="#F22F46" fill-rule="evenodd" d="M6 24c0-9.94 8.059-18 18-18s18 8.06 18 18c0 9.941-8.059 18-18 18S6 33.941 6 24Zm4.744 0c0 7.321 5.935 13.256 13.256 13.256 7.321 0 13.256-5.935 13.256-13.256 0-7.321-5.935-13.256-13.256-13.256-7.321 0-13.256 5.935-13.256 13.256Z" clip-rule="evenodd"/><path fill="#F22F46" d="M24 6Z"/></svg>