<svg xmlns="http://www.w3.org/2000/svg" fill="none" aria-hidden="true" viewBox="0 0 48 48"><path fill="#007ACC" d="M6 24v18h36V6H6v18Z"/><path fill="#fff" d="m13.96 24.12-.01 1.474h4.684v13.314h3.314V25.594h4.686v-1.446c0-.8-.017-1.469-.04-1.486-.017-.023-2.869-.034-6.326-.028l-6.291.017-.018 1.468Zm21.089-1.511a4.481 4.481 0 0 1 2.251 1.297c.332.354.823 1 .863 1.154.011.046-1.554 1.098-2.503 1.686-.034.023-.171-.126-.326-.354-.462-.674-.948-.966-1.691-1.017-1.091-.075-1.794.497-1.789 1.451 0 .28.04.446.155.674.24.497.685.795 2.085 1.4 2.578 1.109 3.68 1.84 4.366 2.88.766 1.16.937 3.012.417 4.389-.571 1.497-1.988 2.514-3.983 2.851-.617.109-2.08.092-2.742-.028-1.446-.257-2.818-.972-3.663-1.909-.332-.365-.977-1.32-.937-1.388.017-.023.165-.115.331-.212.16-.091.766-.44 1.337-.771l1.034-.6.218.32c.302.463.965 1.097 1.365 1.308 1.149.606 2.726.52 3.503-.177.332-.303.469-.617.469-1.08 0-.417-.052-.6-.269-.914-.28-.4-.851-.737-2.474-1.44-1.857-.8-2.657-1.297-3.389-2.086-.423-.457-.823-1.188-.988-1.8-.137-.508-.172-1.783-.063-2.297.383-1.794 1.737-3.046 3.691-3.417.635-.12 2.109-.074 2.732.08Z"/></svg>