<svg xmlns="http://www.w3.org/2000/svg" fill="none" aria-hidden="true" viewBox="0 0 48 48"><path fill="#DD4814" d="M42 24c0 9.94-8.059 18-18 18S6 33.94 6 24c0-9.941 8.059-18 18-18s18 8.059 18 18Z"/><path fill="#fff" d="M11.76 21.596a2.403 2.403 0 1 0 0 4.807 2.403 2.403 0 0 0 0-4.807ZM28.92 32.52a2.402 2.402 0 1 0 2.4 4.16 2.402 2.402 0 0 0-2.4-4.16ZM16.98 24a7.01 7.01 0 0 1 2.985-5.743l-1.757-2.942a10.462 10.462 0 0 0-4.317 6.068A3.37 3.37 0 0 1 15.135 24a3.37 3.37 0 0 1-1.244 2.617 10.454 10.454 0 0 0 4.317 6.07l1.757-2.944A7.008 7.008 0 0 1 16.981 24ZM24 16.98a7.02 7.02 0 0 1 6.992 6.398l3.424-.05a10.408 10.408 0 0 0-3.102-6.772 3.37 3.37 0 0 1-2.881-.233 3.364 3.364 0 0 1-1.644-2.383A10.47 10.47 0 0 0 24 13.56c-1.66 0-3.231.39-4.626 1.08l1.67 2.993A6.99 6.99 0 0 1 24 16.98Zm0 14.04a6.991 6.991 0 0 1-2.957-.653l-1.67 2.993a10.436 10.436 0 0 0 7.416.701 3.367 3.367 0 0 1 1.644-2.383 3.367 3.367 0 0 1 2.881-.233 10.407 10.407 0 0 0 3.102-6.772l-3.425-.05A7.018 7.018 0 0 1 24 31.019Zm4.918-15.54a2.402 2.402 0 1 0 2.403-4.162 2.402 2.402 0 0 0-2.403 4.163Z"/></svg>