<svg xmlns="http://www.w3.org/2000/svg" fill="none" aria-hidden="true" viewBox="0 0 48 48"><path fill="#E21836" d="M13.05 12.74h8.985c1.255 0 2.035 1.023 1.742 2.281l-4.183 17.961c-.295 1.254-1.551 2.277-2.806 2.277H7.803c-1.252 0-2.034-1.023-1.742-2.277l4.185-17.96c.293-1.26 1.548-2.281 2.804-2.281Z"/><path fill="#00447C" d="M21.288 12.74H31.62c1.254 0 .688 1.023.393 2.281l-4.182 17.961c-.294 1.254-.202 2.277-1.459 2.277H16.04c-1.257 0-2.034-1.023-1.74-2.277l4.183-17.96c.297-1.26 1.55-2.281 2.805-2.281Z"/><path fill="#007B84" d="M31.211 12.74h8.986c1.256 0 2.036 1.023 1.74 2.281l-4.182 17.961c-.295 1.254-1.552 2.277-2.808 2.277h-8.98c-1.258 0-2.037-1.023-1.743-2.277l4.184-17.96c.292-1.26 1.546-2.281 2.803-2.281Z"/><path fill="#FEFEFE" d="M15.397 18.496c-.924.01-1.197 0-1.284-.02-.034.16-.657 3.035-.659 3.038-.134.582-.232.997-.564 1.264a1.002 1.002 0 0 1-.663.231c-.41 0-.648-.203-.688-.59l-.008-.132.125-.784s.654-2.62.771-2.967c.007-.02.008-.03.01-.04-1.274.012-1.5 0-1.515-.02-.009.028-.04.19-.04.19l-.669 2.955-.057.25-.111.82c0 .243.048.442.143.61.304.531 1.172.611 1.664.611.633 0 1.226-.134 1.628-.38.696-.412.878-1.055 1.04-1.626l.076-.294s.674-2.722.789-3.076c.004-.02.006-.03.012-.04Zm2.294 2.197c-.163 0-.46.039-.727.17-.096.05-.188.107-.285.164l.088-.315-.048-.053c-.566.115-.693.13-1.215.204l-.044.029c-.06.503-.114.881-.34 1.87-.085.364-.174.732-.263 1.096l.024.046c.536-.028.698-.028 1.163-.02l.038-.041c.06-.303.067-.374.198-.988.061-.29.19-.93.253-1.157.116-.054.231-.107.34-.107.261 0 .23.227.22.318-.012.152-.107.65-.204 1.076l-.065.276c-.045.203-.095.401-.14.603l.02.04c.527-.028.688-.028 1.139-.02l.053-.041c.081-.473.105-.6.25-1.289l.072-.316c.142-.62.213-.934.106-1.19-.113-.286-.384-.355-.633-.355Zm2.562.648c-.28.054-.46.09-.637.113-.177.028-.349.054-.62.092l-.021.02-.02.015c-.028.202-.048.376-.085.581-.032.213-.081.454-.16.8a3.144 3.144 0 0 1-.129.451c-.034.093-.072.184-.14.445l.015.024.014.022c.253-.012.42-.02.59-.022.17-.006.346 0 .619.002l.024-.02.025-.021c.04-.236.046-.299.07-.414.024-.123.065-.293.166-.748.048-.214.1-.427.15-.645.052-.218.106-.431.157-.645l-.008-.026-.01-.024Zm.006-.874c-.255-.15-.703-.103-1.004.105-.3.204-.334.493-.08.645.25.146.7.103.998-.107.3-.208.337-.494.086-.643ZM21.8 23.95c.515 0 1.044-.142 1.442-.564.306-.342.447-.85.495-1.06.159-.695.035-1.02-.12-1.217-.235-.301-.65-.398-1.082-.398-.259 0-.877.026-1.36.47-.346.322-.506.757-.602 1.175-.098.425-.21 1.19.494 1.475.217.094.53.12.733.12Zm-.04-1.563c.118-.526.259-.967.617-.967.28 0 .301.328.176.856-.022.117-.125.553-.263.738-.097.137-.212.22-.338.22-.038 0-.262 0-.265-.332a2.26 2.26 0 0 1 .072-.515Zm3.267 1.496.04-.041c.057-.303.066-.374.193-.988.063-.29.194-.93.256-1.157.116-.054.23-.107.342-.107.26 0 .228.227.217.318-.009.152-.104.65-.203 1.076l-.062.276c-.047.204-.098.401-.143.603l.02.04c.529-.028.684-.028 1.137-.02l.055-.041c.08-.474.1-.6.25-1.289l.07-.316c.143-.62.214-.934.11-1.19-.117-.286-.39-.355-.636-.355-.162 0-.46.039-.726.17-.095.05-.19.107-.283.164l.081-.315-.043-.053c-.566.115-.695.13-1.217.204l-.04.029c-.064.503-.115.881-.34 1.87-.086.364-.174.732-.263 1.096l.024.046c.536-.028.696-.028 1.16-.02Zm3.89.02.233-1.126s.169-.706.179-.732c0 0 .053-.074.106-.103h.078c.736 0 1.566 0 2.217-.479.444-.328.746-.813.881-1.403.036-.144.061-.316.061-.488 0-.226-.045-.45-.176-.624-.332-.465-.993-.473-1.756-.477l-.377.004c-.977.012-1.369.008-1.53-.011l-.039.198-.35 1.624-.877 3.611c.854-.01 1.203-.01 1.35.006Zm.649-2.881.37-1.613.012-.083.006-.063.148.015.786.068c.303.117.427.42.34.813-.08.36-.313.663-.613.81-.247.124-.55.134-.863.134h-.201l.015-.081Zm2.317 1.395c-.099.42-.212 1.185.489 1.458.223.095.424.123.627.113.215-.012.414-.12.598-.274l-.05.19.032.042c.504-.021.66-.021 1.206-.017l.05-.038c.08-.468.155-.924.362-1.82.101-.43.202-.855.305-1.283l-.016-.047a22.68 22.68 0 0 1-1.257.204l-.04.033-.017.128a.775.775 0 0 0-.395-.325c-.241-.095-.808.027-1.295.47-.342.317-.506.75-.6 1.166Zm1.184.026c.12-.517.259-.954.618-.954.227 0 .347.21.323.567l-.065.29c-.036.153-.075.305-.113.457a1.112 1.112 0 0 1-.133.269c-.092.13-.312.212-.439.212-.036 0-.257 0-.265-.327a2.25 2.25 0 0 1 .074-.514Zm6.183-1.706-.044-.05c-.558.113-.659.131-1.171.2l-.038.038-.006.024-.002-.008c-.381.88-.37.69-.68 1.383l-.004-.085-.078-1.502-.049-.05c-.584.113-.598.131-1.137.2l-.043.038c-.005.018-.005.038-.009.06l.004.007c.067.345.05.268.118.812.032.267.074.535.106.799.053.441.083.659.148 1.332-.365.601-.451.829-.802 1.357l.002.005-.247.39c-.028.042-.053.07-.09.082a.373.373 0 0 1-.161.023h-.137l-.203.677.697.012c.41-.002.668-.193.806-.451l.44-.752h-.008l.047-.053c.295-.636 2.54-4.488 2.54-4.488Zm-7.367 8.888h-.296L32.683 26h.363l.116-.373.01.415c-.013.257.189.484.72.447h.613l.211-.698h-.23c-.134 0-.195-.034-.187-.106l-.011-.422h-1.137v.002c-.367.008-1.464.035-1.686.094-.268.07-.552.273-.552.273l.112-.374h-1.063L29.74 26l-1.11 3.68h-.216l-.21.693h2.116l-.071.231h1.043l.069-.23h.292l.23-.749Zm-.869-2.888c-.17.047-.487.19-.487.19L30.81 26h.844l-.203.675s-.261.015-.436.062Zm.017 1.323s-.266.033-.44.073a4.323 4.323 0 0 0-.495.216l.291-.964h.849l-.205.675Zm-.474 1.573h-.846l.245-.813h.844l-.242.813Zm2.04-2.248h1.22l-.175.568h-1.237l-.185.621h1.082l-.82 1.154a.338.338 0 0 1-.165.139.487.487 0 0 1-.22.063h-.3l-.207.68h.785c.409 0 .65-.185.828-.429l.562-.77.12.782a.368.368 0 0 0 .202.265c.079.04.16.107.275.117.123.006.212.01.271.01h.386l.232-.762H35.1c-.088 0-.238-.014-.264-.042-.026-.033-.026-.084-.04-.162l-.122-.783h-.501l.22-.262h1.234l.19-.62h-1.143l.178-.569h1.14l.211-.7h-3.397l-.208.7Zm-10.31 2.407.284-.948h1.171l.214-.705h-1.172l.179-.584h1.146l.212-.682h-2.866l-.208.682h.651l-.174.584h-.653l-.216.717h.65l-.379 1.254c-.051.166.024.23.072.306a.314.314 0 0 0 .21.153c.114.026.193.041.3.041h1.32l.235-.78-.585.08c-.113 0-.426-.014-.392-.118Zm.134-4.538-.297.536a.623.623 0 0 1-.172.224c-.046.028-.135.04-.265.04h-.155l-.207.686h.514c.247 0 .437-.09.528-.136.097-.052.123-.022.198-.095l.174-.15h1.606l.213-.715h-1.176l.206-.39h-1.167Zm2.37 4.552c-.027-.04-.007-.11.034-.254l.44-1.453h1.56c.228-.003.392-.006.5-.013.114-.012.239-.053.375-.127a.703.703 0 0 0 .273-.251c.068-.093.176-.297.27-.611l.551-1.839-1.62.01s-.499.073-.719.155c-.221.09-.538.343-.538.343l.146-.503h-1l-1.402 4.647c-.05.18-.083.311-.09.39-.003.085.106.169.177.232.084.063.208.053.327.063.125.01.303.015.549.015h.769l.236-.797-.689.065a.18.18 0 0 1-.149-.073Zm.757-2.688h1.64l-.105.327c-.014.008-.05-.016-.216.003h-1.42l.1-.33Zm.328-1.096h1.654l-.12.394s-.779-.008-.903.015c-.55.095-.87.389-.87.389l.24-.798Zm1.244 2.517a.175.175 0 0 1-.065.101c-.033.022-.087.03-.168.03h-.233l.014-.399h-.973l-.039 1.946c-.001.14.012.221.115.287.103.08.419.091.845.091h.61l.219-.728-.53.029-.177.01a.198.198 0 0 1-.072-.045c-.023-.022-.06-.009-.054-.149l.004-.499.556-.023c.3 0 .429-.097.538-.19.105-.09.139-.192.178-.33l.094-.442h-.765l-.097.311Z"/></svg>