<svg xmlns="http://www.w3.org/2000/svg" fill="none" aria-hidden="true" viewBox="0 0 48 48"><g fill="#000"><path d="M14.1 6h16.875c3.148 0 5.624 2.476 5.505 5.515v18.452a5.518 5.518 0 0 1-5.51 5.51h-3.71L29.284 42 19.5 35.477h-5.397c-3.148 0-5.624-2.476-5.624-5.624V11.52C8.476 8.477 10.951 6 14.1 6Zm6.556 20.25a3.548 3.548 0 0 1-1.378-1.381c-.345-.606-.516-1.335-.516-2.183v-9.832c0-.151-.033-.27-.104-.345-.066-.08-.18-.119-.34-.119h-2.514a.399.399 0 0 0-.166.034.318.318 0 0 0-.133.104.47.47 0 0 0-.118.331v9.79c0 1.566.322 2.878.966 3.943.643 1.06 1.505 1.85 2.594 2.371 1.084.521 2.296.777 3.63.777 1.34 0 2.552-.256 3.636-.762 1.084-.507 1.946-1.288 2.59-2.348.643-1.06.965-2.377.965-3.948v-9.818a.487.487 0 0 0-.133-.34.485.485 0 0 0-.36-.138h-2.394a.457.457 0 0 0-.346.132.464.464 0 0 0-.133.346v9.822c0 .79-.17 1.496-.51 2.107a3.64 3.64 0 0 1-1.383 1.425 3.788 3.788 0 0 1-1.927.502c-.715.004-1.354-.152-1.926-.47ZM37.972 6c-.848 0-1.548.682-1.548 1.548 0 .847.7 1.548 1.548 1.548.847 0 1.547-.682 1.547-1.548A1.543 1.543 0 0 0 37.973 6Zm0 2.77c-.649 0-1.203-.555-1.203-1.222 0-.668.554-1.221 1.203-1.221.648 0 1.202.535 1.202 1.22a1.22 1.22 0 0 1-1.202 1.222Z"/><path d="M37.375 6.705a.043.043 0 0 1 .033-.014h.725c.099 0 .194.029.274.076a.571.571 0 0 1 .265.478.512.512 0 0 1-.08.27.61.61 0 0 1-.209.203l.313.616c0 .004.005.01.005.019 0 .01-.005.019-.01.023a.036.036 0 0 1-.024.01h-.293c-.014 0-.024 0-.028-.01-.01-.004-.015-.019-.024-.033l-.27-.544h-.346v.54c0 .028-.014.047-.047.047h-.25c-.03 0-.043-.014-.043-.048v-1.6c0-.014.004-.023.01-.033Zm.322.805h.355c.052 0 .1-.01.142-.038a.274.274 0 0 0 .1-.094.267.267 0 0 0 .037-.133c0-.047-.01-.09-.038-.133a.286.286 0 0 0-.099-.099.289.289 0 0 0-.142-.038h-.355v.535Z"/></g></svg>