<svg xmlns="http://www.w3.org/2000/svg" fill="none" aria-hidden="true" viewBox="0 0 48 48"><path fill="#424242" d="M20.337 16.111v22.881h7.349v-22.88h-7.35Zm7.165 22.69h-6.966V16.303h6.966V38.8Z"/><path fill="#424242" d="m6 10.395 3.303 5.716h11.034v22.881h7.357v-22.88h11.003L42 10.394H6Z"/><path fill="#fff" d="m41.885 10.594.115-.2H6l.123.2h35.762Z" opacity=".2"/><path fill="#AFAFAF" d="M12.314 16.111H9.303l.942 1.632h1.357c.206-.567.436-1.11.712-1.632Zm23.295 0c.268.521.506 1.073.705 1.632h1.44l.943-1.632H35.61Z"/><path fill="#4285F4" d="M23.962 35.215c7.237 0 13.103-5.867 13.103-13.104 0-7.237-5.866-13.103-13.103-13.103S10.858 14.874 10.858 22.11s5.867 13.104 13.104 13.104Z"/><path fill="#263238" d="M11.678 17.544H10.13l.115.2h1.357c.03-.07.053-.139.076-.2Zm24.567 0c.023.069.046.13.07.2h1.44l.115-.2h-1.625ZM23.962 35.023c-7.203 0-13.05-5.816-13.104-13.012v.093c0 7.233 5.87 13.103 13.104 13.103 7.233 0 13.103-5.87 13.103-13.104v-.091c-.053 7.195-5.9 13.011-13.103 13.011Z" opacity=".3"/><path fill="#fff" d="M23.962 9.2c7.203 0 13.05 5.815 13.103 13.01v-.091c0-7.234-5.87-13.104-13.103-13.104-7.234 0-13.104 5.87-13.104 13.104v.092c.054-7.196 5.9-13.012 13.104-13.012Z" opacity=".2"/><path fill="#263238" d="M23.962 30.84a8.582 8.582 0 1 0 0-17.165 8.582 8.582 0 0 0 0 17.164Z" opacity=".3"/><path fill="url(#a)" d="m36.98 23.605-5.677-5.678-.943.544-3.694-3.693-2.613 6.82-1.264 5.425 1.142 3.816 3.824 3.824c4.927-1.494 8.628-5.801 9.226-11.058Z"/><path fill="#E8E8E8" d="M23.931 13.82v8.506l3.77-5.035c-.207-2.153-1.724-3.471-3.77-3.471Zm-7.44 4.215 7.44 4.29-2.475-5.77c-1.97-.896-3.939-.29-4.965 1.48Zm.068 8.551 7.372-4.26-6.23-.736c-1.77 1.257-2.168 3.226-1.142 4.996Z"/><path fill="#D6D6D6" d="M23.931 30.839v-8.506l-3.755 4.882c.2 2.153 1.701 3.624 3.755 3.624Zm2.475-2.743c1.97.904 3.947.153 4.966-1.617l-7.433-4.353 2.467 5.97Z"/><path fill="#D6D6D6" d="m31.303 18.073-7.372 4.26 6.23.736c1.762-1.264 2.169-3.234 1.142-4.996Z"/><path fill="#fff" d="M23.931 22.18v-8.506c2.046 0 3.548 1.326 3.755 3.487l-3.755 5.02Zm0 0-7.371-4.26c1.034-1.77 2.934-2.414 4.896-1.51l2.475 5.77Z"/><path fill="#fff" d="m23.931 22.18-7.372 4.26c-1.027-1.77-.62-3.739 1.142-4.995l6.23.735Z"/><path fill="#E8E8E8" d="M23.931 22.18v8.506c-2.046 0-3.548-1.326-3.755-3.487l3.755-5.019Zm0 0 7.372 4.26c-1.027 1.77-2.928 2.414-4.897 1.51l-2.475-5.77Z"/><path fill="#E8E8E8" d="m23.931 22.18 7.372-4.26c1.027 1.77.62 3.739-1.142 4.996l-6.23-.736Z"/><path fill="#fff" d="M23.923 24.908a2.835 2.835 0 1 0 0-5.67 2.835 2.835 0 0 0 0 5.67Z"/><path fill="url(#b)" d="M23.923 24.908a2.835 2.835 0 1 0 0-5.67 2.835 2.835 0 0 0 0 5.67Z"/><path fill="url(#c)" d="M29.824 10.395a13.082 13.082 0 0 0-5.862-1.387c-2.108 0-4.1.498-5.862 1.387H6l.054.1.06.107 3.189 5.517.827 1.433.115.199h1.357a13.075 13.075 0 0 0-.751 4.368c0 5.977 4.007 11.027 9.478 12.598v4.275h7.35v-4.314c5.417-1.609 9.37-6.62 9.37-12.567 0-1.532-.26-3.004-.75-4.368h1.44l.943-1.632 3.303-5.716H29.824Zm-17.701 6.1c-.008.007-.008.015-.016.03 0-.008.008-.015.016-.03Zm-.184.405c0 .008-.008.016-.008.023 0-.015 0-.015.008-.023Zm23.862-.406c.007.008.007.016.015.03 0-.007-.008-.014-.015-.03Zm.184.406c0 .008.007.016.007.023 0-.015 0-.015-.007-.023Z"/><defs><radialGradient id="a" cx="0" cy="0" r="1" gradientTransform="translate(24.598 18.166) scale(12.8682)" gradientUnits="userSpaceOnUse"><stop stop-color="#231F20" stop-opacity=".1"/><stop offset="1" stop-color="#231F20" stop-opacity="0"/></radialGradient><radialGradient id="b" cx="0" cy="0" r="1" gradientTransform="translate(23.922 22.07) scale(2.83525)" gradientUnits="userSpaceOnUse"><stop offset=".4" stop-color="#231F20" stop-opacity="0"/><stop offset="1" stop-color="#231F20" stop-opacity=".04"/></radialGradient><radialGradient id="c" cx="0" cy="0" r="1" gradientTransform="translate(6.175 10.59) scale(29.8946)" gradientUnits="userSpaceOnUse"><stop stop-color="#fff" stop-opacity=".1"/><stop offset="1" stop-color="#fff" stop-opacity="0"/></radialGradient></defs></svg>