<svg xmlns="http://www.w3.org/2000/svg" fill="none" aria-hidden="true" viewBox="0 0 48 48"><path fill="#254AA5" d="M25.23 20.708c-.027 2.107 1.877 3.283 3.312 3.983 1.475.717 1.97 1.177 1.964 1.819-.011.981-1.176 1.415-2.266 1.432-1.902.03-3.008-.514-3.887-.925l-.685 3.206c.882.407 2.515.762 4.209.777 3.976 0 6.577-1.962 6.59-5.005.016-3.862-5.34-4.076-5.304-5.802.012-.523.512-1.082 1.606-1.224.542-.072 2.037-.127 3.733.654l.665-3.102c-.912-.332-2.084-.65-3.542-.65-3.742 0-6.375 1.99-6.396 4.837Zm16.33-4.57c-.725 0-1.337.424-1.61 1.074l-5.68 13.56h3.974l.79-2.185h4.855l.459 2.185h3.501L44.794 16.14H41.56Zm.557 3.954 1.146 5.495h-3.14l1.994-5.495Zm-21.704-3.953L17.28 30.771h3.786l3.13-14.633h-3.784Zm-5.601 0-3.94 9.96-1.594-8.47c-.187-.945-.926-1.49-1.746-1.49H1.09l-.09.424c1.322.287 2.825.75 3.735 1.245.557.303.716.567.899 1.286l3.019 11.678h4l6.135-14.633h-3.976Z"/></svg>