<svg xmlns="http://www.w3.org/2000/svg" fill="none" aria-hidden="true" viewBox="0 0 48 48"><path fill="#EF3939" d="M24 42c7.888 0 12.271 0 15.135-2.865C42 36.271 42 31.888 42 24s0-12.271-2.865-15.136C36.271 6 31.888 6 24 6S11.723 6 8.864 8.864C6.005 11.73 6 16.112 6 24c0 7.888 0 12.271 2.864 15.135C11.73 42 16.112 42 24 42Z"/><path fill="url(#a)" d="M35.703 17.339c-.869-1.567-2.364-2.85-3.77-3.959-1.408-1.11-2.79-1.778-4.516-2.257-1.727-.479-3.491-.47-5.269-.245-1.778.226-3.308.631-4.86 1.526-1.552.895-2.758 1.99-3.844 3.416-1.086 1.425-1.807 2.84-2.258 4.574-.45 1.734-.613 3.655-.358 5.429.255 1.773.565 3.46 1.486 4.997l.076.13 6.34 10.993c1.053.029 2.192.041 3.418.038h1.8a84.494 84.494 0 0 0 8.62-.255c2.87-.315 4.93-1.02 6.509-2.609 2.321-2.32 2.76-5.64 2.842-11.008l-6.216-10.77Z"/><path fill="#fff" d="M33.535 14.45A13.495 13.495 0 0 0 10.5 24a13.502 13.502 0 0 0 8.329 12.471 13.493 13.493 0 0 0 14.706-2.92 13.484 13.484 0 0 0 0-19.102Zm-.809 6.214-6.675 11.62a2.233 2.233 0 0 1-1.835 1.212 2.119 2.119 0 0 1-2.113-1.125c-1.407-2.422-2.803-4.862-4.199-7.296a886.142 886.142 0 0 1-2.552-4.443 2.243 2.243 0 0 1 1.825-3.401 2.172 2.172 0 0 1 2.058 1.162c.63 1.087 1.25 2.174 1.869 3.26.45.782.885 1.565 1.346 2.336a3.532 3.532 0 0 0 2.955 1.825 3.6 3.6 0 0 0 3.802-3.2c0-.146 0-.293.032-.369a3.803 3.803 0 0 0-.38-1.678 2.244 2.244 0 1 1 4.193-1.397 2.348 2.348 0 0 1-.326 1.494Z"/><defs><linearGradient id="a" x1="17.257" x2="34.429" y1="12.334" y2="42.086" gradientUnits="userSpaceOnUse"><stop stop-opacity=".2"/><stop offset=".79" stop-opacity=".05"/></linearGradient></defs></svg>