<svg xmlns="http://www.w3.org/2000/svg" fill="none" aria-hidden="true" viewBox="0 0 48 48"><rect width="42" height="42" x="3" y="3" fill="#2789F6" rx="6"/><path fill="#fff" d="M34.385 27.501c-.323-.438-.396-.882-.219-1.332.44-1.2 6.858-8.82 4.185-8.82-1.837.025-4.047 0-5.808 0-.327.08-.538.251-.67.6-1.03 2.375-2.29 5.273-4.138 7.136-.243.196-.394.187-.671.115-1.296-1.364.086-6.037-.702-7.884-.155-.361-.495-.525-.843-.617-1.76-.419-5.776-.17-6.432.675-.187.24-.213.373-.078.394.624.099 1.067.334 1.327.707.49 1.081.852 6.84-.593 6.84-1.446 0-3.778-5.652-4.418-7.219-.17-.471-.604-.742-1.062-.821l-4.277.032c-.752 0-1.172.371-.906 1.118 2.228 5.53 7.103 16.25 14.58 15.981.75 0 2.039.288 2.624-.362.803-1.066-.177-2.966 1.202-3.69.347-.185.708-.03 1.006.197 1.534 1.168 2.348 3.217 4.239 3.84.332.109.624.136.874.082l3.996-.066c.742 0 1.473-.33 1.32-1.217-.583-1.902-2.905-3.857-4.536-5.689Z"/></svg>