<svg xmlns="http://www.w3.org/2000/svg" fill="none" aria-hidden="true" viewBox="0 0 48 48"><path fill="#005A9C" d="M14.604 13.456 18.4 26.364l3.798-12.908h2.748l-6.284 21.207H18.4l-3.927-13.142-3.928 13.142h-.262L4 13.456h2.75l3.795 12.908 2.566-8.692-1.256-4.216h2.75Z"/><path fill="#005A9C" d="M32.75 27.855c0 1.921-.51 3.536-1.53 4.845-1.022 1.309-2.344 1.963-3.967 1.963-1.222 0-2.286-.39-3.194-1.165-.908-.777-1.58-1.83-2.016-3.154l2.147-.89c.315.803.729 1.435 1.244 1.897.514.462 1.12.694 1.819.694.733 0 1.353-.41 1.86-1.23.506-.82.758-1.806.758-2.96 0-1.274-.27-2.259-.812-2.957-.628-.82-1.614-1.232-2.957-1.232h-1.048V22.41l3.666-6.336h-4.426l-1.23 2.095h-.785v-4.713h10.21v1.282l-3.875 6.677c1.361.436 2.39 1.231 3.09 2.383.698 1.152 1.047 2.503 1.047 4.057Z"/><path fill="#221B0A" d="m43.406 13.337.445 2.707-1.576 3.015s-.606-1.279-1.61-1.987c-.848-.597-1.4-.726-2.262-.55-1.11.23-2.366 1.555-2.914 3.189-.656 1.954-.662 2.9-.685 3.77-.037 1.393.182 2.216.182 2.216s-.956-1.77-.947-4.364c.005-1.851.298-3.53 1.153-5.186.754-1.456 1.873-2.33 2.867-2.432 1.027-.108 1.84.387 2.468.925.657.562 1.326 1.793 1.326 1.793l1.553-3.096Zm.193 15.318s-.695 1.246-1.13 1.725c-.434.48-1.211 1.325-2.17 1.748-.96.423-1.462.503-2.411.411-.948-.091-1.828-.64-2.136-.87-.308-.227-1.097-.901-1.541-1.527-.447-.63-1.144-1.887-1.144-1.887s.388 1.26.632 1.794c.139.307.57 1.247 1.18 2.068.568.763 1.672 2.078 3.352 2.374 1.68.298 2.833-.456 3.118-.639.285-.182.887-.685 1.269-1.093a9.6 9.6 0 0 0 .98-1.293c.154-.239.402-.72.402-.72l-.401-2.09Z"/></svg>