<svg xmlns="http://www.w3.org/2000/svg" fill="none" aria-hidden="true" viewBox="0 0 48 48"><path fill="#fff" d="M25.822 36.577h-3.68c-.407-2.044-2.24-3.616-4.402-3.616a4.56 4.56 0 0 0-3.798 2.044v.04a13.394 13.394 0 0 1-3.616-2.686c-1.27-1.27-1.978-2.424-2.266-3.17.825-.184 1.559-.629 2.161-1.27.786-.826 1.192-1.94 1.192-3.053v-2.685c0-3.17 1.048-6.301 3.013-8.79 2.79-3.576 6.93-5.593 11.396-5.593a14.34 14.34 0 0 1 10.179 4.205c2.724 2.724 4.204 6.34 4.204 10.178a14.34 14.34 0 0 1-4.204 10.178 14.385 14.385 0 0 1-10.179 4.218Z"/><path fill="#000" d="M42 22.168a16.06 16.06 0 0 0-4.729-11.436 16.327 16.327 0 0 0-11.436-4.729c-4.951 0-9.575 2.24-12.745 6.222-2.28 2.87-3.471 6.406-3.471 10.06v2.594c0 1.35-.93 2.607-2.79 2.725-.446.04-.826.34-.826.786-.078 1.231 1.232 3.471 3.013 5.253 1.232 1.27 2.685 2.279 4.244 3.052a4.467 4.467 0 0 0 .983 3.68 4.503 4.503 0 0 0 3.458 1.612c2.2 0 3.982-1.533 4.401-3.576h3.76c.484 2.54 3.13 4.283 5.96 3.314 2.463-.825 3.537-3.616 2.646-5.895.97-.629 1.9-1.375 2.75-2.2A15.986 15.986 0 0 0 42 22.168ZM25.822 36.577h-3.68c-.407-2.044-2.24-3.616-4.402-3.616a4.56 4.56 0 0 0-3.798 2.044v.04a13.394 13.394 0 0 1-3.616-2.686c-1.27-1.27-1.978-2.424-2.266-3.17.825-.183 1.559-.629 2.161-1.27.786-.826 1.192-1.94 1.192-3.053v-2.685c0-3.17 1.048-6.3 3.013-8.79 2.79-3.576 6.93-5.593 11.396-5.593a14.34 14.34 0 0 1 10.179 4.205c2.724 2.724 4.204 6.34 4.204 10.178a14.34 14.34 0 0 1-4.204 10.178 14.385 14.385 0 0 1-10.179 4.218Zm8.987-17.985c0 .982-.8 1.781-1.782 1.781a1.795 1.795 0 0 1-1.795-1.781c0-.983.8-1.795 1.795-1.795.982 0 1.782.8 1.782 1.795Zm-10.807 0c0 .982-.8 1.781-1.782 1.781a1.795 1.795 0 0 1-1.794-1.781c0-.983.799-1.795 1.794-1.795.983 0 1.782.8 1.782 1.795Zm-1.232 5.881a.953.953 0 0 0-.825-.524.903.903 0 0 0-.825 1.27c1.152 2.424 3.615 4.14 6.523 4.14a7.153 7.153 0 0 0 6.524-4.14.897.897 0 0 0-.826-1.27h-.039c-.34 0-.629.184-.786.524a5.395 5.395 0 0 1-4.886 3.092c-2.135 0-3.995-1.271-4.86-3.092Z"/></svg>