<svg xmlns="http://www.w3.org/2000/svg" fill="none" aria-hidden="true" viewBox="0 0 48 48"><path fill="#0095DA" d="M42.458 28.45a1.26 1.26 0 0 0-.893.193 6.848 6.848 0 0 1-3.974 1.23c-2.837 0-5.34-1.934-5.712-5.26 0 0 6.275 2.561 10.793-.337 1.034-.662 1.434-1.486 1.304-2.533-.477-3.857-2.96-6.45-7.076-6.45-4.727 0-8.308 3.45-8.308 8.727 0 4.919 3.581 8.688 8.802 8.688a9.887 9.887 0 0 0 5.611-1.77 1.435 1.435 0 0 0 .569-.95 1.318 1.318 0 0 0-1.122-1.537l.006-.002ZM8.549 30.71 4.182 18.37A3.084 3.084 0 0 1 4 17.435v-.016a1.741 1.741 0 0 1 1.813-1.72h20.329a1.726 1.726 0 0 1 1.753 1.72 3.316 3.316 0 0 1-.151.832l-4.43 12.46c-.402 1.133-1.172 1.656-2.06 1.656h-.126c-.919 0-1.689-.523-2.03-1.59l-1.958-5.966a1.227 1.227 0 0 0-1.205-.85 1.254 1.254 0 0 0-1.225.85l-1.974 5.965c-.342 1.068-1.108 1.59-2.002 1.59h-.124c-.921 0-1.691-.522-2.06-1.656Z"/><path fill="#00A5DF" d="M5.691 22.635c6.82-.534 13.79-.774 20.743-.697l1.312-3.688c.085-.269.135-.548.149-.83a1.724 1.724 0 0 0-1.753-1.72H5.813A1.743 1.743 0 0 0 4 17.42v.016c.012.319.073.634.182.934l1.51 4.257v.008Zm23.1-.658c.8-4.106 4.024-6.685 8.111-6.685 4.087 0 6.596 2.593 7.074 6.449.014.117.021.236.022.354.002.227-.03.453-.091.672a231.344 231.344 0 0 0-15.116-.79Z"/></svg>