<svg xmlns="http://www.w3.org/2000/svg" fill="none" aria-hidden="true" viewBox="0 0 48 48"><path fill="#31CE6F" fill-rule="evenodd" d="M18.012 7.502C9.812 7.382 3 13.259 3 20.192c0 4.002 1.93 7.474 5.663 10.023 0 0-1.368 4.406-1.349 4.494.02.089.318.263.421.206.104-.057 4.948-2.875 4.948-2.875 3.47 1.163 5.588.876 5.95.828l.05-.007c-.37-1.058-.614-2.706-.337-4.26 1.447-8.128 9.977-10.656 14.652-10.224C31.708 12.506 26.1 7.62 18.012 7.502Zm-5.699 6.672c-1.075 0-1.947.85-1.947 1.9 0 1.05.872 1.9 1.947 1.9 1.076 0 1.947-.85 1.947-1.9 0-1.05-.871-1.9-1.947-1.9Zm11.79 0c-1.076 0-1.948.85-1.948 1.9 0 1.05.872 1.9 1.947 1.9 1.076 0 1.948-.85 1.948-1.9 0-1.05-.872-1.9-1.948-1.9Z" clip-rule="evenodd"/><path fill="#31CE6F" fill-rule="evenodd" d="M45 29.839c0-5.94-5.887-10.489-12.716-10.489-7.232 0-13 4.652-13 10.591 0 5.95 5.487 10.875 13.008 10.916 1.514.008 3.768-.372 5.289-.991 0 0 3.634 2.15 3.838 2.134a.332.332 0 0 0 .316-.308c.008-.135-1.158-3.491-1.158-3.491C43.697 35.816 45 33.189 45 29.839Zm-17.476-5.56c-.951 0-1.723.753-1.723 1.683s.772 1.684 1.723 1.684c.952 0 1.723-.753 1.723-1.684 0-.93-.771-1.684-1.723-1.684Zm9.213 0c-.952 0-1.723.753-1.723 1.683s.771 1.684 1.723 1.684c.952 0 1.723-.753 1.723-1.684 0-.93-.771-1.684-1.723-1.684Z" clip-rule="evenodd"/></svg>