<svg xmlns="http://www.w3.org/2000/svg" fill="none" aria-hidden="true" viewBox="0 0 48 48"><path fill="#25D366" d="M24 48c13.255 0 24-10.745 24-24S37.255 0 24 0 0 10.745 0 24s10.745 24 24 24Z"/><path fill="#FDFDFD" fill-rule="evenodd" d="M24.791 37.353h-.006a14.253 14.253 0 0 1-6.82-1.738L10.4 37.6l2.025-7.395a14.246 14.246 0 0 1-1.905-7.135c.003-7.868 6.405-14.27 14.27-14.27 3.818.002 7.4 1.488 10.095 4.185a14.185 14.185 0 0 1 4.176 10.097c-.003 7.866-6.402 14.267-14.27 14.27Zm-6.475-4.321.433.257a11.844 11.844 0 0 0 6.037 1.653h.005c6.538 0 11.859-5.32 11.862-11.861a11.79 11.79 0 0 0-3.471-8.392 11.78 11.78 0 0 0-8.386-3.479c-6.543 0-11.864 5.321-11.867 11.861 0 2.241.626 4.424 1.814 6.313l.282.448-1.199 4.378 4.49-1.178Zm13.176-6.878c.25.12.417.201.489.321.089.149.089.863-.208 1.696s-1.722 1.593-2.407 1.695c-.614.092-1.392.13-2.246-.14a20.465 20.465 0 0 1-2.033-.752c-3.343-1.444-5.602-4.684-6.029-5.296a4.637 4.637 0 0 0-.062-.088l-.003-.004c-.189-.252-1.453-1.94-1.453-3.685 0-1.643.806-2.504 1.178-2.9l.07-.075a1.31 1.31 0 0 1 .95-.446 14.808 14.808 0 0 1 .764.013c.208 0 .467-.002.722.612.099.236.242.586.394.956.307.747.646 1.572.706 1.691.089.179.148.387.03.625l-.05.102c-.09.182-.156.316-.307.493-.06.07-.121.144-.183.22-.123.149-.245.298-.352.405-.179.177-.364.37-.157.727.209.357.924 1.525 1.984 2.47a9.188 9.188 0 0 0 2.632 1.664c.098.043.178.077.236.106.356.179.564.15.772-.089.208-.238.892-1.041 1.13-1.398.237-.357.475-.297.802-.179.327.12 2.08.982 2.436 1.16l.195.096Z" clip-rule="evenodd"/></svg>