<svg xmlns="http://www.w3.org/2000/svg" fill="none" aria-hidden="true" viewBox="0 0 48 48"><path fill="#25D366" d="M24 48c13.255 0 24-10.745 24-24S37.255 0 24 0 0 10.745 0 24s10.745 24 24 24Z"/><path fill="#FDFDFD" fill-rule="evenodd" d="M24.791 37.352h-.006c-2.388 0-4.735-.6-6.82-1.737L10.4 37.6l2.024-7.395a14.245 14.245 0 0 1-1.904-7.135c.003-7.868 6.405-14.27 14.27-14.27a14.18 14.18 0 0 1 10.096 4.185 14.184 14.184 0 0 1 4.176 10.096c-.003 7.867-6.403 14.268-14.271 14.271Zm-6.475-4.32.433.257a11.843 11.843 0 0 0 6.037 1.653h.005c6.538 0 11.859-5.32 11.861-11.861a11.79 11.79 0 0 0-3.47-8.392 11.78 11.78 0 0 0-8.386-3.479c-6.543 0-11.864 5.321-11.867 11.861 0 2.241.626 4.424 1.814 6.313l.282.448-1.199 4.377 4.49-1.177Zm13.176-6.878c.249.12.417.201.489.321.089.149.089.863-.208 1.696s-1.722 1.593-2.407 1.695c-.614.092-1.392.13-2.246-.141a20.476 20.476 0 0 1-2.033-.751c-3.343-1.444-5.602-4.684-6.029-5.296-.03-.043-.05-.073-.063-.088l-.002-.004c-.19-.252-1.454-1.94-1.454-3.685 0-1.643.807-2.504 1.179-2.9l.07-.075a1.31 1.31 0 0 1 .95-.446 14.808 14.808 0 0 1 .764.013c.207 0 .466-.002.722.612l.394.955c.307.747.646 1.573.706 1.692.089.179.148.387.03.625-.019.036-.035.07-.05.102-.09.182-.156.316-.307.493-.06.07-.122.144-.183.22-.123.149-.245.298-.352.404-.179.178-.365.371-.157.728s.924 1.525 1.984 2.47a9.21 9.21 0 0 0 2.632 1.664c.098.043.178.077.236.106.356.179.564.149.772-.089.208-.238.892-1.041 1.13-1.398.237-.357.475-.298.802-.179.327.12 2.08.982 2.436 1.16l.195.096Z" clip-rule="evenodd"/></svg>