<svg xmlns="http://www.w3.org/2000/svg" fill="none" aria-hidden="true" viewBox="0 0 48 48"><g fill="#000"><path d="M32.883 12.28v.658c-.869.154-1.526.427-1.972.818a7.53 7.53 0 0 0-1.887 2.668L18.967 36.951h-.669L8.202 16.157c-.47-1.067-1.11-1.72-1.303-1.956a3.158 3.158 0 0 0-1.112-.863c-.44-.208-1.034-.34-1.781-.4v-.658h9.824v.658c-1.133.107-1.674.296-2.011.569a1.29 1.29 0 0 0-.507 1.05c0 .592.278 1.517.832 2.774L19.6 31.473l7.29-13.964c.567-1.375 1.037-2.33 1.037-2.864 0-.343-.175-.672-.524-.987-.35-.314-.746-.537-1.577-.667a8.725 8.725 0 0 0-.308-.053v-.658h7.364Z"/><path d="M43.727 12.28v.658c-.868.154-1.525.427-1.971.818a7.53 7.53 0 0 0-1.887 2.668L29.812 36.951h-.67L19.048 16.157c-.47-1.067-1.11-1.72-1.303-1.956a3.158 3.158 0 0 0-1.112-.863c-.44-.208-1.034-.34-1.781-.4v-.658h9.824v.658c-1.134.107-1.674.296-2.012.569a1.29 1.29 0 0 0-.506 1.05c0 .592.277 1.517.832 2.774l7.456 14.142 7.29-13.964c.567-1.375 1.037-2.33 1.037-2.864 0-.343-.175-.672-.525-.987-.35-.314-.745-.537-1.577-.667a8.987 8.987 0 0 0-.307-.053v-.658h7.364Z"/></g></svg>