<svg xmlns="http://www.w3.org/2000/svg" fill="none" aria-hidden="true" viewBox="0 0 48 48"><path fill="#000" d="M32.883 12.28v.658c-.869.154-1.526.427-1.972.818a7.53 7.53 0 0 0-1.886 2.668L18.968 36.951h-.67L8.202 16.157c-.47-1.067-1.11-1.72-1.302-1.956a3.158 3.158 0 0 0-1.112-.863c-.44-.208-1.035-.34-1.782-.4v-.658h9.824v.658c-1.133.107-1.673.296-2.011.569a1.29 1.29 0 0 0-.506 1.05c0 .592.277 1.517.831 2.774l7.457 14.142 7.29-13.964c.566-1.375 1.036-2.33 1.036-2.864 0-.343-.174-.672-.524-.987-.35-.314-.745-.537-1.577-.667a8.725 8.725 0 0 0-.308-.053v-.658h7.365Z"/><path fill="#000" d="M43.727 12.28v.658c-.868.154-1.525.427-1.97.818a7.53 7.53 0 0 0-1.888 2.668L29.812 36.951h-.669L19.047 16.157c-.47-1.067-1.11-1.72-1.303-1.956a3.16 3.16 0 0 0-1.112-.863c-.44-.208-1.034-.34-1.781-.4v-.658h9.824v.658c-1.133.107-1.674.296-2.012.569a1.29 1.29 0 0 0-.506 1.05c0 .592.277 1.517.832 2.774l7.456 14.142 7.29-13.964c.567-1.375 1.037-2.33 1.037-2.864 0-.343-.175-.672-.525-.987-.35-.314-.745-.537-1.577-.667a8.556 8.556 0 0 0-.307-.053v-.658h7.364Z"/></svg>