<svg xmlns="http://www.w3.org/2000/svg" fill="none" aria-hidden="true" viewBox="0 0 48 48"><circle cx="24" cy="24" r="18" fill="#028CB0"/><path fill="#fff" d="M11.728 24c0 4.863 2.829 9.051 6.92 11.042l-5.854-16.036A12.23 12.23 0 0 0 11.728 24ZM24 36.272c1.425 0 2.796-.25 4.08-.697l-.088-.163-3.775-10.335-3.677 10.694c1.088.327 2.252.5 3.46.5Zm1.686-18.027 4.439 13.196 1.23-4.09c.521-1.697.924-2.916.924-3.971 0-1.523-.544-2.568-1.001-3.373-.631-1.022-1.208-1.882-1.208-2.883 0-1.131.849-2.175 2.067-2.175h.153a12.228 12.228 0 0 0-8.29-3.22 12.26 12.26 0 0 0-10.248 5.526l.783.022c1.284 0 3.264-.164 3.264-.164.674-.032.75.936.087 1.012 0 0-.664.087-1.415.12l4.483 13.294 2.687-8.05-1.915-5.244a21.8 21.8 0 0 1-1.284-.109c-.663-.043-.587-1.055.076-1.023 0 0 2.024.164 3.232.164 1.283 0 3.263-.164 3.263-.164.664-.032.751.936.087 1.012 0 0-.663.076-1.414.12Zm4.482 16.362a12.271 12.271 0 0 0 4.602-16.493 11.587 11.587 0 0 1-.848 5.657l-3.754 10.836ZM24 38.143a14.143 14.143 0 1 1 0-28.286 14.143 14.143 0 0 1 0 28.286Z"/></svg>