<svg xmlns="http://www.w3.org/2000/svg" fill="none" aria-hidden="true" viewBox="0 0 48 48"><path fill="#F43939" d="M4 24C4 12.954 12.954 4 24 4s20 8.954 20 20-8.954 20-20 20S4 35.046 4 24Z"/><path fill="#fff" d="M23.855 12.17c.06.348.569 7.87.642 9.56.07 1.44-.548 1.632-.75 1.694-.204.064-.825.256-1.587-.98 0 0-5.152-8.106-5.274-8.356-.074-.282.017-.6.265-.858.77-.795 4.93-1.96 6.018-1.69.354.089.6.314.686.63Zm4.921 13.08c4.263-1.034 4.428-1.088 4.596-1.198.258-.174.388-.465.365-.819a.15.15 0 0 1 0-.011.102.102 0 0 0 0-.025c-.11-1.047-1.943-3.769-2.846-4.211-.32-.153-.641-.143-.907.035-.165.107-.285.27-2.568 3.391 0 0-1.03 1.404-1.043 1.418-.272.33-.276.804-.01 1.21.275.42.74.626 1.166.507 0 0-.017.03-.022.036.21-.079.586-.171 1.27-.334ZM15.32 23.537c-.407.65-.578 2.7-.437 4.06.05.448.13.823.249 1.046.162.309.435.493.746.504.2.01.324-.024 4.077-1.23l1.675-.536c.416-.106.696-.488.723-.977.027-.5-.231-.942-.658-1.103l-1.178-.479c-4.033-1.663-4.215-1.729-4.418-1.73-.31-.013-.587.143-.78.445Zm9.02 12.393c.066-.19.074-.319.085-4.261l.01-1.76c.027-.427-.25-.816-.701-.99-.466-.18-.968-.069-1.25.282 0 0-.823.977-.825.977-2.825 3.319-2.944 3.472-3.013 3.668a.807.807 0 0 0-.045.362.96.96 0 0 0 .23.512c.654.778 3.796 1.934 4.8 1.763.348-.063.602-.26.71-.553Zm9.533-5.39c-.145 1.011-2.211 3.64-3.159 4.018-.328.132-.644.1-.892-.095-.16-.125-.33-.381-2.556-3.997l-.662-1.078c-.254-.385-.207-.896.111-1.283.306-.377.76-.52 1.159-.366.02.01 1.666.554 1.666.554 3.751 1.232 3.872 1.278 4.03 1.398.243.193.354.497.303.849Z"/></svg>