<svg xmlns="http://www.w3.org/2000/svg" fill="none" aria-hidden="true" viewBox="0 0 48 48"><g id="zoom-Icon"><rect width="48" height="48" fill="#4087FC" rx="10"/><g id="camera"><path fill="white" d="M10.7427 13.7143C9.54347 13.7143 8.57129 14.8107 8.57129 16.1633V28.0408C8.57129 31.4898 11.0504 34.2857 14.1084 34.2857L26.9713 34.1633C28.1705 34.1633 29.1427 33.0669 29.1427 31.7143V19.7143C29.1427 16.2654 26.2008 13.7143 23.1427 13.7143L10.7427 13.7143Z"/><path fill="white" d="M32.0779 18.3902C31.302 19.1574 30.857 20.2648 30.857 21.4286V26.3988C30.857 27.5627 31.302 28.67 32.0779 29.4373L36.9064 33.6899C37.8889 34.6614 39.4284 33.8745 39.4284 32.4009V15.6603C39.4284 14.1867 37.8889 13.3998 36.9064 14.3712L32.0779 18.3902Z"/></g></g></svg>