<svg width="32" height="32" viewBox="0 0 32 32" fill="none" xmlns="http://www.w3.org/2000/svg"><g id="Icon-Database"><g clip-path="url(#clip0_10_901)"><g id="size=md (32px)"><g id="Database"><path id="Vector" d="M16 16C22.0751 16 27 13.3137 27 10C27 6.68629 22.0751 4 16 4C9.92487 4 5 6.68629 5 10C5 13.3137 9.92487 16 16 16Z" stroke="#101828" stroke-width="2" stroke-linecap="round" stroke-linejoin="round"/><path id="Vector_2" d="M5 10V16C5 19.3125 9.925 22 16 22C22.075 22 27 19.3125 27 16V10" stroke="#101828" stroke-width="2" stroke-linecap="round" stroke-linejoin="round"/><path id="Vector_3" d="M5 16V22C5 25.3125 9.925 28 16 28C22.075 28 27 25.3125 27 22V16" stroke="#101828" stroke-width="2" stroke-linecap="round" stroke-linejoin="round"/></g></g></g><rect x="0.5" y="0.5" width="31" height="31" rx="4.5" stroke="#3D90E3" stroke-dasharray="10 5"/></g><defs><clipPath id="clip0_10_901"><rect width="32" height="32" rx="5" fill="white"/></clipPath></defs></svg>