<svg width="32" height="32" viewBox="0 0 32 32" fill="none" xmlns="http://www.w3.org/2000/svg"><g id="Icon-BugBeetle"><g clip-path="url(#clip0_10_1023)"><g id="size=md (32px)"><g id="BugBeetle"><path id="Vector" d="M25 13C25 8.02944 20.9706 4 16 4C11.0294 4 7 8.02944 7 13V19C7 23.9706 11.0294 28 16 28C20.9706 28 25 23.9706 25 19V13Z" stroke="#101828" stroke-width="2" stroke-linecap="round" stroke-linejoin="round"/><path id="Vector_2" d="M25 17H28" stroke="#101828" stroke-width="2" stroke-linecap="round" stroke-linejoin="round"/><path id="Vector_3" d="M4 17H7" stroke="#101828" stroke-width="2" stroke-linecap="round" stroke-linejoin="round"/><path id="Vector_4" d="M4 21H7.225" stroke="#101828" stroke-width="2" stroke-linecap="round" stroke-linejoin="round"/><path id="Vector_5" d="M4 13H28" stroke="#101828" stroke-width="2" stroke-linecap="round" stroke-linejoin="round"/><path id="Vector_6" d="M16 17V28" stroke="#101828" stroke-width="2" stroke-linecap="round" stroke-linejoin="round"/><path id="Vector_7" d="M24.7749 21H27.9999" stroke="#101828" stroke-width="2" stroke-linecap="round" stroke-linejoin="round"/><path id="Vector_8" d="M6.9873 3.5L9.9623 6.325" stroke="#101828" stroke-width="2" stroke-linecap="round" stroke-linejoin="round"/><path id="Vector_9" d="M24.9874 3.5L22.0249 6.3125" stroke="#101828" stroke-width="2" stroke-linecap="round" stroke-linejoin="round"/></g></g></g><rect x="0.5" y="0.5" width="31" height="31" rx="4.5" stroke="#3D90E3" stroke-dasharray="10 5"/></g><defs><clipPath id="clip0_10_1023"><rect width="32" height="32" rx="5" fill="white"/></clipPath></defs></svg>