<svg xmlns="http://www.w3.org/2000/svg" fill="none" stroke="currentColor" aria-hidden="true" viewBox="0 0 32 32"><g id="Icon-FileVue"><g clip-path="url(#clip0_12_1218)"><g id="size=md (32px)"><g id="FileVue"><path id="Vector" stroke-linecap="round" stroke-linejoin="round" stroke-width="2" d="M25.5 24H22.5"/><path id="Vector_2" stroke-linecap="round" stroke-linejoin="round" stroke-width="2" d="M26 27H22.5V21H26"/><path id="Vector_3" stroke-linecap="round" stroke-linejoin="round" stroke-width="2" d="M5.5 21L8 27L10.5 21"/><path id="Vector_4" stroke-linecap="round" stroke-linejoin="round" stroke-width="2" d="M14 21V24.75C14 25.3467 14.2371 25.919 14.659 26.341C15.081 26.7629 15.6533 27 16.25 27C16.8467 27 17.419 26.7629 17.841 26.341C18.2629 25.919 18.5 25.3467 18.5 24.75V21"/><path id="Vector_5" stroke-linecap="round" stroke-linejoin="round" stroke-width="2" d="M6 16V5C6 4.73478 6.10536 4.48043 6.29289 4.29289C6.48043 4.10536 6.73478 4 7 4H19L26 11V16"/><path id="Vector_6" stroke-linecap="round" stroke-linejoin="round" stroke-width="2" d="M19 4V11H26"/></g></g></g></g><defs><clipPath id="clip0_12_1218"><rect width="32" height="32" fill="white" rx="5"/></clipPath></defs></svg>