<svg xmlns="http://www.w3.org/2000/svg" fill="none" stroke="currentColor" aria-hidden="true" viewBox="0 0 32 32"><g id="Icon-FileArrowUp"><g clip-path="url(#clip0_12_1859)"><g id="size=md (32px)"><g id="FileArrowUp"><path id="Vector" stroke-linecap="round" stroke-linejoin="round" stroke-width="2" d="M25 28H7C6.73478 28 6.48043 27.8946 6.29289 27.7071C6.10536 27.5196 6 27.2652 6 27V5C6 4.73478 6.10536 4.48043 6.29289 4.29289C6.48043 4.10536 6.73478 4 7 4H19L26 11V27C26 27.2652 25.8946 27.5196 25.7071 27.7071C25.5196 27.8946 25.2652 28 25 28Z"/><path id="Vector_2" stroke-linecap="round" stroke-linejoin="round" stroke-width="2" d="M19 4V11H26"/><path id="Vector_3" stroke-linecap="round" stroke-linejoin="round" stroke-width="2" d="M12.5 18.5L16 15L19.5 18.5"/><path id="Vector_4" stroke-linecap="round" stroke-linejoin="round" stroke-width="2" d="M16 23V15"/></g></g></g></g><defs><clipPath id="clip0_12_1859"><rect width="32" height="32" fill="white" rx="5"/></clipPath></defs></svg>