<svg xmlns="http://www.w3.org/2000/svg" fill="none" stroke="currentColor" aria-hidden="true" viewBox="0 0 32 32"><g id="Icon-FileLock"><g clip-path="url(#clip0_12_1537)"><g id="size=md (32px)"><g id="FileLock"><path id="Vector" stroke-linecap="round" stroke-linejoin="round" stroke-width="2" d="M19 4V11H26"/><path id="Vector_2" stroke-linecap="round" stroke-linejoin="round" stroke-width="2" d="M21 28H25C25.2652 28 25.5196 27.8946 25.7071 27.7071C25.8946 27.5196 26 27.2652 26 27V11L19 4H7C6.73478 4 6.48043 4.10536 6.29289 4.29289C6.10536 4.48043 6 4.73478 6 5V16"/><path id="Vector_3" stroke-linecap="round" stroke-linejoin="round" stroke-width="2" d="M16 22.5H7V28H16V22.5Z"/><path id="Vector_4" stroke-linecap="round" stroke-linejoin="round" stroke-width="2" d="M9 22.5V21C9 20.337 9.26339 19.7011 9.73223 19.2322C10.2011 18.7634 10.837 18.5 11.5 18.5C12.163 18.5 12.7989 18.7634 13.2678 19.2322C13.7366 19.7011 14 20.337 14 21V22.5"/></g></g></g></g><defs><clipPath id="clip0_12_1537"><rect width="32" height="32" fill="white" rx="5"/></clipPath></defs></svg>