<svg xmlns="http://www.w3.org/2000/svg" fill="none" stroke="currentColor" aria-hidden="true" viewBox="0 0 32 32"><g stroke="#101828" stroke-linecap="round" stroke-linejoin="round" stroke-width="2" clip-path="url(#a)"><path d="M5 11.412V26a1 1 0 0 0 1 1h20a1 1 0 0 0 1-1V6a1 1 0 0 0-1-1H11.412a.987.987 0 0 0-.7.288l-5.424 5.425a.988.988 0 0 0-.288.7v0Z"/><path d="M16 22a3.5 3.5 0 1 0 0-7 3.5 3.5 0 0 0 0 7Zm-4-12h8V5"/></g><defs><clipPath id="a"><rect width="32" height="32" fill="#fff" rx="5"/></clipPath></defs></svg>