<svg xmlns="http://www.w3.org/2000/svg" fill="none" stroke="currentColor" aria-hidden="true" viewBox="0 0 32 32"><g stroke="#101828" stroke-linecap="round" stroke-linejoin="round" stroke-width="2" clip-path="url(#a)"><path d="M25 14v11.113a.888.888 0 0 1-.887.887H5a1 1 0 0 1-1-1V11a1 1 0 0 1 1-1h5.662c.217 0 .427.071.6.2l3.476 2.6c.173.129.383.2.6.2H24a1 1 0 0 1 1 1Z"/><path d="M25 14v11.113a.888.888 0 0 1-.887.887H5a1 1 0 0 1-1-1V11a1 1 0 0 1 1-1h5.662c.217 0 .427.071.6.2l3.476 2.6c.173.129.383.2.6.2H24a1 1 0 0 1 1 1Z"/><path d="M8 10V7a1 1 0 0 1 1-1h5.662c.217 0 .427.071.6.2l3.476 2.6c.173.129.383.2.6.2H28a1 1 0 0 1 1 1v11.113a.888.888 0 0 1-.887.887H25"/></g><defs><clipPath id="a"><rect width="32" height="32" fill="#fff" rx="5"/></clipPath></defs></svg>