<svg xmlns="http://www.w3.org/2000/svg" fill="none" stroke="currentColor" aria-hidden="true" viewBox="0 0 32 32"><g stroke="#101828" stroke-linecap="round" stroke-linejoin="round" stroke-width="2" clip-path="url(#a)"><path d="M23.5 24.5a3 3 0 1 0 0-6 3 3 0 0 0 0 6Z"/><path d="M19.625 27.5a4 4 0 0 1 7.75 0M15 26H5a1 1 0 0 1-1-1V8a1 1 0 0 1 1-1h6.662c.217 0 .427.071.6.2l3.476 2.6c.173.129.383.2.6.2H27a1 1 0 0 1 1 1v4"/></g><defs><clipPath id="a"><rect width="32" height="32" fill="#fff" rx="5"/></clipPath></defs></svg>