<svg xmlns="http://www.w3.org/2000/svg" fill="none" stroke="currentColor" aria-hidden="true" viewBox="0 0 32 32"><g stroke="#101828" stroke-linecap="round" stroke-linejoin="round" stroke-width="2" clip-path="url(#a)"><path d="M23.5 24.5a3 3 0 1 0 0-6 3 3 0 0 0 0 6Z"/><path d="M19.625 27.5a4 4 0 0 1 7.75 0M4 10V7a1 1 0 0 1 1-1h6.588a.987.987 0 0 1 .7.288L16 10"/><path d="M15.075 26H4.925A.925.925 0 0 1 4 25.075V10h23a1 1 0 0 1 1 1v4"/></g><defs><clipPath id="a"><rect width="32" height="32" fill="#fff" rx="5"/></clipPath></defs></svg>