<svg xmlns="http://www.w3.org/2000/svg" fill="none" stroke="currentColor" aria-hidden="true" viewBox="0 0 32 32"><g id="Icon-Kanban"><g clip-path="url(#clip0_12_662)"><g id="size=md (32px)"><g id="Kanban"><path id="Vector" stroke-linecap="round" stroke-linejoin="round" stroke-width="2" d="M5 7H27V22C27 22.2652 26.8946 22.5196 26.7071 22.7071C26.5196 22.8946 26.2652 23 26 23H21C20.7348 23 20.4804 22.8946 20.2929 22.7071C20.1054 22.5196 20 22.2652 20 22V19H12V26C12 26.2652 11.8946 26.5196 11.7071 26.7071C11.5196 26.8946 11.2652 27 11 27H6C5.73478 27 5.48043 26.8946 5.29289 26.7071C5.10536 26.5196 5 26.2652 5 26V7Z"/><path id="Vector_2" stroke-linecap="round" stroke-linejoin="round" stroke-width="2" d="M12 15H5"/><path id="Vector_3" stroke-linecap="round" stroke-linejoin="round" stroke-width="2" d="M12 7V19"/><path id="Vector_4" stroke-linecap="round" stroke-linejoin="round" stroke-width="2" d="M20 15H27"/><path id="Vector_5" stroke-linecap="round" stroke-linejoin="round" stroke-width="2" d="M20 7V19"/></g></g></g></g><defs><clipPath id="clip0_12_662"><rect width="32" height="32" fill="white" rx="5"/></clipPath></defs></svg>