<svg xmlns="http://www.w3.org/2000/svg" fill="none" stroke="currentColor" aria-hidden="true" viewBox="0 0 32 32"><g id="Icon-Textbox"><g clip-path="url(#clip0_12_2465)"><g id="size=md (32px)"><g id="Textbox"><path id="Vector" stroke-linecap="round" stroke-linejoin="round" stroke-width="2" d="M14 6V26"/><path id="Vector_2" stroke-linecap="round" stroke-linejoin="round" stroke-width="2" d="M18 9H29C29.2652 9 29.5196 9.10536 29.7071 9.29289C29.8946 9.48043 30 9.73478 30 10V22C30 22.2652 29.8946 22.5196 29.7071 22.7071C29.5196 22.8946 29.2652 23 29 23H18"/><path id="Vector_3" stroke-linecap="round" stroke-linejoin="round" stroke-width="2" d="M14 23H3C2.73478 23 2.48043 22.8946 2.29289 22.7071C2.10536 22.5196 2 22.2652 2 22V10C2 9.73478 2.10536 9.48043 2.29289 9.29289C2.48043 9.10536 2.73478 9 3 9H14"/><path id="Vector_4" stroke-linecap="round" stroke-linejoin="round" stroke-width="2" d="M6.25 14H9.75"/><path id="Vector_5" stroke-linecap="round" stroke-linejoin="round" stroke-width="2" d="M8 14V18.5"/></g></g></g></g><defs><clipPath id="clip0_12_2465"><rect width="32" height="32" fill="white" rx="5"/></clipPath></defs></svg>