<svg xmlns="http://www.w3.org/2000/svg" fill="none" stroke="currentColor" aria-hidden="true" viewBox="0 0 32 32"><g id="Icon-TextHThree"><g clip-path="url(#clip0_12_2330)"><g id="size=md (32px)"><g id="TextHThree"><path id="Vector" stroke-linecap="round" stroke-linejoin="round" stroke-width="2" d="M5 7V22"/><path id="Vector_2" stroke-linecap="round" stroke-linejoin="round" stroke-width="2" d="M18 14.5H5"/><path id="Vector_3" stroke-linecap="round" stroke-linejoin="round" stroke-width="2" d="M18 7V22"/><path id="Vector_4" stroke-linecap="round" stroke-linejoin="round" stroke-width="2" d="M24 13.5H30L26.5 18.5C27.0756 18.5 27.6422 18.642 28.1498 18.9134C28.6574 19.1847 29.0902 19.577 29.41 20.0556C29.7297 20.5342 29.9265 21.0842 29.9829 21.657C30.0393 22.2298 29.9536 22.8077 29.7333 23.3394C29.513 23.8712 29.165 24.3404 28.7201 24.7055C28.2752 25.0707 27.7471 25.3204 27.1826 25.4327C26.6181 25.545 26.0347 25.5164 25.4839 25.3493C24.9331 25.1823 24.432 24.882 24.025 24.475"/></g></g></g></g><defs><clipPath id="clip0_12_2330"><rect width="32" height="32" fill="white" rx="5"/></clipPath></defs></svg>