<svg xmlns="http://www.w3.org/2000/svg" fill="none" stroke="currentColor" aria-hidden="true" viewBox="0 0 32 32"><g id="Icon-Trash"><g clip-path="url(#clip0_12_2166)"><g id="size=md (32px)"><g id="Trash"><path id="Vector" stroke-linecap="round" stroke-linejoin="round" stroke-width="2" d="M27 7H5"/><path id="Vector_2" stroke-linecap="round" stroke-linejoin="round" stroke-width="2" d="M13 13V21"/><path id="Vector_3" stroke-linecap="round" stroke-linejoin="round" stroke-width="2" d="M19 13V21"/><path id="Vector_4" stroke-linecap="round" stroke-linejoin="round" stroke-width="2" d="M25 7V26C25 26.2652 24.8946 26.5196 24.7071 26.7071C24.5196 26.8946 24.2652 27 24 27H8C7.73478 27 7.48043 26.8946 7.29289 26.7071C7.10536 26.5196 7 26.2652 7 26V7"/><path id="Vector_5" stroke-linecap="round" stroke-linejoin="round" stroke-width="2" d="M21 7V5C21 4.46957 20.7893 3.96086 20.4142 3.58579C20.0391 3.21071 19.5304 3 19 3H13C12.4696 3 11.9609 3.21071 11.5858 3.58579C11.2107 3.96086 11 4.46957 11 5V7"/></g></g></g></g><defs><clipPath id="clip0_12_2166"><rect width="32" height="32" fill="white" rx="5"/></clipPath></defs></svg>