<svg xmlns="http://www.w3.org/2000/svg" fill="none" stroke="currentColor" aria-hidden="true" viewBox="0 0 32 32"><g id="Icon-Baseball"><g clip-path="url(#clip0_11_3320)"><g id="size=md (32px)"><g id="Baseball"><path id="Vector" stroke-linecap="round" stroke-linejoin="round" stroke-width="2" d="M16 28C22.6274 28 28 22.6274 28 16C28 9.37258 22.6274 4 16 4C9.37258 4 4 9.37258 4 16C4 22.6274 9.37258 28 16 28Z"/><path id="Vector_2" stroke-linecap="round" stroke-linejoin="round" stroke-width="2" d="M21.1504 14.125C21.2539 13.467 21.4128 12.8188 21.6254 12.1875"/><path id="Vector_3" stroke-linecap="round" stroke-linejoin="round" stroke-width="2" d="M21.6254 19.8125C21.4128 19.1812 21.2539 18.533 21.1504 17.875"/><path id="Vector_4" stroke-linecap="round" stroke-linejoin="round" stroke-width="2" d="M10.85 14.125C10.7465 13.467 10.5876 12.8188 10.375 12.1875"/><path id="Vector_5" stroke-linecap="round" stroke-linejoin="round" stroke-width="2" d="M10.375 19.8125C10.5876 19.1812 10.7465 18.533 10.85 17.875"/><path id="Vector_6" stroke-linecap="round" stroke-linejoin="round" stroke-width="2" d="M23.3496 8.86252C23.7022 8.39112 24.0864 7.94425 24.4996 7.52502"/><path id="Vector_7" stroke-linecap="round" stroke-linejoin="round" stroke-width="2" d="M24.4996 24.475C24.0894 24.053 23.7053 23.6063 23.3496 23.1375"/><path id="Vector_8" stroke-linecap="round" stroke-linejoin="round" stroke-width="2" d="M7.5 24.475C7.91021 24.053 8.29426 23.6063 8.65 23.1375"/><path id="Vector_9" stroke-linecap="round" stroke-linejoin="round" stroke-width="2" d="M8.65 8.86252C8.29745 8.39112 7.91323 7.94425 7.5 7.52502"/></g></g></g></g><defs><clipPath id="clip0_11_3320"><rect width="32" height="32" fill="white" rx="5"/></clipPath></defs></svg>