<svg xmlns="http://www.w3.org/2000/svg" fill="none" stroke="currentColor" aria-hidden="true" viewBox="0 0 32 32"><g clip-path="url(#a)"><path stroke-linecap="round" stroke-linejoin="round" stroke-width="2" d="M5.638 24.5a1.013 1.013 0 0 0 1.25.738 34.123 34.123 0 0 1 18.212 0 1.014 1.014 0 0 0 1.25-.738l3.188-13.537a1 1 0 0 0-1.375-1.15l-6.326 2.812a1.013 1.013 0 0 1-1.287-.425l-3.675-6.625a1 1 0 0 0-1.75 0L11.45 12.2a1.012 1.012 0 0 1-1.287.425L3.837 9.812a1 1 0 0 0-1.375 1.15L5.638 24.5Z"/></g><defs><clipPath id="a"><rect width="32" height="32" fill="#fff" rx="5"/></clipPath></defs></svg>