<svg xmlns="http://www.w3.org/2000/svg" fill="none" stroke="currentColor" aria-hidden="true" viewBox="0 0 32 32"><g id="Icon-DiceSix"><g clip-path="url(#clip0_11_3109)"><g id="size=md (32px)"><g id="DiceSix"><path id="Vector" stroke-linecap="round" stroke-linejoin="round" stroke-width="2" d="M24 5H8C6.34315 5 5 6.34315 5 8V24C5 25.6569 6.34315 27 8 27H24C25.6569 27 27 25.6569 27 24V8C27 6.34315 25.6569 5 24 5Z"/><path id="Vector_2" fill="#101828" d="M11.5 12C12.3284 12 13 11.3284 13 10.5C13 9.67157 12.3284 9 11.5 9C10.6716 9 10 9.67157 10 10.5C10 11.3284 10.6716 12 11.5 12Z"/><path id="Vector_3" fill="#101828" d="M20.5 12C21.3284 12 22 11.3284 22 10.5C22 9.67157 21.3284 9 20.5 9C19.6716 9 19 9.67157 19 10.5C19 11.3284 19.6716 12 20.5 12Z"/><path id="Vector_4" fill="#101828" d="M11.5 17.5C12.3284 17.5 13 16.8284 13 16C13 15.1716 12.3284 14.5 11.5 14.5C10.6716 14.5 10 15.1716 10 16C10 16.8284 10.6716 17.5 11.5 17.5Z"/><path id="Vector_5" fill="#101828" d="M20.5 17.5C21.3284 17.5 22 16.8284 22 16C22 15.1716 21.3284 14.5 20.5 14.5C19.6716 14.5 19 15.1716 19 16C19 16.8284 19.6716 17.5 20.5 17.5Z"/><path id="Vector_6" fill="#101828" d="M11.5 23C12.3284 23 13 22.3284 13 21.5C13 20.6716 12.3284 20 11.5 20C10.6716 20 10 20.6716 10 21.5C10 22.3284 10.6716 23 11.5 23Z"/><path id="Vector_7" fill="#101828" d="M20.5 23C21.3284 23 22 22.3284 22 21.5C22 20.6716 21.3284 20 20.5 20C19.6716 20 19 20.6716 19 21.5C19 22.3284 19.6716 23 20.5 23Z"/></g></g></g></g><defs><clipPath id="clip0_11_3109"><rect width="32" height="32" fill="white" rx="5"/></clipPath></defs></svg>