<svg xmlns="http://www.w3.org/2000/svg" fill="none" stroke="currentColor" aria-hidden="true" viewBox="0 0 32 32"><g clip-path="url(#a)"><path stroke-linecap="round" stroke-linejoin="round" stroke-width="2" d="M24 5H8a3 3 0 0 0-3 3v16a3 3 0 0 0 3 3h16a3 3 0 0 0 3-3V8a3 3 0 0 0-3-3Z"/><path fill="#101828" d="M11.5 13a1.5 1.5 0 1 0 0-3 1.5 1.5 0 0 0 0 3Zm4.5 4.5a1.5 1.5 0 1 0 0-3 1.5 1.5 0 0 0 0 3Zm4.5 4.5a1.5 1.5 0 1 0 0-3 1.5 1.5 0 0 0 0 3Z"/></g><defs><clipPath id="a"><rect width="32" height="32" fill="#fff" rx="5"/></clipPath></defs></svg>