<svg xmlns="http://www.w3.org/2000/svg" fill="none" stroke="currentColor" aria-hidden="true" viewBox="0 0 32 32"><g id="Icon-DiceFour"><g clip-path="url(#clip0_11_3156)"><g id="size=md (32px)"><g id="DiceFour"><path id="Vector" stroke-linecap="round" stroke-linejoin="round" stroke-width="2" d="M24 5H8C6.34315 5 5 6.34315 5 8V24C5 25.6569 6.34315 27 8 27H24C25.6569 27 27 25.6569 27 24V8C27 6.34315 25.6569 5 24 5Z"/><path id="Vector_2" fill="#101828" d="M12.5 14C13.3284 14 14 13.3284 14 12.5C14 11.6716 13.3284 11 12.5 11C11.6716 11 11 11.6716 11 12.5C11 13.3284 11.6716 14 12.5 14Z"/><path id="Vector_3" fill="#101828" d="M19.5 14C20.3284 14 21 13.3284 21 12.5C21 11.6716 20.3284 11 19.5 11C18.6716 11 18 11.6716 18 12.5C18 13.3284 18.6716 14 19.5 14Z"/><path id="Vector_4" fill="#101828" d="M12.5 21C13.3284 21 14 20.3284 14 19.5C14 18.6716 13.3284 18 12.5 18C11.6716 18 11 18.6716 11 19.5C11 20.3284 11.6716 21 12.5 21Z"/><path id="Vector_5" fill="#101828" d="M19.5 21C20.3284 21 21 20.3284 21 19.5C21 18.6716 20.3284 18 19.5 18C18.6716 18 18 18.6716 18 19.5C18 20.3284 18.6716 21 19.5 21Z"/></g></g></g></g><defs><clipPath id="clip0_11_3156"><rect width="32" height="32" fill="white" rx="5"/></clipPath></defs></svg>