<svg xmlns="http://www.w3.org/2000/svg" fill="none" stroke="currentColor" aria-hidden="true" viewBox="0 0 32 32"><g id="Icon-Horse"><g clip-path="url(#clip0_11_2875)"><g id="size=md (32px)"><g id="Horse"><path id="Vector" stroke-linecap="round" stroke-linejoin="round" stroke-width="2" d="M22 15C22 16.5913 21.3679 18.1174 20.2426 19.2426C19.1174 20.3679 17.5913 21 16 21"/><path id="Vector_2" stroke-linecap="round" stroke-linejoin="round" stroke-width="2" d="M8 24.95C10.2591 26.9756 13.204 28.066 16.2375 28C22.675 27.875 27.9125 22.6125 28 16.175C28.0232 14.5845 27.7299 13.0052 27.1373 11.529C26.5446 10.0529 25.6644 8.70927 24.5478 7.57636C23.4311 6.44346 22.1004 5.54386 20.633 4.92989C19.1656 4.31592 17.5907 3.99983 16 4H15V8L2 16L3.725 18.3875C4.0525 18.8432 4.50174 19.1975 5.02126 19.4097C5.54079 19.622 6.10958 19.6836 6.6625 19.5875C8.85 19.225 12.675 19 16 21L11.6 27.1625"/><path id="Vector_3" fill="#101828" d="M15.5 14C16.3284 14 17 13.3284 17 12.5C17 11.6716 16.3284 11 15.5 11C14.6716 11 14 11.6716 14 12.5C14 13.3284 14.6716 14 15.5 14Z"/></g></g></g></g><defs><clipPath id="clip0_11_2875"><rect width="32" height="32" fill="white" rx="5"/></clipPath></defs></svg>