<svg xmlns="http://www.w3.org/2000/svg" fill="none" stroke="currentColor" aria-hidden="true" viewBox="0 0 32 32"><g stroke="#101828" stroke-linecap="round" stroke-linejoin="round" stroke-width="2" clip-path="url(#a)"><path d="M18.263 15a3 3 0 0 0 4.475 0M9.263 15a3 3 0 0 0 4.475 0m5.575 8a5.987 5.987 0 0 0-6.625 0"/><path d="M27 6.038a.988.988 0 0 0-1.362-.925C23.75 5.838 20.113 7 16 7c-4.112 0-7.75-1.162-9.637-1.887A.988.988 0 0 0 5 6.038V13c0 8.837 4.925 16 11 16s11-7.163 11-16V6.038Z"/></g><defs><clipPath id="a"><rect width="32" height="32" fill="#fff" rx="5"/></clipPath></defs></svg>