<svg xmlns="http://www.w3.org/2000/svg" fill="none" stroke="currentColor" aria-hidden="true" viewBox="0 0 32 32"><g id="Icon-Medal"><g clip-path="url(#clip0_11_2812)"><g id="size=md (32px)"><g id="Medal"><path id="Vector" stroke-linecap="round" stroke-linejoin="round" stroke-width="2" d="M16 22C21.5228 22 26 17.5228 26 12C26 6.47715 21.5228 2 16 2C10.4772 2 6 6.47715 6 12C6 17.5228 10.4772 22 16 22Z"/><path id="Vector_2" stroke-linecap="round" stroke-linejoin="round" stroke-width="2" d="M16 18C19.3137 18 22 15.3137 22 12C22 8.68629 19.3137 6 16 6C12.6863 6 10 8.68629 10 12C10 15.3137 12.6863 18 16 18Z"/><path id="Vector_3" stroke-linecap="round" stroke-linejoin="round" stroke-width="2" d="M22 20V30L16 27L10 30V20"/></g></g></g></g><defs><clipPath id="clip0_11_2812"><rect width="32" height="32" fill="white" rx="5"/></clipPath></defs></svg>