<svg xmlns="http://www.w3.org/2000/svg" fill="none" stroke="currentColor" aria-hidden="true" viewBox="0 0 32 32"><g stroke="#101828" stroke-linecap="round" stroke-linejoin="round" stroke-width="2" clip-path="url(#a)"><path d="M16 28c6.627 0 12-5.373 12-12S22.627 4 16 4 4 9.373 4 16s5.373 12 12 12Z"/><path d="m16 10.75-4.987 3.625 1.9 5.875h6.175l1.9-5.875L16 10.75ZM16 8v2.75m4.375-5.925L16 8l-4.375-3.175m-3.237 8.7 2.625.85M6.725 8.388l1.663 5.137-4.375 3.187m7.287 5.763 1.612-2.225m-7.024 2.225H11.3l1.675 5.137m7.725-5.137-1.612-2.225m-.063 7.363 1.675-5.138h5.413m-2.501-8.95-2.625.85m7 2.337-4.375-3.187 1.663-5.137"/></g><defs><clipPath id="a"><rect width="32" height="32" fill="#fff" rx="5"/></clipPath></defs></svg>