<svg width="198" height="60" viewBox="0 0 198 60" fill="none" xmlns="http://www.w3.org/2000/svg"><g id="Angular"><g id="Group"><g id="Union"><path d="M150.536 42.0644H147.5L158.678 16.6001L169.857 42.0644H166.643L163.75 34.9929H156.321L157.107 32.6358H162.786L158.571 22.4572L150.536 42.0644Z" fill="#B52E31"/><path d="M97.2856 42.2071C99.357 42.2071 101.321 41.85 103.143 41.1714V31.85H100.25V39.3857C99.0713 39.6357 97.9999 39.7786 97.0356 39.7786C90.9999 39.7786 87.9642 36.6714 87.9642 30.4214C87.9642 24.6357 91.0356 21.7071 97.1784 21.7071C99.2142 21.7071 101.214 22.0643 103.143 22.8143V20.3143C101.214 19.7071 99.107 19.3857 96.857 19.3857C88.9999 19.3857 85.0713 23.1 85.0713 30.4929C85.0713 38.3143 89.1427 42.2071 97.2856 42.2071Z" fill="#B52E31"/><path d="M61.3571 19.5643V42.0643H64.1071V23.7786L77.8571 42.0643H80.7499V19.5643H77.9999V37.6714L64.2499 19.5643H61.3571Z" fill="#B52E31"/><path d="M107.786 33.3857V19.5643H110.678V33.3857C110.678 37.7071 112.821 39.8857 117.143 39.8857C121.428 39.8857 123.607 37.7071 123.607 33.3857V19.5643H126.5V33.3857C126.5 39.2786 123.393 42.2429 117.143 42.2429C110.893 42.2429 107.786 39.2786 107.786 33.3857Z" fill="#B52E31"/><path d="M134.571 39.7071V19.5643H131.678V42.0643H146.357V39.7071H134.571Z" fill="#B52E31"/><path d="M172.964 19.5643V42.0643H175.928V21.9929H182.357C184.75 21.9929 185.928 23.0286 185.928 25.1C185.928 27.7429 183.75 29.3857 179.464 30.0643V31.9571L186.607 42.0643H190.428L182.714 31.4571C186.893 30.0643 189 27.8857 189 24.9571C189 21.35 186.857 19.5643 182.571 19.5643H172.964Z" fill="#B52E31"/></g><g id="Group_2"><path id="Vector" fill-rule="evenodd" clip-rule="evenodd" d="M7.57144 13.5644L30.6072 5.35007L54.25 13.4215L50.4286 43.8858L30.6072 54.8501L11.1072 44.0286L7.57144 13.5644Z" fill="#E23237"/><path id="Vector_2" fill-rule="evenodd" clip-rule="evenodd" d="M54.2501 13.4215L30.6072 5.35007V54.8501L50.4287 43.8858L54.2501 13.4215Z" fill="#B52E31"/><path id="Vector_3" fill-rule="evenodd" clip-rule="evenodd" d="M30.6428 11.1358L16.2857 43.0644L21.6428 42.9573L24.5357 35.743H30.6428H37.3571L40.5 43.0287L45.6071 43.1358L30.6428 11.1358ZM30.6786 21.3858L35.5357 31.5287H30.8928H30.6428H26.4286L30.6786 21.3858Z" fill="white"/></g></g></g></svg>