<svg width="161" height="73" viewBox="0 0 161 73" fill="none" xmlns="http://www.w3.org/2000/svg"><g id="Apache Airflow"><g id="Group"><path id="Path 1" d="M4.96497 65.5488L32.8836 36.9309C32.9698 36.8457 33.0232 36.733 33.0346 36.6124C33.046 36.4918 33.0147 36.371 32.946 36.2712C31.2483 33.901 28.1154 33.49 26.9545 31.8973C23.5156 27.1796 22.643 24.5093 21.1652 24.6747C21.0621 24.6895 20.9672 24.7396 20.8968 24.8163L10.8117 35.155C5.0095 41.0979 4.17558 54.1969 4.02503 65.1665C4.02454 65.2756 4.05668 65.3824 4.1174 65.4731C4.17813 65.5638 4.26464 65.6343 4.36575 65.6754C4.46685 65.7165 4.57791 65.7264 4.6847 65.7039C4.7915 65.6813 4.88913 65.6273 4.96497 65.5488V65.5488Z" fill="#017CEE"/><path id="Path 2" d="M62.1027 64.8423L33.4848 36.9217C33.3996 36.8353 33.2867 36.7817 33.1659 36.7703C33.0451 36.7589 32.9241 36.7904 32.8242 36.8593C30.454 38.558 30.0429 41.6899 28.4502 42.8507C23.7326 46.2897 21.0622 47.1623 21.2277 48.6401C21.2427 48.7428 21.2927 48.8373 21.3692 48.9075L31.7078 58.9926C37.6507 64.7948 50.7499 65.6288 61.7194 65.7793C61.828 65.7794 61.9341 65.7472 62.0243 65.6866C62.1145 65.6261 62.1847 65.5401 62.2258 65.4396C62.2669 65.339 62.2772 65.2286 62.2553 65.1222C62.2334 65.0158 62.1802 64.9184 62.1027 64.8423Z" fill="#00AD46"/><path id="Path 3" d="M31.708 58.9955C28.4592 55.826 26.9537 49.5562 33.1798 36.6275C23.0581 41.151 19.5111 47.0969 21.2554 48.7995L31.708 58.9955Z" fill="#04D659"/><path id="Path 4" d="M61.3955 7.70551L33.4779 36.3234C33.3916 36.4085 33.338 36.5212 33.3266 36.6419C33.3152 36.7626 33.3467 36.8834 33.4156 36.9831C35.1142 39.3533 38.2451 39.7643 39.4069 41.357C42.8459 46.0747 43.7194 48.745 45.1962 48.5796C45.2994 48.5649 45.3943 48.5148 45.4647 48.4379L55.5497 38.0993C61.3519 32.1565 62.186 19.0574 62.3365 8.08782C62.3367 7.97868 62.3043 7.87197 62.2434 7.78138C62.1826 7.69078 62.0961 7.62042 61.995 7.57934C61.8939 7.53826 61.7828 7.52833 61.676 7.55081C61.5692 7.57328 61.4715 7.62716 61.3955 7.70551V7.70551Z" fill="#00C7D4"/><path id="Path 5" d="M55.5547 38.0994C52.3852 41.3481 46.1154 42.8537 33.1857 36.6275C37.7092 46.7492 43.655 50.2961 45.3577 48.5519L55.5547 38.0994Z" fill="#11E1EE"/><path id="Path 6" d="M4.25674 8.41174L32.8746 36.3294C32.9597 36.4155 33.0726 36.469 33.1932 36.4804C33.3138 36.4918 33.4345 36.4605 33.5343 36.3918C35.9045 34.6931 36.3156 31.5612 37.9082 30.4004C42.6259 26.9614 45.2962 26.0888 45.1308 24.611C45.1157 24.508 45.0658 24.4132 44.9892 24.3426L34.6506 14.2575C28.7077 8.4553 15.6086 7.62133 4.63905 7.47078C4.52969 7.47008 4.42262 7.50219 4.3317 7.56297C4.24078 7.62374 4.17023 7.71036 4.12906 7.81168C4.08789 7.91299 4.078 8.02433 4.10077 8.1313C4.12353 8.23826 4.17789 8.33597 4.25674 8.41174V8.41174Z" fill="#E43921"/><path id="Path 7" fill-rule="evenodd" clip-rule="evenodd" d="M34.6556 14.2585C37.9044 17.4281 39.4098 23.6978 33.1837 36.6275C43.3054 32.104 46.8523 26.1572 45.1081 24.4555L34.6556 14.2585Z" fill="#FF7557"/><path id="Path 8" d="M10.8117 35.1554C13.9812 31.9067 20.251 30.4012 33.1807 36.6273C28.6572 26.5056 22.7114 22.9587 21.0087 24.7029L10.8117 35.1554Z" fill="#0CB6FF"/><path id="Ellipse 1" d="M33.1847 37.8705C33.874 37.8705 34.4327 37.3118 34.4327 36.6225C34.4327 35.9333 33.874 35.3745 33.1847 35.3745C32.4955 35.3745 31.9367 35.9333 31.9367 36.6225C31.9367 37.3118 32.4955 37.8705 33.1847 37.8705Z" fill="#4A4848"/><path id="Path 9" d="M70.1137 26.4922C70.0556 26.4907 70.0003 26.467 69.9592 26.4259C69.9181 26.3848 69.8943 26.3294 69.8928 26.2713C69.8909 26.2304 69.8946 26.1894 69.9037 26.1495L72.6435 19.0042C72.666 18.9295 72.7133 18.8648 72.7776 18.8207C72.8418 18.7766 72.9193 18.7557 72.997 18.7615H73.7478C73.8255 18.7561 73.9027 18.7771 73.9669 18.8212C74.0311 18.8652 74.0785 18.9297 74.1014 19.0042L76.8292 26.1495L76.851 26.2713C76.8497 26.3295 76.8261 26.3849 76.7849 26.4261C76.7438 26.4673 76.6882 26.4909 76.6301 26.4922H76.0675C76.0002 26.4965 75.9335 26.4769 75.8793 26.4367C75.8401 26.3999 75.8099 26.3544 75.7912 26.304L75.184 24.736H71.5618L70.9546 26.304C70.9341 26.3563 70.8999 26.4022 70.8556 26.4367C70.8053 26.4757 70.7428 26.4953 70.6793 26.4922H70.1137ZM74.8631 23.7862L73.3724 19.8659L71.8818 23.7862H74.8631ZM78.1535 28.5901C78.1187 28.5906 78.084 28.584 78.0518 28.5707C78.0196 28.5574 77.9905 28.5377 77.9662 28.5128C77.9438 28.4894 77.9264 28.4617 77.9149 28.4314C77.9035 28.4011 77.8984 28.3688 77.8998 28.3364V21.0069C77.8984 20.9746 77.9035 20.9423 77.9149 20.912C77.9264 20.8817 77.9438 20.8539 77.9662 20.8306C77.9905 20.8056 78.0196 20.7859 78.0518 20.7726C78.084 20.7593 78.1187 20.7528 78.1535 20.7533H78.6616C78.7279 20.7562 78.7907 20.7839 78.8376 20.8308C78.8845 20.8778 78.9122 20.9406 78.9151 21.0069V21.4923C79.1223 21.2111 79.3964 20.9861 79.7126 20.8377C80.0288 20.6893 80.377 20.6221 80.7257 20.6424C81.0518 20.6185 81.379 20.672 81.6804 20.7987C81.9818 20.9254 82.2489 21.1217 82.46 21.3714C82.8702 21.9129 83.0916 22.574 83.0901 23.2534C83.0973 23.3339 83.1009 23.459 83.1009 23.6287C83.1009 23.7984 83.0973 23.9236 83.0901 24.0041C83.0892 24.6831 82.8681 25.3434 82.46 25.886C82.248 26.1346 81.9807 26.33 81.6795 26.4566C81.3784 26.5832 81.0516 26.6375 80.7257 26.615C80.3829 26.631 80.0414 26.5641 79.73 26.4199C79.4186 26.2758 79.1465 26.0587 78.9369 25.787V28.3493C78.9383 28.3817 78.9333 28.414 78.9219 28.4443C78.9105 28.4746 78.893 28.5023 78.8706 28.5257C78.8488 28.5512 78.8215 28.5713 78.7908 28.5847C78.7601 28.5981 78.7267 28.6043 78.6932 28.6029L78.1535 28.5901ZM80.4949 25.7077C80.71 25.7266 80.9264 25.6921 81.1249 25.6073C81.3235 25.5224 81.498 25.3899 81.633 25.2214C81.8924 24.8449 82.0307 24.398 82.0292 23.9407C82.0365 23.8674 82.0401 23.7608 82.0401 23.6208C82.0401 22.2295 81.5244 21.5339 80.493 21.5339C80.2748 21.5194 80.0563 21.5581 79.8564 21.6466C79.6564 21.7351 79.481 21.8708 79.345 22.042C79.0904 22.3869 78.9478 22.8019 78.9369 23.2306L78.925 23.6505L78.9369 24.0814C78.9445 24.4972 79.0926 24.8983 79.3569 25.2194C79.4957 25.3833 79.6707 25.5127 79.868 25.5975C80.0653 25.6822 80.2795 25.7199 80.4939 25.7077H80.4949ZM86.0694 26.5992C85.7219 26.6022 85.3782 26.5267 85.064 26.3783C84.7716 26.2452 84.5172 26.0409 84.3242 25.784C84.1499 25.5346 84.0571 25.2374 84.0587 24.9332C84.0554 24.702 84.1077 24.4733 84.2111 24.2665C84.3145 24.0597 84.4661 23.8807 84.653 23.7446C85.1339 23.3984 85.6976 23.1852 86.2872 23.1265L87.9324 22.8948V22.5749C87.9324 21.8241 87.5033 21.4487 86.6449 21.4487C86.3656 21.4372 86.0894 21.5104 85.8524 21.6586C85.6611 21.7765 85.5018 21.9398 85.3889 22.1341C85.3737 22.1894 85.3432 22.2391 85.3007 22.2777C85.2828 22.2937 85.2618 22.3059 85.239 22.3135C85.2161 22.3212 85.192 22.3242 85.168 22.3223H84.6926C84.6601 22.3245 84.6276 22.3197 84.5972 22.3083C84.5667 22.2969 84.5392 22.279 84.5162 22.256C84.4932 22.2331 84.4754 22.2055 84.4639 22.175C84.4525 22.1446 84.4477 22.1121 84.4499 22.0796C84.4732 21.8626 84.5573 21.6566 84.6926 21.4853C84.8865 21.2315 85.1409 21.0302 85.4325 20.8999C85.8154 20.7196 86.2356 20.6327 86.6587 20.6464C86.9802 20.615 87.3047 20.6507 87.6117 20.7515C87.9186 20.8523 88.2013 21.0159 88.4416 21.2318C88.8048 21.6201 88.9996 22.1365 88.9834 22.668V26.2466C88.9841 26.2815 88.9777 26.3163 88.9644 26.3487C88.9511 26.3811 88.9312 26.4104 88.9061 26.4347C88.8828 26.4572 88.8552 26.4747 88.8248 26.4861C88.7945 26.4975 88.7622 26.5027 88.7298 26.5011H88.2216C88.1874 26.5049 88.1527 26.5009 88.1202 26.4895C88.0877 26.4781 88.0582 26.4595 88.0337 26.4352C88.0093 26.4109 87.9908 26.3814 87.9792 26.3489C87.9677 26.3164 87.9635 26.2818 87.9671 26.2475V25.7731C87.7837 26.0262 87.5409 26.2303 87.2599 26.3674C86.8877 26.5411 86.4787 26.6217 86.0684 26.6021L86.0694 26.5992ZM86.3011 25.7711C86.5178 25.7791 86.7338 25.7419 86.9353 25.6619C87.1368 25.5819 87.3196 25.461 87.4719 25.3066C87.6351 25.1221 87.76 24.9071 87.8396 24.674C87.9191 24.4409 87.9518 24.1944 87.9354 23.9486V23.6396L86.6548 23.8278C86.2384 23.866 85.8351 23.9941 85.473 24.2032C85.355 24.2668 85.2561 24.3607 85.1865 24.4752C85.1168 24.5898 85.079 24.7208 85.0769 24.8549C85.0724 24.9909 85.1036 25.1258 85.1676 25.2459C85.2316 25.366 85.326 25.4672 85.4414 25.5394C85.699 25.6988 85.9973 25.7804 86.3002 25.7741L86.3011 25.7711ZM92.8808 26.5992C92.543 26.6183 92.2049 26.5695 91.8862 26.4557C91.5676 26.3419 91.275 26.1654 91.0257 25.9365C90.5576 25.423 90.3045 24.7494 90.3185 24.0546L90.3077 23.6129L90.3185 23.1711C90.3044 22.4808 90.5578 21.8118 91.0257 21.3041C91.2733 21.0721 91.5653 20.8928 91.8842 20.777C92.2031 20.6613 92.5421 20.6115 92.8808 20.6306C93.3464 20.6163 93.8087 20.7148 94.228 20.9178C94.5585 21.0765 94.8406 21.3206 95.0451 21.625C95.2178 21.8732 95.3204 22.1633 95.3423 22.4649C95.3467 22.4975 95.343 22.5307 95.3314 22.5615C95.3198 22.5922 95.3007 22.6196 95.2759 22.6412C95.2235 22.6858 95.1564 22.7095 95.0876 22.7076H94.5578C94.4989 22.7119 94.4402 22.6962 94.3913 22.663C94.3415 22.6135 94.3039 22.5532 94.2814 22.4867C94.1933 22.1844 94.0068 21.9202 93.7515 21.7359C93.4944 21.5731 93.1939 21.4923 92.8898 21.5041C92.6881 21.4953 92.4869 21.5292 92.2991 21.6034C92.1114 21.6777 91.9414 21.7906 91.8003 21.935C91.5057 22.298 91.3526 22.7555 91.3694 23.2226L91.3585 23.6188L91.3694 23.9942C91.3503 24.4666 91.5034 24.9298 91.8003 25.2977C91.9422 25.4403 92.1126 25.5514 92.3004 25.6238C92.4881 25.6961 92.6889 25.7281 92.8898 25.7176C93.1924 25.7291 93.4917 25.6523 93.7515 25.4967C94.0053 25.3063 94.1911 25.0392 94.2814 24.7351C94.3039 24.6686 94.3415 24.6083 94.3913 24.5588C94.414 24.5389 94.4404 24.5238 94.469 24.5142C94.4975 24.5047 94.5278 24.501 94.5578 24.5033H95.0876C95.1226 24.5026 95.1574 24.5091 95.1898 24.5224C95.2222 24.5357 95.2515 24.5555 95.2759 24.5806C95.3007 24.6021 95.3198 24.6295 95.3314 24.6603C95.343 24.6911 95.3467 24.7243 95.3423 24.7568C95.3179 25.0576 95.2155 25.3468 95.0451 25.5958C94.8406 25.9001 94.5585 26.1443 94.228 26.303C93.81 26.5118 93.3469 26.6145 92.8799 26.6021L92.8808 26.5992ZM96.92 26.4882C96.8858 26.492 96.8512 26.488 96.8187 26.4766C96.7862 26.4652 96.7565 26.4466 96.7321 26.4223C96.7077 26.398 96.6891 26.3685 96.6776 26.336C96.6661 26.3036 96.6619 26.2689 96.6655 26.2346V18.9051C96.664 18.8728 96.6692 18.8405 96.6806 18.8102C96.692 18.7799 96.7094 18.7521 96.7319 18.7288C96.7563 18.7038 96.7856 18.684 96.818 18.6708C96.8503 18.6575 96.885 18.651 96.92 18.6516H97.4717C97.5383 18.654 97.6015 18.6815 97.6487 18.7285C97.6959 18.7755 97.7236 18.8386 97.7263 18.9051V21.4804C97.926 21.2196 98.1828 21.0082 98.4771 20.8623C98.8117 20.7047 99.1791 20.629 99.5488 20.6414C99.8569 20.6242 100.165 20.6768 100.45 20.7953C100.735 20.9138 100.989 21.0952 101.194 21.3258C101.61 21.8307 101.822 22.4731 101.788 23.1265V26.2406C101.789 26.2756 101.783 26.3104 101.769 26.3427C101.756 26.3751 101.736 26.4045 101.711 26.4288C101.688 26.4513 101.66 26.4688 101.63 26.4802C101.599 26.4916 101.567 26.4967 101.535 26.4951H100.983C100.949 26.4987 100.914 26.4946 100.882 26.4832C100.85 26.4717 100.82 26.4531 100.796 26.4288C100.772 26.4045 100.753 26.3751 100.741 26.3427C100.73 26.3103 100.726 26.2758 100.729 26.2416V23.1771C100.757 22.7379 100.619 22.3042 100.343 21.9618C100.205 21.8141 100.035 21.6988 99.8466 21.6244C99.6582 21.5499 99.4558 21.518 99.2537 21.5309C99.0471 21.5218 98.841 21.5564 98.6488 21.6325C98.4566 21.7087 98.2827 21.8246 98.1384 21.9726C97.8504 22.3051 97.7038 22.737 97.7302 23.1761V26.2346C97.731 26.2696 97.7245 26.3044 97.7112 26.3368C97.6979 26.3692 97.6782 26.3985 97.6531 26.4228C97.6298 26.4453 97.602 26.4628 97.5717 26.4742C97.5414 26.4856 97.509 26.4908 97.4767 26.4892L96.92 26.4882ZM105.682 26.5992C105.347 26.615 105.012 26.5615 104.698 26.4422C104.385 26.323 104.099 26.1404 103.859 25.9058C103.387 25.3769 103.124 24.6936 103.119 23.9843L103.109 23.6089L103.119 23.2444C103.133 22.5415 103.4 21.8671 103.87 21.3447C104.378 20.8782 105.046 20.6258 105.736 20.6402C106.425 20.6546 107.082 20.9347 107.57 21.422C108.045 22.0147 108.285 22.7621 108.243 23.5207V23.7089C108.244 23.7438 108.237 23.7784 108.224 23.8106C108.211 23.8428 108.191 23.8719 108.166 23.8962C108.143 23.9186 108.115 23.9361 108.085 23.9475C108.054 23.9589 108.022 23.964 107.99 23.9625H104.168V24.0616C104.178 24.5057 104.329 24.9352 104.599 25.2878C104.727 25.4477 104.89 25.5758 105.076 25.6617C105.262 25.7477 105.465 25.7892 105.67 25.783C105.959 25.7956 106.246 25.7271 106.498 25.5849C106.687 25.4743 106.852 25.3279 106.984 25.154C107.023 25.0944 107.071 25.0421 107.128 24.9996C107.187 24.9731 107.252 24.9619 107.316 24.9669H107.858C107.918 24.9649 107.977 24.9845 108.023 25.0223C108.046 25.0412 108.063 25.065 108.075 25.0918C108.086 25.1186 108.091 25.1477 108.09 25.1768C108.059 25.4023 107.949 25.6096 107.781 25.7622C107.542 26.0179 107.252 26.2205 106.93 26.3565C106.536 26.5261 106.111 26.6098 105.682 26.6021V26.5992ZM107.194 23.1979V23.1652C107.214 22.7147 107.064 22.2733 106.774 21.9281C106.634 21.7749 106.463 21.6525 106.273 21.5689C106.083 21.4852 105.878 21.442 105.67 21.442C105.462 21.442 105.257 21.4852 105.067 21.5689C104.877 21.6525 104.706 21.7749 104.566 21.9281C104.289 22.2796 104.149 22.7186 104.169 23.1652V23.1979H107.194Z" fill="#51504F"/><path id="Path 10" d="M69.9552 26.4257L69.8949 26.4861L69.9552 26.4257ZM69.8999 26.1493L69.8205 26.1186L69.8999 26.1493ZM72.6395 19.004L72.7187 19.0347L72.6395 19.004ZM74.0974 19.004L74.0173 19.0328L74.0974 19.004ZM76.8252 26.1493L76.9084 26.1345C76.909 26.1295 76.909 26.1245 76.9084 26.1196L76.8252 26.1493ZM76.847 26.2712H76.9322V26.2563L76.847 26.2712ZM76.7806 26.4257L76.8401 26.4861L76.7806 26.4257ZM75.8754 26.4366L75.8149 26.497L75.8209 26.502L75.8754 26.4366ZM75.7872 26.3039L75.8674 26.2771L75.7872 26.3039ZM75.18 24.7359L75.2594 24.7052C75.2532 24.6892 75.2423 24.6755 75.2282 24.6657C75.214 24.656 75.1972 24.6508 75.18 24.6507V24.7359ZM71.5579 24.7359V24.6507C71.5407 24.6508 71.524 24.656 71.5099 24.6657C71.4957 24.6755 71.4849 24.6892 71.4787 24.7052L71.5579 24.7359ZM70.9507 26.3039L70.8715 26.2732L70.9507 26.3039ZM70.8516 26.4366L70.9062 26.502L70.8516 26.4366ZM74.8601 23.7861V23.8713C74.8738 23.8712 74.8873 23.8678 74.8994 23.8613C74.9115 23.8549 74.9219 23.8457 74.9296 23.8344C74.9374 23.8232 74.9423 23.8102 74.944 23.7966C74.9457 23.783 74.9442 23.7692 74.9394 23.7563L74.8601 23.7861ZM73.3694 19.8658L73.4488 19.836C73.4425 19.8201 73.4316 19.8065 73.4174 19.7969C73.4033 19.7873 73.3865 19.7821 73.3694 19.7821C73.3523 19.7821 73.3357 19.7873 73.3216 19.7969C73.3074 19.8065 73.2965 19.8201 73.2902 19.836L73.3694 19.8658ZM71.8788 23.7861L71.7996 23.7563C71.7948 23.7692 71.7932 23.783 71.7949 23.7966C71.7965 23.8102 71.8015 23.8232 71.8092 23.8344C71.817 23.8457 71.8274 23.8549 71.8395 23.8613C71.8516 23.8678 71.8651 23.8712 71.8788 23.8713V23.7861ZM70.1118 26.4069C70.0933 26.4076 70.0748 26.4043 70.0576 26.3971C70.0405 26.3899 70.0252 26.379 70.0128 26.3653L69.8919 26.4851C69.9197 26.514 69.9531 26.537 69.9901 26.5527C70.027 26.5684 70.0667 26.5763 70.1069 26.5762L70.1118 26.4069ZM70.0128 26.3653C69.9991 26.3528 69.9882 26.3374 69.981 26.3203C69.9738 26.3032 69.9704 26.2847 69.9711 26.2662H69.8018C69.8017 26.3063 69.8097 26.3461 69.8254 26.383C69.841 26.4199 69.8639 26.4534 69.8928 26.4812L70.0128 26.3653ZM69.9711 26.2662C69.969 26.233 69.9714 26.1997 69.9781 26.1672L69.8167 26.1137C69.8041 26.1622 69.7987 26.2122 69.8007 26.2623L69.9711 26.2662ZM69.976 26.1751L72.7147 19.0298L72.5563 18.9693L69.8176 26.1147L69.976 26.1751ZM72.7158 19.0278C72.7331 18.9713 72.7677 18.9218 72.8148 18.8862C72.8663 18.8537 72.9264 18.8378 72.9871 18.8406V18.6702C72.8921 18.6673 72.7984 18.6936 72.7187 18.7455C72.6416 18.8009 72.584 18.8792 72.5543 18.9693L72.7158 19.0278ZM72.9891 18.8406H73.7399V18.6702H72.9891V18.8406ZM73.7399 18.8406C73.801 18.8376 73.8616 18.8535 73.9133 18.8862C73.9604 18.9218 73.995 18.9713 74.0123 19.0278L74.1718 18.9693C74.1422 18.8791 74.0846 18.8008 74.0074 18.7455C73.9274 18.6934 73.8334 18.6671 73.738 18.6702L73.7399 18.8406ZM74.0142 19.0288L76.7421 26.1741L76.9006 26.1137L74.1728 18.9684L74.0142 19.0288ZM76.7381 26.1602L76.7598 26.282L76.9273 26.2514L76.9055 26.1295L76.7381 26.1602ZM76.7589 26.2662C76.7595 26.2847 76.7561 26.3032 76.7489 26.3203C76.7418 26.3374 76.7309 26.3527 76.7173 26.3653L76.8371 26.4851C76.866 26.4573 76.889 26.4239 76.9047 26.387C76.9203 26.3501 76.9284 26.3103 76.9282 26.2702L76.7589 26.2662ZM76.7173 26.3653C76.7047 26.3789 76.6894 26.3897 76.6723 26.3969C76.6552 26.4041 76.6368 26.4075 76.6182 26.4069V26.5762C76.6584 26.5763 76.6981 26.5684 76.735 26.5527C76.772 26.537 76.8054 26.514 76.8332 26.4851L76.7173 26.3653ZM76.6182 26.4069H76.0557V26.5762H76.6182V26.4069ZM76.0557 26.4069C76.0083 26.4109 75.961 26.3983 75.9219 26.3712L75.813 26.502C75.8824 26.555 75.9684 26.5816 76.0557 26.5772V26.4069ZM75.9279 26.3762C75.8976 26.349 75.8742 26.3151 75.8595 26.2771L75.6991 26.3306C75.7219 26.3935 75.7593 26.4502 75.808 26.496L75.9279 26.3762ZM75.8586 26.2771L75.2514 24.7082L75.0929 24.7696L75.7001 26.3375L75.8586 26.2771ZM75.1722 24.6547H71.55V24.8241H75.1722V24.6547ZM71.4707 24.7092L70.8625 26.2781L71.021 26.3395L71.6282 24.7716L71.4707 24.7092ZM70.8616 26.2811C70.8462 26.3202 70.8206 26.3544 70.7873 26.3801L70.8972 26.5089C70.9535 26.4644 70.9966 26.4055 71.022 26.3385L70.8616 26.2811ZM70.7883 26.3801C70.753 26.4063 70.7093 26.419 70.6655 26.4158V26.5852C70.7489 26.5883 70.8308 26.5617 70.8963 26.5099L70.7883 26.3801ZM70.6655 26.4158H70.1019V26.5852H70.6655V26.4158ZM74.9305 23.7643L73.4398 19.8439L73.2813 19.9044L74.772 23.8247L74.9305 23.7643ZM73.2803 19.8439L71.7897 23.7643L71.9482 23.8247L73.4388 19.9044L73.2803 19.8439ZM71.8688 23.8801H74.8502V23.7108H71.8688V23.8801ZM77.9534 28.5225L77.8939 28.5829L77.9534 28.5225ZM77.9534 20.8354L78.0139 20.8958L77.9534 20.8354ZM78.826 20.8354L78.7616 20.8909L78.7715 20.8998L78.826 20.8354ZM78.9033 21.4981H78.818C78.8181 21.5159 78.8239 21.5334 78.8344 21.5478C78.8449 21.5623 78.8597 21.5731 78.8767 21.5787C78.8937 21.5842 78.912 21.5844 78.929 21.579C78.9461 21.5736 78.9609 21.5629 78.9716 21.5486L78.9033 21.4981ZM82.4482 21.3762L82.3818 21.4287L82.4482 21.3762ZM83.0781 23.2581H82.993H83.0781ZM83.0781 24.0089L82.994 24.002L83.0781 24.0089ZM82.4482 25.8908L82.5146 25.9443L82.4482 25.8908ZM78.925 25.7918L78.9924 25.7403C78.9815 25.7262 78.9667 25.716 78.9497 25.7109C78.9328 25.7058 78.9146 25.7061 78.8978 25.7117C78.8811 25.7174 78.8664 25.7281 78.856 25.7425C78.8456 25.7568 78.8401 25.774 78.8399 25.7918H78.925ZM78.8587 28.5304L78.7983 28.471L78.8587 28.5304ZM81.6191 25.2391L81.5508 25.1885L81.6191 25.2391ZM82.0153 23.9584L81.9312 23.9504V23.9554L82.0153 23.9584ZM79.3321 22.0587L79.2648 22.0072L79.3321 22.0587ZM78.9231 23.2472H78.8379H78.9231ZM78.9122 23.6662H78.828H78.9122ZM78.9231 24.0971H78.8379H78.9231ZM79.343 25.2352L79.4084 25.1817L79.343 25.2352ZM78.1387 28.5185C78.1149 28.5191 78.0913 28.5148 78.0693 28.5058C78.0473 28.4967 78.0273 28.4832 78.0109 28.4661L77.891 28.5859C77.9235 28.6184 77.9621 28.6438 78.0047 28.6608C78.0473 28.6779 78.0928 28.6861 78.1387 28.685V28.5185ZM78.0109 28.4661C77.9963 28.4505 77.985 28.4321 77.9779 28.412C77.9707 28.3919 77.9678 28.3705 77.9693 28.3492H77.7989C77.7973 28.3928 77.8045 28.4362 77.8202 28.4769C77.8359 28.5176 77.8596 28.5547 77.8901 28.5859L78.0109 28.4661ZM77.9693 28.3492V21.0196H77.7989V28.3492H77.9693ZM77.9693 21.0196C77.9678 20.9983 77.9707 20.977 77.9779 20.9569C77.985 20.9368 77.9963 20.9184 78.0109 20.9028L77.891 20.7829C77.8606 20.8141 77.8367 20.8512 77.821 20.8919C77.8054 20.9326 77.7982 20.9761 77.7999 21.0196H77.9693ZM78.0109 20.9028C78.0273 20.8856 78.0473 20.8721 78.0693 20.8631C78.0913 20.854 78.1149 20.8497 78.1387 20.8503V20.6799C78.0928 20.6788 78.0473 20.687 78.0047 20.7041C77.9621 20.7211 77.9235 20.7466 77.891 20.779L78.0109 20.9028ZM78.1387 20.8503H78.6467V20.6799H78.1387V20.8503ZM78.6467 20.8503C78.6678 20.849 78.6889 20.8526 78.7084 20.8608C78.7278 20.8691 78.745 20.8817 78.7587 20.8978L78.8874 20.7879C78.8577 20.7531 78.8206 20.7255 78.7787 20.707C78.7369 20.6885 78.6915 20.6796 78.6457 20.6809L78.6467 20.8503ZM78.7686 20.9077C78.7847 20.9214 78.7973 20.9387 78.8056 20.9581C78.8138 20.9775 78.8174 20.9986 78.8161 21.0196H78.9855C78.9867 20.9741 78.9778 20.9288 78.9593 20.8872C78.9408 20.8455 78.9131 20.8086 78.8785 20.779L78.7686 20.9077ZM78.8161 21.0196V21.505H78.9855V21.0196H78.8161ZM78.9697 21.5555C79.169 21.2851 79.4329 21.0688 79.7372 20.9264C80.0415 20.784 80.3766 20.7201 80.7119 20.7403V20.5709C80.3493 20.55 79.9871 20.62 79.6585 20.7747C79.3298 20.9293 79.045 21.1637 78.83 21.4565L78.9697 21.5555ZM80.7119 20.7403C81.0248 20.7161 81.3389 20.7663 81.6287 20.8868C81.9184 21.0073 82.1755 21.1948 82.3789 21.4337L82.5126 21.3287C82.2936 21.069 82.0163 20.8647 81.7034 20.7325C81.3905 20.6004 81.0508 20.544 80.7119 20.568V20.7403ZM82.3789 21.4337C82.777 21.9596 82.9916 22.6015 82.99 23.2611L83.1594 23.2542C83.1597 22.5582 82.9321 21.8812 82.5115 21.3267L82.3789 21.4337ZM82.99 23.266C82.9969 23.3433 83.0009 23.4642 83.0009 23.6345H83.1703C83.1703 23.4651 83.1703 23.3373 83.1584 23.2512L82.99 23.266ZM83.0009 23.6345C83.0009 23.8039 83.0009 23.9257 82.99 24.003L83.1584 24.0179C83.1663 23.9327 83.1703 23.8039 83.1703 23.6345H83.0009ZM82.99 24.0069C82.9893 24.6664 82.7749 25.308 82.3789 25.8353L82.5115 25.9404C82.9298 25.385 83.1572 24.7091 83.1594 24.0139L82.99 24.0069ZM82.3789 25.8344C82.1746 26.0722 81.9173 26.2588 81.6278 26.3792C81.3383 26.4996 81.0247 26.5505 80.7119 26.5277V26.6971C81.0504 26.7191 81.3894 26.6618 81.7018 26.5297C82.0143 26.3977 82.2915 26.1945 82.5115 25.9364L82.3789 25.8344ZM80.7119 26.5277C80.3822 26.5442 80.0534 26.4808 79.7535 26.3428C79.4536 26.2048 79.1915 25.9964 78.9895 25.7353L78.8548 25.8344C79.0722 26.1165 79.3544 26.3421 79.6775 26.4921C80.0006 26.6421 80.355 26.7121 80.7109 26.6961L80.7119 26.5277ZM78.8379 25.7849V28.3472H79.0082V25.7849H78.8379ZM78.8379 28.3472C78.8394 28.3685 78.8364 28.3899 78.8293 28.41C78.8221 28.4301 78.8109 28.4485 78.7963 28.4641L78.9161 28.584C78.9465 28.5527 78.9703 28.5156 78.986 28.475C79.0016 28.4343 79.0089 28.3908 79.0073 28.3472H78.8379ZM78.7923 28.469C78.7785 28.4852 78.7611 28.4979 78.7415 28.5061C78.7219 28.5144 78.7007 28.518 78.6795 28.5166V28.687C78.7252 28.6884 78.7706 28.6795 78.8125 28.661C78.8543 28.6425 78.8914 28.6148 78.9211 28.58L78.7923 28.469ZM78.6795 28.5166H78.1387V28.687H78.6795V28.5166ZM80.4791 25.8037C80.7075 25.8227 80.9372 25.7851 81.1476 25.6942C81.358 25.6033 81.5427 25.462 81.6855 25.2827L81.5489 25.1837C81.4216 25.341 81.2575 25.4644 81.071 25.5431C80.8846 25.6217 80.6816 25.653 80.4802 25.6343L80.4791 25.8037ZM81.6845 25.2836C81.9548 24.8934 82.0996 24.4301 82.0996 23.9554L81.9302 23.9485C81.9319 24.3891 81.7988 24.8197 81.5489 25.1826L81.6845 25.2836ZM82.0985 23.9604C82.1064 23.8821 82.1105 23.7722 82.1105 23.6316H81.9401C81.9401 23.7702 81.94 23.8742 81.9291 23.9436L82.0985 23.9604ZM82.1105 23.6316C82.1499 23.0637 82.0087 22.4979 81.7073 22.0151C81.5639 21.8287 81.3769 21.6805 81.1627 21.5834C80.9485 21.4864 80.7137 21.4434 80.4791 21.4584V21.6278C80.6868 21.6132 80.8949 21.65 81.0849 21.735C81.275 21.82 81.4412 21.9506 81.5687 22.1151C81.8481 22.5689 81.9776 23.099 81.939 23.6305L82.1105 23.6316ZM80.4791 21.4594C80.2477 21.445 80.0163 21.4867 79.8045 21.5811C79.5927 21.6754 79.4069 21.8196 79.2629 22.0012L79.3976 22.1003C79.5258 21.9396 79.6911 21.8125 79.8794 21.7299C80.0676 21.6472 80.273 21.6115 80.4781 21.6258L80.4791 21.4594ZM79.2629 22.0012C78.9969 22.3611 78.8482 22.794 78.8369 23.2413L79.0073 23.2492C79.0181 22.8356 79.1565 22.4353 79.4035 22.1032L79.2629 22.0012ZM78.8369 23.2433L78.826 23.6632H78.9954L79.0063 23.2433H78.8369ZM78.826 23.6672L78.8369 24.0981H79.0073L78.9964 23.6672H78.826ZM78.8369 24.099C78.8454 24.5333 78.9999 24.952 79.2757 25.2876L79.4075 25.1797C79.1561 24.8717 79.0164 24.4877 79.0113 24.0902L78.8369 24.099ZM79.2757 25.2876C79.4225 25.4608 79.6075 25.5976 79.8161 25.6874C80.0248 25.7771 80.2514 25.8172 80.4781 25.8046V25.6353C80.2764 25.6479 80.0746 25.6134 79.8886 25.5345C79.7025 25.4556 79.5375 25.3344 79.4064 25.1806L79.2757 25.2876ZM85.0482 26.394L85.0848 26.3177L85.0482 26.394ZM84.3084 25.7997L84.239 25.8482L84.3084 25.7997ZM84.6401 23.7563L84.6916 23.8237L84.6401 23.7563ZM86.2744 23.1383L86.2863 23.2225L86.2744 23.1383ZM87.9196 22.9065L87.9315 22.9907C87.9518 22.9878 87.9704 22.9777 87.9838 22.9623C87.9973 22.9468 88.0047 22.927 88.0048 22.9065H87.9196ZM85.8326 21.6694L85.8782 21.7407L85.8326 21.6694ZM85.3691 22.1448L85.2948 22.1032C85.2924 22.108 85.2904 22.113 85.2889 22.1181L85.3691 22.1448ZM85.2809 22.2884L85.2275 22.2221L85.2206 22.2281L85.2809 22.2884ZM84.4965 22.2667L84.4322 22.3221L84.441 22.3311L84.4965 22.2667ZM84.4301 22.0903H84.345H84.4301ZM84.6728 21.4961L84.6035 21.4475L84.6728 21.4961ZM85.4127 20.9107L85.4503 20.987L85.4127 20.9107ZM88.4168 21.2415L88.3544 21.299L88.4168 21.2415ZM88.8804 26.4435L88.9397 26.5039L88.8804 26.4435ZM88.0078 26.4435L87.9433 26.499C87.9459 26.5024 87.9489 26.5054 87.9523 26.5079L88.0078 26.4435ZM87.9414 25.7809H88.0265C88.0261 25.763 88.0201 25.7457 88.0094 25.7314C87.9986 25.7172 87.9835 25.7066 87.9664 25.7014C87.9493 25.6961 87.931 25.6964 87.9141 25.7021C87.8971 25.7078 87.8824 25.7188 87.872 25.7334L87.9414 25.7809ZM87.2342 26.3752L87.1946 26.2999L87.2342 26.3752ZM87.4551 25.3263L87.3937 25.2668L87.4551 25.3263ZM87.9187 23.6583H88.0038C88.0038 23.6459 88.0011 23.6337 87.9959 23.6224C87.9908 23.6112 87.9832 23.6012 87.9738 23.5932C87.9644 23.5852 87.9533 23.5794 87.9414 23.5761C87.9295 23.5728 87.917 23.5721 87.9048 23.5741L87.9187 23.6583ZM86.6379 23.8455L86.6499 23.9297L86.6379 23.8455ZM85.4563 24.2209L85.5018 24.2922L85.4563 24.2209ZM85.4236 25.557L85.3771 25.6274L85.4236 25.557ZM86.0526 26.5327C85.7178 26.5357 85.3866 26.4628 85.0839 26.3197L85.0106 26.4733C85.3359 26.6269 85.6918 26.7051 86.0516 26.702L86.0526 26.5327ZM85.0839 26.3197C84.8038 26.1917 84.5604 25.9956 84.3757 25.7492L84.239 25.8482C84.4399 26.1172 84.7053 26.3315 85.0106 26.4713L85.0839 26.3197ZM84.3776 25.7522C84.2131 25.5171 84.1256 25.2368 84.1271 24.9499H83.9568C83.9552 25.2711 84.0531 25.5849 84.237 25.8482L84.3776 25.7522ZM84.1271 24.9499C84.1235 24.7308 84.1729 24.5141 84.271 24.3183C84.3691 24.1224 84.5131 23.953 84.6907 23.8247L84.5867 23.691C84.3886 23.8352 84.228 24.0249 84.1185 24.2442C84.0091 24.4635 83.9539 24.7058 83.9577 24.9508L84.1271 24.9499ZM84.6907 23.8237C85.1598 23.4866 85.7095 23.2792 86.2844 23.2225L86.2605 23.0541C85.656 23.1148 85.0781 23.3341 84.5856 23.69L84.6907 23.8237ZM86.2844 23.2225L87.9296 22.9907L87.9057 22.8223L86.2596 23.0541L86.2844 23.2225ZM88.0028 22.9065V22.5866H87.8334V22.9065H88.0028ZM88.0028 22.5866C88.0146 22.4187 87.9891 22.2502 87.9283 22.0932C87.8676 21.9362 87.773 21.7946 87.6512 21.6783C87.3574 21.4566 86.9932 21.3489 86.626 21.3752V21.5456C86.9519 21.5196 87.2762 21.6121 87.5393 21.8061C87.6434 21.9061 87.7241 22.028 87.7755 22.163C87.8269 22.298 87.8477 22.4426 87.8365 22.5866H88.0028ZM86.626 21.3752C86.3288 21.3633 86.035 21.4417 85.7832 21.6001L85.8822 21.7407C86.1057 21.6005 86.3665 21.5315 86.63 21.5426L86.626 21.3752ZM85.7851 21.5991C85.5806 21.7236 85.4103 21.8973 85.2899 22.1042L85.4385 22.1874C85.5447 22.0054 85.6944 21.8526 85.8742 21.7427L85.7851 21.5991ZM85.2899 22.1181C85.2793 22.1577 85.2581 22.1937 85.2285 22.2221L85.3345 22.3548C85.3898 22.306 85.4299 22.2425 85.4503 22.1716L85.2899 22.1181ZM85.2225 22.229C85.2018 22.2445 85.1759 22.2512 85.1502 22.2478V22.4172C85.1853 22.419 85.2203 22.4138 85.2533 22.4019C85.2863 22.39 85.3166 22.3716 85.3424 22.3479L85.2225 22.229ZM85.1502 22.2478H84.6748V22.4172H85.1502V22.2478ZM84.6748 22.2478C84.6303 22.2483 84.5871 22.2321 84.5539 22.2023L84.4431 22.3311C84.5072 22.3871 84.5896 22.4178 84.6748 22.4172V22.2478ZM84.5629 22.2112C84.5325 22.1779 84.5159 22.1344 84.5163 22.0894H84.3469C84.3464 22.1746 84.3771 22.257 84.4331 22.3212L84.5629 22.2112ZM84.5163 22.0933C84.5394 21.8918 84.6183 21.7008 84.7441 21.5417L84.6054 21.4426C84.4602 21.6277 84.3705 21.8503 84.3469 22.0844L84.5163 22.0933ZM84.7441 21.5426C84.9297 21.3001 85.1732 21.108 85.4523 20.984L85.378 20.8314C85.0734 20.9678 84.8078 21.1783 84.6054 21.4436L84.7441 21.5426ZM85.4534 20.984C85.8245 20.8093 86.2319 20.7255 86.6419 20.7394V20.57C86.2053 20.5563 85.7718 20.6466 85.3771 20.8334L85.4534 20.984ZM86.6419 20.7394C86.9508 20.7087 87.2629 20.7424 87.5581 20.8384C87.8534 20.9344 88.1256 21.0905 88.3575 21.297L88.4822 21.1821C88.2345 20.9582 87.9431 20.7883 87.6263 20.6829C87.3095 20.5775 86.9743 20.5391 86.6419 20.57V20.7394ZM88.3584 21.298C88.7066 21.6706 88.8929 22.166 88.8764 22.6757H89.0458C89.0619 22.1229 88.8591 21.586 88.4813 21.1821L88.3584 21.298ZM88.8764 22.6757V26.2544H89.0458V22.6757H88.8764ZM88.8764 26.2544C88.877 26.2781 88.8727 26.3017 88.8637 26.3238C88.8547 26.3458 88.8411 26.3656 88.8239 26.3821L88.9437 26.502C88.976 26.4695 89.0016 26.4308 89.0186 26.3883C89.0356 26.3457 89.0437 26.3002 89.0428 26.2544H88.8764ZM88.8239 26.3821C88.8083 26.3967 88.7899 26.4079 88.7697 26.415C88.7496 26.4222 88.7283 26.4251 88.707 26.4237V26.5931C88.7506 26.5947 88.794 26.5874 88.8347 26.5717C88.8754 26.5561 88.9125 26.5324 88.9437 26.502L88.8239 26.3821ZM88.707 26.4237H88.1989V26.5931H88.707V26.4237ZM88.1989 26.4237C88.1506 26.4252 88.1034 26.409 88.0662 26.3782L87.9563 26.5069C88.0238 26.5647 88.1101 26.5956 88.1989 26.594V26.4237ZM88.0761 26.3871C88.0444 26.3503 88.0277 26.3029 88.0295 26.2544H87.8602C87.8582 26.3431 87.8889 26.4294 87.9464 26.497L88.0761 26.3871ZM88.0295 26.2544V25.7799H87.8602V26.2544H88.0295ZM87.875 25.7314C87.6995 25.9737 87.4672 26.1693 87.1985 26.3009L87.2768 26.4514C87.5701 26.3074 87.8235 26.0935 88.0147 25.8285L87.875 25.7314ZM87.1985 26.3009C86.8422 26.4695 86.4505 26.5496 86.0566 26.5346V26.704C86.4781 26.7194 86.8969 26.6327 87.2777 26.4514L87.1985 26.3009ZM86.2882 25.876C86.5163 25.884 86.7436 25.8447 86.9556 25.7605C87.1677 25.6763 87.36 25.549 87.5204 25.3867L87.3986 25.2678C87.2542 25.4139 87.0808 25.5283 86.8896 25.6037C86.6985 25.6791 86.4936 25.7138 86.2882 25.7056V25.876ZM87.5204 25.3867C87.6911 25.1942 87.8221 24.9699 87.9057 24.7267C87.9894 24.4834 88.024 24.226 88.0078 23.9693H87.8384C87.8545 24.2042 87.824 24.44 87.7486 24.663C87.6731 24.8861 87.5541 25.092 87.3986 25.2688L87.5204 25.3867ZM88.0078 23.9693V23.6603H87.8384V23.9693H88.0078ZM87.9088 23.5731L86.628 23.7603L86.6528 23.9287L87.9334 23.7415L87.9088 23.5731ZM86.628 23.7603C86.1991 23.8004 85.7842 23.9332 85.4118 24.1496L85.5058 24.2912C85.8576 24.0894 86.2488 23.966 86.6528 23.9297L86.628 23.7603ZM85.4127 24.1486C85.2823 24.2195 85.1732 24.3239 85.0964 24.4509C85.0197 24.578 84.978 24.7232 84.9759 24.8716H85.1463C85.1485 24.7516 85.183 24.6344 85.2461 24.5323C85.3092 24.4302 85.3986 24.347 85.5049 24.2912L85.4127 24.1486ZM84.9759 24.8716C84.9713 25.0216 85.0061 25.1701 85.0766 25.3024C85.1471 25.4348 85.251 25.5465 85.378 25.6264L85.4721 25.4857C85.3683 25.4213 85.2834 25.3305 85.2261 25.2226C85.1687 25.1148 85.1408 24.9937 85.1453 24.8716H84.9759ZM85.38 25.6284C85.6525 25.7957 85.9676 25.8807 86.2873 25.873V25.7036C86.0001 25.711 85.7169 25.635 85.4721 25.4847L85.38 25.6284ZM91.0119 25.9542L90.9514 26.0136L91.0119 25.9542ZM90.3047 24.0723H90.2205H90.3047ZM90.2938 23.6305H90.2096H90.2938ZM90.3047 23.1888H90.2205H90.3047ZM91.0119 21.3217L91.0723 21.3822L91.0119 21.3217ZM94.2151 20.9355L94.1754 21.0108L94.2151 20.9355ZM95.0322 21.6416L94.9599 21.6872L95.0322 21.6416ZM95.3294 22.4816H95.2443H95.3294ZM95.263 22.6579L95.3185 22.7223L95.263 22.6579ZM94.3795 22.6797L94.433 22.6133L94.3795 22.6797ZM94.2685 22.5034L94.1884 22.5321L94.2685 22.5034ZM93.7387 21.7526L93.6911 21.823L93.7387 21.7526ZM91.7835 21.9507L91.7221 21.8923L91.7835 21.9507ZM91.3526 23.2383H91.2675H91.3526ZM91.3417 23.6345H91.2566H91.3417ZM91.3526 24.0099H91.2675H91.3526ZM91.7835 25.3134L91.7221 25.3718L91.7835 25.3134ZM93.7387 25.5115L93.7843 25.5828L93.7387 25.5115ZM94.2685 24.7498L94.1903 24.7171L94.2685 24.7498ZM94.3795 24.5735L94.433 24.6399L94.44 24.6339L94.3795 24.5735ZM95.263 24.5953L95.2025 24.6547L95.263 24.5953ZM95.3294 24.7716L95.2452 24.7626L95.3294 24.7716ZM95.0322 25.6105L94.961 25.5649L95.0322 25.6105ZM94.2151 26.3177L94.1754 26.2424L94.2151 26.3177ZM92.868 26.5158C92.5411 26.5351 92.2136 26.4886 91.905 26.379C91.5964 26.2694 91.3129 26.0991 91.0714 25.878L90.9525 25.9988C91.2095 26.2355 91.5114 26.4182 91.8402 26.5363C92.1691 26.6544 92.5182 26.7053 92.8671 26.6862L92.868 26.5158ZM91.0723 25.8789C90.6202 25.3814 90.376 24.7296 90.3899 24.0575L90.2205 24.0634C90.2082 24.7776 90.4697 25.4694 90.9514 25.9968L91.0723 25.8789ZM90.3899 24.0584L90.3789 23.6167H90.2096L90.2205 24.0584H90.3899ZM90.3789 23.6207L90.3899 23.1789H90.2205L90.2096 23.6207H90.3789ZM90.3899 23.1799C90.3748 22.5111 90.6194 21.8625 91.0723 21.3703L90.9514 21.2505C90.4683 21.7731 90.2064 22.4624 90.2205 23.1739L90.3899 23.1799ZM91.0723 21.3703C91.3121 21.1462 91.5949 20.9731 91.9036 20.8616C92.2122 20.7501 92.5404 20.7025 92.868 20.7215V20.5521C92.5181 20.533 92.168 20.585 91.8388 20.705C91.5095 20.8251 91.208 21.0106 90.9525 21.2505L91.0723 21.3703ZM92.868 20.7215C93.3198 20.7074 93.7683 20.8026 94.1754 20.9988L94.2538 20.8483C93.8223 20.6388 93.3465 20.5369 92.8671 20.5512L92.868 20.7215ZM94.1754 20.9988C94.4926 21.1504 94.7634 21.3839 94.9599 21.6753L95.1035 21.5852C94.8911 21.2681 94.5978 21.0137 94.2538 20.8483L94.1754 20.9988ZM94.961 21.6773C95.1247 21.9114 95.2228 22.1849 95.2452 22.4697L95.4146 22.4608C95.3914 22.1443 95.2836 21.8399 95.1026 21.5793L94.961 21.6773ZM95.2452 22.4786C95.248 22.4969 95.2461 22.5155 95.2397 22.5329C95.2333 22.5502 95.2226 22.5656 95.2086 22.5777L95.3195 22.7064C95.3557 22.6766 95.3838 22.638 95.4011 22.5943C95.4184 22.5507 95.4244 22.5034 95.4185 22.4568L95.2452 22.4786ZM95.2086 22.5777C95.1714 22.6085 95.1241 22.6248 95.0758 22.6232V22.7926C95.165 22.7943 95.2516 22.7633 95.3195 22.7055L95.2086 22.5777ZM95.0758 22.6232H94.5459V22.7926H95.0758V22.6232ZM94.5459 22.6232C94.5065 22.6272 94.4668 22.6181 94.433 22.5975L94.327 22.7302C94.3906 22.7757 94.4678 22.7981 94.5459 22.7936V22.6232ZM94.433 22.5975C94.3945 22.5567 94.3655 22.508 94.3478 22.4549L94.1913 22.5202C94.219 22.6001 94.2657 22.6721 94.327 22.7302L94.433 22.5975ZM94.3498 22.4588C94.2549 22.1393 94.0563 21.8605 93.7853 21.6664L93.6931 21.809C93.9324 21.9834 94.1067 22.2327 94.1884 22.5173L94.3498 22.4588ZM93.7872 21.6664C93.5161 21.494 93.199 21.4079 92.878 21.4198V21.5892C93.165 21.5775 93.4489 21.6532 93.6922 21.8061L93.7872 21.6664ZM92.878 21.4198C92.6641 21.4105 92.4507 21.4464 92.2517 21.5253C92.0526 21.6041 91.8725 21.7241 91.723 21.8774L91.8459 21.9943C91.9796 21.8578 92.1406 21.7511 92.3185 21.6815C92.4964 21.6118 92.6871 21.5807 92.878 21.5901V21.4198ZM91.723 21.8774C91.4134 22.2565 91.2521 22.7353 91.2694 23.2245L91.4388 23.2304C91.4204 22.7824 91.5651 22.3429 91.8459 21.9933L91.723 21.8774ZM91.2694 23.2254L91.2585 23.6216H91.4279L91.4388 23.2254H91.2694ZM91.2585 23.6276L91.2694 24.003L91.4388 23.998L91.4279 23.6226L91.2585 23.6276ZM91.2694 24.004C91.2509 24.4966 91.4121 24.9793 91.723 25.3619L91.8459 25.245C91.5639 24.8918 91.4193 24.4486 91.4388 23.9971L91.2694 24.004ZM91.723 25.3619C91.8734 25.5134 92.0539 25.6314 92.2529 25.7083C92.4519 25.7853 92.6649 25.8195 92.878 25.8086V25.6383C92.6877 25.6488 92.4974 25.619 92.3195 25.5507C92.1416 25.4824 91.9802 25.3772 91.8459 25.2421L91.723 25.3619ZM92.878 25.8086C93.1968 25.82 93.512 25.7384 93.7853 25.5739L93.6931 25.4313C93.4472 25.5778 93.164 25.6497 92.878 25.6383V25.8086ZM93.7872 25.5729C94.0563 25.3722 94.2536 25.0902 94.3498 24.7686L94.1893 24.7122C94.1056 24.999 93.932 25.2514 93.6941 25.4322L93.7872 25.5729ZM94.3478 24.7736C94.3656 24.7204 94.3946 24.6717 94.433 24.6309L94.327 24.4982C94.2655 24.5566 94.2189 24.629 94.1913 24.7092L94.3478 24.7736ZM94.44 24.624C94.4547 24.6121 94.4716 24.6032 94.4898 24.598C94.508 24.5927 94.5271 24.5911 94.5459 24.5933V24.4239C94.5048 24.4215 94.4637 24.4273 94.4249 24.4411C94.3861 24.4549 94.3504 24.4763 94.32 24.5041L94.44 24.624ZM94.5459 24.5933H95.0758V24.4239H94.5459V24.5933ZM95.0758 24.5933C95.0996 24.5927 95.1232 24.597 95.1452 24.6061C95.1672 24.6151 95.1871 24.6287 95.2036 24.6458L95.3235 24.526C95.291 24.4937 95.2522 24.4682 95.2097 24.4512C95.1671 24.4342 95.1216 24.4259 95.0758 24.4269V24.5933ZM95.2086 24.6498C95.2226 24.6618 95.2333 24.6772 95.2397 24.6945C95.2461 24.7118 95.248 24.7305 95.2452 24.7488L95.4135 24.7657C95.4194 24.7191 95.4134 24.6717 95.3961 24.6281C95.3788 24.5844 95.3507 24.5459 95.3145 24.5161L95.2086 24.6498ZM95.2452 24.7577C95.2214 25.0441 95.1229 25.3194 94.9599 25.556L95.1026 25.6472C95.2813 25.3858 95.3889 25.0823 95.4146 24.7666L95.2452 24.7577ZM94.9599 25.556C94.7634 25.8475 94.4926 26.081 94.1754 26.2325L94.2538 26.3831C94.5977 26.2176 94.891 25.9632 95.1035 25.6462L94.9599 25.556ZM94.1745 26.2336C93.7678 26.4312 93.319 26.5264 92.8671 26.5109V26.6803C93.3467 26.6962 93.8228 26.5942 94.2538 26.3831L94.1745 26.2336ZM96.718 26.4187L96.6537 26.4742L96.6636 26.4831L96.718 26.4187ZM96.718 18.7208L96.7785 18.7802L96.718 18.7208ZM97.6352 18.7208L97.5709 18.7762L97.5797 18.7851L97.6352 18.7208ZM97.7125 21.4703H97.6283C97.6285 21.4879 97.634 21.5049 97.6443 21.5192C97.6545 21.5334 97.669 21.5441 97.6856 21.5499C97.7022 21.5556 97.7201 21.5561 97.737 21.5513C97.7539 21.5464 97.7688 21.5365 97.7798 21.5228L97.7125 21.4703ZM98.4633 20.8522L98.5009 20.9285L98.4633 20.8522ZM101.18 21.3158L101.116 21.3713L101.18 21.3158ZM101.699 26.4178L101.639 26.3583L101.699 26.4178ZM100.783 26.4178L100.719 26.4733L100.727 26.4821L100.783 26.4178ZM100.33 21.9606L100.266 22.0161L100.33 21.9606ZM98.1215 21.9715L98.0601 21.9131L98.1215 21.9715ZM97.6362 26.4218L97.5758 26.3623L97.6362 26.4218ZM96.9072 26.4029C96.8589 26.4044 96.8117 26.3882 96.7745 26.3574L96.6636 26.4861C96.7311 26.5439 96.8174 26.5748 96.9063 26.5732L96.9072 26.4029ZM96.7844 26.3663C96.7535 26.3291 96.7373 26.2819 96.7388 26.2336H96.5684C96.5666 26.3223 96.5973 26.4086 96.6546 26.4762L96.7844 26.3663ZM96.7388 26.2336V18.904H96.5684V26.2336H96.7388ZM96.7388 18.904C96.7373 18.8827 96.7402 18.8613 96.7474 18.8412C96.7545 18.8211 96.7658 18.8027 96.7804 18.7871L96.6606 18.6672C96.6302 18.6985 96.6065 18.7356 96.5908 18.7763C96.5751 18.817 96.5678 18.8604 96.5694 18.904H96.7388ZM96.7804 18.7871C96.7968 18.7699 96.8168 18.7564 96.8388 18.7474C96.8608 18.7383 96.8844 18.7339 96.9082 18.7346V18.5653C96.8624 18.5642 96.8168 18.5724 96.7742 18.5894C96.7317 18.6065 96.693 18.6319 96.6606 18.6643L96.7804 18.7871ZM96.9082 18.7346H97.4599V18.5653H96.9082V18.7346ZM97.4599 18.7346C97.481 18.7333 97.502 18.7369 97.5214 18.7452C97.5409 18.7534 97.5582 18.7661 97.5719 18.7822L97.7006 18.6712C97.6709 18.6364 97.6338 18.6087 97.5919 18.5902C97.5501 18.5717 97.5047 18.5628 97.4589 18.5642L97.4599 18.7346ZM97.5807 18.7911C97.5968 18.8047 97.6095 18.822 97.6178 18.8414C97.6261 18.8608 97.6296 18.882 97.6283 18.903H97.7987C97.7999 18.8575 97.7908 18.8122 97.7723 18.7706C97.7538 18.7289 97.7263 18.6919 97.6917 18.6623L97.5807 18.7911ZM97.6283 18.903V21.4782H97.7987V18.903H97.6283ZM97.7798 21.5288C97.9714 21.278 98.2181 21.0746 98.5009 20.9345L98.4266 20.7819C98.1205 20.9335 97.8535 21.1534 97.6461 21.4247L97.7798 21.5288ZM98.5029 20.9345C98.8256 20.783 99.1796 20.7103 99.5359 20.7225V20.5531C99.1528 20.5405 98.7722 20.6193 98.4256 20.7829L98.5029 20.9345ZM99.5359 20.7225C99.8324 20.7046 100.129 20.7543 100.404 20.8677C100.678 20.9811 100.923 21.1553 101.121 21.3772L101.25 21.2663C101.037 21.0261 100.772 20.8372 100.476 20.7136C100.18 20.5899 99.8594 20.5347 99.5389 20.5521L99.5359 20.7225ZM101.121 21.3792C101.524 21.8681 101.729 22.4905 101.696 23.1234H101.866C101.899 22.4492 101.678 21.787 101.247 21.2673L101.121 21.3792ZM101.696 23.1234V26.2375H101.866V23.1234H101.696ZM101.696 26.2375C101.697 26.2613 101.692 26.2849 101.683 26.3069C101.674 26.3289 101.661 26.3488 101.644 26.3653L101.764 26.4851C101.796 26.4526 101.821 26.4139 101.838 26.3714C101.855 26.3289 101.863 26.2833 101.863 26.2375H101.696ZM101.644 26.3653C101.628 26.3799 101.61 26.3911 101.59 26.3983C101.57 26.4055 101.548 26.4084 101.527 26.4069V26.5762C101.57 26.5777 101.614 26.5705 101.654 26.5548C101.695 26.5392 101.732 26.5154 101.764 26.4851L101.644 26.3653ZM101.527 26.4069H100.975V26.5762H101.527V26.4069ZM100.975 26.4069C100.927 26.4084 100.88 26.3922 100.842 26.3613L100.731 26.4901C100.799 26.5478 100.885 26.5788 100.974 26.5772L100.975 26.4069ZM100.852 26.3702C100.821 26.333 100.805 26.2858 100.807 26.2375H100.636C100.635 26.3262 100.665 26.4124 100.722 26.4801L100.852 26.3702ZM100.807 26.2375V23.1759H100.636V26.2345L100.807 26.2375ZM100.807 23.1789C100.835 22.7188 100.689 22.265 100.399 21.9071L100.272 22.02C100.534 22.3468 100.664 22.7599 100.636 23.1779L100.807 23.1789ZM100.4 21.9081C100.253 21.7507 100.072 21.6278 99.8723 21.5483C99.672 21.4688 99.4567 21.4348 99.2417 21.4486V21.6179C99.4323 21.6043 99.6236 21.6334 99.8016 21.7029C99.9796 21.7725 100.14 21.8808 100.271 22.02L100.4 21.9081ZM99.2417 21.4486C99.0237 21.4395 98.8062 21.4765 98.6034 21.5572C98.4007 21.6379 98.2172 21.7605 98.065 21.917L98.1879 22.0339C98.3244 21.8944 98.4889 21.7854 98.6705 21.7139C98.8522 21.6424 99.0467 21.61 99.2417 21.6189V21.4486ZM98.065 21.917C97.7611 22.2651 97.6061 22.7186 97.6333 23.1799H97.8036C97.7768 22.7625 97.9151 22.3512 98.1889 22.0349L98.065 21.917ZM97.6333 23.1799V26.2385H97.8036V23.1759L97.6333 23.1799ZM97.6333 26.2385C97.6339 26.2623 97.6295 26.2859 97.6205 26.3079C97.6114 26.3299 97.5979 26.3498 97.5807 26.3663L97.7006 26.4861C97.7329 26.4536 97.7583 26.4149 97.7753 26.3724C97.7924 26.3298 97.8006 26.2843 97.7996 26.2385H97.6333ZM97.5807 26.3663C97.5651 26.3809 97.5468 26.3922 97.5266 26.3993C97.5065 26.4065 97.4852 26.4094 97.4639 26.4078V26.5772C97.5074 26.5788 97.5509 26.5714 97.5916 26.5558C97.6322 26.5401 97.6693 26.5165 97.7006 26.4861L97.5807 26.3663ZM97.4639 26.4078H96.9122V26.5772H97.4639V26.4078ZM103.851 25.9076L103.79 25.9661L103.851 25.9076ZM103.112 23.9861H103.026H103.112ZM103.1 23.6108H103.016V23.6157L103.1 23.6108ZM103.112 23.2462L103.026 23.2403L103.112 23.2462ZM103.862 21.3465L103.802 21.2871L103.862 21.3465ZM107.562 21.4238L107.497 21.4792L107.562 21.4238ZM108.156 23.9L108.216 23.9604L108.156 23.9ZM104.159 23.9663V23.8812C104.136 23.8812 104.114 23.8901 104.098 23.9061C104.082 23.9221 104.073 23.9438 104.073 23.9663H104.159ZM104.159 24.0654H104.073H104.159ZM104.589 25.2916L104.522 25.3441L104.589 25.2916ZM106.489 25.5888L106.534 25.6611L106.489 25.5888ZM106.975 25.1579L106.907 25.1074L106.975 25.1579ZM107.119 25.0034L107.158 25.0796H107.164L107.119 25.0034ZM108.01 25.0251L107.956 25.0905L108.01 25.0251ZM107.768 25.765L107.704 25.7086L107.768 25.765ZM106.918 26.3593L106.953 26.4366L106.918 26.3593ZM107.182 23.2007V23.2859C107.205 23.2859 107.227 23.2769 107.243 23.2609C107.259 23.2449 107.268 23.2233 107.268 23.2007H107.182ZM106.762 21.9309L106.697 21.9854L106.762 21.9309ZM104.554 21.9309L104.489 21.8764L104.554 21.9309ZM104.157 23.2007H104.072C104.072 23.2233 104.081 23.2449 104.097 23.2609C104.113 23.2769 104.135 23.2859 104.157 23.2859V23.2007ZM105.671 26.5178C105.347 26.5333 105.023 26.4818 104.72 26.3664C104.417 26.251 104.141 26.0743 103.909 25.8473L103.788 25.9661C104.036 26.209 104.33 26.3984 104.654 26.5225C104.978 26.6465 105.324 26.7026 105.67 26.6871L105.671 26.5178ZM103.91 25.8482C103.452 25.3335 103.197 24.6694 103.193 23.9802L103.023 23.9891C103.029 24.7187 103.301 25.4213 103.787 25.9651L103.91 25.8482ZM103.194 23.9822L103.183 23.6068H103.014L103.024 23.9822H103.194ZM103.183 23.6117L103.194 23.2472L103.023 23.2423L103.012 23.6068L103.183 23.6117ZM103.194 23.2502C103.207 22.5673 103.465 21.912 103.922 21.4039L103.799 21.2871C103.315 21.8239 103.04 22.5167 103.024 23.2393L103.194 23.2502ZM103.921 21.4039C104.147 21.1756 104.419 20.9972 104.719 20.88C105.018 20.7628 105.339 20.7095 105.66 20.7235V20.5541C105.316 20.5402 104.973 20.5981 104.652 20.7243C104.332 20.8505 104.041 21.0422 103.799 21.2871L103.921 21.4039ZM105.66 20.7235C106.003 20.7032 106.346 20.7606 106.664 20.8912C106.982 21.0219 107.266 21.2225 107.495 21.4782L107.624 21.3673C107.379 21.0931 107.075 20.8777 106.735 20.737C106.395 20.5962 106.028 20.5337 105.66 20.5541V20.7235ZM107.496 21.4782C107.958 22.0554 108.19 22.7827 108.149 23.5206H108.32C108.361 22.7417 108.115 21.9747 107.626 21.3663L107.496 21.4782ZM108.149 23.5206V23.7088H108.32V23.5206H108.149ZM108.149 23.7088C108.15 23.7326 108.145 23.7563 108.136 23.7783C108.127 23.8003 108.114 23.8201 108.097 23.8366L108.216 23.9564C108.249 23.9239 108.274 23.8852 108.291 23.8427C108.308 23.8001 108.316 23.7546 108.316 23.7088H108.149ZM108.097 23.8366C108.081 23.8512 108.063 23.8625 108.043 23.8696C108.023 23.8768 108.001 23.8797 107.98 23.8781V24.0475C108.023 24.0491 108.067 24.0418 108.107 24.0261C108.148 24.0105 108.185 23.9868 108.216 23.9564L108.097 23.8366ZM107.98 23.8781H104.159V24.0475H107.98V23.8781ZM104.073 23.9633V24.0624H104.244V23.9633H104.073ZM104.073 24.0624C104.084 24.5241 104.241 24.9705 104.522 25.3371L104.656 25.2321C104.396 24.8934 104.252 24.481 104.243 24.0545L104.073 24.0624ZM104.523 25.3381C104.659 25.5082 104.832 25.6444 105.029 25.736C105.227 25.8276 105.443 25.8721 105.66 25.8661V25.6967C105.468 25.7027 105.277 25.6638 105.102 25.583C104.928 25.5021 104.775 25.3817 104.655 25.2312L104.523 25.3381ZM105.66 25.8661C105.965 25.8786 106.268 25.8052 106.534 25.6541L106.445 25.5095C106.206 25.6434 105.935 25.7079 105.661 25.6957L105.66 25.8661ZM106.534 25.6541C106.732 25.5376 106.905 25.3835 107.044 25.2005L106.905 25.1014C106.779 25.2661 106.622 25.4047 106.443 25.5095L106.534 25.6541ZM107.042 25.2025C107.067 25.1681 107.094 25.135 107.122 25.1034C107.13 25.0946 107.139 25.0863 107.148 25.0786L107.156 25.0727L107.079 24.9212C107.049 24.9389 107.021 24.9617 106.997 24.9885C106.965 25.0244 106.935 25.0617 106.906 25.1004L107.042 25.2025ZM107.161 25.0697C107.207 25.0519 107.256 25.0448 107.305 25.0489V24.8796C107.225 24.8745 107.146 24.8901 107.074 24.9251L107.161 25.0697ZM107.305 25.0489H107.847V24.8796H107.305V25.0489ZM107.847 25.0489C107.887 25.0468 107.927 25.0595 107.958 25.0846L108.067 24.9538C108.005 24.9032 107.927 24.8765 107.847 24.8785V25.0489ZM107.958 25.0846C107.971 25.0956 107.98 25.1094 107.987 25.1249C107.993 25.1404 107.995 25.1571 107.994 25.1737H108.163C108.164 25.132 108.156 25.0904 108.139 25.0523C108.122 25.0142 108.096 24.9805 108.064 24.9538L107.958 25.0846ZM107.994 25.1737C107.962 25.3781 107.86 25.5651 107.705 25.7027L107.832 25.8165C108.015 25.6485 108.133 25.4205 108.163 25.1737H107.994ZM107.705 25.7036C107.475 25.9513 107.195 26.1474 106.883 26.2791L106.955 26.4336C107.288 26.2917 107.588 26.0812 107.834 25.8156L107.705 25.7036ZM106.884 26.2781C106.501 26.4418 106.088 26.5221 105.672 26.5138V26.6832C106.112 26.6917 106.55 26.6063 106.955 26.4326L106.884 26.2781ZM107.27 23.1967V23.1641H107.1V23.1967H107.27ZM107.27 23.1641C107.29 22.6929 107.133 22.2312 106.829 21.8705L106.701 21.9834C106.976 22.3134 107.118 22.7348 107.097 23.1641H107.27ZM106.83 21.8764C106.687 21.7068 106.508 21.5722 106.305 21.4827C106.102 21.3933 105.882 21.3514 105.66 21.3604V21.5307C105.857 21.5223 106.052 21.559 106.233 21.638C106.413 21.7169 106.572 21.8361 106.699 21.9864L106.83 21.8764ZM105.66 21.3604C105.439 21.3516 105.219 21.3935 105.016 21.483C104.813 21.5724 104.634 21.707 104.491 21.8764L104.621 21.9854C104.748 21.8351 104.908 21.7159 105.088 21.6369C105.268 21.558 105.464 21.5213 105.66 21.5297V21.3604ZM104.49 21.8764C104.201 22.2418 104.053 22.6987 104.072 23.1641H104.243C104.223 22.7372 104.357 22.3173 104.621 21.9814L104.49 21.8764ZM104.072 23.1641V23.1967H104.243V23.1641H104.072ZM104.157 23.2819H107.183V23.1126H104.157V23.2819Z" fill="#51504F"/><path id="Path 11" d="M67.8179 52.4304C67.67 52.4269 67.5291 52.3666 67.4246 52.262C67.32 52.1575 67.2598 52.0166 67.2563 51.8688C67.2514 51.765 67.2607 51.6611 67.284 51.5598L74.2431 33.4063C74.3005 33.2169 74.4206 33.0527 74.5837 32.9406C74.7467 32.8284 74.9431 32.7751 75.1404 32.7892H77.0481C77.2456 32.7751 77.4421 32.8284 77.6053 32.9405C77.7685 33.0526 77.8888 33.2168 77.9465 33.4063L84.8798 51.5598L84.9363 51.8688C84.9323 52.0165 84.8719 52.157 84.7674 52.2615C84.6629 52.366 84.5224 52.4264 84.3747 52.4304H82.9435C82.7728 52.4411 82.6037 52.3913 82.466 52.2898C82.3666 52.1962 82.2901 52.0809 82.2422 51.953L80.6991 47.9683H71.4955L69.9523 51.953C69.9 52.086 69.8127 52.2024 69.6997 52.2898C69.5716 52.3884 69.4125 52.4382 69.251 52.4304H67.8179ZM79.8828 45.5565L76.0953 35.5962L72.3087 45.5555L79.8828 45.5565ZM87.989 35.1188C87.902 35.1282 87.814 35.1179 87.7314 35.0889C87.6489 35.0598 87.5739 35.0126 87.512 34.9508C87.4501 34.8889 87.4028 34.814 87.3736 34.7315C87.3444 34.649 87.334 34.5611 87.3432 34.474V32.9586C87.3385 32.7841 87.3984 32.6141 87.5115 32.4812C87.5733 32.4172 87.6476 32.3667 87.7298 32.3326C87.8119 32.2986 87.9001 32.2817 87.989 32.2831H89.7569C89.8455 32.2827 89.9333 32.2998 90.0152 32.3335C90.0971 32.3672 90.1715 32.4169 90.2341 32.4795C90.2967 32.5421 90.3464 32.6165 90.3801 32.6984C90.4138 32.7803 90.4309 32.868 90.4305 32.9566V34.472C90.4318 34.5608 90.4149 34.6488 90.3808 34.7308C90.3467 34.8127 90.2963 34.8868 90.2324 34.9485C90.0998 35.0614 89.9301 35.1214 89.7559 35.1168L87.989 35.1188ZM88.2138 52.4314C88.1267 52.4406 88.0387 52.4302 87.9562 52.401C87.8737 52.3718 87.7987 52.3245 87.7368 52.2626C87.6749 52.2007 87.6277 52.1258 87.5985 52.0432C87.5692 51.9607 87.5588 51.8727 87.568 51.7856V38.4855C87.564 38.4032 87.5769 38.3209 87.6058 38.2437C87.6348 38.1666 87.6793 38.0962 87.7364 38.0368C87.7982 37.9728 87.8724 37.9223 87.9545 37.8882C88.0366 37.8541 88.1249 37.8373 88.2138 37.8387H89.5598C89.7288 37.8453 89.8892 37.9153 90.0089 38.0348C90.1286 38.1543 90.1987 38.3145 90.2056 38.4835V51.7826C90.2071 51.8715 90.1902 51.9598 90.1561 52.0419C90.1221 52.124 90.0715 52.1983 90.0075 52.26C89.9481 52.3171 89.8777 52.3614 89.8005 52.3904C89.7234 52.4193 89.6412 52.4322 89.5589 52.4284L88.2138 52.4314ZM95.0095 52.4314C94.9225 52.4406 94.8345 52.4302 94.752 52.401C94.6695 52.3718 94.5946 52.3245 94.5328 52.2626C94.4709 52.2006 94.4237 52.1257 94.3946 52.0431C94.3655 51.9606 94.3554 51.8726 94.3647 51.7856V38.5132C94.3603 38.3391 94.4202 38.1695 94.533 38.0368C94.5948 37.9728 94.6691 37.9223 94.7513 37.8882C94.8334 37.8541 94.9216 37.8373 95.0105 37.8387H96.298C96.3866 37.8383 96.4744 37.8554 96.5563 37.8891C96.6382 37.9229 96.7126 37.9725 96.7753 38.0351C96.8379 38.0977 96.8875 38.1721 96.9212 38.254C96.9549 38.3359 96.972 38.4236 96.9716 38.5122V39.7464C97.3897 39.0999 97.9769 38.5803 98.6694 38.244C99.3619 37.9077 100.133 37.7675 100.9 37.8387H101.989C102.158 37.8455 102.318 37.9156 102.438 38.0351C102.557 38.1546 102.627 38.3146 102.634 38.4835V39.6334C102.637 39.7183 102.621 39.8028 102.587 39.8806C102.553 39.9583 102.501 40.0272 102.436 40.0821C102.377 40.1392 102.306 40.1836 102.229 40.2125C102.152 40.2415 102.07 40.2544 101.987 40.2505H100.304C99.8655 40.227 99.4273 40.2947 99.0168 40.4494C98.6062 40.604 98.2323 40.8422 97.9186 41.1488C97.6195 41.4667 97.388 41.842 97.2383 42.252C97.0887 42.662 97.0239 43.0981 97.0479 43.5339V51.7826C97.0493 51.8715 97.0324 51.9597 96.9983 52.0419C96.9643 52.124 96.9137 52.1982 96.8497 52.26C96.7167 52.373 96.5468 52.4329 96.3724 52.4284L95.0095 52.4314ZM107.127 52.4314C107.04 52.4405 106.952 52.4299 106.87 52.4007C106.787 52.3714 106.712 52.3241 106.651 52.2622C106.589 52.2003 106.542 52.1254 106.513 52.0429C106.483 51.9605 106.473 51.8726 106.482 51.7856V40.0841H104.097C104.01 40.0933 103.922 40.0829 103.84 40.0538C103.758 40.0246 103.683 39.9774 103.621 39.9156C103.559 39.8538 103.512 39.779 103.483 39.6965C103.453 39.6141 103.443 39.5262 103.452 39.4393V38.4855C103.448 38.4032 103.461 38.3209 103.49 38.2437C103.519 38.1666 103.564 38.0962 103.621 38.0368C103.682 37.9729 103.756 37.9223 103.838 37.8882C103.92 37.8542 104.008 37.8373 104.097 37.8387H106.482V36.4352C106.482 33.2551 108.091 31.6653 111.308 31.666H112.879C113.048 31.6726 113.208 31.7426 113.328 31.8621C113.447 31.9816 113.518 32.1418 113.525 32.3108V33.2647C113.526 33.3534 113.509 33.4414 113.475 33.5233C113.441 33.6053 113.39 33.6794 113.326 33.7411C113.267 33.7981 113.197 33.8424 113.119 33.8714C113.042 33.9003 112.96 33.9133 112.878 33.9095H111.363C111.036 33.874 110.706 33.9165 110.398 34.0336C110.091 34.1506 109.816 34.3389 109.595 34.583C109.214 35.1738 109.036 35.8735 109.09 36.5748V37.8377H115.094V32.3128C115.091 32.2305 115.104 32.1482 115.132 32.0711C115.161 31.994 115.206 31.9236 115.263 31.8641C115.325 31.8002 115.399 31.7496 115.481 31.7155C115.563 31.6814 115.651 31.6646 115.74 31.666H117.028C117.197 31.6726 117.357 31.7426 117.477 31.8621C117.596 31.9816 117.667 32.1418 117.674 32.3108V51.7826C117.675 51.8715 117.658 51.9598 117.624 52.0419C117.59 52.124 117.54 52.1983 117.476 52.26C117.416 52.3172 117.345 52.3616 117.268 52.3906C117.191 52.4195 117.108 52.4324 117.026 52.4284H115.738C115.651 52.4378 115.563 52.4276 115.48 52.3984C115.398 52.3693 115.323 52.322 115.261 52.26C115.199 52.1981 115.152 52.1231 115.122 52.0405C115.093 51.9579 115.083 51.8697 115.092 51.7826V40.0841H109.088V51.7846C109.09 51.8735 109.073 51.9617 109.038 52.0439C109.004 52.126 108.954 52.2002 108.89 52.262C108.83 52.3191 108.76 52.3635 108.683 52.3925C108.605 52.4214 108.523 52.4343 108.44 52.4304L107.127 52.4314ZM127.828 52.7117C126.952 52.7647 126.074 52.6377 125.249 52.3384C124.424 52.0391 123.669 51.5739 123.03 50.9715C121.867 49.7113 121.225 48.0568 121.234 46.3419L121.206 45.1355L121.234 43.9291C121.229 42.218 121.882 40.5705 123.058 39.3273C124.385 38.1868 126.077 37.5597 127.827 37.5597C129.578 37.5597 131.27 38.1868 132.597 39.3273C133.773 40.5707 134.425 42.2181 134.421 43.9291C134.439 44.1345 134.448 44.5366 134.448 45.1355C134.448 45.7344 134.439 46.1366 134.421 46.3419C134.429 48.0618 133.776 49.7191 132.597 50.9715C131.965 51.5754 131.214 52.0418 130.392 52.3411C129.571 52.6405 128.696 52.7663 127.823 52.7107L127.828 52.7117ZM127.828 50.5515C128.344 50.5777 128.86 50.4908 129.339 50.297C129.818 50.1031 130.249 49.807 130.601 49.4293C131.352 48.5238 131.75 47.378 131.724 46.2023C131.742 46.0154 131.751 45.6601 131.751 45.1365C131.751 44.6129 131.742 44.2576 131.724 44.0708C131.75 42.8951 131.352 41.7493 130.601 40.8438C130.249 40.466 129.818 40.1699 129.339 39.9761C128.86 39.7822 128.344 39.6954 127.828 39.7216C127.307 39.6965 126.787 39.7837 126.303 39.9773C125.819 40.171 125.382 40.4665 125.022 40.8438C124.275 41.7494 123.887 42.8979 123.932 44.0708L123.905 45.1365L123.932 46.2023C123.887 47.3752 124.275 48.5237 125.022 49.4293C125.381 49.8058 125.818 50.1007 126.301 50.2941C126.784 50.4876 127.303 50.575 127.823 50.5505L127.828 50.5515ZM141.452 52.4334C141.251 52.4464 141.052 52.3867 140.891 52.265C140.737 52.1175 140.622 51.9346 140.555 51.7322L136.57 38.7133L136.514 38.433C136.512 38.355 136.526 38.2774 136.555 38.205C136.584 38.1326 136.628 38.0669 136.683 38.012C136.798 37.906 136.948 37.846 137.104 37.8436H138.338C138.42 37.8397 138.503 37.8526 138.58 37.8816C138.657 37.9105 138.727 37.9549 138.787 38.012C138.902 38.0854 138.99 38.1937 139.039 38.321L142.154 48.8984L145.493 38.433C145.533 38.2774 145.622 38.1386 145.746 38.0368C145.817 37.9693 145.9 37.9169 145.992 37.8828C146.083 37.8487 146.181 37.8337 146.279 37.8387H147.233C147.33 37.8337 147.428 37.8487 147.52 37.8828C147.612 37.9169 147.695 37.9692 147.766 38.0368C147.891 38.1385 147.979 38.2774 148.019 38.433L151.358 48.8984L154.472 38.321C154.507 38.2011 154.576 38.0938 154.67 38.012C154.803 37.8989 154.973 37.8389 155.147 37.8436H156.41C156.484 37.8428 156.558 37.8574 156.626 37.8864C156.694 37.9153 156.756 37.9581 156.806 38.012C156.862 38.0669 156.905 38.1326 156.934 38.205C156.963 38.2774 156.977 38.355 156.975 38.433L156.918 38.7133L152.962 51.7322C152.895 51.9345 152.78 52.1174 152.626 52.265C152.454 52.3902 152.243 52.4499 152.031 52.4334H150.942C150.727 52.4554 150.513 52.3953 150.341 52.2651C150.169 52.135 150.053 51.9445 150.016 51.7322L146.761 41.6877L143.506 51.7322C143.455 51.9427 143.332 52.1285 143.157 52.2568C142.983 52.3851 142.769 52.4476 142.553 52.4334H141.452Z" fill="#51504F"/></g></g></svg>