<svg width="118" height="100" viewBox="0 0 118 100" fill="none" xmlns="http://www.w3.org/2000/svg"><g id="Blue Cross Blue Shield"><g id="Group"><g id="Group_2"><path id="Vector" d="M41.9518 49.102C41.9524 48.5922 42.104 48.0941 42.3875 47.6704C42.671 47.2468 43.0737 46.9166 43.5447 46.7217C44.0157 46.5267 44.5339 46.4757 45.0339 46.5751C45.5339 46.6745 45.9932 46.9198 46.3539 47.2801C46.7145 47.6403 46.9603 48.0994 47.0603 48.5992C47.1602 49.0991 47.1098 49.6174 46.9154 50.0886C46.7209 50.5598 46.3913 50.9629 45.9679 51.2469C45.5446 51.5308 45.0466 51.683 44.5368 51.6841C43.8517 51.6841 43.1947 51.4122 42.71 50.928C42.2253 50.4439 41.9526 49.7871 41.9518 49.102ZM46.7011 49.102C46.7116 48.8153 46.6629 48.5296 46.558 48.2626C46.4531 47.9956 46.2942 47.7532 46.0914 47.5503C45.8886 47.3475 45.6461 47.1887 45.3791 47.0838C45.1121 46.9788 44.8264 46.9301 44.5397 46.9406C43.2775 46.9406 42.3668 47.8455 42.3668 49.102C42.3668 50.37 43.2746 51.2749 44.5397 51.2749C45.7933 51.2749 46.7011 50.37 46.7011 49.102ZM43.9489 50.5631H43.5714V47.6121H44.8394C45.6089 47.6121 45.8683 47.9003 45.8683 48.4277C45.8683 48.9954 45.4734 49.2086 44.9576 49.2519L45.8337 50.5631H45.41L44.5801 49.2519H43.9489V50.5631ZM44.4706 48.9089C44.8827 48.9089 45.4561 48.9781 45.4561 48.4248C45.4561 48.0127 45.1132 47.9579 44.7559 47.9579H43.9489V48.9118H44.4706V48.9089ZM36.387 51.4766V38.6005H49.2631V18.0126H36.387V5.1394H15.8711V18.0126H2.995V38.6005H15.8711V51.4766H36.387Z" fill="#00ACEC"/><g id="Union"><path fill-rule="evenodd" clip-rule="evenodd" d="M26.1665 17.2435C27.6451 17.2704 28.0993 18.9534 27.4418 19.8253C26.8395 20.6034 26.7242 20.8339 26.7559 21.5631C26.7818 22.1798 27.3524 22.9348 28.6406 22.9608H37.6954C36.6708 20.768 35.042 18.913 33.0002 17.6134C30.9584 16.3138 28.5883 15.6235 26.168 15.6236L26.1679 15.6264C23.7476 15.626 21.3773 16.3162 19.3355 17.6158C17.2936 18.9155 15.6649 20.7707 14.6406 22.9636H23.6925C24.9807 22.9377 25.5513 22.1798 25.5772 21.5631C25.6089 20.8339 25.4936 20.6034 24.8913 19.8253C24.2338 18.9534 24.688 17.2704 26.1665 17.2435ZM29.2112 17.8195C29.8567 18.8973 29.3322 20.295 28.7242 20.955C28.6089 21.076 28.6665 21.1942 28.7674 21.2259H34.4908C33.1014 19.5991 31.266 18.4149 29.2112 17.8195ZM23.1247 17.8195C22.4763 18.8973 23.0008 20.295 23.6118 20.9579C23.7242 21.076 23.6694 21.1942 23.5657 21.2259H17.8452C19.2336 19.5981 21.0694 18.4137 23.1247 17.8195Z" fill="white"/><path d="M38.0722 23.8628L38.0729 23.8628L38.07 23.857L38.0722 23.8628Z" fill="white"/><path fill-rule="evenodd" clip-rule="evenodd" d="M38.0722 23.8628L29.5369 24.6841C27.9374 24.906 27.7472 26.4593 28.1766 27.393L34.021 38.37L34.0124 38.3527C35.5317 37.1638 36.76 35.6443 37.6039 33.9095C38.4478 32.1747 38.8852 30.2703 38.8827 28.3412C38.8827 26.767 38.5953 25.256 38.0722 23.8628ZM30.3467 26.3354L36.8078 25.7389C37.0095 26.5746 37.1161 27.4449 37.1161 28.3412C37.1161 31.0703 36.1219 33.5631 34.4763 35.4795L29.9518 26.8368C29.8423 26.5688 29.8798 26.37 30.3467 26.3354Z" fill="white"/><path fill-rule="evenodd" clip-rule="evenodd" d="M14.2602 23.8628L22.7962 24.6841C24.3957 24.906 24.5859 26.4593 24.1565 27.393L18.3121 38.3729L18.3178 38.3556C16.799 37.1663 15.5711 35.6466 14.7272 33.9119C13.8833 32.1772 13.4457 30.2731 13.4475 28.344C13.4475 26.7677 13.7357 25.2547 14.2602 23.8599V23.8628ZM15.5282 25.7389L21.9864 26.3354C22.4533 26.37 22.4878 26.5717 22.3812 26.8368L17.8596 35.4795C16.1499 33.4947 15.2118 30.9608 15.2169 28.3412C15.2169 27.4449 15.3236 26.5746 15.5282 25.7389Z" fill="white"/></g><path id="Vector_2" d="M26.1679 41.0645C28.7529 41.0645 31.1535 40.2951 33.1621 38.9694V38.9781L26.9604 29.71C26.5253 29.1135 25.8307 29.0645 25.3725 29.71L19.1708 38.9781V38.9694C21.1794 40.2951 23.5829 41.0645 26.1679 41.0645Z" fill="white"/><path id="Vector_3" d="M25.9863 31.8052C26.0872 31.6755 26.2255 31.6668 26.3466 31.8052L30.6232 38.3498C29.2201 38.9746 27.701 39.2967 26.165 39.2951C24.629 39.2973 23.1098 38.9752 21.7068 38.3498L25.9863 31.8052C26.1045 31.6668 26.2457 31.6755 26.3466 31.8052Z" fill="#00ACEC"/></g><g id="Group_3"><path id="Vector_4" fill-rule="evenodd" clip-rule="evenodd" d="M87.5088 47.6701C87.2251 48.0938 87.0734 48.5921 87.0729 49.102C87.0736 49.7866 87.3459 50.4429 87.83 50.927C88.3141 51.4111 88.9704 51.6834 89.655 51.6841C90.1649 51.6836 90.6632 51.5319 91.0869 51.2483C91.5106 50.9646 91.8407 50.5618 92.0356 50.0906C92.2305 49.6194 92.2813 49.1011 92.1817 48.601C92.0821 48.1009 91.8365 47.6416 91.4759 47.2811C91.1154 46.9205 90.6561 46.6749 90.156 46.5753C89.656 46.4757 89.1376 46.5266 88.6664 46.7214C88.1952 46.9163 87.7924 47.2464 87.5088 47.6701ZM89.7167 48.9103C90.1106 48.9165 90.5772 48.9239 90.5772 48.4248C90.5772 48.0127 90.2343 47.9579 89.8769 47.9579H89.0671V48.9118H89.5916V48.9089C89.632 48.9089 89.6739 48.9096 89.7167 48.9103ZM91.6788 48.2619C91.7839 48.5291 91.8327 48.8151 91.8222 49.102C91.8334 49.3896 91.7852 49.6765 91.6806 49.9447C91.5759 50.2128 91.4171 50.4565 91.2139 50.6605C91.0108 50.8644 90.7677 51.0243 90.5 51.13C90.2323 51.2357 89.9456 51.2851 89.6579 51.2749C88.3956 51.2749 87.4879 50.37 87.4879 49.102C87.4777 48.8147 87.527 48.5284 87.6326 48.261C87.7382 47.9936 87.8978 47.7509 88.1015 47.548C88.3052 47.3451 88.5485 47.1865 88.8163 47.082C89.0841 46.9775 89.3706 46.9293 89.6579 46.9406C89.9448 46.9297 90.2308 46.9781 90.4982 47.0829C90.7655 47.1876 91.0083 47.3464 91.2115 47.5492C91.4146 47.7521 91.5737 47.9947 91.6788 48.2619ZM89.0671 50.5631H88.6925V47.6121H89.9605C90.7299 47.6121 90.9893 47.9003 90.9893 48.4277C90.9893 48.9954 90.5945 49.2086 90.0786 49.2519L90.9547 50.5631H90.5311L89.7011 49.2519H89.0671V50.5631Z" fill="#00ACEC"/><path id="Vector_5" d="M74.9 51.9781C83.7962 47.0645 89.1853 39.2403 91.9634 30.6524C94.8452 21.7446 94.3179 11.1077 90.9836 4.53711C85.9029 7.09907 80.8423 8.47659 74.9 8.49388C68.9605 8.51117 63.8942 7.07313 58.8164 4.51117C55.4792 11.0789 54.9576 21.7446 57.8394 30.6524C60.6175 39.2403 66.0095 47.0645 74.9 51.9781Z" fill="#00ACEC"/><g id="Union_2"><path d="M76.3265 16.2374C76.4961 16.3597 76.5048 16.3989 76.5569 16.6343L76.5628 16.661C76.6241 16.9556 76.5954 17.3191 76.5689 17.6551C76.5444 17.9668 76.5216 18.2548 76.5743 18.442C76.632 18.5688 76.7588 18.5659 76.8539 18.5112C77.2168 18.3164 77.5253 18.0561 77.8301 17.799C78.1837 17.5008 78.5322 17.2068 78.9547 17.0242C79.3294 16.8656 80.3899 17.3988 80.1507 18.1711C80.0624 18.4564 79.9901 18.5158 79.8458 18.6343C79.8064 18.6667 79.7617 18.7034 79.7098 18.7504C79.5004 18.9415 79.2623 19.1352 79.0081 19.3418C78.6606 19.6245 78.2832 19.9314 77.9086 20.2893C77.7786 20.4139 77.6503 20.5221 77.5263 20.6267C77.2571 20.8537 77.0081 21.0638 76.8049 21.3873C76.7415 21.4968 76.5859 21.7936 76.5859 21.7936C76.0055 21.6733 75.4178 21.6125 74.8672 21.5556C74.3762 21.5048 73.9146 21.4571 73.5138 21.3729L73.4706 20.4391C73.4706 20.4391 74.5686 20.4276 74.681 19.7648C74.6867 19.7302 74.6608 19.5314 74.534 19.4391C74.3605 19.3303 74.1748 19.2423 73.9807 19.1769C74.8107 19.3066 75.5455 19.6149 76.3986 19.9896C76.4533 19.8974 76.3121 19.5775 76.2487 19.5083C76.1334 19.3729 75.9951 19.2749 75.6983 19.2057C75.1795 19.0731 73.923 18.9175 73.923 18.9175L74.9836 18.8743C75.2487 18.8311 75.5225 18.7273 75.583 18.6351C75.6584 18.465 75.4537 18.2208 75.2384 17.964C75.1657 17.8771 75.0916 17.7888 75.0268 17.7014C74.9884 17.649 74.9463 17.5819 74.8999 17.5079C74.7932 17.3376 74.6639 17.1313 74.5052 16.9867C74.2285 16.6553 73.387 16.3412 73.387 16.3412C73.387 16.3412 73.3179 15.7763 73.4562 15.5025C73.557 15.2979 74.0066 15.2778 74.1507 15.3469C74.779 15.7043 75.4879 16.0904 76.3265 16.2374Z" fill="white"/><path d="M75.8049 38.9781C75.8093 38.892 75.7884 38.8651 75.755 38.8222L75.7548 38.822C75.7447 38.809 75.7334 38.7945 75.7213 38.7763C75.5482 38.6007 75.3536 38.4477 75.1421 38.321C74.9029 38.1827 74.387 38.0213 74.387 38.0213C74.387 38.0213 74.4677 41.4478 74.5311 43.272C74.5455 43.6841 74.7127 43.8253 75.1132 43.8167C75.583 43.8052 75.681 43.6121 75.6839 43.3585C75.6884 43.1328 75.7039 42.6159 75.7227 41.9907L75.7227 41.9906L75.7228 41.9905L75.7228 41.9901L75.7228 41.9895L75.7228 41.9894L75.7228 41.9887C75.752 41.0176 75.7891 39.7858 75.8049 38.9781Z" fill="white"/><path d="M76.0124 29.3066L76.1075 25.808C76.1075 25.808 75.609 25.5976 74.8799 25.5515C73.9202 25.491 73.5225 25.4478 73.5225 25.4478L73.5369 25.7475C73.5369 25.7475 73.0211 25.8743 72.949 25.9982C72.9444 26.0075 72.9379 26.0173 72.9307 26.0281L72.9306 26.0282C72.8932 26.0845 72.838 26.1677 72.9346 26.344C72.9921 26.4489 73.0469 26.5475 73.0993 26.6418L73.0994 26.642L73.0995 26.6421C73.5121 27.3842 73.7743 27.8556 73.9865 28.9781C74.7185 29.0732 75.2314 29.1567 76.0124 29.3066Z" fill="white"/><path d="M73.2487 31.589C71.5715 31.3152 70.3841 30.3469 70.485 28.7446C70.5462 27.7957 71.4362 27.427 72.1894 27.115L72.1895 27.115L72.1898 27.1149C72.2873 27.0745 72.3826 27.035 72.4735 26.9953C72.6952 27.3866 72.8935 27.7908 73.0671 28.2057C73.217 28.6438 73.3006 28.9204 73.3006 28.9204C73.3006 28.9204 72.9403 28.9838 72.972 29.2806C73.0009 29.5429 73.289 29.6553 73.4677 29.6783C73.61 29.6983 73.758 29.7186 73.9097 29.7394C75.0088 29.8902 76.3029 30.0678 77.0297 30.321C77.5801 30.5083 78.1219 30.8196 78.4331 31.2461C78.9 31.8887 79.0066 32.4132 78.8539 33.076C78.7213 33.6438 78.3525 34.102 77.7588 34.4593C77.1306 34.8369 76.4821 34.8657 76.4821 34.8657L76.534 32.9435C76.534 32.9435 76.6752 32.9118 76.779 32.7821C76.8741 32.6668 76.9029 32.5804 76.8741 32.4132C76.8583 32.3401 76.8252 32.2718 76.7776 32.2141C76.7299 32.1565 76.6691 32.1111 76.6003 32.0818C76.2848 32.0104 75.7209 31.933 74.8687 31.8159L74.8687 31.8159L74.8686 31.8159C74.413 31.7533 73.8751 31.6794 73.2487 31.589Z" fill="white"/><path d="M75.8539 35.7562L75.9144 32.5804C75.5583 32.5361 75.3126 32.51 75.0364 32.4807L75.0364 32.4807C74.8097 32.4566 74.5625 32.4304 74.217 32.3902L74.3842 35.0069L75.8539 35.7562Z" fill="white"/><path d="M73.1392 36.9781C71.9692 36.468 71.5484 35.4478 72.0211 34.3296C72.1957 33.9231 72.6577 33.6417 72.9095 33.4882L72.9144 33.4853C73.1911 33.321 73.6032 33.1971 73.6032 33.1971L73.7242 34.785C73.7242 34.785 73.5715 34.8397 73.5283 34.9809C73.4418 35.2605 73.6954 35.4161 73.7588 35.4449C73.9188 35.5156 74.0935 35.5908 74.2772 35.6699C74.9769 35.9711 75.8068 36.3283 76.4505 36.7072C77.5023 37.3239 77.8424 37.7706 77.8482 38.5083C77.8572 38.7799 77.8013 39.0498 77.685 39.2954C77.5687 39.541 77.3954 39.7553 77.1796 39.9204C76.7617 40.2605 76.2631 40.3815 76.2631 40.3815L76.3179 39.0242C76.3179 39.0242 76.4706 38.8945 76.4274 38.7216C76.3554 38.4478 75.3928 37.8023 74.8741 37.6034C74.6503 37.5175 74.3974 37.4316 74.1422 37.3449C73.7894 37.225 73.4318 37.1035 73.1392 36.9781Z" fill="white"/><path fill-rule="evenodd" clip-rule="evenodd" d="M79.9432 25.0299C79.7819 24.1942 78.9288 23.4074 78.1796 23.0213C77.0593 22.4446 75.8791 22.3205 74.699 22.1965C73.827 22.1048 72.955 22.0132 72.1075 21.7389C71.5369 21.5515 70.851 21.2835 70.6954 20.6322C70.5945 20.2172 70.6003 19.808 70.9 19.6293C71.1873 19.4603 71.4286 19.5687 71.7515 19.7138C71.9404 19.7987 72.1572 19.8962 72.4274 19.9579C72.8885 20.0674 73.387 20.0559 73.7473 19.9463C73.7673 19.9403 73.7883 19.9342 73.8098 19.928C73.9614 19.8841 74.1367 19.8333 74.1594 19.7273C74.1594 19.6313 74.0001 19.5646 73.8855 19.5167C73.8522 19.5028 73.8228 19.4905 73.802 19.4795C73.6721 19.4137 73.5544 19.3864 73.4318 19.358C73.3395 19.3365 73.2444 19.3145 73.1392 19.2749C72.8531 19.1658 72.5539 18.9906 72.2581 18.8175L72.2581 18.8174C72.1397 18.7482 72.0219 18.6792 71.9058 18.6149C72.2862 18.5342 72.9259 18.5169 73.3092 18.5631C73.6147 18.5948 74.5542 18.5861 74.8366 18.5112C74.8971 18.4939 75.0383 18.442 74.9778 18.3354C74.9184 18.2352 74.8368 18.1699 74.7544 18.1039C74.685 18.0484 74.615 17.9923 74.5571 17.9146C74.5242 17.87 74.4919 17.8251 74.4597 17.7804L74.4595 17.7802C74.2235 17.4525 73.9936 17.1334 73.6032 16.9838C72.3236 16.4939 70.8971 16.37 69.6262 17.0299C68.8008 17.4745 68.1768 18.2181 67.882 19.1082C67.5873 19.9982 67.6443 20.9673 68.0412 21.8167C68.73 23.2288 70.047 23.9492 71.6003 24.344C72.3582 24.5371 73.0153 24.6466 73.8395 24.736C74.0355 24.7569 74.2268 24.7753 74.4151 24.7935L74.4154 24.7935C75.1349 24.8628 75.81 24.9279 76.534 25.1106C76.73 25.1596 77.0614 25.3008 77.1536 25.4997C77.3179 25.857 77.2199 26.2806 76.7819 26.4593C76.7703 27.2576 76.6695 28.9204 76.6695 28.9204C76.6695 28.9204 80.6032 28.5112 79.9432 25.0299ZM73.73 17.5573C73.6472 17.5267 73.5586 17.5149 73.4706 17.5227C73.4364 17.5473 73.4044 17.5718 73.3736 17.5954L73.3735 17.5955L73.3734 17.5956L73.3734 17.5956L73.3733 17.5957C73.2563 17.6853 73.156 17.7622 73.0124 17.785C72.7889 17.8225 72.7252 17.7148 72.6491 17.5863C72.6026 17.5076 72.5514 17.4212 72.4562 17.3556C72.3973 17.3144 72.3397 17.3093 72.2835 17.3043C72.194 17.2964 72.1082 17.2888 72.0268 17.1365C72.0493 17.1372 72.0723 17.1378 72.0957 17.1384C72.6183 17.1519 73.3576 17.1711 73.73 17.5573Z" fill="white"/><path d="M73.4821 40.1106L73.4717 40.1211C73.2628 40.3296 72.8351 40.7568 72.9173 41.638C72.969 42.1416 73.0715 42.3374 73.2312 42.6423C73.2497 42.6776 73.269 42.7144 73.2891 42.7533C73.4303 43.0213 73.6579 43.1366 73.7444 42.7648C73.7668 42.6662 73.7418 42.572 73.7115 42.4582C73.6718 42.3092 73.6232 42.1266 73.6608 41.857C73.7329 41.3758 73.9807 41.2807 73.9807 41.2807L73.9115 39.7821C73.7539 39.8713 73.6094 39.9818 73.4821 40.1106Z" fill="white"/><path fill-rule="evenodd" clip-rule="evenodd" d="M74.9 47.9929C82.2143 43.46 86.1143 36.9665 88.609 29.6351C90.8251 23.1221 91.3669 15.5054 88.9288 9.55728C85.2718 10.8138 83.1277 11.2028 81.1392 11.5141C79.2833 11.8022 77.6262 11.978 74.9115 12.0155H74.8914C72.8057 12.0077 70.7237 11.84 68.6637 11.5141C66.6752 11.2057 64.5282 10.8138 60.8712 9.55728C58.4331 15.5025 58.9749 23.1221 61.1939 29.6351C63.6915 36.9665 67.5886 43.46 74.9 47.9929ZM74.8943 46.1971L74.9 46.1935L74.9058 46.1971H74.8943ZM74.9 46.1935C79.8496 43.0763 85.46 36.0148 87.6983 26.7216C88.8943 21.7878 89.2228 16.2461 87.6724 11.8484C85.4534 12.4391 83.3871 12.929 81.2487 13.2172C79.1104 13.5054 76.9922 13.7129 74.9087 13.7273H74.8914C72.7704 13.6898 70.6539 13.5195 68.5542 13.2172C66.413 12.929 64.3438 12.4391 62.1277 11.8484C60.5772 16.2461 60.9087 21.7878 62.1017 26.7216C64.3429 36.0148 69.9533 43.0792 74.9 46.1935Z" fill="white"/><path d="M74.9 47.9929L74.9087 47.9983H74.8914L74.9 47.9929Z" fill="white"/></g></g><path id="Vector_6" d="M13.7415 64.4651H21.2285C21.9835 64.4824 22.8164 64.5199 23.5916 64.8628C25.0297 65.5602 25.0642 66.9781 25.0642 67.2807C25.0705 67.6521 25.0017 68.0208 24.8621 68.365C24.7224 68.7091 24.5148 69.0216 24.2516 69.2836C23.3639 70.2087 22.191 70.3441 21.3409 70.4363C22.266 70.4738 23.7616 70.5516 24.9144 71.7216C25.3668 72.1568 25.9144 72.932 25.9144 74.1626C25.9144 75.03 25.632 75.9378 24.9144 76.6554C23.8337 77.7303 22.4735 77.7706 21.3005 77.8081H13.7415V77.3153H15.5743V64.9522H13.7415V64.4651ZM18.5801 65.03L18.5426 70.1914H19.7905C20.6233 70.1914 21.2861 69.9262 21.5484 69.5862C21.8683 69.2087 22.0383 68.5833 22.0383 67.6035C22.0383 65.4651 21.3784 65.0703 19.923 65.03H18.5801ZM18.5426 70.736L18.5801 77.2577H20.0181C20.6781 77.2231 21.3784 77.1654 21.9835 76.5804C22.7616 75.7879 22.7616 74.4248 22.7616 73.9522C22.7616 72.4969 22.4418 71.7245 21.8539 71.2692C21.4187 70.9291 20.6637 70.7216 19.5109 70.736H18.5426V70.736ZM29.0095 64.4651C29.8971 64.445 30.1622 64.445 30.9922 64.3902V77.3182H32.2948V77.811H26.7761V77.3182H28.1939V64.9551H26.7761V64.4651H29.0095ZM34.1824 68.6582C35.168 68.6409 35.4677 68.6409 36.3957 68.5862L36.3582 74.5775C36.3582 75.2951 36.3957 75.8427 36.5484 76.2202C36.7934 76.8081 37.3034 77.0732 37.9288 77.0732C38.4764 77.0732 38.949 76.8657 39.3092 76.5257C40.0441 75.7879 40.0297 74.8052 40.0297 73.9724L39.9893 69.151H38.5859V68.6582C38.5859 68.6582 41.3092 68.6409 42.7271 68.5862V77.298H44.0873V77.811H42.6493C41.4418 77.811 41.0066 77.8283 40.0988 77.8859L40.0383 76.4277C39.6435 76.9205 38.7184 78.0156 36.5801 78.0156C35.1824 78.0156 34.2919 77.4882 33.9317 76.7678C33.6493 76.2375 33.6694 75.5574 33.6694 74.9897L33.6291 69.151H32.2487V68.6582H34.1824ZM53.6522 75.1626C53.1623 76.0876 52.1421 78.0156 49.2833 78.0156C46.3525 78.0156 44.5571 75.7678 44.5571 73.1424C44.5571 70.6265 46.2602 68.3989 49.3006 68.3989C51.1911 68.3989 52.2314 69.2115 52.6839 69.6813C53.7242 70.7591 53.7617 71.8945 53.7819 72.7072H47.4677C47.4879 74.3124 47.5254 75.7678 48.3179 76.6035C48.7501 77.0559 49.3755 77.2461 49.998 77.2461C52.0383 77.2461 52.8164 75.5257 53.0816 74.9205L53.6522 75.1626ZM50.8914 72.1395C50.9087 70.664 50.9259 68.9234 49.2257 68.9234C47.6176 68.9234 47.5427 70.5314 47.4879 72.1395H50.8914ZM67.2401 76.8629C65.8424 77.3729 64.1018 77.9983 61.926 77.9983C58.0326 77.9983 55.1421 75.2 55.1421 71.1164C55.1421 66.713 58.4677 64.1597 62.2314 64.1597C63.3842 64.1597 65.1623 64.4248 67.1652 65.2951V69.0588H66.5773C66.485 68.3383 66.3352 67.1683 65.1824 66.0127C64.8196 65.6347 64.3849 65.3329 63.9039 65.1251C63.4229 64.9172 62.9053 64.8075 62.3813 64.8023C61.3813 64.8023 60.3784 65.2202 59.7156 65.8801C58.7703 66.8254 58.3553 68.3384 58.3553 71.0992C58.3553 73.7649 58.6752 75.4104 59.6579 76.4104C60.2055 76.9781 61.0758 77.4335 62.1162 77.4335C63.1162 77.4335 64.3064 77.0329 65.2718 76.0156C66.4072 74.8427 66.5398 73.8398 66.6147 73.1222H67.2401V76.8629V76.8629ZM72.4562 77.3182H73.8539V77.811H68.315V77.3182H69.6954V69.151H68.315V68.6582C68.315 68.6582 71.3006 68.6409 72.3784 68.5862L72.4159 70.4392C72.5307 69.9876 72.7669 69.576 73.0989 69.249C73.323 69.0128 73.5924 68.824 73.8909 68.6938C74.1894 68.5636 74.511 68.4947 74.8366 68.4911C76.047 68.4911 76.5571 69.4536 76.5571 70.3066C76.5571 71.4565 75.8021 71.6496 75.3871 71.6496C75.1998 71.6496 74.2142 71.5545 74.2142 70.4018C74.2142 70.3067 74.2747 69.834 74.2747 69.7418C74.2747 69.3412 73.9894 69.3412 73.9346 69.3412C73.6868 69.3412 73.3467 69.6438 73.1018 70.0213C72.4764 71.0242 72.4389 72.4969 72.4188 73.5401L72.4562 77.3182V77.3182ZM86.7214 73.2692C86.7214 76.2577 84.341 78.0127 81.7905 78.0127C79.0124 78.0127 76.9865 76.0127 76.9865 73.1943C76.9865 70.226 79.1421 68.4507 81.7502 68.4104C84.8136 68.3556 86.7214 70.5285 86.7214 73.2692ZM79.8597 72.8196C79.8597 75.785 80.0499 77.4882 81.8655 77.4882C83.6983 77.4882 83.8309 75.7649 83.8309 73.2692C83.8309 70.9839 83.7185 68.8859 81.8482 68.9032C80.0874 68.9061 79.8597 70.7015 79.8597 72.8196ZM88.7012 74.3326C88.7761 74.8773 88.8338 75.3355 89.1364 75.9003C89.4361 76.5055 90.2142 77.4507 91.5542 77.4507C92.6724 77.4507 93.4102 76.8254 93.4102 76.0703C93.4102 75.2173 92.5773 74.8773 91.3669 74.445C89.6839 73.8196 88.2689 73.3095 88.2689 71.3066C88.2689 68.9234 90.3496 68.3758 91.6522 68.3758C92.6897 68.3758 93.5427 68.6755 94.4332 68.981L94.4707 71.4392H93.9029C93.8446 71.0899 93.749 70.7479 93.6176 70.419C93.3756 69.909 92.658 69.0041 91.4447 69.0041C90.4246 69.0041 89.9692 69.6813 89.9692 70.1568C89.9692 70.7389 90.462 70.9868 90.6695 71.079C90.9692 71.2144 92.4649 71.7591 92.805 71.8917C93.9577 72.3643 95.1508 73.0069 95.1508 74.7447C95.1508 76.7274 93.6004 78.0386 91.3323 78.0386C90.0816 78.0386 89.1393 77.6957 88.1565 77.3384L88.1162 74.3326H88.7012V74.3326ZM96.9577 74.3326C97.0298 74.8773 97.0874 75.3355 97.39 75.9003C97.6926 76.5055 98.4678 77.4507 99.8107 77.4507C100.926 77.4507 101.664 76.8254 101.664 76.0703C101.664 75.2173 100.834 74.8773 99.6205 74.445C97.9404 73.8196 96.5225 73.3095 96.5225 71.3066C96.5225 68.9234 98.6032 68.3758 99.9087 68.3758C100.946 68.3758 101.796 68.6755 102.684 68.981L102.721 71.4392H102.154C102.096 71.09 102.002 70.748 101.871 70.419C101.626 69.909 100.909 69.0041 99.7012 69.0041C98.6811 69.0041 98.2228 69.6813 98.2228 70.1568C98.2228 70.7389 98.7156 70.9868 98.9231 71.079C99.2286 71.2144 100.721 71.7591 101.061 71.8917C102.214 72.3643 103.404 73.0069 103.404 74.7447C103.404 76.7274 101.854 78.0386 99.5859 78.0386C98.3352 78.0386 97.3929 77.6957 96.4073 77.3384L96.3698 74.3326H96.9577V74.3326ZM13.7674 82.1799H21.2544C22.0095 82.2 22.8423 82.2375 23.6175 82.5747C25.0556 83.2778 25.0931 84.6957 25.0931 84.9954C25.0993 85.3668 25.0305 85.7356 24.8909 86.0797C24.7512 86.4239 24.5436 86.7363 24.2804 86.9983C23.3899 87.9263 22.217 88.0588 21.3668 88.1511C22.2948 88.1914 23.7847 88.2634 24.9403 89.4364C25.3928 89.8715 25.9403 90.6467 25.9403 91.8773C25.9403 92.7476 25.655 93.6525 24.9403 94.373C23.8596 95.4479 22.5023 95.4854 21.3294 95.5228H13.7674V95.03H15.6002V82.6669H13.7674V82.1799V82.1799ZM18.606 82.7447L18.5657 87.9061H19.8135C20.6464 87.9061 21.3063 87.641 21.5714 87.3009C21.8913 86.9205 22.0614 86.3009 22.0614 85.3182C22.0614 83.1827 21.4014 82.7822 19.9461 82.7447H18.606ZM18.5686 88.4565L18.6089 94.9781H20.0469C20.7069 94.9407 21.4072 94.8859 22.0124 94.298C22.7905 93.5055 22.7905 92.1424 22.7905 91.6727C22.7905 90.2145 22.4706 89.4421 21.8827 88.9868C21.4504 88.6467 20.6925 88.4392 19.5397 88.4565H18.5686ZM29.0354 82.1799C29.923 82.1626 30.1882 82.1626 31.021 82.1049V95.0329H32.3236V95.5257H26.802V95.0329H28.2227V82.6698H26.802V82.1799H29.0354ZM34.2112 86.3758C35.1939 86.3557 35.4936 86.3557 36.4216 86.3038L36.3841 92.2923C36.3841 93.0098 36.4216 93.5603 36.5743 93.9378C36.8193 94.5228 37.3294 94.7879 37.9547 94.7879C38.4684 94.7908 38.9632 94.5946 39.3351 94.2404C40.0729 93.5026 40.0527 92.5199 40.0527 91.69L40.0153 86.8657H38.6147V86.3758C38.6147 86.3758 41.338 86.3557 42.7559 86.3038V95.0156H44.1161V95.5257H42.6781C41.4677 95.5257 41.0326 95.5459 40.1248 95.6006L40.0671 94.1424C39.6694 94.6381 38.7444 95.7332 36.6089 95.7332C35.2112 95.7332 34.3207 95.2029 33.9634 94.4854C33.6752 93.9551 33.6983 93.2721 33.6983 92.7073L33.6608 86.8657H32.2804V86.3758H34.2112V86.3758ZM53.4879 92.8802C52.998 93.8052 51.9749 95.7332 49.1219 95.7332C46.1911 95.7332 44.3957 93.4825 44.3957 90.8571C44.3957 88.3441 46.096 86.1136 49.1392 86.1136C51.0297 86.1136 52.0729 86.9234 52.5254 87.3989C53.5628 88.4738 53.6032 89.6093 53.6205 90.422H47.3092C47.3265 92.03 47.3669 93.4825 48.1594 94.3182C48.3822 94.5333 48.646 94.7014 48.9352 94.8123C49.2243 94.9232 49.5329 94.9747 49.8424 94.9637C51.8827 94.9637 52.6608 93.2404 52.9231 92.6381L53.4879 92.8802ZM50.7271 89.8542C50.7473 88.3787 50.7674 86.641 49.0643 86.641C47.4591 86.641 47.3842 88.249 47.3236 89.8542H50.7271ZM55.5283 90.9695C55.6234 91.517 55.7156 92.0098 56.0383 92.6727C57.1738 95.0156 59.2343 95.0732 59.6522 95.0732C61.145 95.0732 62.4101 94.1828 62.4101 92.8052C62.4101 91.4277 61.3698 90.9695 58.5138 89.7995C58.0614 89.6093 57.6262 89.4392 57.2113 89.2145C56.7185 88.9493 55.096 88.0012 55.096 85.8283C55.096 83.4853 56.9634 81.9176 59.5945 81.9176C61.2401 81.9176 62.5254 82.4623 63.2055 82.7476L63.3957 85.9263H62.7905C62.5254 84.9436 62.3726 84.3931 61.7156 83.7332C61.0556 83.0531 60.1824 82.5776 59.2401 82.5776C57.802 82.5776 57.0441 83.543 57.0441 84.5286C57.0441 85.7361 58.1421 86.249 58.632 86.4767C59.2747 86.7764 59.9173 87.0041 60.56 87.2692C62.2055 87.9291 64.266 88.9119 64.266 91.5026C64.266 93.9436 62.3582 95.739 59.1623 95.739C57.5369 95.739 56.2891 95.2865 55.0614 94.8513L54.949 90.9724H55.5283V90.9695ZM67.0153 82.1799C67.9807 82.1799 68.2055 82.1626 69.0557 82.1049L69.0182 87.7562C69.3755 87.1914 69.7358 86.6583 70.8136 86.3384C71.266 86.1885 71.7185 86.1338 72.194 86.1338C73.5946 86.1338 74.2747 86.6813 74.5773 86.9637C75.2776 87.664 75.3323 88.494 75.3727 89.2145L75.4101 95.0358H76.7156V95.5286H71.1767V95.0358H72.632L72.6695 89.177C72.6695 88.4392 72.6695 86.9637 71.194 86.9637C70.6609 86.9706 70.1522 87.1881 69.779 87.5689C69.1335 88.2116 69.0787 89.0646 69.0211 90.1568L69.0585 95.0329H70.4764V95.5257H64.9548V95.0329H66.3352V82.6698H64.9548V82.1799H67.0153V82.1799ZM81.2286 86.3038V95.0329H82.5341V95.5257H77.0124V95.0329H78.4303V86.8657H77.0124V86.3758C77.0124 86.3758 79.9231 86.3557 81.2286 86.3038ZM78.2603 83.5804C78.2603 82.7678 78.9404 82.0848 79.7732 82.0848C80.5859 82.0848 81.2488 82.7447 81.2488 83.5804C81.2488 84.4162 80.5888 85.0761 79.7732 85.0761C79.3787 85.0641 79.0034 84.9032 78.7228 84.6257C78.4421 84.3482 78.2768 83.9748 78.2603 83.5804V83.5804ZM92.243 92.8802C91.7531 93.8052 90.7329 95.7332 87.877 95.7332C84.9433 95.7332 83.1508 93.4825 83.1508 90.8571C83.1508 88.3441 84.8511 86.1136 87.8943 86.1136C89.7848 86.1136 90.8251 86.9234 91.2805 87.3989C92.3179 88.4738 92.3554 89.6093 92.3756 90.422H86.0643C86.0816 92.03 86.122 93.4825 86.9145 94.3182C87.1371 94.5336 87.4009 94.7018 87.6901 94.8127C87.9793 94.9237 88.2879 94.975 88.5975 94.9637C90.6378 94.9637 91.4159 93.2404 91.6753 92.6381L92.243 92.8802ZM89.4851 89.8542C89.5024 88.3787 89.5197 86.641 87.8222 86.641C86.2142 86.641 86.1392 88.249 86.0816 89.8542H89.4851V89.8542ZM95.1738 82.1799C96.0615 82.1626 96.3266 82.1626 97.1566 82.1049V95.0329H98.4649V95.5257H92.9433V95.0329H94.3612V82.6698H92.9433V82.1799H95.1738ZM106.168 82.1799C107.266 82.1799 107.609 82.1626 108.456 82.1049V95.0156H109.799V95.5257C109.799 95.5257 106.963 95.5459 105.733 95.6006V94.3499C105.301 94.8975 104.621 95.7303 102.863 95.7303C100.027 95.7303 98.8914 93.1568 98.8914 91.079C98.8914 88.1136 100.667 86.2058 103.108 86.2058C104.278 86.2058 104.903 86.5833 105.338 87.0156C105.527 87.1819 105.664 87.3989 105.733 87.641L105.695 82.6669H104.298V82.177H106.168V82.1799ZM102.502 87.4536C101.955 88.0214 101.857 89.1366 101.857 90.9119C101.857 93.0877 101.914 94.9003 103.655 94.9003C103.926 94.9043 104.195 94.8527 104.446 94.7486C104.696 94.6445 104.922 94.4902 105.11 94.2952C105.621 93.7678 105.77 93.1049 105.77 90.7245C105.77 89.0214 105.77 86.9436 103.768 86.9609C103.534 86.952 103.301 86.9912 103.084 87.076C102.866 87.1607 102.668 87.2893 102.502 87.4536V87.4536ZM102.961 67.4277C102.962 66.9176 103.114 66.4193 103.398 65.9956C103.682 65.5719 104.085 65.2419 104.557 65.047C105.028 64.8522 105.547 64.8014 106.047 64.901C106.547 65.0006 107.007 65.2461 107.368 65.6066C107.728 65.9671 107.974 66.4264 108.075 66.9265C108.175 67.4267 108.125 67.9453 107.93 68.4169C107.736 68.8886 107.406 69.2921 106.983 69.5766C106.56 69.8611 106.061 70.0139 105.551 70.0156C104.865 70.0148 104.207 69.742 103.721 69.2569C103.236 68.7719 102.962 68.1141 102.961 67.4277V67.4277ZM107.713 67.4277C107.724 67.1406 107.676 66.8542 107.571 66.5865C107.467 66.3188 107.308 66.0757 107.105 65.8722C106.902 65.6687 106.66 65.5094 106.392 65.4041C106.125 65.2989 105.839 65.25 105.551 65.2605C105.263 65.2497 104.976 65.2983 104.708 65.4032C104.439 65.5081 104.195 65.6672 103.991 65.8704C103.787 66.0737 103.626 66.3169 103.52 66.5848C103.413 66.8527 103.363 67.1396 103.373 67.4277C103.373 68.6957 104.286 69.6035 105.551 69.6035C106.811 69.6035 107.713 68.6957 107.713 67.4277ZM104.961 68.8888H104.583V65.9378H105.854C106.621 65.9378 106.883 66.226 106.883 66.7562C106.883 67.3239 106.485 67.5372 105.969 67.5775L106.851 68.8888H106.425L105.592 67.5775H104.961V68.8888V68.8888ZM105.482 67.2375C105.897 67.2375 106.474 67.3009 106.474 66.7476C106.474 66.3326 106.131 66.2807 105.773 66.2807H104.963V67.2375H105.482ZM108.975 84.3931C108.976 83.8823 109.129 83.3834 109.413 82.9591C109.698 82.5349 110.101 82.2045 110.573 82.0095C111.046 81.8146 111.565 81.7639 112.066 81.8638C112.567 81.9638 113.027 82.2098 113.388 82.571C113.749 82.9322 113.995 83.3923 114.095 83.8932C114.195 84.3941 114.144 84.9134 113.949 85.3855C113.754 85.8576 113.424 86.2614 113 86.5459C112.576 86.8303 112.077 86.9828 111.566 86.9839C110.879 86.9831 110.22 86.7099 109.735 86.2242C109.249 85.7385 108.976 85.08 108.975 84.3931V84.3931ZM113.727 84.3931C113.738 84.1065 113.689 83.8207 113.584 83.5537C113.479 83.2868 113.32 83.0443 113.117 82.8415C112.915 82.6386 112.672 82.4798 112.405 82.3749C112.138 82.27 111.852 82.2212 111.566 82.2317C110.304 82.2317 109.387 83.1366 109.387 84.3931C109.387 85.664 110.301 86.5718 111.566 86.5718C112.822 86.5718 113.727 85.664 113.727 84.3931ZM110.975 85.8571H110.597V82.9061H111.866C112.635 82.9061 112.894 83.1972 112.894 83.7217C112.894 84.2923 112.494 84.5055 111.981 84.5459L112.863 85.8571H112.439L111.606 84.5459H110.975V85.8571V85.8571ZM111.497 84.2C111.912 84.2 112.485 84.2692 112.485 83.713C112.485 83.298 112.142 83.2461 111.788 83.2461H110.978V84.2H111.497" fill="black"/></g></g></svg>