<svg width="108" height="109" viewBox="0 0 108 109" fill="none" xmlns="http://www.w3.org/2000/svg"><g id="Department of Health &amp; Human Services"><g id="Vector"><path d="M53.7222 3.44724C53.8393 3.8957 53.3224 3.70659 53.1549 3.96594C53.344 4.93129 53.6267 5.87143 54.0032 6.79176C54.1689 6.74313 54.1454 6.55222 54.2391 6.43515C54.5237 5.65891 54.7326 4.83403 55.0406 4.05959C55.0874 3.58772 54.2643 3.96594 54.5237 3.42383C54.9217 3.23652 55.4638 3.42383 55.9573 3.35539C56.1914 3.3788 56.4526 3.33017 56.5912 3.49407C56.7101 4.12983 55.9105 3.65976 55.8168 4.17846C55.2279 5.52023 54.828 6.95385 54.1923 8.27401C54.0284 8.41449 53.7222 8.36586 53.4845 8.34244L53.344 8.20016C52.8757 6.81337 52.4993 5.37434 51.9338 4.03438C51.7699 3.73 51.0855 3.96594 51.2962 3.44724C51.8635 3.28335 52.5695 3.44724 53.1549 3.30496C53.3692 3.30496 53.6033 3.28335 53.7222 3.44724ZM59.228 3.56611C59.3486 3.61293 59.3684 3.77503 59.2982 3.8957C59.1343 4.20007 58.594 3.87048 58.5706 4.31894C58.5237 5.52023 58.3094 6.64767 58.3094 7.84896C58.4751 8.0849 58.9938 8.06148 58.8281 8.4361C58.0987 8.60179 57.3459 8.38927 56.5912 8.36586C56.4994 8.27401 56.521 8.10831 56.5912 8.01105C56.8056 7.84896 57.1586 8.01105 57.2756 7.70668C57.3693 6.48198 57.5818 5.28249 57.535 4.03438C57.3693 3.84707 57.0649 3.99115 56.9695 3.70659C56.946 3.54269 57.0865 3.44724 57.2306 3.42383C57.8862 3.47065 58.5436 3.56611 59.228 3.56611ZM64.2889 4.41079C64.5482 4.81422 64.2654 5.33112 64.1934 5.75256C64.1578 5.79656 64.1086 5.8275 64.0535 5.84054C63.9984 5.85357 63.9406 5.84797 63.889 5.8246C63.6531 5.49501 63.7936 4.99973 63.3937 4.71877C62.9939 4.36577 62.2897 4.34235 61.7962 4.52966C60.9227 5.1186 60.9011 6.1776 60.9461 7.16817C61.0884 7.75531 61.5585 8.29562 62.1708 8.4361C62.7111 8.50634 63.1596 8.36586 63.536 8.0849C63.6531 8.06148 63.7702 8.10831 63.7702 8.22538C63.6531 8.62521 63.2046 8.86114 62.8985 9.1421C61.7962 9.33121 60.6418 9.00162 60.0762 8.01105C59.5107 7.02409 59.7466 5.58867 60.3824 4.71877C60.9714 3.94072 61.8647 3.75161 62.8066 3.8957C63.3235 4.03438 63.8188 4.20007 64.2889 4.41079ZM45.4825 5.1186C45.5311 5.25908 45.3906 5.39956 45.2718 5.42297C44.8269 5.35453 44.7765 4.43601 44.1425 4.85925C44.0254 4.9529 43.8129 4.88446 43.7427 5.09518C43.7427 5.54184 43.8832 5.91826 43.9534 6.31808C44.0489 6.50719 44.238 6.3433 44.3784 6.36491C44.5892 6.1776 44.4721 5.61388 44.9187 5.80119L45.061 5.96688C45.061 6.46217 45.2267 6.95385 45.2267 7.42572C45.1313 7.51937 44.9656 7.49416 44.8719 7.44913C44.7314 7.2132 44.5892 6.81337 44.2145 7.00248C44.002 7.14296 44.0957 7.42572 44.1191 7.63824C44.2596 7.9192 44.1641 8.31903 44.4019 8.55497C44.7765 8.45951 45.2718 8.55497 45.5311 8.20016C45.5797 7.9192 45.6013 7.61303 45.8373 7.44913C45.9778 7.44913 46.12 7.47255 46.1435 7.59141C46.0498 8.06148 46.2857 8.69725 45.9075 9.00162C44.9187 9.23936 43.8832 9.37984 42.943 9.54553C42.871 9.56715 42.8007 9.47169 42.8007 9.42667C42.8241 9.00162 43.649 8.9548 43.2726 8.36586C43.0349 7.33207 42.943 6.24784 42.7071 5.23566C42.5198 4.9529 41.884 5.21225 42.0245 4.71877L42.2352 4.5999C43.1087 4.38918 44.0723 4.34235 44.9422 4.10642C45.4122 4.17846 45.297 4.76559 45.4825 5.1186ZM49.225 5.87143C49.1382 5.94357 49.0365 5.99566 48.9272 6.02399C48.818 6.05232 48.7038 6.05619 48.5929 6.03532C48.3785 5.73095 48.3785 5.35453 48.3551 4.97812C48.4037 4.69535 48.2381 4.31894 48.4974 4.15324C48.8504 4.10642 49.2016 4.17846 49.3439 4.52966C49.3907 4.93129 49.533 5.52023 49.225 5.87143ZM51.8635 8.25059C51.1323 7.61303 50.5434 7.09613 49.9094 6.36491L49.886 6.1776C50.1435 5.94347 50.3561 5.68412 50.4731 5.37434C50.5668 4.99973 50.5668 4.50805 50.3561 4.17846C49.533 2.8601 47.9337 3.96594 46.6856 3.77503L46.5433 3.8957C46.3794 4.38918 47.0151 4.20007 47.2259 4.41079C47.3916 5.58867 47.5789 6.76654 47.6257 7.99124C47.5338 8.25059 47.2259 8.20016 47.0602 8.36586C47.0151 8.45951 46.9917 8.64682 47.1088 8.72066C47.885 8.7909 48.5929 8.53155 49.3673 8.50634C49.7203 7.89579 48.8252 8.22538 48.6631 7.84896L48.519 6.71971C48.5676 6.60085 48.6847 6.55222 48.8018 6.57743L50.4497 8.25059C50.873 8.38927 51.2962 8.53155 51.7447 8.57838C51.8851 8.55497 51.9104 8.36586 51.8635 8.25059ZM68.4078 5.44819C68.4872 5.87828 68.4038 6.32254 68.1737 6.6945C68.0062 6.74313 67.8891 6.62606 67.8207 6.50719C67.7486 6.24784 67.8441 5.91826 67.5361 5.8246C67.3002 5.77777 67.0426 5.56525 66.8319 5.73095C66.6194 6.13078 66.3835 6.57743 66.4771 7.02409C66.6194 7.09613 66.7851 7.14296 66.9238 7.09613C67.066 6.93044 67.2534 6.64767 67.4893 6.81337C67.6316 6.93044 67.4893 7.07092 67.4893 7.2132L67.1597 8.38927C67.066 8.50634 66.9238 8.53155 66.7851 8.48293C66.596 8.25059 66.8769 7.70668 66.4069 7.68327C66.007 7.65805 66.1493 8.0849 66.007 8.27401C66.0557 8.62521 65.5136 9.05025 66.0304 9.26097C66.4555 9.306 66.9958 9.61217 67.2786 9.05025C67.3254 8.9548 67.419 8.83593 67.5361 8.81071C67.6784 8.81071 67.8207 8.88456 67.8441 9.05025C67.5109 9.44828 67.4425 10.392 66.713 10.1795C65.8666 9.89674 64.9714 9.70943 64.0997 9.47169C64.0547 9.37984 63.9827 9.26097 64.0547 9.18893C64.2654 8.93138 64.7121 9.21414 64.8076 8.83593C65.1371 7.63824 65.5586 6.46217 65.7477 5.25908C65.6306 5.06997 65.2308 5.1186 65.3262 4.76559C65.3965 4.57469 65.6306 4.67194 65.7477 4.69535C66.6194 4.97812 67.5595 5.1186 68.4078 5.44819ZM40.8484 6.15419C40.8952 6.29647 40.7764 6.41354 40.6827 6.46217C40.2127 6.50719 40.3279 5.87143 39.8831 5.80119C39.6471 5.70753 39.413 5.8246 39.2005 5.89484C38.9429 6.08395 38.9195 6.38832 38.9898 6.67109C39.5769 7.63824 41.0375 7.0475 41.6247 8.12992C41.9056 8.60179 41.884 9.26097 41.5544 9.68421C40.9655 10.4136 39.9767 10.6478 39.1284 10.392C38.8524 10.0521 38.7034 9.62675 38.707 9.18893C38.8006 9.07546 38.9645 9.02324 39.0834 9.12049C39.2473 9.49691 39.6471 9.94356 40.119 9.92015C40.3531 9.82289 40.7061 9.77787 40.7764 9.47169C40.7764 9.12049 40.8484 8.74407 40.4954 8.53155C39.6471 7.99124 38.1397 8.27401 37.9289 6.93044C37.8605 6.38832 38.1397 5.89484 38.5881 5.58867C39.1536 5.25908 39.8128 5.06997 40.4954 5.1186C40.753 5.39956 40.7313 5.80119 40.8484 6.15419ZM72.7843 6.97726C72.7609 7.42572 72.5502 7.87238 72.2908 8.25059C72.1504 8.27401 72.0099 8.17675 71.9378 8.06148C71.9378 7.77872 72.0549 7.37529 71.8442 7.14296C71.7019 6.95385 71.466 6.90702 71.2318 6.88361C70.9725 6.85839 70.7618 7.0475 70.6663 7.26002C70.4322 8.48293 72.2908 9.07546 71.7956 10.3668C71.6803 10.8873 71.1148 11.2601 70.6429 11.379C69.773 11.424 68.9247 11.1196 68.4294 10.3434C68.6437 9.96698 68.5951 9.44828 68.9031 9.18893C69.0436 9.16732 69.139 9.21414 69.2327 9.33121C69.2075 9.68421 69.1138 10.0624 69.3245 10.3668C69.4628 10.5602 69.6619 10.7016 69.8901 10.7684C70.1476 10.8135 70.3133 10.6982 70.5024 10.5541C70.7365 10.3434 70.7618 9.98859 70.6915 9.68421C70.2899 8.7909 68.9733 8.01105 69.6775 6.88361C69.8901 6.5288 70.2899 6.31808 70.6663 6.24784C71.5146 6.15419 72.1251 6.62606 72.7843 6.97726ZM34.471 7.30685C34.5628 7.73189 33.8568 7.68327 34.0927 8.10831L35.6704 11.8274C35.7173 12.1336 35.3643 12.085 35.222 12.2273L34.941 12.2021C33.8932 11.5144 32.817 10.8709 31.7154 10.2732V10.5325L32.7276 12.5785C32.823 12.7424 33.0806 12.6973 33.2228 12.6253C33.2931 12.5785 33.4336 12.5316 33.529 12.6019C33.6227 12.6973 33.6695 12.8396 33.6227 12.9567L31.8811 13.85C31.7406 13.8734 31.692 13.7545 31.6451 13.6627C31.5749 13.2845 32.3277 13.2377 31.9981 12.791C31.5749 11.7554 31.0346 10.7432 30.5375 9.75445C30.3286 9.47169 29.5505 9.96698 29.7162 9.35463C30.1161 9.07546 30.5861 8.90977 31.0094 8.67203L31.2453 8.69725L34.118 10.4839H34.2566V10.2497C33.9288 9.56715 33.7163 8.81071 33.2445 8.22538C33.059 8.22538 32.9167 8.34244 32.7041 8.29562C32.6105 8.22538 32.515 8.10831 32.5655 7.99124L32.7744 7.82375C33.2931 7.63824 33.7632 7.28344 34.3521 7.2132L34.471 7.30685ZM79.187 10.0372C79.3041 10.1075 79.3293 10.2497 79.2824 10.3668C79.0231 10.6982 78.7637 10.2011 78.4792 10.4587C77.9155 11.379 77.2095 12.2273 76.9501 13.2845C76.9501 13.7311 77.1608 14.1328 77.5643 14.3453C77.9155 14.556 78.4342 14.4624 78.7403 14.203C79.5634 13.4268 80.1037 12.5316 80.5756 11.6149C80.5522 11.334 80.0335 11.1683 80.3865 10.8873L80.599 10.9071L81.966 11.8274C82.011 11.9427 82.011 12.1336 81.8453 12.1786C81.6346 12.2021 81.4707 12.0147 81.2564 12.1066C80.4333 13.1908 79.6823 14.909 78.1496 15.0513C77.2563 15.0261 76.3864 14.4624 76.0568 13.6159C75.8227 12.1552 76.9267 11.143 77.5643 9.96698C77.6813 9.659 76.8817 9.306 77.4922 9.12049L79.187 10.0372ZM74.951 10.1309C74.9899 10.2449 74.9951 10.3677 74.9661 10.4846C74.937 10.6015 74.8749 10.7075 74.7871 10.79C74.6214 10.9557 74.362 10.9557 74.1279 10.9071C73.9996 10.8233 73.9024 10.6996 73.8513 10.5551C73.8002 10.4106 73.798 10.2533 73.8451 10.1075C73.9136 9.94356 74.0793 9.84811 74.2215 9.80128C74.5277 9.75445 74.8321 9.84811 74.951 10.1309ZM27.4541 13.8032H27.4091C27.3605 13.4502 27.1498 13.1206 27.1984 12.7676C27.5046 12.9063 27.7639 13.1458 28.0215 13.3781C27.9746 13.6375 27.6432 13.7545 27.4541 13.8032ZM30.4222 13.85C29.2393 13.0003 28.0779 12.1212 26.939 11.2133C26.6311 11.026 26.3033 11.379 26.1844 11.6383C26.3969 13.072 26.7968 14.4155 27.0327 15.8509C27.1732 16.204 26.7013 16.3913 26.6563 16.7208C26.6815 16.8379 26.8202 16.91 26.9156 16.91L28.4933 15.8275L28.5384 15.5934C28.3979 15.2386 28.0683 15.5682 27.8576 15.5682C27.6432 15.3791 27.6937 15.1233 27.5982 14.8856C27.5262 14.3201 28.2574 14.2732 28.587 13.9455C28.9166 13.8734 29.1039 14.2985 29.3866 14.4371C29.5505 14.7451 29.0084 14.8136 29.1039 15.1233C29.1507 15.2386 29.293 15.3323 29.4335 15.262C30.0458 14.8388 30.7284 14.556 31.3156 14.1328C31.3408 13.4268 30.7518 14.0391 30.4222 13.85ZM85.2583 14.1778C85.2583 14.5794 84.8368 14.8856 84.5523 15.2152C84.4118 15.3106 84.2929 15.19 84.1993 15.0729C84.2695 14.6749 84.6225 14.1328 84.129 13.8032C83.9399 13.6861 83.7058 13.5222 83.4464 13.6627C83.2807 13.7311 83.1637 13.9455 83.07 14.0859C82.9512 15.2152 84.129 16.204 83.2591 17.2612C82.9511 17.5925 82.5765 17.7114 82.1515 17.7582C81.3518 17.7582 80.599 17.1909 80.2694 16.4615C79.9146 15.9464 80.6224 15.5682 80.8583 15.1449C81.0222 15.0981 81.1177 15.2386 81.1879 15.3323C81.0222 15.7087 80.9034 16.2292 81.0925 16.6272C81.2564 16.8145 81.4221 16.9766 81.6562 17.027C81.966 17.0504 82.2469 16.8379 82.4108 16.557C82.7656 15.4043 81.3752 14.556 82.1767 13.4268C82.4361 13.0485 82.789 12.9567 83.1402 12.8612C84.0588 12.8144 84.718 13.5672 85.2583 14.1778ZM23.2667 13.7545C23.3622 14.0859 22.7733 14.203 22.984 14.5092C23.7836 15.4043 24.6553 16.3678 25.5973 17.1441C25.9016 17.2413 26.2565 16.6992 26.4456 17.1675L26.4203 17.3818L24.6805 18.675C24.5617 18.7002 24.4428 18.6516 24.3978 18.5345C24.3726 18.2517 24.7724 18.1094 24.6553 17.8267C24.0898 17.1909 23.5729 16.6038 22.9606 16.0635C22.8435 16.204 22.9606 16.3678 22.984 16.4867C23.2667 17.3548 23.5729 18.1797 23.9277 19.0046C23.9475 19.1685 23.9277 19.3359 23.762 19.4062C23.3136 19.3594 23.0092 19.0046 22.6076 18.8407C21.9718 18.5345 21.4081 18.1329 20.7255 17.9473V18.086L22.1843 19.9213C22.4437 20.0167 22.7949 19.5683 22.9606 19.9699L22.9371 20.1104L21.6422 21.263C21.5251 21.3333 21.3612 21.2883 21.336 21.1478C21.219 20.8164 21.7611 20.6777 21.5486 20.3679C20.8425 19.4062 20.1365 18.439 19.3603 17.5205C19.0073 17.4269 18.7245 18.0644 18.4652 17.5925L18.5138 17.4269L19.7115 16.321H19.9961C20.8678 16.7677 21.6656 17.2864 22.5607 17.6142C22.6544 17.5691 22.6328 17.4269 22.6076 17.3332C22.3014 16.4363 21.9502 15.5934 21.7142 14.6497C22.1141 14.2732 22.5841 13.9455 23.0578 13.6375C23.1245 13.6861 23.2199 13.6627 23.2667 13.7545ZM94.4615 19.5683C95.0037 21.924 93.7537 23.8295 92.3435 25.5225L90.1535 27.6891L68.5717 45.8597C66.5005 47.8571 63.6999 49.2925 62.3816 51.9058C61.0398 55.2485 60.3104 58.8506 59.8421 62.5445C59.5107 65.2028 58.3815 67.7423 55.9339 69.3236C54.0284 70.8995 51.4853 70.8995 48.9206 70.8509L40.2127 70.9229C39.6021 71.0148 38.9645 71.2543 38.6133 71.8648C38.399 72.1242 38.5179 72.8284 37.9542 72.6393C37.7885 72.5961 37.5543 72.5474 37.5759 72.2863C37.5057 70.3106 37.6714 68.2412 39.3644 66.9228C40.2829 66.2168 41.5076 66.17 42.6837 66.0511C46.0264 66.1214 49.2971 65.9557 52.6146 65.9791C53.3692 65.9106 54.0752 65.5792 54.4732 64.8985C55.0153 63.463 54.9469 61.7935 55.2981 60.286C55.8402 56.8244 56.5912 53.4349 57.8394 50.2579C58.4283 48.8477 59.4873 47.5527 60.757 46.4703L68.3142 40.1397L73.7983 35.4768L82.436 28.1592C86.0579 25.029 90.9765 21.571 91.5907 16.6992C91.7312 16.3426 92.086 16.6272 92.2967 16.6992C93.3305 17.3332 94.3193 18.3688 94.4615 19.5683Z" fill="#323A45"/><path d="M86.483 18.675C86.2723 18.5813 85.9895 18.4156 85.9661 18.1563C86.247 17.9672 86.5514 17.8267 86.8828 17.733C86.8612 18.0644 86.6721 18.394 86.483 18.675ZM88.3903 16.8649C88.2246 16.674 88.0355 16.3426 87.7311 16.4165C86.3425 17.0973 84.9989 17.8969 83.5653 18.439C83.3528 18.3688 83.1889 18.2283 82.9512 18.2517C82.8593 18.2968 82.7656 18.3688 82.8125 18.5111C83.1637 19.0046 83.7292 19.2405 84.129 19.6871C84.2695 19.779 84.482 19.8042 84.5757 19.6403C84.6477 19.426 84.482 19.3089 84.3884 19.1684C84.3397 18.8407 84.8134 18.7452 85.0692 18.6029C85.4924 18.6029 85.8004 19.1216 86.1318 19.4062C86.0579 19.7106 86.0111 20.0401 85.7536 20.2743C85.4924 20.3229 85.3988 20.0636 85.143 20.1104C85.0241 20.1824 84.9287 20.3481 84.9989 20.4886L86.5064 21.9474L86.6955 21.9925C86.836 21.9691 86.9765 21.8286 86.9296 21.6629C86.3425 20.9587 87.1656 20.2257 87.3061 19.5233C87.6356 18.6263 88.1075 17.7817 88.3903 16.8649ZM17.9933 18.394C18.0888 18.675 17.6655 18.7668 17.8546 19.0298C18.7479 19.8528 19.7601 20.7209 20.1618 21.8052C20.3257 22.5832 19.9474 23.264 19.3837 23.7593C18.9136 24.1573 18.3031 24.3932 17.6889 24.2312C16.6551 23.8061 15.8303 22.8876 14.937 22.1131C14.6776 22.1131 14.3228 22.4878 14.1571 22.1131L14.2075 21.9474L15.4304 20.5336C15.4755 20.4886 15.5709 20.512 15.6412 20.512C15.7816 20.6039 15.7816 20.793 15.7348 20.9353C15.6412 21.0289 15.6178 21.1478 15.6178 21.2883C16.466 22.0627 17.2657 23.0281 18.3031 23.3577C18.7011 23.4063 19.0073 23.3126 19.2666 23.0281C19.526 22.7705 19.7115 22.3923 19.5494 22.0393C19.1028 21.0505 18.114 20.2491 17.2657 19.5683C17.0082 19.4512 16.4174 20.087 16.466 19.4512C16.8641 19.0298 17.2891 18.5345 17.7592 18.2283C17.8546 18.2283 17.9483 18.2968 17.9933 18.394ZM101.028 26.7724C101.147 29.1011 99.4522 30.7257 97.8511 32.2782L91.6357 37.7605C89.0553 39.9157 86.4899 42.089 83.9399 44.2802L72.0801 54.3084C70.1242 56.0482 69.8901 58.5444 69.3245 60.8966C69.1606 61.8601 68.9733 62.8273 68.8779 63.816C68.9031 64.803 70.054 65.3433 69.8432 66.4023C69.1841 67.7927 68.1953 69.0408 67.6316 70.4528C67.7 70.7824 67.8657 71.1588 68.1953 71.2723C68.8779 71.5821 69.8432 71.2993 70.2683 72.0792C70.3619 72.6195 69.8901 73.3687 70.4538 73.7938C70.7149 74.2422 71.6101 73.6064 71.4426 74.3377C71.2084 74.525 71.1616 74.8059 71.2318 75.0905C71.538 75.4651 72.2206 75.7713 72.0099 76.3818C71.7253 76.996 71.9378 77.7236 72.244 78.2171C73.7281 80.0541 76.363 79.1608 78.4108 79.114C80.0587 79.1608 81.8705 79.114 82.7891 80.6647C83.2807 81.4896 83.1637 82.7377 82.7891 83.5824C81.0673 86.5973 77.4922 87.0674 75.4679 89.8464C74.6214 91.044 74.9023 92.8811 75.5165 94.1058C76.4098 95.4944 77.8686 96.1067 79.54 95.8456L81.1411 95.3989C81.3266 95.471 81.4221 95.6547 81.5157 95.8024C81.5878 96.1266 81.1879 96.3175 80.9988 96.4814C78.8574 98.0375 76.6457 99.4945 73.8199 99.354C72.1251 99.0694 70.3854 97.589 69.9387 95.8708C69.4434 94.3165 69.6775 92.411 70.7366 91.1629C72.5736 89.162 74.9023 88.1066 76.6674 86.0336C77.2329 85.2303 77.3986 84.0326 76.9051 83.1609C75.3742 80.5008 71.9847 81.5382 69.42 81.6084C68.3826 81.5382 67.2317 81.0429 66.9022 79.9623C66.6194 79.114 67.2534 78.1487 66.6896 77.4192C66.2664 77.2049 65.6775 76.9474 65.5586 76.4305C65.4181 76.0306 66.1961 75.7713 65.7261 75.5137C65.4436 75.522 65.1676 75.4287 64.948 75.2508C64.8076 75.0401 64.6184 74.7825 64.7373 74.4763C64.8778 73.9594 65.4883 73.6065 65.3262 72.9941C64.5014 71.9585 63.0876 73.4624 62.36 72.1476C61.8647 70.995 63.0407 70.2169 63.4406 69.275C64.0079 68.2862 65.2524 67.3929 64.7589 66.1448C64.4545 65.5793 63.9593 65.111 64.0079 64.4284C63.9359 63.7674 64.1232 63.2271 64.17 62.6166C64.4546 60.3581 65.0183 58.2148 65.4415 56.0014C66.007 53.6492 67.9143 51.6735 69.8901 50.0724L86.3425 36.163L94.4381 29.0291C96.1797 27.3109 98.0852 25.6161 97.97 23.1001C98.0852 22.8426 98.3446 23.0281 98.5085 23.1001C99.8268 23.9232 100.862 25.2649 101.028 26.7724ZM13.7339 23.1703C13.7339 23.4063 13.4781 23.5702 13.6186 23.8295L16.5597 25.9457C16.9109 26.1114 17.1486 25.2649 17.4548 25.8053L17.4062 26.0646L16.1833 27.6171C16.0662 27.7125 15.9455 27.5937 15.8771 27.5018C15.8069 27.2641 16.041 27.0516 15.996 26.8408C15.6083 26.5154 15.1991 26.2163 14.7713 25.9457C14.3931 26.0196 14.3012 26.441 14.0653 26.7004C13.8996 26.9129 13.7123 27.1236 13.6654 27.4064L14.937 28.2529C15.2666 28.2763 15.5007 27.6423 15.7816 28.0656C15.5007 28.7716 14.982 29.3821 14.5587 29.9963C14.4183 30.0197 14.2544 29.971 14.231 29.8306C14.3462 29.5244 14.5587 29.0291 14.0653 28.8904L11.3565 27.147C11.0053 27.0768 10.7712 27.8314 10.4614 27.3613C10.7225 26.677 11.1944 26.088 11.6411 25.4757C11.7581 25.4288 11.9707 25.4288 12.0175 25.5945C12.0175 25.8539 11.6645 26.1583 12.0409 26.3474C12.4173 26.5365 12.7235 26.9129 13.1467 26.9129L14.0653 25.5945C13.8762 25.1461 13.3827 24.9804 13.0297 24.7228C12.6749 24.5589 12.3939 25.3352 12.1111 24.8651C12.3939 24.1825 12.9576 23.617 13.4295 23.0281C13.5466 23.0065 13.687 23.0281 13.7339 23.1703ZM10.9351 35.0337C10.5118 35.1256 10.0418 35.0806 9.75719 34.7492C9.66354 34.6069 9.54647 34.4898 9.56989 34.3259C10.1997 33.9168 10.937 33.7043 11.6879 33.7154L11.7581 33.7838C11.7408 34.0456 11.6558 34.2983 11.5115 34.5174C11.3673 34.7365 11.1686 34.9144 10.9351 35.0337ZM8.98095 33.2669C8.69819 33.312 8.39201 33.4074 8.10925 33.2921C7.89853 33.1967 7.80487 32.9608 7.87511 32.7266C8.04081 32.3736 8.60453 32.3484 8.81705 32.6528C8.91071 32.8437 9.09801 33.031 8.98095 33.2669ZM13.0531 31.9504C12.7937 31.8531 12.7469 32.1611 12.6298 32.2782C12.4641 32.4421 12.275 32.5609 12.0409 32.5123C11.805 32.4204 11.7816 32.1125 11.6411 31.9504C11.3115 31.3362 10.6505 31.1273 10.0634 31.2426C9.64193 31.3362 9.78061 31.8297 9.71037 32.1359C9.9463 32.4871 10.1354 31.8531 10.5118 32.0188C10.8648 32.0674 11.2863 32.2313 11.3799 32.5861C11.0287 32.678 10.6757 32.7716 10.3227 32.8437C10.0418 32.8437 9.82743 33.1967 9.54647 33.0544C9.47443 32.5393 9.4276 31.9252 8.83867 31.7144C8.46225 31.5974 8.0174 31.6442 7.73463 31.972C7.23935 32.4673 7.02863 33.2453 7.28798 33.9045C7.43963 34.1579 7.68369 34.3425 7.96877 34.4196C8.29836 34.5132 8.74681 34.3512 9.05299 34.5601C9.0746 35.149 9.21688 35.7596 9.80582 36.0657C10.2273 36.2548 10.7928 36.3503 11.1944 36.0657C11.5773 35.8175 11.8793 35.4628 12.0633 35.0452C12.2472 34.6277 12.3052 34.1654 12.23 33.7154C12.3003 33.5497 12.4876 33.5497 12.6298 33.5011C13.2422 33.312 12.9828 32.5609 13.1702 32.0927L13.0531 31.9504ZM5.80573 38.0433C5.80573 38.2558 5.73189 38.5151 5.99123 38.6106C7.16911 38.9384 8.29836 39.3364 9.49964 39.5741C9.71037 39.4103 9.73378 38.9852 10.0868 39.0573L10.2273 39.2698C9.99313 39.9506 9.80582 40.68 9.52126 41.3392C9.48903 41.3509 9.45474 41.356 9.42049 41.354C9.38624 41.3521 9.35275 41.3432 9.32206 41.3278C9.29138 41.3125 9.26415 41.291 9.24203 41.2648C9.21992 41.2386 9.2034 41.2081 9.19347 41.1753C9.12323 40.9177 9.35736 40.5395 8.95753 40.4909C8.46225 40.4675 8.10925 40.091 7.59235 40.1847C7.30134 40.703 7.14701 41.2869 7.14389 41.8813C7.61577 42.092 8.15788 42.1388 8.67657 42.2793C8.93412 42.1154 8.91071 41.5517 9.33215 41.7642C9.45282 42.1388 9.2385 42.5152 9.14664 42.87C8.86388 43.223 9.2385 44.2352 8.50908 44.0695C8.25153 43.8102 8.69819 43.3167 8.22812 43.2428C7.07365 42.9169 5.92099 42.6809 4.74492 42.4216C4.5324 42.6089 4.5324 43.0826 4.1794 43.0105C3.94346 42.9385 4.06233 42.6341 4.10735 42.4684C4.22622 41.8579 4.3685 41.2689 4.58103 40.7052C4.65127 40.6097 4.83857 40.6332 4.91061 40.7052C5.09792 40.9393 4.74492 41.3392 5.19158 41.4346C5.66165 41.386 6.2758 42.0452 6.55676 41.4112L6.88635 39.9974C6.53334 39.7146 6.03986 39.7398 5.61662 39.5507C5.21499 39.5273 5.21499 40.444 4.81516 39.9037C5.02768 39.1959 5.12134 38.3963 5.52116 37.7875C5.68686 37.7353 5.80573 37.8794 5.80573 38.0433Z" fill="#323A45"/><path d="M97.1217 38.3711C98.0402 40.046 98.0402 42.5152 96.7903 44.0227C95.8267 45.2456 94.6975 46.2109 93.5448 47.3168L80.5522 58.141C78.5999 59.6503 77.9155 61.8151 78.0577 64.2159C78.0577 64.9453 78.7151 65.4406 78.4342 66.1934C78.128 66.876 77.8218 67.5802 77.4454 68.2412C77.3986 68.4753 77.3986 68.7833 77.5859 68.9706C78.0794 69.3452 79.2086 69.0408 79.115 70.0278C79.0933 70.3106 79.0231 70.5951 79.1636 70.8293C79.3743 71.4416 80.3865 70.6383 80.1524 71.51C79.9867 71.6757 79.9867 71.9369 80.0335 72.1476C80.3631 72.6897 81.1177 72.3836 81.3752 72.9941C81.4455 73.6767 81.5878 74.525 82.3658 74.7339C83.6824 75.0401 84.8134 74.4511 85.9427 74.0549C88.3903 72.8752 91.1188 72.2413 94.0833 72.4988C96.2968 72.8284 98.2491 73.8676 100.484 74.1954C101.992 74.525 103.712 74.2638 105.194 74.1954C105.383 74.2872 105.241 74.4764 105.17 74.5952C102.745 77.4913 99.6143 80.0307 95.7331 79.114C93.1432 78.6205 91.072 76.8537 88.5307 76.1963C84.7648 75.6272 82.0344 78.2171 78.2901 77.6318C77.5391 77.5345 76.9051 77.0194 76.5269 76.3368C76.1739 75.7011 76.5035 74.8996 76.4566 74.2188C76.1973 73.7469 75.1869 73.8172 75.4463 73.0427C75.4679 72.8752 75.7975 72.7366 75.5381 72.5709C75.2788 72.5474 75.0212 72.5474 74.8087 72.3583C74.2666 71.8396 75.1869 70.9229 74.3854 70.5447C73.6326 70.4997 72.6204 70.7572 72.2908 69.8891C72.1504 69.275 72.5268 68.7833 72.7843 68.2862C73.1373 67.5352 73.9136 66.9228 73.8199 65.9791C73.6326 65.4406 73.2094 65.0371 73.1842 64.45C73.6326 61.1559 73.5858 57.5773 76.716 55.4611L89.379 44.7989C91.5421 42.8916 93.8492 41.2455 95.8502 39.0572C96.1563 38.6808 96.322 38.209 96.6498 37.856C96.9326 37.8794 97.0028 38.1855 97.1217 38.3711Z" fill="#323A45"/><path d="M5.26182 43.8588C5.33206 44.1163 5.05109 44.1866 4.8854 44.2568C4.67288 44.3055 4.3685 44.2568 4.29646 44.5396C4.34329 44.7989 4.08574 45.1537 4.41533 45.2942C5.54458 45.5302 6.69904 45.7643 7.8517 45.8597C8.06242 45.6454 8.0174 45.0565 8.48746 45.2456C8.65136 45.5302 8.41722 45.8597 8.41722 46.1875C8.32357 46.6576 8.29836 47.1997 8.10925 47.6464C8.07055 47.6703 8.02596 47.683 7.98047 47.683C7.93499 47.683 7.89039 47.6703 7.8517 47.6464C7.56894 47.4375 7.96877 46.8701 7.4987 46.8215C6.32082 46.7044 5.2384 46.4001 4.06233 46.2812C3.85161 46.5387 3.92185 46.917 3.89843 47.2213C4.10735 47.4573 4.67288 47.4573 4.55761 47.9057C4.39192 48.0732 4.1794 47.9057 3.99209 47.9291C3.68411 47.7887 3.23926 47.9057 3.07356 47.5527C3.40315 46.328 3.47339 44.9898 3.77957 43.7381L3.89843 43.6697C4.34329 43.7633 4.93223 43.5274 5.26182 43.8588ZM7.94535 48.7756C8.06242 49.8112 7.70942 50.8 7.80487 51.9058C7.73463 51.9779 7.70942 52.1183 7.59235 52.0931C7.42846 52.1652 7.30959 52.0013 7.28798 51.8842C7.23935 51.7185 7.30959 51.5078 7.12048 51.3889C5.85075 51.4339 4.74492 51.1062 3.44998 51.225C3.1438 51.3421 3.33291 51.9779 2.86284 51.7887C2.64852 51.2016 2.90787 50.6091 2.86284 49.9751C2.90787 49.8112 2.83943 49.5753 3.05015 49.4834C3.26267 49.4132 3.33291 49.5753 3.40315 49.7194C3.47339 49.8598 3.33291 50.1174 3.59226 50.1894C4.69809 50.3767 5.96962 50.2579 7.09887 50.4002L7.23935 50.2579C7.14389 49.8598 7.54552 49.2475 7.00341 49.0602C6.83952 48.9665 6.65041 48.8945 6.50993 48.754C6.46491 48.5901 6.53334 48.4244 6.69904 48.3776C7.12048 48.4712 7.54552 48.6099 7.94535 48.7756ZM5.45092 55.6952C5.09582 55.6651 4.751 55.5608 4.43874 55.389C4.67288 55.1297 5.07451 55.0612 5.4023 55.0108L5.52116 55.1531C5.49775 55.3404 5.56619 55.5547 5.45092 55.6952ZM7.73463 55.8825C7.70942 55.7438 7.56894 55.6466 7.40324 55.6952C7.21594 55.7438 7.21594 55.9761 7.23935 56.1436C6.98 56.4264 6.69904 56.0968 6.41628 56.0968C5.94441 55.8357 6.20376 55.2017 6.13352 54.755C6.41628 54.5407 6.74587 54.4255 7.09887 54.3534C7.26276 54.4939 7.21594 54.7316 7.30959 54.8955C7.45007 54.9442 7.66259 54.964 7.70942 54.7785L7.73463 52.6118L7.63918 52.4966C7.07365 52.3309 7.40324 53.0351 7.02863 53.1773C5.68686 53.696 4.39192 54.33 3.00332 54.755L2.74397 54.9892C2.70626 55.1068 2.7016 55.2325 2.7305 55.3525C2.75941 55.4726 2.82076 55.5824 2.90787 55.67L6.88635 57.0135C7.26276 57.1072 7.35822 57.507 7.4987 57.788C7.56894 57.815 7.73463 57.8618 7.80487 57.743C7.89853 57.1072 7.70942 56.5183 7.73463 55.8825Z" fill="#323A45"/><path d="M7.96877 58.5444C8.04081 59.5566 8.15788 60.567 8.29836 61.5323C8.25153 61.6728 8.04081 61.6962 7.94535 61.6026C7.75805 60.4985 6.69904 61.4153 6.03986 61.2244L4.0173 61.4153C3.52202 61.4387 3.99209 62.2618 3.40315 62.0744C3.19243 61.6278 3.19243 61.1091 3.16721 60.6138C3.19243 60.0483 2.72056 59.2972 3.26267 58.9208C3.54363 58.7804 3.85161 58.7551 4.1794 58.7083C4.27305 58.8272 4.39192 58.9911 4.27305 59.1081C4.08574 59.2973 3.77957 59.3189 3.68411 59.5566C3.73274 59.861 3.6625 60.1906 3.85161 60.4247L5.09792 60.3328C5.28703 60.214 5.19158 59.9798 5.16636 59.8159C5.00247 59.6268 4.50898 59.7421 4.62605 59.3657C5.07451 59.1316 5.64003 59.155 6.15513 59.1081C6.25058 59.1316 6.36945 59.1802 6.41628 59.272C6.39106 59.6971 5.33206 59.6755 5.96962 60.2374C6.46491 60.1906 7.02863 60.2374 7.40324 59.9798C7.42846 59.5566 7.40324 59.1316 7.09887 58.8506C6.86473 58.7551 6.53334 58.7317 6.41628 58.4976C6.36945 58.3787 6.46491 58.2833 6.55676 58.2364C7.05024 58.2833 7.63918 58.1932 7.96877 58.5444ZM8.62795 63.038C8.60453 63.5567 8.91071 63.9565 8.83867 64.4968C8.79184 64.6391 8.60453 64.5923 8.50908 64.5689C8.34698 64.2627 8.13446 63.9331 7.70942 64.0988C7.35822 64.3095 6.74587 64.1438 6.58017 64.5923C6.65041 65.0894 6.79269 65.5342 6.88635 66.0061C7.12048 66.3339 7.45007 65.9557 7.73463 66.0061C8.0174 65.8872 8.39201 65.9323 8.58112 65.6279C8.60453 65.4172 8.53249 65.1308 8.76843 65.0371C9.28712 65.0642 9.12323 65.6999 9.26371 66.0277L9.54647 67.2488C9.49964 67.3677 9.33215 67.3677 9.23849 67.3479C9.02777 67.1822 8.95753 66.5932 8.50908 66.8274C7.40324 67.1353 6.29741 67.4397 5.19158 67.7423C5.00247 67.9818 5.26182 68.6392 4.76833 68.5221C4.50183 67.8021 4.32813 67.051 4.25144 66.2871C4.29646 66.17 4.43874 66.1448 4.55761 66.1934C4.69809 66.3573 4.72151 66.568 4.8854 66.7121C5.35547 66.5464 5.96962 66.5932 6.29741 66.2168C6.20393 65.6717 6.0623 65.1358 5.87417 64.6157C5.38068 64.6157 4.81516 64.6607 4.43874 65.0155C4.41533 65.2281 4.48557 65.509 4.27305 65.6045C4.10735 65.6495 3.94346 65.509 3.92185 65.3433C3.85161 64.7346 3.6625 64.1438 3.54363 63.5351C3.54363 63.4414 3.54363 63.319 3.68411 63.3009C3.87322 63.2037 3.99209 63.463 4.06233 63.5819C4.06233 63.6972 4.20281 63.7926 4.29646 63.8611C5.49775 63.5819 6.69904 63.3694 7.87511 63.0632C8.15788 62.8723 7.8517 62.1681 8.41722 62.3338L8.62795 63.038ZM11.0287 71.1336C11.2394 71.6289 11.3799 72.1476 11.6159 72.6393C11.6645 72.7816 11.5456 72.8518 11.452 72.9022C11.0773 72.8752 11.0503 72.2179 10.6505 72.4754C9.5915 72.9473 8.48746 73.3237 7.42846 73.7938C7.12048 74.0315 7.63918 74.6655 7.02863 74.642C6.58017 73.7703 6.25058 72.8518 5.89938 71.9369C5.99123 71.4902 6.50993 71.4182 6.81611 71.1588C6.95839 71.1336 7.07365 71.2291 7.12048 71.3462C7.14389 71.6505 6.74587 71.7928 6.65041 72.0792C6.72245 72.3331 6.76928 72.6393 6.98 72.805C7.47348 72.6897 7.94535 72.524 8.3704 72.2413C8.32357 72.0269 8.25153 71.7928 8.08764 71.6757C7.89853 71.6289 7.61577 71.7928 7.56894 71.5353C7.47348 71.3462 7.70942 71.2291 7.82829 71.1588C8.25153 71.0652 8.60453 70.7572 9.0746 70.7356C9.12971 70.7793 9.1673 70.8414 9.18052 70.9104C9.19374 70.9795 9.18172 71.0511 9.14664 71.112C9.02777 71.2723 8.67657 71.3696 8.83867 71.6505C8.91071 71.7712 8.95753 71.9369 9.09801 71.9585C9.56989 71.8144 10.0634 71.6992 10.4614 71.393C10.4614 71.1823 10.4164 70.8761 10.6037 70.6888C10.9117 70.6167 10.9117 70.9679 11.0287 71.1336ZM51.0855 76.9474C56.4526 78.7106 61.6756 80.8772 66.7365 83.3735C68.3358 84.3388 70.9509 85.3042 70.9725 87.6095C70.5024 92.1301 63.6999 92.7892 64.4545 97.7745C64.6437 99.5197 65.6306 101.283 67.3254 102.059C67.8657 102.365 68.5483 102.389 69.1606 102.484C69.9387 102.789 70.9257 101.706 71.257 102.859C71.3255 103.354 70.7149 103.428 70.4322 103.707C67.8891 105.261 64.2438 107.073 61.3946 104.907C59.7935 103.756 59.0641 101.991 59.0172 100.06C59.0641 96.928 62.1006 95.0207 64.2168 92.9027C65.1371 91.9878 65.8666 90.8351 65.4667 89.4934C64.6635 87.8454 62.8534 87.3267 61.4666 86.4568C54.2659 82.8185 46.6994 79.9544 38.8943 77.9127C37.0104 77.4661 35.1752 76.8303 33.0806 77.0194C32.4934 77.1833 31.9765 77.6318 31.6001 78.1252C31.4344 78.1252 31.2921 78.0298 31.1517 77.9379C30.8203 77.4192 31.1517 76.7835 31.2219 76.2198C31.5515 74.8294 32.823 73.4624 34.2566 73.2066C34.7033 73.0878 35.1752 73.0661 35.647 72.9941C41.1528 73.4426 46.0264 75.4165 51.0855 76.9474ZM12.4407 76.0991C11.9454 77.0879 10.9117 77.6083 9.96971 77.8893C9.5915 77.9127 9.19347 77.9127 8.93412 77.6318C8.60453 77.4192 8.7216 76.9744 8.7216 76.6412C9.33215 75.4651 10.6289 74.6655 11.9454 74.8059L12.1832 74.9482C12.5578 75.2076 12.4407 75.7245 12.4407 76.0991ZM12.8171 74.8293C12.5117 74.3817 12.0634 74.051 11.5456 73.891C10.1354 73.7001 8.86388 74.4763 8.13446 75.6542C8.01413 75.9322 7.94996 76.2313 7.94563 76.5342C7.94131 76.8371 7.99691 77.1379 8.10925 77.4192C8.48746 78.2171 9.31234 78.8529 10.2273 78.8312C11.4754 78.7376 12.7937 77.8893 13.1936 76.6412C13.3827 75.9856 13.1233 75.3697 12.8171 74.8293ZM17.2657 81.983C17.2891 82.1253 17.2189 82.2676 17.1 82.3126C16.7956 82.3126 16.6768 81.8894 16.349 81.9362C15.3836 82.5972 14.3714 83.278 13.4529 84.0092C13.4781 84.3172 13.7591 84.5261 13.923 84.7855C14.276 84.9259 14.6776 84.3874 14.937 84.8089L14.9117 84.9998L13.8762 85.659L13.7339 85.6337L11.452 82.4531C11.524 82.0335 12.0175 81.8444 12.3237 81.5382C12.4407 81.4896 12.6298 81.4896 12.6749 81.6553C12.6983 82.0083 12.23 82.2208 12.3237 82.572C12.5092 82.7611 12.583 83.233 12.9342 83.1141C13.8762 82.3847 14.9117 81.8444 15.8303 81.0897C15.8519 80.7602 15.3368 80.4306 15.76 80.1712L15.9708 80.1964L17.2657 81.983ZM18.9371 84.056L17.9933 87.7518C18.0888 87.8454 18.2292 87.7031 18.3247 87.6329L19.9726 86.0552C20.0663 85.7274 19.4323 85.4698 19.8772 85.2105L20.1131 85.2303L21.4081 86.5973C21.4765 86.763 21.336 86.8332 21.219 86.8783C20.9362 86.8783 20.7723 86.5253 20.4895 86.6441C19.5962 87.514 18.5588 88.2434 17.7592 89.162C17.8078 89.4465 18.2058 89.7509 17.8078 89.9382C17.3593 89.7509 17.0081 89.3025 16.7002 88.926C16.6065 88.2921 16.9847 87.6797 17.1 87.044C17.1702 86.4334 17.4998 85.9147 17.4548 85.2807L17.2891 85.351L15.6412 86.808C15.4521 87.1394 16.1364 87.3988 15.6412 87.6329L15.4304 87.5879L14.3462 86.3614C14.276 86.2443 14.3228 86.0786 14.4651 86.0552C14.7713 85.9849 14.9117 86.4334 15.1945 86.2191C16.2769 85.3276 17.3359 84.4072 18.4184 83.5373C18.6543 83.5626 18.8416 83.8435 18.9371 84.056ZM24.5131 89.3511C24.5617 89.4934 24.4428 89.5852 24.3492 89.6338C24.0898 89.6572 23.8773 89.3745 23.6197 89.515C22.8201 90.4335 21.925 91.3034 21.1487 92.2453C21.1253 92.5281 21.4765 92.692 21.2892 92.9766C21.1019 93.1152 20.9146 92.8577 20.7723 92.737L18.8884 91.044C18.8182 90.6442 19.2432 90.4083 19.3837 90.0553C19.5026 89.9166 19.6431 89.9616 19.7835 90.0355C19.9726 90.4083 19.3603 90.9756 19.9961 91.2097C20.1365 91.3268 20.3257 91.588 20.513 91.3538C20.7957 91.0224 21.1955 90.8117 21.2892 90.4083C21.1487 90.2696 21.0064 90.0553 20.7957 90.1759C20.6787 90.2462 20.513 90.3398 20.3725 90.2696C20.3089 90.1892 20.2752 90.0893 20.277 89.9868C20.6552 89.6086 21.0064 89.1368 21.4081 88.8576C21.5251 88.881 21.6422 88.9512 21.6656 89.0683C21.6422 89.3024 21.3612 89.4465 21.4765 89.7059C21.5954 89.8211 21.7359 90.0103 21.925 89.8914L22.7949 88.926C22.7246 88.5982 22.3266 88.3641 22.0654 88.1732C21.6908 88.0327 21.0064 88.7856 20.9848 88.0327C21.3144 87.7283 21.7142 87.5627 22.0654 87.3267L22.2798 87.3988L24.5131 89.3511ZM26.7265 91.0224C26.8202 91.1395 26.6815 91.2818 26.586 91.3268C26.3267 91.3988 26.1844 91.1161 25.9269 91.2097C25.4316 91.9157 24.9867 92.6686 24.6319 93.4232C25.4082 93.0702 26.1376 92.4813 26.8688 91.9644C27.0795 91.7735 27.2686 91.5645 27.5748 91.588C27.926 91.9374 27.5046 92.3642 27.4794 92.737C27.3137 93.4916 27.1263 94.2229 27.0093 94.9991H27.1498L28.587 93.1152C28.6338 92.7892 27.9746 92.4813 28.4933 92.2687C29.0571 92.5533 29.6226 92.9027 30.1395 93.2809C30.1629 93.4232 30.0674 93.5169 29.9756 93.5619C29.7162 93.6123 29.5505 93.353 29.3146 93.4466C28.4681 94.3868 27.7387 95.3989 27.0093 96.3895C26.9607 96.7173 27.8324 97.0019 27.22 97.2576C26.7013 97.0019 26.1376 96.6957 25.7143 96.2706C25.8566 95.2837 26.0908 94.3165 26.2799 93.3278C26.116 93.2125 25.9503 93.4466 25.7846 93.5169L23.7386 94.9289L23.4576 94.8568L22.3266 94.0103C22.2311 93.8681 22.3014 93.6826 22.4905 93.6826C22.6796 93.7276 22.8651 93.9185 23.0794 93.8483C23.7836 92.8109 24.4212 91.7519 25.0065 90.6442C25.0804 90.293 24.3492 89.9868 24.8913 89.7293C25.527 90.1039 26.116 90.5524 26.7265 91.0224ZM32.5403 94.5308C32.823 94.6461 33.1274 94.7632 33.3633 94.9775C33.3399 95.0946 33.3165 95.2098 33.1994 95.2603C32.8933 95.3521 32.7276 95.0946 32.4934 95.1666C31.8559 96.177 31.3408 97.236 30.7518 98.2698C30.7987 98.5994 31.1985 98.6714 31.4344 98.7885C31.8811 98.9272 32.0702 97.987 32.515 98.4823C32.4232 98.9074 32.1152 99.2369 31.8811 99.6134C31.8108 99.707 31.6451 99.6836 31.5515 99.6134C30.4709 98.9776 29.3398 98.5075 28.2574 97.9186C28.1385 97.4449 28.5384 97.0469 28.6338 96.6236C28.7041 96.53 28.8445 96.5552 28.9166 96.5768C29.1975 96.883 28.7275 97.5656 29.293 97.7079C29.4569 97.7745 29.6226 97.9654 29.8117 97.897C30.4709 96.9082 30.9409 95.824 31.5299 94.8118C31.5515 94.3868 30.6312 94.2715 31.1751 93.8681C31.6451 94.032 32.0936 94.3165 32.5403 94.5308ZM35.3409 100.386C35.1752 100.483 34.941 100.364 34.7771 100.296C34.588 100.157 34.5412 99.9916 34.5178 99.8007C34.6114 99.3054 34.7987 98.72 35.3409 98.5291C35.5768 98.5543 35.7875 98.5994 35.9532 98.7651C35.8361 99.3324 35.5534 99.8475 35.3409 100.386ZM38.3774 96.9532C37.6948 96.7173 37.0104 96.4111 36.3044 96.2238C36.1657 96.249 36.1405 96.3895 36.1657 96.5048C36.8699 96.7641 36.5403 97.4683 36.3512 97.9186C36.2828 98.0122 36.236 98.2248 36.0469 98.2013C35.6704 97.6808 35.6002 97.0235 35.4597 96.4111C35.4111 95.7754 34.7033 95.3035 34.2116 95.0207C34.0693 95.0477 34.0225 95.1882 33.9991 95.2837C34.3773 96.1068 34.6583 96.9749 34.8456 97.897C34.7771 98.1527 34.4457 98.0591 34.2566 98.2013C33.7163 98.4823 33.4804 99.0262 33.4804 99.6134C33.6695 101.024 35.2922 100.906 36.236 101.495C36.4251 101.517 36.6106 101.731 36.7763 101.517C36.9654 101.166 36.4701 101.119 36.3296 100.885C36.589 99.7791 37.1761 98.8335 37.4841 97.7529C37.5057 97.1189 38.0946 97.4935 38.4242 97.3296C38.4945 97.236 38.5179 97.0235 38.3774 96.9532ZM51.3682 99.4477C51.4619 99.4711 51.4853 99.6134 51.4385 99.6836C51.2728 99.9664 50.873 99.707 50.7559 100.06C50.7325 101.33 50.4965 102.484 50.4263 103.732C50.5434 103.988 51.1107 103.898 50.9918 104.321L50.873 104.415C49.886 104.226 48.7802 104.321 47.8148 104.107C47.6959 103.732 47.6509 103.167 47.885 102.859C48.1444 102.767 48.2381 103.05 48.3083 103.214C48.2849 103.401 48.4506 103.592 48.6127 103.613C48.8738 103.567 49.3205 103.871 49.4375 103.471C49.3439 103.023 49.6032 102.673 49.5096 102.273C49.3907 102.129 49.225 102.155 49.0629 102.155C48.8018 102.273 48.8972 102.767 48.519 102.603C48.2849 102.059 48.474 101.425 48.5929 100.885C48.6397 100.791 48.8018 100.815 48.8972 100.86C49.1566 101 48.8018 101.449 49.2016 101.517C49.3907 101.54 49.6266 101.517 49.6483 101.308L49.7671 100.105C49.4628 99.8475 48.9927 99.9177 48.6127 99.9393C48.3551 100.179 48.2849 100.672 47.885 100.649C47.5789 100.247 48.0489 99.752 48.1192 99.3054C48.193 99.1901 48.2849 99.1901 48.3785 99.1667C49.3439 99.3324 50.4029 99.2604 51.3682 99.4477ZM40.5422 101.07C40.4702 100.741 40.3765 100.345 40.4954 100.013C40.7314 100.06 40.9907 99.9916 41.1528 100.179C41.0375 100.508 40.8484 100.885 40.5422 101.07ZM43.8363 98.4823L42.5198 98.1779C42.2838 98.1311 41.9542 97.9654 41.7651 98.2013C41.5994 98.5291 42.0497 98.5291 42.1902 98.6966C42.1434 99.0262 41.9056 99.282 41.6949 99.5197C41.3203 99.4477 40.9421 99.4477 40.6125 99.3054C40.1406 99.1901 40.4486 98.6228 40.3531 98.2698C40.4954 98.0375 40.7061 98.2698 40.8952 98.2013C40.9907 98.1311 41.0843 98.0122 41.0375 97.8465C40.3279 97.5188 39.5535 97.3999 38.8475 97.0937L38.6349 97.2576C38.5179 97.6809 39.0114 97.5656 39.1536 97.8465C39.3644 99.354 39.3878 100.93 39.5769 102.437C39.7426 102.626 40.0722 102.742 40.3279 102.646C41.3203 101.425 42.1434 100.105 43.179 98.9272C43.4131 98.8605 43.6724 98.9542 43.8597 98.7885C43.8832 98.6966 43.9318 98.5544 43.8363 98.4823Z" fill="#323A45"/><path d="M55.1576 103.707C54.8731 103.898 54.4498 103.803 54.122 103.777C53.2503 103.613 53.2287 102.695 53.1098 102.011C53.1098 101.261 53.1801 100.508 53.8627 100.083C54.2175 100.037 55.0406 99.779 55.1108 100.318C55.0406 101.474 55.2279 102.531 55.1576 103.707ZM56.3121 103.732C56.123 102.531 56.24 101.213 56.123 99.9664C56.3121 99.6836 56.829 99.8943 56.829 99.4477C56.5912 99.1163 56.0978 99.3324 55.7448 99.2604C54.4498 99.4945 52.7803 99.2117 52.1913 100.741C51.8365 101.706 51.7915 103.12 52.5929 103.898C53.3926 104.364 54.3796 104.581 55.3701 104.343C55.8654 104.249 56.476 104.46 56.9226 104.175C57.0649 103.732 56.4994 103.943 56.3121 103.732ZM44.7765 103.05C44.6828 103.214 44.4721 103.12 44.3784 103.073C44.1893 103.05 44.0254 102.835 43.9534 102.695C43.9084 102.108 43.9318 101.474 44.4955 101.213C44.663 101.187 44.989 101.142 45.061 101.355C45.061 101.964 44.8035 102.461 44.7765 103.05ZM46.9917 99.0262L45.5077 98.7651C45.2483 98.7885 44.989 98.5544 44.7765 98.7651C44.5675 99.2604 45.2015 99.0929 45.3672 99.3756C45.342 99.8259 45.297 100.271 45.0826 100.626C44.4019 100.602 43.7427 100.602 43.2492 101.024C42.8241 101.474 42.7539 102.108 42.8494 102.742C43.224 103.732 44.3532 103.592 45.2267 103.756C45.6013 103.803 46.0264 104.037 46.401 103.871C46.5433 103.448 45.9543 103.567 45.8373 103.262C46.0012 102.059 46.2119 100.885 46.401 99.6836C46.4712 99.3324 46.9197 99.4945 47.1088 99.3054C47.179 99.1901 47.1088 99.046 46.9917 99.0262Z" fill="#323A45"/></g></g></svg>