<svg width="116" height="116" viewBox="0 0 116 116" fill="none" xmlns="http://www.w3.org/2000/svg"><g id="Environmental Protection Agency"><g id="Group"><path id="Vector" d="M58 111.842C87.7359 111.842 111.842 87.7359 111.842 58C111.842 28.2641 87.7359 4.15845 58 4.15845C28.2641 4.15845 4.15845 28.2641 4.15845 58C4.15845 87.7359 28.2641 111.842 58 111.842Z" fill="white"/><path id="Vector (Stroke)" fill-rule="evenodd" clip-rule="evenodd" d="M57.9999 5.4169C28.9591 5.4169 5.4168 28.9592 5.4168 58C5.4168 87.0408 28.9591 110.583 57.9999 110.583C87.0407 110.583 110.583 87.0408 110.583 58C110.583 28.9592 87.0407 5.4169 57.9999 5.4169ZM2.8999 58C2.8999 27.5691 27.569 2.89999 57.9999 2.89999C88.4308 2.89999 113.1 27.5691 113.1 58C113.1 88.4309 88.4308 113.1 57.9999 113.1C27.569 113.1 2.8999 88.4309 2.8999 58Z" fill="#0668B3"/><path id="Vector_2" d="M75.8807 46.58C75.8807 49.8922 73.6289 52.5786 70.8519 52.5786C69.0238 52.5786 67.4248 51.4149 66.5439 49.6766C65.6629 51.4149 64.0639 52.5786 62.2358 52.5786C60.4076 52.5786 58.796 51.404 57.9142 49.6472C57.0367 51.4024 55.4301 52.5786 53.5927 52.5786C51.7554 52.5786 50.1655 51.4149 49.2846 49.6774C48.4037 51.4158 46.8046 52.5794 44.9765 52.5794C42.2029 52.5794 39.9536 49.8998 39.9478 46.5917C39.9553 56.5091 47.9968 64.5456 57.9159 64.5456C67.835 64.5456 75.8832 56.5024 75.8832 46.5791L75.8807 46.58Z" fill="#0668B3"/><path id="Vector_3" d="M44.9808 52.5786C46.8089 52.5786 48.408 51.4149 49.2889 49.6766C50.1698 51.4149 51.7689 52.5786 53.597 52.5786C55.4251 52.5786 57.041 51.404 57.9185 49.6472C58.7961 51.4023 60.4027 52.5786 62.2401 52.5786C64.0774 52.5786 65.663 51.4149 66.5423 49.6774C67.4232 51.4158 69.0223 52.5794 70.8504 52.5794C73.6274 52.5794 75.8791 49.8947 75.8791 46.5808H39.947V46.5951C39.9537 49.8989 42.203 52.5786 44.9808 52.5786V52.5786Z" fill="#2DA343"/><path id="Vector_4" d="M57.916 28.6102C47.9927 28.6102 39.947 36.655 39.947 46.5783H57.9152C56.9487 46.5782 56.0039 46.2914 55.2003 45.7543C54.3968 45.2172 53.7706 44.4539 53.4008 43.5609C53.031 42.6679 52.9344 41.6853 53.123 40.7374C53.3117 39.7895 53.7772 38.9188 54.4607 38.2354C55.1442 37.5521 56.015 37.0867 56.9629 36.8982C57.9109 36.7097 58.8935 36.8065 59.7864 37.1764C60.6793 37.5463 61.4425 38.1727 61.9795 38.9764C62.5164 39.78 62.803 40.7248 62.803 41.6913C62.8031 42.3332 62.6768 42.9688 62.4312 43.5618C62.1855 44.1548 61.8255 44.6937 61.3716 45.1475C60.9177 45.6013 60.3788 45.9613 59.7857 46.2068C59.1927 46.4523 58.5571 46.5785 57.9152 46.5783H75.8834C75.8834 36.655 67.8393 28.6102 57.916 28.6102Z" fill="#0095D6"/><g id="Vector_5"><path d="M88.1876 80.2007C83.3127 77.5707 77.7786 76.4139 72.2584 76.871C66.7381 77.3281 61.4697 79.3795 57.0938 82.7755C61.9687 85.4056 67.5028 86.5624 73.023 86.1052C78.5432 85.6481 83.8117 83.5968 88.1876 80.2007Z" fill="#2DA343"/><path fill-rule="evenodd" clip-rule="evenodd" d="M72.2549 76.8292C77.7832 76.3714 83.3254 77.5299 88.2075 80.1638L88.1876 80.2007L88.2133 80.2339C83.831 83.6349 78.5548 85.6893 73.0265 86.147C67.4982 86.6048 61.9559 85.4463 57.0739 82.8125L57.0172 82.7819L57.0681 82.7424C61.4504 79.3414 66.7266 77.287 72.2549 76.8292ZM88.1109 80.2071C83.2569 77.6025 77.7525 76.4582 72.2618 76.9128C66.7711 77.3675 61.5299 79.4017 57.1705 82.7692C62.0244 85.3737 67.5289 86.5181 73.0195 86.0634C78.5102 85.6088 83.7515 83.5746 88.1109 80.2071Z" fill="#2DA343"/><path d="M58.7398 82.7755C54.3638 79.3795 49.0952 77.3282 43.5748 76.8711C38.0545 76.414 32.5203 77.5708 27.6452 80.2007C32.0213 83.5968 37.2899 85.6481 42.8102 86.1052C48.3305 86.5623 53.8648 85.4055 58.7398 82.7755Z" fill="#2DA343"/><path fill-rule="evenodd" clip-rule="evenodd" d="M27.6253 80.1638C32.5075 77.53 38.0499 76.3715 43.5783 76.8293C49.1067 77.2871 54.383 79.3414 58.7655 82.7424L58.7398 82.7755L58.7597 82.8125C53.8775 85.4463 48.3352 86.6048 42.8067 86.147C37.2783 85.6892 32.002 83.6349 27.6195 80.2339L27.5686 80.1944L27.6253 80.1638ZM58.6631 82.7692C54.3035 79.4017 49.0622 77.3676 43.5714 76.9129C38.0806 76.4582 32.576 77.6026 27.7219 80.2071C32.0815 83.5746 37.3229 85.6087 42.8137 86.0634C48.3045 86.5181 53.809 85.3737 58.6631 82.7692Z" fill="#2DA343"/><path fill-rule="evenodd" clip-rule="evenodd" d="M56.7834 87.9394V65.8603H59.0486V87.9394H56.7834Z" fill="#2DA343"/><path fill-rule="evenodd" clip-rule="evenodd" d="M27.7564 54.9297L29.4891 55.1685C43.1993 57.0584 54.2192 67.1779 57.0824 80.2768L57.4564 81.9881L55.7153 81.7965C41.8043 80.2651 30.5913 69.9594 28.0806 56.6484L27.7564 54.9297ZM88.0755 54.9297L87.7513 56.6484C85.2406 69.9603 74.0275 80.2652 60.1158 81.7965L58.3747 81.9881L58.7487 80.2768C61.6119 67.1778 72.6326 57.0584 86.3428 55.1685L88.0755 54.9297ZM54.1757 79.0385C42.8091 77.0776 33.729 68.7262 30.9517 57.9652C42.1748 60.1919 51.1368 68.4242 54.1757 79.0385ZM84.8802 57.9652C82.103 68.7269 73.0228 77.0777 61.6554 79.0386C64.6944 68.4243 73.657 60.1919 84.8802 57.9652Z" fill="#2DA343"/></g><g id="Vector_6"><path d="M30.0858 22.1937C30.6663 22.8464 30.9379 23.4924 30.9004 24.1317C30.8629 24.771 30.5181 25.3812 29.8659 25.9623C29.2166 26.5407 28.5714 26.8117 27.9304 26.7753C27.2895 26.7389 26.6787 26.395 26.0981 25.7434L23.5292 22.8565L24.5159 21.9781L27.3004 25.1058C27.594 25.4363 27.9016 25.6111 28.2232 25.6301C28.5449 25.6491 28.8732 25.5118 29.2082 25.2182C29.5382 24.9245 29.7124 24.6169 29.7309 24.2953C29.7493 23.9737 29.6117 23.6474 29.3181 23.3162L26.5336 20.1877L27.5202 19.3093L30.0858 22.1937ZM33.6648 22.76L33.1614 23.0872L32.658 23.4152L29.1772 18.0358L30.7234 17.029L35.2991 19.827L32.6723 15.7681L33.1757 15.44L33.6791 15.1128L37.1608 20.4923L36.399 20.9848L35.6364 21.4881L31.0061 18.6558L33.6648 22.76ZM35.3327 14.2898L35.9199 13.9911L36.5072 13.6933L39.3991 19.4108L38.8119 19.7087L38.2246 20.0074L35.3327 14.2898ZM39.9168 13.2663L38.1012 13.9718L37.7397 13.0431L42.6057 11.1479L42.7869 11.6118L42.9673 12.0758L41.1501 12.7838L43.1141 17.826L41.8825 18.3059L39.9168 13.2663ZM45.6645 16.9258L44.1259 10.7057L48.2284 9.69058L48.3476 10.1747L48.4675 10.6579L45.652 11.3559L46.032 12.8929L48.6722 12.2377L48.7922 12.7218L48.9113 13.205L46.2644 13.8602L46.7057 15.6414L49.6068 14.9232L49.7268 15.4073L49.8459 15.8905L45.6645 16.9258ZM49.997 9.34996L52.5264 9.08484C53.4745 8.98585 54.2441 9.19027 54.8353 9.69813C55.4265 10.206 55.7744 10.9591 55.879 11.9575C55.9908 12.9978 55.7727 13.8203 55.2246 14.4249C54.6764 15.0295 53.8229 15.393 52.664 15.5155L50.6656 15.7253L49.997 9.34996ZM51.8746 14.5943L52.7832 14.4987C53.4488 14.4293 53.934 14.19 54.2388 13.7805C54.5436 13.3711 54.6594 12.8082 54.5861 12.0917C54.5123 11.3881 54.2765 10.8646 53.8789 10.5212C53.4812 10.1777 52.9529 10.0404 52.2941 10.1092L51.4148 10.2015L51.8746 14.5943ZM63.9238 10.996C63.9403 10.8699 63.9301 10.7417 63.8936 10.6198C63.8572 10.4979 63.7954 10.3851 63.7124 10.2888C63.5491 10.1075 63.3083 9.9996 62.99 9.96492C62.725 9.92509 62.4544 9.97815 62.2241 10.1151C62.1246 10.1714 62.0401 10.2507 61.9777 10.3465C61.9154 10.4423 61.877 10.5517 61.8658 10.6655C61.8559 10.7635 61.8706 10.8625 61.9085 10.9535C61.9465 11.0444 62.0065 11.1245 62.0831 11.1865C62.2509 11.3358 62.5613 11.5078 63.0211 11.7049L63.8106 12.0405C64.3363 12.2642 64.6982 12.5159 64.8962 12.7956C65.0942 13.0753 65.1688 13.4343 65.1202 13.8728C65.0947 14.1527 65.0027 14.4223 64.8518 14.6593C64.7009 14.8964 64.4955 15.0938 64.2527 15.2353C63.7392 15.5575 63.1123 15.6774 62.3717 15.5952C61.5171 15.5013 60.8991 15.2515 60.5176 14.846C60.1468 14.4512 59.9997 13.905 60.0763 13.2075L60.083 13.1488L61.3759 13.2906C61.3166 13.662 61.3845 13.9626 61.5797 14.1925C61.7744 14.4232 62.0747 14.5599 62.4808 14.6052C62.7935 14.6516 63.1129 14.5972 63.3927 14.45C63.5071 14.3938 63.6055 14.3097 63.6788 14.2054C63.7521 14.1012 63.798 13.9802 63.8122 13.8535C63.822 13.7723 63.8119 13.6898 63.7827 13.6134C63.7534 13.5369 63.706 13.4687 63.6444 13.4148C63.5119 13.2917 63.2602 13.1502 62.8894 12.9902L62.0999 12.6546C61.4847 12.389 61.0599 12.1135 60.8255 11.8283C60.5912 11.543 60.4978 11.1867 60.5453 10.7594C60.5685 10.4811 60.6536 10.2114 60.7944 9.97017C60.9352 9.72893 61.1281 9.52219 61.3591 9.36506C61.8356 9.02947 62.4151 8.90055 63.0974 8.97829C63.8642 9.06275 64.4336 9.29598 64.8056 9.67799C65.1501 10.0292 65.293 10.4711 65.2343 11.0036L65.215 11.1428L63.9238 10.996ZM68.4282 11.0094L66.5338 10.5446L66.653 10.0606L66.7713 9.5748L71.8437 10.819L71.7254 11.3031L71.6062 11.7872L69.7118 11.3224L68.4232 16.5777L67.7814 16.4199L67.1396 16.263L68.4282 11.0094ZM74.4914 11.7762L76.0645 12.3887L75.9613 19.2229L74.6366 18.7078L74.7037 17.2706L72.1709 16.2865L71.2581 17.394L70.6045 17.1423L69.9468 16.8906L74.4914 11.7762ZM72.8454 15.4795L74.7515 16.2211L74.8908 13.0246L72.8454 15.4795ZM79.9162 15.2924L78.2039 14.3569L78.6829 13.4835L83.2628 15.9929L82.7846 16.8663L81.074 15.9291L78.4732 20.6752L77.8943 20.3572L77.3146 20.0401L79.9162 15.2924ZM80.24 21.6836L83.9265 16.4426L87.383 18.8756L87.0969 19.2816L86.8108 19.6894L84.4349 18.0173L83.5229 19.3127L85.7546 20.8816L85.1816 21.6962L82.9516 20.1282L81.8953 21.6291L84.3401 23.3481L84.0515 23.7533L83.7654 24.1611L80.24 21.6836ZM89.9712 23.5176C90.059 23.4254 90.1264 23.3157 90.1689 23.1958C90.2114 23.0758 90.2281 22.9481 90.2179 22.8213C90.1927 22.5791 90.0621 22.3498 89.8261 22.1333C89.6352 21.9454 89.3855 21.8287 89.1188 21.8027C89.0059 21.7895 88.8915 21.8034 88.7851 21.8434C88.6787 21.8834 88.5834 21.9483 88.5072 22.0326C88.4414 22.1057 88.3947 22.1941 88.3716 22.2898C88.3485 22.3854 88.3495 22.4853 88.3747 22.5805C88.4205 22.7992 88.571 23.1233 88.826 23.5528L89.2631 24.292C89.5551 24.7847 89.6988 25.2017 89.6944 25.5429C89.6899 25.884 89.5383 26.2177 89.2396 26.5437C89.0538 26.7546 88.8202 26.9179 88.5584 27.0201C88.2965 27.1222 88.0141 27.1603 87.7345 27.131C87.1305 27.0874 86.5538 26.8139 86.0046 26.3105C85.3692 25.73 85.0177 25.1634 84.95 24.6108C84.884 24.0727 85.0876 23.5453 85.5608 23.0285L85.601 22.9848L86.56 23.8624C86.2932 24.1275 86.1707 24.4105 86.1925 24.7114C86.2143 25.0124 86.3757 25.3004 86.6766 25.5756C86.9012 25.7981 87.191 25.9431 87.5038 25.9892C87.6296 26.0115 87.759 26.0019 87.8801 25.9612C88.0012 25.9204 88.1101 25.8498 88.1968 25.756C88.2528 25.6959 88.293 25.623 88.3139 25.5437C88.3348 25.4643 88.3358 25.381 88.3168 25.3012C88.2832 25.1223 88.1646 24.8599 87.9611 24.5143L87.5231 23.776C87.1825 23.1971 87.0021 22.7239 86.982 22.3565C86.9618 21.989 87.0969 21.6461 87.3872 21.3279C87.5702 21.117 87.7979 20.9497 88.0538 20.8381C88.3097 20.7264 88.5873 20.6734 88.8663 20.6827C89.448 20.695 89.9919 20.933 90.4981 21.3967C91.0675 21.9174 91.3896 22.4418 91.4646 22.9697C91.5351 23.4575 91.3896 23.8985 91.0283 24.2928L90.9302 24.3935L89.9712 23.5176ZM14.2628 35.9301L20.0752 38.6266L18.3016 42.4623L17.3972 42.0428L18.6196 39.4076L17.1833 38.7415L16.0364 41.2131L15.132 40.7936L16.2797 38.3203L14.6102 37.5485L13.3517 40.2592L12.4482 39.8405L14.2628 35.9301ZM11.3592 42.8726L11.7048 41.7165L17.8444 43.553L17.581 44.4356L17.3175 45.3148L12.0211 46.1538L16.6531 47.5364L16.4853 48.1144L16.3124 48.6925L10.1687 46.8619L10.4279 45.9918L10.688 45.1227L16.049 44.272L11.3592 42.8726ZM16.0616 49.6657L15.8737 51.0911L10.7174 52.1734L15.4156 54.556L15.2478 55.8531L9.20974 52.6138L9.39263 51.2253L16.0616 49.6657ZM15.3149 56.645L15.2973 57.3053L15.2805 57.9664L8.87499 57.7986L8.89177 57.1375L8.90939 56.4773L15.3149 56.645ZM15.2352 59.5412L15.4391 62.1076C15.4984 62.8576 15.4019 63.4449 15.1496 63.8694C14.8974 64.2939 14.5028 64.5269 13.9658 64.5683C13.4239 64.6108 12.9966 64.4287 12.6839 64.0221C12.5179 63.7992 12.3939 63.5478 12.3181 63.2804C12.3084 63.4904 12.2683 63.6978 12.199 63.8962C12.0689 64.2201 11.8013 64.4206 11.3936 64.4986C10.9858 64.5766 10.6234 64.6555 10.3138 64.7344L10.2207 64.7604C9.9883 64.8241 9.80121 64.882 9.65271 64.9332C9.51405 64.9809 9.37916 65.039 9.24917 65.1069L9.13843 63.7117C9.24921 63.665 9.36371 63.6277 9.48073 63.6001C9.62615 63.5626 9.83785 63.5145 10.1158 63.4558L10.6804 63.3442C11.1016 63.262 11.3729 63.1543 11.4942 63.0212C11.6156 62.8881 11.6623 62.6428 11.6344 62.2854L11.5454 61.162L8.95218 61.3684L8.84814 60.0513L15.2352 59.5412ZM12.5379 61.0807L12.6034 61.8978C12.6403 62.3704 12.7468 62.7259 12.923 62.9641C12.9987 63.0767 13.1037 63.1665 13.2268 63.2235C13.3498 63.2806 13.4862 63.3029 13.621 63.288C13.7526 63.2843 13.8811 63.247 13.9943 63.1798C14.1075 63.1126 14.2017 63.0175 14.2679 62.9037C14.406 62.67 14.4589 62.3472 14.4264 61.9356L14.3467 60.9372L12.5379 61.0807ZM10.3121 67.044C10.7518 66.4288 11.5024 65.9993 12.5639 65.7554C13.6255 65.5115 14.4874 65.5742 15.1496 65.9433C15.8141 66.3097 16.2534 66.9641 16.4676 67.9065C16.6819 68.8489 16.57 69.6295 16.1321 70.2481C15.6919 70.8633 14.9416 71.2917 13.8811 71.5334C12.8207 71.775 11.9585 71.7132 11.2946 71.3479C10.6312 70.9833 10.1922 70.3283 9.97739 69.3831C9.76262 68.4378 9.8742 67.6582 10.3121 67.044ZM11.7996 70.238C12.2471 70.4248 12.8436 70.434 13.5891 70.2657C14.3347 70.0973 14.8683 69.8311 15.1899 69.467C15.5149 69.1034 15.6169 68.656 15.4961 68.1246C15.3753 67.5933 15.0903 67.2353 14.6412 67.0508C14.1904 66.8628 13.5942 66.853 12.8525 67.0214C12.1109 67.1897 11.5781 67.4577 11.2543 67.8251C10.9305 68.1904 10.8287 68.6378 10.9489 69.1675C11.0692 69.6971 11.3527 70.0543 11.7996 70.2388V70.238ZM11.7443 75.0763L11.3004 73.9546L17.2571 71.598L17.9283 73.3111L14.2863 77.2476L18.7815 75.4689L19.2253 76.5906L13.2687 78.9473L12.5975 77.2593L16.2889 73.2759L11.7443 75.0763ZM14.7939 81.9407L14.4801 81.4256L14.1672 80.9105L19.644 77.5798L20.7841 79.4524L17.1271 83.242L22.1609 81.726L23.301 83.5994L17.8301 86.9276L17.5164 86.4124L17.2034 85.8973L22.2649 82.8166L16.3619 84.5139L15.6345 83.32L19.821 78.8802L14.7939 81.9407ZM19.2731 88.7255L24.1543 84.5785L26.8926 87.7967L26.5134 88.1197L26.1334 88.4427L24.2516 86.2304L23.0451 87.2564L24.812 89.3329L24.0536 89.9789L22.2867 87.9016L20.8882 89.0913L22.8253 91.3674L22.4461 91.6904L22.0661 92.0125L19.2731 88.7255ZM24.244 94.1578L23.7935 93.7568L23.343 93.3566L27.6007 88.5677L28.9775 89.7926L27.4992 94.9472L30.7116 91.3347L31.6135 92.1359L27.3549 96.9247L25.9991 95.7183L27.4959 90.5007L24.244 94.1578ZM33.4735 94.636L31.8442 93.5638L32.1177 93.1443L32.3921 92.7248L36.7547 95.5949L36.2077 96.4339L34.5776 95.3617L31.6034 99.8829L30.5002 99.1563L33.4735 94.636ZM38.707 96.5757L39.4621 96.9415L40.2247 97.3089L39.5854 104.115L38.3051 103.498L38.4855 102.072L36.0374 100.89L35.0407 101.923L34.409 101.619L33.7739 101.312L38.707 96.5757ZM36.7774 100.139L38.6231 101.027L39.0132 97.8517L36.7774 100.139ZM41.2734 104.685L43.2324 98.5842L44.49 98.9886L42.8355 104.141L45.3818 104.958L45.2299 105.433L45.0773 105.907L41.2734 104.685ZM50.9114 100.635L51.5667 100.713L53.3512 100.923C54.0536 101.006 54.5713 101.239 54.9041 101.623C55.2369 102.007 55.3661 102.517 55.2917 103.153C55.2156 103.798 54.9578 104.263 54.5182 104.548C54.0785 104.834 53.4689 104.93 52.6892 104.837L51.7588 104.727L51.4719 107.153L50.8158 107.076L50.1597 106.998L50.9114 100.635ZM51.8754 103.739L52.5952 103.823C53.0114 103.871 53.3405 103.825 53.5827 103.683C53.7029 103.612 53.8039 103.512 53.8771 103.394C53.9502 103.275 53.9931 103.14 54.0022 103C54.0402 102.685 53.9714 102.431 53.7958 102.237C53.6202 102.044 53.352 101.926 52.9912 101.884L52.107 101.777L51.8754 103.739ZM56.5837 101.213L59.1576 101.161C59.9105 101.146 60.4902 101.278 60.8968 101.555C61.3034 101.832 61.5123 102.24 61.5235 102.778C61.5347 103.322 61.3278 103.738 60.9027 104.026C60.6703 104.178 60.4121 104.286 60.1409 104.346C60.3499 104.368 60.5546 104.421 60.7483 104.502C61.0638 104.65 61.2483 104.93 61.302 105.341C61.3557 105.752 61.4131 106.116 61.474 106.432L61.4942 106.527C61.5434 106.762 61.5895 106.954 61.6326 107.103C61.6719 107.244 61.7218 107.383 61.7819 107.517L61.0822 107.53L60.3825 107.544C60.3425 107.431 60.312 107.315 60.2911 107.196C60.2626 107.049 60.2273 106.835 60.1854 106.554L60.1074 105.984C60.0514 105.558 59.96 105.28 59.833 105.152C59.706 105.023 59.4641 104.962 59.1073 104.968L57.9806 104.991L58.0326 107.591L57.3715 107.604L56.7112 107.617L56.5837 101.213ZM57.9604 103.996L58.7801 103.98C59.2538 103.971 59.6152 103.887 59.8641 103.728C59.9808 103.659 60.0765 103.559 60.1409 103.439C60.2052 103.32 60.2356 103.185 60.229 103.049C60.2334 102.917 60.2039 102.786 60.1432 102.668C60.0826 102.551 59.9928 102.451 59.8825 102.378C59.6588 102.226 59.34 102.154 58.9261 102.162L57.9252 102.182L57.9604 103.996ZM64.3752 106.501C63.7795 106.032 63.388 105.262 63.2006 104.189C63.0133 103.117 63.1173 102.259 63.5127 101.615C63.9104 100.97 64.5849 100.563 65.5363 100.394C66.4877 100.224 67.2621 100.375 67.8594 100.844C68.4534 101.314 68.8449 102.084 69.034 103.155C69.223 104.225 69.1195 105.084 68.7235 105.73C68.3264 106.375 67.6511 106.782 66.6974 106.95C65.7438 107.119 64.9697 106.969 64.3752 106.501ZM67.6371 105.168C67.8463 104.728 67.884 104.133 67.7503 103.382C67.6167 102.632 67.3764 102.086 67.0297 101.745C66.6823 101.403 66.2413 101.279 65.7066 101.375C65.1719 101.47 64.8008 101.737 64.5933 102.177C64.383 102.618 64.3444 103.213 64.4775 103.963C64.6106 104.712 64.8514 105.258 65.1999 105.6C65.5489 105.941 65.9894 106.064 66.5213 105.97C67.0532 105.875 67.4251 105.608 67.6371 105.168ZM71.1322 100.183L69.2798 100.794L68.9677 99.8485L73.9251 98.2142L74.2372 99.1597L72.3848 99.7713L74.0812 104.91L72.8261 105.324L71.1322 100.183ZM77.8171 103.487L75.0007 97.7326L78.7962 95.8743L79.2341 96.7695L76.6249 98.0464L77.3213 99.4726L79.7702 98.2738L80.2082 99.1689L77.7592 100.368L78.5663 102.016L81.251 100.702L81.6889 101.597L77.8171 103.487ZM86.3846 96.0723C86.7605 96.5841 86.8542 97.1613 86.6657 97.8039C86.4772 98.4466 86.0577 98.9844 85.4072 99.4173C84.6242 99.9374 83.8719 100.098 83.1504 99.898C82.4289 99.6983 81.7675 99.1452 81.1663 98.2385C80.565 97.3324 80.3178 96.5035 80.4246 95.7518C80.5314 95.0001 80.9878 94.3569 81.7938 93.8222C82.4174 93.4077 83.0483 93.24 83.6865 93.3188C84.2956 93.3926 84.7576 93.6692 85.0725 94.1485L85.1253 94.2324L84.0422 94.9514C83.8068 94.6578 83.5335 94.49 83.2226 94.4481C82.9116 94.4061 82.595 94.492 82.2729 94.7056C81.845 94.9898 81.6288 95.372 81.6243 95.8525C81.6199 96.3329 81.8282 96.8903 82.2494 97.5246C82.6711 98.1588 83.1062 98.5649 83.5548 98.7427C84.0034 98.9206 84.4461 98.8647 84.8829 98.5749C85.2185 98.3512 85.4229 98.0839 85.4962 97.7729C85.5694 97.4619 85.5054 97.1367 85.304 96.7972L86.3846 96.0723ZM86.44 91.7097L84.976 92.9983L84.6471 92.625L84.3183 92.2508L88.2379 88.7993L88.8957 89.5477L87.4325 90.8346L91.0082 94.8961L90.0165 95.7694L86.44 91.7097ZM88.8881 88.0308L89.3386 87.5476L89.7883 87.0635L94.4765 91.432L93.5763 92.3985L88.8881 88.0308ZM95.6695 89.0057C94.9155 89.0745 94.1009 88.7848 93.2256 88.1365C92.3503 87.4883 91.836 86.7936 91.6827 86.0525C91.5283 85.3103 91.7387 84.5508 92.3136 83.7739C92.8886 82.997 93.5542 82.5739 94.3104 82.5045C95.0649 82.4385 95.879 82.7288 96.7526 83.3754C97.6262 84.0219 98.1411 84.7163 98.2971 85.4585C98.4521 86.1996 98.2412 86.9594 97.6646 87.738C97.0879 88.5166 96.4229 88.9391 95.6695 89.0057ZM97.1234 85.7958C96.9724 85.3327 96.5907 84.874 95.9782 84.4199C95.3658 83.9657 94.8163 83.7345 94.3297 83.7261C93.8431 83.7166 93.4378 83.9302 93.114 84.367C92.7901 84.8039 92.7043 85.2533 92.8564 85.7153C93.0063 86.1795 93.3875 86.6381 93.9999 87.0912C94.6124 87.5442 95.1625 87.7752 95.6502 87.7841C96.1374 87.7925 96.542 87.5794 96.8642 87.1449C97.1863 86.7103 97.2728 86.2606 97.1234 85.7958ZM101.004 82.3829L100.449 83.4534L94.7609 80.5019L95.6099 78.8668L100.97 79.0346L96.6788 76.8079L97.2342 75.7374L102.922 78.6889L102.083 80.3006L96.6612 80.1319L101.004 82.3829ZM99.1915 70.0979L99.6185 68.4644L106.42 67.779L106.061 69.154L104.625 69.253L103.938 71.8824L105.144 72.6618L104.967 73.3363L104.789 74.0192L99.1915 70.0979ZM103.06 71.3052L103.577 69.3269L100.389 69.5568L103.06 71.3052ZM107.052 63.6957C106.924 64.792 106.547 65.5929 105.919 66.0985C105.292 66.6041 104.438 66.7943 103.357 66.669C102.343 66.5505 101.571 66.1724 101.041 65.5347C100.51 64.8971 100.301 64.0942 100.414 63.1261C100.511 62.2921 100.767 61.6816 101.183 61.2946C101.599 60.9076 102.163 60.7554 102.875 60.8382L102.725 62.1294C102.312 62.0883 102.002 62.1571 101.791 62.3358C101.581 62.5145 101.452 62.8215 101.402 63.2536C101.333 63.8459 101.482 64.3263 101.847 64.6949C102.212 65.0635 102.765 65.2909 103.507 65.377C104.264 65.4643 104.858 65.3653 105.29 65.08C105.722 64.7948 105.973 64.3342 106.045 63.6982C106.083 63.3299 106.076 62.9582 106.023 62.5916L104.623 62.4297L104.481 63.6496L103.491 63.5346L103.786 61.001L106.965 61.3701C107.111 62.1364 107.141 62.9206 107.052 63.6957ZM107.237 59.2056L100.832 59.3625L100.728 55.1374L101.226 55.1248L101.724 55.1131L101.795 58.0168L103.378 57.9782L103.312 55.2524L103.809 55.2406L104.307 55.228L104.374 57.9538L106.209 57.9094L106.136 54.921L106.634 54.9092L107.131 54.8966L107.237 59.2056ZM106.758 51.607L106.86 52.2019L106.96 52.7959L100.644 53.8723L100.335 52.0559L104.71 48.9559L99.9449 49.768L99.7418 48.5792L106.058 47.4961L106.363 49.2856L101.933 52.4225L106.758 51.607ZM101.887 41.1007C102.481 40.8769 103.062 40.9407 103.63 41.2919C104.199 41.6432 104.605 42.1922 104.849 42.9388C105.141 43.8337 105.094 44.6014 104.709 45.2418C104.325 45.8822 103.615 46.3716 102.581 46.71C101.547 47.0456 100.683 47.0629 99.9868 46.762C99.291 46.4611 98.793 45.8495 98.4926 44.9272C98.2605 44.2146 98.2675 43.5616 98.5136 42.9682C98.7468 42.4011 99.1364 42.0297 99.6823 41.8541L99.7737 41.8247L100.177 43.0605C99.8316 43.209 99.5959 43.4271 99.4725 43.7157C99.3492 44.0043 99.3467 44.3324 99.4667 44.699C99.6261 45.1878 99.9368 45.4985 100.399 45.6311C100.861 45.7636 101.454 45.7114 102.177 45.4742C102.902 45.2376 103.409 44.9269 103.7 44.5421C103.991 44.1573 104.055 43.7157 103.891 43.2174C103.767 42.8348 103.563 42.5663 103.282 42.412C103.001 42.2576 102.671 42.2324 102.291 42.3365L101.887 41.1007ZM100.225 38.3514L97.6998 42.1401L96.9951 40.7147L98.9012 38.1408L95.7182 38.1215L95.4102 37.4973L95.1015 36.874L99.6437 37.1642L101.854 36.0736L102.439 37.2582L100.225 38.3514Z" fill="#0668B3"/><path d="M94.3087 32.68C95.3281 32.68 96.1544 31.8536 96.1544 30.8342C96.1544 29.8149 95.3281 28.9885 94.3087 28.9885C93.2893 28.9885 92.463 29.8149 92.463 30.8342C92.463 31.8536 93.2893 32.68 94.3087 32.68Z" fill="#0668B3"/><path d="M20.983 33.0155C22.0023 33.0155 22.8287 32.1892 22.8287 31.1698C22.8287 30.1504 22.0023 29.3241 20.983 29.3241C19.9636 29.3241 19.1372 30.1504 19.1372 31.1698C19.1372 32.1892 19.9636 33.0155 20.983 33.0155Z" fill="#0668B3"/></g></g></g></svg>