<svg width="102" height="133" viewBox="0 0 102 133" fill="none" xmlns="http://www.w3.org/2000/svg"><g id="Flask"><g id="Group"><path id="Vector" d="M31.5069 81.0387C27.8166 78.1354 23.8786 75.3532 21.1882 71.4329C15.5254 64.5199 11.1667 56.5178 8.18667 48.1069C6.38462 42.6374 5.7681 36.7738 3.44393 31.5165C1.01585 27.697 3.86213 23.5245 8.04537 22.3111C9.90635 21.9524 13.181 20.1954 9.22837 21.4525C5.68382 24.0517 5.34229 19.091 8.97618 18.7767C11.4562 18.4478 12.3693 16.4183 11.5202 14.5915C8.85706 12.8541 17.9757 10.9481 13.3869 8.35658C8.60994 3.2007 20.0717 2.20843 17.2432 8.06447C16.5671 12.5671 25.2549 7.23758 23.2374 12.4378C25.2872 14.9356 30.9107 13.0074 30.7694 16.5095C33.7544 16.7148 34.779 19.2247 37.5784 19.4179C40.4842 20.7295 45.7465 21.7617 46.7337 25.0338C43.8533 27.3136 37.1849 20.324 36.863 26.6356C37.7343 35.9614 37.5119 45.5679 40.9227 54.4483C42.5359 59.8247 46.4492 64.0567 49.9811 68.2451C53.3622 72.3459 57.9415 75.2347 62.6094 77.6653C66.7033 79.596 71.1166 80.8753 75.5793 81.68C77.3883 80.2961 80.5837 75.1504 83.4053 77.3187C83.5415 79.7594 77.8046 82.4175 83.136 82.1476C86.2693 81.2022 88.4401 84.5681 91.019 81.5311C93.3951 84.3457 100.895 79.7341 99.2043 85.4868C96.9175 86.9619 93.5833 86.0704 91.294 88.1006C87.5194 86.2143 84.5141 89.786 80.3341 89.3355C75.6933 90.1669 70.9702 90.5014 66.2655 90.5084C58.5453 89.8995 50.6623 89.6422 43.3185 86.9543C39.1802 85.7517 35.1433 83.3952 31.5069 81.0387ZM38.0264 83.8654C42.0658 85.6104 46.0165 87.4517 50.4443 88.0087C57.4688 88.9839 64.7232 90.4887 71.7724 89.1176C68.5821 87.6773 65.2827 89.6771 62.1044 88.0879C58.2931 88.9072 54.2018 87.8775 50.3252 87.37C45.9195 85.4076 41.1628 84.0586 37.0366 81.5089C31.8782 79.6257 39.7023 83.9249 41.0957 84.2741C44.3183 86.1027 37.5511 83.3357 36.5956 82.5759C33.8957 81.0609 33.5516 81.3777 36.3289 82.9149C36.8877 83.2419 37.4403 83.5859 38.0264 83.8654ZM30.3385 78.4326C34.2543 79.883 30.3214 75.6801 28.5295 75.9228C27.7349 74.544 25.4925 73.6728 27.074 72.9327C24.2303 73.9205 24.094 69.1778 22.7577 69.8564C19.7479 68.9059 21.5867 65.5394 18.0004 63.4706C17.6734 61.2922 14.4387 59.404 13.4091 56.1192C12.9535 54.4363 9.75301 49.6074 11.7185 54.1017C13.3913 58.4282 16.3346 62.1362 18.7848 65.8366C20.6857 69.3609 22.9332 73.0467 26.396 75.2448C27.5644 76.3657 28.6904 78.0809 30.3385 78.4326ZM19.0624 66.0495C19.198 65.4577 19.7777 67.3288 19.0624 66.0495V66.0495ZM35.0293 80.17C35.8955 79.7816 33.7817 79.6802 35.0293 80.17V80.17ZM37.1526 80.945C36.9327 79.8754 36.1825 81.5437 37.1526 80.945V80.945ZM39.8138 82.0538C41.0786 80.848 37.861 81.2935 39.8138 82.0538V82.0538ZM44.3728 84.5953C45.1427 83.4592 41.9099 84.1676 44.3728 84.5953V84.5953ZM35.6186 78.4922C37.5835 77.2198 33.0764 78.4744 35.6186 78.4922V78.4922ZM37.6132 79.487C37.5562 78.816 36.9029 79.7886 37.6132 79.487V79.487ZM47.5854 85.7118C49.1891 86.7243 56.9492 87.9295 52.0905 86.1274C51.2756 86.2985 43.0809 83.8083 47.5854 85.7118ZM31.7547 73.3807C31.5988 72.7077 29.2645 72.6355 31.7547 73.3807V73.3807ZM36.3954 76.0888C37.6056 75.2448 33.8881 75.4374 36.3954 76.0888V76.0888ZM40.3011 78.482C42.036 77.8288 37.4897 77.8262 40.3011 78.482V78.482ZM29.8633 71.3239C31.7445 72.7667 37.4523 71.5095 32.7444 70.4628C30.6033 69.3216 25.777 68.5397 29.0668 71.1509L29.8633 71.3239ZM42.9472 79.3089C43.7316 77.9745 39.6599 78.546 42.9472 79.3089V79.3089ZM38.9717 76.1503C43.5707 77.4498 35.1034 73.2393 37.8363 75.67L38.4427 75.945L38.9717 76.1503ZM46.9422 80.7568C51.2984 80.7986 43.0067 80.1555 46.9422 80.7568V80.7568ZM28.1879 68.8039C28.0169 67.9922 27.1139 68.8711 28.1879 68.8039V68.8039ZM54.3107 84.89C54.4267 83.425 52.8895 85.9817 54.3107 84.89V84.89ZM35.623 73.3559C35.3581 72.5835 34.2619 73.3236 35.623 73.3559V73.3559ZM28.6011 68.2945C31.1014 68.1437 25.1756 67.1932 28.6011 68.2945V68.2945ZM20.2821 62.9181C19.9704 61.718 17.5619 60.7625 20.2821 62.9181V62.9181ZM42.1203 76.7769C41.6628 76.2542 41.9048 76.8903 42.1203 76.7769V76.7769ZM55.7111 85.1181C55.6692 84.3184 54.971 85.4197 55.7111 85.1181V85.1181ZM40.9176 75.5344C41.1628 74.5047 38.7842 75.222 40.9176 75.5344V75.5344ZM30.7915 69.1163C32.6532 68.918 27.809 67.8585 30.7915 69.1163V69.1163ZM47.9199 79.7594C50.8207 78.6107 45.0933 79.1999 47.9199 79.7594V79.7594ZM39.0117 73.7127C42.3528 74.1429 35.0343 71.4379 38.2766 73.47L39.0117 73.7127ZM50.6249 80.8531C53.7462 78.9896 52.7165 85.222 55.9195 81.3803C59.0776 79.0738 53.1917 84.2316 57.0829 81.7915C59.8994 79.9077 64.0573 82.6849 66.6837 83.5885C68.5719 83.4966 70.4088 85.222 72.3465 84.1721C76.0741 83.1671 65.0553 82.6824 67.9434 80.9025C64.5325 81.8954 62.0132 79.7195 60.3347 77.5341C56.5082 76.6502 52.0854 74.6948 50.1744 71.3068C49.395 70.037 51.2984 71.4874 49.5015 69.4084C47.1969 67.3586 46.0463 65.0294 44.4989 62.5373C42.65 61.552 42.432 58.6487 42.2464 62.441C42.2616 60.0471 40.0141 58.4358 39.4647 59.1043C39.4546 56.7997 41.8706 57.9555 40.1801 56.2504C39.8164 53.8616 38.6182 51.372 38.2589 48.674C37.7 47.3744 38.1797 44.5903 36.3485 47.5328C35.6826 50.644 36.128 43.7114 37.1653 45.9957C38.5263 43.6645 36.6748 43.9389 36.6007 44.2608C37.4871 42.2933 37.1627 39.5009 36.3681 40.5654C36.8408 38.4789 37.1158 32.8877 35.6629 33.88C36.5437 31.6971 37.3338 23.8952 33.5067 26.8707C31.9574 26.8929 29.2721 27.4327 28.0048 28.0638C31.9821 30.2568 27.6037 28.8559 25.9823 28.5067C25.7719 30.5363 24.1682 29.66 22.1634 29.6796C25.3664 30.0756 20.604 32.9542 18.7702 31.8359C16.384 32.9745 20.827 35.8208 18.8171 36.7015C19.0649 38.0258 15.1636 36.2219 15.4684 39.2861C13.1537 38.3103 15.1516 42.9194 16.3099 41.36C20.2479 42.427 19.082 44.8551 19.1808 47.1641C18.5396 48.508 16.0127 44.0035 18.6188 44.2113C16.562 40.8721 16.3447 43.0036 14.6364 44.5554C14.2404 44.6669 18.9927 46.763 16.0101 47.7977C18.634 48.2039 18.7107 50.5008 19.2455 51.9537C20.822 53.5967 20.4975 50.139 22.3864 52.1147C21.1907 50.3544 16.0596 47.1565 20.1909 48.1817C20.1687 46.412 19.4432 44.9837 20.7104 45.018C21.9657 42.7483 19.3963 50.6167 22.2229 47.7312C23.0048 47.3896 23.2006 45.459 24.6066 47.9143C26.6482 49.9242 25.3442 51.379 22.4631 49.5377C22.9776 51.2878 26.3168 51.9113 25.6883 54.6467C26.3536 57.0526 27.2844 56.1661 28.0961 56.0273C28.7322 58.3642 29.094 56.6464 29.1238 55.5325C32.0366 56.1566 31.3536 57.8788 32.2666 59.0821C34.274 59.9875 29.3931 52.9409 32.8388 56.9632C36.4645 60.2378 34.1999 61.6039 30.9455 61.0793C33.0048 60.9133 33.6676 63.8641 36.2446 63.7602C38.5935 64.8786 40.1852 69.1708 36.1356 67.3833C34.7321 66.116 29.7594 64.5541 33.8216 66.9626C37.5689 68.7 40.5489 69.7373 44.165 71.9182C46.7515 73.7646 47.8699 75.8803 48.8501 76.2992C46.6748 77.3383 42.2964 75.4697 45.5482 74.8982C43.5187 74.5294 41.237 73.5023 43.1797 76.0292C44.8329 77.4106 49.0332 77.2642 49.7885 77.4201C49.1498 78.8261 48.0536 78.9376 49.8132 79.0466C47.8502 80.0934 50.4443 80.2568 50.6249 80.8531ZM46.6102 69.5149C45.4145 68.2647 45.1053 65.926 46.3973 67.9599C47.0607 68.2273 48.5187 71.7845 46.6102 69.5149ZM59.6865 77.8212C60.4316 77.7717 59.7087 78.3876 59.6865 77.8212V77.8212ZM44.7245 66.4506C44.677 64.5617 45.1547 67.908 44.7245 66.4506V66.4506ZM43.4249 64.703C41.92 61.7997 45.3182 65.5249 43.4249 64.703V64.703ZM27.6728 53.8324C28.5567 53.5967 28.1087 55.3417 27.6728 53.8324V53.8324ZM40.2099 60.6262C40.7516 58.5891 40.846 62.3345 40.2099 60.6262V60.6262ZM31.3536 54.468C30.7301 53.3445 32.6582 55.523 31.3536 54.468V54.468ZM38.9521 56.9037C37.529 53.7158 39.9621 55.1612 39.2689 57.4258L38.9521 56.9037ZM25.8467 48.1639C25.2105 47.1172 24.1587 44.0479 24.4977 43.1101C24.8018 44.6371 27.7425 49.679 25.9379 45.1992C23.9458 41.4443 28.3216 46.4164 28.7722 47.3548C28.9825 48.2856 27.5416 47.1001 28.5168 49.2855C26.7376 46.7978 27.4675 50.6592 25.8467 48.1639ZM21.7971 45.3722C21.9631 42.939 22.7229 47.0405 21.7971 45.3722V45.3722ZM23.6188 46.0007C24.4875 44.1645 25.0914 48.56 23.6188 46.0007V46.0007ZM19.2353 42.6102C17.7279 41.1097 16.6362 39.729 19.3069 41.6793C20.3341 41.7186 17.0202 38.5384 19.5547 40.6693C22.2178 41.1547 20.8688 45.0382 19.2353 42.6102ZM21.5373 42.5506C22.4136 41.6819 22.0024 43.4047 21.5373 42.5506V42.5506ZM22.9554 43.0036C21.626 40.516 24.5667 44.0479 22.9554 43.0036V43.0036ZM20.1389 40.3132C15.7554 36.4094 25.6458 42.3523 20.8543 41.0356L20.1389 40.3132ZM32.7 47.6095C30.8017 46.4734 32.195 39.6029 32.8439 44.3007C34.6877 43.7038 32.7419 46.7288 34.1156 46.699C33.9008 48.6069 33.2843 49.2931 32.7 47.6095ZM37.3458 50.357C37.5315 48.2856 37.7368 51.7731 37.3458 50.357V50.357ZM36.5392 49.5573C36.7471 48.674 36.5589 50.5996 36.5392 49.5573V49.5573ZM20.9975 39.0308C18.181 35.1447 29.1827 42.9612 22.8021 40.0161C22.1361 39.8405 21.332 39.7784 20.9975 39.0308ZM29.945 43.7735C29.6782 40.5014 30.5394 44.3153 29.945 43.7735V43.7735ZM36.7369 48.1316C37.2616 46.2681 36.7768 49.3647 36.7369 48.1316V48.1316ZM21.4309 37.5481C23.1043 37.1894 28.366 40.4862 23.5345 38.489C22.9979 37.8947 21.8516 38.1646 21.4309 37.5481ZM35.8036 44.7113C35.9823 41.3651 36.8041 42.7141 35.8112 45.1916L35.8036 44.7113ZM22.676 36.3828C23.359 35.3823 20.8638 31.8606 23.0346 35.12C23.973 35.8651 25.7497 36.3676 24.1808 36.6819C26.6482 38.8578 23.5795 37.2712 22.676 36.3828ZM35.0933 43.6671C35.5641 39.8551 35.5096 45.8993 35.0933 43.6671V43.6671ZM21.2503 32.863C21.7724 32.6399 21.5272 33.5581 21.2503 32.863V32.863ZM24.4901 34.7911C25.3239 33.041 26.0273 36.7414 24.4901 34.7911V34.7911ZM33.6258 39.8722C33.6182 39.2018 33.7988 40.8499 33.6258 39.8722V39.8722ZM33.0961 38.7019C31.8288 35.573 34.2765 40.3576 33.0961 38.7019V38.7019ZM32.3186 36.6496C32.1063 35.3576 33.0416 38.2736 32.3186 36.6496V36.6496ZM33.5859 34.5903C32.7146 33.0581 34.6852 27.8332 34.9057 31.0736C33.987 33.598 34.6409 35.0091 35.2789 31.623C36.4626 28.9598 35.0242 36.8827 33.5859 34.5903ZM34.888 26.8213C35.2669 26.3556 34.9722 27.3827 34.888 26.8213V26.8213ZM32.7127 69.6733C32.1976 69.2227 32.7792 69.9578 32.7127 69.6733V69.6733ZM37.1925 71.9379C39.6846 72.5791 39.6725 71.5514 37.42 71.2447C36.2097 70.1187 32.3858 68.923 35.8086 71.1059C36.0342 71.6806 36.7496 71.6654 37.1925 71.9379ZM28.3463 66.0616C29.7175 67.0868 33.5168 68.9623 30.3017 66.4531C31.3859 65.1928 28.2272 64.5225 29.2746 63.6785C26.6089 62.0469 27.1703 62.1932 29.0395 62.2452C25.8365 60.8119 29.5021 60.9209 29.3291 60.1859C28.0942 59.9432 23.193 58.0074 26.0767 60.3443C23.1461 58.8514 25.3784 60.9012 24.4926 60.6858C21.4949 59.8691 27.1608 62.9682 24.0174 62.1983C25.7351 63.5593 28.6435 65.6883 24.7422 63.6385C24.2303 64.3786 27.5347 65.5002 28.3463 66.0616ZM33.0314 68.7545C38.7272 70.5889 30.2371 66.5095 33.0314 68.7545V68.7545ZM57.0157 83.2837C57.0898 82.1527 56.2382 84.2487 57.0157 83.2837V83.2837ZM59.4812 84.321C60.7953 83.0486 59.5357 86.3505 61.659 84.0092C61.6812 82.3333 61.595 81.3435 59.2189 83.38C58.5624 83.7444 58.2709 85.286 59.4812 84.321ZM20.3493 59.7455C19.9456 58.1589 17.5201 58.1658 20.3493 59.7455V59.7455ZM22.9801 61.4702C22.0024 59.8494 19.4926 60.0028 22.9801 61.4702V61.4702ZM37.9573 70.5021C39.4204 71.8016 44.6725 71.455 39.7321 70.663C39.0015 69.5814 35.0888 69.8412 37.9573 70.5021ZM58.5428 83.2172C60.7928 81.3283 56.3624 84.0586 58.5428 83.2172V83.2172ZM63.2234 86.4322C63.238 85.8258 62.2533 86.6971 63.2234 86.4322V86.4322ZM63.231 85.5832C65.7231 82.9447 60.8175 85.739 63.231 85.5832V85.5832ZM13.8742 54.3248C11.7509 51.2954 12.5549 49.9337 10.5058 47.4587C10.1167 45.5654 6.99101 41.2732 8.88937 45.8201C10.6268 48.4808 11.1419 52.5994 13.8742 54.3248ZM62.4485 84.7442C67.0354 81.7814 60.5679 83.4548 62.4485 84.7442V84.7442ZM65.9487 86.1154C68.2456 84.1448 64.4958 85.7042 65.9487 86.1154V86.1154ZM19.5693 56.3961C20.2257 55.4184 17.8718 56.27 19.5693 56.3961V56.3961ZM65.2181 85.1795C67.4409 83.7469 64.7061 83.9668 64.8151 85.3107L65.2181 85.1795ZM35.0515 66.1655C34.9748 65.1954 33.8761 66.2472 35.0515 66.1655V66.1655ZM36.915 67.2376C36.3213 66.0394 36.0044 67.4258 36.915 67.2376V67.2376ZM68.7848 86.1477C71.6336 84.0928 67.0601 85.7536 68.1886 86.5387L68.7848 86.1477ZM67.6937 85.6205C70.0153 83.6772 65.2453 86.4816 67.6937 85.6205V85.6205ZM73.2671 89.3305C74.8246 88.2881 71.3738 88.994 73.2671 89.3305V89.3305ZM20.9975 55.6909C23.084 56.1585 29.3412 60.8315 25.6509 56.0153C23.7601 55.4558 24.8937 50.8347 22.9655 51.6515C24.26 53.8147 24.0294 54.7328 21.3118 53.3718C17.899 51.7034 19.3937 54.1961 20.0622 54.8843C19.1511 55.0921 21.2649 55.6738 20.9975 55.6909ZM11.486 48.1792C11.8592 46.6318 8.04284 39.6745 9.68395 44.6916C10.2751 45.7435 10.2137 47.7356 11.486 48.1792ZM28.9451 58.9433C27.8686 58.0448 28.8932 58.8147 28.9451 58.9433V58.9433ZM31.5912 59.5598C31.5912 57.9213 28.6657 58.8939 31.5912 59.5598V59.5598ZM54.5357 74.0219C54.0978 72.9029 52.8059 73.9972 54.5357 74.0219V74.0219ZM55.6369 74.826C55.4735 74.1999 55.0008 74.9476 55.6369 74.826V74.826ZM64.7308 80.5559C65.6046 79.9102 63.6391 80.4723 64.7308 80.5559V80.5559ZM16.2357 49.3919C18.7379 48.4237 13.5548 48.7013 16.2357 49.3919V49.3919ZM52.5157 72.2471C52.4865 70.6281 50.9195 72.6507 52.5157 72.2471V72.2471ZM15.2479 47.0874C16.8541 46.5456 13.7601 46.7313 15.2479 47.0874V47.0874ZM19.9108 49.3469C19.8835 48.8153 19.4185 49.5503 19.9108 49.3469V49.3469ZM76.8022 84.2342C78.8685 83.816 83.5789 85.286 84.3386 83.6873C81.8288 83.6252 75.6585 81.9151 75.3664 84.0929L75.9157 84.1797L76.8022 84.2342ZM21.3935 49.7208C21.4309 48.0797 20.1142 49.6593 21.3935 49.7208V49.7208ZM9.13205 41.2143C8.57509 38.0879 7.01318 40.7409 9.13205 41.2143V41.2143ZM12.055 41.9493C12.0924 40.9443 9.37917 41.0457 12.055 41.9493V41.9493ZM13.7259 42.7711C13.2431 42.3795 13.3495 43.2634 13.7259 42.7711V42.7711ZM24.2423 49.5155C24.7378 49.0599 23.0695 49.179 24.2423 49.5155V49.5155ZM12.6145 40.9196C12.33 38.5581 9.22583 40.5654 12.6145 40.9196V40.9196ZM6.61716 37.0285C6.53289 35.9393 6.03295 37.4391 6.61716 37.0285V37.0285ZM7.51059 36.3556C7.36485 35.0629 6.74326 36.5184 7.51059 36.3556V36.3556ZM12.4365 39.2956C14.5205 38.4789 8.64162 37.6025 12.0106 39.1423L12.4365 39.2956ZM78.3837 80.0313C79.7175 78.809 76.6907 79.653 78.3837 80.0313V80.0313ZM86.351 84.16C86.8858 82.581 85.0046 84.3678 86.351 84.16V84.16ZM12.9408 36.7142C13.1613 35.1846 11.2877 37.0183 12.9408 36.7142V36.7142ZM5.92904 32.0164C5.55266 29.8583 5.60462 26.0685 9.20619 27.3485C4.39945 28.304 12.5353 33.3255 11.5082 29.3602C13.5301 29.4597 15.4633 28.1652 14.4013 30.1276C18.3863 29.6897 21.1464 26.2345 24.9951 26.7199C27.9921 26.3213 31.2693 26.0216 34.4996 24.8139C37.1551 24.6232 39.7118 21.7643 38.257 20.0687C34.6358 19.762 30.8435 20.215 26.8415 21.0121C22.406 21.9328 18.3768 23.6848 13.9014 24.4376C9.53758 25.0243 14.7777 26.0514 13.5276 26.2814C11.2528 27.0709 16.2427 27.6032 13.2329 28.437C11.3745 28.0835 9.43873 27.4448 10.2333 25.4843C6.05513 26.0292 2.38196 27.7616 5.68382 32.0139L5.92904 32.0164ZM16.0006 26.8878C16.9783 23.2793 21.2478 29.8583 17.6044 27.3681C17.171 27.0412 16.4531 26.7763 16.0006 26.8878ZM16.1907 25.1377C17.6044 24.0859 16.941 25.7295 16.1907 25.1377V25.1377ZM17.9852 25.1675C18.1144 23.5067 22.0968 26.0463 18.6416 25.7644L17.9852 25.1675ZM20.4405 24.1803C21.339 23.1304 20.7009 25.1105 20.4405 24.1803V24.1803ZM21.0697 23.7596C22.5644 21.9651 29.5268 22.6133 24.4305 23.5834C23.0644 22.5538 22.0176 24.1898 21.0697 23.7596ZM30.1579 22.3586C29.933 17.4549 34.6751 24.0986 30.1579 22.3586V22.3586ZM32.7374 22.3434C33.6803 19.8735 36.3979 21.3511 33.1753 21.846C33.2443 22.1109 33.079 23.1234 32.7374 22.3434ZM11.9238 35.4469C14.7403 33.7215 8.93373 33.9497 11.9238 35.4469V35.4469ZM14.0079 36.0235C14.9957 34.9742 11.8592 35.5977 14.0079 36.0235V36.0235ZM7.86986 31.6698C9.47865 30.4324 5.96389 31.1997 7.86986 31.6698V31.6698ZM91.0539 83.7095C91.1007 82.2737 89.8233 84.3552 91.0539 83.7095V83.7095ZM82.6012 77.9396C82.8413 76.289 81.5145 78.0835 82.6012 77.9396V77.9396ZM93.378 84.2665C95.6281 84.2741 100.197 83.5657 95.3011 83.5682C94.5312 83.6873 90.8238 83.6626 93.378 84.2665ZM15.8397 35.011C17.6614 34.8874 18.6885 33.0036 15.4855 33.1101C10.5229 32.5981 19.8639 34.8108 14.8493 34.1771C14.1764 34.6226 15.7998 35.1352 15.8397 35.011ZM17.4434 35.8233C17.2527 34.6549 16.8789 36.4443 17.4434 35.8233V35.8233ZM19.3469 30.7492C20.1364 29.7689 18.2526 30.4868 19.3469 30.7492V30.7492ZM13.2874 20.6231C16.5399 19.5193 20.9854 18.2767 22.5201 21.168C20.9582 19.2893 21.889 17.4378 23.3641 20.1878C25.4506 22.9675 26.4949 18.923 25.1383 17.9897C26.6856 19.9102 28.4427 20.8189 26.173 18.1114C28.641 15.1434 21.2351 18.4998 19.5522 18.4649C18.743 18.8286 11.1914 20.3905 13.2874 20.6231ZM15.1934 16.9753C17.0474 15.5768 21.6064 17.8091 18.6809 15.5838C18.3939 15.3316 12.2755 17.2718 15.1934 16.9753ZM21.953 17.2547C24.1213 17.3092 21.0177 14.3387 23.6017 15.6852C23.1784 14.2994 20.5919 14.0396 19.3272 13.4852C18.6118 14.7525 20.782 17.2718 21.953 17.2547ZM16.3789 11.1186C17.1291 10.1016 15.0622 11.6363 16.3789 11.1186V11.1186ZM19.1416 11.7795C22.6386 11.3169 18.25 10.2746 18.4357 11.7427L19.1416 11.7795ZM13.9832 7.74512C11.5202 4.53006 18.6144 8.28497 16.1115 4.91848C14.0053 3.24316 11.9834 6.80734 13.9832 7.74512ZM45.578 24.762C46.7071 22.7616 40.9176 22.064 44.8183 24.0536C45.1769 24.1727 45.0958 24.9001 45.578 24.762Z" fill="black"/><g id="Vector_2"><path d="M22.6521 99.2617C22.4026 100.248 22.2476 101.904 22.1896 104.227C22.1896 104.683 21.984 104.912 21.5721 104.912C21.1598 104.912 20.873 104.712 20.7106 104.315C20.2692 103.241 19.851 102.492 19.4525 102.064C18.9821 101.565 18.3567 101.263 17.5768 101.16C16.7385 101.027 14.6498 100.961 11.3105 100.961C10.5459 100.961 10.0449 101.042 9.81031 101.205C9.6632 101.307 9.58984 101.528 9.58984 101.867V111.863C9.58984 112.202 9.80286 112.362 10.2285 112.349C11.5388 112.333 13.436 112.244 15.9217 112.084C16.4074 112.024 16.7353 111.866 16.904 111.608C17.0743 111.351 17.2398 110.686 17.4007 109.612C17.5031 109.023 17.8495 108.795 18.4379 108.928C18.9377 109.031 19.1523 109.259 19.0786 109.612C18.6663 111.613 18.5329 114.217 18.68 117.424C18.6957 117.806 18.4532 118.012 17.9523 118.042C17.54 118.086 17.2826 117.865 17.1798 117.38C16.7985 115.541 16.0872 114.559 15.0512 114.433C14.0139 114.309 12.325 114.246 9.98646 114.246C9.72165 114.246 9.58984 114.341 9.58984 114.532V124.463C9.58984 125.198 9.86092 125.699 10.4051 125.963C10.8327 126.184 11.7518 126.383 13.1634 126.559C13.8852 126.633 14.2006 126.95 14.1135 127.508C14.0245 127.994 13.378 128.185 12.1704 128.082C8.684 127.802 5.8076 127.817 3.5428 128.127C2.90962 128.214 2.5942 127.957 2.5942 127.354C2.5942 126.971 2.90962 126.751 3.5428 126.692C4.98453 126.53 5.70481 125.264 5.70481 122.897V104.006C5.70481 103.036 5.5318 102.29 5.18697 101.767C4.84056 101.244 4.19678 100.769 3.25603 100.343C2.66757 100.078 2.44709 99.7184 2.5942 99.2617C2.66757 98.9828 2.78565 98.8278 2.9465 98.7988C3.09361 98.7545 3.48435 98.7835 4.11557 98.8875C5.04299 99.0346 7.22814 99.1083 10.6699 99.1083C14.731 99.1083 18.2387 99.0193 21.1967 98.8431C22.1817 98.7835 22.6753 98.8647 22.6753 99.0852C22.6753 99.1452 22.6678 99.2033 22.6521 99.2617Z" fill="black"/><path d="M36.9629 127.275C36.9629 127.863 36.6318 128.121 35.97 128.047C33.9409 127.855 31.4247 127.884 28.4239 128.134C27.8202 128.194 27.4494 128.179 27.3086 128.092C27.1689 128.003 27.0999 127.76 27.0999 127.362C27.0999 127.01 27.5 126.712 28.3015 126.469C29.1046 126.227 29.5043 125.502 29.5043 124.296V104.325C29.5043 103.133 29.3313 102.257 28.9865 101.698C28.6401 101.139 28.0332 100.705 27.1658 100.397C26.7091 100.235 26.4808 100.006 26.4808 99.712C26.4808 99.2707 26.8119 98.9396 27.4738 98.7191C28.4745 98.3955 29.5122 97.8961 30.5863 97.2185C31.469 96.6885 32.0284 96.4249 32.2627 96.4249C32.8068 96.4249 33.0798 96.7988 33.0798 97.5496C33.0798 97.4916 33.0504 98.2272 32.9908 99.7564C32.948 101.212 32.9327 102.647 32.948 104.06L33.0351 123.765C33.0351 124.663 33.256 125.315 33.6973 125.719C34.1387 126.124 34.897 126.392 35.97 126.524C36.6318 126.597 36.9629 126.847 36.9629 127.275Z" fill="black"/><path d="M56.9215 125.974C56.9215 126.283 56.359 126.749 55.2342 127.374C54.1079 127.999 53.2068 128.312 52.5308 128.312C51.9561 128.312 51.4492 128.033 51.0079 127.474C50.5666 126.915 50.2566 126.636 50.0805 126.636C49.9487 126.636 49.25 126.937 47.984 127.54C46.72 128.143 45.4465 128.445 44.1668 128.445C42.9609 128.445 41.9523 128.092 41.1433 127.387C40.2606 126.606 39.8193 125.547 39.8193 124.208C39.8193 121.663 42.7326 119.839 48.5587 118.736C49.5579 118.544 50.0668 118.14 50.0805 117.522L50.1252 116.109C50.2139 113.697 49.1472 112.491 46.9252 112.491C46.2924 112.491 45.6933 113.056 45.126 114.189C44.5607 115.323 43.7471 115.933 42.6878 116.022C41.4819 116.138 40.8781 115.631 40.8781 114.499C40.8781 113.792 41.7761 112.969 43.5705 112.027C45.454 111.041 47.2641 110.548 49.0001 110.548C51.9855 110.548 53.4641 111.969 53.4351 114.808L53.3461 123.899C53.3323 124.855 53.7372 125.333 54.5599 125.333C54.7223 125.333 55.0318 125.296 55.4869 125.223C55.9439 125.149 56.2087 125.112 56.2825 125.112C56.7085 125.112 56.9215 125.4 56.9215 125.974ZM50.1252 120.943C50.1405 120.575 50.0546 120.331 49.8706 120.214C49.6866 120.097 49.3971 120.074 49.0001 120.147C45.454 120.78 43.6812 121.935 43.6812 123.612C43.6812 125.304 44.6003 126.15 46.4395 126.15C47.1751 126.15 47.9338 126.01 48.7121 125.731C49.6254 125.407 50.0805 125.017 50.0805 124.561L50.1252 120.943Z" fill="black"/><path d="M73.3279 123.434C73.3279 124.994 72.7268 126.234 71.5287 127.154C70.3302 128.073 68.6935 128.533 66.6186 128.533C65.2365 128.533 63.8524 128.386 62.4703 128.092C61.2781 127.826 60.5869 127.584 60.3954 127.363C60.2773 127.157 60.2193 126.15 60.2193 124.34C60.2193 123.56 60.3954 123.156 60.7493 123.127C61.102 123.082 61.4037 123.274 61.6536 123.7C62.7567 125.627 64.5374 126.591 66.994 126.591C69.0674 126.591 70.105 125.87 70.105 124.427C70.105 123.796 69.8704 123.266 69.3985 122.84C68.8834 122.354 67.8846 121.787 66.3981 121.14C64.2495 120.184 62.8152 119.346 62.0949 118.624C61.3146 117.859 60.9254 116.83 60.9254 115.535C60.9254 113.945 61.5355 112.71 62.7567 111.828C63.8893 110.974 65.4048 110.548 67.302 110.548C68.4942 110.548 69.5825 110.643 70.5692 110.835C71.6284 111.026 72.18 111.261 72.2243 111.541C72.3408 112.364 72.5844 113.556 72.9524 115.116C72.9968 115.306 72.7896 115.461 72.3345 115.579C71.8489 115.682 71.5256 115.601 71.3632 115.337C70.2016 113.438 68.7304 112.49 66.9497 112.49C64.9344 112.49 63.9262 113.136 63.9262 114.431C63.9262 115.153 64.1989 115.726 64.743 116.152C65.2287 116.52 66.3687 117.095 68.1635 117.875C70.0466 118.684 71.3263 119.412 72.0038 120.058C72.8865 120.897 73.3279 122.023 73.3279 123.434Z" fill="black"/><path d="M99.2892 127.296C99.2892 127.811 98.9428 128.084 98.2516 128.113C97.2217 128.128 95.8746 128.202 94.2135 128.334C93.3893 128.496 92.8008 128.394 92.4481 128.026C90.1233 125.525 88.1512 122.906 86.5329 120.169C86.4011 119.934 86.2324 119.816 86.0257 119.816C85.7758 119.816 85.3423 120.037 84.7248 120.478C84.032 120.86 83.6871 121.405 83.6871 122.11C83.6871 122.611 83.7009 123.332 83.7315 124.274C83.7609 125.215 83.9951 125.833 84.4364 126.127C84.746 126.334 85.4604 126.495 86.5773 126.613C87.2685 126.702 87.6149 126.959 87.6149 127.385C87.6149 127.724 87.5596 127.934 87.4494 128.014C87.3391 128.095 87.0476 128.113 86.5773 128.069C85.1061 127.937 82.6204 128.01 79.1191 128.289C78.2364 128.363 77.7582 128.252 77.6844 127.958C77.6554 127.856 77.6401 127.709 77.6401 127.517C77.6401 127.062 78.0893 126.715 78.9873 126.481C79.7962 126.274 80.2007 125.325 80.2007 123.634V104.346C80.2007 103.14 80.083 102.302 79.8468 101.832C79.5236 101.228 78.8461 100.757 77.8162 100.419C77.3321 100.258 77.0885 100.029 77.0885 99.7352C77.0885 99.3076 77.4349 98.9765 78.1258 98.7423C79.2293 98.3743 80.2803 97.867 81.2811 97.2189C82.0904 96.6901 82.5914 96.4249 82.7813 96.4249C83.3854 96.4249 83.6871 96.8066 83.6871 97.5728C83.6871 97.4688 83.6797 98.1981 83.664 99.7568C83.6503 100.831 83.6428 102.273 83.6428 104.083L83.6871 117.896C83.6871 118.279 83.7899 118.469 83.9951 118.469C84.216 118.469 84.5545 118.279 85.0112 117.896C86.2324 116.94 87.733 115.69 89.5121 114.145C89.866 113.777 90.0421 113.483 90.0421 113.262C90.0421 112.865 89.4462 112.585 88.2556 112.424C87.7405 112.364 87.4968 112.078 87.5259 111.562C87.5702 111.048 87.8279 110.827 88.2983 110.901C89.3587 111.048 90.9036 111.129 92.9323 111.144C94.3453 111.158 95.7506 111.166 97.1484 111.166C97.6035 111.181 97.8318 111.452 97.8318 111.983C97.8318 112.482 97.4717 112.755 96.7514 112.799C95.6172 112.842 94.5505 113.1 93.5517 113.571C92.1539 114.203 90.6596 115.314 89.0708 116.903C88.9543 116.992 88.8942 117.102 88.8942 117.234C88.8942 117.44 89.1441 117.933 89.6455 118.713C91.4843 121.508 93.2206 123.618 94.8526 125.046C95.8977 125.943 96.8753 126.392 97.7871 126.392C98.4646 126.392 98.8843 126.44 99.0452 126.536C99.208 126.631 99.2892 126.886 99.2892 127.296Z" fill="black"/></g></g></g></svg>