<svg xmlns="http://www.w3.org/2000/svg" width="108" height="109" fill="none" viewBox="0 0 108 109">
  <path fill="#D0E9FB" fill-rule="evenodd" d="M57.157 52.003c-7.422.29-15.421-1.108-22.168-4.482l1.398-2.216c6.553 3.084 14.072 4.144 20.77 3.855 0 .24.288-4.53.722-7.133H47.808c.915-10.505 4.144-19.855 8.963-27.806h-30.12V60.1h31.662c-.723-2.747-1.156-8.192-1.156-8.096Z" clip-rule="evenodd"/>
  <path fill="#00ACEC" fill-rule="evenodd" d="M60.192 48.967c5.494-.53 10.313-1.976 13.253-3.855l1.735 2.216c-4.049 2.362-9.301 3.904-14.988 4.482a40.165 40.165 0 0 0 1.302 8.29h21.685V14.22H60.096c-4.916 7.518-7.71 15.903-8.77 24.77h10.36c-.867 3.374-1.397 6.7-1.494 9.976ZM40.337 21.16h2.94v6.795h-2.94V21.16Z" clip-rule="evenodd"/>
  <path fill="#00ACEC" fill-rule="evenodd" d="M57.157 49.16v2.843c-7.422.29-15.422-1.108-22.168-4.482l1.397-2.216c6.553 3.084 14.072 4.144 20.77 3.855Z" clip-rule="evenodd"/>
  <path fill="#000" fill-rule="evenodd" d="M64.818 21.16h2.94v6.796h-2.94V21.16Z" clip-rule="evenodd"/>
  <path fill="#000" fill-rule="evenodd" d="M60.192 48.967c5.494-.53 10.313-1.976 13.253-3.855l1.735 2.216c-4.049 2.362-9.301 3.904-14.988 4.482.241 5.108 1.495 10.168 4 15.036l-2.505 1.348c-4.578-7.228-5.398-16.962-3.808-26.167H47.807C49.06 27.715 54.554 15.57 62.554 6.125l2.168 1.88c-7.806 9.06-12.095 19.614-13.397 30.986h10.362c-.868 3.374-1.398 6.7-1.495 9.976ZM9.784 75.52c-1.349.096-2.023.145-2.89.145-.531 0-1.061 0-1.688-.049h-.963c-.482 0-.723.194-.723.675 0 .434.24.675.82.723l1.011.096c1.639.145 1.783.29 1.783 1.687 0 .193-.048.675-.048 1.205l-.916 16.24c-.193 3.276-.24 3.566-.53 3.951-.145.241-.578.482-1.253.579l-.626.096c-.916.193-1.06.337-1.06.868 0 .385.24.627.626.627h.24l.58-.049a45.538 45.538 0 0 1 2.65-.096c.82 0 2.505.048 2.987.096l.675.049.24.048c.386.048.723-.289.723-.723 0-.482-.24-.675-.819-.771l-.77-.097c-1.784-.193-1.977-.482-1.977-2.41 0-.626 0-1.493.049-2.071l.53-15.806 6.89 20.818c.194.578.29.674.53.674.29 0 .338-.096.58-.723l7.083-20.722.097 16v1.542c0 2.072-.193 2.457-1.494 2.65l-.627.097c-.675.096-.915.289-.915.819 0 .434.24.627.722.675h.194l.53-.097c.627-.048 2.457-.145 3.325-.145.77 0 1.253 0 1.88.097.625.048 1.107.048 1.252.048h.579c.481 0 .723-.193.723-.675 0-.433-.241-.626-1.012-.722l-.675-.097c-1.012-.096-1.349-.434-1.494-1.108-.096-.674-.096-1.493-.144-4.385l-.097-13.976-.048-1.975c0-1.928.096-2.072 1.638-2.265l.916-.097c.674-.096.867-.289.867-.771 0-.434-.145-.579-.723-.627h-.144l-.579.048c-.723 0-1.301.049-1.976.049-.723 0-1.35-.049-2.602-.097l-7.084 20.578L9.784 75.52Zm52.674 6.265v-2.746h-.53l-.675 2.312h-.048l-.723-2.313h-.53v2.747h.337V79.52l.771 2.264h.289l.771-2.312v2.312h.338ZM36.483 100c.77-.337 1.59-.963 2.169-1.637.385-.579.53-.965.53-1.687l.096-4.337c-1.349.674-2.12 1.108-2.795 1.59-.24.144-.434.336-.626.481-1.447 1.205-2.17 2.555-2.17 3.808 0 1.252.675 2.071 1.64 2.071.337 0 .722-.096 1.156-.289Zm0-7.71c.82-.482 1.783-.964 2.795-1.398v-3.47c0-2.36-.53-3.373-1.831-3.373a3.12 3.12 0 0 0-.964.145c-1.301.482-2.264 1.832-2.602 3.806l-.145.723c-.193.868-.386 1.06-1.06 1.06H32c-.53 0-.819-.288-.819-.77 0-.82.82-2.795 1.735-3.903.964-1.157 2.217-1.977 3.566-2.362a6.473 6.473 0 0 1 1.687-.24c1.446 0 2.169.192 2.795.722.916.771 1.157 1.494 1.157 3.855v.289l-.096 8.77c0 2.845 0 2.845.096 3.23.048.385.337.77.723.819.723.096 1.012-.193 1.301-.723.241-.626 1.013-.626.916.048-.048.723-.24 1.301-.867 2.024-.772.868-1.832 1.109-2.892 1.109-1.446 0-2.12-.916-2.12-2.844a8.552 8.552 0 0 1-2.699 2.217c-.915.434-1.928.723-2.843.723-1.88 0-3.133-1.35-3.133-3.422-.001-2.408 2.119-4.915 5.975-7.035Zm20.962-12.915h.916v2.409h.337v-2.41h.916v-.337h-2.169v.338Zm.771 19.853c-.867 1.205-2.12 2.218-4.144 2.169-3.952-.144-5.542-4.433-5.542-9.203 0-4.675 2.073-8.097 4.867-8.241.964-.048 1.687.289 2.313.916a5.579 5.579 0 0 1 1.35 1.975c.48 1.398 1.83 2.41 1.637-1.782-.096-1.543-1.975-2.651-4.096-2.603-5.349.145-9.06 4.337-9.06 10.89 0 5.736 2.844 9.543 7.084 9.543 1.638 0 3.615-.097 4.963-1.157 1.06-.771 1.35-1.156 1.542-1.976.243-1.06-.624-.915-.914-.53Z" clip-rule="evenodd"/>
  <path fill="#00ACEC" fill-rule="evenodd" d="M77.734 74.508c-6.844.144-11.758 6.072-11.758 14.361 0 8.579 4.77 14.506 11.565 14.506h.193c3.47-.048 6.169-1.446 8.483-4.433 2.216-2.796 3.18-5.88 3.18-10.121 0-3.903-.82-6.94-2.457-9.445-2.072-3.133-5.254-4.868-9.013-4.868h-.193Zm0 27.421c-2.505 0-4.193-.964-5.831-3.374-1.735-2.553-2.505-5.542-2.505-9.638 0-7.566 3.372-12.819 8.336-12.963h.193c2.265 0 4.096 1.012 5.59 3.085 1.735 2.312 2.554 5.541 2.554 9.782 0 3.904-.674 6.891-2.217 9.301-1.639 2.65-3.47 3.807-6.12 3.807Zm26.12-25.782c-1.495-.964-2.891-1.35-4.82-1.35-4.337 0-7.565 3.23-7.565 7.711 0 3.085 1.398 4.964 4.915 6.747l2.265 1.06c2.747 1.399 3.903 2.94 3.903 5.446 0 3.422-2.072 5.832-4.915 5.832-1.494 0-2.796-.579-3.614-1.687-.723-.915-1.301-2.361-1.542-3.566l-.097-.916c-.144-.82-.289-1.06-.77-1.06-.434 0-.675.385-.675 1.156l.145 5.976c1.88 1.108 3.758 1.638 6.023 1.638 2.844 0 4.964-.964 6.41-2.94 1.157-1.542 1.783-3.469 1.783-5.541 0-3.566-1.397-5.735-4.675-7.422l-1.493-.771c-2.7-1.348-3.278-1.734-3.952-2.505-.674-.771-1.012-1.784-1.012-3.037 0-2.698 1.734-4.626 4.048-4.626 2.264 0 4 1.687 4.385 4.193l.097.674c.048.53.24.771.627.771.482 0 .578-.048.674-.867v-.097l-.145-4.82Z" clip-rule="evenodd"/>
</svg>
