<svg xmlns="http://www.w3.org/2000/svg" width="211" height="56" fill="none" viewBox="0 0 211 56">
  <path fill="#DF4F4F" fill-rule="evenodd" d="m123.334 5.337 40.063 42.437s1.366.963 2.409-.16c1.044-1.124.241-2.246.241-2.246L123.334 5.337Zm12.685 4.01 30.51 32.892s1.365.962 2.409-.161c1.043-1.123.24-2.246.24-2.246L136.019 9.348Zm-8.912 8.585 30.51 32.89s1.365.963 2.408-.16c1.044-1.123.241-2.246.241-2.246l-33.159-30.484Zm19.636-5.134 21.316 22.978s.953.673 1.682-.112c.73-.785.168-1.57.168-1.57l-23.166-21.296Zm-16.7 15.08 21.316 22.98s.953.672 1.682-.112c.729-.785.169-1.57.169-1.57L130.043 27.88Zm27.654-10.107 9.661 10.447s.472.315.832-.053c.361-.368.084-.735.084-.735l-10.577-9.659Zm-22.32 20.697 9.661 10.447s.472.315.832-.053c.361-.367.084-.735.084-.735l-10.577-9.659Z" clip-rule="evenodd"/>
  <path fill="#26262C" fill-rule="evenodd" d="M176.515 22.52v28.17h6.373v-9.086h4.78l6.146 9.086h7.283l-6.828-9.768s6.063-2.396 6.063-8.897c0-9.178-8.339-9.503-8.339-9.503h-15.478Zm6.373 5.453v8.178h8.194s3.132 0 3.132-4.09c0-4.244-3.815-4.088-3.815-4.088h-7.511Zm-76.933-5.452v28.168h21.396v-5.452h-15.023V39.33h12.974v-5.45h-12.974v-5.91h15.023v-5.45h-21.396ZM75 22.52v5.452h8.421v22.716h6.374V27.973h8.421V22.52H75Zm-29.134 0v28.168H67.26v-5.452H52.24V39.33h12.974v-5.45H52.239v-5.91H67.26v-5.45H45.866Zm-35.963 0v28.17h6.369V32.97l7.739 11.358 7.742-11.358v17.72h6.374V22.52h-6.374l-7.742 11.585-7.74-11.585H9.904Z" clip-rule="evenodd"/>
</svg>
