<svg xmlns="http://www.w3.org/2000/svg" width="171" height="69" fill="none" viewBox="0 0 171 69">
  <path fill="#33547D" d="M11.715 60.792a7.057 7.057 0 1 0 0-14.115 7.057 7.057 0 0 0 0 14.115Zm25.476-1.988a4.992 4.992 0 1 0 0-9.984 4.992 4.992 0 0 0 0 9.984Zm21-2.726a2.266 2.266 0 1 0 0-4.532 2.266 2.266 0 0 0 0 4.532ZM35.846 38.949c-1.24 0-2.16-.965-2.16-2.16v-9.192c0-3.17-1.516-5.606-4.917-5.606-3.4 0-5.468 2.62-5.468 5.653v9.145c0 1.195-.827 2.16-2.16 2.16-1.287 0-2.16-.965-2.16-2.16v-9.192c0-3.17-1.655-5.606-5.055-5.606-3.493 0-5.331 2.62-5.331 5.653v9.145c0 1.195-.873 2.16-2.16 2.16-1.241 0-2.16-.965-2.16-2.16V20.474c0-1.286.827-2.205 2.16-2.205 1.47 0 2.16 1.01 2.16 2.206v1.47c1.24-2.436 3.768-3.86 6.48-3.86 3.308 0 5.79 1.654 7.03 4.09 1.793-2.758 4.412-4.09 7.675-4.09 5.56 0 8.226 3.814 8.226 9.19v9.513c0 1.196-.873 2.16-2.16 2.16Zm8.226-28.86a2.55 2.55 0 0 1 2.528 2.527 2.55 2.55 0 0 1-2.528 2.528 2.55 2.55 0 0 1-2.527-2.528 2.55 2.55 0 0 1 2.527-2.527Zm0 28.86c-1.286 0-2.16-.965-2.16-2.16v-16.36c0-1.195.92-2.16 2.16-2.16 1.241 0 2.16.965 2.16 2.16v16.36c0 1.195-.873 2.16-2.16 2.16ZM58.41 25.713l5.468-6.801a1.815 1.815 0 0 1 1.425-.643c1.195 0 1.976.78 1.976 1.884 0 .413-.138.827-.505 1.24l-6.02 7.17 6.111 7.214c.322.368.506.736.506 1.287 0 1.058-.92 1.884-1.93 1.884-.644 0-1.15-.23-1.517-.69l-5.514-6.847-5.515 6.847c-.368.46-.873.69-1.517.69-1.01 0-1.93-.827-1.93-1.884 0-.551.184-.92.506-1.287l6.112-7.214-6.02-7.17c-.368-.413-.506-.827-.506-1.24 0-1.103.782-1.884 1.976-1.884.598 0 1.057.23 1.425.643l5.469 6.801Zm23.575 13.42c-3.08 0-5.607-1.608-7.078-3.952v10.202c0 1.195-.873 2.16-2.16 2.16-1.286 0-2.16-.965-2.16-2.16V20.428c0-1.194.736-2.16 2.069-2.16 1.332 0 2.114 1.012 2.114 2.206v1.564c1.378-2.39 4.136-3.953 7.215-3.953 5.284 0 9.604 4.412 9.604 10.524 0 6.341-4.32 10.524-9.604 10.524Zm-.873-17.463c-3.722 0-6.204 3.262-6.204 6.939s2.481 6.94 6.204 6.94c3.722 0 6.157-2.804 6.157-6.94 0-4.136-2.435-6.94-6.157-6.94Zm33.271 15.119c0 1.195-.827 2.16-2.16 2.16-1.287 0-2.113-.965-2.113-2.16v-1.011c-1.287 1.93-3.722 3.355-6.709 3.355-6.435 0-10.156-4.688-10.156-10.524 0-5.745 4.136-10.524 10.615-10.524 6.618 0 10.524 4.32 10.524 10.524v8.18h-.001Zm-10.57-15.028c-3.676 0-6.25 3.08-6.25 6.848 0 3.952 2.16 6.847 6.25 6.847 3.814 0 6.25-3.263 6.25-6.847 0-4.228-2.573-6.848-6.25-6.848Zm23.576-3.676c5.56 0 9.65 4.228 9.65 9.605v9.099c0 1.195-.965 2.16-2.16 2.16a2.157 2.157 0 0 1-2.16-2.16v-9.605c0-2.895-2.298-5.147-5.33-5.147-3.033 0-5.286 2.251-5.286 5.147v9.605c0 1.195-.964 2.16-2.16 2.16a2.157 2.157 0 0 1-2.159-2.16v-9.1c0-5.376 4.044-9.604 9.605-9.604Zm32.122 10.569c0 .736-.414 1.471-1.654 1.471h-13.741c.23 3.171 2.39 5.56 6.204 5.56 2.39 0 3.814-.827 5.33-2.252.368-.367.873-.69 1.425-.69.965 0 1.793.69 1.793 1.793 0 .459-.231.873-.552 1.24-1.746 2.022-4.872 3.356-8.18 3.356-6.848 0-10.478-4.78-10.478-10.525 0-6.02 4.366-10.523 10.293-10.523 5.792.001 9.56 4.688 9.56 10.57Zm-9.559-7.122c-3.171 0-5.331 2.251-5.744 5.101h11.304c-.367-2.758-2.435-5.1-5.56-5.1Zm14.614 17.417c-1.288 0-2.16-.965-2.16-2.16V9.768c0-1.196.873-2.16 2.16-2.16 1.286 0 2.159.964 2.159 2.16v27.02c.001 1.196-.873 2.16-2.159 2.16Z"/>
</svg>
