<svg xmlns="http://www.w3.org/2000/svg" width="153" height="78" fill="none" viewBox="0 0 153 78">
  <path fill="#768693" d="M112.443 50.327c2.8 1.199 4.472 3.453 4.472 6.024 0 3.404-2.616 5.432-7.006 5.432-4.657 0-6.819-4.099-7.373-5.353l-.681-1.55h-8.721l-.014-.012h-8.083c-2.204 3.681-6.65 7.077-11.818 7.077-9.327 0-13.981-7.29-14.579-14.486h38.125v-1.576c0-2.983-.311-5.79-.89-8.399 1.09 3.347 3.578 6.815 8.793 9.27 1.904.908 4.778 2.262 7.775 3.573ZM72.671 27.459c7.802 0 11.626 5.384 12.733 10.864H59.436c1.357-5.491 6.168-10.864 13.235-10.864Zm76.504.158v-9.843h-8.104V6.137h-9.948v11.637h-20.042c-9.256.005-15.974 6.228-15.974 14.806 0 .918.083 1.912.268 2.945-3.153-10.928-11.466-17.75-22.629-17.75-13.656 0-24.092 10.63-24.969 25.033v-3.06c0-12.12-9.86-21.974-21.977-21.974-12.116 0-21.975 9.854-21.975 21.974V71.25h10.072V39.748c0-6.56 5.339-11.904 11.903-11.904s11.906 5.344 11.906 11.904V71.25h10.071V46.74c.882 14.456 11.454 25.123 25.286 25.123 8.445 0 15.892-4.904 20.111-10.583 3.149 6.728 9.299 10.583 16.894 10.583 8.806 0 17.719-5.624 17.719-16.375 0-6.438-3.739-11.697-10.527-14.817-.868-.395-1.569-.727-2.24-1.046l-.092-.047c-.758-.358-1.494-.703-2.401-1.116-4.436-1.991-6.549-3.452-6.549-6.359 0-2.559 2.287-4.486 5.116-4.486h20.029v28.056c0 8.93 7.262 16.19 16.19 16.19v-9.947a6.25 6.25 0 0 1-6.242-6.243V27.617c3.979.005 7.047 0 8.104 0"/>
</svg>
