<svg xmlns="http://www.w3.org/2000/svg" width="161" height="73" fill="none" viewBox="0 0 161 73">
  <path fill="#fff" d="M149.978 25.837h-3.972l-4.4 6.935-4.277-6.935h-4.125l6.141 10.052-6.202 10.388h3.911l4.369-7.027 4.277 7.027h4.125l-6.203-10.144 6.356-10.296Zm-21.938 0v13.902l-8.035-13.902h-3.3v20.44h3.3v-13.84l8.035 13.84h3.361v-20.44h-3.361Zm-14.085 0h-3.544v20.44h3.544v-20.44Zm-6.294 7.271v-1.16c0-3.973-2.902-6.539-8.035-6.539-5.072 0-8.005 2.567-8.005 6.538v8.22c0 3.971 2.933 6.538 8.035 6.538 5.103 0 8.005-2.567 8.005-6.539V35.37h-8.157v3.27h4.583v1.313c0 2.14-1.62 3.453-4.492 3.453-2.841 0-4.46-1.314-4.46-3.453v-7.79c0-2.14 1.619-3.453 4.49-3.453 2.842 0 4.462 1.314 4.462 3.452v.947h3.574ZM85.54 25.837v13.902l-8.035-13.902h-3.33v20.44h3.33v-13.84l8.036 13.84h3.33v-20.44h-3.33Z"/>
  <path fill="#999" d="M111.847 55.626h-1.314v-1.772h3.056v-.794h-3.911v3.36h2.108c.764 0 1.192.337 1.192.978v.673c0 .702-.489 1.1-1.345 1.1-.825 0-1.314-.398-1.314-1.1v-.642h-.855v.611c0 1.161.855 1.894 2.139 1.894 1.313 0 2.169-.763 2.169-1.894v-.642c.061-1.069-.733-1.772-1.925-1.772Zm-3.116-1.802v-.795h-4.156v6.783h.856v-2.719h2.964v-.825h-2.964v-2.444h3.3Zm-7.608-.642h.428v-.764h-.52c-1.1 0-1.741.672-1.741 1.834v.702h-.55v.764h.58v4.094h.825v-4.094h1.344v-.764h-1.344v-.641c-.03-.795.275-1.13.978-1.13ZM90.46 59.048c-.672 0-.978-.305-.978-1.1v-2.23h1.314v-.764h-1.314v-1.436h-.825v1.436h-.641v.764h.641v2.414c0 1.16.55 1.68 1.62 1.68h.61v-.764h-.427Zm-3.361-4.185c-.55-.031-1.1.183-1.497.58l-.153-.489h-.58v4.858h.824v-3.055c0-.794.58-1.161 1.284-1.161.152 0 .275.03.427.061v-.764c-.122-.03-.213-.03-.305-.03Zm8.861-.031c-1.345 0-2.078.764-2.078 2.017v1.069c0 1.253.702 2.016 2.077 2.016 1.345 0 2.078-.763 2.078-2.016v-1.07c0-1.252-.703-2.016-2.078-2.016Zm1.283 3.055c0 .856-.398 1.284-1.253 1.284-.886 0-1.253-.428-1.253-1.284v-.977c0-.856.397-1.284 1.253-1.284.886 0 1.253.428 1.253 1.284v.977Zm-14.055-2.933-.153.49a1.921 1.921 0 0 0-1.527-.612c-1.192 0-1.895.58-1.895 2.047v1.008c0 1.436.703 2.047 1.895 2.047a1.92 1.92 0 0 0 1.527-.61l.153.488h.58v-4.858h-.58Zm-1.528 4.217c-.825 0-1.222-.398-1.222-1.314v-.917c0-.916.397-1.314 1.222-1.314.764 0 1.222.367 1.284 1.162v1.222c-.062.794-.55 1.16-1.284 1.16Zm-4.827-6.141h-2.658v6.782h.855v-2.475h1.803c1.314 0 2.078-.672 2.078-1.802v-.703c0-1.13-.764-1.803-2.078-1.803Zm1.253 2.535c0 .642-.398.978-1.192.978H75.03v-2.72h1.864c.794 0 1.192.337 1.192.978v.764Z"/>
  <path fill="#009639" d="M4.453 51.38c.275.488.672.855 1.16 1.13L29.14 66.076c.977.58 2.169.58 3.116 0L55.782 52.51c.978-.55 1.558-1.589 1.558-2.72V22.66c0-1.131-.58-2.17-1.558-2.72L32.256 6.374c-.977-.58-2.17-.58-3.116 0L5.614 19.94c-1.009.55-1.59 1.589-1.59 2.72v27.16c0 .55.123 1.07.429 1.558Z"/>
  <path fill="#fff" d="M23.151 46.583a3.012 3.012 0 0 1-3.025 3.024 3.012 3.012 0 0 1-3.024-3.024V25.837c0-1.62 1.436-2.933 3.421-2.933 1.436 0 3.117.58 4.125 1.833l.917 1.1L38.214 40.96V25.898a3.012 3.012 0 0 1 3.025-3.025 3.012 3.012 0 0 1 3.025 3.025v20.746c0 1.619-1.437 2.933-3.422 2.933-1.436 0-3.117-.58-4.125-1.833L23.15 31.55v15.033Z"/>
  <path fill="#999" d="M154.164 45.36h.397v-.855h.306c.153 0 .306 0 .428.061.152.122.244.306.214.489v.305h.366v-.03c0-.03-.03-.061-.03-.122v-.306a.634.634 0 0 0-.123-.336c-.091-.122-.244-.183-.366-.214.122 0 .214-.06.305-.091.153-.092.214-.275.214-.428a.534.534 0 0 0-.336-.55 1.968 1.968 0 0 0-.611-.092h-.764v2.17Zm1.1-1.191c-.122.03-.244.061-.366.061h-.337v-.794h.337c.152 0 .305.03.458.091a.378.378 0 0 1 .153.306c-.031.153-.123.305-.245.336Zm1.1-1.314a2.015 2.015 0 0 0-1.405-.58c-1.1 0-1.986.886-1.986 2.016 0 1.1.886 1.986 1.986 1.986s2.016-.886 2.016-1.986c-.03-.55-.214-1.039-.611-1.436Zm-.183.214c.336.306.519.764.489 1.222 0 .947-.764 1.711-1.711 1.742-.459 0-.917-.184-1.223-.52a1.682 1.682 0 0 1-.488-1.222c0-.947.763-1.71 1.711-1.71.458-.031.886.152 1.222.488Z"/>
</svg>
