<svg xmlns="http://www.w3.org/2000/svg" width="245" height="48" fill="none" viewBox="0 0 245 48">
  <path fill="#2F495E" fill-rule="evenodd" d="M98.858 15.897c.317.33.487.774.471 1.23v23.658c.014.507-.176.998-.526 1.364a1.79 1.79 0 0 1-1.347.554 2.67 2.67 0 0 1-.837-.133 1.436 1.436 0 0 1-.643-.41L80.649 22.205V40.99a1.663 1.663 0 0 1-1.712 1.713 1.59 1.59 0 0 1-1.209-.488 1.695 1.695 0 0 1-.465-1.225V17.283a1.8 1.8 0 0 1 .554-1.341c.341-.35.814-.542 1.303-.527a2.37 2.37 0 0 1 .897.172c.26.1.488.269.66.488l15.26 19.999V17.128a1.663 1.663 0 0 1 1.713-1.713c.453-.017.891.158 1.208.482Zm31.485 0c.331.369.506.852.487 1.347V32.21a11.205 11.205 0 0 1-1.363 5.543 9.913 9.913 0 0 1-3.764 3.842 10.62 10.62 0 0 1-5.399 1.408c-1.91.03-3.794-.446-5.46-1.38a9.877 9.877 0 0 1-3.78-3.842 11.206 11.206 0 0 1-1.364-5.543V17.272a1.79 1.79 0 0 1 .555-1.347 1.945 1.945 0 0 1 1.402-.554c.493 0 .965.2 1.308.554.363.344.565.825.555 1.325v14.966a7.127 7.127 0 0 0 .936 3.647 6.73 6.73 0 0 0 5.848 3.41 6.962 6.962 0 0 0 3.47-.899 6.775 6.775 0 0 0 2.572-2.51 7.031 7.031 0 0 0 .953-3.648V17.25a1.972 1.972 0 0 1 .466-1.347c.327-.367.8-.57 1.292-.555.487-.01.956.19 1.286.55Zm30.004 24.001c.234.322.356.711.349 1.11.021.501-.182.986-.554 1.324a1.847 1.847 0 0 1-1.27.504 1.746 1.746 0 0 1-1.518-.776l-7.578-10.116-7.405 10.1c-.334.513-.907.82-1.519.815a1.614 1.614 0 0 1-1.192-.488 1.515 1.515 0 0 1-.487-1.109 2.09 2.09 0 0 1 .471-1.286l7.993-10.88-8.032-10.799a1.816 1.816 0 0 1-.394-1.108c-.01-.5.191-.981.555-1.325a1.823 1.823 0 0 1 1.308-.554c.29.001.577.07.837.2.275.13.51.33.682.581l7.488 10.06 7.417-9.96a1.883 1.883 0 0 1 1.48-.86c.47.003.917.205 1.23.555.341.305.541.735.555 1.192-.014.4-.149.787-.388 1.109l-8.138 10.83 8.11 10.881Zm28.131-24a1.7 1.7 0 0 1 .554 1.307c.013.49-.189.96-.554 1.286a1.975 1.975 0 0 1-1.347.466h-6.94v21.878c.009.5-.192.981-.554 1.325a2.14 2.14 0 0 1-2.85 0 1.797 1.797 0 0 1-.554-1.325V18.957h-6.923a1.907 1.907 0 0 1-1.342-.482 1.703 1.703 0 0 1-.526-1.308c-.016-.48.176-.942.526-1.27a1.907 1.907 0 0 1 1.342-.482h17.821a1.93 1.93 0 0 1 1.347.482Z" clip-rule="evenodd"/>
  <path fill="#01C58E" fill-rule="evenodd" d="M197.014 42.005A8.2 8.2 0 0 1 193.97 39a1.979 1.979 0 0 1-.354-1.053 1.66 1.66 0 0 1 .587-1.27c.318-.331.75-.53 1.209-.554a2.502 2.502 0 0 1 1.757.976 4.705 4.705 0 0 0 4.091 2.262 4.99 4.99 0 0 0 3.625-1.442 4.76 4.76 0 0 0 1.485-3.547v-17.09a1.751 1.751 0 0 1 .582-1.324 1.931 1.931 0 0 1 1.364-.554 1.853 1.853 0 0 1 1.386.526c.352.356.542.841.526 1.342V34.4a8.445 8.445 0 0 1-1.169 4.367 8.614 8.614 0 0 1-3.215 3.154 9.057 9.057 0 0 1-4.584 1.175 8.45 8.45 0 0 1-4.246-1.091Zm26.806.288a12.85 12.85 0 0 1-4.174-2.589 2.08 2.08 0 0 1-.815-1.602 1.77 1.77 0 0 1 .554-1.263 1.736 1.736 0 0 1 1.286-.555c.411-.005.808.147 1.109.427a10.835 10.835 0 0 0 3.215 2.123 9.73 9.73 0 0 0 3.763.687 7.31 7.31 0 0 0 4.152-1.136 3.325 3.325 0 0 0 1.696-2.844 3.645 3.645 0 0 0-1.696-3.137 15.069 15.069 0 0 0-5.044-1.851c-2.683-.555-4.739-1.447-6.186-2.694-1.447-1.247-2.162-2.977-2.162-5.183a6.895 6.895 0 0 1 1.22-4.063 7.76 7.76 0 0 1 3.325-2.672 11.937 11.937 0 0 1 4.834-.937 13.21 13.21 0 0 1 4.562.782 9.6 9.6 0 0 1 3.47 2.068c.532.392.862 1.002.898 1.663 0 .47-.19.92-.527 1.247-.322.36-.786.563-1.269.554-.327.013-.646-.1-.893-.316a8.033 8.033 0 0 0-2.81-1.713 9.329 9.329 0 0 0-3.403-.676 7.144 7.144 0 0 0-4.152 1.075 3.447 3.447 0 0 0 0 5.748c1.42.828 2.97 1.41 4.584 1.719a24.22 24.22 0 0 1 4.989 1.557 7.029 7.029 0 0 1 2.982 2.495 7.504 7.504 0 0 1 1.048 4.174 6.691 6.691 0 0 1-1.264 4.013 8.358 8.358 0 0 1-3.454 2.733 11.64 11.64 0 0 1-4.794.975 14.45 14.45 0 0 1-5.044-.81Zm-201.006.089a2.772 2.772 0 0 1-.294-1.78H9.943L28.633 7.71l6.137 10.787 1.78-3.148-5.35-9.424c-.15-.271-1.053-1.723-2.61-1.723-.704 0-1.713.304-2.534 1.746L7.121 39.239c-.16.288-.942 1.802-.166 3.143.355.61 1.109 1.336 2.772 1.336h15.858c-1.652 0-2.417-.715-2.771-1.336Z" clip-rule="evenodd"/>
  <path fill="#108775" fill-rule="evenodd" d="m59.276 39.239-15.56-27.41c-.16-.289-1.058-1.746-2.621-1.746-.704 0-1.713.299-2.534 1.74L36.55 15.35l1.79 3.148 2.772-4.905 15.393 27.01h-5.853c.075.447.033.905-.122 1.33a1.691 1.691 0 0 1-.122.273l-.05.1c-.787 1.34-2.489 1.413-2.821 1.413h9.157c.338 0 2.034-.072 2.821-1.414.35-.61.599-1.635-.238-3.065Z" clip-rule="evenodd"/>
  <path fill="#2F495E" fill-rule="evenodd" d="m50.356 42.304.05-.1c.049-.086.09-.177.122-.27.155-.426.197-.885.122-1.331a4.05 4.05 0 0 0-.51-1.364L38.35 18.497l-1.8-3.147-1.79 3.148L22.973 39.24a4.195 4.195 0 0 0-.454 1.364 2.77 2.77 0 0 0 .171 1.563c.03.074.066.146.106.216.354.61 1.108 1.336 2.771 1.336h21.95c.35 0 2.051-.072 2.838-1.414ZM36.55 21.646l10.775 18.957H25.78l10.77-18.957Z" clip-rule="evenodd"/>
</svg>
