<svg width="162" height="72" viewBox="0 0 162 72" fill="none" xmlns="http://www.w3.org/2000/svg"><g id="Sepa"><g id="Group "><path id="S-PA" fill-rule="evenodd" clip-rule="evenodd" d="M95.3652 28.817H101.366C103.268 28.7456 104.425 28.5932 104.842 28.3545C105.411 28.0286 105.792 27.3762 105.982 26.3975C106.104 25.746 106.165 24.7777 106.165 23.491C106.165 21.9151 106.044 20.7469 105.802 19.9838C105.455 18.915 104.626 18.264 103.313 18.0276C103.053 17.9919 102.432 17.9729 101.447 17.9729H95.3652V28.817ZM85.74 47.0826V9.81824H103.672C106.132 9.81824 108.009 10.0276 109.298 10.4457C112.248 11.4087 114.227 13.3802 115.24 16.3599C115.764 17.9237 116.025 20.2781 116.025 23.4219C116.025 27.2018 115.735 29.9183 115.161 31.5721C114.011 34.8424 111.643 36.7263 108.068 37.2145C107.648 37.2878 105.859 37.3533 102.701 37.4058L101.103 37.4614H95.3651V47.0826H85.74ZM37.4091 21.7056H46.3634C46.4211 20.8824 46.4501 20.2666 46.4501 19.8548C46.4501 14.8335 44.502 11.7778 40.6054 10.687C39.0088 10.2408 36.3305 10.0156 32.5723 10.0156C30.1851 10.0156 28.0149 10.1065 26.0586 10.2842C23.7074 10.4813 21.7758 11.1409 20.2664 12.2643C19.2359 12.9962 18.4892 14.0663 18.0259 15.4759C17.5629 16.885 17.3312 18.7585 17.3312 21.0948C17.3312 24.1627 17.7599 26.4561 18.6168 27.9719C19.5917 29.7559 21.5454 30.9308 24.4771 31.5023C25.5904 31.7007 27.5784 31.9055 30.4402 32.1185C34.0041 32.3685 36.0008 32.5656 36.4299 32.7071C37.5774 33.0651 38.1523 34.0633 38.1523 35.7039C38.1523 36.4363 38.0842 37.0349 37.9471 37.4974C37.689 38.2487 37.1488 38.7917 36.3257 39.1289C35.8632 39.3089 34.7911 39.3984 33.1112 39.3984H29.8194C28.943 39.3785 28.1976 39.2108 27.5802 38.8911C26.6894 38.4277 26.243 37.387 26.243 35.769L26.2426 35.5017C26.2424 35.3593 26.2421 35.1901 26.2421 34.9942H17.2878C17.2878 38.0263 17.5009 40.1922 17.9313 41.4929C18.704 43.8292 20.3007 45.3808 22.7225 46.1466C24.6958 46.7719 28.1906 47.0829 33.2053 47.0829C36.2094 47.0829 38.443 46.9396 39.903 46.653C43.3879 45.9753 45.6275 44.3618 46.6246 41.8071C47.1747 40.4147 47.4493 38.2175 47.4493 35.2175C47.4493 33.9159 47.3895 32.7446 47.2689 31.7093C47.0628 29.9787 46.4167 28.5773 45.3333 27.5049C43.9567 26.1306 41.7379 25.2825 38.6773 24.9611C37.7132 24.8539 35.2961 24.6654 31.426 24.3978L29.6202 24.2649C28.8275 24.2115 28.1919 24.0329 27.7108 23.7291C27.0391 23.301 26.7042 22.4077 26.7042 21.051C26.7042 19.5523 27.0825 18.579 27.8383 18.1314C28.5946 17.6852 30.1443 17.4624 32.4821 17.4624C34.8892 17.4624 36.36 17.8498 36.8928 18.6238C37.2364 19.1468 37.4091 20.1744 37.4091 21.7056ZM17.3222 54.4725L18.6646 54.3314C18.7453 54.803 18.9093 55.1488 19.1561 55.3703C19.4034 55.5914 19.7366 55.7017 20.1562 55.7017C20.6005 55.7017 20.935 55.6036 21.1606 55.4074C21.3858 55.2107 21.4982 54.9811 21.4982 54.718C21.4982 54.5493 21.4509 54.406 21.3567 54.2871C21.2621 54.1687 21.0973 54.0661 20.8617 53.9779C20.7003 53.9205 20.3332 53.8174 19.7601 53.6691C19.0221 53.4793 18.5049 53.2451 18.2073 52.967C17.789 52.5764 17.5799 52.0999 17.5799 51.5376C17.5799 51.1763 17.6784 50.8377 17.8758 50.5231C18.0727 50.208 18.3574 49.9679 18.7283 49.8034C19.0997 49.6388 19.5479 49.5561 20.0729 49.5561C20.9302 49.5561 21.5754 49.7527 22.0088 50.1451C22.4423 50.538 22.6696 51.062 22.6913 51.7175L21.3086 51.774C21.2496 51.4078 21.1229 51.1447 20.9285 50.9838C20.7346 50.8233 20.4434 50.7428 20.0551 50.7428C19.6542 50.7428 19.341 50.8287 19.114 51.0005C18.9678 51.1103 18.8949 51.2577 18.8949 51.4422C18.8949 51.6108 18.9635 51.7546 19.1002 51.8748C19.2737 52.0267 19.6959 52.1854 20.3666 52.3495C21.037 52.5141 21.5329 52.6845 21.8544 52.8617C22.1754 53.0385 22.4271 53.2803 22.6089 53.5869C22.7902 53.8943 22.8814 54.2731 22.8814 54.7243C22.8814 55.1339 22.7725 55.5168 22.5546 55.8739C22.3368 56.2311 22.0292 56.4965 21.6314 56.6701C21.2335 56.8437 20.7376 56.9309 20.1436 56.9309C19.2793 56.9309 18.6155 56.7216 18.1521 56.303C17.6892 55.8843 17.4124 55.2745 17.3222 54.4725ZM24.3144 51.647H25.6294V56.8035H24.3144V51.647ZM24.3145 49.6838H25.6314V50.9433H24.3145V49.6838ZM30.4526 56.8042H31.7677V53.5931C31.7677 53.1944 31.7434 52.8878 31.6953 52.674C31.6471 52.4597 31.5616 52.2685 31.4388 52.0999C31.3161 51.9312 31.1351 51.7924 30.8961 51.6839C30.657 51.5754 30.3928 51.5207 30.1038 51.5207C29.4487 51.5207 28.9046 51.8155 28.4729 52.4055V51.6478H27.2528V56.8042H28.5679V54.4638C28.5679 53.886 28.6009 53.4905 28.6677 53.2766C28.7341 53.0623 28.8569 52.8906 29.0365 52.7608C29.2161 52.6311 29.4187 52.566 29.6448 52.566C29.8209 52.566 29.9719 52.6116 30.0973 52.702C30.2227 52.7929 30.3129 52.9208 30.3689 53.0845C30.4244 53.2482 30.4526 53.6089 30.4526 54.1668V56.8042ZM34.4275 54.1147C34.4275 54.6635 34.5282 55.0654 34.7304 55.3199C34.9321 55.5754 35.1812 55.7024 35.4775 55.7024C35.7947 55.7024 36.0628 55.5717 36.2819 55.3104C36.5006 55.0491 36.6103 54.6617 36.6103 54.1486C36.6103 53.6133 36.5054 53.2155 36.2958 52.9555C36.0858 52.696 35.8211 52.5658 35.5005 52.5658C35.189 52.5658 34.9321 52.6938 34.7304 52.9483C34.5282 53.2037 34.4275 53.5921 34.4275 54.1147ZM33.2478 57.1433L34.7391 57.3128C34.7642 57.505 34.8219 57.637 34.9122 57.7093C35.0371 57.8124 35.2337 57.8639 35.5018 57.8639C35.845 57.8639 36.1023 57.8106 36.2741 57.7039C36.3891 57.6325 36.4767 57.5176 36.5362 57.359C36.5765 57.245 36.5969 57.0366 36.5969 56.7319L36.6008 55.9792C36.2129 56.5294 35.7209 56.8042 35.1239 56.8042C34.4579 56.8042 33.9312 56.5113 33.5424 55.924C33.2374 55.4602 33.0851 54.8824 33.0851 54.1917C33.0851 53.3255 33.2847 52.6641 33.6843 52.2066C34.0839 51.7495 34.5811 51.5207 35.1751 51.5207C35.7877 51.5207 36.2932 51.8015 36.6915 52.3621V51.6478H37.912V56.283C37.912 56.8929 37.8638 57.3486 37.7671 57.6496C37.6707 57.9516 37.5354 58.1881 37.3609 58.3599C37.1865 58.5317 36.954 58.6664 36.6628 58.7636C36.3717 58.8608 36.0038 58.9096 35.5591 58.9096C34.7187 58.9096 34.1225 58.7586 33.7707 58.4571C33.4188 58.1555 33.2431 57.7731 33.2431 57.3097C33.2431 57.264 33.2448 57.2089 33.2478 57.1433ZM40.8014 49.6838H39.4864V56.8041H40.8014V49.6838ZM45.383 53.7968C45.3739 53.3948 45.2753 53.0896 45.0871 52.88C44.8994 52.6709 44.6709 52.5658 44.4015 52.5658C44.1135 52.5658 43.8754 52.6768 43.6877 52.8972C43.4995 53.1177 43.4074 53.4179 43.4105 53.7968H45.383ZM45.3126 55.1799L46.6142 55.4059C46.4459 55.9028 46.1799 56.2816 45.8168 56.5416C45.4536 56.802 44.9989 56.9317 44.4536 56.9317C43.5897 56.9317 42.9506 56.6374 42.5363 56.0493C42.2087 55.5782 42.0451 54.9837 42.0451 54.2649C42.0451 53.4077 42.2599 52.7355 42.6903 52.2495C43.1203 51.7635 43.6639 51.5207 44.3212 51.5207C45.0601 51.5207 45.6428 51.7757 46.0697 52.2852C46.4967 52.7956 46.7006 53.5764 46.6819 54.6288H43.3875C43.3966 55.0348 43.5034 55.3503 43.7073 55.5764C43.9112 55.8015 44.1655 55.9145 44.47 55.9145C44.677 55.9145 44.8514 55.8567 44.9924 55.7405C45.1334 55.6247 45.2406 55.4376 45.3126 55.1799ZM50.9846 49.6838V56.8041H56.1776V55.6034H52.3677V53.668H55.7845V52.4673H52.3677V50.885H56.0422V49.6838H50.9846ZM60.8787 56.8035V56.0313C60.6978 56.3066 60.4604 56.5254 60.1658 56.6877C59.8712 56.8496 59.5606 56.9309 59.2334 56.9309C58.8998 56.9309 58.6013 56.8545 58.3362 56.7022C58.0715 56.5498 57.8798 56.3356 57.7613 56.0602C57.6429 55.7845 57.5839 55.4034 57.5839 54.9169V51.647H58.8989V54.0186C58.8989 54.7447 58.9228 55.1895 58.9714 55.3527C59.0195 55.5173 59.1072 55.6466 59.2347 55.7424C59.3623 55.8378 59.5237 55.8853 59.7198 55.8853C59.9437 55.8853 60.1446 55.822 60.3216 55.6936C60.499 55.5657 60.6201 55.407 60.6856 55.2171C60.7507 55.0277 60.7837 54.5634 60.7837 53.8247V51.647H62.0987V56.8035H60.8787ZM63.6736 56.8042H64.9886V55.2097C64.9886 54.3318 65.0255 53.7545 65.0988 53.4792C65.1721 53.2038 65.2728 53.0135 65.4008 52.9077C65.5288 52.8029 65.6846 52.75 65.8689 52.75C66.059 52.75 66.2655 52.8246 66.4868 52.9733L66.8868 51.7793C66.61 51.6071 66.3219 51.5207 66.0234 51.5207C65.8117 51.5207 65.6229 51.5777 65.4563 51.6912C65.2897 51.8051 65.1023 52.0348 64.8936 52.3811V51.6478H63.6736V56.8042ZM68.7596 54.226C68.7596 54.74 68.8763 55.1329 69.1101 55.406C69.344 55.679 69.6321 55.8156 69.9753 55.8156C70.318 55.8156 70.6057 55.679 70.8378 55.406C71.0699 55.1329 71.1862 54.7364 71.1862 54.2165C71.1862 53.7097 71.0699 53.3191 70.8378 53.0465C70.6057 52.7735 70.318 52.637 69.9753 52.637C69.6321 52.637 69.344 52.7735 69.1101 53.0465C68.8763 53.3191 68.7596 53.7129 68.7596 54.226ZM67.4172 54.1528C67.4172 53.698 67.5244 53.2576 67.7391 52.8318C67.9535 52.4064 68.2572 52.0813 68.6507 51.8571C69.0438 51.6329 69.4833 51.5207 69.9684 51.5207C70.7177 51.5207 71.3316 51.7748 71.8106 52.2834C72.2891 52.792 72.5286 53.4349 72.5286 54.2115C72.5286 54.9945 72.2865 55.6442 71.8032 56.1591C71.3199 56.674 70.7111 56.9317 69.9775 56.9317C69.5236 56.9317 69.0906 56.8241 68.6789 56.6103C68.2667 56.3955 67.9535 56.0814 67.7391 55.6668C67.5244 55.2522 67.4172 54.7482 67.4172 54.1528ZM78.1934 52.9199V50.8855H78.8581C79.3544 50.8855 79.6842 50.9018 79.8486 50.9344C80.0716 50.9769 80.256 51.0826 80.4018 51.2522C80.5476 51.4217 80.6205 51.6369 80.6205 51.8977C80.6205 52.1098 80.5684 52.2956 80.4647 52.4552C80.361 52.6152 80.2174 52.7327 80.0347 52.8078C79.8516 52.8828 79.4889 52.9199 78.9466 52.9199H78.1934ZM76.8109 49.6838V56.8041H78.1936V54.1201H79.0926C79.7161 54.1201 80.1925 54.0862 80.5218 54.018C80.7639 53.9628 81.0021 53.8507 81.2364 53.6802C81.4707 53.5103 81.6642 53.2761 81.816 52.9786C81.9683 52.6798 82.0443 52.3127 82.0443 51.8755C82.0443 51.3086 81.9124 50.8461 81.6481 50.4885C81.3839 50.1305 81.0563 49.8977 80.665 49.791C80.4103 49.72 79.8632 49.6838 79.0245 49.6838H76.8109ZM86.1784 54.3324C86.0102 54.3913 85.7448 54.461 85.3815 54.5425C85.0183 54.6235 84.7807 54.7037 84.6694 54.7815C84.4982 54.9088 84.4135 55.0699 84.4135 55.265C84.4135 55.4574 84.4813 55.6231 84.6177 55.7635C84.7546 55.9034 84.9284 55.9735 85.14 55.9735C85.3759 55.9735 85.6005 55.8921 85.8152 55.7295C85.9733 55.6055 86.0776 55.4543 86.1271 55.275C86.161 55.1577 86.1784 54.9346 86.1784 54.6054V54.3324ZM84.4138 53.2161L83.2341 52.99C83.3677 52.4905 83.5976 52.1211 83.9239 51.8811C84.2506 51.641 84.7357 51.5207 85.3791 51.5207C85.9636 51.5207 86.3992 51.5931 86.6851 51.7368C86.971 51.882 87.1728 52.0651 87.289 52.287C87.4057 52.509 87.4643 52.9172 87.4643 53.5108L87.4509 55.1067C87.4509 55.5606 87.4717 55.896 87.5133 56.1112C87.5554 56.3268 87.634 56.5578 87.7489 56.8042H86.4473C86.4126 56.7152 86.371 56.5827 86.3211 56.4073C86.2994 56.3273 86.2838 56.2748 86.2751 56.2491C86.0512 56.4765 85.8121 56.6474 85.5574 56.7613C85.3028 56.8748 85.0316 56.9317 84.7426 56.9317C84.2333 56.9317 83.8315 56.7871 83.5382 56.4986C83.2449 56.2097 83.0983 55.8445 83.0983 55.4032C83.0983 55.1116 83.1651 54.8512 83.2983 54.6225C83.4323 54.3937 83.6198 54.2183 83.8606 54.0967C84.1018 53.9756 84.4493 53.8684 84.9032 53.7775C85.5154 53.6577 85.9397 53.5461 86.1761 53.4421V53.3042C86.1761 53.0384 86.1137 52.849 85.9887 52.7355C85.8633 52.6225 85.6277 52.566 85.2806 52.566C85.0463 52.566 84.8637 52.6143 84.7322 52.7102C84.6008 52.8065 84.4945 52.9751 84.4138 53.2161ZM89.8045 51.647H88.4083L90.2952 56.8179C90.2171 57.1091 90.1047 57.3491 89.9577 57.5381C89.8106 57.7262 89.5845 57.8206 89.2778 57.8206C89.1125 57.8206 88.9259 57.7998 88.7198 57.7569L88.8422 58.8261C89.0847 58.8812 89.3329 58.9088 89.585 58.9088C89.834 58.9088 90.0574 58.8812 90.2553 58.8256C90.4531 58.7709 90.6189 58.6932 90.7547 58.5942C90.8901 58.4956 91.0102 58.3663 91.1144 58.2076C91.2185 58.0485 91.3283 57.8184 91.4437 57.5164L93.5063 51.647H92.1505L90.9911 55.308L89.8045 51.647ZM94.5316 51.6478H95.7382V52.3521C96.1716 51.7979 96.6875 51.5207 97.2863 51.5207C97.6039 51.5207 97.8798 51.5886 98.1136 51.7246C98.3475 51.8612 98.5393 52.0673 98.6885 52.3426C98.9063 52.0673 99.1419 51.8612 99.3936 51.7246C99.6461 51.5886 99.9146 51.5207 100.201 51.5207C100.565 51.5207 100.874 51.5976 101.126 51.7522C101.378 51.9055 101.566 52.132 101.691 52.4308C101.781 52.651 101.826 53.0076 101.826 53.5009V56.8042H100.511V53.8508C100.511 53.3381 100.466 53.0076 100.376 52.8585C100.254 52.6632 100.068 52.566 99.817 52.566C99.6335 52.566 99.4608 52.6243 99.2994 52.7414C99.138 52.8585 99.0217 53.0293 98.9506 53.2549C98.879 53.4801 98.843 53.8363 98.843 54.3228V56.8042H97.5279V53.9728C97.5279 53.4692 97.5049 53.1455 97.4581 52.9991C97.4116 52.853 97.3396 52.7445 97.2416 52.6731C97.1435 52.6021 97.0112 52.566 96.8433 52.566C96.6415 52.566 96.4597 52.6229 96.2983 52.7364C96.1369 52.8499 96.0215 53.014 95.9512 53.2278C95.8814 53.4421 95.8467 53.797 95.8467 54.2934V56.8042H94.5316V51.6478ZM106.063 52.88C106.251 53.0896 106.349 53.3948 106.359 53.7968H104.386C104.383 53.4179 104.475 53.1177 104.664 52.8972C104.851 52.6768 105.089 52.5658 105.377 52.5658C105.646 52.5658 105.875 52.6709 106.063 52.88ZM107.59 55.4059L106.289 55.1799C106.217 55.4376 106.11 55.6247 105.968 55.7405C105.827 55.8567 105.653 55.9145 105.446 55.9145C105.141 55.9145 104.887 55.8015 104.683 55.5764C104.479 55.3503 104.373 55.0348 104.363 54.6288H107.658C107.677 53.5764 107.472 52.7956 107.045 52.2852C106.618 51.7757 106.036 51.5207 105.297 51.5207C104.639 51.5207 104.096 51.7635 103.666 52.2495C103.236 52.7355 103.021 53.4077 103.021 54.2649C103.021 54.9837 103.184 55.5782 103.512 56.0493C103.927 56.6374 104.566 56.9317 105.429 56.9317C105.975 56.9317 106.429 56.802 106.793 56.5416C107.156 56.2816 107.421 55.9028 107.59 55.4059ZM113.51 56.8042H112.195V54.1668C112.195 53.6089 112.167 53.2482 112.112 53.0845C112.056 52.9208 111.965 52.7929 111.84 52.702C111.714 52.6116 111.563 52.566 111.387 52.566C111.162 52.566 110.959 52.6311 110.779 52.7608C110.6 52.8906 110.477 53.0623 110.41 53.2766C110.344 53.4905 110.31 53.886 110.31 54.4638V56.8042H108.995V51.6478H110.215V52.4055C110.648 51.8155 111.191 51.5207 111.846 51.5207C112.135 51.5207 112.4 51.5754 112.639 51.6839C112.878 51.7924 113.059 51.9312 113.182 52.0999C113.305 52.2685 113.39 52.4597 113.438 52.674C113.486 52.8878 113.51 53.1944 113.51 53.5931V56.8042ZM117.39 52.735V51.6472H116.495V49.8109L115.18 50.616V51.6472H114.584V52.735H115.18V54.989C115.18 55.4723 115.194 55.7938 115.222 55.9529C115.256 56.1767 115.317 56.3543 115.405 56.4854C115.493 56.617 115.632 56.7246 115.82 56.8069C116.009 56.8896 116.22 56.9312 116.455 56.9312C116.839 56.9312 117.182 56.8629 117.485 56.7269L117.37 55.6699C117.144 55.7571 116.972 55.801 116.852 55.801C116.767 55.801 116.695 55.7779 116.635 55.7327C116.575 55.6871 116.537 55.6296 116.521 55.5596C116.504 55.49 116.495 55.2436 116.495 54.8213V52.735H117.39ZM118.131 55.3494L119.446 55.1374C119.502 55.401 119.615 55.6008 119.785 55.7378C119.956 55.8748 120.195 55.9426 120.502 55.9426C120.841 55.9426 121.096 55.8775 121.266 55.7473C121.381 55.6555 121.439 55.5339 121.439 55.3802C121.439 55.2762 121.407 55.1894 121.345 55.1216C121.279 55.056 121.132 54.9959 120.904 54.9403C119.841 54.6957 119.167 54.4728 118.884 54.2717C118.49 53.9927 118.293 53.6044 118.293 53.1085C118.293 52.66 118.463 52.2834 118.803 51.9787C119.144 51.6735 119.672 51.5207 120.388 51.5207C121.069 51.5207 121.575 51.6351 121.906 51.8634C122.238 52.0922 122.466 52.4299 122.591 52.877L121.357 53.117C121.304 52.9168 121.202 52.7626 121.053 52.6559C120.903 52.5488 120.69 52.4954 120.414 52.4954C120.065 52.4954 119.815 52.5456 119.664 52.6473C119.563 52.7188 119.513 52.8114 119.513 52.9254C119.513 53.0235 119.557 53.1067 119.644 53.1754C119.763 53.2662 120.173 53.3951 120.873 53.5614C121.574 53.7278 122.064 53.9312 122.342 54.1722C122.616 54.4163 122.754 54.7568 122.754 55.193C122.754 55.6682 122.564 56.0768 122.185 56.4186C121.805 56.7608 121.245 56.9317 120.502 56.9317C119.828 56.9317 119.295 56.7893 118.901 56.5059C118.508 56.2215 118.252 55.8368 118.131 55.3494ZM129.802 51.3513L130.758 53.9933H128.879L129.802 51.3513ZM131.804 56.8041H133.293L130.534 49.6838H129.08L126.433 56.8041H127.896L128.459 55.1938H131.213L131.804 56.8041ZM135.55 56.8042H134.235V51.6478H135.455V52.3811C135.664 52.0348 135.851 51.8051 136.018 51.6912C136.184 51.5777 136.373 51.5207 136.585 51.5207C136.884 51.5207 137.171 51.6071 137.449 51.7793L137.049 52.9733C136.827 52.8246 136.621 52.75 136.431 52.75C136.246 52.75 136.09 52.8029 135.962 52.9077C135.834 53.0135 135.734 53.2038 135.661 53.4792C135.587 53.7545 135.55 54.3318 135.55 55.2097V56.8042ZM140.954 52.88C141.142 53.0896 141.24 53.3948 141.25 53.7968H139.277C139.274 53.4179 139.366 53.1177 139.554 52.8972C139.742 52.6768 139.98 52.5658 140.268 52.5658C140.537 52.5658 140.766 52.6709 140.954 52.88ZM142.481 55.4059L141.179 55.1799C141.106 55.4376 141 55.6247 140.859 55.7405C140.717 55.8567 140.543 55.9145 140.336 55.9145C140.032 55.9145 139.778 55.8015 139.573 55.5764C139.37 55.3503 139.263 55.0348 139.253 54.6288H142.548C142.567 53.5764 142.363 52.7956 141.936 52.2852C141.509 51.7757 140.926 51.5207 140.188 51.5207C139.53 51.5207 138.986 51.7635 138.557 52.2495C138.126 52.7355 137.911 53.4077 137.911 54.2649C137.911 54.9837 138.075 55.5782 138.402 56.0493C138.817 56.6374 139.456 56.9317 140.32 56.9317C140.865 56.9317 141.32 56.802 141.683 56.5416C142.046 56.2816 142.312 55.9028 142.481 55.4059ZM146.628 54.3324C146.46 54.3913 146.194 54.461 145.831 54.5425C145.467 54.6235 145.23 54.7037 145.119 54.7815C144.947 54.9088 144.863 55.0699 144.863 55.265C144.863 55.4574 144.93 55.6231 145.067 55.7635C145.204 55.9034 145.378 55.9735 145.589 55.9735C145.825 55.9735 146.05 55.8921 146.264 55.7295C146.422 55.6055 146.527 55.4543 146.576 55.275C146.61 55.1577 146.628 54.9346 146.628 54.6054V54.3324ZM144.862 53.2161L143.683 52.99C143.816 52.4905 144.046 52.1211 144.372 51.8811C144.699 51.641 145.184 51.5207 145.828 51.5207C146.412 51.5207 146.848 51.5931 147.134 51.7368C147.419 51.882 147.621 52.0651 147.738 52.287C147.854 52.509 147.913 52.9172 147.913 53.5108L147.899 55.1067C147.899 55.5606 147.92 55.896 147.962 56.1112C148.004 56.3268 148.082 56.5578 148.197 56.8042H146.896C146.861 56.7152 146.82 56.5827 146.77 56.4073C146.761 56.3754 146.753 56.3479 146.747 56.3247C146.737 56.2897 146.729 56.2646 146.724 56.2491C146.5 56.4765 146.261 56.6474 146.006 56.7613C145.752 56.8748 145.48 56.9317 145.191 56.9317C144.682 56.9317 144.28 56.7871 143.987 56.4986C143.694 56.2097 143.547 55.8445 143.547 55.4032C143.547 55.1116 143.614 54.8512 143.747 54.6225C143.881 54.3937 144.068 54.2183 144.309 54.0967C144.55 53.9756 144.898 53.8684 145.352 53.7775C145.964 53.6577 146.388 53.5461 146.625 53.4421V53.3042C146.625 53.0384 146.562 52.849 146.437 52.7355C146.312 52.6225 146.076 52.566 145.729 52.566C145.495 52.566 145.312 52.6143 145.181 52.7102C145.05 52.8065 144.943 52.9751 144.862 53.2161ZM130.149 17.229L134.658 33.3824H125.772L130.149 17.229ZM123.702 40.6422H136.571L138.407 47.0826H148.156L137.279 9.81824H122.76L112.014 47.0826H121.973L123.702 40.6422Z" fill="#10298E"/><path id="Fill 26" fill-rule="evenodd" clip-rule="evenodd" d="M72.455 15.0608C76.425 15.0608 79.968 16.9663 82.297 19.951L84.3718 15.3157C81.1268 12.12 76.7105 10.1498 71.8394 10.1498C64.2553 10.1498 57.7676 14.9224 55.1049 21.6784H51.0591L48.6702 27.0148H53.8749C53.8358 27.5098 53.8107 28.0053 53.8107 28.5107C53.8107 29.1224 53.8411 29.7268 53.8992 30.324H51.2834L48.8949 35.6622H55.229C57.9676 42.2473 64.3742 46.8703 71.8394 46.8703C75.6015 46.8703 79.0924 45.6958 81.9829 43.6894V37.1473C79.6551 39.9087 76.2506 41.6537 72.455 41.6537C68.0183 41.6537 64.1156 39.2699 61.843 35.6622H75.1069L77.4953 30.324H59.8914C59.8007 29.6816 59.7521 29.0252 59.7521 28.3566C59.7521 27.9045 59.7747 27.4569 59.8163 27.0148H78.9757L81.3642 21.6784H61.4733C63.673 17.7226 67.7666 15.0608 72.455 15.0608" fill="#FFBE00"/></g></g></svg>