<svg xmlns="http://www.w3.org/2000/svg" width="219" height="54" fill="none" viewBox="0 0 219 54">
  <path fill="#7099A6" d="M27.854 6.875v2.033h-3.636v1.322h3.636v4.05h1.422v-4.05h3.727V8.908h-3.727V4.85h-1.422v2.025Z"/>
  <path fill="#EB912C" d="M15.97 12.032v2.95h-5.503v1.852h5.503v5.991h2.042v-5.991h5.586v-1.852h-5.586v-5.9H15.97v2.95Z"/>
  <path fill="#59879B" d="M39.036 12.032v2.95h-5.504v1.942h5.504v5.901h2.124v-5.9h5.504v-1.943H41.16v-5.9h-2.124v2.95Z"/>
  <path fill="#E8762C" d="M27.325 22.081v3.306h-6.123v2.462h6.123v6.612h2.48v-6.612h6.123v-2.462h-6.123v-6.612h-2.48v3.306Z"/>
  <path fill="#5B6591" d="M45.333 23.75v2.074h-3.727v1.678h3.727v4.14h1.86v-4.14h3.726v-1.678h-3.727v-4.14h-1.86v2.066Z"/>
  <path fill="#7099A6" d="M9.847 23.933v1.983H6.21v1.405h3.637v3.967h1.421V27.32l3.727-.132v-1.273h-3.727v-3.967H9.847v1.983Z"/>
  <path fill="#C72035" d="M15.97 33.271v2.95h-5.503v1.943h5.503v5.9h2.124v-5.9h5.504V36.22h-5.504v-5.9H15.97v2.95Z"/>
  <path fill="#1F447E" d="M39.036 33.271v2.95h-5.504v1.852h5.504v5.991h2.124v-5.991h5.504V36.22H41.16v-5.9h-2.124v2.95Z"/>
  <path fill="#5B6591" d="M27.68 40.767v2.066h-3.726v1.678h3.727v4.14h1.86v-4.14h3.726v-1.678H29.54v-4.14h-1.86v2.074Z"/>
  <path fill="#1F447E" d="M142.288 13.66v25.124h-2.835V13.66h2.835Zm-70.436 3.53v8.016h7.628v2.644h-7.627v8.636h-2.835V27.85H61.39v-2.644h7.628V17.19h2.835Zm88.716 5.503c.513.025 1.165.108 1.463.182.289.075.769.248 1.058.389.297.132.777.421 1.066.644a5.7 5.7 0 0 1 .925.918c.215.28.521.793.686 1.132.166.339.381.934.48 1.322.099.389.215 1.174.305 2.777h-9.801l.058.33c.025.182.132.57.215.86.091.29.322.744.504 1s.455.562.595.67c.149.107.446.288.669.404.215.108.595.248.843.314s.909.124 1.504.124c.587 0 1.43-.058 1.868-.132a12.597 12.597 0 0 0 1.372-.322c.314-.1.727-.257.909-.347.182-.091.372-.174.422-.174.055 0 .088.462.09 2.38v.264l-.487.224a11.42 11.42 0 0 1-1.265.446 13.79 13.79 0 0 1-1.752.322 8.987 8.987 0 0 1-2 0 13.067 13.067 0 0 1-1.818-.33c-.438-.124-1.074-.372-1.405-.554-.338-.182-.909-.603-1.272-.942a7.317 7.317 0 0 1-1.05-1.232 7.209 7.209 0 0 1-.603-1.28c-.124-.364-.273-1-.331-1.405a8.398 8.398 0 0 1-.049-1.587 9.676 9.676 0 0 1 .231-1.546 8.918 8.918 0 0 1 .529-1.413 8.08 8.08 0 0 1 .777-1.231 7.62 7.62 0 0 1 1.049-.992 7.03 7.03 0 0 1 1.265-.727c.347-.149.95-.322 1.33-.397a7.51 7.51 0 0 1 1.62-.09Zm29.445-.132v4.43c0 2.438-.024 5.355-.132 8.537l-.711.215c-.388.115-1.173.297-1.752.388-.735.132-1.438.182-2.388.182-.752 0-1.62-.041-1.934-.091a13.608 13.608 0 0 1-1.372-.355 6.789 6.789 0 0 1-1.462-.686 6.934 6.934 0 0 1-1.149-.95 7.016 7.016 0 0 1-.793-1.092 7.945 7.945 0 0 1-.529-1.272c-.174-.554-.223-.984-.265-1.984-.025-.801 0-1.512.066-1.9.058-.34.207-.91.331-1.273.116-.364.388-.942.603-1.281a6.83 6.83 0 0 1 .992-1.19c.38-.347.876-.703 1.281-.9a8.995 8.995 0 0 1 1.19-.472c.289-.074 1.008-.165 1.595-.19.785-.033 1.239 0 1.727.1.372.082.926.264 1.248.412.314.14.587.265.595.256.015 0 .023-.166.025-.378v-.506h2.834Zm-87.732 0v5.51l-.001.576c-.006 2.587-.042 5.125-.131 6.88l-.711.216a20.22 20.22 0 0 1-1.818.404c-.934.157-1.355.174-2.702.141-1.248-.033-1.752-.083-2.306-.223a10.218 10.218 0 0 1-1.512-.579 7.263 7.263 0 0 1-1.33-.867 6.614 6.614 0 0 1-.902-1.042 7.645 7.645 0 0 1-.595-1.099 9.106 9.106 0 0 1-.371-1.272c-.116-.596-.141-1.034-.108-2.075.041-1 .1-1.487.24-1.983a8.85 8.85 0 0 1 .545-1.322c.19-.364.57-.918.851-1.224.29-.314.76-.727 1.05-.925.29-.19.768-.446 1.066-.562.29-.116.818-.273 1.173-.339a9.762 9.762 0 0 1 1.463-.124c.455 0 1.1.066 1.446.132.34.075.876.257 1.199.405.314.14.587.265.595.256.008 0 .025-.198.025-.438v-.446h2.834Zm16.586-6.256.001 4.2c.003 2.59.027 2.756.156 2.717.091-.033.521-.148.959-.272a9.379 9.379 0 0 1 1.818-.273c.76-.033 1.207-.008 1.769.1a6.44 6.44 0 0 1 1.553.536c.438.215 1.017.579 1.289.818.265.232.686.72.926 1.083.248.364.554.942.686 1.298.14.347.314 1 .397 1.454.099.595.124 1.107.091 1.917-.025.604-.116 1.356-.199 1.67a7.568 7.568 0 0 1-.43 1.19 7.3 7.3 0 0 1-.694 1.148c-.215.29-.653.72-.967.96-.305.239-.867.57-1.231.735a9.633 9.633 0 0 1-1.33.487c-.571.157-.934.182-2.571.19-1.545.009-2.049-.025-2.661-.157a33.69 33.69 0 0 1-1.512-.38c-.413-.116-.777-.248-.81-.28-.033-.034-.074-4.348-.091-9.596l-.033-9.545h2.884Zm85.08 6.612-.009 4.43.001.348v.791c.002 2.75.02 3.279.128 3.702l.012.045c.01.038.021.075.033.113.107.33.306.719.471.917.157.182.488.43.736.546.239.116.702.248 1.016.289.339.05.818.05 1.157 0a4.071 4.071 0 0 0 1.017-.29c.247-.115.578-.363.735-.545.165-.198.372-.586.471-.917.013-.043.026-.084.037-.128l.008-.034c.103-.436.124-1.223.128-6.12v-.599l.001-1.088v-1.461h2.9l-.016 4.786c-.007 3.992-.015 4.677-.13 5.128l-.01.04-.017.059-.012.039-.013.04a5.21 5.21 0 0 1-.463.966 4.792 4.792 0 0 1-.62.769c-.181.181-.578.47-.867.644-.29.174-.851.413-1.24.537a7.504 7.504 0 0 1-1.595.29 18.21 18.21 0 0 1-1.777-.009 6.965 6.965 0 0 1-1.595-.28 7.304 7.304 0 0 1-1.248-.538 5.916 5.916 0 0 1-.867-.644 5.339 5.339 0 0 1-.62-.769 5.827 5.827 0 0 1-.455-.967l-.006-.02-.013-.038a2.033 2.033 0 0 1-.036-.117l-.01-.041c-.111-.456-.12-1.237-.141-5.09l-.033-4.784h2.942Zm-19.611 2.388c-.314 0-.793.066-1.058.132-.273.075-.686.24-.925.372-.24.132-.587.405-.777.612-.19.206-.438.57-.562.818a5.41 5.41 0 0 0-.356.991c-.074.298-.132.885-.132 1.298 0 .413.058 1 .132 1.297.075.306.215.72.323.926.107.207.38.57.603.802.223.24.587.52.802.628a5.4 5.4 0 0 0 .892.347c.306.09.81.14 1.397.14.496 0 1.198-.041 1.545-.09.356-.05.694-.125.744-.158.074-.041.116-1.107.14-3.66l.025-3.612c-.892-.455-1.388-.645-1.686-.72a4.832 4.832 0 0 0-1.107-.123Zm-88.798.132c-.265.075-.678.24-.918.372s-.587.405-.776.612a3.89 3.89 0 0 0-.563.818c-.124.24-.28.686-.355.991a6.065 6.065 0 0 0-.132 1.207c0 .364.041.9.09 1.19a5.3 5.3 0 0 0 .348 1.058c.165.347.43.702.769 1.016.33.306.718.562 1.057.695.413.165.744.214 1.595.256a11.53 11.53 0 0 0 1.769-.066c.388-.058.752-.133.81-.166.066-.041.115-1.19.157-3.652l.058-3.587c-.728-.397-1.133-.579-1.38-.661-.24-.091-.802-.174-1.24-.19-.546-.025-.95.008-1.29.107Zm26.04-.132c-.339.008-.785.05-.975.09-.199.042-.653.183-1.025.315l-.661.231v7.33c1.388.364 1.686.389 2.611.364.909-.025 1.207-.066 1.645-.231.289-.116.694-.33.884-.488.199-.148.48-.43.628-.62a3.93 3.93 0 0 0 .471-.876c.116-.289.248-.843.298-1.23a4.554 4.554 0 0 0-.008-1.455 4.53 4.53 0 0 0-.414-1.389c-.165-.355-.454-.793-.636-.975a4.038 4.038 0 0 0-.735-.562 4.014 4.014 0 0 0-.934-.372 4.66 4.66 0 0 0-1.149-.132Zm38.007.124a4.849 4.849 0 0 0-.959.421 4.506 4.506 0 0 0-.835.678 5.02 5.02 0 0 0-.562.818c-.115.232-.214.455-.214.504 0 .055 1.012.088 2.886.091h3.46c-.09-.653-.173-.975-.239-1.148a3.29 3.29 0 0 0-.479-.686 2.142 2.142 0 0 0-.835-.562 5.49 5.49 0 0 0-1.108-.215 3.952 3.952 0 0 0-1.115.099Z"/>
</svg>
