<svg xmlns="http://www.w3.org/2000/svg" width="274" height="43" fill="none" viewBox="0 0 274 43">
  <path fill="#E7E7E7" d="M59.975 8.657H48.212v-4.19h28.36v4.19H64.81V38.95h-4.835V8.657Z"/>
  <path fill="#E7E7E7" d="M81.73 13.007c6.928 0 10.634 5.157 10.634 11.602 0 .645-.16 2.095-.16 2.095H74.316c.322 5.479 4.028 8.218 8.54 8.218 4.19 0 7.251-2.9 7.251-2.9l1.934 3.545s-3.706 3.545-9.507 3.545c-7.735 0-13.052-5.64-13.052-12.891 0-8.218 5.317-13.214 12.246-13.214Zm5.961 9.99c-.16-4.189-2.739-6.284-5.962-6.284-3.545 0-6.606 2.256-7.251 6.285h13.213Zm19.982-10.151c6.284 0 9.346 3.545 9.346 3.545l-2.256 3.384s-2.579-2.9-6.768-2.9c-4.995 0-8.54 3.706-8.54 8.862 0 4.996 3.545 8.863 8.701 8.863 4.673 0 7.573-3.384 7.573-3.384l1.934 3.545s-3.384 4.028-9.829 4.028c-7.735 0-13.214-5.478-13.214-12.89-.16-7.413 5.318-13.053 13.053-13.053Zm12.246-8.54h4.673v12.569c0 1.128-.161 2.094-.161 2.094h.161c1.128-2.417 4.19-5.478 9.185-5.478 5.801 0 8.54 3.223 8.54 9.507v15.791h-4.673V23.965c0-3.545-.805-6.285-4.673-6.285-3.706 0-6.768 2.579-7.896 6.124-.322.966-.322 2.094-.322 3.222v11.602h-4.673V4.306h-.161Zm27.877 26.749s3.545 3.706 8.701 3.706c3.223 0 5.801-1.773 5.801-4.995 0-7.413-16.436-5.801-16.436-16.275 0-5.318 4.512-9.507 10.958-9.507 6.284 0 9.668 3.383 9.668 3.383l-2.095 4.029s-3.061-2.9-7.412-2.9c-3.545 0-6.123 2.255-6.123 4.995 0 7.09 16.436 5.156 16.436 16.114 0 5.317-4.029 9.507-10.797 9.507-7.251 0-11.279-4.512-11.279-4.512l2.578-3.545Zm21.593-16.92h4.673v3.223c0 .967-.162 1.773-.162 1.773h.162c1.128-2.9 4.673-5.64 8.54-5.64 4.19 0 6.607 1.933 7.412 5.64h.161c1.29-3.062 4.835-5.64 8.863-5.64 5.64 0 8.218 3.223 8.218 9.507v15.791h-4.673V23.965c0-3.545-.644-6.285-4.351-6.285-3.545 0-6.123 2.9-6.929 6.285-.322.966-.322 2.095-.322 3.384v11.28h-4.673V23.803c0-3.223-.483-6.285-4.351-6.285-3.545 0-6.123 3.062-7.09 6.446-.322.966-.322 2.095-.322 3.223v11.28h-5.156V14.134Zm40.929-9.668h4.834V9.3h-4.834V4.467Zm0 9.668h4.673V38.79h-4.673V14.135Zm10.474 3.868h-3.223v-3.868h3.223V7.206h4.673v6.93h5.962v3.867h-5.962V29.12c0 5.157 3.545 5.801 5.317 5.801.645 0 1.128-.161 1.128-.161v4.19s-.644.16-1.611.16c-3.223 0-9.507-.966-9.507-9.184V18.003Zm13.374-13.697H239v12.569c0 1.128-.161 2.094-.161 2.094H239c1.128-2.417 4.19-5.478 9.185-5.478 5.801 0 8.541 3.223 8.541 9.507v15.791h-4.673V23.965c0-3.545-.806-6.285-4.673-6.285-3.707 0-6.768 2.579-7.896 6.124-.322.966-.322 2.094-.322 3.222v11.602h-4.673l-.323-34.322ZM6.64 7.69v27.877l13.857-14.02L6.64 7.69Zm34.483 27.877V4.306h-31.1l31.1 31.26ZM9.862 38.79h27.877L23.88 24.931 9.861 38.788ZM262.527 4.467c2.739 0 4.834 2.256 4.834 4.995 0 2.74-2.095 4.995-4.834 4.995-2.578 0-4.834-2.094-4.834-4.995.161-2.74 2.256-4.995 4.834-4.995Zm0 9.185c2.256 0 4.028-1.773 4.028-4.19 0-2.417-1.772-4.19-4.028-4.19-2.256 0-4.029 1.773-4.029 4.19.161 2.417 1.773 4.19 4.029 4.19Zm-1.612-6.768h1.934c.967 0 1.611.645 1.611 1.611 0 .806-.483 1.29-.966 1.45l.161.323.967 1.934h-.806l-1.128-2.095h-.967v1.933h-.806V6.884Zm1.773 2.417c.644 0 .967-.322.967-.967 0-.644-.323-.967-.967-.967h-.967v1.934h.967Z"/>
</svg>
