<svg xmlns="http://www.w3.org/2000/svg" width="281" height="42" fill="none" viewBox="0 0 281 42">
  <path fill="#00263A" d="M51.297 26.268a1.18 1.18 0 0 0 .453-.169.877.877 0 0 0 .31-.346c.077-.147.116-.346.116-.595V14.953c-.673-.024-1.16-.041-1.454-.053a18.554 18.554 0 0 0-.532-.017c-.697.012-1.203.23-1.515.65-.312.424-.493.973-.539 1.653h-.179l.09-2.589c.27-.012.522-.017.752-.017h.648c.472 0 .885.005 1.24.017.357.012.671.022.95.027.277.005.526.014.751.026a12.473 12.473 0 0 0 1.345 0c.225-.012.48-.021.762-.026.283-.005.605-.015.965-.027s.789-.017 1.285-.017h.672c.235 0 .491.005.762.017l.107 2.589h-.177a4.304 4.304 0 0 0-.16-.866 2.34 2.34 0 0 0-.372-.75 1.804 1.804 0 0 0-.629-.528 1.983 1.983 0 0 0-.912-.195c-.058 0-.249.01-.566.026l-1.487.08v10.205c0 .25.038.448.116.595a.897.897 0 0 0 .31.346c.13.082.28.138.452.17.171.028.35.043.541.043v.176c-.355 0-.638-.002-.851-.01a9.89 9.89 0 0 1-.55-.026 10.268 10.268 0 0 0-.92-.036 10.473 10.473 0 0 0-.922.036 10.01 10.01 0 0 1-.55.027c-.212.005-.495.01-.85.01v-.177c.188 0 .367-.015.538-.044Zm17.109-11.634c.356 0 .639.002.852.01.213.006.396.014.549.026a10.48 10.48 0 0 0 .921.036 10.37 10.37 0 0 0 .924-.036c.153-.012.337-.02.55-.027.212-.005.495-.01.85-.01v.177c-.188 0-.37.015-.539.044a1.18 1.18 0 0 0-.452.169.88.88 0 0 0-.31.346c-.077.148-.116.346-.116.595v9.197c0 .249.04.445.117.592a.878.878 0 0 0 .31.346c.13.082.28.138.451.17.172.028.351.043.54.043v.176c-.356 0-.639-.002-.852-.01a9.89 9.89 0 0 1-.549-.026 10.131 10.131 0 0 0-.924-.036 10.48 10.48 0 0 0-.922.036 10.01 10.01 0 0 1-.548.027c-.213.005-.496.01-.852.01v-.177c.189 0 .37-.015.54-.044a1.18 1.18 0 0 0 .452-.169.86.86 0 0 0 .31-.346c.077-.147.116-.346.116-.592V20.57h-5.53v4.59c0 .25.039.446.116.593a.878.878 0 0 0 .31.346c.13.082.28.138.452.17.172.028.35.043.54.043v.176a27 27 0 0 1-.852-.01 9.89 9.89 0 0 1-.549-.026 10.131 10.131 0 0 0-.924-.036 10.48 10.48 0 0 0-.922.036 10.01 10.01 0 0 1-.549.027 35.5 35.5 0 0 1-.851.01v-.177c.189 0 .37-.015.54-.044a1.18 1.18 0 0 0 .452-.169.86.86 0 0 0 .31-.346c.077-.147.115-.346.115-.592v-9.2c0-.249-.038-.444-.116-.595a.898.898 0 0 0-.31-.345 1.265 1.265 0 0 0-.452-.17 3.23 3.23 0 0 0-.539-.043v-.177c.355 0 .639.003.851.01.213.007.397.014.55.027a10.664 10.664 0 0 0 .921.036 10.554 10.554 0 0 0 .924-.036c.153-.013.336-.02.55-.027.212-.005.495-.01.85-.01v.177c-.188 0-.37.014-.539.043a1.18 1.18 0 0 0-.452.17.86.86 0 0 0-.31.345c-.077.148-.116.346-.116.596v4.288h5.53v-4.288c0-.25-.039-.445-.116-.595a.898.898 0 0 0-.31-.346 1.265 1.265 0 0 0-.452-.17 3.23 3.23 0 0 0-.54-.043v-.174Zm12.158 5.563c.532 0 .924-.133 1.178-.4.254-.265.38-.64.38-1.124h.176c0 .271-.002.496-.01.673-.005.176-.012.324-.017.442-.005.119-.012.218-.017.303a4.54 4.54 0 0 0-.01.275c0 .1.003.189.01.266.005.078.012.172.017.283.005.112.012.254.017.426.005.172.01.392.01.665h-.177c0-.46-.128-.825-.38-1.088-.253-.266-.648-.4-1.177-.4h-1.205v3.823c0 .423.039.76.116 1.013.078.252.213.44.409.564.196.123.452.203.772.237.319.036.72.053 1.204.053.426 0 .825-.015 1.195-.044.372-.029.701-.113.984-.254.284-.14.518-.36.7-.66.183-.3.297-.711.345-1.238h.196l-.142 2.481c-.532.013-1.004.02-1.418.027-.413.005-.863.01-1.347.01-1.004 0-1.814-.015-2.429-.044a32.99 32.99 0 0 0-1.487-.043c-.189 0-.351.002-.486.01l-.436.016c-.155.005-.336.012-.549.017-.213.005-.496.01-.851.01v-.177c.188 0 .37-.014.539-.043a1.18 1.18 0 0 0 .452-.17.86.86 0 0 0 .31-.346c.077-.147.116-.345.116-.592v-9.206c0-.25-.039-.445-.116-.595a.898.898 0 0 0-.31-.346 1.265 1.265 0 0 0-.452-.17 3.229 3.229 0 0 0-.54-.043v-.177c.356 0 .634.003.842.01l.532.017c.148.005.286.012.417.017.13.005.29.01.478.01.402 0 .888-.018 1.462-.054a30.74 30.74 0 0 1 1.922-.053c.462 0 .879.005 1.249.017.372.012.793.024 1.267.036l.107 2.303h-.177c-.036-.445-.13-.803-.283-1.072a1.565 1.565 0 0 0-.622-.614 2.614 2.614 0 0 0-.904-.28 8.566 8.566 0 0 0-1.507-.061l-.426.017a6.714 6.714 0 0 0-.726.063c-.27.036-.406.193-.406.476v4.734h1.205Zm20.821-5.563c.356 0 .639.002.852.01.213.006.396.014.549.026a10.47 10.47 0 0 0 .921.036 10.323 10.323 0 0 0 .924-.036c.153-.012.337-.02.55-.027a35.5 35.5 0 0 1 .851-.01v.177c-.189 0-.37.015-.539.044a1.185 1.185 0 0 0-.453.169.88.88 0 0 0-.309.346c-.078.148-.117.346-.117.595v9.197c0 .249.039.445.117.592a.878.878 0 0 0 .309.346c.131.082.281.138.453.17.171.028.35.043.539.043v.176c-.356 0-.639-.002-.851-.01a9.953 9.953 0 0 1-.55-.026 10.027 10.027 0 0 0-.924-.036 10.47 10.47 0 0 0-.921.036c-.155.012-.336.022-.549.027-.213.005-.496.01-.852.01v-.177c.189 0 .37-.015.54-.044.169-.029.321-.084.452-.169a.858.858 0 0 0 .31-.346c.077-.147.116-.346.116-.592V20.57h-5.53v4.59c0 .25.039.446.116.593a.878.878 0 0 0 .31.346c.13.082.28.138.452.17.172.028.351.043.54.043v.176c-.356 0-.639-.002-.852-.01a9.89 9.89 0 0 1-.549-.026 10.131 10.131 0 0 0-.924-.036 10.48 10.48 0 0 0-.922.036 10.01 10.01 0 0 1-.549.027 35.5 35.5 0 0 1-.851.01v-.177c.189 0 .37-.015.54-.044.169-.029.321-.084.452-.169a.86.86 0 0 0 .31-.346c.077-.147.115-.346.115-.592v-9.2c0-.249-.038-.444-.116-.595a.898.898 0 0 0-.31-.345 1.265 1.265 0 0 0-.452-.17 3.229 3.229 0 0 0-.539-.043v-.177c.356 0 .639.003.851.01.213.007.397.014.55.027a10.664 10.664 0 0 0 .921.036 10.543 10.543 0 0 0 .924-.036c.152-.013.336-.02.55-.027.212-.005.495-.01.85-.01v.177c-.188 0-.37.014-.539.043a1.18 1.18 0 0 0-.452.17.862.862 0 0 0-.31.345c-.077.148-.116.346-.116.596v4.288h5.53v-4.288c0-.25-.039-.445-.116-.595a.905.905 0 0 0-.31-.346 1.271 1.271 0 0 0-.452-.17 3.236 3.236 0 0 0-.54-.043v-.174Zm6.984 11.678c.851 0 1.441-.443 1.773-1.328l3.969-10.58h.336l4.006 10.49c.201.52.426.886.672 1.099.25.213.586.319 1.011.319v.176c-.355 0-.636-.002-.841-.01-.208-.004-.385-.011-.532-.016-.148-.005-.283-.012-.409-.017a11.446 11.446 0 0 0-.905 0c-.123.005-.261.012-.409.017-.147.005-.334.012-.558.017-.225.005-.525.01-.905.01v-.177c.143 0 .28-.01.416-.027.135-.017.264-.053.382-.106a.677.677 0 0 0 .283-.23.65.65 0 0 0 .107-.382c0-.13-.022-.266-.063-.406a3.915 3.915 0 0 0-.133-.39l-1.152-3.03h-3.722l-1.171 3.224a1.82 1.82 0 0 0-.107.549.72.72 0 0 0 .107.406c.07.106.159.189.266.25.106.06.227.096.363.115.135.017.268.027.399.027v.176c-.249 0-.45-.002-.602-.01-.155-.004-.283-.011-.39-.016-.106-.005-.203-.012-.293-.017a5.556 5.556 0 0 0-.638 0c-.09.005-.186.012-.293.017-.106.005-.237.012-.389.017a17.7 17.7 0 0 1-.586.01v-.177h.008Zm6.947-4.891-1.701-4.802-1.807 4.802h3.508Zm14.097-6.141c-.005.217-.01.435-.01.645 0 .225.015.48.044.762.029.283.043.55.043.798h-.213a3.15 3.15 0 0 0-.283-1.003 3.546 3.546 0 0 0-.592-.89 2.826 2.826 0 0 0-.852-.634 2.424 2.424 0 0 0-1.071-.237 2.146 2.146 0 0 0-1.541.646 2.071 2.071 0 0 0-.443.696 2.31 2.31 0 0 0-.159.85c0 .435.111.797.336 1.085.225.288.508.532.851.733.344.201.714.38 1.115.54.402.16.779.326 1.135.503.365.188.711.39 1.038.602a4.1 4.1 0 0 1 .841.726c.237.27.426.587.569.948.142.36.213.788.213 1.284s-.102.95-.303 1.365a3.196 3.196 0 0 1-.832 1.064 3.967 3.967 0 0 1-1.258.692 4.925 4.925 0 0 1-1.594.249c-.59 0-1.12-.097-1.586-.293a8.21 8.21 0 0 1-1.391-.752l-.407.692h-.176c0-.366.005-.656.017-.869.012-.213.017-.438.017-.672 0-.25-.005-.518-.017-.806a24.69 24.69 0 0 1-.017-1.001h.213c.024.45.116.878.275 1.284.16.407.378.765.656 1.072.278.307.612.556 1.001.745.39.189.832.283 1.328.283a3.01 3.01 0 0 0 1.038-.177c.324-.118.609-.285.851-.505.242-.218.431-.477.569-.772.135-.295.203-.619.203-.975 0-.365-.089-.691-.266-.974a2.917 2.917 0 0 0-.682-.753 5.5 5.5 0 0 0-.931-.585 99.024 99.024 0 0 0-.992-.489 14.19 14.19 0 0 1-1.118-.585 4.872 4.872 0 0 1-.982-.745 3.447 3.447 0 0 1-.701-.985c-.177-.372-.266-.812-.266-1.32 0-.426.092-.827.275-1.205a3.31 3.31 0 0 1 .736-.992c.307-.283.66-.508 1.062-.672a3.29 3.29 0 0 1 1.257-.25c.45 0 .881.08 1.295.24.413.16.803.387 1.168.682l.372-.672h.177c-.005.198-.007.409-.012.626Zm7.104 10.988c.172-.029.322-.084.452-.169a.873.873 0 0 0 .31-.346c.077-.147.116-.346.116-.595V14.953c-.672-.024-1.158-.041-1.454-.053a18.541 18.541 0 0 0-.532-.017c-.696.012-1.202.23-1.514.65-.312.424-.493.973-.539 1.653h-.177l.09-2.589c.27-.012.522-.017.752-.017h.648c.472 0 .885.005 1.241.017.356.012.67.022.948.027.278.005.528.014.752.026a12.492 12.492 0 0 0 1.345 0c.225-.012.479-.021.762-.026.283-.005.605-.015.965-.027.361-.012.789-.017 1.285-.017h.672c.235 0 .491.005.762.017l.107 2.589h-.177a4.242 4.242 0 0 0-.16-.866 2.346 2.346 0 0 0-.372-.75 1.809 1.809 0 0 0-.629-.528 1.975 1.975 0 0 0-.912-.195c-.058 0-.249.01-.566.026l-1.488.08v10.205c0 .25.039.448.117.595a.894.894 0 0 0 .309.346c.131.082.281.138.453.17.171.028.35.043.541.043v.176c-.355 0-.638-.002-.851-.01a9.862 9.862 0 0 1-.549-.026 10.34 10.34 0 0 0-.922-.036 10.427 10.427 0 0 0-.921.036c-.155.012-.337.022-.549.027-.213.005-.496.01-.852.01v-.177c.186 0 .365-.015.537-.044Zm9.775-11.634c.355 0 .638.002.851.01.213.006.397.014.549.026a10.47 10.47 0 0 0 .922.036 10.426 10.426 0 0 0 .924-.036c.152-.012.336-.02.549-.027.213-.005.496-.01.851-.01v.177c-.188 0-.37.015-.539.044a1.174 1.174 0 0 0-.452.169.86.86 0 0 0-.31.346c-.077.148-.116.346-.116.595v9.197c0 .249.039.445.116.592a.88.88 0 0 0 .31.346c.13.082.28.138.452.17.172.028.351.043.539.043v.176c-.355 0-.638-.002-.851-.01a9.862 9.862 0 0 1-.549-.026 10.223 10.223 0 0 0-.924-.036 10.47 10.47 0 0 0-.922.036 9.961 9.961 0 0 1-.549.027c-.213.005-.496.01-.851.01v-.177c.189 0 .37-.015.539-.044a1.19 1.19 0 0 0 .453-.169.863.863 0 0 0 .309-.346c.078-.147.116-.346.116-.592v-9.2c0-.249-.038-.444-.116-.595a.895.895 0 0 0-.309-.345 1.269 1.269 0 0 0-.453-.17 3.224 3.224 0 0 0-.539-.043v-.174Zm8.442 11.634a1.18 1.18 0 0 0 .452-.169.858.858 0 0 0 .31-.346c.077-.147.116-.346.116-.592v-9.11l-.39-.496a2.689 2.689 0 0 0-.541-.532c-.196-.143-.446-.213-.753-.213v-.176c.213 0 .397.002.549.01l.416.016c.124.005.237.012.337.017.099.005.215.01.345.01.119 0 .218-.003.303-.01l.249-.017c.082-.005.172-.012.266-.017.094-.005.213-.01.356-.01l7.372 9.074v-7.745c0-.25-.038-.445-.116-.595a.895.895 0 0 0-.309-.346 1.269 1.269 0 0 0-.453-.17 3.222 3.222 0 0 0-.541-.043v-.177c.237 0 .425.003.568.01l.372.017c.107.005.206.012.303.017a6.272 6.272 0 0 0 .672 0c.095-.005.196-.012.303-.017.106-.005.232-.012.382-.017.147-.005.338-.01.576-.01v.177c-.189 0-.371.014-.542.043a1.185 1.185 0 0 0-.453.17.88.88 0 0 0-.309.345c-.078.148-.116.346-.116.596v10.74h-.32L155.95 16.44v8.72c0 .25.039.446.117.593a.894.894 0 0 0 .309.346c.131.082.281.138.452.17.172.028.351.043.542.043v.176c-.237 0-.428-.002-.575-.01-.148-.004-.276-.011-.38-.016-.107-.005-.208-.012-.303-.017a6.481 6.481 0 0 0-.672 0l-.302.017c-.107.005-.23.012-.373.017-.143.005-.331.01-.566.01v-.177c.184 0 .365-.015.535-.044Zm24.837-2.968c0 .32.002.67.009 1.055.005.385.022.694.044.931a3.81 3.81 0 0 0-1.161.283c-.36.155-.733.317-1.115.489-.385.172-.801.324-1.251.462-.45.135-.962.203-1.541.203-.863 0-1.647-.145-2.356-.435a5.31 5.31 0 0 1-1.833-1.231 5.585 5.585 0 0 1-1.197-1.906c-.283-.738-.426-1.556-.426-2.456 0-.885.16-1.712.479-2.482a6.007 6.007 0 0 1 1.321-1.985 6.225 6.225 0 0 1 4.438-1.79c.661 0 1.282.096 1.86.292a7.246 7.246 0 0 1 1.648.806l.425-.639h.177a9.525 9.525 0 0 1-.044.542c-.017.148-.031.28-.043.4-.012.118-.024.229-.037.335a3.226 3.226 0 0 0-.016.356v.382c0 .102.002.208.009.32.005.11.01.251.01.416v.672h-.213c-.048-1.081-.404-1.945-1.072-2.593-.667-.646-1.579-.97-2.738-.97-.496 0-.991.126-1.487.38a4.07 4.07 0 0 0-1.338 1.132c-.397.5-.718 1.127-.965 1.874-.249.75-.373 1.626-.373 2.627 0 .366.025.757.071 1.176.048.418.13.837.249 1.255.118.419.275.82.469 1.203.196.382.438.723.726 1.018.29.295.629.53 1.018.709.389.176.839.266 1.347.266.366 0 .733-.054 1.098-.16.366-.106.697-.276.992-.506.295-.23.537-.52.726-.868.189-.348.283-.772.283-1.267 0-.579-.119-.992-.356-1.241-.237-.25-.672-.373-1.311-.373v-.176a26.89 26.89 0 0 1 1.49.036 14.037 14.037 0 0 0 1.977 0c.159-.012.348-.022.566-.027.217-.005.505-.01.858-.01v.177c-.508 0-.871.085-1.091.257-.217.176-.326.53-.326 1.061Zm10.907-8.02c-.005.217-.01.435-.01.645 0 .225.014.48.043.762.029.283.044.55.044.798h-.213a3.176 3.176 0 0 0-.283-1.003 3.576 3.576 0 0 0-.593-.89 2.81 2.81 0 0 0-.851-.634 2.426 2.426 0 0 0-1.072-.237 2.135 2.135 0 0 0-1.54.646 2.056 2.056 0 0 0-.443.696 2.31 2.31 0 0 0-.16.85c0 .435.112.797.337 1.085.224.288.507.532.851.733.343.201.714.38 1.115.54.402.16.779.326 1.135.503.365.188.711.39 1.037.602.324.213.605.455.842.726.237.27.426.587.568.948.143.36.213.788.213 1.284s-.101.95-.302 1.365a3.196 3.196 0 0 1-.832 1.064 3.978 3.978 0 0 1-1.258.692 4.93 4.93 0 0 1-1.594.249c-.59 0-1.12-.097-1.587-.293a8.25 8.25 0 0 1-1.391-.752l-.406.692h-.177c0-.366.005-.656.017-.869.012-.213.017-.438.017-.672 0-.25-.005-.518-.017-.806a24.69 24.69 0 0 1-.017-1.001h.213c.024.45.116.878.276 1.284.16.407.377.765.656 1.072.278.307.612.556 1.001.745.389.189.832.283 1.328.283a3.01 3.01 0 0 0 1.038-.177c.324-.118.609-.285.851-.505a2.298 2.298 0 0 0 .772-1.746c0-.366-.09-.692-.266-.975a2.904 2.904 0 0 0-.683-.753 5.46 5.46 0 0 0-.931-.585 81.52 81.52 0 0 0-.992-.489 14.633 14.633 0 0 1-1.117-.585 4.872 4.872 0 0 1-.982-.745 3.45 3.45 0 0 1-.702-.985c-.176-.372-.266-.812-.266-1.32 0-.426.092-.827.276-1.205.184-.377.428-.709.735-.992a3.54 3.54 0 0 1 1.062-.672 3.29 3.29 0 0 1 1.258-.25c.45 0 .881.08 1.294.24.414.16.803.387 1.169.682l.372-.672h.177c-.003.198-.005.409-.012.626Zm20.299-.397c0 .283-.003.556-.01.815-.005.261-.01.52-.01.779 0 .283.01.58.027.885.017.307.027.62.027.939h-.213c-.07-1.082-.438-1.945-1.098-2.593-.663-.646-1.582-.97-2.765-.97-.472 0-.953.13-1.444.39-.491.258-.934.643-1.328 1.148-.397.508-.719 1.132-.965 1.875-.249.742-.373 1.599-.373 2.566 0 .578.07 1.197.213 1.858.143.66.375 1.274.699 1.84a4.35 4.35 0 0 0 1.275 1.408c.525.373 1.173.557 1.94.557.578 0 1.11-.092 1.594-.276.484-.184.9-.45 1.25-.798.349-.349.622-.765.825-1.25a4.712 4.712 0 0 0 .336-1.631h.213c0 .343-.009.706-.026 1.09-.017.385-.027.69-.027.913v.336c0 .106.002.225.01.355.005.131.012.284.017.462.005.177.014.397.026.656h-.176l-.426-.726a7.22 7.22 0 0 1-.462.32 5.13 5.13 0 0 1-.752.389c-.303.13-.653.242-1.055.336a5.979 5.979 0 0 1-1.364.143 7.303 7.303 0 0 1-2.455-.4 5.527 5.527 0 0 1-1.95-1.168c-.549-.515-.977-1.153-1.284-1.922-.308-.767-.462-1.66-.462-2.676a6.052 6.052 0 0 1 1.77-4.306 6.268 6.268 0 0 1 1.96-1.32 6.116 6.116 0 0 1 2.455-.489c.66 0 1.284.097 1.869.293.586.196 1.13.464 1.64.806l.32-.64h.179v.006Zm7.939 5.314c.532 0 .924-.133 1.178-.4.254-.265.379-.64.379-1.124h.177c0 .271-.003.496-.01.673-.005.176-.012.324-.017.442-.005.119-.012.218-.017.303-.004.082-.009.174-.009.275 0 .1.002.189.009.266.008.078.012.172.017.283.005.112.012.254.017.426.005.172.01.392.01.665h-.177c0-.46-.128-.825-.379-1.088-.254-.266-.649-.4-1.178-.4h-1.205v3.823c0 .423.039.76.116 1.013.077.252.213.44.409.564.196.123.452.203.771.237.32.036.721.053 1.205.053.426 0 .825-.015 1.195-.044.373-.029.701-.113.984-.254.283-.14.518-.36.7-.66.183-.3.297-.711.345-1.238h.196l-.142 2.481c-.533.013-1.004.02-1.418.027-.413.005-.863.01-1.347.01-1.004 0-1.814-.015-2.429-.044a32.968 32.968 0 0 0-1.487-.043 9.34 9.34 0 0 0-.486.01l-.436.016c-.155.005-.336.012-.549.017-.213.005-.496.01-.851.01v-.177c.188 0 .37-.014.539-.043.169-.03.322-.085.452-.17a.86.86 0 0 0 .31-.346c.077-.147.116-.345.116-.592v-9.206c0-.25-.039-.445-.116-.595a.89.89 0 0 0-.31-.346 1.257 1.257 0 0 0-.452-.17 3.233 3.233 0 0 0-.539-.043v-.177c.355 0 .633.003.841.01l.533.017c.147.005.285.012.416.017.13.005.29.01.478.01.402 0 .888-.018 1.461-.054a30.782 30.782 0 0 1 1.924-.053c.462 0 .878.005 1.248.017.372.012.793.024 1.267.036l.107 2.303h-.177c-.036-.445-.131-.803-.283-1.072a1.562 1.562 0 0 0-.622-.614 2.608 2.608 0 0 0-.904-.28 8.575 8.575 0 0 0-1.507-.061l-.426.017a6.673 6.673 0 0 0-.726.063c-.271.036-.406.193-.406.476v4.734h1.205Zm8.304 6.071a1.18 1.18 0 0 0 .452-.169.858.858 0 0 0 .31-.346c.077-.147.116-.346.116-.592v-9.11l-.39-.496a2.667 2.667 0 0 0-.542-.532c-.196-.143-.445-.213-.752-.213v-.176c.213 0 .397.002.549.01l.416.016c.124.005.237.012.336.017.1.005.216.01.346.01.119 0 .218-.003.303-.01l.249-.017c.082-.005.172-.012.266-.017.094-.005.213-.01.355-.01l7.373 9.074v-7.745c0-.25-.038-.445-.116-.595a.895.895 0 0 0-.309-.346 1.269 1.269 0 0 0-.453-.17 3.243 3.243 0 0 0-.542-.043v-.177c.237 0 .426.003.569.01l.372.017c.107.005.206.012.303.017a6.272 6.272 0 0 0 .672 0l.302-.017c.107-.005.233-.012.383-.017.147-.005.338-.01.575-.01v.177c-.188 0-.37.014-.541.043a1.185 1.185 0 0 0-.453.17.88.88 0 0 0-.309.345c-.078.148-.117.346-.117.596v10.74h-.319l-8.188-10.262v8.72c0 .25.039.446.116.593a.904.904 0 0 0 .31.346c.131.082.281.138.452.17.172.03.351.043.542.043v.176c-.237 0-.428-.002-.576-.01-.147-.004-.275-.011-.379-.016-.107-.005-.208-.012-.303-.017a6.481 6.481 0 0 0-.672 0l-.302.017c-.107.005-.23.012-.373.017-.143.005-.331.01-.566.01v-.177c.181 0 .363-.015.535-.044Zm17.171 0c.172-.029.322-.084.453-.169a.878.878 0 0 0 .309-.346c.078-.147.116-.346.116-.595V14.953c-.672-.024-1.158-.041-1.453-.053a18.673 18.673 0 0 0-.533-.017c-.696.012-1.202.23-1.514.65-.312.424-.493.973-.539 1.653h-.177l.09-2.589c.271-.012.522-.017.752-.017h.648c.472 0 .885.005 1.241.017.356.012.67.022.948.027.278.005.528.014.753.026a12.455 12.455 0 0 0 1.344 0c.225-.012.479-.021.762-.026.283-.005.605-.015.966-.027.36-.012.788-.017 1.284-.017h.672c.235 0 .491.005.762.017l.107 2.589h-.177a4.31 4.31 0 0 0-.159-.866 2.348 2.348 0 0 0-.373-.75 1.8 1.8 0 0 0-.629-.528 1.975 1.975 0 0 0-.912-.195c-.058 0-.249.01-.566.026l-1.487.08v10.205c0 .25.038.448.116.595a.894.894 0 0 0 .309.346c.129.082.281.138.453.17.171.03.35.043.541.043v.176c-.355 0-.638-.002-.851-.01a9.862 9.862 0 0 1-.549-.026 10.34 10.34 0 0 0-.922-.036 10.54 10.54 0 0 0-.921.036c-.155.012-.336.022-.549.027-.213.005-.496.01-.852.01v-.177c.184 0 .365-.015.537-.044Zm14.204-6.071c.532 0 .924-.133 1.178-.4.254-.265.38-.64.38-1.124h.176c0 .271-.002.496-.009.673-.005.176-.013.324-.017.442-.005.119-.012.218-.017.303-.005.082-.01.174-.01.275 0 .1.002.189.01.266.005.078.012.172.017.283.004.112.012.254.017.426.004.172.009.392.009.665h-.176c0-.46-.129-.825-.38-1.088-.254-.266-.648-.4-1.178-.4h-1.205v3.823c0 .423.039.76.116 1.013.078.252.213.44.409.564.196.123.453.203.772.237.319.036.721.053 1.204.053.426 0 .825-.015 1.195-.044.373-.029.702-.113.985-.254.283-.14.517-.36.699-.66.184-.3.297-.711.346-1.238h.196l-.143 2.481c-.532.013-1.004.02-1.417.027-.414.005-.864.01-1.348.01-1.004 0-1.814-.015-2.428-.044a33.045 33.045 0 0 0-1.488-.043 9.34 9.34 0 0 0-.486.01l-.436.016c-.154.005-.336.012-.549.017-.213.005-.496.01-.851.01v-.177a3.2 3.2 0 0 0 .539-.043c.17-.03.322-.085.453-.17a.865.865 0 0 0 .309-.346c.078-.147.116-.345.116-.592v-9.206c0-.25-.038-.445-.116-.595a.895.895 0 0 0-.309-.346 1.269 1.269 0 0 0-.453-.17 3.215 3.215 0 0 0-.539-.043v-.177c.355 0 .634.003.842.01l.532.017c.147.005.285.012.416.017.13.005.29.01.479.01.401 0 .888-.018 1.461-.054a30.726 30.726 0 0 1 1.923-.053c.462 0 .878.005 1.248.017.372.012.793.024 1.267.036l.107 2.303h-.177c-.036-.445-.13-.803-.283-1.072a1.56 1.56 0 0 0-.621-.614 2.62 2.62 0 0 0-.905-.28 8.559 8.559 0 0 0-1.507-.061l-.426.017a6.727 6.727 0 0 0-.725.063c-.271.036-.407.193-.407.476v4.734h1.205Zm7.583-5.563c.356 0 .639.002.852.01.212.006.391.009.541.009.148 0 .286.002.416.01a12.541 12.541 0 0 0 1.551-.034c.409-.03.859-.044 1.354-.044.462 0 .941.036 1.445.107.503.07.962.213 1.381.425.418.213.764.518 1.035.912.271.397.409.92.409 1.568 0 .438-.09.832-.266 1.187a3.063 3.063 0 0 1-.699.922 3.91 3.91 0 0 1-.992.646 4.19 4.19 0 0 1-1.142.346c.119.154.324.409.619.762.296.355.627.752.992 1.195a128.755 128.755 0 0 0 2.216 2.612c.271.307.53.559.772.752.241.196.51.293.805.293v.176c-.261 0-.469-.002-.629-.01-.16-.004-.293-.011-.399-.016l-.302-.017a6.836 6.836 0 0 0-.716 0c-.102.005-.196.012-.283.017-.09.005-.187.012-.293.017-.106.005-.242.01-.409.01a77.331 77.331 0 0 1-1.011-1.302c-.307-.409-.609-.805-.905-1.197-.295-.39-.597-.781-.904-1.178-.307-.397-.639-.818-.992-1.268-.177-.225-.331-.382-.462-.469-.131-.09-.331-.133-.602-.133h-.16v4.219c0 .249.039.445.116.592a.88.88 0 0 0 .31.346c.13.082.28.138.452.17.172.028.351.043.539.043v.176c-.355 0-.638-.002-.851-.01a9.862 9.862 0 0 1-.549-.026 10.223 10.223 0 0 0-.924-.036 10.47 10.47 0 0 0-.922.036 9.961 9.961 0 0 1-.549.027c-.213.005-.496.01-.851.01v-.177c.189 0 .37-.015.539-.044a1.19 1.19 0 0 0 .453-.169.863.863 0 0 0 .309-.346c.078-.147.116-.346.116-.592v-9.2c0-.249-.038-.444-.116-.595a.895.895 0 0 0-.309-.345 1.269 1.269 0 0 0-.453-.17 3.224 3.224 0 0 0-.539-.043v-.174h.007Zm3.227 5.989h.885c.958 0 1.672-.26 2.146-.78.471-.52.708-1.281.708-2.285 0-.365-.058-.709-.176-1.028a2.416 2.416 0 0 0-1.347-1.418 2.799 2.799 0 0 0-1.116-.212 5.93 5.93 0 0 0-.336.01 1 1 0 0 0-.363.08.781.781 0 0 0-.283.202.538.538 0 0 0-.116.363v5.068h-.002Z"/>
  <path fill="#6FA287" d="M24.279 23.438a12.957 12.957 0 0 1 1.403 4.843 12.881 12.881 0 0 1-.556 4.98 12.864 12.864 0 0 1-2.405 4.366c-.02.022-.041.044-.06.068.251-.002.503-.007.752-.02a13.361 13.361 0 0 0 2.131-4.285 13.27 13.27 0 0 0 .428-5.138 13.115 13.115 0 0 0-4.857-8.773 13.09 13.09 0 0 1 3.164 3.96Z"/>
  <path fill="#6FA287" d="M24.676 23.087a12.953 12.953 0 0 1 1.9 4.669c.318 1.657.308 3.37-.03 5.012a12.841 12.841 0 0 1-1.936 4.593l-.053.073c.252-.03.5-.06.748-.1a13.34 13.34 0 0 0 1.67-4.486 13.236 13.236 0 0 0-.11-5.152 13.097 13.097 0 0 0-5.747-8.217 13.125 13.125 0 0 1 3.558 3.608Z"/>
  <path fill="#6FA287" d="M25.034 22.696a12.854 12.854 0 0 1 2.869 9.431 12.786 12.786 0 0 1-1.447 4.77c-.015.026-.03.05-.044.077.247-.055.491-.11.733-.176a13.281 13.281 0 0 0 1.193-4.637c.12-1.73-.104-3.479-.65-5.114a13.18 13.18 0 0 0-2.546-4.45 13.141 13.141 0 0 0-4.03-3.12 13.112 13.112 0 0 1 3.922 3.219Z"/>
  <path fill="#6FA287" d="M28.178 26.438a12.876 12.876 0 0 1 1.011 4.91 12.885 12.885 0 0 1-.938 4.896c-.012.026-.024.056-.037.082.24-.08.477-.162.712-.252.515-1.523.76-3.134.701-4.736a13.272 13.272 0 0 0-1.18-5.016 13.22 13.22 0 0 0-2.995-4.16 13.128 13.128 0 0 0-4.335-2.683 13.08 13.08 0 0 1 4.233 2.786 13.057 13.057 0 0 1 2.828 4.173Z"/>
  <path fill="#6FA287" d="M28.865 25.661a12.927 12.927 0 0 1 1.52 4.777 12.834 12.834 0 0 1-.422 4.966c-.007.03-.02.058-.026.085.23-.104.457-.21.68-.324.352-1.57.427-3.198.203-4.782a13.308 13.308 0 0 0-1.698-4.867 13.21 13.21 0 0 0-3.413-3.824 13.161 13.161 0 0 0-4.592-2.216 13.056 13.056 0 0 1 4.502 2.33 13.052 13.052 0 0 1 3.246 3.855Z"/>
  <path fill="#6FA287" d="M29.47 24.817a12.925 12.925 0 0 1 2.01 4.593c.36 1.638.39 3.341.1 4.983a1.133 1.133 0 0 1-.02.087c.217-.128.433-.258.64-.394a13.334 13.334 0 0 0-.297-4.777 13.222 13.222 0 0 0-2.199-4.661 13.103 13.103 0 0 0-8.594-5.17 12.968 12.968 0 0 1 8.36 5.338Z"/>
  <path fill="#6FA287" d="M29.983 23.915a12.935 12.935 0 0 1 2.479 4.356c.53 1.592.738 3.28.62 4.944-.003.03-.008.06-.01.09.203-.15.403-.303.597-.457a13.335 13.335 0 0 0-.796-4.722A13.27 13.27 0 0 0 30.2 23.72a13.176 13.176 0 0 0-4.134-3.031 13.155 13.155 0 0 0-4.951-1.212c1.7.126 3.372.58 4.889 1.343a13.045 13.045 0 0 1 3.979 3.096Z"/>
  <path fill="#6FA287" d="M26.115 20.303a12.954 12.954 0 0 1 4.281 2.661 12.895 12.895 0 0 1 2.92 4.074 12.782 12.782 0 0 1 1.132 4.854v.09c.186-.17.37-.341.547-.518a13.35 13.35 0 0 0-1.285-4.613 13.21 13.21 0 0 0-3.12-4.102 13.148 13.148 0 0 0-4.43-2.581 13.139 13.139 0 0 0-5.05-.687 13.038 13.038 0 0 1 5.005.822Z"/>
  <path fill="#6FA287" d="M26.173 19.776c1.64.428 3.19 1.18 4.535 2.199a12.91 12.91 0 0 1 3.331 3.747 12.85 12.85 0 0 1 1.635 4.71c.005.028.008.06.01.089.167-.189.331-.38.489-.573a13.28 13.28 0 0 0-1.761-4.454 13.161 13.161 0 0 0-8.205-5.858 13.105 13.105 0 0 0-5.097-.155 13.068 13.068 0 0 1 5.063.295Z"/>
  <path fill="#6FA287" d="M26.178 19.246a12.873 12.873 0 0 1 8.444 5.092 12.803 12.803 0 0 1 2.117 4.511l.019.087c.148-.205.29-.41.426-.621a13.323 13.323 0 0 0-2.216-4.243 13.17 13.17 0 0 0-8.773-4.968 13.15 13.15 0 0 0-5.085.377 13.019 13.019 0 0 1 5.068-.235Z"/>
  <path fill="#6FA287" d="M26.125 18.719c1.693.078 3.367.491 4.893 1.207a12.834 12.834 0 0 1 6.645 7.324c.123-.22.246-.44.36-.662a13.331 13.331 0 0 0-2.646-3.99 13.267 13.267 0 0 0-4.236-2.938 13.106 13.106 0 0 0-10.026-.179 13.016 13.016 0 0 1 5.01-.762Z"/>
  <path fill="#6FA287" d="M31.01 18.886a12.882 12.882 0 0 1 4.326 2.535 12.796 12.796 0 0 1 3.009 3.974l.036.082c.102-.232.198-.462.288-.696a13.219 13.219 0 0 0-7.569-6.17 13.104 13.104 0 0 0-9.99.87 13.063 13.063 0 0 1 4.906-1.282 12.946 12.946 0 0 1 4.995.687Z"/>
  <path fill="#6FA287" d="M30.895 17.855a12.816 12.816 0 0 1 7.975 5.704c.017.027.029.053.046.078.075-.24.15-.482.215-.721a13.322 13.322 0 0 0-3.418-3.353 13.228 13.228 0 0 0-4.753-1.993 13.149 13.149 0 0 0-5.126-.022 13.169 13.169 0 0 0-4.719 1.93c1.449-.9 3.07-1.511 4.743-1.787a12.976 12.976 0 0 1 5.037.165Z"/>
  <path fill="#6FA287" d="M30.672 16.842a12.805 12.805 0 0 1 8.527 4.84c.019.024.036.049.053.073.05-.247.096-.494.138-.74a13.36 13.36 0 0 0-3.75-2.976 13.15 13.15 0 0 0-10.034-.97 13.11 13.11 0 0 0-4.489 2.414 13.084 13.084 0 0 1 4.531-2.273 12.86 12.86 0 0 1 5.024-.368Z"/>
  <path fill="#6FA287" d="M30.343 15.857a12.822 12.822 0 0 1 8.986 3.923.812.812 0 0 1 .06.069c.025-.252.047-.501.061-.75a13.33 13.33 0 0 0-4.04-2.567 13.238 13.238 0 0 0-5.062-.962c-1.725.017-3.44.372-5.02 1.045a13.151 13.151 0 0 0-4.213 2.868 13.055 13.055 0 0 1 4.27-2.733 12.86 12.86 0 0 1 4.958-.893Z"/>
  <path fill="#6FA287" d="M25.072 16.315a12.96 12.96 0 0 1 4.843-1.403 12.883 12.883 0 0 1 4.98.556 12.865 12.865 0 0 1 4.366 2.404c.022.02.044.042.068.06a19.346 19.346 0 0 0-.02-.751 13.353 13.353 0 0 0-4.285-2.131 13.27 13.27 0 0 0-5.138-.429 13.115 13.115 0 0 0-8.773 4.857 13.09 13.09 0 0 1 3.96-3.163Z"/>
  <path fill="#6FA287" d="M24.72 15.918a12.952 12.952 0 0 1 4.668-1.901 12.895 12.895 0 0 1 5.012.031 12.841 12.841 0 0 1 4.593 1.935c.024.017.048.037.072.053-.029-.251-.06-.5-.099-.747a13.341 13.341 0 0 0-4.487-1.671 13.238 13.238 0 0 0-5.152.11 13.096 13.096 0 0 0-8.217 5.747 13.157 13.157 0 0 1 3.61-3.557Z"/>
  <path fill="#6FA287" d="M18.904 17.684a12.958 12.958 0 0 1-1.403-4.843 12.885 12.885 0 0 1 .556-4.98 12.866 12.866 0 0 1 2.405-4.366c.02-.022.041-.044.06-.068-.251.002-.503.007-.752.02a13.353 13.353 0 0 0-2.13 4.285 13.268 13.268 0 0 0-.43 5.138 13.204 13.204 0 0 0 1.563 4.882 13.13 13.13 0 0 0 3.295 3.892 13.064 13.064 0 0 1-3.164-3.96Z"/>
  <path fill="#6FA287" d="M18.507 18.037a12.953 12.953 0 0 1-1.9-4.668 12.896 12.896 0 0 1 .03-5.012 12.845 12.845 0 0 1 1.936-4.594l.053-.072c-.252.029-.5.06-.748.099a13.34 13.34 0 0 0-1.67 4.487 13.235 13.235 0 0 0 .11 5.152 13.097 13.097 0 0 0 5.747 8.217 13.19 13.19 0 0 1-3.558-3.61Z"/>
  <path fill="#6FA287" d="M18.15 18.429a12.855 12.855 0 0 1-2.869-9.431 12.78 12.78 0 0 1 1.446-4.77c.015-.027.03-.051.044-.078-.247.053-.491.111-.733.177a13.277 13.277 0 0 0-1.193 4.637 13.29 13.29 0 0 0 .65 5.113 13.18 13.18 0 0 0 2.546 4.451 13.143 13.143 0 0 0 4.03 3.12 13.186 13.186 0 0 1-3.922-3.22Z"/>
  <path fill="#6FA287" d="M15.005 14.684a12.877 12.877 0 0 1-1.011-4.91 12.887 12.887 0 0 1 .938-4.896l.037-.082c-.24.08-.477.162-.71.252a13.32 13.32 0 0 0-.7 4.736 13.25 13.25 0 0 0 1.18 5.016 13.218 13.218 0 0 0 2.994 4.16 13.127 13.127 0 0 0 4.335 2.683 13.082 13.082 0 0 1-4.233-2.786 13.025 13.025 0 0 1-2.83-4.173Z"/>
  <path fill="#6FA287" d="M14.318 15.46a12.927 12.927 0 0 1-1.52-4.777 12.834 12.834 0 0 1 .422-4.965c.007-.03.02-.058.026-.085-.23.104-.457.21-.68.324a13.314 13.314 0 0 0-.203 4.782 13.31 13.31 0 0 0 1.699 4.867 13.187 13.187 0 0 0 3.417 3.822 13.165 13.165 0 0 0 4.591 2.215 12.957 12.957 0 0 1-7.753-6.183Z"/>
  <path fill="#6FA287" d="M13.713 16.305a12.925 12.925 0 0 1-2.01-4.594c-.36-1.637-.39-3.34-.099-4.982a.844.844 0 0 1 .02-.087c-.218.128-.434.258-.642.394a13.334 13.334 0 0 0 .298 4.777 13.223 13.223 0 0 0 2.199 4.661 13.103 13.103 0 0 0 8.594 5.17 13.075 13.075 0 0 1-4.722-1.846 12.935 12.935 0 0 1-3.638-3.493Z"/>
  <path fill="#6FA287" d="M13.2 17.207a12.931 12.931 0 0 1-2.479-4.356 12.81 12.81 0 0 1-.62-4.944c.003-.03.008-.06.01-.09-.203.15-.403.303-.597.457-.02 1.609.247 3.217.796 4.722a13.272 13.272 0 0 0 2.673 4.407 13.175 13.175 0 0 0 4.134 3.031 13.143 13.143 0 0 0 4.951 1.212c-1.7-.126-3.372-.58-4.889-1.343a13.043 13.043 0 0 1-3.979-3.096Z"/>
  <path fill="#6FA287" d="M17.068 20.819a12.952 12.952 0 0 1-4.281-2.661 12.897 12.897 0 0 1-2.92-4.074A12.782 12.782 0 0 1 8.735 9.23v-.09c-.186.17-.37.341-.547.518.15 1.601.581 3.174 1.285 4.613a13.23 13.23 0 0 0 3.12 4.102 13.147 13.147 0 0 0 4.43 2.581c1.62.559 3.347.789 5.05.687a13.036 13.036 0 0 1-5.005-.822Z"/>
  <path fill="#6FA287" d="M17.01 21.346a12.96 12.96 0 0 1-4.535-2.199A12.914 12.914 0 0 1 9.144 15.4a12.864 12.864 0 0 1-1.635-4.71c-.005-.028-.007-.06-.01-.089-.167.189-.331.38-.489.574a13.28 13.28 0 0 0 1.761 4.453 13.162 13.162 0 0 0 8.205 5.858 13.1 13.1 0 0 0 5.097.155 13.022 13.022 0 0 1-5.063-.295Z"/>
  <path fill="#6FA287" d="M17.005 21.876a12.873 12.873 0 0 1-8.444-5.092 12.802 12.802 0 0 1-2.117-4.511l-.019-.087c-.147.205-.29.41-.426.621a13.322 13.322 0 0 0 2.216 4.243 13.169 13.169 0 0 0 8.773 4.968c1.703.21 3.44.075 5.085-.377-1.66.409-3.391.491-5.068.235Z"/>
  <path fill="#6FA287" d="M17.058 22.405a12.953 12.953 0 0 1-4.893-1.207 12.896 12.896 0 0 1-4.037-2.972 12.836 12.836 0 0 1-2.579-4.267l-.029-.085c-.123.22-.246.44-.36.663a13.33 13.33 0 0 0 2.646 3.989 13.265 13.265 0 0 0 4.236 2.939 13.107 13.107 0 0 0 10.026.179 13.053 13.053 0 0 1-5.01.761Z"/>
  <path fill="#6FA287" d="M12.172 22.236a12.815 12.815 0 0 1-7.334-6.507l-.036-.082c-.102.232-.198.462-.288.697a13.326 13.326 0 0 0 3.05 3.69 13.222 13.222 0 0 0 4.519 2.48 13.105 13.105 0 0 0 9.99-.87 13.064 13.064 0 0 1-4.906 1.281c-1.695.1-3.4-.137-4.995-.689Z"/>
  <path fill="#6FA287" d="M12.289 23.267a12.812 12.812 0 0 1-7.975-5.704c-.017-.027-.03-.053-.047-.078-.075.24-.15.482-.212.721a13.322 13.322 0 0 0 3.418 3.353 13.175 13.175 0 0 0 9.878 2.015 13.167 13.167 0 0 0 4.72-1.93c-1.45.9-3.07 1.511-4.744 1.787a12.984 12.984 0 0 1-5.039-.165Z"/>
  <path fill="#6FA287" d="M12.511 24.28a12.803 12.803 0 0 1-8.58-4.913c-.05.247-.097.494-.138.74a13.319 13.319 0 0 0 3.75 2.976 13.15 13.15 0 0 0 10.034.97 13.11 13.11 0 0 0 4.489-2.414 13.082 13.082 0 0 1-4.531 2.273c-1.63.455-3.35.576-5.024.368Z"/>
  <path fill="#6FA287" d="M12.84 25.265a12.826 12.826 0 0 1-9.047-3.986c-.024.25-.046.5-.06.75a13.333 13.333 0 0 0 4.04 2.566c1.608.65 3.338.977 5.062.962a13.176 13.176 0 0 0 5.02-1.045 13.15 13.15 0 0 0 4.213-2.869 13.055 13.055 0 0 1-4.27 2.734 12.9 12.9 0 0 1-4.958.888Z"/>
  <path fill="#6FA287" d="M18.11 24.807a12.957 12.957 0 0 1-4.842 1.403 12.885 12.885 0 0 1-4.98-.556 12.866 12.866 0 0 1-4.366-2.404c-.022-.02-.044-.041-.068-.06.002.25.007.502.02.751a13.34 13.34 0 0 0 4.285 2.131 13.26 13.26 0 0 0 5.138.429 13.18 13.18 0 0 0 4.881-1.563 13.13 13.13 0 0 0 3.892-3.294 13.057 13.057 0 0 1-3.96 3.163Z"/>
  <path fill="#6FA287" d="M18.464 25.204a12.951 12.951 0 0 1-4.668 1.901c-1.657.317-3.37.308-5.012-.031a12.845 12.845 0 0 1-4.594-1.935c-.024-.017-.048-.037-.072-.053.029.251.06.5.099.747a13.34 13.34 0 0 0 4.487 1.671c1.707.303 3.468.262 5.152-.11a13.098 13.098 0 0 0 8.217-5.747 13.158 13.158 0 0 1-3.61 3.557Z"/>
</svg>
