<svg xmlns="http://www.w3.org/2000/svg" width="182" height="64" fill="none" viewBox="0 0 182 64">
  <path fill="#F22F46" d="M126.371 16.037h-9.155a.447.447 0 0 0-.416.416v5.306c0 .208.208.416.416.416h9.155a.447.447 0 0 0 .416-.416v-5.306c.104-.208-.104-.416-.416-.416Zm-.104 7.907h-17.686c-.208 0-.52.208-.624.416l-2.289 8.634-.104.416-2.704-9.258c-.104-.208-.312-.416-.625-.416h-6.866c-.208 0-.52.208-.624.416l-2.6 8.634-.105.416-.104-.208-1.04-4.265-1.144-4.265c-.104-.208-.312-.416-.624-.416H75.29v-7.49c0-.209-.312-.52-.624-.417l-8.739 2.705c-.312.104-.416.208-.416.416v4.682h-2.288a.447.447 0 0 0-.416.416v6.658c0 .208.208.416.416.416h2.288v8.114c0 5.722 3.121 8.427 8.843 8.427 2.393 0 4.681-.52 6.242-1.353v-6.866c0-.312-.312-.416-.52-.416-.936.416-1.665.52-2.497.52-1.56 0-2.393-.624-2.393-2.392v-5.93h4.994a.448.448 0 0 0 .416-.416v-5.618l6.554 21.743c.104.208.312.416.624.416h7.282c.208 0 .52-.208.624-.416l3.121-9.675 1.561 4.993 1.456 4.578c.104.208.312.416.624.416h7.283c.208 0 .52-.208.624-.416l6.658-21.847v21.847c0 .208.208.416.416.416h8.843a.447.447 0 0 0 .416-.416v-22.68c0-.311-.208-.52-.416-.52Zm11.651-7.907h-8.843a.447.447 0 0 0-.416.416v30.69c0 .208.208.416.416.416h8.843a.447.447 0 0 0 .416-.416v-30.69a.447.447 0 0 0-.416-.416Zm11.756 0h-9.155a.447.447 0 0 0-.416.416v5.306c0 .208.208.416.416.416h9.155a.447.447 0 0 0 .416-.416v-5.306c.104-.208-.104-.416-.416-.416Zm-.104 7.907h-8.843a.447.447 0 0 0-.416.416v22.783c0 .208.208.416.416.416h8.843a.447.447 0 0 0 .416-.416v-22.68c0-.311-.208-.52-.416-.52Z"/>
  <path fill="#F22F46" fill-rule="evenodd" d="M164.238 23.423c-7.802 0-13.316 5.722-13.316 12.38v.104c0 6.658 5.514 12.276 13.212 12.276 7.802 0 13.316-5.722 13.316-12.38V35.7c0-6.658-5.514-12.276-13.212-12.276Zm3.745 12.38c0 2.289-1.56 4.057-3.745 4.057s-3.849-1.872-3.849-4.16v-.105c0-2.289 1.56-4.057 3.745-4.057s3.849 1.872 3.849 4.265Z" clip-rule="evenodd"/>
  <path fill="#F22F46" d="M37.008 30.81a5.41 5.41 0 1 0 0-10.82 5.41 5.41 0 0 0 0 10.82Zm5.409 7.49a5.41 5.41 0 1 1-10.819 0 5.41 5.41 0 0 1 10.82 0Zm-18.309 5.41a5.41 5.41 0 1 0 0-10.82 5.41 5.41 0 0 0 0 10.82Zm5.41-18.31a5.41 5.41 0 1 1-10.82 0 5.41 5.41 0 0 1 10.82 0Z"/>
  <path fill="#F22F46" fill-rule="evenodd" d="M30.558 5.842C16.202 5.842 4.55 17.494 4.55 31.85s11.652 26.008 26.008 26.008S56.566 46.206 56.566 31.85 44.914 5.842 30.558 5.842Zm0 45.15A19.091 19.091 0 0 1 11.416 31.85a19.091 19.091 0 0 1 19.142-19.142A19.091 19.091 0 0 1 49.7 31.85a19.091 19.091 0 0 1-19.142 19.142Z" clip-rule="evenodd"/>
</svg>
