<svg xmlns="http://www.w3.org/2000/svg" width="171" height="68" fill="none" viewBox="0 0 171 68">
  <path fill="#fff" d="M28.512 31.169h-9.917V34h9.917v11.335H12.928L7.262 39.67V9.917h11.333v9.917h9.917v11.335Zm42.5 14.166h-34l-5.667-5.667V19.833H42.68V34h2.833V19.833h11.333V34h2.834V19.833h11.333v25.502Zm14.166-25.502H73.845v25.5h11.333v-25.5Zm0-9.916H73.845V17h11.333V9.917Zm24.084 21.252h-9.917V34h9.917v11.335H93.678l-5.666-5.666V9.917h11.333v9.917h9.917v11.335Zm25.5-.001h-11.333V34h11.333v11.335h-17l-5.667-5.667V25.501l5.667-5.668h17v11.335Zm28.333 14.167h-11.333V31.168h-2.833v14.167h-11.334V9.917h11.334v9.917h8.5l5.666 5.668v19.833Z"/>
  <path fill="#9146FF" d="M158.845 17h-7.083V7.083h-15.554L129.055 17h-12.71l-4.25 4.25V17h-9.917V7.083H71.012V17H27.166l-7.154-9.917H4.428v34l19.834 19.834h19.833V55.25l5.667 5.667h38.25V55.25l5.666 5.667h18.417V55.25l5.667 5.667h35.416l12.75-12.75V24.083L158.845 17ZM28.512 31.167h-9.917V34h9.917v11.333H12.928l-5.666-5.666V9.917h11.333v9.916h9.917v11.334Zm42.5 14.166h-34l-5.667-5.666V19.833H42.68V34h2.833V19.833h11.333V34h2.834V19.833h11.333v25.5Zm14.166 0H73.846v-25.5H85.18v25.5Zm0-28.333H73.846V9.917H85.18V17Zm24.084 14.167h-9.917V34h9.917v11.333H93.678l-5.666-5.666V9.917h11.333v9.916h9.917v11.334Zm25.5 0h-11.334V34h11.334v11.333h-17l-5.667-5.666V25.5l5.667-5.667h17v11.334Zm28.333 14.166h-11.333V31.167h-2.834v14.166h-11.333V9.917h11.333v9.916h8.5l5.667 5.667v19.833Z"/>
</svg>
