<svg xmlns="http://www.w3.org/2000/svg" width="206" height="57" fill="none" viewBox="0 0 206 57">
  <path fill="#FF5036" fill-rule="evenodd" d="M30.966 51.97c12.928 0 23.409-10.48 23.409-23.409 0-12.928-10.48-23.409-23.41-23.409-12.928 0-23.408 10.48-23.408 23.41 0 12.928 10.48 23.408 23.409 23.408Z" clip-rule="evenodd"/>
  <path fill="#fff" fill-rule="evenodd" d="M30.956 26.966s-.301-.498-.96-1.353a36.406 36.406 0 0 0-3.1-3.493 8.097 8.097 0 0 0-5.732-2.379 8.097 8.097 0 0 0-5.738 2.365 8.006 8.006 0 0 0-2.354 5.602 8.303 8.303 0 0 0 2.175 5.71c4.219 4.617 9.964 6.925 15.71 6.925 5.745 0 11.49-2.308 15.709-6.925a8.303 8.303 0 0 0 2.176-5.71 8.007 8.007 0 0 0-2.355-5.602 8.097 8.097 0 0 0-5.738-2.365 8.097 8.097 0 0 0-5.733 2.379 36.414 36.414 0 0 0-3.1 3.493c-.658.855-.96 1.353-.96 1.353Z" clip-rule="evenodd"/>
  <path fill="#000" fill-rule="evenodd" d="M17.833 27.863a3.2 3.2 0 1 0 6.4 0 3.2 3.2 0 0 0-6.4 0Zm13.123-.897a6.336 6.336 0 0 0 0 8.961 6.336 6.336 0 0 0 0-8.961Zm13.136.897a3.2 3.2 0 1 1-6.401 0 3.2 3.2 0 0 1 6.4 0Z" clip-rule="evenodd"/>
  <path fill="#FF5036" fill-rule="evenodd" d="M140.147 21.114h-11.909a.38.38 0 0 0-.38.38v2.058c0 .21.17.38.38.38h7.412l-8.836 14.206a.379.379 0 0 0 .321.58h12.962a.38.38 0 0 0 .379-.38V36.27a.38.38 0 0 0-.379-.379H131.7l8.769-14.198a.379.379 0 0 0-.322-.579Zm-53.489 6.409c.19-2.182 2.562-3.89 5.281-3.89 2.503 0 4.948 1.093 5.335 3.936a.38.38 0 0 1-.377.428h-2.37a.372.372 0 0 1-.362-.267c-.247-.916-1.173-1.314-2.1-1.314-.821 0-1.77.317-2.086.823-.253.41-.285.885-.127 1.328.19.569 1.012.917 1.803 1.138l2.277.57c3.194.79 3.858 2.814 3.858 4.3 0 2.846-2.499 4.459-5.882 4.459-2.626 0-5.338-1.584-5.635-4.422a.38.38 0 0 1 .379-.416h2.285c.178 0 .326.125.37.297.275 1.1 1.284 1.821 2.854 1.821 1.486 0 2.624-.664 2.624-1.77 0-.95-.98-1.487-2.055-1.74l-1.993-.474c-3.13-.854-4.268-2.435-4.079-4.807Zm24.624 2.593c-.316-2.308-1.992-3.636-4.206-3.636-2.277 0-4.047 1.36-4.364 3.636h8.57Zm2.806 2.372h-11.376c.317 2.277 2.151 3.7 4.523 3.7 1.531 0 3.034-.658 3.847-1.847a.38.38 0 0 1 .471-.134c.629.284 1.326.58 1.976.865a.38.38 0 0 1 .177.54c-1.366 2.335-3.984 3.422-6.63 3.422-4.206 0-7.59-3.067-7.59-7.748 0-4.68 3.384-7.653 7.59-7.653 4.206 0 7.4 2.973 7.4 7.653 0 .234 0 .555-.009.835a.38.38 0 0 1-.379.367Zm39.425-1.206c0-2.905-2.162-4.762-4.797-4.762-2.6 0-4.762 1.857-4.762 4.762 0 2.972 2.162 4.897 4.762 4.897 2.635 0 4.797-1.925 4.797-4.897Zm-12.48.004c0-4.68 3.51-7.653 7.685-7.653 4.206 0 7.747 2.973 7.747 7.653s-3.541 7.748-7.747 7.748c-4.175 0-7.685-3.067-7.685-7.748Zm29.426-.004c0-2.905-2.161-4.762-4.796-4.762-2.6 0-4.762 1.857-4.762 4.762 0 2.972 2.162 4.897 4.762 4.897 2.635 0 4.796-1.925 4.796-4.897Zm-12.479.004c0-4.68 3.51-7.653 7.684-7.653 4.206 0 7.748 2.973 7.748 7.653s-3.542 7.748-7.748 7.748c-4.174 0-7.684-3.067-7.684-7.748Zm33.751-7.652a6.608 6.608 0 0 0-4.909 2.276 6.608 6.608 0 0 0-4.909-2.276c-3.692-.048-6.713 3.055-6.713 6.747v7.958c0 .21.17.379.379.379h2.499c.21 0 .38-.17.38-.38v-7.991c0-1.888 1.544-3.491 3.432-3.456a3.368 3.368 0 0 1 3.303 3.367v8.08c0 .21.17.38.379.38h2.499c.21 0 .379-.17.379-.38v-7.991c0-1.888 1.545-3.491 3.433-3.456a3.368 3.368 0 0 1 3.303 3.367v8.08c0 .21.17.38.379.38h2.499c.21 0 .379-.17.379-.38v-7.957c0-3.692-3.02-6.795-6.712-6.747Zm-66.18.007c-1.854-.084-3.916.486-5.126 2.729v-2.041a.38.38 0 0 0-.379-.38h-2.499c-.21 0-.379.17-.379.38v14.01c0 .209.169.379.379.379h2.499a.38.38 0 0 0 .379-.38v-5.42c0-4.532 2.475-6.388 5.126-6.495a.378.378 0 0 0 .362-.378v-2.024a.38.38 0 0 0-.362-.38Zm-44.487-2.527h2.528a.38.38 0 0 1 .379.38V31.75c0 4.217-2.876 7.284-7.394 7.284-4.519 0-7.394-3.067-7.394-7.284V21.494c0-.21.17-.38.379-.38h2.528c.21 0 .379.17.379.38v10.245c0 2.26 1.798 4.155 4.059 4.173 2.743.022 4.156-1.818 4.156-4.573v-9.845c0-.21.17-.38.38-.38Z" clip-rule="evenodd"/>
</svg>
