<svg xmlns="http://www.w3.org/2000/svg" width="224" height="53" fill="none" viewBox="0 0 224 53">
  <path fill="#E42B25" fill-rule="evenodd" d="M46.625 7.72c1.219-1.772 3.1-2.942 5.05-2.942 2.086.012 3.224 1.52 3.224 4.391 0 10.82-11.793 25.984-22.586 25.984-2.646 0-4.38-.968-5.454-2.312-2.508 1.445-5.114 2.312-7.624 2.312-4.423 0-6.463-2.728-6.5-6.506-.058-5.775 4.168-12.602 8.355-17.44-2.533 1.41-4.815 1.088-7.02.777-2.042-.287-4.02-.566-6.073.545 2.037-6.588 5.594-6.356 10.201-6.056 2.579.168 5.486.358 8.64-.614.192.984-.98 2.864-2.481 5.272-2.35 3.771-5.51 8.839-5.51 13.795 0 3.888 2.165 5.824 6.521 4.275-1.35-8.178 5.937-19.512 12.847-19.517 2.38 0 3.397 1.32 3.397 3.4 0 4.07-4.07 10.97-9.7 16.042.702.743 1.765 1.104 3.013 1.104 10.403 0 17.458-18.755 11.7-22.51Zm-9.398 5.919c-2.094 0-6.223 6.144-6.315 11.989 4.093-3.814 7.063-9.161 7.063-11.16 0-.428-.13-.83-.748-.83Z" clip-rule="evenodd"/>
  <path fill="#E42B25" fill-rule="evenodd" d="M207.127 22.648c.108 2.501.227 5.255-1.582 7.521l.003.014.907.082c3.644.33 7.246.656 9.548-.55-.098 3.617-3.16 5.802-7.511 5.802-2.88 0-5.358-.718-7.75-1.41l-.252-.073a10.175 10.175 0 0 1-4.441 1.133c-1.51 0-2.582-.696-2.582-1.97-.003-2.08 2.464-3.34 6.875-3.236 2.265-1.978 1.772-4.19 1.288-6.36-.141-.63-.28-1.255-.352-1.87-6.162 7.173-13.32 13.436-19.413 13.436-2.002 0-3.221-1.02-3.221-2.99 0-2.126 1.444-5.408 4.911-9.721-4.221 2.53-8.442 6.375-11.695 12.315a8.714 8.714 0 0 1-2.559.396c-4.588 0-1.326-5.027.866-8.36-4.856 4.315-10.613 8.36-16.969 8.36-3.129 0-5.079-1.234-5.891-2.967-3.66 1.522-8.378 2.967-12.642 2.967-2.86 0-5.084-.84-6.15-2.476-3.649 1.61-6.734 2.476-9.19 2.476-2.814 0-4.408-1.156-4.408-3.25 0-2.534 1.747-5.137 5.535-9.161a13.418 13.418 0 0 1-3.611.482c-4.426 5.986-10.167 10.17-15.098 12.383-3.984 6.04-10.34 12.234-15.54 12.234-2.123 0-3.81-1.219-3.81-3.241 0-4.79 7.138-7.433 14.055-9.878a40.744 40.744 0 0 0 1.765-4.154c-3.219 3.036-6.14 4.585-8.09 4.585-1.733-.003-2.888-1.185-2.888-3.357.001-.68.077-1.358.225-2.022-2.869 3.024-6.538 5.367-9.513 5.367-2.866 0-4.325-1.467-4.888-3.2-3.38 1.944-6.581 3.2-9.077 3.2-3.071 0-3.94-1.707-3.21-5.463-3.787 3.912-7.381 5.463-9.62 5.463-1.956-.002-2.88-1.52-2.92-3.36-.148-6.214 8.452-15.93 18.899-15.93 7.202 0 4.53 4.375.667 6.357-2.664 3.856-3.649 11.188 5.041 6.534C73.88 18.238 86.013 6.393 91.213 6.393c2.198 0 3.134 1.066 3.163 2.638.084 4.342-7.54 13.06-15.739 19.226 1.075 4.405 7.119 1.164 12.085-4.64 3.802-4.449 9.891-7.754 15.38-7.754 6.711 0 5.021 4.001 1.69 5.966-1.378 4.038-2.371 6.901-3.651 9.56a32.236 32.236 0 0 0 9.981-8.93 2.572 2.572 0 0 1-.985-2.188c0-2.314 1.93-5.156 4.463-5.156 1.719 0 2.311 1.375 1.751 3.126 2.19 0 5.2-.864 7.222-1.907a1.981 1.981 0 0 1 .962 1.782c0 1.267-1.283 2.667-2.696 4.209-1.732 1.89-3.659 3.992-3.659 6.324 0 2.569 3.53 2.15 6.644 1.19.275-6.938 8.531-13.93 15.046-13.93 2.516 0 4.31.954 4.31 3.094 0 3.456-5.714 8.136-12.564 10.935 1.43 1.551 6.067 1.95 12.29-.289.39-6.879 8.563-13.751 15.022-13.751 2.514 0 4.311.953 4.311 3.09 0 3.456-5.729 8.139-12.588 10.941.587.685 1.517 1.156 2.912 1.156 5.385 0 13.778-6.422 20.316-15.115 1.69-.032 3.157.376 3.157 1.782 0 .902-.834 2.322-1.881 4.104-.502.855-1.054 1.793-1.586 2.798 4.579-4.316 10.782-9.042 13.766-9.042 1.19 0 2.158.563 2.158 1.407a1.649 1.649 0 0 1-.5 1.095c-2.718 2.888-6.251 7.008-6.251 9.822 0 .913.407 1.444 1.563 1.444 3.472 0 9.542-5.81 15.389-13.352a5.404 5.404 0 0 1 4.105-2.132c1.656 0 2.953.826 3.08 2.207-2.99 1.05-2.878 3.625-2.752 6.545ZM88.67 11.176a.63.63 0 0 0-.291-.025c-2.441 0-8.318 9.19-9.63 13.786 5.19-4.22 10.346-10.909 10.346-13.067a.63.63 0 0 0-.425-.694Zm-25.413 8.668c-4.533 0-10.193 4.307-10.193 7.947 0 3.993 7.223 1.159 12.712-7.468a6.214 6.214 0 0 0-2.52-.479Zm23.036 24.53c0 .537.326.791.832.791h.009c1.961 0 4.96-2.99 7.537-7.202-6.067 2.184-8.378 5.238-8.378 6.41Zm15.935-24.516c-4.431 0-10.163 4.178-10.163 7.933 0 4.143 7.511.832 12.706-7.468a6.807 6.807 0 0 0-2.543-.465Zm39.865.509c0-.665-.428-.954-1.089-.954-2.401 0-7.205 4.883-7.205 8.043 4.593-2.218 8.294-5.338 8.294-7.09Zm17.96-.962c-2.403 0-7.205 4.882-7.205 8.043 4.594-2.22 8.294-5.34 8.294-7.09 0-.664-.43-.953-1.089-.953Z" clip-rule="evenodd"/>
</svg>
