<svg xmlns="http://www.w3.org/2000/svg" width="116" height="76" fill="none" viewBox="0 0 116 76">
  <path fill="#036CB5" fill-rule="evenodd" d="M36.353 55.174c.688-.358 1.858-.827 3.097-.827 2.844 0 4.38 1.92 4.38 5.494 0 4.174-2.063 6.206-5.39 6.206-1.215 0-3.096-.38-4.473-1.095V49.37l2.386-.559v6.364Zm-.022 8.953c.733.312 1.536.357 2.11.357 1.697 0 2.982-1.027 2.982-4.643 0-2.837-1.055-3.752-2.592-3.752-.918 0-1.583.246-2.5.737v7.3ZM11.9 54.637h.16l3.12 11.142h2.476l3.717-15.83h-2.684l-2.34 11.811h-.16L13 49.948h-2.04L7.977 61.76h-.16l-2.57-11.812H2.678L6.395 65.78H8.87l3.03-11.143ZM31.537 65.02v-1.697c-1.261.737-2.408 1.16-3.646 1.16-2.363 0-3.487-1.183-3.487-3.862h7.477v-.826c0-3.639-1.766-5.448-4.633-5.448-3.44 0-5.207 2.457-5.207 5.85 0 3.528 1.583 5.85 5.436 5.85 1.652 0 3.028-.446 4.06-1.027Zm-1.835-5.894h-5.251c.251-2.233 1.329-3.282 2.729-3.282 1.238 0 2.409.937 2.522 3.282Zm24.68 3.304h-.114l-5.139-12.482h-2.775V65.78h2.065V54.571h.206l4.68 11.208h1.467l4.68-11.476h.207v11.476h2.477V49.95H59.29l-4.908 12.48Zm10.277-2.233c0-3.908 2.202-5.85 5.23-5.85 3.028 0 5.23 1.942 5.23 5.85 0 3.818-2.087 5.85-5.23 5.85-3.143 0-5.23-2.032-5.23-5.85Zm8.051 0c0-3.014-1.262-4.286-2.821-4.286-1.514 0-2.822 1.272-2.822 4.286 0 3.06 1.194 4.287 2.822 4.287 1.628 0 2.821-1.227 2.821-4.287Zm10.436-5.85c-2.637 0-4.817 1.05-5.849 1.653v9.78h2.386v-8.843c.711-.4 1.881-.803 2.8-.803 1.169 0 2.062.312 2.062 2.076v7.57h2.386v-8.084c0-2.3-1.031-3.349-3.785-3.349Zm15.414 8.976v1.697c-1.032.58-2.407 1.028-4.06 1.028-3.853 0-5.436-2.323-5.436-5.851 0-3.393 1.767-5.85 5.207-5.85 2.868 0 4.635 1.81 4.635 5.448v.826h-7.478c0 2.679 1.124 3.863 3.486 3.863 1.239 0 2.385-.424 3.646-1.161Zm-7.086-4.197h5.252c-.114-2.345-1.285-3.282-2.523-3.282-1.4 0-2.477 1.05-2.73 3.282Zm18.809-4.4h-2.455l-2.616 8.217h-.136l-2.936-8.216h-2.523l4.404 11.163c-.552 1.652-1.514 2.859-3.074 2.859v1.83c2.637 0 4.036-1.607 5.184-4.689l4.152-11.163ZM54.943 3.149c3.156 0 6.146.716 8.808 1.986.419.193.836.405 1.254.64l-1.851 1.612-2.78-2.798-4.694 4.074-2.787-2.961-8.742 7.67 5.604 6.012-2.202 1.886 5.52 6.021-2.19 1.881 7.889 8.547 4.682-4.196 4.049 4.496a21.533 21.533 0 0 1-2.65 1.713 20.371 20.371 0 0 1-9.91 2.555c-11.073 0-20.104-8.791-20.104-19.568 0-10.78 9.03-19.57 20.104-19.57Zm-3.664 18.332 4.78-4.19 4.305 4.654-4.78 4.19-4.305-4.654Zm8.18 3.852-4.78 4.19 4.305 4.654 4.78-4.19-4.305-4.654ZM47.858 13.535l4.78-4.19 4.304 4.653-4.78 4.19-4.304-4.653Zm12.358-5.397-3.585 3.142 3.228 3.49 3.585-3.142-3.228-3.49Zm2.785 17.535 3.587-3.143 3.228 3.49-3.586 3.143-3.229-3.49Zm6.739 3.906-3.585 3.143 3.228 3.49 3.586-3.143-3.229-3.49ZM67.6 16.566l2.39-2.095 2.151 2.326-2.389 2.095-2.153-2.326Zm-.664-9.008-2.39 2.094 2.151 2.327 2.39-2.094-2.151-2.327Zm3.72 15.92 2.39-2.094 2.152 2.326-2.39 2.095-2.153-2.326Zm-7.136-8.323-3.585 3.143 3.23 3.49 3.584-3.143-3.228-3.49Z" clip-rule="evenodd"/>
</svg>
