<svg xmlns="http://www.w3.org/2000/svg" width="235" height="43" fill="none" viewBox="0 0 235 43">
  <path fill="#000" d="M27.894 11.683s-.68-1.381-.91-1.84c-1.544-3.06-1.511-3.223-3.071-3.428-.437-.057-.663-.113-.663-.33v-.967l.131-.095c2.82-.004 9.092-.004 9.092-.004l.24.08v.964c0 .22-.157.334-.477.334l-.659.094c-1.666.13-1.393.81-.287 3.015l10.508 21.499.36.098 9.328-22.14c.324-.891.274-1.524-.142-1.896-.419-.363-.713-.578-1.794-.622l-.876-.045a.514.514 0 0 1-.307-.11.319.319 0 0 1-.146-.27V5.1l.133-.094h10.54l.107.094v.922c0 .25-.143.376-.424.376-1.38.06-2.404.36-3.067.895-.665.539-1.183 1.281-1.555 2.246 0 0-8.579 19.636-11.514 26.162-1.124 2.14-2.23 1.944-3.2-.06-2.053-4.228-7.834-17.053-7.834-17.053l-3.513-6.904Z"/>
  <path fill="#000" d="M44.73 5.008s-5.929-.018-8.568 0l-.131.095v.918c0 .113.048.202.144.27.098.072.198.11.305.11l.424.046c1.08.044 1.575.327 1.723.505.258.314.385.655-.238 2.015L27.32 31.044l-.29-.076S19.101 14.252 16.806 8.66c-.239-.58-.346-1.009-.346-1.273 0-.568.512-.876 1.538-.918l1.195-.05c.317 0 .478-.122.478-.376v-.918l-.107-.094s-9.496-.012-11.458 0L8 5.125v.964c0 .174.22.282.663.33 1.205.065 1.997.257 2.378.577.38.324.781 1.142 1.314 2.418 2.882 6.922 9.005 19.275 11.987 26.31.859 1.922 1.938 2.22 3.248-.059 2.27-4.209 8.422-17.061 8.422-17.061l4.846-9.063a41.866 41.866 0 0 1 1.384-2.208c.506-.727.789-.864 2.17-.93.28.001.423-.125.423-.378v-.919l-.105-.098Zm18.026 28.658c0 1.059.481 1.685 2.021 1.829l1.011.098c.144 0 .289.094.289.287v1.01l-.048.099s-3.658-.098-5.15-.098c-1.347 0-5.1.098-5.1.098l-.097-.098V35.88c0-.193.144-.287.337-.287l.962-.098c1.588-.144 2.07-.914 2.07-1.829V17.641c0-1.057-.58-1.35-2.07-1.49l-.962-.1c-.193 0-.337-.044-.337-.193V14.75l.048-.097s3.802.097 5.294.097c1.299 0 5.005-.097 5.005-.097l.048.097v1.058c0 .145-.096.241-.289.241l-1.01.098c-1.493.143-2.022.53-2.022 1.494v16.025Zm14.203 0c0 1.059.625 1.588 2.02 1.829l.53.098c.144.046.289.094.289.287v1.01l-.048.099s-3.032-.098-4.476-.098c-1.347 0-5.293.098-5.293.098l-.097-.098V35.88c0-.193.145-.287.337-.287l.963-.098c1.443-.144 2.069-.914 2.069-1.829V17.641c0-1.057-.53-1.35-2.07-1.49l-.962-.1c-.192 0-.337-.044-.337-.193V14.75l.048-.097s3.947.097 5.438.097c1.35 0 4.38-.097 4.38-.097l.048.097v1.058c0 .145-.096.193-.289.241l-.53.098c-1.491.287-2.02.53-2.02 1.494v7.267c1.588 0 2.502-.817 4.62-3.08 1.924-2.12 3.416-3.897 3.416-4.813 0-.387-.433-.818-1.395-.964-.193-.046-.289-.096-.289-.24V14.7l.048-.046s3.898.097 5.294.097c1.251 0 3.368-.097 3.368-.097l.145.047v1.108c0 .145-.145.24-.385.24-1.877.145-3.176.241-4.909 2.215l-4.138 4.762c-.819.868-1.107 1.396-1.107 1.782 0 .29.192.528.433.817l7.266 8.758c.578.672 1.733.963 2.695 1.154l.241.046c.144.048.337.144.337.288v1.011l-.144.048s-2.551-.048-3.898-.048c-1.204 0-2.936.048-2.936.048l-.048-.048v-.577c0-.628-.048-1.153-.722-1.923l-5.342-6.644c-.722-.964-1.492-1.2-2.55-1.2v7.127Zm25.944 0c0 1.059.481 1.685 2.021 1.829l1.011.098c.144 0 .288.094.288.287v1.01l-.048.099s-3.657-.098-5.149-.098c-1.347 0-5.101.098-5.101.098l-.096-.098V35.88c0-.193.144-.287.337-.287l.962-.098c1.588-.144 2.07-.914 2.07-1.829V17.641c0-1.057-.578-1.35-2.07-1.49l-.963-.1c-.192 0-.336-.044-.336-.193V14.75l.048-.097s3.802.097 5.293.097c1.3 0 5.005-.097 5.005-.097l.048.097v1.058c0 .145-.096.241-.288.241l-1.011.098c-1.492.143-2.021.53-2.021 1.494v16.025Zm10.398-15.931c0-1.491-.625-1.54-2.887-1.684-.289 0-.337-.142-.337-.24v-1.107l.096-.049c.722 0 3.562.097 4.957.097 1.348 0 3.273-.097 5.053-.097 6.83 0 8.081 3.367 8.081 5.873 0 2.89-1.395 7.412-8.225 7.412-1.203 0-2.166-.099-3.034-.482v6.445c0 1.059.578 1.302 2.12 1.54l.964.145c.192.048.337.098.337.288v1.011l-.047.096s-3.85-.096-5.341-.096c-1.348 0-4.957.096-4.957.096l-.048-.096v-1.01c0-.193.096-.241.288-.29l1.011-.144c1.492-.192 1.973-.625 1.973-1.54l-.004-16.168Zm3.706 8.376c.963.387 2.166.433 3.128.433 2.889 0 4.279-1.736 4.279-5.438 0-4.139-1.876-5.053-4.52-5.053-2.311 0-2.889.433-2.889 1.684l.002 8.374Zm19.546 10.779c-1.444 0-4.763.099-4.763.099l-.05-.098v-1.06c0-.094.05-.238.289-.238l1.109-.098c1.493-.144 1.927-1.107 1.927-2.067V17.547c0-1.111-.58-1.302-1.927-1.396l-1.109-.1c-.289-.044-.289-.143-.289-.193V14.75l.05-.097s3.752.097 5.196.097h7.074c1.444 0 4.862-.097 4.862-.097l.099.097c.046 2.069.383 3.95.721 5.776l-1.201.193c-.527-1.783-1.442-4.331-4.522-4.331h-3.85c-.914 0-1.395.337-1.395 1.153v6.98h3.607c1.35 0 1.685-.578 1.879-1.54l.287-1.01c0-.145.098-.243.289-.243h.816c.098 0 .098.05.098.144-.098 1.059-.289 2.408-.289 3.563 0 1.201.193 2.214.289 3.32l-.098.099h-.816c-.239 0-.339-.098-.339-.243l-.241-1.057c-.192-.964-.625-1.493-1.88-1.493h-3.606v7.365c0 .912.526 1.826 1.396 1.826h4.571c2.455 0 3.804-1.54 4.38-4.044l1.201.145-.964 5.532-.097.096s-2.839-.096-4.283-.096l-8.421.006Zm18.098-1.297 1.107-.098c1.446-.144 1.927-.577 1.927-2.067V17.547c0-1.255-.341-1.255-1.927-1.396l-1.055-.1c-.192 0-.34-.096-.34-.24v-1.06l.046-.096s4.237.097 5.105.097c.91 0 5.101-.097 6.352-.097 8.037 0 11.985 5.005 11.985 11.406 0 8.423-5.969 10.922-11.309 10.922-3.85 0-5.533-.096-7.025-.096-1.445 0-5.103.096-5.103.096l-.048-.096v-1.01a.273.273 0 0 1 .285-.284Zm10.734 0c5.292 0 8.279-1.971 8.279-8.712 0-5.003-1.109-10.83-9.194-10.83-1.876 0-3.079.289-3.079 1.496v15.88c0 1.344.335 2.166 3.994 2.166Zm23.827-1.927c0 1.059.481 1.685 2.021 1.829l1.011.098c.144 0 .289.094.289.287v1.01l-.049.099s-3.657-.098-5.147-.098c-1.349 0-5.101.098-5.101.098l-.098-.098V35.88c0-.193.144-.287.337-.287l.964-.098c1.586-.144 2.069-.914 2.069-1.829V17.641c0-1.057-.579-1.35-2.069-1.49l-.964-.1c-.193 0-.337-.044-.337-.193V14.75l.048-.097s3.802.097 5.29.097c1.299 0 5.007-.097 5.007-.097l.046.097v1.058c0 .145-.098.241-.289.241l-1.011.098c-1.491.143-2.021.53-2.021 1.494l.004 16.025Zm14.826 1.829 1.396.098a.38.38 0 0 1 .385.383v.915l-.097.098s-5.245-.098-6.4-.098c-1.253 0-4.333.098-4.333.098l-.098-.098v-.915c0-.239.144-.383.386-.383 2.12-.144 3.319-.531 4.667-3.611l10.681-25.027c.528-1.25.915-1.734 1.638-1.734.672 0 .915.483 1.298 1.446l9.865 26.083c.676 1.879 1.639 2.599 3.564 2.791l.529.047c.24 0 .481.144.481.386v.913l-.144.096s-3.706-.096-5.583-.096c-1.684 0-6.402.096-6.402.096l-.046-.096v-.913c0-.242.096-.386.34-.386l1.348-.097c1.827-.142 2.504-.724 2.021-2.07l-2.936-8.134h-10.009c-1.155 0-1.444.193-1.683.816l-2.793 6.98c-.481 1.207.144 2.268 1.925 2.412Zm11.79-12.227L211.16 10.42h-.096l-4.812 12.224c-.193.483.142.626 1.201.626h8.375v-.002Z"/>
</svg>
