<svg xmlns="http://www.w3.org/2000/svg" width="182" height="65" fill="none" viewBox="0 0 182 65">
  <path fill="#5F01D1" d="M4.55 20.024h10.291l5.974 15.306 6.062-15.306h10.03l-15.089 36.28H11.745l4.143-9.593L4.55 20.024Zm42.778-.61c-7.718 0-12.602 6.933-12.602 13.822 0 7.763 5.363 13.911 12.471 13.911 5.32 0 7.326-3.227 7.326-3.227v2.53h8.983V20.023h-8.983v2.398c-.043 0-2.267-3.009-7.195-3.009Zm1.919 8.502c3.575 0 5.407 2.835 5.407 5.364 0 2.747-1.962 5.45-5.407 5.45-2.835 0-5.407-2.31-5.407-5.32 0-3.051 2.05-5.493 5.407-5.493ZM66.559 46.45V8.337h9.375V22.51s2.224-3.096 6.89-3.096c5.712 0 9.07 4.274 9.07 10.335V46.45h-9.332V32.016c0-2.05-.96-4.056-3.183-4.056-2.268 0-3.445 2.006-3.445 4.056v14.433h-9.375Zm41.339-27.036c-8.852 0-14.129 6.716-14.129 13.954 0 8.198 6.367 13.824 14.172 13.824 7.544 0 14.129-5.364 14.129-13.693 0-9.114-6.934-14.085-14.172-14.085Zm.087 8.547c3.139 0 5.276 2.616 5.276 5.364 0 2.355-2.006 5.276-5.276 5.276-3.009 0-5.233-2.398-5.233-5.32 0-2.747 1.831-5.32 5.233-5.32Zm29.696-8.547c-8.852 0-14.129 6.716-14.129 13.954 0 8.198 6.367 13.824 14.172 13.824 7.544 0 14.129-5.364 14.129-13.693 0-9.114-6.89-14.085-14.172-14.085Zm.087 8.547c3.14 0 5.276 2.616 5.276 5.364 0 2.355-2.005 5.276-5.276 5.276-3.009 0-5.233-2.398-5.233-5.32 0-2.747 1.875-5.32 5.233-5.32Zm21.498 6.585a6.235 6.235 0 0 1 6.236 6.235 6.235 6.235 0 0 1-6.236 6.236 6.235 6.235 0 0 1-6.236-6.236 6.235 6.235 0 0 1 6.236-6.235Zm8.285-2.268h-11.207l9.943-23.94h11.163l-9.899 23.94Z"/>
</svg>
