<svg width="32" height="32" viewBox="0 0 32 32" fill="none" xmlns="http://www.w3.org/2000/svg"><g id="Icon-Printer"><g clip-path="url(#clip0_12_298)"><g id="size=md (32px)"><g id="Printer"><path id="Vector" d="M8 10V5H24V10" stroke="#101828" stroke-width="2" stroke-linecap="round" stroke-linejoin="round"/><path id="Vector_2" d="M24 19H8V27.5H24V19Z" stroke="#101828" stroke-width="2" stroke-linecap="round" stroke-linejoin="round"/><path id="Vector_3" d="M8 22H3.5V12C3.5 10.9 4.475 10 5.6625 10H26.3375C27.525 10 28.5 10.9 28.5 12V22H24" stroke="#101828" stroke-width="2" stroke-linecap="round" stroke-linejoin="round"/><path id="Vector_4" d="M23.5 16C24.3284 16 25 15.3284 25 14.5C25 13.6716 24.3284 13 23.5 13C22.6716 13 22 13.6716 22 14.5C22 15.3284 22.6716 16 23.5 16Z" fill="#101828"/></g></g></g><rect x="0.5" y="0.5" width="31" height="31" rx="4.5" stroke="#3D90E3" stroke-dasharray="10 5"/></g><defs><clipPath id="clip0_12_298"><rect width="32" height="32" rx="5" fill="white"/></clipPath></defs></svg>