<svg width="32" height="32" viewBox="0 0 32 32" fill="none" xmlns="http://www.w3.org/2000/svg"><g id="Icon-Notepad"><g clip-path="url(#clip0_12_418)"><g id="size=md (32px)"><g id="Notepad"><path id="Vector" d="M12 16H20" stroke="#101828" stroke-width="2" stroke-linecap="round" stroke-linejoin="round"/><path id="Vector_2" d="M12 20H20" stroke="#101828" stroke-width="2" stroke-linecap="round" stroke-linejoin="round"/><path id="Vector_3" d="M7 5H25C25.2652 5 25.5196 5.10536 25.7071 5.29289C25.8946 5.48043 26 5.73478 26 6V25C26 25.7956 25.6839 26.5587 25.1213 27.1213C24.5587 27.6839 23.7956 28 23 28H9C8.20435 28 7.44129 27.6839 6.87868 27.1213C6.31607 26.5587 6 25.7956 6 25V6C6 5.73478 6.10536 5.48043 6.29289 5.29289C6.48043 5.10536 6.73478 5 7 5V5Z" stroke="#101828" stroke-width="2" stroke-linecap="round" stroke-linejoin="round"/><path id="Vector_4" d="M10 3V7" stroke="#101828" stroke-width="2" stroke-linecap="round" stroke-linejoin="round"/><path id="Vector_5" d="M16 3V7" stroke="#101828" stroke-width="2" stroke-linecap="round" stroke-linejoin="round"/><path id="Vector_6" d="M22 3V7" stroke="#101828" stroke-width="2" stroke-linecap="round" stroke-linejoin="round"/></g></g></g><rect x="0.5" y="0.5" width="31" height="31" rx="4.5" stroke="#3D90E3" stroke-dasharray="10 5"/></g><defs><clipPath id="clip0_12_418"><rect width="32" height="32" rx="5" fill="white"/></clipPath></defs></svg>