<svg width="32" height="32" viewBox="0 0 32 32" fill="none" xmlns="http://www.w3.org/2000/svg"><g id="Icon-Archive"><g clip-path="url(#clip0_12_2112)"><g id="size=md (32px)"><g id="Archive"><path id="Vector" d="M28 7H4C3.44772 7 3 7.44772 3 8V11C3 11.5523 3.44772 12 4 12H28C28.5523 12 29 11.5523 29 11V8C29 7.44772 28.5523 7 28 7Z" stroke="#101828" stroke-width="2" stroke-linecap="round" stroke-linejoin="round"/><path id="Vector_2" d="M27 12V24C27 24.2652 26.8946 24.5196 26.7071 24.7071C26.5196 24.8946 26.2652 25 26 25H6C5.73478 25 5.48043 24.8946 5.29289 24.7071C5.10536 24.5196 5 24.2652 5 24V12" stroke="#101828" stroke-width="2" stroke-linecap="round" stroke-linejoin="round"/><path id="Vector_3" d="M13 17H19" stroke="#101828" stroke-width="2" stroke-linecap="round" stroke-linejoin="round"/></g></g></g><rect x="0.5" y="0.5" width="31" height="31" rx="4.5" stroke="#3D90E3" stroke-dasharray="10 5"/></g><defs><clipPath id="clip0_12_2112"><rect width="32" height="32" rx="5" fill="white"/></clipPath></defs></svg>