<svg width="48" height="48" viewBox="0 0 48 48" fill="none" xmlns="http://www.w3.org/2000/svg"><g id="appium-Icon"><g id="Group"><path id="Vector" d="M6.04148 22.7903C9.53096 30.8065 18.3853 32.1507 28.9529 25.3561C33.827 29.8673 35.0413 35.2154 30.9742 40.5988C28.8293 41.5011 26.4731 42 24.0001 42C14.059 42 6 33.9412 6 23.9999C6 23.5934 6.01491 23.1902 6.04148 22.7903ZM22.5029 19.3106C24.0786 12.7441 28.4786 8.97755 35.3951 10.0663C39.4269 13.3673 42.0002 18.3829 42.0002 24C42.0002 31.0868 37.9042 37.2158 31.9511 40.1518C37.359 32.4478 32.9397 24.3196 22.5029 19.3106ZM24.0001 6C27.8582 6 31.4323 7.2143 34.3624 9.28079C24.5255 8.13723 19.8802 16.3367 20.5291 27.6597C14.1374 29.6202 8.9303 28.1756 6.17854 21.4656C7.41056 12.7246 14.9194 6 24.0001 6Z" fill="#662D91"/></g></g></svg>