<svg width="48" height="48" viewBox="0 0 48 48" fill="none" xmlns="http://www.w3.org/2000/svg"><g id="auth0-Icon"><path id="Vector" d="M33.464 35.1232L29.85 23.9995L39.3103 17.1265H27.6165L24.0023 6.00322L24.0012 6.00021H35.6967L39.3118 17.1254L39.312 17.1252L39.315 17.1235C41.4143 23.5776 39.2521 30.9183 33.464 35.1232ZM14.5397 35.1232L14.5367 35.1253L23.9993 42L33.464 35.1234L24.0023 28.2485L14.5397 35.1232ZM8.69109 17.1237C6.4811 23.9272 9.04648 31.1362 14.5378 35.1245L14.5386 35.121L18.153 23.998L8.69495 17.1263H20.386L24.0004 6.003L24.0012 6H12.3051L8.69109 17.1237Z" fill="#EB5424"/></g></svg>