<svg width="48" height="48" viewBox="0 0 48 48" fill="none" xmlns="http://www.w3.org/2000/svg"><g id="aws-cloudwatch-Icon"><g id="Group"><path id="Vector" d="M39.9096 30.7724L24.0053 28.436L8.09033 30.7754L24.0012 36.6718L39.9096 30.7724Z" fill="#B7CA9D"/><path id="Vector_2" d="M11.2749 30.5L13.9634 31.3403L14.2084 31.0621V12.25L13.9634 11.9287L11.2749 12.9571V30.5Z" fill="#4B612C"/><path id="Vector_3" d="M23.4819 29.6684L13.9634 31.3403V11.9292L23.4819 14.0698V29.6684Z" fill="#759C3E"/><path id="Vector_4" d="M19.2378 32.958L15.5278 31.8144V7.85545L19.2378 6.00049L19.5624 6.3541V32.5625L19.2378 32.958Z" fill="#4B612C"/><path id="Vector_5" d="M31.9507 29.9756L19.2378 32.958V6L31.9507 10.9551V29.9756Z" fill="#759C3E"/><path id="Vector_6" d="M23.9956 36.4165L8.09033 30.7754V34.0473L23.9956 42V36.4165Z" fill="#4B612C"/><path id="Vector_7" d="M39.9096 34.0434L23.9956 42V36.4165L39.9096 30.7724V34.0434Z" fill="#759C3E"/><path id="Vector_8" d="M35.4399 25.3516H31.5835L20.5903 26.1006L24 26.7291L35.4399 25.3516Z" fill="#B7CA9D"/><path id="Vector_9" d="M20.5903 33.333L23.9985 34.3554L24.0965 34.2499L24.0937 26.5625L23.9956 26.4682L20.5903 26.1006V33.333Z" fill="#4B612C"/><path id="Vector_10" d="M35.4398 25.3516L23.9956 26.4677L23.9985 34.3554L35.4398 30.9111V25.3516Z" fill="#759C3E"/></g></g></svg>