<svg width="48" height="48" viewBox="0 0 48 48" fill="none" xmlns="http://www.w3.org/2000/svg"><g id="bluetooth-Icon"><g id="Group"><path id="bg" d="M24.1442 42C32.5168 42 38.2857 38.2656 38.2857 23.9993C38.2857 9.73366 32.5168 6 24.1442 6C15.7721 6 10 9.73428 10 23.9993C10 38.2657 15.7715 42 24.1442 42Z" fill="white"/><path id="vector" d="M25.693 14.8886L28.8634 17.8651L25.6949 20.8391L25.693 14.8886V14.8886ZM25.693 33.1089L28.8634 30.1331L25.6949 27.1584L25.693 33.1089V33.1089ZM22.308 23.9988L15.4545 17.548L17.441 15.6835L22.9006 20.8116V8.52247L32.83 17.8437L26.2739 23.9988L32.8312 30.1556L22.9014 39.477V27.187L17.4404 32.3158L15.4537 30.4502L22.308 23.9988V23.9988ZM24.1442 42C32.5168 42 38.2857 38.2656 38.2857 23.9993C38.2857 9.73366 32.5168 6 24.1442 6C15.7721 6 10 9.73428 10 23.9993C10 38.2657 15.7715 42 24.1442 42V42Z" fill="#0060A9"/></g></g></svg>