<svg width="48" height="48" viewBox="0 0 48 48" fill="none" xmlns="http://www.w3.org/2000/svg"><g id="dart-Icon"><g id="Group"><path id="Vector" d="M15.7999 15.8008L13.4731 13.474L13.483 30.2928L13.5108 31.0789C13.5224 31.4487 13.591 31.8661 13.7055 32.2987L32.142 38.7998L36.7506 36.7579L36.7523 36.7523L15.7999 15.8008Z" fill="#00D2B8"/><path id="Vector_2" d="M13.7051 32.2988L13.7062 32.2999C13.7051 32.2923 13.7012 32.2839 13.7012 32.276C13.7012 32.2839 13.7023 32.2912 13.7051 32.2988ZM36.7503 36.758L32.1417 38.7999L13.7062 32.2999C14.0584 33.651 14.838 35.1698 15.677 36.0003L21.6935 41.9825L35.0712 42L36.7519 36.7524L36.7503 36.758Z" fill="#55DDCA"/><path id="Vector_3" d="M6.30762 24.2974C5.71193 24.9333 6.0078 26.245 6.96687 27.2114L11.1038 31.3827L13.7054 32.2987C13.5909 31.8661 13.5223 31.4487 13.5107 31.0789L13.4829 30.2928L13.473 13.474L6.30762 24.2974Z" fill="#0081C6"/><path id="Vector_4" d="M32.2933 13.6901C31.8608 13.5795 31.4459 13.5112 31.0699 13.4994L30.2391 13.4707L13.4731 13.473L36.7545 36.7524H36.7565L38.8012 32.1393L32.2933 13.6901Z" fill="#0079B3"/><path id="Vector_5" d="M32.272 13.6855C32.281 13.6875 32.288 13.69 32.2939 13.6908L32.2931 13.69C32.288 13.6875 32.281 13.6875 32.272 13.6855ZM35.9912 15.6652C35.1464 14.8133 33.6476 14.039 32.2939 13.6908L38.8009 32.1392L36.7562 36.7523H36.7543L41.751 35.1565L41.7617 21.4573L35.9912 15.6652Z" fill="#00A4E4"/><path id="Vector_6" d="M31.3818 11.1043L27.2117 6.96484C26.2473 6.00943 24.935 5.71215 24.3007 6.30615L13.4731 13.473L30.2391 13.4707L31.0699 13.4994C31.4459 13.5112 31.8608 13.5796 32.2933 13.6901L31.3818 11.1043Z" fill="#00D2B8"/></g></g></svg>