<svg width="48" height="48" viewBox="0 0 48 48" fill="none" xmlns="http://www.w3.org/2000/svg"><g id="dropbox-alt-Icon"><rect width="48" height="48" rx="24" fill="#0F287F"/><path id="Dropbox" fill-rule="evenodd" clip-rule="evenodd" d="M39.9998 15.0722L33.491 20.2216L23.9998 14.4315L30.5866 9.00006L39.9998 15.0722ZM17.4132 9.00009L23.9998 14.4315L14.5089 20.2216L8.00003 15.0723L17.4132 9.00009ZM23.9999 26.0119L17.4132 31.4436L8 25.3714L14.5089 20.2216L23.9999 26.0119ZM23.9999 26.0119L33.491 20.2216L39.9998 25.3714L30.5866 31.4436L23.9999 26.0119ZM30.6253 32.5961L24.0192 27.1804L17.4132 32.5961L14.5863 30.7727V32.8169L24.0192 38.4055L33.4522 32.8169V30.7727L30.6253 32.5961Z" fill="#DAF8FE"/></g></svg>