<svg width="48" height="48" viewBox="0 0 48 48" fill="none" xmlns="http://www.w3.org/2000/svg"><g id="firefox-browser-Icon"><g id="Group"><path id="vector" d="M41.9178 17.4158C41.0778 15.3895 39.3753 13.2019 38.039 12.5109C39.1267 14.6485 39.7559 16.7925 39.9965 18.3923C39.9965 18.3923 39.9965 18.4036 40.0005 18.4246C37.8145 12.9624 34.107 10.7595 31.0794 5.96423C30.9257 5.72233 30.7729 5.48043 30.6232 5.2216C30.5387 5.07565 30.4703 4.94341 30.4108 4.81843C30.2853 4.57597 30.1884 4.31971 30.122 4.05483C30.1225 4.04225 30.1183 4.02992 30.1103 4.02024C30.1023 4.01055 30.091 4.0042 30.0785 4.00242C30.0667 3.99919 30.0542 3.99919 30.0423 4.00242C30.0391 4.00388 30.0361 4.00578 30.0335 4.00806C30.0286 4.00806 30.0238 4.0137 30.019 4.01532L30.027 4.00483C25.1698 6.85604 23.5221 12.1303 23.3708 14.7694C21.4299 14.9025 19.574 15.6187 18.0453 16.8248C17.8856 16.6894 17.7185 16.5629 17.5449 16.4458C17.1044 14.9003 17.0858 13.2646 17.491 11.7094C15.5045 12.6165 13.9597 14.0478 12.8365 15.3145H12.8277C12.0609 14.3413 12.1148 11.1312 12.1583 10.4612C12.1494 10.4192 11.587 10.7539 11.5146 10.8047C10.838 11.2884 10.2056 11.8313 9.6247 12.427C8.96366 13.0987 8.35975 13.8245 7.81924 14.5969C6.57569 16.3631 5.69378 18.3588 5.22449 20.4686C5.21564 20.5106 5.2076 20.5541 5.19875 20.5968C5.16254 20.767 5.0314 21.6209 5.00806 21.8063V21.8491C4.8371 22.7314 4.73061 23.625 4.68945 24.5229V24.6221C4.68945 35.3238 13.3466 44 24.0249 44C33.5889 44 41.5292 37.0413 43.0844 27.9006C43.1166 27.6531 43.1432 27.4031 43.1721 27.1532C43.5567 23.8294 43.1295 20.3364 41.9178 17.4158ZM19.6312 32.5847C19.7213 32.6274 19.8066 32.675 19.8991 32.7169L19.912 32.725C19.8194 32.6798 19.7253 32.633 19.632 32.5847H19.6312ZM40.0021 18.4334V18.4149V18.4359V18.4334Z" fill="url(#paint0_linear_94_17441)"/><path id="vector_2" d="M41.9173 17.4159C41.0774 15.3895 39.3749 13.202 38.0385 12.5109C39.1263 14.6485 39.7554 16.7926 39.996 18.3924V18.4319C41.8208 23.3892 40.8263 28.4304 39.3942 31.5107C37.1784 36.2761 31.8143 41.1609 23.417 40.923C14.3519 40.665 6.36009 33.9152 4.86761 25.0817C4.59566 23.6876 4.86761 22.9804 5.00438 21.8491C4.83784 22.7208 4.77428 22.9732 4.69141 24.5229V24.6221C4.69141 35.3238 13.3486 44 24.0269 44C33.5908 44 41.5311 37.0413 43.0864 27.9007C43.1186 27.6531 43.1451 27.4032 43.1741 27.1532C43.5562 23.8295 43.129 20.3364 41.9173 17.4159V17.4159Z" fill="url(#paint1_radial_94_17441)"/><path id="vector_3" d="M41.9173 17.4159C41.0774 15.3895 39.3749 13.202 38.0385 12.5109C39.1263 14.6485 39.7554 16.7926 39.996 18.3924V18.4319C41.8208 23.3892 40.8263 28.4304 39.3942 31.5107C37.1784 36.2761 31.8143 41.1609 23.417 40.923C14.3519 40.665 6.36009 33.9152 4.86761 25.0817C4.59566 23.6876 4.86761 22.9804 5.00438 21.8491C4.83784 22.7208 4.77428 22.9732 4.69141 24.5229V24.6221C4.69141 35.3238 13.3486 44 24.0269 44C33.5908 44 41.5311 37.0413 43.0864 27.9007C43.1186 27.6531 43.1451 27.4032 43.1741 27.1532C43.5562 23.8295 43.129 20.3364 41.9173 17.4159V17.4159Z" fill="url(#paint2_radial_94_17441)"/><path id="vector_4" d="M32.5213 19.693C32.564 19.7228 32.6018 19.7527 32.642 19.7825C32.1567 18.9189 31.5522 18.1285 30.8462 17.4344C24.836 11.4111 29.2708 4.37338 30.0183 4.01537L30.0263 4.00488C25.1691 6.85609 23.5214 12.1303 23.3701 14.7695C23.5954 14.7542 23.8199 14.7348 24.0492 14.7348C27.6738 14.7348 30.8309 16.7329 32.5213 19.693Z" fill="url(#paint3_radial_94_17441)"/><path id="vector_5" d="M24.0616 20.8961C24.0303 21.3799 22.331 23.0409 21.7364 23.0409C16.238 23.0409 15.3457 26.3743 15.3457 26.3743C15.5871 29.182 17.539 31.4938 19.9004 32.717C20.0082 32.7726 20.1168 32.8226 20.2222 32.8726C20.4113 32.9532 20.6012 33.0339 20.7902 33.1056C21.6001 33.3919 22.4481 33.555 23.3061 33.5894C32.9433 34.0426 34.8115 22.0411 27.856 18.5561C29.6365 18.2456 31.4854 18.9641 32.5177 19.6906C30.8281 16.7305 27.6701 14.7324 24.0455 14.7324C23.8162 14.7324 23.5918 14.7518 23.3665 14.7671C21.4269 14.9018 19.5729 15.6188 18.0458 16.8249C18.3411 17.0756 18.6742 17.4095 19.375 18.1013C20.6897 19.4011 24.0544 20.7388 24.0616 20.8961V20.8961Z" fill="url(#paint4_radial_94_17441)"/><path id="vector_6" d="M24.0616 20.8961C24.0303 21.3799 22.331 23.0409 21.7364 23.0409C16.238 23.0409 15.3457 26.3743 15.3457 26.3743C15.5871 29.182 17.539 31.4938 19.9004 32.717C20.0082 32.7726 20.1168 32.8226 20.2222 32.8726C20.4113 32.9532 20.6012 33.0339 20.7902 33.1056C21.6001 33.3919 22.4481 33.555 23.3061 33.5894C32.9433 34.0426 34.8115 22.0411 27.856 18.5561C29.6365 18.2456 31.4854 18.9641 32.5177 19.6906C30.8281 16.7305 27.6701 14.7324 24.0455 14.7324C23.8162 14.7324 23.5918 14.7518 23.3665 14.7671C21.4269 14.9018 19.5729 15.6188 18.0458 16.8249C18.3411 17.0756 18.6742 17.4095 19.375 18.1013C20.6897 19.4011 24.0544 20.7388 24.0616 20.8961V20.8961Z" fill="url(#paint5_radial_94_17441)"/><path id="vector_7" d="M17.1469 16.1806C17.3038 16.2822 17.4325 16.3677 17.5492 16.4459C17.1086 14.9003 17.09 13.2646 17.4953 11.7094C15.5088 12.6166 13.964 14.0478 12.8408 15.3146C12.9317 15.3122 15.7365 15.2614 17.1469 16.1806V16.1806Z" fill="url(#paint6_radial_94_17441)"/><path id="vector_8" d="M4.86845 25.0816C6.36093 33.915 14.3527 40.6649 23.4243 40.9229C31.8216 41.1608 37.1825 36.276 39.4015 31.5105C40.8336 28.4295 41.8281 23.3891 40.0033 18.4317V18.3947C40.0033 18.3995 40.0033 18.4059 40.0073 18.4269C40.6928 22.9158 38.4151 27.2644 34.854 30.2051C34.8504 30.2133 34.8469 30.2217 34.8436 30.2301C27.9041 35.893 21.264 33.6465 19.9196 32.7297C19.8262 32.6846 19.7321 32.6378 19.6388 32.5894C15.5926 30.6542 13.9215 26.9571 14.2795 23.789C10.8641 23.789 9.6991 20.9007 9.6991 20.9007C9.6991 20.9007 12.7661 18.7091 16.8083 20.6153C20.552 22.3812 24.068 20.9016 24.068 20.9007C24.0607 20.7435 20.696 19.4018 19.3837 18.106C18.683 17.4141 18.3499 17.0803 18.0546 16.8295C17.8948 16.6941 17.7277 16.5676 17.5541 16.4506C17.4391 16.3699 17.3128 16.2893 17.1519 16.1853C15.7414 15.2661 12.9367 15.3169 12.8442 15.3193H12.8353C12.0686 14.346 12.1225 11.136 12.1659 10.4659C12.1571 10.424 11.5947 10.7586 11.5223 10.8094C10.8457 11.2932 10.2132 11.8361 9.63232 12.4318C8.97129 13.1034 8.36737 13.8293 7.82686 14.6016C6.58332 16.3678 5.70141 18.3635 5.23212 20.4734C5.21683 20.5105 4.52892 23.5205 4.86845 25.0816V25.0816Z" fill="url(#paint7_radial_94_17441)"/><path id="vector_9" d="M30.8463 17.4344C31.5523 18.1284 32.1569 18.9189 32.6421 19.7824C32.7427 19.8581 32.8394 19.9389 32.9318 20.0243C37.3151 24.0689 35.0221 29.7947 34.8475 30.206C38.4085 27.2653 40.6862 22.9167 40.0007 18.4278C37.8147 12.9624 34.1073 10.7595 31.0796 5.96423C30.926 5.72233 30.7731 5.48043 30.6235 5.2216C30.539 5.07565 30.4706 4.94341 30.411 4.81843C30.2856 4.57597 30.1887 4.31971 30.1222 4.05483C30.1227 4.04225 30.1186 4.02992 30.1106 4.02024C30.1025 4.01055 30.0912 4.0042 30.0788 4.00242C30.0669 3.99919 30.0544 3.99919 30.0426 4.00242C30.0394 4.00388 30.0364 4.00578 30.0337 4.00806C30.0289 4.00806 30.0241 4.0137 30.0192 4.01532C29.271 4.37333 24.8362 11.411 30.8463 17.4344V17.4344Z" fill="url(#paint8_radial_94_17441)"/><path id="vector_10" d="M32.93 20.0203C32.8375 19.9348 32.7409 19.8541 32.6403 19.7784C32.6009 19.7486 32.5599 19.7187 32.5196 19.6889C31.4874 18.9632 29.6385 18.244 27.8579 18.5544C34.8126 22.0394 32.9452 34.0409 23.3081 33.5877C22.4501 33.5533 21.602 33.3902 20.7922 33.1039C20.6031 33.033 20.4132 32.9548 20.2242 32.8709C20.1148 32.8209 20.0061 32.7709 19.9023 32.7153L19.9152 32.7234C21.2597 33.6426 27.8998 35.889 34.8392 30.2237C34.8392 30.2237 34.8432 30.2132 34.8497 30.1987C35.0218 29.7947 37.3149 24.0689 32.93 20.0203Z" fill="url(#paint9_radial_94_17441)"/><path id="vector_11" d="M15.3453 26.3743C15.3453 26.3743 16.2376 23.0409 21.736 23.0409C22.3306 23.0409 24.0299 21.3783 24.0612 20.8961C24.0926 20.4139 20.5453 22.3765 16.8016 20.6106C12.7594 18.7045 9.69238 20.8961 9.69238 20.8961C9.69238 20.8961 10.8574 23.7844 14.2728 23.7844C13.9148 26.9525 15.5859 30.6463 19.6321 32.5847C19.7222 32.6275 19.8075 32.6751 19.9 32.717C17.5386 31.4962 15.5891 29.182 15.3453 26.3743Z" fill="url(#paint10_radial_94_17441)"/><path id="vector_12" d="M41.9178 17.4158C41.0778 15.3895 39.3753 13.2019 38.039 12.5109C39.1267 14.6485 39.7559 16.7925 39.9965 18.3923C39.9965 18.3923 39.9965 18.4036 40.0005 18.4246C37.8145 12.9624 34.107 10.7595 31.0794 5.96423C30.9257 5.72233 30.7729 5.48043 30.6232 5.2216C30.5387 5.07565 30.4703 4.94341 30.4108 4.81843C30.2853 4.57597 30.1884 4.31971 30.122 4.05483C30.1225 4.04225 30.1183 4.02992 30.1103 4.02024C30.1023 4.01055 30.091 4.0042 30.0785 4.00242C30.0667 3.99919 30.0542 3.99919 30.0423 4.00242C30.0391 4.00388 30.0361 4.00578 30.0335 4.00806C30.0286 4.00806 30.0238 4.0137 30.019 4.01532L30.027 4.00483C25.1698 6.85604 23.5221 12.1303 23.3708 14.7694C23.5961 14.7541 23.8206 14.7348 24.0499 14.7348C27.6745 14.7348 30.8316 16.7329 32.522 19.6929C31.4897 18.9672 29.6408 18.248 27.8603 18.5584C34.815 22.0434 32.9476 34.0449 23.3105 33.5918C22.4524 33.5573 21.6044 33.3942 20.7946 33.108C20.6055 33.037 20.4156 32.9588 20.2265 32.8749C20.1171 32.8249 20.0085 32.775 19.9047 32.7193L19.9176 32.7274C19.8243 32.6822 19.7301 32.6355 19.6368 32.5871C19.7269 32.6298 19.8122 32.6774 19.9047 32.7193C17.5385 31.4961 15.589 29.1819 15.3452 26.3742C15.3452 26.3742 16.2375 23.0408 21.7359 23.0408C22.3305 23.0408 24.0297 21.3782 24.0611 20.896C24.0539 20.7388 20.6892 19.397 19.3769 18.1012C18.6761 17.4094 18.343 17.0756 18.0478 16.8248C17.888 16.6894 17.7209 16.5629 17.5473 16.4458C17.1068 14.9003 17.0882 13.2646 17.4934 11.7094C15.5069 12.6165 13.9621 14.0478 12.839 15.3145H12.8301C12.0634 14.3413 12.1173 11.1312 12.1607 10.4612C12.1519 10.4192 11.5895 10.7539 11.517 10.8047C10.8405 11.2884 10.208 11.8313 9.62711 12.427C8.96608 13.0987 8.36216 13.8245 7.82165 14.5969C6.57811 16.3631 5.6962 18.3588 5.22691 20.4686C5.21806 20.5106 5.21001 20.5541 5.20116 20.5968C5.16496 20.767 5.00082 21.633 4.97829 21.8184C4.97829 21.833 4.97829 21.8047 4.97829 21.8184C4.82764 22.7133 4.73119 23.6164 4.68945 24.5229V24.6221C4.68945 35.3238 13.3466 44 24.0249 44C33.5889 44 41.5292 37.0413 43.0844 27.9006C43.1166 27.6531 43.1432 27.4031 43.1721 27.1532C43.5567 23.8294 43.1295 20.3364 41.9178 17.4158ZM39.9997 18.4109V18.4318V18.4109Z" fill="url(#paint11_linear_94_17441)"/></g></g><defs><linearGradient id="paint0_linear_94_17441" x1="39.3585" y1="10.1967" x2="7.19142" y2="41.1638" gradientUnits="userSpaceOnUse"><stop offset="0.05" stop-color="#FFF44F"/><stop offset="0.11" stop-color="#FFE847"/><stop offset="0.22" stop-color="#FFC830"/><stop offset="0.37" stop-color="#FF980E"/><stop offset="0.4" stop-color="#FF8B16"/><stop offset="0.46" stop-color="#FF672A"/><stop offset="0.53" stop-color="#FF3647"/><stop offset="0.7" stop-color="#E31587"/></linearGradient><radialGradient id="paint1_radial_94_17441" cx="0" cy="0" r="1" gradientUnits="userSpaceOnUse" gradientTransform="matrix(40.3099 0 0 40.3983 37.874 8.44)"><stop offset="0.13" stop-color="#FFBD4F"/><stop offset="0.19" stop-color="#FFAC31"/><stop offset="0.25" stop-color="#FF9D17"/><stop offset="0.28" stop-color="#FF980E"/><stop offset="0.4" stop-color="#FF563B"/><stop offset="0.47" stop-color="#FF3750"/><stop offset="0.71" stop-color="#F5156C"/><stop offset="0.78" stop-color="#EB0878"/><stop offset="0.86" stop-color="#E50080"/></radialGradient><radialGradient id="paint2_radial_94_17441" cx="0" cy="0" r="1" gradientUnits="userSpaceOnUse" gradientTransform="matrix(40.3099 0 0 40.3983 23.145 24.955)"><stop offset="0.3" stop-color="#960E18"/><stop offset="0.35" stop-color="#B11927" stop-opacity="0.74"/><stop offset="0.43" stop-color="#DB293D" stop-opacity="0.34"/><stop offset="0.5" stop-color="#F5334B" stop-opacity="0.09"/><stop offset="0.53" stop-color="#FF3750" stop-opacity="0"/></radialGradient><radialGradient id="paint3_radial_94_17441" cx="0" cy="0" r="1" gradientUnits="userSpaceOnUse" gradientTransform="matrix(29.2027 0 0 29.2668 28.006 -.728)"><stop offset="0.13" stop-color="#FFF44F"/><stop offset="0.25" stop-color="#FFDC3E"/><stop offset="0.51" stop-color="#FF9D12"/><stop offset="0.53" stop-color="#FF980E"/></radialGradient><radialGradient id="paint4_radial_94_17441" cx="0" cy="0" r="1" gradientUnits="userSpaceOnUse" gradientTransform="matrix(19.1931 0 0 19.2352 18.688 35.508)"><stop offset="0.35" stop-color="#3A8EE6"/><stop offset="0.47" stop-color="#5C79F0"/><stop offset="0.67" stop-color="#9059FF"/><stop offset="1" stop-color="#C139E6"/></radialGradient><radialGradient id="paint5_radial_94_17441" cx="0" cy="0" r="1" gradientUnits="userSpaceOnUse" gradientTransform="matrix(9.87096 -2.44766 2.881 11.61853 23.725 20.154)"><stop offset="0.21" stop-color="#9059FF" stop-opacity="0"/><stop offset="0.28" stop-color="#8C4FF3" stop-opacity="0.06"/><stop offset="0.75" stop-color="#7716A8" stop-opacity="0.45"/><stop offset="0.97" stop-color="#6E008B" stop-opacity="0.6"/></radialGradient><radialGradient id="paint6_radial_94_17441" cx="0" cy="0" r="1" gradientUnits="userSpaceOnUse" gradientTransform="matrix(13.8081 0 0 13.8384 22.637 6.787)"><stop stop-color="#FFE226"/><stop offset="0.12" stop-color="#FFDB27"/><stop offset="0.3" stop-color="#FFC82A"/><stop offset="0.5" stop-color="#FFA930"/><stop offset="0.73" stop-color="#FF7E37"/><stop offset="0.79" stop-color="#FF7139"/></radialGradient><radialGradient id="paint7_radial_94_17441" cx="0" cy="0" r="1" gradientUnits="userSpaceOnUse" gradientTransform="matrix(58.9115 0 0 59.0408 33.49 -1.99)"><stop offset="0.11" stop-color="#FFF44F"/><stop offset="0.46" stop-color="#FF980E"/><stop offset="0.62" stop-color="#FF5634"/><stop offset="0.72" stop-color="#FF3647"/><stop offset="0.9" stop-color="#E31587"/></radialGradient><radialGradient id="paint8_radial_94_17441" cx="0" cy="0" r="1" gradientUnits="userSpaceOnUse" gradientTransform="rotate(84.245 11.432 17.6) scale(43.034 28.2128)"><stop stop-color="#FFF44F"/><stop offset="0.06" stop-color="#FFE847"/><stop offset="0.17" stop-color="#FFC830"/><stop offset="0.3" stop-color="#FF980E"/><stop offset="0.36" stop-color="#FF8B16"/><stop offset="0.45" stop-color="#FF672A"/><stop offset="0.57" stop-color="#FF3647"/><stop offset="0.74" stop-color="#E31587"/></radialGradient><radialGradient id="paint9_radial_94_17441" cx="0" cy="0" r="1" gradientUnits="userSpaceOnUse" gradientTransform="matrix(36.7785 0 0 36.8593 22.311 11.912)"><stop offset="0.14" stop-color="#FFF44F"/><stop offset="0.48" stop-color="#FF980E"/><stop offset="0.59" stop-color="#FF5634"/><stop offset="0.66" stop-color="#FF3647"/><stop offset="0.9" stop-color="#E31587"/></radialGradient><radialGradient id="paint10_radial_94_17441" cx="0" cy="0" r="1" gradientUnits="userSpaceOnUse" gradientTransform="matrix(40.2543 0 0 40.3427 32.02 14.07)"><stop offset="0.09" stop-color="#FFF44F"/><stop offset="0.23" stop-color="#FFE141"/><stop offset="0.51" stop-color="#FFAF1E"/><stop offset="0.63" stop-color="#FF980E"/></radialGradient><linearGradient id="paint11_linear_94_17441" x1="38.9723" y1="10.0306" x2="11.6004" y2="37.3433" gradientUnits="userSpaceOnUse"><stop offset="0.17" stop-color="#FFF44F" stop-opacity="0.8"/><stop offset="0.27" stop-color="#FFF44F" stop-opacity="0.63"/><stop offset="0.49" stop-color="#FFF44F" stop-opacity="0.22"/><stop offset="0.6" stop-color="#FFF44F" stop-opacity="0"/></linearGradient></defs></svg>