<svg width="48" height="48" viewBox="0 0 48 48" fill="none" xmlns="http://www.w3.org/2000/svg"><g id="firefox-Icon"><g id="Group"><path id="Vector" d="M40.0013 11.8488C38.4596 9.82243 36.569 8.15475 34.4456 6.88461C34.3486 6.82643 34.2226 6.84583 34.1353 6.92339C34.019 7.03974 34.0481 7.22396 34.1741 7.31122C38.1106 9.86121 41.1454 13.9722 41.8532 19.46C43.3075 30.6101 35.5218 39.9181 24.5656 39.9472C12.5235 39.986 5.19346 29.34 7.11322 19.78C7.21018 19.3049 7.1617 18.8395 7.31683 18.3838C7.40409 16.7064 8.04401 14.0692 9.42081 11.3737C8.03432 12.0912 6.26969 14.36 5.39707 16.4543C4.13662 19.4794 3.70031 23.0959 4.09784 26.5379C4.12692 26.7997 4.15601 27.0518 4.1851 27.3136C5.80429 36.796 14.0651 44.0097 24.0032 43.9903C35.0758 43.9709 44.0929 34.886 44.0347 23.8037C44.0153 19.3243 42.5125 15.1842 40.0013 11.8488Z" fill="url(#paint0_radial_94_17480)"/><path id="Vector_2" opacity="0.67" d="M40.0013 11.8488C38.4596 9.82243 36.569 8.15475 34.4456 6.88461C34.3486 6.82643 34.2226 6.84583 34.1353 6.92339C34.019 7.03974 34.0481 7.22396 34.1741 7.31122C38.1106 9.86121 41.1454 13.9722 41.8532 19.46C43.3075 30.6101 35.5218 39.9181 24.5656 39.9472C12.5235 39.986 5.19346 29.34 7.11322 19.78C7.21018 19.3049 7.1617 18.8395 7.31683 18.3838C7.40409 16.7064 8.04401 14.0692 9.42081 11.3737C8.03432 12.0912 6.26969 14.36 5.39707 16.4543C4.13662 19.4794 3.70031 23.0959 4.09784 26.5379C4.12692 26.7997 4.15601 27.0518 4.1851 27.3136C5.80429 36.796 14.0651 44.0097 24.0032 43.9903C35.0758 43.9709 44.0929 34.886 44.0347 23.8037C44.0153 19.3243 42.5125 15.1842 40.0013 11.8488Z" fill="url(#paint1_radial_94_17480)"/><path id="Vector_3" d="M40.0013 11.8488C38.4596 9.82243 36.569 8.15475 34.4456 6.88461C34.3486 6.82643 34.2226 6.84583 34.1353 6.92339C34.019 7.03974 34.0481 7.22396 34.1741 7.31122C38.1106 9.86121 41.1454 13.9722 41.8532 19.46C43.3075 30.6101 35.5218 39.9181 24.5656 39.9472C12.5235 39.986 5.19346 29.34 7.11322 19.78C7.21018 19.3049 7.1617 18.8395 7.31683 18.3838C7.40409 16.7064 8.04401 14.0692 9.42081 11.3737C8.03432 12.0912 6.26969 14.36 5.39707 16.4543C4.13662 19.4794 3.70031 23.0959 4.09784 26.5379C4.12692 26.7997 4.15601 27.0518 4.1851 27.3136C5.80429 36.796 14.0651 44.0097 24.0032 43.9903C35.0758 43.9709 44.0929 34.886 44.0347 23.8037C44.0153 19.3243 42.5125 15.1842 40.0013 11.8488Z" fill="url(#paint2_radial_94_17480)"/><path id="Vector_4" d="M40.0013 11.8488C38.4596 9.82243 36.569 8.15475 34.4456 6.88461C34.3486 6.82643 34.2226 6.84583 34.1353 6.92339C34.019 7.03974 34.0481 7.22396 34.1741 7.31122C38.1106 9.86121 41.1454 13.9722 41.8532 19.46C43.3075 30.6101 35.5218 39.9181 24.5656 39.9472C12.5235 39.986 5.19346 29.34 7.11322 19.78C7.21018 19.3049 7.1617 18.8395 7.31683 18.3838C7.40409 16.7064 8.04401 14.0692 9.42081 11.3737C8.03432 12.0912 6.26969 14.36 5.39707 16.4543C4.13662 19.4794 3.70031 23.0959 4.09784 26.5379C4.12692 26.7997 4.15601 27.0518 4.1851 27.3136C5.80429 36.796 14.0651 44.0097 24.0032 43.9903C35.0758 43.9709 44.0929 34.886 44.0347 23.8037C44.0153 19.3243 42.5125 15.1842 40.0013 11.8488Z" fill="url(#paint3_radial_94_17480)"/><path id="Vector_5" d="M40.0013 11.8488C38.4596 9.82243 36.569 8.15475 34.4456 6.88461C34.3486 6.82643 34.2226 6.84583 34.1353 6.92339C34.019 7.03974 34.0481 7.22396 34.1741 7.31122C38.1106 9.86121 41.1454 13.9722 41.8532 19.46C43.3075 30.6101 35.5218 39.9181 24.5656 39.9472C12.5235 39.986 5.19346 29.34 7.11322 19.78C7.21018 19.3049 7.1617 18.8395 7.31683 18.3838C7.40409 16.7064 8.04401 14.0692 9.42081 11.3737C8.03432 12.0912 6.26969 14.36 5.39707 16.4543C4.13662 19.4794 3.70031 23.0959 4.09784 26.5379C4.12692 26.7997 4.15601 27.0518 4.1851 27.3136C5.80429 36.796 14.0651 44.0097 24.0032 43.9903C35.0758 43.9709 44.0929 34.886 44.0347 23.8037C44.0153 19.3243 42.5125 15.1842 40.0013 11.8488Z" fill="url(#paint4_radial_94_17480)"/><path id="Vector_6" d="M42.3475 18.9073C41.6979 13.0705 38.4207 9.08553 34.2322 6.75855C33.5341 6.37072 32.6517 6.53555 32.1476 7.15608L32.1379 7.16577C36.9082 10.1036 39.9139 15.3102 40.069 20.7398C40.2532 27.3427 34.8333 32.6075 28.5892 32.908C24.0516 33.131 19.7758 30.9398 17.6815 26.5476C17.2161 25.5683 16.8767 24.5794 16.7022 23.3771C15.7132 16.7064 20.2024 11.015 24.3231 9.59941C22.1028 7.66026 16.5277 7.796 12.3876 10.8405C9.4013 13.0317 7.46215 16.3671 6.82223 20.3423C6.33744 23.3771 6.79314 26.5282 7.99541 29.34C9.21708 32.2099 11.2047 34.7405 13.7159 36.6021C16.4307 38.6285 19.7079 39.8017 23.082 40.0538C23.5765 40.0926 24.0807 40.112 24.5752 40.112C37.8293 40.1314 43.5886 30.0866 42.3475 18.9073Z" fill="url(#paint5_radial_94_17480)"/><path id="Vector_7" d="M42.3475 18.9073C41.6979 13.0705 38.4207 9.08553 34.2322 6.75855C33.5341 6.37072 32.6517 6.53555 32.1476 7.15608L32.1379 7.16577C36.9082 10.1036 39.9139 15.3102 40.069 20.7398C40.2532 27.3427 34.8333 32.6075 28.5892 32.908C24.0516 33.131 19.7758 30.9398 17.6815 26.5476C17.2161 25.5683 16.8767 24.5794 16.7022 23.3771C15.7132 16.7064 20.2024 11.015 24.3231 9.59941C22.1028 7.66026 16.5277 7.796 12.3876 10.8405C9.4013 13.0317 7.46215 16.3671 6.82223 20.3423C6.33744 23.3771 6.79314 26.5282 7.99541 29.34C9.21708 32.2099 11.2047 34.7405 13.7159 36.6021C16.4307 38.6285 19.7079 39.8017 23.082 40.0538C23.5765 40.0926 24.0807 40.112 24.5752 40.112C37.8293 40.1314 43.5886 30.0866 42.3475 18.9073Z" fill="url(#paint6_radial_94_17480)"/><path id="Vector_8" opacity="0.53" d="M42.3475 18.9073C41.6979 13.0705 38.4207 9.08553 34.2322 6.75855C33.5341 6.37072 32.6517 6.53555 32.1476 7.15608L32.1379 7.16577C36.9082 10.1036 39.9139 15.3102 40.069 20.7398C40.2532 27.3427 34.8333 32.6075 28.5892 32.908C24.0516 33.131 19.7758 30.9398 17.6815 26.5476C17.2161 25.5683 16.8767 24.5794 16.7022 23.3771C15.7132 16.7064 20.2024 11.015 24.3231 9.59941C22.1028 7.66026 16.5277 7.796 12.3876 10.8405C9.4013 13.0317 7.46215 16.3671 6.82223 20.3423C6.33744 23.3771 6.79314 26.5282 7.99541 29.34C9.21708 32.2099 11.2047 34.7405 13.7159 36.6021C16.4307 38.6285 19.7079 39.8017 23.082 40.0538C23.5765 40.0926 24.0807 40.112 24.5752 40.112C37.8293 40.1314 43.5886 30.0866 42.3475 18.9073Z" fill="url(#paint7_radial_94_17480)"/><path id="Vector_9" opacity="0.53" d="M42.3475 18.9073C41.6979 13.0705 38.4207 9.08553 34.2322 6.75855C33.5341 6.37072 32.6517 6.53555 32.1476 7.15608L32.1379 7.16577C36.9082 10.1036 39.9139 15.3102 40.069 20.7398C40.2532 27.3427 34.8333 32.6075 28.5892 32.908C24.0516 33.131 19.7758 30.9398 17.6815 26.5476C17.2161 25.5683 16.8767 24.5794 16.7022 23.3771C15.7132 16.7064 20.2024 11.015 24.3231 9.59941C22.1028 7.66026 16.5277 7.796 12.3876 10.8405C9.4013 13.0317 7.46215 16.3671 6.82223 20.3423C6.33744 23.3771 6.79314 26.5282 7.99541 29.34C9.21708 32.2099 11.2047 34.7405 13.7159 36.6021C16.4307 38.6285 19.7079 39.8017 23.082 40.0538C23.5765 40.0926 24.0807 40.112 24.5752 40.112C37.8293 40.1314 43.5886 30.0866 42.3475 18.9073Z" fill="url(#paint8_radial_94_17480)"/><path id="Vector_10" d="M32.1669 7.13669C32.1572 7.14639 32.1573 7.15609 32.1476 7.16578C31.5755 7.87357 31.6919 8.90132 32.3899 9.48307C35.3956 11.9458 37.4124 15.446 37.4124 19.4891C37.4124 25.0739 33.088 29.3303 28.0269 29.0297C20.5029 28.574 18.6123 20.8853 22.5197 17.5596C21.4628 17.3366 19.4849 17.7729 18.0984 19.8381C16.8573 21.69 16.9252 24.5406 17.6912 26.567C19.7855 30.9495 24.0613 33.1989 28.5989 32.9274C37.17 32.4039 40.835 25.3356 41.0677 20.3035C41.3197 14.8448 40.0884 10.0066 34.2515 6.74886C33.5437 6.35134 32.6711 6.51616 32.1669 7.13669Z" fill="url(#paint9_radial_94_17480)"/><path id="Vector_11" d="M40.0013 11.8488C39.4681 11.1411 38.8766 10.4817 38.2561 9.86121C37.7616 9.33764 37.2283 8.85285 36.666 8.39715C36.9859 8.67833 37.2962 8.9789 37.5968 9.28916C38.6827 10.4623 39.5456 11.8488 40.0401 13.3614C41.0873 16.5222 41.0194 20.4878 39.0221 23.5904C36.6369 27.2942 32.7586 29.1267 28.57 29.0394C28.3858 29.0394 28.2113 29.0394 28.0271 29.0297C20.5031 28.574 18.6125 20.8853 22.5199 17.5596C21.463 17.3366 19.4851 17.773 18.0986 19.8382C16.8575 21.69 16.9254 24.5406 17.6914 26.567C17.226 25.5877 16.8866 24.5988 16.7121 23.3965C15.7231 16.7258 20.2123 11.0344 24.333 9.61882C22.1126 7.67966 16.5376 7.8154 12.3975 10.8599C9.98324 12.6342 8.25739 15.1551 7.34599 18.1608C7.48173 16.4737 8.12165 13.9625 9.43058 11.3834C8.04408 12.1009 6.27945 14.3697 5.40684 16.464C4.14639 19.4891 3.71008 23.1056 4.1076 26.5476C4.13669 26.8094 4.16578 27.0615 4.19486 27.3233C5.80436 36.7864 14.0555 44 23.9742 44C35.0565 44 44.0445 35.012 44.0445 23.9298C44.0348 19.3921 42.5319 15.2133 40.0013 11.8488Z" fill="url(#paint10_linear_94_17480)"/><path id="Vector_12" d="M40.0399 13.3614C39.5357 11.8488 38.6825 10.4623 37.5966 9.28916C35.2696 6.78765 31.847 5.18785 28.5504 4.46067C25.7774 3.84984 22.8687 3.85953 20.2508 4.41219C17.4003 5.01333 14.8988 6.24469 13.3184 7.77662C18.7868 4.57702 26.1556 5.16846 31.1974 8.75589C32.0409 9.35703 32.8262 10.0454 33.534 10.8017C36.8888 14.4182 38.2559 20.4587 35.4344 24.8024C34.0188 27.0033 30.9744 29.0588 28.1335 29.0394C32.4869 29.2721 36.5494 27.4299 39.0121 23.6001C41.0192 20.4878 41.087 16.5222 40.0399 13.3614Z" fill="url(#paint11_linear_94_17480)"/><path id="Vector_13" d="M40.0399 13.3614C39.5357 11.8488 38.6825 10.4623 37.5966 9.28916C35.2696 6.78765 31.847 5.18785 28.5504 4.46067C25.7774 3.84984 22.8687 3.85953 20.2508 4.41219C17.4003 5.01333 14.8988 6.24469 13.3184 7.77662C18.7868 4.57702 26.1556 5.16846 31.1974 8.75589C32.0409 9.35703 32.8262 10.0454 33.534 10.8017C36.8888 14.4182 38.2559 20.4587 35.4344 24.8024C34.0188 27.0033 30.9744 29.0588 28.1335 29.0394C32.4869 29.2721 36.5494 27.4299 39.0121 23.6001C41.0192 20.4878 41.087 16.5222 40.0399 13.3614Z" fill="url(#paint12_linear_94_17480)"/></g></g><defs><radialGradient id="paint0_radial_94_17480" cx="0" cy="0" r="1" gradientUnits="userSpaceOnUse" gradientTransform="translate(39.794 11.724) scale(45.2872)"><stop stop-color="#FFF44F"/><stop offset="0.2949" stop-color="#FF980E"/><stop offset="0.4315" stop-color="#FF5D36"/><stop offset="0.5302" stop-color="#FF3750"/><stop offset="0.7493" stop-color="#F5156C"/><stop offset="0.7648" stop-color="#F1136E"/><stop offset="0.8801" stop-color="#DA057A"/><stop offset="0.9528" stop-color="#D2007F"/></radialGradient><radialGradient id="paint1_radial_94_17480" cx="0" cy="0" r="1" gradientUnits="userSpaceOnUse" gradientTransform="translate(7.272 15.633) scale(26.1562)"><stop stop-color="#B5007F"/><stop offset="1" stop-color="#F5156C" stop-opacity="0"/></radialGradient><radialGradient id="paint2_radial_94_17480" cx="0" cy="0" r="1" gradientUnits="userSpaceOnUse" gradientTransform="translate(43.682 11.481) scale(49.6131)"><stop stop-color="#FFDD00" stop-opacity="0.6"/><stop offset="0.0836672" stop-color="#FFD801" stop-opacity="0.5244"/><stop offset="0.1822" stop-color="#FECA05" stop-opacity="0.4353"/><stop offset="0.2884" stop-color="#FEB20C" stop-opacity="0.3394"/><stop offset="0.3998" stop-color="#FD9115" stop-opacity="0.2388"/><stop offset="0.5154" stop-color="#FB6621" stop-opacity="0.1343"/><stop offset="0.6329" stop-color="#F9332F" stop-opacity="0.028164"/><stop offset="0.664" stop-color="#F92433" stop-opacity="0"/></radialGradient><radialGradient id="paint3_radial_94_17480" cx="0" cy="0" r="1" gradientUnits="userSpaceOnUse" gradientTransform="translate(25.139 27.515) scale(66.6575)"><stop offset="0.1528" stop-color="#960E18"/><stop offset="0.2061" stop-color="#CC2335" stop-opacity="0.5541"/><stop offset="0.2495" stop-color="#F13148" stop-opacity="0.1914"/><stop offset="0.2724" stop-color="#FF3750" stop-opacity="0"/></radialGradient><radialGradient id="paint4_radial_94_17480" cx="0" cy="0" r="1" gradientUnits="userSpaceOnUse" gradientTransform="translate(19.924 26.71) scale(67.1216)"><stop offset="0.1129" stop-color="#960E18"/><stop offset="0.1893" stop-color="#CC2335" stop-opacity="0.5541"/><stop offset="0.2515" stop-color="#F13148" stop-opacity="0.1914"/><stop offset="0.2843" stop-color="#FF3750" stop-opacity="0"/></radialGradient><radialGradient id="paint5_radial_94_17480" cx="0" cy="0" r="1" gradientUnits="userSpaceOnUse" gradientTransform="translate(38.836 10.412) scale(42.1791)"><stop stop-color="#FF980E"/><stop offset="0.295" stop-color="#FF7139"/><stop offset="0.4846" stop-color="#FF5B51"/><stop offset="0.626" stop-color="#FF4F5E"/><stop offset="0.7365" stop-color="#FF4055"/><stop offset="0.8428" stop-color="#FF3750"/></radialGradient><radialGradient id="paint6_radial_94_17480" cx="0" cy="0" r="1" gradientUnits="userSpaceOnUse" gradientTransform="translate(38.836 11.962) scale(40.0127)"><stop offset="0.0840745" stop-color="#FFDE08"/><stop offset="0.2081" stop-color="#FFD609" stop-opacity="0.832"/><stop offset="0.4033" stop-color="#FFBF0B" stop-opacity="0.5677"/><stop offset="0.6437" stop-color="#FF9B0F" stop-opacity="0.242"/><stop offset="0.8224" stop-color="#FF7B12" stop-opacity="0"/></radialGradient><radialGradient id="paint7_radial_94_17480" cx="0" cy="0" r="1" gradientUnits="userSpaceOnUse" gradientTransform="rotate(75.684 -1.217 30.844) scale(20.1402 21.0179)"><stop offset="0.3634" stop-color="#FF3750"/><stop offset="0.4111" stop-color="#FF444B" stop-opacity="0.7895"/><stop offset="0.5902" stop-color="#FF7139" stop-opacity="0"/></radialGradient><radialGradient id="paint8_radial_94_17480" cx="0" cy="0" r="1" gradientUnits="userSpaceOnUse" gradientTransform="rotate(75.684 -4.09 29.351) scale(20.3703 20.3878)"><stop offset="0.2159" stop-color="#FF3750" stop-opacity="0.8"/><stop offset="0.2702" stop-color="#FF444B" stop-opacity="0.6316"/><stop offset="0.4739" stop-color="#FF7139" stop-opacity="0"/></radialGradient><radialGradient id="paint9_radial_94_17480" cx="0" cy="0" r="1" gradientUnits="userSpaceOnUse" gradientTransform="translate(47.37 5.544) scale(71.3602)"><stop offset="0.0535657" stop-color="#FFF44F"/><stop offset="0.4573" stop-color="#FF980E"/><stop offset="0.5211" stop-color="#FF8424"/><stop offset="0.5871" stop-color="#FF7634"/><stop offset="0.6393" stop-color="#FF7139"/></radialGradient><linearGradient id="paint10_linear_94_17480" x1="33.5248" y1="7.52936" x2="13.066" y2="42.965" gradientUnits="userSpaceOnUse"><stop stop-color="#FFF44F" stop-opacity="0.8"/><stop offset="0.75" stop-color="#FFF44F" stop-opacity="0"/></linearGradient><linearGradient id="paint11_linear_94_17480" x1="27.0111" y1="29.1568" x2="27.0111" y2="4.25506" gradientUnits="userSpaceOnUse"><stop stop-color="#3A8EE6"/><stop offset="0.1016" stop-color="#4D82EB"/><stop offset="0.3885" stop-color="#7D65FA"/><stop offset="0.5309" stop-color="#9059FF"/><stop offset="0.6915" stop-color="#9D50F8"/><stop offset="0.9888" stop-color="#C03AE7"/><stop offset="1" stop-color="#C139E6"/></linearGradient><linearGradient id="paint12_linear_94_17480" x1="22.6318" y1="3.34968" x2="36.2172" y2="26.8804" gradientUnits="userSpaceOnUse"><stop offset="0.8054" stop-color="#9059FF" stop-opacity="0"/><stop offset="1" stop-color="#6E008B" stop-opacity="0.5"/></linearGradient></defs></svg>