<svg width="48" height="48" viewBox="0 0 48 48" fill="none" xmlns="http://www.w3.org/2000/svg"><g id="gerrit-Icon"><g id="Group"><path id="Vector" d="M30.9231 6H8.76923C7.23983 6 6 7.23983 6 8.76923V30.9231C6 32.4525 7.23983 33.6923 8.76923 33.6923H30.9231C32.4525 33.6923 33.6923 32.4525 33.6923 30.9231V8.76923C33.6923 7.23983 32.4525 6 30.9231 6Z" fill="#FFAAAA"/><path id="Vector_2" d="M39.2307 14.3077H17.0768C15.5474 14.3077 14.3076 15.5475 14.3076 17.0769V39.2308C14.3076 40.7602 15.5474 42 17.0768 42H39.2307C40.7601 42 41.9999 40.7602 41.9999 39.2308V17.0769C41.9999 15.5475 40.7601 14.3077 39.2307 14.3077Z" fill="#AAFFAA"/><g id="Vector_3"><path d="M18.4614 21.2308H26.7691V24H18.4614V21.2308Z" fill="#FF0000"/><path d="M29.5383 21.2308H37.846V24H29.5383V21.2308Z" fill="#FF0000"/></g><g id="Vector_4"><path d="M18.4614 30.9231H21.2307V28.1539H23.9999V30.9231H26.7691V33.6923H23.9999V36.4616H21.2307V33.6923H18.4614V30.9231Z" fill="#008000"/><path d="M29.5383 30.9231H32.3076V28.1539H35.0768V30.9231H37.846V33.6923H35.0768V36.4616H32.3076V33.6923H29.5383V30.9231Z" fill="#008000"/></g></g></g></svg>