<svg width="48" height="48" viewBox="0 0 48 48" fill="none" xmlns="http://www.w3.org/2000/svg"><g id="gitlab-Icon"><g id="Group"><path id="Vector" d="M24.0002 40.5809L30.6288 20.1803H17.3716L24.0002 40.5809Z" fill="#E24329"/><path id="Vector_2" d="M24 40.5809L17.3714 20.1803H8.08154L24 40.5809Z" fill="#FC6D26"/><path id="Vector_3" d="M8.08158 20.1803L6.06727 26.3799C5.88354 26.9453 6.08477 27.5648 6.56579 27.9142L24 40.5809L8.08158 20.1803Z" fill="#FCA326"/><path id="Vector_4" d="M8.08154 20.1803H17.3714L13.3789 7.89324C13.1736 7.26091 12.2791 7.26108 12.0738 7.89324L8.08154 20.1803Z" fill="#E24329"/><path id="Vector_5" d="M24 40.5809L30.6286 20.1803H39.9184L24 40.5809Z" fill="#FC6D26"/><path id="Vector_6" d="M39.9184 20.1803L41.9327 26.3799C42.1165 26.9453 41.9152 27.5648 41.4342 27.9142L24 40.5809L39.9184 20.1803Z" fill="#FCA326"/><path id="Vector_7" d="M39.9182 20.1803H30.6284L34.6208 7.89324C34.8262 7.26091 35.7206 7.26108 35.926 7.89324L39.9182 20.1803Z" fill="#E24329"/></g></g></svg>