<svg width="48" height="48" viewBox="0 0 48 48" fill="none" xmlns="http://www.w3.org/2000/svg"><g id="google-ads-Icon"><g id="Group"><path id="Vector" d="M8.73673 30.4599L19.3688 12.2579C20.7193 13.053 27.5295 16.822 28.6293 17.5386L17.9973 35.7417C16.8345 37.2778 7.26361 32.7911 8.73673 30.4588V30.4599Z" fill="#FBBC04"/><path id="Vector_2" d="M39.2841 30.4595L28.652 12.2587C27.1656 9.78505 23.9643 8.88616 21.335 10.3471C18.7057 11.8081 17.9051 14.9553 19.3915 17.5394L30.0235 35.7424C31.5099 38.2149 34.7112 39.1138 37.3405 37.6528C39.855 36.1919 40.7705 32.9331 39.2841 30.4617V30.4595Z" fill="#4285F4"/><path id="Vector_3" d="M13.337 38.3564C16.2846 38.3564 18.674 36.0262 18.674 33.1518C18.674 30.2775 16.2846 27.9473 13.337 27.9473C10.3895 27.9473 8 30.2775 8 33.1518C8 36.0262 10.3895 38.3564 13.337 38.3564Z" fill="#34A853"/></g></g></svg>