<svg width="48" height="48" viewBox="0 0 48 48" fill="none" xmlns="http://www.w3.org/2000/svg"><g id="google-lighthouse-Icon"><g id="Group"><path id="Vector" d="M24 42C33.9411 42 42 33.9411 42 24C42 14.0589 33.9411 6 24 6C14.0589 6 6 14.0589 6 24C6 33.9411 14.0589 42 24 42Z" fill="#0535C1"/><g id="Group_2"><mask id="mask0_94_17760" style="mask-type:alpha" maskUnits="userSpaceOnUse" x="28" y="16" width="11" height="8"><g id="mask-2"><path id="Vector_2" d="M35.8638 18.6135H34.7868C34.3303 17.3218 33.1003 16.3977 31.6533 16.3977C29.8186 16.3977 28.3296 17.8867 28.3296 19.7214C28.3296 21.5562 29.8186 23.0455 31.6533 23.0455H35.8638C37.0875 23.045 38.0793 22.053 38.0796 20.8294C38.0791 19.6058 37.0873 18.614 35.8638 18.6135Z" fill="white"/></g></mask><g mask="url(#mask0_94_17760)"><g id="Group_3"><path id="Vector_3" d="M35.8638 18.6135H34.7868C34.3303 17.3218 33.1003 16.3977 31.6533 16.3977C29.8186 16.3977 28.3296 17.8867 28.3296 19.7214C28.3296 21.5562 29.8186 23.0455 31.6533 23.0455H35.8638C37.0875 23.045 38.0793 22.053 38.0796 20.8294C38.0791 19.6058 37.0873 18.614 35.8638 18.6135Z" fill="#EAEAEA"/><path id="Vector_4" d="M38.0794 20.856V20.8293C38.0789 19.6058 37.0871 18.614 35.8636 18.6135H34.7554V18.6687H35.8636C37.0763 18.669 38.0636 19.6438 38.0794 20.8563V20.856Z" fill="white" fill-opacity="0.2"/><path id="Vector_5" d="M39.2206 23.0455H31.6533L34.789 18.6135L39.2206 23.0455Z" fill="url(#paint0_linear_94_17760)"/><g id="Group_4"><mask id="mask1_94_17760" style="mask-type:alpha" maskUnits="userSpaceOnUse" x="31" y="18" width="8" height="6"><g id="mask-5"><path id="Vector_6" d="M35.8635 18.6135H31.6533V23.0452H35.8635C37.087 23.0447 38.0788 22.0529 38.0793 20.8293C38.0788 19.6058 37.087 18.614 35.8635 18.6135Z" fill="white"/></g></mask><g mask="url(#mask1_94_17760)"><g id="Group_5"><g id="Group_6"><g id="Vector_7" filter="url(#filter0_d_94_17760)"><path d="M31.6533 16.3977L33.4503 22.0726C34.0505 21.4697 34.9771 20.6388 34.9771 19.7214C34.9771 17.8867 33.4881 16.3977 31.6533 16.3977Z" fill="black"/></g><path id="Vector_8" d="M31.6533 16.3977L33.4503 22.0726C34.0505 21.4697 34.9771 20.6388 34.9771 19.7214C34.9771 17.8867 33.4881 16.3977 31.6533 16.3977Z" fill="#E1E1E1"/></g></g></g></g><path id="Vector_9" d="M31.6533 23.0452C33.489 23.0452 34.9771 21.5571 34.9771 19.7214C34.9771 17.8858 33.489 16.3977 31.6533 16.3977C29.8177 16.3977 28.3296 17.8858 28.3296 19.7214C28.3296 21.5571 29.8177 23.0452 31.6533 23.0452Z" fill="#EEEEEE"/><path id="Vector_10" d="M31.6533 16.4529C33.4792 16.4529 34.9617 17.9266 34.9774 19.7503V19.7239C34.9774 17.8891 33.4881 16.3998 31.6533 16.3998C29.8186 16.3998 28.3296 17.8867 28.3296 19.7214V19.7481C28.3449 17.9266 29.8275 16.4529 31.6533 16.4529Z" fill="white" fill-opacity="0.2"/><path id="Vector_11" d="M35.8638 22.99H31.6533C29.8278 22.99 28.3452 21.5163 28.3296 19.6929V19.7196C28.3296 21.5544 29.8186 23.0433 31.6533 23.0433H35.8638C37.0873 23.0428 38.0791 22.0511 38.0796 20.8275V20.8011C38.0643 22.0142 37.0769 22.9897 35.8638 22.9903V22.99Z" fill="#212121" fill-opacity="0.1"/></g></g></g><path id="Vector_12" d="M35.8638 18.6135H34.7868C34.3303 17.3218 33.1003 16.3977 31.6533 16.3977C29.8186 16.3977 28.3296 17.8867 28.3296 19.7214C28.3296 21.5562 29.8186 23.0455 31.6533 23.0455H35.8638C37.0875 23.045 38.0793 22.053 38.0796 20.8294C38.0791 19.6058 37.0873 18.614 35.8638 18.6135Z" fill="url(#paint1_radial_94_17760)"/><path id="Vector_13" d="M19.0908 13.5682H28.5V21.7501H19.0908V13.5682Z" fill="#FFF176"/><path id="Vector_14" d="M18.0679 26.0452H29.3179V37.2953H18.0679V26.0452Z" fill="white"/><path id="Vector_15" d="M30.5451 20.9318H32.1813V24.2043H15.8179V20.9318H17.4541V14.3862L23.9997 10.2954L30.5451 14.3862V20.9318ZM27.2722 20.9318V16.2001L23.9997 14.1552L20.7269 16.2001V20.9318H27.2722Z" fill="#F4481E"/><path id="Vector_16" d="M15.0913 39.6443L17.8637 20.9315H30.1364L32.9084 39.6443C30.2818 41.1434 27.2409 41.9997 24 41.9997C20.7591 41.9997 17.7183 41.1434 15.0913 39.6443ZM27.6643 26.5773L19.9651 29.079L19.0293 35.3949L28.5142 32.3126L27.6643 26.5769V26.5773Z" fill="#F4481E"/><path id="Vector_17" d="M30.5298 24.2043L32.8171 39.6443C30.1905 41.1434 27.1496 41.9997 23.9087 41.9997C20.6678 41.9997 17.627 41.1434 15 39.6443L17.2876 24.2043H15.8183V20.9318H17.4545V14.3862L24.0002 10.2954L30.5455 14.3862V20.9318H32.1817V24.2043H30.5301H30.5298Z" fill="url(#paint2_linear_94_17760)"/><path id="Vector_18" d="M24.0002 20.9318H17.4546V14.3862L24.0002 10.2954V20.9318Z" fill="url(#paint3_linear_94_17760)"/><path id="Vector_19" d="M24 41.9997C20.8763 42.0015 17.806 41.1897 15.0913 39.6443L17.1424 24.2043H23.9997V41.9997H24Z" fill="url(#paint4_linear_94_17760)"/><path id="Vector_20" d="M24 20.9318H15.8181V24.2046H24V20.9318Z" fill="url(#paint5_linear_94_17760)"/><path id="Vector_21" d="M24 42C33.9411 42 42 33.9411 42 24C42 14.0589 33.9411 6 24 6C14.0589 6 6 14.0589 6 24C6 33.9411 14.0589 42 24 42Z" fill="url(#paint6_radial_94_17760)"/><g id="Group_7"><mask id="mask2_94_17760" style="mask-type:alpha" maskUnits="userSpaceOnUse" x="10" y="20" width="12" height="8"><g id="mask-15"><path id="Vector_22" d="M19.0905 22.7724H17.8479C17.3214 21.2819 15.9024 20.2157 14.2327 20.2157C12.1156 20.2157 10.3975 21.9339 10.3975 24.0509C10.3975 26.168 12.1156 27.8861 14.2327 27.8861H19.0905C20.5018 27.8861 21.6475 26.7408 21.6475 25.3294C21.6475 23.9181 20.5018 22.7724 19.0905 22.7724Z" fill="white"/></g></mask><g mask="url(#mask2_94_17760)"><g id="Group_8"><path id="Vector_23" d="M19.0905 22.7724H17.8479C17.3214 21.2819 15.9024 20.2157 14.2327 20.2157C12.1156 20.2157 10.3975 21.9339 10.3975 24.0509C10.3975 26.168 12.1156 27.8861 14.2327 27.8861H19.0905C20.5018 27.8861 21.6475 26.7408 21.6475 25.3294C21.6475 23.9181 20.5018 22.7724 19.0905 22.7724Z" fill="#FAFAFA"/><path id="Vector_24" d="M21.6477 25.3601V25.3295C21.6477 23.9181 20.5021 22.7724 19.0907 22.7724H17.8125V22.8366H19.0907C20.4899 22.8366 21.6292 23.9611 21.6477 25.3601Z" fill="white" fill-opacity="0.2"/><path id="Vector_25" d="M22.9643 27.8862H14.2329L17.8509 22.7724L22.9643 27.8862Z" fill="url(#paint7_linear_94_17760)"/><g id="Group_9"><mask id="mask3_94_17760" style="mask-type:alpha" maskUnits="userSpaceOnUse" x="14" y="22" width="8" height="6"><g id="mask-18"><path id="Vector_26" d="M19.0907 22.7724H14.2329V27.8862H19.0907C20.5021 27.8862 21.6477 26.7405 21.6477 25.3291C21.6477 23.9178 20.5021 22.7724 19.0907 22.7724Z" fill="white"/></g></mask><g mask="url(#mask3_94_17760)"><g id="Group_10"><g id="Group_11"><g id="Vector_27" filter="url(#filter1_d_94_17760)"><path d="M14.2329 20.2157L16.3064 26.7638C16.9995 26.0682 18.0681 25.1094 18.0681 24.0509C18.0681 21.9339 16.3499 20.2157 14.2329 20.2157Z" fill="black"/></g><path id="Vector_28" d="M14.2329 20.2157L16.3064 26.7638C16.9995 26.0682 18.0681 25.1094 18.0681 24.0509C18.0681 21.9339 16.3499 20.2157 14.2329 20.2157Z" fill="#E1E1E1"/></g></g></g></g><path id="Vector_29" d="M14.2327 27.8861C16.3508 27.8861 18.0679 26.1691 18.0679 24.0509C18.0679 21.9328 16.3508 20.2157 14.2327 20.2157C12.1145 20.2157 10.3975 21.9328 10.3975 24.0509C10.3975 26.1691 12.1145 27.8861 14.2327 27.8861Z" fill="white"/><path id="Vector_30" d="M14.2327 20.2796C16.3396 20.2796 18.0501 21.9799 18.0679 24.0841V24.0534C18.0679 21.9364 16.3497 20.2182 14.2327 20.2182C12.1156 20.2182 10.3975 21.9339 10.3975 24.051V24.0816C10.4153 21.9799 12.1258 20.2796 14.2327 20.2796Z" fill="white" fill-opacity="0.2"/><path id="Vector_31" d="M19.0905 27.8223H14.2327C12.1258 27.8223 10.4153 26.122 10.3975 24.0178V24.0485C10.3975 26.1655 12.1156 27.8837 14.2327 27.8837H19.0905C20.5018 27.8837 21.6475 26.738 21.6475 25.3267V25.296C21.6294 26.6948 20.4917 27.8223 19.0905 27.8223Z" fill="#212121" fill-opacity="0.1"/></g></g></g><path id="Vector_32" d="M19.0905 22.7724H17.8479C17.3214 21.2819 15.9024 20.2157 14.2327 20.2157C12.1156 20.2157 10.3975 21.9339 10.3975 24.0509C10.3975 26.168 12.1156 27.8861 14.2327 27.8861H19.0905C20.5018 27.8861 21.6475 26.7408 21.6475 25.3294C21.6475 23.9181 20.5018 22.7724 19.0905 22.7724Z" fill="url(#paint8_radial_94_17760)"/><g id="Group_12" opacity="0.1"><path id="Vector_33" opacity="0.1" d="M24 6.18808C33.9102 6.18808 41.9466 14.196 41.9979 24.0939C41.9979 24.0632 41.9997 24.0325 41.9997 24C41.9997 14.0591 33.9409 6 24 6C14.0591 6 6 14.0591 6 24C6 24.0307 6.00215 24.0614 6.00215 24.0939C6.05308 14.196 14.0898 6.18808 24 6.18808Z" fill="white"/><path id="Vector_34" opacity="0.1" d="M41.9979 23.9058C41.9466 33.8037 33.9102 41.8116 24 41.8116C14.0898 41.8116 6.05308 33.8037 6.00215 23.9058C6.00215 23.9386 6 23.9693 6 24C6 33.9409 14.0591 41.9997 24 41.9997C33.9409 41.9997 41.9997 33.9409 41.9997 24C41.9997 23.9693 41.9979 23.9386 41.9979 23.9058Z" fill="#263238"/></g><path id="Vector_35" d="M24 42C33.9411 42 42 33.9411 42 24C42 14.0589 33.9411 6 24 6C14.0589 6 6 14.0589 6 24C6 33.9411 14.0589 42 24 42Z" fill="url(#paint9_radial_94_17760)"/></g></g><defs><filter id="filter0_d_94_17760" x="27.6533" y="14.3977" width="11.3237" height="13.6749" filterUnits="userSpaceOnUse" color-interpolation-filters="sRGB"><feFlood flood-opacity="0" result="BackgroundImageFix"/><feColorMatrix in="SourceAlpha" values="0 0 0 0 0 0 0 0 0 0 0 0 0 0 0 0 0 0 127 0" result="hardAlpha"/><feOffset dy="2"/><feGaussianBlur stdDeviation="2"/><feColorMatrix values="0 0 0 0 0 0 0 0 0 0 0 0 0 0 0 0 0 0 0.2 0"/><feBlend in2="BackgroundImageFix" result="effect1_dropShadow_94_17760"/><feBlend in="SourceGraphic" in2="effect1_dropShadow_94_17760" result="shape"/></filter><filter id="filter1_d_94_17760" x="10.2329" y="18.2157" width="11.8354" height="14.5481" filterUnits="userSpaceOnUse" color-interpolation-filters="sRGB"><feFlood flood-opacity="0" result="BackgroundImageFix"/><feColorMatrix in="SourceAlpha" values="0 0 0 0 0 0 0 0 0 0 0 0 0 0 0 0 0 0 127 0" result="hardAlpha"/><feOffset dy="2"/><feGaussianBlur stdDeviation="2"/><feColorMatrix values="0 0 0 0 0 0 0 0 0 0 0 0 0 0 0 0 0 0 0.1 0"/><feBlend in2="BackgroundImageFix" result="effect1_dropShadow_94_17760"/><feBlend in="SourceGraphic" in2="effect1_dropShadow_94_17760" result="shape"/></filter><linearGradient id="paint0_linear_94_17760" x1="35.4365" y1="18.6235" x2="35.4365" y2="23.0333" gradientUnits="userSpaceOnUse"><stop stop-color="#212121" stop-opacity="0.04"/><stop offset="0.66" stop-color="#212121" stop-opacity="0"/></linearGradient><radialGradient id="paint1_radial_94_17760" cx="0" cy="0" r="1" gradientUnits="userSpaceOnUse" gradientTransform="translate(21.901 17.346) scale(9.61039)"><stop stop-color="white" stop-opacity="0.1"/><stop offset="1" stop-color="white" stop-opacity="0"/></radialGradient><linearGradient id="paint2_linear_94_17760" x1="21.5257" y1="16.7498" x2="34.1295" y2="37.5185" gradientUnits="userSpaceOnUse"><stop stop-color="white" stop-opacity="0.1"/><stop offset="1" stop-color="white" stop-opacity="0"/></linearGradient><linearGradient id="paint3_linear_94_17760" x1="21.9668" y1="17.2895" x2="18.7089" y2="15.7035" gradientUnits="userSpaceOnUse"><stop stop-color="#262626" stop-opacity="0.1"/><stop offset="1" stop-color="#262626" stop-opacity="0"/></linearGradient><linearGradient id="paint4_linear_94_17760" x1="20.662" y1="26.533" x2="11.5055" y2="37.2073" gradientUnits="userSpaceOnUse"><stop stop-color="#262626" stop-opacity="0.1"/><stop offset="1" stop-color="#262626" stop-opacity="0"/></linearGradient><linearGradient id="paint5_linear_94_17760" x1="24" y1="22.5682" x2="15.8181" y2="22.5682" gradientUnits="userSpaceOnUse"><stop stop-color="#262626" stop-opacity="0.1"/><stop offset="1" stop-color="#262626" stop-opacity="0"/></linearGradient><radialGradient id="paint6_radial_94_17760" cx="0" cy="0" r="1" gradientUnits="userSpaceOnUse" gradientTransform="translate(11.216 11.25) scale(35.9903)"><stop stop-color="white" stop-opacity="0.1"/><stop offset="1" stop-color="white" stop-opacity="0"/></radialGradient><linearGradient id="paint7_linear_94_17760" x1="18.5981" y1="22.784" x2="18.5981" y2="27.8721" gradientUnits="userSpaceOnUse"><stop stop-color="#212121" stop-opacity="0.04"/><stop offset="0.66" stop-color="#212121" stop-opacity="0"/></linearGradient><radialGradient id="paint8_radial_94_17760" cx="0" cy="0" r="1" gradientUnits="userSpaceOnUse" gradientTransform="translate(9.778 21.31) scale(11.0889)"><stop stop-color="white" stop-opacity="0.1"/><stop offset="1" stop-color="white" stop-opacity="0"/></radialGradient><radialGradient id="paint9_radial_94_17760" cx="0" cy="0" r="1" gradientUnits="userSpaceOnUse" gradientTransform="translate(11.216 11.25) scale(35.9903)"><stop stop-color="white" stop-opacity="0.1"/><stop offset="1" stop-color="white" stop-opacity="0"/></radialGradient></defs></svg>