<svg width="48" height="48" viewBox="0 0 48 48" fill="none" xmlns="http://www.w3.org/2000/svg"><g id="google-assistant-Icon"><g id="Group"><path id="Vector" d="M15.8182 7.63647C13.2142 7.63647 10.7169 8.67089 8.87568 10.5122C7.03441 12.3534 6 14.8507 6 17.4547C6 20.0586 7.03441 22.5559 8.87568 24.3972C10.7169 26.2384 13.2142 27.2728 15.8182 27.2728C18.4221 27.2728 20.9194 26.2384 22.7607 24.3972C24.602 22.5559 25.6364 20.0586 25.6364 17.4547C25.6364 14.8507 24.602 12.3534 22.7607 10.5122C20.9194 8.67089 18.4221 7.63647 15.8182 7.63647Z" fill="#4285F4"/><path id="Vector_2" d="M32.1824 28.9092C30.6634 28.9092 29.2066 29.5126 28.1326 30.5867C27.0585 31.6607 26.4551 33.1175 26.4551 34.6365C26.4551 36.1554 27.0585 37.6122 28.1326 38.6862C29.2066 39.7603 30.6634 40.3637 32.1824 40.3637C33.7013 40.3637 35.1581 39.7603 36.2321 38.6862C37.3062 37.6122 37.9096 36.1554 37.9096 34.6365C37.9096 33.1175 37.3062 31.6607 36.2321 30.5867C35.1581 29.5126 33.7013 28.9092 32.1824 28.9092Z" fill="#FBBC04"/><path id="Vector_3" d="M32.1816 17.4546C30.8796 17.4546 29.6309 17.9718 28.7103 18.8924C27.7897 19.8131 27.2725 21.0617 27.2725 22.3637C27.2725 23.6657 27.7897 24.9143 28.7103 25.8349C29.6309 26.7556 30.8796 27.2728 32.1816 27.2728C33.4835 27.2728 34.7322 26.7556 35.6528 25.8349C36.5734 24.9143 37.0906 23.6657 37.0906 22.3637C37.0906 21.0617 36.5734 19.8131 35.6528 18.8924C34.7322 17.9718 33.4835 17.4546 32.1816 17.4546Z" fill="#EA4335"/><path id="Vector_4" d="M39.5454 14.1819C38.8944 14.1819 38.2701 14.4405 37.8097 14.9008C37.3494 15.3611 37.0908 15.9854 37.0908 16.6364C37.0908 17.2874 37.3494 17.9117 37.8097 18.3721C38.2701 18.8324 38.8944 19.091 39.5454 19.091C40.1964 19.091 40.8207 18.8324 41.281 18.3721C41.7413 17.9117 41.9999 17.2874 41.9999 16.6364C41.9999 15.9854 41.7413 15.3611 41.281 14.9008C40.8207 14.4405 40.1964 14.1819 39.5454 14.1819Z" fill="#34A853"/></g></g></svg>