<svg width="48" height="48" viewBox="0 0 48 48" fill="none" xmlns="http://www.w3.org/2000/svg"><g id="google-drive-Icon"><g id="Group"><path id="Vector" d="M8.72165 35.567L10.3093 38.3092C10.6392 38.8866 11.1134 39.3402 11.6701 39.6701L17.3402 29.8556H6C6 30.4948 6.16494 31.134 6.49484 31.7113L8.72165 35.567Z" fill="#0066DA"/><path id="Vector_2" d="M24 18.3092L18.3299 8.49475C17.7732 8.82465 17.299 9.27826 16.9691 9.85557L6.49484 27.9999C6.17101 28.5648 6.00043 29.2045 6 29.8556H17.3402L24 18.3092Z" fill="#00AC47"/><path id="Vector_3" d="M36.3301 39.6701C36.8868 39.3402 37.361 38.8866 37.6909 38.3092L38.3507 37.1752L41.5054 31.7113C41.8353 31.134 42.0002 30.4948 42.0002 29.8556H30.6592L33.0724 34.5979L36.3301 39.6701Z" fill="#EA4335"/><path id="Vector_4" d="M24.0002 18.3093L29.6703 8.49485C29.1136 8.16495 28.4744 8 27.8146 8H20.1857C19.526 8 18.8868 8.18557 18.3301 8.49485L24.0002 18.3093Z" fill="#00832D"/><path id="Vector_5" d="M30.6596 29.8556H17.34L11.6699 39.6701C12.2266 40 12.8658 40.1649 13.5256 40.1649H34.474C35.1338 40.1649 35.773 39.9794 36.3297 39.6701L30.6596 29.8556Z" fill="#2684FC"/><path id="Vector_6" d="M36.268 18.9277L31.0309 9.85557C30.701 9.27826 30.2268 8.82465 29.6701 8.49475L24 18.3092L30.6598 29.8556H41.9794C41.9794 29.2164 41.8144 28.5772 41.4845 27.9999L36.268 18.9277Z" fill="#FFBA00"/></g></g></svg>