<svg width="48" height="48" viewBox="0 0 48 48" fill="none" xmlns="http://www.w3.org/2000/svg"><g id="google-data-studio-Icon"><g id="Group"><path id="Vector" d="M36.0025 30.7618H24.3828C21.5727 30.7618 19.999 32.7288 19.999 34.8224C19.999 36.7543 21.3338 38.8829 24.3828 38.8829H36.0025V30.7618Z" fill="#669DF6"/><path id="Vector_2" d="M36.0022 38.876C38.2099 38.876 39.9996 37.058 39.9996 34.8154C39.9996 32.5728 38.2099 30.7548 36.0022 30.7548C33.7946 30.7548 32.0049 32.5728 32.0049 34.8154C32.0049 37.058 33.7946 38.876 36.0022 38.876Z" fill="#1A73E8"/><path id="Vector_3" d="M24.0035 19.9358H12.3838C9.57366 19.9358 8 21.9029 8 23.9964C8 25.9283 9.3348 28.057 12.3838 28.057H24.0035V19.9358Z" fill="#669DF6"/><path id="Vector_4" d="M24.0032 28.057C26.2109 28.057 28.0006 26.239 28.0006 23.9964C28.0006 21.7538 26.2109 19.9358 24.0032 19.9358C21.7955 19.9358 20.0059 21.7538 20.0059 23.9964C20.0059 26.239 21.7955 28.057 24.0032 28.057Z" fill="#1A73E8"/><path id="Vector_5" d="M36.0025 9.11701H24.3828C21.5727 9.11701 19.999 11.0841 19.999 13.1776C19.999 15.1095 21.3338 17.2382 24.3828 17.2382H36.0025V9.11701Z" fill="#669DF6"/><path id="Vector_6" d="M36.0022 17.2382C38.2099 17.2382 39.9996 15.4202 39.9996 13.1776C39.9996 10.935 38.2099 9.11701 36.0022 9.11701C33.7946 9.11701 32.0049 10.935 32.0049 13.1776C32.0049 15.4202 33.7946 17.2382 36.0022 17.2382Z" fill="#1A73E8"/></g></g></svg>