<svg width="48" height="48" viewBox="0 0 48 48" fill="none" xmlns="http://www.w3.org/2000/svg"><g id="google-arcore-Icon"><g id="Group"><path id="Vector" fill-rule="evenodd" clip-rule="evenodd" d="M24.3923 17.0459C21.8143 17.0459 19.5758 18.4496 18.3647 20.523L23.1079 23.2569C23.906 23.7156 24.8785 23.7156 25.6767 23.2569L30.4106 20.523C29.218 18.4404 26.9702 17.0459 24.3923 17.0459V17.0459Z" fill="#E1BEE7"/><path id="Vector_2" fill-rule="evenodd" clip-rule="evenodd" d="M23.1081 23.2569L18.365 20.5229C17.7686 21.5505 17.4292 22.734 17.4292 24C17.4292 27.844 20.5393 30.9541 24.3833 30.9541C28.2274 30.9541 31.3375 27.844 31.3375 24C31.3375 22.734 30.998 21.5413 30.4017 20.5229L25.6677 23.2569C24.8879 23.7156 23.9063 23.7156 23.1081 23.2569Z" fill="#FAFAFA"/><path id="Vector_3" fill-rule="evenodd" clip-rule="evenodd" d="M39.0985 32.4954L30.4196 27.4771C29.2178 29.5596 26.9701 30.9541 24.3921 30.9541V41.9908C24.8049 41.9908 25.2086 41.8807 25.5756 41.6697L39.1077 33.8532C39.1077 33.8532 39.1169 33.8532 39.1169 33.844C39.6398 33.5504 39.6214 32.789 39.0985 32.4954V32.4954Z" fill="#7B1FA2"/><path id="Vector_4" fill-rule="evenodd" clip-rule="evenodd" d="M24.3923 30.9541C21.8144 30.9541 19.5666 29.5596 18.3648 27.4771L8.80518 33C9.00701 33.3578 9.30976 33.6514 9.66756 33.8624L23.1997 41.6789C23.5666 41.8899 23.9703 42 24.3832 42V30.9541H24.3923Z" fill="#4A148C"/><path id="Vector_5" fill-rule="evenodd" clip-rule="evenodd" d="M24.3919 17.046V6.00928C23.9791 6.00928 23.5754 6.11937 23.2085 6.33038L9.67635 14.1469C9.30938 14.3579 9.0158 14.6607 8.81396 15.0093L18.3736 20.5322C19.5754 18.4405 21.8231 17.046 24.3919 17.046V17.046Z" fill="#7B1FA2"/><path id="Vector_6" fill-rule="evenodd" clip-rule="evenodd" d="M39.1169 14.1468C39.1169 14.1468 39.1077 14.1468 39.1077 14.1376L25.5756 6.3211C25.2086 6.11009 24.8049 6 24.3921 6V17.0367C26.9701 17.0367 29.2178 18.4312 30.4196 20.5138L39.0985 15.5046C39.6214 15.211 39.6398 14.4495 39.1169 14.1468V14.1468Z" fill="#4A148C"/><path id="Vector_7" fill-rule="evenodd" clip-rule="evenodd" d="M17.438 24C17.438 22.7339 17.7775 21.5413 18.3646 20.5229L8.80499 15C8.60315 15.3578 8.48389 15.7615 8.48389 16.1835V31.8073C8.48389 32.2294 8.59398 32.633 8.80499 32.9908L18.3646 27.4679C17.7775 26.4587 17.438 25.2661 17.438 24Z" fill="#BA68C8"/><path id="Vector_8" fill-rule="evenodd" clip-rule="evenodd" d="M30.4195 27.4771C29.2177 29.5596 26.9699 30.9541 24.4011 30.9541C23.3736 30.9541 22.392 30.7248 21.5112 30.3303L33.3736 37.1835L39.1167 33.8715C39.6488 33.5688 39.6488 32.7982 39.1167 32.4954L30.4195 27.4771Z" fill="url(#paint0_linear_94_19262)"/></g></g><defs><linearGradient id="paint0_linear_94_19262" x1="35.9614" y1="37.0489" x2="32.2983" y2="24.4456" gradientUnits="userSpaceOnUse"><stop stop-color="#1A237E" stop-opacity="0.01"/><stop offset="1" stop-color="#1A237E" stop-opacity="0.3"/></linearGradient></defs></svg>