<svg width="48" height="48" viewBox="0 0 48 48" fill="none" xmlns="http://www.w3.org/2000/svg"><g id="google-play-Icon"><g id="Group" filter="url(#filter0_ii_94_17662)"><path id="Vector" d="M10.2128 8.494C9.85071 8.8772 9.63672 9.47189 9.63672 10.242V37.7572C9.63672 38.5286 9.85071 39.122 10.2128 39.5052L10.3048 39.5948L25.7184 24.1813V23.9996V23.818L10.3048 8.40318L10.2128 8.494Z" fill="url(#paint0_linear_94_17662)"/><path id="Vector_2" d="M30.8558 29.3208L25.7187 24.1813V23.9997V23.818L30.857 18.6797L30.9727 18.7457L37.0603 22.2044C38.7983 23.1922 38.7983 24.8083 37.0603 25.7974L30.9727 29.2561L30.8558 29.3208Z" fill="url(#paint1_linear_94_17662)"/><g id="Vector_3" filter="url(#filter1_i_94_17662)"><path d="M30.9725 29.2548L25.7173 23.9996L10.2129 39.5052C10.7852 40.1124 11.732 40.187 12.7982 39.5824L30.9725 29.2548Z" fill="url(#paint2_linear_94_17662)"/></g><path id="Vector_4" d="M30.9725 18.7444L12.7982 8.41812C11.732 7.81223 10.7852 7.88812 10.2129 8.49526L25.7185 24.0009L30.9725 18.7444Z" fill="url(#paint3_linear_94_17662)"/></g></g><defs><filter id="filter0_ii_94_17662" x="9.63672" y="8" width="28.7271" height="32" filterUnits="userSpaceOnUse" color-interpolation-filters="sRGB"><feFlood flood-opacity="0" result="BackgroundImageFix"/><feBlend in="SourceGraphic" in2="BackgroundImageFix" result="shape"/><feColorMatrix in="SourceAlpha" values="0 0 0 0 0 0 0 0 0 0 0 0 0 0 0 0 0 0 127 0" result="hardAlpha"/><feOffset dy="-0.15"/><feComposite in2="hardAlpha" operator="arithmetic" k2="-1" k3="1"/><feColorMatrix values="0 0 0 0 0 0 0 0 0 0 0 0 0 0 0 0 0 0 0.12 0"/><feBlend in2="shape" result="effect1_innerShadow_94_17662"/><feColorMatrix in="SourceAlpha" values="0 0 0 0 0 0 0 0 0 0 0 0 0 0 0 0 0 0 127 0" result="hardAlpha"/><feOffset dy="0.15"/><feComposite in2="hardAlpha" operator="arithmetic" k2="-1" k3="1"/><feColorMatrix values="0 0 0 0 1 0 0 0 0 1 0 0 0 0 1 0 0 0 0.25 0"/><feBlend in2="effect1_innerShadow_94_17662" result="effect2_innerShadow_94_17662"/></filter><filter id="filter1_i_94_17662" x="10.2129" y="23.9996" width="20.7598" height="16.0004" filterUnits="userSpaceOnUse" color-interpolation-filters="sRGB"><feFlood flood-opacity="0" result="BackgroundImageFix"/><feBlend in="SourceGraphic" in2="BackgroundImageFix" result="shape"/><feColorMatrix in="SourceAlpha" values="0 0 0 0 0 0 0 0 0 0 0 0 0 0 0 0 0 0 127 0" result="hardAlpha"/><feOffset dy="-0.15"/><feComposite in2="hardAlpha" operator="arithmetic" k2="-1" k3="1"/><feColorMatrix values="0 0 0 0 0 0 0 0 0 0 0 0 0 0 0 0 0 0 0.08 0"/><feBlend in2="shape" result="effect1_innerShadow_94_17662"/></filter><linearGradient id="paint0_linear_94_17662" x1="24.3521" y1="9.95088" x2="3.47304" y2="30.8299" gradientUnits="userSpaceOnUse"><stop stop-color="#00A0FF"/><stop offset="0.0066" stop-color="#00A1FF"/><stop offset="0.2601" stop-color="#00BEFF"/><stop offset="0.5122" stop-color="#00D2FF"/><stop offset="0.7604" stop-color="#00DFFF"/><stop offset="1" stop-color="#00E3FF"/></linearGradient><linearGradient id="paint1_linear_94_17662" x1="39.3227" y1="23.9997" x2="9.21983" y2="23.9997" gradientUnits="userSpaceOnUse"><stop stop-color="#FFE000"/><stop offset="0.4087" stop-color="#FFBD00"/><stop offset="0.7754" stop-color="#FFA500"/><stop offset="1" stop-color="#FF9C00"/></linearGradient><linearGradient id="paint2_linear_94_17662" x1="28.1186" y1="26.8535" x2="-0.196007" y2="55.1681" gradientUnits="userSpaceOnUse"><stop stop-color="#FF3A44"/><stop offset="1" stop-color="#C31162"/></linearGradient><linearGradient id="paint3_linear_94_17662" x1="6.30806" y1="-0.664287" x2="18.9513" y2="11.979" gradientUnits="userSpaceOnUse"><stop stop-color="#32A071"/><stop offset="0.0685" stop-color="#2DA771"/><stop offset="0.4762" stop-color="#15CF74"/><stop offset="0.8009" stop-color="#06E775"/><stop offset="1" stop-color="#00F076"/></linearGradient></defs></svg>