<svg width="48" height="48" viewBox="0 0 48 48" fill="none" xmlns="http://www.w3.org/2000/svg"><g id="google-meet-Icon"><g id="Group"><path id="Vector" d="M26.3657 23.8115L29.8752 27.8229L34.5943 30.8387L35.4172 23.8382L34.5943 16.992L29.7847 19.6416L26.3657 23.8115Z" fill="#00832D"/><path id="Vector_2" d="M6 30.1886V36.1543C6 37.5182 7.10469 38.6229 8.46858 38.6229H14.4343L15.6686 34.1137L14.4343 30.1886L10.3406 28.9543L6 30.1886Z" fill="#0066DA"/><path id="Vector_3" d="M14.4343 9L6 17.4343L10.3406 18.6686L14.4343 17.4343L15.648 13.5607L14.4343 9Z" fill="#E94235"/><path id="Vector_4" d="M14.4343 17.4343H6V30.1886H14.4343V17.4343Z" fill="#2684FC"/><path id="Vector_5" d="M39.9818 12.5712L34.5941 16.992V30.8387L40.0044 35.276C40.815 35.9096 41.9999 35.3315 41.9999 34.3029V13.5258C41.9999 12.4828 40.7882 11.9109 39.9818 12.5712ZM26.3655 23.8115V30.1886H14.4341V38.623H32.1256C33.4894 38.623 34.5941 37.5183 34.5941 36.1544V30.8387L26.3655 23.8115Z" fill="#00AC47"/><path id="Vector_6" d="M32.1256 9H14.4341V17.4343H26.3655V23.8115L34.5941 16.992V11.4686C34.5941 10.1047 33.4894 9 32.1256 9Z" fill="#FFBA00"/></g></g></svg>