<svg width="48" height="48" viewBox="0 0 48 48" fill="none" xmlns="http://www.w3.org/2000/svg"><g id="google-ad-manager-Icon"><g id="Group"><path id="Vector" d="M40.3488 25.5432L26.2269 39.6652C24.9386 40.9535 22.8488 40.9535 21.5605 39.6652C20.2708 38.3769 20.2722 36.2871 21.5605 34.9988L35.6838 20.8754C36.9722 19.5871 39.0619 19.5871 40.3502 20.8754C41.6385 22.1652 41.6385 24.2535 40.3488 25.5432Z" fill="#FBBC04"/><path id="Vector_2" d="M26.2269 39.6662C27.5158 38.3773 27.5158 36.2876 26.2269 34.9987C24.938 33.7098 22.8483 33.7098 21.5594 34.9987C20.2704 36.2876 20.2705 38.3773 21.5594 39.6662C22.8483 40.9551 24.938 40.9551 26.2269 39.6662Z" fill="#34A853"/><path id="Vector_3" d="M28.7289 13.9217L21.6665 20.9827L26.3329 25.6491L33.3953 18.5881C34.6836 17.2998 34.6836 15.21 33.3953 13.9217C32.1056 12.632 30.0172 12.632 28.7289 13.9217Z" fill="#FBBC04"/><path id="Vector_4" d="M19.2718 32.7114L26.3327 25.6505L21.6664 20.9841L14.6054 28.0451C13.3171 29.3334 13.3171 31.4231 14.6054 32.7114C15.8937 33.9998 17.9835 33.9998 19.2718 32.7114Z" fill="#3B80EF"/><path id="Vector_5" d="M26.3495 25.6344C27.6384 24.3455 27.6384 22.2557 26.3495 20.9668C25.0605 19.6779 22.9708 19.6779 21.6819 20.9668C20.393 22.2557 20.393 24.3455 21.6819 25.6344C22.9708 26.9233 25.0605 26.9233 26.3495 25.6344Z" fill="#34A853"/><path id="Vector_6" d="M26.44 11.633L12.3167 25.7563C11.0284 27.0446 8.93861 27.0446 7.65031 25.7563C6.36201 24.468 6.36201 22.3782 7.65031 21.0899L21.7737 6.96658C23.062 5.67828 25.1517 5.67828 26.44 6.96658C27.7283 8.25488 27.7283 10.3447 26.44 11.633Z" fill="#3B80EF"/><path id="Vector_7" d="M24.1061 12.601C25.9289 12.601 27.4066 11.1233 27.4066 9.30048C27.4066 7.47768 25.9289 6 24.1061 6C22.2833 6 20.8057 7.47768 20.8057 9.30048C20.8057 11.1233 22.2833 12.601 24.1061 12.601Z" fill="#34A853"/></g></g></svg>