<svg width="48" height="48" viewBox="0 0 48 48" fill="none" xmlns="http://www.w3.org/2000/svg"><g id="grunt-Icon"><g id="Group"><path id="Vector" d="M12.373 14.7497C12.373 14.7497 12.9895 17.1276 13.0774 17.9204C13.1656 18.7129 11.4922 20.4743 11.4922 21.3551C11.4922 22.2359 11.844 23.8211 13.7818 24.6139C15.7197 25.4065 15.9836 27.4321 15.9836 28.6653C15.9836 29.8983 15.2792 32.276 15.2792 32.276C15.2792 32.276 14.839 38.1767 17.2167 39.2335C19.5943 40.2902 19.0661 40.2902 19.5943 40.2902C20.1226 40.2902 23.998 41.8759 26.2876 41.2593C28.5775 40.6428 29.1936 39.9384 29.1936 39.9384C29.1936 39.9384 31.4837 40.1143 32.1881 38.0885C32.893 36.0631 33.3331 31.8358 33.0688 29.8981C32.8045 27.9603 32.4524 25.4067 34.0375 24.5258C35.6231 23.645 37.2963 22.5885 37.032 21.7076C36.7678 20.8268 35.359 19.5937 35.359 19.5937C35.359 19.5937 35.0066 17.3922 35.2707 16.8637C35.5347 16.3353 37.1201 15.0139 36.2394 14.0453C35.3591 13.0766 33.7733 13.0766 33.7733 13.0766L31.7479 13.2525C31.7479 13.2525 28.3132 10.1702 23.8216 10.3463C19.3302 10.5225 16.5117 13.2525 16.5117 13.2525C16.5117 13.2525 15.0147 12.7241 13.6935 13.2525C12.3723 13.7811 12.1089 13.2524 12.373 14.7497Z" fill="#FBA919"/><path id="Vector_2" d="M20.4205 27.8625C20.4205 27.8625 18.6764 30.5292 17.3972 32.4217C17.1992 32.7144 18.6764 32.7347 18.6764 32.7347L20.4205 27.8625Z" fill="#E78724"/><path id="Vector_3" d="M21.2509 22.3336C21.2509 22.3336 20.7251 23.6452 20.4371 24.3405C20.1245 25.0964 18.9326 25.4724 18.9326 25.4724C18.9326 25.4724 19.5504 24.8244 19.5504 23.1828C19.5504 22.494 20.4396 22.2202 20.4396 22.2202L21.2509 22.3336Z" fill="#E78724"/><path id="Vector_4" d="M20.7195 23.0752C20.7195 23.0752 19.6424 24.3574 17.6424 23.6393C15.6421 22.9214 15.437 20.3568 15.437 19.6387C15.437 18.9206 19.2324 20.3568 19.7454 20.6646C20.2585 20.9723 21.2323 22.2031 20.7195 23.0752Z" fill="#E78724"/><path id="Vector_5" d="M13.165 9.37433C13.165 9.37433 15.0113 9.01507 16.2421 9.98968C17.4734 10.9641 17.8319 11.7336 17.8319 11.7336L15.7573 13.3782C15.7573 13.3782 14.7549 12.9134 14.4471 11.5797C14.1394 10.2462 14.3446 9.63085 13.165 9.37433Z" fill="#E78724"/><path id="Vector_6" d="M20.181 19.3716C19.3861 18.2433 18.0761 17.7511 17.0301 17.6695C15.2466 17.53 14.3999 18.1605 14.3999 18.1605C14.3999 18.1605 17.3208 18.2842 18.1627 19.3899C19.73 21.4479 22.0164 21.6151 22.382 21.1631C21.9592 21.1842 21.4941 20.9747 20.9964 20.504C20.6853 20.2096 20.4332 19.7298 20.181 19.3716Z" fill="#E78724"/><path id="Vector_7" d="M15.2507 23.3615C15.2507 23.3615 12.0098 22.2474 12.6258 21.1193C13.2412 19.9908 12.7513 19.376 12.7513 19.376C12.7513 19.376 10.9417 20.7268 11.4029 22.1628C11.6863 23.0442 12.1617 23.6823 14.7723 24.9058C16.0245 27.2317 15.0309 31.4182 15.0904 31.4379C15.1896 31.4709 16.8486 30.6179 16.7353 26.7011C16.7008 25.4984 16.6046 23.8564 15.2507 23.3615Z" fill="#E78724"/><path id="Vector_8" d="M19.4974 11.3812C18.1385 12.0716 16.2769 13.033 16.2769 13.033L17.0096 13.3995C16.9396 13.5128 16.9059 13.5804 16.9059 13.5804L17.6579 13.9223C17.6579 13.9223 19.4937 15.2522 20.6186 16.1072C20.2435 14.9524 19.1426 13.1382 19.1426 13.1382C19.1426 13.1382 18.8307 12.3046 19.4974 11.3812Z" fill="#E78724"/><path id="Vector_9" d="M24.0115 39.5222C19.8347 39.5222 18.4199 37.4018 18.4199 37.4018L19.0727 38.9913C19.3194 39.679 21.9515 41.8188 24.0051 41.8188" fill="#E78724"/><path id="Vector_10" d="M18.8779 35.969C18.8779 35.969 19.2622 38.3176 20.8009 38.3176C22.1085 38.3176 22.4937 36.3338 22.4937 35.9238L18.8779 35.969Z" fill="#E78724"/><path id="Vector_11" d="M16.3171 32.4271C16.4538 32.0507 16.9325 30.5292 17.0863 29.1445C17.2706 27.4861 17.2034 25.0605 17.2034 25.0605C17.2034 25.0605 16.7929 26.6505 16.4338 26.9074C16.075 27.1637 15.4081 28.9073 15.4081 28.9073C15.4081 28.9073 15.0509 31.5033 14.8809 32.3758C15.3513 32.47 15.7475 32.1928 16.3171 32.4271Z" fill="#E78724"/><path id="Vector_12" d="M12.6013 22.1372C12.6013 22.1372 13.4729 21.8292 13.7297 19.9318C13.986 18.034 13.4217 16.3927 13.4217 16.3927C13.4217 16.3927 13.4729 19.0084 13.1654 19.5215C12.8574 20.0342 12.6013 20.1881 12.242 20.855C11.8828 21.5221 12.3958 21.9319 12.6013 22.1372Z" fill="#E78724"/><path id="Vector_13" d="M13.6421 9.82314L13.4641 9.71041C12.9394 9.72814 13.6421 9.82314 13.6421 9.82314Z" fill="#FDC168"/><path id="Vector_14" d="M20.2068 10.8194C20.2068 10.8194 19.3864 10.6827 18.9758 10.0673C18.5653 9.45176 17.403 8.22064 15.5499 8.20688C13.697 8.19302 11.8638 8.6994 11.8638 8.6994L13.464 9.71054C13.6333 9.70506 13.9293 9.70732 14.4187 9.72365C16.427 9.79039 16.7362 11.7769 16.7362 11.7769L23.814 10.8023" fill="#FBA919"/><path id="Vector_15" d="M20.8906 21.7912C20.8906 21.7912 19.9331 22.7487 18.4626 22.4407C16.9922 22.1331 16.103 21.4834 16.0347 20.3549C15.9663 19.2265 16.3427 18.782 16.3427 18.782C16.3427 18.782 17.9838 19.2953 18.7706 19.9792C19.5571 20.6629 20.1382 21.7571 20.8906 21.7912Z" fill="white"/><path id="Vector_16" d="M19.732 21.4491C19.732 21.4491 18.9017 21.8285 17.9735 21.5195C16.7585 21.1143 16.6776 19.8507 16.6776 19.8507C16.6776 19.8507 15.9322 22.038 18.0219 22.4591C19.6981 22.7967 20.6893 21.8255 20.6893 21.8255L19.732 21.4491Z" fill="#C9C9C9"/><path id="Vector_17" d="M20.3221 10.3554C20.2328 8.47945 21.7706 6.98535 22.3034 6.92173C22.3329 7.23962 22.2738 8.47955 22.8065 8.86084C22.9616 7.84809 23.486 6.73152 25.5568 6C25.1133 7.17632 25.4976 8.16167 25.6806 8.6184C27.0948 7.33483 28.0476 7.54697 28.0476 7.54697C28.0476 7.54697 27.065 9.24245 27.4493 10.3549C24.6105 10.1324 20.336 10.6566 20.3221 10.3554Z" fill="#463014"/><path id="Vector_18" d="M14.3039 13.2127C13.6266 12.6508 14.1314 12.1293 14.0779 11.4908C14.0488 11.1511 14.0219 10.8306 13.9099 10.6538C13.2866 9.66949 11.8162 9.37085 11.8015 9.36773L11.1113 9.23254L11.5682 8.69811C11.6274 8.62891 13.5035 6.83885 16.4068 7.77617C18.4377 8.43117 19.9411 10.6523 19.9971 10.742L18.9788 11.2209C18.9668 11.202 17.7783 9.11422 16.0359 8.55239C14.6275 8.09792 13.3294 8.53025 12.7734 8.81364C13.3645 9.04963 14.1372 9.47939 14.6029 10.2146C14.8225 10.5618 14.8596 10.999 14.8954 11.4223C14.9426 11.9827 14.9868 12.5117 15.3992 12.8543L14.3039 13.2127Z" fill="#463014"/><path id="Vector_19" d="M12.4946 21.4159C12.4946 21.4159 13.348 20.3577 13.6008 18.2986C13.7001 17.4875 13.5237 15.8878 13.2415 15.2724C13.2928 16.7854 12.9082 18.2986 12.9082 18.2986C12.9082 18.2986 12.6488 21.1082 12.4946 21.4159Z" fill="#463014"/><path id="Vector_20" d="M16.9948 12.144C16.9944 12.1417 16.721 10.947 15.963 10.3439C14.8939 9.49346 13.5884 9.94589 13.5758 9.94986L13.3862 9.36428C13.4494 9.34376 14.9416 8.8736 16.3167 9.84025C17.7001 10.8124 17.8661 11.6936 17.8805 11.791L16.9948 12.144Z" fill="#463014"/><path id="Vector_21" d="M15.1747 20.657C15.1747 20.657 14.727 20.0161 14.8075 19.3113C14.8476 18.9632 15.0089 18.6058 15.2969 18.479C15.8321 18.2439 16.0693 18.8505 16.0693 18.8505C16.0693 18.8505 15.3161 19.0365 15.1747 20.657Z" fill="#463014"/><path id="Vector_22" d="M20.0909 21.6339C20.1096 21.6688 20.1192 21.6883 20.1192 21.6883C20.1192 21.6883 18.7228 22.7363 17.2917 21.6729C16.5257 21.1031 16.598 19.6937 16.8327 19.096C17.443 19.2343 17.9606 19.4836 18.3933 19.7747C17.8465 19.2867 17.3679 18.9274 17.3691 18.9192L16.7477 18.7433L15.5398 18.3291C15.5243 18.4212 15.0837 20.4863 16.3554 21.8935C16.9191 22.5174 19.5617 23.9147 20.8163 21.5255L20.0909 21.6339Z" fill="#463014"/><path id="Vector_23" d="M19.9598 21.7875C20.746 22.9841 22.7297 22.3003 22.6955 21.0352C22.6955 21.0352 21.3701 21.7667 20.199 20.4198C19.5153 19.6335 17.3245 17.4654 14.3535 18.186C16.4052 18.6371 19.1214 20.5116 19.9598 21.7875Z" fill="#463014"/><path id="Vector_24" d="M14.0761 25.1647C14.2652 25.274 14.9323 25.9648 14.9327 26.9979C14.9327 27.516 14.8811 30.1187 14.6247 31.7088C15.0104 31.9594 15.2791 32.0127 15.6632 32.2682C15.8554 30.4266 15.9933 27.7576 15.929 26.6802C15.8555 25.4519 15.1979 24.6277 14.5881 24.2762C14.3971 24.1663 14.1975 24.0583 13.9966 23.9497C12.952 23.3853 11.8719 22.8014 11.8719 21.8044C11.8719 21.0246 12.175 20.7806 12.496 20.5221L12.5306 20.494C12.7436 20.322 12.9847 20.1268 13.1275 19.8063C13.5172 18.9302 13.5809 16.6983 13.1275 16.1318C12.9015 15.8495 12.2959 14.9001 12.47 14.2622C12.5363 14.0187 12.6897 13.8382 12.9393 13.7104C13.2035 13.5751 13.5604 13.5065 13.9997 13.5065C14.8627 13.5065 15.8197 13.7691 16.3135 13.9255C18.078 14.4848 20.2071 16.0972 20.8174 16.5781C20.8349 16.5915 20.8453 16.5994 20.8471 16.6006L21.2376 16.8722L20.9933 16.4635C20.9783 16.438 19.4314 13.8946 16.6656 12.962C16.1275 12.7806 15.0704 12.4761 14.0315 12.4761C13.4129 12.4761 12.8881 12.5841 12.4725 12.7969C11.966 13.056 11.623 13.4694 11.4805 13.992C11.1312 15.2731 12.2688 16.6995 12.3075 16.7451C12.4402 16.9818 12.4964 18.7016 12.19 19.3899C12.1479 19.4849 12.0323 19.5783 11.8861 19.6963C11.8403 19.7334 11.789 19.7718 11.7348 19.813C11.3025 20.1393 10.6489 20.6322 10.6489 21.7684C10.6489 23.3232 12.2246 24.1661 13.4909 24.8439C13.6986 24.9557 13.8969 25.0614 14.0761 25.1647Z" fill="#463014"/><path id="Vector_25" d="M14.3039 13.2127C13.6266 12.6508 14.1314 12.1293 14.0779 11.4908C14.0488 11.1511 14.0219 10.8306 13.9099 10.6538C13.2866 9.66949 11.8162 9.37085 11.8015 9.36773L11.1113 9.23254L11.5682 8.69811C11.6274 8.62891 13.5035 6.83885 16.4068 7.77617C18.4377 8.43117 19.9411 10.6523 19.9971 10.742L18.9788 11.2209C18.9668 11.202 17.7783 9.11422 16.0359 8.55239C14.6275 8.09792 13.3294 8.53025 12.7734 8.81364C13.3645 9.04963 14.1372 9.47939 14.6029 10.2146C14.8225 10.5618 14.8596 10.999 14.8954 11.4223C14.9426 11.9827 14.9868 12.5117 15.3992 12.8543L14.3039 13.2127Z" fill="#463014"/><path id="Vector_26" d="M14.282 13.3278L14.2382 13.2916C13.7359 12.8748 13.825 12.4641 13.9113 12.0668C13.9505 11.8835 13.9919 11.6939 13.9752 11.4995C13.9478 11.1726 13.9214 10.8642 13.823 10.7085C13.2295 9.77138 11.7951 9.47112 11.7809 9.46822L10.9189 9.29918L11.4903 8.63117C11.5008 8.61871 12.7053 7.40273 14.7455 7.40273C15.3016 7.40273 15.8714 7.49526 16.4383 7.67838C18.5579 8.36186 20.0701 10.6647 20.0844 10.6875L20.1455 10.7853L18.9409 11.3519L18.8926 11.2751C18.763 11.0542 17.6208 9.17065 16.0051 8.64944C15.6082 8.52134 15.1902 8.45665 14.7628 8.45665C13.9887 8.45665 13.361 8.6676 13.027 8.80924C13.5852 9.0606 14.2621 9.4837 14.6904 10.1592C14.9233 10.5272 14.961 10.9769 14.998 11.4114C15.0434 11.9518 15.0862 12.4598 15.4653 12.7745L15.6083 12.8931L14.282 13.3278Z" fill="#463014"/><path id="Vector_27" d="M16.9948 12.144C16.9944 12.1417 16.721 10.947 15.963 10.3439C14.8939 9.49346 13.5884 9.94589 13.5758 9.94986L13.3862 9.36428C13.4494 9.34376 14.9416 8.8736 16.3167 9.84025C17.7001 10.8124 17.8661 11.6936 17.8805 11.791L16.9948 12.144Z" fill="#463014"/><path id="Vector_28" d="M16.9211 12.2837L16.8944 12.1661C16.8916 12.1546 16.6235 11.0008 15.8987 10.4244C15.4856 10.0955 14.9874 9.92846 14.4188 9.92846C13.9749 9.92846 13.6451 10.0344 13.6091 10.0469L13.5111 10.0795L13.2568 9.29828L13.3543 9.2668C13.398 9.25293 13.7941 9.12946 14.3543 9.12946C15.0933 9.12946 15.7921 9.34632 16.3758 9.75619C17.7938 10.7527 17.9669 11.6742 17.9818 11.7759L17.9942 11.8563L16.9211 12.2837ZM14.4189 9.72363C15.0263 9.72363 15.5826 9.91041 16.0267 10.2635C16.6703 10.7762 16.973 11.6811 17.0646 12.0056L17.7622 11.7275C17.699 11.4812 17.4209 10.742 16.2577 9.92427C15.7011 9.5331 15.061 9.33493 14.3544 9.33493C13.9666 9.33493 13.6654 9.39662 13.5166 9.43423L13.6424 9.82315C13.7884 9.78392 14.0692 9.72363 14.4189 9.72363Z" fill="#463014"/><path id="Vector_29" d="M20.7366 37.7541C20.4335 37.7541 20.1242 37.6442 19.9098 37.4586C19.7457 37.3172 19.1908 36.8075 18.9461 36.183C18.8547 35.9494 18.8752 35.7627 19.0078 35.6282C19.0991 35.5361 19.2887 35.426 19.6735 35.426L19.9473 35.4256C20.2736 35.4252 20.823 35.4252 21.2925 35.4252H21.7426C22.0354 35.4252 22.2453 35.4885 22.3659 35.6119C22.5209 35.7712 22.4713 35.9737 22.428 36.0803C22.3525 36.2671 22.0403 36.8749 21.5118 37.44C21.3226 37.6425 21.0471 37.7541 20.7366 37.7541Z" fill="#463014"/><path id="Vector_30" d="M21.0542 21.8578L19.96 21.7875C19.96 21.7875 20.2397 22.2805 20.4209 22.9182C20.6255 23.6395 20.2338 24.6937 20.2338 24.6937C20.2338 24.6937 21.6927 23.0419 21.0542 21.8578Z" fill="#463014"/><path id="Vector_31" d="M19.6885 40.6433C15.794 40.344 14.4238 36.6641 14.4238 35.8976L15.4409 35.8981L14.9324 35.8976H15.4409C15.4459 36.229 16.4809 39.3768 19.7664 39.6295L19.6885 40.6433Z" fill="#463014"/><path id="Vector_32" d="M18.5935 34.0502C18.5327 33.6985 18.5264 33.3649 18.6006 33.0371C18.3047 32.8147 17.7736 32.732 17.3751 32.6028C17.0492 32.3966 15.3818 32.8142 14.1721 31.3502C12.6564 29.517 12.9753 28.4224 12.9753 28.4224C12.5867 28.8542 12.2101 28.6897 11.6177 30.703C11.0245 32.7167 11.8962 34.1205 13.5207 35.5298C14.2882 36.1955 15.3732 36.4698 16.3064 36.5748C15.9938 36.2609 16.8404 36.2295 17.424 36.0111C17.3774 35.54 17.4554 35.0826 17.8067 34.7143C18.0185 34.4923 18.291 34.3596 18.5737 34.2538C18.5895 34.2173 18.6029 34.1836 18.6179 34.1485C18.6086 34.1165 18.5994 34.0842 18.5935 34.0502Z" fill="white"/><path id="Vector_33" d="M17.4166 35.9989C17.3828 35.9001 17.3573 35.7993 17.3323 35.6978C17.3053 35.587 17.171 35.2731 17.3366 35.6315C17.294 35.5397 17.2662 35.4452 17.2457 35.3498C14.6147 35.3465 12.3258 33.5401 12.768 29.7424C12.4236 29.2851 11.9413 30.6645 11.9413 30.6645C11.9413 30.6645 10.6242 34.4889 14.0259 35.9712C15.1593 36.4656 16.161 36.8199 16.3973 36.6768C16.8896 36.7769 17.334 36.4336 17.5007 36.208C17.4694 36.1386 17.4409 36.0692 17.4166 35.9989Z" fill="#C9C9C9"/><path id="Vector_34" d="M18.5461 33.4995C18.5502 33.179 18.6156 32.8685 18.7706 32.5591C18.7815 32.5378 18.794 32.5174 18.8056 32.4967C17.7932 32.488 16.6272 32.391 15.6343 31.9936C14.543 31.5571 13.1779 30.0636 12.9433 28.3089C12.9433 28.3089 10.888 29.8949 11.492 33.2895C12.0588 36.4772 14.7262 37.5164 17.7684 37.6922C17.77 37.6716 17.4262 36.9614 17.5349 36.5267C15.8075 36.6523 13.8758 35.9849 12.9433 34.4505C12.0896 33.0461 12.329 30.6485 12.6799 30.2972C13.5357 32.9977 16.6153 33.5466 18.5461 33.4995Z" fill="#463014"/><path id="Vector_35" d="M18.8648 31.5663C18.3174 33.1728 17.1992 34.4729 17.1992 34.4729C17.1992 34.4729 18.7374 34.403 18.8223 34.1308C18.8851 33.9301 20.2112 30.826 20.7201 27.1897C20.2414 27.9762 18.9117 31.4287 18.8648 31.5663Z" fill="#463014"/><path id="Vector_36" d="M27.5796 27.8625C27.5796 27.8625 29.3232 30.5292 30.6029 32.4217C30.8009 32.7144 29.3232 32.7347 29.3232 32.7347L27.5796 27.8625Z" fill="#E78724"/><path id="Vector_37" d="M26.749 22.3336C26.749 22.3336 27.2749 23.6452 27.5624 24.3405C27.875 25.0964 29.0668 25.4724 29.0668 25.4724C29.0668 25.4724 28.4491 24.8244 28.4491 23.1828C28.4491 22.494 27.5601 22.2202 27.5601 22.2202L26.749 22.3336Z" fill="#E78724"/><path id="Vector_38" d="M27.28 23.0752C27.28 23.0752 28.3572 24.3574 30.3576 23.6393C32.3581 22.9212 32.5631 20.3568 32.5631 19.6387C32.5631 18.9206 28.7677 20.3568 28.2546 20.6646C27.7416 20.9723 26.7673 22.2031 27.28 23.0752Z" fill="#E78724"/><path id="Vector_39" d="M34.8349 9.37433C34.8349 9.37433 32.9887 9.01507 31.7574 9.98968C30.5266 10.9641 30.1675 11.7336 30.1675 11.7336L32.2422 13.3781C32.2422 13.3781 33.2451 12.9133 33.5529 11.5796C33.8604 10.2462 33.6554 9.63085 34.8349 9.37433Z" fill="#E78724"/><path id="Vector_40" d="M27.819 19.3716C28.6139 18.2433 29.9234 17.7511 30.9698 17.6695C32.7534 17.53 33.5997 18.1605 33.5997 18.1605C33.5997 18.1605 30.6788 18.2842 29.8368 19.3899C28.2694 21.4479 25.9838 21.6151 25.6182 21.1631C26.0408 21.1842 26.5062 20.9747 27.0036 20.504C27.3145 20.2096 27.5667 19.7298 27.819 19.3716Z" fill="#E78724"/><path id="Vector_41" d="M32.7494 23.3615C32.7494 23.3615 35.9898 22.2474 35.3743 21.1193C34.759 19.9908 35.2484 19.376 35.2484 19.376C35.2484 19.376 37.0584 20.7268 36.5968 22.1628C36.3134 23.0442 35.838 23.6823 33.2274 24.9058C31.9752 27.2317 32.9688 31.4182 32.9096 31.4379C32.8103 31.4709 31.1516 30.6179 31.2648 26.7011C31.2992 25.4984 31.3954 23.8564 32.7494 23.3615Z" fill="#E78724"/><path id="Vector_42" d="M28.5025 11.3812C29.861 12.0716 31.723 13.033 31.723 13.033L30.9904 13.3995C31.0603 13.5128 31.0942 13.5804 31.0942 13.5804L30.3421 13.9223C30.3421 13.9223 28.5062 15.2522 27.3813 16.1072C27.756 14.9524 28.8568 13.1382 28.8568 13.1382C28.8568 13.1382 29.1694 12.3046 28.5025 11.3812Z" fill="#E78724"/><path id="Vector_43" d="M23.9883 39.5222C28.1644 39.5222 29.5792 37.4018 29.5792 37.4018L28.9269 38.9913C28.6801 39.679 26.0479 41.8188 23.9946 41.8188" fill="#E78724"/><path id="Vector_44" d="M29.1225 35.969C29.1225 35.969 28.7378 38.3176 27.1995 38.3176C25.8922 38.3176 25.5068 36.3338 25.5068 35.9238L29.1225 35.969Z" fill="#E78724"/><path id="Vector_45" d="M31.683 32.4271C31.5463 32.0507 31.0677 30.5292 30.9135 29.1445C30.7292 27.4861 30.7968 25.0605 30.7968 25.0605C30.7968 25.0605 31.2072 26.6505 31.5658 26.9074C31.9252 27.1637 32.5917 28.9073 32.5917 28.9073C32.5917 28.9073 32.9489 31.5033 33.1189 32.3758C32.6485 32.47 32.2528 32.1928 31.683 32.4271Z" fill="#E78724"/><path id="Vector_46" d="M35.3988 22.1372C35.3988 22.1372 34.5267 21.8292 34.2704 19.9318C34.0141 18.034 34.5783 16.3927 34.5783 16.3927C34.5783 16.3927 34.5267 19.0084 34.8346 19.5215C35.1426 20.0344 35.3988 20.1881 35.7579 20.855C36.1166 21.522 35.6038 21.9319 35.3988 22.1372Z" fill="#E78724"/><path id="Vector_47" d="M34.3574 9.82314L34.5357 9.71041C35.0606 9.72814 34.3574 9.82314 34.3574 9.82314Z" fill="#FDC168"/><path id="Vector_48" d="M27.7929 10.8194C27.7929 10.8194 28.6137 10.6827 29.0238 10.0673C29.4342 9.45176 30.597 8.22064 32.4501 8.20688C34.3031 8.19302 36.1363 8.6994 36.1363 8.6994L34.5359 9.71054C34.3667 9.70506 34.0707 9.70732 33.5809 9.72365C31.5729 9.79039 31.2637 11.7769 31.2637 11.7769L24.186 10.8023" fill="#FBA919"/><path id="Vector_49" d="M27.1094 21.7912C27.1094 21.7912 28.0669 22.7487 29.537 22.4407C31.0076 22.1331 31.8966 21.4834 31.9651 20.3549C32.0333 19.2265 31.6574 18.782 31.6574 18.782C31.6574 18.782 30.0159 19.2953 29.2295 19.9792C28.443 20.6631 27.8618 21.7571 27.1094 21.7912Z" fill="white"/><path id="Vector_50" d="M28.2678 21.4491C28.2678 21.4491 29.0986 21.8285 30.0264 21.5195C31.2417 21.1143 31.3227 19.8507 31.3227 19.8507C31.3227 19.8507 32.0676 22.038 29.9778 22.4591C28.302 22.7967 27.3105 21.8255 27.3105 21.8255L28.2678 21.4491Z" fill="#C9C9C9"/><path id="Vector_51" d="M33.6962 13.2127C34.3735 12.6508 33.8691 12.1293 33.9226 11.4908C33.9512 11.1511 33.9781 10.8306 34.0902 10.6538C34.7136 9.66949 36.1839 9.37085 36.1991 9.36773L36.8893 9.23254L36.4324 8.69811C36.3732 8.62891 34.497 6.83885 31.5933 7.77617C29.5627 8.43117 28.0593 10.6523 28.0034 10.742L29.0213 11.2209C29.0337 11.202 30.2224 9.11422 31.9647 8.55239C33.373 8.09792 34.6711 8.53025 35.2268 8.81364C34.6361 9.04963 33.863 9.47939 33.3973 10.2146C33.1777 10.5618 33.1409 10.999 33.1052 11.4223C33.0581 11.9827 33.0135 12.5117 32.6009 12.8543L33.6962 13.2127Z" fill="#463014"/><path id="Vector_52" d="M35.5048 21.4159C35.5048 21.4159 34.6518 20.3577 34.399 18.2986C34.2997 17.4875 34.4758 15.8878 34.7579 15.2724C34.7066 16.7854 35.0915 18.2986 35.0915 18.2986C35.0915 18.2986 35.351 21.1082 35.5048 21.4159Z" fill="#463014"/><path id="Vector_53" d="M31.0051 12.144C31.0055 12.1417 31.2789 10.947 32.037 10.3439C33.106 9.49346 34.4116 9.94589 34.4238 9.94986L34.6139 9.36428C34.5505 9.34376 33.0585 8.8736 31.683 9.84025C30.2996 10.8124 30.134 11.6936 30.1191 11.791L31.0051 12.144Z" fill="#463014"/><path id="Vector_54" d="M32.8248 20.657C32.8248 20.657 33.2725 20.0161 33.1916 19.3113C33.152 18.9632 32.9906 18.6058 32.7026 18.479C32.1675 18.2439 31.9302 18.8505 31.9302 18.8505C31.9302 18.8505 32.6835 19.0365 32.8248 20.657Z" fill="#463014"/><path id="Vector_55" d="M27.9094 21.6339C27.8907 21.6688 27.881 21.6884 27.881 21.6884C27.881 21.6884 29.277 22.7364 30.7081 21.6729C31.4747 21.1031 31.4023 19.6937 31.1671 19.096C30.5572 19.2343 30.0396 19.4836 29.6067 19.7747C30.1536 19.2867 30.6323 18.9275 30.6306 18.9192L31.2525 18.7433L32.4603 18.3293C32.4757 18.4214 32.9162 20.4866 31.6441 21.8937C31.0805 22.5177 28.4379 23.9149 27.1836 21.5258L27.9094 21.6339Z" fill="#463014"/><path id="Vector_56" d="M28.0397 21.7875C27.2535 22.9841 25.2704 22.3003 25.3046 21.0352C25.3046 21.0352 26.6297 21.7667 27.8007 20.4198C28.4844 19.6335 30.6757 17.4654 33.6465 18.186C31.5949 18.6371 28.8785 20.5116 28.0397 21.7875Z" fill="#463014"/><path id="Vector_57" d="M33.924 25.1647C33.7348 25.274 33.0674 25.9648 33.0674 26.9979C33.067 27.516 33.1187 30.1187 33.3754 31.7088C32.9896 31.9594 32.721 32.0127 32.3369 32.2682C32.1446 30.4266 32.0063 27.7576 32.071 26.6802C32.1444 25.4519 32.8018 24.6277 33.4115 24.2762C33.6025 24.1663 33.8022 24.0583 34.0036 23.9497C35.0481 23.3853 36.1283 22.8014 36.1283 21.8044C36.1283 21.0246 35.8248 20.7806 35.5038 20.5221L35.4696 20.494C35.2566 20.322 35.0151 20.1268 34.8727 19.8063C34.483 18.9302 34.419 16.6983 34.8723 16.1318C35.0983 15.8495 35.7043 14.9001 35.5302 14.2622C35.4635 14.0187 35.31 13.8382 35.0605 13.7104C34.7962 13.5751 34.4399 13.5065 34.0001 13.5065C33.1377 13.5065 32.1801 13.7691 31.6867 13.9255C29.9222 14.4848 27.7931 16.0972 27.1824 16.5781C27.165 16.5915 27.1549 16.5994 27.153 16.6006L26.7622 16.8722L27.0065 16.4635C27.022 16.438 28.5685 13.8946 31.3342 12.962C31.8724 12.7806 32.9294 12.4761 33.9684 12.4761C34.587 12.4761 35.1113 12.5841 35.5273 12.7969C36.0339 13.056 36.3767 13.4694 36.5194 13.992C36.8687 15.2731 35.7311 16.6995 35.6923 16.7451C35.5597 16.9818 35.5036 18.7016 35.8095 19.3899C35.8516 19.4849 35.9672 19.5783 36.1138 19.6963C36.1595 19.7334 36.2104 19.7718 36.2651 19.813C36.6974 20.1393 37.3507 20.6322 37.3507 21.7684C37.3507 23.3232 35.775 24.1661 34.5092 24.8439C34.3012 24.9557 34.1028 25.0614 33.924 25.1647Z" fill="#463014"/><path id="Vector_58" d="M32.0445 13.0299C31.7939 12.6054 31.153 11.7858 29.6758 11.0655C28.0273 10.262 26.1193 9.8542 24.0041 9.85323V9.8528H24H23.9959V9.85301C21.8803 9.85409 19.9721 10.2619 18.324 11.0653C16.8468 11.7857 16.2061 12.6052 15.9552 13.0297L15.8477 13.1721L17.1126 13.4536L17.1527 13.403L17.1739 13.3566C17.1934 13.273 17.363 12.8216 18.7734 12.1339C20.2811 11.3985 22.0397 11.0257 23.9998 11.025C25.9601 11.0257 27.7179 11.3985 29.2255 12.1339C30.636 12.8216 30.8061 13.273 30.8255 13.3566L30.8465 13.403L30.8862 13.4536L32.1516 13.1721L32.0445 13.0299Z" fill="#463014"/><path id="Vector_59" d="M33.6962 13.2127C34.3735 12.6508 33.8691 12.1293 33.9226 11.4908C33.9512 11.1511 33.9781 10.8306 34.0902 10.6538C34.7136 9.66949 36.1839 9.37085 36.1991 9.36773L36.8893 9.23254L36.4324 8.69811C36.3732 8.62891 34.497 6.83885 31.5933 7.77617C29.5627 8.43117 28.0593 10.6523 28.0034 10.742L29.0213 11.2209C29.0337 11.202 30.2224 9.11422 31.9647 8.55239C33.373 8.09792 34.6711 8.53025 35.2268 8.81364C34.6361 9.04963 33.863 9.47939 33.3973 10.2146C33.1777 10.5618 33.1409 10.999 33.1052 11.4223C33.0581 11.9827 33.0135 12.5117 32.6009 12.8543L33.6962 13.2127Z" fill="#463014"/><path id="Vector_60" d="M32.3923 12.8936L32.5348 12.7749C32.9141 12.4603 32.9567 11.9521 33.0025 11.4119C33.0392 10.9772 33.0772 10.5274 33.31 10.1597C33.738 9.48435 34.4154 9.06115 34.9735 8.80958C34.6394 8.66804 34.0116 8.45709 33.2374 8.45709C32.8098 8.45709 32.3925 8.52178 31.9955 8.64988C30.3793 9.17109 29.2373 11.0546 29.108 11.2756L29.0596 11.3522L27.855 10.7858L27.9162 10.688C27.9304 10.6652 29.4421 8.3623 31.5619 7.67882C32.1288 7.4957 32.6985 7.40328 33.2551 7.40328C35.2951 7.40328 36.4998 8.61947 36.5102 8.63172L37.0815 9.29973L36.2195 9.46877C36.2052 9.47167 34.7709 9.77172 34.177 10.709C34.0785 10.8649 34.0527 11.173 34.0248 11.5001C34.0086 11.6946 34.0494 11.8842 34.0892 12.0674C34.1754 12.4647 34.2643 12.8756 33.7618 13.2922L33.7182 13.3284L32.3923 12.8936Z" fill="#463014"/><path id="Vector_61" d="M31.0051 12.144C31.0055 12.1417 31.2789 10.947 32.037 10.3439C33.106 9.49346 34.4116 9.94589 34.4238 9.94986L34.6139 9.36428C34.5505 9.34376 33.0585 8.8736 31.683 9.84025C30.2996 10.8124 30.134 11.6936 30.1191 11.791L31.0051 12.144Z" fill="#463014"/><path id="Vector_62" d="M30.0063 11.8563L30.0183 11.7759C30.0333 11.6742 30.2066 10.7529 31.6243 9.75619C32.2077 9.34632 32.9066 9.12946 33.6457 9.12946C34.2062 9.12946 34.6022 9.25272 34.6461 9.2668L34.7434 9.29828L34.4893 10.0795L34.3912 10.0469C34.3545 10.0345 34.0248 9.92846 33.5812 9.92846C33.0127 9.92846 32.5148 10.0952 32.1017 10.4244C31.3767 11.001 31.1084 12.1547 31.1059 12.1661L31.0793 12.2835L30.0063 11.8563ZM34.3576 9.82315L34.4839 9.43423C34.335 9.3964 34.0334 9.33493 33.6457 9.33493C32.9392 9.33493 32.2988 9.53331 31.7426 9.92427C30.5789 10.7422 30.3008 11.4812 30.2377 11.7275L30.9359 12.0056C31.0273 11.6809 31.3297 10.7759 31.9736 10.2635C32.418 9.91041 32.9737 9.72363 33.5811 9.72363C33.9303 9.72363 34.2117 9.78392 34.3576 9.82315Z" fill="#463014"/><path id="Vector_63" d="M26.4885 37.44C25.9601 36.875 25.6475 36.2671 25.5719 36.0803C25.5287 35.9739 25.4795 35.7712 25.6345 35.6119C25.7553 35.4885 25.9646 35.4252 26.2573 35.4252H26.7078C27.1774 35.4252 27.7264 35.4252 28.0529 35.4256L28.3267 35.426C28.7113 35.426 28.9008 35.536 28.992 35.6282C29.1246 35.7625 29.1454 35.9492 29.054 36.183C28.8093 36.8076 28.2543 37.3173 28.0902 37.4586C27.8752 37.6442 27.5667 37.7541 27.2637 37.7541C26.953 37.7541 26.6778 37.6425 26.4885 37.44Z" fill="#463014"/><path id="Vector_64" d="M26.946 21.8578L28.0396 21.7875C28.0396 21.7875 27.7603 22.2805 27.5791 22.9182C27.3745 23.6395 27.7662 24.6937 27.7662 24.6937C27.7662 24.6937 26.3071 23.0419 26.946 21.8578Z" fill="#463014"/><path id="Vector_65" d="M24.0002 17.9513C23.3029 17.9513 22.3936 17.9322 21.7114 17.4419C21.7114 17.4419 22.6047 19.0078 23.999 19.0078L24.0002 18.8096L24.0014 19.0078C25.3959 19.0078 26.289 17.4419 26.289 17.4419C25.6068 17.9322 24.6969 17.9513 24.0002 17.9513Z" fill="#E78724"/><path id="Vector_66" d="M25.9203 17.9438C25.2208 18.3671 24.5961 18.5138 24.0002 18.5268C23.4042 18.5138 22.7797 18.3671 22.0801 17.9438C22.0801 17.9438 23.0987 19.1868 23.995 19.1964V19.1972C23.9966 19.1972 23.9982 19.1967 24.0001 19.1967C24.0017 19.1967 24.0033 19.1972 24.0051 19.1972V19.1964C24.9012 19.1868 25.9203 17.9438 25.9203 17.9438Z" fill="#463014"/><path id="Vector_67" d="M28.3119 40.6433L28.2339 39.6294C31.5186 39.3767 32.5536 36.2288 32.5589 35.8975H33.576C33.5764 36.6639 32.2058 40.344 28.3119 40.6433Z" fill="#463014"/><path id="Vector_68" d="M29.4059 34.0502C29.4671 33.6985 29.473 33.3649 29.3988 33.0371C29.6952 32.8147 30.2259 32.732 30.6244 32.6028C30.9502 32.3966 32.6181 32.8142 33.8278 31.3502C35.3435 29.517 35.0241 28.4224 35.0241 28.4224C35.413 28.8542 35.7894 28.6897 36.3821 30.703C36.9754 32.7167 36.1033 34.1205 34.4787 35.5298C33.7113 36.1955 32.6262 36.4698 31.693 36.5748C32.0056 36.2609 31.159 36.2295 30.5758 36.0111C30.6224 35.54 30.5441 35.0826 30.1929 34.7143C29.9815 34.4923 29.7085 34.3596 29.426 34.2538C29.4101 34.2173 29.3965 34.1836 29.3818 34.1485C29.3912 34.1165 29.4 34.0842 29.4059 34.0502Z" fill="white"/><path id="Vector_69" d="M30.583 35.9989C30.6171 35.9001 30.6422 35.7993 30.6672 35.6978C30.6946 35.587 30.8289 35.2731 30.6631 35.6315C30.7057 35.5397 30.7335 35.4452 30.754 35.3498C33.385 35.3465 35.6739 33.5401 35.2313 29.7424C35.5757 29.2851 36.0583 30.6645 36.0583 30.6645C36.0583 30.6645 37.3755 34.4889 33.9738 35.9712C32.8404 36.4656 31.8388 36.8199 31.6024 36.6768C31.1096 36.7769 30.6653 36.4336 30.499 36.208C30.5301 36.1386 30.5592 36.0692 30.583 35.9989Z" fill="#C9C9C9"/><path id="Vector_70" d="M29.4529 33.4995C29.4493 33.179 29.3834 32.8685 29.2289 32.5591C29.2179 32.5378 29.2053 32.5174 29.1938 32.4967C30.2062 32.488 31.3723 32.391 32.3652 31.9936C33.4564 31.5571 34.8215 30.0636 35.0562 28.3089C35.0562 28.3089 37.1115 29.8949 36.5075 33.2895C35.9402 36.4772 33.2731 37.5164 30.2311 37.6922C30.2295 37.6716 30.5734 36.9614 30.4646 36.5267C32.1916 36.6523 34.1233 35.9849 35.0563 34.4505C35.9095 33.0461 35.6702 30.6485 35.3193 30.2972C34.4637 32.9977 31.3839 33.5466 29.4529 33.4995Z" fill="#463014"/><path id="Vector_71" d="M30.6813 34.2991C30.3179 33.9062 29.6497 33.4379 28.1089 33.4379C28.1089 33.4379 25.1878 33.4361 24.005 33.4354H24H23.9949C22.8123 33.4362 19.8904 33.4379 19.8904 33.4379C18.3501 33.4379 17.6819 33.9063 17.3182 34.2991C16.7885 34.8709 16.7054 35.6664 17.0719 36.6606C18.0457 39.3071 19.414 41.9958 23.9947 41.9995V42C23.9965 42 23.998 41.9995 23.9998 41.9995C24.0014 41.9995 24.003 42 24.0048 42V41.9995C28.5851 41.9956 29.9535 39.3071 30.9276 36.6606C31.294 35.6664 31.2107 34.8709 30.6813 34.2991ZM29.9682 36.475C29.5043 37.804 28.2575 41.0206 23.9997 41.0262C19.7414 41.0206 18.495 37.8041 18.031 36.475C17.7743 35.7377 17.7939 35.1921 18.0911 34.8532C18.2941 34.6215 18.7605 34.345 19.8235 34.345L20.9339 34.3445C21.7531 34.3438 22.7817 34.3429 23.9998 34.3425C25.2175 34.3429 26.2466 34.3438 27.0656 34.3445L28.1756 34.345C29.2388 34.345 29.7051 34.6214 29.9082 34.8532C30.2052 35.1924 30.2249 35.7377 29.9682 36.475Z" fill="#463014"/><path id="Vector_72" d="M29.1349 31.5663C29.6823 33.1728 30.8004 34.4729 30.8004 34.4729C30.8004 34.4729 29.2623 34.403 29.1773 34.1308C29.1149 33.9301 27.7887 30.826 27.2798 27.1897C27.7582 27.9762 29.0879 31.4287 29.1349 31.5663Z" fill="#463014"/></g></g></svg>