<svg width="48" height="48" viewBox="0 0 48 48" fill="none" xmlns="http://www.w3.org/2000/svg"><g id="kissmetrics-Icon"><path id="Vector" d="M29.7474 6.06317C23.2421 6.06317 17.8737 11.179 17.5579 17.6211C11.1158 17.9369 6 23.2421 6 29.7474C6 36.4421 11.4947 41.9369 18.1895 41.9369H37.0105H37.0737C39.7895 41.9369 42 39.7263 42 37.0737V36.3158V18.2526C42 11.4948 36.5053 6.06317 29.7474 6.06317ZM16.6737 36.5684C14.1474 35.9369 12.1263 33.9158 11.4947 31.4526C11.4316 31.1369 11.4316 31.0105 11.3684 30.6948H11.4947H16.6737V36.5684ZM23.1158 36.7579H18.4421H18.1263V25.2632H23.1158V36.7579ZM29.8737 36.7579H24.8842V15.7895H29.8737V36.7579ZM36.6316 35.7474C36.6316 36.3158 36.1895 36.8211 35.6211 36.8211H31.5789V19.8316H36.6316V35.7474Z" fill="#4551FF"/></g></svg>