<svg width="48" height="48" viewBox="0 0 48 48" fill="none" xmlns="http://www.w3.org/2000/svg"><g id="linux-Icon"><path id="bg" d="M45 24C45 35.592 35.6025 45 24 45C12.3975 45 3 35.592 3 24C3 12.3975 12.3975 3 24 3C35.6025 3 45 12.3975 45 24Z" fill="white"/><path id="vector" d="M16.9599 32.865C16.772 32.5848 16.6075 32.2069 16.474 31.7549C14.0641 29.037 15.9258 25.0375 17.7674 22.3215C17.9439 22.0311 18.1363 21.7505 18.3453 21.4823C19.7503 19.7366 20.1139 18.5217 20.2219 16.8781C20.2348 16.5722 20.2095 16.1671 20.1804 15.7017C20.0317 13.3256 19.7848 9.37761 24.0243 9.0276C29.3238 8.59004 28.8921 13.4566 28.853 16.3098C28.8513 16.4278 28.8498 16.5428 28.8486 16.6535C28.8342 18.3735 29.7318 19.5511 30.6688 20.7803C31.0109 21.2292 31.3583 21.6849 31.6684 22.1765C31.6777 22.191 31.6868 22.2056 31.696 22.2203C33.3332 24.5815 34.9495 28.1054 32.6997 31.4479C32.3836 32.5888 31.9047 33.636 31.2656 34.4882C28.9709 37.5078 26.9313 37.2013 25.3384 36.9618C24.858 36.8896 24.4182 36.8235 24.0243 36.8566C23.3701 36.8965 22.8457 37.0024 22.3927 37.0938C20.6417 37.4472 19.9574 37.5854 16.9599 32.865Z" fill="black"/><path id="vector_2" d="M27.0213 11.692C26.9722 13.0906 25.4886 14.3055 23.7102 14.4178C21.9318 14.53 20.5366 13.4683 20.5857 12.0697C20.6349 10.6711 22.1185 9.4563 23.8969 9.34401C25.6752 9.24192 27.0704 10.2934 27.0213 11.692Z" fill="url(#paint0_linear_94_20635)"/><g id="vector_3"><path fill-rule="evenodd" clip-rule="evenodd" d="M23.7984 15.0916C23.8127 15.8522 24.161 16.5006 24.6501 16.7934C23.0543 16.6505 21.0768 17.234 21.0768 18.338C21.0522 20.2058 20.0127 22.5296 19.2644 24.2022C19.117 24.5317 18.9809 24.8359 18.8661 25.1064C18.4029 26.2535 18.125 27.4802 18.0921 28.6834C16.8652 26.9923 17.7566 24.8229 18.2373 23.8813C18.877 22.6422 18.8646 22.4876 18.6162 22.778C17.6639 24.3974 15.8704 27.6501 18.1162 29.6042C18.1875 30.4767 18.4001 31.3222 18.7777 32.0994C21.7843 38.1634 27.4142 35.6724 29.2712 32.5281C29.5182 32.0811 29.718 31.6486 29.8766 31.2307C29.9695 31.2892 30.0691 31.3345 30.1751 31.3643C31.1085 31.64 32.5037 30.5885 32.8378 29.9351C33.2406 29.0674 32.8279 28.4753 31.4524 27.7709C31.3823 27.7361 31.3129 27.7035 31.2445 27.6731C31.7721 25.4516 30.3183 23.1416 29.28 22.1616C29.0864 22.1139 29.0591 22.2237 29.3596 22.5236C30.0135 23.1501 31.4357 25.3845 30.6663 27.4639C30.5395 27.4298 30.4176 27.4059 30.3013 27.3927C30.065 25.974 29.4346 24.8703 28.9941 24.099C28.8943 23.9242 28.8043 23.7665 28.7308 23.6261C28.5824 23.3428 28.4051 23.0494 28.2171 22.7383C27.4925 21.5394 26.6085 20.0766 26.6085 17.9092C26.4977 17.4323 26.0477 17.1144 25.4486 16.9388C26.1439 16.7985 26.6659 15.9862 26.6478 15.0099C26.6281 13.9584 25.9698 13.1213 25.1838 13.1417C24.3978 13.1621 23.769 14.0401 23.7984 15.0916ZM24.4469 15.3264C24.4371 15.9083 24.7122 16.3779 25.0757 16.3779C25.4295 16.3779 25.734 15.9083 25.7439 15.3366C25.7537 14.7547 25.4786 14.2851 25.115 14.2851C24.7515 14.2851 24.4567 14.7547 24.4469 15.3264Z" fill="url(#paint1_linear_94_20635)"/><path fill-rule="evenodd" clip-rule="evenodd" d="M21.8334 16.725C22.4033 16.6944 22.8159 15.9287 22.7668 15.0201C22.7177 14.1116 22.2166 13.4071 21.6467 13.4378C21.0768 13.4684 20.6642 14.2341 20.7133 15.1426C20.7624 16.0512 21.2635 16.7556 21.8334 16.725ZM22.1773 15.3366C22.2264 15.8164 22.0495 16.2248 21.7941 16.2656C21.5386 16.2962 21.293 15.9389 21.2439 15.4591C21.1947 14.9793 21.3716 14.5709 21.6271 14.5301C21.8825 14.4995 22.1281 14.8568 22.1773 15.3366Z" fill="url(#paint2_linear_94_20635)"/></g><path id="vector_4" d="M24.5946 14.9997C24.5651 15.3264 24.7125 15.5918 24.9188 15.6122C25.1251 15.6326 25.3216 15.3774 25.3511 15.0609C25.3806 14.7343 25.2332 14.4688 25.0269 14.4484C24.8206 14.428 24.6241 14.6832 24.5946 14.9997Z" fill="url(#paint3_linear_94_20635)"/><path id="vector_5" d="M21.9614 15.0813C21.9909 15.3468 21.8828 15.5816 21.7256 15.602C21.5684 15.6224 21.421 15.4182 21.3916 15.1426C21.3621 14.8772 21.4702 14.6424 21.6274 14.622C21.7846 14.6015 21.932 14.8159 21.9614 15.0813Z" fill="url(#paint4_linear_94_20635)"/><path id="vector_6" d="M28.004 25.7291C28.004 27.5259 26.3435 29.8535 23.4942 29.833C20.5564 29.8535 19.3086 27.5259 19.3086 25.7291C19.3086 23.9324 21.254 22.4725 23.6514 22.4725C26.0586 22.4827 28.004 23.9324 28.004 25.7291Z" fill="url(#paint5_linear_94_20635)"/><path id="vector_7" d="M26.4514 20.0837C26.4219 21.9417 25.2527 22.3806 23.7789 22.3806C22.3051 22.3806 21.2342 22.105 21.1064 20.0837C21.1064 18.8178 22.3051 18.0827 23.7789 18.0827C25.2527 18.0725 26.4514 18.8076 26.4514 20.0837Z" fill="url(#paint6_linear_94_20635)"/><path id="vector_8" d="M17.54 22.9421C18.5028 21.421 20.5367 19.0832 17.9231 23.2688C15.8009 26.7193 17.1371 28.9346 17.8249 29.5472C19.8096 31.3847 19.731 32.62 18.1688 31.6502C14.8183 29.5778 15.5159 26.0864 17.54 22.9421Z" fill="url(#paint7_linear_94_20635)"/><path id="vector_9" d="M31.4817 23.5648C30.6466 21.7783 27.9937 17.2456 31.6095 22.5133C34.9009 27.2808 32.592 30.5987 32.1793 30.9254C31.7667 31.252 30.3813 31.9156 30.7841 30.762C31.1968 29.6084 33.2405 27.4238 31.4817 23.5648Z" fill="url(#paint8_linear_94_20635)"/><path id="vector_10" d="M16.8129 37.6529C14.612 36.438 11.4187 37.8877 12.5781 34.6004C12.8139 33.8552 12.2343 32.7322 12.6076 32.0074C13.0498 31.1193 14.0028 31.3132 14.5727 30.7211C15.1327 30.1086 15.4864 29.0469 16.5377 29.2102C17.5792 29.3736 18.2768 30.7007 19.0039 32.3341C19.5443 33.4979 21.4504 35.1415 21.3227 36.4482C21.1655 38.4491 18.9744 38.8269 16.8129 37.6529Z" fill="url(#paint9_linear_94_20635)"/><path id="vector_11" fill-rule="evenodd" clip-rule="evenodd" d="M14.815 30.9605C14.2798 31.5459 13.2968 31.4055 12.9023 32.1715C12.6489 32.6633 12.9257 33.4193 12.9631 33.958C13.0092 34.6234 12.4575 35.5664 12.7385 36.1347C13.054 36.773 14.4794 36.6902 15.1061 36.7818C16.6529 37.0077 19.2094 39.0097 20.6082 37.412C21.9756 35.8501 19.3473 33.8736 18.7026 32.4852C18.2834 31.5433 17.656 29.7373 16.4879 29.5539C15.6647 29.4262 15.2896 30.4413 14.815 30.9605ZM16.5875 28.8668C18.0417 29.0949 18.7694 30.9802 19.3061 32.1857C20.1206 33.934 22.9121 35.8131 21.1029 37.8796C19.4597 39.7564 16.8656 37.7405 15.013 37.4698C14.0875 37.3346 12.6279 37.4317 12.1436 36.4522C11.7273 35.61 12.3543 34.8472 12.2961 34.0079C12.2465 33.2927 11.9635 32.5247 12.3116 31.8458C12.7881 30.8916 13.708 31.1226 14.3332 30.4786C14.9971 29.7491 15.3951 28.6816 16.5875 28.8668Z" fill="#E68C3F"/><path id="vector_12" d="M32.0716 37.0915C33.6829 35.0599 37.2692 35.4785 34.8522 32.6915C34.3412 32.0892 34.4984 30.8029 33.8696 30.2516C33.1327 29.5779 32.3172 30.1291 31.5705 29.782C30.8238 29.4043 30.0377 28.6795 29.124 29.1899C28.2102 29.7106 28.112 31.0581 28.0236 32.8344C27.945 34.1105 26.8249 36.2442 27.4242 37.4182C28.2888 39.2353 30.5388 38.9903 32.0716 37.0915Z" fill="url(#paint10_linear_94_20635)"/><path id="vector_13" fill-rule="evenodd" clip-rule="evenodd" d="M32.715 29.547C33.1282 29.5361 33.623 29.5651 34.0877 29.9885C34.6656 30.498 34.6713 31.3298 34.8892 32.0263C35.1473 32.851 36.0516 33.3222 35.9975 34.2892C35.9091 35.8702 33.1712 36.251 32.3284 37.3136C31.5187 38.3168 30.495 38.9142 29.5236 38.9947C28.0505 39.1168 26.8336 37.878 26.9198 36.3656C26.9896 35.1412 27.6134 34.0288 27.6894 32.8143C27.7332 31.9348 27.7805 31.1193 27.9395 30.4572C28.1002 29.7881 28.3897 29.2119 28.9629 28.8853C30.2185 28.1839 31.4313 29.5806 32.715 29.547ZM29.2833 29.4953C28.9434 29.6894 28.7273 30.0472 28.5884 30.6254C28.4479 31.2107 28.4016 31.9607 28.357 32.8566C28.282 34.0741 27.6571 35.1856 27.5875 36.4067C27.5254 37.4956 28.3617 38.3939 29.4705 38.302C30.2231 38.2396 31.0913 37.7643 31.8142 36.8694C32.46 36.0557 35.2711 35.3002 35.3298 34.2489C35.3682 33.5625 34.4652 32.9186 34.2532 32.2411C34.0873 31.7109 34.0785 30.8896 33.6537 30.5172C33.3823 30.269 33.0966 30.2321 32.7319 30.2417C31.6748 30.2694 30.2646 28.9485 29.2833 29.4953Z" fill="#E68C3F"/><path id="vector_14" d="M31.3739 34.3758C33.8695 30.5476 32.0125 30.5782 31.3837 30.2821C30.7549 29.9759 30.0966 29.3735 29.3597 29.7921C28.6228 30.2209 28.5835 31.3234 28.5638 32.7731C28.5343 33.8144 27.6992 35.56 28.2003 36.5299C28.8094 37.6631 30.2832 36.0194 31.3739 34.3758Z" fill="url(#paint11_linear_94_20635)"/><path id="vector_15" d="M16.3018 34.9273C12.5681 32.4159 14.317 31.5584 14.8771 31.1602C15.555 30.6498 15.5649 29.6698 16.4 29.7616C17.2352 29.8535 17.7264 30.9254 18.2865 32.2526C18.6991 33.202 20.1336 34.4679 20.0256 35.5602C19.888 36.8465 17.9131 35.9992 16.3018 34.9273Z" fill="url(#paint12_linear_94_20635)"/><path id="vector_16" d="M32.6217 29.9045C32.327 30.4353 31.1283 31.2725 30.3324 31.0479C29.5169 30.8335 29.1435 29.6391 29.3106 28.7407C29.458 27.7198 30.3324 27.6688 31.4328 28.1792C32.6021 28.7305 32.9656 29.2001 32.6217 29.9045Z" fill="black"/><path id="vector_17" d="M31.8162 29.6084C31.6295 29.9759 30.8435 30.5578 30.2932 30.4047C29.743 30.2516 29.4679 29.4247 29.5563 28.8019C29.6349 28.0975 30.2245 28.0567 30.9712 28.4038C31.7769 28.7917 32.0323 29.1184 31.8162 29.6084Z" fill="url(#paint13_linear_94_20635)"/><path id="vector_18" d="M21.6566 16.2861C22.0496 15.9084 23.0026 14.7548 24.8105 15.9594C25.1446 16.184 25.4197 16.2044 26.0583 16.4903C27.3454 17.0415 26.7363 18.3687 25.3607 18.8179C24.7712 19.0118 24.2406 19.7571 23.1795 19.6856C22.2657 19.6346 22.0299 19.0118 21.4699 18.6749C20.4775 18.093 20.3301 17.307 20.8705 16.8884C21.4109 16.4698 21.6173 16.3167 21.6566 16.2861Z" fill="url(#paint14_linear_94_20635)"/><path id="vector_19" fill-rule="evenodd" clip-rule="evenodd" d="M20.9904 17.0555C20.7849 17.2147 20.7195 17.4263 20.7874 17.6602C20.9269 18.1408 21.9329 18.8019 22.3181 19.1253C22.5371 19.3092 22.7876 19.455 23.1924 19.4776C24.0595 19.536 24.5409 18.8689 25.3005 18.619C25.8001 18.4559 26.857 17.8324 26.5069 17.1179C26.2082 16.5083 25.2017 16.4706 24.7018 16.1346C23.8413 15.5614 23.2149 15.5655 22.7687 15.7263C22.2797 15.9025 21.4333 16.7125 20.9904 17.0555ZM22.6372 15.3324C23.2176 15.1232 23.9723 15.1533 24.9194 15.7844C25.5419 16.2029 26.489 16.1625 26.8645 16.9288C27.3428 17.9049 26.1838 18.7675 25.4211 19.0166C24.6042 19.2856 24.148 19.9593 23.1675 19.8937C22.6592 19.865 22.333 19.6739 22.0659 19.4496C21.5117 18.9843 20.5753 18.5421 20.3611 17.8043C20.2424 17.3951 20.4156 16.9807 20.7506 16.7213C21.292 16.3019 22.0235 15.5536 22.6372 15.3324Z" fill="#E68C3F"/><path id="vector_20" fill-rule="evenodd" clip-rule="evenodd" d="M26.2118 17.3504C26.2158 17.427 26.1593 17.4925 26.0855 17.4967C25.0456 17.5557 24.3149 18.7424 23.1405 18.7424C22.4833 18.7424 21.9631 18.4253 21.5912 18.1204C21.5162 18.059 20.855 17.5491 20.855 17.4192C20.855 17.3425 20.9149 17.2803 20.9887 17.2803C21.1269 17.2803 21.5438 17.7326 21.6989 17.8598C22.0492 18.147 22.5695 18.4645 23.1405 18.4645C24.3031 18.4645 25.0164 17.279 26.071 17.2192C26.1447 17.215 26.2078 17.2738 26.2118 17.3504Z" fill="#E68C3F"/><path id="vector_21" d="M22.2657 16.1839C22.4623 16.0002 23.0812 15.4999 23.8967 16.0104C24.0736 16.1125 24.2505 16.2248 24.5059 16.3779C25.0267 16.6944 24.7712 17.1538 24.1424 17.4396C23.8574 17.5621 23.3858 17.8275 23.0321 17.8071C22.6391 17.7663 22.3738 17.5009 22.1184 17.3273C21.6369 17.0006 21.6664 16.725 21.8924 16.5106C22.0594 16.3473 22.2461 16.1941 22.2657 16.1839Z" fill="url(#paint15_linear_94_20635)"/></g><defs><linearGradient id="paint0_linear_94_20635" x1="24.0872" y1="9.4595" x2="23.7551" y2="13.9592" gradientUnits="userSpaceOnUse"><stop stop-color="white" stop-opacity="0.8"/><stop offset="1" stop-color="white" stop-opacity="0"/></linearGradient><linearGradient id="paint1_linear_94_20635" x1="19.3449" y1="34.0085" x2="16.8759" y2="25.9076" gradientUnits="userSpaceOnUse"><stop stop-color="#FFEED7"/><stop offset="1" stop-color="#BDBFC2"/></linearGradient><linearGradient id="paint2_linear_94_20635" x1="19.3449" y1="34.0085" x2="16.8759" y2="25.9076" gradientUnits="userSpaceOnUse"><stop stop-color="#FFEED7"/><stop offset="1" stop-color="#BDBFC2"/></linearGradient><linearGradient id="paint3_linear_94_20635" x1="25.0027" y1="14.4834" x2="24.8627" y2="15.5316" gradientUnits="userSpaceOnUse"><stop stop-color="white" stop-opacity="0.65"/><stop offset="1" stop-color="white" stop-opacity="0"/></linearGradient><linearGradient id="paint4_linear_94_20635" x1="21.651" y1="14.6744" x2="21.8015" y2="15.5225" gradientUnits="userSpaceOnUse"><stop stop-color="white" stop-opacity="0.65"/><stop offset="1" stop-color="white" stop-opacity="0"/></linearGradient><linearGradient id="paint5_linear_94_20635" x1="23.6425" y1="23.4463" x2="23.6674" y2="29.4411" gradientUnits="userSpaceOnUse"><stop stop-color="white" stop-opacity="0.8"/><stop offset="1" stop-color="white" stop-opacity="0"/></linearGradient><linearGradient id="paint6_linear_94_20635" x1="23.775" y1="19.687" x2="23.8027" y2="22.0706" gradientUnits="userSpaceOnUse"><stop stop-color="white" stop-opacity="0.65"/><stop offset="1" stop-color="white" stop-opacity="0"/></linearGradient><linearGradient id="paint7_linear_94_20635" x1="17.5795" y1="21.1582" x2="17.5795" y2="29.9058" gradientUnits="userSpaceOnUse"><stop stop-color="white" stop-opacity="0.65"/><stop offset="1" stop-color="white" stop-opacity="0"/></linearGradient><linearGradient id="paint8_linear_94_20635" x1="31.5491" y1="20.3038" x2="31.5457" y2="28.2076" gradientUnits="userSpaceOnUse"><stop stop-color="white" stop-opacity="0.65"/><stop offset="1" stop-color="white" stop-opacity="0"/></linearGradient><linearGradient id="paint9_linear_94_20635" x1="17.1423" y1="33.6559" x2="15.8026" y2="38.1318" gradientUnits="userSpaceOnUse"><stop stop-color="#FFA63F"/><stop offset="1" stop-color="#FFFF00"/></linearGradient><linearGradient id="paint10_linear_94_20635" x1="29.8225" y1="32.2947" x2="33.3979" y2="37.1699" gradientUnits="userSpaceOnUse"><stop stop-color="#FFA63F"/><stop offset="1" stop-color="#FFFF00"/></linearGradient><linearGradient id="paint11_linear_94_20635" x1="30.7802" y1="28.3998" x2="29.53" y2="34.2905" gradientUnits="userSpaceOnUse"><stop stop-color="white" stop-opacity="0.65"/><stop offset="1" stop-color="white" stop-opacity="0"/></linearGradient><linearGradient id="paint12_linear_94_20635" x1="16.8691" y1="29.8566" x2="17.117" y2="36.4862" gradientUnits="userSpaceOnUse"><stop stop-color="white" stop-opacity="0.65"/><stop offset="1" stop-color="white" stop-opacity="0"/></linearGradient><linearGradient id="paint13_linear_94_20635" x1="30.5632" y1="28.2925" x2="30.8532" y2="30.2734" gradientUnits="userSpaceOnUse"><stop stop-color="white" stop-opacity="0.65"/><stop offset="1" stop-color="white" stop-opacity="0"/></linearGradient><linearGradient id="paint14_linear_94_20635" x1="23.647" y1="16.1757" x2="23.6712" y2="19.6644" gradientUnits="userSpaceOnUse"><stop stop-color="#FFA63F"/><stop offset="1" stop-color="#FFFF00"/></linearGradient><linearGradient id="paint15_linear_94_20635" x1="23.2654" y1="15.8458" x2="23.2588" y2="17.6905" gradientUnits="userSpaceOnUse"><stop stop-color="white" stop-opacity="0.65"/><stop offset="1" stop-color="white" stop-opacity="0"/></linearGradient></defs></svg>