<svg width="48" height="48" viewBox="0 0 48 48" fill="none" xmlns="http://www.w3.org/2000/svg"><g id="meteor-Icon"><g id="Union"><path d="M8 8.31195L35.4047 37.3402C35.4047 37.3402 36.3384 37.9987 37.0523 37.2304C37.7663 36.4622 37.2171 35.694 37.2171 35.694L8 8.31195Z" fill="#DF4F4F"/><path d="M16.6773 11.0556L37.5466 33.5539C37.5466 33.5539 38.4802 34.2124 39.1942 33.4442C39.9081 32.6759 39.3589 31.9077 39.3589 31.9077L16.6773 11.0556Z" fill="#DF4F4F"/><path d="M31.4505 39.4254L10.5812 16.9271L33.2629 37.7792C33.2629 37.7792 33.8121 38.5474 33.0981 39.3157C32.3842 40.0839 31.4505 39.4254 31.4505 39.4254Z" fill="#DF4F4F"/><path d="M24.0127 13.4152L38.5929 29.1334C38.5929 29.1334 39.2452 29.5935 39.744 29.0567C40.2428 28.52 39.8591 27.9833 39.8591 27.9833L24.0127 13.4152Z" fill="#DF4F4F"/><path d="M27.1697 39.4497L12.5895 23.7315L28.4359 38.2996C28.4359 38.2996 28.8195 38.8363 28.3207 39.373C27.8219 39.9097 27.1697 39.4497 27.1697 39.4497Z" fill="#DF4F4F"/><path d="M31.5055 16.8174L38.1137 23.963C38.1137 23.963 38.4363 24.1786 38.6831 23.9271C38.9298 23.6756 38.74 23.4241 38.74 23.4241L31.5055 16.8174Z" fill="#DF4F4F"/><path d="M22.8461 38.1205L16.2379 30.9748L23.4725 37.5816C23.4725 37.5816 23.6622 37.8331 23.4155 38.0846C23.1688 38.336 22.8461 38.1205 22.8461 38.1205Z" fill="#DF4F4F"/></g></g></svg>