<svg width="48" height="48" viewBox="0 0 48 48" fill="none" xmlns="http://www.w3.org/2000/svg"><g id="ms-onenote-Icon"><g id="Group"><path id="rectangle" d="M16 31H40V36C40 37.1046 39.1046 38 38 38H18C16.8954 38 16 37.1046 16 36V31Z" fill="#5D29A1"/><rect id="rectangle_2" x="16" y="24" width="24" height="7" fill="#7F32CC"/><rect id="rectangle_3" x="16" y="17" width="24" height="7" fill="#9A40D6"/><path id="rectangle_4" d="M18 10C16.8954 10 16 10.8954 16 12V36C16 37.1046 16.8954 38 18 38H32V17H40V12C40 10.8954 39.1046 10 38 10H18Z" fill="url(#paint0_linear_94_16654)"/><path id="rectangle_5" d="M16 20C16 18.3431 17.3431 17 19 17H25C26.6569 17 28 18.3431 28 20V32C28 33.6569 26.6569 35 25 35H16V20Z" fill="black" fill-opacity="0.3"/><rect id="rectangle_6" x="8" y="15" width="18" height="18" rx="2" fill="url(#paint1_linear_94_16654)"/><path id="N" d="M21 29V19H18.8893V24.8286L14.9631 19H13V29H15.0812V22.9571L19.155 29H21Z" fill="white"/></g></g><defs><linearGradient id="paint0_linear_94_16654" x1="16" y1="24" x2="32.5" y2="24" gradientUnits="userSpaceOnUse"><stop stop-color="#8C42AC"/><stop offset="1" stop-color="#C36DEF"/></linearGradient><linearGradient id="paint1_linear_94_16654" x1="8" y1="24" x2="27" y2="24" gradientUnits="userSpaceOnUse"><stop stop-color="#44176C"/><stop offset="1" stop-color="#621F9C"/></linearGradient></defs></svg>