<svg width="48" height="48" viewBox="0 0 48 48" fill="none" xmlns="http://www.w3.org/2000/svg"><g id="ms-powerpoint-Icon"><g id="Group"><circle id="Ellipse" cx="25.5483" cy="24" r="14.4516" fill="url(#paint0_linear_94_18419)"/><g id="Mask Group"><mask id="mask0_94_18419" style="mask-type:alpha" maskUnits="userSpaceOnUse" x="11" y="9" width="29" height="30"><circle id="Ellipse_2" cx="25.5483" cy="24" r="14.4516" fill="#C4C4C4"/></mask><g mask="url(#mask0_94_18419)"><rect id="Rectangle 7" x="26.5801" y="7.48389" width="17.5484" height="17.5484" fill="url(#paint1_linear_94_18419)"/><path id="Rectangle 2" d="M14.1934 19.7742C14.1934 18.1173 15.5365 16.7742 17.1934 16.7742H25.645C27.3018 16.7742 28.645 18.1173 28.645 19.7742V32.3548C28.645 34.0117 27.3018 35.3548 25.645 35.3548H14.1934V19.7742Z" fill="black" fill-opacity="0.3"/><rect id="Rectangle 7_2" x="9.03223" y="7.48389" width="17.5484" height="17.5484" fill="#EB6C4D"/></g></g><rect id="rectangle" x="8" y="14.7097" width="18.5806" height="18.5806" rx="2" fill="url(#paint2_linear_94_18419)"/><path id="P" d="M21.4192 22.4074C21.4192 20.1806 19.9533 18.8387 17.6286 18.8387H14.1934V29.1613H16.3256V26.0203H17.5397C19.7164 26.0203 21.4192 24.7816 21.4192 22.4074ZM19.2573 22.4516C19.2573 23.4544 18.6206 24.1032 17.5842 24.1032H16.3256V20.7705H17.5694C18.6058 20.7705 19.2573 21.3161 19.2573 22.4516Z" fill="white"/></g></g><defs><linearGradient id="paint0_linear_94_18419" x1="11.0967" y1="25.9933" x2="39.9999" y2="25.9933" gradientUnits="userSpaceOnUse"><stop stop-color="#A73A24"/><stop offset="1" stop-color="#F75936"/></linearGradient><linearGradient id="paint1_linear_94_18419" x1="40.5156" y1="17.8065" x2="26.5801" y2="17.8065" gradientUnits="userSpaceOnUse"><stop stop-color="#FDB8A3"/><stop offset="1" stop-color="#F1876D"/></linearGradient><linearGradient id="paint2_linear_94_18419" x1="8" y1="25.2814" x2="26.5806" y2="25.2814" gradientUnits="userSpaceOnUse"><stop stop-color="#A73A24"/><stop offset="1" stop-color="#F75936"/></linearGradient></defs></svg>