<svg width="48" height="48" viewBox="0 0 48 48" fill="none" xmlns="http://www.w3.org/2000/svg"><g id="ms-stream-Icon"><g id="Group"><path id="Vector" fill-rule="evenodd" clip-rule="evenodd" d="M12.6167 24V39.638C12.6281 40.0065 12.7369 40.3653 12.9321 40.678C13.1273 40.9907 13.4019 41.246 13.728 41.418C14.054 41.59 14.4198 41.6725 14.7881 41.657C15.1564 41.6416 15.514 41.5288 15.8245 41.3301L41.1982 25.3794C41.4406 25.2394 41.6422 25.0385 41.7829 24.7965C41.9235 24.5545 41.9985 24.2799 42.0001 24H12.6167Z" fill="#BC1948"/><path id="Vector_2" fill-rule="evenodd" clip-rule="evenodd" d="M12.6167 24V8.36196C12.6281 7.99352 12.7369 7.63467 12.9321 7.32199C13.1273 7.00931 13.4019 6.75396 13.728 6.58198C14.054 6.41 14.4198 6.32752 14.7881 6.34295C15.1564 6.35839 15.514 6.47118 15.8245 6.66984L41.1982 22.6206C41.4406 22.7606 41.6422 22.9615 41.7829 23.2035C41.9235 23.4455 41.9985 23.7201 42.0001 24H12.6167Z" fill="#E8467C"/><path id="Vector_3" fill-rule="evenodd" clip-rule="evenodd" d="M7.71664 14.0638L21.037 23.0296C21.1942 23.138 21.3226 23.283 21.4114 23.452C21.5001 23.621 21.5465 23.8091 21.5465 24C21.5465 24.1909 21.5001 24.3789 21.4114 24.548C21.3226 24.717 21.1942 24.8619 21.037 24.9703L7.71664 33.9361C7.54592 34.0457 7.34856 34.1065 7.14581 34.1122C6.94307 34.1178 6.74262 34.0681 6.56606 33.9683C6.3895 33.8684 6.24353 33.7223 6.14386 33.5457C6.0442 33.369 5.99462 33.1685 6.00046 32.9658V15.0342C5.99462 14.8314 6.0442 14.6309 6.14386 14.4543C6.24353 14.2776 6.3895 14.1315 6.56606 14.0317C6.74262 13.9319 6.94307 13.8821 7.14581 13.8878C7.34856 13.8934 7.54592 13.9543 7.71664 14.0638" fill="#8C193F"/></g></g></svg>