<svg width="48" height="48" viewBox="0 0 48 48" fill="none" xmlns="http://www.w3.org/2000/svg"><g id="ms-teams-Icon"><g id="Group"><path id="rectangle" d="M27 22.9032C27 22.4044 27.4044 22 27.9032 22H39.0968C39.5956 22 40 22.4044 40 22.9032V29.5C40 33.0899 37.0899 36 33.5 36V36C29.9101 36 27 33.0899 27 29.5V22.9032Z" fill="url(#paint0_linear_94_16812)"/><path id="rectangle_2" d="M17 21.2258C17 20.5488 17.5488 20 18.2258 20H31.7742C32.4512 20 33 20.5488 33 21.2258V31C33 35.4183 29.4183 39 25 39V39C20.5817 39 17 35.4183 17 31V21.2258Z" fill="url(#paint1_linear_94_16812)"/><g id="ellipse"><circle cx="35" cy="17" r="3" fill="#34439E"/><circle cx="35" cy="17" r="3" fill="url(#paint2_linear_94_16812)"/></g><circle id="ellipse_2" cx="26" cy="15" r="4" fill="url(#paint3_linear_94_16812)"/><g id="Mask Group"><mask id="mask0_94_16812" style="mask-type:alpha" maskUnits="userSpaceOnUse" x="17" y="9" width="16" height="30"><g id="Union"><path d="M25 19C27.7615 19 30 16.7615 30 14C30 11.2385 27.7615 9 25 9C22.2385 9 20 11.2385 20 14C20 16.7615 22.2385 19 25 19Z" fill="url(#paint4_linear_94_16812)"/><path d="M18.2258 20C17.5488 20 17 20.5488 17 21.2258V31C17 35.4183 20.5817 39 25 39C29.4183 39 33 35.4183 33 31V21.2258C33 20.5488 32.4512 20 31.7742 20H18.2258Z" fill="url(#paint5_linear_94_16812)"/></g></mask><g mask="url(#mask0_94_16812)"><path id="rectangle_3" d="M15 21C15 19.3431 16.3431 18 18 18H25C26.6569 18 28 19.3431 28 21V33C28 34.6569 26.6569 36 25 36H15V21Z" fill="black" fill-opacity="0.3"/></g></g><rect id="rectangle_4" x="8" y="16" width="18" height="18" rx="2" fill="url(#paint6_linear_94_16812)"/><path id="T" d="M21 20H13V21.8347H15.9949V30H18.0051V21.8347H21V20Z" fill="white"/></g></g><defs><linearGradient id="paint0_linear_94_16812" x1="27" y1="22.7368" x2="40.1591" y2="31.3355" gradientUnits="userSpaceOnUse"><stop stop-color="#364088"/><stop offset="1" stop-color="#6E7EE1"/></linearGradient><linearGradient id="paint1_linear_94_16812" x1="17" y1="28.4038" x2="33" y2="28.4038" gradientUnits="userSpaceOnUse"><stop stop-color="#515FC4"/><stop offset="1" stop-color="#7084EA"/></linearGradient><linearGradient id="paint2_linear_94_16812" x1="32" y1="14.3158" x2="37.7963" y2="18.3947" gradientUnits="userSpaceOnUse"><stop stop-color="#364088"/><stop offset="1" stop-color="#6E7EE1"/></linearGradient><linearGradient id="paint3_linear_94_16812" x1="23.1429" y1="12.1429" x2="28.2857" y2="18.1429" gradientUnits="userSpaceOnUse"><stop stop-color="#4858AE"/><stop offset="1" stop-color="#4E60CE"/></linearGradient><linearGradient id="paint4_linear_94_16812" x1="21.4286" y1="10.4286" x2="27.8571" y2="17.9286" gradientUnits="userSpaceOnUse"><stop stop-color="#4858AE"/><stop offset="1" stop-color="#4E60CE"/></linearGradient><linearGradient id="paint5_linear_94_16812" x1="21.4286" y1="10.4286" x2="27.8571" y2="17.9286" gradientUnits="userSpaceOnUse"><stop stop-color="#4858AE"/><stop offset="1" stop-color="#4E60CE"/></linearGradient><linearGradient id="paint6_linear_94_16812" x1="8" y1="25" x2="26" y2="25" gradientUnits="userSpaceOnUse"><stop stop-color="#2A3887"/><stop offset="1" stop-color="#4C56B9"/></linearGradient></defs></svg>