<svg width="48" height="48" viewBox="0 0 48 48" fill="none" xmlns="http://www.w3.org/2000/svg"><g id="patreon-Icon"><path id="bg" d="M24 45C35.598 45 45 35.598 45 24C45 12.402 35.598 3 24 3C12.402 3 3 12.402 3 24C3 35.598 12.402 45 24 45Z" fill="#F76754"/><path id="vector" d="M15 36H19.5V15H15V36Z" fill="#002C49"/><path id="vector_2" d="M28.5117 15C32.6407 15 36 18.3694 36 22.5113C36 26.6405 32.6407 30 28.5117 30C24.3697 30 21 26.6405 21 22.5113C21 18.3694 24.3697 15 28.5117 15Z" fill="white"/></g></svg>