<svg width="48" height="48" viewBox="0 0 48 48" fill="none" xmlns="http://www.w3.org/2000/svg"><g id="post-css-Icon"><g id="Union"><path d="M19.8657 12.9218C19.8319 12.9433 19.7982 12.9647 19.7614 12.9893C19.7527 12.9979 19.7441 13.0004 19.7442 13.0011C19.7443 13.0014 19.7457 13.0014 19.7492 13.0014C19.7561 13.0357 19.7591 13.0662 19.7626 13.1015C19.7653 13.1288 19.7683 13.1589 19.7735 13.1959C19.8071 13.1479 19.8369 13.1037 19.8652 13.0618C19.9085 12.9976 19.9482 12.9388 19.9923 12.8799L19.968 12.8556C19.9319 12.8796 19.8988 12.9007 19.8657 12.9218Z" fill="#DD3735"/><path d="M23.6746 18.9806C23.5409 19.0414 23.4315 19.09 23.3221 19.1385C23.3221 19.1437 23.3112 19.164 23.2997 19.1857C23.2838 19.2155 23.2665 19.248 23.2736 19.248C23.3019 19.2423 23.346 19.2182 23.3925 19.1928C23.4457 19.1637 23.502 19.1329 23.5409 19.1265C23.5773 19.1265 23.626 19.1385 23.6624 19.1508C23.6624 19.1021 23.6624 19.0535 23.6746 18.9806Z" fill="#DD3735"/><path d="M32.506 29.5508C32.4765 29.519 32.4449 29.485 32.4367 29.4441C32.4341 29.4754 32.4315 29.505 32.429 29.5333C32.4199 29.6369 32.4124 29.7228 32.4124 29.8088C32.4124 29.8329 32.4367 29.8816 32.4488 29.8816C32.4731 29.8938 32.5218 29.8695 32.5461 29.8573C32.5582 29.8452 32.5704 29.8209 32.5704 29.8088C32.5522 29.7966 32.534 29.7875 32.5158 29.7784C32.4975 29.7692 32.4793 29.7601 32.461 29.7479C32.6142 29.6673 32.5641 29.6134 32.506 29.5508Z" fill="#DD3735"/><path fill-rule="evenodd" clip-rule="evenodd" d="M41.9852 23.062C41.9731 22.6002 41.9488 22.1263 41.9245 21.6645C41.9184 21.5457 41.913 21.4269 41.9077 21.3081C41.8918 20.9529 41.8758 20.5978 41.8394 20.2427L41.8332 20.1962C41.7502 19.5669 41.6657 18.9271 41.5234 18.3103C41.414 17.7878 41.2317 17.2895 41.0495 16.7913L41.0085 16.6876C40.7911 16.1375 40.5704 15.5794 40.296 15.0534C39.9439 14.3855 39.5115 13.7712 39.0782 13.1557L39.0781 13.1556C38.9281 12.9424 38.7779 12.7292 38.631 12.5135C38.453 12.2607 38.2505 12.0297 38.048 11.7987C37.8221 11.5408 37.596 11.2828 37.4036 10.9944C37.1971 10.6785 36.8932 10.411 36.5894 10.168C36.1033 9.77916 35.5928 9.42661 35.0825 9.08644C34.6935 8.81897 34.3047 8.56387 33.8915 8.33297C33.6519 8.1998 33.3994 8.08612 33.148 7.97299L33.1478 7.97288C33.055 7.93111 32.9624 7.88941 32.8706 7.84683C32.7908 7.80938 32.7115 7.77041 32.632 7.73138C32.3245 7.58028 32.0152 7.4283 31.6675 7.36069C31.5805 7.34132 31.5011 7.31429 31.4172 7.2857C31.3957 7.27838 31.3739 7.27095 31.3516 7.26351C31.2496 7.22803 31.1493 7.19097 31.0495 7.15406C30.8755 7.08975 30.7027 7.02591 30.5251 6.97186C30.3838 6.9274 30.2437 6.88026 30.1037 6.83311C29.8225 6.73843 29.5412 6.64374 29.2491 6.57079C28.8238 6.46139 28.3863 6.3884 27.9489 6.32765C27.6272 6.27946 27.3003 6.2525 26.9751 6.22569C26.8088 6.21197 26.6428 6.19829 26.4783 6.18183C26.1624 6.1454 25.8464 6.10898 25.5425 6.09675C25.2368 6.08073 24.9256 6.07532 24.6162 6.06994C24.4583 6.06719 24.3009 6.06446 24.1449 6.06033C24.0888 6.05738 24.0319 6.05372 23.9747 6.05003C23.7966 6.03855 23.6149 6.02685 23.4401 6.036C23.0877 6.04823 22.7353 6.08465 22.3828 6.13331C22.1431 6.15897 21.9033 6.19671 21.6678 6.23379C21.569 6.24934 21.471 6.26477 21.3741 6.27914C21.1741 6.30333 20.9742 6.32151 20.7742 6.33969C20.5731 6.35797 20.3721 6.37625 20.171 6.40064C19.9119 6.43411 19.647 6.47903 19.3843 6.52358C19.2651 6.54379 19.1463 6.56393 19.0287 6.58289C18.962 6.59503 18.8953 6.61322 18.8286 6.63141C18.7616 6.64968 18.6946 6.66794 18.6277 6.68006C18.5285 6.70077 18.4279 6.71724 18.3268 6.7338C18.1307 6.76592 17.9329 6.79832 17.7405 6.86245C17.2179 7.02037 16.6953 7.20276 16.1849 7.39711C15.711 7.59159 15.2491 7.79817 14.7996 8.04131C14.4113 8.2558 14.0402 8.50478 13.6717 8.75198C13.602 8.79878 13.5323 8.84553 13.4626 8.89195C13.0495 9.17138 12.6363 9.46317 12.2353 9.77916C11.8464 10.0829 11.4818 10.4232 11.1294 10.7635C11.0015 10.8913 10.8894 11.0349 10.7758 11.1805C10.7167 11.2563 10.6571 11.3327 10.5946 11.4076C10.5209 11.4931 10.4472 11.5778 10.3737 11.6624C10.1442 11.9265 9.91619 12.1887 9.6953 12.4648C9.51706 12.6877 9.35184 12.9171 9.18537 13.1482C9.12488 13.2322 9.06422 13.3165 9.00272 13.4007C8.58942 13.9597 8.23701 14.5551 7.90894 15.1506C7.77597 15.3922 7.6551 15.6339 7.53431 15.8755L7.5322 15.8798C7.47164 16.0008 7.40976 16.1206 7.34789 16.2403C7.22343 16.4811 7.09896 16.7219 6.98531 16.9735C6.86381 17.2288 6.7665 17.5082 6.69365 17.7878C6.5235 18.3832 6.35334 18.9908 6.19542 19.5864C6.04959 20.121 6.01303 20.6801 6.00093 21.227C5.98893 21.7037 6.03552 22.1689 6.08322 22.6453L6.08601 22.6732C6.08938 22.7071 6.08616 22.7428 6.08291 22.7788C6.07449 22.8722 6.06589 22.9676 6.17109 23.0377C6.18318 23.0377 6.17109 23.0864 6.15886 23.0985C6.12243 23.1715 6.15886 23.2443 6.23184 23.2686C6.23184 23.2686 6.24393 23.2809 6.24393 23.293H6.18318C6.16585 23.345 6.18428 23.3916 6.20311 23.4391C6.22386 23.4916 6.24511 23.5452 6.21961 23.6089C6.21073 23.6268 6.23459 23.6577 6.25747 23.6873C6.26576 23.698 6.27393 23.7086 6.28036 23.7183C6.28036 23.7301 6.2791 23.743 6.27781 23.7565C6.27508 23.7848 6.27215 23.8151 6.28036 23.8398C6.28541 23.8851 6.29669 23.9303 6.30819 23.9763C6.3245 24.0417 6.34125 24.1088 6.34125 24.1802C6.34125 24.2321 6.36843 24.2886 6.39513 24.3441C6.41214 24.3794 6.42895 24.4144 6.43842 24.4475C6.45051 24.4839 6.43842 24.5447 6.41409 24.569C6.34125 24.6541 6.35334 24.727 6.46275 24.7756C6.48708 24.7878 6.5235 24.8363 6.5235 24.8606C6.5235 24.9092 6.51274 24.9577 6.50197 25.0062C6.49655 25.0306 6.49113 25.055 6.48708 25.0795C6.51126 25.1038 6.5235 25.128 6.51126 25.1523C6.51126 25.169 6.50363 25.1857 6.49653 25.2012C6.48811 25.2196 6.48044 25.2364 6.48708 25.2496C6.58425 25.444 6.62067 25.6628 6.6329 25.8814C6.6329 25.9216 6.64949 25.9618 6.66889 26.0088C6.67298 26.0187 6.6772 26.0289 6.68142 26.0395C6.69365 26.0395 6.73008 26.0395 6.7544 26.0516L6.68142 26.2704C6.72512 26.2441 6.76256 26.2305 6.80274 26.2158L6.8029 26.2158C6.81853 26.2101 6.83458 26.2042 6.85158 26.1974C6.888 26.3555 6.92456 26.5013 6.97308 26.6349C6.98531 26.6592 7.00964 26.6836 7.04606 26.7079C7.04173 26.7165 7.03893 26.7282 7.03605 26.7402C7.03079 26.762 7.02526 26.7851 7.00964 26.793C7.02247 26.8508 7.03361 26.9078 7.04462 26.9642C7.07527 27.121 7.10498 27.273 7.16756 27.4249C7.17369 27.4249 7.17979 27.4219 7.18588 27.4188C7.19192 27.4157 7.19795 27.4127 7.20398 27.4127C7.18576 27.3033 7.17056 27.1908 7.15536 27.0783C7.14019 26.966 7.12501 26.8536 7.10681 26.7443V26.6715C7.10681 26.6715 7.13114 26.6592 7.14323 26.6592C7.14729 26.6754 7.15269 26.6929 7.15809 26.7104C7.16894 26.7456 7.17979 26.7807 7.17979 26.8051C7.22838 26.8051 7.28913 26.8203 7.34988 26.8354C7.41063 26.8506 7.47138 26.8658 7.51997 26.8658C7.5241 26.8535 7.52821 26.8398 7.53232 26.8262C7.54038 26.7993 7.54842 26.7726 7.55653 26.7565C7.52009 26.7201 7.4867 26.6746 7.45331 26.6291C7.41983 26.5834 7.38635 26.5378 7.34981 26.5013C7.36714 26.5705 7.35978 26.6089 7.35411 26.6385C7.35182 26.6504 7.34981 26.661 7.34981 26.6715C7.30132 26.6472 7.2406 26.6228 7.17987 26.5985C7.22839 26.5378 7.27697 26.477 7.34981 26.404C7.34981 26.2947 7.28906 26.1974 7.1189 26.2097C7.14934 26.1995 7.17978 26.1873 7.21108 26.1747C7.25484 26.1571 7.3003 26.1388 7.34981 26.1246L7.35099 26.1281C7.36282 26.1633 7.37453 26.1982 7.38637 26.2218C7.44634 26.1168 7.41377 26.0257 7.38003 25.9313C7.3591 25.8728 7.33772 25.813 7.33772 25.7478C7.34497 25.6239 7.30415 25.5 7.26246 25.3734C7.23466 25.289 7.20646 25.2034 7.19189 25.1159C7.15604 24.9151 7.14556 24.6551 7.1355 24.4057C7.12852 24.2325 7.12174 24.0644 7.10681 23.9249C7.10681 23.9067 7.08628 23.8884 7.06575 23.8701C7.05894 23.8641 7.05212 23.858 7.04606 23.8519C7.03991 23.8581 7.02151 23.901 7.00319 23.9438C6.98505 23.9861 6.967 24.0282 6.96098 24.0343C6.9974 24.326 7.03383 24.6176 7.05815 24.9093C7.04606 24.9093 7.03383 24.9093 7.03383 24.9214C7.02309 24.8649 7.01234 24.8078 7.00146 24.75C6.96318 24.5466 6.92321 24.3343 6.8759 24.1072C6.87125 24.1399 6.86658 24.1654 6.86259 24.1872C6.85621 24.2221 6.85158 24.2474 6.85158 24.2773C6.83339 24.2713 6.82126 24.2652 6.8061 24.2576C6.7909 24.25 6.77265 24.2408 6.74217 24.2287C6.76701 24.2845 6.79184 24.3309 6.81505 24.3742C6.83731 24.4157 6.85807 24.4545 6.8759 24.4961C6.79083 24.4596 6.69365 24.4718 6.69365 24.4718V24.812C6.60969 24.728 6.56629 24.6557 6.52743 24.5909C6.51007 24.562 6.49361 24.5345 6.47484 24.5082C6.46268 24.4597 6.45357 24.411 6.44447 24.3624C6.43536 24.3138 6.42625 24.2652 6.41409 24.2166L6.45051 24.2043C6.44554 24.1844 6.43851 24.1665 6.43195 24.1498C6.42253 24.1258 6.41409 24.1043 6.41409 24.0828C6.402 23.9978 6.38976 23.9006 6.37767 23.7912C6.38268 23.7862 6.39399 23.7811 6.40724 23.7752C6.42594 23.7669 6.44851 23.7568 6.46275 23.7427L6.36543 23.5968C6.39436 23.6004 6.42005 23.604 6.44348 23.6073C6.49886 23.6151 6.54155 23.621 6.58425 23.621C6.58425 23.6118 6.58601 23.6043 6.58751 23.5979C6.58995 23.5875 6.59173 23.58 6.58425 23.5725C6.4805 23.4791 6.52738 23.3945 6.5735 23.3113C6.58138 23.297 6.58926 23.2828 6.59634 23.2686C6.6085 23.2443 6.63586 23.2291 6.66321 23.2139C6.69056 23.1987 6.71791 23.1835 6.73008 23.1592C6.75767 23.1075 6.79017 23.0587 6.82256 23.01C6.90427 22.8873 6.98531 22.7656 6.98531 22.6002C6.98531 22.5338 6.99876 22.4628 7.01203 22.3928C7.02059 22.3476 7.02908 22.3028 7.03383 22.2599C7.05815 22.0533 7.08248 21.8468 7.09472 21.6402C7.10347 21.5434 7.10589 21.4466 7.10829 21.3504C7.11252 21.1808 7.11671 21.013 7.15547 20.8503C7.25264 20.4249 7.37414 19.9995 7.50787 19.5743C7.60504 19.2704 7.71445 18.9787 7.83595 18.675C7.86321 18.6041 7.89019 18.5333 7.91714 18.4625C8.07051 18.0598 8.22288 17.6598 8.41926 17.2773C8.67034 16.7753 8.94981 16.2876 9.23047 15.7977L9.23058 15.7975C9.31678 15.6471 9.40308 15.4964 9.48872 15.3451C9.71962 14.944 9.96277 14.5673 10.2179 14.1783C10.2462 14.1345 10.2745 14.0904 10.3029 14.0463L10.303 14.0461C10.5182 13.7114 10.7366 13.3717 10.9836 13.0604C11.3724 12.5621 11.7978 12.1003 12.2717 11.687C12.3923 11.5785 12.5115 11.4691 12.6304 11.36C12.9908 11.0294 13.3493 10.7004 13.7422 10.3989C14.4228 9.87633 15.1397 9.41452 15.9054 9.01345C16.5252 8.68538 17.1692 8.43014 17.8134 8.187C18.055 8.09469 18.3089 8.03144 18.5632 7.96812C18.7439 7.92311 18.9248 7.87806 19.1016 7.8225C19.5877 7.66444 20.0739 7.59159 20.5842 7.57936C20.8961 7.56787 21.1969 7.53441 21.5076 7.49986L21.5565 7.49442C21.8481 7.47009 22.1398 7.44576 22.4558 7.40934C22.4193 7.45786 22.4071 7.48219 22.395 7.50651C22.3285 7.60317 22.2591 7.69979 22.1896 7.79641C22.1194 7.89417 22.049 7.99203 21.9819 8.08983C21.9272 8.16886 21.8694 8.25088 21.8117 8.33289C21.754 8.41492 21.6962 8.49694 21.6415 8.57597C21.5902 8.6433 21.5381 8.71064 21.4858 8.7782L21.4856 8.77843C21.3396 8.96687 21.1923 9.15704 21.0582 9.35377C20.9405 9.52268 20.8271 9.69374 20.7134 9.86513L20.7133 9.86526C20.5572 10.1008 20.4006 10.3369 20.2318 10.569C20.0375 10.828 19.8325 11.0762 19.6275 11.3244C19.5247 11.4489 19.4218 11.5734 19.3204 11.6993C19.1199 11.9605 18.9254 12.2248 18.731 12.4891C18.5365 12.7534 18.3421 13.0178 18.1415 13.279C17.9817 13.4974 17.8173 13.7111 17.6533 13.9242C17.4431 14.1974 17.2336 14.4697 17.0356 14.7496C16.8398 15.0207 16.658 15.3011 16.4757 15.5822C16.3639 15.7547 16.2518 15.9276 16.1363 16.0986C15.9115 16.4328 15.6867 16.7639 15.4618 17.0951L15.4617 17.0952C15.2369 17.4263 15.0121 17.7574 14.7873 18.0915C14.4349 18.602 14.0825 19.1002 13.7179 19.6107C13.7003 19.637 13.6764 19.6507 13.6508 19.6654C13.6409 19.671 13.6308 19.6768 13.6207 19.6835C13.6126 19.6916 13.6018 19.6997 13.591 19.7079C13.5693 19.7241 13.5477 19.7403 13.5477 19.7565C13.5384 19.7892 13.5327 19.822 13.5271 19.854C13.5181 19.9052 13.5095 19.9547 13.487 19.9995C13.3898 20.1819 13.2926 20.3642 13.1832 20.5343C13.1463 20.5934 13.1004 20.648 13.0537 20.7035C13.0235 20.7394 12.993 20.7756 12.9644 20.8137C12.9606 20.8119 12.9572 20.81 12.9539 20.8082C12.9515 20.8068 12.9492 20.8055 12.947 20.8042C12.9327 20.796 12.9214 20.7895 12.9037 20.7895C12.9199 20.7489 12.9537 20.7138 12.988 20.6782C13.0564 20.6071 13.1265 20.5342 13.0617 20.4128C13.0314 20.4614 13.001 20.5069 12.9706 20.5525C12.9401 20.598 12.9097 20.6436 12.8793 20.6922L12.7335 20.9839C12.7425 20.9906 12.7527 20.997 12.7629 21.0033C12.8078 21.0311 12.8515 21.0581 12.7822 21.1176C12.7638 21.1482 12.7455 21.1818 12.7271 21.2154C12.709 21.2486 12.6909 21.2818 12.6728 21.3121C12.6789 21.3121 12.6819 21.3151 12.685 21.3182C12.688 21.3212 12.6911 21.3242 12.6971 21.3242C12.7153 21.2999 12.7335 21.2786 12.7518 21.2573C12.77 21.2361 12.7883 21.2148 12.8065 21.1905C12.8125 21.1905 12.8186 21.1935 12.8247 21.1966C12.8308 21.1996 12.8369 21.2027 12.8429 21.2027C12.8145 21.2976 12.7637 21.3851 12.714 21.4709C12.7 21.495 12.6861 21.519 12.6728 21.543C12.6367 21.615 12.5608 21.6736 12.4892 21.7288C12.4642 21.7481 12.4396 21.7671 12.4175 21.786C12.4236 21.792 12.4478 21.8042 12.4721 21.8163C12.4964 21.8285 12.5209 21.8407 12.5269 21.8468C12.5452 21.8224 12.5573 21.8163 12.5695 21.8103C12.5817 21.8042 12.5938 21.7981 12.612 21.7739C12.6245 21.7927 12.6403 21.7857 12.6543 21.7794C12.6674 21.7735 12.6791 21.7684 12.685 21.786C12.6955 21.7719 12.7061 21.7588 12.7161 21.7465C12.7405 21.7162 12.7614 21.6904 12.7701 21.6645C12.8186 21.543 12.8916 21.4457 13.0131 21.3972C13.0614 21.373 13.0977 21.3367 13.1339 21.3005L13.1346 21.2999C13.2155 21.2163 13.297 21.1333 13.3784 21.0504C13.664 20.7596 13.9487 20.4697 14.204 20.1576C14.5448 19.7437 14.8639 19.3191 15.183 18.8945C15.3419 18.6831 15.5008 18.4717 15.6623 18.2617C15.8121 18.068 15.9809 17.8743 16.1458 17.6851C16.2084 17.6133 16.2705 17.5421 16.3307 17.4718C16.3414 17.4772 16.3522 17.4802 16.3619 17.4829C16.3741 17.4864 16.3847 17.4893 16.3916 17.4961C16.3673 17.7513 16.3429 18.0187 16.3307 18.2739C16.3118 18.5066 16.2962 18.7393 16.2805 18.9737C16.2659 19.1922 16.2511 19.4122 16.2335 19.635C16.2275 19.7261 16.2275 19.8173 16.2275 19.9084C16.2275 19.9995 16.2275 20.0907 16.2214 20.1819C16.2214 20.2061 16.2123 20.2274 16.2032 20.2486C16.194 20.2699 16.1849 20.2911 16.1849 20.3155C16.1849 20.3762 16.194 20.4401 16.2031 20.5039C16.2123 20.5677 16.2214 20.6315 16.2214 20.6922C16.2031 20.9172 16.1819 21.139 16.1606 21.3609L16.1606 21.3611C16.1393 21.5827 16.1181 21.8044 16.0998 22.029C16.0907 22.1021 16.1159 22.1751 16.1393 22.243C16.1471 22.2655 16.1546 22.2874 16.1607 22.3086L16.1599 22.3078C16.1479 22.2959 16.1355 22.2837 16.0998 22.2599C16.0998 22.5111 16.1168 22.7607 16.1337 23.0092C16.1642 23.4584 16.1945 23.9044 16.1241 24.3503C16.1728 24.3381 16.1971 24.326 16.1971 24.3017C16.2011 24.2732 16.2066 24.2447 16.212 24.2162C16.2228 24.1596 16.2335 24.103 16.2335 24.0464C16.2415 23.9987 16.239 23.9509 16.2364 23.8997C16.235 23.8727 16.2335 23.8448 16.2335 23.8155V23.694C16.2375 23.6222 16.2455 23.549 16.2534 23.4754C16.2698 23.3249 16.2863 23.1725 16.2699 23.0256C16.2458 22.7825 16.2458 22.5516 16.2943 22.3207C16.3036 22.2832 16.304 22.2421 16.3044 22.1988C16.305 22.1298 16.3056 22.0552 16.3429 21.9805V22.1627C16.3401 22.323 16.3392 22.4832 16.3384 22.6435C16.3354 23.1759 16.3325 23.7084 16.2578 24.2409C16.2548 24.256 16.2556 24.2741 16.2563 24.2926C16.2586 24.3485 16.2611 24.408 16.1607 24.3988C16.1543 24.3988 16.148 24.4154 16.1399 24.4364C16.1325 24.4556 16.1237 24.4786 16.112 24.4961C16.0859 24.5485 16.0957 24.6075 16.1058 24.6675C16.119 24.7469 16.1326 24.8279 16.0634 24.8971C16.0475 24.9129 16.0626 24.9647 16.0784 25.019C16.0868 25.0482 16.0956 25.0782 16.0998 25.1038C16.0998 25.1123 16.1013 25.1209 16.1028 25.129C16.1054 25.1437 16.1077 25.1566 16.0998 25.1645C16.0513 25.2496 16.0513 25.2496 16.1241 25.2617C16.1304 25.3991 16.1399 25.53 16.1493 25.6595C16.1581 25.782 16.1669 25.9033 16.1728 26.0273H16.2092C16.3014 25.7578 16.3067 25.4841 16.312 25.2088C16.3158 25.0123 16.3196 24.815 16.355 24.6176C16.3673 24.812 16.3793 25.0065 16.3673 25.213C16.3673 25.5147 16.3561 25.8053 16.3446 26.1059L16.3429 26.1489C16.3429 26.209 16.331 26.269 16.319 26.3291L16.3186 26.3312C16.3068 26.3862 16.2976 26.4412 16.2884 26.4958C16.2692 26.6101 16.2503 26.7226 16.2092 26.8294C16.1725 26.9212 16.1774 27.0477 16.1819 27.167C16.1834 27.2056 16.1849 27.2434 16.1849 27.2791V27.7408C16.1849 27.7449 16.1889 27.7517 16.1944 27.7607C16.2052 27.7787 16.2214 27.8057 16.2214 27.8381C16.2265 27.8844 16.2186 27.9307 16.2105 27.9779C16.1995 28.0423 16.1882 28.1083 16.2092 28.1784C16.2195 28.1989 16.2038 28.228 16.1913 28.2513C16.189 28.2556 16.1868 28.2597 16.1849 28.2635C16.1728 28.2999 16.1607 28.3363 16.1728 28.3728L16.2092 28.5551C16.2092 28.5626 16.2138 28.5701 16.2203 28.5805C16.2242 28.5869 16.2289 28.5944 16.2335 28.6037C16.2458 28.5551 16.2458 28.5186 16.2458 28.5065C16.3712 28.5213 16.3801 28.5942 16.3895 28.6711C16.3956 28.7208 16.4019 28.7721 16.4401 28.8104C16.4266 28.8171 16.4141 28.8229 16.403 28.828C16.3741 28.8413 16.355 28.8502 16.355 28.8589C16.3595 28.8767 16.3656 28.8929 16.3715 28.9086C16.3818 28.9359 16.3916 28.9618 16.3916 28.9926C16.3916 29.0911 16.3817 29.1798 16.3708 29.2764L16.3673 29.3086C16.3673 29.4499 16.3641 29.5912 16.361 29.7309C16.358 29.8676 16.355 30.0027 16.355 30.1349C16.355 30.1531 16.3581 30.1714 16.3611 30.1896C16.3642 30.2079 16.3673 30.2261 16.3673 30.2443C16.3673 30.2553 16.3648 30.2662 16.3621 30.2783C16.3587 30.293 16.355 30.3094 16.355 30.3294V30.5846H16.4037C16.3793 30.6211 16.355 30.6575 16.3186 30.6939C16.3065 30.6939 16.2699 30.6939 16.2699 30.6818V29.1506H16.0877C16.0803 29.3728 16.0808 29.5883 16.0812 29.7998C16.0823 30.2821 16.0834 30.7434 15.9905 31.2165C15.9325 31.2213 15.8899 31.2281 15.8497 31.2345C15.7887 31.2442 15.7332 31.253 15.6381 31.253C15.2614 31.253 14.8846 31.253 14.5079 31.2651C14.2831 31.2651 14.0612 31.2682 13.8394 31.2713C13.6176 31.2743 13.3958 31.2774 13.171 31.2774C13.0617 31.2774 12.9493 31.2834 12.8369 31.2895C12.7245 31.2955 12.612 31.3016 12.5026 31.3016C12.3568 31.3016 12.2079 31.2924 12.0591 31.2833C11.9102 31.2742 11.7614 31.2651 11.6155 31.2651C11.3461 31.2651 11.0811 31.2782 10.8153 31.2913C10.6374 31.3001 10.459 31.3089 10.2788 31.3138C10.1156 31.3198 9.95255 31.3228 9.78948 31.3258L9.78914 31.3258C9.6242 31.3289 9.45929 31.332 9.29437 31.3381C9.07556 31.3502 8.85675 31.3624 8.63808 31.3866C8.56998 31.3952 8.50783 31.4157 8.43487 31.4397C8.40371 31.4499 8.37059 31.4608 8.33419 31.4717C8.32418 31.4717 8.31051 31.4708 8.29443 31.4697C8.25196 31.4669 8.19268 31.4629 8.13984 31.4717C8.07917 31.4839 8.02152 31.5081 7.96387 31.5324C7.90607 31.5568 7.84826 31.5811 7.78744 31.5932C7.60504 31.6298 7.55653 31.6783 7.58072 31.8607V31.9822C7.55653 31.9578 7.51997 31.9335 7.49564 31.9214C7.48354 31.9214 7.47145 31.9335 7.47145 31.9335C7.47748 31.9517 7.48656 31.9669 7.49565 31.982C7.50478 31.9973 7.51391 32.0125 7.51997 32.0308C7.5369 32.0224 7.55531 32.0095 7.57416 31.9963C7.60944 31.9716 7.64632 31.9458 7.67803 31.9458H7.84819C7.83389 31.9458 7.82377 31.9709 7.81046 32.004C7.80113 32.0272 7.79022 32.0543 7.7752 32.0793C7.87237 32.0429 7.93326 32.0186 7.99401 31.9943C8.00611 32.0308 8.00611 32.0793 8.00611 32.0916C8.05944 32.0878 8.11158 32.0803 8.16251 32.0731C8.27405 32.0573 8.37991 32.0423 8.48001 32.0673C8.95406 32.1888 9.4402 32.2374 9.9262 32.2859C10.2422 32.3103 10.5461 32.3225 10.8621 32.3346C11.3116 32.3589 11.7614 32.3832 12.2109 32.3832C12.3993 32.3832 12.5846 32.3741 12.7699 32.365L12.7701 32.365C12.9554 32.3559 13.1407 32.3468 13.329 32.3468C13.6788 32.3468 14.0285 32.3577 14.3783 32.3685C14.5511 32.3738 14.7239 32.3792 14.8967 32.3832C14.95 32.3832 15.0061 32.3803 15.0637 32.3774C15.1244 32.3742 15.1868 32.371 15.2491 32.371H16.1363C16.529 32.359 16.9217 32.3499 17.3144 32.3408C17.7116 32.3317 18.1089 32.3225 18.5062 32.3103C18.7308 32.3042 18.9586 32.2951 19.1863 32.286L19.1865 32.286C19.4144 32.2769 19.6424 32.2678 19.8673 32.2617L21.2526 32.2252C21.5169 32.2192 21.7812 32.2162 22.044 32.2132C22.3129 32.2101 22.5803 32.207 22.8446 32.2009C23.2343 32.2009 23.6126 32.1894 24.0015 32.1777L24.0355 32.1767C24.3387 32.1684 24.6473 32.1492 24.954 32.1301L24.9542 32.13C25.1024 32.1208 25.2502 32.1116 25.3967 32.1037C25.6395 32.0916 25.8823 32.0673 26.1251 32.043L26.1259 32.0429C26.2198 32.0351 26.315 32.026 26.4106 32.0169C26.612 31.9977 26.8153 31.9782 27.013 31.9699C27.2305 31.9579 27.451 31.9488 27.6716 31.9398L27.6718 31.9398C27.8947 31.9306 28.1178 31.9214 28.3377 31.9092C28.4724 31.9002 28.6071 31.8905 28.742 31.8808C29.1547 31.851 29.5691 31.8211 29.9905 31.812C30.2962 31.7975 30.6062 31.796 30.9154 31.7945C31.1224 31.7936 31.3291 31.7926 31.5338 31.7877C31.7542 31.7818 31.9745 31.7729 32.1963 31.764L32.1966 31.764C32.4273 31.7547 32.6595 31.7453 32.8949 31.7392L33.6606 31.7026C33.6606 31.7026 34.171 31.6905 34.4262 31.6662C34.601 31.6565 34.7758 31.6429 34.9506 31.6293C35.2133 31.6088 35.476 31.5884 35.7386 31.5811C35.8784 31.5751 36.0182 31.5751 36.158 31.5751C36.2977 31.5751 36.4375 31.5751 36.5772 31.569C36.7247 31.565 36.8735 31.5597 37.0227 31.5544C37.3285 31.5434 37.6362 31.5325 37.9383 31.5325C38.0415 31.5325 38.1493 31.5414 38.2669 31.5512C38.3431 31.5575 38.4236 31.5642 38.5095 31.569C38.4364 31.633 38.3839 31.6763 38.3313 31.7197L38.3182 31.7306C38.3052 31.7413 38.2921 31.7521 38.2786 31.7634C38.3264 31.7754 38.3741 31.7991 38.422 31.8229L38.4244 31.8241C38.4244 31.8292 38.4224 31.8342 38.4199 31.8402C38.4165 31.8485 38.4124 31.8585 38.4124 31.8728C38.382 31.8728 38.3516 31.8758 38.3213 31.8789C38.2909 31.8819 38.2604 31.885 38.23 31.885C38.2233 31.9017 38.2167 31.9156 38.21 31.9295C38.1924 31.9664 38.1748 32.0033 38.1571 32.0916H38.3758C38.3151 32.0916 38.2606 32.1473 38.2034 32.2057C38.1804 32.2291 38.1571 32.253 38.1328 32.2738C38.1389 32.2798 38.1449 32.2829 38.1509 32.2859C38.157 32.2889 38.1631 32.292 38.1692 32.2982C38.0356 32.2495 37.9505 32.2738 37.9019 32.4076C37.9383 32.4197 37.9626 32.4197 37.9991 32.4197C37.987 32.4561 37.9749 32.4926 37.9626 32.5412L37.9623 32.5417C37.9504 32.5659 37.9383 32.5901 37.9383 32.6262L37.9019 32.5898C37.9019 32.5655 37.9019 32.5412 37.8898 32.5168C37.8767 32.5299 37.8625 32.5422 37.8483 32.5544C37.7831 32.6107 37.7183 32.6667 37.7681 32.7964C37.7526 32.8042 37.7359 32.8119 37.7183 32.8201C37.6808 32.8375 37.6395 32.8567 37.5981 32.8815C37.6027 32.8906 37.6089 32.8997 37.6155 32.9094C37.6267 32.9257 37.6391 32.9437 37.6466 32.9666C37.5374 32.9786 37.428 33.003 37.4523 33.1367C37.4827 33.1443 37.5131 33.1567 37.5406 33.1678C37.557 33.1745 37.5723 33.1807 37.5859 33.1852C37.5555 33.1974 37.5251 33.2126 37.4948 33.2278C37.4644 33.243 37.434 33.2581 37.4036 33.2703C37.3999 33.2777 37.3962 33.2885 37.3922 33.3003C37.3829 33.3271 37.3719 33.3591 37.355 33.3676C37.2131 33.398 37.2572 33.4453 37.3039 33.4954C37.3132 33.5053 37.3226 33.5154 37.3307 33.5255C37.2942 33.5499 37.2578 33.5742 37.2214 33.5863C37.2578 33.5985 37.2821 33.6106 37.3065 33.6349C37.2712 33.6584 37.2473 33.6705 37.2239 33.6823L37.2214 33.6836C37.2254 33.6856 37.2297 33.6879 37.2341 33.6904C37.2387 33.6929 37.2435 33.6957 37.2483 33.6984C37.2672 33.7092 37.2862 33.72 37.2942 33.72C37.2456 33.7564 37.1848 33.8051 37.112 33.8659C37.112 33.8902 37.112 33.9023 37.1241 33.9266L37.1224 33.9282C37.0745 33.9764 37.0264 34.0246 36.9783 34.0968C36.9576 34.1278 36.9413 34.1633 36.9247 34.1995C36.9024 34.2481 36.8795 34.298 36.8447 34.3398C36.762 34.4303 36.6869 34.526 36.6121 34.6214C36.456 34.8204 36.3007 35.0183 36.079 35.1662C35.9575 35.2513 35.8481 35.3606 35.7386 35.47C35.6512 35.5525 35.5677 35.639 35.4841 35.7255C35.3587 35.8553 35.2332 35.9852 35.0946 36.1019C34.7908 36.3572 34.4748 36.5881 34.1466 36.819L34.1425 36.8219L34.1423 36.822C33.7428 37.1004 33.3432 37.3789 32.9436 37.6453C32.8089 37.7351 32.665 37.811 32.5204 37.8874C32.4302 37.935 32.3396 37.9829 32.2509 38.0343C32.1345 38.1016 32.0212 38.1659 31.9079 38.2302L31.9077 38.2303C31.7962 38.2936 31.6848 38.3569 31.5702 38.4231C31.517 38.4586 31.4654 38.499 31.4137 38.5394C31.3236 38.6099 31.2331 38.6806 31.1328 38.727C30.865 38.8406 30.5865 38.9433 30.3079 39.0461C30.1693 39.0972 30.0306 39.1484 29.8933 39.2009C29.875 39.2069 29.8599 39.213 29.8447 39.2191C29.8295 39.2251 29.8142 39.2313 29.796 39.2373C29.7062 39.2768 29.6175 39.3174 29.5292 39.3578C29.3188 39.4541 29.1108 39.5492 28.8967 39.6263C28.6171 39.7235 28.3256 39.7964 28.0338 39.8572C27.9784 39.8711 27.9191 39.8691 27.858 39.8671C27.812 39.8656 27.7649 39.8641 27.718 39.8693C27.6487 39.8815 27.5794 39.8951 27.5102 39.9086C27.3728 39.9356 27.2354 39.9625 27.0981 39.9787C26.8308 40.0152 26.5634 40.0455 26.2961 40.0759C26.0287 40.1063 25.7613 40.1367 25.494 40.1732C25.336 40.1914 25.181 40.2157 25.026 40.24C24.8711 40.2643 24.7161 40.2886 24.5581 40.3068C24.4264 40.3141 24.2903 40.3082 24.1551 40.3024C24.0658 40.2985 23.9768 40.2947 23.8897 40.2947C23.831 40.2947 23.7705 40.2997 23.7096 40.3048C23.6068 40.3134 23.5028 40.322 23.4036 40.3068C23.2333 40.2824 23.0629 40.2473 22.8925 40.2121C22.8077 40.1946 22.7228 40.1771 22.638 40.1609C22.6291 40.1592 22.6197 40.1571 22.61 40.155C22.5532 40.1428 22.4851 40.1281 22.4435 40.1488C22.3897 40.1757 22.3396 40.1653 22.289 40.1549C22.2484 40.1465 22.2074 40.138 22.1641 40.1488C22.1304 40.1556 22.0967 40.1436 22.0629 40.1316C22.0359 40.122 22.0088 40.1124 21.9817 40.1124C21.9578 40.1064 21.931 40.1092 21.9027 40.1122C21.8734 40.1153 21.8426 40.1186 21.8117 40.1124C21.7867 40.1056 21.7622 40.0983 21.7378 40.0912C21.6317 40.0599 21.5292 40.0296 21.4106 40.0394C21.3117 40.0477 21.2128 40.0168 21.11 39.9847C21.0613 39.9695 21.0117 39.954 20.9609 39.9423C20.8549 39.9187 20.7517 39.8951 20.6485 39.8715L20.6481 39.8714C20.5387 39.8464 20.4294 39.8214 20.3169 39.7964C20.2318 39.7721 20.1589 39.7357 20.0739 39.687C20.07 39.6889 20.0659 39.6911 20.0615 39.6935C20.0378 39.7061 20.0054 39.7235 19.9644 39.7235C19.9066 39.7133 19.8488 39.705 19.7913 39.6967C19.6432 39.6755 19.4969 39.6545 19.3568 39.602C19.3234 39.59 19.2904 39.5771 19.2576 39.5643C19.1236 39.512 18.9929 39.4609 18.8463 39.4805C18.8176 39.4876 18.7931 39.482 18.7679 39.4763C18.7504 39.4723 18.7326 39.4682 18.7127 39.4682C18.7005 39.452 18.6883 39.4302 18.676 39.4085C18.6518 39.3654 18.6276 39.3224 18.6033 39.3224C18.4566 39.3298 18.3453 39.2575 18.2347 39.1856C18.1621 39.1384 18.0897 39.0914 18.0078 39.0673C17.9531 39.049 17.9046 39.0095 17.856 38.9701C17.8074 38.9306 17.7588 38.891 17.704 38.8728C17.6024 38.8312 17.5078 38.7721 17.4129 38.7127C17.2581 38.616 17.1024 38.5187 16.9141 38.4961C16.8474 38.4877 16.7807 38.4622 16.7101 38.4352C16.6777 38.4229 16.6446 38.4102 16.6103 38.3988C16.6139 38.4036 16.6175 38.4084 16.6209 38.4131C16.6245 38.4179 16.628 38.4227 16.6314 38.4273C16.6572 38.4624 16.6785 38.4914 16.7074 38.5204L16.6831 38.5446L16.672 38.538C16.3476 38.3459 16.0232 38.1537 15.6989 37.9735C15.6668 37.9654 15.64 37.9416 15.615 37.9193C15.6021 37.9078 15.5897 37.8967 15.5772 37.8884L15.2491 37.6696C15.2127 37.6453 15.1397 37.6089 15.1397 37.621C15.0796 37.6913 15.0194 37.6539 14.9729 37.625C14.9631 37.6188 14.9539 37.6131 14.9454 37.6089C14.8013 37.5075 14.6479 37.4225 14.4943 37.3375C14.2981 37.2288 14.1017 37.1201 13.9245 36.9769C13.8789 36.9396 13.8305 36.9066 13.7826 36.8739C13.6901 36.8108 13.5996 36.749 13.5356 36.6609C13.3655 36.4543 13.1589 36.3085 12.928 36.187C12.7457 36.0898 12.5756 35.9804 12.4054 35.871C12.3203 35.8103 12.2353 35.7374 12.2353 35.6037C12.2353 35.5186 12.1988 35.4335 12.0894 35.4822C12.0829 35.4724 12.0764 35.4624 12.0698 35.4524C12.0276 35.3875 11.9841 35.3209 11.9315 35.2998C11.8146 35.2511 11.7289 35.1713 11.6432 35.0914C11.6219 35.0716 11.6007 35.0518 11.579 35.0325C11.5448 35.0021 11.513 34.9682 11.4814 34.9344C11.4118 34.86 11.3428 34.7864 11.2509 34.7531C11.0416 34.6692 10.9044 34.5044 10.7772 34.3516C10.7567 34.3269 10.7365 34.3026 10.7162 34.279C10.4608 33.9779 10.2258 33.6563 9.99086 33.3347C9.91284 33.2279 9.83482 33.1211 9.75605 33.0151C9.7418 32.9936 9.71905 32.9763 9.69532 32.9583C9.67877 32.9458 9.66174 32.9329 9.64678 32.9179L9.63455 32.9301C9.66526 32.9916 9.69598 33.0499 9.72671 33.1083C9.75675 33.1653 9.78684 33.2225 9.81694 33.2825C9.81086 33.2885 9.80179 33.2946 9.79272 33.3006C9.78354 33.3068 9.77436 33.3129 9.76828 33.319C9.732 33.2767 9.69273 33.2344 9.65346 33.1921C9.61373 33.1493 9.57401 33.1065 9.53737 33.0637C9.52514 33.076 9.51305 33.0881 9.50095 33.0881L10.3759 34.4735C10.4121 34.5279 10.4454 34.5822 10.4786 34.6366C10.5122 34.6916 10.5458 34.7465 10.5825 34.8016C10.5704 34.8138 10.5582 34.8259 10.5338 34.838C10.4002 34.8138 10.2788 34.7165 10.2179 34.6071C10.1086 34.4127 9.98695 34.2912 9.74395 34.3154C9.71962 34.2304 9.6953 34.1332 9.6832 34.0481C9.63455 34.0481 9.59812 34.0481 9.51305 34.036C9.6832 34.3033 9.82903 34.5342 9.98695 34.8016C9.96376 34.7877 9.94411 34.7755 9.92732 34.7651C9.90015 34.7484 9.88049 34.7362 9.86545 34.7287C9.93434 34.8014 9.9972 34.8801 10.0597 34.9584C10.1958 35.1288 10.3302 35.2972 10.5218 35.3971C10.5531 35.5411 10.6522 35.6465 10.7509 35.7513C10.8436 35.8499 10.936 35.9481 10.9713 36.0776C10.941 36.0716 10.9136 36.0655 10.8863 36.0594C10.859 36.0533 10.8317 36.0472 10.8013 36.0412C10.7494 35.9764 10.6941 35.9116 10.6372 35.845C10.5874 35.7866 10.5363 35.7269 10.4853 35.6644C10.5095 35.7495 10.5461 35.8224 10.5946 35.8833C10.6207 35.9159 10.6464 35.9485 10.672 35.981C10.7894 36.13 10.9046 36.276 11.0443 36.4058C11.0606 36.4221 11.0787 36.4358 11.0964 36.4492C11.1446 36.4857 11.1901 36.5202 11.1901 36.6002C11.2143 36.576 11.2384 36.564 11.2861 36.54L11.2873 36.5394C11.263 36.5881 11.2509 36.6124 11.2388 36.6488C11.2648 36.6488 11.2874 36.6523 11.3083 36.6555C11.3265 36.6583 11.3434 36.6609 11.3603 36.6609C11.3663 36.679 11.3686 36.6993 11.3709 36.7193C11.3777 36.7799 11.3842 36.8373 11.4939 36.819C11.5061 36.819 11.5182 36.8311 11.5305 36.8433C11.5912 37.0012 11.6884 37.0012 11.8221 36.9405C11.8464 36.9284 11.9072 36.9405 11.9193 36.9648C11.98 37.0984 12.0651 37.1106 12.1745 37.0135C12.1745 37.0455 12.1779 37.0776 12.1811 37.1079C12.1839 37.135 12.1866 37.1606 12.1866 37.1835H12.2353C12.2353 37.1741 12.2335 37.1629 12.2312 37.1492C12.2277 37.1274 12.2232 37.0992 12.2232 37.062C12.2464 37.0806 12.266 37.0956 12.2828 37.1084C12.31 37.1292 12.3296 37.1443 12.3447 37.1593L12.3605 37.1814C12.4758 37.343 12.583 37.4932 12.7457 37.621C12.8597 37.7169 12.9677 37.8159 13.0742 37.9134C13.1835 38.0134 13.2912 38.1121 13.4019 38.2044C13.8273 38.5568 14.3012 38.8485 14.7752 39.1158C15.0085 39.247 15.2378 39.3821 15.4672 39.5172C15.8114 39.7199 16.1557 39.9227 16.5131 40.1123C17.23 40.4892 17.9957 40.7442 18.7856 40.9266C19.0772 40.9874 19.3568 41.0481 19.6485 41.121C19.7578 41.1522 19.8671 41.1902 19.9764 41.2281C20.1223 41.2787 20.2682 41.3294 20.414 41.3641C20.7472 41.437 21.0893 41.5009 21.425 41.5636L21.4271 41.564C21.4826 41.5744 21.5379 41.5847 21.5929 41.595L21.6109 41.5976L21.6113 41.5976C21.6903 41.6089 21.77 41.6202 21.8602 41.6315V41.6558C21.9039 41.6558 21.9515 41.648 21.9944 41.641C22.059 41.6305 22.1131 41.6217 22.1277 41.6435C22.1746 41.7188 22.2143 41.7068 22.2636 41.6919C22.2781 41.6875 22.2934 41.6829 22.3099 41.6801C22.395 41.6558 22.4922 41.6558 22.5893 41.6558C22.7209 41.6605 22.8507 41.6742 22.9801 41.688C23.1852 41.7098 23.3894 41.7315 23.5981 41.7165C23.6154 41.7165 23.6349 41.7131 23.6552 41.7095C23.7204 41.6979 23.7949 41.6847 23.8412 41.7773C23.8533 41.7712 23.8623 41.7652 23.8713 41.7592C23.8805 41.7531 23.8897 41.747 23.9019 41.7409C23.9263 41.7347 23.9538 41.7317 23.9813 41.7286C24.0085 41.7256 24.0357 41.7225 24.0599 41.7165V41.7409C24.0449 41.7483 24.03 41.7512 24.0094 41.7551C23.9965 41.7576 23.9814 41.7605 23.9627 41.7652C24.0234 41.7773 24.0599 41.7894 24.0964 41.8016C24.0786 41.8194 24.0673 41.8242 24.0529 41.8302C24.0477 41.8324 24.042 41.8348 24.0355 41.838C24.0301 41.8407 24.0241 41.8435 24.0174 41.8464C23.9944 41.8568 23.9639 41.8705 23.9263 41.8988C24.3638 41.9839 24.7769 41.9961 25.1416 41.8988V41.8259H25.1901C25.1901 41.8498 25.202 41.8739 25.214 41.8979L25.2144 41.8988C25.7734 41.9474 26.3203 41.8745 26.8428 41.6922C26.8463 41.6965 26.8496 41.7009 26.853 41.7053C26.8561 41.7096 26.8593 41.7139 26.8624 41.7181C26.9022 41.7725 26.938 41.8213 27.0009 41.7165C27.0233 41.683 27.0766 41.67 27.1227 41.6587L27.1345 41.6558C27.1556 41.6511 27.1776 41.6455 27.2001 41.6398C27.2941 41.6159 27.3964 41.5898 27.4748 41.6194C27.5387 41.6406 27.5777 41.6163 27.6161 41.5924C27.6434 41.5753 27.6703 41.5585 27.7057 41.5585C27.8515 41.5585 27.9853 41.5464 28.1189 41.522C28.1621 41.5149 28.2053 41.4991 28.2511 41.4824C28.2825 41.471 28.3151 41.459 28.3498 41.4492C28.3498 41.437 28.3498 41.4249 28.3377 41.4126C28.2526 41.4005 28.1554 41.3885 28.0825 41.3885C28.2268 41.3162 28.3593 41.2559 28.4916 41.1958L28.4956 41.194C28.4956 41.2 28.4986 41.203 28.5017 41.2061C28.5048 41.2091 28.5078 41.2122 28.5078 41.2183C28.4931 41.2232 28.4803 41.234 28.4672 41.2452C28.4477 41.2618 28.4274 41.279 28.3984 41.279H28.5686C28.546 41.279 28.5186 41.3212 28.4866 41.3707C28.4671 41.4008 28.4458 41.4337 28.4228 41.4613C28.6504 41.4044 28.8683 41.3507 29.0796 41.2987C29.2744 41.2507 29.4637 41.2041 29.6501 41.1575V41.1332C29.628 41.1387 29.6084 41.1417 29.5901 41.1445C29.5683 41.1479 29.5485 41.1509 29.5286 41.1575C29.5214 41.0044 29.619 40.9738 29.7193 40.9423C29.7862 40.9213 29.8543 40.8999 29.8933 40.8416L29.8921 40.8419C29.7709 40.8782 29.6497 40.9145 29.5286 40.9387V40.9144C29.7325 40.8245 29.9393 40.7346 30.1462 40.6446L30.1464 40.6446C30.3587 40.5522 30.5711 40.4599 30.7803 40.3675C30.7803 40.3736 30.7834 40.3767 30.7865 40.3798C30.7895 40.3828 30.7926 40.3858 30.7926 40.3918C30.7391 40.4275 30.6856 40.4566 30.6178 40.4936C30.5931 40.507 30.5665 40.5215 30.5373 40.5377C30.5674 40.5427 30.5933 40.5457 30.616 40.5483C30.6482 40.552 30.6739 40.5549 30.6953 40.562C30.6953 40.5984 30.6953 40.6227 30.6832 40.635C30.8278 40.6264 30.8473 40.5346 30.8669 40.4427C30.8752 40.4033 30.8836 40.3639 30.9018 40.3311C30.909 40.3335 30.9166 40.3363 30.9245 40.3392C30.9569 40.3513 30.9941 40.3651 31.0235 40.3554C31.1108 40.336 31.1904 40.3088 31.2746 40.2801C31.2958 40.2729 31.3173 40.2656 31.3393 40.2582L31.3421 40.2574C31.4628 40.2211 31.5835 40.1849 31.704 40.1366C31.8254 40.0835 31.942 40.021 32.0598 39.9578C32.1307 39.9198 32.2021 39.8815 32.2752 39.845C32.2995 39.8369 32.3345 39.8396 32.3696 39.8423C32.3872 39.8436 32.4048 39.845 32.421 39.845C32.4573 39.845 32.4816 39.8208 32.5058 39.7967L32.5061 39.7964C32.5222 39.7843 32.5383 39.7682 32.554 39.7525C32.5856 39.7209 32.6154 39.691 32.6397 39.6991C32.8098 39.7235 32.9313 39.6627 32.98 39.5048C32.9861 39.5048 32.9892 39.5017 32.9922 39.4986C32.9953 39.4956 32.9983 39.4925 33.0043 39.4925L33.0064 39.4909C33.0665 39.4429 33.1265 39.395 33.1866 39.3588C33.3216 39.2852 33.4536 39.2116 33.5855 39.1379L33.5857 39.1378C33.715 39.0657 33.8443 38.9936 33.9766 38.9213C33.9844 38.9135 33.9973 38.9158 34.012 38.9184C34.0201 38.9198 34.0287 38.9213 34.0374 38.9213C34.0738 38.9213 34.1224 38.9213 34.1466 38.9092C34.3047 38.8362 34.4505 38.7513 34.5963 38.6662C34.5849 38.6624 34.5806 38.6585 34.5764 38.6547C34.5672 38.6464 34.558 38.638 34.4748 38.6297V38.6053C34.5957 38.5813 34.6324 38.5691 34.7045 38.545L34.7058 38.5446L34.6814 38.5204C34.8641 38.3378 35.0751 38.1836 35.2793 38.0343C35.4285 37.9254 35.574 37.819 35.7022 37.7062C35.7126 37.7083 35.7219 37.7103 35.7304 37.7123C35.7409 37.7148 35.7502 37.7172 35.7586 37.7194C35.7833 37.7258 35.8012 37.7304 35.8237 37.7304C35.836 37.694 35.836 37.6575 35.836 37.6332C35.8401 37.628 35.8442 37.6228 35.8484 37.6174C35.8554 37.6084 35.8625 37.5991 35.8696 37.5898C35.9075 37.5402 35.9471 37.4883 35.9939 37.451C36.098 37.3562 36.2059 37.2671 36.3131 37.1784C36.4811 37.0395 36.6477 36.9018 36.796 36.746C37.1484 36.3936 37.4887 36.0291 37.8047 35.6524C38.0964 35.312 38.388 34.9717 38.631 34.595C38.9415 34.1182 39.2115 33.6313 39.4872 33.1343C39.5136 33.0866 39.5402 33.0388 39.5667 32.9909C39.6765 32.7958 39.7801 32.6008 39.8837 32.4058C39.9867 32.2119 40.0897 32.018 40.1987 31.8241C40.223 31.7877 40.2717 31.7392 40.3081 31.7392C40.4657 31.7216 40.6234 31.7069 40.7797 31.6923L40.7798 31.6922C40.9488 31.6764 41.1163 31.6608 41.2804 31.6419C41.3411 31.6318 41.4104 31.5963 41.4741 31.5636C41.4867 31.5571 41.4992 31.5507 41.5113 31.5447C41.493 31.5142 41.4777 31.4806 41.4624 31.4471C41.4473 31.4138 41.4321 31.3805 41.414 31.3502C41.3896 31.3136 41.3591 31.28 41.3286 31.2465C41.2983 31.2132 41.2681 31.1799 41.2438 31.1436C41.1959 31.0836 41.1597 31.0115 41.1236 30.9395L41.1223 30.9371C41.104 30.9064 41.0856 30.8788 41.0672 30.8513C41.0491 30.8241 41.0311 30.797 41.0129 30.7669L41.0105 30.7624C40.9384 30.6302 40.8664 30.4979 40.8064 30.3537C40.8049 30.3493 40.8032 30.3444 40.8014 30.3393C40.7888 30.3027 40.7714 30.252 40.782 30.22C40.8963 29.9726 40.974 29.7152 41.0517 29.4583C41.1228 29.2231 41.1938 28.9882 41.2925 28.7617C41.4564 28.3761 41.5285 27.9522 41.5999 27.5326C41.6185 27.4232 41.637 27.3142 41.6571 27.2061C41.7209 26.8327 41.7641 26.4593 41.8074 26.0858C41.8218 25.9609 41.8363 25.8361 41.8515 25.7113C41.861 25.6192 41.8714 25.5279 41.8817 25.4371C41.9109 25.1803 41.9398 24.9264 41.9488 24.6662C42.0136 24.1692 42.0015 23.7009 41.9895 23.2359C41.988 23.1779 41.9866 23.12 41.9852 23.062ZM11.4331 36.6245C11.3908 36.5761 11.3515 36.5246 11.3121 36.4731C11.2725 36.4213 11.2328 36.3695 11.1901 36.3207L11.2266 36.2842L11.2352 36.2936C11.3661 36.4364 11.4969 36.5793 11.6276 36.7339C11.6075 36.7238 11.5863 36.7147 11.5656 36.7057C11.5114 36.6821 11.4596 36.6597 11.4331 36.6245ZM11.6276 36.7339C11.6457 36.7279 11.6639 36.7249 11.682 36.7218C11.7004 36.7188 11.7187 36.7157 11.737 36.7096C11.7585 36.7453 11.7757 36.7853 11.7937 36.827C11.8063 36.8562 11.8192 36.8862 11.8342 36.9162C11.664 36.9041 11.579 36.8311 11.6276 36.7339ZM24.2664 41.753V41.7165C24.3752 41.7051 24.4812 41.6936 24.5872 41.6822L24.5894 41.6819C24.7076 41.6692 24.8257 41.6564 24.9471 41.6437V41.6801C24.7162 41.7165 24.4974 41.7409 24.2664 41.753ZM27.329 41.437C27.1786 41.4693 27.0188 41.4919 26.8663 41.5135C26.8462 41.5164 26.8262 41.5192 26.8064 41.522C26.7928 41.5248 26.7786 41.53 26.7644 41.5351C26.7154 41.553 26.6674 41.5705 26.6485 41.4856C26.6364 41.4916 26.6243 41.4947 26.6122 41.4977C26.6 41.5007 26.5877 41.5038 26.5755 41.51C26.6117 41.6185 26.6781 41.6107 26.7515 41.602C26.8013 41.5961 26.8545 41.5898 26.9036 41.6194C26.7784 41.6364 26.6558 41.6508 26.5346 41.6651C26.3972 41.6812 26.2615 41.6972 26.1259 41.7165V41.6922C26.1626 41.6861 26.2023 41.68 26.2421 41.6739L26.2427 41.6738C26.2817 41.6678 26.3208 41.6618 26.3568 41.6558V41.6194C26.2352 41.6071 26.1137 41.595 25.9922 41.595C25.9708 41.595 25.9452 41.6118 25.9203 41.6281C25.9028 41.6396 25.8857 41.6508 25.8707 41.6558L25.8694 41.6561C25.8212 41.6681 25.7728 41.6801 25.7126 41.6801C25.6115 41.686 25.5104 41.6891 25.4107 41.692L25.4105 41.692C25.3066 41.6951 25.2042 41.6982 25.105 41.7044C25.099 41.7044 25.0899 41.7014 25.0808 41.6983C25.0717 41.6953 25.0625 41.6922 25.0565 41.6922V41.6558C25.4467 41.6033 25.8342 41.5509 26.2215 41.4985C26.6424 41.4415 27.0631 41.3846 27.487 41.3277C27.4931 41.3398 27.4961 41.352 27.4992 41.3641C27.5022 41.3763 27.5052 41.3884 27.5112 41.4005C27.4627 41.4005 27.425 41.4113 27.3872 41.4221C27.3744 41.4258 27.3616 41.4294 27.3484 41.4326C27.342 41.4342 27.3356 41.4357 27.329 41.437ZM27.5112 41.3155C27.6412 41.2985 27.7659 41.2842 27.889 41.2701C28.0307 41.2538 28.1703 41.2378 28.3134 41.2183C27.7544 41.3762 27.5721 41.4005 27.5112 41.3155ZM17.3526 16.1973L17.3527 16.1971C17.6042 15.8552 17.8571 15.5114 18.1051 15.1627C18.1657 15.0839 18.2203 15.0021 18.2748 14.9202C18.3297 14.838 18.3845 14.7558 18.4454 14.6767C18.4702 14.6436 18.5007 14.6217 18.5368 14.5957C18.5537 14.5836 18.5718 14.5706 18.5912 14.5551L18.579 14.5309C18.5936 14.5127 18.6081 14.4955 18.622 14.4792C18.6545 14.4409 18.6835 14.4069 18.7005 14.3728C18.7436 14.3039 18.7746 14.2287 18.8062 14.1518C18.8192 14.1204 18.8323 14.0886 18.8463 14.0568C18.8586 14.0325 18.895 14.0083 18.895 14.0083C19.0167 14.0691 19.0514 13.9931 19.0835 13.9227C19.0962 13.8947 19.1086 13.8675 19.1259 13.8503C19.2353 13.7288 19.3447 13.595 19.4419 13.4735C19.4589 13.4508 19.476 13.4287 19.4929 13.4068C19.5482 13.3352 19.6019 13.2657 19.6485 13.1819C19.6565 13.1576 19.6431 13.1226 19.6296 13.0875C19.6229 13.0699 19.6161 13.0523 19.612 13.036H19.5756C19.5938 13.0239 19.612 13.0087 19.6303 12.9935C19.6485 12.9783 19.6667 12.9631 19.6849 12.951C19.6901 12.951 19.6931 12.951 19.6958 12.95C19.6993 12.9487 19.7023 12.9458 19.7092 12.9389L19.7128 12.9334C19.7846 12.8258 19.8562 12.7184 19.928 12.6229C20.0739 12.4284 20.2318 12.2339 20.4019 12.0638L20.4011 12.0658C20.3771 12.1259 20.353 12.1859 20.3291 12.2339C20.3351 12.2339 20.3382 12.237 20.3412 12.24C20.3442 12.2431 20.3472 12.2461 20.3533 12.2461C20.4262 12.1489 20.5022 12.0547 20.5781 11.9605C20.6541 11.8664 20.7301 11.7722 20.803 11.6749L20.8022 11.6741C20.7902 11.6623 20.7784 11.6506 20.7666 11.6506C20.7362 11.681 20.7088 11.7113 20.6815 11.7417C20.6541 11.7721 20.6268 11.8025 20.5964 11.8328L20.596 11.8324C20.5839 11.8205 20.572 11.8087 20.5599 11.8087C20.6815 11.6506 20.803 11.4927 20.9245 11.3103C20.9488 11.3468 20.9731 11.3954 21.0217 11.4927C21.0506 11.4204 21.0795 11.3611 21.1058 11.307C21.1238 11.27 21.1406 11.2355 21.1554 11.201C21.1372 11.2192 21.1159 11.2374 21.0947 11.2556C21.0734 11.2739 21.0521 11.2921 21.0339 11.3103L20.9973 11.2739L21.2162 10.9458C21.3316 10.7817 21.447 10.6146 21.5625 10.4475C21.6779 10.2804 21.7934 10.1133 21.9089 9.94917C21.9464 9.89564 21.9886 9.84683 22.0303 9.79859C22.0833 9.73733 22.1354 9.67697 22.1762 9.609C22.3176 9.32618 22.5092 9.0798 22.7006 8.8336C22.8218 8.67778 22.9429 8.52203 23.0512 8.35716C23.097 8.29318 23.1565 8.23599 23.2143 8.18047C23.2332 8.16228 23.252 8.14425 23.27 8.12625C23.3307 8.05341 23.3794 8.07773 23.428 8.13848C23.5921 8.34507 23.7561 8.55472 23.9202 8.76437C24.0842 8.97399 24.2482 9.18362 24.4123 9.39019C24.4694 9.46154 24.5264 9.53222 24.5834 9.6027L24.5838 9.60326C24.7692 9.83274 24.9528 10.0601 25.1293 10.3016C25.2691 10.4961 25.4058 10.6905 25.5425 10.885L25.5428 10.8854C25.6795 11.0797 25.8161 11.274 25.9558 11.4683C26.2718 11.9179 26.5877 12.3676 26.8915 12.8295C27.1223 13.1696 27.3471 13.5098 27.5719 13.85L27.5721 13.8503C27.7969 14.1905 28.0217 14.5308 28.2526 14.8711C28.3514 15.0158 28.4502 15.1594 28.5487 15.3026L28.5493 15.3035C28.7899 15.6533 29.0287 16.0004 29.2613 16.3538H28.6414C28.4522 16.3498 28.2617 16.3417 28.0707 16.3336C27.6852 16.3173 27.2978 16.301 26.9158 16.3172C26.3934 16.3418 25.8655 16.3882 25.3395 16.4344C25.0824 16.457 24.8257 16.4795 24.5703 16.4995C23.586 16.5846 22.5894 16.5968 21.6051 16.5968C21.3698 16.5968 21.1346 16.6184 20.8994 16.64C20.7822 16.6508 20.665 16.6616 20.5478 16.6696L20.4815 16.6734C20.0794 16.6965 19.6871 16.7189 19.2838 16.7305C18.7856 16.7547 18.2994 16.767 17.8012 16.7791C17.6162 16.7872 17.4258 16.7845 17.23 16.7818C17.1302 16.7805 17.0289 16.7791 16.9262 16.7791C17.0672 16.5853 17.2097 16.3916 17.3526 16.1973ZM30.8654 22.3693V22.4787C30.8632 22.4787 30.861 22.4791 30.8586 22.4798C30.8558 22.4806 30.8528 22.4819 30.8495 22.4832C30.8411 22.4867 30.831 22.4908 30.8168 22.4908C30.8083 22.4612 30.7999 22.4312 30.7913 22.401C30.7509 22.2576 30.709 22.1088 30.6588 21.9683C30.5373 21.6159 30.4036 21.2634 30.1849 20.9475C30.0463 20.7534 29.9157 20.5555 29.7839 20.3559L29.7838 20.3557C29.6844 20.2052 29.5845 20.0538 29.48 19.9023C29.4342 19.8382 29.3746 19.781 29.3169 19.7255C29.298 19.7074 29.2793 19.6894 29.2613 19.6714C29.2443 19.6528 29.2272 19.634 29.2102 19.6153L29.209 19.6141C28.9709 19.3525 28.7285 19.0861 28.4228 18.8936C27.9366 18.5899 27.4384 18.3347 26.9036 18.1158C26.7578 18.0551 26.6242 17.9822 26.4783 17.8972H26.77L28.8482 17.8607C28.9976 17.8567 29.1457 17.854 29.2934 17.8513L29.2936 17.8513C29.5901 17.8458 29.8848 17.8404 30.1849 17.8242C30.2943 17.8242 30.3551 17.8607 30.4158 17.9579L30.4196 17.9642C30.5277 18.1443 30.6359 18.3245 30.756 18.5048C30.7582 18.5092 30.7608 18.5139 30.7636 18.519C30.7762 18.5422 30.7926 18.5721 30.7926 18.602C30.7926 18.8693 30.7926 19.1489 30.8047 19.4162C30.8108 19.5559 30.8199 19.6925 30.829 19.8291L30.829 19.8297C30.8381 19.9663 30.8472 20.103 30.8533 20.2427C30.8533 20.3534 30.8495 20.466 30.8456 20.5798C30.8398 20.7532 30.8338 20.9293 30.8411 21.1054C30.8533 21.5187 30.8654 21.9439 30.8654 22.3693ZM17.7891 18.2982C18.0803 18.2858 18.3652 18.2702 18.6485 18.2547C18.921 18.2398 19.1921 18.225 19.4662 18.2131C19.6862 18.2009 19.9092 18.1917 20.1322 18.1826C20.3527 18.1735 20.5732 18.1644 20.7908 18.1524L20.8006 18.1517C20.9793 18.1397 21.1466 18.1285 21.3256 18.1524C21.1311 18.2496 20.9367 18.3467 20.7666 18.4684C20.6443 18.5498 20.5259 18.6464 20.407 18.7434C20.3131 18.82 20.2189 18.8969 20.1224 18.9666C19.9037 19.1245 19.7092 19.319 19.527 19.5256C19.3825 19.7005 19.2286 19.861 19.0741 20.0222C18.9816 20.1187 18.8888 20.2154 18.7978 20.3155C18.741 20.3804 18.6815 20.4439 18.622 20.5075C18.5033 20.6343 18.3845 20.7612 18.2874 20.8988C18.1018 21.139 17.9359 21.3988 17.7631 21.6693L17.7626 21.6701C17.7432 21.7005 17.7237 21.731 17.704 21.7617C17.7098 21.6521 17.7157 21.5427 17.7215 21.4333C17.7775 20.3901 17.8332 19.3541 17.7891 18.2982ZM25.7249 29.9891C25.6737 30.0019 25.6223 30.0149 25.5707 30.0279C25.2304 30.114 24.8822 30.2021 24.5339 30.2443C24.2506 30.2848 23.9589 30.2831 23.6658 30.2814C23.6068 30.2811 23.5478 30.2808 23.4888 30.2808C23.1728 30.2808 22.8689 30.2687 22.5529 30.2443C22.2005 30.2079 21.8481 30.1713 21.5078 30.0134C21.3994 29.9637 21.2893 29.9157 21.1788 29.8675C20.992 29.786 20.804 29.704 20.6207 29.6124C20.3291 29.4665 20.0373 29.2964 19.8186 29.0291C19.7034 28.8873 19.556 28.765 19.4092 28.6432C19.3546 28.5979 19.3001 28.5526 19.2474 28.5065C19.2232 28.4579 19.1958 28.4063 19.1685 28.3547L19.1684 28.3545C19.141 28.3029 19.1137 28.2513 19.0895 28.2027C18.9922 28.0447 18.895 27.8745 18.8099 27.7166C18.7978 27.6983 18.7917 27.6801 18.7856 27.6619C18.7795 27.6436 18.7734 27.6254 18.7613 27.6072L18.7596 27.6052C18.6994 27.5329 18.6393 27.4607 18.5912 27.3884C18.561 27.3431 18.532 27.2967 18.5027 27.2498C18.4376 27.1457 18.3711 27.0394 18.2874 26.9388C18.2874 26.9557 18.29 26.9726 18.2927 26.9907C18.296 27.0116 18.2994 27.0342 18.2994 27.0603C18.2874 27.0603 18.2753 27.0724 18.2753 27.0724L18.02 26.4527C18.0078 26.4527 18.0078 26.4527 17.9957 26.4649L18.2145 27.2669C18.2084 27.2669 18.2023 27.2699 18.1962 27.273C18.1901 27.2761 18.1841 27.2791 18.1779 27.2791C18.1415 27.2305 18.1051 27.1818 18.0808 27.121C18.0564 27.0239 17.9836 27.0239 17.9227 27.0603C17.8863 27.0846 17.862 27.1697 17.8742 27.2061C17.9588 27.4116 18.0554 27.617 18.152 27.8226L18.1536 27.826C18.1779 27.8988 18.2023 27.9596 18.2387 28.0326C18.2429 28.0409 18.2499 28.0492 18.2573 28.058C18.2716 28.0749 18.2874 28.0936 18.2874 28.1177C18.3015 28.1458 18.3145 28.174 18.3275 28.2019C18.3592 28.2702 18.3901 28.3367 18.4332 28.3971C18.4879 28.47 18.5456 28.5429 18.6033 28.6158C18.6611 28.6887 18.7188 28.7617 18.7735 28.8346C18.852 28.9392 18.9241 29.05 18.9945 29.1582C19.0223 29.2008 19.0498 29.2431 19.0772 29.2843C19.0848 29.2992 19.1014 29.305 19.1159 29.31C19.1251 29.3132 19.1333 29.316 19.138 29.3207C19.1989 29.503 19.4055 29.6367 19.5513 29.5638C19.5717 29.7203 19.6758 29.8196 19.7849 29.9237C19.8707 30.0055 19.9596 30.0902 20.0131 30.2079C19.8673 30.1472 19.7579 30.0985 19.6606 30.0498C19.6531 30.0574 19.6502 30.0649 19.6463 30.0753C19.6438 30.0817 19.641 30.0892 19.6364 30.0985C19.7822 30.1713 19.928 30.2443 20.0616 30.3294C20.1831 30.4023 20.3048 30.4752 20.414 30.5603C20.56 30.6939 20.73 30.7669 20.9367 30.8156C20.9245 30.779 20.9124 30.7669 20.9124 30.7669C21.2526 30.925 21.6051 31.095 21.8724 31.2287C20.6085 31.253 19.2596 31.2774 17.862 31.3016C17.862 31.1861 17.8589 31.0738 17.8559 30.9614C17.8529 30.849 17.8499 30.7365 17.8499 30.6211C17.8499 30.5819 17.8538 30.5446 17.8577 30.5077C17.8635 30.4532 17.8693 30.3996 17.862 30.3415C17.8499 30.1561 17.8418 29.9706 17.8337 29.7856C17.8175 29.413 17.8014 29.0421 17.7527 28.6766C17.6797 28.0933 17.6797 27.5221 17.6919 26.9388C17.7011 26.7004 17.6895 26.4551 17.678 26.2133C17.6743 26.1347 17.6706 26.0563 17.6676 25.9788C17.6676 25.5534 17.6676 25.1402 17.6797 24.7148C17.6797 24.6629 17.6975 24.6198 17.7178 24.5705C17.7213 24.5621 17.7248 24.5535 17.7284 24.5447H17.7648C17.7696 24.5543 17.7706 24.5658 17.7715 24.577C17.773 24.594 17.7744 24.6102 17.7891 24.6176C17.8255 24.6541 17.8863 24.7148 17.9106 24.7027C17.927 24.6918 17.9452 24.6809 17.9639 24.6697C18.0284 24.631 18.0983 24.589 18.1172 24.5326C18.1779 24.3867 18.2023 24.2287 18.2023 24.0828C18.2023 23.9738 18.2507 23.9009 18.2992 23.828L18.2994 23.8276C18.3152 23.804 18.3259 23.7804 18.3381 23.7534C18.3447 23.7388 18.3518 23.7232 18.3603 23.7061C18.3397 23.6907 18.319 23.6774 18.2975 23.6635C18.2682 23.6447 18.2372 23.6248 18.2023 23.5968C18.2138 23.5652 18.2219 23.5322 18.23 23.4992C18.256 23.393 18.2819 23.2878 18.4211 23.2322C18.4373 23.224 18.4427 23.1943 18.4481 23.1645C18.4508 23.1497 18.4535 23.1349 18.4575 23.1228C18.4636 23.0742 18.4696 23.0226 18.4757 22.9709C18.4818 22.9193 18.4879 22.8676 18.4939 22.819C18.5183 22.8555 18.5303 22.8676 18.5547 22.8919C18.5669 22.8676 18.579 22.8555 18.579 22.8555C18.579 22.8392 18.5777 22.8176 18.5763 22.796C18.5736 22.7528 18.5709 22.7096 18.579 22.7096C18.6676 22.6949 18.68 22.6308 18.6924 22.5664C18.7004 22.5248 18.7084 22.483 18.7371 22.4544C18.7441 22.4474 18.7388 22.432 18.7331 22.4157C18.7291 22.4039 18.7248 22.3917 18.7248 22.3816C18.7248 22.3572 18.7248 22.3207 18.7371 22.3207C18.8382 22.299 18.8706 22.2258 18.9032 22.1521C18.9255 22.1019 18.9479 22.0514 18.9922 22.0169C19.0148 22.0019 19.028 21.9822 19.0463 21.9551C19.0576 21.9383 19.0709 21.9186 19.0895 21.8954C19.1516 22.0042 19.1044 22.0783 19.0592 22.1493C19.0337 22.1893 19.0088 22.2284 19.0044 22.2722C19.211 22.1507 19.2717 21.859 19.1502 21.7739C19.1989 21.7374 19.2474 21.6888 19.2838 21.6402C19.3371 21.5821 19.3923 21.526 19.447 21.4702C19.5298 21.3859 19.6118 21.3025 19.6849 21.2148C19.7274 21.1601 19.7608 21.0994 19.7943 21.0386C19.8277 20.9779 19.8612 20.9171 19.9037 20.8624C19.9524 20.8016 20.0495 20.753 20.1224 20.7166C20.3412 20.5951 20.5478 20.4613 20.6815 20.2547C20.7058 20.2304 20.7422 20.2061 20.7787 20.1819C20.7929 20.1724 20.8128 20.1666 20.8324 20.1608C20.8629 20.152 20.8928 20.1432 20.9002 20.121C20.9124 20.0968 20.8758 20.0361 20.8515 19.9995C20.8717 19.9894 20.8919 19.9752 20.9155 19.9585C20.9489 19.9349 20.9891 19.9065 21.046 19.878C21.026 19.9181 21.0133 19.9508 21.0019 19.9802C20.9926 20.0044 20.9841 20.0262 20.9732 20.0482L21.0339 20.1089C21.1052 20.0535 21.2023 19.9929 21.2915 19.9373C21.3392 19.9075 21.3847 19.8791 21.4227 19.8537C21.4227 19.8416 21.362 19.7929 21.362 19.7929C21.3406 19.8037 21.3161 19.8165 21.2893 19.8305C21.2249 19.8641 21.1476 19.9045 21.0703 19.9388C21.0835 19.919 21.0896 19.9027 21.0943 19.8901C21.0982 19.8795 21.1012 19.8714 21.1067 19.8659C21.2769 19.7565 21.4471 19.6471 21.6293 19.562C22.0547 19.3675 22.4801 19.1732 22.9053 18.9908C22.9576 18.9647 23.0222 18.9698 23.0859 18.9748C23.1112 18.9767 23.1364 18.9787 23.1606 18.9787C23.197 18.9787 23.2213 18.9787 23.2579 18.9666C23.4522 18.9059 23.6467 18.8451 23.8412 18.7965C23.9263 18.7721 24.0234 18.76 24.1085 18.76C24.2296 18.7641 24.3506 18.7667 24.4716 18.7694C24.7152 18.7748 24.9587 18.7802 25.2023 18.7965C25.3602 18.8086 25.5061 18.8451 25.6519 18.8936C25.8343 18.9544 26.0286 19.0395 26.1988 19.1245C26.4054 19.2339 26.5998 19.3554 26.7943 19.4892C26.9306 19.5784 27.0632 19.6713 27.1949 19.7636C27.404 19.9101 27.6111 20.0551 27.8272 20.1819C28.1675 20.3885 28.4349 20.6679 28.6537 20.9839C28.7042 21.0552 28.7561 21.1251 28.8078 21.1948C29.0294 21.4937 29.2479 21.7883 29.3464 22.1627L29.5286 22.9649C29.5386 23.0046 29.5521 23.0444 29.5658 23.0847C29.6024 23.192 29.6402 23.3029 29.6137 23.4267C29.5598 23.6962 29.5154 23.9753 29.4722 24.247L29.4625 24.3081C29.4603 24.3222 29.458 24.3363 29.4558 24.3503C29.4315 24.4718 29.4071 24.5933 29.4192 24.7148C29.4429 25.0815 29.3054 25.4021 29.1636 25.7327L29.1519 25.7599C29.1246 25.8213 29.0898 25.8826 29.0537 25.946C29.0254 25.9958 28.9964 26.0468 28.9697 26.1003C28.9818 26.1123 29.0547 26.1489 29.0668 26.1489L29.1762 25.9301C29.1813 25.9301 29.1843 25.9301 29.1869 25.931C29.1905 25.9323 29.1935 25.9353 29.2006 25.9423C29.1702 26.0274 29.1428 26.1156 29.1154 26.2038L29.1154 26.2039C29.0881 26.2919 29.0607 26.3799 29.0304 26.4649C29.0169 26.4998 29.0034 26.5348 28.9899 26.5698C28.8573 26.9134 28.7219 27.2642 28.5565 27.5951C28.4981 27.719 28.4135 27.8298 28.3289 27.9406C28.2725 28.0145 28.2161 28.0884 28.1675 28.1662C28.1134 28.242 28.064 28.3203 28.0152 28.3977C27.9545 28.494 27.8946 28.589 27.8272 28.6766C27.718 28.8104 27.6085 28.944 27.4627 29.0413C27.1345 29.2843 26.7943 29.5273 26.4419 29.7218C26.2231 29.8555 25.9679 29.9283 25.7249 29.9891ZM19.2474 28.5065C19.2838 28.6523 19.3689 28.7738 19.5026 28.8589C19.4419 28.9319 19.3568 28.8953 19.2353 28.701C19.2098 28.7179 19.1843 28.729 19.1629 28.7382C19.1537 28.7422 19.1453 28.7459 19.138 28.7495L19.1397 28.7455C19.1757 28.6617 19.2116 28.5783 19.2474 28.5065ZM19.2474 29.345L19.2353 29.3571C19.2297 29.3543 19.2233 29.3515 19.2167 29.3485C19.1947 29.3387 19.1689 29.3272 19.1502 29.3086L18.8586 28.8711C18.8342 28.8346 18.8221 28.7981 18.8342 28.7495C18.9678 28.9561 19.1016 29.1506 19.2474 29.345ZM26.8064 31.0099C27.3533 30.779 27.803 30.4509 28.2162 30.0742C28.2769 30.0134 28.3377 29.9527 28.4107 29.904C28.921 29.588 29.2977 29.1506 29.638 28.6644C29.9036 28.2827 30.1068 27.867 30.3096 27.4521C30.4038 27.2594 30.4979 27.0669 30.5981 26.878C30.6224 26.8294 30.6468 26.7807 30.6711 26.7443C30.6468 28.1298 30.8047 29.4909 30.9869 30.8641C29.6137 30.9127 28.2162 30.9614 26.8064 31.0099ZM39.1294 30.6454C39.1233 30.6575 39.1142 30.6695 39.1052 30.6816C39.096 30.6938 39.0868 30.706 39.0807 30.7182C39.0736 30.704 39.0706 30.6857 39.067 30.6633C39.0644 30.6473 39.0615 30.6292 39.0564 30.609C39.0011 30.7563 38.8969 30.7361 38.8021 30.7177C38.7719 30.7118 38.7426 30.7061 38.7161 30.7061C38.0599 30.7182 37.3916 30.7182 36.7353 30.7182H36.7349C36.1031 30.7182 35.4591 30.7182 34.8273 30.7305C34.7085 30.7305 34.5857 30.7465 34.4635 30.7625C34.3732 30.7743 34.2831 30.786 34.1953 30.7912C33.6971 30.8156 33.1988 30.8276 32.7006 30.8397C32.6779 30.8397 32.6553 30.8164 32.6269 30.7871C32.6095 30.7691 32.5899 30.7489 32.5668 30.7305C32.5548 30.7548 32.5304 30.7912 32.4939 30.8397C32.4871 30.8261 32.4764 30.8125 32.4641 30.7967C32.459 30.7903 32.4537 30.7834 32.4482 30.7761C32.4433 30.7695 32.4382 30.7624 32.4331 30.7548C32.421 30.7912 32.4088 30.8276 32.3967 30.852H32.3603C32.3519 30.7935 32.3407 30.7365 32.3295 30.6799C32.3082 30.5718 32.2873 30.4654 32.2873 30.3537C32.2873 30.1346 32.3004 29.9156 32.3136 29.6965C32.3223 29.551 32.3311 29.4055 32.3359 29.26C32.344 29.1461 32.3413 29.0377 32.3386 28.931C32.3373 28.8784 32.3359 28.8261 32.3359 28.7738C32.3603 28.7921 32.3815 28.8073 32.4028 28.8225C32.4241 28.8377 32.4453 28.8528 32.4697 28.8711C32.4936 28.823 32.5176 28.7869 32.5417 28.7507L32.5425 28.7495C32.5425 28.7495 32.5182 28.7374 32.4939 28.7131C32.5182 28.701 32.5425 28.6766 32.5425 28.6646C32.5473 28.6502 32.554 28.6359 32.5602 28.6223C32.57 28.6013 32.5789 28.582 32.5789 28.5672C32.5789 28.5084 32.5674 28.4554 32.5562 28.4042C32.5512 28.3814 32.5463 28.3588 32.5425 28.3363C32.5548 28.3363 32.5668 28.3363 32.5789 28.3242L32.6519 28.6887H32.6883C32.6684 28.6537 32.6834 28.6207 32.6987 28.5873C32.7204 28.5395 32.7427 28.4907 32.664 28.4335C32.6569 28.4264 32.6624 28.3982 32.6681 28.3688C32.6721 28.3482 32.6763 28.327 32.6763 28.312C32.6476 28.2548 32.6265 28.1974 32.601 28.1283L32.6009 28.1282C32.594 28.1094 32.5867 28.0898 32.5789 28.069C32.5912 28.0569 32.6276 28.0447 32.664 28.0326C32.6469 28.024 32.6312 28.0154 32.6166 28.0073C32.5897 27.9926 32.5661 27.9796 32.5425 27.9717C32.664 27.8624 32.664 27.8017 32.5548 27.68C32.564 27.6754 32.5733 27.6726 32.5812 27.6701C32.594 27.6662 32.6033 27.6633 32.6033 27.6558C32.6033 27.5464 32.6033 27.437 32.5789 27.3276C32.5727 27.2962 32.5721 27.2631 32.5715 27.2301C32.5699 27.1355 32.5683 27.0414 32.4331 26.9875C32.4357 26.9952 32.4383 27.0024 32.441 27.0093C32.4398 27.0105 32.4383 27.0119 32.4367 27.0136C32.4389 27.0136 32.441 27.014 32.4432 27.0146C32.4527 27.0378 32.464 27.058 32.4818 27.0846C32.4818 27.0846 32.4453 27.0967 32.4088 27.121C32.3058 27.0259 32.3113 26.9101 32.3175 26.7804C32.3208 26.7112 32.3243 26.6381 32.3116 26.5621C32.3955 26.586 32.4557 26.61 32.5156 26.6339L32.5182 26.6349C32.5059 26.592 32.4843 26.5459 32.4613 26.4967C32.4387 26.4486 32.4147 26.3974 32.3967 26.3433H32.348V25.5413C32.348 25.5482 32.3757 25.5511 32.4085 25.5546C32.4332 25.5573 32.4609 25.5603 32.4818 25.5655C32.4818 25.5594 32.4848 25.5534 32.4878 25.5473C32.4908 25.5413 32.4939 25.5352 32.4939 25.529C32.4746 25.5032 32.4518 25.4775 32.4275 25.4499C32.4059 25.4255 32.3831 25.3996 32.3603 25.3711L32.3846 25.3468C32.3044 25.2466 32.3234 25.1133 32.3325 25.0492C32.3344 25.0356 32.3359 25.0251 32.3359 25.0187V24.1679C32.3916 24.2236 32.3835 24.2869 32.3759 24.3463C32.367 24.4164 32.3587 24.4809 32.4574 24.5203V24.3988H32.4453C32.4392 24.3072 32.4361 24.2155 32.4331 24.1238C32.4301 24.0332 32.427 23.9426 32.421 23.8519H32.3967C32.3907 23.864 32.3877 23.873 32.3847 23.882C32.3816 23.8913 32.3785 23.9005 32.3724 23.9127H32.348C32.3724 22.9526 32.3967 21.9926 32.421 21.0082C32.4544 21.0516 32.4887 21.0941 32.5226 21.1361C32.6123 21.2473 32.6996 21.3555 32.7613 21.47C32.9756 21.8614 33.2399 22.2099 33.5049 22.5593C33.5856 22.6656 33.6663 22.772 33.7457 22.8798C33.9656 23.1822 34.1717 23.5053 34.3744 23.8231C34.4405 23.9268 34.5063 24.0299 34.572 24.1315C34.7357 24.3801 34.8964 24.6287 35.0571 24.8773C35.2185 25.1269 35.3799 25.3767 35.5443 25.6263C35.7873 26.0031 36.0425 26.3798 36.2978 26.7443C36.5287 27.0724 36.7717 27.3884 37.0148 27.7044C37.1185 27.8447 37.2252 27.985 37.332 28.1253L37.3322 28.1256C37.438 28.2647 37.5438 28.4038 37.6466 28.5429L37.6584 28.5593C37.8976 28.8942 38.1367 29.2288 38.3759 29.5516C38.4974 29.7218 38.631 29.8919 38.7648 30.0621C38.8205 30.1364 38.8976 30.1966 38.9635 30.248C38.9837 30.2638 39.0028 30.2787 39.02 30.293C39.0078 30.293 38.9957 30.293 38.9713 30.2808C38.9809 30.2935 38.9896 30.3054 38.9977 30.3165C39.0205 30.3476 39.0385 30.3722 39.0564 30.3902C39.1902 30.463 39.2022 30.536 39.1294 30.6454ZM39.7491 27.6072V27.5221C39.7491 27.5298 39.7503 27.5387 39.7516 27.5481C39.7544 27.5683 39.7574 27.5906 39.7491 27.6072ZM40.1623 22.2478C40.1502 22.2478 40.0772 22.1748 40.0651 22.1627C40.0602 22.1775 40.0592 22.1923 40.0582 22.2079C40.0568 22.2308 40.0552 22.2553 40.0408 22.2842C40.0349 22.2665 40.0116 22.2602 39.9893 22.2543C39.9659 22.2481 39.9436 22.2421 39.9436 22.2235C39.9375 22.3086 39.9557 22.3938 39.974 22.4789C39.9922 22.5639 40.0104 22.649 40.0044 22.734C40.02 22.7235 40.0559 22.7153 40.0946 22.7064C40.146 22.6946 40.2023 22.6817 40.223 22.661C40.2353 22.6732 40.2595 22.6853 40.2717 22.6853C40.0287 22.8676 40.0894 23.05 40.1987 23.2565C40.2018 23.2627 40.2057 23.2697 40.21 23.2774C40.2393 23.3299 40.2867 23.4148 40.223 23.4995C40.2063 23.5163 40.2184 23.5562 40.2316 23.5993C40.2375 23.6187 40.2436 23.6387 40.2474 23.6576H40.2838V23.6818L40.1745 23.7183C40.1658 23.7053 40.1416 23.6876 40.1141 23.6675C40.0646 23.6313 40.0044 23.5872 40.0044 23.5482V24.1679C40.0877 24.1929 40.1139 24.2807 40.1378 24.3609C40.1487 24.3977 40.1592 24.4328 40.1745 24.4596C40.1987 24.4232 40.2109 24.3988 40.223 24.3624L40.2353 24.3745L40.2349 24.3766C40.2228 24.4489 40.2107 24.521 40.1866 24.5933C40.1828 24.6104 40.179 24.6271 40.1753 24.6436C40.155 24.7333 40.1361 24.8169 40.1259 24.9093C40.1259 24.9153 40.132 24.9244 40.138 24.9336C40.1441 24.9427 40.1502 24.9518 40.1502 24.9578C40.066 25.1491 40.0637 25.3548 40.0615 25.5598C40.0601 25.6805 40.0588 25.8009 40.0408 25.918C40.021 26.0438 40.0227 26.1731 40.0245 26.3041C40.026 26.4136 40.0275 26.5243 40.0165 26.6349C39.9921 26.8416 39.9436 27.0603 39.895 27.2669C39.8829 27.3033 39.8585 27.3155 39.7978 27.3399C39.822 27.194 39.8099 27.0967 39.7856 26.9631C39.7795 26.9631 39.737 26.9419 39.6944 26.9206C39.6519 26.8993 39.6094 26.878 39.6033 26.878C39.6033 26.9825 39.6399 27.1099 39.6767 27.2377C39.6998 27.318 39.7229 27.3984 39.737 27.4735C39.7181 27.4672 39.6699 27.4413 39.6261 27.4179C39.5853 27.3961 39.5484 27.3763 39.5426 27.3763C39.5265 27.4723 39.5211 27.5894 39.5157 27.7033C39.513 27.7623 39.5103 27.8206 39.5061 27.8745C39.5002 27.9334 39.4714 27.9895 39.442 28.0469C39.4107 28.1079 39.3786 28.1703 39.3724 28.2392C39.3724 28.2695 39.3871 28.2956 39.4035 28.3246C39.4264 28.3651 39.4524 28.4112 39.4452 28.4822H39.5426C39.5426 28.3622 39.5692 28.248 39.5962 28.1325C39.6239 28.0142 39.652 27.8943 39.652 27.7651H39.6884C39.6931 27.7746 39.7016 27.7842 39.7094 27.793C39.7216 27.8066 39.7323 27.8186 39.7248 27.826C39.7182 27.8621 39.7099 27.8991 39.7015 27.9365C39.6787 28.0375 39.6552 28.1416 39.6641 28.2392C39.6641 28.2687 39.674 28.2982 39.6843 28.3285C39.6993 28.3731 39.715 28.4194 39.7005 28.4701C39.6761 28.5429 39.6641 28.6159 39.652 28.7252C39.6473 28.7021 39.6427 28.6843 39.6388 28.6691C39.6323 28.6443 39.6276 28.6263 39.6276 28.6037C39.6236 28.6037 39.6091 28.6024 39.5911 28.6006C39.5816 28.5997 39.5712 28.5987 39.5608 28.5976C39.5434 28.5959 39.526 28.5942 39.5131 28.593C39.5036 28.5921 39.4965 28.5916 39.4939 28.5916C39.4876 28.6293 39.5106 28.667 39.5326 28.703C39.5531 28.7367 39.5727 28.7688 39.5669 28.7981C39.5593 28.8057 39.5517 28.8086 39.5413 28.8126C39.5349 28.815 39.5274 28.8179 39.5182 28.8225L39.1172 28.2392L39.1167 28.2384L39.1165 28.2382C38.8008 27.7767 38.485 27.3152 38.1692 26.8416C38.0841 26.72 38.0113 26.5985 37.9505 26.477C37.5738 25.8329 37.1606 25.213 36.6988 24.6176C36.4766 24.3342 36.2834 24.0362 36.0888 23.736C35.9747 23.5599 35.86 23.383 35.7386 23.2079C35.5868 22.9831 35.4349 22.7613 35.283 22.5395C35.131 22.3177 34.9791 22.0959 34.8273 21.8711C34.7859 21.816 34.7412 21.7627 34.6962 21.7091C34.6221 21.6208 34.5475 21.5319 34.4869 21.4336C34.329 21.1845 34.1801 20.9323 34.0313 20.6802C33.8824 20.428 33.7335 20.1758 33.5756 19.9267C33.3812 19.6263 33.174 19.3324 32.968 19.0402C32.8906 18.9305 32.8133 18.8209 32.737 18.7114C32.6398 18.5777 32.5425 18.4318 32.4453 18.286C32.4331 18.2617 32.421 18.2373 32.421 18.2009C32.3967 17.9336 32.3724 17.6663 32.3603 17.411C32.3603 17.2909 32.3662 17.1709 32.3722 17.0494C32.3784 16.9249 32.3846 16.7988 32.3846 16.6696V16.451C32.3846 16.4206 32.3876 16.3932 32.3906 16.3659C32.3937 16.3385 32.3967 16.3112 32.3967 16.2808C32.4027 16.2747 32.4088 16.2656 32.4149 16.2565C32.421 16.2474 32.4271 16.2383 32.4331 16.2322C32.3161 16.2322 32.1977 16.2308 32.0789 16.2295C31.84 16.2268 31.5991 16.2241 31.3637 16.2322C31.1329 16.2444 31.0113 16.1471 30.8533 15.9771C30.5455 15.6287 30.2917 15.248 30.0379 14.8673L30.0378 14.8672C29.9108 14.6767 29.7839 14.4863 29.6501 14.3C29.2734 13.7652 28.8846 13.2426 28.4956 12.7201C28.3365 12.5058 28.1774 12.2946 28.0182 12.0834C27.8614 11.8753 27.7046 11.6672 27.5478 11.4561C27.4302 11.294 27.314 11.1319 27.1978 10.9697L27.1975 10.9693C26.9654 10.6455 26.7333 10.3217 26.4904 9.99783C26.053 9.41452 25.6034 8.8312 25.1537 8.24789C25.0244 8.0806 24.8857 7.91814 24.7434 7.75152C24.6582 7.65176 24.5717 7.55045 24.4853 7.44576C24.5063 7.449 24.5271 7.45224 24.5477 7.45545C24.682 7.47635 24.8084 7.49603 24.935 7.50651L25.5183 7.54294C25.6289 7.55218 25.7396 7.56064 25.8502 7.56909C26.177 7.59407 26.5039 7.61905 26.8307 7.66444C27.06 7.69503 27.2892 7.73524 27.5214 7.77597C27.6586 7.80003 27.7968 7.82427 27.9366 7.84683C28.7387 7.98042 29.5286 8.19923 30.2943 8.45447C30.6606 8.57326 31.0188 8.72433 31.3755 8.87478C31.4566 8.90901 31.5378 8.94325 31.6189 8.97703C32.6033 9.37809 33.5391 9.86409 34.4626 10.3746C34.6806 10.4925 34.8306 10.6648 34.9837 10.8406C35.0356 10.9002 35.0879 10.9602 35.1432 11.0186L35.1486 11.0241C35.4628 11.3505 35.7769 11.6768 36.079 12.0152C36.3398 12.3121 36.5874 12.6156 36.8364 12.9207C36.9238 13.0279 37.0114 13.1353 37.0998 13.2426C37.2508 13.4239 37.4049 13.6051 37.559 13.7864C37.7148 13.9697 37.8707 14.1531 38.0234 14.3364C38.0883 14.4093 38.1422 14.493 38.1962 14.5767C38.2232 14.6185 38.2503 14.6604 38.2786 14.7009C38.3382 14.7902 38.4 14.8783 38.4619 14.9667C38.6024 15.1671 38.7439 15.3688 38.8619 15.5881C38.958 15.7704 39.0236 15.9755 39.0889 16.1793C39.1062 16.2337 39.1236 16.2879 39.1415 16.3416C39.2033 16.5334 39.2652 16.722 39.3271 16.9107C39.3867 17.0927 39.4464 17.2747 39.5061 17.4597C39.5911 17.7391 39.6641 18.0308 39.7248 18.3224C39.747 18.411 39.7565 18.5022 39.7661 18.5935C39.7775 18.7026 39.7889 18.8121 39.822 18.918C39.8585 19.0456 39.8585 19.1792 39.8585 19.3129C39.8585 19.4466 39.8585 19.5802 39.895 19.7079C39.901 19.72 39.9071 19.7352 39.9132 19.7504C39.9193 19.7656 39.9253 19.7808 39.9314 19.7929C39.98 19.8416 40.0165 19.8901 39.9436 19.9631C39.9314 19.9752 39.9314 20.0238 39.9436 20.0603C39.9614 20.0425 39.9727 20.0246 39.9871 20.0019C39.9923 19.9937 39.9979 19.9849 40.0044 19.9752C40.0044 19.9895 40.0085 19.9996 40.012 20.0079C40.0144 20.0138 40.0165 20.0188 40.0165 20.0238C40.0165 20.0401 40.0151 20.0563 40.0138 20.0725C40.0111 20.1049 40.0084 20.1372 40.0165 20.1697C40.0165 20.1882 40.0305 20.2137 40.0426 20.2355C40.0464 20.2424 40.05 20.2489 40.0529 20.2547C40.0679 20.2397 40.083 20.2293 40.1037 20.215C40.1113 20.2098 40.1196 20.2041 40.1289 20.1974C40.1355 20.1928 40.1425 20.1876 40.1502 20.1819C40.2595 20.5951 40.2717 21.0082 40.2717 21.4336C40.2717 21.5263 40.2756 21.619 40.2795 21.7115C40.2924 22.0194 40.3052 22.3255 40.1745 22.6246C40.1929 22.557 40.1803 22.4926 40.1681 22.4298C40.156 22.3681 40.1443 22.308 40.1623 22.2478Z" fill="#DD3735"/><path d="M34.3568 39.0206C34.2232 39.1177 34.0894 39.2028 33.9193 39.2392C33.9133 39.2332 33.9103 39.2272 33.9072 39.2211C33.9042 39.215 33.9011 39.2089 33.895 39.2028C33.9618 39.1603 34.0317 39.1177 34.1016 39.0752C34.1715 39.0327 34.2414 38.9901 34.3083 38.9476C34.3143 38.9597 34.3234 38.9719 34.3325 38.9841C34.3416 38.9962 34.3507 39.0084 34.3568 39.0206Z" fill="#DD3735"/><path d="M11.5704 22.5535C11.704 22.3833 11.8378 22.2132 11.9836 22.0432C11.9896 22.0492 12.017 22.0583 12.0444 22.0674C12.0717 22.0765 12.0991 22.0856 12.1051 22.0917L12.0673 22.1399C11.9385 22.3037 11.7769 22.5094 11.6555 22.675C11.6449 22.6645 11.6321 22.6424 11.6189 22.6198C11.6018 22.5906 11.5842 22.5604 11.5704 22.5535Z" fill="#DD3735"/><path d="M7.97147 28.1886L7.97139 28.1885C7.92339 28.0834 7.87541 27.9784 7.82742 27.8764C7.83952 27.8644 7.9246 27.8278 7.93669 27.8278C8.02428 27.9552 8.08057 28.0982 8.13628 28.2397C8.16563 28.3143 8.19482 28.3885 8.22835 28.4598C8.22835 28.4598 8.13117 28.5084 8.11908 28.5084C8.06985 28.4039 8.02065 28.2962 7.97147 28.1886Z" fill="#DD3735"/><path d="M11.218 22.675C11.1815 22.7297 11.1451 22.7874 11.1086 22.8452C11.0722 22.9029 11.0357 22.9606 10.9992 23.0153C10.9932 23.0093 10.9569 23.0214 10.9205 23.0335C10.884 23.0457 10.8474 23.0579 10.8413 23.0517C10.8777 22.9971 10.9415 22.9211 11.0053 22.8451C11.0691 22.7692 11.1329 22.6933 11.1694 22.6386C11.1815 22.6508 11.1937 22.6629 11.218 22.675Z" fill="#DD3735"/><path d="M33.0564 39.5188C33.0626 39.5188 33.0656 39.5157 33.0687 39.5127C33.0717 39.5096 33.0747 39.5066 33.0807 39.5066C33.1658 39.5188 33.2631 39.5309 33.3603 39.5309C33.2022 39.6403 33.1051 39.6282 33.0564 39.5188Z" fill="#DD3735"/><path d="M11.2422 23.1855C11.2544 23.1492 11.2786 23.1128 11.3027 23.0765L11.303 23.0761C11.3273 23.0761 11.3639 23.064 11.3639 23.064C11.3869 23.0236 11.399 22.9887 11.4105 22.9554C11.4233 22.9185 11.4355 22.8835 11.461 22.8452C11.455 22.8391 11.449 22.8361 11.4429 22.8331C11.4368 22.83 11.4307 22.827 11.4246 22.8208C11.3881 22.8452 11.3517 22.8725 11.3152 22.8998C11.2788 22.9272 11.2423 22.9546 11.2058 22.9789C11.2301 23.0032 11.2301 23.0153 11.2301 23.0396C11.133 23.0276 11.0964 23.0761 11.0479 23.2098C11.0408 23.231 11.0172 23.244 10.9867 23.2607C10.9649 23.2727 10.9395 23.2867 10.9141 23.307C10.9085 23.3183 10.9028 23.3376 10.8959 23.3611C10.888 23.388 10.8785 23.4204 10.8655 23.4528L10.8777 23.465C10.8534 23.4892 10.817 23.5015 10.817 23.5015C10.7806 23.5378 10.7412 23.5711 10.7018 23.6045C10.6622 23.638 10.6226 23.6715 10.5861 23.708C10.5738 23.7445 10.5617 23.781 10.5617 23.8174C10.5875 23.7917 10.6188 23.7592 10.653 23.7238C10.7318 23.6422 10.8258 23.5449 10.9021 23.4771L10.9141 23.4892C10.9385 23.4528 10.9597 23.4163 10.981 23.3799C11.0023 23.3434 11.0236 23.307 11.0479 23.2706C11.0539 23.2766 11.0569 23.2826 11.0599 23.2887C11.063 23.2948 11.0661 23.3009 11.0722 23.307C11.0535 23.3566 11.0349 23.4094 11.0163 23.4622C10.9984 23.5128 10.9806 23.5633 10.9628 23.6109C10.9566 23.6139 10.9497 23.6178 10.9427 23.6216C10.9223 23.633 10.9021 23.6442 10.9021 23.6352C10.8777 23.6535 10.8563 23.6748 10.835 23.6961C10.8138 23.7173 10.7926 23.7385 10.7683 23.7567L10.5496 23.9025C10.4479 23.9941 10.3462 24.0771 10.2374 24.1658C10.2162 24.1831 10.1947 24.2007 10.1729 24.2185C10.1388 24.2721 10.1047 24.3237 10.0698 24.3765L10.0697 24.3766C10.0176 24.4555 9.96371 24.537 9.90544 24.6317C10.0513 24.5952 10.0878 24.656 10.0756 24.7775C10.2138 24.7972 10.2477 24.7128 10.2817 24.6283C10.2895 24.6087 10.2974 24.5892 10.3065 24.5709C10.3098 24.5644 10.313 24.5561 10.3165 24.5473C10.3261 24.5231 10.3373 24.4947 10.3552 24.4858C10.4247 24.4241 10.4991 24.3672 10.5753 24.309C10.619 24.2756 10.6633 24.2417 10.7076 24.2063C10.7319 24.1819 10.7319 24.1334 10.7319 24.0969C10.7319 24.0899 10.7119 24.087 10.688 24.0834C10.6702 24.0808 10.6503 24.0778 10.6347 24.0727C10.7075 23.9916 10.802 23.8729 10.8892 23.7632C10.933 23.7082 10.9749 23.6554 11.0115 23.6109C11.0722 23.5743 11.133 23.5258 11.133 23.4892C11.1226 23.3758 11.1823 23.3324 11.2601 23.2921C11.2042 23.5573 11.041 23.783 10.8777 23.8295L10.8781 23.8297C10.9266 23.854 10.975 23.8781 11.0115 23.8659C11.0386 23.8569 11.059 23.821 11.0776 23.7882C11.084 23.7769 11.0902 23.766 11.0964 23.7567L11.4246 23.2826L11.534 23.1004L11.4854 23.0517C11.461 23.0943 11.4368 23.1338 11.4125 23.1733C11.3882 23.2128 11.3639 23.2523 11.3395 23.2949L11.297 23.2735L11.303 23.2706C11.2545 23.2341 11.2422 23.1976 11.2422 23.1855Z" fill="#DD3735"/><path d="M7.52674 28.3925C7.49643 28.3895 7.46744 28.3868 7.43846 28.3868C7.42637 28.399 7.47488 28.4718 7.48712 28.4841H7.74235C7.74235 28.4537 7.73929 28.4263 7.73624 28.399C7.73318 28.3716 7.73012 28.3443 7.73012 28.3139H7.6937C7.6937 28.3382 7.67851 28.3474 7.66332 28.3565C7.64813 28.3656 7.63295 28.3747 7.63295 28.399C7.59478 28.399 7.55996 28.3956 7.52674 28.3925Z" fill="#DD3735"/><path d="M7.30602 27.7965C7.31845 27.8069 7.33087 27.8174 7.34129 27.8278C7.34129 27.8157 7.35338 27.8034 7.36562 27.7914C7.35338 27.7486 7.34421 27.7088 7.33503 27.6691C7.32596 27.6298 7.31689 27.5906 7.30487 27.5484C7.26831 27.6091 7.23188 27.6699 7.24398 27.7184C7.24398 27.7445 7.27501 27.7705 7.30602 27.7965Z" fill="#DD3735"/><path d="M7.71871 27.2403C7.69417 27.1758 7.6696 27.1114 7.64504 27.05C7.62071 27.05 7.54787 27.0865 7.53577 27.0986C7.56028 27.16 7.5879 27.2245 7.61552 27.2889C7.64257 27.3521 7.66962 27.4152 7.6937 27.4754C7.70579 27.4633 7.77877 27.4267 7.79087 27.4267C7.76685 27.3665 7.74279 27.3034 7.71871 27.2403Z" fill="#DD3735"/><path d="M34.8456 38.6268C34.7875 38.6402 34.7393 38.6512 34.6971 38.6681V38.668C34.6851 38.6921 34.673 38.7132 34.661 38.7342C34.6487 38.7557 34.6365 38.7772 34.6243 38.8017C34.6363 38.8017 34.6484 38.8138 34.6607 38.8261C34.7184 38.7682 34.7838 38.7181 34.8628 38.6575C34.8836 38.6416 34.9053 38.6249 34.928 38.6073C34.8984 38.6147 34.871 38.621 34.8456 38.6268Z" fill="#DD3735"/></g></g></svg>