<svg width="48" height="48" viewBox="0 0 48 48" fill="none" xmlns="http://www.w3.org/2000/svg"><g id="sketch-Icon"><g id="sketch"><path id="vector" fill-rule="evenodd" clip-rule="evenodd" d="M13.8545 10.0159L24 9L34.1454 10.0159L41.9999 20.0032L24 39.857L6 20.0032L13.8545 10.0159Z" fill="#FDB300"/><path id="vector_2" d="M13.2908 20.0031L23.9999 39.8571L6 20.0031H13.2908ZM34.7092 20.0031L24.0001 39.8571L42 20.0031" fill="#EA6C00"/><path id="vector_3" fill-rule="evenodd" clip-rule="evenodd" d="M13.291 20.0031H34.7091L24.0001 39.8571" fill="#FDAD00"/><path id="vector_4" d="M24.0001 9L13.8547 10.0158L13.291 20.003L24.0001 9ZM24.0003 9L34.1457 10.0158L34.7093 20.003" fill="#FDD231"/><path id="vector_5" d="M42 20.003L34.1456 10.0157L34.7092 20.003H42ZM6 20.003L13.8544 10.0157L13.2908 20.003" fill="#FDAD00"/><path id="vector_6" fill-rule="evenodd" clip-rule="evenodd" d="M24.0001 9L13.291 20.003H34.7091" fill="#FEEEB7"/></g></g></svg>