<svg width="48" height="48" viewBox="0 0 48 48" fill="none" xmlns="http://www.w3.org/2000/svg"><g id="trello-Icon"><g id="Group"><path id="Vector" d="M38.4844 6H9.51562C7.574 6 6 7.574 6 9.51562V38.4844C6 40.426 7.574 42 9.51562 42H38.4844C40.426 42 42 40.426 42 38.4844V9.51562C42 7.574 40.426 6 38.4844 6Z" fill="url(#paint0_linear_94_16796)"/><path id="Vector_2" d="M35.6323 10.68H28.0273C27.0954 10.68 26.3398 11.4355 26.3398 12.3675V24.7425C26.3398 25.6745 27.0954 26.43 28.0273 26.43H35.6323C36.5643 26.43 37.3198 25.6745 37.3198 24.7425V12.3675C37.3198 11.4355 36.5643 10.68 35.6323 10.68Z" fill="white"/><path id="Vector_3" d="M19.9727 10.68H12.3677C11.4357 10.68 10.6802 11.4355 10.6802 12.3675V33.7425C10.6802 34.6745 11.4357 35.43 12.3677 35.43H19.9727C20.9047 35.43 21.6602 34.6745 21.6602 33.7425V12.3675C21.6602 11.4355 20.9047 10.68 19.9727 10.68Z" fill="white"/></g></g><defs><linearGradient id="paint0_linear_94_16796" x1="24" y1="6" x2="24" y2="42" gradientUnits="userSpaceOnUse"><stop stop-color="#0091E6"/><stop offset="1" stop-color="#0079BF"/></linearGradient></defs></svg>