<svg width="48" height="48" viewBox="0 0 48 48" fill="none" xmlns="http://www.w3.org/2000/svg"><g id="twilio-Icon"><g id="Union"><path d="M28.4828 15.7745C26.4157 15.7745 24.74 17.4502 24.74 19.5171C24.74 21.5843 26.4157 23.2599 28.4828 23.2599C30.5498 23.2599 32.2254 21.5843 32.2254 19.5171C32.2254 17.4502 30.5498 15.7745 28.4828 15.7745Z" fill="#F22F46"/><path d="M28.4828 24.74C26.4157 24.74 24.74 26.4158 24.74 28.4828C24.74 30.5498 26.4157 32.2255 28.4828 32.2255C30.5498 32.2255 32.2254 30.5498 32.2254 28.4828C32.2254 26.4158 30.5498 24.74 28.4828 24.74Z" fill="#F22F46"/><path d="M19.5172 24.74C17.4503 24.74 15.7745 26.4158 15.7745 28.4828C15.7745 30.5498 17.4503 32.2255 19.5172 32.2255C21.5843 32.2255 23.26 30.5498 23.26 28.4828C23.26 26.4158 21.5843 24.74 19.5172 24.74Z" fill="#F22F46"/><path d="M19.5172 15.7746C17.4503 15.7746 15.7745 17.4502 15.7745 19.5172C15.7745 21.5844 17.4503 23.26 19.5172 23.26C21.5843 23.26 23.26 21.5844 23.26 19.5172C23.26 17.4502 21.5843 15.7746 19.5172 15.7746Z" fill="#F22F46"/><path fill-rule="evenodd" clip-rule="evenodd" d="M6 24.0001C6 14.0591 14.0589 6.00004 24 6C33.9411 6.00003 42 14.0591 42 24.0001C42 33.9412 33.9411 42 24.0001 42C14.0589 42 6 33.9412 6 24.0001ZM10.7437 24.0001C10.7437 31.3212 16.6788 37.2563 24.0001 37.2563C31.3212 37.2563 37.2562 31.3212 37.2562 24.0001C37.2562 16.6788 31.3212 10.7438 24.0001 10.7438C16.6788 10.7438 10.7437 16.6788 10.7437 24.0001Z" fill="#F22F46"/><path d="M24 6L24.0001 6H23.9999L24 6Z" fill="#F22F46"/></g></g></svg>