<svg width="48" height="48" viewBox="0 0 48 48" fill="none" xmlns="http://www.w3.org/2000/svg"><g id="twitter-spaces-Icon"><g id="Group"><path id="Ellipse 1" d="M42 24C42 33.9411 33.9411 42 24 42C14.0589 42 6 33.9411 6 24C6 14.0589 14.0589 6 24 6C33.9411 6 42 14.0589 42 24Z" fill="url(#paint0_linear_94_16860)"/><g id="Union"><path d="M26.5 16.5C26.5 17.8807 25.3807 19 24 19C22.6193 19 21.5 17.8807 21.5 16.5C21.5 15.1193 22.6193 14 24 14C25.3807 14 26.5 15.1193 26.5 16.5Z" fill="white"/><path d="M17.125 27.125C18.8509 27.125 20.25 25.7259 20.25 24C20.25 22.2741 18.8509 20.875 17.125 20.875C15.3991 20.875 14 22.2741 14 24C14 25.7259 15.3991 27.125 17.125 27.125Z" fill="white"/><path d="M30.875 27.125C32.6009 27.125 34 25.7259 34 24C34 22.2741 32.6009 20.875 30.875 20.875C29.1491 20.875 27.75 22.2741 27.75 24C27.75 25.7259 29.1491 27.125 30.875 27.125Z" fill="white"/><path d="M24 34C25.3807 34 26.5 32.8807 26.5 31.5C26.5 30.1193 25.3807 29 24 29C22.6193 29 21.5 30.1193 21.5 31.5C21.5 32.8807 22.6193 34 24 34Z" fill="white"/></g></g></g><defs><linearGradient id="paint0_linear_94_16860" x1="24" y1="6" x2="24" y2="42" gradientUnits="userSpaceOnUse"><stop stop-color="#8A61F2"/><stop offset="1" stop-color="#4B4BF3"/></linearGradient></defs></svg>