<svg width="48" height="48" viewBox="0 0 48 48" fill="none" xmlns="http://www.w3.org/2000/svg"><g id="web-fundamentals-Icon"><g id="Group"><path id="Vector" d="M17.1195 6.20398H31.175L30.4999 14.5715L37.3605 11.6966L42 24.7268L34.3482 26.9502L39.1471 33.4717L27.9935 41.796L23.7079 35.1272L19.5482 41.796L8.16501 33.4717L13.5493 26.9502L6 24.7268L10.2702 11.6966L17.6255 14.5715L17.1195 6.20398Z" fill="#1C70E7"/><path id="Vector_2" d="M21.1064 10.0579H26.9943L26.4891 20.3027L35.1163 16.7612L37.1665 22.1763L27.9762 24.8228L33.8063 32.83L29.1365 36.3172L23.6134 27.9401L18.5174 36.3172L13.632 32.83L20.066 24.8228L10.7783 22.1763L12.6543 16.7612L21.7253 20.3027L21.1064 10.0579Z" fill="white"/></g></g></svg>