<svg width="48" height="48" viewBox="0 0 48 48" fill="none" xmlns="http://www.w3.org/2000/svg"><g id="yandex-Icon"><path id="bg" d="M3 24C3 12.402 12.402 3 24 3C35.598 3 45 12.402 45 24C45 35.598 35.598 45 24 45C12.402 45 3 35.598 3 24Z" fill="white"/><path id="y" d="M12.8275 11.3406L11.0788 13.5265C10.7523 13.9347 10.7952 14.5255 11.1774 14.8822L21.75 24.75V39H26.25V24.75L36.8226 14.8822C37.2048 14.5255 37.2477 13.9347 36.9212 13.5265L35.1725 11.3406C34.8094 10.8867 34.1371 10.837 33.7112 11.2325L24 20.25L14.2888 11.2325C13.8629 10.837 13.1906 10.8867 12.8275 11.3406Z" fill="#FF0013"/></g></svg>