<svg xmlns="http://www.w3.org/2000/svg" fill="none" stroke="currentColor" aria-hidden="true" viewBox="0 0 32 32"><g id="Icon-Info"><g clip-path="url(#clip0_10_507)"><g id="size=md (32px)"><path id="Vector" stroke-linecap="round" stroke-linejoin="round" stroke-width="2" d="M16 28C22.6274 28 28 22.6274 28 16C28 9.37258 22.6274 4 16 4C9.37258 4 4 9.37258 4 16C4 22.6274 9.37258 28 16 28Z"/><path id="Vector_2" stroke-linecap="round" stroke-linejoin="round" stroke-width="2" d="M15 15H16V22H17"/><path id="Vector_3" fill="#101828" d="M15.75 12C16.5784 12 17.25 11.3284 17.25 10.5C17.25 9.67157 16.5784 9 15.75 9C14.9216 9 14.25 9.67157 14.25 10.5C14.25 11.3284 14.9216 12 15.75 12Z"/></g></g></g><defs><clipPath id="clip0_10_507"><rect width="32" height="32" fill="white" rx="5"/></clipPath></defs></svg>