<svg xmlns="http://www.w3.org/2000/svg" fill="none" stroke="currentColor" aria-hidden="true" viewBox="0 0 32 32"><g id="Icon-Vault"><g clip-path="url(#clip0_10_100)"><g id="size=md (32px)"><path id="Vector" stroke-linecap="round" stroke-linejoin="round" stroke-width="2" d="M24 25V28"/><path id="Vector_2" stroke-linecap="round" stroke-linejoin="round" stroke-width="2" d="M8 25V28"/><path id="Vector_3" stroke-linecap="round" stroke-linejoin="round" stroke-width="2" d="M27 6H5C4.44772 6 4 6.44772 4 7V24C4 24.5523 4.44772 25 5 25H27C27.5523 25 28 24.5523 28 24V7C28 6.44772 27.5523 6 27 6Z"/><path id="Vector_4" fill="#101828" d="M19 18C20.1046 18 21 17.1046 21 16C21 14.8954 20.1046 14 19 14C17.8954 14 17 14.8954 17 16C17 17.1046 17.8954 18 19 18Z"/><path id="Vector_5" stroke-linecap="round" stroke-linejoin="round" stroke-width="2" d="M19 16H28"/><path id="Vector_6" stroke-linecap="round" stroke-linejoin="round" stroke-width="2" d="M19 21C21.7614 21 24 18.7614 24 16C24 13.2386 21.7614 11 19 11C16.2386 11 14 13.2386 14 16C14 18.7614 16.2386 21 19 21Z"/></g></g></g><defs><clipPath id="clip0_10_100"><rect width="32" height="32" fill="white" rx="5"/></clipPath></defs></svg>