<svg xmlns="http://www.w3.org/2000/svg" fill="none" stroke="currentColor" aria-hidden="true" viewBox="0 0 32 32"><g clip-path="url(#a)"><path stroke-linecap="round" stroke-linejoin="round" stroke-width="2" d="M16 24v3"/><path fill="#101828" d="M11.5 19a1.5 1.5 0 1 0 0-3 1.5 1.5 0 0 0 0 3Zm9 0a1.5 1.5 0 1 0 0-3 1.5 1.5 0 0 0 0 3Z"/><path stroke-linecap="round" stroke-linejoin="round" stroke-width="2" d="m18 22-2 2-2-2m5-16 6.975-1.738a1 1 0 0 1 1.225.775l2.05 10.95c.188 1.025-1.125 1.625-1.775.8L19 6Zm-6 0L6.027 4.262a1 1 0 0 0-1.225.775l-2.05 10.95c-.188 1.025 1.125 1.625 1.775.8L13 6Zm0 0h6"/><path stroke-linecap="round" stroke-linejoin="round" stroke-width="2" d="M26 14.913V23a4 4 0 0 1-4 4H10a4 4 0 0 1-4-4v-8.087"/></g><defs><clipPath id="a"><rect width="32" height="32" fill="#fff" rx="5"/></clipPath></defs></svg>