<svg xmlns="http://www.w3.org/2000/svg" fill="none" stroke="currentColor" aria-hidden="true" viewBox="0 0 32 32"><g id="Icon-Flower"><g clip-path="url(#clip0_13_576)"><g id="size=md (32px)"><g id="Flower"><path id="Vector" stroke-linecap="round" stroke-linejoin="round" stroke-width="2" d="M16 19.5C17.933 19.5 19.5 17.933 19.5 16C19.5 14.067 17.933 12.5 16 12.5C14.067 12.5 12.5 14.067 12.5 16C12.5 17.933 14.067 19.5 16 19.5Z"/><path id="Vector_2" stroke-linecap="round" stroke-linejoin="round" stroke-width="2" d="M14.375 12.9C13.4625 10.975 12.5 8.575 12.5 7C12.5 6.07174 12.8687 5.1815 13.5251 4.52513C14.1815 3.86875 15.0717 3.5 16 3.5C16.9283 3.5 17.8185 3.86875 18.4749 4.52513C19.1313 5.1815 19.5 6.07174 19.5 7C19.5 8.575 18.5375 10.975 17.625 12.9"/><path id="Vector_3" stroke-linecap="round" stroke-linejoin="round" stroke-width="2" d="M12.499 15.85C10.374 15.6875 7.81152 15.3125 6.44902 14.525C5.70007 14.035 5.16729 13.2767 4.96021 12.406C4.75313 11.5352 4.8875 10.6183 5.33568 9.84356C5.78386 9.06884 6.51181 8.49526 7.36986 8.24072C8.22792 7.98618 9.15089 8.07003 9.94902 8.47504C11.3115 9.25004 12.9115 11.2875 14.124 13.05"/><path id="Vector_4" stroke-linecap="round" stroke-linejoin="round" stroke-width="2" d="M14.1244 18.95C12.9119 20.7125 11.3119 22.75 9.94942 23.525C9.55127 23.7855 9.10418 23.9621 8.63548 24.044C8.16678 24.1258 7.68631 24.1113 7.22342 24.0012C6.76053 23.8911 6.32495 23.6878 5.94329 23.4037C5.56163 23.1196 5.2419 22.7607 5.00364 22.3488C4.76538 21.937 4.6136 21.4809 4.55756 21.0084C4.50153 20.5359 4.54241 20.057 4.67773 19.6008C4.81304 19.1447 5.03994 18.7209 5.34456 18.3554C5.64918 17.9899 6.02512 17.6903 6.44942 17.475C7.81192 16.6875 10.3744 16.3125 12.4994 16.15"/><path id="Vector_5" stroke-linecap="round" stroke-linejoin="round" stroke-width="2" d="M17.625 19.1C18.5375 21.025 19.5 23.425 19.5 25C19.5 25.9282 19.1313 26.8185 18.4749 27.4748C17.8185 28.1312 16.9283 28.5 16 28.5C15.0717 28.5 14.1815 28.1312 13.5251 27.4748C12.8687 26.8185 12.5 25.9282 12.5 25C12.5 23.425 13.4625 21.025 14.375 19.1"/><path id="Vector_6" stroke-linecap="round" stroke-linejoin="round" stroke-width="2" d="M19.5 16.15C21.625 16.3125 24.1875 16.6875 25.55 17.475C26.299 17.965 26.8317 18.7234 27.0388 19.5941C27.2459 20.4648 27.1115 21.3818 26.6633 22.1565C26.2152 22.9312 25.4872 23.5048 24.6292 23.7593C23.7711 24.0139 22.8481 23.93 22.05 23.525C20.6875 22.75 19.0875 20.7125 17.875 18.95"/><path id="Vector_7" stroke-linecap="round" stroke-linejoin="round" stroke-width="2" d="M17.875 13.05C19.0875 11.2875 20.6875 9.25004 22.05 8.47504C22.8481 8.07003 23.7711 7.98618 24.6292 8.24072C25.4872 8.49526 26.2152 9.06884 26.6633 9.84356C27.1115 10.6183 27.2459 11.5352 27.0388 12.406C26.8317 13.2767 26.299 14.035 25.55 14.525C24.1875 15.3125 21.625 15.6875 19.5 15.85"/></g></g></g></g><defs><clipPath id="clip0_13_576"><rect width="32" height="32" fill="white" rx="5"/></clipPath></defs></svg>