<svg xmlns="http://www.w3.org/2000/svg" fill="none" stroke="currentColor" aria-hidden="true" viewBox="0 0 32 32"><g id="Icon-ThermometerCold"><g clip-path="url(#clip0_13_157)"><g id="size=md (32px)"><g id="ThermometerCold"><path id="Vector" stroke-linecap="round" stroke-linejoin="round" stroke-width="2" d="M15 26C16.3807 26 17.5 24.8807 17.5 23.5C17.5 22.1193 16.3807 21 15 21C13.6193 21 12.5 22.1193 12.5 23.5C12.5 24.8807 13.6193 26 15 26Z"/><path id="Vector_2" stroke-linecap="round" stroke-linejoin="round" stroke-width="2" d="M15 21V15"/><path id="Vector_3" stroke-linecap="round" stroke-linejoin="round" stroke-width="2" d="M26.5 6V10"/><path id="Vector_4" stroke-linecap="round" stroke-linejoin="round" stroke-width="2" d="M22.6992 8.76245L26.4992 9.99995"/><path id="Vector_5" stroke-linecap="round" stroke-linejoin="round" stroke-width="2" d="M24.1504 13.2375L26.5004 10"/><path id="Vector_6" stroke-linecap="round" stroke-linejoin="round" stroke-width="2" d="M28.85 13.2375L26.5 10"/><path id="Vector_7" stroke-linecap="round" stroke-linejoin="round" stroke-width="2" d="M30.3 8.76245L26.5 9.99995"/><path id="Vector_8" stroke-linecap="round" stroke-linejoin="round" stroke-width="2" d="M11 18.375V6C11 4.93913 11.4214 3.92172 12.1716 3.17157C12.9217 2.42143 13.9391 2 15 2C16.0609 2 17.0783 2.42143 17.8284 3.17157C18.5786 3.92172 19 4.93913 19 6V18.375C20.0669 19.2079 20.8471 20.3531 21.2318 21.6507C21.6166 22.9484 21.5867 24.3338 21.1462 25.6136C20.7058 26.8934 19.8769 28.0038 18.775 28.7899C17.6732 29.576 16.3535 29.9985 15 29.9985C13.6465 29.9985 12.3268 29.576 11.225 28.7899C10.1231 28.0038 9.29418 26.8934 8.85376 25.6136C8.41333 24.3338 8.38341 22.9484 8.76816 21.6507C9.15291 20.3531 9.93315 19.2079 11 18.375V18.375Z"/></g></g></g></g><defs><clipPath id="clip0_13_157"><rect width="32" height="32" fill="white" rx="5"/></clipPath></defs></svg>