<svg xmlns="http://www.w3.org/2000/svg" fill="none" stroke="currentColor" aria-hidden="true" viewBox="0 0 32 32"><g stroke="#101828" stroke-linecap="round" stroke-linejoin="round" stroke-width="2" clip-path="url(#a)"><path d="M15 26a2.5 2.5 0 1 0 0-5 2.5 2.5 0 0 0 0 5Zm0-5v-6m11.5-9v4m-3.8-1.238L26.5 10m-2.35 3.238L26.5 10m2.35 3.238L26.5 10m3.8-1.238L26.5 10"/><path d="M11 18.375V6a4 4 0 1 1 8 0v12.375a6.5 6.5 0 1 1-8 0v0Z"/></g><defs><clipPath id="a"><rect width="32" height="32" fill="#fff" rx="5"/></clipPath></defs></svg>