<svg width="32" height="32" viewBox="0 0 32 32" fill="none" xmlns="http://www.w3.org/2000/svg"><g id="Icon-CaretLeft"><g clip-path="url(#clip0_4_2908)"><g id="size=md (32px)"><path id="Vector" d="M10.682 14.497L21.646 4.90495C22.938 3.77295 24.962 4.69295 24.962 6.41095V25.5949C24.9623 25.9794 24.8518 26.3559 24.6437 26.6792C24.4356 27.0025 24.1387 27.2589 23.7886 27.4178C23.4385 27.5768 23.05 27.6314 22.6696 27.5752C22.2892 27.519 21.9332 27.3543 21.644 27.101L10.684 17.509C10.4691 17.3212 10.297 17.0897 10.179 16.83C10.061 16.5702 10 16.2882 10 16.003C10 15.7177 10.061 15.4357 10.179 15.1759C10.297 14.9162 10.4691 14.6847 10.684 14.497H10.682Z" fill="#101828"/></g></g></g><defs><clipPath id="clip0_4_2908"><rect width="32" height="32" rx="5" fill="white"/></clipPath></defs></svg>