<svg width="32" height="32" viewBox="0 0 32 32" fill="none" xmlns="http://www.w3.org/2000/svg"><g id="Icon-Recycle"><g clip-path="url(#clip0_4_1150)"><g id="size=md (32px)"><g id="Recycle"><path id="Vector" d="M19 29L16 26L19 23" stroke="#101828" stroke-width="2" stroke-linecap="round" stroke-linejoin="round"/><path id="Vector_2" d="M24.325 9.40002L23.225 13.5L19.1375 12.4" stroke="#101828" stroke-width="2" stroke-linecap="round" stroke-linejoin="round"/><path id="Vector_3" d="M9.87499 17.6L8.77499 13.5L4.67499 14.6" stroke="#101828" stroke-width="2" stroke-linecap="round" stroke-linejoin="round"/><path id="Vector_4" d="M16 26H27C27.3505 25.9988 27.6945 25.9055 27.9975 25.7294C28.3006 25.5534 28.5521 25.3008 28.7268 24.997C28.9015 24.6931 28.9933 24.3487 28.993 23.9983C28.9926 23.6478 28.9002 23.3035 28.725 23L25.7375 17.825" stroke="#101828" stroke-width="2" stroke-linecap="round" stroke-linejoin="round"/><path id="Vector_5" d="M8.77498 13.5L3.27498 23C3.09973 23.3035 3.00733 23.6478 3.00702 23.9982C3.00671 24.3487 3.0985 24.6931 3.27321 24.997C3.44791 25.3008 3.69939 25.5534 4.00244 25.7294C4.3055 25.9055 4.6495 25.9988 4.99998 26H11" stroke="#101828" stroke-width="2" stroke-linecap="round" stroke-linejoin="round"/><path id="Vector_6" d="M23.225 13.5L17.725 4.00001C17.5511 3.6961 17.3 3.44353 16.9971 3.26787C16.6941 3.09221 16.3502 2.99969 16 2.99969C15.6499 2.99969 15.3059 3.09221 15.003 3.26787C14.7001 3.44353 14.4489 3.6961 14.275 4.00001L11.275 9.17501" stroke="#101828" stroke-width="2" stroke-linecap="round" stroke-linejoin="round"/></g></g></g></g><defs><clipPath id="clip0_4_1150"><rect width="32" height="32" rx="5" fill="white"/></clipPath></defs></svg>