<svg xmlns="http://www.w3.org/2000/svg" fill="none" stroke="currentColor" aria-hidden="true" viewBox="0 0 32 32"><g clip-path="url(#a)"><path fill="#101828" d="M19.5 13a1.5 1.5 0 1 0 0-3 1.5 1.5 0 0 0 0 3Zm-7 0a1.5 1.5 0 1 0 0-3 1.5 1.5 0 0 0 0 3Z"/><path stroke-linecap="round" stroke-linejoin="round" stroke-width="2" d="M16 16v12m14.5-12h-29M26 18a10 10 0 0 1-20 0v-4a10 10 0 1 1 20 0v4Zm2.987 5.5L25.4 21.425M28.987 8.5 25.4 10.575M3.013 8.5 6.6 10.575M3.013 23.5 6.6 21.425"/></g><defs><clipPath id="a"><rect width="32" height="32" fill="#fff" rx="5"/></clipPath></defs></svg>