<svg xmlns="http://www.w3.org/2000/svg" fill="none" stroke="currentColor" aria-hidden="true" viewBox="0 0 32 32"><g id="Icon-Cpu"><g clip-path="url(#clip0_10_920)"><g id="size=md (32px)"><g id="Cpu"><path id="Vector" stroke-linecap="round" stroke-linejoin="round" stroke-width="2" d="M19.5 12.5H12.5V19.5H19.5V12.5Z"/><path id="Vector_2" stroke-linecap="round" stroke-linejoin="round" stroke-width="2" d="M25 6H7C6.44772 6 6 6.44772 6 7V25C6 25.5523 6.44772 26 7 26H25C25.5523 26 26 25.5523 26 25V7C26 6.44772 25.5523 6 25 6Z"/><path id="Vector_3" stroke-linecap="round" stroke-linejoin="round" stroke-width="2" d="M26 13H29"/><path id="Vector_4" stroke-linecap="round" stroke-linejoin="round" stroke-width="2" d="M26 19H29"/><path id="Vector_5" stroke-linecap="round" stroke-linejoin="round" stroke-width="2" d="M3 13H6"/><path id="Vector_6" stroke-linecap="round" stroke-linejoin="round" stroke-width="2" d="M3 19H6"/><path id="Vector_7" stroke-linecap="round" stroke-linejoin="round" stroke-width="2" d="M19 26V29"/><path id="Vector_8" stroke-linecap="round" stroke-linejoin="round" stroke-width="2" d="M13 26V29"/><path id="Vector_9" stroke-linecap="round" stroke-linejoin="round" stroke-width="2" d="M19 3V6"/><path id="Vector_10" stroke-linecap="round" stroke-linejoin="round" stroke-width="2" d="M13 3V6"/></g></g></g></g><defs><clipPath id="clip0_10_920"><rect width="32" height="32" fill="white" rx="5"/></clipPath></defs></svg>