<svg xmlns="http://www.w3.org/2000/svg" fill="none" stroke="currentColor" aria-hidden="true" viewBox="0 0 32 32"><g stroke="#101828" stroke-linecap="round" stroke-linejoin="round" stroke-width="2" clip-path="url(#a)"><path d="M8.5 27a3.5 3.5 0 1 0 0-7 3.5 3.5 0 0 0 0 7Zm15-15a3.5 3.5 0 1 0 0-7 3.5 3.5 0 0 0 0 7Zm-15 0a3.5 3.5 0 1 0 0-7 3.5 3.5 0 0 0 0 7Zm0 8v-1a2.987 2.987 0 0 1 3-3h9a2.986 2.986 0 0 0 3-3v-1m-15 0v8"/></g><defs><clipPath id="a"><rect width="32" height="32" fill="#fff" rx="5"/></clipPath></defs></svg>