<svg xmlns="http://www.w3.org/2000/svg" fill="none" stroke="currentColor" aria-hidden="true" viewBox="0 0 32 32"><g stroke="#101828" stroke-linecap="round" stroke-linejoin="round" stroke-width="2" clip-path="url(#a)"><path d="M8.5 27a3.5 3.5 0 1 0 0-7 3.5 3.5 0 0 0 0 7Zm0-15a3.5 3.5 0 1 0 0-7 3.5 3.5 0 0 0 0 7Zm15 9a3.5 3.5 0 1 0 0-7 3.5 3.5 0 0 0 0 7Z"/><path d="M20 18h-3.688a5.975 5.975 0 0 1-4.612-2.162L8.5 12v8"/></g><defs><clipPath id="a"><rect width="32" height="32" fill="#fff" rx="5"/></clipPath></defs></svg>