<svg xmlns="http://www.w3.org/2000/svg" fill="none" stroke="currentColor" aria-hidden="true" viewBox="0 0 32 32"><g stroke="#101828" stroke-linecap="round" stroke-linejoin="round" stroke-width="2" clip-path="url(#a)"><path d="M15.913 11.875a3.013 3.013 0 0 1 4.2-.037C21.325 13 21.3 14.975 20.1 16.175l-8.375 8.113a1.013 1.013 0 0 0-.012 1.424L15.3 29.3a1.013 1.013 0 0 0 1.413.012l8.3-8.15c3.9-3.9 4.012-10.25.15-14.174a10 10 0 0 0-14.2-.063L2.7 15.288a1 1 0 0 0 0 1.412l3.588 3.588a1.013 1.013 0 0 0 1.425-.013l8.2-8.4ZM15.85 20.3l4.975 4.975M6.75 11.2l4.963 4.975"/></g><defs><clipPath id="a"><rect width="32" height="32" fill="#fff" rx="5"/></clipPath></defs></svg>