<svg width="32" height="32" viewBox="0 0 32 32" fill="none" xmlns="http://www.w3.org/2000/svg"><g id="Icon-CircleNotch"><g clip-path="url(#clip0_8_1520)"><g id="size=md (32px)"><g id="CircleNotch"><path id="Vector" d="M21 5.0875C23.4891 6.22837 25.5132 8.18616 26.7363 10.6359C27.9593 13.0856 28.3079 15.88 27.724 18.5551C27.1402 21.2302 25.659 23.6252 23.5264 25.3425C21.3938 27.0598 18.7381 27.9962 16 27.9962C13.2619 27.9962 10.6062 27.0598 8.4736 25.3425C6.34102 23.6252 4.85987 21.2302 4.27601 18.5551C3.69215 15.88 4.04069 13.0856 5.26377 10.6359C6.48686 8.18616 8.51093 6.22837 11 5.0875" stroke="#101828" stroke-width="2" stroke-linecap="round" stroke-linejoin="round"/></g></g></g><rect x="0.5" y="0.5" width="31" height="31" rx="4.5" stroke="#3D90E3" stroke-dasharray="10 5"/></g><defs><clipPath id="clip0_8_1520"><rect width="32" height="32" rx="5" fill="white"/></clipPath></defs></svg>