<svg width="32" height="32" viewBox="0 0 32 32" fill="none" xmlns="http://www.w3.org/2000/svg"><g id="Icon-AlignLeft"><g clip-path="url(#clip0_8_1775)"><g id="size=md (32px)"><g id="AlignLeft"><path id="Vector" d="M5 5V27" stroke="#101828" stroke-width="2" stroke-linecap="round" stroke-linejoin="round"/><path id="Vector_2" d="M22 7H10C9.44772 7 9 7.44772 9 8V13C9 13.5523 9.44772 14 10 14H22C22.5523 14 23 13.5523 23 13V8C23 7.44772 22.5523 7 22 7Z" stroke="#101828" stroke-width="2" stroke-linecap="round" stroke-linejoin="round"/><path id="Vector_3" d="M27 18H10C9.44772 18 9 18.4477 9 19V24C9 24.5523 9.44772 25 10 25H27C27.5523 25 28 24.5523 28 24V19C28 18.4477 27.5523 18 27 18Z" stroke="#101828" stroke-width="2" stroke-linecap="round" stroke-linejoin="round"/></g></g></g><rect x="0.5" y="0.5" width="31" height="31" rx="4.5" stroke="#3D90E3" stroke-dasharray="10 5"/></g><defs><clipPath id="clip0_8_1775"><rect width="32" height="32" rx="5" fill="white"/></clipPath></defs></svg>