<svg width="32" height="32" viewBox="0 0 32 32" fill="none" xmlns="http://www.w3.org/2000/svg"><g id="Icon-Swatches"><g clip-path="url(#clip0_8_31)"><g id="size=md (32px)"><g id="Swatches"><path id="Vector" d="M4.58745 21.625L7.61245 4.48751C7.63359 4.35817 7.68027 4.23433 7.74976 4.12321C7.81925 4.01209 7.91016 3.91591 8.0172 3.84029C8.12424 3.76466 8.24526 3.7111 8.37321 3.68273C8.50116 3.65435 8.63348 3.65173 8.76245 3.67501L15.6625 4.88751C15.9232 4.93625 16.1543 5.08535 16.3063 5.30273C16.4582 5.52011 16.5188 5.78844 16.475 6.05001L13.4375 23.2875C13.2294 24.4482 12.5753 25.4814 11.6152 26.1659C10.655 26.8504 9.46503 27.1318 8.29995 26.95C5.81245 26.55 4.14995 24.1125 4.58745 21.625Z" stroke="#101828" stroke-width="2" stroke-linecap="round" stroke-linejoin="round"/><path id="Vector_2" d="M14.7875 15.6L23.9 12.2875C24.0239 12.2417 24.1556 12.221 24.2875 12.2264C24.4195 12.2319 24.5491 12.2634 24.6688 12.3192C24.7885 12.375 24.8959 12.4539 24.985 12.5515C25.074 12.649 25.1428 12.7632 25.1875 12.8875L27.5875 19.4625C27.676 19.7112 27.6626 19.9848 27.5502 20.2236C27.4378 20.4625 27.2355 20.6472 26.9875 20.7375L10.5375 26.725" stroke="#101828" stroke-width="2" stroke-linecap="round" stroke-linejoin="round"/><path id="Vector_3" d="M27.5 20.3125V26C27.5 26.2652 27.3946 26.5196 27.2071 26.7071C27.0196 26.8946 26.7652 27 26.5 27H9" stroke="#101828" stroke-width="2" stroke-linecap="round" stroke-linejoin="round"/><path id="Vector_4" d="M9 24C9.82843 24 10.5 23.3284 10.5 22.5C10.5 21.6716 9.82843 21 9 21C8.17157 21 7.5 21.6716 7.5 22.5C7.5 23.3284 8.17157 24 9 24Z" fill="#101828"/></g></g></g><rect x="0.5" y="0.5" width="31" height="31" rx="4.5" stroke="#3D90E3" stroke-dasharray="10 5"/></g><defs><clipPath id="clip0_8_31"><rect width="32" height="32" rx="5" fill="white"/></clipPath></defs></svg>