<svg width="32" height="32" viewBox="0 0 32 32" fill="none" xmlns="http://www.w3.org/2000/svg"><g id="Icon-AlignBottom"><g clip-path="url(#clip0_8_1898)"><g id="size=md (32px)"><g id="AlignBottom"><path id="Vector" d="M27 27H5" stroke="#101828" stroke-width="2" stroke-linecap="round" stroke-linejoin="round"/><path id="Vector_2" d="M18 10V22C18 22.5523 18.4477 23 19 23H24C24.5523 23 25 22.5523 25 22V10C25 9.44771 24.5523 9 24 9H19C18.4477 9 18 9.44771 18 10Z" stroke="#101828" stroke-width="2" stroke-linecap="round" stroke-linejoin="round"/><path id="Vector_3" d="M13 4H8C7.44772 4 7 4.44772 7 5V22C7 22.5523 7.44772 23 8 23H13C13.5523 23 14 22.5523 14 22V5C14 4.44772 13.5523 4 13 4Z" stroke="#101828" stroke-width="2" stroke-linecap="round" stroke-linejoin="round"/></g></g></g><rect x="0.5" y="0.5" width="31" height="31" rx="4.5" stroke="#3D90E3" stroke-dasharray="10 5"/></g><defs><clipPath id="clip0_8_1898"><rect width="32" height="32" rx="5" fill="white"/></clipPath></defs></svg>