<svg width="32" height="32" viewBox="0 0 32 32" fill="none" xmlns="http://www.w3.org/2000/svg"><g id="Icon-MagicWand"><g clip-path="url(#clip0_8_954)"><g id="size=md (32px)"><g id="MagicWand"><path id="Vector" d="M27 16V22" stroke="#101828" stroke-width="2" stroke-linecap="round" stroke-linejoin="round"/><path id="Vector_2" d="M24 19H30" stroke="#101828" stroke-width="2" stroke-linecap="round" stroke-linejoin="round"/><path id="Vector_3" d="M10.5 5V10" stroke="#101828" stroke-width="2" stroke-linecap="round" stroke-linejoin="round"/><path id="Vector_4" d="M8 7.5H13" stroke="#101828" stroke-width="2" stroke-linecap="round" stroke-linejoin="round"/><path id="Vector_5" d="M21 23V27" stroke="#101828" stroke-width="2" stroke-linecap="round" stroke-linejoin="round"/><path id="Vector_6" d="M19 25H23" stroke="#101828" stroke-width="2" stroke-linecap="round" stroke-linejoin="round"/><path id="Vector_7" d="M23.3034 4.70397L4.71529 23.292C4.32476 23.6826 4.32476 24.3157 4.71529 24.7063L7.30064 27.2916C7.69117 27.6821 8.32433 27.6821 8.71486 27.2916L27.3029 8.70354C27.6935 8.31302 27.6935 7.67985 27.3029 7.28933L24.7176 4.70397C24.327 4.31344 23.6939 4.31345 23.3034 4.70397Z" stroke="#101828" stroke-width="2" stroke-linecap="round" stroke-linejoin="round"/><path id="Vector_8" d="M18 10L22 14" stroke="#101828" stroke-width="2" stroke-linecap="round" stroke-linejoin="round"/></g></g></g><rect x="0.5" y="0.5" width="31" height="31" rx="4.5" stroke="#3D90E3" stroke-dasharray="10 5"/></g><defs><clipPath id="clip0_8_954"><rect width="32" height="32" rx="5" fill="white"/></clipPath></defs></svg>