<svg width="32" height="32" viewBox="0 0 32 32" fill="none" xmlns="http://www.w3.org/2000/svg"><g id="Icon-Anchor"><g clip-path="url(#clip0_10_2141)"><g id="size=md (32px)"><g id="Anchor"><path id="Vector" d="M16 29V9" stroke="#101828" stroke-width="2" stroke-linecap="round" stroke-linejoin="round"/><path id="Vector_2" d="M16 9C17.3807 9 18.5 7.88071 18.5 6.5C18.5 5.11929 17.3807 4 16 4C14.6193 4 13.5 5.11929 13.5 6.5C13.5 7.88071 14.6193 9 16 9Z" stroke="#101828" stroke-width="2" stroke-linecap="round" stroke-linejoin="round"/><path id="Vector_3" d="M11 14H21" stroke="#101828" stroke-width="2" stroke-linecap="round" stroke-linejoin="round"/><path id="Vector_4" d="M5 18C5 19.5913 5.63214 21.1174 6.75736 22.2426C7.88258 23.3679 9.4087 24 11 24C12.3261 24 13.5979 24.5268 14.5355 25.4645C15.4732 26.4021 16 27.6739 16 29C16 27.6739 16.5268 26.4021 17.4645 25.4645C18.4021 24.5268 19.6739 24 21 24C22.5913 24 24.1174 23.3679 25.2426 22.2426C26.3679 21.1174 27 19.5913 27 18" stroke="#101828" stroke-width="2" stroke-linecap="round" stroke-linejoin="round"/></g></g></g></g><defs><clipPath id="clip0_10_2141"><rect width="32" height="32" rx="5" fill="white"/></clipPath></defs></svg>