<svg width="32" height="32" viewBox="0 0 32 32" fill="none" xmlns="http://www.w3.org/2000/svg"><g id="Icon-HouseLine"><g clip-path="url(#clip0_10_1647)"><g id="size=md (32px)"><g id="HouseLine"><path id="Vector" d="M27 27V14.4375C26.9978 14.2991 26.9679 14.1626 26.912 14.0359C26.8562 13.9093 26.7756 13.7951 26.675 13.7L16.675 4.61252C16.4907 4.44387 16.2499 4.35034 16 4.35034C15.7501 4.35034 15.5093 4.44387 15.325 4.61252L5.325 13.7C5.22437 13.7951 5.14378 13.9093 5.08796 14.0359C5.03215 14.1626 5.00224 14.2991 5 14.4375V27" stroke="#101828" stroke-width="2" stroke-linecap="round" stroke-linejoin="round"/><path id="Vector_2" d="M2 27H30" stroke="#101828" stroke-width="2" stroke-linecap="round" stroke-linejoin="round"/><path id="Vector_3" d="M19 27V20C19 19.7348 18.8946 19.4804 18.7071 19.2929C18.5196 19.1054 18.2652 19 18 19H14C13.7348 19 13.4804 19.1054 13.2929 19.2929C13.1054 19.4804 13 19.7348 13 20V27" stroke="#101828" stroke-width="2" stroke-linecap="round" stroke-linejoin="round"/></g></g></g></g><defs><clipPath id="clip0_10_1647"><rect width="32" height="32" rx="5" fill="white"/></clipPath></defs></svg>