<svg width="32" height="32" viewBox="0 0 32 32" fill="none" xmlns="http://www.w3.org/2000/svg"><g id="Icon-TrafficSignal"><g clip-path="url(#clip0_10_1282)"><g id="size=md (32px)"><g id="TrafficSignal"><path id="Vector" d="M23 4H9C8.44772 4 8 4.44772 8 5V27C8 27.5523 8.44772 28 9 28H23C23.5523 28 24 27.5523 24 27V5C24 4.44772 23.5523 4 23 4Z" stroke="#101828" stroke-width="2" stroke-linecap="round" stroke-linejoin="round"/><path id="Vector_2" d="M16 14C17.6569 14 19 12.6569 19 11C19 9.34315 17.6569 8 16 8C14.3431 8 13 9.34315 13 11C13 12.6569 14.3431 14 16 14Z" stroke="#101828" stroke-width="2" stroke-linecap="round" stroke-linejoin="round"/><path id="Vector_3" d="M16 24C17.6569 24 19 22.6569 19 21C19 19.3431 17.6569 18 16 18C14.3431 18 13 19.3431 13 21C13 22.6569 14.3431 24 16 24Z" stroke="#101828" stroke-width="2" stroke-linecap="round" stroke-linejoin="round"/><path id="Vector_4" d="M24 9H27" stroke="#101828" stroke-width="2" stroke-linecap="round" stroke-linejoin="round"/><path id="Vector_5" d="M24 19H27" stroke="#101828" stroke-width="2" stroke-linecap="round" stroke-linejoin="round"/><path id="Vector_6" d="M5 9H8" stroke="#101828" stroke-width="2" stroke-linecap="round" stroke-linejoin="round"/><path id="Vector_7" d="M5 19H8" stroke="#101828" stroke-width="2" stroke-linecap="round" stroke-linejoin="round"/></g></g></g></g><defs><clipPath id="clip0_10_1282"><rect width="32" height="32" rx="5" fill="white"/></clipPath></defs></svg>