<svg xmlns="http://www.w3.org/2000/svg" width="32" height="32" fill="none"><path stroke="#101828" stroke-linecap="round" stroke-linejoin="round" stroke-width="2" d="M17 18a4 4 0 1 0 0-8 4 4 0 0 0 0 8ZM4 13.5h3m-3-5h3m-3 10h3m-3 5h3"/><path stroke="#101828" stroke-linecap="round" stroke-linejoin="round" stroke-width="2" d="M11 21a7.5 7.5 0 0 1 12 0"/><path stroke="#101828" stroke-linecap="round" stroke-linejoin="round" stroke-width="2" d="M27 27V5a1 1 0 0 0-1-1H8a1 1 0 0 0-1 1v22a1 1 0 0 0 1 1h18a1 1 0 0 0 1-1Z"/></svg>