<svg width="32" height="32" viewBox="0 0 32 32" fill="none" xmlns="http://www.w3.org/2000/svg"><g id="Icon-ChatTeardrop"><g clip-path="url(#clip0_4_626)"><g id="size=md (32px)"><path id="Vector" d="M16.5 27H5.96249C5.83563 27.0017 5.70972 26.9779 5.59218 26.9302C5.47465 26.8824 5.36787 26.8115 5.27816 26.7218C5.18844 26.6321 5.11761 26.5253 5.06983 26.4078C5.02206 26.2903 4.99831 26.1644 4.99999 26.0375V15.5C4.99999 12.45 6.2116 9.52494 8.36826 7.36827C10.5249 5.2116 13.45 4 16.5 4V4C18.0102 4 19.5056 4.29746 20.9009 4.87539C22.2961 5.45331 23.5638 6.3004 24.6317 7.36827C25.6996 8.43615 26.5467 9.7039 27.1246 11.0991C27.7025 12.4944 28 13.9898 28 15.5V15.5C28 17.0102 27.7025 18.5056 27.1246 19.9009C26.5467 21.2961 25.6996 22.5639 24.6317 23.6317C23.5638 24.6996 22.2961 25.5467 20.9009 26.1246C19.5056 26.7025 18.0102 27 16.5 27V27Z" stroke="#101828" stroke-width="2" stroke-linecap="round" stroke-linejoin="round"/></g></g></g><defs><clipPath id="clip0_4_626"><rect width="32" height="32" rx="5" fill="white"/></clipPath></defs></svg>