<svg width="32" height="32" viewBox="0 0 32 32" fill="none" xmlns="http://www.w3.org/2000/svg"><g id="Icon-Rss"><g clip-path="url(#clip0_4_291)"><g id="size=md (32px)"><path id="Vector" d="M6 18C7.0515 17.9967 8.09327 18.2014 9.06537 18.6022C10.0375 19.0031 10.9207 19.5923 11.6642 20.3358C12.4077 21.0793 12.9969 21.9625 13.3978 22.9346C13.7986 23.9067 14.0033 24.9485 14 26" stroke="#101828" stroke-width="2" stroke-linecap="round" stroke-linejoin="round"/><path id="Vector_2" d="M6 12C9.71303 12 13.274 13.475 15.8995 16.1005C18.525 18.726 20 22.287 20 26" stroke="#101828" stroke-width="2" stroke-linecap="round" stroke-linejoin="round"/><path id="Vector_3" d="M6 6C8.62689 5.99507 11.2287 6.5106 13.6553 7.51683C16.0818 8.52306 18.285 10.0001 20.1375 11.8625C22 13.715 23.4769 15.9182 24.4832 18.3447C25.4894 20.7713 26.0049 23.3731 26 26" stroke="#101828" stroke-width="2" stroke-linecap="round" stroke-linejoin="round"/><path id="Vector_4" d="M6.5 27C7.32843 27 8 26.3284 8 25.5C8 24.6716 7.32843 24 6.5 24C5.67157 24 5 24.6716 5 25.5C5 26.3284 5.67157 27 6.5 27Z" fill="#101828"/></g></g></g><defs><clipPath id="clip0_4_291"><rect width="32" height="32" rx="5" fill="white"/></clipPath></defs></svg>