<svg xmlns="http://www.w3.org/2000/svg" width="48" height="48" fill="none"><path fill="#B30B00" d="M29.477 27.735c2.07-.375 3.99-.54 5.64-.54 3.074 0 5.264.645 6.33 1.755.48.54.794 1.605.314 2.565-.255.735-1.065 1.65-3.3 1.65-1.8 0-5.43-.6-9.524-4.26-1.725.285-3.42.66-5.115 1.11-1.59.435-3.195.96-4.785 1.5-2.07 3.764-6.18 10.05-10.064 10.05-1.275 0-2.025-.63-2.235-.796-.585-.585-.855-1.335-.69-2.13.42-2.13 4.2-4.845 10.064-7.184 1.065-1.92 2.025-3.99 2.865-6.015.945-2.22 1.8-4.47 2.565-6.765-2.025-4.47-2.565-8.984-1.395-11.07.435-.69 1.23-1.17 2.025-1.17 2.61 0 3.525 2.55 3.525 5.01 0 2.175-.585 5.205-1.815 8.94.63 1.11 1.335 2.28 2.13 3.345a29.372 29.372 0 0 0 3.465 4.005ZM21.96 17.139c.915-2.985 1.44-5.594 1.44-7.29 0-1.02-.21-2.294-1.335-2.294-.42 0-.81.255-1.005.63-.75 1.335-.645 4.8.9 8.954ZM7.11 38.846c-.105.435.06.81.375 1.125.225.165.51.27.795.27 1.605 0 4.215-2.775 6.93-7.244-4.695 2.025-7.785 4.26-8.1 5.85Zm32.205-8.351c.27-1.38-.9-1.86-1.65-2.025-.645-.15-1.59-.21-2.715-.21-1.5 0-3 .12-4.47.375 1.92 1.59 3.825 2.61 5.85 3.09.33.045.585.105.915.105 1.11 0 1.905-.54 2.07-1.335Zm-14.261-6.066a34.123 34.123 0 0 1-1.71-2.61c-.525 1.44-1.065 2.985-1.695 4.47a69.099 69.099 0 0 1-1.815 3.84 54.64 54.64 0 0 1 3.78-1.125 54.059 54.059 0 0 1 4.425-1.005 83.552 83.552 0 0 1-2.985-3.57Z"/></svg>