<svg xmlns="http://www.w3.org/2000/svg" width="48" height="48" fill="none"><path fill="#013301" d="M6 19.029c0-4.56 0-6.841.888-8.583a8.143 8.143 0 0 1 3.558-3.558C12.188 6 14.468 6 19.03 6h9.942c4.56 0 6.841 0 8.583.888a8.143 8.143 0 0 1 3.558 3.558C42 12.188 42 14.468 42 19.03v9.942c0 4.56 0 6.841-.888 8.583a8.143 8.143 0 0 1-3.558 3.558C35.812 42 33.532 42 28.97 42h-9.94c-4.56 0-6.841 0-8.583-.888a8.143 8.143 0 0 1-3.558-3.558C6 35.812 6 33.532 6 28.97v-9.94Z"/><path fill="#3F6" d="M11.144 32.311V16.558a.18.18 0 0 1 .169-.198 23.61 23.61 0 0 1 1.062-.037c.467-.008 1.014-.017 1.643-.025a157.52 157.52 0 0 1 2.004-.012c1.932 0 3.534.338 4.806 1.015a6.762 6.762 0 0 1 2.861 2.787c.636 1.18.954 2.539.954 4.074a9.3 9.3 0 0 1-.495 3.158 7.413 7.413 0 0 1-1.352 2.366 8.088 8.088 0 0 1-1.944 1.647 8.428 8.428 0 0 1-2.319.966 9.967 9.967 0 0 1-2.439.31h-1.799c-.636 0-1.228-.005-1.775-.013-.547-.008-.958-.02-1.231-.037-.097 0-.145-.082-.145-.248Zm3.332-12.979v10.255c.484 0 .966.05 1.45.05a6.343 6.343 0 0 0 2.149-.347 4.38 4.38 0 0 0 1.654-1.04 4.69 4.69 0 0 0 1.063-1.71 6.63 6.63 0 0 0 .374-2.303 5.947 5.947 0 0 0-.362-2.168 4.106 4.106 0 0 0-1.05-1.56 4.272 4.272 0 0 0-1.643-.929 6.996 6.996 0 0 0-2.089-.297 21.815 21.815 0 0 0-1.546.05ZM26.12 32.336v-9.214a41.208 41.208 0 0 0-.049-1.932 21.833 21.833 0 0 0-.048-.743c-.045-.117.06-.207.169-.198h2.511c.454-.016.53.66.556 1.015a4.824 4.824 0 0 1 1.594-.953 5.363 5.363 0 0 1 1.811-.31c.48.002.957.082 1.413.235a3.555 3.555 0 0 1 1.403.864c.396.396.697.88.88 1.415.24.636.361 1.457.361 2.465v7.356c0 .149-.064.223-.193.223h-2.922c-.139.02-.261-.105-.242-.248v-7.034a3.164 3.164 0 0 0-.217-1.263c-.633-1.52-2.691-1.187-3.67-.248v8.57c0 .149-.065.223-.194.223h-2.946c-.125.018-.235-.095-.218-.223Z"/></svg>