<svg xmlns="http://www.w3.org/2000/svg" width="48" height="48" fill="none"><rect width="36" height="36" x="6" y="6" fill="#470137" rx="8"/><path fill="#FF61F6" fill-rule="evenodd" d="M31.764 32.603a7.352 7.352 0 0 1-3.188-.669 5.175 5.175 0 0 1-2.238-2.022c-.549-.907-.816-2.037-.816-3.39a6.123 6.123 0 0 1 .816-3.138 6.165 6.165 0 0 1 2.357-2.305c1.038-.58 2.283-.863 3.751-.863.074 0 .178 0 .311.015.072.008.148.012.23.016.072.003.148.007.23.014v-4.7c0-.104.044-.163.148-.163h3.01c.074-.015.133.045.148.104V29.69c0 .243.012.51.026.803l.004.089c.025.264.04.518.052.742l.007.12c0 .105-.044.194-.148.238a11.3 11.3 0 0 1-2.417.714 13.02 13.02 0 0 1-2.283.208Zm1.453-2.974v-6.543a3.509 3.509 0 0 0-.4-.074 5.389 5.389 0 0 0-.49-.03c-.578 0-1.156.12-1.675.387a3.326 3.326 0 0 0-1.26 1.1c-.326.476-.49 1.115-.49 1.889a4.17 4.17 0 0 0 .253 1.531c.148.402.37.759.667 1.056a2.56 2.56 0 0 0 1.008.595c.4.134.815.193 1.23.193.223 0 .43-.015.623-.03.193.015.356-.014.534-.074Z" clip-rule="evenodd"/><path fill="#FF61F6" d="m20.467 24.276 4.448-7.361c.03-.03.059-.09.044-.104a.137.137 0 0 0-.163-.104h-3.128a.282.282 0 0 0-.193.03.257.257 0 0 0-.089.148c-.133.249-.266.503-.4.758-.195.371-.391.746-.593 1.116a110.3 110.3 0 0 0-1.008 1.874 57.748 57.748 0 0 0-.964 1.918h-.03a32.776 32.776 0 0 0-.993-1.889 60.523 60.523 0 0 1-.875-1.541l-.192-.347a28.732 28.732 0 0 1-.95-1.919.42.42 0 0 0-.147-.133.87.87 0 0 0-.208-.03h-3.365c-.06 0-.119.015-.149.06-.03.029-.014.088.03.148l4.492 7.629-4.61 7.584a.204.204 0 0 0-.03.163c0 .056.025.053.063.048.012-.001.026-.003.04-.003h3.262c.163 0 .282-.015.341-.164.228-.406.455-.826.682-1.245l.341-.628c.326-.625.667-1.264 1.008-1.904.341-.64.682-1.279.994-1.918h.03c.355.654.71 1.294 1.067 1.933.355.64.697 1.264 1.008 1.874.155.312.315.62.474.93.16.308.319.616.475.929.103.148.267.163.504.163h3.395c.034-.006.064-.002.089 0 .039.004.065.007.074-.03a.256.256 0 0 0-.03-.178l-4.744-7.807Z"/></svg>