<svg xmlns="http://www.w3.org/2000/svg" width="48" height="48" fill="none"><path fill="#000B1D" d="M6 19.029c0-4.56 0-6.841.888-8.583a8.143 8.143 0 0 1 3.558-3.558C12.188 6 14.468 6 19.03 6h9.942c4.56 0 6.841 0 8.583.888a8.143 8.143 0 0 1 3.558 3.558C42 12.188 42 14.468 42 19.03v9.942c0 4.56 0 6.841-.888 8.583a8.143 8.143 0 0 1-3.558 3.558C35.812 42 33.532 42 28.97 42h-9.94c-4.56 0-6.841 0-8.583-.888a8.143 8.143 0 0 1-3.558-3.558C6 35.812 6 33.532 6 28.97v-9.94Z"/><path fill="#fff" d="M19.516 32.998c-1.436.027-2.95-.205-4.262-.829-.134-.061-.194-.2-.194-.414v-2.946c0-.126.104-.195.209-.123a8.098 8.098 0 0 0 4.336 1.289c.955 0 2.534-.188 2.534-1.504 0-1.589-2.286-2.113-3.398-2.593-2.063-.916-3.74-2.259-3.74-4.742-.03-1.78.983-3.422 2.563-4.143 1.92-.937 4.956-.949 6.914 0a.335.335 0 0 1 .164.322v2.793c0 .123-.127.155-.209.092a7.705 7.705 0 0 0-3.68-.829c-.784 0-1.975.093-2.4.906-.822 1.694 1.9 2.52 3.055 2.977 2.121.892 4.083 2.335 4.083 4.94.055 3.377-3.186 4.804-5.975 4.804Zm14.112-2.701v2.026c0 .184-.06.291-.194.322-2.674.918-5.439-.015-5.439-3.192V23.3H26.55c-.134 0-.194-.077-.194-.215l.015-2.44c0-.138.074-.2.208-.2h1.446c.053-.99.111-1.978.238-2.961.03-.095.1-.198.194-.23l2.861-.369c.122-.042.164.037.164.154-.088 1.139-.076 2.28-.104 3.422h2.116c.09 0 .149.061.149.2l-.015 2.485c.015.077-.045.154-.12.17h-2.115v5.324c0 .552.06.967.238 1.197.386.496 1.247.37 1.803.307.114-.04.194.04.194.153Z"/></svg>