<svg xmlns="http://www.w3.org/2000/svg" width="48" height="48" fill="none"><path fill="#B30B00" d="M6 19.029c0-4.56 0-6.841.888-8.583a8.143 8.143 0 0 1 3.558-3.558C12.188 6 14.468 6 19.03 6h9.942c4.56 0 6.841 0 8.583.888a8.143 8.143 0 0 1 3.558 3.558C42 12.188 42 14.468 42 19.03v9.942c0 4.56 0 6.841-.888 8.583a8.143 8.143 0 0 1-3.558 3.558C35.812 42 33.532 42 28.97 42h-9.94c-4.56 0-6.841 0-8.583-.888a8.143 8.143 0 0 1-3.558-3.558C6 35.812 6 33.532 6 28.97v-9.94Z"/><path fill="#fff" d="M34.337 26.44c-1.68-1.843-6.261-1.037-7.368-.922-1.569-1.613-2.675-3.441-3.124-4.133.56-1.728 1.009-3.672 1.009-5.515 0-1.728-.672-3.441-2.451-3.441-.673 0-1.233.345-1.57.921-.784 1.383-.448 4.133.785 6.999-.672 2.073-1.793 5.17-3.124 7.574-1.793.691-5.7 2.52-6.037 4.594-.112.576.112 1.267.56 1.612.449.461 1.009.576 1.57.576 2.338 0 4.692-3.326 6.373-6.321 1.345-.461 3.46-1.152 5.589-1.498 2.451 2.304 4.692 2.635 5.813 2.635 1.569 0 2.13-.69 2.34-1.267.294-.547.083-1.353-.365-1.814Zm-1.569 1.152c-.112.46-.672.921-1.68.691-1.233-.346-2.34-.922-3.236-1.728.784-.115 2.675-.346 4.02-.115.448.115 1.008.46.896 1.152ZM21.926 13.81a.614.614 0 0 1 .56-.346c.56 0 .673.692.673 1.268-.112 1.382-.336 2.865-.784 4.132-.897-2.52-.785-4.363-.449-5.054Zm-.112 12.974c.56-1.036 1.233-2.98 1.457-3.672.56 1.037 1.569 2.19 2.017 2.75.112-.1-1.905.346-3.474.922Zm-3.796 2.65c-1.555 2.52-3.012 4.133-3.908 4.133-.112 0-.336 0-.448-.115-.112-.23-.224-.461-.112-.692.112-.921 1.905-2.188 4.468-3.326Z"/></svg>