<svg xmlns="http://www.w3.org/2000/svg" width="48" height="48" fill="none"><path fill="#00005B" d="M6 19.029c0-4.56 0-6.841.888-8.583a8.143 8.143 0 0 1 3.558-3.558C12.188 6 14.468 6 19.03 6h9.942c4.56 0 6.841 0 8.583.888a8.143 8.143 0 0 1 3.558 3.558C42 12.188 42 14.468 42 19.03v9.942c0 4.56 0 6.841-.888 8.583a8.143 8.143 0 0 1-3.558 3.558C35.812 42 33.532 42 28.97 42h-9.94c-4.56 0-6.841 0-8.583-.888a8.143 8.143 0 0 1-3.558-3.558C6 35.812 6 33.532 6 28.97v-9.94Z"/><path fill="#99F" d="M19.906 27.73h-5.598l-1.139 3.752a.29.29 0 0 1-.29.23h-2.835c-.162 0-.219-.093-.17-.281l4.846-14.71c.049-.154.097-.305.146-.501a5.83 5.83 0 0 0 .097-1.039c-.014-.103.072-.194.17-.18h3.852c.113 0 .178.043.194.129l5.5 16.326c.05.172 0 .257-.145.257h-3.15a.228.228 0 0 1-.242-.18l-1.236-3.802Zm-4.725-3.162h3.828c-.629-2.218-1.339-4.407-1.914-6.642-.652 2.319-1.254 4.469-1.914 6.642Zm11.039 6.866v-9.54a43.57 43.57 0 0 0-.05-2 23.3 23.3 0 0 0-.048-.769c-.044-.12.062-.214.17-.205h2.52c.455-.016.531.684.558 1.051a4.811 4.811 0 0 1 1.599-.987 5.228 5.228 0 0 1 1.817-.32c.482.002.96.084 1.418.243a3.55 3.55 0 0 1 1.407.895c.398.409.7.91.883 1.464.242.659.363 1.51.363 2.552v7.616c0 .154-.064.231-.194.231h-2.932c-.139.021-.262-.109-.242-.256v-7.283a3.371 3.371 0 0 0-.218-1.308c-.636-1.574-2.7-1.229-3.683-.257v8.873c0 .154-.065.231-.194.231h-2.956c-.126.02-.236-.098-.219-.23Z"/></svg>