<svg xmlns="http://www.w3.org/2000/svg" width="48" height="48" fill="none"><path fill="#370000" d="M6 19.029c0-4.56 0-6.841.888-8.583a8.143 8.143 0 0 1 3.558-3.558C12.188 6 14.468 6 19.03 6h9.942c4.56 0 6.841 0 8.583.888a8.143 8.143 0 0 1 3.558 3.558C42 12.188 42 14.468 42 19.03v9.942c0 4.56 0 6.841-.888 8.583a8.143 8.143 0 0 1-3.558 3.558C35.812 42 33.532 42 28.97 42h-9.94c-4.56 0-6.841 0-8.583-.888a8.143 8.143 0 0 1-3.558-3.558C6 35.812 6 33.532 6 28.97v-9.94Z"/><path fill="#FA0F00" d="M16.958 32.065c-1.44.028-2.959-.209-4.275-.846-.134-.062-.194-.204-.194-.423v-3.008c0-.128.103-.2.21-.126a8.007 8.007 0 0 0 4.348 1.317c.958 0 2.541-.193 2.541-1.536 0-1.623-2.293-2.158-3.407-2.648-2.07-.935-3.752-2.307-3.752-4.842-.03-1.818.987-3.495 2.57-4.231 1.927-.957 4.972-.969 6.936 0a.345.345 0 0 1 .164.329v2.852c0 .126-.128.158-.21.094a7.613 7.613 0 0 0-3.69-.846c-.786 0-1.98.095-2.407.924-.825 1.73 1.904 2.574 3.064 3.04 2.127.911 4.095 2.385 4.095 5.046.055 3.447-3.196 4.904-5.993 4.904Zm12.524-13.043c3.382 0 6.108 2.565 6.088 6.13.045 1.998-.777 3.95-2.283 5.19-1.644 1.353-3.58 1.698-5.606 1.698v4.288c.012.118-.078.225-.191.227-.973.102-1.968.211-2.937.302-.095 0-.15-.067-.15-.2v-14.81c0-.542-.007-1.102-.072-1.64a.14.14 0 0 1 .097-.157c1.606-.61 3.34-1.042 5.054-1.028Zm-1.813 3.096v6.895c2.352.817 4.465-1.245 4.465-3.63 0-2.614-2.08-3.933-4.465-3.265Z"/></svg>