<svg xmlns="http://www.w3.org/2000/svg" width="48" height="48" fill="none"><path fill="#00005B" d="M6 19.029c0-4.56 0-6.841.888-8.583a8.143 8.143 0 0 1 3.558-3.558C12.188 6 14.468 6 19.03 6h9.942c4.56 0 6.841 0 8.583.888a8.143 8.143 0 0 1 3.558 3.558C42 12.188 42 14.468 42 19.03v9.942c0 4.56 0 6.841-.888 8.583a8.143 8.143 0 0 1-3.558 3.558C35.812 42 33.532 42 28.97 42h-9.94c-4.56 0-6.841 0-8.583-.888a8.143 8.143 0 0 1-3.558-3.558C6 35.812 6 33.532 6 28.97v-9.94Z"/><path fill="#99F" d="M26.626 13.714 15.166 25.35l-1.452 5.941 5.837-1.49 11.46-11.634-4.385-4.452Zm.456 20.539c-.781-.1-1.224-.786-1.402-1.506-1.565.844-2.918 1.44-5.396 1.44h-5.918a.33.33 0 0 1-.326-.332.33.33 0 0 1 .326-.33h5.918c2.56 0 3.831-.63 5.315-1.457-.088-1.602.893-5.439 3.211-4.353 2.319 1.104-1.666 4.181-2.51 4.7.072.51.338 1.121.896 1.192 1.451.182 2.74-1.208 3.505-2.019.251-.272.91-1.093 1.256-.48.13.248 0 .53-.228 1.026-.2.444-.813 1.49.032 1.49.44 0 1.777-1.01 1.891-1.357.05-.182.228-.265.408-.216.18.05.26.232.212.414-.196.662-1.794 1.82-2.51 1.82-.457 0-.783-.148-.963-.43-.26-.43-.098-1.01.13-1.555-1.01 1.026-2.312 2.147-3.847 1.953Zm-.864-2.599c.406-.265 3.615-2.683 2.283-3.36-1.627-.733-2.255 2.338-2.283 3.36Z"/></svg>