<svg xmlns="http://www.w3.org/2000/svg" width="48" height="48" fill="none"><path fill="url(#a)" d="M31.2 38.4H42L24.72 24c-.237 5.23 2.065 10.347 6.48 14.4Z"/><path fill="url(#b)" d="M9.6 31.2V42L24 24.72a16.42 16.42 0 0 0-.735-.017c-4.972 0-9.803 2.29-13.665 6.497Z"/><path fill="url(#c)" d="M6 9.6 23.28 24c.237-5.23-2.065-10.347-6.48-14.4H6Z"/><path fill="url(#d)" d="M38.4 6 24 23.28c5.23.237 10.347-2.066 14.4-6.48V6Z"/><path fill="url(#e)" d="M24 24c-1.614 4.184-1.37 8.45.72 12.6 2.16 1.08 3.96 1.8 6.48 1.8-4.415-4.053-6.717-9.17-6.48-14.4H24Z"/><path fill="url(#f)" d="M11.4 24.72c-1.08 2.16-1.8 3.96-1.8 6.48 4.053-4.415 9.17-6.717 14.4-6.48V24c-1.82-.702-3.655-1.053-5.49-1.053-2.383 0-4.765.592-7.11 1.773Z"/><path fill="url(#g)" d="M23.28 24H24c1.614-4.184 1.37-8.45-.72-12.6-2.16-1.08-3.96-1.8-6.48-1.8 4.415 4.053 6.717 9.17 6.48 14.4Z"/><path fill="url(#h)" d="M24 23.28V24c4.184 1.614 8.45 1.37 12.6-.72 1.08-2.16 1.8-3.96 1.8-6.48-4.053 4.415-9.17 6.717-14.4 6.48Z"/><path fill="url(#i)" d="m16.08 29.4 8.64 7.2c-2.09-4.15-2.334-8.416-.72-12.6a2.76 2.76 0 0 0-.866-.123c-2.475 0-6.736 2.34-7.054 5.523Z"/><path fill="url(#j)" d="M11.4 24.72c4.15-2.09 8.416-2.334 12.6-.72.72-2.16-1.8-7.56-5.4-7.92l-7.2 8.64Z"/><path fill="url(#k)" d="M24 24c2.16.72 7.56-1.8 7.92-5.4l-8.64-7.2c2.09 4.15 2.334 8.416.72 12.6Z"/><path fill="url(#l)" d="M24 24c-.72 2.16 1.8 7.56 5.4 7.92l7.2-8.64c-4.15 2.09-8.416 2.334-12.6.72Z"/><path fill="#000" d="M24 23.1a.9.9 0 1 1 0 1.8.9.9 0 0 1 0-1.8Z"/><defs><radialGradient id="a" cx="0" cy="0" r="1" gradientTransform="matrix(17.2967 0 0 14.4 21.571 32.998)" gradientUnits="userSpaceOnUse"><stop stop-color="#00C812"/><stop offset="1" stop-color="#006E00"/></radialGradient><radialGradient id="b" cx="0" cy="0" r="1" gradientTransform="matrix(0 14.4001 -17.2966 0 -9.571 8.997)" gradientUnits="userSpaceOnUse"><stop stop-color="#56AFFD"/><stop offset="1" stop-color="#04A3FF"/></radialGradient><radialGradient id="c" cx="0" cy="0" r="1" gradientTransform="matrix(-17.2967 0 0 -14.4 -8.142 3.003)" gradientUnits="userSpaceOnUse"><stop stop-color="#DF1F00"/><stop offset="1" stop-color="#560D00"/></radialGradient><radialGradient id="d" cx="0" cy="0" r="1" gradientTransform="matrix(0 -14.4001 17.2965 0 20.424 -20.716)" gradientUnits="userSpaceOnUse"><stop stop-color="#00FFFD"/><stop offset="1" stop-color="#00DAFF"/></radialGradient><radialGradient id="e" cx="0" cy="0" r="1" gradientTransform="matrix(8.25271 0 0 14.4 22.947 38.4)" gradientUnits="userSpaceOnUse"><stop stop-color="#008200"/><stop offset="1" stop-color="#007500"/></radialGradient><radialGradient id="f" cx="0" cy="0" r="1" gradientTransform="matrix(0 14.4 -8.25271 0 -10.947 9.6)" gradientUnits="userSpaceOnUse"><stop stop-color="#3166D4"/><stop offset="1" stop-color="#1A509E"/></radialGradient><radialGradient id="g" cx="0" cy="0" r="1" gradientTransform="matrix(-8.25271 0 0 -14.4 -12.771 2.4)" gradientUnits="userSpaceOnUse"><stop stop-color="#8E1400"/><stop offset="1" stop-color="#4B0B00"/></radialGradient><radialGradient id="h" cx="0" cy="0" r="1" gradientTransform="matrix(0 -14.3999 8.25277 0 25.053 -26.119)" gradientUnits="userSpaceOnUse"><stop stop-color="#0090C4"/><stop offset="1" stop-color="#005D8C"/></radialGradient><radialGradient id="i" cx="0" cy="0" r="1" gradientTransform="matrix(8.64 0 0 12.7231 16.08 36.6)" gradientUnits="userSpaceOnUse"><stop stop-color="#00CD1C"/><stop offset="1" stop-color="#00E950"/></radialGradient><radialGradient id="j" cx="0" cy="0" r="1" gradientTransform="matrix(0 12.7231 -8.64001 0 -4.08 11.4)" gradientUnits="userSpaceOnUse"><stop stop-color="#B1C8FD"/><stop offset="1" stop-color="#7EC3FD"/></radialGradient><radialGradient id="k" cx="0" cy="0" r="1" gradientTransform="matrix(-8.64 0 0 -12.7231 -19.639 .6)" gradientUnits="userSpaceOnUse"><stop stop-color="#E12A00"/><stop offset="1" stop-color="#B62F00"/></radialGradient><radialGradient id="l" cx="0" cy="0" r="1" gradientTransform="matrix(0 -12.7229 8.64015 0 31.92 -24.319)" gradientUnits="userSpaceOnUse"><stop stop-color="#00B6DD"/><stop offset="1" stop-color="#0FF"/></radialGradient></defs></svg>