<svg xmlns="http://www.w3.org/2000/svg" width="48" height="48" fill="none"><path fill="#221F1F" fill-rule="evenodd" d="M17.803 20.305c-.66.95-.99 2.095-.99 3.435h-.004c0 1.688.48 2.994 1.44 3.915.96.92 2.189 1.38 3.68 1.38.97 0 1.787-.096 2.447-.292 1.046-.292 2.112-1.028 3.2-2.213.078.098.215.286.41.57.192.282.332.468.42.569.087.096.233.252.437.463.204.214.44.439.712.67.33.137.612.117.844-.06.136-.115 1.008-.87 2.62-2.27.156-.116.232-.252.232-.406 0-.136-.058-.292-.174-.466l-.668-.888c-.136-.184-.28-.484-.42-.904a4.078 4.078 0 0 1-.22-1.38v-7.041c0-.076-.008-.324-.028-.74s-.048-.69-.088-.816a20.791 20.791 0 0 1-.176-.68c-.076-.332-.16-.584-.26-.76a5.026 5.026 0 0 0-.394-.597 5.962 5.962 0 0 0-.536-.626c-1.244-1.144-2.97-1.716-5.18-1.716h-.727c-1.724.096-3.234.562-4.524 1.396-1.289.834-2.099 2.115-2.429 3.84a.825.825 0 0 0-.03.205c0 .272.166.446.494.526l3.347.408c.31-.058.504-.282.584-.67.134-.62.434-1.106.9-1.456.466-.352 1.02-.552 1.66-.612h.226c.874 0 1.514.292 1.92.876.27.424.41 1.26.41 2.5v.494c-1.184.096-2.04.172-2.56.232-1.532.194-2.822.514-3.869.96-1.146.486-2.046 1.204-2.706 2.154Zm4.58 4.671c-.377-.46-.565-1.064-.565-1.82l-.002.002c0-1.668.852-2.745 2.56-3.229.58-.153 1.434-.233 2.56-.233v.726c0 .62-.004 1.068-.014 1.34s-.068.626-.174 1.06a4.676 4.676 0 0 1-.48 1.208c-.446.834-1.078 1.356-1.89 1.57-.04 0-.114.01-.22.03a1.574 1.574 0 0 1-.248.026c-.64 0-1.146-.226-1.526-.68Z" clip-rule="evenodd"/><path fill="#F90" d="M34.21 32.291a.998.998 0 0 0-.175.234v.004a.198.198 0 0 0-.028.086c-.02.04-.012.076.028.116.04.04.114.06.234.06a70.86 70.86 0 0 1 1.34-.174c.444-.04.832-.06 1.16-.06.895 0 1.437.118 1.63.348.077.096.117.252.117.466 0 .66-.356 1.832-1.076 3.52-.058.155-.032.26.088.32a.26.26 0 0 0 .116.029c.078 0 .164-.036.264-.116.656-.562 1.17-1.306 1.54-2.227.368-.92.552-1.72.552-2.4v-.204c0-.232-.036-.406-.116-.52-.172-.216-.698-.36-1.572-.44a1.734 1.734 0 0 0-.552-.03 9.585 9.585 0 0 0-2.15.32c-.449.116-.915.34-1.4.668Z"/><path fill="#F90" d="M8.524 32c-.214-.135-.368-.125-.464.03a.3.3 0 0 0-.06.175c0 .096.06.196.178.29a23.589 23.589 0 0 0 7.247 4.467c2.694 1.056 5.555 1.586 8.581 1.586 1.96 0 3.966-.274 6.02-.814 2.057-.544 3.92-1.31 5.585-2.3.545-.329.99-.62 1.34-.873.27-.194.325-.408.16-.64-.165-.234-.393-.29-.685-.174-.07.034-.182.083-.336.15l-.057.024-.42.174c-3.706 1.416-7.46 2.127-11.261 2.127-5.703 0-10.98-1.409-15.828-4.221Z"/></svg>