<svg xmlns="http://www.w3.org/2000/svg" width="48" height="48" fill="none"><path fill="#5FCAF4" fill-rule="evenodd" d="M23.991 6C14.055 6 6 14.06 6 24c0 9.128 6.79 16.667 15.592 17.84v-3.626a2.386 2.386 0 0 0-1.613-2.268c-5.079-1.707-8.712-6.563-8.578-12.25a12.552 12.552 0 0 1 12.72-12.295c6.895.07 12.464 5.684 12.464 12.6 0 .157-.004.314-.01.47l-.004.105c-.006.144-.015.289-.027.433-.003.046-.008.091-.012.137a11.842 11.842 0 0 1-.095.79c-1.542 10.162-14.77 15.873-14.843 15.905a18.22 18.22 0 0 0 2.397.159c9.936 0 17.991-8.059 17.991-18 0-9.94-8.055-18-17.991-18Z" clip-rule="evenodd"/></svg>