<svg xmlns="http://www.w3.org/2000/svg" width="48" height="48" fill="none"><path fill="url(#a)" d="M31.046 4.189c-.624.366-1.67 1.42-2.918 2.94v.095l1.092 2.02.055.04c.803-1.148 1.615-2.185 2.442-3.067.062-.07.093-.101.093-.101-.031.03-.062.07-.093.101-.266.297-1.077 1.233-2.294 3.105l.14.031s2.848-.28 4.221-.515l.078-.07c.437-2.45-.429-3.573-.429-3.573s-1.092-1.763-2.387-1.006Z"/><path fill="url(#b)" d="M25.904 14.861c.352-.647.703-1.287 1.054-1.903.366-.64.74-1.264 1.123-1.865a.497.497 0 0 0 .063-.11c.374-.592.748-1.154 1.13-1.7l-1.146-2.16c-.086.1-.172.21-.258.319-.327.413-.67.85-1.021 1.318a64.9 64.9 0 0 0-2.372 3.394c-.328.507-.663 1.022-.991 1.56-.016.024-.023.04-.039.063v.086l1.428 2.832.062.023c.32-.624.64-1.248.967-1.857Z"/><path fill="url(#c)" d="M19.687 28.725c.257-.671.53-1.35.803-2.037.265-.655.53-1.318.812-1.981.273-.663.561-1.326.85-1.997.296-.68.593-1.358.897-2.029.304-.663.609-1.326.92-1.981.11-.235.227-.476.344-.71.195-.406.398-.812.593-1.21.008-.023.023-.039.031-.062l-1.49-2.941-.07.117c-.343.57-.695 1.147-1.03 1.74a68.481 68.481 0 0 0-1.818 3.401c-.054.11-.101.21-.156.32a38.93 38.93 0 0 0-.881 1.935 44.478 44.478 0 0 0-.796 2.012c-.156.422-.289.82-.422 1.21-.1.327-.202.663-.296.99-.226.78-.413 1.553-.57 2.333l.024.094 1.428 2.84.047.023c.195-.53.397-1.061.608-1.607.055-.156.117-.304.172-.46Z"/><path fill="url(#d)" d="M17.393 27.937c-.187.944-.32 1.888-.39 2.824 0 .031-.008.062-.008.101-.468-.749-1.716-1.474-1.716-1.474.897 1.295 1.576 2.582 1.677 3.846-.476.101-1.131-.047-1.896-.32.788.726 1.381.928 1.615.983-.725.047-1.482.546-2.247 1.116 1.116-.453 2.013-.632 2.66-.492-1.021 2.895-2.043 6.093-3.073 9.479.312-.094.5-.304.608-.593.18-.616 1.397-4.642 3.293-9.94l.163-.452c.016-.039.032-.085.047-.124.203-.554.406-1.124.624-1.701.047-.133.102-.265.149-.398v-.008l-1.49-2.949c0 .04-.008.07-.016.102Z"/><path fill="url(#e)" d="M29.423 9.33c-.336.515-.702 1.1-1.1 1.763-.024.031-.04.07-.063.101a78.73 78.73 0 0 0-2.114 3.823 73.658 73.658 0 0 0-.96 1.912l.07.03 3.629-.39.085-.062c1.1-.507 1.592-.967 2.068-1.63.125-.18.257-.375.382-.57.39-.608.772-1.271 1.108-1.934.328-.64.616-1.28.843-1.85a8.223 8.223 0 0 0 .5-1.748c-1.468.259-3.27.5-4.448.555Z"/><path fill="url(#f)" d="M25.046 17.233a72.12 72.12 0 0 1-.39.811c-.14.297-.288.609-.429.92-.07.157-.148.32-.218.477-.227.483-.445.983-.68 1.498a134.634 134.634 0 0 0-1.7 4.002c-.273.663-.546 1.35-.819 2.052-.25.632-.5 1.271-.749 1.942-.015.031-.023.063-.039.094-.25.663-.493 1.338-.75 2.032-.008.015-.022.056-.03.072l.054.012 1.085-.117.061-.025c-.023-.008-.038-.04-.061-.047 1.435-.18 3.347-1.256 4.587-2.582.57-.609 1.085-1.335 1.568-2.177a18.61 18.61 0 0 0 1.007-2.099c.28-.67.546-1.404.803-2.192a4.32 4.32 0 0 1-1.123.39c-.07.016-.148.031-.226.047-.078.015-.156.023-.227.039 1.342-.515 2.185-1.514 2.801-2.73a4.834 4.834 0 0 1-1.615.71 3.156 3.156 0 0 1-.288.054c-.024 0-.047.008-.07.008a5.48 5.48 0 0 0 1.2-.671c.071-.055.141-.11.211-.172.102-.093.203-.187.297-.28.062-.063.117-.125.18-.196.132-.156.257-.327.374-.515.039-.054.07-.117.109-.171a3.89 3.89 0 0 0 .125-.258 12.664 12.664 0 0 0 .608-1.42c.016-.046.032-.101.055-.148a6.2 6.2 0 0 0 .117-.382c.047-.164.07-.297.086-.39a1.55 1.55 0 0 1-.156.11c-.406.24-1.1.46-1.662.56l1.108-.124-1.108.125c-.078.015-.133.023-.195.039.005-.005-1.246.127-3.754.397a2.904 2.904 0 0 0-.147.305Z"/><path fill="url(#g)" d="M19.125 31.424c-.195.538-.398 1.092-.593 1.654 0 .008-.008.015-.008.023-.031.078-.054.156-.086.242-.132.382-.25.718-.514 1.498.436.203.787.725 1.123 1.326a2.351 2.351 0 0 0-.78-1.646c2.16.094 4.025-.452 4.985-2.028.086-.14.164-.289.234-.445-.437.554-.983.788-1.997.733h-.008.008c1.505-.67 2.254-1.318 2.925-2.387.156-.257.312-.53.468-.835-1.318 1.35-2.84 1.732-4.439 1.444l-1.201.132c-.04.086-.078.188-.117.289Z"/><defs><linearGradient id="a" x1="29.086" x2="37.361" y1="7.421" y2="4.667" gradientUnits="userSpaceOnUse"><stop stop-color="#F69923"/><stop offset=".312" stop-color="#F79A23"/><stop offset=".838" stop-color="#E97826"/></linearGradient><linearGradient id="b" x1="10.763" x2="39.026" y1="44.994" y2="22.639" gradientUnits="userSpaceOnUse"><stop offset=".323" stop-color="#9E2064"/><stop offset=".63" stop-color="#C92037"/><stop offset=".751" stop-color="#CD2335"/><stop offset="1" stop-color="#E97826"/></linearGradient><linearGradient id="c" x1="11.383" x2="38.906" y1="42.774" y2="31.218" gradientUnits="userSpaceOnUse"><stop offset=".323" stop-color="#9E2064"/><stop offset=".63" stop-color="#C92037"/><stop offset=".751" stop-color="#CD2335"/><stop offset="1" stop-color="#E97826"/></linearGradient><linearGradient id="d" x1="13.12" x2="25.363" y1="40.34" y2="37.944" gradientUnits="userSpaceOnUse"><stop stop-color="#282662"/><stop offset=".095" stop-color="#662E8D"/><stop offset=".788" stop-color="#9F2064"/><stop offset=".949" stop-color="#CD2032"/></linearGradient><linearGradient id="e" x1="13.918" x2="29.332" y1="46.726" y2="9.51" gradientUnits="userSpaceOnUse"><stop offset=".323" stop-color="#9E2064"/><stop offset=".63" stop-color="#C92037"/><stop offset=".751" stop-color="#CD2335"/><stop offset="1" stop-color="#E97826"/></linearGradient><linearGradient id="f" x1="15.155" x2="39.608" y1="44.585" y2="13.89" gradientUnits="userSpaceOnUse"><stop offset=".323" stop-color="#9E2064"/><stop offset=".63" stop-color="#C92037"/><stop offset=".751" stop-color="#CD2335"/><stop offset="1" stop-color="#E97826"/></linearGradient><linearGradient id="g" x1="16.489" x2="25.792" y1="42.284" y2="20.156" gradientUnits="userSpaceOnUse"><stop stop-color="#282662"/><stop offset=".095" stop-color="#662E8D"/><stop offset=".788" stop-color="#9F2064"/><stop offset=".949" stop-color="#CD2032"/></linearGradient></defs></svg>