<svg xmlns="http://www.w3.org/2000/svg" width="48" height="48" fill="none"><path fill="url(#a)" fill-rule="evenodd" d="M41.292 37.2c-.348.888-1.152 2.136-2.304 3.024-.66.504-1.452.996-2.532 1.32-1.152.348-2.58.456-4.356.456H15.9c-1.776 0-3.192-.12-4.356-.456a7.486 7.486 0 0 1-2.532-1.32c-1.14-.876-1.956-2.136-2.304-3.024C6.012 35.412 6 33.384 6 32.1V15.9c0-1.284.012-3.312.708-5.1.348-.888 1.152-2.136 2.304-3.024.66-.504 1.452-.996 2.532-1.32C12.708 6.12 14.124 6 15.9 6h16.2c1.776 0 3.192.12 4.356.456a7.486 7.486 0 0 1 2.532 1.32c1.14.876 1.956 2.136 2.304 3.024.708 1.788.708 3.828.708 5.1v16.2c0 1.284-.012 3.312-.708 5.1Z" clip-rule="evenodd"/><path fill="#fff" d="M23.964 9.984c-6.888.024-12.528 5.616-12.624 12.504-.072 5.58 3.492 10.356 8.472 12.108.12.048.24-.06.228-.18l-.063-.432c-.042-.288-.085-.576-.117-.864a.476.476 0 0 0-.252-.348c-3.936-1.716-6.684-5.664-6.636-10.236.06-6 4.956-10.884 10.944-10.932 6.132-.048 11.136 4.92 11.136 11.04 0 4.524-2.736 8.412-6.636 10.128a.408.408 0 0 0-.252.348l-.18 1.296c-.024.132.108.228.228.18 4.932-1.728 8.472-6.432 8.472-11.952-.024-6.984-5.724-12.672-12.72-12.66Z"/><path fill="#fff" d="M24 24.564a2.95 2.95 0 0 0 2.952-2.952c0-1.62-1.32-2.952-2.952-2.952a2.95 2.95 0 0 0-2.952 2.952A2.95 2.95 0 0 0 24 24.564Zm2.604 2.136c.288.288.432.6.48 1.032.096.84.048 1.56-.06 2.724a67.681 67.681 0 0 1-.504 4.068c-.168 1.068-.3 1.644-.42 2.052-.192.66-.936 1.248-2.1 1.248-1.164 0-1.896-.576-2.1-1.248-.12-.408-.252-.984-.42-2.052a66.511 66.511 0 0 1-.504-4.068l-.001-.013c-.095-1.156-.155-1.874-.059-2.711.048-.432.204-.732.48-1.032.54-.576 1.488-.936 2.604-.936s2.064.372 2.604.936Z"/><path fill="#fff" d="M15.528 22.548c.06-4.488 3.66-8.196 8.148-8.364 4.824-.192 8.82 3.684 8.808 8.46a8.492 8.492 0 0 1-3.708 7.008c-.12.084-.276-.012-.264-.144.024-.516.036-.972.012-1.44 0-.156.06-.3.168-.408a6.877 6.877 0 0 0 2.172-5.004c0-3.864-3.216-7.008-7.128-6.852-3.6.144-6.492 3.072-6.588 6.672a6.862 6.862 0 0 0 2.172 5.184c.12.108.18.252.168.408-.024.48-.024.936.012 1.452 0 .132-.156.216-.264.144a8.475 8.475 0 0 1-3.708-7.116Z"/><defs><linearGradient id="a" x1="24" x2="24" y1="6" y2="42" gradientUnits="userSpaceOnUse"><stop stop-color="#F452FF"/><stop offset="1" stop-color="#832BC1"/></linearGradient></defs></svg>