<svg xmlns="http://www.w3.org/2000/svg" width="48" height="48" fill="none"><rect width="28" height="28" x="2" y="2" fill="#784589" rx="14"/><path fill="#fff" d="M20.224 27.407c-.359 0-.711-.034-1.056-.104a4.624 4.624 0 0 1-.966-.304 3.03 3.03 0 0 1-.837-.553 1.918 1.918 0 0 1-.488-.732 1.01 1.01 0 0 1 .005-.692.801.801 0 0 1 .443-.463c.212-.093.4-.138.563-.135a.75.75 0 0 1 .408.115c.11.073.204.152.284.239.093.106.19.2.289.279.412.332.87.498 1.375.498a2.49 2.49 0 0 0 .742-.09c.235-.066.36-.212.373-.438a.466.466 0 0 0-.214-.419c-.143-.093-.357-.182-.642-.268l-.957-.33c-1.188-.404-1.912-.848-2.171-1.329-.26-.481-.362-.915-.31-1.3v-.01c.027-.617.35-1.142.967-1.573.618-.432 1.372-.658 2.261-.678.71 0 1.325.113 1.843.339.518.226.907.548 1.166.966.172.272.232.515.179.727a.618.618 0 0 1-.164.279c-.077.073-.151.13-.224.17-.293.145-.532.219-.718.219a.787.787 0 0 1-.388-.1 4.126 4.126 0 0 1-.389-.25l-.08-.059c-.338-.246-.68-.369-1.025-.369-.3 0-.533.047-.703.14-.169.093-.254.218-.254.373a.42.42 0 0 0 .204.37c.137.089.318.167.543.233l1.285.409c.884.272 1.515.683 1.893 1.235.16.239.262.46.309.662.046.203.066.36.06.473 0 .385-.097.736-.29 1.051a2.46 2.46 0 0 1-.846.812c-.332.192-.71.342-1.136.448-.425.106-.87.16-1.334.16Zm9.712 1.006c-.007-.179.03-.313.11-.403a.554.554 0 0 1 .259-.174c.159-.06.3-.143.423-.25.123-.105.217-.232.284-.378a2.98 2.98 0 0 0 .16-.587 2.04 2.04 0 0 0 .04-.27.653.653 0 0 0 .019-.159l.03-.16.06-.457.03-.16c0-.053.006-.106.02-.159l.03-.2c0-.04.006-.079.02-.119l.01-.1.109-.776.03-.26.07-.457c.013-.02.013-.03 0-.03.006-.007-.004-.01-.03-.01h-.31a.244.244 0 0 1-.238-.15.294.294 0 0 1-.02-.11c.013-.139.033-.278.06-.418.02-.08.063-.14.129-.179a.488.488 0 0 1 .21-.07h.328a.349.349 0 0 0 .02-.11c.013-.092.03-.179.05-.258a1.8 1.8 0 0 1 .249-.628 1.47 1.47 0 0 1 .587-.538l.18-.08a.646.646 0 0 1 .199-.07c.093-.026.212-.049.358-.069.16-.02.31-.03.449-.03h.09c.119.007.235.02.348.04a.25.25 0 0 1 .16.09.28.28 0 0 1 .064.204 1.561 1.561 0 0 1-.035.264c-.006.06-.016.12-.03.18l-.01.05a.187.187 0 0 1-.07.119.198.198 0 0 1-.129.05h-.338c-.047-.007-.1-.01-.16-.01h-.1a.728.728 0 0 0-.268.08.604.604 0 0 0-.29.298 1.303 1.303 0 0 0-.109.418h1.624v.01h.01v-.01h.01c.086.007.158.04.214.1a.32.32 0 0 1 .085.229.502.502 0 0 0-.01.1v.02c.013-.014.023-.02.03-.02l.11-.1c.066-.053.139-.106.218-.16.08-.052.166-.096.26-.129.126-.046.248-.076.368-.09.12-.013.222-.02.309-.02a.98.98 0 0 1 .209.01.973.973 0 0 1 .398.12.93.93 0 0 1 .379.389l.04.1.06-.06a.275.275 0 0 1 .08-.07c.311-.273.614-.432.906-.479.08-.013.166-.02.259-.02s.192.007.299.02c.159.02.305.064.438.13.146.08.257.196.334.349.076.152.12.325.134.518a2.58 2.58 0 0 1-.03.508v.03l-.04.348-.03.17-.02.149a1.296 1.296 0 0 0-.04.329l-.04.219-.02.16-.02.099-.009.11-.06.418-.04.338-.04.22-.07.557-.01.02a.878.878 0 0 1-.049.23.298.298 0 0 1-.2.178.74.74 0 0 1-.178.02h-.528c-.12 0-.203-.05-.25-.149a.382.382 0 0 1-.03-.12l.03-.229.02-.09v-.03a.473.473 0 0 0 .02-.129c.014-.06.02-.12.02-.179.02-.1.033-.196.04-.289.02-.12.037-.239.05-.358l.03-.18.07-.528.02-.12c.006-.099.02-.192.04-.278a.78.78 0 0 0 .02-.17 2.04 2.04 0 0 0 .04-.268l.009-.02c.02-.173.036-.349.05-.528a.417.417 0 0 0-.06-.289.295.295 0 0 0-.2-.14.654.654 0 0 0-.378.02l-.06.03c-.146.06-.288.163-.428.31a.114.114 0 0 1-.04.039.219.219 0 0 0-.04.09l-.05.458-.099.667a1.396 1.396 0 0 1-.04.329l-.03.22-.02.109a.58.58 0 0 1-.02.159l-.02.15c-.02.132-.036.258-.05.378l-.03.229c-.006.08-.019.163-.039.249a.465.465 0 0 1-.01.09c-.007.086-.02.176-.04.269-.046.192-.162.292-.348.298h-.578c-.146 0-.236-.063-.27-.189a.413.413 0 0 1-.01-.16v-.02a.35.35 0 0 0 .02-.119l.02-.08.06-.468c.014-.112.03-.225.05-.338l.02-.18.08-.517.07-.538.07-.429a.58.58 0 0 1 .02-.159c.033-.192.043-.382.03-.568-.007-.152-.067-.252-.18-.299a.526.526 0 0 0-.22-.05l-.089.01a.932.932 0 0 0-.398.165 2.12 2.12 0 0 0-.3.264.151.151 0 0 0-.039.08l-.01.13a.654.654 0 0 0-.02.158l-.06.34v.039l-.02.11-.02.179c-.006.093-.02.186-.04.279a6.16 6.16 0 0 1-.05.358l-.02.17-.168 1.185a3.88 3.88 0 0 1-.06.369.342.342 0 0 1-.085.169.294.294 0 0 1-.154.09.441.441 0 0 1-.14.02h-.568c-.126 0-.205-.057-.239-.17a.648.648 0 0 1-.01-.2c0-.046.007-.089.02-.129l.01-.07c.027-.179.05-.351.07-.517a.653.653 0 0 0 .02-.16l.03-.179a.7.7 0 0 1 .02-.17.617.617 0 0 0 .02-.149l.03-.169c0-.046.006-.1.02-.16l.129-.956.04-.249.03-.229a.696.696 0 0 0 .02-.17.58.58 0 0 0 .02-.159l.05-.278h-.827c-.02 0-.034.013-.04.04l-.04.248-.01.1a.112.112 0 0 0-.01.05l-.02.1c0 .06-.007.116-.02.169-.007.093-.02.19-.04.289l-.06.448-.03.17a.7.7 0 0 1-.02.169.696.696 0 0 0-.02.169l-.03.16-.089.627-.08.627c-.172.976-.444 1.59-.816 1.838-.372.25-.684.37-.937.364a.739.739 0 0 1-.398-.05.46.46 0 0 1-.299-.409ZM15.223 19.21c-.571.026-.918.177-1.041.453-.123.276-.171.523-.144.742v.17l-.06-.16c0-.007-.033-.06-.1-.16a1.828 1.828 0 0 0-.338-.348c-.147-.126-.366-.242-.658-.349-.292-.106-.667-.162-1.126-.169-1.009.027-1.84.405-2.495 1.136-.654.73-.991 1.66-1.011 2.789.02 1.168.34 2.123.961 2.863.621.74 1.423 1.124 2.406 1.15h.13a3.35 3.35 0 0 0 1.404-.368 2.12 2.12 0 0 0 .827-.757l.06-.11v.21c-.014.252.053.496.199.732.146.236.475.36.986.373.505 0 .847-.182 1.026-.547a1.34 1.34 0 0 0 .13-.454c.013-.149.02-.267.02-.353v-5.19a2.678 2.678 0 0 0-.145-1.075c-.123-.36-.467-.552-1.031-.578Zm-3.068 5.976c-.458-.006-.812-.17-1.061-.488-.25-.319-.374-.737-.374-1.255 0-.604.125-1.046.374-1.325.249-.279.603-.415 1.06-.408.413-.007.738.124.977.393.24.27.362.716.369 1.34-.007.525-.13.945-.369 1.26-.239.316-.564.477-.976.483Zm13.308 2.221c-.544-.026-.881-.202-1.01-.527a2.357 2.357 0 0 1-.175-.977v-5.239a2.481 2.481 0 0 1 .174-1.001c.13-.335.467-.516 1.011-.543.412 0 .714.1.907.299.14.153.222.324.249.513.026.19.036.36.03.513a.675.675 0 0 0-.01.11v1.035l1.484-1.683c.1-.113.193-.206.279-.279.272-.239.531-.358.777-.358.2 0 .402.07.608.209.086.06.159.12.219.179.239.272.338.536.299.792-.04.256-.15.47-.33.642l-1.623 1.744 2.012 2.898c.166.232.233.483.2.752a1.06 1.06 0 0 1-.389.692c-.192.153-.418.23-.677.23h-.04a1.077 1.077 0 0 1-.503-.145 1.21 1.21 0 0 1-.394-.364l-1.922-2.828v1.813c.02.385-.04.73-.18 1.035-.139.306-.471.469-.996.488Z"/></svg>