<svg xmlns="http://www.w3.org/2000/svg" width="48" height="48" fill="none"><path fill="#00BEF2" d="M23.98 6c.04 0 .077.048.134.134.048.076 4.065 4.894 8.93 10.704 4.866 5.81 8.835 10.59 8.816 10.619-.01.028-3.883 3.206-8.606 7.05a5591.06 5591.06 0 0 0-8.92 7.27c-.315.258-.334.267-.448.153-.067-.067-4.093-3.358-8.95-7.318-4.856-3.959-8.815-7.222-8.796-7.27.019-.047 4.007-4.808 8.882-10.59 4.876-5.781 8.864-10.561 8.883-10.638.019-.076.047-.114.076-.114Z"/><path fill="#fff" d="M23.323 36.272c-.554-.2-1.222-.772-1.498-1.307-.344-.658-.315-1.688.067-2.509.295-.61.295-.63.104-.773-.104-.076-1.373-.782-2.804-1.555a879.97 879.97 0 0 1-2.767-1.498c-.115-.066-.306 0-.65.22-1.115.706-2.28.63-3.195-.22-.659-.61-.85-1.04-.85-1.917 0-.85.172-1.288.716-1.832.735-.735 1.718-.983 2.662-.668.515.172.525.172.85-.076.38-.287 3.443-3.082 4.922-4.484l1.021-.973-.305-.64c-.62-1.288-.306-2.719.782-3.577.592-.468 1.03-.611 1.88-.611 1.984 0 3.367 2.08 2.623 3.94-.2.515-.2.525-.01.84.163.276 2.92 3.606 4.38 5.304.257.296.544.535.64.535.095 0 .419-.096.724-.21 1.422-.563 2.92.067 3.511 1.479.382.906.048 2.127-.763 2.862-.573.515-.992.677-1.756.677-.534 0-.734-.057-1.297-.362-.42-.23-.744-.344-.878-.306-.229.058-3.75 2.471-4.532 3.101-.477.391-.515.534-.267 1.116.239.573.21 1.47-.057 2.032-.296.62-1.03 1.24-1.67 1.431-.648.182-1.04.182-1.583-.019Zm.162-10.513V20.32l-.305-.42c-.172-.228-.334-.42-.363-.42-.124 0-6.287 5.601-6.287 5.716 0 .028.095.315.21.62.114.315.2.763.19 1.02-.01.258-.01.545-.01.64.01.22 2.071 1.536 5.162 3.32.85.496 1.145.62 1.25.534.124-.105.153-1.164.153-5.571Zm2.614 4.808c4.083-2.566 4.846-3.082 4.894-3.272.029-.115.067-.563.077-1.012l.028-.801-2.08-2.471c-2.232-2.643-3.053-3.54-3.244-3.54-.066 0-.4.191-.744.42l-.63.42.03 5.428c.028 4.866.066 5.687.247 5.687.02.01.668-.382 1.422-.859Z"/></svg>