<svg xmlns="http://www.w3.org/2000/svg" width="48" height="48" fill="none"><path fill="#1769FF" d="M38.393 14.226v2.191h-8.958v-2.19h8.958Zm-6.96 16.782c.66.63 1.606.945 2.822.945.885 0 1.65-.21 2.295-.66.646-.435 1.02-.915 1.17-1.41h3.887c-.6 1.92-1.575 3.3-2.85 4.126-1.276.84-2.822 1.246-4.622 1.246-1.246 0-2.371-.196-3.406-.6a7.464 7.464 0 0 1-2.581-1.711c-.69-.735-1.23-1.62-1.621-2.656-.375-1.035-.555-2.176-.555-3.406 0-1.216.195-2.311.6-3.346a8.321 8.321 0 0 1 1.68-2.686 8.37 8.37 0 0 1 2.611-1.8c1.006-.451 2.101-.646 3.332-.646 1.365 0 2.535.24 3.57.78a7.203 7.203 0 0 1 2.492 2.1c.66.886 1.125 1.892 1.41 3.032.285 1.125.375 2.31.315 3.571H30.443c0 1.26.42 2.46 1.066 3.106l-.075.015Zm5.038-8.42c-.525-.57-1.41-.885-2.49-.885-.691 0-1.276.105-1.742.36a3.124 3.124 0 0 0-1.11.886c-.285.36-.48.72-.6 1.125-.105.39-.18.75-.195 1.066h7.142c-.105-1.126-.495-1.951-1.005-2.536v-.015Zm-20.057-9.843c1.05 0 2.01.09 2.88.286.87.195 1.606.495 2.221.915.616.42 1.11.975 1.44 1.68.346.706.511 1.576.511 2.596 0 1.11-.255 2.041-.75 2.791-.51.75-1.26 1.35-2.266 1.83 1.365.391 2.37 1.081 3.046 2.057.66.99.99 2.175.99 3.54 0 1.126-.195 2.086-.615 2.897a5.552 5.552 0 0 1-1.74 2.025c-.72.526-1.576.9-2.506 1.156-.916.24-1.876.375-2.866.375H6V12.76h10.414v-.015Zm-.63 8.926c.855 0 1.575-.196 2.145-.616.555-.405.825-1.08.825-2.01 0-.51-.105-.946-.27-1.276a2.159 2.159 0 0 0-.75-.765 3.419 3.419 0 0 0-1.08-.39 7.032 7.032 0 0 0-1.26-.105h-4.547v5.162h4.936Zm-4.922 3.343v6.077h5.191v-.015c.48 0 .93-.045 1.366-.15.435-.09.81-.24 1.14-.45.315-.196.585-.48.78-.87.196-.36.286-.856.286-1.441 0-1.126-.33-1.936-.96-2.431-.646-.48-1.486-.72-2.537-.72h-5.266Z"/></svg>