<svg xmlns="http://www.w3.org/2000/svg" width="48" height="48" fill="none"><path fill="#1D1D1D" d="M45 24c0 11.592-9.398 21-21 21S3 35.592 3 24C3 12.398 12.398 3 24 3s21 9.398 21 21Z"/><path fill="#fff" d="m13.432 12-1.466 6h5.041c1.346 0 2.518-.937 2.845-2.272.462-1.894-.937-3.728-2.845-3.728h-3.575Zm-1.466 9L10.5 27h5.041c1.346 0 2.518-.937 2.845-2.272.462-1.894-.937-3.728-2.845-3.728h-3.575Zm8.797 6 1.466-6h3.575c1.907 0 3.307 1.834 2.844 3.728C28.322 26.063 27.15 27 25.804 27h-5.041Zm0 3-1.466 6h5.04c1.346 0 2.519-.937 2.845-2.272.463-1.894-.937-3.728-2.844-3.728h-3.575ZM34.6 33h-5.04l1.465-6H34.6c1.908 0 3.308 1.834 2.845 3.728C37.119 32.063 35.945 33 34.6 33Zm-2.109-15-1.466 6h5.041c1.346 0 2.519-.937 2.845-2.272.463-1.894-.937-3.728-2.845-3.728h-3.575Zm-10.262 0 1.466-6h3.575c1.907 0 3.307 1.834 2.845 3.728-.327 1.335-1.5 2.272-2.845 2.272h-5.041Z"/></svg>