<svg xmlns="http://www.w3.org/2000/svg" width="48" height="48" fill="none"><path fill="#543729" d="M41.312 23.634c-1.852-1.779-11.11-2.89-14.032-3.213a8.58 8.58 0 0 0 .361-1.036c.399-.174.829-.337 1.273-.472.054.16.31.772.455 1.063 5.874.162 6.176-4.366 6.415-5.607.234-1.213.222-2.384 2.237-4.527-3.002-.875-7.32 1.356-8.765 4.676a9.014 9.014 0 0 0-1.627-.447c-.386-1.557-2.396-5.895-7.671-5.895C13.279 8.176 6 13.686 6 23.013c0 7.84 5.353 14.71 8.377 14.71 1.32 0 2.457-.988 2.724-1.875.223.608.91 2.498 1.135 2.979.333.711 1.873 1.327 2.547.589.867.48 2.457.77 3.324-.513 1.669.353 3.144-.642 3.177-1.83.819-.044 1.22-1.194 1.042-2.11-.132-.674-1.54-3.093-2.09-3.928 1.087.884 3.842 1.134 4.177 0 1.753 1.376 4.485.654 4.702-.465 2.13.553 4.574-.662 4.173-2.135 3.422-.237 2.984-3.878 2.024-4.8Z"/><path fill="#00ACEE" d="M31.782 15.868c.737-1.463 1.664-3.06 2.834-4.048-1.288.52-2.56 2.07-3.311 3.729-.383-.243-.772-.46-1.165-.65 1.049-2.239 3.486-4.108 6.171-4.254-1.799 1.63-1.16 5.021-2.639 6.816a19.368 19.368 0 0 0-1.89-1.593ZM30.62 18.25c0-.056.021-.488.06-.685-.102-.024-.744-.15-1.078-.142-.024.42.177 1.134.375 1.564 1.366-.029 2.353-.438 2.934-.814-.494-.23-1.338-.436-1.98-.558-.072.148-.248.525-.311.635Z"/><path fill="#2BAF2B" d="M25.543 29.82v.007a19.495 19.495 0 0 1-.576-1.417c.855 1.245 3.536.603 3.395-.513 1.312.988 4.013-.164 3.399-1.548 1.314.612 2.814-.62 2.478-1.157 2.24.432 4.387.863 5.061 1.035-.447.73-1.467 1.246-3.004.888.83 1.131-.782 2.489-3.029 1.741.495 1.111-1.505 2.111-3.778.953.029 1.112-2.82 1.24-3.947.012Zm4.444-5.616c2.6.2 6.901.587 9.563.96-.168-.867-.627-1.114-2.072-1.503-1.555.166-5.498.554-7.49.543Z"/><path fill="#FFCC2F" d="M28.362 27.897c1.312.988 4.013-.164 3.399-1.548 1.314.612 2.814-.62 2.478-1.157-2.65-.51-5.429-1.023-6.06-1.113a86.3 86.3 0 0 1 1.808.125c1.993.01 5.936-.377 7.49-.543-2.516-.638-7.655-1.569-11.204-1.798a5.05 5.05 0 0 1-.993 1.08c-1.553 3.286-4.366 5.47-7.478 5.47-.907 0-1.922-.154-3.06-.517-.709.76-3.734 1.336-6.188.131 1.947 4.558 6.461 7.6 11.458 7.6 4.209 0 6.075-4.297 5.666-5.434-.099-.276-.491-1.191-.711-1.783.855 1.245 3.536.603 3.395-.513Z"/><path fill="#CECECE" d="M25.812 19.248c.371-.202 1.655-.98 2.88-1.273a5.414 5.414 0 0 1-.044-.41c-.803.193-2.316.842-3.183-.052 1.83.552 2.743-.492 4.088-.492.801 0 1.945.224 2.846.578-.725-.67-3.102-2.691-6.046-2.699-.657.797-1.368 2.523-.541 4.348Z"/><path fill="#EF5734" d="M14.742 27.896c1.138.363 2.153.517 3.06.517 3.112 0 5.925-2.184 7.478-5.47-1.148.96-3.144 1.78-6.26 1.78 2.775-.63 5.165-2.013 6.381-4.036-.854-1.36-1.781-4.37.566-6.748-.361-1.16-2.119-4.222-6.01-4.222-6.79 0-12.416 5.681-12.416 13.296 0 1.802.364 3.492 1.014 5.014 2.454 1.205 5.478.629 6.187-.131Z"/><path fill="#FFCC2F" d="M16.78 16.302a3.136 3.136 0 1 0 6.272 0 3.136 3.136 0 0 0-6.273 0Z"/><path fill="#543729" d="M18.038 16.302a1.878 1.878 0 1 0 3.755 0 1.878 1.878 0 0 0-3.755 0Z"/><path fill="#fff" d="M19.916 16.15c.604 0 1.094-.305 1.094-.68 0-.377-.49-.681-1.095-.681-.604 0-1.094.305-1.094.68 0 .376.49.68 1.095.68Z"/></svg>