<svg xmlns="http://www.w3.org/2000/svg" width="48" height="48" fill="none"><path fill="url(#a)" d="m39.59 13.641.888-2.325s-1.162-1.299-2.598-2.735-4.444-.615-4.444-.615L30.017 4H17.983l-3.419 3.966s-3.008-.82-4.444.615a76.32 76.32 0 0 0-2.599 2.735l1.026 2.325-1.162 3.419s3.418 13.265 3.829 14.906c.82 3.213 1.367 4.444 3.555 6.017a419.788 419.788 0 0 0 6.975 4.855C22.427 43.248 23.248 44 24 44c.752 0 1.573-.752 2.256-1.162.684-.41 4.787-3.214 6.975-4.855 2.188-1.641 2.803-2.872 3.555-6.017.41-1.641 3.83-14.906 3.83-14.906l-1.026-3.42Z"/><path fill="#fff" d="M24.068 28.889c.205 0 1.71.547 2.872 1.162 1.162.616 2.051 1.026 2.325 1.231.273.205.137.479-.137.684-.273.205-3.555 2.803-3.897 3.077-.342.273-.82.752-1.094.752-.274 0-.82-.479-1.094-.752-.342-.274-3.624-2.94-3.898-3.077-.273-.205-.41-.479-.136-.684.273-.205 1.093-.615 2.324-1.23 1.026-.684 2.53-1.163 2.735-1.163Zm0-18.735c.137 0 .752.068 1.641.342 1.026.342 2.052.752 2.599.752.547 0 4.239-.752 4.239-.752s4.376 5.401 4.376 6.564c0 1.162-.547 1.436-1.094 2.051-.547.616-3.008 3.214-3.282 3.556-.342.341-.957.82-.547 1.777.41.89.957 2.12.342 3.283-.616 1.162-1.71 1.982-2.393 1.846-.684-.137-2.325-1.026-2.872-1.368-.616-.41-2.462-1.983-2.462-2.598 0-.616 1.915-1.71 2.325-1.915.342-.273 1.983-1.23 2.051-1.572 0-.342 0-.479-.478-1.436-.479-.957-1.368-2.188-1.231-3.009.137-.82 1.573-1.23 2.53-1.64 1.026-.411 2.94-1.095 3.145-1.232.274-.136.205-.205-.547-.273-.752-.069-2.803-.342-3.76-.069-.958.274-2.53.684-2.667.89-.137.204-.274.273-.137 1.025.137.752.82 4.308.889 4.923.068.616.205 1.026-.479 1.23-.683.138-1.777.411-2.188.411-.41 0-1.504-.273-2.188-.41-.683-.137-.547-.547-.478-1.23.068-.616.752-4.172.889-4.924.136-.752 0-.752-.137-.957-.137-.205-1.71-.616-2.667-.89-.957-.273-3.008 0-3.76.07-.753.068-.821.204-.548.273.274.136 2.188.82 3.146 1.23 1.025.41 2.393.821 2.53 1.642.136.82-.753 2.05-1.231 3.008-.479.957-.479 1.026-.479 1.436 0 .342 1.641 1.3 2.052 1.573.341.273 2.324 1.367 2.324 1.914 0 .616-1.914 2.188-2.461 2.598-.616.41-2.188 1.231-2.872 1.368-.684.137-1.778-.684-2.393-1.846-.616-1.163-.069-2.393.342-3.282.41-.89-.274-1.436-.547-1.778-.342-.342-2.735-2.94-3.282-3.555-.547-.616-1.094-.89-1.094-2.052s4.376-6.564 4.376-6.564 3.692.752 4.239.752c.547 0 1.573-.41 2.598-.752.89-.41 1.505-.41 1.641-.41Z"/><path fill="url(#b)" d="m33.504 8.034-3.419-3.966H18.051l-3.419 3.966s-3.008-.82-4.444.616c0 0 4.034-.342 5.402 1.914 0 0 3.692.752 4.239.752.547 0 1.573-.41 2.598-.752 1.026-.342 1.641-.342 1.641-.342s.684 0 1.641.342c1.026.342 2.052.752 2.599.752.547 0 4.239-.752 4.239-.752 1.367-2.256 5.402-1.914 5.402-1.914-1.436-1.505-4.445-.616-4.445-.616Z"/><defs><linearGradient id="a" x1="7.372" x2="40.739" y1="23.998" y2="23.998" gradientUnits="userSpaceOnUse"><stop stop-color="#F50"/><stop offset=".41" stop-color="#F50"/><stop offset=".582" stop-color="#FF2000"/><stop offset="1" stop-color="#FF2000"/></linearGradient><linearGradient id="b" x1="10.832" x2="37.93" y1="7.653" y2="7.653" gradientUnits="userSpaceOnUse"><stop stop-color="#FF452A"/><stop offset="1" stop-color="#FF2000"/></linearGradient></defs></svg>