<svg xmlns="http://www.w3.org/2000/svg" width="48" height="48" fill="none"><path fill="#5C8DBC" d="M40.014 16.584c0-.605-.13-1.14-.392-1.6-.257-.45-.642-.829-1.159-1.128-4.264-2.459-8.532-4.91-12.795-7.371-1.15-.664-2.263-.64-3.404.033-1.697 1.001-10.195 5.87-12.727 7.336-1.043.604-1.55 1.528-1.55 2.729-.002 4.945 0 9.89-.002 14.834 0 .592.124 1.116.374 1.569.257.465.648.854 1.176 1.16 2.533 1.466 11.032 6.334 12.728 7.335 1.142.674 2.256.698 3.405.034 4.263-2.461 8.532-4.912 12.797-7.371.528-.306.919-.695 1.176-1.16.25-.452.374-.976.374-1.568l-.001-14.832Z"/><path fill="#1A4674" d="m24.049 23.952-15.69 9.034c.257.465.648.854 1.176 1.16 2.533 1.466 11.031 6.334 12.728 7.335 1.142.674 2.256.698 3.405.034 4.263-2.461 8.532-4.912 12.797-7.371.528-.306.919-.695 1.176-1.16L24.05 23.952Z"/><path fill="#1A4674" d="M19.402 26.628a5.294 5.294 0 0 0 9.213-.031l-4.566-2.645-4.647 2.676Z"/><path fill="#1B598E" d="M40.014 16.584c0-.605-.13-1.14-.392-1.6L24.05 23.953l15.592 9.032c.25-.452.374-.976.374-1.568l-.001-14.832Z"/><path fill="#fff" d="M39.157 24.597h-1.219v1.22h-1.219v-1.22h-1.218V23.38h1.218v-1.218h1.219v1.218h1.218v1.218Zm-4.447 0h-1.218v1.22h-1.218v-1.22h-1.219V23.38h1.219v-1.218h1.218v1.218h1.219v1.218Z"/><path fill="#fff" d="M28.616 26.597a5.294 5.294 0 0 1-9.214.03 5.297 5.297 0 0 1 9.18-5.285l4.629-2.665A10.633 10.633 0 0 0 24 13.363c-5.875 0-10.637 4.762-10.637 10.637A10.633 10.633 0 0 0 24 34.637c3.955 0 7.405-2.159 9.238-5.362l-4.622-2.678Z"/></svg>