<svg xmlns="http://www.w3.org/2000/svg" width="48" height="48" fill="none"><path fill="#005463" d="M25.5 6.488a2.652 2.652 0 0 0-1.457-.485 2.609 2.609 0 0 0-2.726 2.611A2.653 2.653 0 1 0 25.5 6.488Zm-1.743 24.609.222-.249c.06.064.112.12.161.17.092.097.169.178.242.262a3295.91 3295.91 0 0 1 8.567 9.86c.457.529.998 1.014 1.688.805a2.66 2.66 0 0 0 1.367-1.02c.413-.644.119-1.327-.375-1.893-2.933-3.372-5.865-6.745-8.796-10.12a10.486 10.486 0 0 1-.39-.485c-.056-.073-.112-.146-.17-.218.07-.082.13-.154.184-.22.104-.125.188-.226.275-.326a8493.82 8493.82 0 0 0 8.791-10.122c.84-.968.854-1.998.053-2.67-.786-.657-1.811-.478-2.638.468-.415.476-.829.953-1.242 1.43l-.517.595c-2.381 2.74-4.763 5.48-7.19 8.27a15660.332 15660.332 0 0 0-4.4-5.057c-1.572-1.803-3.14-3.61-4.704-5.421a1.734 1.734 0 0 0-1.857-.614c-.68.177-1.187.682-1.163 1.343.035.615.261 1.205.648 1.685a831.09 831.09 0 0 0 6.447 7.469l2.264 2.605c.113.13.217.266.326.408l.156.2-.285.331-.653.757a8575.22 8575.22 0 0 0-8.343 9.594c-.816.94-.83 1.885-.058 2.605.78.726 1.792.59 2.63-.374l8.342-9.596c.135-.156.273-.31.418-.472Z"/></svg>