<svg xmlns="http://www.w3.org/2000/svg" width="48" height="48" fill="none"><path fill="#0B0B0A" fill-rule="evenodd" d="m39.982 18.914.006.032c.008.058.012.118.012.179v9.75c0 .06-.004.12-.012.18l-.005.027-.003.016-.003.016a1.465 1.465 0 0 1-.029.13l-.008.027-.005.013-.009.026-.03.087c-.009.022-.02.044-.031.066a1 1 0 0 1-.073.134l-.013.021a.949.949 0 0 1-.058.083.959.959 0 0 1-.116.134v.001c-.019.019-.035.036-.054.053a2.28 2.28 0 0 1-.078.066l-.019.015-.043.032-.011.009a.118.118 0 0 1-.012.008l-14.625 9.75a1.374 1.374 0 0 1-1.526 0l-14.624-9.75a.124.124 0 0 1-.011-.008l-.012-.009a1.235 1.235 0 0 1-.263-.241 1.216 1.216 0 0 1-.105-.143l-.04-.063a1.998 1.998 0 0 1-.047-.092l-.01-.022-.02-.044c-.013-.03-.023-.061-.033-.091l-.003-.01-.006-.02c-.006-.015-.01-.03-.015-.047a1.465 1.465 0 0 1-.024-.115l-.003-.016c-.003-.014-.007-.029-.008-.043a1.362 1.362 0 0 1-.013-.18v-9.75c0-.061.005-.121.013-.179.001-.016.005-.03.008-.045l.003-.015c.007-.039.014-.078.024-.115.004-.016.01-.032.015-.047l.006-.02a1.192 1.192 0 0 1 .065-.166l.001-.001a1.11 1.11 0 0 1 .087-.155 1.237 1.237 0 0 1 .173-.218l.01-.01a1.235 1.235 0 0 1 .184-.155l.013-.01a.124.124 0 0 1 .011-.008l14.624-9.75a1.376 1.376 0 0 1 1.526 0l14.625 9.75a.118.118 0 0 1 .012.008l.003.003a.096.096 0 0 0 .008.006l.014.01.012.01.036.027.078.066c.014.011.026.024.039.037l.015.016a1.226 1.226 0 0 1 .174.218l.01.017.029.047a.71.71 0 0 1 .047.091.685.685 0 0 1 .031.067c.013.033.024.066.035.1l.008.025.014.042c.01.037.017.076.024.115l.002.013.003.015Zm-3.833.213-10.774-7.182v6.413l5.962 3.988 4.812-3.219Zm-13.524-7.182v6.413l-5.961 3.988-4.813-3.219 10.774-7.182ZM14.191 24l-3.441-2.301v4.602L14.191 24Zm8.434 12.055-10.774-7.182 4.813-3.218 5.961 3.987v6.413ZM19.137 24 24 27.253 28.864 24 24 20.747 19.137 24Zm6.238 12.055v-6.413l5.962-3.987 4.812 3.218-10.774 7.182ZM33.81 24l3.44 2.301v-4.602L33.81 24Z" clip-rule="evenodd"/></svg>