<svg xmlns="http://www.w3.org/2000/svg" width="48" height="48" fill="none"><path fill="#000" d="M13.49 20.75c.383-.066.65.1 1 .65 1 1.6 1 3.65 0 5.25-.367.55-.767.75-1.184.584a1.047 1.047 0 0 1-.466-.566c-.084-.25-.017-.467.266-.934.367-.6.467-.933.467-1.733 0-.784-.1-1.117-.467-1.734-.1-.166-.2-.35-.283-.533-.117-.4.217-.9.667-.983Zm2.585.17c-.45-.917-.45-1.1-.067-1.45.183-.184.267-.217.533-.217.434 0 .667.217 1.067 1.033.617 1.267.867 2.35.867 3.75 0 1.434-.25 2.417-.9 3.75-.367.75-.55.95-.934 1a.83.83 0 0 1-.4-.05.96.96 0 0 1-.5-.633c-.05-.15.017-.317.3-.9 1.05-2.133 1.067-4.2.034-6.283Zm3.3 9.432c-.383-.116-.666-.6-.55-.966.017-.084.2-.483.4-.883.833-1.7 1.183-3.534 1.017-5.334-.134-1.483-.4-2.417-1.067-3.767-.45-.916-.466-1.066-.216-1.433.25-.35.866-.4 1.2-.1.216.2.916 1.667 1.183 2.483.9 2.75.75 5.717-.383 8.367-.584 1.367-1 1.8-1.584 1.633Zm3.334 1.624c-.1 0-.2 0-.284-.033-.266-.084-.516-.384-.566-.667-.034-.2 0-.317.266-.85 1.1-2.117 1.567-4.05 1.567-6.417 0-2.283-.417-4.066-1.45-6.2-.233-.45-.417-.866-.417-.933 0-.233.184-.55.4-.683.284-.184.75-.15.984.066.083.084.3.45.5.817a15.921 15.921 0 0 1 1.5 4.767c.166 1.033.2 3 .067 3.95a15.947 15.947 0 0 1-1.434 4.85c-.45.916-.733 1.3-.967 1.3a.59.59 0 0 0-.166.033Zm11.408-.96c-2.633 2.567-6.4 4.2-10.95 4.75-.734.1-3.584.134-4.367.067-4.767-.417-8.983-2.183-11.717-4.917-1.566-1.567-2.516-3.25-2.933-5.25-.2-.917-.2-2.417 0-3.333.6-2.767 2.383-5.2 5.2-7.05 6.45-4.217 16.3-4.2 22.684.05.85.566 1.383 1.016 2.15 1.766.966.95 1.65 1.9 2.366 3.3.034.05.167.117.3.15.45.084 1.05.45 1.534.9.383.35.666.734 1.383 1.817.733 1.1 4.017 6.167 4.217 6.5.066.117-.084.333-.25.333-.117 0-.217-.083-.4-.366l-1.85-2.884c-3.167-4.916-3.334-5.133-4.217-5.583l-.467-.233h-1.366c-1.35 0-1.367 0-1.4.15-.167.783-.2.983-.167 1.016.033.017.8.467 1.717.967l1.666.95-.1.217c-.05.116-.116.216-.15.216-.016 0-1.433-.783-3.116-1.733-1.7-.95-3.184-1.75-3.3-1.783-.484-.134-1.234.4-1.234.883s.15.617 3.134 3.067c1.85 1.516 2.916 2.433 3.083 2.65.283.383.583.966.867 1.683.483 1.25 1.266 1.95 2.566 2.283l.417.1-.033.234c-.017.1-.034.183-.067.267-.05.066-.9-.217-1.4-.45-.783-.367-1.317-.9-1.833-1.817-.234.066-.45.133-.667.216-.667.25-.683.267-1.3.867Zm-2.355-2.326c.15.183 2.3 1.2 2.55 1.216.117 0 .483-.1.817-.216.333-.134.633-.234.65-.267.016-.017-.05-.233-.15-.483-.2-.5-.167-.484-.884-.35-.783.15-1.233.016-2.083-.6-.233-.184-.467-.317-.533-.317-.067 0-.2.083-.3.2-.217.233-.25.6-.067.817Zm3.325-.825c-.05-.117-3.017-2.583-3.267-2.733-.216-.117-.383-.084-.566.1-.517.55-.45.666.883 1.683 1.6 1.233 1.767 1.317 2.65 1.133.317-.066.35-.083.3-.183Zm-6.798-9.727c.267-.05 5.3.833 5.55.983.4.217.517.6.4 1.167l-.05.233h.267c.166 0 .516-.016.816-.033l.517-.05-.25-.483c-.8-1.467-2.217-2.934-3.983-4.117-.834-.55-2.584-1.4-3.634-1.783-1.65-.567-3.35-.95-5.083-1.134-.95-.1-3.467-.1-4.4.017-2.233.233-4.25.733-6.017 1.5-4.1 1.75-6.867 4.633-7.567 7.934-.183.866-.2 2.383-.033 3.166.367 1.733 1.183 3.233 2.517 4.634 2.7 2.85 6.833 4.583 11.783 4.983.65.05 3.534-.017 4.2-.117 2.084-.266 3.7-.683 5.4-1.383 1.784-.717 3.45-1.767 4.634-2.883l.466-.434-1.166-.566c-1.25-.584-1.367-.684-1.534-1.217-.1-.334.017-.7.334-1.034l.25-.266-.534-.417c-.433-.317-.566-.466-.65-.683a1.058 1.058 0 0 1 .134-1.017l.166-.233-1.716-.3c-.65-.117-1.3-.233-1.934-.367-.266-.083-.516-.366-.583-.666-.033-.15.8-4.234.983-4.817.134-.3.4-.534.717-.617Zm5.265 2.782c.217-1.033.233-1.316.017-1.366-.05-.034-1.234-.233-2.617-.483-2.45-.434-2.717-.467-2.834-.267-.066.1-1 4.417-1 4.6 0 .1.05.217.1.25.067.05.85.233 1.767.383 1.784.334 1.834.334 1.834.284 0-.017-.334-.3-.75-.634-1.017-.833-1.234-1.15-1.234-1.767 0-.516.35-1.016.9-1.3.334-.15.7-.183 1.05-.1.184.067 1.067.55 2.3 1.25l.25.15.217-1Z"/></svg>