<svg xmlns="http://www.w3.org/2000/svg" width="48" height="48" fill="none"><path fill="url(#a)" d="M23.322 39.272c8.435 0 15.272-6.838 15.272-15.272 0-8.434-6.837-15.271-15.272-15.271-8.434 0-15.271 6.837-15.271 15.271 0 8.434 6.837 15.272 15.271 15.272Z"/><path fill="#BBE4ED" d="M27.278 9.68a3.36 3.36 0 0 0-3.37-3.369 3.36 3.36 0 0 0-1.501 6.373v15.381h3.003V12.684a3.364 3.364 0 0 0 1.868-3.003Z"/><path fill="#BBE4ED" d="M20.539 38.32a3.36 3.36 0 0 0 3.37 3.369 3.36 3.36 0 0 0 1.5-6.373V19.935h-3.002v15.381a3.364 3.364 0 0 0-1.868 3.003Z"/><path fill="#BBE4ED" d="M9.37 20.704A3.36 3.36 0 0 0 6 24.074a3.36 3.36 0 0 0 6.372 1.5h15.382v-3.002H12.372a3.363 3.363 0 0 0-3.003-1.868Z"/><g filter="url(#b)"><path fill="#00949B" d="M38.374 22.572H26.582v3.003h11.792v-3.003Z"/></g><g filter="url(#c)"><path fill="#61C8D8" d="M23.909 33.815a9.632 9.632 0 0 0 9.631-9.632 9.632 9.632 0 0 0-9.631-9.632 9.632 9.632 0 0 0-9.632 9.632 9.632 9.632 0 0 0 9.632 9.632Z"/></g><path fill="#BBE4ED" fill-rule="evenodd" d="M28.078 25.575a4.397 4.397 0 0 1-8.564-1.392 4.395 4.395 0 0 1 8.484-1.611h-7.752v3.003h7.832Zm0 0a4.39 4.39 0 0 0 .225-1.392c0-.569-.108-1.112-.305-1.611h7.63A3.36 3.36 0 0 1 42 24.074a3.36 3.36 0 0 1-6.372 1.5h-7.55Z" clip-rule="evenodd"/><path fill="#BBE4ED" d="M20.246 22.572v3.003h7.832a4.39 4.39 0 0 0 .225-1.392c0-.569-.108-1.112-.305-1.611h-7.752Z"/><defs><filter id="b" width="15.793" height="9.003" x="24.582" y="19.572" color-interpolation-filters="sRGB" filterUnits="userSpaceOnUse"><feFlood flood-opacity="0" result="BackgroundImageFix"/><feColorMatrix in="SourceAlpha" result="hardAlpha" values="0 0 0 0 0 0 0 0 0 0 0 0 0 0 0 0 0 0 127 0"/><feOffset dy="1"/><feGaussianBlur stdDeviation="1"/><feComposite in2="hardAlpha" operator="out"/><feColorMatrix values="0 0 0 0 0 0 0 0 0 0 0 0 0 0 0 0 0 0 0.2 0"/><feBlend in2="BackgroundImageFix" result="effect1_dropShadow_5_2509"/><feColorMatrix in="SourceAlpha" result="hardAlpha" values="0 0 0 0 0 0 0 0 0 0 0 0 0 0 0 0 0 0 127 0"/><feOffset dy="-1"/><feGaussianBlur stdDeviation="1"/><feComposite in2="hardAlpha" operator="out"/><feColorMatrix values="0 0 0 0 0 0 0 0 0 0 0 0 0 0 0 0 0 0 0.2 0"/><feBlend in2="effect1_dropShadow_5_2509" result="effect2_dropShadow_5_2509"/><feBlend in="SourceGraphic" in2="effect2_dropShadow_5_2509" result="shape"/></filter><filter id="c" width="25.264" height="25.264" x="13.277" y="13.551" color-interpolation-filters="sRGB" filterUnits="userSpaceOnUse"><feFlood flood-opacity="0" result="BackgroundImageFix"/><feColorMatrix in="SourceAlpha" result="hardAlpha" values="0 0 0 0 0 0 0 0 0 0 0 0 0 0 0 0 0 0 127 0"/><feOffset dx="2" dy="2"/><feGaussianBlur stdDeviation="1.5"/><feComposite in2="hardAlpha" operator="out"/><feColorMatrix values="0 0 0 0 0 0 0 0 0 0 0 0 0 0 0 0 0 0 0.2 0"/><feBlend in2="BackgroundImageFix" result="effect1_dropShadow_5_2509"/><feBlend in="SourceGraphic" in2="effect1_dropShadow_5_2509" result="shape"/></filter><linearGradient id="a" x1="8.07" x2="38.6" y1="24.018" y2="24.018" gradientUnits="userSpaceOnUse"><stop offset=".006" stop-color="#009AA7"/><stop offset="1" stop-color="#007580"/></linearGradient></defs></svg>