<svg xmlns="http://www.w3.org/2000/svg" width="48" height="48" fill="none"><path fill="url(#a)" d="M6 40.701v-2.509c0-.167.125-.292.25-.418 2.844-3.01 5.436-6.188 7.694-9.658 3.638-5.561 6.565-11.415 8.32-17.854.294-1.045.503-2.09.753-3.136.837.042.837.042.837.836v25.046c0 .71-.042.752-.753.836a35.79 35.79 0 0 0-8.32 1.881c-2.258.837-4.39 1.882-6.398 3.22-.125.084-.25.167-.334.334.669-.376 1.296-.71 1.965-1.087 3.972-2.048 8.237-3.26 12.669-3.679.418-.042.836-.084 1.212-.084.419-.041.628-.167.586-.627-.042-2.341 0-4.725 0-7.066 0-.376.125-.627.376-.92 3.47-3.68 6.063-7.902 8.028-12.502.042-.083.084-.209.126-.292.752.125.752.125.752.836v22.621c-.46.04-.962.125-1.38.04-7.944-1.462-15.68-.877-23.122 2.468-.46.209-.92.46-1.338.794.168-.041.293-.125.46-.167 5.185-2.174 10.62-3.387 16.265-3.387 2.969 0 5.937.335 8.822 1.087.711.168 1.004 0 1.004-.752V25.774c0-.376.084-.585.376-.878a933.34 933.34 0 0 0 6.732-6.313c.334.042.418.334.418.794v20.697c0 .669-.376.962-1.045.71-2.593-.877-5.227-1.588-7.944-1.964-2.426-.335-4.85-.628-7.318-.753-5.686-.293-11.33.376-16.808 1.882-.753.209-1.505.46-2.258.71-.209-.041-.376 0-.627.042Z"/><defs><linearGradient id="a" x1="6.014" x2="42.03" y1="23.934" y2="23.934" gradientUnits="userSpaceOnUse"><stop stop-color="#0DF"/><stop offset="1" stop-color="#005FED"/></linearGradient></defs></svg>