<svg xmlns="http://www.w3.org/2000/svg" width="48" height="48" fill="none"><path fill="#000" d="M24 3C12.404 3 3 12.404 3 24s9.404 21 21 21 21-9.404 21-21S35.596 3 24 3Zm-.038 2.003h.004a.134.134 0 0 0 .034 0c8.682 0 16.006 5.826 18.27 13.777a33.055 33.055 0 0 1-8.043 10.493c-1.617 1.4-3.385 2.64-5.326 3.516-1.944.875-4.078 1.373-6.2 1.253a10.69 10.69 0 0 1-4.335-1.209 34.89 34.89 0 0 0 9.695-7.865c1.825-2.13 3.419-4.563 4.037-7.318.315-1.378.363-2.825.077-4.213a7.787 7.787 0 0 0-1.907-3.751 7.66 7.66 0 0 0-3.542-2.097 9.26 9.26 0 0 0-4.11-.148c-2.717.498-5.141 2.073-7.073 4.024-3.412 3.436-5.518 8.285-5.13 13.125.195 2.419 1 4.794 2.39 6.785.273.391.577.76.892 1.115a30.975 30.975 0 0 1-5.892 1.41A18.987 18.987 0 0 1 23.962 5.004Zm.134 3.856c.007-.002.03.004.022.002 1.322 0 2.648.403 3.696 1.197a6.11 6.11 0 0 1 2.04 2.845 7.864 7.864 0 0 1 .366 3.527c-.273 2.373-1.47 4.56-2.927 6.478-2.585 3.394-6.025 6.115-9.849 8.018a26.79 26.79 0 0 1-1.11.523 9.765 9.765 0 0 1-2.005-2.472c-1.127-1.993-1.497-4.36-1.28-6.648.222-2.288 1.005-4.497 2.066-6.548 1.228-2.375 2.894-4.616 5.216-5.899a7.904 7.904 0 0 1 3.766-1.025l-.002.002Zm18.766 13c.08.701.135 1.412.135 2.133 0 10.495-8.499 19.001-18.995 19.001a18.93 18.93 0 0 1-14.49-6.739 34.63 34.63 0 0 0 6.052-2.023c.88.66 1.846 1.21 2.877 1.603 3.035 1.165 6.475.993 9.538-.066 3.06-1.06 5.767-2.958 8.125-5.165a34.866 34.866 0 0 0 6.758-8.743Z"/></svg>