<svg xmlns="http://www.w3.org/2000/svg" width="48" height="48" fill="none"><path fill="#F26522" d="M42 6H6v36h36V6Z"/><path fill="#fff" d="M20.841 28.494h5.506v-1.498h-3.805v-2.321h3.509v-1.498h-3.51v-2.173h3.806v-1.498h-5.506v8.988Zm12.862-2.443c0-1.795-.122-2.186-2.537-2.766-1.552-.378-1.58-.405-1.58-1.43 0-.784.203-1.027 1.35-1.027.783 0 1.66.108 2.403.27l.189-1.43a12.269 12.269 0 0 0-2.619-.297c-2.28 0-3.023.81-3.023 2.443 0 1.903.297 2.321 2.47 2.807 1.62.35 1.646.432 1.646 1.43 0 .864-.202 1.12-1.43 1.12-.89 0-1.7-.161-2.537-.418l-.297 1.336c.593.284 1.781.54 2.807.54 2.659 0 3.158-.877 3.158-2.578Zm3.131-3.347c0-1.376.661-1.646 2.254-1.646.283 0 .877.04 1.268.121l.108-1.376a7.827 7.827 0 0 0-1.552-.162c-2.456 0-3.724.756-3.724 3.13v3.28c0 1.553.458 2.578 2.78 2.578 2.119 0 2.766-1.053 2.766-2.456v-.648c0-1.552-.66-2.227-2.294-2.227-.58 0-1.134.081-1.606.243v-.837Zm1.35 2.011c.594 0 .904.203.904.85v.662c0 .688-.27.985-1.12.985-.85 0-1.134-.243-1.134-.985v-1.228a3.538 3.538 0 0 1 1.35-.284Z"/></svg>