<svg xmlns="http://www.w3.org/2000/svg" width="48" height="48" fill="none"><path fill="#294172" d="M45 24c0-11.598-9.402-21-21-21C12.407 3 3.008 12.395 3 23.986v16.25A4.774 4.774 0 0 0 7.774 45h16.234C35.603 44.994 45 35.596 45 24Z"/><path fill="#3C6EB4" d="M30.165 7.972c-5.432 0-9.85 4.42-9.85 9.851v5.229h-5.208c-5.432 0-9.85 4.42-9.85 9.851 0 5.432 4.418 9.851 9.85 9.851 5.432 0 9.851-4.419 9.851-9.85v-5.23h5.207c5.432 0 9.852-4.419 9.852-9.85 0-5.433-4.42-9.852-9.852-9.852Zm-9.814 24.931a5.25 5.25 0 0 1-5.244 5.244 5.25 5.25 0 0 1-5.243-5.244 5.25 5.25 0 0 1 5.243-5.243h5.207v.014h.037v5.23Zm9.814-9.836h-5.207v-.015h-.036v-5.229a5.25 5.25 0 0 1 5.243-5.243 5.25 5.25 0 0 1 5.244 5.243 5.25 5.25 0 0 1-5.244 5.244Z"/><path fill="#fff" d="M32.343 8.27c-.765-.199-1.352-.292-2.177-.292-5.444 0-9.857 4.413-9.857 9.856v5.224h-4.127c-1.287 0-2.327 1.011-2.327 2.296a2.29 2.29 0 0 0 2.302 2.293h3.418c.406 0 .735.328.735.733v4.52a5.203 5.203 0 0 1-5.203 5.195c-.972 0-1.212-.127-1.876-.127-1.394 0-2.327.934-2.327 2.219 0 1.063.912 1.977 2.026 2.269.765.2 1.352.293 2.177.293 5.444 0 9.857-4.413 9.857-9.856v-5.224h4.127c1.287 0 2.328-1.012 2.327-2.297a2.29 2.29 0 0 0-2.302-2.292h-3.418a.735.735 0 0 1-.735-.734v-4.52a5.203 5.203 0 0 1 5.203-5.194c.972 0 1.212.127 1.876.127 1.394 0 2.327-.935 2.327-2.22 0-1.063-.911-1.976-2.026-2.268Z"/></svg>