<svg xmlns="http://www.w3.org/2000/svg" width="48" height="48" fill="none"><mask id="a" width="36" height="28" x="6" y="10" maskUnits="userSpaceOnUse" style="mask-type:alpha"><path fill="#57BBFB" fill-rule="evenodd" d="M32.677 10.45H15.396a.893.893 0 0 0-.633.263L6 19.5l17.975 18L42 19.5l-8.688-8.784a.893.893 0 0 0-.635-.265Zm.312 6.785c-.116.662-1.456 2.012-2.19 2.168-.035.007-.04.122-.004.132.705.186 2.041 1.552 2.19 2.178.01.037.067.036.077 0 .189-.658 1.554-2.036 2.18-2.178.036-.008.032-.125-.003-.132-.607-.127-1.977-1.493-2.178-2.168-.01-.033-.066-.034-.072 0Z" clip-rule="evenodd"/></mask><g mask="url(#a)"><path fill="#57BBFB" fill-rule="evenodd" d="M32.677 10.45H15.396a.893.893 0 0 0-.633.263L6 19.5l17.975 18L42 19.5l-8.688-8.784a.893.893 0 0 0-.635-.265Zm.312 6.785c-.116.662-1.456 2.012-2.19 2.168-.035.007-.04.122-.004.132.705.186 2.041 1.552 2.19 2.178.01.037.067.036.077 0 .189-.658 1.554-2.036 2.18-2.178.036-.008.032-.125-.003-.132-.607-.127-1.977-1.493-2.178-2.168-.01-.033-.066-.034-.072 0Z" clip-rule="evenodd"/><path fill="#48ACEC" d="M33.162 10.594a.892.892 0 0 0-.485-.144H15.396a.893.893 0 0 0-.633.263l.287.362 4.387 4.313 9.113-.038 4.612-4.756Z"/><path fill="#2B8FCF" d="m24.056 37.419-.081.081L6 19.5l.152-.152h9.498l8.406 17.565v.506Z"/><path fill="#2D91D1" d="m18.018 25.444 1.495 3.031h9.013l1.481-2.962-6.077-6.039-5.912 5.97Z"/><path fill="#7ACBFF" d="M33.053 19.474h8.925l-8.99-9.018-4.513 4.493 4.578 4.525Z"/><path fill="#55B9F9" d="m28.475 14.95-4.487-4.437-4.501 4.513 4.444 4.448 4.544-4.525Z"/><path fill="#3B9FDF" d="M23.93 19.474h-8.88l2.968 5.971 5.912-5.97 6.077 6.04 3.046-6.041H23.93Z"/><path fill="#52B6F7" d="M15.05 19.474h8.88l-4.443-4.448-4.437 4.448Z"/><path fill="#8FD3FF" d="m28.475 14.95-4.545 4.524h9.122l-4.577-4.525Z"/><path fill="#FF2690" d="m28.475 14.95-4.488-4.437 4.488 4.436Z"/><path fill="#41A5E5" d="m19.487 15.026-4.471-4.476-9.01 8.924h9.044l4.437-4.448Z"/><path fill="#3CA0E0" d="m23.988 37.55 4.538-9.075h-9.013l4.474 9.075Z"/><path fill="#4EB2F2" d="m30.007 25.514-1.481 2.962h4.461l-2.98-2.962Z"/><path fill="#1A7EBE" d="M15.017 28.476h4.496l-1.495-3.032-3.001 3.032Z"/></g></svg>