<svg xmlns="http://www.w3.org/2000/svg" width="48" height="48" fill="none"><path fill="#fff" d="M45 24c0 11.592-9.398 21-21 21S3 35.592 3 24C3 12.398 12.398 3 24 3s21 9.398 21 21Z"/><path fill="#B5010F" d="M37.191 10.96c1.431 1.454-2.537 7.84-3.207 8.522-.671.68-2.375.055-3.805-1.399-1.431-1.453-2.048-3.183-1.377-3.865.67-.681 6.958-4.71 8.389-3.257ZM11.414 8.332c-1.457-.84-3.53-1.773-4.189-1.103-.668.678.285 2.83 1.12 4.313a9.035 9.035 0 0 1 3.069-3.21Z"/><path fill="#B5010F" d="M17.444 8.444c.445-.444 1.483-.274 1.483-.274l.11-.291S18 7.406 16.23 7.406c-4.784 0-8.661 3.938-8.661 8.797 0 4.858 3.877 8.797 8.661 8.797s8.661-3.939 8.661-8.797a8.88 8.88 0 0 0-.678-3.415c-.215.723-.381.98-.913 1.511-.797.798-2.755.134-4.372-1.483-1.616-1.617-2.28-3.574-1.483-4.372Z"/></svg>