<svg xmlns="http://www.w3.org/2000/svg" width="48" height="48" fill="none"><path fill="#000" d="M22.047 32.834c.632 0 1.01.505 1.01 1.01 0 .631-.505 1.01-1.01 1.01-.631 0-1.01-.505-1.01-1.01s.379-1.01 1.01-1.01Zm16.543-6.44c-.631 0-1.01-.506-1.01-1.011 0-.505.505-1.01 1.01-1.01.632 0 1.01.505 1.01 1.01s-.505 1.01-1.01 1.01Zm0-4.294c-1.768 0-3.283 1.515-3.283 3.283 0 .379 0 .758.126 1.01L24.7 32.076c-.631-.884-1.641-1.39-2.652-1.39-1.262 0-2.399.759-2.904 1.769l-9.598-5.051c-1.01-.506-1.768-2.274-1.641-3.789 0-.758.379-1.39.757-1.642a1.08 1.08 0 0 1 .884 0h.127c2.525 1.39 10.986 5.683 11.239 5.936.505.252.884.379 1.768-.127l17.3-8.966c.253-.126.506-.378.506-.757 0-.506-.505-.758-.505-.758-1.01-.505-2.526-1.137-3.915-1.894a666.551 666.551 0 0 0-8.335-3.915c-1.389-.758-2.4-.126-2.652 0l-.379.126c-7.072 3.536-16.543 8.209-17.048 8.461-1.01.631-1.515 1.768-1.641 3.157-.127 2.273 1.01 4.673 2.778 5.557l10.229 5.303c.252 1.642 1.641 2.779 3.157 2.779 1.768 0 3.283-1.39 3.283-3.157l11.24-6.062c.63.505 1.262.632 2.02.632 1.768 0 3.283-1.516 3.283-3.284-.253-1.515-1.642-2.904-3.41-2.904Z"/></svg>