<svg xmlns="http://www.w3.org/2000/svg" width="48" height="48" fill="none"><path fill="#128379" d="M40.843 15.403a.732.732 0 0 0-.948-.415.74.74 0 0 0-.445.652c0 .089 0 .178.06.237a16.483 16.483 0 0 1 1.067 5.842c0 8.392-6.257 15.361-14.383 16.399v-7.74c.505-.089.979-.237 1.453-.385v6.494c6.613-1.601 11.566-7.592 11.566-14.768a15.199 15.199 0 0 0-7.859-13.315c-.356-.207-.8-.059-.978.327-.06.089-.06.207-.06.326 0 .267.149.504.356.623a13.788 13.788 0 0 1 7.117 12.069c0 5.842-3.618 10.823-8.748 12.84v-5.753a2.18 2.18 0 0 0 1.542-2.105c0-.83-.415-1.513-1.097-1.898.504-4.982 2.787-3.648 2.787-5.249v-.92c0-2.372-5.486-10.111-8.065-10.29h-.475c-2.58.179-8.066 7.918-8.066 10.29v.92c0 1.572 2.254.267 2.788 5.249a2.191 2.191 0 0 0-1.068 1.898c0 .978.652 1.809 1.542 2.105v5.753c-5.1-2.017-8.748-6.998-8.748-12.84a13.79 13.79 0 0 1 7.117-12.07.717.717 0 0 0 .297-.948c-.09-.267-.356-.415-.623-.415a.79.79 0 0 0-.356.088A15.199 15.199 0 0 0 8.758 21.72c0 7.176 4.952 13.167 11.624 14.797v-6.494c.475.149.95.297 1.453.386v7.74C13.71 37.08 7.453 30.14 7.453 21.719c0-2.046.386-4.003 1.068-5.842a.71.71 0 0 0-.386-.919c-.089-.03-.178-.06-.267-.06a.731.731 0 0 0-.682.475A17.483 17.483 0 0 0 6 21.72c0 9.697 7.65 17.585 17.259 17.97v-9.103c.267.03.741.03.741.03s.474 0 .741-.03v9.104C34.35 39.303 42 31.416 42 21.72c-.03-2.225-.415-4.36-1.157-6.317Zm-13.522 10.26a1.456 1.456 0 0 1 1.038-.445c.415 0 .771.178 1.038.445s.445.623.445 1.038c0 .415-.178.771-.445 1.038a1.456 1.456 0 0 1-1.038.445c-.415 0-.77-.178-1.038-.445a1.456 1.456 0 0 1-.445-1.038c0-.415.178-.771.445-1.038ZM20.68 27.74a1.455 1.455 0 0 1-1.038.445c-.415 0-.771-.178-1.038-.445-.297-.267-.445-.623-.445-1.038 0-.415.178-.771.445-1.038a1.456 1.456 0 0 1 1.038-.445c.415 0 .77.178 1.038.445.267.267.445.623.445 1.038-.03.415-.178.771-.445 1.038Z"/></svg>