<svg xmlns="http://www.w3.org/2000/svg" width="48" height="48" fill="none"><path fill="#EA4335" d="M30.356 17.644a8.997 8.997 0 0 1 0 12.726c-1.758 1.758-1.758 4.613 0 6.357a4.507 4.507 0 0 0 6.37 0c7.032-7.032 7.032-18.422 0-25.454l-6.37 6.37Z"/><path fill="url(#a)" d="M36.712 11.273c-7.03-7.03-18.407-7.03-25.439 0-7.03 7.032-7.03 18.422 0 25.454l6.37-6.357a8.997 8.997 0 0 1 0-12.726 8.997 8.997 0 0 1 12.727 0 4.507 4.507 0 0 0 6.37 0 4.533 4.533 0 0 0-.028-6.37Z"/><path fill="#FBBC04" d="m36.712 36.727-6.37-6.357a8.997 8.997 0 0 1-12.726 0l-6.37 6.357c7.059 7.03 18.435 7.03 25.466 0Z"/><path fill="#EA4335" d="M30.356 30.37a4.49 4.49 0 0 1 6.356 0 4.507 4.507 0 0 1 0 6.37 4.49 4.49 0 0 1-6.356 0 4.507 4.507 0 0 1 0-6.37Z"/><path fill="#34A853" d="M11.273 30.37a4.49 4.49 0 0 1 6.357 0 4.507 4.507 0 0 1 0 6.37 4.49 4.49 0 0 1-6.357 0 4.507 4.507 0 0 1 0-6.37Z"/><defs><linearGradient id="a" x1="6" x2="38.034" y1="21.363" y2="21.363" gradientUnits="userSpaceOnUse"><stop stop-color="#246FDB"/><stop offset=".055" stop-color="#2973DF"/><stop offset=".278" stop-color="#377DEB"/><stop offset=".549" stop-color="#3F83F2"/><stop offset="1" stop-color="#4285F4"/></linearGradient></defs></svg>