<svg xmlns="http://www.w3.org/2000/svg" width="48" height="48" fill="none"><path fill="#139F5A" d="M36.84 9.461a2.558 2.558 0 0 0-.757-.114H8.585a2.585 2.585 0 0 0-2.578 2.578v27.497c0 .263.04.518.115.757L36.84 9.461Z"/><path fill="#CDCDCD" d="m38.56 40.131.006-.02.01-.035.006-.023.009-.036.004-.019.011-.052.005-.02.007-.037.004-.022.007-.042.002-.015.008-.055.002-.019.005-.04.002-.02.004-.05.001-.008.004-.057v-.019l.002-.042v-.019l.002-.059V11.925c0-.263-.04-.518-.115-.757L7.828 41.886c.24.074.494.114.757.114l27.575-.001.044-.002h.017l.058-.005h.007l.051-.005.02-.002.04-.005.019-.002.055-.008.014-.002.043-.007.02-.004.039-.007.02-.004.052-.011.018-.005.038-.009.021-.006.036-.01.02-.005.048-.014a2.598 2.598 0 0 0 1.706-1.707l.015-.048Z"/><path fill="#F5F5F5" d="M36.083 9.347 6.007 39.422A2.585 2.585 0 0 0 8.585 42h.43L38.66 12.355v-.43a2.585 2.585 0 0 0-2.577-2.578Z"/><path fill="#fff" d="M36.083 9.347H8.585a2.585 2.585 0 0 0-2.578 2.578v.215a2.585 2.585 0 0 1 2.578-2.578h27.498a2.585 2.585 0 0 1 2.578 2.578v-.215a2.586 2.586 0 0 0-2.578-2.578Z" opacity=".2"/><path fill="url(#a)" d="M32.668 25.853h5.992v-5.342l-11.344.123 5.352 5.22Z"/><path fill="#FFC108" d="M29.217 25.454c-2.311.638-6.967 2.356-6.967 4.997V42h13.893l.017-.001.044-.002h.017l.058-.005h.007l.051-.005.02-.002.04-.005.019-.002.056-.008.013-.002.043-.007.021-.004.038-.007.02-.004.052-.011.018-.005.038-.009.021-.006.036-.01.02-.005.048-.014a2.598 2.598 0 0 0 1.706-1.707l.015-.048.005-.02.01-.035.006-.023.009-.036.004-.019.012-.052.004-.02.007-.037.004-.022.007-.042.002-.015.008-.055.002-.019.005-.04.002-.02.005-.05v-.008l.004-.057v-.019l.002-.042.001-.019V25.95s-10.179-.291-9.442-.495Z"/><path fill="#F79022" d="m29.362 25.415-.065.018-.015.003-.065.018a22.01 22.01 0 0 0-2.683.934l7.07 7.09 5.056-5.095v-2.706c-2.854-.916-5.644-1.241-9.298-.262Z"/><path fill="#fff" d="M29.217 25.727h.002l.063-.018.015-.004.065-.018c3.654-.979 6.444-.653 9.299.262v-.272c-2.855-.916-5.645-1.241-9.3-.262l-.064.018-.015.003-.065.018c-2.311.638-6.967 2.356-6.967 4.997v.272c0-2.64 4.656-4.358 6.967-4.996Z" opacity=".2"/><path fill="#FFC20B" fill-rule="evenodd" d="M33.407 6a8.585 8.585 0 1 1 0 17.17 8.585 8.585 0 0 1 0-17.17Z" clip-rule="evenodd"/><path fill="#fff" fill-rule="evenodd" d="M33.407 6.262a8.585 8.585 0 0 1 8.584 8.454l.001-.131a8.585 8.585 0 1 0-17.17 0l.002.131a8.585 8.585 0 0 1 8.583-8.454Z" clip-rule="evenodd" opacity=".2"/><path fill="#263238" fill-rule="evenodd" d="M33.407 22.958a8.585 8.585 0 0 1-8.584-8.48v.107a8.585 8.585 0 0 0 17.17 0l-.001-.106a8.585 8.585 0 0 1-8.584 8.479Z" clip-rule="evenodd" opacity=".1"/><path fill="#263238" d="M36.083 41.785H8.585a2.585 2.585 0 0 1-2.578-2.578v.215A2.585 2.585 0 0 0 8.585 42h27.498a2.585 2.585 0 0 0 2.578-2.578v-.215a2.586 2.586 0 0 1-2.578 2.578Z" opacity=".1"/><path fill="#EEE" d="M13.281 15.872v1.83h2.544c-.202 1.088-1.156 1.878-2.544 1.878-1.542 0-2.797-1.306-2.797-2.844 0-1.538 1.255-2.844 2.797-2.844.696 0 1.315.24 1.81.704l1.353-1.353c-.821-.77-1.887-1.238-3.163-1.238a4.723 4.723 0 0 0-4.726 4.727 4.723 4.723 0 0 0 4.726 4.726c2.728 0 4.537-1.92 4.537-4.619 0-.335-.03-.657-.086-.967h-4.45Z"/><path fill="url(#b)" fill-rule="evenodd" d="M38.66 28.444v-7.069c.19-.147.374-.302.55-.464h.001l.088-.082a8.64 8.64 0 0 0 .42-.425l.003-.003.077-.085.004-.004c.132-.148.26-.3.381-.456l.006-.007.066-.087.007-.008.067-.09.002-.004c.071-.096.14-.194.207-.294l.001-.002.062-.094.008-.012.056-.086.009-.015.055-.089.006-.01c.062-.101.122-.204.18-.307l.005-.01.05-.091.01-.02.044-.083.012-.022.043-.086.01-.018.05-.101v-.002l.101-.216.007-.016.04-.09.01-.025.035-.081.012-.029.034-.082.01-.026.037-.094.005-.014.08-.221.01-.024.028-.086.011-.032.026-.079.01-.034.025-.08.01-.032.026-.09.007-.022.061-.227.008-.03.02-.083.01-.038.017-.077.01-.04.016-.077.008-.038.017-.085.006-.03.022-.117.02-.116.005-.035.013-.081.006-.043.01-.075.007-.044.009-.075.005-.044.01-.082.003-.036.012-.118v-.003l.01-.116.002-.039.005-.08.003-.046.004-.075.002-.047.003-.076.001-.045.002-.082v-.04l.002-.12A8.585 8.585 0 0 0 33.407 6h-.12l-.04.002-.082.001-.045.002-.076.003-.047.002-.076.004-.045.002-.082.006-.037.002-.12.01h-.003l-.115.012-.038.004-.08.009-.044.005-.075.01-.045.005-.075.011-.042.006-.084.013-.033.006-.117.02h-.003l-.112.021-.035.007-.08.016-.041.009-.075.016-.041.01-.076.017-.039.01-.085.02-.028.007-.114.03-.112.032-.03.008-.082.024-.037.011-.075.024-.037.012-.078.025-.033.01-.089.031-.02.007-.22.081-.026.01-.082.032-.032.013-.077.031-.031.013-.08.034-.027.012-.093.04-.012.006-.213.1-.02.01-.084.041-.026.013-.078.04-.026.014-.081.043-.021.01-.098.055h-.002l-.206.12-.014.008-.085.051-.02.013-.08.049-.02.013-.082.053-.015.01a8.563 8.563 0 0 0-.292.2l-.01.006-.084.061-.015.012-.079.058-.015.012-.083.063-.009.008a8.703 8.703 0 0 0-.276.224l-.005.005-.082.071-.012.01-.077.068-.011.01-.081.074-.005.005a8.57 8.57 0 0 0-.257.248l-.003.003-.078.08-.01.01-.072.076-.009.009-.078.085c-.081.088-.16.178-.238.27l-.001.002-.073.087-.007.01-.067.083-.007.009-.072.09v.001H8.585a2.554 2.554 0 0 0-1.637.59 2.604 2.604 0 0 0-.805 1.164 2.547 2.547 0 0 0-.122.561l-.006.065a2.58 2.58 0 0 0-.008.198l.002 27.574.001.044.001.017.004.059v.007l.005.05.002.02.005.04.002.02.008.055.002.014.007.042.004.022.007.037.004.02.012.053.004.018.01.037.005.022.01.035.005.02.015.048.007.024.01.027.007.024.015.042.009.024.01.028.014.034.012.028.01.024.014.034.014.028.012.026.01.023.02.04.012.022.013.025.017.03.016.03.013.022.017.028.018.03.015.024.013.021.024.036.014.021.017.023.018.026.021.029.015.02.02.025.021.028.019.023.016.02.028.032.016.019.019.021.018.02.028.03.017.018.021.022.025.025.022.02.018.018.03.029.02.017.021.02.019.015.033.028.02.016.022.019.028.022.025.019.02.015.03.021.025.018.023.017.021.014.036.024.022.013.024.016.03.017.028.017.022.013.028.016.031.017.026.013.022.012.04.02.022.01.026.013.029.013.033.014.024.01.029.012.034.014.027.01.025.01.041.014.024.008.028.01.023.007.048.014.02.006.035.01.023.005.037.009.018.004.053.012.02.004.037.007.021.004.043.007.014.002.055.008.019.002.04.005.02.002.05.005h.008l.058.004h.018l.043.002.018.001H36.16l.044-.002.017-.001.058-.004h.007l.051-.005.02-.002.04-.005h.001l.018-.002.018-.002.038-.006.012-.002.044-.007.02-.004h.001l.038-.007.02-.004.052-.012.017-.004.035-.008.004-.001.021-.006.036-.01.02-.005.048-.014.023-.008.028-.009.024-.008.042-.015.023-.008.01-.004.019-.007.032-.013.03-.012.023-.01.035-.016.028-.012.026-.013.023-.01.04-.02.021-.011.027-.014.028-.016.03-.017.022-.012.03-.018.027-.017.026-.016.02-.013.037-.024.02-.014.025-.017.023-.016.031-.023.02-.015.026-.02.026-.02.024-.02.018-.015.034-.029.018-.015.023-.02.017-.015.032-.03.017-.017.008-.007.005-.005.01-.011.023-.023.017-.016.006-.007.017-.017.03-.033.015-.017.02-.023.016-.017V41.1l.029-.033.022-.027.012-.015v-.001l.02-.025.02-.027h.001l.014-.02.024-.032.016-.022.017-.025.013-.02.023-.034.001-.001v-.002h.001l.013-.02.016-.026.016-.025.019-.032.012-.021.001-.003.002-.004.014-.025.015-.026.01-.017.005-.011.01-.021.02-.038v-.002l.011-.022.013-.028.011-.024.017-.038.01-.022.012-.032.012-.03.008-.02.002-.006.002-.004.008-.023.015-.042.008-.023.01-.03.006-.021.015-.049.005-.019v-.002l.005-.017.005-.017.006-.022.009-.037v-.002l.004-.016.012-.053.004-.019v-.001l.003-.019.003-.012v-.006l.001-.001.004-.02.007-.043v-.002l.002-.012.008-.056.002-.017v-.002l.005-.04.002-.019.005-.05v-.008l.004-.058v-.019l.002-.021v-.039l.001-.02V28.444Z" clip-rule="evenodd"/><defs><radialGradient id="b" cx="0" cy="0" r="1" gradientTransform="translate(7.93 9.819) scale(42.6466)" gradientUnits="userSpaceOnUse"><stop stop-color="#fff" stop-opacity=".1"/><stop offset="1" stop-color="#fff" stop-opacity="0"/></radialGradient><linearGradient id="a" x1="30.22" x2="37.02" y1="17.804" y2="24.604" gradientUnits="userSpaceOnUse"><stop stop-color="#263238" stop-opacity=".2"/><stop offset="1" stop-color="#263238" stop-opacity=".02"/></linearGradient></defs></svg>