<svg xmlns="http://www.w3.org/2000/svg" width="48" height="48" fill="none"><path fill="#00832D" d="M24.96 13.199v8.638c0 .533.433.965.965.965h8.64c0-2.65-.591-5.529-2.333-7.27-1.742-1.743-4.622-2.333-7.271-2.333Zm9.417 28.622c-4.031.663-8.912-.532-13.591-3.325l1.569-3.5 3.556-1.64 5.572 3.181 2.894 5.284Zm-27.96-27.96c-.663 4.031.518 8.912 3.326 13.591l3.599-1.684 1.54-3.455-3.023-4.939-5.442-3.513Z"/><path fill="#34A853" d="M26.4 6c-.791 0-1.44.648-1.44 1.44v5.759c5.3 0 9.604 4.305 9.604 9.603h5.76c.791 0 1.439-.648 1.439-1.44C41.763 12.882 34.881 6 26.401 6Zm13.995 32.51c.763-.734.792-1.93.072-2.692l-6.94-7.4a1.916 1.916 0 0 0-2.677.028l-4.924 4.91 8.451 8.451c2.29-.331 4.003-1.31 5.557-2.865l.461-.432Z"/><path fill="#34A853" d="M9.757 27.453c1.267 2.102 2.952 4.218 4.866 6.133 1.915 1.915 4.075 3.628 6.177 4.895l5.14-5.125-11.057-11.044"/><path fill="#34A853" d="m18.583 18.727.792-.762a2.425 2.425 0 0 0 0-3.413L12.852 8.03a2.425 2.425 0 0 0-3.412 0l-.23.158c-1.512 1.512-2.42 3.47-2.793 5.673l8.466 8.451 3.7-3.585Z"/></svg>