<svg xmlns="http://www.w3.org/2000/svg" width="48" height="48" fill="none"><path fill="#3BAB59" d="M32.596 33.118c.003 1.138.402 2.301.402 3.439 0 1.155-.4 2.284-.397 3.439H15.395c.002-1.136-.535-2.304-.535-3.439 0-1.157.536-2.281.538-3.439 5.733.002 11.465 0 17.198 0Z"/><path fill="#4586F7" d="M25.96 14.15c.797-.795 2.069-1.214 2.856-2.018 3.264 3.284 6.54 6.554 9.812 9.83.294.304.654.583.769 1.012.112.278.078.582.083.875V38.24c.073.947-.83 1.83-1.772 1.756h-5.107c-.007-2.293.002-4.585-.004-6.877.004-2.52.002-5.04 0-7.56-2.124-2.122-4.244-4.248-6.367-6.37-.741-.747-1.493-1.483-2.227-2.237.402-.385 1.541-2.386 1.957-2.802Z"/><path fill="#FDC00D" d="M15.393 25.568c.009 2.517-.002 5.034.005 7.55-.005 2.293.002 4.585-.003 6.877H10.02c-.748-.095-1.407-.724-1.503-1.479-.005-2.022-.001-4.045 0-6.068 1.193-1.182 1.938-2.718 3.127-3.905 1.102-1.106 2.65-1.863 3.748-2.975Z"/><path fill="#EC5043" d="M23.909 8.003c.148.018.324-.04.456.043.357.07.67.277.922.535l3.206 3.209c.107.114.232.213.323.342-1.199 1.225-2.42 2.426-3.628 3.642-.396.392-.783.793-1.185 1.178-.531.5-1.033 1.03-1.553 1.541-2.352 2.36-4.711 4.71-7.057 7.075-1.097 1.111-2.208 2.21-3.31 3.317-1.189 1.187-2.372 2.38-3.566 3.563-.004-2.593 0-5.186 0-7.779.002-.49-.009-.979.008-1.468-.005-.099.07-.177.065-.276.07-.117.132-.238.199-.355.17-.226.38-.414.577-.616L22.718 8.58c.182-.191.39-.365.644-.451.177-.06.353-.147.547-.126Z"/></svg>