<svg xmlns="http://www.w3.org/2000/svg" width="48" height="48" fill="none"><path fill="#EA4335" d="m30.602 16.8 3.477-3.477.232-1.464c-6.336-5.762-16.409-5.108-22.12 1.363-1.587 1.797-2.764 4.038-3.391 6.352l1.245-.175 6.954-1.147.537-.55c3.093-3.396 8.323-3.853 11.895-.963l1.17.061Z"/><path fill="#4285F4" d="M39.032 19.472a15.664 15.664 0 0 0-4.721-7.613l-4.88 4.88a8.674 8.674 0 0 1 3.184 6.88v.867a4.343 4.343 0 0 1 4.343 4.343c0 2.399-1.944 4.295-4.343 4.295h-8.699l-.854.927v5.21l.854.817h8.699c6.239.048 11.336-4.921 11.385-11.16a11.298 11.298 0 0 0-4.968-9.446Z"/><path fill="#34A853" d="M15.23 40.078h8.686v-6.954H15.23a4.262 4.262 0 0 1-1.781-.39l-1.233.377-3.501 3.477-.305 1.184c1.963 1.483 4.36 2.316 6.82 2.306Z"/><path fill="#FBBC05" d="M15.23 17.52C8.99 17.557 3.963 22.645 4 28.884a11.297 11.297 0 0 0 4.41 8.888l5.039-5.039a4.343 4.343 0 1 1 5.746-5.746l5.038-5.038a11.285 11.285 0 0 0-9.003-4.43Z"/></svg>