<svg xmlns="http://www.w3.org/2000/svg" width="48" height="48" fill="none"><path fill="#4989F5" d="M38.06 16.157H9.057c-.689 0-1.248.559-1.248 1.248v21.058c0 .69.56 1.248 1.248 1.248h29.005c.689 0 1.248-.559 1.248-1.248V17.405c0-.689-.56-1.248-1.248-1.248Z"/><path fill="url(#a)" d="M37.697 15.98H9.385c-.877 0-1.559 6.788-1.559 7.665L23.33 39.71h14.367a1.599 1.599 0 0 0 1.594-1.595v-20.54a1.6 1.6 0 0 0-1.594-1.595Z"/><path fill="#3C4BA6" d="M15.001 20.102h9V8.289h-7.652L15 20.102Z"/><path fill="#7BABF7" d="M33.001 20.102h-9V8.289h7.652l1.348 11.813Zm6.308-9.573.01.04c-.002-.014-.008-.028-.01-.04Z"/><path fill="#3F51B5" d="m39.32 10.569-.011-.04a2.847 2.847 0 0 0-2.78-2.24h-4.876L33 20.102h9l-2.68-9.534Z"/><path fill="#7BABF7" d="m8.682 10.569.011-.04a2.846 2.846 0 0 1 2.78-2.24h4.876L15 20.102H6l2.682-9.534Z"/><path fill="#709BE0" fill-rule="evenodd" d="M15.016 20.099a4.497 4.497 0 1 1-8.995 0h8.995Z" clip-rule="evenodd"/><path fill="#3C4BA6" fill-rule="evenodd" d="M24.011 20.099a4.498 4.498 0 0 1-8.995 0h8.995Z" clip-rule="evenodd"/><path fill="#709BE0" fill-rule="evenodd" d="M33.006 20.099a4.498 4.498 0 0 1-8.995 0h8.995Z" clip-rule="evenodd"/><path fill="#3C4BA6" fill-rule="evenodd" d="M42 20.099a4.498 4.498 0 0 1-8.995 0H42Z" clip-rule="evenodd"/><path fill="#fff" d="M37.503 32.283a8.508 8.508 0 0 0-.08-.659h-4.906c0 .686 0 1.435-.003 2.122h2.842a2.473 2.473 0 0 1-1.04 1.586s0-.012-.002-.012c-.348.228-.74.381-1.15.449a3.379 3.379 0 0 1-1.245-.006 3.109 3.109 0 0 1-1.161-.503 3.239 3.239 0 0 1-1.142-1.458l-.05-.138v-.005l.005-.004a3.147 3.147 0 0 1-.002-2.024c.157-.461.415-.88.755-1.229a3.066 3.066 0 0 1 3.09-.804c.421.129.806.356 1.124.662l.959-.96c.169-.17.344-.336.507-.512a5.067 5.067 0 0 0-1.68-1.04 5.28 5.28 0 0 0-3.63.011 5.25 5.25 0 0 0-2.837 2.542 5.22 5.22 0 0 0 3.309 7.382 5.578 5.578 0 0 0 2.669.028 4.733 4.733 0 0 0 2.136-1.11 4.758 4.758 0 0 0 1.32-2.175c.198-.696.27-1.421.212-2.143Z"/><defs><linearGradient id="a" x1="7.826" x2="39.291" y1="27.845" y2="27.845" gradientUnits="userSpaceOnUse"><stop offset=".03" stop-color="#4079D8"/><stop offset="1" stop-color="#4989F5"/></linearGradient></defs></svg>