<svg xmlns="http://www.w3.org/2000/svg" width="48" height="48" fill="none"><g clip-path="url(#a)"><path fill="#3C4043" fill-rule="evenodd" d="M22.448 28.648v-4.833h2.495c1.022 0 1.885-.343 2.588-1.018l.17-.172a3.48 3.48 0 0 0-.17-4.871 3.56 3.56 0 0 0-2.588-1.037h-4.005v11.931h1.51Zm0-6.299v-4.167h2.533c.544 0 1.06.21 1.444.59a2.12 2.12 0 0 1 .047 2.959 1.96 1.96 0 0 1-1.491.618h-2.533Zm12.295-1.227c-.647-.6-1.528-.904-2.644-.904-1.435 0-2.514.533-3.226 1.589l1.331.847c.488-.723 1.154-1.085 1.998-1.085.534 0 1.05.2 1.454.562a1.8 1.8 0 0 1 .619 1.36v.352c-.582-.323-1.313-.495-2.214-.495-1.05 0-1.894.248-2.523.752-.628.504-.947 1.17-.947 2.017a2.54 2.54 0 0 0 .891 1.998c.59.533 1.341.8 2.223.8 1.04 0 1.866-.467 2.495-1.4h.065v1.133h1.444v-5.033c0-1.056-.319-1.894-.966-2.493Zm-4.098 6.023a1.24 1.24 0 0 1-.497-1c0-.446.207-.817.61-1.112.413-.295.928-.448 1.538-.448.844-.01 1.5.181 1.97.562 0 .647-.253 1.208-.75 1.684a2.38 2.38 0 0 1-1.698.713 1.828 1.828 0 0 1-1.173-.4Z" clip-rule="evenodd"/><path fill="#3C4043" d="M38.954 32.235 44 20.485h-1.641l-2.335 5.86h-.029l-2.391-5.86h-1.641l3.31 7.64-1.875 4.11h1.556Z"/><g clip-path="url(#b)"><path fill="#4285F4" d="M17.235 22.768c0-.466-.037-.932-.112-1.39h-6.368v2.637h3.648a3.176 3.176 0 0 1-1.35 2.083v1.713h2.175c1.276-1.19 2.007-2.95 2.007-5.043Z"/><path fill="#34A853" d="M10.755 29.466c1.82 0 3.358-.608 4.474-1.655l-2.176-1.713c-.61.419-1.388.657-2.298.657-1.763 0-3.254-1.209-3.789-2.826H4.725v1.77a6.735 6.735 0 0 0 6.03 3.767Z"/><path fill="#FBBC04" d="M6.966 23.929a4.19 4.19 0 0 1 0-2.626v-1.76H4.725a6.88 6.88 0 0 0 0 6.146l2.241-1.76Z"/><path fill="#EA4335" d="M10.755 18.477a3.605 3.605 0 0 1 2.589 1.027l1.931-1.96a6.467 6.467 0 0 0-4.52-1.779c-2.55 0-4.886 1.465-6.03 3.777l2.241 1.77c.535-1.627 2.026-2.835 3.79-2.835Z"/></g></g><defs><clipPath id="a"><path fill="#fff" d="M0 0h40v16.471H0z" transform="translate(4 15.765)"/></clipPath><clipPath id="b"><path fill="#fff" d="M0 0h13.235v13.702H0z" transform="translate(4 15.765)"/></clipPath></defs></svg>