<svg xmlns="http://www.w3.org/2000/svg" width="48" height="48" fill="none"><path fill="#F1471D" d="M41.721 21.64 8.773 3.543c-1.408-.764-2.667-.693-3.433.024-.543.501-.84 1.313-.84 2.363v36.12c0 1.05.321 1.863.84 2.363.79.74 2.025.812 3.433.024L41.72 26.342c2.372-1.289 2.372-3.39 0-4.703Z"/><path fill="#FCD117" d="M38.904 27.932a14.43 14.43 0 0 0 .594-4.154c0-8.427-7.09-15.278-15.808-15.278-8.719 0-15.807 6.85-15.807 15.278 0 7.067 4.964 13.011 11.707 14.754l19.314-10.6Z"/><path fill="#F48B15" d="M33.88 24.003c0 5.274-4.423 9.55-9.88 9.55-5.457 0-9.88-4.276-9.88-9.55 0-5.274 4.423-9.549 9.88-9.549 5.456 0 9.88 4.275 9.88 9.55Z"/><path fill="#fff" d="M24 18.99v5.872a2.41 2.41 0 0 0-1.16-.31c-1.285 0-2.298 1.003-2.298 2.22 0 1.242 1.037 2.22 2.297 2.22 1.285 0 2.396-1.003 2.396-2.22v-5.395h2.223V18.99H24Z"/></svg>