<svg xmlns="http://www.w3.org/2000/svg" width="48" height="48" fill="none"><path fill="#81C995" d="M33.404 20.075a4.473 4.473 0 0 1 6.146 1.503 4.473 4.473 0 0 1-1.672 6.244l-23.31 13.423a4.475 4.475 0 1 1-4.475-7.748l23.311-13.422Z"/><path fill="#34A853" d="M16.655 10.503a4.467 4.467 0 0 0-5.39-4.39 4.622 4.622 0 0 0-3.52 4.553v26.66l8.902.162.009-26.985Z"/><path fill="#5BB974" d="M33.505 27.839a4.683 4.683 0 0 0 6.107-1.648 4.436 4.436 0 0 0-1.593-6.107L14.553 6.637a4.423 4.423 0 0 0-6.162 1.656 4.453 4.453 0 0 0 1.597 6.09l.044.025 23.473 13.43Z"/><path fill="#81C995" d="M37.864 27.87 16.648 39.72V29.54l16.835-9.387a4.62 4.62 0 0 1 6.576 2.45 4.466 4.466 0 0 1-2.195 5.266Z"/><path fill="#1E8E3E" d="M12.204 42a4.451 4.451 0 1 0 0-8.902 4.451 4.451 0 0 0 0 8.902Z"/></svg>