<svg xmlns="http://www.w3.org/2000/svg" width="48" height="48" fill="none"><path fill="#E535AB" fill-rule="evenodd" d="m27.076 10.126 7.402 4.273c.209-.22.452-.415.728-.576A3.216 3.216 0 0 1 39.592 15a3.216 3.216 0 0 1-2.032 4.726v8.55c.29.071.574.183.846.339A3.2 3.2 0 0 1 39.582 33a3.213 3.213 0 0 1-5.178.533l-7.358 4.247A3.212 3.212 0 0 1 24 42a3.205 3.205 0 0 1-3.078-4.116L13.52 33.61A3.211 3.211 0 0 1 8.418 33a3.215 3.215 0 0 1 2.022-4.724v-8.55A3.213 3.213 0 0 1 8.408 15a3.213 3.213 0 0 1 5.11-.604l7.405-4.275A3.205 3.205 0 0 1 24 6a3.205 3.205 0 0 1 3.076 4.125Zm-.771 1.316 7.42 4.284a3.204 3.204 0 0 0 2.309 3.992v8.562c-.042.01-.083.021-.124.033l-9.691-16.785.086-.086Zm-4.521.088-9.691 16.785a3.224 3.224 0 0 0-.127-.034v-8.563a3.204 3.204 0 0 0 2.308-3.996l7.418-4.283c.03.03.06.061.092.09Zm3.113.76 9.688 16.781a3.214 3.214 0 0 0-.903 1.566H14.318a3.217 3.217 0 0 0-.902-1.562l9.69-16.784a3.217 3.217 0 0 0 1.79 0Zm1.476 24.34 7.372-4.256a3.206 3.206 0 0 1-.06-.21H14.314l-.033.124 7.408 4.277A3.199 3.199 0 0 1 24 35.583a3.2 3.2 0 0 1 2.373 1.047Z" clip-rule="evenodd"/></svg>