<svg xmlns="http://www.w3.org/2000/svg" width="48" height="48" fill="none"><path fill="#8CC63F" fill-rule="evenodd" d="M20.648 40.772a3.227 3.227 0 1 0 5.922-1.774l1.534-.306A2.336 2.336 0 0 0 30 36.004a2.333 2.333 0 0 0-2.693-1.912l-7.197 1.223a.397.397 0 0 1-.458-.325v-.002a.397.397 0 0 1 .326-.457l8.08-1.366a2.334 2.334 0 0 0 1.914-2.69l-12.289-.696a2.336 2.336 0 0 0 2.69 1.914l7.232-1.221a.396.396 0 0 1 .458.325v.002a.398.398 0 0 1-.326.457l-8.081 1.365a2.334 2.334 0 1 0 .776 4.603l7.201-1.223a.396.396 0 0 1 .457.324.4.4 0 0 1-.326.46l-.014.003-3.8.758h-.076a3.227 3.227 0 0 0-3.227 3.226Zm4.517 0c0-.645-.474-1.18-1.093-1.276l-.024.005-.001-.008a1.29 1.29 0 1 0 1.119 1.28Z" clip-rule="evenodd"/><path fill="#8CC63F" d="m17.684 29.779 12.289.695a2.333 2.333 0 0 0-2.69-1.911l-7.23 1.221a.4.4 0 0 1-.46-.329.397.397 0 0 1 .2-.412l.128-.045 7.923-1.318 1.515-.27c.399-.86.772-1.145 1.332-1.572.262-.2.566-.432.932-.769l.089-.081c1.119-1.028 2.43-2.233 3.616-4.135 2.599-4.171 1.64-12.139-5.615-15.723a1.729 1.729 0 1 0-.65 2.028c5.864 3.09 6.404 9.499 4.482 12.583-1.033 1.658-2.166 2.7-3.29 3.732l-.054.049c-.709.652-1.437 1.322-2.074 2.148l-7.344 1.222c-.782-1.56-1.905-2.596-2.984-3.588l-.053-.049c-1.125-1.033-2.258-2.074-3.29-3.732-1.888-3.028-1.401-9.26 4.167-12.412a1.729 1.729 0 1 0-.538-2.098c-7.07 3.632-7.987 11.49-5.413 15.621 1.185 1.903 2.497 3.108 3.616 4.136l.089.081c.97.892 1.746 1.627 2.317 2.595a2.332 2.332 0 0 0-1.01 2.333Z"/><path fill="#8CC63F" d="M24.993 19.872V17.22h2.65v-2.1h-2.65v-2.653H22.89v2.653h-2.65v2.101h2.652v2.652h2.102Z"/></svg>