<svg xmlns="http://www.w3.org/2000/svg" width="48" height="48" fill="none"><path fill="#000" fill-rule="evenodd" d="M5 7h19.581C37.887 7 43 14.486 43 23.947c0 11.318-7.147 17.007-18.419 17.007H5V7Zm1.86 2.036v30.002h17.72c10.692 0 16.502-5.15 16.502-15.031 0-10.18-6.275-14.971-16.501-14.971H6.859Zm5.229 15.51c1.957 0 3.544-1.635 3.544-3.653 0-2.017-1.587-3.653-3.544-3.653-1.958 0-3.545 1.636-3.545 3.653 0 2.018 1.587 3.653 3.545 3.653Zm-2.847 1.557h5.694v10.42H9.242v-10.42Z" clip-rule="evenodd"/><path fill="#D50072" fill-rule="evenodd" d="M34.633 17.54h1.627v5.03h2.382c-.639-9.162-7.67-11.198-14.06-11.198h-6.799v6.168h.988c1.86 0 2.963 1.257 2.963 3.353s-1.104 3.354-2.905 3.354h-1.046v12.276h6.798c10.4 0 13.945-4.97 14.12-12.276h-4.068V17.54Zm-7.844 5.03v1.676h-4.067V17.54h3.95v1.677H24.35v.779h2.208v1.676h-2.15v.899h2.382Zm.697 1.676 1.976-6.707h2.324l1.975 6.707h-1.684l-.35-1.257h-2.149l-.349 1.257h-1.743Zm2.575-2.994h-.018v.06l.018-.06Zm0 0h1.144l-.523-1.856h-.058l-.563 1.856ZM17.783 22.57v-3.354h.988c.639 0 1.336.18 1.336 1.677s-.639 1.677-1.336 1.677h-.988Z" clip-rule="evenodd"/></svg>