<svg xmlns="http://www.w3.org/2000/svg" width="48" height="48" fill="none"><path fill="#49021F" d="M6 19.029c0-4.56 0-6.841.888-8.583a8.143 8.143 0 0 1 3.558-3.558C12.188 6 14.468 6 19.03 6h9.942c4.56 0 6.841 0 8.583.888a8.143 8.143 0 0 1 3.558 3.558C42 12.188 42 14.468 42 19.03v9.942c0 4.56 0 6.841-.888 8.583a8.143 8.143 0 0 1-3.558 3.558C35.812 42 33.532 42 28.97 42h-9.94c-4.56 0-6.841 0-8.583-.888a8.143 8.143 0 0 1-3.558-3.558C6 35.812 6 33.532 6 28.97v-9.94Z"/><path fill="#F36" d="M18.333 16.537v15.778c0 .165-.073.248-.218.248h-2.922c-.129 0-.193-.083-.193-.248V16.537c0-.132.072-.198.217-.198h2.923c.11-.016.208.084.193.198Zm8.645 16.273a7.323 7.323 0 0 1-3.224-.693c-2.146-1.02-3.079-3.274-3.079-5.598-.018-2.318 1.21-4.527 3.212-5.623 1.383-.785 3.009-.985 4.564-.842v-4.88c0-.115.049-.173.145-.173h3.043a.131.131 0 0 1 .145.149v14.638c0 .604.06 1.206.097 1.809a.262.262 0 0 1-.145.247 11.73 11.73 0 0 1-2.44.743c-.764.145-1.54.22-2.318.223Zm1.473-3.071v-6.762c-2.195-.61-4.347 1.066-4.346 3.393-.053 2.437 2.12 4.037 4.346 3.369Z"/></svg>