<svg xmlns="http://www.w3.org/2000/svg" width="48" height="48" fill="none"><path fill="#000" d="M36.835 25.81c0 .32-.123.629-.342.856a1.146 1.146 0 0 1-.825.354c-.31 0-.606-.128-.825-.354a1.233 1.233 0 0 1-.342-.856V15c0-.32.123-.629.342-.855.219-.227.515-.355.825-.355.31 0 .606.128.825.355.219.226.342.534.342.855v10.81Zm-.405 7.49c-.155.16-4.494 3.91-12.45 3.91-7.955 0-12.265-3.73-12.448-3.89a1.19 1.19 0 0 1-.28-.364 1.225 1.225 0 0 1 .145-1.316 1.14 1.14 0 0 1 1.64-.13c.067.05 3.943 3.31 10.934 3.31s10.897-3.28 10.935-3.31a1.158 1.158 0 0 1 1.65.13 1.219 1.219 0 0 1-.117 1.67l-.01-.01ZM11.117 15c.017-.322.157-.623.388-.839a1.15 1.15 0 0 1 .846-.31c.288.016.56.143.763.355.203.213.323.495.337.794v10.79c0 .32-.123.629-.342.856a1.146 1.146 0 0 1-.825.354c-.31 0-.606-.128-.825-.354a1.233 1.233 0 0 1-.342-.856V15Zm5.853-2.4c.018-.322.157-.623.389-.839.23-.215.535-.327.846-.31.287.016.56.143.762.355.203.213.323.495.337.794v16c0 .32-.123.629-.342.856a1.146 1.146 0 0 1-.825.354c-.31 0-.606-.127-.825-.354a1.233 1.233 0 0 1-.342-.856v-16Zm5.883-.6c0-.32.122-.629.341-.855.22-.227.516-.355.825-.355.31 0 .607.128.825.355.22.226.342.534.342.855v17.4c0 .32-.123.629-.342.856a1.146 1.146 0 0 1-.825.354c-.31 0-.606-.127-.825-.354a1.233 1.233 0 0 1-.341-.856V12Zm5.785.6c0-.32.123-.629.342-.855.219-.227.516-.355.825-.355.31 0 .606.128.825.354.219.227.342.535.342.856v16c0 .32-.123.629-.342.856a1.146 1.146 0 0 1-.825.354c-.31 0-.606-.127-.825-.354a1.234 1.234 0 0 1-.342-.856v-16ZM37.153 6H10.847a4.223 4.223 0 0 0-1.672.334 4.349 4.349 0 0 0-1.422.972A4.532 4.532 0 0 0 6.8 8.77a4.665 4.665 0 0 0-.34 1.73v27c.002.594.118 1.182.34 1.73.221.548.546 1.046.953 1.464.408.418.89.748 1.422.972.53.225 1.099.338 1.672.334h26.306a4.23 4.23 0 0 0 1.67-.333 4.35 4.35 0 0 0 1.42-.97c.408-.417.732-.913.955-1.46a4.666 4.666 0 0 0 .343-1.727V10.5a4.666 4.666 0 0 0-.34-1.728 4.534 4.534 0 0 0-.95-1.462 4.351 4.351 0 0 0-1.419-.973A4.224 4.224 0 0 0 37.162 6"/></svg>