<svg xmlns="http://www.w3.org/2000/svg" width="48" height="48" fill="none"><path fill="#0056A8" d="M39.809 6H8.19A2.19 2.19 0 0 0 6 8.191V39.81A2.19 2.19 0 0 0 8.191 42H39.81c1.21 0 2.191-.981 2.191-2.191V8.19A2.192 2.192 0 0 0 39.809 6Z"/><path fill="#fff" d="M24.007 19.697a4.174 4.174 0 1 0 0-8.347 4.174 4.174 0 0 0 0 8.347Z"/><path fill="#fff" fill-rule="evenodd" d="M27.537 20.827c.457 0 .87.057 1.237.176.68.216 1.206.619 1.62 1.08.623.696 1.152 1.657 1.699 2.652v.001l.243.44.043.077c.017.03.034.06.05.092.585 1.046 1.216 2.177 1.202 3.573-.014 1.465-.716 2.522-1.439 3.31-.978 1.069-2.274 2.364-4.245 2.339-.993-.014-1.921-.572-1.763-1.727.084-.617.501-.988.916-1.357.184-.165.369-.329.523-.514-2.457.255-3.519-.99-4.461-2.483a6.44 6.44 0 0 1-.264-.476c-.273-.525-.557-1.069-1.14-1.179-1.529-.287-1.345 1.472-.97 2.447.043.115.124.263.208.417.15.274.31.569.295.734-.043.443-.918.623-1.403.72a8.102 8.102 0 0 1-.774.098c-.396.038-.779.075-1.061.19.174.369.624.543 1.017.695l.062.024c.41.159.885.292 1.367.396.653.14 1.335.15 2.012.16.45.005.898.011 1.334.056 1.008.104 2.159 1 1.583 2.339-.42.978-1.687 1.507-3.058 1.583-2.346.13-5.166-1.076-6.368-2.16a5.018 5.018 0 0 1-1.62-4.1c.123-1.706.95-3.383 1.62-4.714.099-.197.197-.395.294-.594.73-1.482 1.46-2.966 2.764-3.76a3.845 3.845 0 0 1 1.979-.535h6.498Zm2.515 6.713a2.878 2.878 0 1 1-5.757 0 2.878 2.878 0 0 1 5.756 0Z" clip-rule="evenodd"/></svg>