<svg xmlns="http://www.w3.org/2000/svg" width="48" height="48" fill="none"><path fill="#F06" d="M42 6H6v36h36V6Z"/><path fill="#fff" d="M20.289 15.496a2.07 2.07 0 0 1-2.04 2.089 2.076 2.076 0 0 1-2.099-2.07 2.07 2.07 0 0 1 4.139-.02Zm-6.578 14.72a7.064 7.064 0 0 1 .186-1.553l1.577-6.433h-2.438l.74-2.736h5.864l-2.316 9.186c-.13.46-.202.935-.216 1.413 0 .59.288.761.74.864.276.061 2.47.018 3.665-2.637l1.521-6.083h-2.471l.742-2.736h5.277l-.678 3.105c.926-1.73 2.778-3.372 4.6-3.372 1.945 0 3.55 1.385 3.55 4.04a7.846 7.846 0 0 1-.34 2.25l-.989 3.55a4.1 4.1 0 0 0-.154.958c0 .618.25.926.712.926.462 0 1.048-.34 1.727-2.223l1.358.525c-.802 2.81-2.253 3.982-4.075 3.982-2.13 0-3.148-1.267-3.148-2.995a5.444 5.444 0 0 1 .216-1.544l1.018-3.642c.108-.36.16-.735.155-1.111 0-1.174-.71-1.884-1.852-1.884-1.452 0-2.408 1.041-2.902 3.049l-1.977 7.92h-3.456l.62-2.492c-1.014 1.67-2.427 2.705-4.168 2.705-2.1 0-3.088-1.21-3.088-3.031Z"/></svg>