<svg xmlns="http://www.w3.org/2000/svg" width="48" height="48" fill="none"><path fill="url(#a)" d="M19.837 20.569 17.42 21.58 19.613 6l8.268 4.556-8.044 10.013Z"/><path fill="url(#b)" d="M18.544 27.6 19.725 6 9.319 12.525 6 32.438 18.544 27.6Z"/><path fill="url(#c)" d="m41.269 16.8-4.613-9.45-8.775 3.206-6.412 7.088L6 32.438l11.7 8.55 14.625-13.276L41.269 16.8Z"/><path fill="url(#d)" d="m21.131 21.356-2.025 12.319 8.213 6.356 9 1.969L42 29.175l-20.869-7.819Z"/><path fill="#000" d="M35.25 12.75h-22.5v22.5h22.5v-22.5Z"/><path fill="#fff" d="M14.887 31.031h8.438v1.407h-8.438V31.03ZM14.72 20.4a4.734 4.734 0 0 1 4.837-4.837c1.744 0 2.813.562 3.656 1.462l-1.293 1.519c-.732-.675-1.463-1.069-2.363-1.069-1.575 0-2.7 1.294-2.7 2.925 0 1.575 1.125 2.925 2.7 2.925 1.069 0 1.744-.45 2.475-1.069l1.294 1.294c-.956 1.012-2.025 1.688-3.825 1.688A4.781 4.781 0 0 1 14.72 20.4Zm10.012-4.725h2.081v7.594h4.05v1.744h-6.13v-9.338Z"/><defs><linearGradient id="a" x1="17.444" x2="29.479" y1="13.791" y2="13.791" gradientUnits="userSpaceOnUse"><stop stop-color="#ED358C"/><stop offset=".16" stop-color="#E9388C"/><stop offset=".3" stop-color="#DE418C"/><stop offset=".43" stop-color="#CC508C"/><stop offset=".57" stop-color="#B2658D"/><stop offset=".7" stop-color="#90808D"/><stop offset=".83" stop-color="#67A18E"/><stop offset=".95" stop-color="#37C78F"/><stop offset="1" stop-color="#22D88F"/></linearGradient><linearGradient id="b" x1="15.163" x2="-1.118" y1="10.615" y2="40.069" gradientUnits="userSpaceOnUse"><stop offset=".09" stop-color="#22D88F"/><stop offset=".9" stop-color="#029DE0"/></linearGradient><linearGradient id="c" x1="3750.89" x2="-157.371" y1="-22215.6" y2="-26973.4" gradientUnits="userSpaceOnUse"><stop offset=".09" stop-color="#22D88F"/><stop offset=".9" stop-color="#029DE0"/></linearGradient><linearGradient id="d" x1="1386.65" x2="2291.49" y1="-15236.4" y2="-15412" gradientUnits="userSpaceOnUse"><stop offset=".09" stop-color="#22D88F"/><stop offset=".9" stop-color="#029DE0"/></linearGradient></defs></svg>