<svg xmlns="http://www.w3.org/2000/svg" width="48" height="48" fill="none"><path fill="#0481A3" d="M10.829 10.573h25.798c.564 0 .983.524.86 1.075L33.85 27.809a1.23 1.23 0 0 1-1.2.96H6.986a.985.985 0 0 1-.961-1.199l3.564-16.002a1.27 1.27 0 0 1 1.24-.995Z"/><path fill="#14BEF0" d="M22.127 14.974h19.188c.439 0 .764.406.668.833L38.76 30.224a1.097 1.097 0 0 1-1.07.858H18.441a.618.618 0 0 1-.603-.754l3.264-14.535a1.05 1.05 0 0 1 1.024-.82Z"/><path fill="#73D8F4" d="M22.128 14.974c-.491 0-.917.34-1.025.82L18.19 28.768h14.462a1.23 1.23 0 0 0 1.2-.96l2.887-12.835h-14.61Z"/><path fill="#6ABA2F" d="M15.86 19.784h8.782c.475 0 .826.441.72.904l-3.683 15.95a1.017 1.017 0 0 1-.992.789H11.77a.667.667 0 0 1-.65-.814l3.595-15.915a1.174 1.174 0 0 1 1.145-.915Z"/><path fill="#B8EC00" d="M17.839 30.328a.619.619 0 0 0 .603.754h4.52l.534-2.313h-5.307l-.35 1.559Z"/><path fill="#fff" d="M24.642 19.784h-4.435l-2.018 8.985h5.307l1.865-8.081a.738.738 0 0 0-.719-.904Z"/><path fill="#81D958" d="M15.86 19.784c-.549 0-1.024.38-1.145.914l-1.823 8.071h5.297l2.018-8.985H15.86Z"/></svg>