<svg xmlns="http://www.w3.org/2000/svg" width="48" height="48" fill="none"><path fill="#4679A4" fill-rule="evenodd" d="M37.633 22.875c.012-.21.031-.419.031-.632 0-5.825-4.794-10.547-10.71-10.547a10.715 10.715 0 0 0-9.66 6.014 4.962 4.962 0 0 0-3.02-1.021c-2.728 0-4.94 2.178-4.94 4.865 0 .505.077.992.223 1.45C7.43 24.25 6 26.528 6 29.142c0 3.908 3.187 7.078 7.142 7.138l.084.005h21.297c.13.006.256.019.387.019 3.916 0 7.09-3.125 7.09-6.982 0-2.906-1.804-5.395-4.367-6.447Zm-21.969 8.028a4.193 4.193 0 0 1-1.346-2.37 5.226 5.226 0 0 1-.089-.979c0-1.325.481-2.42 1.447-3.283.965-.864 2.193-1.297 3.684-1.296 1.53 0 2.973.572 4.247 1.718.318.285.625.607.922.963l1.638 1.927c.284.388.588.723.902 1.006.842.756 1.755 1.134 2.526 1.134.656 0 1.204-.2 1.645-.604.385-.366.602-.805.65-1.312l.01-.222c0-.221-.031-.43-.095-.626a2.073 2.073 0 0 0-.576-.88c-.435-.416-.984-.622-1.65-.622-.817 0-1.626.276-2.511 1.134l-1.451-1.706-.177-.198c1.269-1.243 2.535-1.71 4.24-1.71 1.512 0 2.735.43 3.67 1.287l.022.017c.951.855 1.428 1.96 1.428 3.316 0 .336-.03.656-.09.962-.178.918-.626 1.7-1.343 2.348-.703.648-1.562 1.053-2.575 1.214a6.779 6.779 0 0 1-1.067.081c-1.565 0-3.012-.56-4.257-1.677a8.439 8.439 0 0 1-.963-1.03l-1.639-1.913a6.3 6.3 0 0 0-.888-.996c-.84-.754-1.765-1.131-2.558-1.131a2.7 2.7 0 0 0-.692.086c-.357.096-.67.273-.94.53a2.032 2.032 0 0 0-.659 1.51c0 .581.21 1.079.629 1.492l.032.03c.45.412 1.003.617 1.66.617.824 0 1.636-.277 2.52-1.143l1.444 1.685.16.192c-1.318 1.258-2.572 1.734-4.211 1.733-1.51 0-2.742-.428-3.699-1.284Z" clip-rule="evenodd"/></svg>