<svg xmlns="http://www.w3.org/2000/svg" width="48" height="48" fill="none"><path fill="#F15713" d="M7.5 41.88c0 .958.559 1.62 1.507 1.62h17.954c-2.41-4.76-5.107-9.1-8.465-13.17A68.382 68.382 0 0 1 7.5 35.927v5.953Z"/><path fill="#69AAB5" d="M7.5 12.236a68.339 68.339 0 0 1 10.97 5.578A71.79 71.79 0 0 0 27.171 4.5H9.37A1.88 1.88 0 0 0 7.5 6.389"/><path fill="#FFB1A2" d="M18.496 30.33a69.074 69.074 0 0 0 8.477-6.249 69.254 69.254 0 0 0-8.502-6.266 71.866 71.866 0 0 1-5.831 6.242 72.05 72.05 0 0 1 5.856 6.273Z"/><path fill="#F37036" d="M26.972 24.082a69.07 69.07 0 0 1-8.476 6.248c3.358 4.07 6.055 8.41 8.465 13.17h13.482c1.244 0 1.704-.883 1.244-1.675a69.752 69.752 0 0 0-14.715-17.743Z"/><path fill="#85B8C1" d="M27.17 4.502a71.869 71.869 0 0 1-8.7 13.313 69.278 69.278 0 0 1 8.503 6.266A69.773 69.773 0 0 0 41.865 6.034c.39-.68-.11-1.534-.89-1.534l-13.805.002Z"/><path fill="#F76F6D" d="M7.5 28.51a71.96 71.96 0 0 0 5.14-4.453 71.649 71.649 0 0 0-5.14-4.452v8.905Z"/><path fill="#F39D90" d="M7.5 12.236a68.33 68.33 0 0 1 10.97 5.578 71.846 71.846 0 0 1-5.83 6.243 71.656 71.656 0 0 0-5.14-4.452v-7.369Z"/><path fill="#FA8176" d="M18.496 30.33a72.05 72.05 0 0 0-5.856-6.273A71.983 71.983 0 0 1 7.5 28.51v7.417a68.378 68.378 0 0 0 10.996-5.597Z"/></svg>