<svg xmlns="http://www.w3.org/2000/svg" width="48" height="48" fill="none"><path fill="#4551FF" d="M29.747 6.063c-6.505 0-11.873 5.116-12.19 11.558C11.117 17.937 6 23.242 6 29.747c0 6.695 5.495 12.19 12.19 12.19h18.884c2.715 0 4.926-2.21 4.926-4.863V18.253c0-6.758-5.495-12.19-12.253-12.19ZM16.674 36.568c-2.527-.631-4.548-2.652-5.18-5.115-.062-.316-.062-.442-.126-.758h5.306v5.873Zm6.442.19h-4.99V25.263h4.99v11.495Zm6.758 0h-4.99V15.789h4.99v20.969Zm6.758-1.01c0 .568-.442 1.073-1.01 1.073h-4.043v-16.99h5.053v15.916Z"/></svg>