<svg xmlns="http://www.w3.org/2000/svg" width="48" height="48" fill="none"><path fill="url(#a)" d="M40.102 33.769c-.534.278-1.083.524-1.647.735a15.915 15.915 0 0 1-5.609 1.01c-7.393 0-13.832-5.086-13.832-11.612a4.918 4.918 0 0 1 2.566-4.266c-6.686.281-8.405 7.249-8.405 11.331 0 11.543 10.638 12.713 12.93 12.713 1.236 0 3.1-.36 4.218-.712l.205-.07a20.05 20.05 0 0 0 10.405-8.248.625.625 0 0 0-.831-.881Z"/><path fill="url(#b)" d="M40.102 33.769c-.534.278-1.083.524-1.647.735a15.915 15.915 0 0 1-5.609 1.01c-7.393 0-13.832-5.086-13.832-11.612a4.918 4.918 0 0 1 2.566-4.266c-6.686.281-8.405 7.249-8.405 11.331 0 11.543 10.638 12.713 12.93 12.713 1.236 0 3.1-.36 4.218-.712l.205-.07a20.05 20.05 0 0 0 10.405-8.248.625.625 0 0 0-.831-.881Z" opacity=".35"/><path fill="url(#c)" d="M20.52 41.718a12.374 12.374 0 0 1-3.553-3.334 12.611 12.611 0 0 1 4.613-18.748c.488-.23 1.32-.645 2.428-.625a5.054 5.054 0 0 1 4.014 2.03 4.98 4.98 0 0 1 .993 2.916c0-.033 3.822-12.436-12.498-12.436-6.859 0-12.499 6.509-12.499 12.219-.027 3.02.62 6.01 1.892 8.749a19.998 19.998 0 0 0 24.432 10.485 11.803 11.803 0 0 1-9.808-1.25l-.015-.006Z"/><path fill="url(#d)" d="M20.52 41.718a12.374 12.374 0 0 1-3.553-3.334 12.611 12.611 0 0 1 4.613-18.748c.488-.23 1.32-.645 2.428-.625a5.054 5.054 0 0 1 4.014 2.03 4.98 4.98 0 0 1 .993 2.916c0-.033 3.822-12.436-12.498-12.436-6.859 0-12.499 6.509-12.499 12.219-.027 3.02.62 6.01 1.892 8.749a19.998 19.998 0 0 0 24.432 10.485 11.803 11.803 0 0 1-9.808-1.25l-.015-.006Z" opacity=".41"/><path fill="url(#e)" d="M27.8 27.257c-.127.164-.516.39-.516.884 0 .408.266.8.738 1.13 2.246 1.562 6.482 1.356 6.493 1.356a9.305 9.305 0 0 0 4.729-1.305 9.589 9.589 0 0 0 4.754-8.261c.04-3.502-1.25-5.83-1.772-6.86C38.916 7.724 31.77 4 24 4A19.998 19.998 0 0 0 4 23.716c.075-5.708 5.75-10.319 12.499-10.319.546 0 3.665.053 6.561 1.574 2.553 1.34 3.89 2.959 4.82 4.563.966 1.667 1.137 3.773 1.137 4.612 0 .84-.428 2.083-1.218 3.11Z"/><path fill="url(#f)" d="M27.8 27.257c-.127.164-.516.39-.516.884 0 .408.266.8.738 1.13 2.246 1.562 6.482 1.356 6.493 1.356a9.305 9.305 0 0 0 4.729-1.305 9.589 9.589 0 0 0 4.754-8.261c.04-3.502-1.25-5.83-1.772-6.86C38.916 7.724 31.77 4 24 4A19.998 19.998 0 0 0 4 23.716c.075-5.708 5.75-10.319 12.499-10.319.546 0 3.665.053 6.561 1.574 2.553 1.34 3.89 2.959 4.82 4.563.966 1.667 1.137 3.773 1.137 4.612 0 .84-.428 2.083-1.218 3.11Z"/><defs><radialGradient id="b" cx="0" cy="0" r="1" gradientTransform="matrix(14.9014 0 0 14.1564 28.564 31.88)" gradientUnits="userSpaceOnUse"><stop offset=".72" stop-opacity="0"/><stop offset=".95" stop-opacity=".53"/><stop offset="1"/></radialGradient><radialGradient id="d" cx="0" cy="0" r="1" gradientTransform="matrix(3.35695 -22.15492 17.8989 2.71207 15.03 35.092)" gradientUnits="userSpaceOnUse"><stop offset=".76" stop-opacity="0"/><stop offset=".95" stop-opacity=".5"/><stop offset="1"/></radialGradient><radialGradient id="e" cx="0" cy="0" r="1" gradientTransform="matrix(-1.26504 31.6261 -67.35704 -2.69427 8.042 11.402)" gradientUnits="userSpaceOnUse"><stop stop-color="#35C1F1"/><stop offset=".11" stop-color="#34C1ED"/><stop offset=".23" stop-color="#2FC2DF"/><stop offset=".31" stop-color="#2BC3D2"/><stop offset=".67" stop-color="#36C752"/></radialGradient><radialGradient id="f" cx="0" cy="0" r="1" gradientTransform="matrix(4.25815 14.5994 -11.87222 3.46273 41.508 16.093)" gradientUnits="userSpaceOnUse"><stop stop-color="#66EB6E"/><stop offset="1" stop-color="#66EB6E" stop-opacity="0"/></radialGradient><linearGradient id="a" x1="13.175" x2="41.038" y1="31.661" y2="31.661" gradientUnits="userSpaceOnUse"><stop stop-color="#0C59A4"/><stop offset="1" stop-color="#114A8B"/></linearGradient><linearGradient id="c" x1="27.864" x2="10.461" y1="19.575" y2="38.531" gradientUnits="userSpaceOnUse"><stop stop-color="#1B9DE2"/><stop offset=".16" stop-color="#1595DF"/><stop offset=".67" stop-color="#0680D7"/><stop offset="1" stop-color="#0078D4"/></linearGradient></defs></svg>