<svg xmlns="http://www.w3.org/2000/svg" width="48" height="48" fill="none"><path fill="#8D6748" d="m38.88 33.7-13.914 8.04a1.92 1.92 0 0 1-1.932 0L9.12 33.7a1.932 1.932 0 0 1-.966-1.661V15.96c0-.695.367-1.314.966-1.662L23.033 6.26a1.92 1.92 0 0 1 1.932 0l13.913 8.038c.6.348.966.986.966 1.662v16.08a2.018 2.018 0 0 1-.966 1.661Z"/><path fill="#fff" d="M23.98 8.444c-.29 0-.58.078-.83.232l-12.02 6.938c-.522.29-.83.85-.83 1.43v13.874c0 .599.308 1.14.83 1.43l12.02 6.937c.25.155.54.232.83.232.29 0 .58-.077.831-.232l12.02-6.937c.522-.29.83-.85.83-1.43V17.043c0-.599-.308-1.14-.83-1.43L24.81 8.677a1.587 1.587 0 0 0-.83-.232Zm0 .58c.194 0 .368.058.542.155l12.019 6.937c.329.193.541.56.541.947v13.874c0 .387-.212.754-.541.947l-12.02 6.937a1.093 1.093 0 0 1-.54.155c-.194 0-.387-.058-.542-.155L11.42 31.884a1.111 1.111 0 0 1-.54-.947V17.063c0-.387.212-.754.54-.947l12.02-6.937c.173-.097.367-.155.54-.155Zm-1.11 12.097h1.623c.058 0 .096-.02.135-.058.966-1.082 1.063-3.343 1.063-4.02a.194.194 0 0 0-.193-.193h-3.633a.194.194 0 0 0-.194.194c0 .657.097 2.917 1.063 4.019a.175.175 0 0 0 .135.058Zm-.445-3.672h2.551c.096 0 .193.077.193.193 0 .542-.097 2.068-.754 2.86-.058.04-.096.058-.154.058h-1.14a.175.175 0 0 1-.136-.058c-.657-.772-.734-2.318-.753-2.86 0-.096.077-.193.193-.193Zm1.623-.985s.696-.406.27-1.14c-.25-.387-.366-.715-.27-.85-.25.309-.676.637-.212 1.333.154.174.232.54.212.657Zm-.773.058s.464-.27.174-.773c-.174-.251-.251-.483-.174-.56-.174.212-.444.425-.135.908.097.096.135.348.135.425Zm-.058 3.806h.966c.04 0 .078-.019.116-.057.329-.387.484-.986.56-1.508 0 0-.019.174-.482.348-.638.232-1.759.077-1.759.077.097.406.252.793.483 1.083.02.038.078.057.116.057Zm-7.265 5.43v-3.864h-.715l-1.18 1.816-1.178-1.816h-.715v3.884h.677v-2.763l1.198 1.797h.019l1.217-1.817v2.764h.677Zm4.328-3.787a2.245 2.245 0 0 0-.811-.154 1.9 1.9 0 0 0-.812.154 1.846 1.846 0 0 0-.638.425 1.942 1.942 0 0 0-.425.638 2.122 2.122 0 0 0-.155.773v.02c0 .27.059.54.155.772a1.843 1.843 0 0 0 1.043 1.063c.252.097.522.155.812.155.29 0 .56-.04.812-.155a1.84 1.84 0 0 0 .637-.425c.194-.193.329-.406.426-.638a2.13 2.13 0 0 0 .154-.773v-.02c0-.27-.058-.54-.154-.772a1.846 1.846 0 0 0-1.043-1.063Zm.464 1.874c0 .174-.039.348-.097.522-.077.155-.154.31-.27.425a1.545 1.545 0 0 1-.406.29 1.15 1.15 0 0 1-.522.116c-.174 0-.367-.038-.522-.116a1.545 1.545 0 0 1-.405-.29 1.31 1.31 0 0 1-.27-.444 1.675 1.675 0 0 1-.098-.541v-.02c0-.173.04-.347.097-.521.077-.155.155-.31.27-.425.117-.116.252-.213.406-.29.155-.077.329-.116.522-.116s.367.039.522.116c.154.077.29.174.406.29.116.135.212.27.27.444.058.174.097.348.097.541v.02Zm2.86-.58c.077-.154.154-.309.27-.424.116-.116.252-.213.406-.29.155-.077.31-.116.502-.116.232 0 .426.039.6.135.173.097.328.213.483.348l.444-.502c-.097-.097-.193-.174-.29-.252-.096-.077-.212-.135-.328-.193-.136-.039-.252-.077-.406-.116a3.766 3.766 0 0 0-.483-.038c-.31 0-.56.057-.812.154a1.847 1.847 0 0 0-.637.425 2.23 2.23 0 0 0-.406.638 2.04 2.04 0 0 0-.155.773v.02c0 .27.058.52.155.772.096.251.232.464.406.638.173.174.386.328.618.425.232.097.483.155.773.155.174 0 .348 0 .522-.04.135-.018.29-.076.405-.135a1.68 1.68 0 0 0 .348-.212c.116-.097.213-.174.31-.29l-.445-.444a3.62 3.62 0 0 1-.502.367c-.155.097-.368.135-.6.135-.173 0-.347-.058-.502-.116a1.204 1.204 0 0 1-.406-.29 1.31 1.31 0 0 1-.27-.444 1.677 1.677 0 0 1-.097-.541v-.02c0-.173.039-.347.097-.521Zm4.077-1.371v3.864h.676v-1.623h1.855v1.623h.677v-3.864h-.677v1.604h-1.855v-1.604h-.676Zm7.42 2.937.387.928h.715l-1.7-3.885h-.62l-1.7 3.885h.696l.406-.928H35.1Zm-.908-2.145.657 1.546h-1.314l.657-1.546Zm-22.512 4.502H36.32v-.212H11.68v.212Zm14.164-7.478c0 .077-.019.136-.019.213h10.493v-.213H25.845Zm-4.309 0h-9.855v.213h9.874c0-.077-.019-.136-.019-.213Z"/></svg>