<svg xmlns="http://www.w3.org/2000/svg" width="48" height="48" fill="none"><path fill="#008CDB" d="M27.75 25.688c-1 0-1.875.625-2.375 1.5h-14.75c-2.5 0-4.5-2.125-4.5-4.625s2-4.625 4.5-4.625h2.125c0-.5.25-1 .375-1.5.125-.125.125-.375.25-.5 1-1.875 3-3.125 5.25-3.125 2 0 3.75 1 4.875 2.5.625-.25 1.25-.5 2-.625-1.375-2.375-3.875-3.875-6.875-3.875-3.375 0-6.25 2.125-7.5 5.125h-.5C7 15.938 4 18.938 4 22.688s3 6.625 6.625 6.625H25.5c.375.875 1.25 1.5 2.375 1.5 1.375 0 2.5-1.125 2.5-2.625s-1.125-2.5-2.625-2.5ZM36 20.563c-1.5-3-4.625-5.125-8.125-5.125-4.375 0-8 3.124-8.875 7.25-2.125.25-4 1.375-5.125 3H24.75c.75-1 1.875-1.5 3.125-1.5 2.25 0 4 1.875 4 4.125s-1.875 4.125-4 4.125c-1.25 0-2.375-.626-3.125-1.5H12.625c.5 3.5 3.5 6.25 7 6.25h16.25c4.5 0 8.125-3.626 8.125-8.25 0-4.625-3.625-8.25-8-8.375Z"/></svg>