<svg xmlns="http://www.w3.org/2000/svg" width="48" height="48" fill="none"><path fill="#2B7CD3" d="M25.569 15.429H40.43c.867 0 1.569.702 1.569 1.568v14.006c0 .866-.702 1.569-1.569 1.569H25.57A1.569 1.569 0 0 1 24 31.003V16.997c0-.866.702-1.568 1.569-1.568Z"/><path fill="#41A5EE" d="M33.429 15.429a1.54 1.54 0 0 1-.463 1.105L26.57 22.93l-.608.608a2.982 2.982 0 0 1-.249.215 1.61 1.61 0 0 1-.857.248 1.537 1.537 0 0 1-1.105-.463l-7.003-7.003a1.554 1.554 0 0 1 0-2.211l7.003-7.003a1.552 1.552 0 0 1 2.21 0l7.004 7.003c.297.29.464.69.463 1.106Z"/><path fill="#103F91" d="M33.429 32.572a8.571 8.571 0 0 1-15.995 4.285 6.16 6.16 0 0 1-.428-.857 7.35 7.35 0 0 1-.326-.857 8.571 8.571 0 0 1 9.034-11.1 8.586 8.586 0 0 1 7.714 8.529Z"/><path fill="#000" d="M26.571 16.14v18.291a1.578 1.578 0 0 1-1.568 1.57h-7.997a7.37 7.37 0 0 1-.326-.858A8.571 8.571 0 0 1 24.857 24a1.536 1.536 0 0 1-1.106-.463l-7.003-7.003a1.554 1.554 0 0 1-.205-1.962h8.46a1.569 1.569 0 0 1 1.388.857c.12.217.183.462.18.711Z" opacity=".1"/><path fill="#000" d="M25.714 16.997V35.29a1.578 1.578 0 0 1-1.569 1.569h-6.71a6.155 6.155 0 0 1-.43-.858 7.343 7.343 0 0 1-.325-.857A8.571 8.571 0 0 1 24.857 24a1.537 1.537 0 0 1-1.106-.463l-7.002-7.003a1.537 1.537 0 0 1-.463-1.105h7.86c.434-.002.85.182 1.14.505.274.287.427.667.428 1.063Z" opacity=".2"/><path fill="#000" d="M25.714 16.997v16.577a1.58 1.58 0 0 1-1.568 1.569H16.68A8.571 8.571 0 0 1 24.857 24a1.537 1.537 0 0 1-1.106-.463l-7.002-7.003a1.537 1.537 0 0 1-.463-1.105h7.86c.434-.002.85.182 1.14.505.274.287.427.667.428 1.063Z" opacity=".2"/><path fill="#000" d="M24.857 16.997V24a1.537 1.537 0 0 1-1.106-.463l-7.002-7.003a1.537 1.537 0 0 1-.463-1.105h7.003a1.575 1.575 0 0 1 1.568 1.568Z" opacity=".2"/><path fill="#000" d="M24.857 24v9.574a1.58 1.58 0 0 1-1.568 1.569H16.68A8.571 8.571 0 0 1 24.857 24Z" opacity=".2"/><path fill="url(#a)" d="M7.571 15.429h15.715a1.57 1.57 0 0 1 1.571 1.57v15.716a1.57 1.57 0 0 1-1.571 1.57H7.571A1.571 1.571 0 0 1 6 32.716V17a1.57 1.57 0 0 1 1.571-1.571Z"/><path fill="#fff" d="M14.914 26.51c.289.85.46 1.387.515 1.61h.035c.052-.223.237-.798.556-1.724l2.286-6.646h2.102l-3.879 10.214h-2.25L10.456 19.75h2.162l2.295 6.76Z"/><defs><linearGradient id="a" x1="9.276" x2="21.581" y1="14.201" y2="35.514" gradientUnits="userSpaceOnUse"><stop stop-color="#2368C4"/><stop offset=".5" stop-color="#1A5DBE"/><stop offset="1" stop-color="#1146AC"/></linearGradient></defs></svg>