<svg xmlns="http://www.w3.org/2000/svg" width="48" height="48" fill="none"><path fill="#265495" d="M40.561 22.49a4.772 4.772 0 0 0-.237-.005c-1.384.003-11.337 1.094-10.837 2.108.497 1.004 6.626 1.491 10.993 1.493a1.836 1.836 0 0 0 1.516-1.932 1.839 1.839 0 0 0-1.435-1.664Zm-3.375 10.525c-3.83-2.098-9.437-4.622-10.356-3.979-.926.648 7.273 6.394 8.486 7.061l.21.112a1.839 1.839 0 0 0 2.059-.77 1.837 1.837 0 0 0-.399-2.424Zm0-17.274c.725-.58.91-1.625.399-2.422a1.839 1.839 0 0 0-2.06-.77c-.066.033-.135.07-.21.11-1.212.669-9.41 6.413-8.485 7.062.919.642 6.526-1.88 10.356-3.98ZM14.214 31.12c-1.14 3.219-2.195 4.726-4.62 4.726-.234 0-1.05-.048-1.102-.053a1.696 1.696 0 0 0-.552 3.323c.643.113 1.302.155 1.894.155 4.468 0 5.946-2.572 7.42-6.328l8.718-21.747a1.875 1.875 0 0 0-1.212-2.352 1.872 1.872 0 0 0-2.326 1.138l-6.126 16.19h-.096L9.77 9.861a1.979 1.979 0 0 0-3.67 1.463l8.115 19.796Z"/></svg>