<svg xmlns="http://www.w3.org/2000/svg" width="48" height="48" fill="none"><path fill="#00546B" d="M34.41 34.348c1.273-.538 2.791-.734 4.75-.685-.055-.367-.755-.802-1.268-1.121a6.834 6.834 0 0 1-.422-.275 43.459 43.459 0 0 0-2.448-1.665c-.268-.164-.654-.3-1.026-.432a9.144 9.144 0 0 1-.664-.253 8.98 8.98 0 0 0-.75-.246c-.684-.205-1.489-.445-1.747-.807-.666-.866-1.13-1.912-1.594-2.957l-.144-.324c-.243-.555-.514-1.121-.785-1.69a52.388 52.388 0 0 1-.88-1.91c-.119-.257-.208-.501-.297-.741a7.573 7.573 0 0 0-.389-.923c-1.787-3.453-4.431-6.342-7.64-8.374-1.052-.661-2.227-1.274-3.525-1.69-.396-.119-.835-.138-1.279-.157-.378-.017-.76-.033-1.12-.112h-.515c-.297-.082-.56-.32-.805-.542-.12-.107-.233-.21-.345-.29-.76-.515-1.518-.858-2.424-1.225-.319-.147-1.225-.49-1.543-.22-.196.049-.294.122-.343.318-.196.294-.024.735.098 1.004.243.518.55.897.864 1.285.162.199.325.4.483.625l.234.326c.361.5.75 1.038.99 1.56.34.73.582 1.504.823 2.275.21.673.421 1.345.695 1.985.22.514.563 1.101.882 1.567.1.136.23.259.361.383.224.21.452.426.545.719.238.396-.2 1.533-.465 2.223-.062.162-.115.299-.148.396-.636 2.008-.514 4.8.22 6.538.027.06.053.123.08.186.267.639.554 1.325 1.267 1.503.023-.022.025-.03.03-.033.005-.004.015-.002.068-.016.036-.281.067-.56.097-.836.114-1.042.221-2.028.589-2.861.175-.43.464-.777.746-1.116a7.3 7.3 0 0 0 .43-.549c.154.093.211.305.27.522.033.125.067.252.121.36l.07.166c.298.713.62 1.48.983 2.184.808 1.567 1.714 3.085 2.742 4.456.343.49.833 1.029 1.273 1.47.067.058.137.108.206.157.132.095.26.187.358.332h.049v.073c-.465-.17-.822-.537-1.17-.895a5.531 5.531 0 0 0-.618-.574c-1.102-.832-2.424-2.08-3.183-3.28a55.123 55.123 0 0 0-.748-1.525l-.256-.508v-.049c-.093.125-.108.25-.124.4-.01.085-.02.18-.047.286a8.26 8.26 0 0 0-.18 1.063c-.108.88-.208 1.682-.995 1.997-1.25.515-2.18-.832-2.571-1.444-1.249-2.033-1.592-5.46-.71-8.227.068-.213.115-.44.162-.668.09-.426.177-.85.4-1.168-.048-.295-.217-.447-.383-.596a1.575 1.575 0 0 1-.228-.237c-.343-.465-.637-1.004-.906-1.518-.392-.764-.698-1.642-.995-2.493-.093-.266-.185-.53-.279-.788a5.365 5.365 0 0 1-.191-.642c-.057-.223-.112-.442-.2-.655-.232-.502-.615-1.003-.97-1.469a29.36 29.36 0 0 1-.279-.368c-.095-.137-.222-.295-.362-.472-.69-.867-1.73-2.172-1.18-3.494 1.028-2.522 4.627-.613 6.023.269.14.09.287.22.44.354.221.196.454.401.686.503.306.012.612.03.918.049.306.018.612.037.918.049l.3.07c1.037.24 2.007.464 2.834.934 4.212 2.473 6.954 4.995 9.476 9.157.342.56.576 1.15.814 1.75.136.345.274.693.435 1.041.612 1.42 1.298 2.914 2.007 4.26.09.179.173.363.257.548.214.474.43.95.747 1.338.114.163.37.25.614.333.123.042.243.083.341.132.317.163.66.311 1.006.46.536.232 1.079.467 1.54.764 1.42.882 2.792 1.934 4.04 3.012.253.226.462.502.671.778.176.233.352.465.554.667v.22c-.392.122-.784.245-1.176.343-.426.11-.828.152-1.227.195-.403.043-.802.086-1.22.196l-.163.047c-.482.139-1.044.301-1.527.345l.049.05c.236.67 1.239 1.248 2.061 1.722.287.165.552.317.754.456a11.612 11.612 0 0 1 2.547 2.473c.122.122.244.238.366.354.123.117.246.233.368.356.083.119.138.255.19.388.058.142.114.282.202.396v.073c-.214-.076-.361-.23-.508-.381-.087-.091-.174-.182-.275-.255a20.32 20.32 0 0 1-.692-.499 15.973 15.973 0 0 0-.925-.652c-.473-.3-.985-.535-1.5-.772-.495-.228-.994-.458-1.462-.746-.539-.343-1.053-.735-1.567-1.126-.465-.343-.98-1.005-1.273-1.494-.075-.117-.121-.242-.166-.363-.059-.159-.115-.31-.226-.42.036-.349.374-.436.696-.52.109-.028.215-.056.308-.093Z"/><path fill="#00546B" d="M13.181 12.508a3.878 3.878 0 0 1 1.004-.123c.078.078.175.144.272.21.15.102.3.206.39.354.054.076.089.152.124.228.044.095.088.19.17.286 0 .587-.172.98-.515 1.224l-.049.05c-.098-.197-.19-.392-.281-.588-.092-.196-.184-.392-.282-.588-.095-.134-.206-.256-.316-.379-.174-.192-.348-.386-.468-.625h-.049v-.05Z"/></svg>