<svg xmlns="http://www.w3.org/2000/svg" width="48" height="48" fill="none"><path fill="#009639" d="M8.41 33.007c.163.29.4.508.69.672l13.982 8.062c.581.345 1.29.345 1.852 0l13.983-8.062c.58-.327.926-.945.926-1.617V15.939a1.84 1.84 0 0 0-.926-1.617L24.934 6.26a1.787 1.787 0 0 0-1.852 0L9.1 14.32a1.82 1.82 0 0 0-.945 1.617V32.08c0 .327.073.635.255.926Z"/><path fill="#fff" d="M19.523 30.156a1.79 1.79 0 0 1-1.798 1.798 1.79 1.79 0 0 1-1.798-1.798v-12.33c0-.962.854-1.743 2.034-1.743.854 0 1.852.345 2.452 1.09l.544.653 7.518 8.989v-8.953a1.79 1.79 0 0 1 1.798-1.797 1.79 1.79 0 0 1 1.798 1.797v12.33c0 .963-.854 1.744-2.034 1.744-.854 0-1.852-.346-2.452-1.09l-8.062-9.624v8.934Z"/></svg>