<svg xmlns="http://www.w3.org/2000/svg" width="48" height="48" fill="none"><path fill="#1E2226" fill-rule="evenodd" d="m29.152 6.082-19.98 1.47C7.562 7.692 7 8.742 7 10.002v21.836c0 .981.35 1.82 1.192 2.94l4.696 6.09c.772.98 1.473 1.19 2.946 1.12l23.202-1.4c1.963-.14 2.524-1.05 2.524-2.59V13.431c0-.796-.315-1.026-1.244-1.704l-.16-.116-6.377-4.479c-1.542-1.12-2.173-1.26-4.627-1.05ZM16.36 13.028c-1.894.128-2.325.157-3.4-.716l-2.736-2.17c-.28-.28-.14-.63.561-.7l19.209-1.4c1.611-.14 2.453.42 3.084.91l3.294 2.38c.14.07.49.49.07.49l-19.837 1.19-.245.016Zm-2.21 24.76V16.93c0-.91.28-1.33 1.122-1.4l22.782-1.33c.773-.07 1.122.42 1.122 1.33v20.716c0 .91-.14 1.682-1.402 1.751l-21.801 1.26c-1.262.07-1.823-.35-1.823-1.47ZM35.672 18.05c.14.63 0 1.26-.632 1.331l-1.05.21v15.397c-.912.49-1.753.77-2.454.77-1.122 0-1.403-.35-2.244-1.4l-6.87-10.778v10.428l2.174.49s0 1.26-1.754 1.26l-4.836.28c-.14-.28 0-.98.49-1.12l1.262-.349V20.781l-1.752-.14c-.14-.631.21-1.54 1.192-1.61l5.187-.35 7.15 10.918V19.94l-1.822-.209c-.14-.77.42-1.33 1.121-1.4l4.838-.281Z" clip-rule="evenodd"/></svg>