<svg xmlns="http://www.w3.org/2000/svg" width="48" height="48" fill="none"><path fill="#FF4081" d="M28 37.856 12 10.144h8l16 27.712h-8Z"/><path fill="#fff" fill-opacity=".2" d="m28 37.856 4-6.928 4 6.928h-8Z"/><path fill="#fff" fill-opacity=".1" d="m24 30.928 4 6.928 4-6.928h-8Z"/><path fill="#000" fill-opacity=".1" d="m20 24 4 6.928L28 24h-8Z"/><path fill="#000" fill-opacity=".2" d="m20 24 4-6.928L28 24h-8Z"/><path fill="#000" fill-opacity=".3" d="M16 17.072 20 24l4-6.928h-8Z"/><path fill="#000" fill-opacity=".4" d="m16 17.072 4-6.928 4 6.928h-8Z"/><path fill="#000" fill-opacity=".5" d="m12 10.144 4 6.928 4-6.928h-8Z"/><path fill="#536DFE" d="M12 37.856 4 24l4-6.928 12 20.784h-8Z"/><path fill="#fff" fill-opacity=".2" d="m12 37.856 4-6.928 4 6.928h-8Z"/><path fill="#fff" fill-opacity=".1" d="m8 30.928 4 6.928 4-6.928H8Z"/><path fill="#000" fill-opacity=".1" d="m4 24 4 6.928L12 24H4Z"/><path fill="#000" fill-opacity=".2" d="m4 24 4-6.928L12 24H4Z"/><path fill="#303F9F" d="m12 24-4-6.928 4-6.928 4 6.928L12 24Z"/><path fill="#000" fill-opacity=".2" d="m16 17.072-4-6.928-4 6.928h8Z"/><path fill="#3F51B5" d="m36 37.856-4.001-6.928 4-6.928 4 6.928-4 6.928Z"/><path fill="#000" fill-opacity=".2" d="m40 30.928-4 6.928-4.001-6.928h8Z"/><path fill="#7986CB" d="M40 30.928 28 10.144h8L44 24l-4 6.928Z"/><path fill="#fff" fill-opacity=".2" d="m36 24 4 6.928L44 24h-8Z"/><path fill="#fff" fill-opacity=".1" d="m36 24 4-6.928L44 24h-8Z"/><path fill="#000" fill-opacity=".1" d="m31.999 17.072 4-6.928 4 6.928h-8Z"/><path fill="#000" fill-opacity=".2" d="m28 10.144 4 6.928 4-6.928h-8Z"/></svg>