<svg xmlns="http://www.w3.org/2000/svg" width="48" height="48" fill="none"><path fill="#468BCC" d="M8.347 25.111 5.999 17.13l7.356-10.487L27.6 25.112H8.347Z"/><path fill="#4BA8FF" d="m5.999 17.129 7.356-10.487L24 9.929l3.6 15.182L6 17.129Z"/><path fill="#468BCC" d="m13.356 6.642 10.643 3.287 10.643-3.287-7.043 18.47-14.243-18.47Z"/><path fill="#468BCC" d="m23.999 9.929 10.643-3.287L42 17.129l-14.4 7.982L24 9.929Z"/><path fill="#4BA8FF" d="M34.642 6.642 42 17.129l-2.348 7.982H27.6l7.043-18.47Z"/><path fill="#468BCC" d="m41.999 17.129-2.348 7.982L24 38.885l3.6-13.774L42 17.129Z"/><path fill="#468BCC" d="M39.651 25.111 24 38.885 8.347 25.111H39.65Z"/><path fill="#468BCC" d="M23.999 38.885 8.347 25.111 5.999 17.13l21.6 7.982-3.6 13.774Z"/><path fill="#468BCC" d="M8.347 25.111 5.999 17.13l21.6 7.982H8.347Z"/><path fill="#fff" d="m16.956 29.024 2.66 1.722-4.226 3.287 1.566-5.009Z"/><path fill="#082744" d="m16.836 28.987-1.565 5.009c-.037.117.1.211.196.136l4.226-3.287a.125.125 0 0 0-.009-.204l-2.66-1.722a.125.125 0 0 0-.188.068Zm.19.232 2.374 1.536-3.77 2.934 1.396-4.47Z"/><path fill="#fff" d="m31.043 29.024-2.661 1.722 4.226 3.287-1.565-5.009Z"/><path fill="#082744" d="m30.974 28.92-2.66 1.72a.125.125 0 0 0-.01.205l4.227 3.287a.125.125 0 0 0 .196-.136l-1.565-5.009a.125.125 0 0 0-.188-.068Zm-.002.299 1.397 4.47-3.771-2.934 2.374-1.536Z"/><path fill="#4BA8FF" d="m15.39 15.25 5.166-6.386h6.887l-3.444 11.082-8.609-4.696Z"/><path fill="#468BCC" d="M20.555 8.864h6.887l5.166 6.386-8.609 4.696-3.444-11.082Z"/><path fill="#166EBF" d="m27.442 8.864 5.166 6.386v13.305l-8.609-8.609 3.444-11.082Z"/><path fill="#0B457F" d="M32.608 15.25v13.305l-5.165 3.443-3.444-12.052 8.609-4.696Z"/><path fill="#0C3861" d="m32.608 28.555-5.165 3.443-3.444 9.235V19.946l8.609 8.609Z"/><path fill="#166EBF" d="M27.442 31.998v7.513L24 41.233l-3.444-9.235L24 19.946l3.444 12.052Z"/><path fill="#4BA8FF" d="m24 41.233-3.444-1.722v-7.513l-5.166-3.443L24 19.946v21.287Z"/><path fill="#166EBF" d="m20.556 31.998-5.166-3.443V15.25L24 19.946l-3.444 12.052Z"/><path fill="#468BCC" d="M15.39 28.555V15.25L24 19.946l-8.61 8.609Z"/><path fill="#082744" d="M27.442 8.74h-6.886a.125.125 0 0 0-.098.046l-5.165 6.386a.125.125 0 0 0-.028.078v13.312c.003.04.023.075.056.097l5.11 3.406v7.446c0 .048.026.091.069.112l3.443 1.722a.125.125 0 0 0 .112 0l3.444-1.722.006-.003a.125.125 0 0 0 .063-.109v-7.446l5.11-3.406a.125.125 0 0 0 .055-.104V15.25a.125.125 0 0 0-.028-.078L27.54 8.786a.125.125 0 0 0-.098-.047Zm-.06.25 5.1 6.305v13.193l-5.109 3.406-.006.004a.125.125 0 0 0-.05.1v7.436L24 41.094l-3.318-1.66V31.99a.125.125 0 0 0-.056-.097l-5.11-3.406V15.295l5.1-6.305h6.768Z"/><path fill="#fff" d="m17.269 18.85 4.07 1.253-4.07 1.565V18.85Zm13.461 0-4.07 1.253 4.07 1.565V18.85Z"/></svg>