<svg xmlns="http://www.w3.org/2000/svg" width="48" height="48" fill="none"><path fill="#673AB8" d="m23.999 6 15.589 9v18l-15.589 9L8.41 33V15L24 6Z"/><path fill="#fff" d="M26.332 24.032a2.387 2.387 0 1 1-4.775 0 2.387 2.387 0 0 1 4.775 0Z"/><path fill="#fff" fill-rule="evenodd" d="M12.656 32.851c1.675 2.143 6.296 1.236 11.288-1.755 4.993 2.99 9.614 3.898 11.289 1.755 1.443-1.847.157-5.27-2.857-8.819 3.014-3.549 4.3-6.972 2.857-8.82-1.675-2.142-6.296-1.234-11.289 1.756-4.992-2.99-9.613-3.898-11.288-1.755-1.443 1.847-.157 5.27 2.857 8.82-3.014 3.548-4.3 6.971-2.857 8.818Zm5.748-.43c1.384-.425 2.904-1.107 4.463-1.999a36.345 36.345 0 0 1-2.51-1.797 34.382 34.382 0 0 1-4.089-3.74 19.98 19.98 0 0 0-1.804 2.494c-1.31 2.174-1.61 3.9-.922 4.78.687.88 2.435 1.007 4.862.262Zm2.644-4.682a34.76 34.76 0 0 0 2.896 2.037c.968-.607 1.94-1.29 2.897-2.037a33.087 33.087 0 0 0 4.033-3.707 33.087 33.087 0 0 0-4.033-3.707 34.529 34.529 0 0 0-2.897-2.037c-.967.607-1.94 1.29-2.896 2.037a33.087 33.087 0 0 0-4.033 3.707 33.087 33.087 0 0 0 4.033 3.707Zm8.437 4.682c-1.384-.425-2.905-1.107-4.463-1.999a36.369 36.369 0 0 0 2.51-1.797 34.382 34.382 0 0 0 4.089-3.74 19.98 19.98 0 0 1 1.804 2.494c1.31 2.174 1.61 3.9.922 4.78-.687.88-2.435 1.007-4.862.262Zm3.94-11.736a19.987 19.987 0 0 1-1.804 2.494 34.382 34.382 0 0 0-4.088-3.74 36.369 36.369 0 0 0-2.511-1.797c1.558-.892 3.079-1.574 4.463-1.999 2.427-.745 4.175-.618 4.862.262.687.88.387 2.606-.922 4.78ZM20.356 19.44a36.345 36.345 0 0 1 2.51-1.797c-1.558-.892-3.078-1.574-4.462-1.999-2.427-.745-4.175-.618-4.862.262-.688.88-.387 2.606.922 4.78.488.81 1.095 1.649 1.804 2.494a34.382 34.382 0 0 1 4.088-3.74Z" clip-rule="evenodd"/></svg>