<svg xmlns="http://www.w3.org/2000/svg" width="48" height="48" fill="none"><path fill="#912626" d="M40.59 32.306c-1.922 1.002-11.874 5.094-13.993 6.198-2.119 1.105-3.296 1.094-4.97.294-1.673-.8-12.264-5.078-14.172-5.99C6.501 32.352 6 31.968 6 31.604v-3.639s13.788-3.001 16.014-3.8c2.226-.799 2.998-.827 4.893-.133 1.894.694 13.22 2.737 15.093 3.423v3.587c0 .36-.433.755-1.41 1.264Z"/><path fill="#C6302B" d="M40.589 28.689c-1.921 1-11.873 5.093-13.992 6.197-2.119 1.105-3.296 1.094-4.97.294-1.673-.8-12.264-5.078-14.172-5.99-1.907-.911-1.947-1.539-.073-2.273 1.874-.734 12.406-4.866 14.632-5.665 2.226-.798 2.998-.827 4.893-.133 1.894.694 11.787 4.631 13.659 5.317 1.872.686 1.944 1.251.023 2.253Z"/><path fill="#912626" d="M40.59 26.418c-1.922 1.002-11.874 5.094-13.993 6.199-2.119 1.104-3.296 1.093-4.97.293-1.673-.8-12.264-5.078-14.172-5.99C6.501 26.464 6 26.08 6 25.717v-3.64s13.788-3.001 16.014-3.8c2.226-.798 2.998-.827 4.893-.133 1.894.694 13.22 2.737 15.093 3.423v3.587c0 .36-.433.755-1.41 1.264Z"/><path fill="#C6302B" d="M40.589 22.801c-1.921 1.001-11.873 5.093-13.992 6.198-2.119 1.105-3.296 1.094-4.97.294-1.673-.8-12.264-5.079-14.172-5.99-1.907-.912-1.947-1.54-.073-2.274 1.874-.733 12.406-4.866 14.632-5.664 2.226-.799 2.998-.828 4.893-.134 1.894.694 11.787 4.631 13.659 5.317 1.872.686 1.944 1.252.023 2.253Z"/><path fill="#912626" d="M40.59 20.312c-1.922 1.002-11.874 5.094-13.993 6.199-2.119 1.104-3.296 1.093-4.97.293-1.673-.8-12.264-5.078-14.172-5.99C6.501 20.358 6 19.974 6 19.611v-3.64s13.788-3.001 16.014-3.8c2.226-.798 2.998-.827 4.893-.133 1.894.694 13.22 2.737 15.093 3.423v3.588c0 .359-.433.753-1.41 1.263Z"/><path fill="#C6302B" d="M40.589 16.695c-1.921 1.001-11.873 5.093-13.992 6.198-2.119 1.104-3.296 1.093-4.97.294-1.673-.8-12.264-5.079-14.172-5.99-1.907-.912-1.947-1.54-.073-2.274 1.874-.733 12.406-4.866 14.632-5.664 2.226-.799 2.998-.828 4.893-.134 1.894.694 11.787 4.632 13.659 5.317 1.872.686 1.944 1.252.023 2.253Z"/><path fill="#fff" d="m28.4 13.155-3.096.321-.693 1.667-1.119-1.86-3.574-.321L22.585 12l-.8-1.476 2.497.976 2.353-.77L26 12.256l2.4.899Zm-3.974 8.088-5.776-2.395 8.277-1.27-2.5 3.665Zm-8.008-7.161c2.443 0 4.424.768 4.424 1.714 0 .948-1.98 1.715-4.424 1.715-2.443 0-4.424-.767-4.424-1.714s1.98-1.715 4.424-1.715Z"/><path fill="#621B1C" d="m32.057 13.61 4.899 1.937-4.895 1.934-.004-3.87Z"/><path fill="#9A2928" d="m26.637 15.755 5.42-2.144.004 3.87-.531.207-4.893-1.933Z"/></svg>