<svg xmlns="http://www.w3.org/2000/svg" width="48" height="48" fill="none"><path fill="#81B5A1" fill-rule="evenodd" d="M24 5.973c-11.2 0-20 8.8-20 20 0 5.867 2.4 11.2 6.133 14.934 1.334 1.333 3.734 1.333 5.334.266C17.6 39.306 20.8 38.24 24 38.24c3.467 0 6.133 1.066 8.533 2.933 1.6 1.334 3.734 1.067 5.334-.533C41.6 36.907 44 31.84 44 25.973c-.267-10.933-9.067-20-20-20Zm-.267 30.4C17.6 36.373 13.6 31.84 13.6 26.24c0-5.6 4-10.133 10.133-10.133 6.134 0 10.134 4.533 10.134 10.133 0 5.6-4 10.133-10.134 10.133Z" clip-rule="evenodd"/></svg>