<svg xmlns="http://www.w3.org/2000/svg" width="48" height="48" fill="none"><path fill="#343534" fill-rule="evenodd" d="M22.204 34.793a10.793 10.793 0 1 1 0-21.586 10.79 10.79 0 0 1 9.973 14.923 10.793 10.793 0 0 1-9.973 6.663ZM40 38.071l-6.576-5.354c2.036-2.46 2.985-5.274 2.985-8.716 0-7.849-6.36-14.206-14.205-14.206C14.36 9.795 8 16.152 8 23.999c0 7.845 6.36 14.206 14.204 14.206 3.33 0 6.387-1.154 8.808-3.072l1.373 2.938H40Z" clip-rule="evenodd"/><path fill="#00BFA5" fill-rule="evenodd" d="M25.594 17.976c.205 0 .43.012.67.036 1.45.138 3.129 1.469 3.329 4.016v-.012c0 4.621-7.403 9.204-7.403 9.204s-7.403-4.759-7.403-9.204v.012c.209-2.547 1.883-3.877 3.334-4.017.235-.024.46-.035.672-.035 1.677 0 2.48.298 3.397 1.394.92-1.096 1.724-1.394 3.404-1.394" clip-rule="evenodd"/></svg>