<svg xmlns="http://www.w3.org/2000/svg" width="48" height="48" fill="none"><path fill="#00AFF0" d="M40.726 26.998c-.012.063-.02.127-.032.19l-.061-.362c.033.056.061.115.093.172a17.09 17.09 0 0 0 .283-3.082c0-2.294-.45-4.52-1.337-6.616a16.927 16.927 0 0 0-3.643-5.404A16.938 16.938 0 0 0 24.01 6.918a17.06 17.06 0 0 0-3.219.304h-.008c.06.032.12.06.177.093l-.357-.056.18-.036a10.075 10.075 0 0 0-4.72-1.18 9.996 9.996 0 0 0-7.115 2.948A10 10 0 0 0 6 16.108c0 1.71.44 3.392 1.266 4.879.011-.062.018-.124.03-.186l.062.357c-.032-.056-.06-.114-.092-.171a17.12 17.12 0 0 0-.256 2.93c0 2.295.45 4.52 1.337 6.617a16.92 16.92 0 0 0 3.642 5.403 16.907 16.907 0 0 0 5.404 3.642 16.86 16.86 0 0 0 6.617 1.338c.999 0 2-.091 2.977-.265-.057-.032-.115-.06-.173-.094l.363.063c-.063.012-.126.02-.19.031a10.056 10.056 0 0 0 4.951 1.305 9.99 9.99 0 0 0 7.115-2.947A9.992 9.992 0 0 0 42 31.894c0-1.716-.442-3.404-1.274-4.896Zm-16.648 7.33c-6.04 0-8.741-2.97-8.741-5.195 0-1.141.842-1.941 2.004-1.941 2.584 0 1.915 3.71 6.737 3.71 2.468 0 3.832-1.34 3.832-2.711 0-.825-.407-1.74-2.033-2.14l-5.371-1.341c-4.327-1.085-5.112-3.424-5.112-5.622 0-4.565 4.298-6.279 8.334-6.279 3.717 0 8.1 2.055 8.1 4.793 0 1.174-1.016 1.856-2.177 1.856-2.206 0-1.8-3.053-6.242-3.053-2.205 0-3.426.998-3.426 2.427 0 1.426 1.74 1.882 3.253 2.226l3.976.883c4.355.97 5.46 3.512 5.46 5.908 0 3.709-2.848 6.478-8.594 6.478Zm2.736 6.23c.058.033.116.062.173.094.064-.011.127-.019.19-.03l-.363-.064Zm13.88-13.37c.012-.063.02-.127.032-.19-.032-.057-.06-.116-.093-.172l.061.362ZM7.296 20.801c-.012.062-.019.124-.03.186.032.057.06.115.092.17l-.062-.356ZM20.96 7.315c-.058-.033-.118-.06-.177-.092l-.18.036.357.056Z"/></svg>