<svg xmlns="http://www.w3.org/2000/svg" width="48" height="48" fill="none"><path fill="#1A1918" d="M28.912 15.404a1.736 1.736 0 0 0-2.456 0L15.404 26.457a3.474 3.474 0 0 1-4.913-4.913l10.84-10.84a3.473 3.473 0 0 0-4.912 0l-8.385 8.384a6.948 6.948 0 0 0 9.825 9.825L28.912 17.86a1.737 1.737 0 0 0 0-2.456Zm3.684-3.684a6.946 6.946 0 0 0-9.824 0L11.719 22.772a1.738 1.738 0 0 0 2.456 2.456l11.053-11.052a3.472 3.472 0 0 1 4.912 0 1.738 1.738 0 0 0 2.456-2.456Zm3.685 11.052a1.739 1.739 0 0 0-2.457 0L22.772 33.825a3.474 3.474 0 0 1-4.913 0 1.737 1.737 0 0 0-2.455 2.456 6.947 6.947 0 0 0 9.824 0l11.053-11.053a1.738 1.738 0 0 0 0-2.456Zm3.685-3.684a6.947 6.947 0 0 0-9.825 0L19.088 30.141a1.736 1.736 0 1 0 2.456 2.456l11.052-11.053a3.473 3.473 0 1 1 4.913 4.913l-10.84 10.84a3.474 3.474 0 0 0 4.912 0l8.385-8.384a6.948 6.948 0 0 0 0-9.825Z"/></svg>