<svg xmlns="http://www.w3.org/2000/svg" width="48" height="48" fill="none"><path fill="#fff" d="M23.868 42C14.276 41.933 5.936 33.973 6 23.86 6.063 14.127 14.15 5.933 24.156 6c9.725.065 17.93 8.137 17.843 18.027.08 9.8-8.165 18.042-18.131 17.973Zm0 0C14.276 41.933 5.936 33.973 6 23.86 6.063 14.127 14.15 5.933 24.156 6c9.725.065 17.93 8.137 17.843 18.027.08 9.8-8.165 18.042-18.131 17.973Z"/><path fill="#49A32B" d="M23.885 39.609c-8.318-.057-15.55-6.96-15.494-15.731.054-8.44 7.067-15.545 15.744-15.487 8.434.056 15.55 7.056 15.474 15.633.07 8.498-7.08 15.645-15.724 15.585Zm0 0c-8.318-.057-15.55-6.96-15.494-15.731.054-8.44 7.067-15.545 15.744-15.487 8.434.056 15.55 7.056 15.474 15.633.07 8.498-7.08 15.645-15.724 15.585Z"/><path fill="#fff" d="M29.812 23.994c-.04.744-.69 1.361-1.33 1.254h-.01a1.284 1.284 0 0 1-1.286-1.283 1.304 1.304 0 0 1 1.325-1.26c.71.003 1.339.603 1.3 1.289Zm-11.409 7.209c.268.008.536.002.844.002v1.939c-1.917.324-3.497-.22-3.884-1.841a10.761 10.761 0 0 1-.245-1.813c-.04-.645.03-1.298-.019-1.943-.136-1.773-.366-2.379-2.068-2.463v-2.207c.122-.028.246-.05.37-.063.934-.047 1.327-.332 1.536-1.252.095-.516.15-1.039.168-1.564.073-1.015.047-2.046.216-3.045.245-1.443 1.141-2.145 2.622-2.223.42-.023.843-.004 1.32-.004v1.982c-.196.014-.376.042-.555.037-1.206-.037-1.268.374-1.357 1.373-.054.626.021 1.263-.021 1.892a15.052 15.052 0 0 1-.25 1.862c-.175.892-.723 1.555-1.482 2.117 1.474.96 1.642 2.45 1.737 3.964.052.814.028 1.633.11 2.442.065.628.31.789.958.808Zm1.243-8.498h.023a1.277 1.277 0 0 1 1.253 1.366 1.25 1.25 0 0 1-1.32 1.176l-.082-.001a1.272 1.272 0 0 1 .126-2.541Zm4.392 0c.771-.006 1.283.493 1.287 1.256.005.782-.48 1.283-1.247 1.286-.779.004-1.291-.49-1.296-1.247a1.22 1.22 0 0 1 1.256-1.296Zm9.197-.966c.205.766.605 1.035 1.411 1.072.132.006.264.029.445.049v2.207a1.89 1.89 0 0 1-.3.072c-1.081.067-1.574.51-1.683 1.594-.07.691-.064 1.39-.112 2.085a17.68 17.68 0 0 1-.208 2.275c-.275 1.365-1.127 2.045-2.535 2.128-.453.027-.91.005-1.398.005v-1.973c.263-.016.495-.038.728-.044.841-.02 1.138-.291 1.18-1.127.045-.917.065-1.836.106-2.754.06-1.326.423-2.511 1.659-3.339-.707-.504-1.275-1.115-1.422-1.938-.178-.998-.236-2.018-.331-3.03-.048-.506-.045-1.017-.095-1.522-.053-.546-.428-.735-.925-.747-.284-.007-.57-.001-.934-.001v-1.926c2.322-.386 3.926.387 4.075 2.608.062.933.053 1.87.113 2.803.026.507.102 1.01.226 1.503Z"/></svg>