<svg xmlns="http://www.w3.org/2000/svg" width="48" height="48" fill="none"><circle cx="24" cy="24" r="20" fill="url(#a)"/><path fill="#fff" d="M33.98 15.727c.179-1.15-.915-2.06-1.938-1.61l-20.378 8.947c-.734.322-.68 1.433.08 1.676l4.203 1.338a2.71 2.71 0 0 0 2.371-.36l9.475-6.546c.285-.198.597.209.353.46l-6.82 7.032c-.662.682-.53 1.838.265 2.337l7.636 4.788c.857.537 1.958-.003 2.118-1.037l2.636-17.025Z"/><defs><linearGradient id="a" x1="24" x2="24" y1="4" y2="44" gradientUnits="userSpaceOnUse"><stop stop-color="#37BBFE"/><stop offset="1" stop-color="#007DBB"/></linearGradient></defs></svg>