<svg xmlns="http://www.w3.org/2000/svg" width="48" height="48" fill="none"><circle cx="24" cy="24" r="21" fill="#1A1919"/><path fill="#fff" d="M38.629 23.157 39 21.884l-1.3.038c-.11 0-.89-.038-1.67-.6h.185c.78 0 1.56-.486 1.857-1.16l.557-1.236c-.706 0-1.337-.075-1.337-.075s-.52-.075-1.077-.674a2.073 2.073 0 0 0-1.485-.637c-.26 0-.445.038-.631.113.037-.113.074-.188.074-.3.186-1.16-.557-2.06-.557-2.06l-.965-1.198-.594 1.423s-.149.337-.409.487c-.074-.412-.296-.899-.705-1.348-.817-.862-1.782-.974-2.302-.974-.223 0-.408.037-.445.037l-1.189.225a4.42 4.42 0 0 1 .483-1.123l.631-1.011-1.67.187-.52-1.123-1.003.524L24 10.5l-.891.936-1.003-.524-.52 1.123-1.633-.187.631 1.011a4.4 4.4 0 0 1 .483 1.124l-1.114-.225h-.037c-.074 0-.223-.037-.483-.037-.52 0-1.485.112-2.302.973a2.51 2.51 0 0 0-.705 1.348c-.26-.15-.409-.487-.409-.487l-.594-1.422-1.002 1.235c-.112.15-.706.974-.557 2.022 0 .113.037.188.074.3a1.72 1.72 0 0 0-.631-.112 2.07 2.07 0 0 0-1.485.636c-.594.6-1.077.674-1.077.674s-.52.113-1.337.075l.557 1.236c.297.674 1.077 1.16 1.857 1.16h.185c-.78.563-1.559.6-1.67.6L9 21.884l.408 1.273c.186.637.854 1.723 2.154 1.835-.149.6-.446 1.236-1.114 1.536l-.965.412.52.936a2.379 2.379 0 0 0 2.004 1.086c.223 0 .446-.038.632-.075.037.225.111.45.185.674.297.899.037 1.535.037 1.535l-.482 1.012 1.076.3s.335.111.743.111c.186 0 .371-.037.52-.075.111-.037.26-.074.371-.112.149.262.297.487.52.674.705.712 1.67 1.086 2.896 1.086h.891l-1.82.75 1.375.673c.52.262 1.113.524 1.707.75l-.185.486.482.225c.038.037.966.45 2.488.524h1.114c1.522-.075 2.45-.487 2.488-.524l.482-.225-.185-.487a12.823 12.823 0 0 0 1.745-.786l1.373-.674-1.819-.75h.891c1.225 0 2.228-.374 2.896-1.085.186-.187.372-.45.52-.674.111.037.223.075.371.112.149.038.334.075.52.075.409 0 .743-.075.743-.075l1.076-.3-.482-1.01c0-.038-.26-.637.037-1.536.074-.225.148-.45.185-.674.186.037.409.075.632.075 1.3 0 1.893-.899 2.005-1.124l.52-.936-.966-.412c-.668-.3-1.002-.936-1.114-1.535 1.263-.075 1.968-1.161 2.154-1.798ZM24 14.357c-1.04 0-1.82.337-1.968.75l1.968.786 1.968-.787c-.149-.412-.928-.749-1.968-.749Zm.037 20.859H24c-.631 0-1.485-.113-1.894-.263l-.52 1.386c.335.113 1.449.337 2.414.337.965 0 2.116-.224 2.413-.337l-.482-1.386c-.409.15-1.263.263-1.894.263Z"/><path fill="#000" fill-rule="evenodd" d="M26.34 14.095c-.446-.374-1.3-.711-2.34-.711-1.04 0-1.856.337-2.34.711 0 0-.11-.824-.593-1.572l.854.112.445-.936.78.45.817-.825.817.824.854-.45.445.937.854-.112c-.445.748-.594 1.572-.594 1.572Zm-4.234-1.086-.222-.037-.186-.075c.111.225.186.45.223.637.557-.337 1.336-.525 2.116-.525.817 0 1.56.188 2.154.525.037-.188.111-.412.222-.637l-.445.075-.112-.225-.297-.636-.556.3-.223.112-.186-.15-.557-.6-.594.6-.148.187-.223-.112-.557-.3-.297.637-.112.224Z" clip-rule="evenodd"/><path fill="#000" d="M30.09 18.514c1.967 1.086 3.75 2.884 4.046 5.318.446 2.434 1.485 3.033 1.485 3.033-.817-.412-1.336-1.498-1.448-1.872-.148 2.134-1.188 3.595-2.376 5.018-.631.749-.854 1.46-.854 1.46s.111-.786.668-1.46c1.114-1.348 2.191-3.071 2.265-5.018.037-1.386-.297-2.51-.854-3.408.297.974.26 2.134-.78 3.22 0 0 2.08-2.508-.816-5.055-.823-.696-1.703-1.2-2.368-1.582a14.984 14.984 0 0 1-.677-.403c2.34.787 3.49-.075 3.49-.075-.742.674-1.708.674-2.302.562.186.075.335.15.52.262Z"/><path fill="#000" fill-rule="evenodd" d="M36.252 24.431c1.337 0 1.82-1.386 1.82-1.46l.148-.487h-.52c-.185 0-1.67-.038-2.71-1.386l-.074-.112-.035-.045c-.692-.881-1.322-1.684-2.49-2.052a.505.505 0 0 1 .149-.113c.63-.412.965-.898 1.076-1.498.149-.86-.408-1.572-.445-1.61l-.371-.487-.223.562c0 .037-.409.936-1.225.936h-.223c.037-.412-.037-1.01-.594-1.572-.669-.712-1.486-.787-1.894-.787-.158 0-.279.019-.349.03a.514.514 0 0 1-.06.008l-.556.112.334.45c.26.374.52 1.01.223 1.385a1.303 1.303 0 0 1-.304.199 4.828 4.828 0 0 0-.179.1l-.059.03c-.365.182-.832.415-.832 1.019 0 .412.297.824.891 1.198 1.67 1.049 2.71 2.172 3.156 3.408.705 1.872-.223 2.958-1.077 3.52l-.408.262.334.337c.037.038.483.412 1.077.487h.334c.408 0 .742-.075 1.002-.15-.05.104-.12.19-.194.282a3.95 3.95 0 0 0-.103.13c-.52.6-1.114.862-2.005.862h-.334l-.037.337v.012c-.002.114-.011.684.557 1.186a.8.8 0 0 0 .297.187c-.408.375-.78.974-.854 2.06-.074.899-.26 1.236-.297 1.236l-.371.561h.668c1.077 0 1.93-.3 2.488-.898.334-.337.52-.75.668-1.124.186.15.445.3.743.375.111.037.26.037.408.037.22 0 .419-.04.523-.062a.503.503 0 0 1 .071-.013l.408-.112-.185-.412a.273.273 0 0 0-.013-.042c-.063-.182-.316-.912.013-1.905.148-.487.26-.937.297-1.274.26.15.631.262 1.077.262.943 0 1.397-.647 1.5-.795.011-.015.018-.025.022-.028l.223-.375-.372-.15c-1.225-.524-1.522-1.91-1.56-2.658.112.037.224.037.372.037h.075Zm1.003 2.958s-.371.637-1.188.637c-1.003 0-1.411-.637-1.411-.637s.074.787-.297 1.873c-.446 1.31 0 2.247 0 2.247s-.223.075-.52.075c-.111 0-.223 0-.297-.038-.854-.187-1.04-.973-1.04-.973s.075 2.583-2.933 2.583h-.037s.26-.374.334-1.423c.149-1.91 1.448-2.172 1.448-2.172s-.705-.075-1.002-.374c-.483-.412-.446-.936-.446-.936 1.04 0 1.745-.375 2.265-.974a3.186 3.186 0 0 0 .669-1.386s-.557.525-1.671.525h-.297a1.635 1.635 0 0 1-.891-.375c1.15-.749 1.93-2.022 1.225-3.97-.557-1.572-1.93-2.733-3.305-3.594-.408-.262-.668-.6-.668-.861 0-.386.341-.552.692-.723.229-.11.461-.224.608-.401.445-.524.148-1.348-.223-1.835 0 0 .111-.037.334-.037a2.29 2.29 0 0 1 1.634.674c.742.786.445 1.647.445 1.647l.186.038c.111.037.223.037.371.037h.074c1.077 0 1.56-1.16 1.56-1.16s1.15 1.422-.557 2.546c-.297.187-.409.374-.372.562l.038.112.111.037c1.158.319 1.785 1.106 2.509 2.013l.127.16a3.912 3.912 0 0 0 3.008 1.535h.037s-.371 1.198-1.485 1.198h-.038c-.52 0-.78-.225-.78-.225s-.222 2.772 1.783 3.595Z" clip-rule="evenodd"/><path fill="#000" fill-rule="evenodd" d="M34.893 19.934c-.241-.316-.5-.653-.98-.896l-.52-.3.446-.299a.313.313 0 0 0 .07-.031c.134-.07.443-.23.821-.23.409 0 .78.186 1.077.486.742.749 1.41.824 1.448.824l.52.037-.223.487c-.223.487-.78.824-1.337.824-.123 0-.22-.026-.335-.056l-.026-.007-.047-.012c-.327-.132-.54-.38-.763-.643l-.091-.106-.06-.078Zm.691-1.083a1.03 1.03 0 0 0-.817-.374c-.32 0-.571.138-.647.18-.021.011-.029.015-.021.007.557.301.88.71 1.15 1.053.235.297.43.545.706.632.075.038.186.038.297.038.446 0 .854-.262 1.003-.6 0 0-.817-.037-1.67-.936Z" clip-rule="evenodd"/><path fill="#000" d="M14.16 24.992c-.073-1.385.298-2.471.855-3.407-.297.936-.26 2.134.78 3.22 0 0-2.043-2.471.816-5.055.823-.696 1.703-1.201 2.368-1.583.266-.152.497-.285.677-.402-2.34.786-3.49-.075-3.49-.075.742.637 1.708.637 2.302.562-.047.024-.098.047-.151.072-.115.054-.242.113-.369.19-1.968 1.086-3.75 2.883-4.047 5.317v-.037c-.446 2.434-1.485 3.033-1.485 3.033.817-.412 1.336-1.46 1.448-1.872.148 2.135 1.15 3.595 2.376 5.018.631.749.854 1.46.854 1.46s-.111-.823-.668-1.46c-1.114-1.31-2.19-2.996-2.265-4.98Z"/><path fill="#000" fill-rule="evenodd" d="M18.542 31.733c.037.899.26 1.236.26 1.236l.334.599h-.668c-1.077 0-1.894-.3-2.488-.899a2.804 2.804 0 0 1-.668-1.123c-.186.15-.409.3-.743.374-.148.038-.26.038-.408.038a2.53 2.53 0 0 1-.523-.063c-.037-.007-.062-.012-.071-.012l-.409-.113.186-.411c.037 0 .371-.824 0-1.948a5.118 5.118 0 0 1-.297-1.273c-.26.15-.631.262-1.077.262-1.04 0-1.485-.786-1.485-.786l-.223-.375.372-.15c1.225-.524 1.485-1.91 1.559-2.658-.052 0-.103.008-.159.016-.064.01-.133.021-.212.021h-.074c-1.337 0-1.82-1.385-1.82-1.46l-.148-.487h.52c.185 0 1.67-.038 2.673-1.46l.111-.113.152-.187c.648-.796 1.27-1.563 2.373-1.91-.037-.037-.074-.075-.149-.112-.63-.412-1.002-.9-1.076-1.498-.149-.9.408-1.573.445-1.61l.371-.487.223.561c0 .038.409.937 1.225.937h.223c-.037-.375.037-1.012.594-1.573a2.696 2.696 0 0 1 1.894-.787c.26 0 .408.038.408.038l.557.112-.334.45c-.26.374-.52 1.048-.223 1.385.112.112.297.225.483.3l.059.03c.365.181.832.415.832 1.018 0 .412-.334.824-.891 1.199-1.67 1.048-2.71 2.171-3.156 3.407-.705 1.873.186 2.959 1.077 3.52l.408.262-.334.337c-.037.075-.446.45-1.077.487h-.334a3.78 3.78 0 0 1-1.002-.15c.05.104.12.19.194.282.034.041.068.084.103.13.482.562 1.113.862 2.005.862h.334l.037.337v.006c.002.077.016.687-.557 1.192a.808.808 0 0 1-.297.187c.408.375.817.974.891 2.06Zm-3.007-1.16s-.075 2.583 2.933 2.583c.009 0 0-.02-.019-.065-.06-.139-.222-.518-.278-1.283-.149-1.91-1.448-2.172-1.448-2.172s.705-.112 1.002-.374c.483-.45.446-.937.446-.937-1.04 0-1.745-.374-2.265-.973a3.186 3.186 0 0 1-.668-1.386s.556.524 1.67.524h.297c.52-.037.892-.374.892-.374-1.152-.75-1.931-2.022-1.226-3.97.557-1.572 1.93-2.733 3.305-3.595.445-.3.705-.636.705-.898 0-.411-.345-.572-.698-.736-.227-.105-.456-.212-.601-.388-.409-.524-.149-1.348.222-1.835 0 0-.148-.037-.334-.037-.371 0-1.076.075-1.633.674-.743.786-.446 1.648-.446 1.648l-.186.037c-.111.037-.26.037-.37.037h-.075c-1.077 0-1.56-1.16-1.56-1.16s-1.15 1.423.557 2.546c.26.187.409.375.372.562l-.038.112-.11.038c-1.16.309-1.656.936-2.449 1.935l-.188.237c-1.151 1.497-2.822 1.535-3.007 1.535H10.3s.37 1.198 1.485 1.198h.037c.52-.037.78-.225.78-.225s.185 2.734-1.82 3.558c0 0 .371.637 1.188.637 1.003-.038 1.411-.637 1.411-.637s-.074.787.297 1.873c.446 1.31 0 2.246 0 2.246s.26.075.52.075c.074 0 .186 0 .297-.037.817-.187 1.04-.974 1.04-.974Z" clip-rule="evenodd"/><path fill="#000" fill-rule="evenodd" d="M11.785 20.798c.148 0 .297-.037.408-.075.371-.112.631-.412.854-.749.26-.337.557-.674 1.04-.973l.52-.262-.483-.337c-.037-.038-.409-.263-.891-.263-.409 0-.78.15-1.077.487-.743.787-1.411.824-1.448.824l-.483.038.223.486c.223.45.78.824 1.337.824Zm.668-1.91c.26-.3.557-.374.817-.374.371 0 .668.225.668.225-.566.305-.89.71-1.163 1.053-.229.287-.423.53-.693.632-.112.037-.186.037-.297.037-.446 0-.854-.3-1.003-.599 0-.007.032-.016.09-.032.233-.065.895-.25 1.58-.942Z" clip-rule="evenodd"/><path fill="#000" d="M23.035 17.128c.222.188.37.225.37.225l.075.037v-.449l-.816-.337c.006.033.049.265.37.524Zm-.632 11.46c-.037 0-.111.037-.111.075 0 .037.037.112.074.112s.112-.038.112-.075c.037-.075 0-.112-.075-.112Zm.929-8.576v.487c.185-.188.482-.15.482-.15v.711s0 .337-.148.487h.668c-.111-.15-.148-.487-.148-.487v-.711s.334-.038.482.15v-.487h-1.336Zm1.67-2.884c.372-.3.372-.561.372-.561l-.817.337v.449l.074-.038s.149-.037.371-.187Z"/><path fill="#000" fill-rule="evenodd" d="M26.488 15.256c0-.712-1.151-1.311-2.45-1.311-1.3 0-2.451.637-2.451 1.31l.037.188.52 2.996-.52.3-1.374.748s-.297.15-.445.262c-.52.375-.631.862-.334 1.086.074-.412.408-.86 1.04-.86.445 0 .779.224 1.076.598a.817.817 0 0 1 .186.3l.222.337h-3.453c.26.524.483 1.049.483 1.648v7.677c0 1.872 1.41 2.733 2.97 2.733h.187c1.02-.002 1.187-.002 1.818.6.603-.608.783-.607 1.684-.601l.321.001c1.523 0 2.97-.899 2.97-2.733V22.82c0-.599.223-1.123.483-1.648h-3.453l.223-.337c.022-.033.044-.063.066-.092a.736.736 0 0 0 .12-.207c.26-.337.63-.6 1.076-.6.632 0 .966.45 1.04.862.297-.225.186-.749-.334-1.086-.149-.112-.446-.262-.446-.262l-1.819-1.05.52-2.995.037-.15Zm-4.418.337 1.819.636v2.884l-1.337-.75-.482-2.77Zm.37 6.066c.298.3.595.487.855.6-.037.15-.074.449.037.748.111.225.297.412.594.562.037.3.223.75.743.936l-.52.525-2.08-.038a.308.308 0 0 0-.041-.035.343.343 0 0 1-.107-.115v-.037l.334.037h.037c.075 0 .112-.037.149-.112 0-.075-.037-.15-.111-.15l-.409-.075.446-1.61-.446-.936-.705.749-.038 1.685-.482-.075c-.074 0-.149.038-.149.112 0 .075.037.15.112.15l.185.038a.457.457 0 0 0-.111.075l-.074.037v.037c-.112.487.148.9.408 1.124v.075c0 .075 0 .15.037.187a.204.204 0 0 0 .186.112h.037c.111 0 .223-.075.26-.224h.297l2.71.486.037-.037c.223-.15 1.04-.749 1.3-.974.054.055.109.09.178.134l.082.054c-.074.3-.111.749.26 1.123h-6.906V22.82c0-.374-.112-.786-.26-1.16h3.156Zm2.73 4.157a89.21 89.21 0 0 1-.613.45l-2.487-.45v-.075c.037-.112.074-.3.074-.524l2.08.037.036-.037.055-.054c.174-.167.7-.676.985-.995.048.074.113.131.183.193.037.034.075.068.114.107 0 .262 0 .6.185.899-.13.093-.371.271-.612.449Zm-3.509-.899c.074.113.149.188.223.262 0 .113 0 .3-.037.45 0 .037 0 .075-.037.112v.038c-.112 0-.334 0-.483-.075-.186-.075-.483-.45-.408-.824.074-.038.297-.15.445-.15.149 0 .223.037.297.187Zm-.26-.487.037-1.61.372-.374.223.486-.446 1.536-.186-.038Zm4.01 8.314.297-.899c.027-.08-.079-.198-.182-.313-.041-.047-.083-.093-.115-.136a5 5 0 0 1 .221.121c.165.093.364.205.485.253-.038.038-.335.974-.335.974h-.37Zm1.3-1.049-.186 1.011c-.056 0-.12.01-.186.02-.065.008-.13.018-.185.018l.185-.974c.037-.147-.134-.24-.361-.364-.234-.127-.527-.287-.715-.572-.186.225-.52.262-.891.262-.335 0-.632-.037-.817-.075h-.149a.336.336 0 0 0-.297.15l-.074.112-1.04-.3-.26.45c-.037.075-.037.113.038.188l.074.074c-.037.15-.26.375-.26.375l-.149-.187c-.111-.15-.111-.412.038-.637l.408-.711.891.112-.148-.3c-.12-.266-.039-.58.034-.858a1.79 1.79 0 0 0 .077-.415c0 .075-.111.112-.186.112h-.334l-.223.15-.185-.187c-.037-.038-.037-.112.037-.15l.445-.487-.52-.599.743.375.223-.262c.074.074.037.224.037.224.223 0 .854.375.891 1.198v.113c.037.075.186.224.334.224l1.003.113a.772.772 0 0 0 .18-.039 1.49 1.49 0 0 1 .414-.074c.148 0 .334.038.52.15 0 0 .074-.075.222-.075h.038c.361 0 .552.272.75.555.046.065.092.131.14.194.186.262.409.637.409.637a.337.337 0 0 1-.297.15h-.111c-.282-.044-.425-.407-.546-.716-.087-.22-.163-.414-.271-.445h-.037c-.075 0-.112.075-.112.075.05.148.062.26.074.36.015.13.028.241.112.389.066.11.157.207.236.292.055.059.105.111.135.157-.111-.075-.148.075-.148.187Zm-5.421-.936.037.113c-.037.112-.371.262-.371.262l-.075-.188a.563.563 0 0 1 .186-.674l.557-.337.594.113a.63.63 0 0 0 .111.337l-.63-.113-.372.263c-.037.037-.037.15-.037.224Zm5.495 1.91.186-.899c0-.018.009-.046.018-.075a.291.291 0 0 0 .019-.075c.037.038.111.038.148.038h.186c.26 0 .408-.15.52-.262l.148-.15-.111-.187s-.26-.412-.446-.674a.51.51 0 0 1-.055-.075.524.524 0 0 0-.056-.075l-.05-.069c-.213-.29-.472-.643-.953-.643h-.037a.46.46 0 0 0-.111.02.461.461 0 0 1-.111.018 1.177 1.177 0 0 0-.52-.113c-.197 0-.365.059-.478.098l-.042.015c-.037.037-.074.037-.111.037l-.966-.112s-.037-.038-.111-.075l.223-.075c-.075-.711-.743-1.16-1.114-1.31a.206.206 0 0 0-.112-.188l-.223-.187-.185.225-.074.075-1.374-.562.89 1.123-.333.525c-.112.15 0 .262 0 .262l.371.262.371-.15h.037c0 .075-.037.3-.074.337l-.631-.075-.705.375c-.372.262-.409.711-.26.973l.185.375.223-.113c-.074.263-.037.562.111.712l.149.187.186.262.222-.224c.075-.075.26-.3.335-.487l.037-.15-.112-.112v-.038l.112-.187.854.187.185.038.112-.188.037-.075c0-.018 0-.028.004-.032.005-.005.015-.005.033-.005h.111c.334.075.631.075.891.075s.409 0 .595-.075c0 0 .445.524.482.562l-.297.861v.038c-.52.037-.78.15-1.114.486-.445-.449-.78-.486-2.005-.486-1.448 0-2.45-.862-2.45-2.247v-3.37h8.91v3.37c0 1.235-.63 2.022-1.67 2.284Zm1.93-11.01c-.148.375-.26.75-.26 1.161v2.51c-.52-.076-.593-.675-.593-.675v-.112h-.112a1.105 1.105 0 0 1-.52-.225c-.26-.262-.26-.674-.26-.674 0 .006-.007.02-.017.041-.06.115-.227.441.055.82.148.188.334.3.594.337.074.3.297.75.854.824v1.236h-1.56c-.632-.37-.459-.949-.416-1.092a.195.195 0 0 0 .008-.031l.074-.15-.111-.113c-.714-.274-.588-.924-.561-1.061l.004-.025.037-.112-.111-.037c-.6-.285-.563-1.007-.558-1.112v-.012c-.185.15-.26.487-.148.824-.074.075-.186.187-.26.3-.63-.188-.63-.824-.63-.824v-.113l-.075-.037c-.26-.112-.446-.225-.52-.45a.758.758 0 0 1-.037-.561c.037 0 .074.01.111.019a.46.46 0 0 0 .112.018h.445c.409-.037.854-.224 1.337-.711h3.119v.037Zm-2.413-2.546.594.374.149.075a1.991 1.991 0 0 0-.817.487l-.037.038a.811.811 0 0 0-.149.187s0 .037-.037.037a.655.655 0 0 1-.148.187s0 .038-.037.038a.78.78 0 0 1-.075.112c-.027.038-.055.075-.074.113-.445.748-1.114 1.198-1.745 1.198s-1.3-.45-1.745-1.198a.78.78 0 0 0-.074-.113.81.81 0 0 1-.075-.112l-.037-.038a.815.815 0 0 0-.055-.093c-.019-.028-.038-.056-.056-.094l-.037-.037c-.019-.038-.047-.066-.074-.094a.367.367 0 0 1-.075-.093l-.037-.038c-.223-.225-.483-.412-.817-.487l.149-.075.594-.374.631-.375 1.67.937 1.672-.937.742.375Zm-.817-.75-1.336.712v-2.883l1.82-.637-.484 2.809ZM24 15.894l-1.968-.787c.186-.412.929-.75 1.968-.75 1.04 0 1.82.338 1.968.75L24 15.892Z" clip-rule="evenodd"/><path fill="#000" fill-rule="evenodd" d="m28.455 34.73-.52-.226.15-.524.148-.6s-.892.488-2.191.862c-.371.113-.631.15-.631.15v.45s-.669.112-1.374.112c-.705 0-1.374-.113-1.374-.113v-.412s-.26-.037-.63-.15c-1.3-.374-2.192-.86-2.192-.86l.149.599.149.524-.52.187-.557.225c.668.337 1.56.786 2.376 1.01l-.186.525s1.04.487 2.822.487c1.745 0 2.822-.487 2.822-.487l-.186-.524c.678-.187 1.432-.553 2.03-.844.122-.06.239-.116.347-.167l-.632-.225Zm-8.836.224.854-.3-.26-.824c.371.225 1.188.525 1.67.674l-.408 1.124c-.742-.15-1.336-.412-1.856-.674Zm4.38 1.722c-.964 0-2.115-.224-2.412-.337l.482-1.385c.409.112 1.263.262 1.894.262H24c.631 0 1.485-.113 1.893-.262l.557 1.385c-.334.113-1.448.337-2.45.337Zm2.563-1.01-.409-1.124c.483-.15 1.3-.487 1.708-.674l-.297.824.854.3-.058.024c-.505.22-1.083.469-1.798.65Z" clip-rule="evenodd"/><path fill="#FCE527" d="M23.287 22.293a2.752 2.752 0 0 1-.846-.596h-3.12c.15.374.26.749.26 1.16v3.97h6.87c-.363-.366-.336-.803-.265-1.102-.09-.04-.154-.106-.218-.171a59.51 59.51 0 0 0-1.3.974l-.037.037-2.71-.487h-.297c-.037.113-.149.225-.26.225h-.037a.206.206 0 0 1-.167-.081.2.2 0 0 1-.056-.069c-.037-.037-.037-.112-.037-.187v-.062a1.026 1.026 0 0 1-.396-.625 1.03 1.03 0 0 1-.012-.512v-.037l.074-.037s.02-.021.062-.048l-.137-.027c-.074 0-.111-.075-.111-.15l.001-.017v-.02c0-.076.074-.113.148-.113l.482.075.038-1.685.705-.75.446.937-.007.024.006.014-.435 1.574.398.073c.075 0 .112.075.112.15l-.003.005.003.032c0 .075-.075.113-.149.113h-.037l-.334-.037c.026.052.07.086.107.114.016.012.03.024.042.035l2.079.038.492-.497a1.13 1.13 0 0 1-.715-.926.986.986 0 0 1-.594-.562.971.971 0 0 1-.065-.627c.005-.047.012-.09.02-.125Zm3.5 10.366.184-.889c0-.018.009-.046.018-.075.008-.024.017-.05.018-.068l.014.005a.178.178 0 0 0 .078.024.095.095 0 0 0 .02.002h.222c.26 0 .41-.15.52-.262l.15-.15-.112-.187s-.26-.412-.446-.674a.517.517 0 0 1-.055-.075.524.524 0 0 0-.056-.075l-.05-.069c-.213-.29-.472-.643-.953-.643h-.074c-.068 0-.136 0-.204.029a1.193 1.193 0 0 0-.501-.104h-.038c-.197 0-.364.059-.478.098l-.042.015c-.021.021-.03.03-.041.034a.062.062 0 0 1-.02.003h-.012l-.966-.112s-.037-.038-.111-.075h.26a1.281 1.281 0 0 0-.144-.466c-.215-.474-.683-.782-.983-.91a.202.202 0 0 0-.027-.044.203.203 0 0 0-.109-.153l-.223-.187-.185.225-.074.075-1.374-.562.114.144-.077-.032.83 1.048-.31.488c-.07.094-.052.173-.03.22-.006.081.067.154.067.154l.37.262.36-.145c-.013.09-.037.196-.062.22l-.631-.075-.705.375a.781.781 0 0 0-.333.757.714.714 0 0 0 .072.291l.186.375.203-.103a.984.984 0 0 0-.017.212.73.73 0 0 0 .148.49l.149.187.185.262.223-.224c.074-.075.26-.3.334-.487l.037-.15-.014-.015.015-.06-.096-.096.095-.129.854.188.186.037.111-.187.037-.075c0-.019 0-.028.005-.033.005-.005.014-.005.033-.005h.11l.112.013c.29.033.55.062.78.062.26 0 .408 0 .594-.075 0 0 .36.391.458.522l-.272.79v.037c-.52.037-.78.15-1.114.486-.445-.449-.78-.486-2.005-.486-1.448 0-2.45-.862-2.45-2.247v-3.258h8.91l-.037 3.37c0 1.11-.615 1.89-1.63 2.162Z"/></svg>