<svg xmlns="http://www.w3.org/2000/svg" width="48" height="48" fill="none"><path fill="#5FCF80" d="M39.051 13.947c-.449-.225-1.46-.674-2.583-1.348-1.236-.674-3.145.45-4.38 2.359l-2.135 3.594c-.786 1.573-.674 3.258.337 4.718l.113.112c1.01 1.46 2.358 2.696 2.695 3.145.225.225.45.674.562 1.011.337 1.348-.337 2.584-1.685 2.92-1.236.338-2.583-.449-3.033-1.684-.112-.337-.112-.674-.112-1.011.112-.562-.112-1.46-.899-2.134-.786-.899-2.358.786-2.808 2.358v.113c-.449 1.685-.786 3.033-.674 3.145 0 .112.113.225.113.225.674 1.348.224 2.92-1.124 3.594-1.348.674-3.032.225-3.706-1.123-.674-1.348-.225-2.92 1.123-3.595.112 0 .112-.112.225-.112.112 0 .337-.786.674-1.573.224-.786.449-1.46.449-1.46 0-.112 0-.224.112-.224l1.348-4.718-1.348 2.808c-.225-.561-.45-.561-1.123-.112-.337.224-1.011.786-1.236 1.01-.561.45-1.01 1.236-1.235 1.686-.113.337-.337.561-.562.786-1.01.898-2.583.674-3.37-.337-.786-1.011-.561-2.359.45-3.145.337-.225.674-.45 1.01-.45.562-.112 2.696-1.46 3.932-2.246.225-.112.45-.337.562-.45L24 19.452l-2.92 1.572h-.674c-.899.113-2.022.225-2.247.562-.112.112-.224.337-.45.45-.898.449-2.246.224-3.032-.675-.674-1.01-.45-2.246.45-2.92.561-.337 1.01-.45 1.46-.45.786 0 2.808.45 4.493.113l.449-.112c1.685-.337 3.707-1.685 4.493-3.258 0 0 .786-1.46 1.797-3.033 1.011-1.684.899-3.482-.112-4.156l-1.91-1.123c-1.01-.561-2.583-.561-3.594 0l-13.254 7.3c-1.011.562-1.798 2.022-1.798 3.145v14.378c0 1.123.787 2.359 1.798 2.92l13.366 7.414c1.011.561 2.584.561 3.595 0l13.141-7.526c1.011-.562 1.798-1.797 1.798-2.92V16.867c0-1.123-.787-2.358-1.797-2.92Z"/></svg>