<svg xmlns="http://www.w3.org/2000/svg" width="48" height="48" fill="none"><path fill="#1DA1F2" d="M36.71 17.482c.021.284.021.569.021.853 0 8.67-6.599 18.66-18.66 18.66A18.534 18.534 0 0 1 8 34.05c.528.06 1.036.081 1.584.081 3.066 0 5.888-1.035 8.142-2.802a6.57 6.57 0 0 1-6.132-4.548c.406.06.812.101 1.239.101a6.94 6.94 0 0 0 1.725-.223A6.56 6.56 0 0 1 9.3 20.223v-.08a6.604 6.604 0 0 0 2.965.831 6.554 6.554 0 0 1-2.924-5.461 6.51 6.51 0 0 1 .893-3.31 18.642 18.642 0 0 0 13.523 6.863 7.404 7.404 0 0 1-.162-1.503 6.555 6.555 0 0 1 6.558-6.558c1.889 0 3.594.792 4.792 2.071a12.912 12.912 0 0 0 4.163-1.584 6.54 6.54 0 0 1-2.884 3.614A13.144 13.144 0 0 0 40 14.091a14.099 14.099 0 0 1-3.29 3.391Z"/></svg>