<svg xmlns="http://www.w3.org/2000/svg" width="48" height="48" fill="none"><path fill="#E21836" d="M13.05 12.74h8.985c1.255 0 2.035 1.023 1.742 2.281l-4.183 17.961c-.295 1.254-1.551 2.277-2.806 2.277H7.803c-1.252 0-2.034-1.023-1.742-2.277l4.185-17.96c.293-1.26 1.548-2.281 2.804-2.281Z"/><path fill="#00447C" d="M21.288 12.74H31.62c1.254 0 .689 1.023.393 2.281l-4.182 17.961c-.294 1.254-.202 2.277-1.459 2.277H16.04c-1.257 0-2.034-1.023-1.74-2.277l4.183-17.96c.297-1.26 1.55-2.281 2.805-2.281Z"/><path fill="#007B84" d="M31.211 12.74h8.986c1.255 0 2.036 1.023 1.74 2.281l-4.182 17.961c-.295 1.254-1.552 2.277-2.808 2.277h-8.981c-1.257 0-2.036-1.023-1.742-2.277l4.183-17.96c.293-1.26 1.547-2.281 2.804-2.281Z"/><path fill="#FEFEFE" d="M15.397 18.496c-.924.01-1.197 0-1.284-.02-.034.16-.657 3.035-.66 3.038-.133.582-.231.997-.563 1.264a1.002 1.002 0 0 1-.663.231c-.41 0-.649-.203-.689-.59l-.007-.132.125-.784s.654-2.62.771-2.967l.01-.04c-1.274.012-1.5 0-1.516-.02-.008.028-.04.19-.04.19l-.668 2.955-.057.25-.111.82c0 .243.047.442.143.61.304.531 1.172.611 1.664.611.633 0 1.226-.134 1.627-.38.697-.412.88-1.055 1.042-1.626l.075-.294s.674-2.722.789-3.076c.004-.02.006-.03.012-.04Zm2.293 2.197c-.162 0-.46.039-.726.17-.097.05-.188.107-.285.164l.087-.315-.047-.053c-.566.115-.693.13-1.215.204l-.044.029c-.06.503-.115.881-.34 1.87-.085.364-.174.732-.263 1.096l.024.046c.535-.028.698-.028 1.163-.02l.038-.041c.06-.303.067-.374.198-.988.061-.29.19-.93.253-1.157.116-.054.231-.107.34-.107.261 0 .23.227.22.318-.012.152-.107.65-.204 1.076l-.065.276c-.046.203-.095.401-.14.603l.02.04c.527-.028.688-.028 1.139-.02l.053-.041c.081-.473.105-.6.25-1.289l.072-.316c.142-.62.212-.934.106-1.19-.113-.286-.385-.355-.634-.355Zm2.563.648c-.28.054-.46.09-.638.113-.176.028-.348.054-.619.092l-.021.02-.02.015c-.028.202-.048.376-.086.581-.031.213-.08.454-.16.8a3.144 3.144 0 0 1-.128.451c-.034.093-.072.184-.141.445l.016.024.014.022c.253-.012.419-.02.59-.022.17-.006.346 0 .619.002l.024-.02.025-.021c.04-.236.045-.299.07-.414.024-.123.065-.293.166-.748.047-.214.1-.427.15-.645.052-.218.105-.431.157-.645l-.008-.026-.01-.024Zm.006-.874c-.255-.15-.703-.103-1.004.105-.3.204-.334.493-.08.645.25.146.7.103.998-.107.3-.208.337-.494.086-.643ZM21.8 23.95c.516 0 1.045-.142 1.443-.564.306-.342.446-.85.495-1.06.158-.695.035-1.02-.12-1.217-.235-.301-.65-.398-1.082-.398-.26 0-.877.026-1.36.47-.346.322-.506.757-.602 1.175-.098.425-.21 1.19.494 1.475.217.094.53.12.732.12Zm-.04-1.563c.119-.526.26-.967.618-.967.28 0 .3.328.176.856-.022.117-.125.553-.263.738-.097.137-.212.22-.338.22-.038 0-.262 0-.266-.332a2.271 2.271 0 0 1 .073-.515Zm3.267 1.496.04-.041c.058-.303.067-.374.194-.988.063-.29.194-.93.256-1.157.116-.054.229-.107.342-.107.259 0 .227.227.217.318-.01.152-.104.65-.204 1.076l-.061.276c-.047.204-.098.401-.144.603l.02.04c.53-.028.684-.028 1.138-.02l.055-.041c.08-.474.1-.6.25-1.289l.07-.316c.142-.62.214-.934.109-1.19-.116-.286-.39-.355-.635-.355-.162 0-.46.039-.726.17-.095.05-.19.107-.283.164l.08-.315-.043-.053c-.565.115-.694.13-1.216.204l-.04.029c-.064.503-.115.881-.34 1.87-.086.364-.175.732-.264 1.096l.024.046c.537-.028.697-.028 1.161-.02Zm3.891.02c.034-.162.231-1.126.233-1.126 0 0 .169-.706.179-.732 0 0 .053-.074.106-.103h.078c.735 0 1.566 0 2.217-.479.443-.328.746-.813.881-1.403.035-.144.061-.316.061-.488 0-.226-.045-.45-.176-.624-.332-.465-.993-.473-1.757-.477l-.376.004c-.977.012-1.369.008-1.53-.011l-.039.198-.35 1.624-.877 3.611c.853-.01 1.203-.01 1.35.006Zm.649-2.881.37-1.613.012-.083.005-.063.15.015.785.068c.302.117.427.42.34.813-.08.36-.313.663-.613.81-.248.124-.55.134-.863.134h-.202l.016-.081Zm2.317 1.395c-.099.42-.212 1.185.489 1.458.223.095.423.123.627.113.215-.012.414-.12.598-.274l-.05.19.032.042c.504-.021.66-.021 1.206-.017l.05-.038c.08-.468.155-.924.362-1.82.1-.43.202-.855.305-1.283l-.016-.047a22.71 22.71 0 0 1-1.257.204l-.04.033-.017.128a.776.776 0 0 0-.395-.325c-.242-.095-.808.027-1.295.47-.342.317-.506.75-.6 1.166Zm1.184.026c.12-.517.259-.954.618-.954.227 0 .347.21.322.567l-.064.29c-.036.153-.075.305-.113.457a1.115 1.115 0 0 1-.133.269c-.092.13-.312.212-.439.212-.036 0-.257 0-.265-.327a2.25 2.25 0 0 1 .074-.514Zm6.182-1.706-.043-.05c-.558.113-.659.131-1.172.2l-.037.038-.006.024-.002-.008c-.381.88-.37.69-.68 1.383-.003-.032-.003-.051-.004-.085l-.078-1.502-.049-.05c-.584.113-.598.131-1.138.2l-.042.038c-.006.018-.006.038-.01.06l.004.007c.068.345.052.268.12.812.03.267.073.535.105.799.053.441.082.659.147 1.332-.364.601-.45.829-.801 1.357l.002.005-.247.39c-.028.042-.054.07-.09.082a.373.373 0 0 1-.161.023h-.137l-.204.677.698.012c.41-.002.668-.193.806-.451l.44-.752h-.008l.046-.053c.296-.636 2.541-4.488 2.541-4.488Zm-7.366 8.888h-.297L32.683 26h.364l.115-.373.011.415c-.013.257.189.484.72.447h.613l.21-.698h-.23c-.133 0-.194-.034-.186-.106l-.012-.422h-1.136v.002c-.367.008-1.464.035-1.686.094-.269.07-.552.273-.552.273l.111-.374h-1.062l-.222.742-1.11 3.68h-.216l-.211.693h2.116l-.07.231h1.042l.07-.23h.292l.23-.749Zm-.869-2.888c-.17.047-.487.19-.487.19L30.81 26h.844l-.203.675s-.261.015-.436.062Zm.016 1.323s-.265.033-.44.073a4.366 4.366 0 0 0-.494.216l.291-.964h.849l-.206.675Zm-.473 1.573h-.847l.246-.813h.844l-.243.813Zm2.04-2.248h1.22l-.175.568h-1.237l-.185.621h1.082l-.82 1.154a.338.338 0 0 1-.166.139.487.487 0 0 1-.22.063h-.3l-.206.68h.785c.408 0 .65-.185.828-.429l.562-.77.12.782a.368.368 0 0 0 .202.265c.079.04.16.107.275.117.123.006.212.01.271.01h.386l.232-.762h-.153c-.087 0-.237-.014-.263-.042-.026-.033-.026-.084-.04-.162l-.122-.783h-.501l.22-.262h1.234l.19-.62h-1.143l.178-.569h1.14l.211-.7h-3.397l-.208.7Zm-10.31 2.407.284-.948h1.171l.214-.705h-1.172l.179-.584h1.145l.212-.682h-2.866l-.207.682h.65l-.173.584h-.653l-.216.717h.65l-.379 1.254c-.051.166.024.23.072.306a.314.314 0 0 0 .21.153c.114.026.193.041.3.041h1.32l.235-.78-.585.08c-.113 0-.426-.014-.392-.118Zm.133-4.538-.296.536a.622.622 0 0 1-.172.224c-.046.028-.136.04-.266.04h-.155l-.206.686h.514c.247 0 .437-.09.528-.136.097-.052.123-.022.198-.095l.174-.15h1.606l.213-.715h-1.176l.205-.39h-1.167Zm2.371 4.552c-.027-.04-.008-.11.034-.254l.44-1.453h1.56c.228-.003.392-.006.5-.013.114-.012.239-.053.375-.127a.702.702 0 0 0 .273-.251c.067-.093.176-.297.27-.611l.551-1.839-1.62.01s-.5.073-.719.155c-.221.09-.538.343-.538.343l.146-.503h-1l-1.402 4.647c-.05.18-.083.311-.09.39-.003.085.106.169.177.232.084.063.208.053.327.063.125.01.303.015.548.015h.77l.236-.797-.689.065a.181.181 0 0 1-.149-.073Zm.756-2.688h1.64l-.104.327c-.015.008-.05-.016-.216.003h-1.42l.1-.33Zm.329-1.096h1.654l-.12.394s-.779-.008-.904.015c-.549.095-.87.389-.87.389l.24-.798Zm1.244 2.517a.174.174 0 0 1-.065.101c-.034.022-.087.03-.168.03h-.234l.014-.399h-.972l-.04 1.946c0 .14.013.221.116.287.102.08.419.091.845.091h.609l.22-.728-.53.029-.177.01a.198.198 0 0 1-.072-.045c-.023-.022-.06-.009-.054-.149l.004-.499.556-.023c.3 0 .429-.097.538-.19.105-.09.139-.192.178-.33l.093-.442h-.764l-.097.311Z"/></svg>