<svg xmlns="http://www.w3.org/2000/svg" width="48" height="48" fill="none"><path fill="#4285F4" d="M24 39.531c8.367 0 15.15-6.688 15.15-14.938S32.367 9.655 24 9.655 8.85 16.343 8.85 24.593 15.633 39.531 24 39.531Z"/><path fill="#263238" d="M24 39.29c-8.322 0-15.083-6.625-15.15-14.822v.115c0 8.246 6.78 14.939 15.15 14.939 8.37 0 15.15-6.693 15.15-14.939v-.115C39.083 32.665 32.322 39.29 24 39.29Z" opacity=".2"/><path fill="#fff" d="M24 9.896c8.322 0 15.083 6.625 15.15 14.822v-.115c0-8.246-6.78-14.938-15.15-14.938-8.37 0-15.15 6.683-15.15 14.928v.116C8.917 16.52 15.678 9.896 24 9.896Z" opacity=".2"/><path fill="#424242" d="M20.403 13.194v4.465L24 22.491l3.597-4.957v-4.34h4.253L36.007 6H12.003l4.147 7.194h4.253Z"/><path fill="#9E9E9E" d="M19.487 13.194H16.15l1.186 2.054h2.15v-2.054Zm9.026 2.054h2.15l1.187-2.054h-3.337v2.054Z"/><path fill="#424242" d="M27.597 34.806v-2.942L24 26.927l-3.597 4.937v2.942H16.16L11.993 42h24.013l-4.146-7.194h-4.263Z"/><path fill="#263238" d="M27.597 17.167 24 22.134l-3.597-4.85v.375L24 22.491l3.597-4.957v-.367Z" opacity=".2"/><path fill="#fff" d="M12.003 6h23.994l-.145.25H12.148L12.003 6Z" opacity=".2"/><path fill="#263238" d="m20.403 32.23 3.607-4.946 3.587 4.947v-.367l-3.587-4.937-3.607 4.928v.376Zm15.594 9.76H12.003l.145-.26h23.704l.145.26Z" opacity=".2"/><path fill="url(#a)" d="m35.997 41.99-.145-.26-2.922-5.073c3.096-2.227 5.295-5.583 5.989-9.45L24.916 13.02l-1.88 22.132 6.644 6.837 6.327.01-.01-.01Z"/><path fill="#E8E8E8" d="m24.916 13.02-6.75 13.512h4.899l-.03 8.621 6.838-13.588h-4.986l.03-8.544Z"/><path fill="#fff" d="m24.916 13.02-6.625 13.27h4.773l-.028 8.622 6.712-13.347h-4.86l.028-8.544Z"/><path fill="#9E9E9E" d="M20.403 13.194H16.15l1.186 2.054h3.067v-2.054Zm7.194 2.054h3.067l1.186-2.054h-4.253v2.054Z"/><path fill="#263238" d="M27.597 15.007v.241h3.067l.144-.25-3.21.01Zm-7.194 0-3.211-.01.144.251h3.067v-.24Z" opacity=".3"/><path fill="url(#b)" d="M39.15 24.709v-.116c0-5.169-2.671-9.73-6.721-12.411L36.006 6H12.003l3.568 6.182c-4.05 2.68-6.721 7.242-6.721 12.411v.116c.038 4.908 2.488 9.258 6.23 11.958l-2.932 5.063-.145.26-.01.01h24.004l-.01-.01-.145-.26-2.922-5.073c3.752-2.69 6.192-7.03 6.23-11.948Z"/><defs><radialGradient id="b" cx="0" cy="0" r="1" gradientTransform="matrix(43.2039 0 0 43.2038 12.042 6.039)" gradientUnits="userSpaceOnUse"><stop stop-color="#fff" stop-opacity=".1"/><stop offset="1" stop-color="#fff" stop-opacity="0"/></radialGradient><linearGradient id="a" x1="18.865" x2="42.759" y1="19.072" y2="26.25" gradientUnits="userSpaceOnUse"><stop stop-color="#231F20" stop-opacity=".16"/><stop offset="1" stop-color="#231F20" stop-opacity="0"/></linearGradient></defs></svg>