<svg xmlns="http://www.w3.org/2000/svg" width="48" height="48" fill="none"><path fill="#BFC8D0" fill-rule="evenodd" d="M38 23.378C38 14.207 34.77 10 24 10s-14 4.207-14 13.378c0 6.527 1.636 10.54 6.462 12.312v3.087c0 1.137 1.426 1.656 2.164.789l2.49-2.925c.895.078 1.855.116 2.884.116 10.77 0 14-4.207 14-13.378ZM21.711 34.532c.714.056 1.476.084 2.289.084 9.112 0 11.846-3.534 11.846-11.238S33.112 12.141 24 12.141s-11.846 3.533-11.846 11.237c0 5.446 1.366 8.808 5.384 10.311v4.575c0 .399.5.58.76.276l3.413-4.008Z" clip-rule="evenodd"/><path fill="#9179EE" d="M24 33.855a29.59 29.59 0 0 1-2.319-.086l-3.457 4.076a.437.437 0 0 1-.77-.281v-4.652C13.384 31.383 12 27.965 12 22.427 12 14.594 14.77 11 24 11s12 3.594 12 11.427c0 7.834-2.77 11.428-12 11.428Z"/><path fill="#fff" fill-rule="evenodd" d="M38 22.378C38 13.207 34.77 9 24 9s-14 4.207-14 13.378c0 6.527 1.636 10.54 6.462 12.312v3.087c0 1.137 1.426 1.656 2.164.789l2.49-2.925c.895.078 1.855.116 2.884.116 10.77 0 14-4.207 14-13.378ZM21.711 33.532c.714.056 1.476.084 2.289.084 9.112 0 11.846-3.534 11.846-11.238S33.112 11.141 24 11.141s-11.846 3.533-11.846 11.237c0 5.446 1.366 8.808 5.384 10.311v4.575c0 .399.5.58.76.276l3.413-4.008Z" clip-rule="evenodd"/><path fill="#fff" stroke="#fff" stroke-linecap="round" d="m19.543 20.134-.04.023-.036.03a1.362 1.362 0 0 0-.328 1.633c.302.646.977 1.967 2.162 2.963 1.158.973 2.396 1.496 3.208 1.668l.051.01h.047l.015.003c.02.002.043.006.08.013l.085-.493-.086.493.02.003c.25.044.85.15 1.352-.35.322-.322.617-.657.744-.807a.776.776 0 0 1 .746-.126c.695.235 1.52.765 1.92 1.034.31.208 1.01.71 1.325.937h0c.026.02.088.081.121.167.027.07.041.164-.023.3-.118.255-.48.739-.968 1.163-.498.431-1.016.702-1.43.702h-.005a2.557 2.557 0 0 1-.224-.043 9.107 9.107 0 0 1-.612-.164 18.71 18.71 0 0 1-1.964-.726c-1.566-.673-3.536-1.74-5.381-3.31-1.16-.988-2.256-2.353-3.108-3.632-.86-1.29-1.435-2.432-1.592-2.96l-.01-.037-.017-.034a1.172 1.172 0 0 1-.095-.458.795.795 0 0 1 .175-.53c.42-.503.864-.997 1.845-1.472a.957.957 0 0 1 .376-.085c.144-.003.22.033.25.06.375.328.956.91 1.348 1.406a26.288 26.288 0 0 1 .912 1.238 4.39 4.39 0 0 1 .106.167c.002.006.01.03.017.074a.862.862 0 0 1 .006.195.504.504 0 0 1-.146.343c-.293.268-.69.516-.846.602Zm4.735-5.617h-.001v-.002a.065.065 0 0 1 .046-.015c3.991 0 7.175 3.038 7.177 6.723l-.003.004a.066.066 0 0 1-.045.015.066.066 0 0 1-.046-.015.039.039 0 0 1-.003-.004c-.001-3.723-3.2-6.69-7.08-6.69a.065.065 0 0 1-.046-.016Zm0 4.129h-.001v-.002a.065.065 0 0 1 .046-.015c1.569 0 2.788 1.19 2.79 2.594l-.003.004a.065.065 0 0 1-.046.015.066.066 0 0 1-.045-.015.039.039 0 0 1-.003-.004c-.001-1.443-1.236-2.562-2.693-2.562a.065.065 0 0 1-.046-.015Zm0-2.065h-.001v-.001a.065.065 0 0 1 .046-.015c2.78 0 4.982 2.113 4.983 4.658l-.003.004a.066.066 0 0 1-.045.015.065.065 0 0 1-.045-.015.028.028 0 0 1-.003-.004c-.002-2.583-2.218-4.626-4.887-4.626a.065.065 0 0 1-.046-.016Z"/></svg>