<svg xmlns="http://www.w3.org/2000/svg" width="48" height="48" fill="none"><path fill="#32B8E8" d="M41.983 15.618c-.16 3.511-2.608 8.319-7.342 14.421-4.895 6.374-9.036 9.561-12.424 9.561-2.097 0-3.874-1.94-5.324-5.823-.97-3.558-1.937-7.117-2.906-10.675-1.078-3.88-2.233-5.823-3.468-5.823-.27 0-1.212.568-2.825 1.699L6 16.792a457.378 457.378 0 0 0 5.254-4.694c2.37-2.052 4.148-3.13 5.334-3.24 2.802-.27 4.526 1.65 5.173 5.757.7 4.431 1.184 7.188 1.456 8.267.807 3.677 1.696 5.513 2.667 5.513.753 0 1.885-1.193 3.394-3.577 1.508-2.386 2.315-4.2 2.424-5.447.215-2.059-.593-3.09-2.424-3.09-.862 0-1.75.198-2.664.591 1.769-5.806 5.15-8.626 10.139-8.465 3.699.108 5.443 2.512 5.23 7.211Z"/></svg>