<svg xmlns="http://www.w3.org/2000/svg" width="48" height="48" fill="none"><path fill="#31AFD8" d="M0 24C0 10.745 10.745 0 24 0s24 10.745 24 24-10.745 24-24 24S0 37.255 0 24Z"/><path fill="#FFFFFE" d="M37.586 19.362c-.128 2.803-2.086 6.641-5.874 11.514-3.915 5.087-7.229 7.632-9.938 7.632-1.679 0-3.1-1.549-4.26-4.648l-2.324-8.523c-.862-3.098-1.786-4.649-2.775-4.649-.216 0-.97.453-2.26 1.356L8.8 20.3a357.542 357.542 0 0 0 4.202-3.747c1.896-1.638 3.32-2.5 4.269-2.586 2.24-.216 3.62 1.316 4.137 4.595.56 3.538.948 5.738 1.165 6.6.647 2.935 1.358 4.401 2.134 4.401.602 0 1.508-.951 2.716-2.856 1.205-1.904 1.851-3.353 1.938-4.348.173-1.643-.474-2.467-1.938-2.467-.69 0-1.4.159-2.132.472 1.416-4.635 4.12-6.886 8.111-6.758 2.96.087 4.355 2.006 4.184 5.757"/></svg>