<svg xmlns="http://www.w3.org/2000/svg" width="48" height="48" fill="none"><circle cx="24" cy="24" r="21" fill="#F11E15"/><path fill="#fff" fill-rule="evenodd" d="M28.526 37.815a40.646 40.646 0 0 0 4.573-2.417c-1.488 1.713-3.083 2.167-4.573 2.417Zm-3.533 3.027c-.146 0-1.39 0-1.39-.455 0-.25.398-1.06.747-1.158.744-.304 2.336-.71 2.435-.71.148 0 1.444.155 1.59.155.099 0 1.046-.054 1.595-.201a7.874 7.874 0 0 0 2.185-.908c.747-.454 1.84-1.414 2.337-2.222.296-.454.447-1.058.798-1.463.445-.6 1.29-1.109 1.985-1.762a29.706 29.706 0 0 0 2.04-2.268c-1.343 6.353-9.496 10.992-14.322 10.992ZM28.03 6.304c2.534.555 5.42 1.66 7.902 4.185.798.805 1.496 1.917 1.792 2.771.146.351.146.909.398 1.26.399.608 1.093 1.109 1.59 1.767.648.704 1.043 1.463 1.395 2.268.145.25.197.604.346.908.197.4.546 2.317.546 3.026 0 1.463-.494 3.277-1.145 4.688 0 .052.055.052.055.202v1.259C40.36 36.406 31.16 42 25.39 42c-.694 0-2.682-.1-2.682-1.512 0-.155.102-.606.2-.96-1.097.155-3.236.558-4.48.558-.939 0-5.268-.05-5.268-2.42 0-2.222 3.88-2.372 4.626-2.372 2.086 0 4.274.604 6.413 1.613-.351.103-.994.304-1.093.304-.15 0-.348-.154-.549-.2-1.389-.51-2.984-.809-4.425-.809-.843 0-.994-.051-1.988.204-.099 0-1.84.455-1.84 1.159 0 .5 1.393.805 1.69.854.595.1 1.839.201 1.938.201 8.853 0 22.58-7.462 22.58-16.386 0-1.662-.747-4.03-2.243-5.547a11.042 11.042 0 0 1-.497 2.072c-.145.454-.544 1.259-.544 1.36 0 0 2.485 2.77 2.485 3.38 0 .353-.544 1.911-.544 1.963-.497-1.36-1.197-2.722-2.588-4.082-.198.201-.396.5-.596.756-.25.353-.55.707-.846 1.058-.648.758-2.138 2.066-2.138 2.216 0 0 1.787 1.819 2.388 3.935.099.304.247.905.247 1.009 0 .301-.994.96-.994 1.008-.052-1.713-.746-3.53-2.588-5.242-2.136 1.612-4.374 2.925-6.512 3.98 1.293 1.113 2.04 2.725 2.04 3.884 0 .554-.3 1.767-.55 1.914-.299.204-.642.304-.994.408.398-.508.747-1.667.747-2.167 0-.909-.596-2.323-1.592-3.081-.247-.15-.596-.503-.695-.503-.148 0-1.392.555-2.086.807-.799.305-1.642.555-2.488.805-2.536.759-4.925 1.213-7.36 1.213-.944 0-5.076-.1-5.076-2.371 0-3.378 7.665-3.682 8.703-3.682 2.29 0 4.48.255 6.817 1.31-.45.15-1.296.504-1.395.504-.148 0-2.735-.754-5.07-.754-1.047 0-2.337.104-3.331.3-.799.154-1.592.358-2.29.658-.25.051-2.089.859-2.089 1.563 0 .1.297.305.497.405.997.503 1.892.454 2.885.454 9.398 0 23.817-7.515 24.665-15.33v-1.26c-.45-5.093-8.206-8.372-11.986-8.372-.1 0-.742.054-1.145.15.252.103.549.103.801.203.198.055.443.155.695.25.398.156 1.093.509 1.54.909.346.304.544.758.895 1.009.25.255.747.204 1.145.358a39.14 39.14 0 0 1 4.228 1.61c.543.3 1.238.604 1.84.958.2.154.345.454.496.704.247.405.544 1.063.643 1.618-2.581-1.972-5.17-2.98-7.756-3.834h-.146c.1 1.362-.45 2.722-1.397 4.084 2.838.758 5.818 1.863 8.755 3.935-.151.35-.349.753-.596 1.104-1.244-.908-2.586-1.613-3.83-2.216-.299-.147-4.475-1.714-5.123-1.714-.15 0-1.144 1.01-1.688 1.463-1.343 1.107-2.685 1.966-4.03 2.771 3.627.508 7.261 1.314 10.888 3.731-.247.25-.796.759-.942.759-.099 0-1.046-.705-1.592-.96-2.537-1.262-7.36-2.467-10.292-2.467-.25 0-3.13 1.26-3.833 1.458-2.037.606-4.274 1.36-6.358 1.36C7.389 24.048 6 24 6 22.843c0-2.27 7.907-2.825 8.45-2.825h1.74c-1.243.503-2.73 1.058-3.923 1.362-1.144.304-2.336.5-3.434.854-.2.051-.398.201-.596.304 0 0-.046.052.1.052.098 0 1.74-.256 2.632-.454 4.527-1.11 9.398-2.923 13.878-7.108 1.092-1.063 1.886-2.371 2.138-3.53V10.49c-.15-1.109-1.74-2.268-2.734-2.572-.648-.204-1.892-.454-2.037-.454-.252 0-.601.15-.848.555 1.59.353 3.429 0 4.823 2.017 0 0 .05.05 0 .15-.4-.15-5.273-1.313-6.067-1.313-.296 0-2.633 1.666-3.182 2.017a65.533 65.533 0 0 1-4.527 2.521l5.123.052c2.235.15 4.777.454 7.061.908-.099.049-.994 1.009-1.192 1.009-.098 0-1.693-.305-2.49-.405-1.44-.204-2.931-.25-4.425-.354l-6.46.15c-.351-.047-1.046-.096-1.046-.705 0-.454.544-.753.947-.908.297-.1.643-.296.94-.4 3.184-1.36 6.465-3.176 9.701-5.245-.099-.05-.304-.049-.403-.049-.146 0-.544.049-.84.15.046.054.098.054.145.054-.445.25-1.191.75-1.342.75-.346 0-.843-.454-.843-.75 0-.908 2.04-.963 2.185-.963 2.037-.049 2.19.055 2.337.055.099 0 .947-.455 1.496-.555C24.1 6 24.498 6 25.245 6c.845 0 1.84.1 2.786.304Z" clip-rule="evenodd"/></svg>