<svg xmlns="http://www.w3.org/2000/svg" width="48" height="48" fill="none"><path fill="#F43939" d="M4 24C4 12.954 12.954 4 24 4s20 8.954 20 20-8.954 20-20 20S4 35.046 4 24Z"/><path fill="#fff" d="M23.855 12.17c.06.348.568 7.87.642 9.56.07 1.44-.549 1.632-.75 1.694-.204.064-.826.256-1.587-.98 0 0-5.153-8.106-5.274-8.356-.075-.282.016-.6.265-.858.77-.795 4.929-1.96 6.017-1.69.354.089.601.314.687.63Zm4.921 13.08c4.262-1.034 4.427-1.088 4.595-1.198.258-.174.388-.465.365-.819a.15.15 0 0 1 .001-.011.102.102 0 0 0 0-.025c-.11-1.047-1.944-3.769-2.847-4.211-.32-.153-.64-.143-.907.035-.164.107-.285.27-2.567 3.391 0 0-1.031 1.404-1.044 1.418-.271.33-.276.804-.01 1.21.275.42.74.626 1.166.507l-.021.036c.21-.079.585-.171 1.269-.334Zm-13.457-1.713c-.406.65-.578 2.7-.437 4.06.05.448.131.823.25 1.046.162.309.435.493.746.504.2.01.324-.024 4.077-1.23 0 0 1.668-.533 1.674-.536.416-.106.696-.488.723-.977.027-.5-.23-.942-.657-1.103 0 0-1.176-.479-1.179-.479-4.032-1.663-4.214-1.729-4.417-1.73-.311-.013-.588.143-.78.445ZM24.34 35.93c.065-.19.073-.319.084-4.261l.01-1.76c.028-.427-.249-.816-.7-.99-.467-.18-.969-.069-1.25.282 0 0-.824.977-.826.977-2.825 3.319-2.943 3.472-3.012 3.668a.807.807 0 0 0-.045.362c.017.176.097.35.229.512.655.778 3.797 1.934 4.8 1.763.349-.063.603-.26.71-.553Zm9.533-5.39c-.146 1.011-2.212 3.64-3.16 4.018-.327.132-.643.1-.891-.095-.16-.125-.33-.381-2.557-3.997l-.662-1.078c-.254-.385-.206-.896.112-1.283.305-.377.76-.52 1.158-.366.021.01 1.667.554 1.667.554 3.75 1.232 3.871 1.278 4.03 1.398.243.193.353.497.303.849Z"/></svg>