<svg xmlns="http://www.w3.org/2000/svg" width="48" height="48" fill="none"><path fill="#FDBD39" fill-rule="evenodd" d="m11.549 29.452-1.883.688-.102 5.603 6.52-2.382c-2.236-.75-3.87-2.072-4.535-3.909" clip-rule="evenodd"/><path fill="#F69833" fill-rule="evenodd" d="M12.534 23.527 6 25.914l3.666 4.226 1.883-.688c-.664-1.83-.255-3.9.985-5.925" clip-rule="evenodd"/><path fill="#FECF33" fill-rule="evenodd" d="M23.53 15.442c-8.32 3.04-13.685 9.313-11.981 14.01l30.133-11.007c-1.704-4.698-9.83-6.042-18.152-3.003Z" clip-rule="evenodd"/><path fill="#EE6723" fill-rule="evenodd" d="M29.7 32.455c8.32-3.04 13.695-9.285 11.982-14.01L11.549 29.452c1.713 4.726 9.83 6.042 18.15 3.003Z" clip-rule="evenodd"/><path fill="#F69833" fill-rule="evenodd" d="M41.682 18.445 11.549 29.452c.59 1.628 2.84 2.43 5.997 2.43 3.078 0 7.018-.762 11.126-2.263 8.32-3.04 14.175-7.961 13.01-11.174" clip-rule="evenodd"/><path fill="#FDBD39" fill-rule="evenodd" d="M35.684 16.016c-3.078 0-7.018.761-11.125 2.262-8.321 3.04-14.176 7.96-13.01 11.174L41.68 18.444c-.59-1.627-2.84-2.428-5.997-2.428" clip-rule="evenodd"/><path fill="#EE6723" fill-rule="evenodd" d="M34.02 36.04c-.887 0-2.195-.801-3.888-2.38-2.003-1.869-4.297-4.606-6.46-7.707-2.163-3.1-3.94-6.2-5.005-8.729-1.16-2.755-1.325-4.449-.492-5.035.183-.128.403-.193.655-.193.678 0 2 .505 4.442 2.91l.054.052-.007.075c-.017.173-.032.347-.046.518l-.027.34-.24-.241c-2.632-2.652-3.791-2.939-4.167-2.939a.437.437 0 0 0-.254.065c-.362.254-.385 1.499.74 4.17 1.045 2.483 2.797 5.536 4.932 8.596 2.135 3.061 4.394 5.758 6.361 7.593 2.122 1.979 3.078 2.192 3.39 2.192a.447.447 0 0 0 .26-.069c.382-.268.383-1.6-.871-4.476l-.058-.131.126-.07c.126-.068.248-.136.362-.201l.151-.086.07.16c.889 2.036 1.72 4.625.63 5.391a1.12 1.12 0 0 1-.658.195Zm0-.315v.158-.158Z" clip-rule="evenodd"/><path fill="#EE6723" fill-rule="evenodd" d="m29.902 32.369-.013.156c-.21 2.603-.764 5.733-2.208 5.86l-.09.003c-.98 0-1.909-1.405-2.758-4.178-.804-2.623-1.428-6.144-1.756-9.916-.33-3.77-.324-7.347.013-10.071.369-2.968 1.07-4.518 2.083-4.607a1.01 1.01 0 0 1 .092-.004c.712 0 1.784.806 2.882 4.56l-.717.138c-.366-1.255-.766-2.275-1.163-2.976-.366-.648-.723-1.005-1.004-1.005a.32.32 0 0 0-.028 0c-.44.04-1.08 1.105-1.436 3.983-.332 2.674-.336 6.198-.011 9.92.324 3.723.938 7.192 1.727 9.768.354 1.153.741 2.104 1.121 2.75.35.594.69.922.955.922l.027-.001c.42-.037 1.213-1.147 1.547-5.05l.737-.252" clip-rule="evenodd"/></svg>