<svg width="42" height="30" viewBox="0 0 42 30" fill="none" xmlns="http://www.w3.org/2000/svg"><g id="Country=PN - Pitcairn Islands, Size=sm (36x24)" filter="url(#filter0_dd_91_25704)"><g clip-path="url(#clip0_91_25704)"><g id="flag"><mask id="mask0_91_25704" style="mask-type:alpha" maskUnits="userSpaceOnUse" x="3" y="2" width="36" height="24"><rect id="mask" x="3" y="2" width="36" height="24" fill="white"/></mask><g mask="url(#mask0_91_25704)"><g id="contents"><path id="background" fill-rule="evenodd" clip-rule="evenodd" d="M3 2V26H39V2H3Z" fill="#2E42A5"/><mask id="mask1_91_25704" style="mask-type:alpha" maskUnits="userSpaceOnUse" x="3" y="2" width="36" height="24"><path id="background_2" fill-rule="evenodd" clip-rule="evenodd" d="M3 2V26H39V2H3Z" fill="white"/></mask><g mask="url(#mask1_91_25704)"><g id="gb - large"><g id="flag_2"><rect id="mask_2" x="3" y="2" width="20.25" height="14" fill="#2B409A"/><mask id="mask2_91_25704" style="mask-type:alpha" maskUnits="userSpaceOnUse" x="3" y="2" width="21" height="14"><rect id="mask_3" x="3" y="2" width="20.25" height="14" fill="white"/></mask><g mask="url(#mask2_91_25704)"><g id="contents_2"><g id="stripe"><path id="white" d="M0.745117 14.9996L5.20119 16.7368L23.351 3.88854L25.7015 1.30701L20.9364 0.726383L13.5335 6.26307L7.57493 9.99351L0.745117 14.9996Z" fill="#F7FCFF"/><path id="red" d="M1.35498 16.217L3.62514 17.2251L24.8573 1.06738H21.6697L1.35498 16.217Z" fill="#F50100"/></g><g id="stripe_2"><path id="white_2" d="M25.5049 14.9996L21.0488 16.7368L2.89897 3.88854L0.548492 1.30701L5.31362 0.726383L12.7165 6.26307L18.6751 9.99351L25.5049 14.9996Z" fill="#F7FCFF"/><path id="red_2" d="M25.353 15.8732L23.0829 16.8813L14.042 9.96339L11.3616 9.19046L0.322518 1.31593H3.51009L14.5429 9.00356L17.4735 9.93038L25.353 15.8732Z" fill="#F50100"/></g><g id="cross"><g id="red_3"><mask id="path-11-outside-1_91_25704" maskUnits="userSpaceOnUse" x="1" y="0" width="24" height="18" fill="black"><rect fill="white" x="1" width="24" height="18"/><path fill-rule="evenodd" clip-rule="evenodd" d="M14.2326 2H11.9826V8H3V10H11.9826V16H14.2326V10H23.25V8H14.2326V2Z"/></mask><path fill-rule="evenodd" clip-rule="evenodd" d="M14.2326 2H11.9826V8H3V10H11.9826V16H14.2326V10H23.25V8H14.2326V2Z" fill="#F50100"/><path d="M11.9826 2V0.5H10.4826V2H11.9826ZM14.2326 2H15.7326V0.5H14.2326V2ZM11.9826 8V9.5H13.4826V8H11.9826ZM3 8V6.5H1.5V8H3ZM3 10H1.5V11.5H3V10ZM11.9826 10H13.4826V8.5H11.9826V10ZM11.9826 16H10.4826V17.5H11.9826V16ZM14.2326 16V17.5H15.7326V16H14.2326ZM14.2326 10V8.5H12.7326V10H14.2326ZM23.25 10V11.5H24.75V10H23.25ZM23.25 8H24.75V6.5H23.25V8ZM14.2326 8H12.7326V9.5H14.2326V8ZM11.9826 3.5H14.2326V0.5H11.9826V3.5ZM13.4826 8V2H10.4826V8H13.4826ZM3 9.5H11.9826V6.5H3V9.5ZM4.5 10V8H1.5V10H4.5ZM11.9826 8.5H3V11.5H11.9826V8.5ZM13.4826 16V10H10.4826V16H13.4826ZM14.2326 14.5H11.9826V17.5H14.2326V14.5ZM12.7326 10V16H15.7326V10H12.7326ZM23.25 8.5H14.2326V11.5H23.25V8.5ZM21.75 8V10H24.75V8H21.75ZM14.2326 9.5H23.25V6.5H14.2326V9.5ZM12.7326 2V8H15.7326V2H12.7326Z" fill="#F7FCFF" mask="url(#path-11-outside-1_91_25704)"/></g></g></g></g></g></g><g id="mark"><path id="Path 226" fill-rule="evenodd" clip-rule="evenodd" d="M26.1929 12.757C26.1929 12.757 26.304 13.8517 26.0604 14.472C25.8169 15.0923 25.6931 15.4524 25.6931 15.0559C25.6931 14.6594 25.5221 14.3452 25.3845 14.3452C25.247 14.3452 25.3556 14.7384 25.2173 14.7384C25.0791 14.7384 24.6028 14.806 24.6028 14.5756C24.6028 14.3452 24.5401 15.1936 24.8492 15.2695C25.1582 15.3454 24.6991 15.5808 24.4941 15.5079C24.4941 15.5079 25.3373 15.7515 25.6679 15.9591C25.6679 15.9591 26.659 17.059 27.5861 16.9248C27.5861 16.9248 26.3237 16.5374 26.5462 15.7974C26.7686 15.0573 27.5861 14.9503 27.5861 14.9503C27.5861 14.9503 27.9697 15.0643 27.9582 15.363C27.9467 15.6618 28.2387 15.2695 28.2387 15.2695C28.2387 15.2695 28.2858 14.8921 28.2339 14.8C28.1821 14.7079 29.1126 14.5296 29.1713 14.1409C29.1713 14.1409 28.2205 14.1796 28.1552 14.0797C28.09 13.9799 28.4495 13.8233 28.337 13.6287C28.2245 13.434 26.5462 14.7384 26.5462 14.7384C26.5462 14.7384 27.1257 13.8506 27.1257 13.3738C27.1257 12.8971 26.9785 12.5713 26.5462 12.5713C26.1138 12.5713 26.1929 12.757 26.1929 12.757Z" fill="#5EAA22"/><path id="Path 229" fill-rule="evenodd" clip-rule="evenodd" d="M34.9309 13.0176C34.9299 13.0191 34.9318 13.0207 34.9332 13.0195C34.9929 12.967 35.3801 12.6481 35.7044 12.8982C36.0567 13.1701 35.5268 13.4351 35.5268 13.4351C35.5268 13.4351 35.7745 13.6486 36.0578 13.6486C36.3411 13.6486 36.4105 13.4351 36.4105 13.4351C36.4105 13.4351 36.4322 13.9103 37.3561 14.0903C37.3561 14.0903 37.6857 13.6696 37.3561 13.4393C37.3561 13.4393 37.7455 13.3675 37.7172 13.0871C37.7172 13.0871 37.3971 13.1841 37.1688 12.9613C36.9405 12.7385 36.4956 12.6357 36.1721 12.6871C35.349 12.4232 34.9795 12.942 34.9309 13.0176Z" fill="#5EAA22"/><path id="Path 244" fill-rule="evenodd" clip-rule="evenodd" d="M29.3291 15.415C29.3291 15.415 30.2845 17.0124 29.6873 17.3434C29.0902 17.6744 32.5266 17.4389 32.8503 17.3434C33.1741 17.2478 32.785 16.7442 32.4259 16.6044C32.0669 16.4646 30.5906 15.9994 30.1979 15.6485C29.8052 15.2977 30.045 15.1732 30.3613 14.8269C30.6776 14.4805 31.8485 14.342 31.8485 14.0183C31.8485 13.6946 32.5912 12.3596 33.1104 12.2588C33.6295 12.1581 33.349 11.9995 33.2297 11.9995C33.1104 11.9995 32.3927 12.657 32.1206 12.5384C31.8485 12.4197 31.8153 12.4281 32.1206 12.1413C32.4259 11.8546 32.6557 11.5246 32.2521 11.762C31.8485 11.9995 31.1831 12.3753 30.8632 12.3753C30.5433 12.3753 29.4046 12.2471 29.546 12.5384C29.6873 12.8296 29.7473 13.3352 30.3613 13.6768C30.9754 14.0183 30.7085 14.2683 30.1979 14.5974C29.6873 14.9265 29.3291 15.415 29.3291 15.415Z" fill="#96877D"/><path id="Path 235" d="M35.6682 13.3027L33.8478 16.5481C33.8478 16.5481 33.7947 17.4648 35.0962 16.8539C36.3976 16.2431 36.3464 15.8098 36.7216 15.8098C37.0969 15.8098 37.2161 15.6246 37.2161 15.6246L36.9661 15.4499C36.9661 15.4499 36.9372 15.1312 37.0955 15.0597C37.0955 15.0597 36.7849 14.9076 36.7406 15.0345C36.6962 15.1615 36.4772 14.7689 36.6011 14.7689C36.6011 14.7689 36.3273 15.1631 36.2695 15.3169C36.2695 15.3169 35.8732 15.1736 35.8922 14.5101C35.9112 13.8466 35.6682 13.3027 35.6682 13.3027Z" fill="#FFD018"/><path id="Path 236" d="M27.0034 12.7888C27.0034 12.7888 26.0764 12.9806 26.1764 13.1802C26.2763 13.3798 26.4236 13.1748 25.9698 13.4154C25.9698 13.4154 25.1725 13.9634 24.9987 13.904C24.8249 13.8446 25.1218 14.042 25.1218 13.4154C25.1218 12.7888 24.6588 13.2988 25.1218 12.8805C25.5848 12.4622 25.7471 12.7888 25.9698 12.5481C26.1924 12.3074 25.9923 12.4354 26.5963 12.4354C27.2003 12.4354 27.0034 12.7888 27.0034 12.7888Z" fill="#FFD018"/><path id="Path 237" d="M29.8317 16.0142C29.8317 16.0142 27.2362 17.8272 26.7175 17.9625C26.1987 18.0978 27.7844 17.9253 28.1717 17.6859C28.5591 17.4466 29.8317 16.0142 29.8317 16.0142Z" fill="#FFD018"/><path id="Path 243" fill-rule="evenodd" clip-rule="evenodd" d="M34.9775 19.1945C34.9775 19.1945 35.2266 20.623 34.5762 20.4824C33.9259 20.3418 33.6559 20.2691 33.6559 20.2691C33.6559 20.2691 33.8945 20.9344 34.2354 20.9344C34.2354 20.9344 34.8161 21.9404 34.5927 22.2581C34.5927 22.2581 35.593 21.5367 35.4313 20.9631C35.2696 20.3895 35.6899 21.0575 35.6899 21.0575C35.6899 21.0575 36.058 21.2155 36.3241 21.0391C36.5903 20.8626 36.3208 20.941 36.0547 20.6051C35.7886 20.2691 35.8542 19.3256 35.0448 18.8366C34.2354 18.3475 34.047 18.3632 34.047 18.3632C34.047 18.3632 33.4508 17.4968 33.808 17.5541C33.808 17.5541 36.3675 18.334 36.434 18.5339C36.5005 18.7338 37.1793 18.6972 36.8399 18.1256C36.5005 17.5541 34.6709 17.2096 34.4532 17.0485C34.2354 16.8873 34.438 16.2759 34.047 16.1428C33.6559 16.0096 32.5876 15.0646 32.5883 14.6092C32.589 14.1538 32.0862 13.9394 31.6491 13.9394C31.2121 13.9394 30.3891 13.8271 30.0414 13.8271C29.6937 13.8271 29.3696 14.3442 29.7055 14.3442C30.0414 14.3442 29.7544 15.3121 29.192 15.5237C28.6296 15.7352 28.1948 16.0393 27.5525 16.0393C26.9102 16.0393 28.4617 16.5315 28.7089 16.3371C28.9562 16.1428 28.8751 15.8531 29.7055 15.5237C30.5359 15.1942 31.3284 14.9992 31.2281 15.2614C31.1277 15.5237 31.3837 15.9623 31.775 15.8036C32.1662 15.6448 32.2916 15.2438 32.2916 15.5237C32.2916 15.8036 32.8914 17.2411 33.3497 17.8021C33.808 18.3632 34.9775 19.1945 34.9775 19.1945Z" fill="#5EAA22"/><path id="Path 238" d="M29.5174 13.9453C29.5174 13.9453 29.2131 14.3763 29.5174 14.3763C29.8217 14.3763 30.3111 14.3763 30.013 14.1608C29.7148 13.9453 29.5174 13.9453 29.5174 13.9453Z" fill="#FFD018"/><path id="Path 239" d="M30.5342 13.9352C30.5342 13.9352 30.5356 14.2217 30.7465 14.2217C30.9575 14.2217 31.1451 14.5083 31.1451 14.2217C31.1451 13.9352 31.4382 14.0302 30.9862 13.9352C30.5342 13.8402 30.5342 13.9352 30.5342 13.9352Z" fill="#FFD018"/><path id="Path 240" d="M31.8332 14.0005C31.8332 14.0005 31.6299 14.1366 31.7315 14.3793C31.8332 14.622 32.0631 15.1023 31.7315 15.1023C31.3999 15.1023 31.127 15.2755 31.3861 15.2755C31.6451 15.2755 32.106 15.4486 32.106 15.2755C32.106 15.1023 32.2935 15.561 32.2935 15.2755C32.2935 14.9899 32.2935 14.8535 32.2935 14.686C32.2935 14.5186 32.481 14.4704 32.2935 14.2355C32.106 14.0005 31.8332 14.0005 31.8332 14.0005Z" fill="#FFD018"/><path id="Path 241" d="M32.3027 15.6719C32.3027 15.6719 32.7265 16.8573 32.9569 17.0102C33.1873 17.163 33.2907 18.4504 33.3918 18.5903C33.493 18.7303 34.8708 19.4368 34.8708 19.8159C34.8708 20.195 35.2951 19.5246 35.083 19.1492C34.8708 18.7737 34.2029 17.9744 33.7225 17.8001C33.2422 17.6258 33.3031 17.2037 33.2021 16.9071C33.1012 16.6104 33.7998 17.1468 33.2021 16.4739C32.6045 15.801 32.6203 16.1621 32.7886 16.1621C32.9569 16.1621 33.1252 16.0826 32.9569 15.978C32.7886 15.8735 32.3027 15.6719 32.3027 15.6719Z" fill="#FFD018"/><path id="Path 242" d="M27.8108 18.1162C27.8108 18.1162 26.4345 20.2768 26.1889 20.3885C25.9433 20.5001 25.7602 20.5228 25.6347 20.3885C25.5092 20.2541 25.4963 20.7489 25.6347 20.8844C25.7731 21.0199 26.1889 21.0199 26.4196 20.7793C26.4196 20.7793 26.4561 21.3871 26.8156 21.8454C27.175 22.3036 27.3248 22.1771 27.3248 22.4362C27.3248 22.6954 27.4097 23.0385 27.5195 23.0385C27.6292 23.0385 27.7141 23.8542 27.5195 23.8542C27.3248 23.8542 27.9706 23.9211 28.2521 23.7171C28.5336 23.5131 28.6539 23.3577 28.5938 23.3577C28.5336 23.3577 27.8108 23.0195 27.8108 22.7802C27.8108 22.5409 27.3248 22.3536 27.3248 21.9983C27.3248 21.6431 27.0723 21.2208 27.0723 21.0526C27.0723 20.8844 27.2882 21.1175 27.5195 20.9582C27.7507 20.799 27.8108 20.3885 27.8108 20.3885C27.8108 20.3885 27.4466 20.6057 27.3248 20.4971C27.203 20.3885 26.8198 20.1741 27.0723 19.8063C27.3248 19.4385 27.8108 18.1162 27.8108 18.1162Z" fill="#FFD018"/><path id="Path 245" fill-rule="evenodd" clip-rule="evenodd" d="M30.1958 11.3022C30.1958 11.3022 29.703 11.4971 29.8672 11.7866C30.0315 12.0761 30.0906 12.2043 30.1958 12.1402C30.301 12.0761 31.0394 11.9549 30.874 11.6286C30.7086 11.3022 30.3621 11.3022 30.3621 11.3022H30.1958Z" fill="#5EAA22"/><path id="Path 246" d="M31.9057 11.1456C31.9057 11.1456 31.2547 10.8896 31.4717 11.1456C31.6887 11.4016 31.9663 11.5366 32.166 11.5366C32.3657 11.5366 32.7807 11.4837 32.5732 11.3804C32.3657 11.2771 31.9057 11.1456 31.9057 11.1456Z" fill="#FFD018"/><path id="Path 228" fill-rule="evenodd" clip-rule="evenodd" d="M25.4795 17.798C25.4827 17.7827 25.4649 17.771 25.453 17.7811C25.3217 17.8916 24.9048 18.2793 25.0793 18.6162C25.2851 19.0137 25.491 19.1517 25.491 19.1517C25.491 19.1517 25.6163 19.7603 25.8754 19.9259C25.8754 19.9259 26.2235 19.9101 26.2407 19.4364C26.2407 19.4364 26.8317 19.2823 27.0054 19.6103C27.0054 19.6103 26.8908 19.6472 26.8908 19.9259C26.8908 20.2047 27.1582 20.5066 27.1582 20.5066C27.1582 20.5066 27.2807 19.5453 27.831 18.9254C28.3813 18.3056 28.5388 18.1833 28.5388 18.1833V17.4858C28.5388 17.4858 27.4002 18.3105 27.1582 18.9962C27.1582 18.9962 26.5848 19.0132 26.3519 18.9254C26.1189 18.8377 26.6428 18.6936 26.3519 18.3816C26.0609 18.0695 26.1942 18.821 25.8754 18.6162C25.3744 18.4924 25.4452 17.961 25.4795 17.798Z" fill="#5EAA22"/><g id="shield"><path id="Path 227" fill-rule="evenodd" clip-rule="evenodd" d="M27.96 17.1948L33.7927 17.1948V20.3625C33.7927 20.3625 33.3172 22.9508 30.7771 24.2259C30.7771 24.2259 28.3167 22.9332 27.96 20.3625V17.1948Z" fill="#5EAA22"/><mask id="mask3_91_25704" style="mask-type:alpha" maskUnits="userSpaceOnUse" x="27" y="17" width="7" height="8"><path id="Path 227_2" fill-rule="evenodd" clip-rule="evenodd" d="M27.96 17.1948L33.7927 17.1948V20.3625C33.7927 20.3625 33.3172 22.9508 30.7771 24.2259C30.7771 24.2259 28.3167 22.9332 27.96 20.3625V17.1948Z" fill="white"/></mask><g mask="url(#mask3_91_25704)"><g id="contents_3"><path id="Path 230" fill-rule="evenodd" clip-rule="evenodd" d="M30.7329 17.0234L28.1846 21.7241L31.6405 18.9345L34.0191 22.4388V17.0234L31.6405 18.7566L30.7329 17.0234Z" fill="#58A5FF"/><path id="Path 231" d="M30.6523 20.4348C30.6523 20.3298 30.7375 20.2446 30.8425 20.2446V20.2446C30.9475 20.2446 31.0326 20.3298 31.0326 20.4348V23.4109C31.0326 23.5159 30.9475 23.601 30.8425 23.601V23.601C30.7375 23.601 30.6523 23.5159 30.6523 23.4109L30.6523 20.4348Z" fill="#FFD018"/><path id="Path 232" d="M29.9707 21.1578C29.879 21.1578 29.8047 21.0834 29.8047 20.9917V20.9917C29.8047 20.9 29.879 20.8257 29.9707 20.8257H31.7304C31.8221 20.8257 31.8964 20.9 31.8964 20.9917V20.9917C31.8964 21.0834 31.8221 21.1578 31.7304 21.1578H29.9707Z" fill="#FFD018"/><g id="Group 5"><path id="Path 233" d="M30.9175 23.4883L30.7703 23.5946C30.5534 23.3604 30.3556 23.2478 30.1808 23.2478C29.9234 23.2478 29.7141 23.0569 29.5435 22.6949L29.719 22.6304C29.8634 22.9366 30.0205 23.0799 30.1808 23.0799C30.4238 23.0799 30.6681 23.219 30.9175 23.4883Z" fill="#FFD018"/><path id="Path 234" fill-rule="evenodd" clip-rule="evenodd" d="M29.3733 22.1184C29.3722 22.1175 29.3706 22.1183 29.3706 22.1196V22.936C29.3706 22.9372 29.3717 22.9379 29.3728 22.9376L30.0636 22.6848C30.0648 22.6843 30.065 22.6828 30.064 22.682L29.3733 22.1184Z" fill="#FFD018"/></g><g id="Group 4"><path id="Path 233_2" d="M30.7617 23.4883L30.9089 23.5946C31.1258 23.3604 31.3236 23.2478 31.4983 23.2478C31.7558 23.2478 31.9651 23.0569 32.1357 22.6949L31.9602 22.6304C31.8158 22.9366 31.6587 23.0799 31.4983 23.0799C31.2554 23.0799 31.0111 23.219 30.7617 23.4883Z" fill="#FFD018"/><path id="Path 234_2" fill-rule="evenodd" clip-rule="evenodd" d="M32.3059 22.1184C32.307 22.1175 32.3086 22.1183 32.3086 22.1196V22.936C32.3086 22.9372 32.3075 22.9379 32.3064 22.9376L31.6156 22.6848C31.6144 22.6843 31.6142 22.6828 31.6152 22.682L32.3059 22.1184Z" fill="#FFD018"/></g><rect id="Rectangle 64" x="30.4595" y="19.0586" width="0.760563" height="1.00733" fill="white"/></g></g></g></g></g></g></g></g></g></g><defs><filter id="filter0_dd_91_25704" x="0" y="0" width="42" height="30" filterUnits="userSpaceOnUse" color-interpolation-filters="sRGB"><feFlood flood-opacity="0" result="BackgroundImageFix"/><feColorMatrix in="SourceAlpha" values="0 0 0 0 0 0 0 0 0 0 0 0 0 0 0 0 0 0 127 0" result="hardAlpha"/><feOffset dy="1"/><feGaussianBlur stdDeviation="1"/><feColorMatrix values="0 0 0 0 0.0627451 0 0 0 0 0.0941176 0 0 0 0 0.156863 0 0 0 0.06 0"/><feBlend in2="BackgroundImageFix" result="effect1_dropShadow_91_25704"/><feColorMatrix in="SourceAlpha" values="0 0 0 0 0 0 0 0 0 0 0 0 0 0 0 0 0 0 127 0" result="hardAlpha"/><feOffset dy="1"/><feGaussianBlur stdDeviation="1.5"/><feColorMatrix values="0 0 0 0 0.0627451 0 0 0 0 0.0941176 0 0 0 0 0.156863 0 0 0 0.1 0"/><feBlend in2="effect1_dropShadow_91_25704" result="effect2_dropShadow_91_25704"/><feBlend in="SourceGraphic" in2="effect2_dropShadow_91_25704" result="shape"/></filter><clipPath id="clip0_91_25704"><rect x="3" y="2" width="36" height="24" rx="2" fill="white"/></clipPath></defs></svg>