<svg width="42" height="30" viewBox="0 0 42 30" fill="none" xmlns="http://www.w3.org/2000/svg"><g id="Country=VN - Vietnam, Size=sm (36x24)" filter="url(#filter0_dd_91_23941)"><g clip-path="url(#clip0_91_23941)"><g id="flag"><mask id="mask0_91_23941" style="mask-type:alpha" maskUnits="userSpaceOnUse" x="3" y="2" width="36" height="24"><rect id="mask" x="3" y="2" width="36" height="24" fill="white"/></mask><g mask="url(#mask0_91_23941)"><g id="contents"><path id="base" fill-rule="evenodd" clip-rule="evenodd" d="M3 2H39V26H3V2Z" fill="#F7FCFF"/><path id="background" fill-rule="evenodd" clip-rule="evenodd" d="M3 2V26H39V2H3Z" fill="#E31D1C"/><mask id="mask1_91_23941" style="mask-type:alpha" maskUnits="userSpaceOnUse" x="3" y="2" width="36" height="24"><path id="background_2" fill-rule="evenodd" clip-rule="evenodd" d="M3 2V26H39V2H3Z" fill="white"/></mask><g mask="url(#mask1_91_23941)"><g id="mark"><path id="Star 5" fill-rule="evenodd" clip-rule="evenodd" d="M21.0696 17.9799L15.2749 21.2548L17.2186 15.5218L13.0854 11.7761L18.7837 11.6654L21.3048 6.00562L23.6021 11.7402L29.2868 11.8284L25.0149 15.6427L27.0097 21.0967L21.0696 17.9799Z" fill="#FFD221"/></g></g></g></g></g></g></g><defs><filter id="filter0_dd_91_23941" x="0" y="0" width="42" height="30" filterUnits="userSpaceOnUse" color-interpolation-filters="sRGB"><feFlood flood-opacity="0" result="BackgroundImageFix"/><feColorMatrix in="SourceAlpha" values="0 0 0 0 0 0 0 0 0 0 0 0 0 0 0 0 0 0 127 0" result="hardAlpha"/><feOffset dy="1"/><feGaussianBlur stdDeviation="1"/><feColorMatrix values="0 0 0 0 0.0627451 0 0 0 0 0.0941176 0 0 0 0 0.156863 0 0 0 0.06 0"/><feBlend in2="BackgroundImageFix" result="effect1_dropShadow_91_23941"/><feColorMatrix in="SourceAlpha" values="0 0 0 0 0 0 0 0 0 0 0 0 0 0 0 0 0 0 127 0" result="hardAlpha"/><feOffset dy="1"/><feGaussianBlur stdDeviation="1.5"/><feColorMatrix values="0 0 0 0 0.0627451 0 0 0 0 0.0941176 0 0 0 0 0.156863 0 0 0 0.1 0"/><feBlend in2="effect1_dropShadow_91_23941" result="effect2_dropShadow_91_23941"/><feBlend in="SourceGraphic" in2="effect2_dropShadow_91_23941" result="shape"/></filter><clipPath id="clip0_91_23941"><rect x="3" y="2" width="36" height="24" rx="2" fill="white"/></clipPath></defs></svg>