<svg width="42" height="30" viewBox="0 0 42 30" fill="none" xmlns="http://www.w3.org/2000/svg"><g id="Country=BR - Brazil, Size=sm (36x24)" filter="url(#filter0_dd_91_29363)"><g clip-path="url(#clip0_91_29363)"><g id="flag"><mask id="mask0_91_29363" style="mask-type:alpha" maskUnits="userSpaceOnUse" x="3" y="2" width="36" height="24"><rect id="mask" x="3" y="2" width="36" height="24" fill="white"/></mask><g mask="url(#mask0_91_29363)"><g id="contents"><path id="background" fill-rule="evenodd" clip-rule="evenodd" d="M3 2V26H39V2H3Z" fill="#009933"/><mask id="mask1_91_29363" style="mask-type:alpha" maskUnits="userSpaceOnUse" x="3" y="2" width="36" height="24"><path id="background_2" fill-rule="evenodd" clip-rule="evenodd" d="M3 2V26H39V2H3Z" fill="white"/></mask><g mask="url(#mask1_91_29363)"><g id="flag contents"><g id="yellow diamond" filter="url(#filter1_d_91_29363)"><path fill-rule="evenodd" clip-rule="evenodd" d="M20.9176 5.70404L34.6447 14.2075L20.7309 22.1713L7.28504 14.0427L20.9176 5.70404Z" fill="#FFD221"/><path fill-rule="evenodd" clip-rule="evenodd" d="M20.9176 5.70404L34.6447 14.2075L20.7309 22.1713L7.28504 14.0427L20.9176 5.70404Z" fill="url(#paint0_linear_91_29363)"/></g><path id="Oval 10" fill-rule="evenodd" clip-rule="evenodd" d="M21 19.2C24.1066 19.2 26.625 16.9614 26.625 14.2C26.625 11.4385 24.1066 9.19995 21 9.19995C17.8934 9.19995 15.375 11.4385 15.375 14.2C15.375 16.9614 17.8934 19.2 21 19.2Z" fill="#2E42A5"/><mask id="mask2_91_29363" style="mask-type:alpha" maskUnits="userSpaceOnUse" x="15" y="9" width="12" height="11"><path id="Oval 10_2" fill-rule="evenodd" clip-rule="evenodd" d="M21 19.2C24.1066 19.2 26.625 16.9614 26.625 14.2C26.625 11.4385 24.1066 9.19995 21 9.19995C17.8934 9.19995 15.375 11.4385 15.375 14.2C15.375 16.9614 17.8934 19.2 21 19.2Z" fill="white"/></mask><g mask="url(#mask2_91_29363)"><path id="Star 4" fill-rule="evenodd" clip-rule="evenodd" d="M19.1775 16.57L18.9262 16.6874L18.9742 16.4387L18.7709 16.2626L19.0519 16.2263L19.1775 16L19.3031 16.2263L19.5841 16.2626L19.3808 16.4387L19.4288 16.6874L19.1775 16.57Z" fill="#F7FCFF"/><path id="Star 4_2" fill-rule="evenodd" clip-rule="evenodd" d="M21.4275 16.57L21.1762 16.6874L21.2242 16.4387L21.0209 16.2626L21.3019 16.2263L21.4275 16L21.5531 16.2263L21.8341 16.2626L21.6308 16.4387L21.6788 16.6874L21.4275 16.57Z" fill="#F7FCFF"/><path id="Star 4_3" fill-rule="evenodd" clip-rule="evenodd" d="M21.4275 17.77L21.1762 17.8874L21.2242 17.6387L21.0209 17.4625L21.3019 17.4262L21.4275 17.2L21.5531 17.4262L21.8341 17.4625L21.6308 17.6387L21.6788 17.8874L21.4275 17.77Z" fill="#F7FCFF"/><path id="Star 4_4" fill-rule="evenodd" clip-rule="evenodd" d="M20.3025 13.57L20.0512 13.6874L20.0992 13.4387L19.8959 13.2626L20.1769 13.2263L20.3025 13L20.4281 13.2263L20.7091 13.2626L20.5058 13.4387L20.5538 13.6874L20.3025 13.57Z" fill="#F7FCFF"/><path id="Star 4_5" fill-rule="evenodd" clip-rule="evenodd" d="M20.3025 15.57L20.0512 15.6874L20.0992 15.4387L19.8959 15.2626L20.1769 15.2263L20.3025 15L20.4281 15.2263L20.7091 15.2626L20.5058 15.4387L20.5538 15.6874L20.3025 15.57Z" fill="#F7FCFF"/><path id="Star 4_6" fill-rule="evenodd" clip-rule="evenodd" d="M18.7273 14.57L18.476 14.6874L18.524 14.4387L18.3207 14.2626L18.6017 14.2263L18.7273 14L18.8529 14.2263L19.1339 14.2626L18.9306 14.4387L18.9786 14.6874L18.7273 14.57Z" fill="#F7FCFF"/><path id="Star 4_7" fill-rule="evenodd" clip-rule="evenodd" d="M17.1526 15.37L16.9013 15.4875L16.9493 15.2388L16.746 15.0626L17.027 15.0263L17.1526 14.8L17.2782 15.0263L17.5592 15.0626L17.3559 15.2388L17.4039 15.4875L17.1526 15.37Z" fill="#F7FCFF"/><path id="Star 4_8" fill-rule="evenodd" clip-rule="evenodd" d="M22.3274 11.9699L22.0761 12.0873L22.1241 11.8386L21.9208 11.6625L22.2018 11.6262L22.3274 11.3999L22.453 11.6262L22.734 11.6625L22.5307 11.8386L22.5787 12.0873L22.3274 11.9699Z" fill="#F7FCFF"/><path id="Path 9" d="M14.1655 12.9973L14.3347 11.0029C19.7324 11.3647 23.9927 12.9423 27.0619 15.7485L25.4486 17.1426C22.7884 14.7104 19.0453 13.3243 14.1655 12.9973Z" fill="#F7FCFF"/><path id="Path 2" d="M16.8257 12.6028L16.8836 12.1055C20.3632 12.4259 23.3478 13.6105 25.8282 15.657L25.4456 16.0234C23.0553 14.0515 20.185 12.9121 16.8257 12.6028Z" fill="#009933"/></g></g></g></g></g></g></g></g><defs><filter id="filter0_dd_91_29363" x="0" y="0" width="42" height="30" filterUnits="userSpaceOnUse" color-interpolation-filters="sRGB"><feFlood flood-opacity="0" result="BackgroundImageFix"/><feColorMatrix in="SourceAlpha" values="0 0 0 0 0 0 0 0 0 0 0 0 0 0 0 0 0 0 127 0" result="hardAlpha"/><feOffset dy="1"/><feGaussianBlur stdDeviation="1"/><feColorMatrix values="0 0 0 0 0.0627451 0 0 0 0 0.0941176 0 0 0 0 0.156863 0 0 0 0.06 0"/><feBlend in2="BackgroundImageFix" result="effect1_dropShadow_91_29363"/><feColorMatrix in="SourceAlpha" values="0 0 0 0 0 0 0 0 0 0 0 0 0 0 0 0 0 0 127 0" result="hardAlpha"/><feOffset dy="1"/><feGaussianBlur stdDeviation="1.5"/><feColorMatrix values="0 0 0 0 0.0627451 0 0 0 0 0.0941176 0 0 0 0 0.156863 0 0 0 0.1 0"/><feBlend in2="effect1_dropShadow_91_29363" result="effect2_dropShadow_91_29363"/><feBlend in="SourceGraphic" in2="effect2_dropShadow_91_29363" result="shape"/></filter><filter id="filter1_d_91_29363" x="7.28516" y="5.7041" width="27.3594" height="16.4673" filterUnits="userSpaceOnUse" color-interpolation-filters="sRGB"><feFlood flood-opacity="0" result="BackgroundImageFix"/><feColorMatrix in="SourceAlpha" values="0 0 0 0 0 0 0 0 0 0 0 0 0 0 0 0 0 0 127 0" result="hardAlpha"/><feOffset/><feColorMatrix values="0 0 0 0 0.0313726 0 0 0 0 0.368627 0 0 0 0 0 0 0 0 0.28 0"/><feBlend in2="BackgroundImageFix" result="effect1_dropShadow_91_29363"/><feBlend in="SourceGraphic" in2="effect1_dropShadow_91_29363" result="shape"/></filter><linearGradient id="paint0_linear_91_29363" x1="39" y1="26" x2="39" y2="2" gradientUnits="userSpaceOnUse"><stop stop-color="#FFC600"/><stop offset="1" stop-color="#FFDE42"/></linearGradient><clipPath id="clip0_91_29363"><rect x="3" y="2" width="36" height="24" rx="2" fill="white"/></clipPath></defs></svg>