<svg width="42" height="30" viewBox="0 0 42 30" fill="none" xmlns="http://www.w3.org/2000/svg"><g id="Country=FO - Faroe Islands, Size=sm (36x24)" filter="url(#filter0_dd_91_28269)"><g clip-path="url(#clip0_91_28269)"><g id="flag"><mask id="mask0_91_28269" style="mask-type:alpha" maskUnits="userSpaceOnUse" x="3" y="2" width="36" height="24"><rect id="mask" x="3" y="2" width="36" height="24" fill="white"/></mask><g mask="url(#mask0_91_28269)"><g id="contents"><path id="background" fill-rule="evenodd" clip-rule="evenodd" d="M3 2V26H39V2H3Z" fill="#F7FCFF"/><mask id="mask1_91_28269" style="mask-type:alpha" maskUnits="userSpaceOnUse" x="3" y="2" width="36" height="24"><path id="background_2" fill-rule="evenodd" clip-rule="evenodd" d="M3 2V26H39V2H3Z" fill="white"/></mask><g mask="url(#mask1_91_28269)"><g id="mark"><path id="cross" d="M14.25 1H13.25V2V11H3H2V12V16V17H3H13.25V26V27H14.25H18.75H19.75V26V17H39H40V16V12V11H39H19.75V2V1H18.75H14.25Z" fill="#F50100" stroke="#2E42A5" stroke-width="2"/></g></g></g></g></g></g></g><defs><filter id="filter0_dd_91_28269" x="0" y="0" width="42" height="30" filterUnits="userSpaceOnUse" color-interpolation-filters="sRGB"><feFlood flood-opacity="0" result="BackgroundImageFix"/><feColorMatrix in="SourceAlpha" values="0 0 0 0 0 0 0 0 0 0 0 0 0 0 0 0 0 0 127 0" result="hardAlpha"/><feOffset dy="1"/><feGaussianBlur stdDeviation="1"/><feColorMatrix values="0 0 0 0 0.0627451 0 0 0 0 0.0941176 0 0 0 0 0.156863 0 0 0 0.06 0"/><feBlend in2="BackgroundImageFix" result="effect1_dropShadow_91_28269"/><feColorMatrix in="SourceAlpha" values="0 0 0 0 0 0 0 0 0 0 0 0 0 0 0 0 0 0 127 0" result="hardAlpha"/><feOffset dy="1"/><feGaussianBlur stdDeviation="1.5"/><feColorMatrix values="0 0 0 0 0.0627451 0 0 0 0 0.0941176 0 0 0 0 0.156863 0 0 0 0.1 0"/><feBlend in2="effect1_dropShadow_91_28269" result="effect2_dropShadow_91_28269"/><feBlend in="SourceGraphic" in2="effect2_dropShadow_91_28269" result="shape"/></filter><clipPath id="clip0_91_28269"><rect x="3" y="2" width="36" height="24" rx="2" fill="white"/></clipPath></defs></svg>