<svg width="42" height="30" viewBox="0 0 42 30" fill="none" xmlns="http://www.w3.org/2000/svg"><g id="Country=CF - Central African Republic, Size=sm (36x24)" filter="url(#filter0_dd_91_29020)"><g clip-path="url(#clip0_91_29020)"><g id="flag"><mask id="mask0_91_29020" style="mask-type:alpha" maskUnits="userSpaceOnUse" x="3" y="2" width="36" height="24"><rect id="mask" x="3" y="2" width="36" height="24" fill="white"/></mask><g mask="url(#mask0_91_29020)"><g id="contents"><path id="4" fill-rule="evenodd" clip-rule="evenodd" d="M3 2H39V8H3V2Z" fill="#3D58DB"/><path id="3" fill-rule="evenodd" clip-rule="evenodd" d="M3 8H39V14H3V8Z" fill="#F7FCFF"/><path id="2" fill-rule="evenodd" clip-rule="evenodd" d="M3 14H39V20H3V14Z" fill="#73BE4A"/><path id="1" fill-rule="evenodd" clip-rule="evenodd" d="M3 20H39V26H3V20Z" fill="#FFD018"/><g id="mark"><path id="Star 5" fill-rule="evenodd" clip-rule="evenodd" d="M8.09569 7.41606L5.36808 9.09777L6.23965 6.21741L4.2373 4.37743L6.94859 4.27794L8.09569 1.42969L9.24278 4.27794H11.9495L9.95172 6.21741L10.9522 8.92776L8.09569 7.41606Z" fill="#FECA00"/></g><path id="middle" fill-rule="evenodd" clip-rule="evenodd" d="M16.5 2H25.5V26H16.5V2Z" fill="#E11C1B"/></g></g></g></g></g><defs><filter id="filter0_dd_91_29020" x="0" y="0" width="42" height="30" filterUnits="userSpaceOnUse" color-interpolation-filters="sRGB"><feFlood flood-opacity="0" result="BackgroundImageFix"/><feColorMatrix in="SourceAlpha" values="0 0 0 0 0 0 0 0 0 0 0 0 0 0 0 0 0 0 127 0" result="hardAlpha"/><feOffset dy="1"/><feGaussianBlur stdDeviation="1"/><feColorMatrix values="0 0 0 0 0.0627451 0 0 0 0 0.0941176 0 0 0 0 0.156863 0 0 0 0.06 0"/><feBlend in2="BackgroundImageFix" result="effect1_dropShadow_91_29020"/><feColorMatrix in="SourceAlpha" values="0 0 0 0 0 0 0 0 0 0 0 0 0 0 0 0 0 0 127 0" result="hardAlpha"/><feOffset dy="1"/><feGaussianBlur stdDeviation="1.5"/><feColorMatrix values="0 0 0 0 0.0627451 0 0 0 0 0.0941176 0 0 0 0 0.156863 0 0 0 0.1 0"/><feBlend in2="effect1_dropShadow_91_29020" result="effect2_dropShadow_91_29020"/><feBlend in="SourceGraphic" in2="effect2_dropShadow_91_29020" result="shape"/></filter><clipPath id="clip0_91_29020"><rect x="3" y="2" width="36" height="24" rx="2" fill="white"/></clipPath></defs></svg>