<svg width="42" height="30" viewBox="0 0 42 30" fill="none" xmlns="http://www.w3.org/2000/svg"><g id="Country=BY - Belarus, Size=sm (36x24)" filter="url(#filter0_dd_91_29168)"><g clip-path="url(#clip0_91_29168)"><g id="flag"><mask id="mask0_91_29168" style="mask-type:alpha" maskUnits="userSpaceOnUse" x="3" y="2" width="36" height="24"><rect id="mask" x="3" y="2" width="36" height="24" fill="white"/></mask><g mask="url(#mask0_91_29168)"><g id="contents"><path id="middle" fill-rule="evenodd" clip-rule="evenodd" d="M3 2H39V26H3V2Z" fill="#73BE4A"/><path id="top" fill-rule="evenodd" clip-rule="evenodd" d="M3 2V18H39V2H3Z" fill="#AF0100"/><rect id="Rectangle 11" x="3" y="2" width="6.75" height="24" fill="#F7FCFF"/><g id="mark"><g id="top_2"><path id="Path 428" fill-rule="evenodd" clip-rule="evenodd" d="M3.49951 4.23612L5.13371 2.05688L6.72585 4.23605L5.13367 6.31542L3.49951 4.23612ZM5.12768 5.42539L6.04362 4.22918L5.12763 2.97546L4.18752 4.22912L5.12768 5.42539ZM5.24976 4.06458H4.96851V4.5807H5.24976V4.06458Z" fill="#B20000"/><path id="Path 428_2" fill-rule="evenodd" clip-rule="evenodd" d="M4.27896 6.18579L3.49951 7.17648L4.27894 8.12174L5.03835 7.17645L4.27896 6.18579ZM4.64352 7.19328L4.29231 7.61706L3.93689 7.168L4.29137 6.70294L4.64352 7.19328Z" fill="#B20000"/><path id="Path 428_3" fill-rule="evenodd" clip-rule="evenodd" d="M5.96646 6.18579L5.18701 7.17648L5.96644 8.12174L6.72585 7.17645L5.96646 6.18579ZM6.33102 7.19328L5.97981 7.61706L5.62439 7.168L5.97887 6.70294L6.33102 7.19328Z" fill="#B20000"/><path id="Path 428_4" fill-rule="evenodd" clip-rule="evenodd" d="M7.09146 6.18579L6.31201 7.17648L7.09144 8.12174L7.85085 7.17645L7.09146 6.18579ZM7.45602 7.19328L7.10481 7.61706L6.74939 7.168L7.10387 6.70294L7.45602 7.19328Z" fill="#B20000"/><path id="Path 428_5" fill-rule="evenodd" clip-rule="evenodd" d="M8.77896 6.18579L7.99951 7.17648L8.77894 8.12174L9.53835 7.17645L8.77896 6.18579ZM9.14352 7.19328L8.79231 7.61706L8.43689 7.168L8.79137 6.70294L9.14352 7.19328Z" fill="#B20000"/><path id="Path 428_6" fill-rule="evenodd" clip-rule="evenodd" d="M6.31201 4.23612L7.94621 2.05688L9.53835 4.23605L7.94617 6.31542L6.31201 4.23612ZM7.94018 5.42539L8.85612 4.22918L7.94013 2.97546L7.00002 4.22912L7.94018 5.42539ZM8.06226 4.06458H7.78101V4.5807H8.06226V4.06458Z" fill="#B20000"/><path id="Path 429" d="M4.86306 14.406L3.0415 11.687L3.52071 11.4167L4.84122 13.3878L6.45246 10.7559L8.10374 13.3941L9.27047 11.6728L9.74813 11.9454L8.08452 14.3998L6.45788 11.8009L4.86306 14.406Z" fill="#B20000"/><path id="Path" fill-rule="evenodd" clip-rule="evenodd" d="M3.84375 2.51611H4.14617V3.03224H3.84375V2.51611Z" fill="#B20000"/><path id="Path_2" fill-rule="evenodd" clip-rule="evenodd" d="M6.375 2H6.67742V2.51613H6.375V2Z" fill="#B20000"/><path id="Path_3" fill-rule="evenodd" clip-rule="evenodd" d="M8.90625 2.51611H9.20867V3.03224H8.90625V2.51611Z" fill="#B20000"/><path id="Combined Shape" fill-rule="evenodd" clip-rule="evenodd" d="M3.84375 5.61279H4.125V6.12892H3.84375V5.61279ZM6.375 5.61279H6.65625V6.12892H6.375V5.61279ZM9.1875 5.61279H8.90625V6.12892H9.1875V5.61279Z" fill="#B20000"/><path id="Combined Shape_2" fill-rule="evenodd" clip-rule="evenodd" d="M3.84375 8.1936H4.125V8.70973H3.84375V8.1936ZM6.375 8.1936H6.65625V8.70973H6.375V8.1936ZM9.1875 8.1936H8.90625V8.70973H9.1875V8.1936Z" fill="#B20000"/><path id="Combined Shape_3" fill-rule="evenodd" clip-rule="evenodd" d="M5.48395 10.9549L4.73673 11.9231L3.55811 10.0362L5.11034 7.88037L6.44526 9.75961L7.78018 7.88037L9.33241 10.0362L8.15379 11.9231L7.40657 10.9549L7.99651 9.86461L7.78018 9.42163L6.51984 11.2388V11.4539L6.44526 11.3464L6.37068 11.4539V11.2388L5.11034 9.42163L4.894 9.86461L5.48395 10.9549Z" fill="#B20000"/><path id="Combined Shape_4" fill-rule="evenodd" clip-rule="evenodd" d="M6.375 12.5806H6.65625V13.0967H6.375V12.5806ZM6.375 15.1612H6.65625V15.6773H6.375V15.1612ZM6.375 13.3547H6.09375V13.8709H6.375V13.3547ZM6.65625 13.3547H6.9375V13.8709H6.65625V13.3547ZM6.65625 13.8709H6.375V14.129H6.09375V14.6451H6.375V14.387H6.65625V14.6451H6.9375V14.129H6.65625V13.8709ZM5.53125 13.8709H5.8125V14.387H5.53125V13.8709ZM7.5 13.8709H7.21875V14.387H7.5V13.8709ZM3.5625 13.8709H3.84375V14.387H3.5625V13.8709ZM9.46875 13.8709H9.1875V14.387H9.46875V13.8709Z" fill="#B20000"/></g><g id="bottom"><path id="Path 428_7" fill-rule="evenodd" clip-rule="evenodd" d="M3.49951 23.7639L5.13371 25.9431L6.72585 23.7639L5.13367 21.6846L3.49951 23.7639ZM5.12768 22.5746L6.04362 23.7708L5.12763 25.0245L4.18752 23.7709L5.12768 22.5746ZM5.24976 23.9354H4.96851V23.4193H5.24976V23.9354Z" fill="#B20000"/><path id="Path 428_8" fill-rule="evenodd" clip-rule="evenodd" d="M4.27896 21.8142L3.49951 20.8235L4.27894 19.8783L5.03835 20.8235L4.27896 21.8142ZM4.64352 20.8067L4.29231 20.3829L3.93689 20.832L4.29137 21.2971L4.64352 20.8067Z" fill="#B20000"/><path id="Path 428_9" fill-rule="evenodd" clip-rule="evenodd" d="M5.96646 21.8142L5.18701 20.8235L5.96644 19.8783L6.72585 20.8235L5.96646 21.8142ZM6.33102 20.8067L5.97981 20.3829L5.62439 20.832L5.97887 21.2971L6.33102 20.8067Z" fill="#B20000"/><path id="Path 428_10" fill-rule="evenodd" clip-rule="evenodd" d="M7.09146 21.8142L6.31201 20.8235L7.09144 19.8783L7.85085 20.8235L7.09146 21.8142ZM7.45602 20.8067L7.10481 20.3829L6.74939 20.832L7.10387 21.2971L7.45602 20.8067Z" fill="#B20000"/><path id="Path 428_11" fill-rule="evenodd" clip-rule="evenodd" d="M8.77896 21.8142L7.99951 20.8235L8.77894 19.8783L9.53835 20.8235L8.77896 21.8142ZM9.14352 20.8067L8.79231 20.3829L8.43689 20.832L8.79137 21.2971L9.14352 20.8067Z" fill="#B20000"/><path id="Path 428_12" fill-rule="evenodd" clip-rule="evenodd" d="M6.31201 23.7639L7.94621 25.9431L9.53835 23.7639L7.94617 21.6846L6.31201 23.7639ZM7.94018 22.5746L8.85612 23.7708L7.94013 25.0245L7.00002 23.7709L7.94018 22.5746ZM8.06226 23.9354H7.78101V23.4193H8.06226V23.9354Z" fill="#B20000"/><path id="Path 429_2" d="M4.86306 13.594L3.0415 16.313L3.52071 16.5833L4.84122 14.6122L6.45246 17.2441L8.10374 14.6059L9.27047 16.3272L9.74813 16.0546L8.08452 13.6002L6.45788 16.1991L4.86306 13.594Z" fill="#B20000"/><path id="Path_4" fill-rule="evenodd" clip-rule="evenodd" d="M3.84375 25.4839H4.14617V24.9678H3.84375V25.4839Z" fill="#B20000"/><path id="Path_5" fill-rule="evenodd" clip-rule="evenodd" d="M6.375 26H6.67742V25.4839H6.375V26Z" fill="#B20000"/><path id="Path_6" fill-rule="evenodd" clip-rule="evenodd" d="M8.90625 25.4839H9.20867V24.9678H8.90625V25.4839Z" fill="#B20000"/><path id="Combined Shape_5" fill-rule="evenodd" clip-rule="evenodd" d="M3.84375 22.3872H4.125V21.8711H3.84375V22.3872ZM6.375 22.3872H6.65625V21.8711H6.375V22.3872ZM9.1875 22.3872H8.90625V21.8711H9.1875V22.3872Z" fill="#B20000"/><path id="Combined Shape_6" fill-rule="evenodd" clip-rule="evenodd" d="M3.84375 19.8064H4.125V19.2903H3.84375V19.8064ZM6.375 19.8064H6.65625V19.2903H6.375V19.8064ZM9.1875 19.8064H8.90625V19.2903H9.1875V19.8064Z" fill="#B20000"/><path id="Combined Shape_7" fill-rule="evenodd" clip-rule="evenodd" d="M5.48395 17.1928L4.73673 16.2246L3.55811 18.1115L5.11034 20.2673L6.44526 18.3881L7.78018 20.2673L9.33241 18.1115L8.15379 16.2246L7.40657 17.1928L7.99651 18.2831L7.78018 18.7261L6.51984 16.9089V16.6938L6.44526 16.8014L6.37068 16.6938V16.9089L5.11034 18.7261L4.894 18.2831L5.48395 17.1928Z" fill="#B20000"/></g></g></g></g></g></g></g><defs><filter id="filter0_dd_91_29168" x="0" y="0" width="42" height="30" filterUnits="userSpaceOnUse" color-interpolation-filters="sRGB"><feFlood flood-opacity="0" result="BackgroundImageFix"/><feColorMatrix in="SourceAlpha" values="0 0 0 0 0 0 0 0 0 0 0 0 0 0 0 0 0 0 127 0" result="hardAlpha"/><feOffset dy="1"/><feGaussianBlur stdDeviation="1"/><feColorMatrix values="0 0 0 0 0.0627451 0 0 0 0 0.0941176 0 0 0 0 0.156863 0 0 0 0.06 0"/><feBlend in2="BackgroundImageFix" result="effect1_dropShadow_91_29168"/><feColorMatrix in="SourceAlpha" values="0 0 0 0 0 0 0 0 0 0 0 0 0 0 0 0 0 0 127 0" result="hardAlpha"/><feOffset dy="1"/><feGaussianBlur stdDeviation="1.5"/><feColorMatrix values="0 0 0 0 0.0627451 0 0 0 0 0.0941176 0 0 0 0 0.156863 0 0 0 0.1 0"/><feBlend in2="effect1_dropShadow_91_29168" result="effect2_dropShadow_91_29168"/><feBlend in="SourceGraphic" in2="effect2_dropShadow_91_29168" result="shape"/></filter><clipPath id="clip0_91_29168"><rect x="3" y="2" width="36" height="24" rx="2" fill="white"/></clipPath></defs></svg>