<svg width="42" height="30" viewBox="0 0 42 30" fill="none" xmlns="http://www.w3.org/2000/svg"><g id="Country=BO - Bolivia, Size=sm (36x24)" filter="url(#filter0_dd_91_29419)"><g clip-path="url(#clip0_91_29419)"><g id="flag"><mask id="mask0_91_29419" style="mask-type:alpha" maskUnits="userSpaceOnUse" x="3" y="2" width="36" height="24"><rect id="mask" x="3" y="2" width="36" height="24" fill="white"/></mask><g mask="url(#mask0_91_29419)"><g id="contents"><path id="background" fill-rule="evenodd" clip-rule="evenodd" d="M3 2V26H39V2H3Z" fill="#FECA00"/><mask id="mask1_91_29419" style="mask-type:alpha" maskUnits="userSpaceOnUse" x="3" y="2" width="36" height="24"><path id="background_2" fill-rule="evenodd" clip-rule="evenodd" d="M3 2V26H39V2H3Z" fill="white"/></mask><g mask="url(#mask1_91_29419)"><path id="top" fill-rule="evenodd" clip-rule="evenodd" d="M3 2V10H39V2H3Z" fill="#DB501C"/><path id="bottom" fill-rule="evenodd" clip-rule="evenodd" d="M3 18V26H39V18H3Z" fill="#5EAA22"/><g id="mark"><g id="left"><g id="spears"><path id="Path 10" d="M17.002 11.9591L17.0428 11.9238L25.1649 18.8686L25.124 18.9038L17.002 11.9591Z" fill="#864C26"/><path id="Path 11" d="M25.7487 18.4173L25.7137 18.4569L16.2646 12.2874L16.2997 12.2478L25.7487 18.4173Z" fill="#864C26"/><path id="Path 12" d="M25.948 17.8019L25.9195 17.8452L15.4087 12.7597L15.4371 12.7163L25.948 17.8019Z" fill="#A05A2C"/><path id="Combined Shape" fill-rule="evenodd" clip-rule="evenodd" d="M16.052 11.1123L16.848 11.5804L16.8035 11.6074C16.8217 11.6166 16.8404 11.6266 16.8597 11.6372C16.8821 11.6495 16.8978 11.6644 16.907 11.6815C16.9232 11.6392 16.9228 11.5879 16.9056 11.5267L16.8637 11.3777L16.9581 11.5083C17.1081 11.7159 17.1304 11.8644 17.0138 11.9485C16.8998 12.0306 16.7205 12.0091 16.4782 11.8908L16.3798 11.8427L16.4921 11.8442C16.5843 11.8455 16.6634 11.8358 16.7296 11.8154L16.6837 11.8045C16.6448 11.7952 16.616 11.771 16.5964 11.733L16.5184 11.7804L16.052 11.1123ZM15.0975 11.6414L15.9728 11.9795L15.9332 12.0138C15.9537 12.0203 15.9749 12.0275 15.9969 12.0353C16.0213 12.044 16.0397 12.0562 16.0522 12.0716C16.0597 12.0276 16.0492 11.9772 16.0204 11.9197L15.9501 11.7794L16.0686 11.8935C16.2568 12.0748 16.3079 12.2176 16.2094 12.3184C16.1132 12.4168 15.9324 12.4234 15.6707 12.3442L15.5643 12.3121L15.6752 12.2962C15.7666 12.2832 15.8428 12.2613 15.9041 12.2309L15.8562 12.2272C15.8154 12.224 15.7819 12.204 15.7549 12.1685L15.6872 12.2273L15.0975 11.6414ZM15.1551 12.4532L14.25 12.1842L14.895 12.7222L14.9565 12.6585C14.987 12.6923 15.0226 12.7099 15.0639 12.7099H15.112C15.0539 12.745 14.9801 12.7727 14.8903 12.7928L14.7813 12.8172L14.8904 12.841C15.1589 12.8996 15.3383 12.879 15.4245 12.7735C15.5127 12.6655 15.4479 12.5271 15.2426 12.3611L15.1134 12.2567L15.1972 12.391C15.2315 12.4459 15.2468 12.4952 15.2437 12.5396C15.2298 12.5253 15.2104 12.5146 15.1852 12.5079C15.1621 12.5017 15.1399 12.4961 15.1185 12.4911L15.1551 12.4532ZM15.0562 12.4776L15.0572 12.4767L14.4773 12.3043L14.8905 12.649L14.9245 12.6139C14.9184 12.6034 14.9125 12.5921 14.907 12.5801L14.9108 12.5788L14.8832 12.5524L14.9941 12.467L15.0081 12.4692C15.0235 12.4716 15.0396 12.4744 15.0562 12.4776Z" fill="#E7E7E7"/></g><g id="flags"><path id="Path 15" fill-rule="evenodd" clip-rule="evenodd" d="M18.1553 18.2131L19.0943 16.7244L20.4116 17.0397L19.4636 18.3984H19.0943V18.5466L18.1553 18.2131Z" fill="#925229"/><path id="Path 2" fill-rule="evenodd" clip-rule="evenodd" d="M17.7525 12.4888L17.1309 13.0629L16.9048 16.8571L19.1445 17.1473C19.1445 17.1473 18.1685 16.3857 18.0246 15.9156C17.8808 15.4456 17.8349 13.6907 18.107 13.4239L18.3196 13.5342L18.4906 13.0828" fill="#FFE000"/><path id="Path" fill-rule="evenodd" clip-rule="evenodd" d="M15.5879 12.7474C15.5879 12.7474 15.3472 15.71 15.3472 16.2304C15.3472 16.7507 15.8441 17.9897 16.977 17.9897C18.1099 17.9897 19.6644 17.4353 19.6644 17.2092C19.6644 16.9832 19.2003 16.8212 19.2003 16.8212C19.2003 16.8212 17.1169 16.9478 17.1169 16.2304C17.1169 15.5129 17.2584 13.3892 17.3821 13.1388C17.5058 12.8884 17.9345 12.5108 17.9345 12.5108L17.1169 11.9707L16.977 12.5108L16.4528 12.3522L16.2928 13.1388L15.5879 12.7474Z" fill="#D52C1E"/><path id="Path 7" fill-rule="evenodd" clip-rule="evenodd" d="M18.4988 13.0762L18.3482 13.4952L18.0439 13.3811C18.0439 13.3811 17.589 15.2773 18.0439 16.0716C18.4988 16.8659 19.6444 16.9236 19.6444 16.9236L19.1604 13.4952L18.4988 13.0762Z" fill="#027934"/><path id="Path 16" fill-rule="evenodd" clip-rule="evenodd" d="M18.4319 15.6382L17.3401 16.4057C17.3401 16.4057 17.0407 16.7872 17.3401 17.076C17.6396 17.3648 18.4698 17.6592 18.6656 17.3106C18.8615 16.962 19.4434 16.5536 19.4434 16.5536L18.4319 15.6382Z" fill="#E8A30C"/><path id="Oval 3" fill-rule="evenodd" clip-rule="evenodd" d="M19.2886 12.7426C19.5543 12.5373 19.6874 12.2868 19.586 12.1832C19.4846 12.0795 19.1871 12.1618 18.9214 12.3671C18.6558 12.5724 18.5226 12.8228 18.624 12.9265C18.7254 13.0302 19.023 12.9478 19.2886 12.7426Z" fill="#E1E5E8"/><path id="Path 17" fill-rule="evenodd" clip-rule="evenodd" d="M18.6186 11.3033C18.6186 11.3033 18.5117 11.2838 18.4633 11.2773C18.118 11.2308 17.9453 11.2934 17.9453 11.4651C17.9453 11.7588 18.1654 12.0759 18.1654 12.2977C18.1654 12.5195 18.1761 12.8648 18.282 12.6922C18.3878 12.5195 18.9263 12.0007 18.9263 12.0007L18.6186 11.5506C18.6186 11.5506 19.3823 11.6269 19.047 11.4651" fill="#D52C1E"/></g><g id="Group"><path id="Path 20" fill-rule="evenodd" clip-rule="evenodd" d="M20.9657 17.3781L20.393 17.373C19.9678 17.7467 19.9286 18.2496 20.2634 18.8569C20.2634 18.8569 20.3732 18.9981 20.4117 18.9849C20.4656 18.9665 20.5404 18.762 20.5404 18.762C20.5149 18.1689 20.9402 17.7761 20.9657 17.3781Z" fill="#D52C1E"/><path id="Path 20_2" fill-rule="evenodd" clip-rule="evenodd" d="M20.2406 17.3937L20.4466 17.3086C20.6495 17.6834 20.5478 18.0715 20.1562 18.457L19.9858 18.3249C20.1562 17.8828 20.1562 17.6997 20.2406 17.3937Z" fill="#FFE000"/><path id="Path 20_3" d="M19.9773 17.3816L20.1922 17.3257C20.2955 17.6396 20.2439 17.9634 20.041 18.292L19.8447 18.1963C20.0202 17.9122 20.0632 17.6424 19.9773 17.3816Z" fill="#027934"/></g></g><g id="right"><g id="spears_2"><path id="Path 10_2" d="M24.998 11.9591L24.9572 11.9238L16.8351 18.8686L16.876 18.9038L24.998 11.9591Z" fill="#864C26"/><path id="Path 11_2" d="M16.2513 18.4173L16.2863 18.4569L25.7354 12.2874L25.7003 12.2478L16.2513 18.4173Z" fill="#864C26"/><path id="Path 12_2" d="M16.052 17.8019L16.0805 17.8452L26.5913 12.7597L26.5629 12.7163L16.052 17.8019Z" fill="#A05A2C"/><path id="Combined Shape_2" fill-rule="evenodd" clip-rule="evenodd" d="M25.948 11.1123L25.152 11.5804L25.1965 11.6074C25.1783 11.6166 25.1596 11.6266 25.1403 11.6372C25.1179 11.6495 25.1022 11.6644 25.093 11.6815C25.0768 11.6392 25.0772 11.5879 25.0944 11.5267L25.1363 11.3777L25.0419 11.5083C24.8919 11.7159 24.8696 11.8644 24.9862 11.9485C25.1002 12.0306 25.2795 12.0091 25.5218 11.8908L25.6202 11.8427L25.5079 11.8442C25.4157 11.8455 25.3366 11.8358 25.2704 11.8154L25.3163 11.8045C25.3552 11.7952 25.384 11.771 25.4036 11.733L25.4816 11.7804L25.948 11.1123ZM26.9025 11.6414L26.0272 11.9795L26.0668 12.0138C26.0463 12.0203 26.0251 12.0275 26.0031 12.0353C25.9787 12.044 25.9603 12.0562 25.9478 12.0716C25.9403 12.0276 25.9508 11.9772 25.9796 11.9197L26.0499 11.7794L25.9314 11.8935C25.7432 12.0748 25.6921 12.2176 25.7906 12.3184C25.8868 12.4168 26.0676 12.4234 26.3293 12.3442L26.4357 12.3121L26.3248 12.2962C26.2334 12.2832 26.1572 12.2613 26.0959 12.2309L26.1438 12.2272C26.1846 12.224 26.2181 12.204 26.2451 12.1685L26.3128 12.2273L26.9025 11.6414ZM26.8449 12.4532L27.75 12.1842L27.105 12.7222L27.0435 12.6585C27.013 12.6923 26.9774 12.7099 26.9361 12.7099H26.888C26.9461 12.745 27.0199 12.7727 27.1097 12.7928L27.2187 12.8172L27.1096 12.841C26.8411 12.8996 26.6617 12.879 26.5755 12.7735C26.4873 12.6655 26.5521 12.5271 26.7574 12.3611L26.8866 12.2567L26.8028 12.391C26.7685 12.4459 26.7532 12.4952 26.7563 12.5396C26.7702 12.5253 26.7896 12.5146 26.8148 12.5079C26.8379 12.5017 26.8601 12.4961 26.8815 12.4911L26.8449 12.4532ZM26.9438 12.4776L26.9428 12.4767L27.5227 12.3043L27.1095 12.649L27.0755 12.6139C27.0816 12.6034 27.0875 12.5921 27.093 12.5801L27.0892 12.5788L27.1168 12.5524L27.0059 12.467L26.9919 12.4692C26.9765 12.4716 26.9604 12.4744 26.9438 12.4776Z" fill="#E7E7E7"/></g><g id="flags_2"><path id="Path 15_2" fill-rule="evenodd" clip-rule="evenodd" d="M23.8447 18.2131L22.9057 16.7244L21.5884 17.0397L22.5364 18.3984H22.9057V18.5466L23.8447 18.2131Z" fill="#925229"/><path id="Path 2_2" fill-rule="evenodd" clip-rule="evenodd" d="M24.2475 12.4888L24.8691 13.0629L25.0952 16.8571L22.8555 17.1473C22.8555 17.1473 23.8315 16.3857 23.9754 15.9156C24.1192 15.4456 24.1651 13.6907 23.893 13.4239L23.6804 13.5342L23.5094 13.0828" fill="#FFE000"/><path id="Path_2" fill-rule="evenodd" clip-rule="evenodd" d="M26.4121 12.7474C26.4121 12.7474 26.6528 15.71 26.6528 16.2304C26.6528 16.7507 26.1559 17.9897 25.023 17.9897C23.8901 17.9897 22.3356 17.4353 22.3356 17.2092C22.3356 16.9832 22.7997 16.8212 22.7997 16.8212C22.7997 16.8212 24.8831 16.9478 24.8831 16.2304C24.8831 15.5129 24.7416 13.3892 24.6179 13.1388C24.4942 12.8884 24.0655 12.5108 24.0655 12.5108L24.8831 11.9707L25.023 12.5108L25.5472 12.3522L25.7072 13.1388L26.4121 12.7474Z" fill="#D52C1E"/><path id="Path 7_2" fill-rule="evenodd" clip-rule="evenodd" d="M23.5012 13.0762L23.6518 13.4952L23.9561 13.3811C23.9561 13.3811 24.411 15.2773 23.9561 16.0716C23.5012 16.8659 22.3556 16.9236 22.3556 16.9236L22.8396 13.4952L23.5012 13.0762Z" fill="#027934"/><path id="Path 16_2" fill-rule="evenodd" clip-rule="evenodd" d="M23.5681 15.6382L24.6599 16.4057C24.6599 16.4057 24.9593 16.7872 24.6599 17.076C24.3604 17.3648 23.5302 17.6592 23.3344 17.3106C23.1385 16.962 22.5566 16.5536 22.5566 16.5536L23.5681 15.6382Z" fill="#E8A30C"/><path id="Oval 3_2" fill-rule="evenodd" clip-rule="evenodd" d="M22.7114 12.7426C22.4457 12.5373 22.3126 12.2868 22.414 12.1832C22.5154 12.0795 22.8129 12.1618 23.0786 12.3671C23.3442 12.5724 23.4774 12.8228 23.376 12.9265C23.2746 13.0302 22.977 12.9478 22.7114 12.7426Z" fill="#E1E5E8"/></g><g id="Group_2"><path id="Path 20_4" fill-rule="evenodd" clip-rule="evenodd" d="M21.0343 17.3781L21.607 17.373C22.0322 17.7467 22.0714 18.2496 21.7366 18.8569C21.7366 18.8569 21.6268 18.9981 21.5883 18.9849C21.5344 18.9665 21.4596 18.762 21.4596 18.762C21.4851 18.1689 21.0598 17.7761 21.0343 17.3781Z" fill="#D52C1E"/><path id="Path 20_5" fill-rule="evenodd" clip-rule="evenodd" d="M21.7594 17.3937L21.5534 17.3086C21.3505 17.6834 21.4522 18.0715 21.8438 18.457L22.0142 18.3249C21.8438 17.8828 21.8438 17.6997 21.7594 17.3937Z" fill="#FFE000"/><path id="Path 20_6" d="M22.0227 17.3816L21.8078 17.3257C21.7045 17.6396 21.7561 17.9634 21.959 18.292L22.1553 18.1963C21.9798 17.9122 21.9368 17.6424 22.0227 17.3816Z" fill="#027934"/></g></g><g id="middl"><path id="Oval" fill-rule="evenodd" clip-rule="evenodd" d="M18.2476 14.8209C18.2476 16.2601 19.4431 17.4577 20.9707 17.4577C22.4984 17.4577 23.6939 16.2601 23.6939 14.8209C23.6939 13.3817 22.4984 12.1841 20.9707 12.1841C19.4431 12.1841 18.2476 13.3817 18.2476 14.8209ZM23.0566 14.8209C23.0566 15.9749 22.1227 16.9104 20.9707 16.9104C19.8187 16.9104 18.8849 15.9749 18.8849 14.8209C18.8849 13.6668 19.8187 12.7313 20.9707 12.7313C22.1227 12.7313 23.0566 13.6668 23.0566 14.8209Z" fill="#00A6DE"/><g id="middle"><path id="Mask" fill-rule="evenodd" clip-rule="evenodd" d="M20.9706 16.9105C22.1226 16.9105 23.0564 15.975 23.0564 14.821C23.0564 13.667 22.1226 12.7314 20.9706 12.7314C19.8186 12.7314 18.8848 13.667 18.8848 14.821C18.8848 15.975 19.8186 16.9105 20.9706 16.9105Z" fill="#FFC036"/><mask id="mask2_91_29419" style="mask-type:alpha" maskUnits="userSpaceOnUse" x="18" y="12" width="6" height="5"><path id="Mask_2" fill-rule="evenodd" clip-rule="evenodd" d="M20.9706 16.9105C22.1226 16.9105 23.0564 15.975 23.0564 14.821C23.0564 13.667 22.1226 12.7314 20.9706 12.7314C19.8186 12.7314 18.8848 13.667 18.8848 14.821C18.8848 15.975 19.8186 16.9105 20.9706 16.9105Z" fill="white"/></mask><g mask="url(#mask2_91_29419)"><path id="Star 2" fill-rule="evenodd" clip-rule="evenodd" d="M20.9706 14.4478L20.6999 14.944L20.7067 14.396L20.212 14.7422L20.495 14.2511L19.8744 14.3787L20.3775 14.0416L19.7539 13.9254L20.3775 13.8091L19.8744 13.4721L20.495 13.5997L20.212 13.1086L20.7067 13.4547L20.6999 12.9068L20.9706 13.403L21.2414 12.9068L21.2346 13.4547L21.7293 13.1086L21.4463 13.5997L22.0669 13.4721L21.5638 13.8091L22.1874 13.9254L21.5638 14.0416L22.0669 14.3787L21.4463 14.2511L21.7293 14.7422L21.2346 14.396L21.2414 14.944L20.9706 14.4478Z" fill="#D52C1E"/><path id="Path 6" fill-rule="evenodd" clip-rule="evenodd" d="M18.7958 14.9411C18.7958 14.9411 20.427 13.9202 20.8278 13.9202C21.2285 13.9202 22.9379 14.9467 23.2876 15.0863C23.6374 15.226 23.2876 17.9642 23.2876 17.9642H18.6606L18.7958 14.9411Z" fill="#027934"/></g></g><path id="Path 9" fill-rule="evenodd" clip-rule="evenodd" d="M18.784 13.7258L18.8845 13.7752C19.4341 12.9507 20.1334 12.5418 20.9864 12.5418C21.9414 12.589 22.6567 13.0524 23.1341 13.9383L23.2393 13.8966C22.7447 12.9788 21.9931 12.4919 20.9897 12.4424C20.0883 12.4423 19.3528 12.8724 18.784 13.7258ZM18.3789 15.3159L18.5662 15.2039L18.7535 15.3159L18.6874 15.1283L18.8693 15.0099L18.6411 15.0059L18.5662 14.8209L18.4913 15.0059L18.2631 15.0099L18.445 15.1283L18.3789 15.3159ZM18.798 15.9502L18.6107 16.0621L18.6768 15.8746L18.495 15.7562L18.7231 15.7522L18.798 15.5671L18.8729 15.7522L19.1011 15.7562L18.9193 15.8746L18.9853 16.0621L18.798 15.9502ZM19.0742 16.6591L19.2615 16.5472L19.4488 16.6591L19.3827 16.4716L19.5646 16.3532L19.3364 16.3492L19.2615 16.1641L19.1866 16.3492L18.9584 16.3532L19.1403 16.4716L19.0742 16.6591ZM19.9568 17.0448L19.7695 17.1567L19.8356 16.9691L19.6537 16.8508L19.8819 16.8468L19.9568 16.6617L20.0317 16.8468L20.2599 16.8508L20.078 16.9691L20.1441 17.1567L19.9568 17.0448ZM20.7546 17.4054L20.9419 17.2935L21.1292 17.4054L21.0631 17.2179L21.2449 17.0995L21.0168 17.0955L20.9419 16.9104L20.8669 17.0955L20.6388 17.0995L20.8206 17.2179L20.7546 17.4054ZM23.3753 15.2039L23.5627 15.3159L23.4966 15.1283L23.6784 15.0099L23.4503 15.0059L23.3753 14.8209L23.3004 15.0059L23.0723 15.0099L23.2541 15.1283L23.188 15.3159L23.3753 15.2039ZM23.3308 16.0621L23.1435 15.9502L22.9562 16.0621L23.0223 15.8746L22.8405 15.7562L23.0686 15.7522L23.1435 15.5671L23.2185 15.7522L23.4466 15.7562L23.2648 15.8746L23.3308 16.0621ZM22.68 16.5472L22.8674 16.6591L22.8013 16.4716L22.9831 16.3532L22.755 16.3492L22.68 16.1641L22.6051 16.3492L22.377 16.3532L22.5588 16.4716L22.4927 16.6591L22.68 16.5472ZM22.1721 17.1567L21.9848 17.0448L21.7974 17.1567L21.8635 16.9691L21.6817 16.8508L21.9098 16.8468L21.9848 16.6617L22.0597 16.8468L22.2878 16.8508L22.106 16.9691L22.1721 17.1567Z" fill="#FFC036"/></g><g id="top_2"><path id="Path 8" d="M19.5189 9.00708L19.7424 9.1517C19.1693 9.60879 19.0616 10.1185 19.1714 10.5564C19.2857 11.0126 19.7939 11.4993 20.7178 11.999L20.3781 12.462C19.3231 11.8914 18.7155 11.3634 18.5579 10.7346C18.3957 10.0874 18.7939 9.58529 19.5189 9.00708Z" fill="#036A2D"/><path id="Path 8_2" d="M22.5598 9.00708L22.3362 9.1517C22.9093 9.60879 23.017 10.1185 22.9073 10.5564C22.7929 11.0126 22.2847 11.4993 21.3608 11.999L21.7005 12.462C22.7555 11.8914 23.3631 11.3634 23.5207 10.7346C23.6829 10.0874 23.2848 9.58529 22.5598 9.00708Z" fill="#036A2D"/><path id="Path 13" fill-rule="evenodd" clip-rule="evenodd" d="M17.372 10.8617C17.372 10.8617 18.3501 10.2605 18.8142 10.2605C19.2783 10.2605 19.8978 10.1229 19.9949 10.4391C20.092 10.7554 20.2756 10.6638 20.635 10.6638C20.9945 10.6638 21.7009 10.6638 21.7009 10.6638C21.7009 10.6638 21.4899 10.2605 21.8809 10.2605C22.2718 10.2605 23.9047 10.4659 24.3976 10.6638C24.8905 10.8617 24.9152 10.9787 24.9152 10.9787C24.9152 10.9787 24.4591 10.7447 23.9545 10.8617C23.4499 10.9787 22.5347 11.4937 22.1178 11.4937C21.7009 11.4937 21.3672 11.8918 21.3672 11.8918C21.3672 11.8918 21.3947 11.6878 21.0149 11.7898C20.635 11.8918 20.6439 12.3725 20.3194 12.2843C19.9949 12.196 20.4129 11.4937 20.3194 11.4937C20.2259 11.4937 19.5633 11.2629 19.5633 11.2629C19.5633 11.2629 18.9204 10.7447 17.9657 10.8617C17.011 10.9787 17.372 10.8617 17.372 10.8617Z" fill="#452C24"/><path id="Oval 2" fill-rule="evenodd" clip-rule="evenodd" d="M20.855 11.2887C21.047 11.2887 21.2026 11.1662 21.2026 11.0151C21.2026 10.864 21.047 10.7415 20.855 10.7415C20.663 10.7415 20.5073 10.864 20.5073 11.0151C20.5073 11.1662 20.663 11.2887 20.855 11.2887Z" fill="#E7E7E7"/><path id="Path 14" fill-rule="evenodd" clip-rule="evenodd" d="M20.104 11.0073C20.104 11.0073 20.2164 10.8184 20.4392 10.8184C20.662 10.8184 21.0798 10.8184 21.0798 10.9128C21.0798 11.0073 21.1133 11.1307 20.7763 11.1307C20.4392 11.1307 20.6552 11.0073 20.4392 11.0073C20.2233 11.0073 20.104 11.0073 20.104 11.0073Z" fill="#E8A30C"/></g><path id="Path 18" fill-rule="evenodd" clip-rule="evenodd" d="M24.0783 12.2833C24.2079 12.1628 24.2802 11.8704 24.2802 11.8704C24.2802 11.8704 23.7018 11.9527 23.5671 11.8704C23.4325 11.7881 23.3626 11.5469 23.3626 11.5469C23.3626 11.5469 22.8415 11.7585 23.0402 11.7585C23.239 11.7585 23.3626 11.9151 23.3626 11.9151L23.767 12.0475C23.767 12.0475 23.4985 12.2833 23.6328 12.2833C23.767 12.2833 23.9488 12.4039 24.0783 12.2833Z" fill="#E1E5E8"/><path id="Path 19" d="M23.0596 12.384L22.9868 12.3067L23.495 11.9531L23.5678 12.0305L23.0596 12.384Z" fill="#925229"/></g></g></g></g></g></g></g><defs><filter id="filter0_dd_91_29419" x="0" y="0" width="42" height="30" filterUnits="userSpaceOnUse" color-interpolation-filters="sRGB"><feFlood flood-opacity="0" result="BackgroundImageFix"/><feColorMatrix in="SourceAlpha" values="0 0 0 0 0 0 0 0 0 0 0 0 0 0 0 0 0 0 127 0" result="hardAlpha"/><feOffset dy="1"/><feGaussianBlur stdDeviation="1"/><feColorMatrix values="0 0 0 0 0.0627451 0 0 0 0 0.0941176 0 0 0 0 0.156863 0 0 0 0.06 0"/><feBlend in2="BackgroundImageFix" result="effect1_dropShadow_91_29419"/><feColorMatrix in="SourceAlpha" values="0 0 0 0 0 0 0 0 0 0 0 0 0 0 0 0 0 0 127 0" result="hardAlpha"/><feOffset dy="1"/><feGaussianBlur stdDeviation="1.5"/><feColorMatrix values="0 0 0 0 0.0627451 0 0 0 0 0.0941176 0 0 0 0 0.156863 0 0 0 0.1 0"/><feBlend in2="effect1_dropShadow_91_29419" result="effect2_dropShadow_91_29419"/><feBlend in="SourceGraphic" in2="effect2_dropShadow_91_29419" result="shape"/></filter><clipPath id="clip0_91_29419"><rect x="3" y="2" width="36" height="24" rx="2" fill="white"/></clipPath></defs></svg>