<svg width="42" height="30" viewBox="0 0 42 30" fill="none" xmlns="http://www.w3.org/2000/svg"><g id="Country=GL - Greenland, Size=sm (36x24)" filter="url(#filter0_dd_91_28058)"><g clip-path="url(#clip0_91_28058)"><g id="flag"><mask id="mask0_91_28058" style="mask-type:alpha" maskUnits="userSpaceOnUse" x="3" y="2" width="36" height="24"><rect id="mask" x="3" y="2" width="36" height="24" fill="white"/></mask><g mask="url(#mask0_91_28058)"><g id="contents"><g id="bottom"><path id="bottom_2" fill-rule="evenodd" clip-rule="evenodd" d="M3 14H39V26H3V14Z" fill="#C51918"/><mask id="mask1_91_28058" style="mask-type:alpha" maskUnits="userSpaceOnUse" x="3" y="14" width="36" height="12"><path id="bottom_3" fill-rule="evenodd" clip-rule="evenodd" d="M3 14H39V26H3V14Z" fill="white"/></mask><g mask="url(#mask1_91_28058)"><path id="circle" fill-rule="evenodd" clip-rule="evenodd" d="M16.5 22C21.4706 22 25.5 18.4183 25.5 14C25.5 9.58172 21.4706 6 16.5 6C11.5294 6 7.5 9.58172 7.5 14C7.5 18.4183 11.5294 22 16.5 22Z" fill="#F7FCFF"/></g></g><g id="top"><path id="top_2" fill-rule="evenodd" clip-rule="evenodd" d="M3 2H39V14H3V2Z" fill="#F7FCFF"/><mask id="mask2_91_28058" style="mask-type:alpha" maskUnits="userSpaceOnUse" x="3" y="2" width="36" height="12"><path id="top_3" fill-rule="evenodd" clip-rule="evenodd" d="M3 2H39V14H3V2Z" fill="white"/></mask><g mask="url(#mask2_91_28058)"><path id="circle_2" fill-rule="evenodd" clip-rule="evenodd" d="M16.5 22C21.4706 22 25.5 18.4183 25.5 14C25.5 9.58172 21.4706 6 16.5 6C11.5294 6 7.5 9.58172 7.5 14C7.5 18.4183 11.5294 22 16.5 22Z" fill="#C51918"/></g></g></g></g></g></g></g><defs><filter id="filter0_dd_91_28058" x="0" y="0" width="42" height="30" filterUnits="userSpaceOnUse" color-interpolation-filters="sRGB"><feFlood flood-opacity="0" result="BackgroundImageFix"/><feColorMatrix in="SourceAlpha" values="0 0 0 0 0 0 0 0 0 0 0 0 0 0 0 0 0 0 127 0" result="hardAlpha"/><feOffset dy="1"/><feGaussianBlur stdDeviation="1"/><feColorMatrix values="0 0 0 0 0.0627451 0 0 0 0 0.0941176 0 0 0 0 0.156863 0 0 0 0.06 0"/><feBlend in2="BackgroundImageFix" result="effect1_dropShadow_91_28058"/><feColorMatrix in="SourceAlpha" values="0 0 0 0 0 0 0 0 0 0 0 0 0 0 0 0 0 0 127 0" result="hardAlpha"/><feOffset dy="1"/><feGaussianBlur stdDeviation="1.5"/><feColorMatrix values="0 0 0 0 0.0627451 0 0 0 0 0.0941176 0 0 0 0 0.156863 0 0 0 0.1 0"/><feBlend in2="effect1_dropShadow_91_28058" result="effect2_dropShadow_91_28058"/><feBlend in="SourceGraphic" in2="effect2_dropShadow_91_28058" result="shape"/></filter><clipPath id="clip0_91_28058"><rect x="3" y="2" width="36" height="24" rx="2" fill="white"/></clipPath></defs></svg>