<svg width="42" height="30" viewBox="0 0 42 30" fill="none" xmlns="http://www.w3.org/2000/svg"><g id="Country=RS - Serbia, Size=sm (36x24)" filter="url(#filter0_dd_91_25341)"><g clip-path="url(#clip0_91_25341)"><g id="flag"><mask id="mask0_91_25341" style="mask-type:alpha" maskUnits="userSpaceOnUse" x="3" y="2" width="36" height="24"><rect id="mask" x="3" y="2" width="36" height="24" fill="white"/></mask><g mask="url(#mask0_91_25341)"><g id="contents"><path id="background" fill-rule="evenodd" clip-rule="evenodd" d="M3 2V26H39V2H3Z" fill="#4857A1"/><mask id="mask1_91_25341" style="mask-type:alpha" maskUnits="userSpaceOnUse" x="3" y="2" width="36" height="24"><path id="background_2" fill-rule="evenodd" clip-rule="evenodd" d="M3 2V26H39V2H3Z" fill="white"/></mask><g mask="url(#mask1_91_25341)"><path id="top" fill-rule="evenodd" clip-rule="evenodd" d="M3 2V10H39V2H3Z" fill="#C51918"/><path id="bottom" fill-rule="evenodd" clip-rule="evenodd" d="M3 18V26H39V18H3Z" fill="#F7FCFF"/><g id="mark"><g id="crown"><path id="Combined Shape" fill-rule="evenodd" clip-rule="evenodd" d="M15.8875 5.80307L15.7602 5.34961C15.8687 5.37924 15.9866 5.40964 16.111 5.44091L16.1098 5.43509C17.5948 5.55483 19.8904 6.23812 20.3178 6.96386C20.4829 7.24437 20.3187 7.48349 20.1034 7.79687C20.0713 7.84369 20.038 7.89218 20.0045 7.94271C19.8962 8.10588 19.7981 8.26187 19.7057 8.40887C19.3721 8.93925 19.112 9.35273 18.7161 9.56514L18.724 10.7661L12.0915 10.7155L12.0829 9.50231C11.7439 9.27662 11.5014 8.89106 11.1981 8.40889L11.1981 8.40888C11.1056 8.26188 11.0075 8.10589 10.8993 7.94272C10.8658 7.89219 10.8325 7.84371 10.8003 7.79689L10.8003 7.79687C10.5851 7.4835 10.4208 7.24438 10.586 6.96387C10.9073 6.41821 12.3629 5.88753 13.6967 5.60688C13.9591 5.52393 14.2334 5.44642 14.5053 5.37219L14.6267 5.45028C14.7321 5.43748 14.8343 5.42705 14.9323 5.41915L15.0851 5.72205H15.6251C15.6251 5.72205 15.9512 6.58259 15.9512 7.0605C15.9512 7.53841 15.6251 7.93361 15.6251 7.93361V8.26351C15.6817 8.26771 15.7411 8.27282 15.8028 8.27874C15.8033 8.25012 15.8064 8.21998 15.8125 8.18914C15.8438 8.03149 15.941 7.91495 16.0297 7.92885C16.1184 7.94275 16.1649 8.08182 16.1337 8.23947C16.1286 8.2651 16.1217 8.28965 16.1135 8.31272C16.4634 8.35502 16.8555 8.41407 17.2269 8.47481C17.3684 8.23112 17.5408 7.99036 17.7055 7.76048L17.7055 7.76047L17.7055 7.76047C18.1311 7.16627 18.5046 6.64477 18.156 6.33346C18.0898 6.2744 17.9701 6.21946 17.8157 6.16858C17.3058 6.05581 16.7506 5.96882 16.2111 5.92532L16.1948 5.84652C16.0871 5.83097 15.9838 5.81649 15.8875 5.80307ZM18.4077 8.68255C18.5963 8.71787 18.7107 8.74034 18.7107 8.74034L18.7118 8.91217C19.3689 8.46198 19.8338 7.4645 19.8757 7.13773C19.901 6.94073 19.5495 6.7136 18.9984 6.50781C19.2593 6.94747 18.91 7.38378 18.4716 7.93135L18.4716 7.93135C18.3069 8.13713 18.1296 8.35862 17.9673 8.60191L18.1282 8.63096C18.1269 8.58578 18.1335 8.53497 18.1493 8.48274C18.1959 8.32811 18.3042 8.21955 18.3912 8.24027C18.4782 8.26098 18.5109 8.40313 18.4643 8.55776C18.4502 8.60428 18.4306 8.64664 18.4077 8.68255ZM15.0187 8.26575V7.89834C15.0187 7.89834 14.7364 7.61785 14.6926 7.03371C14.6613 6.61585 14.7582 6.12463 14.8159 5.87882C14.3947 5.92629 13.9507 6.00003 13.5208 6.09058C13.2354 6.16199 13.008 6.24288 12.9065 6.33347C12.5579 6.64477 12.9315 7.16627 13.3571 7.76047L13.3571 7.76047L13.3571 7.76049L13.3571 7.7605C13.5161 7.98254 13.6824 8.21473 13.821 8.4499C14.0608 8.40376 14.3017 8.36106 14.5266 8.32708C14.5169 8.29617 14.5099 8.26244 14.5064 8.22692C14.4907 8.06745 14.5507 7.93252 14.6404 7.92554C14.7301 7.91856 14.8156 8.04219 14.8313 8.20166C14.8341 8.23057 14.8345 8.25868 14.8326 8.28536C14.8972 8.27766 14.9594 8.27107 15.0187 8.26575ZM13.0936 8.59959C12.9318 8.35721 12.7551 8.13647 12.5909 7.93135C12.1426 7.37141 11.7875 6.92782 12.0827 6.47801C11.4375 6.70008 11.0028 6.94126 11.028 7.13774C11.0676 7.44648 11.4848 8.35397 12.085 8.83288C12.1269 8.82249 12.3589 8.76527 12.6864 8.69044C12.6612 8.65555 12.6391 8.61402 12.6223 8.56803C12.5666 8.41578 12.5909 8.27231 12.6765 8.24757C12.7622 8.22284 12.8767 8.32621 12.9324 8.47846C12.9516 8.531 12.9613 8.58249 12.9622 8.62842L13.0936 8.59959Z" fill="#F6C540"/><g id="gems"><path id="blue" fill-rule="evenodd" clip-rule="evenodd" d="M16.1088 5.50604C16.1088 5.85751 15.7803 6.14244 15.3751 6.14244C14.9699 6.14244 14.6414 5.85751 14.6414 5.50604C14.6414 5.15456 14.9699 4.86963 15.3751 4.86963C15.7803 4.86963 16.1088 5.15456 16.1088 5.50604ZM15.375 10.232C15.6902 10.232 15.9457 10.1022 15.9457 9.94211C15.9457 9.78202 15.6902 9.65225 15.375 9.65225C15.0599 9.65225 14.8044 9.78202 14.8044 9.94211C14.8044 10.1022 15.0599 10.232 15.375 10.232ZM19.0436 10.1595C19.0436 10.2795 18.9341 10.3769 18.799 10.3769C18.6639 10.3769 18.5544 10.2795 18.5544 10.1595C18.5544 10.0394 18.6639 9.94208 18.799 9.94208C18.9341 9.94208 19.0436 10.0394 19.0436 10.1595ZM12.5218 10.1595C12.5218 10.2795 12.4123 10.3769 12.2773 10.3769C12.1422 10.3769 12.0327 10.2795 12.0327 10.1595C12.0327 10.0394 12.1422 9.94209 12.2773 9.94209C12.4123 9.94209 12.5218 10.0394 12.5218 10.1595Z" fill="#2E42A5"/><path id="red" fill-rule="evenodd" clip-rule="evenodd" d="M14.1521 10.0148C14.1521 10.1348 13.9696 10.2321 13.7445 10.2321C13.5194 10.2321 13.3369 10.1348 13.3369 10.0148C13.3369 9.89469 13.5194 9.79736 13.7445 9.79736C13.9696 9.79736 14.1521 9.89469 14.1521 10.0148ZM17.576 10.0148C17.576 10.1348 17.3935 10.2321 17.1684 10.2321C16.9433 10.2321 16.7608 10.1348 16.7608 10.0148C16.7608 9.89469 16.9433 9.79736 17.1684 9.79736C17.3935 9.79736 17.576 9.89469 17.576 10.0148Z" fill="#C5363C"/><path id="Combined Shape_2" fill-rule="evenodd" clip-rule="evenodd" d="M16.761 8.20294C16.761 8.36302 16.688 8.4928 16.5979 8.4928C16.5079 8.4928 16.4349 8.36302 16.4349 8.20294C16.4349 8.04286 16.5079 7.91309 16.5979 7.91309C16.688 7.91309 16.761 8.04286 16.761 8.20294ZM14.3073 8.15814C14.3629 8.31039 14.3386 8.45386 14.253 8.4786C14.1673 8.50333 14.0528 8.39996 13.9971 8.24771C13.9415 8.09547 13.9658 7.95199 14.0514 7.92726C14.1371 7.90253 14.2516 8.0059 14.3073 8.15814ZM12.3893 8.94399C12.4749 8.91926 12.4992 8.77578 12.4436 8.62354C12.3879 8.47129 12.2734 8.36792 12.1877 8.39265C12.1021 8.41739 12.0778 8.56086 12.1335 8.71311C12.1891 8.86536 12.3036 8.96873 12.3893 8.94399ZM18.8407 8.74728C18.7453 8.88304 18.606 8.95871 18.5296 8.91629C18.4533 8.87388 18.4687 8.72944 18.5642 8.59368C18.6596 8.45792 18.7989 8.38225 18.8752 8.42467C18.9516 8.46709 18.9361 8.61152 18.8407 8.74728Z" fill="#F7FCFF"/><path id="Combined Shape_3" fill-rule="evenodd" clip-rule="evenodd" d="M13.99 5.7922C14.0355 5.82162 14.0915 5.83898 14.152 5.83898C14.3042 5.83898 14.4276 5.72932 14.4276 5.59405C14.4276 5.45878 14.3042 5.34912 14.152 5.34912C14.0441 5.34912 13.9507 5.40427 13.9055 5.48458C13.86 5.45516 13.804 5.43781 13.7435 5.43781C13.6464 5.43781 13.561 5.48243 13.512 5.54987C13.4643 5.51499 13.4033 5.49405 13.3368 5.49405C13.1847 5.49405 13.0613 5.60371 13.0613 5.73898C13.0613 5.74653 13.0617 5.754 13.0624 5.76138C13.0119 5.70561 12.9345 5.66992 12.8477 5.66992C12.7098 5.66992 12.5955 5.75996 12.5753 5.8775C12.5249 5.82051 12.4466 5.78391 12.3586 5.78391C12.2264 5.78391 12.1159 5.86672 12.0892 5.97719C12.044 5.94822 11.9884 5.93115 11.9284 5.93115C11.8063 5.93115 11.7027 6.00177 11.6666 6.09956C11.6295 6.08305 11.5876 6.07376 11.5433 6.07376C11.4074 6.07376 11.2944 6.16129 11.2719 6.27641C11.2542 6.27326 11.236 6.27161 11.2173 6.27161C11.0666 6.27161 10.9441 6.37918 10.9418 6.51267C10.9254 6.50996 10.9084 6.50854 10.8911 6.50854C10.739 6.50854 10.6156 6.6182 10.6156 6.75347C10.6156 6.77062 10.6176 6.78735 10.6214 6.80351C10.6032 6.80016 10.5844 6.7984 10.5651 6.7984C10.4129 6.7984 10.2896 6.90805 10.2896 7.04332C10.2896 7.1461 10.3608 7.23409 10.4617 7.27043C10.4558 7.29046 10.4526 7.31149 10.4526 7.33318C10.4526 7.43595 10.5238 7.52393 10.6247 7.56028C10.6188 7.58031 10.6156 7.60135 10.6156 7.62304C10.6156 7.75513 10.7332 7.86279 10.8804 7.86779C10.8184 7.9127 10.7787 7.98115 10.7787 8.05782C10.7787 8.19309 10.9021 8.30275 11.0543 8.30275C11.2065 8.30275 11.3298 8.19309 11.3298 8.05782C11.3298 7.92574 11.2122 7.81807 11.065 7.81308C11.127 7.76817 11.1667 7.69972 11.1667 7.62304C11.1667 7.52028 11.0955 7.43229 10.9945 7.39594C11.0005 7.37591 11.0037 7.35488 11.0037 7.33318C11.0037 7.23041 10.9325 7.14242 10.8315 7.10608C10.8375 7.08605 10.8406 7.06502 10.8406 7.04332C10.8406 7.02618 10.8387 7.00944 10.8349 6.99329C10.853 6.99664 10.8719 6.9984 10.8911 6.9984C11.0419 6.9984 11.1643 6.89082 11.1667 6.75733C11.1831 6.76004 11.2 6.76146 11.2173 6.76146C11.3533 6.76146 11.4662 6.67393 11.4888 6.55881C11.5064 6.56196 11.5246 6.56362 11.5433 6.56362C11.6654 6.56362 11.769 6.493 11.8052 6.3952C11.8422 6.41172 11.8841 6.42101 11.9284 6.42101C11.9889 6.42101 12.0448 6.40369 12.0902 6.37432C12.0988 6.4071 12.1148 6.43736 12.1365 6.46362C12.1029 6.5042 12.0831 6.55431 12.0831 6.60854C12.0831 6.74059 12.2007 6.84823 12.3478 6.85329C12.2858 6.8982 12.2461 6.96665 12.2461 7.04333C12.2461 7.14609 12.3173 7.23407 12.4182 7.27042C12.4123 7.29045 12.4091 7.31149 12.4091 7.33318C12.4091 7.43595 12.4803 7.52393 12.5813 7.56028C12.5753 7.58031 12.5721 7.60135 12.5721 7.62304C12.5721 7.75831 12.6955 7.86797 12.8477 7.86797C12.9999 7.86797 13.1232 7.75831 13.1232 7.62304C13.1232 7.52028 13.052 7.43229 12.9511 7.39594C12.957 7.37591 12.9602 7.35488 12.9602 7.33318C12.9602 7.23042 12.889 7.14244 12.7881 7.10609C12.794 7.08606 12.7972 7.06502 12.7972 7.04333C12.7972 6.91128 12.6796 6.80364 12.5325 6.79859C12.5945 6.75368 12.6342 6.68523 12.6342 6.60854C12.6342 6.55431 12.6144 6.5042 12.5808 6.46362C12.6144 6.42303 12.6342 6.37292 12.6342 6.31869C12.6342 6.26446 12.6144 6.21434 12.5808 6.17376C12.6065 6.14268 12.6241 6.10601 12.631 6.06618C12.6815 6.12318 12.7598 6.15978 12.8477 6.15978C12.9999 6.15978 13.1232 6.05012 13.1232 5.91485C13.1232 5.9073 13.1228 5.89982 13.1221 5.89244C13.1726 5.94822 13.25 5.9839 13.3368 5.9839C13.4339 5.9839 13.5193 5.93928 13.5684 5.87184C13.616 5.90672 13.677 5.92766 13.7435 5.92766C13.8514 5.92766 13.9448 5.87252 13.99 5.7922ZM12.1978 6.22772C12.2431 6.25669 12.2986 6.27376 12.3586 6.27376C12.4498 6.27376 12.5306 6.2344 12.5808 6.17376C12.5308 6.11334 12.4504 6.07405 12.3597 6.07376C12.3871 6.07326 12.4091 6.05334 12.4091 6.02884C12.4091 6.00403 12.3865 5.98392 12.3586 5.98392C12.3307 5.98392 12.308 6.00403 12.308 6.02884C12.308 6.05335 12.3301 6.07327 12.3575 6.07376C12.2975 6.07397 12.242 6.09126 12.1968 6.12044C12.1815 6.06182 12.1425 6.01127 12.0892 5.97719C12.0852 5.99384 12.0831 6.01112 12.0831 6.02883C12.0831 6.08306 12.1029 6.13318 12.1365 6.17376C12.1029 6.21434 12.0831 6.26446 12.0831 6.31869C12.0831 6.33783 12.0856 6.35645 12.0902 6.37432C12.1442 6.33948 12.1833 6.28767 12.1978 6.22772ZM12.1978 6.22772C12.1743 6.2127 12.1536 6.19447 12.1365 6.17376C12.1534 6.15335 12.1737 6.13534 12.1968 6.12044C12.2015 6.13832 12.2039 6.15694 12.2039 6.17608C12.2039 6.1938 12.2018 6.21107 12.1978 6.22772ZM12.3597 6.07376L12.3586 6.07376L12.3586 6.07377L12.3597 6.07376ZM12.3597 6.36362C12.4504 6.36391 12.5308 6.4032 12.5808 6.46362C12.5306 6.52426 12.4498 6.56362 12.3586 6.56362C12.2675 6.56362 12.1866 6.52426 12.1365 6.46362C12.1864 6.40322 12.2668 6.36393 12.3575 6.36362C12.3301 6.36312 12.308 6.3432 12.308 6.3187C12.308 6.29389 12.3307 6.27377 12.3586 6.27377C12.3865 6.27377 12.4091 6.29389 12.4091 6.3187C12.4091 6.3432 12.3871 6.36312 12.3597 6.36362ZM12.3597 6.36362L12.3586 6.36362L12.3586 6.36363L12.3597 6.36362ZM12.9511 7.39594C12.9191 7.38445 12.8842 7.37811 12.8477 7.37811C12.7199 7.37811 12.6124 7.45542 12.5813 7.56028C12.6132 7.57178 12.6481 7.57811 12.6847 7.57811C12.8124 7.57811 12.9199 7.50081 12.9511 7.39594ZM12.7881 7.10609C12.7561 7.09459 12.7212 7.08826 12.6847 7.08826C12.5569 7.08826 12.4494 7.16556 12.4182 7.27042C12.4502 7.28192 12.4851 7.28826 12.5217 7.28826C12.6494 7.28826 12.7569 7.21095 12.7881 7.10609ZM12.5325 6.79859L12.5217 6.7984C12.4557 6.7984 12.3952 6.81897 12.3478 6.85329L12.3586 6.85347C12.4246 6.85347 12.4851 6.8329 12.5325 6.79859ZM11.065 7.81308L11.0543 7.8129C10.9884 7.8129 10.9279 7.83347 10.8804 7.86779L10.8911 7.86797C10.9571 7.86797 11.0176 7.84739 11.065 7.81308ZM10.9945 7.39594C10.9634 7.50081 10.8559 7.57811 10.7281 7.57811C10.6916 7.57811 10.6567 7.57178 10.6247 7.56028C10.6559 7.45542 10.7634 7.37811 10.8911 7.37811C10.9277 7.37811 10.9626 7.38445 10.9945 7.39594ZM10.8315 7.10608C10.8003 7.21094 10.6929 7.28825 10.5651 7.28825C10.5285 7.28825 10.4936 7.28192 10.4617 7.27043C10.4929 7.16556 10.6004 7.08826 10.7281 7.08826C10.7647 7.08826 10.7996 7.09459 10.8315 7.10608ZM10.6214 6.80351C10.6436 6.89864 10.7279 6.97355 10.8349 6.99329C10.8127 6.89816 10.7284 6.82324 10.6214 6.80351ZM11.1667 6.75733C11.0387 6.7362 10.9418 6.63643 10.9418 6.51653L10.9418 6.51267C11.0698 6.53381 11.1667 6.63358 11.1667 6.75347L11.1667 6.75733ZM11.4888 6.55881C11.3627 6.53631 11.2678 6.43735 11.2678 6.31869C11.2678 6.30427 11.2692 6.29014 11.2719 6.27641C11.3979 6.29892 11.4928 6.39787 11.4928 6.51653C11.4928 6.53095 11.4914 6.54508 11.4888 6.55881ZM11.8052 6.3952C11.7148 6.35499 11.6528 6.27197 11.6528 6.17608C11.6528 6.14936 11.6577 6.12364 11.6666 6.09956C11.7569 6.13977 11.8189 6.2228 11.8189 6.31869C11.8189 6.34541 11.814 6.37113 11.8052 6.3952ZM12.631 6.06618C12.5941 6.02452 12.5721 5.97197 12.5721 5.91485C12.5721 5.90215 12.5732 5.88968 12.5753 5.8775C12.6122 5.91916 12.6342 5.97171 12.6342 6.02883C12.6342 6.04153 12.6331 6.054 12.631 6.06618ZM13.0624 5.76138C13.0675 5.81076 13.089 5.85591 13.1221 5.89244C13.117 5.84306 13.0955 5.79792 13.0624 5.76138ZM13.5684 5.87184C13.507 5.82692 13.4679 5.75889 13.4679 5.68273C13.4679 5.63376 13.4841 5.58814 13.512 5.54987C13.5733 5.59479 13.6124 5.66282 13.6124 5.73898C13.6124 5.78795 13.5962 5.83357 13.5684 5.87184ZM13.99 5.7922C13.9212 5.74767 13.8765 5.6755 13.8765 5.59405C13.8765 5.5547 13.8869 5.51753 13.9055 5.48458C13.9743 5.52911 14.019 5.60128 14.019 5.68273C14.019 5.72208 14.0086 5.75926 13.99 5.7922ZM11.2172 6.56144C11.2452 6.56144 11.2678 6.54133 11.2678 6.51652C11.2678 6.4917 11.2452 6.47159 11.2172 6.47159C11.1893 6.47159 11.1667 6.4917 11.1667 6.51652C11.1667 6.54133 11.1893 6.56144 11.2172 6.56144ZM10.8912 6.79838C10.9191 6.79838 10.9418 6.77827 10.9418 6.75345C10.9418 6.72864 10.9191 6.70853 10.8912 6.70853C10.8633 6.70853 10.8407 6.72864 10.8407 6.75345C10.8407 6.77827 10.8633 6.79838 10.8912 6.79838ZM10.5651 7.08824C10.593 7.08824 10.6156 7.06812 10.6156 7.04331C10.6156 7.0185 10.593 6.99838 10.5651 6.99838C10.5372 6.99838 10.5145 7.0185 10.5145 7.04331C10.5145 7.06812 10.5372 7.08824 10.5651 7.08824ZM10.7282 7.37809C10.7561 7.37809 10.7788 7.35798 10.7788 7.33317C10.7788 7.30835 10.7561 7.28824 10.7282 7.28824C10.7003 7.28824 10.6777 7.30835 10.6777 7.33317C10.6777 7.35798 10.7003 7.37809 10.7282 7.37809ZM10.8912 7.66795C10.9191 7.66795 10.9418 7.64783 10.9418 7.62302C10.9418 7.59821 10.9191 7.57809 10.8912 7.57809C10.8633 7.57809 10.8407 7.59821 10.8407 7.62302C10.8407 7.64783 10.8633 7.66795 10.8912 7.66795ZM11.1048 8.05781C11.1048 8.08262 11.0822 8.10273 11.0542 8.10273C11.0263 8.10273 11.0037 8.08262 11.0037 8.05781C11.0037 8.03299 11.0263 8.01288 11.0542 8.01288C11.0822 8.01288 11.1048 8.03299 11.1048 8.05781ZM11.5434 6.36363C11.5713 6.36363 11.5939 6.34351 11.5939 6.3187C11.5939 6.29389 11.5713 6.27377 11.5434 6.27377C11.5155 6.27377 11.4929 6.29389 11.4929 6.3187C11.4929 6.34351 11.5155 6.36363 11.5434 6.36363ZM11.9285 6.22102C11.9564 6.22102 11.979 6.2009 11.979 6.17609C11.979 6.15128 11.9564 6.13116 11.9285 6.13116C11.9006 6.13116 11.8779 6.15128 11.8779 6.17609C11.8779 6.2009 11.9006 6.22102 11.9285 6.22102ZM12.8478 5.95979C12.8757 5.95979 12.8983 5.93967 12.8983 5.91486C12.8983 5.89005 12.8757 5.86993 12.8478 5.86993C12.8198 5.86993 12.7972 5.89005 12.7972 5.91486C12.7972 5.93967 12.8198 5.95979 12.8478 5.95979ZM13.3369 5.78392C13.3648 5.78392 13.3875 5.7638 13.3875 5.73899C13.3875 5.71418 13.3648 5.69406 13.3369 5.69406C13.309 5.69406 13.2864 5.71418 13.2864 5.73899C13.2864 5.7638 13.309 5.78392 13.3369 5.78392ZM13.7436 5.72767C13.7715 5.72767 13.7941 5.70756 13.7941 5.68274C13.7941 5.65793 13.7715 5.63782 13.7436 5.63782C13.7156 5.63782 13.693 5.65793 13.693 5.68274C13.693 5.70756 13.7156 5.72767 13.7436 5.72767ZM14.1521 5.63899C14.18 5.63899 14.2026 5.61887 14.2026 5.59406C14.2026 5.56925 14.18 5.54913 14.1521 5.54913C14.1242 5.54913 14.1016 5.56925 14.1016 5.59406C14.1016 5.61887 14.1242 5.63899 14.1521 5.63899ZM12.3586 6.65348C12.3865 6.65348 12.4091 6.63337 12.4091 6.60856C12.4091 6.58374 12.3865 6.56363 12.3586 6.56363C12.3307 6.56363 12.308 6.58374 12.308 6.60856C12.308 6.63337 12.3307 6.65348 12.3586 6.65348ZM12.5216 7.08824C12.5495 7.08824 12.5721 7.06812 12.5721 7.04331C12.5721 7.0185 12.5495 6.99838 12.5216 6.99838C12.4937 6.99838 12.4711 7.0185 12.4711 7.04331C12.4711 7.06812 12.4937 7.08824 12.5216 7.08824ZM12.6847 7.37809C12.7127 7.37809 12.7353 7.35798 12.7353 7.33317C12.7353 7.30835 12.7127 7.28824 12.6847 7.28824C12.6568 7.28824 12.6342 7.30835 12.6342 7.33317C12.6342 7.35798 12.6568 7.37809 12.6847 7.37809ZM12.8478 7.66795C12.8757 7.66795 12.8983 7.64783 12.8983 7.62302C12.8983 7.59821 12.8757 7.57809 12.8478 7.57809C12.8198 7.57809 12.7972 7.59821 12.7972 7.62302C12.7972 7.64783 12.8198 7.66795 12.8478 7.66795ZM20.0217 8.10273C20.0496 8.10273 20.0722 8.08262 20.0722 8.05781C20.0722 8.03299 20.0496 8.01288 20.0217 8.01288C19.9938 8.01288 19.9711 8.03299 19.9711 8.05781C19.9711 8.08262 19.9938 8.10273 20.0217 8.10273ZM19.7461 8.05782C19.7461 8.19309 19.8694 8.30275 20.0216 8.30275C20.1738 8.30275 20.2972 8.19309 20.2972 8.05782C20.2972 7.98115 20.2575 7.9127 20.1955 7.86779C20.3427 7.86279 20.4603 7.75513 20.4603 7.62304C20.4603 7.60135 20.4571 7.58031 20.4512 7.56028C20.5521 7.52393 20.6233 7.43595 20.6233 7.33318C20.6233 7.31149 20.6201 7.29045 20.6142 7.27042C20.7151 7.23407 20.7863 7.14609 20.7863 7.04333C20.7863 6.90806 20.663 6.7984 20.5108 6.7984C20.4915 6.7984 20.4727 6.80016 20.4545 6.80351C20.4583 6.78735 20.4603 6.77062 20.4603 6.75347C20.4603 6.6182 20.3369 6.50854 20.1848 6.50854C20.1675 6.50854 20.1505 6.50996 20.1341 6.51267C20.1318 6.37918 20.0093 6.27161 19.8586 6.27161C19.8399 6.27161 19.8217 6.27326 19.804 6.27641C19.7815 6.16129 19.6685 6.07376 19.5326 6.07376C19.4883 6.07376 19.4464 6.08305 19.4093 6.09957C19.3732 6.00177 19.2696 5.93115 19.1475 5.93115C19.0875 5.93115 19.0319 5.94822 18.9867 5.97719C18.96 5.86672 18.8495 5.78391 18.7173 5.78391C18.6293 5.78391 18.551 5.82051 18.5006 5.8775C18.4804 5.75996 18.3661 5.66992 18.2282 5.66992C18.1414 5.66992 18.064 5.70561 18.0135 5.76138C18.0142 5.754 18.0146 5.74653 18.0146 5.73898C18.0146 5.60371 17.8912 5.49405 17.7391 5.49405C17.6726 5.49405 17.6116 5.51499 17.5639 5.54987C17.5149 5.48243 17.4295 5.43781 17.3324 5.43781C17.2719 5.43781 17.2159 5.45516 17.1704 5.48458C17.1252 5.40427 17.0318 5.34912 16.9239 5.34912C16.7717 5.34912 16.6483 5.45878 16.6483 5.59405C16.6483 5.72932 16.7717 5.83898 16.9239 5.83898C16.9844 5.83898 17.0404 5.82162 17.0859 5.7922C17.1311 5.87252 17.2245 5.92766 17.3324 5.92766C17.3989 5.92766 17.4599 5.90672 17.5075 5.87184C17.5566 5.93928 17.642 5.9839 17.7391 5.9839C17.8259 5.9839 17.9033 5.94822 17.9538 5.89244C17.9531 5.89982 17.9527 5.9073 17.9527 5.91485C17.9527 6.05012 18.076 6.15978 18.2282 6.15978C18.3161 6.15978 18.3944 6.12318 18.4449 6.06618C18.4518 6.10601 18.4694 6.14268 18.4951 6.17376C18.4615 6.21434 18.4417 6.26446 18.4417 6.31869C18.4417 6.37292 18.4615 6.42304 18.4951 6.46362C18.4615 6.5042 18.4417 6.55431 18.4417 6.60854C18.4417 6.68523 18.4814 6.75368 18.5434 6.79859C18.3963 6.80364 18.2787 6.91128 18.2787 7.04333C18.2787 7.06502 18.2819 7.08606 18.2878 7.10609C18.1869 7.14244 18.1157 7.23042 18.1157 7.33318C18.1157 7.35488 18.1189 7.37591 18.1248 7.39594C18.0239 7.43229 17.9527 7.52028 17.9527 7.62304C17.9527 7.75831 18.076 7.86797 18.2282 7.86797C18.3804 7.86797 18.5038 7.75831 18.5038 7.62304C18.5038 7.60135 18.5006 7.58031 18.4946 7.56028C18.5956 7.52393 18.6668 7.43595 18.6668 7.33318C18.6668 7.31149 18.6636 7.29046 18.6576 7.27043C18.7586 7.23408 18.8298 7.14609 18.8298 7.04333C18.8298 6.96665 18.7901 6.8982 18.7281 6.85329C18.8752 6.84823 18.9928 6.74059 18.9928 6.60854C18.9928 6.55431 18.973 6.5042 18.9394 6.46362C18.9611 6.43736 18.9771 6.4071 18.9857 6.37432C19.0311 6.40369 19.087 6.42101 19.1475 6.42101C19.1918 6.42101 19.2337 6.41171 19.2707 6.3952C19.3069 6.493 19.4105 6.56362 19.5326 6.56362C19.5513 6.56362 19.5695 6.56196 19.5871 6.55881C19.6097 6.67393 19.7226 6.76146 19.8586 6.76146C19.8759 6.76146 19.8928 6.76004 19.9092 6.75733C19.9116 6.89082 20.034 6.9984 20.1848 6.9984C20.204 6.9984 20.2228 6.99664 20.241 6.99329C20.2372 7.00945 20.2352 7.02618 20.2352 7.04333C20.2352 7.06502 20.2384 7.08606 20.2444 7.10609C20.1434 7.14244 20.0722 7.23042 20.0722 7.33318C20.0722 7.35488 20.0754 7.37591 20.0814 7.39594C19.9804 7.43229 19.9092 7.52028 19.9092 7.62304C19.9092 7.69972 19.9489 7.76817 20.0109 7.81308C19.8637 7.81807 19.7461 7.92574 19.7461 8.05782ZM18.8781 6.22772C18.8328 6.25669 18.7773 6.27376 18.7173 6.27376C18.6261 6.27376 18.5453 6.2344 18.4951 6.17376C18.5451 6.11334 18.6255 6.07404 18.7163 6.07376C18.6888 6.07326 18.6668 6.05334 18.6668 6.02884C18.6668 6.00403 18.6894 5.98392 18.7173 5.98392C18.7453 5.98392 18.7679 6.00403 18.7679 6.02884C18.7679 6.05335 18.7458 6.07327 18.7184 6.07376L18.7173 6.07376L18.7173 6.07377L18.7184 6.07376C18.7784 6.07398 18.8339 6.09126 18.8791 6.12045C18.8744 6.13832 18.872 6.15694 18.872 6.17608C18.872 6.19379 18.8741 6.21107 18.8781 6.22772ZM18.9394 6.17376C18.973 6.21434 18.9928 6.26446 18.9928 6.31869C18.9928 6.33783 18.9903 6.35645 18.9857 6.37432C18.9317 6.33948 18.8926 6.28767 18.8781 6.22772C18.9016 6.21269 18.9223 6.19447 18.9394 6.17376ZM18.9394 6.17376C18.9225 6.15335 18.9022 6.13535 18.8791 6.12045C18.8944 6.06182 18.9334 6.01127 18.9867 5.97719C18.9907 5.99384 18.9928 6.01112 18.9928 6.02883C18.9928 6.08306 18.973 6.13318 18.9394 6.17376ZM18.7184 6.36362C18.7458 6.36313 18.7679 6.3432 18.7679 6.3187C18.7679 6.29389 18.7453 6.27377 18.7173 6.27377C18.6894 6.27377 18.6668 6.29389 18.6668 6.3187C18.6668 6.3432 18.6888 6.36311 18.7163 6.36362C18.6255 6.3639 18.5451 6.4032 18.4951 6.46362C18.5453 6.52426 18.6261 6.56362 18.7173 6.56362C18.8084 6.56362 18.8892 6.52426 18.9394 6.46362C18.8895 6.40322 18.8091 6.36394 18.7184 6.36362ZM18.7184 6.36362L18.7173 6.36363L18.7173 6.36362L18.7184 6.36362ZM18.4946 7.56028C18.4635 7.45542 18.356 7.37811 18.2282 7.37811C18.1917 7.37811 18.1568 7.38445 18.1248 7.39594C18.156 7.50081 18.2635 7.57811 18.3912 7.57811C18.4278 7.57811 18.4627 7.57178 18.4946 7.56028ZM18.6576 7.27043C18.6265 7.16557 18.519 7.08826 18.3912 7.08826C18.3547 7.08826 18.3198 7.09459 18.2878 7.10609C18.319 7.21095 18.4265 7.28826 18.5542 7.28826C18.5908 7.28826 18.6257 7.28192 18.6576 7.27043ZM18.7281 6.85329C18.6807 6.81897 18.6202 6.7984 18.5542 6.7984L18.5434 6.79859C18.5908 6.8329 18.6513 6.85347 18.7173 6.85347L18.7281 6.85329ZM17.0859 5.7922C17.1547 5.74767 17.1994 5.6755 17.1994 5.59405C17.1994 5.5547 17.189 5.51753 17.1704 5.48458C17.1016 5.52911 17.0569 5.60128 17.0569 5.68273C17.0569 5.72208 17.0673 5.75926 17.0859 5.7922ZM17.5075 5.87184C17.5689 5.82692 17.608 5.75889 17.608 5.68273C17.608 5.63376 17.5918 5.58814 17.5639 5.54987C17.5026 5.59479 17.4635 5.66282 17.4635 5.73898C17.4635 5.78795 17.4797 5.83357 17.5075 5.87184ZM18.0135 5.76138C18.0084 5.81076 17.9869 5.85591 17.9538 5.89244C17.9589 5.84306 17.9804 5.79792 18.0135 5.76138ZM18.4449 6.06618C18.4818 6.02452 18.5038 5.97197 18.5038 5.91485C18.5038 5.90215 18.5027 5.88968 18.5006 5.8775C18.4637 5.91916 18.4417 5.97171 18.4417 6.02883C18.4417 6.04153 18.4428 6.054 18.4449 6.06618ZM19.2707 6.3952C19.3611 6.35499 19.4231 6.27197 19.4231 6.17608C19.4231 6.14936 19.4182 6.12364 19.4093 6.09957C19.319 6.13978 19.257 6.2228 19.257 6.31869C19.257 6.34541 19.2618 6.37113 19.2707 6.3952ZM19.5871 6.55881C19.7132 6.5363 19.8081 6.43735 19.8081 6.31869C19.8081 6.30427 19.8067 6.29014 19.804 6.27641C19.678 6.29892 19.5831 6.39787 19.5831 6.51653C19.5831 6.53095 19.5845 6.54508 19.5871 6.55881ZM20.241 6.99329C20.348 6.97356 20.4323 6.89864 20.4545 6.80351C20.3475 6.82323 20.2632 6.89816 20.241 6.99329ZM20.1341 6.51267L20.1341 6.51653C20.1341 6.63642 20.0372 6.73619 19.9092 6.75733L19.9092 6.75347C19.9092 6.63358 20.0061 6.53381 20.1341 6.51267ZM20.2444 7.10609C20.2763 7.09459 20.3112 7.08826 20.3478 7.08826C20.4755 7.08826 20.583 7.16556 20.6142 7.27042C20.5822 7.28192 20.5473 7.28826 20.5108 7.28826C20.383 7.28826 20.2755 7.21095 20.2444 7.10609ZM20.0814 7.39594C20.1133 7.38444 20.1482 7.37811 20.1848 7.37811C20.3125 7.37811 20.42 7.45542 20.4512 7.56028C20.4192 7.57177 20.3843 7.57811 20.3478 7.57811C20.22 7.57811 20.1125 7.5008 20.0814 7.39594ZM20.1848 7.86797C20.1188 7.86797 20.0583 7.84739 20.0109 7.81308L20.0216 7.8129C20.0875 7.8129 20.148 7.83347 20.1955 7.86779L20.1848 7.86797ZM20.1847 7.66795C20.2126 7.66795 20.2352 7.64783 20.2352 7.62302C20.2352 7.59821 20.2126 7.57809 20.1847 7.57809C20.1568 7.57809 20.1342 7.59821 20.1342 7.62302C20.1342 7.64783 20.1568 7.66795 20.1847 7.66795ZM20.3477 7.37809C20.3756 7.37809 20.3983 7.35798 20.3983 7.33317C20.3983 7.30835 20.3756 7.28824 20.3477 7.28824C20.3198 7.28824 20.2972 7.30835 20.2972 7.33317C20.2972 7.35798 20.3198 7.37809 20.3477 7.37809ZM20.5107 7.08824C20.5386 7.08824 20.5613 7.06812 20.5613 7.04331C20.5613 7.0185 20.5386 6.99838 20.5107 6.99838C20.4828 6.99838 20.4602 7.0185 20.4602 7.04331C20.4602 7.06812 20.4828 7.08824 20.5107 7.08824ZM20.1847 6.79838C20.2126 6.79838 20.2352 6.77827 20.2352 6.75345C20.2352 6.72864 20.2126 6.70853 20.1847 6.70853C20.1568 6.70853 20.1342 6.72864 20.1342 6.75345C20.1342 6.77827 20.1568 6.79838 20.1847 6.79838ZM19.8585 6.56144C19.8865 6.56144 19.9091 6.54133 19.9091 6.51652C19.9091 6.4917 19.8865 6.47159 19.8585 6.47159C19.8306 6.47159 19.808 6.4917 19.808 6.51652C19.808 6.54133 19.8306 6.56144 19.8585 6.56144ZM19.5325 6.36363C19.5604 6.36363 19.5831 6.34351 19.5831 6.3187C19.5831 6.29389 19.5604 6.27377 19.5325 6.27377C19.5046 6.27377 19.482 6.29389 19.482 6.3187C19.482 6.34351 19.5046 6.36363 19.5325 6.36363ZM19.1475 6.22102C19.1754 6.22102 19.198 6.2009 19.198 6.17609C19.198 6.15128 19.1754 6.13116 19.1475 6.13116C19.1195 6.13116 19.0969 6.15128 19.0969 6.17609C19.0969 6.2009 19.1195 6.22102 19.1475 6.22102ZM18.2282 5.95979C18.2561 5.95979 18.2787 5.93967 18.2787 5.91486C18.2787 5.89005 18.2561 5.86993 18.2282 5.86993C18.2003 5.86993 18.1776 5.89005 18.1776 5.91486C18.1776 5.93967 18.2003 5.95979 18.2282 5.95979ZM17.739 5.78392C17.7669 5.78392 17.7895 5.7638 17.7895 5.73899C17.7895 5.71418 17.7669 5.69406 17.739 5.69406C17.7111 5.69406 17.6885 5.71418 17.6885 5.73899C17.6885 5.7638 17.7111 5.78392 17.739 5.78392ZM17.3324 5.72767C17.3603 5.72767 17.3829 5.70756 17.3829 5.68274C17.3829 5.65793 17.3603 5.63782 17.3324 5.63782C17.3045 5.63782 17.2818 5.65793 17.2818 5.68274C17.2818 5.70756 17.3045 5.72767 17.3324 5.72767ZM16.9238 5.63899C16.9517 5.63899 16.9744 5.61887 16.9744 5.59406C16.9744 5.56925 16.9517 5.54913 16.9238 5.54913C16.8959 5.54913 16.8733 5.56925 16.8733 5.59406C16.8733 5.61887 16.8959 5.63899 16.9238 5.63899ZM18.7173 6.65348C18.7453 6.65348 18.7679 6.63337 18.7679 6.60856C18.7679 6.58374 18.7453 6.56363 18.7173 6.56363C18.6894 6.56363 18.6668 6.58374 18.6668 6.60856C18.6668 6.63337 18.6894 6.65348 18.7173 6.65348ZM18.5542 7.08824C18.5821 7.08824 18.6047 7.06812 18.6047 7.04331C18.6047 7.0185 18.5821 6.99838 18.5542 6.99838C18.5263 6.99838 18.5036 7.0185 18.5036 7.04331C18.5036 7.06812 18.5263 7.08824 18.5542 7.08824ZM18.3912 7.37809C18.4191 7.37809 18.4417 7.35798 18.4417 7.33317C18.4417 7.30835 18.4191 7.28824 18.3912 7.28824C18.3633 7.28824 18.3406 7.30835 18.3406 7.33317C18.3406 7.35798 18.3633 7.37809 18.3912 7.37809ZM18.2282 7.66795C18.2561 7.66795 18.2787 7.64783 18.2787 7.62302C18.2787 7.59821 18.2561 7.57809 18.2282 7.57809C18.2003 7.57809 18.1776 7.59821 18.1776 7.62302C18.1776 7.64783 18.2003 7.66795 18.2282 7.66795Z" fill="white"/></g><path id="Combined Shape_4" fill-rule="evenodd" clip-rule="evenodd" d="M15.4892 4.15412L15.2475 4.15764L15.2479 4.51076L14.8019 4.51053L14.8072 4.72491L15.2482 4.72513L15.2486 5.12761L15.4903 5.1241L15.4899 4.72526L15.9288 4.72548L15.9235 4.5111L15.4896 4.51088L15.4892 4.15412Z" fill="#F6C540"/></g><g id="bird"><path id="Path 216" fill-rule="evenodd" clip-rule="evenodd" d="M9.50781 10.7339H21.2078V19.5673C21.2078 19.5673 20.854 23.9675 15.3578 23.9675C9.86163 23.9675 9.50781 19.5673 9.50781 19.5673V10.7339Z" fill="#C51918"/><g id="right"><g id="beak"><path id="Path 220" fill-rule="evenodd" clip-rule="evenodd" d="M13.0387 11.0396C12.9314 11.0396 12.7662 11.108 12.5473 11.1856C12.3284 11.2632 12.0985 11.4306 12.3229 11.5983C12.5473 11.766 12.8686 12.1342 12.8686 11.9965C12.8686 11.8589 13.2523 11.7254 13.2523 11.7922C13.2523 11.8589 13.1335 11.9965 13.4452 11.9965C13.7568 11.9965 13.9174 12.0784 13.5849 12.0784C13.2523 12.0784 13.2162 12.2136 13.0001 12.2136C12.784 12.2136 12.3229 12.0774 12.3229 11.9965C12.3229 11.9157 12.5899 12.3939 12.8686 12.3939C13.1472 12.3939 13.3055 12.6266 13.4452 12.5102C13.5849 12.3939 13.5683 12.3939 13.794 12.3939C14.0197 12.3939 13.9373 11.9241 13.9373 11.9241C13.9373 11.9241 13.146 11.0396 13.0387 11.0396Z" fill="#E8AA00"/><path id="Path 220_2" fill-rule="evenodd" clip-rule="evenodd" d="M17.5536 11.0396C17.6609 11.0396 17.826 11.108 18.045 11.1856C18.2639 11.2632 18.4938 11.4306 18.2694 11.5983C18.045 11.766 17.7237 12.1342 17.7237 11.9965C17.7237 11.8589 17.3399 11.7254 17.3399 11.7922C17.3399 11.8589 17.4588 11.9965 17.1471 11.9965C16.8354 11.9965 16.6749 12.0784 17.0074 12.0784C17.3399 12.0784 17.3761 12.2136 17.5922 12.2136C17.8083 12.2136 18.2694 12.0774 18.2694 11.9965C18.2694 11.9157 18.0024 12.3939 17.7237 12.3939C17.4451 12.3939 17.2868 12.6266 17.1471 12.5102C17.0074 12.3939 17.0239 12.3939 16.7983 12.3939C16.5726 12.3939 16.655 11.9241 16.655 11.9241C16.655 11.9241 17.4463 11.0396 17.5536 11.0396Z" fill="#E8AA00"/></g><path id="Combined Shape_5" fill-rule="evenodd" clip-rule="evenodd" d="M18.9881 11.9998C19.2124 12.4647 17.4935 14.1918 17.4935 14.1918H17.301C17.2201 14.1918 17.0697 14.0149 16.8881 13.8013C16.7636 13.6549 16.6244 13.4913 16.483 13.3555C16.2169 13.1002 16.3579 12.8857 16.4894 12.6858C16.5298 12.6243 16.5692 12.5643 16.5957 12.5048C16.6532 12.3761 16.6613 12.3247 16.6707 12.266C16.6797 12.2094 16.6897 12.146 16.7461 11.9998C16.829 11.7849 17.1178 11.5077 17.3181 11.3155C17.3954 11.2413 17.4595 11.1797 17.4935 11.1393C17.6007 11.0118 17.5193 11.0126 17.2955 11.0146C17.2648 11.0149 17.2314 11.0152 17.1955 11.0152C16.8975 11.0152 16.3282 11.1393 16.158 11.2843C15.9879 11.4293 15.8095 11.4603 15.5473 11.4603C15.2851 11.4603 15.4468 11.6172 15.6856 11.7232C15.4285 11.7669 15.2637 12.1477 15.1669 12.4859C15.1141 12.1477 14.9975 11.7669 14.7405 11.7232C14.9792 11.6172 15.1409 11.4603 14.8788 11.4603C14.6166 11.4603 14.4382 11.4293 14.268 11.2843C14.0978 11.1393 13.5286 11.0152 13.2306 11.0152C13.1946 11.0152 13.1612 11.0149 13.1305 11.0146C12.9067 11.0126 12.8253 11.0118 12.9326 11.1393C12.9665 11.1797 13.0307 11.2413 13.108 11.3155C13.3083 11.5077 13.5971 11.7849 13.6799 11.9998C13.7363 12.146 13.7464 12.2094 13.7554 12.266C13.7647 12.3247 13.7729 12.3761 13.8303 12.5048C13.8568 12.5643 13.8963 12.6243 13.9367 12.6858C14.0681 12.8857 14.2092 13.1002 13.9431 13.3555C13.8016 13.4913 13.6625 13.6549 13.538 13.8013C13.3563 14.0149 13.2059 14.1918 13.125 14.1918H12.9326C12.9326 14.1918 11.2137 12.4647 11.4379 11.9998C11.5246 11.8201 11.6644 11.6507 11.7802 11.5106C11.9638 11.2882 12.0867 11.1393 11.84 11.1393C11.4379 11.1393 9.83496 12.0428 9.83496 14.0801C9.83496 16.1173 9.98303 17.2759 10.3267 18.0877C10.5613 18.6416 10.3464 19.1796 10.1863 19.5805C10.1118 19.7671 10.0492 19.924 10.0492 20.039C10.0492 20.4012 10.6803 20.0838 10.6803 19.857C10.6803 19.7491 10.7667 19.9098 10.8573 20.0783C10.9573 20.264 11.0623 20.4593 11.0623 20.3147C11.0623 20.1605 11.163 19.9975 11.2516 19.854C11.3214 19.741 11.3838 19.64 11.3838 19.5647C11.3838 19.4894 11.4723 19.4922 11.5714 19.4953C11.6972 19.4993 11.84 19.5038 11.84 19.3495C11.84 19.2454 11.8855 19.2246 11.9421 19.1987C12.0354 19.156 12.159 19.0995 12.159 18.6327C12.159 18.2868 12.2369 18.4093 12.3263 18.5499C12.4085 18.6793 12.5005 18.824 12.5504 18.6327C12.5552 18.6141 12.6069 18.5339 12.6707 18.4347C12.7636 18.2904 12.8823 18.106 12.9203 18.0128C12.8032 18.4203 12.5223 18.8449 12.3439 19.0471C12.159 19.2568 11.84 19.7121 11.84 19.7121C11.84 19.7121 12.1375 19.8595 12.3439 19.7121C12.4592 19.6298 12.467 19.7072 12.4755 19.7917C12.4822 19.8584 12.4894 19.9295 12.5504 19.9295C12.5887 19.9295 12.6248 19.9351 12.6569 19.9401C12.6807 19.9437 12.7023 19.9471 12.721 19.9476C12.6521 20.1036 12.5903 20.3531 12.7976 20.1864C12.9457 20.0673 13.0495 20.019 13.1183 19.987C13.1979 19.95 13.2306 19.9348 13.2306 19.857C13.2306 19.7794 13.2629 19.8057 13.3136 19.8469C13.3575 19.8826 13.4153 19.9295 13.4777 19.9295C13.5581 19.9295 13.5749 19.83 13.5992 19.6852C13.6156 19.5882 13.6353 19.4708 13.6799 19.3495C13.6903 19.3212 13.7001 19.294 13.7093 19.2683C13.7991 19.0185 13.841 18.902 13.9431 19.2171C13.9908 19.3643 14.075 19.4686 14.1484 19.5594C14.2482 19.6829 14.3279 19.7815 14.268 19.9295C14.2446 19.9875 14.2151 20.053 14.1837 20.1231C14.0756 20.3637 13.9431 20.6589 13.9431 20.8912C13.9431 21.0294 13.8016 21.2177 13.6686 21.3946C13.5128 21.6021 13.3686 21.7939 13.4777 21.8712C13.6799 22.0144 13.4352 22.4967 13.2306 22.7441C13.0259 22.9916 13.0597 23.2936 13.3698 23.2936C13.5395 23.2936 13.6316 23.3484 13.715 23.3979C13.784 23.4389 13.847 23.4764 13.9431 23.4764C14.1553 23.4764 14.268 23.3834 14.268 23.3834C14.268 23.3834 14.399 23.5594 14.6166 23.5594C14.8342 23.5594 14.8788 23.3834 14.8788 23.3834L15.0399 23.5594L15.0523 22.7927V23.5594L15.5473 23.3834C15.5473 23.3834 15.5919 23.5594 15.8095 23.5594C16.027 23.5594 16.158 23.3834 16.158 23.3834C16.158 23.3834 16.2708 23.4764 16.483 23.4764C16.5791 23.4764 16.6421 23.4389 16.711 23.3979C16.7944 23.3484 16.8865 23.2936 17.0562 23.2936C17.3663 23.2936 17.4001 22.9916 17.1955 22.7441C16.9908 22.4967 16.7461 22.0144 16.9483 21.8712C17.0574 21.7939 16.9133 21.6021 16.7574 21.3946C16.6245 21.2177 16.483 21.0294 16.483 20.8912C16.483 20.6589 16.3504 20.3637 16.2424 20.1231C16.2109 20.053 16.1815 19.9875 16.158 19.9295C16.0982 19.7815 16.1778 19.6829 16.2777 19.5594C16.351 19.4686 16.4353 19.3643 16.483 19.2171C16.585 18.902 16.6269 19.0185 16.7167 19.2683C16.726 19.294 16.7357 19.3212 16.7461 19.3495C16.7907 19.4708 16.8105 19.5882 16.8268 19.6852C16.8512 19.83 16.8679 19.9295 16.9483 19.9295C17.0107 19.9295 17.0685 19.8826 17.1125 19.8469C17.1631 19.8057 17.1955 19.7794 17.1955 19.857C17.1955 19.9348 17.2281 19.95 17.3077 19.987C17.3765 20.019 17.4803 20.0673 17.6284 20.1864C17.8358 20.3531 17.7739 20.1036 17.705 19.9476C17.7238 19.9471 17.7454 19.9437 17.7692 19.9401C17.8013 19.9351 17.8374 19.9295 17.8757 19.9295C17.9367 19.9295 17.9438 19.8584 17.9505 19.7917C17.959 19.7072 17.9668 19.6298 18.0821 19.7121C18.2886 19.8595 18.586 19.7121 18.586 19.7121C18.586 19.7121 18.2671 19.2568 18.0821 19.0471C17.9037 18.8449 17.6228 18.4203 17.5057 18.0128C17.5437 18.106 17.6624 18.2904 17.7553 18.4347C17.8192 18.5339 17.8708 18.6141 17.8757 18.6327C17.9255 18.824 18.0175 18.6793 18.0998 18.5499C18.1891 18.4093 18.2671 18.2868 18.2671 18.6327C18.2671 19.0995 18.3907 19.156 18.484 19.1987C18.5405 19.2246 18.586 19.2454 18.586 19.3495C18.586 19.5038 18.7288 19.4993 18.8547 19.4953C18.9537 19.4922 19.0423 19.4894 19.0423 19.5647C19.0423 19.64 19.1046 19.741 19.1744 19.854C19.2631 19.9975 19.3637 20.1605 19.3637 20.3147C19.3637 20.4593 19.4688 20.264 19.5687 20.0783C19.6593 19.9098 19.7458 19.7491 19.7458 19.857C19.7458 20.0838 20.3769 20.4012 20.3769 20.039C20.3769 19.924 20.3142 19.7671 20.2397 19.5805C20.0796 19.1796 19.8648 18.6416 20.0993 18.0877C20.443 17.2759 20.5911 16.1173 20.5911 14.0801C20.5911 12.0428 18.9881 11.1393 18.586 11.1393C18.3393 11.1393 18.4622 11.2882 18.6459 11.5106C18.7616 11.6507 18.9014 11.8201 18.9881 11.9998ZM17.4935 17.9679C17.4973 17.9828 17.5014 17.9978 17.5057 18.0128C17.4979 17.9935 17.4935 17.9782 17.4935 17.9679ZM17.6284 19.857C17.6284 19.8062 17.6678 19.8632 17.705 19.9476C17.6576 19.9488 17.6284 19.932 17.6284 19.857ZM12.721 19.9476C12.7684 19.9488 12.7976 19.932 12.7976 19.857C12.7976 19.8062 12.7583 19.8632 12.721 19.9476ZM12.9203 18.0128C12.9282 17.9935 12.9326 17.9782 12.9326 17.9679C12.9287 17.9828 12.9246 17.9978 12.9203 18.0128Z" fill="#F7FCFF"/><path id="Combined Shape_6" fill-rule="evenodd" clip-rule="evenodd" d="M12.2122 21.2013C12.2122 21.0608 12.6167 20.7349 12.6167 20.7349V20.7626C12.6738 20.8036 13.0348 21.0683 13.0348 21.1977C13.0348 21.2781 12.988 21.3946 12.948 21.4944C12.918 21.569 12.8918 21.6342 12.8918 21.6679C12.8918 21.6905 12.9024 21.6743 12.9225 21.6434C12.9724 21.5668 13.081 21.4002 13.2328 21.5116C13.4337 21.6591 13.4325 21.8767 13.4317 22.0146C13.4317 22.0229 13.4316 22.0308 13.4316 22.0384C13.4316 22.0814 13.4315 22.0811 13.4251 22.0606C13.4112 22.0165 13.3679 21.8789 13.2328 21.8789C13.0348 21.8789 12.8918 22.0384 12.8918 22.0384V22.3105C12.8918 22.3105 12.9169 22.5351 13.0348 22.4228C13.1528 22.3105 13.1779 22.5614 13.0348 22.5614C12.9618 22.5614 12.8867 22.6303 12.8131 22.6977C12.7426 22.7624 12.6735 22.8258 12.6092 22.8258V22.8032C12.5482 22.7989 12.498 22.7431 12.4467 22.6862C12.3911 22.6245 12.3343 22.5614 12.2612 22.5614C12.1182 22.5614 12.1433 22.3105 12.2612 22.4228C12.3792 22.5351 12.4043 22.3105 12.4043 22.3105V22.0384C12.4043 22.0384 12.2612 21.8789 12.0633 21.8789C11.9282 21.8789 11.8849 22.0165 11.871 22.0606C11.8645 22.0811 11.8644 22.0814 11.8644 22.0384C11.8644 22.0308 11.8644 22.0229 11.8644 22.0146C11.8636 21.8767 11.8624 21.6591 12.0633 21.5116C12.215 21.4002 12.3237 21.5668 12.3736 21.6434C12.3937 21.6743 12.4043 21.6905 12.4043 21.6679C12.4043 21.6342 12.3691 21.5697 12.3289 21.4958C12.2751 21.3971 12.2122 21.2817 12.2122 21.2013Z" fill="#E8AA00"/><path id="Combined Shape_7" fill-rule="evenodd" clip-rule="evenodd" d="M17.5926 21.2013C17.5926 21.0608 17.9971 20.7349 17.9971 20.7349V20.7626C18.054 20.8035 18.4153 21.0683 18.4153 21.1977C18.4153 21.2781 18.3684 21.3946 18.3284 21.4944C18.2984 21.569 18.2722 21.6342 18.2722 21.6679C18.2722 21.6905 18.2828 21.6743 18.3029 21.6434C18.3528 21.5668 18.4615 21.4002 18.6132 21.5116C18.8141 21.6591 18.8129 21.8767 18.8121 22.0146C18.8121 22.0229 18.812 22.0308 18.812 22.0384C18.812 22.0814 18.812 22.0811 18.8055 22.0606C18.7916 22.0165 18.7483 21.8789 18.6132 21.8789C18.4153 21.8789 18.2722 22.0384 18.2722 22.0384V22.3105C18.2722 22.3105 18.2973 22.5351 18.4153 22.4228C18.5332 22.3105 18.5583 22.5614 18.4153 22.5614C18.3422 22.5614 18.2671 22.6303 18.1935 22.6977C18.123 22.7624 18.054 22.8258 17.9896 22.8258V22.8032C17.9286 22.7989 17.8784 22.7431 17.8271 22.6862C17.7715 22.6245 17.7147 22.5614 17.6416 22.5614C17.4986 22.5614 17.5237 22.3105 17.6416 22.4228C17.7596 22.5351 17.7847 22.3105 17.7847 22.3105V22.0384C17.7847 22.0384 17.6416 21.8789 17.4437 21.8789C17.3085 21.8789 17.2652 22.0165 17.2514 22.0606C17.2449 22.0811 17.2448 22.0814 17.2448 22.0384C17.2448 22.0308 17.2448 22.0229 17.2447 22.0146C17.244 21.8767 17.2427 21.6591 17.4437 21.5116C17.5954 21.4002 17.704 21.5668 17.7539 21.6434C17.7741 21.6743 17.7847 21.6905 17.7847 21.6679C17.7847 21.6342 17.7495 21.5697 17.7092 21.4958C17.6555 21.3971 17.5926 21.2817 17.5926 21.2013Z" fill="#E8AA00"/><path id="legs" fill-rule="evenodd" clip-rule="evenodd" d="M11.809 20.3589C12.1696 20.3589 12.2425 19.7493 12.2425 19.7493C12.2425 19.7493 12.5449 19.4707 12.5449 19.6762C12.5449 19.7858 12.4589 19.9238 12.3935 20.0289C12.3363 20.1208 12.2948 20.1874 12.3406 20.1874H12.8398C13.2515 20.1874 12.7675 20.3589 12.5449 20.4353C12.444 20.47 12.3724 20.4881 12.3037 20.5055C12.2209 20.5264 12.1424 20.5463 12.0219 20.5927C11.8014 20.6777 11.7068 21.2369 11.809 21.4165C11.9113 21.5961 11.7068 21.5203 11.6222 21.4165C11.5753 21.3588 11.541 21.4382 11.4932 21.549C11.4549 21.6375 11.408 21.7461 11.339 21.8207C11.2057 21.9647 11.2072 21.8374 11.2102 21.5635C11.2108 21.5183 11.2113 21.4691 11.2113 21.4165C11.2113 21.1737 11.2658 21.1715 11.3469 21.1683C11.3899 21.1666 11.4404 21.1646 11.4942 21.1262C11.6104 21.0433 11.6244 21.0006 11.6595 20.8932C11.6713 20.8571 11.6855 20.8137 11.7068 20.759C11.7913 20.5415 11.339 20.8853 11.2113 21.0481C11.1335 21.1473 11.0794 21.1581 10.9984 21.1743C10.9463 21.1847 10.8832 21.1973 10.7957 21.2369C10.6534 21.3014 10.692 21.1747 10.739 21.0205C10.766 20.9321 10.7957 20.8347 10.7957 20.759C10.7957 20.6284 10.8841 20.6619 10.9973 20.7049C11.0643 20.7303 11.14 20.759 11.2113 20.759C11.3934 20.759 11.4875 20.6906 11.6036 20.6062C11.6097 20.6018 11.6159 20.5973 11.6222 20.5927C11.7154 20.5253 11.5125 20.5456 11.2708 20.5699C11.1881 20.5781 11.101 20.5869 11.0195 20.5927C10.8337 20.606 10.8213 20.5961 10.7749 20.559C10.7415 20.5323 10.6906 20.4916 10.545 20.4353C10.1968 20.3008 10.7688 20.3589 11.0195 20.4353C11.159 20.4778 11.276 20.4494 11.4144 20.4158C11.5249 20.389 11.649 20.3589 11.809 20.3589ZM18.8008 20.3589C18.4403 20.3589 18.3674 19.7494 18.3674 19.7494C18.3674 19.7494 18.0649 19.4707 18.0649 19.6762C18.0649 19.7858 18.1509 19.9239 18.2163 20.0289C18.2736 20.1208 18.3151 20.1874 18.2693 20.1874H17.77C17.3584 20.1874 17.8423 20.3589 18.0649 20.4353C18.1659 20.47 18.2375 20.4881 18.3062 20.5055C18.3889 20.5264 18.4674 20.5463 18.5879 20.5927C18.8085 20.6777 18.9031 21.2369 18.8008 21.4165C18.6985 21.5961 18.9031 21.5203 18.9876 21.4165C19.0346 21.3589 19.0689 21.4382 19.1167 21.549C19.1549 21.6375 19.2019 21.7462 19.2708 21.8207C19.4041 21.9647 19.4027 21.8375 19.3996 21.5635C19.3991 21.5183 19.3985 21.4691 19.3985 21.4165C19.3985 21.1737 19.344 21.1716 19.2629 21.1683C19.2199 21.1666 19.1694 21.1646 19.1156 21.1262C18.9994 21.0433 18.9855 21.0006 18.9503 20.8932C18.9385 20.8571 18.9243 20.8137 18.9031 20.759C18.8186 20.5415 19.2708 20.8853 19.3985 21.0482C19.4763 21.1473 19.5305 21.1581 19.6115 21.1743C19.6635 21.1847 19.7266 21.1973 19.8142 21.2369C19.9565 21.3014 19.9179 21.1748 19.8708 21.0205C19.8439 20.9322 19.8142 20.8347 19.8142 20.759C19.8142 20.6284 19.7258 20.6619 19.6125 20.7049C19.5455 20.7303 19.4698 20.759 19.3985 20.759C19.2164 20.759 19.1224 20.6906 19.0062 20.6062C19.0001 20.6018 18.9939 20.5973 18.9876 20.5927C18.8945 20.5253 19.0974 20.5456 19.3391 20.5699C19.4217 20.5782 19.5089 20.5869 19.5903 20.5927C19.7761 20.6061 19.7885 20.5961 19.8349 20.559C19.8683 20.5323 19.9192 20.4916 20.0649 20.4353C20.413 20.3008 19.8411 20.3589 19.5903 20.4353C19.4509 20.4778 19.3339 20.4494 19.1955 20.4158C19.085 20.389 18.9609 20.3589 18.8008 20.3589Z" fill="#E8AA00"/></g><g id="small shield"><path id="small" fill-rule="evenodd" clip-rule="evenodd" d="M13.1777 14.3408H17.5377V17.8751C17.5377 17.8751 17.0696 19.6357 15.3577 19.6357C13.6458 19.6357 13.1777 17.8751 13.1777 17.8751V14.3408Z" fill="#C51918"/><path id="Combined Shape_8" fill-rule="evenodd" clip-rule="evenodd" d="M15.9455 14.2896H14.8042V16.3185H13.1738V17.0432H14.8042V19.6519H15.9455V17.0432H17.576V16.3185H15.9455V14.2896Z" fill="#F7FCFF"/><path id="Combined Shape_9" fill-rule="evenodd" clip-rule="evenodd" d="M13.9135 15.3083C14.023 15.3083 14.0752 15.2263 14.0173 15.154C13.9869 15.1161 13.9238 15.1051 13.8765 15.1295C13.8722 15.1317 13.8682 15.1341 13.8645 15.1366C13.8471 15.1328 13.8258 15.1275 13.8012 15.1208C13.7792 15.1148 13.7553 15.1151 13.7334 15.1215C13.707 15.1293 13.6919 15.1052 13.7047 14.9553C13.7169 14.9135 13.7814 14.8876 13.9316 14.8876C14.206 14.8876 14.3188 14.9137 14.3188 14.9367V15.2952L14.1856 15.402C14.1214 15.4535 14.1669 15.5415 14.2577 15.5415H14.3188V15.816C14.235 15.8741 14.1602 15.9012 14.0946 15.9012C13.8491 15.9012 13.7111 15.8199 13.7073 15.7238C13.7084 15.6956 13.7098 15.6749 13.7109 15.6607C13.7172 15.6625 13.7242 15.6645 13.732 15.6669C13.7545 15.6738 13.7793 15.6741 13.802 15.6678L13.8113 15.6651C13.8204 15.6623 13.8256 15.6608 13.8284 15.6627C13.832 15.6652 13.8316 15.6735 13.8307 15.6928C13.8304 15.7001 13.83 15.7089 13.8297 15.7196C13.8285 15.7647 13.8731 15.8021 13.9293 15.8031C13.9856 15.8041 14.0322 15.7683 14.0334 15.7232C14.0377 15.5648 13.9378 15.4738 13.772 15.5047C13.6741 15.4787 13.6057 15.4817 13.5523 15.5353C13.513 15.5747 13.5078 15.6071 13.5036 15.7238C13.5112 15.9244 13.7491 16.0647 14.0946 16.0647C14.2278 16.0647 14.3598 16.0118 14.491 15.9113C14.5112 15.8959 14.5226 15.8745 14.5226 15.8522V15.4598C14.5226 15.4334 14.5069 15.4098 14.4827 15.3949L14.4928 15.3868C14.5119 15.3715 14.5226 15.3507 14.5226 15.329V14.9367C14.5226 14.7691 14.3282 14.7241 13.9316 14.7241C13.6978 14.7241 13.5449 14.7855 13.5039 14.9306C13.4807 15.1784 13.5634 15.3263 13.7676 15.284C13.8308 15.3002 13.8776 15.3083 13.9135 15.3083ZM16.7771 15.154C16.7192 15.2263 16.7714 15.3083 16.8808 15.3083C16.9168 15.3083 16.9636 15.3002 17.0268 15.284C17.231 15.3263 17.3136 15.1784 17.2905 14.9306C17.2495 14.7855 17.0965 14.7241 16.8628 14.7241C16.4662 14.7241 16.2718 14.7691 16.2718 14.9367V15.329C16.2718 15.3507 16.2825 15.3715 16.3016 15.3868L16.3117 15.3949C16.2874 15.4098 16.2718 15.4334 16.2718 15.4598V15.8522C16.2718 15.8745 16.2832 15.8959 16.3033 15.9113C16.4346 16.0118 16.5666 16.0647 16.6997 16.0647C17.0453 16.0647 17.2832 15.9244 17.2907 15.7238C17.2866 15.6071 17.2813 15.5747 17.2421 15.5353C17.1887 15.4817 17.1202 15.4787 17.0224 15.5047C16.8565 15.4738 16.7566 15.5648 16.7609 15.7232C16.7621 15.7683 16.8087 15.8041 16.865 15.8031C16.9213 15.8021 16.9659 15.7647 16.9647 15.7196C16.9644 15.7089 16.964 15.7001 16.9636 15.6928C16.9627 15.6735 16.9624 15.6652 16.966 15.6627C16.9688 15.6608 16.9739 15.6623 16.983 15.6651L16.9924 15.6678C17.0151 15.6741 17.0399 15.6738 17.0624 15.6669C17.0701 15.6645 17.0772 15.6625 17.0835 15.6607C17.0845 15.6749 17.086 15.6956 17.087 15.7238C17.0832 15.8199 16.9453 15.9012 16.6997 15.9012C16.6342 15.9012 16.5593 15.8741 16.4756 15.816V15.5415H16.5367C16.6275 15.5415 16.673 15.4535 16.6088 15.402L16.4756 15.2952V14.9367C16.4756 14.9137 16.5883 14.8876 16.8628 14.8876C17.013 14.8876 17.0775 14.9135 17.0897 14.9553C17.1024 15.1052 17.0874 15.1293 17.0609 15.1215C17.0391 15.1151 17.0151 15.1148 16.9931 15.1208C16.9686 15.1275 16.9472 15.1328 16.9298 15.1366C16.9261 15.1341 16.9221 15.1317 16.9179 15.1295C16.8705 15.1051 16.8075 15.1161 16.7771 15.154ZM17.1204 15.6535L17.1161 15.6533L17.119 15.6535L17.1204 15.6535ZM16.8808 17.917C16.7714 17.917 16.7192 17.835 16.7771 17.7627C16.8075 17.7248 16.8705 17.7138 16.9179 17.7382C16.9221 17.7404 16.9261 17.7428 16.9298 17.7453C16.9472 17.7415 16.9686 17.7362 16.9931 17.7295C17.0151 17.7235 17.0391 17.7238 17.0609 17.7302C17.0874 17.738 17.1024 17.7139 17.0897 17.564C17.0775 17.5222 17.013 17.4963 16.8628 17.4963C16.5883 17.4963 16.4756 17.5224 16.4756 17.5454V17.9039L16.6088 18.0107C16.673 18.0622 16.6275 18.1503 16.5367 18.1503H16.4756V18.4248C16.5593 18.4828 16.6342 18.5099 16.6997 18.5099C16.9453 18.5099 17.0832 18.4286 17.087 18.3325C17.086 18.3044 17.0845 18.2836 17.0835 18.2694C17.0772 18.2712 17.0701 18.2732 17.0624 18.2756C17.0399 18.2825 17.0151 18.2828 16.9924 18.2765L16.983 18.2738C16.9739 18.271 16.9688 18.2695 16.966 18.2714C16.9624 18.2739 16.9627 18.2822 16.9636 18.3015C16.964 18.3088 16.9644 18.3176 16.9647 18.3283C16.9659 18.3734 16.9213 18.4108 16.865 18.4118C16.8087 18.4128 16.7621 18.377 16.7609 18.3319C16.7566 18.1735 16.8565 18.0825 17.0224 18.1135C17.1202 18.0874 17.1887 18.0904 17.2421 18.144C17.2813 18.1835 17.2866 18.2158 17.2907 18.3326C17.2832 18.5331 17.0453 18.6734 16.6997 18.6734C16.5666 18.6734 16.4346 18.6205 16.3033 18.52C16.2832 18.5046 16.2718 18.4832 16.2718 18.4609V18.0685C16.2718 18.0421 16.2874 18.0186 16.3117 18.0036L16.3016 17.9955C16.2825 17.9802 16.2718 17.9594 16.2718 17.9377V17.5454C16.2718 17.3778 16.4662 17.3328 16.8628 17.3328C17.0965 17.3328 17.2495 17.3942 17.2905 17.5393C17.3136 17.7871 17.231 17.935 17.0268 17.8927C16.9636 17.9089 16.9168 17.917 16.8808 17.917ZM13.9135 17.917C14.023 17.917 14.0752 17.835 14.0173 17.7627C13.9869 17.7248 13.9238 17.7138 13.8765 17.7382C13.8722 17.7404 13.8682 17.7428 13.8645 17.7453C13.8471 17.7415 13.8258 17.7362 13.8012 17.7295C13.7792 17.7235 13.7553 17.7238 13.7334 17.7302C13.707 17.738 13.6919 17.7139 13.7047 17.564C13.7169 17.5222 13.7814 17.4963 13.9316 17.4963C14.206 17.4963 14.3188 17.5224 14.3188 17.5454V17.9039L14.1856 18.0107C14.1214 18.0622 14.1669 18.1503 14.2577 18.1503H14.3188V18.4248C14.235 18.4828 14.1602 18.5099 14.0946 18.5099C13.8491 18.5099 13.7111 18.4286 13.7073 18.3325C13.7084 18.3044 13.7098 18.2836 13.7109 18.2694C13.7172 18.2712 13.7242 18.2732 13.732 18.2756C13.7545 18.2825 13.7793 18.2828 13.802 18.2765C13.8055 18.2755 13.8086 18.2746 13.8113 18.2738C13.8204 18.271 13.8256 18.2695 13.8284 18.2714C13.832 18.2739 13.8316 18.2822 13.8307 18.3015C13.8304 18.3088 13.83 18.3176 13.8297 18.3283C13.8285 18.3734 13.8731 18.4108 13.9293 18.4118C13.9856 18.4128 14.0322 18.377 14.0334 18.3319C14.0377 18.1735 13.9378 18.0825 13.772 18.1135C13.6741 18.0874 13.6057 18.0904 13.5523 18.144C13.513 18.1835 13.5078 18.2158 13.5036 18.3326C13.5112 18.5331 13.7491 18.6734 14.0946 18.6734C14.2278 18.6734 14.3598 18.6205 14.491 18.52C14.5112 18.5046 14.5226 18.4832 14.5226 18.4609V18.0685C14.5226 18.0421 14.5069 18.0186 14.4827 18.0036L14.4928 17.9955C14.5119 17.9802 14.5226 17.9594 14.5226 17.9377V17.5454C14.5226 17.3778 14.3282 17.3328 13.9316 17.3328C13.6978 17.3328 13.5449 17.3942 13.5039 17.5393C13.4807 17.7871 13.5634 17.935 13.7676 17.8927C13.8308 17.9089 13.8776 17.917 13.9135 17.917Z" fill="#F7FCFF"/></g></g></g></g></g></g></g></g></g><defs><filter id="filter0_dd_91_25341" x="0" y="0" width="42" height="30" filterUnits="userSpaceOnUse" color-interpolation-filters="sRGB"><feFlood flood-opacity="0" result="BackgroundImageFix"/><feColorMatrix in="SourceAlpha" values="0 0 0 0 0 0 0 0 0 0 0 0 0 0 0 0 0 0 127 0" result="hardAlpha"/><feOffset dy="1"/><feGaussianBlur stdDeviation="1"/><feColorMatrix values="0 0 0 0 0.0627451 0 0 0 0 0.0941176 0 0 0 0 0.156863 0 0 0 0.06 0"/><feBlend in2="BackgroundImageFix" result="effect1_dropShadow_91_25341"/><feColorMatrix in="SourceAlpha" values="0 0 0 0 0 0 0 0 0 0 0 0 0 0 0 0 0 0 127 0" result="hardAlpha"/><feOffset dy="1"/><feGaussianBlur stdDeviation="1.5"/><feColorMatrix values="0 0 0 0 0.0627451 0 0 0 0 0.0941176 0 0 0 0 0.156863 0 0 0 0.1 0"/><feBlend in2="effect1_dropShadow_91_25341" result="effect2_dropShadow_91_25341"/><feBlend in="SourceGraphic" in2="effect2_dropShadow_91_25341" result="shape"/></filter><clipPath id="clip0_91_25341"><rect x="3" y="2" width="36" height="24" rx="2" fill="white"/></clipPath></defs></svg>