<svg width="42" height="30" viewBox="0 0 42 30" fill="none" xmlns="http://www.w3.org/2000/svg"><g id="Country=BB - Barbados, Size=sm (36x24)" filter="url(#filter0_dd_91_29669)"><g clip-path="url(#clip0_91_29669)"><g id="flag"><mask id="mask0_91_29669" style="mask-type:alpha" maskUnits="userSpaceOnUse" x="3" y="2" width="36" height="24"><rect id="mask" x="3" y="2" width="36" height="24" fill="white"/></mask><g mask="url(#mask0_91_29669)"><g id="contents"><path id="right" fill-rule="evenodd" clip-rule="evenodd" d="M27.75 2H39V26H27.75V2Z" fill="#2E42A5"/><path id="middle" fill-rule="evenodd" clip-rule="evenodd" d="M14.25 2H27.75V26H14.25V2Z" fill="#FECA00"/><path id="left" fill-rule="evenodd" clip-rule="evenodd" d="M3 2H14.25V26H3V2Z" fill="#2E42A5"/><path id="mark" fill-rule="evenodd" clip-rule="evenodd" d="M23.9385 17.6678C24.15 16.3783 25.6494 13.5754 25.6494 13.5754L26.3447 11.9308L23.5888 12.7257L24.241 13.0274L22.9647 16.2258L22.0007 16.0213V9.85257L22.7633 9.80307L20.8823 7.37158L19.0456 9.85257H19.9318V16.0213L18.8459 16.1827L18.0713 12.9479L18.5184 12.6148L15.52 12.1234L16.4152 13.5917C16.4152 13.5917 17.62 16.1083 18.0713 17.6678L19.9318 17.5404V19.9375H22.0007V17.5404L23.9385 17.6678Z" fill="black"/></g></g></g></g></g><defs><filter id="filter0_dd_91_29669" x="0" y="0" width="42" height="30" filterUnits="userSpaceOnUse" color-interpolation-filters="sRGB"><feFlood flood-opacity="0" result="BackgroundImageFix"/><feColorMatrix in="SourceAlpha" values="0 0 0 0 0 0 0 0 0 0 0 0 0 0 0 0 0 0 127 0" result="hardAlpha"/><feOffset dy="1"/><feGaussianBlur stdDeviation="1"/><feColorMatrix values="0 0 0 0 0.0627451 0 0 0 0 0.0941176 0 0 0 0 0.156863 0 0 0 0.06 0"/><feBlend in2="BackgroundImageFix" result="effect1_dropShadow_91_29669"/><feColorMatrix in="SourceAlpha" values="0 0 0 0 0 0 0 0 0 0 0 0 0 0 0 0 0 0 127 0" result="hardAlpha"/><feOffset dy="1"/><feGaussianBlur stdDeviation="1.5"/><feColorMatrix values="0 0 0 0 0.0627451 0 0 0 0 0.0941176 0 0 0 0 0.156863 0 0 0 0.1 0"/><feBlend in2="effect1_dropShadow_91_29669" result="effect2_dropShadow_91_29669"/><feBlend in="SourceGraphic" in2="effect2_dropShadow_91_29669" result="shape"/></filter><clipPath id="clip0_91_29669"><rect x="3" y="2" width="36" height="24" rx="2" fill="white"/></clipPath></defs></svg>