<svg width="42" height="30" viewBox="0 0 42 30" fill="none" xmlns="http://www.w3.org/2000/svg"><g id="Country=AW - Aruba, Size=sm (36x24)" filter="url(#filter0_dd_91_29710)"><g clip-path="url(#clip0_91_29710)"><g id="flag"><mask id="mask0_91_29710" style="mask-type:alpha" maskUnits="userSpaceOnUse" x="3" y="2" width="36" height="24"><rect id="mask" x="3" y="2" width="36" height="24" fill="white"/></mask><g mask="url(#mask0_91_29710)"><g id="contents"><path id="background" fill-rule="evenodd" clip-rule="evenodd" d="M3 2V26H39V2H3Z" fill="#5BA3DA"/><mask id="mask1_91_29710" style="mask-type:alpha" maskUnits="userSpaceOnUse" x="3" y="2" width="36" height="24"><path id="background_2" fill-rule="evenodd" clip-rule="evenodd" d="M3 2V26H39V2H3Z" fill="white"/></mask><g mask="url(#mask1_91_29710)"><g id="mark"><path id="star" fill-rule="evenodd" clip-rule="evenodd" d="M9.49502 9.95976L4.56641 9.03504L9.55577 8.15747L10.999 3.56763L12.1371 8.12021L16.5914 9.03949L12.1895 9.95976L10.9193 13.7033L9.49502 9.95976Z" fill="#FF0000" stroke="#F7FCFF" stroke-width="0.35"/><path id="Combined shape 1524" fill-rule="evenodd" clip-rule="evenodd" d="M39.0001 16H3.00002V18.0001H39.0001V16ZM39.0001 20.0001H3.00002V22.0001H39.0001V20.0001Z" fill="#FAD615"/></g></g></g></g></g></g></g><defs><filter id="filter0_dd_91_29710" x="0" y="0" width="42" height="30" filterUnits="userSpaceOnUse" color-interpolation-filters="sRGB"><feFlood flood-opacity="0" result="BackgroundImageFix"/><feColorMatrix in="SourceAlpha" values="0 0 0 0 0 0 0 0 0 0 0 0 0 0 0 0 0 0 127 0" result="hardAlpha"/><feOffset dy="1"/><feGaussianBlur stdDeviation="1"/><feColorMatrix values="0 0 0 0 0.0627451 0 0 0 0 0.0941176 0 0 0 0 0.156863 0 0 0 0.06 0"/><feBlend in2="BackgroundImageFix" result="effect1_dropShadow_91_29710"/><feColorMatrix in="SourceAlpha" values="0 0 0 0 0 0 0 0 0 0 0 0 0 0 0 0 0 0 127 0" result="hardAlpha"/><feOffset dy="1"/><feGaussianBlur stdDeviation="1.5"/><feColorMatrix values="0 0 0 0 0.0627451 0 0 0 0 0.0941176 0 0 0 0 0.156863 0 0 0 0.1 0"/><feBlend in2="effect1_dropShadow_91_29710" result="effect2_dropShadow_91_29710"/><feBlend in="SourceGraphic" in2="effect2_dropShadow_91_29710" result="shape"/></filter><clipPath id="clip0_91_29710"><rect x="3" y="2" width="36" height="24" rx="2" fill="white"/></clipPath></defs></svg>