<svg width="42" height="30" viewBox="0 0 42 30" fill="none" xmlns="http://www.w3.org/2000/svg"><g id="Country=TG - Togo, Size=sm (36x24)" filter="url(#filter0_dd_91_24788)"><g clip-path="url(#clip0_91_24788)"><g id="flag"><mask id="mask0_91_24788" style="mask-type:alpha" maskUnits="userSpaceOnUse" x="3" y="2" width="36" height="24"><rect id="mask" x="3" y="2" width="36" height="24" fill="white"/></mask><g mask="url(#mask0_91_24788)"><g id="contents"><path id="middle" d="M3 1H2V2V26V27H3H39H40V26V2V1H39H3Z" fill="#5EAA22" stroke="#F7FCFF" stroke-width="2"/><path id="stripe" fill-rule="evenodd" clip-rule="evenodd" d="M3 8V12H39V8H3Z" fill="#FECA00"/><path id="stripe_2" fill-rule="evenodd" clip-rule="evenodd" d="M3 16V20H39V16H3Z" fill="#FECA00"/><rect id="Rectangle 82" x="3" y="2" width="18" height="14" fill="#F50101"/><path id="Star 5" fill-rule="evenodd" clip-rule="evenodd" d="M12.2812 12.1442L8.09701 14.4457L9.72145 10.5821L6.375 7.97924H10.4788L12.2812 4.12988L13.6568 7.97924H17.7112L14.8636 10.5821L16.265 14.2562L12.2812 12.1442Z" fill="#F7FCFF"/></g></g></g></g></g><defs><filter id="filter0_dd_91_24788" x="0" y="0" width="42" height="30" filterUnits="userSpaceOnUse" color-interpolation-filters="sRGB"><feFlood flood-opacity="0" result="BackgroundImageFix"/><feColorMatrix in="SourceAlpha" values="0 0 0 0 0 0 0 0 0 0 0 0 0 0 0 0 0 0 127 0" result="hardAlpha"/><feOffset dy="1"/><feGaussianBlur stdDeviation="1"/><feColorMatrix values="0 0 0 0 0.0627451 0 0 0 0 0.0941176 0 0 0 0 0.156863 0 0 0 0.06 0"/><feBlend in2="BackgroundImageFix" result="effect1_dropShadow_91_24788"/><feColorMatrix in="SourceAlpha" values="0 0 0 0 0 0 0 0 0 0 0 0 0 0 0 0 0 0 127 0" result="hardAlpha"/><feOffset dy="1"/><feGaussianBlur stdDeviation="1.5"/><feColorMatrix values="0 0 0 0 0.0627451 0 0 0 0 0.0941176 0 0 0 0 0.156863 0 0 0 0.1 0"/><feBlend in2="effect1_dropShadow_91_24788" result="effect2_dropShadow_91_24788"/><feBlend in="SourceGraphic" in2="effect2_dropShadow_91_24788" result="shape"/></filter><clipPath id="clip0_91_24788"><rect x="3" y="2" width="36" height="24" rx="2" fill="white"/></clipPath></defs></svg>