<svg width="42" height="30" viewBox="0 0 42 30" fill="none" xmlns="http://www.w3.org/2000/svg"><g id="Country=MA - Morocco, Size=sm (36x24)" filter="url(#filter0_dd_91_26636)"><g clip-path="url(#clip0_91_26636)"><g id="flag"><mask id="mask0_91_26636" style="mask-type:alpha" maskUnits="userSpaceOnUse" x="3" y="2" width="36" height="24"><rect id="mask" x="3" y="2" width="36" height="24" fill="white"/></mask><g mask="url(#mask0_91_26636)"><g id="contents"><path id="background" fill-rule="evenodd" clip-rule="evenodd" d="M3 2H39V24C39 25.1046 38.1046 26 37 26H5C3.89543 26 3 25.1046 3 24V2Z" fill="#C51918"/><path id="background_2" fill-rule="evenodd" clip-rule="evenodd" d="M3 2H39V26H3V2Z" fill="#E31D1C"/><g id="mark"><path id="Rectangle 43" fill-rule="evenodd" clip-rule="evenodd" d="M28.2926 21.6262L21.187 4.70068H20.8787L14.02 21.6262L21.1428 17.8211L28.2926 21.6262ZM20.4005 10.2221L21.1622 7.58375L21.9527 10.2977L24.2237 15.9541L25.5571 18.6927L22.6785 16.89L21.1412 16.0719L19.6288 16.8799L16.817 18.6927L18.1169 15.898L20.4005 10.2221Z" fill="#579D20"/><path id="Rectangle 43_2" fill-rule="evenodd" clip-rule="evenodd" d="M17.2455 15.473L21.1785 17.7969L24.8484 15.473L31.8186 10.2363H10.1836L17.2455 15.473ZM17.3272 13.474L14.6523 12.019H17.9156H24.3998H27.2785L24.9824 13.3118L21.1614 15.8887L17.3272 13.474Z" fill="#579D20"/></g></g></g></g></g></g><defs><filter id="filter0_dd_91_26636" x="0" y="0" width="42" height="30" filterUnits="userSpaceOnUse" color-interpolation-filters="sRGB"><feFlood flood-opacity="0" result="BackgroundImageFix"/><feColorMatrix in="SourceAlpha" values="0 0 0 0 0 0 0 0 0 0 0 0 0 0 0 0 0 0 127 0" result="hardAlpha"/><feOffset dy="1"/><feGaussianBlur stdDeviation="1"/><feColorMatrix values="0 0 0 0 0.0627451 0 0 0 0 0.0941176 0 0 0 0 0.156863 0 0 0 0.06 0"/><feBlend in2="BackgroundImageFix" result="effect1_dropShadow_91_26636"/><feColorMatrix in="SourceAlpha" values="0 0 0 0 0 0 0 0 0 0 0 0 0 0 0 0 0 0 127 0" result="hardAlpha"/><feOffset dy="1"/><feGaussianBlur stdDeviation="1.5"/><feColorMatrix values="0 0 0 0 0.0627451 0 0 0 0 0.0941176 0 0 0 0 0.156863 0 0 0 0.1 0"/><feBlend in2="effect1_dropShadow_91_26636" result="effect2_dropShadow_91_26636"/><feBlend in="SourceGraphic" in2="effect2_dropShadow_91_26636" result="shape"/></filter><clipPath id="clip0_91_26636"><rect x="3" y="2" width="36" height="24" rx="2" fill="white"/></clipPath></defs></svg>