<svg width="40" height="30" viewBox="0 0 40 30" fill="none" xmlns="http://www.w3.org/2000/svg"><g id="Country=BA - Bosnia and Herzegovina, Size=sm (36x24)" filter="url(#filter0_dd_91_29677)"><g clip-path="url(#clip0_91_29677)"><g id="flag"><mask id="mask0_91_29677" style="mask-type:alpha" maskUnits="userSpaceOnUse" x="3" y="2" width="36" height="24"><rect id="mask" x="3" y="2" width="36" height="24" fill="white"/></mask><g mask="url(#mask0_91_29677)"><g id="contents"><path id="background" fill-rule="evenodd" clip-rule="evenodd" d="M3 2H36.8824V26H3V2Z" fill="#2E42A5"/><path id="middle" fill-rule="evenodd" clip-rule="evenodd" d="M12.5293 2H33.7058V26L12.5293 2Z" fill="#FECA00"/><g id="mark"><path id="Star 3" fill-rule="evenodd" clip-rule="evenodd" d="M9.46713 4.7937L8.22241 5.41174L8.46013 4.10272L7.45312 3.17567L8.84477 2.98468L9.46713 1.7937L10.0895 2.98468L11.4811 3.17567L10.4741 4.10272L10.7118 5.41174L9.46713 4.7937Z" fill="#F7FCFF"/><path id="Star 3_2" fill-rule="evenodd" clip-rule="evenodd" d="M13.159 9.07373L11.9143 9.69176L12.152 8.38275L11.145 7.4557L12.5367 7.26471L13.159 6.07373L13.7814 7.26471L15.173 7.4557L14.166 8.38275L14.4037 9.69176L13.159 9.07373Z" fill="#F7FCFF"/><path id="Star 3_3" fill-rule="evenodd" clip-rule="evenodd" d="M16.62 13.2383L15.3752 13.8563L15.613 12.5473L14.606 11.6202L15.9976 11.4293L16.62 10.2383L17.2423 11.4293L18.634 11.6202L17.627 12.5473L17.8647 13.8563L16.62 13.2383Z" fill="#F7FCFF"/><path id="Star 3_4" fill-rule="evenodd" clip-rule="evenodd" d="M20.0101 17.2292L18.7654 17.8473L19.0031 16.5383L17.9961 15.6112L19.3877 15.4202L20.0101 14.2292L20.6325 15.4202L22.0241 15.6112L21.0171 16.5383L21.2548 17.8473L20.0101 17.2292Z" fill="#F7FCFF"/><path id="Star 3_5" fill-rule="evenodd" clip-rule="evenodd" d="M23.662 21.3367L22.4172 21.9547L22.655 20.6457L21.6479 19.7186L23.0396 19.5277L23.662 18.3367L24.2843 19.5277L25.676 19.7186L24.669 20.6457L24.9067 21.9547L23.662 21.3367Z" fill="#F7FCFF"/><path id="Star 3_6" fill-rule="evenodd" clip-rule="evenodd" d="M27.6991 25.311L26.4543 25.9291L26.6921 24.6201L25.6851 23.693L27.0767 23.502L27.6991 22.311L28.3214 23.502L29.7131 23.693L28.7061 24.6201L28.9438 25.9291L27.6991 25.311Z" fill="#F7FCFF"/></g></g></g></g></g></g><defs><filter id="filter0_dd_91_29677" x="0" y="0" width="42" height="30" filterUnits="userSpaceOnUse" color-interpolation-filters="sRGB"><feFlood flood-opacity="0" result="BackgroundImageFix"/><feColorMatrix in="SourceAlpha" values="0 0 0 0 0 0 0 0 0 0 0 0 0 0 0 0 0 0 127 0" result="hardAlpha"/><feOffset dy="1"/><feGaussianBlur stdDeviation="1"/><feColorMatrix values="0 0 0 0 0.0627451 0 0 0 0 0.0941176 0 0 0 0 0.156863 0 0 0 0.06 0"/><feBlend in2="BackgroundImageFix" result="effect1_dropShadow_91_29677"/><feColorMatrix in="SourceAlpha" values="0 0 0 0 0 0 0 0 0 0 0 0 0 0 0 0 0 0 127 0" result="hardAlpha"/><feOffset dy="1"/><feGaussianBlur stdDeviation="1.5"/><feColorMatrix values="0 0 0 0 0.0627451 0 0 0 0 0.0941176 0 0 0 0 0.156863 0 0 0 0.1 0"/><feBlend in2="effect1_dropShadow_91_29677" result="effect2_dropShadow_91_29677"/><feBlend in="SourceGraphic" in2="effect2_dropShadow_91_29677" result="shape"/></filter><clipPath id="clip0_91_29677"><rect x="3" y="2" width="36" height="24" rx="2" fill="white"/></clipPath></defs></svg>