<svg width="42" height="30" viewBox="0 0 42 30" fill="none" xmlns="http://www.w3.org/2000/svg"><g id="Country=ST - Sao Tome and Principe, Size=sm (36x24)" filter="url(#filter0_dd_91_24975)"><g clip-path="url(#clip0_91_24975)"><g id="flag"><mask id="mask0_91_24975" style="mask-type:alpha" maskUnits="userSpaceOnUse" x="3" y="2" width="36" height="24"><rect id="mask" x="3" y="2" width="36" height="24" fill="white"/></mask><g mask="url(#mask0_91_24975)"><g id="contents"><path id="background" fill-rule="evenodd" clip-rule="evenodd" d="M3 2V26H39V2H3Z" fill="#FBCD17"/><path id="top" fill-rule="evenodd" clip-rule="evenodd" d="M3 2V10H39V2H3Z" fill="#73BE4A"/><path id="bottom" fill-rule="evenodd" clip-rule="evenodd" d="M3 18V26H39V18H3Z" fill="#73BE4A"/><path id="triangle" fill-rule="evenodd" clip-rule="evenodd" d="M3 2V26L14.25 14L3 2Z" fill="#C51918"/><path id="Star 5" fill-rule="evenodd" clip-rule="evenodd" d="M22.127 15.8707L20.0225 17L20.5025 14.7962L18.75 13.1469L21.123 13.0578L22.127 11L23.131 13.0578H25.5L23.7515 14.7962L24.2779 17L22.127 15.8707Z" fill="#272727"/><path id="Star 5_2" fill-rule="evenodd" clip-rule="evenodd" d="M31.127 15.8707L29.0225 17L29.5025 14.7962L27.75 13.1469L30.123 13.0578L31.127 11L32.131 13.0578H34.5L32.7515 14.7962L33.2779 17L31.127 15.8707Z" fill="#272727"/></g></g></g></g></g><defs><filter id="filter0_dd_91_24975" x="0" y="0" width="42" height="30" filterUnits="userSpaceOnUse" color-interpolation-filters="sRGB"><feFlood flood-opacity="0" result="BackgroundImageFix"/><feColorMatrix in="SourceAlpha" values="0 0 0 0 0 0 0 0 0 0 0 0 0 0 0 0 0 0 127 0" result="hardAlpha"/><feOffset dy="1"/><feGaussianBlur stdDeviation="1"/><feColorMatrix values="0 0 0 0 0.0627451 0 0 0 0 0.0941176 0 0 0 0 0.156863 0 0 0 0.06 0"/><feBlend in2="BackgroundImageFix" result="effect1_dropShadow_91_24975"/><feColorMatrix in="SourceAlpha" values="0 0 0 0 0 0 0 0 0 0 0 0 0 0 0 0 0 0 127 0" result="hardAlpha"/><feOffset dy="1"/><feGaussianBlur stdDeviation="1.5"/><feColorMatrix values="0 0 0 0 0.0627451 0 0 0 0 0.0941176 0 0 0 0 0.156863 0 0 0 0.1 0"/><feBlend in2="effect1_dropShadow_91_24975" result="effect2_dropShadow_91_24975"/><feBlend in="SourceGraphic" in2="effect2_dropShadow_91_24975" result="shape"/></filter><clipPath id="clip0_91_24975"><rect x="3" y="2" width="36" height="24" rx="2" fill="white"/></clipPath></defs></svg>