<svg width="32" height="32" viewBox="0 0 32 32" fill="none" xmlns="http://www.w3.org/2000/svg"><g id="Icon-ApplePodcastsLogo"><g clip-path="url(#clip0_11_4230)"><g id="size=md (32px)"><path id="Vector" d="M16 18C17.6569 18 19 16.6569 19 15C19 13.3431 17.6569 12 16 12C14.3431 12 13 13.3431 13 15C13 16.6569 14.3431 18 16 18Z" stroke="#101828" stroke-width="2" stroke-linecap="round" stroke-linejoin="round"/><path id="Vector_2" d="M16.3629 28H15.6379C15.1746 28.0001 14.7257 27.8394 14.3678 27.5453C14.0099 27.2512 13.7652 26.842 13.6754 26.3875L12.4754 20.3875C12.4181 20.0976 12.4258 19.7986 12.498 19.512C12.5701 19.2254 12.7048 18.9583 12.8925 18.73C13.0801 18.5017 13.3161 18.3178 13.5833 18.1916C13.8505 18.0654 14.1424 17.9999 14.4379 18H17.5629C17.8584 17.9999 18.1503 18.0654 18.4175 18.1916C18.6847 18.3178 18.9207 18.5017 19.1083 18.73C19.296 18.9583 19.4307 19.2254 19.5028 19.512C19.575 19.7986 19.5827 20.0976 19.5254 20.3875L18.3254 26.3875C18.2356 26.842 17.9909 27.2512 17.633 27.5453C17.2751 27.8394 16.8261 28.0001 16.3629 28V28Z" stroke="#101828" stroke-width="2" stroke-linecap="round" stroke-linejoin="round"/><path id="Vector_3" d="M8.5375 18.9C8.06927 17.6879 7.9033 16.3801 8.05396 15.0895C8.20461 13.7989 8.66735 12.5645 9.40215 11.4929C10.137 10.4213 11.1217 9.54478 12.2713 8.93918C13.4209 8.33357 14.7007 8.01709 16 8.01709C17.2993 8.01709 18.5791 8.33357 19.7287 8.93918C20.8783 9.54478 21.863 10.4213 22.5978 11.4929C23.3327 12.5645 23.7954 13.7989 23.946 15.0895C24.0967 16.3801 23.9307 17.6879 23.4625 18.9" stroke="#101828" stroke-width="2" stroke-linecap="round" stroke-linejoin="round"/><path id="Vector_4" d="M9.55 26.1124C7.36041 24.7168 5.68258 22.6486 4.76838 20.2183C3.85417 17.788 3.75291 15.1267 4.4798 12.634C5.20669 10.1412 6.72251 7.9515 8.79972 6.3935C10.8769 4.8355 13.4034 3.99329 16 3.99329C18.5966 3.99329 21.1231 4.8355 23.2003 6.3935C25.2775 7.9515 26.7933 10.1412 27.5202 12.634C28.2471 15.1267 28.1458 17.788 27.2316 20.2183C26.3174 22.6486 24.6396 24.7168 22.45 26.1124" stroke="#101828" stroke-width="2" stroke-linecap="round" stroke-linejoin="round"/></g></g></g><defs><clipPath id="clip0_11_4230"><rect width="32" height="32" rx="5" fill="white"/></clipPath></defs></svg>