<svg xmlns="http://www.w3.org/2000/svg" width="32" height="32" fill="none"><path fill="#101828" d="M12 19.5a1.5 1.5 0 1 0 0-3 1.5 1.5 0 0 0 0 3Zm8 0a1.5 1.5 0 1 0 0-3 1.5 1.5 0 0 0 0 3Z"/><path stroke="#101828" stroke-linecap="round" stroke-linejoin="round" stroke-width="2" d="M9.3 10A21.862 21.862 0 0 1 16 9c2.272-.017 4.532.32 6.7 1m0 12a21.863 21.863 0 0 1-6.7 1 21.863 21.863 0 0 1-6.7-1"/><path stroke="#101828" stroke-linecap="round" stroke-linejoin="round" stroke-width="2" d="m19.375 22.762 1.512 3a.975.975 0 0 0 1.125.526c3.063-.75 5.713-2.05 7.638-3.726a1.013 1.013 0 0 0 .3-1.05l-4.238-14.15a.962.962 0 0 0-.587-.637 22.05 22.05 0 0 0-3.7-1.15 1.012 1.012 0 0 0-1.175.663l-.988 2.987m-6.637 13.537-1.512 3a.975.975 0 0 1-1.125.526c-3.063-.75-5.713-2.05-7.638-3.726a1.012 1.012 0 0 1-.3-1.05l4.237-14.15a.963.963 0 0 1 .588-.637 22.05 22.05 0 0 1 3.7-1.15 1.012 1.012 0 0 1 1.175.663l.988 2.987"/><path fill="#101828" d="M12 19.5a1.5 1.5 0 1 0 0-3 1.5 1.5 0 0 0 0 3Zm8 0a1.5 1.5 0 1 0 0-3 1.5 1.5 0 0 0 0 3Z"/><path stroke="#101828" stroke-linecap="round" stroke-linejoin="round" stroke-width="2" d="M9.3 10A21.862 21.862 0 0 1 16 9c2.272-.017 4.532.32 6.7 1m0 12a21.863 21.863 0 0 1-6.7 1 21.863 21.863 0 0 1-6.7-1"/><path stroke="#101828" stroke-linecap="round" stroke-linejoin="round" stroke-width="2" d="m19.375 22.762 1.512 3a.975.975 0 0 0 1.125.526c3.063-.75 5.713-2.05 7.638-3.726a1.013 1.013 0 0 0 .3-1.05l-4.238-14.15a.962.962 0 0 0-.587-.637 22.05 22.05 0 0 0-3.7-1.15 1.012 1.012 0 0 0-1.175.663l-.988 2.987m-6.637 13.537-1.512 3a.975.975 0 0 1-1.125.526c-3.063-.75-5.713-2.05-7.638-3.726a1.012 1.012 0 0 1-.3-1.05l4.237-14.15a.963.963 0 0 1 .588-.637 22.05 22.05 0 0 1 3.7-1.15 1.012 1.012 0 0 1 1.175.663l.988 2.987"/></svg>