<svg width="32" height="32" viewBox="0 0 32 32" fill="none" xmlns="http://www.w3.org/2000/svg"><g id="Icon-DiscordLogo"><g clip-path="url(#clip0_11_4121)"><g id="size=md (32px)"><path id="Vector" d="M12 19.5C12.8284 19.5 13.5 18.8284 13.5 18C13.5 17.1716 12.8284 16.5 12 16.5C11.1716 16.5 10.5 17.1716 10.5 18C10.5 18.8284 11.1716 19.5 12 19.5Z" fill="#101828"/><path id="Vector_2" d="M20 19.5C20.8284 19.5 21.5 18.8284 21.5 18C21.5 17.1716 20.8284 16.5 20 16.5C19.1716 16.5 18.5 17.1716 18.5 18C18.5 18.8284 19.1716 19.5 20 19.5Z" fill="#101828"/><path id="Vector_3" d="M9.2998 9.99999C11.4676 9.32057 13.7281 8.98319 15.9998 8.99999C18.2715 8.98319 20.532 9.32057 22.6998 9.99999" stroke="#101828" stroke-width="2" stroke-linecap="round" stroke-linejoin="round"/><path id="Vector_4" d="M22.6998 22C20.532 22.6794 18.2715 23.0168 15.9998 23C13.7281 23.0168 11.4676 22.6794 9.2998 22" stroke="#101828" stroke-width="2" stroke-linecap="round" stroke-linejoin="round"/><path id="Vector_5" d="M19.3752 22.7625L20.8877 25.7625C20.985 25.967 21.1505 26.1313 21.3558 26.2272C21.5611 26.323 21.7934 26.3443 22.0127 26.2875C25.0752 25.5375 27.7252 24.2375 29.6502 22.5625C29.7953 22.4344 29.9007 22.2675 29.9539 22.0814C30.0071 21.8953 30.0058 21.6978 29.9502 21.5125L25.7127 7.36246C25.6715 7.21765 25.5968 7.08454 25.4948 6.97382C25.3927 6.8631 25.2662 6.77786 25.1252 6.72496C23.928 6.2338 22.6899 5.84898 21.4252 5.57496C21.1822 5.52173 20.928 5.55985 20.7113 5.68205C20.4946 5.80424 20.3304 6.00196 20.2502 6.23746L19.2627 9.22496" stroke="#101828" stroke-width="2" stroke-linecap="round" stroke-linejoin="round"/><path id="Vector_6" d="M12.6255 22.7625L11.113 25.7625C11.0156 25.967 10.8501 26.1313 10.6448 26.2272C10.4395 26.323 10.2073 26.3443 9.98796 26.2875C6.92546 25.5375 4.27546 24.2375 2.35046 22.5625C2.20533 22.4344 2.09994 22.2675 2.04677 22.0814C1.9936 21.8953 1.99488 21.6978 2.05046 21.5125L6.28796 7.36246C6.3292 7.21765 6.40384 7.08454 6.50587 6.97382C6.60791 6.8631 6.73449 6.77786 6.87546 6.72496C8.07266 6.2338 9.31077 5.84898 10.5755 5.57496C10.8185 5.52173 11.0726 5.55985 11.2893 5.68205C11.5061 5.80424 11.6702 6.00196 11.7505 6.23746L12.738 9.22496" stroke="#101828" stroke-width="2" stroke-linecap="round" stroke-linejoin="round"/><path id="Vector_7" d="M12 19.5C12.8284 19.5 13.5 18.8284 13.5 18C13.5 17.1716 12.8284 16.5 12 16.5C11.1716 16.5 10.5 17.1716 10.5 18C10.5 18.8284 11.1716 19.5 12 19.5Z" fill="#101828"/><path id="Vector_8" d="M20 19.5C20.8284 19.5 21.5 18.8284 21.5 18C21.5 17.1716 20.8284 16.5 20 16.5C19.1716 16.5 18.5 17.1716 18.5 18C18.5 18.8284 19.1716 19.5 20 19.5Z" fill="#101828"/><path id="Vector_9" d="M9.2998 9.99999C11.4676 9.32057 13.7281 8.98319 15.9998 8.99999C18.2715 8.98319 20.532 9.32057 22.6998 9.99999" stroke="#101828" stroke-width="2" stroke-linecap="round" stroke-linejoin="round"/><path id="Vector_10" d="M22.6998 22C20.532 22.6794 18.2715 23.0168 15.9998 23C13.7281 23.0168 11.4676 22.6794 9.2998 22" stroke="#101828" stroke-width="2" stroke-linecap="round" stroke-linejoin="round"/><path id="Vector_11" d="M19.3752 22.7625L20.8877 25.7625C20.985 25.967 21.1505 26.1313 21.3558 26.2272C21.5611 26.323 21.7934 26.3443 22.0127 26.2875C25.0752 25.5375 27.7252 24.2375 29.6502 22.5625C29.7953 22.4344 29.9007 22.2675 29.9539 22.0814C30.0071 21.8953 30.0058 21.6978 29.9502 21.5125L25.7127 7.36246C25.6715 7.21765 25.5968 7.08454 25.4948 6.97382C25.3927 6.8631 25.2662 6.77786 25.1252 6.72496C23.928 6.2338 22.6899 5.84898 21.4252 5.57496C21.1822 5.52173 20.928 5.55985 20.7113 5.68205C20.4946 5.80424 20.3304 6.00196 20.2502 6.23746L19.2627 9.22496" stroke="#101828" stroke-width="2" stroke-linecap="round" stroke-linejoin="round"/><path id="Vector_12" d="M12.6255 22.7625L11.113 25.7625C11.0156 25.967 10.8501 26.1313 10.6448 26.2272C10.4395 26.323 10.2073 26.3443 9.98796 26.2875C6.92546 25.5375 4.27546 24.2375 2.35046 22.5625C2.20533 22.4344 2.09994 22.2675 2.04677 22.0814C1.9936 21.8953 1.99488 21.6978 2.05046 21.5125L6.28796 7.36246C6.3292 7.21765 6.40384 7.08454 6.50587 6.97382C6.60791 6.8631 6.73449 6.77786 6.87546 6.72496C8.07266 6.2338 9.31077 5.84898 10.5755 5.57496C10.8185 5.52173 11.0726 5.55985 11.2893 5.68205C11.5061 5.80424 11.6702 6.00196 11.7505 6.23746L12.738 9.22496" stroke="#101828" stroke-width="2" stroke-linecap="round" stroke-linejoin="round"/></g></g></g><defs><clipPath id="clip0_11_4121"><rect width="32" height="32" rx="5" fill="white"/></clipPath></defs></svg>