<svg width="32" height="32" viewBox="0 0 32 32" fill="none" xmlns="http://www.w3.org/2000/svg"><g id="Icon-TelegramLogo"><g clip-path="url(#clip0_11_3554)"><g id="size=md (32px)"><path id="Vector" d="M11.0001 16.8625L22.2376 26.75C22.3675 26.8649 22.525 26.9442 22.6948 26.9798C22.8645 27.0155 23.0406 27.0064 23.2058 26.9535C23.371 26.9005 23.5195 26.8055 23.6369 26.6778C23.7542 26.5501 23.8363 26.394 23.8751 26.225L28.5751 5.69998C28.6145 5.52321 28.6052 5.33907 28.5481 5.16719C28.4911 4.99532 28.3884 4.84218 28.2511 4.72411C28.1137 4.60603 27.9469 4.52747 27.7684 4.4968C27.59 4.46614 27.4065 4.48451 27.2376 4.54998L4.16263 13.6125C3.23763 13.975 3.36263 15.325 4.33763 15.525L11.0001 16.8625Z" stroke="#101828" stroke-width="2" stroke-linecap="round" stroke-linejoin="round"/><path id="Vector_2" d="M11 16.8625L28.0125 4.57501" stroke="#101828" stroke-width="2" stroke-linecap="round" stroke-linejoin="round"/><path id="Vector_3" d="M16.6125 21.8L12.7125 25.7C12.5734 25.8413 12.3954 25.938 12.2011 25.9779C12.0069 26.0178 11.8052 25.999 11.6216 25.924C11.4381 25.8489 11.281 25.721 11.1703 25.5565C11.0596 25.392 11.0003 25.1983 11 25V16.8625" stroke="#101828" stroke-width="2" stroke-linecap="round" stroke-linejoin="round"/></g></g></g><defs><clipPath id="clip0_11_3554"><rect width="32" height="32" rx="5" fill="white"/></clipPath></defs></svg>