<svg xmlns="http://www.w3.org/2000/svg" fill="none" stroke="currentColor" aria-hidden="true" viewBox="0 0 32 32"><g id="Icon-BatteryWarning"><g clip-path="url(#clip0_9_1716)"><g id="size=md (32px)"><g id="BatteryWarning"><path id="Vector" stroke-linecap="round" stroke-linejoin="round" stroke-width="2" d="M15.5 11V16"/><path id="Vector_2" stroke-linecap="round" stroke-linejoin="round" stroke-width="2" d="M31 12V20"/><path id="Vector_3" stroke-linecap="round" stroke-linejoin="round" stroke-width="2" d="M27 23V9C27 7.89543 26.1046 7 25 7L6 7C4.89543 7 4 7.89543 4 9V23C4 24.1046 4.89543 25 6 25H25C26.1046 25 27 24.1046 27 23Z"/><path id="Vector_4" fill="#101828" d="M15.5 22C16.3284 22 17 21.3284 17 20.5C17 19.6716 16.3284 19 15.5 19C14.6716 19 14 19.6716 14 20.5C14 21.3284 14.6716 22 15.5 22Z"/></g></g></g></g><defs><clipPath id="clip0_9_1716"><rect width="32" height="32" fill="white" rx="5"/></clipPath></defs></svg>