<svg xmlns="http://www.w3.org/2000/svg" fill="none" stroke="currentColor" aria-hidden="true" viewBox="0 0 32 32"><path stroke-linecap="round" stroke-linejoin="round" stroke-width="2" d="m6 5 20 22m-14-3v1a4 4 0 1 0 8 0v-1"/><path stroke-linecap="round" stroke-linejoin="round" stroke-width="2" d="M23.275 24H6.125a1 1 0 0 1-.863-1.5c.825-1.425 1.763-4.025 1.763-8.5v-1a9.05 9.05 0 0 1 1.587-5.125m2.951-2.7A8.85 8.85 0 0 1 16.063 4c4.95.037 8.912 4.15 8.912 9.113V14c0 3.337.525 5.625 1.125 7.163"/></svg>