<svg xmlns="http://www.w3.org/2000/svg" fill="none" stroke="currentColor" aria-hidden="true" viewBox="0 0 32 32"><g stroke="#101828" stroke-linecap="round" stroke-linejoin="round" stroke-width="2" clip-path="url(#a)"><path d="M7.025 14a8.975 8.975 0 1 1 17.95 0v0c0 4.475.937 7.075 1.762 8.5a1 1 0 0 1-.862 1.5H6.125a.999.999 0 0 1-.863-1.5c.825-1.425 1.763-4.025 1.763-8.5ZM12 24v1a4 4 0 1 0 8 0v-1m2.925-21a13.124 13.124 0 0 1 4.75 5.262m-23.35 0A13.125 13.125 0 0 1 9.075 3"/></g><defs><clipPath id="a"><rect width="32" height="32" fill="#fff" rx="5"/></clipPath></defs></svg>