<svg xmlns="http://www.w3.org/2000/svg" fill="none" stroke="currentColor" aria-hidden="true" viewBox="0 0 32 32"><g id="Icon-BluetoothConnected"><g clip-path="url(#clip0_9_1486)"><g id="size=md (32px)"><g id="BluetoothConnected"><path id="Vector" stroke-linecap="round" stroke-linejoin="round" stroke-width="2" d="M15 4L23 10L15 16V4Z"/><path id="Vector_2" stroke-linecap="round" stroke-linejoin="round" stroke-width="2" d="M15 16L23 22L15 28V16Z"/><path id="Vector_3" stroke-linecap="round" stroke-linejoin="round" stroke-width="2" d="M7 10L15 16"/><path id="Vector_4" stroke-linecap="round" stroke-linejoin="round" stroke-width="2" d="M7 22L15 16"/><path id="Vector_5" fill="#101828" d="M6.5 17.5C7.32843 17.5 8 16.8284 8 16C8 15.1716 7.32843 14.5 6.5 14.5C5.67157 14.5 5 15.1716 5 16C5 16.8284 5.67157 17.5 6.5 17.5Z"/><path id="Vector_6" fill="#101828" d="M24.5 17.5C25.3284 17.5 26 16.8284 26 16C26 15.1716 25.3284 14.5 24.5 14.5C23.6716 14.5 23 15.1716 23 16C23 16.8284 23.6716 17.5 24.5 17.5Z"/></g></g></g></g><defs><clipPath id="clip0_9_1486"><rect width="32" height="32" fill="white" rx="5"/></clipPath></defs></svg>