<svg xmlns="http://www.w3.org/2000/svg" fill="none" stroke="currentColor" aria-hidden="true" viewBox="0 0 32 32"><g id="Icon-CellSignalSlash"><g clip-path="url(#clip0_9_1299)"><g id="size=md (32px)"><g id="CellSignalSlash"><path id="Vector" stroke-linecap="round" stroke-linejoin="round" stroke-width="2" d="M6 5L26 27"/><path id="Vector_2" stroke-linecap="round" stroke-linejoin="round" stroke-width="2" d="M16.925 11.075L23.2875 4.71251C23.4267 4.57123 23.6047 4.4745 23.7989 4.43462C23.9932 4.39474 24.1949 4.4135 24.3784 4.48853C24.562 4.56356 24.7191 4.69146 24.8298 4.85598C24.9404 5.02051 24.9997 5.21422 25 5.41251V19.95"/><path id="Vector_3" stroke-linecap="round" stroke-linejoin="round" stroke-width="2" d="M25.9999 27H3.41239C3.2141 26.9997 3.02039 26.9404 2.85586 26.8297C2.69134 26.719 2.56344 26.5619 2.48841 26.3784C2.41338 26.1948 2.39462 25.9931 2.4345 25.7989C2.47438 25.6047 2.57111 25.4267 2.71239 25.2875L14.0999 13.9"/></g></g></g></g><defs><clipPath id="clip0_9_1299"><rect width="32" height="32" fill="white" rx="5"/></clipPath></defs></svg>