<svg xmlns="http://www.w3.org/2000/svg" fill="none" stroke="currentColor" aria-hidden="true" viewBox="0 0 32 32"><g id="Icon-ComputerTower"><g clip-path="url(#clip0_9_1074)"><g id="size=md (32px)"><g id="ComputerTower"><path id="Vector" stroke-linecap="round" stroke-linejoin="round" stroke-width="2" d="M20 9H12"/><path id="Vector_2" stroke-linecap="round" stroke-linejoin="round" stroke-width="2" d="M20 13H12"/><path id="Vector_3" stroke-linecap="round" stroke-linejoin="round" stroke-width="2" d="M25 27V5C25 4.44772 24.5523 4 24 4L8 4C7.44772 4 7 4.44772 7 5V27C7 27.5523 7.44772 28 8 28H24C24.5523 28 25 27.5523 25 27Z"/><path id="Vector_4" fill="#101828" d="M16 24C16.8284 24 17.5 23.3284 17.5 22.5C17.5 21.6716 16.8284 21 16 21C15.1716 21 14.5 21.6716 14.5 22.5C14.5 23.3284 15.1716 24 16 24Z"/></g></g></g></g><defs><clipPath id="clip0_9_1074"><rect width="32" height="32" fill="white" rx="5"/></clipPath></defs></svg>