<svg xmlns="http://www.w3.org/2000/svg" fill="none" stroke="currentColor" aria-hidden="true" viewBox="0 0 32 32"><g id="Icon-DotsThreeCircleVertical"><g clip-path="url(#clip0_9_747)"><g id="size=md (32px)"><g id="DotsThreeCircleVertical"><path id="Vector" stroke-miterlimit="10" stroke-width="2" d="M16 28C22.6274 28 28 22.6274 28 16C28 9.37258 22.6274 4 16 4C9.37258 4 4 9.37258 4 16C4 22.6274 9.37258 28 16 28Z"/><path id="Vector_2" fill="#101828" d="M16 17.5C16.8284 17.5 17.5 16.8284 17.5 16C17.5 15.1716 16.8284 14.5 16 14.5C15.1716 14.5 14.5 15.1716 14.5 16C14.5 16.8284 15.1716 17.5 16 17.5Z"/><path id="Vector_3" fill="#101828" d="M16 11.5C16.8284 11.5 17.5 10.8284 17.5 10C17.5 9.17157 16.8284 8.5 16 8.5C15.1716 8.5 14.5 9.17157 14.5 10C14.5 10.8284 15.1716 11.5 16 11.5Z"/><path id="Vector_4" fill="#101828" d="M16 23.5C16.8284 23.5 17.5 22.8284 17.5 22C17.5 21.1716 16.8284 20.5 16 20.5C15.1716 20.5 14.5 21.1716 14.5 22C14.5 22.8284 15.1716 23.5 16 23.5Z"/></g></g></g></g><defs><clipPath id="clip0_9_747"><rect width="32" height="32" fill="white" rx="5"/></clipPath></defs></svg>