<svg xmlns="http://www.w3.org/2000/svg" fill="none" stroke="currentColor" aria-hidden="true" viewBox="0 0 32 32"><g stroke="#101828" stroke-linecap="round" stroke-linejoin="round" stroke-width="2" clip-path="url(#a)"><path d="m10 22-7 7M29 3l-7 7m-5.617-1.38-7.76 7.76a3 3 0 0 0 0 4.243l2.757 2.757a3 3 0 0 0 4.242 0l7.76-7.76a3 3 0 0 0 0-4.243L20.626 8.62a3 3 0 0 0-4.242 0ZM11.5 11.5l9 9M28 20l-3-1M7 13l-3-1m8-8 1 3m6 18 1 3"/></g><defs><clipPath id="a"><rect width="32" height="32" fill="#fff" rx="5"/></clipPath></defs></svg>