<svg xmlns="http://www.w3.org/2000/svg" fill="none" stroke="currentColor" aria-hidden="true" viewBox="0 0 32 32"><g id="Icon-Plugs"><g clip-path="url(#clip0_9_36)"><g id="size=md (32px)"><g id="Plugs"><path id="Vector" stroke-linecap="round" stroke-linejoin="round" stroke-width="2" d="M16.5 22.5L12.625 26.375C12.3463 26.6547 12.0152 26.8766 11.6505 27.028C11.2858 27.1794 10.8949 27.2574 10.5 27.2574C10.1052 27.2574 9.71424 27.1794 9.34959 27.028C8.98493 26.8766 8.65375 26.6547 8.37504 26.375L5.62504 23.625C5.34536 23.3463 5.12345 23.0151 4.97203 22.6505C4.82062 22.2858 4.74268 21.8948 4.74268 21.5C4.74268 21.1052 4.82062 20.7142 4.97203 20.3495C5.12345 19.9849 5.34536 19.6537 5.62504 19.375L9.50004 15.5"/><path id="Vector_2" stroke-linecap="round" stroke-linejoin="round" stroke-width="2" d="M7 25L3 29"/><path id="Vector_3" stroke-linecap="round" stroke-linejoin="round" stroke-width="2" d="M29 3L25 7"/><path id="Vector_4" stroke-linecap="round" stroke-linejoin="round" stroke-width="2" d="M18 18L15 21"/><path id="Vector_5" stroke-linecap="round" stroke-linejoin="round" stroke-width="2" d="M14 14L11 17"/><path id="Vector_6" stroke-linecap="round" stroke-linejoin="round" stroke-width="2" d="M22.5 16.5L26.375 12.625C26.6547 12.3463 26.8766 12.0151 27.028 11.6505C27.1794 11.2858 27.2574 10.8948 27.2574 10.5C27.2574 10.1052 27.1794 9.7142 27.028 9.34954C26.8766 8.98489 26.6547 8.65371 26.375 8.375L23.625 5.625C23.3463 5.34532 23.0151 5.12341 22.6505 4.97199C22.2858 4.82058 21.8948 4.74263 21.5 4.74263C21.1052 4.74263 20.7142 4.82058 20.3495 4.97199C19.9849 5.12341 19.6537 5.34532 19.375 5.625L15.5 9.5"/><path id="Vector_7" stroke-linecap="round" stroke-linejoin="round" stroke-width="2" d="M14.5 8.5L23.5 17.5"/><path id="Vector_8" stroke-linecap="round" stroke-linejoin="round" stroke-width="2" d="M8.5 14.5L17.5 23.5"/></g></g></g></g><defs><clipPath id="clip0_9_36"><rect width="32" height="32" fill="white" rx="5"/></clipPath></defs></svg>