<svg xmlns="http://www.w3.org/2000/svg" fill="none" stroke="currentColor" aria-hidden="true" viewBox="0 0 32 32"><g stroke="#101828" stroke-linecap="round" stroke-linejoin="round" stroke-width="2" clip-path="url(#a)"><path d="M10 20h16a1 1 0 0 0 1-1V6a1 1 0 0 0-1-1H12a1 1 0 0 0-1 1v1"/><path d="m13 17-3 3 3 3"/><path d="M22 12H6a1 1 0 0 0-1 1v13a1 1 0 0 0 1 1h14a1 1 0 0 0 1-1v-1"/><path d="m19 15 3-3-3-3"/></g><defs><clipPath id="a"><rect width="32" height="32" fill="#fff" rx="5"/></clipPath></defs></svg>