<svg xmlns="http://www.w3.org/2000/svg" fill="none" stroke="currentColor" aria-hidden="true" viewBox="0 0 32 32"><path stroke-linecap="round" stroke-linejoin="round" stroke-width="2" d="M10 20h16a1 1 0 0 0 1-1V6a1 1 0 0 0-1-1H12a1 1 0 0 0-1 1v1"/><path stroke-linecap="round" stroke-linejoin="round" stroke-width="2" d="m13 17-3 3 3 3"/><path stroke-linecap="round" stroke-linejoin="round" stroke-width="2" d="M22 12H6a1 1 0 0 0-1 1v13a1 1 0 0 0 1 1h14a1 1 0 0 0 1-1v-1"/><path stroke-linecap="round" stroke-linejoin="round" stroke-width="2" d="m19 15 3-3-3-3"/></svg>