<svg xmlns="http://www.w3.org/2000/svg" fill="none" stroke="currentColor" aria-hidden="true" viewBox="0 0 32 32"><g id="Icon-WifiX"><g clip-path="url(#clip0_9_1959)"><g id="size=md (32px)"><g id="WifiX"><path id="Vector" stroke-linecap="round" stroke-linejoin="round" stroke-width="2" d="M11.6125 20.7625C12.7926 19.6303 14.3647 18.9982 16 18.9982C17.6354 18.9982 19.2075 19.6303 20.3875 20.7625"/><path id="Vector_2" stroke-linecap="round" stroke-linejoin="round" stroke-width="2" d="M28 7L22 13"/><path id="Vector_3" stroke-linecap="round" stroke-linejoin="round" stroke-width="2" d="M28 13L22 7"/><path id="Vector_4" stroke-linecap="round" stroke-linejoin="round" stroke-width="2" d="M3.13745 12.275C6.55802 8.88392 11.1834 6.98704 16 7C16.6682 6.99975 17.3359 7.03731 18 7.11251"/><path id="Vector_5" stroke-linecap="round" stroke-linejoin="round" stroke-width="2" d="M7.375 16.5125C9.67397 14.2496 12.7742 12.987 16 13C16.6701 12.9967 17.3392 13.051 18 13.1625"/><path id="Vector_6" fill="#101828" d="M16 26.5C16.8284 26.5 17.5 25.8284 17.5 25C17.5 24.1716 16.8284 23.5 16 23.5C15.1716 23.5 14.5 24.1716 14.5 25C14.5 25.8284 15.1716 26.5 16 26.5Z"/></g></g></g></g><defs><clipPath id="clip0_9_1959"><rect width="32" height="32" fill="white" rx="5"/></clipPath></defs></svg>