<svg xmlns="http://www.w3.org/2000/svg" fill="none" stroke="currentColor" aria-hidden="true" viewBox="0 0 32 32"><g id="Icon-Wrench"><g clip-path="url(#clip0_9_1946)"><g id="size=md (32px)"><g id="Wrench"><path id="Vector" stroke-linecap="round" stroke-linejoin="round" stroke-width="2" d="M27.3626 8.875C28.0185 10.4066 28.1791 12.105 27.8218 13.7324C27.4645 15.3598 26.6073 16.8348 25.37 17.9507C24.1328 19.0667 22.5776 19.7679 20.9221 19.956C19.2666 20.1442 17.5937 19.8099 16.1376 19V19L9.12508 27.125C8.56149 27.6886 7.79711 28.0052 7.00008 28.0052C6.20305 28.0052 5.43866 27.6886 4.87508 27.125C4.31149 26.5614 3.99487 25.797 3.99487 25C3.99487 24.203 4.31149 23.4386 4.87508 22.875L13.0001 15.8625C12.1902 14.4064 11.8559 12.7335 12.0441 11.078C12.2322 9.42248 12.9334 7.86725 14.0493 6.63003C15.1653 5.39281 16.6402 4.53555 18.2677 4.17826C19.8951 3.82097 21.5935 3.98154 23.1251 4.6375L17.8751 9.875L18.5876 13.4125L22.1251 14.125L27.3626 8.875Z"/></g></g></g></g><defs><clipPath id="clip0_9_1946"><rect width="32" height="32" fill="white" rx="5"/></clipPath></defs></svg>