<svg width="32" height="32" viewBox="0 0 32 32" fill="none" xmlns="http://www.w3.org/2000/svg"><g id="Icon-TwitchLogo"><g clip-path="url(#clip0_11_3487)"><g id="size=md (32px)"><path id="Vector" d="M20.6375 25H15.3625C15.1284 25.0001 14.9021 25.0844 14.725 25.2375L9 30V25H6C5.73478 25 5.48043 24.8946 5.29289 24.7071C5.10536 24.5196 5 24.2652 5 24V6C5 5.73478 5.10536 5.48043 5.29289 5.29289C5.48043 5.10536 5.73478 5 6 5H26C26.2652 5 26.5196 5.10536 26.7071 5.29289C26.8946 5.48043 27 5.73478 27 6V19.5375C26.998 19.6832 26.9646 19.8267 26.902 19.9583C26.8395 20.0899 26.7492 20.2065 26.6375 20.3L21.275 24.7625C21.0979 24.9156 20.8716 24.9999 20.6375 25V25Z" stroke="#101828" stroke-width="2" stroke-linecap="round" stroke-linejoin="round"/><path id="Vector_2" d="M21 11V17" stroke="#101828" stroke-width="2" stroke-linecap="round" stroke-linejoin="round"/><path id="Vector_3" d="M15 11V17" stroke="#101828" stroke-width="2" stroke-linecap="round" stroke-linejoin="round"/></g></g><rect x="0.5" y="0.5" width="31" height="31" rx="4.5" stroke="#3D90E3" stroke-dasharray="10 5"/></g><defs><clipPath id="clip0_11_3487"><rect width="32" height="32" rx="5" fill="white"/></clipPath></defs></svg>