<svg width="32" height="32" viewBox="0 0 32 32" fill="none" xmlns="http://www.w3.org/2000/svg"><g id="Icon-GitlabLogo"><g clip-path="url(#clip0_11_4016)"><g id="size=md (32px)"><path id="Vector" d="M10.3753 14H21.6253L24.4503 6.46246C24.4881 6.36379 24.5562 6.27964 24.6448 6.22208C24.7334 6.16451 24.8379 6.1365 24.9435 6.14205C25.049 6.1476 25.15 6.18644 25.2321 6.25299C25.3142 6.31953 25.373 6.41037 25.4003 6.51246L28.8253 19.325C28.8734 19.5236 28.861 19.7321 28.7897 19.9236C28.7184 20.1152 28.5915 20.2811 28.4253 20.4L16.5753 28.6C16.4062 28.7166 16.2057 28.7791 16.0003 28.7791C15.7949 28.7791 15.5943 28.7166 15.4253 28.6L3.57528 20.4C3.40902 20.2811 3.28211 20.1152 3.21083 19.9236C3.13956 19.7321 3.12717 19.5236 3.17528 19.325L6.60028 6.51246C6.62752 6.41037 6.6864 6.31953 6.76847 6.25299C6.85054 6.18644 6.95158 6.1476 7.0571 6.14205C7.16261 6.1365 7.26717 6.16451 7.35578 6.22208C7.44438 6.27964 7.51247 6.36379 7.55028 6.46246L10.3753 14Z" stroke="#101828" stroke-width="2" stroke-linecap="round" stroke-linejoin="round"/><path id="Vector_2" d="M16.0879 28.775L21.6254 14H27.4004" stroke="#101828" stroke-width="2" stroke-linecap="round" stroke-linejoin="round"/><path id="Vector_3" d="M4.59961 14H10.3746L15.9121 28.775" stroke="#101828" stroke-width="2" stroke-linecap="round" stroke-linejoin="round"/></g></g><rect x="0.5" y="0.5" width="31" height="31" rx="4.5" stroke="#3D90E3" stroke-dasharray="10 5"/></g><defs><clipPath id="clip0_11_4016"><rect width="32" height="32" rx="5" fill="white"/></clipPath></defs></svg>