<svg width="32" height="32" viewBox="0 0 32 32" fill="none" xmlns="http://www.w3.org/2000/svg"><g id="Icon-TwitterLogo"><g clip-path="url(#clip0_11_3446)"><g id="size=md (32px)"><path id="Vector" d="M15.9997 11C15.9997 8.25003 18.3122 5.96253 21.0622 6.00003C22.0253 6.01115 22.9646 6.30018 23.7673 6.83237C24.5701 7.36457 25.202 8.11728 25.5872 9.00003H29.9997L25.9622 13.0375C25.7016 17.0932 23.9063 20.8975 20.9412 23.6769C17.9761 26.4562 14.0638 28.002 9.9997 28C5.9997 28 4.9997 26.5 4.9997 26.5C4.9997 26.5 8.9997 25 10.9997 22C10.9997 22 2.9997 18 4.9997 7.00003C4.9997 7.00003 9.9997 12 15.9997 13V11Z" stroke="#101828" stroke-width="2" stroke-linecap="round" stroke-linejoin="round"/></g></g><rect x="0.5" y="0.5" width="31" height="31" rx="4.5" stroke="#3D90E3" stroke-dasharray="10 5"/></g><defs><clipPath id="clip0_11_3446"><rect width="32" height="32" rx="5" fill="white"/></clipPath></defs></svg>