<svg width="32" height="32" viewBox="0 0 32 32" fill="none" xmlns="http://www.w3.org/2000/svg"><g id="Icon-MediumLogo"><g clip-path="url(#clip0_11_3826)"><g id="size=md (32px)"><path id="Vector" d="M9 23.5C12.866 23.5 16 20.1421 16 16C16 11.8579 12.866 8.5 9 8.5C5.13401 8.5 2 11.8579 2 16C2 20.1421 5.13401 23.5 9 23.5Z" stroke="#101828" stroke-width="2" stroke-linecap="round" stroke-linejoin="round"/><path id="Vector_2" d="M23 23C24.6569 23 26 19.866 26 16C26 12.134 24.6569 9 23 9C21.3431 9 20 12.134 20 16C20 19.866 21.3431 23 23 23Z" stroke="#101828" stroke-width="2" stroke-linecap="round" stroke-linejoin="round"/><path id="Vector_3" d="M30 9V23" stroke="#101828" stroke-width="2" stroke-linecap="round" stroke-linejoin="round"/></g></g><rect x="0.5" y="0.5" width="31" height="31" rx="4.5" stroke="#3D90E3" stroke-dasharray="10 5"/></g><defs><clipPath id="clip0_11_3826"><rect width="32" height="32" rx="5" fill="white"/></clipPath></defs></svg>