<svg width="32" height="32" viewBox="0 0 32 32" fill="none" xmlns="http://www.w3.org/2000/svg"><g id="Icon-DribbbleLogo"><g clip-path="url(#clip0_11_4102)"><g id="size=md (32px)"><path id="Vector" d="M16 28C22.6274 28 28 22.6274 28 16C28 9.37258 22.6274 4 16 4C9.37258 4 4 9.37258 4 16C4 22.6274 9.37258 28 16 28Z" stroke="#101828" stroke-width="2" stroke-linecap="round" stroke-linejoin="round"/><path id="Vector_2" d="M8.875 25.6625C10.6565 22.7143 13.1689 20.2758 16.169 18.583C19.1691 16.8903 22.5553 16.0006 26 16C26.675 16 27.3375 16.0375 28 16.1" stroke="#101828" stroke-width="2" stroke-linecap="round" stroke-linejoin="round"/><path id="Vector_3" d="M23.4998 6.63745C21.6256 8.93922 19.2619 10.7943 16.5807 12.0679C13.8995 13.3415 10.9681 14.0015 7.9998 14C6.73758 13.9985 5.47814 13.8814 4.2373 13.65" stroke="#101828" stroke-width="2" stroke-linecap="round" stroke-linejoin="round"/><path id="Vector_4" d="M10.7373 5.21252C14.4579 7.40579 17.3715 10.7412 19.0448 14.7229C20.7181 18.7045 21.0618 23.1199 20.0248 27.3125" stroke="#101828" stroke-width="2" stroke-linecap="round" stroke-linejoin="round"/></g></g><rect x="0.5" y="0.5" width="31" height="31" rx="4.5" stroke="#3D90E3" stroke-dasharray="10 5"/></g><defs><clipPath id="clip0_11_4102"><rect width="32" height="32" rx="5" fill="white"/></clipPath></defs></svg>