<svg width="32" height="32" viewBox="0 0 32 32" fill="none" xmlns="http://www.w3.org/2000/svg"><g id="Icon-GooglePlayLogo"><g clip-path="url(#clip0_11_3939)"><g id="size=md (32px)"><path id="Vector" d="M4.97461 28.0126C4.97613 28.1886 5.0241 28.3611 5.11366 28.5126C5.20322 28.6642 5.33119 28.7894 5.48465 28.8757C5.63811 28.9619 5.81162 29.0061 5.98764 29.0038C6.16366 29.0015 6.33595 28.9528 6.48711 28.8626L27.4621 16.8501C27.6164 16.7681 27.7455 16.6457 27.8355 16.4959C27.9255 16.3462 27.973 16.1748 27.973 16.0001C27.973 15.8253 27.9255 15.6539 27.8355 15.5042C27.7455 15.3544 27.6164 15.232 27.4621 15.1501L6.48711 3.13755C6.33595 3.04733 6.16366 2.9986 5.98764 2.9963C5.81162 2.994 5.63811 3.03821 5.48465 3.12445C5.33119 3.21069 5.20322 3.33592 5.11366 3.48747C5.0241 3.63902 4.97613 3.81152 4.97461 3.98755V28.0126Z" stroke="#101828" stroke-width="2" stroke-linecap="round" stroke-linejoin="round"/><path id="Vector_2" d="M5.27539 3.27502L21.9879 19.9875" stroke="#101828" stroke-width="2" stroke-linecap="round" stroke-linejoin="round"/><path id="Vector_3" d="M5.27539 28.725L21.9879 12.0125" stroke="#101828" stroke-width="2" stroke-linecap="round" stroke-linejoin="round"/></g></g><rect x="0.5" y="0.5" width="31" height="31" rx="4.5" stroke="#3D90E3" stroke-dasharray="10 5"/></g><defs><clipPath id="clip0_11_3939"><rect width="32" height="32" rx="5" fill="white"/></clipPath></defs></svg>