<svg width="32" height="32" viewBox="0 0 32 32" fill="none" xmlns="http://www.w3.org/2000/svg"><g id="Icon-LinuxLogo"><g clip-path="url(#clip0_11_3596)"><g id="size=md (32px)"><path id="Vector" d="M4 27C4 27 8 20 8 12C8 9.87827 8.84285 7.84344 10.3431 6.34315C11.8434 4.84285 13.8783 4 16 4C18.1217 4 20.1566 4.84285 21.6569 6.34315C23.1571 7.84344 24 9.87827 24 12C24 20 28 27 28 27" stroke="#101828" stroke-width="2" stroke-linecap="round" stroke-linejoin="round"/><path id="Vector_2" d="M12.5 15C13.3284 15 14 14.3284 14 13.5C14 12.6716 13.3284 12 12.5 12C11.6716 12 11 12.6716 11 13.5C11 14.3284 11.6716 15 12.5 15Z" fill="#101828"/><path id="Vector_3" d="M19.5 15C20.3284 15 21 14.3284 21 13.5C21 12.6716 20.3284 12 19.5 12C18.6716 12 18 12.6716 18 13.5C18 14.3284 18.6716 15 19.5 15Z" fill="#101828"/><path id="Vector_4" d="M20 18L16 20L12 18" stroke="#101828" stroke-width="2" stroke-linecap="round" stroke-linejoin="round"/><path id="Vector_5" d="M10.7998 27.0001C11.3284 26.0893 12.087 25.3334 12.9996 24.8079C13.9122 24.2824 14.9468 24.0059 15.9998 24.0059C17.0529 24.0059 18.0874 24.2824 19 24.8079C19.9126 25.3334 20.6712 26.0893 21.1998 27.0001" stroke="#101828" stroke-width="2" stroke-linecap="round" stroke-linejoin="round"/></g></g><rect x="0.5" y="0.5" width="31" height="31" rx="4.5" stroke="#3D90E3" stroke-dasharray="10 5"/></g><defs><clipPath id="clip0_11_3596"><rect width="32" height="32" rx="5" fill="white"/></clipPath></defs></svg>