<svg width="32" height="32" viewBox="0 0 32 32" fill="none" xmlns="http://www.w3.org/2000/svg"><g id="Icon-CodepenLogo"><g clip-path="url(#clip0_11_4164)"><g id="size=md (32px)"><path id="Vector" d="M29 12.625L16 20L3 12.625L15.5125 5.52499C15.6626 5.4451 15.83 5.40332 16 5.40332C16.17 5.40332 16.3374 5.4451 16.4875 5.52499L29 12.625Z" stroke="#101828" stroke-width="2" stroke-linecap="round" stroke-linejoin="round"/><path id="Vector_2" d="M29 20.625L16.4875 27.725C16.3374 27.8049 16.17 27.8467 16 27.8467C15.83 27.8467 15.6626 27.8049 15.5125 27.725L3 20.625L16 13.25L29 20.625Z" stroke="#101828" stroke-width="2" stroke-linecap="round" stroke-linejoin="round"/><path id="Vector_3" d="M29 12.625V20.625" stroke="#101828" stroke-width="2" stroke-linecap="round" stroke-linejoin="round"/><path id="Vector_4" d="M3 12.625V20.625" stroke="#101828" stroke-width="2" stroke-linecap="round" stroke-linejoin="round"/><path id="Vector_5" d="M16 20V27.85" stroke="#101828" stroke-width="2" stroke-linecap="round" stroke-linejoin="round"/><path id="Vector_6" d="M16 5.40002V13.25" stroke="#101828" stroke-width="2" stroke-linecap="round" stroke-linejoin="round"/></g></g><rect x="0.5" y="0.5" width="31" height="31" rx="4.5" stroke="#3D90E3" stroke-dasharray="10 5"/></g><defs><clipPath id="clip0_11_4164"><rect width="32" height="32" rx="5" fill="white"/></clipPath></defs></svg>