<svg width="32" height="32" viewBox="0 0 32 32" fill="none" xmlns="http://www.w3.org/2000/svg"><g id="Icon-NumberSquareZero"><g clip-path="url(#clip0_12_4734)"><g id="size=md (32px)"><g id="NumberSquareZero"><path id="Vector" d="M16 22C18.2091 22 20 19.3137 20 16C20 12.6863 18.2091 10 16 10C13.7909 10 12 12.6863 12 16C12 19.3137 13.7909 22 16 22Z" stroke="#101828" stroke-width="2" stroke-linecap="round" stroke-linejoin="round"/><path id="Vector_2" d="M26 5H6C5.44772 5 5 5.44772 5 6V26C5 26.5523 5.44772 27 6 27H26C26.5523 27 27 26.5523 27 26V6C27 5.44772 26.5523 5 26 5Z" stroke="#101828" stroke-width="2" stroke-linecap="round" stroke-linejoin="round"/></g></g></g><rect x="0.5" y="0.5" width="31" height="31" rx="4.5" stroke="#3D90E3" stroke-dasharray="10 5"/></g><defs><clipPath id="clip0_12_4734"><rect width="32" height="32" rx="5" fill="white"/></clipPath></defs></svg>