<svg width="32" height="32" viewBox="0 0 32 32" fill="none" xmlns="http://www.w3.org/2000/svg"><g id="Icon-NumberFive"><g clip-path="url(#clip0_12_4980)"><g id="size=md (32px)"><g id="NumberFive"><path id="Vector" d="M22 4H11.9625L10 16.05C11.3208 14.7378 13.107 14.0014 14.9688 14.0014C16.8305 14.0014 18.6167 14.7378 19.9375 16.05C20.5906 16.6983 21.1089 17.4695 21.4626 18.3191C21.8163 19.1686 21.9984 20.0798 21.9984 21C21.9984 21.9202 21.8163 22.8314 21.4626 23.6809C21.1089 24.5305 20.5906 25.3017 19.9375 25.95C18.6167 27.2622 16.8305 27.9986 14.9688 27.9986C13.107 27.9986 11.3208 27.2622 10 25.95" stroke="#101828" stroke-width="2" stroke-linecap="round" stroke-linejoin="round"/></g></g></g><rect x="0.5" y="0.5" width="31" height="31" rx="4.5" stroke="#3D90E3" stroke-dasharray="10 5"/></g><defs><clipPath id="clip0_12_4980"><rect width="32" height="32" rx="5" fill="white"/></clipPath></defs></svg>