<svg width="32" height="32" viewBox="0 0 32 32" fill="none" xmlns="http://www.w3.org/2000/svg"><g id="Icon-NumberThree"><g clip-path="url(#clip0_12_4721)"><g id="size=md (32px)"><g id="NumberThree"><path id="Vector" d="M10 4H22L15 14C16.1511 14.0001 17.2845 14.284 18.2996 14.8267C19.3148 15.3694 20.1805 16.1541 20.8199 17.1112C21.4594 18.0684 21.853 19.1685 21.9658 20.3141C22.0786 21.4596 21.9071 22.6154 21.4666 23.6789C21.0261 24.7423 20.3301 25.6808 19.4403 26.4111C18.5504 27.1413 17.4943 27.6409 16.3653 27.8655C15.2363 28.0901 14.0693 28.0328 12.9677 27.6987C11.8662 27.3645 10.864 26.7639 10.05 25.95" stroke="#101828" stroke-width="2" stroke-linecap="round" stroke-linejoin="round"/></g></g></g><rect x="0.5" y="0.5" width="31" height="31" rx="4.5" stroke="#3D90E3" stroke-dasharray="10 5"/></g><defs><clipPath id="clip0_12_4721"><rect width="32" height="32" rx="5" fill="white"/></clipPath></defs></svg>