<svg xmlns="http://www.w3.org/2000/svg" fill="none" stroke="currentColor" aria-hidden="true" viewBox="0 0 32 32"><g id="Icon-HandWaving"><g clip-path="url(#clip0_11_738)"><g id="size=md (32px)"><g id="HandWaving"><path id="Vector" stroke-linecap="round" stroke-linejoin="round" stroke-width="2" d="M11.7501 7.67499C11.4512 7.10364 11.3847 6.4389 11.5643 5.81963C11.744 5.20036 12.156 4.67445 12.7142 4.35176C13.2725 4.02907 13.9338 3.93456 14.5601 4.08796C15.1864 4.24137 15.7292 4.63083 16.0751 5.17499L19.8251 11.6625"/><path id="Vector_2" stroke-linecap="round" stroke-linejoin="round" stroke-width="2" d="M8.42493 11.9L6.42493 8.4375C6.12605 7.86615 6.05948 7.20141 6.23914 6.58214C6.41879 5.96287 6.83078 5.43696 7.38903 5.11427C7.94728 4.79158 8.60863 4.69707 9.23492 4.85048C9.86121 5.00388 10.404 5.39334 10.7499 5.9375L14.9999 13.3"/><path id="Vector_3" stroke-linecap="round" stroke-linejoin="round" stroke-width="2" d="M19.2499 20.6625C18.9205 20.0948 18.7064 19.4677 18.6199 18.8171C18.5334 18.1665 18.5761 17.5052 18.7456 16.8712C18.9152 16.2371 19.2082 15.6428 19.6079 15.1222C20.0076 14.6016 20.5061 14.165 21.0749 13.8375L19.8249 11.6625C19.4934 11.0873 19.4039 10.404 19.5762 9.76285C19.7485 9.12171 20.1684 8.57527 20.7436 8.24375C21.3188 7.91223 22.0021 7.82278 22.6433 7.99508C23.2844 8.16738 23.8309 8.58731 24.1624 9.1625L26.6624 13.5C27.9885 15.7974 28.3476 18.5276 27.6607 21.0898C26.9739 23.652 25.2973 25.8364 22.9999 27.1625C20.7024 28.4886 17.9723 28.8477 15.4101 28.1608C12.8479 27.474 10.6635 25.7974 9.33737 23.5L4.08737 14.4C3.92322 14.1152 3.81677 13.8008 3.7741 13.4749C3.73144 13.149 3.75339 12.8178 3.8387 12.5003C4.011 11.8592 4.43093 11.3128 5.00612 10.9813C5.58131 10.6497 6.26464 10.5603 6.90578 10.7326C7.54692 10.9049 8.09335 11.3248 8.42487 11.9L11.1749 16.6625"/><path id="Vector_4" stroke-linecap="round" stroke-linejoin="round" stroke-width="2" d="M10.1375 30C8.43899 28.8285 7.02507 27.2907 6 25.5"/><path id="Vector_5" stroke-linecap="round" stroke-linejoin="round" stroke-width="2" d="M22 3.87502C23.141 3.87193 24.2626 4.17101 25.2506 4.74185C26.2386 5.31269 27.0578 6.13494 27.625 7.12502"/></g></g></g></g><defs><clipPath id="clip0_11_738"><rect width="32" height="32" fill="white" rx="5"/></clipPath></defs></svg>