<svg xmlns="http://www.w3.org/2000/svg" fill="none" stroke="currentColor" aria-hidden="true" viewBox="0 0 32 32"><g stroke="#101828" stroke-linecap="round" stroke-linejoin="round" stroke-width="2" clip-path="url(#a)"><path d="M6.475 15.238a2.252 2.252 0 0 0-3.9 2.25L7.2 25.5a9 9 0 0 0 15.588-9l-2.125-3.688a2.25 2.25 0 0 0-3.888 2.25"/><path d="m13.375 18.188-4.75-8.226a2.251 2.251 0 0 0-3.9 2.25l4.75 8.226m9.3-1.9-5.25-9.1a2.251 2.251 0 0 0-3.9 2.25"/><path d="m12.375 8.463-1.287-2.238a2.251 2.251 0 0 0-3.9 2.25l.3.513M23.5 23.938a9.013 9.013 0 0 0 1.762-11.175l-2.125-3.676a2.252 2.252 0 0 0-3.9 2.25"/><path d="m19.525 11.838-3.538-6.125a2.251 2.251 0 0 0-3.9 2.25M22.1 1.412l-.513 1.925m4.3-.162-1.15 1.637m4.088 1.3-1.637 1.15"/></g><defs><clipPath id="a"><rect width="32" height="32" fill="#fff" rx="5"/></clipPath></defs></svg>