<svg xmlns="http://www.w3.org/2000/svg" fill="none" stroke="currentColor" aria-hidden="true" viewBox="0 0 32 32"><g id="Icon-SmileyXEyes"><g clip-path="url(#clip0_11_424)"><g id="size=md (32px)"><g id="SmileyXEyes"><path id="Vector" stroke-miterlimit="10" stroke-width="2" d="M16 28C22.6274 28 28 22.6274 28 16C28 9.37258 22.6274 4 16 4C9.37258 4 4 9.37258 4 16C4 22.6274 9.37258 28 16 28Z"/><path id="Vector_2" stroke-linecap="round" stroke-linejoin="round" stroke-width="2" d="M23 12L19 16"/><path id="Vector_3" stroke-linecap="round" stroke-linejoin="round" stroke-width="2" d="M23 16L19 12"/><path id="Vector_4" stroke-linecap="round" stroke-linejoin="round" stroke-width="2" d="M13 12L9 16"/><path id="Vector_5" stroke-linecap="round" stroke-linejoin="round" stroke-width="2" d="M13 16L9 12"/><path id="Vector_6" fill="#101828" d="M16 24C16.8284 24 17.5 23.3284 17.5 22.5C17.5 21.6716 16.8284 21 16 21C15.1716 21 14.5 21.6716 14.5 22.5C14.5 23.3284 15.1716 24 16 24Z"/></g></g></g></g><defs><clipPath id="clip0_11_424"><rect width="32" height="32" fill="white" rx="5"/></clipPath></defs></svg>