<svg xmlns="http://www.w3.org/2000/svg" fill="none" stroke="currentColor" aria-hidden="true" viewBox="0 0 32 32"><g id="Icon-Smiley"><g clip-path="url(#clip0_11_587)"><g id="size=md (32px)"><g id="Smiley"><path id="Vector" stroke-linecap="round" stroke-linejoin="round" stroke-width="2" d="M16 28C22.6274 28 28 22.6274 28 16C28 9.37258 22.6274 4 16 4C9.37258 4 4 9.37258 4 16C4 22.6274 9.37258 28 16 28Z"/><path id="Vector_2" fill="#101828" d="M11.5 15C12.3284 15 13 14.3284 13 13.5C13 12.6716 12.3284 12 11.5 12C10.6716 12 10 12.6716 10 13.5C10 14.3284 10.6716 15 11.5 15Z"/><path id="Vector_3" fill="#101828" d="M20.5 15C21.3284 15 22 14.3284 22 13.5C22 12.6716 21.3284 12 20.5 12C19.6716 12 19 12.6716 19 13.5C19 14.3284 19.6716 15 20.5 15Z"/><path id="Vector_4" stroke-linecap="round" stroke-linejoin="round" stroke-width="2" d="M21.1998 19C20.6712 19.9107 19.9126 20.6667 19 21.1922C18.0874 21.7176 17.0529 21.9942 15.9998 21.9942C14.9468 21.9942 13.9122 21.7176 12.9996 21.1922C12.087 20.6667 11.3284 19.9107 10.7998 19"/></g></g></g></g><defs><clipPath id="clip0_11_587"><rect width="32" height="32" fill="white" rx="5"/></clipPath></defs></svg>