<svg xmlns="http://www.w3.org/2000/svg" fill="none" stroke="currentColor" aria-hidden="true" viewBox="0 0 32 32"><g id="Icon-UserFocus"><g clip-path="url(#clip0_11_274)"><g id="size=md (32px)"><g id="UserFocus"><path id="Vector" stroke-linecap="round" stroke-linejoin="round" stroke-width="2" d="M22.5 5H26C26.2652 5 26.5196 5.10536 26.7071 5.29289C26.8946 5.48043 27 5.73478 27 6V9.5"/><path id="Vector_2" stroke-linecap="round" stroke-linejoin="round" stroke-width="2" d="M22.5 27H26C26.2652 27 26.5196 26.8946 26.7071 26.7071C26.8946 26.5196 27 26.2652 27 26V22.5"/><path id="Vector_3" stroke-linecap="round" stroke-linejoin="round" stroke-width="2" d="M9.5 27H6C5.73478 27 5.48043 26.8946 5.29289 26.7071C5.10536 26.5196 5 26.2652 5 26V22.5"/><path id="Vector_4" stroke-linecap="round" stroke-linejoin="round" stroke-width="2" d="M9.5 5H6C5.73478 5 5.48043 5.10536 5.29289 5.29289C5.10536 5.48043 5 5.73478 5 6V9.5"/><path id="Vector_5" stroke-linecap="round" stroke-linejoin="round" stroke-width="2" d="M16 18C18.2091 18 20 16.2091 20 14C20 11.7909 18.2091 10 16 10C13.7909 10 12 11.7909 12 14C12 16.2091 13.7909 18 16 18Z"/><path id="Vector_6" stroke-linecap="round" stroke-linejoin="round" stroke-width="2" d="M9.3623 22C10.0015 20.7942 10.9572 19.7853 12.1266 19.0816C13.296 18.378 14.635 18.0062 15.9998 18.0062C17.3646 18.0062 18.7036 18.378 19.873 19.0816C21.0424 19.7853 21.9981 20.7942 22.6373 22"/></g></g></g></g><defs><clipPath id="clip0_11_274"><rect width="32" height="32" fill="white" rx="5"/></clipPath></defs></svg>