<svg xmlns="http://www.w3.org/2000/svg" fill="none" stroke="currentColor" aria-hidden="true" viewBox="0 0 32 32"><g id="Icon-UserList"><g clip-path="url(#clip0_11_212)"><g id="size=md (32px)"><g id="UserList"><path id="Vector" stroke-linecap="round" stroke-linejoin="round" stroke-width="2" d="M10 18C12.7614 18 15 15.7614 15 13C15 10.2386 12.7614 8 10 8C7.23858 8 5 10.2386 5 13C5 15.7614 7.23858 18 10 18Z"/><path id="Vector_2" stroke-linecap="round" stroke-linejoin="round" stroke-width="2" d="M19 10H31"/><path id="Vector_3" stroke-linecap="round" stroke-linejoin="round" stroke-width="2" d="M19 16H31"/><path id="Vector_4" stroke-linecap="round" stroke-linejoin="round" stroke-width="2" d="M22 22H31"/><path id="Vector_5" stroke-linecap="round" stroke-linejoin="round" stroke-width="2" d="M2.25 24C2.6906 22.2792 3.6914 20.7539 5.09462 19.6647C6.49784 18.5755 8.22366 17.9843 10 17.9843C11.7763 17.9843 13.5022 18.5755 14.9054 19.6647C16.3086 20.7539 17.3094 22.2792 17.75 24"/></g></g></g></g><defs><clipPath id="clip0_11_212"><rect width="32" height="32" fill="white" rx="5"/></clipPath></defs></svg>