<svg xmlns="http://www.w3.org/2000/svg" fill="none" stroke="currentColor" aria-hidden="true" viewBox="0 0 32 32"><g id="Icon-UserSquare"><g clip-path="url(#clip0_11_77)"><g id="size=md (32px)"><g id="UserSquare"><path id="Vector" stroke-linecap="round" stroke-linejoin="round" stroke-width="2" d="M16 20C18.7614 20 21 17.7614 21 15C21 12.2386 18.7614 10 16 10C13.2386 10 11 12.2386 11 15C11 17.7614 13.2386 20 16 20Z"/><path id="Vector_2" stroke-linecap="round" stroke-linejoin="round" stroke-width="2" d="M26 5H6C5.44772 5 5 5.44772 5 6V26C5 26.5523 5.44772 27 6 27H26C26.5523 27 27 26.5523 27 26V6C27 5.44772 26.5523 5 26 5Z"/><path id="Vector_3" stroke-linecap="round" stroke-linejoin="round" stroke-width="2" d="M7.22461 27C7.67777 25.0116 8.79281 23.2361 10.3871 21.9643C11.9813 20.6925 13.9602 19.9998 15.9996 19.9998C18.039 19.9998 20.0179 20.6925 21.6122 21.9643C23.2064 23.2361 24.3214 25.0116 24.7746 27"/></g></g></g></g><defs><clipPath id="clip0_11_77"><rect width="32" height="32" fill="white" rx="5"/></clipPath></defs></svg>