<svg xmlns="http://www.w3.org/2000/svg" fill="none" stroke="currentColor" aria-hidden="true" viewBox="0 0 32 32"><g stroke="#101828" stroke-width="2" clip-path="url(#a)"><path stroke-miterlimit="10" d="M16 20a5 5 0 1 0 0-10 5 5 0 0 0 0 10Z"/><path stroke-linecap="round" stroke-linejoin="round" d="M7.975 24.925a9 9 0 0 1 16.05 0M25 9a2 2 0 1 0 0-4 2 2 0 0 0 0 4Zm0-4V3.5M23.262 6l-1.287-.75M23.262 8l-1.287.75M25 9v1.5M26.737 8l1.288.75M26.737 6l1.288-.75"/><path stroke-linecap="round" stroke-linejoin="round" d="M27.913 14.563a12 12 0 1 1-10.8-10.513"/></g><defs><clipPath id="a"><rect width="32" height="32" fill="#fff" rx="5"/></clipPath></defs></svg>