<svg xmlns="http://www.w3.org/2000/svg" fill="none" stroke="currentColor" aria-hidden="true" viewBox="0 0 32 32"><g stroke="#101828" stroke-linecap="round" stroke-linejoin="round" stroke-width="2" clip-path="url(#a)"><path d="M22.5 5H26a1 1 0 0 1 1 1v3.5M22.5 27H26a1 1 0 0 0 1-1v-3.5M9.5 27H6a1 1 0 0 1-1-1v-3.5M9.5 5H6a1 1 0 0 0-1 1v3.5M16 18a4 4 0 1 0 0-8 4 4 0 0 0 0 8Z"/><path d="M9.362 22a7.513 7.513 0 0 1 13.275 0"/></g><defs><clipPath id="a"><rect width="32" height="32" fill="#fff" rx="5"/></clipPath></defs></svg>