<svg xmlns="http://www.w3.org/2000/svg" fill="none" stroke="currentColor" aria-hidden="true" viewBox="0 0 32 32"><g stroke="#101828" stroke-linecap="round" stroke-linejoin="round" stroke-width="2" clip-path="url(#a)"><path d="M10 25a4 4 0 1 0 0-8 4 4 0 0 0 0 8Z"/><path d="M4 28a7.5 7.5 0 0 1 12 0m-6-16a4 4 0 1 0 0-8 4 4 0 0 0 0 8Z"/><path d="M4 15a7.5 7.5 0 0 1 12 0m6 10a4 4 0 1 0 0-8 4 4 0 0 0 0 8Z"/><path d="M16 28a7.5 7.5 0 0 1 12 0m-6-16a4 4 0 1 0 0-8 4 4 0 0 0 0 8Z"/><path d="M16 15a7.5 7.5 0 0 1 12 0"/></g><defs><clipPath id="a"><rect width="32" height="32" fill="#fff" rx="5"/></clipPath></defs></svg>