<svg xmlns="http://www.w3.org/2000/svg" fill="none" stroke="currentColor" aria-hidden="true" viewBox="0 0 32 32"><g stroke="#101828" stroke-width="2" clip-path="url(#a)"><path stroke-miterlimit="10" d="M13.5 20a7.5 7.5 0 1 0 0-15 7.5 7.5 0 0 0 0 15Z"/><path stroke-linecap="round" stroke-linejoin="round" d="M2.775 25a14 14 0 0 1 21.45 0m3.275-6a2 2 0 1 0 0-4 2 2 0 0 0 0 4Zm0-4v-1.5M25.762 16l-1.287-.75M25.762 18l-1.287.75M27.5 19v1.5m1.737-2.5 1.288.75M29.237 16l1.288-.75"/></g><defs><clipPath id="a"><rect width="32" height="32" fill="#fff" rx="5"/></clipPath></defs></svg>