<svg xmlns="http://www.w3.org/2000/svg" fill="none" stroke="currentColor" aria-hidden="true" viewBox="0 0 32 32"><g stroke="#101828" stroke-linecap="round" stroke-linejoin="round" stroke-width="2" clip-path="url(#a)"><path d="M16 22.5a5 5 0 1 0 0-10 5 5 0 0 0 0 10Zm8.5-8a7.475 7.475 0 0 1 6 3m-29 0a7.474 7.474 0 0 1 6-3"/><path d="M8.8 27a8.012 8.012 0 0 1 14.4 0M7.5 14.5a4 4 0 1 1 3.925-4.75m9.15 0A4 4 0 1 1 24.5 14.5"/></g><defs><clipPath id="a"><rect width="32" height="32" fill="#fff" rx="5"/></clipPath></defs></svg>