<svg xmlns="http://www.w3.org/2000/svg" fill="none" stroke="currentColor" aria-hidden="true" viewBox="0 0 32 32"><g id="Icon-ArticleMedium"><g clip-path="url(#clip0_12_3978)"><g id="size=md (32px)"><path id="Vector" stroke-linecap="round" stroke-linejoin="round" stroke-width="2" d="M3.0127 7H5.0127"/><path id="Vector_2" stroke-linecap="round" stroke-linejoin="round" stroke-width="2" d="M15.0127 7H17.0127"/><path id="Vector_3" stroke-linecap="round" stroke-linejoin="round" stroke-width="2" d="M3.0127 17H6.0127"/><path id="Vector_4" stroke-linecap="round" stroke-linejoin="round" stroke-width="2" d="M14.0127 17H17.0127"/><path id="Vector_5" stroke-linecap="round" stroke-linejoin="round" stroke-width="2" d="M21 13H30"/><path id="Vector_6" stroke-linecap="round" stroke-linejoin="round" stroke-width="2" d="M21.0127 17H30.0127"/><path id="Vector_7" stroke-linecap="round" stroke-linejoin="round" stroke-width="2" d="M9 21H30"/><path id="Vector_8" stroke-linecap="round" stroke-linejoin="round" stroke-width="2" d="M9 25H30"/><path id="Vector_9" stroke-linecap="round" stroke-linejoin="round" stroke-width="2" d="M5.0127 17V7L10.0127 15L15.0127 7V17"/><path id="Vector_10" stroke-linecap="round" stroke-linejoin="round" stroke-width="2" d="M3 7H5"/><path id="Vector_11" stroke-linecap="round" stroke-linejoin="round" stroke-width="2" d="M15 7H17"/><path id="Vector_12" stroke-linecap="round" stroke-linejoin="round" stroke-width="2" d="M3 17H6"/><path id="Vector_13" stroke-linecap="round" stroke-linejoin="round" stroke-width="2" d="M14 17H17"/><path id="Vector_14" stroke-linecap="round" stroke-linejoin="round" stroke-width="2" d="M21 13H30"/><path id="Vector_15" stroke-linecap="round" stroke-linejoin="round" stroke-width="2" d="M21 17H30"/><path id="Vector_16" stroke-linecap="round" stroke-linejoin="round" stroke-width="2" d="M9 21H30"/><path id="Vector_17" stroke-linecap="round" stroke-linejoin="round" stroke-width="2" d="M9 25H30"/><path id="Vector_18" stroke-linecap="round" stroke-linejoin="round" stroke-width="2" d="M5 17V7L10 15L15 7V17"/></g></g></g><defs><clipPath id="clip0_12_3978"><rect width="32" height="32" fill="white" rx="5"/></clipPath></defs></svg>