<svg xmlns="http://www.w3.org/2000/svg" fill="none" stroke="currentColor" aria-hidden="true" viewBox="0 0 32 32"><g id="Icon-Copyright"><g clip-path="url(#clip0_12_3854)"><g id="size=md (32px)"><path id="Vector" stroke-linecap="round" stroke-linejoin="round" stroke-width="2" d="M16 28C22.6274 28 28 22.6274 28 16C28 9.37258 22.6274 4 16 4C9.37258 4 4 9.37258 4 16C4 22.6274 9.37258 28 16 28Z"/><path id="Vector_2" stroke-linecap="round" stroke-linejoin="round" stroke-width="2" d="M20 19C19.3704 19.8395 18.4925 20.4597 17.4908 20.7726C16.4892 21.0855 15.4144 21.0753 14.4189 20.7434C13.4233 20.4116 12.5574 19.7749 11.9438 18.9236C11.3302 18.0722 11 17.0494 11 16C11 14.9506 11.3302 13.9278 11.9438 13.0764C12.5574 12.2251 13.4233 11.5884 14.4189 11.2566C15.4144 10.9247 16.4892 10.9145 17.4908 11.2274C18.4925 11.5403 19.3704 12.1605 20 13"/></g></g></g><defs><clipPath id="clip0_12_3854"><rect width="32" height="32" fill="white" rx="5"/></clipPath></defs></svg>