<svg xmlns="http://www.w3.org/2000/svg" fill="none" stroke="currentColor" aria-hidden="true" viewBox="0 0 32 32"><g stroke="#101828" stroke-linecap="round" stroke-linejoin="round" stroke-width="2" clip-path="url(#a)"><path d="M15.263 4.8 5.55 15.325A1 1 0 0 0 6.288 17h19.425a1 1 0 0 0 .737-1.675L16.738 4.8a.988.988 0 0 0-1.475 0v0ZM5 22v3a1 1 0 0 0 1 1h20a1 1 0 0 0 1-1v-3a1 1 0 0 0-1-1H6a1 1 0 0 0-1 1Z"/></g><defs><clipPath id="a"><rect width="32" height="32" fill="#fff" rx="5"/></clipPath></defs></svg>