<svg xmlns="http://www.w3.org/2000/svg" fill="none" stroke="currentColor" aria-hidden="true" viewBox="0 0 32 32"><g stroke="#101828" stroke-linecap="round" stroke-linejoin="round" stroke-width="2" clip-path="url(#a)"><path d="m30.188 15.163-11.15-7.175a1 1 0 0 0-1.538.85v14.325a1 1 0 0 0 1.538.85l11.15-7.175a.988.988 0 0 0 0-1.675v0Zm-14 0L5.037 7.988a1 1 0 0 0-1.538.85v14.325a1 1 0 0 0 1.538.85l11.15-7.175a.988.988 0 0 0 0-1.675v0Z"/></g><defs><clipPath id="a"><rect width="32" height="32" fill="#fff" rx="5"/></clipPath></defs></svg>