<svg xmlns="http://www.w3.org/2000/svg" fill="none" stroke="currentColor" aria-hidden="true" viewBox="0 0 32 32"><g id="Icon-FastForward"><g clip-path="url(#clip0_12_3618)"><g id="size=md (32px)"><path id="Vector" stroke-linecap="round" stroke-linejoin="round" stroke-width="2" d="M30.1875 15.1626L19.0375 7.98756C18.8859 7.8909 18.711 7.83691 18.5312 7.8313C18.3515 7.82568 18.1736 7.86864 18.0162 7.95565C17.8588 8.04266 17.7278 8.1705 17.6369 8.3257C17.5461 8.48091 17.4988 8.65773 17.5 8.83756V23.1626C17.4988 23.3424 17.5461 23.5192 17.6369 23.6744C17.7278 23.8296 17.8588 23.9575 18.0162 24.0445C18.1736 24.1315 18.3515 24.1744 18.5312 24.1688C18.711 24.1632 18.8859 24.1092 19.0375 24.0126L30.1875 16.8376C30.3296 16.7488 30.4468 16.6254 30.528 16.4789C30.6092 16.3323 30.6518 16.1676 30.6518 16.0001C30.6518 15.8325 30.6092 15.6678 30.528 15.5213C30.4468 15.3748 30.3296 15.2513 30.1875 15.1626V15.1626Z"/><path id="Vector_2" stroke-linecap="round" stroke-linejoin="round" stroke-width="2" d="M16.1875 15.1626L5.03752 7.98756C4.88588 7.8909 4.71098 7.83691 4.53123 7.8313C4.35149 7.82568 4.17355 7.86864 4.01617 7.95565C3.85879 8.04266 3.72778 8.1705 3.63695 8.3257C3.54611 8.48091 3.49881 8.65773 3.50002 8.83756V23.1626C3.49881 23.3424 3.54611 23.5192 3.63695 23.6744C3.72778 23.8296 3.85879 23.9575 4.01617 24.0445C4.17355 24.1315 4.35149 24.1744 4.53123 24.1688C4.71098 24.1632 4.88588 24.1092 5.03752 24.0126L16.1875 16.8376C16.3296 16.7488 16.4468 16.6254 16.528 16.4789C16.6092 16.3323 16.6518 16.1676 16.6518 16.0001C16.6518 15.8325 16.6092 15.6678 16.528 15.5213C16.4468 15.3748 16.3296 15.2513 16.1875 15.1626V15.1626Z"/></g></g></g><defs><clipPath id="clip0_12_3618"><rect width="32" height="32" fill="white" rx="5"/></clipPath></defs></svg>