<svg xmlns="http://www.w3.org/2000/svg" fill="none" stroke="currentColor" aria-hidden="true" viewBox="0 0 32 32"><g clip-path="url(#a)"><path stroke-linecap="round" stroke-linejoin="round" stroke-width="2" d="M26 5H6a1 1 0 0 0-1 1v20a1 1 0 0 0 1 1h20a1 1 0 0 0 1-1V6a1 1 0 0 0-1-1Z"/><path stroke-linecap="round" stroke-linejoin="round" stroke-width="2" d="m27 20-5.288-5.288a1 1 0 0 0-1.424 0l-5.575 5.575a1 1 0 0 1-1.425 0l-2.575-2.575a1 1 0 0 0-1.425 0L5 22"/><path fill="#101828" d="M12.5 13a1.5 1.5 0 1 0 0-3 1.5 1.5 0 0 0 0 3Z"/></g><defs><clipPath id="a"><rect width="32" height="32" fill="#fff" rx="5"/></clipPath></defs></svg>