<svg xmlns="http://www.w3.org/2000/svg" fill="none" stroke="currentColor" aria-hidden="true" viewBox="0 0 32 32"><g id="Icon-Microphone"><g clip-path="url(#clip0_12_3427)"><g id="size=md (32px)"><path id="Vector" stroke-linecap="round" stroke-linejoin="round" stroke-width="2" d="M21 8C21 5.23858 18.7614 3 16 3C13.2386 3 11 5.23858 11 8V16C11 18.7614 13.2386 21 16 21C18.7614 21 21 18.7614 21 16V8Z"/><path id="Vector_2" stroke-linecap="round" stroke-linejoin="round" stroke-width="2" d="M16 25V29"/><path id="Vector_3" stroke-linecap="round" stroke-linejoin="round" stroke-width="2" d="M24.9498 17C24.6904 19.1915 23.6359 21.2116 21.9863 22.6774C20.3367 24.1433 18.2066 24.9529 15.9998 24.9529C13.793 24.9529 11.6629 24.1433 10.0133 22.6774C8.36371 21.2116 7.30925 19.1915 7.0498 17"/></g></g></g><defs><clipPath id="clip0_12_3427"><rect width="32" height="32" fill="white" rx="5"/></clipPath></defs></svg>