<svg xmlns="http://www.w3.org/2000/svg" fill="none" stroke="currentColor" aria-hidden="true" viewBox="0 0 32 32"><g id="Icon-MusicNotesPlus"><g clip-path="url(#clip0_12_3310)"><g id="size=md (32px)"><path id="Vector" stroke-linecap="round" stroke-linejoin="round" stroke-width="2" d="M25 4V10"/><path id="Vector_2" stroke-linecap="round" stroke-linejoin="round" stroke-width="2" d="M28 7H22"/><path id="Vector_3" stroke-linecap="round" stroke-linejoin="round" stroke-width="2" d="M22.5 25C24.433 25 26 23.433 26 21.5C26 19.567 24.433 18 22.5 18C20.567 18 19 19.567 19 21.5C19 23.433 20.567 25 22.5 25Z"/><path id="Vector_4" stroke-linecap="round" stroke-linejoin="round" stroke-width="2" d="M6.5 29C8.433 29 10 27.433 10 25.5C10 23.567 8.433 22 6.5 22C4.567 22 3 23.567 3 25.5C3 27.433 4.567 29 6.5 29Z"/><path id="Vector_5" stroke-linecap="round" stroke-linejoin="round" stroke-width="2" d="M26 14.8999V21.4999"/><path id="Vector_6" stroke-linecap="round" stroke-linejoin="round" stroke-width="2" d="M10 25.5V8.00005L17.0625 6.23755"/><path id="Vector_7" stroke-linecap="round" stroke-linejoin="round" stroke-width="2" d="M19.8875 11.5249L10 13.9999"/></g></g></g><defs><clipPath id="clip0_12_3310"><rect width="32" height="32" fill="white" rx="5"/></clipPath></defs></svg>