<svg xmlns="http://www.w3.org/2000/svg" fill="none" stroke="currentColor" aria-hidden="true" viewBox="0 0 32 32"><g stroke="#101828" stroke-linecap="round" stroke-linejoin="round" stroke-width="2" clip-path="url(#a)"><path d="M16 13.5V27m0-22v3.5m0 5a2.5 2.5 0 1 0 0-5 2.5 2.5 0 0 0 0 5Zm9 10V27m0-22v13.5m0 5a2.5 2.5 0 1 0 0-5 2.5 2.5 0 0 0 0 5Zm-18-4V27M7 5v9.5m0 5a2.5 2.5 0 1 0 0-5 2.5 2.5 0 0 0 0 5Z"/></g><defs><clipPath id="a"><rect width="32" height="32" fill="#fff" rx="5"/></clipPath></defs></svg>