<svg xmlns="http://www.w3.org/2000/svg" fill="none" stroke="currentColor" aria-hidden="true" viewBox="0 0 32 32"><g id="Icon-SlidersHorizontal"><g clip-path="url(#clip0_12_2856)"><g id="size=md (32px)"><path id="Vector" stroke-linecap="round" stroke-linejoin="round" stroke-width="2" d="M18.5 21.5H5"/><path id="Vector_2" stroke-linecap="round" stroke-linejoin="round" stroke-width="2" d="M27 21.5H23.5"/><path id="Vector_3" stroke-linecap="round" stroke-linejoin="round" stroke-width="2" d="M21 24C22.3807 24 23.5 22.8807 23.5 21.5C23.5 20.1193 22.3807 19 21 19C19.6193 19 18.5 20.1193 18.5 21.5C18.5 22.8807 19.6193 24 21 24Z"/><path id="Vector_4" stroke-linecap="round" stroke-linejoin="round" stroke-width="2" d="M10.5 10.5H5"/><path id="Vector_5" stroke-linecap="round" stroke-linejoin="round" stroke-width="2" d="M27 10.5H15.5"/><path id="Vector_6" stroke-linecap="round" stroke-linejoin="round" stroke-width="2" d="M13 13C14.3807 13 15.5 11.8807 15.5 10.5C15.5 9.11929 14.3807 8 13 8C11.6193 8 10.5 9.11929 10.5 10.5C10.5 11.8807 11.6193 13 13 13Z"/></g></g></g><defs><clipPath id="clip0_12_2856"><rect width="32" height="32" fill="white" rx="5"/></clipPath></defs></svg>