<svg xmlns="http://www.w3.org/2000/svg" fill="none" stroke="currentColor" aria-hidden="true" viewBox="0 0 32 32"><g id="Icon-SpeakerHigh"><g clip-path="url(#clip0_12_2837)"><g id="size=md (32px)"><path id="Vector" stroke-linecap="round" stroke-linejoin="round" stroke-width="2" d="M27.3623 9.63745C28.1991 10.4723 28.863 11.464 29.3159 12.5558C29.7689 13.6475 30.0021 14.8179 30.0021 16C30.0021 17.182 29.7689 18.3524 29.3159 19.4441C28.863 20.5359 28.1991 21.5276 27.3623 22.3625"/><path id="Vector_2" stroke-linecap="round" stroke-linejoin="round" stroke-width="2" d="M10 21H4C3.73478 21 3.48043 20.8946 3.29289 20.7071C3.10536 20.5196 3 20.2652 3 20V12C3 11.7348 3.10536 11.4804 3.29289 11.2929C3.48043 11.1054 3.73478 11 4 11H10L19 4V28L10 21Z"/><path id="Vector_3" stroke-linecap="round" stroke-linejoin="round" stroke-width="2" d="M10 11V21"/><path id="Vector_4" stroke-linecap="round" stroke-linejoin="round" stroke-width="2" d="M23.8252 13.175C24.1971 13.5455 24.4922 13.9858 24.6935 14.4706C24.8949 14.9553 24.9985 15.4751 24.9985 16C24.9985 16.525 24.8949 17.0448 24.6935 17.5295C24.4922 18.0143 24.1971 18.4546 23.8252 18.825"/></g></g></g><defs><clipPath id="clip0_12_2837"><rect width="32" height="32" fill="white" rx="5"/></clipPath></defs></svg>