<svg xmlns="http://www.w3.org/2000/svg" fill="none" stroke="currentColor" aria-hidden="true" viewBox="0 0 32 32"><g clip-path="url(#a)"><path stroke-linecap="round" stroke-linejoin="round" stroke-width="2" d="M27 9H5a1 1 0 0 0-1 1v15a1 1 0 0 0 1 1h22a1 1 0 0 0 1-1V10a1 1 0 0 0-1-1ZM10 3l6 6 6-6"/><path fill="#101828" d="M23.5 16a1.5 1.5 0 1 0 0-3 1.5 1.5 0 0 0 0 3Zm0 6a1.5 1.5 0 1 0 0-3 1.5 1.5 0 0 0 0 3Z"/><path stroke-linecap="round" stroke-linejoin="round" stroke-width="2" d="M19 26V9"/></g><defs><clipPath id="a"><rect width="32" height="32" fill="#fff" rx="5"/></clipPath></defs></svg>