<svg xmlns="http://www.w3.org/2000/svg" fill="none" stroke="currentColor" aria-hidden="true" viewBox="0 0 32 32"><g id="Icon-Webcam"><g clip-path="url(#clip0_12_2718)"><g id="size=md (32px)"><path id="Vector" stroke-linecap="round" stroke-linejoin="round" stroke-width="2" d="M16 22C20.9706 22 25 17.9706 25 13C25 8.02944 20.9706 4 16 4C11.0294 4 7 8.02944 7 13C7 17.9706 11.0294 22 16 22Z"/><path id="Vector_2" stroke-linecap="round" stroke-linejoin="round" stroke-width="2" d="M16 17C18.2091 17 20 15.2091 20 13C20 10.7909 18.2091 9 16 9C13.7909 9 12 10.7909 12 13C12 15.2091 13.7909 17 16 17Z"/><path id="Vector_3" stroke-linecap="round" stroke-linejoin="round" stroke-width="2" d="M16 22V26"/><path id="Vector_4" stroke-linecap="round" stroke-linejoin="round" stroke-width="2" d="M4 26H28"/></g></g></g><defs><clipPath id="clip0_12_2718"><rect width="32" height="32" fill="white" rx="5"/></clipPath></defs></svg>