<svg width="32" height="32" viewBox="0 0 32 32" fill="none" xmlns="http://www.w3.org/2000/svg"><g id="Icon-Syringe"><g clip-path="url(#clip0_12_4165)"><g id="size=md (32px)"><g id="Syringe"><path id="Vector" d="M23 3L29 9" stroke="#101828" stroke-width="2" stroke-linecap="round" stroke-linejoin="round"/><path id="Vector_2" d="M16 6L26 16" stroke="#101828" stroke-width="2" stroke-linecap="round" stroke-linejoin="round"/><path id="Vector_3" d="M17.5 7.5L6.28751 18.7125C6.19591 18.8045 6.12338 18.9138 6.07404 19.0339C6.02471 19.154 5.99955 19.2826 6.00001 19.4125V26H12.5875C12.7174 26.0005 12.846 25.9753 12.9661 25.926C13.0863 25.8766 13.1955 25.8041 13.2875 25.7125L24.5 14.5" stroke="#101828" stroke-width="2" stroke-linecap="round" stroke-linejoin="round"/><path id="Vector_4" d="M12.75 12.25L16 15.5" stroke="#101828" stroke-width="2" stroke-linecap="round" stroke-linejoin="round"/><path id="Vector_5" d="M9.25 15.75L12.5 19" stroke="#101828" stroke-width="2" stroke-linecap="round" stroke-linejoin="round"/><path id="Vector_6" d="M21 11L26 6" stroke="#101828" stroke-width="2" stroke-linecap="round" stroke-linejoin="round"/><path id="Vector_7" d="M6 26L3 29" stroke="#101828" stroke-width="2" stroke-linecap="round" stroke-linejoin="round"/></g></g></g><rect x="0.5" y="0.5" width="31" height="31" rx="4.5" stroke="#3D90E3" stroke-dasharray="10 5"/></g><defs><clipPath id="clip0_12_4165"><rect width="32" height="32" rx="5" fill="white"/></clipPath></defs></svg>