<svg width="32" height="32" viewBox="0 0 32 32" fill="none" xmlns="http://www.w3.org/2000/svg"><g id="Icon-HandPointing"><g clip-path="url(#clip0_11_828)"><g id="size=md (32px)"><g id="HandPointing"><path id="Vector" d="M21.0003 14V12.5C21.0003 11.837 20.7369 11.2011 20.268 10.7322C19.7992 10.2634 19.1633 10 18.5003 10C17.8372 10 17.2013 10.2634 16.7325 10.7322C16.2637 11.2011 16.0003 11.837 16.0003 12.5V4.5C16.0003 3.83696 15.7369 3.20107 15.268 2.73223C14.7992 2.26339 14.1633 2 13.5003 2C12.8372 2 12.2013 2.26339 11.7325 2.73223C11.2637 3.20107 11.0003 3.83696 11.0003 4.5V19.6625L8.26277 14.9125C7.93125 14.3373 7.38481 13.9174 6.74367 13.7451C6.10253 13.5728 5.41921 13.6622 4.84402 13.9937C4.26883 14.3253 3.8489 14.8717 3.6766 15.5128C3.5043 16.154 3.59375 16.8373 3.92527 17.4125C8.00027 26 10.4753 29 16.0003 29C17.3135 29 18.6138 28.7413 19.8271 28.2388C21.0404 27.7362 22.1428 26.9997 23.0713 26.0711C23.9999 25.1425 24.7365 24.0401 25.2391 22.8268C25.7416 21.6136 26.0003 20.3132 26.0003 19V14C26.0003 13.337 25.7369 12.7011 25.268 12.2322C24.7992 11.7634 24.1633 11.5 23.5003 11.5C22.8372 11.5 22.2013 11.7634 21.7325 12.2322C21.2637 12.7011 21.0003 13.337 21.0003 14V14Z" stroke="#101828" stroke-width="2" stroke-linecap="round" stroke-linejoin="round"/></g></g></g></g><defs><clipPath id="clip0_11_828"><rect width="32" height="32" rx="5" fill="white"/></clipPath></defs></svg>