<svg width="32" height="32" viewBox="0 0 32 32" fill="none" xmlns="http://www.w3.org/2000/svg"><g id="Icon-HandsClapping"><g clip-path="url(#clip0_11_791)"><g id="size=md (32px)"><g id="HandsClapping"><path id="Vector" d="M6.47518 15.2375C6.32744 14.9814 6.13071 14.757 5.89622 14.5769C5.66173 14.3969 5.39408 14.2648 5.10854 14.1882C4.823 14.1116 4.52517 14.0919 4.23204 14.1304C3.93892 14.1689 3.65625 14.2648 3.40018 14.4125C3.1441 14.5603 2.91963 14.757 2.73958 14.9915C2.55953 15.226 2.42743 15.4936 2.35082 15.7792C2.27421 16.0647 2.2546 16.3625 2.29309 16.6557C2.33159 16.9488 2.42744 17.2314 2.57518 17.4875L7.20018 25.5C8.40588 27.5427 10.3692 29.0268 12.6633 29.6297C14.9574 30.2325 17.3968 29.9054 19.4509 28.7193C21.5051 27.5333 23.008 25.5843 23.6329 23.2961C24.2577 21.0078 23.954 18.5655 22.7877 16.5L20.6627 12.8125C20.346 12.3349 19.859 11.9961 19.3011 11.8653C18.7432 11.7345 18.1563 11.8215 17.6604 12.1086C17.1644 12.3956 16.7966 12.8611 16.6321 13.4101C16.4676 13.959 16.5188 14.55 16.7752 15.0625" stroke="#101828" stroke-width="2" stroke-linecap="round" stroke-linejoin="round"/><path id="Vector_2" d="M13.3751 18.1875L8.62508 9.96249C8.47734 9.70641 8.28061 9.48194 8.04612 9.30189C7.81164 9.12185 7.54398 8.98975 7.25844 8.91314C6.9729 8.83653 6.67507 8.81691 6.38195 8.85541C6.08882 8.8939 5.80616 8.98975 5.55008 9.13749C5.294 9.28523 5.06953 9.48196 4.88948 9.71645C4.70943 9.95093 4.57733 10.2186 4.50072 10.5041C4.42412 10.7897 4.4045 11.0875 4.44299 11.3806C4.48149 11.6737 4.57734 11.9564 4.72508 12.2125L9.47508 20.4375" stroke="#101828" stroke-width="2" stroke-linecap="round" stroke-linejoin="round"/><path id="Vector_3" d="M18.775 18.5375L13.525 9.43747C13.2266 8.9203 12.735 8.54284 12.1583 8.38812C11.5817 8.2334 10.9672 8.31411 10.45 8.61247C9.93281 8.91084 9.55535 9.40244 9.40063 9.97911C9.24591 10.5558 9.32662 11.1703 9.62499 11.6875" stroke="#101828" stroke-width="2" stroke-linecap="round" stroke-linejoin="round"/><path id="Vector_4" d="M12.375 8.46251L11.0875 6.22501C10.7891 5.70784 10.2975 5.33037 9.72085 5.17566C9.14417 5.02094 8.52966 5.10164 8.01249 5.40001C7.49531 5.69838 7.11785 6.18997 6.96313 6.76665C6.80841 7.34332 6.88912 7.95784 7.18749 8.47501L7.48749 8.98751" stroke="#101828" stroke-width="2" stroke-linecap="round" stroke-linejoin="round"/><path id="Vector_5" d="M23.4998 23.9375C25.0254 22.556 26.0322 20.694 26.3529 18.661C26.6735 16.628 26.2887 14.5465 25.2623 12.7625L23.1373 9.08749C22.9895 8.83141 22.7928 8.60694 22.5583 8.4269C22.3238 8.24685 22.0562 8.11475 21.7706 8.03814C21.4851 7.96153 21.1873 7.94191 20.8942 7.98041C20.601 8.0189 20.3184 8.11476 20.0623 8.26249C19.8062 8.41023 19.5817 8.60696 19.4017 8.84145C19.2216 9.07593 19.0895 9.34359 19.0129 9.62913C18.9363 9.91467 18.9167 10.2125 18.9552 10.5056C18.9937 10.7987 19.0895 11.0814 19.2373 11.3375" stroke="#101828" stroke-width="2" stroke-linecap="round" stroke-linejoin="round"/><path id="Vector_6" d="M19.5249 11.8375L15.9874 5.7125C15.689 5.19533 15.1974 4.81786 14.6208 4.66314C14.0441 4.50843 13.4296 4.58913 12.9124 4.8875C12.3952 5.18587 12.0178 5.67746 11.863 6.25414C11.7083 6.83081 11.789 7.44533 12.0874 7.9625" stroke="#101828" stroke-width="2" stroke-linecap="round" stroke-linejoin="round"/><path id="Vector_7" d="M22.0999 1.41248L21.5874 3.33748" stroke="#101828" stroke-width="2" stroke-linecap="round" stroke-linejoin="round"/><path id="Vector_8" d="M25.8873 3.17499L24.7373 4.81249" stroke="#101828" stroke-width="2" stroke-linecap="round" stroke-linejoin="round"/><path id="Vector_9" d="M28.825 6.11249L27.1875 7.26249" stroke="#101828" stroke-width="2" stroke-linecap="round" stroke-linejoin="round"/></g></g></g></g><defs><clipPath id="clip0_11_791"><rect width="32" height="32" rx="5" fill="white"/></clipPath></defs></svg>