<svg width="32" height="32" viewBox="0 0 32 32" fill="none" xmlns="http://www.w3.org/2000/svg"><g id="Icon-PersonSimpleRun"><g clip-path="url(#clip0_11_631)"><g id="size=md (32px)"><g id="PersonSimpleRun"><path id="Vector" d="M19 10C20.6569 10 22 8.65685 22 7C22 5.34315 20.6569 4 19 4C17.3431 4 16 5.34315 16 7C16 8.65685 17.3431 10 19 10Z" stroke="#101828" stroke-width="2" stroke-linecap="round" stroke-linejoin="round"/><path id="Vector_2" d="M7 12.7C7 12.7 11 9.00003 17 13.7C23.3125 18.625 27 16.7 27 16.7" stroke="#101828" stroke-width="2" stroke-linecap="round" stroke-linejoin="round"/><path id="Vector_3" d="M16.8875 13.6C16.3375 16.15 12.7 25.875 4 25" stroke="#101828" stroke-width="2" stroke-linecap="round" stroke-linejoin="round"/><path id="Vector_4" d="M13.8252 20.15C16.0627 20.625 22.0002 22.5 22.0002 29" stroke="#101828" stroke-width="2" stroke-linecap="round" stroke-linejoin="round"/></g></g></g></g><defs><clipPath id="clip0_11_631"><rect width="32" height="32" rx="5" fill="white"/></clipPath></defs></svg>