<svg width="32" height="32" viewBox="0 0 32 32" fill="none" xmlns="http://www.w3.org/2000/svg"><g id="Icon-UserRectangle"><g clip-path="url(#clip0_11_152)"><g id="size=md (32px)"><g id="UserRectangle"><path id="Vector" d="M16 20C18.7614 20 21 17.7614 21 15C21 12.2386 18.7614 10 16 10C13.2386 10 11 12.2386 11 15C11 17.7614 13.2386 20 16 20Z" stroke="#101828" stroke-width="2" stroke-linecap="round" stroke-linejoin="round"/><path id="Vector_2" d="M27 6H5C4.44772 6 4 6.44772 4 7V25C4 25.5523 4.44772 26 5 26H27C27.5523 26 28 25.5523 28 25V7C28 6.44772 27.5523 6 27 6Z" stroke="#101828" stroke-width="2" stroke-linecap="round" stroke-linejoin="round"/><path id="Vector_3" d="M7.5127 26C8.13216 24.2438 9.28117 22.7229 10.8013 21.6472C12.3215 20.5714 14.1379 19.9937 16.0002 19.9937C17.8625 19.9937 19.6789 20.5714 21.1991 21.6472C22.7192 22.7229 23.8682 24.2438 24.4877 26" stroke="#101828" stroke-width="2" stroke-linecap="round" stroke-linejoin="round"/></g></g></g></g><defs><clipPath id="clip0_11_152"><rect width="32" height="32" rx="5" fill="white"/></clipPath></defs></svg>