<svg xmlns="http://www.w3.org/2000/svg" width="32" height="32" fill="none"><path stroke="#101828" stroke-linecap="round" stroke-linejoin="round" stroke-width="2" d="M10 25a4 4 0 1 0 0-8 4 4 0 0 0 0 8Z"/><path stroke="#101828" stroke-linecap="round" stroke-linejoin="round" stroke-width="2" d="M4 28a7.5 7.5 0 0 1 12 0m-6-16a4 4 0 1 0 0-8 4 4 0 0 0 0 8Z"/><path stroke="#101828" stroke-linecap="round" stroke-linejoin="round" stroke-width="2" d="M4 15a7.5 7.5 0 0 1 12 0m6 10a4 4 0 1 0 0-8 4 4 0 0 0 0 8Z"/><path stroke="#101828" stroke-linecap="round" stroke-linejoin="round" stroke-width="2" d="M16 28a7.5 7.5 0 0 1 12 0m-6-16a4 4 0 1 0 0-8 4 4 0 0 0 0 8Z"/><path stroke="#101828" stroke-linecap="round" stroke-linejoin="round" stroke-width="2" d="M16 15a7.5 7.5 0 0 1 12 0"/></svg>