<svg width="32" height="32" viewBox="0 0 32 32" fill="none" xmlns="http://www.w3.org/2000/svg"><g id="Icon-UserMinus"><g clip-path="url(#clip0_11_193)"><g id="size=md (32px)"><g id="UserMinus"><path id="Vector" d="M25 17H31" stroke="#101828" stroke-width="2" stroke-linecap="round" stroke-linejoin="round"/><path id="Vector_2" d="M13.5 20C17.6421 20 21 16.6421 21 12.5C21 8.35786 17.6421 5 13.5 5C9.35786 5 6 8.35786 6 12.5C6 16.6421 9.35786 20 13.5 20Z" stroke="#101828" stroke-width="2" stroke-miterlimit="10"/><path id="Vector_3" d="M2.7749 25C4.08897 23.4338 5.73011 22.1745 7.58298 21.3104C9.43585 20.4464 11.4555 19.9986 13.4999 19.9986C15.5443 19.9986 17.564 20.4464 19.4168 21.3104C21.2697 22.1745 22.9108 23.4338 24.2249 25" stroke="#101828" stroke-width="2" stroke-linecap="round" stroke-linejoin="round"/></g></g></g></g><defs><clipPath id="clip0_11_193"><rect width="32" height="32" rx="5" fill="white"/></clipPath></defs></svg>