<svg width="32" height="32" viewBox="0 0 32 32" fill="none" xmlns="http://www.w3.org/2000/svg"><g id="Icon-TrainSimple"><g clip-path="url(#clip0_10_1192)"><g id="size=md (32px)"><g id="TrainSimple"><path id="Vector" d="M5.5 16H26.5" stroke="#101828" stroke-width="2" stroke-linecap="round" stroke-linejoin="round"/><path id="Vector_2" d="M12 26L9 30" stroke="#101828" stroke-width="2" stroke-linecap="round" stroke-linejoin="round"/><path id="Vector_3" d="M20 26L23 30" stroke="#101828" stroke-width="2" stroke-linecap="round" stroke-linejoin="round"/><path id="Vector_4" d="M23.5 4H8.5C6.84315 4 5.5 5.34315 5.5 7V23C5.5 24.6569 6.84315 26 8.5 26H23.5C25.1569 26 26.5 24.6569 26.5 23V7C26.5 5.34315 25.1569 4 23.5 4Z" stroke="#101828" stroke-width="2" stroke-linecap="round" stroke-linejoin="round"/><path id="Vector_5" d="M10.5 23C11.3284 23 12 22.3284 12 21.5C12 20.6716 11.3284 20 10.5 20C9.67157 20 9 20.6716 9 21.5C9 22.3284 9.67157 23 10.5 23Z" fill="#101828"/><path id="Vector_6" d="M21.5 23C22.3284 23 23 22.3284 23 21.5C23 20.6716 22.3284 20 21.5 20C20.6716 20 20 20.6716 20 21.5C20 22.3284 20.6716 23 21.5 23Z" fill="#101828"/></g></g></g><rect x="0.5" y="0.5" width="31" height="31" rx="4.5" stroke="#3D90E3" stroke-dasharray="10 5"/></g><defs><clipPath id="clip0_10_1192"><rect width="32" height="32" rx="5" fill="white"/></clipPath></defs></svg>