<svg width="32" height="32" viewBox="0 0 32 32" fill="none" xmlns="http://www.w3.org/2000/svg"><g id="Icon-NavigationArrow"><g clip-path="url(#clip0_10_1533)"><g id="size=md (32px)"><g id="NavigationArrow"><path id="Vector" d="M4.67522 5.94998L12.0002 27.1125C12.3127 28.025 13.6127 28 13.9002 27.075L16.8502 17.5C16.8947 17.3435 16.9792 17.2012 17.0954 17.0872C17.2116 16.9733 17.3554 16.8915 17.5127 16.85L27.0752 13.9C28.0002 13.6125 28.0252 12.3125 27.1127 12L5.95022 4.67498C5.77241 4.61249 5.58057 4.60152 5.3968 4.64333C5.21303 4.68514 5.04481 4.77803 4.91155 4.9113C4.77828 5.04457 4.68539 5.21278 4.64357 5.39655C4.60176 5.58032 4.61273 5.77217 4.67522 5.94998V5.94998Z" stroke="#101828" stroke-width="2" stroke-linecap="round" stroke-linejoin="round"/></g></g></g><rect x="0.5" y="0.5" width="31" height="31" rx="4.5" stroke="#3D90E3" stroke-dasharray="10 5"/></g><defs><clipPath id="clip0_10_1533"><rect width="32" height="32" rx="5" fill="white"/></clipPath></defs></svg>