<svg width="32" height="32" viewBox="0 0 32 32" fill="none" xmlns="http://www.w3.org/2000/svg"><g id="Icon-GlobeSimple"><g clip-path="url(#clip0_10_1726)"><g id="size=md (32px)"><g id="GlobeSimple"><path id="Vector" d="M16 28C22.6274 28 28 22.6274 28 16C28 9.37258 22.6274 4 16 4C9.37258 4 4 9.37258 4 16C4 22.6274 9.37258 28 16 28Z" stroke="#101828" stroke-width="2" stroke-miterlimit="10"/><path id="Vector_2" d="M4 16H28" stroke="#101828" stroke-width="2" stroke-linecap="round" stroke-linejoin="round"/><path id="Vector_3" d="M16 27.675C18.7614 27.675 21 22.4479 21 16C21 9.55209 18.7614 4.32501 16 4.32501C13.2386 4.32501 11 9.55209 11 16C11 22.4479 13.2386 27.675 16 27.675Z" stroke="#101828" stroke-width="2" stroke-miterlimit="10"/></g></g></g><rect x="0.5" y="0.5" width="31" height="31" rx="4.5" stroke="#3D90E3" stroke-dasharray="10 5"/></g><defs><clipPath id="clip0_10_1726"><rect width="32" height="32" rx="5" fill="white"/></clipPath></defs></svg>