<svg width="32" height="32" viewBox="0 0 32 32" fill="none" xmlns="http://www.w3.org/2000/svg"><g id="Icon-SuitcaseSimple"><g clip-path="url(#clip0_10_1385)"><g id="size=md (32px)"><g id="SuitcaseSimple"><path id="Vector" d="M27 9H5C4.44772 9 4 9.44772 4 10V26C4 26.5523 4.44772 27 5 27H27C27.5523 27 28 26.5523 28 26V10C28 9.44772 27.5523 9 27 9Z" stroke="#101828" stroke-width="2" stroke-linecap="round" stroke-linejoin="round"/><path id="Vector_2" d="M21 9V7C21 6.46957 20.7893 5.96086 20.4142 5.58579C20.0391 5.21071 19.5304 5 19 5H13C12.4696 5 11.9609 5.21071 11.5858 5.58579C11.2107 5.96086 11 6.46957 11 7V9" stroke="#101828" stroke-width="2" stroke-linecap="round" stroke-linejoin="round"/><path id="Vector_3" d="M4 20H28" stroke="#101828" stroke-width="2" stroke-linecap="round" stroke-linejoin="round"/></g></g></g><rect x="0.5" y="0.5" width="31" height="31" rx="4.5" stroke="#3D90E3" stroke-dasharray="10 5"/></g><defs><clipPath id="clip0_10_1385"><rect width="32" height="32" rx="5" fill="white"/></clipPath></defs></svg>