<svg width="32" height="32" viewBox="0 0 32 32" fill="none" xmlns="http://www.w3.org/2000/svg"><g id="Icon-Student"><g clip-path="url(#clip0_11_4300)"><g id="size=md (32px)"><g id="Student"><path id="Vector" d="M4 8V18" stroke="#101828" stroke-width="2" stroke-linecap="round" stroke-linejoin="round"/><path id="Vector_2" d="M6.77539 27C7.77597 25.4654 9.14361 24.2046 10.7544 23.3319C12.3653 22.4591 14.1683 22.0021 16.0004 22.0021C17.8324 22.0021 19.6355 22.4591 21.2464 23.3319C22.8572 24.2046 24.2248 25.4654 25.2254 27" stroke="#101828" stroke-width="2" stroke-linecap="round" stroke-linejoin="round"/><path id="Vector_3" d="M28 8L16 12L4 8L16 4L28 8Z" stroke="#101828" stroke-width="2" stroke-linecap="round" stroke-linejoin="round"/><path id="Vector_4" d="M21.1625 10.275C22.0798 11.2767 22.6859 12.5237 22.9068 13.8639C23.1277 15.2041 22.954 16.5796 22.4067 17.8227C21.8595 19.0659 20.9624 20.123 19.8248 20.8651C18.6872 21.6073 17.3583 22.0025 16 22.0025C14.6417 22.0025 13.3128 21.6073 12.1752 20.8651C11.0376 20.123 10.1405 19.0659 9.59329 17.8227C9.04604 16.5796 8.87229 15.2041 9.09322 13.8639C9.31414 12.5237 9.9202 11.2767 10.8375 10.275" stroke="#101828" stroke-width="2" stroke-linecap="round" stroke-linejoin="round"/></g></g></g><rect x="0.5" y="0.5" width="31" height="31" rx="4.5" stroke="#3D90E3" stroke-dasharray="10 5"/></g><defs><clipPath id="clip0_11_4300"><rect width="32" height="32" rx="5" fill="white"/></clipPath></defs></svg>