<svg width="32" height="32" viewBox="0 0 32 32" fill="none" xmlns="http://www.w3.org/2000/svg"><g id="Icon-BatteryWarningVertical"><g clip-path="url(#clip0_9_1694)"><g id="size=md (32px)"><g id="BatteryWarningVertical"><path id="Vector" d="M16 11.5V16.5" stroke="#101828" stroke-width="2" stroke-linecap="round" stroke-linejoin="round"/><path id="Vector_2" d="M12 1H20" stroke="#101828" stroke-width="2" stroke-linecap="round" stroke-linejoin="round"/><path id="Vector_3" d="M23 5H9C7.89543 5 7 5.89543 7 7V26C7 27.1046 7.89543 28 9 28H23C24.1046 28 25 27.1046 25 26V7C25 5.89543 24.1046 5 23 5Z" stroke="#101828" stroke-width="2" stroke-linecap="round" stroke-linejoin="round"/><path id="Vector_4" d="M16 22.5C16.8284 22.5 17.5 21.8284 17.5 21C17.5 20.1716 16.8284 19.5 16 19.5C15.1716 19.5 14.5 20.1716 14.5 21C14.5 21.8284 15.1716 22.5 16 22.5Z" fill="#101828"/></g></g></g></g><defs><clipPath id="clip0_9_1694"><rect width="32" height="32" rx="5" fill="white"/></clipPath></defs></svg>