<svg width="32" height="32" viewBox="0 0 32 32" fill="none" xmlns="http://www.w3.org/2000/svg"><g id="Icon-HardDrive"><g clip-path="url(#clip0_9_557)"><g id="size=md (32px)"><g id="HardDrive"><path id="Vector" d="M28 9H4C3.44772 9 3 9.44772 3 10V22C3 22.5523 3.44772 23 4 23H28C28.5523 23 29 22.5523 29 22V10C29 9.44772 28.5523 9 28 9Z" stroke="#101828" stroke-width="2" stroke-linecap="round" stroke-linejoin="round"/><path id="Vector_2" d="M23.5 17.5C24.3284 17.5 25 16.8284 25 16C25 15.1716 24.3284 14.5 23.5 14.5C22.6716 14.5 22 15.1716 22 16C22 16.8284 22.6716 17.5 23.5 17.5Z" fill="#101828"/></g></g></g></g><defs><clipPath id="clip0_9_557"><rect width="32" height="32" rx="5" fill="white"/></clipPath></defs></svg>