<svg width="32" height="32" viewBox="0 0 32 32" fill="none" xmlns="http://www.w3.org/2000/svg"><g id="Icon-Link"><g clip-path="url(#clip0_9_380)"><g id="size=md (32px)"><g id="Link"><path id="Vector" d="M15.2875 8.92499L17.7625 6.44999C18.8104 5.4949 20.186 4.98029 21.6035 5.01311C23.021 5.04592 24.3713 5.62364 25.3738 6.6262C26.3764 7.62877 26.9541 8.97908 26.9869 10.3965C27.0198 11.814 26.5051 13.1896 25.55 14.2375L22.0125 17.7625C21.5027 18.2742 20.8969 18.6803 20.2298 18.9573C19.5627 19.2344 18.8474 19.377 18.125 19.377C17.4027 19.377 16.6874 19.2344 16.0203 18.9573C15.3532 18.6803 14.7474 18.2742 14.2375 17.7625" stroke="#101828" stroke-width="2" stroke-linecap="round" stroke-linejoin="round"/><path id="Vector_2" d="M16.7126 23.075L14.2376 25.55C13.1897 26.5051 11.8141 27.0197 10.3966 26.9869C8.97917 26.9541 7.62886 26.3764 6.62629 25.3738C5.62373 24.3712 5.04601 23.0209 5.0132 21.6035C4.98038 20.186 5.49499 18.8104 6.45008 17.7625L9.98758 14.2375C10.4974 13.7258 11.1033 13.3197 11.7704 13.0427C12.4375 12.7656 13.1527 12.623 13.8751 12.623C14.5974 12.623 15.3127 12.7656 15.9798 13.0427C16.6469 13.3197 17.2528 13.7258 17.7626 14.2375" stroke="#101828" stroke-width="2" stroke-linecap="round" stroke-linejoin="round"/></g></g></g></g><defs><clipPath id="clip0_9_380"><rect width="32" height="32" rx="5" fill="white"/></clipPath></defs></svg>