<svg width="32" height="32" viewBox="0 0 32 32" fill="none" xmlns="http://www.w3.org/2000/svg"><g id="Icon-WifiHigh"><g clip-path="url(#clip0_9_2066)"><g id="size=md (32px)"><g id="WifiHigh"><path id="Vector" d="M11.6125 20.7625C12.7926 19.6303 14.3647 18.9982 16 18.9982C17.6354 18.9982 19.2075 19.6303 20.3875 20.7625" stroke="#101828" stroke-width="2" stroke-linecap="round" stroke-linejoin="round"/><path id="Vector_2" d="M7.375 16.5125C9.68176 14.2616 12.777 13.0017 16 13.0017C19.223 13.0017 22.3182 14.2616 24.625 16.5125" stroke="#101828" stroke-width="2" stroke-linecap="round" stroke-linejoin="round"/><path id="Vector_3" d="M3.13745 12.275C6.56602 8.89628 11.1863 7.00227 16 7.00227C20.8136 7.00227 25.4339 8.89628 28.8624 12.275" stroke="#101828" stroke-width="2" stroke-linecap="round" stroke-linejoin="round"/><path id="Vector_4" d="M16 26.5C16.8284 26.5 17.5 25.8284 17.5 25C17.5 24.1716 16.8284 23.5 16 23.5C15.1716 23.5 14.5 24.1716 14.5 25C14.5 25.8284 15.1716 26.5 16 26.5Z" fill="#101828"/></g></g></g></g><defs><clipPath id="clip0_9_2066"><rect width="32" height="32" rx="5" fill="white"/></clipPath></defs></svg>