<svg width="32" height="32" viewBox="0 0 32 32" fill="none" xmlns="http://www.w3.org/2000/svg"><g id="Icon-Binoculars"><g clip-path="url(#clip0_12_6906)"><g id="size=md (32px)"><g id="Binoculars"><path id="Vector" d="M13 11.5H19" stroke="#101828" stroke-width="2" stroke-linecap="round" stroke-linejoin="round"/><path id="Vector_2" d="M28.7 19.2874L23.2375 6.8749C22.6735 6.31689 21.9121 6.00391 21.1187 6.00391C20.3254 6.00391 19.564 6.31689 19 6.8749V20.9999" stroke="#101828" stroke-width="2" stroke-linecap="round" stroke-linejoin="round"/><path id="Vector_3" d="M13.0008 20.9999V6.8749C12.4368 6.31689 11.6754 6.00391 10.882 6.00391C10.0886 6.00391 9.32728 6.31689 8.76328 6.8749L3.30078 19.2874" stroke="#101828" stroke-width="2" stroke-linecap="round" stroke-linejoin="round"/><path id="Vector_4" d="M8 26C10.7614 26 13 23.7614 13 21C13 18.2386 10.7614 16 8 16C5.23858 16 3 18.2386 3 21C3 23.7614 5.23858 26 8 26Z" stroke="#101828" stroke-width="2" stroke-linecap="round" stroke-linejoin="round"/><path id="Vector_5" d="M24 26C26.7614 26 29 23.7614 29 21C29 18.2386 26.7614 16 24 16C21.2386 16 19 18.2386 19 21C19 23.7614 21.2386 26 24 26Z" stroke="#101828" stroke-width="2" stroke-linecap="round" stroke-linejoin="round"/></g></g></g></g><defs><clipPath id="clip0_12_6906"><rect width="32" height="32" rx="5" fill="white"/></clipPath></defs></svg>