<svg width="32" height="32" viewBox="0 0 32 32" fill="none" xmlns="http://www.w3.org/2000/svg"><g id="Icon-Buildings"><g clip-path="url(#clip0_12_6850)"><g id="size=md (32px)"><g id="Buildings"><path id="Vector" d="M2 27H30" stroke="#101828" stroke-width="2" stroke-linecap="round" stroke-linejoin="round"/><path id="Vector_2" d="M18 27V5C18 4.73478 17.8946 4.48043 17.7071 4.29289C17.5196 4.10536 17.2652 4 17 4H5C4.73478 4 4.48043 4.10536 4.29289 4.29289C4.10536 4.48043 4 4.73478 4 5V27" stroke="#101828" stroke-width="2" stroke-linecap="round" stroke-linejoin="round"/><path id="Vector_3" d="M28 27V13C28 12.7348 27.8946 12.4804 27.7071 12.2929C27.5196 12.1054 27.2652 12 27 12H18" stroke="#101828" stroke-width="2" stroke-linecap="round" stroke-linejoin="round"/><path id="Vector_4" d="M8 9H12" stroke="#101828" stroke-width="2" stroke-linecap="round" stroke-linejoin="round"/><path id="Vector_5" d="M10 17H14" stroke="#101828" stroke-width="2" stroke-linecap="round" stroke-linejoin="round"/><path id="Vector_6" d="M8 22H12" stroke="#101828" stroke-width="2" stroke-linecap="round" stroke-linejoin="round"/><path id="Vector_7" d="M22 22H24" stroke="#101828" stroke-width="2" stroke-linecap="round" stroke-linejoin="round"/><path id="Vector_8" d="M22 17H24" stroke="#101828" stroke-width="2" stroke-linecap="round" stroke-linejoin="round"/></g></g></g></g><defs><clipPath id="clip0_12_6850"><rect width="32" height="32" rx="5" fill="white"/></clipPath></defs></svg>