<svg width="32" height="32" viewBox="0 0 32 32" fill="none" xmlns="http://www.w3.org/2000/svg"><g id="Icon-Pizza"><g clip-path="url(#clip0_12_5950)"><g id="size=md (32px)"><g id="Pizza"><path id="Vector" d="M2.92427 9.46249C2.78518 9.24599 2.73609 8.98376 2.78745 8.73161C2.83882 8.47946 2.98658 8.25732 3.19927 8.11249C6.93149 5.438 11.4077 3.99976 15.9993 3.99976C20.5908 3.99976 25.067 5.438 28.7993 8.11249C29.012 8.25732 29.1597 8.47946 29.2111 8.73161C29.2625 8.98376 29.2134 9.24599 29.0743 9.46249L16.8368 28.675C16.748 28.8171 16.6246 28.9342 16.4781 29.0154C16.3316 29.0967 16.1668 29.1393 15.9993 29.1393C15.8318 29.1393 15.667 29.0967 15.5205 29.0154C15.374 28.9342 15.2505 28.8171 15.1618 28.675L2.92427 9.46249Z" stroke="#101828" stroke-width="2" stroke-linecap="round" stroke-linejoin="round"/><path id="Vector_2" d="M4.58789 12.075C7.80701 9.43878 11.8395 7.99829 16.0004 7.99829C20.1612 7.99829 24.1938 9.43878 27.4129 12.075" stroke="#101828" stroke-width="2" stroke-linecap="round" stroke-linejoin="round"/><path id="Vector_3" d="M20.5375 22.8625C20.0134 22.7133 19.5315 22.4437 19.13 22.0754C18.7285 21.7071 18.4186 21.2501 18.2248 20.7408C18.0311 20.2316 17.9589 19.6841 18.0141 19.1421C18.0692 18.6 18.2502 18.0783 18.5425 17.6185C18.8348 17.1587 19.2304 16.7735 19.6979 16.4936C20.1653 16.2137 20.6917 16.0467 21.235 16.0061C21.7783 15.9654 22.3237 16.0522 22.8276 16.2595C23.3314 16.4668 23.78 16.7888 24.1375 17.2" stroke="#101828" stroke-width="2" stroke-linecap="round" stroke-linejoin="round"/><path id="Vector_4" d="M7.23828 16.225C7.4702 15.6321 7.85943 15.1137 8.36407 14.7256C8.86872 14.3375 9.46966 14.0944 10.1022 14.0224C10.7348 13.9505 11.375 14.0524 11.9539 14.3173C12.5328 14.5821 13.0285 14.9999 13.3877 15.5255C13.7468 16.0512 13.9558 16.6648 13.9921 17.3004C14.0284 17.936 13.8907 18.5695 13.5937 19.1326C13.2967 19.6957 12.8518 20.1672 12.3068 20.4962C11.7618 20.8253 11.1374 20.9995 10.5008 21H10.2758" stroke="#101828" stroke-width="2" stroke-linecap="round" stroke-linejoin="round"/></g></g></g></g><defs><clipPath id="clip0_12_5950"><rect width="32" height="32" rx="5" fill="white"/></clipPath></defs></svg>