<svg width="32" height="32" viewBox="0 0 32 32" fill="none" xmlns="http://www.w3.org/2000/svg"><g id="Icon-ShoppingCartSimple"><g clip-path="url(#clip0_12_5768)"><g id="size=md (32px)"><g id="ShoppingCartSimple"><path id="Vector" d="M10 29C11.1046 29 12 28.1046 12 27C12 25.8954 11.1046 25 10 25C8.89543 25 8 25.8954 8 27C8 28.1046 8.89543 29 10 29Z" fill="#101828"/><path id="Vector_2" d="M23 29C24.1046 29 25 28.1046 25 27C25 25.8954 24.1046 25 23 25C21.8954 25 21 25.8954 21 27C21 28.1046 21.8954 29 23 29Z" fill="#101828"/><path id="Vector_3" d="M5.2875 9H27.7125L24.4125 20.55C24.2948 20.9692 24.0426 21.3381 23.6948 21.6001C23.3471 21.862 22.9229 22.0025 22.4875 22H10.5125C10.0771 22.0025 9.65293 21.862 9.30515 21.6001C8.95738 21.3381 8.70524 20.9692 8.5875 20.55L4.0625 4.725C4.0027 4.51594 3.8764 4.33207 3.70271 4.20125C3.52903 4.07042 3.31744 3.99977 3.1 4H1" stroke="#101828" stroke-width="2" stroke-linecap="round" stroke-linejoin="round"/></g></g></g></g><defs><clipPath id="clip0_12_5768"><rect width="32" height="32" rx="5" fill="white"/></clipPath></defs></svg>