<svg width="32" height="32" viewBox="0 0 32 32" fill="none" xmlns="http://www.w3.org/2000/svg"><g id="Icon-Shower"><g clip-path="url(#clip0_12_5743)"><g id="size=md (32px)"><g id="Shower"><path id="Vector" d="M7.5 30C8.32843 30 9 29.3284 9 28.5C9 27.6716 8.32843 27 7.5 27C6.67157 27 6 27.6716 6 28.5C6 29.3284 6.67157 30 7.5 30Z" fill="#101828"/><path id="Vector_2" d="M11 26.5C11.8284 26.5 12.5 25.8284 12.5 25C12.5 24.1716 11.8284 23.5 11 23.5C10.1716 23.5 9.5 24.1716 9.5 25C9.5 25.8284 10.1716 26.5 11 26.5Z" fill="#101828"/><path id="Vector_3" d="M3.5 26C4.32843 26 5 25.3284 5 24.5C5 23.6716 4.32843 23 3.5 23C2.67157 23 2 23.6716 2 24.5C2 25.3284 2.67157 26 3.5 26Z" fill="#101828"/><path id="Vector_4" d="M7 22.5C7.82843 22.5 8.5 21.8284 8.5 21C8.5 20.1716 7.82843 19.5 7 19.5C6.17157 19.5 5.5 20.1716 5.5 21C5.5 21.8284 6.17157 22.5 7 22.5Z" fill="#101828"/><path id="Vector_5" d="M31.0004 5.00001H27.4129C27.2831 4.99955 27.1544 5.02471 27.0343 5.07404C26.9142 5.12338 26.805 5.19591 26.7129 5.28751L23.0004 9.00001L6.91293 11.675C6.73081 11.7051 6.56058 11.7851 6.4211 11.906C6.28163 12.0269 6.17835 12.1841 6.1227 12.3601C6.06705 12.5361 6.0612 12.7241 6.10581 12.9032C6.15042 13.0824 6.24373 13.2457 6.37543 13.375L18.6254 25.625C18.7548 25.7567 18.9181 25.85 19.0972 25.8946C19.2763 25.9392 19.4643 25.9334 19.6403 25.8777C19.8163 25.8221 19.9735 25.7188 20.0944 25.5793C20.2153 25.4399 20.2953 25.2696 20.3254 25.0875L23.0004 9.00001" stroke="#101828" stroke-width="2" stroke-linecap="round" stroke-linejoin="round"/></g></g></g></g><defs><clipPath id="clip0_12_5743"><rect width="32" height="32" rx="5" fill="white"/></clipPath></defs></svg>