<svg xmlns="http://www.w3.org/2000/svg" fill="none" stroke="currentColor" aria-hidden="true" viewBox="0 0 32 32"><g id="Icon-CaretRight"><g clip-path="url(#clip0_4_2901)"><g id="size=md (32px)"><path id="Vector" fill="#101828" d="M24.28 17.506L13.316 27.098C12.024 28.23 10 27.31 10 25.592V6.40803C9.99967 6.02354 10.1102 5.6471 10.3183 5.3238C10.5264 5.0005 10.8233 4.74404 11.1734 4.58513C11.5235 4.42622 11.912 4.37159 12.2924 4.4278C12.6727 4.484 13.0288 4.64865 13.318 4.90203L24.278 14.494C24.4928 14.6817 24.665 14.9133 24.783 15.173C24.9009 15.4328 24.962 15.7147 24.962 16C24.962 16.2853 24.9009 16.5673 24.783 16.827C24.665 17.0868 24.4928 17.3183 24.278 17.506H24.28Z"/></g></g></g><defs><clipPath id="clip0_4_2901"><rect width="32" height="32" fill="white" rx="5"/></clipPath></defs></svg>