<svg width="32" height="32" viewBox="0 0 32 32" fill="none" xmlns="http://www.w3.org/2000/svg"><g id="Icon-ShieldStar"><g clip-path="url(#clip0_10_227)"><g id="size=md (32px)"><path id="Vector" d="M5 14.3375V7C5 6.73478 5.10536 6.48043 5.29289 6.29289C5.48043 6.10536 5.73478 6 6 6H26C26.2652 6 26.5196 6.10536 26.7071 6.29289C26.8946 6.48043 27 6.73478 27 7V14.3375C27 24.8375 18.0875 28.3125 16.3125 28.9C16.1109 28.9747 15.8891 28.9747 15.6875 28.9C13.9125 28.3125 5 24.8375 5 14.3375Z" stroke="#101828" stroke-width="2" stroke-linecap="round" stroke-linejoin="round"/><path id="Vector_2" d="M16 12V17" stroke="#101828" stroke-width="2" stroke-linecap="round" stroke-linejoin="round"/><path id="Vector_3" d="M11.25 15.45L16 17" stroke="#101828" stroke-width="2" stroke-linecap="round" stroke-linejoin="round"/><path id="Vector_4" d="M13.0625 21.05L16 17" stroke="#101828" stroke-width="2" stroke-linecap="round" stroke-linejoin="round"/><path id="Vector_5" d="M18.9375 21.05L16 17" stroke="#101828" stroke-width="2" stroke-linecap="round" stroke-linejoin="round"/><path id="Vector_6" d="M20.75 15.45L16 17" stroke="#101828" stroke-width="2" stroke-linecap="round" stroke-linejoin="round"/></g></g></g><defs><clipPath id="clip0_10_227"><rect width="32" height="32" rx="5" fill="white"/></clipPath></defs></svg>