<svg width="32" height="32" viewBox="0 0 32 32" fill="none" xmlns="http://www.w3.org/2000/svg"><g id="Icon-ArrowSquareOut"><g clip-path="url(#clip0_4_1705)"><g id="size=md (32px)"><g id="ArrowSquareOut"><path id="Vector" d="M27 12.5V5H19.5" stroke="#101828" stroke-width="2" stroke-linecap="round" stroke-linejoin="round"/><path id="Vector_2" d="M18 14L27 5" stroke="#101828" stroke-width="2" stroke-linecap="round" stroke-linejoin="round"/><path id="Vector_3" d="M23 18V26C23 26.2652 22.8946 26.5196 22.7071 26.7071C22.5196 26.8946 22.2652 27 22 27H6C5.73478 27 5.48043 26.8946 5.29289 26.7071C5.10536 26.5196 5 26.2652 5 26V10C5 9.73478 5.10536 9.48043 5.29289 9.29289C5.48043 9.10536 5.73478 9 6 9H14" stroke="#101828" stroke-width="2" stroke-linecap="round" stroke-linejoin="round"/></g></g></g><rect x="0.5" y="0.5" width="31" height="31" rx="4.5" stroke="#3D90E3" stroke-dasharray="10 5"/></g><defs><clipPath id="clip0_4_1705"><rect width="32" height="32" rx="5" fill="white"/></clipPath></defs></svg>