<svg width="32" height="32" viewBox="0 0 32 32" fill="none" xmlns="http://www.w3.org/2000/svg"><g id="Icon-ArrowsCounterClockwise"><g clip-path="url(#clip0_4_2162)"><g id="size=md (32px)"><g id="ArrowsCounterClockwise"><path id="Vector" d="M9.97498 12.4625H3.97498V6.46249" stroke="#101828" stroke-width="2" stroke-linecap="round" stroke-linejoin="round"/><path id="Vector_2" d="M23.775 8.22499C22.7545 7.20301 21.5425 6.39224 20.2084 5.83907C18.8743 5.28589 17.4442 5.00116 16 5.00116C14.5557 5.00116 13.1256 5.28589 11.7915 5.83907C10.4574 6.39224 9.24547 7.20301 8.22498 8.22499L3.97498 12.4625" stroke="#101828" stroke-width="2" stroke-linecap="round" stroke-linejoin="round"/><path id="Vector_3" d="M22.025 19.5375H28.025V25.5375" stroke="#101828" stroke-width="2" stroke-linecap="round" stroke-linejoin="round"/><path id="Vector_4" d="M8.22498 23.775C9.24547 24.797 10.4574 25.6078 11.7915 26.1609C13.1256 26.7141 14.5557 26.9988 16 26.9988C17.4442 26.9988 18.8743 26.7141 20.2084 26.1609C21.5425 25.6078 22.7545 24.797 23.775 23.775L28.025 19.5375" stroke="#101828" stroke-width="2" stroke-linecap="round" stroke-linejoin="round"/></g></g></g><rect x="0.5" y="0.5" width="31" height="31" rx="4.5" stroke="#3D90E3" stroke-dasharray="10 5"/></g><defs><clipPath id="clip0_4_2162"><rect width="32" height="32" rx="5" fill="white"/></clipPath></defs></svg>