<svg width="32" height="32" viewBox="0 0 32 32" fill="none" xmlns="http://www.w3.org/2000/svg"><g id="Icon-Basketball"><g clip-path="url(#clip0_11_3295)"><g id="size=md (32px)"><g id="Basketball"><path id="Vector" d="M16 28C22.6274 28 28 22.6274 28 16C28 9.37258 22.6274 4 16 4C9.37258 4 4 9.37258 4 16C4 22.6274 9.37258 28 16 28Z" stroke="#101828" stroke-width="2" stroke-linecap="round" stroke-linejoin="round"/><path id="Vector_2" d="M7.5 7.52502C9.74368 9.77457 11.0026 12.8228 11 16C11.0026 19.1772 9.74368 22.2255 7.5 24.475" stroke="#101828" stroke-width="2" stroke-linecap="round" stroke-linejoin="round"/><path id="Vector_3" d="M24.5003 7.52502C22.2592 9.77623 21.001 12.8235 21.001 16C21.001 19.1766 22.2592 22.2238 24.5003 24.475" stroke="#101828" stroke-width="2" stroke-linecap="round" stroke-linejoin="round"/><path id="Vector_4" d="M4 16H28" stroke="#101828" stroke-width="2" stroke-linecap="round" stroke-linejoin="round"/><path id="Vector_5" d="M16 4V28" stroke="#101828" stroke-width="2" stroke-linecap="round" stroke-linejoin="round"/></g></g></g></g><defs><clipPath id="clip0_11_3295"><rect width="32" height="32" rx="5" fill="white"/></clipPath></defs></svg>