<svg width="32" height="32" viewBox="0 0 32 32" fill="none" xmlns="http://www.w3.org/2000/svg"><g id="Icon-Confetti"><g clip-path="url(#clip0_11_3251)"><g id="size=md (32px)"><g id="Confetti"><path id="Vector" d="M4.73795 25.9875L11.4629 7.47497C11.5205 7.31656 11.6172 7.17526 11.744 7.06422C11.8708 6.95318 12.0236 6.87599 12.1882 6.83982C12.3528 6.80365 12.5239 6.80968 12.6856 6.85735C12.8473 6.90502 12.9943 6.99277 13.1129 7.11247L24.8879 18.8875C25.0076 19.0061 25.0954 19.1531 25.1431 19.3148C25.1907 19.4765 25.1968 19.6476 25.1606 19.8122C25.1244 19.9768 25.0472 20.1296 24.9362 20.2564C24.8251 20.3832 24.6839 20.4799 24.5254 20.5375L6.01294 27.2625C5.83484 27.3305 5.64084 27.3456 5.45436 27.3058C5.26788 27.2661 5.09691 27.1732 4.96208 27.0383C4.82726 26.9035 4.73435 26.7325 4.69458 26.5461C4.6548 26.3596 4.66986 26.1656 4.73795 25.9875V25.9875Z" stroke="#101828" stroke-width="2" stroke-linecap="round" stroke-linejoin="round"/><path id="Vector_2" d="M21 9C21 9 21 6 24 6C27 6 27 3 27 3" stroke="#101828" stroke-width="2" stroke-linecap="round" stroke-linejoin="round"/><path id="Vector_3" d="M12.8002 24.7999L7.2002 19.2" stroke="#101828" stroke-width="2" stroke-linecap="round" stroke-linejoin="round"/><path id="Vector_4" d="M18 2V5" stroke="#101828" stroke-width="2" stroke-linecap="round" stroke-linejoin="round"/><path id="Vector_5" d="M27 14L29 16" stroke="#101828" stroke-width="2" stroke-linecap="round" stroke-linejoin="round"/><path id="Vector_6" d="M27 10L30 9" stroke="#101828" stroke-width="2" stroke-linecap="round" stroke-linejoin="round"/><path id="Vector_7" d="M9.59961 12.6L19.3996 22.4" stroke="#101828" stroke-width="2" stroke-linecap="round" stroke-linejoin="round"/></g></g></g></g><defs><clipPath id="clip0_11_3251"><rect width="32" height="32" rx="5" fill="white"/></clipPath></defs></svg>