<svg width="32" height="32" viewBox="0 0 32 32" fill="none" xmlns="http://www.w3.org/2000/svg"><g id="Icon-Parachute"><g clip-path="url(#clip0_11_2787)"><g id="size=md (32px)"><g id="Parachute"><path id="Vector" d="M28 15C28 11.8174 26.7357 8.76515 24.4853 6.51472C22.2348 4.26428 19.1826 3 16 3C12.8174 3 9.76516 4.26428 7.51472 6.51472C5.26428 8.76515 4 11.8174 4 15H28Z" stroke="#101828" stroke-width="2" stroke-linecap="round" stroke-linejoin="round"/><path id="Vector_2" d="M28 15L16 24L4 15" stroke="#101828" stroke-width="2" stroke-linecap="round" stroke-linejoin="round"/><path id="Vector_3" d="M16 24V28" stroke="#101828" stroke-width="2" stroke-linecap="round" stroke-linejoin="round"/><path id="Vector_4" d="M14 28H18" stroke="#101828" stroke-width="2" stroke-linecap="round" stroke-linejoin="round"/><path id="Vector_5" d="M16 24L11 15C11 6 16 3 16 3C16 3 21 6 21 15L16 24Z" stroke="#101828" stroke-width="2" stroke-linecap="round" stroke-linejoin="round"/></g></g></g></g><defs><clipPath id="clip0_11_2787"><rect width="32" height="32" rx="5" fill="white"/></clipPath></defs></svg>