<svg width="32" height="32" viewBox="0 0 32 32" fill="none" xmlns="http://www.w3.org/2000/svg"><g id="Icon-Target"><g clip-path="url(#clip0_11_2521)"><g id="size=md (32px)"><g id="Target"><path id="Vector" d="M16 16L28 4" stroke="#101828" stroke-width="2" stroke-linecap="round" stroke-linejoin="round"/><path id="Vector_2" d="M24.487 7.51248C22.3596 5.37867 19.5087 4.1213 16.4984 3.98923C13.4882 3.85715 10.538 4.86001 8.23191 6.7993C5.92579 8.73858 4.43176 11.473 4.04553 14.4613C3.65929 17.4495 4.40899 20.4739 6.14626 22.9358C7.88352 25.3977 10.4817 27.1177 13.4266 27.7553C16.3715 28.393 19.4485 27.9018 22.0485 26.379C24.6486 24.8562 26.5822 22.4128 27.4666 19.5324C28.3511 16.652 28.1219 13.5445 26.8245 10.825" stroke="#101828" stroke-width="2" stroke-linecap="round" stroke-linejoin="round"/><path id="Vector_3" d="M20.2378 11.7625C19.2469 10.7743 17.941 10.1644 16.5472 10.0389C15.1534 9.9133 13.7596 10.2799 12.608 11.0751C11.4563 11.8702 10.6196 13.0437 10.2432 14.3916C9.86671 15.7395 9.97428 17.1766 10.5472 18.4535C11.1201 19.7303 12.1222 20.7661 13.3794 21.3809C14.6366 21.9958 16.0694 22.1508 17.429 21.8191C18.7886 21.4874 19.9891 20.69 20.8219 19.5653C21.6547 18.4406 22.0672 17.0597 21.9878 15.6625" stroke="#101828" stroke-width="2" stroke-linecap="round" stroke-linejoin="round"/></g></g></g></g><defs><clipPath id="clip0_11_2521"><rect width="32" height="32" rx="5" fill="white"/></clipPath></defs></svg>