<svg xmlns="http://www.w3.org/2000/svg" fill="none" stroke="currentColor" aria-hidden="true" viewBox="0 0 32 32"><g clip-path="url(#a)"><path stroke-linecap="round" stroke-linejoin="round" stroke-width="2" d="M22 8H10v6h12V8Z"/><path stroke-linecap="round" stroke-linejoin="round" stroke-width="2" d="M26 27V5a1 1 0 0 0-1-1H7a1 1 0 0 0-1 1v22a1 1 0 0 0 1 1h18a1 1 0 0 0 1-1Z"/><path fill="#101828" d="M11 20a1.5 1.5 0 1 0 0-3 1.5 1.5 0 0 0 0 3Zm5 0a1.5 1.5 0 1 0 0-3 1.5 1.5 0 0 0 0 3Zm5 0a1.5 1.5 0 1 0 0-3 1.5 1.5 0 0 0 0 3Zm-10 5a1.5 1.5 0 1 0 0-3 1.5 1.5 0 0 0 0 3Zm5 0a1.5 1.5 0 1 0 0-3 1.5 1.5 0 0 0 0 3Zm5 0a1.5 1.5 0 1 0 0-3 1.5 1.5 0 0 0 0 3Z"/></g><defs><clipPath id="a"><rect width="32" height="32" fill="#fff" rx="5"/></clipPath></defs></svg>