<svg xmlns="http://www.w3.org/2000/svg" fill="none" stroke="currentColor" aria-hidden="true" viewBox="0 0 32 32"><g id="Icon-ChartPieSlice"><g clip-path="url(#clip0_12_5342)"><g id="size=md (32px)"><g id="ChartPieSlice"><path id="Vector" stroke-linecap="round" stroke-linejoin="round" stroke-width="2" d="M16 16V4"/><path id="Vector_2" stroke-linecap="round" stroke-linejoin="round" stroke-width="2" d="M26.3873 10L5.6123 22"/><path id="Vector_3" stroke-linecap="round" stroke-linejoin="round" stroke-width="2" d="M4.20012 18.2C4.0637 17.4747 3.99673 16.738 4.00012 16C3.99854 13.5182 4.76727 11.0972 6.20022 9.07089C7.63316 7.04461 9.65969 5.51303 12.0001 4.6875V13.6875L4.20012 18.2Z"/><path id="Vector_4" stroke-linecap="round" stroke-linejoin="round" stroke-width="2" d="M16.0004 4C18.1031 4.00024 20.1688 4.55298 21.9907 5.60287C23.8125 6.65275 25.3265 8.16292 26.381 9.9821C27.4355 11.8013 27.9934 13.8656 27.999 15.9683C28.0045 18.071 27.4575 20.1382 26.4126 21.963C25.3678 23.7877 23.8618 25.3058 22.0455 26.3653C20.2292 27.4248 18.1665 27.9885 16.0638 27.9998C13.9611 28.0112 11.8924 27.4698 10.0648 26.43C8.23717 25.3901 6.71488 23.8883 5.65039 22.075"/></g></g></g></g><defs><clipPath id="clip0_12_5342"><rect width="32" height="32" fill="white" rx="5"/></clipPath></defs></svg>