<svg xmlns="http://www.w3.org/2000/svg" fill="none" stroke="currentColor" aria-hidden="true" viewBox="0 0 32 32"><g id="Icon-Infinity"><g clip-path="url(#clip0_12_5241)"><g id="size=md (32px)"><g id="Infinity"><path id="Vector" stroke-linecap="round" stroke-linejoin="round" stroke-width="2" d="M13.3246 19.0125L12.2371 20.2375C11.3993 21.0738 10.3325 21.643 9.17129 21.8732C8.01011 22.1034 6.80676 21.9842 5.7133 21.5307C4.61983 21.0772 3.68533 20.3098 3.02788 19.3253C2.37043 18.3409 2.01953 17.1837 2.01953 16C2.01953 14.8162 2.37043 13.659 3.02788 12.6746C3.68533 11.6902 4.61983 10.9227 5.7133 10.4692C6.80676 10.0157 8.01011 9.89656 9.17129 10.1267C10.3325 10.3569 11.3993 10.9261 12.2371 11.7625L19.7621 20.2375C20.5999 21.0738 21.6668 21.643 22.828 21.8732C23.9892 22.1034 25.1925 21.9842 26.286 21.5307C27.3794 21.0772 28.3139 20.3098 28.9714 19.3253C29.6288 18.3409 29.9797 17.1837 29.9797 16C29.9797 14.8162 29.6288 13.659 28.9714 12.6746C28.3139 11.6902 27.3794 10.9227 26.286 10.4692C25.1925 10.0157 23.9892 9.89656 22.828 10.1267C21.6668 10.3569 20.5999 10.9261 19.7621 11.7625L18.6746 12.9875"/></g></g></g></g><defs><clipPath id="clip0_12_5241"><rect width="32" height="32" fill="white" rx="5"/></clipPath></defs></svg>