<svg xmlns="http://www.w3.org/2000/svg" fill="none" stroke="currentColor" aria-hidden="true" viewBox="0 0 32 32"><g id="Icon-NumberSquareSix"><g clip-path="url(#clip0_12_4782)"><g id="size=md (32px)"><g id="NumberSquareSix"><path id="Vector" stroke-linecap="round" stroke-linejoin="round" stroke-width="2" d="M26 5H6C5.44772 5 5 5.44772 5 6V26C5 26.5523 5.44772 27 6 27H26C26.5523 27 27 26.5523 27 26V6C27 5.44772 26.5523 5 26 5Z"/><path id="Vector_2" stroke-linecap="round" stroke-linejoin="round" stroke-width="2" d="M12.9746 16.75L16.9996 10"/><path id="Vector_3" stroke-linecap="round" stroke-linejoin="round" stroke-width="2" d="M16 22C17.933 22 19.5 20.433 19.5 18.5C19.5 16.567 17.933 15 16 15C14.067 15 12.5 16.567 12.5 18.5C12.5 20.433 14.067 22 16 22Z"/></g></g></g></g><defs><clipPath id="clip0_12_4782"><rect width="32" height="32" fill="white" rx="5"/></clipPath></defs></svg>