<svg width="32" height="32" viewBox="0 0 32 32" fill="none" xmlns="http://www.w3.org/2000/svg"><g id="Icon-FishSimple"><g clip-path="url(#clip0_13_623)"><g id="size=md (32px)"><g id="FishSimple"><path id="Vector" d="M19.5 11C20.3284 11 21 10.3284 21 9.5C21 8.67157 20.3284 8 19.5 8C18.6716 8 18 8.67157 18 9.5C18 10.3284 18.6716 11 19.5 11Z" fill="#101828"/><path id="Vector_2" d="M2 23C30.975 29.3375 27.975 9.43754 27.15 5.62504C27.1074 5.43576 27.012 5.26245 26.8748 5.12526C26.7376 4.98807 26.5643 4.89263 26.375 4.85004C22.5625 4.02504 2.6625 1.02504 9 30" stroke="#101828" stroke-width="2" stroke-linecap="round" stroke-linejoin="round"/><path id="Vector_3" d="M25.1618 19C23.5575 19.0219 21.9651 18.7218 20.4788 18.1175C18.9924 17.5133 17.6424 16.6171 16.5084 15.482C15.3745 14.3469 14.4797 12.9959 13.8769 11.5089C13.2742 10.022 12.9758 8.42925 12.9993 6.82495" stroke="#101828" stroke-width="2" stroke-linecap="round" stroke-linejoin="round"/></g></g></g></g><defs><clipPath id="clip0_13_623"><rect width="32" height="32" rx="5" fill="white"/></clipPath></defs></svg>