<svg width="32" height="32" viewBox="0 0 32 32" fill="none" xmlns="http://www.w3.org/2000/svg"><g id="Icon-Fish"><g clip-path="url(#clip0_13_642)"><g id="size=md (32px)"><g id="Fish"><path id="Vector" d="M19.5 11C20.3284 11 21 10.3284 21 9.5C21 8.67157 20.3284 8 19.5 8C18.6716 8 18 8.67157 18 9.5C18 10.3284 18.6716 11 19.5 11Z" fill="#101828"/><path id="Vector_2" d="M23.288 20.9875H23.0005C21.4092 20.9875 19.8831 20.3554 18.7579 19.2302C17.6327 18.1049 17.0005 16.5788 17.0005 14.9875C15.4114 14.9875 13.8871 14.3571 12.7623 13.2346C11.6374 12.1121 11.0038 10.5892 11.0005 9.00002C10.9984 8.90402 11.0026 8.80798 11.013 8.71252" stroke="#101828" stroke-width="2" stroke-linecap="round" stroke-linejoin="round"/><path id="Vector_3" d="M7.775 19.15L1 22L8 24L10 31L12.85 24.225C30.15 23.8125 27.85 8.86254 27.15 5.61254C27.1063 5.42715 27.0118 5.2576 26.8771 5.12292C26.7424 4.98824 26.5729 4.89374 26.3875 4.85004C23.1375 4.15004 8.1875 1.85005 7.775 19.15V19.15Z" stroke="#101828" stroke-width="2" stroke-linecap="round" stroke-linejoin="round"/></g></g></g></g><defs><clipPath id="clip0_13_642"><rect width="32" height="32" rx="5" fill="white"/></clipPath></defs></svg>