<svg width="32" height="32" viewBox="0 0 32 32" fill="none" xmlns="http://www.w3.org/2000/svg"><g id="Icon-Moon"><g clip-path="url(#clip0_13_522)"><g id="size=md (32px)"><g id="Moon"><path id="Vector" d="M27.0867 19.075C25.1233 19.6255 23.0488 19.6436 21.0762 19.1272C19.1036 18.6109 17.304 17.5789 15.8621 16.137C14.4203 14.6952 13.3882 12.8955 12.8719 10.9229C12.3556 8.95031 12.3736 6.87581 12.9242 4.91248C10.9885 5.45124 9.22777 6.48775 7.81735 7.91877C6.40694 9.34978 5.39606 11.1254 4.88541 13.0686C4.37476 15.0119 4.38217 17.0551 4.90689 18.9946C5.43161 20.9341 6.45533 22.7023 7.87608 24.1231C9.29684 25.5438 11.065 26.5675 13.0046 27.0923C14.9441 27.617 16.9872 27.6244 18.9305 27.1137C20.8738 26.6031 22.6494 25.5922 24.0804 24.1818C25.5114 22.7714 26.5479 21.0106 27.0867 19.075V19.075Z" stroke="#101828" stroke-width="2" stroke-linecap="round" stroke-linejoin="round"/></g></g></g></g><defs><clipPath id="clip0_13_522"><rect width="32" height="32" rx="5" fill="white"/></clipPath></defs></svg>