<svg width="32" height="32" viewBox="0 0 32 32" fill="none" xmlns="http://www.w3.org/2000/svg"><g id="Icon-Rainbow"><g clip-path="url(#clip0_13_415)"><g id="size=md (32px)"><g id="Rainbow"><path id="Vector" d="M22 23V21C22 19.4087 21.3679 17.8826 20.2426 16.7574C19.1174 15.6321 17.5913 15 16 15C14.4087 15 12.8826 15.6321 11.7574 16.7574C10.6321 17.8826 10 19.4087 10 21V23" stroke="#101828" stroke-width="2" stroke-linecap="round" stroke-linejoin="round"/><path id="Vector_2" d="M26 23V21C26 18.3478 24.9464 15.8043 23.0711 13.9289C21.1957 12.0536 18.6522 11 16 11C13.3478 11 10.8043 12.0536 8.92893 13.9289C7.05357 15.8043 6 18.3478 6 21V23" stroke="#101828" stroke-width="2" stroke-linecap="round" stroke-linejoin="round"/><path id="Vector_3" d="M30 23V21C30 17.287 28.525 13.726 25.8995 11.1005C23.274 8.475 19.713 7 16 7C12.287 7 8.72601 8.475 6.1005 11.1005C3.475 13.726 2 17.287 2 21V23" stroke="#101828" stroke-width="2" stroke-linecap="round" stroke-linejoin="round"/></g></g></g></g><defs><clipPath id="clip0_13_415"><rect width="32" height="32" rx="5" fill="white"/></clipPath></defs></svg>