<svg width="32" height="32" viewBox="0 0 32 32" fill="none" xmlns="http://www.w3.org/2000/svg"><g id="Icon-Sparkle"><g clip-path="url(#clip0_13_331)"><g id="size=md (32px)"><g id="Sparkle"><path id="Vector" d="M17.338 21.9375L14.938 28.45C14.8669 28.6413 14.739 28.8064 14.5714 28.9229C14.4038 29.0395 14.2046 29.102 14.0005 29.102C13.7963 29.102 13.5971 29.0395 13.4295 28.9229C13.2619 28.8064 13.134 28.6413 13.063 28.45L10.663 21.9375C10.6123 21.8 10.5324 21.6752 10.4288 21.5716C10.3252 21.468 10.2004 21.3881 10.063 21.3375L3.55045 18.9375C3.35908 18.8664 3.19402 18.7385 3.07747 18.5709C2.96091 18.4033 2.89844 18.2041 2.89844 18C2.89844 17.7958 2.96091 17.5966 3.07747 17.429C3.19402 17.2614 3.35908 17.1335 3.55045 17.0625L10.063 14.6625C10.2004 14.6118 10.3252 14.5319 10.4288 14.4283C10.5324 14.3248 10.6123 14.1999 10.663 14.0625L13.063 7.54996C13.134 7.35859 13.2619 7.19353 13.4295 7.07698C13.5971 6.96042 13.7963 6.89795 14.0005 6.89795C14.2046 6.89795 14.4038 6.96042 14.5714 7.07698C14.739 7.19353 14.8669 7.35859 14.938 7.54996L17.338 14.0625C17.3886 14.1999 17.4685 14.3248 17.5721 14.4283C17.6757 14.5319 17.8005 14.6118 17.938 14.6625L24.4505 17.0625C24.6418 17.1335 24.8069 17.2614 24.9234 17.429C25.04 17.5966 25.1025 17.7958 25.1025 18C25.1025 18.2041 25.04 18.4033 24.9234 18.5709C24.8069 18.7385 24.6418 18.8664 24.4505 18.9375L17.938 21.3375C17.8005 21.3881 17.6757 21.468 17.5721 21.5716C17.4685 21.6752 17.3886 21.8 17.338 21.9375V21.9375Z" stroke="#101828" stroke-width="2" stroke-linecap="round" stroke-linejoin="round"/><path id="Vector_2" d="M22 2V8" stroke="#101828" stroke-width="2" stroke-linecap="round" stroke-linejoin="round"/><path id="Vector_3" d="M25 5H19" stroke="#101828" stroke-width="2" stroke-linecap="round" stroke-linejoin="round"/><path id="Vector_4" d="M28 9V13" stroke="#101828" stroke-width="2" stroke-linecap="round" stroke-linejoin="round"/><path id="Vector_5" d="M30 11H26" stroke="#101828" stroke-width="2" stroke-linecap="round" stroke-linejoin="round"/></g></g></g></g><defs><clipPath id="clip0_13_331"><rect width="32" height="32" rx="5" fill="white"/></clipPath></defs></svg>