<svg width="32" height="32" viewBox="0 0 32 32" fill="none" xmlns="http://www.w3.org/2000/svg"><g id="Icon-Umbrella"><g clip-path="url(#clip0_13_56)"><g id="size=md (32px)"><g id="Umbrella"><path id="Vector" d="M22 25C22 25.7956 21.6839 26.5587 21.1213 27.1213C20.5587 27.6839 19.7956 28 19 28C18.2044 28 17.4413 27.6839 16.8787 27.1213C16.3161 26.5587 16 25.7956 16 25V17" stroke="#101828" stroke-width="2" stroke-linecap="round" stroke-linejoin="round"/><path id="Vector_2" d="M4.0375 17.0001C3.89896 17.0008 3.76182 16.9723 3.63499 16.9166C3.50816 16.8608 3.39449 16.779 3.30135 16.6764C3.20822 16.5738 3.1377 16.4528 3.0944 16.3212C3.0511 16.1896 3.03597 16.0504 3.05 15.9126C3.33482 12.6744 4.82244 9.66051 7.21957 7.46498C9.61669 5.26945 12.7494 4.05164 16 4.05164C19.2506 4.05164 22.3833 5.26945 24.7804 7.46498C27.1776 9.66051 28.6652 12.6744 28.95 15.9126C28.964 16.0504 28.9489 16.1896 28.9056 16.3212C28.8623 16.4528 28.7918 16.5738 28.6986 16.6764C28.6055 16.779 28.4918 16.8608 28.365 16.9166C28.2382 16.9723 28.101 17.0008 27.9625 17.0001H4.0375Z" stroke="#101828" stroke-width="2" stroke-linecap="round" stroke-linejoin="round"/><path id="Vector_3" d="M11 17C11 8 16 4 16 4C16 4 21 8 21 17" stroke="#101828" stroke-width="2" stroke-linecap="round" stroke-linejoin="round"/></g></g></g></g><defs><clipPath id="clip0_13_56"><rect width="32" height="32" rx="5" fill="white"/></clipPath></defs></svg>