<svg width="32" height="32" viewBox="0 0 32 32" fill="none" xmlns="http://www.w3.org/2000/svg"><g id="Icon-Cpu"><g clip-path="url(#clip0_10_920)"><g id="size=md (32px)"><g id="Cpu"><path id="Vector" d="M19.5 12.5H12.5V19.5H19.5V12.5Z" stroke="#101828" stroke-width="2" stroke-linecap="round" stroke-linejoin="round"/><path id="Vector_2" d="M25 6H7C6.44772 6 6 6.44772 6 7V25C6 25.5523 6.44772 26 7 26H25C25.5523 26 26 25.5523 26 25V7C26 6.44772 25.5523 6 25 6Z" stroke="#101828" stroke-width="2" stroke-linecap="round" stroke-linejoin="round"/><path id="Vector_3" d="M26 13H29" stroke="#101828" stroke-width="2" stroke-linecap="round" stroke-linejoin="round"/><path id="Vector_4" d="M26 19H29" stroke="#101828" stroke-width="2" stroke-linecap="round" stroke-linejoin="round"/><path id="Vector_5" d="M3 13H6" stroke="#101828" stroke-width="2" stroke-linecap="round" stroke-linejoin="round"/><path id="Vector_6" d="M3 19H6" stroke="#101828" stroke-width="2" stroke-linecap="round" stroke-linejoin="round"/><path id="Vector_7" d="M19 26V29" stroke="#101828" stroke-width="2" stroke-linecap="round" stroke-linejoin="round"/><path id="Vector_8" d="M13 26V29" stroke="#101828" stroke-width="2" stroke-linecap="round" stroke-linejoin="round"/><path id="Vector_9" d="M19 3V6" stroke="#101828" stroke-width="2" stroke-linecap="round" stroke-linejoin="round"/><path id="Vector_10" d="M13 3V6" stroke="#101828" stroke-width="2" stroke-linecap="round" stroke-linejoin="round"/></g></g></g></g><defs><clipPath id="clip0_10_920"><rect width="32" height="32" rx="5" fill="white"/></clipPath></defs></svg>