<svg width="32" height="32" viewBox="0 0 32 32" fill="none" xmlns="http://www.w3.org/2000/svg"><g id="Icon-GitMerge"><g clip-path="url(#clip0_10_782)"><g id="size=md (32px)"><g id="GitMerge"><path id="Vector" d="M8.5 27C10.433 27 12 25.433 12 23.5C12 21.567 10.433 20 8.5 20C6.567 20 5 21.567 5 23.5C5 25.433 6.567 27 8.5 27Z" stroke="#101828" stroke-width="2" stroke-linecap="round" stroke-linejoin="round"/><path id="Vector_2" d="M8.5 12C10.433 12 12 10.433 12 8.5C12 6.567 10.433 5 8.5 5C6.567 5 5 6.567 5 8.5C5 10.433 6.567 12 8.5 12Z" stroke="#101828" stroke-width="2" stroke-linecap="round" stroke-linejoin="round"/><path id="Vector_3" d="M23.5 21C25.433 21 27 19.433 27 17.5C27 15.567 25.433 14 23.5 14C21.567 14 20 15.567 20 17.5C20 19.433 21.567 21 23.5 21Z" stroke="#101828" stroke-width="2" stroke-linecap="round" stroke-linejoin="round"/><path id="Vector_4" d="M20 18H16.3125C15.4318 18.0018 14.5616 17.8088 13.7642 17.435C12.9668 17.0611 12.2619 16.5156 11.7 15.8375L8.5 12V20" stroke="#101828" stroke-width="2" stroke-linecap="round" stroke-linejoin="round"/></g></g></g></g><defs><clipPath id="clip0_10_782"><rect width="32" height="32" rx="5" fill="white"/></clipPath></defs></svg>