<svg width="32" height="32" viewBox="0 0 32 32" fill="none" xmlns="http://www.w3.org/2000/svg"><g id="Icon-DotsThreeCircle"><g clip-path="url(#clip0_9_769)"><g id="size=md (32px)"><g id="DotsThreeCircle"><path id="Vector" d="M16 28C22.6274 28 28 22.6274 28 16C28 9.37258 22.6274 4 16 4C9.37258 4 4 9.37258 4 16C4 22.6274 9.37258 28 16 28Z" stroke="#101828" stroke-width="2" stroke-miterlimit="10"/><path id="Vector_2" d="M16 17.5C16.8284 17.5 17.5 16.8284 17.5 16C17.5 15.1716 16.8284 14.5 16 14.5C15.1716 14.5 14.5 15.1716 14.5 16C14.5 16.8284 15.1716 17.5 16 17.5Z" fill="#101828"/><path id="Vector_3" d="M22 17.5C22.8284 17.5 23.5 16.8284 23.5 16C23.5 15.1716 22.8284 14.5 22 14.5C21.1716 14.5 20.5 15.1716 20.5 16C20.5 16.8284 21.1716 17.5 22 17.5Z" fill="#101828"/><path id="Vector_4" d="M10 17.5C10.8284 17.5 11.5 16.8284 11.5 16C11.5 15.1716 10.8284 14.5 10 14.5C9.17157 14.5 8.5 15.1716 8.5 16C8.5 16.8284 9.17157 17.5 10 17.5Z" fill="#101828"/></g></g></g><rect x="0.5" y="0.5" width="31" height="31" rx="4.5" stroke="#3D90E3" stroke-dasharray="10 5"/></g><defs><clipPath id="clip0_9_769"><rect width="32" height="32" rx="5" fill="white"/></clipPath></defs></svg>