<svg width="32" height="32" viewBox="0 0 32 32" fill="none" xmlns="http://www.w3.org/2000/svg"><g id="Icon-PlugsConnected"><g clip-path="url(#clip0_9_2)"><g id="size=md (32px)"><g id="PlugsConnected"><path id="Vector" d="M10 22L3 29" stroke="#101828" stroke-width="2" stroke-linecap="round" stroke-linejoin="round"/><path id="Vector_2" d="M29 3L22 10" stroke="#101828" stroke-width="2" stroke-linecap="round" stroke-linejoin="round"/><path id="Vector_3" d="M16.3825 8.61957L8.62205 16.3801C7.45048 17.5516 7.45048 19.4511 8.62205 20.6227L11.3798 23.3804C12.5513 24.552 14.4508 24.552 15.6224 23.3804L23.3829 15.6199C24.5545 14.4484 24.5545 12.5489 23.3829 11.3773L20.6252 8.61957C19.4536 7.448 17.5541 7.448 16.3825 8.61957Z" stroke="#101828" stroke-width="2" stroke-linecap="round" stroke-linejoin="round"/><path id="Vector_4" d="M11.5 11.5L20.5 20.5" stroke="#101828" stroke-width="2" stroke-linecap="round" stroke-linejoin="round"/><path id="Vector_5" d="M28 20L25 19" stroke="#101828" stroke-width="2" stroke-linecap="round" stroke-linejoin="round"/><path id="Vector_6" d="M7 13L4 12" stroke="#101828" stroke-width="2" stroke-linecap="round" stroke-linejoin="round"/><path id="Vector_7" d="M12 4L13 7" stroke="#101828" stroke-width="2" stroke-linecap="round" stroke-linejoin="round"/><path id="Vector_8" d="M19 25L20 28" stroke="#101828" stroke-width="2" stroke-linecap="round" stroke-linejoin="round"/></g></g></g><rect x="0.5" y="0.5" width="31" height="31" rx="4.5" stroke="#3D90E3" stroke-dasharray="10 5"/></g><defs><clipPath id="clip0_9_2"><rect width="32" height="32" rx="5" fill="white"/></clipPath></defs></svg>