<svg width="32" height="32" viewBox="0 0 32 32" fill="none" xmlns="http://www.w3.org/2000/svg"><g id="Icon-WifiSlash"><g clip-path="url(#clip0_9_1987)"><g id="size=md (32px)"><g id="WifiSlash"><path id="Vector" d="M6 5L26 27" stroke="#101828" stroke-width="2" stroke-linecap="round" stroke-linejoin="round"/><path id="Vector_2" d="M13.3875 7.1875C14.2526 7.06156 15.1257 6.99889 16 7C20.8165 6.98704 25.4419 8.88392 28.8625 12.275" stroke="#101828" stroke-width="2" stroke-linecap="round" stroke-linejoin="round"/><path id="Vector_3" d="M3.13745 12.275C4.83296 10.5961 6.84185 9.26677 9.04995 8.3625" stroke="#101828" stroke-width="2" stroke-linecap="round" stroke-linejoin="round"/><path id="Vector_4" d="M19.0125 13.375C21.1304 13.8996 23.0687 14.9831 24.625 16.5125" stroke="#101828" stroke-width="2" stroke-linecap="round" stroke-linejoin="round"/><path id="Vector_5" d="M7.375 16.5125C9.06246 14.8614 11.1882 13.7291 13.5 13.25" stroke="#101828" stroke-width="2" stroke-linecap="round" stroke-linejoin="round"/><path id="Vector_6" d="M11.6125 20.7625C12.7398 19.6862 14.2229 19.0611 15.7805 19.0058C17.3381 18.9505 18.8618 19.4689 20.0625 20.4625" stroke="#101828" stroke-width="2" stroke-linecap="round" stroke-linejoin="round"/><path id="Vector_7" d="M16 26.5C16.8284 26.5 17.5 25.8284 17.5 25C17.5 24.1716 16.8284 23.5 16 23.5C15.1716 23.5 14.5 24.1716 14.5 25C14.5 25.8284 15.1716 26.5 16 26.5Z" fill="#101828"/></g></g></g><rect x="0.5" y="0.5" width="31" height="31" rx="4.5" stroke="#3D90E3" stroke-dasharray="10 5"/></g><defs><clipPath id="clip0_9_1987"><rect width="32" height="32" rx="5" fill="white"/></clipPath></defs></svg>