<svg width="32" height="32" viewBox="0 0 32 32" fill="none" xmlns="http://www.w3.org/2000/svg"><g id="Icon-LinkSimple"><g clip-path="url(#clip0_9_333)"><g id="size=md (32px)"><g id="LinkSimple"><path id="Vector" d="M11.7625 20.2375L20.2375 11.75" stroke="#101828" stroke-width="2" stroke-linecap="round" stroke-linejoin="round"/><path id="Vector_2" d="M18.1251 22.3625L14.5876 25.9C14.0303 26.4573 13.3687 26.8994 12.6406 27.201C11.9124 27.5026 11.132 27.6578 10.3439 27.6578C8.75214 27.6578 7.22562 27.0255 6.1001 25.9C4.97459 24.7745 4.34229 23.248 4.34229 21.6562C4.34229 20.0645 4.97459 18.538 6.1001 17.4125L9.6376 13.875" stroke="#101828" stroke-width="2" stroke-linecap="round" stroke-linejoin="round"/><path id="Vector_3" d="M22.3625 18.125L25.9 14.5875C27.0255 13.462 27.6578 11.9355 27.6578 10.3437C27.6578 8.75203 27.0255 7.22551 25.9 6.1C24.7745 4.97448 23.248 4.34218 21.6562 4.34218C20.0645 4.34218 18.538 4.97448 17.4125 6.1L13.875 9.6375" stroke="#101828" stroke-width="2" stroke-linecap="round" stroke-linejoin="round"/></g></g></g><rect x="0.5" y="0.5" width="31" height="31" rx="4.5" stroke="#3D90E3" stroke-dasharray="10 5"/></g><defs><clipPath id="clip0_9_333"><rect width="32" height="32" rx="5" fill="white"/></clipPath></defs></svg>