<svg width="32" height="32" viewBox="0 0 32 32" fill="none" xmlns="http://www.w3.org/2000/svg"><g id="Icon-BellSlash"><g clip-path="url(#clip0_9_1555)"><g id="size=md (32px)"><g id="BellSlash"><path id="Vector" d="M6 5L26 27" stroke="#101828" stroke-width="2" stroke-linecap="round" stroke-linejoin="round"/><path id="Vector_2" d="M12 24V25C12 26.0609 12.4214 27.0783 13.1716 27.8284C13.9217 28.5786 14.9391 29 16 29C17.0609 29 18.0783 28.5786 18.8284 27.8284C19.5786 27.0783 20 26.0609 20 25V24" stroke="#101828" stroke-width="2" stroke-linecap="round" stroke-linejoin="round"/><path id="Vector_3" d="M23.2749 24H6.1249C5.94966 23.9994 5.77766 23.9527 5.62613 23.8647C5.4746 23.7767 5.34886 23.6504 5.26151 23.4985C5.17416 23.3466 5.12826 23.1744 5.12842 22.9991C5.12857 22.8239 5.17478 22.6518 5.2624 22.5C6.0874 21.075 7.0249 18.475 7.0249 14V13C7.02387 11.1705 7.57737 9.3836 8.6124 7.875" stroke="#101828" stroke-width="2" stroke-linecap="round" stroke-linejoin="round"/><path id="Vector_4" d="M11.5625 5.175C12.9309 4.38914 14.4846 3.98347 16.0625 4C21.0125 4.0375 24.975 8.15 24.975 13.1125V14C24.975 17.3375 25.5 19.625 26.1 21.1625" stroke="#101828" stroke-width="2" stroke-linecap="round" stroke-linejoin="round"/></g></g></g><rect x="0.5" y="0.5" width="31" height="31" rx="4.5" stroke="#3D90E3" stroke-dasharray="10 5"/></g><defs><clipPath id="clip0_9_1555"><rect width="32" height="32" rx="5" fill="white"/></clipPath></defs></svg>