<svg width="32" height="32" viewBox="0 0 32 32" fill="none" xmlns="http://www.w3.org/2000/svg"><g id="Icon-Plug"><g clip-path="url(#clip0_9_76)"><g id="size=md (32px)"><g id="Plug"><path id="Vector" d="M26.4999 16.5L19.3249 23.675C18.9545 24.0469 18.5142 24.342 18.0294 24.5433C17.5446 24.7447 17.0249 24.8483 16.4999 24.8483C15.975 24.8483 15.4552 24.7447 14.9705 24.5433C14.4857 24.342 14.0454 24.0469 13.6749 23.675L8.32494 18.325C7.95305 17.9545 7.65796 17.5143 7.45661 17.0295C7.25526 16.5447 7.15161 16.0249 7.15161 15.5C7.15161 14.9751 7.25526 14.4553 7.45661 13.9705C7.65796 13.4857 7.95305 13.0455 8.32494 12.675L15.4999 5.5" stroke="#101828" stroke-width="2" stroke-linecap="round" stroke-linejoin="round"/><path id="Vector_2" d="M11 21L4 28" stroke="#101828" stroke-width="2" stroke-linecap="round" stroke-linejoin="round"/><path id="Vector_3" d="M18 8L23 3" stroke="#101828" stroke-width="2" stroke-linecap="round" stroke-linejoin="round"/><path id="Vector_4" d="M29 9L24 14" stroke="#101828" stroke-width="2" stroke-linecap="round" stroke-linejoin="round"/><path id="Vector_5" d="M28 18L14 4" stroke="#101828" stroke-width="2" stroke-linecap="round" stroke-linejoin="round"/></g></g></g><rect x="0.5" y="0.5" width="31" height="31" rx="4.5" stroke="#3D90E3" stroke-dasharray="10 5"/></g><defs><clipPath id="clip0_9_76"><rect width="32" height="32" rx="5" fill="white"/></clipPath></defs></svg>