<svg width="32" height="32" viewBox="0 0 32 32" fill="none" xmlns="http://www.w3.org/2000/svg"><g id="Icon-DeviceMobileCamera"><g clip-path="url(#clip0_9_970)"><g id="size=md (32px)"><g id="DeviceMobileCamera"><path id="Vector" d="M24 27V5C24 3.89543 23.1046 3 22 3L10 3C8.89543 3 8 3.89543 8 5L8 27C8 28.1046 8.89543 29 10 29H22C23.1046 29 24 28.1046 24 27Z" stroke="#101828" stroke-width="2" stroke-linecap="round" stroke-linejoin="round"/><path id="Vector_2" d="M16 9C16.8284 9 17.5 8.32843 17.5 7.5C17.5 6.67157 16.8284 6 16 6C15.1716 6 14.5 6.67157 14.5 7.5C14.5 8.32843 15.1716 9 16 9Z" fill="#101828"/></g></g></g><rect x="0.5" y="0.5" width="31" height="31" rx="4.5" stroke="#3D90E3" stroke-dasharray="10 5"/></g><defs><clipPath id="clip0_9_970"><rect width="32" height="32" rx="5" fill="white"/></clipPath></defs></svg>