<svg width="32" height="32" viewBox="0 0 32 32" fill="none" xmlns="http://www.w3.org/2000/svg"><g id="Icon-Export"><g clip-path="url(#clip0_4_508)"><g id="size=md (32px)"><path id="Vector" d="M10.75 7.25L16 2L21.25 7.25" stroke="#101828" stroke-width="2" stroke-linecap="round" stroke-linejoin="round"/><path id="Vector_2" d="M16 16V2" stroke="#101828" stroke-width="2" stroke-linecap="round" stroke-linejoin="round"/><path id="Vector_3" d="M22 12H25C25.2652 12 25.5196 12.1054 25.7071 12.2929C25.8946 12.4804 26 12.7348 26 13V26C26 26.2652 25.8946 26.5196 25.7071 26.7071C25.5196 26.8946 25.2652 27 25 27H7C6.73478 27 6.48043 26.8946 6.29289 26.7071C6.10536 26.5196 6 26.2652 6 26V13C6 12.7348 6.10536 12.4804 6.29289 12.2929C6.48043 12.1054 6.73478 12 7 12H10" stroke="#101828" stroke-width="2" stroke-linecap="round" stroke-linejoin="round"/></g></g><rect x="0.5" y="0.5" width="31" height="31" rx="4.5" stroke="#3D90E3" stroke-dasharray="10 5"/></g><defs><clipPath id="clip0_4_508"><rect width="32" height="32" rx="5" fill="white"/></clipPath></defs></svg>