<svg width="32" height="32" viewBox="0 0 32 32" fill="none" xmlns="http://www.w3.org/2000/svg"><g id="Icon-ChatCircleDots"><g clip-path="url(#clip0_4_710)"><g id="size=md (32px)"><path id="Vector" d="M5.67497 22.125C4.18608 19.613 3.66528 16.6439 4.21035 13.7752C4.75543 10.9064 6.32888 8.33527 8.63532 6.54441C10.9418 4.75354 13.8226 3.86613 16.7369 4.04878C19.6513 4.23142 22.3988 5.47155 24.4636 7.53636C26.5284 9.60117 27.7685 12.3487 27.9512 15.263C28.1338 18.1774 27.2464 21.0582 25.4556 23.3646C23.6647 25.6711 21.0935 27.2445 18.2248 27.7896C15.356 28.3347 12.387 27.8139 9.87497 26.325V26.325L5.72497 27.5C5.55494 27.5497 5.37467 27.5528 5.20304 27.5089C5.03142 27.465 4.87476 27.3757 4.7495 27.2505C4.62423 27.1252 4.53497 26.9685 4.49107 26.7969C4.44717 26.6253 4.45024 26.445 4.49997 26.275L5.67497 22.125Z" stroke="#101828" stroke-width="2" stroke-linecap="round" stroke-linejoin="round"/><path id="Vector_2" d="M16 17.5C16.8284 17.5 17.5 16.8284 17.5 16C17.5 15.1716 16.8284 14.5 16 14.5C15.1716 14.5 14.5 15.1716 14.5 16C14.5 16.8284 15.1716 17.5 16 17.5Z" fill="#101828"/><path id="Vector_3" d="M10 17.5C10.8284 17.5 11.5 16.8284 11.5 16C11.5 15.1716 10.8284 14.5 10 14.5C9.17157 14.5 8.5 15.1716 8.5 16C8.5 16.8284 9.17157 17.5 10 17.5Z" fill="#101828"/><path id="Vector_4" d="M22 17.5C22.8284 17.5 23.5 16.8284 23.5 16C23.5 15.1716 22.8284 14.5 22 14.5C21.1716 14.5 20.5 15.1716 20.5 16C20.5 16.8284 21.1716 17.5 22 17.5Z" fill="#101828"/></g></g><rect x="0.5" y="0.5" width="31" height="31" rx="4.5" stroke="#3D90E3" stroke-dasharray="10 5"/></g><defs><clipPath id="clip0_4_710"><rect width="32" height="32" rx="5" fill="white"/></clipPath></defs></svg>