<svg width="32" height="32" viewBox="0 0 32 32" fill="none" xmlns="http://www.w3.org/2000/svg"><g id="Icon-PhoneSlash"><g clip-path="url(#clip0_4_243)"><g id="size=md (32px)"><path id="Vector" d="M6 5L26 27" stroke="#101828" stroke-width="2" stroke-linecap="round" stroke-linejoin="round"/><path id="Vector_2" d="M14.375 14.2125C13.7497 14.3105 13.1347 14.4653 12.5375 14.675C12.3748 14.7316 12.2295 14.8292 12.1156 14.9584C12.0017 15.0876 11.9232 15.244 11.8875 15.4125L11.1625 19.1C11.1283 19.2635 11.0545 19.4162 10.9478 19.5448C10.841 19.6733 10.7045 19.7738 10.55 19.8375L4.63751 22.2C4.43639 22.2833 4.21337 22.2979 4.00313 22.2414C3.7929 22.1848 3.60723 22.0604 3.47501 21.8875C2.58184 20.7334 2.1399 19.2933 2.23194 17.8369C2.32397 16.3805 2.94366 15.0075 3.97501 13.975C5.8057 12.1485 8.02869 10.7634 10.475 9.925" stroke="#101828" stroke-width="2" stroke-linecap="round" stroke-linejoin="round"/><path id="Vector_3" d="M15.0625 9.025C17.4497 8.89294 19.8378 9.26551 22.0713 10.1184C24.3048 10.9713 26.3335 12.2854 28.025 13.975C29.0563 15.0075 29.676 16.3805 29.7681 17.8369C29.8601 19.2933 29.4182 20.7334 28.525 21.8875C28.3928 22.0604 28.2071 22.1848 27.9969 22.2414C27.7866 22.2979 27.5636 22.2833 27.3625 22.2L26.8625 22" stroke="#101828" stroke-width="2" stroke-linecap="round" stroke-linejoin="round"/></g></g><rect x="0.5" y="0.5" width="31" height="31" rx="4.5" stroke="#3D90E3" stroke-dasharray="10 5"/></g><defs><clipPath id="clip0_4_243"><rect width="32" height="32" rx="5" fill="white"/></clipPath></defs></svg>