<svg width="32" height="32" viewBox="0 0 32 32" fill="none" xmlns="http://www.w3.org/2000/svg"><g id="Icon-ChatsCircle"><g clip-path="url(#clip0_4_649)"><g id="size=md (32px)"><path id="Vector" d="M4.26247 17.5875C3.14167 15.6992 2.74882 13.4667 3.1577 11.3092C3.56659 9.15175 4.74907 7.21778 6.48308 5.87053C8.21708 4.52328 10.3833 3.85545 12.5749 3.99245C14.7665 4.12946 16.8327 5.06188 18.3854 6.61459C19.9381 8.16731 20.8705 10.2335 21.0075 12.4251C21.1445 14.6167 20.4767 16.7829 19.1294 18.5169C17.7822 20.2509 15.8482 21.4334 13.6908 21.8423C11.5333 22.2512 9.30077 21.8583 7.41248 20.7375L4.29998 21.625C4.17173 21.6611 4.0362 21.6623 3.90732 21.6286C3.77843 21.5949 3.66085 21.5275 3.56665 21.4333C3.47246 21.3391 3.40505 21.2215 3.37136 21.0927C3.33767 20.9638 3.33892 20.8282 3.37498 20.7L4.26247 17.5875Z" stroke="#101828" stroke-width="2" stroke-linecap="round" stroke-linejoin="round"/><path id="Vector_2" d="M11.5125 21.9875C11.9531 23.2436 12.6671 24.3861 13.6031 25.3325C14.5391 26.279 15.6736 27.0057 16.9247 27.4602C18.1757 27.9147 19.5122 28.0856 20.8374 27.9607C22.1626 27.8357 23.4435 27.4179 24.5875 26.7375V26.7375L27.7 27.625C27.8283 27.6611 27.9638 27.6623 28.0927 27.6286C28.2216 27.5949 28.3391 27.5275 28.4333 27.4333C28.5275 27.3391 28.5949 27.2215 28.6286 27.0927C28.6623 26.9638 28.6611 26.8282 28.625 26.7L27.7375 23.5875C28.5298 22.2575 28.9652 20.7454 29.0014 19.1977C29.0376 17.65 28.6734 16.1192 27.9441 14.7537C27.2148 13.3881 26.1451 12.2341 24.8387 11.4034C23.5323 10.5728 22.0335 10.0937 20.4875 10.0125" stroke="#101828" stroke-width="2" stroke-linecap="round" stroke-linejoin="round"/></g></g><rect x="0.5" y="0.5" width="31" height="31" rx="4.5" stroke="#3D90E3" stroke-dasharray="10 5"/></g><defs><clipPath id="clip0_4_649"><rect width="32" height="32" rx="5" fill="white"/></clipPath></defs></svg>