<svg width="32" height="32" viewBox="0 0 32 32" fill="none" xmlns="http://www.w3.org/2000/svg"><g id="Icon-ChatTeardropDots"><g clip-path="url(#clip0_4_607)"><g id="size=md (32px)"><path id="Vector" d="M16.5 27H5.96251C5.83564 27.0017 5.70973 26.9779 5.5922 26.9302C5.47466 26.8824 5.36789 26.8115 5.27817 26.7218C5.18846 26.6321 5.11762 26.5253 5.06985 26.4078C5.02207 26.2903 4.99833 26.1644 5.00001 26.0375V15.5C5.00001 12.45 6.21161 9.52494 8.36828 7.36827C10.5249 5.2116 13.45 4 16.5 4V4C18.0102 4 19.5056 4.29746 20.9009 4.87539C22.2961 5.45331 23.5639 6.3004 24.6317 7.36827C25.6996 8.43615 26.5467 9.7039 27.1246 11.0991C27.7026 12.4944 28 13.9898 28 15.5V15.5C28 17.0102 27.7026 18.5056 27.1246 19.9009C26.5467 21.2961 25.6996 22.5639 24.6317 23.6317C23.5639 24.6996 22.2961 25.5467 20.9009 26.1246C19.5056 26.7025 18.0102 27 16.5 27V27Z" stroke="#101828" stroke-width="2" stroke-linecap="round" stroke-linejoin="round"/><path id="Vector_2" d="M16.5 17.5C17.3284 17.5 18 16.8284 18 16C18 15.1716 17.3284 14.5 16.5 14.5C15.6716 14.5 15 15.1716 15 16C15 16.8284 15.6716 17.5 16.5 17.5Z" fill="#101828"/><path id="Vector_3" d="M10.5 17.5C11.3284 17.5 12 16.8284 12 16C12 15.1716 11.3284 14.5 10.5 14.5C9.67157 14.5 9 15.1716 9 16C9 16.8284 9.67157 17.5 10.5 17.5Z" fill="#101828"/><path id="Vector_4" d="M22.5 17.5C23.3284 17.5 24 16.8284 24 16C24 15.1716 23.3284 14.5 22.5 14.5C21.6716 14.5 21 15.1716 21 16C21 16.8284 21.6716 17.5 22.5 17.5Z" fill="#101828"/></g></g><rect x="0.5" y="0.5" width="31" height="31" rx="4.5" stroke="#3D90E3" stroke-dasharray="10 5"/></g><defs><clipPath id="clip0_4_607"><rect width="32" height="32" rx="5" fill="white"/></clipPath></defs></svg>