<svg width="32" height="32" viewBox="0 0 32 32" fill="none" xmlns="http://www.w3.org/2000/svg"><g id="Icon-Voicemail"><g clip-path="url(#clip0_4_80)"><g id="size=md (32px)"><path id="Vector" d="M7 22C10.3137 22 13 19.3137 13 16C13 12.6863 10.3137 10 7 10C3.68629 10 1 12.6863 1 16C1 19.3137 3.68629 22 7 22Z" stroke="#101828" stroke-width="2" stroke-linecap="round" stroke-linejoin="round"/><path id="Vector_2" d="M25 22C28.3137 22 31 19.3137 31 16C31 12.6863 28.3137 10 25 10C21.6863 10 19 12.6863 19 16C19 19.3137 21.6863 22 25 22Z" stroke="#101828" stroke-width="2" stroke-linecap="round" stroke-linejoin="round"/><path id="Vector_3" d="M7 22H25" stroke="#101828" stroke-width="2" stroke-linecap="round" stroke-linejoin="round"/></g></g><rect x="0.5" y="0.5" width="31" height="31" rx="4.5" stroke="#3D90E3" stroke-dasharray="10 5"/></g><defs><clipPath id="clip0_4_80"><rect width="32" height="32" rx="5" fill="white"/></clipPath></defs></svg>