<svg xmlns="http://www.w3.org/2000/svg" width="42" height="30" fill="none"><g filter="url(#a)"><g clip-path="url(#b)"><mask id="c" width="36" height="24" x="3" y="2" maskUnits="userSpaceOnUse" style="mask-type:alpha"><path fill="#fff" d="M3 2h36v24H3z"/></mask><g mask="url(#c)"><path fill="#67BD38" fill-rule="evenodd" d="M27.75 2H39v24H27.75V2Z" clip-rule="evenodd"/><path fill="#D51700" fill-rule="evenodd" d="M14.25 2h13.5v24h-13.5V2Z" clip-rule="evenodd"/><path fill="#272727" fill-rule="evenodd" d="M3 2h11.25v24H3V2Z" clip-rule="evenodd"/><path fill="#F7FCFF" fill-rule="evenodd" d="m17.049 9.977.389.217c-.649.97-1.085 1.86-1.31 2.668a.972.972 0 0 1 .216.241c.176.271.324.534.444.79l-.517.195a5.835 5.835 0 0 0-.287-.533c-.053.394-.05.767.01 1.118.095.009.174.026.266.056.33.107.634.224.91.35l-.254.446a7.63 7.63 0 0 0-.776-.303l.005.016c.24.646.609 1.24 1.105 1.783.078-.015.15-.02.235-.02.352 0 .682.017.99.052l-.067.496a7.663 7.663 0 0 0-.667-.045c.446.396.97.762 1.572 1.098l-.237.356a8.915 8.915 0 0 1-1.905-1.391 7.87 7.87 0 0 0-.257.096l-.04.015c.457.426.997.818 1.62 1.175l-.242.353a9.001 9.001 0 0 1-1.85-1.376 1.368 1.368 0 0 1-.693-.008l.15-.481c.037.01.072.016.108.02a6 6 0 0 1-1.075-1.84 3.633 3.633 0 0 1-.11-.36 1.277 1.277 0 0 1-.506-.2l.326-.406a.775.775 0 0 0 .086.049c-.059-.613.022-1.274.24-1.984a1.031 1.031 0 0 1-.272-.473l.478-.11c.258-.648.622-1.334 1.092-2.058l.392.213c-.512.79-.892 1.526-1.14 2.212.07.056.154.116.258.184.25-.806.688-1.676 1.313-2.61Zm-1.451 3.142a9.318 9.318 0 0 0-.287-.192c-.174.636-.225 1.223-.155 1.763.084 0 .179-.003.288-.01l.09-.004a4.325 4.325 0 0 1 .064-1.557Zm-.13 2.06.177-.01c.02.069.044.136.069.203a5.806 5.806 0 0 0 1.079 1.795l-.093.036c-.08.031-.152.058-.218.08a5.655 5.655 0 0 1-1.157-1.894 3.197 3.197 0 0 1-.066-.202 6.51 6.51 0 0 0 .21-.009Zm9.468-5.202-.389.217c.649.97 1.084 1.86 1.31 2.668a.972.972 0 0 0-.216.241 6.643 6.643 0 0 0-.444.79l.517.195c.081-.173.177-.35.287-.533.053.394.05.767-.01 1.118a1.165 1.165 0 0 0-.266.056 8.472 8.472 0 0 0-.911.35l.255.446a7.62 7.62 0 0 1 .776-.303l-.005.016a5.442 5.442 0 0 1-1.105 1.783A1.196 1.196 0 0 0 24.5 17a8.79 8.79 0 0 0-.99.052l.067.496c.21-.024.432-.04.667-.045a8.79 8.79 0 0 1-1.572 1.098l.237.356a8.915 8.915 0 0 0 1.905-1.391c.068.024.151.055.257.096l.04.015a8.733 8.733 0 0 1-1.62 1.175l.242.353a9.001 9.001 0 0 0 1.85-1.376c.245.056.451.054.693-.008l-.15-.481a.837.837 0 0 1-.108.02 6 6 0 0 0 1.075-1.84c.042-.118.079-.238.11-.36.186-.031.343-.093.506-.2l-.326-.406a.784.784 0 0 1-.086.049c.058-.613-.022-1.274-.24-1.984.136-.14.22-.284.271-.473l-.477-.11a11.862 11.862 0 0 0-1.092-2.058l-.393.213c.513.79.893 1.526 1.141 2.212-.07.056-.154.116-.259.184-.249-.806-.687-1.676-1.312-2.61Zm1.451 3.142a9.318 9.318 0 0 1 .287-.192c.174.636.225 1.223.155 1.763-.084 0-.179-.003-.288-.01l-.09-.004a4.325 4.325 0 0 0-.064-1.557Zm.13 2.06a14.263 14.263 0 0 0-.177-.01 3.43 3.43 0 0 1-.069.203 5.808 5.808 0 0 1-1.079 1.795l.093.036c.08.031.152.058.218.08a5.655 5.655 0 0 0 1.157-1.894c.024-.066.046-.134.066-.202a6.51 6.51 0 0 1-.21-.009Z" clip-rule="evenodd"/><path fill="#F7FCFF" fill-rule="evenodd" d="m19.035 18.264-1.256 1.105s1.083.59 3.124.59c2.041 0 3.23-.59 3.23-.59l-.955-1.105s-1.301.448-2.222.448c-.922 0-1.921-.448-1.921-.448Z" clip-rule="evenodd"/><path stroke="#C00001" stroke-width=".5" d="M19.06 18.969s1.064.223 1.879.223 1.878-.223 1.878-.223"/><path fill="#F7FCFF" fill-rule="evenodd" d="M22.003 11.458c0 .436-.445.789-.996.792h1.005l.352.203h.177v-1.585h.547v1.585h.192v.27h-.192v2.873c0 .17.203.46.628.836l.483.43h-6.724l1.117-.477c.21-.09.36-.348.425-.804v-2.858h-.48v-.27h.48v-1.585h.547v1.585h.058l.298-.203h1.073c-.551-.003-.996-.356-.996-.792 0-.437.449-.791 1.003-.791.554 0 1.003.354 1.003.791Zm-2.439 1.265h2.977v2.873c0 .232.123.484.364.765H19.34a2.11 2.11 0 0 0 .225-.749v-2.889ZM21.091 14h-1.186v2.083h2.372L21.091 14Zm1.224-5.844.002.003-.002-.003Zm1.734.542.001.01v-.01Zm.337.037.002-.005-.001.002-.001.003Zm-1.363.613h.006-.006Z" clip-rule="evenodd"/><path fill="#F7FCFF" fill-rule="evenodd" d="m17.617 12.668-.224.144.23.301c-.197.063-.515.223-.515.6 0 .545-.216.992-.216.992l.644.367s.067-.636.242-.998a.624.624 0 0 1 .34-.317l1 1.306.224-.144-1.725-2.25Zm6.838 0 .224.144-.231.301c.198.063.516.223.516.6 0 .545.216.992.216.992l-.644.367s-.067-.636-.242-.998a.624.624 0 0 0-.34-.317l-1 1.306-.224-.144 1.725-2.25Z" clip-rule="evenodd"/></g></g></g><defs><clipPath id="b"><rect width="36" height="24" x="3" y="2" fill="#fff" rx="2"/></clipPath><filter id="a" width="42" height="30" x="0" y="0" color-interpolation-filters="sRGB" filterUnits="userSpaceOnUse"><feFlood flood-opacity="0" result="BackgroundImageFix"/><feColorMatrix in="SourceAlpha" result="hardAlpha" values="0 0 0 0 0 0 0 0 0 0 0 0 0 0 0 0 0 0 127 0"/><feOffset dy="1"/><feGaussianBlur stdDeviation="1"/><feColorMatrix values="0 0 0 0 0.0627451 0 0 0 0 0.0941176 0 0 0 0 0.156863 0 0 0 0.06 0"/><feBlend in2="BackgroundImageFix" result="effect1_dropShadow_91_29935"/><feColorMatrix in="SourceAlpha" result="hardAlpha" values="0 0 0 0 0 0 0 0 0 0 0 0 0 0 0 0 0 0 127 0"/><feOffset dy="1"/><feGaussianBlur stdDeviation="1.5"/><feColorMatrix values="0 0 0 0 0.0627451 0 0 0 0 0.0941176 0 0 0 0 0.156863 0 0 0 0.1 0"/><feBlend in2="effect1_dropShadow_91_29935" result="effect2_dropShadow_91_29935"/><feBlend in="SourceGraphic" in2="effect2_dropShadow_91_29935" result="shape"/></filter></defs></svg>