<svg width="42" height="30" viewBox="0 0 42 30" fill="none" xmlns="http://www.w3.org/2000/svg"><g id="Country=BF - Burkina Faso, Size=sm (36x24)" filter="url(#filter0_dd_91_29648)"><g clip-path="url(#clip0_91_29648)"><g id="flag"><mask id="mask0_91_29648" style="mask-type:alpha" maskUnits="userSpaceOnUse" x="3" y="2" width="36" height="24"><rect id="mask" x="3" y="2" width="36" height="24" fill="white"/></mask><g mask="url(#mask0_91_29648)"><g id="contents"><path id="background" fill-rule="evenodd" clip-rule="evenodd" d="M3 2V26H39V2H3Z" fill="#5EAA22"/><mask id="mask1_91_29648" style="mask-type:alpha" maskUnits="userSpaceOnUse" x="3" y="2" width="36" height="24"><path id="background_2" fill-rule="evenodd" clip-rule="evenodd" d="M3 2V26H39V2H3Z" fill="white"/></mask><g mask="url(#mask1_91_29648)"><path id="top" fill-rule="evenodd" clip-rule="evenodd" d="M3 2V14H39V2H3Z" fill="#C51918"/><path id="Star 5" fill-rule="evenodd" clip-rule="evenodd" d="M21.0397 17.7705L15.7489 21.3298L17.4418 15.5329L12.4795 12.0036H18.394L21.039 6.85767L23.684 12.0036H29.5985L24.5836 15.5375L26.3291 21.3298L21.0397 17.7705Z" fill="#FECA00"/></g></g></g></g></g></g><defs><filter id="filter0_dd_91_29648" x="0" y="0" width="42" height="30" filterUnits="userSpaceOnUse" color-interpolation-filters="sRGB"><feFlood flood-opacity="0" result="BackgroundImageFix"/><feColorMatrix in="SourceAlpha" values="0 0 0 0 0 0 0 0 0 0 0 0 0 0 0 0 0 0 127 0" result="hardAlpha"/><feOffset dy="1"/><feGaussianBlur stdDeviation="1"/><feColorMatrix values="0 0 0 0 0.0627451 0 0 0 0 0.0941176 0 0 0 0 0.156863 0 0 0 0.06 0"/><feBlend in2="BackgroundImageFix" result="effect1_dropShadow_91_29648"/><feColorMatrix in="SourceAlpha" values="0 0 0 0 0 0 0 0 0 0 0 0 0 0 0 0 0 0 127 0" result="hardAlpha"/><feOffset dy="1"/><feGaussianBlur stdDeviation="1.5"/><feColorMatrix values="0 0 0 0 0.0627451 0 0 0 0 0.0941176 0 0 0 0 0.156863 0 0 0 0.1 0"/><feBlend in2="effect1_dropShadow_91_29648" result="effect2_dropShadow_91_29648"/><feBlend in="SourceGraphic" in2="effect2_dropShadow_91_29648" result="shape"/></filter><clipPath id="clip0_91_29648"><rect x="3" y="2" width="36" height="24" rx="2" fill="white"/></clipPath></defs></svg>