<svg width="42" height="30" viewBox="0 0 42 30" fill="none" xmlns="http://www.w3.org/2000/svg"><g id="Country=BM - Bermuda, Size=sm (36x24)" filter="url(#filter0_dd_91_29558)"><g clip-path="url(#clip0_91_29558)"><g id="flag"><mask id="mask0_91_29558" style="mask-type:alpha" maskUnits="userSpaceOnUse" x="3" y="2" width="36" height="24"><rect id="mask" x="3" y="2" width="36" height="24" fill="white"/></mask><g mask="url(#mask0_91_29558)"><g id="contents"><path id="background" fill-rule="evenodd" clip-rule="evenodd" d="M3 2V26H39V2H3Z" fill="#AF0100"/><mask id="mask1_91_29558" style="mask-type:alpha" maskUnits="userSpaceOnUse" x="3" y="2" width="36" height="24"><path id="background_2" fill-rule="evenodd" clip-rule="evenodd" d="M3 2V26H39V2H3Z" fill="white"/></mask><g mask="url(#mask1_91_29558)"><g id="mark"><path id="Path" fill-rule="evenodd" clip-rule="evenodd" d="M26.6587 13.0427L36.6585 13.0427V22.0326C36.6585 22.0326 36.3481 23.2702 34.4232 24.0874C32.4982 24.9046 31.6586 24.9046 31.6586 24.9046C31.6586 24.9046 28.5925 24.2349 27.9585 23.6078C27.3246 22.9807 26.6587 22.7487 26.6587 21.6525C26.6587 20.5563 26.6587 13.0427 26.6587 13.0427Z" fill="white"/><mask id="mask2_91_29558" style="mask-type:alpha" maskUnits="userSpaceOnUse" x="26" y="13" width="11" height="12"><path id="Path_2" fill-rule="evenodd" clip-rule="evenodd" d="M26.6587 13.0427L36.6585 13.0427V22.0326C36.6585 22.0326 36.3481 23.2702 34.4232 24.0874C32.4982 24.9046 31.6586 24.9046 31.6586 24.9046C31.6586 24.9046 28.5925 24.2349 27.9585 23.6078C27.3246 22.9807 26.6587 22.7487 26.6587 21.6525C26.6587 20.5563 26.6587 13.0427 26.6587 13.0427Z" fill="white"/></mask><g mask="url(#mask2_91_29558)"><path id="Combined Shape" fill-rule="evenodd" clip-rule="evenodd" d="M31.6379 13.57C31.6754 13.5219 31.6951 13.4758 31.6951 13.4758L31.6916 13.6262C31.7273 13.6558 31.7713 13.6779 31.8229 13.6779L32.0446 13.5612C32.0446 13.5612 31.9936 13.819 32.0605 13.8117C32.0605 13.8117 32.2672 13.6903 32.3491 13.7559C32.3491 13.7559 32.1085 14.0009 32.3982 14.0025C32.3982 14.0025 32.7624 13.9504 32.7309 14.1007C32.7309 14.1007 32.458 14.5461 32.5726 14.5743L33.0232 14.5626C33.0232 14.5626 32.7213 14.796 32.7294 14.8943L32.8797 14.9992C32.8797 14.9992 32.9641 14.8147 33.0351 14.9657C33.0351 14.9657 33.0443 15.2399 32.9971 15.2399L32.5965 15.3538C32.5965 15.3538 32.5706 15.4879 32.7138 15.4879C32.7138 15.4879 33.0453 15.3632 33.0547 15.4898C33.0547 15.4898 33.011 15.6363 32.9917 15.7599C32.9917 15.7599 32.9707 16.2085 32.9675 16.2472C32.9675 16.2472 32.9937 16.2304 33.2458 16.4943C33.2458 16.4943 33.882 16.8517 33.9986 16.7694C34.0307 16.7467 34.0518 16.7003 34.0755 16.6477C34.1379 16.5099 34.2193 16.33 34.5711 16.4271L34.5742 16.4279C35.0575 16.5612 35.175 16.5936 35.0528 16.7694C34.9303 16.9456 34.4651 17.3654 34.4651 17.3654L34.0618 18.8035H34.9257C35.1863 18.8035 35.4258 18.8933 35.4717 19.0853C35.5176 19.2774 35.5296 19.6507 35.5296 19.6952C35.5296 19.7013 35.5285 19.7095 35.5272 19.7193C35.5189 19.7817 35.5025 19.9054 35.7089 19.9054C35.7089 19.9054 36.1221 19.9529 36.0365 19.9796C36.0365 19.9796 35.7437 19.9294 35.7416 20.1585C35.7416 20.1585 35.6291 20.188 35.6836 20.4709C35.6836 20.4709 35.9108 21.0906 35.76 20.9628C35.76 20.9628 35.4512 20.6406 35.4512 20.5034C35.4512 20.5034 35.2307 20.5806 35.2375 20.7826C35.2375 20.7826 35.0288 21.0307 35.0351 20.7881C35.0351 20.7881 35.3886 20.192 35.1911 20.3271C35.1911 20.3271 34.9351 20.8193 34.9015 20.7447L33.9521 20.5164L33.5904 21.9312C33.5904 21.9312 33.6867 22.1967 33.9521 22.1967C34.0483 22.1967 34.1337 22.1633 34.2116 22.1328C34.3487 22.0793 34.4625 22.0348 34.5711 22.1967C34.7414 22.4506 34.8172 22.4744 34.9015 22.4744C34.9859 22.4744 35.0844 22.5718 35.0351 22.7208C34.9859 22.8698 34.7646 22.9818 34.6679 22.9818C34.6322 22.9818 34.6417 23.0088 34.6536 23.0428C34.674 23.1012 34.7018 23.1806 34.5216 23.1806C34.3787 23.1806 34.3073 23.1654 34.2359 23.1502C34.1648 23.1351 34.0937 23.1199 33.9521 23.1199C33.9189 23.1199 33.8859 23.1203 33.8536 23.1206C33.6098 23.123 33.4026 23.1251 33.4026 22.9818C33.4026 22.8429 33.2147 22.7198 33.0483 22.6108C33.0205 22.5925 32.9932 22.5747 32.9675 22.5572C32.7886 22.4354 32.3982 21.0593 32.3982 21.0593L31.6599 16.9261L31.6379 15.9659L31.6158 16.9261L30.8775 21.0593C30.8775 21.0593 30.4872 22.4354 30.3082 22.5572C30.2825 22.5747 30.2553 22.5925 30.2274 22.6108C30.061 22.7198 29.8732 22.8429 29.8732 22.9818C29.8732 23.1251 29.666 23.123 29.4221 23.1206C29.3898 23.1203 29.3569 23.1199 29.3237 23.1199C29.182 23.1199 29.1109 23.1351 29.0398 23.1502C28.9684 23.1654 28.897 23.1806 28.7542 23.1806C28.5739 23.1806 28.6017 23.1012 28.6221 23.0428C28.6341 23.0088 28.6435 22.9818 28.6079 22.9818C28.5111 22.9818 28.2898 22.8698 28.2406 22.7208C28.1913 22.5718 28.2898 22.4744 28.3742 22.4744C28.4585 22.4744 28.5343 22.4506 28.7046 22.1967C28.8132 22.0348 28.9271 22.0793 29.0641 22.1328C29.142 22.1633 29.2275 22.1967 29.3237 22.1967C29.589 22.1967 29.6854 21.9312 29.6854 21.9312L29.3237 20.5164L28.3742 20.7447C28.3406 20.8193 28.0846 20.3271 28.0846 20.3271C27.8871 20.192 28.2406 20.7881 28.2406 20.7881C28.2469 21.0307 28.0382 20.7826 28.0382 20.7826C28.045 20.5806 27.8246 20.5034 27.8246 20.5034C27.8246 20.6406 27.5157 20.9628 27.5157 20.9628C27.365 21.0906 27.5922 20.4709 27.5922 20.4709C27.6466 20.188 27.5341 20.1585 27.5341 20.1585C27.5321 19.9294 27.2392 19.9796 27.2392 19.9796C27.1536 19.9529 27.5668 19.9054 27.5668 19.9054C27.7732 19.9054 27.7568 19.7817 27.7485 19.7193C27.7472 19.7095 27.7461 19.7013 27.7461 19.6952C27.7461 19.6507 27.7581 19.2774 27.804 19.0853C27.85 18.8933 28.0894 18.8035 28.35 18.8035H29.2139L28.8106 17.3654C28.8106 17.3654 28.3454 16.9456 28.223 16.7694C28.1008 16.5936 28.2182 16.5612 28.7015 16.4279L28.7046 16.4271C29.0564 16.33 29.1378 16.5099 29.2002 16.6477C29.224 16.7003 29.245 16.7467 29.2772 16.7694C29.3938 16.8517 30.0299 16.4943 30.0299 16.4943C30.282 16.2304 30.3082 16.2472 30.3082 16.2472C30.3051 16.2085 30.284 15.7599 30.284 15.7599C30.2647 15.6363 30.221 15.4898 30.221 15.4898C30.2305 15.3632 30.5619 15.4879 30.5619 15.4879C30.7051 15.4879 30.6792 15.3538 30.6792 15.3538L30.2786 15.2399C30.2314 15.2399 30.2406 14.9657 30.2406 14.9657C30.3117 14.8147 30.396 14.9992 30.396 14.9992L30.5464 14.8943C30.5545 14.796 30.2525 14.5626 30.2525 14.5626L30.7031 14.5743C30.8178 14.5461 30.5449 14.1007 30.5449 14.1007C30.5133 13.9504 30.8775 14.0025 30.8775 14.0025C31.1672 14.0009 30.9266 13.7559 30.9266 13.7559C31.0085 13.6903 31.2152 13.8117 31.2152 13.8117C31.2821 13.819 31.2312 13.5612 31.2312 13.5612L31.4528 13.6779C31.5044 13.6779 31.5484 13.6558 31.5841 13.6262L31.5807 13.4758C31.5807 13.4758 31.6003 13.5219 31.6379 13.57Z" fill="#CF142B"/><g id="Group"><path id="Combined Shape_2" fill-rule="evenodd" clip-rule="evenodd" d="M26.8752 22.0002L26.5073 21.6788V25.3217H30.8634H32.394H36.75V21.6788L36.3821 22.0002C36.4372 21.616 36.3537 21.7396 36.2539 21.8872C36.2067 21.9571 36.1559 22.0324 36.1144 22.0618C36.0753 22.0894 36.0664 21.9771 36.0577 21.8671C36.0499 21.7698 36.0424 21.6743 36.0142 21.6788C36.0142 21.6788 35.9027 21.5209 35.8343 21.5806C35.8207 21.5926 35.8105 21.6805 35.7989 21.7801C35.7864 21.8875 35.7724 22.0085 35.7507 22.0618C35.7255 22.1237 35.6463 22.0002 35.6463 22.0002C35.6463 22.0002 35.6503 21.5334 35.5698 21.4632C35.4894 21.3929 35.4814 22.0002 35.4814 22.0002C35.4814 22.0002 35.3581 21.5503 35.2337 21.5806C35.2128 21.5857 35.2019 21.7034 35.1902 21.8299C35.1789 21.953 35.1667 22.0845 35.1438 22.1291C35.0968 22.2206 34.9868 21.5806 34.9868 21.5806C34.9868 21.5806 34.9541 22.1048 34.8441 22.1291C34.8257 22.1332 34.8087 22.0485 34.79 21.9549C34.7719 21.8651 34.7523 21.7671 34.7282 21.7316C34.6773 21.6567 34.4375 21.9498 34.4375 21.9498L34.2698 21.345L33.8067 21.6788H32.394H30.8634H29.4506L28.9875 21.345L28.8198 21.9498C28.8198 21.9498 28.58 21.6567 28.5291 21.7316C28.505 21.7671 28.4854 21.8651 28.4674 21.9549C28.4486 22.0485 28.4316 22.1332 28.4132 22.1291C28.3033 22.1048 28.2706 21.5806 28.2706 21.5806C28.2706 21.5806 28.1605 22.2206 28.1135 22.1291C28.0906 22.0845 28.0785 21.953 28.0671 21.8299C28.0554 21.7034 28.0445 21.5857 28.0236 21.5806C27.8992 21.5503 27.7759 22.0002 27.7759 22.0002C27.7759 22.0002 27.7679 21.3929 27.6875 21.4632C27.6071 21.5334 27.6111 22.0002 27.6111 22.0002C27.6111 22.0002 27.5318 22.1237 27.5066 22.0618C27.4849 22.0085 27.4709 21.8875 27.4584 21.78C27.4469 21.6805 27.4367 21.5926 27.423 21.5806C27.3546 21.5209 27.2432 21.6788 27.2432 21.6788C27.215 21.6743 27.2074 21.7698 27.1997 21.8671C27.1909 21.9771 27.182 22.0894 27.143 22.0618C27.1014 22.0324 27.0506 21.9571 27.0034 21.8872C26.9036 21.7396 26.8201 21.616 26.8752 22.0002Z" fill="#5DC852"/><g id="Group 2"><path id="Combined Shape_3" fill-rule="evenodd" clip-rule="evenodd" d="M34.7031 16.9401C34.7031 16.9401 34.7513 17.0504 34.7031 17.1592V16.9401ZM31.6718 16.7627C31.7547 16.7738 31.8291 16.7917 31.8927 16.807C32.041 16.8426 32.1303 16.8641 32.1303 16.7521C32.1303 16.6705 32.3735 16.7761 32.709 16.9217C33.1461 17.1115 33.7397 17.3692 34.1557 17.3692C34.518 17.3692 34.6562 17.265 34.7031 17.1592V17.5844C34.7031 17.6603 34.7219 17.7504 34.7396 17.8351C34.772 17.9905 34.8007 18.128 34.7031 18.128C34.5522 18.128 33.8767 18.5503 33.8767 19.0366C33.8767 19.523 34.7031 19.9227 34.7031 19.9227C34.7031 19.9227 34.1557 21.635 33.6768 21.8966C33.3862 22.0554 33.2139 21.9251 33.1233 21.8566C33.0647 21.8122 33.0403 21.7938 33.0403 21.8966C33.0403 22.1582 32.6252 22.5272 32.1303 22.6729C31.8102 22.767 31.904 22.8393 32.0103 22.9211C32.0684 22.9659 32.1303 23.0135 32.1303 23.0692C32.1303 23.1951 31.7397 23.019 31.5831 22.9433C31.4264 23.019 31.0359 23.1951 31.0359 23.0692C31.0359 23.0135 31.0977 22.9659 31.1558 22.9211C31.2621 22.8393 31.3559 22.767 31.0359 22.6729C30.5409 22.5272 30.1258 22.1582 30.1258 21.8966C30.1258 21.7938 30.1014 21.8122 30.0428 21.8566C29.9522 21.9251 29.7799 22.0554 29.4893 21.8966C29.0104 21.635 28.463 19.9227 28.463 19.9227C28.463 19.9227 29.2894 19.523 29.2894 19.0366C29.2894 18.5503 28.6139 18.128 28.463 18.128C28.3654 18.128 28.3941 17.9905 28.4266 17.8351C28.4442 17.7504 28.463 17.6603 28.463 17.5844V17.1592C28.51 17.265 28.6481 17.3692 29.0104 17.3692C29.4264 17.3692 30.02 17.1115 30.4571 16.9217C30.7926 16.7761 31.0359 16.6705 31.0359 16.7521C31.0359 16.8641 31.1252 16.8426 31.2734 16.807C31.337 16.7917 31.4114 16.7738 31.4943 16.7627C31.5022 16.7557 31.5105 16.7521 31.5191 16.7521C31.5409 16.7521 31.5622 16.7528 31.5831 16.754C31.6039 16.7528 31.6253 16.7521 31.647 16.7521C31.6556 16.7521 31.6639 16.7557 31.6718 16.7627ZM28.463 16.9401C28.463 16.9401 28.4148 17.0504 28.463 17.1592V16.9401Z" fill="#4ABCE6"/><mask id="mask3_91_29558" style="mask-type:alpha" maskUnits="userSpaceOnUse" x="28" y="16" width="7" height="8"><path id="Combined Shape_4" fill-rule="evenodd" clip-rule="evenodd" d="M34.7031 16.9401C34.7031 16.9401 34.7513 17.0504 34.7031 17.1592V16.9401ZM31.6718 16.7627C31.7547 16.7738 31.8291 16.7917 31.8927 16.807C32.041 16.8426 32.1303 16.8641 32.1303 16.7521C32.1303 16.6705 32.3735 16.7761 32.709 16.9217C33.1461 17.1115 33.7397 17.3692 34.1557 17.3692C34.518 17.3692 34.6562 17.265 34.7031 17.1592V17.5844C34.7031 17.6603 34.7219 17.7504 34.7396 17.8351C34.772 17.9905 34.8007 18.128 34.7031 18.128C34.5522 18.128 33.8767 18.5503 33.8767 19.0366C33.8767 19.523 34.7031 19.9227 34.7031 19.9227C34.7031 19.9227 34.1557 21.635 33.6768 21.8966C33.3862 22.0554 33.2139 21.9251 33.1233 21.8566C33.0647 21.8122 33.0403 21.7938 33.0403 21.8966C33.0403 22.1582 32.6252 22.5272 32.1303 22.6729C31.8102 22.767 31.904 22.8393 32.0103 22.9211C32.0684 22.9659 32.1303 23.0135 32.1303 23.0692C32.1303 23.1951 31.7397 23.019 31.5831 22.9433C31.4264 23.019 31.0359 23.1951 31.0359 23.0692C31.0359 23.0135 31.0977 22.9659 31.1558 22.9211C31.2621 22.8393 31.3559 22.767 31.0359 22.6729C30.5409 22.5272 30.1258 22.1582 30.1258 21.8966C30.1258 21.7938 30.1014 21.8122 30.0428 21.8566C29.9522 21.9251 29.7799 22.0554 29.4893 21.8966C29.0104 21.635 28.463 19.9227 28.463 19.9227C28.463 19.9227 29.2894 19.523 29.2894 19.0366C29.2894 18.5503 28.6139 18.128 28.463 18.128C28.3654 18.128 28.3941 17.9905 28.4266 17.8351C28.4442 17.7504 28.463 17.6603 28.463 17.5844V17.1592C28.51 17.265 28.6481 17.3692 29.0104 17.3692C29.4264 17.3692 30.02 17.1115 30.4571 16.9217C30.7926 16.7761 31.0359 16.6705 31.0359 16.7521C31.0359 16.8641 31.1252 16.8426 31.2734 16.807C31.337 16.7917 31.4114 16.7738 31.4943 16.7627C31.5022 16.7557 31.5105 16.7521 31.5191 16.7521C31.5409 16.7521 31.5622 16.7528 31.5831 16.754C31.6039 16.7528 31.6253 16.7521 31.647 16.7521C31.6556 16.7521 31.6639 16.7557 31.6718 16.7627ZM28.463 16.9401C28.463 16.9401 28.4148 17.0504 28.463 17.1592V16.9401Z" fill="white"/></mask><g mask="url(#mask3_91_29558)"><path id="Rectangle 2" fill-rule="evenodd" clip-rule="evenodd" d="M28.2734 18.8931C28.2734 18.8931 30.7333 18.6602 32.1778 18.6602C33.6222 18.6602 32.8455 18.7392 33.4007 18.7946C33.9559 18.8499 34.5133 18.8931 34.5133 18.8931V23.2859H28.2734V18.8931Z" fill="white"/><path id="Path 5" fill-rule="evenodd" clip-rule="evenodd" d="M28.8582 18.2729C28.8582 18.2729 28.6572 17.9228 29.4727 17.7975C30.2883 17.6723 30.5406 17.6196 30.8497 17.9462C31.1587 18.2729 31.7869 19.6794 31.3183 20.0573C30.8497 20.4352 30.5232 20.8329 30.3378 20.6946C30.1524 20.5563 30.549 20.0573 29.5684 20.0573C28.5879 20.0573 28.2529 20.0573 28.2529 20.0573L28.8582 18.2729Z" fill="#FFDA3A"/><path id="Path 3" fill-rule="evenodd" clip-rule="evenodd" d="M32.9894 18.6124L31.2312 19.0915C31.2312 19.0915 31.3905 20.1583 30.9371 20.1583C30.4836 20.1583 30.2904 17.8491 30.2904 17.8491H30.103L30.7005 20.3887L30.2904 20.6246L31.5462 21.1208L33.6753 20.1583L32.9894 18.6124Z" fill="#B35A1F"/></g></g><path id="Combined Shape_5" fill-rule="evenodd" clip-rule="evenodd" d="M30.4571 16.9217C30.02 17.1115 29.4264 17.3692 29.0104 17.3692C28.7197 17.3692 28.5373 17.3189 28.463 17.2182V17.5844C28.463 17.6603 28.4442 17.7504 28.4266 17.8351C28.3941 17.9905 28.3654 18.128 28.463 18.128C28.6139 18.128 29.2894 18.5503 29.2894 19.0366C29.2894 19.3609 29.0139 19.6562 28.463 19.9227C28.828 21.0642 29.1701 21.7222 29.4893 21.8966C29.7462 22.037 29.9106 21.9515 30.0123 21.8792C30.0234 21.8713 30.0335 21.8636 30.0428 21.8566C30.1014 21.8122 30.1258 21.7938 30.1258 21.8966C30.1258 21.9061 30.1263 21.9158 30.1281 21.9314C30.1621 22.1899 30.5624 22.5336 31.0359 22.6729C31.3559 22.767 31.2621 22.8393 31.1558 22.9211C31.0977 22.9659 31.0359 23.0135 31.0359 23.0692C31.0359 23.1685 31.2182 23.1269 31.583 22.9442C31.9478 23.1269 32.1302 23.1685 32.1302 23.0692C32.1302 23.0135 32.0684 22.9659 32.0103 22.9211C31.904 22.8393 31.8102 22.767 32.1302 22.6729C32.6036 22.5336 33.004 22.1899 33.0386 21.9255C33.0397 21.9158 33.0403 21.9061 33.0403 21.8966C33.0403 21.7939 33.0646 21.8122 33.126 21.8586C33.1358 21.8659 33.1465 21.874 33.1582 21.8824C33.2554 21.9515 33.4199 22.037 33.6768 21.8966C33.996 21.7222 34.3381 21.0642 34.703 19.9227C34.1521 19.6562 33.8767 19.3609 33.8767 19.0366C33.8767 18.5503 34.5522 18.128 34.703 18.128C34.8006 18.128 34.7719 17.9905 34.7395 17.8351C34.7218 17.7504 34.703 17.6603 34.703 17.5844V17.2182C34.6288 17.3189 34.4463 17.3692 34.1556 17.3692C33.7397 17.3692 33.1461 17.1115 32.709 16.9217C32.3735 16.7761 32.1302 16.6705 32.1302 16.7521C32.1302 16.8641 32.0409 16.8426 31.8927 16.807C31.8302 16.792 31.7574 16.7744 31.6764 16.7633C31.667 16.7558 31.6572 16.7521 31.647 16.7521C31.6252 16.7521 31.6039 16.7528 31.583 16.754C31.5621 16.7528 31.5408 16.7521 31.5191 16.7521C31.5089 16.7521 31.4991 16.7558 31.4897 16.7633C31.4087 16.7744 31.3358 16.792 31.2734 16.807C31.1252 16.8426 31.0359 16.8641 31.0359 16.7521C31.0359 16.6705 30.7926 16.7761 30.4571 16.9217ZM34.703 16.9401C34.7539 17.0565 34.7539 17.1492 34.703 17.2182V16.9401Z" fill="#FFD129"/></g><path id="Path_3" fill-rule="evenodd" clip-rule="evenodd" d="M36.6585 13.0427H26.6587V21.6525C26.6587 22.4978 27.0547 22.8292 27.5266 23.2242C27.6667 23.3414 27.8134 23.4642 27.9585 23.6078C28.3812 24.0259 29.6145 24.4581 31.6586 24.9046C32.2184 24.9046 33.1399 24.6322 34.4232 24.0874C35.7065 23.5426 36.4516 22.8577 36.6585 22.0326V13.0427ZM27.5357 22.9395C27.0638 22.5338 26.8943 22.2392 26.8943 21.6525V13.257H36.4232V22.0078C36.2264 22.7493 35.5346 23.3792 34.3237 23.8932C33.0914 24.4163 32.2049 24.6811 31.6856 24.6901C29.706 24.2562 28.5088 23.8355 28.1319 23.4627C28.1022 23.4333 28.0716 23.4039 28.0401 23.3745C27.9615 23.301 27.8815 23.2309 27.7778 23.1434C27.7834 23.1481 27.5873 22.9839 27.5357 22.9395Z" fill="black"/></g></g><g id="gb - large"><g id="flag_2"><rect id="mask_2" x="3" y="2" width="20.25" height="14" fill="#2B409A"/><mask id="mask4_91_29558" style="mask-type:alpha" maskUnits="userSpaceOnUse" x="3" y="2" width="21" height="14"><rect id="mask_3" x="3" y="2" width="20.25" height="14" fill="white"/></mask><g mask="url(#mask4_91_29558)"><g id="contents_2"><g id="stripe"><path id="white" d="M0.745117 14.9999L5.20119 16.7371L23.351 3.88878L25.7015 1.30725L20.9364 0.726627L13.5335 6.26332L7.57493 9.99375L0.745117 14.9999Z" fill="#F7FCFF"/><path id="red" d="M1.35498 16.217L3.62514 17.2251L24.8573 1.06738H21.6697L1.35498 16.217Z" fill="#F50100"/></g><g id="stripe_2"><path id="white_2" d="M25.5049 14.9999L21.0488 16.7371L2.89897 3.88878L0.548492 1.30725L5.31362 0.726627L12.7165 6.26332L18.6751 9.99375L25.5049 14.9999Z" fill="#F7FCFF"/><path id="red_2" d="M25.353 15.8732L23.0829 16.8813L14.042 9.96339L11.3616 9.19046L0.322518 1.31593H3.51009L14.5429 9.00356L17.4735 9.93038L25.353 15.8732Z" fill="#F50100"/></g><g id="cross"><g id="red_3"><mask id="path-22-outside-1_91_29558" maskUnits="userSpaceOnUse" x="1" y="0" width="24" height="18" fill="black"><rect fill="white" x="1" width="24" height="18"/><path fill-rule="evenodd" clip-rule="evenodd" d="M14.2326 2H11.9826V8H3V10H11.9826V16H14.2326V10H23.25V8H14.2326V2Z"/></mask><path fill-rule="evenodd" clip-rule="evenodd" d="M14.2326 2H11.9826V8H3V10H11.9826V16H14.2326V10H23.25V8H14.2326V2Z" fill="#F50100"/><path d="M11.9826 2V0.5H10.4826V2H11.9826ZM14.2326 2H15.7326V0.5H14.2326V2ZM11.9826 8V9.5H13.4826V8H11.9826ZM3 8V6.5H1.5V8H3ZM3 10H1.5V11.5H3V10ZM11.9826 10H13.4826V8.5H11.9826V10ZM11.9826 16H10.4826V17.5H11.9826V16ZM14.2326 16V17.5H15.7326V16H14.2326ZM14.2326 10V8.5H12.7326V10H14.2326ZM23.25 10V11.5H24.75V10H23.25ZM23.25 8H24.75V6.5H23.25V8ZM14.2326 8H12.7326V9.5H14.2326V8ZM11.9826 3.5H14.2326V0.5H11.9826V3.5ZM13.4826 8V2H10.4826V8H13.4826ZM3 9.5H11.9826V6.5H3V9.5ZM4.5 10V8H1.5V10H4.5ZM11.9826 8.5H3V11.5H11.9826V8.5ZM13.4826 16V10H10.4826V16H13.4826ZM14.2326 14.5H11.9826V17.5H14.2326V14.5ZM12.7326 10V16H15.7326V10H12.7326ZM23.25 8.5H14.2326V11.5H23.25V8.5ZM21.75 8V10H24.75V8H21.75ZM14.2326 9.5H23.25V6.5H14.2326V9.5ZM12.7326 2V8H15.7326V2H12.7326Z" fill="#F7FCFF" mask="url(#path-22-outside-1_91_29558)"/></g></g></g></g></g></g></g></g></g></g></g></g><defs><filter id="filter0_dd_91_29558" x="0" y="0" width="42" height="30" filterUnits="userSpaceOnUse" color-interpolation-filters="sRGB"><feFlood flood-opacity="0" result="BackgroundImageFix"/><feColorMatrix in="SourceAlpha" values="0 0 0 0 0 0 0 0 0 0 0 0 0 0 0 0 0 0 127 0" result="hardAlpha"/><feOffset dy="1"/><feGaussianBlur stdDeviation="1"/><feColorMatrix values="0 0 0 0 0.0627451 0 0 0 0 0.0941176 0 0 0 0 0.156863 0 0 0 0.06 0"/><feBlend in2="BackgroundImageFix" result="effect1_dropShadow_91_29558"/><feColorMatrix in="SourceAlpha" values="0 0 0 0 0 0 0 0 0 0 0 0 0 0 0 0 0 0 127 0" result="hardAlpha"/><feOffset dy="1"/><feGaussianBlur stdDeviation="1.5"/><feColorMatrix values="0 0 0 0 0.0627451 0 0 0 0 0.0941176 0 0 0 0 0.156863 0 0 0 0.1 0"/><feBlend in2="effect1_dropShadow_91_29558" result="effect2_dropShadow_91_29558"/><feBlend in="SourceGraphic" in2="effect2_dropShadow_91_29558" result="shape"/></filter><clipPath id="clip0_91_29558"><rect x="3" y="2" width="36" height="24" rx="2" fill="white"/></clipPath></defs></svg>