<svg width="42" height="30" viewBox="0 0 42 30" fill="none" xmlns="http://www.w3.org/2000/svg"><g id="Country=BN - Brunei Darussalam, Size=sm (36x24)" filter="url(#filter0_dd_91_29529)"><g clip-path="url(#clip0_91_29529)"><g id="flag"><mask id="mask0_91_29529" style="mask-type:alpha" maskUnits="userSpaceOnUse" x="3" y="2" width="36" height="24"><rect id="mask" x="3" y="2" width="36" height="24" fill="white"/></mask><g mask="url(#mask0_91_29529)"><g id="contents"><path id="background" fill-rule="evenodd" clip-rule="evenodd" d="M3 2V26H39V2H3Z" fill="#FFD221"/><mask id="mask1_91_29529" style="mask-type:alpha" maskUnits="userSpaceOnUse" x="3" y="2" width="36" height="24"><path id="background_2" fill-rule="evenodd" clip-rule="evenodd" d="M3 2V26H39V2H3Z" fill="white"/></mask><g mask="url(#mask1_91_29529)"><path id="Path 10" d="M-0.450195 12.6152L1.80879 8.03613L40.9888 23.3081L38.7298 27.8872L-0.450195 12.6152Z" fill="#313131"/><path id="Path 10_2" d="M-0.394531 7.56944L1.86351 2.98999L42.9919 19.0134L40.7339 23.5929L-0.394531 7.56944Z" fill="#FAF9F9"/><g id="mark"><path id="Combined Shape" fill-rule="evenodd" clip-rule="evenodd" d="M11.2472 14.3972C9.65133 12.6564 9.91813 11.479 9.91813 11.479C9.91813 11.479 11.5514 11.5321 11.5331 12.4682C11.5331 12.8638 12.119 13.2382 12.6237 13.5608C13.0056 13.8049 13.341 14.0193 13.341 14.1907C13.341 14.5886 13.6781 18.6005 13.6781 18.6005C13.6781 18.6005 13.4427 18.9657 12.315 18.9657C11.1874 18.9657 11.2472 18.3884 11.2472 18.3884C11.9309 17.6433 11.2472 14.3972 11.2472 14.3972ZM30.7533 14.3972C32.3492 12.6564 32.0824 11.479 32.0824 11.479C32.0824 11.479 30.4492 11.5321 30.4674 12.4682C30.4674 12.8638 29.8816 13.2382 29.3769 13.5608C28.995 13.8049 28.6595 14.0193 28.6595 14.1907C28.6595 14.5886 28.3225 18.6005 28.3225 18.6005C28.3225 18.6005 28.5579 18.9657 29.6855 18.9657C30.8132 18.9657 30.7533 18.3884 30.7533 18.3884C30.0697 17.6433 30.7533 14.3972 30.7533 14.3972Z" fill="#CF1225"/><path id="Combined Shape_2" fill-rule="evenodd" clip-rule="evenodd" d="M21.0671 4.87476L22.3348 5.67911L21.5041 5.87639L22.3348 6.5146L21.3005 6.28171V6.92648H22.3348L22.6806 8.43788L22.2804 8.18554L21.8801 8.43788L21.4799 8.18554L21.0797 8.43788L20.6674 8.18554L20.2551 8.43788L19.8429 8.18554L19.4306 8.43788L19.9499 6.92648H20.9069V4.87476H21.0671ZM26.7205 9.9514C26.7205 9.9514 26.3342 10.255 25.5055 9.9514C25.2287 9.84997 24.9252 9.67264 24.6087 9.48764C23.9776 9.11883 23.2943 8.71953 22.6656 8.83027C21.7217 8.99655 21.3022 9.39703 21.3022 9.39703V8.47467H21.1876H21.0105H20.8959V9.39703C20.8959 9.39703 20.4764 8.99655 19.5324 8.83027C18.9038 8.71953 18.2205 9.11883 17.5894 9.48764C17.2728 9.67264 16.9694 9.84997 16.6926 9.9514C15.8639 10.255 15.4775 9.9514 15.4775 9.9514C15.4775 9.9514 15.4775 10.2084 16.0936 10.6043C16.3608 10.776 16.6664 10.7636 16.9268 10.6946C16.734 10.8239 16.6405 10.9758 16.9479 11.0976C17.5848 11.3499 18.6316 10.6859 18.7464 10.611C18.6185 10.6955 17.3532 11.5414 17.9332 11.5414C18.5436 11.5414 19.5324 10.8304 19.5324 10.8304C19.5324 10.8304 18.3326 11.8537 18.9781 12.0131C19.389 12.1146 19.8796 11.5824 20.1102 11.2671C20.1176 11.3341 20.1868 11.3751 20.2623 11.4198C20.359 11.477 20.4659 11.5403 20.4659 11.672C20.4659 11.8409 20.513 11.8699 20.5544 11.8953C20.5866 11.9151 20.6153 11.9328 20.6153 12.0131V12.2464L20.4659 12.4423C20.4659 12.4423 20.4659 12.7471 20.6153 12.9893C20.7285 13.1728 20.6703 13.3271 20.5704 13.5915C20.5384 13.6762 20.5022 13.7722 20.4659 13.884C20.3165 14.3451 20.6153 15.1326 20.6153 15.1326H20.4659C20.4659 15.1326 20.6153 15.2296 20.6153 15.6179C20.6153 15.9341 20.5163 16.1137 20.3292 16.4528C20.2865 16.5302 20.2392 16.6159 20.1875 16.7134C19.909 17.2382 20.4659 17.9055 20.4659 17.9055C20.4659 17.9055 19.5324 17.5414 19.7196 17.9055C19.8633 18.1852 20.6522 18.4573 21.0105 18.5685V18.621C21.0105 18.621 21.0432 18.612 21.099 18.5954C21.1549 18.612 21.1876 18.621 21.1876 18.621V18.5685C21.5459 18.4573 22.3348 18.1852 22.4785 17.9055C22.6656 17.5414 21.7322 17.9055 21.7322 17.9055C21.7322 17.9055 22.2891 17.2382 22.0106 16.7134C21.9589 16.6159 21.9116 16.5302 21.8689 16.4528C21.6818 16.1137 21.5827 15.9341 21.5827 15.6179C21.5827 15.2296 21.7322 15.1326 21.7322 15.1326H21.5827C21.5827 15.1326 21.8816 14.3451 21.7322 13.884C21.6959 13.7722 21.6597 13.6762 21.6277 13.5915L21.6277 13.5915C21.5278 13.3271 21.4695 13.1728 21.5827 12.9893C21.7322 12.7471 21.7322 12.4423 21.7322 12.4423L21.5827 12.2464V12.0131C21.5827 11.9328 21.6114 11.9151 21.6437 11.8953C21.685 11.8699 21.7322 11.8409 21.7322 11.672C21.7322 11.5403 21.8391 11.477 21.9358 11.4198C22.0112 11.3751 22.0805 11.3341 22.0879 11.2671C22.3185 11.5824 22.8091 12.1146 23.22 12.0131C23.8655 11.8537 22.6656 10.8304 22.6656 10.8304C22.6656 10.8304 23.6545 11.5414 24.2649 11.5414C24.8448 11.5414 23.5795 10.6955 23.4517 10.611C23.5664 10.6859 24.6133 11.3499 25.2502 11.0976C25.5575 10.9758 25.4641 10.8239 25.2712 10.6946C25.5316 10.7636 25.8372 10.776 26.1045 10.6043C26.7205 10.2084 26.7205 9.9514 26.7205 9.9514ZM24.6687 10.4178C24.6687 10.4178 24.9315 10.6045 25.2712 10.6946C25.0409 10.5401 24.6687 10.4178 24.6687 10.4178ZM22.0106 11.0976C21.9094 10.9777 21.9563 11.087 22.0879 11.2671C22.0927 11.224 22.0719 11.1701 22.0106 11.0976ZM20.1875 11.0976C20.2887 10.9777 20.2418 11.087 20.1102 11.2671C20.1054 11.224 20.1262 11.1701 20.1875 11.0976ZM18.7567 10.6043C18.7567 10.6043 18.7532 10.6066 18.7464 10.611C18.7531 10.6066 18.7567 10.6043 18.7567 10.6043ZM17.5293 10.4178C17.5293 10.4178 17.2666 10.6045 16.9268 10.6946C17.1572 10.5401 17.5293 10.4178 17.5293 10.4178Z" fill="#CF1225"/><path id="Path 414" fill-rule="evenodd" clip-rule="evenodd" d="M15.6327 11.5781C15.6327 11.5781 14.2898 13.2017 14.4393 14.9365C14.5887 16.6713 16.1811 20.7075 20.905 20.7075C20.9456 20.7075 20.9859 20.7065 21.0261 20.7065C26.0316 20.7065 27.4525 16.2563 27.4525 14.6559C27.4525 13.0417 26.32 11.5781 26.32 11.5781C26.32 11.5781 26.4523 13.7441 26.32 14.6559C25.9209 17.4064 23.9715 18.6769 20.9926 18.6769C17.9952 18.6769 16.1405 17.3584 15.6327 14.6559C15.4685 13.7822 15.6327 11.5781 15.6327 11.5781Z" fill="#CF1225"/><path id="Path 415" fill-rule="evenodd" clip-rule="evenodd" d="M13.1987 21.7512C13.1987 21.7512 13.4425 21.1307 13.7421 21.1307C14.0417 21.1307 13.1688 20.5922 13.7421 20.4399C14.3154 20.2876 15.1976 21.0469 15.1976 20.2876C15.1976 19.5282 14.4515 19.1139 14.9997 19.1139C15.5479 19.1139 16.1198 18.9685 16.1198 18.9685C16.1198 18.9685 18.4521 21.1307 20.787 21.1307C23.122 21.1307 25.9299 19.1139 25.9299 19.1139C25.9299 19.1139 26.9648 18.88 26.9648 19.2448C26.9648 19.6097 26.7378 20.1605 26.7378 20.1605C26.7378 20.1605 27.4629 20.0334 27.8318 20.1605C28.2008 20.2876 27.8318 20.8955 27.8318 20.8955V21.1307C27.8318 21.1307 28.7917 20.9428 28.7917 21.279C28.7917 21.6152 28.3284 21.4232 27.3894 21.5192C26.4504 21.6152 26.094 22.2678 25.5041 22.2678C24.9142 22.2678 24.7871 21.7512 24.7871 21.7512C24.7871 21.7512 22.9591 22.632 20.787 22.632C18.6149 22.632 17.3028 21.7512 17.3028 21.7512C17.3028 21.7512 17.5077 22.6554 16.8137 22.4616C16.1198 22.2678 15.4098 21.0388 14.576 21.279C13.7421 21.5192 13.1987 21.7512 13.1987 21.7512Z" fill="#CF1225"/><path id="Path 416" fill-rule="evenodd" clip-rule="evenodd" d="M16.5697 18.1648C16.6108 18.1308 16.652 18.093 16.7061 18.0408C16.8593 17.893 16.9008 17.8538 16.9322 17.8359C16.9385 17.8612 16.9428 17.9025 16.9428 17.9592C16.9428 18.3357 16.9578 18.62 16.999 18.8177C17.0284 18.9585 17.0693 19.0497 17.1413 19.0932C17.2467 19.1566 17.3528 19.1014 17.4513 18.9698C17.6766 18.6687 18.1007 18.6315 18.1007 18.7464C18.1007 18.7762 18.0875 18.8084 18.0052 18.9878C17.9909 19.0187 17.9797 19.0438 17.9693 19.0681C17.9115 19.2035 17.8857 19.3014 17.8982 19.3865C17.9169 19.5136 18.0223 19.5852 18.1929 19.5852C18.3827 19.5852 18.5074 19.476 18.6453 19.261C18.6587 19.24 18.695 19.1813 18.7103 19.1566L18.7103 19.1565L18.7171 19.1456C18.7423 19.1053 18.7608 19.0782 18.7778 19.0572C18.8281 18.9949 18.839 18.9997 18.9504 19.2336C18.9797 19.2953 19.0399 19.4252 19.0921 19.5376C19.1332 19.6265 19.1694 19.7045 19.1813 19.7294C19.2545 19.8822 19.3057 19.9723 19.3597 20.0353C19.4837 20.1801 19.6317 20.1789 19.8084 20.0445C19.8434 20.0179 19.8826 19.9917 19.9277 19.964C19.9512 19.9496 20.0073 19.9176 20.0609 19.887L20.0609 19.8869L20.061 19.8869C20.1118 19.8579 20.1603 19.8301 20.1768 19.8199C20.2793 19.7562 20.3302 19.7061 20.3292 19.6321C20.3279 19.5386 20.2401 19.4799 20.065 19.422C20.0303 19.4105 20.0035 19.3997 19.984 19.3918L19.9838 19.3917L19.9838 19.3917C19.9695 19.3859 19.9592 19.3818 19.9527 19.3802C19.9571 19.3795 19.9635 19.3766 19.9735 19.3721L19.9822 19.3682C20.0921 19.3197 20.3138 19.2842 20.5117 19.2842L20.5128 19.2842C20.5225 19.2842 20.5281 19.2842 20.5313 19.287C20.5358 19.2909 20.5355 19.3001 20.535 19.322V19.322L20.5349 19.3246C20.5336 19.3776 20.5207 19.4289 20.4718 19.5918C20.4648 19.6151 20.4598 19.632 20.455 19.6489C20.3996 19.8402 20.3842 19.9559 20.4223 20.0557C20.4781 20.2019 20.6367 20.2527 20.8831 20.2093C21.2164 20.1507 21.3787 20.033 21.4211 19.8527C21.4318 19.8075 21.4339 19.7729 21.434 19.7024C21.4341 19.5862 21.4349 19.5852 21.5465 19.5852C21.7054 19.5852 21.7683 19.6353 21.8352 19.7743C21.841 19.7865 21.847 19.7992 21.859 19.8251C21.9366 19.9916 22.0088 20.064 22.1713 20.064C22.2799 20.064 22.3554 20.0235 22.3421 19.9299C22.3387 19.9061 22.3296 19.8851 22.3133 19.8557L22.3002 19.833L22.3002 19.833L22.3002 19.833C22.2915 19.8179 22.2811 19.8 22.277 19.7924C22.1761 19.609 22.2161 19.4689 22.5631 19.2715C22.6622 19.2151 22.8153 19.1197 22.948 19.037C23.0436 18.9775 23.1285 18.9246 23.1749 18.8977C23.1786 18.9228 23.1813 18.9572 23.1838 19.0073C23.1848 19.0269 23.1873 19.0878 23.1893 19.1375L23.1893 19.1385L23.1894 19.1391L23.192 19.2035C23.2068 19.5383 23.2851 19.8448 23.3994 19.9692C23.5929 20.1799 23.7798 19.9852 23.907 19.5215C24.0286 19.0779 24.2022 18.6596 24.3713 18.4057C24.4543 18.2813 24.5319 18.2033 24.5911 18.1796C24.6303 18.1639 24.658 18.1751 24.6986 18.2407C24.8514 18.4874 25.0866 18.7163 25.2854 18.7844C25.5805 18.8854 25.7556 18.6726 25.7556 18.1993C25.7556 17.8025 25.8281 17.4861 25.948 17.242C25.9893 17.158 26.0331 17.0893 26.0764 17.0347C26.1012 17.0034 26.1195 16.9845 26.1281 16.977L26.0007 16.8554C25.9422 16.9063 25.86 17.0099 25.7797 17.1732C25.6491 17.4392 25.5712 17.7791 25.5712 18.1993C25.5712 18.5735 25.4884 18.6742 25.3503 18.6269C25.2003 18.5755 24.9927 18.3735 24.8592 18.1579C24.7753 18.0225 24.6508 17.9719 24.5169 18.0256C24.4146 18.0666 24.3147 18.1669 24.2137 18.3184C24.0337 18.5887 23.8538 19.022 23.7281 19.4807C23.6734 19.6801 23.6165 19.807 23.5407 19.8611C23.4602 19.7735 23.3895 19.4969 23.3763 19.1967L23.3737 19.1341C23.3717 19.0838 23.3691 19.0203 23.368 18.9997C23.3649 18.9368 23.3613 18.8953 23.3555 18.8616C23.3368 18.7538 23.2755 18.6903 23.1651 18.716C23.1218 18.726 22.9138 18.8546 22.7266 18.9703L22.7266 18.9703L22.7266 18.9703C22.6223 19.0347 22.5246 19.0951 22.4655 19.1288C22.0364 19.373 21.9692 19.608 22.1121 19.8679L22.1236 19.888C22.0893 19.8739 22.0654 19.838 22.0287 19.7593C22.0169 19.7339 22.0104 19.72 22.0041 19.7067C21.9107 19.5127 21.7905 19.417 21.5465 19.417C21.3118 19.417 21.2498 19.5046 21.2495 19.7022C21.2495 19.7611 21.2478 19.7874 21.2408 19.8174C21.2157 19.9241 21.1148 19.9972 20.8482 20.0441C20.6815 20.0735 20.6164 20.0526 20.5965 20.0004C20.575 19.9442 20.5875 19.8499 20.6333 19.6918L20.6497 19.6362C20.7038 19.4558 20.7174 19.4016 20.7193 19.3284C20.7225 19.2016 20.6526 19.116 20.5117 19.116C20.2883 19.116 20.0402 19.1557 19.9018 19.2168C19.6748 19.3171 19.7198 19.4868 20.0022 19.5802C20.0576 19.5985 20.0943 19.6142 20.1166 19.6237L20.1166 19.6237C20.1324 19.6305 20.1409 19.6341 20.1437 19.6334C20.1416 19.6338 20.1365 19.6375 20.1278 19.6438C20.1163 19.6521 20.0984 19.6651 20.073 19.6808C20.0596 19.6892 20.0169 19.7135 19.9698 19.7405C19.9141 19.7723 19.8521 19.8078 19.825 19.8243C19.7748 19.855 19.7307 19.8846 19.6904 19.9153C19.5872 19.9937 19.5583 19.994 19.505 19.9317C19.4635 19.8833 19.4175 19.8023 19.3503 19.6621C19.3389 19.6381 19.3037 19.5622 19.2632 19.4748L19.263 19.4745L19.2629 19.4743L19.2629 19.4742L19.2627 19.4737C19.2104 19.3609 19.1495 19.2294 19.1196 19.1666C18.961 18.8335 18.7897 18.7587 18.6293 18.9574C18.6071 18.9849 18.5855 19.0167 18.557 19.0621L18.5486 19.0757L18.5485 19.0757C18.5325 19.1017 18.4984 19.1568 18.4861 19.1761C18.3792 19.3429 18.2945 19.417 18.1929 19.417C18.1091 19.417 18.0865 19.4016 18.081 19.3642C18.0739 19.316 18.0942 19.2391 18.1411 19.1293C18.1509 19.1064 18.1616 19.0826 18.1753 19.0528C18.2779 18.8293 18.2851 18.8116 18.2851 18.7464C18.2851 18.4053 17.6059 18.4649 17.299 18.8749C17.2729 18.9098 17.2506 18.9326 17.2342 18.9439C17.2185 18.9223 17.1971 18.8673 17.1802 18.7862C17.1418 18.6023 17.1272 18.3253 17.1272 17.9592C17.1272 17.7273 17.0488 17.6046 16.8802 17.6714C16.804 17.7017 16.8011 17.7043 16.5721 17.9252C16.521 17.9746 16.4826 18.0097 16.4458 18.0403C16.398 18.0798 16.3567 18.1079 16.3212 18.1245C16.2688 18.1491 16.2487 18.1338 16.2204 18.0255C16.1911 17.9131 16.1815 17.7545 16.1816 17.4903L16.182 17.3796L16.1823 17.2655C16.1823 17.078 16.1259 16.973 15.9882 16.973C15.941 16.973 15.8937 16.9872 15.8338 17.0143C15.8128 17.0238 15.7908 17.0346 15.7613 17.0497L15.7501 17.0555L15.6873 17.0878C15.5604 17.1522 15.476 17.1814 15.3968 17.1814C15.382 17.1814 15.3733 17.1835 15.3694 17.1844L15.3694 17.1844C15.3678 17.1848 15.367 17.185 15.3669 17.1848C15.3668 17.1846 15.3674 17.1839 15.3686 17.1826C15.372 17.179 15.3802 17.1703 15.391 17.1515C15.4433 17.06 15.5842 16.9124 15.8107 16.7145L15.6832 16.593C15.4428 16.803 15.2918 16.9612 15.2275 17.0737C15.1385 17.2292 15.2074 17.3496 15.3968 17.3496C15.5164 17.3496 15.6243 17.3123 15.777 17.2348C15.9537 17.1451 15.9625 17.1412 15.9882 17.1412C15.9882 17.1412 15.9979 17.1592 15.9979 17.2655L15.9975 17.3789L15.9972 17.4902C15.9971 17.7679 16.0072 17.9348 16.041 18.0645C16.0931 18.2641 16.2208 18.3608 16.4055 18.2741C16.4577 18.2497 16.5111 18.2134 16.5697 18.1648ZM16.9516 17.8257C16.953 17.8259 16.954 17.8258 16.9544 17.8257L16.9516 17.8257ZM19.9473 19.3722C19.9439 19.3702 19.9423 19.3691 19.9423 19.3689C19.9441 19.3758 19.9458 19.38 19.9487 19.3818L19.9473 19.3722ZM23.2111 18.879L23.209 18.8793L23.2104 18.8792L23.2111 18.879Z" fill="#F6E017"/><path id="Path 417" fill-rule="evenodd" clip-rule="evenodd" d="M18.5618 21.7503C18.48 21.9465 18.3509 22.0115 18.2051 21.9134C18.1608 21.8836 18.1178 21.8412 18.0578 21.7726L18.0443 21.7569L18.0443 21.7569L18.0443 21.7568L18.0442 21.7568C18.0121 21.7193 17.9328 21.6266 17.9036 21.5943C17.7779 21.4553 17.6697 21.3683 17.5522 21.3238L17.5415 21.3197L17.5415 21.3197L17.5415 21.3197C17.398 21.2654 17.3673 21.2538 17.3371 21.241L17.3042 21.2268C17.1318 21.152 17.0334 21.0746 16.9387 20.9296C16.8646 20.8162 16.7929 20.6627 16.6714 20.3657L16.8442 20.3069C16.9618 20.5944 17.0306 20.7416 17.0971 20.8435C17.1722 20.9584 17.2426 21.0138 17.3834 21.0749L17.4128 21.0876C17.4416 21.0997 17.4709 21.1108 17.6129 21.1646L17.6129 21.1646L17.6229 21.1684C17.7746 21.2259 17.9027 21.3289 18.0458 21.4873C18.0778 21.5226 18.1632 21.6224 18.1922 21.6563L18.2019 21.6676C18.2523 21.7253 18.287 21.7595 18.3146 21.778C18.3295 21.7881 18.3304 21.7888 18.3285 21.7898C18.3413 21.7829 18.364 21.7513 18.3894 21.6905C18.446 21.5549 18.3963 21.4498 18.2588 21.3404C18.2538 21.3363 18.2397 21.3263 18.2213 21.3132L18.2213 21.3132C18.1686 21.2756 18.0802 21.2127 18.0639 21.1911C18.0114 21.1218 18.0563 21.0515 18.1373 21.0324C18.1737 21.0237 18.2276 21.0205 18.3136 21.0205C18.6114 21.0205 18.6933 21.176 18.7485 21.5737L18.7494 21.5802C18.7929 21.8936 18.837 21.9797 18.9875 21.9797C19.1573 21.9797 19.2607 21.9196 19.4412 21.7483L19.4807 21.7107C19.7107 21.4931 19.8718 21.4199 20.1424 21.4865C20.3586 21.5397 20.451 21.6341 20.4727 21.7806C20.4751 21.797 20.4763 21.8087 20.4787 21.8366C20.4892 21.9601 20.5137 21.9797 20.7827 21.9797C20.9867 21.9797 21.1765 21.9894 21.4241 22.0088L21.4541 22.0112L21.4542 22.0112L21.4543 22.0113L21.4546 22.0113C21.5129 22.016 21.6357 22.0259 21.6726 22.0286C21.7532 22.0345 21.8104 22.0373 21.8556 22.0373C21.8878 22.0373 21.9126 22.0358 21.9296 22.0332C21.9366 21.985 21.9685 21.9511 22.0978 21.821C22.1127 21.806 22.1242 21.7942 22.1349 21.783C22.1953 21.7196 22.222 21.6772 22.2203 21.6704C22.22 21.6691 22.166 21.6518 22.02 21.6518C21.886 21.6518 21.819 21.637 21.8069 21.5529C21.7967 21.4826 21.8424 21.4487 21.9437 21.4008C22.0597 21.3459 22.2712 21.2746 22.5249 21.2028C22.7692 21.1337 23.027 21.0715 23.2232 21.0349C23.3292 21.0151 23.4155 21.0031 23.4784 20.9999C23.5983 20.9939 23.6696 21.0087 23.6696 21.1047C23.6696 21.1447 23.7962 21.2822 23.9224 21.3446C24.0732 21.4191 24.1802 21.3908 24.2541 21.2159C24.3619 20.9605 24.5866 20.6847 24.8057 20.5268C24.9232 20.4421 25.0314 20.3965 25.125 20.404C25.2513 20.4141 25.3173 20.5105 25.3173 20.6561H25.1328C25.1328 20.5878 25.1225 20.5727 25.1088 20.5716C25.074 20.5688 25.0039 20.5984 24.92 20.6588C24.7267 20.7982 24.522 21.0494 24.4262 21.2764C24.3099 21.5516 24.0781 21.6129 23.8345 21.4925C23.6852 21.4187 23.5425 21.2785 23.4988 21.1675C23.4365 21.1705 23.3581 21.1815 23.2601 21.1997C23.0704 21.2351 22.8184 21.2959 22.5796 21.3634C22.4215 21.4082 22.2806 21.4527 22.1727 21.4918C22.3043 21.5086 22.3805 21.5521 22.4004 21.634C22.4203 21.7158 22.3755 21.787 22.2741 21.8933C22.2624 21.9056 22.2501 21.9182 22.2344 21.934C22.1452 22.0238 22.1123 22.0623 22.1123 22.0638C22.1123 22.175 22.0173 22.2056 21.8556 22.2056C21.8044 22.2056 21.743 22.2025 21.6579 22.1963C21.6197 22.1935 21.4939 22.1833 21.4366 22.1787L21.4083 22.1764C21.1655 22.1573 20.9804 22.1479 20.7827 22.1479C20.4195 22.1479 20.313 22.0628 20.2948 21.8497C20.2927 21.825 20.2917 21.8153 20.2899 21.8032C20.2782 21.7243 20.2394 21.6846 20.0944 21.6489C19.9052 21.6023 19.8017 21.6494 19.6135 21.8275L19.5741 21.8648C19.3617 22.0665 19.2216 22.1479 18.9875 22.1479C18.7227 22.1479 18.636 22.022 18.581 21.6964C18.5758 21.714 18.5694 21.732 18.5618 21.7503ZM18.5772 21.6014L18.5761 21.5948C18.5586 21.4916 18.5407 21.4125 18.5176 21.3528C18.6088 21.4552 18.6406 21.5681 18.5949 21.6964C18.5887 21.6664 18.5829 21.6348 18.5772 21.6014ZM21.951 21.4792L21.9555 21.4804L21.9532 21.4797L21.951 21.4792ZM21.9474 22.0295L21.9427 22.0309L21.9458 22.0303L21.9474 22.0295Z" fill="#F6E017"/></g></g></g></g></g></g></g><defs><filter id="filter0_dd_91_29529" x="0" y="0" width="42" height="30" filterUnits="userSpaceOnUse" color-interpolation-filters="sRGB"><feFlood flood-opacity="0" result="BackgroundImageFix"/><feColorMatrix in="SourceAlpha" values="0 0 0 0 0 0 0 0 0 0 0 0 0 0 0 0 0 0 127 0" result="hardAlpha"/><feOffset dy="1"/><feGaussianBlur stdDeviation="1"/><feColorMatrix values="0 0 0 0 0.0627451 0 0 0 0 0.0941176 0 0 0 0 0.156863 0 0 0 0.06 0"/><feBlend in2="BackgroundImageFix" result="effect1_dropShadow_91_29529"/><feColorMatrix in="SourceAlpha" values="0 0 0 0 0 0 0 0 0 0 0 0 0 0 0 0 0 0 127 0" result="hardAlpha"/><feOffset dy="1"/><feGaussianBlur stdDeviation="1.5"/><feColorMatrix values="0 0 0 0 0.0627451 0 0 0 0 0.0941176 0 0 0 0 0.156863 0 0 0 0.1 0"/><feBlend in2="effect1_dropShadow_91_29529" result="effect2_dropShadow_91_29529"/><feBlend in="SourceGraphic" in2="effect2_dropShadow_91_29529" result="shape"/></filter><clipPath id="clip0_91_29529"><rect x="3" y="2" width="36" height="24" rx="2" fill="white"/></clipPath></defs></svg>