<svg xmlns="http://www.w3.org/2000/svg" width="42" height="30" fill="none"><g filter="url(#a)"><g clip-path="url(#b)"><mask id="c" width="36" height="24" x="3" y="2" maskUnits="userSpaceOnUse" style="mask-type:alpha"><path fill="#fff" d="M3 2h36v24H3z"/></mask><g mask="url(#c)"><path fill="#FECA00" fill-rule="evenodd" d="M3 2v24h36V2H3Z" clip-rule="evenodd"/><mask id="d" width="36" height="24" x="3" y="2" maskUnits="userSpaceOnUse" style="mask-type:alpha"><path fill="#fff" fill-rule="evenodd" d="M3 2v24h36V2H3Z" clip-rule="evenodd"/></mask><g mask="url(#d)"><path fill="#DB501C" fill-rule="evenodd" d="M3 2v8h36V2H3Z" clip-rule="evenodd"/><path fill="#5EAA22" fill-rule="evenodd" d="M3 18v8h36v-8H3Z" clip-rule="evenodd"/><path fill="#864C26" d="m17.002 11.96.04-.036 8.123 6.945-.041.035-8.122-6.945Z"/><path fill="#864C26" d="m25.749 18.417-.035.04-9.45-6.17.036-.04 9.449 6.17Z"/><path fill="#A05A2C" d="m25.948 17.802-.029.043-10.51-5.085.028-.044 10.511 5.086Z"/><path fill="#E7E7E7" fill-rule="evenodd" d="m16.052 11.112.796.468-.044.027.056.03a.114.114 0 0 1 .047.044.245.245 0 0 0-.001-.154l-.042-.15.094.131c.15.208.172.356.056.44-.114.083-.293.061-.536-.057l-.098-.048.112.001a.774.774 0 0 0 .238-.029l-.046-.01a.13.13 0 0 1-.088-.072l-.078.047-.466-.668Zm-.954.53.875.338-.04.034.064.021a.119.119 0 0 1 .055.037.249.249 0 0 0-.032-.152l-.07-.14.119.114c.188.18.239.324.14.424-.096.099-.277.105-.538.026l-.107-.032.111-.016a.756.756 0 0 0 .23-.065l-.049-.004a.137.137 0 0 1-.101-.059l-.068.06-.59-.587Zm.057.811-.905-.269.645.538.062-.063a.14.14 0 0 0 .107.05h.048a.743.743 0 0 1-.222.084l-.109.024.11.024c.268.059.447.038.534-.067.088-.108.023-.247-.182-.413l-.13-.104.084.134c.035.055.05.104.047.149a.124.124 0 0 0-.059-.032 2.106 2.106 0 0 0-.067-.017l.037-.038Zm-.099.025.001-.001-.58-.173.413.345.034-.035a.395.395 0 0 1-.017-.034l.004-.001-.028-.027.111-.085.014.002.048.009Z" clip-rule="evenodd"/><path fill="#925229" fill-rule="evenodd" d="m18.155 18.213.94-1.489 1.317.316-.948 1.358h-.37v.149l-.939-.334Z" clip-rule="evenodd"/><path fill="#FFE000" fill-rule="evenodd" d="m17.753 12.489-.622.574-.226 3.794 2.24.29s-.976-.761-1.12-1.231c-.144-.47-.19-2.225.082-2.492l.213.11.17-.451" clip-rule="evenodd"/><path fill="#D52C1E" fill-rule="evenodd" d="M15.588 12.747s-.24 2.963-.24 3.483.496 1.76 1.629 1.76 2.687-.555 2.687-.78c0-.227-.464-.389-.464-.389s-2.083.127-2.083-.59c0-.718.141-2.842.265-3.092.124-.25.552-.628.552-.628l-.817-.54-.14.54-.524-.159-.16.787-.705-.392Z" clip-rule="evenodd"/><path fill="#027934" fill-rule="evenodd" d="m18.499 13.076-.15.42-.305-.115s-.455 1.896 0 2.69c.455.795 1.6.853 1.6.853l-.484-3.429-.661-.419Z" clip-rule="evenodd"/><path fill="#E8A30C" fill-rule="evenodd" d="m18.432 15.638-1.092.768s-.3.381 0 .67c.3.289 1.13.583 1.326.235.195-.349.777-.757.777-.757l-1.011-.916Z" clip-rule="evenodd"/><path fill="#E1E5E8" fill-rule="evenodd" d="M19.289 12.743c.265-.206.398-.456.297-.56-.101-.104-.399-.021-.665.184-.265.205-.398.456-.297.56.101.103.399.02.665-.184Z" clip-rule="evenodd"/><path fill="#D52C1E" fill-rule="evenodd" d="M18.619 11.303s-.107-.02-.156-.026c-.345-.046-.518.016-.518.188 0 .294.22.61.22.833 0 .222.011.567.117.394.106-.172.644-.691.644-.691l-.307-.45s.763.076.428-.086m1.919 5.913-.573-.005c-.425.374-.464.877-.13 1.484 0 0 .11.141.149.128.054-.018.128-.223.128-.223-.025-.593.4-.986.426-1.384Z" clip-rule="evenodd"/><path fill="#FFE000" fill-rule="evenodd" d="m20.24 17.394.207-.085c.203.374.1.762-.29 1.148l-.171-.132c.17-.442.17-.625.255-.931Z" clip-rule="evenodd"/><path fill="#027934" d="m19.977 17.382.215-.056c.104.314.052.637-.151.966l-.196-.096c.175-.284.218-.554.132-.814Z"/><path fill="#864C26" d="m24.998 11.96-.04-.036-8.123 6.945.041.035 8.122-6.945Z"/><path fill="#864C26" d="m16.251 18.417.035.04 9.45-6.17-.036-.04-9.449 6.17Z"/><path fill="#A05A2C" d="m16.052 17.802.029.043 10.51-5.085-.028-.044-10.511 5.086Z"/><path fill="#E7E7E7" fill-rule="evenodd" d="m25.948 11.112-.796.468.044.027-.056.03a.114.114 0 0 0-.047.044.245.245 0 0 1 .001-.154l.042-.15-.094.131c-.15.208-.172.356-.056.44.114.083.293.061.536-.057l.098-.048-.112.001a.774.774 0 0 1-.238-.029l.046-.01a.13.13 0 0 0 .088-.072l.078.047.466-.668Zm.954.53-.875.338.04.034-.064.021a.122.122 0 0 0-.055.037.249.249 0 0 1 .032-.152l.07-.14-.119.114c-.188.18-.239.324-.14.424.096.099.277.105.538.026l.107-.032-.111-.016a.756.756 0 0 1-.23-.065l.049-.004a.137.137 0 0 0 .101-.059l.068.06.59-.587Zm-.057.811.905-.269-.645.538-.061-.063a.14.14 0 0 1-.108.05h-.048a.743.743 0 0 0 .222.084l.109.024-.11.024c-.268.059-.447.038-.534-.067-.088-.108-.023-.247.182-.413l.13-.104-.084.134a.252.252 0 0 0-.047.149.124.124 0 0 1 .059-.032l.066-.017-.036-.038Zm.099.025-.001-.001.58-.173-.413.345-.034-.035a.395.395 0 0 0 .017-.034l-.004-.001.028-.027-.111-.085-.014.002a1.366 1.366 0 0 0-.048.009Z" clip-rule="evenodd"/><path fill="#925229" fill-rule="evenodd" d="m23.845 18.213-.94-1.489-1.317.316.948 1.358h.37v.149l.939-.334Z" clip-rule="evenodd"/><path fill="#FFE000" fill-rule="evenodd" d="m24.247 12.489.622.574.226 3.794-2.24.29s.976-.761 1.12-1.231c.144-.47.19-2.225-.082-2.492l-.213.11-.17-.451" clip-rule="evenodd"/><path fill="#D52C1E" fill-rule="evenodd" d="M26.412 12.747s.24 2.963.24 3.483-.496 1.76-1.629 1.76-2.687-.555-2.687-.78c0-.227.464-.389.464-.389s2.083.127 2.083-.59c0-.718-.141-2.842-.265-3.092-.124-.25-.552-.628-.552-.628l.817-.54.14.54.524-.159.16.787.705-.392Z" clip-rule="evenodd"/><path fill="#027934" fill-rule="evenodd" d="m23.501 13.076.15.42.305-.115s.455 1.896 0 2.69c-.455.795-1.6.853-1.6.853l.484-3.429.661-.419Z" clip-rule="evenodd"/><path fill="#E8A30C" fill-rule="evenodd" d="m23.568 15.638 1.092.768s.3.381 0 .67c-.3.289-1.13.583-1.326.235-.195-.349-.777-.757-.777-.757l1.011-.916Z" clip-rule="evenodd"/><path fill="#E1E5E8" fill-rule="evenodd" d="M22.711 12.743c-.265-.206-.398-.456-.297-.56.101-.104.399-.021.665.184.265.205.398.456.297.56-.101.103-.399.02-.665-.184Z" clip-rule="evenodd"/><path fill="#D52C1E" fill-rule="evenodd" d="m21.034 17.378.573-.005c.425.374.464.877.13 1.484 0 0-.11.141-.149.128-.054-.018-.128-.223-.128-.223.025-.593-.4-.986-.426-1.384Z" clip-rule="evenodd"/><path fill="#FFE000" fill-rule="evenodd" d="m21.76 17.394-.207-.085c-.203.374-.1.762.29 1.148l.171-.132c-.17-.442-.17-.625-.255-.931Z" clip-rule="evenodd"/><path fill="#027934" d="m22.023 17.382-.215-.056c-.104.314-.052.637.151.966l.196-.096c-.175-.284-.218-.554-.132-.814Z"/><path fill="#00A6DE" fill-rule="evenodd" d="M18.248 14.82c0 1.44 1.195 2.638 2.723 2.638 1.527 0 2.723-1.198 2.723-2.637 0-1.44-1.196-2.637-2.723-2.637-1.528 0-2.723 1.198-2.723 2.637Zm4.809 0c0 1.155-.934 2.09-2.086 2.09a2.088 2.088 0 0 1-2.086-2.09c0-1.153.934-2.089 2.086-2.089 1.152 0 2.086.936 2.086 2.09Z" clip-rule="evenodd"/><path fill="#FFC036" fill-rule="evenodd" d="M20.97 16.91a2.088 2.088 0 0 0 2.086-2.089c0-1.154-.933-2.09-2.085-2.09a2.088 2.088 0 0 0-2.086 2.09c0 1.154.934 2.09 2.086 2.09Z" clip-rule="evenodd"/><mask id="e" width="6" height="5" x="18" y="12" maskUnits="userSpaceOnUse" style="mask-type:alpha"><path fill="#fff" fill-rule="evenodd" d="M20.97 16.91a2.088 2.088 0 0 0 2.086-2.089c0-1.154-.933-2.09-2.085-2.09a2.088 2.088 0 0 0-2.086 2.09c0 1.154.934 2.09 2.086 2.09Z" clip-rule="evenodd"/></mask><g mask="url(#e)" fill-rule="evenodd" clip-rule="evenodd"><path fill="#D52C1E" d="m20.97 14.448-.27.496.007-.548-.495.346.283-.49-.62.127.503-.337-.624-.117.623-.116-.503-.337.621.128-.283-.491.495.346-.007-.548.27.496.271-.496-.006.548.494-.346-.283.49.62-.127-.502.337.623.116-.623.117.503.337-.62-.128.282.491-.494-.346.006.548-.27-.496Z"/><path fill="#027934" d="M18.796 14.941s1.631-1.02 2.032-1.02c.4 0 2.11 1.026 2.46 1.165.35.14 0 2.878 0 2.878H18.66l.135-3.023Z"/></g><path fill="#FFC036" fill-rule="evenodd" d="m18.784 13.726.1.05c.55-.825 1.25-1.234 2.102-1.234.955.047 1.67.51 2.148 1.396l.105-.041c-.494-.918-1.246-1.405-2.25-1.455-.9 0-1.636.43-2.205 1.284Zm-.405 1.59.187-.112.188.112-.067-.188.182-.118-.228-.004-.075-.185-.075.185-.228.004.182.118-.066.188Zm.419.634-.187.112.066-.187-.182-.119.228-.004.075-.185.075.185.228.004-.182.119.066.187-.187-.112Zm.276.71.188-.113.187.112-.066-.187.182-.119-.229-.004-.074-.185-.075.185-.229.004.182.119-.066.187Zm.883.385-.188.112.067-.188-.182-.118.228-.004.075-.185.075.185.228.004-.182.118.066.188-.187-.112Zm.798.36.187-.111.187.111-.066-.187.182-.119-.228-.003-.075-.186-.075.186-.228.003.182.119-.066.187Zm2.62-2.201.188.112-.066-.188.181-.118-.228-.004-.075-.185-.075.185-.228.004.182.118-.066.188.187-.112Zm-.044.858-.188-.112-.187.112.066-.187-.181-.119.228-.004.075-.185.075.185.228.004-.182.119.066.187Zm-.651.485.187.112-.066-.187.182-.119-.228-.004-.075-.185-.075.185-.228.004.182.119-.066.187.187-.112Zm-.508.61-.187-.112-.188.112.066-.188-.181-.118.228-.004.075-.185.075.185.228.004-.182.118.066.188Z" clip-rule="evenodd"/><path fill="#036A2D" d="m19.519 9.007.223.145c-.573.457-.68.966-.57 1.404.114.457.622.943 1.546 1.443l-.34.463c-1.055-.57-1.663-1.099-1.82-1.727-.162-.648.236-1.15.96-1.728Zm3.041 0-.224.145c.573.457.681.966.571 1.404-.114.457-.622.943-1.546 1.443l.34.463c1.055-.57 1.662-1.099 1.82-1.727.162-.648-.236-1.15-.961-1.728Z"/><path fill="#452C24" fill-rule="evenodd" d="M17.372 10.862s.978-.601 1.442-.601c.464 0 1.084-.138 1.18.178.098.316.282.225.641.225h1.066s-.211-.403.18-.403c.39 0 2.024.205 2.517.403.492.198.517.315.517.315s-.456-.234-.96-.117c-.505.117-1.42.632-1.837.632-.417 0-.75.398-.75.398s.027-.204-.353-.102-.371.583-.696.494c-.324-.088.094-.79 0-.79-.093 0-.756-.231-.756-.231s-.643-.518-1.597-.401c-.955.117-.594 0-.594 0Z" clip-rule="evenodd"/><path fill="#E7E7E7" fill-rule="evenodd" d="M20.855 11.289c.192 0 .348-.123.348-.274 0-.151-.156-.274-.348-.274-.192 0-.348.123-.348.274 0 .151.156.274.348.274Z" clip-rule="evenodd"/><path fill="#E8A30C" fill-rule="evenodd" d="M20.104 11.007s.112-.189.335-.189c.223 0 .64 0 .64.095 0 .094.034.218-.303.218-.337 0-.12-.124-.337-.124h-.335Z" clip-rule="evenodd"/><path fill="#E1E5E8" fill-rule="evenodd" d="M24.078 12.283c.13-.12.202-.413.202-.413s-.578.083-.713 0c-.134-.082-.204-.323-.204-.323s-.521.211-.323.211c.199 0 .323.157.323.157l.404.133s-.268.235-.134.235.316.12.445 0Z" clip-rule="evenodd"/><path fill="#925229" d="m23.06 12.384-.073-.077.508-.354.073.078-.508.353Z"/></g></g></g></g><defs><clipPath id="b"><rect width="36" height="24" x="3" y="2" fill="#fff" rx="2"/></clipPath><filter id="a" width="42" height="30" x="0" y="0" color-interpolation-filters="sRGB" filterUnits="userSpaceOnUse"><feFlood flood-opacity="0" result="BackgroundImageFix"/><feColorMatrix in="SourceAlpha" result="hardAlpha" values="0 0 0 0 0 0 0 0 0 0 0 0 0 0 0 0 0 0 127 0"/><feOffset dy="1"/><feGaussianBlur stdDeviation="1"/><feColorMatrix values="0 0 0 0 0.0627451 0 0 0 0 0.0941176 0 0 0 0 0.156863 0 0 0 0.06 0"/><feBlend in2="BackgroundImageFix" result="effect1_dropShadow_91_29419"/><feColorMatrix in="SourceAlpha" result="hardAlpha" values="0 0 0 0 0 0 0 0 0 0 0 0 0 0 0 0 0 0 127 0"/><feOffset dy="1"/><feGaussianBlur stdDeviation="1.5"/><feColorMatrix values="0 0 0 0 0.0627451 0 0 0 0 0.0941176 0 0 0 0 0.156863 0 0 0 0.1 0"/><feBlend in2="effect1_dropShadow_91_29419" result="effect2_dropShadow_91_29419"/><feBlend in="SourceGraphic" in2="effect2_dropShadow_91_29419" result="shape"/></filter></defs></svg>