<svg xmlns="http://www.w3.org/2000/svg" width="42" height="30" fill="none"><g filter="url(#a)"><g clip-path="url(#b)"><g clip-path="url(#c)"><path fill="#2E42A5" fill-rule="evenodd" d="M3 2v24h36V2H3Z" clip-rule="evenodd"/><mask id="d" width="36" height="24" x="3" y="2" maskUnits="userSpaceOnUse" style="mask-type:alpha"><path fill="#fff" fill-rule="evenodd" d="M3 2v24h36V2H3Z" clip-rule="evenodd"/></mask><g mask="url(#d)"><path fill="#2B409A" d="M3 2h20.25v14H3z"/><mask id="e" width="21" height="14" x="3" y="2" maskUnits="userSpaceOnUse" style="mask-type:alpha"><path fill="#fff" d="M3 2h20.25v14H3z"/></mask><g mask="url(#e)"><path fill="#F7FCFF" d="m.745 15 4.456 1.737 18.15-12.848 2.35-2.582-4.765-.58-7.402 5.536-5.96 3.73L.746 15Z"/><path fill="#F50100" d="m1.355 16.217 2.27 1.008L24.857 1.067H21.67L1.355 16.217Z"/><path fill="#F7FCFF" d="m25.505 15-4.456 1.737L2.899 3.889.549 1.307l4.765-.58 7.402 5.536 5.96 3.73L25.504 15Z"/><path fill="#F50100" d="m25.353 15.873-2.27 1.008-9.041-6.918-2.68-.773L.322 1.316H3.51l11.033 7.688 2.93.926 7.88 5.943Z"/><mask id="f" width="24" height="18" x="1" y="0" fill="#000" maskUnits="userSpaceOnUse"><path fill="#fff" d="M1 0h24v18H1z"/><path fill-rule="evenodd" d="M14.233 2h-2.25v6H3v2h8.983v6h2.25v-6h9.017V8h-9.017V2Z" clip-rule="evenodd"/></mask><path fill="#F50100" fill-rule="evenodd" d="M14.233 2h-2.25v6H3v2h8.983v6h2.25v-6h9.017V8h-9.017V2Z" clip-rule="evenodd"/><path fill="#F7FCFF" d="M11.983 2V.5h-1.5V2h1.5Zm2.25 0h1.5V.5h-1.5V2Zm-2.25 6v1.5h1.5V8h-1.5ZM3 8V6.5H1.5V8H3Zm0 2H1.5v1.5H3V10Zm8.983 0h1.5V8.5h-1.5V10Zm0 6h-1.5v1.5h1.5V16Zm2.25 0v1.5h1.5V16h-1.5Zm0-6V8.5h-1.5V10h1.5Zm9.017 0v1.5h1.5V10h-1.5Zm0-2h1.5V6.5h-1.5V8Zm-9.017 0h-1.5v1.5h1.5V8Zm-2.25-4.5h2.25v-3h-2.25v3Zm1.5 4.5V2h-3v6h3ZM3 9.5h8.983v-3H3v3Zm1.5.5V8h-3v2h3Zm7.483-1.5H3v3h8.983v-3Zm1.5 7.5v-6h-3v6h3Zm.75-1.5h-2.25v3h2.25v-3Zm-1.5-4.5v6h3v-6h-3ZM23.25 8.5h-9.017v3h9.017v-3Zm-1.5-.5v2h3V8h-3Zm-7.517 1.5h9.017v-3h-9.017v3Zm-1.5-7.5v6h3V2h-3Z" mask="url(#f)"/></g><g clip-path="url(#g)"><path fill="#fff" d="M26.057 16.722V13.05h7.802v3.672c0 2.352-.909 3.91-1.834 4.88a6.286 6.286 0 0 1-1.293 1.04c-.18.108-.334.186-.446.237a1.897 1.897 0 0 1-.186.07 4.953 4.953 0 0 1-.675-.309 6.756 6.756 0 0 1-1.39-1.04c-.997-.97-1.978-2.527-1.978-4.878Z"/><path stroke="#0B50A0" stroke-width=".1" d="M26.057 16.722V13.05h7.802v3.672c0 2.352-.909 3.91-1.834 4.88a6.286 6.286 0 0 1-1.293 1.04c-.18.108-.334.186-.446.237a1.897 1.897 0 0 1-.186.07 4.953 4.953 0 0 1-.675-.309 6.756 6.756 0 0 1-1.39-1.04c-.997-.97-1.978-2.527-1.978-4.878Z"/><path stroke="#F7FCFF" stroke-width=".1" d="M26.057 16.722V13.05h7.802v3.672c0 2.352-.909 3.91-1.834 4.88a6.286 6.286 0 0 1-1.293 1.04c-.18.108-.334.186-.446.237a1.897 1.897 0 0 1-.186.07 4.953 4.953 0 0 1-.675-.309 6.756 6.756 0 0 1-1.39-1.04c-.997-.97-1.978-2.527-1.978-4.878Z"/><mask id="h" width="8" height="10" x="26" y="13" maskUnits="userSpaceOnUse" style="mask-type:alpha"><path fill="#fff" d="M26.057 16.722V13.05h7.802v3.672c0 2.352-.909 3.91-1.834 4.88a6.286 6.286 0 0 1-1.293 1.04c-.18.108-.334.186-.446.237a1.897 1.897 0 0 1-.186.07 4.953 4.953 0 0 1-.675-.309 6.756 6.756 0 0 1-1.39-1.04c-.997-.97-1.978-2.527-1.978-4.878Z"/><path stroke="#fff" stroke-width=".1" d="M26.057 16.722V13.05h7.802v3.672c0 2.352-.909 3.91-1.834 4.88a6.286 6.286 0 0 1-1.293 1.04c-.18.108-.334.186-.446.237a1.897 1.897 0 0 1-.186.07 4.953 4.953 0 0 1-.675-.309 6.756 6.756 0 0 1-1.39-1.04c-.997-.97-1.978-2.527-1.978-4.878Z"/></mask><g mask="url(#h)"><path fill="#F50100" d="M25.5 12.5h9v3.4h-9z"/><path fill="#F50100" d="M29.512 16.6c.288 0 .864-.313 1.008-.386.528-.313.912-.024 1.224.12.336.146.96.314 1.344 0 .384-.313.6-.288.864-.288.048-.362.048-.724.048-1.134v-.29c-.336-.071-.504.025-.864.338-.36.314-.768.242-1.296.049-.504-.217-1.008-.603-1.512 0-.144.168-.48.41-.816.41-.36 0-.672-.242-.816-.41-.528-.603-1.008-.217-1.512 0-.528.193-.96.265-1.32-.049-.336-.313-.504-.41-.864-.337v.29c0 .41.024.77.072 1.133.264 0 .456-.025.84.289.384.313 1.032.145 1.344 0 .336-.145.72-.434 1.248-.12.144.072.696.385 1.008.385Z"/><path fill="#FFD100" fill-rule="evenodd" d="M27.084 14.049s.217.01.473.275c.257.265 1.203.097 1.203-.063s-.574-.256-.354-.53c.22-.273.594-.273.894-.13.086 0 .076.935.273.883.622-.162 1.625-.485 1.919-.346.387.182.683.136.585-.125-.098-.26-.351-.424-.838-.281-.487.142-.373.281-.793.281-.421 0-1.143.228-.823-.281.288-.457.63-.466.761-.274.067.098-.479.315-.479.416 0 .14 1.407-.274 1.587-.274.18 0 .676-.01.726.132.049.142.348.273.12.406-.229.133-.605.216-.346.386.26.17.916.247.944.424.029.177.311.442.198.442-.113 0-.318.25-.509.173-.19-.076-.213-.142-.03-.204.183-.061.181-.32.03-.32-.15 0-.138-.02-.481-.11-.343-.09-.798-.191-.77 0 .027.191.26.602-.153.64-.413.04-.606.197-.686.07-.08-.126-.367-.294-.142-.349.226-.054.442.184.523.145.081-.039.256-.177.102-.342-.154-.164-.454-.17-.218-.293.236-.123.095-.217-.354.038-.45.255-.7.472-1.094.442-.395-.031-.572.11-.698.068-.127-.042-.745.457-.922.33-.178-.126-.752-.175-.649-.33.103-.156.242-.236.397-.156.154.08.308.16.412.08.104-.08.434-.453.359-.508-.076-.055-.343-.15-.771-.15-.429 0-.439-.284-.54-.414-.102-.13.144-.151.144-.151Z" clip-rule="evenodd"/><path fill="#0B50A0" d="M29.512 19c.288 0 .864-.314 1.008-.386.528-.313.912-.024 1.224.12.336.145.96.314 1.344 0 .384-.313.6-.289.864-.289.048-.361.048-.723.048-1.133v-.29c-.336-.071-.504.025-.864.338-.36.314-.768.242-1.296.049-.504-.217-1.008-.603-1.512 0-.144.168-.48.41-.816.41-.36 0-.672-.242-.816-.41-.528-.603-1.008-.217-1.512 0-.528.193-.96.265-1.32-.049-.336-.313-.504-.41-.864-.337v.29c0 .41.024.77.072 1.132.264 0 .456-.024.84.29.384.313 1.032.144 1.344 0 .336-.145.72-.434 1.248-.12.144.072.696.385 1.008.385Zm0 2.3c.288 0 .864-.314 1.008-.386.528-.313.912-.024 1.224.12.336.145.96.314 1.344 0 .384-.313.6-.289.864-.289.048-.361.048-.723.048-1.133v-.29c-.336-.072-.504.025-.864.338-.36.314-.768.241-1.296.048-.504-.217-1.008-.602-1.512 0-.144.17-.48.41-.816.41-.36 0-.672-.24-.816-.41-.528-.602-1.008-.217-1.512 0-.528.193-.96.266-1.32-.048-.336-.313-.504-.41-.864-.337v.289c0 .41.024.772.072 1.133.264 0 .456-.024.84.29.384.313 1.032.144 1.344 0 .336-.145.72-.434 1.248-.121.144.072.696.386 1.008.386Zm0 2.3c.288 0 .864-.313 1.008-.386.528-.313.912-.024 1.224.12.336.146.96.314 1.344 0 .384-.313.6-.288.864-.288.048-.362.048-.724.048-1.134v-.29c-.336-.071-.504.025-.864.338-.36.314-.768.242-1.296.049-.504-.217-1.008-.603-1.512 0-.144.168-.48.41-.816.41-.36 0-.672-.242-.816-.41-.528-.603-1.008-.217-1.512 0-.528.193-.96.265-1.32-.049-.336-.313-.504-.41-.864-.337v.29c0 .41.024.77.072 1.133.264 0 .456-.025.84.289.384.313 1.032.145 1.344 0 .336-.145.72-.434 1.248-.12.144.072.696.385 1.008.385Z"/><path fill="#059334" stroke="#FFD100" stroke-width=".2" d="m30.082 20.544-.05-.026-.047.029-.417.247.122-.517.014-.057-.043-.04-.405-.374h.589l.024-.066.173-.47.206.476.026.06h.494l-.36.38-.04.043.018.057.17.509-.474-.25Zm-2-2-.05-.026-.047.029-.417.247.122-.517.014-.057-.043-.04-.405-.374h.589l.024-.066.173-.47.206.476.026.06h.494l-.36.38-.04.043.018.057.17.509-.474-.25Zm4 0-.05-.026-.047.029-.417.247.122-.517.014-.057-.043-.04-.405-.374h.589l.024-.066.173-.47.206.476.026.06h.494l-.36.38-.04.043.018.057.17.509-.474-.25Z"/></g></g><path fill="#FFD100" d="M25.337 22.634c.092.197.75.455 1.515.123.521-.233.858-.565 1.18-1.155.091-.148.137-.332-.077-.442-.168-.099-.444-.21-.567-.308-.06-.049-.122-.086-.168-.122.03.024.061.049.092.085.306.295-.015.726-.352.984-.245.184-.69.639-1.332.209-.138-.099-.46.307-.291.626Zm9.309 0c-.107.197-.766.455-1.516.123-.52-.233-.857-.565-1.194-1.155-.077-.148-.123-.332.092-.442.168-.099.444-.21.566-.308a1.46 1.46 0 0 1 .169-.122.643.643 0 0 0-.092.085c-.306.295.015.726.337.984.245.184.704.639 1.347.209.138-.099.444.307.291.626Z"/><path fill="#FFD100" d="M29.991 23.691c1.225 0 3.108-.442 4.119-1.99.168-.259 0-.394-.2-.48a2.384 2.384 0 0 1-.612-.356c.245.196.2.332.03.553-.78 1.044-1.852 1.573-3.337 1.573s-2.557-.529-3.338-1.573c-.168-.221-.214-.357.016-.553-.123.11-.399.282-.613.356-.199.086-.367.221-.199.48 1.01 1.548 2.91 1.99 4.134 1.99Z"/><path fill="#F50100" d="M27.159 21.614c-.031-.123-.23-.073-.291.074a2.07 2.07 0 0 1-.215-.27c-.183-.222-.214-.37.046-.578.123-.098.368-.209.536-.086.352.233.169.614-.076.86Zm5.65 0c.03-.123.245-.073.306.074.076-.086.153-.172.214-.27.184-.222.215-.37-.061-.578-.107-.098-.352-.209-.536-.086-.337.233-.168.614.077.86Z"/><path fill="#059334" d="M28.424 11.364c-.12-.164-.447-.237-.584-.091-.052.037-.12.037-.172.055-.086 0-.196.046-.162.228.093 0 .093.046.145.046.034-.019.123.316.295.298.19 0 .358.085.392.121.052.055.12.201.034.274a.385.385 0 0 0 0 .566c.224.183.791.456 1.427-.073.619-.511 1.581-.219 1.65-.037.086.183.12.293.138.384.017.073.48.182.55.237.086.055.206.037.172-.128-.07-.51-.361-.584-.396-.821.172.018.292.018.361-.055.052-.073.12-.2.19-.237.05-.037.05-.073-.018-.055-.086.018-.137.055-.292.037-.366-.043-.276-1.427-1.486-1.697-.748-.166-1.68.975-1.936 1.088a.114.114 0 0 1-.016.006.36.36 0 0 1-.292-.146Z"/></g></g></g></g><defs><clipPath id="b"><rect width="36" height="24" x="3" y="2" fill="#fff" rx="2"/></clipPath><clipPath id="c"><path fill="#fff" d="M0 0h36v24H0z" transform="translate(3 2)"/></clipPath><clipPath id="g"><path fill="#fff" d="M0 0h8v10H0z" transform="translate(26 13)"/></clipPath><filter id="a" width="42" height="30" x="0" y="0" color-interpolation-filters="sRGB" filterUnits="userSpaceOnUse"><feFlood flood-opacity="0" result="BackgroundImageFix"/><feColorMatrix in="SourceAlpha" result="hardAlpha" values="0 0 0 0 0 0 0 0 0 0 0 0 0 0 0 0 0 0 127 0"/><feOffset dy="1"/><feGaussianBlur stdDeviation="1"/><feColorMatrix values="0 0 0 0 0.0627451 0 0 0 0 0.0941176 0 0 0 0 0.156863 0 0 0 0.06 0"/><feBlend in2="BackgroundImageFix" result="effect1_dropShadow_91_26915"/><feColorMatrix in="SourceAlpha" result="hardAlpha" values="0 0 0 0 0 0 0 0 0 0 0 0 0 0 0 0 0 0 127 0"/><feOffset dy="1"/><feGaussianBlur stdDeviation="1.5"/><feColorMatrix values="0 0 0 0 0.0627451 0 0 0 0 0.0941176 0 0 0 0 0.156863 0 0 0 0.1 0"/><feBlend in2="effect1_dropShadow_91_26915" result="effect2_dropShadow_91_26915"/><feBlend in="SourceGraphic" in2="effect2_dropShadow_91_26915" result="shape"/></filter></defs></svg>