<svg xmlns="http://www.w3.org/2000/svg" width="42" height="30" fill="none"><g filter="url(#a)"><g clip-path="url(#b)"><mask id="c" width="36" height="24" x="3" y="2" maskUnits="userSpaceOnUse" style="mask-type:alpha"><path fill="#fff" d="M3 2h36v24H3z"/></mask><g mask="url(#c)"><path fill="#F7FCFF" fill-rule="evenodd" d="M3 2v24h36V2H3Z" clip-rule="evenodd"/><mask id="d" width="36" height="24" x="3" y="2" maskUnits="userSpaceOnUse" style="mask-type:alpha"><path fill="#fff" fill-rule="evenodd" d="M3 2v24h36V2H3Z" clip-rule="evenodd"/></mask><g mask="url(#d)"><path fill="#E31D1C" fill-rule="evenodd" d="M3 2v8h36V2H3Z" clip-rule="evenodd"/><path fill="#3D58DB" fill-rule="evenodd" d="M3 18v8h36v-8H3Z" clip-rule="evenodd"/><path fill="#E31D1C" d="M14.336 8.397h12.825v4H14.336z"/><path fill="#F7FCFF" stroke="#E31D1C" stroke-width="1.125" d="M14.913 10.96H26.45c.019.766.025 2.108.025 3.402a581.071 581.071 0 0 1-.009 2.943v.198l-.001.023a4.442 4.442 0 0 1-.163.581c-.138.39-.376.909-.775 1.427-.781 1.014-2.223 2.081-4.92 2.081-2.696 0-4.068-1.067-4.785-2.07a4.85 4.85 0 0 1-.806-1.881 2.607 2.607 0 0 1-.02-.12v-.013l-.002-.042-.002-.196-.01-.708a3048.427 3048.427 0 0 1-.068-5.625Z"/><mask id="e" width="14" height="13" x="14" y="10" maskUnits="userSpaceOnUse" style="mask-type:alpha"><path fill="#fff" stroke="#fff" stroke-width="1.125" d="M14.913 10.96H26.45c.019.766.025 2.108.025 3.402a581.071 581.071 0 0 1-.009 2.943v.198l-.001.023a4.442 4.442 0 0 1-.163.581c-.138.39-.376.909-.775 1.427-.781 1.014-2.223 2.081-4.92 2.081-2.696 0-4.068-1.067-4.785-2.07a4.85 4.85 0 0 1-.806-1.881 2.607 2.607 0 0 1-.02-.12v-.013l-.002-.042-.002-.196-.01-.708a3048.427 3048.427 0 0 1-.068-5.625Z"/></mask><g mask="url(#e)"><path fill="#F50100" fill-rule="evenodd" d="M14.81 11.04h2.374v2.142H14.81V11.04Zm2.374 2.142h2.373v2.142h2.373v-2.142h2.373v2.142h2.373v2.142h-2.373v-2.142H21.93v2.142h-2.373v-2.142h-2.373v-2.142Zm2.373 4.284h-2.373v2.142h2.373v2.142h2.373v-2.142h2.373v2.142h2.373v-2.142h-2.373v-2.142H21.93v2.142h-2.373v-2.142Zm-4.746-2.142h2.373v2.142H14.81v-2.142Zm7.119-4.284h-2.373v2.142h2.373V11.04Zm2.373 0h2.373v2.142h-2.373V11.04Zm-7.12 8.568H14.81v2.142h2.374v-2.142Z" clip-rule="evenodd"/></g><path fill="#56C6F5" fill-rule="evenodd" stroke="#fff" stroke-width=".5" d="M14.76 10.162s.733-.348 1.36-.528c.626-.18 1.12-.277 1.12-.277l-.931-3.052-1.866-.62-1.056 1.548 1.372 2.93Z" clip-rule="evenodd"/><path fill="#fff" d="m14.454 8.49.214-.091c.221.42.513.55.913.418.409-.135.575-.392.517-.798l.235-.028c.073.505-.156.857-.67 1.027-.523.173-.938-.012-1.21-.527Z"/><path fill="#FECA00" fill-rule="evenodd" d="m14.961 7.542-.22.118a.053.053 0 0 1-.078-.058l.048-.216-.208-.101c-.043-.022-.037-.086.01-.1l.225-.069-.005-.22c-.001-.045.052-.073.088-.045l.193.15.22-.118a.053.053 0 0 1 .078.059l-.048.215.208.102c.044.021.038.086-.01.1l-.224.068.005.22a.055.055 0 0 1-.088.045l-.194-.15Z" clip-rule="evenodd"/><path fill="#56C6F5" fill-rule="evenodd" stroke="#fff" stroke-width=".5" d="M19.358 9.076s.626-.05 1.284-.038c.657.01 1.214.015 1.214.015l.321-3.01-1.409-1.13-1.566 1.157.156 3.006Z" clip-rule="evenodd"/><path fill="#FECA00" fill-rule="evenodd" d="M20.719 8.585c.542 0 .594-.52.594-.876-.139-.197-.11-.337-.555-.337-.445 0-.496.119-.626.337 0 .355.044.876.587.876Zm.611-1.472c.542 0 .594-.521.594-.876-.139-.197-.11-.338-.555-.338-.445 0-.496.12-.626.338 0 .355.044.876.586.876Zm-1.187 0c.543 0 .595-.521.595-.876-.14-.197-.111-.338-.556-.338-.445 0-.496.12-.625.338 0 .355.043.876.586.876Z" clip-rule="evenodd"/><path fill="#2E42A5" stroke="#fff" stroke-width=".5" d="m16.951 9.368.075.227.23-.065h.002l.006-.002.023-.006a13.01 13.01 0 0 1 .379-.098 6.59 6.59 0 0 1 .717-.144c.21-.026.472-.045.684-.058l.262-.014.077-.003h.027l.265-.01-.025-.265-.284-2.924-.012-.122-.103-.066-1.533-.967-.162-.103-.141.13-1.393 1.284-.12.11.051.153.975 2.943Z"/><mask id="f" width="5" height="6" x="15" y="4" maskUnits="userSpaceOnUse" style="mask-type:alpha"><path fill="#fff" stroke="#fff" stroke-width=".5" d="m16.951 9.368.075.227.23-.065h.002l.006-.002.023-.006a13.01 13.01 0 0 1 .379-.098 6.59 6.59 0 0 1 .717-.144c.21-.026.472-.045.684-.058l.262-.014.077-.003h.027l.265-.01-.025-.265-.284-2.924-.012-.122-.103-.066-1.533-.967-.162-.103-.141.13-1.393 1.284-.12.11.051.153.975 2.943Z"/></mask><g mask="url(#f)"><path fill="#C51918" d="m16.99 8.638-.281-.59c.605-.236 1.628-.38 2.704-.437l.04.642c-1 .052-1.945.184-2.462.385Zm-.475-1.428-.282-.59c.606-.235 1.907-.426 2.982-.482l.042.641c-1 .053-2.225.23-2.742.431Z"/></g><path fill="#2E42A5" stroke="#fff" stroke-width=".5" d="m24.384 9.362-.072.235-.235-.067h-.002l-.006-.002-.023-.006a13.01 13.01 0 0 0-.379-.098 6.985 6.985 0 0 0-.717-.144c-.21-.026-.472-.045-.684-.058a19.92 19.92 0 0 0-.262-.014l-.077-.003H21.9l-.265-.01.025-.265.284-2.924.012-.122.103-.066 1.533-.967.167-.106.141.138 1.314 1.279.109.106-.044.146-.895 2.948Z"/><mask id="g" width="5" height="6" x="21" y="4" maskUnits="userSpaceOnUse" style="mask-type:alpha"><path fill="#fff" stroke="#fff" stroke-width=".5" d="m24.384 9.362-.072.235-.235-.067h-.002l-.006-.002-.023-.006a13.01 13.01 0 0 0-.379-.098 6.985 6.985 0 0 0-.717-.144c-.21-.026-.472-.045-.684-.058a19.92 19.92 0 0 0-.262-.014l-.077-.003H21.9l-.265-.01.025-.265.284-2.924.012-.122.103-.066 1.533-.967.167-.106.141.138 1.314 1.279.109.106-.044.146-.895 2.948Z"/></mask><g mask="url(#g)" fill-rule="evenodd" clip-rule="evenodd"><path fill="#FECA00" d="M23.697 8.467s.331-.164.379-.44c.047-.276.559-.616.303-.575-.256.04-.11.072-.48 0s-.85-.12-.85-.322c0-.203.239-.363.044-.363s-.61-.192-.527-.045c.084.146-.192-.02-.054.284s-.03.61.054.691c.084.08-.054.476-.054.476s.05.147.139-.073c.088-.22.282-.374.185-.187-.096.187-.22.632-.11.554.11-.078.22-.294.22-.367 0-.073.278-.359.278-.143s-.262.386-.13.386c.13 0 .203.046.285-.17.083-.216.282-.359.364-.216.082.143.064.135-.046.322-.11.188 0 .188 0 .188Z"/><path fill="#C51918" d="m22.92 6.867-.123-.184c.221-.12.424-.153.602-.085.081.03.142.065.301.165l.021.013c.166.103.253.145.308.145v.214c-.124 0-.23-.051-.443-.183l-.02-.013a1.523 1.523 0 0 0-.258-.144c-.099-.037-.226-.017-.387.072Zm-.39 1.397c.07 0 .127-.05.127-.112 0-.061-.056-.11-.126-.11s-.127.049-.127.11c0 .062.057.112.127.112Zm.365.103c0 .06-.057.11-.127.11s-.126-.05-.126-.11c0-.062.056-.112.126-.112s.127.05.127.112Zm.3.102c.07 0 .126-.05.126-.11 0-.062-.057-.112-.127-.112s-.126.05-.126.111c0 .062.057.111.127.111Zm.523.067c0 .062-.057.111-.127.111s-.127-.05-.127-.11c0-.062.057-.112.127-.112s.127.05.127.111Z"/></g><path fill="#56C6F5" stroke="#fff" stroke-width=".5" d="m26.988 10.196-.109.222-.223-.106h-.002l-.006-.003-.023-.011a8.902 8.902 0 0 0-.404-.178 8.495 8.495 0 0 0-.887-.321 16.138 16.138 0 0 0-1.017-.256l-.063-.013-.016-.003-.003-.001h-.001l-.275-.055.085-.267.952-2.976.039-.12.12-.04 1.866-.62.179-.06.106.156 1.057 1.548.082.12-.064.13-1.393 2.854Z"/><mask id="h" width="6" height="6" x="23" y="5" maskUnits="userSpaceOnUse" style="mask-type:alpha"><path fill="#fff" stroke="#fff" stroke-width=".5" d="m26.988 10.196-.109.222-.223-.106h-.002l-.006-.003-.023-.011a8.902 8.902 0 0 0-.404-.178 8.495 8.495 0 0 0-.887-.321 16.138 16.138 0 0 0-1.017-.256l-.063-.013-.016-.003-.003-.001h-.001l-.275-.055.085-.267.952-2.976.039-.12.12-.04 1.866-.62.179-.06.106.156 1.057 1.548.082.12-.064.13-1.393 2.854Z"/></mask><g mask="url(#h)"><path fill="#FECA00" fill-rule="evenodd" d="m26.768 7.09-.17.169c-.033.032-.09.01-.095-.035l-.025-.219-.233-.043c-.05-.01-.064-.072-.024-.098l.194-.124-.078-.209c-.016-.043.027-.083.07-.066l.234.094.171-.17c.032-.032.09-.01.094.035l.025.219.234.043c.049.009.064.072.023.098l-.193.124.077.209c.016.043-.026.083-.07.066l-.234-.094Z" clip-rule="evenodd"/><path fill="#E31D1C" d="m24.37 8.487.238-.829c1.058.249 2.162.567 2.971.875l-.369.79c-.764-.291-1.825-.597-2.84-.836Z"/><path fill="#fff" d="m24.693 7.722.056-.208c1.015.223 2.093.58 2.877.913l-.101.194a17.233 17.233 0 0 0-2.832-.9Zm-.3.854.056-.208c1.015.224 1.952.528 2.736.86l-.1.194a15.59 15.59 0 0 0-2.692-.846Z"/><path fill="#272727" d="m24.85 8.175.218-.087c.091.19.204.232.393.15.446-.192 1.553.077 1.553.44 0 .142-.092.228-.233.223a.808.808 0 0 1-.29-.086 4.742 4.742 0 0 1-.05-.022 1.582 1.582 0 0 0-.184-.079l.078-.204c.051.016.06.02.212.089l.047.02a.66.66 0 0 0 .196.065c.003 0-.014.015-.014-.006 0-.16-.9-.379-1.213-.243-.313.135-.568.04-.712-.26Z"/></g></g></g></g></g><defs><clipPath id="b"><rect width="36" height="24" x="3" y="2" fill="#fff" rx="2"/></clipPath><filter id="a" width="42" height="30" x="0" y="0" color-interpolation-filters="sRGB" filterUnits="userSpaceOnUse"><feFlood flood-opacity="0" result="BackgroundImageFix"/><feColorMatrix in="SourceAlpha" result="hardAlpha" values="0 0 0 0 0 0 0 0 0 0 0 0 0 0 0 0 0 0 127 0"/><feOffset dy="1"/><feGaussianBlur stdDeviation="1"/><feColorMatrix values="0 0 0 0 0.0627451 0 0 0 0 0.0941176 0 0 0 0 0.156863 0 0 0 0.06 0"/><feBlend in2="BackgroundImageFix" result="effect1_dropShadow_91_27663"/><feColorMatrix in="SourceAlpha" result="hardAlpha" values="0 0 0 0 0 0 0 0 0 0 0 0 0 0 0 0 0 0 127 0"/><feOffset dy="1"/><feGaussianBlur stdDeviation="1.5"/><feColorMatrix values="0 0 0 0 0.0627451 0 0 0 0 0.0941176 0 0 0 0 0.156863 0 0 0 0.1 0"/><feBlend in2="effect1_dropShadow_91_27663" result="effect2_dropShadow_91_27663"/><feBlend in="SourceGraphic" in2="effect2_dropShadow_91_27663" result="shape"/></filter></defs></svg>