<svg width="42" height="30" viewBox="0 0 42 30" fill="none" xmlns="http://www.w3.org/2000/svg"><g id="Country=CU - Cuba, Size=sm (36x24)" filter="url(#filter0_dd_91_28909)"><g clip-path="url(#clip0_91_28909)"><g id="flag"><mask id="mask0_91_28909" style="mask-type:alpha" maskUnits="userSpaceOnUse" x="3" y="2" width="36" height="24"><rect id="mask" x="3" y="2" width="36" height="24" fill="white"/></mask><g mask="url(#mask0_91_28909)"><g id="contents"><path id="background" fill-rule="evenodd" clip-rule="evenodd" d="M3 2V26H39V2H3Z" fill="#3D58DB"/><g id="Object"><mask id="mask1_91_28909" style="mask-type:alpha" maskUnits="userSpaceOnUse" x="3" y="2" width="36" height="24"><path id="background_2" fill-rule="evenodd" clip-rule="evenodd" d="M3 2V26H39V2H3Z" fill="white"/></mask><g mask="url(#mask1_91_28909)"><path id="bottom" d="M3 10H1V12V16V18H3H39H41V16V12V10H39H3Z" fill="#3D58DB" stroke="#F7FCFF" stroke-width="4"/></g></g><path id="triangle" fill-rule="evenodd" clip-rule="evenodd" d="M3 2V26L23.25 14L3 2Z" fill="#E31D1C"/><mask id="mask2_91_28909" style="mask-type:alpha" maskUnits="userSpaceOnUse" x="3" y="2" width="21" height="24"><path id="triangle_2" fill-rule="evenodd" clip-rule="evenodd" d="M3 2V26L23.25 14L3 2Z" fill="white"/></mask><g mask="url(#mask2_91_28909)"><g id="mark"><path id="Star 5" fill-rule="evenodd" clip-rule="evenodd" d="M10.5238 16.217L6.39292 18.1549L8.40404 14.261L5.84131 12.1809L9.00535 12.0771L10.5238 8.5564L11.6826 12.0771H14.8413L12.736 14.261L14.4106 18.1549L10.5238 16.217Z" fill="#F7FCFF"/></g></g></g></g></g></g></g><defs><filter id="filter0_dd_91_28909" x="0" y="0" width="42" height="30" filterUnits="userSpaceOnUse" color-interpolation-filters="sRGB"><feFlood flood-opacity="0" result="BackgroundImageFix"/><feColorMatrix in="SourceAlpha" values="0 0 0 0 0 0 0 0 0 0 0 0 0 0 0 0 0 0 127 0" result="hardAlpha"/><feOffset dy="1"/><feGaussianBlur stdDeviation="1"/><feColorMatrix values="0 0 0 0 0.0627451 0 0 0 0 0.0941176 0 0 0 0 0.156863 0 0 0 0.06 0"/><feBlend in2="BackgroundImageFix" result="effect1_dropShadow_91_28909"/><feColorMatrix in="SourceAlpha" values="0 0 0 0 0 0 0 0 0 0 0 0 0 0 0 0 0 0 127 0" result="hardAlpha"/><feOffset dy="1"/><feGaussianBlur stdDeviation="1.5"/><feColorMatrix values="0 0 0 0 0.0627451 0 0 0 0 0.0941176 0 0 0 0 0.156863 0 0 0 0.1 0"/><feBlend in2="effect1_dropShadow_91_28909" result="effect2_dropShadow_91_28909"/><feBlend in="SourceGraphic" in2="effect2_dropShadow_91_28909" result="shape"/></filter><clipPath id="clip0_91_28909"><rect x="3" y="2" width="36" height="24" rx="2" fill="white"/></clipPath></defs></svg>