<svg width="42" height="30" viewBox="0 0 42 30" fill="none" xmlns="http://www.w3.org/2000/svg"><g id="Country=CW - Curaçao, Size=sm (36x24)" filter="url(#filter0_dd_91_28882)"><g clip-path="url(#clip0_91_28882)"><g id="flag"><mask id="mask0_91_28882" style="mask-type:alpha" maskUnits="userSpaceOnUse" x="3" y="2" width="36" height="24"><rect id="mask" x="3" y="2" width="36" height="24" fill="white"/></mask><g mask="url(#mask0_91_28882)"><g id="contents"><path id="background" fill-rule="evenodd" clip-rule="evenodd" d="M3 2V26H39V2H3Z" fill="#2E42A5"/><mask id="mask1_91_28882" style="mask-type:alpha" maskUnits="userSpaceOnUse" x="3" y="2" width="36" height="24"><path id="background_2" fill-rule="evenodd" clip-rule="evenodd" d="M3 2V26H39V2H3Z" fill="white"/></mask><g mask="url(#mask1_91_28882)"><path id="Star 5" fill-rule="evenodd" clip-rule="evenodd" d="M7.78623 8.14923L5.54877 9.19891L6.62907 7.33053L5.25 5.96315L6.96376 5.90693L7.78623 4L8.41387 5.90693L10.4193 5.96315L8.97541 7.33053L9.89143 9.19891L7.78623 8.14923Z" fill="#F7FCFF"/><path id="Star 5_2" fill-rule="evenodd" clip-rule="evenodd" d="M15.7714 13.0766L13.01 14.1048L14.0933 11.5282L11.6924 9.7993H14.5693L15.7714 7.01221L16.6888 9.7993H19.5702L17.5226 11.5282L18.5393 14.1048L15.7714 13.0766Z" fill="#F7FCFF"/><path id="bottom" fill-rule="evenodd" clip-rule="evenodd" d="M3 16V20H39V16H3Z" fill="#F9E813"/></g></g></g></g></g></g><defs><filter id="filter0_dd_91_28882" x="0" y="0" width="42" height="30" filterUnits="userSpaceOnUse" color-interpolation-filters="sRGB"><feFlood flood-opacity="0" result="BackgroundImageFix"/><feColorMatrix in="SourceAlpha" values="0 0 0 0 0 0 0 0 0 0 0 0 0 0 0 0 0 0 127 0" result="hardAlpha"/><feOffset dy="1"/><feGaussianBlur stdDeviation="1"/><feColorMatrix values="0 0 0 0 0.0627451 0 0 0 0 0.0941176 0 0 0 0 0.156863 0 0 0 0.06 0"/><feBlend in2="BackgroundImageFix" result="effect1_dropShadow_91_28882"/><feColorMatrix in="SourceAlpha" values="0 0 0 0 0 0 0 0 0 0 0 0 0 0 0 0 0 0 127 0" result="hardAlpha"/><feOffset dy="1"/><feGaussianBlur stdDeviation="1.5"/><feColorMatrix values="0 0 0 0 0.0627451 0 0 0 0 0.0941176 0 0 0 0 0.156863 0 0 0 0.1 0"/><feBlend in2="effect1_dropShadow_91_28882" result="effect2_dropShadow_91_28882"/><feBlend in="SourceGraphic" in2="effect2_dropShadow_91_28882" result="shape"/></filter><clipPath id="clip0_91_28882"><rect x="3" y="2" width="36" height="24" rx="2" fill="white"/></clipPath></defs></svg>