<svg width="42" height="30" viewBox="0 0 42 30" fill="none" xmlns="http://www.w3.org/2000/svg"><g id="Country=DJ - Djibouti, Size=sm (36x24)" filter="url(#filter0_dd_91_28793)"><g clip-path="url(#clip0_91_28793)"><g id="flag"><mask id="mask0_91_28793" style="mask-type:alpha" maskUnits="userSpaceOnUse" x="3" y="2" width="36" height="24"><rect id="mask" x="3" y="2" width="36" height="24" fill="white"/></mask><g mask="url(#mask0_91_28793)"><g id="contents"><path id="background" fill-rule="evenodd" clip-rule="evenodd" d="M3 2V26H39V2H3Z" fill="#73BE4A"/><g id="Object"><mask id="mask1_91_28793" style="mask-type:alpha" maskUnits="userSpaceOnUse" x="3" y="2" width="36" height="24"><path id="background_2" fill-rule="evenodd" clip-rule="evenodd" d="M3 2V26H39V2H3Z" fill="white"/></mask><g mask="url(#mask1_91_28793)"><path id="top" fill-rule="evenodd" clip-rule="evenodd" d="M3 0V14H39V0H3Z" fill="#6699FF"/></g></g><path id="triangle" fill-rule="evenodd" clip-rule="evenodd" d="M3 2V26L23.25 14L3 2Z" fill="white"/><mask id="mask2_91_28793" style="mask-type:alpha" maskUnits="userSpaceOnUse" x="3" y="2" width="21" height="24"><path id="triangle_2" fill-rule="evenodd" clip-rule="evenodd" d="M3 2V26L23.25 14L3 2Z" fill="white"/></mask><g mask="url(#mask2_91_28793)"><path id="Star 5" fill-rule="evenodd" clip-rule="evenodd" d="M10.877 16.0706L8.77251 17.2L9.25254 14.9962L7.5 13.3469L9.87303 13.2577L10.877 11.2L11.881 13.2577H14.25L12.5015 14.9962L13.0279 17.2L10.877 16.0706Z" fill="#E31D1C"/></g></g></g></g></g></g><defs><filter id="filter0_dd_91_28793" x="0" y="0" width="42" height="30" filterUnits="userSpaceOnUse" color-interpolation-filters="sRGB"><feFlood flood-opacity="0" result="BackgroundImageFix"/><feColorMatrix in="SourceAlpha" values="0 0 0 0 0 0 0 0 0 0 0 0 0 0 0 0 0 0 127 0" result="hardAlpha"/><feOffset dy="1"/><feGaussianBlur stdDeviation="1"/><feColorMatrix values="0 0 0 0 0.0627451 0 0 0 0 0.0941176 0 0 0 0 0.156863 0 0 0 0.06 0"/><feBlend in2="BackgroundImageFix" result="effect1_dropShadow_91_28793"/><feColorMatrix in="SourceAlpha" values="0 0 0 0 0 0 0 0 0 0 0 0 0 0 0 0 0 0 127 0" result="hardAlpha"/><feOffset dy="1"/><feGaussianBlur stdDeviation="1.5"/><feColorMatrix values="0 0 0 0 0.0627451 0 0 0 0 0.0941176 0 0 0 0 0.156863 0 0 0 0.1 0"/><feBlend in2="effect1_dropShadow_91_28793" result="effect2_dropShadow_91_28793"/><feBlend in="SourceGraphic" in2="effect2_dropShadow_91_28793" result="shape"/></filter><clipPath id="clip0_91_28793"><rect x="3" y="2" width="36" height="24" rx="2" fill="white"/></clipPath></defs></svg>