<svg xmlns="http://www.w3.org/2000/svg" width="42" height="30" fill="none"><g filter="url(#a)"><g clip-path="url(#b)"><mask id="c" width="36" height="24" x="3" y="2" maskUnits="userSpaceOnUse" style="mask-type:alpha"><path fill="#fff" d="M3 2h36v24H3z"/></mask><g mask="url(#c)" fill-rule="evenodd" clip-rule="evenodd"><path fill="#43B764" d="M3 2v12h36V2H3Z"/><path fill="#B4D7F4" d="M3 14v12h36V14H3Z"/><path fill="#BE0027" d="m3 2 34.941 12L3 26V2Z"/><path fill="#F3E294" d="M11.577 20.516c.133-.127.302-.24.515-.309.013-.637.005-1.331-.037-1.992-.056-.079-.153-.145-.322-.145-.424 0-1.354-.342-1.354-.834 0 0 .694.296.888.148.082-.063-.133-.258-.393-.494-.35-.319-.782-.711-.677-.953 0 0 .68.568.825.568.066 0 .021-.184-.024-.37-.054-.22-.109-.442.024-.356.245.158.923 1.246.923 1.605 0 .196.055.504.105.744v-.007a11.333 11.333 0 0 0-.124-1.105c-.305-1.8-.316-3.644.109-4.626-.212-.124-.366-.282-.366-.462 0 0 .694.266.887.133.083-.057-.132-.233-.392-.445-.35-.286-.782-.64-.678-.857 0 0 .68.511.826.511.066 0 .02-.165-.025-.332-.054-.199-.108-.398.025-.321.244.142.923 1.12.923 1.444v.008c.263-.308.57-.596.73-.668.173-.077.103.123.032.321-.059.167-.117.333-.031.333.189 0 1.073-.512 1.073-.512.136.218-.425.571-.88.857-.339.213-.618.389-.511.445.252.133 1.154-.133 1.154-.133 0 .443-1.21.75-1.76.75-.205 0-.329.051-.403.116a8.423 8.423 0 0 0-.052 1.026c.275-.335.619-.663.793-.741.173-.077.102.122.032.32-.06.167-.118.333-.032.333.189 0 1.073-.511 1.073-.511.136.218-.425.57-.88.857-.338.212-.618.388-.51.445.251.133 1.153-.133 1.153-.133 0 .393-.956.68-1.555.738.034.324.078.651.133.976.059.346.102.743.132 1.18.013.189.023.38.03.57.027-.159.046-.316.046-.433 0-.36.68-1.448.924-1.605.132-.086.078.136.024.356-.045.186-.09.37-.024.37.145 0 .825-.569.825-.569.104.242-.327.635-.677.953-.26.236-.475.432-.393.495.194.148.887-.148.887-.148 0 .492-.93.833-1.353.833-.11 0-.19.029-.248.07.011.422.011.843.004 1.242.23.071.411.196.55.333a5.13 5.13 0 0 0 .803-.117c.508-.264 1.634-1.115 1.919-1.45.215-.253.298-.752.376-1.223.044-.27.087-.53.153-.732.18-.551.5.67.5.86 0 .19.264-.705.264-1.333 0-.315-.067-.517-.132-.718-.066-.201-.132-.402-.132-.713 0-.367.228-.302.439-.111a2.483 2.483 0 0 1-.175-.877c0-.408-.055-.53-.078-.56.021.008.078.014.196-.047.204-.105.299.023.378.13.07.095.127.173.235.066.119-.118-.137-.25-.516-.449-.364-.19-.843-.439-1.215-.791-.76-.719.236-.966.406-.715.17.25 1.182.532.594-.302-.358-.507-.799-.5-1.2-.495-.258.004-.5.007-.693-.128-.333-.232.13-.473.383-.604.12-.063.192-.1.108-.1-.108 0-.245-.036-.407-.079-.231-.06-.513-.135-.83-.135-.538 0-1.6-.454-1.233-.454.13 0 .325-.044.537-.092.234-.053.491-.111.713-.122a12.786 12.786 0 0 0-2.216-.713L12.84 8c.822.191 1.562.426 2.22.705a11.06 11.06 0 0 1-.338-.51c-.352-.58.746.32 1.181.916l.001.002c.708.388 1.292.84 1.75 1.357V9.296c.411.133.645 1.386.768 2.33.09.19.166.387.231.59.16-.404.462-.831.733-.461.324.44-.247 2.94-.457 3.805-.01.09-.02.18-.032.27.5-.301.76-.996.893-1.353.115-.307.136-.362.136.306 0 .863-.712 1.718-1.295 2.274a7.128 7.128 0 0 1-.297.798c.402-.12.746-.33 1.013-.493.467-.286.696-.426.579.322-.128.814-1.38 1.115-2.167 1.224a7.3 7.3 0 0 1-.178.257l-.033.038a8.583 8.583 0 0 1-.37.334c.08-.032.156-.065.231-.097.307-.132.587-.252.941-.252.214 0-.078.106-.492.255-.489.176-1.147.414-1.34.61-.08.083-.134.15-.177.203-.126.16-.164.207-.56.217-.61.306-1.246.5-1.908.579.042.094.06.155.06.155h-2.787s.021-.075.073-.187a5.775 5.775 0 0 1-1.68-.545h-.043c-.605 0-.632-.035-.779-.218a2.408 2.408 0 0 0-.176-.204c-.193-.196-.852-.434-1.34-.61-.414-.15-.706-.255-.492-.255.354 0 .633.12.94.252.098.042.198.085.304.125.1.039.235.085.382.133a8.338 8.338 0 0 1-.565-.495l-.034-.038a7.35 7.35 0 0 1-.156-.225c-.729-.075-2.288-.342-2.432-1.257-.117-.747.112-.607.579-.321.281.172.649.396 1.08.512.078.02.147.038.208.052a7.148 7.148 0 0 1-.225-.558c-.595-.503-1.642-1.538-1.642-2.585 0-.668.02-.613.135-.306.137.367.407 1.09.935 1.377 0 0-.923-3.564-.53-4.099.391-.535.846.593.846.91 0 .056.006-.004.02-.141.061-.651.29-3.041.865-3.228v1.292c0 .06.029.084.079.078a5.954 5.954 0 0 1 1.45-1.278c.087-.101.163-.195.223-.277.434-.596 1.533-1.497 1.181-.917-.105.174-.232.358-.349.527v.001l-.096.14c.74-.348 1.598-.636 2.57-.862l.142.53a12.7 12.7 0 0 0-2.26.734c.169.024.347.064.513.102.213.048.407.092.538.092.367 0-.696.454-1.233.454-.317 0-.599.074-.83.135a1.796 1.796 0 0 1-.407.079c-.085 0-.012.037.108.1.252.13.715.371.383.604-.193.135-.435.132-.694.128-.286-.004-.593-.008-.875.174-.19.258-.349.53-.476.818.128.16.63-.025.746-.195.17-.25 1.165-.004.406.715-.372.352-.85.602-1.215.791a6.907 6.907 0 0 0-.312.169 7.502 7.502 0 0 0-.033.293.666.666 0 0 0 .063-.078c.08-.108.175-.236.378-.131.12.06.176.056.197.046-.024.03-.078.153-.078.56 0 .32-.079.628-.175.878.21-.191.438-.256.438.111 0 .311-.065.512-.13.713a2.08 2.08 0 0 0-.133.718c0 .628.263 1.524.263 1.334 0-.19.32-1.412.5-.86.066.2.11.46.154.73.078.472.16.971.376 1.224.247.29 1.127.97 1.688 1.317a5.05 5.05 0 0 0 1.058.23Zm-3.95-6.964c-.001-.001-.005 0-.011.008.008-.003.011-.007.01-.008Zm9.83.008c-.005-.007-.01-.009-.01-.008 0 .001.003.005.01.008Zm.19 4.393a7.13 7.13 0 0 0 .07-.141c-.06.054-.103.112-.07.141ZM12.76 12.95a3.088 3.088 0 0 1-.096.45c.025-.166.057-.317.096-.45Z"/></g></g></g><defs><clipPath id="b"><rect width="36" height="24" x="3" y="2" fill="#fff" rx="2"/></clipPath><filter id="a" width="42" height="30" x="0" y="0" color-interpolation-filters="sRGB" filterUnits="userSpaceOnUse"><feFlood flood-opacity="0" result="BackgroundImageFix"/><feColorMatrix in="SourceAlpha" result="hardAlpha" values="0 0 0 0 0 0 0 0 0 0 0 0 0 0 0 0 0 0 127 0"/><feOffset dy="1"/><feGaussianBlur stdDeviation="1"/><feColorMatrix values="0 0 0 0 0.0627451 0 0 0 0 0.0941176 0 0 0 0 0.156863 0 0 0 0.06 0"/><feBlend in2="BackgroundImageFix" result="effect1_dropShadow_91_28533"/><feColorMatrix in="SourceAlpha" result="hardAlpha" values="0 0 0 0 0 0 0 0 0 0 0 0 0 0 0 0 0 0 127 0"/><feOffset dy="1"/><feGaussianBlur stdDeviation="1.5"/><feColorMatrix values="0 0 0 0 0.0627451 0 0 0 0 0.0941176 0 0 0 0 0.156863 0 0 0 0.1 0"/><feBlend in2="effect1_dropShadow_91_28533" result="effect2_dropShadow_91_28533"/><feBlend in="SourceGraphic" in2="effect2_dropShadow_91_28533" result="shape"/></filter></defs></svg>