<svg width="42" height="30" viewBox="0 0 42 30" fill="none" xmlns="http://www.w3.org/2000/svg"><g id="Country=ES - Spain, Size=sm (36x24)" filter="url(#filter0_dd_91_28410)"><g clip-path="url(#clip0_91_28410)"><g id="flag"><mask id="mask0_91_28410" style="mask-type:alpha" maskUnits="userSpaceOnUse" x="3" y="2" width="36" height="24"><rect id="mask" x="3" y="2" width="36" height="24" fill="white"/></mask><g mask="url(#mask0_91_28410)"><g id="contents"><path id="background" fill-rule="evenodd" clip-rule="evenodd" d="M3 2V26H39V2H3Z" fill="#FFB400"/><mask id="mask1_91_28410" style="mask-type:alpha" maskUnits="userSpaceOnUse" x="3" y="2" width="36" height="24"><path id="background_2" fill-rule="evenodd" clip-rule="evenodd" d="M3 2V26H39V2H3Z" fill="white"/></mask><g mask="url(#mask1_91_28410)"><path id="top" fill-rule="evenodd" clip-rule="evenodd" d="M3 2V8H39V2H3Z" fill="#C51918"/><path id="bottom" fill-rule="evenodd" clip-rule="evenodd" d="M3 20V26H39V20H3Z" fill="#C51918"/><g id="mark"><g id="pillars"><rect id="Rectangle 76" x="8.63428" y="12.272" width="1.26" height="5.824" fill="#F1F9FF"/><path id="Combined Shape" fill-rule="evenodd" clip-rule="evenodd" d="M10.3984 11.2642H8.13037V11.8242H8.50838V12.2722H10.0204V11.8242H10.3984V11.2642Z" fill="#C88A02"/><path id="Combined Shape_2" fill-rule="evenodd" clip-rule="evenodd" d="M10.0204 18.4321H10.3984V18.9921H8.13037V18.4321H8.50837V17.9841H10.0204V18.4321Z" fill="#C88A02"/><path id="Oval 56" fill-rule="evenodd" clip-rule="evenodd" d="M9.26432 11.376C9.53852 11.376 9.56639 11.2843 9.72816 11.1472C9.85378 11.0408 10.1463 10.9087 10.1463 10.76C10.1463 10.4198 9.75144 10.144 9.26432 10.144C8.77721 10.144 8.38232 10.4198 8.38232 10.76C8.38232 10.9257 8.58379 11.0365 8.73612 11.1472C8.89661 11.2638 9.01441 11.376 9.26432 11.376Z" fill="#AD1619"/><g id="water"><path id="Rectangle 76_2" fill-rule="evenodd" clip-rule="evenodd" d="M8.13037 18.9919H10.3984V19.8879C10.3984 19.8879 10.1149 19.7759 9.83137 19.7759C9.54787 19.7759 9.26437 19.8879 9.26437 19.8879C9.26437 19.8879 8.98087 19.7759 8.69737 19.7759C8.41387 19.7759 8.13037 19.8879 8.13037 19.8879V18.9919Z" fill="#005BBF"/><mask id="mask2_91_28410" style="mask-type:alpha" maskUnits="userSpaceOnUse" x="8" y="18" width="3" height="2"><path id="Rectangle 76_3" fill-rule="evenodd" clip-rule="evenodd" d="M8.13037 18.9919H10.3984V19.8879C10.3984 19.8879 10.1149 19.7759 9.83137 19.7759C9.54787 19.7759 9.26437 19.8879 9.26437 19.8879C9.26437 19.8879 8.98087 19.7759 8.69737 19.7759C8.41387 19.7759 8.13037 19.8879 8.13037 19.8879V18.9919Z" fill="white"/></mask><g mask="url(#mask2_91_28410)"><path id="Path 308" d="M8.10956 19.7118L8.06006 19.6045C8.26433 19.5237 8.46934 19.4832 8.67465 19.4832C8.8073 19.4832 8.87657 19.4996 8.99432 19.5462C9.09776 19.5871 9.15137 19.5998 9.26449 19.5998C9.37761 19.5998 9.43123 19.5871 9.53466 19.5462C9.65242 19.4996 9.72169 19.4832 9.85433 19.4832C10.0596 19.4832 10.2646 19.5237 10.4689 19.6045L10.4194 19.7118C10.2305 19.6371 10.0422 19.5998 9.85433 19.5998C9.74121 19.5998 9.6876 19.6125 9.58416 19.6535C9.46641 19.7 9.39714 19.7165 9.26449 19.7165C9.13184 19.7165 9.06258 19.7 8.94482 19.6535C8.84139 19.6125 8.78777 19.5998 8.67465 19.5998C8.48674 19.5998 8.29851 19.6371 8.10956 19.7118Z" fill="white"/><path id="Path 308_2" d="M8.10956 19.3759L8.06006 19.2686C8.26433 19.1878 8.46934 19.1472 8.67465 19.1472C8.8073 19.1472 8.87657 19.1637 8.99432 19.2102C9.09776 19.2512 9.15137 19.2639 9.26449 19.2639C9.37761 19.2639 9.43123 19.2512 9.53466 19.2102C9.65242 19.1637 9.72169 19.1472 9.85433 19.1472C10.0596 19.1472 10.2646 19.1878 10.4689 19.2686L10.4194 19.3759C10.2305 19.3011 10.0422 19.2639 9.85433 19.2639C9.74121 19.2639 9.6876 19.2766 9.58416 19.3175C9.46641 19.3641 9.39714 19.3806 9.26449 19.3806C9.13184 19.3806 9.06258 19.3641 8.94482 19.3175C8.84139 19.2766 8.78777 19.2639 8.67465 19.2639C8.48674 19.2639 8.29851 19.3011 8.10956 19.3759Z" fill="white"/></g></g><rect id="Rectangle 76_4" x="20.9819" y="12.272" width="1.26" height="5.824" fill="#F1F9FF"/><path id="Combined Shape_3" fill-rule="evenodd" clip-rule="evenodd" d="M22.746 11.2642H20.478V11.8242H20.8561V12.2722H22.3681V11.8242H22.746V11.2642Z" fill="#C88A02"/><path id="Combined Shape_4" fill-rule="evenodd" clip-rule="evenodd" d="M22.368 18.4321H22.746V18.9921H20.478V18.4321H20.856V17.9841H22.368V18.4321Z" fill="#C88A02"/><path id="Oval 56_2" fill-rule="evenodd" clip-rule="evenodd" d="M21.612 11.376C21.8862 11.376 21.914 11.2843 22.0758 11.1472C22.2014 11.0408 22.494 10.9087 22.494 10.76C22.494 10.4198 22.0991 10.144 21.612 10.144C21.1249 10.144 20.73 10.4198 20.73 10.76C20.73 10.9257 20.9314 11.0365 21.0838 11.1472C21.2443 11.2638 21.3621 11.376 21.612 11.376Z" fill="#AD1619"/><g id="water_2"><path id="Rectangle 76_5" fill-rule="evenodd" clip-rule="evenodd" d="M20.478 18.9919H22.746V19.8879C22.746 19.8879 22.4625 19.7759 22.179 19.7759C21.8955 19.7759 21.612 19.8879 21.612 19.8879C21.612 19.8879 21.3285 19.7759 21.045 19.7759C20.7615 19.7759 20.478 19.8879 20.478 19.8879V18.9919Z" fill="#005BBF"/><mask id="mask3_91_28410" style="mask-type:alpha" maskUnits="userSpaceOnUse" x="20" y="18" width="3" height="2"><path id="Rectangle 76_6" fill-rule="evenodd" clip-rule="evenodd" d="M20.478 18.9919H22.746V19.8879C22.746 19.8879 22.4625 19.7759 22.179 19.7759C21.8955 19.7759 21.612 19.8879 21.612 19.8879C21.612 19.8879 21.3285 19.7759 21.045 19.7759C20.7615 19.7759 20.478 19.8879 20.478 19.8879V18.9919Z" fill="white"/></mask><g mask="url(#mask3_91_28410)"><path id="Path 308_3" d="M20.4577 19.7118L20.4082 19.6045C20.6125 19.5237 20.8175 19.4832 21.0228 19.4832C21.1554 19.4832 21.2247 19.4996 21.3425 19.5462C21.4459 19.5871 21.4995 19.5998 21.6126 19.5998C21.7258 19.5998 21.7794 19.5871 21.8828 19.5462C22.0006 19.4996 22.0698 19.4832 22.2025 19.4832C22.4078 19.4832 22.6128 19.5237 22.8171 19.6045L22.7676 19.7118C22.5786 19.6371 22.3904 19.5998 22.2025 19.5998C22.0894 19.5998 22.0357 19.6125 21.9323 19.6535C21.8146 19.7 21.7453 19.7165 21.6126 19.7165C21.48 19.7165 21.4107 19.7 21.293 19.6535C21.1895 19.6125 21.1359 19.5998 21.0228 19.5998C20.8349 19.5998 20.6467 19.6371 20.4577 19.7118Z" fill="white"/><path id="Path 308_4" d="M20.4577 19.3759L20.4082 19.2686C20.6125 19.1878 20.8175 19.1472 21.0228 19.1472C21.1554 19.1472 21.2247 19.1637 21.3425 19.2102C21.4459 19.2512 21.4995 19.2639 21.6126 19.2639C21.7258 19.2639 21.7794 19.2512 21.8828 19.2102C22.0006 19.1637 22.0698 19.1472 22.2025 19.1472C22.4078 19.1472 22.6128 19.1878 22.8171 19.2686L22.7676 19.3759C22.5786 19.3011 22.3904 19.2639 22.2025 19.2639C22.0894 19.2639 22.0357 19.2766 21.9323 19.3175C21.8146 19.3641 21.7453 19.3806 21.6126 19.3806C21.48 19.3806 21.4107 19.3641 21.293 19.3175C21.1895 19.2766 21.1359 19.2639 21.0228 19.2639C20.8349 19.2639 20.6467 19.3011 20.4577 19.3759Z" fill="white"/></g></g><path id="ribbons" fill-rule="evenodd" clip-rule="evenodd" d="M8.61159 17.6799C8.83876 17.4351 8.96579 17.2124 8.96579 16.9758C8.96579 16.8267 8.91586 16.6979 8.82838 16.5926L8.84316 16.5867C8.8418 16.5873 9.09237 16.4902 9.17961 16.453C9.34178 16.3839 9.48465 16.3107 9.62395 16.2206C9.71288 16.1631 9.83204 16.1005 10.0137 16.0138C10.045 15.9989 10.1298 15.9589 10.1841 15.9333L10.1844 15.9331L10.1845 15.9331L10.2305 15.9114C10.3188 15.8695 10.3845 15.8374 10.4456 15.8059C10.6359 15.7078 10.7617 15.6267 10.8578 15.5182C11.0857 15.2614 11.0384 14.9133 10.7191 14.7201C10.5627 14.6254 10.3516 14.5711 10.0422 14.5284L9.97825 14.5196C9.87256 14.505 9.66943 14.4771 9.59968 14.4674C9.45161 14.4467 9.3195 14.4274 9.2017 14.4091C9.97634 14.2946 11.0825 14.3367 11.569 14.56L12.0315 13.7638C11.04 13.3088 8.78082 13.3553 7.93692 13.8718C7.31795 14.2508 7.40101 14.8235 8.04502 15.0702C8.31412 15.1732 8.66493 15.2416 9.31411 15.3343C9.20532 15.3904 9.11513 15.4417 9.03109 15.496C8.94586 15.5511 8.85455 15.5979 8.7438 15.6451C8.69082 15.6676 8.53394 15.7289 8.46205 15.7569L8.42592 15.7711C7.90135 15.9831 7.64677 16.2764 7.72285 16.8059L7.76403 17.0925L7.8379 17.1126L8.61159 17.6799ZM7.96315 16.9392L7.96155 16.9433L7.96277 16.9404L7.96315 16.9392ZM21.7943 16.9758C21.7943 17.2124 21.9213 17.4351 22.1485 17.6799L22.9222 17.1126L22.9961 17.0925L23.0373 16.8059C23.1133 16.2764 22.8587 15.9831 22.3342 15.7711L22.2981 15.7569L22.2981 15.7569C22.2262 15.7289 22.0693 15.6676 22.0163 15.6451C21.9055 15.5979 21.8142 15.5511 21.729 15.496C21.645 15.4417 21.5548 15.3904 21.446 15.3343C22.0952 15.2416 22.446 15.1732 22.7151 15.0702C23.3591 14.8235 23.4422 14.2508 22.8232 13.8718C21.9793 13.3553 19.7201 13.3088 18.7286 13.7638L19.1911 14.56C19.6776 14.3367 20.7838 14.2946 21.5584 14.4091C21.4406 14.4274 21.3085 14.4467 21.1604 14.4674C21.0906 14.4771 20.8874 14.5051 20.7817 14.5196L20.7179 14.5284C20.4085 14.5711 20.1974 14.6254 20.041 14.7201C19.7217 14.9133 19.6744 15.2614 19.9023 15.5182C19.9984 15.6267 20.1242 15.7078 20.3145 15.8059C20.3756 15.8374 20.4413 15.8695 20.5296 15.9114L20.5755 15.933C20.6298 15.9586 20.715 15.9988 20.7464 16.0138C20.9281 16.1005 21.0472 16.1631 21.1361 16.2206C21.2755 16.3107 21.4183 16.3839 21.5805 16.453C21.6677 16.4902 21.9183 16.5873 21.9169 16.5867L21.9317 16.5926C21.8442 16.6979 21.7943 16.8267 21.7943 16.9758Z" fill="#AD1619"/><path id="Path 329" d="M9.66405 14.4001L10.036 14.4685V14.9613C9.63985 15.2422 8.63428 15.7157 8.63428 15.7157V14.4001H9.66405Z" fill="#F1F9FF"/><path id="Path 329_2" d="M21.354 14.4001L20.9821 14.4685V14.9613C21.3782 15.2422 22.3838 15.7157 22.3838 15.7157V14.4001H21.354Z" fill="#F1F9FF"/></g><g id="crown"><path id="Combined Shape_5" fill-rule="evenodd" clip-rule="evenodd" d="M19.6233 9.20603V9.04204C18.9752 8.6286 18.2965 8.42187 17.5872 8.42187C16.9073 8.1544 16.219 8.05057 15.5224 8.1104C15.5226 8.10849 15.5227 8.10751 15.5227 8.10751C14.4754 8.01642 13.4198 8.42187 13.4198 8.42187C12.3559 8.42187 11.3838 9.04204 11.3838 9.04204V9.20603L12.6546 10.3406C12.6546 10.3406 13.0123 11.4326 15.5175 11.1759V11.1787C15.5175 11.1787 17.1762 11.1384 17.2927 11.104C17.339 11.0903 17.3869 11.0779 17.4359 11.0651C17.7608 10.9808 18.1317 10.8846 18.3525 10.3406L19.6233 9.20603ZM15.5175 8.16053C15.4814 8.53812 15.2748 10.8152 15.5175 11.1682V8.16053Z" fill="#AD1619"/><path id="Combined Shape_6" fill-rule="evenodd" clip-rule="evenodd" d="M12.3532 10.1496L12.354 10.1462L11.46 9.39849L11.5463 9.31692L12.3852 10.0185L12.4067 9.93074C12.544 9.95727 12.6443 9.96702 12.7028 9.9615V9.8093L12.8887 9.89876C12.9802 9.94276 13.1112 9.9546 13.2837 9.92964C13.4105 9.91131 13.496 9.78049 13.5239 9.50173L13.5804 8.93896L13.7697 9.47831C13.8554 9.72237 13.9861 9.82996 14.1722 9.82996C14.3539 9.82996 14.427 9.77073 14.435 9.62145L14.4579 9.19807L14.6733 9.57623C14.7509 9.71247 14.8579 9.77428 15.0101 9.77428C15.2277 9.77428 15.3731 9.613 15.3731 9.35996H15.3771H15.6251H15.6291C15.6291 9.613 15.7745 9.77428 15.9921 9.77428C16.1443 9.77428 16.2513 9.71247 16.3289 9.57623L16.5443 9.19807L16.5672 9.62145C16.5753 9.77073 16.6483 9.82996 16.83 9.82996C17.0161 9.82996 17.1468 9.72237 17.2325 9.47831L17.4218 8.93896L17.4783 9.50173C17.5062 9.78049 17.5918 9.91131 17.7185 9.92964C17.891 9.9546 18.022 9.94276 18.1135 9.89876L18.2995 9.8093V9.9615C18.3579 9.96702 18.4582 9.95727 18.5955 9.93074L18.6353 10.0936L19.5641 9.31693L19.6504 9.3985L18.4947 10.365C18.3261 10.641 18.2412 10.8232 18.2412 10.8989C18.2412 11.0144 17.9033 11.0829 17.2437 11.1533C16.727 11.2084 16.1172 11.2455 15.6184 11.251V11.2517L15.5558 11.2515L15.492 11.2517V11.251C14.9932 11.2454 14.3834 11.2084 13.8667 11.1533C13.2071 11.0829 12.8692 11.0144 12.8692 10.8989C12.8692 10.8846 12.8662 10.8665 12.8601 10.8446C12.7936 10.7693 12.7468 10.6462 12.7157 10.5351C12.6865 10.4831 12.6532 10.4264 12.6157 10.365L12.3596 10.1509L12.3532 10.1496ZM18.5468 10.1677C18.3404 10.2001 18.1914 10.1969 18.1124 10.1396C17.9887 10.1716 17.8436 10.1747 17.678 10.1507C17.5011 10.1251 17.3779 10.0206 17.3038 9.84706C17.207 9.95665 17.0847 10.0243 16.9381 10.0462C17.7444 10.1478 18.3093 10.2907 18.3093 10.2907C18.3093 10.2907 18.2953 10.3968 18.2615 10.5217C18.2973 10.4563 18.3398 10.3837 18.3889 10.3036L18.401 10.2896L18.5468 10.1677ZM16.5576 10.0036C16.4875 9.97263 16.4315 9.92772 16.391 9.86983C16.3309 9.91703 16.2625 9.95154 16.1866 9.97284C16.3134 9.98145 16.4373 9.99187 16.5576 10.0036ZM15.7418 9.95105C15.6437 9.91074 15.5621 9.84618 15.5011 9.76346C15.4406 9.84559 15.3597 9.90982 15.2625 9.95019C15.3201 9.94866 15.378 9.94759 15.4362 9.94701V9.9465L15.4868 9.94663L15.5373 9.9465V9.94701C15.6059 9.94769 15.6741 9.94906 15.7418 9.95105ZM12.7002 10.2819L12.5827 10.1837C12.7238 10.1961 12.8281 10.1843 12.8899 10.1396C13.0135 10.1716 13.1586 10.1747 13.3242 10.1507C13.5011 10.1251 13.6243 10.0206 13.6984 9.84706C13.7924 9.95348 13.9105 10.0203 14.0514 10.0442C13.3562 10.131 12.8375 10.2491 12.7002 10.2819ZM14.8102 9.97128C14.6881 9.97934 14.5685 9.98909 14.4523 10.0001C14.5188 9.96928 14.5722 9.92557 14.6112 9.86983C14.6699 9.91589 14.7364 9.94988 14.8102 9.97128ZM17.9099 10.9011C17.9982 10.9378 18.069 10.9012 18.1249 10.8309C18.1201 10.8503 18.117 10.8679 18.1158 10.8836C18.1084 10.8879 18.0971 10.8931 18.0822 10.8986C18.0407 10.9141 17.9773 10.9306 17.8949 10.9474C17.7328 10.9802 17.5021 11.0129 17.2287 11.0421C16.695 11.099 16.0604 11.1365 15.5558 11.1395C15.051 11.1366 14.4158 11.0991 13.8817 11.0421C13.6083 11.0129 13.3776 10.9802 13.2155 10.9474C13.1464 10.9333 13.0907 10.9195 13.05 10.9062C13.0545 10.9047 13.059 10.903 13.0636 10.9011C13.3389 10.7866 15.159 10.6792 15.4868 10.6606C15.8145 10.6792 17.6347 10.7866 17.9099 10.9011ZM18.2565 10.8811C18.2562 10.8814 18.2558 10.8818 18.2554 10.8823L18.2563 10.8811L18.2565 10.8811ZM18.2571 10.8806L18.2565 10.8811Z" fill="#C88A02"/><path id="Oval 55" fill-rule="evenodd" clip-rule="evenodd" d="M15.5015 7.34705C15.7103 7.34705 15.8795 7.19662 15.8795 7.01105C15.8795 6.82548 15.7103 6.67505 15.5015 6.67505C15.2928 6.67505 15.1235 6.82548 15.1235 7.01105C15.1235 7.19662 15.2928 7.34705 15.5015 7.34705Z" fill="#005BBF"/><path id="Combined Shape_7" fill-rule="evenodd" clip-rule="evenodd" d="M15.2559 8.99677C15.2639 9.03366 15.2765 9.06801 15.2924 9.09861C15.2436 9.08203 15.1856 9.07242 15.1235 9.07242C14.9495 9.07242 14.8085 9.14763 14.8085 9.24042C14.8085 9.3332 14.9495 9.40842 15.1235 9.40842C15.2974 9.40842 15.4385 9.3332 15.4385 9.24042L15.4383 9.23527L15.4387 9.23537L15.4385 9.24042C15.4385 9.3332 15.5796 9.40842 15.7535 9.40842C15.9275 9.40842 16.0685 9.3332 16.0685 9.24042C16.0685 9.14763 15.9275 9.07242 15.7535 9.07242C15.7097 9.07242 15.668 9.07719 15.6301 9.08581C15.6392 9.03987 15.6388 8.9872 15.6269 8.93266C15.5937 8.78086 15.4837 8.67216 15.3813 8.68986C15.2788 8.70757 15.2227 8.84498 15.2559 8.99677ZM13.4024 9.2106C13.3864 9.18001 13.3739 9.14568 13.3658 9.1088C13.3326 8.95701 13.3888 8.8196 13.4912 8.80189C13.5937 8.78419 13.7037 8.89289 13.7368 9.04469C13.7488 9.09921 13.7492 9.15188 13.74 9.19781C13.7779 9.18919 13.8197 9.18442 13.8635 9.18442C14.0374 9.18442 14.1785 9.25963 14.1785 9.35242C14.1785 9.4452 14.0374 9.52042 13.8635 9.52042C13.6895 9.52042 13.5485 9.4452 13.5485 9.35242L13.5486 9.3474L13.5483 9.3473L13.5484 9.35242C13.5484 9.4452 13.4074 9.52042 13.2334 9.52042C13.0594 9.52042 12.9184 9.4452 12.9184 9.35242C12.9184 9.25963 13.0594 9.18442 13.2334 9.18442C13.2956 9.18442 13.3535 9.19402 13.4024 9.2106ZM17.3487 9.31297C17.3342 9.40485 17.1827 9.46188 17.0105 9.44036C16.8382 9.41884 16.7103 9.32691 16.7248 9.23503C16.7394 9.14315 16.8908 9.08611 17.0631 9.10763C17.1246 9.11532 17.1804 9.13197 17.2261 9.15439C17.2152 9.12214 17.2081 9.08661 17.2059 9.04912C17.1968 8.8947 17.2739 8.76557 17.3781 8.76072C17.4824 8.75586 17.5742 8.87711 17.5833 9.03154C17.5866 9.08701 17.5788 9.13922 17.5625 9.18357C17.6014 9.17972 17.6435 9.18015 17.6869 9.18557C17.8592 9.2071 17.9871 9.29903 17.9726 9.39091C17.9581 9.48279 17.8066 9.53983 17.6343 9.51831C17.4621 9.49678 17.3342 9.40485 17.3487 9.31297L17.3496 9.30805L17.3493 9.30792L17.3487 9.31297ZM18.5484 9.75722C18.702 9.82982 18.8662 9.82226 18.9152 9.74034L18.9178 9.73577C18.9329 9.75001 18.9508 9.76037 18.9713 9.76592C19.0711 9.79305 19.1933 9.69516 19.2441 9.54728C19.295 9.39939 19.2553 9.25752 19.1555 9.23039C19.0556 9.20326 18.9335 9.30116 18.8826 9.44904C18.8703 9.48496 18.8633 9.52052 18.8612 9.55417C18.8268 9.51916 18.7807 9.48649 18.7258 9.46055C18.5722 9.38795 18.408 9.39551 18.359 9.47744C18.31 9.55936 18.3948 9.68463 18.5484 9.75722ZM12.3659 9.79153C12.2123 9.86412 12.0481 9.85657 11.9991 9.77464C11.9982 9.77313 11.9973 9.77161 11.9965 9.77007C11.9814 9.78431 11.9634 9.79467 11.943 9.80022C11.8432 9.82735 11.721 9.72946 11.6702 9.58158C11.6193 9.43369 11.659 9.29182 11.7588 9.26469C11.8586 9.23757 11.9808 9.33546 12.0317 9.48334C12.044 9.51926 12.051 9.55482 12.0531 9.58847C12.0875 9.55346 12.1336 9.5208 12.1885 9.49486C12.3421 9.42226 12.5063 9.42982 12.5553 9.51174C12.6043 9.59366 12.5195 9.71893 12.3659 9.79153Z" fill="#C88A02"/><path id="Combined Shape_8" fill-rule="evenodd" clip-rule="evenodd" d="M15.3607 6.07666H15.6232V6.22406H15.7947V6.4574H15.6232V6.92406H15.7947V7.1574H15.1865V6.92406H15.3607V6.4574H15.1865V6.22406H15.3607V6.07666Z" fill="#C88A02"/><rect id="Rectangle 77" x="15.3125" y="7.34399" width="0.504" height="1.456" fill="#C88A02"/><g id="top_2"><path id="Path 311" d="M13.2834 7.58785L13.2812 7.69984C12.164 7.6825 11.5231 7.82742 11.3605 8.11627C11.1923 8.4149 11.2235 8.77792 11.4592 9.20915L11.3459 9.25809C11.0944 8.79799 11.0601 8.3994 11.2478 8.06614C11.441 7.7231 12.1189 7.56978 13.2834 7.58785Z" fill="white"/><path id="Path 312" d="M13.4995 8.58095L13.4349 8.67711C13.1916 8.54798 13.0698 8.3276 13.0698 8.0239C13.0698 7.58742 13.3228 7.33147 13.8823 7.15631C14.2394 7.04452 14.7272 7.09035 15.3471 7.29013L15.3042 7.39542C14.7091 7.20364 14.2486 7.16038 13.9242 7.26195C13.4109 7.42261 13.1958 7.64028 13.1958 8.0239C13.1958 8.29041 13.297 8.47346 13.4995 8.58095Z" fill="white"/><path id="Path 309" d="M11.618 9.03733L11.3803 9.11156C11.1336 8.48721 11.204 8.0632 11.6256 7.88029C11.997 7.71912 12.5383 7.65353 13.2522 7.67925L13.242 7.90306C12.5661 7.87872 12.0632 7.93965 11.7361 8.08159C11.4591 8.20179 11.4084 8.50678 11.618 9.03733Z" fill="#C88A02"/><path id="Path 310" d="M14.3958 7.4386C13.8196 7.4386 13.583 7.56333 13.4478 7.93162C13.3617 8.16632 13.4452 8.36664 13.7161 8.55362L13.5616 8.73054C13.2109 8.48846 13.0872 8.19198 13.2083 7.86215C13.3805 7.3928 13.7185 7.2146 14.3958 7.2146C14.8396 7.2146 15.1854 7.31826 15.4262 7.52922L15.4637 7.56212V8.64208H15.2117V7.65786C15.0237 7.51268 14.7536 7.4386 14.3958 7.4386Z" fill="#C88A02"/><path id="Path 311_2" d="M17.6804 7.69967L17.6826 7.81165C18.7999 7.79431 19.4407 7.93924 19.6034 8.22809C19.7716 8.52672 19.7403 8.88974 19.5047 9.32097L19.618 9.3699C19.8694 8.90981 19.9038 8.51122 19.7161 8.17795C19.5229 7.83491 18.8449 7.6816 17.6804 7.69967Z" fill="white"/><path id="Path 312_2" d="M17.2861 8.60414L17.3507 8.7003C17.594 8.57117 17.7158 8.3508 17.7158 8.04709C17.7158 7.61061 17.4629 7.35466 16.9033 7.1795C16.5462 7.06771 16.0584 7.11355 15.4385 7.31332L15.4815 7.41862C16.0766 7.22683 16.537 7.18357 16.8615 7.28514C17.3747 7.4458 17.5898 7.66347 17.5898 8.04709C17.5898 8.31361 17.4887 8.49665 17.2861 8.60414Z" fill="white"/><path id="Path 309_2" d="M19.4245 9.14939L19.6622 9.22362C19.9089 8.59927 19.8385 8.17526 19.4169 7.99235C19.0455 7.83118 18.5042 7.76559 17.7902 7.79131L17.8004 8.01513C18.4764 7.99078 18.9793 8.05171 19.3064 8.19365C19.5834 8.31385 19.6341 8.61884 19.4245 9.14939Z" fill="#C88A02"/><path id="Path 310_2" d="M16.6325 7.45593C17.2087 7.45593 17.4453 7.58067 17.5805 7.94895C17.6666 8.18366 17.5831 8.38397 17.3122 8.57096L17.4667 8.74788C17.8175 8.5058 17.9411 8.20931 17.82 7.87948C17.6478 7.41013 17.3098 7.23193 16.6325 7.23193C16.1887 7.23193 15.8429 7.33559 15.6021 7.54655L15.5646 7.57945V8.65942H15.8166V7.67519C16.0046 7.53002 16.2747 7.45593 16.6325 7.45593Z" fill="#C88A02"/></g></g><g id="shield"><path id="Rectangle 78" opacity="0.3" fill-rule="evenodd" clip-rule="evenodd" d="M11.4062 11.2642H19.5963V17.805C19.5963 17.805 18.9879 20.0002 15.5013 20.0002C12.0146 20.0002 11.4062 17.7471 11.4062 17.7471V11.2642Z" fill="#E1E5E8"/><mask id="mask4_91_28410" style="mask-type:alpha" maskUnits="userSpaceOnUse" x="11" y="11" width="9" height="10"><path id="Rectangle 78_2" fill-rule="evenodd" clip-rule="evenodd" d="M11.4062 11.2642H19.5963V17.805C19.5963 17.805 18.9879 20.0002 15.5013 20.0002C12.0146 20.0002 11.4062 17.7471 11.4062 17.7471V11.2642Z" fill="white"/></mask><g mask="url(#mask4_91_28410)"><rect id="Rectangle 79" x="11.4062" y="15.2961" width="4.158" height="4.368" fill="#FFC034"/><rect id="Rectangle 80" x="11.9102" y="15.5203" width="0.504" height="4.144" fill="#AD1619"/><rect id="Rectangle 80_2" x="13.6743" y="15.5203" width="0.504" height="4.144" fill="#AD1619"/><rect id="Rectangle 80_3" x="12.7925" y="15.5203" width="0.504" height="4.144" fill="#AD1619"/><rect id="Rectangle 80_4" x="14.5562" y="15.5203" width="0.504" height="4.144" fill="#AD1619"/><rect id="Rectangle 79_2" x="11.4062" y="11.1521" width="4.158" height="4.256" fill="#AD1619"/><rect id="Rectangle 79_3" x="15.4385" y="15.1841" width="4.158" height="4.256" fill="#AD1619"/><rect id="Rectangle 79_4" x="15.4385" y="11.2642" width="4.41" height="4.144" fill="#F1F9FF"/><path id="castle" fill-rule="evenodd" clip-rule="evenodd" d="M13.1707 11.6001H13.5487V12.5293H13.8006V12.0647H14.1786V12.5293H14.5566V13.11H14.1787V14.1554H14.5566V14.7361H12.2886V14.1554H12.6667V13.11H12.2886V12.5293H12.5406V12.0647H12.9186V12.5293H13.1707V11.6001Z" fill="#C88A02"/><path id="Path 326" d="M17.6016 11.7951L17.8596 11.5496L18.4013 11.9994L18.1433 12.2449L17.6016 11.7951Z" fill="#C88A02"/><path id="Rectangle 78_3" fill-rule="evenodd" clip-rule="evenodd" d="M19.1554 18.1403V15.6882H16.0054V18.1198L16.0104 18.1387C16.1698 18.7427 16.7129 19.0482 17.5804 19.0482C18.447 19.0482 18.99 18.7506 19.1501 18.1597L19.1554 18.1403ZM17.5804 18.7122C16.8843 18.7122 16.5042 18.5038 16.3834 18.0802V16.0242H18.7774V18.0996C18.6568 18.5095 18.2767 18.7122 17.5804 18.7122Z" fill="#FFC034"/><path id="Combined Shape_9" fill-rule="evenodd" clip-rule="evenodd" d="M17.7103 15.8931H17.4478V17.0047L16.413 16.0043L16.2275 16.1559L17.1634 17.0607H16.3154V17.3967H16.9667H17.184L16.2275 18.3213L16.4131 18.4729L17.4478 17.4726V18.772H17.7103V17.5894L18.6242 18.4729L18.8097 18.3213L17.8533 17.3967H18.9208V17.0607H17.8739L18.8097 16.1559L18.6242 16.0043L17.7103 16.8878V15.8931Z" fill="#FFC034"/><path id="Path 330" fill-rule="evenodd" clip-rule="evenodd" d="M18.1683 19.4428C18.1683 19.4428 15.4996 19.6293 15.4996 18.0994C15.4996 18.0994 15.4741 19.4428 12.6875 19.4428V20.6506H18.1683V19.4428Z" fill="#F1F9FF"/><path id="Oval 57" fill-rule="evenodd" clip-rule="evenodd" d="M15.5012 16.1921C16.0231 16.1921 16.4462 15.791 16.4462 15.2961C16.4462 14.8013 16.0231 14.4001 15.5012 14.4001C14.9792 14.4001 14.5562 14.8013 14.5562 15.2961C14.5562 15.791 14.9792 16.1921 15.5012 16.1921Z" fill="#005BBF" stroke="#AD1619" stroke-width="1.16667"/></g></g></g></g></g></g></g></g></g><defs><filter id="filter0_dd_91_28410" x="0" y="0" width="42" height="30" filterUnits="userSpaceOnUse" color-interpolation-filters="sRGB"><feFlood flood-opacity="0" result="BackgroundImageFix"/><feColorMatrix in="SourceAlpha" values="0 0 0 0 0 0 0 0 0 0 0 0 0 0 0 0 0 0 127 0" result="hardAlpha"/><feOffset dy="1"/><feGaussianBlur stdDeviation="1"/><feColorMatrix values="0 0 0 0 0.0627451 0 0 0 0 0.0941176 0 0 0 0 0.156863 0 0 0 0.06 0"/><feBlend in2="BackgroundImageFix" result="effect1_dropShadow_91_28410"/><feColorMatrix in="SourceAlpha" values="0 0 0 0 0 0 0 0 0 0 0 0 0 0 0 0 0 0 127 0" result="hardAlpha"/><feOffset dy="1"/><feGaussianBlur stdDeviation="1.5"/><feColorMatrix values="0 0 0 0 0.0627451 0 0 0 0 0.0941176 0 0 0 0 0.156863 0 0 0 0.1 0"/><feBlend in2="effect1_dropShadow_91_28410" result="effect2_dropShadow_91_28410"/><feBlend in="SourceGraphic" in2="effect2_dropShadow_91_28410" result="shape"/></filter><clipPath id="clip0_91_28410"><rect x="3" y="2" width="36" height="24" rx="2" fill="white"/></clipPath></defs></svg>