<svg width="42" height="30" viewBox="0 0 42 30" fill="none" xmlns="http://www.w3.org/2000/svg"><g id="Country=ET - Ethiopia, Size=sm (36x24)" filter="url(#filter0_dd_91_28395)"><g clip-path="url(#clip0_91_28395)"><g id="flag"><mask id="mask0_91_28395" style="mask-type:alpha" maskUnits="userSpaceOnUse" x="3" y="2" width="36" height="24"><rect id="mask" x="3" y="2" width="36" height="24" fill="white"/></mask><g mask="url(#mask0_91_28395)"><g id="contents"><path id="background" fill-rule="evenodd" clip-rule="evenodd" d="M3 2V26H39V2H3Z" fill="#FECA00"/><mask id="mask1_91_28395" style="mask-type:alpha" maskUnits="userSpaceOnUse" x="3" y="2" width="36" height="24"><path id="background_2" fill-rule="evenodd" clip-rule="evenodd" d="M3 2V26H39V2H3Z" fill="white"/></mask><g mask="url(#mask1_91_28395)"><path id="top" fill-rule="evenodd" clip-rule="evenodd" d="M3 2V10H39V2H3Z" fill="#5EAA22"/><path id="bottom" fill-rule="evenodd" clip-rule="evenodd" d="M3 18V26H39V18H3Z" fill="#E31D1C"/><g id="mark"><path id="Oval 20" fill-rule="evenodd" clip-rule="evenodd" d="M21 20C24.7279 20 27.75 17.3137 27.75 14C27.75 10.6863 24.7279 8 21 8C17.2721 8 14.25 10.6863 14.25 14C14.25 17.3137 17.2721 20 21 20Z" fill="#2B77B8"/><path id="Star 9" fill-rule="evenodd" clip-rule="evenodd" d="M21 16L17.8927 16.9265L18.8601 14.618L16.7524 12.382H19.6774L21 10L22.3225 12.382H25.312L23.1398 14.618L23.9108 16.9265L21 16Z" stroke="#FECA00" stroke-width="1.5"/><path id="Path 42" d="M20.6582 14.0344L18.313 18.3946" stroke="#2B77B8"/><path id="Path 42_2" d="M20.2891 13.4795H15.7891" stroke="#2B77B8"/><path id="Path 42_3" d="M21.1367 14.8376L25.5344 16.6418" stroke="#2B77B8"/><path id="Path 42_4" d="M22.0874 13.8736L25.2707 10.7764" stroke="#2B77B8"/></g></g></g></g></g></g></g><defs><filter id="filter0_dd_91_28395" x="0" y="0" width="42" height="30" filterUnits="userSpaceOnUse" color-interpolation-filters="sRGB"><feFlood flood-opacity="0" result="BackgroundImageFix"/><feColorMatrix in="SourceAlpha" values="0 0 0 0 0 0 0 0 0 0 0 0 0 0 0 0 0 0 127 0" result="hardAlpha"/><feOffset dy="1"/><feGaussianBlur stdDeviation="1"/><feColorMatrix values="0 0 0 0 0.0627451 0 0 0 0 0.0941176 0 0 0 0 0.156863 0 0 0 0.06 0"/><feBlend in2="BackgroundImageFix" result="effect1_dropShadow_91_28395"/><feColorMatrix in="SourceAlpha" values="0 0 0 0 0 0 0 0 0 0 0 0 0 0 0 0 0 0 127 0" result="hardAlpha"/><feOffset dy="1"/><feGaussianBlur stdDeviation="1.5"/><feColorMatrix values="0 0 0 0 0.0627451 0 0 0 0 0.0941176 0 0 0 0 0.156863 0 0 0 0.1 0"/><feBlend in2="effect1_dropShadow_91_28395" result="effect2_dropShadow_91_28395"/><feBlend in="SourceGraphic" in2="effect2_dropShadow_91_28395" result="shape"/></filter><clipPath id="clip0_91_28395"><rect x="3" y="2" width="36" height="24" rx="2" fill="white"/></clipPath></defs></svg>