<svg width="42" height="30" viewBox="0 0 42 30" fill="none" xmlns="http://www.w3.org/2000/svg"><g id="Country=FM - Federated States of Micronesia, Size=sm (36x24)" filter="url(#filter0_dd_91_28277)"><g clip-path="url(#clip0_91_28277)"><g id="flag"><mask id="mask0_91_28277" style="mask-type:alpha" maskUnits="userSpaceOnUse" x="3" y="2" width="36" height="24"><rect id="mask" x="3" y="2" width="36" height="24" fill="white"/></mask><g mask="url(#mask0_91_28277)"><g id="contents"><path id="background" fill-rule="evenodd" clip-rule="evenodd" d="M3 2V26H39V2H3Z" fill="#63B3E1"/><mask id="mask1_91_28277" style="mask-type:alpha" maskUnits="userSpaceOnUse" x="3" y="2" width="36" height="24"><path id="background_2" fill-rule="evenodd" clip-rule="evenodd" d="M3 2V26H39V2H3Z" fill="white"/></mask><g mask="url(#mask1_91_28277)"><g id="mark"><path id="Star 10" fill-rule="evenodd" clip-rule="evenodd" d="M21 9.30005L19.0162 10.2271L19.3951 8.26357L17.7902 6.873L20.0081 6.58652L21 4.80005L21.9919 6.58652L24.2098 6.873L22.6049 8.26357L22.9838 10.2271L21 9.30005Z" fill="#F7FCFF"/><path id="Star 10_2" fill-rule="evenodd" clip-rule="evenodd" d="M20.9999 21.3L19.0161 22.2271L19.3949 20.2636L17.79 18.873L20.008 18.5865L20.9999 16.8L21.9917 18.5865L24.2097 18.873L22.6048 20.2636L22.9836 22.2271L20.9999 21.3Z" fill="#F7FCFF"/><path id="Star 10_3" fill-rule="evenodd" clip-rule="evenodd" d="M14.0249 15.5L12.0411 16.4271L12.42 14.4635L10.8151 13.0729L13.033 12.7865L14.0249 11L15.0168 12.7865L17.2347 13.0729L15.6298 14.4635L16.0087 16.4271L14.0249 15.5Z" fill="#F7FCFF"/><path id="Star 10_4" fill-rule="evenodd" clip-rule="evenodd" d="M27.75 15.5L25.7662 16.4271L26.1451 14.4635L24.5402 13.0729L26.7581 12.7865L27.75 11L28.7419 12.7865L30.9598 13.0729L29.3549 14.4635L29.7338 16.4271L27.75 15.5Z" fill="#F7FCFF"/></g></g></g></g></g></g></g><defs><filter id="filter0_dd_91_28277" x="0" y="0" width="42" height="30" filterUnits="userSpaceOnUse" color-interpolation-filters="sRGB"><feFlood flood-opacity="0" result="BackgroundImageFix"/><feColorMatrix in="SourceAlpha" values="0 0 0 0 0 0 0 0 0 0 0 0 0 0 0 0 0 0 127 0" result="hardAlpha"/><feOffset dy="1"/><feGaussianBlur stdDeviation="1"/><feColorMatrix values="0 0 0 0 0.0627451 0 0 0 0 0.0941176 0 0 0 0 0.156863 0 0 0 0.06 0"/><feBlend in2="BackgroundImageFix" result="effect1_dropShadow_91_28277"/><feColorMatrix in="SourceAlpha" values="0 0 0 0 0 0 0 0 0 0 0 0 0 0 0 0 0 0 127 0" result="hardAlpha"/><feOffset dy="1"/><feGaussianBlur stdDeviation="1.5"/><feColorMatrix values="0 0 0 0 0.0627451 0 0 0 0 0.0941176 0 0 0 0 0.156863 0 0 0 0.1 0"/><feBlend in2="effect1_dropShadow_91_28277" result="effect2_dropShadow_91_28277"/><feBlend in="SourceGraphic" in2="effect2_dropShadow_91_28277" result="shape"/></filter><clipPath id="clip0_91_28277"><rect x="3" y="2" width="36" height="24" rx="2" fill="white"/></clipPath></defs></svg>