<svg width="42" height="30" viewBox="0 0 42 30" fill="none" xmlns="http://www.w3.org/2000/svg"><g id="Country=GP - Guadeloupe, Size=sm (36x24)" filter="url(#filter0_dd_91_27996)"><g clip-path="url(#clip0_91_27996)"><g id="flag"><path id="bg-blue" d="M3 2V9H38.9992V2L3 2Z" fill="#002488"/><path id="bg-red" d="M3.00098 9V26H39.0002V9L3.00098 9Z" fill="#DA121A"/><g id="deco"><path id="path1350" d="M8.6563 2.78964C8.22634 3.41991 8.17505 3.92405 8.46849 4.79459C8.60978 5.20084 8.76498 5.80751 8.83019 6.13637C8.91713 6.60066 8.90803 6.6448 8.92024 6.74575C9.02892 6.74575 9.27591 6.74612 9.39011 6.74551C9.40654 6.58477 9.41981 6.39923 9.45837 6.1441C9.50332 5.84663 9.63665 5.22448 9.78006 4.79235C10.0666 3.92882 10.0474 3.39902 9.60184 2.79932C9.43881 2.57685 9.22145 2.39307 9.12363 2.39307C9.02582 2.39307 8.80454 2.56292 8.6563 2.78964Z" fill="#FCDD09"/><path id="path1354" d="M9.59326 6.33325C9.55633 6.49955 9.54733 6.55826 9.52881 6.74569C9.66054 6.74616 9.71232 6.74696 9.84074 6.74628C9.86885 6.62019 9.88909 6.55362 9.95105 6.37465C10.1967 5.68248 10.9201 5.40468 10.8874 6.05275C10.8766 6.23169 10.7917 6.3316 10.6973 6.42753C10.814 6.40163 11.062 6.29863 11.2631 6.19706C12.3825 5.59736 11.9417 4.12789 10.7679 4.57283C10.1593 4.80498 9.79322 5.44762 9.59326 6.33325Z" fill="#FCDD09"/><path id="path1356" d="M8.28076 6.98984C8.77195 6.99208 9.62088 6.9961 10.0286 6.99386C10.0291 6.88635 10.0306 6.94122 10.0316 6.85434C9.73144 6.85177 8.58197 6.85601 8.28309 6.85601C8.28377 6.91222 8.2824 6.93943 8.28076 6.98984L8.28076 6.98984Z" fill="#FCDD09"/><path id="path1358" d="M7.97168 7.78061C7.97168 7.78061 8.21636 7.8051 8.44455 7.79028C8.67273 7.77547 8.79934 7.75013 8.9342 7.69182C8.89759 7.93382 8.89548 8.16752 8.89548 8.16752C8.92867 8.47895 8.96622 8.55865 9.04211 8.71022C9.14506 8.83666 9.20494 8.83736 9.28062 8.70385C9.36243 8.55435 9.41628 8.4006 9.43336 8.16606C9.42742 7.99028 9.41638 7.90973 9.3696 7.69484C9.52749 7.75565 9.62721 7.77141 9.86276 7.79028C10.1038 7.8096 10.3253 7.80013 10.3253 7.80013C10.3253 7.80013 9.99975 7.65471 9.85645 7.47636C9.71499 7.3003 9.74516 7.33024 9.6423 7.10344C9.51731 7.09817 8.88362 7.10335 8.68256 7.10335C8.57243 7.31012 8.56136 7.3533 8.42534 7.48378C8.24828 7.65363 7.97168 7.78061 7.97168 7.78061Z" fill="#FCDD09"/><path id="path1317" d="M7.5307 4.57235C8.13932 4.80449 8.50538 5.44713 8.70534 6.33276C8.74226 6.49906 8.75127 6.55777 8.76979 6.7452C8.63805 6.74567 8.58627 6.74648 8.45786 6.74579C8.42975 6.6197 8.40951 6.55314 8.34755 6.37417C8.10194 5.68199 7.37854 5.40419 7.41115 6.05226C7.42202 6.2312 7.50687 6.33112 7.60133 6.42705C7.48457 6.40114 7.2366 6.29814 7.03554 6.19658C5.9161 5.59687 6.35693 4.1274 7.5307 4.57235V4.57235Z" fill="#FCDD09"/></g><g id="deco_2"><path id="path1328" d="M19.9063 2.78964C19.4763 3.41991 19.425 3.92405 19.7185 4.79459C19.8598 5.20084 20.015 5.80751 20.0802 6.13637C20.1671 6.60066 20.158 6.6448 20.1702 6.74575C20.2789 6.74575 20.5259 6.74612 20.6401 6.74551C20.6565 6.58477 20.6698 6.39923 20.7084 6.1441C20.7533 5.84663 20.8867 5.22448 21.0301 4.79235C21.3166 3.92882 21.2974 3.39902 20.8518 2.79932C20.6888 2.57685 20.4714 2.39307 20.3736 2.39307C20.2758 2.39307 20.0545 2.56292 19.9063 2.78964Z" fill="#FCDD09"/><path id="path1330" d="M22.0179 4.57283C21.4093 4.80498 21.0432 5.44762 20.8433 6.33325C20.8063 6.49955 20.7973 6.55826 20.7788 6.74569C20.9105 6.74616 20.9623 6.74696 21.0907 6.74628C21.1188 6.62019 21.1391 6.55362 21.201 6.37465C21.4467 5.68248 22.1701 5.40468 22.1374 6.05275C22.1266 6.23169 22.0417 6.3316 21.9473 6.42753C22.064 6.40163 22.312 6.29863 22.5131 6.19706C23.6325 5.59736 23.1917 4.12789 22.0179 4.57283V4.57283Z" fill="#FCDD09"/><path id="path1332" d="M19.5308 6.98984C20.022 6.99208 20.8709 6.9961 21.2786 6.99386C21.2791 6.88635 21.2806 6.94122 21.2816 6.85434C20.9814 6.85177 19.832 6.85601 19.5331 6.85601C19.5338 6.91222 19.5324 6.93943 19.5308 6.98984L19.5308 6.98984Z" fill="#FCDD09"/><path id="path1334" d="M19.6753 7.48378C19.4983 7.65363 19.2217 7.78061 19.2217 7.78061C19.2217 7.78061 19.4664 7.8051 19.6945 7.79028C19.9227 7.77547 20.0493 7.75013 20.1842 7.69182C20.1476 7.93382 20.1455 8.16752 20.1455 8.16752C20.1787 8.47895 20.2162 8.55865 20.2921 8.71022C20.3951 8.83666 20.4549 8.83736 20.5306 8.70385C20.6124 8.55435 20.6663 8.4006 20.6834 8.16606C20.6774 7.99028 20.6664 7.90973 20.6196 7.69484C20.7775 7.75565 20.8772 7.77141 21.1128 7.79028C21.3538 7.8096 21.5753 7.80013 21.5753 7.80013C21.5753 7.80013 21.2498 7.65471 21.1064 7.47636C20.965 7.3003 20.9952 7.33024 20.8923 7.10344C20.7673 7.09817 20.1336 7.10335 19.9326 7.10335C19.8224 7.31012 19.8114 7.3533 19.6753 7.48378V7.48378Z" fill="#FCDD09"/><path id="path1336" d="M18.7807 4.57235C19.3893 4.80449 19.7554 5.44713 19.9553 6.33276C19.9923 6.49906 20.0013 6.55777 20.0198 6.7452C19.8881 6.74567 19.8363 6.74648 19.7079 6.74579C19.6797 6.6197 19.6595 6.55314 19.5976 6.37417C19.3519 5.68199 18.6285 5.40419 18.6611 6.05226C18.672 6.2312 18.7569 6.33112 18.8513 6.42705C18.7346 6.40114 18.4866 6.29814 18.2855 6.19658C17.1661 5.59687 17.6069 4.1274 18.7807 4.57235V4.57235Z" fill="#FCDD09"/></g><g id="deco_3"><path id="path1340" d="M31.1558 2.78964C30.7259 3.41991 30.6746 3.92405 30.968 4.79459C31.1093 5.20084 31.2645 5.80751 31.3297 6.13637C31.4166 6.60066 31.4075 6.6448 31.4198 6.74575C31.5284 6.74575 31.7754 6.74612 31.8896 6.74551C31.906 6.58477 31.9193 6.39923 31.9579 6.1441C32.0028 5.84663 32.1362 5.22448 32.2796 4.79235C32.5661 3.92882 32.5469 3.39902 32.1013 2.79932C31.9383 2.57685 31.721 2.39307 31.6231 2.39307C31.5253 2.39307 31.3041 2.56292 31.1558 2.78964Z" fill="#FCDD09"/><path id="path1342" d="M33.2674 4.57283C32.6588 4.80498 32.2927 5.44762 32.0928 6.33325C32.0558 6.49955 32.0468 6.55826 32.0283 6.74569C32.1601 6.74616 32.2118 6.74696 32.3402 6.74628C32.3684 6.62019 32.3886 6.55362 32.4506 6.37465C32.6962 5.68248 33.4196 5.40468 33.387 6.05275C33.3761 6.23169 33.2912 6.3316 33.1968 6.42753C33.3135 6.40163 33.5615 6.29863 33.7626 6.19706C34.882 5.59736 34.4412 4.12789 33.2674 4.57283V4.57283Z" fill="#FCDD09"/><path id="path1344" d="M30.7803 6.98984C31.2715 6.99208 32.1204 6.9961 32.5281 6.99386C32.5286 6.88635 32.5301 6.94122 32.5311 6.85434C32.231 6.85177 31.0815 6.85601 30.7826 6.85601C30.7833 6.91222 30.7819 6.93943 30.7803 6.98984L30.7803 6.98984Z" fill="#FCDD09"/><path id="path1346" d="M30.9249 7.48378C30.7478 7.65363 30.4712 7.78061 30.4712 7.78061C30.4712 7.78061 30.7159 7.8051 30.9441 7.79028C31.1722 7.77547 31.2989 7.75013 31.4337 7.69182C31.3971 7.93382 31.395 8.16752 31.395 8.16752C31.4282 8.47895 31.4657 8.55865 31.5416 8.71022C31.6446 8.83666 31.7044 8.83736 31.7801 8.70385C31.8619 8.55435 31.9158 8.4006 31.9329 8.16606C31.9269 7.99028 31.9159 7.90973 31.8691 7.69484C32.027 7.75565 32.1267 7.77141 32.3623 7.79028C32.6033 7.8096 32.8249 7.80013 32.8249 7.80013C32.8249 7.80013 32.4993 7.65471 32.356 7.47636C32.2145 7.3003 32.2447 7.33024 32.1418 7.10344C32.0168 7.09817 31.3831 7.10335 31.1821 7.10335C31.0719 7.31012 31.0609 7.3533 30.9249 7.48378V7.48378Z" fill="#FCDD09"/><path id="path1348" d="M30.0302 4.57235C30.6388 4.80449 31.0049 5.44713 31.2048 6.33276C31.2418 6.49906 31.2508 6.55777 31.2693 6.7452C31.1376 6.74567 31.0858 6.74648 30.9574 6.74579C30.9293 6.6197 30.909 6.55314 30.8471 6.37417C30.6015 5.68199 29.8781 5.40419 29.9107 6.05226C29.9215 6.2312 30.0064 6.33112 30.1008 6.42705C29.9841 6.40114 29.7361 6.29814 29.535 6.19658C28.4156 5.59687 28.8564 4.1274 30.0302 4.57235V4.57235Z" fill="#FCDD09"/></g><g id="grass"><path id="path1415" d="M15.7107 15.1284C15.9467 15.2263 16.248 15.3035 16.4 15.308C16.5795 15.3134 16.5319 15.2741 16.1967 15.1581C15.9344 15.067 15.6206 14.9138 15.4813 14.8187C15.2316 14.6372 15.2316 14.6372 15.2578 14.7969C15.2728 14.8882 15.461 15.0301 15.7107 15.1284V15.1284Z" fill="#008000"/><path id="path2221" d="M14.2429 13.2412C14.395 13.7829 15.0254 14.7792 15.2427 14.8179C15.4384 14.8469 15.4384 14.8372 15.2753 14.6728C15.0036 14.3923 14.4168 13.367 14.4168 13.1735C14.4168 13.0671 14.3624 12.9897 14.2972 12.9897C14.2211 12.9897 14.1994 13.0865 14.2429 13.2412V13.2412Z" fill="#008000"/><path id="path2495" d="M7.7105 12.562C7.70673 12.5811 7.91073 12.7211 8.16637 12.8791C8.422 13.0371 8.71983 13.2606 8.81869 13.3743C8.98808 13.5777 9.94764 14.0819 10.0377 14.0174C10.1258 13.9625 8.88979 13.0712 8.36719 12.8124C7.74512 12.4987 7.72371 12.4953 7.7105 12.562V12.562Z" fill="#008000"/><path id="path2223" d="M8.06055 13.3061C8.06055 13.3255 8.28878 13.4319 8.57136 13.548C8.85393 13.664 9.19085 13.8381 9.3104 13.9349C9.51689 14.109 10.5602 14.4572 10.6363 14.3798C10.7124 14.3121 9.32127 13.6253 8.75612 13.4512C8.08228 13.2384 8.06055 13.2384 8.06055 13.3061Z" fill="#008000"/><path id="path2227" d="M13.4419 13.3834C13.4419 13.4898 13.8658 14.2249 14.1157 14.5345C14.257 14.7086 14.42 14.8053 14.6048 14.8053C14.8765 14.8053 14.8765 14.8053 14.4635 14.3894C14.2244 14.1669 13.9092 13.8284 13.7462 13.6446C13.5832 13.4608 13.4419 13.3447 13.4419 13.3834H13.4419Z" fill="#008000"/><path id="path2249" d="M11.6922 16.3612C10.9749 16.6127 10.8228 16.6998 10.8228 16.8352C10.8228 16.8932 10.8988 16.8836 11.0184 16.7965C11.1162 16.7095 11.4749 16.5934 11.8009 16.5257C12.1269 16.458 12.5182 16.3419 12.6704 16.2742L12.9421 16.1484H12.616C12.4421 16.1581 12.0183 16.2548 11.6922 16.3612V16.3612Z" fill="#008000"/><path id="path2241" d="M10.2701 14.8455C10.0853 14.9712 10.0962 14.9809 10.4983 14.9228C10.7374 14.8938 11.0852 14.8358 11.2591 14.7971C11.5417 14.7294 11.52 14.7197 11.0309 14.71C10.7048 14.7004 10.4005 14.7584 10.2701 14.8455Z" fill="#008000"/><path id="path2231" d="M7.56998 13.8283C9.36324 14.1185 12.9606 15.1922 12.7433 15.3759C12.6889 15.4243 11.6782 15.2018 11.5369 15.1148C11.4826 15.0664 10.95 15.0858 10.3631 15.1535C9.26543 15.2599 9.08066 15.3469 9.1024 15.7435C9.11327 15.9369 9.11327 15.9369 9.16761 15.7435C9.26543 15.3856 9.42845 15.3082 10.0479 15.3082C10.7218 15.3082 12.5694 15.55 13.3845 15.7435C14.4713 16.0143 14.5039 16.0143 14.1453 15.8402C13.6779 15.6081 12.9715 15.1825 12.8411 15.0567C12.602 14.8149 8.26554 13.7509 7.63519 13.7703C7.34174 13.7896 7.33087 13.7896 7.56998 13.8283Z" fill="#008000"/><path id="path2235" d="M8.39424 14.3441C8.26382 14.4312 8.12254 14.6343 8.08993 14.7987C8.02472 15.0792 8.02472 15.0792 8.19861 14.8955C8.65508 14.3828 8.68769 14.3635 9.25284 14.3538C9.7093 14.3441 9.77451 14.3248 9.55715 14.2667C9.10068 14.141 8.64421 14.17 8.39424 14.3441Z" fill="#008000"/><path id="path2243" d="M13.934 14.9406C14.0209 15.076 14.8686 15.4533 14.9338 15.3952C14.9664 15.3662 14.8686 15.2888 14.7382 15.2211C14.5969 15.1534 14.4122 15.047 14.3361 14.9696C14.1622 14.8245 13.8361 14.7955 13.934 14.9406V14.9406Z" fill="#008000"/><path id="path1533" d="M13.9994 15.86C14.0863 15.9955 14.9341 16.3727 14.9993 16.3147C15.0319 16.2856 14.9341 16.2083 14.8036 16.1405C14.6623 16.0728 14.4776 15.9664 14.4015 15.8891C14.2276 15.744 13.9016 15.7149 13.9994 15.86V15.86Z" fill="#008000"/><path id="path3304" d="M12.7848 14.7082C12.8004 14.6947 13.0449 14.7669 13.335 14.8672C13.6252 14.9675 13.9999 15.0622 14.1611 15.0716C14.4453 15.0828 15.4515 15.5089 15.4418 15.6113C15.44 15.7071 13.9185 15.2935 13.3852 15.0527C12.7451 14.7691 12.73 14.7552 12.7848 14.7082Z" fill="#008000"/><path id="path3302" d="M14.5848 15.4152C14.382 15.485 14.1781 15.6111 14.1148 15.7013C14.0399 15.808 14.1033 15.809 14.3648 15.6921C14.5698 15.6008 14.8659 15.5259 15.0283 15.5136C15.3324 15.5003 15.3324 15.5003 15.1389 15.3926C15.0283 15.3311 14.7933 15.3373 14.5848 15.4152V15.4152Z" fill="#008000"/><path id="path2215" d="M9.49842 12.1551C9.83534 12.7258 11.2047 14.0413 11.9655 14.5443C12.172 14.6797 12.5415 14.8151 12.7698 14.8441L13.1936 14.9022L12.8785 14.5926C12.3676 14.0993 11.5851 13.1514 11.3352 12.7355C11.0635 12.2809 11.0308 12.3969 11.2591 12.9773C11.346 13.2094 11.6938 13.6737 12.0307 14.0026C12.3676 14.3411 12.585 14.6217 12.5307 14.6217C12.3894 14.6217 11.4764 13.6641 10.8243 12.8322C10.1179 11.923 10.0853 11.894 10.2809 12.3969C10.3788 12.6388 10.5961 12.9966 10.7809 13.1901C10.9548 13.3932 11.0635 13.5577 11.0091 13.5577C10.9004 13.5577 10.4222 13.074 9.82447 12.3776C9.66144 12.1745 9.43321 11.9133 9.3354 11.7972C9.22671 11.6715 9.30279 11.8359 9.49842 12.1551V12.1551Z" fill="#008000"/><path id="path2247" d="M10.1348 15.8985C9.66745 15.9952 9.41748 16.1403 9.41748 16.3144C9.41748 16.3821 9.46095 16.3724 9.51529 16.295C9.60224 16.1693 10.4934 15.9372 10.5804 16.0145C10.6021 16.0339 10.5695 16.179 10.5043 16.3241C10.4391 16.4692 10.4174 16.6142 10.45 16.6433C10.4826 16.682 10.5369 16.6046 10.5695 16.4982C10.6999 16.0822 11.1021 15.9565 12.0693 16.0339C12.5584 16.0726 13.1018 16.1209 13.2757 16.1306C13.4605 16.1403 13.7104 16.1983 13.8409 16.266C14.1234 16.4014 15.2211 16.4111 15.1233 16.2757C15.0907 16.2273 14.8842 16.1596 14.656 16.1306C14.4386 16.1016 13.9822 16.0049 13.6452 15.9275C12.9714 15.7727 10.8195 15.7534 10.1348 15.8985V15.8985Z" fill="#008000"/><path id="path3298" d="M14.1035 17.0148C13.2844 16.8847 12.8948 17.0009 12.5635 17.4554L12.2808 17.8457L12.6443 17.5389C13.1383 17.1121 13.4972 17.0709 14.3851 17.3005C14.8004 17.4098 15.1526 17.4813 15.1648 17.4652C15.2317 17.377 14.5312 17.0732 14.1035 17.0148Z" fill="#008000"/><path id="path2257" d="M14.3269 17.2179C13.5661 17.5178 13.3161 17.808 13.327 18.3496L13.3379 18.8139L13.4465 18.3787C13.5878 17.779 13.8595 17.5662 14.7399 17.3147C15.1529 17.1986 15.4898 17.0825 15.4898 17.0632C15.4898 16.9568 14.7181 17.0535 14.3269 17.2179Z" fill="#008000"/><path id="path2263" d="M14.1828 18.0486C14.0524 18.2033 13.9546 18.4065 13.9546 18.5129C13.9546 18.6386 14.0089 18.6096 14.1611 18.3871C14.2806 18.213 14.4871 18.0099 14.6176 17.9228C14.8675 17.7681 14.8675 17.7681 14.6393 17.7681C14.5089 17.7681 14.3132 17.8841 14.1828 18.0486V18.0486Z" fill="#008000"/><path id="path2267" d="M25.9328 19.6246C26.2857 19.7607 28.1168 20.1716 29.4123 20.5093C30.7078 20.8469 32.2225 21.2357 32.5578 21.2775C33.0371 20.3479 32.1649 22.0867 32.6626 21.0329C32.0156 20.8863 29.4653 20.3523 28.4418 20.0905C27.5595 19.8706 26.3078 19.5277 25.9872 19.4648C25.6666 19.402 25.6622 19.5199 25.9328 19.6246Z" fill="#008000"/><path id="path2162" d="M26.1569 19.3834C26.5149 19.5084 28.3609 19.8623 29.6689 20.1595C30.9769 20.4567 32.5059 20.7981 32.8426 20.8296C33.2851 19.8856 32.4817 21.6505 32.9378 20.5818C32.2854 20.4554 29.7157 20.0009 28.6826 19.7711C27.7922 19.5788 26.5278 19.2749 26.205 19.2221C25.8821 19.1692 25.8823 19.2871 26.1569 19.3834V19.3834Z" fill="#008000"/><path id="path2183" d="M25.6496 19.8001C25.9941 19.9525 27.7984 20.4482 29.0723 20.8457C30.3462 21.2433 31.836 21.702 32.1683 21.7594C32.7016 20.8534 31.7284 22.5492 32.2874 21.52C31.6499 21.3435 29.1344 20.6914 28.1277 20.3823C27.2596 20.1216 26.0298 19.7208 25.7133 19.6432C25.3969 19.5655 25.3856 19.683 25.6496 19.8001Z" fill="#008000"/><path id="path2185" d="M25.43 19.9984C25.765 20.1666 27.5377 20.7456 28.7865 21.202C30.0352 21.6583 31.496 22.1858 31.8245 22.2586C32.4103 21.3787 31.3387 23.0268 31.9575 22.0251C31.3313 21.8191 28.8576 21.0507 27.8705 20.6952C27.0188 20.3944 25.8143 19.9369 25.5028 19.8446C25.1914 19.7523 25.1732 19.8691 25.43 19.9984V19.9984Z" fill="#008000"/><path id="path2187" d="M25.2233 20.2478C25.5515 20.4263 27.3004 21.06 28.5305 21.5549C29.7607 22.0497 31.1998 22.6223 31.5253 22.7053C32.1453 21.8441 31.0097 23.4579 31.6674 22.476C31.0496 22.2507 28.6075 21.4059 27.635 21.02C26.7956 20.693 25.6098 20.1983 25.3021 20.0964C24.9945 19.9945 24.9717 20.1106 25.2233 20.2478V20.2478Z" fill="#008000"/></g><g id="sun"><path id="sun_2" d="M21.5566 22.7551C22.0613 23.068 22.3388 23.5028 22.3113 23.9516L22.2927 24.3222L22.4583 23.9575C22.6395 23.576 22.6146 22.9981 22.4005 22.5702L22.2757 22.3207L22.6722 22.4743C23.2389 22.687 23.612 23.0609 23.6899 23.5051L23.7582 23.8711L23.8351 23.4836C23.9231 23.0768 23.7638 22.5164 23.4544 22.1374L23.2739 21.9163L23.6978 21.9932C24.3017 22.0964 24.754 22.3932 24.934 22.8133L25.0864 23.1586L25.071 22.7654C25.0621 22.3512 24.7753 21.8324 24.3842 21.519L24.156 21.3361L24.5885 21.333C25.2034 21.3222 25.7151 21.5287 25.9893 21.9064L26.2189 22.2159L26.1121 21.8342C26.0067 21.4308 25.605 20.9765 25.1492 20.7423L24.8832 20.6056L25.3056 20.5225C25.9045 20.3981 26.4533 20.5055 26.8097 20.8241L27.1066 21.0844L26.9129 20.7308C26.7156 20.3557 26.2165 19.9855 25.7159 19.8407L25.4239 19.7564L25.8176 19.597C26.3742 19.3645 26.9362 19.368 27.3592 19.6136L27.7106 19.8133L27.4385 19.5032C27.1577 19.1728 26.5831 18.9032 26.0597 18.8542L25.7544 18.8258L26.1023 18.5969C26.5925 18.2665 27.1429 18.1658 27.6141 18.3279L28.0044 18.4582L27.6659 18.2053C27.3141 17.9341 26.689 17.7766 26.1656 17.8256L25.8603 17.8541L26.147 17.5659C26.5494 17.152 27.0643 16.9518 27.5631 17.0231L27.9752 17.0783L27.5849 16.8936C27.1775 16.6934 26.5293 16.655 26.0288 16.7998L25.7367 16.8841L25.9499 16.5493C26.2467 16.0699 26.7036 15.7788 27.2081 15.7562L27.6242 15.734L27.1993 15.6256C26.7539 15.5051 26.111 15.5876 25.6552 15.8217L25.3892 15.9583L25.5196 15.5912C25.698 15.0675 26.0769 14.6983 26.5651 14.5828L26.9669 14.484L26.526 14.4567C26.0622 14.4212 25.4526 14.6207 25.0614 14.9341L24.8333 15.117L24.875 14.7339C24.9271 14.1885 25.2115 13.7572 25.6621 13.5539L26.032 13.383L25.5943 13.4377C25.1324 13.4888 24.5827 13.7969 24.2733 14.1758L24.0929 14.3969L24.0442 14.0144C23.9678 13.4714 24.1451 12.9968 24.5384 12.7147L24.8603 12.479L24.4449 12.6135C24.005 12.749 23.5394 13.152 23.3253 13.58L23.2004 13.8297L23.0634 13.4645C22.8618 12.9475 22.9244 12.4504 23.2432 12.1017L23.5031 11.8117L23.1282 12.02C22.7296 12.234 22.3682 12.7143 22.2587 13.1725L22.1949 13.4399L21.9756 13.1081C21.6576 12.6395 21.6028 12.1419 21.8331 11.7417L22.0195 11.41L21.7015 11.6831C21.3615 11.9662 21.1203 12.503 21.1203 12.9714V13.2446L20.8282 12.9607C20.4078 12.5614 20.2379 12.0846 20.3697 11.6506L20.4744 11.2915L20.2272 11.6177C19.9608 11.9573 19.8502 12.527 19.9597 12.9854L20.0234 13.2526L19.6715 13.0289C19.1669 12.716 18.8894 12.2812 18.9168 11.8322L18.9354 11.4616L18.7698 11.8264C18.5886 12.208 18.6136 12.7857 18.8275 13.2136L18.9524 13.4633L18.5559 13.3096C17.9892 13.097 17.6161 12.723 17.5382 12.2789L17.4698 11.9129L17.3931 12.3003C17.305 12.707 17.4642 13.2676 17.7737 13.6466L17.9541 13.8676L17.5304 13.7906C16.9264 13.6874 16.4742 13.3907 16.2941 12.9706L16.1418 12.6253L16.1572 13.0185C16.166 13.4327 16.4528 13.9514 16.844 14.2648L17.0721 14.4477L16.6396 14.4508C16.0248 14.4617 15.513 14.2551 15.2388 13.8776L15.0091 13.5679L15.116 13.9496C15.2215 14.3531 15.6231 14.8075 16.079 15.0417L16.3448 15.1784L15.9225 15.2614C15.3236 15.3858 14.7748 15.2785 14.4184 14.9599L14.1215 14.6995L14.3152 15.0531C14.5126 15.4283 15.0117 15.7983 15.5123 15.9431L15.8043 16.0276L15.4105 16.1869C14.8538 16.4195 14.2919 16.4159 13.8688 16.1703L13.5175 15.9706L13.7896 16.2806C14.0703 16.611 14.6449 16.8806 15.1684 16.9296L15.4737 16.9582L15.1258 17.187C14.6356 17.5174 14.0851 17.618 13.6139 17.456L13.2236 17.3257L13.5622 17.5786C13.914 17.8499 14.539 18.0073 15.0625 17.9583L15.3678 17.9298L15.081 18.2179C14.6787 18.6319 14.1637 18.832 13.665 18.7608L13.2528 18.7055L13.6431 18.8903C14.0507 19.0906 14.6988 19.1289 15.1994 18.9842L15.4914 18.8997L15.2782 19.2347C14.9814 19.714 14.5244 20.0052 14.02 20.0277L13.6039 20.0498L14.0288 20.1583C14.4741 20.2788 15.1171 20.1963 15.5729 19.9622L15.8388 19.8255L15.7085 20.1926C15.5301 20.7164 15.1513 21.0857 14.663 21.2011L14.2612 21.2999L14.7022 21.3273C15.1659 21.3627 15.7756 21.1631 16.1667 20.8497L16.3949 20.6668L16.3531 21.0501C16.301 21.5953 16.0167 22.0267 15.5661 22.23L15.1961 22.4009L15.6338 22.3463C16.0958 22.2952 16.6454 21.9869 16.9548 21.608L17.1353 21.387L17.184 21.7696C17.2604 22.3125 17.083 22.787 16.6898 23.0693L16.3678 23.3049L16.7832 23.1704C17.223 23.035 17.6887 22.6318 17.9029 22.2039L18.0277 21.9543L18.1647 22.3193C18.3663 22.8365 18.3037 23.3334 17.9849 23.6822L17.725 23.9723L18.0999 23.7638C18.4985 23.55 18.8599 23.0695 18.9693 22.6113L19.0332 22.3441L19.2525 22.6759C19.5705 23.1443 19.6253 23.6421 19.395 24.0422L19.2086 24.374L19.5266 24.1007C19.8665 23.8178 20.1078 23.281 20.1078 22.8125V22.5393L20.3998 22.8233C20.8202 23.2226 20.9901 23.6993 20.8585 24.1333L20.7536 24.4924L21.0008 24.1662C21.2672 23.8265 21.3778 23.2569 21.2684 22.7986L21.2046 22.5314L21.5566 22.7551Z" fill="#FCDD09"/></g></g></g></g><defs><filter id="filter0_dd_91_27996" x="0" y="0" width="42" height="30" filterUnits="userSpaceOnUse" color-interpolation-filters="sRGB"><feFlood flood-opacity="0" result="BackgroundImageFix"/><feColorMatrix in="SourceAlpha" values="0 0 0 0 0 0 0 0 0 0 0 0 0 0 0 0 0 0 127 0" result="hardAlpha"/><feOffset dy="1"/><feGaussianBlur stdDeviation="1"/><feColorMatrix values="0 0 0 0 0.0627451 0 0 0 0 0.0941176 0 0 0 0 0.156863 0 0 0 0.06 0"/><feBlend in2="BackgroundImageFix" result="effect1_dropShadow_91_27996"/><feColorMatrix in="SourceAlpha" values="0 0 0 0 0 0 0 0 0 0 0 0 0 0 0 0 0 0 127 0" result="hardAlpha"/><feOffset dy="1"/><feGaussianBlur stdDeviation="1.5"/><feColorMatrix values="0 0 0 0 0.0627451 0 0 0 0 0.0941176 0 0 0 0 0.156863 0 0 0 0.1 0"/><feBlend in2="effect1_dropShadow_91_27996" result="effect2_dropShadow_91_27996"/><feBlend in="SourceGraphic" in2="effect2_dropShadow_91_27996" result="shape"/></filter><clipPath id="clip0_91_27996"><rect x="3" y="2" width="36" height="24" rx="2" fill="white"/></clipPath></defs></svg>