<svg width="42" height="30" viewBox="0 0 42 30" fill="none" xmlns="http://www.w3.org/2000/svg"><g id="Country=GR - Greece, Size=sm (36x24)" filter="url(#filter0_dd_91_27954)"><g clip-path="url(#clip0_91_27954)"><g id="flag"><mask id="mask0_91_27954" style="mask-type:alpha" maskUnits="userSpaceOnUse" x="3" y="2" width="36" height="24"><rect id="mask" x="3" y="2" width="36" height="24" fill="white"/></mask><g mask="url(#mask0_91_27954)"><g id="contents"><path id="bottom" fill-rule="evenodd" clip-rule="evenodd" d="M3 2H39V26H3V2Z" fill="#F7FCFF"/><path id="Combined Shape" fill-rule="evenodd" clip-rule="evenodd" d="M3 7.5H39V10.4568H3V7.5ZM3 12.8151H39V15.7719H3V12.8151ZM39 17.9432H3V20.9H39V17.9432Z" fill="#4564F9"/><path id="lines" fill-rule="evenodd" clip-rule="evenodd" d="M3 2H39V5H3V2Z" fill="#4564F9"/><rect id="lines_2" x="3" y="23" width="36" height="3" fill="#4564F9"/><path id="square" fill-rule="evenodd" clip-rule="evenodd" d="M3 2H19.875V15.8H3V2Z" fill="#4564F9"/><path id="cross" fill-rule="evenodd" clip-rule="evenodd" d="M9.75 2H13.125V7.50386H19.875V10.4387H13.125V16.5H9.75V10.4387H3V7.50386H9.75V2Z" fill="#F7FCFF"/></g></g></g></g></g><defs><filter id="filter0_dd_91_27954" x="0" y="0" width="42" height="30" filterUnits="userSpaceOnUse" color-interpolation-filters="sRGB"><feFlood flood-opacity="0" result="BackgroundImageFix"/><feColorMatrix in="SourceAlpha" values="0 0 0 0 0 0 0 0 0 0 0 0 0 0 0 0 0 0 127 0" result="hardAlpha"/><feOffset dy="1"/><feGaussianBlur stdDeviation="1"/><feColorMatrix values="0 0 0 0 0.0627451 0 0 0 0 0.0941176 0 0 0 0 0.156863 0 0 0 0.06 0"/><feBlend in2="BackgroundImageFix" result="effect1_dropShadow_91_27954"/><feColorMatrix in="SourceAlpha" values="0 0 0 0 0 0 0 0 0 0 0 0 0 0 0 0 0 0 127 0" result="hardAlpha"/><feOffset dy="1"/><feGaussianBlur stdDeviation="1.5"/><feColorMatrix values="0 0 0 0 0.0627451 0 0 0 0 0.0941176 0 0 0 0 0.156863 0 0 0 0.1 0"/><feBlend in2="effect1_dropShadow_91_27954" result="effect2_dropShadow_91_27954"/><feBlend in="SourceGraphic" in2="effect2_dropShadow_91_27954" result="shape"/></filter><clipPath id="clip0_91_27954"><rect x="3" y="2" width="36" height="24" rx="2" fill="white"/></clipPath></defs></svg>