<svg xmlns="http://www.w3.org/2000/svg" width="42" height="30" fill="none"><g filter="url(#a)"><g clip-path="url(#b)"><mask id="c" width="36" height="24" x="3" y="2" maskUnits="userSpaceOnUse" style="mask-type:alpha"><path fill="#fff" d="M3 2h36v24H3z"/></mask><g mask="url(#c)"><path fill="#2B409A" fill-rule="evenodd" d="M3 2.1h36v24H3v-24Z" clip-rule="evenodd"/></g><path fill="#2B409A" d="M3 2h20.25v14H3z"/><mask id="d" width="21" height="14" x="3" y="2" maskUnits="userSpaceOnUse" style="mask-type:alpha"><path fill="#fff" d="M3 2h20.25v14H3z"/></mask><g mask="url(#d)"><path fill="#F7FCFF" d="m.745 15 4.456 1.737 18.15-12.848 2.35-2.582-4.765-.58-7.402 5.536-5.96 3.73L.746 15Z"/><path fill="#F50100" d="m1.355 16.217 2.27 1.008L24.857 1.067H21.67L1.355 16.217Z"/><path fill="#F7FCFF" d="m25.505 15-4.456 1.737L2.899 3.889.549 1.307l4.765-.58 7.402 5.536 5.96 3.73L25.504 15Z"/><path fill="#F50100" d="m25.353 15.873-2.27 1.008-9.041-6.918-2.68-.773L.322 1.316H3.51l11.033 7.688 2.93.926 7.88 5.943Z"/><mask id="e" width="24" height="18" x="1" y="0" fill="#000" maskUnits="userSpaceOnUse"><path fill="#fff" d="M1 0h24v18H1z"/><path fill-rule="evenodd" d="M14.233 2h-2.25v6H3v2h8.983v6h2.25v-6h9.017V8h-9.017V2Z" clip-rule="evenodd"/></mask><path fill="#F50100" fill-rule="evenodd" d="M14.233 2h-2.25v6H3v2h8.983v6h2.25v-6h9.017V8h-9.017V2Z" clip-rule="evenodd"/><path fill="#F7FCFF" d="M11.983 2V.5h-1.5V2h1.5Zm2.25 0h1.5V.5h-1.5V2Zm-2.25 6v1.5h1.5V8h-1.5ZM3 8V6.5H1.5V8H3Zm0 2H1.5v1.5H3V10Zm8.983 0h1.5V8.5h-1.5V10Zm0 6h-1.5v1.5h1.5V16Zm2.25 0v1.5h1.5V16h-1.5Zm0-6V8.5h-1.5V10h1.5Zm9.017 0v1.5h1.5V10h-1.5Zm0-2h1.5V6.5h-1.5V8Zm-9.017 0h-1.5v1.5h1.5V8Zm-2.25-4.5h2.25v-3h-2.25v3Zm1.5 4.5V2h-3v6h3ZM3 9.5h8.983v-3H3v3Zm1.5.5V8h-3v2h3Zm7.483-1.5H3v3h8.983v-3Zm1.5 7.5v-6h-3v6h3Zm.75-1.5h-2.25v3h2.25v-3Zm-1.5-4.5v6h3v-6h-3ZM23.25 8.5h-9.017v3h9.017v-3Zm-1.5-.5v2h3V8h-3Zm-7.517 1.5h9.017v-3h-9.017v3Zm-1.5-7.5v6h3V2h-3Z" mask="url(#e)"/></g><path fill="#6A4C2D" d="M30.358 20.552c-.069 0-.32-.12-.32-.12s-.181.255-.277.27c-.095.015-.588-.158-.588-.158s-.346.24-.424.226l-.873-.166-.433-.24s-.242.345-.25.338c-.01-.008-.727-.128-.727-.128s.216-.263.216-.27c0-.008-.104-.038-.104-.038l-.156.113-.64.052.156-.39.25-.33 3.072-2.593 1.513 2.427-.224.729s-.122.278-.19.278Z"/><path stroke="#FB0" stroke-linecap="round" stroke-linejoin="round" stroke-width=".5" d="M27.424 20.061c.107.115 1.516 1.395 1.745 2.001.228.606-1.853-.168-1.853-.168s2.62-1.513 3.93-1.513 3.882 1.513 3.882 1.513-1.727 1.08-1.709.4c.018-.682.81-2.025 1.757-2.233"/><path fill="#F7FCFF" d="m36.235 20.16-.43-.143-.382-.448-1.578-.103-1.439-.35-.607.36.327.38.798.26 3.31.044Z"/><path fill="#656263" d="M29.932 11.866c.014.033.336-.025.405.146.346-.454.752-.02.752-.02l.343-.36.386.325.354-.025.37.772-2.922-.048s.297-.822.312-.79Zm3.028 3.288c-.023-.245-.267-.273-.403-.265-.136.008-.258.11-.258.11l-.45-.249s.225-1.235.464-1.313c.227-.142.267-.204.267-.236 0-.033-.084-.165-.084-.165l-1.47-.151-1.39.143s-.107.193-.093.25c.014.057.019.118.268.286.275.184.464 1.24.464 1.24s-.39.166-.413.146a.41.41 0 0 0-.202-.032.337.337 0 0 0-.262.33c0 .232.201.367.201.367s1.329.865 1.526 1.183c.193-.383 1.455-1.248 1.606-1.314.06-.032.253-.085.23-.33Z"/><path fill="#000" d="M34.287 14.001c.11-.063.845-.095 1.022 0 .176.096.242.569.242.569s.11.166.118.287c.007.122.022.205.022.205s.588.664.596 1.264c.066.41.051 1.501-.133 1.916-.007.518-.257.856-.257.856s.059.09.052.185a.455.455 0 0 1-.067.185l-.551.211-.61-.09-.692-1.794.162-3.034.044-.153-.073-.409s.015-.134.125-.198Z"/><path fill="#F7FCFF" d="M30.295 15.594s.744 0 .824.21c.141-.28.784-.262.784-.262l1.166-.035.02 2.445c-.227.949-1.018 1.619-1.89 1.904-1.038-.291-1.695-1.054-1.91-1.921l-.12-2.323 1.126-.018Z"/><path fill="#006B00" d="m29.57 15.603 1.64 3.796 1.482-3.879c-.46.026-1.446-.063-1.569.301-.19-.325-1.227-.194-1.553-.218Z"/><path fill="#FFD100" fill-rule="evenodd" d="M31.471 16.198s.15.346 0 .517a.178.178 0 0 0 .103.312c.09 0 .398.271.148.271s-.392-.084-.392.155.346 1.315.244 1.573c-.103.258-.077.456.07.39.146-.066.238-.234.158-.559-.08-.324-.159-.248-.159-.528 0-.281.079-.593.079-.593s.131.087.038.408c-.094.32.116.762.116.882s.006.451-.074.484c-.08.033-.154.232-.228.08-.075-.152-.122-.403-.218-.23-.095.172-.077.57-.177.588-.1.02-.248.208-.248.132 0-.075-.14-.212-.097-.339.042-.127.08-.142.114-.02.035.122.18.12.18.02 0-.1-.05-.051 0-.28.052-.23.108-.532 0-.514-.107.018-.272.167-.294-.108-.022-.275-.11-.403-.04-.457.072-.053.166-.245.197-.094.03.15-.103.294-.082.348.022.054.034.177.127.074s.147-.272.216-.115c.07.157.071.033-.072-.266-.144-.3-.266-.467-.249-.73.017-.262-.006-.361.017-.445.024-.085-.257-.497-.185-.615.07-.119.098-.502.185-.433.088.07.133.162.088.265-.045.103-.09.205-.045.275.045.07.2.27.23.22.031-.051.135-.002.135-.288s-.116-.386-.043-.454c.074-.068.158.074.158.074Z" clip-rule="evenodd"/><path fill="#1E5AA6" d="m32.701 15.52.221-.004-.394.435.473.48-.932 1.02.88.92a2.324 2.324 0 0 1-.358.562l-.506-.485.916-.992-.752-.741.452-1.194Zm-3.396.092.442.416-.469.508.975.92-.806.937c.096.206.235.435.384.604l.48-.526-.985-.951.721-.796-.505-1.117-.238.005Z"/><path fill="#1E5AA6" d="m30.637 18.078-.347.402 1.242 1.25a3.2 3.2 0 0 0 .58-.339l-.648-.65.263-.672.38.38-1.185 1.312a2.696 2.696 0 0 1-.617-.33l.627-.69-.295-.663Z"/><path fill="url(#f)" d="M34.934 14.851c0 .064.078 3.832.164 3.796.213-.09.262.106.262.106s.074.62-.11.703a2.924 2.924 0 0 1-.476.187l-.318-.206s-.324-.402-.397-.581c-.074-.179-.162-.977-.133-1.15.03-.172.052-1.182.037-1.232-.015-.052-.073-.895-.037-1.022.037-.128.265-.69.258-.69 0 0 .75.025.75.09Z"/><path fill="#FF7000" d="M34.199 14.206a.34.34 0 0 1 .308.217c.008.045-.015.077-.007.16.007.083-1.118.019-1.125.013 0 0 .522-.44.824-.39Z"/><path fill="#fff" stroke="#000" stroke-linejoin="round" stroke-width=".5" d="M35.434 19.667s.352-.07.448-.18c.06-.038.368.403-.448.18Z"/><path fill="#000" d="M34.848 14.46c0 .028-.025.05-.056.05-.032 0-.057-.022-.057-.05 0-.027.026-.05.057-.05.03 0 .056.023.056.05Z"/><path fill="#F7FCFF" d="M32.049 13.909s.586.55.965.544c.068.162-.173.312-.27.384-.192-.054-.367.01-.814-.469.028-.305.126-.447.119-.46Zm2.328-2.771c.055.353-.003.435-.03.584-.025.148 1.018.203 1.287-.09-.028.131-.34.667-1.76.661.537.443-.172.796-.475.688.558-.37-.159-.592-.558-.353.075-.203.634-1.226 1.536-1.49Z"/><path fill="#00F" fill-rule="evenodd" d="M33.432 13.617c-.107-.39-.158-.836.077-1.007-.31-.185-.648.006-.648.006a.178.178 0 0 1-.017.024c-.072.088-.313.384.017.916-.881-.203-.512.509-.447.562.034-.114.502-.221.62.36.039.117-.198.287-.275.341-.017.012-.026.018-.022.017 0 0 .746.135.843-.741.128-.068.747-.435.728-1.191-.569.01-.82.567-.876.713Z" clip-rule="evenodd"/><path fill="#F7FCFF" d="M30.099 14.065s-.572.43-.896.293c-.24.125-.523-.096-.523-.096s.33 1.059 1.515.293a2.153 2.153 0 0 0-.096-.49Z"/><path fill="#00F" d="M29.196 14.34c.048-.222.248-.33.407-.12.213.036.427-.724-.331-.598.213-.994-.427-1.365-.427-1.365s-.227 1.101-.124 1.305c.103.203-.151-.377-.971-.539-.014.832.916 1.221.916 1.221s.262.21.53.096Z"/><path fill="#F7FCFF" d="M28.421 13.14c-.24.065-.827-.25-.455-.657-1.22-.023-1.883-.94-1.477-.764.407.174.697-.198 1 0-.372-.3.13-.539.13-.539s1.04.27 1.226 1.071c-.062.156-.09.431-.103.42 0-.007-.644-.01-.32.468Z"/><path fill="#CDAD56" d="M30.368 9.431c.006-.027.785-.265.838-.658.052-.394-.01-.128-.01-.128s.215-.179.136-.275c-.079-.096-.053.124-.179.119-.126-.005-.058-.238-.058-.238s-.01-.027-.047-.041c-.053.005-.174-.096-.174-.096s-.079-.092-.148.197c.037.306.264.247.264.448s-.2.357-.258.361c-.058.005-.037-.169-.037-.169s-.032-.082-.053-.082c-.02 0 .116-.019.095-.247-.047-.275-.084.064-.168.05-.085-.014-.021-.252.01-.279.031-.027-.037-.142-.221.15-.016.143-.037-.036-.074-.027-.063.115-.052.197.037.302.132.106.216.21.21.266-.004.055-.073.178-.168.178-.095 0 .005-.15 0-.201-.005-.05-.163-.233-.163-.233s-.11-.156-.1-.16c.01-.005-.253.224-.095.342-.121-.013-.131.028-.131.028 0 .055.163.078.184.174.02.096-.169.15-.169.15s.08.097.3-.09a.282.282 0 0 1-.084.2c.074.03.132.026.142.101 0 0 .116-.114.121-.142Zm-.844.142s-.098-.127-.102-.152c-.005-.025-.485.032-.712-.476-.147-.242 0-.1 0-.1l.01-.117s-.158-.167-.09-.254c.067-.087.039.112.125.113.108-.004.05-.217.05-.217s.008-.025.04-.037c.044.004.063.13.103.138.04.008.123-.148.15-.18.036-.004.035-.129.093.134-.031.278-.297.224-.297.407 0 .184.17.325.219.33.05.003.031-.155.031-.155s.027-.075.045-.075-.156.03-.138-.179c.04-.195.129.013.2 0 .072-.012-.008-.206.013-.235.005-.03.11-.157.15.123.014.13.095-.11.127-.102.053.104-.024.243-.1.338-.112.096-.163.201-.158.251.004.05.03.112.112.112.08 0 .027-.087.031-.133.004-.046.139-.194.139-.194.026-.036.004-.105.032-.136.044 0 .062-.053.106.093.045.146.099-.096.099-.096s.062.18-.072.287c.103-.012.112.025.112.025 0 .05-.049.071-.067.159-.018.087.054.137.054.137s-.067.087-.255-.083a.263.263 0 0 0 .071.183c-.063.026-.111.023-.12.091Z"/><path fill="#923F00" d="M30.76 9.475c-.115.298-.53.185-.53.185s.014.15-.028.221c.034.023.28.19.537.234.371.062 1.13-.108 1.385.143.255.252.241.455.241.455s-.331.034-.239.138c.06.067.225.117.24.187.046.222-.156.62-.083.77-.115.01-.124.114-.124.114-.007.118-.338.048-.338.048s.207-.46.22-.569c.014-.107-.144-.299-.268-.299-.124 0-.214.341-.214.341s-.062.258-.04.282c.02.023-.084-.084-.084-.084s-.032.104-.086.167c-.06.071-.141.102-.141.102s-.062-.156-.041-.215c.02-.06.337-.293.31-.461-.012-.074-.023-.203-.128-.246-.132-.054-.374-.015-.52-.041-.08.121-.117.79-.062.832.055.041-.138.131-.138.131l-.227.006c-.004-.09.134-.338.134-.548 0-.209.017-.433.017-.433s-.152.034-.234.167c-.068.112-.068.323-.062.353.014.066.083.252.062.306-.02.053-.378.125-.378.125l-.015-.173s.152-.084.152-.293c0-.21.014-.51.007-.527-.004-.011-.124-.47-.282-.778-.105-.206-.268-.3-.276-.317-.02-.042-.02-.09-.02-.09s-.228.144-.497-.162c.246-.182.51-.048.51-.048s.07-.167.386-.155c.317.012.379.167.365.15 0 0 .234-.18.49-.018Z"/><path fill="#00F" d="M32.004 12.588c.006 0 .585.015.59.284.007.269-.177.2-.183.2l-.424-.045.017-.44Z"/><path fill="#F7FCFF" d="M31.442 12.513s.723-.005.683.27c-.04.274-.224.219-.224.219l-.35-.025-.11-.464Z"/><path fill="#00F" d="m31.035 12.483.418.03s.253.03.242.24c-.012.209-.259.214-.259.214l-.407-.02.006-.464Z"/><path fill="#F7FCFF" d="M30.054 12.588c-.006 0-.586.015-.591.284-.006.269.178.2.183.2l.425-.045-.017-.44Z"/><path fill="#00F" d="M30.616 12.513s-.723-.005-.683.27c.04.274.224.219.224.219l.35-.025.109-.464Z"/><path fill="#F7FCFF" d="m31.024 12.483-.42.03s-.252.03-.24.24c.011.209.258.214.258.214l.407-.02-.005-.464Z"/><path fill="#5E0043" d="M32.573 15.165c.11.032.027.33-.026.358l-.402-.014s.301-.385.428-.344Zm-2.493.413c-.094-.115-.232-.431-.358-.344-.112.032-.027.33.026.358l.333-.014Z"/><path fill="#B4B6B9" d="m29.581 13.364 1.45.824 1.305-.763s.272-.13.249-.224c-.023-.094-.117-.057-.165-.04-.046.016-1.366.827-1.366.827l-1.403-.771s-.104-.028-.122.029c-.02.057.038.09.052.118Z"/><path fill="#FF7000" d="M34.44 19.427s-.633.17-.456.175c.13.004.76 0 .76 0l-.303-.175Zm.257.187-.563.014s-.141.111-.15.138c-.009.027.093.035.093.035s.58.13 1.02.046c.22-.067.26-.148.104-.197-.155-.05-.5-.034-.504-.036Z"/><path fill="#8A9396" d="M28.19 14.99s-.074.2 0 .3c.073.1.533.909.533.909s.315-.337.43-.346c.115-.008.062.873.062.873s-.188.155-.303.146c-.115-.01.282.345.272.645-.01.3-.523 1.79-.712 1.818-.188.027-.35-.281-.35-.547 0-.267.193-.69.183-.808-.01-.118-.936 1.267-.992 1.484-.01.04.05.189.05.189s-.363.026-.282.436c-1.068-.327-1.591-.89-1.58-1.463.003-.22-.232-.736 0-1.306.372-.918 1.28-1.965 1.287-2.066.01-.164.083-.237.094-.328.01-.09-.032-.554.073-.636.105-.082.649-.282.785-.273.136.01.25.091.25.091s.514 0 .545.173c.032.173-.105.236-.105.236s.074.246-.24.473Z"/><path fill="#2B2B2B" d="M28.495 20.146c.173.106.572.169.572.169s-.98.235-1.977-.221c-.092-.355.213-.434.289-.437.176-.041.943.382 1.116.489Z"/><path fill="#00713D" d="M29.695 20.108c1.074.504 1.189.165 1.928-.314.051-.034.295.77 1.332.314 1.466-.644-1.257-1.718-1.642-1.695-.385.024-2.69 1.19-1.618 1.695Z"/></g></g><defs><linearGradient id="f" x1="34.81" x2="35.645" y1="17.607" y2="17.597" gradientUnits="userSpaceOnUse"><stop stop-color="#D5DFFF"/><stop offset="1" stop-color="#fff"/></linearGradient><clipPath id="b"><rect width="36" height="24" x="3" y="2" fill="#fff" rx="2"/></clipPath><filter id="a" width="42" height="30" x="0" y="0" color-interpolation-filters="sRGB" filterUnits="userSpaceOnUse"><feFlood flood-opacity="0" result="BackgroundImageFix"/><feColorMatrix in="SourceAlpha" result="hardAlpha" values="0 0 0 0 0 0 0 0 0 0 0 0 0 0 0 0 0 0 127 0"/><feOffset dy="1"/><feGaussianBlur stdDeviation="1"/><feColorMatrix values="0 0 0 0 0.0627451 0 0 0 0 0.0941176 0 0 0 0 0.156863 0 0 0 0.06 0"/><feBlend in2="BackgroundImageFix" result="effect1_dropShadow_91_27887"/><feColorMatrix in="SourceAlpha" result="hardAlpha" values="0 0 0 0 0 0 0 0 0 0 0 0 0 0 0 0 0 0 127 0"/><feOffset dy="1"/><feGaussianBlur stdDeviation="1.5"/><feColorMatrix values="0 0 0 0 0.0627451 0 0 0 0 0.0941176 0 0 0 0 0.156863 0 0 0 0.1 0"/><feBlend in2="effect1_dropShadow_91_27887" result="effect2_dropShadow_91_27887"/><feBlend in="SourceGraphic" in2="effect2_dropShadow_91_27887" result="shape"/></filter></defs></svg>