<svg width="42" height="30" viewBox="0 0 42 30" fill="none" xmlns="http://www.w3.org/2000/svg"><g id="Country=HN - Honduras, Size=sm (36x24)" filter="url(#filter0_dd_91_27723)"><g clip-path="url(#clip0_91_27723)"><g id="flag"><mask id="mask0_91_27723" style="mask-type:alpha" maskUnits="userSpaceOnUse" x="3" y="2" width="36" height="24"><rect id="mask" x="3" y="2" width="36" height="24" fill="white"/></mask><g mask="url(#mask0_91_27723)"><g id="contents"><path id="background" fill-rule="evenodd" clip-rule="evenodd" d="M3 2V26H39V2H3Z" fill="#F7FCFF"/><mask id="mask1_91_27723" style="mask-type:alpha" maskUnits="userSpaceOnUse" x="3" y="2" width="36" height="24"><path id="background_2" fill-rule="evenodd" clip-rule="evenodd" d="M3 2V26H39V2H3Z" fill="white"/></mask><g mask="url(#mask1_91_27723)"><path id="top" fill-rule="evenodd" clip-rule="evenodd" d="M3 2V10H39V2H3Z" fill="#4564F9"/><path id="bottom" fill-rule="evenodd" clip-rule="evenodd" d="M3 18V26H39V18H3Z" fill="#4564F9"/><g id="mark"><path id="Star 10" fill-rule="evenodd" clip-rule="evenodd" d="M21.4524 14.6708L20.4775 15.118L20.6637 14.1708L19.875 13.4309H20.9649L21.4524 12.5L21.9398 13.4309H23.0298L22.2411 14.1708L22.4272 15.118L21.4524 14.6708Z" fill="#4564F9"/><path id="Star 10_2" fill-rule="evenodd" clip-rule="evenodd" d="M14.6077 12.5029L13.6328 12.9501L13.819 12.0029L13.0303 11.2629H14.1202L14.6077 10.332L15.0951 11.2629H16.185L15.3963 12.0029L15.5825 12.9501L14.6077 12.5029Z" fill="#4564F9"/><path id="Star 10_3" fill-rule="evenodd" clip-rule="evenodd" d="M14.6077 16.703L13.6328 17.1503L13.819 16.203L13.0303 15.4631H14.1202L14.6077 14.5322L15.0951 15.4631H16.185L15.3963 16.203L15.5825 17.1503L14.6077 16.703Z" fill="#4564F9"/><path id="Star 10_4" fill-rule="evenodd" clip-rule="evenodd" d="M28.1077 12.5029L27.1328 12.9501L27.319 12.0029L26.5303 11.2629H27.6202L28.1077 10.332L28.5951 11.2629H29.685L28.8963 12.0029L29.0825 12.9501L28.1077 12.5029Z" fill="#4564F9"/><path id="Star 10_5" fill-rule="evenodd" clip-rule="evenodd" d="M28.1077 16.703L27.1328 17.1503L27.319 16.203L26.5303 15.4631H27.6202L28.1077 14.5322L28.5951 15.4631H29.685L28.8963 16.203L29.0825 17.1503L28.1077 16.703Z" fill="#4564F9"/></g></g></g></g></g></g></g><defs><filter id="filter0_dd_91_27723" x="0" y="0" width="42" height="30" filterUnits="userSpaceOnUse" color-interpolation-filters="sRGB"><feFlood flood-opacity="0" result="BackgroundImageFix"/><feColorMatrix in="SourceAlpha" values="0 0 0 0 0 0 0 0 0 0 0 0 0 0 0 0 0 0 127 0" result="hardAlpha"/><feOffset dy="1"/><feGaussianBlur stdDeviation="1"/><feColorMatrix values="0 0 0 0 0.0627451 0 0 0 0 0.0941176 0 0 0 0 0.156863 0 0 0 0.06 0"/><feBlend in2="BackgroundImageFix" result="effect1_dropShadow_91_27723"/><feColorMatrix in="SourceAlpha" values="0 0 0 0 0 0 0 0 0 0 0 0 0 0 0 0 0 0 127 0" result="hardAlpha"/><feOffset dy="1"/><feGaussianBlur stdDeviation="1.5"/><feColorMatrix values="0 0 0 0 0.0627451 0 0 0 0 0.0941176 0 0 0 0 0.156863 0 0 0 0.1 0"/><feBlend in2="effect1_dropShadow_91_27723" result="effect2_dropShadow_91_27723"/><feBlend in="SourceGraphic" in2="effect2_dropShadow_91_27723" result="shape"/></filter><clipPath id="clip0_91_27723"><rect x="3" y="2" width="36" height="24" rx="2" fill="white"/></clipPath></defs></svg>