<svg xmlns="http://www.w3.org/2000/svg" width="42" height="30" fill="none"><g filter="url(#a)"><g clip-path="url(#b)"><mask id="c" width="36" height="24" x="3" y="2" maskUnits="userSpaceOnUse" style="mask-type:alpha"><path fill="#fff" d="M3 2h36v24H3z"/></mask><g mask="url(#c)"><path fill="#E31D1C" fill-rule="evenodd" d="M3 2v24h36V2H3Z" clip-rule="evenodd"/><mask id="d" width="36" height="24" x="3" y="2" maskUnits="userSpaceOnUse" style="mask-type:alpha"><path fill="#fff" fill-rule="evenodd" d="M3 2v24h36V2H3Z" clip-rule="evenodd"/></mask><g mask="url(#d)"><path fill="#F7FCFF" fill-rule="evenodd" d="M9.853 6.119c-.008-.09.098-.135.162-.072.483.473 1.853 1.741 2.64 1.741.966 0 4.761-2.843 5.883-2.38 1.122.463 3.393 5.305 3.393 5.305l-1.48 1.65-1.913-.927-.362-3.648s-3.682 1.683-5.522 1.072l-1.034.773s-.996-1.753-1.388-2.29c-.266-.363-.351-.91-.379-1.224Z" clip-rule="evenodd"/><path fill="#FECA00" fill-rule="evenodd" d="m12.295 10.125-.63.339.12-.718-.51-.51.705-.104.315-.653.315.653.704.105-.51.509.12.718-.63-.34Zm5.345-4.287a.408.408 0 0 1 .816 0V7.46a.408.408 0 1 1-.816 0V5.838Z" clip-rule="evenodd"/><path fill="#F7FCFF" fill-rule="evenodd" d="M31.385 7.11c.086.039.06.153-.038.17-.732.118-2.619.477-3.03 1.061-.512.728.19 5.096-.847 5.696-1.036.6-6.859-.253-6.859-.253l-.79-1.99 1.899-.951 3.671 1.66s.346-3.667 1.903-4.73l-.189-1.19s2.2.179 2.92.167c.483-.007 1.043.213 1.36.36Z" clip-rule="evenodd"/><path fill="#FECA00" fill-rule="evenodd" d="m26.279 6.831.01-.654.622.471.755-.114-.273.586.457.584-.79-.11-.474.476-.215-.654-.75-.29.658-.295Zm1.393 6.384c.191.106.25.335.131.518a.46.46 0 0 1-.608.142l-1.777-1.055a.326.326 0 0 1-.14-.413.42.42 0 0 1 .578-.193l1.816 1.001Z" clip-rule="evenodd"/><path fill="#F7FCFF" fill-rule="evenodd" d="M19.71 22.99c-.082.047-.18-.033-.147-.116.25-.625.842-2.253.479-2.86-.454-.759-5.06-2.403-5.126-3.5-.067-1.099 3.676-5.154 3.676-5.154l2.334.387-.023 1.937-3.454 1.996s3.401 2.1 3.658 3.83l1.253.45s-1.274 1.604-1.622 2.163c-.234.375-.728.696-1.029.867Z" clip-rule="evenodd"/><path fill="#FECA00" fill-rule="evenodd" d="m22.532 19.2.632.334-.77.243-.266.639-.434-.504-.798.06.502-.554-.227-.602.745.161.657-.431-.041.653Zm-7.06-2.236a.466.466 0 0 1-.586-.284.373.373 0 0 1 .244-.47l1.93-.67a.482.482 0 0 1 .543.176c.154.22.06.505-.196.592l-1.935.656Z" clip-rule="evenodd"/><path fill="#FECA00" d="M18.37 11.765c-.14-.043-.214-.182-.167-.31.048-.127.273-.34.413-.296l1.952.606a.25.25 0 0 1 .18.21l.175 1.905c.013.134-.207.242-.355.254-.147.01-.277-.089-.289-.223l-.162-1.637-1.747-.509Z"/><path fill="#FECA00" d="M21.766 10.768c.116-.083.325.013.416.12a.23.23 0 0 1-.047.341l-1.353 1.233c-.117.082-.38-.079-.47-.185-.09-.106-.117-.396 0-.479l1.454-1.03Z"/></g></g></g></g><defs><clipPath id="b"><rect width="36" height="24" x="3" y="2" fill="#fff" rx="2"/></clipPath><filter id="a" width="42" height="30" x="0" y="0" color-interpolation-filters="sRGB" filterUnits="userSpaceOnUse"><feFlood flood-opacity="0" result="BackgroundImageFix"/><feColorMatrix in="SourceAlpha" result="hardAlpha" values="0 0 0 0 0 0 0 0 0 0 0 0 0 0 0 0 0 0 127 0"/><feOffset dy="1"/><feGaussianBlur stdDeviation="1"/><feColorMatrix values="0 0 0 0 0.0627451 0 0 0 0 0.0941176 0 0 0 0 0.156863 0 0 0 0.06 0"/><feBlend in2="BackgroundImageFix" result="effect1_dropShadow_91_27567"/><feColorMatrix in="SourceAlpha" result="hardAlpha" values="0 0 0 0 0 0 0 0 0 0 0 0 0 0 0 0 0 0 127 0"/><feOffset dy="1"/><feGaussianBlur stdDeviation="1.5"/><feColorMatrix values="0 0 0 0 0.0627451 0 0 0 0 0.0941176 0 0 0 0 0.156863 0 0 0 0.1 0"/><feBlend in2="effect1_dropShadow_91_27567" result="effect2_dropShadow_91_27567"/><feBlend in="SourceGraphic" in2="effect2_dropShadow_91_27567" result="shape"/></filter></defs></svg>