<svg xmlns="http://www.w3.org/2000/svg" width="42" height="30" fill="none"><g filter="url(#a)"><g clip-path="url(#b)"><mask id="c" width="36" height="24" x="3" y="2" maskUnits="userSpaceOnUse" style="mask-type:alpha"><path fill="#fff" d="M3 2h36v24H3z"/></mask><g mask="url(#c)"><path fill="#F7FCFF" fill-rule="evenodd" d="M3 2h36v24H3V2Z" clip-rule="evenodd"/><path fill="#F7FCFF" stroke="#E31D1C" stroke-width="2.7" d="m-.186 3.21-1.99-1.068v24.516l1.99-1.069 18.605-10 2.212-1.19-2.212-1.188-18.605-10ZM42.43 3.2l1.969-1.016v24.432l-1.97-1.017-19.37-10-2.324-1.2 2.323-1.199 19.372-10Z"/><path fill="#E31D1C" fill-rule="evenodd" d="M18.384 6.703s-.966 3.798 2.37 5.257c0 0 3.201-1.551 2.482-5.257 0 0-1.375-.41-2.469-.41-1.093 0-2.383.41-2.383.41Z" clip-rule="evenodd"/><path fill="#FFD100" fill-rule="evenodd" d="M18.73 7.499s.357-.14.534 0c.176.14.32-.012.32-.097 0-.084.281-.375.281-.14 0 .237-.087.37.16.37.246 0 1.356-.326 1.622-.23.266.097.47.073.402-.066-.068-.138-.241-.224-.576-.149-.335.076-.256.15-.546.15-.289 0-.61-.074-.61-.074s.09-.124.42-.036c.33.088.786-.11.91-.11s.465-.005.499.07c.033.076.24.145.082.215-.157.07-.415.115-.237.205.178.09.587.072.607.166.02.094.214.234.136.234-.078 0-.219.132-.35.092-.13-.04-.146-.076-.02-.108.125-.033.124-.17.02-.17s-.053.048-.289 0-.548-.101-.53 0c.02.101.173.257-.11.278-.284.02-.417.104-.472.037-.056-.067-.253-.157-.098-.185.155-.029.304.097.36.076.055-.02.182-.032.076-.119s-.28-.138-.119-.203c.162-.066.034-.067-.275.068-.308.135-.48.25-.751.234-.272-.016-.373.005-.46-.016-.088-.022-.512.242-.634.175-.123-.067-.517-.093-.446-.175.071-.083.166-.125.273-.083.106.043.211.085.283.043.072-.043.279-.188.227-.217-.053-.03-.002-.127-.297-.127-.294 0-.398.109-.468.04s.076-.148.076-.148Zm.295 1.247s.313-.123.468 0c.156.124.283-.01.283-.084 0-.075.246-.33.246-.123 0 .207-.076.325.14.325.217 0 1.193-.287 1.427-.202.234.084.413.063.353-.058-.06-.122-.212-.197-.506-.131-.295.066-.225.13-.48.13-.254 0-.537-.064-.537-.064s.08-.109.37-.031c.29.077.69-.096.8-.096.109 0 .408-.005.438.06.03.067.21.128.073.19-.138.062-.366.1-.21.18.157.079.517.064.535.146.017.082.188.205.12.205-.07 0-.193.116-.308.081-.115-.035-.129-.066-.018-.095.11-.029.109-.149.018-.149s-.047.042-.254 0c-.208-.042-.483-.089-.466 0 .017.09.152.226-.098.244-.249.018-.366.091-.414.032-.049-.058-.222-.137-.086-.162.137-.025.267.085.316.067.05-.018.16-.028.067-.104-.093-.077-.247-.122-.104-.18.142-.057.03-.058-.242.06-.271.12-.422.22-.66.206-.24-.014-.328.005-.405-.014-.077-.02-.45.213-.557.154-.108-.059-.455-.082-.392-.154.062-.072.146-.11.24-.072.093.037.186.074.248.037.063-.037.245-.165.2-.19-.046-.026-.002-.112-.261-.112s-.35.095-.412.035c-.061-.06.068-.13.068-.13Zm.416 1.267s.238-.093.356 0c.117.094.214-.008.214-.064s.187-.25.187-.093-.058.246.106.246.904-.217 1.082-.153c.177.064.313.048.268-.044-.046-.092-.161-.15-.385-.1-.223.051-.17.1-.363.1-.193 0-.408-.049-.408-.049s.06-.083.28-.024c.221.059.525-.073.608-.073.082 0 .31-.004.332.047.023.05.16.096.055.143-.104.047-.277.076-.158.136.118.06.392.049.405.111.013.063.142.156.09.156-.052 0-.145.088-.233.061-.087-.027-.098-.05-.014-.072.084-.021.083-.113.014-.113-.07 0-.035.032-.193 0-.157-.032-.365-.067-.353 0 .013.068.115.171-.074.185-.189.014-.277.07-.314.025-.037-.045-.169-.104-.065-.123.103-.02.202.065.24.05.037-.013.121-.02.05-.079-.07-.058-.187-.092-.079-.135.108-.044.023-.045-.183.045s-.32.167-.501.156c-.181-.01-.249.004-.307-.01-.058-.015-.341.16-.423.116-.081-.045-.344-.062-.297-.117.048-.055.111-.083.182-.055.07.029.141.057.189.029.048-.029.186-.126.15-.145-.034-.02 0-.085-.197-.085-.196 0-.265.073-.312.027-.046-.046.051-.099.051-.099Z" clip-rule="evenodd"/></g></g></g><defs><clipPath id="b"><rect width="36" height="24" x="3" y="2" fill="#fff" rx="2"/></clipPath><filter id="a" width="42" height="30" x="0" y="0" color-interpolation-filters="sRGB" filterUnits="userSpaceOnUse"><feFlood flood-opacity="0" result="BackgroundImageFix"/><feColorMatrix in="SourceAlpha" result="hardAlpha" values="0 0 0 0 0 0 0 0 0 0 0 0 0 0 0 0 0 0 127 0"/><feOffset dy="1"/><feGaussianBlur stdDeviation="1"/><feColorMatrix values="0 0 0 0 0.0627451 0 0 0 0 0.0941176 0 0 0 0 0.156863 0 0 0 0.06 0"/><feBlend in2="BackgroundImageFix" result="effect1_dropShadow_91_27322"/><feColorMatrix in="SourceAlpha" result="hardAlpha" values="0 0 0 0 0 0 0 0 0 0 0 0 0 0 0 0 0 0 127 0"/><feOffset dy="1"/><feGaussianBlur stdDeviation="1.5"/><feColorMatrix values="0 0 0 0 0.0627451 0 0 0 0 0.0941176 0 0 0 0 0.156863 0 0 0 0.1 0"/><feBlend in2="effect1_dropShadow_91_27322" result="effect2_dropShadow_91_27322"/><feBlend in="SourceGraphic" in2="effect2_dropShadow_91_27322" result="shape"/></filter></defs></svg>