<svg xmlns="http://www.w3.org/2000/svg" width="42" height="30" fill="none"><g filter="url(#a)"><g clip-path="url(#b)"><mask id="c" width="36" height="24" x="3" y="2" maskUnits="userSpaceOnUse" style="mask-type:alpha"><path fill="#fff" d="M3 2h36v24H3z"/></mask><g mask="url(#c)"><path fill="#E31D1C" fill-rule="evenodd" d="M3 2v24h36V2H3Z" clip-rule="evenodd"/><mask id="d" width="36" height="24" x="3" y="2" maskUnits="userSpaceOnUse" style="mask-type:alpha"><path fill="#fff" fill-rule="evenodd" d="M3 2v24h36V2H3Z" clip-rule="evenodd"/></mask><g mask="url(#d)"><path fill="#FFC84A" fill-rule="evenodd" d="m21.01 11.96.056.006a7.05 7.05 0 0 1 .324-.822c.232-.482.9-.752.9-.752s-.33.331-.417.856a6.665 6.665 0 0 0-.078.853l.047.013c.116-.177.31-.459.531-.717.356-.418 1.079-.537 1.079-.537s-.411.25-.639.741a6.958 6.958 0 0 0-.298.78l.07.036c.16-.15.409-.372.675-.57.453-.336 1.187-.308 1.187-.308s-.464.162-.81.595a7.43 7.43 0 0 0-.469.67l.073.06a8.61 8.61 0 0 1 .765-.398c.526-.237 1.235-.062 1.235-.062s-.493.065-.94.418c-.228.18-.44.377-.593.527l.062.08c.215-.065.51-.148.807-.208.575-.117 1.214.205 1.214.205s-.496-.043-1.025.204a8.341 8.341 0 0 0-.669.353c.02.042.037.084.054.126.22-.019.502-.037.78-.036.59 0 1.131.442 1.131.442s-.472-.14-1.05-.006a8.65 8.65 0 0 0-.69.194c.009.052.017.104.023.158.209.025.462.061.71.113.574.119.99.657.99.657s-.425-.232-1.022-.216a8.69 8.69 0 0 0-.67.045 2.85 2.85 0 0 1-.02.172c.187.067.404.15.613.246.525.239.782.85.782.85s-.35-.315-.933-.43a8.557 8.557 0 0 0-.608-.093c-.024.065-.05.13-.078.192.155.097.328.213.492.336.451.337.547.985.547.985s-.26-.378-.8-.605a7.974 7.974 0 0 0-.532-.2 3.37 3.37 0 0 1-.138.183c.118.12.247.256.366.397.354.42.283 1.07.283 1.07s-.157-.42-.626-.75a7.449 7.449 0 0 0-.441-.286 3.064 3.064 0 0 1-.189.152c.08.137.162.29.236.445.23.483-.016 1.098-.016 1.098s-.039-.441-.404-.862a6.818 6.818 0 0 0-.332-.354 4.44 4.44 0 0 1-.241.116c.04.143.08.301.111.46.101.516-.294 1.067-.294 1.067s.074-.438-.175-.92a6.248 6.248 0 0 0-.229-.404c-.089.024-.18.044-.27.062.002.145 0 .303-.009.46-.032.523-.556.98-.556.98s.183-.412.062-.932a5.904 5.904 0 0 0-.12-.438 4.13 4.13 0 0 1-.272.002 5.868 5.868 0 0 1-.134.45c-.174.5-.807.831-.807.831s.29-.36.314-.89c.007-.156.006-.311.002-.454a4.046 4.046 0 0 1-.269-.057 6.254 6.254 0 0 1-.247.416c-.296.453-.997.65-.997.65s.373-.294.532-.806c.048-.155.088-.313.12-.457a3.89 3.89 0 0 1-.238-.11 6.857 6.857 0 0 1-.357.368c-.403.382-1.136.433-1.136.433s.439-.21.722-.678c.092-.15.174-.305.245-.446a3.6 3.6 0 0 1-.184-.144 7.476 7.476 0 0 1-.473.299c-.495.284-1.22.176-1.22.176s.482-.11.885-.503c.137-.134.267-.274.378-.401a3.356 3.356 0 0 1-.136-.174 7.63 7.63 0 0 1-.568.209c-.554.178-1.233-.072-1.233-.072s.498-.011.99-.313c.181-.112.356-.233.504-.341a3.01 3.01 0 0 1-.077-.18 8.55 8.55 0 0 1-.646.097c-.586.063-1.184-.317-1.184-.317s.488.089 1.043-.107a8.28 8.28 0 0 0 .627-.253 2.984 2.984 0 0 1-.022-.16 8.776 8.776 0 0 1-.71-.046c-.585-.065-1.062-.562-1.062-.562s.45.191 1.041.12c.26-.03.52-.077.727-.12a2.98 2.98 0 0 1 .018-.147 8.72 8.72 0 0 1-.73-.199c-.553-.18-.892-.76-.892-.76s.39.276.984.326c.287.024.575.029.798.027.015-.04.03-.078.047-.117a8.44 8.44 0 0 1-.706-.36c-.494-.286-.677-.919-.677-.919s.31.347.876.514c.298.088.604.154.828.197.017-.025.035-.05.054-.074a7.952 7.952 0 0 1-.63-.534c-.402-.385-.408-1.038-.408-1.038s.206.403.71.688c.283.158.58.296.79.386.02-.02.043-.038.065-.057a7.446 7.446 0 0 1-.505-.678c-.294-.454-.134-1.092-.134-1.092s.099.434.518.812c.25.224.522.428.703.557l.062-.034a7.034 7.034 0 0 1-.333-.789c-.171-.501.146-1.09.146-1.09s-.014.442.3.894c.193.28.418.543.561.704.014-.005.028-.01.042-.013a6.79 6.79 0 0 1-.113-.863c-.03-.523.438-1.027.438-1.027s-.134.426.047.932c.113.316.261.624.357.81l.054-.006a6.8 6.8 0 0 1 .109-.871c.103-.516.687-.913.687-.913s-.239.389-.19.918c.03.33.096.66.142.86Z" clip-rule="evenodd"/><path fill="#F7FCFF" fill-rule="evenodd" d="m2.109 15.92 3.074-1.109a1.562 1.562 0 0 1 1.072.004l4.36 1.613c.374.139.787.128 1.155-.028l3.576-1.526c.385-.164.82-.167 1.207-.008l3.74 1.536a1.56 1.56 0 0 0 1.18.002l3.818-1.547a1.562 1.562 0 0 1 1.18.002l3.769 1.547c.372.152.788.156 1.162.01l4.078-1.596a1.562 1.562 0 0 1 1.045-.034l3.547 1.134v10.014H2.009l.1-10.014Z" clip-rule="evenodd"/><mask id="e" width="39" height="12" x="2" y="14" maskUnits="userSpaceOnUse" style="mask-type:alpha"><path fill="#fff" fill-rule="evenodd" d="m2.109 15.92 3.074-1.109a1.562 1.562 0 0 1 1.072.004l4.36 1.613c.374.139.787.128 1.155-.028l3.576-1.526c.385-.164.82-.167 1.207-.008l3.74 1.536a1.56 1.56 0 0 0 1.18.002l3.818-1.547a1.562 1.562 0 0 1 1.18.002l3.769 1.547c.372.152.788.156 1.162.01l4.078-1.596a1.562 1.562 0 0 1 1.045-.034l3.547 1.134v10.014H2.009l.1-10.014Z" clip-rule="evenodd"/></mask><g mask="url(#e)"><path stroke="#015989" stroke-width="2" d="m2.109 18.245 3.074-1.108a1.562 1.562 0 0 1 1.072.004l4.36 1.613c.374.138.787.128 1.155-.029l3.576-1.526c.385-.164.82-.167 1.207-.008l3.74 1.536c.378.155.801.156 1.18.003l3.818-1.548a1.562 1.562 0 0 1 1.18.003l3.769 1.546c.372.153.788.156 1.162.01l4.078-1.596c.334-.13.703-.142 1.045-.033l3.547 1.134M2.109 21.575l3.074-1.11a1.562 1.562 0 0 1 1.072.005l4.36 1.613c.374.138.787.128 1.155-.029l3.576-1.525a1.56 1.56 0 0 1 1.207-.009l3.74 1.536c.378.155.801.156 1.18.003l3.818-1.548a1.562 1.562 0 0 1 1.18.003l3.769 1.547c.372.152.788.155 1.162.009l4.078-1.596c.334-.13.703-.142 1.045-.033l3.547 1.134"/><path fill="#015989" fill-rule="evenodd" d="m2.109 24.227 1.7-.613a5.562 5.562 0 0 1 3.817.015l2.989 1.106c.374.139.787.129 1.155-.028l2.036-.869a5.562 5.562 0 0 1 4.296-.029l2.19.9c.379.155.802.156 1.181.003l2.306-.935a5.562 5.562 0 0 1 4.2.009l2.26.927c.373.153.789.156 1.163.01l2.755-1.078a5.562 5.562 0 0 1 3.72-.12l2.195.702v3.315H2.315l-.206-3.315Z" clip-rule="evenodd"/></g><path fill="#FFC84A" fill-rule="evenodd" d="M14.002 5.418h2.094c.527 0 1.716-.716 2.404-.477s1.846 1.01 1.846 1.01 1.912-1.342 3.052-1.342c1.14 0 3.198-.149 3.198-.149s-.483 1.113-1.84 1.302c-1.358.189-2.982 1.112-2.982 1.112h2.206c.337 0 .776.451.776.451s-.906.547-1.358.547h-.951s-.96.733-2.148.577c-1.187-.156-2.14-1.124-2.14-1.124s-1.038-.132-1.038-.291c0 0-.123-.05-.18-.05-.326.009-.544.06-.653.05.597-.208.833-.39.833-.39s.41-.344.725-.344c.313 0 1.361.574 1.361.574l.25-.23-1.298-.882c-2.647.247-4.157-.344-4.157-.344Z" clip-rule="evenodd"/></g></g></g></g><defs><clipPath id="b"><rect width="36" height="24" x="3" y="2" fill="#fff" rx="2"/></clipPath><filter id="a" width="42" height="30" x="0" y="0" color-interpolation-filters="sRGB" filterUnits="userSpaceOnUse"><feFlood flood-opacity="0" result="BackgroundImageFix"/><feColorMatrix in="SourceAlpha" result="hardAlpha" values="0 0 0 0 0 0 0 0 0 0 0 0 0 0 0 0 0 0 127 0"/><feOffset dy="1"/><feGaussianBlur stdDeviation="1"/><feColorMatrix values="0 0 0 0 0.0627451 0 0 0 0 0.0941176 0 0 0 0 0.156863 0 0 0 0.06 0"/><feBlend in2="BackgroundImageFix" result="effect1_dropShadow_91_27070"/><feColorMatrix in="SourceAlpha" result="hardAlpha" values="0 0 0 0 0 0 0 0 0 0 0 0 0 0 0 0 0 0 127 0"/><feOffset dy="1"/><feGaussianBlur stdDeviation="1.5"/><feColorMatrix values="0 0 0 0 0.0627451 0 0 0 0 0.0941176 0 0 0 0 0.156863 0 0 0 0.1 0"/><feBlend in2="effect1_dropShadow_91_27070" result="effect2_dropShadow_91_27070"/><feBlend in="SourceGraphic" in2="effect2_dropShadow_91_27070" result="shape"/></filter></defs></svg>