<svg width="42" height="30" viewBox="0 0 42 30" fill="none" xmlns="http://www.w3.org/2000/svg"><g id="Country=LR - Liberia, Size=sm (36x24)" filter="url(#filter0_dd_91_26712)"><g clip-path="url(#clip0_91_26712)"><g id="flag"><mask id="mask0_91_26712" style="mask-type:alpha" maskUnits="userSpaceOnUse" x="3" y="2" width="36" height="24"><rect id="mask" x="3" y="2" width="36" height="24" fill="white"/></mask><g mask="url(#mask0_91_26712)"><g id="contents"><path id="background" fill-rule="evenodd" clip-rule="evenodd" d="M3 2H39V26H3V2Z" fill="#F7FCFF"/><g id="mark"><rect id="lines" x="3.03027" y="7.5" width="36" height="3" fill="#E31D1C"/><path id="lines_2" fill-rule="evenodd" clip-rule="evenodd" d="M3 2H39V5H3V2Z" fill="#E31D1C"/><rect id="lines_3" x="2.93359" y="13" width="36" height="3" fill="#E31D1C"/><rect id="lines_4" x="3.12549" y="18.3999" width="36" height="3" fill="#E31D1C"/><rect id="lines_5" x="3.11426" y="23.5" width="36" height="3" fill="#E31D1C"/><path id="square" fill-rule="evenodd" clip-rule="evenodd" d="M3 2H21V16H3V2Z" fill="#3D58DB"/><path id="Star 5" fill-rule="evenodd" clip-rule="evenodd" d="M12.149 11.2131L8.86249 13.2394L9.91266 9.7688L7.5 7.55178L10.7669 7.43191L12.149 4L13.5312 7.43191H16.7925L14.3854 9.7688L15.5909 13.0346L12.149 11.2131Z" fill="#F7FCFF"/></g></g></g></g></g></g><defs><filter id="filter0_dd_91_26712" x="0" y="0" width="42" height="30" filterUnits="userSpaceOnUse" color-interpolation-filters="sRGB"><feFlood flood-opacity="0" result="BackgroundImageFix"/><feColorMatrix in="SourceAlpha" values="0 0 0 0 0 0 0 0 0 0 0 0 0 0 0 0 0 0 127 0" result="hardAlpha"/><feOffset dy="1"/><feGaussianBlur stdDeviation="1"/><feColorMatrix values="0 0 0 0 0.0627451 0 0 0 0 0.0941176 0 0 0 0 0.156863 0 0 0 0.06 0"/><feBlend in2="BackgroundImageFix" result="effect1_dropShadow_91_26712"/><feColorMatrix in="SourceAlpha" values="0 0 0 0 0 0 0 0 0 0 0 0 0 0 0 0 0 0 127 0" result="hardAlpha"/><feOffset dy="1"/><feGaussianBlur stdDeviation="1.5"/><feColorMatrix values="0 0 0 0 0.0627451 0 0 0 0 0.0941176 0 0 0 0 0.156863 0 0 0 0.1 0"/><feBlend in2="effect1_dropShadow_91_26712" result="effect2_dropShadow_91_26712"/><feBlend in="SourceGraphic" in2="effect2_dropShadow_91_26712" result="shape"/></filter><clipPath id="clip0_91_26712"><rect x="3" y="2" width="36" height="24" rx="2" fill="white"/></clipPath></defs></svg>