<svg xmlns="http://www.w3.org/2000/svg" width="42" height="30" fill="none"><g filter="url(#a)"><g clip-path="url(#b)"><path fill="#fff" d="M3 2h36v24H3z"/><path fill="#DFDFDF" d="M15.477 23.229c-.75.201-1.829.614-2.26.845-.14.08-.127.171.088.513.153.222.305.413.33.413.039 0 .458-.15.928-.342.47-.181 1.07-.42 1.345-.463.211-.033.404-.064.523-.103.048.093.019.041.106.186.126.209.048.204.265.261.23.06.795-.183.795-.183.66-.181 1.028-.201 3.403-.201 2.374 0 2.742.02 3.403.211 0 0 .53.143.6.16.067.018.103.031.175.018.065-.013.133-.092.163-.14 0 0 .146-.278.184-.375.126.048.357.11.579.166.267.07.863.282 1.333.463.47.191.889.342.927.342.025 0 .178-.191.33-.413.305-.473.33-.432-.774-.885-1.473-.604-2.946-.876-3.086-.584-.025.056-.047.088-.081.16-.148-.027-.535-.1-.922-.15-1.193-.17-4.47-.17-5.663 0-.387.05-.649.135-.867.183-.124-.197-.098-.119-.124-.174-.101-.201-.773-.17-1.7.092Z"/><path fill="#171796" d="M16.556 10.793c-.026.328.05.56.251.736.09.084.167.184.167.184s-.103.1-.188.176a.825.825 0 0 0-.282.644c0 .248.081.42.299.643 0 0 .183.082.179.184-.005.102-.196.204-.196.204-.392.408-.38.876.03 1.264l.175.172h8.027l.196-.196c.38-.38.38-.792.004-1.228 0 0-.189-.12-.192-.22-.003-.1.18-.2.18-.2.392-.44.383-.843-.022-1.267-.183-.188-.188-.224-.043-.312.235-.148.38-.648.273-.952-.157-.456-.835-.76-1.249-.56-.077.036-.23.136-.345.22-.115.088-.222.156-.243.156-.017 0-.12-.072-.226-.16-.414-.332-.912-.372-1.325.004 0 0-.06.201-.146.208-.087.007-.21-.18-.21-.18-.421-.372-.95-.356-1.38.036 0 0-.06.164-.158.144-.098-.02-.178-.212-.178-.212-.251-.216-.41-.212-.7-.216-.167-.002-.47.034-.652.155-.183.121-.15.267-.193.257-.105-.025-.221-.176-.221-.176-.41-.328-.738-.384-1.134-.188-.312.152-.474.376-.5.68Z"/><path fill="#D42E12" d="M16.82 16.492s.164.07.158.161c-.005.091-.179.181-.179.181-.098.099-.205.24-.239.311-.136.303-.034.709.235.941.162.146.166.205.013.378-.069.075-.15.181-.18.236-.32.56.158 1.26.866 1.26a.91.91 0 0 0 .687-.272c.153-.15.235-.153.371-.02.2.205.465.331.687.331.26 0 .422-.075.686-.307 0 0 .105-.182.2-.18.096 0 .184.184.184.184.397.394.798.406 1.33.032 0 0 .118-.152.218-.15.1.002.188.157.188.157.234.19.41.264.64.264.23 0 .4-.082.67-.326 0 0 .138-.186.221-.197.083-.012.17.141.17.141.329.272.508.359.747.359.247 0 .422-.075.67-.28.23-.193.354-.417.324-.602-.03-.2-.226-.567-.371-.693 0 0-.146-.011-.124-.11.022-.1.192-.2.192-.2.418-.454.422-.804.008-1.253 0 0-.172-.088-.17-.189.002-.1.179-.2.179-.2.4-.437.396-.843-.009-1.24L24.975 15l-3.992.004-3.992.004-.18.185c-.417.429-.413.866.01 1.299Z"/><path fill="#E9D315" fill-rule="evenodd" d="M23.048 15.622c.194 0 .354.117.388.27l.006.06v.615l.828-.39c.183-.087.411-.026.51.134.087.143.042.318-.097.416l-.057.032-.694.328.694.327.057.033c.14.097.184.272.096.415-.098.16-.326.221-.51.135l-.827-.39v.684c0 .183-.176.33-.394.33-.193 0-.354-.116-.387-.27l-.006-.06v-.601l-.651.307c-.183.086-.412.026-.51-.135-.087-.143-.043-.317.097-.415l.057-.033.693-.327-.693-.328-.057-.033a.305.305 0 0 1-.097-.415c.099-.16.327-.22.51-.134l.65.307v-.532c0-.182.177-.33.394-.33Zm-3.824 0c.193 0 .354.117.387.27l.007.06v.615l.827-.39c.183-.087.412-.026.51.134.088.143.043.318-.097.416l-.056.032-.694.328.694.327.056.033c.14.097.185.272.097.415-.098.16-.326.221-.51.135l-.827-.39v.684c0 .183-.176.33-.394.33-.193 0-.354-.116-.387-.27l-.007-.06v-.601l-.65.307c-.183.086-.412.026-.51-.135-.088-.143-.043-.317.097-.415l.056-.033.694-.327-.694-.328-.056-.033c-.14-.097-.185-.272-.097-.415.098-.16.326-.22.51-.134l.65.307v-.532c0-.182.177-.33.394-.33Z" clip-rule="evenodd"/><path stroke="#000" stroke-width=".3" d="M15.228 14.857h.15v.066a.243.243 0 0 1-.15-.066v.685a4053.981 4053.981 0 0 0 .01 4.81.382.382 0 0 0 .115.31.798.798 0 0 0 .111.089l.048.032.07.048c.096.068.265.123.463.168.206.048.467.09.767.121.6.063 1.365.087 2.177.03.692.006 1.033.237 1.266.462.061.058.116.117.17.176l.002.003c.052.056.105.114.16.164.111.104.247.195.434.195s.321-.091.43-.197c.054-.052.106-.111.156-.168l.003-.004c.05-.058.1-.115.157-.172a1.39 1.39 0 0 1 .435-.312 1.88 1.88 0 0 1 .771-.147 24.72 24.72 0 0 0 2.292-.056c.293-.025.542-.057.735-.096.184-.038.343-.087.44-.16l.008-.006a.683.683 0 0 0 .285-.325.68.68 0 0 0 .039-.33V8.85H15.228v6.007Z"/><path fill="#fff" d="M19.727 11.866c-.302.5-.315.724-.064 1.124.196.308.426.503.74.628.821.33 1.872.087 2.284-.529.255-.378.226-1.009-.055-1.284l-.077-.074-.072.218c-.102.31-.204.468-.408.634-.383.311-.91.381-1.455.19-.42-.151-.591-.36-.748-.94l-.039-.143-.106.176Z"/><path fill="#FF2500" fill-rule="evenodd" d="M23.788 5.5c0 .866-.701 1.5-1.688 1.5-.986 0-1.682-.634-1.682-1.5 0-.87.696-1.5 1.682-1.5.987 0 1.688.63 1.688 1.5Zm-9.283 1.453.374-.805h1.397l.374.805h.63l-1.402-2.906h-.595l-1.402 2.906h.624Zm-4.167 0v-2.02l1.005 2.02h.44l.98-2.02v2.02h.595V4.047h-.69l-1.1 2.234-1.11-2.234H9.75v2.906h.588Zm5.237-2.305-.5 1.074h.999l-.5-1.074Zm3.459 2.305v-1.16l1.325-1.746h-.654l-.963 1.302-.969-1.302h-.671l1.32 1.746v1.16h.611ZM22.1 6.56c-.642 0-1.058-.445-1.058-1.06s.416-1.06 1.058-1.06c.642 0 1.064.445 1.064 1.06s-.422 1.06-1.064 1.06Zm3.697-2.077v2.47h-.618v-2.47h-1.212v-.436h3.043v.436h-1.213Zm3.4 2.47v-2.47h1.212v-.436h-3.043v.436h1.213v2.47h.618Zm4.178-.44v.44h-2.383V4.047h2.383v.436h-1.777v.766h1.61v.43h-1.61v.834h1.777Z" clip-rule="evenodd"/><path fill="#DFDFDF" fill-rule="evenodd" stroke="#000" stroke-width=".3" d="M33.123 20.8s-.382-.67.585-1c.968-.33 1.44.1 1.867.501.426.4.379 1.609.379 1.609l-1.053 1.497-3.23.593-1.287-.593-1.509-2.607.113-2.558s.152-.98.152-1.183c0-.203.701-1.776.701-1.776l.664-.584 1.878-.888.884-.393 1.098-1.233-.122-.982-1.25 1.417h-1.06l-1.104.41-.445.373-.543.015-.212-.388.592-.845.895-.8-.412-.678.61-.247-.118-.373.677.373.51-.373.097-.343-1.166-.556s1.14-.425 1.678-.381c.537.044 1.044.606 1.044.606l1.539-.225s-.412.9-.279.9h.969l-.311 1.115h1.191l-.88.86.687.335-1.046.632 1.046.626-.972.568.548.941.862-.466.485.584-.73 1.44-1.191.75-1.135.255-1.11.257-.442.257-.275-.985-1.876 1.143-.975 1.794.287 1.63.688.834 1.267.403 1.653-.276.865-.935.207-.955s-.501-.648-.865-.594c-.363.054-1.12.5-1.12.5Z" clip-rule="evenodd"/><path fill="#000" d="m31.217 14.225-.041.398c1.298.107 2.158.05 2.606-.199l.09-.056-.28-.313c-.273.193-.985.265-2.108.19l-.267-.02Zm-1.505 1.154-.042.398c1.298.107 2.158.05 2.606-.199l.09-.056-.28-.313c-.273.193-.985.265-2.108.19l-.267-.02Zm-.362 1.076-.075.395c.765.114 1.245.062 1.407-.236l.034-.08-.433-.109c-.023.07-.265.113-.76.054l-.173-.024Z"/><path fill="#000" fill-rule="evenodd" d="M31.969 11.5c-.156 0-.282-.112-.282-.25s.126-.25.282-.25c.155 0 .281.112.281.25s-.126.25-.281.25Z" clip-rule="evenodd"/><path fill="#DFDFDF" fill-rule="evenodd" stroke="#000" stroke-width=".3" d="M8.876 20.8s.383-.67-.584-1c-.968-.33-1.44.1-1.867.501-.426.4-.379 1.609-.379 1.609l1.053 1.497 3.23.593 1.287-.593 1.509-2.607-.113-2.558s-.152-.98-.152-1.183c0-.203-.701-1.776-.701-1.776l-.664-.584-1.878-.888-.884-.393-1.098-1.233.122-.982 1.25 1.417h1.06l1.104.41.445.373.543.015.212-.388-.592-.845-.895-.8.412-.678-.61-.247.118-.373-.677.373-.51-.373-.097-.343 1.166-.556s-1.14-.425-1.678-.381c-.537.044-1.044.606-1.044.606l-1.539-.225s.412.9.279.9h-.969l.311 1.115H4.855l.88.86-.687.335 1.046.632-1.046.626.972.568-.547.941-.863-.466-.485.584.73 1.44 1.191.75 1.135.255 1.11.257.442.257.275-.985 1.876 1.143.975 1.794-.287 1.63-.688.834-1.267.403-1.653-.276-.865-.935-.207-.955s.501-.648.865-.594c.363.054 1.12.5 1.12.5Z" clip-rule="evenodd"/><path fill="#000" d="m10.783 14.225.041.398c-1.298.107-2.158.05-2.606-.199l-.09-.056.28-.313c.273.193.985.265 2.108.19l.267-.02Zm1.506 1.154.041.398c-1.299.107-2.158.05-2.606-.199l-.09-.056.28-.313c.273.193.985.265 2.108.19l.267-.02Zm.361 1.076.075.395c-.765.114-1.245.062-1.407-.236l-.034-.08.433-.109c.022.07.265.113.76.054l.173-.024Z"/><path fill="#000" fill-rule="evenodd" d="M10.031 11.5c.156 0 .281-.112.281-.25s-.125-.25-.28-.25c-.156 0-.282.112-.282.25s.126.25.281.25Z" clip-rule="evenodd"/></g></g><defs><clipPath id="b"><rect width="36" height="24" x="3" y="2" fill="#fff" rx="2"/></clipPath><filter id="a" width="42" height="30" x="0" y="0" color-interpolation-filters="sRGB" filterUnits="userSpaceOnUse"><feFlood flood-opacity="0" result="BackgroundImageFix"/><feColorMatrix in="SourceAlpha" result="hardAlpha" values="0 0 0 0 0 0 0 0 0 0 0 0 0 0 0 0 0 0 127 0"/><feOffset dy="1"/><feGaussianBlur stdDeviation="1"/><feColorMatrix values="0 0 0 0 0.0627451 0 0 0 0 0.0941176 0 0 0 0 0.156863 0 0 0 0.06 0"/><feBlend in2="BackgroundImageFix" result="effect1_dropShadow_91_30027"/><feColorMatrix in="SourceAlpha" result="hardAlpha" values="0 0 0 0 0 0 0 0 0 0 0 0 0 0 0 0 0 0 127 0"/><feOffset dy="1"/><feGaussianBlur stdDeviation="1.5"/><feColorMatrix values="0 0 0 0 0.0627451 0 0 0 0 0.0941176 0 0 0 0 0.156863 0 0 0 0.1 0"/><feBlend in2="effect1_dropShadow_91_30027" result="effect2_dropShadow_91_30027"/><feBlend in="SourceGraphic" in2="effect2_dropShadow_91_30027" result="shape"/></filter></defs></svg>