<svg xmlns="http://www.w3.org/2000/svg" width="42" height="30" fill="none"><g filter="url(#a)"><g clip-path="url(#b)"><mask id="c" width="36" height="24" x="3" y="2" maskUnits="userSpaceOnUse" style="mask-type:alpha"><path fill="#fff" d="M3 2h36v24H3z"/></mask><g mask="url(#c)"><path fill="#2E42A5" fill-rule="evenodd" d="M3 2v24h36V2H3Z" clip-rule="evenodd"/><mask id="d" width="36" height="24" x="3" y="2" maskUnits="userSpaceOnUse" style="mask-type:alpha"><path fill="#fff" fill-rule="evenodd" d="M3 2v24h36V2H3Z" clip-rule="evenodd"/></mask><g mask="url(#d)"><path fill="#6DC2FF" stroke="#F7FCFF" stroke-width=".5" d="M32.17 23.714c-1.468 0-2.504-.297-3.244-.823-.738-.525-1.211-1.298-1.512-2.312-.302-1.018-.426-2.262-.472-3.706a90.779 90.779 0 0 1-.02-3.299c.002-.42.005-.851.005-1.291h10.61c.188 2.909.26 5.75-.407 7.878-.34 1.086-.866 1.968-1.652 2.58-.784.611-1.851.973-3.308.973Z"/><mask id="e" width="12" height="12" x="26" y="12" maskUnits="userSpaceOnUse" style="mask-type:alpha"><path fill="#fff" stroke="#fff" stroke-width=".5" d="M32.17 23.714c-1.468 0-2.504-.297-3.244-.823-.738-.525-1.211-1.298-1.512-2.312-.302-1.018-.426-2.262-.472-3.706a90.779 90.779 0 0 1-.02-3.299c.002-.42.005-.851.005-1.291h10.61c.188 2.909.26 5.75-.407 7.878-.34 1.086-.866 1.968-1.652 2.58-.784.611-1.851.973-3.308.973Z"/></mask><g mask="url(#e)"><path fill="#2EBED7" d="M26.549 12h11.329v7.978H26.549z"/><path fill="#A95601" d="M26.4 19.914h11.925V24H26.4z"/><path stroke="#FFC6B5" d="M33.09 15.464s-2.1.423-1.898 0c.203-.424.747-1.95.747-1.95"/><path fill="#FFC6B5" fill-rule="evenodd" d="M33.721 15.766s-.383-.209-.383-.59c0-.38-.934-.521-.276-1.115.66-.594.944-.333.944 0 0 .332.53 1.116.53 1.116l-.815.589Z" clip-rule="evenodd"/><path fill="#272727" fill-rule="evenodd" d="M32.661 12.324h-1.043v.908H29.53v.908h2.087v7.914h1.043V14.14h2.087v-.908H32.66v-.908Z" clip-rule="evenodd"/><path fill="#0C7C38" fill-rule="evenodd" d="M34.908 22.32s-.38-1.56-.38-2.63c0-1.069-.636-1.833-.454-2.398.182-.566.62-1.19.4-1.578-.218-.386.214-.575-.4-.386-.614.188-.78-.189-1.372 0-.593.188-.668 1.077-.668 1.331s.263 1.965.263 2.498c0 .533-.217 3.814.405 3.814.621 0 1.3-.854 1.536-.854.237 0 .67.204.67.204Z" clip-rule="evenodd"/><path stroke="#FF9A06" d="M31.159 18.141c-.379 0-.03.783-.995 1.126-.964.343-1.153.826-.85.826.304 0 2.706 2.398 2.706 2.398l.589-.809v-2.556s-1.071-.985-1.45-.985Z" clip-rule="evenodd"/><path stroke="#979797" d="M33.986 22.158s.45.858 0 .858"/><path stroke="#FFC6B5" d="M33.842 15.79s-.198.963-.575 1.165c-.376.201-1.922.591-1.922.925 0 .333-.154.452-.154.452"/><path fill="#FF9A06" fill-rule="evenodd" d="M33.092 13.802s.378.4.59 1.059c.212.659.826.883.826.575 0-.309.453-1.634 0-1.634h-1.416Z" clip-rule="evenodd"/></g><path fill="#2B409A" d="M3 2h20.25v14H3z"/><mask id="f" width="21" height="14" x="3" y="2" maskUnits="userSpaceOnUse" style="mask-type:alpha"><path fill="#fff" d="M3 2h20.25v14H3z"/></mask><g mask="url(#f)"><path fill="#F7FCFF" d="m.745 15 4.456 1.737 18.15-12.848 2.35-2.582-4.765-.58-7.402 5.536-5.96 3.73L.746 15Z"/><path fill="#F50100" d="m1.355 16.217 2.27 1.008L24.857 1.067H21.67L1.355 16.217Z"/><path fill="#F7FCFF" d="m25.505 15-4.456 1.737L2.899 3.889.549 1.307l4.765-.58 7.402 5.536 5.96 3.73L25.504 15Z"/><path fill="#F50100" d="m25.353 15.873-2.27 1.008-9.041-6.918-2.68-.773L.322 1.316H3.51l11.033 7.688 2.93.926 7.88 5.943Z"/><mask id="g" width="24" height="18" x="1" y="0" fill="#000" maskUnits="userSpaceOnUse"><path fill="#fff" d="M1 0h24v18H1z"/><path fill-rule="evenodd" d="M14.233 2h-2.25v6H3v2h8.983v6h2.25v-6h9.017V8h-9.017V2Z" clip-rule="evenodd"/></mask><path fill="#F50100" fill-rule="evenodd" d="M14.233 2h-2.25v6H3v2h8.983v6h2.25v-6h9.017V8h-9.017V2Z" clip-rule="evenodd"/><path fill="#F7FCFF" d="M11.983 2V.5h-1.5V2h1.5Zm2.25 0h1.5V.5h-1.5V2Zm-2.25 6v1.5h1.5V8h-1.5ZM3 8V6.5H1.5V8H3Zm0 2H1.5v1.5H3V10Zm8.983 0h1.5V8.5h-1.5V10Zm0 6h-1.5v1.5h1.5V16Zm2.25 0v1.5h1.5V16h-1.5Zm0-6V8.5h-1.5V10h1.5Zm9.017 0v1.5h1.5V10h-1.5Zm0-2h1.5V6.5h-1.5V8Zm-9.017 0h-1.5v1.5h1.5V8Zm-2.25-4.5h2.25v-3h-2.25v3Zm1.5 4.5V2h-3v6h3ZM3 9.5h8.983v-3H3v3Zm1.5.5V8h-3v2h3Zm7.483-1.5H3v3h8.983v-3Zm1.5 7.5v-6h-3v6h3Zm.75-1.5h-2.25v3h2.25v-3Zm-1.5-4.5v6h3v-6h-3ZM23.25 8.5h-9.017v3h9.017v-3Zm-1.5-.5v2h3V8h-3Zm-7.517 1.5h9.017v-3h-9.017v3Zm-1.5-7.5v6h3V2h-3Z" mask="url(#g)"/></g></g></g></g></g><defs><clipPath id="b"><rect width="36" height="24" x="3" y="2" fill="#fff" rx="2"/></clipPath><filter id="a" width="42" height="30" x="0" y="0" color-interpolation-filters="sRGB" filterUnits="userSpaceOnUse"><feFlood flood-opacity="0" result="BackgroundImageFix"/><feColorMatrix in="SourceAlpha" result="hardAlpha" values="0 0 0 0 0 0 0 0 0 0 0 0 0 0 0 0 0 0 127 0"/><feOffset dy="1"/><feGaussianBlur stdDeviation="1"/><feColorMatrix values="0 0 0 0 0.0627451 0 0 0 0 0.0941176 0 0 0 0 0.156863 0 0 0 0.06 0"/><feBlend in2="BackgroundImageFix" result="effect1_dropShadow_91_26328"/><feColorMatrix in="SourceAlpha" result="hardAlpha" values="0 0 0 0 0 0 0 0 0 0 0 0 0 0 0 0 0 0 127 0"/><feOffset dy="1"/><feGaussianBlur stdDeviation="1.5"/><feColorMatrix values="0 0 0 0 0.0627451 0 0 0 0 0.0941176 0 0 0 0 0.156863 0 0 0 0.1 0"/><feBlend in2="effect1_dropShadow_91_26328" result="effect2_dropShadow_91_26328"/><feBlend in="SourceGraphic" in2="effect2_dropShadow_91_26328" result="shape"/></filter></defs></svg>