<svg xmlns="http://www.w3.org/2000/svg" width="42" height="30" fill="none"><g filter="url(#a)"><g clip-path="url(#b)"><mask id="c" width="36" height="24" x="3" y="2" maskUnits="userSpaceOnUse" style="mask-type:alpha"><path fill="#fff" d="M3 2h36v24H3z"/></mask><g mask="url(#c)"><path fill="#2E42A5" fill-rule="evenodd" d="M3 2v24h36V2H3Z" clip-rule="evenodd"/><mask id="d" width="36" height="24" x="3" y="2" maskUnits="userSpaceOnUse" style="mask-type:alpha"><path fill="#fff" fill-rule="evenodd" d="M3 2v24h36V2H3Z" clip-rule="evenodd"/></mask><g mask="url(#d)"><path fill="#2B409A" d="M3 2h20.25v14H3z"/><mask id="e" width="21" height="14" x="3" y="2" maskUnits="userSpaceOnUse" style="mask-type:alpha"><path fill="#fff" d="M3 2h20.25v14H3z"/></mask><g mask="url(#e)"><path fill="#F7FCFF" d="m.745 15 4.456 1.737 18.15-12.848 2.35-2.582-4.765-.58-7.402 5.536-5.96 3.73L.746 15Z"/><path fill="#F50100" d="m1.355 16.217 2.27 1.008L24.857 1.067H21.67L1.355 16.217Z"/><path fill="#F7FCFF" d="m25.505 15-4.456 1.737L2.899 3.889.549 1.307l4.765-.58 7.402 5.536 5.96 3.73L25.504 15Z"/><path fill="#F50100" d="m25.353 15.873-2.27 1.008-9.041-6.918-2.68-.773L.322 1.316H3.51l11.033 7.688 2.93.926 7.88 5.943Z"/><mask id="f" width="24" height="18" x="1" y="0" fill="#000" maskUnits="userSpaceOnUse"><path fill="#fff" d="M1 0h24v18H1z"/><path fill-rule="evenodd" d="M14.233 2h-2.25v6H3v2h8.983v6h2.25v-6h9.017V8h-9.017V2Z" clip-rule="evenodd"/></mask><path fill="#F50100" fill-rule="evenodd" d="M14.233 2h-2.25v6H3v2h8.983v6h2.25v-6h9.017V8h-9.017V2Z" clip-rule="evenodd"/><path fill="#F7FCFF" d="M11.983 2V.5h-1.5V2h1.5Zm2.25 0h1.5V.5h-1.5V2Zm-2.25 6v1.5h1.5V8h-1.5ZM3 8V6.5H1.5V8H3Zm0 2H1.5v1.5H3V10Zm8.983 0h1.5V8.5h-1.5V10Zm0 6h-1.5v1.5h1.5V16Zm2.25 0v1.5h1.5V16h-1.5Zm0-6V8.5h-1.5V10h1.5Zm9.017 0v1.5h1.5V10h-1.5Zm0-2h1.5V6.5h-1.5V8Zm-9.017 0h-1.5v1.5h1.5V8Zm-2.25-4.5h2.25v-3h-2.25v3Zm1.5 4.5V2h-3v6h3ZM3 9.5h8.983v-3H3v3Zm1.5.5V8h-3v2h3Zm7.483-1.5H3v3h8.983v-3Zm1.5 7.5v-6h-3v6h3Zm.75-1.5h-2.25v3h2.25v-3Zm-1.5-4.5v6h3v-6h-3ZM23.25 8.5h-9.017v3h9.017v-3Zm-1.5-.5v2h3V8h-3Zm-7.517 1.5h9.017v-3h-9.017v3Zm-1.5-7.5v6h3V2h-3Z" mask="url(#f)"/></g><path fill="#F50100" fill-rule="evenodd" d="m30.113 9.47-.293 1.514 1.53-.714 1.53.715-.292-1.515 1.237-1.072-1.71-.22L31.35 6.8l-.765 1.377-1.71.221 1.238 1.072Zm-4.5 5.6-.293 1.514 1.53-.714 1.53.714-.292-1.514 1.237-1.072-1.71-.22-.765-1.378-.765 1.377-1.71.221 1.238 1.072Zm3.742 6.393-.379 1.964 1.984-.927 1.984.927-.38-1.964 1.606-1.39-2.218-.287L30.96 18l-.992 1.786-2.218.287 1.605 1.39Zm3.84-4.883.291-1.512-1.236-1.072 1.708-.22.764-1.376.764 1.376 1.709.22-1.237 1.072.292 1.512-1.528-.714-1.528.714Z" clip-rule="evenodd"/><path fill="#F7FCFF" d="m29.82 10.985-.196-.038-.074.385.355-.166-.085-.181Zm.293-1.515.196.038.022-.113-.087-.076-.131.151Zm1.237.8.085-.182-.085-.04-.085.04.085.182Zm1.53.715-.085.18.355.167-.074-.385-.196.038Zm-.293-1.515-.13-.15-.088.075.022.113.197-.038Zm1.238-1.072.131.151.337-.292-.442-.057-.026.198Zm-1.71-.22-.175.096.049.089.1.013.026-.199ZM31.35 6.8l.175-.097-.175-.315-.175.315.175.097Zm-.765 1.377.026.199.1-.013.049-.089-.175-.097Zm-1.71.221-.026-.198-.442.057.337.292.131-.15Zm-3.555 8.186-.196-.037-.074.385.355-.166-.085-.181Zm.293-1.514.196.038.022-.113-.087-.076-.131.151Zm1.237.8.085-.182-.085-.04-.085.04.085.182Zm1.53.714-.085.182.355.166-.074-.385-.196.037Zm-.293-1.514-.13-.15-.088.075.022.113.197-.038Zm1.238-1.072.131.151.337-.292-.442-.057-.026.198Zm-1.71-.22-.175.096.049.089.1.013.026-.199ZM26.85 12.4l.175-.097-.175-.315-.175.315.175.097Zm-.765 1.377.026.199.1-.013.049-.089-.175-.097Zm-1.71.221-.026-.198-.442.057.337.292.131-.15Zm4.601 9.429-.196-.038-.075.385.356-.166-.085-.181Zm.379-1.964.196.038.022-.113-.087-.076-.131.151ZM30.96 22.5l.084-.181-.084-.04-.085.04.085.18Zm1.983.927-.084.181.355.166-.074-.385-.197.038Zm-.378-1.964-.131-.15-.088.075.022.113.197-.038Zm1.605-1.39.13.15.338-.291-.443-.058-.026.199Zm-2.218-.287-.175.097.049.089.1.013.026-.199ZM30.96 18l.175-.097-.175-.315-.175.315.175.097Zm-.992 1.786.026.199.1-.013.049-.089-.175-.097Zm-2.218.287-.026-.199-.442.058.337.292.13-.151Zm5.736-5.005.197.037.021-.113-.087-.076-.13.152Zm-.292 1.512-.196-.038-.074.385.355-.166-.085-.181Zm-.944-2.584-.026-.198-.442.057.337.293.131-.152Zm1.708-.22.026.198.1-.013.05-.088-.176-.097Zm.764-1.376.175-.097-.175-.315-.175.315.175.097Zm.764 1.376-.175.097.05.088.1.013.025-.198Zm1.709.22.13.152.338-.293-.443-.057-.026.198Zm-1.237 1.072-.13-.152-.088.076.022.113.196-.037Zm.292 1.512-.084.181.355.166-.074-.385-.197.038Zm-1.528-.714.085-.181-.085-.04-.084.04.084.18Zm-4.705-4.844.292-1.514-.393-.075-.292 1.514.393.075Zm1.248-.934-1.53.715.17.363 1.53-.715-.17-.363Zm1.7.715-1.53-.715-.17.363 1.53.715.17-.363Zm-.574-1.295.292 1.514.393-.075-.292-1.514-.393.075Zm1.303-1.261-1.238 1.072.262.303 1.238-1.073-.262-.302Zm-1.605.129 1.71.22.052-.396-1.71-.221-.052.397Zm-.914-1.48.765 1.378.35-.194-.765-1.377-.35.194Zm-.415 1.378.765-1.377-.35-.194-.765 1.377.35.194Zm-1.86.323 1.71-.221-.05-.397-1.71.22.05.398Zm1.344.722-1.238-1.072-.262.302 1.238 1.073.262-.303Zm-4.727 7.303.292-1.514-.393-.075-.292 1.514.393.075Zm1.248-.934-1.53.715.17.363 1.53-.715-.17-.363Zm1.7.715-1.53-.715-.17.363 1.53.715.17-.363Zm-.574-1.295.292 1.514.393-.075-.292-1.514-.393.075Zm1.303-1.26-1.238 1.071.262.303 1.238-1.073-.262-.302Zm-1.605.128 1.71.22.052-.396-1.71-.221-.052.397Zm-.914-1.48.765 1.378.35-.194-.765-1.377-.35.194Zm-.415 1.378.765-1.377-.35-.194-.765 1.377.35.194Zm-1.86.323 1.71-.221-.05-.397-1.71.22.05.398Zm1.344.722-1.238-1.072-.262.302 1.238 1.073.262-.303Zm3.428 8.546.38-1.964-.394-.076-.378 1.964.392.076Zm1.703-1.146-1.984.927.17.362 1.983-.927-.169-.362Zm2.153.927-1.984-.927-.169.362 1.984.927.17-.362Zm-.66-1.745.38 1.964.392-.076-.379-1.963-.393.075Zm1.67-1.58-1.604 1.391.262.302 1.605-1.39-.262-.302Zm-2.112.064 2.218.286.051-.397-2.218-.286-.051.397Zm-1.141-1.888.992 1.786.35-.194-.992-1.786-.35.194Zm-.642 1.786.992-1.786-.35-.194-.992 1.786.35.194Zm-2.367.388 2.218-.286-.052-.397-2.218.286.052.397Zm1.71 1.041-1.605-1.39-.262.302 1.605 1.39.262-.302Zm3.804-6.282-.292 1.512.393.076.291-1.513-.392-.075Zm-1.171-.882 1.236 1.07.262-.302-1.236-1.07-.262.302Zm1.814-.57-1.709.22.052.397 1.708-.22-.051-.398Zm.614-1.275-.764 1.376.35.194.764-1.376-.35-.194Zm1.114 1.376-.764-1.376-.35.194.764 1.376.35-.194Zm1.56.12-1.71-.222-.05.397 1.708.22.051-.396Zm-1.132 1.42 1.236-1.071-.262-.303-1.236 1.071.262.303Zm.358 1.323-.292-1.512-.393.075.292 1.513.393-.076Zm-1.81-.495 1.529.714.169-.362-1.528-.714-.17.362Zm-1.358.714 1.528-.714-.17-.362-1.527.714.169.362Z"/></g></g></g></g><defs><clipPath id="b"><rect width="36" height="24" x="3" y="2" fill="#fff" rx="2"/></clipPath><filter id="a" width="42" height="30" x="0" y="0" color-interpolation-filters="sRGB" filterUnits="userSpaceOnUse"><feFlood flood-opacity="0" result="BackgroundImageFix"/><feColorMatrix in="SourceAlpha" result="hardAlpha" values="0 0 0 0 0 0 0 0 0 0 0 0 0 0 0 0 0 0 127 0"/><feOffset dy="1"/><feGaussianBlur stdDeviation="1"/><feColorMatrix values="0 0 0 0 0.0627451 0 0 0 0 0.0941176 0 0 0 0 0.156863 0 0 0 0.06 0"/><feBlend in2="BackgroundImageFix" result="effect1_dropShadow_91_26043"/><feColorMatrix in="SourceAlpha" result="hardAlpha" values="0 0 0 0 0 0 0 0 0 0 0 0 0 0 0 0 0 0 127 0"/><feOffset dy="1"/><feGaussianBlur stdDeviation="1.5"/><feColorMatrix values="0 0 0 0 0.0627451 0 0 0 0 0.0941176 0 0 0 0 0.156863 0 0 0 0.1 0"/><feBlend in2="effect1_dropShadow_91_26043" result="effect2_dropShadow_91_26043"/><feBlend in="SourceGraphic" in2="effect2_dropShadow_91_26043" result="shape"/></filter></defs></svg>