<svg width="42" height="30" viewBox="0 0 42 30" fill="none" xmlns="http://www.w3.org/2000/svg"><g id="Country=PE - Peru, Size=sm (36x24)" filter="url(#filter0_dd_91_25964)"><g clip-path="url(#clip0_91_25964)"><g id="flag"><mask id="mask0_91_25964" style="mask-type:alpha" maskUnits="userSpaceOnUse" x="3" y="2" width="36" height="24"><rect id="mask" x="3" y="2" width="36" height="24" fill="white"/></mask><g mask="url(#mask0_91_25964)"><g id="contents"><path id="middle" fill-rule="evenodd" clip-rule="evenodd" d="M12 2H31.125V26H12V2Z" fill="#F7FCFF"/><path id="right" fill-rule="evenodd" clip-rule="evenodd" d="M30 2H39V26H30V2Z" fill="#F50101"/><path id="left" fill-rule="evenodd" clip-rule="evenodd" d="M3 2H12V26H3V2Z" fill="#F50101"/><g id="mark"><g id="top"><path id="Path 205" d="M20.709 10.7451L20.7467 11.1071C19.6234 11.2081 19.0166 10.7202 19.0166 9.70768C19.0166 8.70297 19.6103 8.16892 20.7267 8.1626L20.729 8.52623C19.8246 8.53135 19.4079 8.90614 19.4079 9.70768C19.4079 10.5014 19.8115 10.8258 20.709 10.7451Z" fill="#A2BB6A"/><path id="Path 205_2" d="M21.2065 10.7451L21.1688 11.1071C22.2921 11.2081 22.8989 10.7202 22.8989 9.70768C22.8989 8.70297 22.3052 8.16892 21.1889 8.1626L21.1865 8.52623C22.0909 8.53135 22.5076 8.90614 22.5076 9.70768C22.5076 10.5014 22.1041 10.8258 21.2065 10.7451Z" fill="#A2BB6A"/></g><g id="twigs"><path id="ribbon" fill-rule="evenodd" clip-rule="evenodd" d="M20.0323 19.1227C19.7093 19.2256 17.5195 19.1227 17.5195 19.1227V19.6649H18.9713C19.4557 19.6649 19.6388 19.7419 19.8068 19.8127C19.9492 19.8726 20.0807 19.9279 20.3754 19.9279C20.9496 19.9279 20.939 19.5483 20.9303 19.2323C20.9292 19.1946 20.9282 19.1579 20.9282 19.1227C20.9282 18.9885 20.9518 18.9136 20.9702 18.8553C20.9969 18.7705 21.0125 18.7209 20.9282 18.5749C20.786 18.3287 19.4336 18.3615 19.4336 18.5749C19.4336 18.6756 19.6386 18.7803 19.8214 18.8736C20.0261 18.9781 20.2029 19.0684 20.0323 19.1227ZM22.0004 19.1227C22.3233 19.2256 24.5131 19.1227 24.5131 19.1227V19.6649H23.0613C22.5769 19.6649 22.3938 19.7419 22.2258 19.8127C22.0835 19.8726 21.952 19.9279 21.6572 19.9279C21.0831 19.9279 21.0936 19.5483 21.1024 19.2323C21.1034 19.1946 21.1045 19.1579 21.1045 19.1227C21.1045 18.9885 21.0809 18.9136 21.0625 18.8553C21.0358 18.7705 21.0202 18.7209 21.1045 18.5749C21.2467 18.3287 22.5991 18.3615 22.5991 18.5749C22.5991 18.6756 22.394 18.7803 22.2113 18.8736C22.0065 18.9781 21.8297 19.0684 22.0004 19.1227Z" fill="#E31D1C"/><g id="right_2"><path id="right_3" fill-rule="evenodd" clip-rule="evenodd" d="M21.458 19.1746C21.458 19.1746 23.1668 19.0237 23.5533 18.4759C23.9397 17.9281 24.5835 16.9929 24.8099 16.7665C25.0362 16.5401 25.0509 17.0899 25.0509 17.0899C25.0509 17.0899 25.4243 17.5607 25.4243 16.9587C25.4243 16.3567 25.1587 16.7773 24.8099 15.8715C24.4611 14.9657 24.2648 14.0772 24.3629 13.9427C24.4611 13.8082 24.6934 14.0772 24.6934 13.9427C24.6934 13.8082 24.6934 13.545 24.6934 13.545L25.0509 13.9427L25.4243 13.8167C25.4243 13.8167 25.7317 14.4019 25.9211 14.5831C26.1104 14.7642 26.2212 14.3404 26.1658 13.9427C26.1104 13.545 25.4243 13.545 25.4243 13.545C25.4243 13.545 24.5468 13.1245 24.5468 12.9483C24.5468 12.7721 24.9262 12.8246 24.9262 12.8246L24.8099 12.279C24.8099 12.279 25.1235 12.6104 25.2739 12.4447C25.4243 12.279 25.0509 11.9882 25.0509 11.9882H25.6462V11.7327L25.9211 11.8695L25.6462 11.3115C25.6462 11.3115 24.84 11.4194 24.6934 11.3115C24.5468 11.2036 24.0851 10.783 24.0851 10.783V10.5833H23.819L24.0851 10.1828V9.54505L25.0509 9.71621V9.24463C25.0509 9.24463 26.4105 9.83379 26.1658 10.3084C25.9211 10.783 25.9211 11.3115 25.9211 11.3115V11.7327C25.9211 11.7327 25.9618 11.6038 26.1658 11.6038C26.3698 11.6038 26.602 11.6975 26.602 11.9882C26.602 12.279 27.0174 11.8695 27.0174 11.8695V13.0791C27.0174 13.0791 27.115 13.2099 27.3285 13.0791C27.542 12.9483 27.4484 13.0503 26.8071 13.8167C26.1658 14.5831 26.3968 14.5851 26.602 14.3974C26.8071 14.2096 27.6397 13.6758 27.3285 13.9427C27.0174 14.2096 26.9967 14.7688 27.3285 14.5831C27.6603 14.3974 27.5962 14.2652 27.5962 14.5831C27.5962 14.9009 27.0123 15.9828 26.8071 16.1522C26.602 16.3217 26.4105 16.4259 26.1658 16.5962C25.9211 16.7665 25.6462 16.9678 25.6462 17.0899C25.6462 17.212 26.1658 16.9587 26.1658 16.9587L25.9211 17.7353H26.3967C26.3967 17.7353 26.0181 18.7665 25.2739 18.7665C24.5296 18.7665 23.9686 18.7665 23.819 18.7665C23.6695 18.7665 22.9938 19.0498 22.9938 19.0498L22.4994 19.1746C22.4994 19.1746 23.2875 19.2415 23.5533 19.4519C23.819 19.6622 23.5533 19.8089 23.5533 19.8089C23.5533 19.8089 22.8239 19.7445 22.2794 19.5982C21.735 19.4519 21.458 19.7292 21.458 19.4519C21.458 19.1746 21.458 19.1746 21.458 19.1746Z" fill="#00A854"/><path id="berries" fill-rule="evenodd" clip-rule="evenodd" d="M26.3806 10.9089C26.3806 11.0093 26.293 11.0907 26.185 11.0907C26.0769 11.0907 25.9893 11.0093 25.9893 10.9089C25.9893 10.8085 26.0769 10.7271 26.185 10.7271C26.293 10.7271 26.3806 10.8085 26.3806 10.9089ZM25.4024 11.6361C25.4024 11.7365 25.3148 11.818 25.2067 11.818C25.0987 11.818 25.0111 11.7365 25.0111 11.6361C25.0111 11.5357 25.0987 11.4543 25.2067 11.4543C25.3148 11.4543 25.4024 11.5357 25.4024 11.6361ZM26.3807 11.4543C26.4887 11.4543 26.5763 11.3729 26.5763 11.2725C26.5763 11.1721 26.4887 11.0907 26.3807 11.0907C26.2726 11.0907 26.185 11.1721 26.185 11.2725C26.185 11.3729 26.2726 11.4543 26.3807 11.4543ZM25.9894 14.1816C25.9894 14.282 25.9018 14.3634 25.7937 14.3634C25.6857 14.3634 25.5981 14.282 25.5981 14.1816C25.5981 14.0812 25.6857 13.9998 25.7937 13.9998C25.9018 13.9998 25.9894 14.0812 25.9894 14.1816ZM25.0111 16.5452C25.1191 16.5452 25.2067 16.4638 25.2067 16.3634C25.2067 16.263 25.1191 16.1816 25.0111 16.1816C24.903 16.1816 24.8154 16.263 24.8154 16.3634C24.8154 16.4638 24.903 16.5452 25.0111 16.5452ZM26.5763 16.9089C26.5763 17.0093 26.4887 17.0907 26.3807 17.0907C26.2726 17.0907 26.185 17.0093 26.185 16.9089C26.185 16.8085 26.2726 16.7271 26.3807 16.7271C26.4887 16.7271 26.5763 16.8085 26.5763 16.9089ZM26.772 16.727C26.8801 16.727 26.9677 16.6456 26.9677 16.5452C26.9677 16.4448 26.8801 16.3634 26.772 16.3634C26.664 16.3634 26.5764 16.4448 26.5764 16.5452C26.5764 16.6456 26.664 16.727 26.772 16.727ZM26.772 13.9998C26.772 14.1002 26.6844 14.1816 26.5763 14.1816C26.4683 14.1816 26.3807 14.1002 26.3807 13.9998C26.3807 13.8994 26.4683 13.818 26.5763 13.818C26.6844 13.818 26.772 13.8994 26.772 13.9998Z" fill="#C51918"/></g><path id="left_2" fill-rule="evenodd" clip-rule="evenodd" d="M20.6462 18.8545C20.6462 18.8545 17.5371 18.3083 17.3671 17.2511C17.197 16.1938 17.1994 15.0683 17.1994 15.0683L16.9111 15.7561C16.9111 15.7561 16.8966 14.8198 17.4879 14.1518C18.0793 13.4839 16.7487 14.5944 16.7487 14.5944C16.7487 14.5944 17.4224 13.6502 17.7029 13.5603C17.9834 13.4704 16.5759 14.1518 16.5759 14.1518C16.5759 14.1518 16.9791 13.3595 17.2925 13.1354C17.606 12.9113 16.5759 13.5603 16.5759 13.5603C16.5759 13.5603 16.809 12.7744 17.0877 12.5869C17.3665 12.3994 16.1768 13.5603 16.1768 13.5603C16.1768 13.5603 16.8044 11.7646 17.158 11.597C17.5116 11.4295 16.5759 11.9263 16.5759 11.9263C16.5759 11.9263 17.1491 11.1583 17.6624 10.7765C18.1758 10.3947 16.7345 10.9393 16.9111 10.9393C16.9111 10.9393 17.4323 10.4161 17.7317 10.2685C18.0312 10.1208 16.5759 10.7765 16.5759 10.7765C16.5759 10.7765 17.6205 9.75183 17.9337 9.60098C18.2468 9.45012 16.3964 10.4147 16.3964 10.4147C16.3964 10.4147 16.5045 9.96789 16.5511 9.64858C16.5978 9.32926 15.6939 10.5237 15.8166 11.597C15.9393 12.6704 15.3248 10.7765 15.3248 10.7765C15.3248 10.7765 15.0776 11.1877 15.6783 12.2646L15.0272 11.4535C15.0272 11.4535 15.1162 12.1896 15.3248 12.5869C15.5334 12.9843 14.7327 11.9263 14.7327 11.9263C14.7327 11.9263 14.5795 12.5869 14.7327 12.5869C14.7327 12.5869 15.647 13.6727 15.6809 13.9893C15.7148 14.3059 14.6541 12.859 14.5121 12.859C14.3702 12.859 14.2915 13.3237 14.5121 13.3237C14.7327 13.3237 15.1506 13.9893 15.1506 13.9893C15.1506 13.9893 14.6075 13.6404 14.4911 13.6198C14.3746 13.5992 14.5825 13.8268 14.7327 13.9893C14.7327 13.9893 14.3079 14.2972 14.3402 14.5304C14.3724 14.7637 15.498 14.813 15.9885 15.9203C15.9885 15.9203 14.9744 15.4435 14.7327 15.4435C14.4911 15.4435 15.1218 15.9413 15.3248 16.1056C15.5278 16.2699 15.0121 15.9413 14.8724 16.1056C14.7327 16.2699 15.6446 16.9716 15.8166 16.9716C15.9885 16.9716 15.1506 16.9716 15.1506 16.9716C15.1506 16.9716 15.3733 17.2511 15.6809 17.2511C15.9885 17.2511 17.0877 17.6902 17.0877 17.8324C17.0877 17.9747 16.1605 17.6504 15.9885 17.6504C15.8166 17.6504 17.1991 18.8102 17.9337 18.8545C18.6682 18.8987 19.1324 19.074 19.449 19.074C19.7657 19.074 19.9883 19.074 19.9883 19.074L18.4923 19.7515C18.4923 19.7515 18.3412 19.7515 18.9902 19.7515C19.6393 19.7515 20.1357 19.9119 20.391 19.5804C20.6462 19.249 20.6462 18.8545 20.6462 18.8545Z" fill="#00A854"/></g><g id="middle_2"><g id="Combined Shape"><mask id="path-12-outside-1_91_25964" maskUnits="userSpaceOnUse" x="15.8242" y="8.88135" width="10" height="11" fill="black"><rect fill="white" x="15.8242" y="8.88135" width="10" height="11"/><path fill-rule="evenodd" clip-rule="evenodd" d="M21.0977 10.9053C21.1277 10.8902 21.1444 10.8813 21.1444 10.8813V10.9285C21.361 11.0347 21.9063 11.2836 22.2609 11.2836C22.7117 11.2836 23.3244 10.8813 23.3244 10.8813L24.3496 12.1681C24.3496 12.1681 23.6591 13.4544 24.1874 15.0262C24.7157 16.598 24.1595 17.81 21.8101 17.9445C21.8101 17.9445 21.3472 18.0227 21.1444 18.1473V18.2625C21.1444 18.2338 21.1271 18.2066 21.0977 18.181C21.0684 18.2066 21.0511 18.2338 21.0511 18.2625V18.1473C20.8483 18.0227 20.3854 17.9445 20.3854 17.9445C18.036 17.81 17.4797 16.598 18.008 15.0262C18.5363 13.4544 17.8459 12.1681 17.8459 12.1681L18.8711 10.8813C18.8711 10.8813 19.4838 11.2836 19.9346 11.2836C20.2892 11.2836 20.8345 11.0347 21.0511 10.9285V10.8813C21.0511 10.8813 21.0678 10.8902 21.0977 10.9053Z"/></mask><path fill-rule="evenodd" clip-rule="evenodd" d="M21.0977 10.9053C21.1277 10.8902 21.1444 10.8813 21.1444 10.8813V10.9285C21.361 11.0347 21.9063 11.2836 22.2609 11.2836C22.7117 11.2836 23.3244 10.8813 23.3244 10.8813L24.3496 12.1681C24.3496 12.1681 23.6591 13.4544 24.1874 15.0262C24.7157 16.598 24.1595 17.81 21.8101 17.9445C21.8101 17.9445 21.3472 18.0227 21.1444 18.1473V18.2625C21.1444 18.2338 21.1271 18.2066 21.0977 18.181C21.0684 18.2066 21.0511 18.2338 21.0511 18.2625V18.1473C20.8483 18.0227 20.3854 17.9445 20.3854 17.9445C18.036 17.81 17.4797 16.598 18.008 15.0262C18.5363 13.4544 17.8459 12.1681 17.8459 12.1681L18.8711 10.8813C18.8711 10.8813 19.4838 11.2836 19.9346 11.2836C20.2892 11.2836 20.8345 11.0347 21.0511 10.9285V10.8813C21.0511 10.8813 21.0678 10.8902 21.0977 10.9053Z" fill="#E8AA00"/><path d="M21.1444 10.8813H22.1444V9.21971L20.6762 9.99774L21.1444 10.8813ZM21.0977 10.9053L20.6478 11.7983L21.0977 12.025L21.5477 11.7983L21.0977 10.9053ZM21.1444 10.9285H20.1444V11.5518L20.7041 11.8263L21.1444 10.9285ZM23.3244 10.8813L24.1065 10.2582L23.5381 9.54482L22.7756 10.0454L23.3244 10.8813ZM24.3496 12.1681L25.2307 12.641L25.5423 12.0604L25.1317 11.5449L24.3496 12.1681ZM21.8101 17.9445L21.7529 16.9462L21.6979 16.9493L21.6436 16.9585L21.8101 17.9445ZM21.1444 18.1473L20.6209 17.2953L20.1444 17.5881V18.1473H21.1444ZM21.0977 18.181L21.7549 17.4272L21.0977 16.8543L20.4406 17.4272L21.0977 18.181ZM21.0511 18.1473H22.0511V17.5881L21.5746 17.2953L21.0511 18.1473ZM20.3854 17.9445L20.5519 16.9585L20.4976 16.9493L20.4425 16.9462L20.3854 17.9445ZM17.8459 12.1681L17.0638 11.5449L16.6531 12.0604L16.9648 12.641L17.8459 12.1681ZM18.8711 10.8813L19.4199 10.0454L18.6574 9.54482L18.089 10.2582L18.8711 10.8813ZM21.0511 10.9285L21.4914 11.8263L22.0511 11.5518V10.9285H21.0511ZM21.0511 10.8813L21.5193 9.99774L20.0511 9.21971V10.8813H21.0511ZM21.1444 10.8813C20.6762 9.99774 20.6762 9.99773 20.6762 9.99773C20.6762 9.99772 20.6762 9.99771 20.6762 9.99771C20.6763 9.9977 20.6763 9.99769 20.6763 9.99768C20.6763 9.99766 20.6764 9.99763 20.6764 9.99761C20.6765 9.99757 20.6766 9.99754 20.6766 9.9975C20.6768 9.99743 20.6769 9.99736 20.677 9.99731C20.6772 9.9972 20.6773 9.99712 20.6774 9.99707C20.6776 9.99698 20.6775 9.99701 20.6772 9.99717C20.6766 9.99749 20.6751 9.99831 20.6726 9.99957C20.6677 10.0021 20.6593 10.0064 20.6478 10.0122L21.5477 11.7983C21.5661 11.7891 21.581 11.7814 21.592 11.7758C21.5974 11.7729 21.6019 11.7706 21.6054 11.7688C21.6071 11.7679 21.6086 11.7671 21.6098 11.7664C21.6104 11.7661 21.611 11.7658 21.6114 11.7656C21.6117 11.7655 21.6119 11.7654 21.6121 11.7652C21.6122 11.7652 21.6123 11.7651 21.6124 11.7651C21.6124 11.7651 21.6125 11.765 21.6125 11.765C21.6125 11.765 21.6125 11.765 21.6126 11.765C21.6126 11.765 21.6126 11.765 21.6126 11.765C21.6126 11.765 21.6126 11.765 21.1444 10.8813ZM22.1444 10.9285V10.8813H20.1444V10.9285H22.1444ZM20.7041 11.8263C20.8291 11.8876 21.055 11.9933 21.3093 12.0857C21.536 12.1681 21.8991 12.2836 22.2609 12.2836V10.2836C22.2795 10.2836 22.2626 10.2855 22.2002 10.2705C22.1431 10.2568 22.0726 10.2351 21.9925 10.206C21.8314 10.1475 21.6763 10.0755 21.5847 10.0306L20.7041 11.8263ZM22.2609 12.2836C22.725 12.2836 23.1636 12.0948 23.3944 11.984C23.5294 11.9192 23.6446 11.8552 23.7264 11.8074C23.7677 11.7833 23.8016 11.7626 23.8264 11.7471C23.8388 11.7394 23.849 11.7329 23.8569 11.7278C23.8608 11.7253 23.8641 11.7232 23.8669 11.7214C23.8682 11.7205 23.8694 11.7198 23.8705 11.7191C23.871 11.7187 23.8715 11.7184 23.8719 11.7181C23.8722 11.718 23.8724 11.7178 23.8726 11.7177C23.8727 11.7176 23.8728 11.7175 23.8729 11.7175C23.873 11.7174 23.8732 11.7173 23.3244 10.8813C22.7756 10.0454 22.7757 10.0453 22.7759 10.0452C22.7759 10.0452 22.776 10.0451 22.7761 10.045C22.7763 10.0449 22.7764 10.0448 22.7766 10.0447C22.7769 10.0445 22.7771 10.0444 22.7774 10.0442C22.7778 10.0439 22.7782 10.0437 22.7783 10.0436C22.7787 10.0433 22.7786 10.0435 22.7779 10.0439C22.7765 10.0447 22.7732 10.0469 22.768 10.0501C22.7575 10.0567 22.74 10.0674 22.7168 10.081C22.6696 10.1086 22.6034 10.1452 22.529 10.1809C22.4528 10.2175 22.3805 10.247 22.3193 10.2661C22.252 10.2871 22.2357 10.2836 22.2609 10.2836V12.2836ZM22.5423 11.5045L23.5675 12.7912L25.1317 11.5449L24.1065 10.2582L22.5423 11.5045ZM24.3496 12.1681C23.4685 11.6951 23.4683 11.6955 23.4681 11.6959C23.468 11.696 23.4678 11.6964 23.4677 11.6966C23.4674 11.6971 23.4671 11.6977 23.4668 11.6982C23.4662 11.6994 23.4656 11.7006 23.4649 11.7018C23.4636 11.7044 23.462 11.7073 23.4604 11.7105C23.457 11.717 23.453 11.7248 23.4485 11.7338C23.4393 11.752 23.4279 11.7753 23.4148 11.8035C23.3884 11.8599 23.3548 11.9365 23.318 12.031C23.2447 12.2195 23.1573 12.4836 23.0909 12.8062C22.9584 13.4505 22.9056 14.3512 23.2396 15.3448L25.1353 14.7076C24.941 14.1294 24.9693 13.601 25.0499 13.2092C25.0901 13.0138 25.1423 12.858 25.1819 12.7562C25.2016 12.7056 25.2178 12.6694 25.2271 12.6493C25.2318 12.6393 25.2347 12.6335 25.2354 12.632C25.2358 12.6312 25.2356 12.6316 25.2349 12.6331C25.2345 12.6338 25.2339 12.6349 25.2332 12.6362C25.2329 12.6369 25.2325 12.6376 25.2321 12.6384C25.2319 12.6388 25.2316 12.6392 25.2314 12.6397C25.2313 12.6399 25.2311 12.6402 25.231 12.6403C25.2309 12.6407 25.2307 12.641 24.3496 12.1681ZM23.2396 15.3448C23.456 15.9888 23.3637 16.3029 23.2626 16.4453C23.1536 16.5987 22.8011 16.8861 21.7529 16.9462L21.8673 18.9429C23.1685 18.8684 24.2688 18.4825 24.8932 17.6034C25.5255 16.7132 25.4472 15.6354 25.1353 14.7076L23.2396 15.3448ZM21.8101 17.9445C21.6436 16.9585 21.6435 16.9585 21.6434 16.9585C21.6434 16.9586 21.6433 16.9586 21.6432 16.9586C21.6431 16.9586 21.6429 16.9586 21.6428 16.9587C21.6425 16.9587 21.6421 16.9588 21.6418 16.9588C21.641 16.9589 21.6402 16.9591 21.6393 16.9593C21.6373 16.9596 21.635 16.96 21.6322 16.9605C21.6266 16.9615 21.6193 16.9628 21.6104 16.9644C21.5926 16.9676 21.5684 16.9722 21.5392 16.978C21.4816 16.9895 21.4014 17.0065 21.3117 17.0288C21.1736 17.0632 20.8685 17.1432 20.6209 17.2953L21.6679 18.9994C21.6282 19.0238 21.6166 19.0234 21.6606 19.0082C21.6955 18.9962 21.7419 18.9828 21.7949 18.9696C21.8463 18.9568 21.8945 18.9465 21.93 18.9394C21.9474 18.936 21.961 18.9334 21.9693 18.9319C21.9735 18.9312 21.9763 18.9307 21.9776 18.9304C21.9782 18.9303 21.9785 18.9303 21.9783 18.9303C21.9783 18.9303 21.9781 18.9303 21.9778 18.9304C21.9777 18.9304 21.9775 18.9304 21.9773 18.9305C21.9772 18.9305 21.9771 18.9305 21.977 18.9305C21.977 18.9305 21.9769 18.9305 21.9768 18.9306C21.9768 18.9306 21.9767 18.9306 21.8101 17.9445ZM22.1444 18.2625V18.1473H20.1444V18.2625H22.1444ZM20.4406 18.9347C20.3811 18.8829 20.1444 18.6585 20.1444 18.2625H22.1444C22.1444 17.8092 21.8731 17.5303 21.7549 17.4272L20.4406 18.9347ZM20.4406 17.4272C20.3224 17.5303 20.0511 17.8092 20.0511 18.2625H22.0511C22.0511 18.6585 21.8144 18.8829 21.7549 18.9347L20.4406 17.4272ZM22.0511 18.2625V18.1473H20.0511V18.2625H22.0511ZM20.3854 17.9445C20.2188 18.9306 20.2187 18.9306 20.2186 18.9306C20.2186 18.9305 20.2185 18.9305 20.2185 18.9305C20.2184 18.9305 20.2183 18.9305 20.2182 18.9305C20.218 18.9304 20.2178 18.9304 20.2177 18.9304C20.2174 18.9303 20.2172 18.9303 20.2172 18.9303C20.217 18.9303 20.2173 18.9303 20.2179 18.9304C20.2192 18.9307 20.222 18.9312 20.2262 18.9319C20.2345 18.9334 20.2481 18.936 20.2655 18.9394C20.301 18.9465 20.3492 18.9568 20.4006 18.9696C20.4536 18.9828 20.5 18.9962 20.5349 19.0082C20.5789 19.0234 20.5673 19.0238 20.5276 18.9994L21.5746 17.2953C21.327 17.1432 21.0219 17.0632 20.8838 17.0288C20.7941 17.0065 20.7139 16.9895 20.6562 16.978C20.6271 16.9722 20.6029 16.9676 20.5851 16.9644C20.5762 16.9628 20.5689 16.9615 20.5633 16.9605C20.5605 16.96 20.5581 16.9596 20.5562 16.9593C20.5553 16.9591 20.5544 16.9589 20.5537 16.9588C20.5534 16.9588 20.553 16.9587 20.5527 16.9587C20.5526 16.9586 20.5524 16.9586 20.5523 16.9586C20.5522 16.9586 20.5521 16.9586 20.5521 16.9585C20.552 16.9585 20.5519 16.9585 20.3854 17.9445ZM17.0602 14.7076C16.7483 15.6354 16.67 16.7132 17.3023 17.6034C17.9267 18.4825 19.027 18.8684 20.3282 18.9429L20.4425 16.9462C19.3944 16.8861 19.0419 16.5987 18.9329 16.4453C18.8318 16.3029 18.7395 15.9888 18.9559 15.3448L17.0602 14.7076ZM17.8459 12.1681C16.9648 12.641 16.9646 12.6407 16.9644 12.6403C16.9644 12.6402 16.9642 12.6399 16.9641 12.6397C16.9638 12.6392 16.9636 12.6388 16.9634 12.6384C16.963 12.6376 16.9626 12.6369 16.9622 12.6362C16.9615 12.6349 16.961 12.6338 16.9606 12.6331C16.9598 12.6316 16.9597 12.6312 16.96 12.632C16.9608 12.6335 16.9637 12.6393 16.9684 12.6493C16.9777 12.6694 16.9939 12.7056 17.0136 12.7562C17.0532 12.858 17.1054 13.0138 17.1456 13.2092C17.2262 13.601 17.2545 14.1294 17.0602 14.7076L18.9559 15.3448C19.2899 14.3512 19.2371 13.4505 19.1046 12.8062C19.0382 12.4836 18.9508 12.2195 18.8775 12.031C18.8407 11.9365 18.8071 11.86 18.7807 11.8035C18.7675 11.7753 18.7561 11.752 18.747 11.7338C18.7425 11.7248 18.7385 11.717 18.7351 11.7105C18.7335 11.7073 18.7319 11.7044 18.7306 11.7018C18.7299 11.7006 18.7293 11.6994 18.7287 11.6982C18.7284 11.6977 18.7281 11.6971 18.7278 11.6966C18.7277 11.6964 18.7275 11.696 18.7274 11.6959C18.7272 11.6955 18.727 11.6951 17.8459 12.1681ZM18.089 10.2582L17.0638 11.5449L18.628 12.7912L19.6532 11.5045L18.089 10.2582ZM19.9346 10.2836C19.9598 10.2836 19.9435 10.2871 19.8762 10.2661C19.815 10.247 19.7426 10.2175 19.6665 10.1809C19.592 10.1452 19.5259 10.1086 19.4787 10.081C19.4555 10.0674 19.438 10.0567 19.4275 10.0501C19.4223 10.0469 19.419 10.0447 19.4176 10.0439C19.4169 10.0435 19.4168 10.0433 19.4171 10.0436C19.4173 10.0437 19.4177 10.0439 19.4181 10.0442C19.4183 10.0444 19.4186 10.0445 19.4189 10.0447C19.419 10.0448 19.4192 10.0449 19.4194 10.045C19.4195 10.0451 19.4196 10.0452 19.4196 10.0452C19.4198 10.0453 19.4199 10.0454 18.8711 10.8813C18.3223 11.7173 18.3225 11.7174 18.3226 11.7175C18.3227 11.7175 18.3228 11.7176 18.3229 11.7177C18.3231 11.7178 18.3233 11.718 18.3236 11.7181C18.324 11.7184 18.3245 11.7187 18.325 11.7191C18.3261 11.7198 18.3273 11.7205 18.3286 11.7214C18.3313 11.7232 18.3347 11.7253 18.3386 11.7278C18.3464 11.7329 18.3567 11.7394 18.3691 11.7471C18.3939 11.7626 18.4278 11.7833 18.4691 11.8074C18.5508 11.8552 18.6661 11.9192 18.8011 11.984C19.0319 12.0948 19.4705 12.2836 19.9346 12.2836V10.2836ZM20.6108 10.0306C20.5192 10.0755 20.3641 10.1475 20.203 10.206C20.1229 10.2351 20.0524 10.2568 19.9953 10.2705C19.9329 10.2855 19.916 10.2836 19.9346 10.2836V12.2836C20.2964 12.2836 20.6595 12.1681 20.8862 12.0857C21.1405 11.9933 21.3664 11.8876 21.4914 11.8263L20.6108 10.0306ZM22.0511 10.9285V10.8813H20.0511V10.9285H22.0511ZM21.0511 10.8813C20.5829 11.765 20.5829 11.765 20.5829 11.765C20.5829 11.765 20.5829 11.765 20.5829 11.765C20.5829 11.765 20.583 11.765 20.583 11.765C20.583 11.765 20.5831 11.7651 20.5831 11.7651C20.5832 11.7651 20.5833 11.7652 20.5834 11.7652C20.5836 11.7654 20.5838 11.7655 20.5841 11.7656C20.5845 11.7658 20.5851 11.7661 20.5857 11.7664C20.5869 11.7671 20.5884 11.7679 20.5901 11.7688C20.5935 11.7706 20.598 11.7729 20.6035 11.7758C20.6145 11.7814 20.6294 11.7891 20.6478 11.7983L21.5477 10.0122C21.5362 10.0064 21.5278 10.0021 21.5229 9.99957C21.5204 9.99831 21.5189 9.99749 21.5182 9.99717C21.5179 9.99701 21.5179 9.99698 21.5181 9.99707C21.5181 9.99712 21.5183 9.9972 21.5185 9.99731C21.5186 9.99736 21.5187 9.99743 21.5189 9.9975C21.5189 9.99754 21.519 9.99757 21.5191 9.99761C21.5191 9.99763 21.5192 9.99766 21.5192 9.99768C21.5192 9.99769 21.5192 9.9977 21.5193 9.99771C21.5193 9.99771 21.5193 9.99772 21.5193 9.99773C21.5193 9.99773 21.5193 9.99774 21.0511 10.8813Z" fill="#E8AA00" mask="url(#path-12-outside-1_91_25964)"/></g><mask id="mask1_91_25964" style="mask-type:alpha" maskUnits="userSpaceOnUse" x="16" y="9" width="10" height="11"><g id="Combined Shape_2"><mask id="path-14-outside-2_91_25964" maskUnits="userSpaceOnUse" x="15.8242" y="8.88135" width="10" height="11" fill="black"><rect fill="white" x="15.8242" y="8.88135" width="10" height="11"/><path fill-rule="evenodd" clip-rule="evenodd" d="M21.0977 10.9053C21.1277 10.8902 21.1444 10.8813 21.1444 10.8813V10.9285C21.361 11.0347 21.9063 11.2836 22.2609 11.2836C22.7117 11.2836 23.3244 10.8813 23.3244 10.8813L24.3496 12.1681C24.3496 12.1681 23.6591 13.4544 24.1874 15.0262C24.7157 16.598 24.1595 17.81 21.8101 17.9445C21.8101 17.9445 21.3472 18.0227 21.1444 18.1473V18.2625C21.1444 18.2338 21.1271 18.2066 21.0977 18.181C21.0684 18.2066 21.0511 18.2338 21.0511 18.2625V18.1473C20.8483 18.0227 20.3854 17.9445 20.3854 17.9445C18.036 17.81 17.4797 16.598 18.008 15.0262C18.5363 13.4544 17.8459 12.1681 17.8459 12.1681L18.8711 10.8813C18.8711 10.8813 19.4838 11.2836 19.9346 11.2836C20.2892 11.2836 20.8345 11.0347 21.0511 10.9285V10.8813C21.0511 10.8813 21.0678 10.8902 21.0977 10.9053Z"/></mask><path fill-rule="evenodd" clip-rule="evenodd" d="M21.0977 10.9053C21.1277 10.8902 21.1444 10.8813 21.1444 10.8813V10.9285C21.361 11.0347 21.9063 11.2836 22.2609 11.2836C22.7117 11.2836 23.3244 10.8813 23.3244 10.8813L24.3496 12.1681C24.3496 12.1681 23.6591 13.4544 24.1874 15.0262C24.7157 16.598 24.1595 17.81 21.8101 17.9445C21.8101 17.9445 21.3472 18.0227 21.1444 18.1473V18.2625C21.1444 18.2338 21.1271 18.2066 21.0977 18.181C21.0684 18.2066 21.0511 18.2338 21.0511 18.2625V18.1473C20.8483 18.0227 20.3854 17.9445 20.3854 17.9445C18.036 17.81 17.4797 16.598 18.008 15.0262C18.5363 13.4544 17.8459 12.1681 17.8459 12.1681L18.8711 10.8813C18.8711 10.8813 19.4838 11.2836 19.9346 11.2836C20.2892 11.2836 20.8345 11.0347 21.0511 10.9285V10.8813C21.0511 10.8813 21.0678 10.8902 21.0977 10.9053Z" fill="white"/><path d="M21.1444 10.8813H22.1444V9.21971L20.6762 9.99774L21.1444 10.8813ZM21.0977 10.9053L20.6478 11.7983L21.0977 12.025L21.5477 11.7983L21.0977 10.9053ZM21.1444 10.9285H20.1444V11.5518L20.7041 11.8263L21.1444 10.9285ZM23.3244 10.8813L24.1065 10.2582L23.5381 9.54482L22.7756 10.0454L23.3244 10.8813ZM24.3496 12.1681L25.2307 12.641L25.5423 12.0604L25.1317 11.5449L24.3496 12.1681ZM21.8101 17.9445L21.7529 16.9462L21.6979 16.9493L21.6436 16.9585L21.8101 17.9445ZM21.1444 18.1473L20.6209 17.2953L20.1444 17.5881V18.1473H21.1444ZM21.0977 18.181L21.7549 17.4272L21.0977 16.8543L20.4406 17.4272L21.0977 18.181ZM21.0511 18.1473H22.0511V17.5881L21.5746 17.2953L21.0511 18.1473ZM20.3854 17.9445L20.5519 16.9585L20.4976 16.9493L20.4425 16.9462L20.3854 17.9445ZM17.8459 12.1681L17.0638 11.5449L16.6531 12.0604L16.9648 12.641L17.8459 12.1681ZM18.8711 10.8813L19.4199 10.0454L18.6574 9.54482L18.089 10.2582L18.8711 10.8813ZM21.0511 10.9285L21.4914 11.8263L22.0511 11.5518V10.9285H21.0511ZM21.0511 10.8813L21.5193 9.99774L20.0511 9.21971V10.8813H21.0511ZM21.1444 10.8813C20.6762 9.99774 20.6762 9.99773 20.6762 9.99773C20.6762 9.99772 20.6762 9.99771 20.6762 9.99771C20.6763 9.9977 20.6763 9.99769 20.6763 9.99768C20.6763 9.99766 20.6764 9.99763 20.6764 9.99761C20.6765 9.99757 20.6766 9.99754 20.6766 9.9975C20.6768 9.99743 20.6769 9.99736 20.677 9.99731C20.6772 9.9972 20.6773 9.99712 20.6774 9.99707C20.6776 9.99698 20.6775 9.99701 20.6772 9.99717C20.6766 9.99749 20.6751 9.99831 20.6726 9.99957C20.6677 10.0021 20.6593 10.0064 20.6478 10.0122L21.5477 11.7983C21.5661 11.7891 21.581 11.7814 21.592 11.7758C21.5974 11.7729 21.6019 11.7706 21.6054 11.7688C21.6071 11.7679 21.6086 11.7671 21.6098 11.7664C21.6104 11.7661 21.611 11.7658 21.6114 11.7656C21.6117 11.7655 21.6119 11.7654 21.6121 11.7652C21.6122 11.7652 21.6123 11.7651 21.6124 11.7651C21.6124 11.7651 21.6125 11.765 21.6125 11.765C21.6125 11.765 21.6125 11.765 21.6126 11.765C21.6126 11.765 21.6126 11.765 21.6126 11.765C21.6126 11.765 21.6126 11.765 21.1444 10.8813ZM22.1444 10.9285V10.8813H20.1444V10.9285H22.1444ZM20.7041 11.8263C20.8291 11.8876 21.055 11.9933 21.3093 12.0857C21.536 12.1681 21.8991 12.2836 22.2609 12.2836V10.2836C22.2795 10.2836 22.2626 10.2855 22.2002 10.2705C22.1431 10.2568 22.0726 10.2351 21.9925 10.206C21.8314 10.1475 21.6763 10.0755 21.5847 10.0306L20.7041 11.8263ZM22.2609 12.2836C22.725 12.2836 23.1636 12.0948 23.3944 11.984C23.5294 11.9192 23.6446 11.8552 23.7264 11.8074C23.7677 11.7833 23.8016 11.7626 23.8264 11.7471C23.8388 11.7394 23.849 11.7329 23.8569 11.7278C23.8608 11.7253 23.8641 11.7232 23.8669 11.7214C23.8682 11.7205 23.8694 11.7198 23.8705 11.7191C23.871 11.7187 23.8715 11.7184 23.8719 11.7181C23.8722 11.718 23.8724 11.7178 23.8726 11.7177C23.8727 11.7176 23.8728 11.7175 23.8729 11.7175C23.873 11.7174 23.8732 11.7173 23.3244 10.8813C22.7756 10.0454 22.7757 10.0453 22.7759 10.0452C22.7759 10.0452 22.776 10.0451 22.7761 10.045C22.7763 10.0449 22.7764 10.0448 22.7766 10.0447C22.7769 10.0445 22.7771 10.0444 22.7774 10.0442C22.7778 10.0439 22.7782 10.0437 22.7783 10.0436C22.7787 10.0433 22.7786 10.0435 22.7779 10.0439C22.7765 10.0447 22.7732 10.0469 22.768 10.0501C22.7575 10.0567 22.74 10.0674 22.7168 10.081C22.6696 10.1086 22.6034 10.1452 22.529 10.1809C22.4528 10.2175 22.3805 10.247 22.3193 10.2661C22.252 10.2871 22.2357 10.2836 22.2609 10.2836V12.2836ZM22.5423 11.5045L23.5675 12.7912L25.1317 11.5449L24.1065 10.2582L22.5423 11.5045ZM24.3496 12.1681C23.4685 11.6951 23.4683 11.6955 23.4681 11.6959C23.468 11.696 23.4678 11.6964 23.4677 11.6966C23.4674 11.6971 23.4671 11.6977 23.4668 11.6982C23.4662 11.6994 23.4656 11.7006 23.4649 11.7018C23.4636 11.7044 23.462 11.7073 23.4604 11.7105C23.457 11.717 23.453 11.7248 23.4485 11.7338C23.4393 11.752 23.4279 11.7753 23.4148 11.8035C23.3884 11.8599 23.3548 11.9365 23.318 12.031C23.2447 12.2195 23.1573 12.4836 23.0909 12.8062C22.9584 13.4505 22.9056 14.3512 23.2396 15.3448L25.1353 14.7076C24.941 14.1294 24.9693 13.601 25.0499 13.2092C25.0901 13.0138 25.1423 12.858 25.1819 12.7562C25.2016 12.7056 25.2178 12.6694 25.2271 12.6493C25.2318 12.6393 25.2347 12.6335 25.2354 12.632C25.2358 12.6312 25.2356 12.6316 25.2349 12.6331C25.2345 12.6338 25.2339 12.6349 25.2332 12.6362C25.2329 12.6369 25.2325 12.6376 25.2321 12.6384C25.2319 12.6388 25.2316 12.6392 25.2314 12.6397C25.2313 12.6399 25.2311 12.6402 25.231 12.6403C25.2309 12.6407 25.2307 12.641 24.3496 12.1681ZM23.2396 15.3448C23.456 15.9888 23.3637 16.3029 23.2626 16.4453C23.1536 16.5987 22.8011 16.8861 21.7529 16.9462L21.8673 18.9429C23.1685 18.8684 24.2688 18.4825 24.8932 17.6034C25.5255 16.7132 25.4472 15.6354 25.1353 14.7076L23.2396 15.3448ZM21.8101 17.9445C21.6436 16.9585 21.6435 16.9585 21.6434 16.9585C21.6434 16.9586 21.6433 16.9586 21.6432 16.9586C21.6431 16.9586 21.6429 16.9586 21.6428 16.9587C21.6425 16.9587 21.6421 16.9588 21.6418 16.9588C21.641 16.9589 21.6402 16.9591 21.6393 16.9593C21.6373 16.9596 21.635 16.96 21.6322 16.9605C21.6266 16.9615 21.6193 16.9628 21.6104 16.9644C21.5926 16.9676 21.5684 16.9722 21.5392 16.978C21.4816 16.9895 21.4014 17.0065 21.3117 17.0288C21.1736 17.0632 20.8685 17.1432 20.6209 17.2953L21.6679 18.9994C21.6282 19.0238 21.6166 19.0234 21.6606 19.0082C21.6955 18.9962 21.7419 18.9828 21.7949 18.9696C21.8463 18.9568 21.8945 18.9465 21.93 18.9394C21.9474 18.936 21.961 18.9334 21.9693 18.9319C21.9735 18.9312 21.9763 18.9307 21.9776 18.9304C21.9782 18.9303 21.9785 18.9303 21.9783 18.9303C21.9783 18.9303 21.9781 18.9303 21.9778 18.9304C21.9777 18.9304 21.9775 18.9304 21.9773 18.9305C21.9772 18.9305 21.9771 18.9305 21.977 18.9305C21.977 18.9305 21.9769 18.9305 21.9768 18.9306C21.9768 18.9306 21.9767 18.9306 21.8101 17.9445ZM22.1444 18.2625V18.1473H20.1444V18.2625H22.1444ZM20.4406 18.9347C20.3811 18.8829 20.1444 18.6585 20.1444 18.2625H22.1444C22.1444 17.8092 21.8731 17.5303 21.7549 17.4272L20.4406 18.9347ZM20.4406 17.4272C20.3224 17.5303 20.0511 17.8092 20.0511 18.2625H22.0511C22.0511 18.6585 21.8144 18.8829 21.7549 18.9347L20.4406 17.4272ZM22.0511 18.2625V18.1473H20.0511V18.2625H22.0511ZM20.3854 17.9445C20.2188 18.9306 20.2187 18.9306 20.2186 18.9306C20.2186 18.9305 20.2185 18.9305 20.2185 18.9305C20.2184 18.9305 20.2183 18.9305 20.2182 18.9305C20.218 18.9304 20.2178 18.9304 20.2177 18.9304C20.2174 18.9303 20.2172 18.9303 20.2172 18.9303C20.217 18.9303 20.2173 18.9303 20.2179 18.9304C20.2192 18.9307 20.222 18.9312 20.2262 18.9319C20.2345 18.9334 20.2481 18.936 20.2655 18.9394C20.301 18.9465 20.3492 18.9568 20.4006 18.9696C20.4536 18.9828 20.5 18.9962 20.5349 19.0082C20.5789 19.0234 20.5673 19.0238 20.5276 18.9994L21.5746 17.2953C21.327 17.1432 21.0219 17.0632 20.8838 17.0288C20.7941 17.0065 20.7139 16.9895 20.6562 16.978C20.6271 16.9722 20.6029 16.9676 20.5851 16.9644C20.5762 16.9628 20.5689 16.9615 20.5633 16.9605C20.5605 16.96 20.5581 16.9596 20.5562 16.9593C20.5553 16.9591 20.5544 16.9589 20.5537 16.9588C20.5534 16.9588 20.553 16.9587 20.5527 16.9587C20.5526 16.9586 20.5524 16.9586 20.5523 16.9586C20.5522 16.9586 20.5521 16.9586 20.5521 16.9585C20.552 16.9585 20.5519 16.9585 20.3854 17.9445ZM17.0602 14.7076C16.7483 15.6354 16.67 16.7132 17.3023 17.6034C17.9267 18.4825 19.027 18.8684 20.3282 18.9429L20.4425 16.9462C19.3944 16.8861 19.0419 16.5987 18.9329 16.4453C18.8318 16.3029 18.7395 15.9888 18.9559 15.3448L17.0602 14.7076ZM17.8459 12.1681C16.9648 12.641 16.9646 12.6407 16.9644 12.6403C16.9644 12.6402 16.9642 12.6399 16.9641 12.6397C16.9638 12.6392 16.9636 12.6388 16.9634 12.6384C16.963 12.6376 16.9626 12.6369 16.9622 12.6362C16.9615 12.6349 16.961 12.6338 16.9606 12.6331C16.9598 12.6316 16.9597 12.6312 16.96 12.632C16.9608 12.6335 16.9637 12.6393 16.9684 12.6493C16.9777 12.6694 16.9939 12.7056 17.0136 12.7562C17.0532 12.858 17.1054 13.0138 17.1456 13.2092C17.2262 13.601 17.2545 14.1294 17.0602 14.7076L18.9559 15.3448C19.2899 14.3512 19.2371 13.4505 19.1046 12.8062C19.0382 12.4836 18.9508 12.2195 18.8775 12.031C18.8407 11.9365 18.8071 11.86 18.7807 11.8035C18.7675 11.7753 18.7561 11.752 18.747 11.7338C18.7425 11.7248 18.7385 11.717 18.7351 11.7105C18.7335 11.7073 18.7319 11.7044 18.7306 11.7018C18.7299 11.7006 18.7293 11.6994 18.7287 11.6982C18.7284 11.6977 18.7281 11.6971 18.7278 11.6966C18.7277 11.6964 18.7275 11.696 18.7274 11.6959C18.7272 11.6955 18.727 11.6951 17.8459 12.1681ZM18.089 10.2582L17.0638 11.5449L18.628 12.7912L19.6532 11.5045L18.089 10.2582ZM19.9346 10.2836C19.9598 10.2836 19.9435 10.2871 19.8762 10.2661C19.815 10.247 19.7426 10.2175 19.6665 10.1809C19.592 10.1452 19.5259 10.1086 19.4787 10.081C19.4555 10.0674 19.438 10.0567 19.4275 10.0501C19.4223 10.0469 19.419 10.0447 19.4176 10.0439C19.4169 10.0435 19.4168 10.0433 19.4171 10.0436C19.4173 10.0437 19.4177 10.0439 19.4181 10.0442C19.4183 10.0444 19.4186 10.0445 19.4189 10.0447C19.419 10.0448 19.4192 10.0449 19.4194 10.045C19.4195 10.0451 19.4196 10.0452 19.4196 10.0452C19.4198 10.0453 19.4199 10.0454 18.8711 10.8813C18.3223 11.7173 18.3225 11.7174 18.3226 11.7175C18.3227 11.7175 18.3228 11.7176 18.3229 11.7177C18.3231 11.7178 18.3233 11.718 18.3236 11.7181C18.324 11.7184 18.3245 11.7187 18.325 11.7191C18.3261 11.7198 18.3273 11.7205 18.3286 11.7214C18.3313 11.7232 18.3347 11.7253 18.3386 11.7278C18.3464 11.7329 18.3567 11.7394 18.3691 11.7471C18.3939 11.7626 18.4278 11.7833 18.4691 11.8074C18.5508 11.8552 18.6661 11.9192 18.8011 11.984C19.0319 12.0948 19.4705 12.2836 19.9346 12.2836V10.2836ZM20.6108 10.0306C20.5192 10.0755 20.3641 10.1475 20.203 10.206C20.1229 10.2351 20.0524 10.2568 19.9953 10.2705C19.9329 10.2855 19.916 10.2836 19.9346 10.2836V12.2836C20.2964 12.2836 20.6595 12.1681 20.8862 12.0857C21.1405 11.9933 21.3664 11.8876 21.4914 11.8263L20.6108 10.0306ZM22.0511 10.9285V10.8813H20.0511V10.9285H22.0511ZM21.0511 10.8813C20.5829 11.765 20.5829 11.765 20.5829 11.765C20.5829 11.765 20.5829 11.765 20.5829 11.765C20.5829 11.765 20.583 11.765 20.583 11.765C20.583 11.765 20.5831 11.7651 20.5831 11.7651C20.5832 11.7651 20.5833 11.7652 20.5834 11.7652C20.5836 11.7654 20.5838 11.7655 20.5841 11.7656C20.5845 11.7658 20.5851 11.7661 20.5857 11.7664C20.5869 11.7671 20.5884 11.7679 20.5901 11.7688C20.5935 11.7706 20.598 11.7729 20.6035 11.7758C20.6145 11.7814 20.6294 11.7891 20.6478 11.7983L21.5477 10.0122C21.5362 10.0064 21.5278 10.0021 21.5229 9.99957C21.5204 9.99831 21.5189 9.99749 21.5182 9.99717C21.5179 9.99701 21.5179 9.99698 21.5181 9.99707C21.5181 9.99712 21.5183 9.9972 21.5185 9.99731C21.5186 9.99736 21.5187 9.99743 21.5189 9.9975C21.5189 9.99754 21.519 9.99757 21.5191 9.99761C21.5191 9.99763 21.5192 9.99766 21.5192 9.99768C21.5192 9.99769 21.5192 9.9977 21.5193 9.99771C21.5193 9.99771 21.5193 9.99772 21.5193 9.99773C21.5193 9.99773 21.5193 9.99774 21.0511 10.8813Z" fill="white" mask="url(#path-14-outside-2_91_25964)"/></g></mask><g mask="url(#mask1_91_25964)"><rect id="Rectangle 52" x="17.9678" y="10.7271" width="3.13043" height="3.81818" fill="#67BAFF"/><rect id="Rectangle 52_2" x="21.0981" y="10.7271" width="3.13043" height="3.81818" fill="white"/><rect id="Rectangle 52_3" x="17.5762" y="14.9092" width="7.82609" height="4.36364" fill="#C51918"/><path id="Path 201" d="M22.6144 14.2749H22.2231V11.6602H22.6144V14.2749Z" fill="#C9A951"/><path id="Path 202" d="M22.4555 13.0852L22.2648 13.3889L21.5894 13.0537L21.7801 12.75L22.4555 13.0852Z" fill="#C9A951"/><path id="Path 202_2" d="M22.4555 12.3582L22.2648 12.6619L21.5894 12.3266L21.7801 12.0229L22.4555 12.3582Z" fill="#C9A951"/><path id="Path 202_3" d="M22.3721 13.0852L22.5629 13.3889L23.2383 13.0537L23.0475 12.75L22.3721 13.0852Z" fill="#C9A951"/><path id="Path 202_4" d="M22.3721 12.3582L22.5629 12.6619L23.2383 12.3266L23.0475 12.0229L22.3721 12.3582Z" fill="#C9A951"/><path id="Path 203" fill-rule="evenodd" clip-rule="evenodd" d="M22.9453 15.7048C22.9453 15.7048 23.2175 15.4282 23.2175 15.5665C23.2175 15.7048 23.2175 15.9374 23.0814 15.9374C22.9453 15.9374 22.3113 15.8268 22.0697 15.5665C21.8282 15.3062 21.3172 14.8531 20.6594 14.9598C20.0017 15.0665 19.2215 15.8245 19.0292 15.8245C18.8369 15.8245 18.4155 16.4087 18.7223 16.8649C19.0292 17.3212 19.5512 17.1796 19.5512 17.312C19.5512 17.4444 19.6818 17.4596 20.1706 17.4596C20.6594 17.4596 20.8382 17.6129 21.2614 17.6129C21.6846 17.6129 21.1217 17.6072 21.8033 17.4596C22.4849 17.312 23.0011 16.8649 22.6039 16.8649C22.2068 16.8649 22.0784 16.8649 21.8033 16.8649C21.5281 16.8649 20.9157 17.0412 20.9157 16.8649C20.9157 16.6887 21.0517 16.3113 21.4275 16.5C21.8033 16.6887 22.8475 16.8326 23.2175 16.5C23.5876 16.1674 23.717 15.9668 23.6523 15.5665C23.5876 15.1662 23.0814 15.2814 23.0814 15.2814L22.9453 15.7048Z" fill="#FBCD17"/><path id="Path 199" fill-rule="evenodd" clip-rule="evenodd" d="M20.2983 11.5698C20.0624 11.7532 20.2146 12.4234 19.8281 12.4234C19.4416 12.4234 18.8977 11.9215 18.7607 12.2527C18.6238 12.5838 18.7607 12.4726 18.7607 12.7546C18.7607 13.0366 18.4327 13.8203 18.5967 13.9528C18.7607 14.0853 18.9288 14.4344 18.8997 14.271C18.8706 14.1076 18.7466 13.8676 18.7982 13.6069C18.7483 13.3376 19.0747 13.0785 19.0747 13.0785C19.0747 13.0785 19.0392 13.3581 19.0135 13.4624C19.0135 13.4624 18.9059 13.6728 18.9496 13.8126C18.9496 13.8126 19.0601 14.2065 19.1057 14.2337C19.1057 14.2337 19.1353 13.301 19.1689 13.1473C19.2026 12.9936 19.4424 13.3207 19.5222 13.2836C19.5222 13.2836 19.5496 13.9214 19.5081 13.9974C19.5081 13.9974 19.424 14.1482 19.4553 14.1964C19.4553 14.1964 19.5333 14.371 19.5999 14.3202C19.5999 14.3202 19.6023 14.3165 19.636 14.1466C19.636 14.1466 19.5968 14.044 19.6582 13.8103C19.6582 13.8103 19.7228 13.2958 19.7495 13.4074C19.7495 13.4074 19.7375 13.6503 19.7684 13.7755C19.7684 13.7755 19.8176 14.0864 19.8275 14.1205C19.8275 14.1205 20.0636 14.4195 20.0699 14.2932C20.0699 14.2932 19.8435 14.0533 19.892 13.8707C19.892 13.8707 19.7624 13.3535 19.9433 13.2382C19.9433 13.2382 20.4233 13.0408 20.4521 12.7031C20.4521 12.7031 20.5217 12.3181 20.5341 12.1416C20.5341 12.1416 20.4289 12.0898 20.6465 11.9986C20.6465 11.9986 20.9968 11.8791 20.7785 11.7129" fill="#D18219"/></g></g></g></g></g></g></g></g><defs><filter id="filter0_dd_91_25964" x="0" y="0" width="42" height="30" filterUnits="userSpaceOnUse" color-interpolation-filters="sRGB"><feFlood flood-opacity="0" result="BackgroundImageFix"/><feColorMatrix in="SourceAlpha" values="0 0 0 0 0 0 0 0 0 0 0 0 0 0 0 0 0 0 127 0" result="hardAlpha"/><feOffset dy="1"/><feGaussianBlur stdDeviation="1"/><feColorMatrix values="0 0 0 0 0.0627451 0 0 0 0 0.0941176 0 0 0 0 0.156863 0 0 0 0.06 0"/><feBlend in2="BackgroundImageFix" result="effect1_dropShadow_91_25964"/><feColorMatrix in="SourceAlpha" values="0 0 0 0 0 0 0 0 0 0 0 0 0 0 0 0 0 0 127 0" result="hardAlpha"/><feOffset dy="1"/><feGaussianBlur stdDeviation="1.5"/><feColorMatrix values="0 0 0 0 0.0627451 0 0 0 0 0.0941176 0 0 0 0 0.156863 0 0 0 0.1 0"/><feBlend in2="effect1_dropShadow_91_25964" result="effect2_dropShadow_91_25964"/><feBlend in="SourceGraphic" in2="effect2_dropShadow_91_25964" result="shape"/></filter><clipPath id="clip0_91_25964"><rect x="3" y="2" width="36" height="24" rx="2" fill="white"/></clipPath></defs></svg>