<svg width="42" height="30" viewBox="0 0 42 30" fill="none" xmlns="http://www.w3.org/2000/svg"><g id="Country=PW - Palau, Size=sm (36x24)" filter="url(#filter0_dd_91_25522)"><g clip-path="url(#clip0_91_25522)"><g id="flag"><mask id="mask0_91_25522" style="mask-type:alpha" maskUnits="userSpaceOnUse" x="3" y="2" width="36" height="24"><rect id="mask" x="3" y="2" width="36" height="24" fill="white"/></mask><g mask="url(#mask0_91_25522)"><g id="contents"><path id="background" fill-rule="evenodd" clip-rule="evenodd" d="M3 2V26H39V2H3Z" fill="#61C6F0"/><mask id="mask1_91_25522" style="mask-type:alpha" maskUnits="userSpaceOnUse" x="3" y="2" width="36" height="24"><path id="background_2" fill-rule="evenodd" clip-rule="evenodd" d="M3 2V26H39V2H3Z" fill="white"/></mask><g mask="url(#mask1_91_25522)"><path id="mark" fill-rule="evenodd" clip-rule="evenodd" d="M15.9375 20C19.9761 20 23.25 17.0899 23.25 13.5C23.25 9.91015 19.9761 7 15.9375 7C11.8989 7 8.625 9.91015 8.625 13.5C8.625 17.0899 11.8989 20 15.9375 20Z" fill="#FBCD17"/></g></g></g></g></g></g><defs><filter id="filter0_dd_91_25522" x="0" y="0" width="42" height="30" filterUnits="userSpaceOnUse" color-interpolation-filters="sRGB"><feFlood flood-opacity="0" result="BackgroundImageFix"/><feColorMatrix in="SourceAlpha" values="0 0 0 0 0 0 0 0 0 0 0 0 0 0 0 0 0 0 127 0" result="hardAlpha"/><feOffset dy="1"/><feGaussianBlur stdDeviation="1"/><feColorMatrix values="0 0 0 0 0.0627451 0 0 0 0 0.0941176 0 0 0 0 0.156863 0 0 0 0.06 0"/><feBlend in2="BackgroundImageFix" result="effect1_dropShadow_91_25522"/><feColorMatrix in="SourceAlpha" values="0 0 0 0 0 0 0 0 0 0 0 0 0 0 0 0 0 0 127 0" result="hardAlpha"/><feOffset dy="1"/><feGaussianBlur stdDeviation="1.5"/><feColorMatrix values="0 0 0 0 0.0627451 0 0 0 0 0.0941176 0 0 0 0 0.156863 0 0 0 0.1 0"/><feBlend in2="effect1_dropShadow_91_25522" result="effect2_dropShadow_91_25522"/><feBlend in="SourceGraphic" in2="effect2_dropShadow_91_25522" result="shape"/></filter><clipPath id="clip0_91_25522"><rect x="3" y="2" width="36" height="24" rx="2" fill="white"/></clipPath></defs></svg>