<svg xmlns="http://www.w3.org/2000/svg" width="42" height="30" fill="none"><g filter="url(#a)"><g clip-path="url(#b)"><mask id="c" width="36" height="24" x="3" y="2" maskUnits="userSpaceOnUse" style="mask-type:alpha"><path fill="#fff" d="M3 2h36v24H3z"/></mask><g mask="url(#c)"><path fill="#4857A1" fill-rule="evenodd" d="M3 2v24h36V2H3Z" clip-rule="evenodd"/><mask id="d" width="36" height="24" x="3" y="2" maskUnits="userSpaceOnUse" style="mask-type:alpha"><path fill="#fff" fill-rule="evenodd" d="M3 2v24h36V2H3Z" clip-rule="evenodd"/></mask><g mask="url(#d)" fill-rule="evenodd" clip-rule="evenodd"><path fill="#C51918" d="M3 2v8h36V2H3Z"/><path fill="#F7FCFF" d="M3 18v8h36v-8H3Z"/><path fill="#F6C540" d="m15.887 5.803-.127-.453c.109.03.227.06.351.09l-.001-.005c1.485.12 3.78.803 4.208 1.529.165.28 0 .52-.215.833l-.099.146c-.108.163-.206.319-.298.466-.334.53-.594.944-.99 1.156l.008 1.201-6.633-.05-.008-1.214c-.34-.225-.582-.61-.885-1.093-.092-.147-.19-.303-.299-.466-.033-.05-.066-.1-.099-.146-.215-.313-.38-.553-.214-.833.321-.546 1.777-1.076 3.11-1.357.263-.083.537-.16.81-.235l.12.078a6.07 6.07 0 0 1 .306-.03l.153.302h.54s.326.86.326 1.338c0 .478-.326.874-.326.874v.33l.178.015c0-.029.003-.059.01-.09.03-.158.128-.274.217-.26.088.014.135.153.104.31a.525.525 0 0 1-.02.074c.35.042.741.101 1.113.162.141-.244.314-.485.479-.715.425-.594.799-1.115.45-1.427a1.026 1.026 0 0 0-.34-.164c-.51-.113-1.065-.2-1.605-.244l-.016-.078-.308-.044Zm2.52 2.88.304.057v.172c.658-.45 1.123-1.448 1.165-1.774.025-.197-.327-.424-.878-.63.261.44-.088.876-.526 1.423-.165.206-.342.428-.505.67l.161.03a.47.47 0 0 1 .021-.148c.047-.155.155-.263.242-.243.087.021.12.163.073.318a.507.507 0 0 1-.056.125Zm-3.388-.417v-.368s-.283-.28-.326-.864c-.032-.418.065-.91.123-1.155a13.97 13.97 0 0 0-1.295.212c-.286.071-.513.152-.615.242-.348.312.025.833.451 1.427.16.223.325.455.464.69.24-.046.48-.089.706-.123a.499.499 0 0 1-.02-.1c-.016-.16.044-.294.133-.301.09-.007.176.116.191.276a.501.501 0 0 1 .002.083 6.44 6.44 0 0 1 .186-.02Zm-1.925.334a9.584 9.584 0 0 0-.503-.669c-.448-.56-.803-1.003-.508-1.453-.646.222-1.08.463-1.055.66.04.308.457 1.216 1.057 1.695.042-.01.274-.068.601-.143a.507.507 0 0 1-.064-.122c-.055-.152-.031-.296.055-.32.085-.025.2.078.255.23a.47.47 0 0 1 .03.15l.132-.028Z"/><path fill="#2E42A5" d="M16.109 5.506c0 .352-.329.636-.734.636-.405 0-.734-.284-.734-.636 0-.351.329-.636.734-.636.405 0 .734.285.734.636Zm-.734 4.726c.315 0 .57-.13.57-.29 0-.16-.255-.29-.57-.29-.315 0-.57.13-.57.29 0 .16.255.29.57.29Zm3.669-.072c0 .12-.11.217-.245.217s-.245-.098-.245-.218.11-.217.245-.217.245.097.245.217Zm-6.522 0c0 .12-.11.217-.245.217s-.244-.098-.244-.218.11-.217.244-.217c.135 0 .245.097.245.217Z"/><path fill="#C5363C" d="M14.152 10.015c0 .12-.182.217-.407.217-.226 0-.408-.097-.408-.217s.182-.218.408-.218c.225 0 .407.098.407.218Zm3.424 0c0 .12-.183.217-.408.217-.225 0-.407-.097-.407-.217s.182-.218.407-.218c.226 0 .408.098.408.218Z"/><path fill="#F7FCFF" d="M16.761 8.203c0 .16-.073.29-.163.29-.09 0-.163-.13-.163-.29 0-.16.073-.29.163-.29.09 0 .163.13.163.29Zm-2.454-.045c.056.152.032.296-.054.32-.086.025-.2-.078-.256-.23-.056-.153-.031-.296.054-.32.086-.025.2.078.256.23Zm-1.918.786c.086-.025.11-.168.055-.32-.056-.153-.17-.256-.256-.231-.086.024-.11.168-.055.32.056.152.17.256.256.231Zm6.452-.197c-.096.136-.235.212-.311.17-.077-.043-.061-.188.034-.323.096-.136.235-.212.311-.17.077.043.061.188-.034.323Z"/><path fill="#fff" d="M13.99 5.792c.046.03.101.047.162.047.152 0 .276-.11.276-.245s-.124-.245-.276-.245a.28.28 0 0 0-.246.136.298.298 0 0 0-.163-.047.285.285 0 0 0-.231.112.296.296 0 0 0-.175-.056c-.152 0-.276.11-.276.245l.001.022a.289.289 0 0 0-.214-.091c-.138 0-.253.09-.273.208a.289.289 0 0 0-.216-.094c-.133 0-.243.083-.27.193a.298.298 0 0 0-.16-.046.275.275 0 0 0-.262.169.303.303 0 0 0-.124-.026c-.136 0-.249.087-.271.202a.311.311 0 0 0-.055-.004c-.15 0-.273.107-.275.24a.311.311 0 0 0-.05-.003c-.153 0-.276.11-.276.244 0 .018.002.034.005.05a.31.31 0 0 0-.056-.005c-.152 0-.275.11-.275.245 0 .103.07.191.172.227a.222.222 0 0 0-.01.063c0 .103.072.19.173.227a.222.222 0 0 0-.01.063c0 .132.118.24.265.245a.235.235 0 0 0-.101.19c0 .135.123.245.275.245.152 0 .276-.11.276-.245 0-.132-.118-.24-.265-.245a.235.235 0 0 0 .102-.19.247.247 0 0 0-.172-.227.218.218 0 0 0 .009-.063.247.247 0 0 0-.172-.227.218.218 0 0 0 .003-.113.31.31 0 0 0 .056.005c.15 0 .273-.107.276-.24a.31.31 0 0 0 .05.003c.136 0 .25-.087.272-.202a.31.31 0 0 0 .054.005.275.275 0 0 0 .262-.169.302.302 0 0 0 .285-.02.233.233 0 0 0 .046.089.226.226 0 0 0-.053.145c0 .132.118.24.265.244a.235.235 0 0 0-.102.19c0 .103.071.191.172.227a.222.222 0 0 0-.009.063c0 .103.071.19.172.227a.218.218 0 0 0-.009.063c0 .135.123.245.276.245.152 0 .275-.11.275-.245a.247.247 0 0 0-.172-.227.222.222 0 0 0 .01-.063.247.247 0 0 0-.173-.227.222.222 0 0 0 .01-.063c0-.132-.118-.24-.265-.244a.235.235 0 0 0 .101-.19.226.226 0 0 0-.053-.145.226.226 0 0 0 .053-.145.226.226 0 0 0-.053-.145.23.23 0 0 0 .05-.108c.05.057.129.094.217.094.152 0 .275-.11.275-.245v-.023c.05.056.127.092.214.092a.285.285 0 0 0 .231-.112.296.296 0 0 0 .175.056.28.28 0 0 0 .247-.136Zm-1.792.436c.045.029.1.046.16.046a.29.29 0 0 0 .223-.1.287.287 0 0 0-.221-.1c.027 0 .05-.02.05-.045 0-.025-.024-.045-.051-.045-.028 0-.051.02-.051.045 0 .024.022.044.05.045a.298.298 0 0 0-.161.046.246.246 0 0 0-.108-.143.22.22 0 0 0 .047.197.226.226 0 0 0-.046.2.245.245 0 0 0 .108-.146Zm0 0a.263.263 0 0 1-.062-.054.264.264 0 0 1 .06-.054.218.218 0 0 1 .002.108Zm.162-.154h-.001Zm0 .29c.09 0 .17.04.22.1-.05.06-.13.1-.221.1a.287.287 0 0 1-.223-.1c.05-.06.13-.1.222-.1-.028 0-.05-.02-.05-.045 0-.025.023-.045.05-.045.028 0 .051.02.051.045 0 .024-.022.044-.05.045Zm0 0h-.001Zm.591 1.032a.306.306 0 0 0-.103-.018c-.128 0-.236.077-.267.182a.305.305 0 0 0 .104.018c.127 0 .235-.077.266-.182Zm-.163-.29a.306.306 0 0 0-.103-.018c-.128 0-.236.078-.267.182a.306.306 0 0 0 .104.018c.127 0 .235-.077.266-.182Zm-.255-.307h-.011a.296.296 0 0 0-.174.054h.01a.3.3 0 0 0 .175-.054Zm-1.468 1.014h-.01a.297.297 0 0 0-.175.055h.011c.066 0 .127-.02.174-.055Zm-.07-.417c-.032.105-.14.182-.267.182a.306.306 0 0 1-.103-.018c.03-.105.138-.182.266-.182.037 0 .072.006.104.018Zm-.163-.29c-.032.105-.14.182-.267.182a.305.305 0 0 1-.103-.018c.03-.104.138-.182.266-.182a.32.32 0 0 1 .104.018Zm-.21-.302c.022.095.106.17.213.19a.262.262 0 0 0-.214-.19Zm.545-.047c-.128-.02-.225-.12-.225-.24v-.004c.128.02.225.12.225.24v.004Zm.322-.198c-.126-.023-.221-.122-.221-.24 0-.015.001-.029.004-.043.126.023.22.122.22.24a.227.227 0 0 1-.003.043Zm.316-.164a.244.244 0 0 1-.152-.219.22.22 0 0 1 .014-.076c.09.04.152.123.152.219a.222.222 0 0 1-.014.076Zm.826-.329a.227.227 0 0 1-.056-.188.227.227 0 0 1 .056.188Zm.431-.305a.23.23 0 0 0 .06.131.23.23 0 0 0-.06-.13Zm.506.11a.224.224 0 0 1-.056-.322c.061.046.1.114.1.19a.225.225 0 0 1-.044.133Zm.422-.079a.237.237 0 0 1-.114-.198c0-.04.01-.076.03-.11a.237.237 0 0 1 .113.199.22.22 0 0 1-.029.11Zm-2.773.77c.028 0 .05-.02.05-.045 0-.025-.022-.045-.05-.045-.028 0-.05.02-.05.045 0 .024.022.044.05.044Zm-.326.236c.028 0 .05-.02.05-.045 0-.024-.022-.044-.05-.044-.028 0-.05.02-.05.044 0 .025.022.045.05.045Zm-.326.29c.028 0 .05-.02.05-.045 0-.024-.022-.045-.05-.045-.028 0-.05.02-.05.045 0 .025.022.045.05.045Zm.163.29c.028 0 .05-.02.05-.045 0-.025-.022-.045-.05-.045-.028 0-.05.02-.05.045 0 .025.022.045.05.045Zm.163.29c.028 0 .05-.02.05-.045 0-.025-.022-.045-.05-.045-.028 0-.05.02-.05.045 0 .025.022.045.05.045Zm.214.39c0 .025-.023.045-.05.045-.029 0-.051-.02-.051-.045 0-.025.022-.045.05-.045.028 0 .05.02.05.045Zm.438-1.694c.028 0 .05-.02.05-.045 0-.025-.022-.045-.05-.045-.027 0-.05.02-.05.045 0 .025.022.045.05.045Zm.386-.143c.027 0 .05-.02.05-.045 0-.025-.023-.045-.05-.045-.028 0-.051.02-.051.045 0 .025.023.045.05.045Zm.919-.261c.028 0 .05-.02.05-.045 0-.025-.022-.045-.05-.045-.028 0-.05.02-.05.045 0 .025.022.045.05.045Zm.489-.176c.028 0 .05-.02.05-.045 0-.025-.022-.045-.05-.045-.028 0-.05.02-.05.045 0 .025.022.045.05.045Zm.407-.056c.027 0 .05-.02.05-.045 0-.025-.023-.045-.05-.045-.028 0-.051.02-.051.045 0 .025.023.045.05.045Zm.408-.089c.028 0 .05-.02.05-.045 0-.025-.022-.045-.05-.045-.028 0-.05.02-.05.045 0 .025.022.045.05.045ZM12.36 6.653c.027 0 .05-.02.05-.044 0-.025-.023-.045-.05-.045-.028 0-.051.02-.051.045 0 .024.023.044.05.044Zm.163.435c.027 0 .05-.02.05-.045 0-.024-.022-.045-.05-.045-.028 0-.05.02-.05.045 0 .025.022.045.05.045Zm.163.29c.028 0 .05-.02.05-.045 0-.025-.022-.045-.05-.045-.028 0-.05.02-.05.045 0 .025.022.045.05.045Zm.163.29c.028 0 .05-.02.05-.045 0-.025-.022-.045-.05-.045-.028 0-.05.02-.05.045 0 .025.022.045.05.045Zm7.174.435c.028 0 .05-.02.05-.045 0-.025-.022-.045-.05-.045-.028 0-.05.02-.05.045 0 .025.022.045.05.045Zm-.276-.045c0 .135.123.245.276.245.152 0 .275-.11.275-.245a.235.235 0 0 0-.102-.19c.148-.005.265-.113.265-.245a.222.222 0 0 0-.009-.063.247.247 0 0 0 .172-.227.222.222 0 0 0-.009-.063.247.247 0 0 0 .172-.227c0-.135-.123-.245-.275-.245a.31.31 0 0 0-.056.006.218.218 0 0 0 .005-.05c0-.136-.123-.245-.275-.245a.311.311 0 0 0-.05.004c-.003-.134-.126-.241-.276-.241a.311.311 0 0 0-.055.004c-.022-.115-.135-.202-.271-.202a.303.303 0 0 0-.124.026.275.275 0 0 0-.261-.169.298.298 0 0 0-.161.046c-.027-.11-.137-.193-.27-.193a.289.289 0 0 0-.216.094c-.02-.118-.135-.208-.273-.208a.289.289 0 0 0-.215.091l.002-.022c0-.135-.124-.245-.276-.245a.296.296 0 0 0-.175.056.285.285 0 0 0-.232-.112.298.298 0 0 0-.162.047.28.28 0 0 0-.246-.136c-.152 0-.276.11-.276.245s.124.245.276.245c.06 0 .116-.017.162-.047a.28.28 0 0 0 .246.136.292.292 0 0 0 .175-.056c.05.067.135.112.232.112a.289.289 0 0 0 .215-.092.237.237 0 0 0-.001.023c0 .135.123.245.275.245a.289.289 0 0 0 .217-.094.23.23 0 0 0 .05.108.226.226 0 0 0-.053.145c0 .054.02.104.053.145a.226.226 0 0 0-.053.145c0 .076.04.145.101.19-.147.005-.264.112-.264.244 0 .022.003.043.009.063a.247.247 0 0 0-.172.227c0 .022.003.043.009.063a.247.247 0 0 0-.172.227c0 .135.123.245.275.245.152 0 .276-.11.276-.245a.218.218 0 0 0-.01-.063.247.247 0 0 0 .173-.227.218.218 0 0 0-.01-.063.247.247 0 0 0 .173-.227.235.235 0 0 0-.102-.19c.147-.005.265-.112.265-.244a.226.226 0 0 0-.054-.145.233.233 0 0 0 .047-.09.302.302 0 0 0 .285.02c.036.099.14.17.262.17a.31.31 0 0 0 .054-.005c.023.115.136.202.272.202a.31.31 0 0 0 .05-.004c.003.134.125.241.276.241a.31.31 0 0 0 .056-.005.218.218 0 0 0 .003.113.247.247 0 0 0-.172.227c0 .022.003.043.01.063a.247.247 0 0 0-.173.227c0 .077.04.145.102.19-.147.005-.265.113-.265.245Zm-.868-1.83a.298.298 0 0 1-.16.046.288.288 0 0 1-.223-.1c.05-.06.13-.1.221-.1-.027 0-.05-.02-.05-.045 0-.025.023-.045.051-.045.028 0 .05.02.05.045 0 .024-.021.044-.049.045.06 0 .116.017.161.046a.218.218 0 0 0 0 .108Zm.061-.054a.226.226 0 0 1 .047.2.245.245 0 0 1-.108-.146.263.263 0 0 0 .061-.054Zm0 0a.264.264 0 0 0-.06-.054.246.246 0 0 1 .108-.143.22.22 0 0 1-.048.197Zm-.22.19c.027 0 .049-.02.049-.045 0-.025-.023-.045-.05-.045-.029 0-.051.02-.051.045 0 .024.022.044.05.045a.29.29 0 0 0-.222.1c.05.06.131.1.222.1s.172-.04.222-.1a.287.287 0 0 0-.22-.1Zm0 0h-.002.001Zm-.224 1.196a.273.273 0 0 0-.267-.182.306.306 0 0 0-.103.018c.031.105.139.182.266.182a.305.305 0 0 0 .104-.018Zm.163-.29a.274.274 0 0 0-.267-.182.306.306 0 0 0-.103.018c.031.105.139.182.266.182a.305.305 0 0 0 .104-.018Zm.07-.417a.296.296 0 0 0-.174-.055h-.01a.296.296 0 0 0 .173.055h.011Zm-1.642-1.06a.237.237 0 0 0 .113-.199.22.22 0 0 0-.029-.11.237.237 0 0 0-.113.199c0 .04.01.076.029.11Zm.422.079a.224.224 0 0 0 .056-.322.225.225 0 0 0-.056.322Zm.506-.11a.23.23 0 0 1-.06.13.23.23 0 0 1 .06-.13Zm.43.304a.227.227 0 0 0 .057-.188.227.227 0 0 0-.056.188Zm.827.33a.244.244 0 0 0 .152-.22.22.22 0 0 0-.014-.076.244.244 0 0 0-.152.219.22.22 0 0 0 .014.076Zm.316.163c.126-.023.221-.122.221-.24a.219.219 0 0 0-.004-.043c-.126.023-.22.122-.22.24 0 .015 0 .03.003.043Zm.654.434a.262.262 0 0 0 .213-.19.262.262 0 0 0-.213.19Zm-.107-.48v.004c0 .12-.097.22-.225.24v-.004c0-.12.097-.22.225-.24Zm.11.593a.305.305 0 0 1 .104-.018c.128 0 .235.078.266.182a.306.306 0 0 1-.103.018.273.273 0 0 1-.267-.182Zm-.163.29a.305.305 0 0 1 .104-.018c.128 0 .235.077.266.182a.306.306 0 0 1-.103.018.273.273 0 0 1-.267-.182Zm.104.472a.296.296 0 0 1-.174-.055h.01c.066 0 .127.02.174.055h-.01Zm0-.2c.028 0 .05-.02.05-.045 0-.025-.022-.045-.05-.045-.028 0-.05.02-.05.045 0 .025.022.045.05.045Zm.163-.29c.028 0 .05-.02.05-.045 0-.025-.022-.045-.05-.045-.028 0-.05.02-.05.045 0 .025.022.045.05.045Zm.163-.29c.028 0 .05-.02.05-.045 0-.024-.022-.045-.05-.045-.028 0-.05.02-.05.045 0 .025.022.045.05.045Zm-.326-.29c.028 0 .05-.02.05-.045 0-.024-.022-.044-.05-.044-.028 0-.05.02-.05.044 0 .025.022.045.05.045Zm-.326-.237c.027 0 .05-.02.05-.044 0-.025-.022-.045-.05-.045-.028 0-.051.02-.051.045 0 .024.023.044.05.044Zm-.327-.197c.028 0 .051-.02.051-.045 0-.025-.023-.045-.05-.045-.028 0-.051.02-.051.045 0 .025.023.045.05.045Zm-.384-.143c.027 0 .05-.02.05-.045 0-.025-.023-.045-.05-.045-.029 0-.051.02-.051.045 0 .025.022.045.05.045Zm-.92-.261c.028 0 .05-.02.05-.045 0-.025-.022-.045-.05-.045-.028 0-.05.02-.05.045 0 .025.022.045.05.045Zm-.489-.176c.028 0 .05-.02.05-.045 0-.025-.022-.045-.05-.045-.028 0-.05.02-.05.045 0 .025.022.045.05.045Zm-.407-.056c.028 0 .05-.02.05-.045 0-.025-.022-.045-.05-.045-.027 0-.05.02-.05.045 0 .025.023.045.05.045Zm-.408-.089c.028 0 .05-.02.05-.045 0-.025-.022-.045-.05-.045-.028 0-.05.02-.05.045 0 .025.022.045.05.045Zm1.793 1.014c.028 0 .05-.02.05-.044 0-.025-.022-.045-.05-.045-.028 0-.05.02-.05.045 0 .024.022.044.05.044Zm-.163.435c.028 0 .05-.02.05-.045 0-.024-.022-.045-.05-.045-.028 0-.05.02-.05.045 0 .025.022.045.05.045Zm-.163.29c.028 0 .05-.02.05-.045 0-.025-.022-.045-.05-.045-.028 0-.05.02-.05.045 0 .025.022.045.05.045Zm-.163.29c.028 0 .05-.02.05-.045 0-.025-.022-.045-.05-.045-.028 0-.05.02-.05.045 0 .025.022.045.05.045Z"/><path fill="#F6C540" d="m15.49 4.154-.242.004v.353h-.446l.005.214h.441v.403l.242-.004v-.399h.439l-.005-.214h-.434v-.357Z"/><path fill="#C51918" d="M9.508 10.734h11.7v8.833s-.354 4.4-5.85 4.4c-5.496 0-5.85-4.4-5.85-4.4v-8.833Z"/><path fill="#E8AA00" d="M13.039 11.04c-.108 0-.273.068-.492.146-.219.077-.449.245-.224.412.224.168.546.536.546.398 0-.137.383-.27.383-.204 0 .067-.119.204.193.204s.472.082.14.082c-.333 0-.369.136-.585.136-.216 0-.677-.137-.677-.218 0-.08.267.398.546.398.278 0 .437.233.576.116.14-.116.123-.116.349-.116.226 0 .143-.47.143-.47s-.791-.884-.898-.884Zm4.515 0c.107 0 .272.068.491.146.219.077.449.245.224.412-.224.168-.545.536-.545.398 0-.137-.384-.27-.384-.204 0 .067.119.204-.193.204s-.472.082-.14.082c.333 0 .37.136.585.136.216 0 .677-.137.677-.218 0-.08-.267.398-.545.398-.279 0-.437.233-.577.116-.14-.116-.123-.116-.349-.116-.225 0-.143-.47-.143-.47s.791-.884.899-.884Z"/><path fill="#F7FCFF" d="M18.988 12c.224.465-1.494 2.192-1.494 2.192H17.3c-.08 0-.231-.177-.413-.39a6.163 6.163 0 0 0-.405-.447c-.266-.255-.125-.47.006-.67.04-.06.08-.12.107-.18.057-.129.065-.18.075-.239.009-.057.019-.12.075-.266.083-.215.372-.492.572-.684.077-.075.141-.136.175-.177.108-.127.026-.126-.197-.124h-.1c-.299 0-.868.124-1.038.27-.17.144-.349.175-.61.175-.263 0-.101.157.138.263-.258.044-.422.425-.52.763-.052-.338-.168-.72-.425-.763.238-.106.4-.263.138-.263s-.44-.03-.611-.176c-.17-.145-.74-.269-1.037-.269h-.1c-.224-.002-.306-.003-.198.124.034.04.098.102.175.177.2.192.49.469.572.684.056.146.066.21.075.266.01.059.018.11.075.239.027.06.066.12.107.18.131.2.272.415.006.67-.141.136-.28.3-.405.446-.182.214-.332.39-.413.39h-.192s-1.72-1.726-1.495-2.191c.087-.18.226-.35.342-.49.184-.222.307-.37.06-.37-.402 0-2.005.903-2.005 2.94s.148 3.196.492 4.008c.234.554.02 1.092-.14 1.492-.075.187-.138.344-.138.459 0 .362.631.045.631-.182 0-.108.087.053.177.221.1.186.205.381.205.237 0-.155.101-.318.19-.461.07-.113.132-.214.132-.29 0-.075.088-.072.187-.069.126.004.269.009.269-.146 0-.104.046-.124.102-.15.093-.043.217-.1.217-.566 0-.346.078-.224.167-.083.082.13.175.274.224.083.005-.019.057-.1.12-.198.094-.145.212-.329.25-.422a3.047 3.047 0 0 1-.576 1.034c-.185.21-.504.665-.504.665s.297.148.504 0c.115-.082.123-.005.132.08.006.066.013.137.074.137.039 0 .075.006.107.011a.587.587 0 0 0 .064.008c-.069.156-.13.405.077.238.148-.119.252-.167.32-.199.08-.037.113-.052.113-.13 0-.078.032-.051.083-.01.043.036.101.082.164.082.08 0 .097-.099.121-.244.017-.097.036-.214.08-.335l.03-.082c.09-.25.132-.366.234-.05.048.146.132.25.205.341.1.124.18.223.12.37-.023.059-.053.124-.084.194-.108.24-.24.536-.24.768 0 .138-.142.327-.275.504-.156.207-.3.399-.191.476.202.143-.043.626-.247.873-.205.248-.171.55.139.55.17 0 .262.054.345.104.069.04.132.078.228.078a.535.535 0 0 0 .325-.093s.131.176.349.176c.217 0 .262-.176.262-.176l.16.176.013-.766v.766l.495-.176s.045.176.262.176c.218 0 .349-.176.349-.176s.113.093.325.093c.096 0 .16-.037.228-.078a.598.598 0 0 1 .345-.104c.31 0 .344-.302.14-.55-.205-.247-.45-.73-.248-.873.11-.077-.035-.269-.19-.476-.133-.177-.275-.366-.275-.504 0-.232-.133-.527-.24-.768a5.937 5.937 0 0 1-.085-.194c-.06-.147.02-.246.12-.37a1.05 1.05 0 0 0 .205-.342c.102-.315.144-.198.234.051l.03.081c.044.122.064.24.08.336.024.145.04.245.121.245.063 0 .12-.047.165-.083.05-.041.082-.068.082.01s.033.093.113.13c.069.032.172.08.32.2.208.166.146-.083.077-.24.019 0 .04-.003.064-.007a.683.683 0 0 1 .107-.01c.06 0 .068-.072.075-.138.008-.085.016-.162.131-.08.207.148.504 0 .504 0s-.319-.455-.504-.665a3.047 3.047 0 0 1-.576-1.034c.038.093.156.277.25.422.063.099.115.18.12.198.05.191.141.046.224-.083.09-.14.167-.263.167.083 0 .466.124.523.217.566.056.026.102.046.102.15 0 .155.143.15.269.146.099-.003.187-.006.187.07 0 .075.063.176.132.289.09.143.19.306.19.46 0 .145.105-.05.205-.236.09-.168.177-.329.177-.221 0 .227.63.544.63.182 0-.115-.062-.272-.136-.459-.16-.4-.375-.938-.14-1.492.343-.812.491-1.97.491-4.008 0-2.037-1.603-2.94-2.005-2.94-.247 0-.124.148.06.37.116.14.255.31.342.49Zm-1.494 5.968Zm.134 1.889c0-.05.04.006.077.09-.047.002-.077-.015-.077-.09Zm-4.907.09c.047.002.077-.015.077-.09 0-.05-.04.006-.077.09Zm.2-1.934Z"/><path fill="#E8AA00" d="M12.212 21.201c0-.14.405-.466.405-.466v.028c.057.04.418.305.418.435 0 .08-.047.197-.087.296a.672.672 0 0 0-.056.174c0 .023.01.006.03-.025.05-.076.159-.243.31-.131.202.147.2.365.2.503v.023c0 .043 0 .043-.007.023-.014-.044-.057-.182-.192-.182-.198 0-.341.16-.341.16v.271s.025.225.143.113.143.138 0 .138c-.073 0-.148.07-.222.137-.07.064-.14.128-.204.128v-.023c-.06-.004-.111-.06-.162-.117-.056-.061-.113-.125-.186-.125-.143 0-.118-.25 0-.138.118.112.143-.112.143-.112v-.273s-.143-.16-.34-.16c-.136 0-.18.139-.193.183-.007.02-.007.02-.007-.023v-.023c0-.138-.002-.356.2-.503.151-.112.26.055.31.131.02.031.03.047.03.025 0-.034-.035-.098-.075-.172-.054-.099-.117-.214-.117-.295Zm5.381 0c0-.14.404-.466.404-.466v.028c.057.04.418.305.418.435 0 .08-.047.197-.087.296a.672.672 0 0 0-.056.174c0 .023.01.006.03-.025.05-.076.16-.243.311-.131.201.147.2.365.2.503l-.001.023c0 .043 0 .043-.007.023-.013-.044-.057-.182-.192-.182-.198 0-.34.16-.34.16v.271s.024.225.142.113.143.138 0 .138c-.073 0-.148.07-.221.137-.071.064-.14.128-.204.128v-.023c-.061-.004-.112-.06-.163-.117-.056-.061-.112-.125-.185-.125-.143 0-.118-.25 0-.138.118.112.143-.112.143-.112v-.273s-.143-.16-.341-.16c-.136 0-.179.139-.193.183-.006.02-.006.02-.006-.023v-.023c-.001-.138-.002-.356.199-.503.151-.112.26.055.31.131.02.031.03.047.03.025a.523.523 0 0 0-.075-.172c-.053-.099-.116-.214-.116-.295Z"/><path fill="#E8AA00" d="M11.809 20.359c.36 0 .434-.61.434-.61s.302-.278.302-.073c0 .11-.086.248-.152.353-.057.092-.098.158-.052.158h.499c.412 0-.072.172-.295.248-.101.035-.173.053-.241.07a2.17 2.17 0 0 0-.282.088c-.22.085-.315.644-.213.823.102.18-.102.104-.187 0-.047-.057-.081.022-.129.133-.038.088-.085.197-.154.272-.133.144-.132.016-.129-.258l.001-.146c0-.243.055-.245.136-.249a.246.246 0 0 0 .147-.042c.116-.083.13-.125.165-.233.012-.036.026-.08.048-.134.084-.218-.368.126-.496.29a.288.288 0 0 1-.213.125.844.844 0 0 0-.202.063c-.143.064-.104-.062-.057-.216.027-.089.057-.186.057-.262 0-.13.088-.097.201-.054.067.025.143.054.214.054.182 0 .277-.068.393-.153l.018-.013c.093-.068-.11-.047-.351-.023-.083.008-.17.017-.252.023-.185.013-.198.003-.244-.034-.034-.027-.084-.067-.23-.124-.348-.134.224-.076.475 0 .139.043.256.014.394-.02.11-.026.235-.056.395-.056Zm6.992 0c-.36 0-.434-.61-.434-.61s-.302-.278-.302-.073c0 .11.086.248.151.353.058.092.1.158.053.158h-.499c-.412 0 .072.172.295.248.1.035.172.053.241.07.083.021.161.041.282.088.22.085.315.644.213.823-.102.18.102.104.187 0 .047-.057.08.022.129.133a.974.974 0 0 0 .154.272c.133.144.132.016.129-.258l-.002-.146c0-.243-.054-.245-.135-.249a.246.246 0 0 1-.147-.042c-.117-.083-.13-.125-.166-.233a2.473 2.473 0 0 0-.047-.134c-.084-.218.368.126.495.29a.29.29 0 0 0 .213.125.81.81 0 0 1 .203.063c.142.064.104-.062.057-.216a1.012 1.012 0 0 1-.057-.262c0-.13-.088-.097-.201-.054-.067.025-.143.054-.215.054-.182 0-.276-.068-.392-.153a3.967 3.967 0 0 1-.018-.013c-.093-.068.11-.047.351-.023.083.008.17.017.251.023.186.013.198.003.245-.034a.753.753 0 0 1 .23-.124c.348-.134-.224-.076-.475 0-.14.043-.256.014-.395-.02-.11-.026-.234-.056-.394-.056Z"/><path fill="#C51918" d="M13.178 14.34h4.36v3.535s-.468 1.76-2.18 1.76c-1.712 0-2.18-1.76-2.18-1.76v-3.534Z"/><path fill="#F7FCFF" d="M15.945 14.29h-1.14v2.029h-1.631v.724h1.63v2.609h1.141v-2.609h1.631v-.724h-1.63v-2.03Z"/><path fill="#F7FCFF" d="M13.914 15.308c.109 0 .161-.082.103-.154-.03-.038-.093-.049-.14-.024a.115.115 0 0 0-.013.007 1.316 1.316 0 0 1-.063-.016.126.126 0 0 0-.068 0c-.026.008-.041-.016-.028-.166.012-.041.076-.067.227-.067.274 0 .387.026.387.049v.358l-.133.107c-.065.052-.02.14.072.14h.06v.274a.404.404 0 0 1-.223.085c-.246 0-.384-.081-.388-.177l.004-.063.021.006a.126.126 0 0 0 .07 0l.01-.002c.008-.003.014-.004.016-.002.004.002.004.01.003.03l-.001.027c-.002.045.043.082.1.083.056.001.102-.035.103-.08.005-.158-.095-.25-.261-.218-.098-.026-.166-.023-.22.03-.039.04-.044.072-.048.189.007.2.245.34.59.34a.653.653 0 0 0 .397-.153.075.075 0 0 0 .032-.059v-.392a.078.078 0 0 0-.04-.065l.01-.008a.074.074 0 0 0 .03-.058v-.392c0-.168-.195-.213-.591-.213-.234 0-.387.062-.428.207-.023.247.06.395.264.353.063.016.11.024.146.024Zm2.863-.154c-.058.072-.006.154.104.154a.622.622 0 0 0 .146-.024c.204.042.287-.106.264-.353-.041-.145-.195-.207-.428-.207-.397 0-.591.045-.591.213v.392c0 .022.01.042.03.058l.01.008a.077.077 0 0 0-.04.065v.392c0 .022.011.044.031.06a.66.66 0 0 0 .397.153c.345 0 .583-.14.59-.341-.003-.117-.009-.15-.048-.189-.053-.053-.122-.056-.22-.03-.165-.031-.265.06-.261.218.001.045.048.081.104.08.056 0 .1-.038.1-.083l-.001-.027c-.001-.02-.002-.028.002-.03.003-.002.008 0 .017.002l.01.003a.126.126 0 0 0 .07-.001l.02-.006a.686.686 0 0 1 .004.063c-.004.096-.142.177-.387.177a.404.404 0 0 1-.224-.085v-.275h.06c.091 0 .137-.088.073-.139l-.133-.107v-.358c0-.023.112-.05.387-.05.15 0 .215.027.227.068.012.15-.003.174-.03.166a.126.126 0 0 0-.067 0 1.287 1.287 0 0 1-.063.016.125.125 0 0 0-.012-.008c-.047-.024-.11-.013-.14.025Zm.343.5h-.004.004Zm-.24 2.263c-.109 0-.16-.082-.103-.154.03-.038.093-.05.14-.025a.125.125 0 0 1 .013.007l.063-.015a.126.126 0 0 1 .068 0c.026.008.041-.016.029-.166-.012-.042-.077-.068-.227-.068-.275 0-.387.026-.387.05v.358l.133.107c.064.051.018.14-.072.14h-.061v.274a.405.405 0 0 0 .224.085c.245 0 .383-.081.387-.178l-.003-.063-.022.007a.126.126 0 0 1-.07 0l-.009-.002c-.01-.003-.014-.005-.017-.003-.004.003-.003.011-.002.03v.027c.002.045-.043.083-.099.084-.056 0-.103-.035-.104-.08-.004-.159.096-.25.261-.219.098-.026.167-.023.22.031.04.04.045.072.049.189-.008.2-.246.34-.591.34a.654.654 0 0 1-.397-.153.075.075 0 0 1-.031-.06v-.392c0-.026.015-.05.04-.064l-.01-.009a.074.074 0 0 1-.03-.057v-.393c0-.167.194-.212.59-.212.235 0 .388.061.429.206.023.248-.06.396-.264.354a.622.622 0 0 1-.146.024Zm-2.966 0c.109 0 .161-.082.103-.154-.03-.038-.093-.05-.14-.025a.115.115 0 0 0-.013.007 1.316 1.316 0 0 1-.063-.015.126.126 0 0 0-.068 0c-.026.008-.041-.016-.028-.166.012-.042.076-.068.227-.068.274 0 .387.026.387.05v.358l-.133.107c-.065.051-.02.14.072.14h.06v.274a.405.405 0 0 1-.223.085c-.246 0-.384-.081-.388-.178l.004-.063.021.007a.126.126 0 0 0 .08-.002c.008-.003.014-.005.016-.003.004.003.004.011.003.03l-.001.027c-.002.045.043.083.1.084.056 0 .102-.035.103-.08.005-.159-.095-.25-.261-.219-.098-.026-.166-.023-.22.031-.039.04-.044.072-.048.189.007.2.245.34.59.34a.653.653 0 0 0 .397-.153.075.075 0 0 0 .032-.06v-.392a.078.078 0 0 0-.04-.064l.01-.009a.074.074 0 0 0 .03-.057v-.393c0-.167-.195-.212-.591-.212-.234 0-.387.061-.428.206-.023.248.06.396.264.354.063.016.11.024.146.024Z"/></g></g></g></g><defs><clipPath id="b"><rect width="36" height="24" x="3" y="2" fill="#fff" rx="2"/></clipPath><filter id="a" width="42" height="30" x="0" y="0" color-interpolation-filters="sRGB" filterUnits="userSpaceOnUse"><feFlood flood-opacity="0" result="BackgroundImageFix"/><feColorMatrix in="SourceAlpha" result="hardAlpha" values="0 0 0 0 0 0 0 0 0 0 0 0 0 0 0 0 0 0 127 0"/><feOffset dy="1"/><feGaussianBlur stdDeviation="1"/><feColorMatrix values="0 0 0 0 0.0627451 0 0 0 0 0.0941176 0 0 0 0 0.156863 0 0 0 0.06 0"/><feBlend in2="BackgroundImageFix" result="effect1_dropShadow_91_25341"/><feColorMatrix in="SourceAlpha" result="hardAlpha" values="0 0 0 0 0 0 0 0 0 0 0 0 0 0 0 0 0 0 127 0"/><feOffset dy="1"/><feGaussianBlur stdDeviation="1.5"/><feColorMatrix values="0 0 0 0 0.0627451 0 0 0 0 0.0941176 0 0 0 0 0.156863 0 0 0 0.1 0"/><feBlend in2="effect1_dropShadow_91_25341" result="effect2_dropShadow_91_25341"/><feBlend in="SourceGraphic" in2="effect2_dropShadow_91_25341" result="shape"/></filter></defs></svg>