<svg xmlns="http://www.w3.org/2000/svg" width="42" height="30" fill="none"><g filter="url(#a)"><g clip-path="url(#b)"><mask id="c" width="36" height="24" x="3" y="2" maskUnits="userSpaceOnUse" style="mask-type:alpha"><path fill="#fff" d="M3 2h36v24H3z"/></mask><g mask="url(#c)" fill-rule="evenodd" clip-rule="evenodd"><path fill="#F7FCFF" d="M3 2h36v24H3V2Z"/><path fill="#C51918" d="M3 2v8h36V2H3Z"/><path fill="#409100" d="M3 18v8h36v-8H3Z"/><path fill="#FB0" d="m21.023 10.63-.665.418.234-.7-.645-.442.81-.015.266-.69.266.69.81.015-.646.442.235.7-.665-.418Zm-2.81.613-.665.418.235-.7-.646-.442.81-.015.266-.691.266.69.81.016-.645.441.234.7-.665-.417Zm-2.85 2.256.665-.418.666.418-.235-.7.646-.442-.81-.015-.267-.69-.266.69-.81.015.646.442-.235.7Zm-.037 1.965-.665.418.235-.7-.646-.442.81-.015.266-.69.266.69.81.015-.645.442.234.7-.665-.418Zm10.65.418.665-.418.665.418-.235-.7.646-.442-.81-.015-.266-.69-.266.69-.81.015.646.442-.235.7Zm-.193-2.801-.665.418.234-.7-.645-.442.81-.015.266-.69.266.69.81.015-.646.442.235.7-.665-.418Zm-2.818-1.42.666-.418.665.418-.235-.7.646-.442-.81-.015-.266-.691-.267.69-.81.016.646.441-.235.7Zm-5.714 7.094-.208-.657c1.148-.276 2.465-.413 3.953-.413s2.805.137 3.953.413l-.208.657c-1.075-.259-2.324-.389-3.745-.389-1.421 0-2.67.13-3.745.389Zm1.42-1.053c-.457.07-.831-.324-.831-.324l.454-.167a.607.607 0 0 1 .175-.453c.154.063.364.406.364.406h.412s-.115.469-.573.538Zm5.412-.256s-.375.393-.833.324c-.458-.069-.572-.538-.572-.538h.412s.21-.343.363-.406c0 0 .19.173.175.453l.455.167Zm-3.144.132c-.465.011-.774-.424-.774-.424l.476-.11a.635.635 0 0 1 .245-.427c.142.081.296.448.296.448l.408.05s-.187.45-.651.463Z"/><path fill="#FB0" d="M20.953 15.699s-.527 1.073-1.358 1.156c-.831.083-1.253-.61-1.253-.61s-.055.72-1.041.999c-.987.278-1.507-.833-1.507-.833s.514.409 1.31.23c.797-.177 1.112-.835 1.112-.835s.59.685 1.379.343c.789-.343 1.225-.762 1.225-1.164v-1.201s-.203-.312-.556-.312c-.353 0-.452.22-.452.22s-.138-1.25 1.132-1.327v-.003l.035.002.036-.002v.003c1.27.078 1.132 1.328 1.132 1.328s-.099-.221-.452-.221-.557.312-.557.312v1.201c0 .402.437.821 1.226 1.164.789.342 1.379-.343 1.379-.343s.314.658 1.111.836c.797.178 1.31-.23 1.31-.23s-.519 1.11-1.506.832c-.987-.278-1.041-1-1.041-1s-.422.694-1.253.611c-.831-.083-1.359-1.156-1.359-1.156l-.026-1.418-.026 1.418Zm-.011-2.997c-.586 0-.705.44-.705.44.516 0 .705.2.705.2s.382-.2.766-.2c0 0-.18-.44-.766-.44Z"/></g></g></g><defs><clipPath id="b"><rect width="36" height="24" x="3" y="2" fill="#fff" rx="2"/></clipPath><filter id="a" width="42" height="30" x="0" y="0" color-interpolation-filters="sRGB" filterUnits="userSpaceOnUse"><feFlood flood-opacity="0" result="BackgroundImageFix"/><feColorMatrix in="SourceAlpha" result="hardAlpha" values="0 0 0 0 0 0 0 0 0 0 0 0 0 0 0 0 0 0 127 0"/><feOffset dy="1"/><feGaussianBlur stdDeviation="1"/><feColorMatrix values="0 0 0 0 0.0627451 0 0 0 0 0.0941176 0 0 0 0 0.156863 0 0 0 0.06 0"/><feBlend in2="BackgroundImageFix" result="effect1_dropShadow_91_24756"/><feColorMatrix in="SourceAlpha" result="hardAlpha" values="0 0 0 0 0 0 0 0 0 0 0 0 0 0 0 0 0 0 127 0"/><feOffset dy="1"/><feGaussianBlur stdDeviation="1.5"/><feColorMatrix values="0 0 0 0 0.0627451 0 0 0 0 0.0941176 0 0 0 0 0.156863 0 0 0 0.1 0"/><feBlend in2="effect1_dropShadow_91_24756" result="effect2_dropShadow_91_24756"/><feBlend in="SourceGraphic" in2="effect2_dropShadow_91_24756" result="shape"/></filter></defs></svg>