<svg width="42" height="30" viewBox="0 0 42 30" fill="none" xmlns="http://www.w3.org/2000/svg"><g id="Country=TL - Timor-Leste, Size=sm (36x24)" filter="url(#filter0_dd_91_24735)"><g clip-path="url(#clip0_91_24735)"><g id="flag"><mask id="mask0_91_24735" style="mask-type:alpha" maskUnits="userSpaceOnUse" x="3" y="2" width="36" height="24"><rect id="mask" x="3" y="2" width="36" height="24" fill="white"/></mask><g mask="url(#mask0_91_24735)"><g id="contents"><path id="middle" d="M3 1H2V2V26V27H3H39H40V26V2V1H39H3Z" fill="#E31D1C" stroke="#F7FCFF" stroke-width="2"/><path id="triangle wide" fill-rule="evenodd" clip-rule="evenodd" d="M3 2L30 14L3 26V2Z" fill="#FECA00"/><path id="triangle" fill-rule="evenodd" clip-rule="evenodd" d="M3 2L21 14L3 26V2Z" fill="#272727"/><path id="Star 5" fill-rule="evenodd" clip-rule="evenodd" d="M10.479 16.4084L8.20701 18.5085L7.96967 15.523L5.07227 13.9364L8.09389 13.0937L8.58804 10.1355L10.68 12.4777L13.731 11.751L12.154 14.5264L13.6875 17.2031L10.479 16.4084Z" fill="#F7FCFF"/></g></g></g></g></g><defs><filter id="filter0_dd_91_24735" x="0" y="0" width="42" height="30" filterUnits="userSpaceOnUse" color-interpolation-filters="sRGB"><feFlood flood-opacity="0" result="BackgroundImageFix"/><feColorMatrix in="SourceAlpha" values="0 0 0 0 0 0 0 0 0 0 0 0 0 0 0 0 0 0 127 0" result="hardAlpha"/><feOffset dy="1"/><feGaussianBlur stdDeviation="1"/><feColorMatrix values="0 0 0 0 0.0627451 0 0 0 0 0.0941176 0 0 0 0 0.156863 0 0 0 0.06 0"/><feBlend in2="BackgroundImageFix" result="effect1_dropShadow_91_24735"/><feColorMatrix in="SourceAlpha" values="0 0 0 0 0 0 0 0 0 0 0 0 0 0 0 0 0 0 127 0" result="hardAlpha"/><feOffset dy="1"/><feGaussianBlur stdDeviation="1.5"/><feColorMatrix values="0 0 0 0 0.0627451 0 0 0 0 0.0941176 0 0 0 0 0.156863 0 0 0 0.1 0"/><feBlend in2="effect1_dropShadow_91_24735" result="effect2_dropShadow_91_24735"/><feBlend in="SourceGraphic" in2="effect2_dropShadow_91_24735" result="shape"/></filter><clipPath id="clip0_91_24735"><rect x="3" y="2" width="36" height="24" rx="2" fill="white"/></clipPath></defs></svg>