<svg width="42" height="30" viewBox="0 0 42 30" fill="none" xmlns="http://www.w3.org/2000/svg"><g id="Country=UY - Uruguay, Size=sm (36x24)" filter="url(#filter0_dd_91_24234)"><g clip-path="url(#clip0_91_24234)"><g id="flag"><mask id="mask0_91_24234" style="mask-type:alpha" maskUnits="userSpaceOnUse" x="3" y="2" width="36" height="24"><rect id="mask" x="3" y="2" width="36" height="24" fill="white"/></mask><g mask="url(#mask0_91_24234)"><g id="contents"><path id="background" fill-rule="evenodd" clip-rule="evenodd" d="M3 2V26H39V2H3Z" fill="#F7FCFF"/><mask id="mask1_91_24234" style="mask-type:alpha" maskUnits="userSpaceOnUse" x="3" y="2" width="36" height="24"><path id="background_2" fill-rule="evenodd" clip-rule="evenodd" d="M3 2V26H39V2H3Z" fill="white"/></mask><g mask="url(#mask1_91_24234)"><rect id="Rectangle 85" x="3" y="4" width="36" height="3" fill="#2E42A5"/><rect id="Rectangle 85_2" x="3" y="10" width="36" height="3" fill="#2E42A5"/><rect id="Rectangle 85_3" x="3" y="16" width="36" height="3" fill="#2E42A5"/><rect id="Rectangle 85_4" x="3" y="21" width="36" height="3" fill="#2E42A5"/><rect id="Rectangle 88" x="3" y="2" width="15.75" height="14" fill="#F7FCFF"/><g id="mark"><g id="Path 105"><path fill-rule="evenodd" clip-rule="evenodd" d="M8.38006 4.58232C8.29761 4.5774 8.22563 4.6323 8.21929 4.70494C8.18844 5.05808 8.53815 5.37912 8.73175 5.55686L8.75084 5.5744C8.78142 5.60254 8.81274 5.63034 8.85198 5.6644C8.85196 5.66438 8.94354 5.7434 8.9686 5.76543C9.13673 5.91323 9.17317 6.05166 9.21409 6.20709L9.22422 6.24532C9.24191 6.31118 9.26011 6.39079 9.28009 6.4782L9.28009 6.47822L9.28009 6.47824C9.36865 6.86571 9.49226 7.40652 9.76225 7.58282C9.82838 7.62599 10.2917 7.36949 10.3413 7.31087C10.3588 7.29019 10.4106 7.25597 10.4674 7.21843C10.5716 7.14957 10.6927 7.06956 10.6499 7.04161C10.3672 6.85701 10.1524 6.40961 9.87333 5.76543C9.72435 5.46213 9.33422 5.26933 9.01048 5.10934C8.73396 4.97268 8.50587 4.85996 8.51786 4.72275C8.5242 4.65011 8.46251 4.58724 8.38006 4.58232ZM12.9333 4.68177C12.8931 4.61763 12.8021 4.59387 12.7301 4.6287C12.3801 4.79804 12.2677 5.23359 12.2054 5.47473L12.1992 5.49851C12.1893 5.53663 12.1802 5.57513 12.1694 5.62293C12.1694 5.6229 12.1447 5.73421 12.1376 5.76488C12.0897 5.97073 11.979 6.07329 11.8546 6.18844L11.8241 6.21682C11.7716 6.26587 11.7064 6.32278 11.6348 6.38527L11.6347 6.38532L11.6347 6.38532C11.3174 6.66237 10.8744 7.04907 10.8552 7.34636C10.8504 7.41918 11.3448 7.62485 11.4271 7.62993C11.4562 7.63173 11.5167 7.65169 11.583 7.67359C11.7047 7.71376 11.8462 7.76044 11.8492 7.71331C11.8694 7.402 12.1746 6.99822 12.6304 6.43935C12.8354 6.16309 12.8048 5.76726 12.7794 5.43878C12.7578 5.1582 12.7399 4.92677 12.8759 4.86098C12.9479 4.82615 12.9736 4.74592 12.9333 4.68177ZM15.8428 7.03064C15.9222 7.04881 15.9705 7.12135 15.9508 7.19267C15.931 7.26399 15.8506 7.30707 15.7712 7.28891C15.6213 7.25459 15.4568 7.43468 15.2574 7.65301C15.0239 7.90863 14.7426 8.21666 14.3807 8.29441C13.6185 8.42682 13.0856 8.53714 12.8319 8.75258C12.7935 8.78519 12.7259 8.66532 12.6677 8.56214C12.636 8.50591 12.6071 8.45463 12.5872 8.43571C12.5309 8.38207 12.3271 7.93197 12.3865 7.88159C12.6287 7.67585 13.2493 7.66156 13.694 7.65132C13.7943 7.64901 13.8857 7.64691 13.9617 7.64286L14.0058 7.64062C14.1851 7.6318 14.3448 7.62394 14.5378 7.50242C14.5665 7.48431 14.67 7.41786 14.67 7.41788C14.7145 7.38945 14.7507 7.36685 14.7872 7.34497L14.81 7.33131C15.0405 7.19269 15.4569 6.94231 15.8428 7.03064ZM5.61291 7.47396C5.5507 7.5223 5.54347 7.60636 5.59677 7.66172C5.85588 7.93081 6.35854 7.93802 6.63683 7.94201C6.64625 7.94215 6.6554 7.94228 6.66429 7.94241C6.70829 7.9431 6.75256 7.94306 6.8074 7.94249C6.80737 7.94249 6.93498 7.9408 6.97022 7.94063C7.20669 7.93946 7.34258 8.01444 7.49515 8.09863C7.50755 8.10547 7.52005 8.11237 7.53273 8.11929C7.59763 8.15474 7.67384 8.19961 7.75752 8.24887C8.12837 8.46719 8.64599 8.77191 8.97714 8.72687C9.05825 8.71584 9.18179 8.24327 9.17027 8.17061C9.1662 8.14498 9.1756 8.08823 9.1859 8.02599C9.2048 7.9118 9.22676 7.77913 9.17426 7.78627C8.82749 7.83344 8.31973 7.65208 7.60997 7.37197C7.26334 7.25114 6.83411 7.36002 6.47792 7.45037C6.17368 7.52754 5.92273 7.5912 5.82205 7.48665C5.76876 7.4313 5.67512 7.42562 5.61291 7.47396Z" fill="#FFC125"/><path d="M8.21924 4.70496L8.29396 4.71148V4.71148L8.21924 4.70496ZM8.73171 5.55688L8.78245 5.50165L8.78243 5.50163L8.73171 5.55688ZM8.7508 5.57442L8.80159 5.51924L8.80154 5.51919L8.7508 5.57442ZM8.85194 5.66442L8.80277 5.72106L8.90133 5.60798L8.85194 5.66442ZM8.96855 5.76545L9.01807 5.70912L8.96855 5.76545ZM9.21405 6.20711L9.14152 6.2262L9.14155 6.22633L9.21405 6.20711ZM9.22418 6.24534L9.15168 6.26455L9.15174 6.26479L9.22418 6.24534ZM9.28004 6.47822L9.3532 6.4617L9.35316 6.46151L9.28004 6.47822ZM9.28005 6.47824L9.20689 6.49476L9.20693 6.49495L9.28005 6.47824ZM9.28005 6.47825L9.35316 6.46154L9.35316 6.46154L9.28005 6.47825ZM9.76221 7.58283L9.80321 7.52003L9.76221 7.58283ZM10.3413 7.31089L10.3985 7.35936L10.3413 7.31089ZM10.4674 7.21845L10.426 7.15588V7.15588L10.4674 7.21845ZM10.6498 7.04163L10.6088 7.10443V7.10443L10.6498 7.04163ZM9.87329 5.76545L9.94219 5.7356L9.9406 5.73238L9.87329 5.76545ZM9.01044 5.10935L8.97721 5.17659L9.01044 5.10935ZM8.51781 4.72277L8.59253 4.7293V4.7293L8.51781 4.72277ZM12.73 4.62872L12.7627 4.69623V4.69623L12.73 4.62872ZM12.9333 4.68179L12.8698 4.72166L12.9333 4.68179ZM12.2054 5.47474L12.278 5.49352L12.278 5.49349L12.2054 5.47474ZM12.1992 5.49853L12.2718 5.51738L12.2718 5.51731L12.1992 5.49853ZM12.1694 5.62294L12.0962 5.6066L12.2425 5.63942L12.1694 5.62294ZM12.1376 5.7649L12.2106 5.78189V5.78189L12.1376 5.7649ZM11.8546 6.18846L11.8036 6.13343L11.8035 6.13351L11.8546 6.18846ZM11.824 6.21683L11.773 6.16188L11.7728 6.16203L11.824 6.21683ZM11.6347 6.38534L11.5854 6.32884L11.6347 6.38534ZM10.8551 7.34638L10.93 7.35124V7.35123L10.8551 7.34638ZM11.4271 7.62995L11.4224 7.70481L11.4271 7.62995ZM11.583 7.6736L11.6065 7.60238H11.6065L11.583 7.6736ZM11.8492 7.71333L11.924 7.71818V7.71818L11.8492 7.71333ZM12.6303 6.43937L12.6885 6.48682L12.6905 6.48406L12.6303 6.43937ZM12.7794 5.43879L12.8542 5.43302L12.7794 5.43879ZM12.8758 4.861L12.9085 4.92851L12.8758 4.861ZM15.9507 7.19268L15.8784 7.17265L15.8784 7.17265L15.9507 7.19268ZM15.8428 7.03065L15.8595 6.95755L15.8428 7.03065ZM15.7712 7.28892L15.7879 7.21581L15.7712 7.28892ZM15.2574 7.65303L15.202 7.60245V7.60245L15.2574 7.65303ZM14.3806 8.29443L14.3935 8.36838L14.3964 8.36775L14.3806 8.29443ZM12.8319 8.75259L12.8804 8.80976H12.8804L12.8319 8.75259ZM12.6677 8.56216L12.6024 8.59901L12.6024 8.59901L12.6677 8.56216ZM12.5872 8.43573L12.6389 8.38142V8.38142L12.5872 8.43573ZM12.3864 7.8816L12.3379 7.82444L12.3864 7.8816ZM13.6939 7.65134L13.6956 7.72632L13.6966 7.72629L13.6939 7.65134ZM13.6939 7.65134L13.6922 7.57635L13.6913 7.57638L13.6939 7.65134ZM13.9617 7.64287L13.9579 7.56797L13.9577 7.56798L13.9617 7.64287ZM14.0058 7.64064L14.0021 7.56573L14.002 7.56574L14.0058 7.64064ZM14.5377 7.50243L14.5777 7.5659L14.5777 7.5659L14.5377 7.50243ZM14.6699 7.4179L14.6295 7.35473L14.7103 7.48112L14.6699 7.4179ZM14.7872 7.34499L14.8258 7.40931L14.8258 7.40928L14.7872 7.34499ZM14.8099 7.33132L14.8486 7.39562L14.8486 7.3956L14.8099 7.33132ZM5.59672 7.66173L5.65075 7.60971H5.65075L5.59672 7.66173ZM5.61286 7.47398L5.65888 7.5332H5.65888L5.61286 7.47398ZM6.63679 7.94203L6.63571 8.01702H6.63571L6.63679 7.94203ZM6.66424 7.94243L6.66541 7.86744H6.6654L6.66424 7.94243ZM6.80735 7.9425L6.80814 8.0175L6.80675 7.8675L6.80735 7.9425ZM6.97018 7.94064L6.97055 8.01564H6.97055L6.97018 7.94064ZM7.49511 8.09864L7.45888 8.16431L7.45888 8.16431L7.49511 8.09864ZM7.53268 8.11931L7.56864 8.05349L7.56864 8.05349L7.53268 8.11931ZM7.75748 8.24889L7.79552 8.18425L7.75748 8.24889ZM8.9771 8.72689L8.98721 8.8012H8.98721L8.9771 8.72689ZM9.17023 8.17063L9.09615 8.18238V8.18238L9.17023 8.17063ZM9.18585 8.02601L9.11186 8.01376H9.11186L9.18585 8.02601ZM9.17422 7.78629L9.16411 7.71197L9.17422 7.78629ZM7.60992 7.37198L7.63748 7.30216L7.63461 7.30116L7.60992 7.37198ZM6.47788 7.45039L6.49632 7.52309L6.47788 7.45039ZM5.82201 7.48667L5.87604 7.43465L5.87604 7.43465L5.82201 7.48667ZM8.29396 4.71148C8.29606 4.68744 8.32497 4.65419 8.37555 4.6572L8.38448 4.50747C8.27017 4.50065 8.15512 4.57719 8.14453 4.69843L8.29396 4.71148ZM8.78243 5.50163C8.68506 5.41224 8.55456 5.29216 8.45174 5.15227C8.34832 5.01157 8.28086 4.8614 8.29396 4.71148L8.14453 4.69843C8.12678 4.90166 8.21875 5.08857 8.33087 5.24111C8.4436 5.39447 8.58475 5.52377 8.68099 5.61213L8.78243 5.50163ZM8.80154 5.51919L8.78245 5.50165L8.68096 5.6121L8.70006 5.62965L8.80154 5.51919ZM8.9011 5.60778C8.8622 5.57402 8.83146 5.54673 8.80159 5.51924L8.70001 5.6296C8.73129 5.6584 8.7632 5.6867 8.80277 5.72106L8.9011 5.60778ZM9.01807 5.70912C9.00526 5.69786 8.97583 5.67237 8.9499 5.64994C8.93687 5.63867 8.92463 5.62809 8.91565 5.62034C8.91115 5.61646 8.90748 5.61328 8.90492 5.61108C8.90364 5.60997 8.90265 5.60911 8.90197 5.60853C8.90163 5.60824 8.90137 5.60801 8.9012 5.60786C8.90111 5.60779 8.90104 5.60773 8.901 5.60769C8.90098 5.60767 8.90096 5.60766 8.90095 5.60765C8.90094 5.60764 8.90093 5.60763 8.90093 5.60763C8.90092 5.60763 8.90092 5.60762 8.90091 5.60762C8.9009 5.6076 8.7953 5.61525 8.80255 5.72086L8.90133 5.60798C8.90857 5.71359 8.80298 5.72124 8.80297 5.72122C8.80296 5.72122 8.80296 5.72122 8.80296 5.72122C8.80296 5.72121 8.80296 5.72122 8.80296 5.72122C8.80297 5.72123 8.80299 5.72124 8.80301 5.72126C8.80305 5.7213 8.80312 5.72135 8.8032 5.72143C8.80337 5.72158 8.80363 5.7218 8.80397 5.72209C8.80464 5.72267 8.80563 5.72353 8.80691 5.72463C8.80946 5.72682 8.81312 5.72999 8.81761 5.73386C8.82657 5.7416 8.83879 5.75216 8.85178 5.76339C8.87789 5.78598 8.90679 5.81101 8.91904 5.82178L9.01807 5.70912ZM9.28657 6.18802C9.245 6.03006 9.20402 5.87258 9.01807 5.70912L8.91903 5.82178C9.06936 5.95391 9.10126 6.07329 9.14152 6.2262L9.28657 6.18802ZM9.29667 6.22612L9.28654 6.1879L9.14155 6.22633L9.15168 6.26455L9.29667 6.22612ZM9.35316 6.46151C9.33328 6.37454 9.31474 6.29339 9.29661 6.22588L9.15174 6.26479C9.16899 6.32899 9.18685 6.40707 9.20693 6.49493L9.35316 6.46151ZM9.3532 6.46172L9.3532 6.4617L9.20688 6.49474L9.20689 6.49476L9.3532 6.46172ZM9.35316 6.46154L9.35316 6.46153L9.20693 6.49495L9.20694 6.49497L9.35316 6.46154ZM9.80321 7.52003C9.69003 7.44613 9.59848 7.28757 9.52347 7.08382C9.4497 6.88344 9.39764 6.65616 9.35316 6.46154L9.20694 6.49496C9.25101 6.68782 9.30504 6.92468 9.38271 7.13565C9.45914 7.34325 9.56439 7.54324 9.7212 7.64563L9.80321 7.52003ZM10.284 7.26241C10.2845 7.26185 10.2789 7.26754 10.2612 7.28015C10.2456 7.29135 10.2247 7.30502 10.1999 7.32028C10.1503 7.35075 10.0875 7.38597 10.024 7.41814C9.96019 7.45049 9.89778 7.47873 9.84863 7.49608C9.82378 7.50485 9.80498 7.50988 9.79241 7.51186C9.78614 7.51284 9.78372 7.51268 9.78415 7.51271C9.78452 7.51274 9.78648 7.51289 9.78954 7.51373C9.7926 7.51458 9.79757 7.51635 9.80321 7.52003L9.7212 7.64563C9.74023 7.65805 9.76019 7.66143 9.77397 7.66237C9.78849 7.66335 9.80285 7.66205 9.81566 7.66004C9.84129 7.65602 9.86992 7.64764 9.89857 7.63752C9.95644 7.61709 10.0254 7.58563 10.0918 7.55193C10.1587 7.51805 10.2251 7.48085 10.2784 7.44808C10.305 7.43172 10.329 7.41608 10.3484 7.4022C10.3659 7.38973 10.3856 7.37458 10.3985 7.35936L10.284 7.26241ZM10.426 7.15588C10.3979 7.17443 10.3696 7.19315 10.3461 7.20989C10.3247 7.22513 10.2997 7.24387 10.284 7.26241L10.3985 7.35936C10.3985 7.35938 10.4009 7.35676 10.4078 7.35108C10.4142 7.34583 10.4227 7.3395 10.4331 7.33208C10.454 7.31716 10.48 7.30001 10.5087 7.28102L10.426 7.15588ZM10.6088 7.10443C10.5992 7.09815 10.5865 7.08425 10.5841 7.0631C10.5821 7.04602 10.5883 7.03532 10.5885 7.03489C10.5886 7.03465 10.5835 7.04203 10.5653 7.05744C10.5315 7.08603 10.4795 7.12054 10.426 7.15588L10.5087 7.28102C10.5594 7.24749 10.6201 7.20757 10.6622 7.17195C10.6819 7.15525 10.7055 7.13309 10.7196 7.10783C10.7268 7.0949 10.7362 7.07282 10.733 7.04575C10.7294 7.01461 10.7112 6.9921 10.6908 6.97883L10.6088 7.10443ZM9.80447 5.79526C9.94389 6.11713 10.0689 6.39368 10.1952 6.61327C10.321 6.83206 10.4526 7.00239 10.6088 7.10443L10.6908 6.97883C10.5644 6.89626 10.4472 6.7506 10.3252 6.53849C10.2037 6.32719 10.0817 6.05795 9.94211 5.73564L9.80447 5.79526ZM8.97721 5.17659C9.13992 5.257 9.31368 5.34301 9.46533 5.44575C9.61733 5.54873 9.7398 5.66381 9.80597 5.79851L9.9406 5.73238C9.85778 5.56378 9.71071 5.43081 9.54946 5.32157C9.38787 5.21209 9.20469 5.12169 9.04367 5.04212L8.97721 5.17659ZM8.4431 4.71624C8.43805 4.77401 8.45923 4.82472 8.49086 4.86686C8.52179 4.90806 8.5652 4.94464 8.61322 4.97792C8.70887 5.04418 8.84079 5.10917 8.97721 5.17659L9.04367 5.04212C8.90357 4.97288 8.78317 4.91318 8.69865 4.85462C8.65658 4.82548 8.62793 4.79961 8.61082 4.77681C8.59442 4.75496 8.59158 4.74013 8.59253 4.7293L8.4431 4.71624ZM8.37555 4.6572C8.42526 4.66017 8.44499 4.69451 8.4431 4.71624L8.59253 4.7293C8.60332 4.60575 8.49966 4.51434 8.38448 4.50747L8.37555 4.6572ZM12.7627 4.69623C12.8033 4.67661 12.8516 4.69265 12.8698 4.72166L12.9968 4.64192C12.9345 4.54265 12.8008 4.51117 12.6974 4.56121L12.7627 4.69623ZM12.278 5.49349C12.3093 5.37234 12.3513 5.21042 12.427 5.0582C12.5025 4.90618 12.6082 4.77097 12.7627 4.69623L12.6974 4.56121C12.5018 4.65581 12.3763 4.82305 12.2926 4.99142C12.209 5.15959 12.1637 5.33601 12.1327 5.456L12.278 5.49349ZM12.2718 5.51731L12.278 5.49352L12.1327 5.45596L12.1266 5.47975L12.2718 5.51731ZM12.2425 5.63942C12.2532 5.59212 12.2622 5.55447 12.2718 5.51738L12.1266 5.47968C12.1164 5.51884 12.1071 5.55817 12.0962 5.60647L12.2425 5.63942ZM12.2106 5.78189C12.2143 5.76614 12.2223 5.73026 12.2293 5.69874C12.2329 5.68288 12.2362 5.66799 12.2386 5.65707C12.2398 5.65161 12.2408 5.64713 12.2415 5.64403C12.2419 5.64247 12.2421 5.64126 12.2423 5.64044C12.2424 5.64003 12.2425 5.63971 12.2425 5.6395C12.2425 5.63939 12.2426 5.63931 12.2426 5.63926C12.2426 5.63923 12.2426 5.63921 12.2426 5.6392C12.2426 5.63919 12.2426 5.63919 12.2426 5.63918C12.2426 5.63918 12.2426 5.63918 12.2426 5.63917C12.2426 5.63917 12.1857 5.54973 12.0962 5.6066L12.2426 5.63929C12.1531 5.69616 12.0961 5.60672 12.0961 5.60672C12.0961 5.60672 12.0961 5.60672 12.0961 5.60672C12.0961 5.60672 12.0961 5.60672 12.0961 5.60673C12.0961 5.60674 12.0961 5.60676 12.0961 5.60679C12.0961 5.60684 12.0961 5.60692 12.0961 5.60702C12.096 5.60723 12.096 5.60755 12.0959 5.60796C12.0957 5.60877 12.0954 5.60998 12.0951 5.61153C12.0944 5.61462 12.0934 5.61908 12.0922 5.62453C12.0898 5.63543 12.0865 5.65028 12.0829 5.66608C12.0759 5.69787 12.068 5.73298 12.0645 5.74791L12.2106 5.78189ZM11.9055 6.24349C12.0303 6.12796 12.1571 6.01192 12.2106 5.78189L12.0645 5.74791C12.0223 5.92957 11.9276 6.01865 11.8036 6.13343L11.9055 6.24349ZM11.875 6.27179L11.9056 6.24341L11.8035 6.13351L11.773 6.16188L11.875 6.27179ZM11.684 6.44184C11.7553 6.3796 11.8216 6.32175 11.8752 6.27163L11.7728 6.16203C11.7214 6.21004 11.6573 6.26606 11.5854 6.32884L11.684 6.44184ZM10.93 7.35123C10.9337 7.2935 10.9587 7.22541 11.0048 7.14821C11.0505 7.07164 11.1141 6.99087 11.1887 6.90866C11.338 6.744 11.5247 6.58095 11.684 6.44184L11.5854 6.32884C11.4274 6.46678 11.2338 6.6356 11.0776 6.80788C10.9993 6.89414 10.9287 6.98309 10.876 7.07131C10.8237 7.15888 10.7862 7.25062 10.7803 7.34152L10.93 7.35123ZM11.4317 7.55509C11.4322 7.55512 11.4298 7.55495 11.4232 7.5535C11.4172 7.55216 11.4094 7.55013 11.3997 7.5473C11.3804 7.54166 11.356 7.53351 11.328 7.52329C11.2722 7.50288 11.2047 7.47519 11.1397 7.44539C11.0744 7.41541 11.0138 7.3843 10.9709 7.35724C10.9491 7.34349 10.9346 7.33255 10.9267 7.32496C10.9227 7.32114 10.9225 7.32023 10.9238 7.32227C10.9247 7.32371 10.931 7.33431 10.93 7.35124L10.7803 7.34152C10.7786 7.36755 10.7883 7.38829 10.7959 7.40075C10.8039 7.4138 10.814 7.42478 10.8232 7.43356C10.8417 7.45118 10.8658 7.46829 10.8909 7.48414C10.9419 7.51628 11.0092 7.55056 11.0772 7.58173C11.1455 7.61309 11.2167 7.64232 11.2766 7.66418C11.3064 7.6751 11.3341 7.68441 11.3576 7.69128C11.3791 7.69757 11.403 7.7036 11.4224 7.70481L11.4317 7.55509ZM11.6065 7.60238C11.5736 7.59155 11.5407 7.58066 11.5122 7.57228C11.4858 7.56451 11.4558 7.55658 11.4317 7.55509L11.4224 7.70481C11.4274 7.70511 11.4422 7.70806 11.4699 7.71619C11.4955 7.72373 11.5259 7.73376 11.5595 7.74483L11.6065 7.60238ZM11.7743 7.70847C11.7754 7.69225 11.784 7.67597 11.7981 7.66586C11.8088 7.65824 11.8173 7.65789 11.8156 7.65806C11.8124 7.65839 11.8003 7.65796 11.7761 7.65283C11.7301 7.64308 11.6687 7.62293 11.6065 7.60238L11.5595 7.74483C11.6189 7.76445 11.6891 7.78773 11.745 7.79957C11.7718 7.80525 11.8032 7.81016 11.8312 7.80725C11.8451 7.80579 11.8661 7.80167 11.8856 7.78774C11.9085 7.77132 11.9222 7.74619 11.924 7.71818L11.7743 7.70847ZM12.5722 6.39196C12.3445 6.67117 12.1518 6.91479 12.0134 7.12842C11.8761 7.34048 11.7857 7.53279 11.7743 7.70847L11.924 7.71818C11.9328 7.58255 12.0051 7.41733 12.1393 7.20995C12.2726 7.00414 12.4603 6.76644 12.6884 6.48677L12.5722 6.39196ZM12.7046 5.44457C12.7174 5.60986 12.7307 5.78484 12.7165 5.95232C12.7023 6.11937 12.6612 6.27195 12.5701 6.39467L12.6905 6.48406C12.8045 6.33053 12.8505 6.14706 12.866 5.96501C12.8814 5.78338 12.8668 5.59621 12.8542 5.43302L12.7046 5.44457ZM12.8432 4.79349C12.7377 4.84451 12.7042 4.95534 12.6939 5.06211C12.6833 5.17122 12.694 5.30664 12.7046 5.44457L12.8542 5.43302C12.8432 5.29038 12.8341 5.1698 12.8432 5.0766C12.8524 4.98106 12.878 4.94328 12.9085 4.92851L12.8432 4.79349ZM12.8698 4.72166C12.8839 4.74416 12.8791 4.7761 12.8432 4.79349L12.9085 4.92851C13.0166 4.87623 13.0632 4.74771 12.9968 4.64192L12.8698 4.72166ZM16.023 7.21272C16.0561 7.0934 15.9734 6.9836 15.8595 6.95755L15.826 7.10376C15.8709 7.11404 15.8849 7.14933 15.8784 7.17265L16.023 7.21272ZM15.7545 7.36203C15.8666 7.38771 15.9909 7.32861 16.023 7.21272L15.8784 7.17265C15.871 7.1994 15.8345 7.22647 15.7879 7.21581L15.7545 7.36203ZM15.3127 7.70361C15.4138 7.59295 15.5005 7.49833 15.5798 7.43473C15.6613 7.36935 15.7153 7.35306 15.7545 7.36203L15.7879 7.21581C15.6772 7.19047 15.574 7.24707 15.4859 7.31773C15.3956 7.39019 15.3003 7.49478 15.202 7.60245L15.3127 7.70361ZM14.3964 8.36775C14.5933 8.32545 14.7648 8.22131 14.9147 8.09843C15.0643 7.97576 15.1966 7.83078 15.3127 7.70361L15.202 7.60245C15.0847 7.7309 14.9595 7.86774 14.8196 7.98243C14.68 8.0969 14.5299 8.18565 14.3649 8.2211L14.3964 8.36775ZM12.8804 8.80976C12.9941 8.71318 13.1774 8.63517 13.4353 8.56473C13.6917 8.49472 14.0122 8.43457 14.3935 8.36832L14.3678 8.22053C13.987 8.2867 13.6599 8.34791 13.3958 8.42003C13.1333 8.4917 12.9233 8.57658 12.7833 8.69543L12.8804 8.80976ZM12.6024 8.59901C12.6306 8.64912 12.6646 8.7097 12.6971 8.75319C12.7127 8.77405 12.733 8.79811 12.7572 8.81389C12.7697 8.82208 12.7883 8.83139 12.8114 8.83286C12.8372 8.83449 12.8614 8.82594 12.8804 8.80976L12.7833 8.69543C12.7928 8.6874 12.8065 8.68224 12.821 8.68316C12.8271 8.68355 12.8317 8.68494 12.8346 8.68605C12.8374 8.68714 12.839 8.68815 12.8392 8.68832C12.8395 8.68849 12.8374 8.68706 12.8329 8.68231C12.8286 8.67779 12.8234 8.67156 12.8173 8.66341C12.7918 8.62932 12.7629 8.57837 12.733 8.52531L12.6024 8.59901ZM12.5354 8.49004C12.5352 8.48983 12.5358 8.49039 12.5373 8.49215C12.5387 8.49384 12.5405 8.4962 12.5428 8.49934C12.5473 8.50569 12.5528 8.51399 12.5591 8.52428C12.5719 8.54501 12.5863 8.57051 12.6024 8.59901L12.733 8.52531C12.7173 8.49757 12.7014 8.46932 12.6868 8.44562C12.6735 8.42394 12.6568 8.39844 12.6389 8.38142L12.5354 8.49004ZM12.3379 7.82444C12.303 7.85404 12.3007 7.89794 12.3007 7.9177C12.3007 7.94321 12.3054 7.97149 12.3118 7.99886C12.3247 8.05441 12.3479 8.12114 12.3739 8.18547C12.4 8.25027 12.4298 8.31528 12.4571 8.36801C12.4706 8.39434 12.484 8.41833 12.4961 8.43803C12.5071 8.45582 12.5208 8.47608 12.5354 8.49004L12.6389 8.38142C12.6395 8.38196 12.6344 8.37643 12.6237 8.35914C12.6142 8.34376 12.6028 8.32339 12.5903 8.29919C12.5654 8.25087 12.5374 8.19014 12.513 8.12942C12.4883 8.06822 12.4683 8.00963 12.4579 7.96493C12.4526 7.94219 12.4507 7.92662 12.4507 7.91766C12.4507 7.90295 12.455 7.92176 12.435 7.93876L12.3379 7.82444ZM13.6922 7.57636C13.4706 7.58146 13.2003 7.58761 12.9548 7.61875C12.8319 7.63434 12.7131 7.65643 12.6084 7.68857C12.5043 7.72048 12.4093 7.76374 12.3379 7.82444L12.435 7.93876C12.4846 7.8966 12.558 7.86092 12.6524 7.83197C12.746 7.80325 12.8556 7.78254 12.9737 7.76756C13.2102 7.73757 13.4726 7.73145 13.6956 7.72632L13.6922 7.57636ZM13.6913 7.57638L13.6912 7.57639L13.6966 7.72629L13.6966 7.72629L13.6913 7.57638ZM13.9577 7.56798C13.883 7.57196 13.7929 7.57404 13.6922 7.57636L13.6957 7.72632C13.7956 7.72402 13.8882 7.72189 13.9657 7.71777L13.9577 7.56798ZM14.002 7.56574L13.9579 7.56797L13.9655 7.71778L14.0096 7.71555L14.002 7.56574ZM14.4978 7.43897C14.3227 7.54926 14.1804 7.55695 14.0021 7.56573L14.0095 7.71555C14.1897 7.70668 14.3669 7.69865 14.5777 7.5659L14.4978 7.43897ZM14.7103 7.48107C14.6068 7.45838 14.6294 7.3548 14.6294 7.3548C14.6294 7.3548 14.6294 7.35479 14.6294 7.3548C14.6294 7.3548 14.6294 7.3548 14.6294 7.3548C14.6294 7.35481 14.6293 7.35482 14.6293 7.35484C14.6293 7.35487 14.6292 7.35492 14.6291 7.35498C14.6289 7.3551 14.6286 7.35529 14.6282 7.35554C14.6275 7.35602 14.6263 7.35675 14.6249 7.35767C14.622 7.35952 14.6179 7.36218 14.6128 7.36543C14.6027 7.37193 14.5889 7.38079 14.5742 7.39022C14.5446 7.40915 14.5118 7.43011 14.4978 7.43897L14.5777 7.5659C14.5924 7.55665 14.6257 7.53533 14.6551 7.51652C14.6698 7.50707 14.6837 7.49819 14.6938 7.49167C14.6989 7.48841 14.7031 7.48575 14.7059 7.48389C14.7074 7.48297 14.7085 7.48224 14.7093 7.48175C14.7097 7.48151 14.71 7.48132 14.7101 7.48119C14.7102 7.48113 14.7103 7.48108 14.7104 7.48105C14.7104 7.48103 14.7104 7.48102 14.7104 7.48101C14.7104 7.48101 14.7104 7.481 14.7104 7.481C14.7104 7.481 14.7104 7.481 14.7105 7.481C14.7105 7.48099 14.733 7.37741 14.6295 7.35473L14.7103 7.48107ZM14.7486 7.28067C14.7113 7.30302 14.6745 7.32601 14.6296 7.35468L14.7103 7.48112C14.7544 7.45292 14.7901 7.43072 14.8258 7.40931L14.7486 7.28067ZM14.7713 7.26703L14.7486 7.2807L14.8258 7.40928L14.8486 7.39562L14.7713 7.26703ZM15.8595 6.95755C15.6461 6.9087 15.4293 6.95437 15.2414 7.02578C15.0532 7.09736 14.8861 7.19799 14.7713 7.26705L14.8486 7.3956C14.9643 7.32604 15.1207 7.23218 15.2948 7.16599C15.4693 7.09964 15.6536 7.06428 15.826 7.10376L15.8595 6.95755ZM5.65075 7.60971C5.62979 7.58795 5.6302 7.55548 5.65888 7.5332L5.56684 7.41475C5.4711 7.48915 5.45706 7.62482 5.5427 7.71375L5.65075 7.60971ZM6.63786 7.86704C6.49814 7.86503 6.30899 7.86217 6.1233 7.82757C5.93645 7.79274 5.76433 7.72767 5.65075 7.60971L5.5427 7.71375C5.68822 7.86489 5.89699 7.93797 6.09582 7.97503C6.29581 8.0123 6.49714 8.01503 6.63571 8.01702L6.63786 7.86704ZM6.6654 7.86744C6.65647 7.8673 6.64727 7.86717 6.63786 7.86704L6.63571 8.01702C6.64514 8.01716 6.65425 8.01729 6.66308 8.01742L6.6654 7.86744ZM6.80656 7.86751C6.75213 7.86808 6.70855 7.86811 6.66541 7.86744L6.66308 8.01742C6.70795 8.01812 6.7529 8.01808 6.80814 8.0175L6.80656 7.86751ZM6.96981 7.86564C6.95185 7.86573 6.91082 7.8662 6.87462 7.86664C6.85645 7.86687 6.83938 7.86708 6.82686 7.86724C6.8206 7.86732 6.81548 7.86739 6.81192 7.86744C6.81014 7.86746 6.80875 7.86748 6.8078 7.86749C6.80733 7.8675 6.80697 7.8675 6.80673 7.8675C6.80661 7.86751 6.80651 7.86751 6.80645 7.86751C6.80642 7.86751 6.8064 7.86751 6.80638 7.86751C6.80637 7.86751 6.80636 7.86751 6.80636 7.86751C6.80635 7.86751 6.80635 7.86751 6.80634 7.86751C6.80633 7.86751 6.73236 7.94333 6.80796 8.0175L6.80675 7.8675C6.88235 7.94168 6.80838 8.0175 6.80837 8.0175C6.80836 8.0175 6.80836 8.0175 6.80836 8.0175C6.80836 8.0175 6.80836 8.0175 6.80836 8.0175C6.80836 8.0175 6.80837 8.0175 6.80837 8.0175C6.80838 8.0175 6.8084 8.01749 6.80843 8.01749C6.80849 8.01749 6.80859 8.01749 6.80871 8.01749C6.80895 8.01749 6.8093 8.01748 6.80977 8.01748C6.81071 8.01746 6.8121 8.01745 6.81387 8.01742C6.81742 8.01738 6.82254 8.01731 6.82879 8.01723C6.84129 8.01707 6.85832 8.01685 6.87645 8.01663C6.91286 8.01619 6.95326 8.01573 6.97055 8.01564L6.96981 7.86564ZM7.53134 8.03298C7.37702 7.94782 7.2267 7.86437 6.96981 7.86564L6.97055 8.01564C7.18658 8.01457 7.30805 8.08108 7.45888 8.16431L7.53134 8.03298ZM7.56864 8.05349C7.55612 8.04665 7.54376 8.03983 7.53134 8.03298L7.45888 8.16431C7.47125 8.17114 7.48389 8.17811 7.49673 8.18513L7.56864 8.05349ZM7.79552 8.18425C7.71218 8.13519 7.63482 8.08964 7.56864 8.05349L7.49673 8.18513C7.56035 8.21988 7.63541 8.26406 7.71943 8.31352L7.79552 8.18425ZM8.96699 8.65257C8.82415 8.672 8.62907 8.61562 8.41298 8.51827C8.20019 8.42239 7.9816 8.2938 7.79552 8.18425L7.71943 8.31352C7.9042 8.42229 8.12984 8.55522 8.35136 8.65503C8.56959 8.75335 8.79889 8.82682 8.98721 8.8012L8.96699 8.65257ZM9.09615 8.18238C9.09578 8.18004 9.09654 8.18602 9.09412 8.20583C9.09201 8.22307 9.08822 8.24542 9.08285 8.27156C9.07214 8.32373 9.05585 8.38763 9.03672 8.4498C9.01744 8.51243 8.99606 8.57071 8.97564 8.61278C8.96529 8.63411 8.95658 8.64833 8.95023 8.6564C8.94093 8.66821 8.94609 8.65541 8.96699 8.65257L8.98721 8.8012C9.02839 8.7956 9.05514 8.76563 9.06808 8.7492C9.08397 8.72902 9.09813 8.70395 9.11058 8.67828C9.13578 8.62638 9.15977 8.55991 9.18008 8.49393C9.20053 8.4275 9.21804 8.35894 9.22978 8.30173C9.23565 8.27318 9.24025 8.2466 9.24301 8.22404C9.24545 8.20407 9.24755 8.17938 9.2443 8.15888L9.09615 8.18238ZM9.11186 8.01376C9.10679 8.04443 9.10158 8.07581 9.09822 8.1028C9.09521 8.12705 9.09223 8.15766 9.09615 8.18238L9.2443 8.15888C9.24446 8.15991 9.24404 8.15747 9.24442 8.14953C9.24476 8.14226 9.24564 8.13289 9.24708 8.12129C9.24998 8.09794 9.25462 8.06983 9.25985 8.03826L9.11186 8.01376ZM9.18433 7.86061C9.1746 7.86193 9.16001 7.8603 9.14666 7.85066C9.13513 7.84233 9.13132 7.83287 9.13074 7.83134C9.13024 7.83002 9.13244 7.83698 9.13184 7.85857C9.13072 7.89886 9.12161 7.95483 9.11186 8.01376L9.25985 8.03826C9.26899 7.983 9.28032 7.91554 9.28178 7.86273C9.28247 7.83777 9.2815 7.80577 9.27094 7.77801C9.26533 7.76326 9.25478 7.74371 9.23447 7.72905C9.21234 7.71307 9.18696 7.70887 9.16411 7.71197L9.18433 7.86061ZM7.58239 7.44175C7.93707 7.58173 8.24456 7.69837 8.50747 7.77395C8.76925 7.8492 8.99513 7.88634 9.18433 7.86061L9.16411 7.71197C9.00654 7.73341 8.80515 7.70345 8.54891 7.62979C8.29381 7.55645 7.99253 7.44235 7.63745 7.30222L7.58239 7.44175ZM6.49632 7.52309C6.6752 7.47771 6.86687 7.4292 7.05642 7.40646C7.24604 7.38371 7.42712 7.38769 7.58524 7.4428L7.63461 7.30116C7.4461 7.23545 7.23925 7.23345 7.03855 7.25753C6.83778 7.28161 6.63674 7.33271 6.45944 7.37769L6.49632 7.52309ZM5.76798 7.53869C5.84535 7.61903 5.96759 7.62381 6.08182 7.61122C6.2015 7.59803 6.34599 7.56122 6.49632 7.52309L6.45944 7.37769C6.30552 7.41673 6.17242 7.45033 6.06539 7.46213C5.95292 7.47452 5.89935 7.45885 5.87604 7.43465L5.76798 7.53869ZM5.65888 7.5332C5.69201 7.50745 5.74233 7.51205 5.76798 7.53869L5.87604 7.43465C5.79509 7.35058 5.65814 7.34381 5.56684 7.41475L5.65888 7.5332Z" fill="#984111"/></g><g id="Path 105_2"><path fill-rule="evenodd" clip-rule="evenodd" d="M8.34973 13.2453C8.26728 13.2502 8.1953 13.1953 8.18895 13.1227C8.15811 12.7696 8.50781 12.4485 8.70142 12.2708L8.72051 12.2532C8.75109 12.2251 8.78241 12.1973 8.82165 12.1632C8.82163 12.1633 8.9132 12.0842 8.93826 12.0622C9.1064 11.9144 9.14284 11.776 9.18375 11.6205L9.19389 11.5823C9.21158 11.5165 9.22977 11.4369 9.24975 11.3494L9.24976 11.3494L9.24976 11.3494C9.33832 10.9619 9.46192 10.4211 9.73192 10.2448C9.79804 10.2016 10.2613 10.4581 10.311 10.5168C10.3285 10.5374 10.3803 10.5717 10.4371 10.6092C10.5413 10.6781 10.6623 10.7581 10.6195 10.786C10.3368 10.9706 10.122 11.418 9.843 12.0622C9.69401 12.3655 9.30389 12.5583 8.98015 12.7183C8.70363 12.855 8.47554 12.9677 8.48752 13.1049C8.49387 13.1775 8.43217 13.2404 8.34973 13.2453ZM12.903 13.1459C12.8627 13.21 12.7717 13.2338 12.6997 13.1989C12.3498 13.0296 12.2373 12.594 12.1751 12.3529L12.1689 12.3291C12.159 12.291 12.1498 12.2525 12.1391 12.2047C12.1391 12.2047 12.1144 12.0934 12.1073 12.0628C12.0594 11.8569 11.9486 11.7543 11.8243 11.6392L11.7937 11.6108C11.7411 11.5617 11.6749 11.5039 11.602 11.4402C11.2795 11.1589 10.8248 10.7621 10.8248 10.4813C10.8248 10.3537 11.3144 10.2028 11.3968 10.1977C11.4258 10.1959 11.4863 10.1759 11.5527 10.154C11.6744 10.1139 11.8158 10.0672 11.8189 10.1143C11.8391 10.4256 12.1442 10.8294 12.6 11.3883C12.8051 11.6645 12.7745 12.0604 12.7491 12.3889C12.7274 12.6694 12.7096 12.9009 12.8456 12.9667C12.9175 13.0015 12.9433 13.0817 12.903 13.1459ZM15.8125 10.797C15.8919 10.7788 15.9402 10.7063 15.9204 10.635C15.9007 10.5637 15.8203 10.5206 15.7409 10.5387C15.591 10.573 15.4265 10.393 15.2271 10.1746C14.9936 9.91901 14.7122 9.61098 14.3503 9.53323C13.5882 9.40082 13.0552 9.29049 12.8016 9.07506C12.7632 9.04245 12.6956 9.16232 12.6374 9.26549C12.6057 9.32173 12.5767 9.373 12.5569 9.39193C12.5005 9.44557 12.2968 9.89566 12.3561 9.94605C12.5983 10.1518 13.219 10.1661 13.6636 10.1763C13.764 10.1786 13.8553 10.1807 13.9314 10.1848L13.9755 10.187C14.1548 10.1958 14.3145 10.2037 14.5074 10.3252C14.5362 10.3433 14.6396 10.4098 14.6396 10.4098C14.6842 10.4382 14.7204 10.4608 14.7569 10.4827L14.7796 10.4963C15.0102 10.6349 15.4266 10.8853 15.8125 10.797ZM5.58257 10.3537C5.52036 10.3053 5.51314 10.2213 5.56643 10.1659C5.82554 9.89682 6.32821 9.88962 6.6065 9.88563C6.61591 9.88549 6.62507 9.88536 6.63395 9.88522C6.67796 9.88454 6.72222 9.88457 6.77706 9.88515C6.77703 9.88515 6.90465 9.88684 6.93989 9.88701C7.17635 9.88818 7.31224 9.8132 7.46482 9.72901C7.47721 9.72217 7.48972 9.71527 7.50239 9.70835C7.5673 9.67289 7.64351 9.62803 7.72719 9.57877C8.09803 9.36045 8.61565 9.05572 8.94681 9.10077C9.02791 9.1118 9.15146 9.58437 9.13993 9.65703C9.13587 9.68266 9.14526 9.73941 9.15556 9.80164C9.17446 9.91584 9.19642 10.0485 9.14393 10.0414C8.79716 9.9942 8.28939 10.1756 7.57963 10.4557C7.23301 10.5765 6.80378 10.4676 6.44759 10.3773C6.14334 10.3001 5.89239 10.2364 5.79172 10.341C5.73842 10.3963 5.64478 10.402 5.58257 10.3537Z" fill="#FFC125"/><path d="M8.18897 13.1227L8.26369 13.1162V13.1162L8.18897 13.1227ZM8.70143 12.2708L8.75218 12.326L8.75215 12.326L8.70143 12.2708ZM8.72053 12.2532L8.77132 12.3084L8.77127 12.3084L8.72053 12.2532ZM8.82166 12.1632L8.7725 12.1066L8.87105 12.2197L8.82166 12.1632ZM8.93828 12.0622L8.98779 12.1185L8.93828 12.0622ZM9.18377 11.6205L9.11124 11.6014L9.11127 11.6013L9.18377 11.6205ZM9.1939 11.5823L9.12141 11.5631L9.12147 11.5628L9.1939 11.5823ZM9.24977 11.3494L9.32293 11.3659L9.32288 11.3661L9.24977 11.3494ZM9.24977 11.3494L9.17662 11.3329L9.17666 11.3327L9.24977 11.3494ZM9.24978 11.3494L9.32289 11.3661L9.32289 11.3661L9.24978 11.3494ZM9.73193 10.2448L9.77294 10.3076L9.73193 10.2448ZM10.311 10.5168L10.3682 10.4683L10.311 10.5168ZM10.4371 10.6092L10.3957 10.6718V10.6718L10.4371 10.6092ZM10.6196 10.786L10.5786 10.7232V10.7232L10.6196 10.786ZM9.84301 12.0622L9.91191 12.092L9.91033 12.0953L9.84301 12.0622ZM8.98017 12.7183L8.94694 12.651L8.98017 12.7183ZM8.48754 13.1049L8.56225 13.0983V13.0983L8.48754 13.1049ZM12.6998 13.1989L12.7324 13.1314V13.1314L12.6998 13.1989ZM12.903 13.1458L12.8395 13.106L12.903 13.1458ZM12.1751 12.3529L12.2477 12.3341L12.2477 12.3341L12.1751 12.3529ZM12.1689 12.3291L12.2415 12.3103L12.2415 12.3103L12.1689 12.3291ZM12.1391 12.2047L12.0659 12.221L12.2123 12.1882L12.1391 12.2047ZM12.1073 12.0627L12.1803 12.0457V12.0457L12.1073 12.0627ZM11.8243 11.6392L11.7733 11.6942L11.7732 11.6941L11.8243 11.6392ZM11.7937 11.6108L11.7427 11.6658L11.7425 11.6656L11.7937 11.6108ZM11.6021 11.4403L11.5527 11.4968L11.5527 11.4968L11.6021 11.4403ZM11.602 11.4402L11.65 11.3826L11.6513 11.3837L11.602 11.4402ZM11.602 11.4402L11.5539 11.4979L11.5527 11.4967L11.602 11.4402ZM11.3968 10.1977L11.3922 10.1228L11.3968 10.1977ZM11.5527 10.154L11.5762 10.2253H11.5762L11.5527 10.154ZM11.8189 10.1143L11.8937 10.1095V10.1095L11.8189 10.1143ZM12.6 11.3883L12.6582 11.3408L12.6603 11.3436L12.6 11.3883ZM12.7491 12.3888L12.8239 12.3946L12.7491 12.3888ZM12.8456 12.9666L12.8782 12.8991L12.8456 12.9666ZM15.9204 10.635L15.8482 10.655L15.8482 10.655L15.9204 10.635ZM15.8125 10.797L15.8292 10.8701L15.8125 10.797ZM15.7409 10.5387L15.7577 10.6118L15.7409 10.5387ZM15.2271 10.1746L15.1717 10.2252V10.2252L15.2271 10.1746ZM14.3504 9.53321L14.3632 9.45926L14.3661 9.45988L14.3504 9.53321ZM12.8016 9.07504L12.8502 9.01788H12.8502L12.8016 9.07504ZM12.6374 9.26548L12.5721 9.22863L12.5721 9.22863L12.6374 9.26548ZM12.5569 9.39191L12.6086 9.44622V9.44622L12.5569 9.39191ZM12.3561 9.94603L12.3076 10.0032L12.3561 9.94603ZM13.6636 10.1763L13.6654 10.1013L13.6663 10.1013L13.6636 10.1763ZM13.6637 10.1763L13.6619 10.2513L13.661 10.2513L13.6637 10.1763ZM13.9314 10.1848L13.9276 10.2597L13.9274 10.2597L13.9314 10.1848ZM13.9755 10.187L13.9718 10.2619L13.9717 10.2619L13.9755 10.187ZM14.5075 10.3252L14.5474 10.2617L14.5474 10.2617L14.5075 10.3252ZM14.6396 10.4097L14.5992 10.4729L14.68 10.3465L14.6396 10.4097ZM14.7569 10.4826L14.7955 10.4183L14.7955 10.4184L14.7569 10.4826ZM14.7797 10.4963L14.8183 10.432L14.8183 10.432L14.7797 10.4963ZM5.56645 10.1659L5.62048 10.2179H5.62048L5.56645 10.1659ZM5.58259 10.3537L5.62861 10.2944H5.62861L5.58259 10.3537ZM6.60651 9.88561L6.60544 9.81062H6.60544L6.60651 9.88561ZM6.63397 9.8852L6.63513 9.9602H6.63513L6.63397 9.8852ZM6.77708 9.88513L6.77787 9.81014L6.77647 9.96013L6.77708 9.88513ZM6.9399 9.88699L6.94028 9.81199H6.94028L6.9399 9.88699ZM7.46484 9.72899L7.4286 9.66333L7.4286 9.66333L7.46484 9.72899ZM7.50241 9.70833L7.53836 9.77415L7.53836 9.77415L7.50241 9.70833ZM7.7272 9.57875L7.76525 9.64338L7.7272 9.57875ZM8.94683 9.10075L8.95693 9.02644H8.95693L8.94683 9.10075ZM9.13995 9.65701L9.06588 9.64526V9.64526L9.13995 9.65701ZM9.15558 9.80163L9.08159 9.81387H9.08159L9.15558 9.80163ZM9.14395 10.0413L9.13384 10.1157L9.14395 10.0413ZM7.57965 10.4557L7.6072 10.5255L7.60434 10.5265L7.57965 10.4557ZM6.4476 10.3772L6.46604 10.3046L6.4476 10.3772ZM5.79174 10.341L5.84576 10.393L5.84576 10.393L5.79174 10.341ZM8.26369 13.1162C8.26579 13.1402 8.2947 13.1734 8.34528 13.1704L8.35421 13.3202C8.2399 13.327 8.12485 13.2504 8.11426 13.1292L8.26369 13.1162ZM8.75215 12.326C8.65479 12.4154 8.52428 12.5355 8.42146 12.6754C8.31804 12.8161 8.25059 12.9662 8.26369 13.1162L8.11426 13.1292C8.0965 12.926 8.18848 12.7391 8.3006 12.5865C8.41332 12.4332 8.55447 12.3039 8.65071 12.2155L8.75215 12.326ZM8.77127 12.3084L8.75218 12.326L8.65069 12.2155L8.66978 12.198L8.77127 12.3084ZM8.87083 12.2199C8.83193 12.2536 8.80119 12.2809 8.77132 12.3084L8.66974 12.198C8.70102 12.1692 8.73292 12.1409 8.7725 12.1066L8.87083 12.2199ZM8.98779 12.1185C8.97498 12.1298 8.94556 12.1553 8.91963 12.1777C8.9066 12.189 8.89436 12.1995 8.88537 12.2073C8.88088 12.2112 8.8772 12.2144 8.87465 12.2166C8.87337 12.2177 8.87237 12.2185 8.8717 12.2191C8.87136 12.2194 8.8711 12.2196 8.87092 12.2198C8.87084 12.2198 8.87077 12.2199 8.87073 12.2199C8.8707 12.22 8.87069 12.22 8.87067 12.22C8.87067 12.22 8.87066 12.22 8.87065 12.22C8.87065 12.22 8.87064 12.22 8.87064 12.22C8.87062 12.22 8.76503 12.2124 8.77228 12.1068L8.87105 12.2197C8.8783 12.1141 8.77271 12.1064 8.77269 12.1064C8.77269 12.1064 8.77268 12.1064 8.77268 12.1064C8.77268 12.1064 8.77268 12.1064 8.77269 12.1064C8.7727 12.1064 8.77271 12.1064 8.77273 12.1064C8.77278 12.1063 8.77284 12.1063 8.77293 12.1062C8.7731 12.1061 8.77336 12.1058 8.77369 12.1055C8.77437 12.105 8.77536 12.1041 8.77663 12.103C8.77918 12.1008 8.78285 12.0976 8.78733 12.0938C8.7963 12.086 8.80851 12.0755 8.82151 12.0642C8.84762 12.0417 8.87651 12.0166 8.88876 12.0059L8.98779 12.1185ZM9.2563 11.6396C9.21472 11.7976 9.17375 11.9551 8.98779 12.1185L8.88876 12.0059C9.03908 11.8737 9.07099 11.7543 9.11124 11.6014L9.2563 11.6396ZM9.2664 11.6015L9.25627 11.6397L9.11127 11.6013L9.12141 11.5631L9.2664 11.6015ZM9.32288 11.3661C9.30301 11.4531 9.28447 11.5342 9.26634 11.6018L9.12147 11.5628C9.13872 11.4986 9.15657 11.4206 9.17665 11.3327L9.32288 11.3661ZM9.32293 11.3659L9.32293 11.3659L9.17661 11.3329L9.17662 11.3329L9.32293 11.3659ZM9.32289 11.3661L9.32289 11.3661L9.17666 11.3327L9.17666 11.3327L9.32289 11.3661ZM9.77294 10.3076C9.65976 10.3815 9.56821 10.5401 9.4932 10.7438C9.41943 10.9442 9.36737 11.1715 9.32289 11.3661L9.17666 11.3327C9.22074 11.1398 9.27476 10.903 9.35243 10.692C9.42886 10.4844 9.53411 10.2844 9.69093 10.182L9.77294 10.3076ZM10.2538 10.5652C10.2542 10.5658 10.2486 10.5601 10.231 10.5475C10.2153 10.5363 10.1944 10.5226 10.1696 10.5074C10.12 10.4769 10.0572 10.4417 9.99373 10.4095C9.92991 10.3771 9.86751 10.3489 9.81836 10.3316C9.7935 10.3228 9.7747 10.3178 9.76214 10.3158C9.75586 10.3148 9.75344 10.315 9.75388 10.3149C9.75424 10.3149 9.75621 10.3147 9.75926 10.3139C9.76233 10.3131 9.76729 10.3113 9.77294 10.3076L9.69093 10.182C9.70995 10.1696 9.72992 10.1662 9.7437 10.1653C9.75821 10.1643 9.77257 10.1656 9.78539 10.1676C9.81101 10.1716 9.83964 10.18 9.8683 10.1901C9.92616 10.2105 9.99508 10.242 10.0616 10.2757C10.1284 10.3096 10.1948 10.3468 10.2481 10.3796C10.2748 10.3959 10.2987 10.4116 10.3182 10.4254C10.3356 10.4379 10.3553 10.4531 10.3682 10.4683L10.2538 10.5652ZM10.3957 10.6718C10.3677 10.6532 10.3393 10.6345 10.3158 10.6177C10.2944 10.6025 10.2695 10.5838 10.2538 10.5652L10.3682 10.4683C10.3682 10.4683 10.3706 10.4709 10.3775 10.4766C10.384 10.4818 10.3924 10.4881 10.4028 10.4956C10.4238 10.5105 10.4497 10.5276 10.4784 10.5466L10.3957 10.6718ZM10.5786 10.7232C10.5689 10.7295 10.5562 10.7434 10.5538 10.7645C10.5518 10.7816 10.558 10.7923 10.5582 10.7927C10.5584 10.793 10.5532 10.7856 10.535 10.7702C10.5012 10.7416 10.4492 10.7071 10.3957 10.6718L10.4784 10.5466C10.5292 10.5801 10.5898 10.6201 10.6319 10.6557C10.6516 10.6724 10.6752 10.6945 10.6893 10.7198C10.6965 10.7327 10.7059 10.7548 10.7028 10.7819C10.6991 10.813 10.6809 10.8355 10.6606 10.8488L10.5786 10.7232ZM9.77419 12.0324C9.91362 11.7105 10.0386 11.434 10.1649 11.2144C10.2907 10.9956 10.4223 10.8252 10.5786 10.7232L10.6606 10.8488C10.5341 10.9314 10.4169 11.077 10.2949 11.2892C10.1734 11.5004 10.0515 11.7697 9.91183 12.092L9.77419 12.0324ZM8.94694 12.651C9.10965 12.5706 9.2834 12.4846 9.43505 12.3819C9.58705 12.2789 9.70953 12.1638 9.7757 12.0291L9.91033 12.0953C9.82751 12.2639 9.68043 12.3968 9.51919 12.5061C9.3576 12.6156 9.17442 12.7059 9.01339 12.7855L8.94694 12.651ZM8.41282 13.1114C8.40778 13.0536 8.42895 13.0029 8.46059 12.9608C8.49151 12.9196 8.53492 12.883 8.58295 12.8497C8.6786 12.7835 8.81051 12.7185 8.94694 12.651L9.01339 12.7855C8.87329 12.8548 8.7529 12.9145 8.66837 12.973C8.62631 13.0022 8.59766 13.028 8.58055 13.0508C8.56415 13.0727 8.56131 13.0875 8.56225 13.0983L8.41282 13.1114ZM8.34528 13.1704C8.39499 13.1675 8.41472 13.1331 8.41282 13.1114L8.56225 13.0983C8.57304 13.2219 8.46939 13.3133 8.35421 13.3202L8.34528 13.1704ZM12.7324 13.1314C12.773 13.151 12.8213 13.135 12.8395 13.106L12.9665 13.1857C12.9042 13.285 12.7705 13.3165 12.6671 13.2664L12.7324 13.1314ZM12.2477 12.3341C12.279 12.4553 12.321 12.6172 12.3967 12.7694C12.4723 12.9215 12.578 13.0567 12.7324 13.1314L12.6671 13.2664C12.4716 13.1718 12.3461 13.0046 12.2624 12.8362C12.1788 12.668 12.1334 12.4916 12.1025 12.3716L12.2477 12.3341ZM12.2415 12.3103L12.2477 12.3341L12.1025 12.3717L12.0963 12.3479L12.2415 12.3103ZM12.2123 12.1882C12.2229 12.2355 12.2319 12.2732 12.2415 12.3103L12.0963 12.348C12.0862 12.3088 12.0768 12.2695 12.0659 12.2212L12.2123 12.1882ZM12.1803 12.0457C12.184 12.0615 12.192 12.0974 12.1991 12.1289C12.2026 12.1448 12.2059 12.1596 12.2083 12.1706C12.2096 12.176 12.2106 12.1805 12.2112 12.1836C12.2116 12.1852 12.2119 12.1864 12.212 12.1872C12.2121 12.1876 12.2122 12.1879 12.2122 12.1881C12.2123 12.1882 12.2123 12.1883 12.2123 12.1884C12.2123 12.1884 12.2123 12.1884 12.2123 12.1884C12.2123 12.1884 12.2123 12.1885 12.2123 12.1885C12.2123 12.1885 12.2123 12.1885 12.2123 12.1885C12.2123 12.1885 12.1554 12.2779 12.0659 12.221L12.2123 12.1884C12.1228 12.1315 12.0659 12.2209 12.0659 12.2209C12.0659 12.2209 12.0659 12.2209 12.0659 12.2209C12.0659 12.2209 12.0659 12.2209 12.0659 12.2209C12.0659 12.2209 12.0659 12.2209 12.0659 12.2208C12.0658 12.2208 12.0658 12.2207 12.0658 12.2206C12.0658 12.2204 12.0657 12.2201 12.0656 12.2197C12.0654 12.2189 12.0652 12.2177 12.0648 12.2161C12.0641 12.213 12.0631 12.2086 12.0619 12.2031C12.0595 12.1922 12.0562 12.1774 12.0527 12.1616C12.0456 12.1298 12.0377 12.0947 12.0342 12.0797L12.1803 12.0457ZM11.8752 11.5841C12 11.6997 12.1268 11.8157 12.1803 12.0457L12.0342 12.0797C11.992 11.8981 11.8973 11.809 11.7733 11.6942L11.8752 11.5841ZM11.8448 11.5558L11.8753 11.5842L11.7732 11.6941L11.7427 11.6658L11.8448 11.5558ZM11.6514 11.3838C11.724 11.4471 11.7912 11.5058 11.8449 11.556L11.7425 11.6656C11.6911 11.6175 11.626 11.5607 11.5527 11.4968L11.6514 11.3838ZM11.6513 11.3837L11.6514 11.3838L11.5527 11.4968L11.5527 11.4967L11.6513 11.3837ZM11.65 11.3826L11.65 11.3826L11.554 11.4978L11.554 11.4978L11.65 11.3826ZM10.8998 10.4813C10.8998 10.5323 10.921 10.5962 10.9656 10.672C11.0096 10.7469 11.0728 10.8274 11.148 10.9101C11.2985 11.0758 11.4894 11.2424 11.6513 11.3837L11.5527 11.4967C11.3921 11.3567 11.1944 11.1842 11.037 11.011C10.9582 10.9243 10.8876 10.8353 10.8363 10.748C10.7855 10.6617 10.7498 10.5706 10.7498 10.4813H10.8998ZM11.4014 10.2725C11.3904 10.2732 11.352 10.2811 11.2938 10.2982C11.2385 10.3144 11.172 10.3369 11.1083 10.363C11.044 10.3893 10.9857 10.4179 10.9449 10.4458C10.9243 10.4598 10.9111 10.4716 10.9038 10.4805C10.896 10.4899 10.8998 10.4897 10.8998 10.4813H10.7498C10.7498 10.4409 10.769 10.4081 10.7883 10.3848C10.808 10.361 10.8337 10.34 10.8604 10.3219C10.9139 10.2854 10.9832 10.2521 11.0515 10.2241C11.1206 10.1959 11.192 10.1717 11.2516 10.1542C11.3084 10.1376 11.362 10.1247 11.3922 10.1228L11.4014 10.2725ZM11.5762 10.2253C11.5434 10.2361 11.5104 10.247 11.4819 10.2554C11.4555 10.2631 11.4255 10.2711 11.4014 10.2725L11.3922 10.1228C11.3971 10.1225 11.4119 10.1196 11.4396 10.1114C11.4652 10.1039 11.4957 10.0939 11.5292 10.0828L11.5762 10.2253ZM11.7441 10.1192C11.7451 10.1354 11.7538 10.1517 11.7679 10.1618C11.7785 10.1694 11.787 10.1697 11.7854 10.1696C11.7821 10.1692 11.77 10.1697 11.7458 10.1748C11.6998 10.1846 11.6385 10.2047 11.5762 10.2253L11.5292 10.0828C11.5887 10.0632 11.6589 10.0399 11.7147 10.0281C11.7415 10.0224 11.773 10.0175 11.8009 10.0204C11.8149 10.0218 11.8359 10.026 11.8553 10.0399C11.8782 10.0563 11.8919 10.0814 11.8937 10.1095L11.7441 10.1192ZM12.5419 11.4357C12.3142 11.1565 12.1215 10.9128 11.9832 10.6992C11.8459 10.4872 11.7555 10.2948 11.7441 10.1192L11.8937 10.1095C11.9025 10.2451 11.9748 10.4103 12.1091 10.6177C12.2423 10.8235 12.4301 11.0612 12.6582 11.3409L12.5419 11.4357ZM12.6744 12.3831C12.6871 12.2178 12.7005 12.0428 12.6863 11.8753C12.6721 11.7083 12.6309 11.5557 12.5398 11.433L12.6603 11.3436C12.7742 11.4971 12.8203 11.6806 12.8357 11.8626C12.8511 12.0443 12.8365 12.2314 12.8239 12.3946L12.6744 12.3831ZM12.8129 13.0342C12.7074 12.9831 12.6739 12.8723 12.6636 12.7655C12.653 12.6564 12.6637 12.521 12.6744 12.3831L12.8239 12.3946C12.8129 12.5373 12.8038 12.6578 12.8129 12.751C12.8222 12.8466 12.8477 12.8844 12.8782 12.8991L12.8129 13.0342ZM12.8395 13.106C12.8536 13.0835 12.8488 13.0515 12.8129 13.0342L12.8782 12.8991C12.9863 12.9514 13.0329 13.0799 12.9665 13.1857L12.8395 13.106ZM15.9927 10.6149C16.0258 10.7342 15.9431 10.844 15.8292 10.8701L15.7958 10.7239C15.8407 10.7136 15.8546 10.6783 15.8482 10.655L15.9927 10.6149ZM15.7242 10.4656C15.8364 10.4399 15.9606 10.499 15.9927 10.6149L15.8482 10.655C15.8407 10.6282 15.8042 10.6012 15.7577 10.6118L15.7242 10.4656ZM15.2825 10.124C15.3835 10.2347 15.4702 10.3293 15.5495 10.3929C15.631 10.4583 15.685 10.4746 15.7242 10.4656L15.7577 10.6118C15.6469 10.6372 15.5437 10.5806 15.4556 10.5099C15.3653 10.4374 15.27 10.3329 15.1717 10.2252L15.2825 10.124ZM14.3661 9.45988C14.563 9.50218 14.7345 9.60633 14.8844 9.72921C15.0341 9.85188 15.1663 9.99686 15.2825 10.124L15.1717 10.2252C15.0544 10.0967 14.9292 9.9599 14.7893 9.84521C14.6497 9.73073 14.4996 9.64199 14.3346 9.60654L14.3661 9.45988ZM12.8502 9.01788C12.9639 9.11446 13.1471 9.19246 13.405 9.26291C13.6614 9.33291 13.9819 9.39307 14.3632 9.45932L14.3375 9.6071C13.9567 9.54094 13.6296 9.47973 13.3655 9.40761C13.1031 9.33594 12.893 9.25106 12.7531 9.1322L12.8502 9.01788ZM12.5721 9.22863C12.6003 9.17852 12.6344 9.11794 12.6669 9.07445C12.6824 9.05359 12.7028 9.02953 12.7269 9.01374C12.7395 9.00555 12.758 8.99625 12.7812 8.99478C12.8069 8.99314 12.8311 9.0017 12.8502 9.01788L12.7531 9.1322C12.7625 9.14023 12.7762 9.1454 12.7907 9.14448C12.7968 9.14409 12.8015 9.14269 12.8043 9.14159C12.8071 9.14049 12.8087 9.13949 12.809 9.13932C12.8092 9.13915 12.8071 9.14058 12.8026 9.14533C12.7983 9.14985 12.7931 9.15608 12.787 9.16423C12.7616 9.19831 12.7327 9.24926 12.7027 9.30233L12.5721 9.22863ZM12.5052 9.3376C12.5049 9.33781 12.5055 9.33725 12.507 9.33549C12.5084 9.33379 12.5102 9.33144 12.5125 9.3283C12.5171 9.32194 12.5225 9.31365 12.5288 9.30336C12.5416 9.28262 12.556 9.25712 12.5721 9.22863L12.7027 9.30233C12.6871 9.33007 12.6712 9.35832 12.6566 9.38201C12.6432 9.40369 12.6265 9.4292 12.6086 9.44622L12.5052 9.3376ZM12.3076 10.0032C12.2727 9.9736 12.2704 9.9297 12.2704 9.90994C12.2704 9.88443 12.2752 9.85615 12.2815 9.82877C12.2944 9.77322 12.3177 9.70649 12.3436 9.64217C12.3697 9.57736 12.3995 9.51236 12.4268 9.45962C12.4404 9.4333 12.4537 9.40931 12.4659 9.38961C12.4769 9.37182 12.4905 9.35155 12.5052 9.3376L12.6086 9.44622C12.6092 9.44568 12.6041 9.45121 12.5934 9.4685C12.5839 9.48388 12.5726 9.50425 12.5601 9.52845C12.5351 9.57677 12.5072 9.63749 12.4827 9.69821C12.4581 9.75942 12.438 9.81801 12.4276 9.8627C12.4223 9.88545 12.4204 9.90102 12.4204 9.90997C12.4204 9.92469 12.4247 9.90587 12.4047 9.88887L12.3076 10.0032ZM13.6619 10.2513C13.4403 10.2462 13.1701 10.24 12.9245 10.2089C12.8016 10.1933 12.6829 10.1712 12.5781 10.1391C12.4741 10.1072 12.379 10.0639 12.3076 10.0032L12.4047 9.88887C12.4543 9.93104 12.5277 9.96672 12.6221 9.99567C12.7157 10.0244 12.8253 10.0451 12.9434 10.0601C13.1799 10.0901 13.4423 10.0962 13.6654 10.1013L13.6619 10.2513ZM13.661 10.2513L13.661 10.2513L13.6663 10.1013L13.6663 10.1013L13.661 10.2513ZM13.9274 10.2597C13.8527 10.2557 13.7626 10.2536 13.6619 10.2513L13.6654 10.1013C13.7654 10.1036 13.858 10.1057 13.9354 10.1099L13.9274 10.2597ZM13.9717 10.2619L13.9276 10.2597L13.9352 10.1099L13.9793 10.1121L13.9717 10.2619ZM14.4675 10.3887C14.2924 10.2784 14.1502 10.2707 13.9718 10.2619L13.9792 10.1121C14.1595 10.121 14.3366 10.129 14.5474 10.2617L14.4675 10.3887ZM14.6801 10.3466C14.5765 10.3693 14.5991 10.4728 14.5991 10.4728C14.5991 10.4728 14.5991 10.4728 14.5991 10.4728C14.5991 10.4728 14.5991 10.4728 14.5991 10.4728C14.5991 10.4728 14.5991 10.4728 14.599 10.4728C14.599 10.4728 14.5989 10.4727 14.5988 10.4727C14.5986 10.4725 14.5983 10.4723 14.5979 10.4721C14.5972 10.4716 14.5961 10.4709 14.5946 10.47C14.5917 10.4681 14.5876 10.4655 14.5825 10.4622C14.5724 10.4557 14.5586 10.4468 14.5439 10.4374C14.5143 10.4185 14.4816 10.3975 14.4675 10.3887L14.5474 10.2617C14.5621 10.271 14.5954 10.2923 14.6248 10.3111C14.6396 10.3206 14.6534 10.3294 14.6635 10.336C14.6686 10.3392 14.6728 10.3419 14.6757 10.3437C14.6771 10.3447 14.6782 10.3454 14.679 10.3459C14.6794 10.3461 14.6797 10.3463 14.6799 10.3464C14.68 10.3465 14.68 10.3466 14.6801 10.3466C14.6801 10.3466 14.6801 10.3466 14.6802 10.3466C14.6802 10.3466 14.6802 10.3466 14.6802 10.3466C14.6802 10.3466 14.6802 10.3466 14.6802 10.3466C14.6802 10.3466 14.7028 10.4502 14.5992 10.4729L14.6801 10.3466ZM14.7183 10.547C14.6811 10.5246 14.6442 10.5016 14.5993 10.473L14.68 10.3465C14.7242 10.3747 14.7598 10.3969 14.7955 10.4183L14.7183 10.547ZM14.741 10.5606L14.7183 10.5469L14.7955 10.4184L14.8183 10.432L14.741 10.5606ZM15.8292 10.8701C15.6158 10.9189 15.399 10.8733 15.2112 10.8019C15.0229 10.7303 14.8559 10.6296 14.741 10.5606L14.8183 10.432C14.934 10.5016 15.0904 10.5955 15.2645 10.6616C15.439 10.728 15.6233 10.7634 15.7958 10.7239L15.8292 10.8701ZM5.62048 10.2179C5.59952 10.2397 5.59993 10.2722 5.62861 10.2944L5.53657 10.4129C5.44083 10.3385 5.42679 10.2028 5.51242 10.1139L5.62048 10.2179ZM6.60759 9.9606C6.46787 9.9626 6.27872 9.96547 6.09303 10.0001C5.90618 10.0349 5.73406 10.1 5.62048 10.2179L5.51242 10.1139C5.65795 9.96275 5.86672 9.88966 6.06555 9.85261C6.26554 9.81534 6.46687 9.8126 6.60544 9.81062L6.60759 9.9606ZM6.63513 9.9602C6.6262 9.96033 6.617 9.96047 6.60759 9.9606L6.60544 9.81062C6.61486 9.81048 6.62398 9.81035 6.63281 9.81021L6.63513 9.9602ZM6.77629 9.96013C6.72185 9.95956 6.67828 9.95953 6.63513 9.9602L6.63281 9.81021C6.67767 9.80952 6.72263 9.80956 6.77787 9.81014L6.77629 9.96013ZM6.93953 9.96199C6.92158 9.9619 6.88055 9.96143 6.84435 9.96099C6.82618 9.96077 6.80911 9.96055 6.79659 9.96039C6.79033 9.96031 6.7852 9.96025 6.78164 9.9602C6.77986 9.96018 6.77847 9.96016 6.77753 9.96015C6.77706 9.96014 6.7767 9.96014 6.77646 9.96013C6.77633 9.96013 6.77624 9.96013 6.77618 9.96013C6.77615 9.96013 6.77612 9.96013 6.77611 9.96013C6.7761 9.96013 6.77609 9.96013 6.77608 9.96013C6.77608 9.96013 6.77607 9.96013 6.77607 9.96013C6.77605 9.96013 6.70208 9.88431 6.77769 9.81014L6.77647 9.96013C6.85207 9.88596 6.77811 9.81014 6.77809 9.81014C6.77809 9.81014 6.77809 9.81014 6.77809 9.81014C6.77809 9.81014 6.77809 9.81014 6.77809 9.81014C6.77809 9.81014 6.77809 9.81014 6.7781 9.81014C6.77811 9.81014 6.77813 9.81014 6.77816 9.81014C6.77822 9.81014 6.77831 9.81014 6.77843 9.81015C6.77867 9.81015 6.77903 9.81015 6.7795 9.81016C6.78044 9.81017 6.78182 9.81019 6.7836 9.81021C6.78715 9.81026 6.79227 9.81033 6.79851 9.81041C6.81101 9.81057 6.82805 9.81078 6.84618 9.811C6.88259 9.81145 6.92299 9.81191 6.94028 9.81199L6.93953 9.96199ZM7.50107 9.79466C7.34674 9.87981 7.19643 9.96327 6.93953 9.96199L6.94028 9.81199C7.15631 9.81306 7.27777 9.74655 7.4286 9.66333L7.50107 9.79466ZM7.53836 9.77415C7.52585 9.78099 7.51349 9.78781 7.50107 9.79466L7.4286 9.66333C7.44097 9.6565 7.45362 9.64952 7.46646 9.64251L7.53836 9.77415ZM7.76525 9.64338C7.6819 9.69245 7.60455 9.738 7.53836 9.77415L7.46646 9.64251C7.53008 9.60776 7.60514 9.56358 7.68915 9.51412L7.76525 9.64338ZM8.93672 9.17507C8.79388 9.15564 8.59879 9.21201 8.38271 9.30937C8.16992 9.40524 7.95133 9.53384 7.76525 9.64338L7.68915 9.51412C7.87393 9.40534 8.09957 9.27242 8.32109 9.17261C8.53932 9.07429 8.76862 9.00082 8.95693 9.02644L8.93672 9.17507ZM9.06588 9.64526C9.06551 9.6476 9.06627 9.64162 9.06384 9.6218C9.06174 9.60457 9.05794 9.58222 9.05258 9.55608C9.04186 9.5039 9.02558 9.44001 9.00644 9.37783C8.98717 9.31521 8.96579 9.25693 8.94537 9.21485C8.93502 9.19353 8.92631 9.1793 8.91996 9.17124C8.91066 9.15943 8.91581 9.17222 8.93672 9.17507L8.95693 9.02644C8.99812 9.03204 9.02487 9.06201 9.03781 9.07844C9.05369 9.09862 9.06785 9.12368 9.08031 9.14935C9.10551 9.20126 9.1295 9.26773 9.14981 9.33371C9.17025 9.40014 9.18776 9.4687 9.19951 9.52591C9.20537 9.55446 9.20998 9.58104 9.21273 9.60359C9.21518 9.62357 9.21728 9.64825 9.21403 9.66876L9.06588 9.64526ZM9.08159 9.81387C9.07651 9.78321 9.0713 9.75183 9.06795 9.72484C9.06494 9.70059 9.06196 9.66997 9.06588 9.64526L9.21403 9.66876C9.21419 9.66772 9.21377 9.67017 9.21415 9.67811C9.21449 9.68538 9.21537 9.69475 9.21681 9.70634C9.21971 9.7297 9.22435 9.75781 9.22957 9.78938L9.08159 9.81387ZM9.15405 9.96703C9.14433 9.96571 9.12974 9.96733 9.11639 9.97698C9.10485 9.9853 9.10105 9.99476 9.10047 9.9963C9.09996 9.99762 9.10216 9.99066 9.10156 9.96906C9.10045 9.92878 9.09134 9.87281 9.08159 9.81387L9.22957 9.78938C9.23872 9.84464 9.25004 9.9121 9.25151 9.96491C9.2522 9.98986 9.25123 10.0219 9.24067 10.0496C9.23506 10.0644 9.2245 10.0839 9.2042 10.0986C9.18207 10.1146 9.15669 10.1188 9.13384 10.1157L9.15405 9.96703ZM7.55212 10.3859C7.9068 10.2459 8.21429 10.1293 8.4772 10.0537C8.73898 9.97843 8.96486 9.9413 9.15405 9.96703L9.13384 10.1157C8.97627 10.0942 8.77488 10.1242 8.51864 10.1979C8.26353 10.2712 7.96226 10.3853 7.60718 10.5254L7.55212 10.3859ZM6.46604 10.3046C6.64493 10.3499 6.8366 10.3984 7.02615 10.4212C7.21577 10.4439 7.39685 10.4399 7.55496 10.3848L7.60434 10.5265C7.41582 10.5922 7.20898 10.5942 7.00828 10.5701C6.80751 10.546 6.60647 10.4949 6.42916 10.4499L6.46604 10.3046ZM5.73771 10.2889C5.81507 10.2086 5.93731 10.2038 6.05155 10.2164C6.17122 10.2296 6.31572 10.2664 6.46604 10.3046L6.42916 10.4499C6.27524 10.4109 6.14214 10.3773 6.03512 10.3655C5.92265 10.3531 5.86907 10.3688 5.84576 10.393L5.73771 10.2889ZM5.62861 10.2944C5.66174 10.3202 5.71206 10.3156 5.73771 10.2889L5.84576 10.393C5.76482 10.4771 5.62786 10.4838 5.53657 10.4129L5.62861 10.2944Z" fill="#984111"/></g><g id="Combined Shape"><path fill-rule="evenodd" clip-rule="evenodd" d="M10.8748 4.05908C10.7308 4.05908 10.6082 4.1638 10.5857 4.30601L10.1248 7.21698H11.6248L11.1639 4.30601C11.1414 4.1638 11.0188 4.05908 10.8748 4.05908ZM14.8052 5.50619C14.7038 5.41608 14.5433 5.40608 14.4288 5.48276L11.7628 7.26776L12.8235 8.21057L14.8316 5.84083C14.9178 5.73903 14.9066 5.59631 14.8052 5.50619ZM16.2126 8.75011C16.3386 8.76587 16.4332 8.87296 16.4332 8.99992C16.4332 9.12687 16.3386 9.23397 16.2126 9.24973L12.8805 9.66659V8.33325L16.2126 8.75011ZM14.8052 12.4936C14.9065 12.4034 14.9178 12.2607 14.8315 12.1589L12.8234 9.78919L11.7627 10.732L14.4287 12.517C14.5432 12.5937 14.7038 12.5837 14.8052 12.4936ZM11.1639 13.6938C11.1414 13.836 11.0188 13.9407 10.8748 13.9407C10.7309 13.9407 10.6083 13.836 10.5858 13.6938L10.1248 10.7828H11.6248L11.1639 13.6938ZM6.94443 12.4936C7.04581 12.5837 7.20638 12.5937 7.3209 12.517L9.98685 10.732L8.92619 9.78919L6.91807 12.1589C6.83181 12.2607 6.84305 12.4034 6.94443 12.4936ZM5.53691 9.24971C5.41094 9.23395 5.31641 9.12686 5.31641 8.9999C5.31641 8.87295 5.41094 8.76585 5.53691 8.75009L8.86904 8.33324V9.66657L5.53691 9.24971ZM6.94436 5.5062C6.84298 5.59631 6.83174 5.73903 6.918 5.84083L8.92612 8.21057L9.98678 7.26776L7.32083 5.48276C7.20631 5.40608 7.04574 5.41608 6.94436 5.5062Z" fill="#FFC125"/><path d="M10.5857 4.30601L10.5116 4.29428V4.29428L10.5857 4.30601ZM10.1248 7.21698L10.0507 7.20525L10.037 7.29198H10.1248V7.21698ZM11.6248 7.21698V7.29198H11.7126L11.6989 7.20525L11.6248 7.21698ZM11.1639 4.30601L11.238 4.29428V4.29428L11.1639 4.30601ZM14.4288 5.48276L14.387 5.42044V5.42044L14.4288 5.48276ZM14.8052 5.50619L14.7554 5.56225V5.56225L14.8052 5.50619ZM11.7628 7.26776L11.7211 7.20544L11.6405 7.25939L11.713 7.32381L11.7628 7.26776ZM12.8235 8.21057L12.7736 8.26662L12.831 8.31764L12.8807 8.25906L12.8235 8.21057ZM14.8316 5.84083L14.8888 5.88932V5.88932L14.8316 5.84083ZM16.2126 8.75011L16.222 8.67569L16.2126 8.75011ZM16.2126 9.24973L16.2033 9.17531L16.2126 9.24973ZM12.8805 9.66659H12.8055V9.75155L12.8898 9.74101L12.8805 9.66659ZM12.8805 8.33325L12.8898 8.25883L12.8055 8.24828V8.33325H12.8805ZM14.8315 12.1589L14.7743 12.2074L14.8315 12.1589ZM14.8052 12.4936L14.7553 12.4375L14.8052 12.4936ZM12.8234 9.78919L12.8806 9.7407L12.831 9.68211L12.7736 9.73313L12.8234 9.78919ZM11.7627 10.732L11.7129 10.6759L11.6404 10.7404L11.721 10.7943L11.7627 10.732ZM14.4287 12.517L14.387 12.5793L14.4287 12.517ZM11.1639 13.6938L11.238 13.7055L11.1639 13.6938ZM10.5858 13.6938L10.5117 13.7055L10.5858 13.6938ZM10.1248 10.7828V10.7078H10.037L10.0508 10.7946L10.1248 10.7828ZM11.6248 10.7828L11.6989 10.7946L11.7127 10.7078H11.6248V10.7828ZM7.3209 12.517L7.27917 12.4547L7.3209 12.517ZM6.94443 12.4936L6.8946 12.5496H6.8946L6.94443 12.4936ZM9.98685 10.732L10.0286 10.7943L10.1092 10.7404L10.0367 10.6759L9.98685 10.732ZM8.92619 9.78919L8.97602 9.73313L8.91862 9.68211L8.86897 9.7407L8.92619 9.78919ZM6.91807 12.1589L6.97529 12.2074H6.97529L6.91807 12.1589ZM5.53691 9.24971L5.5276 9.32413H5.5276L5.53691 9.24971ZM5.53691 8.75009L5.54622 8.82451H5.54622L5.53691 8.75009ZM8.86904 8.33324H8.94404V8.24827L8.85973 8.25882L8.86904 8.33324ZM8.86904 9.66657L8.85973 9.74099L8.94404 9.75154V9.66657H8.86904ZM6.918 5.84083L6.97522 5.79234L6.918 5.84083ZM6.94436 5.5062L6.89453 5.45014H6.89453L6.94436 5.5062ZM8.92612 8.21057L8.8689 8.25906L8.91855 8.31765L8.97595 8.26662L8.92612 8.21057ZM9.98678 7.26776L10.0366 7.32382L10.1091 7.25939L10.0285 7.20544L9.98678 7.26776ZM7.32083 5.48276L7.2791 5.54508L7.32083 5.48276ZM10.6598 4.31773C10.6765 4.21196 10.7677 4.13408 10.8748 4.13408V3.98408C10.6939 3.98408 10.5399 4.11563 10.5116 4.29428L10.6598 4.31773ZM10.1989 7.22871L10.6598 4.31773L10.5116 4.29428L10.0507 7.20525L10.1989 7.22871ZM11.6248 7.14198H10.1248V7.29198H11.6248V7.14198ZM11.0898 4.31773L11.5507 7.22871L11.6989 7.20525L11.238 4.29428L11.0898 4.31773ZM10.8748 4.13408C10.9819 4.13408 11.0731 4.21196 11.0898 4.31774L11.238 4.29428C11.2097 4.11563 11.0557 3.98408 10.8748 3.98408V4.13408ZM14.4705 5.54508C14.5573 5.48697 14.6801 5.49534 14.7554 5.56225L14.855 5.45014C14.7276 5.33681 14.5293 5.32519 14.387 5.42044L14.4705 5.54508ZM11.8045 7.33008L14.4705 5.54508L14.387 5.42044L11.7211 7.20544L11.8045 7.33008ZM12.8733 8.15451L11.8126 7.2117L11.713 7.32381L12.7736 8.26662L12.8733 8.15451ZM14.7744 5.79234L12.7662 8.16208L12.8807 8.25906L14.8888 5.88932L14.7744 5.79234ZM14.7554 5.56225C14.8272 5.62606 14.8336 5.72247 14.7744 5.79234L14.8888 5.88932C15.0021 5.75559 14.986 5.56657 14.855 5.45014L14.7554 5.56225ZM16.5082 8.99992C16.5082 8.83514 16.3855 8.69615 16.222 8.67569L16.2033 8.82453C16.2918 8.8356 16.3582 8.91078 16.3582 8.99992H16.5082ZM16.222 9.32415C16.3855 9.30369 16.5082 9.1647 16.5082 8.99992H16.3582C16.3582 9.08905 16.2918 9.16424 16.2033 9.17531L16.222 9.32415ZM12.8898 9.74101L16.222 9.32415L16.2033 9.17531L12.8712 9.59217L12.8898 9.74101ZM12.8055 8.33325V9.66659H12.9555V8.33325H12.8055ZM16.222 8.67569L12.8898 8.25883L12.8712 8.40767L16.2033 8.82453L16.222 8.67569ZM14.7743 12.2074C14.8335 12.2773 14.8271 12.3737 14.7553 12.4375L14.855 12.5496C14.986 12.4332 15.002 12.2442 14.8887 12.1104L14.7743 12.2074ZM12.7662 9.83767L14.7743 12.2074L14.8887 12.1104L12.8806 9.7407L12.7662 9.83767ZM11.8126 10.7881L12.8732 9.84524L12.7736 9.73313L11.7129 10.6759L11.8126 10.7881ZM14.4704 12.4547L11.8045 10.6697L11.721 10.7943L14.387 12.5793L14.4704 12.4547ZM14.7553 12.4375C14.68 12.5044 14.5572 12.5128 14.4704 12.4547L14.387 12.5793C14.5292 12.6746 14.7275 12.6629 14.855 12.5496L14.7553 12.4375ZM10.8748 14.0157C11.0557 14.0157 11.2097 13.8842 11.238 13.7055L11.0899 13.6821C11.0731 13.7879 10.9819 13.8657 10.8748 13.8657V14.0157ZM10.5117 13.7055C10.54 13.8842 10.694 14.0157 10.8748 14.0157V13.8657C10.7678 13.8657 10.6766 13.7879 10.6598 13.6821L10.5117 13.7055ZM10.0508 10.7946L10.5117 13.7055L10.6598 13.6821L10.1989 10.7711L10.0508 10.7946ZM11.6248 10.7078H10.1248V10.8578H11.6248V10.7078ZM11.238 13.7055L11.6989 10.7946L11.5508 10.7711L11.0899 13.6821L11.238 13.7055ZM7.27917 12.4547C7.19238 12.5128 7.06953 12.5044 6.99426 12.4375L6.8946 12.5496C7.0221 12.6629 7.22037 12.6746 7.36262 12.5793L7.27917 12.4547ZM9.94512 10.6697L7.27917 12.4547L7.36262 12.5793L10.0286 10.7943L9.94512 10.6697ZM8.87636 9.84524L9.93702 10.7881L10.0367 10.6759L8.97602 9.73313L8.87636 9.84524ZM6.97529 12.2074L8.98341 9.83768L8.86897 9.7407L6.86085 12.1104L6.97529 12.2074ZM6.99426 12.4375C6.92248 12.3737 6.91608 12.2773 6.97529 12.2074L6.86085 12.1104C6.74753 12.2442 6.76362 12.4332 6.8946 12.5496L6.99426 12.4375ZM5.24141 8.9999C5.24141 9.16468 5.3641 9.30368 5.5276 9.32413L5.54622 9.17529C5.45777 9.16423 5.39141 9.08904 5.39141 8.9999H5.24141ZM5.5276 8.67567C5.3641 8.69613 5.24141 8.83512 5.24141 8.9999H5.39141C5.39141 8.91077 5.45777 8.83558 5.54622 8.82451L5.5276 8.67567ZM8.85973 8.25882L5.5276 8.67567L5.54622 8.82451L8.87835 8.40766L8.85973 8.25882ZM8.94404 9.66657V8.33324H8.79404V9.66657H8.94404ZM5.5276 9.32413L8.85973 9.74099L8.87835 9.59215L5.54622 9.17529L5.5276 9.32413ZM6.97522 5.79234C6.91601 5.72247 6.92241 5.62606 6.99419 5.56225L6.89453 5.45014C6.76355 5.56657 6.74746 5.75559 6.86078 5.88932L6.97522 5.79234ZM8.98334 8.16208L6.97522 5.79234L6.86078 5.88932L8.8689 8.25906L8.98334 8.16208ZM9.93695 7.2117L8.87629 8.15451L8.97595 8.26662L10.0366 7.32382L9.93695 7.2117ZM7.2791 5.54508L9.94506 7.33008L10.0285 7.20544L7.36255 5.42044L7.2791 5.54508ZM6.99419 5.56225C7.06946 5.49534 7.19231 5.48697 7.2791 5.54508L7.36255 5.42044C7.2203 5.32519 7.02203 5.33681 6.89453 5.45014L6.99419 5.56225Z" fill="#984111"/></g><path id="Oval" fill-rule="evenodd" clip-rule="evenodd" d="M10.8747 10.8422C12.0759 10.8422 13.0497 9.98796 13.0497 8.93426C13.0497 7.88056 12.0759 7.02637 10.8747 7.02637C9.67349 7.02637 8.69971 7.88056 8.69971 8.93426C8.69971 9.98796 9.67349 10.8422 10.8747 10.8422Z" fill="#FFC125" stroke="#984111" stroke-width="0.15"/><g id="inner"><path id="Path 106" d="M10.6651 8.43645C10.6427 8.4241 10.5475 8.3683 10.5242 8.35515C10.4419 8.30884 10.3762 8.27865 10.3152 8.26174C10.2818 8.25247 10.2513 8.24779 10.2237 8.24779C10.0914 8.24779 9.90435 8.32123 9.66783 8.47089L9.58008 8.36418C9.83986 8.1998 10.0527 8.11621 10.2237 8.11621C10.2678 8.11621 10.3132 8.12318 10.3605 8.13628C10.4367 8.15744 10.5127 8.19235 10.6052 8.24439C10.6304 8.25859 10.7247 8.31391 10.7449 8.32501C10.7776 8.34306 10.7988 8.35174 10.7986 8.35174C10.9777 8.35174 10.9885 8.9213 10.8619 9.09594C10.8276 9.14315 10.7856 9.1813 10.7305 9.21971C10.7094 9.23448 10.6429 9.27705 10.6331 9.28377C10.589 9.314 10.575 9.33161 10.575 9.35317C10.575 9.3569 10.6289 9.36877 10.7491 9.36376C10.7729 9.36277 10.7965 9.36136 10.8314 9.35901C10.9168 9.35325 10.9278 9.3526 10.9554 9.3526V9.48418C10.9336 9.48418 10.9222 9.48485 10.8429 9.4902C10.8067 9.49265 10.7818 9.49412 10.7562 9.49519C10.5449 9.50401 10.425 9.4776 10.425 9.35317C10.425 9.2817 10.4638 9.23277 10.5407 9.18007C10.5533 9.17147 10.6191 9.12934 10.6372 9.11671C10.6803 9.08669 10.7112 9.05863 10.7353 9.02531C10.7741 8.97182 10.7982 8.83264 10.7954 8.68509C10.7941 8.61735 10.7871 8.55517 10.7761 8.51156C10.7728 8.49847 10.7693 8.48769 10.766 8.47979C10.7375 8.47366 10.7069 8.45948 10.6651 8.43645Z" fill="#984111"/><path id="Path 106_2" fill-rule="evenodd" clip-rule="evenodd" d="M11.2705 8.39029C11.2379 8.40924 11.2029 8.42957 11.1904 8.43645C11.1486 8.45948 11.1179 8.47366 11.0895 8.47979C11.0861 8.48769 11.0826 8.49847 11.0793 8.51156C11.0683 8.55517 11.0614 8.61735 11.0601 8.68509C11.0573 8.83264 11.0814 8.97182 11.1202 9.02531C11.1443 9.05863 11.1752 9.08669 11.2183 9.11671C11.2288 9.12406 11.2555 9.14141 11.2785 9.15632C11.2949 9.16702 11.3095 9.17648 11.3147 9.18007C11.3916 9.23277 11.4305 9.2817 11.4305 9.35317C11.4305 9.4776 11.3106 9.50401 11.0993 9.49519C11.0737 9.49412 11.0488 9.49265 11.0126 9.4902C10.9333 9.48485 10.9218 9.48418 10.9001 9.48418V9.3526C10.9277 9.3526 10.9387 9.35325 11.0241 9.35901C11.0589 9.36136 11.0826 9.36277 11.1064 9.36376C11.2266 9.36877 11.2805 9.3569 11.2805 9.35317C11.2805 9.33161 11.2665 9.314 11.2224 9.28377C11.2188 9.28128 11.2074 9.27389 11.1934 9.26481C11.1696 9.24935 11.1383 9.22901 11.1249 9.21971C11.0699 9.1813 11.0278 9.14315 10.9936 9.09594C10.8669 8.9213 10.8778 8.35174 11.0569 8.35174C11.0568 8.35174 11.0573 8.35155 11.0581 8.35117C11.0631 8.34897 11.0827 8.3404 11.1106 8.32501C11.1214 8.31909 11.1533 8.30057 11.1845 8.28242C11.2118 8.26657 11.2385 8.25101 11.2503 8.24439C11.3428 8.19235 11.4188 8.15744 11.495 8.13628C11.5422 8.12318 11.5877 8.11621 11.6318 8.11621C11.8028 8.11621 12.0156 8.1998 12.2754 8.36418L12.1876 8.47089C11.9511 8.32123 11.7641 8.24779 11.6318 8.24779C11.6042 8.24779 11.5737 8.25247 11.5402 8.26174C11.4793 8.27865 11.4136 8.30884 11.3313 8.35515C11.3209 8.36098 11.2965 8.37519 11.2705 8.39029ZM11.0942 8.47034L11.0924 8.47352L11.0935 8.47134L11.0942 8.47034Z" fill="#984111"/><path id="Path 107" d="M10.5055 9.72108L10.475 9.65253L10.5055 9.72108ZM11.2515 9.72196L11.2162 9.78812L11.2162 9.78812L11.2515 9.72196ZM11.3302 9.76398L11.3893 9.81015L11.4442 9.73984L11.3655 9.69782L11.3302 9.76398ZM11.2753 9.83429L11.3344 9.88046V9.88046L11.2753 9.83429ZM10.4819 9.84167L10.5359 9.78963L10.4819 9.84167ZM10.4076 9.76454L10.3771 9.69599L10.2792 9.73946L10.3536 9.81659L10.4076 9.76454ZM10.6794 9.81755L10.6594 9.74527L10.5119 9.78609L10.6346 9.87765L10.6794 9.81755ZM11.0888 9.81613L11.1388 9.87197L11.2376 9.78338L11.1108 9.74443L11.0888 9.81613ZM10.431 9.77377L10.3957 9.70761L10.3131 9.75172L10.3742 9.82269L10.431 9.77377ZM11.3121 9.77367L11.3738 9.8164L11.4174 9.75346L11.3536 9.71115L11.3121 9.77367ZM10.3471 9.64867L10.3832 9.71438L10.3471 9.64867ZM11.4068 9.65659L11.3643 9.71837V9.71837L11.4068 9.65659ZM11.4584 9.69215L11.4159 9.75393V9.75393L11.4584 9.69215ZM11.5195 9.73421L11.5818 9.77606L11.6232 9.7145L11.5621 9.67243L11.5195 9.73421ZM11.4782 9.79577L11.5404 9.83761V9.83761L11.4782 9.79577ZM11.4448 9.84538L11.3826 9.80354L11.3826 9.80354L11.4448 9.84538ZM10.3051 9.85725L10.2476 9.90542H10.2476L10.3051 9.85725ZM10.2573 9.80018L10.3148 9.75201L10.3148 9.75201L10.2573 9.80018ZM10.1987 9.73026L10.1626 9.66454L10.0827 9.70851L10.1412 9.77843L10.1987 9.73026ZM10.2787 9.6863L10.2425 9.62058L10.2787 9.6863ZM10.8928 9.56392C10.7476 9.56392 10.6082 9.59342 10.475 9.65253L10.5359 9.78963C10.6499 9.73903 10.7686 9.71392 10.8928 9.71392V9.56392ZM11.2868 9.6558C11.169 9.5929 11.0367 9.56392 10.8928 9.56392V9.71392C11.0163 9.71392 11.1235 9.73864 11.2162 9.78812L11.2868 9.6558ZM11.3655 9.69782L11.2868 9.6558L11.2162 9.78812L11.2949 9.83014L11.3655 9.69782ZM11.3344 9.88046L11.3893 9.81015L11.2711 9.71781L11.2162 9.78812L11.3344 9.88046ZM10.8928 10.1236C11.0699 10.1236 11.2169 10.0309 11.3344 9.88046L11.2162 9.78812C11.1178 9.9141 11.0104 9.97356 10.8928 9.97356V10.1236ZM10.4279 9.89372C10.5644 10.0353 10.7198 10.1236 10.8928 10.1236V9.97356C10.7748 9.97356 10.6558 9.914 10.5359 9.78963L10.4279 9.89372ZM10.3536 9.81659L10.4279 9.89372L10.5359 9.78963L10.4616 9.7125L10.3536 9.81659ZM10.475 9.65253L10.3771 9.69599L10.438 9.83309L10.5359 9.78963L10.475 9.65253ZM10.8928 9.82356C10.8465 9.82356 10.7908 9.80711 10.7243 9.75746L10.6346 9.87765C10.7213 9.94238 10.8077 9.97356 10.8928 9.97356V9.82356ZM11.0387 9.76028C10.9852 9.8082 10.9375 9.82356 10.8928 9.82356V9.97356C10.9788 9.97356 11.0612 9.94151 11.1388 9.87197L11.0387 9.76028ZM10.8928 9.86392C10.959 9.86392 11.0164 9.87237 11.0667 9.88782L11.1108 9.74443C11.0443 9.72403 10.9718 9.71392 10.8928 9.71392V9.86392ZM10.6994 9.88983C10.7619 9.87255 10.8262 9.86392 10.8928 9.86392V9.71392C10.813 9.71392 10.7352 9.72428 10.6594 9.74527L10.6994 9.88983ZM10.8928 9.95512C10.7651 9.95512 10.6303 9.89036 10.4879 9.72485L10.3742 9.82269C10.5342 10.0086 10.7071 10.1051 10.8928 10.1051V9.95512ZM11.2505 9.73093C11.1389 9.89196 11.0192 9.95512 10.8928 9.95512V10.1051C11.0812 10.1051 11.2423 10.006 11.3738 9.8164L11.2505 9.73093ZM10.8928 9.73232C11.0444 9.73232 11.1691 9.76883 11.2707 9.83618L11.3536 9.71115C11.224 9.62524 11.0695 9.58232 10.8928 9.58232V9.73232ZM10.4664 9.83993C10.601 9.76803 10.7429 9.73232 10.8928 9.73232V9.58232C10.7179 9.58232 10.5518 9.62428 10.3957 9.70761L10.4664 9.83993ZM10.8928 9.43232C10.6875 9.43232 10.4923 9.48318 10.3109 9.58295L10.3832 9.71438C10.5429 9.62657 10.7132 9.58232 10.8928 9.58232V9.43232ZM11.4493 9.59481C11.2891 9.48451 11.1003 9.43232 10.8928 9.43232V9.58232C11.0745 9.58232 11.2325 9.62769 11.3643 9.71837L11.4493 9.59481ZM11.501 9.63037L11.4493 9.59481L11.3643 9.71837L11.4159 9.75393L11.501 9.63037ZM11.5621 9.67243L11.501 9.63037L11.4159 9.75393L11.477 9.79599L11.5621 9.67243ZM11.5404 9.83761L11.5818 9.77606L11.4573 9.69237L11.4159 9.75393L11.5404 9.83761ZM11.507 9.88723L11.5404 9.83761L11.4159 9.75393L11.3826 9.80354L11.507 9.88723ZM10.8928 10.2551C11.1496 10.2551 11.3551 10.1133 11.507 9.88723L11.3826 9.80354C11.2496 10.0014 11.0856 10.1051 10.8928 10.1051V10.2551ZM10.2476 9.90542C10.4278 10.1204 10.6428 10.2551 10.8928 10.2551V10.1051C10.7025 10.1051 10.5259 10.0039 10.3626 9.80908L10.2476 9.90542ZM10.1998 9.84835L10.2476 9.90542L10.3626 9.80908L10.3148 9.75201L10.1998 9.84835ZM10.1412 9.77843L10.1998 9.84835L10.3148 9.75201L10.2562 9.68209L10.1412 9.77843ZM10.2425 9.62058L10.1626 9.66454L10.2349 9.79597L10.3148 9.75201L10.2425 9.62058ZM10.3109 9.58295L10.2425 9.62058L10.3148 9.75201L10.3832 9.71438L10.3109 9.58295Z" fill="#984111"/><path id="Combined Shape_2" d="M9.83021 8.45181L9.85964 8.52079H9.85964L9.83021 8.45181ZM9.72601 8.51885L9.67275 8.46604L9.67275 8.46604L9.72601 8.51885ZM9.72601 8.74901L9.77927 8.6962L9.77927 8.6962L9.72601 8.74901ZM9.83021 8.81605L9.85964 8.74706L9.85964 8.74706L9.83021 8.81605ZM10.4194 8.81605L10.39 8.74706L10.4194 8.81605ZM10.5236 8.74901L10.4703 8.6962L10.4703 8.69621L10.5236 8.74901ZM10.5236 8.51885L10.4703 8.57165L10.4703 8.57165L10.5236 8.51885ZM10.4194 8.45181L10.4488 8.38282V8.38282L10.4194 8.45181ZM9.82465 8.63525L9.82403 8.56025H9.82403L9.82465 8.63525ZM9.83254 8.6434L9.8858 8.5906L9.8858 8.5906L9.83254 8.6434ZM9.88907 8.67808L9.91851 8.6091L9.91851 8.6091L9.88907 8.67808ZM10.3605 8.67808L10.3311 8.6091L10.3311 8.6091L10.3605 8.67808ZM10.4171 8.6434L10.4703 8.69621V8.69621L10.4171 8.6434ZM10.425 8.63525L10.4257 8.56025L10.4251 8.56025L10.425 8.63525ZM10.425 8.6326L10.424 8.55761L10.424 8.55761L10.425 8.6326ZM10.4171 8.62445L10.4703 8.57165V8.57165L10.4171 8.62445ZM10.3605 8.58977L10.39 8.52079L10.3605 8.58977ZM9.88907 8.58977L9.85964 8.52079L9.85964 8.52079L9.88907 8.58977ZM9.83254 8.62445L9.77927 8.57165L9.77927 8.57165L9.83254 8.62445ZM9.82465 8.6326L9.82404 8.7076L9.82437 8.7076L9.82465 8.6326ZM11.3303 8.45181L11.3008 8.38282V8.38282L11.3303 8.45181ZM11.2261 8.51885L11.1728 8.46604L11.1728 8.46604L11.2261 8.51885ZM11.2261 8.74901L11.1728 8.80181L11.1728 8.80181L11.2261 8.74901ZM11.3303 8.81605L11.3008 8.88503V8.88503L11.3303 8.81605ZM11.9194 8.81605L11.89 8.74706L11.89 8.74706L11.9194 8.81605ZM12.0236 8.74901L11.9704 8.6962L11.9704 8.69621L12.0236 8.74901ZM12.0236 8.51885L11.9704 8.57165L11.9704 8.57165L12.0236 8.51885ZM11.9194 8.45181L11.89 8.52079V8.52079L11.9194 8.45181ZM11.3326 8.6434L11.2793 8.6962L11.2793 8.69621L11.3326 8.6434ZM11.3891 8.67808L11.4186 8.6091L11.4186 8.6091L11.3891 8.67808ZM11.8606 8.67808L11.8311 8.6091L11.8311 8.6091L11.8606 8.67808ZM11.9171 8.6434L11.9704 8.69621L11.9704 8.69621L11.9171 8.6434ZM11.925 8.63525L11.9257 8.56025L11.9252 8.56025L11.925 8.63525ZM11.925 8.6326L11.924 8.55761L11.924 8.55761L11.925 8.6326ZM11.9171 8.62445L11.9704 8.57165L11.9704 8.57165L11.9171 8.62445ZM11.8606 8.58977L11.8311 8.65876V8.65876L11.8606 8.58977ZM11.3891 8.58977L11.4186 8.65876V8.65876L11.3891 8.58977ZM11.3326 8.62445L11.2793 8.57165L11.2793 8.57165L11.3326 8.62445ZM11.3247 8.6326L11.3241 8.7076L11.3244 8.7076L11.3247 8.6326ZM9.85964 8.52079C9.9275 8.49184 10.0212 8.47393 10.1248 8.47393V8.32393C10.006 8.32393 9.89134 8.34418 9.80077 8.38282L9.85964 8.52079ZM9.77927 8.57165C9.79825 8.5525 9.82571 8.53527 9.85964 8.52079L9.80077 8.38282C9.75577 8.40202 9.70973 8.42874 9.67275 8.46604L9.77927 8.57165ZM9.7498 8.63393C9.7498 8.61195 9.76019 8.5909 9.77927 8.57165L9.67275 8.46604C9.63525 8.50387 9.5998 8.56075 9.5998 8.63393H9.7498ZM9.77927 8.6962C9.76019 8.67695 9.7498 8.6559 9.7498 8.63393H9.5998C9.5998 8.7071 9.63525 8.76398 9.67275 8.80181L9.77927 8.6962ZM9.85964 8.74706C9.82571 8.73259 9.79825 8.71535 9.77927 8.6962L9.67275 8.80181C9.70973 8.83912 9.75577 8.86583 9.80077 8.88503L9.85964 8.74706ZM10.1248 8.79393C10.0212 8.79393 9.9275 8.77602 9.85964 8.74706L9.80077 8.88503C9.89134 8.92367 10.006 8.94393 10.1248 8.94393V8.79393ZM10.39 8.74706C10.3221 8.77602 10.2284 8.79393 10.1248 8.79393V8.94393C10.2436 8.94393 10.3583 8.92367 10.4488 8.88503L10.39 8.74706ZM10.4703 8.69621C10.4514 8.71535 10.4239 8.73259 10.39 8.74706L10.4488 8.88503C10.4938 8.86583 10.5399 8.83912 10.5769 8.80181L10.4703 8.69621ZM10.4998 8.63393C10.4998 8.6559 10.4894 8.67695 10.4703 8.6962L10.5769 8.80181C10.6144 8.76398 10.6498 8.7071 10.6498 8.63393H10.4998ZM10.4703 8.57165C10.4894 8.5909 10.4998 8.61195 10.4998 8.63393H10.6498C10.6498 8.56075 10.6144 8.50387 10.5769 8.46604L10.4703 8.57165ZM10.39 8.52079C10.4239 8.53527 10.4514 8.5525 10.4703 8.57165L10.5769 8.46604C10.5399 8.42874 10.4938 8.40202 10.4488 8.38282L10.39 8.52079ZM10.1248 8.47393C10.2284 8.47393 10.3221 8.49184 10.39 8.52079L10.4488 8.38282C10.3583 8.34418 10.2436 8.32393 10.1248 8.32393V8.47393ZM9.82527 8.71025C9.85365 8.71001 9.87125 8.69433 9.87575 8.69015C9.88213 8.68421 9.886 8.6785 9.88762 8.67599C9.89114 8.67055 9.89314 8.66588 9.89382 8.66426C9.89552 8.66021 9.89649 8.65689 9.89689 8.65543C9.89788 8.65194 9.89845 8.64894 9.89879 8.64682C9.89951 8.64229 9.8998 8.63796 9.8998 8.63393H9.7498C9.7498 8.63077 9.75003 8.6271 9.75069 8.62301C9.75099 8.62111 9.75153 8.61828 9.75248 8.6149C9.75287 8.61349 9.75382 8.61021 9.75551 8.6062C9.75619 8.60459 9.75818 8.59993 9.76169 8.5945C9.76332 8.59199 9.76718 8.58628 9.77356 8.58034C9.77805 8.57616 9.79565 8.56049 9.82403 8.56025L9.82527 8.71025ZM9.75758 8.60134C9.75614 8.60434 9.75464 8.60788 9.75335 8.6119C9.75275 8.61373 9.75189 8.61664 9.75115 8.62026C9.75087 8.62165 9.75011 8.6255 9.7498 8.63049C9.74969 8.63216 9.74924 8.63898 9.75066 8.64754C9.75126 8.65115 9.75322 8.66202 9.7604 8.67394C9.76855 8.68746 9.78953 8.71054 9.82527 8.71025L9.82403 8.56025C9.85977 8.55995 9.88075 8.58303 9.8889 8.59655C9.89608 8.60847 9.89803 8.61934 9.89863 8.62295C9.90005 8.6315 9.8996 8.63831 9.8995 8.63996C9.89918 8.64493 9.89843 8.64874 9.89816 8.65007C9.89745 8.65358 9.89663 8.65632 9.8961 8.65794C9.89495 8.66151 9.89371 8.66439 9.89269 8.66651L9.75758 8.60134ZM9.8858 8.5906C9.88527 8.59006 9.88893 8.59355 9.89269 8.60134L9.75758 8.66651C9.76292 8.67757 9.77051 8.68737 9.77927 8.69621L9.8858 8.5906ZM9.91851 8.6091C9.9075 8.6044 9.89948 8.60005 9.89394 8.59656C9.89119 8.59482 9.88918 8.59337 9.88779 8.59228C9.88638 8.59118 9.88579 8.59059 9.8858 8.5906L9.77927 8.6962C9.79825 8.71535 9.82571 8.73259 9.85964 8.74706L9.91851 8.6091ZM10.1248 8.64393C10.0365 8.64393 9.96367 8.62837 9.91851 8.6091L9.85964 8.74706C9.9275 8.77602 10.0212 8.79393 10.1248 8.79393V8.64393ZM10.3311 8.6091C10.2859 8.62837 10.2131 8.64393 10.1248 8.64393V8.79393C10.2284 8.79393 10.3221 8.77602 10.39 8.74706L10.3311 8.6091ZM10.3638 8.5906C10.3638 8.59059 10.3632 8.59118 10.3618 8.59228C10.3604 8.59337 10.3584 8.59482 10.3557 8.59656C10.3501 8.60005 10.3421 8.6044 10.3311 8.6091L10.39 8.74706C10.4239 8.73259 10.4514 8.71535 10.4703 8.69621L10.3638 8.5906ZM10.3569 8.60134C10.3607 8.59355 10.3643 8.59006 10.3638 8.5906L10.4703 8.69621C10.4791 8.68737 10.4867 8.67757 10.492 8.66651L10.3569 8.60134ZM10.4959 8.61079C10.4947 8.60727 10.4934 8.60411 10.492 8.60134L10.3569 8.66651C10.356 8.66454 10.3549 8.662 10.3538 8.65892L10.4959 8.61079ZM10.4243 8.71024C10.4636 8.71061 10.4844 8.68321 10.4911 8.67057C10.4974 8.65873 10.4989 8.6482 10.4993 8.64496C10.5004 8.63691 10.4998 8.63056 10.4997 8.62898C10.4993 8.62426 10.4985 8.62061 10.4982 8.61921C10.4975 8.61563 10.4966 8.61272 10.4959 8.61079L10.3538 8.65892C10.3533 8.65725 10.3524 8.65454 10.3517 8.65109C10.3514 8.64975 10.3506 8.64616 10.3502 8.64147C10.3501 8.63991 10.3495 8.63356 10.3506 8.62553C10.351 8.62229 10.3525 8.61176 10.3588 8.59992C10.3655 8.58729 10.3863 8.55988 10.4257 8.56025L10.4243 8.71024ZM10.4251 8.56025L9.82497 8.55893L9.82464 8.70893L10.4248 8.71025L10.4251 8.56025ZM10.3498 8.63393C10.3498 8.63764 10.3501 8.64154 10.3506 8.64558L10.4991 8.62413C10.4996 8.62773 10.4998 8.63102 10.4998 8.63393H10.3498ZM10.424 8.55761C10.3957 8.55799 10.3782 8.57362 10.3738 8.57778C10.3674 8.5837 10.3636 8.58939 10.362 8.5919C10.3585 8.59732 10.3565 8.60198 10.3558 8.60361C10.3541 8.60765 10.3531 8.61096 10.3527 8.61242C10.3517 8.61592 10.3512 8.61891 10.3508 8.62103C10.3501 8.62556 10.3498 8.62989 10.3498 8.63393H10.4998C10.4998 8.63708 10.4996 8.64075 10.4989 8.64484C10.4986 8.64674 10.4981 8.64957 10.4971 8.65295C10.4967 8.65435 10.4958 8.65763 10.4941 8.66164C10.4934 8.66325 10.4914 8.6679 10.4879 8.67332C10.4863 8.67583 10.4825 8.68151 10.4761 8.68743C10.4717 8.69159 10.4542 8.70722 10.426 8.7076L10.424 8.55761ZM10.492 8.66651C10.4935 8.66351 10.495 8.65997 10.4963 8.65595C10.4969 8.65412 10.4977 8.6512 10.4985 8.64759C10.4987 8.6462 10.4995 8.64234 10.4998 8.63734C10.4999 8.63568 10.5004 8.62884 10.4989 8.62025C10.4983 8.61664 10.4964 8.60571 10.4891 8.59376C10.4809 8.58013 10.4597 8.55715 10.424 8.55761L10.4259 8.7076C10.3902 8.70805 10.3691 8.68508 10.3608 8.67146C10.3536 8.6595 10.3516 8.64858 10.351 8.64496C10.3496 8.63639 10.35 8.62956 10.3501 8.62791C10.3504 8.62293 10.3512 8.61912 10.3514 8.61779C10.3522 8.61428 10.353 8.61153 10.3535 8.60991C10.3547 8.60634 10.3559 8.60346 10.3569 8.60134L10.492 8.66651ZM10.3638 8.67725C10.3643 8.67779 10.3607 8.6743 10.3569 8.66651L10.492 8.60134C10.4867 8.59028 10.4791 8.58048 10.4703 8.57165L10.3638 8.67725ZM10.3311 8.65876C10.3421 8.66345 10.3501 8.6678 10.3557 8.67129C10.3584 8.67303 10.3604 8.67448 10.3618 8.67557C10.3632 8.67667 10.3638 8.67726 10.3638 8.67725L10.4703 8.57165C10.4514 8.5525 10.4239 8.53527 10.39 8.52079L10.3311 8.65876ZM10.1248 8.62393C10.2131 8.62393 10.2859 8.63949 10.3311 8.65876L10.39 8.52079C10.3221 8.49184 10.2284 8.47393 10.1248 8.47393V8.62393ZM9.91851 8.65876C9.96367 8.63949 10.0365 8.62393 10.1248 8.62393V8.47393C10.0212 8.47393 9.9275 8.49184 9.85964 8.52079L9.91851 8.65876ZM9.8858 8.67725C9.88579 8.67726 9.88638 8.67667 9.88779 8.67557C9.88918 8.67448 9.89119 8.67303 9.89394 8.67129C9.89948 8.6678 9.9075 8.66345 9.91851 8.65876L9.85964 8.52079C9.82571 8.53527 9.79825 8.5525 9.77927 8.57165L9.8858 8.67725ZM9.89269 8.66651C9.88893 8.6743 9.88527 8.67779 9.8858 8.67725L9.77927 8.57165C9.77051 8.58048 9.76292 8.59028 9.75758 8.60134L9.89269 8.66651ZM9.75371 8.65706C9.7549 8.66057 9.75625 8.66373 9.75758 8.66651L9.89269 8.60134C9.89364 8.60331 9.89474 8.60586 9.89578 8.60893L9.75371 8.65706ZM9.82527 8.55761C9.7858 8.55728 9.76508 8.58487 9.75841 8.59744C9.75213 8.60926 9.75068 8.61977 9.75027 8.623C9.74923 8.63102 9.74978 8.63735 9.74991 8.63892C9.75031 8.64363 9.75107 8.64726 9.75138 8.64866C9.75216 8.65223 9.75306 8.65513 9.75371 8.65706L9.89578 8.60893C9.89635 8.6106 9.89719 8.6133 9.89794 8.61674C9.89823 8.61807 9.89899 8.62166 9.89938 8.62633C9.89951 8.62789 9.90006 8.63421 9.89903 8.64222C9.89861 8.64545 9.89717 8.65595 9.89089 8.66777C9.88422 8.68034 9.8635 8.70793 9.82404 8.7076L9.82527 8.55761ZM9.82437 8.7076L10.4246 8.70986L10.4251 8.55986L9.82493 8.5576L9.82437 8.7076ZM9.8998 8.63393C9.8998 8.63022 9.89956 8.62631 9.89897 8.62226L9.75052 8.64373C9.75 8.64012 9.7498 8.63683 9.7498 8.63393H9.8998ZM9.89966 8.6292L9.8996 8.62827L9.74989 8.63772L9.74995 8.63865L9.89966 8.6292ZM11.3597 8.52079C11.4275 8.49184 11.5213 8.47393 11.6249 8.47393V8.32393C11.506 8.32393 11.3914 8.34418 11.3008 8.38282L11.3597 8.52079ZM11.2793 8.57165C11.2983 8.5525 11.3258 8.53527 11.3597 8.52079L11.3008 8.38282C11.2558 8.40202 11.2098 8.42874 11.1728 8.46604L11.2793 8.57165ZM11.2499 8.63393C11.2499 8.61195 11.2602 8.5909 11.2793 8.57165L11.1728 8.46604C11.1353 8.50387 11.0999 8.56075 11.0999 8.63393H11.2499ZM11.2793 8.69621C11.2602 8.67695 11.2499 8.6559 11.2499 8.63393H11.0999C11.0999 8.7071 11.1353 8.76398 11.1728 8.80181L11.2793 8.69621ZM11.3597 8.74706C11.3258 8.73259 11.2983 8.71535 11.2793 8.6962L11.1728 8.80181C11.2098 8.83912 11.2558 8.86583 11.3008 8.88503L11.3597 8.74706ZM11.6249 8.79393C11.5213 8.79393 11.4275 8.77602 11.3597 8.74706L11.3008 8.88503C11.3914 8.92367 11.506 8.94393 11.6249 8.94393V8.79393ZM11.89 8.74706C11.8222 8.77602 11.7284 8.79393 11.6249 8.79393V8.94393C11.7437 8.94393 11.8583 8.92367 11.9489 8.88503L11.89 8.74706ZM11.9704 8.69621C11.9514 8.71535 11.9239 8.73259 11.89 8.74706L11.9489 8.88503C11.9939 8.86583 12.0399 8.83912 12.0769 8.80181L11.9704 8.69621ZM11.9999 8.63393C11.9999 8.6559 11.9895 8.67695 11.9704 8.6962L12.0769 8.80181C12.1144 8.76398 12.1499 8.7071 12.1499 8.63393H11.9999ZM11.9704 8.57165C11.9895 8.5909 11.9999 8.61195 11.9999 8.63393H12.1499C12.1499 8.56075 12.1144 8.50387 12.0769 8.46604L11.9704 8.57165ZM11.89 8.52079C11.9239 8.53527 11.9514 8.5525 11.9704 8.57165L12.0769 8.46604C12.0399 8.42874 11.9939 8.40202 11.9489 8.38282L11.89 8.52079ZM11.6249 8.47393C11.7284 8.47393 11.8222 8.49184 11.89 8.52079L11.9489 8.38282C11.8583 8.34418 11.7437 8.32393 11.6249 8.32393V8.47393ZM11.3253 8.71025C11.3537 8.71001 11.3713 8.6943 11.3758 8.69013C11.3822 8.68419 11.3861 8.67848 11.3877 8.67597C11.3912 8.67054 11.3932 8.66587 11.3939 8.66425C11.3956 8.66021 11.3965 8.65689 11.3969 8.65543C11.3979 8.65194 11.3985 8.64894 11.3988 8.64682C11.3996 8.6423 11.3999 8.63796 11.3999 8.63393H11.2499C11.2499 8.63077 11.2501 8.6271 11.2507 8.62301C11.251 8.62111 11.2516 8.61828 11.2525 8.6149C11.2529 8.6135 11.2539 8.61022 11.2556 8.60621C11.2562 8.6046 11.2582 8.59994 11.2617 8.59451C11.2633 8.59201 11.2672 8.5863 11.2736 8.58037C11.2781 8.5762 11.2957 8.56049 11.3241 8.56025L11.3253 8.71025ZM11.2576 8.60134C11.2562 8.60434 11.2547 8.60788 11.2534 8.61189C11.2528 8.61373 11.2519 8.61664 11.2512 8.62026C11.2509 8.62165 11.2502 8.62551 11.2498 8.6305C11.2497 8.63217 11.2493 8.639 11.2507 8.64757C11.2513 8.65118 11.2533 8.66206 11.2605 8.67399C11.2686 8.68752 11.2896 8.71054 11.3253 8.71025L11.3241 8.56025C11.3598 8.55995 11.3808 8.58297 11.3889 8.5965C11.3961 8.60843 11.3981 8.6193 11.3987 8.62292C11.4001 8.63148 11.3996 8.6383 11.3995 8.63995C11.3992 8.64492 11.3985 8.64874 11.3982 8.65007C11.3975 8.65358 11.3967 8.65632 11.3962 8.65794C11.395 8.66151 11.3938 8.66439 11.3927 8.66651L11.2576 8.60134ZM11.3858 8.5906C11.3853 8.59006 11.389 8.59355 11.3927 8.60134L11.2576 8.66651C11.263 8.67757 11.2706 8.68737 11.2793 8.6962L11.3858 8.5906ZM11.4186 8.6091C11.4075 8.6044 11.3995 8.60005 11.394 8.59656C11.3912 8.59482 11.3892 8.59337 11.3878 8.59228C11.3864 8.59118 11.3858 8.59059 11.3858 8.5906L11.2793 8.69621C11.2983 8.71535 11.3258 8.73259 11.3597 8.74706L11.4186 8.6091ZM11.6249 8.64393C11.5366 8.64393 11.4637 8.62837 11.4186 8.6091L11.3597 8.74706C11.4275 8.77602 11.5213 8.79393 11.6249 8.79393V8.64393ZM11.8311 8.6091C11.786 8.62837 11.7131 8.64393 11.6249 8.64393V8.79393C11.7284 8.79393 11.8222 8.77602 11.89 8.74706L11.8311 8.6091ZM11.8639 8.5906C11.8639 8.59059 11.8633 8.59118 11.8619 8.59228C11.8605 8.59337 11.8585 8.59482 11.8557 8.59656C11.8502 8.60005 11.8422 8.6044 11.8311 8.6091L11.89 8.74706C11.9239 8.73259 11.9514 8.71535 11.9704 8.69621L11.8639 8.5906ZM11.857 8.60134C11.8607 8.59355 11.8644 8.59006 11.8639 8.5906L11.9704 8.69621C11.9791 8.68737 11.9867 8.67757 11.9921 8.66651L11.857 8.60134ZM11.9959 8.61072C11.9947 8.60706 11.9933 8.6039 11.9921 8.60136L11.857 8.66649C11.8561 8.66475 11.855 8.66221 11.8539 8.65898L11.9959 8.61072ZM11.9243 8.71024C11.9638 8.71061 11.9845 8.68297 11.9911 8.67062C11.9974 8.65888 11.9989 8.64844 11.9993 8.64521C12.0004 8.6372 11.9999 8.63087 11.9998 8.62927C11.9994 8.62452 11.9986 8.62085 11.9983 8.61939C11.9975 8.61573 11.9966 8.61274 11.9959 8.61071L11.8539 8.65899C11.8533 8.65723 11.8524 8.65444 11.8517 8.6509C11.8514 8.64952 11.8506 8.64589 11.8502 8.64118C11.8501 8.63959 11.8496 8.63327 11.8507 8.62528C11.8511 8.62205 11.8526 8.61161 11.8589 8.59988C11.8655 8.58752 11.8862 8.55988 11.9257 8.56025L11.9243 8.71024ZM11.9252 8.56025L11.325 8.55893L11.3247 8.70893L11.9248 8.71025L11.9252 8.56025ZM11.8499 8.63393C11.8499 8.63763 11.8501 8.64149 11.8507 8.64547L11.9992 8.62423C11.9997 8.62777 11.9999 8.63102 11.9999 8.63393H11.8499ZM11.924 8.55761C11.8957 8.55799 11.8782 8.57368 11.8738 8.57782C11.8674 8.58374 11.8636 8.58942 11.862 8.59192C11.8585 8.59734 11.8565 8.60199 11.8558 8.60361C11.8541 8.60764 11.8532 8.61095 11.8528 8.61241C11.8518 8.61591 11.8512 8.6189 11.8509 8.62102C11.8501 8.62555 11.8499 8.62989 11.8499 8.63393H11.9999C11.9999 8.63708 11.9996 8.64076 11.999 8.64485C11.9987 8.64675 11.9981 8.64958 11.9972 8.65296C11.9968 8.65436 11.9958 8.65763 11.9942 8.66164C11.9935 8.66325 11.9915 8.66789 11.988 8.67329C11.9864 8.6758 11.9826 8.68147 11.9762 8.68739C11.9718 8.69153 11.9543 8.70722 11.926 8.7076L11.924 8.55761ZM11.9921 8.66651C11.9935 8.66351 11.995 8.65997 11.9963 8.65595C11.9969 8.65411 11.9978 8.6512 11.9985 8.64758C11.9988 8.64619 11.9995 8.64234 11.9999 8.63734C12 8.63567 12.0004 8.62883 11.999 8.62024C11.9984 8.61663 11.9964 8.60571 11.9892 8.59375C11.9809 8.58013 11.9598 8.55715 11.924 8.55761L11.926 8.7076C11.8902 8.70805 11.8691 8.68508 11.8609 8.67146C11.8536 8.65951 11.8516 8.64859 11.851 8.64497C11.8496 8.6364 11.8501 8.62957 11.8502 8.62791C11.8505 8.62294 11.8512 8.61912 11.8515 8.61779C11.8522 8.61428 11.853 8.61154 11.8535 8.60992C11.8547 8.60634 11.8559 8.60346 11.857 8.60134L11.9921 8.66651ZM11.8639 8.67725C11.8644 8.67779 11.8607 8.6743 11.857 8.66651L11.9921 8.60134C11.9867 8.59028 11.9791 8.58048 11.9704 8.57165L11.8639 8.67725ZM11.8311 8.65876C11.8422 8.66345 11.8502 8.6678 11.8557 8.67129C11.8585 8.67303 11.8605 8.67448 11.8619 8.67557C11.8633 8.67667 11.8639 8.67726 11.8639 8.67725L11.9704 8.57165C11.9514 8.5525 11.9239 8.53527 11.89 8.52079L11.8311 8.65876ZM11.6249 8.62393C11.7131 8.62393 11.786 8.63949 11.8311 8.65876L11.89 8.52079C11.8222 8.49184 11.7284 8.47393 11.6249 8.47393V8.62393ZM11.4186 8.65876C11.4637 8.63949 11.5366 8.62393 11.6249 8.62393V8.47393C11.5213 8.47393 11.4275 8.49184 11.3597 8.52079L11.4186 8.65876ZM11.3858 8.67725C11.3858 8.67726 11.3864 8.67667 11.3878 8.67557C11.3892 8.67448 11.3912 8.67303 11.394 8.67129C11.3995 8.6678 11.4075 8.66345 11.4186 8.65876L11.3597 8.52079C11.3258 8.53527 11.2983 8.5525 11.2793 8.57165L11.3858 8.67725ZM11.3927 8.66651C11.389 8.6743 11.3853 8.67779 11.3858 8.67725L11.2793 8.57165C11.2706 8.58048 11.263 8.59028 11.2576 8.60134L11.3927 8.66651ZM11.2538 8.65712C11.255 8.66071 11.2564 8.66386 11.2576 8.6665L11.3927 8.60135C11.3936 8.60319 11.3947 8.60572 11.3958 8.60888L11.2538 8.65712ZM11.3253 8.55761C11.2856 8.55728 11.265 8.58515 11.2584 8.59746C11.2522 8.6092 11.2508 8.61963 11.2503 8.62284C11.2493 8.63081 11.2498 8.63712 11.2499 8.63871C11.2503 8.64343 11.2511 8.64708 11.2514 8.64852C11.2522 8.65216 11.2531 8.65512 11.2538 8.65712L11.3958 8.60888C11.3964 8.61062 11.3973 8.61338 11.398 8.61688C11.3983 8.61826 11.3991 8.62186 11.3994 8.62655C11.3996 8.62812 11.4001 8.63442 11.3991 8.64238C11.3986 8.64559 11.3972 8.65601 11.391 8.66775C11.3844 8.68006 11.3638 8.70793 11.3241 8.7076L11.3253 8.55761ZM11.3244 8.7076L11.9246 8.70985L11.9252 8.55985L11.325 8.5576L11.3244 8.7076ZM11.3999 8.63393C11.3999 8.63024 11.3996 8.62636 11.399 8.62234L11.2506 8.64366C11.25 8.64008 11.2499 8.63681 11.2499 8.63393H11.3999ZM11.3997 8.62923L11.3996 8.62831L11.2499 8.63769L11.25 8.63862L11.3997 8.62923Z" fill="#984111"/></g></g></g></g></g></g></g></g><defs><filter id="filter0_dd_91_24234" x="0" y="0" width="42" height="30" filterUnits="userSpaceOnUse" color-interpolation-filters="sRGB"><feFlood flood-opacity="0" result="BackgroundImageFix"/><feColorMatrix in="SourceAlpha" values="0 0 0 0 0 0 0 0 0 0 0 0 0 0 0 0 0 0 127 0" result="hardAlpha"/><feOffset dy="1"/><feGaussianBlur stdDeviation="1"/><feColorMatrix values="0 0 0 0 0.0627451 0 0 0 0 0.0941176 0 0 0 0 0.156863 0 0 0 0.06 0"/><feBlend in2="BackgroundImageFix" result="effect1_dropShadow_91_24234"/><feColorMatrix in="SourceAlpha" values="0 0 0 0 0 0 0 0 0 0 0 0 0 0 0 0 0 0 127 0" result="hardAlpha"/><feOffset dy="1"/><feGaussianBlur stdDeviation="1.5"/><feColorMatrix values="0 0 0 0 0.0627451 0 0 0 0 0.0941176 0 0 0 0 0.156863 0 0 0 0.1 0"/><feBlend in2="effect1_dropShadow_91_24234" result="effect2_dropShadow_91_24234"/><feBlend in="SourceGraphic" in2="effect2_dropShadow_91_24234" result="shape"/></filter><clipPath id="clip0_91_24234"><rect x="3" y="2" width="36" height="24" rx="2" fill="white"/></clipPath></defs></svg>