<svg xmlns="http://www.w3.org/2000/svg" width="42" height="30" fill="none"><g filter="url(#a)"><g clip-path="url(#b)"><mask id="c" width="36" height="24" x="3" y="2" maskUnits="userSpaceOnUse" style="mask-type:alpha"><path fill="#fff" d="M3 2h36v24H3z"/></mask><g mask="url(#c)"><path fill="#F7FCFF" fill-rule="evenodd" d="M3 2h36v24H3V2Z" clip-rule="evenodd"/><path fill="#C51918" fill-rule="evenodd" d="M3 2v8h36V2H3Z" clip-rule="evenodd"/><path fill="#5EAA22" fill-rule="evenodd" d="M3 18v8h36v-8H3Z" clip-rule="evenodd"/><path fill="#272727" fill-rule="evenodd" d="m3 0 18.753 14L3 28V0Z" clip-rule="evenodd"/><mask id="d" width="40" height="38" x="1" y="-5.355" fill="#000" maskUnits="userSpaceOnUse"><path fill="#fff" d="M1-5.355h40v38H1z"/><path fill-rule="evenodd" d="M3-1.355 22.584 12H39v4H22.316L3 28.81v-4.47L18.75 14 3 3.534v-4.889Z" clip-rule="evenodd"/></mask><path fill="#FFD018" fill-rule="evenodd" d="M3-1.355 22.584 12H39v4H22.316L3 28.81v-4.47L18.75 14 3 3.534v-4.889Z" clip-rule="evenodd"/><path fill="#272727" d="m22.584 12-1.127 1.652.51.348h.617v-2ZM3-1.355l1.127-1.652L1-5.14v3.785h2ZM39 12h2v-2h-2v2Zm0 4v2h2v-2h-2Zm-16.684 0v-2h-.603l-.503.333L22.316 16ZM3 28.81H1v3.727l3.105-2.06L3 28.811Zm0-4.47-1.098-1.673L1 23.26v1.08h2ZM18.75 14l1.098 1.672 2.53-1.662-2.521-1.676L18.75 14ZM3 3.534H1v1.073l.893.593L3 3.534Zm20.711 6.814L4.127-3.007 1.873.297l19.584 13.355 2.254-3.304ZM39 10H22.584v4H39v-4Zm2 6v-4h-4v4h4Zm-18.684 2H39v-4H22.316v4ZM4.106 30.478 23.42 17.667l-2.21-3.334L1.894 27.145l2.21 3.333ZM1 24.34v4.471h4v-4.47H1Zm16.652-12.012-15.75 10.34 2.196 3.344 15.75-10.34-2.196-3.344ZM1.893 5.2l15.75 10.466 2.214-3.332L4.107 1.87 1.893 5.2ZM1-1.355v4.89h4v-4.89H1Z" mask="url(#d)"/><path fill="#FFD018" d="m8.483 18.768.002-1.58c1.585-.31 2.634-.715 3.145-1.201 1.258-1.378.422-4.607-2.163-4.586-1.28 0-2.604.542-2.604 1.819 0 1.585.367 2.263 1.622 2.263 1.248 0 1.705.06 2.527-.936l.892.245c-.88 1.067-2.068 1.91-3.421 1.91-2.23 0-3.442-1.495-3.442-3.222 0-2.133 1.948-3.627 4.297-3.627 1.752 0 4.524 1.908 4.524 3.627 0 1.718 0 2.507-1.52 3.708-.612.484-2.129 1.347-3.86 1.58Z"/><path fill="#FFD018" fill-rule="evenodd" d="M8.615 11.88c-.085-.02-.173.025-.196.101l-.061.207-.01-.01a.174.174 0 0 0-.225-.026c-.07.048-.083.138-.029.2l.11.127-.185.152a.132.132 0 0 0-.01.202.176.176 0 0 0 .228.008l.164-.134.28.328-.308.147c-.078.037-.107.124-.065.193.042.07.14.096.217.059l.352-.168c.085.1.165.195.24.286l-.422.201c-.078.038-.108.124-.066.194.042.07.14.095.218.058l.463-.22c.123.149.23.282.323.399l-.295.14c-.079.038-.108.125-.066.194.042.07.14.096.218.058l.327-.156c.136.18.206.289.206.317 0 .079.072.143.16.143.09 0 .162-.064.162-.143 0-.072-.085-.224-.262-.468a.149.149 0 0 0 .007-.012l.238-.466c.037-.072 0-.156-.08-.189s-.176 0-.213.071l-.162.318c-.102-.13-.22-.277-.356-.442l.168-.33c.037-.071.001-.156-.08-.188-.08-.033-.176-.001-.213.07l-.094.185a58.066 58.066 0 0 0-.162-.192l.228-.446c.036-.072 0-.156-.08-.189-.081-.032-.176 0-.213.071l-.156.305-.31-.361.125-.42c.022-.076-.029-.154-.115-.174Z" clip-rule="evenodd"/><path fill="#FFD018" fill-rule="evenodd" d="M9.696 11.88c.086-.02.174.025.196.101l.062.207.01-.01a.174.174 0 0 1 .225-.026c.07.048.083.138.028.2l-.11.127.186.152a.132.132 0 0 1 .009.202.175.175 0 0 1-.227.008l-.164-.134-.281.328.308.147c.078.037.108.124.066.193-.042.07-.14.096-.218.059l-.352-.168-.24.286.423.201c.078.038.107.124.065.194-.042.07-.14.095-.217.058l-.463-.22c-.123.149-.231.282-.324.399l.296.14c.078.038.107.125.065.194-.042.07-.139.096-.217.058l-.327-.156c-.136.18-.207.289-.207.317 0 .079-.072.143-.16.143-.089 0-.161-.064-.161-.143 0-.072.085-.224.261-.468a.143.143 0 0 1-.007-.012l-.237-.466c-.037-.072-.001-.156.08-.189.08-.033.176 0 .212.071l.163.318c.101-.13.22-.277.356-.442l-.169-.33c-.036-.071 0-.156.08-.188.081-.033.176-.001.213.07l.094.185.163-.192-.228-.446c-.037-.072-.001-.156.08-.189.08-.032.176 0 .213.071l.155.305.31-.361-.124-.42c-.023-.076.028-.154.114-.174Z" clip-rule="evenodd"/></g></g></g><defs><clipPath id="b"><rect width="36" height="24" x="3" y="2" fill="#fff" rx="2"/></clipPath><filter id="a" width="42" height="30" x="0" y="0" color-interpolation-filters="sRGB" filterUnits="userSpaceOnUse"><feFlood flood-opacity="0" result="BackgroundImageFix"/><feColorMatrix in="SourceAlpha" result="hardAlpha" values="0 0 0 0 0 0 0 0 0 0 0 0 0 0 0 0 0 0 127 0"/><feOffset dy="1"/><feGaussianBlur stdDeviation="1"/><feColorMatrix values="0 0 0 0 0.0627451 0 0 0 0 0.0941176 0 0 0 0 0.156863 0 0 0 0.06 0"/><feBlend in2="BackgroundImageFix" result="effect1_dropShadow_91_23911"/><feColorMatrix in="SourceAlpha" result="hardAlpha" values="0 0 0 0 0 0 0 0 0 0 0 0 0 0 0 0 0 0 127 0"/><feOffset dy="1"/><feGaussianBlur stdDeviation="1.5"/><feColorMatrix values="0 0 0 0 0.0627451 0 0 0 0 0.0941176 0 0 0 0 0.156863 0 0 0 0.1 0"/><feBlend in2="effect1_dropShadow_91_23911" result="effect2_dropShadow_91_23911"/><feBlend in="SourceGraphic" in2="effect2_dropShadow_91_23911" result="shape"/></filter></defs></svg>