<svg width="42" height="30" viewBox="0 0 42 30" fill="none" xmlns="http://www.w3.org/2000/svg"><g id="Country=VC - Saint Vincent and the Grenadines, Size=sm (36x24)" filter="url(#filter0_dd_91_24117)"><g clip-path="url(#clip0_91_24117)"><g id="flag"><mask id="mask0_91_24117" style="mask-type:alpha" maskUnits="userSpaceOnUse" x="3" y="2" width="36" height="24"><rect id="mask" x="3" y="2" width="36" height="24" fill="white"/></mask><g mask="url(#mask0_91_24117)"><g id="contents"><path id="middle" fill-rule="evenodd" clip-rule="evenodd" d="M12 2H30V26H12V2Z" fill="#FFDC17"/><path id="right" fill-rule="evenodd" clip-rule="evenodd" d="M30 2H39V26H30V2Z" fill="#5FBF2B"/><path id="left" fill-rule="evenodd" clip-rule="evenodd" d="M3 2H12V26H3V2Z" fill="#2E42A5"/><g id="mark"><path id="Combined Shape" fill-rule="evenodd" clip-rule="evenodd" d="M25.1922 7.6001L21.7721 12.063L25.1922 16.368L28.6123 12.063L25.1922 7.6001ZM16.8119 7.67894L13.125 12.063L16.5451 16.2893L19.9653 12.063L16.8119 7.67894ZM17.4485 16.9889L21.1354 12.6049L24.2888 16.9889L21.1354 21.5012L17.4485 16.9889Z" fill="#5FBF2B"/></g></g></g></g></g></g><defs><filter id="filter0_dd_91_24117" x="0" y="0" width="42" height="30" filterUnits="userSpaceOnUse" color-interpolation-filters="sRGB"><feFlood flood-opacity="0" result="BackgroundImageFix"/><feColorMatrix in="SourceAlpha" values="0 0 0 0 0 0 0 0 0 0 0 0 0 0 0 0 0 0 127 0" result="hardAlpha"/><feOffset dy="1"/><feGaussianBlur stdDeviation="1"/><feColorMatrix values="0 0 0 0 0.0627451 0 0 0 0 0.0941176 0 0 0 0 0.156863 0 0 0 0.06 0"/><feBlend in2="BackgroundImageFix" result="effect1_dropShadow_91_24117"/><feColorMatrix in="SourceAlpha" values="0 0 0 0 0 0 0 0 0 0 0 0 0 0 0 0 0 0 127 0" result="hardAlpha"/><feOffset dy="1"/><feGaussianBlur stdDeviation="1.5"/><feColorMatrix values="0 0 0 0 0.0627451 0 0 0 0 0.0941176 0 0 0 0 0.156863 0 0 0 0.1 0"/><feBlend in2="effect1_dropShadow_91_24117" result="effect2_dropShadow_91_24117"/><feBlend in="SourceGraphic" in2="effect2_dropShadow_91_24117" result="shape"/></filter><clipPath id="clip0_91_24117"><rect x="3" y="2" width="36" height="24" rx="2" fill="white"/></clipPath></defs></svg>