<svg xmlns="http://www.w3.org/2000/svg" width="42" height="30" fill="none"><g filter="url(#a)"><g clip-path="url(#b)"><mask id="c" width="36" height="24" x="3" y="2" maskUnits="userSpaceOnUse" style="mask-type:alpha"><path fill="#fff" d="M3 2h36v24H3z"/></mask><g mask="url(#c)"><path fill="#F7FCFF" fill-rule="evenodd" d="M3 2h36v24H3V2Z" clip-rule="evenodd"/><path fill="#5EAA22" fill-rule="evenodd" d="M3 2v24h36V2H3Z" clip-rule="evenodd"/><mask id="d" width="36" height="24" x="3" y="2" maskUnits="userSpaceOnUse" style="mask-type:alpha"><path fill="#fff" fill-rule="evenodd" d="M3 2v24h36V2H3Z" clip-rule="evenodd"/></mask><g mask="url(#d)"><path fill="#FF8126" d="M33.375 12H39v14h-5.625z"/><path fill="#272727" d="M27.75 12h5.625v14H27.75z"/><path fill="#C51918" d="M22.125 12h5.625v14h-5.625z"/><path fill="#FF8126" fill-rule="evenodd" d="M30.615 6.838c.542.149 0 .377 0 .377s-.107-.093-.107-.17c0-.078-.414 0-.628.282-.203.267.17.267.563.266h.065c.222 0 .57-.017.892-.032.28-.013.543-.026.689-.026.313 0 .461 0 .875-.208.268-.136 1.157-.302 1.818-.425a9.86 9.86 0 0 0 .736-.151c.26-.087-.26.371-.26.371s2.011-.608 2.414-.816c.25-.129.137-.019-.048.16-.114.11-.255.248-.355.372-.17.21.177.01.561-.214.207-.12.424-.246.578-.318.444-.208-.112.356-.357.532-.244.176.574 0 .857-.176.209-.13.018.097-.142.287-.057.068-.111.132-.14.173l-.006.007c-.11.15-.144.198.118.198.267 0-.687.556-.687.556s.284-.034 0 .336c-.167.218-.982.438-1.644.617-.46.125-.847.23-.889.299-.075.125-.817.27-1.163.337-.123.024-.196.039-.17.039.097 0 .26.092.083.092-.176 0-.486.075-.486.075s.163 0 0 .174c-.078.084-.215.07-.31.061-.105-.01-.161-.015-.04.113.104.112.145.155.136.17-.01.016-.093-.01-.222-.01-.113 0-.233-.036-.358-.074a1.53 1.53 0 0 0-.438-.086c-.277 0 .001.148.175.24l.021.01c.155.083.09.083-.19.082h-.092a1.89 1.89 0 0 1-.318-.022c-.053-.008-.057-.009-.057.022 0 .03-.132-.012-.29-.06-.163-.052-.355-.112-.46-.112-.206 0 .436.318.436.318s-.334-.08-.515-.146c-.103-.037.028.138.146.296.09.12.172.23.139.23-.025 0-.08-.02-.143-.042-.129-.046-.29-.104-.29-.026 0 .115.148.201.329.201.18 0 .21.18.104.18a.547.547 0 0 1-.127-.023c-.082-.021-.158-.041-.158.024 0 .042.032.073.07.11.05.05.11.108.11.217 0 .187-.269.214-.18.09.088-.124-.307-.424-.307-.278v.188c0 .132-.034.14-.087.154a.229.229 0 0 0-.117.06c-.065.062-.075.098-.08.118-.006.02-.007.024-.054.024-.037 0-.068-.042-.11-.097a.63.63 0 0 0-.326-.26c-.166-.05-.174-.013-.19.052a.229.229 0 0 1-.11.163c-.125.08-.09.112-.049.151.024.023.05.047.05.083 0 .1-.22-.1-.22-.234 0-.135-.252-.314-.252-.214s0 .214-.128.214c-.063 0-.065.033-.068.078-.003.048-.008.109-.088.156-.08.047-.078.022-.075-.033.004-.052.01-.131-.052-.201-.078-.088-.013-.223.02-.292.02-.044.029-.06-.02-.022-.125.1-.285.1-.393.1H28.6c-.055 0-.102.052-.136.089-.033.036-.053.058-.053 0 0-.114.16-.416.46-.416a.76.76 0 0 0 .45-.131c.03-.018.058-.036.087-.05.13-.061 0-.142-.128-.201-.059-.027-.038-.114.003-.192.071-.034.125-.077.125-.12 0-.053-.076.027-.125.12a.774.774 0 0 1-.286.076c-.069 0-.026-.093.028-.21.045-.099.099-.214.099-.304 0-.085.019-.16.032-.211.017-.067.024-.095-.032-.06-.07.045-.443-.004-.697-.037a2.945 2.945 0 0 0-.228-.026c-.048 0-.01-.067.028-.133.048-.084.096-.167-.028-.116-.195.081-.591.078-.841.076h-.1c-.146 0-.045-.098.009-.15.03-.03.046-.044-.008-.018-.15.071-.298.092-.466.092-.076 0-.098-.033-.121-.07-.03-.045-.061-.095-.198-.094-.248.002-.304-.001-.44-.082-.072-.042-.032-.067-.01-.081.022-.013.028-.017-.081-.017h-.674c-.336 0 0-.196.122-.196.12 0 .261-.177 0-.098-.167.051-.347.037-.558.02a4.802 4.802 0 0 0-.392-.02c-.399 0-.475-.138-.24-.138.236 0 .25-.1-.116-.1-.23 0-.419-.048-.56-.082a.966.966 0 0 0-.198-.038c-.13 0-.269-.136 0-.136s.614-.113.32-.113c-.167 0-.444-.067-.685-.124a2.641 2.641 0 0 0-.426-.084c-.059 0 .033-.015.154-.034.242-.04.605-.098.142-.098-.493 0-1.01-.302-1.368-.51a2.419 2.419 0 0 0-.344-.181c-.277-.095 0-.283.08-.205.08.078.639.198.397.093a1.29 1.29 0 0 1-.477-.377c-.08-.096-.018-.163.08-.087.098.076.552.293.552.293s-.243-.206-.435-.53c-.193-.324.192-.245.522 0s.639.31.794.324c.155.014-.155-.177-.454-.324-.299-.148-.23-.676 0-.465.12.11.69.319 1.247.523.513.189 1.016.373 1.147.472.225.172.044-.084-.153-.361l-.119-.17c-.13-.188.394.026.99.27.43.175.897.366 1.183.432.198.046.434.12.67.193.581.182 1.162.362 1.162.127 0-.33.532-.847 1.102-1.021.363-.111.533-.011.748.115.123.073.262.154.46.209Zm-.614 3.876c.13 0 .094-1.004.094-1.004s.38.616.38.882c0 .12-.011.157-.008.192.004.042.03.082.122.265.094.185.032.165-.138.11a1.867 1.867 0 0 0-.592-.11c-.56 0 .014-.335.142-.335Z" clip-rule="evenodd"/><path fill="#272727" d="m30.615 7.215-.082.095.059.051.072-.03-.049-.116Zm0-.377-.033.12.033-.12Zm-.735.489-.1-.076.1.076Zm.563.266v.125-.125Zm.957-.032-.006-.125.006.125Zm1.564-.234-.057-.112.057.112Zm1.818-.425-.023-.123.023.123Zm.736-.151.04.118-.04-.118Zm-.26.371-.083-.094.118.214-.036-.12Zm2.414-.816.058.111-.058-.111Zm-.048.16.087.09-.087-.09Zm-.355.372-.097-.079.097.079Zm.561-.214-.062-.108.062.108Zm.578-.318-.053-.113.053.113Zm-.357.532-.073-.102.073.102Zm.857-.176.066.106-.066-.106Zm-.142.287-.096-.08.096.08Zm-.14.173.1.074-.1-.074Zm-.006.007.101.073-.1-.073Zm-.569.754-.063-.108.078.232-.015-.124Zm0 .336.1.076-.1-.076Zm-1.644.617.033.121-.033-.12Zm-.889.299.107.064-.107-.064Zm-1.163.337.024.123-.024-.123Zm-.573.206-.03-.121.03.246v-.125Zm0 .174-.091-.085.091.085Zm-.31.061-.013.125.012-.125Zm-.04.113.09-.085-.09.085Zm.136.17.108.063-.108-.064Zm-.58-.084.035-.12-.036.12Zm-.263.153-.059.111.059-.11Zm.021.012-.058.11.058-.11Zm-.19.081v-.125.125Zm-.41-.022-.019.124.02-.124Zm-.347-.039.038-.12-.038.12Zm-.024.207-.03.122.086-.234-.056.112Zm-.515-.146-.043.118.043-.118Zm.146.296.1-.074-.1.074Zm-.004.188.042-.117-.042.117Zm.016.332.032-.12-.032.12Zm-.089.133-.087.09.087-.09Zm-.07.308-.101-.073.102.073Zm-.393.064.03.121-.03-.12Zm-.117.06-.086-.09.086.09Zm-.08.118.12.033-.12-.033Zm-.163-.073-.1.074.1-.074Zm-.327-.26-.037.12.037-.12Zm-.19.052-.121-.029.121.028Zm-.11.163-.066-.106.067.106Zm-.049.151.086-.09-.086.09Zm-.618-.073.125.008-.125-.008Zm-.088.156.063.108-.063-.108Zm-.075-.033.125.01-.125-.01Zm-.052-.201-.094.083.094-.083Zm.02-.292.113.054-.113-.054Zm-.02-.022-.078-.098.078.098Zm-.393.1V11.4v.125Zm-.14.089-.092-.085.092.085Zm.857-.547-.065-.107.064.107Zm.087-.05.054.113-.053-.113Zm-.128-.201-.053.113.053-.113Zm-.255-.326.113.052-.113-.052Zm.13-.515.122.03-.121-.03Zm-.031-.06-.067-.105.067.105Zm-.697-.037.016-.124-.016.124Zm-.2-.16.109.063-.109-.062Zm-.028-.115.048.116-.048-.116Zm-.841.076v-.125.125Zm-.091-.15.087.09-.087-.09Zm-.008-.018-.054-.113.054.113Zm-.587.022-.105.067.105-.067Zm-.198-.094v-.125.125Zm-.44-.082.063-.108-.064.108Zm-.01-.081-.065-.107.066.107Zm-.633-.31-.036-.12.036.12Zm-.558.02.01-.126-.01.125Zm-1.307-.341-.03.12.03-.12Zm-.564-.411-.03.121.03-.121Zm-.272-.118.02.123-.02-.123Zm-1.226-.608.063-.108-.063.108Zm-.344-.181-.04.118.04-.118Zm.08-.205-.087.09.087-.09Zm.397.093.05-.114-.05.114Zm-.477-.377.096-.08-.096.08Zm.08-.087-.076.099.076-.1Zm.552.293-.055.113.136-.208-.081.095Zm-.435-.53.107-.064-.107.064Zm1.316.324.012-.125-.012.125Zm-.454-.324-.055.112.055-.112Zm0-.465.084-.092-.084.092Zm1.247.523-.043.117.043-.117Zm1.147.472.075-.099-.075.1Zm-.153-.361.102-.072-.102.072Zm-.119-.17-.103.072.103-.071Zm.99.27.047-.116-.047.116Zm1.183.432-.028.122.028-.122Zm.67.193.037-.119-.037.12Zm2.265-.894.036.12-.037-.12Zm.747.115-.064.108.064-.108Zm-.061 3.081.106-.065-.248-.402.017.472.125-.005Zm.372 1.074-.124.012.124-.012Zm.122.265.112-.057-.112.057Zm-.138.11.039-.119-.039.12Zm.164-3.944.049.116.002-.002a.312.312 0 0 0 .025-.01l.062-.033a.635.635 0 0 0 .159-.12.271.271 0 0 0 .062-.112.205.205 0 0 0-.023-.159.31.31 0 0 0-.12-.108.84.84 0 0 0-.183-.07l-.066.241a.6.6 0 0 1 .128.048c.026.015.03.022.026.018a.045.045 0 0 1-.004-.032c.002-.006.003-.003-.007.007a.397.397 0 0 1-.095.07.801.801 0 0 1-.06.03l-.003.001.048.115Zm-.232-.17a.27.27 0 0 0 .03.116.451.451 0 0 0 .098.127l.015.015a.7.7 0 0 1 .006.006h.001l.082-.094.082-.094-.002-.002a.374.374 0 0 1-.059-.072c-.005-.01-.003-.01-.003-.003h-.25Zm-.404.357a.729.729 0 0 1 .336-.233.453.453 0 0 1 .127-.028c.015 0 .012.002.001-.002a.102.102 0 0 1-.06-.095h.25a.149.149 0 0 0-.096-.137.254.254 0 0 0-.099-.016.693.693 0 0 0-.204.041.977.977 0 0 0-.454.32l.2.15Zm.464.066c-.099 0-.193 0-.276-.004a.923.923 0 0 1-.195-.024c-.051-.014-.035-.024-.026.001.008.026-.013.022.033-.039l-.199-.15c-.055.072-.105.169-.071.27.034.1.13.14.195.159.073.02.162.029.251.033.091.004.191.004.289.004l-.001-.25Zm.065 0h-.065v.25h.065v-.25Zm.886-.032c-.324.015-.667.032-.886.032v.25c.226 0 .576-.017.898-.032l-.012-.25Zm.695-.026c-.15 0-.416.013-.695.026l.012.25c.282-.013.54-.026.683-.026v-.25Zm.818-.195a1.774 1.774 0 0 1-.443.172 1.806 1.806 0 0 1-.375.023v.25c.154 0 .282 0 .425-.028a2.05 2.05 0 0 0 .506-.194l-.113-.223Zm1.852-.436c-.33.062-.72.134-1.06.209a8.78 8.78 0 0 0-.465.112 1.936 1.936 0 0 0-.327.115l.113.223a1.72 1.72 0 0 1 .282-.097c.128-.036.282-.072.45-.11.336-.073.722-.145 1.052-.206l-.045-.246Zm.72-.147a2.848 2.848 0 0 1-.255.058c-.127.026-.287.056-.465.089l.045.246c.178-.034.34-.064.47-.09.125-.025.229-.047.283-.066l-.079-.237Zm-.222.49.083.094.001-.001.005-.004.017-.015a5.415 5.415 0 0 0 .213-.206c.026-.028.051-.056.072-.082a.382.382 0 0 0 .055-.09.162.162 0 0 0 .011-.085.138.138 0 0 0-.086-.107.172.172 0 0 0-.087-.01.352.352 0 0 0-.063.016l.08.237c.012-.004.017-.004.017-.004h-.01a.095.095 0 0 1-.03-.007.112.112 0 0 1-.068-.085c-.004-.028.004-.047.004-.047.001-.002-.002.006-.019.027l-.057.065a3.2 3.2 0 0 1-.215.206l-.004.003-.001.001.082.094Zm2.358-.927a5.25 5.25 0 0 1-.532.208c-.243.086-.531.181-.808.27a69.157 69.157 0 0 1-.967.303l-.064.02-.017.005-.005.001h-.001l.036.12.036.12h.002l.004-.002.017-.005.065-.02a69.627 69.627 0 0 0 .97-.304c.278-.09.569-.185.815-.272.244-.086.454-.165.564-.222l-.115-.222Zm.096.36c.046-.044.09-.085.123-.12a.617.617 0 0 0 .084-.1.167.167 0 0 0 .019-.045.133.133 0 0 0-.02-.109.133.133 0 0 0-.099-.056.168.168 0 0 0-.05.005.755.755 0 0 0-.153.065l.115.222a1.26 1.26 0 0 1 .07-.034l.024-.01-.007.001H37.8a.117.117 0 0 1-.086-.05.117.117 0 0 1-.018-.095.074.074 0 0 1 .008-.022l-.011.014a6.402 6.402 0 0 1-.155.156l.174.179Zm-.344.361c.094-.117.229-.248.344-.36l-.174-.18c-.112.11-.26.252-.365.383l.195.157Zm.4-.4a7.098 7.098 0 0 1-.477.264.432.432 0 0 1-.054.022c-.005.001-.004 0 0 0 .003 0 .025-.002.051.011a.114.114 0 0 1 .062.09c.003.027-.005.044-.005.044-.001.003.003-.006.023-.03l-.195-.158a.403.403 0 0 0-.058.09.16.16 0 0 0-.014.079.138.138 0 0 0 .075.108.153.153 0 0 0 .082.015.248.248 0 0 0 .048-.01.664.664 0 0 0 .089-.034c.12-.055.31-.165.5-.275l-.126-.216Zm.588-.323c-.16.075-.383.205-.587.323l.125.216c.208-.12.42-.243.569-.313l-.107-.226Zm-.23.746c.13-.094.338-.286.459-.431a.842.842 0 0 0 .078-.108.313.313 0 0 0 .028-.06.171.171 0 0 0 .006-.093.144.144 0 0 0-.093-.102.188.188 0 0 0-.092-.007.611.611 0 0 0-.156.055l.107.226a.413.413 0 0 1 .087-.034c.005 0-.008.003-.03-.005a.106.106 0 0 1-.066-.074.093.093 0 0 1 0-.044l-.006.011a.601.601 0 0 1-.055.075c-.108.129-.3.307-.414.388l.146.203Zm.717-.383c-.123.076-.38.16-.586.203a.846.846 0 0 1-.199.026c-.006 0 .005 0 .02.009a.11.11 0 0 1 .043.142c-.004.008-.008.012-.009.013l.013-.01-.146-.203a.328.328 0 0 0-.054.048.16.16 0 0 0-.042.099.14.14 0 0 0 .071.127.195.195 0 0 0 .075.023.998.998 0 0 0 .28-.029c.213-.045.506-.136.666-.236l-.132-.212Zm.02.474c.077-.092.171-.204.218-.277a.342.342 0 0 0 .035-.064.16.16 0 0 0 .01-.059.133.133 0 0 0-.155-.13.198.198 0 0 0-.048.013.542.542 0 0 0-.08.043l.132.212a.327.327 0 0 1 .042-.023l-.013.003a.117.117 0 0 1-.128-.113c0-.02.005-.032.005-.033l-.01.015a3.368 3.368 0 0 1-.2.252l.192.16Zm-.136.166c.027-.037.077-.096.136-.166l-.192-.161a3.37 3.37 0 0 0-.146.18l.202.147Zm-.005.006.005-.006-.202-.147-.005.006.202.147Zm.017 0a1.18 1.18 0 0 1-.118-.007l-.005-.002.007.004a.08.08 0 0 1 .019.016.096.096 0 0 1 .017.031.082.082 0 0 1 .003.047v.002l.003-.008a.435.435 0 0 1 .022-.033l.035-.05-.202-.147c-.025.035-.053.073-.072.106a.276.276 0 0 0-.027.063.17.17 0 0 0 .002.1c.028.084.109.107.146.115a.86.86 0 0 0 .17.013v-.25Zm-.687.68.063.109h.001l.002-.002.008-.005a4.056 4.056 0 0 0 .136-.082c.086-.052.199-.123.304-.194.102-.069.206-.144.267-.206a.38.38 0 0 0 .045-.054.179.179 0 0 0 .033-.092.143.143 0 0 0-.077-.133.201.201 0 0 0-.095-.021v.25c.01 0-.002.002-.022-.009a.106.106 0 0 1-.055-.098c0-.027.012-.042.01-.037a1.798 1.798 0 0 1-.246.193 7.834 7.834 0 0 1-.426.268l-.008.004-.002.001.062.109Zm.1.413a.774.774 0 0 0 .14-.252c.022-.076.014-.157-.042-.217a.232.232 0 0 0-.143-.067.32.32 0 0 0-.068 0h-.001l.014.124.015.124h-.001.012c.012.002.002.004-.01-.01-.021-.022-.01-.041-.016-.02a.553.553 0 0 1-.099.166l.199.152Zm-1.711.662c.33-.09.703-.19 1.015-.296.156-.054.3-.11.417-.167a.795.795 0 0 0 .279-.2l-.199-.151a.581.581 0 0 1-.19.127c-.104.05-.236.102-.388.154-.303.103-.668.202-1 .292l.066.241Zm-.815.242c-.01.017-.02.021-.009.014a.35.35 0 0 1 .044-.022c.043-.019.105-.04.183-.066.156-.049.365-.105.597-.168l-.066-.241c-.229.062-.444.12-.606.171-.081.026-.153.05-.208.075a.58.58 0 0 0-.078.04.216.216 0 0 0-.071.069l.214.128Zm-1.246.396c.172-.034.448-.087.69-.149.12-.03.236-.063.328-.098a.895.895 0 0 0 .126-.057.276.276 0 0 0 .102-.092l-.214-.128c.008-.013.012-.01-.012.003a.657.657 0 0 1-.09.04c-.079.03-.184.06-.301.09-.235.06-.503.112-.677.146l.048.245Zm-.195-.21.013.002a.12.12 0 0 1 .024.005c.003.001.046.015.07.062a.125.125 0 0 1-.069.173l.018-.004a8.66 8.66 0 0 1 .139-.028l-.048-.245-.144.028a.47.47 0 0 0-.043.011l-.023.01c-.004.002-.02.01-.034.026a.125.125 0 0 0-.02.142c.025.047.068.06.072.061a.127.127 0 0 0 .045.008v-.25Zm.084.343a.382.382 0 0 0 .076-.006.168.168 0 0 0 .09-.048.136.136 0 0 0 .023-.154.174.174 0 0 0-.053-.063.387.387 0 0 0-.22-.071v.25a.186.186 0 0 1 .061.017l.009.004-.006-.006a.09.09 0 0 1-.016-.023.113.113 0 0 1 .02-.124.1.1 0 0 1 .04-.026l.002-.001h-.007l-.019.001v.25Zm-.486-.05.03.122.003-.001.01-.002a3.415 3.415 0 0 1 .157-.033c.1-.019.21-.036.286-.036v-.25c-.1 0-.232.021-.332.04a4.249 4.249 0 0 0-.168.035l-.011.003h-.004l.03.122Zm.092.26a.405.405 0 0 0 .096-.15.173.173 0 0 0-.035-.173.197.197 0 0 0-.104-.056.254.254 0 0 0-.046-.006h-.002v.25h-.005l-.005-.002a.068.068 0 0 1-.02-.016.084.084 0 0 1-.022-.041.061.061 0 0 1 0-.03c.001-.002-.004.014-.04.053l.182.17Zm-.415.1c.046.004.117.011.188.004a.353.353 0 0 0 .227-.104l-.183-.171c-.01.011-.03.022-.07.026a.7.7 0 0 1-.138-.004l-.024.249Zm.064-.097a.369.369 0 0 1-.043-.05c-.001-.003.005.006.008.024a.106.106 0 0 1-.027.086.1.1 0 0 1-.052.031c-.006.002-.01.002-.004.002a.64.64 0 0 1 .054.004l.024-.25c-.023-.001-.054-.005-.08-.004a.23.23 0 0 0-.05.005.141.141 0 0 0-.113.159.184.184 0 0 0 .024.068.57.57 0 0 0 .076.096l.183-.171Zm.153.318a.134.134 0 0 0 .016-.094.156.156 0 0 0-.017-.046.333.333 0 0 0-.037-.052 3.13 3.13 0 0 0-.115-.126l-.183.17c.054.058.087.093.106.117.01.012.012.014.01.01a.091.091 0 0 1-.01-.026.116.116 0 0 1 .015-.08l.215.127Zm-.33.052c.056 0 .103.006.142.01a.56.56 0 0 0 .059.005c.01 0 .027 0 .046-.005a.135.135 0 0 0 .083-.062l-.215-.128a.115.115 0 0 1 .083-.055h.004-.008a1.64 1.64 0 0 1-.023-.003c-.037-.004-.097-.012-.17-.012v.25Zm-.394-.079c.12.036.26.08.394.08v-.25c-.09 0-.192-.03-.323-.07l-.072.24Zm-.402-.08c.13 0 .26.037.402.08l.071-.24c-.136-.04-.3-.09-.473-.09v.25Zm.233.003c-.043-.023-.091-.048-.135-.074a.741.741 0 0 1-.099-.065c-.01-.009-.008-.009-.002 0a.102.102 0 0 1-.007.104c-.023.035-.053.038-.041.035a.275.275 0 0 1 .051-.004v-.25a.494.494 0 0 0-.107.01.177.177 0 0 0-.11.07.149.149 0 0 0-.004.159c.017.029.04.051.058.067.07.06.199.126.28.169l.116-.221Zm.022.011a1.955 1.955 0 0 0-.022-.011l-.117.221.022.011.117-.22Zm-.25.317h.174a.479.479 0 0 0 .123-.015.161.161 0 0 0 .044-.022.136.136 0 0 0 .052-.073.14.14 0 0 0-.038-.136.449.449 0 0 0-.105-.07l-.117.22.04.023c.01.006.01.007.004.002-.002-.003-.01-.011-.018-.027a.116.116 0 0 1 .038-.143.09.09 0 0 1 .024-.013h-.007a6.263 6.263 0 0 1-.212.003l-.002.251Zm-.09 0h.09l.001-.25h-.092v.25Zm-.338-.023c.055.008.155.023.337.023v-.25c-.166 0-.253-.014-.299-.02l-.038.247Zm.087-.102c0-.003 0-.002 0 0s-.001.01-.005.02a.112.112 0 0 1-.1.079h-.005a.1.1 0 0 1 .023.003l.038-.248a.729.729 0 0 0-.039-.005c-.008 0-.037-.003-.068.007a.136.136 0 0 0-.087.09c-.008.024-.008.048-.008.054h.25Zm-.452.058c.077.025.154.049.212.063a.46.46 0 0 0 .088.014c.012 0 .04 0 .068-.011a.132.132 0 0 0 .084-.123h-.25a.117.117 0 0 1 .071-.109.1.1 0 0 1 .026-.007h.008l-.009-.002a3.594 3.594 0 0 1-.224-.064l-.074.24Zm-.423-.105a.82.82 0 0 1 .176.032c.079.02.165.048.247.073l.075-.238a5.148 5.148 0 0 0-.258-.076 1.026 1.026 0 0 0-.24-.04v.25Zm.436.193.056-.111-.002-.001-.005-.003-.02-.01a6.84 6.84 0 0 1-.26-.141.919.919 0 0 1-.137-.092c-.005-.005-.002-.003.002.004a.105.105 0 0 1 .011.08.11.11 0 0 1-.068.078c-.013.004-.02.003-.013.003v-.25a.215.215 0 0 0-.07.01.14.14 0 0 0-.092.099.146.146 0 0 0 .02.111.23.23 0 0 0 .037.045c.043.041.116.088.182.127a4.826 4.826 0 0 0 .296.16l.006.002.001.001.056-.112Zm-.558-.028a4.636 4.636 0 0 0 .473.136l.04.01.012.003h.003l.03-.12.03-.122H31.8l-.01-.003a5.093 5.093 0 0 1-.173-.045 4.4 4.4 0 0 1-.316-.095l-.085.236Zm.289.104a2.787 2.787 0 0 1-.161-.235c-.003-.007.003.004.003.025a.114.114 0 0 1-.085.105c-.033.008-.055-.003-.046 0l.085-.235a.173.173 0 0 0-.101-.008.136.136 0 0 0-.103.131.196.196 0 0 0 .016.079.46.46 0 0 0 .028.054c.039.066.106.156.163.233l.2-.15Zm.039.43a.13.13 0 0 0 .13-.103.158.158 0 0 0-.008-.084.407.407 0 0 0-.041-.077 3.227 3.227 0 0 0-.12-.166l-.2.15c.045.06.085.114.11.153.014.02.017.028.016.026l-.003-.014a.12.12 0 0 1 .116-.135v.25Zm-.185-.05.09.031c.022.007.06.019.095.019v-.25h.004a2.292 2.292 0 0 1-.104-.035l-.085.235Zm-.123-.144a.09.09 0 0 1-.02.055.088.088 0 0 1-.044.03c-.012.003-.012 0 .013.004.044.009.106.03.174.055l.084-.235c-.06-.022-.144-.053-.212-.065a.284.284 0 0 0-.127 0 .163.163 0 0 0-.083.054.16.16 0 0 0-.035.102h.25Zm.204.076a.333.333 0 0 1-.168-.04.105.105 0 0 1-.032-.027c-.004-.006-.004-.008-.004-.01h-.25c0 .118.075.203.157.252a.58.58 0 0 0 .297.075v-.25Zm.104.43c.065 0 .129-.03.163-.092a.2.2 0 0 0 .01-.166c-.038-.102-.143-.172-.277-.172v.25c.047 0 .047.02.043.009-.002-.003-.007-.02.006-.042a.073.073 0 0 1 .029-.029.056.056 0 0 1 .026-.007v.25Zm-.158-.027c.038.01.101.028.158.028v-.25a.466.466 0 0 1-.095-.02l-.063.242Zm-.002-.097c0 .004 0 .013-.006.025a.092.092 0 0 1-.058.054.058.058 0 0 1-.008.001h-.003l.006.001.017.003.054.013.063-.242c-.034-.009-.093-.025-.144-.024a.18.18 0 0 0-.113.038.166.166 0 0 0-.058.13h.25Zm.031.02-.023-.023a.13.13 0 0 1-.011-.013c-.002-.003-.001-.002 0 0a.042.042 0 0 1 .003.016h-.25c0 .056.022.1.044.13.02.028.046.053.063.069l.174-.179Zm.15.307c0-.165-.099-.257-.15-.307l-.174.179c.051.05.074.076.074.128h.25Zm-.408.017a.21.21 0 0 0-.04.1.154.154 0 0 0 .047.129.17.17 0 0 0 .1.044c.03.003.058 0 .084-.007a.29.29 0 0 0 .217-.283h-.25a.04.04 0 0 1-.03.04c-.003.001-.001 0 .005.001a.08.08 0 0 1 .045.022.097.097 0 0 1 .03.079c-.001.019-.009.026-.004.02l-.204-.145Zm-.08-.205c0 .01-.006.052-.05.076-.031.016-.054.007-.046.01.01.002.04.017.078.048a.36.36 0 0 1 .08.09c.02.033-.005.013.018-.019l.204.145c.067-.094.026-.197-.004-.25a.601.601 0 0 0-.313-.256.185.185 0 0 0-.133.01.16.16 0 0 0-.084.146h.25Zm0 .188v-.188h-.25v.188h.25Zm-.182.275c.019-.004.088-.017.134-.079a.323.323 0 0 0 .048-.196h-.25a.292.292 0 0 1-.003.053c-.002.008-.002.003.004-.006a.062.062 0 0 1 .022-.018h-.001a.33.33 0 0 1-.014.004l.06.242Zm-.06.03a.093.093 0 0 1 .027-.02.197.197 0 0 1 .033-.01l-.06-.242c-.038.01-.105.025-.173.09l.173.181Zm-.047.06a.074.074 0 0 1 .002-.007l.003-.006a.239.239 0 0 1 .042-.048l-.173-.18a.478.478 0 0 0-.084.101.282.282 0 0 0-.03.073l.24.067Zm-.174.116c.013 0 .027 0 .04-.002a.164.164 0 0 0 .06-.017.14.14 0 0 0 .061-.062.178.178 0 0 0 .013-.035l-.24-.067-.001.002.005-.013a.107.107 0 0 1 .068-.055l.008-.002h-.014v.25Zm-.21-.148c.02.026.044.059.07.084a.2.2 0 0 0 .14.064v-.25a.07.07 0 0 1 .033.008c.005.002.006.004.002 0a.218.218 0 0 1-.017-.02l-.027-.035-.2.15Zm-.263-.214c.133.042.2.13.264.214l.2-.149c-.064-.086-.174-.236-.39-.303l-.074.238Zm-.03-.04a.663.663 0 0 1 .003-.018c.002-.003.002-.003 0 0a.065.065 0 0 1-.011.017.08.08 0 0 1-.026.018c-.016.007-.024.003-.01.005a.426.426 0 0 1 .074.018l.074-.239a.672.672 0 0 0-.12-.027.227.227 0 0 0-.12.014.175.175 0 0 0-.087.088c-.012.026-.018.055-.021.067l.243.057Zm-.166.24a.353.353 0 0 0 .125-.128.413.413 0 0 0 .04-.112l-.243-.057a.181.181 0 0 1-.016.048.104.104 0 0 1-.039.038l.133.212Zm-.03-.044-.011-.011-.001-.001a.08.08 0 0 1 .013.052c-.002.027-.016.04-.012.036a.226.226 0 0 1 .041-.031l-.133-.212a.455.455 0 0 0-.091.072.171.171 0 0 0-.02.23.249.249 0 0 0 .043.046l.171-.181Zm.089.173c0-.099-.074-.16-.089-.174l-.171.183a.4.4 0 0 1 .017.017l-.004-.008a.052.052 0 0 1-.003-.018h.25Zm-.47-.234c0 .065.024.125.05.17a.59.59 0 0 0 .097.124c.031.03.076.067.124.083.023.008.078.02.131-.013a.15.15 0 0 0 .068-.13h-.25a.1.1 0 0 1 .048-.081.097.097 0 0 1 .081-.013c.008.002-.003-.001-.027-.024a.344.344 0 0 1-.07-.103.074.074 0 0 1-.002-.01v-.003h-.25Zm-.002-.214a.1.1 0 0 1-.047.08c-.033.022-.063.015-.064.015-.004-.001.009.002.035.023.023.017.045.04.06.063.017.024.017.036.017.033h.25a.315.315 0 0 0-.061-.175.548.548 0 0 0-.112-.118.355.355 0 0 0-.138-.071.162.162 0 0 0-.12.02.152.152 0 0 0-.07.13h.25Zm-.253.339a.23.23 0 0 0 .23-.15c.025-.067.024-.147.024-.19h-.25c0 .027 0 .047-.002.066a.134.134 0 0 1-.006.034c-.001.003 0-.003.008-.008.007-.005.01-.002-.004-.002v.25Zm.057-.039a.25.25 0 0 1 .001-.018c0-.001 0 .008-.009.02a.084.084 0 0 1-.037.033c-.012.005-.018.004-.012.004v-.25c-.053 0-.12.015-.162.08a.193.193 0 0 0-.026.07c-.003.017-.004.035-.005.044l.25.017Zm-.15.256a.29.29 0 0 0 .125-.137c.02-.049.023-.097.025-.119l-.25-.017a.128.128 0 0 1-.005.038.02.02 0 0 1-.004.006.07.07 0 0 1-.017.013l.126.216Zm-.262-.15c0 .011-.003.032-.002.051.001.012.004.07.055.11a.148.148 0 0 0 .136.023.358.358 0 0 0 .073-.034l-.126-.216-.02.01c.002 0 .012-.003.028-.002a.111.111 0 0 1 .1.074c.004.011.004.02.004.02l.001-.018-.25-.017Zm-.022-.11c.024.028.026.058.022.11l.25.018c.003-.051.015-.18-.085-.293l-.187.166Zm.001-.428c-.015.033-.047.097-.061.168a.295.295 0 0 0 .06.26l.187-.165c-.002-.002-.009-.01-.002-.046a.487.487 0 0 1 .042-.11l-.226-.107Zm.17.13.01-.008-.01.006a.122.122 0 0 1-.164-.123c0-.01.001-.016.002-.019l.002-.007a.525.525 0 0 1-.01.02l.226.109.015-.034a.205.205 0 0 0 .009-.025c0-.004.01-.037-.002-.075a.128.128 0 0 0-.134-.088.138.138 0 0 0-.055.018.34.34 0 0 0-.044.03l.155.196Zm-.47.127c.102 0 .306.004.47-.127l-.155-.195c-.086.068-.201.072-.315.072v.25Zm-.004 0h.004v-.25H28.6v.25Zm-.044.048a.369.369 0 0 1 .044-.043c.014-.01.012-.005 0-.005v-.25a.251.251 0 0 0-.152.056c-.033.026-.06.056-.076.073l.184.169Zm-.27-.083c0 .015 0 .048.014.08a.132.132 0 0 0 .162.074c.036-.012.06-.036.066-.041l.028-.03-.184-.169a.357.357 0 0 1-.017.018l.003-.003a.1.1 0 0 1 .03-.014.118.118 0 0 1 .14.063.085.085 0 0 1 .008.024v-.002h-.25Zm.586-.542c-.197 0-.344.1-.438.208a.688.688 0 0 0-.108.17.424.424 0 0 0-.04.164h.25v-.006a.284.284 0 0 1 .018-.057.44.44 0 0 1 .069-.107.325.325 0 0 1 .249-.122v-.25Zm.384-.113c-.093.056-.186.113-.384.113v.25a.885.885 0 0 0 .513-.15l-.13-.213Zm.099-.056c-.037.018-.07.038-.1.056l.13.214a.923.923 0 0 1 .077-.044l-.107-.226Zm-.128.025a.86.86 0 0 1 .081.042.196.196 0 0 1 .04.029c.007.007-.02-.017-.009-.06.01-.04.038-.046.016-.035l.107.225c.043-.02.103-.06.12-.133a.183.183 0 0 0-.049-.166.435.435 0 0 0-.097-.075 1.127 1.127 0 0 0-.104-.054l-.105.227Zm-.055-.363a.448.448 0 0 0-.053.162.221.221 0 0 0 .016.106c.017.042.05.075.092.095l.105-.227a.066.066 0 0 1 .033.034c.005.012.003.019.004.014a.322.322 0 0 1 .025-.068l-.222-.116Zm.165.17a.51.51 0 0 0 .12-.076.213.213 0 0 0 .076-.156h-.25c0-.016.006-.027.008-.031s.003-.003-.002.002a.27.27 0 0 1-.06.037l.108.225Zm.197-.232a.147.147 0 0 0-.031-.092.134.134 0 0 0-.13-.048.164.164 0 0 0-.063.027.268.268 0 0 0-.034.03.62.62 0 0 0-.104.145l.222.116a.38.38 0 0 1 .058-.084c.003-.003.003-.003 0-.001 0 0-.012.01-.034.014a.115.115 0 0 1-.11-.043c-.025-.03-.024-.06-.024-.064h.25Zm-.537.321a.893.893 0 0 0 .34-.088l-.108-.225a.66.66 0 0 1-.232.063v.25Zm-.086-.387c-.024.053-.055.119-.068.172a.195.195 0 0 0 .008.125.15.15 0 0 0 .067.072.169.169 0 0 0 .079.018v-.25c.004 0 .02 0 .037.01a.1.1 0 0 1 .044.047.08.08 0 0 1 .008.034v.001a.35.35 0 0 1 .017-.047l.035-.078-.227-.104Zm.088-.252a.339.339 0 0 1-.025.106 1.91 1.91 0 0 1-.063.146l.227.104c.023-.048.05-.106.07-.165a.575.575 0 0 0 .04-.19h-.25Zm.036-.242a.918.918 0 0 0-.036.242h.25c0-.068.015-.129.028-.18l-.242-.062Zm.155.077.007-.004-.005.002a.113.113 0 0 1-.088-.008.116.116 0 0 1-.057-.07c-.005-.017-.004-.03-.004-.031v-.001a.657.657 0 0 1-.008.035l.242.061c.004-.015.009-.033.012-.05a.238.238 0 0 0 .004-.03c0-.01 0-.03-.006-.053a.134.134 0 0 0-.156-.094.22.22 0 0 0-.074.032l.134.211Zm-.78-.02a9.9 9.9 0 0 0 .424.05c.069.005.135.008.19.007a.589.589 0 0 0 .08-.007.23.23 0 0 0 .087-.03l-.134-.211c.013-.008.02-.007.007-.005a1.673 1.673 0 0 1-.21-.003 9.005 9.005 0 0 1-.41-.048l-.033.248Zm-.211-.024c.021 0 .096.01.212.025l.032-.248c-.102-.013-.202-.027-.244-.027v.25Zm-.08-.32a.672.672 0 0 0-.057.114.173.173 0 0 0-.003.11.14.14 0 0 0 .064.077c.028.016.056.02.076.02v-.25a.09.09 0 0 1 .048.013.11.11 0 0 1 .049.06c.007.02.006.035.005.041 0 .006-.002.01-.002.008a.197.197 0 0 1 .012-.024l.025-.045-.217-.124Zm.128.062a.153.153 0 0 1 .02-.007c.003-.001-.007.002-.023 0a.108.108 0 0 1-.09-.113c0-.01.002-.013 0-.01a1.153 1.153 0 0 1-.036.068l.218.124.037-.068a.272.272 0 0 0 .029-.091.142.142 0 0 0-.121-.158.19.19 0 0 0-.072.005.389.389 0 0 0-.058.019l.096.23Zm-.89.085c.124 0 .29.002.45-.007.155-.009.321-.029.44-.078l-.096-.231c-.076.032-.205.05-.36.06a7.18 7.18 0 0 1-.432.006l-.003.25Zm-.098 0h.098l.002-.25h-.1v.25Zm-.079-.365-.05.052a.323.323 0 0 0-.057.082c-.014.033-.036.115.031.18a.177.177 0 0 0 .081.042.31.31 0 0 0 .074.008v-.25h-.014c.001 0 .016.003.032.019a.1.1 0 0 1 .03.067.08.08 0 0 1-.005.035c-.002.003 0-.002.013-.016a.793.793 0 0 1 .039-.039l-.174-.18Zm.133.184.012-.005a.117.117 0 0 1-.045.004.123.123 0 0 1-.086-.195l.002-.003-.016.015.174.18.023-.022a.232.232 0 0 0 .014-.016c0-.002.019-.023.026-.054a.126.126 0 0 0-.11-.154.143.143 0 0 0-.057.006.36.36 0 0 0-.045.019l.108.225Zm-.52.105c.179 0 .348-.022.52-.105l-.108-.225a.908.908 0 0 1-.412.08v.25Zm-.226-.128c.01.016.032.054.072.083a.253.253 0 0 0 .154.045v-.25h-.013s.003 0 .006.003l.002.001a.106.106 0 0 1-.004-.006l-.007-.01-.21.134Zm-.092-.036c.054 0 .07.01.072.01.002.002.005.003.02.026l.21-.135c-.014-.021-.042-.068-.097-.102a.375.375 0 0 0-.206-.049l.001.25Zm-.505-.1a.615.615 0 0 0 .22.088c.076.013.164.013.285.012l-.001-.25c-.128 0-.192 0-.24-.008a.37.37 0 0 1-.137-.057l-.127.215Zm-.011-.295c-.005.003-.02.012-.034.024a.15.15 0 0 0-.03.207c.022.03.05.05.075.064l.127-.215c-.011-.006-.005-.005.004.008a.089.089 0 0 1 .015.035.104.104 0 0 1-.002.05.088.088 0 0 1-.027.042l.003-.002-.131-.213Zm-.016.215H26c.016.001.01.002 0-.001a.122.122 0 0 1-.084-.147.12.12 0 0 1 .045-.068l-.002.001.131.213a.264.264 0 0 0 .012-.008c.003-.002.017-.011.03-.026a.126.126 0 0 0-.037-.194.14.14 0 0 0-.03-.012.256.256 0 0 0-.056-.007l-.066-.001v.25Zm-.674 0h.674v-.25h-.674v.25Zm.122-.446a.59.59 0 0 0-.314.128.241.241 0 0 0-.062.077.153.153 0 0 0 .014.16.196.196 0 0 0 .115.07.553.553 0 0 0 .125.01v-.25a.32.32 0 0 1-.068-.004c-.014-.003.008-.002.028.024a.1.1 0 0 1 .02.057c0 .02-.005.034-.008.04-.006.012-.01.013-.001.006a.347.347 0 0 1 .145-.068h.006v-.25Zm.036.147a.397.397 0 0 1 .06-.014c.014-.002.012 0 0-.003a.1.1 0 0 1-.066-.063.098.098 0 0 1 .002-.078c.004-.008.007-.01.004-.007a.082.082 0 0 1-.036.018v.25c.058 0 .112-.02.15-.044a.27.27 0 0 0 .104-.103.153.153 0 0 0 .01-.123.15.15 0 0 0-.107-.092.254.254 0 0 0-.093-.003.637.637 0 0 0-.1.023l.072.239Zm-.604.025c.206.016.41.034.604-.025l-.072-.24c-.141.043-.295.033-.512.015l-.02.25Zm-.382-.02c.138 0 .262.01.382.02l.02-.25c-.12-.009-.253-.02-.402-.02v.25Zm-.24-.388a.347.347 0 0 0-.186.042.152.152 0 0 0-.071.127c0 .06.035.1.057.12.044.038.11.06.175.075.07.015.159.024.265.024v-.25a1.08 1.08 0 0 1-.212-.018c-.054-.012-.068-.024-.063-.02a.092.092 0 0 1 .028.07c0 .05-.032.075-.042.081-.013.009-.005 0 .05 0v-.25Zm-.116.15a.958.958 0 0 1 .207.02l-.001-.001a.097.097 0 0 1-.033-.037.112.112 0 0 1 .018-.127c.015-.015.027-.017.02-.014a.34.34 0 0 1-.094.01v.25a.567.567 0 0 0 .171-.023.2.2 0 0 0 .08-.047.138.138 0 0 0 .027-.163.17.17 0 0 0-.083-.075.378.378 0 0 0-.081-.026 1.195 1.195 0 0 0-.231-.018v.25Zm-.59-.086c.142.035.343.085.59.085v-.25a2.11 2.11 0 0 1-.53-.078l-.06.243Zm-.168-.034c.03 0 .078.011.168.034l.06-.243c-.076-.019-.16-.04-.228-.04v.25Zm0-.386a.401.401 0 0 0-.193.037.156.156 0 0 0-.068.213.244.244 0 0 0 .115.103c.042.02.093.033.146.033v-.25a.097.097 0 0 1-.039-.009l-.01-.006c-.001 0 .005.003.011.015.007.013.015.04.004.072a.085.085 0 0 1-.036.047c-.006.003-.005.002.009 0a.376.376 0 0 1 .061-.005v-.25Zm.32.137a.32.32 0 0 1 .06.003c.005 0 0 0-.007-.003-.004-.002-.037-.016-.055-.056a.117.117 0 0 1 .027-.134.063.063 0 0 1 .007-.005l-.021.008c-.07.024-.21.05-.33.05v.25c.147 0 .314-.03.41-.063a.36.36 0 0 0 .074-.034c.01-.006.03-.02.046-.042a.133.133 0 0 0 .014-.133.14.14 0 0 0-.073-.07.218.218 0 0 0-.05-.015.635.635 0 0 0-.102-.006v.25Zm-.714-.128c.12.029.252.06.375.085.122.024.242.043.339.043v-.25c-.07 0-.171-.015-.29-.038a9.776 9.776 0 0 1-.366-.083l-.058.243Zm-.397-.08c.023 0 .071.007.146.022.072.015.157.036.25.058l.059-.243c-.092-.022-.182-.044-.258-.06a1.08 1.08 0 0 0-.197-.027v.25Zm.134-.283-.149.025a.48.48 0 0 0-.041.01c-.002.001-.02.007-.037.02-.006.005-.037.027-.047.072a.126.126 0 0 0 .106.154.23.23 0 0 0 .034.002v-.25h.004l.015.004a.124.124 0 0 1 .085.147.117.117 0 0 1-.047.071.117.117 0 0 1-.022.013l-.008.004-.005.001a4.869 4.869 0 0 1 .152-.026l-.04-.247Zm.162.151a2.759 2.759 0 0 1 .177.006h.003-.002l-.005-.001a.12.12 0 0 1-.072-.085.121.121 0 0 1 .048-.125l.011-.006h-.004a3.599 3.599 0 0 1-.318.06l.04.247c.115-.019.278-.045.352-.067a.285.285 0 0 0 .035-.013c.005-.003.037-.016.06-.048a.129.129 0 0 0-.03-.179c-.025-.018-.052-.024-.06-.026a1.307 1.307 0 0 0-.235-.013v.25Zm-1.43-.527c.177.104.402.235.646.34.243.105.513.187.784.187v-.25c-.222 0-.457-.068-.686-.167a5.763 5.763 0 0 1-.619-.326l-.126.216Zm-.322-.17c.065.021.17.082.321.17l.126-.216c-.139-.081-.271-.159-.366-.191l-.081.236Zm.208-.413c-.066-.064-.153-.059-.203-.046a.309.309 0 0 0-.151.089.204.204 0 0 0-.046.214c.033.081.111.128.192.155l.08-.236a.17.17 0 0 1-.044-.022c-.005-.003 0 0 .005.01a.058.058 0 0 1 .002.038c-.003.008-.006.01-.004.009a.063.063 0 0 1 .026-.015c.005 0 .004 0 0 0a.059.059 0 0 1-.032-.017l.175-.18Zm.26.297c.032.014.032.017.024.01a.122.122 0 0 1 .062-.208c.008-.001.006 0-.017-.003a1.735 1.735 0 0 1-.314-.089c-.02-.01-.021-.013-.015-.007l-.175.179a.31.31 0 0 0 .084.054c.028.013.06.025.092.037a1.986 1.986 0 0 0 .292.073.335.335 0 0 0 .081.004.147.147 0 0 0 .039-.01.128.128 0 0 0 .064-.183.143.143 0 0 0-.032-.038.36.36 0 0 0-.087-.048l-.099.23Zm-.524-.412c.082.099.253.296.523.412l.1-.23a1.166 1.166 0 0 1-.43-.342l-.193.16Zm.252-.266a.273.273 0 0 0-.121-.056.169.169 0 0 0-.153.05.171.171 0 0 0-.039.153.28.28 0 0 0 .061.119l.192-.16c-.01-.014-.01-.018-.008-.01a.08.08 0 0 1-.023.067.082.082 0 0 1-.07.027c-.008 0-.005-.003.009.008l.152-.198Zm.476.392.054-.112h-.002l-.003-.003-.015-.006a14.47 14.47 0 0 1-.398-.204 1.102 1.102 0 0 1-.112-.067l-.152.198c.033.025.088.058.143.088a6.673 6.673 0 0 0 .357.183l.053.026.015.008.004.001v.001h.001l.055-.113Zm-.543-.466a2.5 2.5 0 0 0 .46.56v.001h.001l.081-.095.082-.095-.002-.001-.007-.006a1.372 1.372 0 0 1-.126-.126 2.246 2.246 0 0 1-.274-.366l-.215.128Zm.704-.165c-.172-.128-.373-.224-.52-.237-.065-.006-.19.002-.238.119a.231.231 0 0 0-.006.147.53.53 0 0 0 .06.136l.215-.128a.289.289 0 0 1-.033-.07c-.003-.014.002-.006-.005.01-.02.049-.063.03-.015.035.08.007.236.072.393.189l.15-.2Zm.732.3a1.486 1.486 0 0 1-.732-.3l-.149.201c.352.261.684.332.858.348l.023-.249Zm-.521-.087c.147.072.294.154.383.214a.675.675 0 0 1 .05.037c.014.011.013.013.008.005a.1.1 0 0 1-.015-.05.116.116 0 0 1 .048-.1.094.094 0 0 1 .046-.018c.005 0 .006 0 0 0l-.022.248a.247.247 0 0 0 .048 0 .152.152 0 0 0 .073-.027.134.134 0 0 0 .056-.115.15.15 0 0 0-.025-.075.289.289 0 0 0-.058-.061.91.91 0 0 0-.07-.051 3.913 3.913 0 0 0-.412-.231l-.11.224Zm.14-.67a.306.306 0 0 0-.135-.075.201.201 0 0 0-.157.026c-.085.055-.111.156-.116.231a.51.51 0 0 0 .268.488l.11-.224c-.09-.045-.135-.157-.129-.246.003-.05.019-.05.003-.04a.05.05 0 0 1-.036.008c-.004 0 .004 0 .023.017l.168-.184Zm1.205.499c-.28-.103-.559-.205-.784-.296a4.807 4.807 0 0 1-.284-.123.697.697 0 0 1-.138-.08l-.168.185a.878.878 0 0 0 .197.12c.082.04.185.084.3.13.23.092.513.196.79.298l.087-.234Zm1.18.49a1.07 1.07 0 0 0-.186-.103 5.456 5.456 0 0 0-.274-.116c-.208-.083-.464-.177-.72-.271l-.086.234c.257.095.51.188.714.269.102.04.19.078.26.11a.87.87 0 0 1 .14.076l.151-.199Zm-.33-.19c.1.143.188.268.226.337.01.017.01.022.01.019 0 0-.006-.016-.002-.04a.117.117 0 0 1 .076-.09.107.107 0 0 1 .066-.002l.004.001a.476.476 0 0 1-.05-.035l-.152.199a.69.69 0 0 0 .082.055.232.232 0 0 0 .045.02c.013.004.05.013.09-.002a.133.133 0 0 0 .086-.104.158.158 0 0 0-.004-.067.352.352 0 0 0-.031-.073 4.676 4.676 0 0 0-.243-.362l-.204.144Zm-.12-.17.12.17.203-.144-.118-.168-.206.142Zm1.14.082c-.296-.12-.582-.238-.777-.3a1.55 1.55 0 0 0-.135-.037.438.438 0 0 0-.118-.013c-.027.002-.123.015-.148.113a.162.162 0 0 0 .006.096c.008.022.02.042.031.059l.206-.142c-.005-.007-.004-.008-.002-.003a.09.09 0 0 1 0 .052.105.105 0 0 1-.05.066.082.082 0 0 1-.027.009h.013l.035.007c.03.006.067.017.113.031.183.059.458.17.758.294l.095-.232Zm1.164.427c-.275-.064-.73-.25-1.165-.427l-.094.232c.425.173.903.369 1.202.438l.057-.243Zm.678.195c-.235-.073-.475-.148-.678-.195l-.057.243c.192.045.423.117.66.19l.075-.238Zm1 .246c0 .002 0-.009.01-.018.006-.007.008-.003-.01 0a.65.65 0 0 1-.216-.012 7.282 7.282 0 0 1-.784-.216l-.075.239c.288.09.588.183.815.223a.87.87 0 0 0 .31.012.266.266 0 0 0 .138-.07.219.219 0 0 0 .062-.158h-.25Zm1.19-1.14a2.151 2.151 0 0 0-.813.48 1.531 1.531 0 0 0-.267.322.675.675 0 0 0-.11.338h.25c0-.05.021-.122.074-.21a1.33 1.33 0 0 1 .224-.268c.192-.18.451-.343.716-.424l-.073-.239Zm.848.126c-.105-.061-.217-.128-.353-.16a.922.922 0 0 0-.494.033l.073.24a.676.676 0 0 1 .364-.03c.093.022.173.068.283.133l.127-.216Zm.43.196a1.672 1.672 0 0 1-.43-.196l-.127.216c.125.073.275.162.49.221l.066-.24Zm-.554 2.993-.125.005v.002a.328.328 0 0 1 .001.04 10.812 10.812 0 0 1 0 .451 2.854 2.854 0 0 1-.024.33.41.41 0 0 1-.02.085c-.003.007-.002.002.005-.006a.095.095 0 0 1 .07-.028v.25a.155.155 0 0 0 .113-.052.231.231 0 0 0 .043-.069.65.65 0 0 0 .036-.142 2.94 2.94 0 0 0 .027-.36 8.303 8.303 0 0 0-.001-.507v-.003l-.125.004Zm.505.882c0-.09-.03-.196-.067-.294a3.05 3.05 0 0 0-.137-.303 5.389 5.389 0 0 0-.178-.322l-.012-.02-.003-.006a.036.036 0 0 1-.002-.002l-.106.065-.106.066v.001l.003.005.012.02a5.41 5.41 0 0 1 .17.306c.046.091.091.188.125.278a.672.672 0 0 1 .051.206h.25Zm-.009.18v-.009l.003-.033c.003-.03.006-.073.006-.138h-.25c0 .056-.003.091-.005.117a.48.48 0 0 0-.002.087l.248-.024Zm.11.22c-.048-.095-.076-.146-.093-.183-.018-.037-.017-.04-.017-.037l-.248.024c.004.045.02.082.04.122.018.039.05.099.095.187l.223-.113Zm-.288.286c.04.013.081.027.116.035a.344.344 0 0 0 .058.01c.019 0 .05 0 .084-.015a.147.147 0 0 0 .08-.093.183.183 0 0 0 .002-.088.573.573 0 0 0-.052-.135l-.224.113a.692.692 0 0 1 .031.072c.001.002-.003-.011.004-.033a.103.103 0 0 1 .056-.064.09.09 0 0 1 .024-.007h.01l-.016-.003a1.419 1.419 0 0 1-.096-.03l-.077.238Zm-.554-.104c.229 0 .418.06.554.104l.077-.238c-.137-.044-.36-.116-.63-.116v.25Zm.142-.585a.346.346 0 0 0-.106.02.897.897 0 0 0-.309.18.32.32 0 0 0-.077.104.176.176 0 0 0 .017.177.244.244 0 0 0 .144.086.82.82 0 0 0 .19.018v-.25a.585.585 0 0 1-.131-.011c-.028-.007-.016-.01-.001.01a.08.08 0 0 1 .015.043.06.06 0 0 1-.004.026c-.002.004.001-.003.018-.02a.655.655 0 0 1 .219-.126c.023-.008.03-.007.025-.007v-.25Z"/></g></g></g></g><defs><clipPath id="b"><rect width="36" height="24" x="3" y="2" fill="#fff" rx="2"/></clipPath><filter id="a" width="42" height="30" x="0" y="0" color-interpolation-filters="sRGB" filterUnits="userSpaceOnUse"><feFlood flood-opacity="0" result="BackgroundImageFix"/><feColorMatrix in="SourceAlpha" result="hardAlpha" values="0 0 0 0 0 0 0 0 0 0 0 0 0 0 0 0 0 0 127 0"/><feOffset dy="1"/><feGaussianBlur stdDeviation="1"/><feColorMatrix values="0 0 0 0 0.0627451 0 0 0 0 0.0941176 0 0 0 0 0.156863 0 0 0 0.06 0"/><feBlend in2="BackgroundImageFix" result="effect1_dropShadow_91_23857"/><feColorMatrix in="SourceAlpha" result="hardAlpha" values="0 0 0 0 0 0 0 0 0 0 0 0 0 0 0 0 0 0 127 0"/><feOffset dy="1"/><feGaussianBlur stdDeviation="1.5"/><feColorMatrix values="0 0 0 0 0.0627451 0 0 0 0 0.0941176 0 0 0 0 0.156863 0 0 0 0.1 0"/><feBlend in2="effect1_dropShadow_91_23857" result="effect2_dropShadow_91_23857"/><feBlend in="SourceGraphic" in2="effect2_dropShadow_91_23857" result="shape"/></filter></defs></svg>