<svg width="32" height="32" viewBox="0 0 32 32" fill="none" xmlns="http://www.w3.org/2000/svg"><g id="Icon-Planet"><g clip-path="url(#clip0_13_434)"><g id="size=md (32px)"><g id="Planet"><path id="Vector" d="M16 27C22.0751 27 27 22.0751 27 16C27 9.92487 22.0751 5 16 5C9.92487 5 5 9.92487 5 16C5 22.0751 9.92487 27 16 27Z" stroke="#101828" stroke-width="2" stroke-linecap="round" stroke-linejoin="round"/><path id="Vector_2" d="M23.0259 7.53746C26.4884 6.58746 29.0884 6.67496 29.8634 7.99996C31.2384 10.3875 26.1509 15.9125 18.5009 20.325C10.8509 24.7375 3.52588 26.3875 2.13838 24C1.37588 22.675 2.60088 20.375 5.15088 17.85" stroke="#101828" stroke-width="2" stroke-linecap="round" stroke-linejoin="round"/></g></g></g><rect x="0.5" y="0.5" width="31" height="31" rx="4.5" stroke="#3D90E3" stroke-dasharray="10 5"/></g><defs><clipPath id="clip0_13_434"><rect width="32" height="32" rx="5" fill="white"/></clipPath></defs></svg>