<svg width="32" height="32" viewBox="0 0 32 32" fill="none" xmlns="http://www.w3.org/2000/svg"><g id="Icon-ThermometerHot"><g clip-path="url(#clip0_13_132)"><g id="size=md (32px)"><g id="ThermometerHot"><path id="Vector" d="M15 26C16.3807 26 17.5 24.8807 17.5 23.5C17.5 22.1193 16.3807 21 15 21C13.6193 21 12.5 22.1193 12.5 23.5C12.5 24.8807 13.6193 26 15 26Z" stroke="#101828" stroke-width="2" stroke-linecap="round" stroke-linejoin="round"/><path id="Vector_2" d="M15 21V6" stroke="#101828" stroke-width="2" stroke-linecap="round" stroke-linejoin="round"/><path id="Vector_3" d="M30.0379 9.99994C29.8057 10.2324 29.53 10.4168 29.2265 10.5426C28.923 10.6684 28.5977 10.7332 28.2691 10.7332C27.9406 10.7332 27.6153 10.6684 27.3118 10.5426C27.0083 10.4168 26.7326 10.2324 26.5004 9.99994C26.2682 9.7675 25.9925 9.5831 25.689 9.45729C25.3855 9.33148 25.0602 9.26672 24.7316 9.26672C24.4031 9.26672 24.0778 9.33148 23.7743 9.45729C23.4708 9.5831 23.1951 9.7675 22.9629 9.99994" stroke="#101828" stroke-width="2" stroke-linecap="round" stroke-linejoin="round"/><path id="Vector_4" d="M30.0379 14.9999C29.8057 15.2324 29.53 15.4168 29.2265 15.5426C28.923 15.6684 28.5977 15.7332 28.2691 15.7332C27.9406 15.7332 27.6153 15.6684 27.3118 15.5426C27.0083 15.4168 26.7326 15.2324 26.5004 14.9999C26.2682 14.7675 25.9925 14.5831 25.689 14.4573C25.3855 14.3315 25.0602 14.2667 24.7316 14.2667C24.4031 14.2667 24.0778 14.3315 23.7743 14.4573C23.4708 14.5831 23.1951 14.7675 22.9629 14.9999" stroke="#101828" stroke-width="2" stroke-linecap="round" stroke-linejoin="round"/><path id="Vector_5" d="M11 18.375V6C11 4.93913 11.4214 3.92172 12.1716 3.17157C12.9217 2.42143 13.9391 2 15 2C16.0609 2 17.0783 2.42143 17.8284 3.17157C18.5786 3.92172 19 4.93913 19 6V18.375C20.0669 19.2079 20.8471 20.3531 21.2318 21.6507C21.6166 22.9484 21.5867 24.3338 21.1462 25.6136C20.7058 26.8934 19.8769 28.0038 18.775 28.7899C17.6732 29.576 16.3535 29.9985 15 29.9985C13.6465 29.9985 12.3268 29.576 11.225 28.7899C10.1231 28.0038 9.29418 26.8934 8.85376 25.6136C8.41333 24.3338 8.38341 22.9484 8.76816 21.6507C9.15291 20.3531 9.93315 19.2079 11 18.375V18.375Z" stroke="#101828" stroke-width="2" stroke-linecap="round" stroke-linejoin="round"/></g></g></g><rect x="0.5" y="0.5" width="31" height="31" rx="4.5" stroke="#3D90E3" stroke-dasharray="10 5"/></g><defs><clipPath id="clip0_13_132"><rect width="32" height="32" rx="5" fill="white"/></clipPath></defs></svg>