<svg width="32" height="32" viewBox="0 0 32 32" fill="none" xmlns="http://www.w3.org/2000/svg"><g id="Icon-Cloud"><g clip-path="url(#clip0_13_869)"><g id="size=md (32px)"><g id="Cloud"><path id="Vector" d="M10 16C10 14.0222 10.5865 12.0888 11.6853 10.4443C12.7841 8.79981 14.3459 7.51809 16.1732 6.76121C18.0004 6.00433 20.0111 5.8063 21.9509 6.19215C23.8907 6.578 25.6725 7.53041 27.0711 8.92894C28.4696 10.3275 29.422 12.1093 29.8079 14.0491C30.1937 15.9889 29.9957 17.9996 29.2388 19.8268C28.4819 21.6541 27.2002 23.2159 25.5557 24.3147C23.9112 25.4135 21.9778 26 20 26H9C7.14348 26 5.36301 25.2625 4.05025 23.9498C2.7375 22.637 2 20.8565 2 19C2 17.1435 2.7375 15.363 4.05025 14.0503C5.36301 12.7375 7.14348 12 9 12C9.58566 11.9998 10.1692 12.0711 10.7375 12.2125" stroke="#101828" stroke-width="2" stroke-linecap="round" stroke-linejoin="round"/></g></g></g><rect x="0.5" y="0.5" width="31" height="31" rx="4.5" stroke="#3D90E3" stroke-dasharray="10 5"/></g><defs><clipPath id="clip0_13_869"><rect width="32" height="32" rx="5" fill="white"/></clipPath></defs></svg>