<svg width="32" height="32" viewBox="0 0 32 32" fill="none" xmlns="http://www.w3.org/2000/svg"><g id="Icon-Cat"><g clip-path="url(#clip0_13_882)"><g id="size=md (32px)"><g id="Cat"><path id="Vector" d="M16 24V28" stroke="#101828" stroke-width="2" stroke-linecap="round" stroke-linejoin="round"/><path id="Vector_2" d="M10.5 19C11.3284 19 12 18.3284 12 17.5C12 16.6716 11.3284 16 10.5 16C9.67157 16 9 16.6716 9 17.5C9 18.3284 9.67157 19 10.5 19Z" fill="#101828"/><path id="Vector_3" d="M21.5 19C22.3284 19 23 18.3284 23 17.5C23 16.6716 22.3284 16 21.5 16C20.6716 16 20 16.6716 20 17.5C20 18.3284 20.6716 19 21.5 19Z" fill="#101828"/><path id="Vector_4" d="M16 6V11" stroke="#101828" stroke-width="2" stroke-linecap="round" stroke-linejoin="round"/><path id="Vector_5" d="M18 22L16 24L14 22" stroke="#101828" stroke-width="2" stroke-linecap="round" stroke-linejoin="round"/><path id="Vector_6" d="M12 6.625V11" stroke="#101828" stroke-width="2" stroke-linecap="round" stroke-linejoin="round"/><path id="Vector_7" d="M20 6.625V11" stroke="#101828" stroke-width="2" stroke-linecap="round" stroke-linejoin="round"/><path id="Vector_8" d="M4 16.9999V6.41239C4.00033 6.2141 4.05961 6.02039 4.17029 5.85586C4.28098 5.69134 4.43808 5.56344 4.62163 5.48841C4.80518 5.41338 5.00689 5.39462 5.20113 5.4345C5.39537 5.47438 5.57336 5.57111 5.7125 5.71239L8.45 8.44989C10.637 6.84114 13.2851 5.98182 16 5.99989C18.7149 5.98182 21.363 6.84114 23.55 8.44989V8.44989L26.2875 5.71239C26.4266 5.57111 26.6046 5.47438 26.7989 5.4345C26.9931 5.39462 27.1948 5.41338 27.3784 5.48841C27.5619 5.56344 27.719 5.69134 27.8297 5.85586C27.9404 6.02039 27.9997 6.2141 28 6.41239V16.9999C28 23.0749 22.625 27.9999 16 27.9999C9.375 27.9999 4 23.0749 4 16.9999Z" stroke="#101828" stroke-width="2" stroke-linecap="round" stroke-linejoin="round"/></g></g></g><rect x="0.5" y="0.5" width="31" height="31" rx="4.5" stroke="#3D90E3" stroke-dasharray="10 5"/></g><defs><clipPath id="clip0_13_882"><rect width="32" height="32" rx="5" fill="white"/></clipPath></defs></svg>