<svg width="32" height="32" viewBox="0 0 32 32" fill="none" xmlns="http://www.w3.org/2000/svg"><g id="Icon-Dog"><g clip-path="url(#clip0_13_706)"><g id="size=md (32px)"><g id="Dog"><path id="Vector" d="M16 24V27" stroke="#101828" stroke-width="2" stroke-linecap="round" stroke-linejoin="round"/><path id="Vector_2" d="M11.5 19C12.3284 19 13 18.3284 13 17.5C13 16.6716 12.3284 16 11.5 16C10.6716 16 10 16.6716 10 17.5C10 18.3284 10.6716 19 11.5 19Z" fill="#101828"/><path id="Vector_3" d="M20.5 19C21.3284 19 22 18.3284 22 17.5C22 16.6716 21.3284 16 20.5 16C19.6716 16 19 16.6716 19 17.5C19 18.3284 19.6716 19 20.5 19Z" fill="#101828"/><path id="Vector_4" d="M18 22L16 24L14 22" stroke="#101828" stroke-width="2" stroke-linecap="round" stroke-linejoin="round"/><path id="Vector_5" d="M19 5.99994L25.975 4.26244C26.1065 4.22934 26.2433 4.22332 26.3772 4.24475C26.5111 4.26618 26.6392 4.31461 26.7538 4.3871C26.8684 4.45959 26.967 4.55462 27.0437 4.66642C27.1204 4.77822 27.1736 4.90445 27.2 5.03744L29.25 15.9874C29.4375 17.0124 28.125 17.6124 27.475 16.7874L19 5.99994Z" stroke="#101828" stroke-width="2" stroke-linecap="round" stroke-linejoin="round"/><path id="Vector_6" d="M13.0006 5.99994L6.02557 4.26244C5.89409 4.22934 5.75725 4.22332 5.62337 4.24475C5.48948 4.26618 5.36136 4.31461 5.24678 4.3871C5.1322 4.45959 5.03356 4.55462 4.95685 4.66642C4.88014 4.77822 4.82697 4.90445 4.80057 5.03744L2.75057 15.9874C2.56307 17.0124 3.87557 17.6124 4.52557 16.7874L13.0006 5.99994Z" stroke="#101828" stroke-width="2" stroke-linecap="round" stroke-linejoin="round"/><path id="Vector_7" d="M13 6H19" stroke="#101828" stroke-width="2" stroke-linecap="round" stroke-linejoin="round"/><path id="Vector_8" d="M26 14.9126V23.0001C26 24.061 25.5786 25.0784 24.8284 25.8285C24.0783 26.5787 23.0609 27.0001 22 27.0001H10C8.93913 27.0001 7.92172 26.5787 7.17157 25.8285C6.42143 25.0784 6 24.061 6 23.0001V14.9126" stroke="#101828" stroke-width="2" stroke-linecap="round" stroke-linejoin="round"/></g></g></g><rect x="0.5" y="0.5" width="31" height="31" rx="4.5" stroke="#3D90E3" stroke-dasharray="10 5"/></g><defs><clipPath id="clip0_13_706"><rect width="32" height="32" rx="5" fill="white"/></clipPath></defs></svg>