<svg xmlns="http://www.w3.org/2000/svg" width="183" height="65" fill="none"><path fill="#393" fill-rule="evenodd" d="M58.584 58.88H46.93L43.135 47.9H20.022l-3.72 10.98H4.575L25.038 5.537h8.453c2.868 0 4.711.882 5.461 2.933.748 2.044 10.07 25.773 10.07 25.773H38.12L31.503 16.22l-8.38 22.704h23.405c3.14 0 4.864 1.014 5.695 3.564l6.36 16.394Zm102.202.003h-11.655l-3.796-10.981h-23.111l-3.722 10.981h-11.724L127.24 5.536h8.454c2.868 0 4.711.885 5.458 2.936.748 2.043 10.07 25.772 10.07 25.772h-10.898l-6.618-18.023-8.38 22.704h23.405c3.139 0 4.861 1.014 5.694 3.565l6.836 16.863-.475-.47Zm-78.665-9.648c10.3 0 14.66-4.972 14.66-16.99 0-11.87-4.133-17.361-13.304-17.361h-10.3v34.351h8.944ZM62.283 5.536h21.196c16.539 0 24.657 8.68 24.657 26.709 0 9.944-3.157 17.44-8.796 21.888-5.261 4.155-11.127 4.748-18.865 4.748H62.28l.003-53.345Zm106.436 45.549h.905c1.058 0 1.912-.348 1.912-1.192 0-.746-.555-1.241-1.759-1.241-.505 0-.857.05-1.058.1v2.333Zm-.051 4.565h-1.91v-8.09a16.3 16.3 0 0 1 3.169-.297c1.558 0 2.262.248 2.866.644.452.347.803.995.803 1.736 0 .944-.703 1.638-1.708 1.937v.1c.803.247 1.257.893 1.509 1.986.25 1.24.401 1.736.602 1.984h-2.06c-.255-.297-.403-.994-.655-1.936-.151-.893-.653-1.29-1.711-1.29h-.903l-.002 3.226Zm1.259-10.72c-3.622 0-6.335 2.928-6.335 6.502 0 3.623 2.713 6.502 6.435 6.502 3.62.049 6.285-2.88 6.285-6.504 0-3.572-2.662-6.5-6.336-6.5h-.049Zm.1-1.64c4.727 0 8.398 3.626 8.398 8.142 0 4.616-3.671 8.19-8.449 8.19-4.727 0-8.498-3.574-8.498-8.19 0-4.516 3.774-8.141 8.498-8.141h.051Z" clip-rule="evenodd"/></svg>