<svg xmlns="http://www.w3.org/2000/svg" width="157" height="76" fill="none"><path fill="#0173CF" d="M89.502 29.36c-3.667-3.668-11.177-5.065-20.084 1.047 0 0 0-13.797-.175-19.211 0-.873-.698-.873-.698-.873-1.168.228-2.159.423-3.027.594h-.003c-4.455.878-5.682 1.12-10.942 1.85 0 0-.699 0-.175.35 1.048 7.685 1.397 15.195 1.048 51.696 0 0 0 .175.175.35 0 .174.174.174.349.174l13.972-.175s.174 0 .349-.174c.175 0 .175-.175.175-.35-.524-10.13-.699-13.797-.699-26.371.317-.12.624-.247.929-.373 1.04-.432 2.047-.85 3.263-.85 4.22 0 4.198 3.101 4.034 25.399l-.017 2.37c0 .175 0 .35.174.524.175.175.35.175.524.175.834 0 2.264-.04 3.759-.082 1.638-.045 3.354-.093 4.45-.093.59 0 1.508.04 2.456.083 1.013.045 2.061.092 2.783.092.175 0 .35 0 .524-.175.175-.175.175-.35.175-.524-.503-8.982-.508-15.502-.513-20.38-.007-8.685-.01-12.166-2.806-15.073Z"/><path fill="#0173CF" fill-rule="evenodd" d="m17.897 64.813 2.62-11.701 13.797.174 2.62 11.876c0 .35.349.524.698.524.643 0 1.804-.037 3.058-.077 1.47-.046 3.066-.097 4.103-.097h7.335c.175 0 .35 0 .524-.175.175-.175.175-.35.175-.524L36.584 11.371s-.349-.874-1.222-.699c-1.596.278-3.467.583-5.373.893-2.892.472-5.864.956-8.075 1.378-1.048.349-1.397 1.222-1.397 1.222L3.925 64.464c0 .174 0 .35.175.524 0 .174.349.35.524.35h12.574c.35 0 .699-.175.699-.525Zm12.49-29.935c.693 3.09 1.324 5.9 1.831 7.93h-8.907c1.223-4.367 3.668-13.623 4.716-18.164.81 3.332 1.62 6.943 2.36 10.234Zm86.884 26.792c-2.619 1.92-7.684 4.54-11.876 4.54-6.462 0-10.479-4.715-10.479-11.701 0-10.828 12.75-13.972 21.831-15.195.175-1.746.175-3.667-4.366-3.667-4.541 0-8.383 1.397-12.4 2.969-.122.121-.328.073-.501.033a.98.98 0 0 0-.197-.033c-.175-.175-.35-.35-.35-.699l.35-8.383c0-.35.174-.524.523-.699 8.209-2.445 22.181-4.366 27.944 1.048 3.602 3.259 3.498 7.359 3.328 14.12l-.009.376c-.175 10.13 0 12.924.524 20.434 0 .175 0 .35-.175.524-.175.175-.349.175-.524.175l-12.924.174c-.175 0-.349 0-.524-.174-.175-.175-.175-.35-.175-.524v-3.319Zm-.349-14.497-.387.04c-3.311.342-7.996.826-7.996 5.025 0 3.843 4.192 5.065 8.383 2.445v-7.51Z" clip-rule="evenodd"/><path fill="#0173CF" d="M140.326 47.348c-.35 0-.699-.35-.699-.698-.873-19.037-1.048-21.133-2.096-33.01 0-.348.175-.698.699-.872l13.972-2.27c.174 0 .524 0 .698.174.175.175.175.35.175.698-.873 8.558-1.746 24.8-1.921 35.105 0 .35-.349.698-.699.698l-10.129.175Zm-2.439 16.214c-.006-.058-.006-.116-.006-.175 0-1.413.021-2.847.042-4.22v-.005c.014-.928.027-1.83.033-2.678a37.843 37.843 0 0 0-.075-2.325c0-.12 0-.24.057-.36a29.465 29.465 0 0 0-.057-1.2c0-.177 0-.354.177-.53.177-.178.354-.178.53-.178 3.538.354 9.728.177 12.557-.177.177 0 .354 0 .531.177.177.177.177.354.177.53 0 .47-.003.933-.006 1.392.006.057.006.114.006.172v10.828c0 .175 0 .35-.175.524-.174.175-.349.175-.524.175-5.065-.175-8.208-.175-12.574.174-.175 0-.35 0-.524-.174-.175-.175-.175-.35-.175-.524 0-.472.002-.948.006-1.426Z"/></svg>