<svg xmlns="http://www.w3.org/2000/svg" width="202" height="56" fill="none"><path fill="#1677FF" d="M45.49 4.237H13.024c-4.228 0-7.652 3.454-7.652 7.718v32.74c0 4.262 3.424 7.717 7.652 7.717H45.49c4.227 0 7.65-3.455 7.65-7.716v-32.74c0-4.265-3.423-7.719-7.65-7.719Z"/><path fill="#fff" d="M18.28 41.284c-7.432 0-9.629-5.903-5.956-9.133 1.225-1.092 3.465-1.625 4.659-1.744 4.414-.44 8.5 1.258 13.322 3.632-3.39 4.46-7.706 7.245-12.026 7.245Zm26.42-6.797c-1.91-.646-4.476-1.633-7.332-2.676 1.715-3.008 3.085-6.433 3.986-10.155h-9.416v-3.42h11.535v-1.91H31.938v-5.702h-4.707c-.826 0-.826.823-.826.823v4.88H14.74v1.908h11.665v3.42h-9.631v1.91h18.68a33.743 33.743 0 0 1-2.69 6.63c-6.062-2.016-12.53-3.651-16.593-2.645-2.599.646-4.272 1.798-5.256 3.006-4.512 5.537-1.276 13.948 8.255 13.948 5.634 0 11.063-3.169 15.27-8.39 6.275 3.042 18.7 8.265 18.7 8.265v-7.444s-1.561-.125-8.44-2.448Z"/><path fill="#1677FF" d="M109.094 11.29c0 2.492 1.821 4.17 4.362 4.17 2.54 0 4.361-1.678 4.361-4.17 0-2.445-1.821-4.17-4.361-4.17-2.541 0-4.362 1.725-4.362 4.17Z"/><path fill="#000" d="M96.92 43.163h7.573V8.174H96.92v34.99ZM72.619 31.037l4.505-15.577h.192l4.266 15.577h-8.963ZM83.643 9.373H73.481l-11.36 33.79h6.999l1.917-6.614h12.03l1.822 6.615h8.963L83.643 9.373Zm26.026 33.79h7.573v-25.69h-7.573v25.69Zm86.71-25.643.047-.047h-7.142l-4.505 15.625h-.239l-5.177-15.625h-8.484l10.21 25.787-4.266 7.86v.192h6.662l12.894-33.791Zm-65.092 21.234a8.268 8.268 0 0 1-2.588-.384v-13.9c1.582-1.102 2.876-1.63 4.505-1.63 2.829 0 5.081 2.253 5.081 7.046 0 6.135-3.307 8.868-6.998 8.868Zm4.794-21.809c-2.78 0-4.937 1.055-7.382 3.068v-2.54h-7.573V51.31h7.573v-8.388c1.438.384 2.78.576 4.41.576 6.758 0 12.845-4.985 12.845-13.852 0-7.957-4.41-12.702-9.873-12.702m25.739 19.988c-2.013 1.103-3.164 1.534-4.505 1.534-1.821 0-2.972-1.198-2.972-3.115 0-.72.144-1.438.719-2.013.911-.911 2.685-1.582 6.758-2.54v6.134Zm7.573-.191V26.005c0-5.848-3.45-9.06-9.537-9.06-3.883 0-6.567.671-11.456 2.157l1.341 5.896c4.458-2.014 6.424-2.876 8.485-2.876 2.492 0 3.594 1.773 3.594 4.505v.192c-8.675 1.63-11.359 2.54-13.037 4.218-1.246 1.246-1.773 3.02-1.773 5.08 0 4.937 3.835 7.574 7.43 7.574 2.683 0 4.84-1.007 7.764-3.212l.527 2.684h7.573l-.911-6.422Z"/></svg>