<svg xmlns="http://www.w3.org/2000/svg" width="183" height="66" fill="none"><path fill="#F90" d="M104.894 42.574c3.28-.389 10.455-1.24 11.734.4 1.293 1.657-1.434 8.468-2.654 11.513l-.002.005c-.371.923.424 1.294 1.256.598 5.426-4.533 6.819-14.03 5.714-15.4-1.105-1.362-10.58-2.535-16.354 1.529-.893.62-.741 1.483.25 1.362l.056-.007Z"/><path fill="#F90" d="M75.075 59.2c12.607 0 27.25-3.974 37.353-11.42 1.672-1.241.242-3.088-1.468-2.361-11.321 4.805-23.634 7.12-34.826 7.12-16.596 0-32.662-4.547-45.655-12.107-1.135-.666-1.983.499-1.037 1.354C41.482 52.661 57.397 59.2 75.075 59.2Z"/><path fill="#000" fill-rule="evenodd" d="M96.392 37.102c-.355.318-.87.34-1.27.129-1.52-1.263-1.983-1.95-2.689-2.999-.123-.183-.254-.378-.4-.588-2.95 3.011-5.047 3.912-8.869 3.912-4.533 0-8.052-2.792-8.052-8.385 0-4.366 2.362-7.34 5.737-8.793 2.449-1.08 5.712-1.413 8.54-1.702.545-.056 1.074-.11 1.578-.168v-.696c0-.13 0-.263.002-.397.009-1.186.019-2.508-.66-3.5-.652-.992-1.908-1.4-3.02-1.4-2.051 0-3.875 1.052-4.321 3.231-.091.484-.447.961-.939.984l-5.214-.56c-.439-.099-.93-.454-.802-1.128C77.209 8.716 82.93 6.81 88.045 6.81c2.619 0 6.04.696 8.105 2.679 2.407 2.247 2.39 5.185 2.372 8.402-.001.282-.003.566-.003.853v8.385c0 2.25.832 3.372 1.711 4.556.105.142.212.285.317.43.341.485.416 1.068-.023 1.431a229.83 229.83 0 0 0-4.124 3.572l-.008-.015Zm-5.425-13.115v.286c.002 1.97.004 3.644-1.007 5.42-.855 1.514-2.217 2.445-3.723 2.445-2.066 0-3.277-1.574-3.277-3.898 0-4.586 4.11-5.418 8.007-5.418v1.165Z" clip-rule="evenodd"/><path fill="#000" d="M35.17 37.178h5.381c.575 0 1.037-.447 1.037-1V21.196c-.006-3.157-.013-7.265 3.716-7.265 3.431 0 3.373 3.655 3.325 6.63-.005.339-.01.669-.01.983l.007 14.636c0 .53.424.96.968.998h5.373c.576 0 1.037-.446 1.037-.998V21.163c-.004-1.545-.01-3.626.5-4.91.552-1.392 1.914-2.262 3.216-2.262 1.559 0 2.762.522 3.163 2.376.207.889.18 2.945.16 4.322-.004.333-.008.627-.008.854v14.636c0 .53.43.96.968.998h5.373c.575 0 1.037-.446 1.037-.998l.008-17.429c0-.424.007-.858.014-1.296.043-2.61.089-5.371-1.37-7.36-1.505-2.09-3.972-3.02-6.227-3.02-3.171 0-6.13 1.627-7.432 5.115-1.513-3.488-3.617-5.115-6.984-5.115-3.315 0-5.774 1.627-7.084 5.115h-.098V8.58a1.014 1.014 0 0 0-.976-.923h-5.018c-.575 0-1.036.44-1.036.992v27.614c.038.492.446.878.96.916ZM105.065 8.58v3.95c0 .59.454.991 1.021.991h9.24l-10.617 15.226c-.643.976-.651 2.074-.651 2.717v4.003c0 .575.644 1.241 1.257.908 6.016-3.193 13.243-2.883 18.684-.03.666.348 1.302-.325 1.302-.9v-4.216c-.053-.567-.243-1.142-.939-1.536-3.087-1.74-6.682-2.247-10.087-2.164l9.164-13.085c.847-1.173 1.324-1.914 1.332-2.482V8.58c0-.59-.454-1-1.022-1h-17.685c-.545 0-.999.402-.999 1Z"/><path fill="#000" fill-rule="evenodd" d="M139.997 7.074c7.984 0 12.305 6.856 12.305 15.574 0 8.422-4.775 15.105-12.305 15.105-7.84 0-12.108-6.857-12.108-15.4 0-8.597 4.321-15.28 12.108-15.28Zm.045 5.637c-3.965 0-4.215 5.404-4.215 8.771v.124c-.001 3.424-.002 10.456 4.17 10.456 4.17 0 4.366-5.812 4.366-9.354 0-2.33-.098-5.115-.802-7.325-.605-1.922-1.808-2.671-3.519-2.671Z" clip-rule="evenodd"/><path fill="#000" d="M157.296 37.178h5.358c.575 0 1.045-.447 1.052-1v-14.87c0-1.861.098-3.541.855-5.229.598-1.332 1.801-2.21 3.11-2.21 3.43 0 3.398 3.765 3.372 6.72-.002.246-.004.487-.004.72v14.998c.053.47.462.833.954.87h5.395c.53 0 .976-.385 1.037-.87V18.924c0-2.67 0-6.386-1.408-8.596-1.513-2.384-3.867-3.254-6.281-3.254-3.715 0-5.827 1.8-7.333 5.577h-.098V8.428a1.03 1.03 0 0 0-.961-.772h-4.987c-.545 0-.991.394-1.037.9l.008 27.623c0 .53.431.96.968.998Z"/><path fill="#000" fill-rule="evenodd" d="M24.584 37.23c.4.212.915.19 1.271-.128l.015.015a228.461 228.461 0 0 1 4.124-3.572c.44-.363.364-.946.016-1.43-.106-.146-.212-.29-.318-.431-.878-1.184-1.71-2.306-1.71-4.556v-8.385c0-.287.001-.571.003-.853.018-3.217.035-6.155-2.372-8.402-2.066-1.983-5.487-2.68-8.105-2.68-5.116 0-10.83 1.908-12.032 8.234-.122.674.363 1.03.802 1.128l5.221.56c.485-.023.84-.5.931-.984.447-2.18 2.278-3.231 4.329-3.231 1.105 0 2.36.409 3.02 1.4.672.991.661 2.312.652 3.497l-.002.4v.696c-.504.058-1.032.112-1.577.168-2.829.289-6.092.623-8.54 1.702-3.368 1.453-5.737 4.427-5.737 8.793 0 5.593 3.526 8.385 8.052 8.385 3.83 0 5.918-.9 8.87-3.912.155.224.294.43.425.623.695 1.03 1.158 1.715 2.662 2.963Zm-4.155-12.957v-1.451c-3.89 0-7.999.832-7.999 5.418 0 2.324 1.203 3.898 3.27 3.898 1.513 0 2.867-.931 3.723-2.445 1.01-1.776 1.009-3.45 1.006-5.42Z" clip-rule="evenodd"/></svg>