<svg xmlns="http://www.w3.org/2000/svg" width="171" height="69" fill="none"><path fill="#000" fill-rule="evenodd" d="m35.484 29.083-.909 10.234h-2.727l3.636-10.234Zm-13.13 17.834h6.868l1.212-3.446h3.636l-.202 3.446h6.868l.1-21.887h-9.19l-9.292 21.886ZM46.09 25.03h8.685l.909 13.273h.101l2.828-13.273h5.656l-4.646 21.886h-8.585l-1.11-12.868L47.2 46.916h-5.757L46.09 25.03Zm28.078 6.08c.1-.71.202-1.318.1-1.723-.1-.406-.504-.608-1.211-.608-.708 0-1.314.81-1.516 1.621-.909 4.054 8.99 1.722 7.272 9.626-1.211 5.776-5.05 7.6-9.292 7.6-4.342 0-8.585-.71-6.97-6.992h6.566c-.1.811-.202 1.52-.1 2.027.1.507.302.81.909.81.908 0 1.717-.81 1.919-1.823 1.009-4.865-8.889-1.723-7.172-9.728 1.112-5.27 4.242-7.498 9.293-7.498 6.362 0 7.07 3.04 6.362 6.687h-6.16Zm9.796-6.08h6.666l-4.645 21.886h-6.768l4.747-21.886Z" clip-rule="evenodd"/><path fill="#006BA8" fill-rule="evenodd" d="M9.729 41.445c0-18.442 24.341-33.44 54.44-33.44 16.059 0 30.501 4.256 40.501 11.046-9.899-8.816-26.564-14.693-45.35-14.693-30.4 0-55.045 15.098-55.045 33.744 0 10.436 7.777 19.758 19.796 25.94-8.888-5.877-14.342-13.883-14.342-22.597Z" clip-rule="evenodd"/><path fill="#000" fill-rule="evenodd" d="M43.867 54.82v2.635h-1.111l1.11-2.634Zm-3.333 4.865h1.213l.605-1.217h1.515v1.217h1.313l-.303-5.979h-1.515l-2.828 5.979Zm5.959-4.459h1.111l-.101.405c.404-.405.808-.507 1.212-.507.606 0 .909.203.909.71.304-.507.808-.71 1.313-.71.708 0 1.01.406.808 1.318l-.707 3.243h-1.11l.606-3.142c.1-.303 0-.608-.304-.608-.302 0-.606.304-.706.81l-.607 2.94h-1.212l.708-3.142c.1-.303 0-.608-.304-.608-.404 0-.707.304-.808.81l-.605 2.94h-1.112l.909-4.459Zm6.867 1.723.102-.203c.102-.406.304-.811.707-.811.506 0 .506.304.404 1.014h-1.212Zm2.122.709.101-.304c.304-1.317.202-2.23-1.212-2.23-1.515 0-2.02 1.115-2.222 2.33-.202 1.115-.404 2.332 1.212 2.332 1.111 0 1.718-.507 1.919-1.621h-1.01c-.202.607-.404.912-.808.912s-.404-.608-.303-1.115l.101-.304h2.222Zm1.112-2.432h1.11l-.101.608c.303-.405.708-.71 1.212-.71h.202l-.303 1.115h-.303c-.404 0-.909.203-1.01.811l-.605 2.635h-1.112l.91-4.459Zm2.827 0h1.111l-.908 4.459h-1.111l.908-4.459Zm.303-1.52h1.212l-.202 1.014h-1.212l.202-1.014Zm3.434 3.142c.102-.406.102-.913-.303-.913-.606 0-.808.507-1.01 1.52-.202 1.114-.202 1.622.304 1.622.403 0 .605-.406.807-1.115h1.11c-.302 1.216-.908 1.824-2.12 1.824-1.111 0-1.616-.507-1.212-2.331.404-1.824 1.213-2.33 2.323-2.33 1.01 0 1.415.607 1.212 1.723h-1.11Zm3.434 1.52c-.1.506-.505.709-.807.709-.304 0-.404-.305-.304-.71.102-.405.304-.608.809-.71.1 0 .404-.1.504-.202l-.202.913Zm-.606-1.825v-.1c.101-.305.303-.508.606-.508.404 0 .506.203.404.507 0 .304-.202.406-.504.507l-.707.202c-.808.203-1.213.507-1.415 1.418-.101.61 0 1.217.809 1.217.504 0 .908-.101 1.211-.507h.102v.406h1.11c-.101-.203-.101-.406 0-.811l.505-2.432c.202-.81.102-1.318-1.313-1.318-.808 0-1.615.305-1.817 1.318l-.102.101h1.11Zm3.233-1.317h1.11l-.1.506a1.578 1.578 0 0 1 1.212-.608c.706 0 1.11.406.908 1.216l-.707 3.345h-1.11l.605-3.041c.101-.506 0-.709-.303-.709-.404 0-.706.304-.808.81l-.606 2.94h-1.11l.909-4.459Zm7.877-1.52.606 4.154.809-4.154h1.11l-1.211 5.979h-1.414l-.606-4.155-.809 4.155h-1.11l1.212-5.979h1.413Zm4.444 4.662c-.101.506-.504.709-.808.709-.404 0-.404-.305-.302-.71 0-.405.302-.608.706-.71.202 0 .404-.1.607-.202l-.203.913Zm-.706-1.825v-.1c.1-.305.302-.508.706-.508.405 0 .506.203.405.507-.102.304-.202.406-.607.507l-.606.202c-.909.203-1.313.507-1.515 1.418-.1.61.1 1.217.808 1.217.607 0 .91-.101 1.313-.507 0 .101 0 .304.101.406h1.01c0-.203 0-.406.102-.811l.504-2.432c.102-.81 0-1.318-1.312-1.318-.91 0-1.718.305-1.92 1.318v.101h1.01Zm3.837-2.634h1.112l-.304 1.317h.707l-.201.81h-.606l-.607 2.432c0 .304 0 .406.303.406h.304l-.202.81c-.203 0-.405.102-.707.102-.91 0-1.01-.304-.808-1.217l.504-2.532h-.606l.202-.811h.606l.303-1.317Zm1.919 1.317h1.112l-.91 4.459h-1.11l.908-4.459Zm.304-1.52h1.212l-.202 1.014h-1.212l.202-1.014Zm2.221 3.749c.202-.912.304-1.52.91-1.52.505 0 .505.405.303 1.52-.303 1.114-.505 1.622-1.01 1.622s-.405-.71-.203-1.622Zm-1.211 0c-.304 1.52-.102 2.433 1.313 2.33 1.313 0 1.919-.81 2.221-2.33.304-1.52.101-2.33-1.212-2.33s-2.02.81-2.322 2.33Zm4.646-2.229h1.11l-.1.506a1.576 1.576 0 0 1 1.211-.608c.708 0 1.112.406.91 1.216l-.707 3.345h-1.112l.606-3.041c.102-.506 0-.709-.302-.709-.404 0-.707.304-.808.81l-.607 2.94h-1.11l.908-4.459Zm5.554 3.142c-.1.506-.504.709-.808.709-.302 0-.404-.305-.302-.71.101-.405.302-.608.808-.71.1 0 .302-.1.504-.202l-.202.913Zm-.706-1.825v-.1c.101-.305.302-.508.706-.508.404 0 .506.203.404.507-.101.304-.201.406-.606.507l-.606.202c-.909.203-1.313.507-1.413 1.418-.202.61 0 1.217.808 1.217.505 0 .808-.101 1.211-.507 0 .101 0 .304.102.406h1.01c0-.203 0-.406.1-.811l.505-2.432c.202-.81 0-1.318-1.313-1.318-.908 0-1.716.305-1.919 1.318v.101h1.01Zm3.636-2.837h1.111l-1.213 5.979h-1.11l1.212-5.979Zm4.04 4.154v.203c-.102.506 0 .912.605.912.304 0 .708-.304.808-.81.202-.507-.1-.71-.808-1.014-1.009-.303-1.413-.81-1.211-1.722.302-1.217 1.111-1.824 2.221-1.824 1.111 0 1.717.507 1.515 1.621v.203h-1.212c.203-.608 0-.912-.403-.912-.606 0-.808.303-.808.709-.102.304-.102.608.404.81l.807.406c.808.406 1.01.81.808 1.52-.202 1.317-1.111 1.824-2.423 1.824-1.313 0-1.717-.608-1.515-1.723v-.203h1.212Zm4.444-3.951h1.111l-.303 1.317h.706l-.202.81h-.605l-.506 2.432c-.1.304-.1.406.304.406h.202l-.101.81c-.303 0-.505.102-.809.102-.909 0-1.009-.304-.807-1.217l.505-2.532h-.505l.101-.811h.606l.303-1.317Zm3.333 4.459c-.101.506-.506.709-.808.709-.303 0-.405-.305-.303-.71 0-.405.303-.608.808-.71.101 0 .303-.1.505-.202l-.202.913Zm-.707-1.825v-.1c.101-.305.303-.508.707-.508.404 0 .504.203.404.507-.102.304-.202.406-.606.507l-.606.202c-.909.203-1.313.507-1.515 1.418-.101.61.101 1.217.808 1.217.606 0 .909-.101 1.313-.507 0 .101 0 .304.101.406h1.01c0-.203 0-.406.101-.811l.505-2.432c.1-.81 0-1.318-1.313-1.318-.909 0-1.717.305-1.919 1.318v.101h1.01Zm3.232-1.317h1.111l-.102.506c.404-.405.809-.608 1.313-.608.708 0 1.011.406.91 1.216l-.708 3.345h-1.211l.707-3.041c.1-.506 0-.709-.404-.709-.405 0-.607.304-.707.81l-.707 2.94h-1.112l.91-4.459Zm4.747 2.229c.202-1.013.404-1.52.909-1.52.504 0 .504.507.303 1.52-.203 1.014-.405 1.52-.909 1.52-.505 0-.505-.507-.303-1.52Zm.807 2.23h1.112l1.211-5.979h-1.11l-.405 1.925c-.202-.304-.403-.507-.908-.507-.909 0-1.515.71-1.818 2.33-.404 1.623-.101 2.332.807 2.332.506 0 .809-.101 1.213-.608l-.102.507Zm4.242-1.317c-.1.506-.605.709-.908.709-.303 0-.303-.305-.303-.71.101-.405.303-.608.807-.71.203 0 .404-.1.607-.202l-.203.913Zm-.706-1.825v-.1c.101-.305.302-.508.706-.508.304 0 .405.203.405.507-.101.304-.202.406-.606.507l-.707.202c-.808.203-1.213.507-1.414 1.418-.101.61 0 1.217.808 1.217.606 0 .909-.101 1.313-.507v.406h1.111c-.101-.203 0-.406.101-.811l.404-2.432c.202-.81.101-1.318-1.313-1.318-.808 0-1.616.305-1.818 1.318v.101h1.01Zm3.232-1.317h1.111l-.101.608c.303-.405.707-.71 1.212-.71h.201l-.302 1.115h-.304c-.403 0-.908.203-1.009.811l-.606 2.635h-1.111l.909-4.459Zm3.333 2.229c.202-1.013.404-1.52.909-1.52s.505.507.303 1.52c-.202 1.014-.405 1.52-.909 1.52-.505 0-.505-.507-.303-1.52Zm.807 2.23h1.111l1.213-5.979h-1.111l-.404 1.925c-.202-.304-.404-.507-.909-.507-.909 0-1.515.71-1.818 2.33-.405 1.623-.101 2.332.808 2.332.505 0 .808-.101 1.212-.608l-.102.507Zm3.031-1.419-.101.102c-.101.404.101.709.505.709.303 0 .606-.203.707-.608 0-.304-.101-.406-.302-.507l-.809-.304c-.606-.203-.808-.608-.707-1.216.202-.71.808-1.318 2.02-1.318 1.01 0 1.414.406 1.212 1.216v.203h-1.111c.101-.405.101-.608-.303-.608-.302 0-.606.102-.707.405 0 .203.101.406.405.508l.706.303c.605.203.808.608.707 1.217-.202 1.012-1.01 1.418-2.021 1.418-1.211 0-1.514-.507-1.312-1.418v-.102h1.111Zm4.545 1.419 1.313-5.979h1.211l-1.311 5.979h-1.213Zm3.03-4.459h1.111l-.101.506a1.577 1.577 0 0 1 1.212-.608c.808 0 1.111.406.909 1.216l-.707 3.345h-1.111l.606-3.041c.101-.506 0-.709-.303-.709-.404 0-.707.304-.808.81l-.606 2.94h-1.111l.909-4.459Zm4.343 3.04v.102c-.101.404 0 .709.404.709s.606-.203.707-.608c.101-.304-.101-.406-.303-.507l-.707-.304c-.606-.203-.808-.608-.707-1.216.101-.71.707-1.318 1.919-1.318 1.01 0 1.414.406 1.212 1.216v.203h-1.01c.1-.405 0-.608-.404-.608-.303 0-.505.102-.606.405-.101.203 0 .406.404.508l.606.303c.708.203.909.608.708 1.217-.203 1.012-1.011 1.418-1.92 1.418-1.313 0-1.515-.507-1.313-1.418v-.102h1.01Zm4.04-4.357h1.111l-.303 1.317h.707l-.202.81h-.606l-.505 2.432c-.101.304-.101.406.303.406h.202l-.101.81c-.302 0-.505.102-.808.102-.909 0-1.01-.304-.808-1.217l.505-2.532h-.505l.101-.811h.606l.303-1.317Zm1.919 1.317h1.212l-1.01 4.459h-1.111l.909-4.459Zm.404-1.52h1.111l-.202 1.014h-1.212l.303-1.014Zm2.121.203h1.111l-.303 1.317h.707l-.202.81h-.606l-.505 2.432c-.101.304-.101.406.303.406h.202l-.101.81c-.303 0-.505.102-.808.102-.909 0-1.01-.304-.808-1.217l.505-2.532h-.505l.102-.811h.605l.303-1.317Zm3.333 5.269a1.577 1.577 0 0 1-1.212.608c-.808 0-1.111-.406-.909-1.217l.707-3.343h1.111l-.606 3.04c-.1.506 0 .709.303.709.404 0 .707-.304.808-.81l.606-2.939h1.111l-.909 4.459h-1.111l.101-.507Zm3.232-5.269h1.111l-.202 1.317h.606l-.101.81h-.706l-.506 2.432c-.101.304 0 .406.303.406h.303l-.202.81c-.303 0-.505.102-.808.102-.807 0-.909-.304-.807-1.217l.605-2.532h-.605l.202-.811h.504l.303-1.317Zm2.425 3.749-.102.304c-.101.506-.101 1.115.404 1.115.303 0 .606-.305.707-.912h1.112c-.304 1.114-.91 1.62-2.021 1.62-1.616 0-1.414-1.216-1.211-2.33.302-1.215.706-2.33 2.322-2.33 1.313 0 1.414.912 1.111 2.229l-.101.304h-2.221Zm1.312-.71c.101-.709.101-1.013-.404-1.013-.404 0-.606.405-.707.81l-.101.204h1.212Z" clip-rule="evenodd"/></svg>