<svg xmlns="http://www.w3.org/2000/svg" width="114" height="103" fill="none"><path fill="#000" d="M90.578 79.582a2.32 2.32 0 1 0 0-4.64 2.32 2.32 0 0 0 0 4.64Z"/><path fill="#000" fill-rule="evenodd" d="M47.217 82.61c-3.724 0-7.553 2.985-7.553 8.208 0 4.775 3.366 8.148 7.553 8.148 3.455 0 4.995-2.32 4.995-2.32v1.011c0 .478.452 1.011 1.011 1.011h2.498v-23.55h-3.509v9.842s-1.553-2.35-4.995-2.35Zm.625 3.211c3.065 0 4.673 2.696 4.673 4.996 0 2.561-1.909 4.994-4.667 4.994-2.305 0-4.614-1.867-4.614-5.028 0-2.853 1.987-4.962 4.608-4.962Z" clip-rule="evenodd"/><path fill="#000" d="M22.774 97.657c0 .624.472 1.011 1.01 1.011h2.498v-8.326c0-2.19 1.466-4.517 3.928-4.517 2.282 0 3.269 1.955 3.269 3.565v8.208c0 .535.43 1.07 1.07 1.07h2.439v-10.05c0-2.906-2.075-6.012-5.973-6.012-2.384 0-3.937 1.11-4.733 2.304v-1.943h-3.508v14.69Z"/><path fill="#000" fill-rule="evenodd" d="M2.85 90.818c0-5.223 3.83-8.207 7.553-8.207 3.443 0 4.996 2.349 4.996 2.349v-1.992h3.509v15.7H16.41c-.56 0-1.011-.533-1.011-1.01v-1.012s-1.54 2.32-4.996 2.32c-4.186 0-7.553-3.373-7.553-8.148Zm12.852-.001c0-2.3-1.608-4.996-4.674-4.996-2.62 0-4.608 2.109-4.608 4.962 0 3.16 2.31 5.028 4.615 5.028 2.758 0 4.667-2.433 4.667-4.994Z" clip-rule="evenodd"/><path fill="#000" d="M59.587 97.657c0 .624.472 1.011 1.011 1.011h2.498v-7.912c0-2.19 1.344-4.518 3.806-4.518a5.05 5.05 0 0 1 1.666.298v-3.628s-.604-.12-1.25-.12c-2.315 0-3.618 1.33-4.222 2.796v-2.617h-3.509v14.69Zm30.272 1.011c-.54 0-1.011-.387-1.011-1.01v-14.69h3.509v15.7h-2.498Z"/><path fill="#000" fill-rule="evenodd" d="M95.092 90.818c0-5.223 3.83-8.207 7.553-8.207 3.443 0 4.996 2.349 4.996 2.349v-9.843h3.509v23.551h-2.498c-.559 0-1.011-.533-1.011-1.01v-1.012s-1.54 2.32-4.996 2.32c-4.186 0-7.553-3.373-7.553-8.148Zm12.852-.001c0-2.3-1.608-4.996-4.674-4.996-2.621 0-4.608 2.109-4.608 4.962 0 3.16 2.31 5.028 4.615 5.028 2.758 0 4.667-2.433 4.667-4.994Zm-38.307-.027c0-5.274 4.285-8.185 8.185-8.185 4.786 0 8.294 3.723 8.294 8.215 0 3.662-2.724 8.146-8.303 8.146-4.526 0-8.176-3.37-8.176-8.176Zm12.906.01c0-2.744-2.012-4.918-4.709-4.918-2.486 0-4.687 1.954-4.687 4.965 0 2.96 2.314 4.899 4.695 4.899 2.566 0 4.701-2.155 4.701-4.946Z" clip-rule="evenodd"/><path fill="#3DDC84" d="m83.43 22.72 8.977-15.552c.507-.872.2-1.98-.66-2.486a1.8 1.8 0 0 0-2.474.66l-9.095 15.752c-6.94-3.17-14.751-4.937-23.152-4.937-8.4 0-16.212 1.768-23.151 4.937L24.779 5.342a1.814 1.814 0 0 0-2.486-.66 1.814 1.814 0 0 0-.66 2.486l8.978 15.552C15.131 31.109 4.644 46.778 2.912 65.123h108.229C109.409 46.778 98.923 31.108 83.43 22.72ZM32.178 49.924a4.538 4.538 0 0 1-4.536-4.536 4.538 4.538 0 0 1 4.536-4.536 4.538 4.538 0 0 1 4.536 4.536c.012 2.498-2.026 4.536-4.536 4.536Zm49.685 0a4.538 4.538 0 0 1-4.536-4.536 4.538 4.538 0 0 1 4.536-4.536 4.538 4.538 0 0 1 4.536 4.536c.011 2.498-2.027 4.536-4.536 4.536Z"/></svg>