<svg xmlns="http://www.w3.org/2000/svg" width="207" height="57" fill="none"><path fill="#78C257" d="M162.969 16.466a4.268 4.268 0 0 1-1.731-.357 4.627 4.627 0 0 1-2.402-2.402 4.25 4.25 0 0 1-.358-1.731c0-.61.119-1.192.358-1.745a4.582 4.582 0 0 1 2.402-2.417 4.264 4.264 0 0 1 1.731-.357c.61 0 1.191.12 1.744.357a4.593 4.593 0 0 1 1.445.973c.409.41.734.891.972 1.444a4.37 4.37 0 0 1 .357 1.745c0 .61-.119 1.187-.357 1.73a4.644 4.644 0 0 1-.972 1.43 4.59 4.59 0 0 1-1.445.973 4.358 4.358 0 0 1-1.744.357Z"/><path fill="#78C257" fill-rule="evenodd" d="M73.389 34.024c0-2.214.37-4.28 1.112-6.197.74-1.917 1.779-3.587 3.113-5.01 1.334-1.424 2.93-2.54 4.788-3.35 1.858-.811 3.894-1.216 6.108-1.216 1.68 0 3.212.247 4.596.74 1.383.495 2.708 1.296 3.973 2.402V9.742h7.531v39.464h-7.531v-2.55c-1.265 1.127-2.59 1.932-3.973 2.416-1.384.485-2.916.727-4.596.727-2.214 0-4.25-.405-6.108-1.216-1.858-.81-3.454-1.927-4.788-3.35s-2.372-3.094-3.113-5.011c-.742-1.917-1.112-3.983-1.112-6.197Zm16.1 8.688c.592 0 1.215-.065 1.867-.193a8.695 8.695 0 0 0 1.972-.652 9.242 9.242 0 0 0 1.942-1.23 11.112 11.112 0 0 0 1.809-1.898v-9.43a10.646 10.646 0 0 0-1.809-1.882 10.13 10.13 0 0 0-1.942-1.23 8.3 8.3 0 0 0-1.972-.667 9.679 9.679 0 0 0-1.868-.193 8.25 8.25 0 0 0-3.276.652 8.005 8.005 0 0 0-2.654 1.824c-.75.78-1.339 1.7-1.764 2.757-.425 1.058-.637 2.209-.637 3.454s.212 2.397.637 3.454a8.504 8.504 0 0 0 1.764 2.758 8.002 8.002 0 0 0 2.654 1.823 8.249 8.249 0 0 0 3.276.653ZM6.695 27.827c-.742 1.918-1.112 3.983-1.112 6.197s.37 4.28 1.112 6.197c.74 1.917 1.779 3.588 3.113 5.01 1.334 1.424 2.93 2.54 4.788 3.351 1.858.81 3.894 1.216 6.108 1.216 1.68 0 3.207-.247 4.58-.742 1.375-.494 2.704-1.304 3.989-2.43v2.579h7.53V18.844h-7.53v2.58c-1.285-1.128-2.614-1.938-3.988-2.432s-2.9-.741-4.581-.741c-2.214 0-4.25.405-6.108 1.215-1.858.81-3.454 1.927-4.788 3.35-1.334 1.424-2.372 3.094-3.113 5.011ZM23.55 42.52a9.67 9.67 0 0 1-1.868.193 8.251 8.251 0 0 1-3.276-.653 8.004 8.004 0 0 1-2.653-1.823 8.502 8.502 0 0 1-1.765-2.758c-.425-1.057-.637-2.209-.637-3.454s.212-2.396.637-3.454a8.504 8.504 0 0 1 1.764-2.757 8.004 8.004 0 0 1 2.654-1.824 8.255 8.255 0 0 1 3.276-.652 9.63 9.63 0 0 1 1.868.193c.653.128 1.31.35 1.972.667a10.1 10.1 0 0 1 1.942 1.23 10.65 10.65 0 0 1 1.809 1.883v9.428a11.112 11.112 0 0 1-1.809 1.898 9.244 9.244 0 0 1-1.942 1.23 8.698 8.698 0 0 1-1.972.653Z" clip-rule="evenodd"/><path fill="#78C257" d="M48.961 31.949c0-3.69 3.098-6.176 6.666-6.203 3.567.027 6.666 2.513 6.666 6.203v17.256h7.53V32.156c-.041-7.109-6.198-13.81-14.09-13.905h-.211c-7.893.095-14.05 6.796-14.092 13.905v17.049h7.531V31.949Z"/><path fill="#78C257" fill-rule="evenodd" d="M133.68 48.612c1.938.79 4.003 1.186 6.197 1.186s4.255-.396 6.182-1.186a15.793 15.793 0 0 0 5.07-3.306c1.453-1.413 2.599-3.084 3.44-5.01.84-1.928 1.26-4.018 1.26-6.272 0-2.194-.42-4.25-1.26-6.167a15.971 15.971 0 0 0-3.425-5.01c-1.443-1.424-3.133-2.546-5.07-3.366-1.937-.82-4.003-1.23-6.197-1.23s-4.264.41-6.211 1.23c-1.947.82-3.642 1.942-5.085 3.365a15.955 15.955 0 0 0-3.425 5.011c-.84 1.917-1.26 3.973-1.26 6.167 0 2.254.42 4.344 1.26 6.271.84 1.927 1.987 3.597 3.44 5.01a15.736 15.736 0 0 0 5.084 3.307Zm9.385-6.538a8.056 8.056 0 0 1-3.188.638 8.127 8.127 0 0 1-3.217-.638 7.839 7.839 0 0 1-2.609-1.794 8.462 8.462 0 0 1-1.749-2.742c-.425-1.058-.638-2.229-.638-3.514 0-1.265.218-2.426.653-3.484a8.637 8.637 0 0 1 1.764-2.742 8.03 8.03 0 0 1 2.609-1.809 7.896 7.896 0 0 1 3.187-.652 7.72 7.72 0 0 1 3.143.652 8.249 8.249 0 0 1 2.609 1.809 8.539 8.539 0 0 1 1.779 2.742c.435 1.058.652 2.22.652 3.484 0 1.285-.212 2.456-.637 3.514a8.462 8.462 0 0 1-1.749 2.742 7.849 7.849 0 0 1-2.609 1.794Z" clip-rule="evenodd"/><path fill="#78C257" d="M166.734 18.844h-7.531v30.36h7.531v-30.36Z"/><path fill="#78C257" fill-rule="evenodd" d="M170.196 34.024c0-2.214.371-4.28 1.112-6.197.741-1.917 1.779-3.587 3.113-5.01 1.335-1.424 2.931-2.54 4.789-3.35 1.858-.811 3.894-1.216 6.108-1.216 1.68 0 3.212.247 4.595.74 1.384.495 2.708 1.296 3.973 2.402V9.742h7.531v39.464h-7.531v-2.55c-1.265 1.127-2.589 1.932-3.973 2.416-1.383.485-2.915.727-4.595.727-2.214 0-4.25-.405-6.108-1.216-1.858-.81-3.454-1.927-4.789-3.35-1.334-1.423-2.372-3.094-3.113-5.011-.741-1.917-1.112-3.983-1.112-6.197Zm16.1 8.688a9.66 9.66 0 0 0 1.868-.193 8.713 8.713 0 0 0 1.972-.652 9.258 9.258 0 0 0 1.942-1.23 11.121 11.121 0 0 0 1.808-1.898v-9.43a10.654 10.654 0 0 0-1.808-1.882 10.148 10.148 0 0 0-1.942-1.23 8.316 8.316 0 0 0-1.972-.667 9.677 9.677 0 0 0-1.868-.193 8.25 8.25 0 0 0-3.276.652 8.005 8.005 0 0 0-2.654 1.824 8.508 8.508 0 0 0-1.764 2.757c-.425 1.058-.638 2.209-.637 3.454-.001 1.245.212 2.397.637 3.454a8.507 8.507 0 0 0 1.764 2.758 8.002 8.002 0 0 0 2.654 1.823 8.249 8.249 0 0 0 3.276.653Z" clip-rule="evenodd"/><path fill="#78C257" d="M115.906 31.949c0-3.69 2.226-6.294 7.272-6.294v-7.597c-10.655 0-14.761 6.99-14.803 14.098v17.049h7.531V31.949Z"/></svg>