<svg xmlns="http://www.w3.org/2000/svg" width="161" height="73" fill="none"><path fill="#017CEE" d="M4.965 65.549 32.884 36.93a.516.516 0 0 0 .062-.66c-1.698-2.37-4.83-2.781-5.991-4.374-3.44-4.717-4.312-7.388-5.79-7.222a.452.452 0 0 0-.268.141l-10.085 10.34c-5.803 5.943-6.636 19.042-6.787 30.011a.547.547 0 0 0 .94.383Z"/><path fill="#00AD46" d="m62.103 64.842-28.618-27.92a.516.516 0 0 0-.66-.063c-2.371 1.699-2.782 4.83-4.375 5.992-4.717 3.439-7.388 4.311-7.222 5.79a.452.452 0 0 0 .141.267l10.339 10.085c5.943 5.802 19.042 6.636 30.011 6.786a.546.546 0 0 0 .384-.937Z"/><path fill="#04D659" d="M31.708 58.995c-3.249-3.169-4.754-9.439 1.472-22.367C23.058 41.15 19.51 47.096 21.255 48.8l10.453 10.196Z"/><path fill="#00C7D4" d="M61.395 7.706 33.478 36.323a.515.515 0 0 0-.063.66c1.7 2.37 4.83 2.781 5.992 4.374 3.439 4.718 4.312 7.388 5.79 7.223a.45.45 0 0 0 .268-.142L55.55 38.099c5.802-5.942 6.636-19.042 6.787-30.011a.548.548 0 0 0-.942-.382Z"/><path fill="#11E1EE" d="M55.555 38.1c-3.17 3.248-9.44 4.754-22.37-1.473 4.524 10.122 10.47 13.67 12.173 11.925l10.197-10.453Z"/><path fill="#E43921" d="m4.257 8.412 28.618 27.917a.517.517 0 0 0 .66.063c2.37-1.699 2.78-4.83 4.373-5.992 4.718-3.439 7.388-4.311 7.223-5.789a.455.455 0 0 0-.142-.268L34.651 14.258C28.708 8.454 15.609 7.62 4.639 7.47a.547.547 0 0 0-.382.94Z"/><path fill="#FF7557" fill-rule="evenodd" d="M34.656 14.258c3.248 3.17 4.754 9.44-1.472 22.37 10.121-4.524 13.668-10.47 11.924-12.172L34.656 14.259Z" clip-rule="evenodd"/><path fill="#0CB6FF" d="M10.812 35.155c3.17-3.248 9.439-4.754 22.369 1.472-4.524-10.121-10.47-13.668-12.172-11.924L10.812 35.155Z"/><path fill="#4A4848" d="M33.185 37.87a1.248 1.248 0 1 0 0-2.496 1.248 1.248 0 0 0 0 2.496Z"/><path fill="#51504F" d="M70.114 26.492a.227.227 0 0 1-.221-.22.45.45 0 0 1 .01-.122l2.74-7.146a.343.343 0 0 1 .354-.242h.75a.345.345 0 0 1 .354.242l2.728 7.145.022.122a.225.225 0 0 1-.221.221h-.563a.285.285 0 0 1-.188-.055.348.348 0 0 1-.088-.133l-.607-1.568h-3.622l-.607 1.568a.314.314 0 0 1-.1.133.266.266 0 0 1-.176.055h-.565Zm4.75-2.706-1.492-3.92-1.49 3.92h2.981Zm3.29 4.804a.257.257 0 0 1-.188-.077.239.239 0 0 1-.066-.177v-7.33a.238.238 0 0 1 .066-.175.255.255 0 0 1 .188-.078h.508a.266.266 0 0 1 .253.254v.485a2.098 2.098 0 0 1 1.81-.85 2.073 2.073 0 0 1 1.735.73c.41.54.632 1.202.63 1.881.007.08.01.206.01.376s-.003.295-.01.375c0 .68-.222 1.34-.63 1.882a2.09 2.09 0 0 1-1.734.729 2.133 2.133 0 0 1-1.79-.828v2.562a.238.238 0 0 1-.065.177.221.221 0 0 1-.178.077l-.54-.013Zm2.34-2.882a1.312 1.312 0 0 0 1.139-.487c.26-.376.398-.823.396-1.28.007-.074.011-.18.011-.32 0-1.391-.516-2.087-1.547-2.087a1.352 1.352 0 0 0-1.148.508 2.09 2.09 0 0 0-.408 1.189l-.012.42.012.43c.008.416.156.817.42 1.138a1.387 1.387 0 0 0 1.137.489Zm5.575.891a2.307 2.307 0 0 1-1.005-.22 1.92 1.92 0 0 1-.74-.595 1.473 1.473 0 0 1-.265-.85 1.446 1.446 0 0 1 .594-1.19 3.368 3.368 0 0 1 1.634-.617l1.645-.232v-.32c0-.75-.429-1.126-1.287-1.126a1.387 1.387 0 0 0-1.256.685.302.302 0 0 1-.088.144.178.178 0 0 1-.133.044h-.476a.228.228 0 0 1-.242-.242c.023-.217.107-.423.242-.595.194-.253.449-.455.74-.585.383-.18.804-.267 1.227-.254a2.329 2.329 0 0 1 1.782.586c.364.388.558.905.542 1.436v3.579a.254.254 0 0 1-.158.24.237.237 0 0 1-.095.014h-.508a.23.23 0 0 1-.255-.254v-.474a1.906 1.906 0 0 1-.707.594 2.532 2.532 0 0 1-1.192.235l.001-.003Zm.232-.828a1.563 1.563 0 0 0 1.17-.464 1.862 1.862 0 0 0 .464-1.358v-.31l-1.28.189c-.417.038-.82.166-1.182.375a.755.755 0 0 0-.396.652.777.777 0 0 0 .364.684c.258.16.556.241.86.235v-.003Zm6.58.828a2.532 2.532 0 0 1-1.855-.663 2.712 2.712 0 0 1-.707-1.881l-.011-.442.01-.442c-.014-.69.24-1.36.708-1.867a2.507 2.507 0 0 1 1.855-.673 2.88 2.88 0 0 1 1.347.287c.33.159.613.403.817.707.173.248.275.538.297.84a.199.199 0 0 1-.066.176.279.279 0 0 1-.188.067h-.53a.262.262 0 0 1-.167-.045.453.453 0 0 1-.11-.176 1.415 1.415 0 0 0-.53-.751 1.502 1.502 0 0 0-.861-.232 1.436 1.436 0 0 0-1.09.431c-.294.363-.447.82-.43 1.288l-.012.396.011.375a1.95 1.95 0 0 0 .431 1.304 1.434 1.434 0 0 0 1.09.42c.302.011.602-.066.861-.221.254-.19.44-.458.53-.762a.453.453 0 0 1 .11-.176.226.226 0 0 1 .167-.056h.53a.256.256 0 0 1 .188.078.198.198 0 0 1 .066.176c-.024.3-.127.59-.297.839a2.057 2.057 0 0 1-.817.707 2.848 2.848 0 0 1-1.348.3v-.004Zm4.039-.11a.23.23 0 0 1-.242-.153.23.23 0 0 1-.013-.101v-7.33a.238.238 0 0 1 .153-.234.257.257 0 0 1 .102-.02h.552a.265.265 0 0 1 .254.254v2.575c.2-.26.457-.472.751-.618a2.332 2.332 0 0 1 1.072-.22 2.05 2.05 0 0 1 1.645.684c.416.505.628 1.147.594 1.8v3.115a.25.25 0 0 1-.158.24.24.24 0 0 1-.095.014h-.552a.23.23 0 0 1-.254-.253v-3.065c.028-.44-.11-.873-.386-1.215a1.367 1.367 0 0 0-1.09-.431 1.468 1.468 0 0 0-1.115.442 1.684 1.684 0 0 0-.408 1.203v3.059a.256.256 0 0 1-.077.188.237.237 0 0 1-.176.066h-.557Zm8.762.11a2.446 2.446 0 0 1-1.823-.693 2.917 2.917 0 0 1-.74-1.922l-.01-.375.01-.365a2.928 2.928 0 0 1 .751-1.9 2.675 2.675 0 0 1 3.7.078c.475.593.715 1.34.673 2.099v.188a.253.253 0 0 1-.158.239.241.241 0 0 1-.095.014h-3.822v.1c.01.444.161.873.431 1.226a1.32 1.32 0 0 0 1.071.495c.289.013.576-.056.828-.198a1.68 1.68 0 0 0 .486-.431.603.603 0 0 1 .144-.154.387.387 0 0 1 .188-.033h.542a.247.247 0 0 1 .165.055c.022.02.04.043.051.07a.191.191 0 0 1 .016.085.97.97 0 0 1-.309.585 2.493 2.493 0 0 1-.851.595c-.394.17-.819.253-1.248.245V26.6Zm1.512-3.401v-.033a1.8 1.8 0 0 0-.42-1.237 1.494 1.494 0 0 0-1.707-.36c-.19.084-.361.207-.502.36-.276.352-.416.79-.396 1.237v.033h3.025Z"/><path fill="#51504F" d="m69.955 26.426-.06.06.06-.06Zm-.055-.277-.08-.03.08.03Zm2.74-7.145.079.03-.08-.03Zm1.457 0-.08.029.08-.029Zm2.728 7.145.083-.015v-.014l-.083.03Zm.022.122h.085v-.015l-.085.015Zm-.066.155.06.06-.06-.06Zm-.906.01-.06.061.006.005.054-.065Zm-.088-.132.08-.027-.08.027Zm-.607-1.568.08-.03a.086.086 0 0 0-.08-.055v.085Zm-3.622 0v-.085a.085.085 0 0 0-.08.054l.08.03Zm-.607 1.568-.08-.03.08.03Zm-.1.133.055.065-.054-.065Zm4.01-2.65v.084a.084.084 0 0 0 .069-.037.084.084 0 0 0 .01-.078l-.08.03Zm-1.492-3.921.08-.03a.085.085 0 0 0-.08-.054.085.085 0 0 0-.079.054l.08.03Zm-1.49 3.92-.08-.03a.085.085 0 0 0 .08.115v-.085Zm-1.767 2.62a.127.127 0 0 1-.1-.04l-.12.12a.297.297 0 0 0 .215.09l.005-.17Zm-.1-.04a.129.129 0 0 1-.04-.1h-.17a.297.297 0 0 0 .09.215l.12-.116Zm-.04-.1a.374.374 0 0 1 .006-.099l-.161-.053a.51.51 0 0 0-.016.148l.17.004Zm.004-.09 2.739-7.146-.159-.06-2.738 7.145.158.06Zm2.74-7.148a.28.28 0 0 1 .099-.142.297.297 0 0 1 .172-.045v-.17a.466.466 0 0 0-.268.075.449.449 0 0 0-.165.223l.162.059Zm.273-.187h.75v-.17h-.75v.17Zm.75 0a.297.297 0 0 1 .174.045.28.28 0 0 1 .1.142l.159-.059a.447.447 0 0 0-.165-.224.466.466 0 0 0-.269-.075l.002.17Zm.275.188 2.728 7.145.159-.06-2.728-7.146-.159.06Zm2.724 7.131.022.122.167-.03-.022-.122-.167.03Zm.02.106a.129.129 0 0 1-.04.1l.12.12a.298.298 0 0 0 .09-.216l-.17-.004Zm-.04.1a.13.13 0 0 1-.1.04v.17a.296.296 0 0 0 .215-.09l-.116-.12Zm-.1.04h-.562v.17h.562v-.17Zm-.562 0a.205.205 0 0 1-.134-.035l-.109.131a.37.37 0 0 0 .243.075v-.17Zm-.128-.03a.26.26 0 0 1-.069-.099l-.16.054c.023.063.06.12.109.165l.12-.12Zm-.07-.099-.607-1.569-.158.062.607 1.567.159-.06Zm-.686-1.622H71.55v.17h3.622v-.17Zm-3.701.054-.609 1.57.159.06.607-1.567-.157-.063Zm-.61 1.572a.233.233 0 0 1-.074.1l.11.128a.396.396 0 0 0 .125-.17l-.16-.058Zm-.073.1a.184.184 0 0 1-.123.035v.17a.351.351 0 0 0 .231-.076l-.108-.13Zm-.123.035h-.563v.17h.563v-.17Zm4.265-2.652-1.49-3.92-.159.06 1.491 3.92.158-.06Zm-1.65-3.92-1.49 3.92.158.06 1.49-3.92-.158-.06Zm-1.41 4.036h2.981v-.17H71.87v.17Zm6.084 4.643-.06.06.06-.06Zm0-7.688.06.06-.06-.06Zm.873 0-.064.056.01.009.054-.065Zm.077.663h-.085a.085.085 0 0 0 .059.08.086.086 0 0 0 .095-.03l-.069-.05Zm3.545-.122-.066.053.066-.053Zm.63 1.882h-.085.085Zm0 .75-.084-.006.084.007Zm-.63 1.883.067.053-.067-.053Zm-3.523-.1.067-.05a.086.086 0 0 0-.136.002.085.085 0 0 0-.016.049h.085Zm-.066 2.74-.06-.06.06.06Zm2.76-3.292-.068-.05.068.05Zm.396-1.28-.084-.009v.005l.084.003Zm-2.683-1.9-.067-.052.067.052Zm-.409 1.188h-.085.085Zm-.01.42h-.085.084Zm.01.43h-.085.085Zm.42 1.138.065-.053-.065.053Zm-1.204 3.284a.172.172 0 0 1-.128-.053l-.12.12a.337.337 0 0 0 .248.099v-.166Zm-.128-.053a.155.155 0 0 1-.042-.117h-.17a.322.322 0 0 0 .091.237l.12-.12Zm-.042-.117v-7.33h-.17v7.33h.17Zm0-7.33a.154.154 0 0 1 .042-.116l-.12-.12a.323.323 0 0 0-.091.237h.17Zm.042-.116a.17.17 0 0 1 .128-.053v-.17a.338.338 0 0 0-.248.099l.12.124Zm.128-.053h.508v-.17h-.508v.17Zm.508 0a.137.137 0 0 1 .112.048l.129-.11a.306.306 0 0 0-.242-.107v.17Zm.122.058a.137.137 0 0 1 .047.112h.17a.306.306 0 0 0-.108-.241l-.11.129Zm.047.112v.485h.17v-.485h-.17Zm.154.535a2.014 2.014 0 0 1 1.742-.815v-.17a2.18 2.18 0 0 0-1.882.886l.14.1Zm1.742-.815a1.988 1.988 0 0 1 1.667.694l.134-.105a2.156 2.156 0 0 0-1.801-.761v.172Zm1.667.694c.398.526.613 1.168.611 1.827l.17-.007a3.19 3.19 0 0 0-.648-1.927l-.133.107Zm.611 1.832c.007.077.01.198.01.369h.17c0-.17 0-.298-.012-.384l-.168.015Zm.01.369c0 .169 0 .29-.01.368l.168.015c.008-.085.012-.214.012-.384H83Zm-.01.372a3.05 3.05 0 0 1-.611 1.828l.133.105a3.22 3.22 0 0 0 .647-1.926l-.169-.007Zm-.611 1.827a2.006 2.006 0 0 1-1.667.694v.17a2.179 2.179 0 0 0 1.8-.762l-.133-.102Zm-1.667.694a2.048 2.048 0 0 1-1.722-.793l-.135.1a2.218 2.218 0 0 0 1.856.861l.001-.168Zm-1.874-.743v2.562h.17v-2.562h-.17Zm0 2.562a.154.154 0 0 1-.042.117l.12.12a.325.325 0 0 0 .091-.237h-.17Zm-.046.122a.135.135 0 0 1-.112.048v.17a.306.306 0 0 0 .241-.107l-.129-.111Zm-.112.048h-.541v.17h.54v-.17Zm1.8-2.713a1.394 1.394 0 0 0 1.206-.521l-.137-.1a1.23 1.23 0 0 1-1.069.451v.17Zm1.204-.52c.27-.39.416-.854.416-1.329l-.17-.006c.002.44-.131.87-.381 1.234l.135.1Zm.415-1.324a3.88 3.88 0 0 0 .011-.328h-.17c0 .138 0 .242-.01.312l.168.016Zm.011-.328a2.7 2.7 0 0 0-.403-1.617 1.434 1.434 0 0 0-1.228-.557v.17a1.267 1.267 0 0 1 1.09.487c.28.454.409.984.37 1.516h.172Zm-1.63-2.173a1.438 1.438 0 0 0-1.217.542l.135.1a1.268 1.268 0 0 1 1.08-.475l.001-.167Zm-1.217.542a2.18 2.18 0 0 0-.426 1.24l.17.008c.011-.413.15-.814.396-1.146l-.14-.102Zm-.426 1.242-.011.42h.17l.01-.42h-.17Zm-.011.424.01.431h.171l-.01-.43h-.171Zm.01.432c.01.434.164.853.44 1.189l.132-.108a1.759 1.759 0 0 1-.397-1.09l-.174.009Zm.44 1.189a1.471 1.471 0 0 0 1.202.517v-.17a1.302 1.302 0 0 1-1.072-.454l-.13.107Zm5.772 1.106.037-.076-.037.076Zm-.74-.594-.069.048.07-.048Zm.332-2.044.052.068-.052-.068Zm1.635-.618.011.084-.011-.084Zm1.645-.232.011.085a.086.086 0 0 0 .074-.084h-.085Zm-2.087-1.237.045.072-.045-.072Zm-.464.476-.074-.042a.083.083 0 0 0-.006.015l.08.027Zm-.088.143-.053-.066-.007.006.06.06Zm-.785-.021-.064.055.009.01.055-.065Zm-.066-.177h-.085.085Zm.243-.594-.07-.048.07.048Zm.74-.585.037.076-.037-.076Zm3.004.33-.063.058.063-.058Zm.463 5.203.06.06-.06-.06Zm-.872 0-.065.055a.045.045 0 0 0 .01.009l.055-.064Zm-.067-.663h.085a.085.085 0 0 0-.154-.048l.07.048Zm-.707.594-.04-.075.04.075Zm.221-1.049-.061-.06.061.06Zm.464-1.668h.085a.086.086 0 0 0-.063-.082.085.085 0 0 0-.036-.002l.014.084Zm-1.281.188.012.084-.012-.084Zm-1.182.375.046.071-.046-.071Zm-.032 1.336-.047.07.047-.07Zm.629.976a2.22 2.22 0 0 1-.97-.213l-.072.153a2.39 2.39 0 0 0 1.04.229l.002-.17Zm-.97-.213a1.842 1.842 0 0 1-.707-.57l-.137.098c.2.27.466.483.772.623l.073-.151Zm-.705-.568a1.387 1.387 0 0 1-.25-.802h-.171a1.55 1.55 0 0 0 .28.898l.14-.096Zm-.25-.802a1.361 1.361 0 0 1 .563-1.125l-.104-.134a1.53 1.53 0 0 0-.63 1.26l.17-.001Zm.563-1.126a3.283 3.283 0 0 1 1.593-.602l-.024-.168c-.604.06-1.182.28-1.674.636l.105.134Zm1.593-.602 1.646-.231-.024-.169-1.646.232.024.169Zm1.719-.316v-.32h-.17v.32h.17Zm0-.32a1.146 1.146 0 0 0-.352-.908 1.521 1.521 0 0 0-1.025-.303v.17c.326-.025.65.067.913.261a.977.977 0 0 1 .297.78h.167Zm-1.377-1.21a1.472 1.472 0 0 0-.843.224l.1.14c.223-.14.484-.208.747-.197l-.004-.168Zm-.84.223a1.439 1.439 0 0 0-.496.505l.148.083c.107-.182.256-.334.436-.444l-.089-.144Zm-.496.52a.225.225 0 0 1-.062.103l.107.133a.387.387 0 0 0 .115-.183l-.16-.054Zm-.067.11a.1.1 0 0 1-.073.019v.17a.264.264 0 0 0 .192-.07l-.12-.119Zm-.073.019h-.475v.17h.475v-.17Zm-.475 0a.178.178 0 0 1-.121-.046l-.11.13a.348.348 0 0 0 .23.085v-.17Zm-.112-.037a.178.178 0 0 1-.047-.122h-.17c0 .086.031.168.087.232l.13-.11Zm-.047-.118a1.09 1.09 0 0 1 .228-.551l-.139-.1a1.242 1.242 0 0 0-.258.642l.17.01Zm.228-.55c.186-.243.43-.435.708-.559l-.074-.153a2 2 0 0 0-.773.613l.14.099Zm.71-.559a2.585 2.585 0 0 1 1.188-.245v-.169a2.755 2.755 0 0 0-1.265.263l.076.151Zm1.188-.245a2.245 2.245 0 0 1 1.716.558l.124-.115a2.41 2.41 0 0 0-1.84-.612v.17Zm1.716.559c.349.373.535.868.518 1.378h.17a2.097 2.097 0 0 0-.565-1.494l-.123.116Zm.518 1.378v3.578h.17v-3.578h-.17Zm0 3.578a.17.17 0 0 1-.052.128l.12.12a.34.34 0 0 0 .099-.248h-.167Zm-.052.128a.154.154 0 0 1-.117.042v.17a.322.322 0 0 0 .237-.092l-.12-.12Zm-.117.042H88.2v.17h.508v-.17Zm-.508 0a.198.198 0 0 1-.133-.046l-.11.129a.363.363 0 0 0 .243.087v-.17Zm-.123-.037a.192.192 0 0 1-.046-.133h-.17a.362.362 0 0 0 .086.243l.13-.11Zm-.046-.133v-.474h-.17v.474h.17Zm-.155-.523a1.828 1.828 0 0 1-.676.57l.078.15c.293-.144.546-.358.738-.623l-.14-.097Zm-.676.57a2.452 2.452 0 0 1-1.142.234v.169a2.61 2.61 0 0 0 1.22-.253l-.078-.15Zm-.91-.425a1.651 1.651 0 0 0 1.231-.49l-.121-.118a1.48 1.48 0 0 1-1.11.438v.17Zm1.231-.49a1.95 1.95 0 0 0 .488-1.417h-.17a1.785 1.785 0 0 1-.44 1.3l.122.118Zm.488-1.417v-.309h-.17v.31h.17Zm-.1-.396-1.28.187.025.169 1.28-.188-.024-.168Zm-1.28.187a2.97 2.97 0 0 0-1.216.39l.094.141a2.81 2.81 0 0 1 1.147-.361l-.025-.17Zm-1.215.389a.838.838 0 0 0-.437.723h.17a.67.67 0 0 1 .359-.58l-.092-.143Zm-.437.723a.86.86 0 0 0 .402.754l.094-.14a.693.693 0 0 1-.327-.614h-.17Zm.404.756c.273.168.588.253.907.245v-.17a1.485 1.485 0 0 1-.815-.218l-.092.143Zm5.632.326-.06.06.06-.06Zm-.707-1.882h-.085.085Zm-.011-.441h-.084.084Zm.01-.442h-.084.085Zm.708-1.867.06.06-.06-.06Zm3.203-.386-.04.075.04-.075Zm.817.706-.072.045.072-.045Zm.297.84h-.085.085Zm-.066.176.055.064-.055-.064Zm-.884.022.054-.067-.054.067Zm-.11-.177-.08.03.08-.03Zm-.53-.75-.048.07.048-.07Zm-1.956.198-.06-.059.06.059Zm-.43 1.287h-.085.085Zm-.011.396h-.085.085Zm.01.376h-.085.086Zm.431 1.303-.06.059.06-.059Zm1.956.199.045.07-.045-.07Zm.53-.762-.079-.033.079.033Zm.11-.177.054.067.007-.006-.06-.06Zm.884.022-.06.06.06-.06Zm.066.177-.084-.01.084.01Zm-.297.838-.071-.045.071.045Zm-.817.708-.04-.076.04.076Zm-1.347.198a2.447 2.447 0 0 1-1.797-.638l-.118.12a2.615 2.615 0 0 0 1.914.688l.001-.17Zm-1.796-.637a2.627 2.627 0 0 1-.682-1.822l-.17.006c-.012.715.25 1.406.731 1.934l.121-.118Zm-.682-1.82-.011-.442h-.17l.011.441h.17Zm-.011-.438.01-.442h-.168l-.011.442h.169Zm.01-.441a2.586 2.586 0 0 1 .683-1.81l-.12-.12a2.753 2.753 0 0 0-.731 1.924l.169.006Zm.683-1.81a2.423 2.423 0 0 1 1.796-.649v-.169a2.593 2.593 0 0 0-1.915.698l.12.12Zm1.796-.649c.452-.014.9.082 1.307.278l.079-.15a2.972 2.972 0 0 0-1.387-.298l.001.17Zm1.307.278c.318.151.588.385.785.676l.144-.09a2.137 2.137 0 0 0-.85-.737l-.079.15Zm.786.678c.164.234.262.508.284.793l.17-.01a1.772 1.772 0 0 0-.312-.88l-.142.097Zm.284.802a.11.11 0 0 1-.036.099l.11.128a.278.278 0 0 0 .1-.25l-.174.023Zm-.036.099a.198.198 0 0 1-.133.045v.17a.374.374 0 0 0 .244-.087l-.111-.128Zm-.133.045h-.53v.17h.53v-.17Zm-.53 0a.182.182 0 0 1-.113-.026l-.106.133c.064.046.14.068.219.064v-.17Zm-.113-.026a.384.384 0 0 1-.085-.142l-.157.065c.028.08.075.152.136.21l.106-.133Zm-.083-.138a1.5 1.5 0 0 0-.565-.793l-.092.143c.24.174.414.424.495.708l.162-.058Zm-.563-.793a1.585 1.585 0 0 0-.909-.246v.17c.287-.012.57.063.814.216l.095-.14Zm-.909-.246a1.52 1.52 0 0 0-1.155.457l.123.117a1.35 1.35 0 0 1 1.032-.404v-.17Zm-1.155.457c-.31.38-.47.858-.454 1.348l.17.005a1.854 1.854 0 0 1 .407-1.237l-.123-.116Zm-.454 1.348-.01.397h.169l.01-.397h-.169Zm-.01.403.01.375.17-.005-.011-.375-.17.005Zm.01.376c-.018.493.143.975.454 1.358l.123-.117a1.87 1.87 0 0 1-.407-1.248l-.17.007Zm.454 1.358a1.516 1.516 0 0 0 1.155.447v-.17a1.35 1.35 0 0 1-1.032-.397l-.123.12Zm1.155.447c.319.011.634-.07.907-.235l-.092-.143a1.468 1.468 0 0 1-.815.207v.17Zm.91-.236c.268-.2.466-.483.562-.804l-.16-.057c-.084.287-.258.54-.496.72l.093.14Zm.56-.8a.386.386 0 0 1 .085-.142l-.106-.133a.527.527 0 0 0-.136.211l.157.065Zm.092-.149a.14.14 0 0 1 .106-.03v-.17a.307.307 0 0 0-.226.08l.12.12Zm.106-.03h.53v-.17h-.53v.17Zm.53 0a.17.17 0 0 1 .128.052l.12-.12a.342.342 0 0 0-.248-.1v.167Zm.133.056a.108.108 0 0 1 .036.099l.168.017a.278.278 0 0 0-.099-.25l-.105.134Zm.036.108a1.647 1.647 0 0 1-.285.798l.143.091c.178-.261.286-.565.312-.88l-.17-.01Zm-.285.798a1.97 1.97 0 0 1-.785.677l.079.15a2.14 2.14 0 0 0 .85-.737l-.144-.09Zm-.785.678a2.774 2.774 0 0 1-1.308.277v.17c.48.015.956-.087 1.387-.298l-.08-.15Zm2.543.185-.064.055.01.01.054-.065Zm0-7.698.06.06-.06-.06Zm.917 0-.064.055.009.01.055-.065Zm.078 2.75h-.085a.085.085 0 0 0 .152.052l-.067-.053Zm.75-.619.038.076-.038-.076Zm2.717.464-.064.055.064-.055Zm.519 5.102-.06-.06.06.06Zm-.916 0-.064.055.008.01.056-.065Zm-.453-4.457-.064.055.064-.055Zm-2.209.01-.06-.058.06.058Zm-.485 4.45-.06-.059.06.06Zm-.729-.018a.198.198 0 0 1-.132-.046l-.111.13a.363.363 0 0 0 .242.086l.001-.17Zm-.123-.037a.198.198 0 0 1-.045-.132h-.17a.363.363 0 0 0 .086.242l.13-.11Zm-.045-.132v-7.33h-.17v7.33h.17Zm0-7.33a.154.154 0 0 1 .041-.117l-.12-.12a.324.324 0 0 0-.09.237h.169Zm.041-.117a.17.17 0 0 1 .128-.052v-.17a.34.34 0 0 0-.247.1l.12.122Zm.128-.052h.552v-.17h-.552v.17Zm.552 0a.135.135 0 0 1 .112.047l.129-.11a.305.305 0 0 0-.242-.108v.17Zm.12.056a.135.135 0 0 1 .048.112h.17a.306.306 0 0 0-.106-.24l-.111.128Zm.048.112v2.575h.17v-2.575h-.17Zm.152 2.626c.191-.251.438-.454.72-.595l-.073-.152a2.226 2.226 0 0 0-.78.643l.133.104Zm.723-.595a2.25 2.25 0 0 1 1.033-.212v-.169a2.415 2.415 0 0 0-1.11.23l.077.151Zm1.033-.212a1.966 1.966 0 0 1 1.585.655l.129-.11a2.134 2.134 0 0 0-1.711-.715l-.003.17Zm1.585.657c.403.49.608 1.111.575 1.744h.17a2.701 2.701 0 0 0-.619-1.856l-.126.112Zm.575 1.744v3.114h.17v-3.114h-.17Zm0 3.114a.171.171 0 0 1-.052.128l.12.12a.344.344 0 0 0 .099-.247h-.167Zm-.052.128a.156.156 0 0 1-.117.042v.17a.32.32 0 0 0 .237-.092l-.12-.12Zm-.117.042h-.552v.17h.552v-.17Zm-.552 0a.2.2 0 0 1-.133-.046l-.111.13a.365.365 0 0 0 .243.086l.001-.17Zm-.123-.037a.195.195 0 0 1-.045-.133h-.171a.37.37 0 0 0 .086.243l.13-.11Zm-.045-.133v-3.061h-.171v3.059l.171.003Zm0-3.058a1.843 1.843 0 0 0-.408-1.272l-.127.113c.262.327.392.74.364 1.158h.171Zm-.407-1.27a1.463 1.463 0 0 0-1.158-.46v.169a1.288 1.288 0 0 1 1.029.402l.129-.112Zm-1.158-.46a1.55 1.55 0 0 0-1.177.468l.123.117a1.386 1.386 0 0 1 1.054-.415v-.17Zm-1.177.468a1.762 1.762 0 0 0-.432 1.263h.17a1.593 1.593 0 0 1 .386-1.145l-.124-.118Zm-.432 1.263v3.058h.17v-3.062l-.17.004Zm0 3.058a.172.172 0 0 1-.052.128l.12.12a.343.343 0 0 0 .099-.248h-.167Zm-.052.128a.154.154 0 0 1-.117.042v.17a.324.324 0 0 0 .237-.092l-.12-.12Zm-.117.042h-.552v.17h.552v-.17Zm6.387-.5-.061.058.061-.058Zm-.739-1.922h-.086.086Zm-.012-.375h-.084v.005l.084-.005Zm.012-.365-.086-.006.086.006Zm.75-1.9-.06-.059.06.06Zm3.7.078-.065.055.065-.055Zm.594 2.476.06.06-.06-.06Zm-3.997.066v-.085a.085.085 0 0 0-.086.085h.086Zm0 .1h-.086.086Zm.43 1.226-.067.052.067-.052Zm1.9.297.045.072-.045-.072Zm.486-.431-.068-.05.068.05Zm.144-.155.039.077h.006l-.045-.077Zm.891.022-.054.066.054-.066Zm-.242.74-.064-.056.064.056Zm-.85.594.035.078-.035-.078Zm.264-3.158v.085a.085.085 0 0 0 .086-.085h-.086Zm-.42-1.27-.065.054.065-.054Zm-2.208 0-.065-.055.065.055Zm-.397 1.27h-.085a.085.085 0 0 0 .085.085V23.2Zm1.514 3.317a2.356 2.356 0 0 1-1.762-.67l-.121.118a2.53 2.53 0 0 0 1.882.721l.001-.17Zm-1.761-.67a2.835 2.835 0 0 1-.717-1.868l-.17.01c.006.729.278 1.431.764 1.975l.123-.117Zm-.716-1.866-.011-.375h-.169l.01.375h.17Zm-.011-.37.011-.365-.171-.005-.011.365.171.005Zm.011-.362a2.841 2.841 0 0 1 .728-1.846l-.123-.117a3.015 3.015 0 0 0-.775 1.952l.17.011Zm.727-1.846a2.3 2.3 0 0 1 1.739-.68v-.17a2.48 2.48 0 0 0-1.861.733l.122.117Zm1.739-.68a2.287 2.287 0 0 1 1.835.754l.129-.11a2.447 2.447 0 0 0-1.964-.814v.17Zm1.836.754c.462.577.694 1.305.653 2.043h.171a3.171 3.171 0 0 0-.694-2.155l-.13.112Zm.653 2.043v.188h.171v-.188h-.171Zm0 .188a.17.17 0 0 1-.052.128l.119.12a.331.331 0 0 0 .075-.114.36.36 0 0 0 .025-.134h-.167Zm-.052.128a.159.159 0 0 1-.117.041v.17a.318.318 0 0 0 .236-.092l-.119-.12Zm-.117.041h-3.821v.17h3.821v-.17Zm-3.907.085v.1h.171v-.1h-.171Zm0 .1c.011.461.168.908.449 1.274l.134-.105a2.002 2.002 0 0 1-.413-1.177l-.17.007Zm.45 1.275a1.408 1.408 0 0 0 1.137.528v-.17a1.239 1.239 0 0 1-1.005-.465l-.132.107Zm1.137.528c.305.013.608-.06.874-.212l-.089-.145a1.47 1.47 0 0 1-.784.187l-.001.17Zm.874-.212c.198-.116.371-.27.51-.453l-.139-.1a1.608 1.608 0 0 1-.461.409l.09.144Zm.508-.451a1.322 1.322 0 0 1 .106-.124l.008-.006-.077-.152a.348.348 0 0 0-.082.067 1.694 1.694 0 0 0-.091.112l.136.102Zm.119-.133a.323.323 0 0 1 .144-.021v-.17a.46.46 0 0 0-.231.046l.087.145Zm.144-.021h.542v-.17h-.542v.17Zm.542 0a.16.16 0 0 1 .111.036l.109-.131a.335.335 0 0 0-.22-.076v.17Zm.111.036a.111.111 0 0 1 .029.04.116.116 0 0 1 .007.049h.169a.275.275 0 0 0-.099-.22l-.106.13Zm.036.089a.892.892 0 0 1-.289.529l.127.114c.183-.169.301-.396.331-.643h-.169Zm-.289.53a2.39 2.39 0 0 1-.822.575l.072.155c.333-.142.633-.353.879-.618l-.129-.112Zm-.821.574a2.931 2.931 0 0 1-1.212.236v.17c.44.008.878-.078 1.283-.251l-.071-.155Zm.386-3.081v-.033h-.17v.033h.17Zm0-.033a1.883 1.883 0 0 0-.441-1.294l-.128.113c.275.33.417.752.396 1.181h.173Zm-.44-1.288a1.453 1.453 0 0 0-1.17-.516v.17a1.292 1.292 0 0 1 1.039.456l.131-.11Zm-1.17-.516a1.452 1.452 0 0 0-1.169.516l.13.11a1.29 1.29 0 0 1 1.039-.456v-.17Zm-1.17.516a1.947 1.947 0 0 0-.418 1.288h.171a1.78 1.78 0 0 1 .378-1.183l-.131-.105Zm-.418 1.288v.033h.171v-.033h-.171Zm.085.118h3.026v-.17h-3.026v.17ZM67.818 52.43a.576.576 0 0 1-.562-.561 1.143 1.143 0 0 1 .028-.31l6.959-18.153a.873.873 0 0 1 .897-.617h1.908a.874.874 0 0 1 .898.617L84.88 51.56l.056.309a.578.578 0 0 1-.561.561h-1.431a.728.728 0 0 1-.478-.14.891.891 0 0 1-.224-.337L80.7 47.968h-9.203l-1.544 3.985a.791.791 0 0 1-.252.337.682.682 0 0 1-.449.14h-1.433Zm12.065-6.873-3.788-9.96-3.786 9.959h7.574Zm8.106-10.438a.587.587 0 0 1-.646-.645v-1.515a.707.707 0 0 1 .168-.478.65.65 0 0 1 .478-.198h1.768a.67.67 0 0 1 .673.674v1.515a.65.65 0 0 1-.198.477.706.706 0 0 1-.476.168l-1.767.002Zm.225 17.312a.587.587 0 0 1-.646-.645v-13.3a.604.604 0 0 1 .168-.45.65.65 0 0 1 .478-.197h1.346a.672.672 0 0 1 .646.645v13.299a.65.65 0 0 1-.199.477.606.606 0 0 1-.448.168l-1.345.003Zm6.796 0a.587.587 0 0 1-.645-.645V38.513a.708.708 0 0 1 .168-.476.65.65 0 0 1 .477-.198h1.288a.67.67 0 0 1 .674.673v1.234a4.214 4.214 0 0 1 3.928-1.907h1.089a.674.674 0 0 1 .645.645v1.15a.567.567 0 0 1-.198.448.603.603 0 0 1-.449.169h-1.683a3.17 3.17 0 0 0-2.386.898 3.223 3.223 0 0 0-.87 2.385v8.249a.65.65 0 0 1-.198.477.709.709 0 0 1-.478.168l-1.362.003Zm12.117 0a.585.585 0 0 1-.645-.645V40.084h-2.385a.585.585 0 0 1-.645-.645v-.953a.604.604 0 0 1 .169-.45.64.64 0 0 1 .476-.197h2.385v-1.404c0-3.18 1.609-4.77 4.826-4.769h1.571a.673.673 0 0 1 .646.645v.954a.655.655 0 0 1-.199.476.605.605 0 0 1-.448.169h-1.515a2.08 2.08 0 0 0-1.768.673 3.22 3.22 0 0 0-.505 1.992v1.263h6.004v-5.525a.611.611 0 0 1 .169-.449.653.653 0 0 1 .477-.198h1.288a.673.673 0 0 1 .646.645v19.472a.659.659 0 0 1-.198.477.617.617 0 0 1-.45.168h-1.288a.587.587 0 0 1-.646-.645V40.084h-6.004v11.7a.642.642 0 0 1-.406.608.606.606 0 0 1-.242.038l-1.313.001Zm20.701.28a6.425 6.425 0 0 1-4.798-1.74 6.774 6.774 0 0 1-1.796-4.63l-.028-1.206.028-1.206a6.668 6.668 0 0 1 1.824-4.602 7.317 7.317 0 0 1 9.539 0 6.673 6.673 0 0 1 1.824 4.602c.018.206.027.608.027 1.206 0 .6-.009 1.002-.027 1.207a6.709 6.709 0 0 1-1.824 4.63 6.323 6.323 0 0 1-4.774 1.739h.005Zm0-2.16a3.55 3.55 0 0 0 2.773-1.122 4.885 4.885 0 0 0 1.123-3.227c.018-.187.027-.542.027-1.066 0-.523-.009-.878-.027-1.065a4.885 4.885 0 0 0-1.123-3.227 3.539 3.539 0 0 0-2.773-1.122 3.635 3.635 0 0 0-2.806 1.122 4.783 4.783 0 0 0-1.09 3.227l-.027 1.066.027 1.065a4.783 4.783 0 0 0 1.09 3.227 3.626 3.626 0 0 0 2.801 1.121l.005.002Zm13.624 1.882a.84.84 0 0 1-.561-.168 1.305 1.305 0 0 1-.336-.533l-3.985-13.019-.056-.28a.574.574 0 0 1 .169-.421.634.634 0 0 1 .421-.168h1.234a.607.607 0 0 1 .449.168.638.638 0 0 1 .252.309l3.115 10.577 3.339-10.465a.757.757 0 0 1 .253-.396.71.71 0 0 1 .533-.198h.953a.723.723 0 0 1 .534.198.75.75 0 0 1 .253.396l3.339 10.465 3.114-10.577a.652.652 0 0 1 .198-.309.707.707 0 0 1 .477-.168h1.263a.537.537 0 0 1 .396.168.562.562 0 0 1 .169.421l-.057.28-3.956 13.02a1.306 1.306 0 0 1-.336.532.893.893 0 0 1-.595.168h-1.089a.85.85 0 0 1-.926-.7l-3.255-10.045-3.255 10.044a.917.917 0 0 1-.954.701h-1.1Z"/></svg>