<svg xmlns="http://www.w3.org/2000/svg" width="108" height="109" fill="none"><path fill="#F5F5F5" d="M2.7 8.482a5.4 5.4 0 0 1 5.4-5.4h91.8a5.4 5.4 0 0 1 5.4 5.4v91.8a5.4 5.4 0 0 1-5.4 5.4H8.1a5.4 5.4 0 0 1-5.4-5.4v-91.8Z"/><path fill="#CF112B" fill-rule="evenodd" d="M62.718 20.336c-4.12.636-7.711 4.045-8.62 8.182-.181.823-.264 2.05-.171 2.517l.026.133h.567c2.588 0 5.374-1.649 7.092-4.2 1.284-1.906 2.07-4.657 1.846-6.457l-.03-.244-.158.004a6.447 6.447 0 0 0-.552.065ZM62.45 31.71c-1.492.076-3.025.478-5.28 1.384-2.703 1.086-2.974 1.084-5.856-.044-2.87-1.123-4.416-1.372-6.37-1.029-6.472 1.138-10.56 7.162-10.154 14.962.25 4.805 1.956 10.076 4.552 14.069 3.35 5.152 5.646 6.906 8.537 6.52.878-.116 1.278-.242 3.05-.962 1.893-.768 3.097-.988 4.717-.864 1.3.1 1.709.222 4.197 1.248 3.415 1.41 6.058.4 8.897-3.399 2.102-2.812 3.41-5.213 4.418-8.105l.143-.41-.52-.268c-7.323-3.782-7.868-13.51-1.018-18.19l.301-.206-.164-.24c-1.91-2.793-5.843-4.651-9.45-4.466Z" clip-rule="evenodd"/><path fill="#231F20" d="m24.549 86.306.837-2.594h3.286l.83 2.594h1.647l-3.218-9.366h-1.743l-3.224 9.366h1.585Zm2.518-7.747 1.255 3.96h-2.586l1.269-3.96h.062Zm16.421 7.85c.563 0 1.054-.135 1.475-.405.421-.27.75-.659.988-1.167.238-.507.357-1.118.357-1.832v-.651c0-.723-.119-1.336-.357-1.84-.238-.507-.567-.894-.988-1.159-.416-.265-.896-.398-1.44-.398-.243 0-.472.028-.687.082a2.251 2.251 0 0 0-.59.24 2.209 2.209 0 0 0-.48.364 2.42 2.42 0 0 0-.357.474h-.055v-1.064h-1.482v9.661h1.523v-3.417h.055c.128.22.29.414.487.583.202.165.433.295.693.391.261.092.547.138.858.138Zm-.35-1.256c-.361 0-.675-.09-.94-.268a1.758 1.758 0 0 1-.604-.775c-.142-.338-.213-.736-.213-1.194v-.514c0-.449.069-.835.206-1.16.142-.33.343-.586.604-.769a1.56 1.56 0 0 1 .92-.274c.347 0 .642.087.885.26.247.174.436.426.57.755.132.33.198.728.198 1.194v.508c0 .485-.069.894-.206 1.228-.137.334-.329.586-.576.755-.242.17-.524.254-.844.254Zm4.622 1.153h1.523v-9.86H47.76v9.86Zm6.118.124c.448 0 .844-.06 1.187-.18.343-.118.636-.28.878-.486a2.47 2.47 0 0 0 .59-.707c.147-.265.247-.544.302-.837h-1.448a1.469 1.469 0 0 1-.301.542c-.133.15-.3.267-.501.35-.202.078-.43.116-.687.116-.516 0-.928-.185-1.235-.555-.306-.375-.46-.867-.46-1.476v-.171h4.714v-.693c0-.686-.123-1.283-.37-1.791a2.778 2.778 0 0 0-1.07-1.187c-.462-.284-1.016-.425-1.66-.425-.637 0-1.188.137-1.654.411a2.81 2.81 0 0 0-1.078 1.16c-.256.498-.384 1.086-.384 1.763V83c0 .713.13 1.326.391 1.838.26.513.63.906 1.105 1.18.475.275 1.036.412 1.68.412Zm-1.674-4.468v-.013c0-.343.066-.652.199-.927.137-.279.327-.5.57-.665.242-.165.525-.247.85-.247.325 0 .606.082.844.247.242.164.43.386.563.665.132.275.199.584.199.927v.013h-3.225Zm7.83-.892c0-.635.087-1.175.26-1.619.174-.444.428-.78.762-1.009.339-.228.746-.343 1.222-.343.411 0 .768.085 1.07.254.306.17.544.403.714.7.173.297.263.643.267 1.036h1.517v-.103c0-.476-.09-.91-.268-1.303a2.973 2.973 0 0 0-.748-1.023 3.295 3.295 0 0 0-1.125-.665 4.12 4.12 0 0 0-1.434-.24c-.805 0-1.492.173-2.059.521-.567.343-1.002.837-1.303 1.482-.298.645-.446 1.416-.446 2.312v1.146c0 .888.148 1.652.446 2.292.302.64.736 1.132 1.303 1.475.567.339 1.254.508 2.059.508.69 0 1.303-.133 1.839-.398.54-.265.963-.631 1.269-1.098a2.828 2.828 0 0 0 .467-1.605v-.103h-1.517a1.86 1.86 0 0 1-.267.967 1.76 1.76 0 0 1-.714.666c-.302.155-.659.233-1.07.233-.476 0-.883-.114-1.222-.343-.334-.229-.588-.56-.761-.995-.174-.44-.261-.97-.261-1.592V81.07Zm9.643 5.345c.357 0 .665-.043.926-.13.266-.091.487-.213.666-.364.183-.15.327-.32.432-.507h.055v.892h1.448v-4.94c0-.545-.124-.995-.37-1.352a2.213 2.213 0 0 0-1.003-.803c-.42-.178-.9-.268-1.44-.268-.48 0-.897.06-1.25.179a2.409 2.409 0 0 0-.864.494 2.028 2.028 0 0 0-.508.72c-.114.275-.18.565-.199.872h1.428c.018-.215.082-.403.192-.563.11-.165.263-.29.46-.377.196-.092.432-.138.706-.138.426 0 .755.112.988.337.238.224.357.542.357.953v.693h-1.839c-.832 0-1.468.192-1.907.577-.435.38-.652.89-.652 1.53 0 .677.22 1.212.659 1.605.439.394 1.01.59 1.715.59Zm.46-1.16c-.339 0-.64-.09-.906-.274-.265-.182-.398-.464-.398-.843 0-.302.103-.547.309-.735.21-.192.537-.288.98-.288h1.58v.803c0 .26-.07.492-.207.693a1.397 1.397 0 0 1-.562.473 1.786 1.786 0 0 1-.796.172Zm4.683 1.051h1.544V82.01c0-.324.05-.617.151-.878a1.28 1.28 0 0 1 .515-.617c.238-.156.56-.234.967-.234.128 0 .252.005.37.014.12.01.213.023.282.041v-1.345a1.838 1.838 0 0 0-.24-.027 2.488 2.488 0 0 0-.275-.014c-.333 0-.62.057-.857.172-.238.11-.43.247-.576.411a1.696 1.696 0 0 0-.302.474h-.055v-.954H74.82v7.253Zm-39.027.103c.563 0 1.054-.135 1.475-.405.421-.27.75-.659.988-1.167.238-.507.357-1.118.357-1.832v-.651c0-.723-.119-1.336-.357-1.84-.238-.507-.567-.894-.988-1.159-.416-.265-.896-.398-1.44-.398a2.77 2.77 0 0 0-.687.082 2.251 2.251 0 0 0-.59.24 2.209 2.209 0 0 0-.48.364 2.42 2.42 0 0 0-.357.474h-.055v-1.064h-1.482v9.661H33.7v-3.417h.055c.128.22.29.414.487.583.202.165.433.295.693.391.261.092.547.138.858.138Zm-.35-1.256c-.361 0-.675-.09-.94-.268a1.758 1.758 0 0 1-.604-.775c-.142-.338-.213-.736-.213-1.194v-.514c0-.449.069-.835.206-1.16.142-.33.343-.586.604-.769a1.56 1.56 0 0 1 .92-.274c.347 0 .642.087.885.26.247.174.436.426.57.755.132.33.198.728.198 1.194v.508c0 .485-.069.894-.206 1.228-.137.334-.329.586-.576.755-.242.17-.524.254-.844.254Zm46.65 1.277c.448 0 .844-.06 1.187-.18.343-.118.636-.28.878-.486a2.47 2.47 0 0 0 .59-.707c.147-.265.247-.544.302-.837h-1.448a1.468 1.468 0 0 1-.302.542c-.132.15-.3.267-.5.35a1.89 1.89 0 0 1-.686.117c-.517 0-.93-.186-1.236-.556-.306-.375-.46-.867-.46-1.476v-.171h4.714v-.693c0-.686-.123-1.283-.37-1.791a2.778 2.778 0 0 0-1.07-1.187c-.462-.284-1.016-.425-1.66-.425-.637 0-1.188.137-1.654.411a2.808 2.808 0 0 0-1.078 1.16c-.256.498-.384 1.086-.384 1.763V83c0 .713.13 1.326.391 1.838.26.513.63.906 1.105 1.18.476.275 1.036.412 1.68.412Zm-1.674-4.468v-.013c0-.343.066-.652.199-.927.137-.279.327-.5.57-.665.242-.165.525-.247.85-.247.325 0 .606.082.844.247.242.165.43.386.563.665.132.275.199.584.199.927v.013h-3.225Z"/><path fill="#A2999A" d="M105.135 101.294c-.01-.01-.006-.07.01-.132.016-.063.037-.106.047-.096.01.01.005.07-.01.132-.016.063-.037.106-.047.096Z"/><path fill="#A2999A" fill-rule="evenodd" d="M2.762 101.494a40.508 40.508 0 0 0-.049-.271c-.022-.12-.018-.135.02-.075.036.056.106.075.272.075h.224l.142.395c.659 1.835 2.116 3.123 3.88 3.431.552.096 92.836.098 93.386.001 1.768-.309 3.249-1.639 3.892-3.496l.1-.289h.206c.185 0 .361.081.303.14a.43.43 0 0 0-.043.144c-.084.463-.547 1.452-.903 1.928-.223.299-.991 1.08-1.062 1.08-.028 0-.076.03-.106.066-.029.035-.077.054-.11.045.009.029-.018.079-.074.116-.062.041-.087.051-.095.033a.077.077 0 0 1-.018.018c-.024.014-.044.011-.045-.008a.885.885 0 0 0-.146-.198c.079.09.145.192.145.227 0 .043-.028.028-.085-.042l-.085-.107.043.117c.07.196-.946.66-1.799.822-.437.083-92.92.102-93.515.019-.428-.059-1.128-.289-1.552-.51-.33-.171-.44-.228-.44-.285-.001-.03.028-.061.072-.108.06-.064.107-.142.107-.174 0-.022.005-.045.013-.063-.01.013-.013.033-.013.058 0 .036-.057.126-.128.201-.125.133-.157.125-.09-.018-.041.073-.066.078-.127.046-.071-.038-.1-.099-.069-.12-.093-.001-.27-.105-.27-.163 0-.032-.029-.057-.064-.057-.148 0-.956-.886-1.23-1.347-.311-.525-.623-1.264-.687-1.631Zm2.317 3.216a.063.063 0 0 1 .006.028c0 .026.037.012.084-.032-.048.039-.084.052-.084.028a.046.046 0 0 0-.006-.024Zm.195-.101c.013-.006.005.015-.019.066l.05-.095-.03.029Zm97.472.158c.011-.022.041-.039.076-.039.043 0 .067-.018.055-.04l-.001-.003-.001-.001.001.002.001.002c.012.022-.017.04-.065.04-.049 0-.079.018-.066.039Z" clip-rule="evenodd"/></svg>