<svg xmlns="http://www.w3.org/2000/svg" width="183" height="65" fill="none"><path fill="#003A70" d="M15.894 23.183a5.15 5.15 0 0 0-4.674-3.085v5.245l-3.58 1.595c-2.595 1.148-3.77 4.193-2.627 6.8a5.137 5.137 0 0 0 4.66 3.074V31.6l3.633-1.616c2.57-1.168 3.728-4.202 2.588-6.801"/><path fill="#003A70" d="M15.894 35.102a5.151 5.151 0 0 0-4.674-3.085v5.244l-3.6 1.601c-2.581 1.155-3.748 4.19-2.608 6.79a5.136 5.136 0 0 0 4.66 3.077v-5.21l3.633-1.615c2.57-1.17 3.728-4.203 2.588-6.802Zm2.153-22.24a.636.636 0 0 1-.51-1.163.63.63 0 0 1 .832.323.634.634 0 0 1-.322.84Zm2.144-3.313-12.606 5.6c-2.551 1.167-3.699 4.184-2.566 6.768a5.129 5.129 0 0 0 4.654 3.07v-5.199l7.936-3.528c2.554-1.136 3.71-4.138 2.582-6.711Zm-1.787 41.024H22.1l-1.837-5.167h-.04l-1.82 5.167Zm3.99 5.503.67-.085c.772-.085.855-.315.645-.966-.145-.504-.753-2.141-1.337-3.654h-4.24c-.211.546-.75 2.185-1.044 3.066-.4 1.22-.21 1.492.73 1.575l.629.064v.483h-4.474v-.483c1.36-.147 1.528-.274 2.257-2.143l4.305-11.152.482-.19 1.48 3.99c.982 2.668 1.901 5.336 2.716 7.478.67 1.763.94 1.91 2.237 2.017v.483h-5.056v-.483Zm9.481-5.503h3.699l-1.84-5.167h-.038l-1.821 5.167Zm3.992 5.503.669-.085c.773-.085.855-.315.648-.966-.146-.504-.754-2.141-1.338-3.654h-4.242c-.207.546-.75 2.185-1.042 3.066-.399 1.22-.21 1.492.73 1.575l.627.064v.483h-4.47v-.483c1.358-.147 1.526-.274 2.257-2.143l4.3-11.152.482-.19 1.484 3.99c.98 2.668 1.9 5.336 2.716 7.478.667 1.763.938 1.91 2.233 2.017v.483h-5.055v-.483Zm9.336-13.17 5.056 10.817 4.974-10.816h3.443v.482c-1.814.147-1.94.23-1.879 2.564l.169 7.56c.06 2.353.126 2.416 1.962 2.564v.481h-5.515v-.481c1.756-.148 1.819-.21 1.795-2.564l-.084-8.465h-.081l-5.117 11.277H49.4l-4.823-10.983h-.045l-.205 5.861c-.086 1.974-.086 3.129 0 3.78.105.777.606.986 1.965 1.094v.481h-4.91v-.481c1.167-.108 1.608-.317 1.752-1.094.126-.651.253-1.91.358-3.99l.229-4.412c.146-2.814 0-3.045-1.964-3.192v-.483h3.445Zm26.573 3.444c-.627-2.415-1.965-3.066-4.01-3.066-3.762 0-5.435 2.857-5.435 6.154 0 4.055 2.07 6.743 5.455 6.743 2.34 0 3.425-1.135 4.45-3.342l.52.064c-.274.903-.732 2.585-1.065 3.381-.586.147-2.463.589-3.925.589-5.287 0-7.5-3.612-7.5-6.951 0-4.329 3.322-7.332 7.897-7.332 1.774 0 3.174.42 3.758.547.168 1.156.252 2.08.375 3.171l-.52.042Zm12.447-2.78-1.065 2.665h2.129l-1.064-2.665Zm-.376-.725h.805l2.26 5.378h-.836l-.544-1.356h-2.62l-.545 1.356h-.804l2.284-5.378Zm3.738 4.607c.284.185.69.277.897.277.329 0 .735-.138.735-.562 0-.716-1.693-.654-1.693-1.756 0-.817.605-1.21 1.38-1.21.336 0 .612.07.896.154l-.061.631c-.162-.099-.59-.2-.76-.2-.367 0-.69.155-.69.478 0 .802 1.695.57 1.695 1.826 0 .84-.667 1.224-1.365 1.224-.367 0-.742-.038-1.072-.214l.038-.648Zm3.096 0c.283.185.69.277.896.277.329 0 .735-.138.735-.562 0-.716-1.693-.654-1.693-1.756 0-.817.605-1.21 1.38-1.21.336 0 .612.07.896.154l-.062.631c-.161-.099-.589-.2-.758-.2-.368 0-.69.155-.69.478 0 .802 1.694.57 1.694 1.826 0 .84-.667 1.224-1.364 1.224-.368 0-.743-.038-1.073-.214l.038-.648Zm5.08.277c.843 0 1.218-.77 1.218-1.471 0-.747-.451-1.472-1.218-1.472-.773 0-1.225.725-1.225 1.472 0 .7.374 1.471 1.225 1.471Zm0-3.528c1.188 0 1.985.863 1.985 2.057 0 1.125-.813 2.056-1.985 2.056-1.18 0-1.992-.931-1.992-2.056 0-1.194.797-2.057 1.992-2.057Zm5.531.755a2.071 2.071 0 0 0-.781-.17c-.804 0-1.257.725-1.257 1.472 0 .7.376 1.472 1.303 1.472.245 0 .552-.078.774-.223l.053.645c-.298.14-.643.163-.904.163-1.179 0-1.992-.932-1.992-2.057 0-1.194.797-2.057 1.992-2.057.292 0 .667.07.874.154l-.062.601Zm.969 3.266h.72v-3.929h-.72v3.929Zm-.046-4.806h.812V42.6h-.812v.816Zm4.361 2.934c-.153 0-.306-.014-.46-.014-.39 0-1.355.06-1.355.755 0 .415.398.639.727.639.713 0 1.088-.447 1.088-1.033v-.347Zm-2.137-1.779a2.47 2.47 0 0 1 1.287-.37c1.118 0 1.57.555 1.57 1.626v1.625c0 .447.016.655.032.77h-.675v-.509h-.016c-.168.24-.551.602-1.21.602-.842 0-1.433-.37-1.433-1.224 0-.987 1.073-1.295 1.816-1.295.284 0 .483 0 .766.015 0-.677-.245-1.024-.965-1.024-.406 0-.843.154-1.134.4l-.038-.616Zm6.177.308h-1.034v2.15c0 .454.276.7.605.7a.883.883 0 0 0 .49-.138v.616a2.254 2.254 0 0 1-.612.108c-.744 0-1.204-.355-1.204-1.14v-2.296h-.881v-.585h.881v-.91l.721-.23v1.14h1.034v.585Zm.945 3.343h.72v-3.929h-.72v3.929Zm-.046-4.806h.812V42.6h-.812v.816Zm3.804 4.313c.843 0 1.218-.77 1.218-1.471 0-.747-.452-1.472-1.218-1.472-.773 0-1.226.725-1.226 1.472 0 .7.375 1.471 1.226 1.471Zm0-3.528c1.187 0 1.984.863 1.984 2.057 0 1.125-.812 2.056-1.984 2.056-1.179 0-1.992-.931-1.992-2.056 0-1.194.796-2.057 1.992-2.057Zm2.998.092h.697v.625h.016c.214-.447.735-.717 1.279-.717 1.011 0 1.464.632 1.464 1.687v2.334h-.72v-2.033c0-.917-.199-1.364-.828-1.402-.82 0-1.188.662-1.188 1.618v1.817h-.72v-3.929Zm8.619 3.436c.842 0 1.218-.77 1.218-1.471 0-.747-.452-1.472-1.218-1.472-.774 0-1.227.725-1.227 1.472 0 .7.376 1.471 1.227 1.471Zm0-3.528c1.187 0 1.984.863 1.984 2.057 0 1.125-.812 2.056-1.984 2.056-1.18 0-1.993-.931-1.993-2.056 0-1.194.797-2.057 1.993-2.057Zm3.399.678h-.919v-.585h.92v-.363c0-.955.245-1.578 1.31-1.578.184 0 .336.023.482.046l-.031.585a1.133 1.133 0 0 0-.345-.046c-.619 0-.696.4-.696.933v.422h1.035v.586h-1.036v3.344h-.72v-3.344Zm-46.112 7.093-1.065 2.665h2.129l-1.064-2.665Zm-.376-.724h.805l2.26 5.377h-.836l-.544-1.357h-2.62l-.545 1.357h-.804l2.284-5.377Zm3.863 1.447h.675v.57h.015c.275-.454.666-.662 1.241-.662.452 0 .904.231 1.111.762.267-.562.858-.762 1.21-.762.996 0 1.356.647 1.356 1.503v2.518h-.72v-2.341c0-.486-.115-1.095-.697-1.095-.736 0-1.027.724-1.027 1.457v1.98h-.72v-2.342c0-.486-.115-1.095-.697-1.095-.735 0-1.026.724-1.026 1.457v1.98h-.72v-3.93Zm9.42 1.587c0-.6-.353-1.093-.973-1.093-.706 0-.997.585-1.05 1.093h2.022Zm.467 2.18c-.276.101-.59.255-1.234.255-1.386 0-2.022-.847-2.022-2.127 0-1.162.728-1.986 1.831-1.986 1.302 0 1.723.954 1.723 2.218h-2.788c0 .778.605 1.31 1.287 1.31.475 0 1.026-.247 1.202-.394v.724h.001Zm1.322-3.767h.675v.61h.015c.191-.409.605-.702 1.019-.702.214 0 .321.023.475.054v.647a1.066 1.066 0 0 0-.399-.069c-.643 0-1.064.616-1.064 1.602v1.787h-.72v-3.929Zm3.043 3.929h.72v-3.929h-.72v3.929Zm-.046-4.806h.812v-.816h-.812v.816Zm4.586 1.54a2.077 2.077 0 0 0-.782-.17c-.803 0-1.256.724-1.256 1.472 0 .7.375 1.472 1.303 1.472.245 0 .552-.077.774-.224l.053.647c-.299.138-.644.162-.905.162-1.179 0-1.991-.932-1.991-2.057 0-1.194.796-2.056 1.991-2.056.291 0 .668.069.874.154l-.061.6Zm3.337 1.395c-.153 0-.307-.015-.46-.015-.391 0-1.356.06-1.356.755 0 .415.399.639.728.639.712 0 1.088-.447 1.088-1.033v-.346Zm-2.137-1.78a2.467 2.467 0 0 1 1.286-.37c1.119 0 1.57.555 1.57 1.625v1.626c0 .447.017.655.032.77h-.675v-.508h-.015a1.447 1.447 0 0 1-1.21.601c-.843 0-1.434-.37-1.434-1.224 0-.987 1.074-1.295 1.817-1.295.283 0 .482 0 .766.015 0-.678-.245-1.025-.966-1.025-.405 0-.842.155-1.133.401l-.038-.616Zm4.091-.278h.696v.625h.015c.215-.447.736-.716 1.28-.716 1.011 0 1.463.631 1.463 1.687v2.333h-.72v-2.033c0-.917-.199-1.363-.827-1.403-.82 0-1.188.663-1.188 1.619v1.817h-.719v-3.929Zm6.963-1.448h1.263l1.678 4.469 1.647-4.469h1.264v5.378h-.766v-4.654h-.015l-1.77 4.654h-.75l-1.77-4.654h-.015v4.654h-.766v-5.378Zm9.78 3.035c0-.6-.353-1.093-.973-1.093-.705 0-.996.585-1.049 1.093h2.022Zm.467 2.18c-.276.101-.59.255-1.234.255-1.386 0-2.022-.847-2.022-2.127 0-1.162.728-1.986 1.831-1.986 1.303 0 1.724.954 1.724 2.218h-2.788a1.279 1.279 0 0 0 1.286 1.31c.476 0 1.027-.247 1.203-.394v.724Zm2.948-.331c.812 0 1.149-.808 1.149-1.463 0-.733-.376-1.48-1.157-1.48s-1.088.74-1.072 1.457c-.016.616.306 1.486 1.08 1.486Zm1.179-.061h-.015c-.191.293-.636.647-1.333.647-1.18 0-1.677-1.055-1.677-2.126 0-1.056.551-1.988 1.685-1.988.682 0 1.073.27 1.294.632h.016v-2.388h.72v5.777h-.69v-.554Zm1.993.554h.72v-3.929h-.72v3.929Zm-.046-4.806h.812v-.816h-.812v.816Zm4.586 1.54a2.077 2.077 0 0 0-.782-.17c-.804 0-1.256.724-1.256 1.472 0 .7.375 1.472 1.302 1.472.245 0 .552-.077.774-.224l.054.647c-.299.138-.644.162-.904.162-1.18 0-1.992-.932-1.992-2.057 0-1.194.797-2.056 1.992-2.056.291 0 .666.069.873.154l-.061.6Zm3.336 1.395c-.153 0-.306-.015-.46-.015-.39 0-1.355.06-1.355.755 0 .415.398.639.727.639.713 0 1.088-.447 1.088-1.033v-.346Zm-2.137-1.78c.36-.216.789-.37 1.287-.37 1.118 0 1.57.555 1.57 1.625v1.626c0 .447.015.655.031.77h-.674v-.508h-.016a1.445 1.445 0 0 1-1.21.601c-.842 0-1.433-.37-1.433-1.224 0-.987 1.073-1.295 1.816-1.295.284 0 .483 0 .766.015 0-.678-.245-1.025-.965-1.025-.406 0-.843.155-1.134.401l-.038-.616Zm4.14 3.652h.72v-5.777h-.72v5.777Zm8.006-4.492a2.14 2.14 0 0 0-1.104-.3c-1.233 0-2.053.894-2.053 2.102 0 1.264.904 2.104 2.015 2.104.383 0 .896-.1 1.165-.261l.046.747c-.407.169-.904.192-1.218.192-1.694 0-2.82-1.094-2.82-2.804 0-1.656 1.196-2.758 2.827-2.758.413 0 .82.061 1.203.231l-.061.747Zm2.669 3.998c.843 0 1.218-.77 1.218-1.472 0-.746-.45-1.47-1.218-1.47-.773 0-1.225.724-1.225 1.471 0 .7.375 1.471 1.225 1.471Zm0-3.527c1.188 0 1.985.862 1.985 2.056 0 1.125-.811 2.056-1.984 2.056-1.18 0-1.992-.931-1.992-2.056 0-1.194.797-2.056 1.991-2.056Zm3.055 4.021h.72v-5.777h-.72v5.777Zm2.058 0h.72v-5.777h-.72v5.777Zm4.59-2.343c0-.6-.352-1.093-.972-1.093-.705 0-.996.585-1.05 1.093h2.022Zm.468 2.18c-.276.101-.59.255-1.234.255-1.386 0-2.023-.847-2.023-2.127 0-1.162.729-1.986 1.832-1.986 1.302 0 1.724.954 1.724 2.218h-2.789c0 .778.605 1.31 1.287 1.31.475 0 1.026-.247 1.203-.394v.724Zm4.083-1.755c0-.818-.376-1.518-1.143-1.518-.727 0-1.087.794-1.087 1.464 0 .739.414 1.386 1.088 1.386.674 0 1.142-.6 1.142-1.332Zm.72 1.748c0 1.194-.613 1.88-2.015 1.88-.414 0-.774-.054-1.402-.27l.077-.67c.551.254.881.355 1.409.355.759 0 1.211-.517 1.211-1.349v-.385h-.016c-.306.408-.812.608-1.31.608-1.118 0-1.67-.916-1.67-1.933 0-1.01.567-2.088 1.747-2.088.689 0 1.072.254 1.287.678h.015v-.585h.667v3.759Zm3.824-2.173c0-.6-.352-1.093-.972-1.093-.706 0-.997.585-1.05 1.093h2.022Zm.468 2.18c-.276.101-.591.255-1.234.255-1.386 0-2.022-.847-2.022-2.127 0-1.162.727-1.986 1.831-1.986 1.302 0 1.723.954 1.723 2.218h-2.788a1.284 1.284 0 0 0 1.287 1.31c.475 0 1.026-.247 1.203-.394v.724Zm1.083-.608c.284.186.69.277.897.277.33 0 .736-.138.736-.561 0-.717-1.694-.656-1.694-1.757 0-.816.605-1.21 1.38-1.21.337 0 .612.07.896.154l-.061.632c-.162-.1-.59-.2-.758-.2-.368 0-.69.154-.69.478 0 .801 1.693.569 1.693 1.825 0 .84-.667 1.224-1.364 1.224-.368 0-.742-.037-1.073-.215l.038-.647ZM7.567 6.515l2.87 4.996 2.868-4.996H7.567Z"/></svg>