<svg xmlns="http://www.w3.org/2000/svg" width="183" height="65" fill="none"><path fill="#0089D6" d="M34.49 54.393c8.307-1.468 15.169-2.682 15.248-2.699l.143-.03-7.843-9.33c-4.314-5.13-7.843-9.349-7.843-9.373 0-.046 8.098-22.348 8.144-22.428.015-.026 5.527 9.49 13.36 23.066l13.436 23.29.103.179-24.927-.004-24.926-.003 15.105-2.668Zm95.59-2.256c-3.795-.244-6.001-2.404-6.586-6.448-.156-1.076-.156-1.104-.172-8.088l-.016-6.76h3.359l.013 6.539c.012 5.892.02 6.583.076 6.998.229 1.682.684 2.813 1.459 3.625.62.65 1.346 1.03 2.351 1.233.474.095 1.823.095 2.255 0 1.019-.224 1.836-.668 2.556-1.388.821-.82 1.429-1.985 1.723-3.302l.099-.444.011-6.593.011-6.594h3.429v20.73h-3.394v-1.644c0-1.117-.012-1.64-.038-1.632-.021.007-.108.14-.194.296a6.895 6.895 0 0 1-2.626 2.63c-1.28.704-2.563.954-4.316.842Zm38.512-.017a8.897 8.897 0 0 1-3.902-1.274c-2.43-1.503-3.867-3.98-4.288-7.39-.146-1.179-.163-2.764-.042-3.766.272-2.24 1.152-4.438 2.405-6.008a12.297 12.297 0 0 1 1.453-1.453 9.043 9.043 0 0 1 3.707-1.77c.786-.171 2.171-.252 3.006-.174 2.098.194 4.022 1.182 5.329 2.737 1.328 1.58 2.058 3.788 2.151 6.506.015.426.018 1.173.008 1.66l-.019.885-7.349.01-7.35.009v.328c0 .998.243 2.136.663 3.103.362.834.985 1.745 1.495 2.186a6.566 6.566 0 0 0 3.726 1.576c.519.048 1.842-.003 2.434-.094 1.689-.26 3.294-.921 4.59-1.893.152-.115.298-.221.324-.238.038-.023.047.275.046 1.531l-.001 1.56-.347.215a12.17 12.17 0 0 1-4.925 1.708c-.531.065-2.479.094-3.114.046Zm6.396-13.16c0-1.672-.704-3.53-1.702-4.486-.711-.683-1.572-1.1-2.595-1.259-.484-.075-1.504-.046-2.014.057a5.27 5.27 0 0 0-2.749 1.461 7.5 7.5 0 0 0-1.819 2.912 9.395 9.395 0 0 0-.351 1.431l-.024.176h11.254v-.292ZM75.293 51.6l5.546-14.57 5.53-14.525h3.556l.147.379c.45 1.155 11.072 28.73 11.072 28.744 0 .01-.851.017-1.89.017h-1.891l-1.53-4.076-1.532-4.075H81.973l-.053.138c-.03.076-.684 1.91-1.454 4.075l-1.4 3.937h-1.894c-1.5.001-1.891-.008-1.879-.045Zm17.882-11.217c0-.006-1.03-2.799-2.289-6.206-2.355-6.373-2.487-6.757-2.673-7.78-.088-.48-.132-.493-.184-.055a10.165 10.165 0 0 1-.32 1.401 876.14 876.14 0 0 1-2.358 6.47 1002.682 1002.682 0 0 0-2.246 6.15c0 .018 2.266.032 5.035.032 2.77 0 5.035-.005 5.035-.012Zm9.111 10.731v-.53l6.141-8.442 6.141-8.442-5.56-.018-5.56-.019-.01-1.41-.009-1.411h16.083v.953l-6.142 8.487a2829.666 2829.666 0 0 0-6.141 8.506c0 .01 2.73.017 6.068.017h6.067v2.84h-17.078v-.53Zm45.063.507c-.014-.014-.025-4.695-.025-10.402V30.842h3.357v2.139c0 1.177.014 2.14.031 2.14.018 0 .1-.193.182-.429a7.391 7.391 0 0 1 1.875-2.887 4.856 4.856 0 0 1 2.651-1.319c.288-.046.532-.055 1.107-.04.723.019 1.101.072 1.54.215l.138.045v3.485l-.396-.199c-.701-.35-1.392-.49-2.223-.446-.54.028-.895.098-1.327.26a4.199 4.199 0 0 0-2.115 1.727 10.025 10.025 0 0 0-1.404 4.036c-.028.247-.044 2.258-.051 6.22l-.009 5.856h-1.653c-.91 0-1.665-.01-1.678-.024ZM4.575 51.548c0-.013 3.696-6.429 8.213-14.257L21 23.06l9.571-8.032c5.264-4.418 9.585-8.038 9.603-8.044.017-.007-.052.167-.154.387l-10.393 22.29L19.42 51.553l-7.423.01c-4.082.005-7.422-.002-7.422-.015Z"/></svg>