<svg xmlns="http://www.w3.org/2000/svg" width="212" height="56" fill="none"><path fill="#F50" fill-rule="evenodd" d="M19.015 17.596c-.12 0-.22-.1-.22-.22V5.323a.112.112 0 0 0-.065-.1.107.107 0 0 0-.12.021l-4.087 4.087c-.15.15-.285.47-.285.676v12.04c0 .063.05.113.114.113H28.82c.12 0 .22.1.22.22v2.158c0 .313-.256.57-.57.57H14.353a.115.115 0 0 0-.078.035.115.115 0 0 0-.036.078v15.364a3.209 3.209 0 0 0 3.204 3.204H28.47c.313 0 .57.256.57.57v2.164c0 .12-.1.22-.221.22H17.442a6.165 6.165 0 0 1-6.158-6.158V12.834a.112.112 0 0 0-.065-.1.107.107 0 0 0-.12.021l-4.087 4.087c-.15.15-.278.47-.278.676v24.398c0 5.176 4.208 9.384 9.376 9.384h17.386c.064 0 .114-.05.114-.114l.014-33.461c0-.064-.064-.121-.12-.121h-14.49v-.008ZM29.04 30.233v8.423c0 .313-.256.57-.57.57h-9.425a.222.222 0 0 1-.221-.221v-8.772c0-.313.256-.57.57-.57h9.084c.313 0 .562.257.562.57Z" clip-rule="evenodd"/><path fill="#F50" d="m40.85 24.104-4.086-4.087c-.035-.035-.078-.043-.12-.021-.044.014-.065.057-.065.1v28.69c0 .043.029.086.064.1a.114.114 0 0 0 .121-.029l4.087-4.086c.15-.15.277-.463.277-.676V24.787c0-.213-.128-.534-.277-.683Z"/><path fill="#F50" fill-rule="evenodd" d="M135.225 31.237c-1.153-.883-2.357-1.338-3.645-1.338-1.844 0-3.425.697-4.685 2.086-1.288 1.416-1.929 3.16-1.929 5.275 0 1.958.562 3.56 1.716 4.849 1.125 1.31 2.513 1.957 4.179 1.957 1.716 0 3.082-.669 4.442-2.192v1.929h3.966V23.506l-4.044 1.067v6.664Zm0 8.387c-1.096.747-2.008 1.046-2.969 1.046-1.958 0-3.346-1.473-3.346-3.638 0-2.22 1.474-3.751 3.588-3.751.961 0 1.794.213 2.734.747v5.596h-.007Z" clip-rule="evenodd"/><path fill="#F50" d="M140.365 25.058h17.699v3.88h-6.692v14.858h-4.315V28.938h-6.692v-3.88Zm62.146 15.605c.854 0 1.63-.32 2.676-1.096l.079.057-.62 3.531c-1.039.62-2.242.94-3.531.94-3.026 0-4.656-1.794-4.656-5.197v-5.625h-2.086v-3.16h2.086v-2.92l3.987-.99v3.91h4.741v3.16h-4.741v5.276c0 1.395.698 2.114 2.065 2.114Zm-12.987-5.275c-1.203-.292-1.979-.563-2.356-.776-.377-.185-.563-.456-.563-.805 0-.612.698-1.018 1.851-1.018 1.417 0 3.268.612 4.87 1.659l.078-.028v-3.425a10.167 10.167 0 0 0-4.791-1.175c-3.51 0-5.752 1.688-5.752 4.258 0 2.114 1.203 3.296 4.762 4.229 1.204.32 2.008.59 2.414.804.399.214.591.506.591.883 0 .64-.748 1.096-1.901 1.096-1.901 0-4.044-.804-6.101-2.22l-.079.049.534 3.667c1.737 1.046 3.453 1.502 5.411 1.502 1.766 0 3.19-.399 4.286-1.203 1.075-.776 1.609-1.823 1.609-3.104 0-1.154-.349-2.037-1.047-2.706-.712-.67-1.965-1.232-3.816-1.687Zm-12.102 3.83c-1.154.961-1.958 1.338-2.948 1.338-1.473 0-2.278-.94-2.278-2.57v-7.874h-4.072v8.7c0 3.24 1.794 5.276 4.606 5.276 1.929 0 3.318-.833 4.791-2.755v2.463h3.937V30.112h-4.043v9.106h.007Zm-11.435-9.319c-1.473 0-2.598.911-4.499 3.588v-3.56l-3.966.506v13.363h4.073v-8.002c1.737-1.182 3.082-1.66 4.549-1.66.349 0 .641 0 .968.08l-.242-4.201c-.398-.086-.584-.114-.883-.114Zm-46.881-.107c-1.851 0-3.296.833-4.762 2.755V29.92l-3.966.506v13.363h4.072v-9.12c1.154-.961 1.93-1.31 2.919-1.31 1.474 0 2.3.94 2.3 2.541v7.896h4.044v-8.729c0-3.239-1.794-5.275-4.607-5.275Z"/><path fill="#F50" fill-rule="evenodd" d="M101.756 29.742c-2.114 0-3.88.698-5.303 2.086-1.417 1.417-2.115 3.133-2.115 5.14 0 2.036.698 3.745 2.086 5.112 1.367 1.395 3.133 2.086 5.304 2.086 2.114 0 3.88-.698 5.304-2.114 1.417-1.417 2.114-3.133 2.114-5.14 0-2.037-.697-3.753-2.064-5.112-1.389-1.36-3.154-2.058-5.326-2.058Zm-.021 10.978c-1.958 0-3.453-1.609-3.453-3.745 0-2.171 1.445-3.773 3.482-3.773 2.007 0 3.452 1.58 3.452 3.724-.007 2.157-1.473 3.794-3.481 3.794Z" clip-rule="evenodd"/><path fill="#F50" d="m90.836 30.112-3.083 8.593-3.375-8.593h-4.392l5.702 13.121c-.62 1.474-1.502 2.115-2.969 2.115-.747 0-1.445-.185-2.278-.612l-.05.05.776 3.694c.748.32 1.503.456 2.357.456 2.812 0 4.82-1.609 6.13-5.005l5.489-13.819h-4.307Z"/><path fill="#F50" fill-rule="evenodd" d="M75.25 40.905c-2.22 0-3.694-1.046-4.121-2.862h9.447c.012-.182.027-.37.04-.542V37.5c.02-.257.038-.481.038-.609 0-2.143-.59-3.88-1.737-5.197-1.174-1.31-2.755-1.958-4.763-1.958-2.007 0-3.645.698-4.955 2.065-1.31 1.395-1.979 3.104-1.979 5.111 0 2.172.67 3.909 2.008 5.219 1.31 1.31 3.076 1.95 5.304 1.95 1.737 0 3.083-.291 4.713-1.067l1.096-3.403-.078-.057c-1.744.897-3.382 1.352-5.012 1.352Zm-1.18-8.244c1.58 0 2.619 1.175 2.811 3.083h-5.78c.213-1.851 1.366-3.083 2.968-3.083Zm-11.164 1.367c1.716-.883 2.649-2.3 2.649-4.015 0-3.104-2.357-4.955-6.322-4.955h-6.935v18.745h6.963c2.114 0 3.83-.484 5.112-1.474 1.26-.96 1.9-2.278 1.9-3.908.008-2.044-1.145-3.567-3.367-4.393Zm-3.958 6.45h-2.542v-4.684h2.435c2.065 0 3.21.833 3.21 2.356 0 1.417-1.18 2.328-3.103 2.328Zm-2.549-12.103h2.328c1.687 0 2.706.776 2.706 2.143 0 1.395-1.125 2.3-2.862 2.3h-2.172v-4.443Z" clip-rule="evenodd"/></svg>