<svg xmlns="http://www.w3.org/2000/svg" width="240" height="50" fill="none"><path fill="#CCC" fill-rule="evenodd" d="m79.512 18.484.005.026h-.003l.008.033a.426.426 0 0 1 .01.042c.01.076.015.152.015.229v12.394a1.769 1.769 0 0 1-.029.304c-.009.05-.018.099-.03.147l-.028.085a1.842 1.842 0 0 1-.045.128l-.03.066-.009.018a1.689 1.689 0 0 1-.33.473 2.17 2.17 0 0 1-.17.151c-.025.02-.05.041-.078.06l-.01.008a.279.279 0 0 1-.02.014l-18.59 12.394c-.294.195-.63.292-.97.294a1.718 1.718 0 0 1-.97-.294l-18.586-12.4-.014-.012a.055.055 0 0 0-.013-.01c-.013-.013-.028-.023-.043-.034l-.034-.026-.052-.044a3.202 3.202 0 0 1-.099-.086l-.019-.019a.792.792 0 0 1-.078-.084l-.01-.01-.01-.014a.847.847 0 0 1-.05-.062 1.408 1.408 0 0 1-.206-.344.674.674 0 0 1-.018-.04c-.017-.04-.03-.083-.044-.127a1.147 1.147 0 0 1-.027-.085.773.773 0 0 1-.03-.131l-.003-.017-.007-.028a1.58 1.58 0 0 1-.026-.276V18.811a1.751 1.751 0 0 1 .025-.283l.005-.021c.008-.05.018-.099.03-.147l.018-.054.01-.028A1.7 1.7 0 0 1 39 18.15l.03-.066a3.706 3.706 0 0 1 .069-.134 1.61 1.61 0 0 1 .27-.359 1.403 1.403 0 0 1 .18-.16l.068-.05a.179.179 0 0 0 .014-.01.17.17 0 0 1 .015-.012L58.24 4.966a1.746 1.746 0 0 1 1.938 0l18.59 12.394a.16.16 0 0 1 .016.012.26.26 0 0 0 .013.01c.022.014.042.03.063.046l.017.014a1.435 1.435 0 0 1 .169.15 1.767 1.767 0 0 1 .231.294 1.551 1.551 0 0 1 .099.18l.008.017c.01.023.021.045.03.068a1.808 1.808 0 0 1 .054.152l.019.06c.01.04.018.08.026.121Zm-26.486 6.527 6.182 4.135 6.182-4.135-6.182-4.135-6.182 4.135Zm-3.144-2.103 7.578-5.069V9.686l-13.695 9.13 6.117 4.092Zm-7.517 5.027 4.373-2.924-4.373-2.925v5.85Zm15.095 4.248-7.578-5.068-6.117 4.09 13.695 9.132v-8.154Zm11.074-5.069-7.578 5.068v8.154l13.696-9.13-6.118-4.092Zm3.144-2.103 4.373 2.925v-5.85l-4.373 2.925ZM60.956 17.84l7.578 5.068 6.118-4.092-13.696-9.13v8.154Z" clip-rule="evenodd"/><path fill="#CCC" d="M21.475 14.66c2.529 0 4.846.915 6.648 2.426l2.45-2.92a14.097 14.097 0 0 0-9.099-3.32c-7.81 0-14.165 6.354-14.165 14.165 0 7.811 6.354 14.166 14.166 14.164 3.462 0 6.636-1.25 9.099-3.32l-2.45-2.92a10.305 10.305 0 0 1-6.65 2.426c-5.707 0-10.351-4.643-10.351-10.35s4.644-10.353 10.352-10.352Z"/><path fill="#CCC" fill-rule="evenodd" d="M99.881 11.664h-7.625a1.907 1.907 0 0 0-1.907 1.906v22.88c0 1.053.855 1.907 1.907 1.907h7.627c7.36 0 13.347-5.987 13.347-13.347 0-7.36-5.987-13.348-13.349-13.346Zm0 22.88h-5.718V15.477h5.72c5.257 0 9.531 4.279 9.531 9.534.003 5.26-4.274 9.532-9.533 9.534Z" clip-rule="evenodd"/><path fill="#CCC" d="M123.555 36.451v-22.88h.002c0-1.055.852-1.91 1.904-1.907h15.89v3.813h-13.983v7.627h8.898v3.813h-8.898v7.627h13.983v3.814h-15.89a1.907 1.907 0 0 1-1.906-1.907Zm57.717-22.881v22.881c0 1.052.855 1.907 1.907 1.907h15.889v-3.814h-13.982v-7.627h8.898v-3.813h-8.898v-7.627h13.982v-3.813h-15.889a1.904 1.904 0 0 0-1.906 1.906h-.001Z"/><path fill="#CCC" fill-rule="evenodd" d="M154.863 11.664h8.261c4.207-.002 7.629 3.422 7.629 7.627 0 4.204-3.421 7.626-7.627 7.626h-6.356v11.44h-3.813V13.57c0-1.052.853-1.906 1.906-1.906Zm1.907 11.44h6.354a3.816 3.816 0 0 0 3.815-3.813 3.816 3.816 0 0 0-3.813-3.814h-6.356v7.627Z" clip-rule="evenodd"/><path fill="#CCC" d="m228.88 31.185-15.696-18.836a1.905 1.905 0 0 0-3.371 1.22v24.789h3.813V18.837l15.696 18.835a1.902 1.902 0 0 0 2.112.571 1.908 1.908 0 0 0 1.257-1.793V11.662h-3.811v19.523Z"/></svg>