<svg xmlns="http://www.w3.org/2000/svg" width="207" height="58" fill="none"><path fill="#4E8ABE" d="M30.333 5.309c-5.917.095-11.45 1.533-15.57 4.072-4.072 2.49-6.3 5.773-6.3 9.222 0 2.18.91 4.336 2.659 6.252 4.144-4.048 11.282-6.54 19.21-6.66.216 0 .216-.215.216-.215V5.524c0-.024-.024-.215-.215-.215Z"/><path fill="#4E8ABE" d="M8.463 22.388v9.917c0 7.234 9.869 13.15 22.085 13.294v-5.893c0-.575.432-1.03 1.03-1.078h.024c7.019-.095 13.702-1.844 18.828-4.91a25.509 25.509 0 0 0 3.042-2.132v-8.959c0-.072 0-.12-.024-.191-2.802 6.084-12 10.3-22.492 10.3-10.708 0-19.738-4.384-22.493-10.348Z"/><path fill="#50B3CF" d="M31.626 39.49c-.143.025-.24.097-.24.216v12.432c0 .168.144.216.192.216h.024c7.019-.096 13.702-1.844 18.828-4.91 6.228-3.713 9.797-9.247 9.797-15.14v-8.647c-1.461 4.24-4.719 8.025-9.366 10.804-5.246 3.137-12.073 4.91-19.235 5.03Z"/><path fill="#5C6670" d="M78.12 36.377c-6.347 0-11.114-5.03-11.114-11.738v-.072c0-6.61 4.935-11.785 11.21-11.785 3.905 0 6.18 1.485 7.882 2.947.43.383.67.886.67 1.389 0 .934-.79 1.725-1.725 1.725-.359 0-.718-.12-1.077-.384l-.048-.048c-1.773-1.629-3.546-2.347-5.725-2.347-4.36 0-7.665 3.617-7.665 8.408v.072c0 4.742 3.377 8.48 7.665 8.48 2.3 0 4.072-.743 5.916-2.516a1.506 1.506 0 0 1 1.102-.479c.886 0 1.677.79 1.677 1.7 0 .48-.216.959-.575 1.27-2.491 2.372-4.934 3.378-8.192 3.378Zm21.823 0c-6.42 0-11.282-5.03-11.282-11.738v-.072c0-6.61 4.982-11.785 11.33-11.785 6.419 0 11.282 5.03 11.282 11.738v.071c0 6.612-4.982 11.786-11.33 11.786Zm0-20.265c-4.432 0-7.761 3.617-7.761 8.408v.071c0 4.84 3.353 8.48 7.809 8.48 4.431 0 7.761-3.617 7.761-8.408v-.072c0-4.838-3.354-8.48-7.81-8.48Zm31.954 20.049c-.431 0-1.03-.144-1.557-.862l-5.964-7.761h-5.486v6.85c0 .983-.79 1.773-1.772 1.773-.934 0-1.725-.814-1.725-1.772V14.938c0-.958.791-1.773 1.725-1.773h8.168c2.731 0 5.054.839 6.563 2.324 1.174 1.174 1.845 2.85 1.845 4.671v.072c0 3.33-1.964 5.7-5.438 6.635l4.911 6.324c.215.24.503.647.503 1.221 0 .935-.838 1.75-1.773 1.75Zm-13.031-11.857h6.181c3.09 0 5.078-1.557 5.078-3.976v-.072c0-2.396-1.845-3.785-5.055-3.785h-6.204v7.833Zm27.571 11.953h-.119c-.887 0-1.557-.48-1.917-1.365l-8.408-19.38a1.58 1.58 0 0 1-.167-.766c0-.934.814-1.724 1.772-1.724.767 0 1.438.479 1.749 1.245l7.066 16.912 7.091-16.984c.287-.598.886-1.197 1.7-1.197.959 0 1.725.766 1.725 1.7 0 .24-.048.48-.12.695l-8.455 19.523c-.503 1.101-1.318 1.341-1.917 1.341Zm30.134-.24H162.87c-.934 0-1.725-.814-1.725-1.772V14.938c0-.958.791-1.773 1.725-1.773h13.534c.91 0 1.629.743 1.629 1.63a1.63 1.63 0 0 1-1.629 1.628h-11.762v6.396h10.372c.887 0 1.629.742 1.629 1.629a1.63 1.63 0 0 1-1.629 1.629h-10.372v6.587h11.929a1.63 1.63 0 0 1 1.629 1.629c0 .886-.718 1.724-1.629 1.724Zm20.337 0h-12.552c-.934 0-1.724-.814-1.724-1.772v-19.45c0-.959.79-1.773 1.724-1.773.982 0 1.773.79 1.773 1.772v17.918h10.779c.91 0 1.629.742 1.629 1.677a1.63 1.63 0 0 1-1.629 1.628Z"/></svg>