<svg xmlns="http://www.w3.org/2000/svg" width="225" height="53" fill="none"><path fill="#4E8DCB" d="M23.17 4.93 4.398 15.776l9.655 5.548 9.115-5.26V4.932Z"/><path fill="#1F6DAE" d="m32.284 31.808-9.115 5.26.036 11.132L41.94 37.392V26.259l-9.656 5.549ZM23.17 4.93v11.134l9.114 5.26 9.62-5.585L23.169 4.931Z"/><path fill="#4E8DCB" d="M4.435 37.392 23.205 48.2l-.036-11.132-9.115-5.224-9.62 5.548Z"/><path fill="#1F6DAE" d="m4.435 37.392 9.62-5.548v-10.52l-9.656-5.549.036 21.617Z"/><path fill="#888" d="m23.17 16.064 9.114 5.26v10.52l-9.115-5.26v-10.52Z"/><path fill="#595757" d="m23.17 16.064-9.116 5.26v10.52l9.115-5.26v-10.52Z"/><path fill="#231815" d="M68.024 33.213c-1.946 1.91-4.468 2.81-7.134 2.81-6.881 0-9.98-4.756-10.015-9.728-.036-4.972 3.242-9.943 10.015-9.943 2.558 0 5.008.936 6.954 2.882l-2.018 1.945c-1.369-1.333-3.134-1.945-4.9-1.945-4.827 0-7.025 3.567-6.989 7.061.036 3.459 2.09 6.918 6.99 6.918 1.765 0 3.71-.72 5.043-2.054l2.054 2.054Zm11.132-8.143 5.405-8.394h3.674v.144L80.67 27.88v7.783h-3.027V27.88L70.33 16.82v-.145h3.602l5.224 8.394Z"/><path fill="#231815" fill-rule="evenodd" d="M107.366 22.08c0-3.747-2.846-5.404-6.449-5.404h-8.719v18.987h8.719c3.747 0 7.062-1.297 7.062-5.44 0-1.442-.973-3.675-3.243-4.36 1.802-.757 2.63-2.198 2.63-3.783Zm-6.413 2.45h-5.728v-5.116h5.692c2.306 0 3.459 1.405 3.459 2.738 0 1.477-1.153 2.378-3.423 2.378Zm-.036 8.286h-5.728v-5.584h5.728c1.766 0 3.999.937 3.999 2.954 0 2.09-2.306 2.63-3.999 2.63Z" clip-rule="evenodd"/><path fill="#231815" d="M127.001 35.663h-14.014V16.676h13.942v2.954h-10.88v5.116h10.448v2.846h-10.448v5.08h10.952v2.99Z"/><path fill="#231815" fill-rule="evenodd" d="M145.087 35.663h3.567l-.324-.54-5.657-6.306c3.747-.54 5.152-3.206 5.152-5.908 0-3.207-2.306-6.197-6.701-6.197-1.477 0-2.945-.009-4.413-.018-1.469-.009-2.937-.018-4.414-.018v18.987h3.027v-6.557h3.999l5.764 6.557Zm-9.763-9.332v-6.88h5.8c2.486 0 3.603 1.8 3.603 3.494 0 1.801-1.117 3.386-3.639 3.386h-5.764Z" clip-rule="evenodd"/><path fill="#1F6DAE" fill-rule="evenodd" d="M218.944 16.496h.216c.108 0 .144-.072.072-.108-.288-.54-.576-.901-.684-.973.468-.036.648-.324.648-.685 0-.36-.288-.684-.829-.684h-.612c-.036 0-.108.036-.108.108v2.234c0 .036.036.108.108.108h.144c.072 0 .108-.036.108-.108v-.937h.072c.072 0 .108.036.144.072.134.134.236.298.394.55l.039.063c.072.143.108.216.18.324.036.036.072.036.108.036Zm-.937-2.162h.252c.361 0 .541.108.541.396 0 .289-.108.397-.541.397h-.252v-.793Z" clip-rule="evenodd"/><path fill="#1F6DAE" fill-rule="evenodd" d="M216.134 15.27c0 1.298 1.008 2.235 2.233 2.235 1.189 0 2.198-.973 2.234-2.234a2.222 2.222 0 0 0-2.234-2.234 2.221 2.221 0 0 0-2.233 2.234Zm.396.037c0-1.08.829-1.91 1.837-1.91 1.009 0 1.838.793 1.838 1.91 0 1.08-.829 1.91-1.838 1.91-1.044 0-1.837-.83-1.837-1.91Zm-59.193 17.221h8.466l1.225 3.135h5.764l-8.502-18.987h-5.404l-8.503 18.987h5.693l1.261-3.135Zm1.801-4.467 2.45-6.053 2.414 6.053h-4.864Zm28.174 7.602h5.944v-.325l-4.936-6.413c3.171-1.405 3.999-3.386 3.999-5.728 0-3.387-2.521-6.521-7.385-6.521h-9.259v18.987h5.368v-6.161h1.873l4.396 6.16Zm-6.269-10.16v-4.54h3.891c1.405 0 2.089 1.153 2.089 2.342 0 1.153-.612 2.198-2.017 2.198h-3.963Z" clip-rule="evenodd"/><path fill="#1F6DAE" d="m213.792 17-7.71 8.971a531.918 531.918 0 0 1 8.358 9.367v.325h-6.629l-5.44-6.305v6.305h-5.368V16.676h5.368v6.233c1.621-2.018 3.387-4.215 4.972-6.233h6.413V17h.036Z"/></svg>