<svg xmlns="http://www.w3.org/2000/svg" width="171" height="70" fill="none"><path fill="#262A38" d="m166.518 54.723-.323.909h-.12l-.323-.907v.907h-.208v-1.24h.258l.332.921.333-.92h.258v1.239h-.207v-.91Zm-1.156-.143h-.339v1.052h-.21V54.58h-.342v-.187h.891v.187Zm-57.065-40.756V55.29h-8.403v-4.229c-.879 1.483-2.142 2.691-3.68 3.46a12.114 12.114 0 0 1-5.382 1.263 11.118 11.118 0 0 1-6.536-1.922 12.701 12.701 0 0 1-4.504-5.273 18.218 18.218 0 0 1-1.592-7.798 17.812 17.812 0 0 1 1.592-7.744c.99-2.087 2.527-3.9 4.45-5.163 1.976-1.263 4.283-1.867 6.59-1.813 1.813 0 3.625.385 5.218 1.209a9.038 9.038 0 0 1 3.68 3.35V16.625l8.567-2.801ZM98.192 47.107c1.098-1.428 1.702-3.515 1.702-6.207 0-2.69-.549-4.723-1.702-6.15-1.154-1.429-2.967-2.253-4.833-2.198-1.868-.11-3.68.714-4.889 2.142-1.153 1.428-1.757 3.46-1.757 6.096 0 2.692.604 4.779 1.757 6.262 1.154 1.483 3.021 2.306 4.889 2.252 2.086 0 3.734-.77 4.833-2.197Zm40.148-19.278a11.908 11.908 0 0 1 4.449 5.163 17.81 17.81 0 0 1 1.592 7.744 18.05 18.05 0 0 1-1.592 7.799 12.702 12.702 0 0 1-4.504 5.272 11.473 11.473 0 0 1-6.536 1.867 10.8 10.8 0 0 1-5.382-1.263 8.482 8.482 0 0 1-3.625-3.46v4.284h-8.458v-38.61l8.513-2.801V30.74a8.48 8.48 0 0 1 3.624-3.46 10.605 10.605 0 0 1 5.328-1.264c2.307-.054 4.614.605 6.591 1.813Zm-4.174 19.223c1.153-1.483 1.702-3.57 1.702-6.316 0-2.637-.549-4.669-1.702-6.097-1.154-1.428-2.747-2.142-4.834-2.142-1.866-.11-3.679.714-4.887 2.197-1.154 1.483-1.703 3.515-1.703 6.151 0 2.692.549 4.779 1.703 6.207a5.744 5.744 0 0 0 4.887 2.197 5.712 5.712 0 0 0 4.834-2.197Zm21.969-13.95v11.094c0 1.593.439 2.746 1.208 3.46.879.769 2.032 1.153 3.241 1.098.933 0 1.922-.164 2.801-.384v6.59c-1.593.55-3.241.824-4.889.77-3.514 0-6.206-.99-8.073-2.966-1.867-1.978-2.801-4.779-2.801-8.404V20.03l8.513-2.746v9.447h7.25v6.37h-7.25Z"/><path fill="#FF694A" d="M62.438 6.958c1.427 1.374 2.361 3.186 2.58 5.163 0 .824-.219 1.373-.713 2.417-.494 1.043-6.59 11.588-8.403 14.5-1.044 1.702-1.593 3.734-1.593 5.711 0 2.032.55 4.01 1.593 5.712 1.812 2.91 7.909 13.51 8.403 14.554.494 1.044.714 1.538.714 2.362-.22 1.977-1.099 3.79-2.527 5.108-1.373 1.428-3.185 2.361-5.107 2.526-.824 0-1.373-.22-2.362-.714-.989-.494-11.753-6.426-14.664-8.238-.22-.11-.44-.275-.714-.385l-14.39-8.513c.33 2.747 1.538 5.383 3.515 7.305.385.385.77.714 1.209 1.044-.33.164-.714.33-1.044.549-2.91 1.812-13.51 7.909-14.554 8.403-1.044.494-1.538.714-2.417.714-1.977-.22-3.79-1.099-5.108-2.526-1.428-1.373-2.361-3.186-2.581-5.163.055-.824.275-1.648.714-2.362.494-1.043 6.59-11.643 8.403-14.554a10.922 10.922 0 0 0 1.593-5.712c0-2.032-.55-4.01-1.593-5.712-1.812-3.02-7.964-13.62-8.403-14.664-.44-.714-.659-1.538-.714-2.362a8.405 8.405 0 0 1 2.526-5.163 8.405 8.405 0 0 1 5.163-2.526 5.579 5.579 0 0 1 2.417.714c.878.385 8.622 4.888 12.742 7.305l.933.549c.33.22.604.384.824.494l.44.275 14.664 8.678c-.33-3.296-2.032-6.316-4.669-8.349.33-.164.714-.33 1.044-.549 2.91-1.812 13.51-7.964 14.554-8.403.714-.44 1.538-.659 2.417-.714a8.408 8.408 0 0 1 5.108 2.526ZM35.416 38.703l3.13-3.13c.44-.44.44-1.099 0-1.538l-3.13-3.13a1.062 1.062 0 0 0-1.538 0l-3.13 3.13c-.44.44-.44 1.099 0 1.538l3.13 3.13c.385.385 1.099.385 1.538 0Z"/></svg>