<svg xmlns="http://www.w3.org/2000/svg" width="228" height="60" fill="none"><path fill="#F7941E" d="M138.646 4.957h-4.581v5.8h4.581v-5.8Z"/><path fill="#2C2255" d="M157.752 15.358c3.387 0 6.138 1.345 8.253 4.034 2.117 2.69 3.174 6.225 3.174 10.606 0 4.383-1.057 7.918-3.174 10.606-2.115 2.688-4.866 4.034-8.253 4.034-2.041 0-3.796-.403-5.265-1.208-1.469-.804-2.686-2.037-3.648-3.697v14.789h-4.606V16.03h4.606v4.232c.963-1.659 2.179-2.892 3.648-3.697 1.469-.804 3.224-1.207 5.265-1.207Zm-74.109.002c3.752 0 6.718 1.208 8.9 3.623 2.184 2.413 3.275 5.696 3.275 9.845v2.24H74.755c.199 3.155 1.15 5.557 2.85 7.208 1.703 1.652 4.072 2.477 7.109 2.477 1.759 0 3.464-.215 5.117-.646 1.651-.431 3.29-1.08 4.917-1.943v4.333a27.51 27.51 0 0 1-5.055 1.594 25.337 25.337 0 0 1-5.253.548c-4.448 0-7.97-1.295-10.568-3.885-2.598-2.589-3.897-6.09-3.897-10.505 0-4.564 1.233-8.187 3.697-10.867 2.465-2.68 5.79-4.022 9.971-4.022Zm123.725 0c3.751 0 6.718 1.208 8.9 3.623 2.182 2.413 3.274 5.696 3.274 9.845v2.24h-21.063c.199 3.155 1.149 5.557 2.851 7.208 1.701 1.652 4.071 2.477 7.107 2.477a20.18 20.18 0 0 0 5.117-.646c1.652-.431 3.29-1.08 4.918-1.943v4.333a27.54 27.54 0 0 1-5.055 1.594 25.331 25.331 0 0 1-5.252.548c-4.449 0-7.972-1.295-10.568-3.885-2.599-2.589-3.898-6.09-3.898-10.505 0-4.564 1.233-8.187 3.697-10.867 2.465-2.681 5.79-4.022 9.972-4.022Zm-95.83-.002c1.411 0 2.788.147 4.133.437a18.77 18.77 0 0 1 3.909 1.307v4.282a17.856 17.856 0 0 0-3.896-1.606 14.872 14.872 0 0 0-3.947-.535c-2.971 0-5.278.942-6.92 2.826-1.644 1.883-2.465 4.527-2.465 7.929s.821 6.046 2.465 7.93c1.642 1.884 3.949 2.825 6.92 2.825a14.92 14.92 0 0 0 3.947-.534 17.84 17.84 0 0 0 3.896-1.606v4.232a18.8 18.8 0 0 1-3.971 1.344c-1.37.3-2.825.448-4.37.448-4.199 0-7.535-1.32-10.008-3.958-2.473-2.639-3.71-6.2-3.71-10.681 0-4.547 1.249-8.125 3.747-10.73 2.498-2.606 5.922-3.91 10.27-3.91Zm70.274 0c1.693 0 3.286.124 4.78.373 1.495.25 2.872.624 4.134 1.122v4.332a17.928 17.928 0 0 0-4.034-1.494 18.657 18.657 0 0 0-4.332-.498c-2.274 0-3.979.348-5.117 1.046-1.137.697-1.704 1.743-1.704 3.137 0 1.061.405 1.896 1.219 2.502.813.606 2.448 1.182 4.905 1.73l1.568.349c3.253.697 5.565 1.68 6.934 2.95 1.37 1.27 2.055 3.042 2.055 5.315 0 2.59-1.026 4.639-3.076 6.15-2.05 1.51-4.867 2.265-8.452 2.265a26.52 26.52 0 0 1-4.669-.435 39.026 39.026 0 0 1-5.117-1.307v-4.731c1.694.88 3.362 1.54 5.005 1.98 1.643.44 3.27.659 4.88.659 2.158 0 3.816-.368 4.979-1.107 1.162-.74 1.742-1.78 1.742-3.125 0-1.245-.418-2.199-1.256-2.864-.839-.663-2.677-1.303-5.516-1.917l-1.592-.373c-2.838-.598-4.889-1.515-6.15-2.75-1.261-1.237-1.892-2.934-1.892-5.093 0-2.622.93-4.647 2.789-6.074 1.859-1.428 4.498-2.142 7.917-2.142ZM128.305 5.176v38.74h-4.582V5.175h4.582Zm10.341 10.854v27.885h-4.581V16.031h4.581Zm17.985 3.163c-2.424 0-4.329.958-5.714 2.875-1.386 1.918-2.079 4.56-2.079 7.93s.693 6.014 2.079 7.93c1.385 1.918 3.29 2.875 5.714 2.875 2.424 0 4.328-.958 5.714-2.875 1.386-1.916 2.08-4.56 2.08-7.93s-.694-6.013-2.08-7.93c-1.386-1.917-3.29-2.875-5.714-2.875Zm-72.938.05c-2.556 0-4.602.722-6.137 2.166-1.535 1.444-2.419 3.478-2.651 6.1l16.332-.025c-.033-2.506-.735-4.507-2.103-6-1.37-1.494-3.183-2.24-5.44-2.24Zm123.724 0c-2.556 0-4.602.722-6.137 2.166-1.535 1.444-2.42 3.478-2.651 6.1l16.332-.025c-.034-2.506-.735-4.507-2.105-6-1.369-1.494-3.183-2.24-5.439-2.24ZM56.667 36.077c-1.004 3.417-2.865 6.48-5.588 9.185-3.428 3.451-7.428 5.517-11.997 6.206a23.629 23.629 0 0 1-3.528.263c-6.066 0-11.253-2.154-15.567-6.469-2.705-2.706-4.554-5.768-5.55-9.185h42.23Zm.848-5.108a22.783 22.783 0 0 1-.23 2.278l-.059.37H13.882a22.9 22.9 0 0 1-.264-2.262l-.022-.386h43.919Zm-.29-5.108c.125.74.214 1.493.266 2.262l.022.386H13.596c.038-.774.115-1.533.227-2.277l.06-.371h43.342Zm-.557-2.461c-1.003-3.425-2.865-6.502-5.59-9.227-3.418-3.418-7.407-5.47-11.96-6.16a23.71 23.71 0 0 0-3.564-.266c-6.066 0-11.253 2.143-15.567 6.426-2.706 2.725-4.555 5.801-5.551 9.228"/><path fill="#F7941E" d="M12.29 29.74c0-11.602 8.713-21.241 20.048-22.937-.281-.01-.564-.021-.848-.021-12.72 0-23.032 10.279-23.032 22.958 0 12.68 10.312 22.958 23.032 22.958.285 0 .568-.011.85-.021C21.003 50.98 12.29 41.342 12.29 29.74Z"/><path fill="url(#a)" d="M50.5 28.509a14.957 14.957 0 0 0-.455-2.649h-28.98c-.23.855-.382 1.74-.456 2.649h29.89Z"/><path fill="url(#b)" d="M50.5 30.969H20.61c.073.908.225 1.793.454 2.649h28.981c.229-.856.381-1.741.455-2.649Z"/><path fill="url(#c)" d="M35.555 44.74c6.018 0 11.206-3.547 13.595-8.663H21.96c2.39 5.117 7.577 8.662 13.596 8.662Z"/><path fill="#fff" d="M57.22 33.617a21.773 21.773 0 0 1-.581 2.46H14.437c-.24-.801-.408-1.623-.555-2.46H57.22Zm.256-5.108c.024.424.04.849.04 1.278 0 .397-.012.79-.033 1.182H13.588c-.02-.391-.032-.785-.032-1.182 0-.429.016-.855.04-1.278h43.88Zm-.98-5.108c.243.801.438 1.623.59 2.46H13.882c.151-.838.31-1.66.553-2.46h42.06Z"/><defs><linearGradient id="a" x1="35.554" x2="35.554" y1="54.716" y2="21.635" gradientUnits="userSpaceOnUse"><stop offset=".303" stop-color="#473788"/><stop offset=".872" stop-color="#2C2255"/></linearGradient><linearGradient id="b" x1="35.554" x2="35.554" y1="54.716" y2="21.636" gradientUnits="userSpaceOnUse"><stop offset=".303" stop-color="#473788"/><stop offset=".872" stop-color="#2C2255"/></linearGradient><linearGradient id="c" x1="35.554" x2="35.554" y1="54.715" y2="21.637" gradientUnits="userSpaceOnUse"><stop offset=".303" stop-color="#473788"/><stop offset=".863" stop-color="#2C2255"/></linearGradient></defs></svg>