<svg xmlns="http://www.w3.org/2000/svg" width="293" height="47" fill="none"><path fill="#FF6C00" d="M260.932 8.662V22.94h3.75c5.384 0 7.883-2.884 7.883-7.162 0-3.461-1.682-7.115-8.797-7.115h-2.836Zm14.902 32.784a222.523 222.523 0 0 1-11.008-15.863h-3.846v13.172l5.817.576v2.308c-2.692-.096-4.567-.193-6.874-.193h-4.134c-2.308 0-4.567.097-7.211.193V39.33l6.201-.577V8.614l-6.249-.48V5.73c3.365.144 5.768.24 7.691.24h8.653c7.595 0 14.181 2.644 14.181 9.518 0 4.807-3.557 7.547-8.028 8.893A91.793 91.793 0 0 0 282.131 38.9l3.798.384v2.356l-10.095-.193ZM190.172 8.662l-6.057-.528V5.778l7.067.192h4.134l7.307-.192v2.307l-6.25.577v30.14l6.25.481v2.356c-2.692-.096-5-.193-7.307-.193h-4.134c-2.26 0-4.567.097-7.211.193v-2.356l6.201-.48V8.663Zm-14.469 0-11.585 33.169h-4.663L147.918 8.662l-4.374-.528V5.778l7.835.192 8.893-.192v2.307l-5.72.577 8.797 26.44 8.653-26.44-5.673-.528V5.778l7.307.192 6.153-.192v2.307l-4.086.577ZM13.369 38.755V8.614l-6.25-.481V5.73c3.365.144 5.769.24 7.259.24h17.738l.48-2.019h2.5v10.143h-2.5l-.96-5.48H19.521v13.652h8.94l.674-4.038h2.355v10.624h-2.355l-.673-3.99h-8.941V35.63c0 2.403.144 2.692.288 2.836.144.144.625.288 4.567.288h3.557c2.884 0 4.278-.192 4.903-.817.673-.673 1.442-2.5 2.404-6.49h2.403l-.961 10H16.637c-3.365 0-6.97.096-9.566.192v-2.356l6.25-.48.047-.048Zm89.219-6.346c0 6.105-5 9.71-11.537 9.71-3.365 0-6.586-1.057-8.845-2.5l-.625 2.789h-2.404V30.486h2.404c.24 1.635.625 3.75.961 5.24 2.067 2.163 5.384 3.702 8.268 3.702 3.846 0 6.01-2.212 6.01-5.673 0-8.076-16.874-8.172-16.874-19.228 0-5.865 4.807-9.23 10.96-9.23 2.404 0 4.807.481 6.634 1.25l.721-2.692h2.356v10.432h-2.404a40.817 40.817 0 0 0-.961-4.615 10.24 10.24 0 0 0-5.624-1.683c-3.462 0-6.01 1.587-6.01 5.144 0 7.883 16.97 7.931 16.97 19.228v.048Zm-51.34 6.346V8.614L45 8.133V5.73c3.365.144 5.768.24 7.307.24h4.086l7.306-.192v2.307l-6.249.53v27.303c0 1.683 0 2.308.337 2.596.144.192 2.019.24 4.23.24h1.827c3.269 0 4.326-.336 4.807-.817.673-.72 1.586-2.595 2.644-7.835h2.403l-.72 11.344h-18.75c-3.606 0-6.538.097-9.23.193V39.33l6.25-.577Zm65.088 0V8.614l-6.249-.481V5.73c3.365.144 5.768.24 7.691.24h17.305l.481-2.019h2.5v10.143h-2.452l-.961-5.48h-12.114v13.652h8.893l.721-4.038h2.307v10.624h-2.307l-.721-3.942h-8.893v10.72c0 2.403.096 2.692.24 2.836.193.144.625.288 4.567.288h4.278c2.884 0 4.279-.192 4.855-.817.721-.673 1.491-2.5 2.404-6.49h2.452l-1.01 10h-20.67c-3.317 0-6.923.096-9.518.192v-2.356l6.201-.48v-.048Zm100.515 0V8.614l-6.249-.481V5.73c3.365.144 5.769.24 7.692.24h17.305l.529-2.019h2.451v10.143h-2.403l-.962-5.48h-12.161v13.652h8.941l.673-4.038h2.355v10.624h-2.355l-.673-3.942h-8.941v10.72c0 2.403.144 2.692.288 2.836.144.144.625.288 4.567.288h3.653c2.884 0 4.182-.192 4.807-.817.673-.673 1.442-2.5 2.404-6.49h2.403l-.961 10h-19.998c-3.365 0-6.97.096-9.614.192v-2.356l6.249-.48v-.048Z"/></svg>