<svg xmlns="http://www.w3.org/2000/svg" width="260" height="52" fill="none"><path fill="#F05537" d="M20.577 19.08c7.937-1.813 15.875 3.063 17.688 10.84.18.823.295 1.679.347 2.538l.016.322-4.513 1.008-2.337.524-14.465 3.263c1.813 2.58 5.117 3.909 8.38 3.183a7.971 7.971 0 0 0 4.732-3.114l.104-.15 6.85 1.612a14.714 14.714 0 0 1-10.154 8.18c-7.938 1.813-15.835-3.022-17.689-10.839-1.853-7.817 3.103-15.553 11.04-17.366Zm212.224.041c7.938-1.813 15.876 3.062 17.689 10.839.179.824.294 1.68.346 2.538l.017.323-4.513 1.007-2.337.524-14.466 3.264c1.814 2.578 5.118 3.908 8.381 3.183a7.969 7.969 0 0 0 4.731-3.115l.105-.149 6.849 1.571a14.711 14.711 0 0 1-10.153 8.18c-7.938 1.813-15.876-3.062-17.689-10.839-1.854-7.777 3.102-15.513 11.04-17.326Zm-156.78 0c7.937-1.813 15.834 3.062 17.688 10.839.179.824.294 1.68.346 2.538l.016.323-4.512 1.007-2.337.524-14.466 3.264a8.076 8.076 0 0 0 8.381 3.183 7.966 7.966 0 0 0 4.836-3.264l4.842 1.093c1.129.258 2.007.464 2.007.478a14.714 14.714 0 0 1-10.154 8.18c-7.937 1.813-15.875-3.062-17.688-10.839-1.854-7.777 3.102-15.513 11.04-17.326Zm75.186-14.788v16.924c2.257-1.814 4.916-2.58 7.858-2.58 8.3 0 14.948 6.407 14.948 14.426 0 7.978-6.648 14.505-14.948 14.505-2.902 0-5.601-.765-7.858-2.578v1.813h-7.293V5.985l7.293-1.652Zm32.356 14.828v2.458c2.209-1.578 4.341-2.152 7.947-2.364l.232-.013v7.091c-7.06.24-8.158 2.612-8.179 6.803v13.707h-7.293V19.16h7.293ZM135.936 7.8v11.36h5.682v6.89h-5.682v20.792h-7.575V26.05h-4.472v-6.89h4.472V9.49l7.575-1.692Zm-25.143 10.838c6.165 0 11.524 3.546 11.524 12.21v15.955h-7.333V32.055c0-5.246-2.781-6.476-5.619-6.526l-.184-.001-.183.001c-2.838.046-5.619 1.198-5.619 6.405v14.909h-7.293V19.16h7.293v2.055l.541-.389c1.516-1.07 3.427-2.19 6.873-2.19Zm-66.443.524 7.172 18.777 7.253-18.777h7.937L55.35 46.843h-7.575L36.412 19.16h7.938Zm157.224 0v27.682h-7.293V19.16h7.293Zm14.707-9.67v9.67h5.681v7.011h-5.681v20.63h-7.575v-20.59h-4.473v-7.05h4.473V9.49h7.575Zm-57.257 15.835c-4.311 0-7.817 3.425-7.978 7.414v.685c.202 4.03 3.707 7.414 7.978 7.414 4.352 0 7.938-3.546 7.938-7.776 0-4.15-3.586-7.737-7.938-7.737Zm69.224 6.608 14.425-3.264c-1.894-2.619-5.198-3.868-8.341-3.142-3.211.713-5.486 3.26-6.057 6.258l-.027.148 14.425-3.264-14.425 3.264Zm-156.781 0 14.425-3.264c-1.813-2.538-5.077-3.868-8.34-3.142-3.213.713-5.527 3.261-6.06 6.26l-.025.146 14.425-3.264-14.425 3.264Zm-55.444 0 14.425-3.264c-1.813-2.538-5.076-3.868-8.34-3.142-3.212.713-5.527 3.222-6.06 6.259l-.024.147 14.424-3.264-14.425 3.264ZM197.947 4.978c2.62 0 4.554 1.934 4.554 4.473 0 2.578-1.975 4.553-4.554 4.553-2.619 0-4.633-1.975-4.633-4.553 0-2.58 2.014-4.473 4.633-4.473Z"/></svg>