<svg xmlns="http://www.w3.org/2000/svg" width="329" height="42" fill="none"><path fill="#61778C" d="M79.856 20.846c0-10.244 6.75-17.419 16.38-17.419h.708c6.042 0 10.716 3.068 13.194 7.505.165.284.118.52-.165.662l-4.154 2.053c-.284.141-.638.141-.827-.213-1.746-3.02-4.366-4.626-8.237-4.626h-.708c-6.066 0-10.244 4.815-10.244 11.802 0 7.01 4.107 11.707 10.244 11.707h.708c3.966 0 6.278-1.346 8.049-3.4.236-.259.495-.306.779-.164l4.272 2.077c.165.094.235.212.235.33 0 .118-.047.213-.141.354-2.62 3.824-7.34 6.184-13.1 6.184h-.708c-9.794 0-16.285-6.727-16.285-16.852ZM33.36 8.856V4.513c0-.283-.188-.472-.472-.472H9.097c-.283 0-.472.189-.472.472v32.1c0 .283.189.471.472.471h4.673c.284 0 .472-.188.472-.472V23.49h15.39c.283 0 .471-.189.471-.472v-4.343c0-.283-.188-.472-.472-.472H14.242V9.328h18.646c.284 0 .473-.19.473-.472Z"/><path fill="#61778C" fill-rule="evenodd" d="M66.262 37.084h5.145c.33 0 .52-.188.425-.52-2.998-10.526-7.458-22.162-12.085-31.91-.212-.448-.472-.613-.92-.613h-6.703c-.449 0-.708.165-.92.613-4.58 9.772-9.111 21.384-12.085 31.91-.095.332.094.52.425.52H44.5c.283 0 .472-.142.543-.425.66-2.714 1.487-5.57 2.43-8.45h15.791c.945 2.88 1.77 5.736 2.455 8.45.07.283.26.425.543.425ZM55.924 9.234c1.959 4.342 3.87 9.11 5.593 13.877h-12.32a197.686 197.686 0 0 1 5.617-13.878h1.11Z" clip-rule="evenodd"/><path fill="#61778C" d="M147.736 36.612V32.27c0-.283-.189-.472-.473-.472h-19.637V23.16h15.625c.283 0 .472-.19.472-.472V18.39c0-.283-.189-.472-.472-.472h-15.625v-8.59h19.213c.283 0 .472-.19.472-.472V4.513c0-.283-.189-.472-.472-.472h-24.358c-.283 0-.472.189-.472.472v32.1c0 .283.189.471.472.471h24.782c.284 0 .473-.188.473-.472Z"/><path fill="#61778C" fill-rule="evenodd" d="M190.408 28.02c0 5.783-4.437 9.064-12.274 9.064h-16.238c-.283 0-.472-.188-.472-.472v-32.1c0-.282.189-.471.472-.471h14.799c7.623 0 11.777 3.02 11.777 8.544 0 3.634-1.84 6.018-5.57 7.128 5.24 1.109 7.506 4.248 7.506 8.308Zm-5.759-.495c0-3.068-2.03-4.46-6.491-4.46h-11.117v8.874h11.117c4.532 0 6.491-1.322 6.491-4.414Zm-8.072-18.339h-9.536v8.875h9.536c4.272 0 6.231-1.393 6.231-4.438s-1.959-4.437-6.231-4.437Zm40.712-5.759c-10.384 0-16.993 7.175-16.993 17.136 0 9.96 6.609 17.135 16.993 17.135h.71c10.383 0 16.992-7.175 16.992-17.135 0-9.961-6.609-17.136-16.992-17.136h-.71Zm11.756 17.136c0 7.104-4.274 11.754-11.046 11.754h-.71c-6.773 0-11.045-4.65-11.045-11.754 0-7.105 4.272-11.755 11.045-11.755h.71c6.772 0 11.046 4.65 11.046 11.755Zm15.528 0c0-9.961 6.609-17.136 16.995-17.136h.707c10.386 0 16.995 7.175 16.995 17.136 0 9.96-6.609 17.135-16.995 17.135h-.707c-10.386 0-16.995-7.175-16.995-17.135Zm17.702 11.754c6.775 0 11.046-4.65 11.046-11.754 0-7.105-4.271-11.755-11.046-11.755h-.707c-6.775 0-11.046 4.65-11.046 11.755 0 7.104 4.271 11.754 11.046 11.754h.707Z" clip-rule="evenodd"/><path fill="#61778C" d="M313.893 37.084h6.089c.379 0 .52-.283.26-.59a142.192 142.192 0 0 0-16.45-16.427c4.648-3.965 9.677-9.087 14.751-15.342.117-.142.166-.26.166-.354 0-.189-.143-.33-.426-.33h-5.76c-.283 0-.472.047-.706.354-3.471 4.508-7.719 8.992-12.322 13.146h-2.785V4.513c0-.283-.19-.472-.473-.472h-4.673c-.284 0-.471.189-.471.472v32.1c0 .283.187.471.471.471h4.673c.283 0 .473-.188.473-.472V22.97h2.738c4.297 3.682 9.347 8.686 13.618 13.713.26.307.426.401.827.401Z"/></svg>