<svg xmlns="http://www.w3.org/2000/svg" width="184" height="74" fill="none"><path fill="#000" d="M4.6 54.383V5.439h26.074v6.142H10.888v13.353h15.198v6.167H10.912v23.306L4.6 54.383Zm40.306-40.199a4.127 4.127 0 1 1-5.836-5.837 4.127 4.127 0 0 1 5.836 5.837Zm-6.099 40.223V21.535h6.313v32.872h-6.313Z"/><path fill="#000" fill-rule="evenodd" d="M54.272 36.053c0-8.4 5.827-15.465 14.179-15.465v.024c3.836 0 6.992 1.457 9.298 3.885v-2.938h6.312v30.42a16.144 16.144 0 0 1-24.909 13.596l3.156-5.462c1.578 1.116 3.57 1.893 5.584 1.893a9.88 9.88 0 0 0 9.857-10.002v-4.37c-2.306 2.428-5.462 3.884-9.298 3.884-8.352 0-14.179-7.065-14.179-15.465Zm14.883-9.322c-4.613 0-8.595 4.102-8.595 9.322 0 5.22 3.982 9.299 8.595 9.299 4.588 0 8.57-4.079 8.57-9.299 0-5.195-3.957-9.322-8.57-9.322Z" clip-rule="evenodd"/><path fill="#000" d="M106.737 26.73a6.872 6.872 0 0 0-6.75 6.896v20.781h-6.312V21.535h6.313v3.01a9.956 9.956 0 0 1 8.108-3.957c4.419 0 7.818 2.185 9.76 5.536a12.1 12.1 0 0 1 10.027-5.536c7.162 0 11.653 5.778 11.653 12.94v20.88h-6.264V33.6a6.869 6.869 0 0 0-6.749-6.895 6.87 6.87 0 0 0-6.749 6.895v20.782h-6.312V33.601a6.869 6.869 0 0 0-6.725-6.895v.025Z"/><path fill="#000" fill-rule="evenodd" d="M168.048 21.787a15.225 15.225 0 0 1 5.04 3.462v-3.714h6.312v32.872h-6.288V50.67a15.296 15.296 0 0 1-11.095 4.685c-9.371 0-16.023-7.914-16.023-17.383 0-9.468 6.652-17.383 16.023-17.383a15.225 15.225 0 0 1 6.031 1.2Zm5.04 3.462.024.025h-.024v-.025Zm-10.391 1.482c-5.608 0-10.415 4.977-10.415 11.24 0 6.264 4.831 11.217 10.415 11.217 5.608 0 10.415-4.953 10.415-11.217 0-6.263-4.831-11.24-10.415-11.24Z" clip-rule="evenodd"/></svg>