<svg xmlns="http://www.w3.org/2000/svg" width="116" height="116" fill="none"><g opacity=".3"><path fill="#fff" d="M58 113.095c30.43 0 55.097-24.668 55.097-55.098S88.429 2.9 58 2.9C27.57 2.9 2.903 27.568 2.903 57.997c0 30.43 24.668 55.098 55.097 55.098Z" opacity=".3"/><path stroke="#0E0D0D" d="M58 112.497c30.1 0 54.5-24.4 54.5-54.5 0-30.099-24.4-54.5-54.5-54.5S3.5 27.899 3.5 57.998c0 30.1 24.4 54.5 54.5 54.5Z" opacity=".3"/></g><path fill="#6E7BF2" d="M58 113.1a54.85 54.85 0 0 1-28.984-8.229L65.926 3.466A54.722 54.722 0 0 1 84.55 9.704a55.026 55.026 0 0 1 28.546 48.293c0 3.73-.373 7.45-1.12 11.106a54.757 54.757 0 0 1-8.289 19.704 55.242 55.242 0 0 1-24.24 19.959 54.894 54.894 0 0 1-10.342 3.213A55.464 55.464 0 0 1 58 113.1Z"/><path fill="#4285F4" d="M39.31 57.757c.016-.928-.08-1.852-.282-2.754h-12.68v5.012h7.444a6.604 6.604 0 0 1-2.754 4.381l-.026.166 4.008 3.106.277.026a13.207 13.207 0 0 0 4.024-9.931"/><path fill="#34A853" d="M26.347 70.966c3.288.09 6.49-1.078 8.945-3.272l-4.264-3.303a7.98 7.98 0 0 1-4.68 1.35 8.134 8.134 0 0 1-7.686-5.614l-.16.01-4.168 3.23-.053.149a13.496 13.496 0 0 0 12.066 7.45"/><path fill="#FBBC05" d="M18.662 60.127a8.26 8.26 0 0 1-.448-2.669 8.69 8.69 0 0 1 .438-2.668l-.006-.176-4.221-3.282-.139.064a13.474 13.474 0 0 0 0 12.125l4.376-3.394Z"/><path fill="#EB4335" d="M26.347 49.175a7.473 7.473 0 0 1 5.225 2.013l3.81-3.72a12.962 12.962 0 0 0-9.035-3.512 13.49 13.49 0 0 0-12.066 7.445l4.365 3.394a8.172 8.172 0 0 1 7.701-5.62"/><path fill="#fff" d="M60.567 58.958v9.814H57.43V44.527h8.32a7.547 7.547 0 0 1 5.39 2.097 6.978 6.978 0 0 1 0 10.263 7.536 7.536 0 0 1-5.39 2.066h-5.182v.005Zm0-11.442v8.464h5.262a4.15 4.15 0 0 0 3.1-1.254 4.108 4.108 0 0 0 .113-5.812l-.032-.032c-.027-.027-.053-.059-.08-.08a4.122 4.122 0 0 0-3.1-1.286h-5.263Zm20.05 4.13a7.824 7.824 0 0 1 5.492 1.842 6.53 6.53 0 0 1 2.012 5.059v10.225h-2.994v-2.305h-.133a6.01 6.01 0 0 1-5.188 2.844 6.765 6.765 0 0 1-4.616-1.627 5.18 5.18 0 0 1-1.857-4.062 4.915 4.915 0 0 1 1.958-4.093 8.28 8.28 0 0 1 5.23-1.526 9.35 9.35 0 0 1 4.6 1.014v-.72a3.524 3.524 0 0 0-1.296-2.755 4.486 4.486 0 0 0-3.031-1.136 4.82 4.82 0 0 0-4.158 2.198l-2.754-1.729a7.682 7.682 0 0 1 6.74-3.245l-.004.017Zm-4.06 12.051a2.492 2.492 0 0 0 1.04 2.039 3.84 3.84 0 0 0 2.439.81 5.02 5.02 0 0 0 3.533-1.456 4.539 4.539 0 0 0 1.558-3.421 6.47 6.47 0 0 0-4.093-1.163 5.287 5.287 0 0 0-3.186.917 2.725 2.725 0 0 0-1.292 2.274Zm28.786-11.512L94.873 76.09h-3.235l3.885-8.363-6.89-15.54h3.41l4.98 11.917h.07l4.84-11.917h3.41Z"/></svg>