<svg xmlns="http://www.w3.org/2000/svg" width="184" height="74" fill="none"><path fill="#FF302F" d="m174.258 43.159 4.865 3.243c-1.579 2.326-5.356 6.316-11.886 6.316-8.108 0-14.147-6.273-14.147-14.253 0-8.493 6.103-14.254 13.465-14.254 7.404 0 11.031 5.89 12.205 9.069l.64 1.621-19.076 7.895c1.451 2.86 3.713 4.31 6.913 4.31 3.201 0 5.42-1.578 7.021-3.947ZM159.3 38.017l12.739-5.292c-.705-1.771-2.796-3.03-5.292-3.03-3.18 0-7.597 2.816-7.447 8.322Z"/><path fill="#20B15A" d="M143.894 9.68h6.145v41.736h-6.145V9.68Z"/><path fill="#3686F7" d="M134.206 25.32h5.932v25.35c0 10.52-6.209 14.85-13.549 14.85-6.914 0-11.075-4.65-12.632-8.428l5.441-2.261c.981 2.325 3.35 5.078 7.191 5.078 4.715 0 7.617-2.923 7.617-8.386v-2.048h-.213c-1.408 1.707-4.097 3.243-7.511 3.243-7.127 0-13.656-6.21-13.656-14.21 0-8.045 6.529-14.319 13.656-14.319 3.393 0 6.103 1.515 7.511 3.18h.213V25.32Zm.427 13.187c0-5.036-3.35-8.706-7.618-8.706-4.31 0-7.937 3.67-7.937 8.706 0 4.972 3.627 8.578 7.937 8.578 4.268.021 7.618-3.606 7.618-8.578Z"/><path fill="#FF302F" d="M79.09 38.4c0 8.215-6.4 14.254-14.253 14.254S50.583 46.594 50.583 38.4c0-8.258 6.401-14.275 14.254-14.275 7.852 0 14.254 6.017 14.254 14.275Zm-6.23 0c0-5.12-3.713-8.642-8.023-8.642s-8.023 3.521-8.023 8.642c0 5.079 3.713 8.642 8.023 8.642S72.86 43.48 72.86 38.4Z"/><path fill="#FFBA40" d="M110.223 38.465c0 8.215-6.402 14.253-14.254 14.253-7.852 0-14.254-6.038-14.254-14.253 0-8.258 6.401-14.254 14.254-14.254 7.852 0 14.254 5.975 14.254 14.254Zm-6.252 0c0-5.121-3.713-8.642-8.023-8.642s-8.024 3.52-8.024 8.642c0 5.078 3.713 8.641 8.023 8.641 4.332 0 8.024-3.584 8.024-8.641Z"/><path fill="#3686F7" d="M27.154 46.466c-8.94 0-15.94-7.212-15.94-16.153 0-8.94 7-16.152 15.94-16.152 4.823 0 8.343 1.899 10.946 4.331l4.29-4.289c-3.628-3.478-8.472-6.124-15.236-6.124C14.906 8.08 4.6 18.065 4.6 30.313c0 12.248 10.306 22.234 22.554 22.234 6.615 0 11.608-2.176 15.513-6.23 4.011-4.012 5.249-9.645 5.249-14.211 0-1.43-.17-2.902-.363-3.99H27.154v5.931h14.531c-.427 3.713-1.6 6.252-3.329 7.98-2.09 2.113-5.398 4.44-11.202 4.44Z"/></svg>