<svg xmlns="http://www.w3.org/2000/svg" width="233" height="59" fill="none"><path fill="#FFD900" d="M44.466 36.602c5.761-3.164 10.129-5.574 10.505-5.761 1.204-.64 2.448-2.336 0-3.652-.79-.414-5.045-2.75-10.505-5.761l-7.568 7.643 7.568 7.53Z"/><path fill="#F43249" d="M36.898 29.07 12.799 53.359c.566.075 1.205-.075 1.958-.488 1.58-.866 18.337-10.017 29.71-16.267l-7.57-7.532Z"/><path fill="#00EE76" d="m36.898 29.07 7.568-7.605S16.452 6.177 14.756 5.274c-.638-.378-1.353-.49-1.994-.378L36.898 29.07Z"/><path fill="#00D3FF" d="M36.898 29.07 12.762 4.897c-.98.226-1.807 1.092-1.807 2.861v42.74c0 1.62.64 2.786 1.845 2.899L36.898 29.07Z"/><path fill="#808285" d="M115.484 24.25c-4.33 0-7.907 3.35-7.907 7.945 0 4.556 3.539 7.944 7.907 7.944s7.907-3.35 7.907-7.944c0-4.594-3.539-7.945-7.907-7.945Zm0 12.728c-2.373 0-4.443-1.996-4.443-4.819 0-2.862 2.072-4.819 4.443-4.819 2.371 0 4.442 1.957 4.442 4.82 0 2.822-2.071 4.818-4.442 4.818ZM98.276 24.25c-4.368 0-7.907 3.35-7.907 7.945 0 4.556 3.54 7.944 7.907 7.944s7.907-3.35 7.907-7.944c0-4.594-3.54-7.945-7.907-7.945Zm0 12.728c-2.373 0-4.443-1.996-4.443-4.819 0-2.862 2.072-4.819 4.443-4.819 2.373 0 4.442 1.957 4.442 4.82 0 2.822-2.034 4.818-4.442 4.818ZM77.83 26.698v3.35h7.982c-.227 1.883-.865 3.276-1.807 4.218-1.167 1.167-2.975 2.448-6.175 2.448-4.933 0-8.736-3.991-8.736-8.924s3.804-9 8.736-9c2.672 0 4.594 1.055 6.025 2.41l2.37-2.372c-1.996-1.92-4.668-3.388-8.395-3.388-6.74 0-12.39 5.534-12.39 12.275 0 6.74 5.65 12.275 12.39 12.275 3.652 0 6.364-1.205 8.547-3.465 2.222-2.221 2.9-5.347 2.9-7.87 0-.79-.075-1.506-.19-2.109l-11.257.152Zm83.667 2.598c-.641-1.77-2.673-5.046-6.741-5.046-4.067 0-7.418 3.2-7.418 7.945 0 4.442 3.351 7.944 7.795 7.944 3.615 0 5.686-2.22 6.551-3.502l-2.672-1.807c-.905 1.318-2.109 2.184-3.879 2.184s-3.012-.79-3.804-2.41l10.505-4.406-.337-.902Zm-10.694 2.674c-.075-3.05 2.373-4.632 4.103-4.632 1.394 0 2.523.678 2.937 1.695l-7.04 2.937Zm-8.548 7.643h3.465v-23.27h-3.465v23.27Zm-5.647-13.593h-.112c-.791-.942-2.259-1.77-4.143-1.77-3.954 0-7.531 3.502-7.531 7.945 0 4.442 3.615 7.907 7.531 7.907 1.882 0 3.351-.828 4.143-1.807h.112v1.13c0 3.05-1.62 4.668-4.218 4.668-2.108 0-3.427-1.543-3.953-2.824l-3.012 1.28c.865 2.11 3.164 4.708 6.965 4.708 4.066 0 7.494-2.41 7.494-8.247V24.74h-3.276v1.28Zm-3.953 10.958c-2.373 0-4.368-1.996-4.368-4.781 0-2.785 1.996-4.82 4.368-4.82 2.335 0 4.217 2.035 4.217 4.82-.002 2.747-1.884 4.781-4.217 4.781Zm44.996-20.635h-8.284v23.27h3.465v-8.812h4.819c3.841 0 7.605-2.786 7.605-7.229 0-4.442-3.764-7.23-7.605-7.23Zm.112 11.222h-4.896v-7.984h4.896c2.56 0 4.066 2.146 4.066 3.991-.036 1.807-1.504 3.993-4.066 3.993Zm21.313-3.353c-2.485 0-5.083 1.092-6.137 3.578l3.051 1.28c.678-1.28 1.882-1.694 3.163-1.694 1.807 0 3.615 1.092 3.652 3.011v.227c-.64-.376-1.957-.905-3.614-.905-3.314 0-6.666 1.845-6.666 5.235 0 3.126 2.712 5.12 5.723 5.12 2.336 0 3.615-1.054 4.406-2.296h.112v1.808h3.35V30.65c-.037-4.103-3.086-6.439-7.04-6.439Zm-.414 12.729c-1.129 0-2.712-.566-2.712-1.958 0-1.807 1.958-2.485 3.653-2.485 1.505 0 2.221.34 3.163.79a4.168 4.168 0 0 1-4.104 3.653Zm19.542-12.2-3.954 10.053h-.112l-4.103-10.053h-3.727l6.174 14.082-3.502 7.87h3.615l9.45-21.952h-3.841Zm-31.026 14.872h3.465v-23.27h-3.465v23.27Z"/></svg>