<svg xmlns="http://www.w3.org/2000/svg" width="197" height="69" fill="none"><path fill="#4E7AB0" fill-rule="evenodd" d="M130.598 61.09h-4.943c-1.004 0-1.775-.545-1.85-1.555l-.079-1.949c-3.554 2.885-7.802 4.44-12.281 4.44-8.648 0-12.198-5.525-12.198-13.939v-23.03c0-1.325.771-1.794 2.003-1.794h5.408c1.237 0 1.933.388 1.933 1.793v21.395c0 4.285 1.08 7.242 5.715 7.242 2.93 0 6.64-1.634 8.957-3.736v-24.9c0-1.325.696-1.794 1.927-1.794h5.483c1.238 0 1.934.388 1.934 1.793v33.855c0 1.634-.466 2.178-2.009 2.178ZM4.925 24.817c0-.932.464-1.555 1.39-1.555h6.532c.927 0 1.466.545 1.466 1.555v34.327c0 1.401-.62 1.945-1.93 1.945h-5.45c-1.385 0-2.008-.544-2.008-1.945V24.817Zm137.345 0c0-.932.467-1.555 1.391-1.555h6.532c.928 0 1.468.545 1.468 1.555v34.327c0 1.401-.619 1.945-1.932 1.945h-5.45c-1.387 0-2.009-.544-2.009-1.945V24.817ZM55.709 61.089h-5.56c-1.39 0-1.852-.7-1.852-2.024V37.884c0-4.28-1.156-7.318-5.87-7.318-3.013 0-6.718 1.638-9.112 3.738v24.84c0 1.327-.54 1.945-1.85 1.945h-5.64c-1.159 0-1.855-.618-1.855-1.868V25.218c0-1.247.545-1.947 1.933-1.947h5.018c1.08 0 1.78.31 1.854 1.479l.076 2.077c3.554-2.878 8.034-4.512 12.513-4.512 8.65 0 12.2 5.45 12.2 13.937v22.813c0 1.324-.462 2.024-1.855 2.024Zm27.523-48.453c0-3.153-2.535-5.712-5.664-5.712-3.127 0-5.665 2.559-5.665 5.712 0 3.155 2.538 5.71 5.665 5.71 3.13 0 5.664-2.555 5.664-5.71Zm8.058 10.626c.927 0 1.468.31 1.468 1.323v5.484c0 .934-.617 1.48-1.546 1.48h-8.95v27.595c0 1.401-.616 1.945-2.008 1.945H74.88c-1.39 0-2.007-.544-2.007-1.945V31.549h-8.952c-.926 0-1.544-.546-1.544-1.48v-5.484c0-1.013.54-1.323 1.468-1.323H91.29Zm87.772-10.626c0-3.153-2.536-5.712-5.665-5.712-3.128 0-5.664 2.559-5.664 5.712 0 3.155 2.536 5.71 5.664 5.71 3.129 0 5.665-2.555 5.665-5.71Zm8.058 10.626c.925 0 1.465.31 1.465 1.323v5.484c0 .934-.616 1.48-1.545 1.48h-8.949v27.595c0 1.401-.616 1.945-2.007 1.945h-5.376c-1.39 0-2.006-.544-2.006-1.945l-.002-27.595h-8.947c-.929 0-1.547-.546-1.547-1.48v-5.484c0-1.013.543-1.323 1.466-1.323h27.448Zm1.925 35.381h.476c.402 0 .768-.019.768-.484 0-.392-.332-.452-.641-.452h-.603v.936Zm-.454-1.308h1.129c.697 0 1.025.277 1.025.845 0 .53-.332.755-.769.801l.837 1.302h-.49l-.795-1.27h-.483v1.27h-.454v-2.948Zm.977 3.629c1.158 0 2.053-.93 2.053-2.165 0-1.206-.895-2.139-2.053-2.139-1.171 0-2.067.933-2.067 2.139 0 1.235.896 2.165 2.067 2.165Zm0-4.674a2.496 2.496 0 0 1 2.507 2.509 2.503 2.503 0 0 1-2.507 2.535 2.511 2.511 0 0 1-2.521-2.535 2.504 2.504 0 0 1 2.521-2.51Z" clip-rule="evenodd"/></svg>