<svg xmlns="http://www.w3.org/2000/svg" width="226" height="126" fill="none"><g clip-path="url(#a)"><path fill="#FFB3C7" d="M204.167.334H22.592c-11.918 0-21.58 9.662-21.58 21.58v81.693c0 11.918 9.662 21.58 21.58 21.58h181.575c11.918 0 21.58-9.662 21.58-21.58V21.914c0-11.918-9.662-21.58-21.58-21.58Z"/><path fill="#0A0B09" fill-rule="evenodd" d="M204.706 73.618c-2.94 0-5.323 2.405-5.323 5.372 0 2.966 2.383 5.372 5.323 5.372 2.94 0 5.324-2.405 5.324-5.372s-2.383-5.372-5.324-5.372Zm-17.516-4.154c0-4.062-3.44-7.354-7.685-7.354-4.245 0-7.686 3.292-7.686 7.354 0 4.063 3.441 7.356 7.686 7.356s7.685-3.293 7.685-7.356Zm.029-14.294h8.482v28.587h-8.482V81.93a14.779 14.779 0 0 1-8.409 2.619c-8.255 0-14.948-6.754-14.948-15.085 0-8.33 6.693-15.084 14.948-15.084 3.12 0 6.013.97 8.409 2.619V55.17Zm-67.88 3.724v-3.723h-8.684v28.586h8.704V70.411c0-4.503 4.836-6.924 8.192-6.924.035 0 .067.004.101.004v-8.318c-3.444 0-6.612 1.488-8.313 3.721Zm-21.632 10.57c0-4.062-3.441-7.354-7.686-7.354s-7.686 3.293-7.686 7.355 3.441 7.355 7.686 7.355 7.686-3.293 7.686-7.355Zm.028-14.294h8.482v28.588h-8.482V81.93a14.778 14.778 0 0 1-8.408 2.618c-8.257 0-14.95-6.754-14.95-15.085 0-8.33 6.693-15.084 14.95-15.084 3.12 0 6.011.97 8.408 2.62v-1.83Zm51.054-.769c-3.388 0-6.595 1.062-8.739 3.99v-3.219h-8.445v28.586h8.549V68.735c0-4.347 2.889-6.476 6.368-6.476 3.727 0 5.871 2.247 5.871 6.417v15.082h8.472v-18.18c0-6.652-5.242-11.176-12.076-11.176ZM62.022 83.758H70.9V42.43h-8.878v41.327Zm-39 .011h9.401V42.424h-9.4v41.345Zm32.882-41.345c0 8.95-3.457 17.277-9.617 23.466l12.995 17.88H47.67L33.548 64.34l3.645-2.755c6.044-4.568 9.511-11.552 9.511-19.16h9.2Z" clip-rule="evenodd"/></g><defs><clipPath id="a"><path fill="#fff" d="M0 0h224.845v125H0z" transform="translate(.946 .25)"/></clipPath></defs></svg>