<svg xmlns="http://www.w3.org/2000/svg" width="220" height="54" fill="none"><path fill="#100F0D" d="M188.998 35.098v.005h-.032l.032-.005Z"/><path fill="#100F0D" d="M188.998 35.103h.479c.834 1.844 2.854 4.028 6.207 4.028 3.441 0 5.538-2.525 5.538-5.631 0-3.397-2.717-4.514-5.6-5.699-3.259-1.34-6.732-2.767-6.732-7.677 0-4.375 3.359-7.4 8.562-7.4 2.431 0 4.193.586 5.79 1.764-.499.925-.752 1.853-1.087 3.365h-.416c-.588-1.512-1.762-3.701-4.698-3.701-2.931 0-5.033 2.016-5.033 4.88 0 3.503 2.828 4.634 5.775 5.813 3.208 1.283 6.557 2.622 6.557 7.138 0 4.79-3.6 8.828-9.636 8.828-3.189 0-5.039-1.174-6.46-2.269.502-1.177.588-1.934.754-3.44Z"/><path fill="#100F0D" fill-rule="evenodd" d="M158.268 26.782c0 8.914 6.045 14.046 14.683 14.046s14.681-5.132 14.681-14.046-6.037-14.046-14.675-14.046c-8.638 0-14.681 5.126-14.681 14.04l-.008.006Zm25.502-.003c-.002 8.66-4.699 12.61-10.817 12.61-6.125 0-10.823-3.952-10.823-12.613 0-8.744 4.698-12.614 10.817-12.614 6.118 0 10.821 3.87 10.823 12.617Z" clip-rule="evenodd"/><path fill="#100F0D" d="M156.188 40.822c-.084-1.762-.17-10.424-.17-14.464 0-3.03.423-10.846.674-13.118a19.41 19.41 0 0 0-.368.064c-.319.058-.581.106-.889.106-.422 0-.927-.082-1.348-.164.338 6.054.338 13.711.338 20.693-4.221-4.236-11.52-12.14-17.556-18.679h-.001l-.003-.004-2.318-2.51h-.587c.082 1.762.082 5.55.082 10.512 0 5.126-.505 15.22-.839 17.076l.098-.016h.003c.472-.077.942-.154 1.41-.154.417 0 .928.088 1.345.176-.17-1.597-.338-9.84-.338-13.206 0-2.655.035-4.572.061-5.985v-.002c.015-.824.027-1.477.027-2.005l2.59 2.758.004.004c5.92 6.3 12.009 12.78 17.202 18.935h.587l-.004-.017Z"/><path fill="#100F0D" fill-rule="evenodd" d="M101.833 26.794c0 8.914 6.042 14.044 14.68 14.044s14.675-5.131 14.675-14.044c0-8.915-6.037-14.044-14.675-14.044-8.638 0-14.68 5.128-14.68 14.042v.002Zm25.585 0c0 8.66-4.78 12.613-10.905 12.613-6.125 0-10.822-3.952-10.822-12.614 0-8.748 4.697-12.617 10.822-12.617 6.125 0 10.905 3.87 10.905 12.617Zm80.219-10.186h-.383v-2.813h1.08c.634 0 .91.274.91.777 0 .498-.323.714-.651.785l.786 1.25h-.428l-.764-1.25h-.54l-.01 1.25Zm.44-1.571h.041c.359 0 .744.001.744-.472 0-.394-.323-.452-.617-.452h-.611v.924h.443Z" clip-rule="evenodd"/><path fill="#100F0D" fill-rule="evenodd" d="M210.5 15.197a2.372 2.372 0 0 1-2.367 2.367 2.368 2.368 0 0 1-2.366-2.367 2.368 2.368 0 0 1 2.366-2.366 2.371 2.371 0 0 1 2.367 2.366Zm-.383-.001c-.001-1.14-.848-2.046-1.983-2.046-1.135 0-1.982.906-1.982 2.047s.847 2.047 1.982 2.047 1.982-.91 1.983-2.048ZM83.735 40.31c.166-3.365.335-6.815.335-10.176h.014V23.43c0-3.447-.165-6.812-.335-10.177 1.51.082 3.018.165 4.44.165.755 0 1.512-.043 2.268-.086a40.168 40.168 0 0 1 2.259-.085c4.363 0 8.139 1.51 8.139 6.137 0 5.126-5.115 7.146-8.051 7.563.621.764 1.727 2.17 3.015 3.808 2.693 3.425 6.184 7.865 7.714 9.57-.752-.089-1.592-.177-2.349-.177-.706 0-1.407.077-2.112.153l-.155.017c-1.591-2.443-6.794-9.583-10.153-13.042h-1.508v2.86c0 3.365.168 6.812.335 10.176l-.06-.007c-.653-.084-1.299-.167-1.87-.167-.586 0-1.108.068-1.678.142l-.248.032Zm3.668-22.58c-.073 1.89-.147 3.782-.147 5.674v2.185c.754.17 1.597.255 2.598.255 3.274 0 7.553-1.345 7.553-6.057 0-4.119-3.44-5.129-6.124-5.129-1.764 0-2.938.082-3.776.167-.028.968-.066 1.936-.104 2.905Z" clip-rule="evenodd"/><path fill="#100F0D" d="M62.862 23.483v6.733l.012-.024c0 3.277-.173 6.73-.337 10.013l.111-.015c.628-.082 1.187-.156 1.819-.156.55 0 1.103.073 1.727.155l.12.016c-.17-3.277-.252-6.73-.252-10.007v-3.447c0-.082.082-.164.164-.164.088 0 .253.088.423.252 1.68 1.686 7.548 8.832 11.24 13.377.669-.088 1.427-.17 2.096-.17.84 0 1.595.082 2.349.17-1.553-1.77-3.096-3.538-4.629-5.294a1252.117 1252.117 0 0 0-8.202-9.34c2.766-3.282 8.89-8.995 12.414-12.108-.593.088-1.263.17-1.85.17-.557 0-1.039-.079-1.514-.157l-.077-.013c-3.612 4.128-8.051 8.997-11.662 12.115-.042.03-.08.06-.113.086-.244.187-.326.25-.475.25-.088 0-.17-.082-.17-.252v-2.19c0-3.36.082-6.724.253-10.004l-.194.025c-.596.076-1.126.144-1.656.144-.612 0-1.154-.07-1.758-.147l-.174-.022.004.089c.163 3.251.33 6.587.33 9.915Z"/><path fill="#F03B25" d="M27.37 17.853c3.902 0 4.828-1.023 5.814-2.113l.22-.24c.085 0 6.546-9.17 6.546-9.17s.42.17.92.423c0 0-3.775 5.38-8.637 12.111-.755 1.01-2.184 2.692-4.95 2.692H10.087c.25-1.056.588-2.02.883-2.858.105-.298.204-.58.292-.845h16.106Zm-12.5-5.635h9.06c1.292 0 2.142-.996 2.73-1.685.138-.16.261-.305.372-.416 0 .082 3.943-5.467 3.943-5.467-5.452.082-11.576 2.269-16.105 7.567v.001Z"/><path fill="#F03B25" d="M9.837 22.475h18.789c.021 0 .054 0 .098.002.817.016 5.375.108 7.283-2.603 2.097-2.864 8.055-11.272 8.055-11.272.252.151.35.243.464.349.074.068.154.142.286.242 0 0-9.977 13.959-9.977 14.04-1.763 2.35-4.615 2.943-6.877 2.943H9.5c0-1.01.085-2.443.337-3.706v.005Zm43.533 4.208c0 5.548-1.927 10.674-5.535 14.461l-8.052-11.18c-.758-1.01-2.1-2.693-4.28-3.28 2.14-.661 3.472-2.293 4.237-3.228l.043-.052 8.05-11.27c3.61 3.787 5.536 8.912 5.537 14.549Z"/><path fill="#F03B25" d="M26.363 13.228H14.03c-1.007 1.257-2.012 2.943-2.263 3.618h13.756c1.76-.086 3.185-.844 4.526-2.945.086-.086 6.292-8.747 6.292-8.747l-1.088-.17-4.198 5.807s-1.76 2.52-4.692 2.437Zm2.263 17.582H9.837v.006c-.252-1.268-.337-2.69-.337-3.705h18.458c2.262 0 5.114.587 6.877 2.942 0 .082 9.977 14.04 9.977 14.04-.135.101-.215.176-.29.245a2.439 2.439 0 0 1-.46.346s-5.958-8.413-8.055-11.267c-1.932-2.669-6.58-2.616-7.311-2.608h-.07Z"/><path fill="#F03B25" d="M11.263 35.425H27.37c3.897 0 4.826 1.025 5.81 2.111l.225.246c.085 0 6.546 9.17 6.546 9.17s.42-.163.92-.416c0 0-3.775-5.385-8.637-12.108-.755-1.01-2.184-2.696-4.95-2.696 0 .088-17.195 0-17.195 0 .252 1.072.595 2.043.892 2.883.101.288.197.56.283.817v-.007Zm3.607 5.65h9.06c1.292 0 2.143.997 2.732 1.687.137.16.26.304.37.415l3.943 5.473c-5.452-.088-11.576-2.273-16.105-7.57v-.005Z"/><path fill="#F03B25" d="M26.363 40.056H14.03c-1.007-1.26-1.76-2.608-2.263-3.617h13.756c1.76.085 3.185.84 4.526 2.944.086.085 6.292 8.745 6.292 8.745l-1.088.17-4.198-5.8s-1.76-2.442-4.692-2.442Z"/></svg>