<svg xmlns="http://www.w3.org/2000/svg" width="197" height="60" fill="none"><path fill="#34A853" d="M20.236 5.443a4.347 4.347 0 0 0-3.606 6.772l1.857-1.854a1.833 1.833 0 1 1 1.17 1.168l-1.854 1.854a4.345 4.345 0 1 0 2.433-7.94Z"/><path fill="#FBBC04" d="M18.508 18.104a6.753 6.753 0 0 0-1.354-4.07l-2.41 2.407a3.454 3.454 0 0 1-.66 4.17l1.31 3.2a6.79 6.79 0 0 0 3.114-5.707Z"/><path fill="#EA4335" d="M11.775 21.558h-.063a3.456 3.456 0 1 1 1.899-6.345l2.385-2.385a6.793 6.793 0 1 0-2.912 11.933l-1.31-3.203Z"/><path fill="#4285F4" d="M20.328 24.327a15.414 15.414 0 0 0-4.452.652l1.909 4.664a10.55 10.55 0 0 1 2.54-.31 10.399 10.399 0 1 1-4.876 1.213l-1.888-4.65a15.416 15.416 0 1 0 6.78-1.572l-.014.003Z"/><path fill="#5F6368" d="M50.673 11.817h4.334v32.716h15.956v4.119h-20.29V11.817Zm26.573 35.062a12.418 12.418 0 0 1-4.625-4.847 13.991 13.991 0 0 1-1.658-6.777 13.993 13.993 0 0 1 1.658-6.767 12.42 12.42 0 0 1 4.625-4.848 13.4 13.4 0 0 1 13.355 0 12.456 12.456 0 0 1 4.628 4.848 14.02 14.02 0 0 1 1.657 6.777 14.02 14.02 0 0 1-1.657 6.777 12.455 12.455 0 0 1-4.625 4.847 13.4 13.4 0 0 1-13.356 0l-.002-.01Zm10.999-3.19a8.587 8.587 0 0 0 3.223-3.339 10.293 10.293 0 0 0 1.213-5.096 10.302 10.302 0 0 0-1.213-5.096 8.587 8.587 0 0 0-3.216-3.338 8.477 8.477 0 0 0-4.328-1.163 8.6 8.6 0 0 0-7.595 4.501 10.329 10.329 0 0 0-1.21 5.096 10.324 10.324 0 0 0 1.21 5.096 8.643 8.643 0 0 0 11.923 3.34h-.007Zm17.173 3.19a12.458 12.458 0 0 1-4.625-4.847 14.026 14.026 0 0 1-1.657-6.777 14.026 14.026 0 0 1 1.657-6.767 12.46 12.46 0 0 1 4.625-4.848 13.4 13.4 0 0 1 13.356 0 12.437 12.437 0 0 1 4.627 4.848 14.023 14.023 0 0 1 1.658 6.777 14.023 14.023 0 0 1-1.658 6.777 12.436 12.436 0 0 1-4.625 4.847 13.396 13.396 0 0 1-13.355 0l-.003-.01Zm10.999-3.19a8.611 8.611 0 0 0 3.216-3.339 10.326 10.326 0 0 0 1.212-5.096 10.326 10.326 0 0 0-1.212-5.096 8.611 8.611 0 0 0-3.216-3.338 8.48 8.48 0 0 0-4.329-1.163 8.622 8.622 0 0 0-4.355 1.163 8.536 8.536 0 0 0-3.239 3.338 10.304 10.304 0 0 0-1.213 5.096 10.293 10.293 0 0 0 1.213 5.096 8.536 8.536 0 0 0 3.239 3.34 8.622 8.622 0 0 0 4.355 1.162 8.473 8.473 0 0 0 4.339-1.163h-.01Zm11.755-31.872h4.332v23.286l13.041-13.249h5.499v.205l-10.998 11.106 10.501 15.293v.194h-5.196L136.99 36.16l-4.486 4.497v7.995h-4.332V11.817Z"/><path fill="#5F6368" d="M156.138 46.929a12.012 12.012 0 0 1-4.478-4.774 14.43 14.43 0 0 1-1.605-6.859 15.06 15.06 0 0 1 1.513-6.696 12.121 12.121 0 0 1 4.303-4.923 11.453 11.453 0 0 1 6.408-1.833c2.472 0 4.616.552 6.431 1.658a11.015 11.015 0 0 1 4.19 4.577 14.755 14.755 0 0 1 1.451 6.694c-.002.43-.035.86-.099 1.285h-19.994c.099 1.92.561 3.537 1.385 4.85a8.09 8.09 0 0 0 3.142 2.967 8.53 8.53 0 0 0 3.984.99c3.296 0 5.785-1.517 7.468-4.551l3.562 1.73a12.55 12.55 0 0 1-4.402 4.825c-1.881 1.188-4.14 1.783-6.778 1.783a12.287 12.287 0 0 1-6.481-1.723Zm13.761-14.346a8.193 8.193 0 0 0-.89-3.166 6.826 6.826 0 0 0-2.475-2.67c-1.121-.727-2.538-1.09-4.253-1.09a7.205 7.205 0 0 0-5.046 1.904c-1.384 1.27-2.291 2.945-2.721 5.022h15.385Zm7.249-10.723h4.127v4.975h.204c.51-1.428 1.496-2.618 2.957-3.57a8.292 8.292 0 0 1 4.58-1.419 7.553 7.553 0 0 1 3.059.564v4.637a8.12 8.12 0 0 0-3.666-.817 6.043 6.043 0 0 0-3.468 1.074 7.742 7.742 0 0 0-2.524 2.88 8.364 8.364 0 0 0-.943 3.91v14.558h-4.326V21.86Z"/></svg>