<svg xmlns="http://www.w3.org/2000/svg" width="264" height="45" fill="none"><path fill="#F96B13" d="M16.876 4.417V33.7L4.475 41.024l-.011-29.29 12.412-7.317Z"/><path fill="#F96B13" d="M29.284 26.372v14.193l-12.408.007V33.7l12.408-7.329Z"/><path fill="#282C33" d="M41.708 7.595h7.309v27.118h13.131v5.859h-20.44V7.595Zm22.703 24.397V16.454h6.496V31.07c0 3.274 1.31 4.84 4.104 4.84 2.754 0 4.917-1.75 4.917-5.305v-14.15h6.496V40.57h-6.496v-3.78c-1.216 2.447-3.607 4.286-7.49 4.286-4.6 0-8.027-2.768-8.027-9.084Zm24.995-3.178v-.37c0-7.793 5.46-12.543 12.185-12.543 5.461 0 10.512 2.447 11.103 9.358h-6.18c-.45-2.81-2.123-4.102-4.783-4.102-3.385 0-5.642 2.584-5.642 7.192v.37c0 4.84 2.123 7.334 5.776 7.334 2.62 0 4.737-1.566 5.053-4.656h5.91c-.362 5.721-4.42 9.686-11.284 9.686-6.899-.006-12.138-4.387-12.138-12.27Zm25.86-19.277c0-2.078 1.626-3.644 3.702-3.644 2.122 0 3.747 1.566 3.747 3.644 0 2.077-1.625 3.643-3.747 3.643-2.076 0-3.702-1.572-3.702-3.643Zm.497 6.917h6.496v24.117h-6.496V16.454Zm9.747 12.401v-.369c0-7.93 4.467-12.591 10.378-12.591 3.789 0 6.139 1.708 7.449 4.15V5.523h6.496V40.57h-6.496v-4.01c-1.216 2.447-4.104 4.518-7.583 4.518-5.73 0-10.244-4.197-10.244-12.222Zm18.003-.226v-.37c0-4.798-2.076-7.239-5.643-7.239-3.654 0-5.689 2.537-5.689 7.335v.37c0 4.797 2.257 7.15 5.508 7.15 3.432-.007 5.824-2.358 5.824-7.246Zm9.342.184v-.369c0-7.793 5.461-12.543 12.186-12.543 5.46 0 10.512 2.447 11.102 9.358h-6.179c-.451-2.81-2.123-4.102-4.783-4.102-3.386 0-5.643 2.584-5.643 7.192v.37c0 4.84 2.122 7.334 5.777 7.334 2.619 0 4.736-1.566 5.051-4.656h5.912c-.362 5.721-4.421 9.686-11.285 9.686-6.904-.006-12.138-4.387-12.138-12.27Zm26.171-23.289h6.543v14.758c1.175-2.399 3.748-4.381 7.67-4.381 4.649 0 7.94 2.857 7.94 9.317V40.57h-6.542V26.182c0-3.274-1.263-4.84-4.152-4.84-2.8 0-4.916 1.75-4.916 5.305V40.57h-6.543V5.524Zm24.867 28.362c0-5.626 5.051-7.746 12.272-7.746h2.66v-.97c0-2.858-.859-4.43-3.836-4.43-2.572 0-3.748 1.34-4.016 3.412h-6.181c.404-5.721 4.83-8.257 10.607-8.257 5.776 0 9.881 2.399 9.881 8.948v15.722h-6.362V37.66c-1.356 1.935-3.432 3.411-7.132 3.411-4.28.006-7.893-2.113-7.893-7.185Zm14.938-1.757V30.1h-2.526c-3.788 0-6.005.828-6.005 3.412 0 1.75 1.041 2.905 3.432 2.905 2.889.006 5.099-1.607 5.099-4.286Zm10.694-15.675h6.542v4.614c1.491-3.227 3.789-4.935 7.625-4.983v6.227c-4.83-.047-7.625 1.566-7.625 6.18v12.08h-6.542V16.453Zm18.412 16.967V21.2h-3.023v-4.75h3.023v-5.21h6.495v5.21h4.963v4.75h-4.963v11.62c0 1.935.947 2.858 2.619 2.858.994 0 1.714-.137 2.485-.459v5.168c-.9.321-2.21.643-3.97.643-4.97 0-7.629-2.584-7.629-7.609Z"/></svg>