<svg xmlns="http://www.w3.org/2000/svg" width="257" height="47" fill="none"><path fill="#000" d="M41.794 23.628c0 10.325-8.313 18.696-18.567 18.696-10.255 0-18.568-8.368-18.568-18.696 0-10.327 8.313-18.694 18.568-18.694 10.254 0 18.567 8.37 18.567 18.694Zm20.37 0c0 9.72-4.157 17.599-9.284 17.599-5.127 0-9.284-7.882-9.284-17.599S47.753 6.03 52.88 6.03c5.127 0 9.284 7.881 9.284 17.598Zm8.331 0c0 8.709-1.462 15.767-3.265 15.767-1.803 0-3.266-7.06-3.266-15.767 0-8.706 1.463-15.767 3.266-15.767 1.804 0 3.265 7.06 3.265 15.767Zm51.244-17.073.052-.012v-.4h-10.559l-9.805 23.044-9.805-23.044H80.243v.4l.051.012c1.928.435 2.906 1.083 2.906 3.423V37.37c0 2.34-.982 2.988-2.91 3.423l-.05.012v.401h7.72v-.4l-.051-.011c-1.928-.435-2.906-1.084-2.906-3.424V11.567l12.595 29.64h.714l12.962-30.467v27.308c-.165 1.847-1.134 2.418-2.88 2.812l-.051.012v.397h13.448v-.397l-.052-.012c-1.747-.394-2.74-.965-2.905-2.812l-.009-28.07h.009c0-2.34.979-2.988 2.905-3.423Zm6.143 18.145c.22-4.921 1.988-8.474 4.953-8.535.915.015 1.682.315 2.279.893 1.267 1.23 1.863 3.8 1.771 7.642h-9.003Zm-.133 1.387h15.762v-.066c-.044-3.763-1.134-6.69-3.236-8.7-1.818-1.738-4.508-2.694-7.334-2.694h-.063c-1.466 0-3.265.356-4.545 1-1.457.675-2.742 1.684-3.811 3.008-1.722 2.133-2.764 5.015-3.018 8.255l-.022.291c-.007.097-.011.184-.016.277-.022.455-.03.911-.022 1.367.171 7.337 4.134 13.2 11.173 13.2 6.179 0 9.777-4.516 10.674-10.579l-.453-.16c-1.576 3.26-4.407 5.234-7.629 4.993-4.398-.33-7.767-4.789-7.462-10.19l.002-.002Zm33.584 9.943c-.517 1.226-1.596 1.9-3.042 1.9-1.445 0-2.767-.992-3.706-2.795-1.008-1.935-1.539-4.672-1.539-7.913 0-6.746 2.098-11.11 5.346-11.11 1.36 0 2.43.675 2.941 1.852V36.03Zm10.456 4.81c-1.927-.457-2.906-1.136-2.906-3.594V4.529l-11.71 3.45v.423l.072-.006c1.615-.13 2.711.093 3.347.68.498.46.741 1.167.741 2.16v4.486c-1.155-.737-2.528-1.096-4.194-1.096-3.38 0-6.468 1.423-8.696 4.008-2.322 2.693-3.55 6.374-3.55 10.643 0 7.624 3.753 12.749 9.339 12.749 3.268 0 5.897-1.79 7.101-4.81v4.053h10.507v-.42l-.051-.01Zm10.043-31.861c0-2.38-1.795-4.177-4.176-4.177-2.37 0-4.225 1.835-4.225 4.177 0 2.341 1.857 4.176 4.225 4.176 2.381 0 4.176-1.795 4.176-4.176Zm2.764 31.86c-1.927-.456-2.906-1.134-2.906-3.593h-.008V14.704l-10.508 3.017v.41l.063.005c2.274.202 2.896.986 2.896 3.642V41.27h10.517v-.42l-.054-.01Zm26.925 0c-1.927-.456-2.906-1.134-2.906-3.593V14.704l-10.004 2.917v.411l.059.006c1.859.196 2.396 1.024 2.396 3.692v14.25c-.62 1.226-1.783 1.954-3.191 2.003-2.284 0-3.542-1.543-3.542-4.344V14.704l-10.508 3.017v.41l.063.005c2.274.202 2.897.985 2.897 3.642v12.06c-.006.842.067 1.682.218 2.51l.189.823c.89 3.188 3.221 4.855 6.873 4.855 3.093 0 5.804-1.915 6.998-4.91v4.16h10.508v-.42l-.05-.017Zm40.82.43v-.42l-.051-.012c-2.091-.483-2.906-1.392-2.906-3.243V22.261c0-4.781-2.685-7.635-7.183-7.635-3.279 0-6.043 1.895-7.108 4.846-.845-3.127-3.278-4.846-6.876-4.846-3.16 0-5.636 1.668-6.699 4.485v-4.405l-10.508 2.893v.412l.064.006c2.246.2 2.895 1.005 2.895 3.594v19.658h9.805v-.42l-.052-.012c-1.668-.392-2.207-1.107-2.207-2.942V20.319c.441-1.03 1.331-2.252 3.089-2.252 2.185 0 3.292 1.514 3.292 4.494V41.27h9.806v-.42l-.051-.012c-1.669-.392-2.207-1.107-2.207-2.942V22.259a10.103 10.103 0 0 0-.139-1.745c.468-1.12 1.409-2.447 3.239-2.447 2.215 0 3.291 1.47 3.291 4.494V41.27h10.506Z"/></svg>