<svg xmlns="http://www.w3.org/2000/svg" width="108" height="109" fill="none"><path fill="#000" d="M88.763 57.365c0-.173-.048-.297-.145-.378-.109-.087-.296-.133-.556-.133h-.374v1.029h.451c.418 0 .624-.173.624-.518Zm.583 2.145h-.514l-.328-.724c-.167-.362-.345-.544-.54-.544h-.276v1.268h-.424v-3.017h.849c.378 0 .661.082.856.252a.724.724 0 0 1 .247.57.742.742 0 0 1-.203.527c-.132.147-.321.245-.564.297v.013c.169.04.337.224.5.557l.397.803v-.002Zm.94-1.479c0-.593-.203-1.094-.607-1.492a2.041 2.041 0 0 0-1.484-.597c-.601 0-1.103.2-1.5.6-.397.403-.595.9-.595 1.49 0 .601.206 1.104.615 1.505.404.4.898.598 1.48.598.58 0 1.074-.2 1.481-.605.407-.399.61-.9.61-1.499Zm.285-.013c0 .667-.229 1.225-.689 1.675-.46.454-1.024.68-1.698.68-.68 0-1.243-.223-1.692-.66-.448-.443-.671-1-.671-1.677 0-.66.228-1.216.683-1.673.455-.455 1.022-.683 1.7-.683.664 0 1.221.218 1.673.652.464.445.694 1.005.694 1.686ZM26.08 66.432h-1.462v-8.37c0-.66.043-1.465.121-2.415h-.033c-.137.556-.262.958-.373 1.207l-4.25 9.578h-.713l-4.259-9.509c-.12-.265-.245-.692-.372-1.276h-.032c.045.5.07 1.31.07 2.432v8.353h-1.41V53.97h1.93l3.823 8.69c.288.655.475 1.153.566 1.493h.06c.25-.681.447-1.192.597-1.529l3.906-8.654h1.83v12.463h.001Zm4.499 0h-1.421v-8.9h1.42v8.9Zm.246-12.091a.89.89 0 0 1-.276.661.904.904 0 0 1-.663.27.919.919 0 0 1-.656-.26.889.889 0 0 1-.27-.671c0-.257.09-.477.27-.655a.903.903 0 0 1 .656-.264c.26 0 .484.086.663.264a.88.88 0 0 1 .276.655Zm8.636 11.679c-.682.419-1.497.627-2.439.627-1.276 0-2.303-.424-3.088-1.27-.762-.821-1.146-1.881-1.146-3.18 0-1.458.417-2.639 1.258-3.536.836-.898 1.96-1.347 3.376-1.347.773 0 1.459.152 2.059.452v1.463c-.665-.467-1.367-.698-2.12-.698-.907 0-1.644.317-2.217.948-.595.647-.897 1.51-.897 2.589 0 1.035.276 1.855.823 2.46.55.602 1.28.904 2.202.904.778 0 1.507-.256 2.19-.766v1.354Zm6.799-7.045c-.251-.192-.612-.287-1.089-.287-.578 0-1.065.26-1.459.782-.447.584-.67 1.392-.67 2.424v4.538h-1.424V57.53h1.425v1.835h.034c.21-.65.533-1.15.965-1.504.404-.323.86-.486 1.363-.486.38 0 .661.04.854.121v1.478Zm7.94 3.023c0-1.14-.258-2.01-.772-2.607-.5-.574-1.197-.86-2.096-.86-.885 0-1.596.29-2.127.87-.562.62-.843 1.495-.843 2.631 0 1.066.268 1.902.807 2.499.536.6 1.258.9 2.163.9.937 0 1.654-.305 2.145-.912.482-.594.723-1.433.723-2.521Zm1.46-.05c0 1.418-.4 2.557-1.198 3.411-.802.858-1.88 1.286-3.235 1.286-1.336 0-2.4-.428-3.18-1.286-.763-.826-1.147-1.917-1.147-3.274 0-1.549.434-2.742 1.304-3.59.805-.786 1.882-1.182 3.23-1.182 1.328 0 2.365.414 3.112 1.233.74.825 1.114 1.959 1.114 3.402Zm7.065 2.102c0 .73-.272 1.333-.817 1.815-.596.52-1.413.781-2.442.781-.843 0-1.581-.176-2.208-.536v-1.532c.697.568 1.467.853 2.313.853 1.128 0 1.694-.416 1.694-1.243a1.1 1.1 0 0 0-.375-.86c-.25-.227-.737-.499-1.46-.817-.746-.327-1.277-.661-1.59-1.01-.376-.412-.566-.947-.566-1.607 0-.739.296-1.354.88-1.843.585-.492 1.336-.738 2.26-.738.707 0 1.34.139 1.903.418v1.434c-.587-.424-1.258-.635-2.02-.635-.472 0-.851.118-1.133.347a1.11 1.11 0 0 0-.429.897c0 .394.12.7.358.92.211.203.66.45 1.336.738.76.319 1.309.648 1.644.986.433.428.652.972.652 1.633Zm8.707-2.052c0-1.14-.257-2.01-.773-2.607-.498-.574-1.197-.86-2.094-.86-.886 0-1.596.29-2.13.87-.561.62-.84 1.495-.84 2.631 0 1.066.267 1.902.801 2.499.543.6 1.265.9 2.169.9.938 0 1.654-.305 2.145-.912.481-.594.722-1.433.722-2.521Zm1.464-.05c0 1.418-.404 2.557-1.203 3.411-.799.858-1.877 1.286-3.232 1.286-1.337 0-2.4-.428-3.18-1.286-.764-.826-1.148-1.917-1.148-3.274 0-1.549.437-2.742 1.302-3.59.805-.786 1.883-1.182 3.234-1.182 1.327 0 2.362.414 3.108 1.233.742.825 1.12 1.959 1.12 3.402Zm6.278-7.441a1.913 1.913 0 0 0-.947-.234c-.997 0-1.492.628-1.492 1.886v1.372h2.086v1.207h-2.086v7.694H75.31v-7.694h-1.514v-1.207h1.514V56.09c0-.98.3-1.748.91-2.303.523-.481 1.163-.72 1.923-.72.44 0 .783.053 1.032.155v1.286Zm5.623 11.835c-.337.193-.785.289-1.34.289-1.552 0-2.329-.876-2.329-2.627V58.74h-1.527v-1.208h1.527V55.36c.455-.143.928-.3 1.428-.461v2.633h2.24v1.208h-2.24v5.023c0 .597.098 1.024.302 1.271.206.256.542.381 1.017.381.355 0 .661-.095.922-.287v1.215ZM7.782 101.17c0 .697-.249 1.301-.752 1.81a2.47 2.47 0 0 1-1.824.764 2.371 2.371 0 0 1-1.777-.764 2.531 2.531 0 0 1-.729-1.81c0-.717.243-1.322.729-1.824a2.378 2.378 0 0 1 1.777-.752c.714 0 1.323.253 1.824.762.503.51.752 1.115.752 1.814Zm27.252 2.05L18.168 77.173a11.953 11.953 0 0 1-1.023-2.051h-.138c.12.697.181 2.194.181 4.488v23.61h-3.83V70.541h4.971l16.362 25.636c.651 1.018 1.096 1.747 1.322 2.185h.091c-.151-.94-.23-2.542-.23-4.805V70.541h3.807v32.679h-4.647Zm29.202 0h-17.32V70.541h16.568v3.463h-12.74v10.87h11.805v3.465H50.743v11.416h13.493v3.465Zm26.271-29.216h-9.413v29.216h-3.83V74.004h-9.43V70.54h22.673v3.464Z"/><path fill="url(#a)" d="M38.381 14.097c3.695 11.3 5.095 31.457 15.9 31.457.823 0 1.654-.08 2.488-.239-9.822-2.29-10.986-22.228-16.98-32.553-.47.427-.936.872-1.408 1.335Z"/><path fill="url(#b)" d="M39.79 12.761c5.993 10.326 7.157 30.264 16.98 32.554a15.63 15.63 0 0 0 2.32-.627c-8.817-4.32-11.254-23.68-18.06-33.002-.413.344-.827.703-1.24 1.075Z"/><path fill="#14559A" d="M48.425 6.621c-.82 0-1.654.08-2.49.24-2.186.412-4.407 1.353-6.646 2.778a16.493 16.493 0 0 1 1.741 2.048c2.277-1.89 4.54-3.287 6.793-4.126a15.148 15.148 0 0 1 2.535-.704 7.808 7.808 0 0 0-1.933-.236Z"/><path fill="url(#c)" d="M65.972 40.706a39.583 39.583 0 0 0 2.71-2.376C64.929 27.084 63.585 6.639 52.705 6.639c-.779 0-1.563.072-2.347.217 9.912 2.465 11.181 24.03 15.615 33.851Z"/><path fill="#3092C4" d="M50.358 6.856a7.814 7.814 0 0 0-1.933-.235l4.279.015c-.778 0-1.563.073-2.346.22"/><path fill="#1969BC" d="M65.782 43.096a16.11 16.11 0 0 1-1.227-1.326c-1.83 1.296-3.654 2.279-5.466 2.918a8.37 8.37 0 0 0 2.038.695 8.632 8.632 0 0 0 1.736.171c2.034 0 3.641-.24 5.01-.897a9.512 9.512 0 0 1-2.091-1.561Z"/><path fill="url(#d)" d="M47.823 7.563c8.877 4.643 9.649 25.67 16.732 34.207.475-.335.945-.69 1.415-1.064-4.434-9.822-5.702-31.387-15.611-33.85-.846.157-1.69.392-2.536.707Z"/><path fill="url(#e)" d="M41.03 11.686c6.806 9.321 9.243 28.682 18.06 33.002 1.812-.64 3.635-1.622 5.466-2.918-7.084-8.538-7.856-29.564-16.733-34.208-2.254.838-4.516 2.235-6.793 4.124Z"/><path fill="url(#f)" d="M34.027 13.825c-1.067 2.412-2.157 5.583-3.474 9.722 2.62-3.692 5.232-6.873 7.828-9.45a28.4 28.4 0 0 0-1.155-3.017 38.995 38.995 0 0 0-3.2 2.745Z"/><path fill="#2B74B1" d="M38.171 10.384c-.313.224-.628.454-.945.696a28.41 28.41 0 0 1 1.155 3.017c.471-.461.94-.908 1.408-1.335a18.684 18.684 0 0 0-1.618-2.378Z"/><path fill="#125A9E" d="M39.29 9.638c-.374.236-.745.485-1.119.745a18.89 18.89 0 0 1 1.62 2.38c.413-.374.827-.736 1.24-1.077a16.505 16.505 0 0 0-1.742-2.048Z"/><path fill="url(#g)" d="M99.841 5.76c-5.02 19.363-15.507 34.915-24.3 38.836h-.016c-.16.073-.318.139-.475.203-.021.013-.04.015-.057.022-.047.019-.09.033-.136.052-.021.013-.04.017-.06.025-.075.026-.147.049-.22.078-.031.013-.06.021-.09.032a1.091 1.091 0 0 1-.11.035c-.032.013-.067.023-.105.037-.031.013-.064.019-.094.032-.064.018-.123.034-.188.056-.026 0-.051.015-.08.022-.039.013-.083.022-.126.034-.03.013-.054.017-.086.024a2.764 2.764 0 0 1-.138.035c-.06.014-.112.026-.169.037.398.147.812.221 1.259.221 8.336 0 16.742-14.94 30.65-39.785h-5.46l.001.005Z"/><path fill="url(#h)" d="M28.742 7.407c.005 0 .012-.013.015-.013.007 0 .017 0 .02-.013h.01c.047-.016.09-.035.136-.052.011 0 .018 0 .026-.013.012 0 .023-.013.035-.015.05-.015.099-.034.145-.051h.008c.11-.033.212-.074.32-.112.015 0 .03-.013.047-.013.045-.015.091-.03.137-.041.022-.013.043-.013.063-.02.048-.014.094-.03.138-.041.02 0 .038-.013.053-.014.153-.043.305-.082.459-.12.021 0 .04-.012.062-.013a.879.879 0 0 1 .134-.027c.02-.013.043-.013.066-.02.044-.013.087-.014.135-.025h.031c.093-.019.187-.034.279-.051h.056c.044-.014.084-.015.129-.023.024 0 .049-.013.072-.013.041 0 .083-.013.124-.019.021 0 .043 0 .067-.013.098-.013.198-.018.3-.026a9.265 9.265 0 0 0-.887-.046c-9.388 0-22.324 17.42-28.15 39.98h1.122a326.65 326.65 0 0 0 5.072-9.425C13.047 21.188 21.36 10.29 28.743 7.404"/><path fill="#0D82CA" d="M34.027 13.825a39.007 39.007 0 0 1 3.198-2.745 15.093 15.093 0 0 0-.761-1.473c-.86 1.042-1.644 2.418-2.437 4.218Z"/><path fill="#0D82CA" d="M34.798 7.539c.613.514 1.162 1.222 1.665 2.07.158-.195.318-.375.485-.543a9.413 9.413 0 0 0-2.269-1.588c.033.018.066.033.1.047 0 0 .013.013.019.013"/><path fill="url(#i)" d="M8.966 37.17c8.56-16.497 12.617-26.938 19.776-29.764C21.36 10.295 13.047 21.192 8.966 37.17Z"/><path fill="#127BCA" d="M36.947 9.065c-.166.17-.324.348-.484.543.269.45.52.94.763 1.472.317-.242.632-.471.945-.696a12.86 12.86 0 0 0-1.224-1.319Z"/><path fill="url(#j)" d="M12.852 46.52c-.053.013-.106.013-.155.02h-.03c-.044 0-.09.012-.132.012h-.021c-.107.013-.213.013-.315.021h-.033c8.665-.242 12.625-4.58 14.59-10.872 1.494-4.77 2.721-8.789 3.796-12.16-3.629 5.107-7.274 11.197-10.94 18.018-1.767 3.288-4.455 4.661-6.76 4.955"/><path fill="url(#k)" d="M12.852 46.517c2.305-.294 4.993-1.665 6.76-4.955 3.666-6.82 7.313-12.91 10.939-18.018 1.319-4.14 2.407-7.31 3.476-9.722C26.8 20.7 19.545 32.139 12.852 46.514"/><path fill="#05A1E6" d="M8.965 37.17a326.305 326.305 0 0 1-5.072 9.425H7.16a79.828 79.828 0 0 1 1.805-9.423"/><path fill="url(#l)" d="M31.509 6.694c-.027 0-.046.013-.07.013-.039.013-.08.013-.122.017-.024 0-.047 0-.072.013-.045.013-.086.014-.129.023-.02 0-.04 0-.056.013-.094.015-.186.033-.278.048h-.032c-.047.014-.09.02-.135.027-.023.013-.046.013-.068.018-.044.013-.089.019-.131.027-.024.013-.042.013-.063.014-.154.037-.305.077-.459.119-.016 0-.032.013-.052.015l-.139.041c-.02.013-.043.013-.063.019a3.838 3.838 0 0 0-.136.04c-.018 0-.033.014-.05.014-.105.04-.21.079-.318.112-.046.014-.096.033-.145.05-.02.013-.038.016-.061.025-.046.014-.092.033-.135.05-.017.013-.033.014-.045.021C21.59 10.24 17.535 20.68 8.974 37.177A79.49 79.49 0 0 0 7.168 46.6h.459c1.29 0 1.655-.013 3.14-.013h1.44c.102-.013.208-.013.315-.021h.02c.045 0 .089-.013.132-.013h.031c.048 0 .102-.013.155-.019 6.693-14.374 13.948-25.813 21.175-32.692.795-1.8 1.578-3.176 2.435-4.216-.501-.847-1.05-1.556-1.663-2.071 0 0-.017 0-.019-.013-.034-.014-.067-.032-.102-.049l-.1-.051a1.077 1.077 0 0 1-.1-.048c-.042-.013-.077-.031-.114-.049l-.091-.04a3.842 3.842 0 0 1-.19-.078c-.028-.013-.054-.02-.08-.03a2.728 2.728 0 0 1-.143-.057c-.023-.013-.05-.016-.075-.026-.068-.022-.134-.046-.197-.067h-.016c-.076-.025-.15-.043-.228-.064-.017-.014-.032-.014-.05-.016l-.192-.054c-.016 0-.031-.013-.044-.013a6.789 6.789 0 0 0-.477-.105c-.017 0-.033-.013-.05-.013a2.813 2.813 0 0 0-.205-.033c-.017-.013-.027-.013-.042-.013a5.482 5.482 0 0 0-.244-.031h-.043c-.065-.013-.126-.015-.187-.022-.104.014-.203.02-.3.028"/><path fill="url(#m)" d="M80.23 16.48c-1.648 5.276-2.981 9.629-4.142 13.21 4.52-6.22 8.971-14.043 13.21-23.072-4.945 1.553-7.583 5.108-9.068 9.862Z"/><path fill="url(#n)" d="M76.231 44.266c-.23.118-.462.23-.69.33 8.793-3.92 19.28-19.473 24.3-38.835h-1.017C87.288 26.366 83.578 40.16 76.23 44.266Z"/><path fill="#079AE1" d="M70.49 42.535c1.913-2.335 3.471-6.303 5.598-12.844-2.453 3.37-4.923 6.267-7.395 8.63 0 .013 0 .013-.013.02.54 1.617 1.131 3.043 1.806 4.194"/><path fill="#1969BC" d="M70.49 42.535c-.651.795-1.34 1.4-2.107 1.849-.168.097-.338.19-.511.273a7.409 7.409 0 0 0 3.121.884h.027c.067 0 .138 0 .21.014h.716c.026 0 .054 0 .08-.014.052 0 .106 0 .159-.013h.078c.054 0 .113-.013.171-.018h.013c.017 0 .036-.013.053-.013.06-.013.124-.019.183-.028h.054c.067-.013.137-.021.206-.034h.033c.139-.027.274-.053.41-.087-1.134-.416-2.084-1.395-2.901-2.79"/><path fill="#1E5CB3" d="M54.282 45.554c.822 0 1.653-.08 2.488-.24a15.42 15.42 0 0 0 2.32-.625 8.434 8.434 0 0 0 3.774.865h-8.582Z"/><path fill="#1E5CB3" d="M62.864 45.554c2.032 0 3.64-.24 5.008-.897a7.41 7.41 0 0 0 3.121.885h.026c.068 0 .139 0 .212.013h.246-8.619.006Z"/><path fill="#1D60B5" d="M71.482 45.554h.47c.028 0 .054 0 .08-.013.052 0 .106 0 .16-.013h.078c.055 0 .114-.013.17-.018h.015c.017 0 .034-.013.052-.013.06-.013.123-.018.182-.028.02 0 .036 0 .057-.013.067-.013.137-.02.206-.033h.033c.139-.026.274-.053.41-.087.398.147.812.221 1.259.221l-3.17.013-.002-.016Z"/><path fill="#175FAB" d="M68.685 38.342v-.013a39.585 39.585 0 0 1-2.71 2.376c-.472.374-.942.729-1.417 1.064.397.474.801.92 1.227 1.325a9.51 9.51 0 0 0 2.09 1.562c.172-.085.343-.177.51-.274.768-.448 1.457-1.054 2.109-1.848-.675-1.151-1.266-2.578-1.806-4.194"/><path fill="url(#o)" d="M95.602 5.76H90.48c-.277.014-.545.023-.811.04-.125.269-.254.538-.378.808-4.239 9.03-8.69 16.853-13.21 23.073-2.126 6.54-3.685 10.51-5.598 12.844.818 1.395 1.769 2.376 2.9 2.792.033-.013.06-.013.09-.02h.017c.02 0 .042-.013.063-.013.046-.013.096-.021.142-.036.03-.013.054-.014.084-.024.043-.013.087-.022.127-.033.026-.013.053-.017.08-.022.065-.021.124-.037.187-.057a.552.552 0 0 1 .094-.032c.036-.013.073-.022.106-.038.038-.013.076-.02.109-.034.03-.013.06-.021.088-.033.075-.026.147-.049.222-.078.02 0 .04-.018.06-.022.045-.02.091-.033.136-.053.016-.013.036-.015.057-.022.155-.064.315-.13.475-.202h.017c.228-.1.458-.213.688-.33 7.349-4.106 11.058-17.9 22.594-38.506h-3.222l.004-.001Z"/><path fill="#7DCBEC" d="M31.81 6.666c.018 0 .034 0 .052.013.045 0 .09 0 .134.015h.044c.081.013.162.02.244.031.015 0 .029 0 .041.013.068.013.137.024.207.035.015 0 .034.013.05.013.16.031.32.064.476.105.014 0 .03.013.043.013.066.016.125.036.19.054.02 0 .035.013.054.016.077.02.15.04.226.065.003 0 .007 0 .016.013.064.02.13.045.198.067a.338.338 0 0 0 .076.025c.046.02.097.04.142.058.026 0 .052.019.08.028.061.028.126.053.188.08.033.012.061.027.093.039a.812.812 0 0 0 .113.049l.1.047c.036.019.069.033.102.052a9.46 9.46 0 0 1 2.268 1.588c.258-.27.526-.513.805-.73-1.525-1.083-3.253-1.7-5.247-1.7-.23 0-.461.014-.696.031"/><path fill="#5EC5ED" d="M36.948 9.065c.427.398.836.841 1.223 1.32.374-.261.745-.512 1.118-.746a11.795 11.795 0 0 0-1.538-1.304 7.21 7.21 0 0 0-.803.73Z"/><path fill="url(#p)" d="M31.809 6.666a8.24 8.24 0 0 1 .696-.028c1.993 0 3.721.616 5.246 1.696 1.61-1.27 3.555-1.713 6.258-1.713H30.922c.302 0 .597.018.887.045Z"/><path fill="url(#q)" d="M44.009 6.621c-2.703 0-4.648.444-6.258 1.713.535.378 1.049.817 1.537 1.305 2.24-1.425 4.46-2.368 6.648-2.78a13.49 13.49 0 0 1 2.488-.238H44.01Z"/><path fill="url(#r)" d="M76.088 29.694c1.162-3.585 2.493-7.936 4.143-13.214 1.488-4.755 4.12-8.31 9.066-9.862.13-.265.254-.54.38-.808-8.06.483-11.828 4.584-13.725 10.657-3.315 10.602-5.324 17.474-7.258 21.854 2.47-2.361 4.94-5.26 7.394-8.627Z"/><path fill="#000" d="M87.914 42.73h-.913v2.84h-.373v-2.84h-.917v-.338h2.203v.338Zm3.37 2.839v-2.134c0-.168.013-.374.03-.617-.038.146-.07.246-.099.31l-1.082 2.44h-.18l-1.086-2.421a1.756 1.756 0 0 1-.098-.328h-.013c.013.127.018.334.018.621v2.129h-.356v-3.177h.49l.975 2.217c.074.167.12.295.144.381h.014c.065-.175.118-.305.154-.39l.994-2.208h.468v3.177h-.373Z"/><defs><linearGradient id="a" x1="47.575" x2="47.575" y1="6.362" y2="55.269" gradientUnits="userSpaceOnUse"><stop stop-color="#0994DC"/><stop offset=".35" stop-color="#66CEF5"/><stop offset=".846" stop-color="#127BCA"/><stop offset="1" stop-color="#127BCA"/></linearGradient><linearGradient id="b" x1="49.44" x2="49.44" y1="5.123" y2="55.277" gradientUnits="userSpaceOnUse"><stop stop-color="#0E76BC"/><stop offset=".36" stop-color="#36AEE8"/><stop offset=".846" stop-color="#00ADEF"/><stop offset="1" stop-color="#00ADEF"/></linearGradient><linearGradient id="c" x1="59.52" x2="59.52" y1="44.427" y2="4.521" gradientUnits="userSpaceOnUse"><stop stop-color="#1C63B7"/><stop offset=".5" stop-color="#33BDF2"/><stop offset="1" stop-color="#33BDF2" stop-opacity=".42"/></linearGradient><linearGradient id="d" x1="56.897" x2="56.897" y1=".042" y2="52.114" gradientUnits="userSpaceOnUse"><stop stop-color="#166AB8"/><stop offset=".4" stop-color="#36AEE8"/><stop offset=".846" stop-color="#0798DD"/><stop offset="1" stop-color="#0798DD"/></linearGradient><linearGradient id="e" x1="52.792" x2="52.792" y1=".315" y2="55.688" gradientUnits="userSpaceOnUse"><stop stop-color="#124379"/><stop offset=".39" stop-color="#1487CB"/><stop offset=".78" stop-color="#165197"/><stop offset="1" stop-color="#165197"/></linearGradient><linearGradient id="f" x1="30.553" x2="38.381" y1="17.313" y2="17.313" gradientUnits="userSpaceOnUse"><stop stop-color="#33BDF2" stop-opacity=".698"/><stop offset="1" stop-color="#1DACD8"/></linearGradient><linearGradient id="g" x1="89.349" x2="89.349" y1="43.427" y2="4.553" gradientUnits="userSpaceOnUse"><stop stop-color="#136AB4"/><stop offset=".6" stop-color="#59CAF5" stop-opacity=".549"/><stop offset="1" stop-color="#59CAF5" stop-opacity=".235"/></linearGradient><linearGradient id="h" x1="2.771" x2="31.809" y1="26.602" y2="26.602" gradientUnits="userSpaceOnUse"><stop stop-color="#05A1E6" stop-opacity=".247"/><stop offset="1" stop-color="#05A1E6"/></linearGradient><linearGradient id="i" x1="18.854" x2="18.854" y1="44.406" y2="4.602" gradientUnits="userSpaceOnUse"><stop stop-color="#318ED5"/><stop offset="1" stop-color="#38A7E4"/></linearGradient><linearGradient id="j" x1="21.359" x2="21.359" y1="44.547" y2="5.854" gradientUnits="userSpaceOnUse"><stop stop-color="#05A1E6"/><stop offset="1" stop-color="#05A1E6" stop-opacity=".549"/></linearGradient><linearGradient id="k" x1="23.439" x2="23.439" y1="46.521" y2="13.825" gradientUnits="userSpaceOnUse"><stop stop-color="#1959A6"/><stop offset=".5" stop-color="#05A1E6"/><stop offset=".918" stop-color="#7EC5EA"/><stop offset="1" stop-color="#7EC5EA"/></linearGradient><linearGradient id="l" x1="24.692" x2="13.609" y1="44.432" y2="10.562" gradientUnits="userSpaceOnUse"><stop stop-color="#165096"/><stop offset="1" stop-color="#0D82CA"/></linearGradient><linearGradient id="m" x1="82.692" x2="82.692" y1="24.383" y2="5.857" gradientUnits="userSpaceOnUse"><stop stop-color="#05A1E6"/><stop offset=".874" stop-color="#0495D6"/><stop offset="1" stop-color="#0495D6"/></linearGradient><linearGradient id="n" x1="91.4" x2="74.134" y1="4.144" y2="42.482" gradientUnits="userSpaceOnUse"><stop stop-color="#38A7E4" stop-opacity=".329"/><stop offset=".962" stop-color="#0E88D3"/><stop offset="1" stop-color="#0E88D3"/></linearGradient><linearGradient id="o" x1="84.657" x2="84.657" y1="5.644" y2="46.061" gradientUnits="userSpaceOnUse"><stop stop-color="#168CD4"/><stop offset=".5" stop-color="#1C87CC"/><stop offset="1" stop-color="#154B8D"/></linearGradient><linearGradient id="p" x1="33.104" x2="33.279" y1="4.813" y2="9.052" gradientUnits="userSpaceOnUse"><stop stop-color="#97D6EE"/><stop offset=".703" stop-color="#55C1EA"/><stop offset="1" stop-color="#55C1EA"/></linearGradient><linearGradient id="q" x1="38.487" x2="39.278" y1="9.448" y2="4.958" gradientUnits="userSpaceOnUse"><stop stop-color="#7ACCEC"/><stop offset="1" stop-color="#3FB7ED"/></linearGradient><linearGradient id="r" x1="79.185" x2="79.185" y1="7.879" y2="47.411" gradientUnits="userSpaceOnUse"><stop stop-color="#1DA7E7"/><stop offset="1" stop-color="#37ABE7" stop-opacity="0"/></linearGradient></defs></svg>