<svg xmlns="http://www.w3.org/2000/svg" width="171" height="69" fill="none"><path fill="#050038" fill-rule="evenodd" d="M146.844 21.686c11.959 0 19.881 8.315 19.881 20.866 0 12.55-7.922 20.942-19.881 20.942-12.416 0-20.719-8.392-20.719-20.942s8.303-20.866 20.719-20.866Zm-63.824.842v40.124l-8.939-1.838V24.289l8.939-1.76Zm35.793-.932v9.417l-5.151.954c-4.426.85-7.273 3.153-7.273 8.248v22.437l-8.938-1.838V38.848c0-10.903 6.384-14.146 16.211-16.41l5.151-.842Zm-94.994.09c3.508 0 7.81 1.962 10.236 5.477 2.434-3.201 6.504-5.302 11.499-5.37 6.286-.086 14.096 3.875 14.096 15.743v25.116l-8.938-1.838V37.536c0-3.981-2.879-6.815-7.121-6.815-4.242 0-7.121 2.834-7.121 6.815v25.116l-8.939-1.838V37.536c0-3.981-2.878-6.815-7.12-6.815-4.319 0-7.197 2.834-7.197 6.815v25.116l-8.939-1.838V24.289l8.939-1.76v4.134c2.5-3.063 6.287-4.977 10.605-4.977Zm123.025 8.47c-6.932 0-11.578 4.927-11.578 12.396 0 7.468 4.646 12.473 11.578 12.473 6.474 0 10.74-5.005 10.74-12.473 0-7.469-4.266-12.397-10.74-12.397ZM78.74 4.905c3.253 0 5.407 2.261 5.407 5.675 0 3.413-2.154 5.696-5.407 5.696-3.377 0-5.635-2.283-5.635-5.696 0-3.414 2.258-5.675 5.635-5.675Z" clip-rule="evenodd"/></svg>