<svg xmlns="http://www.w3.org/2000/svg" width="278" height="42" fill="none"><path fill="#EA1B22" d="M120.745 26.083h17.663l-9.34-15.026-17.142 27.168h-7.801l20.85-32.635c.907-1.318 2.417-2.115 4.093-2.115 1.621 0 3.132.77 4.011 2.06l20.932 32.69h-7.801l-3.681-6.071h-17.884l-3.9-6.07Zm81.037 6.071V3.804h-6.62V34.93c0 .851.33 1.675.961 2.307a3.384 3.384 0 0 0 2.418.989h30.19l3.9-6.071h-30.849ZM92.258 27.072c6.428 0 11.647-5.192 11.647-11.62 0-6.428-5.219-11.647-11.647-11.647H63.296v34.42h6.617V9.875h21.905c3.077 0 5.55 2.5 5.55 5.577s-2.473 5.577-5.55 5.577L73.155 21l19.762 17.224h9.615L89.236 27.072h3.022Zm-69.7 11.153c-9.503 0-17.214-7.692-17.214-17.197 0-9.504 7.711-17.223 17.213-17.223h20.007c9.505 0 17.21 7.719 17.21 17.224 0 9.504-7.705 17.196-17.21 17.196H22.557Zm19.56-6.071c6.157 0 11.143-4.972 11.143-11.126 0-6.153-4.986-11.152-11.142-11.152h-19.12c-6.153 0-11.142 5-11.142 11.153 0 6.153 4.99 11.125 11.143 11.125h19.119Zm125.711 6.071c-9.505 0-17.224-7.692-17.224-17.197 0-9.504 7.719-17.223 17.224-17.223h23.762l-3.874 6.07h-19.449c-6.153 0-11.153 5-11.153 11.154 0 6.153 5 11.125 11.153 11.125h23.872l-3.901 6.071h-20.41Zm80.955-6.071a11.126 11.126 0 0 1-10.714-8.104h28.295l3.901-6.07H238.07c1.319-4.67 5.632-8.104 10.714-8.104h19.422l3.928-6.071h-23.79c-9.504 0-17.223 7.719-17.223 17.224 0 9.504 7.719 17.196 17.223 17.196h20.411l3.901-6.071h-23.872Z"/></svg>