<svg xmlns="http://www.w3.org/2000/svg" width="134" height="88" fill="none"><path fill="#4484BF" fill-rule="evenodd" d="M126.96 38.796c0 2.349-1.79 4.363-4.138 4.363-2.015 0-3.804-1.79-3.804-3.803 0-.336.112-.783.224-1.118h-.224c-3.915 2.908-5.817 13.535-6.936 17.227h-7.83l5.145-17.563-3.132-.112.894-2.35h10.627l-1.006 3.469c1.342-2.126 3.58-3.915 6.264-3.915 2.126-.001 3.916 1.677 3.916 3.802Zm3.69 4.698c0-27.63-41.947-37.587-63.761-37.587-21.366 0-63.539 9.844-63.539 37.363 0 15.326 14.094 25.728 26.96 30.986h.111l12.193-41.948c2.573-8.95 6.488-18.234 17.339-18.234 3.803 0 8.837 1.678 8.837 6.376 0 2.573-1.901 5.033-4.586 5.033-2.237 0-4.139-1.789-4.139-4.026 0-2.685 2.013-4.027 4.474-4.139-.783-1.455-2.572-2.014-4.139-2.014-7.382 0-9.06 15.102-10.627 20.136h13.535l-5.816 20.024h-7.83L54.807 37.9h-5.704l-7.831 26.512c-1.23 4.251-2.796 8.166-3.58 12.53 9.285 2.796 19.241 4.25 28.973 4.25 21.703 0 63.985-9.507 63.985-37.698Zm-26.622-1.342c0 1.342-.223 2.797-.671 4.027h-13.76c-.558 1.678-1.23 3.691-1.23 5.48 0 1.567.895 2.238 2.237 2.238 2.573 0 3.467-3.691 4.138-5.593h8.056c-1.567 5.035-6.937 8.167-11.97 8.167-5.37 0-9.397-2.686-9.397-8.39 0-7.495 5.93-13.648 13.536-13.648 4.699 0 9.061 2.238 9.061 7.719ZM83.781 35.44 71.587 53.114l7.16.112-.671 2.238h-17.34l12.082-17.675H65.77l.671-2.349h17.34Zm-43.74-2.237c0 10.179-7.383 12.976-16.22 12.976h-2.125l-2.908 9.285h-7.831l7.83-27.407v-.112h-3.355l.559-2.348h14.542c5.146 0 9.508 1.677 9.508 7.606ZM96.98 39.02c0-1.23-.894-2.125-2.125-2.125-2.907 0-3.915 4.698-4.474 6.936h5.593c.335-1.68 1.006-3.245 1.006-4.811Zm-65.105-7.943c0-2.237-1.23-3.132-3.468-3.132h-1.342L22.367 43.83h1.566c5.593.112 7.942-8.054 7.942-12.753Z" clip-rule="evenodd"/></svg>