<svg xmlns="http://www.w3.org/2000/svg" width="211" height="56" fill="none"><path fill="#E00" d="M48.498 31.023c3.985 0 9.75-.822 9.75-5.562a4.46 4.46 0 0 0-.099-1.09l-2.373-10.307c-.548-2.268-1.029-3.297-5.01-5.288-3.09-1.58-9.821-4.189-11.812-4.189-1.854 0-2.392 2.389-4.603 2.389-2.128 0-3.707-1.784-5.698-1.784-1.912 0-3.157 1.303-4.12 3.982 0 0-2.678 7.556-3.022 8.651a2.05 2.05 0 0 0-.07.618c0 2.937 11.563 12.567 27.057 12.567v.012Zm10.362-3.638c.55 2.609.55 2.883.55 3.227 0 4.46-5.013 6.934-11.604 6.934-14.895.01-27.942-8.718-27.942-14.487 0-.803.163-1.598.481-2.335-5.358.268-12.292 1.223-12.292 7.346 0 10.027 23.76 22.386 42.572 22.386 14.424 0 18.062-6.523 18.062-11.674 0-4.052-3.504-8.651-9.821-11.397"/><path fill="#000" d="M58.86 27.385c.55 2.609.55 2.883.55 3.227 0 4.46-5.013 6.934-11.603 6.934-14.895.01-27.943-8.718-27.943-14.487 0-.803.163-1.598.481-2.335l1.166-2.886a2.05 2.05 0 0 0-.07.605c0 2.937 11.563 12.567 27.057 12.567 3.985 0 9.75-.822 9.75-5.562a4.46 4.46 0 0 0-.099-1.09l.71 3.027Zm133.703 6.603c0 3.787 2.278 5.629 6.431 5.629a16.605 16.605 0 0 0 3.788-.536V34.69a7.914 7.914 0 0 1-2.447.37c-1.71 0-2.344-.536-2.344-2.145v-6.73h4.957V21.66h-4.957v-5.733l-5.415 1.172v4.561h-3.596v4.524h3.583v7.804Zm-16.882.102c0-1.172 1.175-1.743 2.949-1.743 1.085.007 2.165.142 3.218.402v2.277a6.855 6.855 0 0 1-3.387.838c-1.739 0-2.78-.669-2.78-1.774Zm1.656 5.593c1.911 0 3.453-.401 4.893-1.373v1.074h5.358v-11.36c0-4.319-2.912-6.688-7.77-6.688-2.714 0-5.396.637-8.282 1.943l1.943 3.988c2.077-.873 3.823-1.408 5.361-1.408 2.23 0 3.383.87 3.383 2.647v.87a15.774 15.774 0 0 0-4.02-.504c-4.558 0-7.304 1.911-7.304 5.33 0 3.115 2.479 5.49 6.432 5.49l.006-.009Zm-29.452-.29h5.762v-9.19h9.649v9.181h5.778v-23.45h-5.756v9.01h-9.648v-9.01h-5.763l-.022 23.46Zm-21.935-8.887c0-2.548 2.01-4.491 4.657-4.491a5.483 5.483 0 0 1 3.746 1.376v6.196a5.21 5.21 0 0 1-3.746 1.42c-2.612 0-4.657-1.943-4.657-4.488v-.013Zm8.477 8.89h5.361V14.762l-5.415 1.172V22.6a9.018 9.018 0 0 0-4.524-1.172c-5.157 0-9.212 3.985-9.212 9.078a9 9 0 0 0 9.047 9.11 8 8 0 0 0 4.755-1.538l-.012 1.319ZM109.826 25.77c1.707 0 3.147 1.105 3.717 2.812h-7.39c.535-1.761 1.876-2.812 3.673-2.812Zm-9.133 4.778c0 5.16 4.221 9.18 9.646 9.18 2.981 0 5.16-.806 7.406-2.682l-3.587-3.185c-.838.872-2.077 1.34-3.548 1.34a4.583 4.583 0 0 1-4.358-2.812h12.63V31.04c0-5.628-3.784-9.68-8.945-9.68a9.102 9.102 0 0 0-9.237 9.177l-.007.01Zm-9.342-9.69c1.91 0 2.981 1.204 2.981 2.647 0 1.443-1.07 2.647-2.981 2.647h-5.699v-5.294h5.699ZM79.883 39.384h5.763v-8.543h4.386l4.424 8.543h6.451l-5.16-9.381a7.094 7.094 0 0 0 4.421-6.6c0-4.22-3.316-7.47-8.282-7.47H79.883v23.451Z"/></svg>