<svg xmlns="http://www.w3.org/2000/svg" width="182" height="64" fill="none"><path fill="#015A9C" d="M159.792 12.658a2.28 2.28 0 0 0-.551 1.533c0 .401.084.767.25 1.096.168.33.395.59.683.781a1.7 1.7 0 0 0 .959.287c.518 0 .965-.21 1.341-.63.376-.421.564-.932.564-1.534 0-.592-.188-1.103-.564-1.533-.376-.43-.823-.645-1.341-.645-.526 0-.973.215-1.341.645Zm-98.248.132c-.945.517-1.647 1.209-2.106 2.075-.46.867-.69 1.837-.69 2.909 0 1.11.227 2.073.682 2.887a6.453 6.453 0 0 0 1.758 2.032 15.02 15.02 0 0 0 2.504 1.5c.87.394 1.53.773 1.986 1.141.455.37.683.821.683 1.357 0 .297-.133.616-.397.955-.263.34-.843.51-1.74.51a6.18 6.18 0 0 1-2.733-.618c-.85-.412-1.714-.93-2.594-1.553v4.896a14.93 14.93 0 0 0 2.703 1.067c.865.24 1.559.386 2.081.44.523.051.964.078 1.323.078 1.288 0 2.43-.242 3.424-.726.994-.485 1.77-1.184 2.326-2.096.556-.911.834-1.991.834-3.24 0-1.12-.227-2.054-.681-2.805-.455-.752-1.084-1.414-1.885-1.989-.801-.574-1.87-1.22-3.205-1.938-.759-.411-1.286-.76-1.581-1.048a1.375 1.375 0 0 1-.443-1.02c0-.42.146-.775.44-1.062.292-.287.765-.43 1.418-.43.997 0 1.932.23 2.807.69.875.46 1.668.981 2.38 1.566v-4.672c-.2-.154-.569-.364-1.104-.632-.535-.268-1.214-.51-2.038-.726a10.612 10.612 0 0 0-2.69-.324c-1.363 0-2.517.26-3.462.776Zm89.956.415-6.058 7.048v.901h2.047v5.843c0 3.646 1.625 5.47 4.876 5.47.753 0 1.542-.12 2.366-.361.825-.24 1.471-.49 1.941-.75v-4.052c-1.173.69-2.118 1.035-2.838 1.035-.553 0-.964-.112-1.236-.337a1.367 1.367 0 0 1-.497-.84 8.054 8.054 0 0 1-.087-1.323v-4.684h4.319v-3.578h-4.319v-4.372h-.514Zm-46.278 4.848c-.781.48-1.535 1.19-2.262 2.132a4.61 4.61 0 0 0-.742-1.34 3.746 3.746 0 0 0-1.038-.907 4.203 4.203 0 0 0-1.163-.468 5.518 5.518 0 0 0-1.244-.137c-.922 0-1.736.187-2.44.562-.704.374-1.395.975-2.074 1.8v-2.118h-4.525v14.645h4.525v-8.586c.067-.096.226-.33.478-.704.252-.373.466-.655.642-.847.175-.191.404-.364.685-.517.282-.153.59-.23.925-.23.704 0 1.194.268 1.471.804.278.537.416 1.297.416 2.283v7.797h4.525v-8.586c.399-.66.799-1.209 1.199-1.644.4-.436.913-.654 1.538-.654.64 0 1.109.256 1.405.768.295.512.444 1.285.444 2.319v7.797h4.525-.001v-8.926c0-1.264-.165-2.34-.496-3.226-.33-.886-.84-1.564-1.529-2.034-.689-.469-1.544-.703-2.563-.703-1.019 0-1.92.24-2.701.72Zm64.343.084c-.964.536-1.7 1.201-2.208 1.996a8.04 8.04 0 0 0-1.069 2.47c-.205.852-.307 1.603-.307 2.254s.1 1.402.3 2.254c.2.852.561 1.687 1.082 2.505.521.82 1.263 1.499 2.226 2.04.963.54 2.144.81 3.542.81a9.962 9.962 0 0 0 3.126-.483c.418-.14.816-.29 1.192-.455h.001v-4.08c-.829.287-1.532.508-2.11.661-.577.154-1.092.23-1.544.23-.477 0-.954-.123-1.431-.371-.477-.248-.871-.635-1.18-1.163-.31-.528-.465-1.177-.465-1.948 0-1.16.312-2.017.936-2.569.623-.551 1.336-.828 2.14-.828.829 0 1.98.27 3.453.806v-4.081a12.846 12.846 0 0 0-1.808-.62c-.594-.155-1.364-.232-2.31-.232-1.415 0-2.603.268-3.566.804Zm-32.678-.278c-.716.35-1.431.963-2.143 1.836v-2.118h-4.525v14.645h4.525v-8.587a31.1 31.1 0 0 1 .465-.732c.152-.23.338-.47.56-.718.222-.249.474-.452.755-.61.281-.158.606-.237.975-.237.78 0 1.285.3 1.516.897.23.599.345 1.3.345 2.104v7.883h4.525v-8.595c0-4.196-1.534-6.294-4.602-6.294-.88 0-1.679.175-2.396.526Zm-59.72.443a6.124 6.124 0 0 0-2.483 2.671c-.55 1.134-.824 2.42-.824 3.855 0 1.455.275 2.756.824 3.905a6.31 6.31 0 0 0 2.483 2.728c1.107.67 2.447 1.005 4.023 1.005 1.458 0 2.66-.16 3.602-.483.943-.321 1.746-.679 2.408-1.073v-3.194c-1.845.966-3.53 1.449-5.055 1.449a3.606 3.606 0 0 1-2.34-.838 3.608 3.608 0 0 1-1.294-2.159h9.016v-1.036c0-1.842-.312-3.346-.937-4.511s-1.42-2.005-2.389-2.518c-.968-.513-1.971-.77-3.01-.77-1.577 0-2.917.323-4.024.969Zm1.917 3.065c.465-.57 1.074-.855 1.829-.855.763 0 1.348.28 1.754.84.407.561.61 1.31.61 2.248h-4.892c0-.919.233-1.663.699-2.233Zm39.87-3.816a9.679 9.679 0 0 0-2.045.655 8.043 8.043 0 0 0-1.819 1.132v3.972a9.796 9.796 0 0 1 2.318-1.927 5.3 5.3 0 0 1 2.743-.747c.835 0 1.378.2 1.628.602.251.402.376.957.376 1.664a3.88 3.88 0 0 1-.501.258c-.158.066-.399.16-.72.28l-1.422.523c-1.102.4-1.988.788-2.655 1.16a4.563 4.563 0 0 0-1.597 1.442c-.397.589-.595 1.332-.595 2.23 0 .593.115 1.17.344 1.729.23.559.63 1.023 1.203 1.39.572.369 1.321.553 2.249.553.96 0 1.736-.146 2.33-.438a6.695 6.695 0 0 0 1.616-1.11c.126.43.335.796.628 1.097.293.3.813.451 1.559.451.787 0 1.461-.092 2.022-.273a18.404 18.404 0 0 0 1.835-.717v-2.711c-.486.278-.871.417-1.155.417-.235 0-.396-.131-.484-.395-.087-.263-.132-.663-.132-1.2v-5.643c0-1.436-.466-2.563-1.398-3.382-.933-.82-2.323-1.229-4.171-1.229-.727 0-1.446.073-2.157.217Zm.484 11.746c-.247-.258-.37-.631-.37-1.12 0-.679.247-1.217.741-1.614.493-.397 1.276-.844 2.347-1.342v3.46a8.042 8.042 0 0 1-.935.71c-.306.196-.613.294-.923.294-.327 0-.613-.13-.86-.388Zm39.439 2.925h4.524V17.577h-4.524v14.645Zm-55.056 4.098v19.934h4.525v-1.337c.293.288.575.535.847.74.272.207.652.399 1.142.576.489.177 1.069.266 1.739.266.929 0 1.841-.263 2.737-.79.895-.527 1.63-1.349 2.208-2.465.577-1.115.867-2.52.867-4.216 0-.995-.122-1.945-.365-2.85a7.954 7.954 0 0 0-1.111-2.445 5.438 5.438 0 0 0-1.927-1.729c-.786-.426-1.694-.64-2.723-.64-.77 0-1.448.113-2.033.338-.586.224-1.046.485-1.381.781V36.32h-4.525Zm4.526 15.263v-5.585c.848-.622 1.613-.933 2.293-.933.68 0 1.268.328 1.764.984.495.655.743 1.61.743 2.863 0 1.427-.277 2.4-.832 2.922-.554.521-1.112.782-1.675.782-.891 0-1.655-.344-2.293-1.033ZM82.245 36.321 78.466 47.36 74.4 36.32h-3.754l-4.144 11.04-3.616-11.04H57.45l7.382 20.18h3.064l4.632-11.74 4.52 11.74h3.038l7.533-20.178h-5.374Zm8.676 6.014a6.123 6.123 0 0 0-2.483 2.67c-.549 1.134-.823 2.42-.823 3.855 0 1.456.274 2.757.824 3.905a6.311 6.311 0 0 0 2.482 2.728c1.107.67 2.448 1.006 4.024 1.006 1.458 0 2.659-.16 3.602-.483.943-.322 1.745-.68 2.407-1.074v-3.193c-1.844.966-3.53 1.449-5.055 1.449a3.606 3.606 0 0 1-2.338-.838 3.605 3.605 0 0 1-1.295-2.159h9.016-.001v-1.036c0-1.842-.312-3.346-.937-4.512-.624-1.165-1.42-2.004-2.388-2.518-.968-.513-1.972-.77-3.011-.77-1.576 0-2.917.324-4.024.97Zm1.917 3.065c.465-.57 1.075-.855 1.83-.855.762 0 1.347.28 1.754.84.406.56.61 1.31.61 2.248H92.14c0-.919.233-1.663.698-2.233Z"/><path fill="#86BA0C" d="M29.96 11.2c-1.693-.763-2.099-.981-2.169-1.04L5.622 19.253l22.2 10.822s1.715-.72 4.476-2.062c13.552-6.58 16.49-22.69 16.49-22.69S45.418 18.165 29.96 11.2Zm-2.169-1.04.032-.012s-.022-.006-.035-.006c-.01 0-.015.004.003.019Z"/><path fill="#EF7C00" d="m4.55 47.178 20.685 11.2V34.595L4.55 24.079v23.099Z"/><path fill="#BD1789" d="M29.89 34.596v23.782l20.685-11.2V24.08L29.89 34.596Z"/></svg>