<svg xmlns="http://www.w3.org/2000/svg" width="162" height="72" fill="none"><path fill="#10298E" fill-rule="evenodd" d="M95.365 28.817h6.001c1.902-.071 3.06-.224 3.476-.462.569-.326.951-.979 1.141-1.957.121-.652.182-1.62.182-2.907 0-1.576-.121-2.744-.363-3.507-.346-1.069-1.176-1.72-2.489-1.956-.259-.036-.881-.055-1.866-.055h-6.082v10.844ZM85.74 47.083V9.818h17.933c2.459 0 4.336.21 5.626.628 2.949.963 4.928 2.934 5.942 5.914.523 1.564.784 3.918.784 7.062 0 3.78-.29 6.496-.864 8.15-1.15 3.27-3.518 5.154-7.093 5.643-.42.073-2.209.138-5.366.19l-1.598.056h-5.739v9.622H85.74ZM37.41 21.706h8.954a29 29 0 0 0 .086-1.851c0-5.021-1.948-8.077-5.844-9.168-1.597-.446-4.275-.671-8.034-.671-2.387 0-4.557.09-6.513.268-2.351.197-4.283.857-5.792 1.98-1.03.732-1.777 1.802-2.24 3.212-.464 1.409-.696 3.283-.696 5.619 0 3.068.43 5.361 1.286 6.877.975 1.784 2.929 2.959 5.86 3.53 1.114.199 3.102.404 5.963.616 3.564.25 5.561.448 5.99.59 1.148.357 1.723 1.355 1.723 2.996 0 .732-.069 1.33-.206 1.793-.258.752-.798 1.295-1.621 1.632-.462.18-1.535.27-3.215.27H29.82c-.877-.02-1.622-.188-2.24-.508-.89-.463-1.337-1.504-1.337-3.122v-.775h-8.955c0 3.032.213 5.198.643 6.499.773 2.336 2.37 3.888 4.792 4.654 1.973.625 5.468.936 10.483.936 3.004 0 5.237-.143 6.697-.43 3.485-.678 5.725-2.291 6.722-4.846.55-1.392.825-3.59.825-6.59a30.6 30.6 0 0 0-.18-3.508c-.207-1.73-.853-3.132-1.936-4.204-1.377-1.374-3.596-2.223-6.656-2.544-.964-.107-3.382-.296-7.252-.563l-1.805-.133c-.793-.053-1.429-.232-1.91-.536-.672-.428-1.007-1.321-1.007-2.678 0-1.499.379-2.472 1.135-2.92.756-.446 2.306-.669 4.643-.669 2.407 0 3.878.388 4.411 1.162.344.523.516 1.55.516 3.082ZM17.321 54.472l1.343-.14c.08.471.245.817.491 1.038.248.221.58.332 1 .332.445 0 .78-.098 1.005-.295.225-.196.337-.426.337-.689a.672.672 0 0 0-.141-.43c-.095-.12-.26-.222-.495-.31-.161-.058-.528-.16-1.102-.309-.738-.19-1.255-.424-1.553-.702a1.882 1.882 0 0 1-.627-1.43 1.875 1.875 0 0 1 1.149-1.734c.371-.164.82-.247 1.344-.247.857 0 1.503.197 1.936.59.433.392.66.916.683 1.572l-1.383.056c-.06-.366-.186-.63-.38-.79-.194-.16-.485-.241-.874-.241-.4 0-.714.086-.94.258a.524.524 0 0 0-.22.441c0 .169.069.313.205.433.174.152.596.31 1.267.474.67.165 1.166.336 1.488.513.32.176.572.418.754.725.181.307.273.686.273 1.137 0 .41-.11.793-.327 1.15a1.978 1.978 0 0 1-.923.796c-.398.174-.894.26-1.488.26-.864 0-1.528-.208-1.992-.627-.463-.419-.74-1.028-.83-1.83Zm6.993-2.825h1.315v5.157h-1.315v-5.157Zm0-1.963h1.317v1.26h-1.317v-1.26Zm6.138 7.12h1.315v-3.21c0-.4-.024-.706-.073-.92a1.535 1.535 0 0 0-.256-.574 1.333 1.333 0 0 0-.543-.416 1.895 1.895 0 0 0-.792-.163c-.655 0-1.2.294-1.63.885v-.758h-1.22v5.156h1.314v-2.34c0-.578.033-.974.1-1.187a1.014 1.014 0 0 1 .977-.71.752.752 0 0 1 .453.135c.125.09.215.219.271.383.056.163.084.524.084 1.082v2.637Zm3.975-2.69c0 .55.1.951.303 1.206.201.255.45.382.747.382.317 0 .585-.13.804-.392.219-.26.329-.648.329-1.161 0-.536-.105-.934-.315-1.194a.98.98 0 0 0-.795-.39.942.942 0 0 0-.77.383c-.203.256-.303.644-.303 1.167Zm-1.18 3.03 1.491.169c.026.192.083.324.173.396.125.103.322.155.59.155.343 0 .6-.053.772-.16a.66.66 0 0 0 .262-.345c.04-.114.061-.322.061-.627l.004-.753c-.388.55-.88.825-1.477.825-.666 0-1.193-.293-1.581-.88-.305-.464-.458-1.042-.458-1.732 0-.867.2-1.528.6-1.985.4-.458.896-.686 1.49-.686.613 0 1.118.28 1.517.841v-.714h1.22v4.635c0 .61-.048 1.066-.145 1.367-.096.302-.231.538-.406.71a1.78 1.78 0 0 1-.698.404c-.291.097-.659.146-1.104.146-.84 0-1.436-.151-1.788-.453a1.445 1.445 0 0 1-.528-1.147c0-.046.002-.101.005-.167Zm7.554-7.46h-1.315v7.12h1.315v-7.12Zm4.581 4.113c-.009-.402-.108-.707-.296-.917a.888.888 0 0 0-.685-.314.898.898 0 0 0-.714.331c-.188.22-.28.52-.277.9h1.972Zm-.07 1.383 1.301.226c-.168.497-.434.876-.797 1.136-.363.26-.818.39-1.363.39-.864 0-1.503-.295-1.918-.883-.327-.47-.49-1.065-.49-1.784 0-.857.214-1.53.645-2.016.43-.486.973-.728 1.63-.728.74 0 1.322.255 1.749.764.427.51.63 1.291.612 2.344h-3.294c.009.406.116.721.32.947a.987.987 0 0 0 .762.338.795.795 0 0 0 .523-.174c.14-.115.248-.302.32-.56Zm5.672-5.496v7.12h5.193v-1.2h-3.81v-1.936h3.417v-1.2h-3.417v-1.583h3.674v-1.201h-5.057Zm9.894 7.12v-.773a1.984 1.984 0 0 1-.713.657 1.908 1.908 0 0 1-.932.243c-.334 0-.633-.076-.898-.229a1.332 1.332 0 0 1-.574-.642c-.119-.276-.178-.657-.178-1.143v-3.27H58.9v2.372c0 .726.024 1.17.073 1.334a.726.726 0 0 0 .263.39.787.787 0 0 0 .485.142 1 1 0 0 0 .602-.191.97.97 0 0 0 .364-.477c.065-.19.098-.654.098-1.392v-2.178H62.1v5.157h-1.22Zm2.795 0h1.315V55.21c0-.878.037-1.456.11-1.73.073-.276.174-.466.302-.572a.715.715 0 0 1 .468-.158c.19 0 .397.075.618.223l.4-1.194a1.613 1.613 0 0 0-.863-.258c-.212 0-.4.057-.567.17-.167.114-.354.344-.563.69v-.733h-1.22v5.156Zm5.086-2.578c0 .514.116.907.35 1.18.234.273.522.41.865.41.343 0 .63-.137.863-.41.232-.273.349-.67.349-1.19 0-.506-.117-.897-.349-1.17a1.089 1.089 0 0 0-.862-.409c-.344 0-.632.136-.866.41-.234.272-.35.666-.35 1.179Zm-1.343-.073c0-.455.108-.895.322-1.321.215-.426.518-.75.912-.975a2.613 2.613 0 0 1 1.318-.336c.749 0 1.363.254 1.842.762.478.509.718 1.152.718 1.928 0 .784-.242 1.433-.726 1.948-.483.515-1.092.773-1.825.773-.454 0-.887-.108-1.299-.322a2.155 2.155 0 0 1-.94-.943c-.214-.415-.322-.919-.322-1.514Zm10.777-1.233v-2.035h.664c.497 0 .826.017.99.05a.94.94 0 0 1 .554.317c.146.17.219.385.219.646a.995.995 0 0 1-.156.557.913.913 0 0 1-.43.353c-.183.075-.546.112-1.088.112h-.753Zm-1.383-3.236v7.12h1.383V54.12h.899c.623 0 1.1-.034 1.429-.102a1.953 1.953 0 0 0 1.294-1.04c.153-.298.228-.665.228-1.102 0-.567-.131-1.03-.396-1.387-.264-.358-.591-.591-.983-.698-.255-.071-.802-.107-1.64-.107H76.81Zm9.368 4.648a7.867 7.867 0 0 1-.797.21c-.363.081-.601.162-.712.24a.579.579 0 0 0-.256.483.69.69 0 0 0 .204.498c.137.14.31.21.522.21.236 0 .46-.08.675-.243a.861.861 0 0 0 .312-.455c.034-.117.052-.34.052-.67v-.273Zm-1.765-1.116-1.18-.226c.134-.5.364-.869.69-1.109.327-.24.812-.36 1.455-.36.585 0 1.02.072 1.306.216.286.145.488.328.604.55.117.222.176.63.176 1.224l-.014 1.596c0 .454.02.789.063 1.004.042.216.12.447.235.693h-1.301a4.817 4.817 0 0 1-.127-.397 3.161 3.161 0 0 0-.046-.158 2.367 2.367 0 0 1-.717.512c-.255.114-.526.17-.815.17-.51 0-.911-.144-1.205-.432-.293-.29-.44-.655-.44-1.096 0-.291.067-.552.2-.78a1.33 1.33 0 0 1 .563-.526c.241-.121.589-.229 1.042-.32.613-.12 1.037-.23 1.273-.335v-.138c0-.266-.062-.455-.187-.569-.125-.112-.361-.169-.708-.169-.234 0-.417.048-.549.144-.131.096-.237.265-.318.506Zm5.39-1.569H88.41l1.886 5.17c-.078.292-.19.532-.337.721-.147.188-.373.283-.68.283a2.76 2.76 0 0 1-.558-.064l.122 1.07c.243.054.491.082.743.082.25 0 .473-.028.67-.083.198-.055.364-.133.5-.232.135-.098.255-.228.36-.386.104-.16.214-.39.329-.692l2.063-5.869H92.15l-1.16 3.661-1.186-3.661Zm4.728 0h1.206v.705c.434-.554.95-.831 1.549-.831.317 0 .593.068.827.204.234.136.425.342.575.618.218-.276.453-.482.705-.618.252-.136.52-.204.807-.204.365 0 .673.077.925.231.252.154.441.38.565.679.09.22.135.577.135 1.07v3.303h-1.315v-2.953c0-.513-.045-.843-.135-.992-.121-.196-.308-.293-.559-.293a.865.865 0 0 0-.517.175.971.971 0 0 0-.35.514c-.07.225-.107.581-.107 1.068v2.481h-1.315v-2.831c0-.504-.023-.828-.07-.974a.618.618 0 0 0-.216-.326.665.665 0 0 0-.398-.107.925.925 0 0 0-.545.17.936.936 0 0 0-.348.492c-.07.214-.104.569-.104 1.065v2.511h-1.315v-5.156Zm11.531 1.233c.188.21.287.515.296.917h-1.972c-.003-.38.089-.68.277-.9a.897.897 0 0 1 .713-.331c.27 0 .499.105.686.314Zm1.527 2.526-1.301-.226c-.072.258-.179.445-.321.56a.793.793 0 0 1-.522.174.984.984 0 0 1-.762-.338c-.204-.226-.311-.541-.321-.947h3.295c.019-1.053-.186-1.833-.612-2.344-.427-.51-1.01-.764-1.749-.764-.657 0-1.2.242-1.631.728-.429.486-.645 1.159-.645 2.016 0 .719.164 1.313.491 1.784.415.588 1.054.883 1.917.883.546 0 1-.13 1.364-.39.363-.26.629-.64.797-1.136Zm5.92 1.398h-1.315v-2.637c0-.558-.028-.919-.083-1.083a.764.764 0 0 0-.272-.382.751.751 0 0 0-.452-.136 1.011 1.011 0 0 0-.978.71c-.066.214-.099.61-.099 1.188v2.34h-1.315v-5.156h1.22v.758c.432-.59.975-.885 1.631-.885.289 0 .553.054.792.163.239.108.42.247.543.416.123.169.208.36.256.574.049.214.072.52.072.92v3.21Zm3.881-4.069v-1.088h-.895v-1.836l-1.315.805v1.031h-.597v1.088h.597v2.254c0 .483.013.805.041.964.034.224.095.401.183.532.088.132.227.24.415.322.189.083.4.124.636.124.383 0 .726-.068 1.029-.204l-.115-1.057c-.226.087-.398.131-.518.131a.35.35 0 0 1-.217-.068.295.295 0 0 1-.114-.173c-.017-.07-.025-.316-.025-.739v-2.086h.895Zm.74 2.614 1.315-.212c.056.264.169.464.34.6.17.138.409.206.716.206.339 0 .594-.066.764-.196a.445.445 0 0 0 .173-.367.37.37 0 0 0-.094-.258c-.066-.066-.213-.126-.441-.182-1.062-.244-1.736-.467-2.02-.668-.394-.28-.591-.668-.591-1.163 0-.449.17-.826.511-1.13.341-.306.869-.458 1.584-.458.681 0 1.187.114 1.519.342.331.23.559.567.684 1.014l-1.234.24a.792.792 0 0 0-.304-.461c-.149-.107-.362-.16-.639-.16-.349 0-.599.05-.75.151a.326.326 0 0 0-.151.278c0 .099.044.182.132.25.118.091.528.22 1.229.386.7.167 1.19.37 1.468.611.274.244.412.585.412 1.021 0 .475-.19.884-.569 1.226-.379.342-.94.513-1.683.513-.674 0-1.207-.143-1.6-.426a1.963 1.963 0 0 1-.771-1.157Zm11.671-3.998.956 2.642h-1.879l.923-2.642Zm2.003 5.453h1.489l-2.76-7.12h-1.454l-2.647 7.12h1.463l.563-1.61h2.755l.591 1.61Zm3.746 0h-1.315v-5.156h1.22v.733c.208-.346.395-.576.562-.69a.983.983 0 0 1 .567-.17c.299 0 .587.086.864.258l-.4 1.194c-.222-.148-.428-.223-.618-.223a.716.716 0 0 0-.469.158c-.128.105-.228.296-.301.571-.074.276-.11.853-.11 1.73v1.595Zm5.403-3.924c.188.21.286.515.296.917h-1.973c-.003-.38.089-.68.278-.9a.895.895 0 0 1 .713-.331.89.89 0 0 1 .686.314Zm1.527 2.526-1.302-.226c-.072.258-.179.445-.32.56a.794.794 0 0 1-.523.174.99.99 0 0 1-.763-.338c-.203-.226-.31-.541-.319-.947h3.294c.019-1.053-.185-1.833-.612-2.344-.427-.51-1.01-.764-1.748-.764-.658 0-1.202.242-1.631.728-.431.486-.646 1.159-.646 2.016 0 .719.164 1.313.491 1.784.415.588 1.054.883 1.918.883.545 0 1-.13 1.363-.39s.629-.64.798-1.136Zm4.147-1.074a7.882 7.882 0 0 1-.797.21c-.363.081-.6.162-.712.24a.58.58 0 0 0-.256.483c0 .192.068.358.205.498.136.14.31.21.521.21a1.1 1.1 0 0 0 .676-.243.864.864 0 0 0 .312-.455c.033-.117.051-.34.051-.67v-.273Zm-1.765-1.116-1.18-.226c.133-.5.363-.869.69-1.109.326-.24.811-.36 1.455-.36.584 0 1.02.072 1.306.216.286.145.487.328.604.55.116.222.175.63.175 1.224l-.013 1.596c0 .454.02.789.062 1.004.042.216.121.447.235.693h-1.301a4.762 4.762 0 0 1-.126-.397l-.023-.082a2.248 2.248 0 0 0-.023-.076 2.375 2.375 0 0 1-.717.512c-.255.114-.527.17-.816.17-.509 0-.911-.144-1.204-.432-.293-.29-.44-.655-.44-1.096 0-.291.067-.552.2-.78.134-.23.322-.405.562-.526.242-.121.589-.229 1.043-.32.612-.12 1.036-.23 1.273-.335v-.138c0-.266-.063-.455-.188-.569-.124-.112-.361-.169-.708-.169-.234 0-.417.048-.548.144-.131.096-.238.265-.318.506ZM130.149 17.23l4.51 16.153h-8.886l4.376-16.153Zm-6.447 23.413h12.869l1.836 6.44h9.749L137.279 9.819H122.76l-10.745 37.265h9.958l1.729-6.44Z" clip-rule="evenodd"/><path fill="#FFBE00" fill-rule="evenodd" d="M72.455 15.06c3.97 0 7.513 1.906 9.842 4.891l2.075-4.635c-3.245-3.196-7.661-5.166-12.532-5.166-7.585 0-14.072 4.772-16.735 11.528H51.06l-2.389 5.337h5.205c-.039.495-.064.99-.064 1.496 0 .611.03 1.216.088 1.813h-2.615l-2.389 5.338h6.334c2.739 6.585 9.145 11.208 16.61 11.208a17.72 17.72 0 0 0 10.144-3.18v-6.543c-2.328 2.762-5.732 4.507-9.528 4.507-4.436 0-8.34-2.384-10.612-5.992h13.264l2.389-5.338H59.892a14.077 14.077 0 0 1-.075-3.31h19.159l2.388-5.336h-19.89c2.2-3.955 6.293-6.617 10.981-6.617Z" clip-rule="evenodd"/></svg>