<svg xmlns="http://www.w3.org/2000/svg" width="114" height="76" fill="none"><g clip-path="url(#a)"><path fill="#EF809F" d="M107.962 75.924H5.916a5.927 5.927 0 0 1-5.87-5.931V6.007A5.93 5.93 0 0 1 5.975.076h101.926a5.93 5.93 0 0 1 5.931 5.931v64.001c-.015 3.246-2.624 5.886-5.871 5.916Z"/><path fill="#fff" d="M34.192 67.869c2.58 0 4.551-1.73 4.551-4.263 0-2.35-1.669-3.367-3.717-3.974-1.304-.38-2.123-.668-2.123-1.593 0-.774.561-1.38 1.456-1.38.759 0 1.32.44 1.73 1.107l2.138-1.35c-.667-1.471-2.169-2.23-3.792-2.23-2.579 0-4.217 1.85-4.217 4.005 0 1.714 1.031 3.034 3.565 3.777 1.38.394 2.26.667 2.26 1.76 0 1.031-.743 1.668-1.82 1.668-1.153 0-2.033-.743-2.564-1.426l-1.775 1.775c.956 1.305 2.503 2.124 4.308 2.124Zm10.422 0c-2.73 0-4.945-2.184-4.945-4.84 0-2.654 2.214-4.838 4.945-4.838 2.73 0 4.945 2.184 4.945 4.839 0 2.655-2.215 4.839-4.945 4.839Zm0-2.427c1.32 0 2.366-1.047 2.366-2.412s-1.046-2.412-2.366-2.412c-1.335 0-2.367 1.047-2.367 2.412 0 1.38 1.047 2.412 2.367 2.412Zm11.332-8.662v-2.427h-.38c-3.14 0-4.687 2.093-4.687 4.55v8.723h2.579v-3.822c0-1.275.986-2.185 2.412-2.215V59.13c-1.017 0-1.836.304-2.412.91v-.985c0-1.608 1.046-2.337 2.488-2.276Zm5.628 11.089c-2.731 0-4.946-2.184-4.946-4.84 0-2.654 2.215-4.838 4.946-4.838 2.73 0 4.945 2.184 4.945 4.839 0 2.655-2.215 4.839-4.946 4.839Zm0-2.427c1.334 0 2.366-1.047 2.366-2.412s-1.047-2.412-2.366-2.412c-1.32 0-2.367 1.047-2.367 2.412 0 1.38 1.047 2.412 2.367 2.412Zm8.843-5.947V58.45h-2.503v9.177h2.58V63.44c0-1.517.894-2.366 2.442-2.366v-2.76c-1.169-.046-2.003.348-2.519 1.182Zm6.584 3.444v-2.245c.576.607 1.38.91 2.412.91v-2.442c-1.396-.03-2.412-.971-2.412-2.215v-1.441h-2.579v7.585c0 2.457 1.532 4.55 4.688 4.55h.379v-2.427C78.048 65.26 77 64.547 77 62.94Zm5.567 4.839c.94 0 1.73-.774 1.73-1.73 0-.94-.774-1.729-1.73-1.729a1.729 1.729 0 1 0 0 3.459ZM52.85 35.33c.805.789.82 2.078.031 2.882l-.151.167a2.037 2.037 0 0 1-2.883.03l-4.55-4.505c-1.26-1.259-1.426-2.806-.638-3.625l.152-.167c.652-.683 1.73-.744 2.473-.167a.836.836 0 0 0 1.153-.137.836.836 0 0 0-.137-1.152 3.508 3.508 0 0 0-4.672.303l-.152.167c-1.471 1.517-1.183 4.08.652 5.916l4.566 4.55a3.704 3.704 0 0 0 5.219-.075l.167-.167a3.695 3.695 0 0 0-.076-5.188.802.802 0 0 0-1.153.015.789.789 0 0 0 0 1.153Zm-2.73-24.438 1.866 15.321a.81.81 0 0 0 .91.713.81.81 0 0 0 .713-.91l-1.865-15.382-.016-.091c-.318-1.274.47-2.7 1.532-2.928a2.27 2.27 0 0 1 1.715.319c.5.333.85.85.97 1.44l3.247 13.866a.818.818 0 1 0 1.593-.38L57.554 9.042a3.899 3.899 0 0 0-1.67-2.473 3.912 3.912 0 0 0-2.957-.56c-2.003.424-3.307 2.76-2.807 4.884Z"/><path fill="#fff" d="m67.232 28.883 3.686-18.355a3.882 3.882 0 0 0-2.7-4.536c-2.185-.546-4.384.728-4.946 2.882l-4.08 13.972a.817.817 0 0 0 .561 1.016.817.817 0 0 0 1.017-.561l4.08-13.987c.35-1.29 1.654-2.063 2.928-1.744a2.26 2.26 0 0 1 1.532 2.624l-3.686 18.37c-.091.44.197.88.637.971.455.076.895-.212.97-.652Zm-9.269 17.688c-5.84 0-10.71-4.278-10.71-10.361a.816.816 0 0 0-.819-.82.816.816 0 0 0-.819.82c0 7.039 5.658 12 12.348 12 .455 0 .82-.365.82-.82a.816.816 0 0 0-.82-.82Zm-2.882-14.305a1.95 1.95 0 0 1-.804 1.122l-.182.107a2.05 2.05 0 0 1-2.852-.546l-3.58-5.325c-.97-1.487-.85-3.034.091-3.686l.167-.122c1.213-.697 2.23-.166 3.276 1.366l2.989 4.46a.827.827 0 0 0 1.138.227c.379-.243.47-.758.227-1.138l-2.988-4.46c-1.487-2.154-3.307-3.11-5.507-1.835l-.227.152c-1.76 1.198-1.972 3.777-.531 5.946l3.58 5.34a3.685 3.685 0 0 0 5.112.986l.182-.121a3.73 3.73 0 0 0 1.471-2.048.81.81 0 0 0-.576-1.002.801.801 0 0 0-.986.577Z"/><path fill="#fff" d="M60.497 34.966c-1.7.956-2.761 2.73-2.883 5.446a.817.817 0 0 0 .774.865.827.827 0 0 0 .865-.774c.121-2.458 1.077-3.777 2.609-4.354.819-.303 1.714-.364 2.503-.288l.197.03c1.047.198 1.38-1.365.334-1.608l-6.296-1.41c-2.943-.804-3.398-1.897-2.852-3.717.243-.789.714-1.198 1.457-1.365.485-.106 1.016-.091 1.532 0 .152.03.258.045.303.06l9.557 2.23.182.061c.152.06.319.182.486.349.637.683 1 1.972.819 4.096-.622 7.433-4.08 12.044-12.303 11.969a.813.813 0 0 0-.015 1.623c9.223.076 13.258-5.28 13.941-13.47.212-2.55-.258-4.294-1.244-5.34-.546-.577-1.122-.85-1.562-.91l-9.451-2.2c-.06-.015-.213-.061-.425-.091a5.878 5.878 0 0 0-2.184.015c-1.275.288-2.245 1.092-2.655 2.488-.789 2.624.045 4.687 4.02 5.764l2.29.531Z"/></g><defs><clipPath id="a"><path fill="#fff" d="M0 0h113.924v76H0z"/></clipPath></defs></svg>