<svg xmlns="http://www.w3.org/2000/svg" width="182" height="64" fill="none"><path fill="#0C1724" d="M22.99 37.273a7.118 7.118 0 0 1-.727 3.188 7.225 7.225 0 0 1-2.03 2.476c-.873.686-1.907 1.211-3.104 1.588-1.196.377-2.513.565-3.937.565-1.707 0-3.24-.229-4.583-.7-1.344-.457-2.702-1.237-4.059-2.314l2.244-3.646c1.076.901 2.043 1.56 2.917 1.978.86.417 1.747.619 2.66.619 1.116 0 2.003-.283 2.689-.862.685-.578 1.008-1.345 1.008-2.327 0-.417-.068-.808-.188-1.17-.121-.364-.35-.741-.672-1.131a9.136 9.136 0 0 0-1.358-1.252 66.522 66.522 0 0 0-2.217-1.668 56.591 56.591 0 0 1-2.03-1.507 16.42 16.42 0 0 1-1.8-1.669 7.607 7.607 0 0 1-1.304-1.99c-.323-.727-.497-1.575-.497-2.504 0-1.076.228-2.072.671-2.96a6.842 6.842 0 0 1 1.842-2.274c.78-.632 1.707-1.117 2.809-1.466 1.088-.35 2.27-.525 3.561-.525 1.357 0 2.661.175 3.924.538 1.264.363 2.433.888 3.521 1.588l-2.029 3.283c-1.384-.969-2.849-1.467-4.381-1.467-.928 0-1.707.242-2.312.727-.604.484-.914 1.09-.914 1.83 0 .7.27 1.332.807 1.884.537.565 1.465 1.332 2.782 2.354a59.09 59.09 0 0 1 3.292 2.557c.874.726 1.56 1.426 2.07 2.072.51.646.847 1.292 1.048 1.964a7.77 7.77 0 0 1 .296 2.22Zm23.048-6.15c0 1.01-.108 2.1-.323 3.27a11.234 11.234 0 0 1-1.075 3.243c-.51.995-1.17 1.816-1.989 2.449-.82.645-1.868.968-3.118.968-2.096 0-3.75-.834-4.959-2.516-1.21-1.668-1.814-3.969-1.814-6.889 0-3 .604-5.369 1.84-7.131 1.224-1.763 2.89-2.637 4.987-2.637 1.989 0 3.561.834 4.717 2.475 1.156 1.655 1.734 3.916 1.734 6.768Zm7.284-.255c0-1.951-.282-3.727-.833-5.315-.565-1.601-1.344-2.974-2.38-4.13a10.935 10.935 0 0 0-3.655-2.692c-1.41-.646-2.97-.969-4.676-.969-1.882 0-3.535.363-4.96 1.063-1.424.713-2.755 1.83-3.964 3.364l-.04-3.808h-6.707v39.142H32.8V40.986c.659.767 1.29 1.413 1.908 1.938a9.347 9.347 0 0 0 1.855 1.278c.632.323 1.29.565 1.989.7.699.134 1.452.202 2.244.202 1.774 0 3.441-.364 4.973-1.063a11.743 11.743 0 0 0 3.978-3.001c1.116-1.292 1.99-2.799 2.62-4.508.646-1.722.955-3.619.955-5.664Zm2.984 13.603h6.88V6.177h-6.88v38.294Zm36.233.014v-26.13h-6.882v14.06c0 1.252-.053 2.22-.16 2.907a7.673 7.673 0 0 1-.525 1.856c-.968 2.153-2.755 3.243-5.349 3.243-2.03 0-3.44-.727-4.247-2.193-.322-.552-.537-1.184-.658-1.884s-.188-1.709-.188-3.04v-14.95h-6.882v14.842c0 1.009.014 1.87.028 2.556a17.936 17.936 0 0 0 .376 3.297c.08.417.215.82.39 1.197.631 1.601 1.639 2.812 3.05 3.633 1.411.82 3.145 1.225 5.188 1.225 1.841 0 3.467-.323 4.865-.97 1.398-.645 2.755-1.695 4.072-3.161l.014 3.498 6.908.014Zm29.647-.014V29.657c0-1.01-.013-1.87-.027-2.584a14.133 14.133 0 0 0-.134-1.857 12.403 12.403 0 0 0-.256-1.372 14.865 14.865 0 0 0-.362-1.17c-.632-1.561-1.64-2.772-3.051-3.62-1.411-.848-3.145-1.278-5.201-1.278-1.842 0-3.468.323-4.865.968-1.398.646-2.756 1.71-4.073 3.162l-.013-3.498h-6.921v26.077h6.934V30.41c0-1.21.041-2.166.135-2.839a7.51 7.51 0 0 1 .497-1.91c.444-1.05 1.142-1.83 2.07-2.369.927-.538 2.029-.807 3.319-.807 2.03 0 3.441.727 4.247 2.193.309.552.524 1.184.645 1.87.121.687.188 1.71.188 3.028v14.882l6.868.013Zm28.464-1.722L140.168 29.71l8.856-9.5-5.214-2.247-9.219 10.697h-.726V6.177h-6.935v38.294h6.935V30.6l10.375 14.397 6.41-2.247Zm26.8-9.365v-4.265L156.605 18.65v4.696l16.154 7.872-16.154 7.979v4.588l20.845-10.401Zm-18.83-21.502c-1.276 0-2.312 1.05-2.312 2.341 0 1.319 1.036 2.355 2.312 2.355 1.291 0 2.312-1.036 2.312-2.355 0-1.305-1.021-2.34-2.312-2.34Zm.015.363c1.034 0 1.867.889 1.867 1.992s-.833 1.991-1.867 1.978c-1.049 0-1.883-.875-1.883-1.992 0-1.09.834-1.978 1.883-1.978Zm-.444 2.22h.281c.337 0 .498.122.565.458.054.35.121.579.175.66h.444c-.041-.081-.109-.243-.161-.646-.055-.39-.203-.592-.444-.633v-.027c.283-.08.511-.296.511-.632 0-.242-.082-.43-.243-.538-.161-.121-.416-.202-.806-.202-.309 0-.524.027-.738.067v2.61h.416v-1.116Zm0-1.21c.067-.014.161-.027.295-.027.471 0 .632.228.632.457 0 .323-.297.444-.632.444h-.295v-.874Z"/></svg>