<svg xmlns="http://www.w3.org/2000/svg" width="206" height="57" fill="none"><path fill="#C50000" d="M11.497 9.341h27.372v2.787H26.458v26.367H23.67V12.128H11.497V9.341Z"/><path fill="red" d="M12.011 16.25a5.516 5.516 0 1 0 0-11.033 5.516 5.516 0 0 0 0 11.033Zm13.051 0a5.516 5.516 0 1 0 0-11.033 5.516 5.516 0 0 0 0 11.033Zm18.568-5.517a5.516 5.516 0 1 1-11.032 0 5.516 5.516 0 0 1 11.032 0Zm-18.568 18.69a5.516 5.516 0 1 0 0-11.033 5.516 5.516 0 0 0 0 11.033Zm5.517 7.654a5.516 5.516 0 1 1-11.033 0 5.516 5.516 0 0 1 11.033 0Z"/><path fill="#CBD7DC" d="M17.527 23.907a5.516 5.516 0 1 1-11.032 0 5.516 5.516 0 0 1 11.032 0Zm26.103 0a5.516 5.516 0 1 1-11.032 0 5.516 5.516 0 0 1 11.032 0ZM12.011 42.593a5.516 5.516 0 1 0 0-11.032 5.516 5.516 0 0 0 0 11.032Zm31.619-5.516a5.516 5.516 0 1 1-11.032 0 5.516 5.516 0 0 1 11.032 0Z"/><path fill="red" d="M68.155 14.491c-.71-.321-1.2-.321-3.536-.321l.012-3.806-.005-.157c-.052-1.614-.123-3.841-2.39-4.682a4.43 4.43 0 0 0-1.52-.273 3.79 3.79 0 0 0-2.96 1.25c-.92 1.022-.974 2.381-1.023 3.579l-.01.228v3.857c-1.36 0-2.992 0-3.754 1.633a2.803 2.803 0 0 0-.27 1.36c0 1.787 1.117 2.456 1.436 2.647l.02.012.01.006c.774.38 1.645.38 2.571.38v15.018c0 3.263.161 7.558 7.503 7.558 2.122 0 5.873-.219 5.873-3.536 0-1.141-.434-2.829-2.664-2.829-1.958 0-2.826-.27-2.826-2.665V20.2c2.77 0 3.86 0 4.677-1.575.239-.454.368-.956.38-1.469a2.929 2.929 0 0 0-1.524-2.665Z"/><path fill="red" fill-rule="evenodd" d="M80.062 35.055c-1.305-1.36-1.578-2.99-1.742-4.295l15.555.01h.022c1.467-.055 3.405-.127 3.405-3.755 0-5.342-2.938-13.379-12.945-13.379-8.918 0-14.412 6.529-14.412 14.903 0 6.8 3.697 14.685 14.306 14.685 3.099 0 6.252-.653 8.753-2.45 1.633-1.141 2.176-2.337 2.176-3.478a3.61 3.61 0 0 0-3.536-3.591 3.491 3.491 0 0 0-2.34.932c-.352.28-.68.589-.98.923-.595.546-1.682 1.36-3.858 1.36a5.786 5.786 0 0 1-4.404-1.865Zm9.597-10.586.082.36H78.332l.042-.123c.606-1.808 1.634-4.879 5.835-4.879 1.848 0 3.533.653 4.568 2.177.51.803.7 1.65.882 2.465Z" clip-rule="evenodd"/><path fill="red" d="m117.673 33.96.031-.059.001-.001c.481-.914 1.108-2.104 2.926-2.104 1.794 0 3.915 1.195 3.915 3.696 0 2.72-3.751 7.835-11.572 7.835-9.57 0-13.978-6.639-13.978-14.63 0-10.39 6.69-15.11 14.36-15.11 3.044 0 6.037.708 8.757 3.048 1.63 1.415 2.282 2.665 2.282 4.131a3.536 3.536 0 0 1-3.587 3.536 3.289 3.289 0 0 1-2.505-1.086c-.231-.234-.419-.486-.604-.733a9.661 9.661 0 0 0-.36-.463c-.598-.762-1.794-1.958-4.179-1.958a4.934 4.934 0 0 0-2.99.868c-1.089.643-2.992 2.176-2.992 7.616 0 3.642.925 8.036 6.255 8.036 2.645-.003 3.482-1.373 4.136-2.443l.069-.113.035-.065Zm69.524-14.567c3.099 0 4.034 1.25 4.677 2.174.485.707 1.138 1.578 2.822 1.578 1.958 0 3.7-1.524 3.7-3.536 0-2.717-3.915-6.037-10.769-6.037-3.645 0-7.451.816-9.843 3.536a8.388 8.388 0 0 0-2.067 5.709c0 5.494 4.883 7.018 7.776 7.889.494.175 2.178.649 3.494 1.019.713.2 1.318.37 1.566.447 1.305.382 2.771.87 2.771 2.504 0 1.684-1.453 2.61-4.025 2.61-3.649 0-4.755-1.592-5.256-2.313l-.019-.027c-.813-1.25-1.684-2.447-3.587-2.447a3.54 3.54 0 0 0-3.332 2.258c-.172.445-.253.92-.237 1.398 0 3.262 4.408 7.014 12.563 7.014 10.062 0 12.074-5.712 12.074-9.03 0-5.922-4.583-7.311-8.685-8.555l-.126-.038c-.99-.27-1.97-.546-2.893-.868-2.72-.771-4.462-1.315-4.462-2.893 0-1.427 1.408-2.392 3.858-2.392Zm-44.215 2.174c-.643-.923-1.578-2.174-4.677-2.174-2.45 0-3.858.965-3.858 2.392 0 1.578 1.743 2.122 4.462 2.893.923.322 1.903.598 2.894.868l.125.038c4.103 1.244 8.686 2.633 8.686 8.555 0 3.317-2.012 9.03-12.074 9.03-8.156 0-12.563-3.752-12.563-7.014a3.525 3.525 0 0 1 1.015-2.592 3.537 3.537 0 0 1 2.576-1.054c1.903 0 2.774 1.196 3.587 2.447l.019.027c.501.721 1.607 2.313 5.256 2.313 2.572 0 4.025-.926 4.025-2.61 0-1.633-1.466-2.122-2.771-2.505-.248-.075-.853-.246-1.566-.446-1.316-.37-3-.845-3.494-1.02-2.893-.87-7.776-2.395-7.776-7.888a8.41 8.41 0 0 1 2.067-5.71c2.392-2.72 6.198-3.536 9.843-3.536 6.854 0 10.769 3.321 10.769 6.037 0 2.013-1.742 3.537-3.7 3.537-1.703-.01-2.356-.881-2.845-1.588Zm19.902 11.53c-.382-2.324-.488-2.828-.98-4.895l-2.72-9.696-.029-.098c-.54-1.825-1.274-4.306-4.211-4.306-1.688 0-4.025 1.087-4.025 3.697.055.88.238 1.745.544 2.572l7.991 22.46c-.527 1.09-1.196 2.395-3.099 2.395-.191 0-.724-.068-1.255-.137-.529-.068-1.056-.136-1.246-.136-1.906 0-3.372 1.25-3.372 3.263 0 3.755 4.459 3.755 5.655 3.755 6.917 0 8.25-3.706 10.398-9.673l.043-.12 7.561-21.917a7.473 7.473 0 0 0 .488-2.446c0-2.61-2.118-3.697-3.857-3.697-2.611 0-3.318 2.119-3.697 3.424l-3.427 12.293c-.097.401-.175.712-.245.992-.167.668-.29 1.158-.517 2.27Z"/><path fill="#C50000" d="M64.436 8.949a3.797 3.797 0 1 1-7.594 0 3.797 3.797 0 0 1 7.594 0ZM95.17 37.225a3.72 3.72 0 1 1-7.438 0 3.72 3.72 0 0 1 7.439 0ZM66.901 42.4a3.33 3.33 0 1 0 0-6.66 3.33 3.33 0 0 0 0 6.66Zm57.703-6.96a3.72 3.72 0 1 1-7.438.001 3.72 3.72 0 0 1 7.438 0Zm-3.899-11.096a3.72 3.72 0 1 0 0-7.438 3.72 3.72 0 0 0 0 7.438Zm77.669-4.681a3.72 3.72 0 1 1-7.438 0 3.72 3.72 0 0 1 7.438 0ZM178.565 39.87a3.72 3.72 0 1 0 0-7.44 3.72 3.72 0 0 0 0 7.44Zm-29.044-20.168a3.72 3.72 0 1 1-7.438 0 3.72 3.72 0 0 1 7.438 0ZM129.68 39.81a3.72 3.72 0 1 0 0-7.439 3.72 3.72 0 0 0 0 7.439Zm29.022-21.979a3.87 3.87 0 1 1-7.74 0 3.87 3.87 0 0 1 7.74 0Zm12.267 3.642a3.72 3.72 0 1 0 0-7.438 3.72 3.72 0 0 0 0 7.438Zm-13.723 26.653a3.469 3.469 0 1 1-6.937 0 3.469 3.469 0 0 1 6.937 0Z"/></svg>