<svg xmlns="http://www.w3.org/2000/svg" width="182" height="65" fill="none"><path fill="#1AB7EB" d="M59.515 12.198c-.058 1.441-.78 2.824-2.172 4.149-1.563 1.496-3.415 2.245-5.557 2.245-3.299 0-4.892-1.439-4.775-4.319.055-1.497.938-2.938 2.646-4.321 1.708-1.38 3.603-2.073 5.69-2.073 1.215 0 2.227.477 3.04 1.426.809.951 1.184 1.916 1.128 2.893Z"/><path fill="#1AB7EB" fill-rule="evenodd" d="M61.384 50.492c-.325.309-.658.613-1 .913-3.88 3.355-7.758 5.032-11.635 5.032-1.797 0-3.172-.578-4.126-1.736-.954-1.157-1.403-2.659-1.345-4.511.056-1.908.65-4.86 1.779-8.851 1.129-3.992 1.695-6.133 1.695-6.423 0-1.502-.523-2.256-1.563-2.256-.328 0-1.221.541-2.68 1.619-1.1 3.288-3.498 7.31-7.194 12.066C30.057 53.181 25.61 56.6 21.97 56.6c-2.253 0-4.162-2.081-5.72-6.245l-3.12-11.45c-1.158-4.161-2.398-6.245-3.726-6.245-.289 0-1.301.61-3.034 1.823l-1.82-2.345a493.984 493.984 0 0 0 5.644-5.035c2.545-2.2 4.456-3.357 5.73-3.474 3.009-.289 4.861 1.77 5.556 6.174.752 4.753 1.272 7.71 1.564 8.866.867 3.944 1.822 5.913 2.864 5.913.81 0 2.025-1.28 3.647-3.837 1.619-2.558 2.487-4.504 2.603-5.841.231-2.208-.636-3.314-2.603-3.314-.926 0-1.88.213-2.862.634 1.9-6.227 5.531-9.252 10.89-9.08 3.58.106 5.454 2.207 5.625 6.304l2.587-2.345c2.49-2.2 4.342-3.357 5.56-3.474 1.908-.172 3.311.389 4.21 1.688.896 1.299 1.228 2.984 1 5.06-.754 3.52-1.566 7.988-2.434 13.408-.058 2.482.84 3.72 2.693 3.72.809 0 2.255-.855 4.34-2.57l.078-.064c.133-1.209.347-2.645.642-4.309.477-2.684.744-4.775.8-6.277.113-1.038-.148-1.559-.782-1.559-.348 0-1.332.586-2.954 1.757l-2.083-2.345c.29-.228 2.111-1.908 5.471-5.035 2.43-2.256 4.08-3.413 4.948-3.471 1.505-.117 2.72.505 3.646 1.865.926 1.36 1.391 2.939 1.391 4.733a7.69 7.69 0 0 1-.172 1.649c.867-1.33 1.88-2.49 3.04-3.474 2.661-2.314 5.643-3.619 8.942-3.908 2.837-.23 4.862.434 6.08 1.997.982 1.274 1.444 3.099 1.388 5.471.406-.345.84-.723 1.304-1.129 1.33-1.563 2.632-2.806 3.906-3.733 2.141-1.563 4.372-2.43 6.686-2.606 2.778-.23 4.776.431 5.991 1.99 1.041 1.268 1.505 3.086 1.391 5.448-.059 1.616-.449 3.966-1.173 7.052-.726 3.085-1.086 4.856-1.086 5.318-.058 1.213.059 2.048.348 2.51.289.462.982.69 2.084.69.494 0 1.226-.32 2.196-.959a15.767 15.767 0 0 1-.113-2.274c.056-4.687 2.141-9.142 6.252-13.37 4.514-4.628 9.841-6.946 15.976-6.946 5.674 0 8.684 2.312 9.032 6.93.23 2.944-1.391 5.976-4.862 9.095-3.708 3.408-8.369 5.573-13.982 6.496 1.04 1.444 2.603 2.165 4.689 2.165 4.167 0 8.712-1.059 13.634-3.18.219-.092.435-.185.648-.278a19.524 19.524 0 0 1-.086-1.08c-.292-4.97 1.502-9.538 5.384-13.7 4.167-4.623 9.404-6.934 15.715-6.934 4.05 0 7.118 1.36 9.204 4.075 1.969 2.487 2.865 5.694 2.692 9.622-.233 5.319-2.2 9.914-5.904 13.786-3.705 3.873-8.309 5.81-13.807 5.81-4.573 0-8.047-1.475-10.419-4.424a12.286 12.286 0 0 1-1.382-2.185 53.2 53.2 0 0 1-1.958 1.157c-6.136 3.527-12.361 5.289-18.669 5.289-4.689 0-8.049-1.564-10.074-4.687-.148-.22-.289-.444-.421-.671l-.186.163c-3.879 3.355-7.757 5.032-11.634 5.032-3.766 0-5.588-2.08-5.471-6.247.055-1.853.418-4.078 1.083-6.682.665-2.603 1.028-4.628 1.086-6.074.059-2.198-.609-3.3-2.004-3.3-1.51 0-3.31 1.797-5.4 5.385-2.208 3.764-3.4 7.41-3.573 10.94-.116 2.491.127 4.402.73 5.732-4.039.117-6.869-.55-8.482-1.997-1.447-1.274-2.11-3.385-1.992-6.339.055-1.852.34-3.704.852-5.557.51-1.852.794-3.502.853-4.95.117-2.142-.668-3.213-2.348-3.213-1.451 0-3.016 1.652-4.697 4.95-1.68 3.3-2.608 6.745-2.78 10.333-.117 3.243.091 5.5.621 6.773-3.974.117-6.795-.72-8.465-2.513-.763-.825-1.297-1.887-1.604-3.186Zm72.762-16.57c.056-1.553-.579-2.332-1.908-2.332-1.736 0-3.497 1.195-5.289 3.585-1.791 2.39-2.717 4.68-2.773 6.867-.033 0-.033.375 0 1.124a19.539 19.539 0 0 0 7.369-4.75c1.675-1.842 2.542-3.342 2.601-4.494Zm32.818-1.389c.493 1.305.711 2.741.652 4.307-.116 2.783-.954 5.45-2.517 8.003-1.852 3.076-4.083 4.61-6.686 4.61-1.16 0-2.058-.636-2.693-1.913-.578-1.1-.839-2.377-.781-3.828.114-2.957.982-5.74 2.606-8.352 1.908-3.19 4.34-4.785 7.293-4.785.924 0 1.634.654 2.126 1.958Z" clip-rule="evenodd"/></svg>