<svg xmlns="http://www.w3.org/2000/svg" width="224" height="53" fill="none"><path fill="#E42B25" fill-rule="evenodd" d="M46.625 7.719c1.219-1.77 3.1-2.94 5.05-2.94 2.086.01 3.224 1.519 3.224 4.39 0 10.82-11.793 25.983-22.586 25.983-2.646 0-4.38-.967-5.454-2.31-2.508 1.444-5.114 2.31-7.624 2.31-4.423 0-6.463-2.727-6.5-6.506-.058-5.774 4.168-12.601 8.355-17.44-2.533 1.41-4.815 1.09-7.02.778-2.042-.287-4.02-.566-6.073.545 2.037-6.589 5.594-6.357 10.201-6.056 2.579.168 5.486.358 8.64-.614.192.984-.98 2.864-2.481 5.272-2.35 3.771-5.51 8.839-5.51 13.794 0 3.89 2.165 5.825 6.521 4.276-1.35-8.178 5.937-19.512 12.847-19.517 2.38 0 3.397 1.32 3.397 3.4 0 4.07-4.07 10.97-9.7 16.042.702.742 1.765 1.104 3.013 1.104 10.403 0 17.458-18.755 11.7-22.511Zm-9.398 5.92c-2.094 0-6.223 6.144-6.315 11.989 4.093-3.814 7.063-9.161 7.063-11.16 0-.428-.13-.83-.748-.83Z" clip-rule="evenodd"/><path fill="#E42B25" fill-rule="evenodd" d="M207.127 22.648c.108 2.501.227 5.255-1.582 7.52l.003.015.907.082c3.644.33 7.246.656 9.548-.55-.098 3.617-3.16 5.801-7.511 5.801-2.88 0-5.358-.717-7.75-1.409l-.252-.073a10.177 10.177 0 0 1-4.441 1.133c-1.51 0-2.582-.697-2.582-1.97-.003-2.08 2.464-3.34 6.875-3.236 2.265-1.978 1.772-4.19 1.288-6.361-.141-.629-.28-1.254-.352-1.87-6.162 7.174-13.32 13.437-19.413 13.437-2.002 0-3.221-1.02-3.221-2.99 0-2.127 1.444-5.408 4.911-9.722-4.221 2.531-8.442 6.376-11.695 12.316a8.714 8.714 0 0 1-2.559.396c-4.588 0-1.326-5.027.866-8.36-4.856 4.315-10.613 8.36-16.969 8.36-3.129 0-5.079-1.234-5.891-2.967-3.66 1.522-8.378 2.967-12.642 2.967-2.86 0-5.084-.84-6.15-2.476-3.649 1.61-6.734 2.476-9.19 2.476-2.814 0-4.408-1.156-4.408-3.25 0-2.534 1.747-5.137 5.535-9.161a13.418 13.418 0 0 1-3.611.482c-4.426 5.986-10.167 10.17-15.098 12.382-3.984 6.041-10.34 12.235-15.54 12.235-2.123 0-3.81-1.22-3.81-3.241 0-4.79 7.138-7.434 14.055-9.878a40.754 40.754 0 0 0 1.765-4.154c-3.219 3.036-6.14 4.585-8.09 4.585-1.733-.003-2.888-1.185-2.888-3.357.001-.68.077-1.358.225-2.022-2.869 3.024-6.538 5.367-9.513 5.367-2.866 0-4.325-1.467-4.888-3.2-3.38 1.944-6.581 3.2-9.077 3.2-3.071 0-3.94-1.707-3.21-5.463-3.787 3.912-7.381 5.463-9.62 5.463-1.956-.003-2.88-1.52-2.92-3.36-.148-6.214 8.452-15.93 18.899-15.93 7.202 0 4.53 4.375.667 6.356-2.664 3.857-3.649 11.19 5.041 6.535C73.88 18.238 86.013 6.393 91.213 6.393c2.198 0 3.134 1.066 3.163 2.638.084 4.342-7.54 13.06-15.739 19.225 1.075 4.406 7.119 1.165 12.085-4.64 3.802-4.448 9.891-7.753 15.38-7.753 6.711 0 5.021 4.001 1.69 5.965-1.378 4.04-2.371 6.902-3.651 9.56a32.233 32.233 0 0 0 9.981-8.93 2.571 2.571 0 0 1-.985-2.187c0-2.314 1.93-5.156 4.463-5.156 1.719 0 2.311 1.375 1.751 3.126 2.19 0 5.2-.864 7.222-1.907a1.98 1.98 0 0 1 .962 1.782c0 1.267-1.283 2.667-2.696 4.209-1.732 1.89-3.659 3.992-3.659 6.324 0 2.569 3.53 2.15 6.644 1.19.275-6.939 8.531-13.93 15.046-13.93 2.516 0 4.31.954 4.31 3.094 0 3.455-5.714 8.135-12.564 10.935 1.43 1.551 6.067 1.95 12.29-.29.39-6.878 8.563-13.75 15.022-13.75 2.514 0 4.311.953 4.311 3.09 0 3.456-5.729 8.139-12.588 10.941.587.685 1.517 1.156 2.912 1.156 5.385 0 13.778-6.422 20.315-15.115 1.691-.032 3.158.375 3.158 1.782 0 .902-.834 2.322-1.881 4.104-.502.855-1.054 1.793-1.586 2.798 4.579-4.316 10.782-9.043 13.766-9.043 1.19 0 2.158.564 2.158 1.407a1.649 1.649 0 0 1-.5 1.095c-2.718 2.89-6.251 7.009-6.251 9.823 0 .913.407 1.444 1.563 1.444 3.472 0 9.542-5.81 15.389-13.352a5.404 5.404 0 0 1 4.105-2.132c1.656 0 2.953.826 3.08 2.207-2.99 1.05-2.878 3.625-2.752 6.545ZM88.67 11.176a.63.63 0 0 0-.291-.025c-2.441 0-8.318 9.19-9.63 13.786 5.19-4.22 10.346-10.909 10.346-13.067a.63.63 0 0 0-.425-.694Zm-25.413 8.668c-4.533 0-10.193 4.307-10.193 7.947 0 3.993 7.223 1.159 12.712-7.468a6.215 6.215 0 0 0-2.52-.48Zm23.036 24.53c0 .537.326.791.832.791h.009c1.961 0 4.96-2.99 7.537-7.202-6.067 2.184-8.378 5.238-8.378 6.41Zm15.935-24.516c-4.431 0-10.163 4.178-10.163 7.933 0 4.143 7.511.832 12.706-7.468a6.807 6.807 0 0 0-2.543-.465Zm39.865.509c0-.665-.428-.954-1.089-.954-2.401 0-7.205 4.883-7.205 8.043 4.593-2.218 8.294-5.339 8.294-7.09Zm17.96-.962c-2.403 0-7.205 4.882-7.205 8.043 4.594-2.22 8.294-5.34 8.294-7.09 0-.664-.43-.953-1.089-.953Z" clip-rule="evenodd"/></svg>