<svg xmlns="http://www.w3.org/2000/svg" width="270" height="44" fill="none"><path fill="#409FFF" d="M26.3 39.55 13.102 11.315c-.849-1.793-1.656-3.04-2.42-3.74-.762-.7-1.647-1.052-2.655-1.052h-.094V5.18h19.05l-.023 1.346c-.866.032-1.523.224-1.972.578-.449.354-.672.854-.672 1.499 0 .3.043.63.129.991a6.8 6.8 0 0 0 .414 1.181l5.075 12.677 6.751-19.428L44.1 23.451l4.579-12.23a6.46 6.46 0 0 0 .295-1.143 7.61 7.61 0 0 0 .105-1.287c0-.692-.236-1.224-.707-1.593-.472-.37-1.188-.594-2.148-.674V5.18h9.75v1.346c-1.244.126-2.232.515-2.964 1.169-.732.652-1.436 1.845-2.113 3.575L39.945 39.55l-7.13-18.555L26.3 39.55Zm49.38-4.934c-1.338 1.604-2.873 2.828-4.605 3.67a12.518 12.518 0 0 1-5.547 1.263c-1.793 0-3.474-.362-5.04-1.086a11.548 11.548 0 0 1-4.047-3.116 11.626 11.626 0 0 1-2.101-3.671c-.472-1.344-.71-2.797-.71-4.354 0-1.606.23-3.101.686-4.486a13.446 13.446 0 0 1 2.078-3.918c1.007-1.37 2.364-2.479 4.07-3.33 1.709-.849 3.444-1.273 5.206-1.273 3.069 0 5.52.936 7.354 2.808 1.832 1.873 2.75 4.383 2.75 7.53H62.106c.094 2.802 1.007 5.13 2.738 6.987 1.732 1.858 3.816 2.786 6.255 2.786.93 0 1.77-.168 2.527-.507a6.182 6.182 0 0 0 2.053-1.522v2.219ZM62.058 22.979h2.17c2.142 0 3.455-.186 3.943-.556.488-.369.732-1.074.732-2.112 0-1.401-.252-2.452-.755-3.152-.503-.7-1.266-1.05-2.29-1.05-1.306 0-2.266.547-2.88 1.64-.613 1.094-.92 2.837-.92 5.229Zm22.87-15.63c-1.81.316-3.363 1.063-4.662 2.243-1.298 1.18-2.388 2.833-3.268 4.957l-1.064-.377 1.89-9.866c.44.283 1.015.5 1.723.65.708.15 1.55.223 2.525.223h16.312c.96 0 1.791-.074 2.491-.224.7-.15 1.271-.366 1.712-.649l1.934 9.867-1.061.378c-.913-2.156-2.014-3.82-3.306-4.993-1.289-1.172-2.831-1.908-4.627-2.207v25.683c0 1.543.26 2.597.78 3.163.518.567 1.51.897 2.975.991v1.346H81.105v-1.346c1.495-.094 2.506-.429 3.033-1.003.528-.575.791-1.625.791-3.15V7.35Zm30.661 10.93c.786-1.322 1.64-2.314 2.561-2.974.921-.661 1.907-.992 2.962-.992 1.164 0 2.101.346 2.808 1.039.709.693 1.064 1.605 1.064 2.74 0 .99-.296 1.785-.887 2.382-.589.599-1.372.898-2.348.898-.88 0-1.726-.355-2.537-1.063-.811-.708-1.326-1.062-1.547-1.062-.518 0-.888.345-1.109 1.038-.221.693-.331 1.928-.331 3.707v9.749c0 1.227.249 2.109.744 2.644.496.535 1.31.802 2.444.802h.141v1.347h-15.463v-1.346h.142c1.039 0 1.783-.263 2.23-.79.448-.528.674-1.413.674-2.656v-8.9c0-.755-.095-1.313-.283-1.676-.189-.362-.544-.716-1.063-1.061l-2.951-2.078c1.542-.535 3.321-1.27 5.335-2.207 2.014-.936 4.486-2.168 7.413-3.695l.001 4.154Zm22.304 6.326c-1.416.567-2.495 1.46-3.235 2.68-.74 1.22-1.109 2.71-1.109 4.473 0 1.007.2 1.81.602 2.408.401.598.924.898 1.57.898.833 0 1.404-.332 1.711-.993.307-.66.461-2.313.461-4.957v-4.509Zm.449 10.882c-1.197 1.37-2.452 2.389-3.767 3.057a9.06 9.06 0 0 1-4.166 1.004c-1.935 0-3.505-.547-4.708-1.64-1.205-1.094-1.807-2.498-1.807-4.214 0-2.03.917-3.796 2.751-5.3 1.832-1.503 5.582-3.348 11.248-5.536v-1.675c0-1.762-.225-3.026-.674-3.79-.448-.762-1.184-1.143-2.206-1.143-.835 0-1.528.247-2.078.743a2.394 2.394 0 0 0-.826 1.853c0 .393.016.853.047 1.382.031.526.047.86.047 1.001 0 1.15-.319 2.074-.955 2.774-.638.701-1.484 1.051-2.538 1.051-.96 0-1.731-.303-2.314-.91-.582-.606-.874-1.404-.874-2.395 0-2.14 1.016-3.913 3.046-5.323 2.031-1.408 4.642-2.112 7.838-2.112 1.793 0 3.418.227 4.873.684 1.456.456 2.648 1.117 3.577 1.982a5.926 5.926 0 0 1 1.605 2.48c.316.945.472 2.368.472 4.273v6.726c0 1.873.146 3.204.438 3.99.29.787.759 1.18 1.404 1.18a1.04 1.04 0 0 0 .425-.093 2.12 2.12 0 0 0 .449-.285v1.535c-.63.803-1.445 1.425-2.444 1.864-.999.441-2.105.662-3.316.662-1.386 0-2.546-.322-3.482-.968-.936-.646-1.626-1.598-2.066-2.857h.001Zm23.838-1.746c0 1.212.215 2.081.648 2.608.433.528 1.153.806 2.161.838v1.347h-14.943v-1.346h.141c1.04 0 1.783-.263 2.231-.79.449-.528.673-1.413.673-2.656v-8.9c0-.755-.094-1.313-.283-1.676-.19-.361-.543-.716-1.062-1.061l-2.952-2.078a73.437 73.437 0 0 0 6.055-2.525 94.307 94.307 0 0 0 6.503-3.376v4.012c.944-1.259 2.047-2.203 3.305-2.831 1.259-.63 2.676-.945 4.25-.945 2.58 0 4.504.656 5.771 1.97 1.266 1.315 1.899 3.318 1.899 6.009v11.401c0 1.243.226 2.128.674 2.656.449.527 1.192.79 2.231.79h.141v1.346h-12.132V22.577c0-1.7-.209-2.88-.626-3.54-.417-.663-1.121-.993-2.112-.993-.929 0-1.59.343-1.984 1.027-.393.685-.59 1.853-.59 3.506l.001 11.164Zm18.243 3.824v-7.742h1.227c.708 2.564 1.795 4.543 3.258 5.936 1.463 1.393 3.179 2.089 5.146 2.089 1.054 0 1.873-.244 2.455-.731.583-.488.874-1.173.874-2.055 0-1.73-1.7-3.288-5.099-4.673l-.308-.118c-2.989-1.211-4.972-2.357-5.948-3.435-.975-1.078-1.463-2.467-1.463-4.167 0-2.532.952-4.551 2.855-6.055 1.904-1.503 4.486-2.252 7.744-2.252 1.227 0 2.486.106 3.776.319 1.291.212 2.613.522 3.966.932v6.445h-1.18c-1.071-2.172-2.141-3.715-3.212-4.627-1.07-.913-2.296-1.37-3.681-1.37-1.039 0-1.881.256-2.526.767-.646.512-.967 1.169-.967 1.971 0 1.339 1.738 2.707 5.216 4.108.284.11.495.196.637.26 3.164 1.29 5.21 2.462 6.138 3.517.928 1.054 1.393 2.455 1.393 4.201 0 2.566-.987 4.65-2.963 6.256-1.975 1.606-4.544 2.408-7.707 2.408-1.542 0-3.116-.166-4.722-.495a29.482 29.482 0 0 1-4.909-1.488v-.001Zm33.564-3.824c0 1.26.228 2.148.685 2.667.455.52 1.227.78 2.313.78h.331v1.346h-15.463v-1.346h.142c1.038 0 1.782-.263 2.231-.79.449-.528.672-1.413.672-2.656V17.17h-2.314v-1.32c.74-.582 1.669-1.786 2.786-3.612.598-.96 1.07-1.684 1.417-2.17 1.18-1.685 2.585-2.995 4.213-3.932 1.627-.937 3.333-1.404 5.11-1.404 1.905 0 3.459.46 4.662 1.381 1.205.921 1.807 2.088 1.807 3.505 0 .944-.299 1.704-.898 2.278-.597.575-1.392.861-2.382.861-.771 0-1.417-.176-1.936-.53-.521-.355-1.063-1.06-1.629-2.113-.582-1.024-1.079-1.692-1.487-2.007-.41-.314-.898-.472-1.464-.472-.661 0-1.18.193-1.558.579-.378.386-.567.9-.567 1.546 0 .693.465 1.593 1.393 2.702.929 1.11 1.526 2.082 1.794 2.916h4.437v1.793h-4.295v16.571Zm26.152.874c-1.338 1.604-2.872 2.828-4.605 3.67a12.516 12.516 0 0 1-5.547 1.263c-1.793 0-3.473-.363-5.039-1.087a11.55 11.55 0 0 1-4.048-3.115 11.624 11.624 0 0 1-2.101-3.671c-.472-1.345-.709-2.797-.709-4.355 0-1.605.229-3.1.685-4.485a13.44 13.44 0 0 1 2.078-3.918c1.007-1.37 2.364-2.479 4.071-3.33 1.708-.849 3.443-1.274 5.205-1.274 3.069 0 5.521.936 7.354 2.81 1.833 1.872 2.75 4.382 2.75 7.53h-13.668c.095 2.8 1.008 5.13 2.739 6.986 1.731 1.858 3.816 2.786 6.255 2.786.928 0 1.77-.168 2.525-.507a6.185 6.185 0 0 0 2.055-1.523v2.22Zm-13.621-11.638h2.171c2.141 0 3.454-.185 3.942-.555.489-.369.733-1.074.733-2.113 0-1.4-.253-2.451-.756-3.151-.504-.7-1.266-1.05-2.29-1.05-1.305 0-2.265.547-2.88 1.64-.615 1.094-.921 2.836-.921 5.228l.001.002Zm26.152-4.698c.786-1.322 1.64-2.314 2.56-2.974.921-.661 1.909-.992 2.963-.992 1.165 0 2.101.346 2.808 1.039.71.693 1.064 1.605 1.064 2.74 0 .99-.296 1.785-.886 2.382-.59.599-1.372.898-2.348.898-.882 0-1.727-.355-2.538-1.063-.811-.708-1.326-1.062-1.546-1.062-.519 0-.889.345-1.11 1.038-.221.693-.33 1.928-.33 3.707v9.749c0 1.227.247 2.109.743 2.644.495.535 1.31.802 2.444.802h.142v1.347h-15.463v-1.346h.142c1.038 0 1.782-.263 2.231-.79.449-.528.673-1.413.673-2.656v-8.9c0-.755-.094-1.313-.283-1.676-.189-.362-.543-.716-1.062-1.061l-2.952-2.078c1.543-.535 3.321-1.27 5.335-2.207 2.015-.936 4.485-2.168 7.413-3.695v4.154Z"/></svg>