<svg xmlns="http://www.w3.org/2000/svg" width="152" height="77" fill="none" viewBox="0 0 152 77">
  <path fill="#FF4A00" d="M72.123 29.166c1.66 0 3.202.276 4.624.829A9.252 9.252 0 0 1 80.4 32.56c1.015 1.161 1.808 2.634 2.381 4.419.572 1.787.858 3.893.858 6.323 0 4.86-1.32 8.662-3.958 11.404-2.64 2.743-6.377 4.115-11.213 4.115-.812 0-1.642-.056-2.49-.166a14.686 14.686 0 0 1-2.215-.442v12.978c-.443.072-.914.127-1.412.165-.498.036-.952.055-1.357.055-.406 0-.858-.02-1.356-.055a13.84 13.84 0 0 1-1.356-.165V29.828c.368-.073.747-.128 1.134-.165a12.732 12.732 0 0 1 2.354 0c.405.037.793.092 1.162.165.037.075.084.304.138.691.056.387.111.8.167 1.242.055.442.11.866.166 1.27.055.406.082.664.082.774.37-.59.812-1.16 1.33-1.712a8.857 8.857 0 0 1 1.855-1.49 9.675 9.675 0 0 1 2.436-1.05c.903-.258 1.909-.387 3.017-.387Zm-31.116 0c3.69 0 6.496.838 8.415 2.512 1.92 1.676 2.88 4.355 2.88 8.035v17.728a86.89 86.89 0 0 1-4.706.91c-1.847.313-3.73.47-5.648.47-1.81 0-3.442-.165-4.9-.497-1.459-.332-2.695-.864-3.71-1.602a7.413 7.413 0 0 1-2.353-2.816c-.554-1.14-.83-2.521-.83-4.143 0-1.58.322-2.971.969-4.169a8.708 8.708 0 0 1 2.63-2.981c1.107-.791 2.38-1.381 3.82-1.767 1.44-.387 2.953-.58 4.54-.58 1.181 0 2.15.028 2.907.082.756.057 1.393.12 1.91.194v-1.05c0-2.172-.553-3.68-1.66-4.528-1.108-.846-2.714-1.27-4.818-1.27-1.293 0-2.5.103-3.626.304a27.8 27.8 0 0 0-3.294.8c-.702-1.215-1.052-2.668-1.052-4.363 1.253-.404 2.637-.717 4.152-.938a30.219 30.219 0 0 1 4.374-.331Zm-14.118.662.276.719-15.06 23.249h14.12c.109.737.165 1.49.165 2.263 0 .739-.056 1.437-.166 2.1H4.077l-.277-.773L18.75 34.19H5.572a13.431 13.431 0 0 1-.166-2.209c0-.772.055-1.492.166-2.154H26.89Zm15.78 14.69c-2.29 0-4.035.424-5.233 1.27-1.2.848-1.8 2.137-1.8 3.866 0 1.104.202 1.97.61 2.595a4.187 4.187 0 0 0 1.522 1.436 5.294 5.294 0 0 0 2.02.608c.739.075 1.44.11 2.105.11.849 0 1.725-.045 2.63-.138a15.846 15.846 0 0 0 2.408-.414V44.85a49.043 49.043 0 0 0-2.104-.22 25.931 25.931 0 0 0-2.159-.111Zm28.236-10.603a7.23 7.23 0 0 0-2.658.498 6.54 6.54 0 0 0-2.27 1.49c-.664.663-1.199 1.501-1.604 2.513-.408 1.014-.61 2.218-.61 3.618V53.52c.7.258 1.42.442 2.159.552.738.11 1.697.166 2.88.166 1.328 0 2.546-.212 3.653-.636a7.238 7.238 0 0 0 2.85-1.96c.795-.884 1.422-1.997 1.884-3.342.46-1.343.692-2.935.692-4.775 0-2.946-.545-5.284-1.633-7.015-1.09-1.73-2.871-2.595-5.343-2.595Zm44.294-4.75c1.956 0 3.672.332 5.149.995 1.476.663 2.713 1.574 3.71 2.734.996 1.16 1.752 2.54 2.269 4.141.517 1.602.776 3.34.776 5.218 0 .517-.019 1.06-.057 1.63a57.16 57.16 0 0 1-.109 1.463h-19.324c.074 3.093.877 5.357 2.409 6.793 1.532 1.435 3.792 2.154 6.783 2.154 2.621 0 5.111-.46 7.474-1.38.296.552.535 1.223.72 2.015.185.792.295 1.574.332 2.347-1.218.516-2.557.901-4.014 1.16-1.459.256-3.073.386-4.844.386-2.585 0-4.8-.358-6.644-1.077-1.846-.718-3.369-1.73-4.569-3.037-1.199-1.306-2.076-2.853-2.63-4.64-.553-1.785-.83-3.745-.83-5.881 0-2.098.267-4.058.803-5.881.534-1.822 1.357-3.404 2.463-4.75 1.108-1.342 2.501-2.41 4.18-3.202 1.679-.792 3.664-1.188 5.953-1.188Zm-19.378.663v28.331a13.6 13.6 0 0 1-1.357.165c-.498.036-.951.055-1.357.055-.369 0-.803-.02-1.3-.055-.5-.038-.952-.092-1.358-.165V34.136H86.85a6.92 6.92 0 0 1-.165-1.022 11.718 11.718 0 0 1 0-2.264 6.96 6.96 0 0 1 .165-1.023h8.971Zm25.856 11.433c0-1.032-.139-2.016-.415-2.956-.277-.939-.684-1.757-1.218-2.457a5.933 5.933 0 0 0-2.05-1.684c-.83-.423-1.818-.636-2.961-.636-2.252 0-3.978.682-5.178 2.044-1.199 1.362-1.928 3.258-2.187 5.688h14.009Zm13.789-11.654c.406 0 .811.02 1.218.056a9.15 9.15 0 0 1 1.108.165c.11.552.221 1.281.332 2.181.11.904.166 1.667.166 2.293.775-1.251 1.8-2.338 3.073-3.259 1.273-.92 2.906-1.38 4.9-1.38.294 0 .599.008.913.028.313.019.582.046.803.082.073.332.129.683.166 1.05.037.368.055.754.055 1.16 0 .441-.028.902-.082 1.38-.056.479-.121.94-.194 1.38a3.837 3.837 0 0 0-.914-.11h-.747a9.73 9.73 0 0 0-2.852.414 5.963 5.963 0 0 0-2.437 1.463c-.719.7-1.292 1.658-1.715 2.873-.425 1.214-.637 2.78-.637 4.693v14.083a13.57 13.57 0 0 1-1.357.165 18.83 18.83 0 0 1-1.355.055 18.815 18.815 0 0 1-2.77-.22V29.828c.406-.073.794-.128 1.163-.165.368-.036.757-.055 1.163-.055ZM91.988 5.53c.52 0 1.03.045 1.527.128v5.35l3.793-3.783a9.22 9.22 0 0 1 2.167 2.161l-3.793 3.784h5.364c.084.495.128 1.002.128 1.521v.013c0 .519-.044 1.027-.128 1.522h-5.365l3.794 3.783a9.18 9.18 0 0 1-.992 1.171 9.302 9.302 0 0 1-1.174.99l-3.794-3.784v5.351a9.358 9.358 0 0 1-1.526.128h-.013a9.353 9.353 0 0 1-1.524-.128v-5.35l-3.794 3.783a9.22 9.22 0 0 1-2.167-2.161l3.794-3.783H82.92a9.113 9.113 0 0 1-.128-1.525v-.007c0-.146.01-.33.025-.52l.01-.127c.038-.444.093-.877.093-.877h5.365L84.49 9.385a9.174 9.174 0 0 1 2.167-2.161l3.794 3.784V5.657a9.354 9.354 0 0 1 1.526-.128h.01Zm0 6.876h-.01a5.51 5.51 0 0 0-1.94.352 5.508 5.508 0 0 0-.353 1.935v.009c0 .68.126 1.333.354 1.935a5.501 5.501 0 0 0 1.94.352h.009c.682 0 1.336-.125 1.94-.352a5.467 5.467 0 0 0 .353-1.935v-.009c0-.68-.126-1.333-.353-1.935a5.501 5.501 0 0 0-1.94-.352Z"/>
</svg>
