<svg width="32" height="32" viewBox="0 0 32 32" fill="none" xmlns="http://www.w3.org/2000/svg"><g id="Icon-Pause"><g clip-path="url(#clip0_12_3243)"><g id="size=md (32px)"><path id="Vector" d="M25 5H20.5C19.9477 5 19.5 5.44772 19.5 6V26C19.5 26.5523 19.9477 27 20.5 27H25C25.5523 27 26 26.5523 26 26V6C26 5.44772 25.5523 5 25 5Z" stroke="#101828" stroke-width="2" stroke-linecap="round" stroke-linejoin="round"/><path id="Vector_2" d="M11.5 5H7C6.44772 5 6 5.44772 6 6V26C6 26.5523 6.44772 27 7 27H11.5C12.0523 27 12.5 26.5523 12.5 26V6C12.5 5.44772 12.0523 5 11.5 5Z" stroke="#101828" stroke-width="2" stroke-linecap="round" stroke-linejoin="round"/></g></g><rect x="0.5" y="0.5" width="31" height="31" rx="4.5" stroke="#3D90E3" stroke-dasharray="10 5"/></g><defs><clipPath id="clip0_12_3243"><rect width="32" height="32" rx="5" fill="white"/></clipPath></defs></svg>