<svg width="32" height="32" viewBox="0 0 32 32" fill="none" xmlns="http://www.w3.org/2000/svg"><g id="Icon-Microphone"><g clip-path="url(#clip0_12_3427)"><g id="size=md (32px)"><path id="Vector" d="M21 8C21 5.23858 18.7614 3 16 3C13.2386 3 11 5.23858 11 8V16C11 18.7614 13.2386 21 16 21C18.7614 21 21 18.7614 21 16V8Z" stroke="#101828" stroke-width="2" stroke-linecap="round" stroke-linejoin="round"/><path id="Vector_2" d="M16 25V29" stroke="#101828" stroke-width="2" stroke-linecap="round" stroke-linejoin="round"/><path id="Vector_3" d="M24.9498 17C24.6904 19.1915 23.6359 21.2116 21.9863 22.6774C20.3367 24.1433 18.2066 24.9529 15.9998 24.9529C13.793 24.9529 11.6629 24.1433 10.0133 22.6774C8.36371 21.2116 7.30925 19.1915 7.0498 17" stroke="#101828" stroke-width="2" stroke-linecap="round" stroke-linejoin="round"/></g></g><rect x="0.5" y="0.5" width="31" height="31" rx="4.5" stroke="#3D90E3" stroke-dasharray="10 5"/></g><defs><clipPath id="clip0_12_3427"><rect width="32" height="32" rx="5" fill="white"/></clipPath></defs></svg>