<svg width="32" height="32" viewBox="0 0 32 32" fill="none" xmlns="http://www.w3.org/2000/svg"><g id="Icon-VideoCameraSlash"><g clip-path="url(#clip0_12_2631)"><g id="size=md (32px)"><path id="Vector" d="M30 22L23 18V14L30 10V22Z" stroke="#101828" stroke-width="2" stroke-linecap="round" stroke-linejoin="round"/><path id="Vector_2" d="M4.3623 3L27.9998 29" stroke="#101828" stroke-width="2" stroke-linecap="round" stroke-linejoin="round"/><path id="Vector_3" d="M13.8623 7.5H21.9998C22.265 7.5 22.5194 7.60536 22.7069 7.79289C22.8944 7.98043 22.9998 8.23478 22.9998 8.5V18" stroke="#101828" stroke-width="2" stroke-linecap="round" stroke-linejoin="round"/><path id="Vector_4" d="M23 23.5C23 23.7652 22.8946 24.0196 22.7071 24.2071C22.5196 24.3946 22.2652 24.5 22 24.5H3C2.73478 24.5 2.48043 24.3946 2.29289 24.2071C2.10536 24.0196 2 23.7652 2 23.5V8.5C2 8.23478 2.10536 7.98043 2.29289 7.79289C2.48043 7.60536 2.73478 7.5 3 7.5H8.45" stroke="#101828" stroke-width="2" stroke-linecap="round" stroke-linejoin="round"/></g></g><rect x="0.5" y="0.5" width="31" height="31" rx="4.5" stroke="#3D90E3" stroke-dasharray="10 5"/></g><defs><clipPath id="clip0_12_2631"><rect width="32" height="32" rx="5" fill="white"/></clipPath></defs></svg>