<svg width="32" height="32" viewBox="0 0 32 32" fill="none" xmlns="http://www.w3.org/2000/svg"><g id="Icon-Copyleft"><g clip-path="url(#clip0_12_3867)"><g id="size=md (32px)"><path id="Vector" d="M16 28C22.6274 28 28 22.6274 28 16C28 9.37258 22.6274 4 16 4C9.37258 4 4 9.37258 4 16C4 22.6274 9.37258 28 16 28Z" stroke="#101828" stroke-width="2" stroke-linecap="round" stroke-linejoin="round"/><path id="Vector_2" d="M12 13C12.6296 12.1605 13.5075 11.5403 14.5092 11.2274C15.5108 10.9145 16.5856 10.9247 17.5811 11.2566C18.5767 11.5884 19.4426 12.2251 20.0562 13.0764C20.6698 13.9278 21 14.9506 21 16C21 17.0494 20.6698 18.0722 20.0562 18.9236C19.4426 19.7749 18.5767 20.4116 17.5811 20.7434C16.5856 21.0753 15.5108 21.0855 14.5092 20.7726C13.5075 20.4597 12.6296 19.8395 12 19" stroke="#101828" stroke-width="2" stroke-linecap="round" stroke-linejoin="round"/></g></g><rect x="0.5" y="0.5" width="31" height="31" rx="4.5" stroke="#3D90E3" stroke-dasharray="10 5"/></g><defs><clipPath id="clip0_12_3867"><rect width="32" height="32" rx="5" fill="white"/></clipPath></defs></svg>