<svg width="32" height="32" viewBox="0 0 32 32" fill="none" xmlns="http://www.w3.org/2000/svg"><g id="Icon-SpeakerLow"><g clip-path="url(#clip0_12_2821)"><g id="size=md (32px)"><path id="Vector" d="M10 21H4C3.73478 21 3.48043 20.8946 3.29289 20.7071C3.10536 20.5196 3 20.2652 3 20V12C3 11.7348 3.10536 11.4804 3.29289 11.2929C3.48043 11.1054 3.73478 11 4 11H10L19 4V28L10 21Z" stroke="#101828" stroke-width="2" stroke-linecap="round" stroke-linejoin="round"/><path id="Vector_2" d="M10 11V21" stroke="#101828" stroke-width="2" stroke-linecap="round" stroke-linejoin="round"/><path id="Vector_3" d="M23.8252 13.175C24.1971 13.5455 24.4922 13.9858 24.6935 14.4706C24.8949 14.9553 24.9985 15.4751 24.9985 16C24.9985 16.525 24.8949 17.0448 24.6935 17.5295C24.4922 18.0143 24.1971 18.4546 23.8252 18.825" stroke="#101828" stroke-width="2" stroke-linecap="round" stroke-linejoin="round"/></g></g><rect x="0.5" y="0.5" width="31" height="31" rx="4.5" stroke="#3D90E3" stroke-dasharray="10 5"/></g><defs><clipPath id="clip0_12_2821"><rect width="32" height="32" rx="5" fill="white"/></clipPath></defs></svg>