<svg width="32" height="32" viewBox="0 0 32 32" fill="none" xmlns="http://www.w3.org/2000/svg"><g id="Icon-EjectSimple"><g clip-path="url(#clip0_12_3733)"><g id="size=md (32px)"><path id="Vector" d="M15.2249 4.95007L4.32486 18.3751C4.2074 18.5218 4.13366 18.6986 4.11208 18.8853C4.09051 19.072 4.12197 19.2609 4.20287 19.4306C4.28376 19.6002 4.41082 19.7436 4.56947 19.8443C4.72811 19.945 4.91194 19.999 5.09986 20.0001H26.8999C27.0878 19.999 27.2716 19.945 27.4302 19.8443C27.5889 19.7436 27.716 19.6002 27.7968 19.4306C27.8777 19.2609 27.9092 19.072 27.8876 18.8853C27.8661 18.6986 27.7923 18.5218 27.6749 18.3751L16.7749 4.95007C16.6811 4.83506 16.5629 4.74237 16.4288 4.67871C16.2948 4.61506 16.1483 4.58203 15.9999 4.58203C15.8515 4.58203 15.7049 4.61506 15.5709 4.67871C15.4368 4.74237 15.3186 4.83506 15.2249 4.95007Z" stroke="#101828" stroke-width="2" stroke-linecap="round" stroke-linejoin="round"/><path id="Vector_2" d="M28 26H4" stroke="#101828" stroke-width="2" stroke-linecap="round" stroke-linejoin="round"/></g></g><rect x="0.5" y="0.5" width="31" height="31" rx="4.5" stroke="#3D90E3" stroke-dasharray="10 5"/></g><defs><clipPath id="clip0_12_3733"><rect width="32" height="32" rx="5" fill="white"/></clipPath></defs></svg>