<svg xmlns="http://www.w3.org/2000/svg" fill="none" aria-hidden="true" viewBox="0 0 242 49"><path fill="red" d="M63.648 5.272 58.48 26.375 53.295 5.272H38.09v7.792c-1.826-6.82-8.268-8.532-14.236-8.629C16.584 4.34 8.958 7.5 8.676 17.147h10.06c0-2.912 2.226-4.58 4.734-4.54 3.078-.023 4.498 1.294 4.571 3.352-.107 1.781-1.155 3.025-4.548 3.025H20.11v7.006h3.072c1.741 0 4.17.95 4.266 3.444.119 2.968-1.944 4.28-4.475 4.303-4.525-.164-5.258-3.659-5.258-6.656H7.28c.045 2.02-.451 15.183 15.915 15.086 7.84.074 13.312-3.234 14.918-7.791v6.983h10.303v-22.76l5.568 22.766h9l5.591-22.743v22.765h10.274V5.272h-15.2Zm-25.53 21.052c-1.28-2.663-3.083-3.828-4.103-4.196 2.13-.95 3.252-2.239 4.103-4.812v9.008Z"/><path fill="#000" d="M97.633 9.344c-.14-.768-.772-1.976-2.543-1.976-1.32 0-2.188.847-2.188 1.778 0 .768.49 1.383 1.517 1.58l1.95.379c2.544.496 3.909 2.156 3.909 4.126 0 2.156-1.799 4.323-5.053 4.323-3.71 0-5.346-2.393-5.566-4.385l2.526-.672c.119 1.388 1.083 2.63 3.057 2.63 1.46 0 2.267-.734 2.267-1.721 0-.808-.609-1.445-1.697-1.66l-1.957-.395c-2.228-.452-3.666-1.896-3.666-4.007 0-2.49 2.228-4.386 4.873-4.386 3.395 0 4.697 2.055 5.013 3.64l-2.442.746Zm6.474 5.056c0 1.762 1.145 2.75 2.487 2.75s2.013-.892 2.228-1.637l2.306.767c-.434 1.62-1.951 3.28-4.534 3.28-2.865 0-5.115-2.173-5.115-5.153 0-3.003 2.211-5.16 5.031-5.16 2.644 0 4.145 1.637 4.556 3.28l-2.351.79c-.237-.807-.846-1.637-2.149-1.637-1.331-.005-2.459.966-2.459 2.72Zm10.083-9.673a1.62 1.62 0 0 1 1.619 1.637c0 .869-.711 1.597-1.619 1.597-.885 0-1.618-.728-1.618-1.597a1.63 1.63 0 0 1 1.618-1.637Zm-1.302 14.534V9.546h2.622v9.713h-2.622Zm14.031-2.783c-.491 1.676-2.031 3.076-4.422 3.076-2.662 0-5.013-1.913-5.013-5.193 0-3.104 2.289-5.119 4.776-5.119 3.001 0 4.8 1.92 4.8 5.035 0 .378-.04.773-.04.813h-6.948c.057 1.28 1.145 2.212 2.448 2.212 1.224 0 1.895-.61 2.21-1.479l2.189.655Zm-2.448-3.183c-.039-.966-.671-1.914-2.171-1.914-1.359 0-2.109 1.027-2.171 1.914h4.342Zm4.438 5.965V9.548h2.544v1.202c.592-1.01 1.753-1.456 2.802-1.456 2.408 0 3.514 1.716 3.514 3.85v6.117h-2.623v-5.672c0-1.084-.53-1.936-1.793-1.936-1.145 0-1.816.892-1.816 2.015v5.594h-2.628Zm13.123-4.86c0 1.762 1.145 2.75 2.487 2.75s2.013-.892 2.228-1.637l2.306.767c-.434 1.62-1.951 3.28-4.54 3.28-2.864 0-5.109-2.173-5.109-5.153 0-3.003 2.211-5.16 5.031-5.16 2.644 0 4.145 1.637 4.556 3.28l-2.351.79c-.237-.807-.846-1.637-2.149-1.637-1.331-.005-2.459.966-2.459 2.72Zm17.505 2.078c-.496 1.676-2.036 3.076-4.421 3.076-2.662 0-5.014-1.913-5.014-5.193 0-3.104 2.29-5.119 4.777-5.119 3 0 4.793 1.92 4.793 5.035 0 .378-.039.773-.039.813h-6.948c.062 1.28 1.145 2.212 2.447 2.212 1.224 0 1.895-.61 2.211-1.479l2.194.655Zm-2.448-3.183c-.039-.966-.671-1.914-2.171-1.914-1.359 0-2.109 1.027-2.171 1.914h4.342Zm5.978 2.511c1.004 0 1.816.807 1.816 1.8a1.81 1.81 0 0 1-1.816 1.796 1.802 1.802 0 0 1-1.793-1.795 1.8 1.8 0 0 1 1.793-1.8ZM98.998 37.813h-5.685l-1.161 3.2H89.27l5.369-14.003h3.158l5.323 14.003h-2.96l-1.162-3.2Zm-4.777-2.49h3.869l-1.934-5.293-1.935 5.294Zm10.36 9.444V31.294h2.549v1.185c.434-.75 1.517-1.405 2.977-1.405 2.843 0 4.478 2.173 4.478 5.057 0 2.94-1.833 5.12-4.579 5.12-1.342 0-2.329-.537-2.803-1.186v4.702h-2.622Zm5.013-11.34c-1.342 0-2.425 1.01-2.425 2.727 0 1.715 1.083 2.743 2.425 2.743 1.342 0 2.408-1.005 2.408-2.743-.005-1.722-1.066-2.727-2.408-2.727Zm6.728 11.34V31.294h2.549v1.185c.434-.75 1.517-1.405 2.978-1.405 2.842 0 4.477 2.173 4.477 5.057 0 2.94-1.832 5.12-4.579 5.12-1.342 0-2.329-.537-2.797-1.186v4.702h-2.628Zm5.014-11.34c-1.343 0-2.425 1.01-2.425 2.727 0 1.715 1.082 2.743 2.425 2.743 1.342 0 2.408-1.005 2.408-2.743 0-1.722-1.066-2.727-2.408-2.727Zm6.767 7.581V26.71h2.628v14.297h-2.628Zm6.626-14.534a1.62 1.62 0 0 1 1.619 1.637c0 .869-.711 1.597-1.619 1.597-.891 0-1.618-.728-1.618-1.597 0-.904.733-1.637 1.618-1.637Zm-1.297 14.534v-9.714h2.622v9.714h-2.622Zm14.104-2.783c-.49 1.682-2.03 3.082-4.421 3.082-2.662 0-5.014-1.914-5.014-5.193 0-3.104 2.29-5.12 4.777-5.12 3 0 4.794 1.92 4.794 5.035 0 .378-.04.774-.04.813h-6.942c.062 1.281 1.145 2.213 2.447 2.213 1.224 0 1.895-.61 2.211-1.48l2.188.65Zm-2.442-3.178c-.039-.965-.671-1.913-2.171-1.913-1.365 0-2.115 1.027-2.171 1.913h4.342Zm13.89 4.205c0 .655.04 1.366.079 1.761h-2.509a6.713 6.713 0 0 1-.096-1.123c-.434.768-1.421 1.366-2.724 1.366-2.763 0-4.737-2.173-4.737-5.12 0-2.844 1.917-5.08 4.658-5.08 1.675 0 2.464.695 2.741 1.209V26.71h2.588v12.541Zm-4.934-.355c1.342 0 2.385-1.028 2.385-2.783 0-1.733-1.049-2.703-2.385-2.703-1.342 0-2.408.987-2.408 2.726 0 1.732 1.026 2.76 2.408 2.76Zm15.254-7.603h1.952v2.331h-1.952v4.064c0 .852.395 1.129 1.145 1.129.316 0 .671-.04.807-.08v2.174c-.237.096-.711.237-1.478.237-1.895 0-3.079-1.13-3.079-3.009v-4.515h-1.754v-2.331h.496c1.027 0 1.5-.672 1.5-1.541v-1.366h2.369v2.907h-.006Zm13.439 4.86c0 2.98-2.188 5.153-5.092 5.153-2.899 0-5.087-2.173-5.087-5.153 0-3.003 2.188-5.16 5.087-5.16 2.898 0 5.092 2.157 5.092 5.16Zm-2.622 0c0-1.84-1.185-2.766-2.47-2.766-1.281 0-2.465.926-2.465 2.766 0 1.817 1.184 2.76 2.465 2.76 1.285 0 2.47-.926 2.47-2.76Zm8.385 4.854V27.01h2.724V38.4h6.232v2.608h-8.956Zm12.058-14.534c.907 0 1.612.733 1.612 1.637 0 .869-.71 1.597-1.612 1.597-.891 0-1.619-.728-1.619-1.597a1.627 1.627 0 0 1 1.619-1.637Zm-1.309 14.534v-9.714h2.628v9.714h-2.628Zm8.82-10.781v1.067h2.188v2.252h-2.188v7.462h-2.645v-7.462h-1.618v-2.252h1.618v-1.106c0-2.196 1.382-3.613 3.531-3.613.552 0 1.088.096 1.302.198v2.212c-.141-.045-.394-.101-.829-.101-.586 0-1.359.26-1.359 1.343Zm12.238 7.998c-.497 1.682-2.036 3.082-4.422 3.082-2.661 0-5.013-1.914-5.013-5.193 0-3.104 2.284-5.12 4.777-5.12 3 0 4.793 1.92 4.793 5.035 0 .378-.039.774-.039.813h-6.948c.056 1.281 1.145 2.213 2.447 2.213 1.224 0 1.895-.61 2.211-1.48l2.194.65Zm-2.448-3.178c-.039-.965-.671-1.913-2.171-1.913-1.359 0-2.109 1.027-2.171 1.913h4.342Zm5.978 2.512c1.004 0 1.816.807 1.816 1.795 0 .988-.812 1.8-1.816 1.8a1.803 1.803 0 0 1-1.793-1.8c0-.988.806-1.795 1.793-1.795Zm6.13-6.277V27.01h1.134l1.252 3.098 1.223-3.098h1.139v4.272h-.817v-2.968l-1.201 2.968h-.717l-1.201-2.963v2.963h-.812Zm-4.314-4.272h3.541v.796h-1.353v3.476h-.84v-3.476h-1.348v-.796Z"/></svg>