<svg xmlns="http://www.w3.org/2000/svg" fill="none" aria-hidden="true" viewBox="0 0 250 48"><g fill="#00AAF2"><path d="M32.772 23.129c1.037.005 2.073.01 3.11.01 1.038 0 2.077-.005 3.114-.01 2.068-.011 4.128-.022 6.167.01.864 0 1.21-.246 1.16-1.16a64.423 64.423 0 0 1-.011-2.912c.005-.485.01-.97.01-1.456.034-2.635.023-5.303.012-7.96v-.002a955.75 955.75 0 0 1-.011-3.96c0-.081.003-.164.007-.247.022-.55.044-1.091-.92-.963-4.777.722-9.553 1.403-14.329 2.083a5089.4 5089.4 0 0 0-4.776.682c-.815.148-1.11.444-1.11 1.308.048 4.418.048 8.812 0 13.28 0 1.11.394 1.308 1.357 1.308 2.073-.033 4.146-.022 6.22-.011Zm13.6 19.338v-8.22c0-.679-.003-1.356-.006-2.033v-.022c-.01-2.048-.019-4.092.056-6.164 0-.914-.247-1.308-1.26-1.308-6.195 0-12.415 0-18.734-.05-.962 0-1.259.296-1.259 1.259v.025c.05 4.41.099 8.795 0 13.156 0 1.21.395 1.604 1.506 1.752 1.543.216 3.087.43 4.631.645 4.633.643 9.266 1.287 13.857 1.972.913.148 1.21-.05 1.21-1.012ZM15.296 24.794h6.96c.741 0 1.062.246 1.062 1.012v13.723c0 .79-.345.864-1.061.79-4.616-.69-9.232-1.357-13.823-2-.913-.147-1.21-.443-1.21-1.406.05-3.653.05-7.306 0-11.033 0-.914.248-1.16 1.16-1.16 2.346.074 4.592.074 6.912.074ZM8.434 23.14h6.862c1.117 0 2.251-.012 3.392-.025h.002c1.154-.012 2.314-.025 3.468-.025.864 0 1.259-.148 1.259-1.11V8.848c0-.864-.099-1.21-1.16-1.061-4.591.74-9.207 1.407-13.823 2-.913.147-1.16.444-1.16 1.307.05 3.629.05 7.233 0 10.836 0 .914.296 1.21 1.16 1.21ZM63.7 12.156c-.05-.74-.1-1.703-.1-2.394h-.048c-.107.462-.29.988-.477 1.524-.073.207-.146.416-.215.623l-.962 2.666h-.543l-.864-2.617a24.9 24.9 0 0 1-.506-1.665c-.046-.163-.09-.325-.136-.482a25.89 25.89 0 0 0-.05 1.206l-.001.007c-.012.407-.024.832-.048 1.23l-.148 2.346h-.641l.394-5.554h.914l.962 2.715c.21.547.35 1.112.477 1.633l.066.268h.05c.148-.544.345-1.21.592-1.901l1.012-2.715h.913l.346 5.554h-.79l-.197-2.444Zm2.419-2.222a.442.442 0 0 0 .444-.444c0-.247-.198-.444-.494-.444a.442.442 0 0 0-.444.444c0 .247.197.444.444.444h.05Zm-.346.741v3.95h.74v-3.95h-.74Zm4.739 3.776c-.345.149-.74.247-1.16.247-1.21 0-2-.79-2-2.049-.049-1.16.79-2.098 1.95-2.147h.198c.346 0 .691.05 1.012.197l-.148.544c-.247-.1-.543-.198-.864-.149-.913 0-1.407.642-1.407 1.506 0 .963.593 1.506 1.407 1.506.296 0 .593-.05.864-.198l.148.543Zm.788-3.271c.013.215.027.444.027.68l.05 2.764h.69v-2.147c0-.05.013-.099.025-.148a.62.62 0 0 0 .025-.149c.098-.567.468-.962.962-.962.099 0 .198 0 .247.05v-.643c-.05-.049-.148-.049-.197-.049-.519 0-.963.37-1.111.864h-.05l-.049-.79h-.642c0 .162.011.34.023.528v.002Z"/><path fill-rule="evenodd" d="M77.596 12.6c.05 1.062-.74 2-1.802 2.049h-.148c-1.061 0-1.9-.79-1.9-2.049 0-1.357.913-2.098 1.999-2.098.987 0 1.851.864 1.851 2.098Zm-3.16 0c0 .79.396 1.506 1.21 1.506.79 0 1.21-.74 1.21-1.506 0-.691-.296-1.555-1.21-1.555-.962.05-1.21.864-1.21 1.555Z" clip-rule="evenodd"/><path d="M79.349 14.155a1.65 1.65 0 0 1-.963-.296l-.123.444c.37.198.715.296 1.11.296.963 0 1.506-.518 1.506-1.209 0-.617-.42-.963-1.061-1.21-.494-.197-.74-.345-.74-.641 0-.346.295-.593.641-.543.247 0 .543.098.79.247l.148-.494a2.444 2.444 0 0 0-1.012-.247c-.864 0-1.358.518-1.358 1.16 0 .518.37.913 1.062 1.16.543.247.74.445.74.74 0 .346-.247.593-.74.593Z"/><path fill-rule="evenodd" d="M85.347 12.6c.05 1.062-.74 2-1.802 2.049h-.148c-1.062 0-1.9-.79-1.9-2.049 0-1.357.912-2.098 1.999-2.098 1.011 0 1.85.864 1.85 2.098Zm-3.135 0c0 .79.395 1.506 1.21 1.506.814 0 1.209-.74 1.209-1.506 0-.691-.296-1.555-1.21-1.555-.913 0-1.21.864-1.21 1.555Z" clip-rule="evenodd"/><path d="M86.31 11.168v3.456l.715-.099V11.12h.963v-.543h-.963v-.247c0-.617.148-1.16.74-1.16.149 0 .297.05.445.099l.099-.543a2.452 2.452 0 0 0-.593-.099c-.37 0-.715.148-.962.395a1.861 1.861 0 0 0-.445 1.407v.197h-.543v.543h.543Zm3.307-1.728v1.16h1.061v.544h-1.061v2.147c0 .494.148.74.543.74.148 0 .296 0 .395-.049l.05.543c-.198.1-.396.1-.643.1-.296 0-.543-.1-.79-.297a1.587 1.587 0 0 1-.246-1.061V11.07h-.593v-.543h.593v-.963l.69-.123Z"/><path fill-rule="evenodd" d="m61.355 35.58 1.9-5.874v-.025h6.615l2 5.874h2.567L68.069 16.92h-2.864l-6.368 18.66h2.518Zm6.22-13.082 1.802 5.356h-5.579L65.6 22.45c.37-1.111.667-2.247.913-3.357h.1c.27 1.061.567 2.197.962 3.406Z" clip-rule="evenodd"/><path d="M86.26 35.111c-1.21.543-2.518.79-3.85.79-4 0-6.665-2.765-6.665-6.813s2.863-7.108 7.158-7.108c1.16 0 2.296.197 3.357.69l-.543 1.852c-.864-.444-1.851-.642-2.863-.642-3.061 0-4.715 2.296-4.715 5.06 0 3.11 2 5.011 4.665 5.011 1.012 0 2.049-.197 2.962-.642l.494 1.802Zm6.17-12.884v-3.851l-2.468.592v3.259h-2.048v1.801h2.098v7.307c0 1.604.271 2.715.913 3.505a3.459 3.459 0 0 0 2.617 1.012c.987 0 1.752-.1 2.196-.346l-.099-1.802a6.814 6.814 0 0 1-1.406.148c-1.358 0-1.802-.962-1.802-2.616v-7.208h3.455v-1.801h-3.455Zm8.911-3.752c0 .79-.592 1.456-1.407 1.505h-.098c-.79 0-1.457-.592-1.457-1.357v-.099c-.049-.79.593-1.506 1.407-1.506h.099c.815-.098 1.456.593 1.456 1.457Zm-2.691 17.08V22.227h2.395v13.328h-2.394Zm10.022-5.8-2.616-7.528h-2.543l5.061 13.328h2.344l5.258-13.328h-2.567l-2.63 7.568h-.001v.002l-.001.001c-.414 1.194-.803 2.315-1.095 3.413h-.099a49.978 49.978 0 0 0-1.111-3.456Z"/><path fill-rule="evenodd" d="M124.05 34c-2.407 0-4.496-1.344-4.566-4.615h9.354l.021-.171c.041-.346.078-.65.078-.99 0-2.468-1.135-6.269-5.504-6.269-3.974 0-6.319 3.16-6.319 7.208 0 3.998 2.468 6.763 6.566 6.763 1.555.049 3.06-.272 4.467-.864l-.395-1.753c-.839.395-1.95.691-3.702.691Zm2.542-6.417c.05-1.506-.642-3.9-3.357-3.9-2.443 0-3.554 2.246-3.752 3.9h7.109Zm16.439-10.763c-1.753 0-3.456.149-5.159.396l-.049 18.34c1.456.197 2.962.246 4.418.246 3.604 0 6.467-.962 8.22-2.715 1.752-1.752 2.715-4.196 2.715-7.257 0-2.962-.963-5.158-2.617-6.664-1.604-1.555-4.072-2.345-7.528-2.345Zm-.296 17.032c-.79 0-1.605-.05-2.394-.148l-.025-14.686c.962-.148 1.9-.247 2.863-.247 5.085 0 7.578 2.74 7.528 7.158 0 5.06-2.813 7.923-7.972 7.923Z" clip-rule="evenodd"/><path d="M159.026 18.475c0 .79-.593 1.456-1.407 1.505h-.099c-.79 0-1.456-.592-1.456-1.357v-.099c-.05-.79.592-1.506 1.407-1.506h.098c.766-.098 1.457.593 1.457 1.457Zm-2.74 17.08V22.227h2.394v13.328h-2.394Zm6.343-13.328c.05 1.258.099 2.616.099 4.171l.099 9.157h2.394v-7.158c0-.37 0-.765.099-1.11.345-1.802 1.506-3.11 3.258-3.11.296 0 .543.049.79.098V21.98c-.198-.05-.395-.05-.642-.05-1.604 0-3.11 1.111-3.752 2.913h-.098l-.099-2.616h-2.148Z"/><path fill-rule="evenodd" d="M177.439 34c-2.407 0-4.496-1.344-4.565-4.615h9.354l.02-.166v-.005c.042-.346.078-.65.078-.99 0-2.468-1.135-6.269-5.504-6.269-3.974 0-6.319 3.16-6.319 7.208 0 3.998 2.469 6.763 6.566 6.763 1.555.049 3.061-.272 4.468-.864l-.395-1.753c-.84.395-1.95.691-3.703.691Zm2.543-6.417c.049-1.506-.642-3.9-3.357-3.9-2.444 0-3.555 2.246-3.752 3.9h7.109Z" clip-rule="evenodd"/><path d="M191.015 35.9c1.333 0 2.641-.246 3.85-.789l-.493-1.802c-.914.445-1.95.642-2.962.642-2.666 0-4.665-1.9-4.665-5.01 0-2.765 1.653-5.06 4.714-5.06 1.012 0 1.999.197 2.863.641l.543-1.851c-1.061-.494-2.196-.691-3.356-.691-4.295 0-7.159 3.06-7.159 7.108s2.666 6.813 6.665 6.813Zm10.021-17.524v3.85h3.456v1.802h-3.456v7.208c0 1.654.445 2.616 1.802 2.616.444 0 .963-.05 1.407-.148l.099 1.802c-.445.247-1.21.346-2.197.346a3.458 3.458 0 0 1-2.616-1.012c-.642-.79-.914-1.901-.914-3.505v-7.307h-2.048v-1.801h2.048v-3.259l2.419-.592Z"/><path fill-rule="evenodd" d="M212.465 35.9c3.11 0 6.713-2.097 6.713-7.009 0-4.295-2.665-6.96-6.417-6.96-3.604 0-6.665 2.542-6.665 7.01 0 4.344 2.864 6.96 6.369 6.96Zm.172-1.85c-2.69 0-4.048-2.394-4.048-5.11 0-2.394 1.062-5.257 4.048-5.257 2.987 0 4.098 2.863 4.098 5.208 0 2.765-1.432 5.159-4.098 5.159Z" clip-rule="evenodd"/><path d="M222.239 26.398c0-1.555-.049-2.913-.099-4.171h2.148l.098 2.616h.099c.642-1.802 2.148-2.913 3.752-2.913.247 0 .444 0 .642.05v2.295a3.8 3.8 0 0 0-.79-.098c-1.753 0-2.913 1.308-3.258 3.11-.099.345-.099.74-.099 1.11v7.158h-2.394l-.099-9.157Zm13.526 3.702-2.912-7.873v.024h-2.617l4.912 12.268c.099.197.198.395.198.642 0 .197-.099.394-.198.592a7.27 7.27 0 0 1-1.999 2.715 5.818 5.818 0 0 1-2.148 1.21l.593 2.048a7.436 7.436 0 0 0 2.962-1.555c1.654-1.456 2.814-3.85 4.566-8.417l3.653-9.527h-2.567l-2.666 7.873c-.253.658-.448 1.34-.625 1.956-.082.287-.16.559-.238.809h-.05c-.222-.864-.568-1.9-.864-2.765Z"/></g></svg>