<svg xmlns="http://www.w3.org/2000/svg" fill="none" aria-hidden="true" viewBox="0 0 207 58"><path fill="#F80" d="M14.098 24.189h17.986v5.054l-6.763.52c-10.926.818-14.344 3.709-14.344 11.818v1.634c0 5.935 4.162 9.514 10.553 9.514 5.054 0 7.953-1.19 11.521-4.832h.594v3.865h7.208V16.31H14.098v7.879Zm17.986 17.095c-2.226 2.226-5.574 3.71-8.324 3.71-2.967 0-4.236-1.116-4.162-3.569.074-3.417 1.338-4.236 7.06-4.755l5.426-.52v5.134Z"/><path fill="#000" fill-rule="evenodd" d="M56.011 16.312H69.91v7.209h7.58v28.24h-8.844V24.266H56.011v27.497h-8.846V5.684h8.846v10.628Zm129.323 14.27-5.351-.523c-2.968-.296-3.709-1.038-3.709-3.417 0-2.676 1.04-3.346 5.193-3.346 3.709 0 4.755.596 5.277 3.123h8.324c-.223-8.472-2.824-10.633-13.156-10.633-11.297 0-14.121 2.156-14.121 10.85 0 7.954 2.08 10.108 10.481 10.926l4.384.446c3.939.37 4.904 1.115 4.904 3.494 0 2.898-1.189 3.64-6.019 3.64-4.236 0-5.352-.668-5.574-3.418h-8.408c.222 8.77 2.898 11 13.601 11 11.89 0 14.862-2.379 14.862-12.04.013-7.205-2.141-9.287-10.688-10.103Zm-45.53.667c0-11.445-3.937-15.458-15.236-15.458-11.148 0-15.533 5.193-15.533 18.134 0 14.123 3.865 18.794 16.352 18.794 8.993 0 12.782-2.75 14.046-10.48h-8.547c-.967 2.389-2.005 2.908-5.636 2.908-5.5 0-6.912-1.56-7.208-8.176h21.18c.355-1.887.549-3.802.582-5.722Zm-21.7-1.264c.074-4.978 2.079-6.835 6.837-6.835 4.533 0 6.39 1.857 6.541 6.835h-13.378Zm26.848-12.115v33.892h8.846v-27.87h10.634V16.31h-10.634v-.965c.072-2.082.593-2.675 2.302-2.675h9.662V5.684h-10.408c-7.058 0-10.402 2.153-10.402 12.186ZM92.818 51.762h-8.844v-35.45h22v8.324H92.818v27.126Z" clip-rule="evenodd"/></svg>