<svg xmlns="http://www.w3.org/2000/svg" fill="none" aria-hidden="true" viewBox="0 0 225 53"><path fill="#D64130" d="M45.417 5.306H13.345a5.222 5.222 0 0 0-5.223 5.222v32.825a5.222 5.222 0 0 0 5.223 5.222h32.072a5.222 5.222 0 0 0 5.222-5.222V10.528a5.222 5.222 0 0 0-5.222-5.222Z"/><path fill="#fff" fill-rule="evenodd" d="M17.6 36.067c-2.376-2.453-3.7-5.747-3.7-9.217 0-3.47 1.326-6.769 3.707-9.222a.392.392 0 0 1 .567 0l.599.617a.423.423 0 0 1 0 .584c-2.071 2.134-3.225 5.002-3.225 8.021 0 3.017 1.152 5.883 3.22 8.017a.422.422 0 0 1 0 .583l-.6.618a.393.393 0 0 1-.566 0Zm4.688-4.132a7.292 7.292 0 0 1-2.041-5.085 7.29 7.29 0 0 1 2.046-5.09.381.381 0 0 1 .55 0l.635.655a.327.327 0 0 1 0 .452l-.055.057a5.62 5.62 0 0 0-1.578 3.926c0 1.476.562 2.877 1.573 3.921a.41.41 0 0 1 0 .566l-.58.598a.37.37 0 0 1-.275.117.369.369 0 0 1-.275-.117Zm16.508 1.983a.387.387 0 0 1-.557 0l-.59-.608a.416.416 0 0 1 0-.575 8.434 8.434 0 0 0 2.362-5.885 8.431 8.431 0 0 0-2.368-5.89l-.055-.057a.333.333 0 0 1 0-.46l.645-.666a.387.387 0 0 1 .558 0 10.13 10.13 0 0 1 2.844 7.073 10.13 10.13 0 0 1-2.839 7.068Zm2.31 2.15a.394.394 0 0 1-.566 0l-.599-.618a.423.423 0 0 1 0-.583c2.068-2.134 3.22-5 3.22-8.017 0-3.019-1.154-5.887-3.225-8.021a.422.422 0 0 1 0-.584l.6-.617a.392.392 0 0 1 .566 0c2.381 2.453 3.707 5.751 3.707 9.222 0 3.468-1.324 6.764-3.702 9.217Zm-4.686-4.133a.37.37 0 0 1-.275.117.37.37 0 0 1-.274-.117l-.58-.598a.409.409 0 0 1 0-.566 5.622 5.622 0 0 0 1.572-3.921 5.62 5.62 0 0 0-1.578-3.926l-.055-.057a.328.328 0 0 1 0-.452l.636-.655a.38.38 0 0 1 .549 0 7.29 7.29 0 0 1 2.046 5.09c0 1.913-.73 3.731-2.04 5.085Zm-16.508 1.983a10.13 10.13 0 0 1-2.839-7.068c0-2.661 1.017-5.191 2.844-7.073a.387.387 0 0 1 .558 0l.645.666a.333.333 0 0 1 0 .46l-.055.057a8.432 8.432 0 0 0-2.368 5.89 8.43 8.43 0 0 0 2.363 5.885.415.415 0 0 1 0 .575l-.59.607a.387.387 0 0 1-.558 0Zm7.93-19.676h3.023a1.3 1.3 0 0 1 1.003.454c.267.3.387.662.353 1.068l-1.219 14.72c-.06.728-.647 1.282-1.356 1.282h-.584c-.71 0-1.296-.554-1.356-1.283l-1.219-14.719a1.382 1.382 0 0 1 .354-1.068 1.3 1.3 0 0 1 1.002-.454Zm1.512 19.04c1.654 0 2.994 1.382 2.994 3.086 0 1.703-1.34 3.084-2.994 3.084-1.654 0-2.994-1.38-2.994-3.084 0-1.705 1.34-3.085 2.994-3.085Z" clip-rule="evenodd"/><path fill="#D64130" fill-rule="evenodd" d="M75.473 33.99h-6.48l-1.613 6.001h-5.306l6.918-23.378h6.716l7.019 23.378h-5.508l-1.746-6Zm-5.742-3.954h5.004l-1.411-4.96c-.403-1.387-.806-3.121-1.142-4.509h-.067c-.336 1.388-.671 3.157-1.04 4.51l-1.344 4.96Zm14.712 9.955h5.104V15.365h-5.104V39.99Zm23.032-6.741H96.987c.166 2.167 2.23 3.199 4.595 3.199 1.731 0 3.13-.241 4.495-.688l.666 3.542c-1.665.688-3.696 1.032-5.894 1.032-5.527 0-8.69-3.302-8.69-8.564 0-4.264 2.564-8.976 8.224-8.976 5.261 0 7.259 4.23 7.259 8.392 0 .894-.1 1.685-.167 2.063Zm-10.521-3.576h5.993c0-1.273-.533-3.405-2.864-3.405-2.13 0-2.996 1.995-3.13 3.405Zm12.983 10.317h5.104v-8.602c0-.416.034-.832.101-1.18.336-1.63 1.612-2.67 3.492-2.67.571 0 1.008.07 1.377.139v-4.96c-.369-.07-.604-.07-1.074-.07-1.579 0-3.594 1.041-4.433 3.504h-.134l-.168-3.122h-4.4c.068 1.457.135 3.087.135 5.584v11.377Zm13.893-20.638v3.677h-2.183v3.885h2.183v6.937c0 2.393.47 4.023 1.41 5.03.806.866 2.183 1.456 3.828 1.456 1.444 0 2.653-.174 3.325-.451l-.034-3.989a8.08 8.08 0 0 1-1.511.139c-1.545 0-2.015-.937-2.015-2.983v-6.14h3.661V23.03h-3.661v-4.856l-5.003 1.18Z" clip-rule="evenodd"/><path fill="#676866" fill-rule="evenodd" d="M156.391 39.991h2.854l-1.41-23.378h-3.727l-4.03 11.308c-1.008 2.948-1.814 5.514-2.384 7.873h-.101c-.571-2.428-1.343-4.995-2.284-7.873l-3.862-11.308h-3.727l-1.578 23.378h2.787l.604-10.024c.202-3.503.37-7.423.437-10.336h.067c.638 2.775 1.545 5.792 2.619 9.087l3.661 11.134h2.216l3.996-11.342c1.142-3.226 2.082-6.139 2.855-8.88h.1c-.033 2.914.168 6.834.336 10.094l.571 10.267Zm20.234-7.839h-11.418c.067 4.128 2.619 5.827 5.574 5.827 2.116 0 3.392-.381 4.5-.867l.504 2.185c-1.041.486-2.821 1.04-5.407 1.04-5.003 0-7.992-3.398-7.992-8.462s2.888-9.053 7.623-9.053c5.306 0 6.716 4.821 6.716 7.908 0 .624-.067 1.11-.1 1.422Zm-11.384-2.185h8.63c.033-1.942-.772-4.96-4.097-4.96-2.989 0-4.298 2.844-4.533 4.96Zm25.657-14.602h2.955v20.29c0 1.492.034 3.191.135 4.336h-2.653l-.135-2.913h-.067c-.906 1.872-2.888 3.294-5.541 3.294-3.929 0-6.951-3.433-6.951-8.532-.033-5.584 3.325-9.018 7.287-9.018 2.485 0 4.164 1.214 4.903 2.567h.067V15.365Zm0 17.585v-2.914c0-.381-.033-.901-.134-1.283-.437-1.942-2.049-3.538-4.265-3.538-3.056 0-4.869 2.775-4.869 6.486 0 3.4 1.612 6.209 4.802 6.209 1.981 0 3.795-1.353 4.332-3.642.101-.416.134-.833.134-1.318Zm10.244 7.041V23.203h-2.955v16.788h2.955Zm-1.477-23.706c-1.075 0-1.847.832-1.847 1.907 0 1.04.738 1.873 1.779 1.873 1.176 0 1.915-.832 1.881-1.873 0-1.075-.705-1.907-1.813-1.907Zm17.212 23.706h-2.686l-.235-2.116h-.101c-.907 1.318-2.653 2.498-4.97 2.498-3.291 0-4.97-2.394-4.97-4.822 0-4.058 3.493-6.278 9.772-6.243v-.347c0-1.387-.369-3.885-3.694-3.885-1.511 0-3.089.486-4.231 1.25l-.671-2.013c1.343-.901 3.29-1.491 5.339-1.491 4.97 0 6.179 3.503 6.179 6.867v6.279c0 1.456.067 2.878.268 4.023Zm-3.123-5.654v-2.913c-3.223-.07-6.884.52-6.884 3.78 0 1.977 1.276 2.914 2.788 2.914 2.115 0 3.458-1.387 3.929-2.81.1-.312.167-.658.167-.97Z" clip-rule="evenodd"/></svg>