<svg xmlns="http://www.w3.org/2000/svg" fill="none" aria-hidden="true" viewBox="0 0 265 46"><g fill="#3F3B3C"><path fill-rule="evenodd" d="M258.47 21.103c0-3.504-2.033-5.257-6.1-5.257-.988 0-1.993.094-3.016.282-1.022.189-1.98.459-2.873.812-.307.118-.459.352-.459.705v.565c0 .305.141.458.424.458a1.1 1.1 0 0 0 .37-.087c.152-.06.358-.124.617-.195 1.621-.47 3.161-.706 4.619-.706 1.575 0 2.703.313 3.385.936.682.623 1.024 1.652 1.024 3.087v2.963a17.9 17.9 0 0 0-2.575-.6 15.958 15.958 0 0 0-2.469-.21c-2.045 0-3.649.492-4.813 1.481-1.164.988-1.746 2.34-1.746 4.057 0 1.553.476 2.794 1.428 3.722.953.93 2.239 1.394 3.862 1.394 2.209 0 4.325-.812 6.348-2.434l.141 1.516c.022.353.211.53.564.53h.74c.352 0 .529-.176.529-.53V21.103Zm-11.531 8.256c0-2.54 1.645-3.81 4.937-3.81 1.457 0 2.985.21 4.585.634v4.41c-1.059.683-2.105 1.2-3.14 1.553-1.034.353-1.998.53-2.891.53-2.327 0-3.491-1.106-3.491-3.317Z" clip-rule="evenodd"/><path d="m230.129 33.733 5.113-7.444 5.254 7.444c.188.26.424.389.706.389h1.092c.306 0 .459-.13.459-.389 0-.093-.07-.247-.211-.458l-6.031-8.538 5.431-7.515c.141-.212.211-.364.211-.458 0-.26-.152-.389-.458-.389h-.952c-.282 0-.518.13-.705.389l-4.619 6.562-4.62-6.562a.877.877 0 0 0-.741-.389h-1.093c-.306 0-.458.13-.458.389 0 .07.07.21.211.423l5.501 7.691-6.03 8.397c-.165.211-.247.365-.247.458 0 .26.153.389.459.389h.987a.874.874 0 0 0 .741-.389Z"/><path fill-rule="evenodd" d="M224.105 31.987a7.69 7.69 0 0 1-.67.23c-1.388.4-2.774.6-4.161.6-2.14 0-3.744-.605-4.814-1.818-1.07-1.211-1.605-3.087-1.605-5.627.883.257 1.786.44 2.699.547a23.25 23.25 0 0 0 2.697.159c2.492 0 4.331-.395 5.519-1.182 1.187-.788 1.781-2.017 1.781-3.687 0-1.694-.559-3.01-1.676-3.952-1.116-.94-2.697-1.411-4.743-1.411-1.293 0-2.456.218-3.491.653a6.988 6.988 0 0 0-2.627 1.905c-.718.835-1.264 1.847-1.64 3.034-.376 1.188-.563 2.523-.563 4.005 0 3.01.71 5.298 2.133 6.862 1.422 1.564 3.485 2.346 6.189 2.346 1.904 0 3.702-.353 5.395-1.059.259-.117.388-.364.388-.74v-.494c0-.305-.141-.459-.423-.459-.118 0-.247.03-.388.088Zm-9.328-12.79c1.023-1.034 2.416-1.552 4.179-1.552 3.033 0 4.549 1.188 4.549 3.564 0 1.129-.411 1.952-1.234 2.47-.823.517-2.116.775-3.879.775a21.14 21.14 0 0 1-2.733-.176 22.58 22.58 0 0 1-2.732-.53c.211-1.998.828-3.515 1.85-4.55Z" clip-rule="evenodd"/><path d="M204.759 8.014c-.352 0-.529.176-.529.528v22.545c0 .988.265 1.76.793 2.31.529.554 1.264.83 2.205.83.211 0 .452-.012.723-.035a2.88 2.88 0 0 0 .617-.106c.305-.07.458-.246.458-.529v-.67c0-.33-.165-.494-.494-.494-.117 0-.264.012-.44.035a3.62 3.62 0 0 1-.476.036c-.518 0-.876-.106-1.076-.318-.2-.212-.3-.576-.3-1.094V8.542c0-.352-.176-.528-.529-.528h-.952Z"/><path fill-rule="evenodd" d="M199.575 21.103c0-3.504-2.033-5.257-6.1-5.257-.988 0-1.992.094-3.015.282a15.374 15.374 0 0 0-2.874.812c-.306.118-.459.352-.459.705v.565c0 .305.141.458.424.458.093 0 .216-.028.371-.087a6.29 6.29 0 0 1 .616-.195c1.622-.47 3.162-.706 4.619-.706 1.575 0 2.704.313 3.386.936.681.623 1.023 1.652 1.023 3.087v2.963a17.868 17.868 0 0 0-2.575-.6 15.956 15.956 0 0 0-2.468-.21c-2.045 0-3.65.492-4.814 1.481-1.163.988-1.745 2.34-1.745 4.057 0 1.553.476 2.794 1.428 3.722.952.93 2.239 1.394 3.862 1.394 2.209 0 4.325-.812 6.347-2.434l.141 1.516c.023.353.211.53.564.53h.741c.352 0 .528-.176.528-.53V21.103Zm-11.531 8.256c0-2.54 1.646-3.81 4.937-3.81 1.457 0 2.986.21 4.585.634v4.41c-1.058.683-2.104 1.2-3.139 1.553-1.035.353-1.999.53-2.891.53-2.328 0-3.492-1.106-3.492-3.317ZM66.562 15.846c4.067 0 6.1 1.753 6.1 5.257v12.49c0 .352-.176.529-.528.529h-.74c-.354 0-.542-.177-.565-.53l-.141-1.517c-2.023 1.623-4.138 2.435-6.348 2.435-1.622 0-2.91-.464-3.861-1.394-.953-.928-1.428-2.17-1.428-3.722 0-1.716.582-3.07 1.745-4.057 1.164-.989 2.769-1.482 4.814-1.482.752 0 1.575.07 2.468.211.872.137 1.733.337 2.575.6v-2.963c0-1.435-.342-2.464-1.023-3.087-.682-.623-1.81-.936-3.386-.936-1.457 0-2.997.236-4.62.706a6.473 6.473 0 0 0-.616.195 1.1 1.1 0 0 1-.37.087c-.283 0-.424-.153-.424-.458v-.565c0-.353.153-.587.459-.705a15.355 15.355 0 0 1 2.873-.812 16.656 16.656 0 0 1 3.016-.282Zm-.494 9.702c-3.291 0-4.937 1.27-4.937 3.81 0 2.212 1.164 3.317 3.491 3.317.893 0 1.857-.176 2.892-.53 1.034-.352 2.08-.869 3.139-1.552v-4.41c-1.6-.423-3.128-.635-4.585-.635Z" clip-rule="evenodd"/><path d="M97.77 15.846c1.622 0 2.857.453 3.703 1.359.846.905 1.27 2.24 1.27 4.004v12.383c0 .354-.177.53-.53.53h-.952c-.352 0-.529-.177-.529-.53V22.056c0-1.553-.264-2.67-.793-3.353-.53-.681-1.393-1.023-2.592-1.023-2.257 0-4.385.742-6.383 2.223.07.55.105 1.104.106 1.658v12.031c0 .354-.176.53-.53.53h-.95c-.353 0-.53-.177-.53-.53V22.056c0-1.553-.265-2.67-.793-3.353-.53-.681-1.393-1.023-2.592-1.023-2.187 0-4.279.718-6.277 2.153v13.76c0 .352-.177.529-.529.529h-.952c-.353 0-.529-.177-.529-.53V16.904c0-.352.176-.53.529-.53h.705c.352 0 .552.178.599.53l.142 1.412a13.895 13.895 0 0 1 3.314-1.817c1.152-.435 2.293-.653 3.42-.653 2.21 0 3.691.906 4.444 2.717 1.128-.894 2.31-1.57 3.544-2.03 1.235-.458 2.463-.687 3.686-.687Z"/><path fill-rule="evenodd" d="M119.951 21.103c0-3.505-2.034-5.257-6.101-5.257-.987 0-1.992.094-3.015.282a15.359 15.359 0 0 0-2.874.812c-.306.118-.459.352-.459.705v.565c0 .305.141.458.424.458.094 0 .216-.029.37-.087a6.59 6.59 0 0 1 .617-.195c1.622-.47 3.162-.706 4.62-.706 1.574 0 2.703.313 3.385.936.681.623 1.023 1.652 1.023 3.087v2.963a17.842 17.842 0 0 0-2.575-.6 15.924 15.924 0 0 0-2.468-.21c-2.045 0-3.65.492-4.814 1.481-1.163.987-1.745 2.34-1.745 4.057 0 1.552.476 2.794 1.428 3.722.952.93 2.239 1.394 3.861 1.394 2.21 0 4.326-.812 6.348-2.434l.141 1.516c.023.353.211.53.565.53h.74c.352 0 .529-.176.529-.53V21.103Zm-11.532 8.256c0-2.54 1.646-3.81 4.938-3.81 1.457 0 2.985.21 4.584.634v4.41c-1.058.683-2.105 1.2-3.139 1.553-1.035.353-1.999.53-2.891.53-2.328 0-3.492-1.106-3.492-3.317Z" clip-rule="evenodd"/><path d="M136.807 32.887v.705c0 .354-.176.53-.529.53h-12.413c-.353 0-.529-.177-.529-.53v-.74c0-.235.03-.424.088-.566.058-.14.17-.304.336-.493l10.72-13.654h-10.262c-.353 0-.53-.177-.53-.529v-.705c0-.354.177-.53.53-.53h11.989c.353 0 .529.176.529.53v.74c0 .189-.03.365-.088.53-.059.165-.182.352-.37.564l-10.756 13.619h10.755c.354 0 .53.176.53.529Z"/><path fill-rule="evenodd" d="M141.162 32.199c1.445 1.635 3.45 2.452 6.012 2.452 2.562 0 4.567-.817 6.012-2.452 1.446-1.635 2.169-3.957 2.169-6.968 0-3.01-.723-5.328-2.169-6.95-1.445-1.624-3.45-2.435-6.012-2.435-2.562 0-4.567.811-6.012 2.435-1.446 1.623-2.169 3.94-2.169 6.95 0 3.011.723 5.333 2.169 6.968Zm12.113-6.968c0 5.057-2.034 7.585-6.101 7.585s-6.1-2.528-6.1-7.585c0-5.033 2.033-7.55 6.1-7.55s6.101 2.517 6.101 7.55Z" clip-rule="evenodd"/><path d="M168.544 15.846c1.739 0 3.055.453 3.949 1.359.893.905 1.34 2.24 1.34 4.004v12.383c0 .354-.176.53-.528.53h-.953c-.353 0-.528-.177-.528-.53V22.056c0-1.553-.296-2.67-.883-3.353-.587-.681-1.528-1.023-2.821-1.023a10.89 10.89 0 0 0-3.562.583 14.196 14.196 0 0 0-3.314 1.676v13.653c0 .354-.177.53-.529.53h-.952c-.353 0-.529-.177-.529-.53V16.904c0-.352.176-.53.529-.53h.706c.352 0 .552.178.598.53l.142 1.518a13.935 13.935 0 0 1 3.597-1.906c1.269-.447 2.515-.67 3.738-.67Z"/></g><path fill="#5FCAF4" fill-rule="evenodd" d="M24.924 4.66C14.765 4.66 6.53 12.899 6.53 23.062c0 9.332 6.942 17.04 15.941 18.24v-3.708a2.44 2.44 0 0 0-1.65-2.318c-5.192-1.745-8.906-6.71-8.769-12.524a12.833 12.833 0 0 1 13.005-12.571c7.05.071 12.743 5.811 12.743 12.881 0 .162-.005.322-.01.481l-.004.108c-.007.148-.016.296-.028.443-.003.047-.008.093-.012.14a12.061 12.061 0 0 1-.098.808c-1.576 10.39-15.1 16.228-15.175 16.26.802.107 1.62.163 2.45.163 10.16 0 18.395-8.239 18.395-18.403 0-10.163-8.236-18.402-18.394-18.402Z" clip-rule="evenodd"/></svg>