<svg xmlns="http://www.w3.org/2000/svg" fill="none" aria-hidden="true" viewBox="0 0 171 70"><path fill="#CC2131" fill-rule="evenodd" d="M21.52 26.482H4.275v17.245H21.52v17.244h17.245V43.727H56.01V26.482H38.765V9.237H21.52v17.245Z" clip-rule="evenodd"/><path fill="#000" fill-rule="evenodd" d="M82.248 22.76h-2.79l1.413-4.572 1.377 4.571Zm-8.647 4.7h4.405l.57-1.8h4.516l.57 1.8h4.405L83.22 14.497h-4.663L73.6 27.46Zm19.294-8.134c.296-.477.936-1.597 3.012-1.597.331 0 .862.037 1.45.22 1.23.386 1.598 1.066 1.854 1.561.276-.624 1.14-1.78 3.306-1.78 1.028 0 2.02.33 2.644.954.861.845.882 1.873.899 2.772v6.003h-3.782v-4.975c0-.606-.017-1.633-1.32-1.633-1.378 0-1.396 1.12-1.396 1.541v5.086h-3.781v-5.14c0-.184-.019-.368-.054-.551-.166-.735-.808-.936-1.269-.936-.384 0-.77.128-1.028.384-.349.35-.349.735-.366 1.066v5.177h-3.782v-9.51h3.616v1.358h-.003Zm18.525 2.056c.091-.422.293-1.413 1.432-1.413.513 0 1.102.293 1.266.972.037.147.037.294.055.441h-2.753Zm3.286 2.552c-.386.771-.863 1.23-1.726 1.23-.697 0-1.046-.349-1.138-.44-.422-.422-.44-.918-.458-1.34h6.644c-.035-1.451-.053-3.03-1.45-4.407-1.156-1.12-2.662-1.414-3.818-1.414-3.084 0-5.232 2.002-5.232 5.104 0 2.644 1.726 5.177 5.252 5.177 2.276 0 3.928-.899 5.047-2.607l-3.121-1.303Zm8.335-5.158c1.028-.918 1.725-1.029 3.177-1.029v3.194c-.258-.018-.516-.036-.772-.036-2.222 0-2.26 1.45-2.278 2.074v4.48h-3.763v-9.565h3.636v.882Zm4.388-4.279h3.781v2.516h-3.781v-2.516Zm0 3.453h3.781v9.51h-3.781v-9.51Zm15.219 6.957c-.239.514-.441.918-.92 1.395-.532.55-1.762 1.524-3.965 1.524-3.139 0-5.065-2.13-5.065-5.195 0-1.579.568-2.865 1.356-3.672 1.322-1.377 3.214-1.451 3.929-1.451.643 0 2.461.018 3.911 1.487.366.367.532.624.753.991l-2.883 1.634c-.239-.844-.697-1.45-1.598-1.45-1.156 0-1.724 1.138-1.724 2.57 0 .752.146 2.184 1.633 2.184 1.157 0 1.525-1.102 1.689-1.597l2.884 1.58Zm7.141-1.872c0 .33 0 .716-.183 1.12-.331.734-1.212 1.083-1.745 1.083-.716 0-.936-.477-.936-.734 0-.11.037-.55.77-.845.331-.11.662-.183.974-.256.386-.111.752-.24 1.12-.368Zm-2.498-2.314c.129-.661.369-.88 1.232-.88 1.083 0 1.266.44 1.285 1.082-.57.165-.974.257-2.02.405-1.671.22-2.7.366-3.564 1.248-.678.68-.807 1.468-.807 2.038 0 1.615 1.046 3.065 3.432 3.065 1.783 0 2.663-.623 3.141-.954v.734h3.726c-.274-.385-.331-.55-.331-1.175v-5.177c0-1.138 0-3.47-4.516-3.47-.992 0-2.349.091-3.414.643-1.358.716-1.56 1.726-1.708 2.533l3.544-.092Zm11.55-1.504c.31-.441 1.026-1.506 3.12-1.506 1.504 0 2.258.587 2.57.881.9.88.955 2.149.955 2.864v6.003h-3.782v-5.195c0-.478-.018-1.432-1.284-1.432-1.341 0-1.377 1.046-1.377 1.56v5.067h-3.781v-9.51h3.58v1.268h-.001Zm-79.32 14.371c.717 0 2.001.036 2.001 1.523 0 1.468-1.303 1.506-1.982 1.506h-1.707v-3.03h1.689v.001Zm-5.8 10.263h4.112V39.28h1.211l2.515 4.57h4.553l-3.158-5.231c.606-.239 1.157-.441 1.67-.992.938-.954.992-2.11.992-2.607 0-1.249-.514-3.01-2.24-3.745-.79-.33-1.964-.404-3.194-.404H73.72v12.98Zm16.209-6.077c.093-.422.293-1.413 1.433-1.413.512 0 1.1.292 1.265.972.037.148.037.294.055.441H89.93Zm3.287 2.553c-.386.77-.863 1.23-1.724 1.23-.699 0-1.048-.35-1.14-.442-.421-.422-.44-.917-.457-1.34h6.644c-.037-1.45-.053-3.028-1.45-4.405-1.156-1.12-2.66-1.414-3.817-1.414-3.085 0-5.232 2-5.232 5.102 0 2.646 1.725 5.178 5.249 5.178 2.276 0 3.929-.899 5.048-2.606l-3.12-1.303Zm8.426.623c-.257-.276-.531-.79-.531-1.873 0-.44.036-.789.11-1.12.329-1.194 1.23-1.194 1.358-1.194.349 0 1.047.204 1.321 1.103.129.387.146.789.146 1.192 0 .479 0 1.36-.495 1.874-.256.258-.605.422-.953.422-.369 0-.716-.147-.956-.404Zm2.315-5.948c-.387-.349-.993-.936-2.424-.936-2.076 0-4.15 1.486-4.15 4.81 0 2.99 1.56 5.213 4.278 5.213.386 0 .9-.036 1.432-.237.533-.202.716-.404.974-.7v.7h3.67V30.89h-3.78v4.112Zm22.874 5.508c-.331.625-.642 1.212-1.267 1.835-1.322 1.304-3.176 1.91-5.03 1.91-4.626 0-6.719-3.488-6.719-6.812 0-3.488 2.331-7.031 6.719-7.031 1.964 0 3.836.698 5.195 2.093.551.569.807 1.01 1.083 1.524l-3.432 1.706c-.331-.77-.955-2.147-2.682-2.147a2.43 2.43 0 0 0-1.745.698c-.972.936-.972 2.404-.972 2.919 0 1.928.716 3.745 2.736 3.745 1.909 0 2.479-1.688 2.625-2.13l3.489 1.69Zm4.552-5.343c1.03-.918 1.726-1.028 3.176-1.028v3.194c-.258-.018-.514-.037-.77-.037-2.222 0-2.259 1.45-2.278 2.076v4.479h-3.763v-9.565h3.635v.881Zm9.363 1.432c1.726-.053 1.762 1.856 1.762 2.424 0 1.43-.422 2.552-1.744 2.552-1.541 0-1.762-1.598-1.762-2.517 0-1.065.312-2.421 1.744-2.459Zm.11-2.662c-3.507-.018-5.617 2.111-5.617 5.233 0 2.551 1.579 5.047 5.415 5.047 3.599 0 5.673-2.11 5.673-5.103 0-1.506-.587-2.938-1.488-3.8-.734-.697-2.054-1.359-3.983-1.377Zm8.207 6.444a4.02 4.02 0 0 0 1.431.973c.679.275 1.193.312 1.505.312.46 0 .993-.166.993-.587 0-.479-.57-.57-.955-.626-.331-.056-1.12-.183-1.983-.44-.882-.257-2.626-.771-2.626-2.791 0-.845.386-1.614.956-2.166 1.12-1.064 2.736-1.101 3.358-1.101.717 0 1.433.092 2.149.257 1.304.312 1.854.716 2.388 1.12l-2.04 1.853c-.641-.403-1.431-.898-2.441-.898-.148 0-.808 0-.808.495 0 .349.256.404 1.523.715 1.689.387 2.093.479 2.552.716.955.515 1.488 1.395 1.488 2.479 0 1.872-1.562 3.524-4.516 3.524-2.719 0-4.279-1.247-5.086-1.907l2.112-1.928Zm10.17 0c.401.424.89.756 1.433.973.678.275 1.192.312 1.504.312.457 0 .992-.166.992-.587 0-.479-.569-.57-.955-.626-.331-.056-1.119-.183-1.982-.44-.883-.257-2.625-.771-2.625-2.791 0-.845.384-1.614.955-2.166 1.119-1.064 2.735-1.101 3.358-1.101.715 0 1.432.092 2.149.257 1.304.312 1.855.716 2.386 1.12l-2.037 1.853c-.643-.403-1.431-.898-2.442-.898-.147 0-.807 0-.807.495 0 .349.257.404 1.523.715 1.688.387 2.092.479 2.552.716.955.515 1.487 1.395 1.487 2.479 0 1.872-1.56 3.524-4.516 3.524-2.717 0-4.277-1.247-5.084-1.907l2.109-1.928Z" clip-rule="evenodd"/></svg>