<svg xmlns="http://www.w3.org/2000/svg" fill="none" aria-hidden="true" viewBox="0 0 171 70"><path fill="url(#a)" d="M13.26 20.911c.292 1.498.63 2.97 1.014 4.418.422 1.61.9 3.184 1.434 4.725a80.763 80.763 0 0 0 1.63 4.213 60.333 60.333 0 0 0 3.238 6.463 66.392 66.392 0 0 0 3.284 5.056 64.153 64.153 0 0 0 2.785 3.566 62.076 62.076 0 0 0 3.288-3.11 56.32 56.32 0 0 1-2.78-3.627 59.337 59.337 0 0 1-2.671-4.14 54.623 54.623 0 0 1-2.785-5.497 57.045 57.045 0 0 1-1.667-4.235 61.082 61.082 0 0 1-1.434-4.726 64.137 64.137 0 0 1-.992-4.406 75.454 75.454 0 0 1-.763-4.943 67.584 67.584 0 0 1 9.357-1.688 64.425 64.425 0 0 1 14.218.027 65.14 65.14 0 0 1 4.482.654 72.18 72.18 0 0 1 4.871 1.057c1.47.373 2.94.793 4.41 1.262.188-1.49.333-3.005.435-4.543a.057.057 0 0 0-.039-.057 79.577 79.577 0 0 0-4.417-1.216 78.105 78.105 0 0 0-4.928-1.027 83.661 83.661 0 0 0-4.505-.635A69.308 69.308 0 0 0 25.87 8.48c-1.498.16-2.998.367-4.5.62-1.646.281-3.288.62-4.925 1.019l-4.582 1.114.595 4.691c.214 1.688.48 3.35.801 4.988Zm29.42 24.917a59.28 59.28 0 0 0 6.604-11.52 62.09 62.09 0 0 0 1.644-4.208 49.32 49.32 0 0 0-4.338-1.3 55.841 55.841 0 0 1-1.686 4.227 54.836 54.836 0 0 1-2.67 5.212 51.687 51.687 0 0 1-2.85 4.418 58 58 0 0 1-2.803 3.608 57.526 57.526 0 0 1-3.338 3.653 61.813 61.813 0 0 1-3.288 3.103 71.27 71.27 0 0 1-3.88 3.174 69.829 69.829 0 0 1-3.334-3.684 64.85 64.85 0 0 1-2.784-3.555 63.888 63.888 0 0 1-3.735-5.702 65.06 65.06 0 0 1-3.574-7.166 67.498 67.498 0 0 1-1.625-4.213 71.662 71.662 0 0 1-1.465-4.752 79.902 79.902 0 0 1-1.057-4.448 81.662 81.662 0 0 0-4.196 1.863.057.057 0 0 0-.03.06 78.416 78.416 0 0 0 1.11 4.434 74.434 74.434 0 0 0 1.526 4.786 69.958 69.958 0 0 0 1.655 4.224A68.416 68.416 0 0 0 16.26 51.53a70.225 70.225 0 0 0 2.781 3.574 81.388 81.388 0 0 0 3.334 3.74l3.258 3.422 3.742-2.896a74.466 74.466 0 0 0 3.876-3.22 66.393 66.393 0 0 0 3.292-3.122 66.814 66.814 0 0 0 3.338-3.642 63.691 63.691 0 0 0 2.8-3.558Zm15.457-23.115a73.936 73.936 0 0 0-4.741-1.749 70.051 70.051 0 0 0-4.36-1.288 65.36 65.36 0 0 0-9.32-1.723 60.5 60.5 0 0 0-6.515-.353c-2.09 0-4.18.11-6.26.33a60.683 60.683 0 0 0-4.482.635 57.92 57.92 0 0 0 .988 4.403 71.405 71.405 0 0 1 4.524-.612 57.438 57.438 0 0 1 5.23-.247c1.818 0 3.646.09 5.482.273a59.4 59.4 0 0 1 4.52.628 62.58 62.58 0 0 1 4.837 1.068c1.444.38 2.89.814 4.337 1.3a72.2 72.2 0 0 1 4.7 1.78 70.03 70.03 0 0 1-1.477 4.744 75.27 75.27 0 0 1-1.64 4.209 63.954 63.954 0 0 1-7.389 12.872 64.673 64.673 0 0 1-2.803 3.543 61.758 61.758 0 0 1-3.346 3.677 84.895 84.895 0 0 1-3.292 3.167l3.742 2.889 3.273-3.422a74.293 74.293 0 0 0 3.35-3.733 74.412 74.412 0 0 0 2.8-3.566 68.842 68.842 0 0 0 7.758-13.511 71.955 71.955 0 0 0 3.19-8.995l1.243-4.407a90.32 90.32 0 0 0-4.349-1.912Z"/><path fill="#234089" d="M155.593 27.439c-5.076-.297-6.102-.544-6.102-1.882 0-1.339 1.045-1.715 5.45-1.715 4.654 0 6.573.472 6.573 2.384h4.479c0-4.292-3.983-5.931-10.552-5.931-6.569 0-10.429 1.217-10.429 5.037 0 3.893 3.01 5.083 10.601 5.433 5.653.274 6.645.52 6.645 1.958 0 1.365-1.415 1.9-6.104 1.9-5.672 0-7.167-.843-7.167-2.66h-4.513c0 5.01 4.254 6.223 11.398 6.223 6.447 0 10.853-.943 10.853-5.58 0-4.422-4.265-4.795-11.132-5.168Zm-76.99-6.897a56.768 56.768 0 0 0-8.907 17.367h4.67l.873-2.87a58.467 58.467 0 0 1 4.913-9.505l1.308-1.688.306.296a57.925 57.925 0 0 1 4.161 7.44h-5.786a53.894 53.894 0 0 0-1.587 3.772h8.964c.321.849.618 1.702.893 2.558h4.737a57.642 57.642 0 0 0-9.185-17.366l-5.36-.004Zm26.352 0a56.646 56.646 0 0 0-8.903 17.367h4.668l.87-2.87a58.447 58.447 0 0 1 4.914-9.505l1.312-1.688.301.296a58.557 58.557 0 0 1 4.166 7.44h-5.791a53.228 53.228 0 0 0-1.583 3.772h8.965c.32.848.613 1.7.892 2.558h4.738a57.663 57.663 0 0 0-9.19-17.366l-5.359-.004Zm18.268 17.367h4.482v-5.433h9.712a54.901 54.901 0 0 1 1.575-3.749l.039-.023h-11.326v-4.413h13.938v-3.749h-18.42V37.91Z"/><path fill="#2D3338" d="M89.93 52.71h2.433v-1.103h-2.434v-.76h2.67v-1.19h-4.058v5.052h4.112v-1.19h-2.724v-.81Zm8.135-.38-2.082-2.662H94.67v5.053h1.393v-2.772l2.163 2.772h1.232v-5.072h-1.392v2.68Zm-8.567-5.51h.969l-.591-.946c.44-.17.722-.602.697-1.072a1.138 1.138 0 0 0-.352-.858 1.148 1.148 0 0 0-.876-.313h-2.513v3.19h.823v-.852h1.324l.519.852Zm-1.843-2.513h1.462c.247 0 .633 0 .633.483s-.382.48-.633.48h-1.462v-.963Zm76.537 1.521h2.144v-.692h-2.144v-.829h2.418v-.688h-3.242v3.19h.824v-.98Zm-72.123 1h.82v-3.19h-.82v3.19Zm6.084-.266v-.734a4.163 4.163 0 0 1-1.78.338c-.611 0-.974-.113-1.145-.292a1.054 1.054 0 0 1 0-1.281c.164-.179.53-.293 1.144-.293a3.948 3.948 0 0 1 1.778.38v-.76a4.187 4.187 0 0 0-1.77-.312c-1 0-1.526.255-1.809.54a1.832 1.832 0 0 0 0 2.197c.267.29.809.544 1.808.544a4.129 4.129 0 0 0 1.774-.346v.019Zm4.669.266h.912l-1.656-3.19h-1.109l-1.652 3.19h.904l.343-.68h1.908l.35.68Zm-1.952-1.289.656-1.296.648 1.296h-1.304Zm49.124 1.289h.824v-1.05l1.808-2.14h-.992l-1.228 1.43-1.232-1.452h-.992l1.812 2.14v1.072Zm-64.826-.65H82.61v-.65h2.56v-.59h-2.56v-.669h2.56v-.65h-3.384v3.19h3.383v-.631ZM69.696 54.72H71.1v-1.806h2.396v-1.14H71.1v-.86h2.651v-1.228h-4.055v5.034Zm8.103-5.152a2.676 2.676 0 0 0-1.92.742 2.656 2.656 0 0 0-.82 1.881 2.727 2.727 0 0 0 2.73 2.62 2.727 2.727 0 0 0 2.73-2.62 2.616 2.616 0 0 0-.794-1.9 2.632 2.632 0 0 0-1.926-.742v.02Zm1.29 2.639a1.294 1.294 0 0 1-1.29 1.35 1.319 1.319 0 0 1-.938-.41 1.309 1.309 0 0 1-.36-.956 1.288 1.288 0 0 1 2.224-.944c.245.257.376.601.363.956v.004Zm7.441-.799a1.565 1.565 0 0 0-.45-1.178 2.22 2.22 0 0 0-1.652-.548h-2.395v5.053h1.404v-1.521h.614l1.022 1.52h1.621l-1.209-1.76a1.604 1.604 0 0 0 1.065-1.585l-.02.02Zm-1.415.084c0 .38-.274.6-.763.6h-.927V50.88h.92c.473 0 .762.201.762.6l.008.012Zm-13.87-7.855-1.652 3.19h.908l.343-.68h1.908l.343.68h.908l-1.656-3.19h-1.102Zm-.095 1.901.652-1.296.648 1.296h-1.3Zm4.825-.897 1.331 2.186h.592l1.331-2.186v2.186h.835v-3.19h-1.11l-1.342 2.251-1.362-2.27h-1.11v3.19h.824l.011-2.167Zm81.991 8.067h2.431v-1.102h-2.431v-.76h2.671v-1.19h-4.063v5.052h4.113v-1.19h-2.721v-.81Zm-54.224-1.14c-.702-.16-.877-.259-.877-.49 0-.18.167-.324.507-.324a2.56 2.56 0 0 1 1.419.498l.702-.988a3.198 3.198 0 0 0-2.087-.673c-1.213 0-1.96.68-1.96 1.62 0 1.041.831 1.341 1.907 1.589.69.16.854.273.854.482 0 .217-.202.346-.579.346a2.613 2.613 0 0 1-1.641-.604l-.782.928a3.55 3.55 0 0 0 2.373.836c1.232 0 2.048-.612 2.048-1.642-.003-.966-.721-1.339-1.884-1.593v.015Zm35.041 1.14h2.43v-1.102h-2.43v-.76h2.67v-1.19h-4.063v5.052h4.113v-1.19h-2.72v-.81Zm5.97-5.9 1.331-2.186v2.186h.824v-3.19h-1.114l-1.339 2.251-1.339-2.25h-1.11v3.189h.82v-2.186l1.332 2.186h.595Zm-10.681 7.893h1.411v-5.053h-1.411v5.053Zm12.844-2.384-2.087-2.661h-1.308v5.052h1.392v-2.771l2.163 2.771h1.232v-5.06h-1.388l-.004 2.669Zm-11.54-7.106a1.467 1.467 0 0 0-.413-1.15 1.48 1.48 0 0 0-1.143-.443h-2.335v3.19h2.324c.429.027.849-.134 1.15-.44a1.47 1.47 0 0 0 .417-1.157Zm-1.865.909h-1.186v-1.814h1.19c.622 0 1.041.133 1.041.905s-.434.909-1.057.909h.012Zm26.405-2.547c-1.407 0-2.01.578-2.01 1.635 0 1.056.603 1.646 2.01 1.646 1.407 0 2.014-.59 2.014-1.646 0-1.057-.614-1.635-2.026-1.635h.012Zm0 2.593c-.854 0-1.187-.3-1.187-.959 0-.657.329-.946 1.187-.946.858 0 1.19.3 1.19.947 0 .646-.347.957-1.202.957h.012Zm4.886 5.387c-.701-.16-.877-.259-.877-.49 0-.18.168-.324.507-.324.513.02 1.008.193 1.419.498l.702-.988a3.19 3.19 0 0 0-2.082-.673c-1.217 0-1.965.68-1.965 1.62 0 1.04.836 1.341 1.907 1.588.691.16.855.274.855.483 0 .217-.202.346-.58.346a2.616 2.616 0 0 1-1.64-.604l-.763.927c.661.56 1.506.857 2.373.837 1.232 0 2.048-.612 2.048-1.643-.027-.95-.748-1.323-1.915-1.577h.011Zm-12.206 1.969a1.253 1.253 0 0 1-.896-.416 1.24 1.24 0 0 1-.313-.934 1.24 1.24 0 0 1 .319-.924c.228-.251.549-.4.89-.41.444.003.859.223 1.109.59l1.057-.814a2.485 2.485 0 0 0-2.151-1.053 2.61 2.61 0 0 0-1.896.745 2.589 2.589 0 0 0-.774 1.878 2.662 2.662 0 0 0 1.893 2.49 2.675 2.675 0 0 0 2.963-1.019l-1.057-.76a1.38 1.38 0 0 1-1.141.627h-.003Zm-12.261-7.364h-2.555v-.65h2.555v-.59h-2.555v-.65h2.555v-.65h-3.379v3.19h3.379v-.65Zm-27.16 7.364a1.245 1.245 0 0 1-1.205-1.35 1.246 1.246 0 0 1 1.205-1.334c.445.003.86.223 1.111.59l1.056-.814a2.485 2.485 0 0 0-2.151-1.053 2.604 2.604 0 0 0-1.895.745 2.59 2.59 0 0 0-.776 1.878 2.674 2.674 0 0 0 4.856 1.471l-1.056-.76a1.38 1.38 0 0 1-1.141.627h-.004Zm-5.004-7.509-2.186-2.395h-1.125v3.19h.819v-2.391l2.182 2.391h1.122v-3.19h-.824l.012 2.395Zm22.094 7.509a1.244 1.244 0 0 1-1.209-1.35 1.245 1.245 0 0 1 1.209-1.334 1.35 1.35 0 0 1 1.106.59l1.057-.814a2.48 2.48 0 0 0-2.148-1.053 2.606 2.606 0 0 0-1.897.744 2.586 2.586 0 0 0-.773 1.879 2.662 2.662 0 0 0 1.893 2.49 2.675 2.675 0 0 0 2.963-1.019l-1.057-.76a1.382 1.382 0 0 1-1.141.627h-.003Zm-13.111-9.904-1.648 3.19h.904l.344-.68h1.907l.343.68h.912l-1.655-3.19h-1.107Zm-.096 1.901.657-1.296.648 1.296h-1.305Zm-9.536 9.181h1.412v-5.05h-1.404l-.008 5.053Zm21.785-7.892h.909l-1.653-3.19h-1.113l-1.648 3.19h.904l.343-.68h1.907l.351.68Zm-1.953-1.289.656-1.296.649 1.296h-1.305Zm-2.781 6.034c-.701-.16-.873-.259-.873-.49 0-.18.164-.324.507-.324a2.57 2.57 0 0 1 1.419.498l.702-.988a3.2 3.2 0 0 0-2.086-.673c-1.217 0-1.961.68-1.961 1.62 0 1.04.832 1.341 1.907 1.588.687.16.854.274.854.483 0 .217-.202.346-.579.346a2.62 2.62 0 0 1-1.644-.604l-.794.939c.663.56 1.508.857 2.377.836 1.228 0 2.048-.612 2.048-1.642.004-.962-.721-1.335-1.888-1.59h.011Zm.157-5.011v-.715a4.17 4.17 0 0 1-1.786.338c-.606 0-.972-.113-1.144-.292a1.07 1.07 0 0 1 0-1.281c.165-.179.534-.293 1.144-.293a3.949 3.949 0 0 1 1.778.38v-.76a4.207 4.207 0 0 0-1.774-.312c-.995 0-1.526.255-1.804.54a1.832 1.832 0 0 0 0 2.197c.267.29.809.544 1.804.544a4.15 4.15 0 0 0 1.771-.346h.011Z"/><defs><linearGradient id="a" x1="13.87" x2="50.451" y1="12.643" y2="51.209" gradientUnits="userSpaceOnUse"><stop stop-color="#09BCC6"/><stop offset="1" stop-color="#243E89"/></linearGradient></defs></svg>