<svg xmlns="http://www.w3.org/2000/svg" fill="none" aria-hidden="true" viewBox="0 0 171 69"><g id="American National Standards Institute"><g id="Group"><g id="Vector"><path fill="black" fill-rule="evenodd" d="M35.4838 29.083L34.575 39.3169H31.8477L35.4838 29.083ZM22.3539 46.9165H29.2219L30.4343 43.4712H34.0703L33.8683 46.9165H40.7363L40.8369 25.0297H31.6466L22.3539 46.9165Z" clip-rule="evenodd"/><path fill="black" fill-rule="evenodd" d="M46.0894 25.0297H54.775L55.6838 38.3034H55.7853L58.6132 25.0297H64.2689L59.6234 46.9165H51.0384L49.9275 34.0482L47.2002 46.9165H41.443L46.0894 25.0297Z" clip-rule="evenodd"/><path fill="black" fill-rule="evenodd" d="M74.1677 31.1093C74.2683 30.4002 74.3698 29.7921 74.2683 29.3867C74.1677 28.9812 73.7636 28.7785 73.0569 28.7785C72.3492 28.7785 71.7431 29.5894 71.541 30.4002C70.6322 34.4536 80.5302 32.1219 78.8132 40.026C77.6018 45.802 73.7636 47.6255 69.5214 47.6255C65.1786 47.6255 60.9363 46.9165 62.5518 40.6341H69.1173C69.0167 41.445 68.9152 42.154 69.0167 42.6613C69.1173 43.1676 69.3193 43.4712 69.9255 43.4712C70.8343 43.4712 71.6425 42.6613 71.8446 41.6477C72.8539 36.7835 62.956 39.9251 64.673 31.9201C65.7847 26.6505 68.9152 24.4215 73.9657 24.4215C80.3281 24.4215 81.0358 27.4613 80.3281 31.1093H74.1677Z" clip-rule="evenodd"/><path fill="black" fill-rule="evenodd" d="M83.9642 25.0297H90.6302L85.9848 46.9165H79.2173L83.9642 25.0297Z" clip-rule="evenodd"/></g><path id="Fill-6" fill="#006BA8" fill-rule="evenodd" d="M9.72867 41.445C9.72867 23.0025 34.0704 8.00524 64.1683 8.00524C80.2276 8.00524 94.6704 12.2613 104.67 19.0509C94.771 10.2351 78.1065 4.35822 59.3199 4.35822C28.9193 4.35822 4.27502 19.4564 4.27502 38.1016C4.27502 48.5382 12.0519 57.8603 24.0709 64.0418C15.1833 58.1649 9.72867 50.159 9.72867 41.445Z" clip-rule="evenodd"/><g id="Vector_2"><path fill="black" fill-rule="evenodd" d="M43.8668 54.8205V57.4549H42.756L43.8668 54.8205ZM40.5343 59.6848H41.7466L42.3519 58.4685H43.8668V59.6848H45.1797L44.8771 53.7061H43.3622L40.5343 59.6848Z" clip-rule="evenodd"/><path fill="black" fill-rule="evenodd" d="M46.4926 55.226H47.6044L47.5029 55.6314C47.907 55.226 48.3111 55.1241 48.7152 55.1241C49.3214 55.1241 49.624 55.3269 49.624 55.8341C49.9276 55.3269 50.4323 55.1241 50.9369 55.1241C51.6446 55.1241 51.9472 55.5296 51.7452 56.4423L51.0384 59.6848H49.9276L50.5337 56.5431C50.6343 56.2395 50.5337 55.935 50.2302 55.935C49.9276 55.935 49.624 56.2395 49.5235 56.7459L48.9173 59.6848H47.705L48.4126 56.5431C48.5132 56.2395 48.4126 55.935 48.1091 55.935C47.705 55.935 47.4023 56.2395 47.3008 56.7459L46.6956 59.6848H45.5838L46.4926 55.226Z" clip-rule="evenodd"/><path fill="black" fill-rule="evenodd" d="M53.3607 56.9486L53.4622 56.7459C53.5637 56.3404 53.7657 55.935 54.1689 55.935C54.6745 55.935 54.6745 56.2395 54.573 56.9486H53.3607ZM55.4818 57.6576L55.5833 57.354C55.8868 56.0368 55.7853 55.1241 54.3709 55.1241C52.856 55.1241 52.3513 56.2395 52.1493 57.4549C51.9472 58.5694 51.7452 59.7857 53.3607 59.7857C54.4724 59.7857 55.0786 59.2793 55.2797 58.1649H54.2704C54.0683 58.7721 53.8663 59.0766 53.4622 59.0766C53.058 59.0766 53.058 58.4685 53.1595 57.9622L53.2601 57.6576H55.4818Z" clip-rule="evenodd"/><path fill="black" fill-rule="evenodd" d="M56.5936 55.226H57.7044L57.6029 55.8341C57.9065 55.4287 58.3106 55.1241 58.8152 55.1241C58.8152 55.1241 58.9167 55.1241 59.0173 55.1241L58.7138 56.2395C58.6132 56.2395 58.5126 56.2395 58.4111 56.2395C58.007 56.2395 57.5023 56.4423 57.4009 57.0504L56.7956 59.6848H55.6838L56.5936 55.226Z" clip-rule="evenodd"/><path fill="black" fill-rule="evenodd" d="M59.4214 55.226H60.5323L59.6235 59.6848H58.5126L59.4214 55.226ZM59.724 53.7061H60.9364L60.7343 54.7196H59.522L59.724 53.7061Z" clip-rule="evenodd"/><path fill="black" fill-rule="evenodd" d="M63.1581 56.8477C63.2596 56.4423 63.2596 55.935 62.8554 55.935C62.2493 55.935 62.0472 56.4423 61.8452 57.4549C61.6431 58.5694 61.6431 59.0766 62.1487 59.0766C62.5519 59.0766 62.7539 58.6712 62.956 57.9622H64.0668C63.7642 59.1785 63.1581 59.7857 61.9467 59.7857C60.8349 59.7857 60.3302 59.2793 60.7343 57.4549C61.1384 55.6314 61.9467 55.1241 63.0575 55.1241C64.0668 55.1241 64.4719 55.7323 64.2689 56.8477H63.1581Z" clip-rule="evenodd"/><path fill="black" fill-rule="evenodd" d="M66.5921 58.3676C66.4915 58.8739 66.0874 59.0766 65.7848 59.0766C65.4812 59.0766 65.3807 58.7721 65.4812 58.3676C65.5827 57.9622 65.7848 57.7594 66.2895 57.6576C66.39 57.6576 66.6936 57.5567 66.7941 57.4549L66.5921 58.3676ZM65.9859 56.5431V56.4423C66.0874 56.1377 66.2895 55.935 66.5921 55.935C66.9962 55.935 67.0977 56.1377 66.9962 56.4423C66.9962 56.7459 66.7941 56.8477 66.4915 56.9486L65.7848 57.1513C64.9766 57.354 64.5724 57.6576 64.3704 58.5694C64.2689 59.1785 64.3704 59.7857 65.1786 59.7857C65.6833 59.7857 66.0874 59.6848 66.39 59.2793H66.4915C66.4915 59.3802 66.4915 59.583 66.4915 59.6848H67.6024C67.5009 59.4821 67.5009 59.2793 67.6024 58.8739L68.107 56.4423C68.3091 55.6314 68.2085 55.1241 66.7941 55.1241C65.9859 55.1241 65.1786 55.4287 64.9766 56.4423L64.8751 56.5431H65.9859Z" clip-rule="evenodd"/><path fill="black" fill-rule="evenodd" d="M69.2188 55.226H70.3296L70.2282 55.7323C70.5317 55.3269 71.0364 55.1241 71.4405 55.1241C72.1472 55.1241 72.5513 55.5296 72.3493 56.3404L71.6425 59.6848H70.5317L71.1369 56.644C71.2384 56.1377 71.1369 55.935 70.8343 55.935C70.4302 55.935 70.1276 56.2395 70.0261 56.7459L69.4199 59.6848H68.3091L69.2188 55.226Z" clip-rule="evenodd"/><path fill="black" fill-rule="evenodd" d="M77.0962 53.7061L77.7024 57.8603L78.5106 53.7061H79.6214L78.41 59.6848H76.9956L76.3895 55.5296L75.5812 59.6848H74.4704L75.6827 53.7061H77.0962Z" clip-rule="evenodd"/><path fill="black" fill-rule="evenodd" d="M81.5405 58.3676C81.439 58.8739 81.0358 59.0766 80.7323 59.0766C80.3282 59.0766 80.3282 58.7721 80.4297 58.3676C80.4297 57.9622 80.7323 57.7594 81.1364 57.6576C81.3384 57.6576 81.5405 57.5567 81.7426 57.4549L81.5405 58.3676ZM80.8338 56.5431V56.4423C80.9343 56.1377 81.1364 55.935 81.5405 55.935C81.9446 55.935 82.0461 56.1377 81.9446 56.4423C81.8431 56.7459 81.7426 56.8477 81.3384 56.9486L80.7323 57.1513C79.8235 57.354 79.4194 57.6576 79.2173 58.5694C79.1168 59.1785 79.3179 59.7857 80.0255 59.7857C80.6317 59.7857 80.9343 59.6848 81.3384 59.2793C81.3384 59.3802 81.3384 59.583 81.439 59.6848H82.4493C82.4493 59.4821 82.4493 59.2793 82.5508 58.8739L83.0555 56.4423C83.1569 55.6314 83.0555 55.1241 81.7426 55.1241C80.8338 55.1241 80.0255 55.4287 79.8235 56.4423V56.5431H80.8338Z" clip-rule="evenodd"/><path fill="black" fill-rule="evenodd" d="M84.671 53.9088H85.7827L85.4792 55.226H86.1859L85.9848 56.0368H85.3786L84.7725 58.4685C84.7725 58.7721 84.7725 58.8739 85.0751 58.8739C85.1766 58.8739 85.2781 58.8739 85.3786 58.8739L85.1766 59.6848C84.9745 59.6848 84.7725 59.7857 84.4698 59.7857C83.5601 59.7857 83.4596 59.4821 83.6616 58.5694L84.1663 56.0368H83.5601L83.7622 55.226H84.3683L84.671 53.9088Z" clip-rule="evenodd"/><path fill="black" fill-rule="evenodd" d="M86.59 55.226H87.7018L86.7921 59.6848H85.6812L86.59 55.226ZM86.8936 53.7061H88.1059L87.9039 54.7196H86.6915L86.8936 53.7061Z" clip-rule="evenodd"/><path fill="black" fill-rule="evenodd" d="M89.1153 57.4549C89.3173 56.5431 89.4188 55.935 90.025 55.935C90.5297 55.935 90.5297 56.3404 90.3276 57.4549C90.025 58.5694 89.8229 59.0766 89.3173 59.0766C88.8126 59.0766 88.9132 58.3676 89.1153 57.4549ZM87.9039 57.4549C87.6003 58.9748 87.8024 59.8875 89.2168 59.7857C90.5297 59.7857 91.1358 58.9748 91.4384 57.4549C91.742 55.935 91.539 55.1241 90.2261 55.1241C88.9132 55.1241 88.2065 55.935 87.9039 57.4549Z" clip-rule="evenodd"/><path fill="black" fill-rule="evenodd" d="M92.5493 55.226H93.6601L93.5596 55.7323C93.8622 55.3269 94.3678 55.1241 94.771 55.1241C95.4786 55.1241 95.8827 55.5296 95.6807 56.3404L94.974 59.6848H93.8622L94.4684 56.644C94.5699 56.1377 94.4684 55.935 94.1657 55.935C93.7616 55.935 93.459 56.2395 93.3575 56.7459L92.7513 59.6848H91.6405L92.5493 55.226Z" clip-rule="evenodd"/><path fill="black" fill-rule="evenodd" d="M98.1044 58.3676C98.0039 58.8739 97.5997 59.0766 97.2962 59.0766C96.9936 59.0766 96.8921 58.7721 96.9936 58.3676C97.0951 57.9622 97.2962 57.7594 97.8018 57.6576C97.9024 57.6576 98.1044 57.5567 98.3065 57.4549L98.1044 58.3676ZM97.3977 56.5431V56.4423C97.4992 56.1377 97.7003 55.935 98.1044 55.935C98.5085 55.935 98.61 56.1377 98.5085 56.4423C98.407 56.7459 98.3065 56.8477 97.9024 56.9486L97.2962 57.1513C96.3874 57.354 95.9833 57.6576 95.8827 58.5694C95.6807 59.1785 95.8827 59.7857 96.691 59.7857C97.1956 59.7857 97.4992 59.6848 97.9024 59.2793C97.9024 59.3802 97.9024 59.583 98.0039 59.6848H99.0132C99.0132 59.4821 99.0132 59.2793 99.1147 58.8739L99.6194 56.4423C99.8214 55.6314 99.6194 55.1241 98.3065 55.1241C97.3977 55.1241 96.5895 55.4287 96.3874 56.4423V56.5431H97.3977Z" clip-rule="evenodd"/><path fill="black" fill-rule="evenodd" d="M101.034 53.7061H102.145L100.932 59.6848H99.8214L101.034 53.7061Z" clip-rule="evenodd"/><path fill="black" fill-rule="evenodd" d="M105.074 57.8603V58.063C104.972 58.5694 105.074 58.9748 105.679 58.9748C105.983 58.9748 106.387 58.6712 106.487 58.1649C106.689 57.6576 106.387 57.4549 105.679 57.1513C104.67 56.8477 104.266 56.3404 104.468 55.4287C104.77 54.2124 105.579 53.6052 106.689 53.6052C107.8 53.6052 108.406 54.1115 108.204 55.226V55.4287H106.992C107.195 54.8205 106.992 54.5169 106.589 54.5169C105.983 54.5169 105.781 54.8205 105.781 55.226C105.679 55.5296 105.679 55.8341 106.185 56.0368L106.992 56.4423C107.8 56.8477 108.002 57.2522 107.8 57.9622C107.598 59.2793 106.689 59.7857 105.377 59.7857C104.064 59.7857 103.66 59.1785 103.862 58.063V57.8603H105.074Z" clip-rule="evenodd"/><path fill="black" fill-rule="evenodd" d="M109.518 53.9088H110.629L110.326 55.226H111.032L110.83 56.0368H110.225L109.719 58.4685C109.619 58.7721 109.619 58.8739 110.023 58.8739C110.124 58.8739 110.124 58.8739 110.225 58.8739L110.124 59.6848C109.821 59.6848 109.619 59.7857 109.315 59.7857C108.406 59.7857 108.306 59.4821 108.508 58.5694L109.013 56.0368H108.508L108.609 55.226H109.215L109.518 53.9088Z" clip-rule="evenodd"/><path fill="black" fill-rule="evenodd" d="M112.851 58.3676C112.75 58.8739 112.345 59.0766 112.043 59.0766C111.74 59.0766 111.638 58.7721 111.74 58.3676C111.74 57.9622 112.043 57.7594 112.548 57.6576C112.649 57.6576 112.851 57.5567 113.053 57.4549L112.851 58.3676ZM112.144 56.5431V56.4423C112.245 56.1377 112.447 55.935 112.851 55.935C113.255 55.935 113.355 56.1377 113.255 56.4423C113.153 56.7459 113.053 56.8477 112.649 56.9486L112.043 57.1513C111.134 57.354 110.73 57.6576 110.528 58.5694C110.427 59.1785 110.629 59.7857 111.336 59.7857C111.942 59.7857 112.245 59.6848 112.649 59.2793C112.649 59.3802 112.649 59.583 112.75 59.6848H113.76C113.76 59.4821 113.76 59.2793 113.861 58.8739L114.366 56.4423C114.466 55.6314 114.366 55.1241 113.053 55.1241C112.144 55.1241 111.336 55.4287 111.134 56.4423V56.5431H112.144Z" clip-rule="evenodd"/><path fill="black" fill-rule="evenodd" d="M115.376 55.226H116.487L116.385 55.7323C116.789 55.3269 117.194 55.1241 117.698 55.1241C118.406 55.1241 118.709 55.5296 118.608 56.3404L117.9 59.6848H116.689L117.396 56.644C117.496 56.1377 117.396 55.935 116.992 55.935C116.587 55.935 116.385 56.2395 116.285 56.7459L115.578 59.6848H114.466L115.376 55.226Z" clip-rule="evenodd"/><path fill="black" fill-rule="evenodd" d="M120.123 57.4549C120.325 56.4423 120.527 55.935 121.032 55.935C121.536 55.935 121.536 56.4423 121.335 57.4549C121.132 58.4685 120.93 58.9748 120.426 58.9748C119.921 58.9748 119.921 58.4685 120.123 57.4549ZM120.93 59.6848H122.042L123.253 53.7061H122.143L121.738 55.6314C121.536 55.3269 121.335 55.1241 120.83 55.1241C119.921 55.1241 119.315 55.8341 119.012 57.4549C118.608 59.0766 118.911 59.7857 119.819 59.7857C120.325 59.7857 120.628 59.6848 121.032 59.1785L120.93 59.6848Z" clip-rule="evenodd"/><path fill="black" fill-rule="evenodd" d="M125.172 58.3676C125.072 58.8739 124.567 59.0766 124.264 59.0766C123.961 59.0766 123.961 58.7721 123.961 58.3676C124.062 57.9622 124.264 57.7594 124.768 57.6576C124.971 57.6576 125.172 57.5567 125.375 57.4549L125.172 58.3676ZM124.466 56.5431V56.4423C124.567 56.1377 124.768 55.935 125.172 55.935C125.476 55.935 125.577 56.1377 125.577 56.4423C125.476 56.7459 125.375 56.8477 124.971 56.9486L124.264 57.1513C123.456 57.354 123.051 57.6576 122.85 58.5694C122.749 59.1785 122.85 59.7857 123.658 59.7857C124.264 59.7857 124.567 59.6848 124.971 59.2793C124.971 59.3802 124.971 59.583 124.971 59.6848H126.082C125.981 59.4821 126.082 59.2793 126.183 58.8739L126.587 56.4423C126.789 55.6314 126.688 55.1241 125.274 55.1241C124.466 55.1241 123.658 55.4287 123.456 56.4423V56.5431H124.466Z" clip-rule="evenodd"/><path fill="black" fill-rule="evenodd" d="M127.698 55.226H128.809L128.708 55.8341C129.011 55.4287 129.415 55.1241 129.92 55.1241C129.92 55.1241 130.021 55.1241 130.121 55.1241L129.819 56.2395C129.717 56.2395 129.617 56.2395 129.515 56.2395C129.112 56.2395 128.607 56.4423 128.506 57.0504L127.9 59.6848H126.789L127.698 55.226Z" clip-rule="evenodd"/><path fill="black" fill-rule="evenodd" d="M131.031 57.4549C131.233 56.4423 131.435 55.935 131.94 55.935C132.445 55.935 132.445 56.4423 132.243 57.4549C132.041 58.4685 131.838 58.9748 131.334 58.9748C130.829 58.9748 130.829 58.4685 131.031 57.4549ZM131.838 59.6848H132.949L134.162 53.7061H133.051L132.647 55.6314C132.445 55.3269 132.243 55.1241 131.738 55.1241C130.829 55.1241 130.223 55.8341 129.92 57.4549C129.515 59.0766 129.819 59.7857 130.728 59.7857C131.233 59.7857 131.536 59.6848 131.94 59.1785L131.838 59.6848Z" clip-rule="evenodd"/><path fill="black" fill-rule="evenodd" d="M134.869 58.2658L134.768 58.3676C134.667 58.7721 134.869 59.0766 135.273 59.0766C135.576 59.0766 135.879 58.8739 135.98 58.4685C135.98 58.1649 135.879 58.0631 135.678 57.9622L134.869 57.6576C134.263 57.4549 134.061 57.0504 134.162 56.4423C134.364 55.7323 134.97 55.1241 136.182 55.1241C137.192 55.1241 137.596 55.5296 137.394 56.3404V56.5431H136.283C136.384 56.1377 136.384 55.935 135.98 55.935C135.678 55.935 135.374 56.0368 135.273 56.3404C135.273 56.5431 135.374 56.7459 135.678 56.8477L136.384 57.1513C136.989 57.354 137.192 57.7594 137.091 58.3676C136.889 59.3802 136.081 59.7857 135.07 59.7857C133.859 59.7857 133.556 59.2793 133.758 58.3676V58.2658H134.869Z" clip-rule="evenodd"/><path fill="black" fill-rule="evenodd" d="M139.414 59.6848L140.727 53.7061H141.938L140.627 59.6848H139.414Z" clip-rule="evenodd"/><path fill="black" fill-rule="evenodd" d="M142.444 55.226H143.555L143.454 55.7323C143.757 55.3269 144.262 55.1241 144.666 55.1241C145.474 55.1241 145.777 55.5296 145.575 56.3404L144.868 59.6848H143.757L144.363 56.644C144.464 56.1377 144.363 55.935 144.06 55.935C143.656 55.935 143.353 56.2395 143.252 56.7459L142.646 59.6848H141.535L142.444 55.226Z" clip-rule="evenodd"/><path fill="black" fill-rule="evenodd" d="M146.787 58.2658V58.3676C146.686 58.7721 146.787 59.0766 147.191 59.0766C147.595 59.0766 147.797 58.8739 147.898 58.4685C147.999 58.1649 147.797 58.0631 147.595 57.9622L146.888 57.6576C146.282 57.4549 146.08 57.0504 146.181 56.4423C146.282 55.7323 146.888 55.1241 148.1 55.1241C149.11 55.1241 149.514 55.5296 149.312 56.3404V56.5431H148.302C148.402 56.1377 148.302 55.935 147.898 55.935C147.595 55.935 147.393 56.0368 147.292 56.3404C147.191 56.5431 147.292 56.7459 147.696 56.8477L148.302 57.1513C149.01 57.354 149.211 57.7594 149.01 58.3676C148.807 59.3802 147.999 59.7857 147.09 59.7857C145.777 59.7857 145.575 59.2793 145.777 58.3676V58.2658H146.787Z" clip-rule="evenodd"/><path fill="black" fill-rule="evenodd" d="M150.827 53.9088H151.938L151.635 55.226H152.342L152.14 56.0368H151.534L151.029 58.4685C150.928 58.7721 150.928 58.8739 151.332 58.8739C151.433 58.8739 151.433 58.8739 151.534 58.8739L151.433 59.6848C151.131 59.6848 150.928 59.7857 150.625 59.7857C149.716 59.7857 149.615 59.4821 149.817 58.5694L150.322 56.0368H149.817L149.918 55.226H150.524L150.827 53.9088Z" clip-rule="evenodd"/><path fill="black" fill-rule="evenodd" d="M152.746 55.226H153.958L152.948 59.6848H151.837L152.746 55.226ZM153.15 53.7061H154.261L154.059 54.7196H152.847L153.15 53.7061Z" clip-rule="evenodd"/><path fill="black" fill-rule="evenodd" d="M155.271 53.9088H156.382L156.079 55.226H156.786L156.584 56.0368H155.978L155.473 58.4685C155.372 58.7721 155.372 58.8739 155.776 58.8739C155.877 58.8739 155.877 58.8739 155.978 58.8739L155.877 59.6848C155.574 59.6848 155.372 59.7857 155.069 59.7857C154.16 59.7857 154.059 59.4821 154.261 58.5694L154.766 56.0368H154.261L154.363 55.226H154.968L155.271 53.9088Z" clip-rule="evenodd"/><path fill="black" fill-rule="evenodd" d="M158.604 59.1785C158.301 59.583 157.797 59.7857 157.392 59.7857C156.584 59.7857 156.281 59.3802 156.483 58.5694L157.19 55.226H158.301L157.695 58.2658C157.595 58.7721 157.695 58.9748 157.998 58.9748C158.402 58.9748 158.705 58.6712 158.806 58.1649L159.412 55.226H160.523L159.614 59.6848H158.503L158.604 59.1785Z" clip-rule="evenodd"/><path fill="black" fill-rule="evenodd" d="M161.836 53.9088H162.947L162.745 55.226H163.351L163.25 56.0368H162.544L162.038 58.4685C161.937 58.7721 162.038 58.8739 162.341 58.8739C162.442 58.8739 162.544 58.8739 162.644 58.8739L162.442 59.6848C162.139 59.6848 161.937 59.7857 161.634 59.7857C160.827 59.7857 160.725 59.4821 160.827 58.5694L161.432 56.0368H160.827L161.029 55.226H161.533L161.836 53.9088Z" clip-rule="evenodd"/><path fill="black" fill-rule="evenodd" d="M164.261 57.6576L164.159 57.9622C164.058 58.4685 164.058 59.0766 164.563 59.0766C164.866 59.0766 165.169 58.7721 165.27 58.1649H166.382C166.078 59.2793 165.472 59.7857 164.361 59.7857C162.745 59.7857 162.947 58.5694 163.15 57.4549C163.452 56.2395 163.856 55.1241 165.472 55.1241C166.785 55.1241 166.886 56.0368 166.583 57.354L166.482 57.6576H164.261ZM165.573 56.9486C165.674 56.2395 165.674 55.935 165.169 55.935C164.765 55.935 164.563 56.3404 164.462 56.7459L164.361 56.9486H165.573Z" clip-rule="evenodd"/></g></g></g></svg>