<svg xmlns="http://www.w3.org/2000/svg" fill="none" aria-hidden="true" viewBox="0 0 171 69"><path fill="#1D60E6" fill-rule="evenodd" d="M56.225 34.865c-.05-14.983-11.585-26.127-25.982-26.24C15.369 8.762 4.56 20.558 4.28 33.806c-.315 15 11.205 26.489 25.309 26.764 15.462.3 26.68-11.971 26.635-25.705Zm-30.661 3.664h-1.658c-.52 0-1.04.002-1.559-.004-1.12-.012-1.496-.641-.925-1.657.55-.976 1.13-1.934 1.711-2.893.226-.372.452-.745.676-1.118 2.65-4.424 5.303-8.847 7.958-13.268a1.957 1.957 0 0 1 2.138-.742c.314.114.266.332.222.535a1.847 1.847 0 0 0-.023.114 328.367 328.367 0 0 1-.743 4.608l-.03.185a363.3 363.3 0 0 1-.99 5.688c-.12.657.22.723.722.72 1.617-.011 3.233-.011 4.85 0 1.405.01 1.78.659 1.065 1.857-3.448 5.761-6.898 11.522-10.349 17.281-.272.454-1.589.782-2.07.525-.236-.126-.196-.31-.155-.495.008-.037.016-.074.022-.11a6211.123 6211.123 0 0 1 1.268-7.825c.147-.918.294-1.837.464-2.75.103-.554-.174-.654-.615-.653-.66.002-1.32.002-1.98.002Z" clip-rule="evenodd"/><path fill="#1D60E6" d="m124.491 36.065-1.413 3.68a16.107 16.107 0 0 0-.178-.36 5.781 5.781 0 0 1-.23-.493 5037.608 5037.608 0 0 1-7.155-18.409.998.998 0 0 0-1.081-.753 398.46 398.46 0 0 1-7.277.003c-.617-.004-.872.198-.871.851.015 9.295.015 18.59-.001 27.886-.001.598.233.712.768.704 1.906-.027 3.813-.044 5.717.006.728.02.922-.203.917-.92-.028-4.203-.027-8.407-.027-12.61v-2.545c0-.05-.003-.103-.006-.156-.015-.23-.03-.474.219-.696l.268.754c.21.593.417 1.176.62 1.76l.884 2.552c1.259 3.628 2.517 7.258 3.759 10.892.23.675.515 1.023 1.327.977 1.496-.086 3.003-.062 4.502-.008.675.025 1.01-.158 1.235-.826a1007.94 1007.94 0 0 1 3.127-9.104l.83-2.394c.363-1.047.73-2.093 1.097-3.139l.504-1.439c.132.238.196.509.182.781l.001 3.31c.002 3.949.003 7.897-.024 11.845-.005.77.221.988.981.967 1.876-.053 3.754-.042 5.63-.004.638.013.845-.165.843-.823a6918.77 6918.77 0 0 1-.001-27.712c.002-.667-.182-.922-.873-.913-2.426.03-4.851.024-7.277.003a.936.936 0 0 0-1.036.684c-.858 2.32-1.74 4.63-2.623 6.94-1.103 2.886-2.21 5.77-3.338 8.709Z"/><path fill="#1D60E6" fill-rule="evenodd" d="M89.833 19.746c-.331-.002-.663-.005-.995-.005l-1.005.003c-.82.004-1.64.008-2.459-.012a.902.902 0 0 0-1.024.682c-1.419 3.903-2.855 7.8-4.292 11.697a8246.544 8246.544 0 0 0-2.154 5.848c-1.282 3.483-2.564 6.966-3.86 10.444-.206.55-.19.779.485.77 2.136-.03 4.272-.029 6.407.004.522.007.693-.234.832-.656.192-.585.391-1.167.59-1.748.258-.751.516-1.502.757-2.258a.88.88 0 0 1 .982-.727c3.089.025 6.178.026 9.266 0a.922.922 0 0 1 1.05.758c.2.652.426 1.296.651 1.941.221.63.442 1.261.639 1.9.179.579.436.81 1.081.794a150.88 150.88 0 0 1 4.308-.023c.585.003 1.169.005 1.753.005.989 0 1.001-.006.66-.928-.701-1.9-1.406-3.799-2.11-5.697-.884-2.385-1.769-4.77-2.648-7.157a5808.53 5808.53 0 0 1-5.458-14.888.973.973 0 0 0-1.075-.765c-.792.032-1.586.025-2.38.018Zm-.238 18.416c-.273.002-.545.004-.818.004l-.819-.003a73.182 73.182 0 0 0-2.037.01c-.483.01-.622-.135-.457-.611a2073.06 2073.06 0 0 0 3.027-8.798l.023-.072c.048-.152.099-.31.258-.321.218-.015.237.14.256.292a.774.774 0 0 0 .028.153c.328.954.655 1.909.981 2.864.667 1.95 1.335 3.901 2.01 5.849.186.531.013.66-.5.644a52.916 52.916 0 0 0-1.952-.01Zm54.676-7.189-.002 3.439.001 3.325c.002 3.536.004 7.073-.014 10.61-.004.627.14.85.811.833a113.11 113.11 0 0 1 5.713 0c.697.017.884-.205.876-.877a326.748 326.748 0 0 1-.01-3.835c.002-1.578.004-3.157-.023-4.734-.013-.726.228-.853.875-.836 1.47.04 2.948.074 4.414-.017 2.328-.146 4.568-.672 6.438-2.173 2.791-2.244 3.634-5.21 3.309-8.697-.484-5.217-4.33-8.062-9.066-8.322-2.551-.14-5.105-.124-7.659-.108-1.573.01-3.145.02-4.718-.006-.775-.013-.969.238-.964.987.025 3.47.022 6.94.019 10.41Zm7.376-.806c-.002-.302-.004-.603-.004-.904v-1.01c.001-.701.001-1.404-.002-2.106l-.001-.066c-.004-.274-.008-.534.408-.513.542.027 1.086.014 1.63.001 1.039-.024 2.078-.048 3.107.206a3.05 3.05 0 0 1 2.393 2.726c.275 2.947-.916 4.317-3.959 4.496-.539.031-1.08.026-1.62.02a29.17 29.17 0 0 0-1.323.007c-.497.017-.656-.157-.642-.646.021-.737.017-1.474.013-2.211Z" clip-rule="evenodd"/></svg>