<svg xmlns="http://www.w3.org/2000/svg" fill="none" aria-hidden="true" viewBox="0 0 146 81"><path fill="#F58220" d="M131.388 27.859 142.35 7.512c-15.301 12.193-40.491 18.86-53.69 20.415 1.533 0 42.728-.068 42.728-.068Z"/><path fill="#000" d="M34.706 60.637H22.562a29.075 29.075 0 0 1 2.164-5.224h-.14c-3.28 3.89-7.398 5.955-12.212 5.955-5.724 0-8.724-2.953-8.724-9.014 0-10.78 7.676-20.008 22.96-20.008 4.536 0 9.56.222 14.376.945-2.164 9.06-4.746 19.12-6.28 27.346Zm-10.33-20.343c-4.744 0-7.816 5.891-7.816 10.11 0 1.445.28 2.168 1.326 2.168 2.652 0 7.468-6.221 8.584-10.839l.28-1.167a9.563 9.563 0 0 0-2.374-.272Zm36.846-.118a18.605 18.605 0 0 0-3.838-.446c-2.232 0-3.21.446-3.21 1.39 0 2.001 6.91 4.278 6.91 10.11 0 4.667-5.026 10.06-17.168 10.06a41.093 41.093 0 0 1-6.282-.5l2.164-8.165c1.587.475 3.23.736 4.886.778 2.092 0 3.14-.502 3.14-1.334 0-2.67-6.63-3.615-6.63-9.951 0-5.502 5.304-9.782 16.54-9.782a47.678 47.678 0 0 1 5.8.345l-2.312 7.495Zm32.101 20.461H80.837l4.048-16.841c.488-2.057.208-2.722-.698-2.722-2.164 0-7.194 5.559-8.584 11.339l-1.96 8.224h-12.49l9.7-40.575h12.492l-2.312 9.784c-.696 2.889-2.022 5.832-3.558 8.391h.14c3.07-3.556 6.908-5.947 12.56-5.947 7.12 0 8.934 4.057 7.748 8.943l-4.599 19.404Zm17.724.667a17.99 17.99 0 0 1-2.094-.11l-2.93 12.394H93.531l6.555-27.403c1.046-4.446 2.024-8.836 2.86-13.172h12.149a29.062 29.062 0 0 1-2.164 5.218h.14c3.28-3.888 7.398-5.947 12.212-5.947 5.724 0 8.724 2.947 8.724 9.006 0 10.788-7.674 20.014-22.96 20.014Zm8.724-20.232c-2.652 0-7.468 6.222-8.584 10.84l-.28 1.166a9.563 9.563 0 0 0 2.374.278c4.744 0 7.816-5.891 7.816-10.11 0-1.45-.28-2.174-1.326-2.174Zm15.189-8.771v-.011a2.03 2.03 0 1 1 4.06-.012v.012a2.031 2.031 0 0 1-3.903.788 2.03 2.03 0 0 1-.157-.777Zm3.826-.011v-.012a1.8 1.8 0 0 0-1.114-1.656 1.794 1.794 0 0 0-2.344.98c-.09.218-.136.452-.135.688v.011a1.785 1.785 0 0 0 1.795 1.808 1.797 1.797 0 0 0 1.666-1.125c.09-.22.134-.456.132-.694Zm-2.59-1.073h.934c.455 0 .793.221.793.653a.618.618 0 0 1-.48.63l.548.777h-.476l-.488-.707h-.432v.711h-.389l-.01-2.064Zm.899 1.026c.266 0 .42-.14.42-.338 0-.199-.154-.339-.42-.339h-.502v.677h.502Z"/></svg>