<svg xmlns="http://www.w3.org/2000/svg" fill="none" aria-hidden="true" viewBox="0 0 238 50"><g id="Association for the Advancement of Blood &amp; Biotherapies"><g id="Group"><g id="Vector"><path fill="#33647E" d="M226.17 40.8533C226.261 41.6509 227.041 42.9894 229.094 42.9894C230.9 42.9894 231.771 41.7976 231.771 40.725C231.771 39.6798 231.074 38.8639 229.736 38.5706L228.663 38.3505C228.223 38.2589 227.948 37.9838 227.948 37.608C227.948 37.1679 228.37 36.792 228.966 36.792C229.91 36.792 230.213 37.4429 230.277 37.8555L231.698 37.4521C231.579 36.7554 230.946 35.4719 228.966 35.4719C227.499 35.4719 226.362 36.517 226.362 37.7546C226.362 38.7264 227.013 39.5423 228.269 39.8174L229.314 40.0465C229.883 40.1657 230.139 40.4499 230.139 40.835C230.139 41.275 229.773 41.6509 229.076 41.6509C228.177 41.6509 227.692 41.0825 227.637 40.4408L226.17 40.8533ZM224.254 40.3032C224.025 41 223.502 41.5409 222.484 41.5409C221.439 41.5409 220.596 40.7708 220.55 39.6982H225.721C225.739 39.6707 225.766 39.4323 225.766 39.1573C225.766 36.9204 224.483 35.4811 222.31 35.4811C220.522 35.4811 218.863 36.9662 218.863 39.2031C218.863 41.605 220.559 42.9985 222.484 42.9985C224.18 42.9985 225.308 41.9993 225.684 40.7616L224.254 40.3032ZM220.587 38.4605C220.642 37.7088 221.256 36.8929 222.319 36.8929C223.484 36.8929 224.034 37.6355 224.061 38.4605H220.587ZM215.884 33.2167C215.884 33.8309 216.379 34.3076 216.975 34.3076C217.589 34.3076 218.075 33.8309 218.075 33.2167C218.075 32.6024 217.58 32.1165 216.975 32.1165C216.379 32.1074 215.884 32.6024 215.884 33.2167ZM217.818 35.7011H216.15V42.7785H217.818V35.7011ZM213.408 39.2306C213.408 40.5783 212.62 41.4584 211.502 41.4584C210.401 41.4584 209.595 40.5874 209.595 39.2306C209.595 37.9105 210.392 37.0396 211.502 37.0396C212.638 37.0396 213.408 37.9105 213.408 39.2306ZM209.613 45.538V41.9718C209.98 42.5126 210.75 42.9435 211.767 42.9435C213.803 42.9435 215.095 41.3484 215.095 39.2215C215.095 37.1312 213.922 35.5269 211.822 35.5269C210.731 35.5269 209.916 36.0311 209.567 36.6454V35.6827H207.935V45.5196H209.613V45.538ZM204.763 41.7609C204.763 42.2376 204.809 42.6227 204.837 42.7785H206.45C206.432 42.6318 206.377 42.0634 206.377 41.4859V35.7011H204.736V36.627C204.543 36.1503 203.911 35.4902 202.655 35.4902C200.62 35.4902 199.272 37.1496 199.272 39.194C199.272 41.3117 200.61 42.9619 202.691 42.9619C203.7 42.9619 204.442 42.4393 204.763 41.7609ZM200.959 39.2031C200.959 37.8371 201.747 36.9662 202.875 36.9662C203.993 36.9662 204.745 37.8371 204.745 39.2031C204.745 40.5691 203.975 41.5134 202.875 41.5134C201.692 41.5134 200.959 40.5508 200.959 39.2031ZM199.125 35.6552C199.052 35.6369 198.878 35.6094 198.676 35.6094C197.75 35.6094 196.962 36.0586 196.622 36.8287V35.6919H194.981V42.7693H196.668V39.4048C196.668 38.0847 197.264 37.3238 198.575 37.3238C198.749 37.3238 198.942 37.3421 199.125 37.3696V35.6552ZM192.442 40.3032C192.213 41 191.69 41.5409 190.673 41.5409C189.628 41.5409 188.784 40.7708 188.738 39.6982H193.909C193.927 39.6707 193.955 39.4323 193.955 39.1573C193.955 36.9204 192.671 35.4811 190.498 35.4811C188.711 35.4811 187.051 36.9662 187.051 39.2031C187.051 41.605 188.747 42.9985 190.673 42.9985C192.369 42.9985 193.496 41.9993 193.872 40.7616L192.442 40.3032ZM188.775 38.4605C188.83 37.7088 189.444 36.8929 190.508 36.8929C191.672 36.8929 192.222 37.6355 192.249 38.4605H188.775ZM181.523 38.6164C181.551 37.718 182.064 37.0212 182.99 37.0212C184.054 37.0212 184.448 37.718 184.448 38.5889V42.7785H186.135V38.3047C186.135 36.7462 185.291 35.4994 183.549 35.4994C182.807 35.4994 182.009 35.7653 181.532 36.3887V32.2632H179.846V42.7877H181.532V38.6164H181.523ZM175.904 33.5284V34.5918C175.904 35.2152 175.574 35.6919 174.813 35.6919H174.446V37.1862H175.757V40.7433C175.757 42.0634 176.573 42.8518 177.875 42.8518C178.489 42.8518 178.801 42.7327 178.911 42.696V41.3025C178.837 41.3208 178.562 41.3575 178.333 41.3575C177.71 41.3575 177.435 41.0917 177.435 40.4683V37.1862H178.901V35.6919H177.435V33.5284H175.904ZM170.614 35.4811C168.505 35.4811 166.956 37.0671 166.956 39.2306C166.956 41.4125 168.514 42.9985 170.614 42.9985C172.732 42.9985 174.29 41.4125 174.29 39.2306C174.29 37.0671 172.732 35.4811 170.614 35.4811ZM170.614 41.4859C169.578 41.4859 168.634 40.6974 168.634 39.2306C168.634 37.7638 169.578 37.0029 170.614 37.0029C171.659 37.0029 172.594 37.7546 172.594 39.2306C172.585 40.7158 171.659 41.4859 170.614 41.4859ZM163.967 33.2167C163.967 33.8309 164.462 34.3076 165.058 34.3076C165.672 34.3076 166.158 33.8309 166.158 33.2167C166.158 32.6024 165.663 32.1165 165.058 32.1165C164.462 32.1074 163.967 32.6024 163.967 33.2167ZM165.902 35.7011H164.233V42.7785H165.902V35.7011ZM157.871 41.2933V38.2955H159.704C160.777 38.2955 161.373 38.9189 161.373 39.8082C161.373 40.725 160.685 41.2933 159.64 41.2933H157.871ZM157.871 36.8287V33.9501H159.411C160.474 33.9501 161.079 34.5185 161.079 35.3894C161.079 36.2511 160.465 36.8287 159.448 36.8287H157.871ZM156.138 42.7785H159.943C161.859 42.7785 163.142 41.5867 163.142 39.9274C163.142 38.7081 162.39 37.7638 161.3 37.4704C162.189 37.1496 162.821 36.3337 162.821 35.2427C162.821 33.6292 161.657 32.4649 159.686 32.4649H156.138V42.7785ZM146.292 34.7843C146.292 34.0417 146.87 33.6842 147.411 33.6842C148.08 33.6842 148.556 34.1793 148.556 34.7843C148.556 35.1785 148.401 35.5544 147.86 35.9578L147.264 36.3978L146.97 36.077C146.613 35.6828 146.292 35.2794 146.292 34.7843ZM147.2 41.44C146.356 41.44 145.834 40.7891 145.834 40.1474C145.834 39.4782 146.182 39.0564 146.677 38.6897L147.025 38.4239L148.932 40.4408L148.914 40.4591C148.391 41.0275 147.878 41.44 147.2 41.44ZM151.151 42.7785H153.406L151.078 40.3491L152.489 38.7906V36.6087L150.032 39.2581L148.318 37.4704L148.767 37.1404C149.492 36.5903 150.225 35.8294 150.225 34.8118C150.225 33.2717 149.015 32.2541 147.401 32.2541C146.063 32.2541 144.642 33.18 144.642 34.8852C144.642 35.8478 145.329 36.6454 145.815 37.1496L145.99 37.3421L145.889 37.4154C144.816 38.213 144.101 38.9373 144.101 40.2666C144.101 41.6142 145.174 42.971 147.163 42.971C148.281 42.971 149.18 42.421 149.987 41.5592L151.151 42.7785ZM140.498 32.2541H138.857V36.5262C138.637 36.077 138.014 35.5086 136.776 35.5086C134.787 35.5086 133.402 37.1771 133.402 39.2123C133.402 41.3484 134.768 42.9435 136.804 42.9435C137.803 42.9435 138.545 42.4485 138.885 41.8526C138.885 42.1459 138.93 42.6043 138.958 42.7693H140.571C140.553 42.6502 140.498 42.1184 140.498 41.4767V32.2541ZM135.089 39.2123C135.089 37.8646 135.905 37.0029 137.005 37.0029C138.105 37.0029 138.866 37.8463 138.866 39.194C138.866 40.5416 138.096 41.4584 136.996 41.4584C135.841 41.4675 135.089 40.5691 135.089 39.2123ZM129.231 35.4811C127.123 35.4811 125.573 37.0671 125.573 39.2306C125.573 41.4125 127.132 42.9985 129.231 42.9985C131.349 42.9985 132.907 41.4125 132.907 39.2306C132.907 37.0671 131.358 35.4811 129.231 35.4811ZM129.231 41.4859C128.195 41.4859 127.251 40.6974 127.251 39.2306C127.251 37.7638 128.195 37.0029 129.231 37.0029C130.276 37.0029 131.211 37.7546 131.211 39.2306C131.211 40.7158 130.276 41.4859 129.231 41.4859ZM121.402 35.4811C119.293 35.4811 117.744 37.0671 117.744 39.2306C117.744 41.4125 119.303 42.9985 121.402 42.9985C123.52 42.9985 125.078 41.4125 125.078 39.2306C125.078 37.0671 123.52 35.4811 121.402 35.4811ZM121.402 41.4859C120.366 41.4859 119.422 40.6974 119.422 39.2306C119.422 37.7638 120.366 37.0029 121.402 37.0029C122.447 37.0029 123.382 37.7546 123.382 39.2306C123.373 40.7158 122.447 41.4859 121.402 41.4859ZM116.69 32.2541H115.003V42.7785H116.69V32.2541ZM108.641 41.2933V38.2955H110.474C111.547 38.2955 112.143 38.9189 112.143 39.8082C112.143 40.725 111.455 41.2933 110.41 41.2933H108.641ZM108.641 36.8287V33.9501H110.181C111.244 33.9501 111.849 34.5185 111.849 35.3894C111.849 36.2511 111.235 36.8287 110.217 36.8287H108.641ZM106.908 42.7785H110.712C112.629 42.7785 113.912 41.5867 113.912 39.9274C113.912 38.7081 113.16 37.7638 112.069 37.4704C112.959 37.1496 113.591 36.3337 113.591 35.2427C113.591 33.6292 112.427 32.4649 110.456 32.4649H106.908V42.7785Z"/><path fill="#33647E" d="M207.449 19.8869C207.77 19.8869 207.954 19.9327 208.064 19.9602V18.5209C207.944 18.4659 207.596 18.3742 207.174 18.3742C205.717 18.3742 204.708 19.3368 204.708 20.9137V21.8854H203.471V23.3523H204.708V28.9629H206.404V23.3614H208.045V21.8946H206.404V20.9687C206.404 20.0886 207 19.8869 207.449 19.8869ZM199.584 21.6746C197.475 21.6746 195.926 23.2606 195.926 25.4242C195.926 27.6061 197.484 29.1921 199.584 29.1921C201.701 29.1921 203.26 27.6061 203.26 25.4242C203.26 23.2606 201.71 21.6746 199.584 21.6746ZM199.584 27.6794C198.548 27.6794 197.603 26.891 197.603 25.4242C197.603 23.9573 198.548 23.1964 199.584 23.1964C200.629 23.1964 201.564 23.9482 201.564 25.4242C201.564 26.9093 200.629 27.6794 199.584 27.6794ZM189.71 19.7311V20.7945C189.71 21.4179 189.38 21.8946 188.619 21.8946H188.252V23.3889H189.563V26.946C189.563 28.2661 190.379 29.0545 191.681 29.0545C192.295 29.0545 192.607 28.9354 192.717 28.8987V27.5052C192.644 27.5235 192.369 27.5602 192.139 27.5602C191.516 27.5602 191.241 27.2944 191.241 26.671V23.3889H192.708V21.8946H191.241V19.7311H189.71ZM183.018 24.8833C183.018 23.9573 183.522 23.2148 184.484 23.2148C185.548 23.2148 185.942 23.9115 185.942 24.7824V28.972H187.629V24.4982C187.629 22.9397 186.804 21.6929 185.071 21.6929C184.283 21.6929 183.439 22.023 182.981 22.8389V21.8946H181.34V28.972H183.027V24.8833H183.018ZM178.791 26.4968C178.562 27.1935 178.04 27.7344 177.022 27.7344C175.977 27.7344 175.133 26.9643 175.088 25.8917H180.258C180.277 25.8642 180.304 25.6258 180.304 25.3508C180.304 23.1139 179.021 21.6746 176.848 21.6746C175.06 21.6746 173.401 23.1598 173.401 25.3967C173.401 27.7986 175.097 29.1921 177.022 29.1921C178.718 29.1921 179.846 28.1928 180.222 26.9552L178.791 26.4968ZM175.124 24.6541C175.179 23.9023 175.794 23.0864 176.857 23.0864C178.021 23.0864 178.571 23.829 178.599 24.6541H175.124ZM163.518 28.972V24.7733C163.518 23.8748 164.086 23.2056 164.985 23.2056C165.948 23.2056 166.351 23.8473 166.351 24.6632V28.9812H168.01V24.7824C168.01 23.9115 168.588 23.2148 169.477 23.2148C170.421 23.2148 170.843 23.8382 170.843 24.6724V28.9904H172.475V24.3974C172.475 22.5272 171.256 21.7113 169.972 21.7113C169.055 21.7113 168.23 22.0321 167.68 22.9581C167.304 22.133 166.488 21.7113 165.562 21.7113C164.765 21.7113 163.876 22.0871 163.472 22.8114V21.8946H161.859V28.972H163.518ZM159.301 26.4968C159.072 27.1935 158.549 27.7344 157.532 27.7344C156.487 27.7344 155.643 26.9643 155.597 25.8917H160.768C160.786 25.8642 160.814 25.6258 160.814 25.3508C160.814 23.1139 159.53 21.6746 157.357 21.6746C155.57 21.6746 153.91 23.1598 153.91 25.3967C153.91 27.7986 155.606 29.1921 157.532 29.1921C159.228 29.1921 160.355 28.1928 160.731 26.9552L159.301 26.4968ZM155.634 24.6541C155.689 23.9023 156.303 23.0864 157.367 23.0864C158.531 23.0864 159.081 23.829 159.108 24.6541H155.634ZM150.335 23.2331C151.408 23.2331 151.894 23.9298 152.049 24.5532L153.562 24.0032C153.269 22.8664 152.224 21.6746 150.317 21.6746C148.281 21.6746 146.695 23.2423 146.695 25.4242C146.695 27.5786 148.281 29.1921 150.353 29.1921C152.214 29.1921 153.278 27.9819 153.608 26.8818L152.123 26.3409C151.967 26.8818 151.453 27.6519 150.353 27.6519C149.29 27.6519 148.373 26.8543 148.373 25.4242C148.382 24.0032 149.299 23.2331 150.335 23.2331ZM141.177 24.8833C141.177 23.9573 141.681 23.2148 142.643 23.2148C143.707 23.2148 144.101 23.9115 144.101 24.7824V28.972H145.788V24.4982C145.788 22.9397 144.963 21.6929 143.23 21.6929C142.442 21.6929 141.598 22.023 141.14 22.8389V21.8946H139.499V28.972H141.186V24.8833H141.177ZM136.309 27.9544C136.309 28.4311 136.354 28.8162 136.382 28.972H137.995C137.977 28.8254 137.922 28.257 137.922 27.6794V21.8946H136.281V22.8205C136.088 22.3438 135.456 21.6838 134.2 21.6838C132.165 21.6838 130.817 23.3431 130.817 25.3875C130.817 27.5052 132.156 29.1554 134.237 29.1554C135.245 29.1554 135.988 28.6328 136.309 27.9544ZM132.504 25.3967C132.504 24.0307 133.292 23.1598 134.42 23.1598C135.538 23.1598 136.29 24.0307 136.29 25.3967C136.29 26.7626 135.52 27.7069 134.42 27.7069C133.247 27.7069 132.504 26.7443 132.504 25.3967ZM130.936 21.8946H129.167L127.333 26.9552L125.463 21.8946H123.602L126.481 28.972H128.168L130.936 21.8946ZM122.915 18.4476H121.274V22.7197C121.054 22.2705 120.43 21.7021 119.193 21.7021C117.203 21.7021 115.819 23.3706 115.819 25.4058C115.819 27.5419 117.185 29.1371 119.22 29.1371C120.219 29.1371 120.962 28.642 121.301 28.0461C121.301 28.3395 121.347 28.7979 121.374 28.9629H122.988C122.97 28.8437 122.915 28.312 122.915 27.6702V18.4476ZM117.506 25.4058C117.506 24.0582 118.322 23.1964 119.422 23.1964C120.522 23.1964 121.283 24.0398 121.283 25.3875C121.283 26.7351 120.513 27.6519 119.413 27.6519C118.257 27.6611 117.506 26.7626 117.506 25.4058ZM110.804 20.5561L112.372 24.7733H109.236L110.804 20.5561ZM113.958 28.972H115.865L111.849 18.6676H109.832L105.817 28.972H107.66L108.622 26.3868H112.986L113.958 28.972Z"/><path fill="#33647E" d="M218.249 12.6903C218.02 13.387 217.497 13.9279 216.48 13.9279C215.434 13.9279 214.591 13.1579 214.545 12.0852H219.716C219.734 12.0577 219.762 11.8194 219.762 11.5444C219.762 9.30745 218.478 7.86813 216.305 7.86813C214.518 7.86813 212.858 9.35329 212.858 11.5902C212.858 13.9921 214.554 15.3856 216.48 15.3856C218.176 15.3856 219.303 14.3863 219.679 13.1487L218.249 12.6903ZM214.591 10.8476C214.646 10.0959 215.26 9.27995 216.324 9.27995C217.488 9.27995 218.038 10.0225 218.066 10.8476H214.591ZM207.339 11.0035C207.367 10.105 207.88 9.40829 208.806 9.40829C209.87 9.40829 210.264 10.105 210.264 10.976V15.1656H211.951V10.6826C211.951 9.1241 211.107 7.8773 209.365 7.8773C208.623 7.8773 207.825 8.14316 207.349 8.76656V4.64112H205.662V15.1656H207.349V11.0035H207.339ZM201.72 5.92459V6.98803C201.72 7.61143 201.39 8.08815 200.629 8.08815H200.262V9.58248H201.573V13.1395C201.573 14.4597 202.389 15.2481 203.691 15.2481C204.305 15.2481 204.617 15.1289 204.727 15.0922V13.6987C204.653 13.7171 204.378 13.7538 204.149 13.7538C203.526 13.7538 203.251 13.4879 203.251 12.8645V9.58248H204.717V8.08815H203.251V5.92459H201.72ZM197.64 8.04231C197.567 8.02398 197.393 7.99648 197.191 7.99648C196.265 7.99648 195.476 8.44569 195.137 9.21577V8.08815H193.496V15.1656H195.183V11.7919C195.183 10.4717 195.779 9.71082 197.09 9.71082C197.264 9.71082 197.457 9.72916 197.64 9.75666V8.04231ZM188.775 7.86813C186.666 7.86813 185.117 9.45413 185.117 11.6177C185.117 13.7996 186.676 15.3856 188.775 15.3856C190.893 15.3856 192.451 13.7996 192.451 11.6177C192.451 9.45413 190.893 7.86813 188.775 7.86813ZM188.775 13.8729C187.739 13.8729 186.795 13.0845 186.795 11.6177C186.795 10.1509 187.739 9.38996 188.775 9.38996C189.82 9.38996 190.755 10.1417 190.755 11.6177C190.746 13.1029 189.82 13.8729 188.775 13.8729ZM184.512 6.08044C184.833 6.08044 185.016 6.12628 185.126 6.15378V4.71446C185.007 4.65945 184.659 4.56778 184.237 4.56778C182.779 4.56778 181.771 5.53038 181.771 7.10721V8.07898H180.533V9.54581H181.771V15.1564H183.467V9.55497H185.108V8.08815H183.467V7.15305C183.467 6.28213 184.063 6.08044 184.512 6.08044ZM172.64 11.0768C172.64 10.1509 173.144 9.40829 174.107 9.40829C175.17 9.40829 175.564 10.105 175.564 10.976V15.1656H177.251V10.6826C177.251 9.1241 176.426 7.8773 174.693 7.8773C173.905 7.8773 173.062 8.20733 172.603 9.02325V8.08815H170.962V15.1656H172.649V11.0768H172.64ZM166.232 7.86813C164.123 7.86813 162.574 9.45413 162.574 11.6177C162.574 13.7996 164.132 15.3856 166.232 15.3856C168.349 15.3856 169.908 13.7996 169.908 11.6177C169.908 9.45413 168.349 7.86813 166.232 7.86813ZM166.232 13.8729C165.196 13.8729 164.251 13.0845 164.251 11.6177C164.251 10.1509 165.196 9.38996 166.232 9.38996C167.277 9.38996 168.212 10.1417 168.212 11.6177C168.212 13.1029 167.277 13.8729 166.232 13.8729ZM159.594 5.60372C159.594 6.21795 160.089 6.69467 160.685 6.69467C161.3 6.69467 161.785 6.21795 161.785 5.60372C161.785 4.98949 161.29 4.5036 160.685 4.5036C160.08 4.49444 159.594 4.98949 159.594 5.60372ZM161.52 8.08815H159.851V15.1656H161.52V8.08815ZM155.716 5.92459V6.98803C155.716 7.61143 155.386 8.08815 154.625 8.08815H154.259V9.58248H155.57V13.1395C155.57 14.4597 156.386 15.2481 157.687 15.2481C158.302 15.2481 158.613 15.1289 158.723 15.0922V13.6987C158.65 13.7171 158.375 13.7538 158.146 13.7538C157.522 13.7538 157.247 13.4879 157.247 12.8645V9.58248H158.714V8.08815H157.247V5.92459H155.716ZM151.921 14.148C151.921 14.6247 151.967 15.0097 151.994 15.1656H153.608C153.59 15.0189 153.535 14.4505 153.535 13.8729V8.08815H151.894V9.01408C151.701 8.53737 151.068 7.8773 149.812 7.8773C147.777 7.8773 146.43 9.53664 146.43 11.581C146.43 13.6987 147.768 15.3489 149.849 15.3489C150.858 15.3489 151.6 14.8264 151.921 14.148ZM148.107 11.5902C148.107 10.2242 148.896 9.35329 150.023 9.35329C151.142 9.35329 151.894 10.2242 151.894 11.5902C151.894 12.9562 151.123 13.9004 150.023 13.9004C148.85 13.9004 148.107 12.9378 148.107 11.5902ZM143.441 5.60372C143.441 6.21795 143.936 6.69467 144.532 6.69467C145.146 6.69467 145.632 6.21795 145.632 5.60372C145.632 4.98949 145.137 4.5036 144.532 4.5036C143.936 4.49444 143.441 4.98949 143.441 5.60372ZM145.375 8.08815H143.707V15.1656H145.375V8.08815ZM139.508 9.42663C140.581 9.42663 141.067 10.1234 141.222 10.7468L142.735 10.1967C142.442 9.05992 141.397 7.86813 139.49 7.86813C137.454 7.86813 135.868 9.4358 135.868 11.6177C135.868 13.7721 137.454 15.3856 139.526 15.3856C141.387 15.3856 142.451 14.1755 142.781 13.0753L141.296 12.5345C141.14 13.0753 140.626 13.8454 139.526 13.8454C138.463 13.8454 137.546 13.0478 137.546 11.6177C137.546 10.1875 138.472 9.42663 139.508 9.42663ZM131.706 7.86813C129.598 7.86813 128.048 9.45413 128.048 11.6177C128.048 13.7996 129.607 15.3856 131.706 15.3856C133.824 15.3856 135.383 13.7996 135.383 11.6177C135.383 9.45413 133.824 7.86813 131.706 7.86813ZM131.706 13.8729C130.67 13.8729 129.726 13.0845 129.726 11.6177C129.726 10.1509 130.67 9.38996 131.706 9.38996C132.751 9.38996 133.687 10.1417 133.687 11.6177C133.677 13.1029 132.751 13.8729 131.706 13.8729ZM121.952 13.2404C122.044 14.0379 122.823 15.3764 124.876 15.3764C126.683 15.3764 127.553 14.1846 127.553 13.112C127.553 12.0669 126.857 11.251 125.518 10.9576L124.446 10.7376C124.006 10.6459 123.731 10.3709 123.731 9.99502C123.731 9.55497 124.152 9.1791 124.748 9.1791C125.692 9.1791 125.995 9.83 126.059 10.2425L127.48 9.83917C127.361 9.14243 126.728 7.85896 124.748 7.85896C123.281 7.85896 122.145 8.90407 122.145 10.1417C122.145 11.1135 122.795 11.9294 124.051 12.2044L125.096 12.4336C125.665 12.5528 125.922 12.837 125.922 13.222C125.922 13.6621 125.555 14.038 124.858 14.038C123.96 14.038 123.474 13.4696 123.419 12.8278L121.952 13.2404ZM115.892 13.2404C115.984 14.0379 116.763 15.3764 118.817 15.3764C120.623 15.3764 121.494 14.1846 121.494 13.112C121.494 12.0669 120.797 11.251 119.458 10.9576L118.386 10.7376C117.946 10.6459 117.671 10.3709 117.671 9.99502C117.671 9.55497 118.092 9.1791 118.688 9.1791C119.633 9.1791 119.935 9.83 119.999 10.2425L121.42 9.83917C121.301 9.14243 120.669 7.85896 118.688 7.85896C117.221 7.85896 116.085 8.90407 116.085 10.1417C116.085 11.1135 116.736 11.9294 117.992 12.2044L119.037 12.4336C119.605 12.5528 119.862 12.837 119.862 13.222C119.862 13.6621 119.495 14.038 118.798 14.038C117.9 14.038 117.414 13.4696 117.359 12.8278L115.892 13.2404ZM110.804 6.74968L112.372 10.9668H109.236L110.804 6.74968ZM113.958 15.1656H115.865L111.849 4.86114H109.832L105.817 15.1656H107.66L108.622 12.5803H112.986L113.958 15.1656Z"/></g><g id="Vector_2"><path fill="#00ABC8" d="M62.0232 40.9268C59.5021 40.9268 57.1918 40.0375 55.3766 38.5615V42.2561C57.3477 43.3654 59.6121 43.9888 62.0232 43.9888C65.9469 43.9888 69.4948 42.3202 71.9792 39.6525C71.2917 38.8457 70.6958 37.9656 70.2099 37.0122C68.2755 39.4049 65.3235 40.9268 62.0232 40.9268Z"/><path fill="#00ABC8" d="M72.566 6.81397C72.566 5.97055 71.8784 5.28297 71.035 5.28297C70.1915 5.28297 69.504 5.97055 69.504 6.81397V17.8976C70.6407 18.5394 71.6767 19.337 72.5751 20.2721V6.81397H72.566Z"/><path fill="#00ABC8" d="M83.1087 16.7609C79.2217 16.7609 75.7196 18.3927 73.2352 21.0146C73.9136 21.8214 74.5003 22.7198 74.977 23.6733C76.9114 21.3355 79.8359 19.832 83.1087 19.832C88.9302 19.832 93.6607 24.5625 93.6607 30.384C93.6607 36.1963 88.9302 40.9359 83.1087 40.9359C80.3768 40.9359 77.8924 39.8908 76.013 38.1856C74.1978 36.5996 72.3001 33.4918 72.0617 30.4206C71.9059 28.4588 70.8424 26.121 69.4948 24.4342V30.384C69.4948 37.8923 75.6096 44.0071 83.1179 44.0071C90.6262 44.0071 96.741 37.8923 96.741 30.384C96.741 22.8757 90.6262 16.7609 83.1087 16.7609Z"/><path fill="#00ABC8" d="M69.2931 22.7473C69.3023 22.7565 69.3114 22.7657 69.3206 22.7748C69.3756 22.8298 69.4306 22.8848 69.4856 22.9398C69.5315 22.9857 69.5773 23.0407 69.6323 23.0865C69.6598 23.114 69.6781 23.1324 69.7057 23.1599C70.0173 23.4899 70.3107 23.8566 70.5949 24.2417C70.6591 24.3333 70.7233 24.425 70.7874 24.5075C70.8149 24.5534 70.8424 24.59 70.8791 24.6359C72.0526 26.3685 72.9143 28.4771 73.0518 30.329C73.1894 32.0341 73.8769 33.7485 74.7754 35.1603C75.3346 33.666 75.6463 32.0525 75.6463 30.3656C75.6463 22.8665 69.5315 16.7609 62.0232 16.7609C57.7694 16.7609 53.974 18.7136 51.4712 21.7756L51.4804 21.7664L51.4712 21.7572V6.81397C51.4712 5.97055 50.7836 5.28297 49.9402 5.28297C49.0876 5.28297 48.4092 5.97055 48.4092 6.81397V30.384C48.4092 32.0525 48.7118 33.6477 49.2618 35.1236C50.1786 33.6477 50.8295 31.9608 50.9487 30.4481C51.1412 27.9545 52.4063 25.4426 53.8365 23.7374C55.7708 21.3538 58.732 19.8229 62.0323 19.8229C64.8376 19.832 67.4046 20.9413 69.2931 22.7473Z"/></g><g id="Vector_3"><path fill="#33647E" d="M40.9467 19.8319C43.4678 19.8319 45.7781 20.7211 47.5932 22.1971V18.4934C45.6222 17.3933 43.3578 16.7607 40.9467 16.7607C36.9863 16.7607 33.4201 18.4567 30.9265 21.1612C31.6141 21.9771 32.2008 22.8664 32.6867 23.8198C34.621 21.3904 37.6005 19.8319 40.9467 19.8319Z"/><path fill="#33647E" d="M19.852 40.9266C14.0397 40.9266 9.30001 36.1961 9.30001 30.3747C9.30001 24.5624 14.0305 19.8227 19.852 19.8227C23.0606 19.8227 25.9301 21.262 27.8645 23.5173C28.8638 24.6357 30.6331 27.0468 30.8898 30.3288C31.064 32.5474 32.1916 34.7843 33.4751 36.3428V30.3655C33.4751 22.8664 27.3603 16.7607 19.852 16.7607C12.3437 16.7607 6.22885 22.8664 6.22885 30.3838C6.22885 37.8921 12.3437 44.007 19.852 44.007C23.7757 44.007 27.3144 42.3384 29.7989 39.6798C29.1113 38.8731 28.5246 37.9838 28.0387 37.0304C26.1043 39.4048 23.1523 40.9266 19.852 40.9266Z"/><path fill="#33647E" d="M51.9295 30.5305C51.7829 32.3732 50.9486 34.4359 49.7751 36.1411C49.4818 36.5903 49.1518 37.0212 48.7942 37.4154C47.5291 38.8272 45.8972 39.8724 44.0912 40.4407C43.0919 40.7524 42.0377 40.9266 40.9375 40.9266C38.1047 40.9266 35.5286 39.799 33.6309 37.9746C31.8891 36.3428 30.1289 33.3542 29.8905 30.4113C29.7347 28.4128 28.9554 26.7626 28.1854 25.58C27.6261 27.0743 27.3144 28.6878 27.3144 30.3747C27.3144 37.883 33.4292 43.9978 40.9375 43.9978C42.3769 43.9978 43.7612 43.7778 45.063 43.3561C45.0721 43.3561 45.0721 43.3469 45.0813 43.3469C47.5841 42.5401 49.821 41.0275 51.4895 39.0014C51.4895 39.0014 51.4895 39.0106 51.4987 39.0106V43.2185C51.4987 44.062 52.1862 44.7495 53.0297 44.7495C53.8731 44.7495 54.5607 44.062 54.5607 43.2185V30.393C54.5607 30.393 54.5607 30.3838 54.5607 30.3747C54.5607 28.6878 54.249 27.0743 53.6897 25.5892C52.7821 27.0193 52.0671 28.7795 51.9295 30.5305Z"/><path fill="#33647E" d="M33.3651 42.6593C33.2367 42.586 33.1084 42.5126 32.9892 42.4301C32.0449 41.8342 31.174 41.1283 30.4039 40.3307V40.3491L30.3856 40.3307V43.2094C30.3856 44.0528 31.0732 44.7404 31.9166 44.7404C32.76 44.7404 33.4476 44.0528 33.4476 43.2094V42.7052C33.4201 42.6868 33.3834 42.6685 33.3651 42.6593Z"/></g><path id="Vector_4" fill="#33647E" d="M94.9533 44.7584H95.4759V42.3565H95.485L96.3468 44.7584H96.796L97.6578 42.3565H97.6669V44.7584H98.1895V41.6506H97.4286L96.5943 44.0891H96.5851L95.7234 41.6506H94.9533V44.7584V44.7584ZM92.0838 42.1089H93.0648V44.7492H93.6057V42.1089H94.5958V41.6414H92.0747V42.1089H92.0838Z"/></g></g></svg>