<svg xmlns="http://www.w3.org/2000/svg" fill="none" aria-hidden="true" viewBox="0 0 106 112"><path fill="#2C5B8D" fill-rule="evenodd" d="M9.817 104.093c.223-1.565-.895-2.237-2.237-2.237-1.118 0-2.236.672-2.236 2.013 0 .895.448 1.342 1.342 1.565h.447c.894.224 1.789.447 1.789 1.341 0 1.119-1.118 1.342-2.012 1.342-1.118 0-1.79-.447-1.79-1.565h-.67c0 1.565 1.117 2.236 2.46 2.236 2.235 0 2.46-1.341 2.46-2.013 0-1.117-.672-1.341-1.566-1.788l-.894-.223c-.448 0-.895-.224-.895-.896 0-1.117.67-1.341 1.565-1.341 1.118 0 1.79.224 1.79 1.566h.447Zm1.34.223h.896l-.671 3.131v.447c0 .671.447.671.894.671h.447l.225-.447h-.672c-.223 0-.447 0-.447-.224 0-.223 0-.223.224-.447l.67-3.131h.895v-.447h-.895l.225-1.341H12.5l-.224 1.341h-.894l-.225.447Zm6.71 1.789c-.223.224-.895.224-1.118.224-.67 0-1.789 0-1.789 1.118 0 .671.447.895.894.895 1.118 0 1.566-.671 1.79-1.566l.223-.671Zm-2.907-.894c.224-.895.894-1.342 2.012-1.342.671 0 1.566.225 1.566.896 0 .447-.224 1.117-.224 1.564-.223 1.119-.223 1.343-.223 1.566 0 .224 0 .224.223.224h.224v.447h-.67c-.224 0-.448 0-.448-.447v-.224c-.223.447-.895.894-1.566.894-.894 0-1.565-.447-1.565-1.34 0-.896.895-1.343 1.79-1.566h1.341c.447-.224.67-.447.67-.895 0-.672-.67-.672-1.117-.672-.67 0-1.342.225-1.342.896h-.671v-.001Zm5.815-1.342h.67l-.223.896c.447-.671.894-.896 1.79-.896.67 0 1.34.225 1.34 1.119v.671l-.67 2.907h-.67l.67-2.907v-.671c0-.447-.447-.672-.895-.672-.894 0-1.565.672-1.789 1.789l-.671 2.46h-.447l.895-4.696Zm6.931 4.473c-.895 0-1.341-.671-1.341-1.566 0-1.117.67-2.46 2.012-2.46.895 0 1.342.448 1.342 1.342 0 1.118-.894 2.684-2.013 2.684Zm3.355-6.262h-.67l-.448 2.684c-.224-.671-.895-.895-1.566-.895-1.566 0-2.683 1.565-2.683 2.907 0 1.118.671 2.013 1.789 2.013.894 0 1.341-.447 1.789-1.117l-.224.894h.67l1.343-6.486Zm3.802 4.696c-.224.896-.671 1.566-1.565 1.566-.671 0-1.118-.224-1.118-.895 0-1.118 1.118-1.118 1.788-1.118.447 0 .895 0 1.118-.224l-.223.671Zm-2.013-1.565c0-.67.67-.895 1.341-.895.447 0 1.118 0 1.118.672 0 .447-.223.671-.671.894h-1.342c-.895.224-1.79.671-1.79 1.566 0 .894.672 1.341 1.566 1.341.671 0 1.341-.447 1.565-.895v.224c0 .447.224.447.672.447h.447v-.447h-.224c-.223 0-.223 0-.223-.224 0-.223 0-.447.223-1.565.224-.448.224-1.118.224-1.565 0-.671-.895-.895-1.565-.895-.895 0-1.79.447-2.013 1.342h.672Zm5.367-1.342h.447l-.223 1.119c.223-.672.895-1.119 1.566-1.119h.447l-.224.447h-.223c-1.118 0-1.566.896-1.79 1.79l-.447 2.46h-.671l1.118-4.697Zm4.696 4.473c-.894 0-1.341-.671-1.341-1.566 0-1.117.671-2.46 2.013-2.46.894 0 1.341.448 1.341 1.342 0 1.118-.671 2.684-2.013 2.684Zm3.355-6.262h-.671l-.448 2.684c-.224-.671-.894-.895-1.565-.895-1.566 0-2.684 1.565-2.684 2.907 0 1.118.671 2.013 1.789 2.013.895 0 1.342-.447 1.79-1.117l-.224.894h.67l1.343-6.486Zm1.118 4.919c0 .896.67 1.343 1.342 1.343.67 0 1.341-.448 1.341-.895 0-.672-.67-.895-1.341-1.118-.672-.224-1.342-.448-1.342-1.341 0-.894 1.117-1.119 1.789-1.119.894 0 1.789.225 1.789 1.342h-.672c0-.67-.447-.895-1.117-.895-.447 0-1.119 0-1.119.672 0 .447.448.671.895.894.671.224 1.566.447 1.566 1.342 0 1.118-.895 1.565-1.79 1.565-.894 0-1.789-.447-1.789-1.79h.448Zm7.38-4.919h.67l.224 5.814 2.908-5.814h.67l.447 5.814 2.684-5.814h.67l-3.13 6.485h-.67l-.448-5.814-2.907 5.814h-.67l-.449-6.485Zm10.286 6.262c-.894 0-1.342-.671-1.342-1.566 0-1.117.672-2.46 2.013-2.46.896 0 1.342.448 1.342 1.342 0 1.118-.67 2.684-2.013 2.684Zm.67-4.473c-1.564 0-2.683 1.342-2.683 2.908 0 1.118.67 2.012 2.013 2.012 1.566 0 2.46-1.564 2.46-3.13 0-1.118-.67-1.79-1.79-1.79Zm4.026 0h.448l-.224 1.119c.447-.672.896-1.119 1.79-1.119h.223v.447h-.447c-.896 0-1.566.896-1.79 1.79l-.447 2.46h-.67l1.117-4.697Zm4.026-1.789h.671l-1.566 6.485h-.447l1.342-6.485Zm3.131 6.262c-.894 0-1.118-.671-1.118-1.566 0-1.117.672-2.46 2.013-2.46.67 0 1.117.448 1.117 1.342 0 1.118-.67 2.684-2.012 2.684Zm3.578-6.262h-.671l-.67 2.684c-.226-.671-.673-.895-1.343-.895-1.788 0-2.684 1.565-2.684 2.907 0 1.118.67 2.013 1.79 2.013.894 0 1.34-.447 1.788-1.117l-.224.894h.447l1.567-6.486Zm.895 1.789h.447l.447 4.025 2.013-4.025h.67l.224 4.025 2.013-4.025h.67l-2.46 4.696h-.67l-.224-3.801-2.012 3.801h-.671l-.447-4.696Zm8.274-.894h.67l.224-.895h-.67l-.224.895Zm-1.119 5.59h.447l1.119-4.696h-.67l-.896 4.696Zm4.472-.223c-.894 0-1.342-.671-1.342-1.566 0-1.117.672-2.46 2.013-2.46.896 0 1.343.448 1.343 1.342 0 1.118-.672 2.684-2.014 2.684Zm3.355-6.262h-.447l-.67 2.684c-.224-.671-.672-.895-1.567-.895-1.564 0-2.46 1.565-2.46 2.907 0 1.118.447 2.013 1.79 2.013.894 0 1.34-.447 1.565-1.117h.224l-.224.894h.448l1.341-6.486Zm1.566 3.802c.223-.894.894-1.566 1.79-1.566.67 0 1.34.449 1.34 1.343v.223h-3.13Zm3.577.447v-.671c0-1.117-.671-1.789-1.788-1.789-1.566 0-2.46 1.342-2.46 2.907 0 1.118.67 2.013 1.788 2.013 1.119 0 2.013-.671 2.237-1.79h-.671c-.224.673-.67 1.343-1.566 1.343-.894 0-1.34-.671-1.34-1.566v-.447h3.8ZM5.791 83.966h2.46l-1.566 8.05h-2.46l1.566-8.05Zm4.026 0h2.46l1.34 4.249h.224l.895-4.25h2.236l-1.565 8.051h-2.46l-1.565-4.471-.895 4.471h-2.46l1.79-8.05Zm10.063 2.013h-2.46l.447-2.013h7.156l-.447 2.013h-2.237l-1.341 6.037h-2.46l1.342-6.037Zm6.038-2.013h6.932l-.447 2.013h-4.25l-.223.895h3.802l-.224 2.011h-4.025l-.224 1.12h4.25l-.448 2.011h-6.709l1.566-8.05Zm10.286 1.79h1.342c.671 0 .895.446.895.67 0 .672-.447.896-1.342.896h-1.118l.223-1.567Zm-3.801 6.26h2.46l.67-2.906h1.118c.671 0 .895.448.895.671v2.235h2.46c-.223-.447-.223-1.34-.223-2.011 0-.895 0-1.566-.67-1.79 1.117-.223 1.788-1.117 1.788-2.236 0-1.788-1.118-2.013-2.683-2.013h-4.025l-1.79 8.05Zm10.287-8.05h2.46l1.565 4.249.894-4.25h2.46l-1.789 8.051h-2.46l-1.565-4.471-.895 4.471H40.9l1.79-8.05ZM53.2 89.11h1.565l-.447-2.461L53.2 89.11Zm.447-5.144h2.46l1.341 8.05h-2.46l-.223-1.117h-2.46l-.67 1.117H48.95l4.696-8.05Zm6.934 2.013h-2.462l.449-2.013h7.154l-.446 2.013h-2.237l-1.341 6.037h-2.46l1.343-6.037Zm6.037-2.013h2.683l-1.79 8.05h-2.459l1.566-8.05Zm5.367 4.696c0-1.117.447-2.907 2.013-2.907.894 0 1.34.67 1.34 1.342 0 1.34-.67 3.13-2.012 3.13-1.117 0-1.341-.893-1.341-1.565Zm-2.46 0c0 2.236 1.342 3.579 3.577 3.579 2.908 0 4.697-2.237 4.697-4.92 0-2.46-1.341-3.58-3.801-3.58-2.684.001-4.473 2.238-4.473 4.92Zm10.287-4.696h2.46l1.564 4.249.896-4.25h2.237l-1.567 8.051h-2.46l-1.564-4.471-.895 4.471h-2.46l1.789-8.05Zm11.628 2.683.223 2.461H90.1l1.34-2.461Zm-5.367 5.367h2.46l.67-1.117h2.685l.224 1.117h2.46l-1.341-8.05h-2.46l-4.698 8.05Zm10.734-8.05h2.683l-1.34 6.039h3.577l-.447 2.011h-6.038l1.565-8.05Z" clip-rule="evenodd"/><path fill="#2C5B8D" d="M4.45 79.494h97.053Zm0 15.654h97.053ZM52.53 2.79c-5.815.223-11.853 2.46-16.326 4.472v36.675h10.512v16.58a173.45 173.45 0 0 0 5.143-1.109V38.569h-9.616V10.393c1.336-.445 3.114-.89 4.896-1.336l.024-.006v23.705h5.367V2.789Zm-.671 59.7c-1.735.383-3.45.72-5.143 1.014v11.74a18.559 18.559 0 0 1-4.697-1.34V64.22c-1.984.258-3.925.456-5.814.594V76.81c5.367 2.907 10.287 3.8 15.654 4.248V62.49Z"/><path fill="#2C5B8D" d="M36.205 62.205c1.88-.222 3.82-.5 5.815-.83V49.304h-5.815v12.901Z"/><path fill="#2C5B8D" fill-rule="evenodd" d="M31.285 62.672c-1.862.13-3.653.198-5.367.204V43.713h-5.591c.223 3.802 1.342 8.946 3.354 12.971l-4.92 2.012c-6.932-14.312-4.695-36.451 12.524-48.303v52.279ZM25.918 38.57V23.81c-3.131 3.579-5.143 10.734-5.591 14.76h5.59Z" clip-rule="evenodd"/><path fill="#2C5B8D" d="M25.918 64.978a79.47 79.47 0 0 0 5.367.069v8.856c-.679-.485-1.483-1.222-2.305-1.974-1.073-.983-2.175-1.992-3.062-2.499v-4.452Zm32.65-4.172a131.57 131.57 0 0 0 5.59-1.72v20.408c-2.013.67-3.802.894-5.59 1.117V60.806Zm5.59-4.759a129.177 129.177 0 0 1-5.59 1.675V8.603c-1.566-.223-3.132-.223-4.473-.223V3.013c4.696 0 9.614.67 14.536 2.684v6.26c-1.079-.77-2.051-1.115-3.064-1.475a23.427 23.427 0 0 1-1.409-.536v46.1Zm6.038.865v20.57c2.013-.894 4.026-2.014 5.815-3.355v-19.66a117.45 117.45 0 0 1-5.815 2.445Zm5.814-5.378a122.07 122.07 0 0 1-5.814 2.386V6.368l10.957 23.705 4.473-10.735c5.011 7.1 7.342 14.93 7.401 22.56a67.167 67.167 0 0 1-5.502 3.696c.38-4.228.013-8.501-1.006-12.391l-5.141 13.194L76.01 33.65v17.884Zm11.12-2.966c-.87 4.932-2.81 9.66-5.977 13.483l3.802 3.802a38.8 38.8 0 0 0 8.006-21.374 63.78 63.78 0 0 1-5.83 4.089Z"/><path fill="#2C5B8D" fill-rule="evenodd" d="M101.727 29.625c1.118 8.722-17.666 21.692-44.055 29.072-26.612 7.38-50.54 5.59-52.999-3.354-.67-2.46-.895-6.262 8.05-12.3.671-.447.895-.223.224.223-8.274 5.815-8.498 9.617-7.603 11.852 4.249 12.3 41.818 3.803 51.657 1.119 24.377-6.933 44.725-18.338 44.055-26.388-.224-2.46-1.34-5.367-9.84-6.933-.67-.223-.67-.447 0-.223 8.946 1.341 10.287 4.471 10.511 6.932Z" clip-rule="evenodd"/></svg>