<svg xmlns="http://www.w3.org/2000/svg" fill="none" aria-hidden="true" viewBox="0 0 225 52"><path fill="#60B57D" d="M28.654 7.083a.983.983 0 0 1-1.232 1.533c-2.564-2.059-4.699-2.739-6.016-2.067-1.532.782-2.127 3.297-1.817 6.806l.046.474c.026.24.056.484.09.732l.073.501c.091.587.204 1.194.337 1.82a51.315 51.315 0 0 1 5.92-.551 53.876 53.876 0 0 1 2.75-3.265l.462-.5a39.847 39.847 0 0 1 3.464-3.287l.457-.373c4.172-3.352 8.056-4.678 10.568-3.047 2.188 1.419 2.774 4.634 1.962 8.943a.983.983 0 1 1-1.933-.364c.68-3.609.232-6.065-1.1-6.93-1.731-1.124-4.949.17-8.577 3.193l-.405.342c-.203.176-.407.356-.612.541l-.412.378c-.413.384-.83.789-1.248 1.212l-.418.43-.21.22-.42.45-.42.46-.42.475c-.14.16-.281.321-.421.485l-.42.497-.082.1a63.95 63.95 0 0 1 2.983.085l.391.022.779.05c.645.045 1.284.1 1.914.163l.752.08.373.044.74.093c.613.08 1.217.17 1.81.268l.707.122.697.129.687.136c2.27.468 4.356 1.06 6.195 1.755l.544.212c4.83 1.93 7.807 4.587 7.654 7.523-.127 2.428-2.302 4.431-5.95 5.867a.983.983 0 1 1-.72-1.83c3.007-1.184 4.63-2.678 4.706-4.14.097-1.87-2.141-3.805-5.868-5.366l-.463-.19a30.251 30.251 0 0 0-.97-.366l-.507-.177a34.41 34.41 0 0 0-.52-.172l-.532-.168-.546-.163a42.078 42.078 0 0 0-.278-.08l-.564-.155-.286-.076-.582-.148a47.675 47.675 0 0 0-1.813-.408l-.626-.125-.316-.06-.64-.114-.65-.109a50.282 50.282 0 0 0-.329-.051l-.663-.099a55.662 55.662 0 0 0-.672-.091l-.681-.084-.688-.077c-.346-.037-.696-.07-1.047-.101l-.707-.058a59.898 59.898 0 0 0-.713-.05l-.72-.042-.72-.033-.715-.024c-.831-.024-1.65-.03-2.454-.02l-.562.011-.22.293c-.138.185-.275.37-.411.558l-.409.568a60.248 60.248 0 0 0-1.79 2.674l-.38.607a59.284 59.284 0 0 0-1.154 1.959l.102.247.268.63c.045.106.09.212.137.318l.283.636.293.639.303.64.314.643.324.645.331.64.336.631.341.622.172.308.347.607c.116.201.233.4.35.598l.355.587c.118.194.237.386.357.576l.36.566.363.555c.303.458.608.904.915 1.338l.37.515c.246.339.493.67.74.993l.372.477.372.465.186.228.372.445.37.432c.372.425.741.83 1.108 1.213l.366.376.364.36c.182.178.362.349.542.515l.358.323c.178.158.355.31.53.457l.35.284c2.373 1.89 4.477 2.652 5.874 1.94 1.311-.669 1.937-2.621 1.891-5.39l-.012-.422a19.62 19.62 0 0 0-.022-.433l-.032-.445c-.012-.15-.026-.302-.042-.456l-.052-.467-.03-.237-.067-.483-.078-.492-.087-.502a34.55 34.55 0 0 0-.262-1.295l-.122-.533-.132-.541-.07-.274-.147-.552-.157-.56a35.148 35.148 0 0 0-.082-.282l-.172-.57-.182-.576c-.093-.29-.19-.581-.29-.875l-.207-.59-.217-.596a50.76 50.76 0 0 0-.462-1.204L39.932 27l-.255-.612a56.727 56.727 0 0 0-.132-.308l-.27-.616-.28-.62a70.906 70.906 0 0 0-.144-.31l-.295-.624-.151-.312a.983.983 0 1 1 1.767-.862l.327.68c.106.225.212.45.315.676l.305.675c.3.674.582 1.343.849 2.007l.261.662.127.33.244.655c.04.109.08.217.118.326l.228.648c.148.43.288.858.422 1.28l.193.632c2.32 7.75 2.022 14.054-1.457 15.828-2.813 1.435-6.803-.558-10.818-4.762l-.416-.443c-.277-.3-.553-.61-.83-.931l-.414-.489a48.75 48.75 0 0 1-3.257-4.405l-.396-.609a61.646 61.646 0 0 1-2.836-4.922l-.18-.349a64.416 64.416 0 0 1-.35-.7l-.341-.697a62.789 62.789 0 0 1-.771-1.669l-.159.315a53.37 53.37 0 0 0-.145.295l-.283.585-.273.582-.26.577a52.64 52.64 0 0 0-.127.287l-.245.569-.118.282-.228.561a48.28 48.28 0 0 0-.11.278l-.21.551-.102.273-.194.541-.183.534c-.088.265-.172.527-.252.786l-.154.514-.143.505-.067.249-.124.49c-.1.406-.187.802-.261 1.186l-.084.456c-.557 3.227-.194 5.607 1.185 6.502 1.39.901 3.965.215 7.144-2.079a.983.983 0 1 1 1.15 1.595c-3.766 2.719-7.096 3.605-9.364 2.134-2.74-1.779-2.933-6.481-1.11-12.332l.19-.589c.13-.395.27-.795.418-1.199l.229-.61a47.08 47.08 0 0 1 1.043-2.493l.292-.636.305-.64c.389-.802.806-1.612 1.25-2.427l-.175-.451-.254-.675a51.498 51.498 0 0 1-.9-2.65l-.194-.648c-.12-.41-.233-.817-.339-1.219l-.36.075-.535.118-.522.123-.256.064-.501.132-.488.137c-.16.047-.318.095-.474.143l-.459.148c-.15.05-.299.101-.444.153l-.429.158c-2.947 1.122-4.742 2.594-4.826 4.198-.076 1.461 1.383 3.116 4.252 4.606a.983.983 0 0 1-.907 1.745c-3.479-1.806-5.435-4.026-5.309-6.453.176-3.385 4.448-5.968 10.803-7.273-1.286-6.145-.632-10.926 2.324-12.433 2.185-1.116 5.04-.207 8.142 2.285Zm128.96 3.52c9.507 0 15.742 7.58 15.742 16.145v.09c0 8.567-6.325 16.236-15.832 16.236-9.508 0-15.743-7.579-15.743-16.146v-.09c0-8.565 6.324-16.235 15.833-16.235Zm31.795.404c.494 0 .853.269 1.166.673l12.245 18.03 12.245-18.03c.268-.404.673-.673 1.165-.673h.225c.627 0 1.166.539 1.166 1.165v29.376c0 .629-.539 1.168-1.166 1.168a1.187 1.187 0 0 1-1.166-1.168v-26.28l-11.527 16.774c-.269.404-.584.583-.986.583-.405 0-.719-.18-.987-.583l-11.527-16.774v26.326a1.11 1.11 0 0 1-1.121 1.122 1.11 1.11 0 0 1-1.121-1.122V12.172c0-.627.538-1.165 1.166-1.165h.223Zm-58.479.134c.582 0 1.076.493 1.076 1.076a1.09 1.09 0 0 1-1.076 1.077h-10.047V41.55c0 .627-.538 1.166-1.166 1.166a1.188 1.188 0 0 1-1.166-1.166V13.294h-10.047a1.09 1.09 0 0 1-1.076-1.077 1.09 1.09 0 0 1 1.076-1.076h22.426Zm-46.105-.314c.808 0 1.257.449 1.57 1.123L99.76 40.92c.135.27.18.494.18.719 0 .582-.494 1.076-1.123 1.076-.537 0-.94-.404-1.165-.897l-3.677-8.074H75.45l-3.678 8.119c-.224.538-.582.852-1.121.852-.583 0-1.077-.449-1.077-.988 0-.179.046-.448.18-.717l13.41-29.061c.314-.674.763-1.123 1.57-1.123h.09Zm72.699 1.884c-7.76 0-13.321 6.279-13.321 14.037v.09c0 7.76 5.651 14.128 13.411 14.128 7.758 0 13.32-6.279 13.32-14.038v-.09c0-7.758-5.652-14.127-13.41-14.127Zm-72.79.763-8.296 18.163h16.55l-8.253-18.163Zm-50.69 11.901a2.798 2.798 0 1 1-5.47 1.181 2.798 2.798 0 0 1 5.47-1.18Zm-9.52-6.986-.043.003-.54.04-.64.056-.63.062-.311.034-.616.073c-.101.012-.203.025-.303.039l-.6.083-.238.036.084.314c.132.478.274.964.428 1.457l.19.595.098.3.205.604c.056.163.114.326.173.49a63.4 63.4 0 0 1 .966-1.556l.212-.33a64.005 64.005 0 0 1 1.564-2.3Z"/></svg>