<svg xmlns="http://www.w3.org/2000/svg" fill="none" aria-hidden="true" viewBox="0 0 250 47"><path fill="#0E0D0F" d="M242.173 30.888c0 1.02-.737 1.758-1.736 1.758-.995 0-1.736-.737-1.736-1.758 0-1.02.741-1.759 1.738-1.759.999 0 1.734.74 1.734 1.759Zm.306 0a2.054 2.054 0 0 0-.597-1.444 2.048 2.048 0 0 0-2.225-.444 2.045 2.045 0 0 0-1.262 1.886 2.043 2.043 0 0 0 4.084.002Z"/><path fill="#0E0D0F" d="M240.815 30.412c0 .3-.25.334-.492.334h-.214v-.67h.316c.286 0 .39.139.39.336Zm.507 1.519-.493-.694c-.067-.105-.15-.2-.246-.28.356-.045.559-.239.559-.545 0-.313-.219-.6-.645-.6h-.691v2.119h.303v-.947c.166 0 .23.052.332.205l.512.74h.369v.002ZM67.769 14.941l-3.868 9.032h7.77L67.77 14.94Zm11.833 17.993h-4.19l-2.29-5.447H62.448l-2.322 5.447h-4.062l9.933-22.732h3.672l9.933 22.732Zm36.595 0h-4V14.04h-7.159v-3.677h18.638l-1.537 3.677h-5.942v18.896ZM192.13 14.04h-12.088v5.74h7.742v3.55h-7.742v5.999h12.094v3.606H176.05V10.362h16.08v3.677Zm28.343 18.896h-3.783V10.363h3.783v22.572Z"/><path fill="#0E0D0F" d="M204.39 13.62c-2.306 0-4.266.698-4.276 2.228-.012 1.793 1.113 2.414 5.359 3.795 4.691 1.542 7.183 3.11 7.157 6.927-.024 4.302-3.349 6.754-8.204 6.754-3.437 0-6.518-1.113-8.868-3.18l1.463-3.54c2.132 1.786 4.715 3.053 7.507 3.065 2.443.012 4.182-1.179 4.182-2.937 0-1.473-.852-2.452-4.97-3.757-4.723-1.548-7.576-3.163-7.552-7.009.028-3.826 3.616-6.002 8.128-5.98 4.515.02 7.055 1.672 7.441 1.896l-1.419 3.217c-.919-.495-2.941-1.479-5.948-1.479Zm20.958 7.67 10.104-10.928h-4.841l-10.139 10.93 11.142 11.648h4.907l-11.173-11.65v-.002Zm-89.446 8.391c-4.436 0-7.673-3.595-7.673-8.03 0-4.436 3.237-8.033 7.673-8.033 4.435 0 7.676 3.597 7.676 8.033s-3.241 8.032-7.676 8.032v-.002Zm0-19.707a11.671 11.671 0 0 0-11.673 11.677 11.672 11.672 0 0 0 11.677 11.673 11.674 11.674 0 0 0 8.251-19.932 11.672 11.672 0 0 0-8.255-3.418Zm24.416 19.35-4.56.003V14.042h4.576c4.436 0 7.659 3.143 7.659 7.577 0 4.436-3.243 7.704-7.675 7.704Zm0-18.96h-8.564v22.572h8.564c6.444 0 11.669-4.872 11.669-11.317 0-6.448-5.225-11.255-11.669-11.255Zm-59.64 12.57c0 6.729-3.949 10.357-9.675 10.357-5.725 0-9.67-3.628-9.67-10.357V10.365h3.995v13.043c0 3.948 2.318 6.266 5.675 6.266 3.36 0 5.678-2.318 5.678-6.266V10.364h3.997v12.57Z"/><path fill="url(#a)" d="M15.185 42.969c-1.112 0-1.69-.42-2.244-1.394l-5.066-9.39c-.349-.672-.354-.897-.354-1.381l7.96.35 1.823 1.823h15.968L20.013 41.19c-.646.382-3.104 1.779-4.828 1.779Z"/><path fill="url(#b)" d="M17.311 32.977h-6.886c-2.08 0-2.904-1.088-2.904-2.173 0-.687.22-1.061.526-1.824L18.082 5.023l.108-.21.14-.215.288-.282.424-.227.614-.135 1.057.027 6.973 2.592-2.358 7.436-8.017 18.968Z"/><path fill="url(#c)" d="M37.53 42.967 21.69 5.47c-.272-.638-.71-1.462-1.842-1.462-1.012 0-1.493.49-1.766 1.017.141-.38.567-1.118 1.801-1.118h10.932c1.008 0 1.491.594 1.711 1.137l16.018 37.924H37.53Z"/><defs><linearGradient id="a" x1="10.705" x2="15.567" y1="37.05" y2="36.081" gradientUnits="userSpaceOnUse"><stop stop-color="#2B7A77"/><stop offset=".51" stop-color="#4EBAA9"/><stop offset="1" stop-color="#5CC2B1"/></linearGradient><linearGradient id="b" x1="22.738" x2="20.326" y1="7.131" y2="12.798" gradientUnits="userSpaceOnUse"><stop stop-color="#236736"/><stop offset=".493" stop-color="#6BA443"/><stop offset="1" stop-color="#86C146"/></linearGradient><linearGradient id="c" x1="25.175" x2="28.721" y1="4.634" y2="13.079" gradientUnits="userSpaceOnUse"><stop stop-color="#29A5E3"/><stop offset=".515" stop-color="#356EB9"/><stop offset="1" stop-color="#394DA5"/></linearGradient></defs></svg>