<svg xmlns="http://www.w3.org/2000/svg" fill="none" aria-hidden="true" viewBox="0 0 203 59"><path fill="#FF5800" d="M72.175 24.77c-1.134 0-2.182.087-3.229.349-.872.175-1.745.436-2.53.873l.261 3.141a11.836 11.836 0 0 1 2.531-.523c.785-.088 1.484-.175 2.269-.175 2.88 0 4.276 1.134 4.276 3.316v.698c-.96-.174-1.833-.262-2.793-.174-2.094-.088-4.188.436-5.933 1.658a5.512 5.512 0 0 0-2.182 4.624c0 4.015 2.792 6.022 8.29 6.022 2.356 0 4.712-.35 6.981-1.047V31.925c0-4.713-2.705-7.156-7.941-7.156Zm3.578 16.144c-.873.261-1.833.349-2.793.349-2.617 0-3.926-.96-3.926-2.793 0-1.832 1.396-2.967 4.275-2.967.786 0 1.571 0 2.356.175l.088 5.236Zm6.283-15.62h4.8l4.624 14.485 4.712-14.486h4.538l-7.155 18.762H89.19l-7.155-18.761ZM109 24.77c-1.134 0-2.182.087-3.229.349-.872.175-1.745.436-2.53.873l.349 3.141a11.836 11.836 0 0 1 2.53-.523c.786-.088 1.484-.175 2.269-.175 2.88 0 4.276 1.047 4.276 3.316v.698c-.96-.174-1.92-.174-2.792-.174-2.095-.088-4.189.436-5.934 1.658a5.514 5.514 0 0 0-2.182 4.624c0 4.015 2.793 6.022 8.29 6.022 2.356 0 4.712-.35 6.981-1.047V31.925c-.087-4.713-2.705-7.156-8.028-7.156Zm3.665 16.144c-.873.261-1.832.349-2.792.349-2.618 0-3.927-.96-3.927-2.793 0-1.832 1.396-2.967 4.276-2.967.785 0 1.57 0 2.356.175l.087 5.236Zm20.943-7.941c0-1.746-.349-2.88-.96-3.49-.61-.612-1.832-.96-3.49-.96-.524 0-.96.087-1.396.174-.524.087-1.048.174-1.571.349v15.096h-4.363V26.166c1.221-.436 2.53-.872 3.839-1.047 1.397-.262 2.793-.35 4.189-.35 5.498 0 8.203 2.444 8.203 7.418v11.868h-4.363l-.088-11.082Zm15.097-8.203c-1.135 0-2.182.087-3.229.349-.873.175-1.745.436-2.531.873l.349 3.141a11.845 11.845 0 0 1 2.531-.523c.785-.088 1.484-.175 2.269-.175 2.88 0 4.276 1.047 4.276 3.316v.698c-.96-.174-1.833-.174-2.793-.174-2.094-.088-4.188.436-5.933 1.658-1.397 1.134-2.269 2.792-2.182 4.624 0 4.015 2.792 6.022 8.29 6.022 2.356 0 4.712-.35 6.981-1.047V31.925c-.087-4.713-2.792-7.156-8.028-7.156Zm3.578 16.144c-.873.261-1.833.349-2.706.349-2.617 0-3.926-.96-3.926-2.793 0-1.832 1.396-2.967 4.275-2.967.786 0 1.571 0 2.357.175v5.236Zm20.594-22.864v7.156c-1.048-.261-2.095-.436-3.142-.349-2.618-.087-5.148.873-6.981 2.793a10.348 10.348 0 0 0-2.705 7.33c0 3.141.873 5.497 2.618 7.155 1.745 1.658 4.276 2.444 7.679 2.444 2.356 0 4.625-.35 6.894-1.047V18.05h-4.363Zm0 22.602a6.988 6.988 0 0 1-2.706.262c-3.752 0-5.584-2.007-5.584-6.109-.088-1.745.436-3.403 1.396-4.8a5.157 5.157 0 0 1 4.101-1.657c.96 0 1.92.174 2.793.436v11.868Zm24.608-6.982c.087-2.355-.611-4.711-2.182-6.457a7.122 7.122 0 0 0-5.846-2.356c-2.444-.087-4.8.873-6.458 2.705-1.571 1.833-2.356 4.276-2.356 7.33 0 3.055.873 5.498 2.531 7.156 1.658 1.658 4.101 2.53 7.243 2.53 2.007 0 4.014-.348 5.846-1.047l-.436-3.316a16.573 16.573 0 0 1-5.061.786c-3.665 0-5.585-1.658-5.673-4.974h12.305l.087-2.356Zm-12.304-.96c.087-1.22.523-2.443 1.309-3.402.698-.786 1.745-1.222 2.879-1.222 1.048 0 2.095.436 2.793 1.222.785.96 1.134 2.181 1.047 3.403h-8.028Z"/><path fill="url(#a)" d="M18.161 17.265a955.196 955.196 0 0 1-3.578 6.894c-.785 1.483-1.57 2.88-2.53 4.189a13.826 13.826 0 0 1-2.444 2.618 44.405 44.405 0 0 1-3.316 2.268L5.508 32.1c.785-.61 1.57-1.222 2.269-1.833.785-.785 1.57-1.657 2.181-2.53.96-1.396 1.833-2.88 2.705-4.363 1.048-1.746 2.27-4.189 3.753-7.243.872-1.92 1.92-3.665 3.054-5.41a17.048 17.048 0 0 1 2.792-3.316c.786-.699 1.658-1.31 2.618-1.658 1.571-.699 3.316-.699 4.887.087 1.047.523 1.92 1.309 2.618 2.181 1.222 1.484 2.269 3.055 3.229 4.713 1.221 2.007 2.617 4.712 4.188 8.115.873 1.833 1.833 3.665 2.967 5.41a18.756 18.756 0 0 0 2.793 3.578c.96.96 2.007 1.658 3.141 2.269a36.827 36.827 0 0 0 3.927 1.57l.96 1.572a22.436 22.436 0 0 1-4.8-1.048c-1.396-.523-2.792-1.309-3.926-2.269-1.31-1.221-2.531-2.53-3.491-4.014a53.795 53.795 0 0 1-3.49-6.195c-1.484-2.967-2.793-5.41-3.753-7.33a33.488 33.488 0 0 0-2.792-4.364c-.611-.872-1.31-1.57-2.182-2.094-.61-.349-1.221-.523-1.92-.61-.698 0-1.396.087-2.007.436a9.398 9.398 0 0 0-2.094 1.57 18.449 18.449 0 0 0-2.269 3.055c-.872 1.309-1.745 2.966-2.705 4.886Z"/><path fill="url(#b)" d="M40.239 36.201c2.181.088 4.363 0 6.457-.349 1.92-.261 3.84-.698 5.672-1.309l.262 1.135c-3.054 1.92-7.156 2.705-12.479 2.53-2.094-.087-4.188-.349-6.283-.872-1.57-.436-3.141-.96-4.625-1.658a30.907 30.907 0 0 1-2.966-1.396c-.873-.524-1.833-.96-2.793-1.397a17.08 17.08 0 0 0-2.967-1.047 19.673 19.673 0 0 0-3.141-.523c-1.746-.088-3.404.087-5.062.349-1.745.349-3.403.785-5.06 1.396l-.699-.873 1.396-.698a16.856 16.856 0 0 1 4.538-1.745 16.389 16.389 0 0 1 5.061-.524c1.222 0 2.444.175 3.578.524 1.047.262 2.094.698 3.054 1.134.96.437 1.92.96 2.967 1.484 1.047.523 2.007 1.047 3.054 1.483a36.96 36.96 0 0 0 4.363 1.571c1.746.436 3.665.698 5.673.785Z"/><path fill="url(#c)" d="M43.293 20.32c-.786 0-1.57.174-2.182.523a9.746 9.746 0 0 0-2.443 2.182c-1.135 1.396-2.269 2.88-3.229 4.363-1.222 1.832-2.792 4.188-4.538 7.155-2.443 3.927-4.799 6.807-6.893 8.552-1.833 1.658-4.189 2.53-6.632 2.53-2.444-.087-4.8-1.308-6.894-3.664-2.443-2.88-4.101-6.196-4.974-9.861l2.007.349c.873 2.88 2.356 5.585 4.276 7.941 1.745 2.007 3.578 2.967 5.497 3.054 2.007 0 4.014-.872 5.498-2.269 2.443-2.268 4.45-4.886 6.108-7.766 2.007-3.229 3.665-5.847 5.062-7.854 1.047-1.658 2.268-3.229 3.577-4.712.786-.96 1.746-1.658 2.88-2.269.873-.349 1.92-.523 2.88-.523 2.356.087 4.363 1.483 6.196 4.188 1.832 2.705 3.403 6.807 4.799 12.392l-2.094-.786c-.96-3.578-2.357-6.98-4.189-10.122-1.483-2.182-3.054-3.316-4.712-3.403Z"/><path fill="url(#d)" d="M35.44 51.56a5.49 5.49 0 0 0 3.228-1.047c1.57-1.31 2.88-2.706 4.014-4.364 1.222-1.658 2.269-2.967 3.141-4.101a41.757 41.757 0 0 1 2.356-2.88c.786-.872 1.484-1.57 2.182-2.356.698-.785 1.658-1.658 2.793-2.792l1.308.698c-1.047 1.134-1.92 2.181-2.617 2.967-.698.785-1.397 1.658-2.095 2.53-.698.873-1.396 1.833-2.269 2.88l-3.141 4.102c-1.309 1.832-2.88 3.49-4.625 4.973-1.309.96-2.792 1.397-4.45 1.397-.786 0-1.571-.175-2.357-.437a8.723 8.723 0 0 1-2.443-1.483c-1.134-.96-2.269-2.007-3.229-3.142-1.221-1.396-2.792-3.141-4.712-5.323a105.479 105.479 0 0 0-3.927-4.188c-1.047-1.047-2.269-1.92-3.49-2.705a13.675 13.675 0 0 0-3.665-1.571c-1.484-.436-2.967-.698-4.45-.873l.523-1.57c1.57.087 3.141.349 4.712.698 1.396.261 2.705.785 3.927 1.483 1.309.785 2.618 1.658 3.752 2.792a65.435 65.435 0 0 1 4.189 4.364 252.47 252.47 0 0 0 4.712 5.235c1.222 1.31 2.182 2.27 2.967 2.967.61.524 1.309 1.048 2.007 1.397.524.261 1.047.349 1.658.349Z"/><defs><linearGradient id="a" x1="4.844" x2="51.601" y1="44.586" y2="36.668" gradientUnits="userSpaceOnUse"><stop offset=".2" stop-color="#FF5800"/><stop offset=".24" stop-color="#FF7000"/><stop offset=".32" stop-color="#FF9500"/><stop offset=".4" stop-color="#FFB200"/><stop offset=".47" stop-color="#FFC600"/><stop offset=".55" stop-color="#FFD300"/><stop offset=".62" stop-color="gold"/><stop offset=".66" stop-color="#FFCE00"/><stop offset=".72" stop-color="#FFB600"/><stop offset=".81" stop-color="#FF8E00"/><stop offset=".9" stop-color="#FF5800"/></linearGradient><linearGradient id="b" x1="5.378" x2="54.444" y1="29.4" y2="29.4" gradientUnits="userSpaceOnUse"><stop offset=".09" stop-color="#FF5800"/><stop offset=".19" stop-color="#FF7907"/><stop offset=".31" stop-color="#FF990E"/><stop offset=".4" stop-color="#FFAD12"/><stop offset=".47" stop-color="#FFB414"/><stop offset=".53" stop-color="#FFAD12"/><stop offset=".62" stop-color="#FF980E"/><stop offset=".73" stop-color="#FF7707"/><stop offset=".82" stop-color="#FF5800"/></linearGradient><linearGradient id="c" x1="6.635" x2="55.495" y1="20.594" y2="26.54" gradientUnits="userSpaceOnUse"><stop offset=".5" stop-color="#FF5800"/><stop offset=".64" stop-color="#CE056A" stop-opacity=".99"/><stop offset=".76" stop-color="#CF0768" stop-opacity=".99"/><stop offset=".81" stop-color="#D20D60" stop-opacity=".99"/><stop offset=".85" stop-color="#D81753" stop-opacity=".99"/><stop offset=".88" stop-color="#E12541" stop-opacity=".99"/><stop offset=".91" stop-color="#EC3829"/><stop offset=".94" stop-color="#F94E0C"/><stop offset=".95" stop-color="#FF5800"/></linearGradient><linearGradient id="d" x1="7.091" x2="55.622" y1="33.601" y2="30.504" gradientUnits="userSpaceOnUse"><stop stop-color="#FF5800"/><stop offset=".06" stop-color="#FC5400"/><stop offset=".13" stop-color="#F54700"/><stop offset=".19" stop-color="#E83300"/><stop offset=".26" stop-color="#D61600"/><stop offset=".3" stop-color="#C80000"/><stop offset=".48" stop-color="#C80000"/><stop offset=".91" stop-color="#FF5800"/></linearGradient></defs></svg>