<svg xmlns="http://www.w3.org/2000/svg" fill="none" aria-hidden="true" viewBox="0 0 207 57"><g fill-rule="evenodd" clip-rule="evenodd"><path fill="#74BB11" d="M84.01 6.403c-.36-.763-1.13-1.219-2.061-1.219h-3.597c-1.045 0-1.826.42-2.237 1.178l-5.332 7.79 4.668 6.382 8.148-11.688c.894-1.087.585-2.07.41-2.443"/><path fill="#009CD9" d="m55.904 6.274-.005-.007c-.813-1.084-1.894-1.084-2.25-1.084h-3.518c-.901 0-1.64.415-2.025 1.136-.397.738-.313 1.626.236 2.448l13.034 18.068-14.988 20.904c-.523.786-.597 1.66-.201 2.398.388.72 1.126 1.134 2.026 1.134h3.596c.925 0 1.739-.48 2.145-1.236L70.73 26.918 55.903 6.274Z"/><path fill="#EB2084" d="m85.799 47.921-10.457-14.35-4.6 6.34 8.27 11.037.215.094a2.57 2.57 0 0 0 1.043.228h3.517c.85 0 1.571-.377 1.98-1.036.418-.676.43-1.518.032-2.313"/><path fill="#272727" d="M184.085 4.705c-8.057 0-12.608 1.556-15.222 5.2-2.73 3.808-3.279 9.818-3.279 18.283 0 16.616 2.571 23.562 18.501 23.562 1.913 0 8.453-.036 12.271-.502 1.486-.247 2.151-1.384 2.151-2.402V47.01c0-1.428-1.079-2.506-2.511-2.506h-11.912c-8.987 0-10.608-2.119-10.839-14.163v-3.9c.077-12.325 1.698-14.492 10.84-14.492 8.429 0 10.046 1.924 10.326 12.774h-13.394v7.326h17.617c3.47 0 3.47-2.427 3.47-3.224v-2.338c-.251-16.897-4.294-21.783-18.019-21.783Zm-23.198.646-.192-.05c-1.641-.346-6.124-.596-8.348-.596-7.866 0-12.024 3.294-12.024 9.525v34.695c0 1.428.999 2.426 2.431 2.426h2.798c1.433 0 2.432-.997 2.432-2.426V14.867c0-1.538.389-2.917 5.083-2.917l6.951-.006a2.361 2.361 0 0 0 1.83-.53c.546-.46.846-1.132.846-1.89V7.77c0-1.152-.659-2.033-1.807-2.418Zm-33.598-.087h-2.798c-1.431 0-2.432.997-2.432 2.426v36.815h-11.637c-7.199 0-10.12-.457-10.12-11.93V7.69c0-1.428-1-2.426-2.431-2.426h-2.72c-1.431 0-2.51 1.042-2.51 2.426v24.884c0 16.306 5.914 19.176 18.34 19.176 4.47 0 10.592 0 16.431-.822l.135-.027c1.442-.36 2.174-1.186 2.174-2.454V7.69c0-1.428-1.001-2.426-2.432-2.426ZM32.556 31.73v12.187c-3.561.547-8.99.668-10.84.668-8.183 0-9.08-2.236-9.08-6.985 0-4.444 1.663-5.87 6.842-5.87h13.078ZM21.316 4.704c-2.528 0-5.976.066-10.266.582l-.194.043c-1.25.356-1.883 1.177-1.883 2.44v1.755c0 1.496.931 2.426 2.43 2.426h9.914c7.982 0 11.239 2.162 11.239 7.463v5.152H19.478c-10.22 0-14.582 3.898-14.582 13.034 0 10.183 4.514 14.151 16.101 14.151 4.694 0 13.333-.365 16.527-1.339 2.692-.747 2.692-2.804 2.692-3.48V18.936c0-9.576-6.182-14.232-18.899-14.232Z"/></g></svg>