<svg xmlns="http://www.w3.org/2000/svg" fill="none" aria-hidden="true" viewBox="0 0 171 69"><path fill="#181D21" fill-rule="evenodd" d="m10.291 42.66 4.813-.802c1.203-.2 1.403-.802 1.403-1.403 0-1.404-1.002-2.607-3.409-2.607-2.406 0-3.61 1.403-3.81 3.208l-4.812-1.002c.4-3.209 3.208-6.618 8.622-6.618 6.217 0 8.623 3.61 8.623 7.62v9.826c0 .53.056 1.17.109 1.776.047.541.092 1.054.092 1.433h-4.813c-.2-.602-.2-1.605-.2-2.407-1.003 1.605-3.008 3.008-5.816 3.008-4.211 0-6.818-2.807-6.818-6.016 0-3.61 2.607-5.614 6.016-6.016Zm6.417 3.41v-.803l-4.412.602c-1.403.2-2.406 1.003-2.406 2.607 0 1.203.802 2.406 2.607 2.406 2.005-.2 4.21-1.404 4.21-4.813Z" clip-rule="evenodd"/><path fill="#181D21" d="m29.743 44.064-7.019-10.026h6.417c.433.72 1.903 2.894 2.992 4.505v.001l.002.002c.425.628.792 1.17 1.017 1.508l4.01-6.016h10.829l3.81 12.834 4.211-12.834h5.615l4.412 12.834 3.61-12.834h5.414L68.846 54.09h-5.414L58.82 40.455 54.208 54.09h-5.415l-6.169-19.278-6.464 9.05 7.219 10.228h-6.217l-4.21-6.217c-.803 1.003-3.41 5.014-4.011 6.217h-6.017l6.819-10.027Z"/><path fill="#181D21" fill-rule="evenodd" d="m80.477 42.66 4.813-.802c1.203-.2 1.403-.802 1.403-1.403 0-1.404-1.002-2.607-3.409-2.607-2.406 0-3.61 1.403-3.81 3.208l-4.812-1.002c.4-3.209 3.208-6.618 8.622-6.618 6.217 0 8.623 3.61 8.623 7.62v9.826c0 .53.056 1.17.109 1.775.047.542.092 1.055.092 1.434h-5.013c-.2-.602-.2-1.605-.2-2.407-1.004 1.605-3.009 3.008-5.816 3.008-4.211 0-6.818-2.807-6.818-6.016.2-3.61 2.807-5.614 6.216-6.016Zm6.417 3.41v-.803l-4.412.602c-1.403.2-2.406 1.003-2.406 2.607 0 1.203.802 2.406 2.607 2.406 2.005-.2 4.211-1.404 4.211-4.813Z" clip-rule="evenodd"/><path fill="#181D21" d="M100.129 51.484 95.517 61.91h5.615l12.633-27.873h-5.815l-4.813 11.83-5.414-11.83h-6.016l8.422 17.446Z"/><path fill="#D22630" d="M166.725 26.742v-6.818l-10.227-5.013v10.227l-39.104-18.65v6.819l44.719 21.256V24.536l4.612 2.206ZM127.4 31.631v6.818l7.22 3.41-11.631 12.232h7.62l13.636-14.438L127.4 31.63Zm-4.612-12.433 39.304 18.85-8.021 3.008-31.283-15.04v-6.818Z"/></svg>