<svg xmlns="http://www.w3.org/2000/svg" fill="none" aria-hidden="true" viewBox="0 0 238 51"><path fill="#002A41" d="M50.589 14.859h6.013c2.71 0 4.699.46 5.968 1.38 1.27.92 1.905 2.309 1.905 4.168 0 1.27-.387 2.327-1.162 3.172-.775.845-1.907 1.387-3.397 1.627v.09c1.75.26 3.037.812 3.862 1.657.824.845 1.237 2.022 1.237 3.531 0 2.02-.67 3.574-2.01 4.664-1.34 1.09-3.239 1.635-5.698 1.635h-6.718V14.859Zm1.53 9.762h4.828c2.06 0 3.556-.342 4.491-1.027.935-.685 1.402-1.757 1.402-3.217 0-1.46-.527-2.52-1.582-3.179-1.054-.66-2.627-.99-4.716-.99h-4.424v8.413Zm0 1.35v9.462h5.158c4.059 0 6.088-1.65 6.088-4.949 0-3.009-2.14-4.513-6.418-4.513h-4.829ZM80.4 29.045h-8.907l-3.06 7.738H66.74l8.818-22.014h.975l8.637 22.014h-1.724L80.4 29.045Zm-8.352-1.38h7.843l-2.985-7.903c-.25-.62-.55-1.48-.9-2.579-.27.96-.564 1.83-.884 2.61l-3.074 7.872Zm25.568-11.742c-2.75 0-4.914.88-6.493 2.64-1.58 1.76-2.37 4.169-2.37 7.228 0 3.129.745 5.558 2.235 7.288 1.49 1.73 3.619 2.594 6.388 2.594 1.84 0 3.529-.235 5.068-.705v1.35c-1.449.51-3.259.765-5.428.765-3.08 0-5.504-.995-7.273-2.985-1.77-1.99-2.654-4.768-2.654-8.337 0-2.23.422-4.194 1.267-5.894.845-1.7 2.06-3.011 3.644-3.936 1.584-.925 3.426-1.387 5.526-1.387 2.14 0 4.054.4 5.743 1.2l-.615 1.38a11.12 11.12 0 0 0-5.038-1.2Zm24.458 20.86H120.2l-8.413-11.577-2.924 2.58v8.997h-1.53V14.859h1.53v11.397l2.429-2.43 8.593-8.967h1.949l-8.982 9.267 9.222 12.657Zm3.134-21.924h6.013c2.71 0 4.699.46 5.969 1.38 1.269.92 1.904 2.309 1.904 4.168 0 1.27-.387 2.327-1.162 3.172-.775.845-1.907 1.387-3.396 1.627v.09c1.749.26 3.036.812 3.861 1.657.825.845 1.237 2.022 1.237 3.531 0 2.02-.67 3.574-2.009 4.664-1.34 1.09-3.239 1.635-5.699 1.635h-6.718V14.859Zm1.53 9.762h4.828c2.06 0 3.557-.342 4.492-1.027.934-.685 1.402-1.757 1.402-3.217 0-1.46-.528-2.52-1.582-3.179-1.055-.66-2.627-.99-4.717-.99h-4.423v8.413Zm0 1.35v9.462h5.158c4.059 0 6.089-1.65 6.089-4.949 0-3.009-2.14-4.513-6.419-4.513h-4.828Zm36.155-.181c0 3.48-.87 6.231-2.61 8.256-1.739 2.024-4.138 3.037-7.198 3.037-3.049 0-5.443-1.013-7.183-3.037-1.739-2.025-2.609-4.786-2.609-8.285 0-3.49.877-6.236 2.632-8.24 1.754-2.005 4.151-3.007 7.19-3.007 3.06 0 5.454 1.007 7.183 3.021 1.73 2.015 2.595 4.767 2.595 8.256Zm-17.935 0c0 3.14.699 5.567 2.099 7.281 1.4 1.715 3.409 2.572 6.028 2.572 2.64 0 4.657-.85 6.051-2.55 1.395-1.699 2.092-4.133 2.092-7.302 0-3.16-.697-5.581-2.092-7.266-1.394-1.684-3.401-2.527-6.021-2.527-2.609 0-4.621.85-6.035 2.55-1.415 1.7-2.122 4.114-2.122 7.243Zm38.899 10.993h-1.545l-12.986-19.465h-.12c.12 2.32.18 4.069.18 5.248v14.217h-1.47V14.859h1.53l12.971 19.434h.09c-.09-1.8-.135-3.509-.135-5.128V14.859h1.485v21.924Zm18.175 0H190.05V14.859h11.982v1.41H191.58v8.292h9.867v1.41h-9.867v9.402h10.452v1.41Zm4.319-1.17c0-.98.4-1.47 1.199-1.47.82 0 1.23.49 1.23 1.47s-.41 1.47-1.23 1.47c-.799 0-1.199-.49-1.199-1.47Zm4.393 6.703c-.919 0-1.674-.135-2.264-.405v-1.32c.78.2 1.525.3 2.234.3 2.42 0 3.629-1.32 3.629-3.958V14.859h1.53v21.924c0 3.689-1.709 5.533-5.129 5.533Zm23.319-11.186c0 1.829-.672 3.278-2.017 4.348-1.345 1.07-3.132 1.605-5.361 1.605-2.679 0-4.734-.295-6.163-.885v-1.53c1.579.67 3.594 1.005 6.043 1.005 1.8 0 3.227-.413 4.281-1.237 1.055-.825 1.583-1.907 1.583-3.247 0-.83-.175-1.517-.525-2.062-.35-.545-.92-1.042-1.71-1.492-.79-.45-1.949-.935-3.479-1.455-2.239-.77-3.786-1.602-4.641-2.496-.855-.895-1.282-2.087-1.282-3.577 0-1.64.642-2.976 1.927-4.011 1.284-1.035 2.936-1.552 4.956-1.552 2.059 0 3.994.39 5.803 1.17l-.555 1.32c-1.819-.76-3.559-1.14-5.218-1.14-1.62 0-2.909.374-3.869 1.124-.96.75-1.44 1.77-1.44 3.06 0 .809.148 1.474.443 1.994.295.52.777.987 1.447 1.402.67.415 1.819.912 3.449 1.492 1.709.59 2.994 1.162 3.854 1.717.859.555 1.487 1.185 1.882 1.89.395.704.592 1.556.592 2.556ZM3.937 5.008V27.2l16.518 9.416v-6.4l-11.05-6.3v-9.894l11.05 6.299v-5.897L3.937 5.008Z"/><path fill="#0071B5" d="M36.974 5.008V27.2l-16.519 9.416v-6.4l11.05-6.3v-9.894l-11.05 6.299v-5.897l16.519-9.416Z"/><path fill="#0071B5" d="M3.937 46.042V23.85l16.518-9.417v6.401l-11.05 6.3v9.39l11.05-6.299v6.4L3.937 46.043Z"/><path fill="#002A41" d="M36.974 46.042V23.85l-16.519-9.417v6.401l11.05 6.3v9.39l-11.05-6.299v6.4l16.519 9.417Z"/></svg>