<svg xmlns="http://www.w3.org/2000/svg" fill="none" aria-hidden="true" viewBox="0 0 242 50"><path fill="#053EFF" fill-rule="evenodd" d="M35.85 5.14c-1.562-.339-3.271-.503-5.164-.503H12.021v39.591h19.188c1.774 0 3.506-.223 5.175-.666 1.687-.444 3.193-1.124 4.504-2.053a10.1 10.1 0 0 0 3.131-3.586c.767-1.454 1.152-3.181 1.152-5.19 0-2.476-.588-4.59-1.79-6.354-1.197-1.753-3.001-2.987-5.438-3.688 1.789-.846 3.128-1.936 4.04-3.265.904-1.33 1.357-2.995 1.357-4.988 0-1.843-.304-3.4-.907-4.646-.618-1.262-1.48-2.265-2.584-3.018-1.12-.755-2.446-1.305-3.999-1.635Zm-3.366 32.097a11.22 11.22 0 0 1-2.444.248h-9.303V26.584h9.477c1.876 0 3.402.432 4.546 1.3 1.141.879 1.715 2.328 1.715 4.368 0 1.042-.168 1.903-.52 2.566a4.193 4.193 0 0 1-1.417 1.58c-.584.4-1.275.67-2.054.84Zm.91-17.715c-1.014.744-2.291 1.111-3.835 1.111h-8.822v-9.252h8.156c.77 0 1.524.054 2.241.196a5.414 5.414 0 0 1 1.92.694 3.594 3.594 0 0 1 1.342 1.377c.325.591.487 1.353.487 2.274 0 1.66-.487 2.87-1.49 3.6ZM62.69 39.085c-2.209 0-3.914-.58-5.092-1.732-1.184-1.151-1.95-3.297-1.95-5.562h20.686c.149-2.225-.033-4.35-.547-6.383-.52-2.036-1.352-3.852-2.52-5.441a12.693 12.693 0 0 0-4.471-3.797c-1.82-.952-3.945-1.418-6.37-1.418-2.196 0-4.179.39-5.979 1.166a14.228 14.228 0 0 0-4.645 3.197c-1.299 1.344-2.286 2.946-3.002 4.803-.7 1.85-1.058 3.853-1.058 5.997 0 2.217.345 4.263 1.03 6.11.691 1.857 1.66 3.439 2.91 4.777 1.282 1.332 2.807 2.354 4.63 3.083 1.824.719 3.856 1.086 6.114 1.086 3.24 0 6.021-.743 8.3-2.233 2.308-1.482 4-3.946 5.113-7.396h-6.933c-.27.887-.964 1.742-2.105 2.54-1.151.802-2.524 1.203-4.112 1.203Zm-.5-18.389c1.934 0 3.518.56 4.455 1.597.94 1.043 1.626 2.527 1.814 4.535H55.648c.037-.559.158-1.192.359-1.89a5.653 5.653 0 0 1 1.057-2.018c.51-.624 1.178-1.155 1.993-1.58.833-.432 1.875-.644 3.133-.644Z" clip-rule="evenodd"/><path fill="#053EFF" d="M87.517 4.637v14.929h.18c1-1.662 2.265-2.869 3.82-3.617 1.55-.755 3.064-1.128 4.54-1.128 2.102 0 3.825.277 5.171.846 1.347.58 2.413 1.365 3.193 2.386.765 1.017 1.306 2.257 1.623 3.718.312 1.458.473 3.067.473 4.84v17.617h-7.913V28.041c0-2.36-.368-4.134-1.102-5.294C96.767 21.585 95.462 21 93.58 21c-2.129 0-3.668.645-4.621 1.918-.971 1.274-1.442 3.37-1.442 6.286v15.023h-7.909V4.638h7.91Z"/><path fill="#053EFF" fill-rule="evenodd" d="M115.228 16.811a9.298 9.298 0 0 0-3.09 2.945c-.827 1.22-1.284 2.755-1.399 4.614h7.899c.158-1.557.669-2.673 1.557-3.35.865-.66 2.084-1.002 3.625-1.002.693 0 1.343.05 1.956.138a4.387 4.387 0 0 1 1.59.561c.453.28.823.663 1.096 1.16.273.506.423 1.182.423 2.03.034.821-.211 1.438-.72 1.861-.519.423-1.225.757-2.108.976-.894.226-1.896.386-3.052.5a65.765 65.765 0 0 0-3.494.443c-1.168.182-2.346.44-3.507.753-1.171.31-2.205.785-3.106 1.416-.915.627-1.647 1.473-2.211 2.526-.579 1.052-.872 2.396-.872 4.029 0 1.479.255 2.76.752 3.836a7.298 7.298 0 0 0 2.073 2.667c.885.7 1.924 1.216 3.094 1.55a14.02 14.02 0 0 0 3.818.507c1.777 0 3.507-.26 5.205-.773 1.71-.52 3.179-1.431 4.432-2.727.036.482.1.953.193 1.41.092.468.288 1.004.524 1.347l8.043.02c-.382-.587-.787-1.481-.943-2.673a31.93 31.93 0 0 1-.217-3.715V22.92c0-1.744-.395-3.152-1.175-4.19-.77-1.066-1.764-1.883-2.983-2.48-1.221-.593-2.566-.992-4.038-1.194a32.256 32.256 0 0 0-4.384-.304c-1.596 0-3.169.152-4.741.475-1.579.314-2.983.839-4.24 1.584Zm10.816 14.518a15.195 15.195 0 0 0 1.592-.418 3.448 3.448 0 0 0 1.249-.7v2.945c0 .446-.047 1.042-.15 1.78-.08.733-.325 1.461-.731 2.183-.399.721-1.036 1.34-1.882 1.86-.851.515-2.045.772-3.593.772a9.328 9.328 0 0 1-1.822-.16 4.438 4.438 0 0 1-1.547-.583 2.941 2.941 0 0 1-1.047-1.135c-.252-.485-.388-1.076-.388-1.777 0-.733.136-1.354.388-1.832a3.6 3.6 0 0 1 1.027-1.19 5.004 5.004 0 0 1 1.484-.748 14.01 14.01 0 0 1 1.739-.448 33.458 33.458 0 0 1 1.875-.272 29.087 29.087 0 0 0 1.806-.277Z" clip-rule="evenodd"/><path fill="#053EFF" d="M148.598 15.57v3.996h.176c.997-1.662 2.282-2.869 3.879-3.617 1.583-.755 3.223-1.128 4.886-1.128 2.112 0 3.845.277 5.185.846 1.363.58 2.423 1.365 3.191 2.386.788 1.017 1.329 2.257 1.645 3.718.319 1.458.477 3.067.477 4.84v17.617h-7.916V28.041c0-2.36-.371-4.134-1.109-5.294-.749-1.162-2.04-1.908-3.936-1.908-2.142 0-3.703.807-4.662 2.08-.965 1.274-1.443 3.37-1.443 6.286v15.023h-7.829V15.57h7.456Zm33.808 5.986c.84-.58 1.885-.86 3.151-.86 3.366 0 5.305 1.633 5.816 4.904h7.721c-.122-1.839-.561-3.447-1.329-4.79a10.877 10.877 0 0 0-3.031-3.372c-1.235-.91-2.644-1.587-4.21-2.026a18.61 18.61 0 0 0-4.915-.66c-2.326 0-4.397.39-6.21 1.166-1.821.78-3.36 1.862-4.618 3.254-1.271 1.383-2.224 3.032-2.869 4.935-.648 1.911-.974 3.978-.974 6.197 0 2.142.352 4.116 1.051 5.914.715 1.795 1.693 3.34 2.952 4.638 1.26 1.296 2.789 2.3 4.59 3.03 1.804.718 3.76 1.085 5.913 1.085 3.809 0 6.938-1.01 9.381-2.998 2.434-2.002 3.913-4.907 4.435-8.709h-7.604c-.265 1.774-.892 3.19-1.905 4.244-1.018 1.048-2.47 1.577-4.366 1.577-1.222 0-2.252-.278-3.098-.836a6.397 6.397 0 0 1-2.031-2.133c-.499-.881-.853-1.848-1.083-2.918a16.169 16.169 0 0 1-.335-3.17c0-1.077.12-2.16.335-3.252.23-1.095.602-2.095 1.138-2.998a6.816 6.816 0 0 1 2.095-2.222ZM54.038 7.294h16.048V11.2H54.038V7.294Z"/><path fill="#053EFF" fill-rule="evenodd" d="M216.293 39.085c-2.225 0-4.011-.58-5.195-1.732-1.186-1.151-1.942-3.297-1.942-5.562h20.776a20.603 20.603 0 0 0-.557-6.383c-.516-2.036-1.356-3.852-2.524-5.441-1.161-1.59-2.655-2.86-4.474-3.797-1.803-.952-3.936-1.418-6.358-1.418-2.184 0-4.184.39-5.985 1.166a14.288 14.288 0 0 0-4.633 3.197c-1.292 1.344-2.3 2.946-3.01 4.803-.701 1.85-1.052 3.853-1.052 5.997 0 2.217.339 4.263 1.023 6.11.689 1.857 1.657 3.439 2.92 4.777 1.276 1.332 2.802 2.354 4.623 3.083 1.81.719 3.85 1.086 6.114 1.086 3.252 0 6.021-.743 8.309-2.233 2.292-1.482 3.994-3.946 5.102-7.396h-6.933c-.253.887-.962 1.742-2.106 2.54-1.144.802-2.514 1.203-4.098 1.203Zm-.504-18.389c1.909 0 3.506.56 4.454 1.597.94 1.043 1.61 2.527 1.821 4.535h-12.908c.035-.559.165-1.192.352-1.89.209-.715.568-1.384 1.069-2.018.5-.624 1.246-1.155 2.062-1.58.848-.432 1.893-.644 3.15-.644Z" clip-rule="evenodd"/></svg>