<svg xmlns="http://www.w3.org/2000/svg" fill="none" aria-hidden="true" viewBox="0 0 118 100"><path fill="#00ACEC" d="M41.952 49.102a2.579 2.579 0 1 1 5.157.005 2.579 2.579 0 0 1-5.157-.005Zm4.749 0a2.086 2.086 0 0 0-2.161-2.161c-1.263 0-2.173.904-2.173 2.161 0 1.268.908 2.173 2.173 2.173 1.253 0 2.161-.905 2.161-2.173Zm-2.752 1.461h-.378v-2.95h1.268c.77 0 1.03.287 1.03.815 0 .567-.396.78-.911.824l.876 1.311h-.424l-.83-1.311h-.631v1.311Zm.522-1.654c.412 0 .985.07.985-.484 0-.412-.343-.467-.7-.467h-.807v.954h.522v-.003Zm-8.084 2.568V38.6h12.876V18.013H36.387V5.139H15.87v12.874H2.995V38.6H15.87v12.877h20.516Z"/><path fill="#fff" fill-rule="evenodd" d="M26.166 17.244c1.479.026 1.933 1.71 1.276 2.581-.603.778-.718 1.009-.686 1.738.026.617.596 1.372 1.884 1.398h9.055a12.723 12.723 0 0 0-11.527-7.337v.002a12.721 12.721 0 0 0-11.527 7.338h9.051c1.289-.026 1.86-.784 1.885-1.4.032-.73-.084-.96-.686-1.739-.657-.872-.203-2.555 1.275-2.581Zm3.045.576c.646 1.077.121 2.475-.487 3.135-.115.121-.058.24.043.27h5.724a10.95 10.95 0 0 0-5.28-3.405Zm-6.086 0c-.649 1.077-.124 2.475.487 3.138.112.118.057.236-.046.268h-5.72a10.928 10.928 0 0 1 5.279-3.406Z" clip-rule="evenodd"/><path fill="#fff" d="m38.072 23.863-.002-.006.002.006Z"/><path fill="#fff" fill-rule="evenodd" d="m38.072 23.863-8.535.821c-1.6.222-1.79 1.775-1.36 2.709L34.02 38.37l-.009-.017a12.692 12.692 0 0 0 4.87-10.012c0-1.574-.287-3.085-.81-4.478Zm-7.726 2.472 6.462-.596c.201.836.308 1.706.308 2.602 0 2.73-.994 5.222-2.64 7.139l-4.524-8.643c-.11-.268-.072-.467.394-.502ZM14.26 23.863l8.536.821c1.6.222 1.79 1.775 1.36 2.709l-5.844 10.98.006-.017a12.7 12.7 0 0 1-4.87-10.012c0-1.576.288-3.09.812-4.484v.003Zm1.268 1.876 6.458.596c.467.035.502.237.395.502L17.86 35.48a10.905 10.905 0 0 1-2.643-7.139c0-.896.106-1.766.311-2.602Z" clip-rule="evenodd"/><path fill="#fff" d="M26.168 41.065c2.585 0 4.986-.77 6.994-2.096v.01L26.96 29.71c-.435-.597-1.13-.646-1.588 0l-6.201 9.268v-.009a12.655 12.655 0 0 0 6.997 2.096Z"/><path fill="#00ACEC" d="M25.986 31.805c.101-.13.24-.138.36 0l4.277 6.545a10.932 10.932 0 0 1-4.458.945 10.912 10.912 0 0 1-4.458-.945l4.28-6.545c.118-.138.259-.13.36 0Z"/><path fill="#00ACEC" fill-rule="evenodd" d="M87.509 47.67a2.578 2.578 0 1 0 4.284 2.869 2.578 2.578 0 0 0-4.284-2.869Zm2.208 1.24c.394.007.86.014.86-.485 0-.412-.343-.467-.7-.467h-.81v.954h.525v-.003l.125.001Zm1.962-.648c.105.267.154.553.143.84a2.095 2.095 0 0 1-2.164 2.173c-1.262 0-2.17-.905-2.17-2.173a2.088 2.088 0 0 1 2.17-2.161 2.086 2.086 0 0 1 2.02 1.32Zm-2.612 2.301h-.374v-2.95h1.267c.77 0 1.03.287 1.03.815 0 .567-.395.78-.911.824l.876 1.311h-.424l-.83-1.311h-.634v1.311Z" clip-rule="evenodd"/><path fill="#00ACEC" d="M74.9 51.978c8.896-4.913 14.285-12.738 17.063-21.326 2.882-8.907 2.355-19.544-.98-26.115-5.08 2.562-10.14 3.94-16.083 3.957-5.94.017-11.006-1.42-16.084-3.983-3.337 6.568-3.858 17.234-.977 26.141 2.779 8.588 8.17 16.413 17.061 21.326Z"/><path fill="#fff" d="M76.326 16.237c.17.123.179.162.23.397l.007.027c.061.295.032.658.006.994-.025.312-.047.6.005.787.058.127.185.124.28.07.363-.196.671-.456.976-.713.354-.298.702-.592 1.125-.775.374-.158 1.435.375 1.196 1.147-.089.285-.16.345-.305.463-.04.033-.084.07-.136.116-.21.192-.448.385-.702.592-.347.283-.725.59-1.1.947-.13.125-.258.233-.382.338-.269.227-.518.437-.721.76-.064.11-.22.407-.22.407-.58-.12-1.167-.181-1.718-.238-.49-.051-.953-.099-1.353-.183l-.043-.934s1.097-.011 1.21-.674c.006-.035-.02-.234-.147-.326a2.61 2.61 0 0 0-.553-.262c.83.13 1.565.438 2.418.813.054-.093-.087-.412-.15-.482-.116-.135-.254-.233-.55-.302-.52-.133-1.776-.288-1.776-.288l1.06-.044c.266-.043.54-.147.6-.239.075-.17-.13-.414-.345-.671-.072-.087-.147-.175-.211-.263a3.393 3.393 0 0 1-.127-.193c-.107-.17-.236-.377-.395-.521-.276-.332-1.118-.646-1.118-.646s-.07-.565.07-.839c.1-.204.55-.224.694-.155.628.357 1.337.743 2.175.89Zm-.521 22.741c.004-.086-.017-.113-.05-.156a.657.657 0 0 1-.034-.046 2.922 2.922 0 0 0-.579-.455c-.24-.138-.755-.3-.755-.3s.08 3.427.144 5.251c.014.412.182.553.582.545.47-.012.568-.205.57-.459.005-.225.02-.742.04-1.367v-.002c.029-.971.066-2.203.082-3.01Zm.207-9.671.096-3.499s-.5-.21-1.228-.256c-.96-.061-1.358-.104-1.358-.104l.015.3s-.516.126-.588.25a.305.305 0 0 1-.018.03c-.038.056-.093.14.004.316l.164.298c.413.742.675 1.214.887 2.336.732.095 1.245.179 2.026.329Z"/><path fill="#fff" d="M73.249 31.589c-1.678-.274-2.865-1.242-2.764-2.844.061-.95.951-1.318 1.704-1.63.098-.04.194-.08.284-.12.222.392.42.796.594 1.21.15.439.234.715.234.715s-.36.064-.329.36c.029.263.317.375.496.398l.442.061c1.099.151 2.393.329 3.12.582.55.187 1.092.499 1.403.925.467.643.574 1.167.42 1.83-.132.568-.5 1.026-1.094 1.383-.629.378-1.277.407-1.277.407l.052-1.922s.141-.032.245-.162c.095-.115.124-.202.095-.369a.466.466 0 0 0-.274-.331c-.315-.072-.88-.149-1.731-.266-.456-.063-.994-.137-1.62-.227Z"/><path fill="#fff" d="m75.854 35.756.06-3.176c-.356-.044-.602-.07-.878-.1a58.87 58.87 0 0 1-.82-.09l.168 2.617 1.47.75Z"/><path fill="#fff" d="M73.14 36.978c-1.17-.51-1.592-1.53-1.119-2.648.175-.407.637-.688.888-.842l.005-.003c.277-.164.69-.288.69-.288l.12 1.588s-.153.055-.196.196c-.086.28.167.435.23.464l.52.225c.699.301 1.529.658 2.172 1.037 1.052.617 1.392 1.064 1.398 1.801a1.706 1.706 0 0 1-.668 1.412c-.418.34-.917.462-.917.462l.055-1.358s.153-.13.11-.302c-.073-.274-1.035-.92-1.554-1.119a20.612 20.612 0 0 0-.732-.258c-.353-.12-.71-.242-1.003-.367Z"/><path fill="#fff" fill-rule="evenodd" d="M79.943 25.03c-.161-.836-1.014-1.623-1.763-2.009-1.12-.576-2.301-.7-3.481-.825-.872-.091-1.744-.183-2.592-.457-.57-.188-1.256-.456-1.412-1.107-.1-.415-.095-.824.205-1.003.287-.169.529-.06.851.085.19.085.406.182.676.244.461.11.96.098 1.32-.012l.063-.018c.151-.044.327-.095.35-.2 0-.097-.16-.163-.275-.211-.033-.014-.062-.026-.083-.037a1.526 1.526 0 0 0-.37-.122 2.2 2.2 0 0 1-.293-.083c-.286-.11-.585-.284-.88-.457h-.001c-.118-.07-.236-.139-.352-.203.38-.08 1.02-.098 1.403-.052.306.032 1.245.023 1.528-.052.06-.017.201-.069.14-.176a.848.848 0 0 0-.223-.231 1.046 1.046 0 0 1-.197-.19l-.097-.134c-.237-.328-.466-.647-.857-.796-1.28-.49-2.706-.614-3.977.046a3.671 3.671 0 0 0-1.585 4.787c.689 1.412 2.006 2.132 3.56 2.527.757.193 1.414.303 2.238.392l.576.058c.72.069 1.395.134 2.119.317.196.049.527.19.62.389.164.357.066.78-.372.96a76.363 76.363 0 0 1-.113 2.46s3.934-.409 3.274-3.89Zm-6.213-7.473a.596.596 0 0 0-.26-.034c-.034.024-.066.049-.096.072-.118.09-.218.167-.362.19-.223.038-.287-.07-.363-.199a.667.667 0 0 0-.193-.23c-.059-.042-.116-.047-.173-.052-.089-.008-.175-.015-.256-.167l.069.001c.522.014 1.262.033 1.634.42Z" clip-rule="evenodd"/><path fill="#fff" d="m73.482 40.11-.01.011c-.21.209-.637.636-.555 1.517.052.504.154.7.314 1.004l.058.111c.141.268.369.384.455.012.023-.099-.002-.193-.033-.307a1.37 1.37 0 0 1-.05-.601c.072-.481.32-.576.32-.576l-.07-1.499c-.157.09-.302.2-.429.329Z"/><path fill="#fff" fill-rule="evenodd" d="M74.9 47.993c7.314-4.533 11.214-11.026 13.709-18.358 2.216-6.513 2.758-14.13.32-20.078-3.657 1.257-5.801 1.646-7.79 1.957-1.856.288-3.513.464-6.227.502h-.02a40.834 40.834 0 0 1-6.228-.502c-1.989-.308-4.136-.7-7.793-1.957-2.438 5.945-1.896 13.565.323 20.078C63.69 36.967 67.588 43.46 74.9 47.993Zm-.006-1.796.006-.004.006.004h-.012Zm.006-.004c4.95-3.117 10.56-10.178 12.798-19.471 1.196-4.934 1.525-10.476-.026-14.874-2.219.591-4.285 1.081-6.423 1.37-2.139.287-4.257.495-6.34.51h-.018a50.768 50.768 0 0 1-6.337-.51c-2.141-.289-4.21-.779-6.426-1.37-1.55 4.398-1.22 9.94-.026 14.874 2.24 9.293 7.851 16.357 12.798 19.471Z" clip-rule="evenodd"/><path fill="#fff" d="m74.9 47.993.009.005h-.018l.009-.005Z"/><path fill="#000" d="M13.741 64.465h7.487c.755.017 1.588.055 2.363.398 1.438.697 1.473 2.115 1.473 2.418a2.76 2.76 0 0 1-.813 2.003c-.887.925-2.06 1.06-2.91 1.152.925.038 2.42.116 3.573 1.286.453.435 1 1.21 1 2.44 0 .868-.282 1.776-1 2.493-1.08 1.075-2.44 1.116-3.614 1.153h-7.559v-.493h1.833V64.952h-1.833v-.487Zm4.839.565-.037 5.161h1.247c.833 0 1.496-.265 1.758-.605.32-.377.49-1.003.49-1.983 0-2.138-.66-2.533-2.115-2.573H18.58Zm-.037 5.706.037 6.522h1.438c.66-.035 1.36-.093 1.965-.678.779-.792.779-2.155.779-2.628 0-1.455-.32-2.227-.908-2.683-.435-.34-1.19-.547-2.343-.533h-.968Zm10.466-6.27c.888-.021 1.153-.021 1.983-.076v12.928h1.303v.493h-5.52v-.493h1.419V64.955h-1.418v-.49h2.233Zm5.173 4.192c.986-.017 1.286-.017 2.213-.072l-.037 5.992c0 .717.038 1.265.19 1.642.245.588.755.853 1.38.853a1.98 1.98 0 0 0 1.381-.547c.735-.738.72-1.72.72-2.554l-.04-4.821h-1.403v-.493s2.723-.017 4.141-.072v8.712h1.36v.513H42.65a32.46 32.46 0 0 0-2.55.075l-.06-1.458c-.396.493-1.32 1.588-3.459 1.588-1.398 0-2.288-.528-2.648-1.248-.283-.53-.263-1.21-.263-1.778l-.04-5.839h-1.38v-.493h1.933Zm19.47 6.505c-.49.925-1.51 2.853-4.369 2.853-2.93 0-4.726-2.248-4.726-4.874 0-2.516 1.703-4.743 4.743-4.743 1.891 0 2.931.813 3.384 1.282 1.04 1.078 1.078 2.213 1.098 3.026h-6.314c.02 1.605.057 3.06.85 3.897.432.452 1.057.642 1.68.642 2.04 0 2.818-1.72 3.083-2.325l.571.242Zm-2.76-3.023c.016-1.476.034-3.217-1.667-3.217-1.608 0-1.683 1.608-1.737 3.216h3.403Zm16.348 4.723c-1.398.51-3.138 1.135-5.314 1.135-3.894 0-6.784-2.798-6.784-6.882 0-4.403 3.326-6.956 7.09-6.956 1.152 0 2.93.265 4.933 1.135v3.764h-.588c-.092-.72-.242-1.89-1.395-3.046a3.936 3.936 0 0 0-2.8-1.21c-1 0-2.004.417-2.666 1.077-.946.945-1.36 2.458-1.36 5.22 0 2.665.32 4.31 1.302 5.31a3.433 3.433 0 0 0 2.458 1.023c1 0 2.19-.4 3.156-1.417 1.135-1.173 1.268-2.176 1.343-2.894h.625v3.74Zm5.216.455h1.398v.493h-5.54v-.493h1.381v-8.167h-1.38v-.493s2.986-.017 4.063-.072l.038 1.853a2.55 2.55 0 0 1 .683-1.19 2.431 2.431 0 0 1 1.737-.758c1.21 0 1.721.963 1.721 1.816 0 1.15-.755 1.343-1.17 1.343-.187 0-1.173-.096-1.173-1.248 0-.095.06-.568.06-.66 0-.4-.285-.4-.34-.4-.247 0-.587.302-.832.68-.626 1.002-.663 2.475-.683 3.518l.037 3.778Zm14.265-4.049c0 2.989-2.38 4.744-4.93 4.744-2.779 0-4.805-2-4.805-4.819 0-2.968 2.156-4.743 4.764-4.784 3.064-.054 4.971 2.118 4.971 4.86Zm-6.861-.45c0 2.966.19 4.67 2.005 4.67 1.833 0 1.966-1.724 1.966-4.22 0-2.285-.113-4.383-1.983-4.366-1.76.003-1.988 1.798-1.988 3.917Zm8.841 1.514c.075.544.133 1.002.435 1.567.3.605 1.078 1.55 2.418 1.55 1.118 0 1.856-.625 1.856-1.38 0-.853-.833-1.193-2.043-1.625-1.683-.625-3.098-1.135-3.098-3.138 0-2.384 2.08-2.931 3.383-2.931 1.038 0 1.89.3 2.781.605l.038 2.458h-.568a4.943 4.943 0 0 0-.285-1.02c-.243-.51-.96-1.415-2.173-1.415-1.02 0-1.476.677-1.476 1.153 0 .582.493.83.7.922.3.135 1.796.68 2.136.813 1.153.472 2.346 1.115 2.346 2.853 0 1.982-1.55 3.294-3.819 3.294-1.25 0-2.193-.343-3.176-.7l-.04-3.006h.585Zm8.257 0c.072.544.13 1.002.432 1.567.302.605 1.078 1.55 2.42 1.55 1.116 0 1.854-.625 1.854-1.38 0-.853-.83-1.193-2.044-1.625-1.68-.625-3.098-1.135-3.098-3.138 0-2.384 2.081-2.931 3.387-2.931 1.037 0 1.887.3 2.775.605l.037 2.458h-.567a5.01 5.01 0 0 0-.283-1.02c-.245-.51-.962-1.415-2.17-1.415-1.02 0-1.478.677-1.478 1.153 0 .582.493.83.7.922.305.135 1.798.68 2.138.813 1.153.472 2.343 1.115 2.343 2.853 0 1.982-1.55 3.294-3.818 3.294-1.25 0-2.193-.343-3.179-.7l-.037-3.006h.588Zm-83.19 7.847h7.486c.755.02 1.588.057 2.363.395 1.438.703 1.476 2.12 1.476 2.42a2.76 2.76 0 0 1-.813 2.003c-.89.928-2.063 1.06-2.913 1.153.928.04 2.418.112 3.573 1.285.453.435 1 1.21 1 2.441 0 .87-.285 1.776-1 2.496-1.08 1.075-2.438 1.112-3.61 1.15h-7.563v-.493H15.6V82.667h-1.833v-.487Zm4.838.565-.04 5.161h1.247c.833 0 1.493-.265 1.758-.605.32-.38.49-1 .49-1.983 0-2.135-.66-2.536-2.115-2.573h-1.34Zm-.038 5.712.04 6.521h1.439c.66-.037 1.36-.092 1.965-.68.778-.793.778-2.156.778-2.625 0-1.459-.32-2.23-.907-2.686-.433-.34-1.19-.548-2.343-.53h-.972Zm10.467-6.277c.888-.017 1.153-.017 1.986-.075v12.928h1.303v.493h-5.522v-.493h1.42V82.67h-1.42v-.49h2.233Zm5.176 4.196c.983-.02 1.282-.02 2.21-.072l-.037 5.988c0 .718.038 1.268.19 1.646.245.585.755.85 1.38.85a1.985 1.985 0 0 0 1.381-.548c.738-.737.718-1.72.718-2.55l-.038-4.824h-1.4v-.49s2.723-.02 4.14-.072v8.712h1.361v.51h-1.438c-1.21 0-1.646.02-2.553.075l-.058-1.459c-.398.496-1.323 1.591-3.458 1.591-1.398 0-2.288-.53-2.646-1.248-.288-.53-.265-1.213-.265-1.778l-.037-5.841h-1.38v-.49h1.93Zm19.277 6.504c-.49.925-1.513 2.853-4.366 2.853-2.931 0-4.726-2.25-4.726-4.876 0-2.513 1.7-4.743 4.743-4.743 1.89 0 2.934.81 3.386 1.285 1.038 1.075 1.078 2.21 1.095 3.023h-6.31c.016 1.608.057 3.06.85 3.896a2.306 2.306 0 0 0 1.682.646c2.04 0 2.819-1.724 3.08-2.326l.566.242Zm-2.761-3.026c.02-1.475.04-3.213-1.663-3.213-1.605 0-1.68 1.608-1.74 3.213h3.403Zm4.801 1.115c.095.548.188 1.04.51 1.704 1.136 2.343 3.196 2.4 3.614 2.4 1.493 0 2.758-.89 2.758-2.268 0-1.377-1.04-1.836-3.896-3.006-.453-.19-.888-.36-1.303-.585-.493-.265-2.115-1.213-2.115-3.386 0-2.343 1.867-3.91 4.498-3.91 1.646 0 2.931.544 3.611.83l.19 3.178h-.605c-.265-.982-.417-1.533-1.075-2.193-.66-.68-1.533-1.155-2.475-1.155-1.438 0-2.196.965-2.196 1.95 0 1.208 1.098 1.721 1.588 1.949.643.3 1.285.527 1.928.792 1.645.66 3.706 1.643 3.706 4.234 0 2.44-1.908 4.236-5.104 4.236-1.625 0-2.873-.453-4.1-.888l-.113-3.879h.58v-.002Zm11.487-8.79c.966 0 1.19-.016 2.04-.074l-.037 5.651c.357-.565.718-1.098 1.796-1.418.452-.15.904-.204 1.38-.204 1.4 0 2.08.547 2.383.83.7.7.755 1.53.796 2.25l.037 5.822h1.306v.493h-5.54v-.493h1.456l.037-5.859c0-.738 0-2.213-1.475-2.213a2.018 2.018 0 0 0-1.415.605c-.646.643-.7 1.496-.758 2.588l.037 4.876h1.418v.493h-5.521v-.493h1.38V82.67h-1.38v-.49h2.06Zm14.213 4.125v8.729h1.306v.493h-5.522v-.493h1.418v-8.167h-1.418v-.49s2.911-.02 4.216-.072ZM78.26 83.58c0-.812.68-1.495 1.513-1.495.813 0 1.476.66 1.476 1.495a1.48 1.48 0 0 1-1.476 1.496 1.562 1.562 0 0 1-1.513-1.496Zm13.983 9.3c-.49.925-1.51 2.853-4.366 2.853-2.934 0-4.726-2.25-4.726-4.876 0-2.513 1.7-4.743 4.743-4.743 1.89 0 2.931.81 3.386 1.285 1.038 1.075 1.075 2.21 1.095 3.023h-6.31c.017 1.608.057 3.06.85 3.896a2.3 2.3 0 0 0 1.682.646c2.04 0 2.819-1.724 3.078-2.326l.568.242Zm-2.758-3.026c.017-1.475.034-3.213-1.663-3.213-1.608 0-1.683 1.608-1.74 3.213h3.403Zm5.689-7.674c.887-.017 1.152-.017 1.982-.075v12.928h1.309v.493h-5.522v-.493h1.418V82.67h-1.418v-.49h2.23Zm10.994 0c1.098 0 1.441-.017 2.288-.075v12.91h1.343v.51s-2.836.02-4.066.076V94.35c-.432.547-1.113 1.38-2.871 1.38-2.835 0-3.97-2.573-3.97-4.651 0-2.965 1.775-4.873 4.215-4.873 1.17 0 1.796.377 2.231.81.189.166.326.383.395.625l-.038-4.974h-1.397v-.49h1.87v.003Zm-3.666 5.274c-.547.567-.645 1.683-.645 3.458 0 2.176.057 3.988 1.798 3.988a1.98 1.98 0 0 0 1.455-.605c.51-.527.66-1.19.66-3.57 0-1.704 0-3.781-2.003-3.764a1.7 1.7 0 0 0-1.265.493Zm.458-20.026a2.59 2.59 0 0 1 1.596-2.381 2.584 2.584 0 0 1 3.518 1.88 2.577 2.577 0 0 1-1.091 2.65 2.585 2.585 0 0 1-1.432.439 2.595 2.595 0 0 1-2.591-2.588Zm4.753 0a2.085 2.085 0 0 0-1.321-2.024 2.088 2.088 0 0 0-.841-.144 2.097 2.097 0 0 0-2.031 1.325 2.078 2.078 0 0 0-.147.843c0 1.268.913 2.175 2.178 2.175 1.26 0 2.162-.907 2.162-2.175Zm-2.753 1.46h-.377v-2.95h1.271c.766 0 1.029.288 1.029.818 0 .568-.398.781-.914.822l.882 1.31h-.427l-.832-1.31h-.632v1.31Zm.522-1.65c.415 0 .991.063.991-.49 0-.415-.342-.467-.7-.467h-.81v.956h.519Zm3.493 17.155a2.58 2.58 0 0 1 1.598-2.383 2.588 2.588 0 0 1 3.522 1.883 2.584 2.584 0 1 1-5.12.5Zm4.752 0a2.076 2.076 0 0 0-.61-1.552 2.076 2.076 0 0 0-1.551-.61c-1.263 0-2.179.906-2.179 2.162 0 1.271.914 2.179 2.179 2.179 1.256 0 2.161-.908 2.161-2.179Zm-2.752 1.464h-.378v-2.95h1.268c.77 0 1.029.29 1.029.815 0 .57-.4.784-.913.824l.882 1.311h-.424l-.833-1.311h-.631v1.311Zm.522-1.657c.415 0 .988.07.988-.487 0-.415-.343-.467-.697-.467h-.81v.954h.519"/></svg>