<svg xmlns="http://www.w3.org/2000/svg" fill="none" aria-hidden="true" viewBox="0 0 250 48"><path fill="#08088C" d="M0 .604h250v46.875H0z"/><path fill="#05EAE4" d="M56.044 4.563h8.173v38.783h-8.173V4.563Zm-4.87 10.261v1.565c0 4.87-1.74 7.13-6.261 7.652v.696c4.522.522 6.26 2.609 6.26 7.652v11.13H43V32.043c0-3.13-.87-4-3.304-4h-2.783V43.52h-8.174V4.563h12.522c7.304 0 9.913 3.13 9.913 10.261ZM43 15.346c0-3.13-.87-4-3.304-4h-2.783v10.087h2.26c2.783 0 3.827-1.044 3.827-4.174v-1.913Zm-18.609 16v1.913c0 7.13-2.608 10.26-9.913 10.26H1.608V4.564h12.696c7.305 0 9.913 2.957 9.913 10.261v.522c0 4.87-1.739 7.13-6.26 7.652v.696c4.695.521 6.434 2.608 6.434 7.652ZM9.783 20.389h2.608c2.783 0 3.826-1.043 3.826-4.174v-.87c0-3.13-.87-4-3.304-4h-3.13v9.044Zm6.434 10.609c0-3.13-.87-4-3.304-4h-3.13v9.74h2.956c2.435 0 3.305-.87 3.305-4v-1.74h.173ZM80.391 4.041c-7.304 0-11.13 4-11.13 11.653v17.913c0 7.13 2.956 10.434 9.391 10.434 5.391 0 7.478-2.26 7.826-7.652h.348l1.044 7.13h3.652V21.956h-11.13v5.913h3.304v5.739c0 2.782-1.044 3.826-3.13 3.826-2.088 0-3.131-1.218-3.131-3.826v-19.13c0-2.783 1.043-3.827 2.956-3.827s2.957 1.044 2.957 3.826v4.174h8v-3.304C91.522 7.868 87.696 4.04 80.39 4.04ZM205.61 36.737h-.696l-2.956-32.174h-8.348l4.521 38.783h13.566l4.347-38.783h-7.478l-2.956 32.174Zm-14.783-21.043v16.695c0 7.652-3.826 11.652-11.304 11.652-7.305 0-11.305-4-11.305-11.652V15.694c0-7.653 3.826-11.653 11.305-11.653 7.478 0 11.304 4 11.304 11.653Zm-8.174-1.218c0-2.782-1.043-3.826-3.13-3.826-2.087 0-3.131 1.218-3.131 3.826v19.13c0 2.783 1.044 3.827 3.131 3.827 2.087 0 3.13-1.218 3.13-3.826v-19.13Zm55.131-3.13V4.563h-18.435v38.783h18.435v-6.783h-10.261v-9.565h9.565v-6.435h-9.565v-9.217h10.261Zm-116.348 0h5.739V43.52h8.174V11.346h5.739V4.563h-19.652v6.783Zm32.348-7.304c-7.131 0-10.957 4-10.957 11.652v16.695c0 7.652 3.826 11.652 10.957 11.652 7.304 0 10.956-3.826 10.956-11.304v-4.696h-8v5.566c0 2.782-1.043 3.826-2.956 3.826s-2.957-1.218-2.957-3.826v-19.13c0-2.783 1.044-3.827 2.957-3.827 1.913 0 2.956 1.218 2.956 3.826v5.218h8v-4.348c0-7.478-3.826-11.305-10.956-11.305Zm-43.305 16.521h-5.739v-16h-8.174v38.783h8.174V26.998h5.739v16.348h8.174V4.563h-8.174v16ZM244.391 4.737c-2.261 0-4 1.74-4 4 0 2.261 1.739 4 4 4s4-1.739 4-4c0-2.26-1.739-4-4-4Zm0 7.478c-1.913 0-3.478-1.39-3.478-3.478 0-2.087 1.391-3.478 3.478-3.478 1.913 0 3.479 1.391 3.479 3.478s-1.566 3.478-3.479 3.478Zm1.739-4.174c0-.87-.521-1.39-1.565-1.39h-1.739v3.825h.87V9.433h.869l.696 1.391h.869l-.869-1.565c.522-.348.869-.696.869-1.218Zm-.869 0c0 .348-.174.522-.696.522h-.869V7.52h.869c.522 0 .696.174.696.521Z"/></svg>