<svg xmlns="http://www.w3.org/2000/svg" fill="none" aria-hidden="true" viewBox="0 0 217 55"><path fill="#FF6C2C" d="M23.212 16.257h12.771l-1.978 7.573c-.302 1.055-.867 1.903-1.695 2.543-.829.64-1.79.96-2.882.96h-5.933c-1.357 0-2.553.396-3.589 1.187-1.037.791-1.761 1.865-2.176 3.221-.264 1.017-.292 1.978-.085 2.882a6.217 6.217 0 0 0 1.102 2.402 5.694 5.694 0 0 0 2.035 1.667 5.968 5.968 0 0 0 2.713.622h3.616c.678 0 1.234.273 1.667.819.433.547.556 1.158.368 1.837l-2.26 8.363H22.93c-2.713 0-5.21-.593-7.488-1.78-2.28-1.187-4.173-2.759-5.68-4.719-1.507-1.958-2.534-4.19-3.08-6.696-.546-2.505-.48-5.076.198-7.714l.227-.847a16.5 16.5 0 0 1 2.288-5.001 16.482 16.482 0 0 1 3.673-3.9 16.937 16.937 0 0 1 4.719-2.514 16.405 16.405 0 0 1 5.425-.905Zm6.442 34.076L40.786 8.628c.301-1.054.866-1.901 1.695-2.542.829-.64 1.79-.961 2.883-.961h11.81c2.713 0 5.208.593 7.488 1.78 2.279 1.187 4.172 2.76 5.68 4.718 1.505 1.96 2.542 4.192 3.107 6.697.565 2.506.49 5.077-.226 7.714l-.226.847a16.943 16.943 0 0 1-2.26 5.002 16.475 16.475 0 0 1-3.645 3.927 16.517 16.517 0 0 1-4.719 2.543 16.388 16.388 0 0 1-5.425.904H46.72l2.034-7.629a4.778 4.778 0 0 1 1.696-2.486c.828-.64 1.788-.96 2.881-.96h3.278a5.808 5.808 0 0 0 3.645-1.244 5.772 5.772 0 0 0 2.119-3.221 5.55 5.55 0 0 0 .085-2.77 6.244 6.244 0 0 0-1.102-2.4 6.003 6.003 0 0 0-2.034-1.696 5.775 5.775 0 0 0-2.713-.65H50.28l-8.25 30.685a4.786 4.786 0 0 1-1.696 2.486 4.497 4.497 0 0 1-2.826.961h-7.854Zm70.467-22.265.17-.622c.075-.3.028-.555-.141-.763-.17-.206-.405-.31-.707-.31H81.077c-.79 0-1.507-.17-2.147-.509a4.72 4.72 0 0 1-1.582-1.328 4.656 4.656 0 0 1-.848-1.893 4.843 4.843 0 0 1 .056-2.204l1.13-4.295h24.865c1.545 0 2.958.34 4.239 1.018 1.28.678 2.345 1.563 3.193 2.655a9.475 9.475 0 0 1 1.751 3.758c.32 1.413.292 2.874-.084 4.38l-4.465 16.614c-.452 1.696-1.366 3.071-2.74 4.125-1.376 1.056-2.949 1.583-4.72 1.583L81.36 50.22c-1.62 0-3.108-.348-4.464-1.045-1.357-.697-2.468-1.62-3.335-2.77-.866-1.148-1.469-2.466-1.808-3.955-.339-1.488-.3-3.004.113-4.55l.226-.847a9 9 0 0 1 1.328-2.938 10.217 10.217 0 0 1 2.176-2.317 9.841 9.841 0 0 1 2.769-1.498 9.64 9.64 0 0 1 3.221-.537h15.427l-1.13 4.239a4.783 4.783 0 0 1-1.695 2.486 4.495 4.495 0 0 1-2.826.96h-6.894c-.64 0-1.055.322-1.243.962-.113.415-.038.782.226 1.102.263.32.602.48 1.017.48H95.6c.415 0 .773-.113 1.074-.34a1.45 1.45 0 0 0 .566-.904l.113-.452 2.768-10.228Zm32.89-11.81c2.749 0 5.264.593 7.543 1.78 2.28 1.186 4.172 2.76 5.68 4.718 1.506 1.96 2.533 4.201 3.079 6.725.546 2.524.462 5.105-.254 7.742l-2.825 10.624a3.102 3.102 0 0 1-1.215 1.808 3.43 3.43 0 0 1-2.063.678h-6.103c-.716 0-1.281-.273-1.695-.82-.415-.545-.528-1.158-.339-1.836l3.39-12.828a5.535 5.535 0 0 0 .085-2.769 6.258 6.258 0 0 0-1.102-2.401 6.002 6.002 0 0 0-2.034-1.696 5.776 5.776 0 0 0-2.712-.65h-6.33l-5.482 20.514a3.096 3.096 0 0 1-1.214 1.808 3.516 3.516 0 0 1-2.12.678h-6.046c-.678 0-1.235-.273-1.667-.82-.433-.545-.556-1.158-.368-1.836l8.364-31.42h15.428Zm33.283 10.765a2.893 2.893 0 0 0-.96 1.384l-2.543 9.607c-.151.528-.056 1.017.282 1.47.34.451.792.677 1.357.677h23.395l-1.808 6.725a4.783 4.783 0 0 1-1.696 2.486 4.496 4.496 0 0 1-2.825.961h-21.304c-1.546 0-2.958-.33-4.239-.989a9.308 9.308 0 0 1-3.193-2.656 9.682 9.682 0 0 1-1.751-3.786c-.32-1.413-.273-2.854.141-4.323l3.447-12.828a12.69 12.69 0 0 1 1.752-3.843 12.894 12.894 0 0 1 2.797-2.995 12.893 12.893 0 0 1 3.617-1.95 12.417 12.417 0 0 1 4.153-.706h15.088c1.545 0 2.958.34 4.239 1.018 1.28.678 2.345 1.563 3.193 2.656.848 1.093 1.421 2.354 1.723 3.786a9.471 9.471 0 0 1-.113 4.351l-1.017 3.843c-.452 1.695-1.366 3.06-2.741 4.097-1.375 1.036-2.929 1.554-4.662 1.554H165.56l1.13-4.182a4.478 4.478 0 0 1 1.639-2.486c.828-.64 1.789-.961 2.882-.961h6.894c.641 0 1.054-.32 1.244-.96l.225-.848a1.224 1.224 0 0 0-.225-1.13c-.265-.34-.603-.51-1.018-.51h-10.51a2.4 2.4 0 0 0-1.527.538Zm21.474 23.31 11.358-42.665a3.222 3.222 0 0 1 1.215-1.837 3.42 3.42 0 0 1 2.119-.706h6.047c.715 0 1.29.274 1.724.82.432.546.555 1.158.367 1.836l-8.477 31.476a14.005 14.005 0 0 1-2.006 4.521 14.802 14.802 0 0 1-3.278 3.475 15.327 15.327 0 0 1-4.21 2.26c-1.545.548-3.164.82-4.859.82Z"/></svg>