<svg xmlns="http://www.w3.org/2000/svg" fill="none" aria-hidden="true" viewBox="0 0 146 81"><g fill="#E31836"><path d="M73.992 21.24H64.04l.102 28.049h12.05l6.47-18.197h.078l-1.264 18.197h12.05l12.026-28.048h-9.95l-6.114 17.607h-.077l1.138-17.607H79.044l-6.348 17.607h-.077l1.373-17.607Z"/><path fill-rule="evenodd" d="M62.975 15.822c-3.92 1.641-7.805 3.56-11.37 5.475a28.056 28.056 0 0 0-1.8-.056H36.64l-2.435 11.453a76.193 76.193 0 0 0-5.9 5.362H21.11c-1.409 3.785-2.56 4.637-3.999 4.637-2.8 0-2.358-3.171-1.454-7.425.954-4.486 1.85-7.424 4.727-7.424 1.364-.018 2.4.603 1.753 5.184h10.208c1.836-9.634-3.553-12.509-10.638-12.509-9.494 0-15.967 5.907-17.549 14.633C2.272 44.031 5.554 50.017 15.4 50.017c1.553 0 3.103-.168 4.6-.525-2.44 5.39-2.56 10.466-.32 14.862 7.043 13.82 38.539 14.632 69.975 1.468 7.832-3.282 15.541-7.48 21.693-11.583 18.532-12.361 26.584-26.857 21.297-37.234-7.042-13.82-38.235-14.35-69.67-1.183Zm-40.847 33.02c-2.363 4.724-3.14 9.301-1.305 12.9 6.194 12.157 34.965 11.984 62.617.402 6.955-2.911 13.26-6.31 18.706-9.958 16.203-10.855 22.483-23.1 17.846-32.2C113.797 7.83 88.656 6.54 61.007 18.12a126.493 126.493 0 0 0-7.422 3.392c7.97 1.257 9.545 6.779 7.995 14.066-1.8 8.476-8.444 13.717-17.079 13.717H30.677l3.15-14.818c-1.425 1.206-2.683 2.327-3.887 3.58h1.613c-1.52 5.74-5.121 9.155-9.425 10.785ZM46.16 27.609h1.086c1.787 0 2.695.66 3.155 1.787.489 1.168.3 3.15-.278 5.872-.578 2.722-1.231 4.705-2.22 5.87-.937 1.129-2.125 1.789-3.912 1.789h-1.088l3.257-15.318Zm93.249-3.929h.39l.596 1.107h.683l-.656-1.106c.478-.062.736-.26.736-.756 0-.28-.073-.578-.317-.73-.2-.119-.498-.126-.731-.126h-1.297v2.718h.596v-1.106Zm0-.498v-.614h.583c.257 0 .537 0 .537.277 0 .271-.107.344-.405.337h-.715Z" clip-rule="evenodd"/><path fill-rule="evenodd" d="M139.858 25.993a2.502 2.502 0 0 0 2.492-2.492 2.502 2.502 0 0 0-2.492-2.492 2.493 2.493 0 0 0 0 4.984Zm0-4.322c.963 0 1.83.762 1.83 1.83 0 1.06-.867 1.83-1.83 1.83a1.82 1.82 0 0 1-1.828-1.83c0-1.068.856-1.83 1.828-1.83Z" clip-rule="evenodd"/></g></svg>