<svg xmlns="http://www.w3.org/2000/svg" fill="none" aria-hidden="true" viewBox="0 0 121 98"><path fill="#fff" d="M3.025 5.277h114.95v87.046H3.025V5.277Z"/><g fill="#0033A1"><path d="M13.024 7.215H4.885v66.97h3.72L10.87 39.86a22.629 22.629 0 0 1-.481-4.74c0-2.594.446-5.01 1.269-7.193l1.366-20.711Zm-1.592 34.709L9.303 74.185h2.79l3.646-25.401c-1.936-1.84-3.403-4.147-4.307-6.86Zm8.679-23.6c-3.296 1.753-5.94 4.415-7.633 7.743l1.244-18.852h7.983l-1.594 11.11ZM16.357 49.34l-3.566 24.845h3.1l4.935-22.089a17.26 17.26 0 0 1-4.469-2.755Zm5.109 3.016-4.877 21.83H20l6.573-20.578a21.528 21.528 0 0 1-5.107-1.252Zm6.116-1.906c-2.019-.564-3.667-1.696-4.957-3.285l6.351-28.431c.334-.031.675-.047 1.023-.047 3.25 0 5.435 1.27 6.9 2.6l-9.317 29.162Zm-.282 3.237-6.525 20.498h3.178l8.404-20.51c-.79.08-1.65.125-2.59.125-.843 0-1.666-.038-2.467-.113Zm6.39-3.267c-1.009.272-2.042.434-2.993.434-.856 0-1.662-.08-2.42-.237l9.167-28.801c.473.49.853.966 1.159 1.366v-5.008l3.488-10.96h9.301l-3.842 9.38h-3.211v7.836L33.69 50.42Zm-.6 3.168c3.62-.495 5.594-1.758 6.753-2.734l-1.318-2.868c-.881.838-2.39 1.65-4.04 2.195l9.854-24.048v16.991l-15.89 31.061H24.65l8.439-20.597Zm11.249-8.948L29.224 74.184h6.2l13.983-21.083H44.34V44.64Zm7.673 4.534V29.639l5.086-9.94c3.953.62 7.666 2.43 9.427 7.592L52.012 49.174Zm-1.83 3.928L36.2 74.185h5.426L58.61 53.101h-8.428Zm13.546-6.354c-3.153 3.037-7.707 3.401-11.592 3.408l14.636-22.07c.525 1.849.82 4.088.82 6.8 0 4.465-.865 7.63-2.262 9.873l-1.602 1.989Zm-4.215 6.322c6.954-.424 16.683-5.006 16.683-18.338 0-.777-.03-1.522-.086-2.237l20.394-25.28h19.223l-9.462 9.584c-1.994-.559-4.21-.825-6.273-.825-11.162 0-19.533 7.906-19.533 19.145 0 2.468.358 4.735 1.033 6.773L49.61 74.185h-7.132L59.513 53.07Zm22.223-10.487L50.54 74.185h11.937L90.5 51.921c-4.103-1.867-7.157-5.068-8.764-9.338Zm12.657 6.245c-3.403-2.616-5.109-7.575-5.244-13.755l15.28-15.479c2.135.98 3.447 2.541 4.245 3.588V17.68a14.8 14.8 0 0 0-1.698-.665l9.061-9.179v23.796L94.393 48.828Zm-3.136 3.418c2.524 1.017 5.412 1.553 8.58 1.553 5.736 0 8.527-1.705 10.077-2.945l-1.318-2.868c-1.55 1.473-5.038 2.868-7.829 2.868-2.256 0-4.171-.562-5.756-1.59l21.026-16.703v17.596L77.591 74.184H63.64l27.618-21.94Z"/><path d="M103.774 19.322 89.141 34.144c.035-9.158 3.984-15.457 10.929-15.457 1.431 0 2.656.246 3.704.635ZM76.012 31.5c-.557-4.661-2.332-7.945-4.725-10.22l9.327-14.065h14.96L76.012 31.499Zm-5.209-10.66 9.036-13.625H63.484l-4.808 9.4c4.08.156 8.67 1.229 12.127 4.226ZM57.91 16.596l4.8-9.381H52.09l-3.843 9.379h9.346c.105 0 .211 0 .317.002Zm-1.536 3.002-4.362 8.526v-8.74c1.416 0 2.898.035 4.362.214ZM38.12 17.464l3.273-10.25H31.55l-1.957 8.762c.11-.002.22-.002.33-.002 2.757 0 5.787.475 8.197 1.49Zm-9.23-1.468 1.962-8.781h-8.45l-1.54 10.73c2.397-1.14 5.108-1.82 8.028-1.949Zm-.632 2.831c-5.89.98-9.188 7.013-9.188 15.44 0 4.985.985 9.231 3.018 12.18l6.17-27.62Zm87.779 32.183L78.909 74.184h23.021l14.107-6.588V51.009Zm-12.479 23.175 12.479-5.813v5.813h-12.479Z"/></g><path fill="#0033A1" d="m9.148 79.61-.077-.077v-.077c0-.155-.62-.388-1.24-.388s-1.473.31-1.473 1.085c0 .776.853 1.086 1.473 1.086.31 0 1.317-.233 1.317-.465 0-.078 0-.078-.077-.155l.077-.078.776 1.24-.078.078c0-.078-.077-.078-.077-.078-.156 0-.853.388-2.016.388-1.24 0-2.558-.698-2.558-2.093s1.318-2.093 2.558-2.093c.62 0 1.085.078 1.395.155.31.078.465.155.543.155.078 0 .078 0 .155-.077h.078l-.776 1.395Zm6.279 1.861c.077 0 .155-.077.232-.232h.078v1.007h-.078c-.077-.155-.077-.155-.232-.155h-3.488v-.077c.077 0 .232 0 .232-.155v-2.946c0-.077-.077-.155-.232-.155v-.077h3.565c.078 0 .155 0 .155-.155h.078v1.007h-.078c0-.155-.077-.155-.155-.155h-2.247v.62h1.472c.078 0 .155 0 .155-.154h.078v1.007h-.078c0-.155-.077-.155-.155-.155h-1.472v.775h2.17Zm6.51.465c0 .078.078.155.233.155v.078h-1.472v-.078c.077 0 .232 0 .232-.077 0-.155-1.007-1.085-1.86-2.093v2.015c0 .078.077.155.232.155v.078h-1.317v-.078c.077 0 .232 0 .232-.155v-2.945c0-.078-.077-.155-.232-.155v-.078h1.86v.078c-.078 0-.155 0-.155.155 0 .077.775.853 1.395 1.55v-1.55c0-.078-.077-.155-.232-.155v-.078h1.395v.078c-.155 0-.233 0-.233.155v2.945h-.077Zm5.66-3.178c.077 0 .154 0 .154-.155h.078v1.163h-.078c0-.155-.077-.155-.155-.155h-1.085v2.403c0 .077.078.155.155.155v.077h-1.395v-.077c.077 0 .155 0 .155-.155V79.61H24.34c-.078 0-.155 0-.155.155h-.078v-1.163h.078c0 .155.077.155.155.155h3.255Zm5.58 2.713c.078 0 .155-.077.233-.232h.077v1.007h-.077c-.078-.155-.078-.155-.233-.155H29.69v-.077c.078 0 .233 0 .233-.155v-2.946c0-.077-.078-.155-.233-.155v-.077h3.566c.077 0 .155 0 .155-.155h.077v1.007h-.077c0-.155-.078-.155-.155-.155h-2.248v.62h1.473c.077 0 .155 0 .155-.154h.077v1.007h-.078c0-.155-.077-.155-.154-.155h-1.473v.775h2.17Zm3.72-2.093h1.086c.465 0 .62.155.62.388 0 .31-.233.387-.543.387h-1.085v-.775h-.077Zm-1.007 2.558a.167.167 0 0 1-.155.155v.078h1.318v-.078c-.078 0-.233 0-.233-.155V80.93h.775c.078.155.62 1.007.62 1.085 0 .077-.155.077-.155.077v.078h1.55v-.078c-.077 0-.232-.077-.31-.155l-.697-1.007c.465-.155.852-.465.852-1.085 0-.698-.542-1.086-1.24-1.086h-2.48v.078c.078 0 .155 0 .155.155v2.945Zm5.813-.93.078.078v.077c0 .233.93.388 1.55.388.155 0 .698 0 .698-.31 0-.62-2.558 0-2.558-1.318 0-.465.465-1.163 1.705-1.163.775 0 1.395.233 1.55.233.078 0 .155-.078.155-.078h.078l-.465 1.008-.078-.078v-.077c0-.078-.542-.31-1.085-.31-.232 0-.853 0-.853.31 0 .543 2.558 0 2.558 1.318 0 .62-.542 1.162-1.705 1.162-.775 0-1.628-.31-1.705-.31-.078 0-.155.078-.155.078h-.078l.31-1.008Zm12.635-2.015c0-.078-.078-.155-.233-.155v-.078h3.41c.078 0 .156 0 .156-.155h.077v1.086h-.077c0-.156-.078-.156-.155-.156h-2.093v.698h1.395c.078 0 .155 0 .155-.155h.078v1.008h-.078c0-.155-.077-.155-.155-.155h-1.395v1.085c0 .077.078.155.233.155v.077h-1.55v-.077c.154 0 .232 0 .232-.155V78.99Zm7.13.542c.621 0 1.086.388 1.086.93 0 .543-.465.93-1.085.93-.62 0-1.085-.387-1.085-.93.077-.542.542-.93 1.085-.93Zm0-.852c-1.007 0-2.092.542-2.092 1.783 0 1.24 1.085 1.782 2.093 1.782s2.093-.542 2.093-1.782-1.085-1.783-2.093-1.783Zm5.272.697h1.085c.465 0 .62.155.62.388 0 .31-.233.387-.543.387h-1.085v-.775h-.077Zm-1.008 2.558a.167.167 0 0 1-.155.155v.078h1.318v-.078c-.078 0-.233 0-.233-.155V80.93h.775c.078.155.62 1.007.62 1.085 0 .077-.155.077-.155.077v.078h1.55v-.078c-.077 0-.232-.077-.31-.155l-.697-1.007c.465-.155.853-.465.853-1.085 0-.698-.543-1.086-1.318-1.086H65.5v.078c.077 0 .154 0 .154.155v2.945h.078Zm14.34-2.945h1.007c.853 0 1.163.465 1.163 1.162 0 .698-.31 1.163-1.163 1.163h-1.007v-2.325Zm-1.163 2.945c0 .078 0 .155-.233.155v.078h2.48c1.474 0 2.171-1.008 2.171-2.016 0-1.162-.697-2.015-2.093-2.015h-2.557v.078c.232 0 .232.077.232.155v3.565Zm7.984-3.178v.078c-.155 0-.233 0-.233.155v2.945c0 .078.078.155.233.155v.078h-1.55v-.078c.154 0 .232 0 .232-.155v-2.945c0-.078-.078-.155-.233-.155v-.078h1.55Zm2.248 2.248.077.078v.077c0 .233.93.388 1.55.388.233 0 .698 0 .698-.31 0-.62-2.558 0-2.558-1.318 0-.465.465-1.163 1.705-1.163.775 0 1.395.233 1.55.233.078 0 .156-.078.156-.078h.077l-.465 1.008-.078-.078v-.077c0-.078-.542-.31-1.085-.31-.232 0-.852 0-.852.31 0 .543 2.558 0 2.558 1.318 0 .62-.543 1.162-1.706 1.162-.775 0-1.627-.31-1.705-.31-.077 0-.155.078-.155.078h-.078l.31-1.008Zm8.836.465c.077 0 .155-.077.233-.232h.077v1.007h-.078c-.077-.155-.077-.155-.232-.155h-3.488v-.077c.077 0 .232 0 .232-.155v-2.946c0-.077-.077-.155-.232-.155v-.077h3.565c.078 0 .156 0 .156-.155h.077v1.007h-.078c0-.155-.077-.155-.155-.155h-2.247v.62h1.472c.078 0 .155 0 .155-.154h.078v1.007h-.078c0-.155-.077-.155-.155-.155h-1.472v.775h2.17Zm3.876-.542.62-1.396.62 1.396h-1.24Zm2.945 1.24v-.078c-.078 0-.155 0-.155-.077-.31-.775-1.473-3.023-1.473-3.1 0-.078 0-.078.078-.078v-.078h-1.628v.078c.078 0 .078 0 .078.077 0 .078-.698 1.628-1.318 3.1 0 .078-.078.078-.155.078v.078h1.162v-.078s-.077 0-.077-.077c0-.078.155-.388.232-.543h1.783c.078.155.233.465.233.543 0 .077-.078.077-.078.077v.078h1.318Zm2.17-1.163.078.078v.077c0 .233.93.388 1.55.388.233 0 .698 0 .698-.31 0-.62-2.558 0-2.558-1.318 0-.465.465-1.163 1.705-1.163.775 0 1.395.233 1.55.233.078 0 .155-.078.155-.078h.078l-.465 1.008-.078-.078v-.077c0-.078-.542-.31-1.085-.31-.232 0-.853 0-.853.31 0 .543 2.558 0 2.558 1.318 0 .62-.542 1.162-1.705 1.162-.775 0-1.628-.31-1.705-.31-.078 0-.155.078-.155.078h-.078l.31-1.008Zm8.759.465c.078 0 .155-.077.233-.232h.077v1.007h-.077c-.078-.155-.078-.155-.233-.155h-3.488v-.077c.078 0 .233 0 .233-.155v-2.946c0-.077-.078-.155-.233-.155v-.077h3.566c.077 0 .155 0 .155-.155h.077v1.007h-.077c0-.155-.078-.155-.155-.155h-2.248v.62h1.473c.077 0 .155 0 .155-.154h.077v1.007h-.077c0-.155-.078-.155-.155-.155h-1.473v.775h2.17ZM9.071 87.362l-.078-.077v-.155c0-.155-.62-.388-1.24-.388s-1.473.31-1.473 1.085c0 .775.853 1.085 1.473 1.085.31 0 1.318-.232 1.318-.465 0-.077 0-.077-.078-.155l.078-.077.775 1.24-.077.078c0-.078-.078-.078-.078-.078-.155 0-.853.388-2.015.388-1.24 0-2.558-.698-2.558-2.093s1.317-2.093 2.558-2.093c.62 0 1.085.077 1.395.155.31.077.465.155.542.155.078 0 .078 0 .156-.078h.077l-.775 1.473Zm4.108 0c.62 0 1.085.388 1.085.93 0 .543-.465.93-1.085.93-.62 0-1.085-.387-1.085-.93 0-.62.542-.93 1.085-.93Zm0-.852c-1.008 0-2.093.542-2.093 1.782s1.085 1.783 2.093 1.783 2.093-.543 2.093-1.783c0-1.24-1.085-1.782-2.093-1.782Zm7.519 3.255c0 .078.077.155.232.155v.078h-1.473v-.078c.078 0 .233 0 .233-.078 0-.154-1.008-1.085-1.86-2.092v2.015c0 .078.077.155.232.155v.078h-1.317v-.078c.077 0 .232 0 .232-.155V86.82c0-.078-.077-.155-.232-.155v-.078h1.86v.078c-.078 0-.155 0-.155.154 0 .078.775.853 1.395 1.55v-1.55c0-.077-.078-.154-.232-.154v-.078h1.395v.078c-.155 0-.233 0-.233.154v2.946h-.077Zm5.038-3.255c.077 0 .155 0 .155-.156h.078v1.163h-.078c0-.155-.078-.155-.155-.155H24.65v2.403c0 .078.077.155.155.155v.078H23.41v-.078c.077 0 .155 0 .155-.155v-2.403H22.48c-.077 0-.155 0-.155.155h-.077v-1.162h.077c0 .154.078.154.155.154h3.256Zm2.868.697h1.085c.465 0 .62.155.62.388 0 .31-.232.387-.543.387h-1.085v-.775h-.077Zm-1.008 2.558a.167.167 0 0 1-.155.155v.078h1.318v-.078c-.078 0-.233 0-.233-.155v-1.008h.776c.077.155.62 1.008.62 1.085 0 .078-.155.078-.155.078v.078h1.55v-.078c-.078 0-.233-.078-.31-.155l-.698-1.008c.465-.155.853-.465.853-1.085 0-.697-.543-1.085-1.24-1.085h-2.48v.078c.077 0 .154 0 .154.154v2.946Zm7.054-2.403c.62 0 1.085.388 1.085.93 0 .543-.465.93-1.085.93-.62 0-1.085-.387-1.085-.93 0-.62.465-.93 1.085-.93Zm0-.852c-1.008 0-2.093.542-2.093 1.782s1.085 1.783 2.093 1.783c1.007 0 2.093-.543 2.093-1.783 0-1.24-1.163-1.782-2.093-1.782Zm3.643.31c0-.078-.078-.155-.233-.155v-.078h1.473v.078c-.078 0-.233 0-.233.154v2.403h2.17c.078 0 .156 0 .156-.232h.077v1.163h-.077c0-.156-.078-.156-.155-.156h-3.41v-.077c.154 0 .232 0 .232-.155V86.82Zm9.069 1.937.62-1.395.62 1.395h-1.24Zm2.945 1.24v-.077c-.077 0-.155 0-.155-.078-.31-.775-1.473-3.022-1.473-3.1 0-.078 0-.078.078-.078v-.077h-1.628v.078c.078 0 .078 0 .078.077 0 .078-.698 1.628-1.318 3.1 0 .078-.078.078-.155.078v.078h1.163v-.078s-.078 0-.078-.078c0-.077.155-.387.233-.542h1.782c.078.155.233.465.233.543 0 .077-.078.077-.078.077v.078h1.318Zm5.503-.232c0 .078.078.155.233.155v.078H54.57v-.078c.078 0 .233 0 .233-.078 0-.154-1.008-1.085-1.86-2.092v2.015c0 .078.077.155.232.155v.078H51.78v-.078c.077 0 .232 0 .232-.155V86.82c0-.078-.077-.155-.232-.155v-.078h1.86v.078c-.077 0-.155 0-.155.154 0 .078.775.853 1.395 1.55v-1.55c0-.077-.077-.154-.232-.154v-.078h1.395v.078c-.155 0-.233 0-.233.154v2.946Zm3.023-2.48h.543c.775 0 1.163.232 1.163.93 0 .697-.31.93-1.163.93h-.542v-1.86Zm-1.085 2.48c0 .078-.077.155-.232.155v.078h2.325c1.163 0 1.628-.776 1.628-1.706 0-.93-.465-1.705-1.628-1.705h-2.325v.078c.077 0 .232 0 .232.154v2.946Zm9.69-3.023H68.6c.388 0 .62.155.62.465 0 .31-.233.465-.62.465h-1.163v-.93Zm0 1.705h1.394c1.008 0 1.473-.62 1.473-1.317 0-.698-.542-1.318-1.473-1.318h-2.79v.077c.233 0 .233.078.233.155v3.644c0 .077 0 .154-.233.154v.078h1.628v-.078c-.233 0-.233-.077-.233-.154v-1.24Zm5.503-1.24h1.085c.465 0 .62.155.62.388 0 .31-.233.387-.543.387h-1.085v-.775h-.077Zm-1.008 2.558a.167.167 0 0 1-.155.155v.078h1.318v-.078c-.078 0-.233 0-.233-.155v-1.008h.775c.078.155.62 1.008.62 1.085 0 .078-.155.078-.155.078v.078h1.55v-.078c-.077 0-.232-.078-.31-.155l-.697-1.008c.465-.155.853-.465.853-1.085 0-.697-.543-1.085-1.24-1.085h-2.481v.078c.078 0 .155 0 .155.154v2.946Zm8.604-.465c.077 0 .155-.078.232-.155h.078v1.008h-.078c-.077-.156-.077-.156-.232-.156h-3.488v-.077c.077 0 .232 0 .232-.155V86.82c0-.078-.077-.155-.232-.155v-.078h3.565c.078 0 .155 0 .155-.155h.078v1.008h-.078c0-.155-.077-.155-.155-.155h-2.248v.62h1.473c.078 0 .155 0 .155-.155h.078v1.007h-.078c0-.155-.077-.155-.155-.155h-1.473v.775h2.17V89.3Zm1.55-2.79h1.473v.077c-.078 0-.233 0-.233.078 0 .077.62 1.782.698 2.015.31-.698.775-1.938.775-2.016 0-.077-.155-.077-.155-.077v-.078h1.318v.078c-.078 0-.155 0-.155.078-.078.31-1.24 2.945-1.24 3.022 0 .078.077.156.154.156v.077h-1.627v-.078a.167.167 0 0 0 .155-.154s-1.008-3.023-1.085-3.101h-.156v-.078h.078Zm8.681 2.79c.078 0 .155-.078.233-.155h.077v1.008h-.077c-.078-.156-.078-.156-.233-.156H87.28v-.077c.078 0 .233 0 .233-.155V86.82c0-.078-.078-.155-.233-.155v-.078h3.566c.077 0 .155 0 .155-.155h.077v1.008h-.077c0-.155-.078-.155-.155-.155h-2.248v.62h1.473c.077 0 .155 0 .155-.155h.077v1.007h-.077c0-.155-.078-.155-.155-.155h-1.473v.775h2.17V89.3Zm5.969.465c0 .078.077.155.232.155v.078h-1.472v-.078c.077 0 .232 0 .232-.078 0-.154-1.008-1.085-1.86-2.092v2.015c0 .078.077.155.232.155v.078h-1.317v-.078c.077 0 .232 0 .232-.155V86.82c0-.078-.077-.155-.232-.155v-.078h1.86v.078c-.078 0-.155 0-.155.154 0 .078.775.853 1.395 1.55v-1.55c0-.077-.077-.154-.232-.154v-.078h1.395v.078c-.155 0-.233 0-.233.154v2.946h-.077Zm5.038-3.255c.078 0 .155 0 .155-.156h.078v1.163h-.078c0-.155-.077-.155-.155-.155h-1.085v2.403c0 .078.077.155.155.155v.078H99.45v-.078c.077 0 .155 0 .155-.155v-2.403h-1.086c-.077 0-.154 0-.154.155h-.078v-1.162h.078c0 .154.077.154.154.154h3.256Zm3.256 0v.077c-.156 0-.233 0-.233.155v2.945c0 .078.077.156.233.156v.077h-1.551v-.078c.155 0 .233 0 .233-.154v-2.946c0-.078-.078-.155-.233-.155v-.078h1.551Zm3.488.852c.62 0 1.085.388 1.085.93 0 .543-.465.93-1.085.93-.621 0-1.086-.387-1.086-.93 0-.62.465-.93 1.086-.93Zm0-.852c-1.008 0-2.093.542-2.093 1.782s1.085 1.783 2.093 1.783c1.007 0 2.092-.543 2.092-1.783 0-1.24-1.162-1.782-2.092-1.782Zm7.441 3.255c0 .078.077.155.232.155v.078h-1.473v-.078c.078 0 .233 0 .233-.078 0-.154-1.008-1.085-1.86-2.092v2.015c0 .078.077.155.232.155v.078h-1.317v-.078c.077 0 .232 0 .232-.155V86.82c0-.078-.077-.155-.232-.155v-.078h1.86v.078c-.078 0-.155 0-.155.154 0 .078.775.853 1.395 1.55v-1.55c0-.077-.077-.154-.233-.154v-.078h1.396v.078c-.155 0-.233 0-.233.154v2.946h-.077Z"/></svg>