<svg xmlns="http://www.w3.org/2000/svg" fill="none" aria-hidden="true" viewBox="0 0 198 61"><g id="Checkly"><g id="Group"><path id="Vector" fill="#45C8F1" fill-rule="evenodd" d="M170.825 30.81C171.144 30.02 171.481 29.2209 171.837 28.4125C172.253 27.4655 172.664 26.5755 173.068 25.7422C173.219 25.2876 173.39 24.8836 173.579 24.5301C173.768 24.1766 173.964 23.7852 174.166 23.3559C174.217 23.3054 174.393 23.2549 174.696 23.2044C174.999 23.1539 175.372 23.1097 175.814 23.0719C176.256 23.034 176.729 23.0214 177.234 23.034C177.739 23.0466 178.219 23.0908 178.673 23.1666C179.128 23.2423 179.526 23.3496 179.867 23.4885C180.207 23.6274 180.428 23.8105 180.529 24.0377C180.327 24.4165 180.012 24.9846 179.583 25.7422C179.153 26.4997 178.711 27.333 178.257 28.242C177.802 29.1511 177.379 30.0916 176.988 31.0638C176.597 32.036 176.35 32.9135 176.249 33.6962C176.073 34.8073 176.054 35.5774 176.193 36.0067C176.331 36.436 176.565 36.6254 176.893 36.5749C177.222 36.5244 177.613 36.2718 178.067 35.8173C178.522 35.3628 178.976 34.8073 179.431 34.1508C180.264 32.4589 180.959 31.0512 181.514 29.9275C182.07 28.8038 182.55 27.8506 182.954 27.0678C183.358 26.2851 183.692 25.6348 183.957 25.1172C184.222 24.5996 184.494 24.1008 184.772 23.6211C185.15 23.4948 185.611 23.3938 186.154 23.3181C186.697 23.2423 187.246 23.2234 187.802 23.2613C188.357 23.2991 188.881 23.3875 189.374 23.5264C189.866 23.6653 190.226 23.8862 190.453 24.1892L189.582 26.1967C189.228 27.03 188.843 27.939 188.427 28.9238C188.01 29.9086 187.581 30.906 187.139 31.916C186.697 32.9261 186.274 33.9172 185.87 34.8893C185.466 35.8615 185.1 36.7516 184.772 37.5596C185.024 37.3576 185.283 37.1051 185.548 36.8021C185.813 36.4991 186.123 36.0825 186.476 35.5522C186.83 35.0219 187.271 34.3401 187.802 33.5069C188.332 32.6736 188.989 31.613 189.771 30.3252C190.175 29.6434 190.611 29.2394 191.078 29.1132C191.545 28.9869 191.949 29.0185 192.29 29.2079C192.631 29.3972 192.865 29.6876 192.991 30.079C193.117 30.4704 193.041 30.8555 192.764 31.2343C192.208 32.2443 191.577 33.3364 190.87 34.5106C190.163 35.6848 189.399 36.7895 188.578 37.8248C187.758 38.8601 186.899 39.7565 186.003 40.514C185.106 41.2715 184.203 41.7387 183.294 41.9154C183.067 42.8497 182.745 43.8471 182.329 44.9077C181.912 45.9682 181.451 47.0161 180.946 48.0514C180.441 49.0867 179.917 50.0841 179.374 51.0437C178.831 52.0032 178.32 52.8491 177.84 53.5814C177.487 54.1369 177.02 54.541 176.439 54.7935C175.858 55.046 175.271 55.1596 174.678 55.1344C174.084 55.1091 173.522 54.9513 172.992 54.6609C172.462 54.3705 172.07 53.9349 171.818 53.3542C171.591 52.6976 171.534 52.0348 171.647 51.3656C171.761 50.6965 171.995 50.0273 172.348 49.3582C172.702 48.689 173.137 48.0199 173.655 47.3507C174.172 46.6816 174.709 46.0187 175.265 45.3622C175.669 44.8824 176.054 44.4216 176.42 43.9797C176.786 43.5378 177.127 43.0896 177.442 42.6351C177.758 42.1806 178.042 41.7008 178.295 41.1958C178.547 40.6908 178.749 40.1479 178.901 39.5671C178.471 39.9711 178.03 40.3373 177.575 40.6655C177.121 40.9938 176.641 41.2652 176.136 41.4799C175.631 41.6945 175.094 41.8271 174.526 41.8776C173.958 41.9281 173.358 41.8649 172.727 41.6882C171.389 41.3347 170.442 40.6718 169.886 39.6997C169.729 39.4247 169.599 39.133 169.497 38.8246C169.107 39.3597 168.675 39.8471 168.201 40.2868C167.683 40.7665 167.109 41.1642 166.477 41.4799C165.846 41.7955 165.139 41.9533 164.356 41.9533C163.043 41.7766 162.065 41.2715 161.421 40.4383C160.953 39.8334 160.606 39.1521 160.378 38.3942C160.189 38.629 160 38.8558 159.811 39.0747C159.003 40.009 158.176 40.7413 157.33 41.2715C156.484 41.8018 155.619 42.067 154.736 42.067C154.306 42.067 153.738 41.9091 153.031 41.5935C152.324 41.2779 151.56 40.8675 150.74 40.3625C149.919 39.8575 149.111 39.2893 148.315 38.6581C147.52 38.0268 146.832 37.3955 146.251 36.7642C145.973 37.5723 145.759 38.5444 145.607 39.6807C145.456 40.817 145.557 42.2689 145.91 44.0365C144.925 43.8345 144.099 43.5757 143.429 43.2601C142.76 42.9444 142.205 42.6162 141.763 42.2753C141.321 41.9344 140.98 41.6061 140.74 41.2905C140.5 40.9748 140.342 40.716 140.267 40.514C140.103 40.0481 139.988 39.5429 139.922 38.9984C139.589 39.3665 139.25 39.7202 138.903 40.0595C138.272 40.6403 137.476 41.1011 136.517 41.442C135.557 41.7829 134.522 41.9533 133.411 41.9533C132.653 41.9533 131.909 41.846 131.176 41.6314C130.444 41.4167 129.762 41.1137 129.131 40.7223C128.5 40.3309 127.944 39.8575 127.464 39.302C127.195 38.9904 126.966 38.6551 126.776 38.2959C126.628 38.4581 126.479 38.6167 126.328 38.7717C125.394 39.7312 124.377 40.5014 123.279 41.0822C122.181 41.6629 120.962 41.9533 119.624 41.9533C119.018 41.9533 118.374 41.8713 117.692 41.7071C117.01 41.543 116.367 41.3031 115.761 40.9875C115.155 40.6718 114.612 40.2741 114.132 39.7944C113.777 39.439 113.497 39.0422 113.294 38.6038C113.035 38.9309 112.771 39.2393 112.503 39.5292C111.594 40.514 110.616 41.2463 109.568 41.7261C108.52 42.2058 107.327 42.3321 105.988 42.1048C105.433 42.0038 104.972 41.846 104.606 41.6314C104.24 41.4167 103.943 41.1769 103.716 40.9117C103.489 40.6466 103.318 40.3562 103.204 40.0406C103.091 39.7249 103.021 39.403 102.996 39.0747C102.946 38.4434 102.99 37.7553 103.129 37.0104C103.268 36.2655 103.451 35.5143 103.678 34.7568C103.905 33.9992 104.158 33.2607 104.435 32.541C104.713 31.8213 104.966 31.1711 105.193 30.5904C105.395 30.0096 105.547 29.5488 105.648 29.2079C105.749 28.867 105.761 28.6334 105.685 28.5072C105.61 28.3809 105.427 28.3493 105.136 28.4125C104.846 28.4756 104.423 28.6208 103.867 28.848C103.236 29.1258 102.668 29.5551 102.163 30.1358C101.658 30.7166 101.216 31.4047 100.837 32.2001C100.458 32.9955 100.136 33.8414 99.8714 34.7378C99.6062 35.6343 99.4042 36.5307 99.2653 37.4271C99.1264 38.3235 99.0444 39.182 99.0191 40.0027C98.9939 40.8233 99.0191 41.5241 99.0949 42.1048C98.0596 41.8018 97.2074 41.5493 96.5382 41.3473C95.8691 41.1453 95.3262 40.937 94.9095 40.7223C94.4929 40.5077 94.1899 40.2741 94.0005 40.0216C93.8111 39.7691 93.6659 39.4408 93.5649 39.0368C93.6101 38.449 93.6882 37.822 93.7992 37.1558C93.4502 37.5514 93.0817 37.9385 92.6937 38.3172C91.6332 39.3525 90.4717 40.2615 89.2091 41.0443C87.9465 41.8271 86.6083 42.4457 85.1942 42.9002C83.7801 43.3548 82.3535 43.582 80.9141 43.582C79.3991 43.582 77.8714 43.3043 76.3311 42.7487C74.7908 42.1932 73.4083 41.3852 72.1836 40.3246C70.9589 39.2641 69.9678 37.97 69.2103 36.4423C68.4528 34.9146 68.0993 33.166 68.1498 31.1964C68.2003 30.0096 68.4591 28.7786 68.9262 27.5034C69.3934 26.2282 70.0246 24.9657 70.82 23.7158C71.6155 22.4658 72.5497 21.2412 73.6229 20.0417C74.6961 18.8423 75.845 17.7187 77.0697 16.6707C78.2944 15.6228 79.5758 14.6759 80.9141 13.83C82.2525 12.9841 83.6034 12.2707 84.9669 11.69C86.4568 11.1092 87.9402 10.7178 89.4174 10.5158C90.8946 10.3138 92.214 10.3895 93.3755 10.7431C94.5371 11.0966 95.4714 11.7973 96.1784 12.8452C96.8854 13.8931 97.2263 15.3766 97.2011 17.2957C97.1758 18.5583 96.8286 19.7703 96.1594 20.9318C95.4903 22.0934 94.6696 23.1224 93.6975 24.0188C92.7253 24.9152 91.6774 25.6285 90.5537 26.1588C89.43 26.6891 88.4137 26.9542 87.5047 26.9542C87.1006 26.9542 86.6272 26.828 86.0843 26.5754C85.5414 26.3229 84.9922 25.9821 84.4367 25.5528C85.7245 24.7952 86.8608 23.8736 87.8456 22.7878C88.8303 21.702 89.55 20.6541 90.0045 19.644C90.5853 18.0785 90.7305 17.0116 90.4401 16.4435C90.1497 15.8753 89.6068 15.6354 88.8114 15.7238C88.016 15.8122 87.0565 16.1594 85.9328 16.7654C84.8091 17.3715 83.717 18.0722 82.6565 18.8676C81.5959 19.663 80.649 20.4836 79.8157 21.3295C78.9824 22.1755 78.4522 22.8762 78.2249 23.4317C77.4674 24.366 76.8424 25.3823 76.35 26.4808C75.8576 27.5792 75.5231 28.6776 75.3463 29.776C75.1695 30.8744 75.1569 31.9413 75.3084 32.9766C75.4599 34.0119 75.8134 34.9335 76.369 35.7416C76.9245 36.5496 77.6946 37.1998 78.6794 37.6922C79.6642 38.1846 80.8889 38.4561 82.3535 38.5066C83.4393 38.5571 84.626 38.2604 85.9139 37.6165C87.2017 36.9726 88.5273 36.1393 89.8909 35.1166C91.2544 34.0939 92.618 32.945 93.9816 31.6698C94.5438 31.1441 95.0931 30.6237 95.6295 30.1087C95.7278 29.804 95.8287 29.4975 95.9322 29.1889C96.5508 27.3456 97.2326 25.5023 97.9775 23.659C98.7224 21.8156 99.48 20.0986 100.25 18.5077C101.02 16.9169 101.771 15.5218 102.504 14.3224C103.236 13.123 103.88 12.2581 104.435 11.7278C104.688 11.5006 105.168 11.3743 105.875 11.3491C106.582 11.3238 107.283 11.3806 107.977 11.5195C108.671 11.6584 109.265 11.8604 109.757 12.1255C110.25 12.3907 110.407 12.6874 110.231 13.0156C109.978 13.4702 109.644 14.0383 109.227 14.7201C108.81 15.4019 108.368 16.1405 107.901 16.9359C107.434 17.7313 106.948 18.5519 106.443 19.3978C105.938 20.2438 105.471 21.0581 105.041 21.8409C104.612 22.6237 104.233 23.337 103.905 23.9809C103.577 24.6248 103.35 25.1488 103.223 25.5528C104.511 24.2397 105.755 23.4001 106.954 23.034C108.154 22.6679 109.145 22.7436 109.928 23.2613C110.71 23.7789 111.209 24.7132 111.424 26.0641C111.638 27.4151 111.417 29.1258 110.761 31.1964C110.382 32.3579 110.117 33.2291 109.965 33.8099C109.814 34.3906 109.7 34.8578 109.625 35.2113C109.524 35.7416 109.511 36.0825 109.587 36.234C109.662 36.3855 109.801 36.4044 110.003 36.2908C110.205 36.1771 110.452 35.9688 110.742 35.6658C111.032 35.3628 111.329 34.9967 111.632 34.5674C111.935 34.1886 112.238 33.7909 112.541 33.3743C112.76 33.0731 112.969 32.7852 113.168 32.5104C113.18 32.4763 113.192 32.4424 113.204 32.4084C113.419 31.8024 113.665 31.2216 113.942 30.6661C114.473 29.6308 115.104 28.665 115.836 27.7686C116.569 26.8721 117.364 26.0894 118.223 25.4202C119.081 24.7511 119.965 24.2208 120.874 23.8294C121.783 23.438 122.667 23.2423 123.525 23.2423C125.04 23.2423 126.132 23.5011 126.802 24.0188C127.471 24.5364 127.812 25.1993 127.824 26.0073C127.837 26.8153 127.578 27.7117 127.048 28.6965C126.517 29.6813 125.836 30.6535 125.002 31.613C124.169 32.5726 123.222 33.45 122.162 34.2454C121.101 35.0409 120.053 35.6532 119.018 36.0825C119.043 36.7642 119.169 37.2693 119.397 37.5975C119.624 37.9258 119.921 38.1278 120.287 38.2035C120.653 38.2793 121.07 38.2477 121.537 38.1089C122.004 37.97 122.465 37.749 122.919 37.446C123.374 37.1935 123.847 36.7958 124.34 36.2529C124.832 35.71 125.331 35.1166 125.836 34.4727C125.906 34.3835 125.975 34.2939 126.044 34.2038C126.158 33.1067 126.442 32.0348 126.896 30.9881C127.351 29.9401 127.95 28.949 128.695 28.0148C129.44 27.0805 130.267 26.2598 131.176 25.5528C132.085 24.8457 133.051 24.2839 134.074 23.8673C135.097 23.4506 136.113 23.2423 137.123 23.2423C137.577 23.2423 138.051 23.2991 138.543 23.4128C139.036 23.5264 139.497 23.7031 139.926 23.943C140.355 24.1829 140.715 24.4859 141.005 24.8521C141.296 25.2182 141.466 25.6538 141.517 26.1588C141.542 26.6638 141.466 27.213 141.289 27.8064C141.113 28.3998 140.892 28.9743 140.627 29.5298C140.361 30.0853 140.09 30.5904 139.812 31.0449C139.534 31.4994 139.32 31.8529 139.168 32.1054C138.941 32.3327 138.587 32.5663 138.108 32.8061C137.628 33.046 137.06 33.166 136.403 33.166C135.999 33.166 135.583 33.0839 135.153 32.9198C134.724 32.7556 134.364 32.5158 134.074 32.2001C133.783 31.8845 133.607 31.4994 133.544 31.0449C133.48 30.5904 133.638 30.0853 134.017 29.5298C134.446 28.9743 134.913 28.6145 135.418 28.4503C135.924 28.2862 136.416 28.141 136.896 28.0148C136.896 27.9138 136.934 27.7875 137.009 27.636C137.085 27.4845 137.142 27.3204 137.18 27.1436C137.218 26.9668 137.224 26.809 137.199 26.6701C137.173 26.5313 137.072 26.4239 136.896 26.3482H136.934C136.504 26.1209 136.025 26.1777 135.494 26.5186C134.964 26.8595 134.453 27.3709 133.96 28.0526C133.468 28.7344 133.026 29.5361 132.635 30.4578C132.243 31.3795 131.978 32.3074 131.839 33.2417C131.7 34.176 131.726 35.0598 131.915 35.8931C132.104 36.7264 132.54 37.4081 133.222 37.9384H133.184C133.84 38.3424 134.383 38.5129 134.812 38.4497C135.242 38.3866 135.759 38.1783 136.365 37.8248C136.769 37.5723 137.199 37.1935 137.653 36.6885C138.108 36.1835 138.581 35.609 139.074 34.9651C139.566 34.3212 140.065 33.6205 140.57 32.863C140.581 32.8453 140.593 32.8276 140.605 32.81C140.943 31.5301 141.373 30.2095 141.895 28.848C142.476 27.333 143.107 25.8369 143.789 24.3597C144.471 22.8825 145.178 21.4621 145.91 20.0986C146.643 18.735 147.337 17.4914 147.993 16.3677C148.65 15.244 149.237 14.2719 149.755 13.4512C150.272 12.6306 150.67 12.0435 150.948 11.69C151.251 11.4375 151.649 11.2796 152.141 11.2165C152.633 11.1534 153.138 11.166 153.656 11.2544C154.174 11.3428 154.653 11.5069 155.095 11.7468C155.537 11.9867 155.859 12.2581 156.061 12.5611C155.96 12.9399 155.752 13.4891 155.436 14.2088C155.121 14.9284 154.736 15.7301 154.281 16.6139C153.826 17.4977 153.347 18.413 152.842 19.36C152.337 20.3069 151.863 21.197 151.421 22.0303C150.979 22.8636 150.601 23.5832 150.285 24.1892C149.969 24.7953 149.774 25.1993 149.698 25.4013C150.43 24.8457 151.219 24.366 152.065 23.962C152.911 23.5579 153.801 23.3559 154.736 23.3559C155.998 23.3559 157.027 23.6779 157.822 24.3218C158.618 24.9657 159.079 25.881 159.205 27.0678C159.281 28.1284 159.072 29.1574 158.58 30.1548C158.088 31.1522 157.393 32.0486 156.497 32.844C155.6 33.6394 154.552 34.2896 153.353 34.7947C152.154 35.2997 150.872 35.6027 149.509 35.7037L151.781 37.1241C152.488 37.566 153.246 37.7238 154.054 37.5975C154.963 37.4713 155.777 37.1872 156.497 36.7453C157.216 36.3034 157.879 35.7668 158.485 35.1355C159.091 34.5043 159.653 33.8036 160.171 33.0334C160.231 32.944 160.291 32.8546 160.351 32.765C160.509 31.9657 160.708 31.2156 160.947 30.5146C161.781 28.444 162.589 26.4808 163.371 24.6248C164.154 22.7688 164.912 21.0707 165.644 19.5304C166.376 17.9901 167.058 16.6202 167.689 15.4208C168.321 14.2214 168.901 13.2177 169.432 12.4096C169.583 12.2329 169.987 12.0877 170.644 11.974C171.3 11.8604 172.001 11.8036 172.746 11.8036C173.491 11.8036 174.179 11.8604 174.81 11.974C175.441 12.0877 175.807 12.2834 175.908 12.5611C175.833 12.8641 175.681 13.2682 175.454 13.7732C175.227 14.2782 174.949 14.859 174.621 15.5155C174.292 16.172 173.926 16.8854 173.522 17.6555C173.118 18.4257 172.689 19.2274 172.234 20.0607C170.012 24.3029 168.005 28.7596 166.212 33.4311C166.01 33.8856 165.859 34.3843 165.758 34.9272C165.657 35.4701 165.644 35.9057 165.72 36.234C165.795 36.5622 165.972 36.7137 166.25 36.6885C166.528 36.6632 166.957 36.3097 167.538 35.6279C167.841 35.2492 168.175 34.8136 168.542 34.3212C168.908 33.8288 169.255 33.3238 169.583 32.8061C169.911 32.2885 170.221 31.7961 170.511 31.329C170.627 31.143 170.731 30.97 170.825 30.81V30.81ZM118.829 32.4084C119.182 32.2064 119.586 31.9476 120.041 31.632C120.495 31.3163 120.975 30.906 121.48 30.401C121.985 29.9465 122.402 29.4288 122.73 28.848C123.058 28.2673 123.273 27.7749 123.374 27.3709C123.475 26.9668 123.431 26.7206 123.241 26.6323C123.052 26.5439 122.705 26.7522 122.2 27.2572C121.871 27.5855 121.537 27.9832 121.196 28.4503C120.855 28.9175 120.533 29.3846 120.23 29.8518C119.927 30.3189 119.649 30.7608 119.397 31.1774C119.144 31.5941 118.955 31.916 118.829 32.1433V32.4084ZM151.516 28.4314C151.213 28.7092 150.885 29.0564 150.531 29.473C150.178 29.8896 149.824 30.3442 149.471 30.8366C149.117 31.329 148.776 31.8466 148.448 32.3895C148.12 32.9324 147.829 33.469 147.577 33.9992C148.637 33.8477 149.527 33.5952 150.247 33.2417C150.967 32.8882 151.548 32.4779 151.989 32.0107C152.431 31.5436 152.741 31.0638 152.917 30.5714C153.094 30.079 153.17 29.6308 153.145 29.2268C153.069 28.4188 152.905 27.9643 152.652 27.8632C152.4 27.7622 152.021 27.9516 151.516 28.4314V28.4314Z" clip-rule="evenodd"/><g id="Group_2"><path id="Vector_2" fill="#828D8C" fill-rule="evenodd" d="M50.3421 14.9366C50.2039 14.653 50.0025 14.3939 49.7023 14.2284C49.3718 14.0474 49.0107 14.0168 48.6724 14.0771L48.6484 14.0642C43.5637 14.9429 38.4333 18.8172 35.3386 24.7556C32.0045 31.1546 31.9563 38.1809 34.6723 42.9892C40.1283 42.5452 45.8248 38.5401 49.1589 32.1411C52.2662 26.1835 52.5159 19.6871 50.3421 14.9366" clip-rule="evenodd"/><g id="Vector_3"><path fill="#121716" d="M49.753 15.2123C49.6617 15.0263 49.5415 14.8878 49.392 14.8057C49.2196 14.7095 48.9967 14.6838 48.7851 14.7237C48.7346 14.7313 48.6838 14.7377 48.6382 14.7326C47.1871 14.9975 45.7481 15.5169 44.3666 16.2539C45.5656 16.5923 46.7794 17.0789 47.9618 17.7243C49.0789 18.3344 50.0974 19.0451 50.9969 19.8205C50.812 18.182 50.3989 16.6239 49.753 15.2123Z"/><path fill="#121716" d="M49.392 14.8057C49.5415 14.8878 49.6617 15.0263 49.753 15.2123C50.3989 16.6239 50.812 18.182 50.9969 19.8205C51.2378 20.0281 51.4702 20.2405 51.6937 20.4568C51.5443 18.4709 51.1008 16.594 50.3421 14.9366C50.2039 14.653 50.0025 14.3939 49.7023 14.2285C49.3718 14.0475 49.0107 14.0168 48.6724 14.0771L48.6484 14.0642C46.8952 14.3683 45.1421 15.0508 43.4622 16.0257C43.7622 16.0924 44.0639 16.1684 44.3666 16.2539C45.7481 15.5169 47.1871 14.9975 48.6382 14.7326C48.6838 14.7377 48.7346 14.7313 48.7851 14.7237C48.9967 14.6838 49.2196 14.7095 49.392 14.8057Z"/><path fill="#121716" fill-rule="evenodd" d="M34.6723 43.646C34.4405 43.646 34.2251 43.5203 34.1098 43.315C32.3288 40.1624 31.717 36.2713 32.253 32.2663C32.4681 30.659 32.868 29.0333 33.4514 27.4296C33.8172 26.4241 34.2551 25.4273 34.7648 24.4491C37.867 18.4953 43.0163 14.3708 48.5394 13.4164C48.5914 13.4061 48.6458 13.4048 48.6991 13.41C49.1563 13.3548 49.6162 13.4356 50.0102 13.6511C50.4003 13.8653 50.7069 14.2001 50.9235 14.6466C53.2593 19.7499 52.8008 26.5659 49.7327 32.4479C46.3847 38.8723 40.6337 43.1635 34.7243 43.6434L34.7209 43.6436C34.7043 43.6448 34.6888 43.646 34.6723 43.646ZM50.3421 14.9366C51.1008 16.594 51.5443 18.4709 51.6937 20.4568C51.4702 20.2405 51.2378 20.0281 50.9969 19.8205C51.1903 21.5346 51.134 23.3367 50.8332 25.1511C50.5137 27.078 49.9185 29.0186 49.054 30.8823C48.9056 31.2021 48.7493 31.5197 48.5851 31.8346C47.9851 32.9864 47.2954 34.0698 46.534 35.0713C45.255 32.9247 43.4584 31.0271 41.1454 29.6011C39.1434 28.3636 37.0111 27.6398 34.8736 27.3573C35.1744 26.581 35.5207 25.8139 35.9124 25.0623C36.1518 24.6028 36.4055 24.154 36.6723 23.7169C36.5071 23.7216 36.3428 23.7296 36.1797 23.741C37.3667 22.0423 38.6576 20.5184 40.0104 19.1714C40.1063 19.1849 40.2023 19.1992 40.2983 19.2144C41.5582 18.0201 42.9313 17.0195 44.3666 16.2539C44.0639 16.1684 43.7622 16.0924 43.4622 16.0257C45.1421 15.0508 46.8952 14.3683 48.6484 14.0642L48.6724 14.0771C49.0107 14.0168 49.3718 14.0475 49.7023 14.2285C50.0025 14.3939 50.2039 14.653 50.3421 14.9366ZM35.0345 42.2938C33.572 39.4867 33.092 35.9874 33.5715 32.3973C35.2149 32.6485 36.8631 33.2319 38.3915 34.1783C40.4248 35.4298 41.4345 37.275 42.3672 39.2191C40.0857 40.9122 37.5568 42.0006 35.0345 42.2938Z" clip-rule="evenodd"/><path fill="#121716" d="M40.0104 19.1714C38.6576 20.5184 37.3667 22.0423 36.1797 23.741C36.3428 23.7296 36.5071 23.7216 36.6723 23.7169C37.7055 22.0243 38.9357 20.5061 40.2983 19.2144C40.2023 19.1992 40.1063 19.1849 40.0104 19.1714Z"/><path fill="#121716" d="M36.6723 23.7169C39.0447 23.6501 41.6166 24.2779 43.9614 25.6702C46.204 26.9991 47.9449 28.8589 49.054 30.8823C49.9185 29.0186 50.5137 27.078 50.8332 25.1511C49.6249 23.735 48.1418 22.4728 46.4062 21.4421C44.4309 20.2678 42.3563 19.5408 40.2983 19.2144C38.9357 20.5061 37.7055 22.0243 36.6723 23.7169Z"/></g><g id="Vector_4"><path fill="#828D8C" fill-rule="evenodd" d="M34.672 8.86082C32.5502 11.0083 31.9813 13.9166 33.4027 15.3547C34.8227 16.7927 37.6945 16.2181 39.815 14.0693C41.9356 11.9218 42.5043 9.01349 41.0843 7.57544C39.6643 6.13738 36.7925 6.71332 34.672 8.86082Z" clip-rule="evenodd"/><path fill="#828D8C" fill-rule="evenodd" d="M15.2056 38.1078C17.3314 40.2604 17.8026 43.2778 16.2546 44.8442C14.7066 46.4119 11.7272 45.9384 9.60154 43.7844C7.47593 41.6292 7.00472 38.6144 8.55527 37.0467C10.1007 35.4779 13.0802 35.9538 15.2056 38.1078Z" clip-rule="evenodd"/><path fill="#828D8C" fill-rule="evenodd" d="M34.6352 38.1078C32.5096 40.2604 32.0384 43.2778 33.5864 44.8442C35.1344 46.4119 38.1137 45.9384 40.2395 43.7844C42.3651 41.6292 42.8363 38.6144 41.2858 37.0467C39.7403 35.4779 36.7609 35.9538 34.6352 38.1078Z" clip-rule="evenodd"/><path fill="#828D8C" fill-rule="evenodd" d="M24.9205 6.12708C30.7476 6.12708 35.8981 9.53048 39.2424 14.2015C43.3113 19.8819 45.6688 27.9346 43.248 34.7466C41.1983 40.517 36.2769 44.9018 30.4904 46.5721C28.6815 47.0956 26.8015 47.356 24.9205 47.356C23.0393 47.356 21.1594 47.0956 19.3505 46.5721C13.564 44.9018 8.64273 40.517 6.593 34.7466C4.20707 28.0323 6.4631 20.1125 10.4246 14.4472C12.4937 16.2811 15.1055 16.7044 16.4383 15.3547C17.7749 14.0023 17.3515 11.3495 15.5315 9.25215C18.2695 7.3157 21.4769 6.12708 24.9205 6.12708ZM15.5315 9.25215C15.4163 9.11932 15.2954 8.98872 15.169 8.86082C13.0484 6.71332 10.1767 6.13738 8.75661 7.57544C7.33662 9.01349 7.90546 11.9218 10.026 14.0693C10.1562 14.2013 10.2892 14.3273 10.4246 14.4472C10.4822 14.3649 10.5402 14.2829 10.5985 14.2015C11.9664 12.2909 13.6365 10.5924 15.5315 9.25215Z" clip-rule="evenodd"/><path fill="#828D8C" d="M10.4246 14.4472C12.4937 16.2811 15.1055 16.7044 16.4383 15.3547C17.7749 14.0023 17.3515 11.3495 15.5315 9.25215C13.6365 10.5924 11.9664 12.2909 10.5985 14.2015C10.5402 14.2829 10.4822 14.3649 10.4246 14.4472Z"/></g><g id="Vector_5"><path fill="#EDEDEA" fill-rule="evenodd" d="M40.6244 16.7864C40.3927 15.8538 39.8037 14.9686 39.2552 14.2015C38.5559 13.2239 37.7732 12.3079 36.9257 11.4612C33.9019 9.99108 30.4461 9.99366 27.8113 11.7934C26.4381 12.7325 25.4754 14.0437 24.9206 15.5381C24.3657 14.0437 23.403 12.7325 22.0299 11.7934C19.3949 9.99366 15.9392 9.99108 12.9155 11.4612C12.068 12.3079 11.2851 13.2239 10.586 14.2015C10.0374 14.9686 9.44832 15.8538 9.2166 16.7864C8.97456 17.7576 8.62628 19.061 8.67192 20.0436C8.74666 21.6421 9.72328 22.8198 11.0129 23.6652C11.3282 23.873 14.7017 26.4875 14.3875 26.6736C14.6257 26.5323 14.926 26.3605 15.2603 26.1822V26.4811C16.484 25.7588 18.2624 24.8736 19.4533 25.0121L19.4684 25.0147C19.5027 25.0186 19.5306 25.034 19.5635 25.0405C19.8916 25.1276 20.1791 25.2893 20.3995 25.5613C20.9087 26.1886 20.9544 26.9134 20.777 27.6177C20.9087 27.5202 21.0266 27.397 21.1546 27.2931C21.1406 27.7781 21.0316 28.1462 21.0316 28.1462L20.81 28.4618C22.1159 28.712 23.4879 28.8492 24.9079 28.8492H24.9282C26.3532 28.8492 27.7251 28.712 29.0312 28.4618L28.8095 28.1462C28.8095 28.1462 28.7006 27.7781 28.6866 27.2931C28.8145 27.397 28.9323 27.5202 29.0641 27.6177C28.8868 26.9134 28.9323 26.1886 29.4417 25.5613C29.662 25.2893 29.9496 25.1276 30.2777 25.0405C30.3106 25.034 30.3386 25.0186 30.3728 25.0147L30.3879 25.0121C31.5786 24.8736 33.3572 25.7588 34.5809 26.4811V26.1822C34.9152 26.3605 35.2155 26.5323 35.4537 26.6736C35.1395 26.4875 38.5128 23.873 38.8282 23.6652C40.1178 22.8198 41.0945 21.6421 41.1693 20.0436C41.2149 19.061 40.8665 17.7576 40.6244 16.7864Z" clip-rule="evenodd"/><path fill="#EDEDEA" fill-rule="evenodd" d="M24.9206 31.5266C21.0736 31.5266 17.7987 34.5712 16.56 38.833L16.4878 46.1039C16.6045 46.1393 16.7209 46.1753 16.8373 46.2112C17.2569 46.3409 17.6767 46.4706 18.108 46.5721C20.3209 47.0955 22.6202 47.356 24.9206 47.356C27.221 47.356 29.5202 47.0955 31.7333 46.5721C32.1645 46.4707 32.5841 46.341 33.0037 46.2113C33.1202 46.1753 33.2367 46.1393 33.3534 46.1039L33.2812 38.833C32.0425 34.5712 28.7675 31.5266 24.9206 31.5266Z" clip-rule="evenodd"/><path fill="#EDEDEA" fill-rule="evenodd" d="M14.4901 40.6043C15.658 41.7896 15.8506 43.5163 14.9171 44.463C13.9821 45.4099 12.2745 45.2175 11.1053 44.0321C9.93479 42.8455 9.74235 41.1174 10.6771 40.1705C11.6119 39.2239 13.3196 39.4188 14.4901 40.6043Z" clip-rule="evenodd"/><path fill="#EDEDEA" fill-rule="evenodd" d="M35.351 40.6043C34.1832 41.7896 33.9905 43.5163 34.9243 44.463C35.8591 45.4099 37.5666 45.2175 38.7358 44.0321C39.9063 42.8455 40.0988 41.1174 39.1639 40.1705C38.2291 39.2239 36.5214 39.4188 35.351 40.6043Z" clip-rule="evenodd"/></g><g id="Vector_6"><path fill="#121716" fill-rule="evenodd" d="M25.9238 21.4803C25.7048 21.5523 25.4755 21.5882 25.2462 21.6074C25.264 21.5676 25.2967 21.5369 25.2967 21.4919V20.6016C25.3374 20.5696 25.3818 20.5478 25.4171 20.5042L26.1062 19.6601C26.3786 19.3265 26.2508 19.0532 25.8225 19.0532H24.0187C23.5905 19.0532 23.4626 19.3265 23.7349 19.6601L24.424 20.5042C24.4849 20.5799 24.5583 20.6324 24.6331 20.6734V21.4919C24.6331 21.5369 24.6647 21.5676 24.6813 21.6074C24.4518 21.5868 24.2239 21.5509 24.006 21.4803C23.7247 21.3893 23.1433 21.0481 23.0635 21.5779V21.6741C23.0635 22.7351 23.9098 23.5946 24.9624 23.5972H24.9674C26.0202 23.5946 26.8662 22.7351 26.8662 21.6741C26.8662 21.642 26.8662 21.61 26.8662 21.5779C26.7865 21.0481 26.2051 21.3893 25.9238 21.4803Z" clip-rule="evenodd"/><path fill="#121716" fill-rule="evenodd" d="M19.7092 13.8729C19.1619 13.574 18.5514 13.4226 17.8938 13.4226C17.8853 13.4226 17.8767 13.4227 17.8682 13.4227C17.4219 13.4263 16.9763 13.5216 16.5447 13.6789C15.5156 14.0539 14.5663 14.7812 13.8768 15.4563C13.6726 15.6563 13.4912 15.8517 13.3373 16.032C13.1922 16.202 13.0481 16.3886 12.9088 16.588C11.6024 18.4583 10.7154 21.4617 13.3184 22.5618C14.3597 23.002 15.5073 23.1353 16.6272 23.1558C18.0573 23.184 19.5862 23.1508 20.715 22.1295C21.8601 21.093 22.045 19.3997 21.9386 17.9294C21.8006 16.0204 21.0088 14.5785 19.7092 13.8729Z" clip-rule="evenodd"/><path fill="#121716" fill-rule="evenodd" d="M10.9369 36.7785C10.1502 36.7785 9.48636 37.0314 9.01387 37.5112C8.92724 37.5987 8.84812 37.6928 8.77666 37.7929C8.45658 38.2413 8.29018 38.8102 8.28994 39.4536C8.28987 39.6597 8.30685 39.8736 8.34132 40.0935C8.51737 41.2289 9.1279 42.3745 10.0603 43.3201C11.2888 44.566 12.9506 45.194 14.2728 45.0573C14.8675 44.9958 15.3935 44.7797 15.7805 44.3954C15.7857 44.3902 15.791 44.3849 15.7962 44.3796C16.394 43.7741 16.6322 42.8582 16.4675 41.7984C16.2902 40.6619 15.6796 39.5163 14.7473 38.5722C13.6388 37.4496 12.215 36.7785 10.9369 36.7785ZM13.8707 46.4258C12.2315 46.4258 10.5088 45.6317 9.14316 44.2487C8.01818 43.1096 7.27851 41.7049 7.05937 40.2976C6.91922 39.3996 6.99847 38.5622 7.28201 37.8393C7.46717 37.3672 7.73947 36.9439 8.09468 36.5846C8.09542 36.5839 8.09615 36.5831 8.09688 36.5824C8.81635 35.8512 9.79805 35.465 10.9369 35.465C12.5747 35.465 14.2989 36.259 15.6644 37.6432C16.7894 38.7825 17.529 40.1847 17.7482 41.5933C17.98 43.079 17.6127 44.3988 16.7132 45.3086C15.9912 46.0396 15.0082 46.4258 13.8707 46.4258Z" clip-rule="evenodd"/><path fill="#121716" fill-rule="evenodd" d="M35.094 38.5722C34.1616 39.5163 33.5511 40.6619 33.3736 41.7984C33.209 42.8582 33.4472 43.7741 34.045 44.3796C34.0502 44.3849 34.0554 44.3901 34.0606 44.3952C34.4474 44.7795 34.9734 44.9957 35.5681 45.0572C36.8903 45.194 38.5522 44.5661 39.781 43.3201C40.7132 42.3745 41.3239 41.2289 41.4999 40.0935C41.5344 39.8736 41.5513 39.6598 41.5512 39.4536C41.551 38.8102 41.3846 38.2413 41.0645 37.7929C40.993 37.6928 40.9139 37.5987 40.8272 37.5112C40.3547 37.0314 39.6909 36.7785 38.9044 36.7785C37.6262 36.7785 36.2024 37.4496 35.094 38.5722ZM33.1279 45.3086C32.2286 44.3988 31.8612 43.079 32.0931 41.5933C32.3121 40.1847 33.052 38.7825 34.1769 37.6432C35.5425 36.259 37.2665 35.465 38.9044 35.465C40.0431 35.465 41.0249 35.8512 41.7444 36.5824C41.7451 36.5831 41.7458 36.5838 41.7465 36.5845C42.1017 36.9438 42.3741 37.3671 42.5592 37.8393C42.8428 38.5622 42.922 39.3996 42.7819 40.2976C42.5627 41.7049 41.8229 43.1096 40.6981 44.2487C39.3325 45.6317 37.6096 46.4258 35.9706 46.4258C34.833 46.4258 33.8499 46.0396 33.1279 45.3086Z" clip-rule="evenodd"/><path fill="#121716" d="M31.9473 13.4226C31.2898 13.4226 30.6793 13.574 30.1321 13.8729C28.8323 14.5785 28.0406 16.0204 27.9025 17.9294C27.7961 19.3997 27.981 21.093 29.1262 22.1295C30.255 23.1508 31.7839 23.184 33.2141 23.1558C34.3338 23.1353 35.4816 23.002 36.5229 22.5618C39.1258 21.4617 38.2389 18.4583 36.9324 16.5881C36.7931 16.3886 36.649 16.202 36.5038 16.032C36.3499 15.8517 36.1685 15.6563 35.9643 15.4563C35.2749 14.7812 34.3255 14.0539 33.2965 13.6789C32.8649 13.5216 32.4193 13.4263 31.973 13.4227L31.9473 13.4226Z"/><path fill="#121716" fill-rule="evenodd" d="M8.29822 7.11092C6.59946 8.83129 7.15686 12.0923 9.56746 14.5336L9.57332 14.5395C6.06128 19.7971 3.39963 27.7005 5.98258 34.9686C6.33667 35.9655 6.77241 36.9248 7.28201 37.8393C7.46717 37.3672 7.73947 36.9439 8.09468 36.5846C7.7526 35.918 7.45426 35.23 7.20377 34.5246C6.64862 32.9628 6.34994 31.2629 6.29463 29.4915C5.85169 28.8675 5.48427 28.1748 5.20095 27.4214C5.07308 27.0827 5.24023 26.703 5.57594 26.5746C5.88415 26.4527 6.23423 26.5916 6.38284 26.8874C6.75597 23.0248 8.19113 18.9856 10.5641 15.4009C10.7454 15.1271 10.9322 14.8558 11.1244 14.5875C11.1865 14.5007 11.2491 14.4146 11.3121 14.329C11.5876 13.9552 11.8717 13.5939 12.1637 13.2453C12.8487 12.4276 13.5775 11.6803 14.3426 11.0076C14.6902 10.7019 15.0453 10.4117 15.4072 10.1372C15.7562 9.8725 16.1116 9.62246 16.4727 9.38748C17.6824 8.6001 18.9561 7.98163 20.2701 7.54541L20.2728 7.5535C20.4794 7.48038 20.6985 7.43287 20.9329 7.43287C21.309 7.43287 21.7068 7.58956 22.0172 7.79732C23.1851 8.59262 24.0402 9.66508 24.6178 10.8801C24.6824 10.9736 24.7762 11.048 24.9092 11.048C25.0561 11.048 25.1612 10.9609 25.2247 10.8532H25.2347C25.8137 9.64977 26.6638 8.58761 27.824 7.79732C28.1343 7.58956 28.5321 7.43287 28.9083 7.43287C29.1427 7.43287 29.3617 7.48038 29.5683 7.5535V7.54445C30.8832 7.98071 32.1579 8.59947 33.3686 9.38738C33.7297 9.62235 34.0851 9.87237 34.4341 10.1371C34.796 10.4115 35.1512 10.7017 35.4988 11.0073C36.264 11.68 36.9929 12.4273 37.6781 13.2449C37.9702 13.5934 38.2543 13.9547 38.5299 14.3284C38.5931 14.4141 38.6558 14.5005 38.7181 14.5875C38.9101 14.8556 39.0967 15.1267 39.2779 15.4003C41.6503 18.9851 43.0854 23.0244 43.4584 26.8871C43.6071 26.5915 43.9571 26.4528 44.2653 26.5746C44.6009 26.703 44.7682 27.0827 44.6402 27.4214C44.3569 28.1748 43.9895 28.8675 43.5466 29.4915C43.4912 31.2629 43.1925 32.9628 42.6373 34.5246C42.3868 35.23 42.0885 35.9179 41.7465 36.5845C42.1017 36.9438 42.3741 37.3671 42.5592 37.8393C43.0688 36.9248 43.5046 35.9655 43.8587 34.9686C46.4417 27.7001 43.7797 19.7964 40.2685 14.5388L40.2736 14.5336C42.6842 12.0923 43.2418 8.83129 41.5429 7.11092C40.9071 6.46687 40.0317 6.12703 39.0095 6.12703C37.4143 6.12703 35.6277 6.96994 34.226 8.38377C31.3804 6.49202 28.1886 5.47025 24.9206 5.47025C21.6526 5.47025 18.4606 6.49207 15.6153 8.38392C14.2135 6.97001 12.4269 6.12703 10.8317 6.12703C9.80949 6.12703 8.93418 6.46687 8.29822 7.11092ZM9.21536 8.03972C9.70423 7.54463 10.3642 7.44074 10.8317 7.44074C12.034 7.44074 13.4036 8.07759 14.5373 9.15512C14.1787 9.43041 13.8266 9.72015 13.4815 10.024C12.6757 10.7336 11.9085 11.5201 11.1874 12.3792C10.8969 12.7254 10.6138 13.0834 10.3387 13.453C8.62144 11.6119 8.10112 9.16813 9.21536 8.03972ZM39.0095 7.44074C39.4769 7.44074 40.1369 7.54463 40.6259 8.03972C41.74 9.16798 41.2198 11.6112 39.5031 13.4523C39.228 13.0828 38.9449 12.7248 38.6543 12.3787C37.9331 11.5197 37.1658 10.7333 36.36 10.0238C36.0149 9.71996 35.6627 9.43024 35.3041 9.15497C36.4378 8.07753 37.8072 7.44074 39.0095 7.44074Z" clip-rule="evenodd"/><path fill="#121716" d="M5.57594 26.5746C5.24023 26.703 5.07308 27.0827 5.20095 27.4214C5.48427 28.1748 5.85169 28.8675 6.29463 29.4915C6.26797 28.6376 6.29786 27.7671 6.38284 26.8874C6.23423 26.5916 5.88415 26.4527 5.57594 26.5746Z"/><path fill="#121716" d="M11.5754 28.6928C11.7032 28.83 11.8756 28.8993 12.0479 28.8993C12.2074 28.8993 12.367 28.8403 12.4925 28.721C12.8534 28.3771 13.9258 27.4201 14.5734 27.0974C14.6054 27.0828 14.6365 27.0656 14.6662 27.0455C15.4567 26.5131 17.9636 25.1507 19.1303 25.8563C19.6977 26.2013 20.0005 26.6761 20.0296 27.2675C20.0816 28.3335 19.238 29.6292 17.7723 30.735C16.2674 31.8704 13.611 32.1898 11.3144 31.5137C9.67894 31.0326 7.50148 29.8498 6.41197 26.9544C6.40339 26.9313 6.39364 26.9089 6.38284 26.8874C6.29786 27.7671 6.26797 28.6376 6.29463 29.4915C7.41227 31.0661 9.0107 32.2034 10.9521 32.7749C11.8818 33.0493 12.8535 33.1827 13.8036 33.1827C15.6124 33.1827 17.3415 32.6992 18.5475 31.7896C20.3881 30.4002 21.4003 28.7287 21.3243 27.2021C21.2736 26.1757 20.7314 25.2983 19.7966 24.7299C18.0066 23.6396 15.2185 25.1583 14.2533 25.7549C13.4577 25.3598 12.756 24.7824 12.1137 24.1706C11.3397 23.4342 10.8532 22.971 10.3365 22.0038C10.2149 21.8242 10.0248 21.6908 9.79296 21.6908C9.03422 21.6908 9.04694 22.5041 9.34831 22.9839C10.2782 24.4618 11.3397 25.4189 12.7749 26.3963C12.855 26.4508 12.936 26.5044 13.0179 26.5568C12.3305 27.0768 11.7024 27.6695 11.6032 27.7639C11.3422 28.0128 11.3295 28.4285 11.5754 28.6928Z"/><path fill="#121716" d="M37.7934 28.8993C37.9656 28.8993 38.138 28.83 38.2659 28.6928C38.5116 28.4285 38.4989 28.0128 38.238 27.7639C38.1389 27.6695 37.5108 27.0767 36.8233 26.5568C36.9052 26.5044 36.9862 26.4508 37.0663 26.3963C38.5015 25.4189 39.5631 24.4618 40.4929 22.9839C40.7944 22.5041 40.8069 21.6908 40.0481 21.6908C39.8164 21.6908 39.6264 21.8242 39.5049 22.0038C38.9879 22.971 38.5015 23.4342 37.7274 24.1706C37.0854 24.7824 36.3836 25.3598 35.5879 25.7549C34.6228 25.1583 31.8345 23.6396 30.0446 24.7299C29.1097 25.2983 28.5675 26.1757 28.5169 27.2021C28.4409 28.7287 29.453 30.4002 31.2936 31.7896C32.4996 32.6992 34.2287 33.1827 36.0377 33.1827C36.9877 33.1827 37.9593 33.0493 38.8891 32.7749C40.8306 32.2034 42.429 31.0661 43.5466 29.4915C43.9895 28.8675 44.3569 28.1748 44.6402 27.4214C44.7682 27.0827 44.6009 26.703 44.2653 26.5746C43.9571 26.4528 43.6071 26.5915 43.4584 26.8871C43.4476 26.9087 43.4378 26.9312 43.4291 26.9544C42.3398 29.8498 40.1623 31.0326 38.5268 31.5137C36.2303 32.1898 33.5738 31.8704 32.0689 30.735C30.6033 29.6292 29.7596 28.3335 29.8115 27.2675C29.8407 26.6761 30.1435 26.2013 30.7109 25.8563C31.8776 25.1507 34.3846 26.5131 35.1749 27.0455C35.2045 27.0655 35.2353 27.0826 35.2672 27.0971C35.9149 27.4196 36.9878 28.377 37.3487 28.721C37.4741 28.8403 37.6337 28.8993 37.7934 28.8993Z"/><path fill="#121716" d="M36.36 10.0238C37.1658 10.7333 37.9331 11.5197 38.6543 12.3787C39.5217 11.3467 39.7605 10.1152 39.1692 9.51627C38.5799 8.91966 37.3752 9.15637 36.36 10.0238Z"/><path fill="#121716" fill-rule="evenodd" d="M11.1874 12.3792C11.9085 11.5201 12.6757 10.7336 13.4815 10.024C12.4662 9.15641 11.2614 8.91961 10.6721 9.51627C10.0807 10.1153 10.3197 11.3472 11.1874 12.3792ZM14.2728 45.0573C14.8675 44.9958 15.3935 44.7797 15.7805 44.3954C16.9638 45.0415 18.2205 45.5636 19.528 45.9411C23.0091 46.9467 26.8334 46.9467 30.3119 45.9411C31.6199 45.5636 32.8769 45.0413 34.0606 44.3952C34.4474 44.7795 34.9734 44.9957 35.5681 45.0572C34.058 45.9734 32.4126 46.6999 30.668 47.2032C28.8134 47.7408 26.8789 48.0127 24.9206 48.0127C22.9622 48.0127 21.0279 47.7408 19.172 47.2032C17.4278 46.6999 15.7827 45.9734 14.2728 45.0573Z" clip-rule="evenodd"/></g><g id="Vector_7"><path fill="#FFFFFE" fill-rule="evenodd" d="M19.7776 16.939C19.7573 16.6876 19.485 16.4104 19.3253 16.2668C18.9694 15.9524 18.5146 15.778 18.0421 15.778C17.8928 15.778 17.7395 15.7946 17.5836 15.828C16.9807 15.9562 16.4739 16.3244 16.194 16.8388C16.0876 17.0339 15.9065 17.4226 15.9532 17.6446C15.9925 17.8293 16.1649 17.9562 16.3409 17.9883C16.5752 18.0319 16.6665 17.9203 16.778 17.728C16.7994 17.6906 16.8222 17.6522 16.8476 17.6112C17.187 17.0788 17.666 16.7863 18.1967 16.7863C18.4944 16.7863 18.6755 16.8735 18.9454 17.0545C19.1227 17.1738 19.3166 17.4136 19.5572 17.2853C19.7307 17.1917 19.7878 17.0698 19.7776 16.939Z" clip-rule="evenodd"/><path fill="#FFFFFE" fill-rule="evenodd" d="M30.0636 16.939C30.084 16.6876 30.3564 16.4104 30.5159 16.2668C30.8719 15.9524 31.3266 15.778 31.7991 15.778C31.9486 15.778 32.1019 15.7946 32.2577 15.828C32.8606 15.9562 33.3675 16.3244 33.6474 16.8388C33.7538 17.0339 33.9349 17.4226 33.8881 17.6446C33.8487 17.8293 33.6766 17.9562 33.5003 17.9883C33.266 18.0319 33.1749 17.9203 33.0634 17.728C33.0418 17.6906 33.019 17.6522 32.9937 17.6112C32.6542 17.0788 32.1755 16.7863 31.6447 16.7863C31.3468 16.7863 31.1658 16.8735 30.896 17.0545C30.7186 17.1738 30.5248 17.4136 30.2842 17.2853C30.1105 17.1917 30.0536 17.0698 30.0636 16.939Z" clip-rule="evenodd"/></g></g></g></g></svg>