<svg xmlns="http://www.w3.org/2000/svg" fill="none" aria-hidden="true" viewBox="0 0 198 61"><path fill="#45C8F1" fill-rule="evenodd" d="M170.825 30.81a83.815 83.815 0 0 1 2.243-5.068c.151-.454.322-.858.511-1.212.189-.353.385-.745.587-1.174.051-.05.227-.101.53-.152.303-.05.676-.094 1.118-.132.442-.038.915-.05 1.42-.038.505.013.985.057 1.439.133a5.62 5.62 0 0 1 1.194.321c.34.14.561.323.662.55-.202.378-.517.947-.946 1.704-.43.758-.872 1.591-1.326 2.5-.455.91-.878 1.85-1.269 2.822-.391.972-.638 1.85-.739 2.632-.176 1.111-.195 1.881-.056 2.31.138.43.372.62.7.569.329-.05.72-.303 1.174-.758.455-.454.909-1.01 1.364-1.666.833-1.692 1.528-3.1 2.083-4.224a193.125 193.125 0 0 1 1.44-2.86c.404-.782.738-1.432 1.003-1.95.265-.517.537-1.016.815-1.496a7.838 7.838 0 0 1 1.382-.303 7.966 7.966 0 0 1 1.648-.057 7.719 7.719 0 0 1 1.572.265c.492.14.852.36 1.079.663l-.871 2.008c-.354.833-.739 1.742-1.155 2.727-.417.985-.846 1.982-1.288 2.992-.442 1.01-.865 2.001-1.269 2.973-.404.972-.77 1.863-1.098 2.67.252-.201.511-.454.776-.757s.575-.72.928-1.25c.354-.53.795-1.212 1.326-2.045.53-.833 1.187-1.894 1.969-3.182.404-.682.84-1.086 1.307-1.212.467-.126.871-.095 1.212.095.341.19.575.48.701.871s.05.776-.227 1.155a98.156 98.156 0 0 1-1.894 3.277 31.357 31.357 0 0 1-2.292 3.314 18.736 18.736 0 0 1-2.575 2.689c-.897.758-1.8 1.225-2.709 1.401a23.335 23.335 0 0 1-.965 2.993 43.368 43.368 0 0 1-1.383 3.143 55.323 55.323 0 0 1-1.572 2.993 45.932 45.932 0 0 1-1.534 2.537c-.353.556-.82.96-1.401 1.212a3.951 3.951 0 0 1-1.761.341 3.802 3.802 0 0 1-1.686-.473 2.641 2.641 0 0 1-1.174-1.307 3.971 3.971 0 0 1-.171-1.988 6.71 6.71 0 0 1 .701-2.008c.354-.669.789-1.338 1.307-2.007a57.07 57.07 0 0 1 1.61-1.989c.404-.48.789-.94 1.155-1.382.366-.442.707-.89 1.022-1.345.316-.454.6-.934.853-1.44a8.398 8.398 0 0 0 .606-1.628c-.43.404-.871.77-1.326 1.099a7.35 7.35 0 0 1-1.439.814 5.288 5.288 0 0 1-1.61.398 5.007 5.007 0 0 1-1.799-.19c-1.338-.353-2.285-1.016-2.841-1.988a4.802 4.802 0 0 1-.389-.875c-.39.535-.822 1.022-1.296 1.462a7.373 7.373 0 0 1-1.724 1.193c-.631.316-1.338.473-2.121.473-1.313-.176-2.291-.681-2.935-1.515a6.249 6.249 0 0 1-1.043-2.044 24 24 0 0 1-.567.68c-.808.935-1.635 1.667-2.481 2.198-.846.53-1.711.795-2.594.795-.43 0-.998-.158-1.705-.474a19.853 19.853 0 0 1-2.291-1.23 24.915 24.915 0 0 1-2.425-1.705 18.073 18.073 0 0 1-2.064-1.894c-.278.808-.492 1.78-.644 2.917-.151 1.136-.05 2.588.303 4.355-.985-.202-1.811-.46-2.481-.776-.669-.316-1.224-.644-1.666-.985-.442-.34-.783-.669-1.023-.984-.24-.316-.398-.575-.473-.777a7.143 7.143 0 0 1-.345-1.516 23.93 23.93 0 0 1-1.019 1.062c-.631.58-1.427 1.041-2.386 1.382-.96.34-1.995.511-3.106.511a7.91 7.91 0 0 1-2.235-.322 8.282 8.282 0 0 1-2.045-.909 7.216 7.216 0 0 1-1.667-1.42 5.395 5.395 0 0 1-.688-1.006c-.148.162-.297.32-.448.476a12.24 12.24 0 0 1-3.049 2.31c-1.098.58-2.317.871-3.655.871-.606 0-1.25-.082-1.932-.246a8.432 8.432 0 0 1-1.931-.72 6.612 6.612 0 0 1-1.629-1.193 4.138 4.138 0 0 1-.838-1.19 15.99 15.99 0 0 1-.791.925c-.909.985-1.887 1.717-2.935 2.197s-2.241.606-3.58.379c-.555-.101-1.016-.259-1.382-.474a3.463 3.463 0 0 1-.89-.72 2.79 2.79 0 0 1-.512-.87 3.686 3.686 0 0 1-.208-.966 7.885 7.885 0 0 1 .133-2.065 21.76 21.76 0 0 1 .549-2.253c.227-.758.48-1.496.757-2.216.278-.72.531-1.37.758-1.95.202-.581.354-1.042.455-1.383.101-.341.113-.575.037-.7-.075-.127-.258-.159-.549-.095-.29.063-.713.208-1.269.435-.631.278-1.199.707-1.704 1.288a9.07 9.07 0 0 0-1.326 2.064 17.227 17.227 0 0 0-.966 2.538 21.082 21.082 0 0 0-.852 5.265c-.025.82 0 1.521.076 2.102a327.23 327.23 0 0 1-2.557-.758c-.669-.202-1.212-.41-1.629-.625-.416-.214-.72-.448-.909-.7-.189-.253-.334-.581-.435-.985.045-.588.123-1.215.234-1.881-.349.395-.717.782-1.105 1.161a20.241 20.241 0 0 1-3.485 2.727 18.104 18.104 0 0 1-4.015 1.856c-1.414.455-2.84.682-4.28.682-1.515 0-3.043-.278-4.583-.833a13.033 13.033 0 0 1-4.147-2.424c-1.225-1.06-2.216-2.355-2.974-3.883-.757-1.527-1.11-3.276-1.06-5.246.05-1.186.31-2.417.776-3.693a19.655 19.655 0 0 1 1.894-3.787 28.348 28.348 0 0 1 2.803-3.674 36.217 36.217 0 0 1 3.447-3.371 33.161 33.161 0 0 1 3.844-2.841 28.473 28.473 0 0 1 4.053-2.14c1.49-.58 2.973-.972 4.45-1.174 1.478-.202 2.797-.127 3.959.227 1.161.354 2.095 1.054 2.802 2.102.707 1.048 1.048 2.532 1.023 4.45-.025 1.263-.372 2.475-1.042 3.637a12.995 12.995 0 0 1-2.462 3.087c-.972.896-2.02 1.61-3.143 2.14-1.124.53-2.14.795-3.05.795-.403 0-.877-.126-1.42-.379a8.743 8.743 0 0 1-1.647-1.022 14.49 14.49 0 0 0 3.409-2.765c.984-1.086 1.704-2.134 2.158-3.144.581-1.566.727-2.632.436-3.2-.29-.569-.833-.809-1.629-.72-.795.088-1.755.435-2.878 1.041a26.144 26.144 0 0 0-3.277 2.103 25.202 25.202 0 0 0-2.84 2.462c-.834.846-1.364 1.546-1.591 2.102a13.754 13.754 0 0 0-1.875 3.049 13.152 13.152 0 0 0-1.004 3.295 10.486 10.486 0 0 0-.038 3.2c.152 1.036.505 1.958 1.061 2.766.555.808 1.326 1.458 2.31 1.95.985.493 2.21.764 3.674.815 1.086.05 2.273-.247 3.56-.89 1.289-.644 2.614-1.478 3.978-2.5a49.423 49.423 0 0 0 4.09-3.447c.563-.526 1.112-1.046 1.648-1.561a97.84 97.84 0 0 1 2.348-6.45 84.566 84.566 0 0 1 2.273-5.151c.77-1.591 1.521-2.986 2.254-4.186.732-1.199 1.376-2.064 1.931-2.594.253-.227.733-.354 1.44-.379a9.031 9.031 0 0 1 2.102.17c.694.14 1.288.341 1.78.607.493.265.65.561.474.89a49.619 49.619 0 0 1-1.004 1.704c-.417.682-.859 1.42-1.326 2.216-.467.795-.953 1.616-1.458 2.462a78.688 78.688 0 0 0-2.538 4.583c-.328.644-.555 1.168-.682 1.572 1.288-1.313 2.532-2.153 3.731-2.519 1.2-.366 2.191-.29 2.974.227.782.518 1.281 1.452 1.496 2.803.214 1.351-.007 3.062-.663 5.132a50.376 50.376 0 0 0-.796 2.614c-.151.58-.265 1.048-.34 1.401-.101.53-.114.872-.038 1.023.075.151.214.17.416.057.202-.114.449-.322.739-.625s.587-.67.89-1.099c.303-.378.606-.776.909-1.193.219-.3.428-.589.627-.864l.036-.102a15.59 15.59 0 0 1 .738-1.742 16.4 16.4 0 0 1 1.894-2.897 14.97 14.97 0 0 1 2.387-2.349 12.04 12.04 0 0 1 2.651-1.59c.909-.392 1.793-.588 2.651-.588 1.515 0 2.607.26 3.277.777.669.517 1.01 1.18 1.022 1.988.013.808-.246 1.705-.776 2.69a16.145 16.145 0 0 1-2.046 2.916c-.833.96-1.78 1.837-2.84 2.632-1.061.796-2.109 1.408-3.144 1.838.025.681.151 1.186.379 1.514a1.4 1.4 0 0 0 .89.606c.366.076.783.045 1.25-.094.467-.139.928-.36 1.382-.663.455-.252.928-.65 1.421-1.193a32.74 32.74 0 0 0 1.704-2.05 10.87 10.87 0 0 1 .852-3.215 13.167 13.167 0 0 1 1.799-2.973 14.76 14.76 0 0 1 2.481-2.462 12.203 12.203 0 0 1 2.898-1.686c1.023-.416 2.039-.625 3.049-.625.454 0 .928.057 1.42.17a5.23 5.23 0 0 1 1.383.531c.429.24.789.543 1.079.91.291.365.461.8.512 1.306.025.505-.051 1.054-.228 1.647a11.77 11.77 0 0 1-.662 1.724c-.266.555-.537 1.06-.815 1.515-.278.454-.492.808-.644 1.06-.227.228-.581.461-1.06.701-.48.24-1.048.36-1.705.36-.404 0-.82-.082-1.25-.246a2.797 2.797 0 0 1-1.079-.72 2.08 2.08 0 0 1-.53-1.155c-.064-.455.094-.96.473-1.515.429-.556.896-.916 1.401-1.08.506-.164.998-.309 1.478-.435 0-.101.038-.227.113-.379.076-.151.133-.316.171-.492.038-.177.044-.335.019-.474-.026-.139-.127-.246-.303-.322h.038c-.43-.227-.909-.17-1.44.17-.53.341-1.041.853-1.534 1.535-.492.681-.934 1.483-1.325 2.405a11.37 11.37 0 0 0-.796 2.784c-.139.934-.113 1.818.076 2.651a3.503 3.503 0 0 0 1.307 2.045h-.038c.656.404 1.199.575 1.628.512.43-.063.947-.272 1.553-.625.404-.253.834-.632 1.288-1.137.455-.505.928-1.079 1.421-1.723a40.119 40.119 0 0 0 1.531-2.155c.338-1.28.768-2.6 1.29-3.962a73.437 73.437 0 0 1 1.894-4.488 79.143 79.143 0 0 1 2.121-4.261 122.2 122.2 0 0 1 2.083-3.731 102.094 102.094 0 0 1 1.762-2.917c.517-.82.915-1.408 1.193-1.761.303-.252.701-.41 1.193-.473a5.086 5.086 0 0 1 1.515.037c.518.089.997.253 1.439.493.442.24.764.511.966.814-.101.379-.309.928-.625 1.648-.315.72-.7 1.521-1.155 2.405-.455.884-.934 1.799-1.439 2.746-.505.947-.979 1.837-1.421 2.67-.442.834-.82 1.553-1.136 2.16-.316.605-.511 1.01-.587 1.211a13.587 13.587 0 0 1 2.367-1.439 6.12 6.12 0 0 1 2.671-.606c1.262 0 2.291.322 3.086.966.796.644 1.257 1.559 1.383 2.746.076 1.06-.133 2.09-.625 3.087-.492.997-1.187 1.894-2.083 2.689a11.296 11.296 0 0 1-3.144 1.95 12.149 12.149 0 0 1-3.844.91l2.272 1.42c.707.442 1.465.6 2.273.473a6.258 6.258 0 0 0 2.443-.852 10.032 10.032 0 0 0 1.988-1.61 15.58 15.58 0 0 0 1.686-2.102l.18-.268c.158-.8.357-1.55.596-2.25a400.567 400.567 0 0 1 2.424-5.89 126.206 126.206 0 0 1 2.273-5.095 114.73 114.73 0 0 1 2.045-4.11c.632-1.199 1.212-2.202 1.743-3.01.151-.177.555-.322 1.212-.436.656-.114 1.357-.17 2.102-.17.745 0 1.433.056 2.064.17.631.114.997.31 1.098.587-.075.303-.227.707-.454 1.212a48.004 48.004 0 0 1-.833 1.742c-.329.657-.695 1.37-1.099 2.14s-.833 1.572-1.288 2.406a126.405 126.405 0 0 0-6.022 13.37 6.68 6.68 0 0 0-.454 1.496c-.101.543-.114.979-.038 1.307.075.328.252.48.53.454.278-.025.707-.378 1.288-1.06.303-.379.637-.814 1.004-1.307a24.47 24.47 0 0 0 1.041-1.515c.328-.517.638-1.01.928-1.477.116-.186.22-.359.314-.519Zm-51.996 1.598c.353-.202.757-.46 1.212-.776.454-.316.934-.726 1.439-1.231a6.143 6.143 0 0 0 1.25-1.553c.328-.58.543-1.073.644-1.477.101-.404.057-.65-.133-.739-.189-.088-.536.12-1.041.625-.329.328-.663.726-1.004 1.193a30.87 30.87 0 0 0-.966 1.402c-.303.467-.581.909-.833 1.325a30.36 30.36 0 0 0-.568.966v.265Zm32.687-3.977a11.7 11.7 0 0 0-.985 1.042 23.296 23.296 0 0 0-2.083 2.916 18.37 18.37 0 0 0-.871 1.61c1.06-.151 1.95-.404 2.67-.757.72-.354 1.301-.764 1.742-1.231.442-.467.752-.947.928-1.44.177-.492.253-.94.228-1.344-.076-.808-.24-1.263-.493-1.364-.252-.1-.631.089-1.136.568Z" clip-rule="evenodd"/><path fill="#828D8C" fill-rule="evenodd" d="M50.342 14.937c-.138-.284-.34-.543-.64-.709a1.55 1.55 0 0 0-1.03-.15l-.024-.014c-5.084.879-10.215 4.753-13.31 10.692-3.334 6.399-3.382 13.425-.666 18.233 5.456-.444 11.153-4.449 14.487-10.848 3.107-5.957 3.357-12.454 1.183-17.204" clip-rule="evenodd"/><g fill="#121716"><path d="M49.753 15.212a.895.895 0 0 0-.361-.406.918.918 0 0 0-.607-.082.585.585 0 0 1-.147.009c-1.45.264-2.89.784-4.271 1.52a17.547 17.547 0 0 1 6.63 3.567c-.185-1.638-.598-3.196-1.244-4.608Z"/><path d="M49.392 14.806c.15.082.27.22.361.406.646 1.412 1.059 2.97 1.244 4.608.24.208.473.42.697.637-.15-1.986-.593-3.863-1.352-5.52-.138-.284-.34-.543-.64-.708a1.55 1.55 0 0 0-1.03-.152l-.024-.013c-1.753.304-3.506.987-5.186 1.962.3.066.602.142.905.228 1.381-.737 2.82-1.257 4.271-1.521a.585.585 0 0 0 .147-.01.918.918 0 0 1 .607.083Z"/><path fill-rule="evenodd" d="M34.672 43.646a.646.646 0 0 1-.562-.331c-1.781-3.153-2.393-7.044-1.857-11.049a23.16 23.16 0 0 1 1.198-4.836 24.807 24.807 0 0 1 1.314-2.98c3.102-5.955 8.251-10.08 13.774-11.034a.55.55 0 0 1 .16-.006 2.19 2.19 0 0 1 1.311.241c.39.214.697.55.913.996 2.336 5.103 1.878 11.919-1.19 17.8-3.348 6.425-9.1 10.716-15.009 11.196h-.003a.403.403 0 0 1-.049.003Zm15.67-28.71c.759 1.658 1.202 3.535 1.352 5.52a16.349 16.349 0 0 0-.697-.636 19.4 19.4 0 0 1-.164 5.331 22.359 22.359 0 0 1-2.248 6.684 22.617 22.617 0 0 1-2.051 3.236 16.046 16.046 0 0 0-5.389-5.47 15.823 15.823 0 0 0-6.271-2.244 22.764 22.764 0 0 1 1.798-3.64c-.165.005-.33.013-.492.024a33.627 33.627 0 0 1 3.83-4.57l.288.043a18.838 18.838 0 0 1 4.069-2.96 16.51 16.51 0 0 0-.905-.228c1.68-.975 3.433-1.658 5.186-1.962l.024.013c.339-.06.7-.03 1.03.152.3.165.502.424.64.708ZM35.035 42.295c-1.463-2.807-1.943-6.307-1.463-9.897 1.643.252 3.291.835 4.82 1.781 2.033 1.252 3.042 3.097 3.975 5.041-2.281 1.693-4.81 2.782-7.332 3.075Z" clip-rule="evenodd"/><path d="M40.01 19.171a33.627 33.627 0 0 0-3.83 4.57c.163-.011.327-.02.492-.024a22.02 22.02 0 0 1 3.626-4.503c-.096-.015-.192-.03-.288-.043Z"/><path d="M36.672 23.717c2.373-.067 4.945.56 7.29 1.953 2.242 1.33 3.983 3.189 5.092 5.212a22.359 22.359 0 0 0 1.78-5.73 17.647 17.647 0 0 0-4.428-3.71 17.225 17.225 0 0 0-6.108-2.228 22.02 22.02 0 0 0-3.626 4.503Z"/></g><g fill="#828D8C"><path fill-rule="evenodd" d="M34.672 8.86c-2.122 2.148-2.69 5.057-1.27 6.495 1.42 1.438 4.292.863 6.413-1.286 2.12-2.147 2.69-5.056 1.27-6.494-1.42-1.438-4.293-.862-6.413 1.286ZM15.206 38.108c2.125 2.152 2.597 5.17 1.049 6.736-1.548 1.568-4.528 1.094-6.653-1.06-2.126-2.155-2.597-5.17-1.047-6.737 1.546-1.57 4.525-1.093 6.65 1.06Zm19.429 0c-2.125 2.152-2.597 5.17-1.049 6.736 1.548 1.568 4.528 1.094 6.654-1.06 2.125-2.155 2.596-5.17 1.046-6.737-1.546-1.57-4.525-1.093-6.65 1.06Z" clip-rule="evenodd"/><path fill-rule="evenodd" d="M24.92 6.127c5.828 0 10.978 3.403 14.322 8.075 4.07 5.68 6.427 13.733 4.006 20.545-2.05 5.77-6.971 10.155-12.758 11.825a20.056 20.056 0 0 1-5.57.784c-1.88 0-3.76-.26-5.57-.784-5.786-1.67-10.707-6.055-12.757-11.825-2.386-6.715-.13-14.634 3.832-20.3 2.069 1.834 4.68 2.257 6.013.908 1.337-1.353.914-4.005-.906-6.103 2.738-1.936 5.945-3.125 9.389-3.125Zm-9.389 3.125a8.202 8.202 0 0 0-.362-.391c-2.12-2.148-4.992-2.724-6.412-1.286-1.42 1.438-.852 4.347 1.269 6.494.13.132.263.258.399.378l.173-.245c1.368-1.911 3.038-3.61 4.933-4.95Z" clip-rule="evenodd"/><path d="M10.425 14.447c2.069 1.834 4.68 2.257 6.013.908 1.337-1.353.914-4.005-.906-6.103-1.896 1.34-3.566 3.039-4.934 4.95-.058.08-.116.163-.173.245Z"/></g><path fill="#EDEDEA" fill-rule="evenodd" d="M40.624 16.786c-.231-.932-.82-1.817-1.369-2.585a21.848 21.848 0 0 0-2.33-2.74c-3.023-1.47-6.479-1.467-9.114.332-1.373.94-2.336 2.25-2.89 3.745-.555-1.494-1.518-2.806-2.891-3.745-2.635-1.8-6.09-1.802-9.115-.332a21.831 21.831 0 0 0-2.329 2.74c-.549.768-1.138 1.653-1.37 2.585-.241.972-.59 2.275-.544 3.258.075 1.598 1.051 2.776 2.34 3.621.316.208 3.69 2.823 3.375 3.009.239-.142.539-.314.873-.492v.3c1.224-.723 3.002-1.608 4.193-1.47l.015.003c.035.004.063.019.096.026.328.087.615.248.835.52.51.628.555 1.352.378 2.057.132-.098.25-.221.378-.325a3.7 3.7 0 0 1-.123.853l-.222.316c1.306.25 2.678.387 4.098.387h.02c1.425 0 2.797-.137 4.103-.387l-.221-.316s-.11-.368-.123-.853c.127.104.245.227.377.325-.177-.705-.132-1.43.378-2.057.22-.272.508-.433.836-.52.033-.007.06-.022.095-.026l.015-.003c1.19-.138 2.97.747 4.193 1.47v-.3c.334.178.634.35.873.492-.315-.186 3.059-2.801 3.374-3.009 1.29-.845 2.266-2.023 2.341-3.621.046-.983-.302-2.286-.545-3.258ZM24.92 31.527c-3.846 0-7.121 3.044-8.36 7.306l-.072 7.27.35.108c.419.13.839.26 1.27.361a29.7 29.7 0 0 0 6.813.784c2.3 0 4.6-.26 6.812-.784.431-.101.851-.231 1.27-.36l.35-.108-.072-7.271c-1.239-4.262-4.514-7.306-8.36-7.306Zm-10.43 9.077c1.168 1.186 1.36 2.912.427 3.859-.935.947-2.643.755-3.812-.43-1.17-1.188-1.363-2.916-.428-3.863.935-.946 2.643-.751 3.813.434Zm20.861 0c-1.168 1.186-1.36 2.912-.427 3.859.935.947 2.643.755 3.812-.43 1.17-1.188 1.363-2.916.428-3.863-.935-.946-2.643-.751-3.813.434Z" clip-rule="evenodd"/><g fill="#121716"><path fill-rule="evenodd" d="M25.924 21.48a2.955 2.955 0 0 1-.678.127c.018-.04.05-.07.05-.115v-.89c.041-.032.086-.054.121-.098l.69-.844c.272-.334.144-.607-.284-.607h-1.804c-.428 0-.556.273-.284.607l.689.844c.06.076.134.128.21.17v.818c0 .045.03.076.047.115a3.079 3.079 0 0 1-.675-.127c-.281-.09-.863-.432-.942.098v.096a1.91 1.91 0 0 0 1.898 1.923h.005a1.91 1.91 0 0 0 1.9-1.923v-.096c-.08-.53-.662-.189-.943-.098Zm-6.214-7.607a3.741 3.741 0 0 0-1.816-.45h-.026a3.97 3.97 0 0 0-1.323.256c-1.03.375-1.979 1.102-2.668 1.777a9.1 9.1 0 0 0-.54.576c-.145.17-.289.357-.428.556-1.307 1.87-2.194 4.874.41 5.974 1.04.44 2.188.573 3.308.594 1.43.028 2.96-.005 4.088-1.026 1.145-1.037 1.33-2.73 1.224-4.2-.138-1.91-.93-3.351-2.23-4.057Zm-8.773 22.906c-.787 0-1.45.252-1.923.732a2.296 2.296 0 0 0-.237.282c-.32.448-.487 1.017-.487 1.66 0 .207.017.42.051.64.176 1.136.787 2.281 1.72 3.227 1.228 1.246 2.89 1.874 4.212 1.737.595-.061 1.12-.277 1.508-.662l.015-.015c.598-.606.836-1.522.672-2.582-.178-1.136-.788-2.282-1.72-3.226-1.11-1.122-2.533-1.794-3.811-1.794Zm2.934 9.647c-1.64 0-3.362-.794-4.728-2.177-1.125-1.14-1.864-2.544-2.084-3.951-.14-.898-.06-1.736.223-2.459a3.67 3.67 0 0 1 .813-1.254l.002-.003c.72-.73 1.701-1.117 2.84-1.117 1.638 0 3.362.794 4.727 2.178 1.125 1.14 1.865 2.542 2.084 3.95.232 1.486-.135 2.806-1.035 3.716-.722.73-1.705 1.117-2.842 1.117Zm21.223-7.854c-.932.944-1.543 2.09-1.72 3.226-.165 1.06.073 1.976.671 2.582l.016.015c.386.384.912.6 1.507.662 1.322.137 2.984-.49 4.213-1.737.932-.946 1.543-2.091 1.719-3.227.034-.22.051-.433.051-.64 0-.643-.166-1.212-.486-1.66a2.367 2.367 0 0 0-.238-.282c-.472-.48-1.136-.733-1.923-.733-1.278 0-2.702.672-3.81 1.794Zm-1.966 6.737c-.9-.91-1.267-2.23-1.035-3.716.22-1.408.959-2.81 2.084-3.95 1.365-1.384 3.09-2.178 4.727-2.178 1.14 0 2.12.386 2.84 1.117l.002.002c.356.36.628.783.813 1.255.284.723.363 1.56.223 2.459-.22 1.407-.96 2.812-2.084 3.95-1.365 1.384-3.088 2.178-4.727 2.178-1.138 0-2.121-.386-2.843-1.117Z" clip-rule="evenodd"/><path d="M31.947 13.423a3.74 3.74 0 0 0-1.815.45c-1.3.706-2.091 2.147-2.23 4.056-.106 1.47.079 3.164 1.224 4.2 1.129 1.022 2.658 1.055 4.088 1.027 1.12-.02 2.268-.154 3.309-.594 2.603-1.1 1.716-4.104.41-5.974a7.13 7.13 0 0 0-.43-.556 8.917 8.917 0 0 0-.539-.576c-.69-.675-1.639-1.402-2.667-1.777a3.97 3.97 0 0 0-1.324-.256h-.026Z"/><path fill-rule="evenodd" d="M8.298 7.11c-1.699 1.721-1.141 4.982 1.27 7.424l.005.005C6.061 19.797 3.4 27.702 5.983 34.97c.354.996.79 1.956 1.299 2.87a3.67 3.67 0 0 1 .813-1.254 16.9 16.9 0 0 1-.891-2.06c-.555-1.562-.854-3.262-.91-5.034a9.1 9.1 0 0 1-1.093-2.07.657.657 0 0 1 .375-.846.642.642 0 0 1 .807.312c.373-3.862 1.808-7.901 4.181-11.486a26.885 26.885 0 0 1 .748-1.072c.276-.374.56-.735.852-1.084a20.536 20.536 0 0 1 2.179-2.237 18.988 18.988 0 0 1 2.13-1.62 16.493 16.493 0 0 1 3.797-1.843l.003.008c.206-.073.425-.12.66-.12.376 0 .774.157 1.084.364 1.168.796 2.023 1.868 2.6 3.083.065.094.16.168.292.168a.363.363 0 0 0 .316-.195h.01c.579-1.203 1.429-2.265 2.589-3.056.31-.207.708-.364 1.084-.364.235 0 .454.047.66.12v-.009a16.498 16.498 0 0 1 3.8 1.843 18.986 18.986 0 0 1 2.13 1.62c.766.673 1.495 1.42 2.18 2.238a22.186 22.186 0 0 1 1.04 1.343c.192.268.379.539.56.812 2.372 3.585 3.807 7.624 4.18 11.487a.642.642 0 0 1 .807-.312.657.657 0 0 1 .375.846 9.101 9.101 0 0 1-1.093 2.07c-.056 1.772-.354 3.472-.91 5.034-.25.705-.548 1.393-.89 2.06.355.359.627.782.812 1.254.51-.914.946-1.873 1.3-2.87 2.583-7.269-.08-15.173-3.59-20.43l.005-.005c2.41-2.442 2.968-5.703 1.269-7.423-.636-.644-1.511-.984-2.533-.984-1.596 0-3.382.843-4.784 2.257-2.846-1.892-6.037-2.914-9.305-2.914s-6.46 1.022-9.306 2.914c-1.402-1.414-3.188-2.257-4.783-2.257-1.023 0-1.898.34-2.534.984Zm.917.93c.49-.495 1.15-.6 1.617-.6 1.202 0 2.572.638 3.705 1.715-.358.275-.71.565-1.056.869a21.868 21.868 0 0 0-2.294 2.355c-.29.346-.573.704-.848 1.074C8.62 11.612 8.1 9.168 9.215 8.04Zm29.795-.6c.467 0 1.127.105 1.616.6 1.114 1.128.594 3.571-1.123 5.412-.275-.37-.558-.727-.849-1.073a21.876 21.876 0 0 0-2.294-2.355 20.347 20.347 0 0 0-1.056-.869c1.134-1.077 2.503-1.714 3.706-1.714Z" clip-rule="evenodd"/><path d="M5.576 26.575a.657.657 0 0 0-.375.846 9.1 9.1 0 0 0 1.094 2.07 20.4 20.4 0 0 1 .088-2.604.642.642 0 0 0-.807-.312Z"/><path d="M11.575 28.693a.644.644 0 0 0 .918.028c.36-.344 1.433-1.3 2.08-1.624a.637.637 0 0 0 .093-.052c.79-.532 3.298-1.894 4.464-1.189.568.345.87.82.9 1.411.052 1.067-.792 2.362-2.258 3.468-1.505 1.135-4.161 1.455-6.458.779-1.635-.481-3.813-1.664-4.902-4.56a.666.666 0 0 0-.03-.067c-.084.88-.114 1.75-.087 2.604 1.117 1.575 2.716 2.712 4.657 3.284.93.274 1.902.408 2.852.408 1.808 0 3.537-.484 4.743-1.393 1.841-1.39 2.853-3.061 2.777-4.588-.05-1.026-.593-1.904-1.527-2.472-1.79-1.09-4.579.428-5.544 1.025-.795-.395-1.497-.973-2.14-1.584-.773-.737-1.26-1.2-1.777-2.167a.66.66 0 0 0-.543-.313c-.759 0-.746.813-.445 1.293.93 1.478 1.992 2.435 3.427 3.412.08.055.161.108.243.16a18.186 18.186 0 0 0-1.415 1.208.663.663 0 0 0-.028.929Zm26.218.207c.173 0 .345-.07.473-.207a.663.663 0 0 0-.028-.93c-.1-.094-.727-.686-1.415-1.206.082-.053.163-.106.243-.16 1.435-.978 2.497-1.935 3.427-3.413.301-.48.314-1.293-.445-1.293a.66.66 0 0 0-.543.313c-.517.967-1.004 1.43-1.778 2.167-.642.611-1.343 1.189-2.14 1.584-.964-.597-3.753-2.115-5.542-1.025-.935.568-1.478 1.446-1.528 2.472-.076 1.527.936 3.198 2.777 4.588 1.206.91 2.935 1.393 4.744 1.393.95 0 1.921-.134 2.851-.408 1.942-.572 3.54-1.709 4.658-3.284a9.101 9.101 0 0 0 1.093-2.07.657.657 0 0 0-.375-.846.642.642 0 0 0-.836.38c-1.09 2.895-3.267 4.078-4.902 4.559-2.297.676-4.953.356-6.458-.779-1.466-1.106-2.31-2.401-2.258-3.468.03-.59.332-1.066.9-1.41 1.167-.706 3.674.656 4.464 1.189.03.02.06.037.092.051.648.323 1.72 1.28 2.082 1.624.125.12.285.178.444.178ZM36.36 10.024c.806.71 1.573 1.496 2.294 2.355.868-1.032 1.106-2.264.515-2.863-.59-.596-1.794-.36-2.809.508Z"/><path fill-rule="evenodd" d="M11.187 12.38a21.868 21.868 0 0 1 2.295-2.356c-1.016-.868-2.22-1.104-2.81-.508-.591.6-.352 1.831.515 2.863Zm3.086 32.677c.595-.061 1.12-.277 1.508-.662a18.582 18.582 0 0 0 3.747 1.546 19.651 19.651 0 0 0 10.784 0 18.59 18.59 0 0 0 3.749-1.546c.386.384.912.6 1.507.662a20.284 20.284 0 0 1-4.9 2.146 20.63 20.63 0 0 1-5.747.81c-1.959 0-3.893-.272-5.749-.81a20.285 20.285 0 0 1-4.9-2.146Z" clip-rule="evenodd"/></g><path fill="#FFFFFE" fill-rule="evenodd" d="M19.778 16.939c-.02-.251-.293-.529-.453-.672a1.937 1.937 0 0 0-1.283-.489c-.15 0-.303.017-.458.05a2.053 2.053 0 0 0-1.39 1.01c-.106.196-.287.585-.24.807.038.184.21.311.387.343.234.044.325-.068.437-.26.021-.037.044-.076.07-.117.339-.532.818-.825 1.349-.825.297 0 .479.087.748.268.178.12.372.36.612.231.174-.093.23-.215.22-.346Zm10.286 0c.02-.251.292-.529.452-.672.356-.315.81-.489 1.283-.489.15 0 .303.017.459.05.603.128 1.11.496 1.39 1.01.106.196.287.585.24.807-.04.184-.211.311-.388.343-.234.044-.325-.068-.437-.26a4.625 4.625 0 0 0-.07-.117c-.339-.532-.818-.825-1.348-.825-.298 0-.48.087-.749.268-.177.12-.371.36-.612.231-.174-.093-.23-.215-.22-.346Z" clip-rule="evenodd"/></svg>