<svg xmlns="http://www.w3.org/2000/svg" fill="none" aria-hidden="true" viewBox="0 0 106 112"><path fill="#0982C6" d="M34.754 31.55c1.753 0 13.135 5.024 13.135 23.07 0 8.625-2.902 15.813-4.616 15.813-.755 0-1.043-.755-1.043-2.205 0-3.193 1.126-6.022 1.126-12.837 0-13.16-5.42-18.469-7.846-21.457-.717-.885-1.26-1.461-1.26-1.98 0-.212.15-.403.504-.403Zm28.688.404c0 .519-.543 1.095-1.26 1.98-2.425 2.988-7.843 8.298-7.843 21.457 0 6.815 1.121 9.644 1.121 12.837 0 1.45-.284 2.206-1.04 2.206-1.713 0-4.617-7.19-4.617-15.814 0-18.045 11.384-23.07 13.14-23.07.35 0 .499.192.499.404"/><path fill="#F8971F" d="M44.69 35.163c0 2.356 1.86 4.264 4.154 4.264 2.3 0 4.162-1.908 4.162-4.264 0-2.36-1.861-4.265-4.162-4.265-2.294 0-4.154 1.906-4.154 4.265Z"/><path fill="#56B948" d="M27.256 28.421c-2.172-.982-3.799-2.952-4.064-4.861 1.613-1.062 4.16-1.144 6.336-.161 2.274 1.03 2.806 2.77 2.82 4.299-1.157 1.003-2.814 1.754-5.092.723Zm6.234-11.484c-1.398-2.149-1.725-4.869-.86-6.748 2.072-.027 4.424 1.378 5.82 3.525 1.461 2.25.933 4.13.058 5.52-1.63.235-3.56-.046-5.018-2.297Zm3.235 11.377c-1.725-1.46-2.692-3.677-2.436-5.487 1.743-.548 4.09.042 5.813 1.502 1.806 1.533 1.834 3.254 1.448 4.653-1.317.608-3.02.861-4.825-.668Zm5.273-5.499c-.742-2.397-.323-5.05.996-6.596 1.96.528 3.802 2.487 4.544 4.885.776 2.512-.224 4.143-1.422 5.22-1.595-.214-3.344-.996-4.118-3.509Zm-9.081 17.509c-1.717.334-3.529-.158-4.5-1.189.51-1.322 2.011-2.455 3.732-2.79 1.798-.348 2.856.469 3.515 1.38-.27 1.096-.942 2.247-2.748 2.599Zm-4.538-5.086c-1.955-.212-3.738-1.336-4.437-2.767.987-1.248 2.971-1.969 4.929-1.757 2.049.223 2.914 1.45 3.319 2.648-.655 1.087-1.76 2.1-3.811 1.876Zm-.175-14.525c-1.535-1.301-2.395-3.27-2.168-4.88 1.551-.488 3.635.038 5.17 1.336 1.602 1.363 1.632 2.893 1.288 4.137-1.172.543-2.686.766-4.29-.593ZM38.663 10.39c-.62-1.998-.268-4.21.829-5.497 1.637.442 3.173 2.074 3.791 4.07.647 2.094-.191 3.451-1.187 4.354-1.332-.18-2.785-.832-3.433-2.927Zm-25.7 51.848c0 .054.035.098.104.098.063 0 .18-.053.304-.098 6.142-2.203 15.208-4.903 27.934-5.73.015-.114.092-.681.092-1.117 0-.921-.11-1.883-.139-2.042-13.04 1.196-22.039 4.977-27.952 8.61-.239.15-.343.184-.343.279Zm52.382-34.54c.014-1.53.545-3.27 2.82-4.3 2.17-.982 4.723-.9 6.334.162-.266 1.91-1.891 3.879-4.062 4.861-2.28 1.03-3.933.28-5.092-.723Zm-6.16-8.464c-.874-1.39-1.402-3.27.059-5.52 1.395-2.147 3.746-3.552 5.818-3.525.864 1.879.536 4.6-.857 6.748-1.458 2.25-3.393 2.532-5.02 2.297Zm-3.045 9.748c-.383-1.399-.355-3.12 1.45-4.653 1.726-1.46 4.069-2.05 5.816-1.502.253 1.81-.715 4.026-2.44 5.487-1.802 1.529-3.51 1.276-4.826.668Zm-4.566-2.658c-1.196-1.078-2.195-2.708-1.42-5.22.738-2.398 2.586-4.357 4.545-4.885 1.32 1.545 1.738 4.2.996 6.596-.776 2.513-2.522 3.295-4.121 3.509ZM62.03 37.725c.66-.911 1.714-1.728 3.516-1.38 1.721.335 3.218 1.468 3.732 2.79-.97 1.03-2.782 1.523-4.504 1.189-1.802-.352-2.478-1.503-2.744-2.599Zm3.473-4.363c.406-1.197 1.271-2.425 3.32-2.648 1.958-.212 3.94.509 4.928 1.758-.7 1.43-2.481 2.554-4.436 2.766-2.052.223-3.16-.79-3.812-1.876Zm-.304-12.056c-.345-1.244-.318-2.774 1.29-4.137 1.534-1.298 3.618-1.824 5.167-1.335.227 1.61-.635 3.578-2.168 4.88-1.604 1.358-3.119 1.135-4.29.592Zm-9.602-7.99c-.998-.902-1.833-2.26-1.186-4.353.618-1.996 2.154-3.628 3.784-4.07 1.106 1.286 1.452 3.5.836 5.497-.648 2.095-2.103 2.746-3.434 2.927ZM84.382 61.96c-5.91-3.634-14.91-7.415-27.95-8.611-.026.16-.137 1.12-.137 2.042 0 .436.075 1.003.09 1.118 12.725.826 21.79 3.526 27.934 5.729.127.045.246.098.303.098.072 0 .107-.044.107-.098 0-.095-.107-.13-.347-.278ZM48.847 15.417c-1.69-.787-3.354-2.248-3.354-5.285 0-2.901 1.37-5.69 3.354-6.943 1.984 1.252 3.354 4.042 3.354 6.943 0 3.037-1.661 4.498-3.354 5.285Z"/><path fill="#0982C6" d="M26.066 77.905c0 1.485 1.223 2.689 2.736 2.689 1.513 0 2.737-1.204 2.737-2.69 0-1.483-1.224-2.685-2.737-2.685-1.513 0-2.736 1.202-2.736 2.686Zm21.368 14.15c0 4.243-1.66 6.011-4.06 6.011-2.42 0-3.778-2.054-3.778-5.656 0-3.677 2.105-6.717 6-6.717.804 0 1.365.08 1.838.194v6.168Zm.233 6.96v1.379c0 3.782-2.33 5.251-5.22 5.251-2.598 0-4.515-.781-5.12-.993v3.742c.494.132 2.603.795 5.614.795 5.346 0 8.918-2.205 8.918-9.767V83.105c-.687-.175-3.196-.84-6.085-.84-7.499 0-10.721 5.025-10.721 10.463 0 4.998 2.515 8.918 7.331 8.918 3.176 0 4.704-1.919 5.2-2.63h.083Zm-25.498-2.308c-1.204.565-3.13.936-4.994.936-5.084 0-8.827-3.636-8.827-9.176 0-5.505 3.718-9.185 8.827-9.185 2.532 0 4.335.62 4.994.932v-3.96c-1.11-.412-2.915-.829-5.463-.829-7.89 0-13.192 5.454-13.192 13.042 0 7.17 4.879 13.034 13.192 13.034 2.437 0 4.273-.387 5.463-.832v-3.962Zm66.949-4.652c0 4.243-1.661 6.011-4.06 6.011-2.423 0-3.785-2.054-3.785-5.656 0-3.677 2.114-6.717 6.006-6.717.796 0 1.36.08 1.839.194v6.168Zm4.982 9.177c-.143-1.034-.559-3.762-.559-6.107v-12.02c-.69-.175-3.201-.84-6.084-.84-7.502 0-10.72 5.025-10.72 10.463 0 4.998 2.506 8.918 7.327 8.918 3.52 0 5.098-2.277 5.693-3.491h.116c.044.576.203 2.535.254 3.077H94.1ZM31.017 82.739h-4.423v18.493h4.423V82.739Zm25.85 18.493V88.435c0-1.715-.156-5.005-.201-5.752h3.975l.186 2.602h.083c.462-.728 1.95-3.02 5.418-3.02 4.187 0 6.513 3.077 6.513 6.912v12.055h-4.42v-11.18c0-2.355-1.31-4.135-3.563-4.135-2.324 0-3.563 1.877-3.563 4.134v11.181h-4.428Zm43.725-3.179c-.113-.064-.298-.095-.546-.095h-.387v.926h.408c.19 0 .336-.015.432-.054.176-.071.265-.204.265-.402 0-.187-.057-.312-.172-.375Zm-.487-.401c.317 0 .552.03.699.09.267.113.398.326.398.648 0 .23-.085.402-.25.507a.952.952 0 0 1-.37.124c.2.031.344.115.44.252a.701.701 0 0 1 .139.396v.188c0 .059.001.124.004.19a.373.373 0 0 0 .025.134l.013.031h-.421c-.003-.009-.003-.018-.006-.025-.002-.008-.006-.018-.006-.029l-.009-.081v-.203c0-.295-.083-.492-.242-.587-.097-.053-.265-.084-.503-.084h-.357v1.009h-.45v-2.56h.896Zm-1.376-.131a1.93 1.93 0 0 0-.582 1.42c0 .558.193 1.038.581 1.431.39.394.864.593 1.422.593.557 0 1.032-.199 1.423-.593a1.97 1.97 0 0 0 .582-1.431c0-.557-.195-1.03-.582-1.42a1.938 1.938 0 0 0-1.423-.592c-.554 0-1.028.196-1.42.592Zm3.073 3.073a2.242 2.242 0 0 1-1.652.687 2.235 2.235 0 0 1-1.65-.687 2.266 2.266 0 0 1-.68-1.656c0-.642.231-1.192.684-1.648a2.246 2.246 0 0 1 1.646-.681 2.25 2.25 0 0 1 1.652.681c.457.453.684 1.004.684 1.648 0 .647-.227 1.199-.684 1.656Z"/></svg>