<svg xmlns="http://www.w3.org/2000/svg" fill="none" aria-hidden="true" viewBox="0 0 225 53"><path fill="#FFDA00" d="M19.696 35.088a12.074 12.074 0 0 1-3.497-8.57 11.947 11.947 0 0 1 3.558-8.537 4.761 4.761 0 1 0-6.71-6.738 21.607 21.607 0 0 0-.092 30.554 4.762 4.762 0 1 0 6.741-6.709Z"/><path fill="#67B3FF" d="M19.757 17.982a12.114 12.114 0 0 1 17.107.06 4.764 4.764 0 0 0 7.993-1.384 4.762 4.762 0 0 0-1.255-5.322 21.533 21.533 0 0 0-30.522-.125 4.76 4.76 0 0 0 1.357 7.986 4.76 4.76 0 0 0 5.32-1.215Z"/><path fill="#EB5A68" d="M36.835 35.149a12.085 12.085 0 0 1-8.572 3.51 11.948 11.948 0 0 1-8.537-3.57 4.764 4.764 0 0 0-7.981 1.393 4.761 4.761 0 0 0 1.242 5.315 21.57 21.57 0 0 0 30.555.122 4.763 4.763 0 0 0-1.51-7.778 4.765 4.765 0 0 0-5.197 1.008Z"/><path fill="#47A1FF" d="M19.757 17.981a4.762 4.762 0 1 1-6.73-6.738 4.762 4.762 0 0 1 6.73 6.738Z"/><path fill="#D5465F" d="M19.665 41.798a4.761 4.761 0 1 1-6.727-6.74 4.761 4.761 0 0 1 6.727 6.74Z"/><path fill="#29303A" d="M64.794 31.186c1.373-1.037 1.556-.458 2.715.7.579.58 2.164 1.588 1.126 2.44-2.164 1.767-4.116 2.561-6.878 2.561-6.252-.03-10.673-4.696-10.318-10.887.15-2.772 1.249-5.397 3.415-7.196 1.982-1.677 4.45-2.407 7.043-2.347a9.614 9.614 0 0 1 3.704.73 8.743 8.743 0 0 1 2.225 1.191c1.373 1.058.733 1.677-.336 2.744-.243.243-.487.49-.701.733-.548.547-.915.944-1.646.425-1.402-.976-3.175-1.494-4.85-1.058-5.396 1.37-5.153 10.977 1.467 11.009a5.125 5.125 0 0 0 3.034-1.045Zm150.026 5.82a1.64 1.64 0 0 1-1.648-1.645l.093-21.285a1.647 1.647 0 0 1 .479-1.167 1.644 1.644 0 0 1 1.166-.48h1.77a1.639 1.639 0 0 1 1.646 1.65l-.093 21.284a1.645 1.645 0 0 1-.479 1.166 1.639 1.639 0 0 1-1.166.48l-1.768-.003Zm-9.259-2.468c-1.921 1.799-3.752 2.743-6.466 2.743-5.487-.032-8.112-4.574-8.112-9.667l.032-8.66a1.626 1.626 0 0 1 .481-1.164 1.65 1.65 0 0 1 1.167-.478h1.77a1.64 1.64 0 0 1 1.646 1.645l-.029 8.66c0 2.836 1.523 5.06 4.513 5.06s4.818-2.5 4.847-5.29v-3.093a1.543 1.543 0 0 1-.029-.365l.029-4.91a1.644 1.644 0 0 1 .48-1.167 1.635 1.635 0 0 1 1.165-.48h1.747a1.642 1.642 0 0 1 1.522 1.015c.082.2.124.415.123.631l-.058 16.345a1.633 1.633 0 0 1-1.646 1.617h-1.494a1.671 1.671 0 0 1-1.617-1.617l-.071-.825Zm-21.052-17.165h3.416a1.643 1.643 0 0 1 1.616 1.677v1.127a1.656 1.656 0 0 1-1.64 1.646h-3.423l-.061 13.447a1.647 1.647 0 0 1-.48 1.167 1.643 1.643 0 0 1-1.166.482h-1.767a1.646 1.646 0 0 1-1.524-1.017 1.63 1.63 0 0 1-.124-.632l.06-18.598c0-4.056 2.318-7.26 6.466-7.625.122 0 .212-.03.334-.03.244-.015.489-.015.733 0h1.587a1.637 1.637 0 0 1 1.616 1.676v1.037a1.654 1.654 0 0 1-1.645 1.648h-1.281c-1.952 0-2.775 1.492-2.807 3.323l.09.672Zm-12.257-.061h3.744a1.631 1.631 0 0 1 1.616 1.645v1.127a1.633 1.633 0 0 1-1.645 1.617h-3.747l-.029 8.228c0 1.587.762 2.5 2.347 2.5h.762a1.635 1.635 0 0 1 1.616 1.648v1.143a1.633 1.633 0 0 1-1.645 1.617h-1.434a6.643 6.643 0 0 1-.794-.032c-4.056-.265-5.855-2.894-5.855-6.86.032-5.336.032-10.64.061-15.977a1.63 1.63 0 0 1 1.648-1.617h1.739a1.632 1.632 0 0 1 1.616 1.646v3.315Zm-54.236-.214h3.744a1.634 1.634 0 0 1 1.616 1.645v1.133a1.634 1.634 0 0 1-1.645 1.617h-3.757v8.23c0 1.587.762 2.5 2.347 2.5h.764a1.632 1.632 0 0 1 1.614 1.645v1.127a1.633 1.633 0 0 1-1.645 1.617h-1.127c-4.424-.03-6.985-1.92-6.985-6.879.032-5.336.032-10.643.061-15.98a1.635 1.635 0 0 1 1.648-1.616h1.738a1.63 1.63 0 0 1 1.614 1.648l.013 3.313Zm-22.014 2.317c1.8-1.677 3.752-2.743 6.281-2.743 5.489.029 8.326 4.497 8.294 9.664l-.029 8.66a1.653 1.653 0 0 1-1.017 1.524c-.2.082-.415.124-.631.124h-1.768a1.641 1.641 0 0 1-1.648-1.649l.032-8.598c0-2.836-1.524-5.061-4.514-5.061s-4.817 2.471-4.846 5.275l-.032 8.384a1.632 1.632 0 0 1-1.646 1.617H92.74a1.632 1.632 0 0 1-1.616-1.646c.029-5.214.029-10.458.06-15.672v-.702a1.632 1.632 0 0 1 1.633-1.627h1.495a1.667 1.667 0 0 1 1.616 1.617l.074.833Zm54.339.212c1.799-1.675 3.749-2.744 6.281-2.744 5.489.032 8.323 4.514 8.294 9.668l-.032 8.67a1.646 1.646 0 0 1-1.014 1.523 1.646 1.646 0 0 1-.632.124h-1.767a1.648 1.648 0 0 1-1.167-.48 1.636 1.636 0 0 1-.481-1.168l.032-8.598c0-2.836-1.527-5.061-4.514-5.061s-4.818 2.468-4.849 5.275l-.043 8.384a1.635 1.635 0 0 1-1.648 1.617h-1.738a1.631 1.631 0 0 1-1.614-1.646l.061-16.376a1.644 1.644 0 0 1 .485-1.157 1.638 1.638 0 0 1 1.163-.47h1.495a1.669 1.669 0 0 1 1.614 1.63l.074.809Zm-70.94-3.109c-5.948-.032-10.154 4.268-10.186 10.183-.03 5.977 4.117 10.218 10.125 10.247 6.008.029 10.215-4.178 10.244-10.194.031-5.876-4.268-10.207-10.183-10.236Zm49.367 12.228c.426 2.744 3.051 3.87 5.612 3.903a9.175 9.175 0 0 0 3.719-.823 4.83 4.83 0 0 0 .548-.265c.611-.336 1.159-.547 1.709 0 .304.305.58.611.884.884.287.274.553.57.794.886.822 1.035.243 1.28-.702 1.921-2.013 1.341-4.635 2.01-7.045 2.01-6.463-.028-10.733-3.968-10.733-10.487.031-6.161 4.299-10.246 10.458-10.217 6.283.032 9.85 3.722 9.942 10.003.029 1.706.09 2.257-1.677 2.257l-13.509-.072Zm-49.367-7.624c3.08 0 5.122 2.685 5.122 5.643 0 3.08-1.921 5.556-5.154 5.556-3.233 0-5.122-2.5-5.122-5.58s1.952-5.62 5.154-5.62Zm49.502 3.386 10.125.03C138.66 22.004 136.557 21 134.15 21c-2.408 0-4.498 1.13-5.247 3.508Z"/></svg>