<svg xmlns="http://www.w3.org/2000/svg" fill="none" aria-hidden="true" viewBox="0 0 108 109"><g fill="#323A45"><path d="M53.722 3.447c.117.449-.4.26-.567.519.189.965.472 1.905.848 2.826.166-.049.142-.24.236-.357.285-.776.494-1.601.802-2.375.046-.472-.777-.094-.517-.636.398-.187.94 0 1.433-.069.234.024.496-.025.634.14.12.635-.68.165-.774.683-.59 1.342-.989 2.776-1.625 4.096-.164.14-.47.092-.708.068l-.14-.142c-.468-1.387-.845-2.826-1.41-4.166-.164-.304-.848-.068-.638-.587.568-.164 1.273 0 1.859-.142.214 0 .448-.022.567.142Zm5.506.12c.12.046.14.208.07.329-.164.304-.704-.026-.727.423-.047 1.201-.262 2.329-.262 3.53.166.236.685.212.52.587-.73.166-1.483-.047-2.238-.07-.092-.092-.07-.258 0-.355.215-.162.568 0 .685-.304.093-1.225.306-2.425.259-3.673-.166-.187-.47-.043-.566-.327-.023-.164.117-.26.262-.283.655.047 1.313.142 1.997.142Zm5.06.844c.26.403-.023.92-.095 1.342a.256.256 0 0 1-.304.072c-.236-.33-.095-.825-.495-1.106-.4-.353-1.104-.377-1.598-.19-.873.59-.895 1.649-.85 2.64.142.586.613 1.127 1.225 1.267.54.07.989-.07 1.365-.351.117-.024.234.023.234.14-.117.4-.565.636-.872.917-1.102.19-2.256-.14-2.822-1.131-.565-.987-.33-2.422.306-3.292.59-.778 1.483-.967 2.425-.823a9.856 9.856 0 0 1 1.482.515Zm-18.805.708c.048.14-.092.28-.211.304-.445-.068-.495-.987-1.13-.564-.117.094-.33.025-.4.236 0 .447.141.823.211 1.223.096.19.285.025.425.047.211-.187.094-.751.54-.564l.143.166c0 .495.166.987.166 1.459-.096.093-.261.068-.355.023-.14-.236-.283-.636-.657-.447-.213.141-.12.424-.096.636.14.281.045.681.283.917.374-.095.87 0 1.13-.355.048-.28.07-.587.305-.75.14 0 .283.023.306.141-.093.47.143 1.106-.236 1.41-.988.238-2.024.379-2.964.545-.072.021-.142-.074-.142-.12.023-.424.848-.471.472-1.06-.238-1.034-.33-2.118-.566-3.13-.187-.283-.823-.024-.682-.517l.21-.12c.874-.21 1.837-.257 2.707-.493.47.072.355.66.54 1.013Zm3.742.752a.767.767 0 0 1-.632.164c-.215-.304-.215-.68-.238-1.057.049-.283-.117-.66.142-.825.353-.047.705.025.847.377.047.401.189.99-.119 1.341Zm2.639 2.38c-.732-.638-1.32-1.155-1.955-1.886l-.023-.187c.258-.235.47-.494.587-.804.094-.374.094-.866-.117-1.196-.823-1.318-2.422-.212-3.67-.403l-.143.12c-.164.494.472.305.683.516.166 1.178.353 2.356.4 3.58-.092.26-.4.21-.566.375-.045.094-.068.28.049.355.776.07 1.484-.19 2.258-.215.353-.61-.542-.28-.704-.657l-.144-1.13c.049-.118.166-.167.283-.142l1.648 1.674c.423.138.846.28 1.295.327.14-.023.165-.212.119-.327Zm16.544-2.803c.08.43-.004.875-.234 1.246-.168.05-.285-.068-.353-.187-.072-.26.023-.589-.285-.682-.236-.047-.493-.26-.704-.094-.213.4-.448.846-.355 1.293.142.072.308.119.447.072.142-.166.33-.448.565-.283.143.117 0 .258 0 .4l-.33 1.176c-.093.117-.235.143-.374.094-.189-.232.092-.776-.378-.8-.4-.025-.258.402-.4.591.049.351-.493.776.023.987.425.045.966.351 1.249-.21.046-.096.14-.215.257-.24.142 0 .285.074.308.24-.333.397-.401 1.341-1.131 1.129-.846-.283-1.742-.47-2.613-.708-.045-.092-.117-.211-.045-.283.21-.258.657.025.753-.353.33-1.198.75-2.374.94-3.577-.117-.189-.517-.14-.422-.493.07-.191.305-.094.422-.07.871.282 1.811.423 2.66.752Zm-27.56.706c.047.142-.072.26-.165.308-.47.045-.355-.59-.8-.66-.236-.094-.47.023-.683.093-.257.189-.28.493-.21.776.587.967 2.047.377 2.635 1.459.28.472.259 1.131-.07 1.554-.59.73-1.578.964-2.427.708a1.884 1.884 0 0 1-.421-1.203c.094-.114.258-.166.376-.069.164.377.564.824 1.036.8.234-.097.587-.142.657-.448 0-.352.072-.728-.28-.94-.849-.54-2.356-.258-2.567-1.602-.069-.542.21-1.035.66-1.341.565-.33 1.224-.519 1.906-.47.258.28.236.682.353 1.035Zm31.936.823c-.023.449-.234.895-.493 1.274-.14.023-.281-.074-.353-.19 0-.282.117-.686-.094-.918-.142-.19-.378-.236-.612-.26-.26-.025-.47.165-.566.377-.234 1.223 1.625 1.815 1.13 3.107-.116.52-.681.893-1.153 1.012-.87.045-1.718-.26-2.214-1.036.215-.376.166-.895.474-1.154.14-.022.236.025.33.142-.026.353-.12.731.091 1.036.139.193.338.335.566.401.258.045.423-.07.612-.214.235-.21.26-.565.19-.87-.402-.893-1.719-1.673-1.014-2.8.212-.355.612-.566.988-.636.849-.094 1.46.378 2.118.73Zm-38.313.33c.092.425-.614.376-.378.801l1.577 3.72c.047.306-.306.257-.448.4l-.281-.026a44.924 44.924 0 0 0-3.226-1.929v.26l1.013 2.046c.095.163.353.118.495.046.07-.046.21-.093.306-.023.094.095.14.238.094.355l-1.742.893c-.14.023-.189-.095-.236-.187-.07-.379.683-.425.353-.872-.423-1.036-.963-2.048-1.46-3.037-.21-.282-.988.213-.822-.4.4-.279.87-.444 1.293-.682l.236.025 2.873 1.787h.139v-.234c-.328-.683-.54-1.44-1.012-2.025-.186 0-.328.117-.54.07-.094-.07-.19-.187-.14-.304l.21-.167c.518-.186.988-.54 1.577-.61l.119.093Zm44.716 2.73c.117.07.142.213.095.33-.259.331-.518-.166-.803.092-.564.92-1.27 1.768-1.529 2.825 0 .447.21.849.614 1.061.352.211.87.117 1.176-.142.823-.776 1.364-1.671 1.836-2.588-.024-.281-.542-.447-.19-.728l.213.02 1.367.92c.045.116.045.307-.12.352-.211.023-.375-.164-.59-.072-.823 1.084-1.574 2.802-3.106 2.944-.894-.025-1.764-.589-2.093-1.435-.234-1.46.87-2.473 1.507-3.649.117-.308-.682-.661-.072-.847l1.695.917Zm-4.236.094a.627.627 0 0 1-.164.659c-.166.166-.425.166-.66.117a.699.699 0 0 1-.282-.8c.069-.163.234-.259.377-.306.306-.047.61.047.729.33Zm-47.497 3.672h-.045c-.049-.353-.26-.682-.21-1.035.306.138.565.378.822.61-.046.26-.378.377-.567.425Zm2.968.047a87.206 87.206 0 0 1-3.483-2.637c-.308-.187-.636.166-.755.425.213 1.434.613 2.777.849 4.213.14.353-.332.54-.377.87.026.117.164.189.26.189l1.577-1.082.045-.235c-.14-.354-.47-.025-.68-.025-.215-.189-.164-.445-.26-.682-.072-.566.66-.613.989-.94.33-.073.517.353.8.491.163.308-.379.377-.283.686.047.116.189.21.33.139.612-.423 1.294-.706 1.882-1.13.025-.705-.564-.093-.894-.282Zm54.836.328c0 .401-.421.708-.706 1.037-.14.096-.26-.025-.353-.142.07-.398.424-.94-.07-1.27-.19-.117-.423-.28-.683-.14-.165.068-.282.282-.376.423-.119 1.13 1.059 2.118.19 3.175-.309.332-.684.45-1.109.497-.8 0-1.552-.567-1.882-1.296-.354-.516.353-.894.59-1.317.163-.047.259.094.329.187-.166.377-.285.897-.096 1.295.164.188.33.35.564.4.31.023.59-.19.755-.47.355-1.153-1.036-2.001-.234-3.13.26-.378.612-.47.963-.566.919-.047 1.578.706 2.118 1.317Zm-61.991-.424c.095.332-.494.449-.283.755.8.895 1.671 1.859 2.613 2.635.305.097.66-.445.849.024l-.026.214-1.74 1.293c-.118.025-.237-.023-.282-.14-.025-.283.374-.426.257-.708-.565-.636-1.082-1.223-1.694-1.764-.117.141 0 .305.023.424.283.868.589 1.693.944 2.518.02.164 0 .33-.166.401-.448-.047-.753-.401-1.154-.565-.636-.306-1.2-.708-1.883-.894v.139l1.46 1.835c.259.096.61-.353.776.049l-.024.14-1.295 1.153c-.117.07-.28.025-.306-.115-.117-.332.425-.47.213-.78-.706-.962-1.412-1.929-2.189-2.848-.353-.093-.636.544-.895.073l.049-.166 1.198-1.106h.284c.872.447 1.67.965 2.565 1.293.093-.045.072-.187.047-.28-.307-.898-.658-1.74-.894-2.684.4-.377.87-.705 1.344-1.013.067.05.162.026.209.117Zm71.195 5.814c.542 2.356-.708 4.261-2.118 5.954l-2.19 2.167-21.582 18.17c-2.072 1.998-4.872 3.433-6.19 6.047-1.342 3.343-2.072 6.945-2.54 10.639-.331 2.658-1.46 5.197-3.908 6.779-1.906 1.576-4.449 1.576-7.013 1.527l-8.708.072c-.61.092-1.248.331-1.6.942-.214.26-.095.963-.659.774-.166-.043-.4-.092-.378-.353-.07-1.975.095-4.045 1.788-5.363.919-.706 2.144-.753 3.32-.872 3.342.07 6.613-.095 9.93-.072.755-.068 1.461-.4 1.86-1.08.541-1.436.473-3.105.824-4.613.542-3.462 1.293-6.851 2.541-10.028.59-1.41 1.648-2.705 2.918-3.788l7.557-6.33 5.484-4.663 8.638-7.318c3.622-3.13 8.54-6.588 9.155-11.46.14-.356.495-.072.706 0 1.034.634 2.022 1.67 2.165 2.87Z"/><path d="M86.483 18.675c-.21-.094-.493-.26-.517-.519.281-.189.585-.33.917-.423-.022.331-.21.661-.4.942Zm1.907-1.81c-.165-.191-.355-.522-.659-.448-1.388.68-2.732 1.48-4.166 2.022-.212-.07-.376-.21-.614-.187-.092.045-.185.117-.138.26.35.493.916.729 1.316 1.175.14.092.353.117.447-.047.072-.214-.094-.331-.188-.472-.048-.327.425-.423.681-.565.423 0 .731.519 1.063.803-.074.305-.12.634-.378.868-.262.049-.355-.21-.611-.164-.119.072-.214.238-.144.379l1.507 1.458.19.046c.14-.024.28-.164.234-.33-.588-.704.236-1.437.376-2.14.33-.897.802-1.741 1.084-2.658Zm-70.397 1.529c.096.281-.327.373-.138.636.893.823 1.905 1.69 2.307 2.775.164.778-.215 1.459-.778 1.954-.47.398-1.08.634-1.695.472-1.034-.425-1.859-1.343-2.752-2.118-.26 0-.614.375-.78 0l.05-.166 1.223-1.413c.046-.045.14-.022.211-.022.14.092.14.281.094.423-.094.094-.117.213-.117.353.848.775 1.648 1.74 2.685 2.07.398.048.704-.045.964-.33.259-.258.445-.636.282-.989-.446-.989-1.435-1.79-2.283-2.47-.258-.118-.849.518-.8-.118.398-.421.823-.916 1.293-1.223.096 0 .19.069.234.166Zm83.035 8.378c.119 2.33-1.576 3.954-3.177 5.506l-6.215 5.483a719.696 719.696 0 0 0-7.696 6.52L72.08 54.307c-1.956 1.74-2.19 4.236-2.755 6.589-.164.963-.352 1.93-.447 2.919.025.987 1.176 1.527.965 2.586-.659 1.39-1.648 2.639-2.211 4.05.068.33.234.707.563.82.683.31 1.648.027 2.073.807.094.54-.378 1.29.186 1.715.26.448 1.156-.188.989.544-.235.187-.281.468-.211.753.306.374.989.68.778 1.29-.285.615-.072 1.343.234 1.836 1.484 1.837 4.119.944 6.167.897 1.648.047 3.46 0 4.378 1.55.492.826.375 2.074 0 2.918-1.722 3.015-5.297 3.485-7.321 6.264-.847 1.198-.566 3.035.048 4.26.894 1.388 2.353 2 4.024 1.74l1.601-.447c.186.072.281.256.375.403.072.325-.328.515-.517.68-2.142 1.555-4.353 3.013-7.18 2.872-1.694-.285-3.434-1.765-3.88-3.483-.496-1.554-.261-3.46.798-4.708 1.837-2.001 4.165-3.056 5.93-5.13.566-.803.732-2 .238-2.872-1.53-2.66-4.92-1.623-7.485-1.553-1.037-.07-2.188-.565-2.518-1.646-.283-.848.351-1.813-.212-2.543-.424-.214-1.013-.472-1.131-.989-.14-.4.637-.659.167-.916a1.18 1.18 0 0 1-.778-.263c-.14-.21-.33-.469-.21-.775.14-.517.75-.87.588-1.482-.825-1.035-2.238.468-2.966-.846-.495-1.153.68-1.931 1.08-2.873.568-.989 1.812-1.882 1.319-3.13-.305-.566-.8-1.034-.751-1.717-.072-.66.115-1.2.162-1.811.285-2.259.848-4.402 1.272-6.616.565-2.352 2.472-4.328 4.448-5.929l16.453-13.909 8.095-7.134c1.742-1.718 3.647-3.413 3.532-5.929.115-.257.375-.072.538 0 1.319.823 2.354 2.165 2.52 3.672ZM13.734 23.17c0 .236-.256.4-.115.66l2.94 2.116c.352.165.59-.681.896-.14l-.049.259-1.223 1.552c-.117.095-.238-.023-.306-.115-.07-.238.164-.45.119-.661a11.308 11.308 0 0 0-1.225-.895c-.378.074-.47.495-.706.754-.165.213-.353.424-.4.706l1.272.847c.33.023.564-.61.845-.187-.281.706-.8 1.316-1.223 1.93-.14.024-.305-.025-.328-.165.115-.307.328-.802-.166-.94l-2.708-1.744c-.352-.07-.586.684-.896.214.261-.684.733-1.273 1.18-1.885.117-.047.33-.047.377.119 0 .259-.354.563.023.752.376.19.682.566 1.106.566l.918-1.319c-.189-.448-.682-.614-1.035-.871-.355-.164-.636.612-.919.142.283-.682.847-1.248 1.319-1.837.117-.021.257 0 .304.142Zm-2.799 11.864c-.423.092-.893.047-1.178-.285-.093-.142-.21-.26-.187-.423a3.786 3.786 0 0 1 2.118-.61l.07.068a1.515 1.515 0 0 1-.823 1.25Zm-1.954-1.767c-.283.045-.589.14-.872.025-.21-.095-.304-.331-.234-.565.166-.353.73-.379.942-.074.094.19.281.378.164.614Zm4.072-1.317c-.26-.097-.306.211-.423.328-.166.164-.355.283-.59.234-.235-.092-.258-.4-.399-.562-.33-.614-.99-.823-1.578-.707-.421.093-.282.587-.353.893.236.351.425-.283.802-.117.353.048.774.212.868.567-.351.092-.704.186-1.057.258-.281 0-.496.353-.777.21-.072-.515-.118-1.129-.707-1.34-.377-.117-.822-.07-1.104.258-.496.495-.706 1.273-.447 1.932.152.254.396.438.68.516.33.093.779-.069 1.085.14.022.589.164 1.2.753 1.506.421.189.987.284 1.388 0a2.341 2.341 0 0 0 1.036-2.35c.07-.166.258-.166.4-.215.612-.189.353-.94.54-1.408l-.117-.143Zm-7.247 6.093c0 .213-.074.472.185.568 1.178.327 2.307.725 3.509.963.21-.164.234-.589.587-.517l.14.213c-.234.68-.421 1.41-.706 2.07a.252.252 0 0 1-.328-.165c-.07-.257.164-.636-.235-.684-.496-.023-.849-.4-1.366-.306a3.503 3.503 0 0 0-.448 1.696c.472.211 1.014.258 1.533.398.257-.164.234-.727.655-.515.12.375-.094.751-.185 1.106-.283.353.091 1.365-.638 1.2-.257-.26.19-.753-.28-.827-1.155-.326-2.308-.562-3.484-.821-.213.187-.213.66-.566.589-.236-.073-.117-.377-.072-.543.12-.61.261-1.2.474-1.763.07-.095.258-.072.33 0 .187.234-.166.634.28.73.47-.049 1.085.61 1.366-.024l.33-1.414c-.354-.282-.847-.257-1.27-.446-.402-.024-.402.893-.802.353.213-.708.306-1.508.706-2.117.166-.052.285.092.285.256Z"/><path d="M97.122 38.371c.918 1.675.918 4.144-.332 5.652-.963 1.223-2.093 2.188-3.245 3.294L80.552 58.14c-1.952 1.51-2.637 3.674-2.494 6.075 0 .73.657 1.225.376 1.977-.306.683-.612 1.387-.989 2.048-.046.234-.046.542.14.73.494.374 1.624.07 1.53 1.057-.022.283-.092.567.049.801.21.613 1.222-.19.988.681-.165.166-.165.427-.118.638.33.542 1.084.236 1.341.846.07.683.213 1.531.99 1.74 1.317.306 2.448-.283 3.578-.68 2.447-1.179 5.176-1.813 8.14-1.555 2.214.33 4.166 1.369 6.401 1.696 1.508.33 3.228.069 4.71 0 .189.092.047.281-.024.4-2.425 2.896-5.556 5.436-9.437 4.519-2.59-.493-4.661-2.26-7.202-2.918-3.766-.569-6.497 2.021-10.24 1.436-.752-.098-1.386-.613-1.764-1.295-.353-.636-.023-1.437-.07-2.118-.26-.472-1.27-.402-1.01-1.176.02-.168.35-.306.091-.472-.26-.024-.517-.024-.73-.213-.541-.518.379-1.435-.423-1.813-.752-.045-1.765.212-2.094-.656-.14-.614.236-1.106.493-1.603.353-.75 1.13-1.363 1.036-2.307-.187-.538-.61-.942-.636-1.529.449-3.294.402-6.873 3.532-8.989L89.379 44.8c2.163-1.907 4.47-3.553 6.471-5.742.306-.376.472-.848.8-1.201.283.023.353.33.472.515Zm-91.86 5.488c.07.257-.21.328-.377.398-.212.049-.516 0-.589.283.047.259-.21.614.12.754 1.129.236 2.283.47 3.436.566.21-.215.165-.803.635-.614.164.284-.07.614-.07.941-.093.47-.119 1.013-.308 1.46a.245.245 0 0 1-.257 0c-.283-.21.117-.777-.353-.825-1.178-.118-2.26-.422-3.437-.54-.21.257-.14.635-.164.94.21.235.775.235.66.684-.166.167-.379 0-.566.023-.308-.14-.753-.023-.918-.376.33-1.225.4-2.563.706-3.815l.118-.068c.445.093 1.034-.143 1.364.189Zm2.683 4.917c.117 1.035-.236 2.024-.14 3.13-.07.072-.096.212-.213.187-.164.072-.282-.092-.304-.209-.049-.166.022-.376-.168-.495-1.27.045-2.375-.283-3.67-.164-.306.117-.117.753-.587.564-.214-.587.045-1.18 0-1.814.045-.164-.024-.4.187-.492.213-.07.283.092.353.236.07.14-.07.398.19.47 1.105.188 2.377.069 3.506.211l.14-.142c-.095-.398.307-1.01-.236-1.198-.163-.093-.353-.166-.493-.306-.045-.164.023-.33.189-.376.421.093.847.232 1.246.398Zm-2.494 6.92a2.54 2.54 0 0 1-1.012-.307c.234-.26.636-.328.963-.378l.12.142c-.024.187.044.402-.071.542Zm2.284.187c-.026-.14-.166-.236-.332-.188-.187.049-.187.281-.164.449-.259.282-.54-.047-.823-.047-.472-.261-.212-.895-.282-1.342.282-.214.612-.33.965-.402.164.14.117.379.21.542.141.05.354.069.4-.117l.026-2.166-.096-.115c-.565-.166-.236.538-.61.68-1.342.519-2.637 1.153-4.026 1.578l-.259.234a.673.673 0 0 0 .164.681l3.978 1.343c.377.094.472.494.613.775.07.027.236.074.306-.045.094-.636-.096-1.225-.07-1.86Zm.234 2.661c.072 1.013.189 2.023.33 2.988-.047.14-.258.164-.354.07-.187-1.103-1.246-.187-1.905-.378l-2.023.191c-.495.024-.025.847-.614.66-.21-.447-.21-.966-.236-1.461.025-.566-.446-1.317.096-1.693.28-.14.589-.166.916-.213.094.12.213.283.094.4-.187.19-.493.21-.589.449.049.304-.022.634.168.868l1.246-.092c.189-.119.094-.353.068-.517-.164-.19-.657-.074-.54-.45.449-.234 1.014-.211 1.53-.258.095.024.213.072.26.164-.025.425-1.084.404-.446.965.495-.046 1.059 0 1.433-.257.025-.423 0-.848-.304-1.13-.234-.095-.566-.118-.683-.352-.047-.12.049-.215.14-.262.494.047 1.083-.043 1.413.308Zm.659 4.494c-.023.519.283.919.21 1.459-.046.142-.233.095-.329.072-.162-.306-.375-.636-.8-.47-.35.21-.963.045-1.129.493.07.497.213.942.306 1.414.234.328.564-.05.849 0 .282-.119.657-.074.846-.378.024-.21-.049-.497.187-.59.52.026.355.662.496.99l.282 1.22c-.046.12-.214.12-.308.1-.21-.166-.28-.755-.729-.52a866.35 866.35 0 0 1-3.317.914c-.19.24.07.897-.424.78a9.04 9.04 0 0 1-.517-2.235c.045-.117.188-.142.307-.094.14.164.164.375.327.52.47-.167 1.085-.12 1.412-.496a9.357 9.357 0 0 0-.423-1.601c-.493 0-1.059.045-1.435.4-.024.212.047.493-.166.588-.166.046-.33-.095-.351-.26-.07-.61-.26-1.2-.378-1.809 0-.094 0-.216.14-.234.19-.097.308.162.378.28 0 .116.14.212.234.28 1.202-.28 2.403-.492 3.58-.798.282-.19-.024-.895.541-.73l.211.705Zm2.4 8.096c.211.495.352 1.014.588 1.505.049.143-.07.213-.164.263-.375-.027-.402-.684-.802-.427-1.059.472-2.163.849-3.222 1.319-.308.237.211.871-.4.848-.448-.872-.777-1.79-1.129-2.705.092-.447.61-.519.917-.778.142-.025.258.07.304.187.024.304-.374.447-.47.733.072.254.12.56.33.726.493-.115.965-.281 1.39-.564-.046-.214-.118-.448-.282-.565-.19-.047-.472.117-.52-.14-.095-.19.141-.307.26-.377.424-.094.777-.402 1.247-.423a.294.294 0 0 1 .072.376c-.12.16-.47.258-.308.538.072.121.119.287.259.308.472-.144.965-.259 1.363-.565 0-.21-.045-.517.143-.704.308-.072.308.279.425.445Zm40.058 5.813c5.367 1.764 10.59 3.93 15.65 6.427 1.6.965 4.215 1.93 4.236 4.236-.47 4.52-7.272 5.18-6.517 10.165.189 1.745 1.176 3.508 2.87 4.284.54.306 1.223.33 1.836.425.778.305 1.765-.778 2.096.375.069.495-.542.569-.825.848-2.543 1.554-6.188 3.366-9.037 1.2-1.602-1.151-2.33-2.916-2.378-4.847.047-3.132 3.084-5.04 5.2-7.157.92-.915 1.65-2.068 1.25-3.41-.803-1.648-2.614-2.166-4-3.036a114.058 114.058 0 0 0-22.573-8.544c-1.884-.447-3.719-1.083-5.813-.894-.588.164-1.105.613-1.48 1.106-.167 0-.309-.095-.45-.187-.33-.519 0-1.154.07-1.718.33-1.39 1.602-2.758 3.036-3.013.446-.12.918-.14 1.39-.213 5.506.449 10.38 2.422 15.439 3.953ZM12.44 76.1c-.496.989-1.53 1.51-2.471 1.79-.379.024-.777.024-1.036-.257-.33-.213-.212-.658-.212-.99.61-1.177 1.907-1.977 3.223-1.836l.238.142c.375.26.258.777.258 1.151Zm.376-1.27a2.395 2.395 0 0 0-1.271-.938c-1.41-.19-2.682.585-3.412 1.763a2.298 2.298 0 0 0-.025 1.765c.378.798 1.203 1.434 2.118 1.412 1.248-.093 2.567-.942 2.967-2.19.189-.655-.07-1.271-.377-1.812Zm4.449 7.154c.023.142-.047.285-.166.33-.304 0-.423-.424-.751-.377-.965.661-1.978 1.342-2.896 2.073.025.308.306.517.47.776.353.14.755-.398 1.014.024l-.025.19-1.036.66-.142-.025-2.282-3.18c.072-.42.566-.61.872-.916.117-.048.306-.048.35.117.024.353-.444.566-.35.917.185.19.259.661.61.542.942-.73 1.978-1.27 2.896-2.024.022-.33-.493-.66-.07-.919l.21.025 1.296 1.787Zm1.671 2.073-.944 3.696c.096.093.236-.049.332-.12l1.648-1.577c.093-.328-.54-.585-.096-.845l.236.02 1.295 1.367c.069.166-.072.236-.189.281-.283 0-.447-.353-.73-.234-.893.87-1.93 1.6-2.73 2.518.049.284.447.589.049.776-.449-.187-.8-.636-1.108-1.012-.093-.634.285-1.246.4-1.882.07-.61.4-1.13.355-1.763l-.166.07-1.648 1.457c-.189.331.495.59 0 .825l-.21-.045-1.085-1.227c-.07-.117-.023-.282.12-.306.305-.07.446.378.729.164 1.082-.891 2.14-1.812 3.223-2.682.236.026.424.306.52.519Zm5.576 5.295c.049.142-.07.234-.164.283-.26.023-.472-.26-.73-.119-.799.918-1.694 1.788-2.47 2.73-.024.283.328.447.14.732-.187.138-.374-.12-.517-.24l-1.884-1.693c-.07-.4.355-.636.496-.989.119-.138.26-.093.4-.02.189.373-.424.94.212 1.175.14.117.33.378.517.144.283-.332.682-.542.776-.946-.14-.138-.283-.353-.493-.232-.117.07-.283.164-.424.094a.443.443 0 0 1-.095-.283c.378-.378.73-.85 1.131-1.13.117.024.234.094.258.211-.024.234-.305.379-.19.638.12.115.26.304.449.185l.87-.965c-.07-.328-.468-.562-.73-.753-.374-.14-1.059.613-1.08-.14.33-.305.73-.47 1.08-.706l.215.072 2.233 1.952Zm2.213 1.671c.094.117-.044.26-.14.305-.26.072-.402-.21-.66-.117a15.06 15.06 0 0 0-1.294 2.213c.776-.353 1.506-.942 2.237-1.459.21-.19.4-.4.706-.376.351.35-.07.776-.096 1.149-.165.755-.353 1.486-.47 2.262h.14l1.438-1.884c.047-.326-.612-.634-.094-.846.564.284 1.13.634 1.647 1.012.023.142-.073.236-.164.28-.26.051-.425-.208-.661-.114-.847.94-1.576 1.952-2.306 2.942-.048.328.823.613.211.869-.519-.256-1.082-.562-1.506-.987.143-.987.377-1.954.566-2.943-.164-.115-.33.119-.495.189l-2.046 1.412-.281-.072-1.131-.847c-.096-.142-.026-.327.163-.327.19.045.375.235.59.165a33.764 33.764 0 0 0 1.927-3.204c.073-.351-.658-.657-.116-.915.636.375 1.225.823 1.836 1.293Zm5.814 3.509c.283.115.587.232.823.447-.023.117-.047.232-.164.282-.306.092-.471-.165-.706-.093-.637 1.01-1.152 2.069-1.741 3.103.047.33.447.401.682.519.447.138.636-.802 1.081-.307-.092.425-.4.755-.634 1.131-.07.094-.236.07-.33 0-1.08-.635-2.211-1.106-3.294-1.694-.119-.474.281-.872.377-1.295.07-.094.21-.069.283-.047.28.306-.19.989.376 1.13.164.068.33.258.519.19.659-.989 1.129-2.073 1.718-3.085.021-.425-.899-.54-.355-.944.47.164.919.449 1.365.663Zm2.8 5.855c-.165.097-.399-.022-.563-.09-.189-.139-.236-.304-.26-.495.094-.496.282-1.081.824-1.272.236.025.447.07.612.236-.117.567-.4 1.082-.612 1.621Zm3.037-3.433c-.682-.236-1.367-.542-2.073-.73-.138.026-.163.166-.138.282.704.26.374.963.185 1.414-.068.093-.115.306-.304.282-.377-.52-.447-1.177-.587-1.79-.049-.636-.757-1.108-1.248-1.39-.143.027-.19.167-.213.263.378.823.66 1.69.847 2.613-.069.256-.4.162-.59.304-.54.281-.776.825-.776 1.412.19 1.411 1.812 1.293 2.756 1.882.19.022.375.236.54.022.19-.351-.306-.398-.446-.632.259-1.106.846-2.052 1.154-3.132.022-.634.61-.26.94-.423.07-.094.094-.306-.047-.377Zm12.991 2.495c.094.023.117.165.07.236-.165.282-.565.023-.682.376-.023 1.27-.26 2.424-.33 3.672.117.256.685.166.566.589l-.119.094c-.987-.189-2.093-.094-3.058-.308-.12-.375-.164-.94.07-1.248.26-.092.353.191.423.355-.023.187.143.378.305.399.26-.046.708.258.825-.142-.094-.448.165-.798.072-1.198-.12-.144-.285-.118-.447-.118-.261.118-.166.612-.544.448-.234-.544-.045-1.178.074-1.718.047-.094.209-.07.304-.025.26.14-.095.589.305.657.189.023.425 0 .446-.209l.12-1.203c-.305-.258-.775-.187-1.155-.166-.258.24-.328.733-.728.71-.306-.402.164-.897.234-1.344.074-.115.166-.115.26-.138.965.165 2.024.093 2.99.28Zm-10.826 1.622c-.072-.329-.166-.725-.047-1.057.236.047.496-.021.658.166-.115.329-.305.706-.61.891Zm3.294-2.588-1.316-.304c-.236-.047-.566-.213-.755.023-.166.328.285.328.425.496-.047.33-.284.585-.495.823-.375-.072-.753-.072-1.083-.215-.471-.115-.163-.682-.259-1.035.142-.233.353 0 .542-.069.096-.07.19-.189.142-.354-.71-.328-1.483-.447-2.19-.753l-.212.164c-.117.423.376.308.519.589.21 1.507.234 3.083.423 4.59.166.189.495.305.75.209.993-1.221 1.816-2.541 2.852-3.719.234-.067.493.027.68-.139.024-.091.073-.234-.023-.306Z"/><path d="M55.158 103.707c-.285.191-.708.096-1.036.07-.872-.164-.893-1.082-1.012-1.766 0-.75.07-1.503.753-1.928.355-.046 1.178-.304 1.248.235-.07 1.156.117 2.213.047 3.389Zm1.154.025c-.189-1.201-.072-2.519-.189-3.766.19-.282.706-.072.706-.518-.238-.332-.731-.116-1.084-.188-1.295.234-2.965-.048-3.554 1.481-.355.965-.4 2.379.402 3.157.8.466 1.787.683 2.777.445.495-.094 1.106.117 1.553-.168.142-.443-.424-.232-.61-.443Zm-11.535-.682c-.094.164-.305.07-.399.023-.189-.023-.353-.238-.425-.378-.045-.587-.021-1.221.542-1.482.168-.026.494-.071.566.142 0 .609-.258 1.106-.285 1.695Zm2.215-4.024-1.484-.26c-.26.022-.519-.212-.732 0-.209.494.425.327.591.61-.025.45-.07.895-.284 1.25-.681-.024-1.34-.024-1.834.398-.425.45-.495 1.084-.4 1.718.375.99 1.504.85 2.378 1.014.374.047.8.281 1.174.115.142-.423-.447-.304-.564-.609.164-1.203.375-2.377.564-3.578.07-.352.519-.19.708-.379.07-.115 0-.259-.117-.279Z"/></g></svg>