<svg xmlns="http://www.w3.org/2000/svg" fill="none" aria-hidden="true" viewBox="0 0 171 70"><g id="Department of Homeland Security"><g id="Group"><g id="FEMA"><path fill="#045388" d="M70.8173 45.8686H74.1732V25.2608H70.8173V23.2158H88.0167V28.5644H85.9192V25.2608H78.1585V34.4898H84.1888V31.5008H86.2338V40.1006H84.1888V36.5348H78.1585V45.8686H81.5669V47.9137H70.8173V45.8686Z"/><path fill="#045388" d="M90.1666 45.8686H93.4702V25.2608H90.1666V23.2158H107.418V28.5644H105.321V25.2608H97.4554V34.1751H103.538V31.1862H105.583V39.7859H103.538V36.2726H97.4554V45.8686H105.636V42.4078H107.681V47.9137H90.1666V45.8686Z"/><path fill="#045388" d="M109.568 45.8686H112.924V25.2608H109.568V23.2158H117.486V25.2608L125.404 41.831L133.218 25.2608V23.2158H141.293V25.2608H137.937V45.8686H141.293V47.9137H130.491V45.8686H133.899V28.879H133.847L124.932 47.9137H124.041L115.284 29.246H115.179V45.8686H118.535V47.9137H109.568V45.8686Z"/><path fill="#045388" d="M143.443 47.9137H149.893V45.8686H147.638L149.893 39.2616H158.125L160.485 45.8686H158.125V47.9137H166.725V45.8686H164.575L155.87 22.5865H153.773L145.593 45.8686H143.443V47.9137ZM157.286 37.2165H150.679L153.878 28.1449H153.983L157.286 37.2165Z"/></g><g id="Group_2"><path id="Vector" fill="white" d="M33.0106 6.06845C17.1221 6.06845 4.27502 18.968 4.27502 34.8041C4.27502 50.6401 17.1221 63.5397 33.0106 63.5397C48.8991 63.5397 61.7462 50.6925 61.7462 34.8041C61.7462 18.9156 48.8467 6.06845 33.0106 6.06845Z"/><g id="Vector_2"><path fill="#C42032" d="M50.4731 24.5265C50.1584 24.6313 49.8438 24.7362 49.5292 24.7887C51.312 27.7251 52.3084 31.1336 52.3084 34.8566C52.3084 45.5014 43.6562 54.1535 33.0115 54.1535C22.3667 54.1535 13.7145 45.5014 13.7145 34.8566C13.7145 31.0287 14.8157 27.463 16.7559 24.4216C16.4413 24.3167 16.1267 24.2118 15.8645 24.0545C13.9243 27.1483 12.7707 30.8714 12.7707 34.8566C12.6658 46.0257 21.7374 55.0974 32.959 55.0974C44.1806 55.0974 53.1998 46.0257 53.1998 34.8566C53.3047 31.0287 52.2559 27.5154 50.4731 24.5265Z"/><path fill="#C42032" d="M21.7899 19.1254C24.9886 16.8182 28.8165 15.5073 33.0114 15.5073C37.6784 15.5073 41.9782 17.1328 45.3342 19.912C45.7013 19.8071 46.0683 19.7022 46.4354 19.5974C42.8696 16.3987 38.1503 14.511 33.0114 14.511C28.397 14.511 24.1496 16.0841 20.7411 18.6535C20.8984 18.7059 21.0558 18.7584 21.2655 18.8632C21.4228 18.9681 21.5801 19.0206 21.7899 19.1254Z"/></g><path id="Vector_3" fill="#C0C2C4" d="M33.0106 61.7568C18.1709 61.7568 6.05789 49.6962 6.05789 34.8041C6.05789 19.9119 18.1185 7.85132 33.0106 7.85132C47.9028 7.85132 59.9634 19.9119 59.9634 34.8041C59.9634 49.6962 47.9028 61.7568 33.0106 61.7568ZM33.0106 6.06845C17.1221 6.06845 4.27502 18.968 4.27502 34.8041C4.27502 50.6401 17.1221 63.5397 33.0106 63.5397C48.8991 63.5397 61.7462 50.6925 61.7462 34.8041C61.7462 18.9156 48.8467 6.06845 33.0106 6.06845Z"/><path id="Vector_4" fill="#5E9841" d="M32.8016 39.4189H27.3481C27.453 39.5763 27.5579 39.7336 27.6103 39.8909C28.0298 40.4677 28.5542 40.8348 29.2359 41.0969C30.1798 41.3591 30.809 41.6213 31.2809 41.7262L31.8053 41.8835C32.2248 41.9884 32.5394 42.2506 32.7492 42.4603V39.4189H32.8016Z"/><g id="Vector_5"><path fill="#0778AE" d="M32.5382 37.3209L32.1711 37.1636L31.9614 36.6392L31.437 36.4295L30.8602 35.9051L30.4931 36.2722L29.9688 36.3771L29.7066 36.7965L29.3919 37.2685L28.8676 37.5307L28.5005 38.1599L28.2908 38.4221L27.9237 38.6843L27.714 38.4745L27.5042 38.6843L27.242 39.2087C27.0847 38.8416 27.0323 38.5794 26.9798 37.9502C26.875 36.849 26.8225 35.4332 26.7177 34.0174C28.553 33.5979 30.9126 33.3881 32.7479 33.3357V37.688C32.6955 37.5831 32.6431 37.5307 32.5382 37.3209Z"/><path fill="#0778AE" d="M38.5685 34.9612C38.7782 34.8039 38.988 34.6466 39.2502 34.5942C39.2502 34.3844 39.3026 34.1747 39.3026 34.0174C37.4673 33.5979 35.1076 33.3881 33.2723 33.3357V34.9612C33.3247 35.0137 33.3772 35.0137 33.4296 35.0661C33.6918 35.2234 33.9016 35.3283 34.2162 35.3283C34.4259 35.3283 34.6357 35.2234 34.8454 35.0661C35.16 34.8564 35.5271 34.6466 36.0515 34.6466C36.5234 34.6466 36.838 34.8564 37.1002 35.0137C37.3624 35.171 37.5722 35.2759 37.8868 35.2759C38.149 35.2759 38.3063 35.1186 38.5685 34.9612Z"/><path fill="#0778AE" d="M33.2199 38.1075V39.6806C33.2723 39.733 33.3247 39.733 33.3772 39.7855C33.6394 39.9428 33.8491 40.0477 34.1637 40.0477C34.3735 40.0477 34.5832 39.9428 34.793 39.7855C35.1076 39.5757 35.4747 39.366 35.999 39.366C36.471 39.366 36.7856 39.5757 37.0478 39.733C37.31 39.8903 37.5197 39.9952 37.8343 39.9952C38.0965 39.9952 38.2538 39.8903 38.4112 39.7855C38.7782 39.2611 38.988 38.6319 38.988 37.8977C38.988 37.8453 38.988 37.8453 38.988 37.7929L38.9355 37.8453C38.6733 38.055 38.3587 38.3172 37.7819 38.3172C37.2575 38.3172 36.8905 38.1075 36.6283 37.9502C36.4185 37.7929 36.2088 37.688 35.9466 37.688C35.6844 37.688 35.3698 37.8453 35.16 38.0026C34.8979 38.2124 34.5308 38.3697 34.1113 38.3697C33.7442 38.3697 33.4821 38.2648 33.2199 38.1075Z"/></g><g id="Vector_6"><path fill="#045388" d="M26.0889 29.0363C25.6694 28.8265 25.3023 28.6168 24.9353 28.2497C23.6768 27.1486 23.4146 25.9425 23.7817 24.5791C23.9914 23.7926 24.3585 23.3731 24.2011 22.5341C24.0963 22.0621 23.7816 21.6426 23.4146 21.328C22.628 20.5415 21.6317 20.0695 20.1635 19.5452C19.272 19.2305 16.6502 18.444 15.4966 17.3952C15.2344 18.1294 15.7588 19.1781 16.4404 19.283C15.8636 19.3354 15.3393 19.65 15.1295 19.9647C15.549 20.489 16.4404 21.0134 17.1746 21.0134C16.8075 21.2232 16.4404 21.6951 16.2831 21.9573C16.9124 22.3243 17.9087 22.5865 18.6952 22.5341C18.3806 22.7963 18.1184 23.1109 17.9087 23.4255C18.4331 23.6877 19.4294 24.0023 20.4257 24.0548C20.0586 24.2645 19.5342 24.8413 19.3245 25.2084C19.8489 25.4706 21.0549 25.5754 21.7366 25.6803C21.2122 25.9425 20.6879 26.4669 20.3732 26.9912C20.8976 27.2534 21.8939 27.5156 22.7329 27.5156C22.3134 27.8827 22.1037 28.3546 21.9463 28.8266C22.5756 28.9314 23.2048 28.9314 23.939 28.879C23.467 29.4558 23.3097 30.2424 23.2048 30.7667C23.8341 30.7143 24.6206 30.6094 25.1975 30.2424C25.0926 30.7143 25.0926 31.3435 25.3023 31.763C25.5645 31.7106 25.8267 31.6057 26.0889 31.4484C26.1413 30.6619 26.1413 29.8229 26.0889 29.0363Z"/><path fill="#045388" d="M50.8393 18.811C49.6856 19.8598 47.9028 20.122 45.9626 20.7512C44.5468 21.2232 43.6029 21.4853 42.292 22.5341C41.9249 22.7963 41.5579 23.2682 41.6103 24.0023C41.6628 24.8413 41.8201 25.2084 41.8201 26.362C41.8201 27.1486 41.5579 27.8827 41.1908 28.2497C40.8238 28.6692 40.3518 29.0363 39.9323 29.246C39.8799 29.9277 39.8274 30.6619 39.775 31.5008C40.0896 31.6582 40.4567 31.8155 40.7189 31.8679C40.9286 31.4484 40.9286 30.8192 40.8238 30.3472C41.4006 30.7143 42.1871 30.8192 42.8164 30.8716C42.7639 30.3472 42.5542 29.5607 42.0822 28.9839C42.8164 29.0887 43.4981 29.0887 44.0749 28.9314C43.9176 28.5119 43.6554 28.04 43.2883 27.6205C44.0749 27.6729 45.0712 27.3583 45.648 27.0961C45.3334 26.5717 44.809 26.0474 44.2846 25.7852C45.0187 25.7328 46.2248 25.5754 46.8016 25.3133C46.5394 24.9462 46.015 24.3169 45.648 24.1596C46.5918 24.1072 47.5882 23.7401 48.165 23.5304C47.9552 23.2158 47.693 22.9011 47.3784 22.639C48.2698 22.5865 49.1613 22.4292 49.7905 22.0621C49.6856 21.8 49.2137 21.328 48.8991 21.1183C50.7868 20.5415 50.8393 19.5976 50.8393 18.811Z"/><path fill="#045388" d="M42.7115 20.9085C39.9323 18.9683 36.6288 17.8672 33.0106 17.8672C29.7595 17.8672 26.6657 18.811 24.0438 20.3842C24.7255 20.9085 25.0926 21.4853 25.2499 22.0097C25.3548 22.5341 25.4072 23.1109 25.0926 24.0023C24.778 24.9462 24.6206 25.8901 25.3023 26.8864C25.984 27.8302 26.8754 28.3022 27.662 28.4071C28.6059 28.2497 29.7071 28.0924 30.7558 27.9876C30.8607 27.5156 31.3326 27.1486 31.6997 26.7815C32.2765 26.3096 32.1716 25.8901 32.0667 25.5754C31.9619 25.3133 31.6997 25.1559 31.4375 24.9462C31.1753 24.7889 30.179 24.684 30.179 25.3657C30.0217 25.1559 29.9168 24.8413 29.9692 24.4218C30.0741 23.845 31.018 23.7401 31.2277 23.7401C31.018 23.5828 31.1753 23.3731 31.5948 23.2158C32.0667 23.1109 32.5387 23.0585 32.9582 23.0585C33.8496 23.1109 34.0069 23.3206 34.4788 23.6877C35.0557 24.2121 35.7373 24.3169 36.052 24.0548C35.8422 24.5267 35.1605 24.7889 34.7935 24.684C35.0032 25.3133 35.0557 25.8901 35.1605 26.5717C35.213 26.8864 35.2654 27.4107 35.3703 27.8302C36.5763 27.9351 37.7824 28.0924 38.8836 28.3022C39.3031 28.1973 39.775 27.9351 40.1945 27.4107C40.614 26.9912 40.9286 26.362 40.7713 24.9462C40.7189 24.5267 40.5091 23.5304 40.5616 23.006C40.5616 22.2195 41.4006 21.4329 42.7115 20.9085Z"/><path fill="#045388" d="M31.4375 23.8975C31.5948 24.0023 31.6997 24.0548 31.7521 24.0023C31.7521 24.0548 31.8045 24.0548 31.8045 24.1072C31.857 24.1596 31.857 24.1596 31.857 24.2121C31.9094 24.1596 32.1192 24.1072 32.3289 24.0023C32.5387 23.9499 32.7484 23.845 32.7484 23.845C31.9619 23.7401 31.857 23.9499 31.4375 23.8975Z"/><path fill="#045388" d="M38.5688 37.3213C38.7262 37.2165 38.8835 37.0591 39.1457 36.9543C39.1981 36.4299 39.1981 35.9055 39.2505 35.3287C39.1981 35.3812 39.1457 35.4336 39.0408 35.486C38.7786 35.6958 38.464 35.958 37.8872 35.958C37.3628 35.958 36.9957 35.7482 36.7335 35.5909C36.5238 35.4336 36.314 35.3287 36.0519 35.3287C35.7897 35.3287 35.4751 35.486 35.2653 35.6433C35.0031 35.8531 34.6361 36.0104 34.2166 36.0104C33.7971 36.0104 33.4824 35.9055 33.2727 35.7482V37.2689C33.3251 37.3213 33.3776 37.3213 33.43 37.3738C33.6922 37.5311 33.9019 37.636 34.2166 37.636C34.4263 37.636 34.6361 37.5311 34.8458 37.3738C35.1604 37.164 35.5275 36.9543 36.0519 36.9543C36.5238 36.9543 36.8384 37.164 37.1006 37.3213C37.3628 37.4786 37.5725 37.5835 37.8872 37.5835C38.1494 37.636 38.3067 37.4786 38.5688 37.3213Z"/><path fill="#045388" d="M34.1641 40.7822C33.7446 40.7822 33.43 40.6773 33.2203 40.52V42.4077C33.43 42.198 33.7446 41.9882 34.1641 41.8309L34.6885 41.6736C35.108 41.5163 35.7372 41.3066 36.7335 41.0444C36.9957 40.9395 37.2579 40.8346 37.5201 40.6773C37.153 40.6249 36.9433 40.4676 36.7335 40.3103C36.5238 40.1529 36.314 40.0481 36.0519 40.0481C35.7897 40.0481 35.4751 40.2054 35.2653 40.3627C34.8982 40.5724 34.5836 40.7822 34.1641 40.7822Z"/><path fill="#045388" d="M26.718 33.5459C26.6132 31.9727 26.5607 30.3472 26.5083 29.0887C28.4485 28.6692 31.0179 28.3546 33.0105 28.3546C35.0031 28.3546 37.5725 28.6168 39.5127 29.0887C39.4603 30.3472 39.4078 31.9727 39.303 33.5459C37.5201 33.1788 35.0556 32.8642 33.0105 32.8642C30.9654 32.8642 28.5533 33.1788 26.718 33.5459Z"/><path fill="#045388" d="M55.506 27.2009C56.5023 26.7814 56.9742 25.6278 56.5547 24.684C56.1352 23.7401 54.9816 23.3206 53.9853 23.7401C52.989 24.1596 52.5171 25.3132 52.9366 26.2571C53.3561 27.2534 54.5097 27.6729 55.506 27.2009ZM54.2999 24.5266C55.0865 24.1596 55.9779 24.3169 56.2401 24.8937C56.4498 25.4181 55.9779 26.2046 55.1914 26.5193C54.4048 26.8863 53.4609 26.729 53.2512 26.1522C52.989 25.6278 53.5134 24.8413 54.2999 24.5266Z"/><path fill="#045388" d="M54.0902 29.8228L53.6707 28.3546L53.9329 28.2497L54.0377 28.6692L57.2364 27.8826L57.1315 27.4631L57.3413 27.4107L57.9705 29.6655H58.1278L58.1803 29.9277L57.2888 30.1899L57.184 29.8752L57.6035 29.7704L57.3413 28.6168L56.0304 28.9314L56.2401 29.8228L56.6072 29.7179L56.712 30.0326L55.6109 30.2947L55.506 30.0326L55.9255 29.9277L55.6633 29.0362L54.195 29.4033L54.2999 29.7704L54.0902 29.8228Z"/><path fill="#045388" d="M9.41364 25.7851L9.30877 26.2571L11.3538 26.8863C11.9831 27.0961 12.2977 27.4107 12.4026 27.9351C12.455 28.1973 12.455 28.5119 12.3501 28.7741C12.0879 29.6655 11.4063 30.085 10.6721 29.8752L8.46977 29.246L8.3649 29.6655L8.15515 29.6131L8.62708 28.0924L8.83683 28.1448L8.73196 28.5643L10.777 29.1936C11.3538 29.3509 11.616 29.3509 11.8258 29.0887C11.9306 28.9838 12.0355 28.8265 12.0879 28.6692C12.2977 28.0399 11.9831 27.5156 11.3538 27.3058L9.30877 26.6766L9.20389 27.1485L8.94171 27.0961L9.15145 25.7327L9.41364 25.7851Z"/><path fill="#045388" d="M13.0318 26.6766C12.9269 26.8863 12.7172 26.9388 12.5074 26.8863C12.2977 26.7814 12.2453 26.5717 12.2977 26.362C12.4026 26.1522 12.6123 26.0998 12.8221 26.1522C13.0318 26.2571 13.1367 26.4668 13.0318 26.6766Z"/><path fill="#045388" d="M13.7659 25.051L13.6086 25.3132L12.7172 24.7888L12.8745 24.5266L13.2416 24.7364C13.5562 24.6315 13.7135 24.4742 13.8184 24.212C14.0281 23.8974 13.9232 23.5828 13.6611 23.4255C13.4513 23.3206 13.1891 23.373 12.6123 23.6352C12.0355 23.9498 11.9831 24.0023 11.7209 24.0547C11.5111 24.1071 11.3014 24.0547 11.0916 23.9498C10.5148 23.6352 10.4099 23.0584 10.7246 22.4292C10.8294 22.2194 10.9343 22.0621 11.1441 21.9572L10.9868 21.9048L11.1441 21.6426L11.9831 22.1145L11.8258 22.3767L11.4587 22.167C11.1965 22.2718 11.0916 22.4292 10.9868 22.5865C10.8294 22.8487 10.9343 23.1633 11.1441 23.2682C11.3538 23.373 11.5111 23.3206 12.0879 23.006C12.3501 22.8487 12.5074 22.7438 12.6123 22.7438C12.7696 22.6913 12.9269 22.6389 13.1367 22.6389C13.3464 22.6389 13.5562 22.6913 13.7135 22.7962C14.2903 23.1108 14.4476 23.7401 14.133 24.3169C13.9757 24.5791 13.7659 24.7888 13.5562 24.9461L13.7659 25.051Z"/><path fill="#045388" d="M15.2342 22.4292C15.2342 22.6389 15.0769 22.7962 14.8671 22.7962C14.6574 22.7962 14.5001 22.6389 14.5001 22.4292C14.5001 22.2194 14.6574 22.0621 14.8671 22.0621C15.0769 22.0621 15.2342 22.2194 15.2342 22.4292Z"/><path fill="#045388" d="M24.0961 15.0879L21.684 16.3464L21.5791 16.1367L21.9461 15.9269L20.4255 12.9905L20.0584 13.2002L19.9535 12.9905L22.051 11.8893L21.9461 11.732L22.2608 11.6271L22.6803 12.4136L22.4181 12.571L22.2083 12.2039L21.1596 12.7283L21.7364 13.9343L22.5754 13.5148L22.4181 13.1478L22.6803 13.0429L23.2046 14.0392L22.89 14.1441L22.7327 13.8294L21.8937 14.1965L22.5754 15.5074L23.6766 14.9306L23.4668 14.5111L23.729 14.4063L24.0961 15.0879Z"/><path fill="#045388" d="M26.4033 14.2489L24.8302 14.7733L24.7778 14.5636L25.1972 14.4587L24.1485 11.3649L23.729 11.4698L23.6766 11.26L25.3021 10.6832C25.9838 10.4735 26.5606 10.7357 26.7704 11.3125C26.9801 11.8893 26.6131 12.571 25.9838 12.7807C25.8789 12.8331 25.8265 12.8331 25.6692 12.8331L25.5643 12.571C25.6167 12.571 25.6692 12.5185 25.7216 12.5185C26.0887 12.4136 26.246 12.0466 26.0362 11.5746C25.8789 11.0503 25.5643 10.8405 25.1972 10.9978L24.8826 11.1027L25.8789 14.1441L26.3509 13.9868L26.4033 14.2489Z"/><path fill="#045388" d="M31.0702 12.9905L30.808 13.0429L28.8154 9.63447L28.4484 9.68691L27.6618 13.5673L27.2947 13.6197L27.3472 13.8819L28.5008 13.6721L28.4484 13.41L28.0289 13.5148L28.2386 12.571L29.602 12.3088L30.1263 13.1478L29.7069 13.2002L29.7593 13.4624L31.1227 13.2002L31.0702 12.9905ZM28.291 12.1515L28.6057 10.6308L29.3922 11.9417L28.291 12.1515Z"/><path fill="#045388" d="M35.003 12.9905H34.7408C34.636 12.9905 34.5311 12.938 34.4262 12.7283L33.6396 11.4698C34.164 11.3125 34.4262 10.9454 34.4262 10.4735C34.4262 10.1588 34.3213 9.89666 34.164 9.73934C33.9543 9.5296 33.6921 9.47716 33.2201 9.47716H31.5422V9.73934H31.9617V13.0429H31.5422V13.3051H33.1153V13.0429H32.6958V11.5746H32.8531L33.6921 12.938C33.9018 13.2526 33.9543 13.3051 34.2689 13.3051H35.003V12.9905ZM32.6958 9.73934H33.0628C33.4823 9.73934 33.6921 10.0015 33.6921 10.4735C33.6921 10.9454 33.4299 11.26 33.0628 11.26H32.6958V9.73934Z"/><path fill="#045388" d="M37.6249 13.6721L35.7896 13.3575L35.842 13.1478L36.4188 13.2002L36.9432 10.054L35.9469 9.89666L35.842 10.3686L35.5798 10.3162L35.7371 9.37228L35.9993 9.42472V9.58203L38.6736 10.0015L38.7261 9.84422L38.9882 9.89666L38.8834 10.893L38.5687 10.8405L38.6212 10.3686L37.6249 10.2113L37.1005 13.3575L37.6773 13.4624L37.6249 13.6721Z"/><path fill="#045388" d="M42.9735 15.455L41.4004 14.8782L41.4528 14.616L41.9247 14.8258L42.8162 12.5185L40.6138 14.616L40.2992 11.6271L39.4602 13.8294L39.9321 14.0392L39.8272 14.2489L38.5687 13.777L38.6736 13.5673L39.1456 13.7246L40.2992 10.6832L39.8797 10.4735L39.9321 10.2637L40.9284 10.6308L41.1906 13.6197L43.2881 11.5222L44.3368 11.9417L44.232 12.1515L43.8125 11.9941L42.6064 15.0879L43.0783 15.2453L42.9735 15.455Z"/><path fill="#045388" d="M45.7527 17.2903L43.4454 15.8221L43.6027 15.6123L43.9698 15.8745L45.7527 13.0953L45.3856 12.8331L45.4905 12.6758L47.4831 13.8819L47.588 13.777L47.8501 13.9343L47.3258 14.7209L47.0636 14.5636L47.3258 14.1965L46.3295 13.5673L45.5953 14.7209L46.3295 15.1928L46.5392 14.8782L46.8538 15.0355L46.2246 15.9794L45.9624 15.8221L46.1721 15.455L45.3856 14.9831L44.599 16.1891L45.7002 16.8184L45.91 16.5037L46.1721 16.6611L45.7527 17.2903Z"/><path fill="#045388" d="M19.6389 17.4476L19.2718 17.7098L17.3841 15.1928L17.8036 14.9306C18.328 14.5111 19.2194 14.7733 19.7438 15.455C20.2681 16.1367 20.2157 17.0281 19.6389 17.4476ZM20.373 14.9831C19.7438 14.1441 18.5902 13.9343 17.6987 14.616L16.2829 15.6648L16.4402 15.8745L16.8073 15.6123L18.7475 18.2866C18.8523 18.3391 18.9572 18.3391 19.0097 18.3915L19.9535 17.6574C20.4255 17.2903 20.6352 16.9757 20.7401 16.4513C20.845 15.9269 20.6876 15.3501 20.373 14.9831Z"/><path fill="#045388" d="M50.6293 16.5037L50.472 16.7135L50.8391 17.0281L49.2135 18.811L49.633 15.6123L48.7416 14.8258L48.5843 15.0355L48.8989 15.2977L48.8464 15.6648L46.8014 17.8671L46.4343 17.5525L46.277 17.7622L47.2209 18.6537L47.3782 18.4439L47.0111 18.1293L48.6891 16.294L48.3221 19.2305C48.6891 19.1256 49.0562 19.0207 49.4233 18.9159C49.4757 18.9159 49.4757 18.8634 49.5281 18.8634L50.9439 17.2903L51.311 17.6049L51.4683 17.3952L50.6293 16.5037Z"/><path fill="#045388" d="M54.5097 20.6463L54.4048 20.7512L52.7792 18.6012L52.8841 18.4964L52.6744 18.2342L51.8878 18.8634L52.0976 19.1256L52.4646 18.8634L53.0414 19.65L50.472 21.5377L50.3671 21.328C50.3147 21.3804 50.2098 21.3804 50.1574 21.4328L51.1012 22.6913L51.311 22.534L50.9439 22.1145L53.5134 20.1744L54.0902 20.9609L53.7231 21.2231L53.9329 21.4853L54.7194 20.9085L54.5097 20.6463Z"/><path fill="#045388" d="M37.7297 59.9742L37.4151 60.0267L37.2054 59.0303L37.52 58.9779L37.6249 59.3974C37.8871 59.5547 38.1492 59.6072 38.4114 59.5023C38.7785 59.4498 38.9882 59.1352 38.9358 58.873C38.8834 58.6108 38.6736 58.4535 38.0968 58.2438C37.4676 58.034 37.3627 57.9816 37.2054 57.8243C36.9956 57.7194 36.8908 57.4572 36.8383 57.2475C36.7334 56.6707 37.0481 56.1463 37.7297 55.989C37.9395 55.9365 38.1492 55.9365 38.359 55.989L38.3066 55.8317L38.6212 55.7792L38.8309 56.7231L38.5163 56.7755L38.4114 56.4085C38.1492 56.3036 37.9919 56.3036 37.7822 56.3036C37.52 56.3561 37.3103 56.6182 37.3627 56.8804C37.4151 57.0902 37.5724 57.2475 38.1492 57.4572C38.4114 57.5621 38.6212 57.667 38.7261 57.667C38.8834 57.7194 38.9882 57.8243 39.1456 57.9292C39.3029 58.0865 39.4077 58.2438 39.4077 58.4535C39.5126 59.0828 39.198 59.6596 38.5163 59.8169C38.2017 59.8693 37.9395 59.8693 37.6249 59.7645L37.7297 59.9742Z"/><path fill="#045388" d="M43.5503 58.1389L41.0333 59.1352L40.9284 58.9255L41.3479 58.7157L40.1419 55.6744L39.7224 55.8317L39.6699 55.6219L41.8723 54.7305L41.7674 54.5732L42.082 54.5207L42.3967 55.3597L42.1345 55.4646L41.9772 55.0451L40.876 55.5171L41.3479 56.7755L42.2394 56.4609L42.082 56.0414L42.3442 55.9366L42.7637 56.9853L42.4491 57.1426L42.3442 56.7231L41.4528 57.0902L42.0296 58.4011L43.1832 57.9292L43.0259 57.5621L43.2881 57.4572L43.5503 58.1389Z"/><path fill="#045388" d="M47.3782 55.8317C47.0636 56.2512 46.8014 56.4609 46.4343 56.6707C45.3856 57.2999 44.232 57.0377 43.6552 56.0939C43.0784 55.15 43.393 53.9964 44.3368 53.3671C44.6515 53.1574 44.9137 53.1049 45.2807 53.0001L45.1758 52.7903L45.438 52.633L45.9624 53.5244L45.7002 53.6818L45.4905 53.3671C45.071 53.3147 44.9137 53.3671 44.6515 53.5769C43.9698 53.9964 43.8649 54.8354 44.3368 55.6744C44.8088 56.4609 45.7002 56.7755 46.3819 56.3561C46.6441 56.1987 46.749 56.0414 46.9063 55.7792L46.6965 55.4122L46.9587 55.2549L47.3782 55.8317Z"/><path fill="#045388" d="M49.1086 49.9063L48.7416 50.2209L50.2098 51.794C50.6293 52.2659 50.7342 52.7379 50.5769 53.2098C50.472 53.472 50.3147 53.7342 50.0525 53.8915C49.3708 54.5207 48.5843 54.5207 48.0599 53.9439L46.4868 52.2135L46.1721 52.4757L46.0148 52.2659L47.2209 51.1648L47.3782 51.3745L47.0636 51.6367L48.4794 53.2098C48.8989 53.6293 49.1086 53.7866 49.4233 53.6818C49.5806 53.6293 49.7379 53.5769 49.8428 53.4196C50.3671 52.9476 50.3671 52.3708 49.8952 51.8464L48.4794 50.2733L48.2172 50.7453L48.0599 50.5355L49.0038 49.6441L49.1086 49.9063Z"/><path fill="#045388" d="M55.506 46.6027L54.7719 48.0185L54.5621 47.8612L54.7719 47.4942L51.8878 45.921L51.6781 46.2881L51.4683 46.1832L52.2024 44.7674L52.4122 44.8723L52.2024 45.2918L55.1389 46.8649L55.2962 46.4454L55.506 46.6027Z"/><path fill="#045388" d="M56.9742 43.1419L56.345 44.8723L56.1352 44.7674L56.2925 44.2955L53.3036 43.1419L52.989 44.0857L53.4085 44.243L53.3036 44.5577L52.4122 44.1906L52.5171 43.876L52.6744 43.9284L53.6182 41.4114L53.4609 41.359L53.5658 41.0968L54.5097 41.4114L54.3524 41.6736L53.9329 41.5687L53.6182 42.4602L56.6072 43.5614L56.7645 43.0894L56.9742 43.1419Z"/><path fill="#045388" d="M58.023 38.9469L57.7083 40.52L57.4462 40.4676L57.551 40.0481L55.9779 39.7334L54.0902 40.52L54.0377 40.8871L53.7755 40.8346L54.0902 39.2615L54.3524 39.3139L54.2475 39.7334L55.6633 39.1566L54.5621 38.1603L54.4572 38.6323H54.195L54.4572 37.3213H54.7194L54.667 37.7408L55.9779 38.9993L57.6559 39.3139L57.7608 38.8944L58.023 38.9469Z"/><path fill="#045388" d="M50.2098 48.5953L50.4196 48.3332C50.6817 48.0185 50.9964 47.9661 51.3634 48.2283C51.7305 48.4905 51.8354 48.91 51.5732 49.2246L51.3634 49.4868L50.2098 48.5953ZM54.1426 48.6478L54.0377 48.8575C53.9853 48.9624 53.8804 48.9624 53.6182 48.9624L52.0976 48.8575C52.3073 48.3332 52.2024 47.9137 51.7305 47.599C51.4683 47.3893 51.2061 47.3368 50.9964 47.3893C50.7342 47.4417 50.472 47.599 50.2098 48.0185L49.2135 49.3819L49.4233 49.5392L49.6854 49.1721L52.3597 51.1123L52.0976 51.4794L52.3073 51.6367L53.2512 50.3782L53.0414 50.2209L52.7792 50.588L51.6256 49.6965L51.7305 49.5916L53.3036 49.6965C53.6707 49.749 53.7231 49.6965 53.9329 49.4343L54.3524 48.8575L54.1426 48.6478Z"/><path fill="#045388" d="M8.78439 42.4602L8.41733 40.9395L8.67952 40.8346L8.78439 41.3066L10.2002 40.9395L9.7807 39.1042L8.31246 39.4713L8.41733 39.8908L8.20758 39.9432L7.78809 38.4225L8.05027 38.3176L8.15515 38.7896L11.3538 38.003L11.2489 37.5311L11.4587 37.4786L11.8258 39.0518L11.616 39.1042L11.5111 38.6847L10.0953 39.0518L10.5148 40.8346L11.9831 40.4676L11.8258 40.1005L12.0879 39.9956L12.455 41.5687L12.2453 41.6212L12.1404 41.2541L8.94171 41.9882L9.04658 42.4077L8.78439 42.4602Z"/><path fill="#045388" d="M12.2453 46.0784C13.2416 45.6064 13.6611 44.5052 13.2416 43.5614C12.8221 42.6175 11.6684 42.198 10.6721 42.6699C9.67583 43.1419 9.25633 44.2431 9.67583 45.1869C10.0953 46.0784 11.1965 46.4979 12.2453 46.0784ZM10.9868 43.3516C11.7733 42.9846 12.6647 43.1419 12.9269 43.6662C13.1891 44.1906 12.6647 44.9772 11.8782 45.2918C11.0916 45.6589 10.1478 45.5015 9.93801 44.9772C9.67583 44.5052 10.2002 43.7187 10.9868 43.3516Z"/><path fill="#045388" d="M13.6611 51.4794L12.6647 50.116L12.8745 50.0111L13.1367 50.3782L15.1293 48.91L12.1404 49.5392L13.5562 46.8125L11.616 48.2283L11.8782 48.5953L11.6684 48.7527L10.9343 47.7039L11.0916 47.5466L11.3538 47.9137L14.0806 45.9735L13.7659 45.6064L13.9757 45.4491L14.5525 46.2881L13.2416 48.9624L16.0732 48.3856L16.7549 49.277L16.5451 49.4343L16.2305 49.0148L13.6086 50.955L13.8708 51.3745L13.6611 51.4794Z"/><path fill="#045388" d="M16.65 54.4159L14.6574 52.5806L14.8147 52.3708L15.1293 52.6854L17.3841 50.2733L17.0695 50.0111L17.2268 49.8014L18.9572 51.3745L19.0621 51.2696L19.2718 51.4794L18.695 52.1611L18.4328 51.9513L18.7475 51.6367L17.8036 50.8501L16.9122 51.8464L17.5938 52.4233L17.856 52.1611L18.1182 52.3708L17.3317 53.2098L17.1219 53.0001L17.3841 52.6854L16.7024 52.0562L15.7585 53.1574L16.65 53.9964L16.9122 53.6818L17.1744 53.8391L16.65 54.4159Z"/><path fill="#045388" d="M20.0584 56.7231L17.8036 55.2549L17.9609 55.0451L18.328 55.3073L20.1633 52.5806L19.7962 52.3184L19.9011 52.1086L21.2645 53.0001L21.1071 53.2098L20.7401 53.0001L18.9572 55.6219L19.9535 56.3036L20.2157 55.989L20.4779 56.1463L20.0584 56.7231Z"/><path fill="#045388" d="M24.2009 58.506L23.9912 58.4011L24.2009 54.4683L23.8863 54.311L21.0023 57.0377L20.6876 56.8804L20.5828 57.0902L21.684 57.6145L21.7888 57.4048L21.3693 57.195L22.1035 56.5134L23.3619 57.0902L23.3095 58.0865L22.9424 57.9292L22.8376 58.1389L24.0961 58.7157L24.2009 58.506ZM22.3656 56.3036L23.4668 55.2549L23.3619 56.7755L22.3656 56.3036Z"/><path fill="#045388" d="M28.1337 59.8693L27.7667 59.7645L26.4557 56.6182L25.8789 59.0303L26.3509 59.1352L26.246 59.345L25.0399 59.0303V58.8206L25.5119 58.9255L26.246 55.989L26.1411 55.6744L25.7216 55.5695L25.7741 55.3597L26.8752 55.6219L28.0813 58.6108L28.6581 56.3036L28.1862 56.1987L28.2386 55.9366L29.4971 56.2512L29.4447 56.4609L28.9727 56.3561L28.1337 59.8693Z"/><path fill="#045388" d="M32.9055 58.2962C32.8531 59.1877 32.3287 59.8693 31.5946 59.8169L31.1227 59.7645L31.2275 56.6182L31.7519 56.6707C32.3811 56.7231 32.958 57.4572 32.9055 58.2962ZM31.8568 56.3561L30.0739 56.3036V56.5658H30.4934L30.3885 59.8693H29.969V60.1315L31.7519 60.184C32.3287 60.2364 32.6958 60.0791 33.1153 59.7645C33.5348 59.3974 33.7445 58.9255 33.7445 58.4011C33.7445 57.2999 32.958 56.4085 31.8568 56.3561Z"/><path fill="#045388" d="M43.877 43.113C43.8588 43.1571 43.838 43.1897 43.8117 43.2157C43.7822 43.2351 43.7478 43.2467 43.7075 43.2467C43.6995 43.2487 43.6919 43.2505 43.6845 43.252C43.6804 43.2279 43.6698 43.2091 43.6551 43.1944L43.5502 43.0895C43.6551 43.1419 43.7075 43.1419 43.7599 43.1419C43.8076 43.1419 43.8457 43.1323 43.877 43.113Z"/><path fill="#045388" d="M43.6265 43.2989C43.59 43.2977 43.5492 43.2923 43.4881 43.2665C43.4947 43.2742 43.5006 43.2838 43.5072 43.2945C43.5178 43.3116 43.5302 43.3316 43.5502 43.3516C43.5663 43.3678 43.5825 43.3889 43.591 43.4166C43.5949 43.4121 43.5987 43.408 43.6026 43.4041C43.6219 43.3656 43.6288 43.3306 43.6265 43.2989Z"/><path fill="#045388" d="M43.3583 43.7449C43.2715 43.7966 43.1921 43.8019 43.1307 43.7712L43.0258 43.6663C43.0782 43.7187 43.0782 43.7712 43.0782 43.8236C43.0816 43.8372 43.0842 43.8501 43.0858 43.8624C43.1544 43.8927 43.2495 43.9006 43.288 43.8235C43.3145 43.797 43.3376 43.7705 43.3583 43.7449Z"/><path fill="#045388" d="M42.9724 43.8941C42.9696 43.8899 42.9668 43.8854 42.9639 43.8807C42.9533 43.8636 42.941 43.8436 42.9209 43.8235C42.9209 43.8498 42.934 43.876 42.9472 43.9022C42.951 43.91 42.9549 43.9177 42.9585 43.9255C42.9634 43.9156 42.9681 43.905 42.9724 43.8941Z"/><path fill="#045388" d="M42.8667 44.1211C42.8501 44.1269 42.8331 44.1325 42.8162 44.1382C42.8371 44.1381 42.8537 44.1319 42.8667 44.1211Z"/><path fill="#045388" d="M42.8162 44.1382C42.4493 44.2429 42.2917 44.1906 42.2393 44.0858C42.1483 43.9342 42.145 43.7651 42.1786 43.6393C42.1345 43.7827 42.1373 43.8818 42.1868 43.9809C42.1987 44.0046 42.2078 44.0336 42.2174 44.0638C42.25 44.1671 42.2867 44.2836 42.449 44.243C42.5538 44.243 42.7113 44.1906 42.8162 44.1382Z"/><path fill="#045388" d="M20.3436 38.8142C20.2338 39.2938 20.0429 40.1279 20.1415 40.9457L20.1346 40.93C20.1057 40.8641 20.0877 40.8231 20.0059 40.7822C19.8485 40.0481 19.9534 39.0518 20.3729 38.6847C20.3677 38.7083 20.3621 38.7331 20.3561 38.7592L20.3436 38.8142Z"/><path fill="#045388" d="M17.5413 38.6847C17.4364 38.1079 17.7511 36.6396 18.2754 36.3775C17.985 36.9167 17.8588 37.4232 17.6888 38.1046C17.644 38.2845 17.5961 38.4766 17.5413 38.6847Z"/><path fill="#045388" fill-rule="evenodd" d="M49.8427 37.5836L51.2585 37.1641L50.1048 38.1604L50.1573 37.7933L49.528 38.2128C49.4777 38.3889 49.4395 38.5409 49.4017 38.6918L48.322 39.0518L48.6366 39.1566L45.7001 41.0968C45.4904 41.3066 45.333 41.4639 45.1233 41.6212C45.3855 41.4639 45.7001 41.3066 46.0672 41.1493L48.7939 39.3664L48.7415 39.681L49.3089 39.0539C49.2955 39.1038 49.2812 39.1553 49.2658 39.2091L50.4195 39.0518L50.1048 38.9469L51.5206 38.5274L50.4719 39.5762L50.5243 39.2091L49.6853 39.6811C49.6436 39.9314 49.5687 40.1486 49.487 40.3854C49.466 40.4462 49.4446 40.5083 49.4232 40.5725L50 40.3103L49.6853 40.153L51.1011 39.8384L50 40.7822L50.0524 40.4152L49.2658 40.7822C46.8537 47.2845 40.6661 51.8989 33.3249 51.8989C28.1861 51.8989 23.5716 49.5917 20.4778 45.9735L20.5302 45.9211C21.1573 45.1464 20.954 44.4756 20.7601 43.8355C20.6783 43.5657 20.5982 43.3014 20.5827 43.037C20.5302 43.037 20.5302 43.0895 20.5302 43.0895C20.5302 43.2781 20.5614 43.4736 20.5943 43.6804C20.6896 44.2789 20.8001 44.9724 20.2156 45.8687C20.1107 46.026 20.0059 46.1833 19.8485 46.3406C19.6299 46.1219 19.5042 45.8101 19.4495 45.4718C19.459 45.5 19.4697 45.5274 19.4815 45.554C19.4291 45.082 19.8486 43.5614 20.268 42.9846C20.1632 43.037 19.7961 43.5089 19.6912 43.876C19.5582 44.1155 19.4521 44.4225 19.4074 44.7285C19.3834 44.6891 19.3538 44.6496 19.3242 44.6102C19.2848 44.5577 19.2455 44.5053 19.2193 44.4528C19.0096 44.6102 18.7474 44.7675 18.4327 44.8199C18.3279 44.2955 18.3803 43.8236 18.5901 43.4565C18.5535 43.3469 18.4914 43.2372 18.4394 43.1453C18.4169 43.1053 18.3962 43.0688 18.3803 43.037C18.1968 43.0895 18.0132 43.1157 17.8297 43.1419C17.6462 43.1681 17.4627 43.1944 17.2791 43.2468C17.3426 42.9295 17.4636 42.6699 17.6074 42.4678C18.1048 42.2213 18.7197 42.0235 19.1144 41.9358C19.1669 42.0931 19.3242 42.198 19.4815 42.1456C19.7437 42.1456 19.8485 41.9882 19.7961 41.8309C19.7437 41.6736 19.5864 41.5687 19.4291 41.5687C19.2717 41.6212 19.1669 41.7785 19.1669 41.9358H19.1144C18.7392 41.8983 18.2565 41.9682 17.8201 42.2224C17.8494 42.1948 17.8789 42.1692 17.9084 42.1456C17.8559 42.1456 17.8559 42.0932 17.8559 42.0932C17.384 42.1456 16.8596 42.0407 16.3353 41.8834C16.5974 41.6212 17.0169 41.3591 17.4889 41.2542C17.4627 41.2017 17.4495 41.1624 17.4364 41.1231C17.4233 41.0838 17.4102 41.0444 17.384 40.992C16.7548 41.0444 16.1255 40.8347 15.4963 40.2579C15.9682 40.0481 16.545 39.9432 17.0694 39.9957C16.2304 39.8384 15.6536 39.4713 15.2865 38.8945C15.8633 38.7372 16.3353 38.7372 16.7548 38.8421C16.7497 38.8319 16.7451 38.8212 16.7409 38.8101C16.7912 38.8596 16.8517 38.8944 16.9121 38.8944C17.0694 38.842 17.1743 38.6847 17.1218 38.5798C17.0694 38.475 17.0169 38.3701 16.9121 38.3701C16.545 37.8981 16.0206 37.3738 15.1816 37.3213C15.6536 37.5311 16.3353 37.9506 16.8072 38.4225C16.756 38.4481 16.7049 38.4862 16.672 38.5306C16.6657 38.511 16.6585 38.4923 16.6499 38.475C15.8633 38.3701 15.3389 38.2653 14.9194 36.9543C15.5487 36.9543 16.0731 37.0592 16.4401 37.3214C16.4139 37.2165 16.4008 37.0985 16.3877 36.9805C16.3746 36.8626 16.3615 36.7446 16.3353 36.6397C15.8109 36.3251 15.4963 35.8531 15.4438 35.0666C15.4438 34.7415 15.4123 34.5424 15.3738 34.2985C15.3626 34.2276 15.3508 34.1529 15.3389 34.0703C15.4731 34.2044 15.6072 34.2836 15.7554 34.3712C15.8969 34.4547 16.0511 34.5459 16.2304 34.6995C16.2304 32.9691 16.4926 31.396 16.9645 29.8753C17.5586 29.9177 18.1184 29.8228 18.5049 29.7572C18.5959 29.7418 18.6774 29.728 18.7474 29.718C18.1181 30.1375 17.6986 30.8716 17.4889 31.6582C18.2754 31.763 19.2193 31.5009 19.8485 31.0289C19.3242 31.6057 19.0096 32.3923 18.9047 33.074C19.6388 33.0215 20.3205 32.7069 20.9497 32.235C20.9055 32.3345 20.8496 32.4504 20.7884 32.5772C20.5596 33.0515 20.257 33.6786 20.2156 34.1752C20.8449 34.1227 21.7887 33.7557 22.2082 33.2313C21.7887 34.0178 21.6314 34.6471 21.6839 35.3812C22.3655 35.2763 22.8899 35.0666 23.4667 34.4898C23.2045 35.1715 23.1521 36.0105 23.2045 36.5873C23.9911 36.3251 24.463 35.958 24.8825 35.2239C24.6728 35.8531 24.5679 36.6921 24.7252 37.2165C25.4069 37.0068 25.774 36.5873 26.141 35.9056C25.8788 36.5348 25.774 37.3738 25.9837 37.8458C26.4032 37.6884 26.6654 37.5311 26.7703 37.4263C26.7703 37.4787 26.7834 37.5442 26.7965 37.6098C26.8096 37.6753 26.8227 37.7409 26.8227 37.7933C26.8227 38.2653 26.9276 38.7372 27.0849 39.1567C26.98 39.2091 26.8751 39.3664 26.8751 39.3664C26.5081 39.7335 26.2459 39.8908 25.7215 40.153C25.8094 40.153 25.9136 40.2021 26.025 40.2545C26.1131 40.296 26.2057 40.3396 26.2983 40.3627C26.1732 40.4879 26.0003 40.5652 25.8196 40.6461C25.6215 40.7347 25.4141 40.8275 25.2496 40.992C25.3298 41.012 25.3946 41.0551 25.4588 41.0977C25.5625 41.1665 25.6644 41.2341 25.8264 41.2017C25.2496 41.6212 24.4106 41.7785 24.3057 41.7785C24.2795 41.7785 24.2369 41.7818 24.1836 41.7859C24.0239 41.7982 23.7682 41.8179 23.5716 41.7785C23.3094 41.7261 22.8899 41.8834 22.785 41.9883C22.6277 42.0932 22.5753 42.2505 22.5753 42.3554C22.3655 42.3029 21.9985 42.3554 21.946 42.4602C21.8955 42.5108 21.8815 42.5491 21.8864 42.6047C21.8114 42.6269 21.7546 42.6516 21.7363 42.6699C21.6668 42.7394 21.6664 42.8088 21.6892 42.9087C21.6857 42.9172 21.6839 42.9251 21.6839 42.9321C21.6839 42.9649 21.7043 43.0998 21.7707 43.2093C21.8157 43.3413 21.8745 43.4152 21.9985 43.4565C22.0109 43.4565 22.0232 43.4594 22.0363 43.4625C22.0786 43.4725 22.1281 43.4842 22.2082 43.404L22.1034 43.5089C22.0509 43.5614 22.0509 43.6662 22.2082 43.876C22.3655 44.0857 22.5228 44.1382 22.6277 44.0857L22.7326 43.9809C22.6802 44.0333 22.6802 44.0857 22.6802 44.1382C22.6277 44.3479 22.785 44.4004 22.9423 44.4528C23.3094 44.5577 23.4667 44.5577 23.5192 44.4004C23.5513 44.3602 23.5761 44.3188 23.5944 44.2772C23.6487 44.2579 23.6921 44.2275 23.7289 44.1907C23.8862 43.9285 23.7813 43.6139 23.6765 43.5614C23.7289 43.6663 23.7289 43.7712 23.6765 43.876C23.6679 43.9018 23.6607 43.9275 23.6538 43.9523C23.6469 43.9769 23.6403 44.0006 23.6329 44.0225C23.6195 43.92 23.5718 43.8354 23.51 43.7929C23.5192 43.7814 23.5192 43.7711 23.5192 43.7711C23.5017 43.7187 23.4842 43.6546 23.4667 43.5905C23.4318 43.4624 23.3968 43.3341 23.3618 43.2992C23.3389 43.3452 23.3259 43.3911 23.3143 43.4327C23.2993 43.4859 23.2864 43.5319 23.257 43.5614L23.0997 43.7187C23.2045 43.7711 23.3094 43.8235 23.4143 43.8235C23.4466 43.8235 23.4689 43.8186 23.4844 43.8117C23.5183 43.903 23.5124 43.9944 23.4667 44.0857C23.4576 44.104 23.45 44.1239 23.4427 44.1443C23.4337 44.1427 23.4242 44.1407 23.4143 44.1382C23.3094 44.1382 23.1521 44.0858 23.0472 44.0334C22.9423 44.0334 22.9423 43.876 22.9948 43.7712C22.9948 43.6663 23.0472 43.6139 23.0997 43.5614C23.0472 43.5876 23.0079 43.6139 22.9686 43.6401C22.9292 43.6663 22.8899 43.6925 22.8375 43.7187C22.785 43.7712 22.6277 43.8236 22.5753 43.7187C22.5138 43.6573 22.4704 43.5959 22.4344 43.545C22.409 43.509 22.3873 43.4783 22.3655 43.4565C22.3375 43.4145 22.3357 43.3724 22.3501 43.3324C22.3646 43.3251 22.3785 43.3184 22.3912 43.3122C22.4009 43.3076 22.4099 43.3032 22.418 43.2992C22.3989 43.2992 22.3812 43.3 22.3645 43.3016C22.4194 43.2051 22.5582 43.1243 22.6277 43.0895C22.5074 43.0895 22.4423 43.1116 22.3868 43.1304C22.3214 43.1526 22.2693 43.1703 22.1558 43.1419C22.0838 43.1419 22.0303 43.1048 21.9911 43.0519C22.0349 43.1706 22.0939 43.2087 22.2082 43.2468C22.253 43.2468 22.2978 43.2468 22.3752 43.2141C22.3686 43.2218 22.3627 43.2314 22.3561 43.2421C22.3455 43.2592 22.3331 43.2792 22.3131 43.2992C22.3131 43.3023 22.3127 43.3055 22.3121 43.309C22.2743 43.3162 22.2419 43.3264 22.2107 43.3362C22.1347 43.3601 22.0661 43.3816 21.946 43.3516C21.8672 43.3319 21.8106 43.2752 21.7707 43.2093C21.7585 43.1737 21.7474 43.1339 21.7363 43.0894C21.7283 43.0574 21.7203 43.0277 21.7128 43.0002C21.7038 42.9669 21.6956 42.9366 21.6892 42.9087C21.7118 42.8536 21.8027 42.7748 21.8936 42.7748C21.8946 42.7743 21.8956 42.7738 21.8965 42.7734C21.9045 42.7696 21.9124 42.7663 21.9202 42.7636C21.9865 42.7409 22.051 42.7551 22.1004 42.7659C22.1222 42.7707 22.1411 42.7748 22.1558 42.7748L22.3655 42.5651L22.3655 42.6175C22.3655 42.67 22.418 42.7749 22.5753 42.8797C22.6802 42.8797 22.7326 42.8797 22.6277 42.8273C22.5753 42.7749 22.4704 42.3554 22.6802 42.2505C22.8375 42.0932 22.9948 42.0407 23.257 42.0407C23.3444 42.0407 23.4376 42.0466 23.5308 42.0524C23.7173 42.064 23.9037 42.0757 24.0435 42.0407C24.1484 42.0407 24.463 42.0407 24.5155 42.0932C24.5709 42.1301 24.6068 42.2192 24.6461 42.3168C24.7184 42.4961 24.8022 42.7039 25.0398 42.67C25.1181 42.6476 25.213 42.6229 25.319 42.5953C25.7103 42.4933 26.2528 42.3519 26.6654 42.1456C26.6118 42.226 26.5993 42.32 26.5859 42.4208C26.573 42.5172 26.5594 42.6198 26.5081 42.7224C26.792 42.6656 26.9683 42.5474 27.1618 42.4176C27.3257 42.3076 27.502 42.1894 27.7666 42.0932C27.7141 42.198 27.6879 42.2898 27.6617 42.3816C27.6355 42.4733 27.6093 42.5651 27.5568 42.67C27.8042 42.615 28.0515 42.488 28.3215 42.3494C28.5667 42.2236 28.8305 42.0881 29.1299 41.9883C29.1299 42.0407 29.1299 42.0407 29.1824 42.0407C29.3921 42.0932 29.6019 42.1456 29.7592 42.198C29.3921 42.5127 28.9202 43.3517 28.7104 44.1382C28.7104 44.1382 29.0251 44.1382 29.497 43.9809C29.3921 44.4004 29.2873 44.8199 29.2873 45.3443C29.2873 45.3443 29.6543 45.2918 30.1787 44.9772C30.1262 45.4492 30.1262 45.8687 30.2311 46.393C30.2311 46.393 30.6506 46.2357 31.175 45.7113C31.2274 46.1833 31.3323 46.6552 31.5421 47.1271C31.5421 47.1271 31.9091 46.9174 32.2762 46.3406C32.5908 47.2845 33.0103 47.704 33.0103 47.704C33.3249 47.232 33.5871 46.7601 33.7444 46.2881C34.1639 46.9174 34.531 47.1796 34.531 47.1796C34.6883 46.7076 34.8456 46.2357 34.898 45.7638C35.4224 46.2357 35.8419 46.4455 35.8419 46.4455C35.9468 45.9735 35.9468 45.5016 35.8943 45.0297C36.4187 45.3443 36.7858 45.3967 36.7858 45.3967C36.7858 44.9248 36.6809 44.4529 36.576 44.0334C37.048 44.1907 37.3626 44.1907 37.3626 44.1907C37.1528 43.4041 36.7858 42.7749 36.3138 42.2505C36.4712 42.1456 36.6809 42.0932 36.9431 42.0407C36.9431 42.0145 36.9431 42.0014 36.9496 41.9949C36.9562 41.9883 36.9693 41.9883 36.9955 41.9883C37.3654 42.0737 37.6581 42.2362 37.9239 42.3838C38.1479 42.5082 38.3528 42.622 38.5686 42.67C38.4781 42.5492 38.457 42.4458 38.4354 42.3398C38.4196 42.2617 38.4034 42.1821 38.3589 42.0932C38.5869 42.1844 38.7455 42.2855 38.8994 42.3836C39.0994 42.5111 39.2914 42.6335 39.6174 42.7224C39.565 42.6175 39.5518 42.5258 39.5387 42.434C39.5256 42.3423 39.5125 42.2505 39.4601 42.1456C39.7971 42.2752 40.0957 42.3408 40.3622 42.3993C40.6347 42.4591 40.8736 42.5115 41.0856 42.6175C41.4321 42.766 41.4983 42.494 41.5487 42.2866C41.5517 42.2743 41.5546 42.2622 41.5576 42.2505C41.567 42.2316 41.5765 42.2075 41.5869 42.1811C41.6341 42.0612 41.7003 41.8929 41.8722 41.9359C41.9712 41.9359 42.1053 41.9242 42.2469 41.9118C42.2815 41.9088 42.3165 41.9058 42.3516 41.9028C42.2816 41.8996 42.2148 41.8948 42.159 41.8908C42.1016 41.8867 42.0557 41.8834 42.0295 41.8834C41.9815 41.8754 41.9298 41.8686 41.8746 41.8614C41.5684 41.8212 41.1549 41.767 40.6661 41.4115C40.8107 41.4115 40.8915 41.3637 40.9788 41.312C41.0499 41.2699 41.1253 41.2253 41.2429 41.2017C41.0937 41.0774 40.9091 40.9884 40.7283 40.9013C40.5278 40.8047 40.332 40.7103 40.1942 40.5725C40.3259 40.5396 40.4575 40.486 40.5762 40.4377C40.6466 40.4091 40.7124 40.3823 40.771 40.3627C40.3515 40.2579 39.932 39.8908 39.565 39.5238L39.3552 39.314C39.5125 38.8945 39.565 38.4226 39.6174 37.9506C39.6174 37.8982 39.6305 37.8326 39.6436 37.7671C39.6567 37.7016 39.6698 37.636 39.6698 37.5836C39.8796 37.7933 40.2466 38.0031 40.5088 38.0555C40.5596 37.7003 40.6594 36.903 40.3331 36.1866C40.6473 36.8228 41.1079 37.1715 41.7149 37.3738C41.8722 36.9019 41.7149 36.0105 41.5051 35.3812C41.9246 36.1153 42.449 36.43 43.2356 36.6921C43.288 36.1153 43.1307 35.3812 42.8685 34.6471C43.4453 35.2239 43.9697 35.4336 44.6514 35.5385C44.6514 34.8044 44.494 34.1752 44.127 33.3886C44.5465 33.913 45.333 34.3849 46.0147 34.4373C46.1196 33.7557 45.7001 32.7593 45.333 32.3398C45.8574 32.8642 46.644 33.2837 47.4305 33.2313C47.3781 32.4447 47.0635 31.7106 46.4867 31.1862C47.0635 31.6057 48.1122 31.9204 48.8988 31.7106C48.7939 30.9765 48.4268 30.3472 47.4305 29.7704C47.5312 29.7848 47.6594 29.8149 47.8087 29.85C48.204 29.943 48.7473 30.0707 49.3183 30.0326C49.7902 31.5533 50.0524 33.2313 50.0524 34.9093V35.591L50.6292 34.9617L50.2622 34.9093L51.5206 34.1227L50.7865 35.3812L50.7341 35.0141L50 35.8531C49.9728 36.0161 49.9597 36.1931 49.9461 36.3768C49.9335 36.5479 49.9204 36.7249 49.8951 36.9019L50.5243 36.3775L50.1573 36.2726L51.5206 35.6434L50.6292 36.8495L50.5768 36.4824L49.7902 37.1116C49.7378 37.4263 49.6853 37.7409 49.6329 38.0031L50.1573 37.6884L49.8427 37.5836ZM42.7571 41.885C42.9578 41.8985 43.1907 41.9958 43.288 42.0932C43.4977 42.2505 43.4453 42.5651 43.3404 42.67C43.2356 42.7749 43.288 42.7749 43.3929 42.7224C43.496 42.6881 43.5315 42.6312 43.5585 42.5665C43.6138 42.5699 43.6869 42.581 43.7599 42.6175C43.8555 42.6653 43.951 42.713 43.9673 42.8004C43.9622 42.8193 43.9566 42.8393 43.9506 42.8606C43.9402 42.8976 43.9287 42.9386 43.9172 42.9846C43.9112 43.0089 43.9051 43.0311 43.8988 43.0514C43.8735 43.0682 43.8448 43.0814 43.8124 43.0895C43.6923 43.1195 43.6237 43.098 43.5477 43.074C43.491 43.0562 43.4301 43.037 43.3404 43.037C43.3485 43.0411 43.3575 43.0454 43.3672 43.0501C43.4508 43.0904 43.5858 43.1556 43.6192 43.261C43.5613 43.264 43.5221 43.2507 43.4765 43.2352C43.421 43.2164 43.3559 43.1943 43.2356 43.1943C43.3298 43.2414 43.5508 43.3731 43.5189 43.5134C43.4858 43.5598 43.4461 43.613 43.3929 43.6663C43.3404 43.7712 43.2356 43.7187 43.1307 43.6663C43.0782 43.6139 42.9734 43.5614 42.8685 43.509C42.8885 43.549 42.9009 43.5814 42.9115 43.6091C42.9286 43.6539 42.941 43.6863 42.9734 43.7187C42.9923 43.7377 42.9976 43.7704 42.9941 43.8069C42.9567 43.7862 42.9258 43.7656 42.8948 43.745C42.8622 43.7232 42.8294 43.7013 42.7893 43.6796L42.8161 43.6662C42.776 43.6262 42.7436 43.6014 42.7159 43.5803C42.6711 43.5461 42.6387 43.5213 42.6063 43.4565C42.5539 43.3516 42.5014 43.2467 42.5014 43.1943C42.449 43.2467 42.3966 43.5089 42.3966 43.7187C42.3966 43.7389 42.3966 43.7514 42.4026 43.759C42.4122 43.7711 42.4371 43.7711 42.5014 43.7711C42.5946 43.7711 42.6878 43.7297 42.781 43.6837C42.827 43.7309 42.8685 43.7827 42.8685 43.876C42.8859 43.9109 42.8976 43.9516 42.9015 43.9904C42.7973 44.0395 42.6524 44.0858 42.5539 44.0858C42.3884 44.0858 42.3535 43.9879 42.3204 43.8951C42.3115 43.8702 42.3028 43.8457 42.2917 43.8236C42.2393 43.6663 42.2393 43.5614 42.2917 43.4565C42.2516 43.4766 42.2115 43.535 42.186 43.6142C42.0814 43.6678 41.9775 43.9815 42.1344 44.243C42.2393 44.3479 42.3966 44.4004 42.7112 44.2955C42.8882 44.2512 42.9905 44.207 42.9866 44.0682C43.0347 44.0392 43.0708 44.0013 43.0836 43.9458C43.1842 43.9585 43.3147 43.8928 43.4453 43.7187C43.534 43.6299 43.5758 43.56 43.5906 43.5048C43.6545 43.4101 43.682 43.3401 43.6859 43.2884C43.7397 43.2684 43.7798 43.247 43.8117 43.2157C43.8573 43.1854 43.8908 43.1362 43.9148 43.0818C43.9395 43.0555 43.9592 43.0204 43.9766 42.9767C43.965 42.9923 43.952 43.007 43.9377 43.0205C43.9613 42.9449 43.9697 42.8692 43.9697 42.8272C43.9697 42.8179 43.9688 42.809 43.9673 42.8004C43.9934 42.7023 44.004 42.6337 43.9697 42.5651C43.9172 42.5126 43.8124 42.4602 43.7075 42.4602L43.7606 42.4183C43.8034 42.4258 43.8431 42.4385 43.8648 42.4602C43.9697 42.5127 44.0746 42.6175 44.0746 42.67C44.0746 42.6864 44.0733 42.7067 44.0703 42.7294C44.1402 42.5821 44.1617 42.4949 44.0746 42.4078C44.0746 42.3773 44.0214 42.3646 43.9563 42.3489C43.9305 42.3427 43.9028 42.3361 43.8758 42.3277L48.6366 38.5798V38.842L48.7415 38.7001V38.7896L49.6329 37.5836L48.2695 38.1604L48.2808 38.1636L48.1647 38.2128L48.5317 38.3176L43.5502 42.2504L43.5327 42.3029H43.4977C43.4977 42.2201 43.4651 42.1373 43.4255 42.0803L46.526 35.8793L46.644 36.1153L46.6509 36.0766L46.6964 36.1677L46.9586 34.7519L46.8687 34.8568L46.9062 34.6471L45.9623 35.7483L46.1244 35.7251L46.0147 35.8531L46.2788 35.8091L45.8211 36.8347L43.3085 41.9464C43.1472 41.8854 42.9431 41.8475 42.7636 41.8834C42.7615 41.884 42.7593 41.8845 42.7571 41.885ZM16.3877 35.119C16.5974 34.4897 17.0694 34.0178 17.4364 33.8605C17.8035 34.8568 17.5937 35.9055 16.8596 36.5348C16.9121 36.2202 16.8072 35.9055 16.7023 35.6433C16.8072 35.119 17.0169 34.4897 17.2267 34.1751C16.9645 34.3848 16.7023 34.9617 16.5974 35.4336C16.545 35.3287 16.4926 35.2238 16.3877 35.119ZM49.161 35.0665L49.2658 35.4336L49.8427 34.0702L48.6366 34.9617H49.0037L45.805 38.9993C45.5428 39.3664 45.2806 39.7859 45.0709 40.1529C45.2282 39.8908 45.4379 39.681 45.6477 39.4713L49.161 35.0665ZM42.6588 42.8272C42.7636 42.9846 42.7636 43.2467 42.7112 43.404C42.9878 43.358 43.0617 43.1092 43.1112 42.9429C43.118 42.92 43.1243 42.8987 43.1307 42.8797C43.0258 42.7748 42.7636 42.7748 42.6588 42.8272ZM42.2917 42.6175C42.3441 42.7224 42.3966 42.8272 42.6063 42.8272C42.449 42.9321 42.2917 42.9321 42.2393 42.8797C42.1868 42.8272 42.1868 42.7224 42.1868 42.6175C42.1868 42.4602 42.2393 42.5126 42.2917 42.6175ZM46.7489 36.8494L46.3818 36.9018L47.5354 35.8531L47.0635 37.2689L46.9586 36.9543L44.2319 41.0444L44.1795 41.0967C44.3892 40.6773 44.5989 40.2578 44.8087 39.7859L46.7489 36.8494ZM46.1196 40.0481C45.805 40.3103 45.4904 40.5724 45.2282 40.7822C45.3434 40.6381 45.4745 40.494 45.6215 40.3326L45.6221 40.3319C45.7423 40.1998 45.8733 40.0557 46.0147 39.8908L48.9512 37.164L48.5842 37.1116L49.8951 36.4299L49.1085 37.6884L49.0561 37.3213L46.1196 40.0481ZM48.4793 40.1529L44.3892 42.198C44.3367 42.2504 44.2843 42.3029 44.2319 42.3029L44.2843 42.3553C44.2843 42.3553 44.2843 42.4077 44.3367 42.4077L48.5842 40.2578L48.5317 40.6249L49.6329 39.681L48.2171 39.9956L48.4793 40.1529ZM42.1606 44.4528C42.1868 44.4659 42.213 44.479 42.2393 44.5052L41.4527 46.0784L41.5576 46.3405L40.771 48.0185L40.6137 47.599L40.1942 47.7039L41.0856 46.0259L41.3478 45.921L42.0819 44.4004C42.1082 44.4266 42.1344 44.4397 42.1606 44.4528ZM41.8722 43.8235C41.8722 43.9284 41.8722 43.9809 41.9246 44.0857L41.0332 45.1345L40.8234 45.1869L39.7223 46.6552L39.6698 46.2881L39.3028 46.3405H39.2503L40.6661 44.9247L40.9283 44.8723L41.8722 43.8235ZM43.7075 41.9882C43.7723 41.9234 43.8572 41.8586 43.9744 41.769C44.0468 41.7137 44.1318 41.6488 44.2319 41.5687L49.0561 36.325L49.1085 36.6921L49.7902 35.3812L48.5317 36.1677L48.8988 36.2202L43.8648 41.7261C43.8386 41.7785 43.8124 41.8178 43.7862 41.8572C43.7599 41.8965 43.7337 41.9358 43.7075 41.9882ZM41.1905 44.2955L39.4076 45.554H39.1979L38.0443 46.5503L37.9918 46.2357L37.5723 46.1308L38.9881 45.2394L39.1455 45.1345L39.4601 45.1869L41.7149 43.7187C41.6715 43.7621 41.6101 43.8325 41.5381 43.9149L41.5377 43.9154L41.5374 43.9158C41.4357 44.0323 41.3131 44.1729 41.1905 44.2955ZM37.9394 45.7113L38.6735 45.2918L39.3028 44.8199L39.5125 44.8723C39.5125 44.8723 41.1381 43.876 41.5576 43.6138C41.61 43.6138 41.61 43.5614 41.61 43.5614L39.4601 44.6101L39.1979 44.5052L37.4675 45.2918L37.8345 45.3967L37.9394 45.7113ZM18.1049 40.619C17.976 40.6935 17.9194 40.8264 17.9608 40.9919C18.0132 41.2017 18.1706 41.3066 18.3803 41.2541C18.5901 41.2541 18.6949 41.0444 18.6425 40.8346C18.5901 40.6249 18.4327 40.52 18.223 40.5724C18.1796 40.5833 18.1406 40.5987 18.1067 40.618C17.5884 40.3087 17.2217 40.2061 16.545 40.3103C17.1684 40.3622 17.6374 40.4142 18.1049 40.619ZM19.3242 42.7748C18.8522 43.1419 18.4852 43.7187 18.4327 44.243C18.6425 43.8235 19.1144 43.0894 19.5864 42.6699C19.8485 42.4077 19.6912 42.5126 19.3242 42.7748ZM17.5937 38.842C17.7511 38.842 17.9084 38.8944 17.9608 39.1042C17.9608 39.2615 17.8559 39.4188 17.6986 39.4713C17.5413 39.4713 17.384 39.4188 17.3316 39.2091C17.3316 39.0518 17.384 38.8944 17.5937 38.842ZM20.74 39.5237C20.74 39.3489 20.7342 39.1799 20.7283 39.011C20.7167 38.673 20.705 38.3351 20.74 37.9506C19.7961 38.6847 19.4291 39.8908 19.8485 40.7298H19.7437C19.5339 40.7822 19.4291 40.9395 19.4815 41.1493C19.5339 41.359 19.6912 41.4639 19.901 41.4114C20.0804 41.3666 20.1831 41.245 20.1762 41.0794C20.3263 40.8783 20.4283 40.7254 20.5302 40.5724C20.5565 40.6511 20.5696 40.7298 20.5827 40.8084C20.5958 40.8871 20.6089 40.9657 20.6351 41.0444C20.6875 40.3103 20.8973 39.5761 21.6839 39.1042C21.107 39.8383 20.7924 40.6249 20.74 41.2541C20.8403 41.1288 20.9705 41.0274 21.1114 40.9178C21.5598 40.5688 22.1159 40.1359 22.1558 38.5798C21.6314 38.6847 21.0546 38.9993 20.74 39.5237ZM20.9497 41.359C21.1595 41.3066 21.3168 41.4114 21.3692 41.6212C21.4217 41.7785 21.3168 41.9882 21.107 42.0407C20.8973 42.0931 20.74 41.9882 20.6875 41.7785C20.6351 41.5687 20.74 41.4114 20.9497 41.359ZM21.2644 42.6699C21.2119 42.4602 21.0546 42.3553 20.8449 42.4077C20.6351 42.4602 20.5302 42.6175 20.5827 42.8272C20.6351 43.037 20.7924 43.1419 21.0022 43.0894C21.2119 43.037 21.3168 42.8272 21.2644 42.6699ZM18.3803 39.4713C18.3279 38.842 18.4852 38.0555 19.2193 37.4786C19.972 39.0237 19.5275 39.6109 19.1747 40.0771C19.0605 40.228 18.956 40.3661 18.9047 40.52C18.7474 39.7859 18.9047 38.6323 19.0096 38.003C18.6949 38.475 18.5901 38.9993 18.6425 39.5761V39.7334C18.6425 39.9956 18.6949 40.2578 18.7474 40.4676C18.6425 40.3103 18.5376 40.1529 18.4852 39.9432C18.459 39.9432 18.4459 39.9563 18.4327 39.9694C18.4196 39.9825 18.4065 39.9956 18.3803 39.9956C18.2754 40.0481 18.1181 39.9432 18.0657 39.7859C18.0132 39.681 18.1181 39.5237 18.2754 39.4713H18.3803ZM22.1034 42.0931C22.0509 41.9358 21.8936 41.8309 21.7887 41.8834C21.6314 41.9358 21.5265 42.0931 21.579 42.198C21.6314 42.3553 21.7887 42.4602 21.8936 42.4077C22.0509 42.4077 22.1034 42.2504 22.1034 42.0931ZM20.3205 41.8309C20.4254 41.8309 20.5302 41.9358 20.5827 42.0407C20.5827 42.1456 20.5302 42.3029 20.3729 42.3029C20.268 42.3029 20.1632 42.198 20.1107 42.0931C20.1107 41.9882 20.2156 41.8834 20.3205 41.8309ZM16.7548 36.7445C16.9121 36.6921 17.0694 36.797 17.1218 36.9543C17.1743 37.1116 17.0694 37.2689 16.8596 37.3213C16.7023 37.3738 16.4926 37.2689 16.4926 37.1116C16.4926 36.9543 16.5974 36.797 16.7023 36.7445H16.7548ZM16.6827 36.6757L16.7023 36.7445C16.4401 36.1677 15.9158 35.3812 15.4963 34.8043C16.3089 35.363 16.482 35.971 16.6827 36.6757ZM18.0132 39.9432C17.9608 39.8383 17.8559 39.7334 17.7511 39.7334C17.6986 39.7334 17.6462 39.7859 17.5937 39.8383C16.9298 39.2692 16.4374 39.2148 16.0389 39.1708C15.9969 39.1662 15.9558 39.1616 15.9158 39.1566C15.9656 39.1766 16.0364 39.2022 16.1218 39.2332L16.1224 39.2334L16.123 39.2336C16.487 39.3655 17.1172 39.5939 17.5413 39.8908C17.4889 39.9432 17.4889 39.9956 17.4889 40.0481C17.5413 40.1529 17.6462 40.2578 17.7511 40.2578C17.9608 40.1529 18.0657 40.0481 18.0132 39.9432ZM19.1144 41.4639C19.062 41.359 18.9571 41.2541 18.8522 41.2541C18.7474 41.2541 18.6949 41.3066 18.6425 41.359C18.0132 41.2541 17.2791 41.359 16.7023 41.7261C17.384 41.5687 18.0657 41.4114 18.6425 41.4114V41.5163C18.6949 41.6212 18.7998 41.7261 18.9047 41.7261C19.062 41.6736 19.1669 41.5687 19.1144 41.4639ZM18.5901 35.8531C17.4889 36.325 17.0169 37.6884 17.5413 38.6847C17.6606 38.5296 17.8017 38.4016 17.9434 38.273C18.4246 37.8364 18.9141 37.3923 18.5901 35.8531ZM24.0435 43.3516C25.4069 44.4004 26.2459 45.8686 26.4032 47.0222C26.1935 46.9173 25.8788 46.76 25.7215 46.8125C25.5118 45.6064 24.935 44.6101 23.8862 43.7711C23.9387 43.5614 23.9911 43.4565 24.0435 43.3516ZM23.1521 42.9321C23.0472 42.8797 22.8375 42.8797 22.7326 42.9845C22.7398 43.0061 22.747 43.0306 22.7547 43.057L22.7549 43.0577C22.8035 43.2238 22.8738 43.4637 23.0997 43.5089C23.0472 43.3516 23.0472 43.0894 23.1521 42.9321ZM23.257 42.9846C23.4667 42.9846 23.5192 42.8797 23.5716 42.7748C23.624 42.6699 23.6765 42.6175 23.6765 42.7748C23.6765 42.9321 23.6765 42.9846 23.624 43.037C23.6139 43.037 23.5998 43.039 23.5825 43.0414C23.5106 43.0514 23.3838 43.0691 23.257 42.9846Z" clip-rule="evenodd"/><path fill="#045388" d="M40.2991 36.1153C40.3109 36.139 40.3222 36.1627 40.3331 36.1866C40.3216 36.1632 40.3102 36.1395 40.2991 36.1153Z"/><path fill="#045388" d="M22.2963 43.3614C22.1895 43.4234 22.0821 43.5189 22.1558 43.6662C22.1775 43.688 22.1992 43.7187 22.2247 43.7547C22.2606 43.8055 22.3041 43.867 22.3655 43.9284C22.418 44.0333 22.5228 43.9809 22.6277 43.9284C22.6427 43.9135 22.6619 43.8985 22.6842 43.8836C22.6025 43.8582 22.5102 43.7893 22.418 43.6663C22.2706 43.519 22.2785 43.4234 22.2963 43.3614Z"/><path fill="#045388" d="M22.8453 43.8756C22.829 43.9182 22.8164 43.9495 22.785 43.9809C22.785 44.0333 22.785 44.1906 22.8375 44.243C22.9423 44.2955 23.0997 44.3479 23.2045 44.3479C23.2818 44.3479 23.3306 44.3266 23.364 44.2944C23.3025 44.2864 23.2324 44.2699 23.1521 44.2431C22.9423 44.1907 22.8375 44.1382 22.8899 43.9285C22.8899 43.9023 22.903 43.876 22.9161 43.8498C22.9292 43.8236 22.9423 43.7974 22.9423 43.7712C22.9223 43.7912 22.9099 43.8112 22.8994 43.8283C22.8837 43.8537 22.872 43.8726 22.8453 43.8756Z"/><path fill="#045388" d="M22.418 43.1944C22.4027 43.202 22.3884 43.2086 22.3752 43.2141C22.3857 43.2019 22.3981 43.1944 22.418 43.1944Z"/></g><g id="Vector_7"><path fill="white" d="M27.9771 30.1895L28.0295 29.8224L27.7149 29.6651H28.082L28.1344 29.2981L28.2917 29.6127L28.6064 29.5603L28.3442 29.77L28.5015 30.0846L28.1869 29.8749L27.9771 30.1895Z"/><path fill="white" d="M30.127 29.8749L29.8124 29.6651L29.5502 29.9273L29.6551 29.6127L29.3405 29.4554L29.7075 29.4029V29.0883L29.8648 29.4029L30.1795 29.3505L29.9697 29.5603L30.127 29.8749Z"/><path fill="white" d="M31.7002 29.77L31.438 29.5603L31.1758 29.8224L31.2807 29.4554L30.966 29.2456H31.2807L31.3855 28.931L31.4904 29.2456H31.805L31.5428 29.4029L31.7002 29.77Z"/><path fill="white" d="M33.2733 29.7176L33.0111 29.5078L32.7489 29.7176L32.8538 29.4029L32.5916 29.1932H32.9062L33.0111 28.8786L33.116 29.1932H33.4306L33.1684 29.4029L33.2733 29.7176Z"/><path fill="white" d="M37.7829 29.8749L37.5207 30.0846L37.678 29.77L37.4158 29.5603L37.7829 29.6127L37.8877 29.2981L37.9402 29.6651H38.3072L37.9402 29.8224L38.0451 30.1895L37.7829 29.8749Z"/><path fill="white" d="M36.1049 29.5603L35.7903 29.3505L36.1573 29.4029L36.2622 29.0883L36.3146 29.4029L36.6817 29.4554L36.3671 29.6127L36.4719 29.9273L36.2098 29.6651L35.9476 29.8749L36.1049 29.5603Z"/><path fill="white" d="M34.4793 29.4029L34.1647 29.2456H34.5318L34.6366 28.931L34.7415 29.2456H35.0561L34.794 29.4554L34.8464 29.8224L34.6366 29.5603L34.322 29.77L34.4793 29.4029Z"/><path fill="white" d="M28.1869 32.7065L28.2917 32.3919L27.9771 32.2346L28.3442 32.1821V31.8675L28.5015 32.1821L28.8161 32.0772L28.5539 32.3394L28.7112 32.6541L28.449 32.4967L28.1869 32.7065Z"/><path fill="white" d="M30.2843 32.4967L29.9697 32.287L29.7075 32.5492L29.8124 32.1821L29.4978 32.0248H29.8648L29.9173 31.6577L30.0222 31.9724H30.3892L30.127 32.1821L30.2843 32.4967Z"/><path fill="white" d="M31.805 32.3394L31.5428 32.1821L31.2807 32.3919L31.3855 32.0248L31.0709 31.8675H31.438L31.4904 31.5529L31.5953 31.8675L31.9623 31.8151L31.6477 32.0248L31.805 32.3394Z"/><path fill="white" d="M33.3257 32.3394L33.0635 32.0772L32.8013 32.3394L32.9062 32.0248L32.644 31.8151H32.9586L33.0635 31.5004L33.1684 31.8151H33.483L33.2208 32.0248L33.3257 32.3394Z"/><path fill="white" d="M37.678 32.4967L37.4158 32.6541L37.5731 32.3394L37.3109 32.1297L37.6256 32.1821L37.7829 31.8675V32.2346H38.1499L37.8353 32.3919L37.9402 32.7589L37.678 32.4967Z"/><path fill="white" d="M36 32.1821L35.7378 31.9724L36.1049 32.0248L36.2098 31.6577L36.2622 32.0248H36.6293L36.3146 32.1821L36.4195 32.5492L36.1573 32.287L35.8427 32.4967L36 32.1821Z"/><path fill="white" d="M34.4793 32.0248L34.1647 31.8151L34.5318 31.8675L34.6366 31.5529L34.7415 31.8675H35.0561L34.7415 32.0772L34.8464 32.3919L34.5842 32.1821L34.322 32.3394L34.4793 32.0248Z"/><path fill="white" d="M28.9734 31.1858L29.0259 30.8712L28.7112 30.7139H29.0783L29.1307 30.3468L29.288 30.6614L29.6027 30.609L29.3405 30.8187L29.4978 31.1334L29.1832 30.9236L28.9734 31.1858Z"/><path fill="white" d="M27.4527 31.448L27.5052 31.0809L27.1906 30.9761L27.5576 30.9236V30.5566L27.7149 30.8712L28.082 30.8187L27.8198 31.0809L27.9771 31.3431L27.6625 31.1858L27.4527 31.448Z"/><path fill="white" d="M31.0185 31.0285L30.7563 30.8187L30.4941 31.0285L30.599 30.7139L30.2843 30.5566L30.6514 30.5041L30.7038 30.1895L30.8087 30.5041L31.1758 30.4517L30.8612 30.6614L31.0185 31.0285Z"/><path fill="white" d="M32.5916 30.9236L32.277 30.7139L32.0148 30.9236L32.1197 30.609L31.805 30.3993H32.1721L32.277 30.0846L32.3294 30.3993H32.6965L32.4343 30.609L32.5916 30.9236Z"/><path fill="white" d="M34.0598 30.9236L33.7976 30.7139L33.5355 30.9236L33.6928 30.609L33.3781 30.3993H33.6928L33.8501 30.0846L33.9025 30.4517L34.2696 30.3993L33.955 30.609L34.0598 30.9236Z"/><path fill="white" d="M38.4121 31.1858L38.0975 31.3956L38.3072 31.0809L37.9926 30.8187L38.3597 30.9236L38.517 30.609L38.5694 30.9236L38.8841 30.9761L38.5694 31.1334L38.6219 31.5004L38.4121 31.1858Z"/><path fill="white" d="M36.7341 30.8712L36.4719 30.609L36.839 30.6614L36.9439 30.3468L36.9963 30.7139H37.3634L36.9963 30.8712L37.1012 31.2382L36.8914 30.9761L36.5768 31.1858L36.7341 30.8712Z"/><path fill="white" d="M35.2134 30.7139L34.9513 30.5041H35.2659L35.4232 30.1895L35.4756 30.5566H35.7903L35.4756 30.7139L35.5805 31.0285L35.3183 30.8187L35.0561 31.0285L35.2134 30.7139Z"/></g></g></g></g></svg>