<svg xmlns="http://www.w3.org/2000/svg" fill="none" aria-hidden="true" viewBox="0 0 171 70"><path fill="#045388" d="M70.817 45.869h3.356V25.26h-3.356v-2.045h17.2v5.348h-2.098V25.26h-7.76v9.229h6.03V31.5h2.045v8.6h-2.045v-3.565h-6.03v9.334h3.408v2.045h-10.75v-2.045Zm19.35 0h3.303V25.26h-3.303v-2.045h17.251v5.348h-2.097V25.26h-7.866v8.914h6.083v-2.989h2.045v8.6h-2.045v-3.513h-6.083v9.596h8.181v-3.461h2.045v5.506H90.167v-2.045Zm19.401 0h3.356V25.26h-3.356v-2.045h7.918v2.045l7.918 16.57 7.814-16.57v-2.045h8.075v2.045h-3.356v20.608h3.356v2.045h-10.802v-2.045h3.408v-16.99h-.052l-8.915 19.035h-.891l-8.757-18.668h-.105v16.623h3.356v2.045h-8.967v-2.045Zm33.875 2.045h6.45v-2.045h-2.255l2.255-6.607h8.232l2.36 6.607h-2.36v2.045h8.6v-2.045h-2.15l-8.705-23.282h-2.097l-8.18 23.282h-2.15v2.045Zm13.843-10.697h-6.607l3.199-9.072h.105l3.303 9.072Z"/><path fill="#fff" d="M33.01 6.068c-15.888 0-28.735 12.9-28.735 28.736S17.122 63.54 33.011 63.54c15.888 0 28.735-12.847 28.735-28.736 0-15.888-12.9-28.736-28.735-28.736Z"/><path fill="#C42032" d="M50.473 24.526c-.315.105-.63.21-.944.263 1.783 2.936 2.78 6.345 2.78 10.068 0 10.644-8.653 19.297-19.297 19.297-10.645 0-19.297-8.653-19.297-19.297 0-3.828 1.1-7.394 3.04-10.435-.314-.105-.628-.21-.89-.367a20.327 20.327 0 0 0-3.094 10.802c-.105 11.169 8.966 20.24 20.188 20.24s20.24-9.071 20.24-20.24c.106-3.828-.943-7.342-2.726-10.33ZM21.79 19.125a18.988 18.988 0 0 1 11.221-3.618c4.667 0 8.967 1.626 12.323 4.405l1.101-.315c-3.565-3.198-8.285-5.086-13.424-5.086-4.614 0-8.861 1.573-12.27 4.143.157.052.315.104.524.21.158.104.315.157.525.261Z"/><path fill="#C0C2C4" d="M33.01 61.757c-14.84 0-26.952-12.06-26.952-26.953 0-14.892 12.06-26.953 26.953-26.953 14.892 0 26.952 12.06 26.952 26.953 0 14.892-12.06 26.953-26.952 26.953Zm0-55.689c-15.888 0-28.735 12.9-28.735 28.736S17.122 63.54 33.011 63.54c15.888 0 28.735-12.847 28.735-28.736 0-15.888-12.9-28.736-28.735-28.736Z"/><path fill="#5E9841" d="M32.802 39.419h-5.454c.105.157.21.315.262.472.42.577.944.944 1.626 1.206.944.262 1.573.524 2.045.63l.524.157c.42.104.734.367.944.576v-3.04h.053Z"/><path fill="#0778AE" d="m32.538 37.32-.367-.156-.21-.525-.524-.21-.577-.524-.367.367-.524.105-.262.42-.315.472-.524.262-.367.629-.21.262-.367.262-.21-.21-.21.21-.262.525c-.157-.367-.21-.63-.262-1.259-.105-1.101-.157-2.517-.262-3.933 1.835-.42 4.195-.629 6.03-.681v4.352c-.052-.105-.105-.157-.21-.367Zm6.031-2.359c.21-.157.419-.314.681-.367 0-.21.053-.42.053-.577-1.836-.42-4.195-.629-6.03-.681v1.625c.052.053.104.053.157.105.262.157.472.262.786.262.21 0 .42-.105.63-.262.314-.21.681-.42 1.206-.42.471 0 .786.21 1.048.368.262.157.472.262.787.262.262 0 .42-.157.681-.315Zm-5.349 3.147v1.573c.052.052.105.052.157.105.262.157.472.262.787.262.21 0 .42-.105.629-.263.315-.21.682-.419 1.206-.419.472 0 .787.21 1.049.367.262.157.472.262.786.262.262 0 .42-.105.577-.21a3.224 3.224 0 0 0 .577-1.887v-.105l-.053.052c-.262.21-.576.472-1.153.472-.524 0-.891-.21-1.154-.367-.21-.157-.42-.262-.681-.262-.263 0-.577.157-.787.315-.262.21-.63.367-1.049.367-.367 0-.629-.105-.891-.262Z"/><g fill="#045388"><path d="M26.089 29.036c-.42-.21-.787-.42-1.154-.786-1.258-1.101-1.52-2.308-1.153-3.67.21-.787.576-1.207.42-2.046-.106-.472-.42-.891-.787-1.206-.787-.787-1.783-1.258-3.252-1.783-.891-.315-3.513-1.101-4.666-2.15-.263.734.262 1.783.943 1.888-.576.052-1.1.367-1.31.682.419.524 1.31 1.048 2.045 1.048-.367.21-.735.682-.892.944.63.367 1.626.63 2.412.577a4.176 4.176 0 0 0-.786.892c.524.262 1.52.576 2.517.629-.367.21-.892.786-1.101 1.153.524.263 1.73.367 2.412.472-.525.262-1.05.787-1.364 1.311.525.262 1.52.525 2.36.525-.42.367-.63.839-.787 1.31.63.105 1.259.105 1.993.053-.472.577-.63 1.363-.734 1.888.63-.053 1.416-.158 1.993-.525-.105.472-.105 1.101.104 1.521a2.45 2.45 0 0 0 .787-.315c.052-.786.052-1.625 0-2.412ZM50.84 18.811c-1.154 1.049-2.937 1.311-4.877 1.94-1.416.472-2.36.734-3.671 1.783a1.599 1.599 0 0 0-.682 1.468c.053.84.21 1.206.21 2.36 0 .787-.262 1.52-.63 1.888a4.36 4.36 0 0 1-1.258.996c-.052.682-.105 1.416-.157 2.255.315.157.682.314.944.367.21-.42.21-1.049.105-1.52.577.366 1.363.471 1.992.524-.052-.525-.262-1.311-.734-1.888.734.105 1.416.105 1.993-.053a4.352 4.352 0 0 0-.787-1.31c.787.052 1.783-.263 2.36-.525-.315-.524-.839-1.049-1.363-1.31.734-.053 1.94-.21 2.517-.473-.263-.367-.787-.996-1.154-1.153.944-.053 1.94-.42 2.517-.63a4.177 4.177 0 0 0-.787-.891c.892-.052 1.783-.21 2.413-.577-.105-.262-.577-.734-.892-.944 1.888-.576 1.94-1.52 1.94-2.307Z"/><path d="M42.712 20.909a16.778 16.778 0 0 0-9.701-3.042c-3.252 0-6.345.944-8.967 2.517.681.524 1.049 1.101 1.206 1.626.105.524.157 1.1-.157 1.992-.315.944-.472 1.888.21 2.884.681.944 1.572 1.416 2.359 1.521a49.064 49.064 0 0 1 3.094-.42c.105-.471.577-.838.944-1.205.576-.472.472-.892.367-1.207-.105-.262-.367-.42-.63-.629-.262-.157-1.258-.262-1.258.42-.157-.21-.262-.525-.21-.944.105-.577 1.049-.682 1.259-.682-.21-.157-.053-.367.367-.524a6.404 6.404 0 0 1 1.363-.158c.892.053 1.049.263 1.52.63.578.524 1.26.629 1.574.367-.21.472-.892.734-1.258.629.21.63.262 1.206.367 1.888.052.314.104.839.21 1.258a35.53 35.53 0 0 1 3.513.472c.42-.105.891-.367 1.31-.891.42-.42.735-1.049.577-2.465-.052-.42-.262-1.416-.21-1.94 0-.787.84-1.573 2.15-2.098Z"/><path d="M31.438 23.898c.157.104.262.157.314.104 0 .053.053.053.053.105.052.053.052.053.052.105.052-.052.262-.105.472-.21.21-.052.42-.157.42-.157-.787-.105-.892.105-1.312.053Zm7.131 13.423c.157-.104.314-.262.577-.367.052-.524.052-1.048.105-1.625a.72.72 0 0 1-.21.157c-.262.21-.577.472-1.154.472-.524 0-.891-.21-1.154-.367-.21-.157-.419-.262-.681-.262-.262 0-.577.157-.787.314-.262.21-.629.367-1.048.367-.42 0-.735-.104-.944-.262v1.52c.052.053.105.053.157.106.262.157.472.262.787.262.21 0 .42-.105.629-.262.314-.21.682-.42 1.206-.42.472 0 .786.21 1.049.367.262.158.471.263.786.263.262.052.42-.105.682-.263Zm-4.405 3.461c-.42 0-.734-.105-.944-.262v1.888c.21-.21.525-.42.944-.577l.524-.157c.42-.158 1.05-.367 2.045-.63.263-.104.525-.21.787-.367-.367-.052-.577-.21-.787-.367-.21-.157-.419-.262-.681-.262-.262 0-.577.157-.787.315-.367.21-.681.42-1.1.42Zm-7.446-7.236c-.105-1.573-.157-3.199-.21-4.457 1.94-.42 4.51-.734 6.503-.734 1.992 0 4.561.262 6.502.734-.053 1.258-.105 2.884-.21 4.457-1.783-.367-4.247-.682-6.292-.682-2.046 0-4.458.315-6.293.682ZM55.506 27.2c.996-.419 1.468-1.572 1.049-2.516-.42-.944-1.573-1.363-2.57-.944-.996.42-1.468 1.573-1.048 2.517.42.996 1.573 1.416 2.569.944ZM54.3 24.528c.787-.367 1.678-.21 1.94.367.21.524-.262 1.31-1.049 1.625-.786.367-1.73.21-1.94-.367-.262-.524.262-1.31 1.049-1.625Zm-.21 5.295-.42-1.468.263-.105.105.42 3.198-.787-.104-.42.21-.052.629 2.255h.157l.052.262-.891.262-.105-.315.42-.105-.263-1.153-1.31.314.21.892.366-.105.105.315-1.101.262-.105-.262.42-.105-.263-.892-1.468.367.105.367-.21.053ZM9.414 25.785l-.105.472 2.045.63c.63.21.944.524 1.049 1.048.052.262.052.577-.053.84-.262.89-.944 1.31-1.678 1.1l-2.202-.629-.105.42-.21-.053.472-1.52.21.052-.105.42 2.045.629c.577.157.839.157 1.049-.105.105-.105.21-.262.262-.42.21-.63-.105-1.153-.734-1.363l-2.045-.63-.105.473-.262-.053.21-1.363.262.052Zm3.618.892c-.105.21-.315.262-.525.21-.21-.106-.262-.315-.21-.525.106-.21.315-.262.525-.21.21.105.315.315.21.525Zm.734-1.626-.157.262-.892-.524.157-.262.368.21c.314-.105.471-.263.576-.525.21-.315.105-.63-.157-.787-.21-.104-.472-.052-1.049.21-.576.315-.629.367-.891.42-.21.052-.42 0-.63-.105-.576-.315-.681-.892-.366-1.52.104-.21.21-.368.42-.473l-.158-.052.157-.262.84.471-.158.263-.367-.21c-.262.105-.367.262-.472.42-.158.262-.053.576.157.681.21.105.367.053.944-.262.262-.157.42-.262.524-.262a1.55 1.55 0 0 1 .525-.105c.21 0 .42.052.576.157.577.315.735.944.42 1.52a2.235 2.235 0 0 1-.577.63l.21.105Zm1.468-2.621a.358.358 0 0 1-.367.366.358.358 0 0 1-.367-.367c0-.21.157-.367.367-.367s.367.157.367.367Zm8.862-7.342-2.412 1.258-.105-.21.367-.21-1.52-2.935-.368.21-.105-.21 2.098-1.102-.105-.157.315-.105.42.787-.263.157-.21-.367-1.048.524.576 1.206.84-.42-.158-.366.262-.105.525.996-.315.105-.157-.315-.84.367.682 1.311 1.102-.576-.21-.42.262-.105.367.682Zm2.307-.839-1.573.524-.052-.21.42-.104-1.05-3.094-.419.105-.052-.21 1.625-.577c.682-.21 1.259.053 1.468.63.21.576-.157 1.258-.786 1.468-.105.052-.158.052-.315.052l-.105-.262c.053 0 .105-.053.158-.053.367-.104.524-.471.314-.943-.157-.525-.472-.734-.839-.577l-.314.105.996 3.041.472-.157.052.262Zm4.667-1.259-.262.053-1.993-3.409-.367.053-.786 3.88-.367.053.052.262 1.154-.21-.053-.262-.42.105.21-.944 1.364-.262.524.839-.42.052.053.262 1.364-.262-.053-.21Zm-2.779-.838.315-1.521.786 1.31-1.101.21Zm6.712.838h-.262c-.105 0-.21-.052-.315-.262l-.786-1.258c.524-.158.786-.525.786-.997 0-.314-.105-.576-.262-.734-.21-.21-.472-.262-.944-.262h-1.678v.262h.42v3.304h-.42v.262h1.573v-.262h-.42v-1.468h.158l.84 1.363c.209.315.261.367.576.367h.734v-.314Zm-2.307-3.25h.367c.42 0 .63.261.63.733s-.263.787-.63.787h-.367V9.74Zm4.929 3.932-1.835-.315.052-.21.577.053.524-3.146-.996-.157-.105.472-.262-.053.157-.944.262.053v.157l2.675.42.052-.158.262.053-.105.996-.314-.053.052-.471-.996-.158-.525 3.146.577.105-.052.21Zm5.349 1.783-1.574-.577.053-.262.472.21.891-2.308-2.202 2.098-.315-2.989-.839 2.202.472.21-.105.21-1.258-.472.105-.21.472.158 1.153-3.042-.42-.21.053-.21.996.368.263 2.989 2.097-2.098 1.049.42-.105.21-.42-.158-1.206 3.094.472.157-.105.21Zm2.779 1.835-2.308-1.468.158-.21.367.262 1.783-2.779-.367-.262.104-.157 1.993 1.206.105-.105.262.157-.524.787-.262-.157.262-.367-.996-.63-.735 1.154.735.472.21-.315.314.158-.63.943-.262-.157.21-.367-.786-.472-.787 1.206 1.101.63.21-.315.262.157-.42.63Zm-26.114.158-.367.262-1.888-2.517.42-.262c.524-.42 1.415-.158 1.94.524.524.682.472 1.573-.105 1.993Zm.734-2.465c-.63-.839-1.783-1.049-2.674-.367l-1.416 1.049.157.21.367-.263 1.94 2.675c.105.052.21.052.263.105l.943-.735c.473-.367.682-.681.787-1.206.105-.524-.052-1.1-.367-1.468Zm30.257 1.521-.158.21.367.314-1.625 1.783.419-3.199-.891-.786-.158.21.315.262-.053.367-2.045 2.202-.367-.315-.157.21.944.892.157-.21-.367-.315 1.678-1.835-.367 2.936 1.101-.314c.053 0 .053-.053.105-.053l1.416-1.573.367.315.157-.21-.839-.891Zm3.88 4.142-.105.105-1.626-2.15.105-.105-.21-.262-.786.63.21.262.367-.263.576.787-2.569 1.888-.105-.21c-.052.052-.157.052-.21.105l.944 1.258.21-.157-.367-.42 2.57-1.94.576.787-.367.262.21.262.786-.576-.21-.263ZM37.73 59.974l-.315.053-.21-.997.315-.052.105.42c.262.157.524.21.786.104.367-.052.577-.367.525-.629-.053-.262-.262-.42-.84-.63-.628-.209-.733-.261-.89-.419-.21-.105-.315-.367-.368-.576-.105-.577.21-1.102.892-1.259.21-.052.42-.052.629 0l-.052-.157.314-.053.21.944-.315.053-.105-.368c-.262-.104-.42-.104-.629-.104-.262.052-.472.314-.42.576.053.21.21.367.787.577.262.105.472.21.577.21.157.052.262.157.42.262.157.157.262.315.262.524.105.63-.21 1.207-.892 1.364-.314.052-.576.052-.891-.053l.105.21Zm5.82-1.835-2.517.996-.105-.21.42-.21-1.206-3.04-.42.157-.052-.21 2.202-.892-.105-.157.315-.052.315.839-.262.105-.158-.42-1.101.472.472 1.258.891-.314-.157-.42.262-.104.42 1.048-.315.158-.105-.42-.891.367.577 1.311 1.153-.472-.157-.367.262-.105.262.682Zm3.828-2.307a2.8 2.8 0 0 1-.944.839c-1.048.629-2.202.367-2.779-.577s-.262-2.098.682-2.727c.314-.21.577-.262.944-.367l-.105-.21.262-.157.524.891-.262.158-.21-.315c-.419-.052-.576 0-.839.21-.681.42-.786 1.258-.314 2.097.472.787 1.363 1.102 2.045.682.262-.157.367-.315.524-.577l-.21-.367.263-.157.42.577Zm1.731-5.926-.367.315 1.468 1.573c.42.472.524.944.367 1.416-.105.262-.262.524-.524.681-.682.63-1.469.63-1.993.053l-1.573-1.73-.315.262-.157-.21 1.206-1.101.157.21-.314.262 1.415 1.573c.42.42.63.577.944.472.158-.053.315-.105.42-.262.524-.472.524-1.05.052-1.574l-1.416-1.573-.262.472-.157-.21.944-.89.105.261Zm6.397-3.303-.734 1.416-.21-.158.21-.367-2.884-1.573-.21.367-.21-.105.734-1.416.21.105-.21.42 2.937 1.573.157-.42.21.158Zm1.468-3.461-.629 1.73-.21-.105.157-.472-2.988-1.153-.315.944.42.157-.105.315-.892-.367.105-.315.157.052.944-2.517-.157-.052.105-.262.944.314-.158.263-.42-.105-.314.891 2.99 1.101.157-.472.21.053Zm1.049-4.195-.315 1.573-.262-.052.105-.42-1.573-.315-1.888.787-.052.367-.262-.052.314-1.574.262.053-.104.42 1.415-.577-1.1-.997-.106.472h-.262l.262-1.31h.262l-.052.419 1.31 1.258 1.679.315.105-.42.262.053Zm-7.813 9.648.21-.262c.262-.314.576-.367.943-.105s.472.682.21.997l-.21.262-1.153-.892Zm3.933.053-.105.21c-.053.104-.158.104-.42.104l-1.52-.105c.21-.524.104-.943-.367-1.258-.263-.21-.525-.262-.735-.21-.262.053-.524.21-.786.63l-.996 1.363.21.157.261-.367 2.675 1.94-.262.367.21.158.943-1.259-.21-.157-.262.367-1.153-.892.105-.104 1.573.105c.367.052.42 0 .629-.263l.42-.576-.21-.21ZM8.784 42.46l-.367-1.52.263-.105.104.472 1.416-.367-.42-1.836-1.468.367.105.42-.21.052-.419-1.52.262-.105.105.472 3.199-.787-.105-.472.21-.052.367 1.573-.21.052-.105-.42-1.416.368.42 1.783 1.468-.367-.157-.368.262-.104.367 1.573-.21.052-.105-.367-3.198.734.105.42-.263.052Zm3.461 3.618c.997-.472 1.416-1.573.997-2.517-.42-.944-1.574-1.363-2.57-.891-.996.472-1.416 1.573-.996 2.517.42.891 1.52 1.31 2.57.891Zm-1.258-2.726c.786-.367 1.678-.21 1.94.314.262.525-.262 1.311-1.049 1.626-.786.367-1.73.21-1.94-.315-.262-.472.262-1.258 1.049-1.625Zm2.674 8.128-.996-1.364.21-.105.262.367 1.992-1.468-2.989.63 1.416-2.727-1.94 1.415.262.367-.21.158-.734-1.05.158-.156.262.367 2.727-1.94-.315-.368.21-.157.576.84-1.31 2.673 2.831-.576.682.891-.21.157-.315-.42-2.621 1.941.262.42-.21.104Zm2.989 2.936-1.993-1.835.158-.21.314.314 2.255-2.412-.314-.262.157-.21 1.73 1.573.105-.104.21.21-.577.681-.262-.21.314-.314-.943-.787-.892.996.682.577.262-.262.262.21-.786.839-.21-.21.262-.315-.682-.629-.944 1.101.892.84.262-.315.262.157-.524.577Zm3.408 2.307-2.254-1.468.157-.21.367.262 1.835-2.726-.367-.263.105-.21 1.364.892-.158.21-.367-.21-1.783 2.622.996.682.263-.315.262.157-.42.577Zm4.142 1.783-.209-.105.21-3.933-.315-.157-2.884 2.727-.314-.158-.105.21 1.101.524.105-.21-.42-.209.735-.682 1.258.577-.052.996-.368-.157-.104.21 1.258.577.105-.21Zm-1.834-2.202 1.1-1.05-.104 1.522-.996-.472Zm5.768 3.566-.367-.105-1.311-3.147-.577 2.412.472.105-.105.21-1.206-.315v-.21l.472.105.734-2.936-.105-.315-.42-.105.053-.21 1.101.263 1.206 2.989.577-2.307-.472-.105.053-.262 1.258.314-.052.21-.472-.105-.84 3.513Zm4.772-1.574c-.053.892-.577 1.573-1.311 1.52l-.472-.052.104-3.146.525.053c.63.052 1.206.786 1.154 1.625Zm-1.05-1.94-1.782-.052v.262h.42l-.105 3.303h-.42v.263l1.783.052c.577.052.944-.105 1.363-.42.42-.367.63-.839.63-1.363 0-1.101-.787-1.993-1.888-2.045Zm12.021-13.243a.3.3 0 0 1-.065.103.186.186 0 0 1-.104.03.527.527 0 0 1-.023.006.104.104 0 0 0-.03-.058l-.105-.105a.395.395 0 0 0 .21.053c.048 0 .086-.01.117-.029Zm-.25.186a.362.362 0 0 1-.139-.032c.007.007.013.017.02.027.01.018.022.038.042.058a.158.158 0 0 1 .041.065.237.237 0 0 1 .012-.013.2.2 0 0 0 .023-.105Zm-.269.446c-.086.052-.166.057-.227.026l-.105-.105c.052.053.052.105.052.158a.344.344 0 0 1 .008.038c.068.03.163.039.202-.038a.995.995 0 0 0 .07-.08Zm-.386.149a.458.458 0 0 1-.008-.013.274.274 0 0 0-.043-.057c0 .026.013.052.026.078l.011.023.014-.03Zm-.105.227-.05.017c.02 0 .037-.006.05-.017Zm-.051.017c-.367.105-.524.053-.577-.052a.584.584 0 0 1-.06-.447c-.044.144-.042.243.008.342.012.024.02.053.03.083.033.103.07.22.232.179a.974.974 0 0 0 .367-.105Zm-22.472-5.324c-.11.48-.301 1.314-.203 2.132l-.006-.016c-.03-.066-.047-.107-.13-.148-.156-.734-.052-1.73.368-2.097a8.43 8.43 0 0 1-.017.074l-.012.055Zm-2.803-.129c-.105-.577.21-2.045.734-2.308-.29.54-.416 1.046-.586 1.728-.045.18-.093.372-.148.58Z"/><path fill-rule="evenodd" d="m49.843 37.584 1.415-.42-1.153.996.052-.367-.629.42c-.05.176-.088.328-.126.479l-1.08.36.315.105-2.937 1.94c-.21.21-.367.367-.577.524.263-.157.577-.314.944-.472l2.727-1.783-.052.315.567-.627-.043.155 1.154-.157-.315-.105 1.416-.42-1.05 1.05.053-.368-.839.472a4.24 4.24 0 0 1-.198.704l-.064.188.577-.263-.315-.157 1.416-.315-1.101.944.052-.367-.786.367c-2.412 6.503-8.6 11.117-15.941 11.117a16.88 16.88 0 0 1-12.847-5.925l.052-.053c.627-.775.424-1.445.23-2.085-.082-.27-.162-.535-.177-.799-.053 0-.053.053-.053.053 0 .188.031.384.064.59.096.599.206 1.292-.378 2.189-.105.157-.21.314-.367.472-.22-.22-.345-.53-.4-.87.01.029.02.056.032.083-.052-.472.368-1.993.787-2.57-.105.053-.472.525-.577.892-.133.24-.239.547-.284.852a1.523 1.523 0 0 0-.083-.118 1.087 1.087 0 0 1-.105-.157c-.21.157-.472.314-.786.367-.105-.525-.053-.996.157-1.364-.037-.11-.099-.219-.15-.31a2.26 2.26 0 0 1-.06-.109c-.183.053-.367.079-.55.105a4.076 4.076 0 0 0-.55.105 2.02 2.02 0 0 1 .327-.78 7.353 7.353 0 0 1 1.507-.531c.053.157.21.262.367.21.263 0 .367-.158.315-.315a.394.394 0 0 0-.367-.262.394.394 0 0 0-.262.367h-.053a2.198 2.198 0 0 0-1.294.286 1.45 1.45 0 0 1 .088-.076c-.052 0-.052-.053-.052-.053-.472.053-.996-.052-1.52-.21a2.448 2.448 0 0 1 1.153-.629.91.91 0 0 1-.053-.13c-.013-.04-.026-.08-.052-.132-.63.052-1.259-.157-1.888-.734a3.221 3.221 0 0 1 1.573-.262c-.839-.158-1.415-.525-1.782-1.102.576-.157 1.048-.157 1.468-.052a.343.343 0 0 1-.014-.032c.05.05.11.084.171.084.157-.052.262-.21.21-.314-.053-.105-.105-.21-.21-.21-.367-.472-.891-.996-1.73-1.049.472.21 1.153.63 1.625 1.102a.387.387 0 0 0-.135.108.4.4 0 0 0-.022-.056c-.787-.105-1.311-.21-1.73-1.52.629 0 1.153.104 1.52.366a2.473 2.473 0 0 1-.052-.34 2.676 2.676 0 0 0-.053-.341c-.524-.315-.839-.787-.891-1.573 0-.325-.032-.525-.07-.769l-.035-.228c.134.134.268.214.416.301.142.084.296.175.475.328 0-1.73.263-3.303.735-4.824.594.043 1.153-.052 1.54-.118.09-.015.172-.029.242-.039-.629.42-1.048 1.154-1.258 1.94.786.105 1.73-.157 2.36-.63-.525.578-.84 1.364-.944 2.046.734-.052 1.415-.367 2.045-.839-.044.1-.1.215-.162.342-.228.474-.531 1.102-.572 1.598.629-.052 1.573-.42 1.992-.944-.42.787-.577 1.416-.524 2.15.681-.105 1.206-.314 1.783-.891-.262.681-.315 1.52-.262 2.097.786-.262 1.258-.629 1.678-1.363-.21.63-.315 1.468-.158 1.993.682-.21 1.049-.63 1.416-1.311-.262.629-.367 1.468-.157 1.94.42-.158.681-.315.786-.42 0 .053.013.118.027.184.013.065.026.13.026.183 0 .472.105.944.262 1.364-.105.052-.21.21-.21.21-.367.367-.63.524-1.154.786.088 0 .193.05.304.102.088.041.18.085.273.108-.125.125-.298.202-.478.283-.198.089-.406.181-.57.346.08.02.145.063.209.106.104.069.205.136.367.104-.576.42-1.415.577-1.52.577-.027 0-.07.003-.122.007-.16.012-.416.032-.612-.008-.263-.052-.682.105-.787.21a.454.454 0 0 0-.21.367c-.21-.052-.576 0-.629.105-.05.05-.065.09-.06.145a.445.445 0 0 0-.15.065c-.07.07-.07.139-.047.239a.063.063 0 0 0-.005.023c0 .033.02.168.087.277.045.132.104.206.227.247.013 0 .025.003.038.006.043.01.092.022.172-.058l-.105.105c-.052.052-.052.157.105.367.158.21.315.262.42.21l.105-.105c-.053.052-.053.105-.053.157-.052.21.105.262.262.315.367.105.525.105.577-.053a.557.557 0 0 0 .075-.123.357.357 0 0 0 .135-.086c.157-.263.052-.577-.052-.63a.334.334 0 0 1 0 .315 1.571 1.571 0 0 0-.023.076l-.021.07a.33.33 0 0 0-.123-.23c.01-.01.01-.02.01-.02a2.923 2.923 0 0 1-.053-.181c-.035-.129-.07-.257-.105-.292a.73.73 0 0 0-.048.134c-.015.053-.028.099-.057.128l-.157.158c.104.052.21.105.314.105a.173.173 0 0 0 .07-.012.331.331 0 0 1-.017.274.543.543 0 0 0-.024.058.407.407 0 0 1-.029-.006.973.973 0 0 1-.367-.105c-.105 0-.105-.157-.052-.262 0-.105.052-.157.105-.21a1.074 1.074 0 0 0-.131.08c-.04.025-.08.052-.132.078-.052.052-.21.105-.262 0a1.238 1.238 0 0 1-.14-.174.708.708 0 0 0-.07-.089.132.132 0 0 1-.015-.124l.041-.02.027-.013a.56.56 0 0 0-.053.003c.054-.097.193-.178.263-.212-.12 0-.186.022-.241.04a.338.338 0 0 1-.231.012.2.2 0 0 1-.165-.09c.044.119.103.157.217.195.045 0 .09 0 .167-.033l-.019.028a.294.294 0 0 1-.043.057v.01a.75.75 0 0 0-.102.027.421.421 0 0 1-.265.016.293.293 0 0 1-.175-.143 1.474 1.474 0 0 1-.035-.12 4.273 4.273 0 0 0-.023-.089c-.01-.033-.017-.063-.024-.091a.253.253 0 0 1 .207-.136.233.233 0 0 1 .024-.01.33.33 0 0 1 .18.003.278.278 0 0 0 .056.009l.21-.21v.053c0 .052.052.157.21.262.104 0 .157 0 .052-.053-.053-.052-.158-.472.052-.576.157-.158.315-.21.577-.21.087 0 .18.006.274.011.186.012.373.024.513-.011.104 0 .419 0 .471.052.056.037.092.126.131.224.072.18.156.387.394.353l.279-.075c.391-.102.934-.243 1.346-.45a.626.626 0 0 0-.08.276.892.892 0 0 1-.077.301c.284-.056.46-.175.654-.304.164-.11.34-.229.605-.325a1.44 1.44 0 0 0-.105.289 1.595 1.595 0 0 1-.105.288c.247-.055.495-.182.765-.32.245-.126.509-.262.808-.362 0 .053 0 .053.052.053.21.052.42.105.577.157-.367.315-.839 1.154-1.049 1.94 0 0 .315 0 .787-.157-.105.42-.21.839-.21 1.363 0 0 .367-.052.892-.367-.053.472-.053.892.052 1.416 0 0 .42-.157.944-.682.052.472.157.944.367 1.416 0 0 .367-.21.734-.786.315.944.734 1.363.734 1.363.315-.472.577-.944.734-1.416.42.63.787.892.787.892.157-.472.315-.944.367-1.416.524.472.944.681.944.681.105-.471.105-.943.052-1.415.525.314.892.367.892.367 0-.472-.105-.944-.21-1.364.472.158.787.158.787.158a4.624 4.624 0 0 0-1.05-1.94c.158-.105.368-.158.63-.21 0-.026 0-.04.007-.046.006-.007.02-.007.045-.007.37.086.663.248.929.396.224.124.429.238.645.286a.73.73 0 0 1-.134-.33.92.92 0 0 0-.076-.247c.228.091.386.192.54.29.2.128.392.25.718.34a.868.868 0 0 1-.078-.289.85.85 0 0 0-.079-.288c.337.13.636.195.902.253.273.06.512.112.724.218.346.149.412-.123.463-.33l.009-.036a.943.943 0 0 0 .029-.07c.047-.12.113-.288.285-.245.1 0 .233-.012.375-.024l.105-.01c-.07-.002-.137-.007-.193-.011-.057-.004-.103-.008-.13-.008a4.517 4.517 0 0 0-.154-.022c-.307-.04-.72-.094-1.209-.45a.547.547 0 0 0 .313-.099.78.78 0 0 1 .264-.11 2.471 2.471 0 0 0-.515-.3c-.2-.097-.396-.192-.534-.33.132-.032.264-.086.382-.134.07-.029.136-.056.195-.075-.42-.105-.839-.472-1.206-.84l-.21-.209c.158-.42.21-.891.262-1.363 0-.053.014-.118.027-.184a1.03 1.03 0 0 0 .026-.183c.21.21.577.42.839.471.05-.355.15-1.152-.176-1.868.314.636.775.985 1.382 1.187.157-.472 0-1.364-.21-1.993.42.734.944 1.049 1.73 1.311.053-.577-.104-1.31-.367-2.045.577.577 1.102.787 1.783.892 0-.735-.157-1.364-.524-2.15.42.524 1.206.996 1.888 1.048.105-.681-.315-1.678-.682-2.097.524.524 1.311.944 2.098.891-.053-.786-.367-1.52-.944-2.045.576.42 1.625.734 2.412.525-.105-.734-.472-1.364-1.468-1.94.1.014.228.044.378.079.395.093.938.22 1.51.183.471 1.52.733 3.198.733 4.876v.682l.577-.63-.367-.052 1.259-.786-.735 1.258-.052-.367-.734.84c-.027.162-.04.34-.054.523a7.688 7.688 0 0 1-.05.525l.628-.525-.367-.104 1.364-.63-.892 1.206-.052-.367-.787.63c-.052.314-.105.629-.157.891l.524-.315-.314-.104Zm-7.086 4.301c.2.014.434.11.531.208.21.157.157.472.052.577-.104.105-.052.105.053.052a.243.243 0 0 0 .166-.156.52.52 0 0 1 .2.051c.096.048.192.096.208.183l-.016.06a4.288 4.288 0 0 0-.052.191.276.276 0 0 1-.087.038.42.42 0 0 1-.264-.015.63.63 0 0 0-.208-.037l.027.013c.084.04.219.106.252.211a.347.347 0 0 1-.142-.026.664.664 0 0 0-.241-.04c.094.046.315.178.283.318-.033.047-.073.1-.126.153-.053.105-.157.053-.262 0a1.147 1.147 0 0 0-.263-.157.88.88 0 0 1 .043.1c.018.045.03.077.062.11.02.019.025.051.021.088-.037-.02-.068-.041-.1-.062a1.271 1.271 0 0 0-.105-.065l.027-.014a.912.912 0 0 0-.1-.086.312.312 0 0 1-.11-.123c-.052-.105-.105-.21-.105-.263-.052.053-.104.315-.104.525 0 .02 0 .032.006.04.01.012.034.012.098.012a.659.659 0 0 0 .28-.087.253.253 0 0 1 .087.192.31.31 0 0 1 .033.114.952.952 0 0 1-.347.096c-.166 0-.2-.098-.234-.19a.469.469 0 0 0-.028-.072c-.053-.158-.053-.263 0-.367-.04.02-.08.078-.106.157-.105.054-.209.367-.052.629.105.105.263.157.577.052.177-.044.28-.088.276-.227a.193.193 0 0 0 .097-.122c.1.013.23-.053.361-.227a.515.515 0 0 0 .146-.214.483.483 0 0 0 .095-.217.342.342 0 0 0 .126-.072.31.31 0 0 0 .103-.134.33.33 0 0 0 .062-.105.336.336 0 0 1-.04.044.708.708 0 0 0 .033-.194.118.118 0 0 0-.003-.027c.026-.098.037-.166.003-.235a.4.4 0 0 0-.262-.105l.053-.042c.042.008.082.02.104.042.105.053.21.157.21.21a.463.463 0 0 1-.005.06c.07-.148.092-.235.005-.322 0-.03-.054-.043-.119-.06a.85.85 0 0 1-.08-.02l4.76-3.748v.262l.105-.142v.09l.892-1.206-1.364.576.012.004-.116.049.367.105-4.982 3.932-.017.053h-.035a.408.408 0 0 0-.072-.223l3.1-6.2.118.235.007-.038.045.09.263-1.415-.09.105.037-.21-.944 1.101.162-.023-.11.128.265-.044-.458 1.026-2.512 5.111a1.038 1.038 0 0 0-.552-.061Zm-26.37-6.766c.21-.63.682-1.101 1.05-1.258.366.996.157 2.045-.577 2.674.052-.315-.053-.63-.158-.892.105-.524.315-1.153.525-1.468-.262.21-.525.787-.63 1.259a1.094 1.094 0 0 0-.21-.315Zm32.774-.053.105.368.577-1.364-1.206.892h.367l-3.199 4.037c-.262.367-.524.787-.734 1.154.157-.262.367-.472.577-.682l3.513-4.404Zm-6.502 7.761c.105.158.105.42.052.577.277-.046.35-.295.4-.461l.02-.063c-.105-.105-.367-.105-.472-.053Zm-.367-.21c.052.105.105.21.314.21-.157.105-.314.105-.367.053-.052-.053-.052-.158-.052-.263 0-.157.052-.104.105 0Zm4.457-5.768-.367.053 1.153-1.049-.471 1.416-.105-.315-2.727 4.09-.053.053c.21-.42.42-.84.63-1.311l1.94-2.937Zm-.63 3.2c-.314.261-.629.523-.89.733.114-.144.245-.288.392-.45h.001c.12-.132.251-.276.393-.441l2.936-2.727-.367-.052 1.311-.682-.787 1.258-.052-.367-2.936 2.727Zm2.36.104-4.09 2.045c-.052.052-.105.105-.157.105l.052.052s0 .053.053.053l4.247-2.15-.052.367 1.1-.944-1.415.315.262.157Zm-6.318 4.3a.276.276 0 0 1 .078.052l-.786 1.573.105.262-.787 1.678-.157-.419-.42.105.892-1.678.262-.105.734-1.52a.263.263 0 0 0 .079.052Zm-.289-.63c0 .105 0 .158.053.263l-.892 1.049-.21.052-1.1 1.468-.053-.367-.367.053h-.053l1.416-1.416.262-.053.944-1.048Zm1.836-1.835c.064-.065.15-.13.266-.219.073-.055.158-.12.258-.2l4.824-5.244.053.367.681-1.31-1.258.786.367.052-5.034 5.506c-.026.053-.053.092-.079.131-.026.04-.052.079-.078.131Zm-2.517 2.307-1.783 1.259h-.21l-1.154.996-.052-.314-.42-.105 1.416-.892.157-.104.315.052 2.255-1.468c-.044.043-.105.114-.177.196a7.742 7.742 0 0 1-.347.38Zm-3.252 1.416.734-.42.63-.471.21.052s1.625-.996 2.045-1.258c.052 0 .052-.053.052-.053l-2.15 1.05-.262-.106-1.73.787.366.105.105.314ZM18.105 40.62c-.129.075-.186.207-.144.373.052.21.21.315.42.262.21 0 .314-.21.261-.42-.052-.21-.21-.314-.419-.262a.462.462 0 0 0-.116.046c-.519-.31-.885-.412-1.562-.308.623.052 1.092.104 1.56.309Zm1.22 2.156c-.473.367-.84.944-.892 1.468.21-.42.681-1.154 1.153-1.573.263-.262.105-.157-.262.105Zm-1.731-3.933c.157 0 .314.052.367.262a.394.394 0 0 1-.262.367c-.158 0-.315-.052-.367-.262 0-.157.052-.315.262-.367Zm3.146.682c0-.175-.006-.344-.012-.513-.011-.338-.023-.676.012-1.06-.944.734-1.31 1.94-.891 2.779h-.105c-.21.052-.315.21-.262.42.052.209.21.314.419.261.18-.044.282-.166.275-.332.15-.2.252-.354.354-.507.026.08.04.158.053.236.013.08.026.158.052.236.052-.734.262-1.468 1.049-1.94-.577.734-.892 1.52-.944 2.15.1-.125.23-.227.371-.336.449-.35 1.005-.782 1.045-2.338-.525.105-1.101.42-1.416.944Zm.21 1.835c.21-.052.367.052.42.262.052.157-.053.367-.263.42-.21.052-.367-.053-.42-.262-.052-.21.053-.368.263-.42Zm.314 1.31c-.052-.209-.21-.314-.42-.261-.209.052-.314.21-.261.42.052.209.21.314.42.261.209-.052.314-.262.261-.42Zm-2.884-3.198c-.052-.629.105-1.415.84-1.992.752 1.545.308 2.132-.045 2.598-.114.151-.219.29-.27.443-.158-.734 0-1.888.105-2.517-.315.472-.42.996-.368 1.573v.157c0 .263.053.525.105.735-.105-.158-.21-.315-.262-.525-.026 0-.04.013-.052.026-.013.014-.026.027-.053.027-.105.052-.262-.053-.314-.21-.053-.105.052-.262.21-.315h.104Zm3.723 2.622c-.052-.157-.21-.262-.314-.21-.158.053-.263.21-.21.315.052.157.21.262.315.21.157 0 .21-.158.21-.315Zm-1.783-.262c.105 0 .21.105.263.21 0 .105-.053.262-.21.262-.105 0-.21-.105-.262-.21 0-.105.105-.21.21-.262Zm-3.565-5.087c.157-.052.314.053.367.21.052.158-.053.315-.262.367-.158.053-.367-.052-.367-.21 0-.157.104-.314.21-.366h.052Zm-.072-.068.02.069c-.263-.577-.787-1.364-1.207-1.94.813.558.986 1.166 1.187 1.87Zm1.33 3.267c-.052-.105-.157-.21-.262-.21-.052 0-.105.053-.157.105-.664-.569-1.157-.623-1.555-.667a8.168 8.168 0 0 1-.123-.014c.05.02.12.045.206.076h.001c.364.133.994.36 1.418.658-.052.052-.052.105-.052.157.052.105.157.21.262.21.21-.105.315-.21.262-.315Zm1.101 1.52c-.052-.104-.157-.209-.262-.209-.105 0-.157.053-.21.105-.629-.105-1.363 0-1.94.367.682-.157 1.364-.315 1.94-.315v.105c.053.105.158.21.263.21.157-.052.262-.157.21-.262Zm-.524-5.61c-1.101.472-1.573 1.835-1.049 2.832.12-.155.26-.283.402-.412.482-.437.971-.88.647-2.42Zm5.454 7.499c1.363 1.048 2.202 2.517 2.36 3.67-.21-.105-.525-.262-.683-.21-.21-1.206-.786-2.202-1.835-3.04.053-.21.105-.316.158-.42Zm-.892-.42c-.105-.052-.315-.052-.42.052.008.022.015.047.023.073.049.167.119.407.345.452-.053-.157-.053-.42.052-.577Zm.105.053c.21 0 .262-.105.315-.21.052-.105.105-.157.105 0s0 .21-.053.262l-.041.004c-.072.01-.2.028-.326-.056Z" clip-rule="evenodd"/><path d="M40.3 36.115Zm-18.004 7.246c-.107.062-.214.158-.14.305.021.022.043.053.069.089.036.05.08.112.14.173.053.105.158.053.263 0a.382.382 0 0 1 .056-.044.571.571 0 0 1-.266-.218c-.147-.147-.14-.243-.122-.305Zm.549.515a.266.266 0 0 1-.06.105c0 .052 0 .21.052.262a.97.97 0 0 0 .367.105c.078 0 .127-.021.16-.054a1.14 1.14 0 0 1-.212-.05c-.21-.053-.315-.106-.262-.316 0-.026.013-.052.026-.078a.186.186 0 0 0 .026-.079.29.29 0 0 0-.043.057c-.015.026-.027.045-.054.048Zm-.427-.682a.717.717 0 0 1-.043.02.052.052 0 0 1 .043-.02Z"/></g><path fill="#fff" d="m27.977 30.19.052-.368-.314-.157h.367l.052-.367.158.315.314-.053-.262.21.157.315-.314-.21-.21.314Zm2.15-.315-.315-.21-.262.262.105-.314-.315-.158.367-.052v-.315l.158.315.315-.052-.21.21.157.314Zm1.573-.105-.262-.21-.262.262.105-.367-.315-.21h.315l.105-.314.104.315h.315l-.262.157.157.367Zm1.573-.052-.262-.21-.262.21.105-.315-.262-.21h.314l.105-.314.105.314h.315l-.263.21.105.315Zm4.51.157-.262.21.157-.315-.262-.21.367.053.105-.315.052.367h.367l-.367.157.105.367-.262-.314Zm-1.678-.315-.315-.21.367.053.105-.315.053.315.367.052-.315.158.105.314-.262-.262-.262.21.157-.315Zm-1.625-.157-.315-.157h.367l.105-.315.105.315h.314l-.262.21.052.366-.21-.262-.314.21.157-.367Zm-6.293 3.303.105-.314-.315-.157.367-.053v-.315l.157.315.315-.105-.262.262.157.315-.262-.157-.262.21Zm2.097-.209-.314-.21-.262.262.104-.367-.314-.157h.367l.052-.367.105.314h.367l-.262.21.157.315Zm1.521-.157-.262-.158-.262.21.105-.367-.315-.157h.367l.052-.315.105.314.367-.052-.314.21.157.314Zm1.521 0-.263-.263-.262.262.105-.314-.262-.21h.315l.104-.315.105.315h.315l-.262.21.105.314Zm4.352.157-.262.157.157-.315-.262-.21.315.053.157-.315v.368h.367l-.315.157.105.367-.262-.262ZM36 32.182l-.262-.21.367.053.105-.367.052.367h.367l-.314.157.105.367-.263-.262-.314.21.157-.315Zm-1.52-.157-.315-.21.367.052.105-.314.105.314h.314l-.314.21.104.315-.262-.21-.262.157.157-.314Zm-5.507-.839.053-.315-.315-.157h.367l.053-.367.157.314.315-.052-.263.21.158.314-.315-.21-.21.263Zm-1.52.262.052-.367-.314-.105.367-.052v-.367l.157.314.367-.052-.262.262.157.262-.314-.157-.21.262Zm3.565-.419-.262-.21-.262.21.105-.315-.315-.157.367-.053.053-.315.105.315.367-.052-.315.21.157.367Zm1.574-.105-.315-.21-.262.21.105-.315-.315-.21h.367l.105-.314.052.314h.367l-.262.21.158.315Zm1.468 0-.262-.21-.263.21.158-.315-.315-.21h.315l.157-.314.053.367.367-.053-.315.21.105.315Zm4.352.262-.315.21.21-.315-.314-.262.367.105.157-.315.052.315.315.052-.315.157.053.367-.21-.314Zm-1.678-.315-.262-.262.367.052.105-.314.052.367h.367l-.367.157.105.367-.21-.262-.314.21.157-.315Zm-1.521-.157-.262-.21h.315l.157-.315.053.368h.314l-.314.157.105.315-.263-.21-.262.21.157-.315Z"/></svg>