<svg xmlns="http://www.w3.org/2000/svg" fill="none" aria-hidden="true" viewBox="0 0 250 48"><path fill="url(#a)" d="M131.682 4.602c-10.974 0-19.877 8.573-19.877 19.153 0 11.248 8.517 19.657 19.877 19.657 11.076 0 19.822-8.52 19.822-19.436 0-10.852-8.687-19.374-19.822-19.374Z"/><path fill="#0B1015" d="M18.843 5.301H8.157v37.27h10.63c5.64 0 9.719-1.337 13.297-4.3 4.245-3.521 6.763-8.83 6.763-14.317 0-11.004-8.22-18.653-20.004-18.653Zm8.498 27.992c-2.298 2.073-5.256 2.969-9.957 2.969h-1.952v-24.65h1.952c4.701 0 7.546.839 9.957 3.016 2.514 2.236 4.014 5.698 4.014 9.273 0 3.582-1.5 7.165-4.014 9.392Zm14.861 9.278h7.262V5.3h-7.262v37.27Zm25.041-22.974c-4.364-1.617-5.649-2.683-5.649-4.688 0-2.349 2.287-4.136 5.422-4.136 2.18 0 3.968.894 5.873 3.01l3.796-4.965c-3.13-2.744-6.873-4.14-10.957-4.14-6.588 0-11.621 4.586-11.621 10.671 0 5.146 2.345 7.77 9.165 10.235 2.852 1.001 4.302 1.669 5.03 2.125 1.453.95 2.182 2.287 2.182 3.85 0 3.023-2.405 5.255-5.65 5.255-3.466 0-6.258-1.73-7.935-4.972l-4.689 4.532c3.346 4.911 7.37 7.097 12.91 7.097 7.544 0 12.85-5.036 12.85-12.243 0-5.925-2.453-8.609-10.727-11.63Zm13.017 4.357c0 10.965 8.61 19.458 19.678 19.458 3.129 0 5.811-.619 9.112-2.178V32.68c-2.91 2.91-5.481 4.08-8.78 4.08-7.32 0-12.52-5.31-12.52-12.858 0-7.15 5.363-12.796 12.188-12.796 3.46 0 6.091 1.23 9.112 4.19V6.742c-3.185-1.615-5.816-2.28-8.946-2.28-11.012 0-19.844 8.663-19.844 19.493Zm87.692 6.382-9.948-25.035h-7.937l15.822 38.222h3.909L185.897 5.3h-7.879l-10.066 25.035Zm21.249 12.235h20.62v-6.31h-13.355V26.196h12.844v-6.311h-12.844v-8.272h13.355V5.3h-20.62v37.27Zm49.396-26.27c0-6.983-4.8-11-13.188-11h-10.788v37.27h7.272V27.59h.952L232.9 42.57h8.943l-11.744-15.7c5.485-1.12 8.498-4.867 8.498-10.57Zm-14.588 6.154h-2.116V11.161h2.232c4.537 0 6.995 1.906 6.995 5.533 0 3.742-2.458 5.761-7.111 5.761Z"/><defs><linearGradient id="a" x1="119.513" x2="146.337" y1="8.12" y2="36.451" gradientUnits="userSpaceOnUse"><stop stop-color="#F34F26"/><stop offset="1" stop-color="#F69E35"/></linearGradient></defs></svg>