<svg xmlns="http://www.w3.org/2000/svg" fill="none" aria-hidden="true" viewBox="0 0 203 59"><path fill="#2396ED" d="m58.648 14.936 1.445 1.047c2.513 2.027 3.959 4.316 4.273 6.933 2.702-.524 6.158-.131 7.667.915l1.382.85-.251.524c-.44.98-.566 1.242-.629 1.373-2.45 4.905-7.29 4.97-9.551 4.905-5.719 14.324-17.91 22.238-34.374 22.238-7.604 0-13.385-2.42-17.282-7.195-5.152-6.279-5.152-14.454-4.713-17.07l.126-.523h45.434c2.388 0 4.21-.654 5.09-1.178-.943-1.438-1.257-3.074-1.32-3.99-.188-2.615.44-5.362 1.697-7.324l1.005-1.505Zm39.366 3.037c.507 0 .936.17 1.288.51.351.34.527.77.527 1.288v16.176c0 2.696-.945 4.977-2.835 6.844-1.912 1.89-4.193 2.834-6.843 2.834-2.673 0-4.955-.945-6.844-2.834-1.89-1.89-2.834-4.171-2.834-6.844s.944-4.955 2.834-6.844c1.89-1.89 4.17-2.834 6.844-2.834 2.293 0 4.315.708 6.066 2.125v-8.623c0-.519.17-.948.51-1.288.34-.34.769-.51 1.287-.51Zm13.55 8.296c2.65 0 4.931.945 6.844 2.834.945.945 1.65 1.987 2.117 3.128.467 1.14.706 2.38.717 3.716 0 2.696-.945 4.977-2.834 6.844-1.913 1.89-4.194 2.834-6.844 2.834-2.673 0-4.954-.945-6.844-2.834-1.889-1.89-2.834-4.171-2.834-6.844s.945-4.955 2.834-6.844c1.89-1.89 4.171-2.834 6.844-2.834Zm21.379 0c2.431 0 4.534.783 6.308 2.35.415.369.622.824.622 1.365 0 .519-.17.95-.51 1.297-.34.345-.769.518-1.287.518-.438 0-.83-.138-1.175-.415a6.63 6.63 0 0 0-1.85-1.123 5.714 5.714 0 0 0-2.108-.38c-.841 0-1.63.158-2.368.475a6.208 6.208 0 0 0-1.935 1.296 6.035 6.035 0 0 0-1.305 1.927 5.93 5.93 0 0 0-.475 2.368c0 .84.158 1.63.475 2.367.317.738.752 1.38 1.305 1.927a6.2 6.2 0 0 0 1.935 1.297 5.938 5.938 0 0 0 2.368.475c.76 0 1.463-.124 2.108-.372a6.224 6.224 0 0 0 1.832-1.114 1.937 1.937 0 0 1 1.141-.38c.518 0 .948.17 1.287.51.34.34.51.768.51 1.287 0 .507-.19.95-.57 1.33-1.786 1.567-3.889 2.35-6.308 2.35-2.673 0-4.954-.944-6.844-2.833-1.889-1.89-2.834-4.171-2.834-6.844s.945-4.955 2.834-6.844c1.89-1.89 4.171-2.834 6.844-2.834Zm10.785-8.296c.495 0 .919.176 1.27.527.351.352.527.78.527 1.288v13.48l10.335-6.723a1.76 1.76 0 0 1 .968-.276c.253 0 .489.046.708.138.219.092.409.222.571.389.161.167.291.36.388.579.098.219.147.45.147.691 0 .645-.23 1.123-.691 1.434l-7.241 4.701 7.431 8.365c.334.369.501.79.501 1.261 0 .242-.049.473-.147.692a1.988 1.988 0 0 1-.388.579 1.71 1.71 0 0 1-.571.389 1.806 1.806 0 0 1-.708.138c-.484 0-.887-.156-1.21-.467l-7.984-8.97-2.109 1.383v6.24c0 .495-.176.92-.527 1.278a1.717 1.717 0 0 1-1.27.536 1.74 1.74 0 0 1-1.288-.536 1.762 1.762 0 0 1-.527-1.279V19.788c0-.507.176-.936.527-1.288a1.753 1.753 0 0 1 1.288-.527Zm26.546 8.296c2.65 0 4.931.945 6.844 2.834.945.933 1.653 1.973 2.126 3.12.472 1.146.708 2.387.708 3.724 0 .518-.176.947-.527 1.287-.351.34-.781.51-1.288.51H164.45c.196.634.484 1.213.864 1.737s.827.974 1.339 1.348a6.221 6.221 0 0 0 1.694.873 6.001 6.001 0 0 0 1.927.31c.76 0 1.458-.114 2.091-.345a5.731 5.731 0 0 0 1.763-1.037 1.889 1.889 0 0 1 1.192-.45c.519 0 .948.17 1.288.51.34.34.51.77.51 1.288 0 .507-.173.94-.519 1.297-1.785 1.566-3.894 2.35-6.325 2.35-2.673 0-4.954-.945-6.844-2.834-1.889-1.89-2.834-4.171-2.834-6.844s.945-4.955 2.834-6.844c1.89-1.89 4.171-2.834 6.844-2.834Zm21.344 0c.507 0 1.052.034 1.634.103.581.07 1.117.193 1.607.372.489.178.896.423 1.218.735.323.31.484.714.484 1.21 0 .253-.049.489-.147.708a1.991 1.991 0 0 1-.389.579 1.696 1.696 0 0 1-.57.389 1.807 1.807 0 0 1-.709.138c-.218 0-.472-.064-.76-.19a6.361 6.361 0 0 0-2.368-.432c-.841 0-1.63.158-2.367.475a6.092 6.092 0 0 0-1.927 1.296 6.076 6.076 0 0 0-1.296 1.927 5.931 5.931 0 0 0-.476 2.368v7.88c0 .496-.175.92-.527 1.27a1.73 1.73 0 0 1-1.27.528c-.507 0-.936-.176-1.288-.527a1.733 1.733 0 0 1-.527-1.27V28.066c0-.495.176-.919.527-1.27a1.753 1.753 0 0 1 1.288-.527c.495 0 .919.175 1.27.527.352.351.527.775.527 1.27v.346a9.9 9.9 0 0 1 2.817-1.59 9.434 9.434 0 0 1 3.249-.553ZM90.151 29.88c-.853 0-1.648.161-2.385.484a6.117 6.117 0 0 0-1.919 1.304 6.178 6.178 0 0 0-1.287 1.927 5.89 5.89 0 0 0-.475 2.35c0 .83.158 1.614.475 2.351.317.738.746 1.38 1.287 1.927a6.13 6.13 0 0 0 1.919 1.305 5.883 5.883 0 0 0 2.385.484 5.84 5.84 0 0 0 2.367-.484 6.15 6.15 0 0 0 3.224-3.24 5.83 5.83 0 0 0 .475-2.342c0-.83-.159-1.61-.475-2.342a6.148 6.148 0 0 0-3.223-3.24 5.841 5.841 0 0 0-2.368-.484Zm21.413 0c-.853 0-1.647.161-2.385.484a6.114 6.114 0 0 0-1.918 1.304 6.172 6.172 0 0 0-1.288 1.927 5.887 5.887 0 0 0-.475 2.35c0 .83.158 1.614.475 2.351.317.738.746 1.38 1.288 1.927a6.114 6.114 0 0 0 1.918 1.305 5.884 5.884 0 0 0 2.385.484 5.84 5.84 0 0 0 2.368-.484 6.162 6.162 0 0 0 1.927-1.314 6.242 6.242 0 0 0 1.296-1.927 5.826 5.826 0 0 0 .475-2.341c0-.83-.158-1.61-.475-2.342a6.241 6.241 0 0 0-1.296-1.927 6.161 6.161 0 0 0-1.927-1.313 5.846 5.846 0 0 0-2.368-.484Zm58.71 0c-.657 0-1.296.103-1.918.31a6.31 6.31 0 0 0-1.711.873 5.972 5.972 0 0 0-1.348 1.349 5.596 5.596 0 0 0-.847 1.736h11.648a5.796 5.796 0 0 0-.873-1.736 6.204 6.204 0 0 0-3.041-2.22 5.952 5.952 0 0 0-1.91-.312ZM18.555 21.084v6.54h-6.912v-6.54h6.912Zm8.17 0v6.54h-6.913v-6.54h6.912Zm8.169 0v6.54H27.98v-6.54h6.913Zm8.169 0v6.54H36.15v-6.54h6.913Zm8.17 0v6.54H44.32v-6.54h6.912Zm-8.17-7.848v6.54H36.15v-6.54h6.913Zm-8.17 0v6.54h-6.912v-6.54h6.913Zm-8.169 0v6.54h-6.912v-6.54h6.912Zm16.339-7.849v6.54H36.15v-6.54h6.913Z"/></svg>