<svg xmlns="http://www.w3.org/2000/svg" fill="none" aria-hidden="true" viewBox="0 0 217 55"><path fill="#000" d="M5.167 5.716h14.818c9.458 0 15.449 7.695 15.449 18.276 0 5.771-1.892 10.901-5.675 14.107-2.523 2.245-5.99 3.527-10.405 3.527H5.167V5.716ZM18.88 35.374c6.779 0 9.301-4.168 9.301-11.222 0-7.054-2.995-12.023-9.143-12.023H12.26v23.405h6.62v-.16Zm17.656-6.573c0-7.695 5.36-13.626 13.242-13.626 7.882 0 13.242 5.931 13.242 13.626 0 7.695-5.36 13.627-13.242 13.627-7.882 0-13.242-6.092-13.242-13.627Zm19.548 0c0-4.97-2.365-8.496-6.464-8.496-4.098 0-6.463 3.366-6.463 8.496 0 5.13 2.207 8.337 6.463 8.337 4.257 0 6.464-3.367 6.464-8.337Zm8.197 0c0-7.695 4.887-13.626 12.611-13.626 6.621 0 10.562 3.847 11.508 9.458h-6.62c-.473-2.244-2.207-4.008-4.572-4.008-4.098 0-6.147 3.206-6.147 8.176 0 4.81 1.891 8.176 5.99 8.176 2.68 0 4.571-1.443 5.044-4.328h6.621c-.473 5.45-4.571 9.779-11.35 9.779-8.04-.16-13.084-6.092-13.084-13.627Zm42.09 12.825V38.58h-.158c-1.734 2.405-3.625 3.688-7.251 3.688-5.675 0-8.828-3.688-8.828-9.299V15.816h6.62v16.031c0 3.046 1.262 4.65 4.257 4.65 3.153 0 5.045-2.405 5.045-5.772v-14.91h6.778v25.651h-6.463v.16Zm39.095-35.75h6.778v6.413h-6.778V5.876Zm0 9.94h6.778v25.65h-6.778v-25.65Zm9.458 26.451h6.621c.473 1.604 2.049 2.886 5.045 2.886 3.783 0 5.675-1.924 5.675-5.29v-2.886h-.158c-1.419 1.764-3.468 3.046-6.621 3.046-5.675 0-11.192-4.489-11.192-12.344 0-7.695 4.571-12.504 10.877-12.504 3.153 0 5.517 1.282 6.936 3.366h.158v-2.725h6.463v23.726c0 3.687-1.104 6.092-2.995 7.855-2.05 2.085-5.36 2.886-9.143 2.886-6.621 0-10.878-2.886-11.666-8.016Zm17.814-14.748c0-3.688-2.05-6.894-5.991-6.894-3.468 0-5.675 2.726-5.675 7.054 0 4.329 2.207 6.893 5.675 6.893 4.257 0 5.991-3.206 5.991-7.053Zm15.606-8.176c1.892-2.726 4.256-4.168 7.567-4.168 5.202 0 8.67 4.007 8.67 9.618v16.833h-6.779v-15.71c0-2.726-1.576-4.65-4.414-4.65-2.995 0-5.202 2.405-5.202 5.932v14.589h-6.463v-25.65h6.621v3.206Zm-58.169.641c-5.202-1.122-7.567-2.084-7.567-4.97 0-2.565 2.522-4.168 6.306-4.168 3.468 0 6.147 1.603 6.778 4.97h6.936c-.788-6.894-5.832-10.741-13.714-10.741-7.883 0-13.558 3.687-13.558 10.74 0 7.536 5.833 9.139 12.139 10.582 5.36 1.282 8.67 1.923 8.67 5.45 0 3.367-3.153 4.65-6.779 4.65-5.044 0-7.409-1.764-7.882-6.093h-6.936c.316 7.535 5.675 11.863 15.291 11.863 7.882 0 13.715-4.007 13.715-11.382-.158-7.534-6.148-9.298-13.399-10.901Zm78.553 1.321c-1.644 0-3.106-1.488-3.106-3.162 0-1.673 1.462-3.161 3.106-3.161s3.105 1.488 3.105 3.161c0 1.674-1.461 3.162-3.105 3.162Zm0-5.765c-1.462 0-2.558 1.116-2.558 2.603 0 1.488 1.096 2.604 2.558 2.604 1.461 0 2.557-1.116 2.557-2.604 0-1.487-1.096-2.603-2.557-2.603Z"/><path fill="#000" d="M207.632 16.47h1.096c.365 0 .73 0 .913.186.183.186.365.372.365.744 0 .557-.365.743-.548.93l.731 1.301h-.731l-.548-1.116h-.73v1.116h-.548V16.47Zm.548.558v.93h.548c.182 0 .548 0 .548-.558 0 0 0-.372-.183-.372h-.913Z"/></svg>