<svg xmlns="http://www.w3.org/2000/svg" fill="none" aria-hidden="true" viewBox="0 0 223 61"><path fill="#444" d="M71.153 25.46a4.3 4.3 0 1 0-.001-8.6 4.3 4.3 0 0 0 0 8.6Zm141.895 14.694c-.654-.46-1.159-.536-1.578.357-7.222 15.64-19.391 7.836-18.181 8.523 2.699-1.235 9.798-6.929 8.725-14.79-.652-4.805-4.775-6.936-9.152-6.172-7.64 1.331-10.451 9.572-9.02 16.868.25 1.253.698 2.286 1.144 3.298-8.633 7.021-12.062-6.285-12.451-7.875-.015-.085 6.667-5.654 8.525-18.926 1.948-13.91-2.489-16.442-7.027-16.363-8.396.146-10.665 17.689-7.617 32.31-.255.066-1.443.724-3.352.797-1.374-4.322-7.244-8.11-8.78-6.65-3.845 3.652.932 10.792 4.294 11.352-2.02 12.437-14.647 9.357-12.297-6.225 4.113-7.636 7.24-18.99 6.682-25.846-.198-2.427-1.992-5.678-6.05-5.517-7.805.309-8.654 17.856-7.739 30.31-.045-.306-.479 1.513-3.678 2.418-.756-4.2-7.518-8.414-9.11-6.388-2.979 3.793 2.184 10.556 4.63 11.028-2.019 12.437-14.647 9.356-12.296-6.225 4.112-7.636 7.24-18.991 6.681-25.846-.197-2.427-1.991-5.679-6.05-5.518-7.805.31-8.653 17.856-7.738 30.31-.046-.31-.491 1.569-3.82 2.46-.111-5.45-6.897-7.947-8.528-6.209-2.905 3.099.666 9.457 3.969 11.028-2.019 12.437-14.647 9.356-12.296-6.225 4.112-7.636 7.24-18.991 6.681-25.846-.197-2.427-1.991-5.679-6.05-5.518-7.805.31-8.433 18.739-7.517 31.193-2.571 11.014-11.192 24.77-10.073-2.785.111-1.933.232-2.667-.732-3.39-.722-.563-2.364-.293-3.261-.27-1.091.044-1.365.682-1.606 1.647-.562 2.491-.662 4.906-.742 8.201-.053 1.542-.177 2.261-.77 4.363-.594 2.102-3.975 5.943-5.828 5.301-2.569-.884-1.726-8.136-1.245-13.12.402-3.938-.883-5.706-4.174-6.35-1.927-.4-3.098-.339-5.104-.972-1.898-.598-2.328-4.187-6.374-2.991-2.215.655-.791 5.345-1.323 8.822-2.616 17.1-8.059 17.57-10.584 9.263 11.372-27.85 3.29-38.83-1.44-38.83-4.928 0-10.561 3.393-8.176 25.11-1.16-.338-1.516-.52-2.786-.52-7.18 0-12.072 5.804-12.072 12.964s4.892 12.965 12.072 12.965c4.24 0 7.215-1.927 9.469-4.91 1.47 2.107 3.261 4.943 6.536 4.815 9.76-.38 12.6-20.402 12.934-21.518 1.044.16 2.03.465 2.994.625 1.606.242 1.722.877 1.686 2.492-.425 13.617 2.087 18.385 7.787 18.385 3.176 0 6.007-3.12 7.957-5.351 1.456 3.006 3.777 5.259 6.89 5.35 7.544.188 10.433-11.836 10.17-10.254-.207 1.242 2.447 10.187 10.213 10.22 9.621.04 11.409-10.54 11.623-12.312.026-.353.038-.316 0 0l-.008.108c3.054-.569 4.63-2.206 4.63-2.206s2.453 14.574 11.537 14.41c9.433-.171 11.212-9.734 11.446-11.6.031-.442.049-.39 0 0l-.003.055c3.628-1.32 4.582-2.645 4.582-2.645s1.949 14.285 11.537 14.41c8.544.111 11.71-8.638 11.729-12.3 1.441.016 4.106-.854 4.044-.904 0 0 3.129 12.489 11.869 13.13 4.103.301 7.181-2.308 8.936-3.5 4.124 3.34 17.855 7.606 26.525-7.094 1.223-2.11-1.408-4.602-1.869-4.927ZM19.488 50.826c-4.19 0-6.876-3.873-6.876-8.05 0-4.177 2.466-8.05 6.655-8.05 1.886 0 2.934.207 4.402 1.485.267 1.048 1.021 3.469 1.388 4.568.492 1.47 1.077 2.722 1.667 4.084-.843 3.495-3.606 5.963-7.236 5.963Zm10.208-14.493c-.174-.277-.138-.107-.333-.37-.767-2.088-2.247-6.75-2.419-12.047-.193-5.99.805-13.012 3.749-13.012 1.994 0 4.114 14.23-.997 25.43Zm58.986-6.241c-.473-3.556-.498-19.404 3.307-18.968 2.1.851-1.332 15.806-3.307 18.968Zm27.782 0c-.473-3.556-.498-19.404 3.307-18.968 2.101.851-1.332 15.806-3.307 18.968Zm27.561.22c-.473-3.555-.497-19.404 3.307-18.967 2.101.85-1.332 15.806-3.307 18.967Zm30.428-20.116c3.479-.36 3.335 14.83-3.647 24.42-.9-3.466-2.281-23.23 3.647-24.42Zm14.621 32.687c-1.118-5.643 1.769-9.35 4.745-9.757 1.04-.166 2.548.508 2.848 1.768.495 2.374-.071 5.896-6.732 10.364.01.039-.612-1.118-.861-2.375Z"/></svg>