<svg xmlns="http://www.w3.org/2000/svg" fill="none" aria-hidden="true" viewBox="0 0 247 55"><g fill="#0061FF"><path fill-rule="evenodd" d="M21.046 21.718 7.638 13.176l13.503-8.602 13.492 8.596 13.493-8.596 13.502 8.602-13.408 8.542 13.408 8.542-13.503 8.602-13.492-8.596-13.492 8.596L7.638 30.26l13.408-8.542Zm13.587-8.535 13.398 8.535-13.398 8.535-13.398-8.535 13.398-8.535Z" clip-rule="evenodd"/><path d="m34.73 50.315-13.502-8.602L34.73 33.11l13.503 8.602-13.503 8.602Z"/></g><g fill="#000"><path fill-rule="evenodd" d="M179.341 42.572c-3.861 0-6.381-1.87-7.641-4.877l-.487 4.268h-5.284V10.67h5.975V22.7c1.3-3.049 3.901-4.715 7.599-4.715 5.568.04 9.713 3.901 9.713 11.704v.691c0 7.803-3.901 12.192-9.875 12.192Zm-1.951-5.283c3.536 0 5.69-2.276 5.69-6.909v-.569c0-4.308-2.357-6.665-5.609-6.665-3.373 0-5.689 2.723-5.689 6.746v.488c0 4.39 2.235 6.909 5.608 6.909Zm14.504-6.543c0 7.722 4.267 11.826 11.826 11.826 7.071 0 11.867-4.104 11.867-11.826v-.65c0-7.803-4.877-12.111-11.867-12.111-6.828 0-11.826 4.227-11.826 12.11v.65Zm17.516-.081c0 4.267-2.154 6.583-5.69 6.583-3.495 0-5.649-2.357-5.649-6.583v-.57c0-4.551 2.276-6.949 5.69-6.949 3.454 0 5.649 2.56 5.649 6.95v.569Z" clip-rule="evenodd"/><path d="m214.652 41.963 8.9-12.01-8.209-11.347h7.031l4.755 7.08 4.795-7.08h6.991l-8.332 11.307 8.779 12.05h-6.909l-5.405-7.62-5.243 7.62h-7.153Z"/><path fill-rule="evenodd" d="M139.316 18.606v31.298h5.974v-11.72c1.26 2.722 3.739 4.388 7.478 4.388 5.527 0 9.875-4.023 9.875-11.745v-.65c0-7.884-3.901-12.192-9.875-12.192-3.861 0-6.462 1.991-7.722 4.999l-.61-4.378h-5.12Zm17.15 12.1c0 4.307-2.235 6.624-5.73 6.624-3.373 0-5.568-2.601-5.568-6.747v-.447c0-4.348 2.276-6.95 5.69-6.95 3.21 0 5.608 2.317 5.608 6.991v.528Zm-32.157 11.866c-7.559 0-11.867-4.104-11.867-11.826v-.65c0-7.884 5.039-12.111 11.867-12.111 6.99 0 11.826 4.308 11.826 12.11v.65c0 7.723-4.755 11.827-11.826 11.827Zm-.041-5.324c3.495 0 5.69-2.316 5.69-6.583v-.57c0-4.388-2.195-6.949-5.649-6.949-3.414 0-5.69 2.398-5.69 6.95v.569c0 4.226 2.154 6.583 5.649 6.583Z" clip-rule="evenodd"/><path d="M96.267 41.963h6.096v-10.73c0-4.957 1.219-6.705 6.259-6.705h2.519V18.31h-1.503c-4.349 0-6.747 1.91-7.681 5.649l-.772-5.353h-4.918v23.357Z"/><path fill-rule="evenodd" d="M69.19 41.963V13.009h10.943c7.071 0 12.842 4.082 12.842 13.388v1.992c0 9.347-5.446 13.574-12.68 13.574H69.19Zm10.618-23.734h-4.545v18.41h4.748c3.983 0 6.706-2.642 6.706-8.453v-1.504c0-5.812-2.805-8.453-6.91-8.453Z" clip-rule="evenodd"/></g></svg>