<svg xmlns="http://www.w3.org/2000/svg" fill="none" aria-hidden="true" viewBox="0 0 106 128"><path fill="#fff" d="M93.712 46.39a16.026 16.026 0 0 0-10.6-15.105 22.58 22.58 0 0 0 .427-4.375 22.995 22.995 0 0 0-41.646-13.47 12.213 12.213 0 0 0-18.922 13.92 16.233 16.233 0 0 0-10.684 15.17 16.045 16.045 0 0 0 10.648 15.16 23.494 23.494 0 0 0-.42 4.371 22.933 22.933 0 0 0 41.58 13.364 12.193 12.193 0 0 0 18.934-13.861A16.237 16.237 0 0 0 93.712 46.39"/><path fill="#FFD00A" d="m44.301 38.828 17.815 8.124L80.094 31.2a20.096 20.096 0 0 0-36.276-15.31l-2.991 15.514 3.474 7.425Z"/><path fill="#20B9AF" d="M25.858 57.694a20.434 20.434 0 0 0-.402 4.014 20.14 20.14 0 0 0 36.802 11.325l2.962-15.46-3.96-7.567-17.886-8.154-17.516 15.842Z"/><path fill="#EE5096" d="m25.752 26.863 12.208 2.881 2.666-13.881a9.647 9.647 0 0 0-14.874 11"/><path fill="#12A5DF" d="M24.685 29.771a13.467 13.467 0 0 0-.592 25.37l17.13-15.484-3.139-6.72-13.399-3.166Z"/><path fill="#90C640" d="M65.4 73.034a9.628 9.628 0 0 0 14.848-10.98l-12.2-2.855-2.647 13.835Z"/><path fill="#05799F" d="m67.883 56 13.428 3.143a13.592 13.592 0 0 0 9.253-12.792 13.44 13.44 0 0 0-8.684-12.558L64.314 49.194 67.883 56Z"/><path fill="#fff" d="m16.943 120.422 1.144-.119.08 2.328c-2.55.385-5.123.596-7.701.631-2.841-.004-4.854-.826-6.039-2.467-1.185-1.641-1.777-4.201-1.777-7.68 0-6.922 2.75-10.384 8.251-10.384 2.66 0 4.647.745 5.962 2.233 1.315 1.489 1.974 3.825 1.976 7.008l-.16 2.251H5.647c0 2.184.395 3.802 1.185 4.854.79 1.053 2.165 1.58 4.126 1.582 1.964 0 3.96-.079 5.985-.237Zm-1.066-8.569c0-2.422-.388-4.133-1.164-5.132-.776-.999-2.04-1.5-3.79-1.502-1.752 0-3.068.526-3.949 1.579-.88 1.052-1.335 2.737-1.362 5.055h10.265Zm7.091 11.258V97.125h2.961v25.986h-2.961Zm21.609-14.021v9.958c0 .986 2.458.947 2.458.947l-.151 2.616c-2.073 0-3.803.171-4.837-.827a17.228 17.228 0 0 1-7.108 1.481c-1.815 0-3.197-.512-4.146-1.537-.95-1.025-1.424-2.5-1.422-4.425 0-1.919.487-3.334 1.46-4.244.974-.91 2.5-1.469 4.579-1.676l6.199-.593v-1.697c0-1.345-.29-2.305-.868-2.882a3.209 3.209 0 0 0-2.37-.87h-7.78v-2.61h7.6c2.24 0 3.865.514 4.878 1.54 1.013 1.027 1.515 2.633 1.508 4.819Zm-12.161 8.053c0 2.423 1 3.634 3 3.634a15.93 15.93 0 0 0 5.293-.909l.906-.317v-6.516l-5.844.551c-1.184.107-2.04.449-2.565 1.028-.525.578-.788 1.421-.79 2.529Zm23.717-11.764c-2.87 0-4.305 1-4.303 3 0 .922.329 1.574.986 1.955.658.381 2.158.776 4.502 1.185 2.342.407 4 .978 4.976 1.715.975.736 1.462 2.118 1.46 4.146 0 2.028-.651 3.516-1.955 4.464-1.303.947-3.204 1.418-5.704 1.412-1.632 0-7.079-.592-7.079-.592l.157-2.565c3.13.296 5.394.524 6.922.524 1.528 0 2.692-.243 3.495-.728.802-.486 1.202-1.304 1.202-2.45 0-1.146-.34-1.922-1.025-2.328-.684-.405-2.185-.796-4.501-1.167-2.316-.37-3.963-.912-4.932-1.623-.968-.71-1.463-2.025-1.463-3.948 0-1.922.678-3.344 2.035-4.265 1.356-.921 3.045-1.383 5.073-1.383 1.606 0 7.177.409 7.177.409v2.583c-2.935-.134-5.337-.344-7.023-.344Zm21.903.314H71.76v9.436c0 2.265.164 3.753.491 4.464.33.71 1.114 1.066 2.35 1.066l3.515-.237.198 2.446c-1.33.246-2.676.392-4.028.436-2.053 0-3.475-.501-4.265-1.502-.79-1.001-1.184-2.909-1.184-5.725v-10.384h-2.805v-2.577h2.802v-6.042h2.923v6.042h6.276l.003 2.577Zm4.117-5.088v-3.436h2.961v3.436h-2.961Zm0 22.509v-19.998h2.961v19.983l-2.961.015Zm15.789-20.383c1.482.063 2.959.221 4.422.474l.947.119-.118 2.41a46.542 46.542 0 0 0-4.659-.355c-2.239 0-3.76.532-4.561 1.596-.802 1.065-1.204 3.039-1.206 5.924 0 2.883.376 4.89 1.126 6.021.75 1.132 2.31 1.697 4.68 1.697l4.658-.355.119 2.449a40.569 40.569 0 0 1-5.488.545c-3.08 0-5.206-.79-6.377-2.369-1.17-1.58-1.757-4.245-1.76-7.997 0-3.751.633-6.383 1.896-7.896 1.264-1.512 3.37-2.267 6.32-2.263Z"/></svg>