<svg xmlns="http://www.w3.org/2000/svg" fill="none" aria-hidden="true" viewBox="0 0 273 50"><path fill="#000" d="M210.571 28.602v-6.106h16.933v16.791a24.999 24.999 0 0 1-7.758 4.58c-5.397 1.954-10.866 2.244-16.323.382-6.465-2.237-10.655-6.748-12.403-13.312-1.878-7.037-.786-13.624 3.855-19.39 3.545-4.416 8.262-6.801 13.906-7.29 4.198-.381 8.316.107 12.19 1.931a20.379 20.379 0 0 1 3.385 2.027c.618.418 1.199.889 1.736 1.408l-4.442 5.29c-.763-.562-1.485-1.145-2.248-1.65a14.765 14.765 0 0 0-11.109-2.392c-4.58.813-7.766 3.614-9.511 7.858-2.144 5.22-1.736 10.327 1.496 15.017 2.264 3.286 5.595 4.9 9.541 5.19 3.672.267 7.129-.47 10.251-2.515.191-.126.382-.267.584-.42v-7.4h-10.083ZM121.876 9.593l-4.488 5.342c-1.34-1.103-2.672-2.175-4.274-2.835-5.278-2.19-10.4-2.29-14.968 1.622-3.614 3.091-5.03 7.213-4.824 11.88.153 3.614 1.29 6.87 3.866 9.54a12.594 12.594 0 0 0 8.598 3.817 16.37 16.37 0 0 0 9.343-2.084c.458-.263.889-.576 1.305-.847v-7.434h-10.079v-6.083h16.887v16.792a25.253 25.253 0 0 1-10.35 5.343c-5.106 1.251-10.166 1.144-15.036-.94-6.03-2.545-9.781-7.124-11.266-13.475-1.442-6.17-.626-12.044 3.026-17.326 3.939-5.71 9.515-8.53 16.418-8.74 4.13-.129 8.11.531 11.778 2.577a26.325 26.325 0 0 1 4.064 2.85ZM5.165 4.925h23.28v6.228H12.22v8.744h10.846v6.274H12.21v12.296h16.235v6.24H5.165V4.925Zm239.421 0h23.249v6.24h-16.2v8.75h10.872v6.26h-10.868v12.28h16.192v6.252h-23.245V4.925ZM72.37 44.73H48.84V21.252L72.37 44.73ZM66.806 4.929v23.467L43.286 4.929h23.52Zm94.519-.294h-6.312C149.958 18 144.902 31.357 139.847 44.707h7.285c1.082-3.19 2.153-6.356 3.214-9.495h15.532c1.102 3.205 2.195 6.374 3.278 9.506h7.362a27449.043 27449.043 0 0 1-15.193-40.083Zm-8.96 24.215 5.747-15.72 5.751 15.72h-11.498Z"/></svg>