<svg xmlns="http://www.w3.org/2000/svg" fill="none" aria-hidden="true" viewBox="0 0 116 116"><path fill="#fff" d="M58 111.842c29.736 0 53.842-24.106 53.842-53.842 0-29.736-24.106-53.842-53.842-53.842C28.264 4.158 4.158 28.264 4.158 58c0 29.736 24.106 53.842 53.842 53.842Z"/><path fill="#0668B3" fill-rule="evenodd" d="M58 5.417C28.96 5.417 5.417 28.959 5.417 58c0 29.04 23.542 52.583 52.583 52.583 29.04 0 52.583-23.542 52.583-52.583 0-29.04-23.542-52.583-52.583-52.583ZM2.9 58C2.9 27.57 27.569 2.9 58 2.9c30.43 0 55.1 24.67 55.1 55.1S88.43 113.1 58 113.1C27.569 113.1 2.9 88.43 2.9 58Z" clip-rule="evenodd"/><path fill="#0668B3" d="M75.88 46.58c0 3.312-2.251 5.999-5.028 5.999-1.828 0-3.427-1.164-4.308-2.902-.881 1.738-2.48 2.902-4.308 2.902-1.828 0-3.44-1.175-4.322-2.932-.877 1.755-2.484 2.932-4.321 2.932-1.838 0-3.428-1.164-4.308-2.902-.881 1.739-2.48 2.902-4.308 2.902-2.774 0-5.023-2.68-5.03-5.987.008 9.917 8.05 17.954 17.969 17.954s17.967-8.044 17.967-17.967l-.002.001Z"/><path fill="#2DA343" d="M44.98 52.579c1.829 0 3.428-1.164 4.309-2.902.88 1.738 2.48 2.902 4.308 2.902 1.828 0 3.444-1.175 4.322-2.932.877 1.755 2.484 2.932 4.321 2.932 1.837 0 3.423-1.164 4.302-2.902.881 1.739 2.48 2.902 4.308 2.902 2.777 0 5.03-2.684 5.03-5.998H39.946v.014c.007 3.304 2.256 5.984 5.034 5.984Z"/><path fill="#0095D6" d="M57.916 28.61c-9.923 0-17.969 8.045-17.969 17.968h17.968a4.887 4.887 0 1 1 .002-9.773 4.887 4.887 0 0 1-.002 9.773h17.968c0-9.923-8.044-17.968-17.967-17.968Z"/><g fill="#2DA343"><path d="M88.188 80.2a28.581 28.581 0 0 0-31.094 2.575 28.58 28.58 0 0 0 31.094-2.574Z"/><path fill-rule="evenodd" d="M72.255 76.83c5.528-.459 11.07.7 15.953 3.334l-.02.037.025.033a28.622 28.622 0 0 1-31.14 2.579l-.056-.031.051-.04a28.623 28.623 0 0 1 15.187-5.913Zm15.856 3.377a28.54 28.54 0 0 0-30.94 2.562 28.54 28.54 0 0 0 30.94-2.562Z" clip-rule="evenodd"/><path d="M58.74 82.775a28.582 28.582 0 0 0-31.095-2.574 28.582 28.582 0 0 0 31.095 2.575Z"/><path fill-rule="evenodd" d="M27.625 80.164a28.625 28.625 0 0 1 31.14 2.578l-.025.033.02.037a28.625 28.625 0 0 1-31.14-2.578l-.051-.04.056-.03Zm31.038 2.605a28.54 28.54 0 0 0-30.941-2.562 28.541 28.541 0 0 0 30.941 2.562Z" clip-rule="evenodd"/><path fill-rule="evenodd" d="M56.783 87.94V65.86h2.266v22.08h-2.266Z" clip-rule="evenodd"/><path fill-rule="evenodd" d="m27.756 54.93 1.733.239c13.71 1.89 24.73 12.009 27.593 25.108l.374 1.711-1.74-.192C41.803 80.266 30.59 69.96 28.08 56.648l-.325-1.718Zm60.32 0-.325 1.718c-2.51 13.312-13.724 23.617-27.635 25.148l-1.741.192.374-1.711c2.863-13.1 13.884-23.219 27.594-25.108l1.733-.24Zm-33.9 24.108c-11.367-1.96-20.447-10.312-23.224-21.073 11.223 2.227 20.185 10.46 23.224 21.073ZM84.88 57.965C82.103 68.727 73.023 77.078 61.655 79.04c3.04-10.615 12.002-18.847 23.225-21.074Z" clip-rule="evenodd"/></g><path fill="#0668B3" d="M30.086 22.194c.58.652.852 1.298.814 1.938-.037.639-.382 1.25-1.034 1.83-.65.579-1.295.85-1.936.813-.64-.036-1.251-.38-1.832-1.032l-2.569-2.886.987-.879 2.784 3.128c.294.33.602.505.923.524.322.02.65-.118.985-.412.33-.294.504-.601.523-.923.018-.321-.12-.648-.413-.979l-2.784-3.128.986-.879 2.566 2.885Zm3.579.566-.504.327-.503.328-3.48-5.38 1.545-1.006 4.576 2.798-2.627-4.059.504-.328.503-.327 3.482 5.38-.762.492-.763.503-4.63-2.832 2.659 4.104Zm1.668-8.47.587-.299.587-.298 2.892 5.718-.587.298-.587.298-2.892-5.717Zm4.584-1.024-1.816.706-.361-.929 4.866-1.895.18.464.181.464-1.817.708 1.964 5.042-1.231.48-1.966-5.04Zm5.747 3.66-1.538-6.22 4.102-1.015.12.484.12.483-2.816.698.38 1.537 2.64-.655.12.484.12.483-2.648.655.442 1.781 2.9-.718.12.484.12.483-4.181 1.036Zm4.333-7.576 2.53-.265c.947-.1 1.717.105 2.308.613.591.508.94 1.261 1.044 2.26.112 1.04-.106 1.862-.654 2.467-.549.604-1.402.968-2.561 1.09l-1.998.21-.669-6.375Zm1.878 5.244.908-.095c.666-.07 1.151-.309 1.456-.719.305-.409.42-.972.347-1.688-.074-.704-.31-1.227-.707-1.57-.398-.344-.926-.482-1.585-.413l-.88.092.46 4.393Zm12.049-3.598a.903.903 0 0 0-.212-.707c-.163-.181-.404-.29-.722-.324a1.16 1.16 0 0 0-.766.15.713.713 0 0 0-.358.55.594.594 0 0 0 .217.522c.168.149.478.32.938.518l.79.335c.525.224.887.476 1.085.756.198.28.273.638.224 1.077a1.762 1.762 0 0 1-.867 1.362c-.514.322-1.14.442-1.881.36-.855-.094-1.473-.344-1.854-.749-.371-.395-.518-.941-.442-1.639l.007-.058 1.293.142c-.06.371.009.672.204.902.194.23.495.367.9.412a1.49 1.49 0 0 0 .913-.155.758.758 0 0 0 .42-.596.504.504 0 0 0-.169-.44c-.132-.122-.384-.264-.755-.424l-.79-.335c-.614-.266-1.04-.541-1.273-.827-.235-.285-.328-.641-.28-1.069a1.875 1.875 0 0 1 .813-1.394c.477-.336 1.056-.464 1.738-.387.767.085 1.337.318 1.709.7.344.351.487.793.428 1.326l-.019.139-1.291-.147Zm4.504.013-1.894-.464.119-.484.118-.486 5.073 1.244-.119.484-.119.484-1.894-.465-1.289 5.256-.642-.158-.641-.157 1.288-5.254Zm6.063.767 1.573.613-.103 6.834-1.324-.515.067-1.437-2.533-.985-.913 1.108-.653-.252-.658-.251 4.544-5.115Zm-1.646 3.704 1.906.741.14-3.196-2.046 2.454Zm7.071-.188-1.712-.935.479-.873 4.58 2.509-.478.873-1.711-.937-2.6 4.746-.58-.318-.58-.317 2.602-4.748Zm.324 6.392 3.687-5.241 3.456 2.433-.286.406-.286.407-2.376-1.672-.912 1.296 2.232 1.569-.573.814-2.23-1.568-1.057 1.501 2.445 1.72-.288.404-.287.408-3.525-2.477Zm9.731 1.834a.905.905 0 0 0 .247-.697c-.025-.242-.156-.471-.392-.688a1.17 1.17 0 0 0-.707-.33.713.713 0 0 0-.612.23.592.592 0 0 0-.132.547c.046.22.196.543.451.973l.437.739c.292.493.436.91.431 1.25-.004.342-.156.676-.454 1.002a1.761 1.761 0 0 1-1.505.587c-.605-.044-1.181-.317-1.73-.82-.636-.581-.987-1.148-1.055-1.7-.066-.538.138-1.066.61-1.582l.041-.044.959.877c-.267.266-.39.549-.368.85.022.3.184.588.485.864.224.222.514.367.827.413a.763.763 0 0 0 .693-.233.497.497 0 0 0 .12-.455c-.034-.179-.152-.441-.356-.787l-.438-.738c-.34-.579-.52-1.052-.541-1.42-.02-.367.115-.71.405-1.028a1.875 1.875 0 0 1 1.48-.645c.581.012 1.125.25 1.631.714.57.52.892 1.045.967 1.573.07.488-.075.928-.437 1.323l-.098.1-.959-.875ZM14.263 35.93l5.812 2.697-1.773 3.835-.905-.42 1.223-2.634-1.437-.666-1.147 2.471-.904-.42 1.148-2.473-1.67-.772-1.258 2.711-.904-.419 1.815-3.91Zm-2.904 6.943.346-1.156 6.14 1.836-.264.883-.264.879-5.296.839 4.632 1.382-.168.578-.173.579-6.143-1.831.259-.87.26-.87 5.361-.85-4.69-1.4Zm4.703 6.793-.188 1.425-5.157 1.082 4.699 2.383-.168 1.297-6.038-3.24.183-1.388 6.669-1.56Zm-.747 6.979-.018.66-.017.661-6.405-.167.017-.661.017-.66 6.406.167Zm-.08 2.896.204 2.567c.06.75-.037 1.337-.29 1.761-.252.425-.646.658-1.183.7-.542.042-.97-.14-1.282-.547a2.285 2.285 0 0 1-.366-.742c-.01.21-.05.418-.119.616-.13.324-.398.525-.805.603-.408.078-.77.157-1.08.235l-.093.026c-.233.064-.42.122-.568.173a2.931 2.931 0 0 0-.404.174l-.11-1.395c.11-.047.225-.084.342-.112.145-.037.357-.086.635-.144l.564-.112c.422-.082.693-.19.814-.323.122-.133.168-.378.14-.736l-.089-1.123-2.593.206-.104-1.317 6.387-.51Zm-2.697 1.54.065.817c.037.472.144.828.32 1.066a.742.742 0 0 0 .698.324.774.774 0 0 0 .647-.384c.138-.234.19-.557.158-.968l-.08-.999-1.808.144Zm-2.226 5.963c.44-.615 1.19-1.045 2.252-1.289 1.062-.243 1.923-.18 2.586.188.664.367 1.103 1.021 1.318 1.963.214.943.102 1.723-.336 2.342-.44.615-1.19 1.044-2.25 1.285-1.061.242-1.923.18-2.587-.185-.664-.365-1.103-1.02-1.318-1.965-.214-.945-.103-1.725.335-2.339Zm1.488 3.194c.447.187 1.044.196 1.79.028.745-.169 1.278-.435 1.6-.799.325-.364.427-.811.306-1.342-.12-.532-.406-.89-.855-1.074-.45-.188-1.047-.198-1.789-.03-.741.169-1.274.437-1.598.804-.323.365-.425.813-.305 1.343s.404.886.85 1.07Zm-.056 4.838-.444-1.121 5.957-2.357.671 1.713-3.642 3.937 4.496-1.78.443 1.123-5.956 2.356-.671-1.688 3.69-3.983-4.544 1.8Zm3.05 6.865-.314-.515-.313-.516 5.477-3.33 1.14 1.872-3.657 3.79 5.034-1.516 1.14 1.873-5.47 3.329-.315-.516-.313-.515 5.062-3.08-5.903 1.697-.727-1.194 4.186-4.44-5.027 3.06Zm4.48 6.784 4.88-4.146 2.739 3.218-.38.323-.38.323-1.881-2.213-1.207 1.026 1.767 2.077-.758.646-1.767-2.077-1.399 1.19 1.937 2.275-.379.323-.38.323-2.793-3.288Zm4.97 5.433-.45-.401-.451-.4 4.258-4.79 1.377 1.226-1.479 5.154 3.213-3.612.901.8-4.258 4.79-1.356-1.207 1.497-5.217-3.252 3.657Zm9.23.478-1.63-1.072.274-.42.274-.42 4.363 2.87-.547.84-1.63-1.072-2.975 4.52-1.103-.726 2.974-4.52Zm5.233 1.94.755.366.763.367-.64 6.806-1.28-.617.18-1.426-2.448-1.182-.996 1.033-.632-.304-.635-.307 4.933-4.736Zm-1.93 3.563 1.846.888.39-3.175-2.236 2.287Zm4.496 4.546 1.96-6.1 1.257.404-1.654 5.152 2.546.817-.152.475-.153.474-3.804-1.222Zm9.638-4.05.656.078 1.784.21c.703.083 1.22.316 1.553.7.333.384.462.894.388 1.53-.076.645-.334 1.11-.774 1.395-.44.286-1.05.382-1.829.289l-.93-.11-.287 2.426-.656-.077-.656-.078.751-6.363Zm.964 3.104.72.084c.416.048.745.002.988-.14a.866.866 0 0 0 .42-.683c.037-.315-.032-.569-.207-.763-.176-.193-.444-.311-.805-.353l-.884-.107-.232 1.962Zm4.709-2.526 2.574-.052c.752-.015 1.332.117 1.739.394.406.277.615.685.627 1.223.01.544-.196.96-.621 1.248-.233.152-.49.26-.762.32.209.022.414.075.607.156.316.148.5.428.554.839.054.411.111.775.172 1.091l.02.095c.05.235.096.427.139.576.039.141.089.28.149.414l-.7.013-.7.014a2.162 2.162 0 0 1-.09-.348 16.116 16.116 0 0 1-.107-.642l-.078-.57c-.056-.426-.147-.704-.274-.832-.127-.129-.369-.19-.726-.184l-1.126.023.052 2.6-.662.013-.66.013-.127-6.404Zm1.376 2.783.82-.016c.474-.009.835-.093 1.084-.252a.744.744 0 0 0 .365-.679.776.776 0 0 0-.346-.671c-.224-.152-.543-.224-.957-.216l-1 .02.034 1.814Zm6.415 2.505c-.596-.469-.987-1.239-1.174-2.312-.188-1.072-.084-1.93.312-2.574.397-.645 1.072-1.052 2.023-1.221.952-.17 1.726-.019 2.323.45.594.47.986 1.24 1.175 2.311.189 1.07.085 1.929-.31 2.575-.398.645-1.073 1.052-2.027 1.22-.953.169-1.727.019-2.322-.449Zm3.262-1.333c.21-.44.247-1.035.113-1.786-.133-.75-.374-1.296-.72-1.637-.348-.342-.789-.466-1.323-.37-.535.095-.906.362-1.114.802-.21.441-.249 1.036-.115 1.786.133.749.373 1.295.722 1.637.349.341.79.464 1.321.37.532-.095.904-.362 1.116-.802Zm3.495-4.985-1.852.611-.312-.945 4.957-1.635.312.946-1.852.611 1.696 5.139-1.255.414-1.694-5.141Zm6.685 3.304-2.816-5.754 3.795-1.859.438.895-2.61 1.277.697 1.427 2.45-1.2.437.896-2.449 1.199.807 1.648 2.685-1.314.438.895-3.872 1.89Zm8.568-7.415c.375.512.47 1.09.28 1.732-.188.643-.607 1.18-1.258 1.613-.783.52-1.535.681-2.257.481-.721-.2-1.383-.753-1.984-1.66-.601-.906-.848-1.734-.741-2.486.106-.752.563-1.395 1.369-1.93.623-.414 1.254-.582 1.892-.503.61.074 1.072.35 1.386.83l.053.083-1.083.72c-.235-.294-.508-.462-.82-.504-.31-.042-.627.044-.95.258-.427.284-.643.666-.648 1.147-.004.48.204 1.037.625 1.672.422.634.857 1.04 1.306 1.218.448.178.891.122 1.328-.168.336-.224.54-.491.613-.802.073-.311.01-.636-.192-.976l1.08-.725Zm.055-4.362-1.464 1.288-.329-.373-.329-.374 3.92-3.452.658.749-1.463 1.287 3.575 4.061-.992.873-3.576-4.06Zm2.448-3.68.45-.482.45-.484 4.689 4.368-.9.966-4.689-4.367Zm6.781.976c-.754.069-1.568-.221-2.443-.87-.876-.648-1.39-1.342-1.543-2.084-.155-.742.056-1.501.63-2.278.576-.777 1.241-1.2 1.997-1.27.755-.066 1.569.225 2.443.871.873.647 1.388 1.341 1.544 2.084.155.74-.056 1.5-.632 2.279-.577.779-1.242 1.201-1.996 1.268Zm1.454-3.21c-.15-.463-.532-.922-1.145-1.376-.612-.454-1.162-.686-1.648-.694-.487-.01-.892.204-1.216.641-.324.437-.41.886-.258 1.348.15.465.532.923 1.144 1.376.612.453 1.162.684 1.65.693.487.008.892-.205 1.214-.64.322-.434.409-.883.26-1.348Zm3.881-3.413-.555 1.07-5.688-2.951.849-1.635 5.36.168-4.291-2.227.555-1.07 5.688 2.95-.839 1.613-5.422-.17 4.343 2.252Zm-1.813-12.285.427-1.634 6.802-.685-.359 1.375-1.436.099-.687 2.63 1.206.779-.177.674-.178.683-5.597-3.921Zm3.869 1.207.517-1.978-3.188.23 2.671 1.748Zm3.992-7.61c-.128 1.097-.505 1.898-1.133 2.404-.627.505-1.481.695-2.562.57-1.014-.118-1.786-.497-2.316-1.134-.531-.638-.74-1.44-.627-2.409.097-.834.353-1.444.769-1.831.416-.387.98-.54 1.692-.457l-.15 1.291c-.413-.04-.723.028-.934.207-.21.178-.339.486-.389.918-.069.592.08 1.072.445 1.44.365.37.918.597 1.66.683.757.087 1.351-.012 1.783-.297.432-.285.683-.746.755-1.382.038-.368.031-.74-.022-1.106l-1.4-.162-.142 1.22-.99-.115.295-2.534 3.179.37c.146.765.176 1.55.087 2.325Zm.185-4.49-6.405.157-.104-4.225.498-.012.498-.012.071 2.904 1.583-.039-.066-2.726.497-.011.498-.013.067 2.726 1.835-.045-.073-2.988.498-.012.497-.012.106 4.309Zm-.479-7.598.102.595.1.594-6.316 1.076-.309-1.816 4.375-3.1-4.765.812-.203-1.189 6.316-1.083.305 1.79-4.43 3.136 4.825-.815Zm-4.871-10.506c.594-.224 1.175-.16 1.743.19.569.352.975.901 1.219 1.648.292.895.245 1.662-.14 2.303-.384.64-1.094 1.13-2.128 1.468-1.034.336-1.898.353-2.594.052-.696-.3-1.194-.913-1.494-1.835-.233-.712-.225-1.365.02-1.959.234-.567.623-.938 1.17-1.114l.09-.03.404 1.236c-.345.149-.581.367-.705.656-.123.288-.125.616-.005.983.16.489.47.8.932.932.462.133 1.055.08 1.778-.157.725-.236 1.232-.547 1.523-.932.291-.385.355-.826.191-1.325-.124-.382-.328-.65-.609-.805-.281-.154-.611-.18-.991-.075l-.404-1.236Zm-1.662-2.75-2.525 3.79-.705-1.426 1.906-2.574-3.183-.02-.308-.624-.308-.623 4.542.29 2.21-1.09.585 1.184-2.214 1.093Zm-5.916-5.671a1.846 1.846 0 1 0 0-3.691 1.846 1.846 0 0 0 0 3.691Zm-73.326.336a1.846 1.846 0 1 0 0-3.692 1.846 1.846 0 0 0 0 3.692Z"/></svg>