<svg xmlns="http://www.w3.org/2000/svg" fill="none" aria-hidden="true" viewBox="0 0 154 105"><g clip-path="url(#a)"><path fill="#3C3C3B" d="M13.825 97.459a.62.62 0 0 1-.62.612H1.261c.298 2.95 2.52 5.642 5.642 5.642 2.135 0 3.72-.816 4.913-2.519.173-.236.432-.385.761-.243.18.078.306.243.338.431a.603.603 0 0 1-.079.416c-1.2 2.095-3.594 3.123-5.94 3.123-4.018 0-6.883-3.594-6.883-7.439s2.865-7.44 6.883-7.44c4.018-.007 6.921 3.58 6.929 7.416Zm-1.28-.581c-.258-2.95-2.518-5.643-5.642-5.643-3.123 0-5.344 2.692-5.642 5.643h11.285Zm15.774-6.545c.346 0 .597.298.597.596a.582.582 0 0 1-.597.597h-3.201v12.564a.611.611 0 0 1-.597.596.606.606 0 0 1-.596-.596V91.526h-3.076a.582.582 0 0 1-.597-.597c0-.298.259-.596.597-.596h3.076v-4.599c0-.29.196-.557.478-.604.4-.063.715.212.715.589v4.614h3.201Zm19.533 6.074v7.612a.606.606 0 0 1-.597.596.582.582 0 0 1-.596-.596v-7.612c0-2.566-1.452-5.132-4.316-5.132-3.673 0-5.258 3.21-5.046 6.497 0 .087.04.471.04.51v5.713c0 .291-.197.558-.48.605-.4.063-.714-.212-.714-.589V79.009c0-.298.26-.596.597-.596.345 0 .596.298.596.596v14.15c1.028-1.837 2.864-3.077 4.999-3.077 3.508 0 5.517 3.076 5.517 6.325Zm21.416 1.052a.62.62 0 0 1-.62.612H56.696c.298 2.95 2.52 5.642 5.642 5.642 2.135 0 3.72-.816 4.913-2.519.173-.236.432-.385.761-.243.18.078.306.243.338.431a.603.603 0 0 1-.079.416c-1.2 2.095-3.594 3.123-5.94 3.123-4.018 0-6.883-3.594-6.883-7.439s2.865-7.44 6.883-7.44c4.025-.007 6.929 3.58 6.937 7.416Zm-1.287-.581c-.26-2.95-2.52-5.643-5.643-5.643-3.123 0-5.344 2.692-5.642 5.643h11.285Zm15.946-5.988c0 .385-.212.597-.557.644-3.508.51-5.085 3.374-5.085 6.71v5.712c0 .291-.197.557-.48.604-.4.063-.713-.211-.713-.588v-13.02c0-.29.196-.556.478-.603.4-.063.715.212.715.588v2.653c.98-1.664 2.95-3.25 4.999-3.25.298-.007.643.213.643.55Zm19.619 6.569a.62.62 0 0 1-.62.612H90.982c.298 2.95 2.519 5.642 5.642 5.642 2.135 0 3.72-.816 4.913-2.519.173-.236.431-.385.761-.243a.575.575 0 0 1 .338.431c.031.196-.024.306-.079.416-1.201 2.095-3.594 3.123-5.94 3.123-4.019 0-6.883-3.594-6.883-7.439s2.865-7.44 6.883-7.44c4.017-.007 6.921 3.58 6.929 7.416Zm-1.279-.581c-.259-2.95-2.52-5.643-5.643-5.643-3.123 0-5.344 2.692-5.642 5.643h11.285Zm20.56-5.839v13.051a.606.606 0 0 1-.596.596.582.582 0 0 1-.597-.596v-2.48c-.981 1.97-2.738 3.374-4.959 3.374-3.547 0-5.517-3.076-5.517-6.325v-7.651c0-.298.259-.597.596-.597.346 0 .597.299.597.597v7.651c0 2.566 1.452 5.132 4.316 5.132 4.018 0 4.96-3.759 4.96-7.91v-4.873c0-.345.345-.699.769-.573a.64.64 0 0 1 .431.604Zm30.213 5.32v7.652a.607.607 0 0 1-.596.597.583.583 0 0 1-.597-.597V96.36c0-2.566-1.451-5.085-4.316-5.085-3.594 0-4.959 3.845-4.959 6.835v5.901a.608.608 0 0 1-.597.597.582.582 0 0 1-.596-.597V96.36c0-2.566-1.452-5.085-4.316-5.085-3.634 0-5.133 2.864-4.999 6.67 0 .086.039.259 0 .298v5.752c0 .291-.196.558-.487.605-.4.063-.714-.212-.714-.589V90.953c0-.29.196-.557.479-.604.4-.063.714.212.714.588v2.182c1.028-1.837 2.864-3.037 4.999-3.037 2.433 0 4.316 1.538 5.085 3.806.981-2.221 2.904-3.806 5.383-3.806 3.508 0 5.517 3.029 5.517 6.278"/><path fill="#010101" d="m76.534 24.045-19.964 9.08 19.964 11.794 19.957-11.795-19.957-9.08Z" opacity=".6"/><path fill="#010101" d="M56.57 33.124 76.535 44.92V0L56.57 33.124Z" opacity=".45"/><path fill="#010101" d="M76.534 0v44.92l19.957-11.796L76.534 0Z" opacity=".8"/><path fill="#010101" d="m56.57 36.907 19.965 28.126V48.702L56.57 36.907Z" opacity=".45"/><path fill="#010101" d="M76.534 48.702v16.33l19.972-28.125-19.972 11.795Z" opacity=".8"/></g><defs><clipPath id="a"><path fill="#fff" d="M0 0h153.061v105H0z"/></clipPath></defs></svg>