<svg xmlns="http://www.w3.org/2000/svg" fill="none" aria-hidden="true" viewBox="0 0 184 74"><path fill="#406EB3" d="M32.227 21.842h-6.393a3.43 3.43 0 0 1-3.461-3.46v-6.394a3.467 3.467 0 0 1 3.46-3.461h6.394a3.467 3.467 0 0 1 3.461 3.46v6.394a3.43 3.43 0 0 1-3.46 3.461Z"/><path fill="#632678" d="M15.628 36.213H8.47a3.868 3.868 0 0 1-3.87-3.871v-7.215c0-2.112 1.759-3.871 3.87-3.871h7.215c2.17 0 3.872 1.76 3.872 3.871v7.215c0 2.17-1.76 3.871-3.93 3.871Z"/><path fill="#982881" d="M14.983 51.171h-4.399a2.353 2.353 0 0 1-2.346-2.346v-4.4a2.353 2.353 0 0 1 2.346-2.346h4.4a2.353 2.353 0 0 1 2.346 2.346v4.4a2.353 2.353 0 0 1-2.347 2.346Z"/><path fill="#BA2F7D" d="M26.771 65.073h-5.22a2.816 2.816 0 0 1-2.816-2.815v-5.221a2.816 2.816 0 0 1 2.816-2.816h5.22a2.816 2.816 0 0 1 2.816 2.816v5.22a2.78 2.78 0 0 1-2.816 2.816Zm19.065-40.591h-3.578a1.953 1.953 0 0 1-1.936-1.936v-3.578c0-1.056.88-1.936 1.936-1.936h3.578c1.056 0 1.936.88 1.936 1.936v3.578c.059 1.056-.821 1.936-1.936 1.936Z"/><g fill="#26478D"><path d="M126.843 24.834a2.04 2.04 0 0 1-2.053 2.053c-1.173 0-2.112-.939-2.112-2.053 0-1.115.939-2.053 2.112-2.053a2.04 2.04 0 0 1 2.053 2.053Z"/><path fill-rule="evenodd" d="M66.131 31.873a10.35 10.35 0 0 1 6.922-2.64c5.807 0 10.382 4.634 10.382 10.382 0 5.69-4.634 10.324-10.382 10.324a10.35 10.35 0 0 1-6.922-2.64v8.858c0 .88-.821 1.642-1.701 1.642-.821 0-1.701-.762-1.701-1.642V31.052c0-.88.821-1.643 1.701-1.643.938 0 1.701.763 1.701 1.643v.82Zm6.863.82c-3.871 0-6.922 3.051-6.922 6.922 0 3.872 3.05 6.922 6.922 6.922 3.871 0 6.922-3.05 6.922-6.922.058-3.87-2.992-6.921-6.922-6.921Z" clip-rule="evenodd"/><path d="M48.946 49.06c-.293.469-.82.703-1.407.703-.294 0-.704-.058-.939-.234-.47-.294-.763-.88-.763-1.467 0-.293.06-.586.235-.821l4.81-7.567-4.81-7.567c-.176-.234-.235-.586-.235-.82 0-.587.294-1.174.822-1.467.293-.176.586-.235.88-.235.586 0 1.114.235 1.466.704l3.93 6.218 3.989-6.218c.293-.47.88-.704 1.466-.704.293 0 .587.059.88.235.528.293.821.88.821 1.466 0 .293-.058.587-.234.821l-4.81 7.567 4.81 7.567c.176.235.234.528.234.821 0 .587-.293 1.232-.762 1.467-.294.176-.646.234-.939.234a1.672 1.672 0 0 1-1.408-.704L52.994 42.9l-4.048 6.16Zm63.878-11.321V48.12c0 .88-.821 1.642-1.701 1.642-.939 0-1.701-.762-1.701-1.642V31.05c0-.88.821-1.642 1.701-1.642.821 0 1.642.704 1.701 1.584a8.645 8.645 0 0 1 5.162-1.701c1.056 0 1.877.821 1.877 1.7 0 .94-.821 1.76-1.877 1.76-2.64.06-5.162.998-5.162 4.987Zm11.967-8.329c-.939 0-1.701.762-1.701 1.642V48.18c0 .88.821 1.642 1.701 1.642.821 0 1.701-.763 1.701-1.642V31.052c0-.88-.821-1.643-1.701-1.643Z"/><path fill-rule="evenodd" d="M146.609 31.052c0-.88.822-1.643 1.702-1.643.821 0 1.701.763 1.701 1.643V48.18c0 .88-.822 1.642-1.701 1.642-.939 0-1.702-.763-1.702-1.642v-.822c-1.877 1.643-4.282 2.64-6.921 2.64-5.807 0-10.383-4.634-10.383-10.382 0-5.69 4.634-10.324 10.383-10.324 2.639 0 5.044.997 6.921 2.64v-.88Zm-6.921 15.485c3.871 0 6.921-3.05 6.921-6.921 0-3.872-3.05-6.922-6.921-6.922-3.872 0-6.922 3.05-6.922 6.922 0 3.871 3.05 6.921 6.922 6.921Z" clip-rule="evenodd"/><path d="M167.435 37.973c0-2.874-2.464-5.338-5.338-5.338-2.757 0-5.338 1.115-5.338 5.162V48.18c0 .88-.821 1.642-1.701 1.642-.939 0-1.701-.763-1.701-1.642V31.052c0-.88.821-1.643 1.701-1.643.821 0 1.642.704 1.701 1.584 1.466-1.115 3.285-1.701 5.279-1.701 4.634 0 8.799 3.637 8.799 8.212V48.18c0 .88-.822 1.642-1.701 1.642-.939 0-1.701-.763-1.701-1.642V37.973Z"/><path fill-rule="evenodd" d="M44.84 39.029c-.06-5.28-4.752-9.737-10.325-9.737-5.807 0-10.382 4.634-10.382 10.324 0 5.807 4.634 10.382 10.383 10.382 2.756 0 5.337-1.056 7.214-2.933.352-.293.587-.821.587-1.29 0-.939-.821-1.701-1.701-1.701-.528 0-.997.293-1.35.704-1.172 1.231-2.873 1.818-4.692 1.818-3.46 0-6.276-2.346-6.863-5.631h15.662c.059 0 .117 0 .176-.06.704-.292 1.29-.996 1.29-1.876Zm-10.325-6.335a6.83 6.83 0 0 1 6.57 4.81H27.887c.88-2.816 3.46-4.81 6.629-4.81Zm72.032 6.335c-.059-5.28-4.81-9.737-10.324-9.737-5.807 0-10.382 4.634-10.382 10.324 0 5.807 4.634 10.382 10.382 10.382 2.757 0 5.338-1.056 7.215-2.933.352-.293.586-.821.586-1.29 0-.939-.821-1.701-1.701-1.701-.528 0-.997.293-1.349.704-1.173 1.231-2.874 1.818-4.692 1.818-3.461 0-6.277-2.346-6.863-5.631h15.779c.703-.294 1.349-1.056 1.349-1.936Zm-10.324-6.335a6.83 6.83 0 0 1 6.57 4.81H89.595c.88-2.816 3.46-4.81 6.628-4.81Z" clip-rule="evenodd"/><path d="M174.472 49.822c-.176 0-.293-.117-.293-.293v-2.875h-.645c-.176 0-.294-.117-.294-.293s.118-.293.294-.293h1.877c.176 0 .293.117.293.293s-.117.294-.293.294h-.646v2.874c0 .176-.117.293-.293.293Zm3.344 0c-.175 0-.234-.117-.293-.235l-.821-2.346v2.288c0 .176-.117.293-.293.293s-.294-.117-.294-.293v-3.05c0-.235.176-.411.411-.411.176 0 .352.117.411.293l.821 2.405.821-2.405a.442.442 0 0 1 .411-.293.4.4 0 0 1 .41.41v3.05c0 .177-.117.294-.293.294s-.293-.117-.293-.293V47.24c-.036.107-.077.235-.122.375a21.64 21.64 0 0 1-.348 1.033c-.293.938-.352.938-.352.938.059.176-.058.235-.176.235Z"/></g></svg>