<svg xmlns="http://www.w3.org/2000/svg" fill="none" aria-hidden="true" viewBox="0 0 304 45"><g fill="#1877F2"><path d="m31.493 20.801-9.246 5.474c-.85.504-1.93-.104-1.93-1.085V14.241c0-.981 1.08-1.59 1.93-1.085l9.246 5.474a1.26 1.26 0 0 1 0 2.171Z"/><path fill-rule="evenodd" d="M40.118 35.725h-29.49a5.483 5.483 0 0 1-5.477-5.477V9.184a5.483 5.483 0 0 1 5.477-5.477h29.49a5.482 5.482 0 0 1 5.476 5.477v21.064a5.483 5.483 0 0 1-5.476 5.477Zm-29.49-29.49a2.953 2.953 0 0 0-2.95 2.95v21.064a2.953 2.953 0 0 0 2.95 2.949h29.49a2.952 2.952 0 0 0 2.948-2.95V9.185a2.952 2.952 0 0 0-2.949-2.95h-29.49v.002Z" clip-rule="evenodd"/><path d="M17.484 40.78h15.778a.957.957 0 0 0 .959-.958v-.611a.958.958 0 0 0-.958-.959H17.484a.958.958 0 0 0-.958.959v.611a.959.959 0 0 0 .958.959Zm37.608-9.904h3.115v-9.06h10.427v-2.702H58.207v-7.788h12.016V8.625h-15.13v22.25Z"/><path fill-rule="evenodd" d="M85.035 30.876h2.893V14.98h-2.893l-.063 2.4c-.647-.847-1.489-1.523-2.527-2.026-1.039-.503-2.167-.755-3.386-.755-1.473 0-2.789.36-3.95 1.08-1.16.721-2.073 1.71-2.741 2.965-.667 1.256-1.001 2.684-1.001 4.283 0 1.6.334 3.028 1.001 4.284.668 1.256 1.582 2.244 2.742 2.964 1.16.72 2.476 1.081 3.95 1.081 1.218 0 2.346-.252 3.385-.755 1.038-.503 1.88-1.178 2.527-2.026l.063 2.4Zm-2.606-2.988c-.794.487-1.706.73-2.734.73s-1.94-.243-2.734-.73a5.104 5.104 0 0 1-1.867-2.01c-.45-.854-.675-1.837-.675-2.95 0-1.112.225-2.095.675-2.948a5.101 5.101 0 0 1 1.867-2.01c.795-.487 1.706-.732 2.734-.732s1.94.244 2.734.732a5.109 5.109 0 0 1 1.867 2.01c.45.853.676 1.836.676 2.949 0 1.112-.225 2.095-.676 2.948a5.1 5.1 0 0 1-1.867 2.01Z" clip-rule="evenodd"/><path d="m105.156 29.095-1.398-2.256a7.888 7.888 0 0 1-2.217 1.264 6.954 6.954 0 0 1-2.44.452c-1.579 0-2.855-.519-3.83-1.557-.975-1.039-1.463-2.395-1.463-4.07 0-1.673.488-3.03 1.463-4.068.975-1.038 2.251-1.557 3.83-1.557a7.08 7.08 0 0 1 2.265.381 7.355 7.355 0 0 1 2.042 1.05l1.399-2.258a10.054 10.054 0 0 0-2.638-1.367 9.525 9.525 0 0 0-3.147-.508c-1.654 0-3.105.355-4.355 1.064a7.571 7.571 0 0 0-2.925 2.94c-.7 1.251-1.049 2.692-1.049 4.324 0 1.632.35 3.073 1.05 4.323a7.572 7.572 0 0 0 2.924 2.94c1.25.71 2.702 1.065 4.355 1.065a9.617 9.617 0 0 0 6.134-2.162Z"/><path fill-rule="evenodd" d="m121.67 29.16-1.335-2.258c-.816.552-1.659.975-2.528 1.271a8.242 8.242 0 0 1-2.686.446c-1.536 0-2.789-.39-3.758-1.168-.97-.78-1.571-1.852-1.804-3.219h12.301v-1.78c0-2.448-.665-4.368-1.995-5.762-1.329-1.393-3.144-2.09-5.443-2.09-1.568 0-2.954.353-4.156 1.058a7.432 7.432 0 0 0-2.821 2.932c-.679 1.25-1.017 2.696-1.017 4.339 0 1.674.352 3.136 1.056 4.386a7.353 7.353 0 0 0 2.965 2.909c1.271.689 2.754 1.033 4.45 1.033a12.322 12.322 0 0 0 3.663-.548c1.182-.366 2.218-.882 3.108-1.55Zm-10.609-10.81c.852-.826 1.973-1.24 3.361-1.24 1.346 0 2.418.414 3.219 1.24.8.827 1.2 1.918 1.2 3.274v.16h-9.33c.18-1.463.697-2.607 1.55-3.434Zm13.883 12.526h2.892l.064-2.4c.646.848 1.489 1.523 2.527 2.026 1.038.504 2.167.755 3.385.755 1.473 0 2.79-.36 3.95-1.081 1.16-.72 2.074-1.708 2.742-2.964.667-1.256 1.001-2.684 1.001-4.283 0-1.6-.334-3.028-1.001-4.284-.668-1.255-1.582-2.243-2.742-2.964-1.16-.72-2.477-1.08-3.95-1.08-1.208 0-2.326.246-3.353.738-1.028.493-1.87 1.158-2.527 1.995V6.876l-2.988.318v23.682Zm10.966-2.988c-.794.487-1.706.73-2.734.73-1.027 0-1.939-.243-2.733-.73a5.107 5.107 0 0 1-1.868-2.01c-.45-.854-.675-1.837-.675-2.95 0-1.112.225-2.095.675-2.948a5.101 5.101 0 0 1 1.868-2.01c.794-.487 1.705-.732 2.733-.732s1.939.244 2.734.732a5.1 5.1 0 0 1 1.867 2.01c.45.853.676 1.836.676 2.949 0 1.112-.225 2.095-.676 2.948a5.096 5.096 0 0 1-1.867 2.01Zm11.475 2.304c1.25.71 2.702 1.065 4.355 1.065 1.653 0 3.104-.355 4.355-1.065a7.569 7.569 0 0 0 2.924-2.94c.699-1.25 1.049-2.691 1.049-4.323 0-1.632-.35-3.073-1.049-4.323a7.571 7.571 0 0 0-2.924-2.94c-1.251-.71-2.702-1.066-4.355-1.066-1.653 0-3.105.356-4.355 1.066a7.571 7.571 0 0 0-2.924 2.94c-.7 1.25-1.05 2.691-1.05 4.323 0 1.632.35 3.073 1.05 4.323a7.569 7.569 0 0 0 2.924 2.94Zm7.089-2.304c-.795.487-1.706.73-2.734.73s-1.939-.243-2.734-.73a5.105 5.105 0 0 1-1.867-2.01c-.45-.854-.675-1.837-.675-2.95 0-1.112.225-2.095.675-2.948a5.106 5.106 0 0 1 1.867-2.01c.795-.487 1.706-.732 2.734-.732s1.939.244 2.734.732a5.118 5.118 0 0 1 1.868 2.01c.45.853.675 1.836.675 2.949 0 1.112-.225 2.095-.675 2.948a5.113 5.113 0 0 1-1.868 2.01Zm11.475 2.304c1.25.71 2.701 1.065 4.355 1.065 1.652 0 3.104-.355 4.354-1.065a7.565 7.565 0 0 0 2.925-2.94c.699-1.25 1.048-2.691 1.048-4.323 0-1.632-.349-3.073-1.048-4.323a7.567 7.567 0 0 0-2.925-2.94c-1.25-.71-2.702-1.066-4.354-1.066-1.654 0-3.105.356-4.355 1.066a7.574 7.574 0 0 0-2.925 2.94c-.699 1.25-1.049 2.691-1.049 4.323 0 1.632.35 3.073 1.049 4.323a7.571 7.571 0 0 0 2.925 2.94Zm7.088-2.304c-.794.487-1.706.73-2.733.73-1.028 0-1.94-.243-2.734-.73a5.1 5.1 0 0 1-1.868-2.01c-.45-.854-.675-1.837-.675-2.95 0-1.112.225-2.095.675-2.948a5.101 5.101 0 0 1 1.868-2.01c.794-.487 1.706-.732 2.734-.732 1.027 0 1.939.244 2.733.732a5.11 5.11 0 0 1 1.868 2.01c.45.853.675 1.836.675 2.949 0 1.112-.225 2.095-.675 2.948a5.105 5.105 0 0 1-1.868 2.01Z" clip-rule="evenodd"/><path d="M181.429 30.876h2.988v-7.55l7.803 7.55h4.085l-8.71-8.392 7.597-7.502h-3.671l-7.104 7.025V6.876l-2.988.318v23.682Zm44.469 0h3.274l7.28-22.251h-3.195l-5.689 17.96-5.595-17.261h-3.052l-5.594 17.26-5.69-17.96h-3.322l7.279 22.252h3.274l5.515-16.943 5.515 16.943Z"/><path fill-rule="evenodd" d="M250.183 30.876h2.893V14.98h-2.893l-.064 2.4c-.646-.847-1.489-1.523-2.527-2.026-1.039-.503-2.167-.755-3.385-.755-1.472 0-2.789.36-3.95 1.08-1.159.721-2.074 1.71-2.741 2.965-.667 1.256-1.001 2.684-1.001 4.283 0 1.6.334 3.028 1.001 4.284.667 1.256 1.582 2.244 2.741 2.964 1.161.72 2.477 1.081 3.95 1.081 1.218 0 2.346-.252 3.385-.755 1.039-.503 1.881-1.178 2.527-2.026l.064 2.4Zm-2.606-2.988c-.795.487-1.706.73-2.734.73s-1.939-.243-2.734-.73a5.105 5.105 0 0 1-1.867-2.01c-.451-.854-.676-1.837-.676-2.95 0-1.112.225-2.095.676-2.948a5.106 5.106 0 0 1 1.867-2.01c.795-.487 1.706-.732 2.734-.732s1.939.244 2.734.732a5.1 5.1 0 0 1 1.867 2.01c.451.853.676 1.836.676 2.949 0 1.112-.225 2.095-.676 2.948a5.096 5.096 0 0 1-1.867 2.01Z" clip-rule="evenodd"/><path d="M265.918 30.748v-2.543c-.568.087-1.142.13-1.717.128-1.176 0-2.037-.255-2.583-.763-.545-.508-.818-1.43-.818-2.766v-7.247h4.8l.381-2.575H260.8v-4.8h-2.988v4.8h-2.956v2.575h2.957v7.422c0 2.024.439 3.528 1.318 4.514.88.985 2.294 1.478 4.244 1.478.43 0 .859-.021 1.287-.064.42-.04.839-.093 1.256-.159Zm15.512-1.653-1.399-2.256a7.877 7.877 0 0 1-2.218 1.264 6.946 6.946 0 0 1-2.439.452c-1.579 0-2.856-.519-3.83-1.557-.976-1.039-1.463-2.395-1.463-4.07 0-1.673.488-3.03 1.463-4.068.974-1.038 2.251-1.557 3.83-1.557.753 0 1.507.127 2.265.381a7.369 7.369 0 0 1 2.042 1.05l1.399-2.258a10.054 10.054 0 0 0-2.638-1.367 9.52 9.52 0 0 0-3.147-.508c-1.653 0-3.105.355-4.355 1.064a7.574 7.574 0 0 0-2.925 2.94c-.699 1.251-1.049 2.692-1.049 4.324 0 1.632.35 3.073 1.049 4.323a7.571 7.571 0 0 0 2.925 2.94c1.25.71 2.702 1.065 4.355 1.065a9.616 9.616 0 0 0 6.135-2.162Zm14.431 1.781h2.988v-9.632c0-2.066-.551-3.69-1.653-4.871-1.102-1.182-2.617-1.773-4.546-1.773-1.197 0-2.299.25-3.306.747-1.006.498-1.822 1.16-2.447 1.987V6.876l-2.988.318v23.681h2.988v-8.392c0-1.547.456-2.807 1.367-3.782.911-.975 2.129-1.463 3.655-1.463 1.229 0 2.194.39 2.893 1.169.699.779 1.049 1.852 1.049 3.218v9.25Z"/></g></svg>