<svg xmlns="http://www.w3.org/2000/svg" fill="none" aria-hidden="true" viewBox="0 0 197 69"><path fill="#FF5A00" d="M190.922 53.668c0-2.883-2.045-4.995-4.861-4.995-2.812 0-4.859 2.112-4.859 4.995 0 2.879 2.047 4.986 4.859 4.986 2.816 0 4.861-2.111 4.861-4.986Zm-6.138.256v3.262h-1.054v-7.193h2.619c1.534 0 2.238.67 2.238 1.977 0 .804-.544 1.442-1.244 1.534v.03c.608.098.831.64.957 1.633.096.644.223 1.76.452 2.022h-1.247c-.29-.676-.26-1.633-.484-2.434-.185-.61-.51-.832-1.208-.832h-1.024v.003l-.005-.002Zm1.306-.93c1.024 0 1.316-.545 1.316-1.026 0-.568-.292-1.017-1.316-1.017h-1.306v2.045h1.306v-.002Zm-6.047.674c0-3.552 2.82-5.954 6.013-5.954 3.203 0 6.019 2.402 6.019 5.954 0 3.545-2.815 5.949-6.019 5.949-3.193 0-6.013-2.404-6.013-5.95Zm-20.84 4.912-6.933-7.775-6.871 7.774h-14.46l14.132-15.877-14.132-15.881h14.911l7.003 7.715 6.738-7.715h14.389l-14.061 15.815 14.257 15.943h-14.973Zm-56.029 0V8.55h27.765V19.7h-16.004v7.12h16.004v10.73h-16.004v9.85h16.004v11.18h-27.765Z"/><path fill="#29007C" d="M91.456 8.55v20.474h-.13c-2.593-2.98-5.834-4.018-9.592-4.018-7.7 0-13.502 5.238-15.539 12.16-2.323-7.628-8.312-12.303-17.193-12.303-7.213 0-12.907 3.236-15.881 8.511V26.82H18.213v-7.118h16.27V8.552H4.925v50.027h13.288V37.551H31.46a19.984 19.984 0 0 0-.607 4.947c0 10.43 7.97 17.761 18.148 17.761 8.555 0 14.197-4.02 17.179-11.339H54.79c-1.538 2.203-2.708 2.853-5.788 2.853-3.57 0-6.65-3.116-6.65-6.805h23.19c1.003 8.287 7.46 15.432 16.321 15.432 3.822 0 7.322-1.88 9.461-5.055h.129v3.241h11.716V8.552H91.456V8.55ZM42.72 37.7c.74-3.178 3.205-5.256 6.281-5.256 3.388 0 5.727 2.014 6.341 5.257H42.72Zm41.626 13.266c-4.317 0-7-4.022-7-8.224 0-4.491 2.334-8.806 7-8.806 4.841 0 6.77 4.317 6.77 8.806 0 4.255-2.042 8.224-6.77 8.224Z"/></svg>