<svg xmlns="http://www.w3.org/2000/svg" fill="none" aria-hidden="true" viewBox="0 0 116 116"><path fill="#0081C6" d="M113.1 2.9H2.9v110.2h110.2V2.9Z"/><path fill="#FEFEFE" d="M59.726 18.464a.364.364 0 0 0 .3-.427.364.364 0 0 0-.427-.301.365.365 0 0 0-.3.427c.031.19.221.333.427.301Zm-1.346 9.152a.729.729 0 0 0-.601.855.73.73 0 0 0 .855.602c.411-.08.68-.444.601-.855a.73.73 0 0 0-.855-.602Zm-1.979.792a.73.73 0 0 0-.602.855.73.73 0 0 0 .855.601.729.729 0 0 0 .602-.855c-.08-.396-.46-.68-.855-.601Zm1.631-3.088a.668.668 0 0 0 .538-.744.668.668 0 0 0-.744-.538.668.668 0 0 0-.538.744.636.636 0 0 0 .744.538Zm-.238-7.71a.365.365 0 0 0 .301-.428.365.365 0 0 0-.427-.301.365.365 0 0 0-.301.427.381.381 0 0 0 .427.301Zm1.9 9.515c.064.38.428.65.808.586a.711.711 0 0 0 .586-.808.711.711 0 0 0-.808-.585c-.396.047-.649.411-.586.807Zm2.518-4.037a.425.425 0 0 0-.348.475c.031.221.253.38.475.348a.425.425 0 0 0 .348-.475.402.402 0 0 0-.475-.348Zm-10.054 5.684a.73.73 0 0 0-.602.855c.063.396.443.68.855.601a.73.73 0 0 0 .602-.855.758.758 0 0 0-.855-.601Zm2.122.095a.73.73 0 0 0-.602.855c.063.396.443.68.855.601a.729.729 0 0 0 .601-.855.758.758 0 0 0-.855-.601Zm6.95-8.977a.364.364 0 0 0 .301-.428.365.365 0 0 0-.427-.301.365.365 0 0 0-.301.427.381.381 0 0 0 .427.301Zm-.063 5.588a.521.521 0 1 0 1.03-.174.521.521 0 0 0-.603-.427c-.285.031-.475.3-.427.601Zm.997-3.625a.425.425 0 0 0 .349-.475.425.425 0 0 0-.475-.349.425.425 0 0 0-.349.475c.032.238.254.38.475.349Zm-12.761-1.837a.425.425 0 0 0 .348-.475.425.425 0 0 0-.475-.348.424.424 0 0 0-.348.475c.031.237.253.38.475.348Zm1.837-1.9a.364.364 0 0 0-.428-.3.364.364 0 0 0-.3.427.365.365 0 0 0 .427.3.354.354 0 0 0 .3-.427Zm4.18-.776a.365.365 0 0 0 .3-.427.365.365 0 0 0-.427-.301.365.365 0 0 0-.301.427.381.381 0 0 0 .427.301Zm-1.299 9.548a.523.523 0 0 0 .222 0 .73.73 0 0 0 .601-.855c-.063-.38-.411-.634-.791-.618h-.064a.729.729 0 0 0-.601.855c.047.333.316.57.633.618Zm1.425-1.108c0 .395.317.696.713.696.364 0 .649-.27.696-.618 0-.031.016-.063.016-.095a.71.71 0 0 0-.712-.712.723.723 0 0 0-.713.728Zm-2.581-8.14a.365.365 0 0 0 .301-.427.365.365 0 0 0-.427-.3.364.364 0 0 0-.301.427.381.381 0 0 0 .427.3Z"/><path fill="#fff" fill-rule="evenodd" d="M63.494 56.37c-.031 3.008-.807 7.267-4.813 8.407l6.033-1.045c.427-2.201.617-4.465.443-6.809-.174-2.549-.792-4.686-1.868-7.774-.38-1.076-.871-2.137-1.362-3.166l-.01-.021c-.662-1.403-1.353-2.868-1.7-4.365-.3-1.251-.095-1.647 0-1.758.047-.047.127-.11.348-.095.449.047.928.35 1.393.645l.032.02.067.041c.258.158.493.302.74.418 1.283.602 2.297.681 3.088.222.618-.355.769-1.027.908-1.647l.01-.047c.08-.348.159-.697.301-.95.064-.11.19-.158.412-.206l.031-.009a1.74 1.74 0 0 0 .507-.197c.175-.11.285-.3.317-.522.016-.064.016-.127.016-.19 0-.254-.063-.539-.158-.808.475-.079.95-.221 1.33-.522a.23.23 0 0 0 .11-.206c0-.032 0-.048-.015-.08l-.032-.094a1.18 1.18 0 0 1-.063-.412c0-.222.047-.443.142-.633.158-.333.443-.412.903-.523.364-.079.775-.174 1.076-.506.159-.175.222-.396.222-.65 0-.68-.46-1.567-.792-2.137l-.174-.285c-.46-.76-.887-1.473-1.235-2.264a1.673 1.673 0 0 1-.127-.634c0-.221.064-.427.19-.554.57-.538.855-1.25.855-2.106v-.19l-.158-1.377a8.124 8.124 0 0 0-.063-.618 4.784 4.784 0 0 0-.095-.728.121.121 0 0 0-.032-.08c-1.03-4.75-5.652-7.662-12.825-7.932-6.365-.237-12.572 3.357-13.332 7.695 0 .008-.003.02-.008.032-.003.012-.007.024-.007.032v.031c-.016.016-.016.032-.016.048v.063c-.016.016-.016.032-.016.048v.063c-.016.016-.016.032-.016.048v.063c-.016.016-.016.032-.016.047v.032c-.016.016-.016.032-.016.048v.047c-.015.016-.015.032-.015.048v.063c-.016.016-.016.032-.016.047v.048c-.016.016-.016.032-.016.047-.016.032-.016.048-.016.08a.11.11 0 0 1-.008.031.121.121 0 0 0-.008.032.59.59 0 0 1-.008.08.574.574 0 0 0-.008.078c-.015.016-.015.016-.015.032-.254 1.377.142 2.77 1.14 4.006 1.076 1.346 2.723 2.375 4.702 2.992l.007.002c.19.034 1.072.195 1.276-.524.158-.57-.222-.855-.475-.982-2.043-.586-3.753-1.6-4.83-2.945a1.563 1.563 0 0 1-.142-.174c-.776-1.077-1.077-2.233-.887-3.388.317-1.885 1.853-3.785 4.228-5.178 2.501-1.472 5.541-2.217 8.566-2.106 3.689.143 6.792 1.03 8.961 2.55 1.869 1.33 3.009 3.071 3.389 5.209.027.166.055.417.083.668l.005.05.007.057c.015.19.015.38.015.555 0 .19 0 .364-.015.506-.032.333-.238.824-.428 1.124a2.338 2.338 0 0 1-.214.268l-.07.08-.005.006c-.142.157-.298.33-.392.596a2.13 2.13 0 0 0-.079.555c0 .95.57 2.074.855 2.58l.048.08c.443.791.839 1.472 1.314 2.232.031.048.079.158.11.253 0 .024.004.044.008.064.005.02.008.04.008.063a.57.57 0 0 1-.095.317c-.095.158-.395.206-.633.237l-.142.032a1.82 1.82 0 0 0-1.235.823 1.5 1.5 0 0 0-.206.808c0 .237.047.443.079.57-.19.126-.823.285-1.425.364a.225.225 0 0 0-.095.032.257.257 0 0 0-.067.063l-.028.032c0 .007-.004.011-.008.015s-.008.008-.008.016a1.09 1.09 0 0 1-.01.028.272.272 0 0 0-.022.099v.032c.01.009.013.012.015.017l.001.014v.032s.127.317.206.538l.018.052c.081.23.112.317.156.376 0 0 .016.016.032.047-.032.143-.253.238-.3.254-.745.253-.967.443-1.22 1.266l-.11.38c-.254.919-.428 1.394-1.268 1.504-1.061.14-2.307-.611-3.222-1.164l-.04-.023-.063-.048c-.791-.49-1.282-.395-1.551-.237-.238.158-.507.475-.507 1.22v.205c.076 1.212.529 2.38.97 3.52l.06.153.205.539c.222.57.475 1.14.728 1.694l.077.172.001.002c.308.688.622 1.388.84 2.074a24.8 24.8 0 0 1 .84 3.436c.19 1.045.317 2.122.38 3.23a14.125 14.125 0 0 0-.174-1.504l.19 1.852c.016.412.031.824.031 1.235ZM51.54 29.626c.064.396.46.665.855.601a.729.729 0 0 0 .602-.855c-.063-.395-.46-.665-.855-.601-.396.063-.665.459-.602.855Zm2.122.095c.063.396.46.665.855.601a.718.718 0 0 0 .602-.855c-.064-.395-.46-.665-.855-.601-.396.063-.665.459-.602.855Zm8.677-5.827a.413.413 0 0 0 .348-.475.425.425 0 0 0-.475-.348.413.413 0 0 0-.348.475c.031.237.253.38.475.348Zm.174-2.517a.413.413 0 0 0-.475-.349.421.421 0 0 0-.349.475c.032.238.254.38.475.349a.413.413 0 0 0 .349-.475Zm-.729 4.528a.521.521 0 0 0 .428-.602.506.506 0 0 0-.602-.427.521.521 0 1 0 .174 1.029Zm-.237-6.428c-.048-.206-.222-.333-.428-.301a.365.365 0 0 0-.3.427c.047.206.221.333.427.301.206-.047.333-.222.3-.427Zm-1.045 8.217a.7.7 0 0 0 .586-.807.711.711 0 0 0-.808-.586.7.7 0 0 0-.586.807.7.7 0 0 0 .808.586Zm-.475-9.658c-.048-.206-.222-.333-.428-.301a.376.376 0 0 0-.3.427c.047.206.221.333.427.301.206-.047.333-.221.3-.427ZM57.779 28.47c.063.396.459.665.855.602.395-.064.665-.46.601-.855-.063-.396-.459-.665-.855-.602-.396.063-.665.46-.601.855Zm.918-4.988a.521.521 0 1 0-.174-1.029.521.521 0 1 0 .174 1.03Zm-.68-1.868a.413.413 0 0 0 .347-.475.434.434 0 0 0-.475-.348.413.413 0 0 0-.348.475c.032.237.253.38.475.348Zm.094-4.433c-.047-.206-.222-.333-.427-.301-.206.047-.333.222-.301.427.047.206.221.333.427.301.206-.047.333-.221.301-.427Zm.443 7.41a.644.644 0 0 0-.744-.539c-.348.048-.586.38-.538.745a.644.644 0 0 0 .744.538.644.644 0 0 0 .538-.744Zm-1.915 5.272c.395-.063.665-.459.601-.855a.73.73 0 0 0-.855-.601c-.396.063-.665.459-.601.855.063.395.459.665.855.601Zm-.016-9.436a.413.413 0 0 0-.475-.349.413.413 0 0 0-.349.475c.032.238.254.38.475.349a.413.413 0 0 0 .349-.475Zm.332 5.351a.71.71 0 0 0-.712-.712c-.38 0-.697.316-.713.728.016.38.317.697.713.697.364 0 .649-.27.696-.618.016-.031.016-.063.016-.095Zm-1.219-8.85c-.047-.206-.222-.333-.427-.301a.364.364 0 0 0-.301.427c.047.206.221.333.427.3.206-.047.333-.22.301-.427Zm-.95 3.514c-.047-.205-.222-.332-.427-.3a.364.364 0 0 0-.301.427c.047.206.221.333.427.3.206-.047.333-.22.301-.427Zm-.633 4.988h-.064a.726.726 0 0 0-.601.87c.047.317.316.555.633.602a.52.52 0 0 0 .222 0c.396-.063.665-.459.601-.855a.744.744 0 0 0-.791-.617Zm-.871-8.202c-.048-.206-.222-.332-.428-.3a.365.365 0 0 0-.3.427c.047.206.221.332.427.3.206-.047.333-.22.3-.427Zm.237 4.307a.342.342 0 0 0-.395-.285.35.35 0 0 0-.285.396c.031.19.205.316.395.285a.342.342 0 0 0 .285-.396Zm-.791 4.148c-.064-.396-.46-.665-.855-.601-.396.079-.681.459-.602.855.063.395.46.665.855.601.396-.063.665-.459.602-.855Zm-2.977-6.143a.413.413 0 0 0-.475-.348.413.413 0 0 0-.348.475c.031.237.253.38.475.348a.413.413 0 0 0 .348-.475Zm-1.567 1.916a.413.413 0 0 1 .348-.475.425.425 0 0 0-.348.475Zm.348-.475a.413.413 0 0 1 .475.348.425.425 0 0 0-.475-.348Zm.475.348a.413.413 0 0 1-.348.475.425.425 0 0 0 .348-.475Zm-.776 1.995a.6.6 0 0 0 .68.49.6.6 0 0 0 .492-.68.6.6 0 0 0-.681-.49.6.6 0 0 0-.49.68Zm1.71.903a.7.7 0 0 0-.586.807c.032.253.222.46.475.554a.84.84 0 0 0 .349.032.7.7 0 0 0 .585-.808.684.684 0 0 0-.332-.49.746.746 0 0 0-.49-.095Zm.57-5.985c.048.205.222.332.428.3a.354.354 0 0 0 .3-.427c-.047-.206-.221-.333-.427-.3-.206.047-.333.22-.3.427Z" clip-rule="evenodd"/><path fill="#fff" d="M48.184 21.457c.031.221.253.38.475.348a.425.425 0 0 0 .348-.475.425.425 0 0 0-.475-.348.425.425 0 0 0-.348.475Z"/><path fill="#FEFEFE" d="M16.09 82.162c.174-.475.237-.57.316-.57.095 0 .143.079.317.522.221.554 2.501 6.555 3.388 8.772.523 1.298.95 1.52 1.25 1.615.223.08.444.095.587.095.095 0 .142.016.142.095s-.127.11-.285.11c-.221 0-1.282 0-2.28-.03-.269-.017-.443-.017-.443-.096 0-.063.047-.095.095-.095.095-.032.174-.158.095-.396l-1.346-3.578c-.032-.063-.063-.095-.127-.095h-3.135c-.079 0-.11.047-.142.11l-.871 2.582c-.127.364-.206.712-.206.981 0 .285.301.428.554.428h.143c.095 0 .142.031.142.095 0 .079-.095.11-.221.11-.349 0-.982-.047-1.14-.047-.159 0-.966.048-1.647.048-.19 0-.27-.032-.27-.111 0-.064.064-.095.127-.095.096 0 .301-.016.428-.032.665-.095.966-.633 1.22-1.362l3.308-9.056Zm1.52 5.81c.079 0 .079-.047.063-.094l-1.378-3.927c-.079-.222-.142-.222-.222 0l-1.282 3.927c-.032.079 0 .095.047.095h2.771Zm7.393 1.251c0 1.821.032 2.565.27 2.771.206.206.696.285 1.694.285.665 0 1.235-.016 1.536-.38.158-.19.269-.443.3-.696.016-.095.064-.159.127-.159.064 0 .095.064.095.19 0 .127-.095.871-.19 1.235-.095.285-.127.333-.807.333-.919 0-1.631-.016-2.217-.048-.586-.016-1.013-.032-1.393-.032-.064 0-.27 0-.523.016-.269.016-.538.032-.744.032-.127 0-.206-.032-.206-.095 0-.047.032-.095.095-.095a1.9 1.9 0 0 0 .396-.063c.253-.064.27-.285.332-.65.08-.506.08-1.488.08-2.675v-2.185c0-1.916 0-2.264-.032-2.66-.032-.428-.095-.618-.522-.681a3.649 3.649 0 0 0-.444-.032c-.047 0-.095-.063-.095-.095 0-.079.064-.095.206-.095.586 0 1.378.032 1.457.032.063 0 1.013-.032 1.409-.032.126 0 .206.032.206.095 0 .048-.064.095-.095.095-.095 0-.27.016-.428.032-.38.08-.443.27-.475.697-.016.395-.016.744-.016 2.66v2.2h-.015Zm10.277 2.993c1.345 0 1.694-.222 1.994-.57.127-.158.222-.491.27-.665.031-.111.079-.19.142-.19.08 0 .095.047.095.27 0 .395-.174 1.123-.27 1.424-.078.3-.094.317-.38.317-2.137 0-4.306-.064-6.538-.064-.143 0-.238-.015-.238-.095 0-.063.016-.142.174-.38 1.916-2.77 3.816-5.525 5.574-8.28h-2.708c-.649 0-1.409-.016-1.82.205-.444.238-.681.681-.729.982-.032.19-.095.222-.174.222-.064 0-.08-.064-.08-.159 0-.142.19-1.266.27-1.646.016-.174.047-.238.11-.238.111 0 .206.08.539.095 1.22.048 1.837.032 2.232.032h3.579c.19 0 .269.032.269.095a.346.346 0 0 1-.08.222 488.26 488.26 0 0 1-5.652 8.423h3.42Zm13.014-3.009c0 1.188.016 2.17.08 2.676.047.365.079.602.459.65.174.031.459.063.57.063.095 0 .11.063.11.095 0 .063-.079.095-.221.095-.697 0-1.52-.048-1.584-.048-.063 0-.886.048-1.266.048-.143 0-.206-.032-.206-.095 0-.048.032-.095.095-.095.11 0 .27-.032.38-.064.27-.063.3-.3.348-.664.064-.507.064-1.441.064-2.629v-1.235c0-.063-.032-.079-.08-.079h-5.335c-.048 0-.08.016-.08.08v1.234c0 1.188 0 2.138.064 2.644.047.365.095.602.459.65.19.031.46.063.586.063.079 0 .095.063.095.095 0 .063-.063.095-.206.095-.712 0-1.52-.048-1.583-.048-.08 0-.887.048-1.283.048-.127 0-.206-.032-.206-.095 0-.048.032-.095.095-.095.111 0 .27-.032.396-.064.253-.063.27-.284.333-.649.079-.506.079-1.488.079-2.675v-2.186c0-1.915 0-2.264-.032-2.66-.031-.427-.095-.617-.522-.68a3.65 3.65 0 0 0-.444-.032c-.047 0-.095-.063-.095-.095 0-.08.064-.095.206-.095.586 0 1.394.032 1.473.032.063 0 .87-.032 1.266-.032.143 0 .206.032.206.095 0 .048-.063.095-.095.095-.095 0-.174 0-.317.032-.348.079-.427.253-.459.68-.015.396-.015.776-.015 2.692v.27c0 .079.031.079.079.079h5.336c.047 0 .079 0 .079-.08v-.269c0-1.916-.016-2.296-.032-2.691-.032-.428-.095-.618-.507-.681a3.649 3.649 0 0 0-.443-.032c-.063 0-.095-.063-.095-.095 0-.08.063-.095.206-.095.57 0 1.393.032 1.456.032.08 0 .887-.032 1.267-.032.143 0 .222.032.222.095 0 .048-.064.095-.111.095-.095 0-.158 0-.317.032-.332.079-.411.253-.443.68-.032.396-.032.745-.032 2.66v2.185Zm4.212-2.185c0-1.915 0-2.264-.032-2.66-.031-.427-.095-.617-.522-.68a3.649 3.649 0 0 0-.444-.032c-.047 0-.095-.063-.095-.095 0-.08.064-.095.206-.095.586 0 1.41.032 1.489.032.095 0 2.755.016 3.056 0 .253-.016.474-.064.585-.08.064-.015.111-.063.174-.063.048 0 .064.064.064.111 0 .095-.08.238-.095.586-.016.11-.048.665-.08.807-.015.064-.063.127-.11.127-.08 0-.095-.063-.095-.158a1.31 1.31 0 0 0-.08-.444c-.078-.205-.221-.285-.918-.38-.221-.031-1.694-.047-1.852-.047-.063 0-.08.047-.08.127v3.372c0 .095 0 .127.08.127.158 0 1.852 0 2.137-.032.301-.032.491-.047.618-.174.095-.095.142-.158.19-.158.047 0 .079.031.079.095 0 .079-.08.269-.095.68-.032.254-.063.713-.063.808 0 .095-.032.237-.111.237-.063 0-.095-.047-.095-.11 0-.111 0-.254-.064-.412-.047-.174-.158-.317-.649-.38-.348-.048-1.71-.063-1.931-.063-.08 0-.095.047-.095.079v1.029c0 .427-.016 1.868 0 2.106.031.823.269.981 1.52.981.332 0 .95 0 1.282-.126.333-.143.507-.364.586-.855.032-.143.063-.19.127-.19.079 0 .095.095.095.19s-.095.934-.174 1.187c-.08.317-.222.317-.713.317-.966 0-1.694-.032-2.217-.048-.538-.031-.87-.031-1.06-.031-.032 0-.27 0-.555.016-.253.015-.538.031-.744.031-.127 0-.206-.031-.206-.095 0-.047.032-.095.095-.095.111 0 .27-.047.396-.063.254-.048.27-.285.333-.65.079-.506.079-1.488.079-2.675v-2.154h-.016Zm9.184 2.185c0 1.188 0 2.17.063 2.676.047.365.095.602.459.65.19.031.459.063.586.063.079 0 .095.063.095.095 0 .063-.064.095-.206.095-.713 0-1.536-.048-1.6-.048-.079 0-.87.048-1.266.048-.127 0-.206-.032-.206-.095 0-.048.032-.095.095-.095.111 0 .27-.032.396-.064.253-.063.285-.284.332-.649.064-.506.08-1.488.08-2.675v-2.186c0-1.915 0-2.264-.032-2.66-.032-.427-.127-.617-.412-.664a2.038 2.038 0 0 0-.395-.048c-.064 0-.096-.063-.096-.095 0-.08.064-.095.206-.095.428 0 1.22.032 1.299.032.063 0 .886-.032 1.282-.032.143 0 .206.032.206.095 0 .048-.063.095-.095.095-.095 0-.174 0-.317.032-.348.079-.427.253-.443.68-.016.396-.016.745-.016 2.66v2.185h-.016Zm14.06 1.98c.047.443.126 1.108.648 1.282.365.111.697.111.824.111.063 0 .095.032.095.095 0 .08-.111.11-.27.11-.284 0-1.71-.03-2.184-.078-.301-.032-.364-.08-.364-.127s.031-.095.095-.095c.079-.016.079-.206.063-.443l-.618-6.254h-.031l-3.088 6.317c-.269.538-.332.65-.443.65-.111 0-.19-.112-.444-.57a166.775 166.775 0 0 1-1.504-2.867c-.38-.791-1.409-2.865-1.63-3.372h-.064l-.49 5.59c-.016.19-.016.427-.016.632 0 .19.11.301.3.349.222.063.412.079.491.079.048 0 .095.047.095.095 0 .079-.095.11-.237.11-.475 0-1.093-.047-1.188-.047-.11 0-.728.048-1.077.048-.126 0-.221-.032-.221-.111 0-.048.063-.095.126-.095.096 0 .19-.016.38-.048.428-.079.444-.522.491-.981l.934-8.075c.016-.127.08-.222.143-.222.095 0 .19.048.27.19l3.862 7.68 3.721-7.664c.064-.11.111-.206.206-.206.08 0 .159.095.19.333l.934 7.584Zm3.863-4.165c0-1.915 0-2.264-.032-2.66-.032-.427-.095-.617-.523-.68a3.65 3.65 0 0 0-.443-.032c-.047 0-.095-.063-.095-.095 0-.08.064-.095.206-.095.586 0 1.41.032 1.488.032.095 0 2.755.016 3.056 0 .254-.016.475-.064.586-.08.063-.015.11-.063.174-.063.048 0 .064.064.064.111 0 .095-.08.238-.095.586-.016.11-.048.665-.08.807-.016.064-.063.127-.11.127-.08 0-.096-.063-.096-.158s-.015-.285-.079-.444c-.095-.205-.221-.285-.918-.38-.222-.031-1.694-.047-1.852-.047-.064 0-.08.047-.08.127v3.372c0 .095 0 .127.08.127.158 0 1.852 0 2.137-.032.3-.032.49-.047.617-.174.08-.095.143-.158.19-.158.048 0 .08.031.08.095 0 .079-.08.269-.095.68-.032.254-.064.713-.064.808 0 .095-.031.237-.11.237-.064 0-.096-.047-.096-.11 0-.111 0-.254-.063-.412-.047-.174-.158-.317-.649-.38-.348-.048-1.71-.063-1.932-.063-.079 0-.095.047-.095.079v1.029c0 .427-.016 1.868 0 2.106.032.823.27.981 1.52.981.333 0 .95 0 1.283-.126.332-.143.507-.364.586-.855.031-.143.063-.19.126-.19.08 0 .095.095.095.19s-.095.934-.174 1.187c-.079.317-.221.317-.712.317-.966 0-1.694-.032-2.233-.048-.538-.031-.87-.031-1.06-.031-.032 0-.27 0-.555.016-.253.015-.538.031-.744.031-.127 0-.206-.031-.206-.095 0-.047.032-.095.095-.095.111 0 .27-.047.396-.063.253-.048.27-.285.333-.65.079-.506.079-1.488.079-2.675v-2.154Zm8.011 0c0-1.915 0-2.264-.031-2.66-.032-.427-.095-.617-.523-.68a3.647 3.647 0 0 0-.443-.032c-.048 0-.095-.063-.095-.095 0-.08.063-.095.206-.095.585 0 1.44.032 1.52.032.126 0 1.203-.032 1.599-.032.807 0 1.71.08 2.39.538.317.238.887.824.887 1.695 0 .918-.38 1.805-1.567 2.818 1.045 1.314 1.932 2.422 2.676 3.198.68.697 1.108.808 1.425.855a2.2 2.2 0 0 0 .443.048c.08 0 .11.063.11.095 0 .079-.078.095-.3.095h-.808c-.728 0-1.044-.08-1.361-.254-.554-.285-1.013-.886-1.742-1.82-.538-.665-1.108-1.473-1.377-1.805-.064-.064-.08-.08-.174-.08l-1.631-.031c-.064 0-.095.031-.095.095v.285c0 1.187 0 2.153.063 2.66.047.364.11.601.507.649.174.032.443.063.57.063.079 0 .095.064.095.095 0 .064-.064.095-.206.095-.697 0-1.52-.047-1.568-.047-.016 0-.87.047-1.266.047-.127 0-.206-.031-.206-.095 0-.047.032-.095.095-.095.11 0 .269-.031.396-.063.253-.063.269-.285.332-.65.08-.506.08-1.488.08-2.675v-2.154Zm1.109 1.046c0 .079.031.11.095.158.19.095.839.19 1.409.19.3 0 .649-.016.966-.222.443-.285.775-.95.775-1.884 0-1.536-.839-2.422-2.216-2.422-.38 0-.792.047-.918.079-.064.031-.095.079-.095.142v3.959h-.016Zm6.618-4.18c-.11-.127-.127-.175-.127-.254 0-.047.08-.079.127-.095.237 0 .792.174 1.013.27.174.094.254.158.254.38 0 1.029-.744 2.248-1.251 2.865-.064.095-.111.111-.19.111-.032 0-.08-.032-.08-.08 0-.047.017-.094.064-.19.222-.458.475-1.25.475-2.073.016-.444-.174-.824-.285-.934Zm3.151 8.724c-.174-.08-.19-.127-.19-.46 0-.617.063-1.108.079-1.314 0-.126.032-.206.095-.206.08 0 .11.048.11.143 0 .095 0 .27.048.443.206.903 1.156 1.22 2.027 1.22 1.267 0 1.916-.713 1.916-1.647 0-.887-.475-1.314-1.615-2.153l-.586-.444c-1.377-1.029-1.837-1.789-1.837-2.644 0-1.457 1.156-2.327 2.834-2.327.507 0 1.014.079 1.33.142.254.063.349.063.444.063.095 0 .126.016.126.095 0 .064-.063.46-.063 1.315 0 .19-.016.269-.095.269-.095 0-.095-.064-.111-.159a2.32 2.32 0 0 0-.19-.617c-.095-.143-.506-.618-1.662-.618-.934 0-1.694.46-1.694 1.33 0 .792.395 1.235 1.662 2.09l.364.254c1.552 1.06 2.09 1.916 2.09 2.976 0 .729-.269 1.52-1.187 2.106-.539.349-1.33.444-2.043.444-.585.031-1.33-.048-1.852-.301ZM17.672 97.9c0-.95 0-1.108-.015-1.314-.016-.206-.048-.3-.254-.333-.047 0-.158-.015-.221-.015-.016 0-.048-.032-.048-.048 0-.032.032-.047.095-.047.285 0 .713.015.744.015.064 0 .586-.015.792-.015.396 0 .84.031 1.172.269.158.11.443.411.443.823 0 .443-.19.887-.776 1.393.507.65.95 1.188 1.314 1.568.333.348.539.396.697.427.127.016.19.016.222.016.031 0 .063.032.063.048 0 .031-.032.047-.142.047h-.396c-.364 0-.507-.031-.665-.126-.27-.143-.507-.444-.855-.887-.27-.333-.539-.728-.681-.887-.032-.031-.048-.031-.08-.031l-.807-.016c-.032 0-.047.016-.047.047v.143c0 .586 0 1.061.031 1.314.016.174.064.285.254.317.079.015.221.031.285.031.047 0 .047.032.047.048 0 .031-.032.047-.095.047-.348 0-.744-.016-.776-.016 0 0-.427.016-.617.016-.064 0-.095-.016-.095-.047 0-.016.016-.048.047-.048a.713.713 0 0 0 .19-.031c.127-.032.143-.143.159-.317.031-.253.031-.728.031-1.314V97.9h-.015Zm.539.507c0 .031.016.063.047.079.095.047.412.095.697.095.143 0 .317 0 .475-.11.222-.143.38-.46.38-.935 0-.76-.412-1.188-1.092-1.188-.19 0-.38.016-.444.032-.032.016-.047.032-.047.08v1.947h-.016Zm4.259-.507c0-.95 0-1.108-.016-1.314-.016-.206-.047-.3-.253-.333-.048 0-.159-.015-.222-.015-.016 0-.047-.032-.047-.048 0-.032.031-.047.095-.047.285 0 .696.015.728.015h1.504c.127 0 .238-.031.285-.031.032 0 .064-.032.08-.032.015 0 .031.032.031.063 0 .048-.032.111-.047.285 0 .064-.016.333-.032.396a.068.068 0 0 1-.064.064c-.031 0-.047-.032-.047-.08 0-.047 0-.142-.032-.221-.047-.095-.11-.143-.443-.19-.11-.016-.84-.016-.902-.016-.032 0-.032.016-.032.063v1.647c0 .047 0 .063.031.063.08 0 .903 0 1.046-.016.142-.015.237-.015.3-.079.048-.047.08-.079.095-.079.016 0 .032.016.032.048 0 .031-.032.142-.047.332a5.433 5.433 0 0 0-.032.396c0 .047-.016.11-.064.11-.031 0-.047-.015-.047-.063 0-.063 0-.126-.032-.205-.015-.08-.079-.159-.316-.19-.174-.016-.84-.032-.95-.032-.032 0-.048.016-.048.047v1.537c.016.411.127.49.744.49.159 0 .46 0 .634-.063.158-.079.253-.174.285-.428.015-.063.031-.095.063-.095s.047.048.047.095c0 .048-.047.459-.079.586-.047.158-.11.158-.348.158-.475 0-.84-.015-1.093-.015-.269-.016-.427-.016-.522-.016h-.27c-.126 0-.268.016-.363.016-.064 0-.095-.016-.095-.048 0-.016.015-.047.047-.047a.674.674 0 0 0 .19-.032c.127-.016.143-.143.159-.317.031-.253.031-.728.031-1.314V97.9h.016Zm3.404 2.739c-.079-.047-.095-.063-.095-.221 0-.301.032-.539.032-.65 0-.063.016-.095.047-.095.032 0 .064.016.064.08 0 .047 0 .142.015.221.095.444.57.602.998.602.617 0 .95-.348.95-.808 0-.443-.238-.649-.792-1.06l-.285-.206c-.68-.507-.902-.871-.902-1.299 0-.712.57-1.14 1.393-1.14.253 0 .507.032.65.08a.777.777 0 0 0 .221.031c.047 0 .063 0 .063.048 0 .031-.031.221-.031.649 0 .095 0 .142-.048.142-.047 0-.047-.031-.063-.079a.957.957 0 0 0-.095-.3c-.048-.064-.253-.301-.808-.301-.459 0-.839.221-.839.665 0 .38.19.601.808 1.029l.174.126c.76.523 1.029.95 1.029 1.457 0 .364-.142.744-.586 1.029-.269.174-.665.222-.997.222-.27-.048-.634-.095-.903-.222Zm4.133-2.739c0-.95 0-1.108-.016-1.314-.016-.206-.048-.3-.253-.333-.048 0-.159-.015-.222-.015-.016 0-.048-.032-.048-.048 0-.032.032-.047.095-.047.285 0 .697.015.729.015h1.504c.127 0 .237-.031.285-.031.031 0 .063-.032.079-.032s.032.032.032.063c0 .048-.032.111-.048.285 0 .064-.016.333-.032.396a.068.068 0 0 1-.063.064c-.032 0-.047-.032-.047-.08 0-.047 0-.142-.032-.221-.047-.095-.11-.143-.443-.19-.111-.016-.84-.016-.903-.016-.031 0-.031.016-.031.063v1.647c0 .047 0 .063.031.063.08 0 .903 0 1.045-.016.143-.015.238-.015.301-.079.047-.047.08-.079.095-.079.016 0 .032.016.032.048 0 .031-.032.142-.048.332a5.445 5.445 0 0 0-.032.396c0 .047-.015.11-.063.11-.032 0-.047-.015-.047-.063 0-.063 0-.126-.032-.205-.016-.08-.08-.159-.317-.19a21.662 21.662 0 0 0-.95-.032c-.031 0-.047.016-.047.047v1.537c.016.411.127.49.744.49.158 0 .46 0 .633-.063.159-.079.254-.174.285-.428.016-.063.032-.095.064-.095.031 0 .047.048.047.095 0 .048-.047.459-.079.586-.047.158-.11.158-.348.158-.475 0-.84-.015-1.093-.015-.269-.016-.427-.016-.522-.016h-.27c-.126 0-.269.016-.364.016-.063 0-.095-.016-.095-.048 0-.016.016-.047.048-.047a.674.674 0 0 0 .19-.032c.127-.016.142-.143.158-.317.032-.253.032-.728.032-1.314V97.9h.016Zm4.893-1.63c.078-.207.11-.238.142-.238.063 0 .079.079.142.221.111.254 1.124 2.771 1.504 3.69.222.538.396.617.539.665.095.031.19.031.253.031.032 0 .08.016.08.048 0 .031-.08.047-.143.047-.095 0-.555 0-.998-.016-.127 0-.221 0-.221-.047 0-.032.015-.032.047-.048a.122.122 0 0 0 .063-.158l-.57-1.393c-.016-.032-.016-.032-.063-.032H34.25c-.032 0-.047.016-.063.048l-.364.965a1.097 1.097 0 0 0-.096.412c0 .127.111.158.222.158h.064c.047 0 .063.016.063.048s-.032.047-.095.047c-.143 0-.491-.015-.57-.015-.064 0-.38.015-.633.015-.08 0-.127-.015-.127-.047s.031-.048.063-.048c.048 0 .143 0 .19-.015.285-.032.412-.254.523-.555l1.472-3.784Zm.712 2.517c.031 0 .031-.016.015-.048l-.617-1.662c-.032-.095-.08-.095-.11 0l-.587 1.662c0 .032 0 .048.016.048h1.283Zm2.786-.887c0-.95 0-1.108-.016-1.314-.015-.206-.047-.3-.253-.333-.047 0-.158-.015-.221-.015-.016 0-.048-.032-.048-.048 0-.032.032-.047.095-.047.285 0 .712.015.744.015.064 0 .586-.015.792-.015.396 0 .839.031 1.172.269.158.11.443.411.443.823 0 .443-.19.887-.776 1.393.523.65.95 1.188 1.314 1.568.333.348.538.396.697.427.127.016.19.016.221.016.032 0 .064.032.064.048 0 .031-.032.047-.143.047h-.395c-.365 0-.507-.031-.666-.126-.269-.143-.506-.444-.854-.887-.27-.333-.539-.728-.681-.887-.032-.031-.048-.031-.08-.031L39 98.787c-.032 0-.047.016-.047.047v.143c0 .586 0 1.061.031 1.314.016.174.063.285.253.317.08.015.222.031.285.031.048 0 .048.032.048.048 0 .031-.032.047-.095.047-.348 0-.744-.016-.776-.016 0 0-.427.016-.617.016-.064 0-.095-.016-.095-.047 0-.016.015-.048.047-.048a.713.713 0 0 0 .19-.031c.127-.032.143-.143.159-.317.031-.253.031-.728.031-1.314l-.016-1.077Zm.554.507c0 .031.016.063.048.079.095.047.412.095.697.095.142 0 .316 0 .475-.11.221-.143.38-.46.38-.935 0-.76-.412-1.188-1.093-1.188-.19 0-.38.016-.443.032-.032.016-.048.032-.048.08v1.947h-.016Zm4.402 1.757c-.617-.522-.76-1.219-.76-1.805 0-.411.143-1.108.713-1.662.38-.364.95-.65 1.915-.65.254 0 .602.016.919.064.237.047.443.08.649.095.063 0 .08.032.08.063 0 .048-.017.127-.032.349 0 .205 0 .538-.016.617 0 .095-.032.127-.08.127-.047 0-.047-.048-.047-.127 0-.237-.095-.475-.27-.602-.22-.19-.68-.332-1.234-.332-.808 0-1.188.222-1.41.427-.459.428-.57.966-.57 1.584 0 1.156.919 2.201 2.265 2.201.475 0 .791-.032 1.029-.285.142-.143.222-.396.237-.507.016-.063.016-.08.064-.08.032 0 .063.048.063.08 0 .047-.079.57-.142.776-.032.111-.048.142-.159.174-.253.095-.728.142-1.14.142-.934 0-1.583-.221-2.074-.649Zm8.851-1.187c0 .586 0 1.061.032 1.314.015.174.031.285.221.317.08.015.222.031.285.031.048 0 .064.032.064.048 0 .031-.032.047-.111.047-.349 0-.744-.016-.776-.016-.032 0-.443.016-.617.016-.08 0-.095-.016-.095-.047 0-.016.015-.048.047-.048.063 0 .127-.016.19-.031.127-.032.142-.143.174-.333.032-.253.032-.712.032-1.298v-.602c0-.032-.016-.032-.032-.032h-2.644c-.016 0-.032 0-.032.032v.602c0 .586 0 1.045.032 1.298.016.174.047.285.222.317.095.016.221.031.285.031.031 0 .047.032.047.048 0 .032-.032.047-.095.047-.348 0-.744-.015-.776-.015-.031 0-.443.015-.633.015-.063 0-.095-.015-.095-.047 0-.016.016-.048.047-.048a.675.675 0 0 0 .19-.031c.127-.032.143-.143.159-.317.032-.253.032-.728.032-1.314V97.9c0-.95 0-1.11-.016-1.315-.016-.206-.048-.3-.254-.333-.047 0-.158-.015-.221-.015-.016 0-.048-.032-.048-.048 0-.032.032-.047.095-.047.285 0 .681.015.728.015.032 0 .428-.015.618-.015.08 0 .095.015.095.047 0 .016-.032.048-.047.048-.048 0-.08 0-.159.015-.174.032-.206.127-.221.333v1.441c0 .031.015.031.031.031h2.628c.016 0 .032 0 .032-.031V97.9c0-.95 0-1.124-.016-1.314-.016-.206-.047-.3-.253-.333-.047 0-.158-.015-.222-.015-.031 0-.047-.032-.047-.048 0-.032.031-.047.095-.047.285 0 .68.015.712.015.032 0 .444-.015.618-.015.079 0 .11.015.11.047 0 .016-.031.048-.063.048-.047 0-.079 0-.158.015-.158.032-.206.127-.222.333-.016.19-.016.364-.016 1.314v1.077h.048Zm4.132-1.077c0-.95 0-1.108-.015-1.314-.016-.206-.048-.3-.254-.333-.047 0-.158-.015-.221-.015-.016 0-.048-.032-.048-.048 0-.032.032-.047.095-.047.285 0 .681.015.713.015h1.63c.127 0 .222 0 .285-.031.032 0 .064-.032.08-.032.031 0 .047.032.047.063 0 .048-.032.111-.047.285 0 .064-.016.333-.032.396a.068.068 0 0 1-.063.064c-.032 0-.048-.032-.048-.064a.477.477 0 0 0-.063-.221c-.048-.08-.19-.175-.428-.175l-1.029-.015c-.032 0-.047.015-.047.063v1.662c0 .032 0 .064.047.064h1.14c.143-.016.238-.032.301-.111.032-.032.063-.063.08-.063.03 0 .03.015.03.047s-.047.143-.063.333c-.015.126-.015.364-.015.411 0 .064-.016.127-.064.127-.031 0-.047-.032-.047-.063a.623.623 0 0 0-.048-.222c-.031-.08-.126-.158-.316-.19-.159-.016-.903-.016-1.014-.016-.031 0-.047.016-.047.063v.491c0 .602 0 1.077.032 1.314.015.175.063.285.221.317.095.016.222.032.285.032.032 0 .048.031.048.047 0 .032-.032.048-.095.048-.349 0-.76-.016-.792-.016-.032 0-.428.016-.617.016-.064 0-.096-.016-.096-.048 0-.016.016-.047.048-.047a.674.674 0 0 0 .19-.032c.127-.016.142-.142.158-.317.032-.253.032-.728.032-1.314V97.9h.047Zm5.59-1.852c1.409 0 2.485.87 2.485 2.28 0 1.361-1.013 2.47-2.517 2.47-1.726 0-2.454-1.299-2.454-2.391 0-.966.76-2.36 2.486-2.36Zm.142 4.512c.57 0 1.694-.301 1.694-2.058 0-1.457-.886-2.217-1.884-2.217-1.045 0-1.805.665-1.805 1.98.016 1.408.855 2.295 1.995 2.295ZM65.6 97.9c0-.95 0-1.108-.016-1.314-.016-.19-.047-.3-.253-.333-.048 0-.159-.015-.222-.015-.016 0-.047-.032-.047-.048 0-.032.031-.047.095-.047.285 0 .665.015.728.015.063 0 .443-.015.633-.015.08 0 .111.015.111.047 0 .016-.032.048-.063.048-.048 0-.08 0-.159.015-.158.032-.205.143-.221.333-.016.19-.016.364-.016 1.314v.855c0 .87.19 1.235.46 1.488.3.285.585.333.933.333.38 0 .76-.174.966-.428.301-.348.364-.855.364-1.472V97.9c0-.95 0-1.108-.016-1.314 0-.19-.047-.3-.253-.333-.047 0-.158-.015-.221-.015-.032 0-.048-.032-.048-.048 0-.032.032-.047.095-.047.285 0 .65.015.68.015.048 0 .35-.015.523-.015.08 0 .095.015.095.047 0 .016-.016.048-.047.048-.048 0-.08 0-.158.015-.175.032-.206.143-.222.333-.016.19 0 .364 0 1.314v.65c0 .648-.08 1.393-.586 1.82-.46.396-.95.443-1.314.443-.206 0-.871-.015-1.314-.427-.301-.285-.555-.713-.555-1.6V97.9h.048Zm5.81 2.01c.017.508.08.65.238.698.111.031.254.031.317.031.032 0 .047.016.047.048 0 .031-.047.047-.11.047-.365 0-.602-.016-.665-.016-.064 0-.317.016-.602.016-.063 0-.095 0-.095-.047 0-.032.016-.048.047-.048.048 0 .159 0 .254-.031.158-.048.174-.206.174-.76v-3.484c0-.237.032-.3.08-.3.078 0 .173.126.237.19.095.094 1.013 1.076 1.979 2.074.617.649 1.298 1.361 1.488 1.567l-.063-3.04c0-.396-.048-.522-.238-.57a3.244 3.244 0 0 0-.3-.032c-.048 0-.048-.031-.048-.063s.047-.047.127-.047c.285 0 .585.015.665.015.079 0 .285-.015.538-.015.063 0 .11 0 .11.047 0 .016-.03.063-.078.063-.032 0-.08 0-.143.016-.206.048-.222.159-.222.523l-.015 3.562c0 .396 0 .444-.048.444-.063 0-.127-.048-.475-.365-.063-.063-.966-.95-1.63-1.646-.729-.76-1.442-1.504-1.632-1.726l.064 2.85Zm5.558-2.01c0-.95 0-1.108-.016-1.314-.015-.206-.047-.3-.253-.333-.047 0-.158-.015-.221-.015-.016 0-.048-.032-.048-.048 0-.032.032-.047.095-.047.285 0 .697.015.728.015.08 0 .475-.015.84-.015.633 0 1.773-.064 2.517.696.317.317.618.824.618 1.536a2.47 2.47 0 0 1-.681 1.71c-.27.285-.84.697-1.9.697-.27 0-.602-.016-.871-.032-.27-.016-.491-.032-.507-.032h-.253c-.127 0-.285.016-.38.016-.063 0-.095-.016-.095-.047 0-.016.016-.048.047-.048a.713.713 0 0 0 .19-.031c.127-.032.143-.143.159-.317.031-.253.031-.728.031-1.314V97.9Zm.57.65v1.313c0 .143.016.365.08.444.079.111.3.237 1.044.237.586 0 1.093-.19 1.473-.554.332-.3.49-.887.49-1.44 0-.777-.332-1.267-.585-1.52-.586-.602-1.283-.682-2.043-.682-.126 0-.316.016-.38.048-.063.016-.079.047-.079.127v2.026Zm6.096-2.28c.08-.207.111-.238.143-.238.063 0 .079.079.142.221.111.254 1.124 2.771 1.504 3.69.222.538.396.617.539.665.095.031.19.031.253.031.032 0 .08.016.08.048 0 .031-.064.047-.143.047-.095 0-.555 0-.998-.016-.126 0-.221 0-.221-.047 0-.032.015-.032.047-.048a.122.122 0 0 0 .063-.158l-.57-1.393c-.016-.032-.016-.032-.063-.032h-1.457c-.031 0-.047.016-.063.048l-.364.965a1.095 1.095 0 0 0-.095.412c0 .127.11.158.222.158h.063c.047 0 .063.016.063.048s-.031.047-.095.047c-.142 0-.49-.015-.57-.015-.063 0-.38.015-.633.015-.08 0-.127-.015-.127-.047s.032-.048.064-.048c.047 0 .142 0 .19-.015.284-.032.411-.254.522-.555l1.504-3.784Zm.697 2.517c.031 0 .031-.016.016-.048l-.618-1.662c-.031-.095-.079-.095-.11 0l-.587 1.662c0 .032 0 .048.016.048h1.283Zm3.721.19c0 .586 0 1.061.031 1.314.016.174.048.285.238.317.079.015.222.031.285.031.047 0 .047.032.047.048 0 .031-.031.047-.095.047-.348 0-.744-.016-.776-.016-.031 0-.459.016-.649.016-.063 0-.095-.016-.095-.047 0-.016.016-.048.048-.048.063 0 .127-.016.19-.031.127-.032.158-.143.19-.333.032-.253.032-.728.032-1.314v-2.55l-.903.017c-.396 0-.538.047-.633.19-.08.11-.08.142-.095.19-.016.047-.032.063-.064.063-.016 0-.047-.016-.047-.048 0-.063.126-.601.142-.665.016-.031.048-.11.064-.11.047 0 .11.047.285.079.174.016.427.031.49.031h2.376c.205 0 .348-.015.443-.031.095-.016.142-.032.174-.032s.032.032.032.063c0 .19-.016.618-.016.697 0 .048-.032.08-.063.08-.032 0-.048-.017-.048-.112v-.063c-.016-.19-.158-.317-.76-.332l-.792-.016v2.565h-.031Zm3.546 0c0 .586 0 1.061.032 1.314.016.174.047.285.222.317.095.015.221.031.285.031.031 0 .047.032.047.048 0 .031-.031.047-.095.047-.348 0-.76-.016-.791-.016-.032 0-.428.016-.618.016-.063 0-.095-.016-.095-.047 0-.016.016-.048.047-.048a.713.713 0 0 0 .19-.031c.127-.032.143-.143.159-.317.032-.253.032-.728.032-1.314V97.9c0-.95 0-1.108-.016-1.314-.016-.206-.064-.3-.206-.333-.063-.015-.143-.015-.19-.015-.032 0-.048-.032-.048-.048 0-.032.032-.047.095-.047.206 0 .602.015.634.015.031 0 .443-.015.633-.015.08 0 .095.015.095.047 0 .016-.032.048-.047.048-.048 0-.08 0-.159.015-.174.032-.206.127-.222.333v2.391h.016Zm3.895-2.929c1.41 0 2.486.87 2.486 2.28 0 1.361-1.013 2.47-2.517 2.47-1.726 0-2.455-1.299-2.455-2.391-.015-.966.745-2.36 2.486-2.36Zm.143 4.512c.57 0 1.694-.301 1.694-2.058 0-1.457-.887-2.217-1.884-2.217-1.045 0-1.805.665-1.805 1.98.016 1.408.855 2.295 1.995 2.295Zm3.927-.65c.015.508.063.65.237.698.11.031.253.031.317.031.031 0 .047.016.047.048 0 .031-.047.047-.111.047-.364 0-.601-.016-.665-.016-.063 0-.316.016-.601.016-.064 0-.095 0-.095-.047 0-.032.016-.048.047-.048.048 0 .158 0 .254-.031.158-.048.174-.206.174-.76v-3.484c0-.237.031-.3.079-.3.079 0 .174.126.237.19.095.094 1.014 1.076 1.98 2.074.617.649 1.298 1.361 1.488 1.567l-.063-3.04c0-.396-.048-.522-.238-.57a3.232 3.232 0 0 0-.301-.032c-.047 0-.047-.031-.047-.063s.047-.047.126-.047c.285 0 .586.015.665.015.064 0 .285-.015.539-.015.063 0 .111 0 .111.047 0 .016-.032.063-.08.063-.031 0-.079 0-.142.016-.206.048-.222.159-.222.523l-.016 3.562c0 .396 0 .444-.047.444-.063 0-.127-.048-.475-.365-.063-.063-.966-.95-1.631-1.646-.728-.76-1.44-1.504-1.63-1.726l.063 2.85ZM14.506 75.37c0-1.442 0-1.71-.016-1.996-.016-.316-.095-.459-.396-.522a2.15 2.15 0 0 0-.317-.032c-.031 0-.079-.016-.079-.063 0-.064.048-.08.143-.08.206 0 .459 0 .665.016l.38.016c.19.016 2.058 0 2.28-.016.174-.016.316-.016.411-.031.064-.016.095-.064.127-.064s.063.032.063.08c0 .063-.047.174-.079.427-.016.095-.031.507-.047.617-.016.048-.032.096-.08.096-.047 0-.063-.048-.063-.111 0-.08-.032-.238-.079-.349-.063-.126-.27-.285-.633-.3l-1.425-.032c-.064 0-.08.032-.08.095v2.549c0 .047.016.08.064.08l1.187-.017c.159 0 .285 0 .412-.016.222-.015.348-.047.428-.174.031-.047.063-.095.095-.095.031 0 .047.032.047.08 0 .047-.047.205-.08.522-.015.19-.03.554-.03.618 0 .079 0 .174-.064.174-.048 0-.064-.032-.064-.08-.015-.094-.015-.221-.063-.332-.047-.127-.19-.3-.475-.333-.237-.031-1.235-.031-1.393-.031-.048 0-.064.016-.064.079v.792c0 .886 0 1.615.048 2.01.032.27.08.475.364.507.127.016.333.032.412.032.063 0 .079.031.079.063 0 .048-.047.08-.143.08-.506 0-1.092-.032-1.14-.032-.047 0-.633.031-.902.031-.095 0-.143-.016-.143-.079 0-.032.016-.063.08-.063.079 0 .19-.016.285-.032.19-.031.237-.237.269-.506.047-.396.047-1.125.047-2.011v-1.568h-.031Zm6 2.026c0 .76 0 1.377.032 1.71.032.237.064.38.301.412.127.015.3.031.364.031.048 0 .064.032.064.063 0 .032-.032.064-.127.064-.46 0-.982-.032-1.014-.032-.047 0-.554.032-.807.032-.08 0-.127-.016-.127-.064 0-.031.016-.063.064-.063.079 0 .174-.016.253-.032.158-.031.19-.19.206-.411.032-.317.047-.95.047-1.71v-1.394c0-1.219 0-1.44-.015-1.694-.016-.269-.08-.396-.254-.427a1.82 1.82 0 0 0-.253-.032c-.032 0-.063-.032-.063-.063 0-.048.031-.064.126-.064.27 0 .776.016.823.016.032 0 .57-.016.808-.016.095 0 .127.016.127.064a.068.068 0 0 1-.064.063c-.047 0-.11 0-.206.016-.221.047-.269.158-.285.428-.015.253-.015.474-.015 1.694v1.409h.015Zm2.186 2.184c-.111-.047-.127-.078-.127-.3 0-.396.031-.697.047-.84 0-.078.016-.126.064-.126.047 0 .079.032.079.095s0 .174.032.285c.126.57.744.776 1.282.776.808 0 1.22-.46 1.22-1.045 0-.57-.302-.84-1.03-1.362l-.364-.285c-.887-.649-1.172-1.14-1.172-1.678 0-.918.729-1.472 1.805-1.472.317 0 .65.047.84.094.158.032.221.032.284.032.064 0 .08.016.08.048 0 .031-.032.3-.032.839 0 .126-.016.174-.063.174-.048 0-.064-.032-.08-.095a1.912 1.912 0 0 0-.126-.396c-.064-.095-.317-.396-1.061-.396-.586 0-1.077.301-1.077.855 0 .507.254.792 1.061 1.33l.238.159c.997.68 1.33 1.219 1.33 1.9 0 .459-.175.966-.76 1.346-.349.221-.855.284-1.299.284-.38-.015-.839-.063-1.171-.221Zm10.307-2.184c0 .76.016 1.377.047 1.71.032.237.048.38.301.412.111.015.301.031.364.031.048 0 .08.032.08.063 0 .032-.048.064-.143.064-.443 0-.966-.032-1.013-.032-.032 0-.57.032-.808.032-.095 0-.126-.016-.126-.064 0-.031.015-.063.063-.063.08 0 .174-.016.238-.032.174-.031.19-.19.221-.427.032-.317.032-.918.032-1.678v-.792c0-.032-.016-.047-.048-.047H28.82c-.032 0-.047.015-.047.047v.792c0 .76 0 1.361.031 1.678.032.237.063.38.301.412.127.016.3.031.364.031.048 0 .064.032.064.064 0 .031-.032.063-.127.063-.46 0-.966-.032-1.014-.032-.047 0-.57.032-.807.032-.08 0-.127-.016-.127-.063 0-.032.016-.064.064-.064.079 0 .174-.016.253-.031.158-.032.174-.19.206-.412.047-.317.047-.95.047-1.71v-1.393c0-1.22 0-1.441-.015-1.694-.016-.27-.064-.396-.333-.428-.063-.016-.206-.016-.285-.016a.068.068 0 0 1-.063-.063c0-.048.031-.064.126-.064.364 0 .887.016.934.016.032 0 .555-.016.808-.016.095 0 .127.016.127.064a.068.068 0 0 1-.064.063c-.047 0-.11 0-.206.016-.221.047-.269.158-.285.428-.015.253-.015.49-.015 1.71v.174c0 .047.015.047.047.047h3.388c.032 0 .048 0 .048-.047v-.175c0-1.219-.016-1.456-.016-1.71-.016-.269-.063-.395-.316-.427-.064-.016-.206-.016-.285-.016a.068.068 0 0 1-.064-.063c0-.048.032-.064.127-.064.364 0 .887.016.918.016.048 0 .57-.016.808-.016.095 0 .142.016.142.064 0 .031-.031.063-.079.063-.063 0-.095 0-.206.016-.206.047-.253.158-.285.428-.016.253-.016.474-.016 1.694v1.409H33Zm2.691-1.378c0-1.219 0-1.44-.015-1.694-.016-.269-.063-.396-.333-.427-.063-.016-.206-.016-.285-.016a.068.068 0 0 1-.063-.064c0-.047.032-.063.127-.063.364 0 .902.016.95.016.063 0 1.757.016 1.947 0 .158-.016.301-.032.364-.047a.293.293 0 0 1 .111-.032c.032 0 .032.031.032.079 0 .047-.048.142-.063.364-.016.08-.032.428-.048.523-.016.031-.032.079-.08.079-.047 0-.063-.032-.063-.095 0-.064-.015-.19-.047-.285-.063-.127-.142-.19-.586-.238a31.32 31.32 0 0 0-1.171-.031c-.032 0-.048.031-.048.079v2.137c0 .064 0 .08.048.08.095 0 1.171 0 1.361-.016.19-.016.317-.032.396-.111.063-.064.095-.095.127-.095.031 0 .047.016.047.063 0 .048-.047.174-.063.428a9.34 9.34 0 0 0-.032.506c0 .064-.016.143-.079.143-.032 0-.063-.032-.063-.08 0-.079 0-.158-.032-.253-.032-.11-.095-.206-.412-.237-.221-.032-1.092-.032-1.235-.032-.047 0-.047.032-.047.064v.649c0 .269-.016 1.187 0 1.345.016.523.174.634.966.634.205 0 .601 0 .807-.08.206-.094.317-.237.364-.538.016-.095.032-.126.08-.126.047 0 .063.063.063.126 0 .064-.064.586-.111.76-.063.206-.142.206-.46.206-.617 0-1.076-.016-1.408-.032-.349-.015-.554-.015-.681-.015-.016 0-.174 0-.349.016-.158.015-.348.015-.475.015-.079 0-.126-.016-.126-.063 0-.032.016-.063.063-.063.08 0 .174-.032.254-.032.158-.032.174-.19.205-.412.048-.316.048-.95.048-1.71v-1.425h.016Zm5.099 0c0-1.219 0-1.44-.016-1.694-.016-.269-.063-.396-.332-.427-.064-.016-.206-.016-.285-.016a.068.068 0 0 1-.064-.064c0-.047.032-.063.127-.063.364 0 .918.016.966.016.079 0 .776-.016 1.013-.016.523 0 1.093.048 1.52.349.206.142.57.522.57 1.076 0 .586-.237 1.14-.997 1.79.665.839 1.235 1.551 1.71 2.042.427.443.696.522.902.538.159.032.238.032.285.032.048 0 .08.031.08.063 0 .048-.048.063-.19.063h-.507c-.46 0-.665-.047-.871-.158-.349-.19-.65-.57-1.108-1.156-.349-.427-.697-.934-.887-1.14-.032-.031-.048-.047-.111-.047l-1.06-.048c-.032 0-.064.016-.064.064v.19c0 .76 0 1.361.032 1.694.031.237.079.38.316.412.111.015.285.031.364.031.064 0 .064.032.064.063 0 .032-.032.064-.127.064-.443 0-.966-.032-.998-.032-.015 0-.554.032-.807.032-.08 0-.127-.016-.127-.064 0-.031.016-.063.064-.063.079 0 .174-.016.253-.032.158-.031.174-.19.206-.411.047-.317.047-.95.047-1.71v-1.378h.032Zm.697.665c0 .048.016.08.063.095.127.064.538.127.903.127.19 0 .411-.016.617-.142.285-.19.49-.602.49-1.204 0-.981-.537-1.552-1.408-1.552a3.83 3.83 0 0 0-.586.048c-.032.016-.063.047-.063.095v2.533h-.016Zm6.934 2.137c-.902-.807-1.123-1.852-1.123-2.738 0-.618.205-1.71 1.029-2.534.554-.554 1.393-.997 2.818-.997.364 0 .887.031 1.346.11.348.064.649.127.95.143.095.016.127.048.127.095 0 .08-.032.19-.048.523-.016.3-.016.807-.032.95-.016.142-.031.19-.079.19-.063 0-.079-.064-.079-.19 0-.365-.142-.745-.396-.95-.316-.285-1.029-.523-1.852-.523-1.235 0-1.805.364-2.122.681-.68.65-.84 1.472-.84 2.422 0 1.774 1.362 3.389 3.342 3.389.696 0 1.235-.08 1.615-.46.19-.205.316-.617.348-.775.016-.095.032-.143.095-.143.047 0 .063.064.063.143 0 .063-.11.87-.206 1.187-.063.174-.079.19-.237.27-.364.142-1.077.205-1.663.205-1.393 0-2.327-.348-3.055-.997Zm7.173-2.802c0-1.219 0-1.44-.016-1.694-.015-.269-.063-.396-.332-.427-.063-.016-.206-.016-.285-.016a.068.068 0 0 1-.063-.064c0-.047.031-.063.126-.063.364 0 .903.016.95.016.063 0 1.758.016 1.948 0 .158-.016.3-.032.364-.047a.294.294 0 0 1 .11-.032c.032 0 .032.031.032.079 0 .063-.047.142-.063.364-.016.08-.032.428-.047.523-.016.031-.032.079-.08.079-.047 0-.063-.032-.063-.095 0-.064-.016-.19-.047-.285-.064-.127-.143-.19-.586-.238a31.32 31.32 0 0 0-1.172-.031c-.032 0-.047.031-.047.079v2.137c0 .064 0 .08.047.08.095 0 1.172 0 1.362-.016.19-.016.316-.032.395-.111.064-.064.096-.095.127-.095.032 0 .048.016.048.063 0 .048-.048.174-.064.428a9.34 9.34 0 0 0-.031.506c0 .064-.016.143-.08.143-.031 0-.063-.032-.063-.08 0-.079 0-.158-.032-.253-.031-.11-.094-.206-.411-.237-.222-.032-1.093-.032-1.235-.032-.048 0-.063.032-.063.064v.649c0 .269-.016 1.187 0 1.345.015.523.174.634.965.634.206 0 .602 0 .808-.08.206-.094.316-.237.364-.538.016-.095.032-.126.08-.126.047 0 .047.063.047.126 0 .064-.064.586-.111.76-.064.206-.143.206-.46.206-.617 0-1.076-.016-1.409-.032-.348-.015-.554-.015-.68-.015-.016 0-.175 0-.349.016-.158.015-.348.015-.475.015-.079 0-.126-.016-.126-.063 0-.032.016-.063.063-.063.08 0 .174-.032.253-.032.159-.032.175-.19.206-.412.048-.316.048-.95.048-1.71v-1.425h.047Zm5.431 2.597c.016.65.095.84.317.903.142.031.332.047.411.047.032 0 .064.032.064.063 0 .048-.064.064-.143.064-.459 0-.791-.032-.855-.032-.063 0-.411.032-.791.032-.08 0-.127-.016-.127-.064 0-.031.032-.063.063-.063.063 0 .206-.016.333-.047.206-.064.237-.27.237-.982v-4.513c0-.316.048-.395.111-.395.095 0 .238.158.317.237.126.127 1.314 1.393 2.565 2.676.807.839 1.678 1.773 1.931 2.026l-.079-3.942c-.016-.507-.047-.68-.3-.728-.143-.032-.333-.032-.397-.032-.063 0-.063-.047-.063-.08 0-.047.064-.063.159-.063.364 0 .76.016.855.016.094 0 .364-.016.696-.016.08 0 .143.016.143.064 0 .031-.032.079-.095.079-.032 0-.095 0-.19.016-.27.063-.285.206-.285.68l-.016 4.608c0 .523-.016.57-.064.57-.079 0-.174-.063-.617-.475-.08-.079-1.25-1.235-2.122-2.121a165.47 165.47 0 0 1-2.105-2.233l.047 3.705Zm9.136-1.219c0 .76 0 1.377.032 1.71.031.237.063.38.316.412.111.015.301.031.364.031.048 0 .064.032.064.063 0 .032-.032.064-.127.064-.443 0-.966-.032-1.013-.032-.032 0-.602.032-.84.032-.094 0-.126-.016-.126-.064 0-.031.016-.063.063-.063.08 0 .174-.016.238-.032.158-.031.206-.19.237-.427.032-.317.032-.95.032-1.71v-3.31l-1.172.017c-.506.016-.697.063-.823.253-.095.142-.095.19-.127.253-.016.064-.047.08-.079.08-.016 0-.063-.016-.063-.064 0-.079.174-.791.174-.855.016-.047.063-.142.079-.142.063 0 .142.063.364.095.238.031.554.031.633.031h3.072c.27 0 .46-.016.586-.031.127-.016.19-.032.237-.032.032 0 .032.047.032.095 0 .237-.032.808-.032.903 0 .063-.031.094-.079.094-.031 0-.063-.031-.063-.142l-.016-.08c-.032-.237-.206-.41-.982-.427l-1.013-.015v3.293h.032Zm3.879-1.378c0-1.219 0-1.44-.016-1.694-.016-.269-.063-.396-.332-.427-.064-.016-.206-.016-.285-.016a.068.068 0 0 1-.064-.064c0-.047.032-.063.127-.063.364 0 .903.016.95.016.047 0 1.758.016 1.948 0 .158-.016.3-.032.364-.047a.294.294 0 0 1 .11-.032c.032 0 .032.031.032.079 0 .063-.047.142-.063.364-.016.08-.032.428-.048.523-.016.031-.031.079-.079.079-.047 0-.063-.032-.063-.095 0-.064-.016-.19-.048-.285-.047-.127-.142-.19-.585-.238a31.315 31.315 0 0 0-1.172-.031c-.032 0-.048.031-.048.079v2.137c0 .064 0 .08.048.08.095 0 1.172 0 1.362-.016.19-.016.316-.032.395-.111.064-.064.095-.095.127-.095s.047.016.047.063c0 .048-.047.174-.063.428a9.301 9.301 0 0 0-.032.506c0 .064-.015.143-.079.143-.031 0-.063-.032-.063-.08 0-.079 0-.158-.032-.253-.031-.11-.095-.206-.411-.237-.222-.032-1.093-.032-1.235-.032-.048 0-.048.032-.048.064v.649c0 .269-.016 1.187 0 1.345.016.523.174.634.966.634.206 0 .602 0 .808-.08.205-.094.316-.237.364-.538.015-.095.031-.126.079-.126.047 0 .047.063.047.126 0 .064-.063.586-.11.76-.064.206-.143.206-.46.206-.617 0-1.076-.016-1.409-.032-.348-.015-.554-.015-.68-.015-.017 0-.175 0-.349.016-.158.015-.348.015-.475.015-.08 0-.127-.016-.127-.063 0-.032.016-.063.064-.063.079 0 .174-.032.253-.032.158-.032.174-.19.206-.412.047-.316.047-.95.047-1.71v-1.425h.032Zm5.098 0c0-1.219 0-1.44-.016-1.694-.015-.269-.063-.396-.332-.427-.063-.016-.206-.016-.285-.016a.068.068 0 0 1-.063-.064c0-.047.031-.063.126-.063.365 0 .919.016.966.016.08 0 .776-.016 1.013-.016.523 0 1.093.048 1.52.349.206.142.57.522.57 1.076 0 .586-.237 1.14-.997 1.79.665.839 1.235 1.551 1.71 2.042.427.443.697.522.902.538.159.032.238.032.285.032.048 0 .08.031.08.063 0 .048-.048.063-.19.063h-.507c-.46 0-.665-.047-.87-.158-.35-.19-.65-.57-1.11-1.156-.347-.427-.696-.934-.87-1.14a.143.143 0 0 0-.11-.047l-1.03-.016c-.032 0-.063.016-.063.063v.19c0 .76 0 1.362.031 1.695.032.237.08.38.317.411.11.016.285.032.364.032.063 0 .063.031.063.063s-.031.063-.126.063c-.444 0-.966-.031-.998-.031-.016 0-.554.031-.807.031-.08 0-.127-.015-.127-.063 0-.032.016-.063.064-.063.079 0 .174-.016.253-.032.158-.032.174-.19.206-.412.047-.316.047-.95.047-1.71v-1.409h-.016Zm.697.665c0 .048.016.08.063.095.127.064.539.127.903.127.19 0 .412-.016.617-.142.285-.19.491-.602.491-1.204 0-.981-.538-1.552-1.409-1.552-.237 0-.507.032-.586.048a.107.107 0 0 0-.063.095v2.533h-.016Zm7.204-.665c0-1.235 0-1.456-.016-1.71-.016-.269-.063-.396-.332-.443-.064-.016-.206-.016-.285-.016-.032 0-.064-.032-.064-.063 0-.048.032-.064.127-.064.38 0 .887.016.934.016.159 0 1.948.016 2.138 0 .158-.016.3-.016.38-.031.047-.016.079-.048.11-.048.032 0 .064.032.064.08 0 .063-.032.142-.063.38-.016.079-.016.427-.032.522-.016.031-.032.079-.08.079-.03 0-.063-.032-.063-.095a.941.941 0 0 0-.079-.3c-.047-.096-.237-.238-.554-.238l-1.346-.016c-.047 0-.063.016-.063.079v2.17c0 .047 0 .078.063.078l1.124-.016c.143 0 .27 0 .38-.015.19-.016.301-.048.38-.143.032-.047.08-.079.111-.079.032 0 .048.032.048.063 0 .048-.064.174-.08.444a9.256 9.256 0 0 0-.031.538c0 .08-.016.158-.08.158-.047 0-.063-.031-.063-.079-.015-.079-.015-.19-.063-.285-.031-.11-.174-.221-.427-.253-.206-.032-1.172-.016-1.314-.016-.048 0-.064.016-.064.08v.632c0 .792 0 1.41.032 1.726.032.238.079.38.3.428.127.016.302.031.38.031.048 0 .064.032.064.064 0 .031-.032.063-.127.063-.459 0-.997-.032-1.029-.032-.047 0-.554.032-.807.032-.08 0-.127-.016-.127-.063 0-.032.016-.064.063-.064.08 0 .175-.031.254-.031.158-.032.174-.19.221-.428.048-.332.048-.95.048-1.726v-1.409h-.032Zm7.315-2.406c1.853 0 3.246 1.124 3.246 2.976 0 1.774-1.314 3.246-3.293 3.246-2.249 0-3.215-1.694-3.215-3.119 0-1.282.998-3.103 3.262-3.103Zm.19 5.89c.744 0 2.217-.396 2.217-2.692 0-1.9-1.156-2.913-2.454-2.913-1.378 0-2.36.855-2.36 2.58 0 1.869 1.109 3.025 2.597 3.025Zm4.782-3.484c0-1.235 0-1.456-.016-1.71-.016-.269-.063-.396-.332-.443-.064-.016-.206-.016-.285-.016a.068.068 0 0 1-.064-.063c0-.048.032-.064.127-.064.38 0 .918.016.966.016.079 0 .776-.016 1.029-.016.522 0 1.108.048 1.536.349.206.142.57.538.57 1.076 0 .586-.238 1.156-1.014 1.805.665.84 1.235 1.568 1.726 2.059.444.443.713.522.919.554.158.032.237.032.285.032.047 0 .079.031.079.063 0 .047-.048.063-.19.063h-.507c-.459 0-.665-.047-.871-.158-.348-.19-.649-.57-1.124-1.172-.348-.427-.712-.95-.887-1.156a.142.142 0 0 0-.11-.047l-1.045-.016c-.032 0-.064.016-.064.063v.19c0 .76 0 1.378.032 1.71.032.238.079.38.332.428.111.016.285.032.365.032.063 0 .063.031.063.063s-.032.063-.127.063c-.443 0-.966-.031-1.013-.031-.016 0-.554.031-.808.031-.079 0-.126-.016-.126-.063 0-.032.016-.063.063-.063.08 0 .174-.016.253-.032.159-.032.174-.19.222-.427.047-.333.047-.95.047-1.726v-1.394h-.031Zm.712.665c0 .048.016.08.064.095.126.064.538.127.902.127.19 0 .428-.016.618-.142.285-.19.491-.602.491-1.22 0-.997-.539-1.567-1.425-1.567a3.86 3.86 0 0 0-.586.047c-.032.016-.064.048-.064.095v2.565Z"/></svg>