<svg xmlns="http://www.w3.org/2000/svg" fill="none" aria-hidden="true" viewBox="0 0 116 116"><g id="Fisher Center for Alzheimer's Research Foundation"><g id="Group"><path id="Vector" fill="#0081C6" d="M113.1 2.89999H2.8999V113.1H113.1V2.89999Z"/><g id="Vector_2"><path fill="#FEFEFE" d="M59.7261 18.4642C59.9319 18.4326 60.0586 18.2426 60.0269 18.0367C59.9953 17.8309 59.8053 17.7042 59.5994 17.7359C59.3936 17.7676 59.2669 17.9576 59.2986 18.1634C59.3303 18.3534 59.5203 18.4959 59.7261 18.4642Z"/><path fill="#FEFEFE" d="M58.3803 27.6159C57.9844 27.6792 57.6994 28.0592 57.7786 28.4709C57.8419 28.8667 58.2219 29.1517 58.6336 29.0726C59.0453 28.9934 59.3144 28.6292 59.2353 28.2176C59.1719 27.8217 58.7919 27.5367 58.3803 27.6159Z"/><path fill="#FEFEFE" d="M56.4011 28.4076C56.0053 28.4709 55.7203 28.8509 55.7994 29.2626C55.8628 29.6584 56.2428 29.9434 56.6544 29.8642C57.0503 29.8009 57.3353 29.4209 57.2561 29.0092C57.1769 28.6134 56.7969 28.3284 56.4011 28.4076Z"/><path fill="#FEFEFE" d="M58.0319 25.3201C58.3803 25.2567 58.6178 24.9242 58.5703 24.5759C58.5069 24.2276 58.1744 23.9901 57.8261 24.0376C57.4778 24.1009 57.2403 24.4334 57.2878 24.7817C57.3353 25.1459 57.6836 25.3834 58.0319 25.3201Z"/><path fill="#FEFEFE" d="M57.7944 17.6092C58.0003 17.5776 58.1269 17.3876 58.0953 17.1817C58.0636 16.9759 57.8736 16.8492 57.6678 16.8809C57.4619 16.9126 57.3353 17.1026 57.3669 17.3084C57.4144 17.5142 57.6044 17.6409 57.7944 17.6092Z"/><path fill="#FEFEFE" d="M59.6944 27.1251C59.7578 27.5051 60.1219 27.7742 60.5019 27.7109C60.8819 27.6476 61.1511 27.2834 61.0878 26.9034C61.0244 26.5234 60.6603 26.2542 60.2803 26.3176C59.8844 26.3651 59.6311 26.7292 59.6944 27.1251Z"/><path fill="#FEFEFE" d="M62.2119 23.0876C61.9903 23.1192 61.8319 23.3409 61.8636 23.5626C61.8953 23.7842 62.1169 23.9426 62.3386 23.9109C62.5603 23.8792 62.7186 23.6576 62.6869 23.4359C62.6553 23.1984 62.4336 23.0401 62.2119 23.0876Z"/><path fill="#FEFEFE" d="M52.1578 28.7717C51.7619 28.8351 51.4769 29.2151 51.5561 29.6267C51.6194 30.0226 51.9994 30.3076 52.4111 30.2284C52.8069 30.1651 53.0919 29.7851 53.0128 29.3734C52.9336 28.9776 52.5536 28.7084 52.1578 28.7717Z"/><path fill="#FEFEFE" d="M54.2794 28.8667C53.8836 28.9301 53.5986 29.3101 53.6778 29.7217C53.7411 30.1176 54.1211 30.4026 54.5328 30.3234C54.9286 30.2601 55.2136 29.8801 55.1344 29.4684C55.0553 29.0726 54.6753 28.8034 54.2794 28.8667Z"/><path fill="#FEFEFE" d="M61.2303 19.8892C61.4361 19.8576 61.5628 19.6676 61.5311 19.4617C61.4994 19.2559 61.3094 19.1292 61.1036 19.1609C60.8978 19.1926 60.7711 19.3826 60.8028 19.5884C60.8503 19.7942 61.0403 19.9209 61.2303 19.8892Z"/><path fill="#FEFEFE" d="M61.1669 25.4784C61.2144 25.7634 61.4836 25.9534 61.7686 25.9059C62.0536 25.8584 62.2436 25.5892 62.1961 25.3042C62.1486 25.0192 61.8794 24.8292 61.5944 24.8767C61.3094 24.9084 61.1194 25.1776 61.1669 25.4784Z"/><path fill="#FEFEFE" d="M62.1644 21.8526C62.3861 21.8209 62.5444 21.5992 62.5128 21.3776C62.4811 21.1559 62.2594 20.9976 62.0378 21.0292C61.8161 21.0609 61.6578 21.2826 61.6894 21.5042C61.7211 21.7417 61.9428 21.8842 62.1644 21.8526Z"/><path fill="#FEFEFE" d="M49.4028 20.0159C49.6244 19.9842 49.7828 19.7626 49.7511 19.5409C49.7194 19.3192 49.4978 19.1609 49.2761 19.1926C49.0544 19.2242 48.8961 19.4459 48.9278 19.6676C48.9594 19.9051 49.1811 20.0476 49.4028 20.0159Z"/><path fill="#FEFEFE" d="M51.2394 18.1159C51.2078 17.9101 51.0178 17.7834 50.8119 17.8151C50.6061 17.8467 50.4794 18.0367 50.5111 18.2426C50.5428 18.4484 50.7328 18.5751 50.9386 18.5434C51.1444 18.5117 51.2869 18.3217 51.2394 18.1159Z"/><path fill="#FEFEFE" d="M55.4194 17.3401C55.6253 17.3084 55.7519 17.1184 55.7203 16.9126C55.6886 16.7067 55.4986 16.5801 55.2928 16.6117C55.0869 16.6434 54.9603 16.8334 54.9919 17.0392C55.0394 17.2451 55.2294 17.3717 55.4194 17.3401Z"/><path fill="#FEFEFE" d="M54.1211 26.8876C54.1844 26.9034 54.2636 26.9034 54.3428 26.8876C54.7386 26.8242 55.0236 26.4442 54.9444 26.0326C54.8811 25.6526 54.5328 25.3992 54.1528 25.4151C54.1369 25.4151 54.1053 25.4151 54.0894 25.4151C53.6936 25.4784 53.4086 25.8584 53.4878 26.2701C53.5353 26.6026 53.8044 26.8401 54.1211 26.8876Z"/><path fill="#FEFEFE" d="M55.5461 25.7792C55.5461 26.1751 55.8628 26.4759 56.2586 26.4759C56.6228 26.4759 56.9078 26.2067 56.9553 25.8584C56.9553 25.8267 56.9711 25.7951 56.9711 25.7634C56.9711 25.3676 56.6544 25.0509 56.2586 25.0509C55.8628 25.0509 55.5461 25.3834 55.5461 25.7792Z"/><path fill="#FEFEFE" d="M52.9653 17.6409C53.1711 17.6092 53.2978 17.4192 53.2661 17.2134C53.2344 17.0076 53.0444 16.8809 52.8386 16.9126C52.6328 16.9442 52.5061 17.1342 52.5378 17.3401C52.5853 17.5459 52.7753 17.6726 52.9653 17.6409Z"/><path fill="white" fill-rule="evenodd" d="M63.4944 56.3692C63.4628 59.3776 62.6869 63.6367 58.6811 64.7767L64.7136 63.7317C65.1411 61.5309 65.3311 59.2667 65.1569 56.9234C64.9828 54.3742 64.3653 52.2367 63.2886 49.1492C62.9086 48.0726 62.4178 47.0117 61.9269 45.9826L61.9172 45.962C61.2552 44.5591 60.5636 43.0936 60.2169 41.5967C59.9161 40.3459 60.1219 39.9501 60.2169 39.8392C60.2644 39.7917 60.3436 39.7284 60.5653 39.7442C61.014 39.7906 61.4929 40.0941 61.9578 40.3887L61.9903 40.4092L62.0573 40.4502C62.3154 40.6082 62.5499 40.7517 62.7978 40.8684C64.0803 41.4701 65.0936 41.5492 65.8853 41.0901C66.5031 40.7348 66.6538 40.0632 66.7931 39.4426L66.8036 39.3959C66.8828 39.0476 66.9619 38.6992 67.1044 38.4459C67.1678 38.3351 67.2944 38.2876 67.5161 38.2401L67.5474 38.2315C67.7129 38.1867 67.8906 38.1384 68.0544 38.0342C68.2286 37.9234 68.3394 37.7334 68.3711 37.5117C68.3869 37.4484 68.3869 37.3851 68.3869 37.3217C68.3869 37.0684 68.3236 36.7834 68.2286 36.5142C68.7036 36.4351 69.1786 36.2926 69.5586 35.9917C69.6378 35.9442 69.6694 35.8651 69.6694 35.7859C69.6694 35.7542 69.6694 35.7384 69.6536 35.7067L69.6219 35.6117C69.5744 35.4851 69.5586 35.3426 69.5586 35.2001C69.5586 34.9784 69.6061 34.7567 69.7011 34.5667C69.8594 34.2342 70.1444 34.1551 70.6036 34.0442C70.9678 33.9651 71.3794 33.8701 71.6803 33.5376C71.8386 33.3634 71.9019 33.1417 71.9019 32.8884C71.9019 32.2076 71.4428 31.3209 71.1103 30.7509L70.9361 30.4659C70.4769 29.7059 70.0494 28.9934 69.7011 28.2017C69.6219 28.0117 69.5744 27.7901 69.5744 27.5684C69.5744 27.3467 69.6378 27.1409 69.7644 27.0142C70.3344 26.4759 70.6194 25.7634 70.6194 24.9084V24.7184C70.6194 24.7184 70.5403 24.0376 70.4611 23.3409C70.4453 23.1351 70.4294 22.9292 70.3977 22.7234C70.3819 22.4701 70.3503 22.2009 70.3028 21.9951C70.3028 21.9634 70.2869 21.9317 70.2711 21.9159C69.2419 17.1659 64.6186 14.2526 57.4461 13.9834C51.0811 13.7459 44.8744 17.3401 44.1144 21.6784C44.1144 21.6863 44.1105 21.6982 44.1065 21.7101C44.1026 21.7219 44.0986 21.7338 44.0986 21.7417V21.7734C44.0828 21.7892 44.0828 21.8051 44.0828 21.8209V21.8842C44.0669 21.9001 44.0669 21.9159 44.0669 21.9317V21.9951C44.0511 22.0109 44.0511 22.0267 44.0511 22.0426V22.1059C44.0353 22.1217 44.0353 22.1376 44.0353 22.1534V22.1851C44.0194 22.2009 44.0194 22.2167 44.0194 22.2326V22.2801C44.0036 22.2959 44.0036 22.3117 44.0036 22.3276V22.3909C43.9878 22.4067 43.9878 22.4226 43.9878 22.4384V22.4859C43.9719 22.5017 43.9719 22.5176 43.9719 22.5334C43.9561 22.5651 43.9561 22.5809 43.9561 22.6126C43.9561 22.6205 43.9521 22.6324 43.9482 22.6442C43.9442 22.6561 43.9403 22.668 43.9403 22.6759C43.9403 22.6996 43.9363 22.7274 43.9323 22.7551C43.9284 22.7828 43.9244 22.8105 43.9244 22.8342C43.9086 22.8501 43.9086 22.8501 43.9086 22.8659C43.6553 24.2434 44.0511 25.6367 45.0486 26.8717C46.1253 28.2176 47.7719 29.2467 49.7511 29.8642L49.7578 29.8655C49.9472 29.9 50.8303 30.0612 51.0336 29.3417C51.1919 28.7717 50.8119 28.4867 50.5586 28.3601C48.5161 27.7742 46.8061 26.7609 45.7294 25.4151C45.6819 25.3676 45.6344 25.3042 45.5869 25.2409C44.8111 24.1642 44.5103 23.0084 44.7003 21.8526C45.0169 19.9684 46.5528 18.0684 48.9278 16.6751C51.4294 15.2026 54.4694 14.4584 57.4936 14.5692C61.1828 14.7117 64.2861 15.5984 66.4553 17.1184C68.3236 18.4484 69.4636 20.1901 69.8436 22.3276C69.8713 22.4938 69.899 22.745 69.9267 22.9961L69.9323 23.0468C69.9344 23.0657 69.9365 23.0846 69.9386 23.1034C69.9544 23.2934 69.9544 23.4834 69.9544 23.6576C69.9544 23.8476 69.9544 24.0217 69.9386 24.1642C69.9069 24.4967 69.7011 24.9876 69.5111 25.2884C69.4398 25.3953 69.3686 25.4754 69.2973 25.5556C69.2736 25.5823 69.2498 25.609 69.2261 25.6367L69.2216 25.6417C69.0803 25.7987 68.9243 25.9721 68.8303 26.2384C68.7828 26.4126 68.7511 26.6026 68.7511 26.7926C68.7511 27.7426 69.3211 28.8667 69.6061 29.3734L69.6536 29.4526C70.0969 30.2442 70.4928 30.9251 70.9678 31.6851C70.9994 31.7326 71.0469 31.8434 71.0786 31.9384C71.0786 31.9621 71.0825 31.9819 71.0865 32.0017C71.0905 32.0215 71.0944 32.0413 71.0944 32.0651C71.0944 32.1759 71.0628 32.2867 70.9994 32.3817C70.9044 32.5401 70.6036 32.5876 70.3661 32.6192L70.2236 32.6509C69.7011 32.7459 69.2736 33.0309 68.9886 33.4742C68.8303 33.7276 68.7828 34.0126 68.7828 34.2817C68.7828 34.5192 68.8303 34.7251 68.8619 34.8517C68.6719 34.9784 68.0386 35.1367 67.4369 35.2159C67.4053 35.2159 67.3736 35.2317 67.3419 35.2476C67.3103 35.2687 67.2927 35.2898 67.2751 35.3109C67.2663 35.3214 67.2575 35.332 67.2469 35.3426C67.2469 35.3505 67.243 35.3544 67.239 35.3584C67.235 35.3624 67.2311 35.3663 67.2311 35.3742C67.2278 35.3841 67.2245 35.3934 67.2213 35.4022C67.2093 35.4356 67.1994 35.4633 67.1994 35.5009V35.5326C67.2085 35.5417 67.2124 35.5455 67.214 35.5502C67.2153 35.5536 67.2153 35.5575 67.2153 35.5642V35.5959C67.2153 35.5959 67.3419 35.9126 67.4211 36.1342L67.4394 36.1863C67.5204 36.416 67.551 36.5027 67.5953 36.5617C67.5953 36.5617 67.6111 36.5776 67.6269 36.6092C67.5952 36.7517 67.3736 36.8467 67.3261 36.8626C66.5819 37.1159 66.3603 37.3059 66.1069 38.1292L65.9961 38.5092C65.7428 39.4276 65.5686 39.9026 64.7294 40.0134C63.6678 40.1539 62.4215 39.4016 61.5065 38.8493L61.4678 38.8259L61.4044 38.7784C60.6128 38.2876 60.1219 38.3826 59.8528 38.5409C59.6153 38.6992 59.3461 39.0159 59.3461 39.7601V39.9659C59.4218 41.1779 59.8745 42.3464 60.3157 43.4853L60.3753 43.6392L60.5811 44.1776C60.8028 44.7476 61.0561 45.3176 61.3094 45.8717C61.335 45.929 61.3607 45.9864 61.3864 46.0438L61.3872 46.0456C61.6954 46.734 62.0087 47.4338 62.2278 48.1201C62.5761 49.1809 62.8453 50.3051 63.0669 51.5559C63.2569 52.6009 63.3836 53.6776 63.4469 54.7859C63.3836 53.8676 63.2728 53.2817 63.2728 53.2817L63.4628 55.1342C63.4786 55.5458 63.4944 55.9576 63.4944 56.3692ZM51.5403 29.6267C51.6036 30.0226 51.9994 30.2917 52.3953 30.2284C52.7911 30.1651 53.0761 29.7851 52.9969 29.3734C52.9336 28.9776 52.5378 28.7084 52.1419 28.7717C51.7461 28.8351 51.4769 29.2309 51.5403 29.6267ZM53.6619 29.7217C53.7253 30.1176 54.1211 30.3867 54.5169 30.3234C54.9286 30.2601 55.1978 29.8801 55.1186 29.4684C55.0553 29.0726 54.6594 28.8034 54.2636 28.8667C53.8678 28.9301 53.5986 29.3259 53.6619 29.7217ZM62.3386 23.8951C62.5761 23.8634 62.7186 23.6417 62.6869 23.4201C62.6553 23.1984 62.4336 23.0401 62.2119 23.0717C61.9744 23.1034 61.8319 23.3251 61.8636 23.5467C61.8953 23.7842 62.1169 23.9267 62.3386 23.8951ZM62.5128 21.3776C62.4811 21.1401 62.2594 20.9976 62.0378 21.0292C61.8003 21.0767 61.6578 21.2826 61.6894 21.5042C61.7211 21.7417 61.9428 21.8842 62.1644 21.8526C62.4019 21.8209 62.5444 21.5992 62.5128 21.3776ZM61.7844 25.9059C62.0694 25.8584 62.2594 25.5892 62.2119 25.3042C62.1644 25.0034 61.8794 24.8134 61.6103 24.8767C61.3253 24.9242 61.1353 25.1934 61.1828 25.4784C61.2303 25.7634 61.4994 25.9534 61.7844 25.9059ZM61.5469 19.4776C61.4994 19.2717 61.3253 19.1451 61.1194 19.1767C60.9136 19.2084 60.7869 19.3984 60.8186 19.6042C60.8661 19.8101 61.0403 19.9367 61.2461 19.9051C61.4519 19.8576 61.5786 19.6834 61.5469 19.4776ZM60.5019 27.6951C60.8978 27.6317 61.1511 27.2676 61.0878 26.8876C61.0244 26.5076 60.6603 26.2384 60.2803 26.3017C59.8844 26.3651 59.6311 26.7292 59.6944 27.1092C59.7578 27.5051 60.1219 27.7584 60.5019 27.6951ZM60.0269 18.0367C59.9794 17.8309 59.8053 17.7042 59.5994 17.7359C59.4094 17.7676 59.2669 17.9576 59.2986 18.1634C59.3461 18.3692 59.5203 18.4959 59.7261 18.4642C59.9319 18.4167 60.0586 18.2426 60.0269 18.0367ZM57.7786 28.4709C57.8419 28.8667 58.2378 29.1359 58.6336 29.0726C59.0294 29.0092 59.2986 28.6134 59.2353 28.2176C59.1719 27.8217 58.7761 27.5526 58.3803 27.6159C57.9844 27.6792 57.7153 28.0751 57.7786 28.4709ZM58.6969 23.4834C58.9819 23.4359 59.1719 23.1667 59.1244 22.8817C59.0769 22.5967 58.8078 22.4067 58.5228 22.4542C58.2378 22.5017 58.0478 22.7709 58.0953 23.0559C58.1428 23.3409 58.4119 23.5309 58.6969 23.4834ZM58.0161 21.6151C58.2536 21.5834 58.3961 21.3617 58.3644 21.1401C58.3169 20.9184 58.1111 20.7601 57.8894 20.7917C57.6519 20.8234 57.5094 21.0451 57.5411 21.2667C57.5728 21.5042 57.7944 21.6467 58.0161 21.6151ZM58.1111 17.1817C58.0636 16.9759 57.8894 16.8492 57.6836 16.8809C57.4778 16.9284 57.3511 17.1026 57.3828 17.3084C57.4303 17.5142 57.6044 17.6409 57.8103 17.6092C58.0161 17.5617 58.1428 17.3876 58.1111 17.1817ZM58.5544 24.5917C58.4911 24.2276 58.1586 23.9901 57.8103 24.0534C57.4619 24.1009 57.2244 24.4334 57.2719 24.7976C57.3353 25.1617 57.6678 25.3992 58.0161 25.3359C58.3803 25.2726 58.6178 24.9401 58.5544 24.5917ZM56.6386 29.8642C57.0344 29.8009 57.3036 29.4051 57.2403 29.0092C57.1769 28.6134 56.7969 28.3284 56.3853 28.4076C55.9894 28.4709 55.7203 28.8667 55.7836 29.2626C55.8469 29.6584 56.2428 29.9276 56.6386 29.8642ZM56.6228 20.4276C56.5911 20.1901 56.3694 20.0476 56.1478 20.0792C55.9103 20.1109 55.7678 20.3326 55.7994 20.5542C55.8311 20.7917 56.0528 20.9342 56.2744 20.9026C56.5119 20.8709 56.6544 20.6492 56.6228 20.4276ZM56.9553 25.7792C56.9553 25.3834 56.6386 25.0667 56.2428 25.0667C55.8628 25.0667 55.5461 25.3834 55.5303 25.7951C55.5461 26.1751 55.8469 26.4917 56.2428 26.4917C56.6069 26.4917 56.8919 26.2226 56.9394 25.8742C56.9553 25.8426 56.9553 25.8109 56.9553 25.7792ZM55.7361 16.9284C55.6886 16.7226 55.5144 16.5959 55.3086 16.6276C55.1028 16.6592 54.9761 16.8492 55.0078 17.0551C55.0553 17.2609 55.2294 17.3876 55.4353 17.3559C55.6411 17.3084 55.7678 17.1342 55.7361 16.9284ZM54.7861 20.4434C54.7386 20.2376 54.5644 20.1109 54.3586 20.1426C54.1528 20.1742 54.0261 20.3642 54.0578 20.5701C54.1053 20.7759 54.2794 20.9026 54.4853 20.8709C54.6911 20.8234 54.8178 20.6492 54.7861 20.4434ZM54.1528 25.4309H54.0894C53.6778 25.4942 53.4086 25.8742 53.4878 26.3017C53.5353 26.6184 53.8044 26.8559 54.1211 26.9034C54.2003 26.9192 54.2636 26.9192 54.3428 26.9034C54.7386 26.8401 55.0078 26.4442 54.9444 26.0484C54.8811 25.6684 54.5328 25.3992 54.1528 25.4309ZM53.2819 17.2292C53.2344 17.0234 53.0603 16.8967 52.8544 16.9284C52.6486 16.9601 52.5219 17.1501 52.5536 17.3559C52.6011 17.5617 52.7753 17.6884 52.9811 17.6567C53.1869 17.6092 53.3136 17.4351 53.2819 17.2292ZM53.5194 21.5359C53.4878 21.3459 53.3136 21.2192 53.1236 21.2509C52.9336 21.2826 52.8069 21.4726 52.8386 21.6467C52.8703 21.8367 53.0444 21.9634 53.2344 21.9317C53.4244 21.9001 53.5511 21.7259 53.5194 21.5359ZM52.7278 25.6842C52.6644 25.2884 52.2686 25.0192 51.8728 25.0826C51.4769 25.1617 51.1919 25.5417 51.2711 25.9376C51.3344 26.3334 51.7303 26.6026 52.1261 26.5392C52.5219 26.4759 52.7911 26.0801 52.7278 25.6842ZM49.7511 19.5409C49.7194 19.3034 49.4978 19.1609 49.2761 19.1926C49.0386 19.2242 48.8961 19.4459 48.9278 19.6676C48.9594 19.9051 49.1811 20.0476 49.4028 20.0159C49.6403 19.9842 49.7828 19.7626 49.7511 19.5409ZM48.1836 21.4567C48.1519 21.2351 48.2944 21.0134 48.5319 20.9817C48.3103 21.0134 48.1519 21.2351 48.1836 21.4567ZM48.5319 20.9817C48.7536 20.9501 48.9753 21.0926 49.0069 21.3301C48.9753 21.1084 48.7536 20.9501 48.5319 20.9817ZM49.0069 21.3301C49.0386 21.5517 48.8961 21.7734 48.6586 21.8051C48.8803 21.7734 49.0386 21.5517 49.0069 21.3301ZM48.2311 23.3251C48.2944 23.6576 48.5953 23.8634 48.9119 23.8159C49.2444 23.7526 49.4503 23.4517 49.4028 23.1351C49.3394 22.8026 49.0386 22.5967 48.7219 22.6442C48.3894 22.7076 48.1836 23.0084 48.2311 23.3251ZM49.9411 24.2276C49.5453 24.2909 49.2919 24.6551 49.3553 25.0351C49.3869 25.2884 49.5769 25.4942 49.8303 25.5892C49.9411 25.6209 50.0519 25.6367 50.1786 25.6209C50.5744 25.5576 50.8278 25.1934 50.7644 24.8134C50.7328 24.5917 50.6061 24.4334 50.4319 24.3226C50.2894 24.2434 50.1153 24.1959 49.9411 24.2276ZM50.5111 18.2426C50.5586 18.4484 50.7328 18.5751 50.9386 18.5434C51.1444 18.5117 51.2869 18.3217 51.2394 18.1159C51.1919 17.9101 51.0178 17.7834 50.8119 17.8151C50.6061 17.8626 50.4794 18.0367 50.5111 18.2426Z" clip-rule="evenodd"/><path fill="white" d="M48.1836 21.4567C48.2153 21.6784 48.4369 21.8367 48.6586 21.8051C48.8803 21.7734 49.0386 21.5517 49.0069 21.3301C48.9753 21.1084 48.7536 20.9501 48.5319 20.9817C48.3103 21.0134 48.1519 21.2351 48.1836 21.4567Z"/><path fill="#FEFEFE" d="M16.0893 82.1617C16.2635 81.6867 16.3268 81.5917 16.406 81.5917C16.501 81.5917 16.5485 81.6709 16.7227 82.1142C16.9443 82.6684 19.2243 88.6692 20.111 90.8859C20.6335 92.1842 21.061 92.4059 21.3618 92.5009C21.5835 92.5801 21.8052 92.5959 21.9477 92.5959C22.0427 92.5959 22.0902 92.6117 22.0902 92.6909C22.0902 92.77 21.9635 92.8017 21.8052 92.8017C21.5835 92.8017 20.5227 92.8017 19.5252 92.7701C19.256 92.7542 19.0818 92.7542 19.0818 92.6751C19.0818 92.6117 19.1293 92.5801 19.1768 92.5801C19.2718 92.5484 19.351 92.4217 19.2718 92.1842L17.926 88.6059C17.8943 88.5426 17.8627 88.5109 17.7993 88.5109H14.6643C14.5852 88.5109 14.5535 88.5584 14.5218 88.6217L13.651 91.2026C13.5243 91.5667 13.4452 91.9151 13.4452 92.1842C13.4452 92.4692 13.746 92.6117 13.9993 92.6117H14.1418C14.2368 92.6117 14.2843 92.6434 14.2843 92.7067C14.2843 92.7859 14.1893 92.8176 14.0627 92.8176C13.7143 92.8176 13.081 92.7701 12.9227 92.7701C12.7643 92.7701 11.9568 92.8176 11.276 92.8176C11.086 92.8176 11.0068 92.7859 11.0068 92.7067C11.0068 92.6434 11.0702 92.6117 11.1335 92.6117C11.2285 92.6117 11.4343 92.5959 11.561 92.5801C12.226 92.4851 12.5268 91.9467 12.7802 91.2184L16.0893 82.1617ZM17.6093 87.9726C17.6885 87.9726 17.6885 87.9251 17.6727 87.8776L16.2952 83.9509C16.216 83.7292 16.1527 83.7292 16.0735 83.9509L14.791 87.8776C14.7593 87.9567 14.791 87.9726 14.8385 87.9726H17.6093Z"/><path fill="#FEFEFE" d="M25.0035 89.2234C25.0035 91.0442 25.0352 91.7884 25.2727 91.9942C25.4785 92.2001 25.9693 92.2792 26.9668 92.2792C27.6318 92.2792 28.2018 92.2634 28.5027 91.8992C28.661 91.7092 28.7718 91.4559 28.8035 91.2026C28.8193 91.1076 28.8668 91.0442 28.9302 91.0442C28.9935 91.0442 29.0252 91.1076 29.0252 91.2342C29.0252 91.3609 28.9302 92.1051 28.8352 92.4692C28.7402 92.7542 28.7085 92.8017 28.0277 92.8017C27.1093 92.8017 26.3968 92.7859 25.811 92.7542C25.2252 92.7384 24.7977 92.7225 24.4177 92.7225C24.3543 92.7225 24.1485 92.7226 23.8952 92.7384C23.626 92.7542 23.3568 92.7701 23.151 92.7701C23.0243 92.7701 22.9452 92.7384 22.9452 92.6751C22.9452 92.6276 22.9768 92.5801 23.0402 92.5801C23.151 92.5801 23.3093 92.5484 23.436 92.5167C23.6893 92.4534 23.7052 92.2317 23.7685 91.8676C23.8477 91.3609 23.8477 90.3792 23.8477 89.1917V87.0067C23.8477 85.0909 23.8477 84.7426 23.816 84.3467C23.7843 83.9192 23.721 83.7292 23.2935 83.6659C23.1985 83.6501 22.9768 83.6342 22.8502 83.6342C22.8027 83.6342 22.7552 83.5709 22.7552 83.5392C22.7552 83.4601 22.8185 83.4442 22.961 83.4442C23.5468 83.4442 24.3385 83.4759 24.4177 83.4759C24.481 83.4759 25.431 83.4442 25.8268 83.4442C25.9535 83.4442 26.0327 83.4759 26.0327 83.5392C26.0327 83.5867 25.9693 83.6342 25.9377 83.6342C25.8427 83.6342 25.6685 83.6501 25.5102 83.6659C25.1302 83.7451 25.0668 83.9351 25.0352 84.3626C25.0193 84.7584 25.0193 85.1067 25.0193 87.0225V89.2234H25.0035Z"/><path fill="#FEFEFE" d="M35.2793 92.2159C36.6252 92.2159 36.9735 91.9942 37.2743 91.6459C37.401 91.4876 37.496 91.155 37.5435 90.9809C37.5752 90.87 37.6227 90.7909 37.686 90.7909C37.7652 90.7909 37.781 90.8384 37.781 91.0601C37.781 91.4559 37.6068 92.1842 37.5118 92.4851C37.4327 92.7859 37.4168 92.8017 37.1318 92.8017C34.9943 92.8017 32.8252 92.7384 30.5927 92.7384C30.4502 92.7384 30.3552 92.7226 30.3552 92.6434C30.3552 92.5801 30.371 92.5009 30.5293 92.2634C32.4452 89.4926 34.3452 86.7376 36.1027 83.9826H33.3952C32.746 83.9826 31.986 83.9667 31.5743 84.1884C31.131 84.4259 30.8935 84.8692 30.846 85.17C30.8143 85.36 30.751 85.3917 30.6718 85.3917C30.6085 85.3917 30.5927 85.3284 30.5927 85.2334C30.5927 85.0909 30.7827 83.9667 30.8618 83.5867C30.8777 83.4126 30.9093 83.3492 30.9727 83.3492C31.0835 83.3492 31.1785 83.4284 31.511 83.4442C32.7302 83.4917 33.3477 83.4759 33.7435 83.4759H37.3218C37.5118 83.4759 37.591 83.5076 37.591 83.5709C37.591 83.6342 37.5752 83.7134 37.5118 83.7926C35.6435 86.6426 33.791 89.3975 31.8593 92.2159H35.2793Z"/><path fill="#FEFEFE" d="M48.2943 89.2075C48.2943 90.395 48.3102 91.3767 48.3735 91.8834C48.421 92.2476 48.4527 92.485 48.8327 92.5325C49.0068 92.5642 49.2918 92.5959 49.4027 92.5959C49.4977 92.5959 49.5135 92.6592 49.5135 92.6909C49.5135 92.7542 49.4343 92.7859 49.2918 92.7859C48.5952 92.7859 47.7718 92.7384 47.7085 92.7384C47.6452 92.7384 46.8218 92.7859 46.4418 92.7859C46.2993 92.7859 46.236 92.7542 46.236 92.6909C46.236 92.6434 46.2677 92.5959 46.331 92.5959C46.4418 92.5959 46.6002 92.5642 46.711 92.5325C46.9802 92.4692 47.0118 92.2317 47.0593 91.8676C47.1227 91.3609 47.1227 90.4267 47.1227 89.2392V88.0042C47.1227 87.9409 47.091 87.9251 47.0435 87.9251H41.7077C41.6602 87.9251 41.6285 87.9409 41.6285 88.0042V89.2392C41.6285 90.4267 41.6285 91.3767 41.6918 91.8834C41.7393 92.2476 41.7868 92.485 42.151 92.5325C42.341 92.5642 42.6102 92.5959 42.7368 92.5959C42.816 92.5959 42.8318 92.6592 42.8318 92.6909C42.8318 92.7542 42.7685 92.7859 42.626 92.7859C41.9135 92.7859 41.106 92.7384 41.0427 92.7384C40.9635 92.7384 40.156 92.7859 39.7602 92.7859C39.6335 92.7859 39.5543 92.7542 39.5543 92.6909C39.5543 92.6434 39.586 92.5959 39.6493 92.5959C39.7602 92.5959 39.9185 92.5642 40.0452 92.5325C40.2985 92.4692 40.3143 92.2476 40.3777 91.8834C40.4568 91.3767 40.4568 90.395 40.4568 89.2075V87.0225C40.4568 85.1067 40.4568 84.7584 40.4252 84.3626C40.3935 83.9351 40.3302 83.7451 39.9027 83.6817C39.8077 83.6659 39.586 83.6501 39.4593 83.6501C39.4118 83.6501 39.3643 83.5867 39.3643 83.5551C39.3643 83.4759 39.4277 83.4601 39.5702 83.4601C40.156 83.4601 40.9635 83.4917 41.0427 83.4917C41.106 83.4917 41.9135 83.4601 42.3093 83.4601C42.4518 83.4601 42.5152 83.4917 42.5152 83.5551C42.5152 83.6026 42.4518 83.6501 42.4202 83.6501C42.3252 83.6501 42.246 83.6501 42.1035 83.6817C41.7552 83.7609 41.676 83.9351 41.6443 84.3626C41.6285 84.7584 41.6285 85.1384 41.6285 87.0542V87.3234C41.6285 87.4026 41.6602 87.4026 41.7077 87.4026H47.0435C47.091 87.4026 47.1227 87.4026 47.1227 87.3234V87.0542C47.1227 85.1384 47.1068 84.7584 47.091 84.3626C47.0593 83.9351 46.996 83.7451 46.5843 83.6817C46.4893 83.6659 46.2677 83.6501 46.141 83.6501C46.0777 83.6501 46.046 83.5867 46.046 83.5551C46.046 83.4759 46.1093 83.4601 46.2518 83.4601C46.8218 83.4601 47.6452 83.4917 47.7085 83.4917C47.7877 83.4917 48.5952 83.4601 48.9752 83.4601C49.1177 83.4601 49.1968 83.4917 49.1968 83.5551C49.1968 83.6026 49.1335 83.6501 49.086 83.6501C48.991 83.6501 48.9277 83.6501 48.7693 83.6817C48.4368 83.7609 48.3577 83.9351 48.326 84.3626C48.2943 84.7584 48.2943 85.1067 48.2943 87.0225V89.2075Z"/><path fill="#FEFEFE" d="M52.506 87.0225C52.506 85.1067 52.506 84.7584 52.4743 84.3626C52.4427 83.9351 52.3793 83.7451 51.9518 83.6817C51.8568 83.6659 51.6352 83.6501 51.5085 83.6501C51.461 83.6501 51.4135 83.5867 51.4135 83.5551C51.4135 83.4759 51.4768 83.4601 51.6193 83.4601C52.2052 83.4601 53.0285 83.4917 53.1077 83.4917C53.2027 83.4917 55.8627 83.5076 56.1635 83.4917C56.4168 83.4759 56.6385 83.4284 56.7493 83.4126C56.8127 83.3967 56.8602 83.3492 56.9235 83.3492C56.971 83.3492 56.9868 83.4126 56.9868 83.4601C56.9868 83.5551 56.9077 83.6976 56.8918 84.0459C56.876 84.1567 56.8443 84.7109 56.8127 84.8534C56.7968 84.9167 56.7493 84.9801 56.7018 84.9801C56.6227 84.9801 56.6068 84.9167 56.6068 84.8217C56.6068 84.7267 56.591 84.5367 56.5277 84.3784C56.4485 84.1726 56.306 84.0934 55.6093 83.9984C55.3877 83.9667 53.9152 83.9509 53.7568 83.9509C53.6935 83.9509 53.6777 83.9984 53.6777 84.0776V87.4501C53.6777 87.5451 53.6777 87.5767 53.7568 87.5767C53.9152 87.5767 55.6093 87.5767 55.8943 87.545C56.1952 87.5134 56.3852 87.4976 56.5118 87.3709C56.6068 87.2759 56.6543 87.2126 56.7018 87.2126C56.7493 87.2126 56.781 87.2442 56.781 87.3076C56.781 87.3867 56.7018 87.5767 56.686 87.9884C56.6543 88.2417 56.6227 88.7009 56.6227 88.7959C56.6227 88.8909 56.591 89.0334 56.5118 89.0334C56.4485 89.0334 56.4168 88.9859 56.4168 88.9225C56.4168 88.8117 56.4168 88.6692 56.3535 88.5109C56.306 88.3367 56.1952 88.1942 55.7043 88.1309C55.356 88.0834 53.9943 88.0676 53.7727 88.0676C53.6935 88.0676 53.6777 88.1151 53.6777 88.1467V89.1759C53.6777 89.6034 53.6618 91.0442 53.6777 91.2817C53.7093 92.1051 53.9468 92.2634 55.1977 92.2634C55.5302 92.2634 56.1477 92.2634 56.4802 92.1367C56.8127 91.9942 56.9868 91.7726 57.066 91.2817C57.0977 91.1392 57.1293 91.0917 57.1927 91.0917C57.2718 91.0917 57.2877 91.1867 57.2877 91.2817C57.2877 91.3767 57.1927 92.2159 57.1135 92.4692C57.0343 92.7859 56.8918 92.7859 56.401 92.7859C55.4352 92.7859 54.7068 92.7542 54.1843 92.7384C53.646 92.7067 53.3135 92.7067 53.1235 92.7067C53.0918 92.7067 52.8543 92.7067 52.5693 92.7225C52.316 92.7384 52.031 92.7542 51.8252 92.7542C51.6985 92.7542 51.6193 92.7226 51.6193 92.6592C51.6193 92.6117 51.651 92.5642 51.7143 92.5642C51.8252 92.5642 51.9835 92.5167 52.1102 92.5009C52.3635 92.4534 52.3793 92.2159 52.4427 91.8517C52.5218 91.345 52.5218 90.3634 52.5218 89.1759V87.0225H52.506Z"/><path fill="#FEFEFE" d="M61.6893 89.2075C61.6893 90.395 61.6893 91.3767 61.7527 91.8834C61.8002 92.2476 61.8477 92.485 62.2118 92.5325C62.4018 92.5642 62.671 92.5959 62.7977 92.5959C62.8768 92.5959 62.8927 92.6592 62.8927 92.6909C62.8927 92.7542 62.8293 92.7859 62.6868 92.7859C61.9743 92.7859 61.151 92.7384 61.0877 92.7384C61.0085 92.7384 60.2168 92.7859 59.821 92.7859C59.6943 92.7859 59.6152 92.7542 59.6152 92.6909C59.6152 92.6434 59.6468 92.5959 59.7102 92.5959C59.821 92.5959 59.9793 92.5642 60.106 92.5325C60.3593 92.4692 60.391 92.2476 60.4385 91.8834C60.5018 91.3767 60.5177 90.395 60.5177 89.2075V87.0225C60.5177 85.1067 60.5177 84.7584 60.486 84.3626C60.4543 83.9351 60.3593 83.7451 60.0743 83.6976C59.9318 83.6659 59.7735 83.6501 59.6785 83.6501C59.6152 83.6501 59.5835 83.5867 59.5835 83.5551C59.5835 83.4759 59.6468 83.4601 59.7893 83.4601C60.2168 83.4601 61.0085 83.4917 61.0877 83.4917C61.151 83.4917 61.9743 83.4601 62.3702 83.4601C62.5127 83.4601 62.576 83.4917 62.576 83.5551C62.576 83.6026 62.5127 83.6501 62.481 83.6501C62.386 83.6501 62.3068 83.6501 62.1643 83.6817C61.816 83.7609 61.7368 83.9351 61.721 84.3626C61.7052 84.7584 61.7052 85.1067 61.7052 87.0225V89.2075H61.6893Z"/><path fill="#FEFEFE" d="M75.7493 91.1867C75.7968 91.63 75.876 92.2951 76.3985 92.4692C76.7627 92.5801 77.0952 92.5801 77.2218 92.5801C77.2852 92.5801 77.3168 92.6117 77.3168 92.6751C77.3168 92.7542 77.206 92.7859 77.0476 92.7859C76.7627 92.7859 75.3377 92.7542 74.8627 92.7067C74.5618 92.6751 74.4985 92.6276 74.4985 92.5801C74.4985 92.5326 74.5302 92.4851 74.5935 92.4851C74.6727 92.4692 74.6727 92.2792 74.6568 92.0417L74.0393 85.7876H74.0077L70.9202 92.1051C70.651 92.6434 70.5877 92.7542 70.4768 92.7542C70.366 92.7542 70.2868 92.6434 70.0335 92.1842C69.701 91.5667 68.8618 89.9834 68.5293 89.3184C68.1493 88.5267 67.1202 86.4526 66.8985 85.9459H66.8352L66.3443 91.5351C66.3285 91.7251 66.3285 91.9625 66.3285 92.1684C66.3285 92.3584 66.4393 92.4692 66.6293 92.5167C66.851 92.5801 67.041 92.5959 67.1202 92.5959C67.1677 92.5959 67.2152 92.6434 67.2152 92.6909C67.2152 92.77 67.1202 92.8017 66.9777 92.8017C66.5027 92.8017 65.8852 92.7542 65.7902 92.7542C65.6793 92.7542 65.0618 92.8017 64.7135 92.8017C64.5868 92.8017 64.4918 92.77 64.4918 92.6909C64.4918 92.6434 64.5552 92.5959 64.6185 92.5959C64.7135 92.5959 64.8085 92.5801 64.9985 92.5484C65.426 92.4692 65.4418 92.0259 65.4893 91.5667L66.4235 83.4917C66.4393 83.3651 66.5027 83.2701 66.566 83.2701C66.661 83.2701 66.756 83.3176 66.8352 83.4601L70.6985 91.1392L74.4193 83.4759C74.4827 83.3651 74.5302 83.2701 74.6252 83.2701C74.7043 83.2701 74.7835 83.3651 74.8152 83.6026L75.7493 91.1867Z"/><path fill="#FEFEFE" d="M79.6127 87.0225C79.6127 85.1067 79.6127 84.7584 79.581 84.3626C79.5493 83.9351 79.486 83.7451 79.0585 83.6817C78.9635 83.6659 78.7418 83.6501 78.6152 83.6501C78.5677 83.6501 78.5202 83.5867 78.5202 83.5551C78.5202 83.4759 78.5835 83.4601 78.726 83.4601C79.3118 83.4601 80.1351 83.4917 80.2143 83.4917C80.3093 83.4917 82.9693 83.5076 83.2702 83.4917C83.5235 83.4759 83.7452 83.4284 83.856 83.4126C83.9193 83.3967 83.9668 83.3492 84.0302 83.3492C84.0777 83.3492 84.0935 83.4126 84.0935 83.4601C84.0935 83.5551 84.0143 83.6976 83.9985 84.0459C83.9827 84.1567 83.951 84.7109 83.9193 84.8534C83.9035 84.9167 83.856 84.9801 83.8085 84.9801C83.7293 84.9801 83.7135 84.9167 83.7135 84.8217C83.7135 84.7267 83.6977 84.5367 83.6343 84.3784C83.5393 84.1726 83.4127 84.0934 82.716 83.9984C82.4943 83.9667 81.0218 83.9509 80.8635 83.9509C80.8002 83.9509 80.7843 83.9984 80.7843 84.0776V87.4501C80.7843 87.5451 80.7843 87.5767 80.8635 87.5767C81.0218 87.5767 82.716 87.5767 83.001 87.545C83.3018 87.5134 83.4918 87.4976 83.6185 87.3709C83.6977 87.2759 83.761 87.2126 83.8085 87.2126C83.856 87.2126 83.8877 87.2442 83.8877 87.3076C83.8877 87.3867 83.8085 87.5767 83.7927 87.9884C83.761 88.2417 83.7293 88.7009 83.7293 88.7959C83.7293 88.8909 83.6977 89.0334 83.6185 89.0334C83.5552 89.0334 83.5235 88.9859 83.5235 88.9225C83.5235 88.8117 83.5235 88.6692 83.4602 88.5109C83.4126 88.3367 83.3018 88.1942 82.811 88.1309C82.4627 88.0834 81.101 88.0676 80.8793 88.0676C80.8002 88.0676 80.7843 88.1151 80.7843 88.1467V89.1759C80.7843 89.6034 80.7685 91.0442 80.7843 91.2817C80.816 92.1051 81.0535 92.2634 82.3043 92.2634C82.6368 92.2634 83.2543 92.2634 83.5868 92.1367C83.9193 91.9942 84.0935 91.7726 84.1727 91.2817C84.2043 91.1392 84.236 91.0917 84.2993 91.0917C84.3785 91.0917 84.3943 91.1867 84.3943 91.2817C84.3943 91.3767 84.2993 92.2159 84.2201 92.4692C84.141 92.7859 83.9985 92.7859 83.5077 92.7859C82.5418 92.7859 81.8135 92.7542 81.2752 92.7384C80.7368 92.7067 80.4043 92.7067 80.2143 92.7067C80.1827 92.7067 79.9451 92.7067 79.6602 92.7225C79.4068 92.7384 79.1218 92.7542 78.916 92.7542C78.7893 92.7542 78.7102 92.7226 78.7102 92.6592C78.7102 92.6117 78.7418 92.5642 78.8052 92.5642C78.916 92.5642 79.0743 92.5167 79.201 92.5009C79.4543 92.4534 79.4702 92.2159 79.5335 91.8517C79.6127 91.345 79.6127 90.3634 79.6127 89.1759V87.0225Z"/><path fill="#FEFEFE" d="M87.6243 87.0225C87.6243 85.1067 87.6243 84.7584 87.5927 84.3626C87.561 83.9351 87.4976 83.7451 87.0701 83.6817C86.9752 83.6659 86.7535 83.6501 86.6268 83.6501C86.5793 83.6501 86.5318 83.5867 86.5318 83.5551C86.5318 83.4759 86.5951 83.4601 86.7377 83.4601C87.3235 83.4601 88.1785 83.4917 88.2576 83.4917C88.3843 83.4917 89.461 83.4601 89.8568 83.4601C90.6643 83.4601 91.5668 83.5392 92.2477 83.9984C92.5643 84.2359 93.1343 84.8217 93.1343 85.6926C93.1343 86.6109 92.7543 87.4976 91.5668 88.5109C92.6118 89.8251 93.4985 90.9334 94.2427 91.7092C94.9235 92.4059 95.351 92.5167 95.6677 92.5642C95.921 92.6117 96.0476 92.6117 96.111 92.6117C96.1902 92.6117 96.2218 92.6751 96.2218 92.7067C96.2218 92.7859 96.1426 92.8017 95.921 92.8017H95.1135C94.3852 92.8017 94.0685 92.7226 93.7518 92.5484C93.1976 92.2634 92.7385 91.6617 92.0101 90.7276C91.4718 90.0626 90.9018 89.255 90.6326 88.9225C90.5693 88.8592 90.5535 88.8434 90.4585 88.8434L88.8277 88.8117C88.7643 88.8117 88.7326 88.8434 88.7326 88.9067V89.1917C88.7326 90.3792 88.7327 91.345 88.796 91.8517C88.8435 92.2159 88.9068 92.4534 89.3027 92.5009C89.4768 92.5326 89.746 92.5642 89.8727 92.5642C89.9518 92.5642 89.9677 92.6276 89.9677 92.6592C89.9677 92.7226 89.9043 92.7542 89.7618 92.7542C89.0651 92.7542 88.2418 92.7067 88.1943 92.7067C88.1785 92.7067 87.3235 92.7542 86.9277 92.7542C86.801 92.7542 86.7218 92.7226 86.7218 92.6592C86.7218 92.6117 86.7535 92.5642 86.8168 92.5642C86.9277 92.5642 87.086 92.5326 87.2127 92.5009C87.466 92.4376 87.4818 92.2159 87.5451 91.8517C87.6243 91.345 87.6243 90.3634 87.6243 89.1759V87.0225ZM88.7326 88.0676C88.7326 88.1467 88.7643 88.1784 88.8277 88.2259C89.0177 88.3209 89.6668 88.4159 90.2368 88.4159C90.5376 88.4159 90.886 88.4001 91.2027 88.1942C91.646 87.9092 91.9785 87.2442 91.9785 86.3101C91.9785 84.7742 91.1393 83.8876 89.7618 83.8876C89.3818 83.8876 88.9702 83.9351 88.8435 83.9667C88.7802 83.9984 88.7485 84.0459 88.7485 84.1092V88.0676H88.7326Z"/><path fill="#FEFEFE" d="M95.351 83.8876C95.2402 83.7609 95.2243 83.7134 95.2243 83.6342C95.2243 83.5867 95.3035 83.5551 95.351 83.5392C95.5885 83.5392 96.1426 83.7134 96.3643 83.8084C96.5385 83.9034 96.6177 83.9667 96.6177 84.1884C96.6177 85.2176 95.8735 86.4367 95.3668 87.0542C95.3035 87.1492 95.256 87.1651 95.1768 87.1651C95.1451 87.1651 95.0976 87.1334 95.0976 87.0859C95.0976 87.0384 95.1135 86.9909 95.161 86.8959C95.3827 86.4367 95.636 85.6451 95.636 84.8217C95.6518 84.3784 95.4618 83.9984 95.351 83.8876Z"/><path fill="#FEFEFE" d="M98.5018 92.6117C98.3276 92.5326 98.3118 92.4851 98.3118 92.1526C98.3118 91.5351 98.3751 91.0442 98.391 90.8384C98.391 90.7117 98.4227 90.6325 98.486 90.6325C98.5652 90.6325 98.5968 90.6801 98.5968 90.7751C98.5968 90.8701 98.5968 91.0442 98.6443 91.2184C98.8502 92.1209 99.8002 92.4376 100.671 92.4376C101.938 92.4376 102.587 91.725 102.587 90.7909C102.587 89.9042 102.112 89.4767 100.972 88.6376L100.386 88.1942C99.0085 87.1651 98.5493 86.4051 98.5493 85.5501C98.5493 84.0934 99.7052 83.2226 101.383 83.2226C101.89 83.2226 102.397 83.3017 102.713 83.3651C102.967 83.4284 103.062 83.4284 103.157 83.4284C103.252 83.4284 103.283 83.4442 103.283 83.5234C103.283 83.5867 103.22 83.9826 103.22 84.8376C103.22 85.0276 103.204 85.1067 103.125 85.1067C103.03 85.1067 103.03 85.0434 103.014 84.9484C102.998 84.8059 102.903 84.4734 102.824 84.3309C102.729 84.1884 102.318 83.7134 101.162 83.7134C100.228 83.7134 99.4677 84.1726 99.4677 85.0434C99.4677 85.8351 99.8635 86.2784 101.13 87.1334L101.494 87.3867C103.046 88.4475 103.584 89.3026 103.584 90.3634C103.584 91.0917 103.315 91.8834 102.397 92.4692C101.858 92.8176 101.067 92.9126 100.354 92.9126C99.7685 92.9442 99.0243 92.8651 98.5018 92.6117Z"/><path fill="#FEFEFE" d="M17.6725 97.9001C17.6725 96.9501 17.6725 96.7917 17.6567 96.5859C17.6409 96.3801 17.6092 96.2851 17.4034 96.2534C17.3559 96.2534 17.245 96.2376 17.1817 96.2376C17.1659 96.2376 17.1342 96.2059 17.1342 96.1901C17.1342 96.1584 17.1659 96.1426 17.2292 96.1426C17.5142 96.1426 17.9417 96.1584 17.9734 96.1584C18.0367 96.1584 18.5592 96.1426 18.765 96.1426C19.1609 96.1426 19.6042 96.1742 19.9367 96.4117C20.095 96.5226 20.38 96.8234 20.38 97.2351C20.38 97.6784 20.19 98.1217 19.6042 98.6284C20.1109 99.2776 20.5542 99.8159 20.9184 100.196C21.2509 100.544 21.4567 100.592 21.615 100.623C21.7417 100.639 21.805 100.639 21.8367 100.639C21.8684 100.639 21.9 100.671 21.9 100.687C21.9 100.718 21.8684 100.734 21.7575 100.734H21.3617C20.9975 100.734 20.855 100.703 20.6967 100.608C20.4275 100.465 20.19 100.164 19.8417 99.7209C19.5725 99.3884 19.3034 98.9926 19.1609 98.8342C19.1292 98.8026 19.1134 98.8026 19.0817 98.8026L18.2742 98.7867C18.2425 98.7867 18.2267 98.8026 18.2267 98.8342V98.9767C18.2267 99.5626 18.2267 100.038 18.2584 100.291C18.2742 100.465 18.3217 100.576 18.5117 100.608C18.5909 100.623 18.7334 100.639 18.7967 100.639C18.8442 100.639 18.8442 100.671 18.8442 100.687C18.8442 100.718 18.8125 100.734 18.7492 100.734C18.4009 100.734 18.005 100.718 17.9734 100.718C17.9734 100.718 17.5459 100.734 17.3559 100.734C17.2925 100.734 17.2609 100.718 17.2609 100.687C17.2609 100.671 17.2767 100.639 17.3084 100.639C17.3717 100.639 17.4509 100.623 17.4984 100.608C17.625 100.576 17.6409 100.465 17.6567 100.291C17.6884 100.038 17.6884 99.5626 17.6884 98.9767V97.9001H17.6725ZM18.2109 98.4068C18.2109 98.4384 18.2267 98.4701 18.2584 98.4859C18.3534 98.5334 18.67 98.5809 18.955 98.5809C19.0975 98.5809 19.2717 98.5809 19.43 98.4701C19.6517 98.3276 19.81 98.0109 19.81 97.5359C19.81 96.7759 19.3984 96.3484 18.7175 96.3484C18.5275 96.3484 18.3375 96.3643 18.2742 96.3801C18.2425 96.3959 18.2267 96.4118 18.2267 96.4593V98.4068H18.2109Z"/><path fill="#FEFEFE" d="M22.47 97.9001C22.47 96.9501 22.47 96.7917 22.4542 96.5859C22.4384 96.3801 22.4067 96.2851 22.2009 96.2534C22.1534 96.2534 22.0425 96.2376 21.9792 96.2376C21.9634 96.2376 21.9317 96.2059 21.9317 96.1901C21.9317 96.1584 21.9634 96.1426 22.0267 96.1426C22.3117 96.1426 22.7234 96.1584 22.755 96.1584C22.8025 96.1584 24.1167 96.1584 24.2592 96.1584C24.3859 96.1584 24.4967 96.1267 24.5442 96.1267C24.5759 96.1267 24.6075 96.0951 24.6234 96.0951C24.6392 96.0951 24.655 96.1267 24.655 96.1584C24.655 96.2059 24.6234 96.2692 24.6075 96.4434C24.6075 96.5067 24.5917 96.7759 24.5759 96.8392C24.5759 96.8709 24.5442 96.9026 24.5125 96.9026C24.4809 96.9026 24.465 96.8709 24.465 96.8234C24.465 96.7759 24.465 96.6809 24.4334 96.6017C24.3859 96.5067 24.3225 96.4592 23.99 96.4117C23.8792 96.3959 23.1509 96.3959 23.0875 96.3959C23.0559 96.3959 23.0559 96.4118 23.0559 96.4593V98.1059C23.0559 98.1534 23.0559 98.1692 23.0875 98.1692C23.1667 98.1692 23.99 98.1692 24.1325 98.1534C24.275 98.1376 24.37 98.1376 24.4334 98.0742C24.4809 98.0267 24.5125 97.9951 24.5284 97.9951C24.5442 97.9951 24.56 98.0109 24.56 98.0426C24.56 98.0743 24.5284 98.1851 24.5125 98.3751C24.4967 98.5017 24.4809 98.7234 24.4809 98.7709C24.4809 98.8184 24.465 98.8818 24.4175 98.8818C24.3859 98.8818 24.37 98.8659 24.37 98.8184C24.37 98.7551 24.37 98.6917 24.3384 98.6126C24.3225 98.5334 24.2592 98.4542 24.0217 98.4226C23.8475 98.4067 23.1825 98.3909 23.0717 98.3909C23.04 98.3909 23.0242 98.4068 23.0242 98.4384V98.9451C23.0242 99.1509 23.0242 99.8634 23.0242 99.9742C23.04 100.386 23.1509 100.465 23.7684 100.465C23.9267 100.465 24.2275 100.465 24.4017 100.402C24.56 100.323 24.655 100.228 24.6867 99.9742C24.7025 99.9109 24.7184 99.8792 24.75 99.8792C24.7817 99.8792 24.7975 99.9267 24.7975 99.9742C24.7975 100.022 24.75 100.433 24.7184 100.56C24.6709 100.718 24.6075 100.718 24.37 100.718C23.895 100.718 23.5309 100.703 23.2775 100.703C23.0084 100.687 22.85 100.687 22.755 100.687C22.7392 100.687 22.6125 100.687 22.4859 100.687C22.3592 100.687 22.2167 100.703 22.1217 100.703C22.0584 100.703 22.0267 100.687 22.0267 100.655C22.0267 100.639 22.0425 100.608 22.0742 100.608C22.1375 100.608 22.2167 100.592 22.2642 100.576C22.3909 100.56 22.4067 100.433 22.4225 100.259C22.4542 100.006 22.4542 99.5309 22.4542 98.9451V97.9001H22.47Z"/><path fill="#FEFEFE" d="M25.8742 100.639C25.795 100.592 25.7792 100.576 25.7792 100.418C25.7792 100.117 25.8109 99.8792 25.8109 99.7684C25.8109 99.7051 25.8267 99.6734 25.8584 99.6734C25.89 99.6734 25.9217 99.6893 25.9217 99.7526C25.9217 99.8001 25.9217 99.8951 25.9375 99.9742C26.0325 100.418 26.5075 100.576 26.935 100.576C27.5525 100.576 27.885 100.228 27.885 99.7684C27.885 99.3251 27.6475 99.1192 27.0934 98.7076L26.8084 98.5017C26.1275 97.9951 25.9059 97.6309 25.9059 97.2034C25.9059 96.4909 26.4759 96.0634 27.2992 96.0634C27.5525 96.0634 27.8059 96.0951 27.9484 96.1426C28.075 96.1743 28.1225 96.1742 28.17 96.1742C28.2175 96.1742 28.2334 96.1742 28.2334 96.2217C28.2334 96.2534 28.2017 96.4434 28.2017 96.8709C28.2017 96.9659 28.2017 97.0134 28.1542 97.0134C28.1067 97.0134 28.1067 96.9817 28.0909 96.9342C28.0909 96.8551 28.0275 96.6967 27.9959 96.6334C27.9484 96.5701 27.7425 96.3326 27.1884 96.3326C26.7292 96.3326 26.3492 96.5542 26.3492 96.9976C26.3492 97.3776 26.5392 97.5992 27.1567 98.0267L27.3309 98.1534C28.0909 98.6759 28.36 99.1034 28.36 99.6101C28.36 99.9742 28.2175 100.354 27.7742 100.639C27.505 100.813 27.1092 100.861 26.7767 100.861C26.5075 100.813 26.1434 100.766 25.8742 100.639Z"/><path fill="#FEFEFE" d="M30.0067 97.9001C30.0067 96.9501 30.0067 96.7917 29.9909 96.5859C29.975 96.3801 29.9434 96.2851 29.7375 96.2534C29.69 96.2534 29.5792 96.2376 29.5159 96.2376C29.5 96.2376 29.4684 96.2059 29.4684 96.1901C29.4684 96.1584 29.5 96.1426 29.5634 96.1426C29.8484 96.1426 30.26 96.1584 30.2917 96.1584C30.3392 96.1584 31.6534 96.1584 31.7959 96.1584C31.9225 96.1584 32.0334 96.1267 32.0809 96.1267C32.1125 96.1267 32.1442 96.0951 32.16 96.0951C32.1759 96.0951 32.1917 96.1267 32.1917 96.1584C32.1917 96.2059 32.16 96.2692 32.1442 96.4434C32.1442 96.5067 32.1284 96.7759 32.1125 96.8392C32.1125 96.8709 32.0809 96.9026 32.0492 96.9026C32.0175 96.9026 32.0017 96.8709 32.0017 96.8234C32.0017 96.7759 32.0017 96.6809 31.97 96.6017C31.9225 96.5067 31.8592 96.4592 31.5267 96.4117C31.4159 96.3959 30.6875 96.3959 30.6242 96.3959C30.5925 96.3959 30.5925 96.4118 30.5925 96.4593V98.1059C30.5925 98.1534 30.5925 98.1692 30.6242 98.1692C30.7034 98.1692 31.5267 98.1692 31.6692 98.1534C31.8117 98.1376 31.9067 98.1376 31.97 98.0742C32.0175 98.0267 32.0492 97.9951 32.065 97.9951C32.0809 97.9951 32.0967 98.0109 32.0967 98.0426C32.0967 98.0743 32.065 98.1851 32.0492 98.3751C32.0334 98.5017 32.0175 98.7234 32.0175 98.7709C32.0175 98.8184 32.0017 98.8818 31.9542 98.8818C31.9225 98.8818 31.9067 98.8659 31.9067 98.8184C31.9067 98.7551 31.9067 98.6917 31.875 98.6126C31.8592 98.5334 31.7959 98.4542 31.5584 98.4226C31.3842 98.4067 30.7192 98.3909 30.6084 98.3909C30.5767 98.3909 30.5609 98.4068 30.5609 98.4384V98.9451C30.5609 99.1509 30.5609 99.8634 30.5609 99.9742C30.5767 100.386 30.6875 100.465 31.305 100.465C31.4634 100.465 31.7642 100.465 31.9384 100.402C32.0967 100.323 32.1917 100.228 32.2234 99.9742C32.2392 99.9109 32.255 99.8792 32.2867 99.8792C32.3184 99.8792 32.3342 99.9267 32.3342 99.9742C32.3342 100.022 32.2867 100.433 32.255 100.56C32.2075 100.718 32.1442 100.718 31.9067 100.718C31.4317 100.718 31.0675 100.703 30.8142 100.703C30.545 100.687 30.3867 100.687 30.2917 100.687C30.2759 100.687 30.1492 100.687 30.0225 100.687C29.8959 100.687 29.7534 100.703 29.6584 100.703C29.595 100.703 29.5634 100.687 29.5634 100.655C29.5634 100.639 29.5792 100.608 29.6109 100.608C29.6742 100.608 29.7534 100.592 29.8009 100.576C29.9275 100.56 29.9434 100.433 29.9592 100.259C29.9909 100.006 29.9909 99.5309 29.9909 98.9451V97.9001H30.0067Z"/><path fill="#FEFEFE" d="M34.8992 96.2692C34.9784 96.0634 35.01 96.0317 35.0417 96.0317C35.105 96.0317 35.1209 96.1109 35.1842 96.2534C35.295 96.5067 36.3084 99.0243 36.6884 99.9426C36.91 100.481 37.0842 100.56 37.2267 100.608C37.3217 100.639 37.4167 100.639 37.48 100.639C37.5117 100.639 37.5592 100.655 37.5592 100.687C37.5592 100.718 37.48 100.734 37.4167 100.734C37.3217 100.734 36.8625 100.734 36.4192 100.718C36.2925 100.718 36.1975 100.718 36.1975 100.671C36.1975 100.639 36.2134 100.639 36.245 100.623C36.2767 100.608 36.34 100.56 36.3084 100.465L35.7384 99.0718C35.7225 99.0401 35.7225 99.0401 35.675 99.0401H34.25C34.2184 99.0401 34.2025 99.0559 34.1867 99.0876L33.8225 100.053C33.7592 100.196 33.7275 100.354 33.7275 100.465C33.7275 100.592 33.8384 100.623 33.9492 100.623H34.0125C34.06 100.623 34.0759 100.639 34.0759 100.671C34.0759 100.703 34.0442 100.718 33.9809 100.718C33.8384 100.718 33.49 100.703 33.4109 100.703C33.3475 100.703 33.0309 100.718 32.7775 100.718C32.6984 100.718 32.6509 100.703 32.6509 100.671C32.6509 100.639 32.6825 100.623 32.7142 100.623C32.7617 100.623 32.8567 100.623 32.9042 100.608C33.1892 100.576 33.3159 100.354 33.4267 100.053L34.8992 96.2692ZM35.6117 98.7867C35.6434 98.7867 35.6434 98.7709 35.6275 98.7392L35.01 97.0767C34.9784 96.9817 34.9309 96.9817 34.8992 97.0767L34.3134 98.7392C34.3134 98.7709 34.3134 98.7867 34.3292 98.7867H35.6117Z"/><path fill="#FEFEFE" d="M38.3984 97.9001C38.3984 96.9501 38.3984 96.7917 38.3825 96.5859C38.3667 96.3801 38.335 96.2851 38.1292 96.2534C38.0817 96.2534 37.9709 96.2376 37.9075 96.2376C37.8917 96.2376 37.86 96.2059 37.86 96.1901C37.86 96.1584 37.8917 96.1426 37.955 96.1426C38.24 96.1426 38.6675 96.1584 38.6992 96.1584C38.7625 96.1584 39.285 96.1426 39.4909 96.1426C39.8867 96.1426 40.33 96.1742 40.6625 96.4117C40.8209 96.5226 41.1059 96.8234 41.1059 97.2351C41.1059 97.6784 40.9159 98.1217 40.33 98.6284C40.8525 99.2776 41.28 99.8159 41.6442 100.196C41.9767 100.544 42.1825 100.592 42.3409 100.623C42.4675 100.639 42.5309 100.639 42.5625 100.639C42.5942 100.639 42.6259 100.671 42.6259 100.687C42.6259 100.718 42.5942 100.734 42.4834 100.734H42.0875C41.7234 100.734 41.5809 100.703 41.4225 100.608C41.1534 100.465 40.9159 100.164 40.5675 99.7209C40.2984 99.3884 40.0292 98.9926 39.8867 98.8342C39.855 98.8026 39.8392 98.8026 39.8075 98.8026L39 98.7867C38.9684 98.7867 38.9525 98.8026 38.9525 98.8342V98.9767C38.9525 99.5626 38.9525 100.038 38.9842 100.291C39 100.465 39.0475 100.576 39.2375 100.608C39.3167 100.623 39.4592 100.639 39.5225 100.639C39.57 100.639 39.57 100.671 39.57 100.687C39.57 100.718 39.5384 100.734 39.475 100.734C39.1267 100.734 38.7309 100.718 38.6992 100.718C38.6992 100.718 38.2717 100.734 38.0817 100.734C38.0184 100.734 37.9867 100.718 37.9867 100.687C37.9867 100.671 38.0025 100.639 38.0342 100.639C38.0975 100.639 38.1767 100.623 38.2242 100.608C38.3509 100.576 38.3667 100.465 38.3825 100.291C38.4142 100.038 38.4142 99.5626 38.4142 98.9767L38.3984 97.9001ZM38.9525 98.4068C38.9525 98.4384 38.9684 98.4701 39 98.4859C39.095 98.5334 39.4117 98.5809 39.6967 98.5809C39.8392 98.5809 40.0134 98.5809 40.1717 98.4701C40.3934 98.3276 40.5517 98.0109 40.5517 97.5359C40.5517 96.7759 40.14 96.3484 39.4592 96.3484C39.2692 96.3484 39.0792 96.3643 39.0159 96.3801C38.9842 96.3959 38.9684 96.4118 38.9684 96.4593V98.4068H38.9525Z"/><path fill="#FEFEFE" d="M43.3542 100.164C42.7367 99.6417 42.5942 98.9451 42.5942 98.3593C42.5942 97.9476 42.7367 97.2509 43.3067 96.6968C43.6867 96.3326 44.2567 96.0476 45.2225 96.0476C45.4759 96.0476 45.8242 96.0634 46.1409 96.1109C46.3784 96.1584 46.5842 96.1901 46.79 96.2059C46.8534 96.2059 46.8692 96.2376 46.8692 96.2692C46.8692 96.3167 46.8534 96.3959 46.8375 96.6176C46.8375 96.8234 46.8375 97.1559 46.8217 97.2351C46.8217 97.3301 46.79 97.3617 46.7425 97.3617C46.695 97.3617 46.695 97.3142 46.695 97.2351C46.695 96.9976 46.6 96.7601 46.4259 96.6334C46.2042 96.4434 45.745 96.3009 45.1909 96.3009C44.3834 96.3009 44.0034 96.5226 43.7817 96.7284C43.3225 97.1559 43.2117 97.6942 43.2117 98.3117C43.2117 99.4676 44.13 100.513 45.4759 100.513C45.9509 100.513 46.2675 100.481 46.505 100.228C46.6475 100.085 46.7267 99.8317 46.7425 99.7209C46.7584 99.6576 46.7584 99.6417 46.8059 99.6417C46.8375 99.6417 46.8692 99.6892 46.8692 99.7209C46.8692 99.7684 46.79 100.291 46.7267 100.497C46.695 100.608 46.6792 100.639 46.5684 100.671C46.315 100.766 45.84 100.813 45.4284 100.813C44.4942 100.813 43.845 100.592 43.3542 100.164Z"/><path fill="#FEFEFE" d="M52.205 98.9767C52.205 99.5626 52.205 100.038 52.2367 100.291C52.2525 100.465 52.2684 100.576 52.4584 100.608C52.5375 100.623 52.68 100.639 52.7434 100.639C52.7909 100.639 52.8067 100.671 52.8067 100.687C52.8067 100.718 52.775 100.734 52.6959 100.734C52.3475 100.734 51.9517 100.718 51.92 100.718C51.8884 100.718 51.4767 100.734 51.3025 100.734C51.2234 100.734 51.2075 100.718 51.2075 100.687C51.2075 100.671 51.2234 100.639 51.255 100.639C51.3184 100.639 51.3817 100.623 51.445 100.608C51.5717 100.576 51.5875 100.465 51.6192 100.275C51.6509 100.022 51.6509 99.5626 51.6509 98.9767V98.3751C51.6509 98.3434 51.635 98.3434 51.6192 98.3434H48.975C48.9592 98.3434 48.9434 98.3434 48.9434 98.3751V98.9767C48.9434 99.5626 48.9434 100.022 48.975 100.275C48.9909 100.449 49.0225 100.56 49.1967 100.592C49.2917 100.608 49.4184 100.623 49.4817 100.623C49.5134 100.623 49.5292 100.655 49.5292 100.671C49.5292 100.703 49.4975 100.718 49.4342 100.718C49.0859 100.718 48.69 100.703 48.6584 100.703C48.6267 100.703 48.215 100.718 48.025 100.718C47.9617 100.718 47.93 100.703 47.93 100.671C47.93 100.655 47.9459 100.623 47.9775 100.623C48.0409 100.623 48.12 100.608 48.1675 100.592C48.2942 100.56 48.31 100.449 48.3259 100.275C48.3575 100.022 48.3575 99.5467 48.3575 98.9609V97.9001C48.3575 96.9501 48.3575 96.7917 48.3417 96.5859C48.3259 96.3801 48.2942 96.2851 48.0884 96.2534C48.0409 96.2534 47.93 96.2376 47.8667 96.2376C47.8509 96.2376 47.8192 96.2059 47.8192 96.1901C47.8192 96.1584 47.8509 96.1426 47.9142 96.1426C48.1992 96.1426 48.595 96.1584 48.6425 96.1584C48.6742 96.1584 49.07 96.1426 49.26 96.1426C49.3392 96.1426 49.355 96.1584 49.355 96.1901C49.355 96.2059 49.3234 96.2376 49.3075 96.2376C49.26 96.2376 49.2284 96.2376 49.1492 96.2534C48.975 96.2851 48.9434 96.3801 48.9275 96.5859C48.9275 96.7759 48.9275 96.9659 48.9275 97.9001V98.0267C48.9275 98.0584 48.9434 98.0584 48.9592 98.0584H51.5875C51.6034 98.0584 51.6192 98.0584 51.6192 98.0267V97.9001C51.6192 96.9501 51.6192 96.7759 51.6034 96.5859C51.5875 96.3801 51.5559 96.2851 51.35 96.2534C51.3025 96.2534 51.1917 96.2376 51.1284 96.2376C51.0967 96.2376 51.0809 96.2059 51.0809 96.1901C51.0809 96.1584 51.1125 96.1426 51.1759 96.1426C51.4609 96.1426 51.8567 96.1584 51.8884 96.1584C51.92 96.1584 52.3317 96.1426 52.5059 96.1426C52.585 96.1426 52.6167 96.1584 52.6167 96.1901C52.6167 96.2059 52.585 96.2376 52.5534 96.2376C52.5059 96.2376 52.4742 96.2376 52.395 96.2534C52.2367 96.2851 52.1892 96.3801 52.1734 96.5859C52.1575 96.7759 52.1575 96.9501 52.1575 97.9001V98.9767H52.205Z"/><path fill="#FEFEFE" d="M56.3375 97.9001C56.3375 96.9501 56.3375 96.7917 56.3217 96.5859C56.3059 96.3801 56.2742 96.2851 56.0684 96.2534C56.0209 96.2534 55.91 96.2376 55.8467 96.2376C55.8309 96.2376 55.7992 96.2059 55.7992 96.1901C55.7992 96.1584 55.8309 96.1426 55.8942 96.1426C56.1792 96.1426 56.575 96.1584 56.6067 96.1584C56.7334 96.1584 58.095 96.1584 58.2375 96.1584C58.3642 96.1584 58.4592 96.1584 58.5225 96.1267C58.5542 96.1267 58.5859 96.0951 58.6017 96.0951C58.6334 96.0951 58.6492 96.1267 58.6492 96.1584C58.6492 96.2059 58.6175 96.2692 58.6017 96.4434C58.6017 96.5067 58.5859 96.7759 58.57 96.8392C58.57 96.8709 58.5384 96.9026 58.5067 96.9026C58.475 96.9026 58.4592 96.8709 58.4592 96.8392C58.4592 96.7917 58.4434 96.6968 58.3959 96.6176C58.3484 96.5384 58.2059 96.4434 57.9684 96.4434L56.9392 96.4276C56.9075 96.4276 56.8917 96.4434 56.8917 96.4909V98.1534C56.8917 98.1851 56.8917 98.2167 56.9392 98.2167H57.7942C57.905 98.2167 58 98.2167 58.0792 98.2167C58.2217 98.2009 58.3167 98.1851 58.38 98.1059C58.4117 98.0742 58.4434 98.0426 58.4592 98.0426C58.4909 98.0426 58.4909 98.0584 58.4909 98.0901C58.4909 98.1217 58.4434 98.2326 58.4275 98.4226C58.4117 98.5492 58.4117 98.7867 58.4117 98.8342C58.4117 98.8976 58.3959 98.9609 58.3484 98.9609C58.3167 98.9609 58.3009 98.9292 58.3009 98.8976C58.3009 98.8342 58.285 98.7551 58.2534 98.6759C58.2217 98.5967 58.1267 98.5176 57.9367 98.4859C57.7784 98.4701 57.0342 98.4701 56.9234 98.4701C56.8917 98.4701 56.8759 98.4859 56.8759 98.5334V99.0242C56.8759 99.6259 56.8759 100.101 56.9075 100.338C56.9234 100.513 56.9709 100.623 57.1292 100.655C57.2242 100.671 57.3509 100.687 57.4142 100.687C57.4459 100.687 57.4617 100.718 57.4617 100.734C57.4617 100.766 57.43 100.782 57.3667 100.782C57.0184 100.782 56.6067 100.766 56.575 100.766C56.5434 100.766 56.1475 100.782 55.9575 100.782C55.8942 100.782 55.8625 100.766 55.8625 100.734C55.8625 100.718 55.8784 100.687 55.91 100.687C55.9734 100.687 56.0525 100.671 56.1 100.655C56.2267 100.639 56.2425 100.513 56.2584 100.338C56.29 100.085 56.29 99.6101 56.29 99.0242V97.9001H56.3375Z"/><path fill="#FEFEFE" d="M61.9267 96.0476C63.3359 96.0476 64.4125 96.9184 64.4125 98.3276C64.4125 99.6892 63.3992 100.798 61.895 100.798C60.1692 100.798 59.4409 99.4993 59.4409 98.4068C59.4409 97.4409 60.2009 96.0476 61.9267 96.0476ZM62.0692 100.56C62.6392 100.56 63.7634 100.259 63.7634 98.5017C63.7634 97.0451 62.8767 96.2851 61.8792 96.2851C60.8342 96.2851 60.0742 96.9501 60.0742 98.2642C60.09 99.6734 60.9292 100.56 62.0692 100.56Z"/><path fill="#FEFEFE" d="M65.6 97.9001C65.6 96.9501 65.6 96.7917 65.5842 96.5859C65.5684 96.3959 65.5367 96.2851 65.3309 96.2534C65.2834 96.2534 65.1725 96.2376 65.1092 96.2376C65.0934 96.2376 65.0617 96.2059 65.0617 96.1901C65.0617 96.1584 65.0934 96.1426 65.1567 96.1426C65.4417 96.1426 65.8217 96.1584 65.885 96.1584C65.9484 96.1584 66.3284 96.1426 66.5184 96.1426C66.5975 96.1426 66.6292 96.1584 66.6292 96.1901C66.6292 96.2059 66.5975 96.2376 66.5659 96.2376C66.5184 96.2376 66.4867 96.2376 66.4075 96.2534C66.2492 96.2851 66.2017 96.3959 66.1859 96.5859C66.17 96.7759 66.17 96.9501 66.17 97.9001V98.7551C66.17 99.6259 66.36 99.9901 66.6292 100.243C66.93 100.528 67.215 100.576 67.5634 100.576C67.9434 100.576 68.3234 100.402 68.5292 100.148C68.83 99.8001 68.8934 99.2934 68.8934 98.6759V97.9001C68.8934 96.9501 68.8934 96.7917 68.8775 96.5859C68.8775 96.3959 68.83 96.2851 68.6242 96.2534C68.5767 96.2534 68.4659 96.2376 68.4025 96.2376C68.3709 96.2376 68.355 96.2059 68.355 96.1901C68.355 96.1584 68.3867 96.1426 68.45 96.1426C68.735 96.1426 69.0992 96.1584 69.1309 96.1584C69.1784 96.1584 69.4792 96.1426 69.6534 96.1426C69.7325 96.1426 69.7484 96.1584 69.7484 96.1901C69.7484 96.2059 69.7325 96.2376 69.7009 96.2376C69.6534 96.2376 69.6217 96.2376 69.5425 96.2534C69.3684 96.2851 69.3367 96.3959 69.3209 96.5859C69.305 96.7759 69.3209 96.9501 69.3209 97.9001V98.5492C69.3209 99.1984 69.2417 99.9426 68.735 100.37C68.2759 100.766 67.785 100.813 67.4209 100.813C67.215 100.813 66.55 100.798 66.1067 100.386C65.8059 100.101 65.5525 99.6734 65.5525 98.7867V97.9001H65.6Z"/><path fill="#FEFEFE" d="M71.4109 99.9109C71.4267 100.418 71.49 100.56 71.6484 100.608C71.7592 100.639 71.9017 100.639 71.965 100.639C71.9967 100.639 72.0125 100.655 72.0125 100.687C72.0125 100.718 71.965 100.734 71.9017 100.734C71.5375 100.734 71.3 100.718 71.2367 100.718C71.1734 100.718 70.92 100.734 70.635 100.734C70.5717 100.734 70.54 100.734 70.54 100.687C70.54 100.655 70.5559 100.639 70.5875 100.639C70.635 100.639 70.7459 100.639 70.8409 100.608C70.9992 100.56 71.015 100.402 71.015 99.8476V96.3642C71.015 96.1267 71.0467 96.0634 71.0942 96.0634C71.1734 96.0634 71.2684 96.1901 71.3317 96.2534C71.4267 96.3484 72.345 97.3301 73.3109 98.3276C73.9284 98.9767 74.6092 99.6892 74.7992 99.8951L74.7359 96.8551C74.7359 96.4593 74.6884 96.3326 74.4984 96.2851C74.3875 96.2692 74.245 96.2534 74.1975 96.2534C74.15 96.2534 74.15 96.2217 74.15 96.1901C74.15 96.1584 74.1975 96.1426 74.2767 96.1426C74.5617 96.1426 74.8625 96.1584 74.9417 96.1584C75.0209 96.1584 75.2267 96.1426 75.48 96.1426C75.5434 96.1426 75.5909 96.1426 75.5909 96.1901C75.5909 96.2059 75.5592 96.2534 75.5117 96.2534C75.48 96.2534 75.4325 96.2534 75.3692 96.2692C75.1634 96.3167 75.1475 96.4276 75.1475 96.7917L75.1317 100.354C75.1317 100.75 75.1317 100.798 75.0842 100.798C75.0209 100.798 74.9575 100.75 74.6092 100.433C74.5459 100.37 73.6434 99.4834 72.9784 98.7867C72.25 98.0267 71.5375 97.2826 71.3475 97.0609L71.4109 99.9109Z"/><path fill="#FEFEFE" d="M76.9684 97.9001C76.9684 96.9501 76.9684 96.7917 76.9525 96.5859C76.9367 96.3801 76.905 96.2851 76.6992 96.2534C76.6517 96.2534 76.5409 96.2376 76.4775 96.2376C76.4617 96.2376 76.43 96.2059 76.43 96.1901C76.43 96.1584 76.4617 96.1426 76.525 96.1426C76.81 96.1426 77.2217 96.1584 77.2534 96.1584C77.3325 96.1584 77.7284 96.1426 78.0925 96.1426C78.7259 96.1426 79.8659 96.0792 80.61 96.8392C80.9267 97.1559 81.2275 97.6626 81.2275 98.3751C81.2275 99.1351 80.895 99.7209 80.5467 100.085C80.2775 100.37 79.7075 100.782 78.6467 100.782C78.3775 100.782 78.045 100.766 77.7759 100.75C77.5067 100.734 77.285 100.718 77.2692 100.718C77.2534 100.718 77.1425 100.718 77.0159 100.718C76.8892 100.718 76.7309 100.734 76.6359 100.734C76.5725 100.734 76.5409 100.718 76.5409 100.687C76.5409 100.671 76.5567 100.639 76.5884 100.639C76.6517 100.639 76.7309 100.623 76.7784 100.608C76.905 100.576 76.9209 100.465 76.9367 100.291C76.9684 100.038 76.9684 99.5626 76.9684 98.9767V97.9001ZM77.5384 98.5492C77.5384 99.1984 77.5384 99.7526 77.5384 99.8634C77.5384 100.006 77.5542 100.228 77.6175 100.307C77.6967 100.418 77.9184 100.544 78.6625 100.544C79.2484 100.544 79.755 100.354 80.135 99.9901C80.4675 99.6892 80.6259 99.1034 80.6259 98.5492C80.6259 97.7734 80.2934 97.2826 80.04 97.0292C79.4542 96.4276 78.7575 96.3484 77.9975 96.3484C77.8709 96.3484 77.6809 96.3642 77.6175 96.3959C77.5542 96.4117 77.5384 96.4434 77.5384 96.5226V98.5492Z"/><path fill="#FEFEFE" d="M83.6342 96.2692C83.7134 96.0634 83.745 96.0317 83.7767 96.0317C83.84 96.0317 83.8559 96.1109 83.9192 96.2534C84.03 96.5067 85.0434 99.0243 85.4234 99.9426C85.645 100.481 85.8192 100.56 85.9617 100.608C86.0567 100.639 86.1517 100.639 86.215 100.639C86.2467 100.639 86.2942 100.655 86.2942 100.687C86.2942 100.718 86.2309 100.734 86.1517 100.734C86.0567 100.734 85.5975 100.734 85.1542 100.718C85.0275 100.718 84.9325 100.718 84.9325 100.671C84.9325 100.639 84.9484 100.639 84.98 100.623C85.0117 100.608 85.075 100.56 85.0434 100.465L84.4734 99.0718C84.4575 99.0401 84.4575 99.0401 84.41 99.0401H82.9534C82.9217 99.0401 82.9059 99.0559 82.89 99.0876L82.5259 100.053C82.4625 100.196 82.4309 100.354 82.4309 100.465C82.4309 100.592 82.5417 100.623 82.6525 100.623H82.7159C82.7634 100.623 82.7792 100.639 82.7792 100.671C82.7792 100.703 82.7475 100.718 82.6842 100.718C82.5417 100.718 82.1934 100.703 82.1142 100.703C82.0509 100.703 81.7342 100.718 81.4809 100.718C81.4017 100.718 81.3542 100.703 81.3542 100.671C81.3542 100.639 81.3859 100.623 81.4175 100.623C81.465 100.623 81.56 100.623 81.6075 100.608C81.8925 100.576 82.0192 100.354 82.13 100.053L83.6342 96.2692ZM84.3309 98.7867C84.3625 98.7867 84.3625 98.7709 84.3467 98.7392L83.7292 97.0767C83.6975 96.9817 83.65 96.9817 83.6184 97.0767L83.0325 98.7392C83.0325 98.7709 83.0325 98.7867 83.0484 98.7867H84.3309Z"/><path fill="#FEFEFE" d="M88.0517 98.9767C88.0517 99.5626 88.0517 100.038 88.0834 100.291C88.0992 100.465 88.1309 100.576 88.3209 100.608C88.4 100.623 88.5425 100.639 88.6059 100.639C88.6534 100.639 88.6534 100.671 88.6534 100.687C88.6534 100.718 88.6217 100.734 88.5584 100.734C88.21 100.734 87.8142 100.718 87.7825 100.718C87.7509 100.718 87.3234 100.734 87.1334 100.734C87.07 100.734 87.0384 100.718 87.0384 100.687C87.0384 100.671 87.0542 100.639 87.0859 100.639C87.1492 100.639 87.2125 100.623 87.2759 100.608C87.4025 100.576 87.4342 100.465 87.4659 100.275C87.4975 100.022 87.4975 99.5467 87.4975 98.9609V96.4117L86.595 96.4276C86.1992 96.4276 86.0567 96.4751 85.9617 96.6176C85.8825 96.7284 85.8825 96.7601 85.8667 96.8076C85.8509 96.8551 85.835 96.8709 85.8034 96.8709C85.7875 96.8709 85.7559 96.8551 85.7559 96.8234C85.7559 96.7601 85.8825 96.2217 85.8984 96.1584C85.9142 96.1267 85.9459 96.0476 85.9617 96.0476C86.0092 96.0476 86.0725 96.0951 86.2467 96.1267C86.4209 96.1426 86.6742 96.1584 86.7375 96.1584H89.1125C89.3184 96.1584 89.4609 96.1426 89.5559 96.1267C89.6509 96.1109 89.6984 96.0951 89.73 96.0951C89.7617 96.0951 89.7617 96.1267 89.7617 96.1584C89.7617 96.3484 89.7459 96.7759 89.7459 96.8551C89.7459 96.9026 89.7142 96.9342 89.6825 96.9342C89.6509 96.9342 89.635 96.9184 89.635 96.8234V96.7601C89.6192 96.5701 89.4767 96.4434 88.875 96.4276L88.0834 96.4117V98.9767H88.0517Z"/><path fill="#FEFEFE" d="M91.5984 98.9767C91.5984 99.5626 91.5984 100.038 91.63 100.291C91.6459 100.465 91.6775 100.576 91.8517 100.608C91.9467 100.623 92.0734 100.639 92.1367 100.639C92.1684 100.639 92.1842 100.671 92.1842 100.687C92.1842 100.718 92.1525 100.734 92.0892 100.734C91.7409 100.734 91.3292 100.718 91.2975 100.718C91.2659 100.718 90.87 100.734 90.68 100.734C90.6167 100.734 90.585 100.718 90.585 100.687C90.585 100.671 90.6009 100.639 90.6325 100.639C90.6959 100.639 90.775 100.623 90.8225 100.608C90.9492 100.576 90.965 100.465 90.9809 100.291C91.0125 100.038 91.0125 99.5626 91.0125 98.9767V97.9001C91.0125 96.9501 91.0125 96.7917 90.9967 96.5859C90.9809 96.3801 90.9334 96.2851 90.7909 96.2534C90.7275 96.2376 90.6484 96.2376 90.6009 96.2376C90.5692 96.2376 90.5534 96.2059 90.5534 96.1901C90.5534 96.1584 90.585 96.1426 90.6484 96.1426C90.8542 96.1426 91.25 96.1584 91.2817 96.1584C91.3134 96.1584 91.725 96.1426 91.915 96.1426C91.9942 96.1426 92.01 96.1584 92.01 96.1901C92.01 96.2059 91.9784 96.2376 91.9625 96.2376C91.915 96.2376 91.8834 96.2376 91.8042 96.2534C91.63 96.2851 91.5984 96.3801 91.5825 96.5859C91.5825 96.7759 91.5825 96.9501 91.5825 97.9001V98.9767H91.5984Z"/><path fill="#FEFEFE" d="M95.4934 96.0476C96.9025 96.0476 97.9792 96.9184 97.9792 98.3276C97.9792 99.6892 96.9659 100.798 95.4617 100.798C93.7359 100.798 93.0075 99.4993 93.0075 98.4068C92.9917 97.4409 93.7517 96.0476 95.4934 96.0476ZM95.6359 100.56C96.2059 100.56 97.33 100.259 97.33 98.5017C97.33 97.0451 96.4434 96.2851 95.4459 96.2851C94.4009 96.2851 93.6409 96.9501 93.6409 98.2642C93.6567 99.6734 94.4959 100.56 95.6359 100.56Z"/><path fill="#FEFEFE" d="M99.5625 99.9109C99.5784 100.418 99.6259 100.56 99.8 100.608C99.9109 100.639 100.053 100.639 100.117 100.639C100.148 100.639 100.164 100.655 100.164 100.687C100.164 100.718 100.117 100.734 100.053 100.734C99.6892 100.734 99.4517 100.718 99.3884 100.718C99.325 100.718 99.0717 100.734 98.7867 100.734C98.7234 100.734 98.6917 100.734 98.6917 100.687C98.6917 100.655 98.7075 100.639 98.7392 100.639C98.7867 100.639 98.8975 100.639 98.9925 100.608C99.1509 100.56 99.1667 100.402 99.1667 99.8476V96.3642C99.1667 96.1267 99.1984 96.0634 99.2459 96.0634C99.325 96.0634 99.42 96.1901 99.4834 96.2534C99.5784 96.3484 100.497 97.3301 101.463 98.3276C102.08 98.9767 102.761 99.6892 102.951 99.8951L102.888 96.8551C102.888 96.4593 102.84 96.3326 102.65 96.2851C102.539 96.2692 102.397 96.2534 102.349 96.2534C102.302 96.2534 102.302 96.2217 102.302 96.1901C102.302 96.1584 102.349 96.1426 102.428 96.1426C102.713 96.1426 103.014 96.1584 103.093 96.1584C103.157 96.1584 103.378 96.1426 103.632 96.1426C103.695 96.1426 103.743 96.1426 103.743 96.1901C103.743 96.2059 103.711 96.2534 103.663 96.2534C103.632 96.2534 103.584 96.2534 103.521 96.2692C103.315 96.3167 103.299 96.4276 103.299 96.7917L103.283 100.354C103.283 100.75 103.283 100.798 103.236 100.798C103.173 100.798 103.109 100.75 102.761 100.433C102.698 100.37 101.795 99.4834 101.13 98.7867C100.402 98.0267 99.6892 97.2826 99.4992 97.0609L99.5625 99.9109Z"/><path fill="#FEFEFE" d="M14.5057 75.3692C14.5057 73.9284 14.5057 73.6592 14.4899 73.3742C14.474 73.0575 14.3949 72.915 14.094 72.8517C14.0149 72.8359 13.8565 72.82 13.7774 72.82C13.7457 72.82 13.6982 72.8042 13.6982 72.7567C13.6982 72.6934 13.7457 72.6775 13.8407 72.6775C14.0465 72.6775 14.2999 72.6775 14.5057 72.6934L14.8857 72.7092C15.0757 72.725 16.944 72.7092 17.1657 72.6934C17.3399 72.6775 17.4824 72.6775 17.5774 72.6617C17.6407 72.6459 17.6724 72.5984 17.704 72.5984C17.7357 72.5984 17.7674 72.63 17.7674 72.6775C17.7674 72.7409 17.7199 72.8517 17.6882 73.105C17.6724 73.2 17.6565 73.6117 17.6407 73.7225C17.6249 73.77 17.609 73.8175 17.5615 73.8175C17.514 73.8175 17.4982 73.77 17.4982 73.7067C17.4982 73.6275 17.4665 73.4692 17.419 73.3584C17.3557 73.2317 17.1499 73.0734 16.7857 73.0575L15.3607 73.0259C15.2974 73.0259 15.2815 73.0575 15.2815 73.1209V75.67C15.2815 75.7175 15.2974 75.7492 15.3449 75.7492L16.5324 75.7334C16.6907 75.7334 16.8174 75.7334 16.944 75.7175C17.1657 75.7017 17.2924 75.67 17.3715 75.5434C17.4032 75.4959 17.4349 75.4484 17.4665 75.4484C17.4982 75.4484 17.514 75.48 17.514 75.5275C17.514 75.575 17.4665 75.7334 17.4349 76.05C17.419 76.24 17.4032 76.6042 17.4032 76.6675C17.4032 76.7467 17.4032 76.8417 17.3399 76.8417C17.2924 76.8417 17.2765 76.81 17.2765 76.7625C17.2607 76.6675 17.2607 76.5409 17.2132 76.43C17.1657 76.3034 17.0232 76.1292 16.7382 76.0975C16.5007 76.0659 15.5032 76.0659 15.3449 76.0659C15.2974 76.0659 15.2815 76.0817 15.2815 76.145V76.9367C15.2815 77.8234 15.2815 78.5517 15.329 78.9475C15.3607 79.2167 15.4082 79.4225 15.6932 79.4542C15.8199 79.47 16.0257 79.4859 16.1049 79.4859C16.1682 79.4859 16.184 79.5175 16.184 79.5492C16.184 79.5967 16.1365 79.6284 16.0415 79.6284C15.5349 79.6284 14.949 79.5967 14.9015 79.5967C14.854 79.5967 14.2682 79.6284 13.999 79.6284C13.904 79.6284 13.8565 79.6125 13.8565 79.5492C13.8565 79.5175 13.8724 79.4859 13.9357 79.4859C14.0149 79.4859 14.1257 79.47 14.2207 79.4542C14.4107 79.4225 14.4582 79.2167 14.4899 78.9475C14.5374 78.5517 14.5374 77.8234 14.5374 76.9367V75.3692H14.5057Z"/><path fill="#FEFEFE" d="M20.5065 77.3959C20.5065 78.1559 20.5065 78.7734 20.5382 79.1059C20.5699 79.3434 20.6015 79.4859 20.839 79.5175C20.9657 79.5334 21.1399 79.5492 21.2032 79.5492C21.2507 79.5492 21.2665 79.5809 21.2665 79.6125C21.2665 79.6442 21.2349 79.6759 21.1399 79.6759C20.6807 79.6759 20.1582 79.6442 20.1265 79.6442C20.079 79.6442 19.5724 79.6759 19.319 79.6759C19.2399 79.6759 19.1924 79.66 19.1924 79.6125C19.1924 79.5809 19.2082 79.5492 19.2557 79.5492C19.3349 79.5492 19.4299 79.5334 19.509 79.5175C19.6674 79.4859 19.699 79.3275 19.7149 79.1059C19.7465 78.7892 19.7624 78.1559 19.7624 77.3959V76.0025C19.7624 74.7834 19.7624 74.5617 19.7465 74.3084C19.7307 74.0392 19.6674 73.9125 19.4932 73.8809C19.3982 73.865 19.3032 73.8492 19.2399 73.8492C19.2082 73.8492 19.1765 73.8175 19.1765 73.7859C19.1765 73.7384 19.2082 73.7225 19.3032 73.7225C19.5724 73.7225 20.079 73.7384 20.1265 73.7384C20.1582 73.7384 20.6965 73.7225 20.934 73.7225C21.029 73.7225 21.0607 73.7384 21.0607 73.7859C21.0607 73.8175 21.029 73.8492 20.9974 73.8492C20.9499 73.8492 20.8865 73.8492 20.7915 73.865C20.5699 73.9125 20.5224 74.0234 20.5065 74.2925C20.4907 74.5459 20.4907 74.7675 20.4907 75.9867V77.3959H20.5065Z"/><path fill="#FEFEFE" d="M22.6915 79.5809C22.5807 79.5334 22.5649 79.5017 22.5649 79.28C22.5649 78.8842 22.5965 78.5834 22.6124 78.4409C22.6124 78.3617 22.6282 78.3142 22.6757 78.3142C22.7232 78.3142 22.7549 78.3459 22.7549 78.4092C22.7549 78.4725 22.7549 78.5834 22.7865 78.6942C22.9132 79.2642 23.5307 79.47 24.069 79.47C24.8765 79.47 25.2882 79.0109 25.2882 78.425C25.2882 77.855 24.9874 77.5859 24.259 77.0634L23.8949 76.7784C23.0082 76.1292 22.7232 75.6384 22.7232 75.1C22.7232 74.1817 23.4515 73.6275 24.5282 73.6275C24.8449 73.6275 25.1774 73.675 25.3674 73.7225C25.5257 73.7542 25.589 73.7542 25.6524 73.7542C25.7157 73.7542 25.7315 73.77 25.7315 73.8017C25.7315 73.8334 25.6999 74.1025 25.6999 74.6409C25.6999 74.7675 25.684 74.815 25.6365 74.815C25.589 74.815 25.5732 74.7834 25.5574 74.72C25.5415 74.625 25.4782 74.4192 25.4307 74.3242C25.3674 74.2292 25.114 73.9284 24.3699 73.9284C23.784 73.9284 23.2932 74.2292 23.2932 74.7834C23.2932 75.29 23.5465 75.575 24.354 76.1134L24.5915 76.2717C25.589 76.9525 25.9215 77.4909 25.9215 78.1717C25.9215 78.6309 25.7474 79.1375 25.1615 79.5175C24.8132 79.7392 24.3065 79.8025 23.8632 79.8025C23.4832 79.7867 23.024 79.7392 22.6915 79.5809Z"/><path fill="#FEFEFE" d="M32.999 77.3959C32.999 78.1559 33.0149 78.7734 33.0465 79.1059C33.0782 79.3434 33.094 79.4859 33.3474 79.5175C33.4582 79.5334 33.6482 79.5492 33.7115 79.5492C33.759 79.5492 33.7907 79.5809 33.7907 79.6125C33.7907 79.6442 33.7432 79.6759 33.6482 79.6759C33.2049 79.6759 32.6824 79.6442 32.6349 79.6442C32.6032 79.6442 32.0649 79.6759 31.8274 79.6759C31.7324 79.6759 31.7007 79.66 31.7007 79.6125C31.7007 79.5809 31.7165 79.5492 31.764 79.5492C31.8432 79.5492 31.9382 79.5334 32.0015 79.5175C32.1757 79.4859 32.1915 79.3275 32.2232 79.09C32.2549 78.7734 32.2549 78.1717 32.2549 77.4117V76.62C32.2549 76.5884 32.239 76.5725 32.2074 76.5725H28.819C28.7874 76.5725 28.7715 76.5884 28.7715 76.62V77.4117C28.7715 78.1717 28.7715 78.7734 28.8032 79.09C28.8349 79.3275 28.8665 79.47 29.104 79.5017C29.2307 79.5175 29.4049 79.5334 29.4682 79.5334C29.5157 79.5334 29.5315 79.565 29.5315 79.5967C29.5315 79.6284 29.4999 79.66 29.4049 79.66C28.9457 79.66 28.439 79.6284 28.3915 79.6284C28.344 79.6284 27.8215 79.66 27.584 79.66C27.5049 79.66 27.4574 79.6442 27.4574 79.5967C27.4574 79.565 27.4732 79.5334 27.5207 79.5334C27.5999 79.5334 27.6949 79.5175 27.774 79.5017C27.9324 79.47 27.9482 79.3117 27.9799 79.09C28.0274 78.7734 28.0274 78.14 28.0274 77.38V75.9867C28.0274 74.7675 28.0274 74.5459 28.0115 74.2925C27.9957 74.0234 27.9482 73.8967 27.679 73.865C27.6157 73.8492 27.4732 73.8492 27.394 73.8492C27.3624 73.8492 27.3307 73.8175 27.3307 73.7859C27.3307 73.7384 27.3624 73.7225 27.4574 73.7225C27.8215 73.7225 28.344 73.7384 28.3915 73.7384C28.4232 73.7384 28.9457 73.7225 29.199 73.7225C29.294 73.7225 29.3257 73.7384 29.3257 73.7859C29.3257 73.8175 29.294 73.8492 29.2624 73.8492C29.2149 73.8492 29.1515 73.8492 29.0565 73.865C28.8349 73.9125 28.7874 74.0234 28.7715 74.2925C28.7557 74.5459 28.7557 74.7834 28.7557 76.0025V76.1767C28.7557 76.2242 28.7715 76.2242 28.8032 76.2242H32.1915C32.2232 76.2242 32.239 76.2242 32.239 76.1767V76.0025C32.239 74.7834 32.2232 74.5459 32.2232 74.2925C32.2074 74.0234 32.1599 73.8967 31.9065 73.865C31.8432 73.8492 31.7007 73.8492 31.6215 73.8492C31.5899 73.8492 31.5582 73.8175 31.5582 73.7859C31.5582 73.7384 31.5899 73.7225 31.6849 73.7225C32.049 73.7225 32.5715 73.7384 32.6032 73.7384C32.6507 73.7384 33.1732 73.7225 33.4107 73.7225C33.5057 73.7225 33.5532 73.7384 33.5532 73.7859C33.5532 73.8175 33.5215 73.8492 33.474 73.8492C33.4107 73.8492 33.379 73.8492 33.2682 73.865C33.0624 73.9125 33.0149 74.0234 32.9832 74.2925C32.9674 74.5459 32.9674 74.7675 32.9674 75.9867V77.3959H32.999Z"/><path fill="#FEFEFE" d="M35.6907 76.0184C35.6907 74.7992 35.6907 74.5775 35.6749 74.3242C35.659 74.055 35.6115 73.9284 35.3424 73.8967C35.279 73.8809 35.1365 73.8809 35.0574 73.8809C35.0257 73.8809 34.994 73.8492 34.994 73.8175C34.994 73.77 35.0257 73.7542 35.1207 73.7542C35.4849 73.7542 36.0232 73.77 36.0707 73.77C36.134 73.77 37.8282 73.7859 38.0182 73.77C38.1765 73.7542 38.319 73.7384 38.3824 73.7225C38.414 73.7067 38.4615 73.6909 38.4932 73.6909C38.5249 73.6909 38.5249 73.7225 38.5249 73.77C38.5249 73.8175 38.4774 73.9125 38.4615 74.1342C38.4457 74.2134 38.4299 74.5617 38.414 74.6567C38.3982 74.6884 38.3824 74.7359 38.3349 74.7359C38.2874 74.7359 38.2715 74.7042 38.2715 74.6409C38.2715 74.5775 38.2557 74.4509 38.224 74.3559C38.1607 74.2292 38.0815 74.1659 37.6382 74.1184C37.4957 74.1025 36.5615 74.0867 36.4665 74.0867C36.4349 74.0867 36.419 74.1184 36.419 74.1659V76.3034C36.419 76.3667 36.419 76.3825 36.4665 76.3825C36.5615 76.3825 37.6382 76.3825 37.8282 76.3667C38.0182 76.3509 38.1449 76.335 38.224 76.2559C38.2874 76.1925 38.319 76.1609 38.3507 76.1609C38.3824 76.1609 38.3982 76.1767 38.3982 76.2242C38.3982 76.2717 38.3507 76.3984 38.3349 76.6517C38.319 76.81 38.3032 77.1109 38.3032 77.1584C38.3032 77.2217 38.2874 77.3009 38.224 77.3009C38.1924 77.3009 38.1607 77.2692 38.1607 77.2217C38.1607 77.1425 38.1607 77.0634 38.129 76.9684C38.0974 76.8575 38.034 76.7625 37.7174 76.7309C37.4957 76.6992 36.6249 76.6992 36.4824 76.6992C36.4349 76.6992 36.4349 76.7309 36.4349 76.7625V77.4117C36.4349 77.6809 36.419 78.5992 36.4349 78.7575C36.4507 79.28 36.609 79.3909 37.4007 79.3909C37.6065 79.3909 38.0024 79.3909 38.2082 79.3117C38.414 79.2167 38.5249 79.0742 38.5724 78.7734C38.5882 78.6784 38.604 78.6467 38.6515 78.6467C38.699 78.6467 38.7149 78.71 38.7149 78.7734C38.7149 78.8367 38.6515 79.3592 38.604 79.5334C38.5407 79.7392 38.4615 79.7392 38.1449 79.7392C37.5274 79.7392 37.0682 79.7234 36.7357 79.7075C36.3874 79.6917 36.1815 79.6917 36.0549 79.6917C36.039 79.6917 35.8807 79.6917 35.7065 79.7075C35.5482 79.7234 35.3582 79.7234 35.2315 79.7234C35.1524 79.7234 35.1049 79.7075 35.1049 79.66C35.1049 79.6284 35.1207 79.5967 35.1682 79.5967C35.2474 79.5967 35.3424 79.565 35.4215 79.565C35.5799 79.5334 35.5957 79.375 35.6274 79.1534C35.6749 78.8367 35.6749 78.2034 35.6749 77.4434V76.0184H35.6907Z"/><path fill="#FEFEFE" d="M40.789 76.0184C40.789 74.7992 40.789 74.5775 40.7732 74.3242C40.7574 74.055 40.7099 73.9284 40.4407 73.8967C40.3774 73.8809 40.2349 73.8809 40.1557 73.8809C40.124 73.8809 40.0924 73.8492 40.0924 73.8175C40.0924 73.77 40.124 73.7542 40.219 73.7542C40.5832 73.7542 41.1374 73.77 41.1849 73.77C41.264 73.77 41.9607 73.7542 42.1982 73.7542C42.7207 73.7542 43.2907 73.8017 43.7182 74.1025C43.924 74.245 44.2882 74.625 44.2882 75.1792C44.2882 75.765 44.0507 76.3192 43.2907 76.9684C43.9557 77.8075 44.5257 78.52 45.0007 79.0109C45.4282 79.4542 45.6974 79.5334 45.9032 79.5492C46.0615 79.5809 46.1407 79.5809 46.1882 79.5809C46.2357 79.5809 46.2674 79.6125 46.2674 79.6442C46.2674 79.6917 46.2199 79.7075 46.0774 79.7075H45.5707C45.1115 79.7075 44.9057 79.66 44.6999 79.5492C44.3515 79.3592 44.0507 78.9792 43.5915 78.3934C43.2432 77.9659 42.8949 77.4592 42.7049 77.2534C42.6732 77.2217 42.6574 77.2059 42.594 77.2059L41.5332 77.1584C41.5015 77.1584 41.4699 77.1742 41.4699 77.2217V77.4117C41.4699 78.1717 41.4699 78.7734 41.5015 79.1059C41.5332 79.3434 41.5807 79.4859 41.8182 79.5175C41.929 79.5334 42.1032 79.5492 42.1824 79.5492C42.2457 79.5492 42.2457 79.5809 42.2457 79.6125C42.2457 79.6442 42.214 79.6759 42.119 79.6759C41.6757 79.6759 41.1532 79.6442 41.1215 79.6442C41.1057 79.6442 40.5674 79.6759 40.314 79.6759C40.2349 79.6759 40.1874 79.66 40.1874 79.6125C40.1874 79.5809 40.2032 79.5492 40.2507 79.5492C40.3299 79.5492 40.4249 79.5334 40.504 79.5175C40.6624 79.4859 40.6782 79.3275 40.7099 79.1059C40.7574 78.7892 40.7574 78.1559 40.7574 77.3959V76.0184H40.789ZM41.4857 76.6834C41.4857 76.7309 41.5015 76.7625 41.549 76.7784C41.6757 76.8417 42.0874 76.905 42.4515 76.905C42.6415 76.905 42.8632 76.8892 43.069 76.7625C43.354 76.5725 43.5599 76.1609 43.5599 75.5592C43.5599 74.5775 43.0215 74.0075 42.1507 74.0075C41.9132 74.0075 41.644 74.0392 41.5649 74.055C41.5332 74.0709 41.5015 74.1025 41.5015 74.15V76.6834H41.4857Z"/><path fill="#FEFEFE" d="M48.4207 78.8209C47.5182 78.0134 47.2965 76.9684 47.2965 76.0817C47.2965 75.4642 47.5024 74.3717 48.3257 73.5484C48.8799 72.9942 49.719 72.5509 51.144 72.5509C51.5082 72.5509 52.0307 72.5825 52.4899 72.6617C52.8382 72.725 53.139 72.7884 53.4399 72.8042C53.5349 72.82 53.5665 72.8517 53.5665 72.8992C53.5665 72.9784 53.5349 73.0892 53.519 73.4217C53.5032 73.7225 53.5032 74.2292 53.4874 74.3717C53.4715 74.5142 53.4557 74.5617 53.4082 74.5617C53.3449 74.5617 53.329 74.4984 53.329 74.3717C53.329 74.0075 53.1865 73.6275 52.9332 73.4217C52.6165 73.1367 51.904 72.8992 51.0807 72.8992C49.8457 72.8992 49.2757 73.2634 48.959 73.58C48.2782 74.2292 48.1199 75.0525 48.1199 76.0025C48.1199 77.7759 49.4815 79.3909 51.4607 79.3909C52.1574 79.3909 52.6957 79.3117 53.0757 78.9317C53.2657 78.7259 53.3924 78.3142 53.424 78.1559C53.4399 78.0609 53.4557 78.0134 53.519 78.0134C53.5665 78.0134 53.5824 78.0767 53.5824 78.1559C53.5824 78.2192 53.4715 79.0267 53.3765 79.3434C53.3132 79.5175 53.2974 79.5334 53.139 79.6125C52.7749 79.755 52.0624 79.8184 51.4765 79.8184C50.0832 79.8184 49.149 79.47 48.4207 78.8209Z"/><path fill="#FEFEFE" d="M55.5932 76.0184C55.5932 74.7992 55.5932 74.5775 55.5774 74.3242C55.5615 74.055 55.514 73.9284 55.2449 73.8967C55.1815 73.8809 55.039 73.8809 54.9599 73.8809C54.9282 73.8809 54.8965 73.8492 54.8965 73.8175C54.8965 73.77 54.9282 73.7542 55.0232 73.7542C55.3874 73.7542 55.9257 73.77 55.9732 73.77C56.0365 73.77 57.7307 73.7859 57.9207 73.77C58.079 73.7542 58.2215 73.7384 58.2848 73.7225C58.3165 73.7067 58.364 73.6909 58.3957 73.6909C58.4274 73.6909 58.4274 73.7225 58.4274 73.77C58.4274 73.8334 58.3799 73.9125 58.364 74.1342C58.3482 74.2134 58.3324 74.5617 58.3165 74.6567C58.3007 74.6884 58.2849 74.7359 58.2374 74.7359C58.1899 74.7359 58.174 74.7042 58.174 74.6409C58.174 74.5775 58.1582 74.4509 58.1265 74.3559C58.0632 74.2292 57.984 74.1659 57.5407 74.1184C57.3982 74.1025 56.464 74.0867 56.369 74.0867C56.3374 74.0867 56.3215 74.1184 56.3215 74.1659V76.3034C56.3215 76.3667 56.3215 76.3825 56.369 76.3825C56.464 76.3825 57.5407 76.3825 57.7307 76.3667C57.9207 76.3509 58.0473 76.335 58.1265 76.2559C58.1898 76.1925 58.2215 76.1609 58.2532 76.1609C58.2849 76.1609 58.3007 76.1767 58.3007 76.2242C58.3007 76.2717 58.2532 76.3984 58.2374 76.6517C58.2215 76.81 58.2057 77.1109 58.2057 77.1584C58.2057 77.2217 58.1898 77.3009 58.1265 77.3009C58.0948 77.3009 58.0632 77.2692 58.0632 77.2217C58.0632 77.1425 58.0632 77.0634 58.0315 76.9684C57.9999 76.8575 57.9365 76.7625 57.6199 76.7309C57.3982 76.6992 56.5274 76.6992 56.3849 76.6992C56.3374 76.6992 56.3215 76.7309 56.3215 76.7625V77.4117C56.3215 77.6809 56.3057 78.5992 56.3215 78.7575C56.3374 79.28 56.4957 79.3909 57.2874 79.3909C57.4932 79.3909 57.889 79.3909 58.0949 79.3117C58.3007 79.2167 58.4115 79.0742 58.459 78.7734C58.4749 78.6784 58.4907 78.6467 58.5382 78.6467C58.5857 78.6467 58.5857 78.71 58.5857 78.7734C58.5857 78.8367 58.5224 79.3592 58.4749 79.5334C58.4115 79.7392 58.3324 79.7392 58.0157 79.7392C57.3982 79.7392 56.939 79.7234 56.6065 79.7075C56.2582 79.6917 56.0524 79.6917 55.9257 79.6917C55.9099 79.6917 55.7515 79.6917 55.5774 79.7075C55.419 79.7234 55.229 79.7234 55.1024 79.7234C55.0232 79.7234 54.9757 79.7075 54.9757 79.66C54.9757 79.6284 54.9915 79.5967 55.039 79.5967C55.1182 79.5967 55.2132 79.565 55.2924 79.565C55.4507 79.5334 55.4665 79.375 55.4982 79.1534C55.5457 78.8367 55.5457 78.2034 55.5457 77.4434V76.0184H55.5932Z"/><path fill="#FEFEFE" d="M61.024 78.615C61.0399 79.2642 61.119 79.4542 61.3407 79.5175C61.4832 79.5492 61.6732 79.565 61.7524 79.565C61.784 79.565 61.8157 79.5967 61.8157 79.6284C61.8157 79.6759 61.7524 79.6917 61.6732 79.6917C61.214 79.6917 60.8815 79.66 60.8182 79.66C60.7549 79.66 60.4065 79.6917 60.0265 79.6917C59.9473 79.6917 59.8998 79.6759 59.8998 79.6284C59.8998 79.5967 59.9315 79.565 59.9632 79.565C60.0265 79.565 60.169 79.5492 60.2957 79.5175C60.5015 79.4542 60.5332 79.2484 60.5332 78.5359V74.0234C60.5332 73.7067 60.5807 73.6275 60.644 73.6275C60.739 73.6275 60.8815 73.7859 60.9607 73.865C61.0874 73.9917 62.2748 75.2584 63.5257 76.5409C64.3332 77.38 65.204 78.3142 65.4573 78.5675L65.3782 74.625C65.3623 74.1184 65.3307 73.9442 65.0774 73.8967C64.9349 73.865 64.7448 73.865 64.6815 73.865C64.6182 73.865 64.6182 73.8175 64.6182 73.7859C64.6182 73.7384 64.6815 73.7225 64.7765 73.7225C65.1407 73.7225 65.5365 73.7384 65.6315 73.7384C65.7265 73.7384 65.9957 73.7225 66.3282 73.7225C66.4074 73.7225 66.4707 73.7384 66.4707 73.7859C66.4707 73.8175 66.439 73.865 66.3757 73.865C66.344 73.865 66.2807 73.865 66.1857 73.8809C65.9165 73.9442 65.9007 74.0867 65.9007 74.5617L65.8848 79.1692C65.8848 79.6917 65.869 79.7392 65.8215 79.7392C65.7423 79.7392 65.6473 79.6759 65.204 79.2642C65.1249 79.185 63.9532 78.0292 63.0823 77.1425C62.1324 76.145 61.2298 75.195 60.9765 74.91L61.024 78.615Z"/><path fill="#FEFEFE" d="M70.1598 77.3959C70.1598 78.1559 70.1598 78.7734 70.1915 79.1059C70.2232 79.3434 70.2548 79.4859 70.5082 79.5175C70.619 79.5334 70.809 79.5492 70.8723 79.5492C70.9198 79.5492 70.9357 79.5809 70.9357 79.6125C70.9357 79.6442 70.904 79.6759 70.809 79.6759C70.3657 79.6759 69.8432 79.6442 69.7957 79.6442C69.764 79.6442 69.194 79.6759 68.9565 79.6759C68.8615 79.6759 68.8298 79.66 68.8298 79.6125C68.8298 79.5809 68.8457 79.5492 68.8932 79.5492C68.9723 79.5492 69.0673 79.5334 69.1307 79.5175C69.289 79.4859 69.3365 79.3275 69.3682 79.09C69.3998 78.7734 69.3998 78.14 69.3998 77.38V74.0709L68.2282 74.0867C67.7215 74.1025 67.5315 74.15 67.4048 74.34C67.3098 74.4825 67.3099 74.53 67.2782 74.5934C67.2623 74.6567 67.2307 74.6725 67.199 74.6725C67.1832 74.6725 67.1357 74.6567 67.1357 74.6092C67.1357 74.53 67.3098 73.8175 67.3098 73.7542C67.3257 73.7067 67.3732 73.6117 67.389 73.6117C67.4523 73.6117 67.5315 73.675 67.7532 73.7067C67.9907 73.7384 68.3074 73.7384 68.3865 73.7384H71.4582C71.7273 73.7384 71.9173 73.7225 72.044 73.7067C72.1707 73.6909 72.234 73.675 72.2815 73.675C72.3132 73.675 72.3132 73.7225 72.3132 73.77C72.3132 74.0075 72.2815 74.5775 72.2815 74.6725C72.2815 74.7359 72.2498 74.7675 72.2023 74.7675C72.1707 74.7675 72.139 74.7359 72.139 74.625L72.1232 74.5459C72.0915 74.3084 71.9173 74.1342 71.1415 74.1184L70.1282 74.1025V77.3959H70.1598Z"/><path fill="#FEFEFE" d="M74.039 76.0184C74.039 74.7992 74.039 74.5775 74.0232 74.3242C74.0074 74.055 73.9599 73.9284 73.6907 73.8967C73.6274 73.8809 73.4849 73.8809 73.4057 73.8809C73.374 73.8809 73.3424 73.8492 73.3424 73.8175C73.3424 73.77 73.374 73.7542 73.469 73.7542C73.8332 73.7542 74.3715 73.77 74.419 73.77C74.4665 73.77 76.1765 73.7859 76.3665 73.77C76.5249 73.7542 76.6674 73.7384 76.7307 73.7225C76.7624 73.7067 76.8099 73.6909 76.8415 73.6909C76.8732 73.6909 76.8732 73.7225 76.8732 73.77C76.8732 73.8334 76.8257 73.9125 76.8098 74.1342C76.794 74.2134 76.7782 74.5617 76.7624 74.6567C76.7465 74.6884 76.7307 74.7359 76.6832 74.7359C76.6357 74.7359 76.6199 74.7042 76.6199 74.6409C76.6199 74.5775 76.604 74.4509 76.5724 74.3559C76.5248 74.2292 76.4299 74.1659 75.9865 74.1184C75.844 74.1025 74.9099 74.0867 74.8149 74.0867C74.7832 74.0867 74.7674 74.1184 74.7674 74.1659V76.3034C74.7674 76.3667 74.7674 76.3825 74.8149 76.3825C74.9099 76.3825 75.9865 76.3825 76.1765 76.3667C76.3665 76.3509 76.4932 76.335 76.5724 76.2559C76.6357 76.1925 76.6674 76.1609 76.699 76.1609C76.7307 76.1609 76.7465 76.1767 76.7465 76.2242C76.7465 76.2717 76.699 76.3984 76.6832 76.6517C76.6674 76.81 76.6515 77.1109 76.6515 77.1584C76.6515 77.2217 76.6357 77.3009 76.5724 77.3009C76.5407 77.3009 76.509 77.2692 76.509 77.2217C76.509 77.1425 76.509 77.0634 76.4774 76.9684C76.4457 76.8575 76.3823 76.7625 76.0657 76.7309C75.844 76.6992 74.9732 76.6992 74.8307 76.6992C74.7832 76.6992 74.7832 76.7309 74.7832 76.7625V77.4117C74.7832 77.6809 74.7674 78.5992 74.7832 78.7575C74.799 79.28 74.9574 79.3909 75.749 79.3909C75.9549 79.3909 76.3507 79.3909 76.5565 79.3117C76.7624 79.2167 76.8732 79.0742 76.9207 78.7734C76.9365 78.6784 76.9524 78.6467 76.9999 78.6467C77.0474 78.6467 77.0474 78.71 77.0474 78.7734C77.0474 78.8367 76.984 79.3592 76.9365 79.5334C76.8732 79.7392 76.794 79.7392 76.4774 79.7392C75.8599 79.7392 75.4007 79.7234 75.0682 79.7075C74.7198 79.6917 74.514 79.6917 74.3873 79.6917C74.3715 79.6917 74.2132 79.6917 74.039 79.7075C73.8807 79.7234 73.6907 79.7234 73.564 79.7234C73.4849 79.7234 73.4374 79.7075 73.4374 79.66C73.4374 79.6284 73.4532 79.5967 73.5007 79.5967C73.5799 79.5967 73.6749 79.565 73.754 79.565C73.9124 79.5334 73.9282 79.375 73.9599 79.1534C74.0073 78.8367 74.0074 78.2034 74.0074 77.4434V76.0184H74.039Z"/><path fill="#FEFEFE" d="M79.1374 76.0184C79.1374 74.7992 79.1374 74.5775 79.1215 74.3242C79.1057 74.055 79.0582 73.9284 78.789 73.8967C78.7257 73.8809 78.5832 73.8809 78.504 73.8809C78.4723 73.8809 78.4407 73.8492 78.4407 73.8175C78.4407 73.77 78.4723 73.7542 78.5673 73.7542C78.9315 73.7542 79.4857 73.77 79.5332 73.77C79.6124 73.77 80.309 73.7542 80.5465 73.7542C81.069 73.7542 81.639 73.8017 82.0665 74.1025C82.2723 74.245 82.6365 74.625 82.6365 75.1792C82.6365 75.765 82.399 76.3192 81.639 76.9684C82.304 77.8075 82.874 78.52 83.349 79.0109C83.7765 79.4542 84.0457 79.5334 84.2515 79.5492C84.4098 79.5809 84.489 79.5809 84.5365 79.5809C84.584 79.5809 84.6157 79.6125 84.6157 79.6442C84.6157 79.6917 84.5682 79.7075 84.4257 79.7075H83.919C83.4599 79.7075 83.254 79.66 83.0482 79.5492C82.6999 79.3592 82.399 78.9792 81.9399 78.3934C81.5915 77.9659 81.2432 77.4592 81.069 77.2534C81.0374 77.2217 81.0057 77.2059 80.9582 77.2059L79.929 77.19C79.8974 77.19 79.8657 77.2059 79.8657 77.2534V77.4434C79.8657 78.2034 79.8657 78.805 79.8973 79.1375C79.929 79.375 79.9765 79.5175 80.214 79.5492C80.3248 79.565 80.499 79.5809 80.5782 79.5809C80.6415 79.5809 80.6415 79.6125 80.6415 79.6442C80.6415 79.6759 80.6099 79.7075 80.5149 79.7075C80.0715 79.7075 79.549 79.6759 79.5174 79.6759C79.5015 79.6759 78.9632 79.7075 78.7098 79.7075C78.6307 79.7075 78.5832 79.6917 78.5832 79.6442C78.5832 79.6125 78.599 79.5809 78.6465 79.5809C78.7257 79.5809 78.8207 79.565 78.8999 79.5492C79.0582 79.5175 79.074 79.3592 79.1057 79.1375C79.1532 78.8209 79.1532 78.1875 79.1532 77.4275V76.0184H79.1374ZM79.834 76.6834C79.834 76.7309 79.8499 76.7625 79.8973 76.7784C80.024 76.8417 80.4357 76.905 80.7999 76.905C80.9898 76.905 81.2115 76.8892 81.4174 76.7625C81.7023 76.5725 81.9082 76.1609 81.9082 75.5592C81.9082 74.5775 81.3698 74.0075 80.499 74.0075C80.2615 74.0075 79.9923 74.0392 79.9132 74.055C79.8815 74.0709 79.8499 74.1025 79.8499 74.15V76.6834H79.834Z"/><path fill="#FEFEFE" d="M87.0382 76.0184C87.0382 74.7834 87.0382 74.5617 87.0223 74.3084C87.0065 74.0392 86.959 73.9125 86.6898 73.865C86.6265 73.8492 86.484 73.8492 86.4049 73.8492C86.3732 73.8492 86.3415 73.8175 86.3415 73.7859C86.3415 73.7384 86.3732 73.7225 86.4682 73.7225C86.8482 73.7225 87.3548 73.7384 87.4023 73.7384C87.5607 73.7384 89.3498 73.7542 89.5398 73.7384C89.6982 73.7225 89.8407 73.7225 89.9198 73.7067C89.9673 73.6909 89.999 73.6592 90.0307 73.6592C90.0623 73.6592 90.094 73.6909 90.094 73.7384C90.094 73.8017 90.0623 73.8809 90.0307 74.1184C90.0148 74.1975 90.0148 74.5459 89.999 74.6409C89.9832 74.6725 89.9673 74.72 89.9198 74.72C89.8882 74.72 89.8565 74.6884 89.8565 74.625C89.8565 74.5617 89.8248 74.435 89.7773 74.3242C89.7298 74.2292 89.5398 74.0867 89.2232 74.0867L87.8773 74.0709C87.8298 74.0709 87.814 74.0867 87.814 74.15V76.3192C87.814 76.3667 87.814 76.3984 87.8773 76.3984L89.0015 76.3825C89.144 76.3825 89.2707 76.3825 89.3815 76.3667C89.5715 76.3509 89.6823 76.3192 89.7615 76.2242C89.7932 76.1767 89.8407 76.145 89.8723 76.145C89.904 76.145 89.9198 76.1767 89.9198 76.2084C89.9198 76.2559 89.8565 76.3825 89.8407 76.6517C89.8248 76.81 89.809 77.1267 89.809 77.19C89.809 77.2692 89.7932 77.3484 89.7298 77.3484C89.6823 77.3484 89.6665 77.3167 89.6665 77.2692C89.6507 77.19 89.6507 77.0792 89.6032 76.9842C89.5715 76.8734 89.429 76.7625 89.1757 76.7309C88.9698 76.6992 88.004 76.715 87.8615 76.715C87.814 76.715 87.7982 76.7309 87.7982 76.7942V77.4275C87.7982 78.2192 87.7982 78.8367 87.8298 79.1534C87.8615 79.3909 87.909 79.5334 88.1307 79.5809C88.2573 79.5967 88.4315 79.6125 88.5107 79.6125C88.5582 79.6125 88.574 79.6442 88.574 79.6759C88.574 79.7075 88.5423 79.7392 88.4473 79.7392C87.9882 79.7392 87.4498 79.7075 87.4182 79.7075C87.3707 79.7075 86.864 79.7392 86.6107 79.7392C86.5315 79.7392 86.484 79.7234 86.484 79.6759C86.484 79.6442 86.4998 79.6125 86.5473 79.6125C86.6265 79.6125 86.7215 79.5809 86.8007 79.5809C86.959 79.5492 86.9748 79.3909 87.0223 79.1534C87.0698 78.8209 87.0698 78.2034 87.0698 77.4275V76.0184H87.0382Z"/><path fill="#FEFEFE" d="M94.3532 73.6117C96.2057 73.6117 97.599 74.7359 97.599 76.5884C97.599 78.3617 96.2848 79.8342 94.3057 79.8342C92.0573 79.8342 91.0915 78.14 91.0915 76.715C91.0915 75.4325 92.089 73.6117 94.3532 73.6117ZM94.5432 79.5017C95.2873 79.5017 96.7598 79.1059 96.7598 76.81C96.7598 74.91 95.604 73.8967 94.3057 73.8967C92.9282 73.8967 91.9465 74.7517 91.9465 76.4775C91.9465 78.3459 93.0548 79.5017 94.5432 79.5017Z"/><path fill="#FEFEFE" d="M99.3248 76.0184C99.3248 74.7834 99.3248 74.5617 99.309 74.3084C99.2932 74.0392 99.2457 73.9125 98.9765 73.865C98.9132 73.8492 98.7707 73.8492 98.6915 73.8492C98.6598 73.8492 98.6282 73.8175 98.6282 73.7859C98.6282 73.7384 98.6598 73.7225 98.7548 73.7225C99.1348 73.7225 99.6732 73.7384 99.7207 73.7384C99.7998 73.7384 100.497 73.7225 100.75 73.7225C101.272 73.7225 101.858 73.77 102.286 74.0709C102.492 74.2134 102.856 74.6092 102.856 75.1475C102.856 75.7334 102.618 76.3034 101.842 76.9525C102.507 77.7917 103.077 78.52 103.568 79.0109C104.012 79.4542 104.281 79.5334 104.487 79.565C104.645 79.5967 104.724 79.5967 104.772 79.5967C104.819 79.5967 104.851 79.6284 104.851 79.66C104.851 79.7075 104.803 79.7234 104.661 79.7234H104.154C103.695 79.7234 103.489 79.6759 103.283 79.565C102.935 79.375 102.634 78.995 102.159 78.3934C101.811 77.9659 101.447 77.4434 101.272 77.2375C101.241 77.2059 101.209 77.19 101.162 77.19L100.117 77.1742C100.085 77.1742 100.053 77.19 100.053 77.2375V77.4275C100.053 78.1875 100.053 78.805 100.085 79.1375C100.117 79.375 100.164 79.5175 100.417 79.565C100.528 79.5809 100.702 79.5967 100.782 79.5967C100.845 79.5967 100.845 79.6284 100.845 79.66C100.845 79.6917 100.813 79.7234 100.718 79.7234C100.275 79.7234 99.7523 79.6917 99.7048 79.6917C99.689 79.6917 99.1507 79.7234 98.8973 79.7234C98.8182 79.7234 98.7707 79.7075 98.7707 79.66C98.7707 79.6284 98.7865 79.5967 98.834 79.5967C98.9132 79.5967 99.0082 79.5809 99.0873 79.565C99.2457 79.5334 99.2615 79.375 99.309 79.1375C99.3565 78.805 99.3565 78.1875 99.3565 77.4117V76.0184H99.3248ZM100.037 76.6834C100.037 76.7309 100.053 76.7625 100.101 76.7784C100.227 76.8417 100.639 76.905 101.003 76.905C101.193 76.905 101.431 76.8892 101.621 76.7625C101.906 76.5725 102.112 76.1609 102.112 75.5434C102.112 74.5459 101.573 73.9759 100.687 73.9759C100.449 73.9759 100.18 74.0075 100.101 74.0234C100.069 74.0392 100.037 74.0709 100.037 74.1184V76.6834Z"/></g></g></g></svg>