<svg xmlns="http://www.w3.org/2000/svg" fill="none" aria-hidden="true" viewBox="0 0 102 133"><path fill="#000" d="M31.507 81.039c-3.69-2.904-7.628-5.686-10.319-9.606-5.663-6.913-10.021-14.915-13.001-23.326-1.802-5.47-2.419-11.333-4.743-16.59-2.428-3.82.418-7.992 4.601-9.206 1.861-.359 5.136-2.116 1.183-.858-3.544 2.599-3.886-2.362-.252-2.676 2.48-.33 3.393-2.359 2.544-4.186-2.663-1.737 6.456-3.643 1.867-6.234-4.777-5.156 6.685-6.149 3.856-.293-.676 4.503 8.012-.826 5.994 4.374 2.05 2.498 7.674.57 7.532 4.071 2.985.206 4.01 2.716 6.81 2.909 2.905 1.312 8.167 2.344 9.155 5.616-2.88 2.28-9.55-4.71-9.871 1.602.871 9.325.649 18.932 4.06 27.812 1.613 5.377 5.526 9.609 9.058 13.797 3.381 4.1 7.96 6.99 12.628 9.42 4.094 1.931 8.508 3.21 12.97 4.015 1.81-1.384 5.005-6.53 7.826-4.361.136 2.44-5.6 5.099-.269 4.829 3.133-.946 5.304 2.42 7.883-.617 2.376 2.815 9.876-1.797 8.185 3.956-2.286 1.475-5.62.583-7.91 2.614-3.775-1.887-6.78 1.685-10.96 1.234-4.64.832-9.364 1.166-14.069 1.173-7.72-.608-15.603-.866-22.947-3.554-4.138-1.202-8.175-3.559-11.811-5.915Zm6.52 2.826c4.039 1.745 7.99 3.587 12.417 4.144 7.025.975 14.28 2.48 21.328 1.109-3.19-1.44-6.49.56-9.668-1.03-3.81.82-7.902-.21-11.779-.718-4.406-1.962-9.162-3.311-13.288-5.861-5.159-1.883 2.665 2.416 4.059 2.765 3.222 1.829-3.545-.938-4.5-1.698-2.7-1.515-3.044-1.198-.267.339.559.327 1.111.67 1.697.95Zm-7.689-5.432c3.916 1.45-.017-2.753-1.809-2.51-.794-1.379-3.037-2.25-1.455-2.99-2.844.987-2.98-3.755-4.316-3.077-3.01-.95-1.171-4.317-4.758-6.385-.327-2.179-3.561-4.067-4.59-7.352-.457-1.683-3.657-6.512-1.691-2.017 1.672 4.326 4.616 8.034 7.066 11.735 1.9 3.524 4.148 7.21 7.611 9.408 1.168 1.12 2.294 2.836 3.942 3.188ZM19.063 66.049c.136-.591.716 1.28 0 0ZM35.03 80.17c.866-.388-1.247-.49 0 0Zm2.124.775c-.22-1.07-.97.599 0 0Zm2.66 1.109c1.266-1.206-1.952-.76 0 0Zm4.56 2.541c.77-1.136-2.463-.427 0 0Zm-8.754-6.103c1.965-1.272-2.543-.018 0 0Zm1.994.995c-.057-.671-.71.302 0 0Zm9.972 6.225c1.604 1.012 9.364 2.218 4.505.415-.814.172-9.01-2.319-4.505-.415ZM31.755 73.38c-.156-.673-2.49-.746 0 0Zm4.64 2.708c1.21-.844-2.507-.652 0 0Zm3.906 2.393c1.735-.653-2.811-.656 0 0Zm-10.438-7.158c1.881 1.443 7.59.186 2.881-.861-2.14-1.141-6.967-1.923-3.677.688l.796.173Zm13.084 7.985c.785-1.334-3.287-.763 0 0Zm-3.975-3.159c4.599 1.3-3.869-2.91-1.136-.48l.607.275.529.205Zm7.97 4.607c4.356.042-3.935-.602 0 0ZM28.188 68.804c-.171-.812-1.074.067 0 0ZM54.31 84.89c.116-1.465-1.422 1.092 0 0ZM35.623 73.356c-.265-.772-1.361-.032 0 0Zm-7.022-5.061c2.5-.151-3.425-1.102 0 0Zm-8.319-5.377c-.312-1.2-2.72-2.155 0 0ZM42.12 76.777c-.457-.523-.215.113 0 0Zm13.591 8.341c-.042-.8-.74.302 0 0Zm-14.793-9.584c.245-1.03-2.134-.312 0 0ZM30.79 69.116c1.862-.198-2.982-1.257 0 0ZM47.92 79.76c2.9-1.148-2.827-.56 0 0Zm-8.908-6.046c3.34.43-3.978-2.275-.735-.243l.735.243Zm11.613 7.14c3.121-1.863 2.092 4.369 5.294.527 3.159-2.306-2.727 2.852 1.164.412 2.816-1.884 6.974.893 9.6 1.796 1.889-.091 3.726 1.634 5.663.584 3.728-1.005-7.29-1.49-4.403-3.27-3.41.993-5.93-1.183-7.608-3.368-3.827-.884-8.25-2.84-10.16-6.227-.78-1.27 1.123.18-.673-1.899-2.305-2.05-3.456-4.379-5.003-6.87-1.849-.986-2.067-3.89-2.253-.097.016-2.394-2.232-4.005-2.781-3.337-.01-2.304 2.406-1.148.715-2.854-.364-2.388-1.562-4.878-1.921-7.576-.559-1.3-.08-4.084-1.91-1.141-.666 3.111-.221-3.822.816-1.537 1.361-2.332-.49-2.057-.564-1.735.886-1.968.562-4.76-.233-3.696.473-2.086.748-7.677-.705-6.685.88-2.183 1.67-9.985-2.156-7.01-1.55.023-4.235.563-5.502 1.194 3.977 2.193-.401.792-2.023.443-.21 2.03-1.814 1.153-3.819 1.173 3.203.396-1.559 3.274-3.393 2.156-2.386 1.139 2.057 3.985.047 4.866.248 1.324-3.653-.48-3.349 2.584-2.314-.976-.316 3.633.842 2.074 3.938 1.067 2.772 3.495 2.87 5.804-.64 1.344-3.167-3.16-.561-2.953-2.057-3.339-2.274-1.207-3.983.344-.396.112 4.357 2.208 1.374 3.243 2.624.406 2.7 2.703 3.235 4.156 1.577 1.643 1.252-1.815 3.141.16-1.195-1.76-6.326-4.957-2.195-3.932-.022-1.77-.748-3.198.52-3.164 1.255-2.27-1.315 5.599 1.512 2.713.782-.341.978-2.272 2.384.183 2.041 2.01.737 3.465-2.144 1.624.515 1.75 3.854 2.373 3.225 5.109.666 2.406 1.596 1.52 2.408 1.38.636 2.337.998.62 1.028-.495 2.913.625 2.23 2.347 3.143 3.55 2.007.905-2.874-6.141.572-2.119 3.626 3.275 1.36 4.64-1.893 4.116 2.059-.166 2.722 2.785 5.299 2.681 2.349 1.119 3.94 5.41-.11 3.623-1.403-1.267-6.376-2.829-2.313-.42 3.747 1.737 6.727 2.774 10.343 4.955 2.587 1.847 3.705 3.962 4.685 4.381-2.175 1.04-6.554-.83-3.302-1.4-2.03-.37-4.311-1.397-2.368 1.13 1.653 1.382 5.853 1.235 6.608 1.391-.638 1.406-1.734 1.518.025 1.627-1.963 1.046.631 1.21.812 1.806ZM46.61 69.515c-1.196-1.25-1.505-3.589-.213-1.555.664.267 2.122 3.825.213 1.555Zm13.077 8.306c.745-.05.022.567 0 0Zm-14.962-11.37c-.048-1.89.43 1.457 0 0Zm-1.3-1.748c-1.505-2.903 1.893.822 0 0Zm-15.752-10.87c.884-.236.436 1.509 0 0Zm12.537 6.793c.542-2.037.636 1.709 0 0Zm-8.856-6.158c-.624-1.124 1.304 1.055 0 0Zm7.598 2.436c-1.423-3.188 1.01-1.743.317.522l-.317-.522Zm-13.105-8.74c-.637-1.047-1.688-4.116-1.35-5.054.305 1.527 3.245 6.569 1.44 2.09-1.991-3.756 2.385 1.216 2.835 2.155.21.93-1.23-.255-.255 1.93-1.78-2.487-1.05 1.374-2.67-1.121Zm-4.05-2.792c.166-2.433.926 1.669 0 0Zm1.822.629c.869-1.837 1.472 2.559 0 0Zm-4.384-3.39c-1.507-1.501-2.599-2.882.072-.932 1.027.04-2.287-3.14.248-1.01 2.663.486 1.314 4.37-.32 1.941Zm2.302-.06c.877-.87.465.854 0 0Zm1.418.453c-1.329-2.488 1.612 1.044 0 0Zm-2.816-2.69c-4.384-3.905 5.507 2.038.715.722l-.715-.723ZM32.7 47.608c-1.898-1.136-.505-8.006.144-3.308 1.844-.597-.102 2.428 1.272 2.398-.215 1.908-.832 2.594-1.416.91Zm4.646 2.748c.186-2.071.39 1.416 0 0Zm-.807-.8c.208-.883.02 1.043 0 0ZM20.997 39.031c-2.816-3.886 8.186 3.93 1.805.985-.666-.175-1.47-.238-1.805-.985Zm8.948 4.742c-.267-3.272.594.542 0 0Zm6.792 4.359c.525-1.864.04 1.233 0 0ZM21.43 37.548c1.673-.359 6.935 2.938 2.104.941-.537-.594-1.683-.324-2.104-.94Zm14.373 7.163c.178-3.346 1-1.997.007.48l-.007-.48Zm-13.128-8.328c.683-1-1.812-4.522.359-1.263.938.745 2.715 1.248 1.146 1.562 2.467 2.176-.602.59-1.505-.3Zm12.417 7.284c.471-3.812.417 2.232 0 0ZM21.25 32.863c.522-.223.277.695 0 0Zm3.24 1.928c.834-1.75 1.537 1.95 0 0Zm9.136 5.081c-.008-.67.173.978 0 0Zm-.53-1.17c-1.267-3.129 1.18 1.656 0 0Zm-.777-2.052c-.213-1.292.723 1.624 0 0Zm1.267-2.06c-.871-1.532 1.1-6.757 1.32-3.516-.919 2.524-.265 3.935.373.549 1.184-2.663-.255 5.26-1.693 2.967Zm1.302-7.769c.379-.465.084.562 0 0Zm-2.175 42.852c-.515-.45.066.285 0 0Zm4.48 2.265c2.492.641 2.48-.387.227-.693-1.21-1.126-5.034-2.322-1.611-.14.225.576.94.56 1.384.833Zm-8.847-5.876c1.372 1.025 5.17 2.9 1.956.391 1.084-1.26-2.075-1.93-1.027-2.775-2.666-1.631-2.105-1.485-.235-1.433-3.203-1.433.462-1.324.29-2.06-1.236-.242-6.137-2.178-3.253.16-2.93-1.494-.699.556-1.584.34-2.998-.816 2.668 2.283-.476 1.513 1.718 1.361 4.627 3.49.725 1.44-.512.74 2.793 1.862 3.604 2.424Zm4.685 2.692c5.696 1.835-2.794-2.245 0 0Zm23.985 14.53c.074-1.131-.778.965 0 0Zm2.465 1.037c1.314-1.272.055 2.03 2.178-.312.022-1.676-.064-2.665-2.44-.629-.657.364-.948 1.906.262.941ZM20.35 59.746c-.403-1.587-2.829-1.58 0 0Zm2.631 1.724c-.978-1.62-3.487-1.467 0 0Zm14.977 9.032c1.463 1.3 6.715.953 1.775.161-.73-1.082-4.643-.822-1.775-.16Zm20.586 12.715c2.25-1.889-2.18.842 0 0Zm4.68 3.215c.015-.606-.97.265 0 0Zm.008-.849c2.492-2.638-2.413.156 0 0ZM13.874 54.325c-2.123-3.03-1.32-4.391-3.368-6.866-.39-1.894-3.515-6.186-1.617-1.639 1.738 2.66 2.253 6.78 4.985 8.505Zm48.575 30.42c4.586-2.964-1.881-1.29 0 0Zm3.5 1.37c2.297-1.97-1.453-.41 0 0Zm-46.38-29.719c.657-.978-1.697-.126 0 0ZM65.22 85.18c2.222-1.433-.513-1.213-.404.13l.403-.13ZM35.051 66.165c-.077-.97-1.176.082 0 0Zm1.863 1.073c-.594-1.199-.91.188 0 0Zm31.87 18.91c2.849-2.055-1.725-.394-.596.39l.596-.39Zm-1.091-.527c2.321-1.944-2.449.86 0 0Zm5.573 3.71c1.558-1.043-1.893-.337 0 0Zm-52.27-33.64c2.087.467 8.344 5.14 4.654.324-1.89-.56-.757-5.18-2.686-4.364 1.295 2.164 1.064 3.082-1.653 1.72-3.413-1.668-1.918.825-1.25 1.513-.91.208 1.203.79.935.807Zm-9.511-7.512c.373-1.547-3.443-8.505-1.802-3.487.591 1.051.53 3.044 1.802 3.487Zm17.46 10.764c-1.077-.898-.053-.128 0 0Zm2.645.617c0-1.639-2.925-.666 0 0Zm22.945 14.462c-.438-1.12-1.73-.025 0 0Zm1.1.804c-.163-.626-.635.122 0 0Zm9.095 5.73c.874-.646-1.092-.084 0 0ZM16.236 49.392c2.502-.968-2.681-.69 0 0Zm36.28 22.855c-.03-1.619-1.596.404 0 0Zm-37.268-25.16c1.606-.541-1.488-.356 0 0Zm4.663 2.26c-.027-.532-.492.203 0 0Zm56.891 34.887c2.066-.418 6.777 1.052 7.537-.547-2.51-.062-8.68-1.772-8.973.406l.55.087.886.054ZM21.393 49.721c.038-1.641-1.279-.062 0 0Zm-12.26-8.507c-.557-3.126-2.119-.473 0 0Zm2.923.735c.037-1.005-2.676-.903 0 0Zm1.67.822c-.482-.392-.375.492 0 0Zm10.517 6.745c.496-.456-1.172-.337 0 0ZM12.614 40.92c-.284-2.362-3.388-.355 0 0Zm-5.997-3.892c-.084-1.089-.584.411 0 0Zm.894-.672c-.146-1.293-.768.162 0 0Zm4.926 2.94c2.084-.817-3.795-1.694-.426-.154l.426.154ZM78.383 80.03c1.334-1.222-1.693-.378 0 0Zm7.967 4.129c.535-1.579-1.346.208 0 0ZM12.94 36.713c.22-1.53-1.653.304 0 0Zm-7.012-4.698c-.376-2.158-.324-5.947 3.277-4.667-4.807.955 3.33 5.976 2.302 2.011 2.022.1 3.955-1.195 2.893.768 3.985-.438 6.745-3.893 10.594-3.408 2.997-.399 6.274-.698 9.505-1.906 2.655-.19 5.212-3.05 3.757-4.745-3.621-.307-7.413.146-11.415.943-4.436.92-8.465 2.673-12.94 3.426-4.364.586.876 1.613-.374 1.843-2.275.79 2.715 1.322-.295 2.156-1.859-.354-3.794-.992-3-2.953-4.178.545-7.851 2.278-4.55 6.53l.246.002ZM16 26.887c.977-3.609 5.247 2.97 1.603.48-.433-.327-1.15-.592-1.603-.48Zm.19-1.75c1.413-1.052.75.591 0 0Zm1.794.03c.13-1.661 4.112.878.657.596l-.657-.596Zm2.456-.988c.898-1.05.26.93 0 0Zm.629-.42c1.494-1.795 8.457-1.147 3.36-.177-1.366-1.03-2.412.607-3.36.177Zm9.088-1.401c-.225-4.904 4.517 1.74 0 0Zm2.58-.016c.942-2.47 3.66-.992.437-.497.07.265-.096 1.277-.438.497ZM11.923 35.447c2.816-1.726-2.99-1.497 0 0Zm2.084.576c.988-1.049-2.149-.425 0 0ZM7.87 31.67c1.609-1.238-1.906-.47 0 0Zm83.184 52.04c.047-1.436-1.23.645 0 0ZM82.6 77.94c.24-1.651-1.087.144 0 0Zm10.777 6.326c2.25.008 6.819-.7 1.923-.698-.77.12-4.477.095-1.923.698ZM15.84 35.011c1.821-.124 2.849-2.007-.354-1.9-4.963-.513 4.378 1.7-.637 1.066-.673.446.95.958.99.834Zm1.603.812c-.19-1.168-.564.621 0 0Zm1.904-5.074c.79-.98-1.094-.262 0 0Zm-6.06-10.126c3.253-1.104 7.698-2.346 9.233.545-1.562-1.879-.631-3.73.844-.98 2.087 2.78 3.13-1.265 1.774-2.198 1.548 1.92 3.305 2.829 1.035.121 2.468-2.968-4.938.389-6.62.354-.81.364-8.362 1.925-6.266 2.158Zm1.906-3.648c1.854-1.398 6.413.834 3.488-1.391-.287-.252-6.406 1.688-3.488 1.391Zm6.76.28c2.168.054-.935-2.916 1.649-1.57-.424-1.386-3.01-1.645-4.275-2.2-.715 1.268 1.455 3.787 2.626 3.77Zm-5.574-6.136c.75-1.017-1.317.517 0 0Zm2.763.66c3.497-.462-.892-1.504-.706-.036l.706.037Zm-5.159-4.034c-2.463-3.215 4.631.54 2.128-2.827-2.106-1.675-4.128 1.89-2.128 2.827Zm31.595 17.017c1.13-2-4.66-2.698-.76-.708.359.119.278.846.76.708Zm-22.926 74.5c-.25.986-.404 2.642-.462 4.965 0 .456-.206.685-.618.685-.412 0-.699-.2-.861-.597-.442-1.074-.86-1.823-1.258-2.251-.47-.499-1.096-.801-1.876-.904-.839-.133-2.927-.199-6.267-.199-.764 0-1.265.081-1.5.244-.147.102-.22.323-.22.662v9.996c0 .339.213.499.639.486 1.31-.016 3.207-.105 5.693-.265.485-.06.813-.218.982-.476.17-.257.336-.922.497-1.996.102-.589.448-.817 1.037-.684.5.103.714.331.64.684-.412 2.001-.545 4.605-.398 7.812.016.382-.227.588-.728.618-.412.044-.67-.177-.772-.662-.381-1.839-1.093-2.821-2.129-2.947-1.037-.124-2.726-.187-5.065-.187-.264 0-.396.095-.396.286v9.931c0 .735.27 1.236.815 1.5.428.221 1.347.42 2.758.596.722.074 1.038.391.95.949-.088.486-.735.677-1.943.574-3.486-.28-6.362-.265-8.627.045-.633.087-.949-.17-.949-.773 0-.383.316-.603.949-.662 1.442-.162 2.162-1.428 2.162-3.795v-18.891c0-.97-.173-1.716-.518-2.239-.346-.523-.99-.998-1.931-1.424-.588-.265-.809-.625-.662-1.081.074-.28.192-.434.353-.463.147-.045.537-.016 1.169.088.927.148 3.112.221 6.554.221 4.061 0 7.569-.089 10.527-.265.985-.06 1.478.022 1.478.242 0 .06-.007.118-.023.177Zm14.311 28.013c0 .588-.331.846-.993.772-2.03-.192-4.545-.163-7.546.087-.604.06-.975.045-1.115-.042-.14-.089-.21-.332-.21-.73 0-.352.401-.65 1.203-.893.803-.242 1.202-.967 1.202-2.173v-19.971c0-1.192-.173-2.068-.518-2.627-.346-.559-.953-.993-1.82-1.301-.457-.162-.685-.391-.685-.685 0-.441.33-.772.993-.993 1-.323 2.038-.823 3.112-1.5.883-.53 1.442-.794 1.677-.794.544 0 .817.374.817 1.125 0-.058-.03.677-.09 2.206a107.06 107.06 0 0 0-.042 4.304l.087 19.705c0 .898.221 1.55.662 1.954.442.405 1.2.673 2.273.805.662.073.993.323.993.751Zm19.959-1.301c0 .309-.563.775-1.688 1.4-1.126.625-2.027.938-2.703.938-.575 0-1.082-.279-1.523-.838-.441-.559-.751-.838-.928-.838-.131 0-.83.301-2.096.904-1.264.603-2.538.905-3.817.905-1.206 0-2.215-.353-3.024-1.058-.882-.781-1.324-1.84-1.324-3.179 0-2.545 2.914-4.369 8.74-5.472.999-.192 1.508-.596 1.522-1.214l.044-1.413c.089-2.412-.978-3.618-3.2-3.618-.633 0-1.232.565-1.799 1.698-.565 1.134-1.379 1.744-2.438 1.833-1.206.116-1.81-.391-1.81-1.523 0-.707.898-1.53 2.693-2.472 1.883-.986 3.693-1.479 5.43-1.479 2.985 0 4.463 1.421 4.434 4.26l-.089 9.091c-.014.956.391 1.434 1.214 1.434.162 0 .472-.037.927-.11.457-.074.722-.111.795-.111.427 0 .64.288.64.862Zm-6.797-5.031c.016-.368-.07-.612-.254-.729-.184-.117-.474-.14-.87-.067-3.547.633-5.32 1.788-5.32 3.465 0 1.692.92 2.538 2.759 2.538a6.72 6.72 0 0 0 2.272-.419c.913-.324 1.368-.714 1.368-1.17l.045-3.618Zm23.203 2.491c0 1.56-.601 2.8-1.8 3.72-1.198.919-2.835 1.379-4.91 1.379a19.9 19.9 0 0 1-4.148-.441c-1.192-.266-1.883-.508-2.075-.729-.118-.206-.176-1.213-.176-3.023 0-.78.176-1.184.53-1.213.353-.045.655.147.905.573 1.103 1.927 2.883 2.891 5.34 2.891 2.073 0 3.111-.721 3.111-2.164 0-.631-.235-1.161-.707-1.587-.515-.486-1.513-1.053-3-1.7-2.148-.956-3.583-1.794-4.303-2.516-.78-.765-1.17-1.794-1.17-3.089 0-1.59.61-2.825 1.832-3.707 1.132-.854 2.648-1.28 4.545-1.28 1.192 0 2.28.095 3.267.287 1.06.191 1.611.426 1.655.706.117.823.36 2.015.728 3.575.045.19-.162.345-.617.463-.486.103-.81.022-.972-.242-1.161-1.899-2.633-2.847-4.413-2.847-2.016 0-3.024.646-3.024 1.941 0 .722.273 1.295.817 1.721.486.368 1.626.943 3.42 1.723 1.884.809 3.163 1.537 3.84 2.183.883.839 1.325 1.965 1.325 3.376Zm25.962 3.862c0 .515-.347.788-1.038.817-1.03.015-2.377.089-4.038.221-.825.162-1.413.06-1.766-.308-2.325-2.501-4.297-5.12-5.915-7.857-.132-.235-.3-.353-.507-.353-.25 0-.684.221-1.301.662-.693.382-1.038.927-1.038 1.632 0 .501.014 1.222.044 2.164.03.941.264 1.559.705 1.853.31.207 1.024.368 2.141.486.692.089 1.038.346 1.038.772 0 .339-.055.549-.166.629-.11.081-.401.099-.872.055-1.47-.132-3.957-.059-7.458.22-.883.074-1.36-.037-1.435-.331a1.7 1.7 0 0 1-.044-.441c0-.455.45-.802 1.347-1.036.81-.207 1.214-1.156 1.214-2.847v-19.288c0-1.206-.118-2.044-.354-2.514-.323-.604-1-1.075-2.03-1.413-.485-.161-.728-.39-.728-.684 0-.427.346-.758 1.037-.993a13.839 13.839 0 0 0 3.155-1.523c.81-.529 1.31-.794 1.5-.794.604 0 .906.382.906 1.148 0-.104-.007.625-.023 2.184a354.65 354.65 0 0 0-.021 4.326l.044 13.813c0 .383.103.573.308.573.221 0 .56-.19 1.016-.573 1.221-.956 2.722-2.206 4.501-3.751.354-.368.53-.662.53-.883 0-.397-.596-.677-1.786-.838-.516-.06-.76-.346-.73-.862.044-.514.302-.735.772-.661 1.06.147 2.606.228 4.634.243 1.413.014 2.819.022 4.216.022.456.015.684.286.684.817 0 .499-.36.772-1.08.816a8.148 8.148 0 0 0-3.2.772c-1.398.632-2.892 1.743-4.481 3.332a.404.404 0 0 0-.177.331c0 .206.25.699.751 1.479 1.84 2.795 3.576 4.905 5.208 6.333 1.045.897 2.022 1.346 2.934 1.346.678 0 1.097.048 1.258.144.163.095.244.35.244.76Z"/></svg>