<svg xmlns="http://www.w3.org/2000/svg" fill="none" aria-hidden="true" viewBox="0 0 173 68"><path fill="#0F3365" fill-rule="evenodd" d="M12.863 5.011c-4.067.007-7.357 3.005-7.365 6.711V56.28c.001.463.053.915.152 1.352.69 3.056 3.655 5.353 7.213 5.36H89.49V5.01H12.863Zm0-5.011h146.652c7.105.001 12.861 5.245 12.863 11.722v44.557c-.002 6.474-5.758 11.719-12.863 11.721H12.863C5.758 67.998.003 62.753 0 56.279V11.722C.002 5.245 5.758.002 12.863 0Z" clip-rule="evenodd"/><path fill="#FFFFFE" fill-rule="evenodd" d="M102.031 48.99h-6.433V25.175h5.934v3.063h.071c1.287-2.378 4.004-3.453 6.936-3.453 5.148 0 7.969 4.463 7.969 8.567 0 5.017-2.966 9.187-8.507 9.187-2.251 0-4.682-.748-5.898-2.768h-.072v9.219Zm3.935-10.947c2.429 0 3.895-1.856 3.895-4.56 0-2.25-1.394-4.203-3.895-4.203-2.361 0-3.935 1.89-3.935 4.43 0 2.477 1.789 4.333 3.935 4.333ZM141.16 48.99a20.52 20.52 0 0 0 4.004.392c5.565 0 7.12-3.683 8.808-7.68V41.7l.306-.722 6.829-15.802h-6.434l-3.826 11.076h-.071l-4.004-11.076h-6.932l7.539 17.364c-.462 1.498-1.678 2.346-3.249 2.346-.896 0-1.683-.096-2.539-.36l-.431 4.464Zm-2.397-6.29c-.286-1.334-.359-2.67-.359-4.006v-6.32c0-5.18-4.11-7.036-8.864-7.036-2.753 0-5.148.357-7.435 1.206l.106 3.974c1.789-.912 3.861-1.27 5.933-1.27 2.325 0 4.22.618 4.256 2.932a20.449 20.449 0 0 0-3.002-.23c-3.432 0-9.616.62-9.616 5.8 0 3.683 3.289 5.344 6.971 5.344 2.645 0 4.432-.947 5.897-3.063h.07c0 .516.037 1.033.076 1.556.026.368.053.738.068 1.114h5.899Zm-12.977-5.373c0-1.629 1.716-2.248 3.897-2.248.683 0 1.349.033 1.971.063.256.013.506.025.746.035 0 1.986-1.536 4.009-3.969 4.009-1.501 0-2.645-.688-2.645-1.859Z" clip-rule="evenodd"/><path fill="#D8232A" fill-rule="evenodd" d="M39.68 42.147h6.434V25.175h-6.433v16.972Zm0-19.741h6.434v-4.3h-6.433v4.3Zm46.258 11.273c0 5.603-4.684 8.86-10.83 8.86-6.148 0-10.83-3.257-10.83-8.86 0-5.637 4.682-8.894 10.83-8.894 6.146 0 10.83 3.257 10.83 8.894Zm-15.013 0c0 2.508 1.216 4.755 4.183 4.755 2.966 0 4.182-2.246 4.182-4.755 0-2.542-1.216-4.79-4.182-4.79-2.967 0-4.183 2.248-4.183 4.79Zm-9.075-8.894c.75 0 1.536.098 2.18.194l-.323 4.887c-.714-.195-1.43-.195-2.18-.195-3.002 0-4.682 1.987-4.682 5.311v7.165H50.41V25.176h5.862v3.126h.071c1.109-2.149 2.718-3.517 5.506-3.517Zm-32.437.39h5.828v14.987c0 6.97-3.717 9.22-11.224 9.22-3.073 0-5.611-.588-7.113-1.075l.322-4.627c1.966.88 3.61 1.4 6.291 1.4 3.718 0 5.719-1.595 5.719-4.918v-.914h-.073c-1.535 1.99-3.68 2.9-6.253 2.9-5.112 0-8.294-3.516-8.294-8.535 0-5.05 2.61-8.828 8.4-8.828 2.752 0 4.969 1.368 6.328 3.452h.07v-3.061Zm-4.502 4.105c-2.395 0-3.646 1.922-3.646 4.234 0 2.638 1.716 4.138 3.646 4.138 2.287 0 4.11-1.758 4.11-4.366 0-1.89-1.215-4.006-4.11-4.006Z" clip-rule="evenodd"/></svg>