<svg xmlns="http://www.w3.org/2000/svg" fill="none" aria-hidden="true" viewBox="0 0 197 69"><path fill="#24292E" d="M82.576 51.133h-.084c.038 0 .063.041.1.046h.026l-.042-.042v-.004Zm.017.046c-.39.004-1.37.21-2.406.21-3.268 0-4.4-1.51-4.4-3.479V34.79h6.663c.377 0 .67-.336.67-.797V26.87c0-.377-.335-.712-.67-.712h-6.663v-8.842c0-.335-.21-.545-.587-.545h-9.05c-.377 0-.587.21-.587.545v9.093s-4.567 1.132-4.86 1.174a.718.718 0 0 0-.545.712v5.7c0 .46.335.795.712.795h4.651v13.745c0 10.225 7.124 11.273 11.985 11.273 2.221 0 4.903-.712 5.322-.922.252-.084.377-.377.377-.67V51.93a.741.741 0 0 0-.611-.755v.005Zm99.299-9.224c0-7.585-3.059-8.59-6.286-8.255-2.514.167-4.526 1.425-4.526 1.425v14.75s2.054 1.425 5.113 1.509c4.316.126 5.699-1.425 5.699-9.429Zm10.183-.67c0 14.373-4.651 18.48-12.781 18.48-6.873 0-10.56-3.478-10.56-3.478s-.168 1.928-.377 2.18c-.126.25-.336.334-.587.334h-6.202c-.419 0-.796-.335-.796-.712l.083-46.557c0-.377.336-.713.713-.713h8.926c.377 0 .712.336.712.713V27.33s3.436-2.22 8.465-2.22l-.042-.084c5.029 0 12.446 1.885 12.446 16.259Zm-36.542-15.128h-8.8c-.461 0-.712.335-.712.796V49.75s-2.305 1.634-5.448 1.634c-3.143 0-4.065-1.425-4.065-4.568V26.911a.734.734 0 0 0-.712-.712h-8.968a.734.734 0 0 0-.712.712v21.414c0 9.22 5.154 11.524 12.236 11.524 5.825 0 10.56-3.227 10.56-3.227s.21 1.635.336 1.886c.083.21.377.377.67.377h5.615c.461 0 .713-.335.713-.712l.084-31.304c0-.377-.336-.712-.797-.712Zm-99.316-.042h-8.925c-.378 0-.713.377-.713.838v30.759c0 .838.545 1.131 1.257 1.131h8.046c.838 0 1.048-.377 1.048-1.131V26.827a.734.734 0 0 0-.713-.712Zm-4.4-14.164a5.741 5.741 0 0 0-5.783 5.783 5.741 5.741 0 0 0 5.783 5.783c3.143 0 5.7-2.556 5.7-5.783 0-3.227-2.557-5.783-5.7-5.783Zm69.102-1.048h-8.842a.734.734 0 0 0-.712.713v17.14h-13.87v-17.14a.734.734 0 0 0-.713-.713h-8.926a.734.734 0 0 0-.712.713v46.557c0 .377.377.712.712.712h8.926a.734.734 0 0 0 .712-.712V38.268h13.871l-.084 19.905c0 .377.335.712.713.712h8.925a.734.734 0 0 0 .713-.712V11.616a.734.734 0 0 0-.713-.713ZM41.844 31.521v24.054c0 .167-.042.46-.252.544 0 0-5.238 3.73-13.87 3.73-10.435 0-22.797-3.269-22.797-24.808 0-21.54 10.812-25.982 21.372-25.94 9.135 0 12.823 2.054 13.41 2.43.167.21.251.378.251.588l-1.76 7.459c0 .377-.377.838-.838.712-1.509-.46-3.772-1.383-9.094-1.383-6.16 0-12.78 1.76-12.78 15.631 0 13.87 6.285 15.505 10.81 15.505 3.856 0 5.239-.46 5.239-.46v-9.64h-6.16c-.461 0-.796-.334-.796-.712v-7.71c0-.377.335-.713.796-.713h15.673c.46 0 .796.336.796.713Z"/></svg>