<svg xmlns="http://www.w3.org/2000/svg" fill="none" aria-hidden="true" viewBox="0 0 197 69"><path fill="url(#a)" fill-rule="evenodd" d="M26.873 10.982C20.045 9.61 3.99 16.6 4.968 24.444c2.429.723 4.544 1.606 4.198 2.51H75.98c.402-2.675-1.697-4.726-.277-6.96a9.182 9.182 0 0 0 1.027-2.31v-4.342a.524.524 0 0 0-.115-.08c-16.591 5.37-8.534 4.234-26.24.003-3.073-3.856-13.272-6.65-18.026-6.96-1.825 0-5.476 4.677-5.476 4.677Z" clip-rule="evenodd"/><path fill="url(#b)" fill-rule="evenodd" d="M48.892 24.672v2.054H9.202c.037.607-.966 1.23-3.664 1.825 2.396 2.967 9.468 5.818 11.98 6.161-.45.094-.949.26-1.48.487 8.03 1.011 17.524 1.354 22.245 1.453h15.576c-.167-.038-.34-.075-.517-.114-3.465-.653-2.08-.182-3.765-1.141 22.306-5.37 9.382-4.576 27.038-.685.571-1.027-2.167-3.537-.912-6.73.477-1.215.36-2.296.121-3.31H48.892Z" clip-rule="evenodd"/><path fill="url(#c)" fill-rule="evenodd" d="M33.376 32.773v2.054a466.29 466.29 0 0 0-16.265-.014C13.09 35.952 5.985 42.02 4.968 45.59v1.453c.032.076.07.149.114.218 2.122.631 4.004 1.384 4.216 2.168h29.896v-2.054H75.85c-.383-1.7-1.16-3.199-.147-4.791 1.042-2.243 1.53-3.782 1.597-4.797v-.45c-.292-3.772-8.473 2.232-13.006 2.28-5.134-.913-4.107-1.597-10.952-3.08-3.465-.653-2.08-.181-3.765-1.141a269.22 269.22 0 0 0 9.355-2.415v-.21H33.376Z" clip-rule="evenodd"/><path fill="#974DFF" fill-rule="evenodd" d="M30.638 16.572h.114c2.735 4.844.992 8.562-.456 13.349-.409.969 1.065 1.718 1.483.684 1.162-4.447 3.004-9.336.798-13.804h.229c10.556.08 21.24 1.997 30.804 6.617.635.143 2.68 1.716 3.08.456-4.607-5.449-22.534-8.552-30.12-8.33-.33.063-1.119-.037-2.021-.136-.707-.08-1.486-.157-2.169-.157-1.27 0-2.208.272-1.742 1.321Z" clip-rule="evenodd"/><path fill="#F1A5FF" fill-rule="evenodd" d="M30.638 16.572h.114c1.648 3.12 2.072 6.932.456 10.154h1.597c.831-3.237 1.11-6.705-.342-9.812 10.682.032 21.52 1.781 31.147 6.617.633.112 2.798 1.83 3.08.457-4.842-5.552-22.318-8.665-30.12-8.444-.376.072-1.159-.033-2.037-.14-.678-.08-1.414-.162-2.063-.162-1.193 0-2.1.274-1.832 1.33Z" clip-rule="evenodd"/><path fill="#974DFF" fill-rule="evenodd" d="M26.53 17.143h.115c2.215 3.015 2.117 6.66.684 9.925-.48.794.713 1.589 1.141.685.801-1.69 1.353-3.6 1.37-5.476.015-2.112-.949-4.29-2.055-6.047-.144-.261-.354-.369-.57-.369-.552 0-1.13.706-.684 1.282Z" clip-rule="evenodd"/><path fill="#F1A5FF" fill-rule="evenodd" d="M28.926 26.726c.662-2.76 1.153-5.696-.342-8.328-.209-.433-.825-1.681-.799-2.168-.475-.88-1.742-.005-1.255.799h.114c2.029 2.896 2.282 6.506.8 9.697h1.482Z" clip-rule="evenodd"/><path fill="#F1A5FF" fill-rule="evenodd" d="M26.53 17.029h.114c2.028 2.896 2.282 6.507.8 9.697h1.482c.662-2.76 1.153-5.696-.342-8.328-.209-.433-.826-1.68-.799-2.168-.141-.261-.351-.367-.564-.367-.508 0-1.033.6-.69 1.166Z" clip-rule="evenodd"/><path fill="url(#d)" fill-rule="evenodd" d="M39.08 47.376v2.054H9.3c.173.642-.778 1.306-3.647 1.94 5.526 5.368 12.403 7.064 18.482 5.704.95 4.284 8.953 6.736 14.262 5.02a6.726 6.726 0 0 0-.57-3.195c7.419 1.263 25.525-4.43 26.468-4.906.855-.158 3.484.78 6.097 1.72 2.97 1.069 5.92 2.135 6.224 1.589.572-1.027-2.167-3.537-.912-6.731.459-1.169.369-2.215.147-3.195H39.08Z" clip-rule="evenodd"/><path fill="#373FFF" fill-rule="evenodd" d="M30.638 39.39h.114c2.76 4.872.94 8.637-.456 13.463-.409.97 1.065 1.718 1.483.684 1.248-4.395 2.956-9.27.798-13.692l.229-.113c10.553.086 21.249 1.826 30.804 6.504.635.143 2.68 1.714 3.08.456-4.607-5.448-22.534-8.552-30.12-8.329-.33.063-1.118-.037-2.019-.137-.708-.078-1.488-.157-2.171-.157-1.27 0-2.208.273-1.742 1.321Z" clip-rule="evenodd"/><path fill="#F1A5FF" fill-rule="evenodd" d="M30.637 39.39h.115c1.633 3.086 2.07 6.852.456 10.04h1.597c.837-3.236 1.11-6.705-.342-9.812 10.67.037 21.477 1.95 31.146 6.617.634.144 2.683 1.716 3.08.457-4.605-5.448-22.533-8.553-30.119-8.329-.33.063-1.117-.037-2.02-.137-.708-.078-1.487-.157-2.17-.157-1.27 0-2.208.273-1.743 1.321Z" clip-rule="evenodd"/><path fill="#373FFF" fill-rule="evenodd" d="M26.53 39.96h.115c2.215 3.016 2.117 6.661.684 9.926-.48.794.713 1.588 1.141.685.801-1.69 1.353-3.599 1.37-5.477.044-2.17-1.04-4.297-2.054-6.16-.564-.992-2.03.242-1.255 1.027Z" clip-rule="evenodd"/><path fill="#F1A5FF" fill-rule="evenodd" d="M28.927 49.43c.294-1.868.998-3.765.57-5.705-.057-1.128-2.885-7.82-3.194-3.879h.342c2.048 2.897 2.284 6.501.799 9.698l1.483-.114Z" clip-rule="evenodd"/><path fill="#F1A5FF" fill-rule="evenodd" d="M26.303 39.845h.342c2.048 2.898 2.284 6.502.799 9.7l1.483-.115c.294-1.866.998-3.765.57-5.704-.044-.878-1.76-5.11-2.67-5.11-.26 0-.455.35-.524 1.23Z" clip-rule="evenodd"/><path fill="#000" fill-rule="evenodd" d="M17.29 17.94a3.08 3.08 0 1 1-.001 6.162 3.08 3.08 0 0 1 0-6.161Z" clip-rule="evenodd"/><path fill="#fff" fill-rule="evenodd" d="M14.095 20.794a3.308 3.308 0 1 1 3.309 3.423 3.08 3.08 0 0 1-3.308-2.836l-.001-.017a2.396 2.396 0 0 0 2.624 2.054 2.624 2.624 0 1 0-2.624-2.624Z" clip-rule="evenodd"/><path fill="#fff" fill-rule="evenodd" d="M15.464 20.794a.913.913 0 1 1 0 1.826.913.913 0 0 1 0-1.826Z" clip-rule="evenodd"/><path fill="#000" fill-rule="evenodd" d="M17.29 40.76a3.08 3.08 0 1 1 0 6.16 3.08 3.08 0 0 1 0-6.16Z" clip-rule="evenodd"/><path fill="#fff" fill-rule="evenodd" d="M14.095 43.497a3.307 3.307 0 1 1 6.613.228 3.307 3.307 0 0 1-3.304 3.194 3.08 3.08 0 0 1-3.308-2.835v-.017a2.395 2.395 0 0 0 2.602 2.17l.021-.002a2.624 2.624 0 1 0-2.624-2.738Z" clip-rule="evenodd"/><path fill="#fff" fill-rule="evenodd" d="M15.464 43.612a.912.912 0 1 1 0 1.825.912.912 0 0 1 0-1.825Z" clip-rule="evenodd"/><path fill="#000" fill-rule="evenodd" d="M100.233 19.31c5.134 0 9.24 2.054 10.951 8.671l-5.475 1.483c-1.141-3.764-2.852-5.248-5.476-5.248s-6.275 1.255-6.275 8.9c0 7.645 3.65 9.469 6.503 9.469a5.474 5.474 0 0 0 5.589-4.906h-4.79v-4.45h10.382v13.577h-4.792v-3.764h-.114a7.415 7.415 0 0 1-7.074 4.335c-8.1 0-11.75-6.046-11.75-14.148 0-8.442 4.677-13.918 12.321-13.918Zm61.95 7.645c4.335 0 7.302 2.852 8.443 5.933l-4.906 1.597c-.799-2.51-1.939-3.309-3.651-3.309-1.711 0-3.879 2.054-3.879 5.933 0 3.878 1.141 5.933 3.764 5.933 2.625 0 2.968-.799 3.88-3.423l4.906 1.711a8.783 8.783 0 0 1-8.786 5.932c-4.564 0-9.582-2.623-9.582-10.153 0-7.758 5.476-10.154 9.811-10.154Zm-16.885-6.276v6.733h5.02v4.22h-5.02v8.442c0 2.054.571 2.74 2.738 2.74l1.939-.228v4.22l-3.878.343c-5.82-.114-6.617-2.169-6.617-5.819v-9.697h-3.309v-4.221h3.194v-6.733h5.933Zm-22.818-.912v27.04h-5.819v-27.04h5.819Zm10.61 7.644v19.395h-5.818V27.411h5.818Zm46.548-7.644v10.61a8.335 8.335 0 0 1 6.733-3.422c3.308 0 5.704 1.597 5.704 5.704v14.147h-5.934V34.485c0-1.712-.683-2.624-2.282-2.624a6.62 6.62 0 0 0-4.221 1.94v13.005h-5.931V19.767h5.931Zm-46.434.228v4.678h-5.932v-4.678h5.932Z" clip-rule="evenodd"/><defs><linearGradient id="a" x1="39.879" x2="39.879" y1="6.304" y2="26.829" gradientUnits="userSpaceOnUse"><stop stop-color="#E459FF"/><stop offset="1" stop-color="#914DFF"/></linearGradient><linearGradient id="b" x1="22.349" x2="43.371" y1="30.26" y2="44.298" gradientUnits="userSpaceOnUse"><stop stop-color="#F0A5FF"/><stop offset="1" stop-color="#FF676B"/></linearGradient><linearGradient id="c" x1="41.134" x2="41.134" y1="32.408" y2="49.943" gradientUnits="userSpaceOnUse"><stop stop-color="#6E3BFF"/><stop offset="1" stop-color="#3633FF"/></linearGradient><linearGradient id="d" x1="34.474" x2="39.886" y1="54.656" y2="61.137" gradientUnits="userSpaceOnUse"><stop stop-color="#F0A5FF"/><stop offset="1" stop-color="#FF676B"/></linearGradient></defs></svg>