<svg xmlns="http://www.w3.org/2000/svg" fill="none" aria-hidden="true" viewBox="0 0 269 51"><g fill="#80868B"><path d="M69.242 24.098c0 7.794 6.548 14.137 14.361 14.137 4.184 0 7.353-1.379 9.828-3.935 2.556-2.552 3.351-6.161 3.351-9.033a12.34 12.34 0 0 0-.206-2.394H83.574v3.791h9.24c-.273 2.169-1 3.773-2.102 4.874-1.345 1.34-3.447 2.824-7.138 2.824a10.14 10.14 0 0 1-10.11-10.278 10.138 10.138 0 0 1 10.134-10.273 9.851 9.851 0 0 1 6.966 2.757l2.724-2.724a13.458 13.458 0 0 0-9.685-3.896c-7.813 0-14.361 6.357-14.361 14.15Z"/><path fill-rule="evenodd" d="M115.899 32.812a9.085 9.085 0 0 0 .491-3.677 9.086 9.086 0 0 0-2.411-6.854 9.094 9.094 0 0 0-15.24 3.176 9.097 9.097 0 0 0-.492 3.677 9.096 9.096 0 0 0 17.652 3.678Zm-8.585-9.192c2.743 0 5.103 2.24 5.103 5.514 0 3.237-2.365 5.515-5.103 5.515-2.738 0-5.098-2.24-5.098-5.515 0-3.274 2.355-5.514 5.098-5.514Zm28.704 5.514a9.103 9.103 0 0 1-2.412 6.854 9.093 9.093 0 0 1-15.24-3.176 9.103 9.103 0 0 1-.492-3.677 9.104 9.104 0 0 1 2.411-6.854 9.104 9.104 0 0 1 6.661-2.901 9.093 9.093 0 0 1 8.58 6.077 9.104 9.104 0 0 1 .492 3.677Zm-3.974 0c0-3.274-2.36-5.514-5.103-5.514s-5.098 2.24-5.098 5.514c0 3.275 2.36 5.515 5.098 5.515s5.103-2.278 5.103-5.515Zm22.667 7.622V20.585h-3.791v1.484h-.139a6.3 6.3 0 0 0-4.787-2.035c-4.548 0-8.512 4.031-8.512 9.134 0 5.103 3.964 9.067 8.512 9.067a6.227 6.227 0 0 0 4.787-2.068h.139v1.168c0 3.48-1.862 5.342-4.859 5.342-2.451 0-3.964-1.757-4.586-3.24l-3.48 1.436a8.666 8.666 0 0 0 8.066 5.361c4.687 0 8.65-2.776 8.65-9.478Zm-8.334-13.136c2.7 0 4.816 2.34 4.816 5.548 0 3.17-2.083 5.481-4.816 5.481-2.734 0-4.907-2.278-4.907-5.481s2.207-5.548 4.907-5.548Z" clip-rule="evenodd"/><path d="M161.303 10.934v26.75h-3.978v-26.75h3.978Z"/><path fill-rule="evenodd" d="m179.609 34.2-3.102-2.069c-1.034 1.518-2.427 2.518-4.481 2.518a4.623 4.623 0 0 1-4.413-2.757l12.164-5.027-.412-1.034c-.756-2.034-3.102-5.792-7.789-5.792-4.686 0-8.583 3.681-8.583 9.095a8.917 8.917 0 0 0 2.586 6.466 8.906 8.906 0 0 0 6.447 2.63 9.053 9.053 0 0 0 7.583-4.03Zm-4.514-8.723-8.138 3.38a4.988 4.988 0 0 1 4.758-5.295c1.585 0 2.93.776 3.38 1.915Z" clip-rule="evenodd"/><path d="M204.756 37.684h-14.05V12.662h3.217v21.949h10.833v3.073Z"/><path fill-rule="evenodd" d="M211.859 37.622a8.18 8.18 0 0 0 3.39.622 8.736 8.736 0 0 0 4.601-1.225 8.467 8.467 0 0 0 3.212-3.39l-2.872-1.397c-1.168 2.049-2.772 3.078-4.826 3.078a5.355 5.355 0 0 1-3.829-1.541 5.567 5.567 0 0 1-1.676-4.05h13.452l.038-.35c-.038-2.933-.796-5.227-2.274-6.884-1.477-1.656-3.493-2.484-6.046-2.484a7.841 7.841 0 0 0-6.055 2.623 9.224 9.224 0 0 0-2.394 6.496 9.143 9.143 0 0 0 2.446 6.54 8.179 8.179 0 0 0 2.833 1.962Zm8.063-10.56h-9.819a5.381 5.381 0 0 1 1.714-3.007 4.724 4.724 0 0 1 3.145-1.12 4.96 4.96 0 0 1 3.495 1.192 4.163 4.163 0 0 1 1.465 2.935Z" clip-rule="evenodd"/><path d="M226.289 20.56h3.073v2.394h.139a5.772 5.772 0 0 1 2.24-2.096A6.588 6.588 0 0 1 234.92 20c2.097 0 3.703.606 4.821 1.819 1.117 1.212 1.688 2.914 1.713 5.103v10.761h-3.226v-10.53c-.067-2.796-1.476-4.194-4.227-4.194a3.995 3.995 0 0 0-3.212 1.575 5.544 5.544 0 0 0-1.298 3.705v9.445h-3.212l.01-17.123Zm31.351 14.492c.341-.657.52-1.386.521-2.126.004-2.582-1.691-4.29-5.084-5.127l-2.585-.665c-1.838-.415-2.757-1.114-2.757-2.097a1.824 1.824 0 0 1 .957-1.537 4.239 4.239 0 0 1 2.27-.627 4.789 4.789 0 0 1 2.441.598 3.506 3.506 0 0 1 1.608 1.68l2.873-1.191a5.838 5.838 0 0 0-2.585-2.873 7.83 7.83 0 0 0-4.089-1.086 7.942 7.942 0 0 0-4.892 1.436 4.422 4.422 0 0 0-1.867 3.739c0 2.377 1.66 3.982 4.979 4.815l2.934.733c1.679.498 2.518 1.296 2.518 2.393a1.865 1.865 0 0 1-1.048 1.57 4.54 4.54 0 0 1-2.552.666 4.61 4.61 0 0 1-2.657-.838 5.499 5.499 0 0 1-1.814-2.393l-2.872 1.225a7.525 7.525 0 0 0 2.795 3.562 7.906 7.906 0 0 0 4.543 1.33 7.721 7.721 0 0 0 4.926-1.536 4.635 4.635 0 0 0 1.437-1.651Z"/></g><path fill="#FBBC05" d="M39.882 9.79a5.6 5.6 0 0 1 5.582 5.582v4.47h5.587v-4.47a11.165 11.165 0 0 0-11.169-11.17h-4.47V9.79h4.47Z"/><path fill="#EA4335" d="M16.425 15.371a5.601 5.601 0 0 1 5.582-5.581h4.471V4.203h-4.471a11.164 11.164 0 0 0-11.168 11.168v4.472h5.586V15.37Z"/><path fill="#4285F4" d="M22.007 38.828a5.6 5.6 0 0 1-5.582-5.581v-4.471H10.84v4.47a11.163 11.163 0 0 0 11.168 11.17h4.471v-5.587h-4.471Z"/><path fill="#34A853" d="M44.349 42.18a4.466 4.466 0 1 0 0-8.933 4.466 4.466 0 0 0 0 8.932Z"/><path fill="#4285F4" d="M30.945 32.127a7.817 7.817 0 1 0 0-15.635 7.817 7.817 0 0 0 0 15.634Z"/></svg>