<svg xmlns="http://www.w3.org/2000/svg" fill="none" aria-hidden="true" viewBox="0 0 269 51"><path fill="#80868B" d="M69.242 24.099c0 7.793 6.548 14.136 14.361 14.136 4.184 0 7.353-1.379 9.828-3.935 2.556-2.552 3.351-6.161 3.351-9.033a12.34 12.34 0 0 0-.206-2.394H83.574v3.791h9.24c-.273 2.169-1 3.773-2.102 4.874-1.345 1.34-3.447 2.824-7.138 2.824a10.138 10.138 0 0 1-10.11-10.278 10.138 10.138 0 0 1 10.134-10.273 9.852 9.852 0 0 1 6.966 2.757l2.724-2.724a13.457 13.457 0 0 0-9.685-3.896c-7.813 0-14.361 6.357-14.361 14.15Z"/><path fill="#80868B" fill-rule="evenodd" d="M115.899 32.813a9.086 9.086 0 0 0 .491-3.678 9.086 9.086 0 0 0-2.411-6.854 9.092 9.092 0 0 0-10.293-2.144 9.092 9.092 0 0 0-5.439 8.998 9.097 9.097 0 0 0 17.652 3.677Zm-8.585-9.193c2.743 0 5.103 2.24 5.103 5.515 0 3.236-2.365 5.514-5.103 5.514-2.738 0-5.098-2.24-5.098-5.514 0-3.275 2.355-5.515 5.098-5.515Zm28.704 5.515a9.104 9.104 0 0 1-2.412 6.853 9.092 9.092 0 0 1-10.293 2.145 9.102 9.102 0 0 1-4.947-5.32 9.104 9.104 0 0 1-.492-3.678 9.104 9.104 0 0 1 2.411-6.854 9.102 9.102 0 0 1 6.661-2.901 9.093 9.093 0 0 1 8.58 6.077 9.104 9.104 0 0 1 .492 3.678Zm-3.974 0c0-3.275-2.36-5.515-5.103-5.515s-5.098 2.24-5.098 5.515c0 3.274 2.36 5.514 5.098 5.514s5.103-2.278 5.103-5.514Zm22.667 7.621V20.585h-3.791v1.484h-.139a6.298 6.298 0 0 0-4.787-2.035c-4.548 0-8.512 4.031-8.512 9.134 0 5.103 3.964 9.067 8.512 9.067a6.225 6.225 0 0 0 4.787-2.068h.139v1.168c0 3.48-1.862 5.342-4.859 5.342-2.451 0-3.964-1.757-4.586-3.24l-3.48 1.436a8.667 8.667 0 0 0 8.066 5.361c4.687 0 8.65-2.776 8.65-9.478Zm-8.334-13.136c2.7 0 4.816 2.34 4.816 5.548 0 3.17-2.083 5.481-4.816 5.481-2.734 0-4.907-2.278-4.907-5.48 0-3.204 2.207-5.55 4.907-5.55Z" clip-rule="evenodd"/><path fill="#80868B" d="M161.303 10.934v26.75h-3.978v-26.75h3.978Z"/><path fill="#80868B" fill-rule="evenodd" d="m179.609 34.2-3.102-2.069c-1.034 1.518-2.427 2.518-4.481 2.518a4.623 4.623 0 0 1-4.413-2.757l12.164-5.026-.412-1.035c-.756-2.034-3.102-5.792-7.789-5.792-4.686 0-8.583 3.681-8.583 9.096a8.917 8.917 0 0 0 2.586 6.465 8.905 8.905 0 0 0 6.447 2.63 9.051 9.051 0 0 0 7.583-4.03Zm-4.514-8.723-8.138 3.38a4.99 4.99 0 0 1 4.758-5.295c1.585 0 2.93.776 3.38 1.915Z" clip-rule="evenodd"/><path fill="#80868B" d="M204.756 37.684h-14.05V12.663h3.217v21.95h10.833v3.072Z"/><path fill="#80868B" fill-rule="evenodd" d="M211.859 37.623a8.181 8.181 0 0 0 3.39.622c1.618.025 3.21-.4 4.601-1.226a8.468 8.468 0 0 0 3.212-3.39l-2.872-1.397c-1.168 2.049-2.772 3.078-4.826 3.078a5.357 5.357 0 0 1-3.829-1.541 5.566 5.566 0 0 1-1.676-4.05h13.452l.038-.35c-.038-2.933-.796-5.227-2.274-6.884-1.477-1.656-3.493-2.484-6.046-2.484a7.841 7.841 0 0 0-6.055 2.623 9.224 9.224 0 0 0-2.394 6.496 9.143 9.143 0 0 0 2.446 6.54 8.179 8.179 0 0 0 2.833 1.963Zm8.063-10.561h-9.819a5.382 5.382 0 0 1 1.714-3.007 4.724 4.724 0 0 1 3.145-1.12 4.96 4.96 0 0 1 3.495 1.192 4.165 4.165 0 0 1 1.465 2.935Z" clip-rule="evenodd"/><path fill="#80868B" d="M226.289 20.56h3.073v2.394h.139a5.772 5.772 0 0 1 2.24-2.096A6.59 6.59 0 0 1 234.92 20c2.097 0 3.703.606 4.82 1.819 1.117 1.213 1.689 2.914 1.714 5.103v10.761h-3.226v-10.53c-.067-2.796-1.476-4.194-4.227-4.194a3.995 3.995 0 0 0-3.212 1.575 5.544 5.544 0 0 0-1.298 3.705v9.445h-3.212l.01-17.123Zm31.351 14.492c.341-.657.52-1.386.521-2.126.004-2.582-1.691-4.29-5.084-5.127l-2.585-.665c-1.838-.415-2.757-1.114-2.757-2.097a1.824 1.824 0 0 1 .957-1.537 4.239 4.239 0 0 1 2.27-.627 4.787 4.787 0 0 1 2.441.598 3.506 3.506 0 0 1 1.608 1.68l2.873-1.191a5.838 5.838 0 0 0-2.585-2.873 7.83 7.83 0 0 0-4.089-1.086 7.942 7.942 0 0 0-4.892 1.436 4.421 4.421 0 0 0-1.867 3.739c0 2.377 1.66 3.983 4.979 4.816l2.934.732c1.679.498 2.518 1.296 2.518 2.393a1.865 1.865 0 0 1-1.048 1.57 4.54 4.54 0 0 1-2.552.666 4.61 4.61 0 0 1-2.657-.838 5.499 5.499 0 0 1-1.814-2.393l-2.872 1.225a7.526 7.526 0 0 0 2.795 3.562 7.906 7.906 0 0 0 4.543 1.33 7.72 7.72 0 0 0 4.926-1.536 4.636 4.636 0 0 0 1.437-1.651Z"/><path fill="#FBBC05" d="M39.882 9.79a5.6 5.6 0 0 1 5.582 5.582v4.47h5.587v-4.47a11.165 11.165 0 0 0-11.169-11.17h-4.47V9.79h4.47Z"/><path fill="#EA4335" d="M16.425 15.371a5.601 5.601 0 0 1 5.582-5.581h4.471V4.203h-4.471a11.164 11.164 0 0 0-11.168 11.168v4.472h5.586V15.37Z"/><path fill="#4285F4" d="M22.007 38.828a5.6 5.6 0 0 1-5.582-5.581v-4.471H10.84v4.47a11.163 11.163 0 0 0 11.168 11.17h4.471v-5.587h-4.471Z"/><path fill="#34A853" d="M44.349 42.18a4.466 4.466 0 1 0 0-8.933 4.466 4.466 0 0 0 0 8.932Z"/><path fill="#4285F4" d="M30.945 32.127a7.817 7.817 0 1 0 0-15.635 7.817 7.817 0 0 0 0 15.634Z"/></svg>