<svg xmlns="http://www.w3.org/2000/svg" fill="none" aria-hidden="true" viewBox="0 0 285 48"><path fill="#FBBC04" d="M6.24 38.974 28.315 3.958h13.702V8.83l-19.03 30.144"/><path fill="#1A73E8" d="M42.017 38.974H28.315V3.958h13.702v35.016Z"/><path fill="#34A853" d="M51.913 29.079c0 5.465-4.43 9.895-9.896 9.895V19.183a9.895 9.895 0 0 1 9.896 9.896Z"/><path fill="#0D652D" d="M42.017 38.974c-5.466 0-9.896-4.43-9.896-9.895a9.895 9.895 0 0 1 9.896-9.896v19.791Z"/><path fill="#1A73E8" d="M49.63 11.57a7.612 7.612 0 0 1-7.613 7.613V3.958a7.612 7.612 0 0 1 7.612 7.612Z"/><path fill="#174EA6" d="M42.017 19.183a7.612 7.612 0 1 1 0-15.225v15.225Z"/><path fill="#EA4335" d="M7.001 10.81a6.852 6.852 0 1 1 13.703 0 6.852 6.852 0 0 1-13.703 0Z"/><path fill="#5F6368" d="M88.432 35.348c-7.846 0-14.444-6.36-14.444-14.172S80.587 7.003 88.432 7.003c4.342 0 7.43 1.695 9.758 3.907l-2.746 2.73c-1.666-1.555-3.922-2.765-7.012-2.765-5.73 0-10.208 4.598-10.208 10.3 0 5.705 4.479 10.303 10.208 10.303 3.714 0 5.834-1.488 7.189-2.835 1.11-1.107 1.84-2.696 2.116-4.875h-9.305v-3.871h13.091c.139.69.207 1.522.207 2.42 0 2.904-.799 6.498-3.369 9.057-2.5 2.592-5.692 3.974-9.93 3.974Zm33.548-9.125c0 5.253-4.059 9.125-9.037 9.125-4.977 0-9.034-3.872-9.034-9.125 0-5.29 4.057-9.126 9.034-9.126 4.978 0 9.037 3.836 9.037 9.125Zm-3.955 0c0-3.284-2.355-5.531-5.082-5.531s-5.081 2.247-5.081 5.53c0 3.25 2.354 5.531 5.081 5.531 2.727 0 5.082-2.282 5.082-5.53Zm24.208 0c0 5.253-4.059 9.125-9.037 9.125-4.976 0-9.034-3.872-9.034-9.125 0-5.29 4.058-9.126 9.034-9.126 4.978 0 9.037 3.836 9.037 9.125Zm-3.955 0c0-3.284-2.354-5.531-5.082-5.531-2.727 0-5.079 2.247-5.079 5.53 0 3.25 2.352 5.531 5.079 5.531 2.728 0 5.082-2.282 5.082-5.53Zm23.699-8.573v16.386c0 6.741-3.991 9.506-8.714 9.506-4.444 0-7.117-2.974-8.124-5.393l3.505-1.452c.626 1.486 2.153 3.249 4.619 3.249 3.021 0 4.896-1.865 4.896-5.358v-1.314h-.138c-.903 1.107-2.64 2.074-4.826 2.074-4.585 0-8.786-3.974-8.786-9.09 0-5.15 4.201-9.161 8.786-9.161 2.186 0 3.923.968 4.826 2.04h.138V17.65h3.818Zm-3.541 8.608c0-3.214-2.152-5.566-4.894-5.566-2.779 0-5.105 2.352-5.105 5.566 0 3.18 2.326 5.495 5.105 5.495 2.742 0 4.894-2.315 4.894-5.495Zm10.603 8.536h-4.029V7.972h4.029v26.822Zm15.831-5.564 3.126 2.073c-1.005 1.487-3.438 4.043-7.638 4.043-5.207 0-8.969-4.007-8.969-9.122 0-5.427 3.794-9.125 8.518-9.125 4.758 0 7.084 3.766 7.847 5.805l.415 1.036-12.255 5.047c.938 1.832 2.395 2.767 4.444 2.767 2.047 0 3.472-1.004 4.512-2.525Zm-9.617-3.285 8.195-3.386c-.452-1.14-1.805-1.936-3.404-1.936-2.047 0-4.893 1.796-4.791 5.322Zm26.798-1.898v10.75h-3.221V9.725h14.636v3.08h-11.415v8.229h10.296v3.013h-10.296Zm12.875 2.171c0-2.637.828-4.82 2.486-6.548 1.681-1.728 3.794-2.591 6.338-2.591 2.546 0 4.645.863 6.303 2.59 1.681 1.729 2.521 3.912 2.521 6.549 0 2.661-.84 4.844-2.521 6.548-1.658 1.728-3.757 2.591-6.303 2.591-2.544 0-4.657-.863-6.338-2.591-1.658-1.728-2.486-3.911-2.486-6.548Zm3.222 0c0 1.844.537 3.337 1.61 4.48 1.074 1.145 2.404 1.716 3.992 1.716s2.919-.57 3.992-1.716c1.073-1.143 1.611-2.636 1.611-4.48 0-1.82-.538-3.304-1.611-4.447-1.098-1.168-2.428-1.75-3.992-1.75-1.565 0-2.895.582-3.992 1.75-1.073 1.143-1.61 2.626-1.61 4.447Zm17.165-8.579h3.082v2.38h.14c.49-.84 1.243-1.54 2.259-2.1 1.015-.562 2.07-.84 3.17-.84 2.101 0 3.716.6 4.847 1.802 1.133 1.201 1.699 2.913 1.699 5.13v10.786h-3.221V24.22c-.07-2.802-1.482-4.203-4.237-4.203-1.285 0-2.359.521-3.222 1.56-.864 1.04-1.295 2.282-1.295 3.728v9.49h-3.222V17.64Zm25.11 17.438c-1.401 0-2.564-.432-3.485-1.297-.923-.863-1.395-2.065-1.419-3.605V20.58h-3.01v-2.94h3.01v-5.253h3.223v5.253h4.2v2.94h-4.2v8.544c0 1.144.221 1.922.665 2.33.443.41.946.61 1.504.61.258 0 .509-.027.754-.085.247-.058.474-.136.684-.23l1.015 2.871c-.84.303-1.822.457-2.941.457Zm18.337-5.042c0 1.493-.654 2.755-1.96 3.781-1.308 1.026-2.956 1.541-4.938 1.541-1.728 0-3.247-.45-4.553-1.349a7.423 7.423 0 0 1-2.802-3.553l2.87-1.226c.422 1.028 1.034 1.827 1.839 2.4a4.483 4.483 0 0 0 2.646.857c1.028 0 1.885-.221 2.573-.665.688-.444 1.032-.969 1.032-1.576 0-1.098-.838-1.902-2.519-2.416l-2.943-.736c-3.339-.84-5.007-2.45-5.007-4.832 0-1.563.634-2.82 1.907-3.763 1.273-.946 2.902-1.42 4.887-1.42 1.517 0 2.888.363 4.114 1.086 1.225.725 2.083 1.692 2.571 2.906l-2.87 1.191c-.327-.723-.857-1.29-1.592-1.699-.735-.406-1.56-.612-2.469-.612-.841 0-1.594.21-2.26.63-.665.42-.997.934-.997 1.541 0 .98.923 1.68 2.765 2.101l2.594.665c3.407.84 5.112 2.556 5.112 5.148Z"/></svg>