<svg xmlns="http://www.w3.org/2000/svg" fill="none" aria-hidden="true" viewBox="0 0 256 53"><path fill="#63666A" fill-rule="evenodd" d="m159.587 34.1 3.122 2.081c-1.005 1.492-3.434 4.06-7.632 4.06-5.202 0-8.96-4.028-8.96-9.159 0-5.451 3.794-9.162 8.509-9.162 4.756 0 7.078 3.782 7.841 5.831l.416 1.04-12.248 5.064c.937 1.84 2.393 2.777 4.442 2.777 2.046 0 3.47-1.008 4.51-2.532Zm-9.609-3.295 8.189-3.402c-.451-1.143-1.804-1.943-3.398-1.943-2.049 0-4.894 1.804-4.791 5.345Z" clip-rule="evenodd"/><path fill="#63666A" d="M139.74 39.687h4.023V12.76h-4.023v26.926Z"/><path fill="#63666A" fill-rule="evenodd" d="M136.709 22.477v16.446c0 6.765-3.987 9.542-8.707 9.542-4.443 0-7.113-2.983-8.118-5.412l3.505-1.46c.625 1.492 2.152 3.26 4.617 3.26 3.018 0 4.894-1.871 4.894-5.376v-1.318h-.139c-.902 1.112-2.639 2.081-4.822 2.081-4.581 0-8.779-3.991-8.779-9.126 0-5.171 4.198-9.194 8.779-9.194 2.187 0 3.92.969 4.822 2.045h.139v-1.491c-.004.003 3.809.003 3.809.003Zm-3.536 8.637c0-3.225-2.153-5.586-4.894-5.586-2.773 0-5.099 2.361-5.099 5.586 0 3.192 2.326 5.518 5.099 5.518 2.741 0 4.894-2.326 4.894-5.518Zm-36.432-.032c0 5.273-4.055 9.158-9.028 9.158-4.972 0-9.027-3.885-9.027-9.158 0-5.31 4.054-9.158 9.027-9.158 4.977 0 9.028 3.849 9.028 9.158Zm-3.948 0c0-3.3-2.35-5.55-5.076-5.55-2.725 0-5.075 2.255-5.075 5.55 0 3.26 2.35 5.55 5.075 5.55 2.722 0 5.076-2.29 5.076-5.55Zm24.187 0c0 5.273-4.055 9.158-9.027 9.158-4.973 0-9.028-3.885-9.028-9.158 0-5.31 4.055-9.158 9.028-9.158 4.972 0 9.027 3.849 9.027 9.158Zm-3.952 0c0-3.3-2.35-5.55-5.075-5.55-2.726 0-5.076 2.255-5.076 5.55 0 3.26 2.35 5.55 5.076 5.55 2.725 0 5.075-2.29 5.075-5.55Z" clip-rule="evenodd"/><path fill="#63666A" d="M63.221 40.24c-7.84 0-14.431-6.385-14.431-14.226 0-7.84 6.594-14.226 14.435-14.226 4.34 0 7.426 1.701 9.752 3.925l-2.742 2.741c-1.665-1.563-3.92-2.777-7.01-2.777-5.724 0-10.203 4.617-10.203 10.341 0 5.725 4.479 10.337 10.203 10.337 3.711 0 5.827-1.491 7.184-2.844 1.112-1.108 1.84-2.706 2.117-4.89h-9.3v-3.885h13.078c.142.693.21 1.527.21 2.43 0 2.915-.8 6.523-3.363 9.09-2.504 2.6-5.697 3.984-9.93 3.984Zm109.167-.807V15.531h3.071l8.312 14.555h.133l8.313-14.555h3.071v23.902h-3.071V25.245l.133-4.005h-.133l-7.478 13.119h-1.803l-7.477-13.12h-.134l.134 4.006v14.188h-3.071Z"/><path fill="#63666A" fill-rule="evenodd" d="M200.379 38.465c1.168 1.001 2.62 1.502 4.356 1.502 2.354 0 4.156-.935 5.375-2.804h.133v2.27h2.938v-9.881c0-2.22-.685-3.956-2.07-5.174-1.385-1.219-3.121-1.836-5.208-1.836-1.819 0-3.288.417-4.406 1.251-1.118.835-1.853 1.736-2.237 2.721l2.805 1.202c.267-.735.767-1.319 1.485-1.736a4.764 4.764 0 0 1 2.42-.634c1.202 0 2.22.367 3.038 1.085.818.717 1.235 1.685 1.235 2.887v.467c-1.152-.667-2.637-1-4.44-1-2.019 0-3.722.5-5.107 1.518-1.386 1.018-2.07 2.403-2.07 4.19 0 1.652.584 2.97 1.753 3.972Zm8.312-2.72c-1.035.95-2.187 1.418-3.455 1.418-.885 0-1.686-.234-2.37-.701-.685-.467-1.035-1.102-1.035-1.903 0-.868.384-1.619 1.135-2.27.751-.65 1.886-.968 3.371-.968 1.736 0 3.038.35 3.906 1.068 0 1.285-.517 2.404-1.552 3.355Zm16.457 4.222c-1.252 0-2.37-.267-3.355-.801-.984-.534-1.736-1.202-2.22-2.003h-.133l.133 2.27v7.21h-3.071V23.077h2.938v2.27h.133c.484-.802 1.236-1.47 2.22-2.003.985-.534 2.103-.801 3.355-.801 2.12 0 3.939.834 5.475 2.503 1.536 1.67 2.303 3.74 2.303 6.21 0 2.47-.767 4.54-2.303 6.208-1.536 1.67-3.355 2.504-5.475 2.504Zm-.5-2.804c1.418 0 2.653-.534 3.672-1.62 1.018-1.084 1.535-2.503 1.535-4.289 0-1.786-.517-3.204-1.535-4.29-1.019-1.084-2.254-1.618-3.672-1.618-1.453 0-2.671.534-3.689 1.602-1.018 1.068-1.519 2.504-1.519 4.306 0 1.803.501 3.238 1.519 4.307 1.018 1.068 2.253 1.602 3.689 1.602Z" clip-rule="evenodd"/><path fill="#63666A" d="M237.299 38.632c1.185.884 2.704 1.335 4.524 1.335 1.886 0 3.438-.5 4.64-1.469 1.202-.984 1.802-2.203 1.802-3.672 0-1.085-.367-2.07-1.101-2.937-.735-.868-1.87-1.486-3.405-1.836l-3.238-.768c-1.452-.334-2.17-.968-2.17-1.903 0-.651.317-1.152.935-1.536.617-.384 1.385-.567 2.303-.567 1.886 0 3.138.718 3.739 2.17l2.67-1.102a5.524 5.524 0 0 0-2.436-2.82c-1.135-.652-2.421-.985-3.873-.985-1.752 0-3.271.45-4.556 1.352-1.286.9-1.92 2.07-1.92 3.521 0 1.269.467 2.27 1.402 3.021.935.752 1.92 1.252 2.971 1.52l3.305.8c1.485.384 2.237 1.102 2.237 2.17 0 .685-.301 1.252-.918 1.67-.618.417-1.403.634-2.354.634-2.086 0-3.572-1.018-4.44-3.071l-2.737 1.135c.551 1.335 1.435 2.453 2.62 3.338Z"/><path fill="#34A853" d="M16.212 37.119a42.961 42.961 0 0 1 3.478 5.135c.886 1.681 1.25 2.817 1.91 4.842.388 1.116.752 1.456 1.524 1.456.842 0 1.226-.57 1.523-1.456.613-1.91 1.092-3.363 1.84-4.751 1.475-2.659 3.342-5.024 5.158-7.295.499-.637 3.683-4.388 5.115-7.362 0 0 1.749-3.252 1.749-7.798 0-4.249-1.729-7.204-1.729-7.204l-5 1.341-3.047 8-.751 1.091-.159.206-.205.25-.34.407-.499.498-2.706 2.204-6.749 3.908-1.112 6.528Z"/><path fill="#FBBC04" d="M9.234 27.142c1.658 3.774 4.818 7.07 6.978 9.977l11.433-13.546s-1.614 2.113-4.521 2.113c-3.252 0-5.887-2.591-5.887-5.863 0-2.251 1.341-3.794 1.341-3.794l-7.754 2.069-1.59 9.044Z"/><path fill="#4285F4" d="M27.78 5.118c3.794 1.226 7.046 3.794 9 7.592l-9.138 10.887s1.34-1.567 1.34-3.794c0-3.343-2.816-5.863-5.862-5.863-2.888 0-4.546 2.093-4.546 2.093V9.165l9.206-4.047Z"/><path fill="#1A73E8" d="M11.323 9.913c2.27-2.706 6.25-5.5 11.75-5.5 2.658 0 4.68.705 4.68.705l-9.179 10.91h-6.5l-.751-6.115Z"/><path fill="#EA4335" d="M9.234 27.142s-1.5-2.98-1.5-7.272c0-4.067 1.59-7.615 3.613-9.933l7.25 6.112-9.363 11.093Z"/></svg>