<svg xmlns="http://www.w3.org/2000/svg" fill="none" aria-hidden="true" viewBox="0 0 134 53"><g clip-path="url(#a)"><path fill="#5F6368" d="M63.123 25.892v15.536h-4.928V3.061h13.071a11.82 11.82 0 0 1 8.465 3.322 10.677 10.677 0 0 1 3.536 8.097 10.628 10.628 0 0 1-3.536 8.143c-2.286 2.18-5.107 3.268-8.465 3.266h-8.143v.003Zm0-18.107v13.393h8.266a6.515 6.515 0 0 0 4.877-1.984 6.539 6.539 0 0 0 0-9.376 6.43 6.43 0 0 0-4.877-2.036h-8.265v.003Zm31.501 6.535c3.643 0 6.519.974 8.627 2.921 2.108 1.947 3.161 4.617 3.159 8.009v16.178h-4.714v-3.643h-.215c-2.04 3-4.755 4.5-8.143 4.5-2.892 0-5.311-.857-7.258-2.571a8.21 8.21 0 0 1-2.92-6.429c0-2.716 1.026-4.876 3.08-6.48 2.052-1.604 4.793-2.409 8.222-2.413 2.926 0 5.337.536 7.231 1.608v-1.127a5.622 5.622 0 0 0-2.036-4.362 6.98 6.98 0 0 0-4.757-1.797c-2.754 0-4.932 1.16-6.536 3.483l-4.341-2.733c2.388-3.429 5.921-5.143 10.601-5.143Zm-6.377 19.072a3.936 3.936 0 0 0 1.635 3.215 6.012 6.012 0 0 0 3.83 1.286 7.859 7.859 0 0 0 5.544-2.303c1.632-1.536 2.449-3.34 2.449-5.409-1.537-1.224-3.68-1.837-6.429-1.837-2.002 0-3.671.483-5.008 1.448-1.35.98-2.02 2.17-2.02 3.6Zm45.225-18.214L117.015 53h-5.088l6.107-13.234-10.822-24.588h5.358l7.821 18.857h.107l7.608-18.857h5.366Z"/><path fill="#4285F4" d="M43.207 22.543a26.254 26.254 0 0 0-.38-4.481H22.041v8.488h11.905a10.202 10.202 0 0 1-4.402 6.699v5.51h7.106c4.16-3.836 6.557-9.508 6.557-16.216Z"/><path fill="#34A853" d="M22.041 44.082c5.948 0 10.957-1.953 14.609-5.32l-7.105-5.51c-1.978 1.34-4.525 2.106-7.504 2.106-5.749 0-10.628-3.876-12.373-9.098h-7.32v5.678a22.042 22.042 0 0 0 19.693 12.144Z"/><path fill="#FBBC04" d="M9.668 26.26a13.206 13.206 0 0 1 0-8.437v-5.679h-7.32a22.041 22.041 0 0 0 0 19.794l7.32-5.678Z"/><path fill="#EA4335" d="M22.041 8.725a11.967 11.967 0 0 1 8.456 3.306l6.29-6.291A21.178 21.178 0 0 0 22.042 0 22.041 22.041 0 0 0 2.348 12.144l7.32 5.679c1.745-5.223 6.624-9.098 12.373-9.098Z"/></g><defs><clipPath id="a"><path fill="#fff" d="M0 0h133.463v53H0z"/></clipPath></defs></svg>