<svg xmlns="http://www.w3.org/2000/svg" fill="none" aria-hidden="true" viewBox="0 0 256 53"><path fill="#5F6368" d="m235.9 22.076 5.21 12.583h.061l5.087-12.583h3.595l-10.967 25.257h-3.412l4.082-8.835-7.221-16.422h3.565Zm-11.821-.58c2.437 0 4.356.64 5.758 1.95 1.401 1.31 2.102 3.078 2.102 5.363v10.816H228.8v-2.438h-.151c-1.371 2.011-3.17 3.017-5.424 3.017-1.919 0-3.534-.58-4.844-1.706-1.311-1.158-1.951-2.59-1.951-4.296 0-1.798.671-3.26 2.073-4.327 1.371-1.066 3.199-1.614 5.483-1.614 1.95 0 3.565.365 4.845 1.066v-.762c0-1.158-.457-2.102-1.371-2.925-.913-.792-1.981-1.188-3.199-1.188-1.828 0-3.29.762-4.357 2.316l-2.894-1.828c1.584-2.285 3.961-3.443 7.069-3.443Zm-16.636-7.524c2.224 0 4.113.73 5.667 2.224 1.584 1.493 2.346 3.29 2.346 5.392 0 2.163-.793 3.992-2.346 5.424-1.524 1.462-3.412 2.193-5.667 2.193h-5.423v10.39h-3.291V13.971h8.714Zm17.062 16.878c-1.341 0-2.437.335-3.352.975-.884.67-1.34 1.463-1.34 2.407 0 .853.365 1.584 1.096 2.133.732.579 1.584.853 2.559.853 1.371 0 2.621-.518 3.717-1.524 1.097-1.035 1.615-2.224 1.615-3.625-1.035-.823-2.468-1.219-4.295-1.219Zm-16.971-13.68h-5.514v8.927h5.514c1.311 0 2.407-.426 3.26-1.31.884-.883 1.31-1.919 1.31-3.138 0-1.188-.426-2.224-1.31-3.107-.853-.914-1.949-1.371-3.26-1.371Zm-55.298 4.357c2.224 0 3.991.975 4.906 2.072h.151v-1.523h3.9v16.757c0 6.885-4.051 9.719-8.865 9.719-4.51 0-7.221-3.047-8.258-5.515l3.566-1.493c.639 1.524 2.193 3.321 4.692 3.321 3.077 0 4.965-1.92 4.965-5.484v-1.34h-.151c-.915 1.127-2.682 2.132-4.906 2.132-4.662 0-8.926-4.052-8.926-9.292 0-5.27 4.264-9.354 8.926-9.354Zm26.812.031c4.844 0 7.19 3.839 7.982 5.941l.427 1.066-12.461 5.15c.944 1.858 2.437 2.833 4.508 2.833 2.073-.061 3.535-1.067 4.601-2.62l3.168 2.132c-1.035 1.524-3.503 4.144-7.769 4.144-5.301 0-9.231-4.083-9.231-9.323 0-5.545 3.992-9.323 8.775-9.323ZM87.831 11.23c4.417 0 7.555 1.736 9.901 3.991l-2.803 2.803c-1.706-1.584-3.99-2.833-7.129-2.833-5.82 0-10.39 4.691-10.39 10.51 0 5.82 4.54 10.512 10.39 10.512 3.778 0 5.941-1.523 7.312-2.895 1.128-1.127 1.859-2.742 2.163-4.966H87.71v-3.96h13.405c.153.7.213 1.553.213 2.468 0 2.955-.822 6.641-3.412 9.261-2.56 2.651-5.789 4.053-10.084 4.053-7.983 0-14.686-6.49-14.686-14.472 0-7.983 6.703-14.472 14.686-14.472Zm24.222 10.297c5.149 0 9.354 3.93 9.354 9.323 0 5.362-4.205 9.323-9.354 9.323-5.149 0-9.353-3.96-9.353-9.323 0-5.392 4.204-9.323 9.353-9.323Zm20.351 0c5.149 0 9.353 3.93 9.353 9.323 0 5.362-4.204 9.323-9.353 9.323s-9.354-3.96-9.354-9.323c0-5.392 4.205-9.323 9.354-9.323Zm35.828-9.322v27.39h-4.082v-27.39h4.082Zm-56.148 13.009c-2.803 0-5.241 2.285-5.241 5.636 0 3.321 2.438 5.637 5.241 5.637 2.803 0 5.24-2.316 5.24-5.637 0-3.351-2.437-5.636-5.24-5.636Zm20.32 0c-2.804 0-5.241 2.285-5.241 5.636 0 3.321 2.437 5.637 5.241 5.637 2.803 0 5.24-2.316 5.24-5.637 0-3.351-2.437-5.636-5.24-5.636Zm20.228-.03c-2.833 0-5.179 2.406-5.179 5.697 0 3.26 2.376 5.606 5.179 5.606 2.773 0 4.966-2.346 4.966-5.606 0-3.29-2.193-5.698-4.966-5.698Zm26.538-.061c-2.072 0-4.967 1.858-4.845 5.453l8.318-3.473c-.457-1.158-1.828-1.98-3.473-1.98Z"/><path fill="#EA4335" d="M51.538 12.647c-4.93-2.846-11.233-1.155-14.082 3.775l-7.18 12.44c-2.078 3.591.596 4.847 3.58 6.635l6.91 3.988a4.89 4.89 0 0 0 6.678-1.788l7.382-12.784a8.978 8.978 0 0 0-3.288-12.266Z"/><path fill="#FBBC04" d="m43.413 17.795-6.91-3.988c-3.815-2.117-5.975-2.257-7.54.232L18.77 31.689c-2.845 4.926-1.152 11.226 3.775 14.066a8.978 8.978 0 0 0 12.266-3.288l10.386-17.99a4.884 4.884 0 0 0-1.785-6.682Z"/><path fill="#34A853" d="M44.743 8.722 39.889 5.92c-5.368-3.098-12.232-1.261-15.33 4.107l-9.241 16.005a4.937 4.937 0 0 0 1.807 6.745l5.435 3.138a5.61 5.61 0 0 0 7.665-2.053l10.557-18.284a7.917 7.917 0 0 1 10.816-2.897l-6.855-3.958Z"/><path fill="#4285F4" d="m25.871 14.605-5.246-3.022a4.894 4.894 0 0 0-6.678 1.785L7.652 24.245c-3.099 5.353-1.261 12.202 4.107 15.291l3.994 2.3 4.844 2.791 2.103 1.21c-3.733-2.498-4.918-7.504-2.636-11.447l1.63-2.815 5.969-10.313a4.87 4.87 0 0 0-1.792-6.657Z"/></svg>