<svg xmlns="http://www.w3.org/2000/svg" fill="none" aria-hidden="true" viewBox="0 0 218 63"><path fill="#000" d="M116.901 20.717c9.429 0 13.179 3.321 13.179 9.161v14.144c0 2.571.108 4.446.965 6.536h-10.286c-.536-.804-.911-1.768-1.126-2.786-1.875 2.571-4.5 3.536-8.089 3.536-6.054 0-9.483-3.697-9.483-8.894 0-5.732 3.268-9 12.644-10.179l4.661-.59v-1.124c0-1.982-.536-2.786-2.625-2.786-2.09 0-2.84.857-2.894 2.679h-10.661c.214-6.215 5.036-9.697 13.715-9.697Zm75.582.803v16.93c0 2.84 1.125 3.75 3.106 3.75 2.572 0 4.126-2.143 4.126-4.983V21.52h10.714v29.038H200.25v-3.643c-2.25 3-4.928 4.393-9 4.393-5.089 0-9.483-2.947-9.483-10.233V21.52h10.716ZM75.95 13.056V26.61h11.251V13.056h11.358v37.502H87.2V35.61H75.95v14.948H64.592V13.056H75.95Zm68.876 8.464v29.038h-10.714V21.52h10.714Zm15.016-8.464v17.947l8.625-9.483h12.001l-10.661 10.93 11.143 18.108h-12.375l-6.055-10.662-2.678 2.786v7.876h-10.715V13.056h10.715ZM119.366 37.7l-2.358.375c-3.053.482-4.125 1.5-4.125 3.107 0 1.554 1.018 2.357 2.518 2.357 2.357 0 3.965-1.607 3.965-3.803V37.7Zm20.103-30.323c3.161 0 5.893 2.357 5.893 5.518 0 3.107-2.732 5.518-5.893 5.518-3.107 0-5.893-2.41-5.893-5.518 0-3.161 2.786-5.518 5.893-5.518Z"/><path fill="url(#a)" d="m43.998 5.348-.324-.116a1.501 1.501 0 0 0-1.088.153 740.71 740.71 0 0 0-7.15 2.953.54.54 0 0 0 .003.998l5.962 2.482a.543.543 0 0 1 .335.5c.003 1.954.029 3.782.004 5.737a.54.54 0 0 1-.33.491l-15.699 6.61a.542.542 0 0 1-.752-.5V9.935c0-.565-.316-.994-.79-1.233a1.567 1.567 0 0 0-.14-.068L16.181 5.31a1.5 1.5 0 0 0-1.324.074 931.82 931.82 0 0 0-6.954 2.872.541.541 0 0 0-.01.994l5.843 2.583a.542.542 0 0 1 .323.496v18.788c.046.205.129.38.24.525.115.19.302.358.584.491l17.265 8.216.093.037c.187.093.399.145.622.145l.1-.003a1.415 1.415 0 0 0 1.308-1.418v-5.796a.54.54 0 0 1 .377-.517l6.393-2.032c.35-.111.707.15.707.517l-.008 24.919c0 .22.133.419.337.502l.296.12c.095.04.194.068.294.087a1.79 1.79 0 0 0 1.245-.034l7.828-3.202c.3-.131.504-.279.633-.445.196-.206.316-.477.316-.866V9.936c0-.42-.192-.765-.485-1.011a1.509 1.509 0 0 0-.445-.29L44 5.348Z"/><path fill="url(#b)" d="M24.992 45.548a.542.542 0 0 0-.31-.495l-8.71-4.14a1.402 1.402 0 0 0-1.913.97v14.315c0 .216.129.412.327.498l.456.197c.047.019.095.036.143.05a1.5 1.5 0 0 0 1.227.04l7.76-3.092a1.531 1.531 0 0 0 .949-1.414c.004-.042.005-.084.005-.127l.066-6.802Z"/><defs><linearGradient id="a" x1="29.716" x2="29.716" y1="7.424" y2="54.822" gradientUnits="userSpaceOnUse"><stop stop-color="#F1CB2B"/><stop offset="1" stop-color="#D62B5F"/></linearGradient><linearGradient id="b" x1="29.717" x2="29.717" y1="7.424" y2="54.822" gradientUnits="userSpaceOnUse"><stop stop-color="#F1CB2B"/><stop offset="1" stop-color="#D62B5F"/></linearGradient></defs></svg>