<svg xmlns="http://www.w3.org/2000/svg" fill="none" aria-hidden="true" viewBox="0 0 264 52"><path fill="#2962FF" fill-rule="evenodd" d="M10.784 18.207c-3.825 3.825-3.825 10.026 0 13.85l11.08 11.08c3.825 3.825 10.026 3.825 13.85 0l11.081-11.08c3.825-3.825 3.825-10.026 0-13.85l-11.08-11.08c-3.826-3.825-10.026-3.825-13.851 0l-11.08 11.08ZM33.637 29.98a6.855 6.855 0 1 0-9.695-9.695 6.855 6.855 0 0 0 9.695 9.695Z" clip-rule="evenodd"/><path fill="#333" d="M66.17 32.535c.016-3.085 1.901-4.892 4.612-4.892 2.696 0 4.285 1.73 4.27 4.674v14.054h6.637V31.133c.016-5.61-3.287-9.006-8.273-9.006-3.63 0-6.061 1.714-7.152 4.534h-.28v-12.2h-6.451v31.91h6.637V32.535Zm25.812 14.288c3.537 0 5.827-1.542 6.996-3.77h.187v3.318h6.295V30.23c0-5.702-4.83-8.102-10.159-8.102-5.734 0-9.505 2.742-10.424 7.105l6.14.499c.451-1.59 1.869-2.758 4.253-2.758 2.259 0 3.552 1.137 3.552 3.1v.094c0 1.542-1.636 1.745-5.796 2.15-4.737.437-8.99 2.026-8.99 7.37 0 4.736 3.38 7.136 7.946 7.136Zm1.9-4.58c-2.04 0-3.505-.951-3.505-2.774 0-1.87 1.543-2.79 3.88-3.116 1.449-.203 3.817-.546 4.612-1.076v2.54c0 2.509-2.072 4.425-4.986 4.425Zm34.885-12.98c-.592-4.41-4.145-7.136-10.19-7.136-6.123 0-10.159 2.836-10.143 7.448-.016 3.583 2.243 5.905 6.918 6.84l4.144.826c2.088.42 3.038 1.184 3.069 2.383-.031 1.419-1.573 2.431-3.895 2.431-2.368 0-3.942-1.012-4.347-2.96l-6.528.343c.623 4.58 4.518 7.4 10.86 7.4 6.201 0 10.641-3.162 10.657-7.883-.016-3.46-2.274-5.532-6.918-6.482l-4.331-.872c-2.229-.484-3.054-1.247-3.039-2.4-.015-1.434 1.605-2.368 3.662-2.368 2.306 0 3.677 1.262 4.004 2.804l6.077-.374Zm9.608 3.272c.015-3.085 1.9-4.892 4.611-4.892 2.696 0 4.285 1.73 4.27 4.674v14.054h6.637V31.133c.016-5.61-3.288-9.006-8.274-9.006-3.63 0-6.061 1.714-7.151 4.534h-.281v-12.2h-6.45v31.91h6.638V32.535Zm25.624 0c.016-3.085 1.854-4.892 4.534-4.892 2.665 0 4.27 1.745 4.254 4.674v14.054h6.637V31.133c0-5.578-3.272-9.006-8.257-9.006-3.553 0-6.124 1.745-7.199 4.534h-.281V22.44h-6.325v23.93h6.637V32.535Zm29.715 14.304c7.261 0 11.779-4.97 11.779-12.34 0-7.417-4.518-12.372-11.779-12.372s-11.779 4.955-11.779 12.372c0 7.37 4.518 12.34 11.779 12.34Zm.031-5.142c-3.35 0-5.064-3.07-5.064-7.245 0-4.176 1.714-7.26 5.064-7.26 3.288 0 5.002 3.084 5.002 7.26 0 4.175-1.714 7.245-5.002 7.245Zm23.128 5.064c3.864 0 5.874-2.228 6.794-4.223h.28v3.833h6.544v-31.91h-6.622v11.998h-.202c-.889-1.948-2.805-4.332-6.809-4.332-5.251 0-9.692 4.082-9.692 12.31 0 8.008 4.254 12.324 9.707 12.324Zm2.104-5.282c-3.257 0-5.033-2.898-5.033-7.074 0-4.145 1.745-6.996 5.033-6.996 3.225 0 5.032 2.727 5.032 6.996s-1.839 7.074-5.032 7.074Zm26.123 5.36c5.921 0 9.909-2.883 10.844-7.323l-6.139-.405c-.67 1.822-2.383 2.773-4.596 2.773-3.319 0-5.422-2.197-5.422-5.765v-.016h16.298V34.28c0-8.133-4.924-12.153-11.25-12.153-7.043 0-11.608 5.002-11.608 12.387 0 7.588 4.503 12.325 11.873 12.325Zm-5.313-14.85c.14-2.726 2.212-4.907 5.157-4.907 2.883 0 4.877 2.057 4.893 4.908h-10.05Z"/></svg>