<svg xmlns="http://www.w3.org/2000/svg" fill="none" aria-hidden="true" viewBox="0 0 173 78"><path fill="#0043CE" d="M36.282 67.147v4.565H4.325v-4.565h31.957Zm49.941 0a17.304 17.304 0 0 1-11.759 4.565l-33.617-.045v-4.52h45.376Zm47.517 0-1.594 4.565-1.58-4.566h3.174Zm-15.283 0v4.565H95.631v-4.565h22.826Zm50.218 0v4.565h-22.826v-4.565h22.826Zm-77.28-8.716a17.314 17.314 0 0 1-1.837 4.565h-48.71v-4.565h50.546Zm45.404 0-1.602 4.566h-6.088l-1.603-4.566h9.293Zm-18.342 0v4.565H95.631v-4.565h22.826Zm50.218 0v4.565h-22.826v-4.565h22.826Zm-132.393 0v4.565H4.325v-4.565h31.957Zm-9.13-8.715v4.565H13.454v-4.565H27.15Zm36.522 0v4.565H49.978v-4.565h13.696Zm27.61 0c.405 1.488.61 3.023.611 4.565H76.54v-4.565h14.746Zm48.575 0-1.603 4.565h-12.207l-1.603-4.565h15.413Zm-21.402 0v4.565h-13.696v-4.565h13.696Zm41.087 0v4.565h-13.695v-4.565h13.695ZM27.151 41v4.565H13.456V41H27.15Zm91.306 0v4.565h-13.696V41h13.696Zm41.087 0v4.565h-13.695V41h13.695Zm-73.8 0a17.502 17.502 0 0 1 3.808 4.565H49.978V41h35.766Zm57.175 0-1.603 4.565h-18.327L121.387 41h21.532Zm-12.05-8.715 1.284 3.69 1.283-3.69h26.108v4.565h-13.695v-4.195l-1.473 4.195H119.93l-1.473-4.196v4.196h-13.696v-4.565h26.108Zm-80.891 0h39.575a17.503 17.503 0 0 1-3.809 4.565H49.978v-4.566Zm-22.827 0v4.565H13.456v-4.566H27.15Zm0-8.716v4.565H13.456V23.57H27.15Zm36.523 0v4.565H49.978V23.57h13.696Zm28.221 0c0 1.542-.206 3.077-.61 4.565H76.539V23.57h15.356Zm35.944 0 1.587 4.565h-24.665V23.57h23.078Zm31.705 0v4.565h-24.665l1.588-4.565h23.077ZM36.282 14.854v4.565H4.325v-4.566h31.957Zm53.276 0a17.318 17.318 0 0 1 1.836 4.565H40.847v-4.566h48.71Zm79.117 0v4.565H137.91l1.588-4.566h29.177Zm-43.867 0 1.587 4.565H95.631v-4.566h29.177ZM36.282 6.137v4.565H4.325V6.138h31.957Zm38.182 0a17.366 17.366 0 0 1 11.76 4.565H40.846V6.138h33.617Zm94.211 0v4.566h-27.734l1.587-4.566h26.147Zm-46.898 0 1.588 4.566H95.631V6.138h26.146Z"/></svg>