<svg xmlns="http://www.w3.org/2000/svg" fill="none" aria-hidden="true" viewBox="0 0 184 74"><path fill="#F06" d="M64.258 6.97v21.598h3.092l5.748 15.974 5.794-15.974h6.653l-9.506 23.714h-5.972L64.258 37.79v28.84H4.6V6.97h59.658Zm43.379 21.054c7.105 0 9.55 4.526 9.73 8.012h-6.2c-.136-1.493-1.268-2.853-3.574-2.853-2.087 0-3.259.996-3.259 2.309 0 3.983 13.125 0 13.125 9.73 0 4.255-3.622 7.602-10.047 7.602-7.424 0-9.957-3.8-10.274-8.237h6.517c.091 1.584 1.268 3.078 3.938 3.078 2.442 0 3.71-.86 3.71-2.17 0-3.983-13.169-.228-13.169-9.642 0-4.299 3.666-7.83 9.503-7.83Zm34.758 0c7.604 0 12.446 5.656 12.446 12.4 0 6.744-4.845 12.4-12.446 12.4-7.602 0-12.445-5.659-12.445-12.4 0-6.742 4.843-12.4 12.445-12.4Zm28.271 0c5.703 0 8.734 3.802 8.734 9.458v14.803h-6.425V38.209c0-2.76-1.177-4.66-4.029-4.66-3.123 0-4.841 1.988-4.841 5.157v13.576h-6.427V28.568h5.928v2.897c1.087-2.035 3.53-3.441 7.06-3.441Zm-76.655.544v23.714h-6.427V28.568h6.427Zm33.124 0v23.714h-6.427V28.568h6.427Zm15.26 5.114c-3.397 0-6.018 2.487-6.018 6.742 0 4.254 2.626 6.744 6.018 6.744 3.401 0 6.019-2.492 6.019-6.744s-2.623-6.742-6.019-6.742Z"/><path fill="#fff" d="M28.875 22.298a3.426 3.426 0 0 1-3.386 3.452 3.437 3.437 0 0 1-3.465-3.426 3.426 3.426 0 0 1 6.851-.026ZM17.968 46.68c.007-.869.11-1.733.307-2.578l2.61-10.65h-4.04l1.228-4.53h9.717L23.955 44.14a9.665 9.665 0 0 0-.359 2.343c0 .973.478 1.259 1.228 1.427.445.101 4.091.03 6.069-4.367l2.52-10.088H29.32l1.228-4.53h8.757l-1.127 5.142c1.527-2.864 4.604-5.586 7.62-5.586 3.224 0 5.883 2.296 5.883 6.694a12.954 12.954 0 0 1-.564 3.73l-1.64 5.88a6.799 6.799 0 0 0-.256 1.586c0 1.021.417 1.532 1.171 1.532.755 0 1.74-.562 2.864-3.68l2.25.868c-1.33 4.654-3.733 6.596-6.751 6.596-3.53 0-5.216-2.094-5.216-4.96a9.076 9.076 0 0 1 .358-2.556l1.687-6.053a6.15 6.15 0 0 0 .256-1.841c0-1.948-1.177-3.12-3.068-3.12-2.404 0-3.99 1.735-4.803 5.069l-3.28 13.122h-5.727l1.026-4.127c-1.682 2.768-4.02 4.48-6.905 4.48-3.475 0-5.115-2.003-5.115-5.02Z"/></svg>