<svg xmlns="http://www.w3.org/2000/svg" fill="none" aria-hidden="true" viewBox="0 0 218 54"><path fill="#1A1918" fill-rule="evenodd" d="M100.167 29.394c1.876-4.747 3.924-9.932 3.269-14.696-.41-2.98-2.354-6.22-4.487-7.577-.04-.025-.141-.101-.25-.183a5.475 5.475 0 0 0-.329-.239c-1.578-.914-4.106-1.685-5.865-1.866-9.073-.93-14.486 3.1-17.597 8.532-1.224 2.133-2.034 4.463-2.666 6.932-.7 2.735-1.2 6.052-.8 9.065.24 1.805 1.232 4.37 2.666 5.866 3.162 3.295 9.042 3.255 15.55 3.21.764-.005 1.536-.01 2.313-.01 2.27 0 7.711-.046 9.353-.089.531-.016 2.054-6.212 1.918-6.412-.06-.07-.471-.064-1.098-.053-.744.012-1.792.029-2.915-.072.298-.787.615-1.59.938-2.408Zm-5.607-6.372c-.157.519-.313 1.034-.456 1.54l-.157.56c-.619 2.197-1.238 4.397-1.976 6.373-.865-.005-1.72.01-2.553.024-4.355.075-8.097.139-9.445-2.69-.906-1.907-.498-4.488 0-6.932.67-3.293 1.31-5.684 3.2-7.732 1.461-1.581 5.138-3.52 9.065-2.133 1.304.461 3.325 2.655 3.466 5.065.104 1.797-.527 3.885-1.144 5.925Z" clip-rule="evenodd"/><path fill="#1A1918" d="m198.665 7.987 8.22.045s-15.282 20.709-16.53 22.396c-.119.16-.255.324-.397.494-.343.41-.716.856-.936 1.373-.79 1.837-1.6 5.866-1.6 5.866l-7.521.037s1.17-4.2 1.122-6.436c-.029-1.338-.506-2.674-.983-4.013a30.87 30.87 0 0 1-.617-1.853c-.565-1.984-1.333-5.866-1.333-5.866h7.732l1.067 4.266 11.776-16.309Z"/><path fill="#1A1918" d="M183.1 12.354c1.517.915 2.448 5.96 2.448 5.96s-7.937.117-12.257.117h-3.733l-4.532 19.73h-6.932s4.314-21.442 5.332-25.33c.286-1.087 1.768-1.073 4.272-1.05.392.004.809.008 1.25.008h5.207a85.2 85.2 0 0 0 2.408-.046c2.663-.077 5.27-.151 6.537.611Z"/><path fill="#1A1918" fill-rule="evenodd" d="M156.561 27.517s1.682-7.481.8-10.665c-.051-.18-.1-.377-.15-.578v-.001c-.168-.672-.351-1.404-.65-1.82-1.453-2.027-4.429-2.73-6.399-2.933-5.234-.536-9.591.864-11.998 2.666l-.127.095c-.672.5-1.238.923-1.739 1.505a8.693 8.693 0 0 0-.579.733c-.071.1-.147.185-.224.27a2.494 2.494 0 0 0-.264.33c-.136.206-.277.525-.429.87h-.001v.001c-.096.217-.196.445-.303.662-.212.431-.414.936-.579 1.345l-.021.055c-1.445 3.61-2.92 10.347-1.6 13.864.195.52.629 1.178.778 1.379.066.088.13.181.193.274.118.171.234.342.362.48.723.779 1.792 1.328 2.933 1.6 5.778 1.378 17.33.8 17.33.8l1.416-6.271s-8.175.368-12.08-.128c-.072-.01-.159-.019-.259-.03-.712-.075-2.054-.217-2.786-.858-.726-.634-1.581-2.136-.955-3.111.348-.544 1.515-.536 2.723-.528.339.002.682.004 1.01-.006 4.812-.147 13.598 0 13.598 0Zm-6.466-8.287c.949 1.467.733 2.733.733 2.733l-10.331-.066s-.117-4.463 5.906-4.274c2.133.066 2.882.357 3.692 1.607Z" clip-rule="evenodd"/><path fill="#1A1918" d="m125.566 11.765 6.721-.04s-3.745 17.77-5.655 26.436H118.9c-.709 0-1.409.011-2.093.023-4.527.074-8.393.138-10.171-3.223-1.705-3.225-.55-8.234.375-12.242.152-.661.299-1.295.425-1.889.629-2.97 1.954-9.041 1.954-9.041l6.964-.064s-1.968 9.452-2.786 14.17c-.065.377-.146.749-.225 1.113-.276 1.27-.533 2.449-.042 3.42.6 1.19 1.44 1.275 4 1.334.81.018 3.466 0 3.466 0l4.799-19.997ZM70.14 14.324v.001a164.641 164.641 0 0 1-.831 3.839h-7.466c.23-.888.439-1.775.643-2.642.31-1.315.608-2.586.957-3.757 1.166 0 2.293.008 3.446.015 1.208.009 2.445.017 3.788.017-.179.811-.357 1.665-.537 2.527Zm-1.365 5.706h-7.198c-.365 1.2-2.296 9.273-2.933 12.265a79.81 79.81 0 0 0-.394 2.008c-.837 4.46-1.588 8.456-6.538 7.857-.252.925-.535 1.996-.827 3.1-.339 1.283-.69 2.612-1.018 3.811.626.013 1.24.035 1.837.057 1.63.06 3.152.114 4.54-.036 1.168-.127 3.277-.631 3.733-1.066a.53.53 0 0 1 .26-.136c.08-.023.165-.047.273-.131 2.407-1.88 3.05-4.46 3.925-7.968l.075-.297c1.46-5.85 3.324-14.254 4.265-19.464Z"/><path fill="#21609B" d="M40.78 20.988c1.227-.262 4.005-2.352 4.488-3.458-3.995 2.718-6.535 1.956-7.816 1.572a26.12 26.12 0 0 0-.156-.047c-.27-.077-.893-.357-1.475-.707l-.119-.071c-1.211-.728-1.84-1.105-2.813-2.52-.553-.803-1.105-2.078-1.286-2.808-.298-1.208-.216-3.066.352-4.666-1.885 1.683-2.175 4.933-1.544 7.082.08.272.528 1.34.77 1.732 1.63 2.622 4.742 4.925 9.6 3.89Z"/><path fill="#21609B" d="M37.314 28.296c3.104.021 6.346-1.43 8.265-3.466-1.68 4.263-6.542 7.004-13.064 6.132-5.46-.73-10.662-6.226-11.198-11.732-.392-4.007 1.005-6.398 3.306-9.3-.8 1.518-1.099 2.688-1.173 3.435-.874 8.668 6.924 14.885 13.864 14.93Z"/><path fill="#21609B" d="m44.78 33.628-.155.4c-2.629 5.12-7.287 8.26-13.931 8.399-3.106.064-6.066-.733-7.999-1.6-4.172-1.874-7.681-5.35-9.598-9.065-2.749-5.325-3.245-12.731 2.472-18.264.044 0-.13.3-.303.6s-.347.6-.303.6l-.157.512c-4.12 12.896 8.572 23.948 20.908 22.684 2.965-.304 6.746-1.927 9.066-4.266Z"/></svg>