<svg xmlns="http://www.w3.org/2000/svg" fill="none" aria-hidden="true" viewBox="0 0 233 53"><g fill="#000" clip-path="url(#a)"><path d="M40.993.25h-11.47c0 9.412-4.32 18.002-11.83 23.66l-4.526 3.394 17.59 23.969h14.454L29.009 29.207C36.672 21.596 40.993 11.308 40.993.25Zm-29.266 0H0v51.023h11.727V.25Zm47.937 0H48.605v51.023h11.059V.25Zm97.005 14.762c-4.218 0-8.23 1.285-10.904 4.937v-3.96h-10.493v35.284h10.647V32.756c0-5.349 3.6-7.972 7.921-7.972 4.629 0 7.303 2.778 7.303 7.921v18.62h10.544V28.846c0-8.23-6.532-13.835-15.018-13.835Zm-63.573.977v2.263c-2.983-2.057-6.583-3.24-10.492-3.24-10.287 0-18.62 8.332-18.62 18.619 0 10.287 8.333 18.619 18.62 18.619 3.909 0 7.509-1.183 10.492-3.24v2.263h10.544V15.989H93.096Zm-9.618 26.694c-5.298 0-9.567-4.063-9.567-9.052 0-4.99 4.27-9.053 9.567-9.053 5.298 0 9.567 4.064 9.567 9.053 0 4.989-4.27 9.052-9.567 9.052Zm36.518-22.116v-4.578h-10.801v35.284h10.852v-16.46c0-5.554 6.018-8.537 10.184-8.537h.103V15.989c-4.269 0-8.229 1.851-10.338 4.578Zm84.507-4.578v2.263c-2.984-2.057-6.584-3.24-10.493-3.24-10.287 0-18.619 8.332-18.619 18.619 0 10.287 8.332 18.619 18.619 18.619 3.909 0 7.509-1.183 10.493-3.24v2.263h10.544V15.989h-10.544Zm-9.619 26.694c-5.297 0-9.566-4.063-9.566-9.052 0-4.99 4.269-9.053 9.566-9.053 5.298 0 9.567 4.064 9.567 9.053.052 4.989-4.269 9.052-9.567 9.052Zm28.34-25.665c0-.515-.36-.823-.925-.823h-.978v2.674h.463v-.977h.515l.411.977h.514l-.463-1.08c.309-.154.463-.411.463-.771Zm-.925.411h-.515v-.823h.515c.308 0 .462.154.462.412 0 .257-.102.411-.462.411Z"/><path d="M222.144 15.063a2.525 2.525 0 0 0-2.52 2.52c.051 1.39 1.132 2.52 2.52 2.52a2.525 2.525 0 0 0 2.521-2.52 2.525 2.525 0 0 0-2.521-2.52Zm0 4.578c-1.131 0-2.006-.926-2.006-2.058 0-1.131.926-2.057 2.006-2.057 1.132 0 2.006.926 2.006 2.057 0 1.132-.926 2.058-2.006 2.058Zm4.167 19.133c-3.652 0-6.635 2.983-6.635 6.635 0 3.652 2.983 6.635 6.635 6.635 3.652 0 6.635-2.983 6.635-6.635a6.618 6.618 0 0 0-6.635-6.635Z"/></g><defs><clipPath id="a"><path fill="#fff" d="M0 0h232.946v52H0z" transform="translate(0 .25)"/></clipPath></defs></svg>