<svg xmlns="http://www.w3.org/2000/svg" fill="none" aria-hidden="true" viewBox="0 0 157 76"><path fill="#83BC57" d="M35.94 9.737c-.198 1.193.597 1.989 1.79 1.989h19.886c.895-.1 1.491-.796 1.491-1.591.1-.895-.497-1.392-1.193-1.79h-20.78c-.597.298-1.094.696-1.193 1.392Z"/><path fill="#624DC5" d="M57.218 41.256H37.631c-.995 0-1.591.696-1.69 1.59-.1.995.497 1.69 1.49 1.79.3.1.498.1.796.1H56.92c.298 0 .497 0 .795-.1 1.094-.199 1.69-.994 1.492-1.988-.299-.895-.995-1.392-1.989-1.392Z"/><path fill="#415494" d="M37.73 28.131h19.488c.398 0 .696 0 1.094-.199a1.665 1.665 0 0 0 .795-1.889c-.198-.795-.894-1.292-1.79-1.292H37.73c-1.193 0-1.889.696-1.889 1.69 0 1.094.696 1.69 1.89 1.69Z"/><path fill="#050505" d="M98.456 10.135v32.712c0 .397.1.795.298 1.093.497.696 1.193.696 1.889.696h18.891c.299 0 .498 0 .796-.1a1.69 1.69 0 0 0 1.392-1.391c.199-1.193-.597-1.989-1.889-1.989h-17.4c-.497 0-.597-.1-.597-.596V28.628c0-.497.1-.596.597-.596h17.599c.894 0 1.59-.597 1.69-1.492.099-1.093-.696-1.889-1.79-1.889h-17.499c-.497 0-.597-.199-.597-.596V12.223c0-.497.1-.696.696-.696 5.668.1 11.435 0 17.102 0h.696c.696-.1 1.292-.597 1.392-1.392.199-.994-.398-1.591-1.094-1.989h-20.88c-.795.597-1.292 1.094-1.292 1.989Zm-30.897.596c3.082 10.838 6.164 21.676 9.346 32.513.298.895.895 1.392 1.69 1.392.895 0 1.392-.398 1.69-1.292 3.38-10.838 6.761-21.576 10.142-32.414.497-1.392.298-1.889-.994-2.585h-1.094c-.597.398-.994.895-1.193 1.59A2187.636 2187.636 0 0 1 79.589 33.7c-.397 1.094-.696 2.088-1.093 3.281-.1-.199-.1-.199-.1-.298a1303.5 1303.5 0 0 0-7.457-26.348c-.298-.796-.497-1.591-1.292-1.989h-1.094c-1.094.696-1.293 1.293-.994 2.386Zm-62.64-.1c.1 10.64 0 21.279 0 31.917v.696c.1.796.696 1.293 1.392 1.392.298.1.497.1.795.1h18.792c.299 0 .497 0 .796-.1 1.094-.199 1.69-1.193 1.392-2.187-.298-.796-.895-1.193-1.89-1.193h-17.2c-.597 0-.696-.2-.696-.696 0-9.844 0-19.786.1-29.63 0-1.093-.1-1.988-1.095-2.585H6.112c-.895.497-1.193 1.293-1.193 2.287Zm124.757 0v32.514c.1.596.298.994.796 1.292.497.299.994.299 1.491.299h18.792c.298 0 .596 0 .895-.1.795-.1 1.392-.795 1.392-1.491.099-1.094-.696-1.89-1.889-1.89h-17.301c-.497 0-.696-.099-.696-.695 0-10.043 0-20.085.1-30.028 0-.994-.299-1.69-1.194-2.187h-1.093c-1.094.497-1.293 1.293-1.293 2.287ZM4.124 65.02c.795 2.784 4.772 3.58 6.86 1.69.497-.398.895-.994 1.293-1.491v1.491c0 .298.1.497.298.597.497.298 1.094.298 1.59.1.498-.2.498-.597.498-.995v-3.878c0-1.491.1-2.883-.1-4.375-.298-1.889-1.49-3.38-3.28-3.778-1.99-.497-3.878-.1-5.568.895-.796.298-.796.597-.498 1.293.398.696.696.795 1.293.497a12.132 12.132 0 0 1 1.69-.696c2.188-.597 3.58.397 3.779 2.485.099.398-.1.597-.498.597-.596 0-1.093 0-1.69.1-2.486.198-4.872.596-5.866 3.38v1.89l.199.198Zm3.181-3.082c.796-.597 1.69-.696 2.685-.796.298-.1.596-.1.895-.1 1.491 0 1.392-.297 1.193 1.293-.199.995-.597 1.89-1.392 2.585-.696.697-1.59.895-2.486.796-.895-.199-1.491-.796-1.69-1.59-.298-.896 0-1.691.795-2.188Zm91.051-6.96c-1.988-1.392-5.17-1.193-7.158.596-2.287 2.088-2.685 4.773-1.89 7.656 1.492 4.773 7.16 5.668 10.54 3.082.497-.397.497-.894-.1-1.59-.397-.498-.696-.498-1.193-.2-.1.1-.298.2-.398.3-2.883 1.789-6.363.297-6.86-2.984-.1-.497 0-.696.597-.696.696 0 1.292.1 1.889 0h5.766c.498 0 .895-.298.895-.696.199-2.088-.298-4.076-2.088-5.468Zm-.497 4.573h-5.965c-.2 0-.398.1-.398-.298.199-1.889 2.287-3.48 4.176-3.082 1.59.398 2.287 1.69 2.386 3.082.199.398 0 .298-.199.298Zm-27.516 5.071c-.895.696-1.989 1.094-3.083.995-1.889-.1-3.38-1.293-3.977-3.083-.596-1.988 0-4.176 1.591-5.369 1.492-1.094 3.48-1.094 5.07 0 .796.497.995.497 1.393-.1.596-.894.596-1.192-.199-1.69-1.59-1.093-3.38-1.491-5.17-1.093-3.182.596-5.071 2.883-5.37 6.164-.397 4.077 2.586 7.259 6.662 7.259 1.591 0 2.983-.498 4.276-1.492.696-.497.696-.994.199-1.79-.398-.397-.696-.397-1.392.2Zm-28.238 0c-1.094.796-2.287 1.193-3.58.995a4.526 4.526 0 0 1-3.778-4.674c.1-2.386 1.392-3.977 3.48-4.374 1.293-.299 2.486.099 3.48.795.299.199.696.398 1.094.199.895-.696.895-1.492 0-2.088-2.287-1.491-4.673-1.591-7.06-.398-2.386 1.293-3.38 3.38-3.38 5.27 0 3.48 1.392 5.866 3.58 6.86 2.585 1.194 5.07.895 7.457-.795.696-.497.696-.994.1-1.79-.399-.596-.796-.596-1.393 0Zm108.849-3.977c-.796-.398-1.591-.696-2.287-.994-.597-.298-1.094-.497-1.591-.895-.795-.696-.597-1.79.298-2.287a2.65 2.65 0 0 1 1.193-.298c.995-.1 1.89.298 2.685.696.597.398.895.199 1.293-.497.397-.696.298-.995-.299-1.392-1.591-.994-3.281-1.193-5.071-.796-1.69.398-2.684 1.591-2.883 3.083-.199 1.69.497 2.883 2.088 3.678.597.299 1.193.498 1.79.796.596.298 1.193.497 1.69.795.597.398 1.094.796.895 1.591-.1.796-.597 1.193-1.492 1.392-1.392.298-2.485-.199-3.579-.994-.597-.398-.994-.299-1.392.397-.398.597-.398.995.199 1.392 1.193.895 2.585 1.293 4.176 1.293.298 0 .795-.1 1.193-.199 1.69-.398 2.983-1.59 3.182-3.082.199-1.491-.497-2.784-2.088-3.679Zm-25.354.597c-.597-.498-1.293-.796-2.088-1.094-.796-.298-1.591-.597-2.287-.994-.597-.398-.995-.796-.895-1.492.099-.795.596-1.193 1.292-1.292 1.194-.299 2.287.1 3.282.596.596.398.894.2 1.292-.497.398-.696.398-.994-.298-1.392-1.392-.895-2.784-1.093-4.375-.895-1.889.299-3.281 1.492-3.579 3.083-.299 1.79.497 3.082 2.386 3.977l2.088.895a5.266 5.266 0 0 1 1.491.795c.796.696.696 1.89-.298 2.386-.597.398-1.193.398-1.79.398-.895-.1-1.789-.497-2.485-.994-.696-.498-.995-.398-1.492.298s-.397.994.298 1.491c1.194.895 2.586 1.293 4.176 1.293.498.1 1.094-.1 1.691-.298 1.392-.498 2.386-1.392 2.684-2.884.299-1.392-.099-2.485-1.093-3.38Z"/></svg>