<svg xmlns="http://www.w3.org/2000/svg" fill="none" aria-hidden="true" viewBox="0 0 202 59"><path fill="#000" d="M8.657 50.553H15.9V31.71c0-3.715 2.443-6.415 5.933-6.415 3.374 0 5.468 2.119 5.468 5.544v19.712h7.038V31.537c0-3.687 2.385-6.242 5.875-6.242 3.548 0 5.526 2.148 5.526 5.923v19.334h7.242V29.447c0-6.154-3.985-10.248-10.064-10.248-4.45 0-8.113 2.38-9.597 6.184h-.175c-1.134-3.948-4.246-6.184-8.608-6.184-4.188 0-7.445 2.352-8.783 5.923h-.146V19.78h-6.95v30.773Zm60.175-4.964c-3.14 0-5.235-1.597-5.235-4.123 0-2.438 2.007-4.006 5.497-4.238l7.126-.436v2.352c0 3.716-3.287 6.445-7.388 6.445Zm-2.18 5.457c3.954 0 7.823-2.06 9.597-5.4h.145v4.907h6.98V29.36c0-6.183-4.973-10.219-12.622-10.219-7.852 0-12.767 4.123-13.087 9.87h6.718c.465-2.554 2.647-4.209 6.079-4.209 3.577 0 5.758 1.858 5.758 5.08v2.207l-8.144.464c-7.503.465-11.72 3.745-11.72 9.203 0 5.545 4.333 9.29 10.295 9.29Zm48.512-20.293c-.495-6.473-5.526-11.612-13.669-11.612-8.958 0-14.775 6.184-14.775 16.025 0 9.987 5.817 15.996 14.833 15.996 7.736 0 13.058-4.53 13.64-11.41h-6.835c-.669 3.484-3.054 5.574-6.718 5.574-4.596 0-7.562-3.716-7.562-10.16 0-6.33 2.938-10.162 7.504-10.162 3.868 0 6.165 2.468 6.747 5.748h6.835v.002ZM137.53 7.964c-12.244 0-19.922 8.332-19.922 21.658 0 13.325 7.678 21.628 19.922 21.628 12.215 0 19.894-8.303 19.894-21.628 0-13.326-7.678-21.658-19.894-21.658Zm0 6.387c7.475 0 12.244 5.922 12.244 15.27 0 9.32-4.77 15.242-12.244 15.242-7.503 0-12.244-5.922-12.244-15.241 0-9.348 4.741-15.27 12.244-15.27Zm22.948 24.415c.32 7.723 6.66 12.484 16.316 12.484 10.15 0 16.549-4.993 16.549-12.948 0-6.242-3.606-9.754-12.128-11.7l-4.828-1.103c-5.147-1.219-7.271-2.845-7.271-5.631 0-3.484 3.2-5.807 7.94-5.807 4.799 0 8.085 2.352 8.434 6.271h7.155c-.175-7.374-6.282-12.367-15.53-12.367-9.133 0-15.619 5.022-15.619 12.454 0 5.98 3.665 9.696 11.401 11.467l5.438 1.278c5.294 1.248 7.446 2.99 7.446 6.01 0 3.483-3.519 5.98-8.58 5.98-5.118 0-8.986-2.526-9.451-6.387h-7.272Z"/></svg>