<svg xmlns="http://www.w3.org/2000/svg" fill="none" aria-hidden="true" viewBox="0 0 99 75"><path fill="#6C6BBD" d="M59.567 50.579H38.71V13.096h20.857v37.483Z"/><path fill="#D32011" d="M40.034 31.838c0-7.603 3.56-14.377 9.104-18.741A23.734 23.734 0 0 0 34.407 8C21.242 8 10.57 18.672 10.57 31.838s10.671 23.838 23.836 23.838c5.56 0 10.677-1.905 14.73-5.096-5.543-4.365-9.103-11.138-9.103-18.742Z"/><path fill="#0099DF" d="M87.705 31.838c0 13.166-10.67 23.838-23.835 23.838a23.74 23.74 0 0 1-14.733-5.096c5.546-4.365 9.106-11.138 9.106-18.742 0-7.603-3.56-14.377-9.106-18.741A23.741 23.741 0 0 1 63.87 8c13.164 0 23.835 10.672 23.835 23.838Z"/><path fill="#110F0D" d="M66.624 61.17c.278 0 .676.053.98.173l-.424 1.297a2.231 2.231 0 0 0-.86-.159c-.9 0-1.35.582-1.35 1.628v3.55h-1.378v-6.33h1.364v.769c.357-.556.874-.928 1.668-.928Zm-5.09 1.417h-2.25v2.86c0 .635.225 1.06.914 1.06.358 0 .808-.12 1.217-.358l.397 1.177c-.436.305-1.124.491-1.72.491-1.63 0-2.197-.874-2.197-2.344v-2.886h-1.286V61.33h1.285v-1.92h1.39v1.92h2.25v1.258Zm-17.623 1.35c.146-.913.701-1.536 1.682-1.536.886 0 1.456.556 1.602 1.537H43.91Zm4.714.557c-.013-1.974-1.232-3.324-3.007-3.324-1.853 0-3.15 1.35-3.15 3.324 0 2.01 1.35 3.322 3.244 3.322.954 0 1.827-.238 2.595-.887l-.676-1.02a3.009 3.009 0 0 1-1.84.663c-.886 0-1.694-.411-1.893-1.55h4.7c.014-.172.027-.343.027-.528Zm6.05-1.55c-.383-.239-1.163-.543-1.971-.543-.755 0-1.205.279-1.205.742 0 .423.476.543 1.071.622l.649.092c1.378.2 2.211.782 2.211 1.895 0 1.205-1.06 2.065-2.885 2.065-1.034 0-1.987-.265-2.742-.821l.649-1.073c.463.358 1.153.662 2.106.662.94 0 1.443-.277 1.443-.768 0-.356-.358-.556-1.112-.66l-.649-.093c-1.417-.2-2.186-.835-2.186-1.867 0-1.259 1.034-2.027 2.636-2.027 1.006 0 1.92.226 2.581.663l-.596 1.112Zm16.982-.466c-.283 0-.545.05-.79.149-.242.1-.453.24-.63.418a1.94 1.94 0 0 0-.418.644c-.102.25-.152.526-.152.826 0 .302.05.576.152.826s.24.465.418.644.388.318.63.418c.245.1.507.149.79.149.284 0 .547-.049.79-.149a1.893 1.893 0 0 0 1.056-1.062c.102-.25.152-.524.152-.826 0-.3-.05-.576-.152-.826a1.893 1.893 0 0 0-1.056-1.062 2.08 2.08 0 0 0-.79-.149Zm0-1.308c.491 0 .946.085 1.364.256a3.22 3.22 0 0 1 1.802 1.761c.173.408.26.85.26 1.328 0 .477-.087.92-.26 1.328a3.225 3.225 0 0 1-1.802 1.762c-.418.17-.873.255-1.364.255-.49 0-.945-.085-1.364-.255a3.298 3.298 0 0 1-1.08-.703 3.264 3.264 0 0 1-.714-1.06 3.367 3.367 0 0 1-.26-1.327c0-.477.087-.92.26-1.328a3.24 3.24 0 0 1 .714-1.057 3.274 3.274 0 0 1 1.08-.704 3.564 3.564 0 0 1 1.364-.256Zm-35.791 3.324c0-1.113.729-2.026 1.92-2.026 1.138 0 1.907.874 1.907 2.026 0 1.152-.769 2.025-1.907 2.025-1.191 0-1.92-.913-1.92-2.025Zm5.124 0v-3.165h-1.376v.769c-.438-.57-1.099-.928-2-.928-1.774 0-3.164 1.39-3.164 3.324 0 1.932 1.39 3.323 3.165 3.323.9 0 1.56-.357 1.999-.927v.768h1.376v-3.164Zm-7.758 3.164v-3.972c0-1.496-.953-2.502-2.489-2.516-.807-.014-1.643.238-2.225 1.126-.436-.702-1.126-1.126-2.093-1.126-.674 0-1.336.199-1.853.94v-.78h-1.376v6.328h1.39V64.15c0-1.099.609-1.683 1.549-1.683.913 0 1.377.596 1.377 1.67v3.521h1.39V64.15c0-1.099.636-1.683 1.549-1.683.94 0 1.391.596 1.391 1.67v3.521h1.39Z"/></svg>