<svg xmlns="http://www.w3.org/2000/svg" fill="none" aria-hidden="true" viewBox="0 0 182 65"><path fill="#A57242" d="M136.841 33.37c2.177 0 3.944.93 5.301 2.788v-2.437h1.683v13.34h-1.683v-2.286c-1.524 1.826-3.266 2.739-5.226 2.739-1.959 0-3.617-.695-4.974-2.086-1.34-1.406-2.01-3.073-2.01-4.999 0-1.943.679-3.6 2.035-4.974 1.357-1.39 2.981-2.085 4.874-2.085Zm-30.382 0c2.177 0 3.944.93 5.3 2.788v-2.437h1.684v13.34h-1.684v-2.286c-1.524 1.826-3.265 2.739-5.225 2.739-1.96 0-3.618-.695-4.974-2.086-1.34-1.406-2.01-3.073-2.01-4.999 0-1.943.678-3.6 2.035-4.974 1.356-1.39 2.981-2.085 4.874-2.085Zm44.946-4.346c2.562 0 4.438.192 5.627.577 1.206.369 2.244.963 3.115 1.784.871.804 1.541 1.792 2.01 2.964.469 1.173.703 2.546.703 4.12a9.305 9.305 0 0 1-1.105 4.422c-.72 1.373-1.708 2.412-2.964 3.115-1.24.704-3.032 1.055-5.377 1.055h-5.753V29.023h3.744Zm-24.716 4.697v13.34h-1.734v-13.34h1.734Zm-47.228-4.697 7.336 14.797 7.286-14.797h.276l2.588 18.037h-1.784l-1.759-12.913-6.38 12.913h-.453l-6.456-13.013-1.759 13.013h-1.733l2.562-18.038h.276Zm41.486 4.346c.553 0 1.105.15 1.658.452l-.904 1.457a1.497 1.497 0 0 0-.779-.226c-.519 0-1.013.268-1.482.804-.453.536-.788 1.23-1.005 2.085-.218.837-.327 2.37-.327 4.597v4.522h-1.758v-13.34h1.758v1.935c.469-.787.921-1.365 1.357-1.734.452-.368.946-.552 1.482-.552Zm49.242-4.346c1.893 0 3.325.385 4.296 1.155.988.754 1.483 1.843 1.483 3.266 0 .787-.201 1.516-.603 2.186-.386.653-.955 1.18-1.709 1.582 1.24.402 2.178 1.005 2.814 1.81.653.803.98 1.758.98 2.863 0 1.49-.545 2.73-1.633 3.718-1.089.972-2.496 1.457-4.221 1.457h-4.974V29.023h3.567Zm-33.248 6.004c-1.473 0-2.721.544-3.743 1.633-1.021 1.072-1.532 2.344-1.532 3.818 0 1.474.519 2.755 1.557 3.844 1.039 1.072 2.278 1.608 3.718 1.608 1.457 0 2.705-.52 3.744-1.558 1.038-1.038 1.557-2.344 1.557-3.919 0-1.524-.511-2.805-1.532-3.843-1.022-1.056-2.278-1.583-3.769-1.583Zm-30.382 0c-1.474 0-2.721.544-3.743 1.633-1.022 1.072-1.533 2.344-1.533 3.818 0 1.474.52 2.755 1.558 3.844 1.038 1.072 2.278 1.608 3.718 1.608 1.457 0 2.705-.52 3.743-1.558 1.039-1.038 1.558-2.344 1.558-3.919 0-1.524-.511-2.805-1.532-3.843-1.022-1.056-2.278-1.583-3.769-1.583Zm44.117-4.246h-1.281v14.571h2.085c2.177 0 3.752-.109 4.723-.327a5.802 5.802 0 0 0 2.588-1.28 6.433 6.433 0 0 0 1.683-2.362c.385-.921.578-1.977.578-3.166 0-1.189-.227-2.286-.679-3.29a6.337 6.337 0 0 0-1.884-2.488c-.821-.653-1.792-1.088-2.914-1.306-1.105-.235-2.738-.352-4.899-.352Zm18.735 7.587h-1.005v6.934h2.236c1.289 0 2.236-.126 2.838-.377a3.557 3.557 0 0 0 1.508-1.206c.385-.553.578-1.114.578-1.683 0-.57-.109-1.072-.327-1.507a3.35 3.35 0 0 0-.98-1.156c-.418-.335-.929-.586-1.532-.754-.586-.167-1.692-.251-3.316-.251Zm1.08-7.587h-2.085v5.778h1.03c1.574 0 2.746-.251 3.517-.753.77-.503 1.155-1.29 1.155-2.362 0-1.775-1.205-2.663-3.617-2.663Zm-44.682-2.21c.402 0 .737.142 1.005.426.285.268.427.603.427 1.005 0 .386-.142.72-.427 1.005a1.363 1.363 0 0 1-1.005.402c-.385 0-.72-.142-1.004-.427a1.388 1.388 0 0 1-.402-.98c0-.385.134-.72.402-1.005a1.372 1.372 0 0 1 1.004-.427Z"/><path fill="#002B64" d="M79.703 7.088c-1.187.038-.812.38-3.378 1.012-2.591.638-5.756.442-8.547 1.612-8.33 3.494-10 15.433-17.573 19.71-5.66 3.197-11.37 3.452-16.505 5.06-3.374 1.059-7.065 3.229-10.122 5.863-2.372 2.046-2.434 3.844-4.914 6.41C16.012 49.499 8.124 46.8 4.55 51c1.151 1.165 1.656 1.49 3.926 1.189-.47.89-3.24 1.64-2.698 2.95.57 1.38 7.267 2.314 13.354-1.361 2.835-1.712 5.092-4.179 9.508-4.768 5.713-.761 12.294.489 18.908 1.443-.98 2.924-2.95 4.868-4.527 7.197-.488.526.981.585 2.657.267 3.016-.745 5.19-1.346 7.465-2.67 2.796-1.628 3.22-5.801 6.65-6.704 1.912 2.938 7.11 3.632 10.336 1.282-2.83-.801-3.613-6.826-2.658-9.48.905-2.514 1.8-6.534 2.711-9.856.979-3.567 1.34-8.064 2.524-9.881 1.782-2.735 3.75-3.673 5.46-5.215 1.709-1.542 3.273-3.043 3.222-6.57-.017-1.137-.604-1.77-1.685-1.736Z"/><path fill="#C49A6C" d="M77.373 9.185c.285.973.732 1.42 2.663 1.598-.282 2.447-1.915 3.786-3.746 5.07-1.61 1.13-3.376 2.218-4.51 3.983-1.162 1.808-1.899 7.996-3.7 14.106-1.558 5.28-3.91 10.5-8.016 12.788-.429-1.08.055-3.073-.798-3.728-.552 1.575-1.177 3.077-1.908 4.473-2.41 4.606-5.977 8.054-11.939 9.107 2.829-3.828 5.534-7.78 5.592-14.378-1.99.43-1.948 5.133-3.994 6.39-1.311.143-2.64.142-3.977.062-5.49-.33-11.123-1.98-16.26-.331-3.498 1.122-6.358 3.77-9.32 5.055-3.48 1.51-6.117 2.13-10.451 1.51-.55-.742 3.172-1.699 2.95-3.308-1.697-.188-2.682.223-4.157-.447a2.2 2.2 0 0 1 .704-.758c2.702-1.87 10.38-.442 12.434-2.46 1.268-1.244 2.1-2.546 2.962-3.812.835-1.229 1.699-2.423 3.014-3.5.486-.397 1.014-.79 1.575-1.173 2.242-1.534 5.016-2.926 7.745-3.885 3.719-1.307 7.487-1.415 11.45-2.93 2.449-.935 5.111-2.091 7.282-3.709a14.537 14.537 0 0 0 1.453-1.233c6.198-6.041 7.426-16.698 17.095-17.691 1.169-.12 2.126-.082 2.997-.108 1.005-.03 1.893-.147 2.86-.691ZM65.586 43.292c.115 1.847 1.188 5.511 2.134 6.402-1.854.45-5.047-.294-5.866-1.602.42-1.888 2.611-3.614 3.732-4.8Z"/><path fill="#002B64" d="M77.844 11.22c-.364.763-1.061 1.747-1.061 3.691-.003.334-.253.562-.258.048.02-1.9.522-2.721 1.056-3.8.248-.443.398-.26.263.06Zm-.367-.289c-.429.73-1.463 2.058-1.634 3.995-.032.332-.302.537-.26.024.186-1.89 1.012-3.074 1.64-4.102.284-.419.418-.224.254.083Zm-.334-.38c-.489.689-2.08 2.285-2.414 4.2-.06.328-.346.511-.262.003.345-1.868 1.717-3.337 2.428-4.308.32-.394.436-.188.248.104Zm-.298-.426-.161.171c-.712.763-2.365 2.625-2.916 4.328-.106.316-.415.457-.26-.034.604-1.802 2.265-3.742 3.106-4.604.372-.345.458-.124.231.14Zm-8.543 3.857c.368-1.584 1.6-2.306 3.727-2.13.513 2.365-2.359 3.318-3.727 2.13Z"/></svg>