<svg xmlns="http://www.w3.org/2000/svg" fill="none" aria-hidden="true" viewBox="0 0 237 50"><path fill="#000" d="M140.953 11.69c-3.216 0-5.652 1.152-7.26 3.455-1.413-2.303-3.655-3.454-6.627-3.454-3.07 0-5.311 1.055-6.773 3.214v-2.543h-6.286v23.991h6.286V22.87c0-3.502 1.803-5.422 4.58-5.422 2.583 0 4.093 1.68 4.093 4.559v14.346h6.286V22.87c0-3.502 1.657-5.422 4.531-5.422 2.583 0 4.093 1.68 4.093 4.559v14.346h6.286V21.575c0-5.998-3.606-9.884-9.209-9.884Zm32.576 3.503c-1.9-2.35-4.531-3.502-7.942-3.502-3.265 0-6.042 1.247-8.381 3.694-2.29 2.447-3.46 5.422-3.46 8.973 0 3.55 1.17 6.573 3.46 9.02 2.339 2.447 5.116 3.647 8.381 3.647 3.411 0 6.042-1.151 7.942-3.503v2.831h6.286v-23.99h-6.286v2.83Zm-11.597 14.059c-1.267-1.296-1.9-2.927-1.9-4.894s.633-3.599 1.9-4.846c1.267-1.296 2.875-1.92 4.824-1.92 1.949 0 3.557.624 4.824 1.92 1.316 1.247 1.949 2.879 1.949 4.846s-.633 3.598-1.949 4.894c-1.267 1.248-2.875 1.871-4.824 1.871-1.949 0-3.557-.623-4.824-1.871Zm41.076-12.763v-4.127h-18.272v5.806h9.793l-10.282 14.059v4.126h19.248v-5.806h-10.819l10.332-14.058ZM229.776 26.9c.146-.91.243-1.726.243-2.542 0-3.599-1.168-6.574-3.507-9.02-2.29-2.448-5.263-3.647-8.819-3.647-3.753 0-6.87 1.2-9.259 3.646-2.387 2.4-3.606 5.422-3.606 9.02 0 3.648 1.219 6.67 3.655 9.07 2.437 2.398 5.653 3.598 9.696 3.598 4.677 0 8.236-1.727 10.623-5.134l-5.067-2.879c-1.219 1.584-3.07 2.4-5.458 2.4-3.751 0-6.041-1.488-6.87-4.511h18.369Zm-18.466-4.797c.73-3.071 3.02-4.846 6.383-4.846 2.874 0 5.31 1.583 6.042 4.846H211.31Z"/><path fill="#0568FD" fill-rule="evenodd" d="M10.814 40.25a12.898 12.898 0 0 1 0-18.35L24.695 8.137c4.32-4.284 10.91-4.946 15.933-1.988 1.553.915 1.54 3.015.262 4.282s-3.364 1.158-5.098.655a6.581 6.581 0 0 0-6.47 1.639l-13.88 13.763a6.449 6.449 0 0 0 0 9.175c2.555 2.534 6.698 2.534 9.253 0L52.457 8.137c5.111-5.067 13.398-5.067 18.509 0L84.846 21.9a12.898 12.898 0 0 1 0 18.35c-5.11 5.068-13.396 5.068-18.507 0l-4.627-4.587-5.784 5.735c-4.32 4.283-10.91 4.946-15.933 1.987-1.553-.915-1.54-3.014-.262-4.281s3.364-1.158 5.098-.655a6.581 6.581 0 0 0 6.47-1.639l5.949-5.899c2.464-2.443 6.46-2.443 8.924 0l4.792 4.752c2.555 2.534 6.698 2.534 9.254 0a6.45 6.45 0 0 0 0-9.175L66.338 12.725c-2.555-2.534-6.698-2.534-9.253 0L29.321 40.25c-5.11 5.067-13.397 5.067-18.508 0Z" clip-rule="evenodd"/></svg>