<svg xmlns="http://www.w3.org/2000/svg" fill="none" aria-hidden="true" viewBox="0 0 222 53"><path fill="#706D6E" d="M212.947 24.795v-3.586h-4.453v-5.575l-.15.046-4.182 1.28-.083.025v4.224h-6.601v-2.353c0-1.095.245-1.934.728-2.493.479-.553 1.165-.833 2.04-.833.629 0 1.28.148 1.935.44l.164.073v-3.776l-.077-.028c-.611-.22-1.443-.33-2.473-.33-1.299 0-2.479.282-3.508.842a5.991 5.991 0 0 0-2.407 2.38c-.566 1.017-.853 2.191-.853 3.491v2.587h-3.101v3.586h3.101V39.9h4.451V24.795h6.601v9.6c0 3.953 1.865 5.957 5.543 5.957a9.07 9.07 0 0 0 1.89-.21c.661-.142 1.111-.284 1.376-.436l.059-.035v-3.619l-.181.12a3.101 3.101 0 0 1-.895.39c-.354.1-.65.15-.879.15-.862 0-1.499-.232-1.895-.69-.4-.463-.603-1.271-.603-2.402v-8.825h4.453Zm-32.961 11.917c-1.615 0-2.889-.535-3.787-1.59-.903-1.061-1.36-2.573-1.36-4.494 0-1.983.457-3.534 1.361-4.613.898-1.072 2.16-1.617 3.75-1.617 1.543 0 2.772.52 3.652 1.546.884 1.031 1.333 2.57 1.333 4.575 0 2.03-.422 3.59-1.254 4.632-.827 1.035-2.07 1.561-3.695 1.561Zm.198-15.953c-3.082 0-5.53.903-7.275 2.684-1.745 1.782-2.629 4.247-2.629 7.328 0 2.927.863 5.28 2.566 6.996 1.703 1.715 4.02 2.585 6.888 2.585 2.987 0 5.387-.916 7.132-2.722 1.744-1.804 2.628-4.246 2.628-7.255 0-2.973-.829-5.344-2.466-7.048-1.637-1.704-3.94-2.568-6.844-2.568Zm-17.081 0c-2.097 0-3.831.536-5.156 1.593-1.333 1.064-2.009 2.46-2.009 4.147 0 .878.146 1.657.434 2.318a4.656 4.656 0 0 0 1.33 1.738c.589.486 1.499.995 2.705 1.513 1.014.417 1.77.77 2.25 1.049.47.272.803.546.991.813.183.261.276.618.276 1.06 0 1.255-.941 1.866-2.876 1.866-.717 0-1.536-.15-2.433-.445a9.143 9.143 0 0 1-2.492-1.264l-.185-.132V39.3l.068.032c.63.29 1.424.535 2.36.729.934.193 1.783.291 2.52.291 2.275 0 4.107-.539 5.444-1.603 1.346-1.07 2.027-2.499 2.027-4.245 0-1.26-.367-2.34-1.09-3.212-.719-.865-1.966-1.658-3.705-2.36-1.386-.555-2.274-1.017-2.64-1.372-.353-.342-.532-.826-.532-1.44 0-.543.221-.979.675-1.331.458-.355 1.095-.535 1.894-.535.742 0 1.501.117 2.255.347.754.23 1.417.537 1.97.913l.181.124v-4.065l-.069-.03c-.511-.219-1.183-.406-2-.558a12.257 12.257 0 0 0-2.193-.226Zm-18.769 15.953c-1.615 0-2.889-.535-3.786-1.59-.904-1.061-1.361-2.573-1.361-4.494 0-1.983.458-3.534 1.362-4.613.897-1.072 2.158-1.617 3.75-1.617 1.543 0 2.771.52 3.651 1.546.885 1.031 1.334 2.57 1.334 4.575 0 2.03-.423 3.59-1.255 4.632-.827 1.035-2.069 1.561-3.695 1.561Zm.199-15.953c-3.083 0-5.531.903-7.276 2.684-1.744 1.782-2.629 4.247-2.629 7.328 0 2.928.864 5.28 2.567 6.996 1.703 1.715 4.02 2.585 6.887 2.585 2.987 0 5.387-.916 7.132-2.722 1.744-1.804 2.629-4.246 2.629-7.255 0-2.973-.83-5.344-2.467-7.048-1.638-1.704-3.94-2.568-6.843-2.568Zm-16.662 3.687v-3.237h-4.397v18.692h4.397v-9.562c0-1.626.369-2.961 1.096-3.97.718-.997 1.675-1.502 2.844-1.502.396 0 .84.065 1.322.194.476.129.821.268 1.025.415l.185.134v-4.433l-.072-.03c-.409-.175-.988-.262-1.721-.262a4.507 4.507 0 0 0-2.941 1.054c-.743.614-1.281 1.456-1.691 2.507h-.047ZM115.6 20.759c-2.017 0-3.816.432-5.347 1.285a8.662 8.662 0 0 0-3.526 3.626c-.803 1.548-1.211 3.356-1.211 5.372 0 1.766.395 3.387 1.177 4.815a8.274 8.274 0 0 0 3.29 3.326c1.399.776 3.016 1.169 4.807 1.169 2.089 0 3.873-.418 5.304-1.242l.058-.033V35.05l-.185.135a8.27 8.27 0 0 1-2.151 1.12c-.777.271-1.486.408-2.107.408-1.725 0-3.11-.54-4.116-1.604-1.007-1.066-1.518-2.562-1.518-4.445 0-1.895.533-3.43 1.583-4.562 1.046-1.13 2.434-1.702 4.124-1.702 1.445 0 2.853.49 4.185 1.456l.185.133v-4.244l-.06-.033c-.501-.281-1.185-.513-2.034-.689a12.15 12.15 0 0 0-2.458-.263Zm-13.112.45h-4.397v18.692h4.397V21.209Zm-2.154-7.963a2.65 2.65 0 0 0-1.873.735 2.424 2.424 0 0 0-.785 1.833c0 .716.261 1.321.776 1.798.513.475 1.146.716 1.882.716s1.372-.241 1.89-.715a2.346 2.346 0 0 0 .787-1.799 2.47 2.47 0 0 0-.765-1.813c-.507-.5-1.15-.755-1.912-.755Zm-10.97 6.584V39.9h4.487V13.82h-6.21l-7.894 19.37-7.66-19.372h-6.464V39.9h4.217V19.829h.145l8.089 20.073h3.182l7.963-20.07h.145Z"/><path fill="#F1511B" d="M29.737 25.787H9.053V5.103h20.684v20.684Z"/><path fill="#80CC28" d="M52.575 25.787H31.89V5.103h20.684v20.684Z"/><path fill="#00ADEF" d="M29.737 48.632H9.053V27.95h20.684v20.683Z"/><path fill="#FBBC09" d="M52.575 48.632H31.89V27.95h20.684v20.683Z"/></svg>