<svg xmlns="http://www.w3.org/2000/svg" fill="none" aria-hidden="true" viewBox="0 0 211 56"><path fill="#28ABE1" fill-rule="evenodd" d="M190.357 47.897h-2.872c-.664 0-1.012.495-1.012 1.43 0 .885.345 1.38 1.012 1.38h11.034c.703 0 1.055-.495 1.055-1.38 0-.935-.352-1.43-1.055-1.43h-8.162Z" clip-rule="evenodd"/><path fill="#3DB3E3" fill-rule="evenodd" d="M173.528 47.897h-2.865c-.654 0-1.042.495-1.042 1.43 0 .885.388 1.38 1.042 1.38h11.024c.69 0 1.038-.495 1.038-1.38 0-.935-.348-1.43-1.038-1.43h-8.159Z" clip-rule="evenodd"/><path fill="#4AB8E6" fill-rule="evenodd" d="M157.595 47.897h-2.869c-.699 0-1.015.495-1.015 1.43 0 .885.316 1.38 1.015 1.38h11.032c.703 0 1.058-.495 1.058-1.38 0-.935-.355-1.43-1.058-1.43h-8.163Z" clip-rule="evenodd"/><path fill="#57BDE8" fill-rule="evenodd" d="M140.766 47.897h-2.852c-.704 0-1.055.495-1.055 1.43 0 .885.351 1.38 1.055 1.38h10.998c.703 0 1.051-.495 1.051-1.38 0-.935-.348-1.43-1.051-1.43h-8.146Z" clip-rule="evenodd"/><path fill="#63C2EB" fill-rule="evenodd" d="M123.921 47.897h-2.859c-.697 0-1.052.495-1.052 1.43 0 .885.355 1.38 1.052 1.38h11.001c.7 0 1.051-.495 1.051-1.38 0-.935-.351-1.43-1.051-1.43h-8.142Z" clip-rule="evenodd"/><path fill="#70C7EB" fill-rule="evenodd" d="M108.004 47.897h-2.852c-.703 0-1.055.495-1.055 1.43 0 .885.352 1.38 1.055 1.38h10.998c.703 0 1.051-.495 1.051-1.38 0-.935-.348-1.43-1.051-1.43h-8.146Z" clip-rule="evenodd"/><path fill="#7DCCEE" fill-rule="evenodd" d="M91.159 47.897h-2.856c-.7 0-1.052.495-1.052 1.43 0 .885.352 1.38 1.052 1.38h11.001c.733 0 1.052-.495 1.052-1.38 0-.935-.319-1.43-1.052-1.43H91.16Z" clip-rule="evenodd"/><path fill="#8AD1F0" fill-rule="evenodd" d="M74.307 47.897h-2.852c-.704 0-1.055.495-1.055 1.43 0 .885.351 1.38 1.055 1.38h11.034c.667 0 1.018-.495 1.018-1.38 0-.935-.351-1.43-1.018-1.43h-8.182Z" clip-rule="evenodd"/><path fill="#97D7F0" fill-rule="evenodd" d="M58.4 47.897h-2.866c-.697 0-1.045.495-1.045 1.43 0 .885.349 1.38 1.045 1.38h11.008c.697 0 1.051-.495 1.051-1.38 0-.935-.351-1.43-1.051-1.43H58.4Z" clip-rule="evenodd"/><path fill="#A3DCF3" fill-rule="evenodd" d="M41.522 47.897h-2.833c-.696 0-1.051.495-1.051 1.43 0 .885.351 1.38 1.051 1.38h11.005c.7 0 1.051-.495 1.051-1.38 0-.935-.351-1.43-1.051-1.43h-8.172Z" clip-rule="evenodd"/><path fill="#B0E1F5" fill-rule="evenodd" d="M24.692 47.897H21.84c-.703 0-1.048.495-1.048 1.43 0 .885.345 1.38 1.045 1.38h11.011c.697 0 1.045-.495 1.045-1.38 0-.935-.345-1.43-1.045-1.43h-8.156Z" clip-rule="evenodd"/><path fill="#BDE6F5" fill-rule="evenodd" d="M8.763 47.897H5.897c-.7 0-1.022.495-1.022 1.43 0 .885.322 1.38 1.022 1.38h11.038c.696 0 1.051-.495 1.051-1.38 0-.935-.355-1.43-1.051-1.43H8.763Z" clip-rule="evenodd"/><path fill="#E11735" fill-rule="evenodd" d="M4.875 13.875h2.999v4.116c1.028-1.536 2.09-2.62 3.184-3.323a8.952 8.952 0 0 1 4.743-1.403c1.117 0 2.185.222 3.214.67.994.45 1.84 1.051 2.46 1.824.63.733 1.191 1.814 1.659 3.194.995-1.851 2.245-3.264 3.708-4.252a8.764 8.764 0 0 1 4.809-1.436c1.622 0 3.025.408 4.242 1.24 1.217.832 2.123 1.99 2.746 3.486.594 1.473.872 3.708.872 6.646V37.6h-3.024V24.638c0-2.528-.19-4.282-.531-5.24a4.71 4.71 0 0 0-1.84-2.296c-.843-.587-1.875-.862-3.059-.862a6.666 6.666 0 0 0-3.963 1.31c-1.188.849-2.056 2.033-2.62 3.472-.531 1.473-.813 3.894-.813 7.29V37.6h-2.995V25.47c0-2.879-.152-4.822-.497-5.85a4.995 4.995 0 0 0-1.841-2.462 5.283 5.283 0 0 0-3.091-.922c-1.373 0-2.65.408-3.87 1.277-1.185.83-2.057 1.977-2.654 3.413-.56 1.44-.84 3.642-.84 6.614v10.059H4.876V13.875Zm52.44 2.431c-2.514 0-4.65.935-6.44 2.842-1.788 1.884-2.704 4.18-2.704 6.892 0 1.719.412 3.337 1.227 4.86.816 1.492 1.914 2.653 3.33 3.459 1.383.809 2.89 1.227 4.587 1.227a8.907 8.907 0 0 0 4.55-1.227 8.67 8.67 0 0 0 3.327-3.46c.82-1.522 1.23-3.14 1.23-4.859 0-2.716-.915-5.008-2.699-6.892-1.79-1.907-3.927-2.842-6.408-2.842Zm0-3.041c3.58 0 6.557 1.36 8.922 4.013 2.166 2.454 3.23 5.333 3.23 8.703 0 3.336-1.137 6.268-3.429 8.766-2.262 2.527-5.177 3.79-8.723 3.79-3.582 0-6.504-1.26-8.762-3.79a12.54 12.54 0 0 1-3.423-8.766c0-3.33 1.068-6.212 3.23-8.67 2.358-2.687 5.34-4.046 8.955-4.046Zm29.174 3.1c-1.705 0-3.24.419-4.654 1.251-1.432.862-2.527 2.023-3.372 3.572-.82 1.52-1.26 3.118-1.26 4.793 0 1.708.44 3.323 1.26 4.835.845 1.546 1.976 2.74 3.396 3.602 1.446.83 2.955 1.29 4.597 1.29 1.635 0 3.217-.457 4.69-1.29a9.114 9.114 0 0 0 3.402-3.442c.786-1.45 1.161-3.085 1.161-4.9 0-2.759-.875-5.077-2.68-6.914a8.673 8.673 0 0 0-6.54-2.796ZM98.482 4.838v33.09h-2.959v-4.116a13.46 13.46 0 0 1-4.222 3.533 11.576 11.576 0 0 1-5.16 1.194c-3.3 0-6.143-1.23-8.475-3.698-2.325-2.448-3.519-5.407-3.519-8.949 0-3.42 1.194-6.378 3.556-8.822 2.361-2.444 5.19-3.665 8.527-3.665 1.924 0 3.652.411 5.197 1.25 1.58.833 2.936 2.093 4.096 3.771V4.837h2.959Zm26.616 18.616c-.404-1.648-1.015-2.935-1.778-3.94a7.929 7.929 0 0 0-3.087-2.361 8.922 8.922 0 0 0-4-.916c-2.319 0-4.282.75-5.97 2.269-1.201 1.101-2.13 2.753-2.76 4.948h17.595Zm0 6.471 2.541 1.393a14.674 14.674 0 0 1-2.886 4.047 12.105 12.105 0 0 1-3.721 2.368c-1.36.51-2.925.806-4.673.806-3.838 0-6.856-1.3-9.022-3.848-2.162-2.587-3.24-5.479-3.24-8.71 0-3.074.892-5.79 2.74-8.152 2.338-3.044 5.465-4.563 9.372-4.563 4 0 7.208 1.555 9.619 4.653 1.715 2.202 2.57 4.928 2.607 8.225h-21.227c.076 2.786.925 5.081 2.633 6.86a8.345 8.345 0 0 0 6.262 2.689c1.218 0 2.352-.232 3.496-.653a9.189 9.189 0 0 0 2.896-1.685c.829-.7 1.681-1.838 2.603-3.43Zm8.017-16.05h3.15v3.473c.929-1.366 1.941-2.388 2.979-3.068 1.078-.663 2.146-1.014 3.277-1.014.879 0 1.791.295 2.762.796l-1.625 2.583a4.265 4.265 0 0 0-1.615-.408c-1.045 0-2.05.408-2.985 1.24-.985.83-1.698 2.143-2.209 3.898-.388 1.343-.584 4.096-.584 8.212V37.6h-3.15V13.875Zm15.916 0h2.886v4.246c1.147-1.625 2.461-2.842 3.847-3.638a9.08 9.08 0 0 1 4.6-1.217c1.695 0 3.184.444 4.494 1.346a8.216 8.216 0 0 1 2.893 3.635c.63 1.536.932 3.9.932 7.151v12.205h-2.886v-11.31c0-2.746-.123-4.577-.332-5.498-.338-1.566-.968-2.747-1.943-3.543-.945-.763-2.183-1.18-3.741-1.18-1.732 0-3.31.606-4.703 1.824-1.403 1.24-2.319 2.75-2.74 4.527-.269 1.184-.418 3.36-.418 6.457v8.717h-2.889V13.875Zm37.615 2.366a9.04 9.04 0 0 0-4.657 1.26 9.321 9.321 0 0 0-3.37 3.592c-.819 1.519-1.267 3.15-1.267 4.82 0 1.72.448 3.336 1.267 4.855.843 1.558 1.974 2.753 3.393 3.628 1.453.843 2.962 1.297 4.597 1.297 1.642 0 3.217-.454 4.693-1.294a9.084 9.084 0 0 0 3.406-3.466c.78-1.449 1.155-3.1 1.155-4.915 0-2.786-.876-5.114-2.64-6.962a8.799 8.799 0 0 0-6.577-2.819v.004Zm11.993-2.355V37.92h-2.962v-4.146c-1.26 1.592-2.68 2.76-4.222 3.569a11.58 11.58 0 0 1-5.161 1.194c-3.3 0-6.142-1.23-8.471-3.722-2.331-2.454-3.522-5.439-3.522-9.001 0-3.426 1.194-6.408 3.555-8.866 2.369-2.457 5.198-3.681 8.534-3.681 1.917 0 3.649.418 5.191 1.26 1.582.84 2.938 2.106 4.096 3.781v-4.43l2.962.006Zm5.124 2.056h.375c.199 0 .328 0 .388-.07a.238.238 0 0 0 .126-.218.354.354 0 0 0-.06-.166.345.345 0 0 0-.126-.126c-.066 0-.199-.024-.351-.024h-.352v.604Zm-.325 1.161v-2.036h.677c.255 0 .411 0 .537.036.093.07.199.13.259.232a.43.43 0 0 1 .092.282.536.536 0 0 1-.152.388.914.914 0 0 1-.455.2c.107.032.13.069.199.092.057.106.15.232.279.421l.259.385h-.412l-.165-.318c-.16-.256-.256-.418-.345-.488-.073-.023-.166-.06-.262-.06h-.186v.863l-.325.003Zm.803-2.643c-.273.002-.54.078-.773.219a1.292 1.292 0 0 0-.571.587c-.152.24-.229.52-.222.805a1.4 1.4 0 0 0 .222.773c.12.254.321.46.571.587a1.4 1.4 0 0 0 .773.223c.281.007.559-.07.796-.223.253-.125.456-.332.577-.587.131-.237.206-.502.219-.773a1.805 1.805 0 0 0-.219-.805 1.48 1.48 0 0 0-.577-.588 1.514 1.514 0 0 0-.796-.218Zm0-.262c.319.003.634.072.925.202.303.154.549.4.703.703.199.292.255.617.255.968 0 .332-.053.647-.218.94-.179.286-.419.53-.704.712a2.152 2.152 0 0 1-1.897 0 2.262 2.262 0 0 1-.696-.713 1.873 1.873 0 0 1-.226-.939c0-.351.06-.676.222-.968a2.1 2.1 0 0 1 .697-.703 2.62 2.62 0 0 1 .939-.2v-.002Z" clip-rule="evenodd"/></svg>