<svg xmlns="http://www.w3.org/2000/svg" fill="none" aria-hidden="true" viewBox="0 0 202 58"><path fill="#1795CE" d="M7.048 13.132c0-4.592 3.73-8.322 8.322-8.322h20.145v5.739H15.37a2.572 2.572 0 0 0-2.582 2.583v22.383h-5.74V13.132Zm33.805 25.252V16.001h5.739v22.383c0 4.592-3.73 8.322-8.322 8.322H18.125v-5.739H38.27a2.572 2.572 0 0 0 2.583-2.583Z"/><path fill="#1795CE" d="M18.125 35.4V18.87a2.842 2.842 0 0 1 2.87-2.869l2.87-.057v16.644a2.842 2.842 0 0 1-2.87 2.87l-2.87-.058Zm11.536-16.53V35.4l2.87.057a2.842 2.842 0 0 0 2.87-2.87V15.945L32.53 16a2.842 2.842 0 0 0-2.87 2.87Z"/><path fill="#000" d="M65.187 15.886c-4.247 0-7.347 1.837-7.347 3.903v15.61h5.108V19.847c0-.688 1.148-1.32 2.583-1.32 1.435 0 2.64.574 2.64 1.32V35.4h5.05V19.846c0-.746 1.148-1.32 2.583-1.32 1.435 0 2.583.574 2.583 1.32V35.4h5.05V19.846c0-2.066-3.5-3.96-7.69-3.96-2.009 0-3.845.574-5.28 1.206a12.553 12.553 0 0 0-5.28-1.206Zm67.781 29.386v1.32h3.156v1.779c-.287.23-.746.459-1.32.688a4.677 4.677 0 0 1-1.779.345c-.689 0-1.377-.115-2.009-.402-.631-.287-1.09-.746-1.435-1.32-.344-.574-.516-1.32-.516-2.181 0-.689.115-1.377.402-1.951.172-.345.401-.689.688-.976.287-.287.689-.517 1.148-.689a4.798 4.798 0 0 1 1.665-.287c.574 0 1.033.058 1.492.23.459.172.803.402 1.033.689.229.287.402.63.574 1.147l1.263-.344c-.173-.689-.46-1.205-.804-1.607-.402-.459-.861-.746-1.492-.976-.632-.23-1.378-.344-2.124-.344-1.033 0-2.009.172-2.812.574-.804.402-1.435 1.033-1.894 1.837a5.958 5.958 0 0 0-.631 2.64c0 .975.172 1.836.631 2.582.459.804 1.09 1.378 1.951 1.78a6.783 6.783 0 0 0 2.87.63c.804 0 1.55-.171 2.296-.4.746-.288 1.492-.632 2.181-1.149v-3.615h-4.534Zm6.714-2.067v7.002h1.378v-3.673c0-.516.057-.976.229-1.377.115-.23.287-.46.517-.632.229-.172.459-.23.746-.23.344 0 .631.058.976.23l.459-1.09a2.538 2.538 0 0 0-1.378-.402c-.344 0-.631.057-.86.23-.287.172-.574.459-.861.975v-1.033h-1.206Z"/><path fill="#000" fill-rule="evenodd" d="M144.504 46.706c0-1.32.401-2.238 1.205-2.87.689-.516 1.492-.803 2.468-.803 1.09 0 1.951.344 2.64.976.689.631 1.033 1.492 1.033 2.64 0 .918-.172 1.607-.459 2.123-.287.517-.746.919-1.32 1.206-.574.287-1.206.401-1.894.401-1.091 0-1.952-.286-2.64-.918-.689-.631-1.033-1.55-1.033-2.755Zm1.32 0c0 .919.229 1.55.631 2.009.459.46.976.689 1.664.689.632 0 1.206-.23 1.607-.689.46-.46.632-1.148.632-2.066 0-.861-.23-1.55-.632-1.952-.459-.459-.975-.688-1.607-.688-.631 0-1.205.23-1.664.688-.402.46-.631 1.091-.631 2.01Z" clip-rule="evenodd"/><path fill="#000" d="M158.68 49.174v1.09h1.205v-7.001h-1.32v3.788c0 .631-.115 1.09-.229 1.377-.173.287-.402.574-.747.746-.344.172-.688.287-1.09.287-.402 0-.689-.115-.976-.287a1.125 1.125 0 0 1-.516-.746c-.058-.23-.058-.631-.058-1.262v-3.903h-1.32v4.362c0 .459 0 .86.058 1.09.057.344.229.631.401.86.173.23.46.403.861.575.402.172.804.23 1.263.23 1.033 0 1.837-.402 2.468-1.206Z"/><path fill="#000" fill-rule="evenodd" d="M162.238 52.905v-9.7h1.205v.919c.287-.345.574-.632.976-.804a2.996 2.996 0 0 1 1.32-.287 3.55 3.55 0 0 1 1.779.46c.517.286.861.745 1.148 1.32.23.573.402 1.205.402 1.836 0 .746-.115 1.377-.402 1.951-.287.574-.688 1.033-1.262 1.32a3.51 3.51 0 0 1-1.722.46c-.459 0-.804-.058-1.205-.23a3.32 3.32 0 0 1-.861-.631v3.386h-1.378Zm1.148-6.141c0 .918.23 1.55.631 2.008.402.46.919.632 1.493.632.574 0 1.09-.23 1.492-.689.402-.46.631-1.148.631-2.066 0-.918-.229-1.55-.631-2.009-.402-.459-.918-.689-1.435-.689-.574 0-1.033.23-1.492.69-.459.516-.689 1.204-.689 2.123Zm10.675-6.256v9.642h3.96c.689 0 1.263-.057 1.722-.172.459-.115.861-.23 1.148-.46.344-.229.574-.516.803-.918a2.45 2.45 0 0 0 .345-1.262c0-.574-.173-1.09-.517-1.493-.344-.401-.861-.688-1.492-.86a2.268 2.268 0 0 0 1.148-.861c.287-.345.401-.747.401-1.148 0-.402-.114-.861-.401-1.263-.287-.402-.632-.746-1.148-.918-.459-.172-1.148-.287-1.952-.287h-4.017Zm3.73 4.075h-2.295v-2.927h2.123c.746 0 1.32 0 1.607.114.345.115.574.287.746.517.173.23.23.517.23.86 0 .345-.115.632-.287.862-.172.23-.459.344-.803.459-.23.057-.689.115-1.321.115Zm.345 4.476h-2.64v-3.328h2.468c.688 0 1.205.057 1.549.172.345.115.632.287.861.574.172.23.287.574.287.918 0 .287-.115.574-.229.803-.115.23-.287.402-.517.517-.23.172-.459.23-.803.287-.173.057-.517.057-.976.057Z" clip-rule="evenodd"/><path fill="#000" d="m187.433 50.207-4.132-9.7h1.55l2.812 7.06c.229.574.402 1.09.574 1.607.172-.516.344-1.033.574-1.607l2.869-7.06h1.435l-4.19 9.7h-1.492Zm-77.824-30.418c0-2.066 3.099-3.903 7.346-3.903 1.951 0 3.845.517 5.28 1.206 1.435-.632 3.272-1.206 5.28-1.206 4.19 0 7.691 1.894 7.691 3.96V35.4h-5.05V19.846c0-.746-1.148-1.32-2.583-1.32-1.435 0-2.583.574-2.583 1.32V35.4h-5.165V19.846c0-.746-1.205-1.32-2.64-1.32s-2.526.632-2.526 1.32V35.4h-4.993l-.057-15.611ZM93.481 39.991c.976.23 1.665.23 2.755.23 4.19 0 7.805-1.722 7.748-3.845V21.913h-4.993l-.058 11.249h-2.582c-1.722 0-2.698-.517-2.698-1.378v-9.871h-5.05v9.871c0 3.714 3.236 3.7 8.893 3.677.463-.002.943-.004 1.437-.004v.117c.005 1.005.01 2.122-2.697 2.122-.918 0-2.124-.115-2.755-.46v2.755Zm47.694-4.591V21.913h5.05V35.4h-5.05Zm2.525-15.21c-1.55 0-2.87-.688-2.87-1.434 0-.804 1.32-1.435 2.87-1.435 1.607 0 2.927.631 2.927 1.435 0 .803-1.378 1.435-2.927 1.435Zm15.611 15.21h2.411v-2.583h-2.411c-2.87 0-3.329-3.271-3.329-4.304 0-1.033.459-4.075 3.329-4.075h2.411v-2.583h-2.468c-6.486 0-8.322 4.075-8.322 6.658 0 2.525 2.066 6.887 8.379 6.887Zm6.715 0v-9.872c0-2.123 3.444-3.788 7.691-3.788 1.09 0 1.779 0 2.754.287v2.755c-.631-.344-1.836-.459-2.754-.459-1.435 0-2.64.517-2.64 1.263V35.4h-5.051Z"/><path fill="#000" fill-rule="evenodd" d="M177.964 28.455c0 2.583 2.008 7.174 8.551 7.174 6.371 0 8.379-4.648 8.437-7.116 0-2.698-2.009-6.715-8.609-6.715-6.543 0-8.379 4.075-8.379 6.657Zm4.993.115c0-1.09.459-4.42 3.443-4.42 3.1 0 3.501 3.158 3.501 4.305 0 1.033-.574 4.65-3.443 4.65-2.985 0-3.501-3.444-3.501-4.535Z" clip-rule="evenodd"/></svg>