<svg xmlns="http://www.w3.org/2000/svg" fill="none" aria-hidden="true" viewBox="0 0 182 64"><path fill="#000" d="M109.848 34.933s-.347-1.274-.347-2.217V17.96h5.911v28.421l-18.92-15.666c-1.013-.862-1.61-1.823-1.61-1.823s.298 1.059.298 1.977l-.006 14.87h-5.91V17.43l18.746 15.355c1.003.85 1.838 2.148 1.838 2.148Zm53.513-16.971c9.36 0 11.76 3.693 11.76 9 0 3.85-2.832 7.615-8.545 8.064l-.625.028s.551.1 1.129.656l10.37 10.03h-8.014l-14.474-14.697h7.209c6.454 0 6.64-3.402 6.688-4.263.12-2.203-.586-3.97-5.511-3.97h-8.24v22.93h-6.145V17.962h14.398Zm-45.292 14.286c0-11.638 9.743-14.693 17.93-14.693 3.278 0 6.183.292 9.234.939l.011 5.9c-1.758-.537-5.288-1.722-9.245-1.722-7.76 0-11.53 3.015-11.53 9.576 0 5.374 4.06 8.799 11.53 8.799 3.957 0 7.925-.943 9.842-1.652l-.01 5.725c-3.052.646-6.554 1.044-9.832 1.044-8.745 0-17.93-4.25-17.93-13.916Z"/><path fill="url(#a)" d="m51.567 18.676 5.764 5.43c-.155.068-.336.155-.55.263-.331.172-.73.405-1.208.734-.949.657-2.19 1.697-3.774 3.41L40.538 40.43c-1.933 2.04-3.895 3.657-5.72 4.51l-5.764-5.428c.157-.072.34-.156.548-.268.333-.167.732-.403 1.207-.733.949-.655 2.191-1.693 3.773-3.404l11.262-11.902c1.933-2.038 3.898-3.674 5.723-4.529Z"/><path fill="url(#b)" d="M29.257 47.493c2.55 0 4.89-.507 6.478-1.33a19.585 19.585 0 0 0 2.656-1.725c.888-.694 2.144-1.772 3.21-2.905l11.277-11.885c2.842-2.996 4.552-3.92 5.588-4.283l5.784 5.476c-1.207 1.292-15.6 16.622-15.6 16.622a53.23 53.23 0 0 1-2.72 2.726c-.673.624-1.83 1.549-2.426 1.987-3.385 2.481-7.908 4.492-13.998 4.492-13.795 0-24.956-11.23-24.956-24.162 0-16.044 12.534-25.35 23.952-25.35 3.497-.104 6.307.483 8.524 1.237 2.053.7 3.603 1.542 4.725 2.116-1.326.852-2.612 2.01-4.734 4.277l-2.31 2.483c-.534-.204-2.896-1.025-5.93-.935-7.323.216-15.335 6.156-15.046 15.894.269 9.108 7.777 15.265 15.526 15.265Z"/><path fill="url(#c)" d="M50.578 17.538a18.953 18.953 0 0 0-2.659 1.725 30.075 30.075 0 0 0-3.212 2.902L33.434 34.052c-2.844 2.995-4.554 3.918-5.59 4.282L22.06 32.86c1.209-1.292 15.601-16.622 15.601-16.622a55.672 55.672 0 0 1 2.719-2.728c.674-.622 1.831-1.547 2.428-1.986 3.382-2.48 7.911-4.491 14-4.491 13.797 0 24.952 11.229 24.952 24.159 0 16.046-12.532 25.35-23.951 25.35-3.497.106-6.307-.483-8.525-1.238-2.056-.7-3.61-1.545-4.733-2.119 1.404-.945 2.605-1.986 4.742-4.267l2.312-2.486c.533.202 2.895 1.025 5.928.937 7.323-.218 15.337-6.16 15.048-15.899-.271-9.105-7.783-15.262-15.53-15.262-2.551 0-4.885.505-6.474 1.331Z"/><defs><linearGradient id="a" x1="4.666" x2="81.908" y1="56.52" y2="7.313" gradientUnits="userSpaceOnUse"><stop stop-color="#2664AD"/><stop offset=".525" stop-color="#40A756"/><stop offset="1" stop-color="#2664AD"/></linearGradient><linearGradient id="b" x1="4.666" x2="81.908" y1="56.52" y2="7.313" gradientUnits="userSpaceOnUse"><stop stop-color="#2664AD"/><stop offset=".525" stop-color="#40A756"/><stop offset="1" stop-color="#2664AD"/></linearGradient><linearGradient id="c" x1="4.666" x2="81.908" y1="56.52" y2="7.313" gradientUnits="userSpaceOnUse"><stop stop-color="#2664AD"/><stop offset=".525" stop-color="#40A756"/><stop offset="1" stop-color="#2664AD"/></linearGradient></defs></svg>