<svg xmlns="http://www.w3.org/2000/svg" fill="none" aria-hidden="true" viewBox="0 0 125 94"><path fill="#000" d="M121.046 87.827c0 1.274-.935 2.13-2.043 2.13v-.008c-1.139.007-2.057-.848-2.057-2.121 0-1.274.918-2.127 2.057-2.127 1.108 0 2.043.853 2.043 2.126Zm.829 0c0-1.749-1.358-2.764-2.872-2.764-1.524 0-2.882 1.015-2.882 2.764 0 1.748 1.358 2.767 2.882 2.767 1.514 0 2.872-1.02 2.872-2.767Zm-3.348.234h.307l.713 1.251h.782l-.789-1.304c.407-.029.743-.223.743-.772 0-.682-.471-.901-1.267-.901h-1.153v2.977h.663l.001-1.251Zm0-.504v-.717h.461c.25 0 .592.02.592.326 0 .333-.177.39-.473.39h-.58Zm-15.993-14.962 3.581 9.796h-7.272l3.691-9.796Zm-3.835-3.814-8.252 20.907h5.827l1.305-3.694h9.766l1.235 3.695h6.326l-8.313-20.911-7.894.003ZM82.132 89.696h5.912V68.774l-5.913-.001.001 20.923Zm-41.04-20.923-4.933 16.582-4.725-16.58-6.379-.002 6.749 20.923h8.516l6.803-20.923h-6.031Zm23.896 4.556h2.54c3.687 0 6.071 1.655 6.071 5.95s-2.384 5.95-6.07 5.95h-2.541v-11.9Zm-5.862-4.556v20.923h9.584c5.106 0 6.774-.849 8.577-2.752 1.273-1.337 2.097-4.272 2.097-7.479 0-2.942-.697-5.565-1.913-7.198-2.19-2.922-5.344-3.494-10.052-3.494h-8.293Zm-56.001-.03v20.953h5.962V73.787l4.62.001c1.529 0 2.62.382 3.356 1.168.934.995 1.315 2.602 1.315 5.54v9.2h5.777V78.12c0-8.262-5.266-9.376-10.418-9.376H3.125Zm46.486.03.002 20.923h5.91V68.773H49.61Z"/><path fill="#77B900" d="M19.013 27.112s7.603-11.218 22.785-12.379v-4.07C24.982 12.013 10.42 26.256 10.42 26.256s8.248 23.842 31.378 26.025v-4.326C24.824 45.82 19.013 27.112 19.013 27.112Zm22.785 12.24v3.962c-12.829-2.288-16.39-15.623-16.39-15.623s6.16-6.823 16.39-7.93v4.348c-.008 0-.013-.003-.02-.003-5.369-.644-9.563 4.372-9.563 4.372s2.35 8.443 9.583 10.873Zm0-36.196v7.507c.494-.038.987-.07 1.484-.087 19.117-.644 31.574 15.68 31.574 15.68S60.549 43.653 45.644 43.653c-1.366 0-2.645-.127-3.846-.34v4.642a25.22 25.22 0 0 0 3.203.207c13.87 0 23.901-7.084 33.614-15.468 1.61 1.29 8.203 4.428 9.558 5.8-9.235 7.733-30.757 13.965-42.96 13.965-1.175 0-2.305-.071-3.415-.178v6.523h52.72V3.156h-52.72Zm0 16.605v-5.027c.488-.034.98-.06 1.484-.077 13.747-.431 22.766 11.814 22.766 11.814s-9.741 13.53-20.186 13.53c-1.504 0-2.851-.242-4.064-.65V24.108c5.352.647 6.429 3.011 9.646 8.375l7.157-6.034s-5.224-6.851-14.03-6.851c-.958 0-1.874.067-2.773.163"/></svg>