<svg xmlns="http://www.w3.org/2000/svg" fill="none" aria-hidden="true" viewBox="0 0 156 75"><g fill="#BC242A"><path d="M59.422 11.363c.983 0 2.129.165 3.392.426l.516-5.771a30.216 30.216 0 0 0-4.787-.368c-8.148 0-11.76 3.124-11.76 9.31v1.972h-5.299v5.475h5.3v12.506c-1.687.152-3.472.36-4.95.592v4.614h18.458v-4.614a79.705 79.705 0 0 0-4.92-.592V22.407h5.949v-5.475h-5.95v-2.064c0-2.474 1.476-3.505 4.051-3.505Z"/><path fill-rule="evenodd" d="M3.9 24.748c0 9.892 5.765 15.98 17.586 15.98 10.587 0 18.952-6.49 18.953-16.83 0-11.057-7.524-15.857-17.602-15.857C12.45 8.04 3.9 14.519 3.9 24.748Zm9.356-.567c0-6.616 4.303-9.524 8.907-9.524 5.847 0 8.921 3.338 8.922 9.66 0 7.189-4.921 9.75-9.06 9.75-6.067 0-8.769-3.857-8.769-9.886Z" clip-rule="evenodd"/><path d="M84.605 11.789c-1.31-.26-2.47-.426-3.42-.426-2.602 0-4.06 1.03-4.06 3.505v2.064h5.889v5.475h-5.89v12.506c1.668.152 3.441.36 4.923.592v4.614H63.623v-4.614a78.164 78.164 0 0 1 4.917-.592V22.407h-5.31v-5.475h5.307V14.96c0-6.186 3.636-9.31 11.76-9.31a30.1 30.1 0 0 1 4.79.368l-.483 5.77Zm.433 23.716v4.612h18.048v-4.613c-1.296-.233-2.963-.44-4.531-.592V16.915a104.55 104.55 0 0 0-13.517.42V21.9c1.634.055 3.577.254 4.886.431v12.581c-1.665.152-3.4.36-4.886.592Zm3.966-25.185c0 2.33 2.376 4.199 5.248 4.199 2.91 0 5.273-1.907 5.273-4.199 0-2.357-2.363-4.196-5.273-4.196-2.872 0-5.248 1.84-5.248 4.196Zm27.8 30.258c-9.045 0-13.985-3.814-13.985-11.32 0-6.992 4.477-12.78 15.212-12.78 2.108 0 4.434.277 6.445.751v7.944h-5.536a45.229 45.229 0 0 1-.343-1.683c-.06-.318-.118-.626-.18-.922-.416-.153-.99-.163-1.539-.163-2.987 0-5.126 2.19-5.126 6 0 3.963 1.942 6.03 6.973 6.03 1.762 0 3.74-.325 5.384-.926l.585 6.15c-2.561.596-4.893.919-7.89.919Z"/><path fill-rule="evenodd" d="M135.109 30.271h16.744c.164-1.122.25-2.12.247-3.095 0-6.097-3.721-10.808-12.2-10.808-8.684 0-13.501 5.283-13.501 12.403 0 8.127 5.071 11.887 14.323 11.887 3.447 0 7.229-.541 10.388-1.608l-.781-5.38c-2.613.97-5.489 1.457-8.268 1.457-4.64 0-6.872-1.749-6.952-4.856Zm.08-4.72c.208-2.39 2.01-3.986 4.488-3.986 2.496 0 4.078 1.402 3.983 3.986h-8.471ZM22.643 68.18c-2.09 0-4.993-.083-7.142-.145h-.004c-1.26-.036-2.258-.065-2.68-.065h-4.06v-4.163a26.554 26.554 0 0 1 4.06-.477V48.835a35.105 35.105 0 0 1-4.06-.365v-4.284h3.831c1.097 0 2.521-.02 4.145-.043h.002c2.157-.03 4.667-.066 7.236-.066 9.11 0 15.473 2.851 15.473 11.457 0 8.09-6.692 12.646-16.801 12.646Zm.878-18.573c-1.002 0-1.512 0-2.147.095v12.711c.35.065.96.078 1.972.078 3.816 0 6.856-2.012 6.856-6.467.001-3.69-.969-6.417-6.681-6.417Z" clip-rule="evenodd"/><path d="M39.212 63.807v4.163h22.965v-6.666h-6.773c-.054.268-.094.451-.131.623-.052.236-.099.45-.17.828h-3.31V58.13h2.782l.026.105c.083.334.116.465.279.819h5.66v-6.456h-5.66a4.48 4.48 0 0 0-.305.973h-2.782v-4.2h3.29c.095.493.143.726.303 1.32h6.65v-6.505H39.212v4.284c1.183.174 2.616.328 4.01.365V63.33a25.999 25.999 0 0 0-4.01.477Z"/><path fill-rule="evenodd" d="M78.436 60.673c-.19 0-.714 0-1.316-.023v2.68c1.401.056 2.815.236 4.038.477v4.163H64.564v-4.163a26.652 26.652 0 0 1 3.987-.477V48.835c-1.365-.037-2.773-.194-3.987-.365v-4.284h3.933c.588 0 1.667-.025 2.967-.054 1.968-.046 4.44-.102 6.48-.102 8.346 0 12.858 2.753 12.858 7.95-.001 4.595-4 8.693-12.366 8.693Zm-.432-11.302c-.114 0-.484 0-.884.053v6.452c.377.077.556.077.719.077 2.332 0 4.439-1.188 4.439-3.43 0-1.682-1.133-3.152-4.274-3.152Zm13.989 7.064c0 7.525 4.803 12.015 14.553 12.015 8.863 0 15.82-5.018 15.82-12.776 0-8.614-6.454-11.96-14.541-11.96-8.753 0-15.832 5.07-15.832 12.721Zm9.134-.483c0-4.505 3.051-6.236 6.015-6.236 4.106 0 6.089 2.132 6.089 6.308 0 5.062-3.57 6.451-6.258 6.451-4.12 0-5.846-2.456-5.846-6.523Z" clip-rule="evenodd"/><path d="M143.916 52.06a48.44 48.44 0 0 0-.09-.438c-.131-.632-.268-1.292-.338-1.99h-2.411v13.701c1.382.056 2.803.236 3.989.477v4.163h-16.565V63.81a26.16 26.16 0 0 1 4.031-.477V49.631h-2.441c-.052.688-.197 1.337-.336 1.96-.035.158-.07.314-.103.469h-6.555v-7.874h27.386v7.874h-6.567Z"/><path fill-rule="evenodd" d="M147.65 66.996h.303v-.854h.188c.243 0 .387.117.433.365l.012.092c.028.2.049.35.091.397h.325a5.181 5.181 0 0 1-.131-.468c-.029-.295-.135-.469-.286-.469v-.037c.196-.056.354-.19.354-.457 0-.191-.066-.328-.158-.401-.125-.102-.321-.165-.592-.165-.195 0-.326.017-.46.034l-.079.01v1.953Zm.513-1.055h-.207v-.68l.207-.002c.339 0 .468.162.468.34 0 .233-.198.342-.468.342Z" clip-rule="evenodd"/><path fill-rule="evenodd" d="M149.917 65.986c0-.963-.699-1.758-1.657-1.758h-.014c-.914 0-1.683.795-1.683 1.758 0 1.01.769 1.749 1.683 1.749.972 0 1.671-.74 1.671-1.75Zm-3.01 0c0-.822.622-1.473 1.339-1.473h.013c.772 0 1.358.65 1.358 1.49 0 .786-.583 1.47-1.358 1.47-.73 0-1.352-.684-1.352-1.487Z" clip-rule="evenodd"/></g></svg>