<svg xmlns="http://www.w3.org/2000/svg" fill="none" aria-hidden="true" viewBox="0 0 182 64"><path fill="#5C007B" d="M37.429 8c4.923 2.192 9.285 5.566 9.458 5.7l.005.004c-.695-2.749-1.198-4.22-1.198-4.22 1.546.841 3.393 1.924 5.21 3.055l.404.252c2.885 1.81 5.631 3.705 6.903 4.898a8.478 8.478 0 0 0 2.858-.633c1.08-.452 1.988.659 2.332 1.789.341 1.124.753 2.86.771 4.741.022 2.099-.444 3.912-1.384 5.39-1.779 2.797-5.234 4.693-8.964 6.637l-.415.217-.209.108c-4.136 2.15-7.587 4.334-10.285 8.348a25.269 25.269 0 0 0-3.203 6.786c-.769 2.556-1.377 4.627-3.106 4.627-1.564 0-2.498-2.015-3.203-3.154-1.358-2.189-3.046-4.912-5.779-5.142-2.427-.36-4.42.54-5.86 1.726a9.83 9.83 0 0 0-1.752 1.894c-.405.484-.786.98-1.157 1.463-1.132 1.477-2.11 2.752-3.403 3.122-.211.06-.419.091-.618.091-.142 0-.302-.016-.47-.06l-.085-.025-.004.005c-4.073-1.193-4.283-8.642-4.283-8.642-1.958.466-3.98 1.754-3.98 1.754 1.823-6.247 5.318-10.33 5.318-10.33-.762-.06-1.62-.044-2.464.01l-.24.016c-2.12.152-4.076.526-4.076.526 5.442-7.004 9.114-9.57 9.114-9.57-2.883-1.26-6.566-1.903-6.566-1.903 6.63-3.828 13.207-5.701 13.207-5.701-1.433-1.353-6.59-3.171-6.59-3.171a41.08 41.08 0 0 1 3.409-.794l.335-.065.674-.124.339-.06c.184-.033.367-.064.55-.095l.276-.046.137-.023.273-.044c3.502-.566 6.684-.889 6.684-.889-1.714-1.444-5.593-3.017-5.593-3.017 2.184-.075 4.137-.102 5.784-.104h.455c3.226.005 5.156.104 5.156.104-1.205-1.656-4.31-3.823-4.31-3.823 6.466.609 11.075 2.213 11.075 2.213-.049-.393-.324-1.128-.628-1.852l-.08-.188c-.401-.937-.822-1.8-.822-1.8ZM27.024 48.725a52.073 52.073 0 0 1-.735 1.859l-.098.233c-.843 1.985-1.83 3.9-2.889 4.067a1.33 1.33 0 0 1-.205.017c-.84 0-1.593-.776-2.298-2.368 1.239-1.746 3.696-3.78 6.225-3.808Zm19.636-6.24c-.694 2.599-.786 5.21-.86 7.306v.002c-.048 1.356-.09 2.526-.283 3.378-.259 1.142-.827 1.72-1.688 1.72h-.03c-.83-.013-1.713-.725-2.681-2.168.57-3.267 2.827-7.44 5.541-10.238Zm38.567-25.512c2.767 0 5.472 1.218 7.286 3.187 1.81 1.966 2.931 4.682 2.931 7.68 0 2.997-1.12 5.712-2.931 7.678-1.814 1.969-4.52 3.187-7.286 3.187-2.027 0-4.153-.627-5.635-2.026l.005 6.665c.004 5.605-4.371 4.755-5.384 4.698-.345-.02-.614-.093-.801-.277-.187-.185-.282-.45-.282-.79l-.013-28.888c0-.347.096-.62.289-.81.192-.19.469-.285.823-.285h3.805c.354 0 .63.095.823.285.193.19.285.46.29.81l.014 1.105a9.805 9.805 0 0 1 2.802-1.627 9.326 9.326 0 0 1 3.264-.592Zm75.111-.028c.289 0 .534.078.723.224.188.146.327.369.443.644l5.435 12.71 3.898-12.675a1.19 1.19 0 0 1 .43-.664c.195-.15.444-.239.736-.239h4.497c.382 0 .653.111.813.313.159.21.18.503.062.894l-6.048 18.982-2.334 7.366-.892 2.831c-.099.315-.261.536-.483.66l-.064.032c-.242.098-.5.084-.803.01-.98-.242-5.526-.753-3.707-6.062l1.078-3.15-.245-.611-1.181-2.809-7.403-17.198c-.162-.357-.104-.682.042-.903.151-.231.417-.348.791-.355h4.212ZM18.563 34.653l-5.07 7.631 4.778-4.368.292-3.263Zm113.403-17.678a.743.743 0 0 1 .538.223c.195.199.288.469.288.817v5.032c0 .341-.071.597-.223.768-.145.17-.361.256-.642.256a6.089 6.089 0 0 0-1.769.191 4.232 4.232 0 0 0-1.523.754c-.447.355-.806.833-1.068 1.414-.265.59-.4 1.308-.403 2.161l-.03 5.366c-.031 5.605-4.371 4.756-5.384 4.698-.345-.02-.614-.092-.801-.277-.188-.185-.282-.448-.282-.789V18.057c0-.34.094-.604.282-.789.188-.184.455-.277.801-.277h4.33c.347 0 .614.093.801.277.189.185.283.448.283.79v1.072c.52-.908 1.706-2.197 4.802-2.155Zm12.911-.03c4.891 0 8.987 2.963 10.284 7.245.251.7-.167 1.153-.878 1.153h-4.598c-.544 0-.921-.247-1.255-.7-.752-1.03-2.048-1.606-3.553-1.606-2.718 0-4.808 1.935-4.808 4.776 0 2.84 2.09 4.775 4.808 4.775 1.505 0 2.801-.576 3.553-1.564.334-.494.668-.741 1.255-.741h4.598c.711 0 1.129.453.878 1.153-1.297 4.281-5.393 7.246-10.284 7.246-6.355 0-11.079-4.735-11.079-10.87 0-6.134 4.724-10.868 11.079-10.868Zm-36.475.01c1.528.006 2.931.28 4.209.82 1.278.54 2.382 1.3 3.327 2.27a10.36 10.36 0 0 1 2.181 3.434c.514 1.314.778 2.75.785 4.31 0 .267-.007.526-.028.773-.014.253-.035.5-.055.745-.042.329-.167.568-.361.718-.195.151-.452.226-.765.226h-13.919c.263.807.632 1.464 1.118 1.97.486.5 1.056.862 1.694 1.095a6.052 6.052 0 0 0 2.064.341 5.463 5.463 0 0 0 1.702-.28 4.45 4.45 0 0 0 1.382-.746 3.19 3.19 0 0 1 .597-.39c.202-.095.431-.143.694-.143l4.002-.04c.382.006.659.115.826.327.16.212.167.486.007.821-.548 1.19-1.278 2.189-2.188 2.99a9.207 9.207 0 0 1-3.168 1.819c-1.201.403-2.513.608-3.938.608-1.736-.007-3.299-.287-4.688-.834-1.396-.547-2.584-1.306-3.57-2.292a10.043 10.043 0 0 1-2.279-3.433c-.527-1.314-.792-2.736-.799-4.275.007-1.54.279-2.962.82-4.275a10.31 10.31 0 0 1 2.299-3.434c.987-.985 2.168-1.744 3.529-2.291 1.361-.548 2.868-.828 4.522-.835Zm-75.318 11.85L21.6 34.291l9.571-2.342 1.913-3.143ZM22.811 27.48l-9.096 6.523 7.41-3.262 1.686-3.261Zm62.336-4.486c-2.668 0-4.83 2.143-4.83 4.787s2.162 4.787 4.83 4.787c2.667 0 4.829-2.143 4.829-4.787s-2.162-4.787-4.829-4.787Zm-41.761 2.573-10.202 1.098 7.458.437 2.744-1.535Zm64.974-3.154c-1.174.006-2.16.273-2.938.814-.785.533-1.341 1.32-1.667 2.346h8.925c-.222-.773-.555-1.396-1-1.86a3.902 3.902 0 0 0-1.528-1 5.137 5.137 0 0 0-1.792-.3Zm-76.166.16L21.993 23.67l7.496.714 2.705-1.812Zm14.37-1.279-7.605 1.613 5.917-.334 1.688-1.279Zm-17.28-2.686 7.909 2.023 3.449-1.145-11.358-.878Zm8.145-3.9 6.4 2.981 3.063-.633-9.463-2.348Z"/></svg>