<svg xmlns="http://www.w3.org/2000/svg" fill="none" aria-hidden="true" viewBox="0 0 241 49"><path fill="#B8232F" fill-rule="evenodd" d="M6.342 41.012h36.996V4.017H6.342v36.995Z" clip-rule="evenodd"/><path fill="#263746" fill-rule="evenodd" d="m195.112 15.079 3.099-.519v21.12h-3.099v-20.6Zm12.154 2.385v13.317c0 2.283.575 3.072 2.45 3.072.843 0 .621.01 1.158-.282l.422 2.075c-.959.537-1.313.693-2.653.693-.995 0-1.759-.205-2.488-.579-1.338-.705-1.836-2.032-1.836-4.108V17.464h-2.489v-2.447h2.489v-7.83h3.064v7.83h4.785l-.918 2.447h-3.984Zm24.545 17.596c-1.19 0-2.152-1.021-2.152-2.433 0-1.413.962-2.433 2.152-2.433 1.191 0 2.154 1.02 2.154 2.433 0 1.412-.963 2.432-2.154 2.432Zm0-5.453c-1.567 0-2.846 1.356-2.846 3.02 0 1.662 1.279 3.017 2.846 3.017 1.57 0 2.847-1.355 2.847-3.017 0-1.664-1.277-3.02-2.847-3.02Zm-.495 2.76v-.978h.534c.309 0 .656.065.656.467 0 .46-.307.512-.662.512h-.528Zm1.79-.459c0-.72-.419-1.004-1.193-1.004h-1.197v3.422h.6v-1.474h.361l.836 1.474h.615l-.866-1.498c.528-.052.844-.336.844-.92Zm-2.579-16.891-6.546 21.405c-1.301 4.152-2.834 6.89-6.163 7.761l-.881-2.199c1.864-.632 2.841-1.553 3.655-3.8-.306-1.631-.479-2.34-.479-2.34-.228-1.328-1.263-5.354-1.913-7.427l-4.099-12.943 2.951-1.082 3.906 13.401c.572 1.953 1.146 5.145 1.146 5.145h.078s.726-2.654 1.187-4.354l3.75-13.567h3.408Zm-92.195 15.391s-.346.872-1.149 1.495c-1.227.952-2.108 1.327-3.674 1.327-1.762 0-2.95-.705-3.829-2.407-.614-1.202-.766-2.987-.766-5.394 0-2.904.304-4.396 1.224-5.973.805-1.41 2.067-2.157 3.563-2.157 2.255 0 3.675.707 4.631 2.157v10.952Zm3.024-23.22h-2.987v6.877c0 1.49.038 3.193.038 3.193-1.146-1.66-3.025-2.613-5.166-2.613-1.38 0-2.451.372-3.677 1.285-2.603 1.948-3.942 5.185-3.942 9.582 0 6.595 2.833 10.454 7.769 10.454 2.221 0 3.678-.703 5.054-2.403.038 1.075.422 2.116.422 2.116h3.063c-.423-1.206-.574-3.114-.574-6.679V7.188Zm45.58 7.87h4.924l-.917 2.448h-4.122v13.317c0 2.283.573 3.073 2.449 3.073.844 0 .621.01 1.159-.283l.422 2.076c-.96.537-1.313.693-2.654.693-.994 0-1.759-.206-2.488-.579-1.338-.705-1.837-2.033-1.837-4.109V17.506h-2.487v-2.447h2.487V7.23h3.064v7.828Zm-8.691 2.53c.306.748.46 1.576.46 2.408V35.68h-3.026V21.696c0-2.2-.153-2.737-.689-3.444-.42-.538-1.226-.871-2.105-.871-1.534 0-3.904 1.33-5.283 2.905V35.68h-2.909V19.748c0-2.947-.726-4.357-.726-4.357l2.907-.873s.692 1.533.692 3.237c1.987-2.157 3.976-3.195 6.008-3.195 2.067 0 3.906 1.205 4.671 3.029Zm-29.564 5.85c.151-4.275 1.683-6.43 4.4-6.43 1.457 0 2.795.706 3.445 1.825.575.995.843 2.365.881 4.604h-8.726Zm4.553-8.962c-2.298 0-4.172.915-5.704 2.863-1.607 2.078-2.294 4.316-2.294 7.801 0 6.847 3.174 10.994 8.458 10.994 2.451 0 4.749-.912 6.431-2.571l-1.15-2.078c-1.338 1.33-2.83 1.95-4.669 1.95-1.915 0-3.676-.745-4.747-2.53-.651-1.075-.878-2.57-.878-4.52v-.5h11.902v-.456c-.074-4.934-.536-6.885-2.178-8.713-1.304-1.45-3.104-2.24-5.171-2.24Zm-34.848 21.203h3.063V7.217h-3.063V35.68Zm-3.215-21.588 2.158 3.471c-1.12 1.102-2.197 1.552-3.623 1.552-.502 0-1.043-.08-1.352-.12.771.976 1.16 2.039 1.16 3.427 0 3.592-3.086 6.207-7.289 6.207-.232 0-.386 0-.771-.041-1.309.654-2.042 1.144-2.042 1.714 0 .286.307.491.848.491l2.777.041c3.005.04 4.585.53 5.975 1.879 1.155 1.142 1.697 2.571 1.697 4.45 0 1.756-.503 3.103-1.584 4.327-1.733 1.961-4.704 2.694-7.787 2.694-2.812 0-5.705-.489-7.477-2.245-1.08-1.06-1.619-2.288-1.619-3.714 0-1.143.268-1.717.462-2.124h4.781c-.194.49-.234.774-.234 1.345 0 1.676 1.314 2.572 3.704 2.572 1.31 0 2.429-.16 3.237-.693.771-.49 1.271-1.264 1.271-2.122 0-1.877-1.579-2.45-3.624-2.49l-2.197-.042c-2.312-.042-3.814-.244-4.741-.654-.927-.366-1.503-1.304-1.503-2.734 0-1.346.384-2.614 3.623-3.51-2.853-.777-4.24-2.697-4.24-5.798 0-4.288 3.278-7.064 8.326-7.064 1.118 0 2.12.163 3.548.53 1.077.284 1.773.45 2.428.45 1.426 0 2.892-.654 4.088-1.799Zm-32.774.655c.464.859.733 1.755.733 2.612.77-.572 1.427-1.062 2.276-1.551 1.04-.57 2.39-.897 3.545-.897 2.199 0 4.126 1.223 4.742 3.022.27.775.386 1.672.386 2.979v15.27h-5.09V22.586c0-2.367-.384-3.06-1.734-3.06-1.039 0-2.388.735-3.583 1.875v14.782h-5.168v-15.15c0-1.796-.232-3.51-.693-4.899l4.586-1.386Zm-8.097.038v21.398h-5.164v-20.54l5.164-.857ZM55.677 7.805c4.548 0 5.937.489 7.442 1.388 2.503 1.47 3.851 4.082 3.851 7.35 0 3.756-1.694 6.777-4.623 8.247-1.234.612-2.392.94-5.36.94H54.02v10.452h-5.397V7.805h7.054Zm49.391 11.105c-1.965 0-3.084 1.145-3.084 3.104 0 2.123 1.234 2.98 3.046 2.98 2.044 0 3.162-1.061 3.162-2.98 0-1.959-1.155-3.104-3.124-3.104Zm-47.62-6.493H54.02v8.657h2.814c2.197 0 2.853-.286 3.583-1.47.466-.773.656-1.591.656-2.94 0-2.654-1.348-4.247-3.624-4.247Zm14.346-6.286c1.735 0 3.124 1.51 3.124 3.388s-1.428 3.39-3.201 3.39c-1.734 0-3.16-1.512-3.16-3.39 0-1.877 1.465-3.388 3.237-3.388Z" clip-rule="evenodd"/></svg>