<svg xmlns="http://www.w3.org/2000/svg" fill="none" aria-hidden="true" viewBox="0 0 145 80"><g id="Power to Decide"><g id="Group"><path id="Fill-1" fill="#250E62" fill-rule="evenodd" d="M75.9462 59.5794L76.6664 55.941H65.0298V73.2846H75.9278L76.648 69.6469H69.2936V66.3724H75.2308L75.9503 62.7333H69.2936V59.5794H75.9462ZM87.14 69.6953C83.9234 69.6953 82.2173 67.051 82.2173 64.4796C82.2173 61.9818 83.8008 59.531 87.14 59.531C89.552 59.531 91.5013 61.3018 91.5013 61.3018L93.4752 58.0995C93.4752 58.0995 91.2574 55.6508 86.9445 55.6508C81.7056 55.6508 77.807 59.531 77.807 64.5764C77.807 69.7198 81.4862 73.5762 86.9445 73.5762C91.5013 73.5762 93.9623 70.6655 93.9623 70.6655L91.7691 67.56C91.7691 67.56 89.7714 69.6953 87.14 69.6953ZM95.3264 73.2846H99.5909V55.941H95.3264V73.2846ZM124.195 66.3724H130.132L130.852 62.7333H124.195V59.5794H130.848L131.567 55.941H119.93V73.2846H130.828L131.549 69.6469H124.195V66.3724ZM108.987 69.6469H107.233V59.5794H108.987C111.862 59.5794 113.738 61.2773 113.738 64.5764C113.738 67.9006 111.935 69.6469 108.987 69.6469ZM109.157 55.941H102.968V73.2846H109.157C114.64 73.2846 118.149 70.0346 118.149 64.5764C118.149 59.1188 114.64 55.941 109.157 55.941ZM54.0853 69.6469H52.3309V59.5794H54.0853C56.9606 59.5794 58.837 61.2773 58.837 64.5764C58.837 67.9006 57.0342 69.6469 54.0853 69.6469ZM54.2557 55.941H48.0663V73.2846H54.2557C59.7391 73.2846 63.2474 70.0346 63.2474 64.5764C63.2474 59.1188 59.7391 55.941 54.2557 55.941ZM12.6167 63.1769H16.6687V73.2805H20.908V63.1769H24.5988L25.319 58.9573H13.3369L12.6167 63.1769ZM32.9827 69.7675C31.1111 69.7675 29.606 68.165 29.606 66.0406C29.606 64.0027 31.1111 62.469 32.9827 62.469C34.8551 62.469 36.3595 64.0027 36.3595 66.0406C36.3595 68.165 34.8551 69.7675 32.9827 69.7675ZM32.9827 58.7168C28.6365 58.7168 25.4573 61.9218 25.4573 66.0283C25.4573 70.2356 28.6365 73.5204 32.9827 73.5204C37.3304 73.5204 40.5096 70.2356 40.5096 66.0283C40.5096 61.9218 37.3304 58.7168 32.9827 58.7168Z" clip-rule="evenodd"/><path id="Fill-3" fill="#A20067" fill-rule="evenodd" d="M31.8721 22.9232C31.4402 23.1773 31.1431 23.3695 30.9844 23.4982L30.5033 24.2688C30.4386 24.3315 30.0863 24.6054 29.4452 25.0824C28.8497 25.6002 28.289 26.2202 27.5715 26.5725C27.9081 27.0256 25.1684 28.6696 24.6867 29.0253C24.2942 29.2645 23.7682 29.3149 23.4371 29.6508C23.0263 29.3203 23.5332 28.6431 23.5332 28.2547C23.6177 27.9147 23.8636 27.6347 23.3417 27.4882C23.4548 27.2586 23.5965 26.9956 23.4889 26.736C23.9761 25.5171 24.4067 24.2232 24.6881 23.3279C24.9034 23.0704 24.9293 22.6983 24.9776 22.3808C25.0458 22.1512 25.1146 21.9216 25.1854 21.6927C25.3183 21.4828 25.4934 21.2941 25.7448 21.1435C26.0392 20.8492 26.341 20.7272 26.5134 20.3259C25.4982 20.3259 26.9406 18.9803 27.1375 18.7888C27.2744 18.4161 27.6185 17.8431 27.6185 17.4431L27.5715 16.9621C27.4189 16.9621 27.3065 16.8967 27.2145 16.7965C27.3289 16.5117 27.4271 16.2467 27.5013 16.0116C27.5443 15.9565 27.5613 15.9019 27.5477 15.8488C27.6253 15.5797 27.6969 15.3092 27.763 15.038C27.7493 15.0435 27.7439 15.0482 27.7309 15.0544C27.765 14.8309 27.778 14.6428 27.7759 14.4882C28.2304 14.127 28.7904 13.7271 29.4336 13.3476C29.7709 13.5438 30.2001 13.088 30.4073 12.8747C31.0886 12.6056 31.8299 12.7494 32.5215 12.5382C33.8446 11.9352 35.4042 12.1934 36.7976 12.1484C37.2091 12.2745 37.6227 12.44 38.039 12.6492C38.1071 14.5706 36.5543 17.0466 35.4063 18.5462C34.404 19.5485 33.7418 21.0849 32.8581 22.1996C32.6332 22.4265 32.3048 22.665 31.8721 22.9232ZM29.7457 31.3507C29.7423 31.3507 29.7368 31.3514 29.7334 31.3521C29.7375 31.3514 29.7416 31.3507 29.7464 31.3501L29.7457 31.3507ZM20.9386 26.5779C20.2811 27.0167 20.4596 28.0128 19.8301 28.5286C19.8301 28.1518 19.8403 27.7267 20.0965 27.4201C20.4215 27.0951 20.5836 26.7115 20.5836 26.2679C20.5264 25.8039 20.8337 25.4571 21.0272 25.0708C21.1103 25.3277 21.051 25.5341 20.8501 25.6908C20.9979 25.7508 21.0715 25.9129 21.0715 26.1793C21.0715 26.3565 21.0272 26.4893 20.9386 26.5779ZM19.0765 31.6328C19.0472 31.8692 18.8551 31.9871 18.5008 31.9871C18.3563 31.8597 18.3264 31.7118 18.4115 31.5442L18.3672 31.3221C18.3672 31.7009 18.1485 32.0634 17.7472 32.1207C17.6627 31.9544 17.9768 31.6621 17.7472 31.5442L17.6137 31.5885C18.0858 30.9678 18.3822 30.3621 18.5008 29.7707C18.8953 30.296 18.2235 30.6973 18.8551 31.0564C18.8551 30.341 18.9109 29.6985 19.5644 29.2829C19.6059 29.319 19.6209 29.3633 19.6086 29.4157C19.4247 30.1529 19.2414 30.8908 19.0765 31.6328ZM17.9019 29.9478C17.9162 29.8886 18.0123 29.7857 18.1894 29.6378C18.203 29.8852 18.1145 30.0923 17.9237 30.2579C17.8937 30.1107 17.8862 30.0071 17.9019 29.9478ZM18.5444 28.3521C18.6623 28.7064 18.5587 29.0464 18.2337 29.3714C18.2337 28.8693 18.3373 28.5286 18.5444 28.3521ZM19.2094 27.9522C19.3463 28.2533 19.2877 28.5191 19.0322 28.7507C19.0608 28.5143 19.1208 28.2486 19.2094 27.9522ZM17.4583 32.0982C17.414 32.261 17.303 32.3421 17.1251 32.3421L17.5687 31.7214C17.5387 31.81 17.5026 31.936 17.4583 32.0982ZM16.1944 42.2747C16.1944 42.6583 16.1501 42.9833 16.0616 43.2497C16.0057 43.3601 15.8429 43.6551 15.973 43.7818C16.0411 44.0585 15.8578 44.1361 15.618 44.1361C15.6473 44.0776 15.7359 43.6483 15.8844 42.8505C15.943 42.3183 16.0466 41.8312 16.1944 41.3876V42.2747ZM15.4409 42.6283C15.2848 43.1353 15.479 44.0823 14.9973 44.4026C14.8365 43.7703 15.0177 42.9847 15.1309 42.3633C15.1894 42.1562 15.2487 41.8462 15.308 41.4312C15.3707 41.5688 15.3932 41.7269 15.4409 41.8748C15.6194 42.1228 15.6194 42.3742 15.4409 42.6283ZM15.4191 40.7887C15.4702 40.6347 15.492 40.4814 15.4852 40.3233L15.8401 40.4119C15.8006 40.711 15.6677 40.9618 15.4409 41.1655C15.3809 41.0476 15.3741 40.9216 15.4191 40.7887ZM34.1076 29.5533C34.2037 29.3305 34.5403 28.947 34.5403 28.947C34.9062 28.6179 35.285 28.2745 35.6645 27.9277C35.7006 28.0987 35.7231 28.4462 35.9343 28.3521C36.198 27.7948 37.2078 27.0228 37.808 26.4321C37.9681 26.2366 38.0485 26.0444 38.0485 25.853L38.0322 25.6704C38.2005 25.4973 38.3361 25.3481 38.4532 25.2132C38.7387 25.2418 39.0038 25.0905 39.202 24.8909C39.0733 24.6054 39.1707 24.3472 39.4903 24.1244C39.7969 23.997 40.004 23.4628 40.0667 23.1617C40.1314 23.0642 40.2609 22.9545 40.4523 22.8258C40.4101 22.6357 40.4148 22.4572 40.4421 22.2827C40.4864 22.2119 40.5307 22.141 40.5756 22.0688C40.9149 22.3032 41.2836 21.2628 41.3653 21.1435L41.1997 21.0434C41.3203 20.839 41.4382 20.638 41.5459 20.4472C41.6971 20.3688 41.8423 20.1624 41.7823 20.1215C42.2272 19.759 42.4466 19.3393 42.6435 18.7302C42.7048 18.754 42.7791 18.7711 42.9515 18.6907C43.1995 18.4727 43.2295 17.497 43.0564 16.928C43.07 16.8006 43.0816 16.68 43.0966 16.5744C43.5579 16.5104 43.4264 15.891 43.3371 15.6165C43.1995 13.7571 41.4859 12.098 40.3072 10.7626C38.9901 9.27043 37.6023 7.95816 35.8383 7.0581C35.5657 6.89935 35.2939 6.73992 35.0213 6.58116H34.3482C34.1567 6.64385 34.0436 6.58116 34.0123 6.38562C33.3561 6.29432 32.6939 6.33588 32.0404 6.24458C31.9137 6.21324 31.7843 6.26025 31.6575 6.38562C31.5281 6.16282 31.3993 6.1158 31.2719 6.24458C31.0157 6.24458 30.6307 6.30726 30.1177 6.43672C29.653 6.50145 29.1931 6.58389 28.7237 6.58116C28.5663 6.83735 28.4225 6.83735 28.2917 6.58116C27.0755 6.56004 25.892 7.08059 24.7657 7.47304C24.207 7.66791 20.9945 9.36105 20.8398 9.20297C20.5707 9.67583 19.1399 10.116 18.6786 10.2815C17.0591 11.0664 15.648 12.0019 14.0652 12.9258C13.6823 13.1112 12.2392 13.7223 12.6303 14.2994C12.477 14.4268 12.3108 14.5692 12.1261 14.7328C11.592 14.9705 11.2915 15.1368 11.2295 15.2295C10.9494 15.4795 9.47434 16.926 9.47434 17.3532C9.29105 17.5556 9.17454 17.7886 9.12208 18.0516C9.04373 18.1654 8.97014 18.2812 8.89588 18.397C8.6867 18.63 8.43461 18.8528 8.44959 19.1588C8.31605 19.4095 8.19682 19.663 8.09189 19.9191C7.79687 20.1535 7.79891 20.4983 7.78392 20.8458C7.74372 21.0079 7.71715 21.1708 7.6933 21.3329C6.53229 22.5157 7.17276 25.4115 7.62517 26.768C7.71851 27.0617 7.87113 27.307 8.00877 27.5815C8.03534 27.5965 8.07077 27.6231 8.10824 27.6531C8.50887 28.1014 9.242 28.6029 10.5502 28.8679C11.237 29.3162 11.5722 28.1682 11.391 27.5631C11.4421 26.5588 11.4325 25.0238 11.9279 24.2906C11.9667 24.2334 11.9885 24.1919 12.0069 24.1537C12.3912 23.6768 12.8245 22.5737 12.9771 22.2241C13.2292 21.9291 13.5317 21.5714 13.8458 21.1899C14.1061 21.1074 14.2465 20.9343 14.2676 20.6707C16.0302 18.474 17.7786 16.0403 20.5809 15.1007C20.7737 15.3092 20.8187 15.8297 20.7002 16.09C20.7131 16.0886 20.7288 16.0866 20.7424 16.0845C20.2198 17.9889 19.3783 21.0338 18.4613 24.2525C18.4524 24.2586 18.4476 24.2634 18.4381 24.2688L18.451 24.2879C18.3488 24.6463 18.246 25.0061 18.1424 25.3672C18.0525 25.4333 18.0313 25.5062 18.0797 25.5859C18.0307 25.7569 17.9816 25.9272 17.9325 26.0976C17.7159 26.3912 17.6682 27.0113 17.5694 27.3519C17.4236 27.4984 17.382 27.6245 17.4604 27.7273C17.4099 27.899 17.3602 28.0687 17.3098 28.239C17.194 28.3862 17.104 28.5218 17.0441 28.6417C16.9494 28.9633 16.8533 29.2835 16.7565 29.6038C16.732 29.6351 16.7749 29.7012 16.8547 29.7809C16.4942 30.9917 16.144 32.1438 15.819 33.1733C14.2342 34.2601 12.6228 35.3271 10.931 36.2462C9.92266 36.6604 8.10007 37.3527 5.32904 38.2016C5.31133 38.2064 5.30042 38.2105 5.28407 38.216C4.49167 38.3604 4.21436 38.6432 3.625 39.0131C5.05991 40.3036 6.74828 40.5768 8.48298 41.1083C10.698 41.7862 12.338 41.2241 14.5279 40.4017C14.07 42.6583 13.6387 44.8884 13.4507 46.1502C13.403 46.249 13.3887 46.6748 13.388 46.6782C13.343 46.8193 13.3178 46.854 13.311 46.9821C13.2735 47.2056 13.2408 47.4638 13.2101 47.7398C13.0221 48.8436 13.1059 48.1983 12.8633 49.501C12.8034 49.826 12.6433 50.5803 12.5901 50.9509C12.5499 51.3625 12.3905 51.772 12.3217 52.2564C12.1888 53.1871 11.5572 55.8014 12.77 56.3213C13.345 56.6783 15.0443 56.8378 15.6773 56.6429C16.219 56.5223 16.1433 55.5929 16.3225 55.0969C16.375 54.761 16.4268 54.4251 16.4779 54.0892L16.6455 53.7738C16.6836 53.4208 16.6135 52.6202 16.8765 52.36C17.0529 52.8124 16.993 53.3179 17.1095 53.7833C17.2164 54.0129 17.1858 54.4715 17.4317 54.4728C17.5162 54.4715 17.5312 54.1349 17.5687 53.9632C17.6164 53.7397 17.7022 53.4787 17.7022 53.2498C17.7356 52.6127 17.8467 52.1106 18.0368 51.744C18.2841 51.2705 18.6139 50.8406 18.838 50.3555C18.9416 50.1299 19.0336 49.8751 19.0029 49.6237C18.9648 49.3062 18.8673 48.9778 18.9171 48.7413C18.8414 48.492 18.7147 48.5485 18.6432 48.3734C18.6139 48.3046 18.528 47.8679 18.6561 47.842C18.7243 47.8283 18.8857 47.6955 18.8905 47.6335C18.9879 47.6008 19.0826 47.6171 19.1733 47.6846C19.5759 48.0539 18.8401 49.2483 19.5521 49.2844C19.6134 48.0362 20.0556 46.8009 20.213 45.5602C20.2934 45.4764 20.3077 45.3919 20.2484 45.3067C20.2552 45.2386 20.2682 45.1588 20.277 45.0887C20.3547 44.9599 20.3731 44.7528 20.3608 44.5967C20.354 44.5831 20.3534 44.5729 20.3472 44.5593C20.3574 44.4911 20.3622 44.4312 20.3738 44.3617L20.3881 44.0898C20.4562 44.0864 20.5039 44.0932 20.5543 44.0217C20.5734 43.7423 20.4208 43.4609 20.4208 43.4609L20.6313 43.3594C21.2623 43.1203 20.5482 42.4185 21.0572 42.0833L21.3093 41.8094L21.5137 41.2043L21.7712 40.2028C21.8223 40.0937 21.6881 40.0072 21.4973 39.9329C21.6084 39.1705 21.7665 38.4347 22.332 37.8691C22.5745 37.6334 22.7605 37.4242 23.0631 37.2764C23.0944 37.2096 23.277 37.1176 23.4371 36.9575C23.6156 36.8212 23.8084 36.7095 24.0142 36.6209L24.7358 36.1869L25.3129 35.8973C25.4348 35.8347 25.5629 35.7863 25.6964 35.7529C26.1087 35.5526 26.6183 35.308 26.899 35.1778C26.899 35.1778 26.9563 35.1649 26.9542 34.9019C27.3065 34.6123 27.4093 34.4733 27.763 34.3132C28.1214 34.038 28.6215 34.0087 28.9172 33.6407C28.9587 33.5753 29.0023 33.4854 29.0453 33.4009C29.3778 33.1958 29.7 32.9955 30.0019 32.804L30.1177 32.8701L30.4073 32.5806C30.4141 32.5881 30.4543 32.5444 30.5074 32.4804C30.5756 32.4368 30.6471 32.3905 30.7105 32.3489C30.9346 32.3475 31.0736 32.3509 31.3577 32.2712C31.3257 32.3721 31.5594 32.3578 31.5594 32.3891C31.8272 32.3823 32.4779 31.038 32.6175 30.8983C33.134 30.4663 33.7274 30.1277 34.1076 29.5533ZM74.7593 32.1636C74.6571 31.9067 74.6135 31.6403 74.6258 31.365C74.7437 31.5136 74.8036 31.6607 74.8036 31.8086L74.7593 32.1636ZM74.3158 36.1092C74.3158 36.4342 74.2272 36.6713 74.0494 36.8185C73.8204 36.3627 74.0732 35.7849 73.9165 35.3114C74.1693 35.2283 74.3362 34.6675 74.1379 34.4692C73.9322 34.1579 73.86 32.7638 74.1379 32.6507C74.4255 33.2258 73.9431 33.8751 74.4043 34.4243C74.4568 34.5858 74.4275 34.7329 74.3158 34.8678C74.2272 35.075 74.2715 35.2228 74.448 35.3114C74.3594 35.4592 74.3158 35.7256 74.3158 36.1092ZM74.0943 38.3706C73.9444 37.9223 73.8191 37.5019 74.0494 37.0406C74.0037 37.1313 74.1577 37.5435 74.1829 37.6613L74.0943 38.3706ZM73.6501 38.5927C73.6658 38.8455 73.6501 39.0969 73.6058 39.3463H73.5172V38.282C73.2808 38.5185 73.1629 38.7249 73.1629 38.9027C73.1786 39.1167 73.3687 40.8746 73.0301 40.987C73.0301 40.0883 73.0894 39.1106 72.6751 38.282C72.6015 38.2902 72.5572 38.3338 72.5422 38.4149C72.5586 38.096 72.5497 37.6872 72.4537 37.3956C72.564 37.5258 72.6376 37.6736 72.6751 37.8385C72.7637 37.8385 72.8672 37.8092 72.9858 37.7499V37.6613C72.7664 37.444 72.7248 37.0686 72.7637 36.7742C72.84 36.1617 72.7637 35.4872 72.7637 34.8678C72.842 34.472 72.6649 34.0611 72.7637 33.6707L72.6751 33.4936C72.6513 33.6619 72.6063 33.824 72.5422 33.9807C72.483 33.9514 72.4537 33.9078 72.4537 33.8479C72.5593 33.3171 72.2779 32.7291 72.4537 32.2072C72.4455 32.0811 72.5048 31.9926 72.6301 31.9415C72.7085 31.8829 72.7235 31.8093 72.6751 31.72C72.6901 31.3759 72.7344 31.036 72.8086 30.6994L72.9408 31.0101C72.9408 30.7614 73.1057 30.5025 72.9858 30.2565C73.1629 30.3451 73.2515 30.4636 73.2515 30.6115L73.2072 30.6994C73.1473 30.8779 73.1473 31.07 73.2072 31.2765C73.43 31.6682 73.4007 32.1724 73.3401 32.6064C73.272 33.0786 73.3728 33.5556 73.2958 34.0257C73.2958 34.1442 73.3551 34.3214 73.473 34.5578C73.5908 34.5578 73.6351 34.5728 73.6058 34.6014C73.5602 34.7874 73.8123 35.3713 73.6501 35.5335C73.6501 35.6739 73.7325 35.8299 73.7387 35.9764C73.6501 36.9521 73.6208 37.8242 73.6501 38.5927ZM72.7637 41.0306C72.7037 40.7935 72.7037 40.557 72.7637 40.3213C72.9115 40.4698 72.9115 40.7056 72.7637 41.0306ZM72.9858 27.9951C73.0151 28.1723 73.0587 28.4979 73.1187 28.9708C73.3217 28.9592 73.366 29.0478 73.2515 29.2372C73.2236 29.3946 73.1493 29.5275 73.0301 29.6358C72.8386 29.0021 72.8863 28.3351 72.8086 27.6851C72.8972 27.7151 72.9558 27.818 72.9858 27.9951ZM73.5172 32.2521C73.6515 32.5138 73.6372 32.7652 73.473 33.0057C73.4437 32.8579 73.458 32.6064 73.5172 32.2521ZM74.5154 26.4655C74.559 26.6576 74.5958 26.783 74.6258 26.843C74.7144 27.168 74.6408 27.493 74.4043 27.818L74.2715 26.0444C74.3887 26.133 74.4711 26.2734 74.5154 26.4655ZM70.9016 46.2633V46.219C70.9309 46.219 70.9465 46.234 70.9465 46.2633H70.9016ZM65.7574 41.3856C65.6395 41.5041 65.551 41.4741 65.4924 41.297C65.5217 41.2377 65.5809 41.2377 65.6695 41.297C65.7424 41.1703 65.8017 41.0367 65.8474 40.8977C65.9645 41.0463 66.0245 41.1192 66.0245 41.1192C66.0245 41.1192 65.9359 41.2084 65.7574 41.3856ZM65.0045 40.3438C64.886 40.5366 64.8117 40.6756 64.7824 40.7649C64.4901 41.4666 64.4997 41.6281 64.0731 42.2727C64.2735 41.3706 64.7156 40.5387 65.0931 39.7006C65.1517 39.9377 65.1217 40.1517 65.0045 40.3438ZM64.561 43.292C64.5017 43.1148 64.5167 42.9084 64.6053 42.6713C64.7095 42.8811 64.9412 43.2184 64.561 43.292ZM64.3838 44.0462C64.1222 44.0462 64.283 43.6796 64.1617 43.5584C64.3389 43.5883 64.4281 43.6912 64.4281 43.8691L64.3838 44.0462ZM63.9846 48.2808C63.9341 48.3939 63.8599 48.445 63.7631 48.4354C63.7032 48.199 63.7917 48.0804 64.0288 48.0804C63.9995 48.1104 63.9846 48.1779 63.9846 48.2808ZM63.4531 44.0019C63.4531 44.239 63.5117 44.4605 63.6296 44.6669C63.5192 44.8093 62.9026 45.2699 62.6546 45.0219C62.5558 44.9258 62.9625 44.2159 63.0096 44.1348C63.216 43.7798 63.3346 43.5434 63.3639 43.4255C63.387 43.217 63.5049 43.1434 63.7182 43.2034C63.5417 43.4698 63.4531 43.7355 63.4531 44.0019ZM63.2746 46.4398C63.2031 46.4071 63.1295 46.3928 63.0532 46.3962C63.0239 46.3669 63.0239 46.2933 63.0532 46.174C63.1486 46.1645 63.2221 46.1202 63.2746 46.0412C63.3346 46.1897 63.4081 46.2783 63.4967 46.3076C63.4374 46.4261 63.3639 46.4697 63.2746 46.4398ZM61.7675 33.4043C61.9221 33.0221 61.8015 32.599 61.901 32.2072C62.0584 32.5267 61.9637 33.018 62.0782 33.3607C62.0189 33.39 61.9153 33.4043 61.7675 33.4043ZM61.4799 32.6957H61.3239L61.2803 32.0743C61.2803 31.9271 61.2939 31.8086 61.3239 31.72C61.4425 32.0157 61.561 32.3107 61.6789 32.6064C61.6189 32.6664 61.5528 32.6957 61.4799 32.6957ZM60.2603 29.9458C60.1193 29.7591 60.1057 29.3108 60.1268 29.0594C60.2522 29.2699 60.2767 29.6739 60.2603 29.9458ZM59.9054 26.6651C59.8488 26.5677 59.7752 26.5234 59.6832 26.5323C59.8011 26.4144 59.8611 26.2815 59.8611 26.133L59.8168 25.778L59.8611 25.6009L60.1268 26.798C60.0382 26.798 59.9646 26.7537 59.9054 26.6651ZM59.4618 24.9802C59.3732 24.833 59.3289 24.7587 59.3289 24.7587C59.3289 24.7587 59.3875 24.7294 59.5068 24.6702C59.5953 24.6409 59.6682 24.6851 59.7282 24.8023C59.8474 24.9134 59.8474 25.0176 59.7282 25.1137L59.4618 25.3351C59.5504 25.2459 59.5504 25.128 59.4618 24.9802ZM59.1518 22.9852C59.1559 22.8115 59.2295 22.6786 59.3732 22.5859C59.2724 22.2875 58.9896 21.7724 59.2846 21.4774C59.1252 22.0272 59.5068 22.5709 59.5068 23.1181C59.3787 23.099 59.2601 23.0547 59.1518 22.9852ZM82.1642 27.6401C82.2521 27.5815 82.3257 27.6115 82.3856 27.7294L82.1642 27.9951C82.1253 27.8929 82.0661 27.8043 81.9863 27.7294C82.0156 27.7294 82.0749 27.7001 82.1642 27.6401ZM83.0499 30.2129C83.0499 29.9165 83.1242 29.7244 83.272 29.6358C83.1535 29.9955 83.3524 30.467 83.0063 30.7443C83.0356 30.6265 83.0499 30.4493 83.0499 30.2129ZM84.0699 24.5366C84.3063 24.1816 84.5434 23.5916 84.7792 22.7631C84.927 22.8626 85.0905 22.9068 85.267 22.8959C85.0803 23.2673 84.8752 24.1857 84.4249 24.3152C84.2811 24.4078 84.2075 24.5407 84.2034 24.7138L84.247 24.8916C84.0406 24.8023 83.982 24.6851 84.0699 24.5366ZM81.5421 36.642C81.6838 35.9294 81.8446 34.3888 82.3406 33.8921C82.7978 33.2544 82.8632 32.3435 83.0949 31.609C83.377 30.7144 83.8362 29.8593 83.982 28.9265C83.8042 28.9265 83.6863 29.0151 83.627 29.1922C83.627 28.4455 84.1149 28.7139 84.3479 28.2275C84.5087 27.8909 84.5284 27.4603 84.647 27.108C84.7546 26.7285 84.8432 26.3442 84.9127 25.9559C84.9127 25.8053 85.2316 24.9529 85.1784 24.8473C85.0606 24.7587 85.0749 24.6109 85.2227 24.4038C85.3433 24.2743 85.4319 24.1264 85.4891 23.9602C85.5573 23.6836 85.6016 23.4022 85.6227 23.1181C85.917 22.5859 86.0942 21.9366 86.1541 21.1674C86.4703 19.5751 86.8995 17.7382 86.4893 16.1098C86.0274 14.2749 84.2123 13.6065 82.7849 12.654C82.3495 12.2942 81.8065 12.0905 81.3207 11.8118L81.2771 13.2747C81.3943 13.3135 81.4092 13.7625 81.4542 13.7625C81.7969 13.8497 81.8535 14.3226 81.8535 14.6047C82.1131 16.184 81.4542 17.7368 81.4542 19.3046C81.1544 19.6623 81.1408 20.1542 81.0556 20.5903C80.7926 21.3765 80.5685 22.1758 80.39 22.9852C80.3402 23.2918 80.2516 23.5875 80.1235 23.8716C80.0227 24.0767 79.8721 24.3928 79.9914 24.6252C80.05 24.6552 80.05 24.6995 79.9914 24.7587C79.9314 24.7887 79.8585 24.8473 79.7699 25.0245C80.02 25.2875 79.9287 25.5307 79.5914 25.6894C79.5914 26.5037 78.8733 27.2572 79.1485 28.0837C78.2683 28.3821 78.2424 30.6449 77.6407 31.365C77.437 31.5688 77.3362 31.8352 77.3307 32.1186C77.3893 32.3257 77.315 32.4886 77.1093 32.6064C77.1529 32.7366 77.1686 32.8694 77.1536 33.0057L76.665 34.5578C76.5846 34.7915 76.4368 34.8508 76.2222 34.735C76.2222 34.395 76.1499 33.9616 75.9564 33.6707C75.8195 34.0298 75.671 34.3848 75.5129 34.735C75.5994 34.7793 75.2608 34.7493 75.1579 34.7793C75.0986 34.3357 75.1872 33.9807 75.4243 33.7157C75.4461 33.67 75.47 33.0643 75.2247 33.2278C75.1872 33.3014 75.1504 33.375 75.1136 33.4493C75.1136 33.5079 75.0693 33.5372 74.9814 33.5372C74.9201 33.2367 74.8377 32.8286 75.2465 32.8286C75.0189 32.7523 74.9481 32.5111 74.9814 32.2964C75.1089 32.3666 75.2417 32.4259 75.38 32.4736C75.4645 31.7909 75.1136 31.1198 75.1136 30.4343C75.192 30.5597 75.2812 30.6782 75.38 30.7886C75.2635 30.0998 75.7568 29.2297 75.2465 28.6158C75.3541 28.1838 75.2683 27.681 75.2465 27.2415C75.6028 27.5993 75.3099 28.1109 75.5565 28.483C75.9455 27.5148 75.5531 25.0142 75.1136 24.138V24.0937C75.0543 23.7388 74.8629 23.488 74.5372 23.3395C73.817 23.148 72.9872 22.9409 72.2315 22.9409C71.6265 22.8189 70.9404 22.7331 70.3251 22.8517C68.5509 23.4526 68.2123 24.6184 67.6202 26.3994C66.6547 28.6274 66.0013 30.9658 65.2042 33.2551C64.8362 34.3119 63.2651 36.982 63.8067 37.8828C63.5417 37.7649 63.4081 37.8092 63.4081 38.0163C63.4456 38.1301 63.3066 38.464 63.2746 38.5927C63.1029 38.4204 63.1506 38.2841 62.9203 38.2378C63.1247 37.91 63.154 37.57 63.0096 37.2178C62.9203 37.0406 62.9053 36.9228 62.9646 36.8635C63.1124 36.7456 63.1867 36.5242 63.1867 36.1985C63.2542 35.6541 63.5076 34.2233 62.876 34.0257C63.0239 33.8778 63.1274 33.6707 63.1867 33.4043C63.1867 32.7155 63.0205 32.0062 63.0981 31.3214C63.0981 31.2622 63.0825 31.2172 63.0532 31.1879C62.9646 31.07 62.9796 30.9215 63.0981 30.7443L62.876 30.6115C63.1506 30.3369 63.1887 29.6971 62.8317 29.4586C63.1322 29.0389 62.6989 28.7535 62.6989 28.3501L62.7874 28.1723C62.876 28.0251 62.891 27.8336 62.8317 27.5965C62.7207 27.262 62.8937 26.7074 62.566 26.443V26.3994C62.6798 25.9286 62.2267 25.5225 62.566 25.0687C62.566 24.9802 62.5503 24.9359 62.521 24.9359C62.3514 24.6688 62.3371 24.3881 62.4774 24.0937C62.4917 24.0488 62.5067 24.0045 62.521 23.9602C62.3384 23.2318 62.1947 22.464 61.856 21.7874C61.5835 21.1108 61.4282 20.3968 60.9253 19.8367C59.8243 18.3909 58.0882 18.4761 56.4469 18.551C56.3719 19.0852 57.1125 19.1267 57.1125 19.6153C56.5429 19.6153 56.3058 18.8304 55.6933 18.906C56.4237 19.9771 57.4225 21.4276 57.4225 22.7631L57.3776 23.0295C57.3312 23.1698 57.3285 23.396 57.334 23.5616C58.6667 30.6265 58.1952 38.047 57.4668 45.1541C57.4668 45.9329 57.3312 46.73 57.2454 47.5047C57.2454 48.5908 56.7133 49.6462 56.7133 50.7411C56.6533 51.1547 56.5947 51.4947 56.5354 51.7617C56.3024 52.4615 57.6099 52.2298 57.9104 52.3818C58.2783 52.6032 58.7811 52.6509 59.0632 53.0025L59.2404 53.091C59.5551 53.1401 59.8515 53.2437 60.1268 53.4011C60.3898 53.5332 61.856 54.2957 61.856 53.6232L61.8118 53.446C61.7525 53.3575 61.7525 53.2532 61.8118 53.136C62.196 52.7497 62.0386 52.0377 62.521 51.7168C62.551 51.6875 62.5803 51.6575 62.6096 51.6282C62.7418 51.3965 62.876 50.9176 62.7432 50.6532C62.8576 50.6968 62.9762 50.7111 63.0981 50.6968C63.1567 50.4011 63.3639 49.9575 63.7182 49.3668C63.8667 49.1897 63.9846 48.9526 64.0731 48.6575C64.2033 48.398 65.2648 46.3471 65.1374 46.219C64.9814 46.2074 64.8628 46.2667 64.7824 46.3962C64.7231 46.2483 64.6639 46.174 64.6053 46.174C64.9003 45.8797 65.0781 45.6133 65.1374 45.3762C65.3173 45.5581 65.087 46.0139 65.4474 46.0855C65.3275 45.306 66.171 44.9749 66.1124 44.1791C66.1785 44.1654 66.2378 44.1804 66.2902 44.2234C66.667 42.4035 68.0556 40.7976 68.3302 38.8585H68.3738C68.4576 38.7358 68.5169 38.6036 68.5516 38.4592C68.893 38.0313 68.8752 37.4235 69.2173 36.9957C69.2759 36.9371 69.2609 36.8778 69.1723 36.8185C69.1723 36.4881 69.466 36.1535 68.9059 36.1535C69.0538 35.9171 69.1423 35.71 69.1723 35.5335C69.1818 35.7195 69.2268 35.8967 69.3059 36.0649C69.5416 35.9471 69.6888 35.8285 69.7487 35.71C70.1391 34.7684 70.4171 31.9551 71.5216 31.5865C71.5039 31.8692 71.5189 32.1499 71.5665 32.4286L71.478 32.8722L71.5665 33.1829C71.6251 33.3607 71.6551 33.4792 71.6551 33.5372L71.6108 34.0257C71.7771 34.7711 71.5141 35.556 71.6994 36.2871C71.9168 36.8342 71.5216 37.5019 71.5216 38.0606L71.5665 38.3706C71.7083 38.8714 71.9113 42.9431 71.478 43.1598C71.1305 43.245 71.1884 45.2733 71.168 45.4205C71.168 45.7373 71.2504 45.9867 70.858 46.0855C70.7435 46.3383 70.6842 46.604 70.6794 46.8833L70.7244 47.0612C70.9056 47.4373 74.3083 48.0695 74.7593 48.1254C75.4972 48.2739 75.9122 48.3625 76.0007 48.3918C76.4443 48.6146 76.9873 48.4586 77.4193 48.7461C77.5964 48.8347 77.7593 48.8347 77.9078 48.7461L77.73 47.3269C78.5994 47.3269 79.5056 41.7317 79.9471 41.1641C80.0357 41.0756 80.065 41.002 80.0357 40.9427C79.7604 40.6688 81.3363 37.2614 81.5421 36.642ZM56.1764 35.2821H55.9985C56.0278 35.2821 55.9985 35.2378 55.9985 35.2378L56.1764 35.1049V35.2821ZM56.0435 34.5721C56.16 34.6941 56.1893 34.8419 56.1321 35.0157C56.0135 34.8392 55.9835 34.6914 56.0435 34.5721ZM55.9549 35.4156C55.9249 35.3564 55.9249 35.3414 55.9549 35.3707V35.4156ZM55.8214 36.3021C55.6728 36.1849 55.6585 36.0799 55.7771 35.9914C55.8657 36.0513 55.88 36.1549 55.8214 36.3021ZM43.8052 33.9521C43.8938 33.9821 43.8938 34.0257 43.8052 34.085C43.7166 33.9964 43.7166 33.9521 43.8052 33.9521ZM47.1635 44.562C46.5422 45.6378 45.809 46.7212 44.8974 47.5722C43.2124 49.1461 42.1952 48.5397 41.2338 46.6851V46.6326C41.2965 46.1945 41.2815 45.7448 41.2788 45.3033C41.1323 45.0144 41.1609 44.9163 41.3224 44.5933C41.3224 43.9774 41.2195 43.5781 41.3558 42.9751C41.4525 42.5493 42.003 41.7296 41.5888 41.312C41.7264 41.237 41.7762 40.6613 41.7762 40.6613C41.4764 40.3629 41.6835 39.9309 41.7217 39.5391C41.9022 39.7054 41.9642 39.6611 42.0787 39.8791C42.1114 39.4444 42.5488 37.2771 42.5195 37.2771C42.4875 37.2464 43.2465 34.6954 43.5838 34.5285C43.7991 35.1731 43.2731 36.4349 43.2731 36.4349C42.9045 36.8982 43.4441 37.0502 43.75 36.8567C44.0989 36.6352 43.9892 36.0949 44.0716 35.7699C44.0961 35.5328 44.214 35.37 44.4266 35.2821C44.6671 35.0402 44.7366 34.6307 44.7366 34.3071L45.1802 32.9764C45.3341 32.3421 45.2946 31.2799 46.1116 31.1143C45.8813 30.7137 45.4602 30.5168 45.0909 30.2722C44.9069 30.0875 45.033 30.0058 44.7366 30.0058C44.6071 29.8981 44.4736 29.7945 44.3373 29.6951C44.2637 29.6658 44.1895 29.6658 44.1159 29.6951C44.0403 29.5397 43.9524 29.3912 43.8502 29.2522C43.6839 29.1752 43.5361 29.0716 43.4066 28.9415C42.9678 28.5061 43.5531 27.9754 43.8938 27.7444C44.8701 26.7244 45.7763 25.5784 46.9094 24.7294C47.3789 24.2941 50.6684 21.863 51.1658 22.6902C51.349 22.481 51.5119 22.3386 51.6611 22.2453C53.9627 23.2421 56.872 27.4051 47.1635 44.562ZM49.7472 47.254C49.7383 47.254 49.7404 47.2485 49.7343 47.2478L49.7649 47.2267C49.7581 47.2363 49.7588 47.2424 49.7472 47.254ZM46.9094 50.9782C46.8494 50.861 46.8351 50.7425 46.8644 50.6239C46.983 50.7425 46.998 50.861 46.9094 50.9782ZM45.7566 51.2446C45.638 51.1267 45.668 51.0675 45.8451 51.0675H45.7566L45.9344 50.9782C45.8738 51.0961 45.8152 51.186 45.7566 51.2446ZM41.101 40.4262C41.2488 40.4855 41.2631 40.5741 41.1452 40.6913C40.9967 40.5441 40.9824 40.4555 41.101 40.4262ZM41.7217 23.488C41.8688 23.3702 41.9431 23.3109 41.9431 23.3109C41.9431 23.3109 41.9724 23.2816 42.0323 23.2223C42.0392 23.4873 41.9213 23.6502 41.6774 23.7095C41.7067 23.7394 41.6924 23.813 41.6324 23.9316C41.6188 23.8791 41.5908 23.8362 41.5493 23.8028C41.5404 23.6986 41.5902 23.593 41.7217 23.488ZM43.1852 22.3352C43.3024 22.4537 43.318 22.5723 43.2295 22.6902C43.1402 22.6309 43.1259 22.5123 43.1852 22.3352ZM43.7616 23.1337C43.7616 23.2223 43.7316 23.2373 43.673 23.1773C43.643 23.0888 43.6281 23.0445 43.6281 23.0445C43.6281 23.0445 43.673 23.0745 43.7616 23.1337ZM44.3816 23.1337C44.3816 23.193 44.3523 23.2073 44.2937 23.1773C44.2637 23.0888 44.2488 23.0445 44.2488 23.0445C44.2488 23.0445 44.2937 23.0745 44.3816 23.1337ZM46.5544 21.7588C46.4951 21.771 46.288 21.769 46.288 21.6702C46.4359 21.5816 46.5244 21.6116 46.5544 21.7588ZM40.5906 41.4455C40.5756 41.3869 40.5831 41.342 40.6131 41.312C40.7024 41.3719 40.7317 41.4605 40.7024 41.5784C40.6417 41.5491 40.6056 41.5055 40.5906 41.4455ZM40.3031 25.3059C40.0953 25.5137 39.9924 25.6165 39.9924 25.6165C39.9924 25.6165 39.9631 25.6601 39.9038 25.7487C39.7642 26.0288 39.8228 26.6106 39.5046 26.7687H39.416C39.3444 26.4267 39.3588 26.0867 39.4603 25.7487C39.6231 25.9129 39.9481 25.7433 39.9481 25.5273C39.9774 25.4387 40.051 25.4101 40.1702 25.4387L40.3917 24.9952C40.4802 24.9665 40.5388 24.9223 40.5688 24.863C40.5981 24.9516 40.5095 25.0994 40.3031 25.3059ZM40.1702 27.168V27.1237C40.1702 27.1237 40.1546 27.1393 40.1253 27.168C40.1253 27.0501 40.1702 27.0351 40.2588 27.1237L40.1702 27.168ZM39.0835 34.3732C39.0092 34.506 38.9574 34.6028 38.9281 34.6621C38.9425 34.5953 38.9275 34.566 38.8845 34.5721C38.8341 34.3739 38.9084 34.256 39.106 34.2185H39.0167C39.1094 34.2158 39.1537 34.1715 39.1503 34.085C39.1796 34.1449 39.1564 34.2403 39.0835 34.3732ZM38.7953 35.1049C38.7953 35.1049 38.7803 35.1199 38.751 35.1492C38.751 35.2678 38.736 35.3414 38.7067 35.3707C38.736 35.3707 38.721 35.3863 38.6624 35.4156C38.6018 35.1949 38.6461 35.0021 38.7953 34.8392C38.828 34.9291 38.828 35.0177 38.7953 35.1049ZM38.396 36.1692V36.1249L38.3517 36.3021C38.3517 35.9478 38.396 35.7413 38.4846 35.6814C38.5732 35.7999 38.5439 35.9634 38.396 36.1692ZM38.3517 40.3813C38.2202 40.3513 38.2052 40.307 38.3074 40.2484C38.3776 40.2763 38.4069 40.3206 38.396 40.3813H38.3517ZM38.2632 41.312C38.1746 41.1348 38.1589 40.9877 38.2189 40.8684C38.396 40.9584 38.411 41.1055 38.2632 41.312ZM37.5096 42.9527C37.2398 43.2218 37.652 43.6422 37.5096 43.9283C37.5818 44.0946 37.4782 44.1246 37.1989 44.0169C37.4087 43.5972 37.066 42.0294 37.066 41.5784C37.0844 41.2547 37.158 40.9447 37.2875 40.647C37.573 39.2257 37.5341 37.8501 38.2189 36.5235C38.6004 37.1633 37.9933 38.637 37.9089 39.2952C37.84 39.8048 36.9032 42.8062 37.5096 42.9527ZM37.776 35.9478C37.7453 36.0363 37.6568 36.0363 37.5096 35.9478C37.5975 35.7999 37.6867 35.7999 37.776 35.9478ZM38.1296 28.4979C38.1296 28.5579 38.1446 28.6022 38.1746 28.6315C38.1269 28.6376 38.0976 28.6076 38.086 28.5429C38.056 28.5136 38.041 28.4979 38.041 28.4979H38.1296ZM36.5339 30.6708C36.5339 30.5529 36.5782 30.5379 36.6668 30.6265C36.6068 30.7157 36.5632 30.7307 36.5339 30.6708ZM36.4453 39.3613C36.3861 39.2434 36.3717 39.1548 36.401 39.0956C36.5639 39.1576 36.5789 39.2461 36.4453 39.3613ZM36.2682 38.7856C36.2382 38.6963 36.2382 38.652 36.2682 38.652C36.3268 38.682 36.3268 38.7263 36.2682 38.7856ZM56.3985 33.6421C56.5007 33.7348 56.515 33.8383 56.4421 33.9521C56.3399 33.8594 56.3256 33.7559 56.3985 33.6421ZM56.6192 29.8286C56.6921 29.9717 56.6778 30.0603 56.5749 30.0943C56.4871 30.0943 56.5014 29.8586 56.6192 29.8286ZM56.9299 24.863C57.0185 25.0401 57.0628 25.173 57.0628 25.2616C57.0478 25.1921 57.0185 25.1771 56.9742 25.2173C56.8768 25.0749 56.7882 24.927 56.7085 24.7737C56.7371 24.7451 56.8121 24.7737 56.9299 24.863ZM56.9299 29.075C56.8543 28.9797 56.8686 28.9061 56.9742 28.8529C57.0035 28.9415 56.9885 29.0158 56.9299 29.075ZM56.8856 29.6515C56.7058 29.8313 56.9299 29.2801 56.9299 29.6515C56.8999 29.6808 56.8856 29.6808 56.8856 29.6515ZM56.6192 35.9028C56.8625 35.5396 56.8563 35.0191 57.0185 34.6171C57.0798 34.4938 57.539 33.5085 57.0628 33.5085L56.8856 33.5528C57.1459 33.8138 56.6288 34.8767 56.5307 34.9721C56.2745 34.7138 56.6812 33.9289 56.7528 33.6421C56.6717 33.4377 56.5681 33.2455 56.4421 33.065C56.4121 32.9471 56.4271 32.8286 56.4871 32.7107C56.5157 32.5935 56.6042 32.5778 56.7528 32.6664C56.9776 32.6446 57.1848 32.5703 57.3735 32.4443C57.6596 31.9408 57.2842 30.5856 57.9499 30.3607C57.3585 30.1638 56.7862 25.5539 57.1071 25.3951C57.2699 25.528 57.4178 25.6758 57.5506 25.8387C57.2951 23.8737 55.4167 22.6357 54.0158 21.4467C52.7833 20.4015 50.5709 18.4018 48.7272 18.6995C48.2203 18.8276 45.1584 19.7093 45.1802 19.8524C44.028 20.9957 42.4984 21.5844 41.3674 22.8224C41.2393 23.0124 40.5559 24.0665 40.2588 23.8423C40.1525 24.1087 39.9904 24.3302 39.7703 24.508C39.6 24.8316 39.4085 25.1416 39.1946 25.4387C38.9854 25.6458 38.7639 25.838 38.5296 26.0151C38.3395 26.364 38.1623 26.7183 37.9974 27.0794L37.731 26.8137C37.5866 27.0283 37.498 27.2647 37.4653 27.5229C37.3338 27.7859 37.1859 27.9788 37.2875 28.143C37.1396 28.2452 37.0074 28.3637 36.8889 28.4979C36.801 28.6662 36.7567 28.8434 36.7553 29.0301C36.0052 30.0337 35.6666 31.2438 35.2032 32.4L34.9818 32.7993C34.9525 32.8286 34.8932 32.8436 34.8047 32.8436C34.7018 33.1944 34.6132 33.5494 34.5389 33.9071C34.3706 34.1715 34.2378 34.4529 34.1397 34.7506L34.1839 35.1492C34.0593 35.2426 33.829 35.4701 33.829 35.6371C32.8874 37.0454 32.2394 41.3106 33.3854 42.7632C34.3768 44.0203 38.1194 43.9426 37.776 45.7905C37.9838 47.2989 37.9068 49.0105 38.9949 50.211C39.8084 51.1083 41.2372 51.6541 42.3866 51.9982C42.6531 52.0574 42.9038 52.131 43.1402 52.2196L43.673 52.5746H43.7166C43.9026 52.4138 44.0955 52.3988 44.2937 52.5296C44.4695 52.4663 44.6324 52.3777 44.7809 52.2646C44.8695 52.2346 44.9587 52.2346 45.0473 52.2646C45.4002 51.9035 45.5372 51.466 46.1558 51.466C46.149 51.5553 47.0838 51.1015 47.3966 50.8896C47.7958 50.6614 48.082 50.2614 48.3722 49.9139C48.871 49.4172 49.0781 48.6821 49.5694 48.1847C49.709 47.8767 49.8719 47.581 50.0579 47.2983C50.1744 47.2506 50.293 47.2063 50.4129 47.1654C50.5294 47.0475 50.6629 46.8697 50.8108 46.6326C50.9 46.3962 50.9893 46.1604 51.0772 45.924C51.1944 45.954 51.2543 45.924 51.2543 45.8354C51.407 45.5281 51.1405 45.1568 51.4764 44.904C51.456 45.1323 51.5446 45.2801 51.7422 45.3469C51.9915 45.3469 51.9418 44.9626 51.9636 44.8154C51.6979 44.8454 51.565 44.7419 51.565 44.5048C51.7572 44.5429 51.9343 44.6172 52.0972 44.7262L52.2736 44.6819C52.3411 44.4945 52.3854 44.3031 52.4072 44.1062C52.585 43.8697 52.7621 43.6333 52.9393 43.3962C53.2425 42.8614 53.5075 42.3054 53.7821 41.7555C54.1739 41.3644 53.7712 40.7417 54.0042 40.5148C54.2386 40.5421 54.4008 40.4535 54.4914 40.2484C54.565 40.322 54.7006 40.0965 54.6243 39.9827C54.7006 39.6509 54.8484 39.3552 55.0678 39.0956C55.1264 38.7406 55.1857 38.5191 55.245 38.4306C55.3438 38.1723 55.4916 37.9509 55.6885 37.7656C55.7498 37.8937 55.8527 37.953 55.9985 37.9421C56.2554 37.7724 56.3487 37.2096 56.3535 36.9228C56.2588 36.6434 56.1341 36.4118 56.0871 36.1249C56.1164 36.0663 56.205 36.0213 56.3535 35.9914C56.5014 35.9634 56.5899 35.9328 56.6192 35.9028ZM133.875 51.8326C133.742 51.8387 133.608 51.8449 133.475 51.8503C133.378 51.6929 133.282 51.5349 133.189 51.3754C133.036 51.3414 132.904 51.3768 132.793 51.481L132.701 51.3965C132.458 51.0436 132.828 50.9918 133.084 51.0245C133.327 51.248 133.636 51.4231 133.909 51.6091C133.909 51.6091 133.897 51.6841 133.875 51.8326ZM120.593 31.6982V31.7691C120.545 31.8086 120.502 31.8454 120.454 31.8856C120.439 31.8815 120.433 31.8795 120.415 31.8754L120.326 31.9203C120.217 32.0021 120.067 32.1459 119.883 32.3407C119.607 32.5615 119.337 32.7802 119.047 33.0071C118.795 33.1222 118.581 33.2878 118.401 33.5031C118.347 33.5453 118.29 33.5883 118.235 33.6305C118.132 33.6959 118.014 33.7995 117.98 33.8254C117.95 33.8342 117.92 33.8349 117.888 33.8261C117.124 33.6373 116.5 32.4266 116.049 31.8215C115.458 31.0312 114.084 29.6426 113.942 28.639C113.918 28.4026 113.962 28.1804 114.076 27.9733C114.119 27.5597 114.163 27.1462 114.208 26.7319C114.267 26.5255 114.297 26.1998 114.297 25.7569L114.386 24.8698C114.386 24.3649 114.71 23.5793 114.076 23.2734C114.129 23.2993 113.451 23.4928 113.764 23.4069C113.33 23.5262 112.611 24.1155 112.523 24.2048L112.257 24.061C112.137 24.076 112.157 24.538 112.169 24.6041C112.029 24.7063 111.881 24.7942 111.724 24.8698C111.616 24.9659 111.542 25.0844 111.503 25.2248C111.075 24.7969 111.724 24.2423 111.724 23.8055V22.8748L111.769 22.5423C113.985 21.429 116.262 20.2939 118.597 19.4606C118.818 19.3713 119.041 19.2828 119.263 19.1949C119.459 19.1295 119.758 19.199 119.836 18.9571C119.887 18.9366 119.939 18.9162 119.99 18.8965C120.01 18.9612 120.165 18.8842 120.179 18.8256C120.22 18.8092 120.262 18.7942 120.303 18.7786C120.296 18.8133 120.757 18.6484 120.918 18.5496C121.401 18.3739 121.883 18.2056 122.361 18.0475C122.481 18.0298 122.605 18.0059 122.721 17.9978L122.822 17.8962C122.856 17.8853 122.89 17.8751 122.924 17.8649H123.298C123.373 17.8002 123.45 17.7382 123.53 17.6789C124.011 17.5358 124.48 17.4091 124.933 17.2994C125.039 17.2919 125.115 17.2878 125.16 17.2878C126.305 17.1243 127.636 17.0064 128.752 17.3764C128.752 17.3764 130.546 18.335 129.673 21.1837C129.596 21.2832 129.557 21.3963 129.556 21.5237C129.52 21.6239 129.488 21.7206 129.445 21.8255C129.445 21.8255 129.073 22.1914 129.208 22.3488C128.988 22.8033 128.705 23.2966 128.354 23.8287C128.116 24.0099 127.94 24.2355 127.82 24.5155C127.754 24.6095 127.698 24.7083 127.651 24.8119C126.764 25.9797 125.565 27.3117 123.952 28.8325C123.941 28.8264 123.929 28.8236 123.918 28.8161C123.667 29.0117 123.443 29.2358 123.245 29.4852C122.907 29.7918 122.551 30.1073 122.181 30.4282C122.154 30.435 122.128 30.4527 122.1 30.4561H122.055C122.055 30.4943 122.037 30.5256 122.03 30.5604C121.768 30.7866 121.492 31.0182 121.213 31.2513C120.986 31.3671 120.779 31.5163 120.593 31.6982ZM113.277 36.7524C113.109 36.8383 112.658 37.3213 112.169 37.2409L112.035 37.3295C112.121 37.0992 112.181 36.8628 112.213 36.6196C112.36 36.176 112.434 35.7481 112.434 35.3339C112.645 35.2283 113.118 35.71 113.321 35.7774C113.035 36.1576 113.635 36.394 113.277 36.7524ZM108.665 45.6651C108.709 46.065 108.546 46.3457 108.178 46.5072C108.033 46.3696 108.14 45.5636 108.222 45.3994H108.266C108.266 45.3994 108.251 45.3844 108.222 45.3544L108.399 45.4879C108.482 45.3244 108.452 45.1766 108.311 45.0444C108.654 45.0015 108.712 45.4232 108.665 45.6651ZM100.165 21.8031C99.7749 21.7261 99.4724 22.0688 99.101 22.0688C99.0199 21.8071 99.7871 21.7622 100.165 21.5373V21.8031ZM89.922 27.4787C89.922 27.6558 89.8777 27.7893 89.7891 27.8779C89.1309 28.316 89.3101 29.3128 88.6805 29.8286C88.6805 29.4511 88.6908 29.0267 88.9469 28.7201C89.2713 28.3951 89.4341 28.0108 89.4341 27.5672C89.3769 27.1032 89.6842 26.7571 89.8777 26.3701C89.9608 26.627 89.922 27.2123 89.922 27.4787ZM87.927 32.9321C87.8977 33.1692 87.7049 33.2871 87.3506 33.2871C87.2061 33.159 86.9983 33.3634 86.597 33.42C86.5132 33.2544 86.8266 32.9614 86.597 32.8436L86.4635 32.8878C86.9363 32.2678 87.232 31.6621 87.3506 31.07C87.7457 31.5953 87.0739 31.9966 87.7049 32.3564C87.7049 31.6403 87.7607 30.9978 88.4141 30.5822C88.4564 30.6183 88.4707 30.6633 88.4584 30.7157C88.2745 31.4529 88.0925 32.1901 87.927 32.9321ZM85.577 40.4698H85.4885C85.6084 39.8478 85.515 39.1869 85.932 38.652C86.2938 38.0477 85.746 37.5435 86.4635 37.5435C86.1092 38.5491 85.8134 39.5248 85.577 40.4698ZM85.3999 37.5884C85.3999 37.4399 85.5034 37.337 85.7106 37.2771C85.6506 37.3956 85.6356 37.4706 85.6656 37.4992C85.6963 37.5714 85.6963 37.6457 85.6656 37.7206C85.5395 37.7806 85.451 37.737 85.3999 37.5884ZM84.9563 33.9521C84.6995 34.5292 84.6204 35.1622 84.4678 35.7699C84.1816 36.1808 84.0549 36.6707 84.2913 37.1449C83.8566 37.0011 83.3633 39.6645 83.3156 40.0263C83.2216 40.2109 83.148 40.4031 83.0942 40.6034C82.8571 39.0867 83.89 36.8982 84.2913 35.4817C84.57 34.4992 84.9488 31.3282 85.932 30.7157C85.9197 31.1334 85.8012 31.5177 85.577 31.8679C85.4285 32.46 85.222 33.1536 84.9563 33.9521ZM85.0449 43.574C85.0449 43.9583 85.0006 44.2833 84.912 44.5497C84.8562 44.6601 84.6933 44.9544 84.8235 45.0812C84.8923 45.3585 84.7083 45.4355 84.4678 45.4355C84.4971 45.3769 84.5863 44.9483 84.7349 44.1498C84.7935 43.6176 84.8964 43.1305 85.0449 42.6869V43.574ZM84.2913 42.4655C84.2314 42.3476 84.2246 42.2216 84.2688 42.088C84.3206 41.9347 84.3424 41.7814 84.3349 41.6234L84.6906 41.7119C84.6511 42.0104 84.5182 42.2618 84.2913 42.4655ZM84.2913 43.9283C84.1353 44.4353 84.3288 45.3816 83.8478 45.7019C83.687 45.0696 83.8682 44.2847 83.9813 43.6626C84.0399 43.4562 84.0985 43.1455 84.1578 42.7312C84.2211 42.8682 84.243 43.0262 84.2913 43.1741C84.4692 43.4228 84.4692 43.6735 84.2913 43.9283ZM83.6263 49.6039C83.5643 49.7538 83.5643 49.9024 83.6263 50.0468C83.2291 49.7504 83.1617 49.3144 83.5371 48.9383C83.6802 49.1481 83.7095 49.3695 83.6263 49.6039ZM86.4192 33.0214C86.4117 33.3266 86.2638 33.5338 85.9756 33.6421L86.4192 33.0214ZM87.0399 30.9372C87.0535 31.1852 86.9649 31.3916 86.7741 31.5579C86.6788 31.286 86.7666 31.0796 87.0399 30.9372ZM87.0842 30.6708C87.0842 30.1686 87.1877 29.8286 87.3942 29.6515C87.512 30.0058 87.4092 30.3457 87.0842 30.6708ZM87.2177 26.5037L87.6613 25.2616H87.8384C87.3029 26.8239 86.7285 28.3692 86.1534 29.9172H86.0642C86.212 29.3558 86.597 28.2179 87.2177 26.5037ZM88.1273 29.629C88.1116 29.7032 88.0299 29.8443 87.8827 30.05C87.9113 29.8143 87.9713 29.5479 88.0598 29.2522C88.1191 29.43 88.1409 29.5554 88.1273 29.629ZM87.9495 24.5966C88.0523 24.4194 88.1191 24.2859 88.1484 24.1973C88.1777 24.4637 88.0741 24.7451 87.8384 25.0401C87.8084 24.9223 87.8445 24.7737 87.9495 24.5966ZM99.5882 44.3719L100.031 44.3276C100.024 44.5163 99.9193 44.6199 99.721 44.6376C99.5623 44.6315 99.518 44.5429 99.5882 44.3719ZM82.2957 46.5004C81.8984 46.0984 82.2848 42.8498 82.7842 42.5984C82.5171 43.6919 82.3556 44.9926 82.2957 46.5004ZM82.1628 48.6282L82.2071 47.6975C82.7058 48.1935 82.4953 48.9539 82.6949 49.5596C82.34 49.3525 82.1628 49.0425 82.1628 48.6282ZM103.557 18.0788C103.66 18.1088 103.726 18.1231 103.756 18.1231L103.845 18.0788C103.691 18.2928 103.515 18.3521 103.313 18.256C103.372 18.1088 103.453 18.0495 103.557 18.0788ZM141.274 53.5939C140.964 53.3091 140.51 53.3595 140.147 53.1994L139.7 53.0856C139.221 52.8342 138.545 52.2162 138.331 52.2584C137.138 51.6473 135.975 50.5939 134.894 49.7913C130.135 47.0339 126.572 42.723 122.403 39.2441L121.01 37.8412C120.831 37.5217 120.579 37.489 120.77 37.1074C120.867 36.8485 121.03 36.642 121.258 36.4874C121.404 36.4513 121.553 36.422 121.702 36.3981C121.779 36.3981 122.12 36.0506 122.233 35.9989C122.466 36.1154 123.4 35.0239 123.697 34.846C124.495 34.2553 125.381 33.5017 126.357 32.5846C126.946 31.6941 127.959 31.2492 128.707 30.5011V30.2347C128.857 30.0296 129.049 29.8824 129.283 29.7911C130.477 29.2358 131.406 27.713 132.121 26.6433C132.595 25.1778 133.749 24.3561 133.894 22.6527L133.983 22.4755C133.865 22.4469 133.85 22.387 133.939 22.2984L134.072 21.9877C134.183 22.0409 134.271 22.0116 134.337 21.8991C134.371 20.8901 134.033 18.8917 133.23 18.2185C132.786 17.777 132.144 17.6285 131.633 17.2878C130.848 16.6623 129.787 16.0989 128.928 15.5585C127.593 14.9883 126.454 14.5686 125.027 14.2286L123.785 14.1843L122.678 14.2286C121.54 14.3921 120.445 14.4016 119.307 14.6278C119.13 14.6871 119.011 14.7314 118.953 14.76C118.54 14.839 117.843 15.145 117.798 15.0489C117.649 15.0993 117.516 15.1811 117.4 15.2921L117.046 15.47C117.046 15.1777 116.445 15.4379 116.38 15.47C115.908 15.564 114.976 16.2092 114.828 16.2678C114.828 16.2678 114.459 16.4014 114.297 16.3571C113.942 16.3864 113.557 16.5492 113.144 16.8442C112.722 17.0575 112.459 17.266 111.991 17.4213C111.597 17.4213 110.529 18.1592 110.203 18.1551C110.17 18.1545 108.749 19.1417 108.178 19.372C107.774 19.573 107.445 19.9144 107.024 20.0806C106.903 20.0949 106.785 20.0806 106.67 20.037C106.326 20.1242 105.592 20.916 105.154 21.3084C105.105 21.3111 105.061 21.3152 104.997 21.3152C104.067 20.9023 102.303 21.1769 101.362 21.4931C101.302 21.4931 101.273 21.4638 101.273 21.4038C101.582 21.3036 102.098 21.2859 102.337 21.0495C102.62 20.9562 103.084 21.0032 103.268 20.6945C103.406 20.4152 105.19 20.2421 104.954 19.7631C104.924 19.586 104.954 19.4974 105.042 19.4974C105.192 19.5117 105.34 19.4974 105.485 19.4531C105.759 19.5935 105.906 19.0327 106.194 19.3202C106.485 19.4245 106.707 19.3352 106.86 19.0545C106.593 19.0239 106.327 19.0239 106.062 19.0545C105.988 18.9496 105.899 18.861 105.795 18.7874C105.212 18.9353 104.631 18.7295 104.067 19.0096C104.173 19.0061 104.247 19.0504 104.288 19.1424C103.952 19.3679 103.139 19.4579 102.825 19.1424C102.914 19.1424 100.186 19.5083 98.7011 19.6309C100.616 19.137 104.337 18.5674 104.244 18.6553C104.712 18.5387 105.08 18.8106 105.441 18.3888C105.441 18.3596 105.515 18.3452 105.662 18.3452C106.158 18.5088 106.71 18.2458 107.214 18.3452C107.467 18.367 107.645 18.2635 107.746 18.0339C107.461 17.8676 107.223 17.7484 106.904 17.7239C106.217 17.9228 104.717 17.6803 104.022 17.6803L103.535 17.6353C103.061 17.6353 102.647 17.7538 102.293 17.9903C102.211 18.0311 101.859 17.8881 101.76 17.8567C100.386 18.2008 99.0084 18.4018 97.6375 18.7438C96.8982 18.8624 95.8197 19.1281 94.4011 19.5424C94.3003 19.6371 94.1817 19.6957 94.0454 19.7195C93.6939 19.4565 92.9369 19.9409 92.5833 20.0295C92.398 19.9798 91.3616 19.1424 90.8534 19.1424C90.8241 19.1138 90.8091 19.0695 90.8091 19.0096C90.5583 18.7847 90.2776 18.6076 89.9669 18.4774C89.7959 18.4107 89.6481 18.44 89.5234 18.566C88.7078 20.7381 87.9011 23.1521 86.8627 25.2173C86.5486 26.2822 86.1603 27.3512 85.7106 28.3651C85.4333 29.383 85.1239 30.4868 84.7349 31.4693C84.6409 31.7977 84.5373 32.1227 84.4242 32.4443C84.2464 32.9165 84.0774 33.4111 83.9813 33.9071C83.7204 34.6818 83.2577 35.357 83.3156 36.2135L83.2714 36.3021C82.9716 36.4233 82.8278 37.0788 82.8278 37.3663C82.9164 37.5734 82.9164 37.707 82.8278 37.7656C82.5048 38.3331 82.0708 39.8117 82.2071 40.4262C82.2071 40.5148 82.1628 40.6034 82.0742 40.6913C80.92 41.6526 80.8887 45.9621 81.01 47.2983C81.0018 47.9087 80.9548 48.6637 81.4971 49.0718C81.4024 49.082 81.63 49.2353 81.63 49.2932L81.5421 49.5596C81.5128 49.6632 81.5128 49.7668 81.5421 49.8703C81.8378 50.2546 82.2664 50.4904 82.8278 50.5789C83.1835 50.6689 84.3322 51.1186 84.4678 50.7125C84.5591 50.9039 84.6484 51.0954 84.7349 51.2889C84.9079 51.5771 85.3031 51.8667 85.6656 51.6882L88.5034 50.6239C89.4491 50.3875 90.1584 50.2246 90.6312 50.1361C90.8384 50.0768 91.2669 49.9739 91.9176 49.8254C92.3905 49.6925 92.864 49.5596 93.3369 49.4268C93.484 49.4268 93.5583 49.3975 93.5583 49.3382C93.4166 48.7815 96.4635 49.02 96.7061 48.5397C96.8669 48.1125 97.3363 48.3428 97.5039 48.0075C97.2069 47.7105 96.704 48.0293 96.4404 47.564C96.6584 47.5081 96.8505 47.4046 97.0161 47.254C97.1517 47.4407 97.2403 47.6471 97.2825 47.8747C97.4569 47.8788 97.6198 47.8345 97.7704 47.7418C97.6429 47.6791 97.5101 47.6348 97.3718 47.6083C97.4821 46.8847 98.4183 46.991 98.9675 46.899C98.9981 46.9889 99.6972 46.6748 100.12 46.589C99.6768 46.589 99.3368 46.604 99.101 46.6326C98.9818 46.6326 98.9225 46.574 98.9225 46.4554C98.7767 46.1645 99.5875 46.1005 99.721 46.1005C99.9868 46.1604 100.209 46.1161 100.387 45.9683C100.167 45.755 99.9316 45.6957 99.6768 45.7905C99.3647 45.7639 99.084 45.8525 98.8339 46.0569C98.6084 46.1522 98.4612 46.0787 98.3911 45.8354C98.6602 45.477 99.1658 45.601 99.0567 45.5247C99.4499 45.227 99.9677 45.1663 100.209 44.6819C100.323 44.7262 100.442 44.7412 100.563 44.7262C100.622 44.579 100.608 44.4019 100.52 44.1947C100.615 44.1838 100.689 44.1396 100.741 44.0612C100.622 44.0026 100.563 43.8997 100.563 43.7512L101.362 43.8398C101.444 43.8377 101.71 43.8377 101.627 43.8398C102.288 43.8234 102.855 43.3581 103.49 43.1741C104.215 43.0344 104.952 42.7285 105.618 42.4212C105.23 42.1895 105.077 42.3769 104.687 42.3769C104.148 42.4594 102.029 42.394 101.805 43.0862C101.715 42.9969 101.706 42.6638 101.717 42.5091C102.042 42.5922 102.521 42.5922 102.78 42.3326C102.551 42.2747 102.101 42.1194 101.849 42.2434C101.347 42.4451 100.439 42.5091 99.8982 42.5091C97.442 42.8171 94.9762 43.1666 92.5383 43.574C91.0809 43.7069 89.5786 44.0462 88.1927 44.5048C87.8718 44.5865 87.2157 44.9047 86.8627 44.7262C86.8041 44.4673 86.8484 44.2309 86.9956 44.0169C87.0739 43.1332 87.1823 42.351 87.3942 41.4898C87.6013 40.9877 87.7199 40.5298 87.7498 40.1149C87.7498 39.4669 88.8475 39.1814 89.3012 38.9627C89.8279 38.8305 92.3612 38.34 92.3612 37.677C92.4443 37.5912 94.0032 37.4385 94.3902 37.3472C94.9707 37.211 95.5499 37.0645 96.1297 36.9228C96.7436 36.8212 97.3077 36.5044 97.9475 36.5685C98.0647 36.5685 98.1832 36.5235 98.3025 36.4349C98.6357 36.1011 98.9218 35.9914 99.3667 36.2135H99.411C99.3334 36.1549 99.3184 36.0806 99.3667 35.9914C100.006 35.7808 100.607 35.2576 101.317 35.3264C101.317 35.1158 101.365 34.66 101.051 34.8392C100.907 34.891 100.774 34.8767 100.652 34.7942C100.58 34.4325 99.7183 34.9646 99.6325 35.0157C99.6325 34.7023 99.4253 34.5639 99.1446 34.5721C98.9075 34.8099 98.6718 34.9428 98.4353 34.9721C98.3597 34.6736 97.9795 34.8733 97.814 34.7057C97.8732 34.4692 97.9918 34.2921 98.1696 34.1742C98.5239 34.0257 98.8632 33.9521 99.1896 33.9521C99.5125 33.9065 99.8226 33.8179 100.12 33.6857L100.298 33.7307V33.5971C100.009 33.3157 99.6952 33.948 99.3667 33.5085C99.5078 33.4983 99.6263 33.4391 99.721 33.3314C99.6052 33.2946 99.5016 33.2353 99.411 33.1536C100.178 32.8981 101.007 32.8115 101.805 32.7107C101.32 32.6167 100.791 32.7645 100.298 32.755C101.42 32.4 102.795 32.0893 104.422 31.8243C103.877 31.5769 103.237 31.5844 102.647 31.6021C103.068 31.6021 103.428 31.2915 103.845 31.2915C103.562 30.4459 104.619 31.2465 104.82 30.8486C105.171 30.4977 105.694 30.7689 106.062 30.4936C106.342 30.3546 106.538 30.3199 106.505 29.9615C106.284 29.864 106.092 29.9076 105.929 30.0943C105.352 29.6624 103.29 30.1195 102.647 30.3158C101.701 30.4936 100.77 30.5822 99.8539 30.5822L101.229 30.405C101.051 30.3458 100.918 30.3158 100.83 30.3158L100.253 30.3607C100.165 30.3607 100.001 30.3314 99.7653 30.2722C99.7653 30.4323 98.5948 30.4616 98.4796 30.5379C98.1826 30.5031 97.6102 30.5209 97.3718 30.7593C94.8249 30.9508 92.4981 32.1588 90.0105 32.4L90.4991 31.07C90.9412 30.093 91.1763 29.0369 91.6076 28.0551C91.8631 27.2817 92.0328 26.4171 92.8933 26.1037C94.1545 25.4735 95.4177 24.9863 96.7947 24.6851C97.4447 24.4787 98.0068 24.3165 98.4796 24.1973C99.9766 23.967 101.54 23.5964 103.009 23.2155C102.763 23.4478 102.549 23.6543 102.395 23.8035C102.314 23.8341 102.254 23.8934 102.213 23.9813C102.156 24.0379 102.117 24.0774 102.117 24.0774L102.13 24.0965C101.964 24.3315 101.486 24.8582 101.579 25.2275C101.783 25.5082 102.017 25.7617 102.281 25.9892C102.354 26.1732 102.442 26.3517 102.54 26.5241C102.794 26.8968 103.87 28.2629 104.305 28.1573C104.52 27.9495 104.736 27.7423 104.951 27.5345C105.072 27.416 105.206 27.3138 105.353 27.2286C105.386 27.1864 105.392 27.1325 105.379 27.0698C105.455 26.9908 105.532 26.9131 105.612 26.8368C105.707 26.8511 105.803 26.8416 105.899 26.8089C106.061 26.5977 106.591 25.9177 106.668 25.8652L106.645 25.8523C106.911 25.6281 108.99 23.9534 109.109 24.0719C109.278 23.8335 110.075 23.2318 110.084 23.3184C110.144 23.3184 110.217 23.2734 110.306 23.1855C110.392 23.2802 110.821 23.9473 110.572 24.0719L110.661 24.3819C110.766 24.2947 110.826 24.1762 110.838 24.027C110.946 24.2566 111.035 24.493 111.104 24.7369C111.025 24.863 110.937 24.9808 110.838 25.0912L110.971 25.3133C110.625 25.6595 110.774 26.0867 110.439 26.4219C110.321 26.304 110.351 26.1705 110.528 26.0226C110.189 25.8782 109.88 25.8128 109.951 26.0226C109.899 26.2093 109.825 26.3865 109.73 26.5548C109.67 26.5847 109.596 26.5984 109.508 26.5984C109.449 26.7476 109.464 26.8804 109.552 26.9983C109.522 27.1462 109.508 27.324 109.508 27.5304C109.39 27.7376 109.315 27.989 109.286 28.284C109.197 28.3726 109.168 28.4911 109.197 28.639V28.9933C109.002 29.5854 108.878 29.7796 108.821 30.39C108.791 30.7116 108.914 31.0223 108.754 31.3432C108.51 31.7043 108.318 31.6723 108.266 32.1411C108.326 32.2596 108.37 32.5703 108.311 32.7175C108.207 33.1604 107.971 34.2553 107.911 34.4032C107.77 34.5789 107.823 35.6016 107.734 35.6439C107.765 35.8769 107.706 36.084 107.557 36.2653C107.471 36.4349 107.931 36.7906 107.646 36.9296C107.572 36.8485 107.498 36.7674 107.424 36.6863C107.314 36.8703 107.269 37.0699 107.291 37.2846C107.32 37.4917 107.261 37.6395 107.114 37.7281C106.936 37.8167 106.921 37.9053 107.069 37.9945C106.447 39.2223 105.739 38.7508 104.498 38.5703C103.883 38.3679 103.342 37.9536 102.679 38.1717C103.072 38.5607 103.362 39.0111 103.832 39.3245C104.009 39.5016 104.201 39.6352 104.409 39.7238L104.985 40.0787L105.517 40.4773C105.767 40.4801 106.004 40.5393 106.227 40.6545C106.556 41.0946 106.034 41.5273 106.449 41.9402C106.139 42.1166 105.976 42.3824 105.96 42.7387L106.005 43.1823C106.005 43.6851 105.649 44.8236 105.517 45.3101C105.429 45.5179 105.325 45.9465 105.207 46.5965C105.018 47.1715 105.04 47.7493 104.897 48.3257C104.709 48.8844 104.036 50.3016 104.675 50.8085C104.843 50.9762 105.566 50.9537 105.695 50.9857C105.866 51.0865 106.043 51.1751 106.227 51.2514C106.655 51.3931 108.341 51.8224 108.621 51.4735C108.665 51.1778 108.71 50.8821 108.754 50.5864C108.778 50.4188 108.822 50.256 108.886 50.0986C108.827 49.995 108.769 49.8915 108.71 49.7886C108.828 49.67 108.946 49.5515 109.065 49.4336C109.065 48.913 109.331 48.4368 109.331 47.9258C109.407 46.9201 109.768 45.9887 110.084 45.0444C110.084 44.7875 109.772 44.6921 110.084 44.3794C110.189 43.8493 110.486 43.3001 110.661 42.783C110.661 42.379 110.415 42.0301 110.882 41.763C110.975 41.671 111.197 41.6581 111.326 41.6745C111.4 41.6002 111.474 41.5266 111.548 41.453C111.665 41.408 111.784 41.3638 111.902 41.3195C112.021 41.2016 112.109 41.128 112.169 41.098C112.404 41.0394 112.641 41.0095 112.878 41.0095C112.951 41.0394 113.232 40.9209 113.232 40.9209L113.543 40.6995C114.072 40.5366 114.722 40.2981 115.183 39.9895C115.417 39.8355 115.669 39.7176 115.938 39.6352C116.144 39.6059 116.498 39.8887 116.805 40.1121C117.138 40.275 117.336 40.4146 117.4 40.5298C117.5 40.726 117.582 40.9297 117.649 41.1403C117.834 41.3093 118.019 41.4789 118.203 41.6479C118.327 41.9736 118.474 42.2481 118.813 42.3756L119.26 42.4451C119.37 42.6065 119.57 42.7714 119.491 42.6563C119.701 42.7339 119.855 42.8757 119.953 43.0801C120.104 43.2872 120.215 43.4923 120.293 43.7307C120.41 43.726 120.559 44.0898 120.628 44.2935L120.896 44.3256C121.101 44.376 121.283 44.4714 121.441 44.6131C121.656 45.0001 121.381 45.2392 121.523 45.4961C121.618 45.9451 122.353 46.2906 122.759 46.3294C122.902 46.3151 123.069 46.3164 123.204 46.3546C123.39 46.48 123.545 46.636 123.668 46.822C123.79 46.9065 123.899 47.006 123.992 47.1191C124.082 47.145 124.129 47.2315 124.136 47.3787C124.251 47.4448 124.373 47.4986 124.499 47.5401C124.662 47.8399 124.887 48.3455 125.279 48.1281C125.434 48.2426 125.56 48.385 125.653 48.5553C125.946 48.6582 127.02 49.5099 127.216 49.7736C127.367 49.8853 127.343 50.0052 127.142 50.132L127.374 50.3432C127.589 50.5265 127.804 50.7091 128.019 50.8917C128.031 51.1574 128.542 51.3577 128.395 51.3638C128.471 51.4769 128.913 52.0356 129.004 52.0915C129.293 52.3532 129.663 51.9627 129.688 52.5051C129.82 52.5289 129.912 52.5991 129.963 52.7149C129.91 52.8648 129.958 52.9514 130.108 52.9745C130.476 53.1387 130.779 53.5755 131.16 53.6831C131.367 53.6743 131.605 53.0692 131.728 53.4808C131.825 53.6552 131.569 54.2868 132.028 54.2664L132.202 54.1696C132.322 54.419 132.775 54.7508 132.973 54.5362C133.15 55.4832 134.315 55.439 134.978 55.7347C135.37 55.8457 135.702 56.2164 136.159 56.3486C136.334 56.3915 136.5 56.4582 136.656 56.5489C137.321 56.5128 137.987 56.5373 138.652 56.5046C138.863 56.6136 138.979 56.5639 139 56.3574C138.993 56.2089 139.065 56.1612 139.215 56.2143C139.321 56.2232 139.873 56.0365 139.968 56.1809C140.117 56.2041 140.264 56.1973 140.411 56.1619C140.271 55.9282 140.073 55.8035 139.818 55.7878L139.142 55.5514C139.303 55.3715 139.57 55.5473 139.712 55.3933C139.651 55.3661 139.094 55.1392 138.039 54.7126C137.476 54.4074 136.971 53.9673 136.356 53.7649C136.406 53.6034 136.385 53.4569 136.292 53.3248C136.557 53.3132 136.767 53.5251 137.055 53.5128C137.192 53.6566 137.331 53.7983 137.473 53.938L137.827 53.9223C137.861 54.0102 137.938 54.0804 138.059 54.1342C138.333 54.3004 138.603 54.406 138.872 54.4537C139.082 54.5144 140.45 55.3061 140.576 54.8673C140.253 54.2882 137.648 54.235 138.416 53.1864C138.296 53.1619 138.055 53.025 137.688 52.7749C137.981 52.5603 138.799 52.9861 139.037 53.1592L139.055 53.5578L139.276 53.5482C139.373 53.6327 139.479 53.7015 139.596 53.756C139.746 53.8208 139.982 53.8235 140.079 53.6463C140.211 53.675 140.332 53.7288 140.441 53.8078C141.084 53.7792 140.771 53.8555 141.031 54.0926C141.248 54.1097 141.361 54.0565 141.375 53.8562C141.375 53.8562 141.342 53.7683 141.274 53.5939Z" clip-rule="evenodd"/></g></g></svg>