<svg xmlns="http://www.w3.org/2000/svg" fill="none" aria-hidden="true" viewBox="0 0 197 60"><path fill="#000" d="M77.24 24.95a3.261 3.261 0 0 1-.982-.133 1.97 1.97 0 0 1-.694-.37 1.5 1.5 0 0 1-.414-.565 1.959 1.959 0 0 1-.148-.718 2.789 2.789 0 0 1-1.084-.378 2.953 2.953 0 0 1-.853-.79 3.8 3.8 0 0 1-.558-1.151 5.028 5.028 0 0 1-.2-1.462 4.859 4.859 0 0 1 .248-1.6 3.71 3.71 0 0 1 .678-1.209 2.903 2.903 0 0 1 1.013-.757 3.007 3.007 0 0 1 1.253-.264 2.929 2.929 0 0 1 2.255 1.021c.3.356.528.767.672 1.21a5.375 5.375 0 0 1 .033 3.085 3.75 3.75 0 0 1-.576 1.157 2.917 2.917 0 0 1-.883.782c-.342.196-.72.32-1.112.363.015.182.07.358.163.516a.88.88 0 0 0 .333.308c.153.081.32.133.49.155.21.028.422.04.632.038h.506v.76l-.772.003Zm-1.743-2.512c.317.003.63-.068.915-.206a2.04 2.04 0 0 0 .724-.599c.215-.29.376-.615.475-.962a4.93 4.93 0 0 0 0-2.57 2.878 2.878 0 0 0-.475-.952 2.033 2.033 0 0 0-1.64-.797 2.083 2.083 0 0 0-1.668.797c-.22.283-.381.607-.476.952a4.986 4.986 0 0 0 0 2.57c.096.348.259.675.476.962a2.054 2.054 0 0 0 1.669.805Zm5.906.735a1.551 1.551 0 0 1-1.16-.408 1.578 1.578 0 0 1-.4-1.155v-3.8h.863v3.619a1.12 1.12 0 0 0 .229.779c.199.182.465.28.735.248.309.003.613-.076.882-.229a4.47 4.47 0 0 0 .824-.618v-3.8h.87v5.265h-.88v-.79a3.43 3.43 0 0 1-.374.331c-.297.227-.635.39-.996.483-.197.05-.398.076-.6.075h.007Zm5.516-.02c-.392.022-.778-.1-1.087-.343a1.22 1.22 0 0 1-.4-.982 1.509 1.509 0 0 1 .187-.738c.147-.251.352-.463.598-.62.337-.214.703-.38 1.087-.49.54-.16 1.094-.277 1.652-.35v-.24a.872.872 0 0 0-1-.974 2.32 2.32 0 0 0-1.056.23c-.305.15-.59.339-.847.56l-.45-.536a4.105 4.105 0 0 1 1.058-.7 3.22 3.22 0 0 1 1.388-.281c.272-.006.543.034.802.119a1.312 1.312 0 0 1 .85.906c.07.24.103.49.1.74v2.325c-.002.263.01.526.035.786a1.9 1.9 0 0 0 .117.51h-.876a3.367 3.367 0 0 1-.088-.334 2.04 2.04 0 0 1-.033-.397 2.89 2.89 0 0 1-2.037.817v-.007Zm.248-.677c.336.004.669-.066.975-.204a2.9 2.9 0 0 0 .813-.565v-1.473c-.425.065-.847.155-1.262.27-.288.078-.566.19-.828.333-.18.096-.334.233-.45.4a.848.848 0 0 0-.134.462.724.724 0 0 0 .234.581c.187.141.418.21.652.196Zm4.166.599v-7.387h.857v7.385l-.857.002Zm4.282.068a1.585 1.585 0 0 1-1.15-.329 1.402 1.402 0 0 1-.32-1.015v-3.282h-.917v-.706h.911v-1.876h.863v1.876h1.364v.706h-1.358v3.094a.987.987 0 0 0 .169.628c.175.163.412.24.649.21.094 0 .188-.007.28-.02.086-.01.17-.027.253-.049v.707c-.07.012-.18.026-.33.038l-.415.02v-.002Zm1.914-.067v-5.265h.859v.973h.02c.198-.312.463-.575.776-.771a2.29 2.29 0 0 1 1.262-.315h.107l-.058.8c-.042-.01-.084-.013-.126-.01h-.122c-.388-.008-.77.1-1.098.31-.326.22-.588.524-.758.879v3.401l-.862-.002Zm4.029-6.396v-.841h.897v.841h-.897Zm.02 6.396v-5.265h.857v5.265h-.857Zm4.477.11a2.26 2.26 0 0 1-.882-.174 2.14 2.14 0 0 1-.747-.52 2.534 2.534 0 0 1-.519-.857 3.362 3.362 0 0 1-.195-1.196c-.01-.421.062-.84.21-1.235.123-.32.313-.61.556-.853.223-.216.488-.383.771-.49a2.5 2.5 0 0 1 .872-.162 2.25 2.25 0 0 1 .776.12 1.942 1.942 0 0 1 1.001.798c.111.18.208.367.29.561l-.73.302a1.888 1.888 0 0 0-.519-.78 1.254 1.254 0 0 0-.834-.267 1.504 1.504 0 0 0-.561.106 1.303 1.303 0 0 0-.491.343 1.745 1.745 0 0 0-.351.623 2.965 2.965 0 0 0-.131.94 2.36 2.36 0 0 0 .421 1.503 1.334 1.334 0 0 0 1.091.524c.296.013.587-.071.83-.239.26-.219.461-.5.583-.818l.711.277a3.554 3.554 0 0 1-.35.607 2.262 2.262 0 0 1-.458.472c-.178.135-.376.24-.587.31a2.387 2.387 0 0 1-.764.107l.007-.001Zm4.993-.013a3.059 3.059 0 0 1-1.276-.254 2.354 2.354 0 0 1-.877-.643l.516-.517c.204.213.443.39.707.522.292.141.614.212.939.204.328.02.654-.053.942-.21a.696.696 0 0 0 .324-.62.63.63 0 0 0-.338-.589 4.06 4.06 0 0 0-1.016-.345 8.802 8.802 0 0 1-.771-.222 2.238 2.238 0 0 1-.594-.295 1.271 1.271 0 0 1-.383-.435 1.34 1.34 0 0 1-.14-.637 1.308 1.308 0 0 1 .124-.561c.086-.177.209-.333.363-.455a1.8 1.8 0 0 1 .585-.31 2.46 2.46 0 0 1 .771-.115c.401-.01.8.059 1.173.205.312.133.597.321.841.556l-.449.57a2.415 2.415 0 0 0-.687-.458 2.036 2.036 0 0 0-.837-.175 1.265 1.265 0 0 0-.824.21.66.66 0 0 0-.177.218.66.66 0 0 0-.067.273.582.582 0 0 0 .309.543c.297.147.612.253.938.314l.816.231c.224.07.437.172.631.303.171.115.312.27.409.452.101.212.149.445.14.68a1.333 1.333 0 0 1-.6 1.155 2.16 2.16 0 0 1-.67.293 3.395 3.395 0 0 1-.824.104l.002.008ZM72.746 43.512V27.626h5.778c.815-.002 1.629.066 2.432.205a5.648 5.648 0 0 1 2.075.775 4.14 4.14 0 0 1 1.436 1.557c.387.795.57 1.673.534 2.556a5.26 5.26 0 0 1-.564 2.605 4.208 4.208 0 0 1-1.505 1.566 6.046 6.046 0 0 1-2.104.772c-.777.136-1.564.204-2.353.204h-2.261v5.649l-3.468-.003Zm3.47-8.346h2.39a3.56 3.56 0 0 0 2.3-.596 2.228 2.228 0 0 0 .676-1.761 2.195 2.195 0 0 0-.666-1.714 3.45 3.45 0 0 0-2.31-.603h-2.39v4.674Zm9.432 8.355V32.067h3.459v1.918h.02c.17-.263.352-.512.566-.743a4.21 4.21 0 0 1 .797-.687 4.341 4.341 0 0 1 2.494-.717h.116l-.053 3.07a4.418 4.418 0 0 0-.42-.042l-.491-.02a3.333 3.333 0 0 0-1.787.471 4.85 4.85 0 0 0-1.251 1.09v7.107l-3.45.007Zm13.144.238a7.489 7.489 0 0 1-2.085-.303 5.022 5.022 0 0 1-3.25-2.835 6.711 6.711 0 0 1-.524-2.814 6.811 6.811 0 0 1 .524-2.824 4.994 4.994 0 0 1 3.239-2.84 7.426 7.426 0 0 1 4.165 0 5.092 5.092 0 0 1 1.877.995 5.159 5.159 0 0 1 1.36 1.845c.378.892.559 1.856.53 2.824a6.644 6.644 0 0 1-.53 2.814 5.141 5.141 0 0 1-1.36 1.835 5.137 5.137 0 0 1-1.877 1c-.672.2-1.368.301-2.07.303Zm0-2.431a1.95 1.95 0 0 0 1.797-.964 4.861 4.861 0 0 0 .582-2.535 6.593 6.593 0 0 0-.13-1.337 3.227 3.227 0 0 0-.421-1.106 2.15 2.15 0 0 0-.74-.739 2.09 2.09 0 0 0-1.088-.267 1.985 1.985 0 0 0-1.83.954 4.74 4.74 0 0 0-.58 2.495c-.003.456.041.91.13 1.357.073.394.216.772.42 1.117.184.305.437.561.74.749.34.196.728.292 1.12.277v-.001Zm10.744 2.358a4.417 4.417 0 0 1-1.777-.35 3.733 3.733 0 0 1-1.393-1.052 4.995 4.995 0 0 1-.901-1.803 9.23 9.23 0 0 1-.32-2.582 9.538 9.538 0 0 1 .32-2.605 5.595 5.595 0 0 1 .912-1.898 3.84 3.84 0 0 1 1.403-1.157 4.108 4.108 0 0 1 1.797-.388 4.474 4.474 0 0 1 2.013.421 4.061 4.061 0 0 1 1.468 1.257v-5.891h3.457v13.1c-.007.565.017 1.13.07 1.693.032.377.124.747.272 1.095h-3.541a1.1 1.1 0 0 1-.11-.299 4.109 4.109 0 0 1-.079-.44 10.94 10.94 0 0 1-.052-.503l-.021-.477c-.381.527-.856.98-1.403 1.332a3.845 3.845 0 0 1-2.115.561v-.014Zm1.289-2.594c.436.003.864-.117 1.236-.345.361-.22.696-.48.996-.776v-4.224a4.403 4.403 0 0 0-1.07-.802 2.667 2.667 0 0 0-1.205-.256c-1.461 0-2.191 1.058-2.19 3.175-.037.814.15 1.622.54 2.337a1.833 1.833 0 0 0 1.693.89Zm10.712 2.661a4.684 4.684 0 0 1-1.337-.182 2.636 2.636 0 0 1-1.76-1.635 4.135 4.135 0 0 1-.245-1.515v-8.345h3.447v7.339c-.029.417.082.831.316 1.178.262.291.647.44 1.038.402a2.69 2.69 0 0 0 1.304-.33 6.82 6.82 0 0 0 1.192-.822V32.07h3.46v11.445h-3.459v-1.781c-.196.24-.404.468-.631.687a4.368 4.368 0 0 1-.854.654 5.26 5.26 0 0 1-1.106.491 4.32 4.32 0 0 1-1.37.19l.005-.002Zm14.169 0a6.875 6.875 0 0 1-2.008-.304 4.89 4.89 0 0 1-1.802-1.001 5.112 5.112 0 0 1-1.305-1.835 6.948 6.948 0 0 1-.504-2.813 6.67 6.67 0 0 1 .545-2.866 5.058 5.058 0 0 1 3.26-2.81 6.913 6.913 0 0 1 1.959-.28 6.17 6.17 0 0 1 2.002.288c.515.169.995.43 1.416.771.377.314.696.693.943 1.117.247.426.458.872.631 1.333l-2.903.964a3.116 3.116 0 0 0-.86-1.515 1.954 1.954 0 0 0-1.267-.413 1.933 1.933 0 0 0-1.663.864 4.475 4.475 0 0 0-.612 2.585c-.005.473.039.945.13 1.41.074.386.209.76.398 1.105.162.298.399.549.686.729.309.178.661.267 1.017.257a2.138 2.138 0 0 0 1.288-.44c.479-.419.816-.976.965-1.594l2.861.986a7.533 7.533 0 0 1-.701 1.294c-.282.425-.63.802-1.032 1.116a4.96 4.96 0 0 1-1.458.776 6.045 6.045 0 0 1-1.987.29l.001-.015Zm10.869-.093a7.515 7.515 0 0 1-2.044-.227 2.56 2.56 0 0 1-1.18-.654 2.082 2.082 0 0 1-.533-1.052 6.85 6.85 0 0 1-.131-1.436v-5.71h-1.908v-2.516h1.908v-3.927h3.436v3.927h2.934v2.516h-2.931v4.958a1.89 1.89 0 0 0 .319 1.268c.359.276.812.4 1.262.345a6.6 6.6 0 0 0 .635-.032 1.76 1.76 0 0 0 .508-.105v2.473c-.122.022-.245.04-.368.053l-.591.052-.687.042a9.645 9.645 0 0 1-.629.026v-.002Zm2.872-.141 5.082-8.395-4.632-7.491h3.983l2.84 4.769 2.683-4.769h3.605l-4.527 7.514 5.146 8.373h-3.878l-3.367-5.554-3.259 5.554-3.676-.001Zm15.646 0V27.626h4.612l3.541 11.685h.042l3.302-11.685h4.727v15.888h-3.375V32.675h-.042a18.175 18.175 0 0 1-.393 1.846c-.151.545-.313 1.111-.486 1.697l-2.38 7.294h-3.085l-2.357-7.294-.245-.827-.226-.797-.215-.912-.236-1.192h-.042v11.015l-3.142.014Zm19.045-13v-2.572h-.917v-.316h2.18v.316h-.921v2.572h-.342Zm1.744 0v-2.893h.448l.912 2.454h.007l.893-2.454h.457v2.888h-.339v-2.338h-.008l-.079.25-.098.281-.689 1.806h-.309l-.689-1.806a1.115 1.115 0 0 1-.049-.14l-.042-.125-.042-.13-.047-.154h-.007v2.349l-.319.012Z"/><path fill="#00B4EF" d="M19.944 4.925h11.544v37.709c-.009 6.371-5.173 11.534-11.544 11.541H8.401V16.468c.007-6.372 5.171-11.536 11.543-11.543Zm26.165 0H34.566v36.94H46.11A11.557 11.557 0 0 0 57.653 30.32V16.468A11.557 11.557 0 0 0 46.107 4.925h.002Z"/></svg>