<svg xmlns="http://www.w3.org/2000/svg" fill="none" aria-hidden="true" viewBox="0 0 182 64"><path fill="#000" d="M61.693 38.44c-1.06 0-1.272-.782-1.272-2.133V22.87c0-4.593-2.59-7.328-6.934-7.328-5.182 0-7.537 3.986-7.578 7.936v.162h3.474v-.163a5.017 5.017 0 0 1 1.328-3.595 3.616 3.616 0 0 1 2.632-1.094c2.075 0 3.314 1.62 3.314 4.332v1.26l-4.134 1.962c-4.689 2.193-7.762 3.976-7.762 8.603 0 4.062 2.556 6.79 6.36 6.79a7.608 7.608 0 0 0 5.826-3.01 3.887 3.887 0 0 0 3.957 3.01 5.713 5.713 0 0 0 2.14-.441l.1-.041v-3.281l-.236.13a2.19 2.19 0 0 1-1.215.338ZM56.66 27.71v7.837a6.054 6.054 0 0 1-4.711 3.037 3.261 3.261 0 0 1-3.423-3.601c0-3.098 2.71-4.748 5.065-5.84l3.069-1.433ZM81.025 8.046h-3.66l-.135 7.998h-3.351v3.415h3.348V35.98c0 3.709 1.737 5.75 4.891 5.75a7.537 7.537 0 0 0 3.734-1.06l.082-.045v-3.444l-.263.215a4.239 4.239 0 0 1-2.621 1.038c-1.674 0-2.025-1.393-2.025-2.562V19.465h5.393V16.05h-5.393V8.046Zm-44.032 27.28c-1.432 2.077-3.08 3.22-4.64 3.22-2.048 0-2.777-2.008-2.777-3.886V16.043h-3.762v18.795c0 4.383 1.978 6.898 5.429 6.898a7.23 7.23 0 0 0 5.826-3.013l.063 2.547h3.623V16.043h-3.763l.001 19.282ZM17.547 18.334a5.307 5.307 0 0 0-4.903-2.757 6.808 6.808 0 0 0-5.48 2.944C5.43 20.846 4.55 24.26 4.55 28.674c0 9.657 3.903 13.097 7.556 13.097a6.13 6.13 0 0 0 5-2.355v20.03h3.802V16.043H17.65l-.103 2.292Zm-.44 3.486v13.8c-1.047 1.892-2.317 2.775-3.996 2.775-3.11 0-4.685-3.284-4.685-9.758 0-6.223 1.774-9.792 4.864-9.792a4.106 4.106 0 0 1 3.817 2.975ZM66.196 4.254h3.761V41.27h-3.761V4.254Zm38.142 11.79h3.762V41.27h-3.762V16.044Zm.035-8.032h3.727v4.368h-3.727V8.012ZM93.931 18.99l-.19-2.944h-3.573v25.263h3.763V23.124c1.705-3.46 3.91-3.94 6.025-3.94l.891.072V15.58h-1.02c-2.68-.002-4.156.835-5.896 3.41Zm44.947 7.297-.097.132.075-.142c-2.361-1.219-4.033-2.246-4.033-4.372a2.997 2.997 0 0 1 2-2.919c.399-.14.822-.194 1.243-.158a3.296 3.296 0 0 1 2.53 1.042 4.611 4.611 0 0 1 .964 3.56l-.017.177h3.485l.008-.153a7.843 7.843 0 0 0-1.928-5.876 6.713 6.713 0 0 0-5.005-2.002c-4.062 0-6.898 2.689-6.898 6.539 0 4.195 3.363 5.994 5.818 7.309 2.454 1.314 4.753 2.58 4.753 5.197a3.684 3.684 0 0 1-3.817 3.807c-2.408 0-4.141-2.024-4.211-4.922v-.158h-3.515v.165c.118 5.092 3.073 8.255 7.722 8.255a6.987 6.987 0 0 0 7.435-7.327c.003-4.705-3.459-6.54-6.512-8.153Zm-14.683 7.066a6.419 6.419 0 0 1-1.399 4.147 2.977 2.977 0 0 1-2.238.932c-2.896 0-4.425-3.374-4.425-9.756 0-6.352 1.584-9.85 4.461-9.85a2.79 2.79 0 0 1 2.084.865 5.995 5.995 0 0 1 1.33 3.849h3.561a8.873 8.873 0 0 0-2.088-6.149 6.293 6.293 0 0 0-4.744-1.848c-5.396 0-8.361 4.651-8.361 13.098 0 8.446 2.883 13.097 8.116 13.097 4.215 0 6.852-3.113 7.184-8.386h-3.481Zm26.529 5.895a.978.978 0 0 0 .118-.485.819.819 0 0 0-.236-.626.988.988 0 0 0-.706-.227h-1.342v2.693h.666v-.962h.508l.454.962h.75l-.575-1.045a.692.692 0 0 0 .363-.31Zm-.665-.213a.766.766 0 0 1-.365.07h-.471v-.686h.471a.66.66 0 0 1 .365.084.306.306 0 0 1 .126.276.263.263 0 0 1-.126.256Z"/><path fill="#000" d="M151.868 38.274a2.275 2.275 0 0 0-1.272-1.244 2.65 2.65 0 0 0-1.896 0 2.336 2.336 0 0 0-.765.49 2.266 2.266 0 0 0-.508.754 2.685 2.685 0 0 0 0 1.956c.116.287.289.547.508.765.219.215.479.383.765.494a2.65 2.65 0 0 0 1.896 0 2.27 2.27 0 0 0 1.272-1.258 2.685 2.685 0 0 0 0-1.957Zm-.464 1.767a1.9 1.9 0 0 1-.403.616c-.17.174-.375.31-.601.398a2.037 2.037 0 0 1-1.48 0 1.715 1.715 0 0 1-.601-.398 1.9 1.9 0 0 1-.403-.616 2.155 2.155 0 0 1 0-1.572 1.9 1.9 0 0 1 .403-.616c.17-.173.375-.31.601-.398a2.037 2.037 0 0 1 1.48 0c.226.09.431.225.601.398.169.173.31.386.403.616a2.155 2.155 0 0 1 0 1.572Z"/><path fill="url(#a)" d="m172.789 7.88-3.254 11.517h-.041l-3.491-11.516h-7.721l-2.644 4.7-2.799-4.7h-3.926l4.565 7.385-5.009 8.273h3.615l3.212-5.475 3.326 5.475h5.924V12.683h.041c.083.455.161.844.236 1.167.074.324.145.623.212.899l.221.785.243.817 2.325 7.184h3.046l2.345-7.184a95.19 95.19 0 0 0 .481-1.674c.161-.599.29-1.206.387-1.818h.041v10.68h3.326V7.876l-4.661.005Zm-15.416 7.406 4.085-6.781V21.93l-4.085-6.645Z"/><defs><linearGradient id="a" x1="152.324" x2="161.576" y1="8.001" y2="30.93" gradientUnits="userSpaceOnUse"><stop offset=".042" stop-color="#21DBAA"/><stop offset=".358" stop-color="#00B4EF"/><stop offset=".433" stop-color="#01A7EC"/><stop offset=".568" stop-color="#0487E4"/><stop offset=".68" stop-color="#0768DD"/><stop offset=".965" stop-color="#5F1AE5"/></linearGradient></defs></svg>