<svg xmlns="http://www.w3.org/2000/svg" fill="none" aria-hidden="true" viewBox="0 0 197 60"><path fill="#000" d="M77.24 24.95a3.262 3.262 0 0 1-.982-.133 1.972 1.972 0 0 1-.694-.37 1.502 1.502 0 0 1-.414-.565 1.955 1.955 0 0 1-.148-.719 2.789 2.789 0 0 1-1.084-.377 2.953 2.953 0 0 1-.853-.79 3.808 3.808 0 0 1-.558-1.152 5.028 5.028 0 0 1-.2-1.461 4.861 4.861 0 0 1 .249-1.6 3.69 3.69 0 0 1 .677-1.209 2.903 2.903 0 0 1 1.013-.757 3.01 3.01 0 0 1 1.253-.264 2.929 2.929 0 0 1 2.255 1.021c.3.356.528.766.672 1.21a5.376 5.376 0 0 1 .033 3.085 3.752 3.752 0 0 1-.576 1.157 2.917 2.917 0 0 1-.883.782c-.341.196-.72.32-1.112.363.015.182.07.358.163.516.083.13.197.236.333.308.153.081.32.133.49.155.21.028.422.04.632.038h.506v.76l-.772.002Zm-1.743-2.512c.317.002.63-.068.915-.206a2.04 2.04 0 0 0 .724-.599 2.97 2.97 0 0 0 .475-.963 4.928 4.928 0 0 0 0-2.57 2.874 2.874 0 0 0-.475-.952 2.035 2.035 0 0 0-1.64-.796 2.083 2.083 0 0 0-1.668.797c-.22.283-.381.607-.476.952a4.986 4.986 0 0 0 0 2.57c.096.348.259.675.476.962a2.055 2.055 0 0 0 1.669.805Zm5.906.735a1.55 1.55 0 0 1-1.16-.408 1.579 1.579 0 0 1-.4-1.155v-3.8h.863v3.619a1.12 1.12 0 0 0 .229.779c.199.182.465.28.735.248.309.003.613-.076.882-.229.297-.174.574-.381.824-.618v-3.8h.87v5.265h-.88v-.79c-.116.12-.241.23-.374.331-.296.226-.635.39-.996.483-.197.05-.398.075-.6.075h.007Zm5.516-.02c-.392.022-.778-.1-1.087-.343a1.221 1.221 0 0 1-.4-.982 1.508 1.508 0 0 1 .187-.738c.147-.251.352-.463.598-.62.337-.214.703-.38 1.087-.49.54-.16 1.094-.277 1.652-.351v-.239a.871.871 0 0 0-1-.974 2.321 2.321 0 0 0-1.056.23 4.11 4.11 0 0 0-.847.56l-.45-.536a4.12 4.12 0 0 1 1.058-.701 3.24 3.24 0 0 1 1.388-.28c.272-.007.543.034.802.119a1.312 1.312 0 0 1 .851.906c.069.24.102.49.1.74v2.325c-.003.262.008.525.034.786.016.175.055.346.117.51h-.876a3.368 3.368 0 0 1-.088-.334 2.031 2.031 0 0 1-.033-.397 2.89 2.89 0 0 1-2.036.817l-.001-.007Zm.248-.677c.336.004.669-.066.975-.204a2.9 2.9 0 0 0 .813-.565v-1.473c-.425.065-.847.155-1.262.27a3.71 3.71 0 0 0-.827.333 1.28 1.28 0 0 0-.451.4.848.848 0 0 0-.134.462.722.722 0 0 0 .234.58.974.974 0 0 0 .652.197Zm4.166.599v-7.387h.857v7.384l-.857.003Zm4.282.068a1.585 1.585 0 0 1-1.15-.329 1.403 1.403 0 0 1-.32-1.015v-3.282h-.917v-.706h.911v-1.876h.863v1.876h1.364v.706h-1.358v3.094a.989.989 0 0 0 .169.627.796.796 0 0 0 .649.21c.094 0 .188-.006.28-.02.086-.01.17-.026.253-.048v.706c-.07.013-.18.026-.33.039l-.415.02v-.002Zm1.915-.067V17.81h.858v.973h.02c.198-.312.463-.575.776-.771.381-.225.82-.335 1.262-.315h.107l-.058.8c-.042-.01-.084-.013-.126-.01h-.122c-.388-.008-.77.1-1.097.31-.327.22-.589.523-.759.879v3.401l-.862-.002Zm4.028-6.396v-.841h.897v.841h-.897Zm.02 6.396V17.81h.857v5.265h-.857Zm4.477.11a2.26 2.26 0 0 1-.882-.175 2.14 2.14 0 0 1-.747-.519 2.535 2.535 0 0 1-.519-.857 3.384 3.384 0 0 1-.195-1.196c-.01-.421.062-.84.211-1.235.122-.32.312-.61.555-.853.223-.216.488-.383.771-.49a2.5 2.5 0 0 1 .872-.162 2.28 2.28 0 0 1 .776.12 1.946 1.946 0 0 1 1.001.798c.111.18.208.367.29.561l-.73.302a1.888 1.888 0 0 0-.519-.78 1.254 1.254 0 0 0-.834-.267 1.508 1.508 0 0 0-.561.105 1.302 1.302 0 0 0-.491.344 1.745 1.745 0 0 0-.351.623 2.965 2.965 0 0 0-.131.94 2.36 2.36 0 0 0 .421 1.503 1.335 1.335 0 0 0 1.091.524c.296.013.587-.071.831-.24.259-.218.46-.5.582-.817l.711.277a3.554 3.554 0 0 1-.35.607 2.262 2.262 0 0 1-.458.472c-.178.135-.376.24-.587.31a2.387 2.387 0 0 1-.764.106h.007Zm4.993-.013a3.057 3.057 0 0 1-1.276-.254 2.354 2.354 0 0 1-.877-.643l.516-.517c.204.213.443.39.707.522.292.141.614.211.939.204.328.02.654-.053.942-.21a.696.696 0 0 0 .324-.62.629.629 0 0 0-.338-.59 4.063 4.063 0 0 0-1.016-.344 8.872 8.872 0 0 1-.771-.222 2.238 2.238 0 0 1-.594-.295 1.269 1.269 0 0 1-.382-.435 1.33 1.33 0 0 1-.141-.637 1.309 1.309 0 0 1 .124-.561 1.32 1.32 0 0 1 .363-.455 1.81 1.81 0 0 1 .585-.31c.249-.08.51-.118.771-.115.401-.011.8.059 1.173.205.312.133.597.321.841.555l-.448.57a2.434 2.434 0 0 0-.688-.457 2.036 2.036 0 0 0-.837-.176 1.264 1.264 0 0 0-.824.21.644.644 0 0 0-.243.492.58.58 0 0 0 .308.543c.297.147.612.253.938.314l.816.231c.224.07.437.172.631.303.171.115.312.27.409.452.101.212.149.445.14.68a1.333 1.333 0 0 1-.6 1.155c-.21.136-.431.235-.67.292a3.385 3.385 0 0 1-.824.105l.002.008ZM72.746 43.512V27.626h5.778c.815-.002 1.629.066 2.432.205a5.653 5.653 0 0 1 2.076.775c.605.386 1.1.922 1.435 1.556.387.796.57 1.674.534 2.557a5.26 5.26 0 0 1-.564 2.605 4.209 4.209 0 0 1-1.505 1.566 6.044 6.044 0 0 1-2.104.771c-.777.137-1.564.205-2.353.205h-2.261v5.648l-3.468-.002Zm3.47-8.346h2.39a3.56 3.56 0 0 0 2.3-.596 2.228 2.228 0 0 0 .676-1.761 2.195 2.195 0 0 0-.666-1.714 3.45 3.45 0 0 0-2.31-.603h-2.39v4.674Zm9.432 8.355V32.067h3.459v1.918h.02c.17-.263.352-.512.566-.743.236-.261.504-.492.797-.687a4.34 4.34 0 0 1 2.494-.717h.116l-.052 3.07a4.418 4.418 0 0 0-.421-.042l-.491-.021a3.334 3.334 0 0 0-1.787.472c-.477.288-.9.657-1.251 1.09v7.107l-3.45.007Zm13.144.238a7.492 7.492 0 0 1-2.085-.303 5.022 5.022 0 0 1-3.25-2.835 6.713 6.713 0 0 1-.524-2.814 6.81 6.81 0 0 1 .524-2.825 4.993 4.993 0 0 1 3.239-2.84 7.426 7.426 0 0 1 4.165 0 5.094 5.094 0 0 1 1.877.996 5.173 5.173 0 0 1 1.361 1.845 6.74 6.74 0 0 1 .529 2.824 6.658 6.658 0 0 1-.529 2.814 5.156 5.156 0 0 1-1.361 1.834 5.139 5.139 0 0 1-1.877 1.001c-.672.2-1.368.301-2.07.303Zm0-2.431a1.95 1.95 0 0 0 1.797-.964 4.86 4.86 0 0 0 .582-2.536 6.593 6.593 0 0 0-.13-1.336 3.228 3.228 0 0 0-.421-1.106 2.15 2.15 0 0 0-.74-.739 2.09 2.09 0 0 0-1.088-.267 1.985 1.985 0 0 0-1.83.954 4.741 4.741 0 0 0-.58 2.495c-.002.456.041.91.13 1.357.074.394.216.772.42 1.117.184.304.437.561.74.748.34.197.728.293 1.12.278v-.001Zm10.744 2.358a4.419 4.419 0 0 1-1.777-.35 3.733 3.733 0 0 1-1.393-1.052 4.995 4.995 0 0 1-.901-1.803 9.23 9.23 0 0 1-.32-2.583 9.538 9.538 0 0 1 .32-2.604 5.595 5.595 0 0 1 .912-1.898 3.84 3.84 0 0 1 1.403-1.157 4.105 4.105 0 0 1 1.797-.388 4.474 4.474 0 0 1 2.013.421 4.061 4.061 0 0 1 1.468 1.257v-5.891h3.457v13.1c-.007.565.017 1.13.07 1.693.032.377.124.747.272 1.095h-3.541a1.1 1.1 0 0 1-.11-.3 4.102 4.102 0 0 1-.079-.44 10.94 10.94 0 0 1-.052-.502l-.021-.477c-.381.527-.856.98-1.403 1.332a3.845 3.845 0 0 1-2.115.561v-.014Zm1.289-2.594c.436.003.864-.117 1.236-.346a5.38 5.38 0 0 0 .996-.775v-4.224a4.4 4.4 0 0 0-1.07-.802 2.666 2.666 0 0 0-1.205-.256c-1.461 0-2.19 1.058-2.19 3.175-.036.814.15 1.622.54 2.337a1.833 1.833 0 0 0 1.693.89Zm10.712 2.66a4.684 4.684 0 0 1-1.337-.181 2.636 2.636 0 0 1-1.76-1.635 4.134 4.134 0 0 1-.245-1.515v-8.345h3.447v7.339a1.88 1.88 0 0 0 .316 1.178c.262.29.647.44 1.038.402.455.002.904-.112 1.304-.33a6.783 6.783 0 0 0 1.192-.822V32.07h3.46v11.445h-3.459v-1.782a7.84 7.84 0 0 1-.631.688 4.372 4.372 0 0 1-.854.654c-.348.206-.719.37-1.106.491a4.32 4.32 0 0 1-1.37.19l.005-.002Zm14.169 0a6.872 6.872 0 0 1-2.008-.303 4.888 4.888 0 0 1-1.802-1.001 5.113 5.113 0 0 1-1.305-1.835 6.948 6.948 0 0 1-.504-2.813 6.67 6.67 0 0 1 .545-2.867 5.058 5.058 0 0 1 3.26-2.808 6.909 6.909 0 0 1 1.959-.28 6.17 6.17 0 0 1 2.002.287c.515.168.995.43 1.416.771a4.2 4.2 0 0 1 .943 1.117c.247.426.458.872.631 1.333l-2.903.964a3.122 3.122 0 0 0-.859-1.515 1.958 1.958 0 0 0-1.268-.413 1.93 1.93 0 0 0-1.662.864 4.468 4.468 0 0 0-.613 2.584 6.95 6.95 0 0 0 .13 1.41c.074.387.209.76.398 1.106.162.298.399.549.686.729.309.178.661.267 1.017.256a2.137 2.137 0 0 0 1.288-.44c.479-.418.816-.975.965-1.593l2.861.986a7.54 7.54 0 0 1-.701 1.294c-.282.425-.63.802-1.032 1.116a4.96 4.96 0 0 1-1.458.776 6.043 6.043 0 0 1-1.987.29l.001-.015Zm10.869-.093a7.515 7.515 0 0 1-2.044-.226 2.56 2.56 0 0 1-1.18-.654 2.082 2.082 0 0 1-.533-1.052 6.85 6.85 0 0 1-.131-1.436V34.58h-1.908v-2.515h1.908v-3.927h3.436v3.927h2.934v2.516h-2.931v4.958a1.89 1.89 0 0 0 .319 1.268c.359.276.813.4 1.262.345.212 0 .424-.011.635-.032.173-.01.351-.045.508-.105v2.473a5.713 5.713 0 0 1-.368.052l-.591.053-.687.042a9.569 9.569 0 0 1-.629.025v-.001Zm2.872-.14 5.083-8.395-4.633-7.491h3.983l2.84 4.769 2.684-4.77h3.604l-4.527 7.515 5.146 8.373h-3.878l-3.367-5.554-3.259 5.554-3.676-.001Zm15.646 0V27.626h4.612l3.541 11.685h.043l3.301-11.685h4.727v15.888h-3.375V32.675h-.042a18.44 18.44 0 0 1-.392 1.846c-.151.545-.314 1.11-.487 1.697l-2.38 7.294h-3.085l-2.357-7.294-.245-.827-.226-.797-.215-.912-.236-1.192h-.042v11.015l-3.142.014Zm19.045-13v-2.573h-.917v-.315h2.18v.315h-.92v2.573h-.343Zm1.744 0v-2.893h.449l.911 2.454h.007l.893-2.454h.457v2.888h-.338v-2.338h-.009l-.078.25-.099.281-.689 1.806h-.309l-.689-1.806a1.115 1.115 0 0 1-.049-.14l-.042-.125-.042-.13-.046-.155h-.007v2.35l-.32.012Z"/><path fill="#00B4EF" d="M19.944 4.925h11.544v37.709c-.009 6.371-5.173 11.534-11.544 11.541H8.401V16.468c.007-6.372 5.171-11.536 11.543-11.543Zm26.166 0H34.566v36.94H46.11A11.557 11.557 0 0 0 57.653 30.32V16.468A11.558 11.558 0 0 0 46.108 4.925h.002Z"/></svg>