<svg xmlns="http://www.w3.org/2000/svg" fill="none" aria-hidden="true" viewBox="0 0 197 60"><g id="Qualtrics Product Experience"><g id="Group"><g id="Vector"><path fill="black" d="M77.2395 24.9506C76.9073 24.9564 76.5762 24.9115 76.2577 24.8173C76.0039 24.7415 75.768 24.6153 75.5641 24.4463C75.3833 24.2935 75.2413 24.1 75.1496 23.8818C75.0555 23.6539 75.0053 23.4102 75.0016 23.1636C74.618 23.1146 74.2492 22.9855 73.9181 22.7864C73.5841 22.5823 73.294 22.3139 73.0647 21.9967C72.815 21.6469 72.6265 21.2573 72.5071 20.8445C72.369 20.3698 72.3017 19.8773 72.3073 19.383C72.3 18.8396 72.3839 18.2989 72.5555 17.7833C72.7029 17.3411 72.9328 16.9309 73.233 16.5743C73.511 16.2504 73.857 15.9918 74.2463 15.8169C74.6401 15.6401 75.0673 15.5502 75.4989 15.5532C75.9288 15.5504 76.3544 15.6401 76.7458 15.8169C77.1329 15.9929 77.4768 16.2514 77.7535 16.5743C78.0538 16.93 78.2822 17.3406 78.4261 17.7833C78.7382 18.7862 78.7501 19.8591 78.459 20.869C78.3353 21.2852 78.1402 21.6767 77.8826 22.0261C77.6448 22.3441 77.3446 22.6102 77.0003 22.8081C76.6584 23.0041 76.2798 23.1275 75.8881 23.1707C75.9028 23.3528 75.9584 23.5292 76.0508 23.6868C76.1335 23.8165 76.2483 23.9228 76.3839 23.9954C76.5368 24.0762 76.7032 24.1285 76.8748 24.1497C77.0838 24.1777 77.2956 24.1896 77.506 24.1882H78.0123V24.9484L77.2395 24.9506ZM75.4968 22.4378C75.8136 22.4405 76.1267 22.3702 76.412 22.2323C76.6965 22.0917 76.9443 21.8866 77.1357 21.6334C77.351 21.3438 77.5123 21.0177 77.6105 20.6705C77.8376 19.8291 77.8376 18.9424 77.6105 18.101C77.5128 17.7568 77.3518 17.4338 77.1357 17.1486C76.9433 16.8975 76.695 16.6947 76.4104 16.5564C76.1259 16.4182 75.8131 16.3481 75.4968 16.3519C75.1742 16.3483 74.8552 16.4186 74.564 16.5574C74.2768 16.6956 74.0251 16.8979 73.8284 17.1486C73.6089 17.4319 73.4469 17.7559 73.3515 18.101C73.127 18.9428 73.127 19.8287 73.3515 20.6705C73.4483 21.0191 73.611 21.3459 73.8284 21.6334C74.0235 21.8877 74.2755 22.0928 74.564 22.2323C74.8552 22.3704 75.1745 22.4406 75.4968 22.4378ZM81.4031 23.1728C81.1922 23.1876 80.9805 23.159 80.781 23.089C80.5815 23.0189 80.3985 22.9088 80.2431 22.7653C80.103 22.609 79.9954 22.4262 79.9268 22.2277C79.8581 22.0293 79.8298 21.8191 79.8434 21.6096V17.8099H80.706V21.4286C80.6823 21.7078 80.7638 21.9857 80.9346 22.2078C81.1338 22.3901 81.4003 22.4883 81.6696 22.456C81.9787 22.4589 82.283 22.3801 82.5518 22.2274C82.8494 22.0537 83.1259 21.8461 83.3758 21.6089V17.8092H84.2454V23.0739H83.3667V22.2842C83.2496 22.4034 83.1248 22.5142 82.9915 22.6152C82.6955 22.8416 82.3568 23.0057 81.9957 23.0977C81.7993 23.1482 81.598 23.1735 81.3961 23.1728H81.4031ZM86.9188 23.1538C86.5269 23.1752 86.1407 23.0531 85.8325 22.8102C85.6963 22.6871 85.5896 22.535 85.5204 22.365C85.4512 22.195 85.4212 22.0116 85.4327 21.8284C85.4305 21.5704 85.4945 21.3161 85.6186 21.0899C85.7661 20.839 85.9712 20.6268 86.2168 20.4707C86.5537 20.2558 86.9198 20.0905 87.3038 19.9798C87.8438 19.8206 88.3978 19.7027 88.9561 19.6291V19.3907C88.9911 19.1186 88.8964 18.8451 88.7001 18.6543C88.603 18.5598 88.4854 18.4891 88.3564 18.4478C88.2274 18.4064 88.0906 18.3955 87.9567 18.4159C87.5913 18.408 87.2292 18.4866 86.8999 18.6452C86.5953 18.7964 86.3108 18.9849 86.0527 19.2062L85.6039 18.6704C85.9178 18.3835 86.2743 18.1469 86.6607 17.9691C87.0972 17.7744 87.5714 17.6786 88.0493 17.6886C88.3213 17.6825 88.5924 17.7228 88.8509 17.8078C89.0563 17.878 89.2422 17.9951 89.393 18.1585C89.5381 18.317 89.644 18.507 89.7015 18.7139C89.7708 18.9546 89.8043 19.2041 89.8011 19.4545V21.7786C89.799 22.0416 89.8102 22.3046 89.8362 22.5654C89.8514 22.7398 89.8908 22.9111 89.9533 23.0746H89.0767C89.0402 22.961 89.0122 22.8502 88.989 22.7408C88.9652 22.6096 88.954 22.4771 88.9561 22.3438C88.4112 22.8736 87.6795 23.1674 86.9195 23.1615L86.9188 23.1538ZM87.167 22.4764C87.5031 22.4804 87.8358 22.4105 88.1419 22.2716C88.4433 22.1314 88.7185 21.9404 88.9554 21.7071V20.2343C88.5296 20.2992 88.1081 20.3894 87.693 20.5043C87.4048 20.5817 87.1269 20.6935 86.8655 20.8374C86.6853 20.9328 86.531 21.0703 86.4146 21.2372C86.3263 21.3751 86.2797 21.5356 86.2806 21.6993C86.2736 21.8075 86.291 21.9159 86.3315 22.0164C86.3721 22.1169 86.4347 22.207 86.5148 22.28C86.7018 22.4212 86.9332 22.4908 87.167 22.4764ZM91.3328 23.0746V15.6878H92.1897V23.0725L91.3328 23.0746ZM95.6149 23.1433C95.2035 23.1879 94.791 23.0699 94.4654 22.8144C94.229 22.5313 94.1136 22.1665 94.1443 21.7989V18.5169H93.2277V17.8113H94.1393V15.9354H95.0019V17.8113H96.366V18.5169H95.0083V21.611C94.992 21.8332 95.0513 22.0544 95.1766 22.2386C95.3519 22.402 95.5889 22.4792 95.826 22.449C95.9198 22.4488 96.0136 22.442 96.1065 22.4287C96.1917 22.4185 96.276 22.4024 96.359 22.3803V23.0865C96.2888 23.0991 96.1787 23.1125 96.0293 23.1251L95.6142 23.1447L95.6149 23.1433ZM97.5294 23.076V17.8106H98.3878V18.784H98.4074C98.6056 18.4724 98.8708 18.2088 99.1838 18.0126C99.5653 17.788 100.004 17.6786 100.446 17.6977H100.553L100.495 18.4972C100.453 18.4881 100.411 18.4853 100.369 18.4881H100.247C99.8585 18.4799 99.4764 18.5876 99.1494 18.7974C98.823 19.0179 98.5614 19.3215 98.3913 19.6768V23.0781L97.5294 23.076ZM101.558 16.6802V15.8386H102.455V16.6802H101.558ZM101.578 23.076V17.8106H102.435V23.076H101.578ZM106.055 23.1868C105.752 23.1875 105.452 23.1279 105.173 23.0115C104.89 22.8944 104.635 22.7169 104.426 22.4925C104.198 22.2443 104.021 21.9529 103.907 21.6355C103.77 21.2517 103.704 20.8464 103.712 20.4391C103.702 20.0178 103.774 19.5985 103.922 19.2041C104.045 18.8839 104.235 18.5933 104.478 18.3513C104.701 18.1353 104.966 17.9684 105.249 17.8604C105.528 17.7552 105.823 17.7005 106.121 17.6991C106.385 17.6935 106.647 17.7342 106.897 17.8184C107.108 17.8925 107.304 18.0021 107.477 18.1424C107.643 18.2759 107.785 18.4364 107.898 18.6171C108.009 18.7962 108.106 18.9838 108.188 19.1782L107.458 19.4797C107.353 19.1807 107.175 18.9128 106.939 18.7006C106.702 18.5142 106.406 18.4193 106.105 18.4334C105.913 18.4324 105.722 18.4681 105.544 18.5386C105.356 18.6133 105.188 18.7309 105.053 18.8822C104.894 19.0634 104.775 19.2754 104.702 19.505C104.608 19.8093 104.564 20.1269 104.571 20.4454C104.537 20.9796 104.685 21.5097 104.992 21.9483C105.12 22.1156 105.285 22.2502 105.475 22.3413C105.664 22.4324 105.873 22.4772 106.083 22.4722C106.379 22.4848 106.67 22.4009 106.913 22.233C107.173 22.0142 107.374 21.7323 107.496 21.4146L108.207 21.6916C108.111 21.9051 107.993 22.1085 107.857 22.2989C107.728 22.4777 107.574 22.6367 107.399 22.7709C107.221 22.9057 107.023 23.0104 106.812 23.0809C106.565 23.1576 106.307 23.1936 106.048 23.1875L106.055 23.1868ZM111.048 23.1728C110.61 23.1807 110.174 23.0941 109.772 22.9189C109.434 22.7762 109.133 22.5562 108.895 22.2765L109.411 21.759C109.615 21.9723 109.854 22.1488 110.118 22.2807C110.41 22.4224 110.732 22.4925 111.057 22.4855C111.385 22.5051 111.711 22.4322 111.999 22.2751C112.212 22.1348 112.336 21.9055 112.323 21.6559C112.329 21.5355 112.3 21.416 112.24 21.3114C112.18 21.2069 112.091 21.1218 111.985 21.0661C111.663 20.9065 111.321 20.7905 110.969 20.721C110.689 20.6528 110.431 20.5787 110.198 20.4987C109.986 20.4304 109.786 20.3311 109.604 20.2042C109.444 20.0906 109.314 19.9419 109.221 19.7694C109.123 19.5718 109.074 19.3527 109.081 19.1319C109.08 18.9376 109.123 18.7462 109.205 18.5709C109.291 18.3939 109.414 18.2384 109.568 18.1157C109.742 17.9775 109.94 17.8727 110.153 17.8064C110.402 17.727 110.663 17.6882 110.924 17.6914C111.325 17.6802 111.724 17.7498 112.097 17.8962C112.409 18.029 112.694 18.2172 112.938 18.4516L112.489 19.0218C112.288 18.831 112.056 18.676 111.802 18.5638C111.539 18.4467 111.253 18.3871 110.965 18.3885C110.673 18.3605 110.381 18.4376 110.141 18.5989C110.067 18.6579 110.007 18.7324 109.964 18.8172C109.922 18.9021 109.9 18.9951 109.897 19.0898C109.886 19.3156 110.006 19.5281 110.206 19.6333C110.503 19.7801 110.818 19.8856 111.144 19.9468L111.96 20.1782C112.184 20.2481 112.397 20.3501 112.591 20.4812C112.762 20.5963 112.903 20.7516 113 20.9335C113.101 21.1453 113.149 21.3785 113.14 21.6131C113.147 21.8408 113.095 22.0663 112.99 22.2684C112.885 22.4705 112.73 22.6425 112.54 22.7681C112.33 22.9042 112.109 23.0031 111.87 23.0606C111.601 23.129 111.324 23.1641 111.046 23.1651L111.048 23.1728ZM72.7456 43.5118V27.626H78.5243C79.3391 27.6238 80.1526 27.6923 80.9557 27.8308C81.692 27.95 82.3975 28.213 83.0315 28.6064C83.6369 28.9919 84.1316 29.5281 84.4671 30.1626C84.8542 30.9579 85.0372 31.8359 85.0014 32.7195C85.0397 33.6218 84.8453 34.5187 84.4369 35.3241C84.0809 35.9688 83.562 36.5088 82.9319 36.8901C82.2848 37.2761 81.5713 37.5378 80.828 37.6616C80.0511 37.7977 79.2639 37.8662 78.4752 37.8663H76.2135V43.5146L72.7456 43.5118ZM76.2156 35.1663H78.6056C79.4191 35.2365 80.2326 35.0261 80.9059 34.5702C81.3813 34.1123 81.6282 33.4671 81.5819 32.8086C81.6014 32.4919 81.552 32.1747 81.4371 31.8789C81.3222 31.5832 81.1446 31.3158 80.9164 31.0953C80.2427 30.6258 79.4236 30.4119 78.6063 30.4922H76.2163L76.2156 35.1663ZM85.648 43.5209V32.0673H89.1068V33.9854H89.1279C89.2962 33.7224 89.4785 33.4734 89.6931 33.242C89.9289 32.9807 90.1966 32.7501 90.4898 32.5554C91.2287 32.0675 92.0991 31.8171 92.9843 31.838H93.1L93.0474 34.9083C92.9773 34.8956 92.837 34.8802 92.6266 34.8662L92.1357 34.8452C91.5074 34.8311 90.8874 34.9945 90.3488 35.3171C89.8723 35.6056 89.4491 35.974 89.0977 36.4062V43.5139L85.648 43.5209ZM98.7918 43.7593C98.0859 43.7569 97.384 43.6546 96.7068 43.4557C95.9886 43.2542 95.3242 42.8953 94.7621 42.405C94.1999 41.9147 93.7541 41.3053 93.457 40.621C93.0821 39.7317 92.9034 38.7721 92.9331 37.8074C92.9049 36.8393 93.0835 35.8762 93.457 34.9826C93.7506 34.2975 94.1938 33.6868 94.7542 33.1953C95.3147 32.7038 95.978 32.344 96.6956 32.1424C98.0557 31.745 99.5011 31.745 100.861 32.1424C101.55 32.3386 102.189 32.678 102.738 33.1382C103.324 33.6436 103.789 34.2739 104.098 34.9826C104.476 35.8751 104.657 36.8387 104.628 37.8074C104.658 38.7726 104.477 39.7327 104.098 40.621C103.786 41.3258 103.327 41.9521 102.738 42.4556C102.189 42.9164 101.55 43.2573 100.861 43.4564C100.189 43.6553 99.4925 43.7573 98.7918 43.7593ZM98.7918 41.3279C99.1511 41.3489 99.5092 41.27 99.8265 41.0999C100.144 40.9298 100.408 40.6753 100.589 40.3644C101.01 39.5873 101.211 38.7107 101.171 37.8285C101.173 37.3796 101.13 36.9318 101.041 36.4918C100.966 36.1019 100.83 35.7204 100.62 35.3859C100.438 35.0826 100.184 34.8289 99.8809 34.6474C99.5489 34.4608 99.1724 34.3684 98.7918 34.3802C98.4288 34.3563 98.0662 34.4326 97.7436 34.6008C97.4211 34.769 97.1509 35.0226 96.9628 35.334C96.5436 36.0966 96.3425 36.9598 96.3814 37.8292C96.3795 38.2847 96.4232 38.7393 96.5118 39.1862C96.5855 39.5801 96.7279 39.9581 96.9326 40.3026C97.1159 40.6075 97.3693 40.8643 97.6718 41.0516C98.0118 41.2476 98.4002 41.3438 98.7924 41.3293L98.7918 41.3279ZM109.536 43.6864C108.925 43.6934 108.321 43.5742 107.759 43.3358C107.218 43.1003 106.741 42.7397 106.366 42.2838C105.946 41.7504 105.64 41.1371 105.465 40.4815C105.237 39.64 105.129 38.7704 105.145 37.8986C105.131 37.0198 105.239 36.1433 105.465 35.294C105.646 34.6095 105.956 33.965 106.377 33.3963C106.745 32.9039 107.226 32.5071 107.78 32.2391C108.342 31.9758 108.956 31.8432 109.577 31.8513C110.278 31.8345 110.96 31.9775 111.59 32.2721C112.173 32.5666 112.677 32.9979 113.058 33.5288V27.6379H116.515V40.7382C116.508 41.3033 116.532 41.8684 116.585 42.4311C116.617 42.8081 116.709 43.1776 116.857 43.5258H113.316C113.265 43.432 113.228 43.3314 113.206 43.2271C113.172 43.0818 113.145 42.9348 113.127 42.7866C113.106 42.623 113.089 42.4554 113.075 42.2838L113.054 41.8069C112.673 42.3344 112.198 42.7863 111.651 43.1394C111.016 43.5279 110.28 43.7215 109.536 43.7004V43.6864ZM110.825 41.0916C111.261 41.0951 111.689 40.9752 112.061 40.7466C112.422 40.5278 112.757 40.2676 113.057 39.9709V35.747C112.743 35.4267 112.382 35.1563 111.987 34.9454C111.611 34.767 111.198 34.6791 110.782 34.6888C109.321 34.6888 108.591 35.7473 108.592 37.8642C108.555 38.6778 108.742 39.4859 109.132 40.201C109.305 40.4904 109.554 40.7267 109.853 40.8838C110.151 41.0409 110.488 41.1128 110.825 41.0916ZM121.537 43.753C121.085 43.7572 120.634 43.6955 120.2 43.5707C119.798 43.4571 119.429 43.2496 119.123 42.9654C118.817 42.6812 118.583 42.3284 118.44 41.936C118.265 41.4507 118.181 40.9373 118.195 40.4212V32.0757H121.642V39.4148C121.613 39.8317 121.724 40.2463 121.958 40.593C122.22 40.884 122.605 41.0334 122.996 40.9955C123.451 40.9969 123.9 40.8835 124.3 40.6659C124.726 40.4345 125.125 40.1589 125.492 39.8433V32.0687H128.952V43.5139H125.493V41.7326C125.297 41.9724 125.089 42.2011 124.862 42.4199C124.605 42.6727 124.318 42.8925 124.008 43.0742C123.659 43.2801 123.289 43.4448 122.902 43.5651C122.458 43.7053 121.996 43.7614 121.532 43.7544L121.537 43.753ZM135.706 43.7523C135.025 43.7511 134.349 43.6487 133.698 43.4487C133.033 43.247 132.419 42.9058 131.896 42.4479C131.33 41.9407 130.884 41.314 130.591 40.6133C130.23 39.7205 130.058 38.7623 130.087 37.7997C130.055 36.8158 130.241 35.8369 130.632 34.9335C131.246 33.559 132.441 32.5295 133.892 32.1248C134.528 31.9378 135.188 31.8434 135.851 31.8443C136.53 31.8294 137.206 31.9265 137.853 32.1318C138.368 32.3005 138.848 32.5619 139.269 32.9033C139.646 33.2173 139.965 33.5955 140.212 34.0204C140.459 34.4461 140.67 34.8918 140.843 35.3529L137.94 36.3172C137.803 35.7408 137.505 35.2153 137.08 34.8024C136.719 34.5202 136.271 34.3738 135.813 34.3886C135.146 34.3711 134.519 34.6972 134.15 35.2533C133.689 36.0328 133.476 36.934 133.538 37.8376C133.533 38.3107 133.577 38.7829 133.668 39.2472C133.742 39.6343 133.877 40.0074 134.066 40.3531C134.228 40.6509 134.465 40.9018 134.752 41.0818C135.061 41.2603 135.413 41.3492 135.769 41.3385C136.235 41.3371 136.681 41.1828 137.057 40.8988C137.536 40.48 137.873 39.9231 138.022 39.3047L140.883 40.2907C140.689 40.7424 140.462 41.1758 140.182 41.5846C139.9 42.0098 139.552 42.3868 139.15 42.7011C138.711 43.0392 138.218 43.3014 137.692 43.4767C137.05 43.6836 136.379 43.7818 135.705 43.7671L135.706 43.7523Z"/><path fill="black" d="M146.575 43.6591C145.886 43.678 145.199 43.6016 144.531 43.4332C144.086 43.3245 143.679 43.0987 143.351 42.7789C143.07 42.4844 142.894 42.1197 142.818 41.727C142.724 41.2543 142.68 40.7732 142.687 40.2914V34.5801H140.779V32.0652H142.687V28.1379H146.123V32.0652H149.057V34.5808H146.126V39.5389C146.078 39.9861 146.191 40.4355 146.445 40.8069C146.804 41.0832 147.257 41.2072 147.707 41.1519C147.919 41.1516 148.131 41.1411 148.342 41.1204C148.515 41.1098 148.693 41.0748 148.85 41.0152V43.4879C148.728 43.5095 148.605 43.5271 148.482 43.5405L147.891 43.5931L147.204 43.6352C146.966 43.6516 146.757 43.66 146.575 43.6605L146.575 43.6591ZM149.447 43.5188L154.529 35.1243L149.897 27.633H153.88L156.72 32.4018L159.403 27.633H163.008L158.481 35.1467L163.627 43.5202H159.749L156.382 37.9659L153.123 43.5202L149.447 43.5188ZM165.093 43.5188V27.626H169.705L173.246 39.311H173.288L176.59 27.626H181.317V43.5139H177.942V32.6753H177.9C177.802 33.2967 177.669 33.9131 177.507 34.5212C177.356 35.0663 177.194 35.632 177.021 36.2183L174.641 43.5118H171.556L169.199 36.2183L168.954 35.3908L168.728 34.5941L168.513 33.6824L168.277 32.4902H168.235V43.5048L165.093 43.5188ZM184.138 30.5189V27.9465H183.221V27.6309H185.401V27.9465H184.48V30.5189H184.138ZM185.882 30.5189V27.626H186.33L187.242 30.0805H187.249L188.142 27.626H188.599V30.5139H188.26V28.1758H188.252L188.173 28.4269L188.075 28.7074L187.386 30.5132H187.077L186.388 28.7074C186.368 28.6606 186.352 28.6139 186.339 28.5671L186.297 28.4423L186.255 28.3119L186.208 28.1576H186.201V30.5069L185.882 30.5189Z"/></g><path id="Vector_2" fill="#00B4EF" d="M19.9441 4.92505H31.4875V42.6338C31.4791 49.0051 26.3147 54.168 19.9441 54.175H8.40079V16.4684C8.4078 10.0964 13.5722 4.93206 19.9441 4.92505ZM46.1095 4.92505H34.5662V41.8645H46.1095C49.1699 41.8608 52.1038 40.6434 54.2678 38.4794C56.4318 36.3154 57.6492 33.3815 57.6529 30.3211V16.4684C57.6492 13.4077 56.4315 10.4734 54.2671 8.30938C52.1026 6.14532 49.1682 4.9282 46.1074 4.92505L46.1095 4.92505Z"/></g></g></svg>