<svg xmlns="http://www.w3.org/2000/svg" fill="none" aria-hidden="true" viewBox="0 0 170 68"><g fill="#C00"><path d="M73.47 53.21s7.13-.611 7.13-9.82c0-9.207-8.637-10.062-8.637-10.062H56.399v29.049h7.823v-7.008l6.763 7.008h11.57L73.47 53.21Zm-3.015-5.949h-6.233v-6.64h6.274s1.752.651 1.752 3.3c0 2.648-1.793 3.34-1.793 3.34Zm29.457-13.73h-7.945c-5.663 0-7.578 5.134-7.578 7.578v21.268h7.945v-5.093h7.455v5.093h7.7V41.109c0-6.192-5.622-7.578-7.578-7.578Zm-.123 15.523h-7.496v-7.048s0-1.59 2.485-1.59h2.73c2.2 0 2.24 1.59 2.24 1.59v7.048h.041Zm11.326-15.523h8.271v28.846h-8.271V33.53Zm19.882 21.39V33.53h-8.229v28.846h19.352V54.92h-11.123Zm13.853.081v7.375h13.322c2.73 0 7.415-1.997 7.578-7.578v-2.852c0-4.767-3.911-7.578-7.578-7.578h-6.641v-3.422h13.16V33.53h-12.63c-3.26 0-7.619 2.69-7.619 7.7v2.567c0 5.012 4.319 7.578 7.619 7.578 9.167.041-2.2 0 6.274 0v3.586l-13.485.04Z"/><path d="M7.102 62.336h32.186s-6.152-28.071 14.219-39.438c4.44-2.16 18.578-10.226 41.72 6.885.733-.61 1.425-1.1 1.425-1.1S75.466 7.538 51.877 9.901c-11.856 1.06-26.441 11.856-34.997 26.116-8.556 14.26-9.778 26.319-9.778 26.319Zm67.06-50.153.164-2.73c-.367-.204-1.385-.692-3.952-1.426l-.163 2.69c1.344.447 2.648.936 3.952 1.466Zm-3.87 8.637-.163 2.567c1.345.04 2.69.203 4.034.489l.163-2.526a28.836 28.836 0 0 0-4.034-.53ZM55.218 8.11h.407l-.815-2.486a32.51 32.51 0 0 0-3.91.245l.773 2.404a34.396 34.396 0 0 1 3.545-.163Zm1.955 14.993.938 2.81a25.852 25.852 0 0 1 3.544-1.425l-.896-2.69a29.555 29.555 0 0 0-3.586 1.305ZM38.677 12.386l-1.834-2.81a64.86 64.86 0 0 0-3.178 1.751l1.875 2.852c1.059-.652 2.077-1.263 3.137-1.793Zm8.352 18.334 1.955 2.934c.693-1.019 1.508-1.956 2.404-2.893l-1.833-2.77a22.538 22.538 0 0 0-2.526 2.73ZM41.12 43.84l3.3 2.607c.163-1.59.448-3.178.856-4.767l-2.934-2.322c-.53 1.507-.896 3.014-1.222 4.481ZM23.276 24.486l-2.892-2.526a70.668 70.668 0 0 0-3.015 3.055l3.137 2.69c.855-1.1 1.793-2.2 2.77-3.22ZM10.972 42.698l-4.685-1.71c-.774 1.751-1.63 3.788-2.037 4.888l4.685 1.711c.53-1.385 1.385-3.381 2.037-4.889Zm29.538 11.49c.082 2.159.285 3.91.489 5.133l4.889 1.752c-.367-1.59-.733-3.382-.978-5.297l-4.4-1.589Z"/></g></svg>