<svg xmlns="http://www.w3.org/2000/svg" fill="none" aria-hidden="true" viewBox="0 0 162 72"><g fill-rule="evenodd" clip-rule="evenodd"><path fill="#10298E" d="M95.365 28.817h6.001c1.902-.071 3.059-.224 3.476-.462.569-.326.95-.979 1.14-1.957.122-.652.183-1.62.183-2.907 0-1.576-.121-2.744-.363-3.507-.347-1.069-1.176-1.72-2.489-1.956-.26-.036-.881-.055-1.866-.055h-6.082v10.844ZM85.74 47.083V9.818h17.932c2.46 0 4.337.21 5.626.628 2.95.963 4.929 2.934 5.942 5.914.524 1.564.785 3.918.785 7.062 0 3.78-.29 6.496-.864 8.15-1.15 3.27-3.518 5.154-7.093 5.643-.42.073-2.209.138-5.367.19l-1.598.056h-5.738v9.622H85.74ZM37.41 21.706h8.953c.058-.824.087-1.44.087-1.851 0-5.021-1.948-8.077-5.845-9.168-1.596-.446-4.274-.671-8.033-.671-2.387 0-4.557.09-6.513.268-2.352.197-4.283.857-5.793 1.98-1.03.732-1.777 1.802-2.24 3.212-.463 1.409-.695 3.283-.695 5.619 0 3.068.429 5.361 1.286 6.877.975 1.784 2.928 2.959 5.86 3.53 1.113.199 3.101.404 5.963.616 3.564.25 5.56.448 5.99.59 1.147.357 1.722 1.355 1.722 2.996 0 .732-.068 1.33-.205 1.793-.258.752-.798 1.295-1.621 1.632-.463.18-1.535.27-3.215.27H29.82c-.876-.02-1.621-.188-2.239-.508-.89-.463-1.337-1.504-1.337-3.122v-.775h-8.955c0 3.032.213 5.198.643 6.499.773 2.336 2.37 3.888 4.791 4.654 1.974.625 5.469.936 10.483.936 3.004 0 5.238-.143 6.698-.43 3.485-.678 5.724-2.291 6.722-4.846.55-1.392.824-3.59.824-6.59a30.6 30.6 0 0 0-.18-3.508c-.206-1.73-.852-3.132-1.936-4.204-1.376-1.374-3.595-2.223-6.656-2.544-.964-.107-3.38-.296-7.251-.563l-1.806-.133c-.793-.053-1.428-.232-1.91-.536-.67-.428-1.006-1.321-1.006-2.678 0-1.499.378-2.472 1.134-2.92.757-.446 2.306-.669 4.644-.669 2.407 0 3.878.388 4.41 1.162.344.523.517 1.55.517 3.082ZM17.321 54.472l1.343-.14c.08.471.244.817.491 1.038.247.221.58.332 1 .332.445 0 .779-.098 1.005-.295.225-.196.337-.426.337-.689a.672.672 0 0 0-.141-.43c-.095-.12-.26-.222-.495-.31a17.29 17.29 0 0 0-1.102-.309c-.738-.19-1.255-.424-1.553-.702a1.882 1.882 0 0 1-.627-1.43 1.875 1.875 0 0 1 1.148-1.734c.372-.164.82-.247 1.345-.247.857 0 1.502.197 1.936.59.433.392.66.916.682 1.572l-1.382.056c-.06-.366-.186-.63-.38-.79-.194-.16-.486-.241-.874-.241-.4 0-.714.086-.941.258a.524.524 0 0 0-.22.441c0 .169.07.313.206.433.174.152.596.31 1.267.474.67.165 1.166.336 1.487.513.321.176.573.418.755.725.181.307.272.686.272 1.137 0 .41-.108.793-.326 1.15a1.979 1.979 0 0 1-.924.796c-.398.174-.893.26-1.487.26-.865 0-1.528-.208-1.992-.627-.463-.419-.74-1.028-.83-1.83Zm6.992-2.825h1.315v5.157h-1.315v-5.157Zm0-1.963h1.317v1.26h-1.317v-1.26Zm6.139 7.12h1.315v-3.21c0-.4-.025-.706-.073-.92a1.535 1.535 0 0 0-.256-.574 1.332 1.332 0 0 0-.543-.416 1.896 1.896 0 0 0-.792-.163c-.655 0-1.2.294-1.631.885v-.758h-1.22v5.156h1.315v-2.34c0-.578.033-.974.1-1.187a1.013 1.013 0 0 1 .977-.71.747.747 0 0 1 .452.135.76.76 0 0 1 .272.383c.055.163.084.524.084 1.082v2.637Zm3.975-2.69c0 .55.1.951.302 1.206.202.255.451.382.748.382.317 0 .585-.13.804-.392.219-.26.328-.648.328-1.161 0-.536-.105-.934-.314-1.194a.98.98 0 0 0-.795-.39.942.942 0 0 0-.77.383c-.203.256-.303.644-.303 1.167Zm-1.18 3.03 1.491.169c.025.192.083.324.173.396.125.103.322.155.59.155.343 0 .6-.053.772-.16a.661.661 0 0 0 .262-.345c.04-.114.06-.322.06-.627l.005-.753c-.388.55-.88.825-1.477.825-.666 0-1.193-.293-1.582-.88-.305-.464-.457-1.042-.457-1.732 0-.867.2-1.528.6-1.985a1.896 1.896 0 0 1 1.49-.686c.613 0 1.118.28 1.517.841v-.714h1.22v4.635c0 .61-.048 1.066-.145 1.367-.096.302-.232.538-.406.71a1.779 1.779 0 0 1-.698.404c-.291.097-.66.146-1.104.146-.84 0-1.436-.151-1.788-.453a1.445 1.445 0 0 1-.528-1.147c0-.046.002-.101.005-.167Zm7.553-7.46h-1.315v7.12H40.8v-7.12Zm4.582 4.113c-.01-.402-.108-.707-.296-.917a.888.888 0 0 0-.686-.314.898.898 0 0 0-.713.331c-.189.22-.28.52-.278.9h1.973Zm-.07 1.383 1.301.226c-.168.497-.434.876-.797 1.136-.363.26-.818.39-1.363.39-.864 0-1.503-.295-1.918-.883-.327-.47-.49-1.065-.49-1.784 0-.857.214-1.53.644-2.016.43-.486.974-.728 1.631-.728.74 0 1.322.255 1.749.764.427.51.63 1.291.612 2.344h-3.294c.009.406.115.721.32.947a.987.987 0 0 0 .762.338.795.795 0 0 0 .522-.174c.141-.115.249-.302.32-.56Zm5.672-5.496v7.12h5.193v-1.2h-3.81v-1.936h3.416v-1.2h-3.416v-1.583h3.674v-1.201h-5.057Zm9.894 7.12v-.773a1.992 1.992 0 0 1-.713.657 1.908 1.908 0 0 1-.933.243 1.76 1.76 0 0 1-.897-.229 1.332 1.332 0 0 1-.575-.642c-.118-.276-.177-.657-.177-1.143v-3.27h1.315v2.372c0 .726.024 1.17.072 1.334a.726.726 0 0 0 .264.39.787.787 0 0 0 .485.142 1 1 0 0 0 .602-.191.97.97 0 0 0 .364-.477c.065-.19.098-.654.098-1.392v-2.178h1.315v5.157h-1.22Zm2.795 0h1.315V55.21c0-.878.036-1.456.11-1.73.073-.276.174-.466.302-.572a.715.715 0 0 1 .468-.158c.19 0 .397.075.618.223l.4-1.194a1.613 1.613 0 0 0-.864-.258c-.211 0-.4.057-.567.17-.166.114-.354.344-.562.69v-.733h-1.22v5.156Zm5.086-2.578c0 .514.116.907.35 1.18.234.273.522.41.865.41.343 0 .63-.137.863-.41.232-.273.348-.67.348-1.19 0-.506-.116-.897-.348-1.17a1.088 1.088 0 0 0-.863-.409c-.343 0-.631.136-.865.41-.234.272-.35.666-.35 1.179Zm-1.343-.073a2.9 2.9 0 0 1 .322-1.321c.215-.426.518-.75.912-.975a2.613 2.613 0 0 1 1.317-.336c.75 0 1.364.254 1.843.762.478.509.718 1.152.718 1.928 0 .784-.242 1.433-.726 1.948-.483.515-1.092.773-1.825.773-.454 0-.887-.108-1.3-.322a2.155 2.155 0 0 1-.939-.943c-.215-.415-.322-.919-.322-1.514Zm10.776-1.233v-2.035h.665c.496 0 .826.017.99.05a.94.94 0 0 1 .554.317c.146.17.219.385.219.646a1 1 0 0 1-.156.557.912.912 0 0 1-.43.353c-.183.075-.546.112-1.088.112h-.754Zm-1.382-3.236v7.12h1.383V54.12h.899c.623 0 1.1-.034 1.429-.102a1.953 1.953 0 0 0 1.294-1.04c.152-.298.228-.665.228-1.102 0-.567-.132-1.03-.396-1.387-.264-.358-.592-.591-.983-.698-.255-.071-.802-.107-1.64-.107H76.81Zm9.367 4.648a7.87 7.87 0 0 1-.796.21c-.364.081-.601.162-.713.24a.579.579 0 0 0-.255.483.69.69 0 0 0 .204.498.7.7 0 0 0 .522.21c.236 0 .46-.08.675-.243a.86.86 0 0 0 .312-.455c.034-.117.051-.34.051-.67v-.273Zm-1.764-1.116-1.18-.226c.134-.5.364-.869.69-1.109.327-.24.812-.36 1.455-.36.585 0 1.02.072 1.306.216.286.145.488.328.604.55.117.222.175.63.175 1.224l-.013 1.596c0 .454.02.789.062 1.004.042.216.121.447.236.693h-1.302a4.825 4.825 0 0 1-.126-.397 3.161 3.161 0 0 0-.046-.158 2.368 2.368 0 0 1-.718.512c-.254.114-.525.17-.814.17-.51 0-.911-.144-1.205-.432-.293-.29-.44-.655-.44-1.096 0-.291.067-.552.2-.78.134-.23.322-.405.563-.526.24-.121.588-.229 1.042-.32.612-.12 1.037-.23 1.273-.335v-.138c0-.266-.062-.455-.187-.569-.126-.112-.361-.169-.708-.169-.235 0-.417.048-.549.144-.131.096-.237.265-.318.506Zm5.39-1.569h-1.396l1.887 5.17c-.078.292-.19.532-.337.721-.147.188-.373.283-.68.283-.166 0-.352-.021-.558-.064l.122 1.07c.243.054.49.082.743.082.249 0 .472-.028.67-.083.198-.055.364-.133.5-.232.135-.098.255-.228.36-.386.104-.16.213-.39.329-.692l2.062-5.869H92.15l-1.159 3.661-1.186-3.661Zm4.728 0h1.206v.705c.434-.554.95-.831 1.548-.831.318 0 .594.068.828.204.233.136.425.342.575.618a2.3 2.3 0 0 1 .705-.618c.252-.136.52-.204.807-.204.364 0 .673.077.925.231.252.154.44.38.565.679.09.22.135.577.135 1.07v3.303h-1.315v-2.953c0-.513-.045-.843-.135-.992-.122-.196-.308-.293-.559-.293a.865.865 0 0 0-.518.175.97.97 0 0 0-.348.514c-.072.225-.108.581-.108 1.068v2.481h-1.315v-2.831c0-.504-.023-.828-.07-.974a.62.62 0 0 0-.216-.326.665.665 0 0 0-.399-.107.925.925 0 0 0-.545.17.936.936 0 0 0-.347.492c-.07.214-.104.569-.104 1.065v2.511h-1.315v-5.156Zm11.531 1.233c.188.21.286.515.296.917h-1.973c-.003-.38.089-.68.278-.9a.895.895 0 0 1 .713-.331.89.89 0 0 1 .686.314Zm1.527 2.526-1.301-.226c-.072.258-.179.445-.321.56a.793.793 0 0 1-.522.174.987.987 0 0 1-.763-.338c-.204-.226-.31-.541-.32-.947h3.295c.019-1.053-.186-1.833-.613-2.344-.427-.51-1.009-.764-1.748-.764-.658 0-1.201.242-1.631.728-.43.486-.645 1.159-.645 2.016 0 .719.163 1.313.491 1.784.415.588 1.054.883 1.917.883.546 0 1-.13 1.364-.39.363-.26.628-.64.797-1.136Zm5.92 1.398h-1.315v-2.637c0-.558-.028-.919-.083-1.083a.764.764 0 0 0-.272-.382.757.757 0 0 0-.453-.136 1.016 1.016 0 0 0-.977.71c-.066.214-.1.61-.1 1.188v2.34h-1.315v-5.156h1.22v.758c.433-.59.976-.885 1.631-.885.289 0 .554.054.793.163.239.108.42.247.543.416.123.169.208.36.256.574.048.214.072.52.072.92v3.21Zm3.88-4.069v-1.088h-.895v-1.836l-1.315.805v1.031h-.596v1.088h.596v2.254c0 .483.014.805.042.964.034.224.095.401.183.532.088.132.227.24.415.322.189.083.4.124.635.124.384 0 .727-.068 1.03-.204l-.115-1.057c-.226.087-.398.131-.518.131a.35.35 0 0 1-.217-.068.295.295 0 0 1-.114-.173c-.017-.07-.026-.316-.026-.739v-2.086h.895Zm.741 2.614 1.315-.212c.056.264.169.464.339.6.171.138.41.206.717.206.339 0 .594-.066.764-.196a.445.445 0 0 0 .173-.367.37.37 0 0 0-.094-.258c-.066-.066-.213-.126-.441-.182-1.063-.244-1.737-.467-2.02-.668-.394-.28-.591-.668-.591-1.163 0-.449.17-.826.51-1.13.341-.306.869-.458 1.585-.458.681 0 1.187.114 1.518.342.332.23.56.567.685 1.014l-1.234.24a.796.796 0 0 0-.304-.461c-.15-.107-.363-.16-.639-.16-.349 0-.599.05-.75.151a.326.326 0 0 0-.151.278.31.31 0 0 0 .131.25c.119.091.529.22 1.229.386.701.167 1.191.37 1.469.611.274.244.412.585.412 1.021 0 .475-.19.884-.569 1.226-.38.342-.94.513-1.683.513-.674 0-1.207-.143-1.601-.426a1.962 1.962 0 0 1-.77-1.157Zm11.671-3.998.956 2.642h-1.879l.923-2.642Zm2.002 5.453h1.489l-2.759-7.12h-1.454l-2.647 7.12h1.463l.563-1.61h2.754l.591 1.61Zm3.746 0h-1.315v-5.156h1.22v.733c.209-.346.396-.576.563-.69a.981.981 0 0 1 .567-.17c.299 0 .586.086.864.258l-.4 1.194c-.222-.148-.428-.223-.618-.223a.716.716 0 0 0-.469.158c-.128.105-.228.296-.301.571-.074.276-.111.853-.111 1.73v1.595Zm5.404-3.924c.188.21.286.515.296.917h-1.973c-.003-.38.089-.68.277-.9a.899.899 0 0 1 .714-.331.89.89 0 0 1 .686.314Zm1.527 2.526-1.302-.226c-.073.258-.179.445-.32.56a.798.798 0 0 1-.523.174.99.99 0 0 1-.763-.338c-.203-.226-.31-.541-.32-.947h3.295c.019-1.053-.185-1.833-.612-2.344-.427-.51-1.01-.764-1.748-.764-.658 0-1.202.242-1.631.728-.431.486-.646 1.159-.646 2.016 0 .719.164 1.313.491 1.784.415.588 1.054.883 1.918.883.545 0 1-.13 1.363-.39s.629-.64.798-1.136Zm4.147-1.074a7.882 7.882 0 0 1-.797.21c-.364.081-.601.162-.712.24a.577.577 0 0 0-.256.483c0 .192.067.358.204.498a.7.7 0 0 0 .522.21 1.1 1.1 0 0 0 .675-.243.858.858 0 0 0 .312-.455c.034-.117.052-.34.052-.67v-.273Zm-1.766-1.116-1.179-.226c.133-.5.363-.869.689-1.109.327-.24.812-.36 1.456-.36.584 0 1.02.072 1.306.216.285.145.487.328.604.55.116.222.175.63.175 1.224l-.014 1.596c0 .454.021.789.063 1.004.042.216.12.447.235.693h-1.301a4.762 4.762 0 0 1-.126-.397l-.023-.082a2.248 2.248 0 0 0-.023-.076 2.367 2.367 0 0 1-.718.512c-.254.114-.526.17-.815.17-.509 0-.911-.144-1.204-.432-.293-.29-.44-.655-.44-1.096 0-.291.067-.552.2-.78.134-.23.321-.405.562-.526.241-.121.589-.229 1.043-.32.612-.12 1.036-.23 1.273-.335v-.138c0-.266-.063-.455-.188-.569-.125-.112-.361-.169-.708-.169-.234 0-.417.048-.548.144-.131.096-.238.265-.319.506ZM130.149 17.23l4.509 16.153h-8.886l4.377-16.153Zm-6.447 23.413h12.869l1.836 6.44h9.749L137.279 9.819H122.76l-10.746 37.265h9.959l1.729-6.44Z"/><path fill="#FFBE00" d="M72.455 15.06c3.97 0 7.513 1.906 9.842 4.891l2.075-4.635c-3.245-3.196-7.662-5.166-12.533-5.166-7.584 0-14.071 4.772-16.734 11.528h-4.046l-2.389 5.337h5.205c-.04.495-.064.99-.064 1.496 0 .611.03 1.216.088 1.813h-2.616l-2.388 5.338h6.334c2.739 6.585 9.145 11.208 16.61 11.208a17.72 17.72 0 0 0 10.144-3.18v-6.543c-2.328 2.762-5.732 4.507-9.528 4.507-4.437 0-8.34-2.384-10.612-5.992h13.264l2.388-5.338H59.891a14.062 14.062 0 0 1-.075-3.31h19.16l2.388-5.336h-19.89c2.199-3.955 6.293-6.617 10.981-6.617"/></g></svg>