<svg xmlns="http://www.w3.org/2000/svg" fill="none" aria-hidden="true" viewBox="0 0 220 53"><path fill="#EE3524" d="M34.168 34.914a13.44 13.44 0 0 1-4.854 1.583c3.779-1.375 7.151-4.263 8.582-7.558 1.208-2.783 1.003-5.568-.588-8.081l5.23-3.382a15.193 15.193 0 0 1 2.764 7.033H40.19l-.016.38c-.18 4.394-2.314 7.954-6.007 10.025Z"/><path fill="#EE3524" d="M40.94 25.303h4.439a15.195 15.195 0 0 1-1.593 7.972l-2.97-1.898-.205.362c-2.41 4.269-6.696 6.814-11.471 6.814h-.04c-2.644-.008-5.197-.789-7.468-2.217a16.35 16.35 0 0 0 5.804 1.081c2.505 0 4.959-.601 7.114-1.81 3.778-2.118 6.092-5.859 6.39-10.304Z"/><path fill="#EE3524" d="M29.14 39.346h-.042c-4.758-.014-9.227-2.387-12.408-6.473 2.417 5.155 7.625 8.73 13.647 8.73 5.583 0 10.464-3.074 13.072-7.63l-2.322-1.483c-2.587 4.303-7.021 6.856-11.947 6.856Z"/><path fill="#EE3524" fill-rule="evenodd" d="M8.507 26.4c0-12.15 9.774-22 21.83-22s21.83 9.85 21.83 22-9.774 22-21.83 22-21.83-9.85-21.83-22Zm5.957 0c0 8.835 7.106 15.997 15.873 15.997 8.766 0 15.873-7.162 15.873-15.997 0-8.834-7.107-15.996-15.873-15.996-8.767 0-15.873 7.162-15.873 15.996Z" clip-rule="evenodd"/><path fill="#231F20" d="M75.698 16.366a8.032 8.032 0 0 1 2.791 1.67l-2.778 2.954a3.94 3.94 0 0 0-1.465-1.143c-.604-.283-1.185-.424-1.746-.424a5.2 5.2 0 0 0-.88.077c-.297.051-.565.15-.802.296a1.984 1.984 0 0 0-.6.565c-.161.23-.242.526-.242.886 0 .308.064.565.191.77.128.206.314.386.561.54.247.154.54.295.88.424.34.128.721.261 1.147.398.611.205 1.249.432 1.911.68a7.122 7.122 0 0 1 1.81.99c.544.41.994.92 1.35 1.528.358.608.536 1.366.536 2.273 0 1.045-.191 1.948-.573 2.71a5.4 5.4 0 0 1-1.543 1.888 6.59 6.59 0 0 1-2.217 1.105 9.25 9.25 0 0 1-2.574.36c-1.292 0-2.54-.228-3.747-.681-1.207-.454-2.21-1.1-3.008-1.94l2.855-2.928c.442.548 1.023 1.006 1.746 1.374.722.369 1.44.552 2.154.552.322 0 .637-.034.943-.102.305-.069.573-.18.803-.334.229-.155.411-.36.548-.617.135-.257.203-.565.203-.924 0-.343-.085-.634-.254-.874a2.506 2.506 0 0 0-.727-.655 5.878 5.878 0 0 0-1.172-.54 64.362 64.362 0 0 0-1.593-.526 15.054 15.054 0 0 1-1.695-.668 5.65 5.65 0 0 1-1.478-.989 4.577 4.577 0 0 1-1.046-1.464c-.263-.574-.394-1.271-.394-2.093 0-1.01.203-1.876.61-2.595a5.346 5.346 0 0 1 1.607-1.772c.663-.463 1.41-.8 2.243-1.015a10.102 10.102 0 0 1 2.523-.32c1.02 0 2.06.188 3.122.564ZM88.175 34.45H83.79V16.264h4.385V34.45Zm19.345-18.186v3.75h-5.097V34.45h-4.359V20.014h-5.098v-3.75h14.554ZM124.904 30.7v3.75h-12.592V16.264h12.133v3.698h-7.927v3.443h7.493v3.519h-7.493v3.775h8.386Zm17.765-1.644 3.033 2.877c-.799.924-1.785 1.656-2.957 2.196-1.172.54-2.523.809-4.052.809-1.394 0-2.681-.232-3.862-.693a9.051 9.051 0 0 1-3.071-1.966 9.083 9.083 0 0 1-2.039-3.044c-.493-1.181-.74-2.482-.74-3.904 0-1.455.251-2.774.752-3.956a8.81 8.81 0 0 1 2.077-3.018 9.208 9.208 0 0 1 3.11-1.914c1.189-.445 2.473-.667 3.849-.667 1.274 0 2.527.227 3.759.68 1.233.454 2.231 1.117 2.995 1.991l-2.957 2.98a3.659 3.659 0 0 0-1.605-1.26 5.3 5.3 0 0 0-2.039-.41c-.765 0-1.465.141-2.103.424a4.942 4.942 0 0 0-1.644 1.169 5.316 5.316 0 0 0-1.07 1.76 6.253 6.253 0 0 0-.383 2.221c0 .822.128 1.576.383 2.26a5.26 5.26 0 0 0 1.057 1.76c.45.488.99.87 1.619 1.143a5.106 5.106 0 0 0 2.064.411c.867 0 1.623-.17 2.269-.514a4.405 4.405 0 0 0 1.555-1.335Z"/><path fill="#231F20" fill-rule="evenodd" d="M165.188 18.344c.875.822 1.559 1.82 2.052 2.993.492 1.173.739 2.487.739 3.942 0 1.439-.247 2.754-.739 3.944a8.98 8.98 0 0 1-2.052 3.056 9.127 9.127 0 0 1-3.122 1.966c-1.207.462-2.515.693-3.926.693-1.41 0-2.714-.232-3.912-.693a9.132 9.132 0 0 1-3.11-1.966 8.98 8.98 0 0 1-2.052-3.057c-.493-1.19-.738-2.504-.738-3.943 0-1.455.245-2.77.738-3.942.493-1.173 1.177-2.17 2.052-2.993.875-.822 1.911-1.455 3.11-1.9 1.198-.446 2.502-.668 3.912-.668 1.411 0 2.719.222 3.926.667 1.206.446 2.246 1.08 3.122 1.901Zm-3.326 10.994a5.277 5.277 0 0 0 1.07-1.785 6.542 6.542 0 0 0 .383-2.274 6.28 6.28 0 0 0-.383-2.208 5.28 5.28 0 0 0-1.058-1.76 4.878 4.878 0 0 0-1.631-1.156 5.135 5.135 0 0 0-2.103-.424 5.05 5.05 0 0 0-2.09.424 5.065 5.065 0 0 0-1.631 1.156 4.999 4.999 0 0 0-1.058 1.76 6.487 6.487 0 0 0-.37 2.208c0 .823.127 1.58.383 2.274a5.383 5.383 0 0 0 1.058 1.785c.45.497.99.886 1.618 1.169a5.053 5.053 0 0 0 2.09.424c.765 0 1.461-.142 2.091-.424a4.976 4.976 0 0 0 1.631-1.169Zm20.951-2.671 4.716 7.783h-5.098l-3.918-7.218h-1.485v7.218h-4.257V16.264h6.881c.867 0 1.712.09 2.536.27a6.57 6.57 0 0 1 2.218.911 4.762 4.762 0 0 1 1.568 1.695c.391.703.586 1.576.586 2.62 0 1.233-.331 2.27-.994 3.109-.662.839-1.58 1.438-2.753 1.798Zm-1.611-3.031c.308-.154.559-.377.756-.668.196-.291.295-.668.295-1.13 0-.428-.091-.775-.269-1.04a1.863 1.863 0 0 0-.692-.617 3.004 3.004 0 0 0-.948-.295 6.92 6.92 0 0 0-1.011-.078h-2.331v4.239h2.074c.358 0 .726-.03 1.102-.09.376-.06.717-.167 1.024-.321Z" clip-rule="evenodd"/><path fill="#231F20" d="M204.682 30.7v3.75h-12.591V16.264h12.132v3.698h-7.926v3.443h7.493v3.519h-7.493v3.775h8.385Z"/><path fill="#231F20" fill-rule="evenodd" d="M209.367 19.113h-.361V17.09h.706c.095 0 .186.01.275.031a.732.732 0 0 1 .239.103c.07.048.127.108.169.182a.553.553 0 0 1 .063.277.513.513 0 0 1-.126.36.623.623 0 0 1-.337.185l.541.885h-.439l-.471-.845h-.259v.845Zm0-1.715v.577h.29a.76.76 0 0 0 .299-.06c.094-.039.141-.119.141-.24 0-.11-.043-.185-.13-.222a.681.681 0 0 0-.27-.055h-.33Z" clip-rule="evenodd"/><path fill="#231F20" fill-rule="evenodd" d="M208.441 19.37a1.835 1.835 0 0 1-.384-.565 1.724 1.724 0 0 1-.141-.695c0-.248.047-.481.141-.7.095-.219.223-.409.384-.57a1.86 1.86 0 0 1 .57-.383c.216-.095.448-.142.694-.142.245 0 .477.047.694.142a1.808 1.808 0 0 1 .954.953c.093.219.14.452.14.7 0 .247-.047.48-.14.695a1.821 1.821 0 0 1-.385.566 1.81 1.81 0 0 1-.569.379 1.757 1.757 0 0 1-.694.138 1.802 1.802 0 0 1-1.264-.518Zm.197-2.335a1.515 1.515 0 0 0-.44 1.075 1.56 1.56 0 0 0 .44 1.071 1.472 1.472 0 0 0 1.067.447 1.47 1.47 0 0 0 1.066-.447 1.58 1.58 0 0 0 .322-.487c.078-.184.117-.38.117-.584a1.51 1.51 0 0 0-2.094-1.4c-.183.08-.342.187-.478.325Z" clip-rule="evenodd"/></svg>