<svg xmlns="http://www.w3.org/2000/svg" fill="none" aria-hidden="true" viewBox="0 0 220 53"><g fill="#EE3524"><path d="M34.168 34.914a13.44 13.44 0 0 1-4.854 1.583c3.779-1.375 7.151-4.263 8.582-7.558 1.208-2.783 1.003-5.568-.588-8.081l5.23-3.382a15.194 15.194 0 0 1 2.764 7.033H40.19l-.015.38c-.18 4.394-2.314 7.954-6.007 10.025Z"/><path d="M40.94 25.303h4.439a15.197 15.197 0 0 1-1.593 7.972l-2.97-1.898-.205.362c-2.41 4.269-6.697 6.814-11.471 6.814h-.04c-2.644-.008-5.197-.789-7.468-2.217a16.35 16.35 0 0 0 5.803 1.081c2.506 0 4.96-.601 7.115-1.81 3.778-2.118 6.092-5.859 6.39-10.304Z"/><path d="M29.14 39.346h-.043c-4.757-.014-9.226-2.387-12.407-6.473 2.417 5.155 7.624 8.73 13.647 8.73 5.583 0 10.464-3.074 13.072-7.63l-2.322-1.483c-2.588 4.303-7.021 6.856-11.947 6.856Z"/><path fill-rule="evenodd" d="M8.507 26.4c0-12.15 9.773-22 21.83-22 12.056 0 21.83 9.85 21.83 22s-9.774 22-21.83 22c-12.057 0-21.83-9.85-21.83-22Zm5.957 0c0 8.835 7.106 15.997 15.873 15.997 8.766 0 15.873-7.162 15.873-15.997 0-8.834-7.107-15.996-15.873-15.996-8.767 0-15.873 7.162-15.873 15.996Z" clip-rule="evenodd"/></g><g fill="#231F20"><path d="M75.698 16.367a8.032 8.032 0 0 1 2.791 1.669l-2.778 2.954a3.94 3.94 0 0 0-1.465-1.143c-.604-.282-1.185-.424-1.746-.424a5.2 5.2 0 0 0-.88.077c-.297.051-.565.15-.803.296a1.981 1.981 0 0 0-.598.565c-.162.23-.243.526-.243.886 0 .308.064.565.191.77.128.206.314.386.561.54.246.154.54.295.88.424.34.128.721.261 1.147.398.611.205 1.249.432 1.911.68a7.125 7.125 0 0 1 1.81.99c.543.41.994.92 1.35 1.528.358.608.536 1.366.536 2.273 0 1.045-.191 1.948-.573 2.71a5.399 5.399 0 0 1-1.543 1.888 6.59 6.59 0 0 1-2.217 1.105 9.25 9.25 0 0 1-2.574.36c-1.292 0-2.54-.228-3.747-.681-1.207-.454-2.21-1.1-3.008-1.94l2.855-2.928c.442.548 1.023 1.006 1.746 1.374.722.369 1.44.552 2.154.552.322 0 .637-.034.943-.102.305-.069.573-.18.803-.334a1.68 1.68 0 0 0 .548-.617c.135-.256.203-.565.203-.924 0-.343-.085-.634-.254-.874a2.508 2.508 0 0 0-.727-.655 5.884 5.884 0 0 0-1.172-.54 64.082 64.082 0 0 0-1.593-.526 15.03 15.03 0 0 1-1.695-.668 5.65 5.65 0 0 1-1.478-.989 4.576 4.576 0 0 1-1.046-1.464c-.264-.573-.395-1.271-.395-2.093 0-1.01.204-1.875.612-2.595a5.34 5.34 0 0 1 1.606-1.772 6.87 6.87 0 0 1 2.243-1.015 10.107 10.107 0 0 1 2.523-.32c1.02 0 2.06.188 3.122.565ZM88.174 34.45H83.79V16.264h4.384V34.45Zm19.346-18.186v3.75h-5.097V34.45h-4.359V20.014h-5.098v-3.75h14.554ZM124.904 30.7v3.75h-12.592V16.264h12.133v3.698h-7.927v3.443h7.493v3.519h-7.493V30.7h8.386Zm17.765-1.644 3.033 2.877c-.799.924-1.785 1.656-2.957 2.196-1.172.54-2.523.809-4.052.809-1.394 0-2.681-.231-3.862-.693a9.052 9.052 0 0 1-3.071-1.966 9.083 9.083 0 0 1-2.039-3.044c-.493-1.181-.74-2.482-.74-3.904 0-1.455.251-2.774.752-3.956a8.808 8.808 0 0 1 2.077-3.018 9.208 9.208 0 0 1 3.11-1.914c1.189-.445 2.472-.667 3.849-.667 1.274 0 2.527.227 3.759.68 1.233.454 2.231 1.118 2.995 1.991l-2.957 2.98a3.658 3.658 0 0 0-1.605-1.26 5.304 5.304 0 0 0-2.039-.41c-.765 0-1.466.141-2.103.424a4.942 4.942 0 0 0-1.644 1.169 5.318 5.318 0 0 0-1.07 1.76 6.252 6.252 0 0 0-.383 2.221c0 .822.128 1.576.383 2.26a5.26 5.26 0 0 0 1.057 1.76c.45.488.99.87 1.619 1.143a5.104 5.104 0 0 0 2.064.411c.867 0 1.623-.17 2.269-.514a4.404 4.404 0 0 0 1.555-1.335Z"/><path fill-rule="evenodd" d="M165.188 18.344c.875.822 1.559 1.82 2.052 2.993.492 1.173.739 2.487.739 3.942 0 1.439-.247 2.754-.739 3.944a8.98 8.98 0 0 1-2.052 3.056 9.123 9.123 0 0 1-3.123 1.966c-1.206.462-2.514.693-3.925.693-1.41 0-2.714-.231-3.912-.693a9.134 9.134 0 0 1-3.11-1.966 8.98 8.98 0 0 1-2.052-3.056c-.493-1.19-.739-2.505-.739-3.944 0-1.455.246-2.77.739-3.942.493-1.173 1.177-2.17 2.052-2.993.875-.822 1.911-1.455 3.11-1.9 1.198-.446 2.502-.668 3.912-.668 1.411 0 2.719.222 3.925.667 1.207.446 2.247 1.08 3.123 1.901Zm-3.326 10.994a5.275 5.275 0 0 0 1.07-1.785 6.542 6.542 0 0 0 .382-2.274 6.28 6.28 0 0 0-.382-2.208 5.278 5.278 0 0 0-1.058-1.76 4.876 4.876 0 0 0-1.631-1.156 5.133 5.133 0 0 0-2.103-.424c-.764 0-1.461.142-2.09.424a5.064 5.064 0 0 0-1.631 1.156 4.997 4.997 0 0 0-1.058 1.76 6.487 6.487 0 0 0-.37 2.208c0 .823.127 1.58.383 2.274a5.382 5.382 0 0 0 1.058 1.785c.45.497.99.886 1.618 1.169.629.283 1.326.424 2.09.424.765 0 1.461-.141 2.091-.424a4.973 4.973 0 0 0 1.631-1.169Zm20.951-2.671 4.716 7.783h-5.098l-3.918-7.218h-1.486v7.218h-4.256V16.264h6.881c.867 0 1.712.09 2.536.27a6.57 6.57 0 0 1 2.218.911 4.762 4.762 0 0 1 1.568 1.696c.391.702.586 1.575.586 2.62 0 1.233-.331 2.27-.994 3.108-.662.839-1.58 1.438-2.753 1.798Zm-1.611-3.031c.308-.154.559-.377.756-.668.196-.291.295-.668.295-1.13 0-.428-.091-.775-.269-1.04a1.862 1.862 0 0 0-.692-.617 3.007 3.007 0 0 0-.948-.295 6.933 6.933 0 0 0-1.011-.078h-2.331v4.239h2.074c.358 0 .726-.03 1.102-.09.376-.06.717-.167 1.024-.321Z" clip-rule="evenodd"/><path d="M204.682 30.7v3.75h-12.591V16.264h12.132v3.698h-7.927v3.443h7.494v3.519h-7.494V30.7h8.386Z"/><path fill-rule="evenodd" d="M209.367 19.113h-.361V17.09h.706c.094 0 .186.01.275.031a.734.734 0 0 1 .239.103c.07.048.127.108.169.182a.553.553 0 0 1 .063.277.514.514 0 0 1-.126.36.624.624 0 0 1-.337.185l.541.885h-.439l-.471-.845h-.259v.845Zm0-1.715v.577h.29c.105 0 .204-.02.298-.06.095-.039.142-.119.142-.24 0-.11-.043-.185-.13-.222a.684.684 0 0 0-.271-.055h-.329Z" clip-rule="evenodd"/><path fill-rule="evenodd" d="M208.441 19.37a1.835 1.835 0 0 1-.384-.565 1.723 1.723 0 0 1-.141-.695c0-.248.047-.481.141-.7a1.82 1.82 0 0 1 .384-.57 1.86 1.86 0 0 1 .57-.383c.216-.095.448-.142.694-.142.245 0 .477.047.694.142a1.806 1.806 0 0 1 .954.953c.093.219.14.452.14.7 0 .247-.047.48-.14.695a1.82 1.82 0 0 1-.385.566c-.163.16-.353.287-.569.379a1.757 1.757 0 0 1-.694.138 1.804 1.804 0 0 1-1.264-.518Zm.197-2.335a1.533 1.533 0 0 0-.44 1.075c0 .205.04.4.118.584.079.185.186.347.322.487a1.472 1.472 0 0 0 1.067.447 1.47 1.47 0 0 0 1.066-.447c.136-.14.243-.302.322-.487.078-.184.117-.379.117-.584a1.509 1.509 0 0 0-2.094-1.4 1.502 1.502 0 0 0-.478.325Z" clip-rule="evenodd"/></g></svg>