<svg xmlns="http://www.w3.org/2000/svg" fill="none" aria-hidden="true" viewBox="0 0 211 56"><path fill="#000" d="m77.06 33.182-.037-.486h-4.026l.022.546c.247 6.083 4.32 10.112 11.566 10.112 6.91 0 11.608-3.615 11.608-9.084 0-2.959-1.018-5.052-2.962-6.482-1.493-1.098-3.281-1.718-6.243-2.366a96.456 96.456 0 0 0-1.297-.276c-5.38-1.135-7.087-2.122-7.087-5.059 0-3.036 2.468-4.972 6.606-4.972 4.027 0 6.572 2.475 6.69 6.372l.016.509h3.998l-.012-.536c-.14-6.075-4.19-10.163-10.734-10.163-6.415 0-10.65 3.886-10.65 8.916 0 2.949 1.019 5.004 2.966 6.377 1.481 1.044 3.198 1.598 6.226 2.215l.93.186c2.864.57 4.13.922 5.284 1.598 1.432.838 2.143 2.034 2.143 3.89 0 3.22-2.69 5.056-7.4 5.056-4.507 0-7.303-2.275-7.608-6.354l.001.001Zm27.573-22.412v-.524h-4v32.521h4v-6.136l4.211-4.13 7.523 10.056.155.209h4.979l-.635-.841-9.185-12.181 8.47-8.487.895-.898h-5.439l-.152.155-10.822 10.972V10.77Zm37.389 22.177h.492l.028-.492c.023-.388.037-.777.043-1.166 0-6.584-4.332-11.434-10.733-11.434-6.388 0-10.94 5.164-10.94 11.685 0 6.71 4.345 11.727 10.981 11.727 5.02 0 8.897-2.996 10.294-7.543l.21-.68h-4.161l-.122.35c-.878 2.488-3.254 4.14-6.179 4.14-3.824 0-6.49-2.644-6.971-6.587h17.058Zm-16.936-3.483c.674-3.532 3.253-5.875 6.766-5.875 3.62 0 6.118 2.267 6.666 5.875h-13.432Zm30.629-5.54h.522V20.36h-4.877v-6.084h-4.001v6.084h-4.044v3.569h4.044v12.565c0 4.122 2.123 6.356 6.023 6.356.679 0 1.267-.04 1.759-.109a4.94 4.94 0 0 0 .63-.119l.381-.106V38.78l-.63.137c-.186.038-.372.07-.559.098-.4.062-.803.096-1.207.102-1.708 0-2.396-.808-2.396-2.834V23.926h4.355v-.002Zm12.442 19.343c5.539 0 9.45-3.528 10.433-8.52l.122-.628h-4.035l-.104.39c-.842 3.186-3.125 5.025-6.416 5.025-4.106 0-6.939-3.262-6.939-7.952 0-4.726 2.828-7.993 6.939-7.993 3.291 0 5.576 1.837 6.416 5.023l.102.39h4.037l-.122-.628c-.983-4.99-4.894-8.519-10.433-8.519-6.433 0-10.983 5.2-10.983 11.727 0 6.491 4.556 11.685 10.983 11.685Zm17.923-32.495v-.524h-4.001v32.52h4.001V29.61c0-3.846 2.327-6.104 5.857-6.104 3.372 0 5.065 1.966 5.065 5.686v13.574h4.002V28.603c0-5.255-3.234-8.748-8.567-8.748-2.744 0-4.948 1.012-6.355 2.464V10.772h-.002Z"/><path fill="#FDB300" d="m21.054 6.097 14.284-1.51 14.283 1.51L60.679 20.97 35.337 50.456 9.997 20.97 21.053 6.097Z"/><path fill="#EA6C00" d="m20.261 20.97 15.076 29.486L9.997 20.97H20.26Z"/><path fill="#EA6C00" d="M50.414 20.97 35.336 50.455 60.677 20.97H50.414Z"/><path fill="#FDAD00" d="M20.262 20.97h30.152L35.338 50.455 20.262 20.97Z"/><path fill="#FDD231" d="m35.338 4.587-14.284 1.51-.792 14.872L35.338 4.587Z"/><path fill="#FDD231" d="m35.336 4.587 14.283 1.51.793 14.872L35.336 4.587Z"/><path fill="#FDAD00" d="M60.677 20.969 49.619 6.098l.795 14.871h10.263Zm-50.68 0L21.053 6.098l-.793 14.871H9.996Z"/><path fill="#FEEEB7" d="M35.338 4.587 20.262 20.969h30.152L35.338 4.587Z"/></svg>