<svg xmlns="http://www.w3.org/2000/svg" fill="none" aria-hidden="true" viewBox="0 0 206 57"><path fill="#000" d="m69.676 41.547 2.31-5.367c2.498 1.864 5.816 2.833 9.096 2.833 2.423 0 3.951-.932 3.951-2.349-.037-3.951-14.5-.857-14.612-10.772-.037-5.033 4.436-8.91 10.773-8.91 3.765 0 7.53.933 10.213 3.057l-2.162 5.48c-2.46-1.566-5.516-2.684-8.424-2.684-1.975 0-3.28.932-3.28 2.125.037 3.876 14.612 1.752 14.761 11.22 0 5.144-4.361 8.76-10.624 8.76-4.584 0-8.797-1.081-12.002-3.393Zm88.678-7.306c-1.155 2.013-3.317 3.392-5.815 3.392a6.665 6.665 0 0 1-6.672-6.672 6.665 6.665 0 0 1 6.672-6.672c2.498 0 4.66 1.379 5.815 3.392l6.375-3.541c-2.386-4.25-6.971-7.157-12.19-7.157-7.716 0-13.978 6.262-13.978 13.978s6.262 13.979 13.978 13.979c5.256 0 9.804-2.87 12.19-7.157l-6.375-3.542ZM95.508 5.39h7.977v39.028h-7.977V5.39Zm72.352 0v39.028h7.977V32.713l9.468 11.705h10.213l-12.04-13.904 11.146-12.972h-9.767l-9.02 10.772V5.39h-7.977Zm-40.668 28.926c-1.156 1.901-3.541 3.317-6.225 3.317a6.665 6.665 0 0 1-6.672-6.672 6.665 6.665 0 0 1 6.672-6.672c2.684 0 5.069 1.49 6.225 3.43v6.597Zm0-16.774v3.168c-1.305-2.199-4.548-3.727-7.94-3.727-7.008 0-12.524 6.188-12.524 13.94 0 7.754 5.516 14.017 12.524 14.017 3.392 0 6.635-1.529 7.94-3.728v3.168h7.977V17.542h-7.977Z"/><path fill="#E01E5A" d="M20.36 34.279c0 2.72-2.2 4.92-4.92 4.92-2.722 0-4.92-2.2-4.92-4.92a4.914 4.914 0 0 1 4.92-4.92h4.92v4.92Zm2.46 0c0-2.722 2.2-4.92 4.92-4.92a4.914 4.914 0 0 1 4.92 4.92v12.3a4.915 4.915 0 0 1-4.92 4.921c-2.72 0-4.92-2.2-4.92-4.92V34.279Z"/><path fill="#36C5F0" d="M27.74 14.523c-2.72 0-4.92-2.2-4.92-4.92 0-2.722 2.2-4.921 4.92-4.921a4.915 4.915 0 0 1 4.92 4.92v4.92h-4.92Zm0 2.497c2.722 0 4.92 2.2 4.92 4.92a4.915 4.915 0 0 1-4.92 4.92H15.403a4.915 4.915 0 0 1-4.92-4.92c0-2.72 2.2-4.92 4.92-4.92h12.339Z"/><path fill="#2EB67D" d="M47.46 21.94c0-2.72 2.199-4.92 4.92-4.92 2.72 0 4.92 2.2 4.92 4.92 0 2.721-2.2 4.92-4.92 4.92h-4.92v-4.92Zm-2.46 0c0 2.721-2.2 4.92-4.921 4.92s-4.92-2.198-4.92-4.92V9.602a4.915 4.915 0 0 1 4.92-4.92c2.72 0 4.92 2.199 4.92 4.92V21.94Z"/><path fill="#ECB22E" d="M40.079 41.66c2.72 0 4.92 2.199 4.92 4.92 0 2.72-2.2 4.92-4.92 4.92-2.721 0-4.92-2.2-4.92-4.92v-4.92h4.92Zm0-2.461c-2.721 0-4.92-2.2-4.92-4.92a4.915 4.915 0 0 1 4.92-4.92h12.338a4.915 4.915 0 0 1 4.92 4.92c0 2.72-2.199 4.92-4.92 4.92H40.08Z"/></svg>