<svg xmlns="http://www.w3.org/2000/svg" fill="none" aria-hidden="true" viewBox="0 0 145 80"><g fill="#201F26"><path d="M84.905 71.249c-.455.113-.855.2-1.19.255-.35.058-.732.117-1.143.176a7.952 7.952 0 0 1-1.111.081c-.907 0-1.575-.3-2.043-.92-.516-.68-.767-1.357-.767-2.068V29.188h-2.704v39.585c0 1.485.469 2.8 1.394 3.904.96 1.148 2.325 1.728 4.06 1.728.544 0 1.085-.031 1.606-.094.504-.06.956-.12 1.361-.181a19.46 19.46 0 0 0 1.425-.278l.917-.212-1.203-2.542-.602.15ZM25.94 51.377c1.954.33 3.752.926 5.343 1.773a10.757 10.757 0 0 1 3.963 3.58c1.01 1.528 1.523 3.46 1.523 5.74 0 2.25-.547 4.167-1.625 5.698a12.591 12.591 0 0 1-4.046 3.669 17.706 17.706 0 0 1-5.279 1.989c-1.867.384-3.679.58-5.386.58-3.59 0-6.775-.677-9.464-2.012-2.657-1.317-4.934-2.915-6.769-4.75l-.575-.576 2.05-1.777.499.52a18.443 18.443 0 0 0 6.54 4.398 20.82 20.82 0 0 0 7.719 1.493c1.565 0 3.194-.175 4.84-.52 1.619-.338 3.104-.89 4.417-1.64a9.762 9.762 0 0 0 3.174-2.87c.797-1.132 1.2-2.545 1.2-4.202 0-1.845-.42-3.343-1.246-4.453a9.071 9.071 0 0 0-3.296-2.717c-1.367-.673-2.89-1.13-4.525-1.355a35.628 35.628 0 0 0-4.861-.35c-1.943 0-3.853-.185-5.679-.55-1.868-.374-3.543-1.018-4.979-1.914a10.535 10.535 0 0 1-3.553-3.68c-.897-1.537-1.353-3.466-1.353-5.733 0-2.159.492-4.017 1.458-5.522a11.258 11.258 0 0 1 3.728-3.6c1.49-.89 3.156-1.54 4.954-1.934a24.65 24.65 0 0 1 5.245-.582c1.782 0 3.38.134 4.752.4 1.386.27 2.646.67 3.747 1.189a11.69 11.69 0 0 1 2.956 1.971 16.955 16.955 0 0 1 2.303 2.646l.546.77-2.57 1.082-.35-.512a9.547 9.547 0 0 0-2.202-2.315 11.324 11.324 0 0 0-2.786-1.504 15.218 15.218 0 0 0-3.142-.793 23.023 23.023 0 0 0-7.972.26c-1.495.317-2.846.836-4.018 1.542a8.517 8.517 0 0 0-2.814 2.76c-.715 1.124-1.095 2.523-1.13 4.159 0 1.852.37 3.386 1.102 4.544a8.156 8.156 0 0 0 2.885 2.779c1.206.686 2.592 1.167 4.123 1.427 1.572.27 3.17.406 4.748.406 1.932 0 3.885.163 5.805.486Z"/><path fill-rule="evenodd" d="M61.848 42.773a16.475 16.475 0 0 1 4.86 3.864 17.262 17.262 0 0 1 3.11 5.379c.72 1.998 1.085 4.015 1.085 5.995 0 2.185-.398 4.3-1.183 6.284a17.335 17.335 0 0 1-3.264 5.284 16.125 16.125 0 0 1-4.897 3.68c-1.875.916-3.922 1.403-6.084 1.444h-.029c-2.285-.041-4.406-.549-6.304-1.508a15.86 15.86 0 0 1-4.868-3.777 17.505 17.505 0 0 1-3.139-5.282 17.21 17.21 0 0 1-1.12-6.125c0-2.228.41-4.383 1.214-6.405.803-2.018 1.912-3.816 3.294-5.342a15.744 15.744 0 0 1 4.902-3.653 13.893 13.893 0 0 1 6.035-1.352c2.332 0 4.482.508 6.388 1.514ZM50.421 70.862c1.49.754 3.185 1.137 5.039 1.137 1.89 0 3.631-.41 5.178-1.221a13.444 13.444 0 0 0 4.054-3.237c1.125-1.331 2-2.853 2.602-4.525.6-1.674.906-3.36.906-5.005a14.45 14.45 0 0 0-.99-5.256 14.968 14.968 0 0 0-2.715-4.5 13.574 13.574 0 0 0-4.056-3.126 10.931 10.931 0 0 0-4.98-1.166c-1.886 0-3.626.42-5.171 1.247a13.85 13.85 0 0 0-4.06 3.271 14.688 14.688 0 0 0-2.602 4.523c-.6 1.674-.906 3.358-.906 5.007a16.866 16.866 0 0 0 1.08 5.261 14.744 14.744 0 0 0 2.659 4.498 12.994 12.994 0 0 0 3.962 3.092Z" clip-rule="evenodd"/><path d="M92.86 47.73c1.063-1.503 2.305-2.759 3.712-3.747 2.123-1.492 4.66-2.25 7.542-2.25h.757v2.668l-.719.036c-1.496.076-2.873.367-4.093.867a11.48 11.48 0 0 0-3.264 2.007 11.71 11.71 0 0 0-2.401 2.96 16.4 16.4 0 0 0-1.534 3.682v20.155h-2.704V41.734h2.704v5.996Z"/></g><path fill="#C7402B" d="m135.204 12.248-22.392 24.209 28.142-12.984a22.718 22.718 0 0 0-5.75-11.225ZM118.59 5.047c-3.102 0-6.058.622-8.753 1.745l-3.005 25.32 15.015-26.83a22.916 22.916 0 0 0-3.257-.235Zm22.587 19.821-26.666 14.923 25.018-2.969a22.704 22.704 0 0 0 1.648-11.954Zm-9.831 21.846a22.9 22.9 0 0 0 7.2-7.884l-23.45 4.657 16.25 3.227ZM123.22 5.52l-13.054 28.29 24.214-22.396a22.724 22.724 0 0 0-11.16-5.896Zm-2.725 45.013a22.65 22.65 0 0 0 7.152-1.79l-13.136-1.56 5.984 3.35ZM97.821 18.465a22.64 22.64 0 0 0-1.92 7.323l3.539 6.324-1.62-13.647ZM107.862 7.73a22.888 22.888 0 0 0-8.028 7.17l3.302 16.627 4.726-23.797Z"/></svg>