<svg xmlns="http://www.w3.org/2000/svg" fill="none" aria-hidden="true" viewBox="0 0 206 57"><path fill="#499CD2" d="M193.332 45.528h-2.36c0-19.008-15.685-34.472-34.962-34.472v-2.36c20.58 0 37.322 16.52 37.322 36.832Z"/><path fill="#489CD2" d="M194.962 32.85c-2.831-11.924-12.494-21.877-24.61-25.356l.543-1.891c12.788 3.672 22.987 14.186 25.98 26.791l-1.913.456Zm2.658-11.19c-2.92-6.367-7.898-11.92-14.008-15.634l.817-1.344c6.38 3.878 11.568 9.671 14.618 16.32l-1.427.658Z"/><g fill="#070707"><path fill-rule="evenodd" d="M107.955 41.963a6.92 6.92 0 0 1-9.603-1.833c-2.144-3.153-1.32-7.46 1.833-9.607 3.151-2.142 7.458-1.319 9.602 1.834 2.146 3.151 1.324 7.46-1.832 9.606Zm4.278-11.269c-3.061-4.512-9.204-5.679-13.711-2.614-4.51 3.065-5.68 9.206-2.614 13.713 2.711 3.994 7.832 5.363 12.098 3.503l3.82 6.203 3.031-2.059-3.818-6.203c3.3-3.282 3.911-8.554 1.194-12.543Z" clip-rule="evenodd"/><path d="M6.952 44.521c1.42.768 3.607 1.343 6.063 1.343 5.372 0 8.097-2.57 8.097-6.1-.039-2.725-1.497-4.529-5.065-5.757-2.303-.767-3.032-1.266-3.032-2.148 0-.921.806-1.497 2.226-1.497 1.573 0 3.223.614 4.067 1.036l.998-3.99c-1.151-.576-3.07-1.113-5.257-1.113-4.643 0-7.636 2.647-7.636 6.178-.038 2.187 1.458 4.297 5.372 5.602 2.149.69 2.724 1.19 2.724 2.149 0 .959-.729 1.535-2.494 1.535-1.727 0-3.952-.73-5.027-1.382l-1.036 4.144Zm24.482 1.382c4.988 0 9.861-3.147 9.861-9.977 0-5.679-3.837-9.631-9.555-9.631-6.062 0-10.053 3.875-10.053 9.938 0 6.063 4.221 9.67 9.708 9.67h.039Zm.076-4.183c-2.456 0-3.799-2.417-3.799-5.602 0-2.801 1.075-5.64 3.838-5.64 2.647 0 3.722 2.839 3.722 5.602 0 3.376-1.42 5.64-3.722 5.64h-.039Zm11.473 3.76h5.833V34.66c0-.537.038-1.075.192-1.458.422-1.075 1.381-2.187 2.993-2.187 2.11 0 2.954 1.65 2.954 4.067V45.48h5.833V34.39c0-5.525-2.878-8.096-6.715-8.096-3.147 0-5.027 1.803-5.794 3.031h-.115l-.269-2.61H42.83a126.9 126.9 0 0 1 .153 5.987V45.48Zm36.185-11.089c0-4.412-1.957-8.096-8.212-8.096-3.415 0-5.986.96-7.29 1.688l1.074 3.722c1.228-.729 3.262-1.381 5.18-1.381 2.878 0 3.415 1.42 3.415 2.417v.23c-6.638 0-11.012 2.303-11.012 7.176 0 2.993 2.264 5.756 6.062 5.756 2.226 0 4.145-.806 5.372-2.303h.116l.345 1.88h5.257c-.23-1.035-.307-2.762-.307-4.527V34.39Zm-5.64 4.26c0 .345-.04.69-.116.997-.384 1.19-1.612 2.149-3.031 2.149-1.305 0-2.302-.73-2.302-2.226 0-2.225 2.379-2.954 5.448-2.954v2.034Zm8.364 6.829h5.833v-9.477a6.6 6.6 0 0 1 .115-1.305c.383-1.842 1.842-2.954 3.99-2.954.653 0 1.113.076 1.574.153V26.41a5.812 5.812 0 0 0-1.228-.115c-1.842 0-4.106 1.151-5.065 3.914h-.154l-.23-3.492H81.74c.115 1.611.153 3.415.153 6.178V45.48Zm49.585-18.467h-3.376V38.37c0 .652-.116 1.266-.307 1.726-.614 1.535-2.188 3.109-4.452 3.109-3.031 0-4.144-2.418-4.144-5.948V27.013h-3.376v10.859c0 6.485 3.491 8.135 6.408 8.135 3.3 0 5.295-1.957 6.139-3.454h.077l.192 3.032h2.993c-.115-1.458-.154-3.147-.154-5.104V27.013Zm3.684 13.775c0 1.65-.038 3.53-.154 4.797h2.917l.192-3.07h.076c1.42 2.456 3.53 3.492 6.216 3.492 4.145 0 8.365-3.3 8.365-9.977 0-5.602-3.223-9.44-7.827-9.44-2.993 0-5.142 1.305-6.332 3.377h-.076V18.341h-3.377v22.447Zm3.377-5.986a5.3 5.3 0 0 1 .191-1.42c.653-2.532 2.802-4.144 5.104-4.144 3.607 0 5.525 3.185 5.525 6.946 0 4.259-2.072 7.137-5.64 7.137-2.418 0-4.413-1.612-5.065-3.953a6.332 6.332 0 0 1-.115-1.227v-3.339Zm31.464 2.111c.077-.384.115-.883.115-1.573 0-3.416-1.573-8.75-7.635-8.75-5.411 0-8.749 4.413-8.749 10.016 0 5.564 3.453 9.362 9.132 9.362 2.955 0 5.027-.652 6.216-1.19l-.613-2.416c-1.228.537-2.725.959-5.142.959-3.377 0-6.255-1.88-6.332-6.408h13.008Zm-12.969-2.418c.268-2.34 1.726-5.487 5.18-5.487 3.76 0 4.681 3.338 4.643 5.487h-9.823Z"/></g></svg>