<svg xmlns="http://www.w3.org/2000/svg" fill="none" aria-hidden="true" viewBox="0 0 161 73"><path fill="url(#a)" d="M19.83 55.833v11.884l35.183-19.905V35.928L19.829 55.833Z"/><path fill="#77CFFD" d="m19.83 27.609 35.183 19.906V35.631L19.829 15.724V27.61Z"/><path fill="#3195E3" d="M4.025 36.82 39.21 56.723V44.84L4.025 24.936V36.82Z"/><path fill="url(#b)" d="M4.025 36.82 39.21 56.723V44.84L4.025 24.936V36.82Z"/><path fill="#3195E3" d="M39.21 4.733 4.025 24.638v11.884L39.21 16.617V4.733Z"/><path fill="#2285E1" d="M39.21 44.868v11.858l-10.478-5.93 10.479-5.928ZM19.83 27.582V15.725l10.478 5.929-10.479 5.928Z"/><path fill="#000" d="M156.975 27.53v-4.593h-4.414v-8.993h-5.046v8.993h-3.639v4.592h3.639v22.189h5.046V27.529h4.414Zm-21.589 22.188h5.046v-26.78h-5.046v26.783-.003Zm0-29.875h5.046v-5.899h-5.046v5.9ZM124.081 49.72h5.046V13.944h-5.046V49.72Zm-9.898-13.343c0 5.125-3.782 9.428-9.071 9.428-5.338 0-9.124-4.352-9.124-9.524 0-5.028 3.786-9.476 8.978-9.476 5.19 0 9.217 4.495 9.217 9.573v-.001Zm5.046.29c0-8.073-5.627-14.458-13.923-14.458-3.833 0-7.326 1.643-9.56 4.833h-.098v-4.104H91.04V58.66h5.046V45.854h.099c1.94 3.19 5.87 4.542 9.462 4.542 7.708 0 13.581-6.138 13.581-13.729v-.002ZM86.967 41.84c0-5.174-3.688-7.35-8.104-8.703-1.842-.58-4.175-1.112-4.175-3.48 0-1.789 1.458-2.852 3.155-2.852 2.037 0 3.203 1.306 3.446 3.239h5.046c-.1-4.641-3.638-7.832-8.25-7.832-4.415 0-8.44 3.142-8.44 7.736 0 9.473 12.272 6.574 12.272 12.18 0 2.321-1.65 3.675-3.881 3.675-3.006 0-4.366-2.128-4.56-4.883H68.43c0 4.206 2.088 7.445 6.065 8.847 1.104.4 2.268.613 3.443.63 5.146 0 9.026-3.288 9.026-8.557h.002Z"/><defs><linearGradient id="a" x1="57.916" x2="39.071" y1="40.185" y2="53.359" gradientUnits="userSpaceOnUse"><stop stop-color="#3C9FE6"/><stop offset="1" stop-color="#77CFFD"/></linearGradient><linearGradient id="b" x1="36.133" x2="3.064" y1="49.219" y2="26.159" gradientUnits="userSpaceOnUse"><stop offset=".36" stop-color="#2285E1"/><stop offset=".79" stop-color="#2581CB"/></linearGradient></defs></svg>