<svg xmlns="http://www.w3.org/2000/svg" fill="none" aria-hidden="true" viewBox="0 0 152 76"><path fill="#003B57" d="M58.684 37.57c-1.924 0-3.49.57-4.689 1.708-1.2 1.14-1.808 2.634-1.808 4.465 0 .949.151 1.814.449 2.606.298.795.761 1.53 1.384 2.195.623.666 1.87 1.57 3.729 2.719 2.28 1.392 3.773 2.522 4.49 3.404.716.882 1.072 1.806 1.072 2.769 0 1.29-.425 2.319-1.297 3.093-.874.774-2.043 1.16-3.492 1.16-1.528 0-2.86-.54-4.003-1.61-1.143-1.07-1.72-2.488-1.733-4.264h-.711v6.447h.71c.218-.61.518-.923.91-.923.19 0 .633.13 1.323.374 1.678.598 3.057.886 4.14.886 1.867 0 3.461-.654 4.789-1.983 1.326-1.328 1.995-2.93 1.995-4.801 0-1.45-.442-2.741-1.31-3.866-.867-1.127-2.554-2.437-5.075-3.941-2.17-1.303-3.577-2.365-4.227-3.193-.651-.826-.986-1.74-.986-2.743 0-1.085.399-1.957 1.185-2.607.786-.65 1.816-.972 3.105-.972 1.451 0 2.66.43 3.617 1.297.956.867 1.508 2.07 1.671 3.616h.71V37.82h-.66c-.08.285-.156.467-.225.549-.066.081-.195.125-.386.125-.23 0-.64-.097-1.222-.287-1.247-.42-2.397-.636-3.455-.636Zm23.234 0c-2.346 0-4.475.553-6.398 1.658-1.927 1.104-3.451 2.637-4.577 4.59-1.125 1.952-1.683 4.025-1.683 6.235 0 2.969.971 5.614 2.93 7.931 1.96 2.317 4.309 3.76 7.034 4.316.623.324 1.514 1.162 2.681 2.519 1.315 1.53 2.427 2.634 3.342 3.292.914.658 1.9 1.14 2.943 1.459 1.044.318 2.172.474 3.392.474 1.478 0 2.8-.257 3.966-.786l-.262-.648a6.316 6.316 0 0 1-2.157.361c-1.031 0-2.073-.34-3.118-1.022-1.043-.684-2.347-1.99-3.903-3.916-.732-.923-1.236-1.505-1.522-1.733 2.982-.583 5.433-2.028 7.346-4.34 1.911-2.312 2.868-4.95 2.868-7.907 0-3.51-1.25-6.461-3.729-8.867-2.482-2.405-5.534-3.616-9.153-3.616Zm14.503 0 .037.76c1.562 0 2.436.46 2.632 1.385.073.33.106.941.112 1.82L99.19 58.36c-.013 1.256-.192 2.058-.537 2.407-.344.345-.927.562-1.77.648l-.038.76h15.564l.399-3.815h-.711c-.203 1.04-.668 1.784-1.409 2.207-.743.426-2.056.636-3.954.636h-1.471c-1.707 0-2.695-.617-2.956-1.858a3.91 3.91 0 0 1-.075-.798l.063-17.01c-.001-1.255.158-2.096.486-2.507.332-.41.93-.64 1.796-.699l-.037-.76h-8.119Zm-14.254.923c2.645 0 4.804 1.041 6.472 3.142 1.668 2.102 2.494 4.983 2.494 8.63 0 3.456-.838 6.224-2.519 8.306-1.68 2.08-3.917 3.117-6.697 3.117-2.67 0-4.835-1.069-6.497-3.217-1.66-2.149-2.482-4.938-2.482-8.368 0-3.525.832-6.346 2.507-8.455 1.674-2.107 3.916-3.155 6.722-3.155Zm35.791 3.616c-.379 0-.669.128-.885.387-.222.257-.29.569-.212.947.075.368.282.69.611.96.327.272.68.412 1.06.412.367 0 .647-.14.848-.411.201-.271.262-.593.187-.96a1.634 1.634 0 0 0-.586-.948 1.574 1.574 0 0 0-1.023-.387Zm10.264 2.582c-.645 2.48-2.043 3.824-4.19 4.04l.024.711h2.507l-.05 8.405c.004 1.437.048 2.394.15 2.881.247 1.166 1.008 1.758 2.282 1.758 1.843 0 3.777-1.122 5.799-3.367l-.611-.523c-1.46 1.478-2.751 2.22-3.879 2.22-.692 0-1.122-.399-1.284-1.185a3.038 3.038 0 0 1-.062-.674l.025-9.515h3.828l-.037-1.135h-3.779v-3.616h-.723Zm14.803 3.167c-2.142 0-3.884 1.04-5.238 3.106-1.347 2.069-1.764 4.361-1.235 6.883.312 1.478.933 2.623 1.883 3.43.949.807 2.153 1.21 3.592 1.21 1.34 0 3.205-.34 3.991-1.023.787-.683 1.512-1.79 2.182-3.305l-.536-.561c-1.069 1.966-3.225 2.956-4.851 2.956-2.236 0-3.605-1.227-4.116-3.667a9.022 9.022 0 0 1-.149-.998c2.659-.42 4.675-1.166 6.035-2.244 1.36-1.079 2.725-2.222 2.47-3.43a2.783 2.783 0 0 0-1.098-1.708c-.58-.427-2.088-.649-2.93-.649Zm-23.408.088-4.614 1.06v.823l1.596-.2c.773 0 1.228.35 1.372 1.048.048.233.079.56.087.972l-.05 7.545c-.013 1.044-.129 1.651-.362 1.833-.235.183-.854.275-1.858.275l-.025.71h7.321l-.013-.71c-1.017 0-1.676-.08-1.97-.237-.289-.156-.488-.44-.574-.873-.066-.313-.095-.852-.1-1.596l.025-10.65h-.835Zm22.235 1.396c.446 0 .876.172 1.31.512.427.338.688.714.773 1.122.418 2.006-1.361 3.392-5.362 4.165-.115-1.462.139-2.79.785-3.99.642-1.2 1.477-1.809 2.494-1.809Z"/><path fill="#0F80CC" d="M48.349 8.764H8.639a4.853 4.853 0 0 0-4.839 4.84v43.791a4.853 4.853 0 0 0 4.839 4.84h26.154c-.297-13.014 4.147-38.269 13.556-53.47Z"/><path fill="url(#a)" d="M46.906 10.176H8.639a3.431 3.431 0 0 0-3.428 3.427V54.2c8.667-3.326 21.675-6.196 30.669-6.066 1.807-9.45 7.119-27.97 11.026-37.958Z"/><path fill="#003B57" d="M57.61 7.33c-2.719-2.424-6.012-1.45-9.261 1.434-.483.429-.964.904-1.443 1.412-5.56 5.897-10.72 16.822-12.323 25.165.624 1.267 1.112 2.883 1.433 4.117a33.936 33.936 0 0 1 .433 1.854s-.05-.189-.254-.782a53.052 53.052 0 0 0-.134-.384 4.55 4.55 0 0 0-.086-.212c-.362-.843-1.365-2.622-1.807-3.397a84.794 84.794 0 0 0-.99 3.099c1.274 2.332 2.05 6.328 2.05 6.328s-.067-.259-.387-1.163c-.284-.8-1.7-3.28-2.036-3.86-.574 2.118-.802 3.548-.596 3.896.4.675.78 1.84 1.113 3.127.754 2.9 1.279 6.432 1.279 6.432l.045.594a59.096 59.096 0 0 0 .147 7.244c.25 3.022.72 5.618 1.32 7.007l.407-.222c-.88-2.737-1.238-6.324-1.082-10.46.237-6.324 1.692-13.95 4.381-21.898 4.542-11.998 10.845-21.624 16.613-26.221-5.258 4.748-12.373 20.116-14.503 25.807-2.385 6.373-4.075 12.354-5.094 18.084 1.758-5.372 7.44-7.68 7.44-7.68s2.787-3.438 6.044-8.349c-1.951.446-5.155 1.207-6.227 1.658-1.583.664-2.01.89-2.01.89s5.127-3.122 9.526-4.535c6.05-9.528 12.64-23.063 6.003-28.984Z"/><defs><linearGradient id="a" x1="29.253" x2="29.253" y1="11.077" y2="51.752" gradientUnits="userSpaceOnUse"><stop stop-color="#97D9F6"/><stop offset=".92" stop-color="#0F80CC"/><stop offset="1" stop-color="#0F80CC"/></linearGradient></defs></svg>