<svg xmlns="http://www.w3.org/2000/svg" fill="none" aria-hidden="true" viewBox="0 0 229 51"><path fill="#333" d="M64.968 37.81c-1.81 0-3.55-.244-5.224-.73-1.674-.486-3.065-1.16-4.173-2.019l1.696-3.765c2.307 1.605 4.897 2.408 7.769 2.408 1.493 0 2.64-.243 3.444-.73.802-.485 1.204-1.158 1.204-2.018 0-.769-.368-1.368-1.103-1.798-.735-.43-2.04-.848-3.918-1.255-2.104-.43-3.783-.95-5.038-1.56-1.255-.611-2.171-1.363-2.748-2.257-.577-.893-.865-1.996-.865-3.307 0-1.448.401-2.737 1.204-3.868.803-1.13 1.928-2.019 3.376-2.663 1.447-.645 3.12-.967 5.02-.967 1.697 0 3.331.249 4.903.746 1.572.498 2.822 1.165 3.749 2.002l-1.696 3.766c-2.194-1.606-4.501-2.41-6.921-2.41-1.38 0-2.466.267-3.257.798-.792.532-1.188 1.261-1.188 2.188 0 .543.153.99.458 1.34.306.351.815.662 1.527.933.713.272 1.725.555 3.036.849 3.076.678 5.287 1.549 6.633 2.612 1.346 1.063 2.019 2.533 2.019 4.41 0 2.262-.871 4.043-2.613 5.344-1.741 1.3-4.173 1.95-7.294 1.95Zm22.188-3.8c.52 0 1.063-.034 1.628-.102l-.271 3.732a14.38 14.38 0 0 1-1.968.135c-2.533 0-4.382-.554-5.547-1.662-1.165-1.108-1.747-2.793-1.747-5.055V24.68h-3.155v-3.834h3.155v-4.885h5.123v4.885h4.173v3.834h-4.173v6.344c0 1.99.927 2.986 2.782 2.986Zm11.908 3.765c-1.764 0-3.314-.356-4.648-1.068a7.494 7.494 0 0 1-3.087-3.02c-.724-1.3-1.086-2.832-1.086-4.597 0-1.764.362-3.296 1.086-4.597a7.387 7.387 0 0 1 3.087-3.002c1.334-.701 2.884-1.052 4.648-1.052 1.764 0 3.313.35 4.648 1.052a7.39 7.39 0 0 1 3.087 3.002c.724 1.3 1.085 2.833 1.085 4.597 0 1.765-.361 3.297-1.085 4.597a7.497 7.497 0 0 1-3.087 3.02c-1.335.712-2.884 1.068-4.648 1.068Zm0-3.901c2.488 0 3.732-1.595 3.732-4.784 0-1.605-.323-2.804-.967-3.596-.645-.791-1.567-1.187-2.765-1.187-2.488 0-3.732 1.594-3.732 4.783 0 3.19 1.244 4.784 3.732 4.784Zm23.001-9.228-2.883.305c-1.425.136-2.432.538-3.02 1.205-.588.667-.882 1.555-.882 2.663v8.685h-5.123V20.846h4.92v2.816c.837-1.922 2.567-2.974 5.19-3.155l1.493-.102.305 4.241Zm14.886-3.766h5.021l-10.043 22.73h-5.19l3.189-7.022-6.853-15.708h5.326l4.207 10.585 4.343-10.585Zm16.895-.44c1.447 0 2.725.35 3.833 1.051s1.974 1.702 2.596 3.002c.622 1.3.933 2.81.933 4.53 0 1.718-.311 3.24-.933 4.563-.622 1.323-1.493 2.352-2.613 3.087-1.119.735-2.391 1.102-3.816 1.102-1.154 0-2.194-.243-3.122-.729-.927-.486-1.639-1.16-2.137-2.019v2.477h-5.055V13.586h5.123v9.5c.498-.837 1.204-1.488 2.12-1.951.916-.464 1.94-.696 3.071-.696Zm-1.493 13.434c1.199 0 2.126-.424 2.782-1.272.656-.848.984-2.041.984-3.58 0-1.515-.328-2.674-.984-3.477-.656-.803-1.583-1.204-2.782-1.204s-2.126.412-2.782 1.238c-.656.826-.984 1.996-.984 3.511 0 1.538.328 2.72.984 3.546.656.825 1.583 1.238 2.782 1.238Zm19.982 3.901c-1.764 0-3.313-.356-4.648-1.068a7.497 7.497 0 0 1-3.087-3.02c-.724-1.3-1.086-2.832-1.086-4.597 0-1.764.362-3.296 1.086-4.597a7.39 7.39 0 0 1 3.087-3.002c1.335-.701 2.884-1.052 4.648-1.052 1.764 0 3.314.35 4.648 1.052a7.378 7.378 0 0 1 3.087 3.002c.724 1.3 1.086 2.833 1.086 4.597 0 1.765-.362 3.297-1.086 4.597a7.485 7.485 0 0 1-3.087 3.02c-1.334.712-2.884 1.068-4.648 1.068Zm0-3.901c2.488 0 3.732-1.595 3.732-4.784 0-1.605-.322-2.804-.967-3.596-.644-.791-1.566-1.187-2.765-1.187-2.488 0-3.732 1.594-3.732 4.783 0 3.19 1.244 4.784 3.732 4.784Zm19.101 3.901c-1.765 0-3.314-.356-4.648-1.068a7.494 7.494 0 0 1-3.088-3.02c-.723-1.3-1.085-2.832-1.085-4.597 0-1.764.362-3.296 1.085-4.597a7.387 7.387 0 0 1 3.088-3.002c1.334-.701 2.883-1.052 4.648-1.052 1.764 0 3.313.35 4.647 1.052a7.387 7.387 0 0 1 3.088 3.002c.723 1.3 1.085 2.833 1.085 4.597 0 1.765-.362 3.297-1.085 4.597a7.494 7.494 0 0 1-3.088 3.02c-1.334.712-2.883 1.068-4.647 1.068Zm0-3.901c2.487 0 3.731-1.595 3.731-4.784 0-1.605-.322-2.804-.966-3.596-.645-.791-1.567-1.187-2.765-1.187-2.488 0-3.732 1.594-3.732 4.783 0 3.19 1.244 4.784 3.732 4.784Zm29.083 3.63h-6.277l-6.378-7.43v7.43h-5.123V13.586h5.123v14.385l6.141-7.09h6.106l-6.988 7.938 7.396 8.685Z"/><mask id="a" width="35" height="43" x="8" y="4" maskUnits="userSpaceOnUse" style="mask-type:alpha"><path fill="#fff" d="M9.797 43.318 8.483 8.314a2.132 2.132 0 0 1 1.998-2.208l29.773-1.861a2.132 2.132 0 0 1 2.265 2.128v38.143a2.132 2.132 0 0 1-2.228 2.13l-28.46-1.278a2.132 2.132 0 0 1-2.034-2.05Z"/></mask><g mask="url(#a)"><path fill="#FF4785" d="M9.797 43.318 8.483 8.314a2.132 2.132 0 0 1 1.998-2.208l29.773-1.861a2.132 2.132 0 0 1 2.265 2.128v38.143a2.132 2.132 0 0 1-2.228 2.13l-28.46-1.278a2.132 2.132 0 0 1-2.034-2.05Z"/><path fill="#fff" d="m33.616 9.453.203-4.891 4.089-.321.176 5.044a.318.318 0 0 1-.515.26l-1.576-1.241-1.867 1.416a.318.318 0 0 1-.51-.267Zm-5.23 10.772c0 .83 5.588.432 6.338-.151 0-5.649-3.03-8.617-8.581-8.617-5.55 0-8.66 3.014-8.66 7.536 0 7.876 10.628 8.026 10.628 12.322 0 1.206-.59 1.922-1.89 1.922-1.692 0-2.361-.864-2.283-3.804 0-.637-6.455-.836-6.652 0-.501 7.123 3.936 9.178 9.014 9.178 4.92 0 8.778-2.623 8.778-7.371 0-8.441-10.785-8.215-10.785-12.398 0-1.695 1.26-1.921 2.007-1.921.788 0 2.205.138 2.087 3.304Z"/></g></svg>