<svg xmlns="http://www.w3.org/2000/svg" fill="none" aria-hidden="true" viewBox="0 0 161 73"><path fill="#635BFF" d="m86.83 13.028-10.664 2.294V6.655L86.83 4.403v8.625Z"/><path fill="#635BFF" fill-rule="evenodd" d="M109.008 17.828c-4.164 0-6.84 1.955-8.327 3.314l-.552-2.634h-9.347v49.54l10.621-2.253.043-12.023c1.529 1.104 3.781 2.676 7.52 2.676 7.605 0 14.53-6.118 14.53-19.586-.043-12.32-7.053-19.034-14.488-19.034Zm-2.549 29.273c-2.507 0-3.994-.892-5.013-1.996l-.043-15.763c1.105-1.232 2.634-2.082 5.056-2.082 3.866 0 6.543 4.334 6.543 9.9 0 5.693-2.634 9.941-6.543 9.941Zm50.516-9.814c0-10.876-5.268-19.459-15.338-19.459-10.111 0-16.229 8.583-16.229 19.374 0 12.788 7.222 19.246 17.589 19.246 5.056 0 8.88-1.147 11.769-2.761V45.19c-2.889 1.444-6.203 2.336-10.409 2.336-4.122 0-7.775-1.444-8.243-6.458h20.776c0-.234.015-.766.033-1.379.024-.832.052-1.815.052-2.402Zm-20.988-4.036c0-4.801 2.931-6.798 5.608-6.798 2.592 0 5.353 1.997 5.353 6.798h-10.961Z" clip-rule="evenodd"/><path fill="#635BFF" d="M86.83 18.55H76.166v37.176H86.83V18.551Zm-22.772 0 .68 3.145c2.506-4.589 7.477-3.654 8.837-3.144v9.772c-1.317-.468-5.566-1.063-8.073 2.209v25.194H54.881V18.551h9.177ZM43.495 9.331l-10.367 2.21-.043 34.03c0 6.289 4.716 10.92 11.004 10.92 3.484 0 6.033-.637 7.435-1.402v-8.625c-1.36.553-8.072 2.507-8.072-3.781V27.6h8.072v-9.05h-8.072l.043-9.219Zm-25.11 17.717c-2.252 0-3.611.637-3.611 2.294 0 1.81 2.34 2.605 5.243 3.593 4.732 1.609 10.96 3.727 10.987 11.575 0 7.605-6.076 11.98-14.913 11.98-3.654 0-7.648-.721-11.599-2.42V43.957c3.57 1.954 8.073 3.398 11.599 3.398 2.38 0 4.079-.637 4.079-2.591 0-2.004-2.537-2.92-5.599-4.026C9.908 39.055 4.025 36.93 4.025 29.852c0-7.52 5.736-12.024 14.36-12.024 3.527 0 7.01.553 10.537 1.955v9.984c-3.23-1.742-7.308-2.719-10.537-2.719Z"/></svg>