<svg xmlns="http://www.w3.org/2000/svg" fill="none" aria-hidden="true" viewBox="0 0 233 50"><path fill="#009" d="M50.603 13.38v23.4H45.14V34.3c-1.24 2.015-3.525 3.177-6.857 3.177-5.54 0-8.29-2.866-8.29-7.438V13.381h5.966v15.07c0 2.44 1.317 3.874 3.874 3.874 2.983 0 4.803-1.705 4.803-4.843V13.381h5.967Zm38.74 7.052V36.78h-5.966V22.214c0-2.79-1.124-4.494-3.72-4.494-2.595 0-4.106 1.937-4.106 4.649V36.78h-5.966V22.214c0-2.983-1.24-4.494-3.719-4.494-2.634 0-4.106 1.937-4.106 4.649V36.78h-5.966v-23.4h5.54v2.596c1.355-2.246 3.602-3.37 6.663-3.37 2.983 0 5.23 1.24 6.508 3.448 1.589-2.286 3.952-3.448 7.012-3.448 4.998 0 7.826 2.983 7.826 7.826Zm47.883 16.348h-5.966V4.238h5.966V36.78Zm64.696 0h-5.966v-23.4h5.966v23.4ZM195.84 9.856H202V4.16h-6.16v5.695ZM224.276 28.8c-2.441 2.595-4.107 3.602-6.354 3.602-2.673 0-4.571-1.55-5.423-3.951v-6.818c.891-2.441 2.789-3.99 5.501-3.99 1.975 0 3.564.697 6.082 3.06l3.719-3.68c-2.983-3.255-5.889-4.456-9.801-4.456-5.463 0-9.685 2.867-11.351 7.671v9.608c1.627 4.803 5.772 7.631 11.196 7.631 4.222 0 7.128-1.394 10.382-5.423l-3.951-3.254ZM17.053 22.369c-1.627-.349-2.789-.659-3.448-.814-.813-.232-1.433-.542-1.743-.968v-1.782c.543-.853 1.86-1.395 3.68-1.395 2.519 0 4.262.581 7.013 2.75l3.215-3.874c-3.254-2.711-6.043-3.68-10.072-3.68-4.65 0-7.865 1.898-9.143 4.61v5.889c1.007 1.976 3.331 3.099 7.98 4.106 1.666.388 2.79.659 3.448.775.852.271 1.627.62 2.053 1.24v2.053c-.58.93-1.975 1.433-3.796 1.433-1.317.04-2.596-.232-3.797-.736-1.162-.465-2.518-1.356-4.222-2.75L4.773 33.06c3.719 3.293 6.857 4.416 11.312 4.416 4.765 0 8.135-1.82 9.414-4.726v-5.927c-1.085-2.208-3.68-3.37-8.446-4.455Zm87.941-9.802c-5.385 0-9.608 2.906-11.35 7.555v9.84c1.704 4.649 5.965 7.554 11.35 7.554s9.569-2.905 11.273-7.515v-9.918c-1.743-4.61-5.966-7.516-11.273-7.516Zm5.501 15.923c-.93 2.479-2.905 3.951-5.54 3.951-2.595 0-4.649-1.472-5.578-3.951v-6.896c.929-2.48 2.905-3.99 5.578-3.99 2.635 0 4.572 1.51 5.501 3.99l.039 6.896Zm42.692-15.923c-5.385 0-9.608 2.906-11.351 7.555v9.84c1.743 4.649 5.966 7.554 11.351 7.554 5.385 0 9.569-2.905 11.273-7.515v-9.918c-1.704-4.61-5.927-7.516-11.273-7.516Zm5.501 15.923c-.93 2.479-2.905 3.951-5.501 3.951-2.596 0-4.649-1.472-5.579-3.951v-6.896c.93-2.48 2.906-3.99 5.579-3.99 2.673 0 4.571 1.51 5.501 3.99v6.896Zm26.537-15.11v2.596c-1.511-2.246-3.874-3.37-7.128-3.37-4.416 0-7.98 2.712-9.53 7.012v9.647c1.511 4.3 5.075 6.973 9.53 6.973 2.983 0 5.23-1.008 6.818-2.983v1.86c0 3.873-2.247 5.694-5.733 5.694-2.596 0-4.727-.775-8.136-2.79l-2.905 4.301a20.348 20.348 0 0 0 11.118 3.448c6.586 0 11.429-3.526 11.429-10.111V13.38h-5.463Zm-.736 14.219c-.891 2.208-2.75 3.602-5.075 3.602-2.324 0-4.184-1.355-5.075-3.602v-6.393c.891-2.208 2.712-3.564 5.075-3.564s4.184 1.356 5.075 3.564V27.6Z"/></svg>