<svg xmlns="http://www.w3.org/2000/svg" fill="none" aria-hidden="true" viewBox="0 0 161 73"><path fill="#6924C2" d="M51.102 18.515a2.128 2.128 0 0 1 1.063 1.845v13.983l-2.676-1.539a3.14 3.14 0 0 1-1.58-2.733v-7.487a1.733 1.733 0 0 0-.876-1.5L30.622 11.6a5.048 5.048 0 0 0-5.042 0L9.118 21.085a1.737 1.737 0 0 0-.86 1.5v6.173l28.957 16.767-2.174 1.257a4.166 4.166 0 0 1-4.164 0L5.088 31.83a2.14 2.14 0 0 1-1.064-1.845v-9.62a2.127 2.127 0 0 1 1.064-1.84L24.674 7.21a6.83 6.83 0 0 1 6.836 0l19.591 11.306ZM24.674 65.242a6.83 6.83 0 0 0 6.836 0l19.591-11.318a2.128 2.128 0 0 0 1.064-1.839v-9.62a2.144 2.144 0 0 0-1.063-1.845L25.314 25.63a4.165 4.165 0 0 0-4.165 0l-2.173 1.256L47.91 43.652v6.174a1.733 1.733 0 0 1-.877 1.5L30.622 60.81a5.048 5.048 0 0 1-5.042 0L9.118 51.326a1.737 1.737 0 0 1-.837-1.5V42.34a3.152 3.152 0 0 0-1.58-2.734l-2.676-1.539v13.989a2.128 2.128 0 0 0 1.064 1.839L24.674 65.24Z"/><path fill="#1E1945" d="M61.457 43.89a3.718 3.718 0 0 1 4.595-.855 8.47 8.47 0 0 0 4.018.968c2.224 0 3.622-1.024 3.622-2.569v-.096c0-1.46-.815-2.264-4.612-3.124-4.352-1.052-6.79-2.337-6.79-6.106v-.056c0-3.503 2.92-5.925 6.977-5.925a11.318 11.318 0 0 1 7.413 2.569 3.678 3.678 0 0 1-4.42 1.256c-.963-.417-2-.637-3.05-.645-2.105 0-3.333 1.08-3.333 2.422v.062c0 1.573.94 2.264 4.85 3.209 4.317 1.053 6.57 2.597 6.57 5.987v.057c0 3.825-3.011 6.1-7.3 6.1a12.596 12.596 0 0 1-8.54-3.254Zm25.511-5.699V26.427a3.593 3.593 0 0 1 3.593 3.593v8.03c0 3.792 1.958 5.84 5.167 5.84 3.208 0 5.138-1.93 5.138-5.699V26.427h3.593v11.59c0 6.105-3.446 9.172-8.788 9.172-5.342 0-8.703-3.067-8.703-8.998Zm26.981 6.016 12.059-14.594h-8.488a3.178 3.178 0 0 1-3.18-3.186h16.348v2.66L118.624 43.68h8.873a3.187 3.187 0 0 1 3.186 3.186h-16.734v-2.66Zm30.598-5.399-8.104-12.381h4.239l5.721 9.054 5.778-9.054h4.12l-8.138 12.29v4.528a3.622 3.622 0 0 1-3.616 3.622v-8.059Zm9.206 7.47h.273v-1.86h.639v-.23h-1.548v.23h.636v1.86Zm2.958 0h.264l-.13-2.09h-.344l-.373 1.011a8.045 8.045 0 0 0-.22.704h-.009a8.556 8.556 0 0 0-.211-.704l-.357-1.011h-.344l-.145 2.09h.257l.056-.896c.018-.313.034-.664.04-.924h.006c.059.248.143.518.242.812l.338.996h.205l.369-1.014c.105-.289.192-.55.263-.794h.01c-.003.26.015.61.031.902l.052.918Z"/></svg>