<svg xmlns="http://www.w3.org/2000/svg" fill="none" aria-hidden="true" viewBox="0 0 161 73"><path fill="#6924C2" d="M51.101 18.515a2.128 2.128 0 0 1 1.064 1.845v13.983l-2.676-1.539a3.14 3.14 0 0 1-1.58-2.733v-7.487a1.73 1.73 0 0 0-.876-1.5L30.622 11.6a5.048 5.048 0 0 0-5.042 0L9.118 21.085a1.737 1.737 0 0 0-.86 1.5v6.173l28.956 16.767-2.173 1.257a4.165 4.165 0 0 1-4.165 0L5.09 31.83a2.14 2.14 0 0 1-1.064-1.845v-9.62a2.127 2.127 0 0 1 1.064-1.84L24.674 7.21a6.83 6.83 0 0 1 6.836 0l19.591 11.306ZM24.674 65.242a6.83 6.83 0 0 0 6.836 0l19.591-11.318a2.128 2.128 0 0 0 1.064-1.839v-9.62a2.144 2.144 0 0 0-1.064-1.845L25.314 25.63a4.165 4.165 0 0 0-4.165 0l-2.173 1.256L47.91 43.652v6.174a1.73 1.73 0 0 1-.877 1.5L30.622 60.81a5.048 5.048 0 0 1-5.042 0L9.118 51.326a1.737 1.737 0 0 1-.838-1.5V42.34a3.152 3.152 0 0 0-1.578-2.734l-2.677-1.539v13.989a2.128 2.128 0 0 0 1.064 1.839L24.674 65.24Z"/><path fill="#1E1945" d="M61.457 43.89a3.718 3.718 0 0 1 4.595-.855 8.49 8.49 0 0 0 4.018.968c2.224 0 3.622-1.024 3.622-2.569v-.096c0-1.46-.815-2.264-4.612-3.124-4.352-1.053-6.791-2.337-6.791-6.106v-.056c0-3.503 2.92-5.925 6.977-5.925a11.318 11.318 0 0 1 7.413 2.569 3.678 3.678 0 0 1-4.42 1.256 7.83 7.83 0 0 0-3.05-.645c-2.104 0-3.332 1.08-3.332 2.422v.062c0 1.573.939 2.264 4.85 3.209 4.317 1.052 6.57 2.597 6.57 5.987v.057c0 3.825-3.011 6.1-7.3 6.1a12.597 12.597 0 0 1-8.54-3.254Zm25.51-5.699V26.427a3.593 3.593 0 0 1 3.594 3.593v8.03c0 3.792 1.958 5.84 5.166 5.84 3.209 0 5.139-1.93 5.139-5.699V26.427h3.593v11.589c0 6.106-3.446 9.173-8.788 9.173-5.342 0-8.704-3.067-8.704-8.998Zm26.982 6.016 12.059-14.594h-8.488a3.187 3.187 0 0 1-2.251-.934 3.179 3.179 0 0 1-.929-2.252h16.348v2.66L118.623 43.68h8.873a3.186 3.186 0 0 1 3.186 3.186h-16.733v-2.66Zm30.598-5.399-8.104-12.381h4.239l5.721 9.054 5.778-9.054h4.119l-8.137 12.29v4.528a3.622 3.622 0 0 1-3.616 3.622v-8.059Zm9.206 7.47h.273v-1.86h.638v-.23h-1.547v.23h.636v1.86Zm2.958 0h.264l-.13-2.09h-.345l-.372 1.01a8.055 8.055 0 0 0-.22.705h-.009a8.567 8.567 0 0 0-.211-.704l-.357-1.011h-.344l-.146 2.09h.258l.055-.896c.019-.313.035-.664.041-.924h.006c.059.248.143.518.242.812l.338.996h.205l.369-1.014c.105-.289.192-.55.263-.794h.009c-.003.26.016.61.031.902l.053.918Z"/></svg>