<svg xmlns="http://www.w3.org/2000/svg" fill="none" aria-hidden="true" viewBox="0 0 206 57"><path fill="#4A4A55" d="M69.682 40.982a10.065 10.065 0 0 1-5.735-1.62 8.307 8.307 0 0 1-3.349-4.436l3.492-1.282a6.44 6.44 0 0 0 2.28 2.76 6.005 6.005 0 0 0 3.455 1.016 5.074 5.074 0 0 0 3.294-.998 3.459 3.459 0 0 0 1.23-2.85 3.116 3.116 0 0 0-.339-1.442 4.319 4.319 0 0 0-.766-1.087 5.168 5.168 0 0 0-1.318-.873 19.582 19.582 0 0 0-1.478-.676 46.667 46.667 0 0 0-1.728-.624 55.872 55.872 0 0 1-2.137-.783 16.052 16.052 0 0 1-1.87-.944 6.913 6.913 0 0 1-1.746-1.318 6.392 6.392 0 0 1-1.05-1.728 6.174 6.174 0 0 1 1.673-7.017c1.426-1.259 3.361-1.888 5.807-1.888 2.042 0 3.722.45 5.04 1.353a6.545 6.545 0 0 1 2.654 3.598l-3.42 1.14a3.981 3.981 0 0 0-1.656-1.835 5.565 5.565 0 0 0-2.903-.694 4.475 4.475 0 0 0-2.796.783 2.63 2.63 0 0 0-1.016 2.209c.006.655.291 1.277.784 1.71.473.466 1.029.84 1.638 1.104.57.238 1.438.558 2.601.962.712.262 1.24.458 1.585.588.344.13.85.35 1.514.659a10.53 10.53 0 0 1 1.532.837c.435.313.851.652 1.246 1.015.43.373.797.812 1.087 1.3.277.507.492 1.045.641 1.603a7.36 7.36 0 0 1 .268 2.013c0 2.328-.796 4.15-2.387 5.468-1.591 1.318-3.634 1.977-6.127 1.977Zm22.833-.428L83.966 15.62h3.99l5.664 17.384c.313.934.574 1.886.783 2.85.209-.964.47-1.916.784-2.85l5.593-17.384h3.954L96.22 40.554h-3.705Zm19.77 0V15.62h15.46v3.491H115.99v6.84h7.587v3.49h-7.587v7.623h12.539v3.491h-16.244Zm25.683 0V15.62h3.705v21.373h12.183v3.563h-15.888Zm29.851-21.373v21.373h-3.705V19.181h-7.053V15.62h17.811v3.562h-7.053Zm14.712 21.373V15.62h15.46v3.491h-11.755v6.84h7.587v3.49h-7.587v7.623h12.538v3.491h-16.243Z"/><path fill="#FF3E00" d="M43.7 10.876c-4.348-6.222-12.934-8.066-19.142-4.11l-10.903 6.948a12.508 12.508 0 0 0-5.651 8.379 13.174 13.174 0 0 0 1.299 8.457 12.543 12.543 0 0 0-1.871 4.674 13.33 13.33 0 0 0 2.277 10.081c4.348 6.223 12.934 8.067 19.141 4.111l10.903-6.948a12.506 12.506 0 0 0 5.651-8.379 13.18 13.18 0 0 0-1.298-8.457 12.542 12.542 0 0 0 1.87-4.675 13.327 13.327 0 0 0-2.276-10.08Z"/><path fill="#fff" d="M23.493 45.89a8.66 8.66 0 0 1-9.296-3.445 8.015 8.015 0 0 1-1.37-6.062c.064-.345.151-.685.261-1.018l.206-.626.558.41a14.064 14.064 0 0 0 4.265 2.13l.405.124-.037.404c-.05.576.106 1.15.44 1.621a2.608 2.608 0 0 0 2.799 1.04c.236-.064.462-.163.67-.295l10.902-6.948c.54-.34.912-.89 1.025-1.518a2.422 2.422 0 0 0-.413-1.828 2.61 2.61 0 0 0-2.8-1.039 2.4 2.4 0 0 0-.669.294l-4.16 2.653a7.957 7.957 0 0 1-2.214.972 8.66 8.66 0 0 1-9.296-3.446 8.015 8.015 0 0 1-1.37-6.062 7.52 7.52 0 0 1 3.399-5.038L27.7 11.264a7.944 7.944 0 0 1 2.216-.973 8.66 8.66 0 0 1 9.295 3.446 8.015 8.015 0 0 1 1.37 6.062 7.68 7.68 0 0 1-.26 1.018l-.206.626-.558-.41a14.054 14.054 0 0 0-4.266-2.131l-.405-.123.037-.405a2.45 2.45 0 0 0-.44-1.62 2.608 2.608 0 0 0-2.798-1.04 2.4 2.4 0 0 0-.67.295l-10.903 6.948c-.54.34-.911.89-1.024 1.518-.114.64.035 1.298.412 1.827a2.61 2.61 0 0 0 2.8 1.04 2.41 2.41 0 0 0 .67-.294l4.16-2.652a7.93 7.93 0 0 1 2.213-.973 8.66 8.66 0 0 1 9.296 3.446 8.015 8.015 0 0 1 1.37 6.062 7.524 7.524 0 0 1-3.399 5.039l-10.902 6.947a7.942 7.942 0 0 1-2.216.974"/></svg>