<svg xmlns="http://www.w3.org/2000/svg" fill="none" aria-hidden="true" viewBox="0 0 206 57"><path fill="#4A4A55" d="M69.682 40.982a10.066 10.066 0 0 1-5.735-1.62 8.307 8.307 0 0 1-3.349-4.436l3.491-1.282a6.44 6.44 0 0 0 2.28 2.76 6.005 6.005 0 0 0 3.456 1.016 5.074 5.074 0 0 0 3.294-.998 3.459 3.459 0 0 0 1.23-2.85 3.116 3.116 0 0 0-.34-1.442 4.315 4.315 0 0 0-.765-1.087 5.167 5.167 0 0 0-1.318-.873 19.63 19.63 0 0 0-1.478-.677 46.96 46.96 0 0 0-1.728-.623 55.956 55.956 0 0 1-2.137-.783 16.068 16.068 0 0 1-1.87-.945 6.912 6.912 0 0 1-1.746-1.317 6.395 6.395 0 0 1-1.05-1.728 6.174 6.174 0 0 1 1.673-7.018c1.426-1.258 3.361-1.888 5.807-1.888 2.042 0 3.722.452 5.04 1.354a6.546 6.546 0 0 1 2.654 3.598l-3.42 1.14a3.981 3.981 0 0 0-1.656-1.835 5.563 5.563 0 0 0-2.903-.695 4.474 4.474 0 0 0-2.796.784 2.629 2.629 0 0 0-1.016 2.209c.006.655.291 1.277.784 1.71.473.466 1.029.84 1.638 1.104.57.238 1.438.558 2.601.962.712.262 1.24.458 1.585.588.344.13.849.35 1.514.659a10.53 10.53 0 0 1 1.532.837c.435.313.851.652 1.246 1.015.43.373.797.812 1.087 1.3a7.27 7.27 0 0 1 .641 1.603 7.36 7.36 0 0 1 .268 2.013c0 2.327-.796 4.15-2.387 5.467-1.591 1.319-3.634 1.978-6.127 1.978Zm22.833-.428-8.55-24.935h3.99l5.665 17.383c.313.935.574 1.887.783 2.85.209-.963.47-1.915.784-2.85l5.593-17.383h3.954L96.22 40.554h-3.705Zm19.77 0V15.62h15.46v3.491H115.99v6.84h7.587v3.49h-7.587v7.623h12.539v3.491h-16.244Zm25.683 0V15.62h3.705v21.373h12.183v3.562h-15.888Zm29.851-21.373v21.373h-3.705V19.181h-7.053V15.62h17.811v3.562h-7.053Zm14.712 21.373V15.62h15.46v3.491h-11.755v6.84h7.587v3.49h-7.587v7.623h12.538v3.491h-16.243Z"/><path fill="#FF3E00" d="M43.7 10.876c-4.348-6.222-12.934-8.066-19.142-4.11l-10.903 6.948a12.509 12.509 0 0 0-5.651 8.379 13.174 13.174 0 0 0 1.299 8.457 12.543 12.543 0 0 0-1.872 4.674A13.33 13.33 0 0 0 9.71 45.305c4.348 6.223 12.934 8.067 19.141 4.111l10.903-6.949a12.506 12.506 0 0 0 5.651-8.378 13.18 13.18 0 0 0-1.298-8.457 12.542 12.542 0 0 0 1.87-4.675 13.327 13.327 0 0 0-2.277-10.08Z"/><path fill="#fff" d="M23.492 45.89a8.66 8.66 0 0 1-9.295-3.445 8.015 8.015 0 0 1-1.37-6.062 7.6 7.6 0 0 1 .261-1.018l.206-.627.558.41a14.064 14.064 0 0 0 4.265 2.132l.405.123-.037.404c-.05.575.106 1.15.44 1.621a2.608 2.608 0 0 0 2.799 1.04c.236-.064.462-.164.67-.295l10.902-6.949c.54-.34.912-.89 1.025-1.517a2.422 2.422 0 0 0-.413-1.828 2.61 2.61 0 0 0-2.8-1.039 2.4 2.4 0 0 0-.669.294l-4.16 2.652a7.955 7.955 0 0 1-2.214.973 8.66 8.66 0 0 1-9.296-3.446 8.015 8.015 0 0 1-1.37-6.062 7.52 7.52 0 0 1 3.399-5.038L27.7 11.264a7.942 7.942 0 0 1 2.216-.973 8.66 8.66 0 0 1 9.295 3.445 8.015 8.015 0 0 1 1.37 6.063 7.75 7.75 0 0 1-.26 1.018l-.206.626-.558-.41a14.055 14.055 0 0 0-4.266-2.132l-.405-.122.037-.405a2.448 2.448 0 0 0-.44-1.621 2.608 2.608 0 0 0-2.798-1.039 2.4 2.4 0 0 0-.67.295l-10.903 6.948c-.54.34-.911.89-1.024 1.518-.114.64.035 1.298.412 1.827a2.61 2.61 0 0 0 2.8 1.04c.237-.064.463-.163.67-.295l4.16-2.65a7.935 7.935 0 0 1 2.213-.974 8.66 8.66 0 0 1 9.296 3.446 8.015 8.015 0 0 1 1.37 6.062 7.523 7.523 0 0 1-3.399 5.038l-10.902 6.948a7.944 7.944 0 0 1-2.216.974"/></svg>