<svg xmlns="http://www.w3.org/2000/svg" fill="none" aria-hidden="true" viewBox="0 0 197 60"><path fill="#FDB511" d="M53.418 4.925V6.44h1.516V4.925h-1.516Zm0 3.03v1.516h1.516V7.956h-1.516Zm-4.546 1.516v1.515h1.516V9.471h-1.516Zm-19.827 1.136c-12.032 0-21.783 9.75-21.783 21.783 0 12.032 9.75 21.785 21.783 21.785 12.032 0 21.783-9.751 21.783-21.785s-9.751-21.783-21.781-21.783h-.002Zm0 6.946c8.187 0 14.838 6.65 14.838 14.837s-6.651 14.838-14.838 14.838S14.27 40.578 14.27 32.39s6.587-14.837 14.774-14.837Z"/><path fill="#000" d="M63.47 43.917c-3.131 0-5.758-.778-7.88-2.334l2.031-3.334c1.697 1.192 3.617 1.788 5.758 1.788 1.051 0 1.88-.202 2.486-.606.606-.424.909-1.01.909-1.758 0-.202-.02-.383-.06-.545a1.333 1.333 0 0 0-.213-.455 2.228 2.228 0 0 0-.303-.394 1.676 1.676 0 0 0-.485-.363 8.234 8.234 0 0 0-.545-.303 9.618 9.618 0 0 0-1.516-.576 18.728 18.728 0 0 0-.94-.334 53.656 53.656 0 0 1-1.06-.363 13.5 13.5 0 0 1-1.91-.819 10.89 10.89 0 0 1-1.606-1.151 4.637 4.637 0 0 1-1.242-1.819c-.283-.747-.425-1.596-.425-2.546 0-1.92.667-3.404 2-4.455 1.334-1.07 3.092-1.606 5.274-1.606 2.627 0 4.758.485 6.395 1.455l-1.546 3.485a10.869 10.869 0 0 0-4.697-1.091c-2.102 0-3.152.687-3.152 2.06 0 .324.06.607.181.85.122.242.253.444.395.606.141.161.393.323.757.485.384.161.697.282.94.363l1.273.394.606.182c.707.222 1.313.434 1.818.636a10.38 10.38 0 0 1 1.667.88c.606.363 1.101.777 1.485 1.242.384.465.708 1.05.97 1.758.263.707.394 1.495.394 2.364 0 1.9-.677 3.425-2.03 4.576-1.334 1.152-3.243 1.728-5.729 1.728Zm15.24.424-5.73-16.396h4.76L80.68 39.4l2.484-11.456h4.456l-4.698 15.88c-1.091 3.678-3.364 5.517-6.82 5.517-.808 0-1.666-.091-2.576-.273l.485-3.212c.809.08 1.324.12 1.546.12.828 0 1.475-.13 1.94-.393.465-.243.869-.657 1.212-1.243Zm23.936-14.335c1.515-1.617 3.132-2.425 4.849-2.425 1.597 0 2.718.546 3.364 1.637.667 1.09 1.001 2.455 1.001 4.091v10.305h-4.607V33.249c0-1.253-.485-1.88-1.455-1.88-.768 0-1.626.425-2.576 1.273v10.972h-4.607V33.249c0-1.253-.485-1.88-1.455-1.88-.889 0-1.747.445-2.576 1.334v10.91h-4.606V27.946h2.848l.91 2.394c1.596-1.839 3.303-2.758 5.122-2.758 1.818 0 3.081.808 3.788 2.425Zm20.72 3.576v-.394c0-.707-.161-1.223-.484-1.546-.304-.323-.839-.485-1.607-.485-1.192 0-2.657.404-4.394 1.213l-1.576-3.031c2.02-1.172 4.142-1.758 6.364-1.758 2.081 0 3.647.515 4.698 1.546 1.071 1.01 1.606 2.455 1.606 4.334v10.153h-2.849c-.525-1.111-.798-1.667-.818-1.667-1.435 1.313-2.97 1.97-4.607 1.97-1.394 0-2.566-.404-3.515-1.212-.93-.829-1.395-1.95-1.395-3.365 0-1.656.536-2.869 1.607-3.637 1.252-.929 3.576-1.636 6.97-2.121Zm0 6.152v-3.303c-2 .404-3.212.849-3.636 1.333-.283.303-.425.718-.425 1.243 0 1.111.536 1.667 1.607 1.667.889 0 1.707-.313 2.454-.94Zm8.285 3.88v-15.67h2.848l.91 2.395c1.596-1.839 3.344-2.758 5.243-2.758 2.99 0 4.485 1.91 4.485 5.728v10.305h-4.606V33.249c0-1.253-.526-1.88-1.576-1.88-.97 0-1.869.445-2.698 1.334v10.91h-4.606Zm18.255-12.517h-2.303v-3.152h2.364l.788-4.456h3.758v4.456h3.334v3.152h-3.334v7.546c0 .687.111 1.162.333 1.425.222.263.677.394 1.364.394.384 0 .919-.101 1.606-.303l.546 3.182a11.053 11.053 0 0 1-3.516.576c-3.293 0-4.94-1.677-4.94-5.031v-7.79Zm15.103 6.03c.101 1.072.394 1.86.879 2.365.505.505 1.253.758 2.243.758.545 0 1.091-.081 1.637-.243.565-.161.979-.313 1.242-.454.283-.142.697-.364 1.243-.667l1.818 2.91a19.15 19.15 0 0 1-1.606 1.09c-.445.243-1.081.475-1.909.697-.829.223-1.748.334-2.758.334-2.304 0-4.143-.707-5.516-2.122-1.354-1.434-2.031-3.384-2.031-5.85 0-2.464.646-4.474 1.94-6.03 1.293-1.556 3.071-2.334 5.334-2.334 2.323 0 4.061.778 5.213 2.334 1.151 1.556 1.727 3.556 1.727 6v1.213h-9.456Zm0-2.696h4.759c0-2.364-.758-3.546-2.274-3.546-.727 0-1.293.282-1.697.848-.404.546-.667 1.445-.788 2.698Zm19.304 9.486c-2.505 0-4.394-.738-5.667-2.213-1.253-1.495-1.879-3.445-1.879-5.849 0-2.404.656-4.384 1.97-5.94 1.313-1.556 3.172-2.334 5.576-2.334 2.122 0 3.849.586 5.183 1.758l-2.152 3.06c-.546-.403-1.02-.676-1.424-.817-.405-.162-.93-.243-1.576-.243-1.88 0-2.819 1.485-2.819 4.455 0 2.91.96 4.365 2.879 4.365 1.031 0 2.071-.414 3.122-1.243l2.212 2.849c-1.434 1.435-3.243 2.152-5.425 2.152ZM35.233 21.594c-3.955 4.942-4.952 7.112-6.528 11.111-1.788-3.617-3.921-6.112-7.617-7.765-.699-.18-1.043-.283-1.515.378-.473.66-.184 1.257.38 1.958 1.479 1.839 3.142 3.536 4.293 5.619 1.352 2.443 3.033 6.466 3.599 7.514.45.833 1.541 1.2 1.96 1.2 2.234-.264 2.234-1.402 2.66-3.372.692-3.23 1.587-6.57 5.8-10.583v-6.062l-3.031.002Z"/><path fill="#000" d="M51.903 6.44v1.516h1.515V6.44h-1.515Zm0 1.516h-3.03V9.47h3.03V7.956Zm-3.03 1.515h-1.516v3.03h1.515v-3.03Zm0 3.03v1.516h1.515v-1.515h-1.516Zm1.515 0h1.515v-1.514h-1.515v1.515Zm-1.516 1.516h-1.515v1.516H45.84v-1.516h-3.03v1.516h-1.516v1.515h1.516v1.515h-1.516v-1.515H39.78v1.515h-1.516v1.516H36.75v6.061h3.03v-1.515h1.516V23.11h1.516v-1.516h-1.516V20.08h1.516v1.515h1.515V20.08h1.515v-1.516h1.516v-1.515h1.515v-3.03Zm-3.03 0h1.515v-1.515H45.84v1.515Zm0-1.515v-1.516h-1.516v1.516h1.515Z"/></svg>