<svg xmlns="http://www.w3.org/2000/svg" fill="none" aria-hidden="true" viewBox="0 0 182 65"><path fill="#00585F" fill-rule="evenodd" d="M113.606 32.277c0-3.626 2.522-5.856 5.602-5.856 7.457 0 7.457 11.745 0 11.745-3.08 0-5.602-2.224-5.602-5.889Zm11.201 5.998.177 2.872h3.428V23.445h-3.498l-.107 2.8c-1.084-2.013-3.427-3.196-5.881-3.196-4.963 0-8.927 3.303-8.927 9.228 0 6.032 3.817 9.371 8.857 9.338 2.141 0 4.801-1.08 5.951-3.34Zm15.437-11.741c1.369 0 2.803.5 3.886 1.578l2.318-2.48c-1.862-1.866-3.856-2.62-6.235-2.62-5.004 0-9.095 3.194-9.095 9.3 0 6.107 4.125 9.303 9.095 9.303 2.482 0 4.622-.829 6.543-2.764l-2.453-2.481c-1.117 1.183-2.619 1.652-4.09 1.652-2.974 0-5.491-1.974-5.491-5.71 0-3.516 2.411-5.778 5.522-5.778ZM79.252 38.419c-2.027-.041-4.445-.792-6.05-2.62l-1.885 2.62c2.27 2.622 5.065 3.265 7.87 3.265 4.473 0 7.318-2.296 7.353-5.599.026-4.563-4.13-5.281-7.318-5.567-2.202-.216-3.709-.79-3.743-2.262 0-1.403 1.467-2.157 3.671-2.12 1.716 0 3.187.36 4.551 1.652l2.028-2.443c-1.92-1.76-3.979-2.364-6.646-2.364-3.217 0-7.18 1.467-7.18 5.384.036 3.912 3.784 4.989 7.033 5.315 2.563.249 4.034.86 3.998 2.44-.035 1.652-1.96 2.299-3.682 2.299Zm19.252-11.745c3.287 0 5.452 2.303 5.452 5.638 0 3.306-2.307 5.637-5.452 5.637-3.152 0-5.43-2.472-5.43-5.637 0-3.163 2.098-5.638 5.43-5.638ZM63.433 8.716a2.038 2.038 0 0 0-2.034 2.038v11l-7.876 8.944V16.044h-3.64v25.103h3.64V32.96l7.876 8.733v12.192c0 1.127.905 2.04 2.034 2.04h29.33V38.56c1.295 2.194 3.988 2.98 6.087 2.98 5.356 0 8.719-3.877 8.719-9.228 0-5.35-3.576-9.192-8.719-9.228-2.308 0-4.756 1.077-6.088 3.231l-.214-2.87h-3.392v28.71l-23.447-.009a.666.666 0 0 1-.67-.67v-11.18l-7.788-8.522 7.788-8.665v-9.977c0-.377.31-.683.678-.683H172.84c.375 0 .679.296.679.689v38.32a.69.69 0 0 1-.69.688l-76.466.014v3.737l78.754.027a2.04 2.04 0 0 0 2.038-2.028V10.745c0-1.12-.915-2.029-2.034-2.029H63.433Zm88.243 21.836c.561-2.802 2.728-4.274 5.357-4.274 2.906 0 4.898 1.472 5.108 4.274h-10.465Zm5.246-7.57c-5.384 0-9.061 3.838-9.061 9.222 0 5.675 3.642 9.371 9.31 9.371 2.661 0 5.634-1.005 7.421-3.015l-2.35-2.331c-1.046 1.22-3.248 1.9-5 1.9-3.154 0-5.321-1.76-5.637-4.449h13.997c.664-7.223-3.114-10.698-8.68-10.698ZM28.398 38.166c-3.074 0-5.593-2.224-5.593-5.889 0-3.626 2.519-5.856 5.593-5.856 7.461 0 7.461 11.745 0 11.745Zm5.603-11.92c-1.08-2.014-3.427-3.197-5.873-3.197-4.975 0-8.928 3.303-8.928 9.228 0 6.032 3.81 9.371 8.85 9.338 2.136 0 4.796-1.08 5.95-3.34l.178 2.872h3.428V23.445h-3.495l-.11 2.8ZM14.258 38.021c-1.676 0-2.483-1.043-2.483-2.906v-8.442h5.079V23.48h-5.038v-7.437H8.174v7.437H4.845v3.192h3.33v8.443c0 4.16 2.132 6.354 5.878 6.247 1.22 0 2.281-.252 3.466-.793l-1.053-3.159c-.7.36-1.505.611-2.208.611Zm27.688 3.125h3.606V16.044h-3.606v25.103Z" clip-rule="evenodd"/><path fill="#00585F" fill-rule="evenodd" d="M61.104 10.754a2.333 2.333 0 0 1 2.329-2.333H175.12a2.329 2.329 0 0 1 2.329 2.324v43.151a2.336 2.336 0 0 1-2.333 2.323l-79.048-.028v-4.327l76.759-.013a.396.396 0 0 0 .396-.394v-38.32a.382.382 0 0 0-.384-.393H65.717a.39.39 0 0 0-.383.388v10.09l-7.685 8.55 7.685 8.409v11.294c0 .213.166.376.375.376l23.152.009V23.15h3.96l.175 2.327c1.453-1.798 3.718-2.688 5.854-2.688h.002c2.648.018 4.906 1.019 6.501 2.714 1.594 1.695 2.511 4.068 2.511 6.81 0 2.736-.861 5.118-2.429 6.82-1.571 1.704-3.832 2.702-6.585 2.702-1.89 0-4.306-.622-5.793-2.357V56.22H63.433a2.328 2.328 0 0 1-2.329-2.335V41.806l-7.286-8.079v7.715h-4.23V15.749h4.23v14.168l7.286-8.274v-10.89Zm2.329-1.743c-.96 0-1.739.784-1.739 1.743v11.112l-8.466 9.614V16.339h-3.05v24.513h3.05v-8.66l8.466 9.387v12.306c0 .965.774 1.745 1.739 1.745h29.034V37.48l.55.93c1.219 2.064 3.782 2.835 5.833 2.835 2.603 0 4.702-.94 6.151-2.512 1.452-1.575 2.272-3.807 2.272-6.42 0-2.61-.87-4.832-2.35-6.405-1.478-1.572-3.579-2.511-6.074-2.529-2.224 0-4.567 1.04-5.836 3.091l-.477.773-.262-3.503h-2.823v28.71l-23.742-.009a.961.961 0 0 1-.965-.966V40.41l-7.892-8.634 7.892-8.78v-9.864a.98.98 0 0 1 .973-.978H172.84c.539 0 .974.43.974.984v38.32a.986.986 0 0 1-.985.983l-76.17.014v3.147l78.459.027c.962 0 1.742-.79 1.742-1.733V10.745a1.74 1.74 0 0 0-1.739-1.734H63.433ZM7.879 15.75h4.232v7.437h5.038v3.783h-5.08v8.147c0 .895.196 1.543.546 1.963.341.41.87.648 1.643.648.641 0 1.4-.231 2.073-.578l.306-.157 1.246 3.736-.241.11c-1.218.556-2.32.82-3.585.82-1.93.054-3.489-.484-4.562-1.615-1.07-1.128-1.616-2.8-1.616-4.927V26.97H4.55v-3.783h3.33V15.75Zm.59.59v7.437H5.14v2.602h3.33v8.738c0 2.033.52 3.538 1.453 4.52.929.98 2.308 1.484 4.121 1.432h.009c1.09 0 2.047-.208 3.101-.66l-.862-2.585c-.651.294-1.375.494-2.034.494-.902 0-1.616-.283-2.097-.86-.473-.568-.681-1.373-.681-2.341v-8.738h5.079v-2.602h-5.038V16.34H8.47Zm33.181-.59h4.197v25.693H41.65V15.749Zm.59.59v24.513h3.017V16.339h-3.016Zm31.892 7.614c1.452-.893 3.305-1.267 4.951-1.267 2.722 0 4.858.62 6.845 2.442l.207.19-2.408 2.9-.228-.216c-1.294-1.224-2.683-1.57-4.349-1.57h-.005c-1.074-.018-1.933.158-2.513.482-.565.315-.857.763-.858 1.338.015.607.321 1.031.904 1.346.603.326 1.48.52 2.571.626 1.593.143 3.485.397 4.979 1.215.752.412 1.411.971 1.88 1.738.468.767.733 1.723.727 2.91v.002c-.018 1.743-.782 3.226-2.127 4.267-1.338 1.037-3.237 1.623-5.522 1.623-2.853 0-5.745-.657-8.092-3.367l-.153-.176 2.239-3.11.244.279c1.534 1.747 3.861 2.479 5.831 2.519.83 0 1.689-.158 2.333-.496.638-.335 1.036-.827 1.051-1.514.008-.346-.066-.624-.206-.853-.14-.23-.359-.43-.667-.602-.627-.35-1.584-.562-2.858-.685-1.637-.165-3.44-.52-4.844-1.353-1.423-.844-2.437-2.18-2.456-4.254v-.002c0-2.078 1.06-3.512 2.524-4.412Zm-1.934 4.41c.018 1.838.895 2.996 2.167 3.75 1.291.766 2.988 1.112 4.6 1.274 1.288.124 2.349.343 3.088.756.376.21.678.474.884.811.206.338.302.73.292 1.173-.02.964-.602 1.622-1.366 2.023-.757.398-1.72.564-2.61.564h-.007c-1.983-.04-4.348-.74-6.015-2.45l.21-.292-.239-.172-.221.194c.081.093.165.183.25.27L71.694 38.4a10.607 10.607 0 0 1-.154-.174l-.223.193.24.172.137-.191c2.166 2.389 4.802 2.989 7.492 2.989 2.19 0 3.95-.562 5.161-1.5 1.205-.932 1.881-2.247 1.898-3.806.006-1.094-.238-1.939-.641-2.599-.404-.66-.978-1.154-1.66-1.528-1.375-.753-3.154-1.001-4.749-1.144h-.002c-1.11-.11-2.086-.311-2.796-.695-.728-.393-1.193-.991-1.213-1.855v-.006c0-.827.441-1.456 1.16-1.857.705-.394 1.68-.576 2.809-.557h-.003v.295l.006-.295h-.003c1.669 0 3.148.335 4.518 1.52l-.197.238.227.188.203-.214a7.137 7.137 0 0 0-.233-.211l1.649-1.987c.07.06.14.123.21.186l.199-.217-.227-.188-.182.219c-1.794-1.556-3.723-2.1-6.237-2.1-1.57 0-3.308.36-4.642 1.18-1.32.812-2.243 2.07-2.243 3.907Zm77.963-2.995c1.653-1.695 3.996-2.681 6.761-2.681 2.844 0 5.27.889 6.898 2.74 1.627 1.851 2.413 4.616 2.076 8.28l-.024.268h-13.925c.205 1.122.764 2.046 1.596 2.707.914.728 2.177 1.152 3.699 1.152a8.16 8.16 0 0 0 2.665-.475c.873-.313 1.633-.765 2.111-1.322l.206-.241 2.774 2.752-.185.208c-1.857 2.089-4.921 3.114-7.642 3.114-2.9 0-5.307-.946-6.99-2.645-1.683-1.697-2.615-4.12-2.615-7.02 0-2.761.944-5.144 2.595-6.837Zm.423.412c-1.533 1.571-2.428 3.8-2.428 6.424 0 2.773.889 5.037 2.444 6.606s3.803 2.47 6.571 2.47c2.507 0 5.277-.916 7.011-2.711l-1.933-1.917c-.559.549-1.326.97-2.143 1.262a8.736 8.736 0 0 1-2.864.51c-1.631 0-3.03-.455-4.066-1.28-1.04-.826-1.698-2.01-1.864-3.43l-.039-.329h14.058c.265-3.42-.504-5.918-1.954-7.568-1.487-1.692-3.732-2.54-6.455-2.54-2.619 0-4.806.932-6.338 2.503Zm-16.998-.622c1.712-1.622 4.063-2.44 6.627-2.44 2.456 0 4.525.782 6.444 2.706l.201.202-2.72 2.91-.215-.215c-1.023-1.016-2.38-1.492-3.679-1.492-1.482 0-2.785.538-3.718 1.482-.931.945-1.509 2.312-1.509 4.001 0 1.798.604 3.145 1.539 4.043.939.9 2.235 1.372 3.657 1.372 1.41 0 2.827-.449 3.875-1.56l.21-.222 2.873 2.906-.206.208c-1.977 1.992-4.192 2.85-6.752 2.85-2.547 0-4.898-.819-6.614-2.441-1.719-1.626-2.776-4.033-2.776-7.156 0-3.122 1.048-5.528 2.763-7.153Zm.406.429c-1.582 1.498-2.579 3.742-2.579 6.725 0 2.984 1.005 5.228 2.591 6.727 1.589 1.502 3.786 2.28 6.209 2.28 2.316 0 4.315-.739 6.125-2.471l-2.036-2.06c-1.158 1.096-2.648 1.53-4.089 1.53-1.552 0-3.001-.516-4.065-1.537-1.066-1.023-1.721-2.532-1.721-4.469 0-1.828.628-3.35 1.679-4.415 1.052-1.065 2.509-1.658 4.138-1.658 1.348 0 2.759.462 3.873 1.455l1.918-2.052c-1.746-1.664-3.605-2.334-5.822-2.334-2.44 0-4.637.778-6.221 2.279Zm-112.4-.357c1.674-1.628 3.983-2.476 6.536-2.476 2.197 0 4.34.921 5.614 2.556l.085-2.16h4.074v18.292h-4l-.138-2.231c-1.376 1.836-3.766 2.698-5.711 2.699-2.586.017-4.879-.832-6.526-2.481-1.647-1.65-2.621-4.073-2.621-7.152 0-3.03 1.013-5.418 2.688-7.047Zm.412.423c-1.545 1.503-2.509 3.73-2.509 6.624 0 2.952.931 5.215 2.45 6.735 1.518 1.52 3.65 2.324 6.104 2.307h.002c2.061 0 4.598-1.045 5.687-3.178l.49-.961.228 3.672h2.855V23.74h-2.916l-.142 3.6-.512-.956c-1.018-1.898-3.252-3.04-5.613-3.04-2.422 0-4.576.803-6.124 2.309Zm90.392-.423c1.674-1.628 3.983-2.476 6.53-2.476 2.204 0 4.345.922 5.621 2.556l.083-2.16h4.077v18.292h-4.001l-.137-2.23c-1.373 1.836-3.763 2.697-5.712 2.698-2.586.017-4.88-.832-6.528-2.48-1.649-1.65-2.625-4.073-2.625-7.153 0-3.031 1.016-5.418 2.692-7.047Zm.411.423c-1.546 1.503-2.513 3.73-2.513 6.624 0 2.952.933 5.215 2.452 6.735 1.52 1.52 3.655 2.324 6.108 2.307h.002c2.067 0 4.603-1.045 5.688-3.178l.49-.965.227 3.676h2.856V23.74h-2.919l-.138 3.599-.513-.954c-1.022-1.899-3.252-3.04-5.621-3.04-2.416 0-4.57.802-6.119 2.308Zm39.239 4.604h9.768c-.153-1.172-.652-2.056-1.402-2.663-.821-.665-1.973-1.02-3.379-1.02-1.26 0-2.393.352-3.275 1.025-.8.611-1.407 1.497-1.712 2.658Zm1.354-3.127c.999-.763 2.264-1.147 3.633-1.147 1.5 0 2.797.38 3.75 1.152.959.776 1.542 1.924 1.652 3.395l.024.317h-11.143l.07-.353c.294-1.466 1.013-2.6 2.014-3.364ZM24.657 28.198c-.953.95-1.557 2.337-1.557 4.079 0 1.762.604 3.157 1.557 4.11.955.955 2.276 1.484 3.741 1.484 1.78 0 3.096-.697 3.972-1.731.88-1.04 1.329-2.438 1.329-3.846 0-1.41-.448-2.807-1.33-3.847-.875-1.034-2.19-1.73-3.97-1.73-1.466 0-2.787.53-3.742 1.481Zm-.416-.418c1.073-1.07 2.548-1.654 4.157-1.654 1.95 0 3.433.771 4.422 1.94.984 1.162 1.469 2.7 1.469 4.228 0 1.527-.485 3.065-1.469 4.227-.99 1.169-2.471 1.94-4.422 1.94-1.61 0-3.084-.583-4.158-1.657-1.074-1.075-1.73-2.625-1.73-4.527 0-1.884.656-3.426 1.73-4.497Zm91.219.419c-.955.95-1.559 2.336-1.559 4.078 0 1.762.605 3.157 1.559 4.11.956.954 2.28 1.484 3.748 1.484 1.779 0 3.094-.697 3.969-1.73.881-1.041 1.329-2.438 1.329-3.847 0-1.41-.448-2.807-1.329-3.847-.875-1.034-2.19-1.73-3.969-1.73-1.468 0-2.792.53-3.748 1.482Zm-.416-.419c1.075-1.07 2.552-1.654 4.164-1.654 1.95 0 3.431.771 4.42 1.94.983 1.162 1.468 2.7 1.468 4.228 0 1.527-.485 3.065-1.468 4.227-.989 1.169-2.47 1.94-4.42 1.94-1.612 0-3.089-.583-4.165-1.657-1.076-1.075-1.732-2.625-1.732-4.527 0-1.884.657-3.426 1.733-4.497Zm-20.288.728c-.884.953-1.387 2.288-1.387 3.804 0 3.016 2.16 5.342 5.135 5.342 2.975 0 5.157-2.191 5.157-5.342 0-1.603-.519-2.936-1.411-3.865-.891-.929-2.174-1.478-3.746-1.478-1.589 0-2.866.588-3.748 1.539Zm-.433-.402c1-1.078 2.438-1.727 4.18-1.727 1.716 0 3.159.602 4.173 1.66 1.012 1.055 1.576 2.541 1.576 4.273 0 3.462-2.433 5.932-5.748 5.932-3.329 0-5.725-2.618-5.725-5.932 0-1.646.547-3.13 1.544-4.206Z" clip-rule="evenodd"/></svg>