<svg xmlns="http://www.w3.org/2000/svg" fill="none" aria-hidden="true" viewBox="0 0 215 54"><path fill="#51195D" d="M152.371 20.885c3.815 0 6.414 1.345 6.414 5.345v6.967c0 1.087.055 3.022.221 4.183h-3.723c-.129-.46-.221-1.474-.258-1.972-.663 1.309-2.193 2.249-4.534 2.249-3.999 0-5.4-2.507-5.4-4.94 0-2.912 1.99-5.308 7.63-5.308h1.899v-1.18c0-1.308-.406-2.34-2.304-2.34-1.88 0-2.341.977-2.507 2.157h-4.091c.165-2.562 1.695-5.161 6.653-5.161Zm34.226-.019c5.29 0 6.728 3.816 6.82 6.064h-4.258c-.147-1.474-.811-2.82-2.654-2.82-2.212 0-3.133 2.064-3.133 5.032 0 3.778 1.124 5.29 3.059 5.29 1.807 0 2.415-1.18 2.747-2.728h4.22v.018c-.46 3.244-2.525 5.935-7.059 5.935-4.976 0-7.28-3.06-7.28-8.35 0-5.123 2.838-8.44 7.538-8.44Zm16.072 0c5.437 0 7.059 3.87 7.059 8.055 0 .22-.037 1.069-.055 1.308h-10.229v.019c0 1.972.755 4.091 3.151 4.091 1.936 0 2.525-1.216 2.783-1.935h4.166c-.774 2.691-2.691 5.253-7.059 5.253-5.161 0-7.317-3.539-7.317-8.35 0-3.999 2.009-8.44 7.501-8.44ZM74.353 15.964v3.594h-5.806V37.38h-4.405V19.558h-5.787v-3.594h15.998Zm52.27-1.309V37.38h-4.257V14.655h4.257Zm7.944 0V37.38h-4.258V14.655h4.258Zm-49.358 1.309c4.681 0 6.782 2.47 6.782 5.437 0 2.69-1.474 3.852-2.617 4.313 1.585.663 3.373 2.211 3.373 5.179 0 4.128-3.133 6.469-7.686 6.469h-8.165V15.964h8.313Zm28.199 0 6.875 21.398h-4.571l-1.622-5.087h-7.096l-1.493 5.087h-4.276c.277-.848 6.212-20.477 6.525-21.398h5.658Zm29.084 5.216v16.182h-4.257V21.18h4.257Zm28.697-.314c3.41 0 5.124 2.194 5.124 5.898v10.598h-4.258v-9.787c0-1.843-.46-3.225-2.469-3.225-1.936 0-2.876 1.124-2.876 3.962v9.032h-4.257V26.248h.018c0-3.336-.037-4.35-.055-5.068h4.128c.056.313.148 1.345.148 2.1.663-1.253 2.193-2.414 4.497-2.414Zm-16.422 9.253h-1.99c-2.913 0-3.429 1.18-3.429 2.248 0 1.125.664 2.065 2.286 2.065 2.525 0 3.133-1.696 3.133-3.963v-.35Zm-70.35-2.433h-3.245V34.1h3.558c2.009 0 3.538-.977 3.538-3.189 0-2.1-1.216-3.225-3.852-3.225Zm26.042-8.405h-.037c-.497 2.378-1.474 5.714-2.598 9.4h5.381c-1.308-4.35-2.248-7.41-2.746-9.4Zm92.136 4.774c-2.414 0-3.004 1.972-3.096 3.41h6.101c-.056-1.807-.811-3.41-3.005-3.41ZM84.675 19.28h-3.502v5.087h3.28c2.249 0 3.28-.719 3.28-2.525 0-1.75-1.179-2.562-3.059-2.562Zm57.817-4.626v3.908h-4.257v-3.908h4.257Zm-111.82-9.97C18.416 3.025 7.136 11.614 5.477 23.871c-1.659 12.256 6.93 23.536 19.187 25.195 12.256 1.659 23.536-6.93 25.195-19.187 1.658-12.256-6.93-23.536-19.187-25.195Z"/><path fill="#00C0F3" d="M40.108 20.958c0 2.452-1.935 4.903-4.386 4.903h-3.908v-9.953h3.908c2.451.019 4.386 2.6 4.386 5.05Zm3.318 11.907c0 2.451-2.083 4.976-4.626 4.976h-6.985v-9.953H38.8c2.543 0 4.626 2.525 4.626 4.977Z"/><path fill="#fff" d="M11.908 20.977c0-2.451 2.23-5.069 4.995-5.069h11.593v9.972H16.902c-2.765 0-4.995-2.194-4.995-4.903Zm11.63 16.864c-2.452 0-4.977-2.083-4.977-4.626V27.87h9.953v5.345c0 2.562-2.525 4.626-4.976 4.626Z"/></svg>