<svg xmlns="http://www.w3.org/2000/svg" fill="none" aria-hidden="true" viewBox="0 0 224 52"><path fill="#303D4D" d="M27.048 39.702c-3.411.089-4.071-2.345-4.1-4.113v-12.26h7.95v-7.105H22.98V5.664h-6.244a.332.332 0 0 0-.306.311c-.366 3.253-1.922 8.961-8.385 11.242v6.112h4.92v12.906c0 4.666 2.91 11.294 12.192 11.139 3.132-.053 6.611-1.336 7.381-2.443l-2.05-5.948c-.793.368-2.308.69-3.44.72Zm38.061-.756V16.225H51.147v6.671l2.69.001c.885 0 1.257.377 1.27 1.202l-.015 10.364c0 1.016-.733 4.831-5.82 4.928-3.465.066-4.194-1.979-4.194-4.66V16.226H34.796V35.26c0 4.817 2.2 12.395 12.464 12.117 3.37-.092 7.23-1.786 9.236-4.272l.084 3.828h11.457v-6.527s-.927-.072-1.62-.118c-.81-.053-1.308-.49-1.308-1.342Zm59.585-.063.001-9.316c0-3.32-.04-6.75-2.237-9.55-2.013-2.564-5.353-4.444-10.423-4.2-3.366.163-6.958 1.727-8.941 4.407l-.312.394-.19-.228c-2.039-2.944-5.293-4.817-10.362-4.573-3.369.163-6.96 1.727-8.943 4.407l-.298-4H70.566v6.672l2.859.043c.884 0 1.258.376 1.27 1.201v14.743c0 .852-.501 1.318-1.31 1.371-.694.046-2.099.146-2.099.146v6.527l16.8.005V40.4l-2.097-.146c-.81-.055-1.31-.519-1.31-1.371 0 0 .013-8.336.013-10.005 0-1.667 1.38-5.088 5.76-5.088 3.532 0 4.256 2.153 4.256 4.658l.004 10.435c0 .853-.5 1.318-1.31 1.372-.694.047-2.098.147-2.098.147v6.525h16.782V40.4l-2.099-.146c-.809-.055-1.302-.519-1.302-1.371h-.025s.014-8.336.014-10.005c0-1.667 1.23-5.088 5.61-5.088 3.533 0 4.417 2.153 4.417 4.658V37.2l-.001 1.684c0 .853-.502 1.318-1.311 1.372-.694.047-2.098.147-2.098.147v6.525h16.803V40.4l-2.097-.146c-.811-.055-1.303-.519-1.303-1.371Zm22.162.896c-1.397.103-3.983-.132-5.646-3.051v-4.276l.001-.002h-.001v-4.945c0-2.137 1.974-4.013 5.03-4.127 3.094-.114 5.832 1.998 5.832 7.963 0 8.047-3.529 8.313-5.216 8.438Zm1.521-23.995c-2.54.112-5.22 1.084-7.167 2.776V4.308h-3.597s-5.881 2.09-10.434 2.648l-.149 6.526 2.879.004c.884 0 1.264.376 1.275 1.202v32.217l8.226-.009 1.174-2.643c.252.14 4.026 3.688 10.052 2.978 7.587-.895 11.572-6.902 11.572-16.016 0-4.781-1.467-15.971-13.831-15.43Zm63.218 5.925c-.335-7.28-10.194-7.615-15.348-2.697l-.94-2.82H183.39v6.672l2.499-.003c.885 0 1.213.375 1.225 1.2v14.796c0 .852-.503 1.318-1.312 1.37-.694.046-2.091.147-2.091.147V46.9h16.779v-6.526s-1.388-.1-2.08-.147c-.811-.052-1.313-.518-1.313-1.37l-.004-10.032c0-1.88.431-5.018 3.749-5.82.41 3.137 3.441 4.074 4.92 4.074 3.735 0 5.833-2.796 5.833-5.37Zm-34.602 17.148.009-34.55h-3.634s-6.037 2.185-10.386 2.649v6.526h2.745c.883 0 1.253.376 1.265 1.201v24.174c0 .852-.5 1.318-1.31 1.37l-2.247.147V46.9h17.117v-6.526s-1.555-.1-2.248-.147c-.811-.052-1.311-.518-1.311-1.37Zm32.945-3.352c-3.323 0-6.016 2.638-6.016 5.891 0 3.25 2.693 5.89 6.016 5.89 3.325 0 6.017-2.64 6.017-5.89 0-3.253-2.692-5.891-6.017-5.891Z"/></svg>