<svg xmlns="http://www.w3.org/2000/svg" fill="none" aria-hidden="true" viewBox="0 0 170 69"><path fill="#010202" d="M16.377 51.125c-1.208-1.286-2.153-2.835-2.835-4.646-.683-1.811-1.024-3.819-1.024-6.024V6.438H4.25v34.49c0 3.254.538 6.207 1.614 8.858 1.076 2.651 2.546 4.921 4.41 6.811 1.863 1.89 4.068 3.347 6.614 4.37 2.546 1.024 5.29 1.536 8.229 1.536 2.887 0 5.578-.525 8.071-1.575a18.982 18.982 0 0 0 6.496-4.488v5.118h8.19V6.438h-8.268v34.017c0 2.205-.341 4.2-1.024 5.985-.682 1.784-1.64 3.32-2.874 4.606a13.074 13.074 0 0 1-4.33 2.992c-1.655.709-3.426 1.063-5.316 1.063-1.943 0-3.74-.34-5.394-1.023a12.196 12.196 0 0 1-4.291-2.953Z"/><path fill="#010202" fill-rule="evenodd" d="M62.126 26.517V6.438h-7.953v55.12h7.874v-5.04a20.919 20.919 0 0 0 6.417 4.37c2.441 1.077 5.08 1.615 7.914 1.615 2.94 0 5.696-.551 8.268-1.654 2.572-1.102 4.803-2.598 6.693-4.488 1.89-1.89 3.386-4.108 4.489-6.654 1.102-2.546 1.653-5.262 1.653-8.15 0-2.887-.551-5.617-1.653-8.189-1.103-2.572-2.599-4.803-4.489-6.693-1.89-1.89-4.12-3.386-6.693-4.489-2.572-1.102-5.328-1.653-8.268-1.653-2.835 0-5.46.538-7.874 1.614a21.06 21.06 0 0 0-6.379 4.37ZM65.984 51.4a13.701 13.701 0 0 1-2.953-4.41c-.709-1.68-1.063-3.49-1.063-5.433 0-1.942.368-3.766 1.103-5.472a14.125 14.125 0 0 1 2.992-4.45 13.71 13.71 0 0 1 4.41-2.952 13.63 13.63 0 0 1 5.354-1.063c1.89 0 3.674.354 5.354 1.063a13.258 13.258 0 0 1 4.37 2.953c1.234 1.26 2.218 2.743 2.953 4.449.735 1.706 1.103 3.53 1.103 5.472 0 1.943-.368 3.754-1.103 5.434a14.606 14.606 0 0 1-2.952 4.41 13.774 13.774 0 0 1-4.37 2.992 13.212 13.212 0 0 1-5.355 1.102c-1.942 0-3.754-.367-5.433-1.102a14.249 14.249 0 0 1-4.41-2.993Zm35.985-17.953c1.049-2.52 2.493-4.738 4.331-6.654 1.837-1.916 4.015-3.425 6.535-4.527 2.52-1.103 5.25-1.654 8.19-1.654 2.887 0 5.564.525 8.031 1.575 2.468 1.05 4.594 2.507 6.379 4.37 1.784 1.864 3.176 4.069 4.173 6.615.997 2.546 1.496 5.315 1.496 8.307v2.599h-32.678a13.44 13.44 0 0 0 1.575 4.527 13.64 13.64 0 0 0 2.952 3.622 13.507 13.507 0 0 0 4.016 2.402c1.497.578 3.084.866 4.764.866 4.778 0 8.636-1.968 11.576-5.905l5.748 4.252a21.386 21.386 0 0 1-7.402 6.299c-2.94 1.522-6.247 2.284-9.922 2.284-2.992 0-5.787-.526-8.386-1.575-2.598-1.05-4.855-2.52-6.771-4.41-1.917-1.89-3.426-4.108-4.528-6.654-1.103-2.546-1.654-5.315-1.654-8.307 0-2.835.525-5.512 1.575-8.032Zm11.063-3.11c-2.231 1.863-3.714 4.344-4.449 7.44h24.489c-.682-3.096-2.139-5.577-4.37-7.44-2.231-1.864-4.843-2.796-7.835-2.796s-5.604.932-7.835 2.796Z" clip-rule="evenodd"/><path fill="#010202" d="M155.986 31.242c-1.68 1.837-2.52 4.33-2.52 7.48v22.836h-7.953V21.4h7.874v4.961c.998-1.627 2.297-2.913 3.898-3.858 1.601-.945 3.504-1.418 5.709-1.418h2.756v7.402h-3.307c-2.625 0-4.777.919-6.457 2.756Z"/></svg>