<svg xmlns="http://www.w3.org/2000/svg" fill="none" aria-hidden="true" viewBox="0 0 210 56"><path fill="#698DBA" fill-rule="evenodd" d="M25.588 12.342a3.3 3.3 0 0 0-3.296 3.296v24.449a3.301 3.301 0 0 0 3.296 3.3h24.445a3.303 3.303 0 0 0 3.302-3.3v-24.45a3.303 3.303 0 0 0-3.302-3.295H25.588ZM24.14 40.088v-24.45a1.445 1.445 0 0 1 1.447-1.444h24.445c.803 0 1.448.645 1.448 1.444v24.449c0 .804-.645 1.447-1.447 1.447H25.586a1.447 1.447 0 0 1-1.447-1.446Z" clip-rule="evenodd"/><path fill="#698DBA" fill-rule="evenodd" d="M15.957 6.005a3.308 3.308 0 0 1 2.334-.97h24.445a3.31 3.31 0 0 1 3.304 3.303V32.78a3.306 3.306 0 0 1-3.304 3.306h-3.998v11.302a3.3 3.3 0 0 1-3.302 3.3H10.992a3.297 3.297 0 0 1-3.3-3.3V22.942a3.305 3.305 0 0 1 3.3-3.3h3.996v1.853h-3.995a1.45 1.45 0 0 0-1.451 1.446v24.446a1.451 1.451 0 0 0 1.45 1.451h24.445c.8 0 1.45-.652 1.45-1.45V36.085H18.29a3.306 3.306 0 0 1-3.303-3.306V21.495h1.852V32.78c0 .805.65 1.455 1.45 1.455h18.597V22.941c0-.794-.65-1.446-1.45-1.446H16.84v-1.852h18.596a3.308 3.308 0 0 1 3.301 3.3v11.291h4c.797 0 1.448-.65 1.448-1.454V8.338c0-.797-.65-1.443-1.449-1.443H18.291a1.446 1.446 0 0 0-1.45 1.443v11.305h-1.853V8.338c.001-.875.35-1.714.969-2.333Z" clip-rule="evenodd"/><path fill="#698DBA" d="M14.988 19.643v1.852h1.852v-1.852h-1.852Z"/><path fill="#5C4835" fill-rule="evenodd" d="M77.009 38.497c-.547 1.439-1.124 2.324-3.018 2.324-1.896 0-2.471-.886-3.014-2.324L65.365 24.06c-.268-.7-.347-1.122-.347-1.63 0-1.79 1.392-2.714 2.902-2.714 1.547 0 2.21 1.119 2.474 1.972l3.558 11.022h.078l3.555-11.022c.274-.853.93-1.972 2.475-1.972h5.475c1.416 0 2.347.773 2.539 2.13 1.366-1.477 3.155-2.326 5.226-2.326 2.334 0 4.293.969 5.761 2.826 1.541-1.785 4-2.826 5.909-2.826 4.539 0 7.624 2.636 7.624 7.508v10.697c0 1.855-1.16 3.097-2.776 3.097-1.624 0-2.775-1.24-2.775-3.097v-9.722c0-2.247-1.252-3.837-3.281-3.837-2.061 0-3.31 1.591-3.31 3.837v9.722c0 1.855-1.165 3.097-2.775 3.097-1.624 0-2.773-1.24-2.773-3.097v-9.722c0-2.247-1.255-3.837-3.284-3.837-2.294 0-3.314 1.591-3.314 3.837v9.722c0 1.855-1.156 3.097-2.771 3.097-1.623 0-2.777-1.24-2.777-3.097V23.823L77.01 38.497Zm37.49-15.952c-.151-.508-.274-.964-.274-1.316 0-.663.469-1.514 1.631-1.514.733 0 1.428.266 1.897 1.748l4.372 14.102h.077l4.296-13.598c.469-1.477.771-2.252 2.019-2.252 1.233 0 1.545.775 2.007 2.252l4.3 13.598h.079l4.368-14.102c.469-1.482 1.166-1.748 1.893-1.748 1.166 0 1.625.85 1.625 1.513 0 .348-.116.808-.271 1.315l-5.646 16.493c-.461 1.317-1.004 1.784-1.971 1.784-.934 0-1.51-.467-1.929-1.784l-4.415-13.935h-.077l-4.412 13.935c-.425 1.317-1 1.784-1.929 1.784-.972 0-1.509-.467-1.979-1.784l-5.661-16.49Zm33.126 7.723c0-3.513 1.473-7.631 5.658-7.631 4.185 0 5.66 4.117 5.66 7.63 0 3.501-1.475 7.628-5.66 7.628-4.185 0-5.658-4.126-5.658-7.627Zm14.528-8.909c0-1.186-.934-1.644-1.591-1.644-.699 0-1.579.458-1.579 1.644v1.083h-.083c-1.584-1.735-3.251-2.727-5.617-2.727-5.815 0-9.068 5.063-9.068 10.553 0 5.49 3.253 10.553 9.068 10.553 2.212 0 4.144-1 5.617-3.082h.083v1.428c0 1.194.88 1.654 1.579 1.654.657 0 1.591-.459 1.591-1.654V21.36Zm4.482.178c0-1.122.655-1.817 1.697-1.817 1.044 0 1.711.694 1.711 1.817v1.752h.079c.77-1.596 2.672-3.568 4.645-3.568 1.192 0 1.895.773 1.895 1.742 0 .97-.703 1.588-2.133 1.861-2.014.348-4.486 1.861-4.486 5.855v9.819c0 1.123-.667 1.822-1.711 1.822-1.042 0-1.697-.699-1.697-1.822v-17.46Zm14.365 7.5c.114-3.161 1.618-6.554 5.843-6.4 3.761 0 5.464 3.433 5.464 6.4H181Zm12.818 2.558c1.467 0 1.897-.624 1.897-1.818 0-5-3.252-10.061-8.872-10.061-5.772 0-9.258 4.946-9.258 10.561 0 5.483 2.871 10.545 9.454 10.545 4.027 0 8.247-2.536 8.247-4.203 0-.977-.612-1.518-1.237-1.518-1.276 0-2.44 2.796-6.977 2.796-3.826 0-6.071-2.759-6.071-6.3h12.817v-.002Zm4.53-11.528v.45h-1.072v3.078h-.539v-3.077h-1.066v-.45h2.677Zm3.428 3.528-.145-2.116c-.022-.285-.006-.618-.016-.968h-.022c-.088.332-.194.709-.305 1.017l-.725 2.016h-.416l-.71-2.065c-.091-.29-.178-.64-.266-.968h-.022c-.008.335 0 .64-.022.96l-.125 2.124h-.518l.268-3.528h.716l.68 1.906c.087.27.162.558.25.892h.021c.075-.334.154-.637.254-.897l.678-1.9h.691l.267 3.527h-.533Z" clip-rule="evenodd"/></svg>