<svg xmlns="http://www.w3.org/2000/svg" fill="none" aria-hidden="true" viewBox="0 0 170 69"><path fill="url(#a)" d="M87.774 25.067c-.092 7.265 6.474 11.319 11.42 13.73 5.083 2.473 6.79 4.058 6.771 6.27-.039 3.385-4.055 4.878-7.813 4.937-6.557.101-10.368-1.77-13.4-3.187l-2.36 11.053c3.04 1.401 8.671 2.623 14.51 2.677 13.705 0 22.672-6.766 22.72-17.255.053-13.312-18.414-14.05-18.288-20 .044-1.804 1.766-3.73 5.539-4.219 1.867-.247 7.022-.436 12.865 2.255l2.294-10.693c-3.142-1.145-7.182-2.24-12.211-2.24-12.9 0-21.973 6.857-22.046 16.672Zm56.298-15.751c-2.502 0-4.611 1.46-5.552 3.7l-19.578 46.745h13.695l2.726-7.532h16.735l1.581 7.532h12.071L155.217 9.316h-11.145Zm1.916 13.627 3.952 18.942h-10.824l6.872-18.942ZM71.169 9.316 60.374 59.76h13.05l10.79-50.445H71.17Zm-19.306 0L38.279 43.65l-5.494-29.195c-.645-3.259-3.191-5.14-6.018-5.14H4.56l-.31 1.464c4.559.99 9.738 2.585 12.876 4.292 1.92 1.043 2.468 1.955 3.098 4.433L30.632 59.76h13.792L65.568 9.316H51.863Z"/><defs><linearGradient id="a" x1="78.498" x2="80.008" y1="61.593" y2="8.032" gradientUnits="userSpaceOnUse"><stop stop-color="#222357"/><stop offset="1" stop-color="#254AA5"/></linearGradient></defs></svg>