<svg xmlns="http://www.w3.org/2000/svg" fill="none" aria-hidden="true" viewBox="0 0 152 77"><path fill="#1A1F71" d="M58.625 7.155 39.72 52.256H27.386l-9.304-35.995c-.564-2.212-1.054-3.026-2.77-3.96-2.806-1.525-7.44-2.95-11.512-3.837l.275-1.31h19.857c2.527 0 4.803 1.683 5.38 4.597l4.917 26.1L46.365 7.156h12.26Zm16.674 0-9.648 45.101H53.983L63.63 7.155h11.668Zm31.653 30.376C107 25.63 90.496 24.969 90.604 19.65c.04-1.616 1.579-3.337 4.95-3.777 1.67-.216 6.282-.388 11.507 2.02l2.044-9.57c-2.807-1.015-6.419-1.993-10.913-1.993-11.535 0-19.65 6.127-19.714 14.907-.076 6.495 5.795 10.114 10.21 12.277 4.549 2.21 6.074 3.63 6.053 5.603-.033 3.026-3.632 4.366-6.979 4.416-5.868.093-9.27-1.586-11.984-2.85L73.66 50.57c2.73 1.25 7.761 2.338 12.972 2.393 12.263 0 20.284-6.056 20.32-15.433Zm30.46 14.725H148.2l-9.426-45.101h-9.953c-2.246 0-4.132 1.302-4.969 3.306l-17.509 41.795h12.253l2.431-6.737h14.97l1.415 6.737Zm-13.025-15.98 6.144-16.936 3.529 16.937h-9.673ZM90.233 64.672h-4.741v4.412h5.303v1.327h-6.901V58.168h6.63v1.326h-5.032v3.868h4.74v1.309Zm3.011-7.157h1.598V70.41h-1.598V57.515Zm5.629 8.79c.036 2.163 1.399 3.052 3.014 3.052 1.145 0 1.853-.2 2.435-.453l.29 1.144c-.563.254-1.543.562-2.943.562-2.705 0-4.321-1.797-4.321-4.45 0-2.65 1.56-4.722 4.122-4.722 2.888 0 3.633 2.507 3.633 4.124 0 .326-.019.562-.055.744h-6.175Zm4.686-1.144c.018-.998-.418-2.578-2.216-2.578-1.635 0-2.325 1.471-2.453 2.578h4.669Zm10.24 4.94c-.418.2-1.345.51-2.525.51-2.651 0-4.377-1.798-4.377-4.487 0-2.706 1.852-4.685 4.722-4.685.944 0 1.779.235 2.216.472l-.363 1.217c-.382-.2-.982-.419-1.853-.419-2.016 0-3.105 1.508-3.105 3.325 0 2.034 1.307 3.287 3.051 3.287a4.57 4.57 0 0 0 1.961-.418l.273 1.199Zm4.483-10.588v2.107h2.287v1.216h-2.287v4.741c0 1.09.309 1.708 1.198 1.708.435 0 .691-.036.927-.11l.073 1.218a4.37 4.37 0 0 1-1.417.217c-.745 0-1.345-.254-1.725-.67-.437-.492-.618-1.272-.618-2.308v-4.796h-1.363V61.62h1.363v-1.635l1.562-.472Zm4.52 4.85c0-1.036-.02-1.925-.073-2.743h1.399l.072 1.743h.054c.4-1.18 1.38-1.925 2.451-1.925.165 0 .292.019.437.036v1.508c-.164-.036-.326-.036-.545-.036-1.125 0-1.925.835-2.143 2.035-.036.217-.054.49-.054.745v4.685h-1.598v-6.048Zm14.164 1.58c0 3.25-2.271 4.668-4.378 4.668-2.361 0-4.213-1.745-4.213-4.523 0-2.924 1.943-4.65 4.359-4.65 2.524 0 4.232 1.835 4.232 4.505Zm-6.957.09c0 1.926 1.09 3.38 2.652 3.38 1.526 0 2.669-1.436 2.669-3.416 0-1.489-.744-3.36-2.633-3.36-1.87 0-2.688 1.744-2.688 3.397Zm9.406-2.034c0-.926-.02-1.652-.073-2.379h1.416l.091 1.453h.036c.436-.818 1.453-1.634 2.906-1.634 1.217 0 3.106.726 3.106 3.74v5.232h-1.598v-5.068c0-1.416-.526-2.597-2.034-2.597-1.035 0-1.853.745-2.143 1.635a2.29 2.29 0 0 0-.109.745v5.285h-1.598v-6.412Z"/></svg>