<svg xmlns="http://www.w3.org/2000/svg" fill="none" aria-hidden="true" viewBox="0 0 228 52"><path fill="#08CF65" d="M51.888 7.677c2.349-2.35 3.841-2.984 7.086-2.984h14.622c1.192 0 1.454 1.082.744 1.79L49.913 30.912c-.374.374-.523.446-.748.523-.075.038-.185.038-.26.038-.074 0-.187 0-.261-.038-.226-.075-.374-.15-.747-.523l-8.616-8.615c-.372-.374-.446-.523-.52-.746-.04-.074-.04-.187-.04-.261 0-.075 0-.187.04-.262.074-.223.148-.372.52-.744L51.888 7.677ZM30.554 23.08c-2.349-2.35-3.88-2.947-7.122-2.947H8.846c-1.194 0-1.456 1.082-.746 1.79l24.427 24.431c.374.373.523.447.748.521a.633.633 0 0 0 .262.038c.074 0 .185 0 .26-.038.222-.074.373-.148.745-.52l8.617-8.653c.372-.374.446-.523.52-.746a.638.638 0 0 0 .039-.262c0-.074 0-.187-.038-.261-.075-.224-.15-.372-.521-.746L30.552 23.08h.002Z"/><path fill="#181F38" d="M158.788 14.727a4.177 4.177 0 1 0 0-8.354 4.177 4.177 0 0 0 0 8.354Zm3.357 3.355h-6.714v23.46h6.714v-23.46Zm-20.998 23.46V30.99c0-6.377 5.632-6.267 8.578-5.782v-7.2c-4.698-.411-7.496.894-8.765 3.43h-.149l.036-3.318h-6.526v23.423h6.824l.002-.002Zm-48.227 0h5.26l8.057-15.067 7.794 15.066h5.334l11.973-23.46h-7.945l-7.347 14.957-6.975-14.956h-5.706l-7.347 15.03-6.975-15.03h-7.945l11.822 23.46Zm76.646 0h4.252l7.012-8.84 5.931 8.84h7.908l-9.326-13.577 8.168-9.883h-7.868l-9.325 11.786h-.148l.074-23.496h-6.675v35.171l-.003-.002Zm38.752-5.035c2.872 0 4.588-1.53 5.408-2.76l5.147 3.545c-2.088 2.72-5.334 4.847-10.704 4.847-7.198 0-12.568-5.409-12.568-12.233 0-6.862 5.482-12.235 12.568-12.235 7.235 0 12.122 5.447 12.122 12.235v1.864h-18.24c.523 2.798 2.912 4.737 6.267 4.737Zm5.485-9.399c-.749-2.462-2.913-4.177-6.006-4.177-3.172 0-5.298 1.715-6.044 4.177h12.05Z"/></svg>