<svg xmlns="http://www.w3.org/2000/svg" fill="none" aria-hidden="true" viewBox="0 0 107 108"><path fill="#000" d="M53.5 3.146C25.43 3.146 2.675 25.9 2.675 53.97c0 28.07 22.755 50.825 50.825 50.825 28.07 0 50.825-22.756 50.825-50.825 0-28.07-22.755-50.825-50.825-50.825Zm0 97.584c-25.825 0-46.759-20.934-46.759-46.76 0-25.824 20.934-46.758 46.76-46.758 25.824 0 46.758 20.934 46.758 46.759S79.325 100.73 53.5 100.73Z"/><path fill="#000" d="M55.025 59.562h9.148v18.297h4.066V59.562h9.149v-4.066H55.025v4.066Zm-5.417-4.575-8.814 8.814-8.815-8.814-2.875 2.876 8.814 8.814-8.814 8.814 2.875 2.876 8.815-8.814 8.814 8.814 2.876-2.876-8.814-8.814 8.813-8.814-2.875-2.876Zm16.344-2.541A11.435 11.435 0 0 0 77.388 41.01h-4.066a7.371 7.371 0 0 1-10.607 6.622L75.55 34.796a11.436 11.436 0 1 0-9.6 17.647l.002.003Zm0-18.805a7.326 7.326 0 0 1 3.891 1.112l-10.15 10.148a7.37 7.37 0 0 1 6.26-11.26Zm-25.158 6.152-8.575-10.218-3.115 2.613 9.657 11.509v8.749h4.066v-8.749l9.657-11.509-3.115-2.613-8.575 10.218ZM94.16 92.598a6.1 6.1 0 1 0 0 12.2 6.1 6.1 0 0 0 0-12.2Zm0 11.709a5.614 5.614 0 0 1-5.183-3.463 5.612 5.612 0 0 1 4.088-7.65 5.612 5.612 0 1 1 1.095 11.113Z"/><path fill="#000" d="M96.55 101.746h-.564l-1.455-2.483h-1.896v2.483h-.485v-6.099h2.4a1.803 1.803 0 0 1 .48 3.544l1.52 2.555Zm-3.915-2.949h1.922a1.346 1.346 0 0 0 0-2.682h-1.922v2.682Z"/></svg>