<svg xmlns="http://www.w3.org/2000/svg" fill="none" aria-hidden="true" viewBox="0 0 196 60"><path fill="red" d="M63.047 15.57a7.474 7.474 0 0 0-5.262-5.262C53.17 9.05 34.6 9.05 34.6 9.05s-18.572.038-23.186 1.296a7.474 7.474 0 0 0-5.262 5.262c-1.396 8.2-1.937 20.692.038 28.563a7.474 7.474 0 0 0 5.263 5.262c4.614 1.258 23.185 1.258 23.185 1.258s18.57 0 23.185-1.258a7.474 7.474 0 0 0 5.262-5.262c1.472-8.21 1.926-20.695-.038-28.6Z"/><path fill="#fff" d="m28.689 38.793 15.406-8.923-15.406-8.923v17.846Z"/><path fill="#282828" d="M183.549 21.138c2.022 0 3.547.382 4.615 1.106 1.067.725 1.83 1.869 2.288 3.432.457 1.564.648 3.7.648 6.445v4.461h-9.8v1.373l.152 3.776c.114.838.305 1.448.61 1.83.305.381.801.572 1.449.572.877 0 1.488-.343 1.793-1.03.343-.686.495-1.83.533-3.394l5.072.305c.038.23.038.534.038.916 0 2.402-.648 4.194-1.983 5.377-1.334 1.182-3.165 1.792-5.567 1.792-2.898 0-4.919-.915-6.063-2.708-1.144-1.792-1.754-4.614-1.754-8.39v-4.613c.129-6.483 1.269-11.23 7.969-11.25Zm-70.509.496v19.105c0 1.144.115 1.983.382 2.479.541 1.06 1.945.789 2.707.267a3.05 3.05 0 0 0 1.03-1.182V21.634h5.834v26.045h-4.576l-.496-3.203h-.114c-1.258 2.403-3.127 3.623-5.606 3.623-3.815-.01-4.748-2.758-4.97-5.55l-.015-.197a23.848 23.848 0 0 1-.048-1.27V21.634h5.872Zm30.088 0v19.105c0 1.144.114 1.983.381 2.479.542 1.06 1.945.789 2.708.267.44-.298.795-.706 1.029-1.182V21.634h5.835v26.045h-4.576l-.496-3.203h-.114c-1.259 2.403-3.127 3.623-5.606 3.623-3.815-.01-4.748-2.758-4.971-5.55l-.014-.197a23.859 23.859 0 0 1-.049-1.27V21.634h5.873Zm-47.019-.496c1.907 0 3.47.382 4.614 1.182 1.144.801 2.021 2.021 2.555 3.7.534 1.677.801 3.927.801 6.71v3.776c0 2.784-.267 4.996-.801 6.673-.534 1.678-1.373 2.899-2.555 3.7-1.182.762-2.784 1.182-4.766 1.182-2.06.038-3.661-.382-4.843-1.144-1.183-.801-2.022-2.022-2.517-3.7-.496-1.677-.725-3.889-.725-6.673V32.77c0-2.784.267-5.072.84-6.75.571-1.716 1.448-2.936 2.668-3.699 1.22-.762 2.784-1.182 4.73-1.182Zm66.124-10.448v13.728h.038c.534-.992 1.22-1.793 2.174-2.403a5.373 5.373 0 0 1 3.012-.915c1.411 0 2.479.381 3.28 1.106.8.763 1.372 1.945 1.716 3.585.332 1.588.521 3.785.533 6.556v4.388c0 3.851-.495 6.712-1.411 8.542-.953 1.83-2.402 2.745-4.385 2.745a6.198 6.198 0 0 1-3.012-.762 5.342 5.342 0 0 1-1.946-1.96l-.076-.137h-.114l-.61 2.478h-4.843V10.69h5.644Zm-23.338 1.334v4.729h-5.796v30.926h-5.72V16.753h-5.835v-4.729h17.351Zm-62.882 0 .003.015c.056.248.827 3.675 1.675 7.669l.067.316.1.478.068.321.034.162.068.322.034.162.067.324.099.474c.572 2.765 1.119 5.539 1.446 7.528h.152a222.61 222.61 0 0 1 1.254-6.398l.127-.609.192-.913.1-.472c.934-4.39 1.863-8.492 2.035-9.253l.012-.05.017-.076h5.835l-6.75 24.063V47.64H76.89V36.125h-.038l-6.674-24.1h5.835ZM95.995 25.18c-.801 0-1.335.42-1.678 1.297-.343.877-.496 2.212-.496 4.08v8.123c0 1.906.153 3.317.458 4.156.305.84.877 1.259 1.716 1.259.8 0 1.373-.42 1.716-1.259.343-.839.495-2.25.495-4.156v-8.123c0-1.868-.152-3.241-.495-4.08-.343-.877-.915-1.297-1.716-1.297Zm67.267.763a3.51 3.51 0 0 0-.992 1.62l-.037.134v14.796c.473.8 1.144 1.335 2.326 1.373.61 0 1.106-.229 1.487-.687.381-.457.648-1.22.801-2.288.146-1.024.222-2.436.228-4.234l.001-.227v-3.394c0-2.06-.077-3.623-.191-4.729-.152-1.105-.343-1.906-.686-2.364-.664-.953-2.098-.942-2.937 0Zm20.173-.877c-.648.038-1.106.229-1.373.572-.305.381-.496.953-.61 1.792-.112.823-.151 3.696-.152 3.81v1.872h4.271l-.001-1.65v.031c-.002.577-.014-.335-.04-1.455l-.004-.15c-.024-.984-.059-2.082-.108-2.458-.114-.877-.305-1.487-.61-1.83-.305-.343-.763-.534-1.373-.534Z"/></svg>