<svg xmlns="http://www.w3.org/2000/svg" fill="none" aria-hidden="true" viewBox="0 0 228 52"><path fill="#03363D" d="M150.481 17.209c9.403 0 14.736 7.183 14.258 17.152h-22.181a8.01 8.01 0 0 0 8.729 6.77 10.883 10.883 0 0 0 7.814-3.048l3.874 4.2a15.235 15.235 0 0 1-11.645 4.615c-9.468 0-15.585-6.312-15.585-14.845a14.519 14.519 0 0 1 14.736-14.844Zm-101.498 0c9.403 0 14.736 7.183 14.257 17.152H41.08a8.01 8.01 0 0 0 8.707 6.77 10.884 10.884 0 0 0 7.814-3.048l3.875 4.2a15.236 15.236 0 0 1-11.645 4.615c-9.47 0-15.586-6.312-15.586-14.845A14.518 14.518 0 0 1 48.983 17.21Zm143.203 5.332-5.071 2.96a7.358 7.358 0 0 0-6.378-3.243c-3.243 0-4.897 1.59-4.897 3.418s2.612 2.612 6.726 3.526l.281.062.283.064c.141.032.283.064.425.098l.285.068.284.07.285.072.284.075c4.02 1.076 7.842 2.948 7.842 7.98 0 3.94-3.418 9.23-11.515 9.186a13.322 13.322 0 0 1-12.494-6.596l5.463-2.938a8.12 8.12 0 0 0 7.292 4.157c3.418 0 5.181-1.763 5.181-3.765 0-2.003-3.309-2.786-6.9-3.527-.097-.02-.195-.04-.292-.062l-.291-.063-.146-.033-.291-.066c-4.511-1.042-8.841-2.799-8.841-8.265 0-4.505 4.354-8.706 11.014-8.706a13.06 13.06 0 0 1 11.471 5.528ZM130.02 4.693V46.31h-6.051v-3.918a12.125 12.125 0 0 1-9.512 4.506 14.346 14.346 0 0 1-14.214-14.846 14.214 14.214 0 0 1 14.258-14.823 12.275 12.275 0 0 1 9.468 4.354V4.693h6.051ZM29.11 17.905v5.572L12 40.891h17.414v5.485H4.078v-5.55l17.108-17.414H4.47v-5.507h24.64ZM203.482 4.693v27.252l12.821-14.192h7.357l-11.123 12.21 11.384 16.348h-6.813l-8.837-12.647-4.789 5.246v7.423h-6.051V4.693h6.051ZM82.264 17.23c7.183 0 13.234 4.68 13.234 12.43v16.65h-6.225V30.422c0-4.658-2.264-7.466-6.835-7.466a6.748 6.748 0 0 0-7.205 7.466v15.89h-6.16V29.659c0-7.749 6.008-12.429 13.191-12.429Zm33.02 5.812a9.01 9.01 0 0 0-9.011 9.011 9.012 9.012 0 1 0 9.011-9.011Zm27.252 6.552 15.52.022a7.118 7.118 0 0 0-7.488-6.726 7.641 7.641 0 0 0-8.032 6.704Zm-101.455 0 15.476.022a7.118 7.118 0 0 0-7.487-6.704 7.64 7.64 0 0 0-7.989 6.682Z"/></svg>