<svg xmlns="http://www.w3.org/2000/svg" fill="none" aria-hidden="true" viewBox="0 0 215 55"><path fill="#2D8CFF" fill-rule="evenodd" d="M72.992 4.95c5.7 0 11.4 2.23 15.737 6.567 8.673 8.735 8.673 22.86-.063 31.534-8.673 8.674-22.798 8.674-31.472 0-8.673-8.735-8.673-22.799 0-31.534C61.53 7.118 67.231 4.95 72.93 4.95h.062Zm-9.478 31.782c5.203 5.204 13.69 5.204 18.896 0 5.266-5.204 5.266-13.692 0-18.896-5.205-5.204-13.693-5.204-18.896 0-5.205 5.204-5.205 13.692 0 18.896Z" clip-rule="evenodd"/><path fill="#2D8CFF" fill-rule="evenodd" d="M119.768 4.95c5.699.061 11.4 2.23 15.736 6.567 8.674 8.735 8.674 22.86 0 31.534-8.673 8.674-22.799 8.674-31.472 0-8.673-8.735-8.673-22.799 0-31.534 4.336-4.399 10.036-6.567 15.736-6.567Zm-9.479 31.782c5.204 5.204 13.692 5.204 18.897 0 5.265-5.204 5.265-13.692 0-18.896-5.205-5.204-13.693-5.204-18.897 0-5.204 5.204-5.204 13.692 0 18.896Z" clip-rule="evenodd"/><path fill="#2D8CFF" d="m17.295 49.495 2.23.124H52.92l-.124-2.23c-.31-3.656-2.913-6.32-6.567-6.567l-2.231-.124H23.924l26.764-26.702-.124-2.23c-.186-3.718-2.911-6.382-6.567-6.568l-2.23-.124H8.373l.123 2.23c.31 3.656 2.912 6.382 6.568 6.568l2.23.124h20.072L10.604 40.76l.124 2.23c.186 3.593 2.85 6.257 6.567 6.505Zm153.522-26.642c-.061-1.672-.309-3.16-1.053-4.46-1.548-2.664-4.399-4.461-7.682-4.337-3.284 0-6.133 1.796-7.682 4.46-.805 1.302-1.054 2.789-1.115 4.461l-.125 2.23V40.82l-.123 2.23c-.124 3.718-2.85 6.32-6.568 6.567l-2.229.124V5.135c2.229 0 6.071 1.115 7.806 3.035a17.718 17.718 0 0 1 9.974-3.035c5.329 0 10.16 2.292 13.382 6.009 3.284-3.655 8.054-6.01 13.382-6.01 9.851 0 17.842 7.993 17.842 17.843V49.68l-2.229-.124c-3.656-.185-6.32-2.911-6.567-6.567l-.124-2.23V25.146l-.125-2.23c-.061-1.611-.31-3.16-1.053-4.461a8.98 8.98 0 0 0-7.744-4.461 8.823 8.823 0 0 0-7.682 4.399c-.806 1.3-1.053 2.788-1.116 4.46l-.123 2.23v24.534l-2.23-.124c-3.656-.247-6.32-2.911-6.567-6.567l-.125-2.23V25.084l-.124-2.23Z"/></svg>