<svg xmlns="http://www.w3.org/2000/svg" fill="none" aria-hidden="true" viewBox="0 0 42 30"><g filter="url(#a)"><g clip-path="url(#b)"><mask id="c" width="36" height="24" x="3" y="2" maskUnits="userSpaceOnUse" style="mask-type:alpha"><path fill="#fff" d="M3 2h36v24H3z"/></mask><g fill-rule="evenodd" clip-rule="evenodd" mask="url(#c)"><path fill="#F50100" d="M3 2h36v24H3V2Z"/><path fill="#1A1A1A" d="m21.563 21.247-.008 2.353s-1.231-1.911-1.133-1.911c.097 0 .462-.633.613-.947.15-.313-.327-.536-.407-.312-.08.223-.407.538-.853.79-.447.254-.546-.38-.546-.529 0-.114.175-.109.45-.1.083.002.175.005.273.005.428 0 .47-.843.372-1.059-.054-.12-.18 0-.374.188a3.397 3.397 0 0 1-.59.481c-.54.326-.839-.017-.839-.325 0-.173.112-.17.284-.164.136.005.308.01.494-.067.424-.175.727-.909.653-.974-.059-.052-.404.128-.788.329l-.288.15c-.485.246-.687-.337-.687-.479 0-.142.455-.162.687-.162.232 0 1.064-.45 1.546-1.021.48-.571.344-1.25 0-1.47-.24-.152-.403.067-.58.305-.078.104-.16.213-.25.294-.145.13-.335.477-.51.797-.184.336-.353.644-.438.644-.168 0-.676-.482-.676-.482l-1.817.482s.75.363.997.363c.248 0 .344.396.344.482 0 .085-.41.21-.7.125-.292-.085-.114-.357-.114-.357l-.953-.487s-.741.237-.741.487-.335.357-.731.357c-.396 0-.344-.144 0-.607a.81.81 0 0 1 .172-.187h.082c.034.052.01.187.01.187s1.062-.351.467-.237a2.697 2.697 0 0 1-.477.05c-.014-.022-.04-.028-.082 0a2.812 2.812 0 0 1-.363-.034 1.175 1.175 0 0 0-.152-.016c-.159 0-.785-.327-.785-.327s.229-.207.784-.207c.556 0 .344.207.344.207h1.326s-.595-.37-.79-.37c-.098 0-.234-.073-.369-.145-.131-.07-.26-.14-.352-.14-.186 0-.159-.373.185-.373s.73.265.73.373c0 .108.742.448.742.448l1.946-.448s-.286-.585 0-.585 1.19-.521 1.558-1.173c.367-.652.328-.956.131-.956-.196 0-.363.291-.363.416 0 .124-.473.765-.583.904-.11.138-.502-.139-.225-.479.244-.3.232-.75.227-.97l-.002-.074c0-.175-.502.176-.502.802 0 .625-1.11.862-1.42.862-.31 0 0-.505.59-.62.464-.09.385-.625.33-.999-.014-.101-.027-.19-.027-.256 0-.306-.707.44-.982.83-.275.39-1.42 1.324-1.754 1.446-.335.123-.973-.265-1.127-.542-.114-.204.234-.242.713-.294.173-.018.363-.04.554-.07.722-.117 1.703-1.37 1.89-1.613.186-.242-.276-.423-.528 0-.25.42-1.485.816-1.89.946l-.008.002c-.396.127-.731-.447-.731-.705 0-.155.197-.124.51-.075.209.034.469.075.757.075.722 0 1.614-1.119 1.614-1.4 0-.28-.395-.157-.678 0-.07.04-.153.096-.243.158-.27.184-.615.42-.964.42-.467 0-.843-.297-.843-.297s-.153-.438.234-.438h1.075c.575 0 1.508-1.082 1.508-1.284 0-.11-.443.066-.903.248-.384.152-.78.309-.94.309-.353 0-1.127-.292-1.127-.557 0-.107 0-.159.025-.183.038-.035.132-.01.362-.01.175 0 .341.04.525.082a3.3 3.3 0 0 0 .8.111c.397 0 .73-.271.945-.448.104-.084.18-.147.224-.147.135 0-.135-.41-.395-.41-.108 0-.27.07-.46.153-.27.116-.594.257-.9.257-.52 0-1.126-.738-1.126-.936 0-.197.289-.126.731 0s.762.216 1.755 0c.993-.216.395-.536.143-.536h-1.898c-.732 0-.731-.94-.731-1.116v-.003c0-.133.153-.057.528.129.103.05.222.11.36.174.496.236 1.165.192 1.641.162a5.1 5.1 0 0 1 .352-.017c.433 0-.252-.448-.252-.448s-.643 0-1.742-.415c-1.098-.416-.887-1.552-.887-1.552s.327-.406.546 0c.218.406 1.604 1.428 2.083 1.428.298 0 .29-.086.283-.157-.004-.043-.007-.081.058-.092.173-.029 1.566.39 1.566.39.567.036.654.78.654 1.22 0 .441.419.833 1.063.833.482 0 .288-.643.125-1.18-.054-.18-.105-.347-.125-.475-.082-.508-1.863-.802-1.863-.802-.63-.089-.527-.409-.527-.409.237-.008.582-.134.582-.134.38-.076-1.564-.245-1.564-.245-.43-.035-.252-.5-.252-.5 0-.209.186-.097.452.062.254.153.582.35.889.35.627 0-.184-.411-.41-.411h-.046c0-.006.553-.04 1.022-.284.291-.151.558-.06.9.059.299.102.655.225 1.135.225.585 0 .575.32.562.722-.01.306-.021.659.23.952.41.48.601.573.677.587.077-.014.268-.108.679-.587.25-.293.239-.646.229-.952-.013-.401-.023-.722.562-.722.48 0 .836-.123 1.134-.225.343-.118.61-.21.9-.059.47.245 1.023.278 1.023.283h-.046c-.226 0-1.037.412-.41.412.307 0 .635-.197.89-.35.265-.16.451-.271.451-.061 0 0 .179.464-.252.499 0 0-1.945.169-1.565.245 0 0 .346.126.583.134 0 0 .103.32-.527.409 0 0-1.781.294-1.863.802-.02.128-.07.296-.125.476-.163.536-.357 1.18.125 1.18.644 0 1.063-.393 1.063-.833 0-.441.087-1.185.654-1.221 0 0 1.393-.419 1.566-.39.065.01.062.049.058.092-.007.071-.015.157.283.157.479 0 1.865-1.022 2.083-1.428.219-.406.546 0 .546 0s.211 1.136-.887 1.552c-1.099.415-1.742.415-1.742.415s-.685.448-.252.448c.096 0 .216.008.352.017.476.03 1.145.074 1.642-.162.137-.065.256-.124.359-.174.375-.186.528-.262.528-.129v.003c0 .177 0 1.116-.731 1.116h-1.898c-.252 0-.85.32.143.536.993.216 1.313.126 1.755 0 .442-.126.731-.197.731 0 0 .198-.606.936-1.127.936-.305 0-.63-.14-.899-.257-.19-.082-.352-.153-.46-.153-.26 0-.53.41-.395.41.044 0 .12.063.224.147.215.177.548.448.944.448.323 0 .575-.058.801-.11a2.31 2.31 0 0 1 .524-.082c.231 0 .325-.026.363.01.025.023.025.075.025.182 0 .265-.774.557-1.127.557-.16 0-.556-.157-.94-.309-.46-.182-.903-.357-.903-.248 0 .202.933 1.284 1.508 1.284h1.075c.387 0 .233.438.233.438s-.375.297-.841.297c-.35 0-.695-.236-.965-.42a3.428 3.428 0 0 0-.243-.157c-.283-.158-.678-.28-.678 0s.892 1.399 1.614 1.399c.288 0 .548-.041.757-.075.314-.05.51-.08.51.075 0 .258-.335.832-.731.705l-.008-.002c-.405-.13-1.64-.526-1.89-.946-.252-.423-.714-.242-.527 0 .186.243 1.167 1.496 1.889 1.613.191.03.381.052.554.07.479.052.826.09.713.294-.154.277-.792.665-1.127.542-.335-.122-1.48-1.056-1.754-1.446-.275-.39-.982-1.136-.982-.83 0 .065-.013.155-.028.256-.054.374-.133.91.331 1 .59.114.9.619.59.619-.31 0-1.42-.237-1.42-.862 0-.626-.502-.977-.502-.802 0 .02 0 .045-.002.073-.005.22-.017.67.227.972.277.34-.115.616-.225.478-.11-.139-.583-.78-.583-.904 0-.125-.167-.416-.363-.416-.197 0-.236.304.131.956.367.652 1.272 1.173 1.558 1.173.286 0 0 .585 0 .585l1.946.448s.741-.34.741-.448c0-.108.388-.373.731-.373.343 0 .37.373.185.373-.091 0-.22.07-.352.14-.135.072-.27.145-.37.145-.194 0-.789.37-.789.37h1.326s-.212-.207.343-.207c.556 0 .785.207.785.207s-.626.327-.785.327c-.04 0-.09.007-.152.016-.093.014-.212.03-.363.034-.043-.028-.068-.022-.082 0a2.697 2.697 0 0 1-.477-.05c-.595-.114.467.237.467.237s-.024-.135.01-.186h.082a.81.81 0 0 1 .172.186c.343.463.396.607 0 .607s-.73-.107-.73-.357-.742-.487-.742-.487l-.953.487s.178.272-.113.357c-.29.086-.7-.04-.7-.125 0-.086.095-.482.343-.482.247 0 .997-.363.997-.363l-1.817-.482s-.508.482-.676.482c-.085 0-.254-.308-.438-.644-.175-.32-.365-.667-.51-.797a2.069 2.069 0 0 1-.25-.294c-.177-.238-.34-.457-.58-.304-.344.22-.48.898 0 1.468.482.571 1.314 1.022 1.546 1.022.232 0 .687.02.687.162 0 .143-.202.725-.687.479l-.288-.15c-.384-.2-.73-.38-.788-.329-.074.065.23.8.653.974.186.077.358.072.494.067.172-.005.284-.009.284.164 0 .308-.3.651-.84.325a3.392 3.392 0 0 1-.589-.481c-.194-.187-.32-.308-.374-.188-.098.216-.056 1.06.372 1.06.098 0 .19-.004.272-.006.276-.009.451-.014.451.1 0 .149-.099.783-.546.53-.447-.253-.773-.568-.853-.791-.08-.224-.557-.001-.407.313.15.313.516.946.613.946.098 0-1.133 1.911-1.133 1.911l-.008-2.353Z"/></g></g></g><defs><clipPath id="b"><rect width="36" height="24" x="3" y="2" fill="#fff" rx="2"/></clipPath><filter id="a" width="42" height="30" x="0" y="0" color-interpolation-filters="sRGB" filterUnits="userSpaceOnUse"><feFlood flood-opacity="0" result="BackgroundImageFix"/><feColorMatrix in="SourceAlpha" result="hardAlpha" values="0 0 0 0 0 0 0 0 0 0 0 0 0 0 0 0 0 0 127 0"/><feOffset dy="1"/><feGaussianBlur stdDeviation="1"/><feColorMatrix values="0 0 0 0 0.0627451 0 0 0 0 0.0941176 0 0 0 0 0.156863 0 0 0 0.06 0"/><feBlend in2="BackgroundImageFix" result="effect1_dropShadow_91_29876"/><feColorMatrix in="SourceAlpha" result="hardAlpha" values="0 0 0 0 0 0 0 0 0 0 0 0 0 0 0 0 0 0 127 0"/><feOffset dy="1"/><feGaussianBlur stdDeviation="1.5"/><feColorMatrix values="0 0 0 0 0.0627451 0 0 0 0 0.0941176 0 0 0 0 0.156863 0 0 0 0.1 0"/><feBlend in2="effect1_dropShadow_91_29876" result="effect2_dropShadow_91_29876"/><feBlend in="SourceGraphic" in2="effect2_dropShadow_91_29876" result="shape"/></filter></defs></svg>