<svg xmlns="http://www.w3.org/2000/svg" fill="none" aria-hidden="true" viewBox="0 0 42 30"><g filter="url(#a)"><g clip-path="url(#b)"><mask id="c" width="36" height="24" x="3" y="2" maskUnits="userSpaceOnUse" style="mask-type:alpha"><path fill="#fff" d="M3 2h36v24H3z"/></mask><g mask="url(#c)"><path fill="#F7FCFF" fill-rule="evenodd" d="M3 2h36v24H3V2Z" clip-rule="evenodd"/><path fill="#3547A0" stroke="#E31D1C" stroke-width="2" d="M3 1H2v12.28L-.162 14 2 14.72V27h37l.316-1.949L6.162 14 39.316 2.949 39 1H3Z"/><path fill="#9C3900" fill-rule="evenodd" d="m35.65 7.11-3.08.74c-.11.026-.32.074-.305-.193-.518.296-1.353.594-1.695.68-.173.042-.127-.223-.2-.3-.15.196-.533.483-.641.51-1.078.278-1.794.48-2.148.605 0 0-.505.432-.505.775 0 .342-.054.635-.402.635-.347 0-1.15.622-.856.972.294.35 1.258.164 1.258 0s.687-.369.687-.184c0 .184-.182.518-.182.518h.759l-.577.265h.577l-.577.314h1.08l-.69.274h.479l-.292.36h.748s.291.261.565.405c.275.143.883 1.36.579 1.831-.304.471.069.541.138.334.068-.207.21-.503.333-.503h.356l.165.387.393.373s.028-.324.102-.373c0 0 .307.028.456-.004 0 0-.066-.472-.061-.536 0 0 .476.144.68.14 0 0-.307-.425-.307-.57 0 0 .569.026.569.24l-.063-.536s.538-.204.557-.375l-.353-.038s.183-.207.166-.248l-.52-.058s.569-.177.612-.288c0 0-.128-.178-.245-.248l-.398-.23 1.038.006s.233-.075.054-.202c0 0-.175-.093-.151-.184 0 0 .119-.203.091-.238 0 0 .127.15.127-.22 0 0 .004-.372-.076-.39 0 0 .234-.153.142-.25-.092-.099-1.078-.359-1.314-.359L34.53 9.93s.125-.42.308-.671c0 0 .48-.383.577-.683.097-.3.37-1.04.37-1.04v-.34l-.134-.086Z" clip-rule="evenodd"/><path fill="#212121" fill-rule="evenodd" d="M32.487 14.565c.024 0 .046.002.073.004.3.022.464.089.492.201l-.06-.501c.36-.136.545-.26.558-.375l-.269-.03-.026.03-.017-.034-.04-.004.025-.029-.017-.034.042.004c.087-.103.125-.165.115-.189l-.364-.04a6.58 6.58 0 0 1-.132.042s-.014-.064-.008-.066l-.007-.058.138.016c.285-.096.44-.176.465-.24a.884.884 0 0 0-.245-.248l-.286-.165h-.112s.015-.064.022-.064l.018-.054.094.054.904.005c.155-.05.173-.117.054-.202-.117-.062-.167-.123-.151-.184.038-.065.065-.117.08-.157a.243.243 0 0 1-.047-.043l.058-.038.06-.036a.09.09 0 0 1 .017.075c.034-.018.05-.104.05-.26.002-.165-.009-.278-.033-.338l-.043-.051.018-.062a.12.12 0 0 1 .043.019c.106-.083.133-.152.08-.208-.08-.086-.852-.297-1.197-.347l-.076.043s-.033-.054-.022-.064l-.018-.053c.026 0 .06.002.1.007l1.706-.961c.083-.28.186-.504.308-.671.32-.256.513-.483.577-.683.064-.2.188-.547.37-1.04v-.34l-.134-.086a3310.3 3310.3 0 0 0-3.08.74c-.11.026-.32.074-.305-.193-.518.296-1.353.594-1.695.68-.11.026-.132-.072-.152-.167-.01-.053-.022-.105-.048-.132-.15.195-.533.482-.641.51-1.078.277-1.794.478-2.148.604-.337.288-.505.546-.505.775 0 .342-.054.635-.402.635-.347 0-1.15.622-.856.972.294.35 1.258.164 1.258 0s.687-.369.687-.184c0 .123-.06.295-.182.518h.602l.123-.057.018.064.016.056h-.14l-.438.202h.44l.098-.054.021.063.018.055h-.117l-.46.25h.904l.146-.058.016.064.014.058h-.16l-.53.21h.39l.03-.037.02.037h.039l-.022.027.022.036h-.052l-.24.297h.748c.194.174.383.31.565.405.275.143.883 1.36.579 1.831-.304.471.069.541.138.334.068-.207.21-.503.333-.503h.356l.165.387.393.373s.028-.324.102-.373c.205.018.357.017.456-.004l-.01-.065c-.026-.192-.044-.326-.075-.41l.024-.06s.072.013.072.02c.28.082.482.121.607.12-.165-.231-.264-.4-.298-.517a.218.218 0 0 1-.008-.054Zm.331-1.075-.288.089.736.082a1.69 1.69 0 0 1-.126.156l-.079.088.386.042c-.062.074-.223.165-.483.264l-.049.018.042.356a1.356 1.356 0 0 0-.466-.084l-.077-.003v.067c0 .099.08.261.242.496-.128-.018-.3-.06-.518-.126l-.09-.027-.007.083c-.003.045.014.203.053.488a2.032 2.032 0 0 1-.367-.007l-.052.012c-.051.034-.078.107-.102.223a1.647 1.647 0 0 0-.01.055l-.275-.261-.179-.417h-.406c-.157 0-.301.243-.403.55-.02.057-.067.076-.09.057-.046-.036-.034-.157.085-.343.151-.234.11-.636-.067-1.09-.151-.39-.379-.744-.537-.827a2.716 2.716 0 0 1-.551-.395l-.021-.019h-.639l.292-.36h-.282l.69-.274h-1.162l.576-.314h-.536l.577-.265h-.94c.093-.187.14-.338.14-.454 0-.084-.072-.13-.174-.136a.826.826 0 0 0-.264.037c-.22.062-.394.168-.394.283 0 .005-.037.033-.11.06a1.4 1.4 0 0 1-.343.07c-.302.025-.56-.032-.673-.168-.107-.127-.034-.329.183-.537.197-.19.467-.334.614-.334.194 0 .326-.08.398-.227.056-.114.077-.261.077-.471 0-.206.156-.447.473-.72.355-.126 1.065-.325 2.127-.598.117-.03.416-.253.6-.418a.368.368 0 0 0 .05.144c.041.058.109.083.19.062.405-.1 1.14-.38 1.612-.63a.2.2 0 0 0 .148.157c.07.02.135.013.241-.013l3.045-.731.075.049v.296c-.18.49-.302.834-.366 1.033-.06.187-.245.406-.568.666-.123.17-.226.39-.31.666l-1.99 1.121h.247c.225 0 1.185.258 1.258.335.025.027-.003.076-.13.159l-.122.08.135.03a.216.216 0 0 1 .018.058c.012.06.018.152.017.272a.765.765 0 0 1-.018.196s-.1.047-.104.046a.174.174 0 0 1-.01.036 1.902 1.902 0 0 1-.085.167c-.025.093.042.176.18.25.066.048.066.056-.025.086l-1.024-.005-.246-.002.603.348a.76.76 0 0 1 .198.195.592.592 0 0 1-.122.072 3.596 3.596 0 0 1-.428.156Zm.959-1.303v.003-.002Zm-.725 2.583.013.1a.38.38 0 0 0-.013-.1Z" clip-rule="evenodd"/><path fill="#fff" fill-rule="evenodd" d="M33.833 12.792s2.147.254 2.277.254c.13 0 .67-.122.485-.89-.185-.77-.11-1.235-.64-1.235s-1.082.205-1.28.205h-.842c-.835 0-5.81-.025-6.168.33-.358.354-1.366.854-1.832 1.03-.467.177-.586.053-.796.56-.21.507-.366.542-.366.542l.366.363h1.087s.749-.835 2.303-.905c1.554-.07 5.406-.254 5.406-.254Z" clip-rule="evenodd"/><path fill="#4D4D4D" fill-rule="evenodd" d="M28.427 13.046c1.036-.046 2.838-.13 5.406-.254 1.431.17 2.19.254 2.277.254.13 0 .67-.122.485-.89a7.479 7.479 0 0 1-.097-.482c-.086-.477-.135-.753-.543-.753-.328 0-.666.08-.922.139a2.02 2.02 0 0 1-.359.066h-1.002c-1.175-.002-5.667-.007-6.007.33-.358.354-1.366.854-1.832 1.03a2.8 2.8 0 0 1-.297.092c-.237.063-.343.091-.5.468-.14.338-.261.519-.365.542l.366.363h1.087c.5-.557 1.267-.858 2.303-.905Zm-2.355.81h-.986l-.253-.251c.102-.093.199-.267.306-.526.041-.1.078-.172.114-.226.065-.098.117-.129.255-.167l.029-.008.13-.035a2.57 2.57 0 0 0 .21-.069c.613-.232 1.547-.736 1.87-1.056.06-.06.431-.128 1.014-.177a36.23 36.23 0 0 1 2.04-.094 108.75 108.75 0 0 1 2.94-.026h.934c.057 0 .128-.01.236-.034l.175-.04c.056-.013.11-.026.133-.03a3.68 3.68 0 0 1 .737-.1c.256 0 .33.107.412.547l.02.109.031.172c.023.12.045.225.07.33.076.314.03.524-.1.65a.441.441 0 0 1-.278.126c-.079 0-.85-.086-2.283-.254-2.568.123-4.37.207-5.406.254-1.043.047-1.829.348-2.35.904Z" clip-rule="evenodd"/><path fill="#FFC221" fill-rule="evenodd" d="M24.946 13.4s-.82.466-.519.78c.301.314.33.354.39.354 0 0 .017-.336.114-.336s.865.326 1.143-.226c.279-.551-1.128-.573-1.128-.573Zm-1.783 1.521 1.884-.31.723.695.21-.622.517.113v.314h.192v.431l1.355.252.17-.413s.442.648 1.12.615c.678-.032.798.139.918-.34.119-.478.451-.735.451-.735l.791.237s-.869.949-.453 1.247l3.098.637-.123.334h-.355l.096.287-3.386-.208s-.377.425-.377.316c0-.108-.02-.108-.187-.108s-.253-.208-.253-.208l-.22.075s.033.004-.244-.075c-.277-.08-.44-.08-.44-.08l-1.143-.074v.154s-.303.014-.198.075c.106.062 2.245.133 2.245.133l-.13.213s1.057.004 1.28-.105c.222-.108.079.24.079.24h1.05s-.26.22-.594.22c-.334 0 .958.364.958.364s-.721.2-1.055.068c-.335-.132.141.254.352.352.212.097-.742.089-1.123-.288 0 0 .12.28 0 .359 0 0-.667-.699-1-.699-.333 0 .052.46.052.46s-.19-.24-.402-.142c-.213.098-.37.209-.37.209s-.14-.427-.876-.604c-.736-.176-.489-.241-1.086-.298-.598-.057-.628-.35-.71-.35-.082 0-.714-.49-.714-.49s-.14-.462.19-.462c.329 0 .851-.137 1.042 0 .192.138.273 0 .273 0h.336l.483.332h.957s.183-.252.475-.332c.29-.08 0-.305 0-.305s-.695.035-.977.13c-.281.096-.101-.462-.101-.462l-1.254-.203-.192.203-.415.11v.222l-.437-.086.125-.663-1.024.417-1.583-1.152Z" clip-rule="evenodd"/><path fill="#4D4D4D" fill-rule="evenodd" d="m29.462 17.813.092-.15c-1.3-.043-2.037-.084-2.211-.122a.135.135 0 0 1-.034-.01c-.105-.063.198-.076.198-.076V17.3l.073.005 1.07.07c.109 0 .255.027.44.08l.18.052a.114.114 0 0 1 .015-.02.143.143 0 0 1 .036-.018c.006-.002.012-.002.022-.002 0 0-.005.064-.01.063 0 0 .152-.053.155-.052l.066-.023a.408.408 0 0 0 .096.147l.015.013a.225.225 0 0 0 .142.048c.167 0 .187 0 .187.108 0 .073.126-.033.377-.316l3.386.208-.096-.224.015-.018-.015-.045h.054l.016-.018.006.018h.28l.122-.334-3.098-.637c-.277-.199-.126-.615.453-1.247l-.79-.237c-.222.171-.373.416-.452.735-.089.356-.179.353-.498.341-.11-.004-.247-.009-.42 0-.453.02-.826-.184-1.12-.616l-.17.413-1.355-.252v-.43h-.192v-.315l-.518-.113-.184.55.03.03-.043.008-.012.034-.027-.026-.042.009.012-.038-.666-.64-1.884.31 1.583 1.152.945-.384.008-.043.037.024.034-.014-.006.034.037.024-.045.018-.111.587.437.086v-.221l.415-.111.192-.203s1.183.187 1.189.192l.065.01-.019.062c-.097.328-.057.462.12.402.188-.064.513-.108.977-.131.194.15.194.252 0 .305a.852.852 0 0 0-.475.332h-.957l-.483-.332h-.336c-.054.092-.145.092-.273 0-.128-.092-.407-.06-.676-.03-.13.016-.26.03-.367.03-.22 0-.282.154-.189.461.421.328.66.492.714.492.023 0 .042.023.07.056.073.088.209.252.64.293.323.03.4.064.518.116.1.044.231.102.568.182.491.118.783.319.876.604 0 0 .157-.111.37-.21.137-.062.267-.02.39.13-.062-.08-.338-.447-.04-.447.222 0 .556.233 1 .699.06-.04.075-.118.045-.234a.808.808 0 0 1-.1-.082s.057-.039.064-.034l.06-.031c.016.04.03.076.04.111.426.288 1.207.288 1.014.199a1.865 1.865 0 0 1-.437-.317c-.046-.052-.047-.08.05-.048l.035.013c.222.088.574.065 1.055-.067-.501-.142-.82-.242-.972-.31-.078-.037-.073-.055.016-.055a.065.065 0 0 0-.009-.015.275.275 0 0 0 .029.015.886.886 0 0 0 .43-.12h.058a1.17 1.17 0 0 0 .063-.072l-.003-.008.024-.02h-.973l-.009.022-.017-.021h-.051a1.78 1.78 0 0 0 .016-.043l.008-.02c.065-.184.03-.243-.104-.178-.142.07-.541.105-1.197.106l-.018.03-.02-.03h-.045l.021-.034-.02-.03h.038Zm2.348.218-.006-.02h-.08a.909.909 0 0 1-.103.1h.07a.96.96 0 0 0 .119-.08Zm-7.052-2.033-1.43-1.04 1.693-.278.783.753.225-.673.396.087v.328h.191v.419l1.475.274.142-.344c.295.376.665.557 1.104.536.133-.006.237-.006.39 0 .256.01.312.006.395-.038.098-.052.15-.151.2-.352.073-.291.206-.516.399-.677l.653.196c-.55.62-.69 1.042-.366 1.274l3.037.625-.082.224h-.4l.095.281-3.32-.204-.024.027a3.537 3.537 0 0 1-.257.268c-.023-.07-.09-.085-.25-.085-.076 0-.137-.05-.185-.166l-.025-.061s-.275.084-.284.081a11.703 11.703 0 0 0-.2-.058 1.779 1.779 0 0 0-.46-.083l-1.219-.08v.165a1.194 1.194 0 0 0-.048.005.379.379 0 0 0-.12.032c-.071.037-.067.108.003.15.087.05.763.091 2.166.139l-.133.217h.121c.72.002 1.152-.033 1.316-.113a.304.304 0 0 1 .027-.012.26.26 0 0 1-.006.039.868.868 0 0 1-.046.136l-.035.086h.942a.81.81 0 0 1-.382.091.26.26 0 0 0-.085.01c-.053.019-.075.07-.04.113.023.03.074.055.168.09.133.05.355.121.666.211-.349.077-.609.08-.776.014a.439.439 0 0 0-.112-.032c-.056-.006-.11.021-.107.078.002.042.039.084.109.147.076.068.181.146.275.205a1.826 1.826 0 0 1-.17-.017c-.307-.044-.587-.149-.741-.3l-.261-.259.138.323c.043.1.06.175.055.224-.424-.433-.748-.65-.987-.65-.11 0-.184.043-.203.122a.274.274 0 0 0 .026.17.354.354 0 0 0-.207.033 2.707 2.707 0 0 0-.3.162c-.128-.264-.428-.45-.892-.562a3.733 3.733 0 0 1-.408-.118 2.005 2.005 0 0 1-.11-.044l-.014-.006a6.191 6.191 0 0 0-.075-.032c-.122-.051-.237-.076-.491-.1-.221-.022-.37-.076-.476-.155a1.206 1.206 0 0 1-.114-.111.546.546 0 0 0-.068-.067.147.147 0 0 0-.058-.018 1.888 1.888 0 0 1-.176-.108 10.981 10.981 0 0 1-.475-.353c-.076-.26-.03-.363.124-.363.096 0 .177-.007.384-.031l.042-.005c.333-.038.492-.035.571.022.144.103.277.113.36.014h.27l.483.332h1.022l.021-.03a.78.78 0 0 1 .435-.305c.258-.07.258-.234.027-.414l-.053-.016c-.47.024-.802.069-.998.136-.054.018-.06.015-.068-.021-.014-.065.006-.189.063-.366l.022-.067-1.375-.222-.205.216-.445.12v.188l-.282-.055.137-.722-1.107.45Zm4.69 2.881-.036-.046.037.046Zm-.114-1.347c.01.002.014 0 .008-.003l-.008.003Zm-1.993.011Z" clip-rule="evenodd"/></g></g></g><defs><clipPath id="b"><rect width="36" height="24" x="3" y="2" fill="#fff" rx="2"/></clipPath><filter id="a" width="42" height="30" x="0" y="0" color-interpolation-filters="sRGB" filterUnits="userSpaceOnUse"><feFlood flood-opacity="0" result="BackgroundImageFix"/><feColorMatrix in="SourceAlpha" result="hardAlpha" values="0 0 0 0 0 0 0 0 0 0 0 0 0 0 0 0 0 0 127 0"/><feOffset dy="1"/><feGaussianBlur stdDeviation="1"/><feColorMatrix values="0 0 0 0 0.0627451 0 0 0 0 0.0941176 0 0 0 0 0.156863 0 0 0 0.06 0"/><feBlend in2="BackgroundImageFix" result="effect1_dropShadow_91_29757"/><feColorMatrix in="SourceAlpha" result="hardAlpha" values="0 0 0 0 0 0 0 0 0 0 0 0 0 0 0 0 0 0 127 0"/><feOffset dy="1"/><feGaussianBlur stdDeviation="1.5"/><feColorMatrix values="0 0 0 0 0.0627451 0 0 0 0 0.0941176 0 0 0 0 0.156863 0 0 0 0.1 0"/><feBlend in2="effect1_dropShadow_91_29757" result="effect2_dropShadow_91_29757"/><feBlend in="SourceGraphic" in2="effect2_dropShadow_91_29757" result="shape"/></filter></defs></svg>