<svg xmlns="http://www.w3.org/2000/svg" fill="none" aria-hidden="true" viewBox="0 0 42 30"><g id="Country=AS - American Samoa, Size=sm (36x24)" filter="url(#filter0_dd_91_29757)"><g clip-path="url(#clip0_91_29757)"><g id="flag"><mask id="mask0_91_29757" width="36" height="24" x="3" y="2" maskUnits="userSpaceOnUse" style="mask-type:alpha"><rect id="mask" width="36" height="24" x="3" y="2" fill="white"/></mask><g mask="url(#mask0_91_29757)"><g id="contents"><path id="middle" fill="#F7FCFF" fill-rule="evenodd" d="M3 2H39V26H3V2Z" clip-rule="evenodd"/><path id="blue" fill="#3547A0" stroke="#E31D1C" stroke-width="2" d="M3 1H2V2V13.2792L-0.162278 14L2 14.7208V26V27H3H39L39.3162 25.0513L6.16228 14L39.3162 2.94868L39 1H3Z"/><g id="mark"><path id="Path" fill="#9C3900" fill-rule="evenodd" d="M35.6503 7.11011C35.6503 7.11011 33.3888 7.65257 32.5709 7.84976C32.4606 7.87636 32.2502 7.92394 32.2652 7.65694C31.7471 7.95255 30.9119 8.25133 30.5695 8.33612C30.3972 8.37878 30.4432 8.11378 30.3696 8.03793C30.2205 8.2333 29.8373 8.51953 29.7286 8.5475C28.6506 8.82478 27.9348 9.02635 27.5812 9.15218C27.5812 9.15218 27.076 9.58412 27.076 9.92657C27.076 10.269 27.0222 10.5615 26.6744 10.5615C26.3266 10.5615 25.5245 11.1836 25.8184 11.5341C26.1122 11.8846 27.076 11.698 27.076 11.5341C27.076 11.3702 27.7631 11.1652 27.7631 11.3496C27.7631 11.5341 27.5812 11.8677 27.5812 11.8677H28.3398L27.7631 12.1329H28.3398L27.7631 12.447H28.843L28.1528 12.7206H28.6316L28.3398 13.0808H29.0879C29.0879 13.0808 29.379 13.3425 29.6534 13.4855C29.9278 13.6285 30.5361 14.8457 30.2319 15.3171C29.9278 15.7884 30.3009 15.8585 30.3696 15.6514C30.4383 15.4444 30.5805 15.1476 30.7026 15.1476C30.8247 15.1476 31.059 15.1476 31.059 15.1476L31.2245 15.5349L31.6175 15.9081C31.6175 15.9081 31.6455 15.5837 31.7192 15.5349C31.7192 15.5349 32.026 15.5626 32.1748 15.5306C32.1748 15.5306 32.1088 15.0587 32.114 14.9952C32.114 14.9952 32.5896 15.1387 32.7934 15.1355C32.7934 15.1355 32.4873 14.71 32.4873 14.5648C32.4873 14.5648 33.0559 14.5905 33.0559 14.8054L32.9929 14.269C32.9929 14.269 33.5311 14.0655 33.5499 13.8942L33.1973 13.8558C33.1973 13.8558 33.3804 13.6492 33.3634 13.6084L32.8424 13.5496C32.8424 13.5496 33.4117 13.3735 33.4546 13.2621C33.4546 13.2621 33.3269 13.0837 33.2098 13.0136L32.8121 12.7845C32.8121 12.7845 33.7015 12.7896 33.8504 12.7896C33.8504 12.7896 34.0828 12.7154 33.9039 12.5883C33.9039 12.5883 33.7287 12.4948 33.7526 12.4044C33.7526 12.4044 33.8717 12.2011 33.8445 12.1657C33.8445 12.1657 33.9715 12.3154 33.9715 11.9455C33.9715 11.9455 33.9747 11.5738 33.8947 11.5559C33.8947 11.5559 34.1287 11.4028 34.0367 11.3051C33.9447 11.2074 32.959 10.9474 32.7232 10.9474L34.529 9.92995C34.529 9.92995 34.6542 9.50972 34.8374 9.25854C34.8374 9.25854 35.3173 8.87561 35.414 8.57555C35.5107 8.27549 35.7831 7.53542 35.7831 7.53542V7.19674L35.6503 7.11011Z" clip-rule="evenodd"/><path id="Path_2" fill="#212121" fill-rule="evenodd" d="M32.4873 14.5648C32.5107 14.5658 32.5334 14.5671 32.5602 14.569C32.8604 14.5907 33.0243 14.6577 33.0517 14.7701L32.9929 14.269C33.3517 14.1333 33.5374 14.0084 33.5499 13.8942L33.2811 13.8649L33.2548 13.8948L33.2384 13.8603L33.1973 13.8558L33.2226 13.827L33.2063 13.7926L33.248 13.7972C33.3346 13.6944 33.373 13.6315 33.3634 13.6084L32.9991 13.5673C32.9575 13.5811 32.9133 13.5952 32.8666 13.6096C32.8666 13.6096 32.8533 13.5462 32.8587 13.5445L32.8517 13.4865L32.99 13.5021C33.2751 13.4061 33.43 13.3261 33.4546 13.2621C33.3695 13.1432 33.2879 13.0603 33.2098 13.0136L32.9237 12.8488L32.8116 12.8482C32.8116 12.8482 32.8265 12.7846 32.8337 12.7846L32.8521 12.7313L32.9458 12.7853C33.4573 12.7882 33.7588 12.7896 33.8504 12.7896C34.0053 12.7401 34.0232 12.673 33.9039 12.5883C33.7871 12.5259 33.7367 12.4646 33.7526 12.4044C33.791 12.3389 33.818 12.2865 33.8335 12.2471C33.8169 12.2358 33.8009 12.2211 33.786 12.2036L33.8445 12.1657L33.9048 12.1301C33.9203 12.1502 33.9256 12.1744 33.9212 12.2053C33.9547 12.1873 33.9715 12.1007 33.9715 11.9455C33.9729 11.7798 33.962 11.6669 33.9382 11.6069L33.8947 11.5559L33.9127 11.4942C33.9287 11.4978 33.9429 11.5039 33.9556 11.5128C34.0621 11.43 34.0892 11.3608 34.0367 11.3051C33.9558 11.2192 33.1842 11.0079 32.8387 10.958L32.7626 11.0009C32.7626 11.0009 32.7298 10.9474 32.7412 10.9372L32.7232 10.8837C32.7495 10.8837 32.7833 10.8864 32.8227 10.8913L34.529 9.92995C34.6124 9.6498 34.7153 9.42599 34.8374 9.25854C35.1574 9.00325 35.3496 8.77559 35.414 8.57555C35.4785 8.37551 35.6015 8.0288 35.7831 7.53542V7.19674L35.6503 7.11011C34.1426 7.47175 33.1162 7.7183 32.5709 7.84976C32.4606 7.87636 32.2502 7.92394 32.2652 7.65694C31.7471 7.95255 30.9119 8.25133 30.5695 8.33612C30.4592 8.36341 30.4384 8.26479 30.4184 8.17033C30.4071 8.11713 30.3961 8.06525 30.3696 8.03793C30.2205 8.2333 29.8373 8.51953 29.7286 8.5475C28.6506 8.82478 27.9348 9.02635 27.5812 9.15218C27.2444 9.44014 27.076 9.69827 27.076 9.92657C27.076 10.269 27.0222 10.5615 26.6744 10.5615C26.3266 10.5615 25.5245 11.1836 25.8184 11.5341C26.1122 11.8846 27.076 11.698 27.076 11.5341C27.076 11.3702 27.7631 11.1652 27.7631 11.3496C27.7631 11.4726 27.7025 11.6453 27.5812 11.8677H28.1834L28.306 11.8114L28.3239 11.875L28.3398 11.9314H28.2014L27.7631 12.1329H28.2021L28.3014 12.0788L28.3222 12.1425L28.3398 12.1965H28.2229L27.7631 12.447H28.6667L28.8129 12.389L28.8286 12.4527L28.843 12.5106H28.6824L28.1528 12.7206H28.5424L28.5722 12.6838L28.5939 12.7206H28.6316L28.6098 12.7475L28.6316 12.7843H28.58L28.3398 13.0808H29.0879C29.282 13.2552 29.4705 13.3902 29.6534 13.4855C29.9278 13.6285 30.5361 14.8457 30.2319 15.3171C29.9278 15.7884 30.3009 15.8585 30.3696 15.6514C30.4383 15.4444 30.5805 15.1476 30.7026 15.1476H31.059L31.2245 15.5349L31.6175 15.9081C31.6175 15.9081 31.6455 15.5837 31.7192 15.5349C31.9238 15.5534 32.0756 15.5519 32.1748 15.5306C32.1717 15.5082 32.1687 15.4866 32.1658 15.4656C32.1392 15.2744 32.1205 15.1396 32.0902 15.0554L32.114 14.9952C32.114 14.9952 32.1862 15.0094 32.1864 15.0167C32.4658 15.0979 32.6681 15.1375 32.7934 15.1355C32.6276 14.905 32.5291 14.7362 32.4952 14.6187C32.4899 14.5983 32.4873 14.5803 32.4873 14.5648ZM32.8181 13.4896L32.5303 13.5786L33.2655 13.6615C33.2395 13.6997 33.1974 13.7517 33.1397 13.8168L33.0614 13.9052L33.4475 13.9472C33.3848 14.0212 33.2242 14.1121 32.964 14.2105L32.915 14.2291L32.9568 14.5851C32.8493 14.5375 32.6927 14.5104 32.491 14.5012L32.4145 14.4978V14.5648C32.4145 14.6638 32.4946 14.826 32.6556 15.0611C32.5284 15.0426 32.3552 15.0007 32.1376 14.9351L32.0481 14.9081L32.0413 14.9907C32.0376 15.0363 32.055 15.1941 32.0942 15.4785C32.0054 15.4877 31.8824 15.4857 31.7267 15.4716L31.6752 15.4841C31.6239 15.5181 31.5966 15.5912 31.5731 15.7074C31.5695 15.7253 31.5662 15.7438 31.5631 15.7625L31.2877 15.5009L31.1094 15.084H30.7026C30.5456 15.084 30.4016 15.3266 30.2997 15.6337C30.2805 15.6915 30.2327 15.7097 30.2097 15.6915C30.164 15.6553 30.1757 15.5336 30.2953 15.3484C30.4463 15.1144 30.4054 14.7123 30.2285 14.2577C30.0766 13.8676 29.8495 13.5136 29.6906 13.4308C29.5136 13.3386 29.3299 13.2071 29.14 13.0364L29.1186 13.0171H28.4805L28.7723 12.657H28.4896L29.1798 12.3833H28.0176L28.5944 12.0692H28.0579L28.6347 11.8041H27.6946C27.7884 11.6167 27.8358 11.4659 27.8358 11.3497C27.8358 11.2659 27.7634 11.2208 27.661 11.2141C27.588 11.2094 27.4944 11.2231 27.3971 11.2507C27.1769 11.3131 27.0032 11.4193 27.0032 11.5341C27.0032 11.5389 26.9658 11.5668 26.8925 11.5939C26.802 11.6273 26.6787 11.6529 26.5504 11.6636C26.2484 11.689 25.9904 11.6317 25.877 11.4965C25.7698 11.3686 25.8434 11.1672 26.0596 10.9592C26.2568 10.7695 26.5272 10.6252 26.6744 10.6252C26.8681 10.6252 27.0001 10.545 27.0724 10.3976C27.1284 10.2838 27.1487 10.1367 27.1487 9.9266C27.1487 9.72101 27.3046 9.48001 27.6219 9.20648C27.977 9.08139 28.6868 8.88185 29.7491 8.6086C29.8662 8.57848 30.1653 8.35559 30.3487 8.19108C30.3641 8.26328 30.3755 8.29977 30.3999 8.33504C30.4403 8.39327 30.5077 8.41759 30.5892 8.3974C30.9935 8.29729 31.7298 8.01681 32.2009 7.76738C32.2204 7.84905 32.2706 7.90209 32.3487 7.92408C32.4199 7.94411 32.4843 7.9367 32.5902 7.91116C33.1313 7.78071 34.1463 7.5369 35.6353 7.17975L35.7103 7.22869V7.52545C35.5303 8.01448 35.4083 8.3586 35.3439 8.5583C35.2839 8.74474 35.0992 8.96353 34.7761 9.22431C34.6529 9.3931 34.5497 9.61487 34.4658 9.88984L32.4757 11.0111H32.7231C32.9483 11.0111 33.9083 11.269 33.9805 11.3456C34.006 11.3727 33.9782 11.4218 33.8511 11.5049L33.7291 11.5846L33.864 11.6148C33.8704 11.6263 33.8768 11.646 33.8822 11.6731C33.8941 11.7336 33.8997 11.8246 33.8987 11.945C33.8987 12.0405 33.8918 12.1075 33.8812 12.1411C33.8812 12.1411 33.7808 12.1879 33.7766 12.1875L33.7766 12.1872L33.7766 12.1875L33.7765 12.1875C33.7755 12.1951 33.7721 12.2071 33.7661 12.2228C33.7522 12.259 33.726 12.3102 33.6817 12.39C33.6571 12.4832 33.724 12.5659 33.8616 12.6404C33.9284 12.6881 33.9279 12.6965 33.8374 12.726C33.7235 12.7259 33.3817 12.7242 32.8126 12.7209L32.5668 12.7195L33.1697 13.0668C33.2301 13.103 33.297 13.1682 33.368 13.2621C33.3463 13.2805 33.3055 13.3055 33.2456 13.3336C33.1474 13.3797 33.0047 13.4319 32.8181 13.4896ZM33.7766 12.1875L33.7765 12.188L33.7769 12.1896L33.7766 12.1875L33.7766 12.1875ZM33.0517 14.7701L33.0647 14.8701C33.0647 14.8355 33.0604 14.8022 33.0517 14.7701Z" clip-rule="evenodd"/><path id="Path 2" fill="white" fill-rule="evenodd" d="M33.8326 12.7921C33.8326 12.7921 35.9798 13.0462 36.1096 13.0462C36.2395 13.0462 36.78 12.924 36.5949 12.1552C36.4098 11.3864 36.4851 10.9214 35.9553 10.9214C35.4255 10.9214 34.873 11.126 34.6742 11.126C34.4754 11.126 34.6677 11.126 33.8326 11.126C32.9976 11.126 28.0232 11.1005 27.665 11.4551C27.3068 11.8097 26.2994 12.3099 25.8328 12.4864C25.3662 12.6628 25.2465 12.5395 25.0368 13.0462C24.827 13.5528 24.6709 13.5881 24.6709 13.5881L25.0368 13.9508H26.1241C26.1241 13.9508 26.8728 13.1158 28.427 13.0462C29.9813 12.9766 33.8326 12.7921 33.8326 12.7921Z" clip-rule="evenodd"/><path id="Path 2_2" fill="#4D4D4D" fill-rule="evenodd" d="M28.427 13.0462C29.4632 12.9998 31.2651 12.9151 33.8326 12.7921C35.264 12.9615 36.023 13.0462 36.1096 13.0462C36.2395 13.0462 36.78 12.924 36.5949 12.1552C36.5522 11.9781 36.5234 11.8171 36.4978 11.6742C36.4124 11.1969 36.3631 10.9214 35.9553 10.9214C35.6268 10.9214 35.2895 11.0001 35.0332 11.0598C34.8763 11.0965 34.7497 11.126 34.6742 11.126H33.8326C33.7896 11.126 33.7356 11.1259 33.6718 11.1258C32.4973 11.1244 28.0048 11.1187 27.665 11.4551C27.3068 11.8097 26.2994 12.3099 25.8328 12.4864C25.7136 12.5315 25.617 12.557 25.5358 12.5784C25.2991 12.6409 25.1929 12.669 25.0368 13.0462C24.8969 13.384 24.7749 13.5646 24.6709 13.5881L25.0368 13.9508H26.1241C26.6232 13.3941 27.3909 13.0926 28.427 13.0462ZM26.0717 13.8553H25.086L24.8334 13.6049C24.9351 13.5119 25.0319 13.3382 25.1394 13.0787C25.1804 12.9796 25.2173 12.9068 25.2531 12.8532C25.3183 12.7555 25.3699 12.724 25.508 12.6858C25.5109 12.685 25.5218 12.6821 25.5368 12.6781C25.5747 12.668 25.6387 12.6509 25.6661 12.6431C25.7384 12.6225 25.8052 12.6009 25.8761 12.574C26.49 12.3419 27.4235 11.8384 27.7468 11.5184C27.8075 11.4583 28.1782 11.3902 28.7607 11.3415C29.2867 11.2976 29.979 11.2668 30.8009 11.2472C31.7166 11.2254 32.5635 11.22 33.6279 11.2213C33.6225 11.2213 33.7184 11.2214 33.7417 11.2214L33.8326 11.2215H34.6742C34.7313 11.2215 34.8021 11.2102 34.9101 11.1867C34.937 11.1808 35.0133 11.1632 35.0845 11.1468C35.1412 11.1337 35.1947 11.1213 35.2176 11.1162C35.4722 11.0594 35.6715 11.0274 35.8647 11.0189C35.8955 11.0176 35.9257 11.0169 35.9553 11.0169C36.2108 11.0169 36.285 11.1236 36.3672 11.5636C36.3702 11.5793 36.3781 11.6233 36.387 11.6727C36.3988 11.7379 36.4123 11.8127 36.4183 11.8449C36.441 11.9655 36.4627 12.0697 36.488 12.1749C36.5638 12.4895 36.5171 12.6989 36.3886 12.8257C36.3051 12.9082 36.1855 12.9507 36.1096 12.9507C36.0311 12.9507 35.2591 12.8646 33.8267 12.6968C31.2592 12.8198 29.4574 12.9044 28.4214 12.9509C27.3783 12.9976 26.5923 13.2986 26.0717 13.8553Z" clip-rule="evenodd"/><path id="Path 3" fill="#FFC221" fill-rule="evenodd" d="M24.9457 13.3994C24.9457 13.3994 24.1268 13.8663 24.4274 14.18C24.7281 14.4938 24.7578 14.5336 24.8177 14.5336C24.8177 14.5336 24.8338 14.1977 24.9308 14.1977C25.0277 14.1977 25.7958 14.5239 26.0743 13.9725C26.3527 13.421 24.9457 13.3994 24.9457 13.3994Z" clip-rule="evenodd"/><path id="Path 4" fill="#FFC221" fill-rule="evenodd" d="M23.1626 14.921L25.0475 14.6106L25.7705 15.3064L25.9791 14.6837L26.4974 14.7967V15.1111H26.6887V15.5424L28.0441 15.7942L28.2141 15.381C28.2141 15.381 28.6555 16.0285 29.3335 15.9963C30.0115 15.964 30.1324 16.1347 30.2517 15.6563C30.3709 15.1779 30.7033 14.921 30.7033 14.921L31.4944 15.1578C31.4944 15.1578 30.6253 16.1067 31.0409 16.4049L34.1388 17.0421L34.0164 17.3756H33.6609L33.7569 17.6629L30.3713 17.455C30.3713 17.455 29.9941 17.8799 29.9941 17.7714C29.9941 17.6629 29.9736 17.6629 29.8069 17.6629C29.6402 17.6629 29.5537 17.455 29.5537 17.455L29.3335 17.5304C29.3335 17.5304 29.3668 17.5344 29.0898 17.455C28.8129 17.3756 28.6507 17.3756 28.6507 17.3756L27.5072 17.3006V17.455C27.5072 17.455 27.2043 17.4685 27.3095 17.5304C27.4147 17.5923 29.5537 17.6629 29.5537 17.6629L29.4234 17.8765C29.4234 17.8765 30.4809 17.8799 30.7033 17.7714C30.9257 17.6629 30.7826 18.0118 30.7826 18.0118H31.8331C31.8331 18.0118 31.5726 18.231 31.2386 18.231C30.9047 18.231 32.1974 18.5955 32.1974 18.5955C32.1974 18.5955 31.4757 18.7945 31.1416 18.6629C30.8074 18.5313 31.2833 18.9174 31.4944 19.0149C31.7055 19.1124 30.752 19.1037 30.3713 18.7274C30.3713 18.7274 30.491 19.0062 30.3713 19.0859C30.3713 19.0859 29.7043 18.3873 29.3711 18.3873C29.0379 18.3873 29.4234 18.8479 29.4234 18.8479C29.4234 18.8479 29.2331 18.6071 29.0206 18.7049C28.808 18.8027 28.6507 18.9135 28.6507 18.9135C28.6507 18.9135 28.5114 18.4868 27.7753 18.3103C27.0391 18.1339 27.2861 18.069 26.6887 18.0118C26.0913 17.9546 26.0611 17.6629 25.9791 17.6629C25.8971 17.6629 25.2652 17.1714 25.2652 17.1714C25.2652 17.1714 25.1246 16.7104 25.4541 16.7104C25.7835 16.7104 26.306 16.5726 26.4974 16.7104C26.6887 16.8483 26.7696 16.7104 26.7696 16.7104H27.1063L27.5887 17.0421H28.5459C28.5459 17.0421 28.7293 16.7902 29.0206 16.7104C29.3118 16.6307 29.0206 16.4049 29.0206 16.4049C29.0206 16.4049 28.3256 16.4401 28.0441 16.5358C27.7627 16.6315 27.943 16.0726 27.943 16.0726L26.6887 15.8701L26.4974 16.0726L26.0822 16.1837V16.4049L25.6446 16.3194L25.7705 15.6563L24.7464 16.0726L23.1626 14.921Z" clip-rule="evenodd"/><path id="Path 4_2" fill="#4D4D4D" fill-rule="evenodd" d="M29.4622 17.813L29.5537 17.6629C28.2533 17.6199 27.5166 17.5794 27.343 17.5412C27.3267 17.5375 27.3156 17.5339 27.3095 17.5304C27.2043 17.4685 27.5072 17.455 27.5072 17.455V17.3597V17.3006L27.5799 17.3054L28.6507 17.3756C28.7589 17.3756 28.9052 17.4021 29.0898 17.455C29.1683 17.4775 29.2281 17.495 29.2692 17.5074C29.2718 17.5018 29.2764 17.4962 29.2847 17.4861C29.3041 17.4751 29.3121 17.4706 29.3207 17.4687C29.3267 17.4674 29.3329 17.4674 29.3435 17.4673C29.3435 17.4673 29.3381 17.5309 29.3335 17.5304C29.3335 17.5304 29.4855 17.4773 29.4875 17.4777L29.5537 17.455C29.5803 17.5188 29.6125 17.5679 29.6504 17.6024L29.6654 17.6151C29.7064 17.6469 29.7536 17.6629 29.8069 17.6629C29.9736 17.6629 29.9941 17.6629 29.9941 17.7714C29.9941 17.8437 30.1198 17.7383 30.3713 17.455L33.7569 17.6629L33.6609 17.4393L33.6762 17.4214L33.6609 17.3756H33.7154L33.7307 17.3578L33.7367 17.3756H34.0164L34.1388 17.0421L31.0409 16.4049C30.7638 16.2061 30.915 15.7904 31.4944 15.1578L30.7033 14.921C30.4817 15.0923 30.3311 15.3374 30.2517 15.6563C30.163 16.0122 30.0733 16.0089 29.7542 15.9971C29.6443 15.9931 29.5072 15.988 29.3335 15.9963C28.8815 16.0178 28.5084 15.8127 28.2141 15.381L28.0441 15.7942L26.6887 15.5424V15.1111H26.4974V14.7967L25.9791 14.6837L25.7945 15.2348L25.8244 15.2635L25.782 15.2721L25.7705 15.3064L25.743 15.2799L25.7007 15.2885L25.7132 15.2512L25.0475 14.6106L23.1626 14.921L24.7464 16.0726L25.6906 15.6888L25.6987 15.6459L25.7357 15.6705L25.7705 15.6563L25.7642 15.6895L25.8012 15.714L25.7561 15.7324L25.6446 16.3194L26.0822 16.4049V16.1837L26.4974 16.0726L26.6887 15.8701C26.6887 15.8701 27.8724 16.0572 27.8778 16.0621L27.943 16.0726C27.9368 16.092 27.9309 16.1109 27.924 16.1343C27.8271 16.4621 27.8672 16.596 28.0441 16.5358C28.2317 16.472 28.5572 16.4284 29.0206 16.4049C29.2147 16.5554 29.2147 16.6573 29.0206 16.7104C28.8264 16.7636 28.6682 16.8741 28.5459 17.0421H27.5887L27.1063 16.7104H26.7696C26.7157 16.8023 26.6249 16.8023 26.4974 16.7104C26.3687 16.6177 26.0902 16.6498 25.8213 16.6806C25.6905 16.6957 25.5619 16.7104 25.4541 16.7104C25.2345 16.7104 25.1715 16.8641 25.2652 17.1714C25.6864 17.4991 25.9244 17.6629 25.9791 17.6629C26.002 17.6629 26.0208 17.6855 26.049 17.7194C26.122 17.8072 26.2577 17.9705 26.6887 18.0118C27.0124 18.0428 27.0882 18.0761 27.2068 18.1281C27.3071 18.1721 27.438 18.2295 27.7753 18.3103C28.2661 18.4279 28.5579 18.629 28.6507 18.9135C28.6507 18.9135 28.808 18.8027 29.0206 18.7049C29.1578 18.6417 29.2882 18.6845 29.4115 18.8333C29.3492 18.7548 29.0734 18.3873 29.3711 18.3873C29.5932 18.3873 29.9266 18.6202 30.3713 19.0859C30.4315 19.0458 30.4463 18.9679 30.4156 18.8523C30.3795 18.8265 30.3464 18.7989 30.3168 18.7696C30.3168 18.7696 30.3729 18.7311 30.3803 18.7362L30.4394 18.705C30.4563 18.7443 30.47 18.7812 30.4803 18.816C30.9064 19.1044 31.6874 19.1041 31.4944 19.0149C31.3686 18.9567 31.1486 18.796 31.0569 18.6977C31.0106 18.6463 31.0101 18.6187 31.1069 18.6501C31.1173 18.6536 31.1289 18.6579 31.1416 18.6629C31.3644 18.7507 31.7163 18.7282 32.1974 18.5955C31.6957 18.454 31.3778 18.3538 31.2246 18.286C31.1475 18.2493 31.1522 18.231 31.2406 18.231C31.2388 18.2259 31.2362 18.2213 31.2323 18.2156C31.2369 18.2186 31.2437 18.2224 31.2609 18.2308C31.4164 18.2273 31.5599 18.1877 31.6912 18.1118H31.7492C31.7705 18.0892 31.7913 18.065 31.8119 18.0392L31.8095 18.0311C31.8174 18.0248 31.8253 18.0184 31.8331 18.0118H30.8598L30.8512 18.0333L30.8339 18.0118H30.7826C30.7887 17.9969 30.7943 17.9827 30.7995 17.969L30.8071 17.9482C30.8717 17.765 30.8371 17.7061 30.7033 17.7714C30.5609 17.8409 30.1618 17.8759 29.5058 17.8766L29.4876 17.9065L29.4672 17.8766L29.4234 17.8765L29.444 17.8427L29.4236 17.8129L29.4622 17.813ZM31.8095 18.0311L31.8039 18.0118H31.7238C31.6903 18.0496 31.6559 18.0829 31.6207 18.1118H31.6912C31.7318 18.0884 31.7713 18.0615 31.8095 18.0311ZM24.7575 15.9979L23.3281 14.9585L25.0211 14.6797L25.8039 15.4331L26.0294 14.7603L26.4246 14.8465V15.1748H26.616V15.594L28.0911 15.8681L28.2326 15.5243C28.5276 15.9 28.8975 16.0808 29.3375 16.0598C29.4698 16.0535 29.5742 16.0543 29.7277 16.0599C29.9827 16.0691 30.0388 16.0664 30.122 16.0219C30.2199 15.9695 30.2728 15.8705 30.3228 15.6699C30.3954 15.3788 30.5282 15.1539 30.7207 14.9934L31.3737 15.1889C30.8239 15.8081 30.6842 16.2313 31.0078 16.4635L34.0455 17.0883L33.9634 17.312H33.5638L33.6577 17.593L30.3377 17.3891L30.3139 17.416C30.2024 17.5415 30.1163 17.6313 30.0567 17.6844C30.0339 17.6136 29.9673 17.5992 29.8069 17.5992C29.7313 17.5992 29.6704 17.5492 29.6222 17.4333L29.5967 17.372C29.5967 17.372 29.3224 17.4563 29.3135 17.4535C29.2723 17.4408 29.2054 17.4211 29.1126 17.3945C28.9228 17.3401 28.7704 17.3124 28.6536 17.312L27.4344 17.232V17.3965C27.418 17.3981 27.4017 17.4 27.3859 17.4022C27.3338 17.4094 27.2942 17.4186 27.2656 17.4336C27.195 17.4707 27.1989 17.542 27.2689 17.5832C27.3556 17.6342 28.0315 17.6753 29.4348 17.7226L29.3023 17.9398L29.4232 17.9402C30.1429 17.9425 30.5748 17.907 30.7388 17.827C30.7492 17.8219 30.7583 17.818 30.7658 17.8152C30.7652 17.8253 30.7633 17.8383 30.7599 17.8539C30.7521 17.8894 30.7369 17.935 30.7142 17.9903L30.6793 18.0755H31.6207C31.5033 18.137 31.3763 18.1674 31.2387 18.1674C31.2022 18.1674 31.1754 18.17 31.1537 18.1776C31.1012 18.1959 31.0794 18.2473 31.1137 18.2903C31.1369 18.3194 31.188 18.3447 31.2824 18.3805C31.4148 18.4309 31.6365 18.501 31.9482 18.5913C31.599 18.6676 31.3394 18.671 31.1715 18.6049C31.1246 18.5864 31.0888 18.5758 31.0604 18.573C31.0038 18.5674 30.9506 18.594 30.9534 18.6514C30.9554 18.6927 30.9917 18.7353 31.0617 18.7976C31.1381 18.8657 31.2435 18.9436 31.3374 19.0025C31.2865 19.0002 31.2278 18.9947 31.1665 18.986C30.8604 18.9423 30.5798 18.8374 30.4258 18.6852L30.1647 18.4272L30.3032 18.7498C30.3465 18.8506 30.3629 18.9247 30.3581 18.9736C29.9336 18.5408 29.6105 18.3237 29.3711 18.3237C29.261 18.3237 29.1871 18.3673 29.1676 18.4458C29.1554 18.4949 29.166 18.5517 29.1937 18.6168C29.1266 18.606 29.0572 18.6162 28.9867 18.6486C28.9644 18.6589 28.9421 18.6695 28.9199 18.6805C28.8394 18.7205 28.7635 18.7632 28.6864 18.8108C28.559 18.5472 28.2591 18.3603 27.7946 18.2489C27.6188 18.2068 27.4902 18.169 27.3871 18.1314C27.3482 18.1172 27.3143 18.1036 27.2765 18.0873L27.2631 18.0815L27.2631 18.0815C27.2417 18.0721 27.2016 18.0546 27.1876 18.0488C27.0655 17.9979 26.9505 17.9729 26.6967 17.9485C26.4759 17.9274 26.3261 17.8733 26.2207 17.794C26.1913 17.7718 26.1459 17.7237 26.1074 17.6829L26.1074 17.6829C26.0761 17.6499 26.0494 17.6216 26.0394 17.6157C26.0232 17.6063 26.0053 17.6005 25.9808 17.5975C25.9715 17.5937 25.9588 17.5874 25.943 17.5786C25.9087 17.5594 25.8625 17.5298 25.8047 17.49C25.6901 17.4112 25.5318 17.2933 25.3301 17.1367C25.2544 16.8772 25.3001 16.7741 25.4541 16.7741C25.5498 16.7741 25.6307 16.7668 25.838 16.7429L25.8798 16.7382C26.2126 16.7004 26.3721 16.7027 26.4512 16.7596C26.5952 16.8633 26.7278 16.8731 26.8102 16.7741H27.0811L27.5636 17.1057H28.5858L28.6073 17.0763C28.7206 16.9206 28.8651 16.8197 29.0423 16.7712C29.3002 16.7006 29.3002 16.5366 29.0689 16.3573L29.0164 16.3413C28.546 16.3652 28.2143 16.4096 28.0178 16.4765C27.9643 16.4947 27.9575 16.4919 27.9497 16.4559C27.9355 16.3912 27.9559 16.2673 28.0131 16.0899L28.0348 16.0227L26.6599 15.8007L26.4552 16.0173L26.0095 16.1366V16.3254L25.7277 16.2704L25.865 15.5478L24.7575 15.9979ZM29.4488 18.8793C29.4488 18.8793 29.435 18.8628 29.4116 18.8333C29.424 18.8483 29.4364 18.8636 29.4488 18.8793ZM29.3335 17.5323C29.3448 17.5337 29.3476 17.5327 29.3417 17.5295L29.3335 17.5323ZM27.3408 17.5431L27.3404 17.5433L27.3418 17.5426L27.3408 17.5431Z" clip-rule="evenodd"/></g></g></g></g></g></g><defs><filter id="filter0_dd_91_29757" width="42" height="30" x="0" y="0" color-interpolation-filters="sRGB" filterUnits="userSpaceOnUse"><feFlood flood-opacity="0" result="BackgroundImageFix"/><feColorMatrix in="SourceAlpha" result="hardAlpha" values="0 0 0 0 0 0 0 0 0 0 0 0 0 0 0 0 0 0 127 0"/><feOffset dy="1"/><feGaussianBlur stdDeviation="1"/><feColorMatrix values="0 0 0 0 0.0627451 0 0 0 0 0.0941176 0 0 0 0 0.156863 0 0 0 0.06 0"/><feBlend in2="BackgroundImageFix" result="effect1_dropShadow_91_29757"/><feColorMatrix in="SourceAlpha" result="hardAlpha" values="0 0 0 0 0 0 0 0 0 0 0 0 0 0 0 0 0 0 127 0"/><feOffset dy="1"/><feGaussianBlur stdDeviation="1.5"/><feColorMatrix values="0 0 0 0 0.0627451 0 0 0 0 0.0941176 0 0 0 0 0.156863 0 0 0 0.1 0"/><feBlend in2="effect1_dropShadow_91_29757" result="effect2_dropShadow_91_29757"/><feBlend in="SourceGraphic" in2="effect2_dropShadow_91_29757" result="shape"/></filter><clipPath id="clip0_91_29757"><rect width="36" height="24" x="3" y="2" fill="white" rx="2"/></clipPath></defs></svg>