<svg xmlns="http://www.w3.org/2000/svg" fill="none" aria-hidden="true" viewBox="0 0 42 30"><g id="Country=BZ - Belize, Size=sm (36x24)" filter="url(#filter0_dd_91_29068)"><g clip-path="url(#clip0_91_29068)"><g id="flag"><mask id="mask0_91_29068" width="36" height="24" x="3" y="2" maskUnits="userSpaceOnUse" style="mask-type:alpha"><rect id="mask" width="36" height="24" x="3" y="2" fill="white"/></mask><g mask="url(#mask0_91_29068)"><g id="contents"><path id="background" fill="#0168B4" fill-rule="evenodd" d="M3 2V26H39V2H3Z" clip-rule="evenodd"/><mask id="mask1_91_29068" width="36" height="24" x="3" y="2" maskUnits="userSpaceOnUse" style="mask-type:alpha"><path id="background_2" fill="white" fill-rule="evenodd" d="M3 2V26H39V2H3Z" clip-rule="evenodd"/></mask><g mask="url(#mask1_91_29068)"><path id="top" fill="#E93C43" fill-rule="evenodd" d="M3 2V5H39V2H3Z" clip-rule="evenodd"/><path id="bottom" fill="#E93C43" fill-rule="evenodd" d="M3 23V26H39V23H3Z" clip-rule="evenodd"/><g id="mark"><path id="Oval 4" fill="#F7FCFF" d="M21 20C17.2721 20 14.25 17.3137 14.25 14C14.25 10.6863 17.2721 8 21 8C24.7279 8 27.75 10.6863 27.75 14C27.75 17.3137 24.7279 20 21 20Z"/><path id="Oval 4_2" fill="white" d="M21 22C16.0294 22 12 18.4183 12 14C12 9.58172 16.0294 6 21 6C25.9706 6 30 9.58172 30 14C30 18.4183 25.9706 22 21 22Z"/><path id="Oval" fill-rule="evenodd" stroke="#9C4C17" stroke-width="0.5" d="M21 21C25.3492 21 28.875 17.866 28.875 14C28.875 10.134 25.3492 7 21 7C16.6508 7 13.125 10.134 13.125 14C13.125 17.866 16.6508 21 21 21Z" clip-rule="evenodd"/><path id="Path 2" fill="#5B8C39" fill-rule="evenodd" d="M20.5196 6.08276L20.3449 6.41765C20.6331 6.55674 20.7424 6.87152 20.7424 7.06221C20.7424 7.25094 20.6297 7.3949 20.3449 7.5271L20.5196 7.87327C20.6389 7.81787 20.7569 7.77127 20.8685 7.7272C21.2686 7.56921 21.5861 7.44384 21.5861 7.06221C21.5861 6.59591 21.1051 6.36451 20.5858 6.11468L20.5196 6.08276ZM23.0401 6.2926L22.7683 6.57173C23.0022 6.77603 23.0096 7.1054 22.9505 7.2887C22.892 7.47011 22.739 7.58089 22.4243 7.6382L22.4848 8.01375C22.6167 7.98973 22.7446 7.97385 22.8656 7.95884C23.2992 7.905 23.6432 7.86227 23.7616 7.49543C23.9062 7.04719 23.5156 6.70691 23.0939 6.33953L23.0401 6.2926ZM25.0593 7.32231L25.4109 7.12599L25.447 7.18485C25.7294 7.64577 25.991 8.07269 25.7053 8.46377C25.4715 8.78382 25.1284 8.73526 24.696 8.67406C24.5754 8.657 24.4479 8.63894 24.3139 8.62763L24.3795 8.25276C24.6993 8.27975 24.882 8.21357 24.9977 8.05529C25.1145 7.89536 25.2157 7.57845 25.0593 7.32231ZM27.4033 8.51504L27.0044 8.6176C27.0753 8.90214 26.8797 9.18198 26.7178 9.30709C26.5576 9.4309 26.3615 9.44976 26.0624 9.34546L25.883 9.68972C26.0084 9.73343 26.1254 9.78203 26.236 9.82798C26.6326 9.99274 26.9474 10.1235 27.2714 9.87312C27.6673 9.5672 27.5482 9.09271 27.4196 8.58045L27.4033 8.51504ZM28.4603 10.3461L28.8756 10.3453L28.8711 10.4122C28.8358 10.9361 28.8031 11.4214 28.3277 11.6184C27.9386 11.7797 27.6766 11.5769 27.3464 11.3214L27.3464 11.3214C27.2543 11.2501 27.1569 11.1747 27.05 11.102L27.3292 10.815C27.5843 10.9885 27.7787 11.0185 27.9711 10.9387C28.1655 10.8581 28.4403 10.637 28.4603 10.3461ZM29.7201 12.4834L29.3227 12.3763C29.2079 12.6493 28.8724 12.7893 28.66 12.8159C28.4497 12.8421 28.2736 12.763 28.0867 12.5307L27.7254 12.7326C27.8037 12.8299 27.872 12.9273 27.9366 13.0193L27.9367 13.0194L27.9367 13.0195C28.1684 13.3496 28.3522 13.6117 28.7774 13.5586C29.2969 13.4937 29.4877 13.0381 29.6938 12.5462L29.7201 12.4834ZM29.4955 14.531L29.8443 14.7313L29.7995 14.7852C29.4489 15.2075 29.1241 15.5987 28.6047 15.5338C28.1795 15.4807 28.084 15.1838 27.9637 14.8096L27.9637 14.8096L27.9637 14.8096L27.9637 14.8096L27.9637 14.8096L27.9637 14.8095L27.9637 14.8095L27.9637 14.8095L27.9637 14.8095L27.9637 14.8095L27.9637 14.8095L27.9637 14.8095L27.9637 14.8095L27.9637 14.8095L27.9637 14.8095L27.9637 14.8095C27.9301 14.7051 27.8946 14.5948 27.8495 14.4821L28.2595 14.3766C28.3671 14.6456 28.5118 14.7648 28.7221 14.7911C28.9345 14.8176 29.3004 14.7652 29.4955 14.531ZM29.2526 16.936L28.9849 16.6538C28.7213 16.8271 28.3542 16.7821 28.1598 16.7015C27.9674 16.6218 27.8682 16.4702 27.8537 16.1849L27.427 16.1793C27.433 16.2988 27.4307 16.4136 27.4284 16.5221V16.5221V16.5221V16.5221C27.4204 16.9112 27.4141 17.22 27.8032 17.3813C28.2786 17.5783 28.7178 17.2886 29.192 16.9759L29.2526 16.936ZM27.8186 18.5496L27.9883 18.8864L27.9178 18.91C27.365 19.0944 26.8529 19.2653 26.457 18.9594C26.133 18.709 26.2349 18.4137 26.3632 18.0417C26.399 17.9379 26.4369 17.8282 26.4681 17.7118L26.8766 17.8217C26.802 18.0995 26.8503 18.2695 27.0106 18.3933C27.1725 18.5184 27.5115 18.6516 27.8186 18.5496ZM26.159 20.442L26.1002 20.0766C25.7734 20.0995 25.4888 19.8884 25.372 19.7285C25.2563 19.5702 25.2626 19.3949 25.4204 19.1462L25.0619 18.9404C24.9957 19.0446 24.9253 19.1408 24.8587 19.2318C24.62 19.558 24.4305 19.8169 24.6643 20.1369C24.9501 20.528 25.4952 20.4892 26.0838 20.4473L26.159 20.442ZM23.9615 21.124L23.8974 21.4887L23.8238 21.4743C23.2472 21.3613 22.7131 21.2568 22.5685 20.8085C22.4501 20.4417 22.7165 20.2434 23.0521 19.9935L23.0521 19.9935L23.0521 19.9934L23.0521 19.9934L23.0521 19.9934L23.0522 19.9934C23.1458 19.9237 23.2447 19.85 23.3422 19.7676L23.6174 20.0575C23.3847 20.2544 23.321 20.4204 23.3795 20.6018C23.4387 20.7851 23.6414 21.0609 23.9615 21.124ZM21.4115 21.9171L21.5861 21.5822C21.298 21.4431 21.1887 21.1283 21.1887 20.9376C21.1887 20.7489 21.3013 20.6049 21.5861 20.4727L21.4115 20.1265C21.2922 20.1819 21.1742 20.2285 21.0627 20.2726L21.0625 20.2726L21.0625 20.2726C20.6624 20.4306 20.3449 20.556 20.3449 20.9376C20.3449 21.4039 20.8259 21.6353 21.3452 21.8851L21.4115 21.9171ZM19.1628 21.4281L18.8911 21.7072L18.8373 21.6603C18.4156 21.2929 18.025 20.9526 18.1696 20.5044C18.2879 20.1375 18.632 20.0948 19.0656 20.041L19.0656 20.041C19.1866 20.026 19.3144 20.0101 19.4463 19.9861L19.5069 20.3616C19.1921 20.4189 19.0392 20.5297 18.9807 20.7111C18.9215 20.8944 18.929 21.2238 19.1628 21.4281ZM16.5202 20.8738L16.8719 20.6775C16.7155 20.4214 16.8167 20.1045 16.9335 19.9445C17.0491 19.7863 17.2318 19.7201 17.5517 19.7471L17.6173 19.3722C17.4833 19.3609 17.3558 19.3428 17.2352 19.3258C16.8028 19.2646 16.4597 19.216 16.2259 19.536C15.9402 19.9271 16.2018 20.3541 16.4842 20.815L16.5202 20.8738ZM14.9268 19.3822L14.5279 19.4848L14.5115 19.4194C14.383 18.9071 14.2639 18.4326 14.6598 18.1267C14.9838 17.8763 15.2985 18.0071 15.6952 18.1718C15.8058 18.2178 15.9228 18.2664 16.0481 18.3101L15.8688 18.6544C15.5697 18.5501 15.3736 18.5689 15.2133 18.6927C15.0514 18.8178 14.8559 19.0977 14.9268 19.3822ZM13.0554 17.6545L13.4707 17.6537C13.4907 17.3628 13.7655 17.1417 13.9599 17.0611C14.1523 16.9814 14.3467 17.0113 14.6019 17.1848L14.881 16.8978C14.7741 16.8251 14.6767 16.7497 14.5846 16.6785C14.2545 16.4229 13.9924 16.2201 13.6033 16.3814C13.1279 16.5785 13.0952 17.0637 13.06 17.5877L13.0554 17.6545ZM12.6085 15.6235L12.2111 15.5164L12.2374 15.4536C12.4434 14.9617 12.6343 14.5061 13.1538 14.4412C13.5789 14.3881 13.7628 14.6502 13.9945 14.9804C14.0591 15.0725 14.1274 15.1699 14.2058 15.2672L13.8444 15.4691C13.6575 15.2368 13.4815 15.1577 13.2712 15.184C13.0588 15.2105 12.7233 15.3505 12.6085 15.6235ZM12.0869 13.2685L12.4357 13.4688C12.6307 13.2346 12.9966 13.1822 13.2091 13.2087C13.4193 13.235 13.564 13.3542 13.6717 13.6233L14.0816 13.5177C14.0365 13.4049 14.001 13.2946 13.9675 13.1902C13.8471 12.8161 13.7517 12.5191 13.3265 12.466C12.807 12.4011 12.4823 12.7923 12.1317 13.2146L12.0869 13.2685ZM12.9462 11.3461L12.6786 11.0638L12.7391 11.0239C13.2133 10.7112 13.6525 10.4215 14.128 10.6186C14.5171 10.7798 14.5107 11.0886 14.5027 11.4777C14.5005 11.5862 14.4981 11.701 14.5042 11.8205L14.0774 11.8149C14.063 11.5297 13.9638 11.378 13.7714 11.2983C13.577 11.2177 13.2098 11.1727 12.9462 11.3461ZM13.9427 9.11337L14.1124 9.45024C14.4196 9.34819 14.7585 9.48138 14.9205 9.60648C15.0807 9.7303 15.129 9.90033 15.0544 10.1781L15.4629 10.2881C15.4942 10.1716 15.532 10.0619 15.5678 9.95813C15.6962 9.58607 15.798 9.29082 15.474 9.04045C15.0781 8.73453 14.5661 8.90539 14.0133 9.08986L13.9427 9.11337ZM15.8309 7.9232L15.7722 7.55779L15.8474 7.55247C16.4359 7.5106 16.9811 7.47181 17.2668 7.86288C17.5007 8.18294 17.3112 8.4418 17.0724 8.768L17.0724 8.76801C17.0058 8.85899 16.9354 8.9552 16.8693 9.05943L16.5107 8.85365C16.6685 8.60492 16.6748 8.42964 16.5592 8.27136C16.4424 8.11143 16.1578 7.90035 15.8309 7.9232ZM18.0337 6.51117L17.9697 6.87587C18.2898 6.93897 18.4925 7.21478 18.5516 7.39809C18.6101 7.5795 18.5465 7.74549 18.3137 7.94234L18.589 8.23231C18.6865 8.14982 18.7855 8.07611 18.8791 8.00641C19.2147 7.75651 19.481 7.5582 19.3627 7.19136C19.2181 6.74312 18.684 6.63853 18.1073 6.52561C18.0829 6.52082 18.0583 6.51602 18.0337 6.51117Z" clip-rule="evenodd"/><g id="inner"><path id="Path 4" fill="#247805" fill-rule="evenodd" d="M16.8139 15.9869C16.8139 15.9869 15.5767 15.9628 15.5767 16.4681C15.5767 16.9734 15.5767 17.5332 16.1953 17.2533C16.8139 16.9734 17.5703 16.8628 17.9704 17.058C18.3704 17.2533 19.3026 17.65 20.6167 17.65C21.9307 17.65 21.8431 17.2533 23.0533 17.2533C24.2635 17.2533 26.4242 17.1676 25.9238 16.8179C25.4234 16.4681 24.8344 16.2467 24.3848 16.2467C23.9352 16.2467 23.5904 16.2467 22.645 15.8349C21.6996 15.423 20.6442 15.3857 19.5807 15.5185C18.5172 15.6513 18.3768 15.9869 17.7479 15.9869C17.119 15.9869 16.8139 15.9869 16.8139 15.9869Z" clip-rule="evenodd"/><g id="middle"><path id="Rectangle" fill="white" stroke="#565656" stroke-width="0.5" d="M21.1126 17.65C21.1758 17.8918 21.1759 17.8918 21.176 17.8918L21.1763 17.8917L21.177 17.8915L21.1789 17.891L21.1853 17.8893L21.2075 17.883C21.2264 17.8776 21.2531 17.8696 21.2867 17.8588C21.3538 17.8374 21.4483 17.805 21.5611 17.7601C21.7861 17.6707 22.0879 17.5304 22.3915 17.327C22.9958 16.9222 23.6422 16.2411 23.6422 15.1917V15.1838V15.1758V15.1679V15.1599V15.152V15.144V15.1361V15.1282V15.1203V15.1123V15.1044V15.0965V15.0886V15.0807V15.0729V15.065V15.0571V15.0492V15.0414V15.0335V15.0257V15.0178V15.01V15.0021V14.9943V14.9865V14.9787V14.9709V14.9631V14.9553V14.9475V14.9397V14.9319V14.9242V14.9164V14.9086V14.9009V14.8931V14.8854V14.8777V14.87V14.8622V14.8545V14.8468V14.8391V14.8314V14.8238V14.8161V14.8084V14.8008V14.7931V14.7855V14.7778V14.7702V14.7626V14.755V14.7474V14.7397V14.7322V14.7246V14.717V14.7094V14.7019V14.6943V14.6868V14.6792V14.6717V14.6642V14.6567V14.6491V14.6416V14.6342V14.6267V14.6192V14.6117V14.6043V14.5968V14.5894V14.5819V14.5745V14.5671V14.5597V14.5523V14.5449V14.5375V14.5302V14.5228V14.5154V14.5081V14.5007V14.4934V14.4861V14.4788V14.4715V14.4642V14.4569V14.4496V14.4424V14.4351V14.4278V14.4206V14.4134V14.4062V14.3989V14.3917V14.3846V14.3774V14.3702V14.363V14.3559V14.3487V14.3416V14.3345V14.3274V14.3203V14.3132V14.3061V14.299V14.2919V14.2849V14.2778V14.2708V14.2638V14.2568V14.2498V14.2428V14.2358V14.2288V14.2218V14.2149V14.2079V14.201V14.1941V14.1872V14.1803V14.1734V14.1665V14.1596V14.1528V14.1459V14.1391V14.1323V14.1255V14.1187V14.1119V14.1051V14.0983V14.0916V14.0848V14.0781V14.0713V14.0646V14.0579V14.0512V14.0446V14.0379V14.0312V14.0246V14.018V14.0113V14.0047V13.9981V13.9915V13.985V13.9784V13.9718V13.9653V13.9588V13.9523V13.9458V13.9393V13.9328V13.9263V13.9199V13.9134V13.907V13.9006V13.8942V13.8878V13.8814V13.875V13.8687V13.8623V13.856V13.8497V13.8434V13.8371V13.8308V13.8245V13.8183V13.812V13.8058V13.7996V13.7934V13.7872V13.781V13.7749V13.7687V13.7626V13.7565V13.7504V13.7443V13.7382V13.7321V13.7261V13.72V13.714V13.708V13.702V13.696V13.69V13.684V13.6781V13.6722V13.6662V13.6603V13.6544V13.6486V13.6427V13.6369V13.631V13.6252V13.6194V13.6136V13.6078V13.6021V13.5963V13.5906V13.5848V13.5791V13.5734V13.5678V13.5621V13.5565V13.5508V13.5452V13.5396V13.534V13.5284V13.5229V13.5173V13.5118V13.5063V13.5008V13.4953V13.4898V13.4844V13.4789V13.4735V13.4681V13.4627V13.4573V13.452V13.4466V13.4413V13.436V13.4307V13.4254V13.4201V13.4149V13.4096V13.4044V13.3992V13.394V13.3888V13.3837V13.3785V13.3734V13.3683V13.3632V13.3581V13.3531V13.348V13.343V13.338V13.333V13.328V13.323V13.3181V13.3131V13.3082V13.3033V13.2985V13.2936V13.2887V13.2839V13.2791V13.2743V13.2695V13.2647V13.26V13.2553V13.2506V13.2459V13.2412V13.2365V13.2319V13.2272V13.2226V13.218V13.2135V13.2089V13.2044V13.1998V13.1953V13.1908V13.1864V13.1819V13.1775V13.1731V13.1687V13.1643V13.1599V13.1556V13.1512V13.1469V13.1426V13.1384V13.1341V13.1299V13.1256V13.1214V13.1173V13.1131V13.1089V13.1048V13.1007V13.0966V13.0925V13.0885V13.0844V13.0804V13.0764V13.0724V13.0685V13.0645V13.0606V13.0567V13.0528V13.049V13.0451V13.0413V13.0375V13.0337V13.0299V13.0261V13.0224V13.0187V13.015V13.0113V13.0077V13.004V12.8981V12.8134V12.8111V12.8088V12.8066V12.8044V12.8022V12.8V12.7978V12.7957V12.7936V12.7915V12.7894V12.7874V12.7854V12.7834V12.7814V12.7794V12.7775V12.7756V12.7737V12.7718V12.77V12.7682V12.7664V12.7646V12.7629V12.7611V12.7594V12.7577V12.7561V12.7545V12.7528V12.7513V12.7497V12.7481V12.7466V12.7451V12.7437V12.7422V12.7408V12.7394V12.738V12.7367V12.7353V12.734V12.7328V12.7315V12.7303V12.7291V12.7279V12.7267V12.7256V12.7245V12.7234V12.7223V12.7213V12.7202V12.7193V12.7183V12.7173V12.7164V12.7155V12.7147V12.7138V12.713V12.7122V12.7114V12.7107V12.71V12.7093V12.7086V12.7079V12.7073V12.7067V12.7062V12.7056V12.7051V12.7046V12.7041V12.7037V12.7032V12.7028V12.7025V12.7021V12.7018V12.7015V12.7012V12.701V12.7008V12.7006V12.7004V12.7003V12.7002V12.7001V12.7V12.7L23.3922 12.7H23.6422V12.45H23.3922H18.833H18.583V12.7H18.833L18.583 12.7V12.7V12.7001V12.7002V12.7003V12.7005V12.7007V12.7009V12.7012V12.7015V12.7018V12.7022V12.7025V12.7029V12.7034V12.7039V12.7043V12.7049V12.7054V12.706V12.7066V12.7073V12.708V12.7087V12.7094V12.7102V12.711V12.7118V12.7126V12.7135V12.7144V12.7154V12.7163V12.7173V12.7183V12.7194V12.7205V12.7216V12.7227V12.7239V12.7251V12.7263V12.7275V12.7288V12.7301V12.7314V12.7328V12.7342V12.7356V12.737V12.7385V12.74V12.7415V12.7431V12.7447V12.7463V12.7479V12.7496V12.7512V12.753V12.7547V12.7565V12.7582V12.7601V12.7619V12.7638V12.7657V12.7676V12.7696V12.7715V12.7735V12.7756V12.7776V12.7797V12.7818V12.7839V12.7861V12.7883V12.7905V12.7927V12.795V12.7972V12.7995V12.8019V12.8042V12.8066V12.809V12.8115V12.8139V12.8164V12.8189V12.8214V12.824V12.8266V12.8292V12.8318V12.8345V12.8371V12.8398V12.8426V12.8453V12.8481V12.8509V12.8537V12.8565V12.8594V12.8623V12.8652V12.8682V12.8711V12.8741V12.8771V12.8801V12.8832V12.8863V12.8894V12.8925V12.8956V12.8988V12.902V12.9052V12.9084V12.9117V12.915V12.9183V12.9216V12.9249V12.9283V12.9317V12.9351V12.9385V12.942V12.9455V12.949V12.9525V12.956V12.9596V12.9632V12.9668V12.9704V12.9741V12.9777V12.9814V12.9851V12.9889V12.9926V12.9964V13.0002V13.004V13.0078V13.0117V13.0156V13.0195V13.0234V13.0273V13.0313V13.0353V13.0393V13.0433V13.0473V13.0514V13.0554V13.0595V13.0636V13.0678V13.0719V13.0761V13.0803V13.0845V13.0887V13.093V13.0973V13.1016V13.1059V13.1102V13.1145V13.1189V13.1233V13.1277V13.1321V13.1365V13.141V13.1455V13.1499V13.1545V13.159V13.1635V13.1681V13.1727V13.1773V13.1819V13.1865V13.1912V13.1958V13.2005V13.2052V13.21V13.2147V13.2195V13.2242V13.229V13.2338V13.2386V13.2435V13.2483V13.2532V13.2581V13.263V13.2679V13.2729V13.2778V13.2828V13.2878V13.2928V13.2978V13.3028V13.3079V13.313V13.318V13.3231V13.3283V13.3334V13.3385V13.3437V13.3489V13.3541V13.3593V13.3645V13.3697V13.375V13.3803V13.3855V13.3908V13.3961V13.4015V13.4068V13.4122V13.4175V13.4229V13.4283V13.4337V13.4391V13.4446V13.45V13.4555V13.461V13.4665V13.472V13.4775V13.4831V13.4886V13.4942V13.4997V13.5053V13.5109V13.5166V13.5222V13.5278V13.5335V13.5392V13.5448V13.5505V13.5562V13.562V13.5677V13.5734V13.5792V13.585V13.5907V13.5965V13.6023V13.6082V13.614V13.6198V13.6257V13.6316V13.6374V13.6433V13.6492V13.6551V13.6611V13.667V13.6729V13.6789V13.6849V13.6908V13.6968V13.7028V13.7088V13.7149V13.7209V13.7269V13.733V13.7391V13.7451V13.7512V13.7573V13.7634V13.7696V13.7757V13.7818V13.788V13.7941V13.8003V13.8065V13.8127V13.8189V13.8251V13.8313V13.8375V13.8437V13.85V13.8562V13.8625V13.8688V13.875V13.8813V13.8876V13.8939V13.9003V13.9066V13.9129V13.9192V13.9256V13.932V13.9383V13.9447V13.9511V13.9575V13.9639V13.9703V13.9767V13.9831V13.9895V13.996V14.0024V14.0089V14.0153V14.0218V14.0283V14.0348V14.0413V14.0478V14.0543V14.0608V14.0673V14.0738V14.0804V14.0869V14.0934V14.1V14.1065V14.1131V14.1197V14.1263V14.1328V14.1394V14.146V14.1526V14.1592V14.1659V14.1725V14.1791V14.1857V14.1924V14.199V14.2057V14.2123V14.219V14.2256V14.2323V14.239V14.2457V14.2523V14.259V14.2657V14.2724V14.2791V14.2858V14.2926V14.2993V14.306V14.3127V14.3195V14.3262V14.3329V14.3397V14.3464V14.3532V14.3599V14.3667V14.3734V14.3802V14.387V14.3938V14.4005V14.4073V14.4141V14.4209V14.4277V14.4345V14.4413V14.4481V14.4549V14.4617V14.4685V14.4753V14.4821V14.4889V14.4957V14.5026V14.5094V14.5162V14.523V14.5299V14.5367V14.5435V14.5504V14.5572V14.564V14.5709V14.5777V14.5846V14.5914V14.5983V14.6051V14.612V14.6188V14.6257V14.6325V14.6394V14.6462V14.6531V14.6599V14.6668V14.6737V14.6805V14.6874V14.6942V14.7011V14.708V14.7148V14.7217V14.7286V14.756V14.8109V14.8383V14.852V14.8657V14.9205V14.9341V14.9478V14.9751V15.0296V15.0839V15.1109V15.1379V15.1917C18.583 16.215 19.2314 16.8955 19.832 17.3051C20.1347 17.5116 20.4357 17.657 20.6601 17.7507C20.7726 17.7977 20.8669 17.8321 20.9337 17.855C20.9672 17.8664 20.9938 17.875 21.0126 17.8809L21.0346 17.8876L21.0409 17.8895L21.0429 17.89L21.0435 17.8902L21.0438 17.8903C21.0439 17.8903 21.044 17.8903 21.1126 17.65ZM21.1126 17.65L21.1758 17.8918L21.1097 17.9091L21.044 17.8903L21.1126 17.65Z"/><mask id="mask2_91_29068" width="6" height="7" x="18" y="12" maskUnits="userSpaceOnUse" style="mask-type:alpha"><path id="Rectangle_2" fill="white" stroke="white" stroke-width="0.5" d="M21.1126 17.65C21.1758 17.8918 21.1759 17.8918 21.176 17.8918L21.1763 17.8917L21.177 17.8915L21.1789 17.891L21.1853 17.8893L21.2075 17.883C21.2264 17.8776 21.2531 17.8696 21.2867 17.8588C21.3538 17.8374 21.4483 17.805 21.5611 17.7601C21.7861 17.6707 22.0879 17.5304 22.3915 17.327C22.9958 16.9222 23.6422 16.2411 23.6422 15.1917V15.1838V15.1758V15.1679V15.1599V15.152V15.144V15.1361V15.1282V15.1203V15.1123V15.1044V15.0965V15.0886V15.0807V15.0729V15.065V15.0571V15.0492V15.0414V15.0335V15.0257V15.0178V15.01V15.0021V14.9943V14.9865V14.9787V14.9709V14.9631V14.9553V14.9475V14.9397V14.9319V14.9242V14.9164V14.9086V14.9009V14.8931V14.8854V14.8777V14.87V14.8622V14.8545V14.8468V14.8391V14.8314V14.8238V14.8161V14.8084V14.8008V14.7931V14.7855V14.7778V14.7702V14.7626V14.755V14.7474V14.7397V14.7322V14.7246V14.717V14.7094V14.7019V14.6943V14.6868V14.6792V14.6717V14.6642V14.6567V14.6491V14.6416V14.6342V14.6267V14.6192V14.6117V14.6043V14.5968V14.5894V14.5819V14.5745V14.5671V14.5597V14.5523V14.5449V14.5375V14.5302V14.5228V14.5154V14.5081V14.5007V14.4934V14.4861V14.4788V14.4715V14.4642V14.4569V14.4496V14.4424V14.4351V14.4278V14.4206V14.4134V14.4062V14.3989V14.3917V14.3846V14.3774V14.3702V14.363V14.3559V14.3487V14.3416V14.3345V14.3274V14.3203V14.3132V14.3061V14.299V14.2919V14.2849V14.2778V14.2708V14.2638V14.2568V14.2498V14.2428V14.2358V14.2288V14.2218V14.2149V14.2079V14.201V14.1941V14.1872V14.1803V14.1734V14.1665V14.1596V14.1528V14.1459V14.1391V14.1323V14.1255V14.1187V14.1119V14.1051V14.0983V14.0916V14.0848V14.0781V14.0713V14.0646V14.0579V14.0512V14.0446V14.0379V14.0312V14.0246V14.018V14.0113V14.0047V13.9981V13.9915V13.985V13.9784V13.9718V13.9653V13.9588V13.9523V13.9458V13.9393V13.9328V13.9263V13.9199V13.9134V13.907V13.9006V13.8942V13.8878V13.8814V13.875V13.8687V13.8623V13.856V13.8497V13.8434V13.8371V13.8308V13.8245V13.8183V13.812V13.8058V13.7996V13.7934V13.7872V13.781V13.7749V13.7687V13.7626V13.7565V13.7504V13.7443V13.7382V13.7321V13.7261V13.72V13.714V13.708V13.702V13.696V13.69V13.684V13.6781V13.6722V13.6662V13.6603V13.6544V13.6486V13.6427V13.6369V13.631V13.6252V13.6194V13.6136V13.6078V13.6021V13.5963V13.5906V13.5848V13.5791V13.5734V13.5678V13.5621V13.5565V13.5508V13.5452V13.5396V13.534V13.5284V13.5229V13.5173V13.5118V13.5063V13.5008V13.4953V13.4898V13.4844V13.4789V13.4735V13.4681V13.4627V13.4573V13.452V13.4466V13.4413V13.436V13.4307V13.4254V13.4201V13.4149V13.4096V13.4044V13.3992V13.394V13.3888V13.3837V13.3785V13.3734V13.3683V13.3632V13.3581V13.3531V13.348V13.343V13.338V13.333V13.328V13.323V13.3181V13.3131V13.3082V13.3033V13.2985V13.2936V13.2887V13.2839V13.2791V13.2743V13.2695V13.2647V13.26V13.2553V13.2506V13.2459V13.2412V13.2365V13.2319V13.2272V13.2226V13.218V13.2135V13.2089V13.2044V13.1998V13.1953V13.1908V13.1864V13.1819V13.1775V13.1731V13.1687V13.1643V13.1599V13.1556V13.1512V13.1469V13.1426V13.1384V13.1341V13.1299V13.1256V13.1214V13.1173V13.1131V13.1089V13.1048V13.1007V13.0966V13.0925V13.0885V13.0844V13.0804V13.0764V13.0724V13.0685V13.0645V13.0606V13.0567V13.0528V13.049V13.0451V13.0413V13.0375V13.0337V13.0299V13.0261V13.0224V13.0187V13.015V13.0113V13.0077V13.004V12.8981V12.8134V12.8111V12.8088V12.8066V12.8044V12.8022V12.8V12.7978V12.7957V12.7936V12.7915V12.7894V12.7874V12.7854V12.7834V12.7814V12.7794V12.7775V12.7756V12.7737V12.7718V12.77V12.7682V12.7664V12.7646V12.7629V12.7611V12.7594V12.7577V12.7561V12.7545V12.7528V12.7513V12.7497V12.7481V12.7466V12.7451V12.7437V12.7422V12.7408V12.7394V12.738V12.7367V12.7353V12.734V12.7328V12.7315V12.7303V12.7291V12.7279V12.7267V12.7256V12.7245V12.7234V12.7223V12.7213V12.7202V12.7193V12.7183V12.7173V12.7164V12.7155V12.7147V12.7138V12.713V12.7122V12.7114V12.7107V12.71V12.7093V12.7086V12.7079V12.7073V12.7067V12.7062V12.7056V12.7051V12.7046V12.7041V12.7037V12.7032V12.7028V12.7025V12.7021V12.7018V12.7015V12.7012V12.701V12.7008V12.7006V12.7004V12.7003V12.7002V12.7001V12.7V12.7L23.3922 12.7H23.6422V12.45H23.3922H18.833H18.583V12.7H18.833L18.583 12.7V12.7V12.7001V12.7002V12.7003V12.7005V12.7007V12.7009V12.7012V12.7015V12.7018V12.7022V12.7025V12.7029V12.7034V12.7039V12.7043V12.7049V12.7054V12.706V12.7066V12.7073V12.708V12.7087V12.7094V12.7102V12.711V12.7118V12.7126V12.7135V12.7144V12.7154V12.7163V12.7173V12.7183V12.7194V12.7205V12.7216V12.7227V12.7239V12.7251V12.7263V12.7275V12.7288V12.7301V12.7314V12.7328V12.7342V12.7356V12.737V12.7385V12.74V12.7415V12.7431V12.7447V12.7463V12.7479V12.7496V12.7512V12.753V12.7547V12.7565V12.7582V12.7601V12.7619V12.7638V12.7657V12.7676V12.7696V12.7715V12.7735V12.7756V12.7776V12.7797V12.7818V12.7839V12.7861V12.7883V12.7905V12.7927V12.795V12.7972V12.7995V12.8019V12.8042V12.8066V12.809V12.8115V12.8139V12.8164V12.8189V12.8214V12.824V12.8266V12.8292V12.8318V12.8345V12.8371V12.8398V12.8426V12.8453V12.8481V12.8509V12.8537V12.8565V12.8594V12.8623V12.8652V12.8682V12.8711V12.8741V12.8771V12.8801V12.8832V12.8863V12.8894V12.8925V12.8956V12.8988V12.902V12.9052V12.9084V12.9117V12.915V12.9183V12.9216V12.9249V12.9283V12.9317V12.9351V12.9385V12.942V12.9455V12.949V12.9525V12.956V12.9596V12.9632V12.9668V12.9704V12.9741V12.9777V12.9814V12.9851V12.9889V12.9926V12.9964V13.0002V13.004V13.0078V13.0117V13.0156V13.0195V13.0234V13.0273V13.0313V13.0353V13.0393V13.0433V13.0473V13.0514V13.0554V13.0595V13.0636V13.0678V13.0719V13.0761V13.0803V13.0845V13.0887V13.093V13.0973V13.1016V13.1059V13.1102V13.1145V13.1189V13.1233V13.1277V13.1321V13.1365V13.141V13.1455V13.1499V13.1545V13.159V13.1635V13.1681V13.1727V13.1773V13.1819V13.1865V13.1912V13.1958V13.2005V13.2052V13.21V13.2147V13.2195V13.2242V13.229V13.2338V13.2386V13.2435V13.2483V13.2532V13.2581V13.263V13.2679V13.2729V13.2778V13.2828V13.2878V13.2928V13.2978V13.3028V13.3079V13.313V13.318V13.3231V13.3283V13.3334V13.3385V13.3437V13.3489V13.3541V13.3593V13.3645V13.3697V13.375V13.3803V13.3855V13.3908V13.3961V13.4015V13.4068V13.4122V13.4175V13.4229V13.4283V13.4337V13.4391V13.4446V13.45V13.4555V13.461V13.4665V13.472V13.4775V13.4831V13.4886V13.4942V13.4997V13.5053V13.5109V13.5166V13.5222V13.5278V13.5335V13.5392V13.5448V13.5505V13.5562V13.562V13.5677V13.5734V13.5792V13.585V13.5907V13.5965V13.6023V13.6082V13.614V13.6198V13.6257V13.6316V13.6374V13.6433V13.6492V13.6551V13.6611V13.667V13.6729V13.6789V13.6849V13.6908V13.6968V13.7028V13.7088V13.7149V13.7209V13.7269V13.733V13.7391V13.7451V13.7512V13.7573V13.7634V13.7696V13.7757V13.7818V13.788V13.7941V13.8003V13.8065V13.8127V13.8189V13.8251V13.8313V13.8375V13.8437V13.85V13.8562V13.8625V13.8688V13.875V13.8813V13.8876V13.8939V13.9003V13.9066V13.9129V13.9192V13.9256V13.932V13.9383V13.9447V13.9511V13.9575V13.9639V13.9703V13.9767V13.9831V13.9895V13.996V14.0024V14.0089V14.0153V14.0218V14.0283V14.0348V14.0413V14.0478V14.0543V14.0608V14.0673V14.0738V14.0804V14.0869V14.0934V14.1V14.1065V14.1131V14.1197V14.1263V14.1328V14.1394V14.146V14.1526V14.1592V14.1659V14.1725V14.1791V14.1857V14.1924V14.199V14.2057V14.2123V14.219V14.2256V14.2323V14.239V14.2457V14.2523V14.259V14.2657V14.2724V14.2791V14.2858V14.2926V14.2993V14.306V14.3127V14.3195V14.3262V14.3329V14.3397V14.3464V14.3532V14.3599V14.3667V14.3734V14.3802V14.387V14.3938V14.4005V14.4073V14.4141V14.4209V14.4277V14.4345V14.4413V14.4481V14.4549V14.4617V14.4685V14.4753V14.4821V14.4889V14.4957V14.5026V14.5094V14.5162V14.523V14.5299V14.5367V14.5435V14.5504V14.5572V14.564V14.5709V14.5777V14.5846V14.5914V14.5983V14.6051V14.612V14.6188V14.6257V14.6325V14.6394V14.6462V14.6531V14.6599V14.6668V14.6737V14.6805V14.6874V14.6942V14.7011V14.708V14.7148V14.7217V14.7286V14.756V14.8109V14.8383V14.852V14.8657V14.9205V14.9341V14.9478V14.9751V15.0296V15.0839V15.1109V15.1379V15.1917C18.583 16.215 19.2314 16.8955 19.832 17.3051C20.1347 17.5116 20.4357 17.657 20.6601 17.7507C20.7726 17.7977 20.8669 17.8321 20.9337 17.855C20.9672 17.8664 20.9938 17.875 21.0126 17.8809L21.0346 17.8876L21.0409 17.8895L21.0429 17.89L21.0435 17.8902L21.0438 17.8903C21.0439 17.8903 21.044 17.8903 21.1126 17.65ZM21.1126 17.65L21.1758 17.8918L21.1097 17.9091L21.044 17.8903L21.1126 17.65Z"/></mask><g mask="url(#mask2_91_29068)"><path id="Path 13" fill="#84CEFF" fill-rule="evenodd" d="M18.9712 15.9088L21.1462 14.4846L23.4332 16.0702V18.3271H18.9712V15.9088Z" clip-rule="evenodd" opacity="0.4"/><path id="Rectangle 3" fill="#006AC9" fill-rule="evenodd" d="M19.04 16.4126H23.0812V16.9126H19.04V16.4126Z" clip-rule="evenodd"/><path id="Rectangle 3_2" fill="#59C800" fill-rule="evenodd" d="M19.2476 16.9075H22.9778V17.1726H19.2476V16.9075Z" clip-rule="evenodd"/><path id="Rectangle 3_3" fill="#FFD800" fill-rule="evenodd" d="M19.2476 17.2373H22.9778V17.7373H19.2476V17.2373Z" clip-rule="evenodd"/><path id="Path 14" fill="#F7D85D" fill-rule="evenodd" d="M24.0673 16.5106L21.1533 14.5326L21.1533 11.8623H24.0673V16.5106Z" clip-rule="evenodd"/><path id="Rectangle 2" fill="#F5F6F6" fill-rule="evenodd" d="M20.4907 15.4224C20.4907 15.4224 20.5828 15.8473 20.6533 15.8473C20.7237 15.8473 20.8511 15.4224 20.8511 15.4224C20.8511 15.4224 20.8662 15.8473 20.9371 15.8473C21.008 15.8473 20.9992 15.4912 21.1124 15.4224C21.1534 15.3975 21.2052 15.8451 21.2682 15.8473C21.3211 15.8491 21.4504 15.4224 21.4504 15.4224C21.4504 15.4224 21.4895 15.8473 21.5507 15.8473C21.6118 15.8473 21.7341 15.4224 21.7341 15.4224V16.4949H20.4907V15.4224Z" clip-rule="evenodd"/><path id="Oval 2" fill="#892E2E" fill-rule="evenodd" d="M21.1125 16.8401C21.742 16.8401 22.2523 16.7444 22.2523 16.6263C22.2523 16.5083 21.742 16.4126 21.1125 16.4126C20.483 16.4126 19.9727 16.5083 19.9727 16.6263C19.9727 16.7444 20.483 16.8401 21.1125 16.8401Z" clip-rule="evenodd"/><path id="Path 2_2" fill="#A46031" d="M19.0757 13.104L19.31 12.9414L20.8859 14.3809L20.6516 14.5435L19.0757 13.104Z"/><path id="Path 3" fill="#892E2E" d="M19.329 14.7674L19.0801 14.6191L20.6126 12.988L20.8615 13.1363L19.329 14.7674Z"/><path id="Path 2_3" fill="#A46031" d="M21.459 13.3181L21.6933 13.189L23.2692 14.332L23.0349 14.4611L21.459 13.3181Z"/><path id="Path 3_2" fill="#F5F6F6" d="M21.7887 14.4858L21.4971 14.3097L22.996 13.2354L23.3156 13.4693L21.7887 14.4858Z"/></g></g><g id="ribbon"><g id="Group 2"><path id="Rectangle 4" fill="#6699FF" fill-rule="evenodd" d="M19.3877 18.5347L20.1194 18.7384V19.2999H19.3877V18.5347Z" clip-rule="evenodd"/><path id="Rectangle 4_2" fill="#6699FF" fill-rule="evenodd" d="M18.8652 17.387L19.2769 17.5907V18.1522H18.8652V17.387Z" clip-rule="evenodd"/></g><g id="Group 2_2"><path id="Rectangle 4_3" fill="#6699FF" fill-rule="evenodd" d="M22.7334 18.5347L22.0017 18.7384V19.2999H22.7334V18.5347Z" clip-rule="evenodd"/><path id="Rectangle 4_4" fill="#6699FF" fill-rule="evenodd" d="M23.2559 17.387L22.8442 17.5907V18.1522H23.2559V17.387Z" clip-rule="evenodd"/></g><g id="ribbon_2"><path id="Path 17" fill="white" d="M18.4666 18.5761C18.3327 18.5761 18.2212 18.5789 18.0937 18.5843C17.7847 18.5975 17.7653 18.5972 17.6801 18.566C17.6288 18.5473 17.5777 18.5171 17.5041 18.4634C17.3296 18.336 17.1416 18.0435 16.9375 17.5846L16.9381 17.5653C17.19 17.0812 17.708 17.0212 18.4785 17.3801C18.6814 17.4746 19.2732 17.7605 19.2683 17.7582C19.5375 17.8862 19.7261 17.9682 19.9117 18.0346C20.2962 18.1722 20.6588 18.2347 21.1238 18.2347C21.4031 18.2347 21.7265 18.1642 22.1039 18.031C22.3219 17.954 22.5488 17.86 22.8255 17.7351C22.862 17.7187 23.441 17.451 23.5842 17.3897C23.8348 17.2825 24.0001 17.2306 24.114 17.2306C24.145 17.2306 24.1691 17.2305 24.2292 17.2302C24.3333 17.2296 24.3827 17.2296 24.4428 17.2302C24.9982 17.2362 25.2723 17.3185 25.2723 17.5756C25.2723 17.8185 25.0946 18.1482 24.7402 18.5668L24.723 18.5759C24.0219 18.6599 23.6153 18.6599 23.4903 18.5711C23.4562 18.5469 23.3626 18.5579 23.1908 18.6068C23.113 18.629 22.6962 18.7615 22.5674 18.7994C22.0313 18.9574 21.5719 19.0423 21.104 19.0423C20.3913 19.0423 19.6114 18.7966 18.7641 18.3058C18.9177 18.4793 18.8205 18.5761 18.4666 18.5761Z"/><path id="Path 17_2" fill="#666666" fill-rule="evenodd" d="M18.0937 18.5843C18.2212 18.5789 18.3327 18.5761 18.4666 18.5761C18.8205 18.5761 18.9177 18.4793 18.7641 18.3058C19.6114 18.7966 20.3913 19.0423 21.104 19.0423C21.5719 19.0423 22.0313 18.9574 22.5674 18.7994C22.6329 18.7801 22.7728 18.7364 22.9048 18.6952C23.0324 18.6553 23.1526 18.6177 23.1908 18.6068C23.3626 18.5579 23.4562 18.5469 23.4903 18.5711C23.6153 18.6599 24.0219 18.6599 24.723 18.5759L24.7402 18.5668C25.0946 18.1482 25.2723 17.8185 25.2723 17.5756C25.2723 17.3185 24.9982 17.2362 24.4428 17.2302C24.3827 17.2296 24.3333 17.2296 24.2292 17.2302C24.1691 17.2305 24.145 17.2306 24.114 17.2306C24.0001 17.2306 23.8348 17.2825 23.5842 17.3897C23.471 17.4382 23.0853 17.6156 22.9108 17.6959C22.8646 17.7172 22.8332 17.7317 22.8255 17.7351C22.5488 17.86 22.3219 17.954 22.1039 18.031C21.7265 18.1642 21.4031 18.2347 21.1238 18.2347C20.6588 18.2347 20.2962 18.1722 19.9117 18.0346C19.7261 17.9682 19.5375 17.8862 19.2683 17.7582C19.2732 17.7605 18.6814 17.4746 18.4785 17.3801C17.708 17.0212 17.19 17.0812 16.9381 17.5653L16.9375 17.5846C17.1416 18.0435 17.3296 18.336 17.5041 18.4634C17.5777 18.5171 17.6288 18.5473 17.6801 18.566C17.7653 18.5972 17.7847 18.5975 18.0937 18.5843ZM17.6994 18.5216C17.6538 18.5049 17.6065 18.477 17.5366 18.4259C17.3724 18.3061 17.1894 18.0225 16.9902 17.5764C17.2288 17.13 17.7125 17.077 18.4547 17.4227C18.6573 17.517 19.2487 17.8028 19.2441 17.8006C19.5148 17.9294 19.705 18.012 19.8926 18.0791C20.2832 18.2189 20.6522 18.2825 21.1237 18.2825C21.4105 18.2825 21.7398 18.2107 22.1227 18.0756C22.3424 17.998 22.5706 17.9034 22.8486 17.778C22.8564 17.7744 22.8884 17.7597 22.9353 17.7381C23.1105 17.6575 23.494 17.4811 23.6063 17.433C23.8499 17.3288 24.0104 17.2784 24.114 17.2784C24.1451 17.2784 24.1692 17.2783 24.2294 17.278C24.3333 17.2774 24.3825 17.2774 24.4422 17.278C24.9682 17.2837 25.22 17.3593 25.22 17.5756C25.22 17.8037 25.0489 18.1225 24.7054 18.5297C24.0288 18.6103 23.6302 18.6099 23.5222 18.5333C23.468 18.4947 23.3663 18.5067 23.1752 18.5612C23.1363 18.5723 23.0148 18.6102 22.8863 18.6504C22.7548 18.6914 22.6161 18.7348 22.5513 18.7539C22.02 18.9105 21.5655 18.9944 21.1039 18.9944C20.3165 18.9944 19.4424 18.6887 18.4815 18.0764L18.4512 18.1153C18.8898 18.4082 18.8898 18.5282 18.4666 18.5282C18.3317 18.5282 18.2195 18.531 18.0912 18.5365C17.7932 18.5492 17.7742 18.5489 17.6994 18.5216Z" clip-rule="evenodd"/><path id="Path 18" fill="#565757" d="M17.6571 17.8084L17.5815 17.7423C17.752 17.5792 17.9778 17.5381 18.2498 17.618C18.3556 17.6491 19.0447 18.0031 19.2288 18.0862C19.9014 18.3897 20.5416 18.5592 21.2217 18.5592C22.1994 18.5592 23.1438 18.2849 24.0523 17.7378C24.3957 17.4903 24.6105 17.4903 24.6105 17.7754H24.5059C24.5059 17.6053 24.405 17.6053 24.1134 17.8153C23.1847 18.3748 22.2205 18.6549 21.2217 18.6549C20.5234 18.6549 19.8683 18.4815 19.1825 18.172C18.9896 18.085 18.3118 17.7367 18.2178 17.7091C17.9821 17.6398 17.7983 17.6733 17.6571 17.8084Z"/></g></g><g id="tree"><path id="Combined Shape" fill="#984800" fill-rule="evenodd" d="M21.5518 8.9436L21.3482 8.9445C21.3532 9.68703 21.1661 10.1561 20.8018 10.3575C20.7731 10.3734 20.7371 10.3924 20.6977 10.4127C20.6632 10.3302 20.6185 10.2306 20.5613 10.1059L20.5432 10.0664C20.327 9.59343 20.2787 9.37528 20.3898 9.317L20.2796 9.17737C20.0348 9.30589 20.0877 9.54518 20.3525 10.1244L20.3707 10.1641C20.4365 10.3075 20.4849 10.4164 20.5198 10.5028L20.4979 10.5138C20.487 10.5193 20.4762 10.5246 20.4657 10.5299C20.3599 10.4821 20.2375 10.4581 20.098 10.4581C19.4504 10.4581 19.0017 10.3073 18.7409 10.0089L18.5752 10.1053C18.8784 10.4523 19.3897 10.6241 20.098 10.6241C20.1558 10.6241 20.21 10.6303 20.2607 10.6427C20.1575 10.7208 20.1437 10.8027 20.1437 11.0843C20.1437 11.2605 20.1865 11.4943 20.272 11.7866C20.2062 11.7117 20.1449 11.6763 20.0826 11.6763V11.8424C20.0736 11.8424 20.0677 11.8412 20.0653 11.8407L20.0644 11.8405C20.0705 11.8446 20.0792 11.852 20.0895 11.8627C20.1179 11.8922 20.1526 11.9397 20.1923 12.0044C20.275 12.1393 20.3766 12.3444 20.4964 12.6187L20.5591 12.6005L20.564 12.6128L20.5976 12.6039V12.6089H20.662L20.663 12.6549L20.8665 12.6512C20.866 12.6336 20.8656 12.6163 20.8654 12.5991L20.9035 12.6029C20.9449 12.3317 20.969 12.0855 20.9755 11.8648C21.0469 11.6892 21.1523 11.5622 21.2902 11.4831C21.6376 11.2839 21.8415 11.0924 21.8972 10.9024L21.6993 10.8638C21.6576 11.006 21.4838 11.1692 21.1732 11.3472C21.0965 11.3912 21.0286 11.4455 20.9694 11.5099C20.9498 11.237 20.8941 11.0163 20.8012 10.8489V10.8C20.8012 10.7326 20.79 10.6668 20.7603 10.5768C20.8181 10.5473 20.8732 10.5186 20.916 10.495C21.35 10.255 21.557 9.73589 21.5518 8.9436ZM20.4523 10.7319C20.5078 10.7731 20.5563 10.8263 20.5976 10.8916V12.139C20.4306 11.6687 20.3473 11.3163 20.3473 11.0843C20.3473 10.8243 20.3556 10.7914 20.4234 10.7476C20.4276 10.7448 20.4377 10.7394 20.4523 10.7319ZM20.0623 11.8393L20.0633 11.8398L20.0645 11.8408L20.0623 11.8393Z" clip-rule="evenodd"/><path id="Combined Shape_2" fill="#247805" fill-rule="evenodd" d="M22.1062 9.0853C21.9523 9.12546 21.7548 9.1354 21.5452 9.10588C21.3133 9.07324 21.1124 8.9988 20.9785 8.90612C20.9867 8.92919 20.9908 8.95284 20.9903 8.9769C20.9858 9.20611 20.5722 9.38557 20.0664 9.37772C19.5606 9.36987 19.1543 9.17769 19.1588 8.94848C19.1633 8.71926 19.5769 8.53981 20.0827 8.54766C20.3869 8.55238 20.6551 8.62378 20.8197 8.72982C20.8052 8.69465 20.8005 8.65899 20.8068 8.62369C20.8431 8.4199 21.2326 8.30539 21.6767 8.36791C22.1208 8.43043 22.4514 8.64632 22.4151 8.8501C22.4085 8.88709 22.3902 8.92114 22.3622 8.95172C22.5809 8.89575 22.882 8.90895 23.1895 9.00307C23.721 9.16572 24.0701 9.50844 23.9693 9.76855C23.8686 10.0287 23.3561 10.1077 22.8247 9.94502C22.7607 9.92545 22.6994 9.90327 22.6412 9.87894C22.4979 10.0767 22.0956 10.1812 21.6501 10.1185C21.1227 10.0443 20.7344 9.76382 20.7828 9.4921C20.8313 9.22039 21.298 9.06031 21.8254 9.13456C21.9018 9.14532 21.9753 9.16041 22.045 9.17918C22.0584 9.14464 22.0791 9.1133 22.1062 9.0853ZM19.0575 8.98399C19.17 9.16445 18.9424 9.46782 18.5492 9.66159C18.1559 9.85536 17.7459 9.86615 17.6333 9.68569C17.5208 9.50524 17.7484 9.20187 18.1416 9.0081C18.5349 8.81433 18.9449 8.80354 19.0575 8.98399ZM20.2875 10.1181C20.2825 10.3702 19.7774 10.5669 19.1592 10.5573C18.541 10.5477 18.0439 10.3355 18.0489 10.0834C18.0538 9.83123 18.559 9.63461 19.1771 9.6442C19.7953 9.65379 20.2924 9.86596 20.2875 10.1181ZM19.5752 11.8818C20.1331 11.8209 20.5598 11.5871 20.5284 11.3595C20.497 11.132 20.0193 10.9969 19.4614 11.0578C18.9035 11.1187 18.4768 11.3525 18.5082 11.58C18.5397 11.8076 19.0174 11.9427 19.5752 11.8818ZM21.6329 12.1855C22.1258 12.2866 22.5771 12.1694 22.6409 11.9237C22.7047 11.678 22.3569 11.3968 21.864 11.2957C21.3711 11.1945 20.9198 11.3117 20.856 11.5574C20.7922 11.8032 21.14 12.0843 21.6329 12.1855ZM22.0677 11.2527C22.8126 11.3814 23.4602 11.2851 23.5144 11.0375C23.5685 10.79 23.0086 10.485 22.2638 10.3563C21.5189 10.2276 20.8712 10.324 20.8171 10.5715C20.763 10.819 21.3229 11.124 22.0677 11.2527Z" clip-rule="evenodd"/></g><g id="left"><path id="Path 15" fill="white" fill-rule="evenodd" d="M16.7758 12.9392C16.7758 12.9392 16.4238 15.9094 16.4238 16.3119C16.4238 16.7144 17.0716 16.3119 17.0716 16.3119C17.0716 16.3119 17.1667 14.8935 17.3873 14.3666C17.608 13.8396 17.7121 14.4185 17.7121 14.7262C17.7121 15.0338 17.7121 16.473 17.7121 16.473C17.7121 16.473 18.5182 16.5705 18.5182 16.3119C18.5182 16.0533 18.1828 12.9392 18.1828 12.9392H16.9635H16.7758Z" clip-rule="evenodd"/><path id="Path 15_2" fill="#979797" fill-rule="evenodd" d="M16.7312 12.8975L16.7267 12.9351C16.4918 14.9177 16.3745 16.0414 16.3745 16.3119C16.3745 16.6304 16.6429 16.6304 17.1013 16.3455L17.12 16.3339L17.1213 16.3143C17.1845 15.3724 17.2892 14.727 17.4343 14.3805C17.5217 14.1717 17.5471 14.1624 17.5864 14.2485C17.6324 14.3491 17.6628 14.5543 17.6628 14.7262V16.5092L17.7053 16.5143C18.2707 16.5828 18.568 16.5234 18.568 16.3119C18.568 16.201 18.5098 15.5892 18.411 14.6305L18.4001 14.525C18.3634 14.1702 18.3241 13.7961 18.2848 13.4261L18.2468 13.0698L18.2362 12.9705L18.2324 12.9355L18.2283 12.8975H16.7312ZM17.0237 16.2899C16.632 16.5301 16.4736 16.5268 16.4736 16.3119C16.4736 16.0474 16.5895 14.9352 16.8209 12.981H18.1378L18.1481 13.0773L18.1861 13.4336C18.2254 13.8035 18.2647 14.1775 18.3014 14.5322L18.3123 14.6377C18.4103 15.5894 18.4689 16.205 18.4689 16.3119C18.4689 16.4416 18.2421 16.4905 17.7619 16.4366V14.7262C17.7619 14.5449 17.7302 14.3306 17.6789 14.2184C17.5942 14.0332 17.4528 14.0853 17.3408 14.3527C17.1928 14.7063 17.0875 15.3512 17.0237 16.2899Z" clip-rule="evenodd"/><path id="Path 16" fill="#FF863B" fill-rule="evenodd" d="M15.6074 11.9176C15.6074 11.9176 15.8839 12.8021 16.0062 12.8021C16.1286 12.8021 16.8714 12.2593 16.8714 12.2593V12.996H18.2554V12.6697L18.433 12.996L18.675 12.8954L19.0937 12.4568H18.675C18.675 12.4568 18.5534 11.7524 18.5534 11.641C18.5534 11.5296 18.5583 11.3092 18.2554 11.2295C17.9526 11.1497 17.804 11.0085 17.804 11.0085C17.804 11.0085 18.4562 10.1782 17.9596 10.1782C17.463 10.1782 17.2382 10.2847 17.2382 10.2847C17.2382 10.2847 17.2382 10.7776 17.2382 10.8931C17.2382 11.0085 16.5257 10.8718 16.5257 11.2295C16.5257 11.5871 16.1935 11.9176 16.1935 11.9176L16.109 11.678L15.6074 11.9176Z" clip-rule="evenodd"/><path id="Oval 3" fill="black" fill-rule="evenodd" d="M17.7002 10.3829C17.9738 10.3829 18.1957 10.286 18.1957 10.1664C18.1957 10.0469 17.9738 9.94995 17.7002 9.94995C17.4265 9.94995 17.2046 10.0469 17.2046 10.1664C17.2046 10.286 17.4265 10.3829 17.7002 10.3829Z" clip-rule="evenodd"/><path id="Path 5" fill="#740000" d="M15.2032 12.2598L14.9795 12.0947C15.4104 11.6799 15.8899 11.3782 16.4175 11.1909C16.917 11.0136 17.5699 10.7305 18.3748 10.342L18.5226 10.5595C17.7081 10.9526 17.0453 11.24 16.5329 11.4219C16.0485 11.5939 15.6054 11.8727 15.2032 12.2598Z"/><path id="Path 6" fill="#F9FCFF" fill-rule="evenodd" stroke="#6C6C6C" stroke-width="0.5" d="M18.3652 10.433L18.5531 11.2172L19.387 10.8251L18.7302 10.1763L18.3652 10.433Z" clip-rule="evenodd"/></g><g id="right"><path id="Path 15_3" fill="white" fill-rule="evenodd" d="M25.3413 13.3071C25.3413 13.3071 25.6904 16.4071 25.6904 16.8272C25.6904 17.2473 25.0479 16.8272 25.0479 16.8272C25.0479 16.8272 24.9535 15.3468 24.7347 14.7969C24.5159 14.2469 24.4126 14.8511 24.4126 15.1722C24.4126 15.4933 24.4126 16.9953 24.4126 16.9953C24.4126 16.9953 23.613 17.0971 23.613 16.8272C23.613 16.5573 23.9457 13.3071 23.9457 13.3071H25.1551H25.3413Z" clip-rule="evenodd"/><path id="Path 15_4" fill="#979797" fill-rule="evenodd" d="M25.3859 13.2634L25.3904 13.3027C25.6234 15.372 25.7397 16.5448 25.7397 16.8271C25.7397 17.1595 25.4735 17.1595 25.0189 16.8622L25.0003 16.85L24.999 16.8296C24.9363 15.8465 24.8324 15.1729 24.6885 14.8113C24.6018 14.5934 24.5766 14.5836 24.5376 14.6735C24.492 14.7785 24.4619 14.9926 24.4619 15.1721V17.033L24.4197 17.0384C23.8589 17.1098 23.564 17.0478 23.564 16.8271C23.564 16.7114 23.6217 16.0728 23.7197 15.0722L23.7305 14.962C23.7669 14.5918 23.8059 14.2014 23.8449 13.8152L23.8826 13.4433L23.8931 13.3397L23.8969 13.3031L23.9009 13.2634H25.3859ZM25.0958 16.8041C25.4843 17.0549 25.6415 17.0514 25.6415 16.8271C25.6415 16.551 25.5265 15.3903 25.297 13.3506H23.9908L23.9805 13.4511L23.9428 13.823C23.9039 14.2091 23.8649 14.5994 23.8285 14.9696L23.8177 15.0798C23.7204 16.073 23.6623 16.7155 23.6623 16.8271C23.6623 16.9624 23.8873 17.0135 24.3636 16.9573V15.1721C24.3636 14.9829 24.3951 14.7592 24.4459 14.6421C24.5299 14.4488 24.6702 14.5031 24.7812 14.7823C24.9281 15.1513 25.0325 15.8244 25.0958 16.8041Z" clip-rule="evenodd"/><path id="Path 16_2" fill="#824028" fill-rule="evenodd" d="M26.5244 12.1781C26.5244 12.1781 26.2502 13.1013 26.1288 13.1013C26.0074 13.1013 25.2706 12.5348 25.2706 12.5348V13.3038H23.8978V12.9632L23.7217 13.3038L23.4816 13.1988L23.0663 12.7409H23.4816C23.4816 12.7409 23.6023 12.0058 23.6023 11.8895C23.6023 11.7732 23.5974 11.5432 23.8978 11.46C24.1982 11.3767 24.3456 11.2293 24.3456 11.2293C24.3456 11.2293 23.6987 10.3628 24.1913 10.3628C24.6839 10.3628 24.9069 10.4739 24.9069 10.4739C24.9069 10.4739 24.9069 10.9884 24.9069 11.1089C24.9069 11.2293 25.6135 11.0867 25.6135 11.46C25.6135 11.8333 25.9431 12.1781 25.9431 12.1781L26.0269 11.9281L26.5244 12.1781Z" clip-rule="evenodd"/><path id="Oval 3_2" fill="black" fill-rule="evenodd" d="M24.4489 10.5763C24.1774 10.5763 23.9573 10.4752 23.9573 10.3504C23.9573 10.2257 24.1774 10.1245 24.4489 10.1245C24.7204 10.1245 24.9404 10.2257 24.9404 10.3504C24.9404 10.4752 24.7204 10.5763 24.4489 10.5763Z" clip-rule="evenodd"/><path id="Path 12" fill="#BA611F" d="M27.216 12.3457L24.2092 10.9526C24.2092 10.9526 24.1536 10.4847 23.5728 10.3438C22.9921 10.2029 22.529 9.98486 22.529 9.98486L22.2646 10.3438C22.2646 10.3438 21.7936 10.2333 23.5728 10.9526C25.352 11.672 23.5058 10.5627 24.0116 10.9526L27.216 12.3457Z"/></g></g></g></g></g></g></g></g></g><defs><filter id="filter0_dd_91_29068" width="42" height="30" x="0" y="0" color-interpolation-filters="sRGB" filterUnits="userSpaceOnUse"><feFlood flood-opacity="0" result="BackgroundImageFix"/><feColorMatrix in="SourceAlpha" result="hardAlpha" values="0 0 0 0 0 0 0 0 0 0 0 0 0 0 0 0 0 0 127 0"/><feOffset dy="1"/><feGaussianBlur stdDeviation="1"/><feColorMatrix values="0 0 0 0 0.0627451 0 0 0 0 0.0941176 0 0 0 0 0.156863 0 0 0 0.06 0"/><feBlend in2="BackgroundImageFix" result="effect1_dropShadow_91_29068"/><feColorMatrix in="SourceAlpha" result="hardAlpha" values="0 0 0 0 0 0 0 0 0 0 0 0 0 0 0 0 0 0 127 0"/><feOffset dy="1"/><feGaussianBlur stdDeviation="1.5"/><feColorMatrix values="0 0 0 0 0.0627451 0 0 0 0 0.0941176 0 0 0 0 0.156863 0 0 0 0.1 0"/><feBlend in2="effect1_dropShadow_91_29068" result="effect2_dropShadow_91_29068"/><feBlend in="SourceGraphic" in2="effect2_dropShadow_91_29068" result="shape"/></filter><clipPath id="clip0_91_29068"><rect width="36" height="24" x="3" y="2" fill="white" rx="2"/></clipPath></defs></svg>