<svg xmlns="http://www.w3.org/2000/svg" fill="none" aria-hidden="true" viewBox="0 0 42 30"><g filter="url(#a)"><g clip-path="url(#b)"><mask id="c" width="36" height="24" x="3" y="2" maskUnits="userSpaceOnUse" style="mask-type:alpha"><path fill="#fff" d="M3 2h36v24H3z"/></mask><g mask="url(#c)"><path fill="#032EA1" d="M3 2h36v24H3V2Z"/><path fill="#E00025" d="M3 8h36v12H3V8Z"/><path fill="#fff" stroke="#000" stroke-linejoin="bevel" stroke-width=".06" d="M17.197 13.31h7.682v2.628h-7.682V13.31Z"/><path fill="#fff" fill-rule="evenodd" d="M24.879 13.85h-7.682v.276h7.682v-.276Zm-7.682.42h7.682v.3h-7.682v-.3Zm7.29.486h.237v.99h-.237v-.99Z" clip-rule="evenodd"/><path fill="#000" d="M17.197 13.85v-.03l-.03.03h.03Zm7.682 0h.03l-.03-.03v.03Zm-7.682.276h-.03l.03.03v-.03Zm7.682 0v.03l.03-.03h-.03Zm0 .144h.03l-.03-.03v.03Zm-7.682 0v-.03l-.03.03h.03Zm7.682.3v.03l.03-.03h-.03Zm-7.682 0h-.03l.03.03v-.03Zm7.527.186h.03l-.03-.03v.03Zm-.237 0v-.03l-.03.03h.03Zm.237.99v.03l.03-.03h-.03Zm-.237 0h-.03l.03.03v-.03Zm-7.29-1.866h7.682v-.06h-7.682v.06Zm.03.246v-.276h-.06v.276h.06Zm7.652-.03h-7.682v.06h7.682v-.06Zm-.03-.246v.276h.06v-.276h-.06Zm.03.39h-7.682v.06h7.682v-.06Zm.03.33v-.3h-.06v.3h.06Zm-7.712.03h7.682v-.06h-7.682v.06Zm-.03-.33v.3h.06v-.3h-.06Zm7.556.456h-.236v.06h.237v-.06Zm.03 1.02v-.99h-.06v.99h.06Zm-.266.03h.237v-.06h-.237v.06Zm-.03-1.02v.99h.06v-.99h-.06Z"/><path fill="#fff" stroke="#000" stroke-linejoin="bevel" stroke-width=".06" d="M17.197 13.442h7.682v.258h-7.682v-.258Z"/><path fill="#fff" fill-rule="evenodd" d="M17.5 14.756h-.235v.99h.236v-.99Zm1.722 0h.243v.99h-.243v-.99Zm3.308 0h.243v.99h-.243v-.99Zm-4.793 0h.237v.99h-.237v-.99Zm.743 0h-.237v.99h.237v-.99Zm.27 0h.236v.99h-.236v-.99Zm4.482 0h-.243v.99h.243v-.99Zm.263 0h.243v.99h-.243v-.99Zm.75 0H24v.99h.243v-.99Z" clip-rule="evenodd"/><path fill="#000" d="M17.265 14.756v-.03l-.03.03h.03Zm.236 0h.03l-.03-.03v.03Zm-.236.99h-.03l.03.03v-.03Zm.236 0v.03l.03-.03h-.03Zm1.964-.99h.03l-.03-.03v.03Zm-.243 0v-.03l-.03.03h.03Zm.243.99v.03l.03-.03h-.03Zm-.243 0h-.03l.03.03v-.03Zm3.55-.99h.03l-.03-.03v.03Zm-.242 0v-.03l-.03.03h.03Zm.243.99v.03l.03-.03h-.03Zm-.243 0h-.03l.03.03v-.03Zm-4.556-.99h.03l-.03-.03v.03Zm-.237 0v-.03l-.03.03h.03Zm.237.99v.03l.03-.03h-.03Zm-.237 0h-.03l.03.03v-.03Zm.506-.99v-.03l-.03.03h.03Zm.237 0h.03l-.03-.03v.03Zm-.237.99h-.03l.03.03v-.03Zm.237 0v.03l.03-.03h-.03Zm.506-.99h.03l-.03-.03v.03Zm-.236 0v-.03l-.03.03h.03Zm.236.99v.03l.03-.03h-.03Zm-.236 0h-.03l.03.03v-.03Zm4.239-.99v-.03l-.03.03h.03Zm.243 0h.03l-.03-.03v.03Zm-.243.99h-.03l.03.03v-.03Zm.243 0v.03l.03-.03h-.03Zm.506-.99h.03l-.03-.03v.03Zm-.243 0v-.03l-.03.03h.03Zm.243.99v.03l.03-.03h-.03Zm-.243 0h-.03l.03.03v-.03Zm.506-.99v-.03l-.03.03h.03Zm.243 0h.03l-.03-.03v.03Zm-.243.99h-.03l.03.03v-.03Zm.243 0v.03l.03-.03h-.03Zm-6.98-.96h.237v-.06h-.236v.06Zm.03.96v-.99h-.06v.99h.06Zm.207-.03h-.236v.06h.236v-.06Zm-.03-.96v.99h.06v-.99h-.06Zm1.994-.03h-.243v.06h.243v-.06Zm.03 1.02v-.99h-.06v.99h.06Zm-.273.03h.243v-.06h-.243v.06Zm-.03-1.02v.99h.06v-.99h-.06Zm3.58-.03h-.242v.06h.243v-.06Zm.03 1.02v-.99h-.06v.99h.06Zm-.272.03h.243v-.06h-.243v.06Zm-.03-1.02v.99h.06v-.99h-.06Zm-4.526-.03h-.237v.06h.237v-.06Zm.03 1.02v-.99h-.06v.99h.06Zm-.267.03h.237v-.06h-.237v.06Zm-.03-1.02v.99h.06v-.99h-.06Zm.536.03h.237v-.06h-.237v.06Zm.03.96v-.99h-.06v.99h.06Zm.207-.03h-.237v.06h.237v-.06Zm-.03-.96v.99h.06v-.99h-.06Zm.536-.03h-.236v.06h.236v-.06Zm.03 1.02v-.99h-.06v.99h.06Zm-.266.03h.236v-.06h-.236v.06Zm-.03-1.02v.99h.06v-.99h-.06Zm4.269.03h.243v-.06h-.243v.06Zm.03.96v-.99h-.06v.99h.06Zm.213-.03h-.243v.06h.243v-.06Zm-.03-.96v.99h.06v-.99h-.06Zm.536-.03h-.243v.06h.243v-.06Zm.03 1.02v-.99h-.06v.99h.06Zm-.273.03h.243v-.06h-.243v.06Zm-.03-1.02v.99h.06v-.99h-.06Zm.536.03h.243v-.06h-.243v.06Zm.03.96v-.99h-.06v.99h.06Zm.213-.03h-.243v.06h.243v-.06Zm-.03-.96v.99h.06v-.99h-.06Z"/><path fill="#fff" stroke="#000" stroke-width=".06" d="M14.193 16.07a.58.58 0 0 0 .297-.318h13.035a.58.58 0 0 0 .297.318H14.193Z"/><path fill="#fff" fill-rule="evenodd" d="M20.997 9.056c-.162.006-.155.252-.155.252h.304s.007-.252-.149-.252ZM20 12.248v.33h1.998v-.33c.003-.09.058-.135.107-.177.043-.035.082-.067.082-.123 0 0 .027-.18-.034-.264-.068.24-.203.198-.203.096 0-.073.056-.146.173-.298l.057-.074c.054-.072.02-.282-.047-.36-.027.186-.061.27-.149.27-.054 0-.101-.03-.101-.12 0-.073.035-.124.071-.177a.515.515 0 0 0 .064-.11.276.276 0 0 0-.068-.319l-.014.085c-.02.118-.028.167-.1.167-.17-.045-.023-.256.03-.333l.01-.015c.034-.114-.067-.204-.067-.204-.054.156-.068.174-.135.156-.081-.018-.068-.12.027-.204.06-.054.054-.138-.014-.198-.067.12-.175.102-.162.03l.06-.258H20.41l.054.264c-.006.072-.087.078-.155-.036-.067.06-.074.138-.013.198.094.084.108.186.027.204-.068.018-.081.006-.135-.156 0 0-.108.138-.068.204l.012.017c.054.078.197.281.029.331-.073 0-.08-.049-.1-.167a3.617 3.617 0 0 0-.015-.085.276.276 0 0 0-.074.318c.017.04.04.072.06.104.039.056.075.108.075.184 0 .09-.04.12-.095.12-.088 0-.121-.09-.148-.27-.068.078-.102.288-.048.354l.035.047c.13.176.188.254.188.331 0 .102-.128.144-.202-.096-.054.084-.027.264-.027.264 0 .055.04.087.082.122.051.042.107.087.107.178Zm.486-2.43-.027-.186h1.073l-.027.186h-1.02Zm.054-.342.013.15h.878l.02-.15h-.911Zm.168-.006-.02-.156h.607l-.006.156h-.58Zm1.89 6.3c0 .126.203.258.338.3H19.12c.135-.042.27-.174.27-.3v-1.458l-.169-.204h3.55l-.175.204v1.458Z" clip-rule="evenodd"/><path fill="#000" d="m20.842 9.308-.03.001.001.03h.03v-.03Zm.155-.252v-.03.03Zm.149.252v.03h.03V9.31h-.03Zm-1.147 3.27h-.03v.03h.03v-.03Zm1.998 0v.03h.03v-.03h-.03Zm0-.33-.03-.001v.001h.03Zm.107-.177-.02-.023.02.023Zm.082-.123-.03-.004v.004h.03Zm-.034-.264.024-.017-.036-.05-.017.059.029.008Zm-.03-.202.024.019-.024-.019Zm.057-.074.024.018-.024-.018Zm-.047-.36.022-.02-.043-.05-.01.066.03.004Zm-.179-.027-.024-.017.024.017Zm.064-.11-.027-.013-.001.002.028.01Zm-.068-.319.02-.022-.039-.037-.01.054.03.005Zm-.014.085.03.005-.03-.005Zm-.1.167-.008.03h.008v-.03Zm.03-.333.025.017-.025-.017Zm.01-.015.026.018.003-.01-.029-.008Zm-.067-.204.02-.022-.034-.03-.015.042.029.01Zm-.135.156.007-.029-.007.03Zm.027-.204-.02-.022.02.022Zm-.014-.198.02-.022-.028-.025-.018.032.026.015Zm-.162.03-.03-.007v.002l.03.005Zm.06-.258.03.007.009-.037h-.038v.03Zm-1.174 0v-.03h-.036l.007.036.03-.006Zm.054.264.032.003-.002-.009-.03.006Zm-.155-.036.026-.015-.019-.031-.027.024.02.022Zm-.013.198-.021.021v.002l.02-.023Zm.027.204-.007-.03-.001.001.008.03Zm-.135-.156.028-.01-.018-.052-.034.044.024.018Zm-.068.204-.026.016.002.001.024-.017Zm.012.017-.025.017.025-.017Zm.029.331v.031l.008-.002-.008-.029Zm-.1-.167.03-.005-.03.005Zm0 0-.03.005.03-.005Zm0 0 .03-.005-.03.005Zm0 0 .03-.005-.03.005Zm0 0-.03.005.03-.005Zm-.015-.085.03-.005-.01-.053-.04.036.02.022Zm-.074.318-.028.012.028-.012Zm.06.104.026-.017-.025.017Zm-.168.034.03-.004-.01-.065-.043.05.023.02Zm-.048.354.024-.018-.024.018Zm.035.047-.024.018.024-.018Zm-.014.235.028-.009-.019-.061-.035.054.026.016Zm-.027.264h.03v-.004l-.03.004Zm.082.122.02-.023-.02.023Zm.566-2.438v-.03h-.035l.005.034.03-.004Zm.027.186-.03.004.004.026h.026v-.03Zm1.046-.186.03.004.005-.034h-.035v.03Zm-.027.186v.03h.026l.003-.026-.03-.004Zm-.952-.192-.03.003.003.027h.027v-.03Zm-.013-.15v-.03h-.033l.003.033.03-.003Zm.89.15v.03h.027l.003-.026-.03-.004Zm.02-.15.03.004.005-.034h-.034v.03Zm-.762-.162v-.03h-.034l.004.034.03-.004Zm.02.156-.03.004.004.026h.026v-.03Zm.587-.156.03.001.002-.03h-.032v.03Zm-.006.156v.03h.029v-.029h-.03Zm1.647 6.6v.03l.009-.059-.01.03Zm-3.814 0-.009-.029.01.06v-.03Zm.27-1.758h.03v-.01l-.007-.009-.023.02Zm-.169-.204v-.03h-.063l.04.05.023-.02Zm3.55 0 .024.02.042-.05h-.065v.03Zm-.175.204-.022-.02-.008.009v.011h.03Zm-1.755-5.004h.03v-.01a.394.394 0 0 1 .016-.105c.017-.059.05-.105.11-.107l-.002-.06c-.1.004-.146.084-.166.15a.454.454 0 0 0-.018.121v.011h.03Zm.304-.03h-.304v.06h.304v-.06Zm-.149-.192c.03 0 .05.012.067.03a.189.189 0 0 1 .037.074.427.427 0 0 1 .015.115v.002l.03.001h.03v-.012a.535.535 0 0 0-.017-.122.248.248 0 0 0-.05-.099.144.144 0 0 0-.112-.049v.06Zm-.968 3.492v-.33h-.06v.33h.06Zm1.968-.03h-1.998v.06h1.998v-.06Zm-.03-.3v.33h.06v-.33h-.06Zm.118-.2c-.05.041-.114.094-.118.199l.06.002c.003-.075.046-.113.096-.155l-.038-.046Zm.07-.1c0 .04-.025.063-.07.1l.038.046c.04-.033.093-.074.093-.146h-.06Zm-.027-.246a.275.275 0 0 1 .034.146.686.686 0 0 1-.005.089v.005l-.001.001.03.005.03.005v-.01a.507.507 0 0 0 .005-.097.329.329 0 0 0-.045-.18l-.048.035Zm-.209.078c0 .032.011.062.03.083.02.02.05.032.081.027a.14.14 0 0 0 .085-.057.409.409 0 0 0 .066-.14l-.058-.017a.348.348 0 0 1-.055.12c-.019.024-.036.033-.047.035a.03.03 0 0 1-.028-.01.06.06 0 0 1-.014-.04h-.06Zm.18-.316a2.241 2.241 0 0 0-.133.181.257.257 0 0 0-.047.135h.06c0-.028.011-.059.038-.103.028-.045.07-.1.129-.176l-.048-.037Zm.056-.074-.057.074.048.037.057-.075-.048-.036Zm-.046-.322a.354.354 0 0 1 .062.167.388.388 0 0 1 .003.094.128.128 0 0 1-.02.061l.049.036a.185.185 0 0 0 .03-.09.45.45 0 0 0-.003-.11.41.41 0 0 0-.076-.198l-.045.04Zm-.126.28a.128.128 0 0 0 .073-.021.158.158 0 0 0 .05-.06.724.724 0 0 0 .055-.214l-.06-.01a.674.674 0 0 1-.047.196.1.1 0 0 1-.031.038.068.068 0 0 1-.04.011v.06Zm-.131-.15c0 .05.013.089.039.115.026.026.06.035.092.035v-.06a.072.072 0 0 1-.05-.017c-.01-.012-.021-.033-.021-.073h-.06Zm.077-.194c-.036.052-.077.11-.077.194h.06c0-.062.03-.106.066-.16l-.05-.034Zm.06-.104a.477.477 0 0 1-.06.104l.05.034c.022-.033.049-.071.066-.117l-.056-.021Zm-.06-.286a.245.245 0 0 1 .06.284l.055.024a.305.305 0 0 0-.074-.352l-.041.044Zm.035.068.015-.084-.06-.011-.014.085.06.01Zm-.13.192a.115.115 0 0 0 .059-.013.097.097 0 0 0 .038-.043.255.255 0 0 0 .02-.059l.013-.077-.059-.01-.013.075a.195.195 0 0 1-.014.044.037.037 0 0 1-.015.018.056.056 0 0 1-.028.005v.06Zm.006-.38a.748.748 0 0 0-.102.186.182.182 0 0 0-.006.114c.013.039.045.066.095.08l.015-.059c-.035-.01-.048-.025-.053-.04-.007-.019-.005-.044.006-.076a.735.735 0 0 1 .095-.171l-.05-.034Zm.01-.015-.01.015.05.034.01-.015-.05-.034Zm-.042-.187-.02.023.003.003.01.01a.24.24 0 0 1 .027.038.153.153 0 0 1 .018.122l.058.017a.213.213 0 0 0-.024-.169.3.3 0 0 0-.047-.061l-.004-.004-.001-.001-.02.022Zm-.143.185a.137.137 0 0 0 .054.006.077.077 0 0 0 .049-.028.227.227 0 0 0 .033-.058 1.67 1.67 0 0 0 .035-.095l-.057-.02c-.013.04-.024.069-.033.091a.17.17 0 0 1-.024.043c-.005.006-.008.007-.012.008-.005 0-.013 0-.03-.005l-.015.058Zm.015-.255a.252.252 0 0 0-.09.145.102.102 0 0 0 .014.07.096.096 0 0 0 .062.04l.013-.058a.038.038 0 0 1-.024-.015c-.004-.006-.007-.015-.005-.03.004-.028.026-.068.07-.107l-.04-.045Zm-.014-.153a.123.123 0 0 1 .045.08.086.086 0 0 1-.031.073l.04.045a.146.146 0 0 0 .05-.122.183.183 0 0 0-.064-.121l-.04.045Zm-.171.002c-.005.025 0 .05.017.068a.08.08 0 0 0 .064.024c.047-.002.1-.036.136-.102l-.052-.03c-.03.055-.066.071-.087.072-.01 0-.015-.003-.017-.005-.002-.002-.004-.006-.002-.016l-.06-.011Zm.06-.26-.06.258.058.014.061-.258-.058-.014Zm-1.145.037h1.175v-.06H20.41v.06Zm.084.228-.054-.264-.059.012.054.264.059-.012Zm-.21-.015c.035.06.079.097.122.103a.075.075 0 0 0 .061-.02.091.091 0 0 0 .027-.059l-.06-.006c0 .013-.005.02-.008.022-.002.002-.006.004-.013.003-.016-.002-.046-.02-.078-.073l-.052.03Zm.033.162c-.025-.025-.035-.051-.033-.076.002-.025.016-.052.045-.078l-.04-.045a.18.18 0 0 0-.065.119.155.155 0 0 0 .05.122l.043-.042Zm.012.254a.096.096 0 0 0 .062-.04.103.103 0 0 0 .014-.07.254.254 0 0 0-.09-.145l-.04.045c.045.039.066.08.07.108.002.014 0 .023-.004.03-.004.005-.01.01-.025.014l.013.058Zm-.17-.175.035.097c.01.024.02.044.034.059.013.015.03.024.05.026a.15.15 0 0 0 .052-.007l-.015-.058a.1.1 0 0 1-.032.005c-.003 0-.006 0-.01-.006a.16.16 0 0 1-.023-.042 1.385 1.385 0 0 1-.034-.093l-.057.019Zm-.013.178c-.005-.007-.007-.019-.003-.038a.238.238 0 0 1 .022-.059.489.489 0 0 1 .042-.067l.003-.004.001-.001-.023-.019-.024-.018-.002.002-.003.004a.525.525 0 0 0-.075.15.111.111 0 0 0 .01.082l.052-.032Zm.01.016-.011-.017-.05.034.012.017.05-.034Zm.013.377c.05-.015.08-.042.094-.08a.179.179 0 0 0-.005-.113.735.735 0 0 0-.102-.184l-.049.034c.028.04.075.107.094.168.01.031.012.056.005.075-.005.016-.019.032-.054.042l.017.058Zm-.138-.191.014.077c.005.022.01.043.019.06s.02.032.038.042c.018.01.037.013.059.013v-.06a.056.056 0 0 1-.029-.005.038.038 0 0 1-.014-.018.206.206 0 0 1-.014-.044 1.585 1.585 0 0 1-.014-.075l-.059.01Zm0 0 .06-.01-.06.01Zm0 0 .06-.01-.06.01Zm0 0 .06-.01-.06.01Zm0 0 .06-.01-.06.01Zm-.015-.084.015.084.06-.01a4.074 4.074 0 0 0-.016-.085l-.059.01Zm-.017.3a.246.246 0 0 1 .067-.284l-.04-.044a.306.306 0 0 0-.082.352l.055-.024Zm.059.099a.6.6 0 0 1-.059-.099l-.055.024a.654.654 0 0 0 .064.109l.05-.034Zm.079.201c0-.087-.042-.146-.08-.201l-.049.034c.039.056.069.101.069.167h.06Zm-.125.15a.116.116 0 0 0 .09-.036c.024-.026.035-.065.035-.114h-.06c0 .041-.01.063-.02.074-.01.01-.023.016-.045.016v.06Zm-.178-.295a.76.76 0 0 0 .054.211.165.165 0 0 0 .05.062.125.125 0 0 0 .074.022v-.06a.065.065 0 0 1-.039-.011.104.104 0 0 1-.031-.04.685.685 0 0 1-.049-.193l-.059.009Zm.006.33a.113.113 0 0 1-.019-.056.377.377 0 0 1 .003-.093.354.354 0 0 1 .062-.166l-.045-.04a.41.41 0 0 0-.076.197.433.433 0 0 0-.003.108.169.169 0 0 0 .031.088l.047-.038Zm.035.048-.035-.047-.048.036.035.047.048-.036Zm.194.35a.279.279 0 0 0-.05-.145 2.93 2.93 0 0 0-.144-.205l-.048.036c.066.088.111.15.141.2.03.05.041.082.041.113h.06Zm-.261-.088c.02.062.043.108.068.14a.141.141 0 0 0 .085.057.086.086 0 0 0 .08-.028.12.12 0 0 0 .028-.082h-.06c0 .02-.006.034-.013.042a.026.026 0 0 1-.025.009c-.011-.002-.028-.01-.048-.035a.37.37 0 0 1-.058-.12l-.057.017Zm.002.255.03-.004-.001-.002v-.005a.664.664 0 0 1 0-.17.181.181 0 0 1 .023-.067l-.05-.032a.241.241 0 0 0-.032.088.536.536 0 0 0-.004.165l.003.023v.008h.001l.03-.004Zm.101.1c-.045-.038-.071-.061-.071-.1h-.06c0 .072.053.113.093.146l.038-.047Zm.118.2c0-.106-.067-.16-.118-.2l-.038.046c.052.042.096.079.096.154h.06Zm.399-2.612.027.186.06-.008-.028-.186-.06.008Zm1.103-.034h-1.073v.06h1.073v-.06Zm.003.22.027-.186-.06-.008-.027.186.06.008Zm-1.05.026h1.02v-.06h-1.02v.06Zm.098-.225-.014-.15-.06.006.014.15.06-.006Zm.848-.027h-.878v.06h.878v-.06Zm-.01-.124-.02.15.06.008.02-.15-.06-.008Zm-.881.034h.91v-.06h-.91v.06Zm.118-.188.02.156.06-.008-.02-.156-.06.008Zm.637-.034h-.607v.06h.607v-.06Zm.024.187.006-.156-.06-.002-.006.156.06.002Zm-.61.03h.58v-.06h-.58v.06Zm2.236 6.54a.688.688 0 0 1-.21-.113.395.395 0 0 1-.078-.08.14.14 0 0 1-.029-.078h-.06c0 .04.016.078.04.111a.449.449 0 0 0 .09.094c.07.056.158.102.229.124l.018-.058Zm-3.823.06h3.814v-.06H19.12v.06Zm.24-.33c0 .052-.029.11-.076.16a.414.414 0 0 1-.173.11l.018.058a.475.475 0 0 0 .199-.127.307.307 0 0 0 .092-.202h-.06Zm0-1.459v1.458h.06v-1.458h-.06Zm-.162-.185.169.204.046-.038-.169-.204-.046.038Zm3.574-.049h-3.55v.06h3.55v-.06Zm-.153.254.176-.204-.046-.04-.175.205.045.039Zm.007 1.438v-1.458h-.06v1.458h.06Z"/><path fill="#fff" fill-rule="evenodd" d="M20.086 14.756h-.243v.99h.243v-.99Zm2.052 0h-.243v.99h.243v-.99Z" clip-rule="evenodd"/><path fill="#000" d="M19.843 14.756v-.03l-.03.03h.03Zm.243 0h.03l-.03-.03v.03Zm-.243.99h-.03l.03.03v-.03Zm.243 0v.03l.03-.03h-.03Zm1.81-.99v-.03l-.03.03h.03Zm.242 0h.03l-.03-.03v.03Zm-.243.99h-.03l.03.03v-.03Zm.243 0v.03l.03-.03h-.03Zm-2.295-.96h.243v-.06h-.243v.06Zm.03.96v-.99h-.06v.99h.06Zm.213-.03h-.243v.06h.243v-.06Zm-.03-.96v.99h.06v-.99h-.06Zm1.84.03h.242v-.06h-.243v.06Zm.03.96v-.99h-.06v.99h.06Zm.212-.03h-.243v.06h.243v-.06Zm-.03-.96v.99h.06v-.99h-.06Z"/><path fill="#fff" stroke="#000" stroke-width=".06" d="M19.155 12.452v1.656H22.8v-1.656a.267.267 0 0 0-.176.168v.708h-3.287v-.708s-.04-.12-.19-.168h.008Z"/><path fill="#fff" stroke="#000" stroke-width=".06" d="M22.3 16.07c-.121-.042-.378-.174-.378-.3v-1.632c.027-.09.162-.144.25-.204h-2.41c.115.06.243.102.29.204v1.632c0 .126-.202.258-.323.3H22.3Z"/><path fill="#fff" fill-rule="evenodd" d="M22.624 12.776v1.176h-3.287v-1.17h.337v-.12h2.62v.114h.33Zm-1.127 2.994c0 .126.169.258.29.3h-1.58c.116-.042.291-.174.291-.3v-1.398l-.101-.12h1.195l-.095.126v1.392Z" clip-rule="evenodd"/><path fill="#000" d="M22.624 13.952v.03h.03v-.03h-.03Zm0-1.176h.03v-.03h-.03v.03Zm-3.287 1.176h-.03v.03h.03v-.03Zm0-1.17v-.03h-.03v.03h.03Zm.337 0v.03h.03v-.03h-.03Zm0-.12v-.03h-.03v.03h.03Zm2.62 0h.03v-.03h-.03v.03Zm0 .114h-.03v.03h.03v-.03Zm-.507 3.294v.03l.01-.058-.01.028Zm-1.58 0-.01-.028.01.058v-.03Zm.291-1.698h.03v-.01l-.007-.01-.023.02Zm-.101-.12v-.03h-.065l.042.05.023-.02Zm1.195 0 .024.018.035-.048h-.06v.03Zm-.095.126-.024-.018-.006.008v.01h.03Zm1.157-.426v-1.176h-.06v1.176h.06Zm-3.317.03h3.287v-.06h-3.287v.06Zm-.03-1.2v1.17h.06v-1.17h-.06Zm.367-.03h-.337v.06h.337v-.06Zm-.03-.09v.12h.06v-.12h-.06Zm2.65-.03h-2.62v.06h2.62v-.06Zm.03.144v-.114h-.06v.114h.06Zm.3-.03h-.33v.06h.33v-.06Zm-.827 3.296a.539.539 0 0 1-.18-.112c-.055-.052-.09-.11-.09-.16h-.06c0 .076.05.148.109.204a.6.6 0 0 0 .201.125l.02-.057Zm-1.59.058h1.58v-.06h-1.58v.06Zm.261-.33c0 .05-.036.107-.093.16a.571.571 0 0 1-.177.112l.02.056a.633.633 0 0 0 .198-.124c.06-.056.112-.128.112-.204h-.06Zm0-1.398v1.398h.06v-1.398h-.06Zm-.094-.1.101.12.046-.04-.101-.12-.046.04Zm1.218-.05h-1.195v.06h1.195v-.06Zm-.071.174.095-.126-.049-.036-.094.126.048.036Zm.006 1.374v-1.392h-.06v1.392h.06Z"/><path fill="#fff" stroke="#000" stroke-width=".06" d="M20.687 14.252h.607v1.818h-.607v-1.818Z"/><path fill="#fff" stroke="#000" stroke-linejoin="bevel" stroke-width=".06" d="M21.612 13.85c0-.12.391-.126.594-.228h-2.43c.202.102.587.108.587.228l.081.234 1.013.036.155-.27Z"/><path fill="#fff" fill-rule="evenodd" d="M22.199 12.45v.65c-.25.084-.426.36-.426.36h-1.566s-.175-.276-.425-.36v-.93c.122 0 .122.12.122.402l2.18.006c0-.294.014-.402.115-.402v.274Zm0 0c.005-.329.33-.364.33-.364v.3c-.128-.006-.189.096-.189.24 0 .15.102.15.102.15v.852h-.243V12.45Z" clip-rule="evenodd"/><path fill="#000" d="M21.773 13.46v.03h.017l.009-.014-.026-.016Zm-1.566 0-.025.016.009.014h.017v-.03Zm-.425-.36h-.03v.021l.02.007.01-.028Zm0-.93v-.03h-.03v.03h.03Zm.122.402h-.03v.03h.03v-.03Zm2.18.006v.03h.03v-.03h-.03Zm.115-.402h.03v-.03h-.03v.03Zm.33-.09h.03v-.034l-.033.004.003.03Zm0 .3-.001.03.031.001v-.031h-.03Zm-.087.39h.03v-.03h-.03v.03Zm0 .852v.03h.03v-.03h-.03Zm-.243 0h-.03v.03h.03v-.03Zm0-.528.01.028.02-.007V13.1h-.03Zm.03-.642v-.007l-.06-.001v.008h.06Zm0 .642v-.642h-.06v.642h.06Zm-.04-.028a.82.82 0 0 0-.318.219 1.227 1.227 0 0 0-.12.15l-.002.002.024.017.026.016c0-.001 0-.002.002-.003 0-.002.003-.004.005-.008a.962.962 0 0 1 .108-.133.762.762 0 0 1 .294-.204l-.019-.056Zm-.416.358h-1.566v.06h1.566v-.06Zm-1.566.03.026-.016v-.001l-.003-.003a2.57 2.57 0 0 1-.03-.042 1.245 1.245 0 0 0-.09-.107.82.82 0 0 0-.318-.22l-.02.057a.76.76 0 0 1 .295.204 1.174 1.174 0 0 1 .115.144l.026-.016Zm-.395-.36v-.93h-.06v.93h.06Zm-.03-.9c.026 0 .04.006.05.015.01.01.02.027.027.057.014.061.015.157.015.3h.06c0-.14 0-.244-.016-.314a.166.166 0 0 0-.045-.087.128.128 0 0 0-.09-.031v.06Zm.122.402 2.18.006v-.06l-2.18-.006v.06Zm2.21-.024c0-.148.003-.245.018-.304a.112.112 0 0 1 .027-.055c.008-.008.02-.013.04-.013v-.06a.114.114 0 0 0-.082.03.17.17 0 0 0-.043.083c-.017.068-.02.173-.02.319h.06Zm.055-.402v.274h.06v-.274h-.06Zm.06.275a.313.313 0 0 1 .152-.28.42.42 0 0 1 .151-.055l-.003-.03-.003-.03h-.004a.295.295 0 0 0-.051.012.475.475 0 0 0-.12.051.372.372 0 0 0-.182.33l.06.002Zm.27-.365v.3h.06v-.3h-.06Zm.032.27a.187.187 0 0 0-.168.076.328.328 0 0 0-.053.194h.06a.27.27 0 0 1 .041-.159c.025-.034.062-.054.117-.051l.003-.06Zm-.22.27c0 .082.028.13.062.155a.129.129 0 0 0 .061.024h.007v-.06h.001-.009a.068.068 0 0 1-.024-.012c-.016-.012-.039-.04-.039-.107h-.06Zm.1.15v.852h.06v-.852h-.06Zm.03.822H22.2v.06h.243v-.06Zm-.212.03V13.1h-.06v.528h.06Zm-.04-.556.02.056-.02-.056Zm-.02-.622v.65h.06v-.65h-.06Z"/><path fill="#fff" stroke="#000" stroke-width=".06" d="M19.782 12.458c0-.336-.33-.372-.33-.372v.3c.128-.006.189.096.189.24 0 .15-.102.15-.102.15v.852h.243v-1.17Z"/><path fill="#000" d="M20.424 10.186h1.16v-.06h-1.16v.06Zm-.135.324h1.417v-.06H20.29v.06Zm-.135.39h1.68v-.06h-1.68v.06Zm-.142.474h1.991v-.06h-1.99v.06Zm-.047.54h2.052v-.06h-2.052v.06Zm.418 1.726v-.03h-.03v.03h.03Zm1.215 0h.03v-.03h-.03v.03Zm0 .396v.03h.03v-.03h-.03Zm-1.215 0h-.03v.03h.03v-.03Zm-1.04-.346h3.281v-.06h-3.28v.06Zm3.281-.06h-3.28v.06h3.28v-.06Zm-2.24.04h1.214v-.06h-1.215v.06Zm1.184-.03v.396h.06v-.396h-.06Zm.03.366h-1.215v.06h1.215v-.06Zm-1.185.03v-.396h-.06v.396h.06Z"/><path fill="#fff" fill-rule="evenodd" d="m20.728 10.214.162.078.23-.006.154-.072v-.21a.55.55 0 0 1-.025.007c-.056.015-.116.03-.116.113-.021-.107-.047-.124-.089-.151l-.04-.029a.264.264 0 0 1-.043.032c-.04.026-.07.045-.085.148-.012-.086-.068-.1-.127-.114l-.021-.006v.21Zm-.317 3.268c.002-.22.006-.535-.176-.73h1.525c-.182.195-.178.51-.176.73v.068H20.41v-.069Z" clip-rule="evenodd"/><path fill="#000" d="m20.89 10.292-.015.03h.015v-.03Zm-.162-.078h-.03v.02l.017.007.013-.027Zm.391.072v.033l.013-.005-.013-.028Zm.155-.072.013.028.017-.009v-.019h-.03Zm0-.21h.03v-.04l-.038.012.008.028Zm-.025.007.007.03-.007-.03Zm-.116.113-.03.006.06-.006h-.03Zm-.089-.151-.016.025.016-.025Zm-.04-.029.019-.023-.02-.016-.019.017.02.022Zm-.043.032.016.025-.016-.025Zm-.085.148-.03.005h.06l-.03-.005Zm-.127-.114.007-.03-.007.03Zm-.021-.006.007-.029-.037-.01v.04h.03Zm-.493 2.748v-.03h-.07l.048.05.022-.02Zm.176.73h-.03.03Zm1.35-.73.021.02.048-.05h-.07v.03Zm-.177.73h.03-.03Zm0 .068v.03h.03v-.03h-.03Zm-1.174 0h-.03v.03h.03v-.03Zm.493-3.285-.162-.078-.026.054.162.078.026-.054Zm.215-.009-.23.006.002.06.23-.006-.002-.06Zm.144-.069-.156.072.026.055.155-.072-.025-.055Zm-.018-.183v.21h.06v-.21h-.06Zm.012.036.027-.007-.017-.057a.787.787 0 0 1-.024.006l.014.058Zm-.093.084c0-.032.01-.048.024-.058a.208.208 0 0 1 .07-.026l-.016-.058c-.026.007-.061.016-.089.036a.124.124 0 0 0-.05.106h.06Zm-.135-.126a.135.135 0 0 1 .044.037.26.26 0 0 1 .031.095l.059-.011a.316.316 0 0 0-.04-.117c-.019-.027-.04-.04-.061-.054l-.033.05Zm-.042-.03c.016.013.03.022.042.03l.033-.05a.486.486 0 0 1-.038-.027l-.037.047Zm-.009.034c.014-.01.03-.02.047-.035l-.04-.045c-.013.012-.026.02-.04.03l.033.05Zm-.071.127a.214.214 0 0 1 .028-.09.134.134 0 0 1 .043-.037l-.033-.05a.2.2 0 0 0-.06.052.27.27 0 0 0-.038.116l.06.009Zm-.165-.09a.215.215 0 0 1 .072.026c.015.01.028.027.033.064l.06-.009a.144.144 0 0 0-.058-.104c-.029-.02-.063-.028-.092-.035l-.015.058Zm-.021-.006a.857.857 0 0 0 .021.006l.015-.058-.02-.006-.016.058Zm.038.181v-.21h-.06v.21h.06Zm-.545 2.559a.637.637 0 0 1 .15.34c.02.127.02.258.018.368h.06a2.177 2.177 0 0 0-.02-.378.696.696 0 0 0-.164-.371l-.044.04Zm1.547-.05h-1.525v.06h1.525v-.06Zm-.146.758c-.001-.11-.002-.24.019-.368a.638.638 0 0 1 .15-.34l-.045-.041a.698.698 0 0 0-.165.37c-.022.135-.02.27-.019.38h.06Zm0 .07v-.07h-.06v.07h.06Zm-1.204.03h1.175v-.06H20.41v.06Zm-.03-.1v.07h.06v-.07h-.06Z"/><path fill="#fff" stroke="#000" stroke-width=".06" d="m20.876 10.634-.27-.168v-.186c.101.018.202.03.216.132a.373.373 0 0 1 .182-.282.41.41 0 0 1 .182.282c.007-.102.115-.114.203-.132v.192l-.263.162h-.25Z"/><path fill="#fff" fill-rule="evenodd" d="m20.856 11.168-.304-.24v-.282l.028.006c.1.021.203.043.215.18.034-.21.101-.324.203-.408.108.084.175.198.216.408.012-.137.115-.159.215-.18l.028-.006v.282l-.31.24h-.291Zm.567.318-.27.342h-.317l-.277-.342h.864Zm-.823 1.026c-.014-.252-.068-.39-.203-.456h1.188c-.135.066-.189.204-.203.456H20.6Z" clip-rule="evenodd"/><path fill="#000" d="M20.552 10.928h-.03v.015l.012.009.018-.024Zm.304.24-.019.024.009.006h.01v-.03Zm-.304-.522.006-.029-.036-.008v.037h.03Zm.028.006-.006.03.006-.03Zm.215.18-.03.003.06.002-.03-.005Zm.203-.408.018-.023-.019-.015-.018.015.019.023Zm.216.408-.03.006.06-.003-.03-.003Zm.215-.18.006.03-.006-.03Zm.028-.006h.03v-.037l-.037.008.007.03Zm0 .282.018.024.012-.009v-.015h-.03Zm-.31.24v.03h.01l.008-.006-.019-.024Zm.006.66v.03h.015l.009-.011-.024-.019Zm.27-.342.024.019.038-.049h-.062v.03Zm-.587.342-.023.02.009.01h.014v-.03Zm-.277-.342v-.03h-.063l.04.05.023-.02Zm-.162.57v-.03l-.013.057.013-.027Zm.203.456-.03.002.001.028h.028v-.03Zm.985-.456.013.027-.013-.057v.03Zm-.203.456v.03h.029l.001-.028-.03-.002Zm-.848-1.56.303.24.038-.047-.304-.24-.037.047Zm-.012-.306v.282h.06v-.282h-.06Zm.064-.023-.027-.006-.013.059.027.006.013-.06Zm.239.207a.192.192 0 0 0-.088-.157.471.471 0 0 0-.151-.05l-.012.059c.051.01.096.02.13.042.032.02.056.051.061.111l.06-.005Zm.154-.429c-.109.09-.179.211-.213.427l.059.01c.033-.206.098-.312.192-.39l-.038-.047Zm.264.426c-.041-.215-.111-.337-.227-.426l-.037.047c.1.078.166.185.205.39l.06-.011Zm.18-.204a.458.458 0 0 0-.15.05.192.192 0 0 0-.09.157l.06.005c.006-.06.03-.091.062-.111a.403.403 0 0 1 .13-.042l-.012-.06Zm.027-.006-.027.006.012.059.028-.006-.013-.059Zm.037.311v-.282h-.06v.282h.06Zm-.322.264.31-.24-.037-.047-.31.24.037.047Zm-.31.006h.291v-.06h-.29v.06Zm.322.649.27-.342-.047-.037-.27.342.047.037Zm-.341.011h.317v-.06h-.317v.06Zm-.3-.353.276.342.047-.038-.277-.342-.046.038Zm.887-.049h-.864v.06h.864v-.06Zm-1.04.627c.12.058.173.18.187.43l.06-.002c-.014-.254-.069-.408-.22-.482l-.026.054Zm1.202-.057h-1.188v.06h1.188v-.06Zm-.173.488c.014-.25.067-.373.186-.43l-.026-.055c-.151.074-.206.228-.22.482l.06.003Zm-.813.028h.784v-.06h-.784v.06Z"/><path fill="#fff" stroke="#000" stroke-linejoin="bevel" stroke-width=".06" d="M21.598 11.48v-.336a.342.342 0 0 0-.256.198c0-.12-.169-.378-.351-.51-.182.144-.358.384-.351.504-.034-.09-.122-.162-.257-.192v.342l1.215-.006Z"/><path fill="#fff" stroke="#000" stroke-linejoin="bevel" stroke-width=".06" d="M21.652 12.056v-.336c-.142.036-.236.102-.277.198 0-.12-.182-.378-.384-.51-.203.15-.392.384-.385.51-.034-.09-.135-.162-.277-.198v.342l1.323-.006Z"/><path fill="#fff" stroke="#000" stroke-linejoin="bevel" stroke-width=".06" d="M21.814 12.758v-.396a.647.647 0 0 0-.344.228c0-.21-.27-.54-.48-.642-.216.108-.479.444-.479.642a.656.656 0 0 0-.35-.228v.396h1.653Z"/><path fill="#fff" stroke="#000" stroke-linejoin="bevel" stroke-width=".06" d="M21.72 13.64v-.408c-.162.054-.203.186-.257.282.02-.414-.256-.852-.472-.966-.216.114-.5.564-.473.96-.054-.084-.101-.222-.256-.276v.402l1.458.006Z"/><path fill="#fff" stroke="#000" stroke-width=".06" d="M21.612 14.252v-.408c-.17.036-.176.09-.23.18.02-.246-.175-.528-.391-.636-.216.108-.405.39-.392.636-.054-.09-.06-.144-.23-.18v.408h1.243Zm-7.115 1.5v-1.224c-.047-.156-.203-.3-.31-.324v-1.08l.25.12.29 1.134v1.38l-.23-.006Z"/><path fill="#fff" stroke="#000" stroke-width=".06" d="M14.497 15.758v-1.23c-.047-.156-.203-.3-.31-.324v-1.152c.168 0 .25.192.25.192l.29 1.134v1.374l-.23.006Z"/><path fill="#fff" stroke="#000" stroke-width=".06" d="M14.315 16.07c.115-.042.283-.174.283-.3v-1.536l-.08-.12h2.95l-.116.12v1.536c.01.13.098.244.23.3h-3.267Z"/><path fill="#fff" stroke="#000" stroke-width=".06" d="M16.981 16.07c-.114-.042-.283-.174-.283-.3v-1.458l.243-.204h-1.998l.243.204v1.458c0 .126-.169.258-.284.3h2.08Z"/><path fill="#fff" stroke="#000" stroke-width=".06" d="M16.704 16.07c-.114-.042-.29-.174-.29-.3v-1.32l.162-.198h-1.269l.162.198v1.32c0 .126-.169.258-.29.3h1.525Z"/><path fill="#fff" stroke="#000" stroke-width=".06" d="M15.645 14.252h.6v1.824h-.607l.007-1.824Z"/><path fill="#fff" fill-rule="evenodd" d="M14.605 12.896h.29v.192h.007v1.02h-.297v-1.212Zm.21 1.86h.242v.99h-.243v-.99Zm2.078 0h.236v.99h-.243l.007-.99Zm.527-1.446h-.412v.78h.412v-.78Z" clip-rule="evenodd"/><path fill="#000" d="M14.895 12.896h.03l-.03-.03v.03Zm-.29 0v-.03l-.03.03h.03Zm.29.192h-.03l.03.03v-.03Zm.007 0h.03l-.03-.03v.03Zm0 1.02v.03l.03-.03h-.03Zm-.297 0h-.03l.03.03v-.03Zm.452.648h.03l-.03-.03v.03Zm-.243 0v-.03l-.03.03h.03Zm.243.99v.03l.03-.03h-.03Zm-.243 0h-.03l.03.03v-.03Zm2.315-.99h.03l-.03-.03v.03Zm-.236 0v-.03l-.03.03h.03Zm.236.99v.03l.03-.03h-.03Zm-.243 0h-.03l.03.03v-.03Zm.122-2.436v-.03l-.03.03h.03Zm.412 0h.03l-.03-.03v.03Zm-.412.78h-.03l.03.03v-.03Zm.412 0v.03l.03-.03h-.03Zm-2.525-1.224h-.29v.06h.29v-.06Zm.03.222v-.192h-.06v.192h.06Zm-.023-.03h-.007v.06h.007v-.06Zm.03 1.05v-1.02h-.06v1.02h.06Zm-.327.03h.297v-.06h-.297v.06Zm-.03-1.05v1.02h.06v-1.02h-.06Zm0-.192v.192h.06v-.192h-.06Zm.482 1.83h-.243v.06h.243v-.06Zm.03 1.02v-.99h-.06v.99h.06Zm-.273.03h.243v-.06h-.243v.06Zm-.03-1.02v.99h.06v-.99h-.06Zm2.345-.03h-.236v.06h.236v-.06Zm.03 1.02v-.99h-.06v.99h.06Zm-.273.03h.243v-.06h-.243v.06Zm-.023-1.02-.007.99h.06l.007-.99h-.06Zm.145-1.416h.412v-.06h-.412v.06Zm.03.75v-.78h-.06v.78h.06Zm.382-.03h-.412v.06h.412v-.06Zm-.03-.75v.78h.06v-.78h-.06Z"/><path fill="#fff" fill-rule="evenodd" d="M14.895 12.356v1.74h2.127v-1.734c-.032 0-.054.04-.08.088-.04.072-.09.164-.204.164-.101 0-.088-.108-.034-.192.048-.078.108-.18.027-.378-.06.15-.209.198-.182.108a.461.461 0 0 1 .062-.124c.05-.078.093-.145.02-.314-.035.204-.183.198-.15.078.01-.033.023-.062.035-.09.037-.085.068-.154-.014-.3-.06.222-.135.21-.135.072v-.013c0-.194 0-.408-.284-.485 0 0-.02-.18-.121-.18-.108 0-.128.18-.128.18-.284.078-.284.294-.284.498 0 .138-.074.15-.135-.072-.082.146-.051.215-.014.3a.721.721 0 0 1 .034.09c.034.12-.114.126-.148-.078-.074.169-.031.236.019.313a.47.47 0 0 1 .062.125c.027.09-.122.042-.182-.108-.081.198-.02.3.027.378.06.084.067.192-.034.192-.114 0-.165-.094-.204-.168-.026-.05-.048-.09-.08-.09Zm-.465 1.752v-1.326a.17.17 0 0 1 .168 0v1.326h-.168Z" clip-rule="evenodd"/><path fill="#000" d="M14.895 14.096h-.03v.03h.03v-.03Zm0-1.74v-.03h-.03v.03h.03Zm2.127 1.74v.03h.03v-.03h-.03Zm0-1.734h.03v-.03h-.03v.03Zm-.08.088.026.014-.026-.014Zm-.238-.028.026.017v-.001l-.026-.016Zm.027-.378.028-.011-.028-.068-.028.068.028.011Zm-.182.108.029.009-.029-.009Zm.062-.124-.025-.017.025.017Zm.02-.314.027-.012-.041-.092-.017.1.03.004Zm-.15.078-.028-.008.029.008Zm.035-.09-.027-.011.027.012Zm-.014-.3.026-.014-.036-.064-.02.07.03.008Zm-.135.06h.03-.03Zm-.284-.486-.03.004.003.02.02.005.007-.029Zm-.25 0 .008.03.02-.006.002-.02-.03-.004Zm-.418.426.029-.007-.02-.071-.035.064.026.014Zm-.014.3.027-.011-.027.012Zm.034.09.03-.008-.03.008Zm-.148-.078.03-.005-.017-.1-.04.093.027.012Zm.019.313.025-.016-.025.017Zm.062.125-.029.009.029-.009Zm-.182-.108.027-.01-.027-.07-.028.069.028.011Zm.027.378-.026.016.001.002.025-.018Zm-.238.024.026-.014-.026.014Zm-.545.336-.015-.026-.015.009v.017h.03Zm0 1.326h-.03v.03h.03v-.03Zm.168-1.326h.03v-.018l-.016-.008-.014.026Zm0 1.326v.03h.03v-.03h-.03Zm.327-.012v-1.74h-.06v1.74h.06Zm2.097-.03h-2.127v.06h2.127v-.06Zm-.03-1.704v1.734h.06v-1.734h-.06Zm-.024.102a.427.427 0 0 1 .035-.057c.01-.014.016-.015.019-.015v-.06c-.03 0-.051.02-.066.037a.525.525 0 0 0-.04.066l.052.029Zm-.23.18c.134 0 .192-.11.23-.18l-.052-.029c-.041.076-.084.15-.178.15v.06Zm-.059-.238a.256.256 0 0 0-.046.146.1.1 0 0 0 .029.066.11.11 0 0 0 .076.026v-.06c-.02 0-.03-.005-.035-.01a.035.035 0 0 1-.01-.026.2.2 0 0 1 .037-.11l-.05-.032Zm.025-.35a.383.383 0 0 1 .032.217.385.385 0 0 1-.057.134l.051.03a.44.44 0 0 0 .065-.153.442.442 0 0 0-.036-.251l-.055.023Zm-.184.088a.084.084 0 0 0-.003.042.051.051 0 0 0 .027.035.066.066 0 0 0 .039.006.126.126 0 0 0 .037-.011.303.303 0 0 0 .14-.16l-.057-.023a.245.245 0 0 1-.108.128.064.064 0 0 1-.02.007h-.003a.01.01 0 0 1 .004.005v-.003c0-.002 0-.005.002-.009l-.058-.017Zm.066-.133c-.023.036-.05.077-.066.133l.058.017a.437.437 0 0 1 .059-.117l-.051-.033Zm.017-.285a.309.309 0 0 1 .034.174.29.29 0 0 1-.051.111l.05.033c.025-.039.052-.08.06-.134a.367.367 0 0 0-.038-.208l-.055.024Zm-.15.058c-.01.035-.008.068.008.092a.07.07 0 0 0 .077.028c.054-.013.104-.078.122-.185l-.06-.01c-.016.098-.057.132-.077.137-.008.002-.01 0-.012-.003-.003-.005-.008-.017 0-.043l-.058-.016Zm.035-.093c-.011.027-.025.057-.035.093l.057.017a.709.709 0 0 1 .034-.086l-.056-.024Zm-.012-.274c.039.07.05.118.047.157a.322.322 0 0 1-.035.117l.056.024c.018-.042.037-.086.04-.139a.35.35 0 0 0-.056-.188l-.052.03Zm-.14.057c0 .037.006.068.016.091a.072.072 0 0 0 .025.03.05.05 0 0 0 .043.007.078.078 0 0 0 .034-.022.187.187 0 0 0 .027-.039.61.61 0 0 0 .05-.13l-.058-.016a.546.546 0 0 1-.044.117.137.137 0 0 1-.018.027c-.006.005-.008.006-.008.005a.01.01 0 0 1 .007.002l-.003-.006a.17.17 0 0 1-.01-.066h-.06Zm0-.013v.013h.06v-.013h-.06Zm-.26-.456c.133.036.196.103.228.18a.749.749 0 0 1 .033.276h.06c0-.096 0-.204-.038-.298-.039-.097-.118-.175-.268-.216l-.015.058Zm-.114-.179c.015 0 .028.007.04.02a.163.163 0 0 1 .03.051.352.352 0 0 1 .021.081v.002l.03-.004.03-.003v-.003a.305.305 0 0 0-.005-.028.413.413 0 0 0-.02-.067.222.222 0 0 0-.043-.071.113.113 0 0 0-.083-.038v.06Zm-.128.15.03.004v-.007a.316.316 0 0 1 .02-.075c.019-.043.044-.072.078-.072v-.06c-.074 0-.113.062-.133.109a.393.393 0 0 0-.025.095v.003l.03.003Zm-.254.498c0-.103 0-.202.033-.285.032-.08.095-.147.229-.184l-.016-.058c-.15.042-.23.121-.268.22-.038.096-.038.207-.038.307h.06Zm-.194-.064c.016.057.033.1.05.131a.191.191 0 0 0 .027.039c.01.01.02.018.034.022a.05.05 0 0 0 .043-.006.073.073 0 0 0 .025-.03.225.225 0 0 0 .015-.092h-.06a.168.168 0 0 1-.01.066l-.003.006a.01.01 0 0 1 .007-.002s-.002 0-.008-.005a.132.132 0 0 1-.018-.027.552.552 0 0 1-.044-.117l-.058.015Zm.042.28a.322.322 0 0 1-.035-.116.293.293 0 0 1 .048-.157l-.052-.03a.352.352 0 0 0-.056.19c.003.052.022.096.04.138l.055-.024Zm.036.094c-.01-.036-.024-.066-.036-.093l-.055.024a.726.726 0 0 1 .034.086l.057-.017Zm-.207-.065c.018.107.068.172.122.185a.07.07 0 0 0 .077-.028c.017-.024.018-.057.008-.092l-.058.016c.008.026.003.038 0 .043-.001.002-.004.005-.013.003-.019-.005-.06-.039-.077-.136l-.059.01Zm.074.292a.29.29 0 0 1-.051-.11.31.31 0 0 1 .034-.175l-.055-.024a.366.366 0 0 0-.039.208c.01.054.036.095.06.134l.05-.033Zm.066.133a.515.515 0 0 0-.066-.133l-.05.033c.022.036.044.07.058.117l.058-.017Zm-.24-.088c.034.08.091.137.14.16a.13.13 0 0 0 .037.011.07.07 0 0 0 .04-.006.05.05 0 0 0 .025-.035.084.084 0 0 0-.002-.042l-.058.017a.048.048 0 0 1 .002.01v.002a.01.01 0 0 1 .004-.005h-.003a.065.065 0 0 1-.02-.007.245.245 0 0 1-.109-.128l-.055.023Zm.081.35a.385.385 0 0 1-.057-.133.382.382 0 0 1 .032-.217l-.055-.023a.442.442 0 0 0-.037.25.44.44 0 0 0 .066.155l.051-.031Zm-.06.238a.109.109 0 0 0 .077-.026.099.099 0 0 0 .031-.065.232.232 0 0 0-.05-.148l-.048.035a.18.18 0 0 1 .039.107c-.002.013-.006.022-.012.027-.005.005-.016.01-.036.01v.06Zm-.23-.184c.038.071.096.184.23.184v-.06c-.093 0-.135-.075-.177-.152l-.053.028Zm-.053-.074c.002 0 .008.001.019.015.01.014.02.034.034.059l.053-.029c-.012-.023-.025-.048-.04-.067-.014-.018-.036-.038-.066-.038v.06Zm-.495.396v1.326h.06v-1.326h-.06Zm.212-.027a.2.2 0 0 0-.197.001l.03.053c.044-.025.087-.026.14 0l.027-.053Zm.016 1.353v-1.326h-.06v1.326h.06Zm-.198.03h.168v-.06h-.168v.06Z"/><path fill="#fff" fill-rule="evenodd" d="M17.36 14.108v-.864c.033-.024.094-.018.134 0v.864h-.135Zm-2.444 0c-.054-.258-.263-.372-.473-.468v.468h.473Z" clip-rule="evenodd"/><path fill="#000" d="m17.36 13.244-.018-.024-.013.009v.015h.03Zm0 .864h-.03v.03h.03v-.03Zm.134-.864h.03v-.02l-.017-.007-.013.027Zm0 .864v.03h.03v-.03h-.03Zm-3.05-.468.012-.027-.043-.02v.047h.03Zm.472.468v.03h.037l-.008-.036-.03.006Zm-.473 0h-.03v.03h.03v-.03Zm2.886-.864v.864h.06v-.864h-.06Zm.178-.027a.223.223 0 0 0-.082-.018.138.138 0 0 0-.083.02l.035.05a.078.078 0 0 1 .047-.01.16.16 0 0 1 .058.013l.025-.055Zm.017.891v-.864h-.06v.864h.06Zm-.165.03h.135v-.06h-.135v.06Zm-2.928-.47c.21.096.405.205.456.447l.058-.013c-.057-.274-.28-.393-.49-.489l-.024.055Zm.042.44v-.468h-.06v.468h.06Zm.443-.03h-.473v.06h.473v-.06Z"/><path fill="#fff" fill-rule="evenodd" d="m16.225 11.528-.122.09H15.8l-.122-.096v-.12c.047.012.068.018.101.06a.315.315 0 0 1 .176-.174.312.312 0 0 1 .169.18c.034-.042.06-.06.101-.06v.12Zm.796 2.574c.055-.264.264-.372.473-.462v.462h-.473Z" clip-rule="evenodd"/><path fill="#000" d="M16.104 11.618v.03h.01l.007-.006-.017-.024Zm.121-.09.018.024.012-.009v-.015h-.03Zm-.425.09-.019.024.008.006h.01v-.03Zm-.122-.096h-.03v.015l.012.009.018-.024Zm0-.12.008-.029-.038-.01v.04h.03Zm.101.06-.023.019.033.04.018-.048-.027-.01Zm.176-.174.012-.027-.011-.006-.013.005.012.028Zm.169.18-.029.01.018.051.034-.042-.023-.019Zm.101-.06h.03v-.03h-.03v.03Zm1.269 2.232h.03v-.046l-.042.019.012.027Zm-.473.462-.029-.006-.007.036h.037v-.03Zm.473 0v.03h.03v-.03h-.03Zm-1.373-2.46.122-.09-.036-.048-.121.09.035.048Zm-.321.006h.303v-.06H15.8v.06Zm-.14-.102.121.096.037-.047-.121-.097-.037.048Zm-.012-.144v.12h.06v-.12h-.06Zm.155.041a.18.18 0 0 0-.055-.048.26.26 0 0 0-.062-.022l-.015.058c.024.006.037.01.049.016.01.006.02.015.036.034l.047-.038Zm.14-.183a.345.345 0 0 0-.191.191l.055.022a.285.285 0 0 1 .16-.157l-.024-.056Zm.21.198a.341.341 0 0 0-.186-.197l-.024.054a.282.282 0 0 1 .152.163l.057-.02Zm.072-.08a.129.129 0 0 0-.069.019.225.225 0 0 0-.056.052l.047.038a.165.165 0 0 1 .04-.039.068.068 0 0 1 .038-.01v-.06Zm.03.15v-.12h-.06v.12h.06Zm1.227 2.085c-.209.09-.433.203-.49.483l.059.012c.05-.247.245-.35.455-.44l-.024-.055Zm.042.49v-.463h-.06v.462h.06Zm-.503.03h.473v-.06h-.473v.06Z"/><path fill="#fff" stroke="#000" stroke-width=".06" d="m16.171 11.912.054-.114v-.15c-.04 0-.068.018-.101.06a.312.312 0 0 0-.169-.18.315.315 0 0 0-.175.174c-.034-.042-.054-.048-.102-.054v.15l.054.114h.439Z"/><path fill="#fff" stroke="#000" stroke-width=".06" d="m16.185 12.308.175-.198v-.192c-.067 0-.101.03-.148.096-.047-.138-.135-.162-.257-.228-.128.06-.216.09-.256.222-.054-.066-.088-.084-.155-.09v.192l.182.198h.459Z"/><path fill="#fff" stroke="#000" stroke-width=".06" d="M16.232 12.698s.216-.162.223-.252v-.21c-.081.006-.156.024-.216.114-.055-.174-.136-.222-.284-.3-.155.078-.236.126-.284.3-.067-.09-.134-.108-.222-.12v.216c.056.095.132.18.223.252h.56Z"/><path fill="#fff" stroke="#000" stroke-width=".06" d="M16.32 13.418s.297-.282.304-.396v-.324c-.108.012-.216.078-.297.216-.068-.27-.176-.456-.372-.588-.202.132-.31.318-.378.588-.08-.138-.182-.204-.29-.216v.324c.02.114.297.396.297.396h.736Z"/><path fill="#fff" stroke="#000" stroke-width=".06" d="M16.32 13.844s.25-.222.304-.318v-.324c-.108.012-.216.078-.297.21a.83.83 0 0 0-.372-.552c-.202.132-.31.282-.378.552-.08-.132-.182-.198-.29-.21v.324c.068.096.297.318.297.318h.736Z"/><path fill="#fff" stroke="#000" stroke-width=".06" d="M16.42 14.096c-.067-.282-.134-.492-.478-.702-.351.21-.412.42-.486.702h.965Z"/><path fill="#fff" stroke="#000" stroke-width=".06" d="M16.603 14.252v-.408c-.162.06-.303.138-.357.228-.054-.228-.17-.324-.31-.462-.143.138-.237.24-.298.462-.054-.09-.196-.174-.35-.228v.408h1.315Zm10.901 1.5v-1.224c.048-.156.203-.3.31-.324v-1.08l-.249.12-.29 1.134v1.38l.23-.006Z"/><path fill="#fff" stroke="#000" stroke-width=".06" d="M27.504 15.758v-1.23c.048-.156.203-.3.31-.324v-1.152c-.168 0-.249.192-.249.192l-.29 1.134v1.374l.23.006Z"/><path fill="#fff" stroke="#000" stroke-width=".06" d="M27.686 16.07c-.114-.042-.283-.174-.283-.3v-1.536l.081-.12h-2.95l.115.12v1.536a.363.363 0 0 1-.23.3h3.267Z"/><path fill="#fff" stroke="#000" stroke-width=".06" d="M25.02 16.07c.115-.042.284-.174.284-.3v-1.458l-.243-.204h1.998l-.243.204v1.458c0 .126.169.258.284.3h-2.08Z"/><path fill="#fff" stroke="#000" stroke-width=".06" d="M25.297 16.07c.115-.042.29-.174.29-.3v-1.32l-.162-.198h1.27l-.163.198v1.32c0 .126.17.258.29.3h-1.525Z"/><path fill="#fff" stroke="#000" stroke-width=".06" d="M26.357 14.252h-.6v1.824h.607l-.007-1.824Z"/><path fill="#fff" fill-rule="evenodd" d="M27.396 12.896h-.29v.192H27.1v1.02h.297v-1.212Zm-.209 1.86h-.243v.99h.243v-.99Zm-2.079 0h-.236v.99h.243l-.007-.99Zm-.526-1.446h.412v.78h-.412v-.78Z" clip-rule="evenodd"/><path fill="#000" d="M27.106 12.896h-.03l.03-.03v.03Zm.29 0v-.03l.03.03h-.03Zm-.29.192h.03l-.03.03v-.03Zm-.007 0h-.03l.03-.03v.03Zm0 1.02v.03l-.03-.03h.03Zm.297 0h.03l-.03.03v-.03Zm-.452.648h-.03l.03-.03v.03Zm.243 0v-.03l.03.03h-.03Zm-.243.99v.03l-.03-.03h.03Zm.243 0h.03l-.03.03v-.03Zm-2.315-.99h-.03l.03-.03v.03Zm.236 0v-.03l.03.03h-.03Zm-.236.99v.03l-.03-.03h.03Zm.243 0h.03l-.03.03v-.03Zm-.121-2.436v-.03l.03.03h-.03Zm-.412 0h-.03l.03-.03v.03Zm.412.78h.03l-.03.03v-.03Zm-.412 0v.03l-.03-.03h.03Zm2.524-1.224h.29v.06h-.29v-.06Zm-.03.222v-.192h.06v.192h-.06Zm.023-.03h.007v.06H27.1v-.06Zm-.03 1.05v-1.02h.06v1.02h-.06Zm.328.03H27.1v-.06h.296v.06Zm.03-1.05v1.02h-.06v-1.02h.06Zm0-.192v.192h-.06v-.192h.06Zm-.483 1.83h.243v.06h-.243v-.06Zm-.03 1.02v-.99h.06v.99h-.06Zm.273.03h-.243v-.06h.243v.06Zm.03-1.02v.99h-.06v-.99h.06Zm-2.345-.03h.236v.06h-.236v-.06Zm-.03 1.02v-.99h.06v.99h-.06Zm.273.03h-.243v-.06h.243v.06Zm.023-1.02.007.99h-.06l-.007-.99h.06Zm-.145-1.416h-.411v-.06h.412v.06Zm-.03.75v-.78h.06v.78h-.06Zm-.381-.03h.412v.06h-.412v-.06Zm.03-.75v.78h-.06v-.78h.06Z"/><path fill="#fff" fill-rule="evenodd" d="M27.106 12.356v1.74H24.98v-1.734c.032 0 .053.04.08.088.039.072.09.164.203.164.102 0 .088-.108.034-.192-.047-.078-.108-.18-.027-.378.06.15.21.198.182.108a.463.463 0 0 0-.062-.124c-.05-.078-.093-.145-.019-.314.034.204.183.198.149.078a.754.754 0 0 0-.035-.09c-.037-.085-.067-.154.015-.3.06.222.135.21.135.072v-.013c0-.194 0-.408.283-.485 0 0 .02-.18.122-.18.108 0 .128.18.128.18.283.078.283.294.283.498 0 .138.075.15.135-.072.082.146.052.215.015.3-.012.028-.025.057-.035.09-.034.12.115.126.149-.078.073.169.03.236-.02.313-.022.036-.047.074-.061.125-.027.09.121.042.182-.108.08.198.02.3-.027.378-.06.084-.068.192.034.192.114 0 .164-.094.204-.168.026-.05.047-.09.08-.09Zm.466 1.752v-1.326a.17.17 0 0 0-.169 0v1.326h.169Z" clip-rule="evenodd"/><path fill="#000" d="M27.106 14.096h.03v.03h-.03v-.03Zm0-1.74v-.03h.03v.03h-.03Zm-2.126 1.74v.03h-.03v-.03h.03Zm0-1.734h-.03v-.03h.03v.03Zm.08.088-.027.014.026-.014Zm.237-.028-.025.017v-.001l.025-.016Zm-.027-.378-.028-.011.028-.068.028.068-.028.011Zm.182.108-.028.009.028-.009Zm-.062-.124.025-.017-.025.017Zm-.019-.314-.027-.012.04-.092.017.1-.03.004Zm.149.078.029-.008-.03.008Zm-.035-.09.028-.011-.028.012Zm.015-.3-.026-.014.035-.064.02.07-.03.008Zm.135.06h-.03.03Zm.283-.486.03.004-.002.02-.02.005-.008-.029Zm.25 0-.008.03-.02-.006-.002-.02.03-.004Zm.418.426-.029-.007.02-.071.035.064-.026.014Zm.015.3-.028-.011.027.012Zm-.035.09-.029-.008.03.008Zm.149-.078-.03-.005.017-.1.04.093-.027.012Zm-.02.313-.024-.016.025.017Zm-.061.125.028.009-.028-.009Zm.182-.108-.028-.01.028-.07.028.069-.028.011Zm-.027.378.026.016-.002.002-.024-.018Zm.238.024L27 12.432l.027.014Zm.545.336.014-.026.016.009v.017h-.03Zm0 1.326h.03v.03h-.03v-.03Zm-.169-1.326h-.03v-.018l.017-.008.013.026Zm0 1.326v.03h-.03v-.03h.03Zm-.327-.012v-1.74h.06v1.74h-.06Zm-2.096-.03h2.126v.06H24.98v-.06Zm.03-1.704v1.734h-.06v-1.734h.06Zm.023.102a.407.407 0 0 0-.035-.057c-.01-.014-.016-.015-.018-.015v-.06c.03 0 .05.02.065.037a.429.429 0 0 1 .04.066l-.052.029Zm.23.18c-.134 0-.192-.11-.23-.18l.053-.029c.04.076.083.15.177.15v.06Zm.06-.238c.028.045.049.1.045.146a.097.097 0 0 1-.028.066.108.108 0 0 1-.077.026v-.06c.02 0 .03-.005.035-.01.006-.005.01-.013.01-.026a.2.2 0 0 0-.036-.11l.05-.032Zm-.025-.35a.384.384 0 0 0-.033.217.38.38 0 0 0 .058.134l-.052.03a.441.441 0 0 1-.065-.153.443.443 0 0 1 .036-.251l.056.023Zm.183.088a.084.084 0 0 1 .003.042.05.05 0 0 1-.026.035.066.066 0 0 1-.04.006.126.126 0 0 1-.037-.011.303.303 0 0 1-.139-.16l.056-.023a.245.245 0 0 0 .109.128.065.065 0 0 0 .02.007h.003a.01.01 0 0 0-.005.005v-.003l-.001-.009.057-.017Zm-.066-.133c.023.036.05.077.066.133l-.057.017a.437.437 0 0 0-.06-.117l.051-.033Zm-.016-.285a.31.31 0 0 0-.035.174.29.29 0 0 0 .051.111l-.05.033c-.024-.039-.051-.08-.06-.134a.366.366 0 0 1 .039-.208l.055.024Zm.15.058c.01.035.008.068-.009.092a.07.07 0 0 1-.076.028c-.055-.013-.105-.078-.122-.185l.059-.01c.016.098.058.132.077.137.008.002.011 0 .013-.003.003-.005.007-.017 0-.043l.058-.016Zm-.036-.093a.79.79 0 0 1 .036.093l-.058.017a.726.726 0 0 0-.033-.086l.055-.024Zm.013-.274a.293.293 0 0 0-.048.157.33.33 0 0 0 .035.117l-.055.024c-.018-.042-.038-.086-.04-.139a.35.35 0 0 1 .056-.188l.052.03Zm.139.057a.225.225 0 0 1-.016.091.072.072 0 0 1-.025.03.05.05 0 0 1-.042.007.078.078 0 0 1-.035-.022.187.187 0 0 1-.027-.039.604.604 0 0 1-.05-.13l.059-.016c.014.054.03.092.044.117a.129.129 0 0 0 .018.027c.005.005.008.006.007.005a.01.01 0 0 0-.006.002l.003-.006a.168.168 0 0 0 .01-.066h.06Zm0-.013v.013h-.06v-.013h.06Zm.26-.456c-.133.036-.196.103-.227.18a.743.743 0 0 0-.033.276h-.06c0-.096-.001-.204.037-.298.04-.097.118-.175.268-.216l.016.058Zm.115-.179a.054.054 0 0 0-.04.02.162.162 0 0 0-.031.051.362.362 0 0 0-.02.076v.005l-.001.002-.03-.004-.03-.003v-.003a.305.305 0 0 1 .005-.028.413.413 0 0 1 .02-.067.221.221 0 0 1 .043-.071.113.113 0 0 1 .084-.038v.06Zm.128.15-.03.004v-.007a.4.4 0 0 0-.022-.075c-.017-.043-.042-.072-.076-.072v-.06c.073 0 .113.062.132.109a.402.402 0 0 1 .026.097v.001l-.03.003Zm.253.498c0-.103 0-.202-.033-.285-.032-.08-.095-.147-.228-.184l.016-.058c.15.042.229.121.268.22.038.096.037.207.037.307h-.06Zm.194-.064a.604.604 0 0 1-.05.131.191.191 0 0 1-.026.039.078.078 0 0 1-.035.022.05.05 0 0 1-.042-.006.072.072 0 0 1-.025-.03.223.223 0 0 1-.016-.092h.06a.17.17 0 0 0 .01.066l.003.006a.01.01 0 0 0-.006-.002s.002 0 .007-.005a.137.137 0 0 0 .018-.027.546.546 0 0 0 .044-.117l.058.015Zm-.042.28a.325.325 0 0 0 .035-.116.293.293 0 0 0-.048-.157l.053-.03a.35.35 0 0 1 .055.19c-.002.052-.022.096-.04.138l-.055-.024Zm-.036.094a.777.777 0 0 1 .036-.093l.055.024a.709.709 0 0 0-.033.086l-.058-.017Zm.207-.065c-.017.107-.067.172-.122.185a.07.07 0 0 1-.076-.028c-.017-.024-.018-.057-.009-.092l.058.016c-.007.026-.003.038 0 .043.002.002.005.005.013.003.02-.005.06-.039.077-.136l.06.01Zm-.073.292a.29.29 0 0 0 .05-.11.309.309 0 0 0-.034-.175l.055-.024a.368.368 0 0 1 .04.208c-.01.054-.037.095-.061.134l-.05-.033Zm-.066.133c.016-.056.043-.097.066-.133l.05.033a.437.437 0 0 0-.059.117l-.057-.017Zm.239-.088a.303.303 0 0 1-.14.16.126.126 0 0 1-.037.011.066.066 0 0 1-.039-.006.051.051 0 0 1-.026-.035.085.085 0 0 1 .003-.042l.057.017a.048.048 0 0 0-.002.01v.002a.01.01 0 0 0-.004-.005h.004a.064.064 0 0 0 .019-.007.245.245 0 0 0 .11-.128l.055.023Zm-.08.35a.381.381 0 0 0 .057-.133.383.383 0 0 0-.033-.217l.056-.023a.443.443 0 0 1 .036.25.441.441 0 0 1-.066.155l-.05-.031Zm.059.238a.111.111 0 0 1-.077-.026.099.099 0 0 1-.03-.065.233.233 0 0 1 .049-.148l.048.035a.174.174 0 0 0-.038.107c.001.013.005.022.011.027.006.005.017.01.037.01v.06Zm.23-.184c-.038.071-.096.184-.23.184v-.06c.093 0 .136-.075.177-.152l.053.028Zm.053-.074c-.002 0-.007.001-.018.015a.443.443 0 0 0-.035.059L27 12.43c.013-.023.026-.048.04-.067.015-.018.036-.038.066-.038v.06Zm.496.396v1.326h-.06v-1.326h.06Zm-.212-.027a.2.2 0 0 1 .196.001l-.029.053c-.044-.025-.088-.026-.14 0l-.027-.053Zm-.017 1.353v-1.326h.06v1.326h-.06Zm.199.03h-.169v-.06h.169v.06Z"/><path fill="#fff" fill-rule="evenodd" d="M24.642 14.108v-.864c-.033-.024-.094-.018-.134 0v.864h.134Zm2.444 0c.054-.258.263-.372.473-.468v.468h-.473Z" clip-rule="evenodd"/><path fill="#000" d="m24.642 13.244.018-.024.012.009v.015h-.03Zm0 .864h.03v.03h-.03v-.03Zm-.134-.864h-.03v-.02l.017-.007.012.027Zm0 .864v.03h-.03v-.03h.03Zm3.05-.468-.012-.027.043-.02v.047h-.03Zm-.472.468v.03h-.037l.008-.036.03.006Zm.473 0h.03v.03h-.03v-.03Zm-2.887-.864v.864h-.06v-.864h.06Zm-.177-.027a.224.224 0 0 1 .082-.018.144.144 0 0 1 .083.02l-.035.05a.078.078 0 0 0-.047-.01.16.16 0 0 0-.058.013l-.025-.055Zm-.018.891v-.864h.06v.864h-.06Zm.165.03h-.134v-.06h.134v.06Zm2.93-.47c-.21.096-.406.205-.456.447l-.06-.013c.058-.274.281-.393.49-.489l.025.055Zm-.043.44v-.468h.06v.468h-.06Zm-.443-.03h.473v.06h-.473v-.06Z"/><path fill="#fff" fill-rule="evenodd" d="m25.776 11.528.122.09h.304l.121-.096v-.12c-.047.012-.067.018-.101.06a.315.315 0 0 0-.175-.174.312.312 0 0 0-.17.18c-.033-.042-.06-.06-.1-.06v.12Zm-.796 2.574c-.054-.264-.263-.372-.473-.462v.462h.473Z" clip-rule="evenodd"/><path fill="#000" d="M25.898 11.618v.03h-.01l-.008-.006.018-.024Zm-.122-.09-.017.024-.012-.009v-.015h.03Zm.426.09.018.024-.008.006h-.01v-.03Zm.121-.096h.03v.015l-.011.009-.019-.024Zm0-.12-.007-.029.037-.01v.04h-.03Zm-.101.06.023.019-.032.04-.019-.048.028-.01Zm-.175-.174-.013-.027.012-.006.012.005-.011.028Zm-.17.18.03.01-.018.051-.035-.042.024-.019Zm-.1-.06h-.03v-.03h.03v.03Zm-1.27 2.232h-.03v-.046l.042.019-.011.027Zm.473.462.03-.006.007.036h-.037v-.03Zm-.473 0v.03h-.03v-.03h.03Zm1.373-2.46-.121-.09.035-.048.122.09-.036.048Zm.322.006h-.304v-.06h.304v.06Zm.14-.102-.122.096-.037-.047.122-.097.037.048Zm.011-.144v.12h-.06v-.12h.06Zm-.154.041a.18.18 0 0 1 .054-.048c.02-.01.04-.016.063-.022l.015.058a.205.205 0 0 0-.05.016.121.121 0 0 0-.036.034l-.046-.038Zm-.14-.183a.35.35 0 0 1 .191.191l-.056.022a.285.285 0 0 0-.16-.157l.024-.056Zm-.21.198a.342.342 0 0 1 .185-.197l.025.054a.282.282 0 0 0-.153.163l-.057-.02Zm-.073-.08c.026 0 .048.006.07.019.02.012.037.03.055.052l-.047.038a.165.165 0 0 0-.04-.039.068.068 0 0 0-.038-.01v-.06Zm-.03.15v-.12h.06v.12h-.06Zm-1.227 2.085c.21.09.433.203.49.483l-.058.012c-.051-.247-.246-.35-.455-.44l.023-.055Zm-.041.49v-.463h.06v.462h-.06Zm.502.03h-.473v-.06h.473v.06Z"/><path fill="#fff" stroke="#000" stroke-width=".06" d="m25.83 11.912-.053-.114v-.15c.04 0 .067.018.1.06a.312.312 0 0 1 .17-.18.316.316 0 0 1 .175.174c.034-.042.054-.048.101-.054v.15l-.054.114h-.438Z"/><path fill="#fff" stroke="#000" stroke-width=".06" d="m25.817 12.308-.176-.198v-.192c.068 0 .102.03.149.096.047-.138.135-.162.256-.228.128.06.216.09.257.222.054-.066.087-.084.155-.09v.192l-.182.198h-.46Z"/><path fill="#fff" stroke="#000" stroke-width=".06" d="M25.77 12.698s-.216-.162-.223-.252v-.21c.081.006.155.024.216.114.054-.174.135-.222.284-.3.155.078.236.126.283.3.068-.09.135-.108.223-.12v.216a.925.925 0 0 1-.223.252h-.56Z"/><path fill="#fff" stroke="#000" stroke-width=".06" d="M25.682 13.418s-.297-.282-.304-.396v-.324c.108.012.216.078.297.216.068-.27.176-.456.372-.588.202.132.31.318.378.588.08-.138.182-.204.29-.216v.324c-.02.114-.297.396-.297.396h-.736Z"/><path fill="#fff" stroke="#000" stroke-width=".06" d="M25.682 13.844s-.25-.222-.304-.318v-.324c.108.012.216.078.297.21a.83.83 0 0 1 .372-.552c.202.132.31.282.378.552.08-.132.182-.198.29-.21v.324a3.744 3.744 0 0 1-.297.318h-.736Z"/><path fill="#fff" stroke="#000" stroke-width=".06" d="M25.58 14.096c.068-.282.136-.492.48-.702.35.21.412.42.486.702h-.965Z"/><path fill="#fff" stroke="#000" stroke-width=".06" d="M25.399 14.252v-.408c.162.06.303.138.357.228.054-.228.17-.324.31-.462.143.138.237.24.298.462.054-.09.196-.174.35-.228v.408H25.4Z"/><path fill="#fff" fill-rule="evenodd" d="M28.402 16.43h-14.81v.486h14.81v-.486Zm-15.68 1.128H29.28v.75h.438v.75H12.284v-.75h.439v-.75Z" clip-rule="evenodd"/><path fill="#000" d="M13.593 16.43v-.03h-.03v.03h.03Zm14.81 0h.03v-.03h-.03v.03Zm-14.81.486h-.03v.03h.03v-.03Zm14.81 0v.03h.03v-.03h-.03Zm.877.642h.03v-.03h-.03v.03Zm-16.558 0v-.03h-.03v.03h.03Zm16.558.75h-.03v.03h.03v-.03Zm.438 0h.03v-.03h-.03v.03Zm0 .75v.03h.03v-.03h-.03Zm-17.435 0h-.03v.03h.03v-.03Zm0-.75v-.03h-.03v.03h.03Zm.439 0v.03h.03v-.03h-.03Zm.87-1.848h14.81v-.06h-14.81v.06Zm.03.456v-.486h-.06v.486h.06Zm14.78-.03h-14.81v.06h14.81v-.06Zm-.03-.456v.486h.06v-.486h-.06Zm.908 1.098H12.722v.06H29.28v-.06Zm.03.78v-.75h-.06v.75h.06Zm.409-.03h-.44v.06h.44v-.06Zm.03.78v-.75h-.06v.75h.06Zm-17.466.03h17.435v-.06H12.284v.06Zm-.03-.78v.75h.06v-.75h-.06Zm.469-.03h-.439v.06h.439v-.06Zm-.03-.72v.75h.06v-.75h-.06Z"/><path fill="#fff" fill-rule="evenodd" d="M28.16 16.058H13.85v.372h14.31v-.372Zm.688.858H13.16v.636h15.687v-.636Z" clip-rule="evenodd"/><path fill="#000" d="M13.85 16.058v-.03h-.03v.03h.03Zm14.31 0h.03v-.03h-.03v.03Zm-14.31.372h-.03v.03h.03v-.03Zm14.31 0v.03h.03v-.03h-.03Zm-15 .486v-.03h-.03v.03h.03Zm15.688 0h.03v-.03h-.03v.03Zm-15.687.636h-.03v.03h.03v-.03Zm15.687 0v.03h.03v-.03h-.03Zm-14.999-1.464h14.31v-.06H13.85v.06Zm.03.342v-.372h-.06v.372h.06Zm14.28-.03H13.85v.06h14.31v-.06Zm-.03-.342v.372h.06v-.372h-.06Zm-14.968.888h15.687v-.06H13.16v.06Zm.03.606v-.636h-.06v.636h.06Zm15.657-.03H13.16v.06h15.687v-.06Zm-.03-.606v.636h.06v-.636h-.06Z"/><path fill="#fff" stroke="#000" stroke-width=".06" d="M15.402 16.058h1.08v3h-1.08v-3Z"/><path fill="#fff" fill-rule="evenodd" d="M16.246 16.058h-.601l-.007 3h.608v-3Zm5.271 0h-1.08v3h1.08v-3Z" clip-rule="evenodd"/><path fill="#000" d="M15.645 16.058v-.03h-.03v.03h.03Zm.6 0h.03v-.03h-.03v.03Zm-.607 3h-.03v.03h.03v-.03Zm.608 0v.03h.03v-.03h-.03Zm4.191-3v-.03h-.03v.03h.03Zm1.08 0h.03v-.03h-.03v.03Zm-1.08 3h-.03v.03h.03v-.03Zm1.08 0v.03h.03v-.03h-.03Zm-5.872-2.97h.6v-.06h-.6v.06Zm.023 2.97.007-3h-.06l-.007 3h.06Zm.578-.03h-.608v.06h.608v-.06Zm-.03-2.97v3h.06v-3h-.06Zm4.221.03h1.08v-.06h-1.08v.06Zm.03 2.97v-3h-.06v3h.06Zm1.05-.03h-1.08v.06h1.08v-.06Zm-.03-2.97v3h.06v-3h-.06Z"/><path fill="#fff" fill-rule="evenodd" d="M21.294 16.058h-.607v3h.607v-3Zm5.3 0h-1.08v3h1.08v-3Z" clip-rule="evenodd"/><path fill="#000" d="M20.687 16.058v-.03h-.03v.03h.03Zm.607 0h.03v-.03h-.03v.03Zm-.607 3h-.03v.03h.03v-.03Zm.607 0v.03h.03v-.03h-.03Zm4.22-3v-.03h-.03v.03h.03Zm1.08 0h.03v-.03h-.03v.03Zm-1.08 3h-.03v.03h.03v-.03Zm1.08 0v.03h.03v-.03h-.03Zm-5.907-2.97h.607v-.06h-.607v.06Zm.03 2.97v-3h-.06v3h.06Zm.578-.03h-.608v.06h.607v-.06Zm-.03-2.97v3h.06v-3h-.06Zm4.248.03h1.08v-.06h-1.08v.06Zm.03 2.97v-3h-.06v3h.06Zm1.05-.03h-1.08v.06h1.08v-.06Zm-.03-2.97v3h.06v-3h-.06Z"/><path fill="#fff" stroke="#000" stroke-width=".06" d="M25.75 16.058h.607v3h-.607v-3Z"/><path fill="#000" d="M14.497 15.802h13.028v-.06H14.497v.06Zm1.134 2.928h.621v-.06h-.62v.06Zm0-.378h.621v-.06h-.62v.06Zm0-.372h.621v-.06h-.62v.06Zm0-.378h.621v-.06h-.62v.06Zm0-.372h.621v-.06h-.62v.06Zm0-.378h.621v-.06h-.62v.06Zm0-.372h.621v-.06h-.62v.06Zm5.063 2.25h.58v-.06h-.58v.06Zm0-.378h.58v-.06h-.58v.06Zm0-.372h.58v-.06h-.58v.06Zm0-.378h.58v-.06h-.58v.06Zm0-.372h.58v-.06h-.58v.06Zm0-.378h.58v-.06h-.58v.06Zm0-.372h.58v-.06h-.58v.06Zm5.049 2.25h.62v-.06h-.62v.06Zm0-.378h.62v-.06h-.62v.06Zm0-.372h.62v-.06h-.62v.06Zm0-.378h.62v-.06h-.62v.06Zm0-.372h.62v-.06h-.62v.06Zm0-.378h.62v-.06h-.62v.06Zm0-.372h.62v-.06h-.62v.06Z"/></g></g></g><defs><clipPath id="b"><rect width="36" height="24" x="3" y="2" fill="#fff" rx="2"/></clipPath><filter id="a" width="42" height="30" x="0" y="0" color-interpolation-filters="sRGB" filterUnits="userSpaceOnUse"><feFlood flood-opacity="0" result="BackgroundImageFix"/><feColorMatrix in="SourceAlpha" result="hardAlpha" values="0 0 0 0 0 0 0 0 0 0 0 0 0 0 0 0 0 0 127 0"/><feOffset dy="1"/><feGaussianBlur stdDeviation="1"/><feColorMatrix values="0 0 0 0 0.0627451 0 0 0 0 0.0941176 0 0 0 0 0.156863 0 0 0 0.06 0"/><feBlend in2="BackgroundImageFix" result="effect1_dropShadow_91_27113"/><feColorMatrix in="SourceAlpha" result="hardAlpha" values="0 0 0 0 0 0 0 0 0 0 0 0 0 0 0 0 0 0 127 0"/><feOffset dy="1"/><feGaussianBlur stdDeviation="1.5"/><feColorMatrix values="0 0 0 0 0.0627451 0 0 0 0 0.0941176 0 0 0 0 0.156863 0 0 0 0.1 0"/><feBlend in2="effect1_dropShadow_91_27113" result="effect2_dropShadow_91_27113"/><feBlend in="SourceGraphic" in2="effect2_dropShadow_91_27113" result="shape"/></filter></defs></svg>