<svg xmlns="http://www.w3.org/2000/svg" fill="none" aria-hidden="true" viewBox="0 0 42 30"><g id="Country=FI - Finland, Size=sm (36x24)" filter="url(#filter0_dd_91_28387)"><g clip-path="url(#clip0_91_28387)"><g id="flag"><mask id="mask0_91_28387" width="36" height="24" x="3" y="2" maskUnits="userSpaceOnUse" style="mask-type:alpha"><rect id="mask" width="36" height="24" x="3" y="2" fill="white"/></mask><g mask="url(#mask0_91_28387)"><g id="contents"><path id="background" fill="#F7FCFF" fill-rule="evenodd" d="M3 2V26H39V2H3Z" clip-rule="evenodd"/><mask id="mask1_91_28387" width="36" height="24" x="3" y="2" maskUnits="userSpaceOnUse" style="mask-type:alpha"><path id="background_2" fill="white" fill-rule="evenodd" d="M3 2V26H39V2H3Z" clip-rule="evenodd"/></mask><g mask="url(#mask1_91_28387)"><g id="mark"><path id="cross" fill="#2E42A5" stroke="#2E42A5" stroke-width="2" d="M15.1708 3H14.1708V4V12.323H3H2V13.323V15.323V16.323H3H14.1708V26V27H15.1708H17.4208H18.4208V26V16.323H39H40V15.323V13.323V12.323H39H18.4208V4V3H17.4208H15.1708Z"/></g></g></g></g></g></g></g><defs><filter id="filter0_dd_91_28387" width="42" height="30" x="0" y="0" color-interpolation-filters="sRGB" filterUnits="userSpaceOnUse"><feFlood flood-opacity="0" result="BackgroundImageFix"/><feColorMatrix in="SourceAlpha" result="hardAlpha" values="0 0 0 0 0 0 0 0 0 0 0 0 0 0 0 0 0 0 127 0"/><feOffset dy="1"/><feGaussianBlur stdDeviation="1"/><feColorMatrix values="0 0 0 0 0.0627451 0 0 0 0 0.0941176 0 0 0 0 0.156863 0 0 0 0.06 0"/><feBlend in2="BackgroundImageFix" result="effect1_dropShadow_91_28387"/><feColorMatrix in="SourceAlpha" result="hardAlpha" values="0 0 0 0 0 0 0 0 0 0 0 0 0 0 0 0 0 0 127 0"/><feOffset dy="1"/><feGaussianBlur stdDeviation="1.5"/><feColorMatrix values="0 0 0 0 0.0627451 0 0 0 0 0.0941176 0 0 0 0 0.156863 0 0 0 0.1 0"/><feBlend in2="effect1_dropShadow_91_28387" result="effect2_dropShadow_91_28387"/><feBlend in="SourceGraphic" in2="effect2_dropShadow_91_28387" result="shape"/></filter><clipPath id="clip0_91_28387"><rect width="36" height="24" x="3" y="2" fill="white" rx="2"/></clipPath></defs></svg>