<svg xmlns="http://www.w3.org/2000/svg" fill="none" aria-hidden="true" viewBox="0 0 42 30"><g filter="url(#a)"><g clip-path="url(#b)"><mask id="c" width="36" height="24" x="3" y="2" maskUnits="userSpaceOnUse" style="mask-type:alpha"><path fill="#fff" d="M3 2h36v24H3z"/></mask><g mask="url(#c)"><path fill="#67BFE5" fill-rule="evenodd" d="M3 2v24h36V2H3Z" clip-rule="evenodd"/><mask id="d" width="36" height="24" x="3" y="2" maskUnits="userSpaceOnUse" style="mask-type:alpha"><path fill="#fff" fill-rule="evenodd" d="M3 2v24h36V2H3Z" clip-rule="evenodd"/></mask><g mask="url(#d)"><path fill="#F7FCFF" fill-rule="evenodd" d="M25.5 12h10.862v8.333S35.452 24 30.931 24c-4.52 0-5.431-3.667-5.431-3.667V12Z" clip-rule="evenodd"/><mask id="e" width="12" height="12" x="25" y="12" maskUnits="userSpaceOnUse" style="mask-type:alpha"><path fill="#fff" fill-rule="evenodd" d="M25.5 12h10.862v8.333S35.452 24 30.931 24c-4.52 0-5.431-3.667-5.431-3.667V12Z" clip-rule="evenodd"/></mask><g mask="url(#e)"><g fill="#C3352C"><path d="M25.5 12h10.862v3H25.5z"/><path d="M30.155 14.667h1.552V24h-1.552z"/><path d="M25.5 18.333h10.862v1.333H25.5z"/></g><path fill="#979797" fill-rule="evenodd" d="M28.358 22.737c.653.82 1.186 1.141 1.562.657.264-.34.291-.68-.085-.746a5.603 5.603 0 0 1-.46-.574l.012-.01c.105-.091.11-.213.088-.259-.007-.062.045-.146.384-.377.308-.209.444-.405.243-.622-.106-.114-.201-.137-.502-.178l-.092-.013a1.764 1.764 0 0 1-.194-.036l-.209-.355a2.858 2.858 0 0 0-1.15.196l-.34.128c-.11.042-.137.052-.138.05l.006-.004c.008-.006.023-.016.002-.016a3.75 3.75 0 0 1-.4-.034l-.047-.006c-.678-.076-.849-.073-.959.208-.167.427.824 1.21 1.35 1.305.264.047.58.272.93.686Zm.739-.588a.68.68 0 0 0 .156-.013l.013-.026a.322.322 0 0 1-.17.038Zm-2.478-1.18c-.014-.015-.018-.034-.008-.059-.002.005.004.016.017.032l-.01.026Zm.067.031a.707.707 0 0 1-.058-.058l-.01.026a.142.142 0 0 0 .068.032Zm.854.56c-.188-.033-.668-.388-.854-.56.049.012.115.018.187.025l.095.01.046.005c.265.03.358.038.47.038.066 0 .052.02.044.032-.002.004-.004.007-.003.008.003.006.053-.013.311-.11l.338-.127c.2-.075.382-.124.581-.146.022.084.077.16.166.222.12.082.255.117.488.15-.29.212-.434.39-.48.562-.26.073-.237.334-.08.594.108.182.314.439.62.78l.22.093a.2.2 0 0 1-.129-.046c-.035-.026-.055-.04-.103.02-.003.004-.208-.12-.644-.668-.43-.509-.847-.805-1.273-.881Zm1.372.3c.004-.002.004-.006.003-.01l-.003.01Zm.18-.211h-.017.017Zm.005 0h-.005Z" clip-rule="evenodd"/><path stroke="#964C36" d="M27.362 18.11s-.537-.66-.537-.895"/><path stroke="#2A8E51" d="M27.029 17.543s-.687-.26-.687 0m.675-.274s-.482-.546-.845-.546-.354.273-.354.273m.924-.274s-.216-.893-.56-.893c-.346 0-.346.447-.346.447m.994.444s-.097-.765.347-.765"/><path stroke="#964C36" d="M28.044 17.981s-.25-.783-.16-1.004"/><path stroke="#2A8E51" d="M27.95 17.347s-.545-.454-.646-.209m.74-.052s-.244-.66-.585-.77c-.34-.11-.437.149-.437.149m.973.023s.142-.904-.183-1.01c-.324-.104-.495.316-.495.316m.761.719s.204-.748.622-.613"/><g stroke-width=".7"><path stroke="#964C36" d="M28.596 18.26s.356-.75.297-.98"/><path stroke="#2A8E51" d="M28.777 17.64s.603-.39.67-.137m-.728-.132s.332-.628.686-.7c.353-.073.414.195.414.195m-.969-.082s-.017-.913.32-.982c.335-.07.448.366.448.366m-.854.632s-.1-.765-.533-.677"/></g><g stroke="#2A8E51" stroke-width=".7"><path d="M33.035 17.802s.272-1.114 1.047-1.114c.775 0 1.121 1.177 1.121 1.177"/><path d="M32.395 17.042s.418-.658 1.794-.604c1.377.053 1.628.604 1.628.604m-3.7-.837s.757-.832 1.817-.127l.358.127s.36-.943 2.1 0"/></g><path stroke="#964C36" d="M34.206 18.037s.055-1.04.24-1.325m1.29 3.602s-.695-.29-.903 0c-.209.29-2.715 2.962-2.715 2.962"/><path fill="#FFF203" fill-rule="evenodd" d="m33.335 20.595 1.553.966s.715-.454.358-.71c-.358-.256-1.332-.707-1.332-.707l-.579.451Z" clip-rule="evenodd"/><path fill="#00A651" fill-rule="evenodd" d="M33.281 20.645s-.36.334-.36.59c0 .256-.335.942-.335.942s.937.513 1.131.186c.195-.326 1.458-.13 1.235-.63-.223-.498-1.67-1.088-1.67-1.088Z" clip-rule="evenodd"/><path fill="#FFD100" fill-rule="evenodd" d="M26.689 13.182s.829-.378 1.24 0c.41.379.747-.031.747-.26 0-.228.652-1.01.652-.375s-.203.994.37.994 3.153-.878 3.772-.618c.619.26 1.092.195.935-.178-.157-.372-.562-.605-1.34-.402-.779.204-.595.402-1.268.402-.672 0-1.421-.198-1.421-.198s.21-.334.978-.097c.768.238 1.828-.294 2.116-.294.288 0 1.081-.016 1.16.187.078.204.557.39.192.58-.365.19-.967.308-.553.55.415.244 1.367.197 1.413.45.045.252.497.63.316.63s-.509.355-.814.246c-.304-.108-.34-.203-.048-.29.292-.088.29-.457.048-.457-.24 0-.123.129-.672 0-.549-.13-1.275-.273-1.232 0 .044.273.401.692-.258.748-.66.055-.968.28-1.096.099-.129-.18-.587-.421-.227-.498.361-.077.706.262.836.207.13-.056.424-.087.177-.322-.246-.234-.653-.373-.276-.548.377-.176.08-.18-.639.184-.718.364-1.117.674-1.748.63-.63-.044-.867.015-1.07-.044-.202-.059-1.19.653-1.473.472-.285-.18-1.202-.25-1.037-.472.165-.221.387-.336.634-.221.247.114.492.228.659.114.167-.114.648-.507.527-.585-.121-.078-.004-.342-.69-.342-.685 0-.925.294-1.088.109-.163-.186.178-.4.178-.4Z" clip-rule="evenodd"/></g><path fill="#2B409A" d="M3 2h20.25v14H3z"/><mask id="f" width="21" height="14" x="3" y="2" maskUnits="userSpaceOnUse" style="mask-type:alpha"><path fill="#fff" d="M3 2h20.25v14H3z"/></mask><g mask="url(#f)"><path fill="#F7FCFF" d="m.745 15 4.456 1.737L23.351 3.89l2.35-2.582-4.765-.58-7.402 5.536-5.96 3.73L.746 15Z"/><path fill="#F50100" d="m1.355 16.217 2.27 1.008L24.857 1.067H21.67L1.355 16.217Z"/><path fill="#F7FCFF" d="m25.505 15-4.456 1.737L2.899 3.89.549 1.307l4.765-.58 7.402 5.536 5.96 3.73L25.504 15Z"/><path fill="#F50100" d="m25.353 15.873-2.27 1.008-9.041-6.918-2.68-.773L.322 1.316H3.51l11.033 7.688 2.93.926 7.88 5.943Z"/><mask id="g" width="24" height="18" x="1" y="0" fill="#000" maskUnits="userSpaceOnUse"><path fill="#fff" d="M1 0h24v18H1z"/><path fill-rule="evenodd" d="M14.233 2h-2.25v6H3v2h8.983v6h2.25v-6h9.017V8h-9.017V2Z" clip-rule="evenodd"/></mask><path fill="#F50100" fill-rule="evenodd" d="M14.233 2h-2.25v6H3v2h8.983v6h2.25v-6h9.017V8h-9.017V2Z" clip-rule="evenodd"/><path fill="#F7FCFF" d="M11.983 2V.5h-1.5V2h1.5Zm2.25 0h1.5V.5h-1.5V2Zm-2.25 6v1.5h1.5V8h-1.5ZM3 8V6.5H1.5V8H3Zm0 2H1.5v1.5H3V10Zm8.983 0h1.5V8.5h-1.5V10Zm0 6h-1.5v1.5h1.5V16Zm2.25 0v1.5h1.5V16h-1.5Zm0-6V8.5h-1.5V10h1.5Zm9.017 0v1.5h1.5V10h-1.5Zm0-2h1.5V6.5h-1.5V8Zm-9.017 0h-1.5v1.5h1.5V8Zm-2.25-4.5h2.25v-3h-2.25v3Zm1.5 4.5V2h-3v6h3ZM3 9.5h8.983v-3H3v3Zm1.5.5V8h-3v2h3Zm7.483-1.5H3v3h8.983v-3Zm1.5 7.5v-6h-3v6h3Zm.75-1.5h-2.25v3h2.25v-3Zm-1.5-4.5v6h3v-6h-3ZM23.25 8.5h-9.017v3h9.017v-3Zm-1.5-.5v2h3V8h-3Zm-7.517 1.5h9.017v-3h-9.017v3Zm-1.5-7.5v6h3V2h-3Z" mask="url(#g)"/></g></g></g></g></g><defs><clipPath id="b"><rect width="36" height="24" x="3" y="2" fill="#fff" rx="2"/></clipPath><filter id="a" width="42" height="30" x="0" y="0" color-interpolation-filters="sRGB" filterUnits="userSpaceOnUse"><feFlood flood-opacity="0" result="BackgroundImageFix"/><feColorMatrix in="SourceAlpha" result="hardAlpha" values="0 0 0 0 0 0 0 0 0 0 0 0 0 0 0 0 0 0 127 0"/><feOffset dy="1"/><feGaussianBlur stdDeviation="1"/><feColorMatrix values="0 0 0 0 0.0627451 0 0 0 0 0.0941176 0 0 0 0 0.156863 0 0 0 0.06 0"/><feBlend in2="BackgroundImageFix" result="effect1_dropShadow_91_28322"/><feColorMatrix in="SourceAlpha" result="hardAlpha" values="0 0 0 0 0 0 0 0 0 0 0 0 0 0 0 0 0 0 127 0"/><feOffset dy="1"/><feGaussianBlur stdDeviation="1.5"/><feColorMatrix values="0 0 0 0 0.0627451 0 0 0 0 0.0941176 0 0 0 0 0.156863 0 0 0 0.1 0"/><feBlend in2="effect1_dropShadow_91_28322" result="effect2_dropShadow_91_28322"/><feBlend in="SourceGraphic" in2="effect2_dropShadow_91_28322" result="shape"/></filter></defs></svg>