<svg xmlns="http://www.w3.org/2000/svg" fill="none" aria-hidden="true" viewBox="0 0 42 30"><g id="Country=GG - Guernsey, Size=sm (36x24)" filter="url(#filter0_dd_91_28121)"><g clip-path="url(#clip0_91_28121)"><g id="flag"><mask id="mask0_91_28121" width="36" height="24" x="3" y="2" maskUnits="userSpaceOnUse" style="mask-type:alpha"><rect id="mask" width="36" height="24" x="3" y="2" fill="white"/></mask><g mask="url(#mask0_91_28121)"><g id="contents"><path id="background" fill="#F7FCFF" fill-rule="evenodd" d="M3 2V26H39V2H3Z" clip-rule="evenodd"/><mask id="mask1_91_28121" width="36" height="24" x="3" y="2" maskUnits="userSpaceOnUse" style="mask-type:alpha"><path id="background_2" fill="white" fill-rule="evenodd" d="M3 2V26H39V2H3Z" clip-rule="evenodd"/></mask><g mask="url(#mask1_91_28121)"><g id="mark 1"><path id="cross" fill="#E31D1C" fill-rule="evenodd" d="M16.5 2H25.5V10H39V18H25.5V26H16.5V18H3V10H16.5V2Z" clip-rule="evenodd"/><path id="cross - yellow" fill="#FECA00" fill-rule="evenodd" d="M17.6312 5.0459L18.75 6.80013V11.9999H10.7234V11.9428L8.7442 10.9454V16.9056L10.617 15.9999H18.75V21.0509L17.6312 22.8051H24.3364L23.2596 21.0459H23.25V15.9999H31.3506L33.2234 16.9056V10.9454L31.2442 11.9428V11.9999H23.25V6.80516H23.2596L24.3364 5.0459H17.6312Z" clip-rule="evenodd"/></g></g></g></g></g></g></g><defs><filter id="filter0_dd_91_28121" width="42" height="30" x="0" y="0" color-interpolation-filters="sRGB" filterUnits="userSpaceOnUse"><feFlood flood-opacity="0" result="BackgroundImageFix"/><feColorMatrix in="SourceAlpha" result="hardAlpha" values="0 0 0 0 0 0 0 0 0 0 0 0 0 0 0 0 0 0 127 0"/><feOffset dy="1"/><feGaussianBlur stdDeviation="1"/><feColorMatrix values="0 0 0 0 0.0627451 0 0 0 0 0.0941176 0 0 0 0 0.156863 0 0 0 0.06 0"/><feBlend in2="BackgroundImageFix" result="effect1_dropShadow_91_28121"/><feColorMatrix in="SourceAlpha" result="hardAlpha" values="0 0 0 0 0 0 0 0 0 0 0 0 0 0 0 0 0 0 127 0"/><feOffset dy="1"/><feGaussianBlur stdDeviation="1.5"/><feColorMatrix values="0 0 0 0 0.0627451 0 0 0 0 0.0941176 0 0 0 0 0.156863 0 0 0 0.1 0"/><feBlend in2="effect1_dropShadow_91_28121" result="effect2_dropShadow_91_28121"/><feBlend in="SourceGraphic" in2="effect2_dropShadow_91_28121" result="shape"/></filter><clipPath id="clip0_91_28121"><rect width="36" height="24" x="3" y="2" fill="white" rx="2"/></clipPath></defs></svg>