<svg xmlns="http://www.w3.org/2000/svg" fill="none" aria-hidden="true" viewBox="0 0 42 30"><g filter="url(#a)"><g clip-path="url(#b)"><mask id="c" width="36" height="24" x="3" y="2" maskUnits="userSpaceOnUse" style="mask-type:alpha"><path fill="#fff" d="M3 2h36v24H3z"/></mask><g mask="url(#c)"><path fill="#C51918" fill-rule="evenodd" d="M3 2h36v24H3V2Z" clip-rule="evenodd"/><path fill="#4564F9" fill-rule="evenodd" d="M7.5 6h27v16h-27V6Z" clip-rule="evenodd"/><path stroke="#CBDAFF" stroke-opacity=".1" stroke-width="2" d="M8.5 7h25v14h-25V7Z"/><mask id="d" width="28" height="16" x="7" y="6" maskUnits="userSpaceOnUse" style="mask-type:alpha"><path fill="#fff" fill-rule="evenodd" d="M7.5 6h27v16h-27V6Z" clip-rule="evenodd"/><path stroke="#fff" stroke-width="2" d="M8.5 7h25v14h-25V7Z"/></mask><g mask="url(#d)"><path stroke="#C1C9F1" stroke-opacity=".118" stroke-width="2.9" d="m21.563 7 .549-1.342-.562-.23-.559.24L21.563 7Zm0 0 .55-1.342.003.002.007.003.02.008a6.18 6.18 0 0 1 .29.128 17.234 17.234 0 0 1 3.094 1.836c1.623 1.218 3.673 3.284 3.673 6.118 0 2.802-2.014 4.99-3.617 6.321a19.08 19.08 0 0 1-3.354 2.214l-.02.01-.005.003H22.2v.001L21.562 21m0-14a86.331 86.331 0 0 0-.572-1.332l-.003.001-.006.003-.02.008a6.773 6.773 0 0 0-.287.133 17.982 17.982 0 0 0-3.082 1.872c-1.608 1.22-3.667 3.288-3.667 6.068 0 2.748 2.022 4.937 3.611 6.272a19.921 19.921 0 0 0 3.277 2.22l.064.033.018.01.006.003h.003v.001l.66-1.292m0 0 .637 1.302-.65.318-.645-.328.657-1.292Z"/><path fill="#CCE0E5" d="m21.45 8.037.625-1.309-.64-.305-.633.317.648 1.297Zm0 0c.625-1.309.626-1.309.626-1.308h.001l.002.001.006.003.017.008a6.517 6.517 0 0 1 .225.116 12.816 12.816 0 0 1 2.328 1.611c1.237 1.083 2.745 2.881 2.745 5.3 0 2.39-1.48 4.286-2.69 5.459a14.448 14.448 0 0 1-2.516 1.935l-.016.01-.005.003h-.002l-.001.001-.72-1.258m0-11.881c-.648-1.297-.649-1.297-.65-1.297l-.002.002-.006.003-.016.008a5.633 5.633 0 0 0-.223.12 13.408 13.408 0 0 0-2.315 1.64c-1.221 1.082-2.738 2.88-2.738 5.255 0 2.345 1.488 4.242 2.685 5.415a15.154 15.154 0 0 0 2.501 1.967l.015.01.006.002.002.002.741-1.246m0 0 .72 1.259-.734.418-.726-.43.74-1.247Z"/><path stroke="#C1C9F1" stroke-opacity=".748" stroke-width="2.9" d="m21.45 8.037.625-1.309-.64-.305-.633.317.648 1.297Zm0 0c.625-1.309.626-1.309.626-1.308h.001l.002.001.006.003.017.008a6.517 6.517 0 0 1 .225.116 12.816 12.816 0 0 1 2.328 1.611c1.237 1.083 2.745 2.881 2.745 5.3 0 2.39-1.48 4.286-2.69 5.459a14.448 14.448 0 0 1-2.516 1.935l-.016.01-.005.003h-.002l-.001.001-.72-1.258m0-11.881c-.648-1.297-.649-1.297-.65-1.297l-.002.002-.006.003-.016.008a5.633 5.633 0 0 0-.223.12 13.408 13.408 0 0 0-2.315 1.64c-1.221 1.082-2.738 2.88-2.738 5.255 0 2.345 1.488 4.242 2.685 5.415a15.154 15.154 0 0 0 2.501 1.967l.015.01.006.002.002.002.741-1.246m0 0 .72 1.259-.734.418-.726-.43.74-1.247Z"/><path stroke="#C51918" stroke-width="2.9" d="m21.45 8.037.625-1.309-.64-.305-.633.317.648 1.297Zm0 0c.625-1.309.626-1.309.626-1.308h.001l.002.001.006.003.017.008a6.517 6.517 0 0 1 .225.116 12.816 12.816 0 0 1 2.328 1.611c1.237 1.083 2.745 2.881 2.745 5.3 0 2.39-1.48 4.286-2.69 5.459a14.448 14.448 0 0 1-2.516 1.935l-.016.01-.005.003h-.002l-.001.001-.72-1.258m0-11.881c-.648-1.297-.649-1.297-.65-1.297l-.002.002-.006.003-.016.008a5.633 5.633 0 0 0-.223.12 13.408 13.408 0 0 0-2.315 1.64c-1.221 1.082-2.738 2.88-2.738 5.255 0 2.345 1.488 4.242 2.685 5.415a15.154 15.154 0 0 0 2.501 1.967l.015.01.006.002.002.002.741-1.246m0 0 .72 1.259-.734.418-.726-.43.74-1.247Z"/><mask id="e" width="10" height="12" x="16" y="8" maskUnits="userSpaceOnUse" style="mask-type:alpha"><path fill="#fff" d="M22.691 17.144c-.434.42-.873.77-1.23 1.028a12.16 12.16 0 0 1-1.246-1.06c-1.053-1.032-1.815-2.21-1.815-3.344 0-1.107.733-2.174 1.762-3.086.464-.411.933-.742 1.3-.976a9.9 9.9 0 0 1 1.283.944c1.014.888 1.755 1.955 1.755 3.117 0 1.19-.77 2.37-1.809 3.377Z"/><path stroke="#fff" stroke-width="2.9" d="M22.691 17.144c-.434.42-.873.77-1.23 1.028a12.16 12.16 0 0 1-1.246-1.06c-1.053-1.032-1.815-2.21-1.815-3.344 0-1.107.733-2.174 1.762-3.086.464-.411.933-.742 1.3-.976a9.9 9.9 0 0 1 1.283.944c1.014.888 1.755 1.955 1.755 3.117 0 1.19-.77 2.37-1.809 3.377Z"/></mask><g mask="url(#e)"><path fill="#91CBCB" d="M17.55 16h8.4v1.5h-8.4z"/><path fill="#FDF9A1" fill-rule="evenodd" d="M18.302 17.198s5.956.002 6.503-.18c.548-.183-1.027 3.507-3.04 3.507-2.012 0-3.463-3.327-3.463-3.327Z" clip-rule="evenodd"/><path fill="#A68861" d="m23.918 16.755-1.07.732c-1.686-1.948-2.394-3.963-2.092-6.02l1.339.156c-.253 1.722.345 3.424 1.823 5.132Z"/><path fill="#239E46" fill-rule="evenodd" d="m21.443 11.636-1.038 1.081c-.035.037-.097.003-.084-.047l.355-1.34h-1.6c-.055 0-.069-.076-.017-.096l1.362-.531-.97-1.136c-.032-.04.007-.097.055-.08l1.535.532.354-1.267c.014-.049.083-.049.096 0l.352 1.267 1.522-.527c.05-.017.088.043.053.081l-1.047 1.13 1.441.53c.053.02.039.097-.017.097H22.37l.218 1.369a.05.05 0 0 1-.085.043l-1.06-1.106ZM20.55 15h5.4v1.05h-5.4V15Z" clip-rule="evenodd"/><path fill="#C51918" fill-rule="evenodd" d="M19.731 14.393h-.005a.226.226 0 0 1-.115.128.476.476 0 0 1-.235.051.584.584 0 0 1-.211-.037.445.445 0 0 1-.165-.108.503.503 0 0 1-.107-.178.714.714 0 0 1-.038-.245c0-.092.012-.173.037-.244a.466.466 0 0 1 .277-.287.611.611 0 0 1 .22-.038c.113 0 .207.022.283.066a.464.464 0 0 1 .174.175l-.124.066a.322.322 0 0 0-.129-.138.395.395 0 0 0-.204-.05.421.421 0 0 0-.151.025.324.324 0 0 0-.194.187.389.389 0 0 0-.027.148v.178c0 .054.009.104.027.149a.322.322 0 0 0 .197.187.495.495 0 0 0 .285.011.323.323 0 0 0 .103-.045.22.22 0 0 0 .07-.075.213.213 0 0 0 .025-.106v-.109h-.277v-.116h.425v.565h-.14v-.16Zm.94-.939v.68c0 .105.022.185.066.239.045.054.123.081.234.081.112 0 .19-.027.234-.081.045-.054.067-.134.067-.239v-.68h.151v.649c0 .08-.008.149-.024.208a.346.346 0 0 1-.079.146.325.325 0 0 1-.14.087.697.697 0 0 1-.214.028.68.68 0 0 1-.212-.028.312.312 0 0 1-.137-.087.341.341 0 0 1-.075-.146.848.848 0 0 1-.023-.208v-.649h.152Zm2.201 1.1-.126-.325h-.508l-.125.324h-.154l.44-1.099h.192l.44 1.1h-.159Zm-.376-.977h-.01l-.212.535h.434l-.212-.535Zm2.082.05h-.008l-.107.184-.3.48-.3-.48-.107-.184h-.01v.926H23.6v-1.099h.202l.36.592h.009l.362-.592h.194v1.1h-.148v-.927Z" clip-rule="evenodd"/></g></g></g></g></g><defs><clipPath id="b"><rect width="36" height="24" x="3" y="2" fill="#fff" rx="2"/></clipPath><filter id="a" width="42" height="30" x="0" y="0" color-interpolation-filters="sRGB" filterUnits="userSpaceOnUse"><feFlood flood-opacity="0" result="BackgroundImageFix"/><feColorMatrix in="SourceAlpha" result="hardAlpha" values="0 0 0 0 0 0 0 0 0 0 0 0 0 0 0 0 0 0 127 0"/><feOffset dy="1"/><feGaussianBlur stdDeviation="1"/><feColorMatrix values="0 0 0 0 0.0627451 0 0 0 0 0.0941176 0 0 0 0 0.156863 0 0 0 0.06 0"/><feBlend in2="BackgroundImageFix" result="effect1_dropShadow_91_27802"/><feColorMatrix in="SourceAlpha" result="hardAlpha" values="0 0 0 0 0 0 0 0 0 0 0 0 0 0 0 0 0 0 127 0"/><feOffset dy="1"/><feGaussianBlur stdDeviation="1.5"/><feColorMatrix values="0 0 0 0 0.0627451 0 0 0 0 0.0941176 0 0 0 0 0.156863 0 0 0 0.1 0"/><feBlend in2="effect1_dropShadow_91_27802" result="effect2_dropShadow_91_27802"/><feBlend in="SourceGraphic" in2="effect2_dropShadow_91_27802" result="shape"/></filter></defs></svg>