<svg xmlns="http://www.w3.org/2000/svg" fill="none" aria-hidden="true" viewBox="0 0 42 30"><g id="Country=HR - Croatia (Hrvatska), Size=sm (36x24)" filter="url(#filter0_dd_91_27663)"><g clip-path="url(#clip0_91_27663)"><g id="flag"><mask id="mask0_91_27663" width="36" height="24" x="3" y="2" maskUnits="userSpaceOnUse" style="mask-type:alpha"><rect id="mask" width="36" height="24" x="3" y="2" fill="white"/></mask><g mask="url(#mask0_91_27663)"><g id="contents"><path id="background" fill="#F7FCFF" fill-rule="evenodd" d="M3 2V26H39V2H3Z" clip-rule="evenodd"/><mask id="mask1_91_27663" width="36" height="24" x="3" y="2" maskUnits="userSpaceOnUse" style="mask-type:alpha"><path id="background_2" fill="white" fill-rule="evenodd" d="M3 2V26H39V2H3Z" clip-rule="evenodd"/></mask><g mask="url(#mask1_91_27663)"><path id="top" fill="#E31D1C" fill-rule="evenodd" d="M3 2V10H39V2H3Z" clip-rule="evenodd"/><path id="bottom" fill="#3D58DB" fill-rule="evenodd" d="M3 18V26H39V18H3Z" clip-rule="evenodd"/><g id="mark"><rect id="Rectangle 90" width="12.825" height="4" x="14.3359" y="8.39746" fill="#E31D1C"/><g id="shield"><path id="Path 2" fill="#F7FCFF" stroke="#E31D1C" stroke-width="1.125" d="M14.9134 10.96H26.4487C26.4678 11.7262 26.4737 13.0676 26.4736 14.3617C26.4735 15.1955 26.471 15.9982 26.4686 16.5926C26.4673 16.8898 26.4661 17.1348 26.4652 17.3055L26.4641 17.503L26.4639 17.5261C26.4591 17.552 26.4509 17.5923 26.4385 17.6449C26.413 17.7533 26.3699 17.9131 26.3011 18.1072C26.1632 18.4966 25.9251 19.0158 25.5261 19.5336C24.7448 20.5476 23.3035 21.6154 20.606 21.6154C17.9103 21.6154 16.5384 20.5477 15.8208 19.5447C15.4527 19.0303 15.2436 18.5136 15.1271 18.1251C15.069 17.9316 15.0346 17.7722 15.015 17.664C15.0052 17.61 14.9991 17.5691 14.9957 17.5434C14.9951 17.5386 14.9945 17.5344 14.9941 17.5307L14.9935 17.4894L14.9908 17.2931L14.9813 16.5846C14.9734 15.9937 14.9628 15.1951 14.9523 14.3641C14.9362 13.0943 14.9201 11.7532 14.9134 10.96Z"/><mask id="mask2_91_27663" width="14" height="13" x="14" y="10" maskUnits="userSpaceOnUse" style="mask-type:alpha"><path id="Path 2_2" fill="white" stroke="white" stroke-width="1.125" d="M14.9134 10.96H26.4487C26.4678 11.7262 26.4737 13.0676 26.4736 14.3617C26.4735 15.1955 26.471 15.9982 26.4686 16.5926C26.4673 16.8898 26.4661 17.1348 26.4652 17.3055L26.4641 17.503L26.4639 17.5261C26.4591 17.552 26.4509 17.5923 26.4385 17.6449C26.413 17.7533 26.3699 17.9131 26.3011 18.1072C26.1632 18.4966 25.9251 19.0158 25.5261 19.5336C24.7448 20.5476 23.3035 21.6154 20.606 21.6154C17.9103 21.6154 16.5384 20.5477 15.8208 19.5447C15.4527 19.0303 15.2436 18.5136 15.1271 18.1251C15.069 17.9316 15.0346 17.7722 15.015 17.664C15.0052 17.61 14.9991 17.5691 14.9957 17.5434C14.9951 17.5386 14.9945 17.5344 14.9941 17.5307L14.9935 17.4894L14.9908 17.2931L14.9813 16.5846C14.9734 15.9937 14.9628 15.1951 14.9523 14.3641C14.9362 13.0943 14.9201 11.7532 14.9134 10.96Z"/></mask><g mask="url(#mask2_91_27663)"><path id="Combined Shape" fill="#F50100" fill-rule="evenodd" d="M14.8105 11.04H17.1836V13.1819H14.8105V11.04ZM17.1836 13.1819H19.5567V15.3238H21.9297V13.1819H24.3028V15.3238H26.6758V17.4657H24.3028V15.3238H21.9297V17.4657H19.5567V15.3238H17.1836V13.1819ZM19.5567 17.4657H17.1836V19.6076H19.5567V21.7495H21.9297V19.6076H24.3028V21.7495H26.6758V19.6076H24.3028V17.4657H21.9297V19.6076H19.5567V17.4657ZM14.8105 15.3238H17.1836V17.4657H14.8105V15.3238ZM21.9297 11.04H19.5567V13.1819H21.9297V11.04ZM24.3028 11.04H26.6758V13.1819H24.3028V11.04ZM17.1836 19.6076H14.8105V21.7495H17.1836V19.6076Z" clip-rule="evenodd"/></g></g><g id="top_2"><g id="Group 11"><path id="Path 333" fill="#56C6F5" fill-rule="evenodd" stroke="white" stroke-width="0.5" d="M14.7595 10.1625C14.7595 10.1625 15.4935 9.81405 16.1195 9.63445C16.7456 9.45485 17.2404 9.35673 17.2404 9.35673L16.3089 6.30464L14.4433 5.68506L13.3867 7.23316L14.7595 10.1625Z" clip-rule="evenodd"/><path id="Path 347" fill="white" d="M14.4536 8.4907L14.668 8.39884C14.8894 8.81976 15.1812 8.94977 15.5812 8.81708C15.9897 8.68155 16.1563 8.42526 16.0975 8.01894L16.3328 7.99121C16.4058 8.49558 16.177 8.84763 15.663 9.01813C15.1405 9.19147 14.7248 9.00625 14.4536 8.4907Z"/><path id="Star 22" fill="#FECA00" fill-rule="evenodd" d="M14.9613 7.54189L14.7415 7.66024C14.7005 7.68229 14.6533 7.64712 14.6634 7.60203L14.7115 7.3864L14.5034 7.28477C14.4595 7.26329 14.4658 7.19869 14.5133 7.18432L14.738 7.11635L14.7328 6.89658C14.7317 6.85062 14.7851 6.82327 14.8211 6.8513L15.0144 7.00178L15.2342 6.88343C15.2752 6.86138 15.3224 6.89655 15.3123 6.94164L15.2642 7.15727L15.4723 7.2589C15.5162 7.28038 15.5099 7.34498 15.4624 7.35935L15.2377 7.42732L15.2429 7.64709C15.244 7.69305 15.1906 7.7204 15.1546 7.69237L14.9613 7.54189Z" clip-rule="evenodd"/></g><g id="Group 12"><path id="Path 333_2" fill="#56C6F5" fill-rule="evenodd" stroke="white" stroke-width="0.5" d="M19.3579 9.07588C19.3579 9.07588 19.9839 9.02622 20.6416 9.03758C21.2993 9.04894 21.8557 9.05309 21.8557 9.05309L22.177 6.04361L20.7681 4.91222L19.202 6.0702L19.3579 9.07588Z" clip-rule="evenodd"/><path id="Oval 62" fill="#FECA00" fill-rule="evenodd" d="M20.7186 8.58511C21.2612 8.58511 21.3132 8.06415 21.3132 7.70927C21.1744 7.51244 21.2024 7.37158 20.7576 7.37158C20.3129 7.37158 20.2621 7.49104 20.1323 7.70927C20.1323 8.06415 20.1759 8.58511 20.7186 8.58511Z" clip-rule="evenodd"/><path id="Oval 62_2" fill="#FECA00" fill-rule="evenodd" d="M21.3294 7.11295C21.872 7.11295 21.924 6.59198 21.924 6.2371C21.7853 6.04027 21.8132 5.89941 21.3685 5.89941C20.9237 5.89941 20.8729 6.01888 20.7432 6.2371C20.7432 6.59198 20.7868 7.11295 21.3294 7.11295Z" clip-rule="evenodd"/><path id="Oval 62_3" fill="#FECA00" fill-rule="evenodd" d="M20.1429 7.11295C20.6855 7.11295 20.7375 6.59198 20.7375 6.2371C20.5987 6.04027 20.6267 5.89941 20.1819 5.89941C19.7372 5.89941 19.6864 6.01888 19.5566 6.2371C19.5566 6.59198 19.6002 7.11295 20.1429 7.11295Z" clip-rule="evenodd"/></g><g id="Group 8"><path id="Path 333_3" fill="#2E42A5" stroke="white" stroke-width="0.5" d="M16.9514 9.36826L17.0265 9.59498L17.2564 9.53033L17.2564 9.53033L17.2564 9.53033L17.2565 9.53032L17.2568 9.53023L17.2582 9.52984L17.264 9.52822L17.287 9.52185C17.3072 9.51631 17.3367 9.50828 17.3735 9.49846C17.4472 9.4788 17.5499 9.45203 17.666 9.42363C17.9012 9.36606 18.18 9.30461 18.383 9.27953C18.5935 9.25353 18.855 9.2346 19.0669 9.22214C19.1722 9.21594 19.264 9.21142 19.3294 9.20844L19.4061 9.20513L19.4264 9.20432L19.4316 9.20413L19.4328 9.20408L19.4331 9.20407L19.4332 9.20407L19.6985 9.19438L19.6729 8.93009L19.389 6.00567L19.3772 5.88379L19.2737 5.81842L17.7406 4.85061L17.5786 4.74835L17.4377 4.87817L16.0445 6.16208L15.9258 6.27139L15.9765 6.42452L16.9514 9.36826Z"/><mask id="mask3_91_27663" width="5" height="6" x="15" y="4" maskUnits="userSpaceOnUse" style="mask-type:alpha"><path id="Path 333_4" fill="white" stroke="white" stroke-width="0.5" d="M16.9514 9.36826L17.0265 9.59498L17.2564 9.53033L17.2564 9.53033L17.2564 9.53033L17.2565 9.53032L17.2568 9.53023L17.2582 9.52984L17.264 9.52822L17.287 9.52185C17.3072 9.51631 17.3367 9.50828 17.3735 9.49846C17.4472 9.4788 17.5499 9.45203 17.666 9.42363C17.9012 9.36606 18.18 9.30461 18.383 9.27953C18.5935 9.25353 18.855 9.2346 19.0669 9.22214C19.1722 9.21594 19.264 9.21142 19.3294 9.20844L19.4061 9.20513L19.4264 9.20432L19.4316 9.20413L19.4328 9.20408L19.4331 9.20407L19.4332 9.20407L19.6985 9.19438L19.6729 8.93009L19.389 6.00567L19.3772 5.88379L19.2737 5.81842L17.7406 4.85061L17.5786 4.74835L17.4377 4.87817L16.0445 6.16208L15.9258 6.27139L15.9765 6.42452L16.9514 9.36826Z"/></mask><g mask="url(#mask3_91_27663)"><path id="Path 344" fill="#C51918" d="M16.9908 8.6379L16.709 8.04782C17.3142 7.81233 18.3367 7.66783 19.4126 7.61133L19.4539 8.25281C18.4537 8.30534 17.5076 8.43682 16.9908 8.6379Z"/><path id="Path 344_2" fill="#C51918" d="M16.5152 7.21042L16.2334 6.62034C16.8387 6.38484 18.1396 6.19419 19.2155 6.1377L19.2569 6.77918C18.2567 6.8317 17.032 7.00933 16.5152 7.21042Z"/></g></g><g id="Group 10"><path id="Path 333_5" fill="#2E42A5" stroke="white" stroke-width="0.5" d="M24.3835 9.3623L24.3124 9.59662L24.0766 9.53033L24.0766 9.53033L24.0766 9.53033L24.0766 9.53032L24.0763 9.53023L24.0749 9.52984L24.0691 9.52822L24.046 9.52185C24.0258 9.51631 23.9963 9.50828 23.9595 9.49846C23.8859 9.4788 23.7831 9.45203 23.6671 9.42363C23.4318 9.36606 23.1531 9.30461 22.95 9.27953C22.7395 9.25353 22.478 9.2346 22.2662 9.22214C22.1609 9.21594 22.0691 9.21142 22.0036 9.20844L21.927 9.20513L21.9066 9.20432L21.9015 9.20413L21.9002 9.20408L21.9 9.20407L21.8999 9.20407L21.6345 9.19438L21.6602 8.93009L21.944 6.00567L21.9558 5.88379L22.0594 5.81842L23.5924 4.85061L23.7591 4.74541L23.9003 4.88289L25.214 6.16196L25.323 6.26811L25.2788 6.41371L24.3835 9.3623Z"/><mask id="mask4_91_27663" width="5" height="6" x="21" y="4" maskUnits="userSpaceOnUse" style="mask-type:alpha"><path id="Path 333_6" fill="white" stroke="white" stroke-width="0.5" d="M24.3835 9.3623L24.3124 9.59662L24.0766 9.53033L24.0766 9.53033L24.0766 9.53033L24.0766 9.53032L24.0763 9.53023L24.0749 9.52984L24.0691 9.52822L24.046 9.52185C24.0258 9.51631 23.9963 9.50828 23.9595 9.49846C23.8859 9.4788 23.7831 9.45203 23.6671 9.42363C23.4318 9.36606 23.1531 9.30461 22.95 9.27953C22.7395 9.25353 22.478 9.2346 22.2662 9.22214C22.1609 9.21594 22.0691 9.21142 22.0036 9.20844L21.927 9.20513L21.9066 9.20432L21.9015 9.20413L21.9002 9.20408L21.9 9.20407L21.8999 9.20407L21.6345 9.19438L21.6602 8.93009L21.944 6.00567L21.9558 5.88379L22.0594 5.81842L23.5924 4.85061L23.7591 4.74541L23.9003 4.88289L25.214 6.16196L25.323 6.26811L25.2788 6.41371L24.3835 9.3623Z"/></mask><g mask="url(#mask4_91_27663)"><path id="Path 345" fill="#FECA00" fill-rule="evenodd" d="M23.6974 8.4666C23.6974 8.4666 24.0281 8.30298 24.0758 8.02709C24.1234 7.75121 24.635 7.41141 24.3792 7.45186C24.1234 7.4923 24.2697 7.52389 23.8993 7.45186C23.5289 7.37983 23.0496 7.33218 23.0496 7.12979C23.0496 6.92741 23.2878 6.76677 23.0931 6.76677C22.8983 6.76677 22.4827 6.57522 22.5662 6.72163C22.6496 6.86804 22.3742 6.70249 22.5119 7.00646C22.6496 7.31042 22.4827 7.61664 22.5662 7.69722C22.6496 7.77779 22.5119 8.17298 22.5119 8.17298C22.5119 8.17298 22.5625 8.31976 22.651 8.09992C22.7395 7.88007 22.9331 7.72597 22.8363 7.91294C22.7395 8.09992 22.616 8.54464 22.7261 8.4666C22.8363 8.38856 22.9458 8.17274 22.9458 8.09992C22.9458 8.02709 23.2238 7.74123 23.2238 7.95711C23.2238 8.17298 22.9623 8.34299 23.0931 8.34299C23.2238 8.34299 23.2971 8.38886 23.3793 8.17298C23.4616 7.95711 23.6612 7.8143 23.7431 7.95711C23.825 8.09992 23.8069 8.09229 23.6974 8.27944C23.5879 8.4666 23.6974 8.4666 23.6974 8.4666Z" clip-rule="evenodd"/><path id="Path 346" fill="#C51918" fill-rule="evenodd" d="M22.9205 6.86656L22.7974 6.68346C23.0183 6.56244 23.2212 6.53019 23.3993 6.59766C23.4803 6.62834 23.5414 6.66329 23.7004 6.76274L23.7212 6.77572C23.8868 6.87897 23.9745 6.92103 24.0285 6.92103V7.13522C23.905 7.13522 23.7981 7.08396 23.5863 6.95196L23.5653 6.93881C23.4221 6.8493 23.3668 6.81764 23.3075 6.79517C23.209 6.75785 23.0822 6.778 22.9205 6.86656ZM22.5309 8.2635C22.6008 8.2635 22.6574 8.21376 22.6574 8.15239C22.6574 8.09103 22.6008 8.04128 22.5309 8.04128C22.461 8.04128 22.4043 8.09103 22.4043 8.15239C22.4043 8.21376 22.461 8.2635 22.5309 8.2635ZM22.8948 8.36657C22.8948 8.42794 22.8381 8.47768 22.7682 8.47768C22.6983 8.47768 22.6416 8.42794 22.6416 8.36657C22.6416 8.30521 22.6983 8.25546 22.7682 8.25546C22.8381 8.25546 22.8948 8.30521 22.8948 8.36657ZM23.1945 8.46943C23.2644 8.46943 23.321 8.41968 23.321 8.35832C23.321 8.29695 23.2644 8.24721 23.1945 8.24721C23.1246 8.24721 23.0679 8.29695 23.0679 8.35832C23.0679 8.41968 23.1246 8.46943 23.1945 8.46943ZM23.7175 8.53614C23.7175 8.59751 23.6608 8.64726 23.5909 8.64726C23.521 8.64726 23.4644 8.59751 23.4644 8.53614C23.4644 8.47478 23.521 8.42503 23.5909 8.42503C23.6608 8.42503 23.7175 8.47478 23.7175 8.53614Z" clip-rule="evenodd"/></g></g><g id="Group 9"><path id="Path 333_7" fill="#56C6F5" stroke="white" stroke-width="0.5" d="M26.9878 10.196L26.8793 10.4182L26.656 10.3122L26.656 10.3122L26.6559 10.3122L26.6559 10.3122L26.6556 10.312L26.6543 10.3114L26.6485 10.3087L26.6252 10.2978C26.6046 10.2882 26.5743 10.2743 26.5358 10.2569C26.4589 10.2222 26.3497 10.174 26.2214 10.1203C25.9631 10.0121 25.6334 9.8844 25.3342 9.79855C25.0262 9.71019 24.7502 9.6418 24.5513 9.59553C24.4519 9.57242 24.372 9.55487 24.3171 9.54314L24.2544 9.52997L24.2385 9.52673L24.2347 9.52595L24.2338 9.52578L24.2336 9.52575L24.2336 9.52575L24.2336 9.52574L24.2336 9.52574L23.9588 9.47125L24.0442 9.20437L24.9959 6.22848L25.0346 6.10743L25.1552 6.06738L27.0208 5.4478L27.1998 5.38836L27.3061 5.54412L28.3627 7.09222L28.4447 7.21226L28.3809 7.34285L26.9878 10.196Z"/><mask id="mask5_91_27663" width="6" height="6" x="23" y="5" maskUnits="userSpaceOnUse" style="mask-type:alpha"><path id="Path 333_8" fill="white" stroke="white" stroke-width="0.5" d="M26.9878 10.196L26.8793 10.4182L26.656 10.3122L26.656 10.3122L26.6559 10.3122L26.6559 10.3122L26.6556 10.312L26.6543 10.3114L26.6485 10.3087L26.6252 10.2978C26.6046 10.2882 26.5743 10.2743 26.5358 10.2569C26.4589 10.2222 26.3497 10.174 26.2214 10.1203C25.9631 10.0121 25.6334 9.8844 25.3342 9.79855C25.0262 9.71019 24.7502 9.6418 24.5513 9.59553C24.4519 9.57242 24.372 9.55487 24.3171 9.54314L24.2544 9.52997L24.2385 9.52673L24.2347 9.52595L24.2338 9.52578L24.2336 9.52575L24.2336 9.52575L24.2336 9.52574L24.2336 9.52574L23.9588 9.47125L24.0442 9.20437L24.9959 6.22848L25.0346 6.10743L25.1552 6.06738L27.0208 5.4478L27.1998 5.38836L27.3061 5.54412L28.3627 7.09222L28.4447 7.21226L28.3809 7.34285L26.9878 10.196Z"/></mask><g mask="url(#mask5_91_27663)"><path id="Star 22_2" fill="#FECA00" fill-rule="evenodd" d="M26.7682 7.08906L26.5973 7.25896C26.5653 7.29078 26.5083 7.26967 26.5031 7.22408L26.4781 7.00529L26.245 6.96201C26.1959 6.9529 26.1808 6.89003 26.2215 6.86396L26.4147 6.74013L26.3374 6.53122C26.3213 6.48769 26.3637 6.4478 26.4075 6.4653L26.6414 6.55874L26.8122 6.38884C26.8442 6.35702 26.9012 6.37812 26.9064 6.42371L26.9314 6.64251L27.1646 6.68578C27.2137 6.69489 27.2287 6.75776 27.188 6.78383L26.9948 6.90767L27.0721 7.11657C27.0882 7.16011 27.0458 7.19999 27.002 7.1825L26.7682 7.08906Z" clip-rule="evenodd"/><path id="Path 348" fill="#E31D1C" d="M24.3691 8.48737L24.6081 7.6582C25.6665 7.9067 26.7697 8.22519 27.5791 8.53316L27.2104 9.32264C26.4458 9.0317 25.3854 8.72599 24.3691 8.48737Z"/><path id="Path 349" fill="white" d="M24.6929 7.72174L24.7492 7.51367C25.7639 7.73749 26.8423 8.09461 27.626 8.42724L27.525 8.62107C26.7564 8.29483 25.6928 7.94231 24.6929 7.72174Z"/><path id="Path 349_2" fill="white" d="M24.3926 8.57623L24.4489 8.36816C25.4636 8.59198 26.4014 8.89568 27.185 9.2283L27.0841 9.42213C26.3154 9.0959 25.3925 8.7968 24.3926 8.57623Z"/><path id="Path 350" fill="#272727" d="M24.8506 8.1751L25.0679 8.08789C25.1593 8.2782 25.2723 8.32013 25.4612 8.23856C25.9073 8.0459 27.0138 8.31514 27.0138 8.67817C27.0138 8.8198 26.9215 8.90566 26.7805 8.90069C26.7009 8.89788 26.6159 8.86993 26.4913 8.81517C26.4762 8.80853 26.4663 8.80408 26.4418 8.79301C26.304 8.73054 26.2935 8.72598 26.2569 8.71424L26.3354 8.50959C26.3862 8.52586 26.3942 8.52935 26.5472 8.59873C26.5708 8.60939 26.58 8.61352 26.5942 8.61972C26.6897 8.6617 26.7535 8.68271 26.7896 8.68398C26.793 8.6841 26.7765 8.6994 26.7765 8.67817C26.7765 8.51844 25.8759 8.29931 25.5626 8.43464C25.2501 8.56959 24.9946 8.47478 24.8506 8.1751Z"/></g></g></g></g></g></g></g></g></g></g><defs><filter id="filter0_dd_91_27663" width="42" height="30" x="0" y="0" color-interpolation-filters="sRGB" filterUnits="userSpaceOnUse"><feFlood flood-opacity="0" result="BackgroundImageFix"/><feColorMatrix in="SourceAlpha" result="hardAlpha" values="0 0 0 0 0 0 0 0 0 0 0 0 0 0 0 0 0 0 127 0"/><feOffset dy="1"/><feGaussianBlur stdDeviation="1"/><feColorMatrix values="0 0 0 0 0.0627451 0 0 0 0 0.0941176 0 0 0 0 0.156863 0 0 0 0.06 0"/><feBlend in2="BackgroundImageFix" result="effect1_dropShadow_91_27663"/><feColorMatrix in="SourceAlpha" result="hardAlpha" values="0 0 0 0 0 0 0 0 0 0 0 0 0 0 0 0 0 0 127 0"/><feOffset dy="1"/><feGaussianBlur stdDeviation="1.5"/><feColorMatrix values="0 0 0 0 0.0627451 0 0 0 0 0.0941176 0 0 0 0 0.156863 0 0 0 0.1 0"/><feBlend in2="effect1_dropShadow_91_27663" result="effect2_dropShadow_91_27663"/><feBlend in="SourceGraphic" in2="effect2_dropShadow_91_27663" result="shape"/></filter><clipPath id="clip0_91_27663"><rect width="36" height="24" x="3" y="2" fill="white" rx="2"/></clipPath></defs></svg>