<svg xmlns="http://www.w3.org/2000/svg" fill="none" aria-hidden="true" viewBox="0 0 42 30"><g id="Country=IO - British Indian Ocean Territory, Size=sm (36x24)" filter="url(#filter0_dd_91_27470)"><g clip-path="url(#clip0_91_27470)"><g id="flag"><mask id="mask0_91_27470" width="36" height="24" x="3" y="2" maskUnits="userSpaceOnUse" style="mask-type:alpha"><rect id="mask" width="36" height="24" x="3" y="2" fill="white"/></mask><g mask="url(#mask0_91_27470)"><g id="contents"><path id="background" fill="#F7FCFF" fill-rule="evenodd" d="M3 2V26H39V2H3Z" clip-rule="evenodd"/><mask id="mask1_91_27470" width="36" height="24" x="3" y="2" maskUnits="userSpaceOnUse" style="mask-type:alpha"><path id="background_2" fill="white" fill-rule="evenodd" d="M3 2V26H39V2H3Z" clip-rule="evenodd"/></mask><g mask="url(#mask1_91_27470)"><g id="mark 2"><path id="Combined Shape" fill="#2E42A5" fill-rule="evenodd" d="M1.30615 5.29149L2.97919 6.70851C4.36072 5.54766 5.66428 5 6.90309 5C7.50162 5 7.75651 5.1285 8.44678 5.70851C9.54166 6.6285 10.2785 7 11.6635 7C13.0485 7 13.7853 6.6285 14.8802 5.70851C15.5705 5.1285 15.8254 5 16.4239 5C17.0225 5 17.2773 5.1285 17.9676 5.70851C19.0625 6.6285 19.7994 7 21.1843 7C22.5693 7 23.3062 6.6285 24.4011 5.70851C25.0913 5.1285 25.3462 5 25.9448 5C26.5433 5 26.7982 5.1285 27.4884 5.70851C28.5833 6.6285 29.3202 7 30.7052 7C32.0902 7 32.827 6.6285 33.9219 5.70851C34.6122 5.1285 34.8671 5 35.4656 5C36.7044 5 38.008 5.54766 39.3895 6.70851L41.0625 5.29149C39.2704 3.78567 37.4004 3 35.4656 3C34.0806 3 33.3438 3.3715 32.2489 4.29149C31.5586 4.8715 31.3037 5 30.7052 5C30.1066 5 29.8518 4.8715 29.1615 4.29149C28.0666 3.3715 27.3297 3 25.9448 3C24.5598 3 23.8229 3.3715 22.728 4.29149C22.0378 4.8715 21.7829 5 21.1843 5C20.5858 5 20.3309 4.8715 19.6406 4.29149C18.5458 3.3715 17.8089 3 16.4239 3C15.0389 3 14.3021 3.3715 13.2072 4.29149C12.5169 4.8715 12.262 5 11.6635 5C11.065 5 10.8101 4.8715 10.1198 4.29149C9.02493 3.3715 8.28807 3 6.90309 3C4.96829 3 3.09823 3.78567 1.30615 5.29149ZM2.97919 10.7085L1.30615 9.29149C3.09823 7.78567 4.96829 7 6.90309 7C8.28807 7 9.02493 7.3715 10.1198 8.29149C10.8101 8.8715 11.065 9 11.6635 9C12.262 9 12.5169 8.8715 13.2072 8.29149C14.3021 7.3715 15.0389 7 16.4239 7C17.8089 7 18.5458 7.3715 19.6406 8.29149C20.3309 8.8715 20.5858 9 21.1843 9C21.7829 9 22.0378 8.8715 22.728 8.29149C23.8229 7.3715 24.5598 7 25.9448 7C27.3297 7 28.0666 7.3715 29.1615 8.29149C29.8518 8.8715 30.1066 9 30.7052 9C31.3037 9 31.5586 8.8715 32.2489 8.29149C33.3438 7.3715 34.0806 7 35.4656 7C37.4004 7 39.2704 7.78567 41.0625 9.29149L39.3895 10.7085C38.008 9.54766 36.7044 9 35.4656 9C34.8671 9 34.6122 9.1285 33.9219 9.70851C32.827 10.6285 32.0902 11 30.7052 11C29.3202 11 28.5833 10.6285 27.4884 9.70851C26.7982 9.1285 26.5433 9 25.9448 9C25.3462 9 25.0913 9.1285 24.4011 9.70851C23.3062 10.6285 22.5693 11 21.1843 11C19.7994 11 19.0625 10.6285 17.9676 9.70851C17.2773 9.1285 17.0225 9 16.4239 9C15.8254 9 15.5705 9.1285 14.8802 9.70851C13.7853 10.6285 13.0485 11 11.6635 11C10.2785 11 9.54166 10.6285 8.44678 9.70851C7.75651 9.1285 7.50162 9 6.90309 9C5.66428 9 4.36072 9.54766 2.97919 10.7085ZM2.97919 14.7085L1.30615 13.2915C3.09823 11.7857 4.96829 11 6.90309 11C8.28807 11 9.02493 11.3715 10.1198 12.2915C10.8101 12.8715 11.065 13 11.6635 13C12.262 13 12.5169 12.8715 13.2072 12.2915C14.3021 11.3715 15.0389 11 16.4239 11C17.8089 11 18.5458 11.3715 19.6406 12.2915C20.3309 12.8715 20.5858 13 21.1843 13C21.7829 13 22.0378 12.8715 22.728 12.2915C23.8229 11.3715 24.5598 11 25.9448 11C27.3297 11 28.0666 11.3715 29.1615 12.2915C29.8518 12.8715 30.1066 13 30.7052 13C31.3037 13 31.5586 12.8715 32.2489 12.2915C33.3438 11.3715 34.0806 11 35.4656 11C37.4004 11 39.2704 11.7857 41.0625 13.2915L39.3895 14.7085C38.008 13.5477 36.7044 13 35.4656 13C34.8671 13 34.6122 13.1285 33.9219 13.7085C32.827 14.6285 32.0902 15 30.7052 15C29.3202 15 28.5833 14.6285 27.4884 13.7085C26.7982 13.1285 26.5433 13 25.9448 13C25.3462 13 25.0913 13.1285 24.4011 13.7085C23.3062 14.6285 22.5693 15 21.1843 15C19.7994 15 19.0625 14.6285 17.9676 13.7085C17.2773 13.1285 17.0225 13 16.4239 13C15.8254 13 15.5705 13.1285 14.8802 13.7085C13.7853 14.6285 13.0485 15 11.6635 15C10.2785 15 9.54166 14.6285 8.44678 13.7085C7.75651 13.1285 7.50162 13 6.90309 13C5.66428 13 4.36072 13.5477 2.97919 14.7085ZM2.97919 18.7085L1.30615 17.2915C3.09823 15.7857 4.96829 15 6.90309 15C8.28807 15 9.02493 15.3715 10.1198 16.2915C10.8101 16.8715 11.065 17 11.6635 17C12.262 17 12.5169 16.8715 13.2072 16.2915C14.3021 15.3715 15.0389 15 16.4239 15C17.8089 15 18.5458 15.3715 19.6406 16.2915C20.3309 16.8715 20.5858 17 21.1843 17C21.7829 17 22.0378 16.8715 22.728 16.2915C23.8229 15.3715 24.5598 15 25.9448 15C27.3297 15 28.0666 15.3715 29.1615 16.2915C29.8518 16.8715 30.1066 17 30.7052 17C31.3037 17 31.5586 16.8715 32.2489 16.2915C33.3438 15.3715 34.0806 15 35.4656 15C37.4004 15 39.2704 15.7857 41.0625 17.2915L39.3895 18.7085C38.008 17.5477 36.7044 17 35.4656 17C34.8671 17 34.6122 17.1285 33.9219 17.7085C32.827 18.6285 32.0902 19 30.7052 19C29.3202 19 28.5833 18.6285 27.4884 17.7085C26.7982 17.1285 26.5433 17 25.9448 17C25.3462 17 25.0913 17.1285 24.4011 17.7085C23.3062 18.6285 22.5693 19 21.1843 19C19.7994 19 19.0625 18.6285 17.9676 17.7085C17.2773 17.1285 17.0225 17 16.4239 17C15.8254 17 15.5705 17.1285 14.8802 17.7085C13.7853 18.6285 13.0485 19 11.6635 19C10.2785 19 9.54166 18.6285 8.44678 17.7085C7.75651 17.1285 7.50162 17 6.90309 17C5.66428 17 4.36072 17.5477 2.97919 18.7085ZM2.97919 22.7085L1.30615 21.2915C3.09823 19.7857 4.96829 19 6.90309 19C8.28807 19 9.02493 19.3715 10.1198 20.2915C10.8101 20.8715 11.065 21 11.6635 21C12.262 21 12.5169 20.8715 13.2072 20.2915C14.3021 19.3715 15.0389 19 16.4239 19C17.8089 19 18.5458 19.3715 19.6406 20.2915C20.3309 20.8715 20.5858 21 21.1843 21C21.7829 21 22.0378 20.8715 22.728 20.2915C23.8229 19.3715 24.5598 19 25.9448 19C27.3297 19 28.0666 19.3715 29.1615 20.2915C29.8518 20.8715 30.1066 21 30.7052 21C31.3037 21 31.5586 20.8715 32.2489 20.2915C33.3438 19.3715 34.0806 19 35.4656 19C37.4004 19 39.2704 19.7857 41.0625 21.2915L39.3895 22.7085C38.008 21.5477 36.7044 21 35.4656 21C34.8671 21 34.6122 21.1285 33.9219 21.7085C32.827 22.6285 32.0902 23 30.7052 23C29.3202 23 28.5833 22.6285 27.4884 21.7085C26.7982 21.1285 26.5433 21 25.9448 21C25.3462 21 25.0913 21.1285 24.4011 21.7085C23.3062 22.6285 22.5693 23 21.1843 23C19.7994 23 19.0625 22.6285 17.9676 21.7085C17.2773 21.1285 17.0225 21 16.4239 21C15.8254 21 15.5705 21.1285 14.8802 21.7085C13.7853 22.6285 13.0485 23 11.6635 23C10.2785 23 9.54166 22.6285 8.44678 21.7085C7.75651 21.1285 7.50162 21 6.90309 21C5.66428 21 4.36072 21.5477 2.97919 22.7085ZM2.97919 26.7085L1.30615 25.2915C3.09823 23.7857 4.96829 23 6.90309 23C8.28807 23 9.02493 23.3715 10.1198 24.2915C10.8101 24.8715 11.065 25 11.6635 25C12.262 25 12.5169 24.8715 13.2072 24.2915C14.3021 23.3715 15.0389 23 16.4239 23C17.8089 23 18.5458 23.3715 19.6406 24.2915C20.3309 24.8715 20.5858 25 21.1843 25C21.7829 25 22.0378 24.8715 22.728 24.2915C23.8229 23.3715 24.5598 23 25.9448 23C27.3297 23 28.0666 23.3715 29.1615 24.2915C29.8518 24.8715 30.1066 25 30.7052 25C31.3037 25 31.5586 24.8715 32.2489 24.2915C33.3438 23.3715 34.0806 23 35.4656 23C37.4004 23 39.2704 23.7857 41.0625 25.2915L39.3895 26.7085C38.008 25.5477 36.7044 25 35.4656 25C34.8671 25 34.6122 25.1285 33.9219 25.7085C32.827 26.6285 32.0902 27 30.7052 27C29.3202 27 28.5833 26.6285 27.4884 25.7085C26.7982 25.1285 26.5433 25 25.9448 25C25.3462 25 25.0913 25.1285 24.4011 25.7085C23.3062 26.6285 22.5693 27 21.1843 27C19.7994 27 19.0625 26.6285 17.9676 25.7085C17.2773 25.1285 17.0225 25 16.4239 25C15.8254 25 15.5705 25.1285 14.8802 25.7085C13.7853 26.6285 13.0485 27 11.6635 27C10.2785 27 9.54166 26.6285 8.44678 25.7085C7.75651 25.1285 7.50162 25 6.90309 25C5.66428 25 4.36072 25.5477 2.97919 26.7085Z" clip-rule="evenodd"/></g><g id="mark 1"><mask id="mask2_91_27470" width="16" height="10" x="3" y="2" maskUnits="userSpaceOnUse" style="mask-type:alpha"><rect id="mask_2" width="15.75" height="10" x="3" y="2" fill="white"/></mask><g mask="url(#mask2_91_27470)"><rect id="Rectangle 4" width="15.75" height="12" x="3" y="2" fill="#2E42A5"/><g id="contents_2"><g id="stripe"><path id="white" fill="white" d="M0.572754 13.3333L4.68605 14.8774L21.4398 3.45675L23.6094 1.16206L19.2108 0.645946L12.3774 5.56745L6.8772 8.88339L0.572754 13.3333Z"/><path id="red" fill="#F50100" d="M1.13574 14.4154L3.23128 15.3115L22.8302 0.94911H19.8878L1.13574 14.4154Z"/></g><g id="stripe_2"><path id="white_2" fill="white" d="M23.4277 13.3333L19.3144 14.8774L2.56074 3.45675L0.391067 1.16206L4.78964 0.645946L11.6231 5.56745L17.1233 8.88339L23.4277 13.3333Z"/><path id="red_2" fill="#F50100" d="M23.2871 14.1097L21.1916 15.0059L12.8462 8.85656L10.3719 8.16952L0.182022 1.16993H3.1244L13.3086 8.00338L16.0137 8.82722L23.2871 14.1097Z"/></g><g id="cross"><g id="red_3"><mask id="path-12-outside-1_91_27470" width="18" height="12" x="2.01758" y="1" fill="black" maskUnits="userSpaceOnUse"><rect width="18" height="12" x="2.01758" y="1" fill="white"/><path fill-rule="evenodd" d="M12.0001 2H9.75011V6H3.01758V8H9.75011V12H12.0001V8H18.7676V6H12.0001V2Z" clip-rule="evenodd"/></mask><path fill="#F50100" fill-rule="evenodd" d="M12.0001 2H9.75011V6H3.01758V8H9.75011V12H12.0001V8H18.7676V6H12.0001V2Z" clip-rule="evenodd"/><path fill="#F7FCFF" d="M9.75011 2V1H8.75011V2H9.75011ZM12.0001 2H13.0001V1H12.0001V2ZM9.75011 6V7H10.7501V6H9.75011ZM3.01758 6V5H2.01758V6H3.01758ZM3.01758 8H2.01758V9H3.01758V8ZM9.75011 8H10.7501V7H9.75011V8ZM9.75011 12H8.75011V13H9.75011V12ZM12.0001 12V13H13.0001V12H12.0001ZM12.0001 8V7H11.0001V8H12.0001ZM18.7676 8V9H19.7676V8H18.7676ZM18.7676 6H19.7676V5H18.7676V6ZM12.0001 6H11.0001V7H12.0001V6ZM9.75011 3H12.0001V1H9.75011V3ZM10.7501 6V2H8.75011V6H10.7501ZM3.01758 7H9.75011V5H3.01758V7ZM4.01758 8V6H2.01758V8H4.01758ZM9.75011 7H3.01758V9H9.75011V7ZM10.7501 12V8H8.75011V12H10.7501ZM12.0001 11H9.75011V13H12.0001V11ZM11.0001 8V12H13.0001V8H11.0001ZM18.7676 7H12.0001V9H18.7676V7ZM17.7676 6V8H19.7676V6H17.7676ZM12.0001 7H18.7676V5H12.0001V7ZM11.0001 2V6H13.0001V2H11.0001Z" mask="url(#path-12-outside-1_91_27470)"/></g></g></g></g></g><g id="mark"><rect id="Rectangle 6" width="1.125" height="12.6214" x="25.9502" y="11.3789" fill="#D86D00" rx="0.5"/><g id="Group 20"><g id="Combined Shape_2"><mask id="path-15-outside-2_91_27470" width="13" height="11" x="19.4517" y="3.05762" fill="black" maskUnits="userSpaceOnUse"><rect width="13" height="11" x="19.4517" y="3.05762" fill="white"/><path fill-rule="evenodd" d="M25.9549 4.05762C26.8855 5.19211 27.2672 6.53279 27.3014 7.89679C28.352 6.63131 30.1045 5.59752 30.9239 5.15542C30.172 5.62286 29.7814 6.31584 29.342 7.09561C29.1263 7.47828 28.8989 7.88186 28.6111 8.28994C30.4016 7.71817 32.1802 7.57137 32.1802 7.57137C30.987 7.87232 29.8864 8.48677 28.8169 9.08382C28.4266 9.30168 28.0405 9.51722 27.6556 9.71437C31.1114 10.8714 31.643 12.5446 31.643 12.5446C31.2194 12.2121 30.3054 11.8564 28.5795 11.1847C28.2488 11.056 27.8883 10.9157 27.4957 10.7617C27.7534 11.6054 28.0661 12.2655 28.3646 12.8956L28.4534 13.0833C28.4534 13.0833 26.062 12.5093 25.6078 10.8614C24.2663 11.819 22.8168 12.3641 22.1368 12.5801C22.1368 12.5801 23.756 11.0176 24.9451 9.98077C23.3837 9.82433 20.4517 9.69624 20.4517 9.69624L20.6601 9.65218C21.8391 9.40249 23.6632 9.01618 25.3348 9.03639C23.5421 8.14357 22.4398 6.93497 22.1011 6.52879C22.3865 6.75298 23.1812 7.03367 24.2655 7.41668C24.7231 7.57833 25.2324 7.75821 25.7767 7.95975C25.8803 6.2758 25.9549 4.05762 25.9549 4.05762ZM21.9892 6.38914C22.0005 6.4333 22.0386 6.47969 22.1011 6.52879C22.0267 6.43963 21.9892 6.38914 21.9892 6.38914ZM31.372 4.92384C31.2091 4.99303 31.0605 5.07051 30.9239 5.15542C31.2015 5.00569 31.372 4.92384 31.372 4.92384ZM26.2759 9.01641C26.3456 8.98892 26.4227 8.97365 26.5039 8.97365C26.5465 8.97365 26.588 8.97786 26.6279 8.98585C26.6396 8.9563 26.6519 8.92682 26.6646 8.8974L26.2921 8.92021L26.2759 9.01641Z" clip-rule="evenodd"/></mask><path fill="#449A01" fill-rule="evenodd" d="M25.9549 4.05762C26.8855 5.19211 27.2672 6.53279 27.3014 7.89679C28.352 6.63131 30.1045 5.59752 30.9239 5.15542C30.172 5.62286 29.7814 6.31584 29.342 7.09561C29.1263 7.47828 28.8989 7.88186 28.6111 8.28994C30.4016 7.71817 32.1802 7.57137 32.1802 7.57137C30.987 7.87232 29.8864 8.48677 28.8169 9.08382C28.4266 9.30168 28.0405 9.51722 27.6556 9.71437C31.1114 10.8714 31.643 12.5446 31.643 12.5446C31.2194 12.2121 30.3054 11.8564 28.5795 11.1847C28.2488 11.056 27.8883 10.9157 27.4957 10.7617C27.7534 11.6054 28.0661 12.2655 28.3646 12.8956L28.4534 13.0833C28.4534 13.0833 26.062 12.5093 25.6078 10.8614C24.2663 11.819 22.8168 12.3641 22.1368 12.5801C22.1368 12.5801 23.756 11.0176 24.9451 9.98077C23.3837 9.82433 20.4517 9.69624 20.4517 9.69624L20.6601 9.65218C21.8391 9.40249 23.6632 9.01618 25.3348 9.03639C23.5421 8.14357 22.4398 6.93497 22.1011 6.52879C22.3865 6.75298 23.1812 7.03367 24.2655 7.41668C24.7231 7.57833 25.2324 7.75821 25.7767 7.95975C25.8803 6.2758 25.9549 4.05762 25.9549 4.05762ZM21.9892 6.38914C22.0005 6.4333 22.0386 6.47969 22.1011 6.52879C22.0267 6.43963 21.9892 6.38914 21.9892 6.38914ZM31.372 4.92384C31.2091 4.99303 31.0605 5.07051 30.9239 5.15542C31.2015 5.00569 31.372 4.92384 31.372 4.92384ZM26.2759 9.01641C26.3456 8.98892 26.4227 8.97365 26.5039 8.97365C26.5465 8.97365 26.588 8.97786 26.6279 8.98585C26.6396 8.9563 26.6519 8.92682 26.6646 8.8974L26.2921 8.92021L26.2759 9.01641Z" clip-rule="evenodd"/><path fill="white" d="M27.3014 7.89679L26.9515 7.90558L26.975 8.83796L27.5707 8.12036L27.3014 7.89679ZM25.9549 4.05762L26.2255 3.83564L25.6363 3.1174L25.6051 4.04586L25.9549 4.05762ZM29.342 7.09561L29.6469 7.26745L29.342 7.09561ZM28.6111 8.28994L28.3251 8.08825L27.7241 8.9406L28.7176 8.62335L28.6111 8.28994ZM32.1802 7.57137L32.2658 7.91074L32.1514 7.22256L32.1802 7.57137ZM28.8169 9.08382L28.6463 8.77822L28.8169 9.08382ZM27.6556 9.71437L27.496 9.40285L26.7555 9.78213L27.5445 10.0463L27.6556 9.71437ZM31.643 12.5446L31.4269 12.8199L32.3205 13.5211L31.9766 12.4386L31.643 12.5446ZM28.5795 11.1847L28.7065 10.8586L28.5795 11.1847ZM27.4957 10.7617L27.6235 10.4359L26.9494 10.1715L27.161 10.864L27.4957 10.7617ZM28.3646 12.8955L28.681 12.7459L28.6809 12.7457L28.3646 12.8955ZM28.4534 13.0833L28.3717 13.4236L29.0821 13.5941L28.7697 12.9336L28.4534 13.0833ZM25.6078 10.8614L25.9452 10.7684L25.8121 10.2855L25.4044 10.5765L25.6078 10.8614ZM22.1368 12.5801L21.8938 12.3282L22.2427 12.9136L22.1368 12.5801ZM24.9451 9.98077L25.1751 10.2446L25.7846 9.71314L24.98 9.63252L24.9451 9.98077ZM20.4517 9.69624L20.3793 9.35381L20.4364 10.0459L20.4517 9.69624ZM20.6601 9.65218L20.7325 9.99462L20.7326 9.99459L20.6601 9.65218ZM25.3348 9.03639L25.3305 9.38637L25.4908 8.7231L25.3348 9.03639ZM24.2655 7.41668L24.1489 7.7467L24.2655 7.41668ZM25.7767 7.95975L25.6552 8.28797L26.0971 8.4516L26.126 7.98124L25.7767 7.95975ZM21.9892 6.38914L22.27 6.18022L21.6502 6.47619L21.9892 6.38914ZM31.372 4.92384L31.5235 5.23936L31.2352 4.60169L31.372 4.92384ZM26.2759 9.01641L25.9307 8.95845L25.8281 9.56931L26.4043 9.34199L26.2759 9.01641ZM26.6279 8.98585L26.5592 9.32905L26.8457 9.38636L26.9533 9.11475L26.6279 8.98585ZM26.6646 8.8974L26.9857 9.03673L27.2129 8.51319L26.6432 8.54805L26.6646 8.8974ZM26.2921 8.92021L26.2707 8.57086L25.993 8.58786L25.9469 8.86224L26.2921 8.92021ZM27.6513 7.888C27.6155 6.46371 27.2157 5.04272 26.2255 3.83564L25.6843 4.2796C26.5554 5.3415 26.9188 6.60187 26.9515 7.90558L27.6513 7.888ZM30.7578 4.84739C29.9357 5.2909 28.1296 6.35136 27.0321 7.67322L27.5707 8.12036C28.5745 6.91126 30.2733 5.90414 31.0901 5.46346L30.7578 4.84739ZM29.6469 7.26745C30.0928 6.47628 30.4444 5.86563 31.1087 5.45268L30.7392 4.85817C29.8995 5.38009 29.4701 6.1554 29.0371 6.92377L29.6469 7.26745ZM28.8972 8.49162C29.1965 8.06704 29.4321 7.64862 29.6469 7.26745L29.0371 6.92377C28.8205 7.30795 28.6012 7.69668 28.3251 8.08825L28.8972 8.49162ZM32.1802 7.57137C32.1514 7.22256 32.1514 7.22256 32.1513 7.22257C32.1513 7.22257 32.1512 7.22257 32.1512 7.22258C32.1511 7.22259 32.1509 7.2226 32.1508 7.22261C32.1504 7.22264 32.15 7.22268 32.1495 7.22272C32.1484 7.22281 32.1469 7.22294 32.1449 7.22311C32.1411 7.22344 32.1355 7.22393 32.1283 7.22458C32.114 7.22587 32.093 7.22782 32.066 7.23048C32.0119 7.2358 31.9334 7.24399 31.8338 7.2556C31.6347 7.2788 31.3513 7.31571 31.0112 7.37074C30.3324 7.48058 29.4219 7.66362 28.5047 7.95652L28.7176 8.62335C29.5909 8.34449 30.4649 8.16824 31.123 8.06175C31.4514 8.00861 31.7245 7.97308 31.9148 7.95089C32.01 7.9398 32.0844 7.93205 32.1346 7.92711C32.1596 7.92464 32.1787 7.92288 32.1912 7.92175C32.1975 7.92118 32.2022 7.92077 32.2051 7.92051C32.2066 7.92039 32.2077 7.9203 32.2083 7.92024C32.2087 7.92021 32.2089 7.9202 32.209 7.92019C32.209 7.92018 32.2091 7.92018 32.2091 7.92018L32.209 7.92018C32.209 7.92018 32.209 7.92019 32.1802 7.57137ZM28.9875 9.38943C30.0645 8.7882 31.125 8.19848 32.2658 7.91074L32.0946 7.232C30.8491 7.54616 29.7083 8.18534 28.6463 8.77822L28.9875 9.38943ZM27.8151 10.0259C28.2066 9.82539 28.5982 9.60672 28.9875 9.38943L28.6463 8.77822C28.255 8.99665 27.8744 9.20906 27.496 9.40285L27.8151 10.0259ZM31.643 12.5446C31.9766 12.4386 31.9765 12.4383 31.9764 12.438C31.9764 12.4379 31.9763 12.4376 31.9762 12.4374C31.9761 12.437 31.9759 12.4365 31.9758 12.4361C31.9755 12.4351 31.9751 12.4341 31.9747 12.433C31.974 12.4307 31.9731 12.428 31.972 12.4249C31.9699 12.4188 31.9671 12.411 31.9636 12.4018C31.9566 12.3832 31.9467 12.3587 31.9334 12.3285C31.9067 12.2683 31.8661 12.1861 31.8069 12.0864C31.6884 11.8867 31.4959 11.618 31.1923 11.3154C30.584 10.7093 29.5384 9.97566 27.7667 9.38248L27.5445 10.0463C29.2285 10.6101 30.1766 11.2915 30.6981 11.8113C30.9594 12.0716 31.1158 12.2935 31.205 12.4437C31.2496 12.5189 31.2776 12.5765 31.2934 12.6123C31.3014 12.6302 31.3063 12.6427 31.3088 12.6492C31.31 12.6525 31.3106 12.6543 31.3107 12.6545C31.3108 12.6546 31.3107 12.6544 31.3105 12.6537C31.3104 12.6534 31.3102 12.653 31.31 12.6524C31.31 12.6522 31.3099 12.6519 31.3098 12.6516C31.3097 12.6514 31.3096 12.6512 31.3096 12.6511C31.3095 12.6508 31.3094 12.6506 31.643 12.5446ZM28.4526 11.5109C29.318 11.8477 29.971 12.1019 30.461 12.3133C30.9575 12.5274 31.2542 12.6844 31.4269 12.8199L31.8591 12.2692C31.6081 12.0723 31.2361 11.8852 30.7382 11.6705C30.2339 11.453 29.5669 11.1934 28.7065 10.8586L28.4526 11.5109ZM27.3679 11.0876C27.761 11.2417 28.1219 11.3822 28.4526 11.5109L28.7065 10.8586C28.3757 10.7298 28.0156 10.5897 27.6235 10.4359L27.3679 11.0876ZM28.6809 12.7457C28.3823 12.1153 28.0799 11.4761 27.8304 10.6595L27.161 10.864C27.427 11.7348 27.7499 12.4156 28.0483 13.0454L28.6809 12.7457ZM28.7697 12.9336L28.681 12.7459L28.0482 13.0452L28.137 13.2329L28.7697 12.9336ZM25.2704 10.9544C25.5364 11.9196 26.3551 12.5355 27.0361 12.8991C27.384 13.0848 27.7151 13.215 27.9588 13.2988C28.081 13.3408 28.1822 13.3715 28.2537 13.3919C28.2895 13.4022 28.3179 13.4098 28.3379 13.415C28.3479 13.4176 28.3558 13.4197 28.3615 13.4211C28.3643 13.4218 28.3666 13.4224 28.3683 13.4228C28.3691 13.423 28.3699 13.4232 28.3704 13.4233C28.3707 13.4234 28.3709 13.4234 28.3712 13.4235C28.3713 13.4235 28.3714 13.4235 28.3714 13.4235C28.3716 13.4236 28.3717 13.4236 28.4534 13.0833C28.535 12.7429 28.5351 12.7429 28.5352 12.743C28.5352 12.743 28.5353 12.743 28.5353 12.743C28.5354 12.743 28.5354 12.743 28.5354 12.743C28.5354 12.743 28.5352 12.743 28.5349 12.7429C28.5343 12.7427 28.5332 12.7425 28.5315 12.742C28.5281 12.7412 28.5225 12.7398 28.5149 12.7378C28.4996 12.7338 28.4762 12.7275 28.4458 12.7188C28.3847 12.7014 28.2955 12.6744 28.1865 12.6369C27.9676 12.5616 27.6725 12.4453 27.3657 12.2815C26.7375 11.9461 26.1334 11.4511 25.9452 10.7684L25.2704 10.9544ZM22.2427 12.9136C22.9414 12.6917 24.4287 12.1331 25.8111 11.1463L25.4044 10.5765C24.1039 11.5049 22.6922 12.0364 22.0308 12.2465L22.2427 12.9136ZM24.7151 9.71697C24.1155 10.2398 23.4096 10.8932 22.8553 11.4142C22.5778 11.6751 22.3376 11.9034 22.1667 12.0666C22.0812 12.1482 22.0131 12.2135 21.9663 12.2585C21.9429 12.2809 21.9248 12.2983 21.9125 12.3101C21.9064 12.316 21.9017 12.3205 21.8986 12.3235C21.897 12.3251 21.8958 12.3262 21.895 12.327C21.8946 12.3274 21.8943 12.3277 21.8941 12.3279C21.894 12.328 21.8939 12.3281 21.8939 12.3281C21.8938 12.3281 21.8938 12.3282 21.8938 12.3282C21.8938 12.3282 21.8938 12.3282 22.1368 12.5801C22.3798 12.8319 22.3798 12.8319 22.3798 12.8319C22.3799 12.8319 22.3799 12.8319 22.3799 12.8319C22.3799 12.8318 22.38 12.8318 22.3801 12.8317C22.3803 12.8315 22.3806 12.8312 22.3809 12.8308C22.3817 12.8301 22.3828 12.829 22.3844 12.8275C22.3874 12.8246 22.392 12.8202 22.398 12.8144C22.4101 12.8028 22.4279 12.7856 22.4511 12.7633C22.4975 12.7188 22.5651 12.654 22.6501 12.5729C22.8199 12.4107 23.0588 12.1836 23.3347 11.9243C23.8873 11.4048 24.5856 10.7586 25.1751 10.2446L24.7151 9.71697ZM20.4517 9.69624C20.4364 10.0459 20.4364 10.0459 20.4364 10.0459C20.4364 10.0459 20.4365 10.0459 20.4365 10.0459C20.4366 10.0459 20.4367 10.0459 20.4369 10.0459C20.4372 10.0459 20.4377 10.046 20.4384 10.046C20.4398 10.0461 20.4419 10.0462 20.4447 10.0463C20.4502 10.0465 20.4585 10.0469 20.4694 10.0474C20.4911 10.0483 20.5232 10.0498 20.5647 10.0517C20.6477 10.0555 20.768 10.0611 20.9173 10.0683C21.216 10.0827 21.6304 10.1036 22.0935 10.1293C23.0215 10.1809 24.138 10.2517 24.9102 10.329L24.98 9.63252C24.1908 9.55344 23.0606 9.48196 22.1323 9.43038C21.6671 9.40453 21.251 9.38359 20.9511 9.36911C20.8011 9.36187 20.6802 9.35624 20.5967 9.35242C20.555 9.35051 20.5226 9.34905 20.5006 9.34807C20.4896 9.34758 20.4812 9.34721 20.4756 9.34696C20.4727 9.34683 20.4706 9.34674 20.4691 9.34667C20.4684 9.34664 20.4679 9.34662 20.4675 9.3466C20.4673 9.34659 20.4672 9.34659 20.4671 9.34658C20.467 9.34658 20.467 9.34658 20.467 9.34658C20.467 9.34658 20.4669 9.34658 20.4517 9.69624ZM20.5877 9.30975L20.3793 9.35381L20.524 10.0387L20.7325 9.99462L20.5877 9.30975ZM25.339 8.68642C23.6223 8.66566 21.7605 9.06137 20.5876 9.30978L20.7326 9.99459C21.9177 9.74361 23.7041 9.3667 25.3305 9.38637L25.339 8.68642ZM21.8323 6.75296C22.1888 7.18041 23.3274 8.42764 25.1787 9.34969L25.4908 8.7231C23.7569 7.8595 22.6909 6.68952 22.3699 6.30462L21.8323 6.75296ZM24.3821 7.08667C23.8377 6.89438 23.3748 6.73084 23.0122 6.58764C22.6362 6.43915 22.4138 6.32935 22.3173 6.25356L21.8849 6.80403C22.0738 6.95243 22.3914 7.09506 22.7551 7.23871C23.1323 7.38767 23.609 7.55597 24.1489 7.7467L24.3821 7.08667ZM25.8982 7.63153C25.3511 7.42894 24.8395 7.24824 24.3821 7.08667L24.1489 7.7467C24.6068 7.90842 25.1137 8.08747 25.6552 8.28797L25.8982 7.63153ZM25.9549 4.05762C25.6051 4.04586 25.6051 4.04586 25.6051 4.04587C25.6051 4.04589 25.6051 4.04591 25.6051 4.04594C25.6051 4.046 25.6051 4.0461 25.6051 4.04623C25.6051 4.04649 25.605 4.04688 25.605 4.04741C25.605 4.04846 25.6049 4.05005 25.6049 4.05215C25.6047 4.05636 25.6045 4.06265 25.6042 4.07094C25.6037 4.08751 25.6028 4.11207 25.6017 4.14396C25.5995 4.20772 25.5961 4.30075 25.5918 4.41766C25.5832 4.65151 25.5707 4.98087 25.5549 5.36276C25.5234 6.12701 25.4789 7.0998 25.4274 7.93826L26.126 7.98124C26.178 7.13576 26.2227 6.15748 26.2543 5.39165C26.2702 5.0085 26.2827 4.67806 26.2914 4.44338C26.2957 4.32603 26.299 4.2326 26.3013 4.16848C26.3024 4.13642 26.3032 4.11168 26.3038 4.09494C26.3041 4.08657 26.3043 4.0802 26.3045 4.07591C26.3045 4.07377 26.3046 4.07214 26.3046 4.07105C26.3046 4.07051 26.3047 4.07009 26.3047 4.06981C26.3047 4.06967 26.3047 4.06957 26.3047 4.06949C26.3047 4.06946 26.3047 4.06943 26.3047 4.06941C26.3047 4.06939 26.3047 4.06938 25.9549 4.05762ZM21.6502 6.47619C21.6911 6.63562 21.8065 6.74244 21.8849 6.80403L22.3173 6.25356C22.2997 6.23975 22.2957 6.23408 22.2984 6.23743C22.3008 6.2404 22.3179 6.26205 22.3282 6.30209L21.6502 6.47619ZM22.3699 6.30462C22.3349 6.26273 22.3091 6.23044 22.2924 6.20921C22.284 6.1986 22.278 6.19075 22.2743 6.18586C22.2724 6.18341 22.2711 6.1817 22.2704 6.18075C22.27 6.18028 22.2698 6.18 22.2697 6.17991C22.2697 6.17986 22.2697 6.17987 22.2697 6.17992C22.2698 6.17994 22.2698 6.17998 22.2698 6.18003C22.2699 6.18006 22.2699 6.18009 22.2699 6.18012C22.2699 6.18013 22.2699 6.18015 22.2699 6.18017C22.2699 6.18017 22.27 6.18019 22.27 6.18019C22.27 6.18021 22.27 6.18022 21.9892 6.38914C21.7084 6.59805 21.7084 6.59807 21.7084 6.59808C21.7084 6.59809 21.7084 6.5981 21.7084 6.59811C21.7084 6.59813 21.7084 6.59815 21.7084 6.59818C21.7085 6.59822 21.7085 6.59827 21.7086 6.59832C21.7086 6.59842 21.7087 6.59853 21.7088 6.59865C21.709 6.5989 21.7092 6.5992 21.7095 6.59955C21.71 6.60024 21.7107 6.60113 21.7115 6.60221C21.7131 6.60437 21.7153 6.6073 21.7181 6.61098C21.7238 6.61834 21.7318 6.62869 21.7421 6.64185C21.7628 6.66816 21.7929 6.70569 21.8323 6.75296L22.3699 6.30462ZM31.2352 4.60169C31.0561 4.67777 30.8914 4.76351 30.7392 4.85817L31.1087 5.45268C31.2296 5.37751 31.3621 5.3083 31.5088 5.24598L31.2352 4.60169ZM31.0901 5.46346C31.226 5.39015 31.3353 5.33364 31.4102 5.29569C31.4477 5.27671 31.4765 5.26239 31.4957 5.25292C31.5053 5.24819 31.5125 5.24468 31.5172 5.24241C31.5195 5.24128 31.5212 5.24045 31.5223 5.23994C31.5228 5.23969 31.5232 5.23951 31.5234 5.23942C31.5235 5.23937 31.5235 5.23934 31.5235 5.23933C31.5235 5.23933 31.5235 5.23933 31.5235 5.23933C31.5235 5.23934 31.5235 5.23934 31.5235 5.23935C31.5235 5.23935 31.5235 5.23935 31.5235 5.23935C31.5235 5.23936 31.5235 5.23936 31.372 4.92384C31.2205 4.60831 31.2205 4.60831 31.2205 4.60832C31.2205 4.60832 31.2205 4.60833 31.2205 4.60833C31.2205 4.60834 31.2204 4.60836 31.2204 4.60837C31.2204 4.60839 31.2203 4.60842 31.2202 4.60846C31.2201 4.60853 31.2199 4.60862 31.2197 4.60873C31.2192 4.60896 31.2186 4.60926 31.2178 4.60964C31.2162 4.6104 31.214 4.61148 31.2111 4.61288C31.2053 4.61567 31.197 4.61972 31.1863 4.62501C31.1649 4.63557 31.1337 4.65107 31.0938 4.67127C31.0141 4.71168 30.8994 4.77097 30.7578 4.84739L31.0901 5.46346ZM26.5039 8.62365C26.3787 8.62365 26.258 8.64722 26.1474 8.69083L26.4043 9.34199C26.4332 9.33062 26.4667 9.32365 26.5039 9.32365V8.62365ZM26.6966 8.64265C26.6341 8.63015 26.5696 8.62365 26.5039 8.62365V9.32365C26.5234 9.32365 26.5419 9.32558 26.5592 9.32905L26.6966 8.64265ZM26.9533 9.11475C26.9636 9.08878 26.9744 9.06277 26.9857 9.03673L26.3435 8.75807C26.3293 8.79087 26.3156 8.82382 26.3025 8.85694L26.9533 9.11475ZM26.6432 8.54805L26.2707 8.57086L26.3134 9.26955L26.686 9.24675L26.6432 8.54805ZM25.9469 8.86224L25.9307 8.95845L26.6211 9.07438L26.6372 8.97817L25.9469 8.86224Z" mask="url(#path-15-outside-2_91_27470)"/></g></g><g id="crown"><path id="Combined Shape_3" fill="#F50100" fill-rule="evenodd" d="M30.3209 17.8188V17.6384C29.7283 17.1835 29.1078 16.956 28.4593 16.956C27.8376 16.6617 27.2083 16.5474 26.5715 16.6133C26.5717 16.6112 26.5717 16.6101 26.5717 16.6101C25.6142 16.5099 24.6491 16.956 24.6491 16.956C23.6764 16.956 22.7876 17.6384 22.7876 17.6384V17.8188L23.9495 19.0672C23.9495 19.0672 24.2766 20.2687 26.567 19.9863V19.9894C26.567 19.9894 28.0835 19.9451 28.1901 19.9072C28.2323 19.8921 28.2762 19.8784 28.321 19.8644C28.618 19.7717 28.9571 19.6658 29.159 19.0672L30.3209 17.8188ZM26.567 16.6683C26.534 17.0833 26.3451 19.5895 26.567 19.9779V16.6683Z" clip-rule="evenodd"/><path id="Combined Shape_4" fill="#FECA00" fill-rule="evenodd" d="M24.675 16.4169C24.7986 16.0116 25.0149 15.8744 25.5417 15.8744C25.8688 15.8744 26.1158 15.9559 26.2877 16.1157V17.1986H26.3797V17.3269C26.3066 17.3745 26.2692 17.4783 26.2933 17.5888C26.3016 17.6267 26.3162 17.6614 26.3354 17.6915C26.2967 17.679 26.253 17.672 26.2068 17.672C26.0477 17.672 25.9188 17.7548 25.9188 17.8569C25.9188 17.959 26.0477 18.0417 26.2068 18.0417C26.3659 18.0417 26.4948 17.959 26.4948 17.8569C26.4948 17.838 26.4904 17.8197 26.4821 17.8025C26.4899 17.8043 26.4978 17.8057 26.5057 17.8065C26.4987 17.8225 26.4949 17.8394 26.4949 17.8569C26.4949 17.9083 26.5276 17.9548 26.5804 17.9884H26.439H26.4352C26.4352 18.2668 26.3023 18.4442 26.1033 18.4442C25.9642 18.4442 25.8664 18.3762 25.7954 18.2263L25.5985 17.8102L25.5776 18.2761C25.5702 18.4403 25.5034 18.5055 25.3372 18.5055C25.1759 18.5055 25.0601 18.399 24.9817 18.159C25.0051 18.1629 25.0296 18.165 25.0549 18.165C25.2139 18.165 25.3429 18.0822 25.3429 17.9801C25.3429 17.878 25.2139 17.7953 25.0549 17.7953C25.023 17.7953 24.9924 17.7986 24.9638 17.8047C24.9819 17.7572 24.9864 17.7003 24.9736 17.6415C24.9432 17.5027 24.8272 17.406 24.7145 17.4255C24.6018 17.445 24.535 17.5733 24.5653 17.7121C24.5736 17.7499 24.5882 17.7846 24.6074 17.8147C24.5687 17.8023 24.525 17.7953 24.4788 17.7953C24.3197 17.7953 24.1908 17.878 24.1908 17.9801C24.1908 18.0822 24.3197 18.165 24.4788 18.165C24.6078 18.165 24.7169 18.1106 24.7536 18.0356L24.7446 18.1443C24.719 18.4511 24.6408 18.595 24.525 18.6152C24.3672 18.6426 24.2474 18.6296 24.1638 18.5812L23.9938 18.4828V18.6502C23.9403 18.6563 23.8486 18.6456 23.7231 18.6164L23.7035 18.713L23.4921 18.5003C23.5561 18.5085 23.6313 18.4968 23.7021 18.4633C23.8425 18.3969 23.9126 18.27 23.8587 18.1799C23.8048 18.0898 23.6472 18.0705 23.5068 18.1369C23.4773 18.1508 23.451 18.1674 23.4282 18.1857C23.4255 18.1655 23.4207 18.1449 23.4136 18.1242C23.3671 17.989 23.2403 17.9036 23.1305 17.9334C23.0813 17.9468 23.0439 17.981 23.0217 18.0268L22.9364 17.941L22.8575 18.0308L23.002 18.1762C23.0048 18.1947 23.0094 18.2135 23.0158 18.2323C23.056 18.349 23.1559 18.4286 23.2531 18.429L23.6749 18.8535L23.6742 18.8572L23.68 18.8586L23.9141 19.0942C23.9485 19.1619 23.979 19.2244 24.0057 19.2816C24.0342 19.4037 24.0769 19.539 24.1376 19.6218C24.1431 19.6459 24.1459 19.6659 24.1459 19.6817C24.1459 19.8087 24.4549 19.8841 25.0579 19.9616C25.5304 20.0223 26.0879 20.063 26.544 20.0691V20.0699L26.6017 20.0697L26.6595 20.0699V20.0691C27.1156 20.063 27.6731 20.0223 28.1456 19.9616C28.7486 19.8841 29.0576 19.8087 29.0576 19.6817C29.0576 19.5984 29.1352 19.3979 29.2894 19.0942L30.346 18.0308L30.2671 17.941L30.0037 18.2061L30.0079 18.1945C30.0544 18.0593 30.0031 17.9255 29.8932 17.8957C29.7834 17.8658 29.6567 17.9512 29.6102 18.0864C29.603 18.1071 29.5982 18.1277 29.5955 18.148C29.5728 18.1296 29.5464 18.113 29.5169 18.0991C29.3765 18.0327 29.2189 18.052 29.165 18.1422C29.1111 18.2323 29.1812 18.3592 29.3217 18.4256C29.4621 18.4919 29.6197 18.4727 29.6736 18.3825C29.6767 18.3773 29.6794 18.372 29.6817 18.3666C29.6948 18.3747 29.7092 18.3811 29.7248 18.3853C29.759 18.3946 29.7947 18.3927 29.8292 18.3817L29.4179 18.7956L29.3815 18.6164C29.256 18.6456 29.1643 18.6563 29.1108 18.6502V18.4828L28.9408 18.5812C28.8572 18.6296 28.7374 18.6426 28.5797 18.6152C28.4638 18.595 28.3856 18.4511 28.3601 18.1443L28.358 18.12C28.3977 18.141 28.4452 18.1561 28.4975 18.1627C28.655 18.1823 28.7956 18.1163 28.8116 18.0152C28.8276 17.9141 28.7129 17.8162 28.5554 17.7966C28.5192 17.792 28.4839 17.792 28.4508 17.7959C28.4794 17.7497 28.4948 17.6907 28.4911 17.6271C28.4828 17.4859 28.383 17.3757 28.2683 17.3811C28.1536 17.3864 28.0674 17.5052 28.0757 17.6464C28.0777 17.6797 28.0847 17.7112 28.0958 17.7399C28.0627 17.7259 28.0252 17.7158 27.985 17.7108C27.8275 17.6911 27.6869 17.7571 27.6709 17.8582C27.6549 17.9593 27.7696 18.0572 27.9271 18.0769C28.0164 18.0881 28.1003 18.0717 28.1591 18.037L28.1353 18.1186C28.057 18.3871 27.9375 18.5055 27.7674 18.5055C27.6012 18.5055 27.5344 18.4403 27.5271 18.2761L27.5061 17.8102L27.3092 18.2263C27.2383 18.3762 27.1404 18.4442 27.0013 18.4442C26.8117 18.4442 26.6821 18.2831 26.6703 18.0271C26.7049 18.0365 26.7429 18.0417 26.7829 18.0417C26.942 18.0417 27.0709 17.959 27.0709 17.8569C27.0709 17.7548 26.942 17.672 26.7829 17.672C26.7511 17.672 26.7204 17.6754 26.6918 17.6815C26.7099 17.6339 26.7145 17.577 26.7016 17.5183C26.689 17.4606 26.6615 17.4101 26.6257 17.3723H26.8405V16.1346C27.0124 15.9749 27.2593 15.8934 27.5864 15.8934C28.1132 15.8934 28.3295 16.0307 28.4531 16.4359C28.5319 16.6942 28.4555 16.9146 28.2078 17.1203L28.3491 17.315C28.6258 17.0852 28.7479 16.8108 28.7051 16.5067C29.2977 16.4856 29.7405 16.5532 30.0314 16.7051C30.2846 16.8374 30.331 17.1729 30.1393 17.7567L30.3567 17.8384C30.5822 17.1514 30.5178 16.6849 30.1324 16.4836C29.7928 16.3063 29.2979 16.2341 28.6452 16.2624L28.6459 16.2802C28.4811 15.8229 28.1728 15.647 27.5864 15.647C27.2887 15.647 27.0392 15.7084 26.8405 15.8328V15.7702H26.3797V15.8788C26.1681 15.7107 25.8874 15.6279 25.5417 15.6279C24.9673 15.6279 24.6598 15.7967 24.4925 16.2334L24.4961 16.1392C23.8434 16.1109 23.3485 16.183 23.0089 16.3604C22.6235 16.5616 22.5591 17.0282 22.7846 17.7152L23.002 17.6335C22.8103 17.0497 22.8566 16.7141 23.1099 16.5819C23.402 16.4293 23.8474 16.3618 24.4438 16.3837C24.3546 16.7293 24.4711 17.0402 24.779 17.296L24.9203 17.1013C24.6726 16.8955 24.5962 16.6751 24.675 16.4169ZM24.7613 17.9439C24.7594 17.9377 24.757 17.9317 24.7541 17.9258L24.7626 17.9275L24.7613 17.9439ZM29.337 18.8771C29.1483 18.9128 29.0121 18.9092 28.9398 18.8462C28.8267 18.8814 28.6941 18.8848 28.5427 18.8585C28.3809 18.8303 28.2683 18.7152 28.2005 18.5243C28.1121 18.6449 28.0002 18.7193 27.8662 18.7434C28.6034 18.8552 29.1198 19.0125 29.1198 19.0125C29.1198 19.0125 29.1071 19.1293 29.0761 19.2666C29.1089 19.1947 29.1477 19.1148 29.1926 19.0266L29.2037 19.0112L29.337 18.8771ZM27.5183 18.6966C27.4542 18.6625 27.403 18.6131 27.366 18.5494C27.311 18.6013 27.2485 18.6393 27.1791 18.6627C27.295 18.6722 27.4083 18.6837 27.5183 18.6966ZM26.7724 18.6387C26.6826 18.5944 26.608 18.5233 26.5523 18.4323C26.497 18.5227 26.423 18.5934 26.3341 18.6378C26.3868 18.6361 26.4398 18.6349 26.493 18.6343V18.6337L26.5392 18.6339L26.5854 18.6337V18.6343C26.6481 18.635 26.7105 18.6366 26.7724 18.6387ZM23.9914 19.0028L23.884 18.8947C24.0129 18.9084 24.1084 18.8954 24.1648 18.8462C24.2779 18.8814 24.4105 18.8848 24.562 18.8585C24.7237 18.8303 24.8363 18.7152 24.9041 18.5243C24.99 18.6414 25.098 18.715 25.2269 18.7412C24.5912 18.8367 24.1169 18.9667 23.9914 19.0028ZM25.9205 18.661C25.8089 18.6699 25.6996 18.6806 25.5934 18.6927C25.6542 18.6588 25.703 18.6107 25.7386 18.5494C25.7923 18.6001 25.8531 18.6375 25.9205 18.661ZM28.7547 19.6841C28.8354 19.7245 28.9001 19.6842 28.9513 19.6068C28.9468 19.6282 28.9441 19.6475 28.9429 19.6648C28.9362 19.6696 28.9258 19.6753 28.9122 19.6814C28.8743 19.6984 28.8163 19.7166 28.7409 19.735C28.5928 19.7712 28.3818 19.8071 28.1319 19.8392C27.6437 19.9019 27.0632 19.9432 26.6017 19.9464C26.1403 19.9432 25.5598 19.9019 25.0716 19.8392C24.8217 19.8071 24.6107 19.7712 24.4625 19.735C24.3994 19.7196 24.3484 19.7043 24.3113 19.6897C24.3154 19.6881 24.3195 19.6862 24.3237 19.6841C24.5754 19.5581 26.2396 19.4399 26.5392 19.4195C26.8388 19.4399 28.503 19.5581 28.7547 19.6841ZM29.0891 19.6615C29.0886 19.6619 29.0881 19.6625 29.0874 19.6634L29.0883 19.6621L29.0891 19.6615Z" clip-rule="evenodd"/><g id="top"><path id="Path 311" fill="white" d="M24.5245 16.0387L24.5225 16.1619C23.501 16.1428 22.9151 16.3023 22.7664 16.6201C22.6126 16.9487 22.6412 17.3481 22.8566 17.8226L22.753 17.8765C22.5231 17.3702 22.4917 16.9316 22.6633 16.5649C22.84 16.1875 23.4598 16.0188 24.5245 16.0387Z"/><path id="Path 312" fill="white" d="M24.7224 17.1312L24.6634 17.237C24.4409 17.0949 24.3296 16.8525 24.3296 16.5183C24.3296 16.038 24.5609 15.7564 25.0724 15.5637C25.3989 15.4407 25.8449 15.4911 26.4117 15.7109L26.3724 15.8268C25.8283 15.6157 25.4073 15.5681 25.1107 15.6799C24.6415 15.8567 24.4448 16.0962 24.4448 16.5183C24.4448 16.8115 24.5373 17.0129 24.7224 17.1312Z"/><path id="Path 311_2" fill="white" d="M28.5448 16.1617L28.5468 16.2849C29.5683 16.2659 30.1542 16.4253 30.303 16.7432C30.4568 17.0717 30.4282 17.4712 30.2127 17.9457L30.3163 17.9995C30.5462 17.4933 30.5776 17.0547 30.406 16.688C30.2294 16.3105 29.6095 16.1418 28.5448 16.1617Z"/><path id="Path 312_2" fill="white" d="M28.1838 17.1566L28.2429 17.2624C28.4653 17.1203 28.5767 16.8779 28.5767 16.5437C28.5767 16.0634 28.3454 15.7818 27.8338 15.589C27.5073 15.466 27.0613 15.5165 26.4946 15.7363L26.5338 15.8522C27.0779 15.6411 27.4989 15.5935 27.7956 15.7053C28.2648 15.8821 28.4615 16.1216 28.4615 16.5437C28.4615 16.8369 28.369 17.0383 28.1838 17.1566Z"/></g></g></g></g></g></g></g></g></g><defs><filter id="filter0_dd_91_27470" width="42" height="30" x="0" y="0" color-interpolation-filters="sRGB" filterUnits="userSpaceOnUse"><feFlood flood-opacity="0" result="BackgroundImageFix"/><feColorMatrix in="SourceAlpha" result="hardAlpha" values="0 0 0 0 0 0 0 0 0 0 0 0 0 0 0 0 0 0 127 0"/><feOffset dy="1"/><feGaussianBlur stdDeviation="1"/><feColorMatrix values="0 0 0 0 0.0627451 0 0 0 0 0.0941176 0 0 0 0 0.156863 0 0 0 0.06 0"/><feBlend in2="BackgroundImageFix" result="effect1_dropShadow_91_27470"/><feColorMatrix in="SourceAlpha" result="hardAlpha" values="0 0 0 0 0 0 0 0 0 0 0 0 0 0 0 0 0 0 127 0"/><feOffset dy="1"/><feGaussianBlur stdDeviation="1.5"/><feColorMatrix values="0 0 0 0 0.0627451 0 0 0 0 0.0941176 0 0 0 0 0.156863 0 0 0 0.1 0"/><feBlend in2="effect1_dropShadow_91_27470" result="effect2_dropShadow_91_27470"/><feBlend in="SourceGraphic" in2="effect2_dropShadow_91_27470" result="shape"/></filter><clipPath id="clip0_91_27470"><rect width="36" height="24" x="3" y="2" fill="white" rx="2"/></clipPath></defs></svg>