<svg xmlns="http://www.w3.org/2000/svg" fill="none" aria-hidden="true" viewBox="0 0 42 30"><g filter="url(#a)"><g clip-path="url(#b)"><mask id="c" width="36" height="24" x="3" y="2" maskUnits="userSpaceOnUse" style="mask-type:alpha"><path fill="#fff" d="M3 2h36v24H3z"/></mask><g mask="url(#c)"><path fill="#4EC7EE" fill-rule="evenodd" d="M3 2v24h36V2H3Z" clip-rule="evenodd"/><mask id="d" width="36" height="24" x="3" y="2" maskUnits="userSpaceOnUse" style="mask-type:alpha"><path fill="#fff" fill-rule="evenodd" d="M3 2v24h36V2H3Z" clip-rule="evenodd"/></mask><g mask="url(#d)"><path fill="#FFE402" d="M7.601 25.237c-.071.47.267.805.835 1.02.764.29 1.535.019 2.244-.68l-.919-.736c-.315.31-.542.43-.718.427.344-.218.785-.488 1.321-.808l.258-.332c.207-.789-.436-1.216-1.418-1.216-.578 0-1.04.101-1.333.32-.482.359-.4.932.108 1.23.04.023.08.045.122.064-.284.213-.458.434-.5.711Z"/><path stroke="#FFE402" stroke-width="1.1" d="M8.135 24.496s.14-.277.07-.42"/><path fill="#FFE402" d="M12.64 25.237c.072.47-.267.805-.835 1.02-.764.29-1.535.019-2.244-.68l.92-.736c.314.31.542.43.717.427a58.071 58.071 0 0 0-1.321-.808l-.258-.332c-.207-.789.437-1.216 1.418-1.216.578 0 1.04.101 1.333.32.482.359.4.932-.107 1.23-.04.023-.082.045-.123.064.284.213.458.434.5.711Z"/><path fill="#FFE402" d="m12.67 24.27-1.128.452c-.158-.312-.206-.596-.074-.866l1.135.438c.039-.079.038-.082.067-.025ZM7.601 2.763c-.071-.47.267-.805.835-1.02.764-.29 1.535-.018 2.244.68l-.919.737c-.315-.31-.542-.43-.718-.428.344.219.785.488 1.321.809l.258.331c.207.79-.436 1.217-1.418 1.217-.578 0-1.04-.102-1.333-.32-.482-.36-.4-.932.108-1.23.04-.024.08-.045.122-.064-.284-.214-.458-.434-.5-.712Z"/><path fill="#FFE402" d="M12.64 2.763c.072-.47-.267-.805-.835-1.02-.764-.29-1.535-.018-2.244.68l.92.737c.314-.31.542-.43.717-.428a58.08 58.08 0 0 1-1.321.809l-.258.331c-.207.79.437 1.217 1.418 1.217.578 0 1.04-.102 1.333-.32.482-.36.4-.932-.107-1.23a1.35 1.35 0 0 0-.123-.064c.284-.214.458-.434.5-.712Z"/><path fill="#FFE402" fill-rule="evenodd" d="M8.73 22.063c-.71.018-1.151.148-1.151.757 0 .67.733.88 1.513.88.707 0 1.502-.39 1.502-1.088 0-.424-.607-1.281-2.137-3.139-.053-.044-.082-.066-.105-.066.093-.046.256-.1.472-.1.074 0 .172.034.268.077v.728h1.62v-.55c0-.621-1.034-1.355-1.888-1.355-.747 0-1.346.316-1.65.77-.3.448-.07.879.36 1.221.642.786 1.14 1.436 1.451 1.864a6.756 6.756 0 0 0-.254.001Zm.077.507a1.224 1.224 0 0 1-.065-.014c.015.014.074.076.074.264 0 .102-.005.173-.012.224a.488.488 0 0 1-.115-.669l.004-.006.114.201Zm-.065-.014-.021-.006.009.004.012.002Zm.615.056c0-.018-.007-.03-.02-.036l.008.007a.092.092 0 0 1 .012.03Zm-.664-.242-.023-.042.009-.004c.036-.016.065-.03.014.045Z" clip-rule="evenodd"/><path fill="#FFE402" fill-rule="evenodd" d="M11.511 22.063c.71.018 1.152.148 1.152.757 0 .67-.733.88-1.513.88-.707 0-1.503-.39-1.503-1.088 0-.424.608-1.281 2.137-3.139.053-.044.082-.066.106-.066a1.083 1.083 0 0 0-.472-.1.733.733 0 0 0-.268.077v.728H9.53v-.55c0-.621 1.034-1.355 1.888-1.355.746 0 1.346.316 1.649.77.3.448.07.879-.36 1.221a46.192 46.192 0 0 0-1.45 1.864c.114-.001.177-.001.254.001Zm-.076.507.064-.014c-.015.014-.074.076-.074.264 0 .102.006.173.013.224a.488.488 0 0 0 .114-.669l-.003-.006-.114.201Zm.064-.014.022-.006a.048.048 0 0 0-.01.004l-.012.002Zm-.614.056c0-.018.007-.03.02-.036l-.008.007a.093.093 0 0 0-.012.03Zm.664-.242.023-.042-.01-.004c-.035-.016-.065-.03-.013.045Z" clip-rule="evenodd"/><path fill="#FFE402" fill-rule="evenodd" d="M8.73 15.355c-.71-.018-1.151-.148-1.151-.757 0-.67.733-.88 1.513-.88.707 0 1.502.39 1.502 1.088 0 .424-.607 1.281-2.137 3.139-.053.044-.082.066-.105.066.093.046.256.1.472.1a.733.733 0 0 0 .268-.077v-.728h1.62v.55c0 .621-1.034 1.355-1.888 1.355-.747 0-1.346-.316-1.65-.77-.3-.448-.07-.879.36-1.221a46.102 46.102 0 0 0 1.451-1.864 6.756 6.756 0 0 1-.254-.001Zm.077-.507a1.13 1.13 0 0 0-.065.014c.015-.014.074-.076.074-.264 0-.102-.005-.173-.012-.224a.488.488 0 0 0-.115.669l.004.006.114-.201Zm-.065.014-.021.006a.04.04 0 0 0 .009-.004l.012-.002Zm.615-.056c0 .018-.007.03-.02.036l.008-.008a.09.09 0 0 0 .012-.028Zm-.664.243-.023.04.009.005c.036.016.065.03.014-.045Z" clip-rule="evenodd"/><path fill="#FFE402" fill-rule="evenodd" d="M11.511 15.355c.71-.018 1.152-.148 1.152-.757 0-.67-.733-.88-1.513-.88-.707 0-1.503.39-1.503 1.088 0 .424.608 1.281 2.137 3.139.053.044.082.066.106.066-.093.046-.256.1-.472.1a.733.733 0 0 1-.268-.077v-.728H9.53v.55c0 .621 1.034 1.355 1.888 1.355.746 0 1.346-.316 1.649-.77.3-.448.07-.879-.36-1.221a46.12 46.12 0 0 1-1.45-1.864c.114.001.177.001.254-.001Zm-.076-.507.064.014c-.015-.014-.074-.076-.074-.264 0-.102.006-.173.013-.224.209.164.267.45.114.669l-.003.006-.114-.201Zm.064.014.022.006a.04.04 0 0 1-.01-.004l-.012-.002Zm-.614-.056c0 .018.007.03.02.036l-.008-.008a.091.091 0 0 1-.012-.028Zm.664.243.023.04a.82.82 0 0 0-.01.005c-.035.016-.065.03-.013-.045Z" clip-rule="evenodd"/><path fill="#FFE402" fill-rule="evenodd" d="M8.73 12.646c-.71.018-1.151.148-1.151.756 0 .67.733.88 1.513.88.707 0 1.502-.39 1.502-1.087 0-.425-.607-1.282-2.137-3.14-.053-.043-.082-.066-.105-.066.093-.046.256-.1.472-.1.074 0 .172.034.268.077v.729h1.62v-.55c0-.622-1.034-1.356-1.888-1.356-.747 0-1.346.316-1.65.77-.3.449-.07.88.36 1.222.642.786 1.14 1.436 1.451 1.863-.114 0-.177 0-.254.002Zm.077.507a1.13 1.13 0 0 1-.065-.015c.015.014.074.077.074.264 0 .102-.005.174-.012.224a.488.488 0 0 1-.115-.668l.004-.006.114.2Zm-.065-.015-.021-.006a.04.04 0 0 1 .009.004l.012.002Zm.615.057c0-.019-.007-.03-.02-.036l.008.007a.09.09 0 0 1 .012.029Zm-.664-.243-.023-.041a1.66 1.66 0 0 0 .009-.004c.036-.017.065-.03.014.045Z" clip-rule="evenodd"/><path fill="#FFE402" fill-rule="evenodd" d="M11.511 12.646c.71.018 1.152.148 1.152.756 0 .67-.733.88-1.513.88-.707 0-1.503-.39-1.503-1.087 0-.425.608-1.282 2.137-3.14.053-.043.082-.066.106-.066a1.083 1.083 0 0 0-.472-.1.733.733 0 0 0-.268.077v.729H9.53v-.55c0-.622 1.034-1.356 1.888-1.356.746 0 1.346.316 1.649.77.3.449.07.88-.36 1.222a46.12 46.12 0 0 0-1.45 1.863c.114 0 .177 0 .254.002Zm-.076.507.064-.015c-.015.014-.074.077-.074.264 0 .102.006.174.013.224a.488.488 0 0 0 .114-.668l-.003-.006-.114.2Zm.064-.015.022-.006a.04.04 0 0 0-.01.004l-.012.002Zm-.614.057c0-.019.007-.03.02-.036l-.008.007a.091.091 0 0 0-.012.029Zm.664-.243.023-.041-.01-.004c-.035-.017-.065-.03-.013.045Z" clip-rule="evenodd"/><path fill="#FFE402" fill-rule="evenodd" d="M8.73 5.937c-.71-.018-1.151-.148-1.151-.757 0-.67.733-.88 1.513-.88.707 0 1.502.39 1.502 1.088 0 .424-.607 1.281-2.137 3.139-.053.044-.082.066-.105.066.093.046.256.1.472.1a.733.733 0 0 0 .268-.077v-.728h1.62v.55c0 .621-1.034 1.355-1.888 1.355-.747 0-1.346-.316-1.65-.77-.3-.448-.07-.879.36-1.221a46.168 46.168 0 0 0 1.451-1.864 6.756 6.756 0 0 1-.254-.001Zm.077-.507-.065.014c.015-.014.074-.076.074-.264 0-.102-.005-.173-.012-.224a.488.488 0 0 0-.115.669l.004.006.114-.201Zm-.065.014-.021.006a.041.041 0 0 0 .009-.004l.012-.002Zm.615-.056c0 .018-.007.03-.02.036l.008-.007a.092.092 0 0 0 .012-.03Zm-.664.243-.023.04.009.005c.036.016.065.03.014-.045Z" clip-rule="evenodd"/><path fill="#FFE402" fill-rule="evenodd" d="M11.511 5.937c.71-.018 1.152-.148 1.152-.757 0-.67-.733-.88-1.513-.88-.707 0-1.503.39-1.503 1.088 0 .424.608 1.281 2.137 3.139.053.044.082.066.106.066-.093.046-.256.1-.472.1a.733.733 0 0 1-.268-.077v-.728H9.53v.55c0 .621 1.034 1.355 1.888 1.355.746 0 1.346-.316 1.649-.77.3-.448.07-.879-.36-1.221a46.186 46.186 0 0 1-1.45-1.864c.114.001.177.001.254-.001Zm-.076-.507.064.014c-.015-.014-.074-.076-.074-.264 0-.102.006-.173.013-.224.209.164.267.45.114.669l-.003.006-.114-.201Zm.064.014.022.006a.043.043 0 0 1-.01-.004l-.012-.002Zm-.614-.056c0 .018.007.03.02.036l-.008-.007a.092.092 0 0 1-.012-.03Zm.664.243.023.04a.673.673 0 0 0-.01.005c-.035.016-.065.03-.013-.045Zm12.811-.846.46 1.528s.006.347-.435.347-.464-.347-.464-.347l.439-1.528Zm3.896 5.835c0 1.989-1.707 3.6-3.813 3.6-2.107 0-3.814-1.611-3.814-3.6 0-1.988 1.707-3.6 3.814-3.6 2.106 0 3.813 1.612 3.813 3.6Zm-2.102-4 .062-1.58-.922 1.347s-.093.338.329.453c.422.114.53-.22.53-.22Zm1.754-.831-.58 1.495s-.213.29-.579.071c-.365-.219-.165-.518-.165-.518l1.324-1.048Zm.333 2.455 1.046-1.28-1.612.659s-.29.234-.012.538c.278.305.578.083.578.083Zm1.996.234-1.44.93s-.362.129-.52-.238c-.158-.366.198-.508.198-.508l1.762-.184Zm-1.263 2.205 1.682-.515-1.745-.283s-.388.044-.357.435c.03.392.42.363.42.363Zm1.544 1.213-1.778.056s-.382-.074-.283-.456c.1-.382.485-.323.485-.323l1.576.723Zm-2.402 1.205 1.72.41-1.27-1.102s-.35-.156-.57.184c-.22.34.12.508.12.508Zm.552 1.767-1.509-.838s-.27-.25.053-.518c.322-.267.605-.027.605-.027l.851 1.383Zm-2.715-.214 1.168 1.194-.36-1.544s-.191-.303-.587-.132c-.397.172-.22.482-.22.482Zm-.624 1.71-.724-1.446s-.066-.342.37-.403c.435-.062.518.278.518.278l-.164 1.57Zm-2.08-1.57.186 1.572.702-1.448s.039-.346-.397-.407-.491.282-.491.282Zm-1.607 1.062.339-1.552s.166-.314.563-.142c.396.171.245.492.245.492l-1.148 1.202Zm-.717-2.371-.835 1.397 1.493-.852s.25-.267-.073-.535c-.322-.267-.585-.01-.585-.01Zm-2.007.043 1.258-1.119s.336-.177.556.162c.22.34-.106.53-.106.53l-1.708.427Zm.882-2.355-1.57.742 1.772.037s.376-.098.277-.48c-.1-.382-.479-.3-.479-.3Zm-1.716-.986 1.747-.302s.39.02.36.411c-.031.391-.423.387-.423.387l-1.684-.496Zm2.183-1.525-1.77-.166 1.447.912s.373.106.53-.26c.159-.366-.207-.486-.207-.486ZM19.44 6.98l1.626.643s.306.215.029.52c-.278.304-.595.101-.595.101L19.44 6.98Zm2.717-.143L20.815 5.8l.598 1.484s.237.277.603.058c.365-.22.142-.505.142-.505Zm.347-1.79.943 1.34s.12.33-.303.445c-.421.115-.557-.211-.557-.211l-.083-1.575Z" clip-rule="evenodd"/><path fill="#FFE402" fill-rule="evenodd" d="M16.748 12.672a4.373 4.373 0 0 1-.042-.154l.079.141-.037.013Zm.108.33a5.96 5.96 0 0 1-.108-.33l-.482.171.072.16h-.052l-.02.008a1.722 1.722 0 0 1-.044-.372v-.987l.484.866a2.615 2.615 0 0 1-.092-.637v-1.23l.56 1.247-.532.148.21.593h-.011l-.056.02.198.355.192.543c-.18-.292-.27-.486-.27-.555h-.049Zm.616 1.387a12.388 12.388 0 0 1-.616-1.387h-.518l.527 1.173-.195-.185c-.205-.364-.34-.688-.404-.979l-.43.19-.085-.082v.12l-.02.008.02.035v.134a1.235 1.235 0 0 1-.084-.414V10.66l.555.993V9.778l.392.873V8.283l1.565 4.443-.11.032c-.145-.385-.217-.68-.217-.877h-.62l-.058.017.445.99-.107.031a.957.957 0 0 1-.052-.28h-.609l.132.375.691 1.237-.028.01a11.81 11.81 0 0 1-.471-.704l.27.77.2-.067.028.039-.201.09Zm.214-.072-.214.072-.26.116-.347-.33.165.369a.559.559 0 0 1-.038-.03 8.185 8.185 0 0 1-.322-.524l-.833-.79-.086.038v.044l.687 1.228h-.068l-.005.004c-.305-.448-.509-.807-.614-1.098v.803l-2.457-1.556 3.13 3.311c1 1.059 2.232 1.872 3.69 2.437l-2.834-.054 2.88.723-1.49.975 2.574-.703.702.176c.945.237 1.47.475 1.505.547l.133.278.336.05c.735.109 2.092-.06 3.84-.405a43.24 43.24 0 0 0 1.652-.358c.193-.047.345-.085.43-.11l.014-.005.018-.005.047-.016.01-.003.011-.004a1.21 1.21 0 0 0 .075-.035c.06-.008.103-.013.13-.036.071-.06.042-.237-.062-.866-.495-.118-.558-.133-.575-.111a.04.04 0 0 0-.005.01c-.168.032-.428.028-.776-.011 2.91-1.272 4.82-2.546 5.736-3.857l1.674-2.398-1.014.658.365-1.044-1.446.826c.187-.22.33-.438.432-.657l1.09-2.34-1.72 1.426.933-2.731-2.212 2.634-9.056 5.923-.141-.029c-2.23-.46-3.795-1.86-4.727-4.267l-.464.134.006.018-.11.031-.006-.017-.45.13.008.017-.11.032-.005-.018-.045.013c.15.435.315.842.493 1.222l-.286.097.022.038-.023.01.013.018Zm.021-.007-.02.007.044.06-.444.199-.075-.071-.145.064a.978.978 0 0 1-.037-.025l.016.035.02-.01c.026.017.058.038.098.061l-.071.032c-.035-.05-.068-.1-.1-.148l-.004-.004h-.551l.124.223-.08-.051c-.04-.057-.08-.113-.117-.168l-.064.054-.55-.348v.29c0 .521.412.915 1.12 1.238l-.333.32 3.703 2.345-.127-.002c.122.047.244.092.369.135l.321.113-.643.42 1.083.273.864-.236 3.076 1.077-.992-.629c.12 0 .238-.002.352-.003a1.11 1.11 0 0 0-.184-.225 1.968 1.968 0 0 1-.237-.018l-.034.181-1.036-.656c.396-.121.781-.249 1.155-.382 1.535-.015 2.454-.088 2.59-.178l.238-.156.285.065c.275.063.529.115.76.157l.195.293.453-.194a7.693 7.693 0 0 1-.113-.014l5.688-3.689-.476-.392c.602-.276.994-.637 1.157-1.103l.14-.399-.613.398-.118-.163-.59-.163c-.055.156-.233.312-.548.456.316-.251.579-.5.788-.746l-.893.51 1.175-.975-.733-.452c.064-.128.117-.255.16-.38l.094-.274-.415.343-.615-.276.284-.514-.534.35-1.266 1.507-.43-.32c-1.157 2.085-3.238 3.74-6.264 4.962l-1.096-.226-.313.205.032-.248c-2.063 0-3.585-1.36-4.58-4.236l-.465.135.442 1.255-.442.15-.027-.062.442-.15a12.244 12.244 0 0 1-.525-1.162l-.448.13.53 1.182-.037.013.028-.013c-.329-.477-.537-.866-.63-1.15l-.045.013c.163.42.344.814.545 1.184l-.058.02.006.014-.27.12.011.022Zm.281-.095-.28.095.035.063-.012.005.042.058-.412.21-.074-.07-.123.054c.032.019.068.039.11.06l-.433.22-.279-.177.139.248.14-.071.066.041-.17.086a20.213 20.213 0 0 1-.256-.355l-.18-.114-.382.319.793.752.452-.376.063-.11 2.016 1.278.746.707a8.521 8.521 0 0 1-2.618-1.871l-.5.48.011.006 3.157 1.432-.05-.047c.303.142.619.27.947.385l-.545.893-.15-.003.11.07.04-.067.763.014-.35.229 1.305.457.045-.013c.306-.083.605-.17.899-.26l-.225-.142.365-.239c.363.002.702.002 1.015-.001.457-.163.897-.335 1.32-.516h2.282l.27.404.153.027.143.213.24-.155a9.932 9.932 0 0 1-.383-.058l-.289-.431h.694l-.805-.166-.087-.13c2.393-1.011 4.086-2.004 5.076-2.958a5.743 5.743 0 0 0 1.006-.338l-.207-.17 1.108-.634-.217-.3-1.868 1.211-.233-.485c.314-.2.596-.4.845-.596a4.28 4.28 0 0 1-.662.226l.557-.462-1.693.967c1.055-.866 1.77-1.658 2.135-2.394l-.075-.046.139-.164-.224-.1-1.424 1.18.808-1.457-.248-.112c-.152.444-.528.966-1.132 1.556l-.136-.101-.763.909.19.152-5.63 3.682-.491-.101c-.471.19-.964.37-1.48.538l.071-.56-.947.62c-1.816-.577-3.214-1.747-4.182-3.485l.126-.056-.01-.023-.135.046-.027-.05.097-.044-.102.034.005.01-.057.024.022.047Zm.02.04-.265.118.066.119-.397.202-.051-.048-.088.044.074.037-.44.224.32.203.218-.38a3.579 3.579 0 0 1-.098-.047l.065-.033 1.831 1.737 2.524 1.598-.613.401.86.017.325.573.489-.32-.39-.246c.262.004.514.007.755.008l.79-.517h1.545c.332-.142.654-.29.964-.442l1.185.244.133.198h.134l-.111-.166-.156-.032-.03-.046 4.365-2.831.55-.118.26-.06c.042-.042.084-.083.124-.125l.675-.385-.208-.171c-.128.184-.284.37-.467.556l-.196.113-.106-.22-.632.41-2.242.484c.251-.222.489-.451.712-.687l.718-.41.244.286c.351-.191.673-.38.966-.568l-.075-.156.259-.214a7.33 7.33 0 0 1-.325.077l.066.137-.792.658-.239-.279.149-.085.005-.003-.005.003-.293-.234a8.62 8.62 0 0 0 .065-.085l.305.245 1.988-2.369-.185-.114c-.202.432-.732.937-1.595 1.494.084-.136.165-.273.242-.413l.029-.051-.263.217-.309-.23a12.27 12.27 0 0 1-.823.732l.208.167-.094.061.07.056-.1.083.325.38c-.17.21-.35.415-.54.615l-1.499.856.786-.17c-.913.808-2.006 1.524-3.278 2.15l-1.393-.288-1.115.73h-.754c-.292 0-.576-.02-.85-.06l.227-.069c.158.043.32.08.483.115l.036-.279c-.17.056-.344.11-.52.164a8.084 8.084 0 0 1-.355-.104l-.18.118c-1.742-.362-3.099-1.572-4.064-3.575Zm0 0 .06-.028-.018-.033-.062.02.02.04Zm3.791 3.794-.032-.02.305-.2a4.4 4.4 0 0 0 .308.055c-.19.057-.384.112-.58.165Zm9.3-4.091.061-.079-.35-.28.101-.056.314.252c.183-.242.354-.49.512-.745-.247.16-.523.325-.826.493l-.029-.023.5-.415.41-.268-.046-.034-.363.302-.56.367.06.048-.084.07.011.009-.013.007.301.352Zm0 0 .205.24-.104.06-.177-.206a8.32 8.32 0 0 0 .075-.094Zm-9.3 4.091.639.405a71.591 71.591 0 0 1-.31-.005l-.114-.003-.223-.394.008-.003Zm2.29 1.45-.013.066h.116l-.103-.066Zm3.447-.332-.18-.216-.268.05-.074.256.213.048c.128-.04.23-.087.31-.138Z" clip-rule="evenodd"/></g></g></g></g><defs><clipPath id="b"><rect width="36" height="24" x="3" y="2" fill="#fff" rx="2"/></clipPath><filter id="a" width="42" height="30" x="0" y="0" color-interpolation-filters="sRGB" filterUnits="userSpaceOnUse"><feFlood flood-opacity="0" result="BackgroundImageFix"/><feColorMatrix in="SourceAlpha" result="hardAlpha" values="0 0 0 0 0 0 0 0 0 0 0 0 0 0 0 0 0 0 127 0"/><feOffset dy="1"/><feGaussianBlur stdDeviation="1"/><feColorMatrix values="0 0 0 0 0.0627451 0 0 0 0 0.0941176 0 0 0 0 0.156863 0 0 0 0.06 0"/><feBlend in2="BackgroundImageFix" result="effect1_dropShadow_91_26785"/><feColorMatrix in="SourceAlpha" result="hardAlpha" values="0 0 0 0 0 0 0 0 0 0 0 0 0 0 0 0 0 0 127 0"/><feOffset dy="1"/><feGaussianBlur stdDeviation="1.5"/><feColorMatrix values="0 0 0 0 0.0627451 0 0 0 0 0.0941176 0 0 0 0 0.156863 0 0 0 0.1 0"/><feBlend in2="effect1_dropShadow_91_26785" result="effect2_dropShadow_91_26785"/><feBlend in="SourceGraphic" in2="effect2_dropShadow_91_26785" result="shape"/></filter></defs></svg>