<svg xmlns="http://www.w3.org/2000/svg" fill="none" aria-hidden="true" viewBox="0 0 42 30"><g filter="url(#a)"><g clip-path="url(#b)"><mask id="c" width="36" height="24" x="3" y="2" maskUnits="userSpaceOnUse" style="mask-type:alpha"><path fill="#fff" d="M3 2h36v24H3z"/></mask><g mask="url(#c)"><path fill="#F7FCFF" fill-rule="evenodd" d="M3 2v24h36V2H3Z" clip-rule="evenodd"/><mask id="d" width="36" height="24" x="3" y="2" maskUnits="userSpaceOnUse" style="mask-type:alpha"><path fill="#fff" fill-rule="evenodd" d="M3 2v24h36V2H3Z" clip-rule="evenodd"/></mask><g mask="url(#d)"><path fill="#3D58DB" fill-rule="evenodd" d="M21 20.22c3.603 0 6.524-2.758 6.524-6.16 0-3.4-2.92-6.158-6.524-6.158-3.603 0-6.524 2.758-6.524 6.159s2.92 6.158 6.524 6.158Z" clip-rule="evenodd"/><mask id="e" width="14" height="14" x="14" y="7" maskUnits="userSpaceOnUse" style="mask-type:alpha"><path fill="#fff" fill-rule="evenodd" d="M21 20.22c3.603 0 6.524-2.758 6.524-6.16 0-3.4-2.92-6.158-6.524-6.158-3.603 0-6.524 2.758-6.524 6.159s2.92 6.158 6.524 6.158Z" clip-rule="evenodd"/></mask><g mask="url(#e)"><path fill="#E31D1C" fill-rule="evenodd" d="M27.752 14.533s-.366-2.904-3.078-3.062c-2.712-.158-3.443 2.13-3.6 2.736-.156.605-.552 2.222-3.408 2.222-2.855 0-3.113-4.11-3.113-4.11V7.471h13.2v7.06Z" clip-rule="evenodd"/></g><path fill="#272727" fill-rule="evenodd" d="m11.212 4.052 1.029.828-4.77 4.952-1.03-.828 4.77-4.952Zm1.697 1.34 1.03.827-4.6 4.88-1.029-.827 4.6-4.88Zm2.72 2.183-1.03-.828-4.612 4.917 1.03.828 4.612-4.917Zm15.905-3.87-1.03.825 1.786 1.862 1.03-.824-1.786-1.863Zm3.174 3.427-1.03.824 1.787 1.863 1.03-.824-1.787-1.863Zm-7.602.08 1.03-.824 1.786 1.863-1.03.825-1.786-1.863Zm4.204 2.603-1.03.824 1.786 1.863 1.03-.824-1.786-1.863ZM28.87 5.83l1.03-.824 4.97 5.38-1.03.825-4.97-5.38Zm3.442 10.413-1.039-.827-1.8 1.87 1.038.827 1.8-1.87Zm-3.028 3.291-1.038-.828-1.801 1.87 1.038.828 1.8-1.87Zm5.268-1.501 1.038.827-1.8 1.87-1.039-.827 1.801-1.87Zm-1.841 4.195-1.038-.828-1.801 1.87 1.038.828 1.8-1.87Zm-2.749-2.25 1.038.828-1.88 1.997-1.038-.828 1.88-1.997Zm4.122-2.5-1.038-.827-1.88 1.997 1.039.827 1.88-1.997Zm-23.877-.588 1.03-.826 4.595 4.68-1.03.826-4.595-4.68Zm1.072 4.093 1.03-.825 1.94 1.896-1.029.825-1.94-1.896Zm-3.431-2.292-1.03.825 4.62 4.743 1.03-.825-4.62-4.743Zm.733-.539 1.03-.825 1.682 1.754-1.03.825-1.682-1.754Z" clip-rule="evenodd"/></g></g></g></g><defs><clipPath id="b"><rect width="36" height="24" x="3" y="2" fill="#fff" rx="2"/></clipPath><filter id="a" width="42" height="30" x="0" y="0" color-interpolation-filters="sRGB" filterUnits="userSpaceOnUse"><feFlood flood-opacity="0" result="BackgroundImageFix"/><feColorMatrix in="SourceAlpha" result="hardAlpha" values="0 0 0 0 0 0 0 0 0 0 0 0 0 0 0 0 0 0 127 0"/><feOffset dy="1"/><feGaussianBlur stdDeviation="1"/><feColorMatrix values="0 0 0 0 0.0627451 0 0 0 0 0.0941176 0 0 0 0 0.156863 0 0 0 0.06 0"/><feBlend in2="BackgroundImageFix" result="effect1_dropShadow_91_26979"/><feColorMatrix in="SourceAlpha" result="hardAlpha" values="0 0 0 0 0 0 0 0 0 0 0 0 0 0 0 0 0 0 127 0"/><feOffset dy="1"/><feGaussianBlur stdDeviation="1.5"/><feColorMatrix values="0 0 0 0 0.0627451 0 0 0 0 0.0941176 0 0 0 0 0.156863 0 0 0 0.1 0"/><feBlend in2="effect1_dropShadow_91_26979" result="effect2_dropShadow_91_26979"/><feBlend in="SourceGraphic" in2="effect2_dropShadow_91_26979" result="shape"/></filter></defs></svg>