<svg xmlns="http://www.w3.org/2000/svg" fill="none" aria-hidden="true" viewBox="0 0 42 30"><g id="Country=KY - Cayman Islands, Size=sm (36x24)" filter="url(#filter0_dd_91_26915)"><g clip-path="url(#clip0_91_26915)"><g id="flag"><mask id="mask0_91_26915" width="36" height="24" x="3" y="2" maskUnits="userSpaceOnUse" style="mask-type:alpha"><rect id="mask" width="36" height="24" x="3" y="2" fill="white"/></mask><g mask="url(#mask0_91_26915)"/><g id="contents" clip-path="url(#clip1_91_26915)"><path id="background" fill="#2E42A5" fill-rule="evenodd" d="M3 2V26H39V2H3Z" clip-rule="evenodd"/><mask id="mask1_91_26915" width="36" height="24" x="3" y="2" maskUnits="userSpaceOnUse" style="mask-type:alpha"><path id="background_2" fill="white" fill-rule="evenodd" d="M3 2V26H39V2H3Z" clip-rule="evenodd"/></mask><g mask="url(#mask1_91_26915)"><g id="gb - large"><g id="flag_2"><rect id="mask_2" width="20.25" height="14" x="3" y="2" fill="#2B409A"/><mask id="mask2_91_26915" width="21" height="14" x="3" y="2" maskUnits="userSpaceOnUse" style="mask-type:alpha"><rect id="mask_3" width="20.25" height="14" x="3" y="2" fill="white"/></mask><g mask="url(#mask2_91_26915)"><g id="contents_2"><g id="stripe"><path id="white" fill="#F7FCFF" d="M0.745117 14.9996L5.20119 16.7368L23.351 3.88854L25.7015 1.30701L20.9364 0.726383L13.5335 6.26307L7.57493 9.99351L0.745117 14.9996Z"/><path id="red" fill="#F50100" d="M1.35498 16.217L3.62514 17.2251L24.8573 1.06738H21.6697L1.35498 16.217Z"/></g><g id="stripe_2"><path id="white_2" fill="#F7FCFF" d="M25.5049 14.9996L21.0488 16.7368L2.89897 3.88854L0.548492 1.30701L5.31362 0.726383L12.7165 6.26307L18.6751 9.99351L25.5049 14.9996Z"/><path id="red_2" fill="#F50100" d="M25.353 15.8732L23.0829 16.8813L14.042 9.96339L11.3616 9.19046L0.32252 1.31593H3.51009L14.5429 9.00356L17.4735 9.93038L25.353 15.8732Z"/></g><g id="cross"><g id="red_3"><mask id="path-11-outside-1_91_26915" width="24" height="18" x="1" y="0" fill="black" maskUnits="userSpaceOnUse"><rect width="24" height="18" x="1" fill="white"/><path fill-rule="evenodd" d="M14.2326 2H11.9826V8H3V10H11.9826V16H14.2326V10H23.25V8H14.2326V2Z" clip-rule="evenodd"/></mask><path fill="#F50100" fill-rule="evenodd" d="M14.2326 2H11.9826V8H3V10H11.9826V16H14.2326V10H23.25V8H14.2326V2Z" clip-rule="evenodd"/><path fill="#F7FCFF" d="M11.9826 2V0.5H10.4826V2H11.9826ZM14.2326 2H15.7326V0.5H14.2326V2ZM11.9826 8V9.5H13.4826V8H11.9826ZM3 8V6.5H1.5V8H3ZM3 10H1.5V11.5H3V10ZM11.9826 10H13.4826V8.5H11.9826V10ZM11.9826 16H10.4826V17.5H11.9826V16ZM14.2326 16V17.5H15.7326V16H14.2326ZM14.2326 10V8.5H12.7326V10H14.2326ZM23.25 10V11.5H24.75V10H23.25ZM23.25 8H24.75V6.5H23.25V8ZM14.2326 8H12.7326V9.5H14.2326V8ZM11.9826 3.5H14.2326V0.5H11.9826V3.5ZM13.4826 8V2H10.4826V8H13.4826ZM3 9.5H11.9826V6.5H3V9.5ZM4.5 10V8H1.5V10H4.5ZM11.9826 8.5H3V11.5H11.9826V8.5ZM13.4826 16V10H10.4826V16H13.4826ZM14.2326 14.5H11.9826V17.5H14.2326V14.5ZM12.7326 10V16H15.7326V10H12.7326ZM23.25 8.5H14.2326V11.5H23.25V8.5ZM21.75 8V10H24.75V8H21.75ZM14.2326 9.5H23.25V6.5H14.2326V9.5ZM12.7326 2V8H15.7326V2H12.7326Z" mask="url(#path-11-outside-1_91_26915)"/></g></g></g></g></g></g><g id="weapon"><g id="Group 2" clip-path="url(#clip2_91_26915)"><g id="Path 2"><path fill="white" d="M26.0573 16.722V13.05H33.8594V13.0504V13.0567V13.0631V13.0695V13.0759V13.0824V13.0888V13.0953V13.1018V13.1083V13.1148V13.1213V13.1278V13.1344V13.141V13.1475V13.1541V13.1607V13.1674V13.174V13.1807V13.1873V13.194V13.2007V13.2074V13.2142V13.2209V13.2277V13.2344V13.2412V13.248V13.2548V13.2616V13.2685V13.2753V13.2822V13.2891V13.296V13.3029V13.3098V13.3167V13.3236V13.3306V13.3376V13.3446V13.3515V13.3586V13.3656V13.3726V13.3796V13.3867V13.3938V13.4008V13.4079V13.415V13.4222V13.4293V13.4364V13.4436V13.4507V13.4579V13.4651V13.4723V13.4795V13.4867V13.494V13.5012V13.5084V13.5157V13.523V13.5303V13.5376V13.5449V13.5522V13.5595V13.5669V13.5742V13.5816V13.5889V13.5963V13.6037V13.6111V13.6185V13.6259V13.6334V13.6632V13.9068V13.9378V13.9455V13.9533V13.9611V13.9689V13.9767V13.9845V13.9923V14.0001V14.0079V14.0158V14.0236V14.0314V14.0393V14.0471V14.055V14.0629V14.0707V14.0786V14.0865V14.0944V14.1023V14.1101V14.1181V14.126V14.1339V14.1418V14.1497V14.1576V14.1656V14.1735V14.1814V14.1894V14.1973V14.2053V14.2133V14.2212V14.2292V14.2372V14.2451V14.2531V14.2611V14.2691V14.2771V14.2851V14.2931V14.3011V14.3091V14.3171V14.3251V14.3331V14.3411V14.3492V14.3572V14.3652V14.3733V14.3813V14.3893V14.3974V14.4054V14.4135V14.4215V14.4296V14.4376V14.4457V14.4537V14.4618V14.4698V14.4779V14.486V14.494V14.5021V14.5102V14.5183V14.5263V14.5344V14.5425V14.5506V14.5586V14.5667V14.5748V14.5829V14.591V14.5991V14.6071V14.6152V14.6233V14.6314V14.6395V14.6476V14.6557V14.6638V14.6718V14.6799V14.688V14.6961V14.7042V14.7123V14.7204V14.7285V14.7366V14.7447V14.7527V14.7608V14.7689V14.777V14.7851V14.7932V14.8013V14.8093V14.8174V14.8255V14.8336V14.8417V14.8497V14.8578V14.8659V14.874V14.882V14.8901V14.8982V14.9062V14.9143V14.9224V14.9304V14.9385V14.9465V14.9546V14.9627V14.9707V14.9787V14.9868V14.9948V15.0029V15.0109V15.0189V15.027V15.035V15.043V15.051V15.0591V15.0671V15.0751V15.0831V15.0911V15.0991V15.1071V15.1151V15.1231V15.1311V15.139V15.147V15.155V15.163V15.1709V15.1789V15.1868V15.1948V15.2027V15.2107V15.2186V15.2266V15.2345V15.2424V15.2503V15.2583V15.2662V15.2741V15.282V15.2899V15.2977V15.3056V15.3135V15.3214V15.3292V15.3371V15.345V15.3528V15.3606V15.3685V15.3763V15.3841V15.392V15.3998V15.4076V15.4387V15.4698V15.4775V15.4853V15.493V15.5007V15.5084V15.5161V15.5238V15.5315V15.5392V15.5469V15.5546V15.5622V15.5699V15.5775V15.5852V15.5928V15.6004V15.608V15.6156V15.6232V15.6308V15.6384V15.646V15.6535V15.6611V15.6686V15.6762V15.6837V15.6912V15.6987V15.7062V15.7137V15.7212V15.7287V15.7361V15.7436V15.751V15.7585V15.7659V15.7733V15.7807V15.7881V15.7955V15.8028V15.8102V15.8176V15.8249V15.8322V15.8396V15.8469V15.8542V15.8615V15.8687V15.876V15.8833V15.8905V15.9194V15.9481V15.9552V15.9623V15.9695V15.9766V15.9837V15.9908V15.9978V16.0049V16.0119V16.019V16.026V16.033V16.04V16.047V16.054V16.0609V16.0679V16.0748V16.0817V16.0886V16.0955V16.1024V16.1093V16.1161V16.123V16.1298V16.1366V16.1434V16.1502V16.157V16.1637V16.1705V16.1772V16.1839V16.1906V16.1973V16.204V16.2107V16.2173V16.2239V16.2306V16.2372V16.2438V16.2503V16.2569V16.2634V16.27V16.2765V16.283V16.2895V16.2959V16.3024V16.3088V16.3152V16.3216V16.328V16.3344V16.3408V16.3471V16.3534V16.3598V16.3661V16.3723V16.3786V16.3848V16.3911V16.3973V16.4035V16.4097V16.4158V16.422V16.4281V16.4342V16.4403V16.4464V16.4525V16.4585V16.4645V16.4705V16.4765V16.4825V16.4885V16.4944V16.5003V16.5062V16.5121V16.518V16.5239V16.5297V16.5355V16.5413V16.5471V16.722C33.8594 19.0739 32.9505 20.6314 32.0246 21.6012C31.5612 22.0864 31.0934 22.4248 30.7324 22.6417C30.5519 22.7502 30.3984 22.8281 30.2859 22.8788C30.2296 22.9041 30.1839 22.9225 30.1505 22.9344C30.1337 22.9404 30.1205 22.9445 30.1108 22.9472C30.1049 22.9488 30.1015 22.9495 30.0999 22.9498C30.0983 22.9495 30.0946 22.9487 30.0884 22.9471C30.0782 22.9444 30.0643 22.9402 30.0466 22.9341C30.0113 22.9222 29.9628 22.9037 29.9028 22.8783C29.783 22.8275 29.6187 22.7495 29.4251 22.641C29.0379 22.4239 28.5345 22.0853 28.0354 21.5999C27.0379 20.6297 26.0573 19.0726 26.0573 16.722Z"/><path stroke="#0B50A0" stroke-width="0.1" d="M26.0573 16.722V13.05H33.8594V13.0504V13.0567V13.0631V13.0695V13.0759V13.0824V13.0888V13.0953V13.1018V13.1083V13.1148V13.1213V13.1278V13.1344V13.141V13.1475V13.1541V13.1607V13.1674V13.174V13.1807V13.1873V13.194V13.2007V13.2074V13.2142V13.2209V13.2277V13.2344V13.2412V13.248V13.2548V13.2616V13.2685V13.2753V13.2822V13.2891V13.296V13.3029V13.3098V13.3167V13.3236V13.3306V13.3376V13.3446V13.3515V13.3586V13.3656V13.3726V13.3796V13.3867V13.3938V13.4008V13.4079V13.415V13.4222V13.4293V13.4364V13.4436V13.4507V13.4579V13.4651V13.4723V13.4795V13.4867V13.494V13.5012V13.5084V13.5157V13.523V13.5303V13.5376V13.5449V13.5522V13.5595V13.5669V13.5742V13.5816V13.5889V13.5963V13.6037V13.6111V13.6185V13.6259V13.6334V13.6632V13.9068V13.9378V13.9455V13.9533V13.9611V13.9689V13.9767V13.9845V13.9923V14.0001V14.0079V14.0158V14.0236V14.0314V14.0393V14.0471V14.055V14.0629V14.0707V14.0786V14.0865V14.0944V14.1023V14.1101V14.1181V14.126V14.1339V14.1418V14.1497V14.1576V14.1656V14.1735V14.1814V14.1894V14.1973V14.2053V14.2133V14.2212V14.2292V14.2372V14.2451V14.2531V14.2611V14.2691V14.2771V14.2851V14.2931V14.3011V14.3091V14.3171V14.3251V14.3331V14.3411V14.3492V14.3572V14.3652V14.3733V14.3813V14.3893V14.3974V14.4054V14.4135V14.4215V14.4296V14.4376V14.4457V14.4537V14.4618V14.4698V14.4779V14.486V14.494V14.5021V14.5102V14.5183V14.5263V14.5344V14.5425V14.5506V14.5586V14.5667V14.5748V14.5829V14.591V14.5991V14.6071V14.6152V14.6233V14.6314V14.6395V14.6476V14.6557V14.6638V14.6718V14.6799V14.688V14.6961V14.7042V14.7123V14.7204V14.7285V14.7366V14.7447V14.7527V14.7608V14.7689V14.777V14.7851V14.7932V14.8013V14.8093V14.8174V14.8255V14.8336V14.8417V14.8497V14.8578V14.8659V14.874V14.882V14.8901V14.8982V14.9062V14.9143V14.9224V14.9304V14.9385V14.9465V14.9546V14.9627V14.9707V14.9787V14.9868V14.9948V15.0029V15.0109V15.0189V15.027V15.035V15.043V15.051V15.0591V15.0671V15.0751V15.0831V15.0911V15.0991V15.1071V15.1151V15.1231V15.1311V15.139V15.147V15.155V15.163V15.1709V15.1789V15.1868V15.1948V15.2027V15.2107V15.2186V15.2266V15.2345V15.2424V15.2503V15.2583V15.2662V15.2741V15.282V15.2899V15.2977V15.3056V15.3135V15.3214V15.3292V15.3371V15.345V15.3528V15.3606V15.3685V15.3763V15.3841V15.392V15.3998V15.4076V15.4387V15.4698V15.4775V15.4853V15.493V15.5007V15.5084V15.5161V15.5238V15.5315V15.5392V15.5469V15.5546V15.5622V15.5699V15.5775V15.5852V15.5928V15.6004V15.608V15.6156V15.6232V15.6308V15.6384V15.646V15.6535V15.6611V15.6686V15.6762V15.6837V15.6912V15.6987V15.7062V15.7137V15.7212V15.7287V15.7361V15.7436V15.751V15.7585V15.7659V15.7733V15.7807V15.7881V15.7955V15.8028V15.8102V15.8176V15.8249V15.8322V15.8396V15.8469V15.8542V15.8615V15.8687V15.876V15.8833V15.8905V15.9194V15.9481V15.9552V15.9623V15.9695V15.9766V15.9837V15.9908V15.9978V16.0049V16.0119V16.019V16.026V16.033V16.04V16.047V16.054V16.0609V16.0679V16.0748V16.0817V16.0886V16.0955V16.1024V16.1093V16.1161V16.123V16.1298V16.1366V16.1434V16.1502V16.157V16.1637V16.1705V16.1772V16.1839V16.1906V16.1973V16.204V16.2107V16.2173V16.2239V16.2306V16.2372V16.2438V16.2503V16.2569V16.2634V16.27V16.2765V16.283V16.2895V16.2959V16.3024V16.3088V16.3152V16.3216V16.328V16.3344V16.3408V16.3471V16.3534V16.3598V16.3661V16.3723V16.3786V16.3848V16.3911V16.3973V16.4035V16.4097V16.4158V16.422V16.4281V16.4342V16.4403V16.4464V16.4525V16.4585V16.4645V16.4705V16.4765V16.4825V16.4885V16.4944V16.5003V16.5062V16.5121V16.518V16.5239V16.5297V16.5355V16.5413V16.5471V16.722C33.8594 19.0739 32.9505 20.6314 32.0246 21.6012C31.5612 22.0864 31.0934 22.4248 30.7324 22.6417C30.5519 22.7502 30.3984 22.8281 30.2859 22.8788C30.2296 22.9041 30.1839 22.9225 30.1505 22.9344C30.1337 22.9404 30.1205 22.9445 30.1108 22.9472C30.1049 22.9488 30.1015 22.9495 30.0999 22.9498C30.0983 22.9495 30.0946 22.9487 30.0884 22.9471C30.0782 22.9444 30.0643 22.9402 30.0466 22.9341C30.0113 22.9222 29.9628 22.9037 29.9028 22.8783C29.783 22.8275 29.6187 22.7495 29.4251 22.641C29.0379 22.4239 28.5345 22.0853 28.0354 21.5999C27.0379 20.6297 26.0573 19.0726 26.0573 16.722Z"/><path stroke="#F7FCFF" stroke-width="0.1" d="M26.0573 16.722V13.05H33.8594V13.0504V13.0567V13.0631V13.0695V13.0759V13.0824V13.0888V13.0953V13.1018V13.1083V13.1148V13.1213V13.1278V13.1344V13.141V13.1475V13.1541V13.1607V13.1674V13.174V13.1807V13.1873V13.194V13.2007V13.2074V13.2142V13.2209V13.2277V13.2344V13.2412V13.248V13.2548V13.2616V13.2685V13.2753V13.2822V13.2891V13.296V13.3029V13.3098V13.3167V13.3236V13.3306V13.3376V13.3446V13.3515V13.3586V13.3656V13.3726V13.3796V13.3867V13.3938V13.4008V13.4079V13.415V13.4222V13.4293V13.4364V13.4436V13.4507V13.4579V13.4651V13.4723V13.4795V13.4867V13.494V13.5012V13.5084V13.5157V13.523V13.5303V13.5376V13.5449V13.5522V13.5595V13.5669V13.5742V13.5816V13.5889V13.5963V13.6037V13.6111V13.6185V13.6259V13.6334V13.6632V13.9068V13.9378V13.9455V13.9533V13.9611V13.9689V13.9767V13.9845V13.9923V14.0001V14.0079V14.0158V14.0236V14.0314V14.0393V14.0471V14.055V14.0629V14.0707V14.0786V14.0865V14.0944V14.1023V14.1101V14.1181V14.126V14.1339V14.1418V14.1497V14.1576V14.1656V14.1735V14.1814V14.1894V14.1973V14.2053V14.2133V14.2212V14.2292V14.2372V14.2451V14.2531V14.2611V14.2691V14.2771V14.2851V14.2931V14.3011V14.3091V14.3171V14.3251V14.3331V14.3411V14.3492V14.3572V14.3652V14.3733V14.3813V14.3893V14.3974V14.4054V14.4135V14.4215V14.4296V14.4376V14.4457V14.4537V14.4618V14.4698V14.4779V14.486V14.494V14.5021V14.5102V14.5183V14.5263V14.5344V14.5425V14.5506V14.5586V14.5667V14.5748V14.5829V14.591V14.5991V14.6071V14.6152V14.6233V14.6314V14.6395V14.6476V14.6557V14.6638V14.6718V14.6799V14.688V14.6961V14.7042V14.7123V14.7204V14.7285V14.7366V14.7447V14.7527V14.7608V14.7689V14.777V14.7851V14.7932V14.8013V14.8093V14.8174V14.8255V14.8336V14.8417V14.8497V14.8578V14.8659V14.874V14.882V14.8901V14.8982V14.9062V14.9143V14.9224V14.9304V14.9385V14.9465V14.9546V14.9627V14.9707V14.9787V14.9868V14.9948V15.0029V15.0109V15.0189V15.027V15.035V15.043V15.051V15.0591V15.0671V15.0751V15.0831V15.0911V15.0991V15.1071V15.1151V15.1231V15.1311V15.139V15.147V15.155V15.163V15.1709V15.1789V15.1868V15.1948V15.2027V15.2107V15.2186V15.2266V15.2345V15.2424V15.2503V15.2583V15.2662V15.2741V15.282V15.2899V15.2977V15.3056V15.3135V15.3214V15.3292V15.3371V15.345V15.3528V15.3606V15.3685V15.3763V15.3841V15.392V15.3998V15.4076V15.4387V15.4698V15.4775V15.4853V15.493V15.5007V15.5084V15.5161V15.5238V15.5315V15.5392V15.5469V15.5546V15.5622V15.5699V15.5775V15.5852V15.5928V15.6004V15.608V15.6156V15.6232V15.6308V15.6384V15.646V15.6535V15.6611V15.6686V15.6762V15.6837V15.6912V15.6987V15.7062V15.7137V15.7212V15.7287V15.7361V15.7436V15.751V15.7585V15.7659V15.7733V15.7807V15.7881V15.7955V15.8028V15.8102V15.8176V15.8249V15.8322V15.8396V15.8469V15.8542V15.8615V15.8687V15.876V15.8833V15.8905V15.9194V15.9481V15.9552V15.9623V15.9695V15.9766V15.9837V15.9908V15.9978V16.0049V16.0119V16.019V16.026V16.033V16.04V16.047V16.054V16.0609V16.0679V16.0748V16.0817V16.0886V16.0955V16.1024V16.1093V16.1161V16.123V16.1298V16.1366V16.1434V16.1502V16.157V16.1637V16.1705V16.1772V16.1839V16.1906V16.1973V16.204V16.2107V16.2173V16.2239V16.2306V16.2372V16.2438V16.2503V16.2569V16.2634V16.27V16.2765V16.283V16.2895V16.2959V16.3024V16.3088V16.3152V16.3216V16.328V16.3344V16.3408V16.3471V16.3534V16.3598V16.3661V16.3723V16.3786V16.3848V16.3911V16.3973V16.4035V16.4097V16.4158V16.422V16.4281V16.4342V16.4403V16.4464V16.4525V16.4585V16.4645V16.4705V16.4765V16.4825V16.4885V16.4944V16.5003V16.5062V16.5121V16.518V16.5239V16.5297V16.5355V16.5413V16.5471V16.722C33.8594 19.0739 32.9505 20.6314 32.0246 21.6012C31.5612 22.0864 31.0934 22.4248 30.7324 22.6417C30.5519 22.7502 30.3984 22.8281 30.2859 22.8788C30.2296 22.9041 30.1839 22.9225 30.1505 22.9344C30.1337 22.9404 30.1205 22.9445 30.1108 22.9472C30.1049 22.9488 30.1015 22.9495 30.0999 22.9498C30.0983 22.9495 30.0946 22.9487 30.0884 22.9471C30.0782 22.9444 30.0643 22.9402 30.0466 22.9341C30.0113 22.9222 29.9628 22.9037 29.9028 22.8783C29.783 22.8275 29.6187 22.7495 29.4251 22.641C29.0379 22.4239 28.5345 22.0853 28.0354 21.5999C27.0379 20.6297 26.0573 19.0726 26.0573 16.722Z"/></g><mask id="mask3_91_26915" width="8" height="10" x="26" y="13" maskUnits="userSpaceOnUse" style="mask-type:alpha"><g id="Path 2_2"><path fill="white" d="M26.0573 16.722V13.05H33.8594V13.0504V13.0567V13.0631V13.0695V13.0759V13.0824V13.0888V13.0953V13.1018V13.1083V13.1148V13.1213V13.1278V13.1344V13.141V13.1475V13.1541V13.1607V13.1674V13.174V13.1807V13.1873V13.194V13.2007V13.2074V13.2142V13.2209V13.2277V13.2344V13.2412V13.248V13.2548V13.2616V13.2685V13.2753V13.2822V13.2891V13.296V13.3029V13.3098V13.3167V13.3236V13.3306V13.3376V13.3446V13.3515V13.3586V13.3656V13.3726V13.3796V13.3867V13.3938V13.4008V13.4079V13.415V13.4222V13.4293V13.4364V13.4436V13.4507V13.4579V13.4651V13.4723V13.4795V13.4867V13.494V13.5012V13.5084V13.5157V13.523V13.5303V13.5376V13.5449V13.5522V13.5595V13.5669V13.5742V13.5816V13.5889V13.5963V13.6037V13.6111V13.6185V13.6259V13.6334V13.6632V13.9068V13.9378V13.9455V13.9533V13.9611V13.9689V13.9767V13.9845V13.9923V14.0001V14.0079V14.0158V14.0236V14.0314V14.0393V14.0471V14.055V14.0629V14.0707V14.0786V14.0865V14.0944V14.1023V14.1101V14.1181V14.126V14.1339V14.1418V14.1497V14.1576V14.1656V14.1735V14.1814V14.1894V14.1973V14.2053V14.2133V14.2212V14.2292V14.2372V14.2451V14.2531V14.2611V14.2691V14.2771V14.2851V14.2931V14.3011V14.3091V14.3171V14.3251V14.3331V14.3411V14.3492V14.3572V14.3652V14.3733V14.3813V14.3893V14.3974V14.4054V14.4135V14.4215V14.4296V14.4376V14.4457V14.4537V14.4618V14.4698V14.4779V14.486V14.494V14.5021V14.5102V14.5183V14.5263V14.5344V14.5425V14.5506V14.5586V14.5667V14.5748V14.5829V14.591V14.5991V14.6071V14.6152V14.6233V14.6314V14.6395V14.6476V14.6557V14.6638V14.6718V14.6799V14.688V14.6961V14.7042V14.7123V14.7204V14.7285V14.7366V14.7447V14.7527V14.7608V14.7689V14.777V14.7851V14.7932V14.8013V14.8093V14.8174V14.8255V14.8336V14.8417V14.8497V14.8578V14.8659V14.874V14.882V14.8901V14.8982V14.9062V14.9143V14.9224V14.9304V14.9385V14.9465V14.9546V14.9627V14.9707V14.9787V14.9868V14.9948V15.0029V15.0109V15.0189V15.027V15.035V15.043V15.051V15.0591V15.0671V15.0751V15.0831V15.0911V15.0991V15.1071V15.1151V15.1231V15.1311V15.139V15.147V15.155V15.163V15.1709V15.1789V15.1868V15.1948V15.2027V15.2107V15.2186V15.2266V15.2345V15.2424V15.2503V15.2583V15.2662V15.2741V15.282V15.2899V15.2977V15.3056V15.3135V15.3214V15.3292V15.3371V15.345V15.3528V15.3606V15.3685V15.3763V15.3841V15.392V15.3998V15.4076V15.4387V15.4698V15.4775V15.4853V15.493V15.5007V15.5084V15.5161V15.5238V15.5315V15.5392V15.5469V15.5546V15.5622V15.5699V15.5775V15.5852V15.5928V15.6004V15.608V15.6156V15.6232V15.6308V15.6384V15.646V15.6535V15.6611V15.6686V15.6762V15.6837V15.6912V15.6987V15.7062V15.7137V15.7212V15.7287V15.7361V15.7436V15.751V15.7585V15.7659V15.7733V15.7807V15.7881V15.7955V15.8028V15.8102V15.8176V15.8249V15.8322V15.8396V15.8469V15.8542V15.8615V15.8687V15.876V15.8833V15.8905V15.9194V15.9481V15.9552V15.9623V15.9695V15.9766V15.9837V15.9908V15.9978V16.0049V16.0119V16.019V16.026V16.033V16.04V16.047V16.054V16.0609V16.0679V16.0748V16.0817V16.0886V16.0955V16.1024V16.1093V16.1161V16.123V16.1298V16.1366V16.1434V16.1502V16.157V16.1637V16.1705V16.1772V16.1839V16.1906V16.1973V16.204V16.2107V16.2173V16.2239V16.2306V16.2372V16.2438V16.2503V16.2569V16.2634V16.27V16.2765V16.283V16.2895V16.2959V16.3024V16.3088V16.3152V16.3216V16.328V16.3344V16.3408V16.3471V16.3534V16.3598V16.3661V16.3723V16.3786V16.3848V16.3911V16.3973V16.4035V16.4097V16.4158V16.422V16.4281V16.4342V16.4403V16.4464V16.4525V16.4585V16.4645V16.4705V16.4765V16.4825V16.4885V16.4944V16.5003V16.5062V16.5121V16.518V16.5239V16.5297V16.5355V16.5413V16.5471V16.722C33.8594 19.0739 32.9505 20.6314 32.0246 21.6012C31.5612 22.0864 31.0934 22.4248 30.7324 22.6417C30.5519 22.7502 30.3984 22.8281 30.2859 22.8788C30.2296 22.9041 30.1839 22.9225 30.1505 22.9344C30.1337 22.9404 30.1205 22.9445 30.1108 22.9472C30.1049 22.9488 30.1015 22.9495 30.0999 22.9498C30.0983 22.9495 30.0946 22.9487 30.0884 22.9471C30.0782 22.9444 30.0643 22.9402 30.0466 22.9341C30.0113 22.9222 29.9628 22.9037 29.9028 22.8783C29.783 22.8275 29.6187 22.7495 29.4251 22.641C29.0379 22.4239 28.5345 22.0853 28.0354 21.5999C27.0379 20.6297 26.0573 19.0726 26.0573 16.722Z"/><path stroke="white" stroke-width="0.1" d="M26.0573 16.722V13.05H33.8594V13.0504V13.0567V13.0631V13.0695V13.0759V13.0824V13.0888V13.0953V13.1018V13.1083V13.1148V13.1213V13.1278V13.1344V13.141V13.1475V13.1541V13.1607V13.1674V13.174V13.1807V13.1873V13.194V13.2007V13.2074V13.2142V13.2209V13.2277V13.2344V13.2412V13.248V13.2548V13.2616V13.2685V13.2753V13.2822V13.2891V13.296V13.3029V13.3098V13.3167V13.3236V13.3306V13.3376V13.3446V13.3515V13.3586V13.3656V13.3726V13.3796V13.3867V13.3938V13.4008V13.4079V13.415V13.4222V13.4293V13.4364V13.4436V13.4507V13.4579V13.4651V13.4723V13.4795V13.4867V13.494V13.5012V13.5084V13.5157V13.523V13.5303V13.5376V13.5449V13.5522V13.5595V13.5669V13.5742V13.5816V13.5889V13.5963V13.6037V13.6111V13.6185V13.6259V13.6334V13.6632V13.9068V13.9378V13.9455V13.9533V13.9611V13.9689V13.9767V13.9845V13.9923V14.0001V14.0079V14.0158V14.0236V14.0314V14.0393V14.0471V14.055V14.0629V14.0707V14.0786V14.0865V14.0944V14.1023V14.1101V14.1181V14.126V14.1339V14.1418V14.1497V14.1576V14.1656V14.1735V14.1814V14.1894V14.1973V14.2053V14.2133V14.2212V14.2292V14.2372V14.2451V14.2531V14.2611V14.2691V14.2771V14.2851V14.2931V14.3011V14.3091V14.3171V14.3251V14.3331V14.3411V14.3492V14.3572V14.3652V14.3733V14.3813V14.3893V14.3974V14.4054V14.4135V14.4215V14.4296V14.4376V14.4457V14.4537V14.4618V14.4698V14.4779V14.486V14.494V14.5021V14.5102V14.5183V14.5263V14.5344V14.5425V14.5506V14.5586V14.5667V14.5748V14.5829V14.591V14.5991V14.6071V14.6152V14.6233V14.6314V14.6395V14.6476V14.6557V14.6638V14.6718V14.6799V14.688V14.6961V14.7042V14.7123V14.7204V14.7285V14.7366V14.7447V14.7527V14.7608V14.7689V14.777V14.7851V14.7932V14.8013V14.8093V14.8174V14.8255V14.8336V14.8417V14.8497V14.8578V14.8659V14.874V14.882V14.8901V14.8982V14.9062V14.9143V14.9224V14.9304V14.9385V14.9465V14.9546V14.9627V14.9707V14.9787V14.9868V14.9948V15.0029V15.0109V15.0189V15.027V15.035V15.043V15.051V15.0591V15.0671V15.0751V15.0831V15.0911V15.0991V15.1071V15.1151V15.1231V15.1311V15.139V15.147V15.155V15.163V15.1709V15.1789V15.1868V15.1948V15.2027V15.2107V15.2186V15.2266V15.2345V15.2424V15.2503V15.2583V15.2662V15.2741V15.282V15.2899V15.2977V15.3056V15.3135V15.3214V15.3292V15.3371V15.345V15.3528V15.3606V15.3685V15.3763V15.3841V15.392V15.3998V15.4076V15.4387V15.4698V15.4775V15.4853V15.493V15.5007V15.5084V15.5161V15.5238V15.5315V15.5392V15.5469V15.5546V15.5622V15.5699V15.5775V15.5852V15.5928V15.6004V15.608V15.6156V15.6232V15.6308V15.6384V15.646V15.6535V15.6611V15.6686V15.6762V15.6837V15.6912V15.6987V15.7062V15.7137V15.7212V15.7287V15.7361V15.7436V15.751V15.7585V15.7659V15.7733V15.7807V15.7881V15.7955V15.8028V15.8102V15.8176V15.8249V15.8322V15.8396V15.8469V15.8542V15.8615V15.8687V15.876V15.8833V15.8905V15.9194V15.9481V15.9552V15.9623V15.9695V15.9766V15.9837V15.9908V15.9978V16.0049V16.0119V16.019V16.026V16.033V16.04V16.047V16.054V16.0609V16.0679V16.0748V16.0817V16.0886V16.0955V16.1024V16.1093V16.1161V16.123V16.1298V16.1366V16.1434V16.1502V16.157V16.1637V16.1705V16.1772V16.1839V16.1906V16.1973V16.204V16.2107V16.2173V16.2239V16.2306V16.2372V16.2438V16.2503V16.2569V16.2634V16.27V16.2765V16.283V16.2895V16.2959V16.3024V16.3088V16.3152V16.3216V16.328V16.3344V16.3408V16.3471V16.3534V16.3598V16.3661V16.3723V16.3786V16.3848V16.3911V16.3973V16.4035V16.4097V16.4158V16.422V16.4281V16.4342V16.4403V16.4464V16.4525V16.4585V16.4645V16.4705V16.4765V16.4825V16.4885V16.4944V16.5003V16.5062V16.5121V16.518V16.5239V16.5297V16.5355V16.5413V16.5471V16.722C33.8594 19.0739 32.9505 20.6314 32.0246 21.6012C31.5612 22.0864 31.0934 22.4248 30.7324 22.6417C30.5519 22.7502 30.3984 22.8281 30.2859 22.8788C30.2296 22.9041 30.1839 22.9225 30.1505 22.9344C30.1337 22.9404 30.1205 22.9445 30.1108 22.9472C30.1049 22.9488 30.1015 22.9495 30.0999 22.9498C30.0983 22.9495 30.0946 22.9487 30.0884 22.9471C30.0782 22.9444 30.0643 22.9402 30.0466 22.9341C30.0113 22.9222 29.9628 22.9037 29.9028 22.8783C29.783 22.8275 29.6187 22.7495 29.4251 22.641C29.0379 22.4239 28.5345 22.0853 28.0354 21.5999C27.0379 20.6297 26.0573 19.0726 26.0573 16.722Z"/></g></mask><g mask="url(#mask3_91_26915)"><rect id="Rectangle" width="9" height="3.4" x="25.5" y="12.5" fill="#F50100"/><path id="Path" fill="#F50100" d="M29.512 16.6001C29.8 16.6001 30.376 16.2866 30.52 16.2143C31.048 15.9008 31.432 16.1902 31.744 16.3349C32.08 16.4795 32.704 16.6483 33.088 16.3349C33.472 16.0214 33.688 16.0455 33.952 16.0455C34 15.6838 34 15.3221 34 14.9122V14.6229C33.664 14.5506 33.496 14.647 33.136 14.9605C32.776 15.2739 32.368 15.2016 31.84 15.0087C31.336 14.7917 30.832 14.4059 30.328 15.0087C30.184 15.1775 29.848 15.4186 29.512 15.4186C29.152 15.4186 28.84 15.1775 28.696 15.0087C28.168 14.4059 27.688 14.7917 27.184 15.0087C26.656 15.2016 26.224 15.2739 25.864 14.9605C25.528 14.647 25.36 14.5506 25 14.6229V14.9122C25 15.3221 25.024 15.6838 25.072 16.0455C25.336 16.0455 25.528 16.0214 25.912 16.3349C26.296 16.6483 26.944 16.4795 27.256 16.3349C27.592 16.1902 27.976 15.9008 28.504 16.2143C28.648 16.2866 29.2 16.6001 29.512 16.6001H29.512Z"/><path id="lion" fill="#FFD100" fill-rule="evenodd" d="M27.0837 14.049C27.0837 14.049 27.3006 14.059 27.5574 14.3242C27.8143 14.5893 28.7595 14.4206 28.7595 14.2606C28.7595 14.1007 28.1859 14.0051 28.4063 13.7316C28.6267 13.4581 29 13.4576 29.3 13.6001C29.386 13.6001 29.3765 14.5356 29.5728 14.4843C30.1947 14.3217 31.1978 13.9994 31.492 14.1376C31.879 14.3196 32.1753 14.2743 32.0769 14.0133C31.9785 13.7523 31.7256 13.5891 31.2386 13.7316C30.7516 13.8741 30.8665 14.0133 30.4457 14.0133C30.0248 14.0133 29.3026 14.241 29.6234 13.7316C29.9107 13.2751 30.2535 13.2662 30.3843 13.4581C30.4513 13.5563 29.9053 13.7731 29.9053 13.8741C29.9053 14.0133 31.3117 13.6003 31.492 13.6003C31.6722 13.6003 32.1683 13.5891 32.2175 13.7316C32.2666 13.8741 32.5662 14.0048 32.3379 14.1376C32.1095 14.2705 31.733 14.3537 31.9921 14.5238C32.2511 14.694 32.9076 14.7714 32.9363 14.9484C32.965 15.1254 33.2473 15.3898 33.134 15.3898C33.0207 15.3898 32.8159 15.6391 32.6252 15.5632C32.4345 15.4873 32.4121 15.4206 32.5949 15.3591C32.7778 15.2976 32.776 15.039 32.6252 15.039C32.4744 15.039 32.4873 15.0194 32.1439 14.9288C31.8005 14.8382 31.346 14.7375 31.3734 14.9288C31.4007 15.1202 31.6332 15.5308 31.2207 15.5699C30.8082 15.6091 30.6152 15.7662 30.5349 15.6397C30.4546 15.5131 30.1676 15.3445 30.3933 15.2904C30.6189 15.2364 30.8346 15.4742 30.9158 15.4354C30.9971 15.3965 31.1724 15.258 31.0181 15.0934C30.8638 14.9288 30.5641 14.9233 30.8 14.8001C31.0358 14.6769 30.895 14.5831 30.4457 14.8382C29.9963 15.0934 29.7464 15.3102 29.3519 15.2796C28.9575 15.2489 28.7805 15.3892 28.6537 15.3479C28.5269 15.3065 27.9094 15.8049 27.7316 15.6784C27.5538 15.5519 26.9797 15.5034 27.0831 15.3479C27.1864 15.1924 27.3251 15.1123 27.4797 15.1924C27.6342 15.2724 27.7877 15.3525 27.892 15.2724C27.9962 15.1924 28.3263 14.8186 28.2506 14.7637C28.175 14.7088 27.9083 14.6147 27.4797 14.6147C27.0511 14.6147 27.0412 14.3299 26.9394 14.2001C26.8377 14.0702 27.0837 14.049 27.0837 14.049Z" clip-rule="evenodd"/><g id="Group"><path id="Path_2" fill="#0B50A0" d="M29.512 19C29.8 19 30.376 18.6865 30.52 18.6142C31.048 18.3007 31.432 18.5901 31.744 18.7348C32.08 18.8794 32.704 19.0482 33.088 18.7348C33.472 18.4213 33.688 18.4454 33.952 18.4454C34 18.0837 34 17.7221 34 17.3121V17.0228C33.664 16.9505 33.496 17.0469 33.136 17.3604C32.776 17.6738 32.368 17.6015 31.84 17.4086C31.336 17.1916 30.832 16.8058 30.328 17.4086C30.184 17.5774 29.848 17.8185 29.512 17.8185C29.152 17.8185 28.84 17.5774 28.696 17.4086C28.168 16.8058 27.688 17.1916 27.184 17.4086C26.656 17.6015 26.224 17.6738 25.864 17.3604C25.528 17.0469 25.36 16.9505 25 17.0228V17.3121C25 17.7221 25.024 18.0837 25.072 18.4454C25.336 18.4454 25.528 18.4213 25.912 18.7348C26.296 19.0482 26.944 18.8794 27.256 18.7348C27.592 18.5901 27.976 18.3007 28.504 18.6142C28.648 18.6865 29.2 19 29.512 19H29.512Z"/><path id="Path_3" fill="#0B50A0" d="M29.512 21.2998C29.8 21.2998 30.376 20.9863 30.52 20.914C31.048 20.6006 31.432 20.8899 31.744 21.0346C32.08 21.1792 32.704 21.348 33.088 21.0346C33.472 20.7211 33.688 20.7452 33.952 20.7452C34 20.3835 34 20.0219 34 19.6119V19.3226C33.664 19.2503 33.496 19.3467 33.136 19.6602C32.776 19.9736 32.368 19.9013 31.84 19.7084C31.336 19.4914 30.832 19.1056 30.328 19.7084C30.184 19.8772 29.848 20.1183 29.512 20.1183C29.152 20.1183 28.84 19.8772 28.696 19.7084C28.168 19.1056 27.688 19.4914 27.184 19.7084C26.656 19.9013 26.224 19.9736 25.864 19.6602C25.528 19.3467 25.36 19.2503 25 19.3226V19.6119C25 20.0219 25.024 20.3835 25.072 20.7452C25.336 20.7452 25.528 20.7211 25.912 21.0346C26.296 21.348 26.944 21.1792 27.256 21.0346C27.592 20.8899 27.976 20.6006 28.504 20.914C28.648 20.9863 29.2 21.2998 29.512 21.2998H29.512Z"/></g><path id="Path_4" fill="#0B50A0" d="M29.512 23.6001C29.8 23.6001 30.376 23.2866 30.52 23.2143C31.048 22.9008 31.432 23.1902 31.744 23.3349C32.08 23.4795 32.704 23.6483 33.088 23.3349C33.472 23.0214 33.688 23.0455 33.952 23.0455C34 22.6838 34 22.3221 34 21.9122V21.6229C33.664 21.5506 33.496 21.647 33.136 21.9605C32.776 22.2739 32.368 22.2016 31.84 22.0087C31.336 21.7917 30.832 21.4059 30.328 22.0087C30.184 22.1775 29.848 22.4186 29.512 22.4186C29.152 22.4186 28.84 22.1775 28.696 22.0087C28.168 21.4059 27.688 21.7917 27.184 22.0087C26.656 22.2016 26.224 22.2739 25.864 21.9605C25.528 21.647 25.36 21.5506 25 21.6229V21.9122C25 22.3221 25.024 22.6838 25.072 23.0455C25.336 23.0455 25.528 23.0214 25.912 23.3349C26.296 23.6483 26.944 23.4795 27.256 23.3349C27.592 23.1902 27.976 22.9008 28.504 23.2143C28.648 23.2866 29.2 23.6001 29.512 23.6001H29.512Z"/><path id="Star 21" fill="#059334" stroke="#FFD100" stroke-width="0.2" d="M30.0824 20.5445L30.0329 20.5184L29.9847 20.5469L29.568 20.7939L29.6905 20.2771L29.704 20.2203L29.6611 20.1806L29.2556 19.8059H29.7749H29.8446L29.8687 19.7404L30.0421 19.2694L30.2476 19.7455L30.2737 19.8059H30.3395H30.7676L30.4084 20.1853L30.3671 20.2289L30.3862 20.2858L30.5565 20.795L30.0824 20.5445Z"/><path id="Star 21_2" fill="#059334" stroke="#FFD100" stroke-width="0.2" d="M28.0824 18.5445L28.0329 18.5184L27.9847 18.5469L27.568 18.7939L27.6905 18.2771L27.704 18.2203L27.6611 18.1806L27.2556 17.8059H27.7749H27.8446L27.8687 17.7404L28.0421 17.2694L28.2476 17.7455L28.2737 17.8059H28.3395H28.7676L28.4084 18.1853L28.3671 18.2289L28.3862 18.2858L28.5565 18.795L28.0824 18.5445Z"/><path id="Star 21_3" fill="#059334" stroke="#FFD100" stroke-width="0.2" d="M32.0824 18.5445L32.0329 18.5184L31.9847 18.5469L31.568 18.7939L31.6905 18.2771L31.704 18.2203L31.6611 18.1806L31.2556 17.8059H31.7749H31.8446L31.8687 17.7404L32.0421 17.2694L32.2476 17.7455L32.2737 17.8059H32.3395H32.7676L32.4084 18.1853L32.3671 18.2289L32.3862 18.2858L32.5565 18.795L32.0824 18.5445Z"/></g></g><g id="line"><path id="Path_5" fill="#FFD100" d="M25.3367 22.6341C25.4286 22.8308 26.087 23.0888 26.8525 22.757C27.3731 22.5236 27.7099 22.1918 28.0315 21.6019C28.1233 21.4545 28.1693 21.2702 27.9549 21.1596C27.7865 21.0613 27.5109 20.9507 27.3884 20.8524C27.3271 20.8032 27.2659 20.7664 27.22 20.7295C27.2506 20.7541 27.2812 20.7786 27.3118 20.8155C27.6181 21.1104 27.2965 21.5405 26.9597 21.7986C26.7147 21.9829 26.2707 22.4375 25.6276 22.0075C25.4898 21.9091 25.1683 22.3147 25.3367 22.6341L25.3367 22.6341Z"/><path id="Path_6" fill="#FFD100" d="M34.646 22.6341C34.5388 22.8308 33.8804 23.0888 33.1302 22.757C32.6096 22.5236 32.2728 22.1918 31.9359 21.6019C31.8594 21.4545 31.8134 21.2702 32.0278 21.1596C32.1962 21.0613 32.4718 20.9507 32.5943 20.8524C32.6555 20.8032 32.7015 20.7664 32.7627 20.7295C32.7321 20.7541 32.7015 20.7786 32.6709 20.8155C32.3646 21.1104 32.6862 21.5405 33.0077 21.7986C33.2527 21.9829 33.712 22.4375 34.3551 22.0075C34.4929 21.9091 34.7991 22.3147 34.646 22.6341L34.646 22.6341Z"/><path id="Path_7" fill="#FFD100" d="M29.9911 23.691C31.216 23.691 33.0992 23.2486 34.1097 21.7003C34.2781 21.4423 34.1097 21.3071 33.9107 21.2211C33.6963 21.1474 33.436 20.9753 33.2982 20.8647C33.5432 21.0614 33.4973 21.1965 33.3289 21.4177C32.548 22.4622 31.4762 22.9906 29.9911 22.9906C28.5059 22.9906 27.4341 22.4622 26.6533 21.4177C26.4849 21.1965 26.4389 21.0614 26.6686 20.8647C26.5461 20.9753 26.2705 21.1474 26.0561 21.2211C25.8571 21.3071 25.6887 21.4423 25.8571 21.7003C26.8676 23.2486 28.7662 23.691 29.9911 23.691H29.9911Z"/><path id="Path_8" fill="#F50100" d="M27.1586 21.6142C27.128 21.4913 26.929 21.5405 26.8677 21.6879C26.7912 21.6019 26.7146 21.5159 26.6534 21.4176C26.4696 21.1964 26.439 21.0489 26.6993 20.84C26.8218 20.7417 27.0668 20.6311 27.2352 20.754C27.5873 20.9875 27.4036 21.3684 27.1586 21.6142L27.1586 21.6142Z"/><path id="Path_9" fill="#F50100" d="M32.8086 21.6142C32.8393 21.4913 33.0536 21.5405 33.1149 21.6879C33.1914 21.6019 33.268 21.5159 33.3292 21.4176C33.513 21.1964 33.5436 21.0489 33.268 20.84C33.1608 20.7417 32.9158 20.6311 32.7321 20.754C32.3953 20.9875 32.5637 21.3684 32.8086 21.6142L32.8086 21.6142Z"/></g><path id="turtle" fill="#059334" d="M28.424 11.3643C28.3037 11.2 27.9771 11.127 27.8396 11.273C27.7881 11.3095 27.7193 11.3095 27.6678 11.3278C27.5818 11.3278 27.4721 11.3737 27.5065 11.5563C27.599 11.5563 27.599 11.6016 27.6506 11.6016C27.6849 11.5833 27.7743 11.9182 27.9462 11.8999C28.1353 11.8999 28.3037 11.9849 28.3381 12.0214C28.3897 12.0762 28.4584 12.2222 28.3725 12.2952C28.2521 12.4047 28.1662 12.6603 28.3725 12.8611C28.5959 13.0436 29.1631 13.3174 29.7991 12.788C30.4179 12.277 31.3804 12.569 31.4491 12.7515C31.5351 12.9341 31.5695 13.0436 31.5866 13.1349C31.6038 13.2079 32.0679 13.3174 32.1367 13.3722C32.2226 13.4269 32.3429 13.4087 32.3086 13.2444C32.2398 12.7333 31.9476 12.6603 31.9132 12.423C32.0851 12.4412 32.2054 12.4412 32.2742 12.3682C32.3257 12.2952 32.3945 12.1674 32.4632 12.1309C32.5148 12.0944 32.5148 12.0579 32.4461 12.0762C32.3601 12.0944 32.3086 12.1309 32.1539 12.1127C31.7879 12.0704 31.8784 10.6858 30.6682 10.4164C29.9203 10.25 28.9877 11.3914 28.7319 11.5044C28.7264 11.5069 28.7211 11.5089 28.7162 11.5103C28.5959 11.5103 28.4928 11.4556 28.424 11.3643Z"/></g></g></g></g></g></g><defs><filter id="filter0_dd_91_26915" width="42" height="30" x="0" y="0" color-interpolation-filters="sRGB" filterUnits="userSpaceOnUse"><feFlood flood-opacity="0" result="BackgroundImageFix"/><feColorMatrix in="SourceAlpha" result="hardAlpha" values="0 0 0 0 0 0 0 0 0 0 0 0 0 0 0 0 0 0 127 0"/><feOffset dy="1"/><feGaussianBlur stdDeviation="1"/><feColorMatrix values="0 0 0 0 0.0627451 0 0 0 0 0.0941176 0 0 0 0 0.156863 0 0 0 0.06 0"/><feBlend in2="BackgroundImageFix" result="effect1_dropShadow_91_26915"/><feColorMatrix in="SourceAlpha" result="hardAlpha" values="0 0 0 0 0 0 0 0 0 0 0 0 0 0 0 0 0 0 127 0"/><feOffset dy="1"/><feGaussianBlur stdDeviation="1.5"/><feColorMatrix values="0 0 0 0 0.0627451 0 0 0 0 0.0941176 0 0 0 0 0.156863 0 0 0 0.1 0"/><feBlend in2="effect1_dropShadow_91_26915" result="effect2_dropShadow_91_26915"/><feBlend in="SourceGraphic" in2="effect2_dropShadow_91_26915" result="shape"/></filter><clipPath id="clip0_91_26915"><rect width="36" height="24" x="3" y="2" fill="white" rx="2"/></clipPath><clipPath id="clip1_91_26915"><rect width="36" height="24" fill="white" transform="translate(3 2)"/></clipPath><clipPath id="clip2_91_26915"><rect width="8" height="10" fill="white" transform="translate(26 13)"/></clipPath></defs></svg>