<svg xmlns="http://www.w3.org/2000/svg" fill="none" aria-hidden="true" viewBox="0 0 42 30"><g id="Country=MA - Morocco, Size=sm (36x24)" filter="url(#filter0_dd_91_26636)"><g clip-path="url(#clip0_91_26636)"><g id="flag"><mask id="mask0_91_26636" width="36" height="24" x="3" y="2" maskUnits="userSpaceOnUse" style="mask-type:alpha"><rect id="mask" width="36" height="24" x="3" y="2" fill="white"/></mask><g mask="url(#mask0_91_26636)"><g id="contents"><path id="background" fill="#C51918" fill-rule="evenodd" d="M3 2H39V24C39 25.1046 38.1046 26 37 26H5C3.89543 26 3 25.1046 3 24V2Z" clip-rule="evenodd"/><path id="background_2" fill="#E31D1C" fill-rule="evenodd" d="M3 2H39V26H3V2Z" clip-rule="evenodd"/><g id="mark"><path id="Rectangle 43" fill="#579D20" fill-rule="evenodd" d="M28.2926 21.6262L21.187 4.70068H20.8787L14.02 21.6262L21.1428 17.8211L28.2926 21.6262ZM20.4005 10.2221L21.1622 7.58375L21.9527 10.2977L24.2237 15.9541L25.5571 18.6927L22.6785 16.89L21.1412 16.0719L19.6288 16.8799L16.817 18.6927L18.1169 15.898L20.4005 10.2221Z" clip-rule="evenodd"/><path id="Rectangle 43_2" fill="#579D20" fill-rule="evenodd" d="M17.2455 15.473L21.1785 17.7969L24.8484 15.473L31.8186 10.2363H10.1836L17.2455 15.473ZM17.3272 13.474L14.6523 12.019H17.9156H24.3998H27.2785L24.9824 13.3118L21.1614 15.8887L17.3272 13.474Z" clip-rule="evenodd"/></g></g></g></g></g></g><defs><filter id="filter0_dd_91_26636" width="42" height="30" x="0" y="0" color-interpolation-filters="sRGB" filterUnits="userSpaceOnUse"><feFlood flood-opacity="0" result="BackgroundImageFix"/><feColorMatrix in="SourceAlpha" result="hardAlpha" values="0 0 0 0 0 0 0 0 0 0 0 0 0 0 0 0 0 0 127 0"/><feOffset dy="1"/><feGaussianBlur stdDeviation="1"/><feColorMatrix values="0 0 0 0 0.0627451 0 0 0 0 0.0941176 0 0 0 0 0.156863 0 0 0 0.06 0"/><feBlend in2="BackgroundImageFix" result="effect1_dropShadow_91_26636"/><feColorMatrix in="SourceAlpha" result="hardAlpha" values="0 0 0 0 0 0 0 0 0 0 0 0 0 0 0 0 0 0 127 0"/><feOffset dy="1"/><feGaussianBlur stdDeviation="1.5"/><feColorMatrix values="0 0 0 0 0.0627451 0 0 0 0 0.0941176 0 0 0 0 0.156863 0 0 0 0.1 0"/><feBlend in2="effect1_dropShadow_91_26636" result="effect2_dropShadow_91_26636"/><feBlend in="SourceGraphic" in2="effect2_dropShadow_91_26636" result="shape"/></filter><clipPath id="clip0_91_26636"><rect width="36" height="24" x="3" y="2" fill="white" rx="2"/></clipPath></defs></svg>