<svg xmlns="http://www.w3.org/2000/svg" fill="none" aria-hidden="true" viewBox="0 0 42 30"><g id="Country=PA - Panama, Size=sm (36x24)" filter="url(#filter0_dd_91_26008)"><g clip-path="url(#clip0_91_26008)"><g id="flag"><mask id="mask0_91_26008" width="36" height="24" x="3" y="2" maskUnits="userSpaceOnUse" style="mask-type:alpha"><rect id="mask" width="36" height="24" x="3" y="2" fill="white"/></mask><g mask="url(#mask0_91_26008)"><g id="contents"><path id="background" fill="#F7FCFF" fill-rule="evenodd" d="M3 2V26H39V2H3Z" clip-rule="evenodd"/><mask id="mask1_91_26008" width="36" height="24" x="3" y="2" maskUnits="userSpaceOnUse" style="mask-type:alpha"><path id="background_2" fill="white" fill-rule="evenodd" d="M3 2V26H39V2H3Z" clip-rule="evenodd"/></mask><g mask="url(#mask1_91_26008)"><path id="bottom" fill="#E31D1C" fill-rule="evenodd" d="M21 2V14H39V2H21Z" clip-rule="evenodd"/><path id="Star 5" fill="#E31D1C" fill-rule="evenodd" d="M28.8986 21.1495L26.3084 22.5742L27.314 20.1825L25.1123 18.3718H27.7828L28.8986 15.7847L29.7502 18.3718H32.4248L30.4973 20.1825L31.441 22.5742L28.8986 21.1495Z" clip-rule="evenodd"/><path id="Star 5_2" fill="#2E42A5" fill-rule="evenodd" d="M13.1486 10.3648L10.5584 11.7895L11.564 9.39778L9.3623 7.5871H12.0328L13.1486 5L14.0002 7.5871H16.6748L14.7473 9.39778L15.691 11.7895L13.1486 10.3648Z" clip-rule="evenodd"/><path id="bottom_2" fill="#2E42A5" fill-rule="evenodd" d="M3 14V26H21V14H3Z" clip-rule="evenodd"/></g></g></g></g></g></g><defs><filter id="filter0_dd_91_26008" width="42" height="30" x="0" y="0" color-interpolation-filters="sRGB" filterUnits="userSpaceOnUse"><feFlood flood-opacity="0" result="BackgroundImageFix"/><feColorMatrix in="SourceAlpha" result="hardAlpha" values="0 0 0 0 0 0 0 0 0 0 0 0 0 0 0 0 0 0 127 0"/><feOffset dy="1"/><feGaussianBlur stdDeviation="1"/><feColorMatrix values="0 0 0 0 0.0627451 0 0 0 0 0.0941176 0 0 0 0 0.156863 0 0 0 0.06 0"/><feBlend in2="BackgroundImageFix" result="effect1_dropShadow_91_26008"/><feColorMatrix in="SourceAlpha" result="hardAlpha" values="0 0 0 0 0 0 0 0 0 0 0 0 0 0 0 0 0 0 127 0"/><feOffset dy="1"/><feGaussianBlur stdDeviation="1.5"/><feColorMatrix values="0 0 0 0 0.0627451 0 0 0 0 0.0941176 0 0 0 0 0.156863 0 0 0 0.1 0"/><feBlend in2="effect1_dropShadow_91_26008" result="effect2_dropShadow_91_26008"/><feBlend in="SourceGraphic" in2="effect2_dropShadow_91_26008" result="shape"/></filter><clipPath id="clip0_91_26008"><rect width="36" height="24" x="3" y="2" fill="white" rx="2"/></clipPath></defs></svg>