<svg xmlns="http://www.w3.org/2000/svg" fill="none" aria-hidden="true" viewBox="0 0 42 30"><g id="Country=PR - Puerto Rico, Size=sm (36x24)" filter="url(#filter0_dd_91_25692)"><g clip-path="url(#clip0_91_25692)"><g id="flag"><mask id="mask0_91_25692" width="36" height="24" x="3" y="2" maskUnits="userSpaceOnUse" style="mask-type:alpha"><rect id="mask" width="36" height="24" x="3" y="2" fill="white"/></mask><g mask="url(#mask0_91_25692)"><g id="contents"><path id="background" fill="#EF0000" fill-rule="evenodd" d="M3 2V26H39V2H3Z" clip-rule="evenodd"/><g id="Object"><mask id="mask1_91_25692" width="36" height="24" x="3" y="2" maskUnits="userSpaceOnUse" style="mask-type:alpha"><path id="background_2" fill="white" fill-rule="evenodd" d="M3 2V26H39V2H3Z" clip-rule="evenodd"/></mask><g mask="url(#mask1_91_25692)"><path id="bottom" fill="#EF0000" stroke="#F7FCFF" stroke-width="4" d="M3 10H1V12V16V18H3H39H41V16V12V10H39H3Z"/></g></g><path id="triangle" fill="#3D58DB" fill-rule="evenodd" d="M3 2V26L23.25 14L3 2Z" clip-rule="evenodd"/><mask id="mask2_91_25692" width="21" height="24" x="3" y="2" maskUnits="userSpaceOnUse" style="mask-type:alpha"><path id="triangle_2" fill="white" fill-rule="evenodd" d="M3 2V26L23.25 14L3 2Z" clip-rule="evenodd"/></mask><g mask="url(#mask2_91_25692)"><g id="mark"><path id="Star 5" fill="#F7FCFF" fill-rule="evenodd" d="M10.5238 16.2167L6.39292 18.1547L8.40404 14.2608L5.84131 12.1806L9.00535 12.0768L10.5238 8.55615L11.6826 12.0768H14.8413L12.736 14.2608L14.4106 18.1547L10.5238 16.2167Z" clip-rule="evenodd"/></g></g></g></g></g></g></g><defs><filter id="filter0_dd_91_25692" width="42" height="30" x="0" y="0" color-interpolation-filters="sRGB" filterUnits="userSpaceOnUse"><feFlood flood-opacity="0" result="BackgroundImageFix"/><feColorMatrix in="SourceAlpha" result="hardAlpha" values="0 0 0 0 0 0 0 0 0 0 0 0 0 0 0 0 0 0 127 0"/><feOffset dy="1"/><feGaussianBlur stdDeviation="1"/><feColorMatrix values="0 0 0 0 0.0627451 0 0 0 0 0.0941176 0 0 0 0 0.156863 0 0 0 0.06 0"/><feBlend in2="BackgroundImageFix" result="effect1_dropShadow_91_25692"/><feColorMatrix in="SourceAlpha" result="hardAlpha" values="0 0 0 0 0 0 0 0 0 0 0 0 0 0 0 0 0 0 127 0"/><feOffset dy="1"/><feGaussianBlur stdDeviation="1.5"/><feColorMatrix values="0 0 0 0 0.0627451 0 0 0 0 0.0941176 0 0 0 0 0.156863 0 0 0 0.1 0"/><feBlend in2="effect1_dropShadow_91_25692" result="effect2_dropShadow_91_25692"/><feBlend in="SourceGraphic" in2="effect2_dropShadow_91_25692" result="shape"/></filter><clipPath id="clip0_91_25692"><rect width="36" height="24" x="3" y="2" fill="white" rx="2"/></clipPath></defs></svg>