<svg xmlns="http://www.w3.org/2000/svg" fill="none" aria-hidden="true" viewBox="0 0 42 30"><g filter="url(#a)"><g clip-path="url(#b)"><mask id="c" width="36" height="24" x="3" y="2" maskUnits="userSpaceOnUse" style="mask-type:alpha"><path fill="#fff" d="M3 2h36v24H3z"/></mask><g mask="url(#c)"><path fill="#EF0000" fill-rule="evenodd" d="M12 2h27v24H12V2Z" clip-rule="evenodd"/><path fill="#2F8D00" fill-rule="evenodd" d="M3 2h13.5v24H3V2Z" clip-rule="evenodd"/><mask id="d" width="19" height="16" x="7" y="6" maskUnits="userSpaceOnUse" style="mask-type:alpha"><path fill="#fff" fill-rule="evenodd" d="M16.393 21.807c-4.793 0-8.679-3.495-8.679-7.807s3.886-7.807 8.679-7.807S25.07 9.688 25.07 14s-3.885 7.807-8.678 7.807Z" clip-rule="evenodd"/></mask><g fill="#FFE017" mask="url(#d)"><path fill-rule="evenodd" d="M15.857 6h1.125v2.699h-1.125V6Zm0 13.494h1.125V22h-1.125v-2.506Z" clip-rule="evenodd"/><path d="m7.854 14.404-.315-.717c3.47-1.232 6.09-2.026 7.868-2.384 2.608-.525 5.473-.914 8.597-1.166l.076.768c-3.087.25-5.916.633-8.486 1.15-1.724.348-4.308 1.13-7.74 2.349Z"/><path d="m24.533 9.664-.255.736c-2.623-.736-4.76-1.052-6.402-.954l-.057-.77c1.763-.105 3.999.226 6.714.988Zm.908 4.116-.485.636c-1.337-.826-2.985-1.24-4.954-1.24v-.771c2.135 0 3.952.457 5.44 1.375Z"/><path d="m24.715 14.01.222.746c-2.883.694-5.59 1.088-8.12 1.18-2.549.094-5.519-.302-8.913-1.182l.238-.741c3.312.86 6.192 1.242 8.64 1.153 2.464-.09 5.109-.475 7.933-1.155Z"/><path d="m24.388 17.636-1.355 1.234c-2.574-2.286-4.841-3.921-6.786-4.904-1.978-.999-4.558-2.013-7.735-3.04l.652-1.632c3.27 1.056 5.945 2.108 8.027 3.16 2.116 1.068 4.51 2.795 7.197 5.182Zm-15.248.699-.512-.618c.072-.048.2-.128.375-.23.291-.167.614-.335.961-.492.957-.431 1.916-.7 2.832-.725l.133-.002v.771c-.036 0-.072 0-.108.002-.771.02-1.618.258-2.473.644a9.979 9.979 0 0 0-1.207.65Z"/><path d="m9.539 18.602.215-.746c2.858.67 5.061 1.003 6.599 1.003 1.531 0 3.811-.394 6.825-1.183l.24.74c-3.085.808-5.435 1.214-7.065 1.214-1.625 0-3.892-.343-6.814-1.027Zm-1.114-6.908 1.358-1.232 1.989 1.774-1.358 1.232-1.989-1.774Z"/><path d="m19.69 17.848 1.01-1.478 3.155 1.745-1.01 1.478-3.155-1.745Z"/></g><path fill="#F9E813" fill-rule="evenodd" d="M7.714 14c0 4.312 3.886 7.807 8.679 7.807S25.07 18.312 25.07 14s-3.885-7.807-8.678-7.807C11.6 6.193 7.714 9.688 7.714 14ZM24 14.097c0 3.726-3.358 6.746-7.5 6.746-4.142 0-7.5-3.02-7.5-6.746 0-3.727 3.358-6.748 7.5-6.748 4.142 0 7.5 3.021 7.5 6.748Z" clip-rule="evenodd"/><path fill="#fff" d="M11.614 9.185v6.26c.464 2.479 2.026 3.718 4.686 3.718s4.223-1.24 4.686-3.717v-6.26h-9.372Z"/><path fill="#C51918" d="M10.971 8.607H21.63v6.887l-.009.048c-.515 2.752-2.34 4.2-5.32 4.2-2.98 0-4.805-1.448-5.32-4.2l-.009-.048V8.607Z"/><path fill="#F7FCFF" d="M13.41 10.71h5.781v4.441s-.429 2.294-2.89 2.294c-2.463 0-2.892-2.294-2.892-2.294v-4.44Z"/><g fill-rule="evenodd" clip-rule="evenodd"><path fill="#F9E813" d="M12 9.084h.814v.482H12v-.482Z"/><path fill="#060101" d="M11.572 9.277h1.5v.241h-1.5v-.24Z"/><path fill="#F9E813" d="M11.572 9.47h.813v.241h-.813v-.24Zm.858 0h.813v.241h-.814v-.24Zm-.858.578h.542v.723h-.542v-.723Zm1.071 0h.542v.723h-.542v-.723Zm-.428 0h.27v.723h-.27v-.723Z"/><path fill="#060101" d="M11.572 9.855h1.5v.241h-1.5v-.24Zm0 .579h1.5v.241h-1.5v-.24Z"/><path fill="#F9E813" d="M11.786 9.663h.271v.24h-.27v-.24Zm.857 0h.271v.24h-.27v-.24Zm-.428-.193h.27v.482h-.27V9.47Zm3.857-.386h.813v.482h-.813v-.482Z"/><path fill="#060101" d="M15.643 9.277h1.5v.241h-1.5v-.24Z"/><path fill="#F9E813" d="M15.643 9.47h.813v.241h-.813v-.24Zm.857 0h.813v.241H16.5v-.24Zm-.857.578h.542v.723h-.542v-.723Zm1.071 0h.543v.723h-.543v-.723Zm-.428 0h.27v.723h-.27v-.723Z"/><path fill="#060101" d="M15.643 9.855h1.5v.241h-1.5v-.24Zm0 .579h1.5v.241h-1.5v-.24Z"/><path fill="#F9E813" d="M15.857 9.663h.271v.24h-.27v-.24Zm.857 0h.271v.24h-.27v-.24Zm-.428-.193h.27v.482h-.27V9.47Zm3.644-.386h.813v.482h-.814v-.482Z"/><path fill="#060101" d="M19.5 9.277H21v.241h-1.5v-.24Z"/><path fill="#F9E813" d="M19.5 9.47h.814v.241H19.5v-.24Zm.857 0h.814v.241h-.814v-.24Zm-.857.578h.543v.723H19.5v-.723Zm1.072 0h.542v.723h-.542v-.723Zm-.429 0h.271v.723h-.27v-.723Z"/><path fill="#060101" d="M19.5 9.855H21v.241h-1.5v-.24Zm0 .579H21v.241h-1.5v-.24Z"/><path fill="#F9E813" d="M19.715 9.663h.27v.24h-.27v-.24Zm.857 0h.27v.24h-.27v-.24Zm-.429-.193h.271v.482h-.27V9.47Zm-.213 3.084h.813v.482h-.814v-.482Z"/><path fill="#060101" d="M19.5 12.747H21v.241h-1.5v-.24Z"/><path fill="#F9E813" d="M19.5 12.94h.814v.24H19.5v-.24Zm.857 0h.814v.24h-.814v-.24Zm-.857.578h.543v.723H19.5v-.723Zm1.072 0h.542v.723h-.542v-.723Zm-.429 0h.271v.723h-.27v-.723Z"/><path fill="#060101" d="M19.5 13.325H21v.241h-1.5v-.24Zm0 .579H21v.24h-1.5v-.24Z"/><path fill="#F9E813" d="M19.715 13.132h.27v.241h-.27v-.24Zm.857 0h.27v.241h-.27v-.24Zm-.429-.192h.271v.482h-.27v-.482ZM12 12.554h.814v.482H12v-.482Z"/><path fill="#060101" d="M11.572 12.747h1.5v.241h-1.5v-.24Z"/><path fill="#F9E813" d="M11.572 12.94h.813v.24h-.813v-.24Zm.858 0h.813v.24h-.814v-.24Zm-.858.578h.542v.723h-.542v-.723Zm1.071 0h.542v.723h-.542v-.723Zm-.428 0h.27v.723h-.27v-.723Z"/><path fill="#060101" d="M11.572 13.325h1.5v.241h-1.5v-.24Zm0 .579h1.5v.24h-1.5v-.24Z"/><path fill="#F9E813" d="M11.786 13.132h.271v.241h-.27v-.24Zm.857 0h.271v.241h-.27v-.24Zm-.428-.192h.27v.482h-.27v-.482Zm.307 3.964.523-.554.415.31-.523.554-.415-.31Z"/><path fill="#060101" d="m12.413 17.32.964-1.022.207.155-.964 1.022-.207-.155Z"/><path fill="#F9E813" d="m12.579 17.444.522-.554.208.155-.523.554-.207-.155Zm.551-.584.523-.554.207.155-.522.554-.208-.155Zm-.053.955.349-.369.623.465-.349.37-.623-.466Zm.689-.729.349-.37.623.465-.349.37-.623-.465Zm-.276.291.175-.184.623.464-.174.185-.623-.465Z"/><path fill="#060101" d="m12.911 17.691.964-1.021.208.155-.964 1.021-.208-.155Zm.499.372.964-1.021.207.154-.964 1.022-.207-.155Z"/><path fill="#F9E813" d="m12.883 17.421.174-.184.208.155-.175.184-.207-.155Zm.551-.583.174-.185.207.155-.174.185-.207-.155Zm-.442.168.174-.185.416.31-.175.185-.415-.31Zm6.859-.54.523.554-.415.31-.523-.554.415-.31Z"/><path fill="#060101" d="m19.41 16.298.964 1.022-.208.155-.964-1.022.208-.155Z"/><path fill="#F9E813" d="m19.244 16.422.522.554-.207.155-.523-.554.208-.155Zm.55.584.523.554-.207.155-.523-.554.207-.155Zm-1.049-.212.349.37-.623.464-.349-.37.623-.464Zm.689.729.348.37-.623.464-.348-.369.623-.465Zm-.276-.292.174.185-.623.465-.174-.185.623-.465Z"/><path fill="#060101" d="m18.911 16.67.964 1.021-.207.155-.965-1.021.208-.155Zm-.498.371.964 1.022-.208.155-.964-1.022.208-.155Z"/><path fill="#F9E813" d="m19.215 16.692.174.184-.208.155-.174-.184.208-.155Zm.551.583.174.185-.207.155-.175-.185.208-.155Zm-.109-.415.174.184-.415.31-.175-.184.416-.31Z"/></g><path fill="#013399" fill-rule="evenodd" d="M17.128 11.205h-1.485v.961s.11.497.743.497c.632 0 .742-.497.742-.497v-.961Zm-.842.385c0 .107-.096.193-.214.193-.119 0-.215-.086-.215-.193 0-.106.096-.193.215-.193.118 0 .214.087.214.193Zm-.214.964c.118 0 .214-.086.214-.193 0-.106-.096-.193-.214-.193-.119 0-.215.087-.215.193 0 .107.096.193.215.193Zm.857-.193c0 .107-.096.193-.214.193-.119 0-.215-.086-.215-.193 0-.106.096-.193.215-.193.118 0 .214.087.214.193Zm-.536-.193c.118 0 .214-.086.214-.192 0-.107-.096-.193-.214-.193s-.214.086-.214.193c0 .106.096.192.214.192Zm.536-.578c0 .107-.096.193-.214.193-.119 0-.215-.086-.215-.193 0-.106.096-.193.215-.193.118 0 .214.087.214.193Zm.199 1.735h-1.485v.962s.11.496.743.496c.632 0 .742-.496.742-.496v-.962Zm-.842.386c0 .106-.096.192-.214.192-.119 0-.215-.086-.215-.192 0-.107.096-.193.215-.193.118 0 .214.086.214.193Zm-.214.964c.118 0 .214-.087.214-.193 0-.107-.096-.193-.214-.193-.119 0-.215.086-.215.193 0 .106.096.193.215.193Zm.857-.193c0 .106-.096.193-.214.193-.119 0-.215-.087-.215-.193 0-.107.096-.193.215-.193.118 0 .214.086.214.193Zm-.536-.193c.118 0 .214-.086.214-.193 0-.106-.096-.193-.214-.193s-.214.087-.214.193c0 .107.096.193.214.193Zm.536-.578c0 .106-.096.192-.214.192-.119 0-.215-.086-.215-.192 0-.107.096-.193.215-.193.118 0 .214.086.214.193Zm2.128-.386h-1.485v.962s.11.496.742.496c.633 0 .743-.496.743-.496v-.962Zm-.842.386c0 .106-.096.192-.215.192-.118 0-.214-.086-.214-.192 0-.107.096-.193.214-.193.119 0 .215.086.215.193Zm-.215.964c.119 0 .215-.087.215-.193 0-.107-.096-.193-.215-.193-.118 0-.214.086-.214.193 0 .106.096.193.214.193Zm.858-.193c0 .106-.096.193-.215.193-.118 0-.214-.087-.214-.193 0-.107.096-.193.214-.193.119 0 .215.086.215.193Zm-.536-.193c.118 0 .214-.086.214-.193 0-.106-.096-.193-.214-.193-.119 0-.214.087-.214.193 0 .107.095.193.214.193Zm.536-.578c0 .106-.096.192-.215.192-.118 0-.214-.086-.214-.192 0-.107.096-.193.214-.193.119 0 .215.086.215.193Zm-3.658-.386h-1.485v.962s.11.496.742.496c.633 0 .743-.496.743-.496v-.962Zm-.842.386c0 .106-.096.192-.215.192-.118 0-.214-.086-.214-.192 0-.107.096-.193.214-.193.119 0 .215.086.215.193Zm-.215.964c.119 0 .215-.087.215-.193 0-.107-.096-.193-.215-.193-.118 0-.214.086-.214.193 0 .106.096.193.214.193Zm.858-.193c0 .106-.096.193-.215.193-.118 0-.214-.087-.214-.193 0-.107.096-.193.214-.193.119 0 .215.086.215.193Zm-.536-.193c.118 0 .214-.086.214-.193 0-.106-.096-.193-.214-.193s-.214.087-.214.193c0 .107.096.193.214.193Zm.536-.578c0 .106-.096.192-.215.192-.118 0-.214-.086-.214-.192 0-.107.096-.193.214-.193.119 0 .215.086.215.193Zm2.127 1.735h-1.485v.961s.11.497.743.497c.632 0 .742-.497.742-.497v-.961Zm-.842.385c0 .107-.096.193-.214.193-.119 0-.215-.086-.215-.193 0-.106.096-.192.215-.192.118 0 .214.086.214.192Zm-.214.964c.118 0 .214-.086.214-.193 0-.106-.096-.192-.214-.192-.119 0-.215.086-.215.192 0 .107.096.193.215.193Zm.857-.193c0 .107-.096.193-.214.193-.119 0-.215-.086-.215-.193 0-.106.096-.192.215-.192.118 0 .214.086.214.192Zm-.536-.192c.118 0 .214-.087.214-.193 0-.107-.096-.193-.214-.193s-.214.086-.214.193c0 .106.096.193.214.193Zm.536-.579c0 .107-.096.193-.214.193-.119 0-.215-.086-.215-.193 0-.106.096-.192.215-.192.118 0 .214.086.214.192Z" clip-rule="evenodd"/></g></g></g><defs><clipPath id="b"><rect width="36" height="24" x="3" y="2" fill="#fff" rx="2"/></clipPath><filter id="a" width="42" height="30" x="0" y="0" color-interpolation-filters="sRGB" filterUnits="userSpaceOnUse"><feFlood flood-opacity="0" result="BackgroundImageFix"/><feColorMatrix in="SourceAlpha" result="hardAlpha" values="0 0 0 0 0 0 0 0 0 0 0 0 0 0 0 0 0 0 127 0"/><feOffset dy="1"/><feGaussianBlur stdDeviation="1"/><feColorMatrix values="0 0 0 0 0.0627451 0 0 0 0 0.0941176 0 0 0 0 0.156863 0 0 0 0.06 0"/><feBlend in2="BackgroundImageFix" result="effect1_dropShadow_91_25529"/><feColorMatrix in="SourceAlpha" result="hardAlpha" values="0 0 0 0 0 0 0 0 0 0 0 0 0 0 0 0 0 0 127 0"/><feOffset dy="1"/><feGaussianBlur stdDeviation="1.5"/><feColorMatrix values="0 0 0 0 0.0627451 0 0 0 0 0.0941176 0 0 0 0 0.156863 0 0 0 0.1 0"/><feBlend in2="effect1_dropShadow_91_25529" result="effect2_dropShadow_91_25529"/><feBlend in="SourceGraphic" in2="effect2_dropShadow_91_25529" result="shape"/></filter></defs></svg>