<svg xmlns="http://www.w3.org/2000/svg" fill="none" aria-hidden="true" viewBox="0 0 42 30"><g filter="url(#a)"><g clip-path="url(#b)"><mask id="c" width="36" height="24" x="3" y="2" maskUnits="userSpaceOnUse" style="mask-type:alpha"><path fill="#fff" d="M3 2h36v24H3z"/></mask><g mask="url(#c)"><path fill="#FECA00" fill-rule="evenodd" d="M3 2v24h36V2H3Z" clip-rule="evenodd"/><mask id="d" width="36" height="24" x="3" y="2" maskUnits="userSpaceOnUse" style="mask-type:alpha"><path fill="#fff" fill-rule="evenodd" d="M3 2v24h36V2H3Z" clip-rule="evenodd"/></mask><g fill-rule="evenodd" clip-rule="evenodd" mask="url(#d)"><path fill="#3CA5D9" d="M3 2v14h36V2H3Z"/><path fill="#5A962A" d="M3 20v6h36v-6H3Z"/><path fill="#FFDC17" d="M30.092 13.866a5.235 5.235 0 0 1-.208 0l-.68 1.974-.144-2.056a5.053 5.053 0 0 1-.205-.042l-1.178 1.78.399-2.027a4.827 4.827 0 0 1-.19-.083l-1.61 1.49.918-1.888a4.51 4.51 0 0 1-.165-.12l-1.955 1.122 1.386-1.649c-.044-.05-.088-.1-.13-.152l-2.193.695 1.778-1.32a3.774 3.774 0 0 1-.087-.177l-2.312.23 2.074-.923a3.5 3.5 0 0 1-.039-.19l-2.307-.245 2.258-.477c.003-.065.007-.13.013-.195l-2.18-.704 2.32-.007c.02-.063.041-.126.064-.188l-1.934-1.127 2.26.464a3.85 3.85 0 0 1 .112-.169l-1.588-1.49 2.08.912c.049-.049.1-.096.152-.142L25.645 5.39l1.786 1.308c.06-.036.122-.072.184-.106l-.66-1.96 1.396 1.636c.068-.023.137-.045.207-.066L28.43 4.16l.93 1.877a5.11 5.11 0 0 1 .216-.021L29.988 4l.412 2.017c.072.006.144.013.216.022l.93-1.879-.128 2.047c.068.02.136.042.203.065l1.399-1.64-.662 1.967.18.105L34.33 5.39l-1.16 1.78c.05.045.098.09.146.138l2.09-.916L33.81 7.89c.037.054.073.108.107.163l2.275-.467-1.948 1.135c.022.06.042.12.06.18l2.338.007-2.196.71c.006.06.01.123.012.185l2.275.481-2.324.246c-.01.061-.023.122-.037.183l2.089.93-2.327-.233a3.658 3.658 0 0 1-.084.17l1.79 1.329-2.207-.699c-.04.05-.082.099-.125.147l1.395 1.658-1.965-1.128c-.052.04-.105.08-.16.117l.923 1.898-1.616-1.496a4.69 4.69 0 0 1-.186.082l.4 2.033-1.18-1.784c-.066.016-.134.03-.202.043l-.144 2.059-.68-1.974Zm-.153-1.451c1.576 0 2.853-1.12 2.853-2.5s-1.277-2.498-2.853-2.498c-1.575 0-2.853 1.118-2.853 2.499 0 1.38 1.278 2.499 2.853 2.499Zm1.641-2.426c0 .79-.72 1.43-1.608 1.43-.888 0-1.608-.64-1.608-1.43 0-.79.72-1.43 1.608-1.43.888 0 1.608.64 1.608 1.43Z"/></g></g></g></g><defs><clipPath id="b"><rect width="36" height="24" x="3" y="2" fill="#fff" rx="2"/></clipPath><filter id="a" width="42" height="30" x="0" y="0" color-interpolation-filters="sRGB" filterUnits="userSpaceOnUse"><feFlood flood-opacity="0" result="BackgroundImageFix"/><feColorMatrix in="SourceAlpha" result="hardAlpha" values="0 0 0 0 0 0 0 0 0 0 0 0 0 0 0 0 0 0 127 0"/><feOffset dy="1"/><feGaussianBlur stdDeviation="1"/><feColorMatrix values="0 0 0 0 0.0627451 0 0 0 0 0.0941176 0 0 0 0 0.156863 0 0 0 0.06 0"/><feBlend in2="BackgroundImageFix" result="effect1_dropShadow_91_25317"/><feColorMatrix in="SourceAlpha" result="hardAlpha" values="0 0 0 0 0 0 0 0 0 0 0 0 0 0 0 0 0 0 127 0"/><feOffset dy="1"/><feGaussianBlur stdDeviation="1.5"/><feColorMatrix values="0 0 0 0 0.0627451 0 0 0 0 0.0941176 0 0 0 0 0.156863 0 0 0 0.1 0"/><feBlend in2="effect1_dropShadow_91_25317" result="effect2_dropShadow_91_25317"/><feBlend in="SourceGraphic" in2="effect2_dropShadow_91_25317" result="shape"/></filter></defs></svg>