<svg xmlns="http://www.w3.org/2000/svg" fill="none" aria-hidden="true" viewBox="0 0 42 30"><g id="Country=SC - Seychelles, Size=sm (36x24)" filter="url(#filter0_dd_91_25253)"><g clip-path="url(#clip0_91_25253)"><g id="flag"><mask id="mask0_91_25253" width="36" height="24" x="3" y="2" maskUnits="userSpaceOnUse" style="mask-type:alpha"><rect id="mask" width="36" height="24" x="3" y="2" fill="white"/></mask><g mask="url(#mask0_91_25253)"><g id="contents"><path id="background" fill="#2E42A5" fill-rule="evenodd" d="M3 2V26H39V2H3Z" clip-rule="evenodd"/><mask id="mask1_91_25253" width="36" height="24" x="3" y="2" maskUnits="userSpaceOnUse" style="mask-type:alpha"><path id="background_2" fill="white" fill-rule="evenodd" d="M3 2V26H39V2H3Z" clip-rule="evenodd"/></mask><g mask="url(#mask1_91_25253)"><path id="1" fill="#FFD018" fill-rule="evenodd" d="M3 25.9966L21.1699 0H39.3398L3 25.9966Z" clip-rule="evenodd"/><path id="2" fill="#E31D1C" d="M3 25.9964L41.7711 12.9981V-3.10352L3 25.9964Z"/><path id="3" fill="#F7FCFF" d="M3 25.9964L41.7711 20.9981V12.8965L3 25.9964Z"/><path id="4" fill="#5EAA22" fill-rule="evenodd" d="M3 25.9964H41.7711V18.8965L3 25.9964Z" clip-rule="evenodd"/></g></g></g></g></g></g><defs><filter id="filter0_dd_91_25253" width="42" height="30" x="0" y="0" color-interpolation-filters="sRGB" filterUnits="userSpaceOnUse"><feFlood flood-opacity="0" result="BackgroundImageFix"/><feColorMatrix in="SourceAlpha" result="hardAlpha" values="0 0 0 0 0 0 0 0 0 0 0 0 0 0 0 0 0 0 127 0"/><feOffset dy="1"/><feGaussianBlur stdDeviation="1"/><feColorMatrix values="0 0 0 0 0.0627451 0 0 0 0 0.0941176 0 0 0 0 0.156863 0 0 0 0.06 0"/><feBlend in2="BackgroundImageFix" result="effect1_dropShadow_91_25253"/><feColorMatrix in="SourceAlpha" result="hardAlpha" values="0 0 0 0 0 0 0 0 0 0 0 0 0 0 0 0 0 0 127 0"/><feOffset dy="1"/><feGaussianBlur stdDeviation="1.5"/><feColorMatrix values="0 0 0 0 0.0627451 0 0 0 0 0.0941176 0 0 0 0 0.156863 0 0 0 0.1 0"/><feBlend in2="effect1_dropShadow_91_25253" result="effect2_dropShadow_91_25253"/><feBlend in="SourceGraphic" in2="effect2_dropShadow_91_25253" result="shape"/></filter><clipPath id="clip0_91_25253"><rect width="36" height="24" x="3" y="2" fill="white" rx="2"/></clipPath></defs></svg>