<svg xmlns="http://www.w3.org/2000/svg" fill="none" aria-hidden="true" viewBox="0 0 42 30"><g filter="url(#a)"><g clip-path="url(#b)"><mask id="c" width="36" height="24" x="3" y="2" maskUnits="userSpaceOnUse" style="mask-type:alpha"><path fill="#fff" d="M3 2h36v24H3z"/></mask><g mask="url(#c)"><path fill="#FFB400" fill-rule="evenodd" d="M3 2v24h36V2H3Z" clip-rule="evenodd"/><mask id="d" width="36" height="24" x="3" y="2" maskUnits="userSpaceOnUse" style="mask-type:alpha"><path fill="#fff" fill-rule="evenodd" d="M3 2v24h36V2H3Z" clip-rule="evenodd"/></mask><g mask="url(#d)"><path fill="#C51918" fill-rule="evenodd" d="M3 2v6h36V2H3Zm0 18v6h36v-6H3Z" clip-rule="evenodd"/><path fill="#F1F9FF" d="M8.634 12.272h1.26v5.824h-1.26z"/><path fill="#C88A02" fill-rule="evenodd" d="M10.398 11.264H8.13v.56h.378v.448h1.512v-.448h.378v-.56Zm-.378 7.168h.378v.56H8.13v-.56h.378v-.448h1.512v.448Z" clip-rule="evenodd"/><path fill="#AD1619" fill-rule="evenodd" d="M9.264 11.376c.275 0 .302-.092.464-.229.126-.106.418-.238.418-.387 0-.34-.395-.616-.882-.616s-.882.276-.882.616c0 .166.202.277.354.387.16.117.278.229.528.229Z" clip-rule="evenodd"/><path fill="#005BBF" fill-rule="evenodd" d="M8.13 18.992h2.268v.896s-.283-.112-.567-.112c-.283 0-.567.112-.567.112s-.283-.112-.567-.112c-.283 0-.567.112-.567.112v-.896Z" clip-rule="evenodd"/><mask id="e" width="3" height="2" x="8" y="18" maskUnits="userSpaceOnUse" style="mask-type:alpha"><path fill="#fff" fill-rule="evenodd" d="M8.13 18.992h2.268v.896s-.283-.112-.567-.112c-.283 0-.567.112-.567.112s-.283-.112-.567-.112c-.283 0-.567.112-.567.112v-.896Z" clip-rule="evenodd"/></mask><g mask="url(#e)"><path fill="#fff" d="m8.11 19.712-.05-.107a1.66 1.66 0 0 1 .615-.122.75.75 0 0 1 .32.063.61.61 0 0 0 .27.054.61.61 0 0 0 .27-.054.737.737 0 0 1 .32-.063c.205 0 .41.04.614.122l-.05.107a1.527 1.527 0 0 0-.565-.112.609.609 0 0 0-.27.053.739.739 0 0 1-.32.064.739.739 0 0 1-.32-.063.609.609 0 0 0-.27-.054 1.52 1.52 0 0 0-.564.112Zm0-.336-.05-.107a1.66 1.66 0 0 1 .615-.122.75.75 0 0 1 .32.063.609.609 0 0 0 .27.054.609.609 0 0 0 .27-.054.739.739 0 0 1 .32-.063c.205 0 .41.04.614.122l-.05.107a1.525 1.525 0 0 0-.565-.112.61.61 0 0 0-.27.053.737.737 0 0 1-.32.064.737.737 0 0 1-.32-.064.61.61 0 0 0-.27-.053 1.52 1.52 0 0 0-.564.112Z"/></g><path fill="#F1F9FF" d="M20.982 12.272h1.26v5.824h-1.26z"/><path fill="#C88A02" fill-rule="evenodd" d="M22.746 11.264h-2.268v.56h.378v.448h1.512v-.448h.378v-.56Zm-.378 7.168h.378v.56h-2.268v-.56h.378v-.448h1.512v.448Z" clip-rule="evenodd"/><path fill="#AD1619" fill-rule="evenodd" d="M21.612 11.376c.274 0 .302-.092.464-.229.125-.106.418-.238.418-.387 0-.34-.395-.616-.882-.616s-.882.276-.882.616c0 .166.201.277.354.387.16.117.278.229.528.229Z" clip-rule="evenodd"/><path fill="#005BBF" fill-rule="evenodd" d="M20.478 18.992h2.268v.896s-.284-.112-.567-.112c-.284 0-.567.112-.567.112s-.284-.112-.567-.112c-.284 0-.567.112-.567.112v-.896Z" clip-rule="evenodd"/><mask id="f" width="3" height="2" x="20" y="18" maskUnits="userSpaceOnUse" style="mask-type:alpha"><path fill="#fff" fill-rule="evenodd" d="M20.478 18.992h2.268v.896s-.284-.112-.567-.112c-.284 0-.567.112-.567.112s-.284-.112-.567-.112c-.284 0-.567.112-.567.112v-.896Z" clip-rule="evenodd"/></mask><g mask="url(#f)"><path fill="#fff" d="m20.458 19.712-.05-.107a1.66 1.66 0 0 1 .615-.122.75.75 0 0 1 .32.063.61.61 0 0 0 .27.054.61.61 0 0 0 .27-.054.737.737 0 0 1 .32-.063c.205 0 .41.04.614.122l-.05.107a1.527 1.527 0 0 0-.564-.112.609.609 0 0 0-.27.053.738.738 0 0 1-.32.064.738.738 0 0 1-.32-.063.609.609 0 0 0-.27-.054 1.52 1.52 0 0 0-.565.112Zm0-.336-.05-.107a1.66 1.66 0 0 1 .615-.122.75.75 0 0 1 .32.063.608.608 0 0 0 .27.054.608.608 0 0 0 .27-.054.739.739 0 0 1 .32-.063c.205 0 .41.04.614.122l-.05.107a1.525 1.525 0 0 0-.564-.112.61.61 0 0 0-.27.053.737.737 0 0 1-.32.064.737.737 0 0 1-.32-.064.61.61 0 0 0-.27-.053 1.52 1.52 0 0 0-.565.112Z"/></g><path fill="#AD1619" fill-rule="evenodd" d="M8.612 17.68c.227-.245.354-.468.354-.704 0-.15-.05-.278-.138-.383l.015-.006c-.001 0 .25-.097.337-.134.162-.07.305-.142.444-.232a3.58 3.58 0 0 1 .39-.207l.17-.08.046-.023c.089-.041.154-.074.216-.105.19-.098.316-.18.412-.288.228-.257.18-.605-.139-.798-.156-.095-.367-.149-.677-.192l-.064-.008-.378-.053c-.148-.02-.28-.04-.398-.058.774-.114 1.88-.072 2.367.151l.462-.796c-.991-.455-3.25-.409-4.094.108-.62.379-.536.951.108 1.198.27.103.62.172 1.27.264a3.298 3.298 0 0 0-.284.162 1.86 1.86 0 0 1-.287.15c-.053.022-.21.083-.282.11l-.036.015c-.525.212-.78.505-.703 1.035l.041.287.074.02.774.567Zm-.649-.74-.001.003v-.003h.001Zm13.831.036c0 .236.127.46.354.704l.774-.567.074-.02.041-.287c.076-.53-.178-.823-.703-1.035l-.036-.014-.282-.112a1.857 1.857 0 0 1-.287-.149 3.29 3.29 0 0 0-.283-.162c.65-.092 1-.16 1.27-.264.643-.247.726-.82.107-1.198-.844-.517-3.103-.563-4.094-.108l.462.796c.487-.223 1.593-.265 2.367-.15a26.656 26.656 0 0 1-.776.11l-.064.008c-.31.043-.52.097-.677.192-.32.193-.367.541-.139.798.096.109.222.19.412.288.062.031.127.064.216.105l.046.022.17.08c.182.087.301.15.39.208.14.09.282.163.445.232.087.037.337.134.336.134l.015.006a.587.587 0 0 0-.138.383Z" clip-rule="evenodd"/><path fill="#F1F9FF" d="m9.664 14.4.372.069v.492c-.396.281-1.402.755-1.402.755V14.4h1.03Zm11.69 0-.372.069v.492c.396.281 1.402.755 1.402.755V14.4h-1.03Z"/><path fill="#AD1619" fill-rule="evenodd" d="M19.623 9.206v-.164c-.648-.413-1.326-.62-2.036-.62a4.517 4.517 0 0 0-2.065-.312v-.002c-1.047-.092-2.102.314-2.102.314-1.064 0-2.036.62-2.036.62v.164l1.27 1.135s.358 1.092 2.864.835v.003s1.658-.04 1.775-.075c.046-.014.094-.026.143-.039.325-.084.696-.18.916-.724l1.271-1.135Zm-4.106-1.045c-.036.377-.242 2.654 0 3.007V8.161Z" clip-rule="evenodd"/><path fill="#C88A02" fill-rule="evenodd" d="m12.353 10.15.001-.004-.894-.748.086-.081.84.701.02-.087c.138.026.238.036.297.03V9.81l.186.09c.091.044.222.056.395.03.127-.018.212-.149.24-.427l.056-.563.19.54c.085.243.216.351.402.351.182 0 .255-.06.263-.209l.023-.423.215.378a.357.357 0 0 0 .337.198c.218 0 .363-.161.363-.414h.256c0 .253.146.414.363.414.152 0 .26-.062.337-.198l.215-.378.023.423c.008.15.081.209.263.209.186 0 .317-.108.403-.352l.189-.539.056.563c.028.278.114.41.24.428.173.025.304.013.395-.031l.186-.09v.152c.059.006.16-.004.297-.03l.04.163.928-.777.086.082-1.155.966c-.169.276-.254.458-.254.534 0 .115-.338.184-.997.254a18.5 18.5 0 0 1-1.626.098h-.126a18.29 18.29 0 0 1-1.625-.098c-.66-.07-.998-.139-.998-.254a.21.21 0 0 0-.009-.054.831.831 0 0 1-.144-.31 5.416 5.416 0 0 0-.1-.17l-.256-.214-.007-.001Zm6.194.018c-.207.032-.356.029-.435-.028a1.109 1.109 0 0 1-.434.01c-.177-.025-.3-.13-.374-.303a.592.592 0 0 1-.366.2c.806.1 1.371.244 1.371.244s-.014.106-.047.23a4.66 4.66 0 0 1 .127-.217l.012-.014.146-.122Zm-1.99-.164a.392.392 0 0 1-.166-.134.583.583 0 0 1-.204.103c.126.008.25.019.37.03Zm-.815-.053a.562.562 0 0 1-.24-.188.562.562 0 0 1-.24.187l.174-.003h.101c.069 0 .137.002.205.004Zm-3.042.33-.117-.097c.14.012.245 0 .307-.044.123.032.269.035.434.01.177-.025.3-.13.374-.303a.592.592 0 0 0 .353.197c-.695.087-1.213.205-1.35.238Zm2.11-.31a9.587 9.587 0 0 0-.358.03.39.39 0 0 0 .16-.131c.058.046.124.08.198.101Zm3.1.93c.088.037.159 0 .215-.07a.326.326 0 0 0-.01.053.225.225 0 0 1-.033.015 1.348 1.348 0 0 1-.187.048 7.736 7.736 0 0 1-.666.095c-.534.057-1.169.095-1.673.098a17.62 17.62 0 0 1-1.674-.098 7.736 7.736 0 0 1-.666-.095 1.571 1.571 0 0 1-.166-.04.207.207 0 0 0 .014-.006c.275-.114 2.095-.222 2.423-.24.328.018 2.148.126 2.423.24Zm.346-.02v.001Zm.001 0Z" clip-rule="evenodd"/><path fill="#005BBF" fill-rule="evenodd" d="M15.502 7.347c.208 0 .377-.15.377-.336 0-.186-.169-.336-.377-.336-.21 0-.379.15-.379.336 0 .186.17.336.379.336Z" clip-rule="evenodd"/><path fill="#C88A02" fill-rule="evenodd" d="M15.256 8.997a.41.41 0 0 0 .036.102.53.53 0 0 0-.168-.027c-.175 0-.316.076-.316.168 0 .093.142.168.316.168.173 0 .314-.075.314-.168v-.005.005c0 .093.142.168.316.168.174 0 .315-.075.315-.168 0-.092-.141-.168-.315-.168a.56.56 0 0 0-.124.014.379.379 0 0 0-.003-.153c-.033-.152-.143-.26-.246-.243-.102.018-.158.155-.125.307Zm-1.854.214a.41.41 0 0 1-.036-.102c-.033-.152.023-.29.125-.307.103-.018.213.09.246.243a.375.375 0 0 1 .003.153.56.56 0 0 1 .123-.014c.174 0 .316.076.316.168 0 .093-.142.168-.316.168-.173 0-.314-.075-.314-.168v-.005.005c0 .093-.142.168-.316.168-.174 0-.315-.075-.315-.168 0-.092.141-.168.315-.168.063 0 .12.01.17.027Zm3.947.102c-.015.092-.166.149-.338.127-.173-.021-.3-.113-.286-.205.014-.092.166-.149.338-.127a.52.52 0 0 1 .163.046.403.403 0 0 1-.02-.105c-.01-.154.068-.283.172-.288.104-.005.196.116.205.27a.378.378 0 0 1-.02.153.562.562 0 0 1 .124.002c.172.021.3.113.286.205-.015.092-.166.149-.339.127-.172-.021-.3-.113-.285-.205v-.005.005Zm1.2.444c.153.073.317.065.366-.017l.003-.004a.125.125 0 0 0 .053.03c.1.027.222-.07.273-.219.051-.148.011-.29-.088-.317-.1-.027-.223.071-.273.219a.404.404 0 0 0-.022.105.475.475 0 0 0-.135-.093c-.154-.073-.318-.065-.367.016-.049.082.036.208.19.28Zm-6.183.035c-.154.072-.318.065-.367-.017a.09.09 0 0 1-.003-.005.125.125 0 0 1-.053.03c-.1.027-.222-.07-.273-.218-.05-.148-.011-.29.089-.317.1-.027.222.07.273.218a.416.416 0 0 1 .021.105.475.475 0 0 1 .135-.093c.154-.073.318-.065.367.017.05.082-.035.207-.19.28Zm2.994-3.715h.263v.147h.172v.233h-.172v.467h.172v.233h-.608v-.233h.174v-.467h-.175v-.233h.175v-.147Z" clip-rule="evenodd"/><path fill="#C88A02" d="M15.313 7.344h.504V8.8h-.504z"/><path fill="#fff" d="m13.283 7.588-.002.112c-1.117-.018-1.758.127-1.92.416-.169.299-.138.662.098 1.093l-.113.05c-.252-.461-.286-.86-.098-1.193.193-.343.87-.496 2.035-.478Z"/><path fill="#fff" d="m13.5 8.58-.065.097c-.243-.129-.365-.35-.365-.653 0-.437.253-.693.812-.868.357-.111.845-.066 1.465.134l-.043.105c-.595-.191-1.055-.235-1.38-.133-.513.16-.728.378-.728.762 0 .266.101.45.303.557Z"/><path fill="#C88A02" d="m11.618 9.037-.238.075c-.246-.625-.176-1.049.246-1.232.371-.16.912-.226 1.626-.2l-.01.223c-.676-.024-1.179.037-1.506.179-.277.12-.328.425-.118.955Z"/><path fill="#C88A02" d="M14.396 7.439c-.576 0-.813.124-.948.493-.086.234-.003.435.268.622l-.154.177c-.351-.243-.475-.539-.354-.869.172-.47.51-.647 1.188-.647.444 0 .79.103 1.03.314l.038.033v1.08h-.252v-.984c-.188-.145-.458-.22-.816-.22Z"/><path fill="#fff" d="m17.68 7.7.003.112c1.117-.018 1.758.127 1.92.416.169.299.137.662-.098 1.093l.113.049c.251-.46.286-.859.098-1.192-.193-.343-.871-.496-2.036-.478Z"/><path fill="#fff" d="m17.286 8.604.065.096c.243-.129.365-.35.365-.653 0-.436-.253-.692-.813-.868-.357-.111-.845-.065-1.464.134l.043.106c.595-.192 1.055-.235 1.38-.134.513.16.728.378.728.762 0 .267-.101.45-.304.557Z"/><path fill="#C88A02" d="m19.424 9.15.238.074c.247-.625.177-1.049-.245-1.232-.372-.16-.913-.226-1.627-.2l.01.223c.676-.024 1.18.037 1.506.179.277.12.328.425.118.955Z"/><path fill="#C88A02" d="M16.633 7.456c.576 0 .812.125.948.493.086.235.002.435-.269.622l.155.177c.35-.242.474-.539.353-.869-.172-.469-.51-.647-1.188-.647-.443 0-.79.104-1.03.315l-.037.032v1.08h.252v-.984c.188-.145.458-.22.816-.22Z"/><path fill="#E1E5E8" fill-rule="evenodd" d="M11.406 11.264h8.19v6.541S18.988 20 15.501 20c-3.486 0-4.095-2.253-4.095-2.253v-6.483Z" clip-rule="evenodd" opacity=".3"/><mask id="g" width="9" height="10" x="11" y="11" maskUnits="userSpaceOnUse" style="mask-type:alpha"><path fill="#fff" fill-rule="evenodd" d="M11.406 11.264h8.19v6.541S18.988 20 15.501 20c-3.486 0-4.095-2.253-4.095-2.253v-6.483Z" clip-rule="evenodd"/></mask><g mask="url(#g)"><path fill="#FFC034" d="M11.406 15.296h4.158v4.368h-4.158z"/><path fill="#AD1619" d="M11.91 15.52h.504v4.144h-.504zm1.764 0h.504v4.144h-.504zm-.881 0h.504v4.144h-.504zm1.763 0h.504v4.144h-.504zm-3.15-4.368h4.158v4.256h-4.158z"/><path fill="#AD1619" d="M15.438 15.184h4.158v4.256h-4.158z"/><path fill="#F1F9FF" d="M15.438 11.264h4.41v4.144h-4.41z"/><path fill="#C88A02" fill-rule="evenodd" d="M13.17 11.6h.379v.93h.252v-.465h.378v.464h.378v.581h-.378v1.045h.378v.581h-2.268v-.58h.378V13.11h-.378v-.58h.252v-.465h.378v.464h.252V11.6Z" clip-rule="evenodd"/><path fill="#C88A02" d="m17.602 11.795.258-.245.541.45-.258.245-.541-.45Z"/><path fill="#FFC034" fill-rule="evenodd" d="M19.155 18.14v-2.452h-3.15v2.432l.005.019c.16.604.703.91 1.57.91.867 0 1.41-.298 1.57-.89l.005-.019Zm-1.575.572c-.696 0-1.076-.208-1.197-.632v-2.056h2.394V18.1c-.12.41-.5.612-1.197.612Z" clip-rule="evenodd"/><path fill="#FFC034" fill-rule="evenodd" d="M17.71 15.893h-.262v1.112l-1.035-1-.186.15.936.906h-.848v.336h.869l-.957.924.186.152 1.035-1v1.299h.262v-1.183l.914.884.186-.152-.957-.924h1.068v-.336h-1.047l.936-.905-.186-.152-.914.884v-.995Z" clip-rule="evenodd"/><path fill="#F1F9FF" fill-rule="evenodd" d="M18.168 19.443s-2.668.186-2.668-1.344c0 0-.026 1.344-2.813 1.344v1.208h5.481v-1.208Z" clip-rule="evenodd"/><path fill="#005BBF" fill-rule="evenodd" stroke="#AD1619" stroke-width="1.167" d="M15.501 16.192c.522 0 .945-.401.945-.896s-.423-.896-.945-.896-.945.401-.945.896.423.896.945.896Z" clip-rule="evenodd"/></g></g></g></g></g><defs><clipPath id="b"><rect width="36" height="24" x="3" y="2" fill="#fff" rx="2"/></clipPath><filter id="a" width="42" height="30" x="0" y="0" color-interpolation-filters="sRGB" filterUnits="userSpaceOnUse"><feFlood flood-opacity="0" result="BackgroundImageFix"/><feColorMatrix in="SourceAlpha" result="hardAlpha" values="0 0 0 0 0 0 0 0 0 0 0 0 0 0 0 0 0 0 127 0"/><feOffset dy="1"/><feGaussianBlur stdDeviation="1"/><feColorMatrix values="0 0 0 0 0.0627451 0 0 0 0 0.0941176 0 0 0 0 0.156863 0 0 0 0.06 0"/><feBlend in2="BackgroundImageFix" result="effect1_dropShadow_91_28410"/><feColorMatrix in="SourceAlpha" result="hardAlpha" values="0 0 0 0 0 0 0 0 0 0 0 0 0 0 0 0 0 0 127 0"/><feOffset dy="1"/><feGaussianBlur stdDeviation="1.5"/><feColorMatrix values="0 0 0 0 0.0627451 0 0 0 0 0.0941176 0 0 0 0 0.156863 0 0 0 0.1 0"/><feBlend in2="effect1_dropShadow_91_28410" result="effect2_dropShadow_91_28410"/><feBlend in="SourceGraphic" in2="effect2_dropShadow_91_28410" result="shape"/></filter></defs></svg>