<svg xmlns="http://www.w3.org/2000/svg" fill="none" aria-hidden="true" viewBox="0 0 42 30"><g id="Country=SY - Syria, Size=sm (36x24)" filter="url(#filter0_dd_91_24918)"><g clip-path="url(#clip0_91_24918)"><g id="flag"><mask id="mask0_91_24918" width="36" height="24" x="3" y="2" maskUnits="userSpaceOnUse" style="mask-type:alpha"><rect id="mask" width="36" height="24" x="3" y="2" fill="white"/></mask><g mask="url(#mask0_91_24918)"><g id="contents"><path id="middle" fill="#F7FCFF" fill-rule="evenodd" d="M3 2H39V26H3V2Z" clip-rule="evenodd"/><path id="Star 5" fill="#409100" fill-rule="evenodd" d="M13.1263 15.2471L11.7233 16L12.0434 14.5308L10.875 13.4313L12.457 13.3718L13.1263 12L13.7957 13.3718H15.375L14.2093 14.5308L14.5603 16L13.1263 15.2471Z" clip-rule="evenodd"/><path id="Star 5_2" fill="#409100" fill-rule="evenodd" d="M28.8763 15.2471L27.4733 16L27.7934 14.5308L26.625 13.4313L28.207 13.3718L28.8763 12L29.5457 13.3718H31.125L29.9593 14.5308L30.3103 16L28.8763 15.2471Z" clip-rule="evenodd"/><path id="top" fill="#E31D1C" fill-rule="evenodd" d="M3 2V10H39V2H3Z" clip-rule="evenodd"/><path id="bottom" fill="#272727" fill-rule="evenodd" d="M3 18V26H39V18H3Z" clip-rule="evenodd"/></g></g></g></g></g><defs><filter id="filter0_dd_91_24918" width="42" height="30" x="0" y="0" color-interpolation-filters="sRGB" filterUnits="userSpaceOnUse"><feFlood flood-opacity="0" result="BackgroundImageFix"/><feColorMatrix in="SourceAlpha" result="hardAlpha" values="0 0 0 0 0 0 0 0 0 0 0 0 0 0 0 0 0 0 127 0"/><feOffset dy="1"/><feGaussianBlur stdDeviation="1"/><feColorMatrix values="0 0 0 0 0.0627451 0 0 0 0 0.0941176 0 0 0 0 0.156863 0 0 0 0.06 0"/><feBlend in2="BackgroundImageFix" result="effect1_dropShadow_91_24918"/><feColorMatrix in="SourceAlpha" result="hardAlpha" values="0 0 0 0 0 0 0 0 0 0 0 0 0 0 0 0 0 0 127 0"/><feOffset dy="1"/><feGaussianBlur stdDeviation="1.5"/><feColorMatrix values="0 0 0 0 0.0627451 0 0 0 0 0.0941176 0 0 0 0 0.156863 0 0 0 0.1 0"/><feBlend in2="effect1_dropShadow_91_24918" result="effect2_dropShadow_91_24918"/><feBlend in="SourceGraphic" in2="effect2_dropShadow_91_24918" result="shape"/></filter><clipPath id="clip0_91_24918"><rect width="36" height="24" x="3" y="2" fill="white" rx="2"/></clipPath></defs></svg>