<svg xmlns="http://www.w3.org/2000/svg" fill="none" aria-hidden="true" viewBox="0 0 42 30"><g filter="url(#a)"><g clip-path="url(#b)"><mask id="c" width="36" height="24" x="3" y="2" maskUnits="userSpaceOnUse" style="mask-type:alpha"><path fill="#fff" d="M3 2h36v24H3z"/></mask><g mask="url(#c)"><path fill="#E31D1C" stroke="#F7FCFF" stroke-width="2" d="M3 1H2v26h38V1H3Z"/><path fill="#FECA00" fill-rule="evenodd" d="m3 2 27 12L3 26V2Z" clip-rule="evenodd"/><path fill="#272727" fill-rule="evenodd" d="m3 2 18 12L3 26V2Z" clip-rule="evenodd"/><path fill="#F7FCFF" fill-rule="evenodd" d="m10.479 16.408-2.272 2.1-.237-2.985-2.898-1.587 3.022-.842.494-2.958 2.092 2.342 3.051-.727-1.577 2.775 1.534 2.677-3.209-.795Z" clip-rule="evenodd"/></g></g></g><defs><clipPath id="b"><rect width="36" height="24" x="3" y="2" fill="#fff" rx="2"/></clipPath><filter id="a" width="42" height="30" x="0" y="0" color-interpolation-filters="sRGB" filterUnits="userSpaceOnUse"><feFlood flood-opacity="0" result="BackgroundImageFix"/><feColorMatrix in="SourceAlpha" result="hardAlpha" values="0 0 0 0 0 0 0 0 0 0 0 0 0 0 0 0 0 0 127 0"/><feOffset dy="1"/><feGaussianBlur stdDeviation="1"/><feColorMatrix values="0 0 0 0 0.0627451 0 0 0 0 0.0941176 0 0 0 0 0.156863 0 0 0 0.06 0"/><feBlend in2="BackgroundImageFix" result="effect1_dropShadow_91_24735"/><feColorMatrix in="SourceAlpha" result="hardAlpha" values="0 0 0 0 0 0 0 0 0 0 0 0 0 0 0 0 0 0 127 0"/><feOffset dy="1"/><feGaussianBlur stdDeviation="1.5"/><feColorMatrix values="0 0 0 0 0.0627451 0 0 0 0 0.0941176 0 0 0 0 0.156863 0 0 0 0.1 0"/><feBlend in2="effect1_dropShadow_91_24735" result="effect2_dropShadow_91_24735"/><feBlend in="SourceGraphic" in2="effect2_dropShadow_91_24735" result="shape"/></filter></defs></svg>