<svg xmlns="http://www.w3.org/2000/svg" fill="none" aria-hidden="true" viewBox="0 0 42 30"><g filter="url(#a)"><g clip-path="url(#b)"><mask id="c" width="36" height="24" x="3" y="2" maskUnits="userSpaceOnUse" style="mask-type:alpha"><path fill="#fff" d="M3 2h36v24H3z"/></mask><g mask="url(#c)"><path fill="#29C470" fill-rule="evenodd" d="M3 2v24h36V2H3Z" clip-rule="evenodd"/><mask id="d" width="36" height="24" x="3" y="2" maskUnits="userSpaceOnUse" style="mask-type:alpha"><path fill="#fff" fill-rule="evenodd" d="M3 2v24h36V2H3Z" clip-rule="evenodd"/></mask><g mask="url(#d)"><path fill="#C51918" d="M5.25 1.677H16.5V28H5.25z"/><mask id="e" width="12" height="27" x="5" y="1" maskUnits="userSpaceOnUse" style="mask-type:alpha"><path fill="#fff" d="M5.25 1.677H16.5V28H5.25z"/></mask><g mask="url(#e)"><path fill="#E8AA00" fill-rule="evenodd" d="m5.92 2.906-.615.701-.055-.048.596-.681V2.74l.002-.013.07-.19-.043-.065-.351.312.677-.938v.32l.13.105.31-.483-.31-.465-.226.154.092.163-.063.039-.508-.755.324.196.057-.073-.31-.28.137-.135L5.38.045 5.439 0l.493.64-.128.125.303.274-.14.18-.092-.057.177.263.298-.204.38.567-.381.593-.221-.178v-.128l-.223.308L6 2.53l-.08.218v.158ZM5.305 8.63l.615-.701V7.77L6 7.553l-.095-.147.223-.308v.128l.221.178.381-.593-.38-.567-.298.204-.177-.263.092.056.14-.18-.303-.273.128-.125-.493-.64-.058.045.453.588-.137.134.31.28-.057.074-.324-.197.508.755.063-.038-.092-.163.225-.154.312.465-.31.483-.13-.104V6.87l-.678.938.351-.312.043.066-.07.19-.002.012v.137l-.596.68.055.05Zm.615 3.878-.615.702-.055-.049.596-.68v-.137l.002-.013.07-.19-.043-.066-.351.313.677-.938v.32l.13.104.31-.482-.31-.465-.226.154.092.162-.063.04-.508-.756.324.197.057-.074-.31-.28.137-.134-.453-.588.058-.045.493.64-.128.125.303.274-.14.179-.092-.056.177.263.298-.204.38.567-.381.592-.221-.177v-.128l-.223.307.094.147-.08.218v.158Zm-.615 5.355.615-.701v-.158l.08-.218-.095-.147.223-.308v.128l.221.178.381-.593-.38-.566-.298.203-.177-.263.092.057.14-.18-.303-.274.128-.125-.493-.64-.058.045.453.588-.137.134.31.28-.057.074-.324-.196.508.755.063-.039-.092-.163.225-.153.312.464-.31.483-.13-.104v-.32l-.678.937.351-.312.043.066-.07.19-.002.012v.137l-.596.68.055.05Zm0 4.137.615-.702v-.158l.08-.218-.095-.146.223-.308v.128l.221.177.381-.592-.38-.567-.298.204-.177-.263.092.056.14-.18-.303-.273.128-.126-.493-.64-.058.046.453.588-.137.134.31.28-.057.074-.324-.197.508.755.063-.038-.092-.163.225-.154.312.465-.31.483-.13-.105v-.32l-.678.938.351-.313.043.066-.07.19-.002.013v.136l-.596.681.055.049Zm11.14 0-.615-.702v-.158l-.08-.218.095-.146-.223-.308v.128l-.221.177-.381-.592.38-.567.298.204.177-.263-.092.056-.14-.18.303-.273-.128-.126.493-.64.058.046-.453.588.137.134-.31.28.057.074.324-.197-.508.755-.063-.038.092-.163-.225-.154-.312.465.31.483.13-.105v-.32l.678.938-.351-.313-.043.066.07.19.002.013v.136l.596.681-.055.049Zm-.615-4.838.615.701.055-.048-.596-.681v-.137l-.002-.012-.07-.19.043-.066.351.312-.677-.938v.32l-.13.105-.31-.483.31-.465.226.154-.091.163.062.039.508-.755-.324.196-.057-.073.31-.28-.137-.135.453-.588-.058-.045-.493.64.128.125-.303.274.14.18.092-.057-.177.263-.298-.203-.38.566.381.593.222-.178v-.128l.222.308-.094.147.08.218v.158Zm.615-3.952-.615-.702v-.158l-.08-.218.095-.146-.223-.308v.128l-.221.177-.381-.592.38-.567.298.204.177-.263-.092.056-.14-.18.303-.273-.128-.126.493-.64.058.046-.453.588.137.134-.31.28.057.074.324-.197-.508.755-.063-.039.092-.162-.225-.154-.312.465.31.483.13-.105v-.32l.678.938-.351-.313-.043.066.07.19.002.013v.136l.596.681-.055.049Zm-.615-5.281.615.701.055-.048-.596-.681v-.137l-.002-.013-.07-.19.043-.065.351.312-.677-.938v.32l-.13.105-.31-.483.31-.465.226.154-.091.163.062.038.508-.755-.324.197-.057-.073.31-.281-.137-.134.453-.588-.058-.045-.493.64.128.125-.303.274.14.18.092-.057-.177.263-.298-.204-.38.567.381.593.222-.178v-.128l.222.308-.094.147.08.218v.158Zm.615-4.322-.615-.701v-.158l-.08-.218.095-.147-.223-.308v.128l-.221.178-.381-.593.38-.567.298.204.177-.263-.092.056-.14-.18.303-.273-.128-.125.493-.64.058.045-.453.588.137.134-.31.28.057.074.324-.196-.508.755-.063-.04.092-.162-.225-.154-.312.465.31.483.13-.104v-.32l.678.937-.351-.312-.043.066.07.19.002.012v.137l.596.68-.055.05Z" clip-rule="evenodd"/><path fill="#389F5D" fill-rule="evenodd" d="M11.22 16.565h1.748v.364h.398v.292h.478v.948h-.478v.292h-.398v.291h-1.701l-.47.372-.474-.372H8.747v-.291h-.399v-.292H7.95v-.948h.398v-.291h.399v-.365h1.623l.426-.335.424.335Z" clip-rule="evenodd"/><path fill="#E8AA00" d="M12.968 16.565h.25v-.25h-.25v.25Zm-1.748 0-.155.196.068.054h.087v-.25Zm1.748.364h-.25v.25h.25v-.25Zm.398 0h.25v-.25h-.25v.25Zm0 .292h-.25v.25h.25v-.25Zm.478 0h.25v-.25h-.25v.25Zm0 .948v.25h.25v-.25h-.25Zm-.478 0v-.25h-.25v.25h.25Zm0 .292v.25h.25v-.25h-.25Zm-.398 0v-.25h-.25v.25h.25Zm0 .291v.25h.25v-.25h-.25Zm-1.701 0v-.25h-.087l-.068.054.155.196Zm-.47.372-.155.197.155.121.154-.122-.155-.196Zm-.474-.372.155-.196-.068-.054h-.087v.25Zm-1.576 0h-.25v.25h.25v-.25Zm0-.291h.25v-.25h-.25v.25Zm-.399 0h-.25v.25h.25v-.25Zm0-.292h.25v-.25h-.25v.25Zm-.398 0H7.7v.25h.25v-.25Zm0-.948v-.25H7.7v.25h.25Zm.398 0v.25h.25v-.25h-.25Zm0-.291v-.25h-.25v.25h.25Zm.399 0v.25h.25v-.25h-.25Zm0-.365v-.25h-.25v.25h.25Zm1.623 0v.25h.087l.068-.053-.155-.197Zm.426-.335.155-.196-.154-.122-.155.121.154.197Zm2.172.085H11.22v.5h1.748v-.5Zm.25.614v-.364h-.5v.364h.5Zm.148-.25h-.398v.5h.398v-.5Zm.25.542v-.291h-.5v.291h.5Zm.228-.25h-.478v.5h.478v-.5Zm.25 1.198v-.948h-.5v.948h.5Zm-.728.25h.478v-.5h-.478v.5Zm.25.042v-.292h-.5v.292h.5Zm-.648.25h.398v-.5h-.398v.5Zm.25.041v-.291h-.5v.291h.5Zm-1.951.25h1.7v-.5h-1.7v.5Zm-.316.318.47-.371-.31-.393-.47.372.31.392Zm-.782-.371.473.372.309-.393-.473-.372-.31.393Zm-1.422.053h1.576v-.5H8.747v.5Zm-.25-.541v.291h.5v-.291h-.5Zm-.149.25h.399v-.5h-.399v.5Zm-.25-.542v.292h.5v-.292h-.5Zm-.148.25h.398v-.5H7.95v.5Zm-.25-1.198v.948h.5v-.948h-.5Zm.648-.25H7.95v.5h.398v-.5Zm-.25-.041v.291h.5v-.291h-.5Zm.649-.25h-.399v.5h.399v-.5Zm-.25-.115v.364h.5v-.364h-.5Zm1.873-.25H8.747v.5h1.623v-.5Zm.155.447.426-.335-.31-.393-.425.334.309.394Zm.116-.336.424.335.31-.392-.424-.335-.31.392Z"/><path fill="#C51918" fill-rule="evenodd" d="M8.98 17.408v-.644h.844l-.844.644Zm3.552 0v-.644h-.844l.844.644ZM8.98 18.574v-.644l.844.645H8.98Zm3.552-.644v.645h-.844l.844-.645Z" clip-rule="evenodd"/><path fill="#E8AA00" fill-rule="evenodd" d="m10.476 16.819.291-.34.288.34h-.579Zm0 .317.291.339.288-.34h-.579Zm.291.802-.29.34h.578l-.287-.34Zm-.29.656.29.34.288-.34h-.579Z" clip-rule="evenodd"/><path fill="#AF0100" fill-rule="evenodd" d="M10.482 16.779v.146h-.167v.2h.167v.145h.584v-.145h.167v-.2h-.167v-.146h-.584Zm.584 1.604v-.146h-.584v.146h-.167v.2h.167v.146h.584v-.146h.167v-.2h-.167ZM9.36 17.55l.278-.341.274.34h-.551Zm0 .318.278.341.274-.34h-.551Zm2.588-.659-.277.34h.551l-.274-.34Zm-.277.66.277.34.274-.34h-.551Z" clip-rule="evenodd"/><path fill="#E8AA00" fill-rule="evenodd" d="M9.359 17.508v.149h-.16v.204h.16v.148h.556v-.148h.16v-.204h-.16v-.15h-.556Zm2.866.149v-.15h-.556v.15h-.16v.204h.16v.148h.556v-.148h.159v-.204h-.16Z" clip-rule="evenodd"/><mask id="f" width="7" height="4" x="8" y="19" maskUnits="userSpaceOnUse" style="mask-type:alpha"><path fill="#fff" fill-rule="evenodd" d="m9.994 19.251-1.993.999v1.655l1.993 1.04h2.159l2.04-1.04V20.25l-2.04-.999H9.994Z" clip-rule="evenodd"/></mask><g mask="url(#f)"><path fill="#E8AA00" d="M8.03 21.096h3.106v1.823H8.029v-1.823Z"/><path fill="#F9E8E7" d="M7.711 19.273h3.425v1.823H7.711z"/><path fill="#E8AA00" d="m8.507 20.335 1.031-.552v.552h-1.03Zm6.053-1.062h-3.425v1.823h3.425z"/><path fill="#F9E8E7" d="m13.525 20.335-1.031-.552v.552h1.03Zm.717 2.584h-3.106v-1.823h3.106z"/><path fill="#E8AA00" d="m13.445 21.857-1.03.552v-.552h1.03Z"/><path fill="#FCFCFC" d="m8.507 21.742 1.031.552v-.552h-1.03Z"/></g><path fill="#C51918" fill-rule="evenodd" d="M10.02 20.366h.518l.518-.145.518.145h.517v1.386h-.517l-.518.219-.518-.219h-.518v-1.386Z" clip-rule="evenodd"/><path fill="#C9343F" fill-rule="evenodd" d="M11.773 19.538h.28v.282h.116v.2h-.115v.107h-.281v-.59Zm-2.825.875h-.282v.59h.282v-.108h.115v-.2h-.115v-.282Zm.398 0h-.281v.59h.281v-.59Zm-.398.729h-.282v.59h.282v-.108h.115v-.2h-.115v-.282Zm.117 0h.281v.59h-.281v-.59Zm3.982-.73h.281v.283h.116v.2h-.116v.107h-.281v-.59Zm.68 0h-.282v.59h.281v-.59Zm-.399.73h-.281v.59h.281v-.108h.116v-.2h-.116v-.282Zm.117 0h.281v.59h-.28v-.59Zm-.993-1.604h-.281v.59h.281v-.59Zm-2.31 0h-.28v.59h.28v-.108h.116v-.2h-.115v-.282Zm.117 0h.282v.59h-.282v-.59Zm1.514 2.479h.28v.282h.116v.2h-.115v.108h-.281v-.59Zm.68 0h-.282v.59h.281v-.59Zm-2.31 0H9.86v.59h.281v-.108h.116v-.2h-.115v-.282Zm.116 0h.282v.59h-.282v-.59Z" clip-rule="evenodd"/><path fill="#fff" fill-rule="evenodd" d="M10.903 20.666h.08v-.198h-.398v.227h-.328v.325h.305v-.073h-.226v-.18h.271l.407.314-.407.313h-.27v-.179h.225v-.073h-.305v.325h.328v.227h.398v-.198h-.08v.125h-.239v-.176l.414-.318.414.318v.176h-.238v-.125h-.08v.198h.398v-.227h.328v-.325h-.305v.073h.225v.18h-.27l-.407-.314.407-.313h.27v.179h-.225v.073h.305v-.325h-.328v-.227h-.398v.198h.08v-.125h.238v.176l-.414.318-.414-.318v-.176h.239v.125Z" clip-rule="evenodd"/><g fill-rule="evenodd" clip-rule="evenodd"><path fill="#E8AA00" d="M11.532 6.8H10.13v4h1.402v-4Zm.965.846h.876V9.8h-.876V7.646Zm-4.12 0h.876V9.8h-.877V7.646Z"/><path fill="#389F5D" d="M10.13 7.108h-.877v3.077h.877V7.108Zm-1.753.846H7.5v1.462h.877V7.954Zm4.996 0h.877v1.462h-.877V7.954Zm-.964-.846h-.877v3.077h.877V7.108Z"/><path fill="#E1E5E8" d="M9.955 7.492c0 .128-.118.231-.263.231-.146 0-.263-.103-.263-.23 0-.128.117-.231.263-.231.145 0 .263.103.263.23Zm-1.754.77c0 .127-.117.23-.263.23-.145 0-.263-.103-.263-.23 0-.128.118-.231.263-.231.146 0 .263.103.263.23Zm0 .846c0 .127-.117.23-.263.23-.145 0-.263-.103-.263-.23 0-.128.118-.23.263-.23.146 0 .263.102.263.23Zm1.49.923c.146 0 .264-.103.264-.23 0-.128-.118-.232-.263-.232-.146 0-.263.104-.263.231 0 .128.117.23.263.23Zm4.12-1.539c.146 0 .264-.103.264-.23 0-.128-.118-.231-.263-.231-.146 0-.263.103-.263.23 0 .128.117.231.263.231Zm.264.616c0 .127-.118.23-.263.23-.146 0-.263-.103-.263-.23 0-.128.117-.23.263-.23.145 0 .263.102.263.23Zm-2.104.923c.145 0 .263-.103.263-.23 0-.128-.118-.232-.263-.232-.146 0-.263.104-.263.231 0 .128.117.23.263.23Zm.263-2.539c0 .128-.118.231-.263.231-.146 0-.263-.103-.263-.23 0-.128.117-.231.263-.231.145 0 .263.103.263.23Z"/><path fill="#C51918" d="M11.094 7.185c0 .127-.118.23-.263.23-.145 0-.263-.103-.263-.23 0-.128.118-.23.263-.23.145 0 .263.102.263.23Zm-2.016.846c0 .127-.118.23-.263.23-.146 0-.263-.103-.263-.23s.117-.23.263-.23c.145 0 .263.103.263.23Zm1.753 2.692c.145 0 .263-.103.263-.23 0-.128-.118-.231-.263-.231-.145 0-.263.103-.263.23 0 .128.118.231.263.231Zm2.367-2.692c0 .127-.118.23-.263.23-.145 0-.263-.103-.263-.23s.118-.23.263-.23c.145 0 .263.103.263.23ZM8.815 9.646c.145 0 .263-.103.263-.23 0-.128-.118-.231-.263-.231-.146 0-.263.103-.263.23 0 .128.117.231.263.231Zm4.383-.23c0 .127-.118.23-.263.23-.145 0-.263-.103-.263-.23 0-.128.118-.231.263-.231.145 0 .263.103.263.23Z"/><path fill="#C51918" d="m9.307 8.392.854-.685h1.385l.973.786h1.293V8.8h-1.258v.016l-1.008.911h-1.385l-.854-.822V8.8H7.851v-.307h1.456v-.101Z"/><path fill="#E8AA00" d="m10.867 8.26.02.017.415.373-.435.366-.435-.366.414-.373.02-.017Zm.493-.446.056-.05-.095-.08-.454.409-.455-.41-.094.08.056.051-.186.167-.129-.09-.355.306.54.456-.536.484.327.307h.139l.277.155.416-.342.415.342.277-.155h.14l.327-.307-.538-.484.541-.456-.355-.306-.128.09-.186-.167Zm-.397 1.364.334.275.224-.125h.12l.203-.19-.45-.405-.432.363.05.042-.05.04Zm.14-.882-.005.005.299.27.443-.375-.175-.15-.13.09-.247-.222-.324.266.015.014.125.102Zm-.283.841-.384.316-.224-.125h-.12l-.203-.19.45-.405.481.404Zm-.927-.94.444.373.433-.39-.324-.266-.247.222-.13-.09-.176.15Z"/></g><path fill="#E8AA00" fill-rule="evenodd" d="M8.004 23.442c-.235-.266-.393-.445-.435-.442-.132.009-.255 1.244 1.451 2.184 0 0 .252.124.399 0 .147-.125 0-.308 0-.308-.552-.46-1.067-1.042-1.415-1.434Zm5.742 0c.235-.266.393-.445.435-.442.132.009.255 1.244-1.451 2.184 0 0-.252.124-.399 0-.146-.125 0-.308 0-.308.552-.46 1.067-1.042 1.415-1.434Zm-.125 1.662c-.56.147-1.21.178-1.458.083a1.561 1.561 0 0 0-.252-.073 2.548 2.548 0 0 0-.773-.022l-.106.01-.007.002a.917.917 0 0 1-.045.004.28.28 0 0 0-.056.006.279.279 0 0 0-.055-.006.906.906 0 0 1-.045-.004l-.008-.001c-.02-.002-.08-.009-.105-.01a2.547 2.547 0 0 0-.773.021 1.563 1.563 0 0 0-.252.073c-.248.095-.898.064-1.458-.083 0 0 1.02.364 1.626.203.059-.023.12-.04.186-.054.172-.035.349-.038.561-.02a6.2 6.2 0 0 1-.314.123v.044a3.05 3.05 0 0 1 .637-.14c.12.013.399.054.637.14v-.044a7.127 7.127 0 0 1-.314-.123c.213-.018.39-.015.562.02.065.013.127.031.186.053.606.162 1.626-.202 1.626-.202Z" clip-rule="evenodd"/><path fill="#389F5D" fill-rule="evenodd" d="m9.485 11.977-1.409 1.104v1.05l1.231 1.1h2.515l1.386-1.173v-.895l-1.386-1.186H9.485Z" clip-rule="evenodd"/><path fill="#C51918" fill-rule="evenodd" d="M9.969 12.094H9.65v.219h.319v-.219Zm0 2.86H9.65v.219h.319v-.219Zm.478 0h.318v.219h-.318v-.219Zm.318-2.86h-.318v.219h.318v-.219Zm.478 2.86h.319v.219h-.319v-.219Zm.319-2.86h-.319v.219h.319v-.219Z" clip-rule="evenodd"/><path fill="#E8AA00" fill-rule="evenodd" d="M10.373 12.038h-.324v.218h.324v-.218Zm0 2.916h-.324v.219h.324v-.219Zm.487-2.916h.324v.218h-.324v-.218Zm.324 2.916h-.324v.219h.324v-.219Z" clip-rule="evenodd"/><path fill="#750100" fill-rule="evenodd" d="M8.528 11.842h4.252v.584h.61v2.415h-.61v.499H8.528v-.5h-.661v-2.414h.66v-.584Zm.239.803h-.661v1.977h.66v.5h3.775v-.5h.61v-1.977h-.61v-.585H8.767v.585Z" clip-rule="evenodd"/><path fill="#389F5D" fill-rule="evenodd" d="M10.208 11.6H9.81v.365h.398V11.6Zm.637 0h-.398v.365h.398V11.6Zm.24 0h.397v.365h-.398V11.6Zm-.877 3.646H9.81v.364h.398v-.364Zm.239 0h.398v.364h-.398v-.364Zm1.035 0h-.398v.364h.398v-.364Zm-3.988-.808v-.353h.41v.353h-.41Zm0-.937v.354h.41v-.354h-.41Zm0-.23v-.353h.41v.354h-.41Zm5.735.814v.353h.41v-.353h-.41Zm0-.23v-.354h.41v.354h-.41Zm0-.937v.354h.41v-.354h-.41Z" clip-rule="evenodd"/><path fill="#C51918" fill-rule="evenodd" d="m9.5 12.285-.686.53v1.719l.57.358h2.471l.57-.358v-1.718l-.643-.531H9.501Z" clip-rule="evenodd"/><path fill="#E1E5E8" fill-rule="evenodd" d="m10.654 12.997-.829.63h.829v-.63Z" clip-rule="evenodd"/><path fill="#E8AA00" d="m10.654 14.197-.829-.63h.829v.63Z"/><path fill="#E8AA00" fill-rule="evenodd" d="m10.581 12.997.83.63h-.83v-.63Z" clip-rule="evenodd"/><path fill="#29AE66" fill-rule="evenodd" d="M10.618 13.796c.139 0 .251-.1.251-.223s-.112-.223-.25-.223c-.14 0-.252.1-.252.223s.113.223.251.223Z" clip-rule="evenodd"/><path fill="#E1E5E8" d="m10.581 14.197.83-.63h-.83v.63Z"/><path fill="#C51918" fill-rule="evenodd" d="M8.854 13.35h-.717v.204h.717v-.204Zm0 .372h-.717v.204h.717v-.204Zm3.584-.372h.717v.204h-.717v-.204Zm.717.372h-.717v.204h.717v-.204Z" clip-rule="evenodd"/><path fill="#E8AA00" fill-rule="evenodd" d="M8.774 13.131h-.637v.223h.637v-.223Zm0 .372h-.637v.223h.637v-.223Zm-.637.372h.637v.223h-.637v-.223Zm4.938-.744h-.637v.223h.637v-.223Zm-.637.372h.637v.223h-.637v-.223Zm.637.372h-.637v.223h.637v-.223Z" clip-rule="evenodd"/><g fill-rule="evenodd" clip-rule="evenodd"><path fill="#E8AA00" d="m14.233 3.59-.002.405H10.9l-.002 1.84H9.856c-.183 0-.682-.31-.682-.31h-.848l-.39-.356v-.357l-.42-.443.002-.405h3.328l.003-1.84h1.043c.183 0 .682.31.682.31h.848l.391.356v.357l.42.443Z"/><path fill="#E1E5E8" d="m7.515 3.59.002.406h3.33l.002 1.84h1.043c.183 0 .682-.311.682-.311h.848l.391-.356v-.357l.42-.443-.003-.405h-3.328l-.003-1.84H9.856c-.183 0-.682.311-.682.311h-.848l-.391.355v.357l-.42.444Z"/><path fill="#C51918" d="m9.753 2.685-.037-.156.718-.147c.086-.037.236-.142.442-.314l.097.097.016-.017c.206.172.356.277.442.314l.718.147-.036.156-.399-.073.038.03a.49.49 0 0 0-.089.064l-.168-.022.016-.05-.042-.007a1.491 1.491 0 0 0-.104.222l-.169-.044.069-.29-.38-.317-.267.222c.033.027.066.057.1.092-.029.01-.056.018-.082.025l-.01.003.043.185-.169.044a2.09 2.09 0 0 0-.063-.145l-.013.002a.49.49 0 0 0-.09-.064l.048-.037a.37.37 0 0 0-.022-.031l-.607.111Zm.029.573.096-.134-.496-.295.055-.069-.141-.094-.061.075-.197-.117-.096.134.19.112-.04.049.142.094.044-.055.504.3Zm-.614.16.096-.134-.496-.295.055-.069-.14-.094-.062.075-.196-.117-.096.134.188.112-.038.049.14.094.045-.055.504.3Zm-.263.48.096-.134-.496-.295.055-.069-.14-.094-.062.075-.196-.117-.096.134.188.112-.038.049.14.094.045-.055.504.3Zm.009.384-.096-.134-.504.3-.045-.055-.141.095.039.048-.189.113.096.134.197-.118.06.076.142-.095-.055-.068.496-.296Zm.167.346.096.134-.496.296.055.068-.141.095-.061-.075-.197.117-.096-.134.189-.113-.04-.048.142-.095.045.056.504-.3Zm.613.16.096.134-.496.296.056.068-.142.095-.06-.076-.197.118-.096-.134.188-.113-.038-.048.14-.095.045.056.504-.3Zm.936.765a1.748 1.748 0 0 0-.081-.025l-.034-.007.066-.279-.168-.044a1.15 1.15 0 0 1-.14.275l-.608-.112-.037.157.692.141.1.06.014-.007c.087.054.206.143.354.266l.057-.056.056.056c.207-.171.356-.276.442-.313l.024-.005a.66.66 0 0 0 .09.059l.1-.06-.01-.03.012-.008.502-.103-.036-.157-.607.112a1.15 1.15 0 0 1-.141-.275l-.168.044.068.29-.332.277-.257-.214a1.25 1.25 0 0 0 .042-.042Zm2.146-1.27.096-.135.504.3.044-.055.142.095-.04.048.19.113-.096.134-.197-.118-.06.076-.142-.095.055-.068-.496-.296Zm-.263.48.096-.135.504.3.045-.055.14.095-.038.048.189.113-.096.134-.197-.117-.06.075-.142-.095.055-.068-.496-.296Zm-.614.16.096-.135.504.3.045-.055.141.095-.039.048.189.113-.096.134-.197-.118-.06.076-.142-.095.055-.068-.496-.296Zm.965-1.079.095.134.505-.3.044.055.142-.094-.04-.049.19-.112-.097-.134-.196.117-.061-.075-.141.094.055.069-.496.295Zm-.263-.48.096.134.504-.3.044.055.141-.094-.038-.049.188-.112-.096-.134-.196.117-.061-.075L13.04 3l.056.069-.496.295Zm-.614-.16.096.134.504-.3.045.055.14-.094-.038-.049.189-.112-.096-.134-.197.117-.06-.075-.142.094.055.069-.496.295Z"/><path fill="#C51918" d="m9.983 3.153.993-.468v1.28h2.455l-.585.374v.49h-.926l-.993.468v-1.28H8.473l.585-.374v-.49h.925Z"/><path fill="#29AE66" d="m11.92 3.153-.993-.468v1.28H8.473l.585.374v.49h.925l.993.468v-1.28h2.455l-.585-.374v-.49h-.926Z"/><path fill="#29AE66" d="m9.501 3.484.162-.283.412.196.114-.15.288.181-.088.118 1.22.58.075-.1.288.182-.05.067.131.062-.162.284-.17-.081-.138.183-.289-.182.114-.15-1.22-.58-.1.132-.289-.181.075-.1-.373-.178Z"/><path fill="#C51918" d="m12.1 3.407-.183-.273-.396.22-.125-.142-.273.199.097.112-1.171.654-.083-.095-.274.2.056.063-.126.07.183.274.164-.092.152.174.274-.2-.125-.142 1.171-.654.11.126.274-.2-.083-.094.359-.2Z"/></g></g><g fill="#F7FCFF" fill-rule="evenodd" clip-rule="evenodd"><path d="M24.457 4s2.622 5.522.293 7.867c-2.33 2.344-8.25 1.892-8.25 1.892s7.601 3.052 10.913-1.15C30.724 8.407 24.457 4 24.457 4Z"/><path d="m19.7 7.249-.694.434.245-.728-.674-.459.845-.015.278-.718.277.718.845.015-.673.46.244.727-.693-.434Zm.134 2.005-.694.434.245-.727-.673-.46.845-.015.277-.718.277.718.845.016-.673.459.244.727-.693-.434Zm-2.802.589.693-.434.694.434-.245-.727.674-.46-.845-.015-.278-.718-.277.718-.845.016.673.459-.244.727Zm2.802 1.514-.694.434.245-.727-.673-.459.845-.015.277-.718.277.718.845.015-.673.46.244.726-.693-.434Zm1.599-2.282.693-.434.694.434-.245-.727.674-.46-.845-.015-.278-.717-.277.717-.845.016.673.459-.244.727Z"/></g></g></g></g></g><defs><clipPath id="b"><rect width="36" height="24" x="3" y="2" fill="#fff" rx="2"/></clipPath><filter id="a" width="42" height="30" x="0" y="0" color-interpolation-filters="sRGB" filterUnits="userSpaceOnUse"><feFlood flood-opacity="0" result="BackgroundImageFix"/><feColorMatrix in="SourceAlpha" result="hardAlpha" values="0 0 0 0 0 0 0 0 0 0 0 0 0 0 0 0 0 0 127 0"/><feOffset dy="1"/><feGaussianBlur stdDeviation="1"/><feColorMatrix values="0 0 0 0 0.0627451 0 0 0 0 0.0941176 0 0 0 0 0.156863 0 0 0 0.06 0"/><feBlend in2="BackgroundImageFix" result="effect1_dropShadow_91_24468"/><feColorMatrix in="SourceAlpha" result="hardAlpha" values="0 0 0 0 0 0 0 0 0 0 0 0 0 0 0 0 0 0 127 0"/><feOffset dy="1"/><feGaussianBlur stdDeviation="1.5"/><feColorMatrix values="0 0 0 0 0.0627451 0 0 0 0 0.0941176 0 0 0 0 0.156863 0 0 0 0.1 0"/><feBlend in2="effect1_dropShadow_91_24468" result="effect2_dropShadow_91_24468"/><feBlend in="SourceGraphic" in2="effect2_dropShadow_91_24468" result="shape"/></filter></defs></svg>