<svg xmlns="http://www.w3.org/2000/svg" fill="none" aria-hidden="true" viewBox="0 0 42 30"><g id="Country=TZ - Tanzania, Size=sm (36x24)" filter="url(#filter0_dd_91_24379)"><g clip-path="url(#clip0_91_24379)"><g id="flag"><mask id="mask0_91_24379" width="36" height="24" x="3" y="2" maskUnits="userSpaceOnUse" style="mask-type:alpha"><rect id="mask" width="36" height="24" x="3" y="2" fill="white"/></mask><g mask="url(#mask0_91_24379)"><g id="contents"><path id="background" fill="#3195F9" fill-rule="evenodd" d="M3 2V26H39V2H3Z" clip-rule="evenodd"/><mask id="mask1_91_24379" width="36" height="24" x="3" y="2" maskUnits="userSpaceOnUse" style="mask-type:alpha"><path id="background_2" fill="white" fill-rule="evenodd" d="M3 2V26H39V2H3Z" clip-rule="evenodd"/></mask><g mask="url(#mask1_91_24379)"><path id="left" fill="#73BE4A" fill-rule="evenodd" d="M3 2V26L39 2H3Z" clip-rule="evenodd"/><path id="Path 14" fill="#272727" stroke="#FFD018" stroke-width="2.5" d="M1.12077 27.4959L1.79397 28.3924L2.75816 27.8203L43.5517 3.61682L44.7503 2.90567L43.9134 1.79121L41.4152 -1.53574L40.742 -2.43225L39.7778 -1.86018L-1.01576 22.3433L-2.21436 23.0544L-1.37749 24.1689L1.12077 27.4959Z"/></g></g></g></g></g></g><defs><filter id="filter0_dd_91_24379" width="42" height="30" x="0" y="0" color-interpolation-filters="sRGB" filterUnits="userSpaceOnUse"><feFlood flood-opacity="0" result="BackgroundImageFix"/><feColorMatrix in="SourceAlpha" result="hardAlpha" values="0 0 0 0 0 0 0 0 0 0 0 0 0 0 0 0 0 0 127 0"/><feOffset dy="1"/><feGaussianBlur stdDeviation="1"/><feColorMatrix values="0 0 0 0 0.0627451 0 0 0 0 0.0941176 0 0 0 0 0.156863 0 0 0 0.06 0"/><feBlend in2="BackgroundImageFix" result="effect1_dropShadow_91_24379"/><feColorMatrix in="SourceAlpha" result="hardAlpha" values="0 0 0 0 0 0 0 0 0 0 0 0 0 0 0 0 0 0 127 0"/><feOffset dy="1"/><feGaussianBlur stdDeviation="1.5"/><feColorMatrix values="0 0 0 0 0.0627451 0 0 0 0 0.0941176 0 0 0 0 0.156863 0 0 0 0.1 0"/><feBlend in2="effect1_dropShadow_91_24379" result="effect2_dropShadow_91_24379"/><feBlend in="SourceGraphic" in2="effect2_dropShadow_91_24379" result="shape"/></filter><clipPath id="clip0_91_24379"><rect width="36" height="24" x="3" y="2" fill="white" rx="2"/></clipPath></defs></svg>