<svg xmlns="http://www.w3.org/2000/svg" fill="none" aria-hidden="true" viewBox="0 0 42 30"><g filter="url(#a)"><g clip-path="url(#b)"><mask id="c" width="36" height="24" x="3" y="2" maskUnits="userSpaceOnUse" style="mask-type:alpha"><path fill="#fff" d="M3 2h36v24H3z"/></mask><g mask="url(#c)"><path fill="#F7FCFF" fill-rule="evenodd" d="M3 2v24h36V2H3Z" clip-rule="evenodd"/><mask id="d" width="36" height="24" x="3" y="2" maskUnits="userSpaceOnUse" style="mask-type:alpha"><path fill="#fff" fill-rule="evenodd" d="M3 2v24h36V2H3Z" clip-rule="evenodd"/></mask><g mask="url(#d)"><path fill="#2E42A5" d="M3 4h36v3H3zm0 6h36v3H3zm0 6h36v3H3zm0 5h36v3H3z"/><path fill="#F7FCFF" d="M3 2h15.75v14H3z"/><path fill="#FFC125" fill-rule="evenodd" d="M8.38 4.582c-.082-.005-.154.05-.16.123-.032.353.318.674.512.852l.019.017c.03.029.062.056.101.09l.117.101c.168.148.204.287.245.442l.01.038c.018.066.036.146.056.233.089.388.212.929.482 1.105.066.043.53-.214.58-.272.017-.02.069-.055.125-.093.105-.068.226-.148.183-.176-.283-.185-.498-.632-.777-1.277-.149-.303-.539-.496-.863-.656-.276-.136-.504-.249-.492-.386.006-.073-.055-.136-.138-.14Zm4.553.1c-.04-.064-.13-.088-.203-.053-.35.169-.462.605-.525.846l-.006.024-.03.124-.031.142c-.048.206-.159.308-.283.423l-.03.029a8.019 8.019 0 0 1-.19.168c-.318.277-.76.664-.78.961-.005.073.49.279.572.284.03.002.09.022.156.044.122.04.263.086.266.04.02-.312.326-.716.781-1.275.205-.276.175-.672.15-1-.022-.28-.04-.512.096-.578.072-.035.098-.115.057-.18Zm2.91 2.349c.08.018.127.09.108.162-.02.071-.1.114-.18.096-.15-.034-.314.146-.514.364-.233.256-.514.564-.876.641-.763.133-1.295.243-1.55.459-.037.032-.105-.088-.163-.19-.032-.057-.06-.108-.08-.127-.057-.054-.26-.504-.201-.554.242-.206.862-.22 1.307-.23.1-.003.192-.005.268-.01l.044-.001c.18-.01.339-.017.532-.139l.132-.084a4.74 4.74 0 0 1 .117-.073l.023-.014c.23-.138.647-.389 1.033-.3Zm-10.23.443a.124.124 0 0 0-.016.188c.259.269.762.276 1.04.28h.17l.163-.001c.237-.002.373.073.525.158l.038.02c.065.036.14.08.225.13.37.218.888.523 1.22.478.08-.011.204-.484.192-.556-.004-.026.006-.083.016-.145.019-.114.04-.247-.012-.24-.347.047-.854-.134-1.564-.414-.347-.12-.776-.012-1.132.078-.304.078-.555.141-.656.037a.16.16 0 0 0-.21-.013Z" clip-rule="evenodd"/><path fill="#984111" d="m8.22 4.705.074.006-.075-.006Zm.512.852.05-.055-.05.055Zm.019.017.05-.055-.05.055Zm.1.09-.048.057.098-.113-.05.056Zm.118.101.05-.056-.05.056Zm.245.442-.072.02.072-.02Zm.01.038-.072.02.072-.02Zm.056.233.073-.016-.073.016Zm0 0-.073.017.073-.017Zm0 0 .073-.016-.073.016Zm.482 1.105.041-.063-.04.063Zm.58-.272.056.048-.057-.048Zm.125-.093-.041-.062.041.062Zm.183-.176-.041.062.04-.062Zm-.777-1.277.07-.03-.002-.003-.068.033ZM9.01 5.11l-.033.068.033-.068Zm-.492-.386.075.006-.075-.006Zm4.212-.094.033.067-.033-.067Zm.203.053-.063.04.063-.04Zm-.728.793.073.019-.073-.02Zm-.006.024.073.018-.073-.018Zm-.03.124-.073-.016.146.032-.073-.016Zm-.031.142.073.017-.073-.017Zm-.283.423-.051-.055.05.055Zm-.031.029-.051-.055.051.055Zm-.19.168-.049-.056.05.056Zm-.779.961.075.005-.075-.005Zm.572.284-.005.075.005-.075Zm.156.044.024-.072-.024.072Zm.266.04.075.004-.075-.005Zm.781-1.275.058.048.002-.003-.06-.045Zm.15-1 .074-.006-.075.006Zm.096-.578.033.068-.033-.068Zm3.075 2.332-.073-.02.073.02Zm-.108-.162.017-.073-.017.073Zm-.072.258.017-.073-.017.073Zm-.514.364-.055-.05.055.05Zm-.876.641.012.074h.003l-.015-.074Zm-1.55.459.05.057-.05-.057Zm-.163-.19-.066.036.066-.037Zm-.08-.127.05-.055-.05.055Zm-.202-.554-.048-.058.048.058Zm1.308-.23.002.074-.002-.075Zm0 0-.002-.076.002.075Zm.268-.01-.004-.074.004.075Zm.044-.001-.004-.075.004.075Zm.532-.139.04.064-.04-.064Zm.132-.084-.04-.063.08.126-.04-.063Zm.117-.073.039.064-.039-.064Zm.023-.014.039.065-.04-.065Zm-9.213.33.054-.051-.054.052Zm.016-.187.046.06-.046-.06Zm1.024.468-.001.075v-.075Zm.027 0 .001-.075v.075Zm.143 0 .001.075-.001-.15v.075Zm.163-.001v.075-.075Zm.525.158-.036.065.036-.065Zm.038.02.036-.066-.036.066Zm.224.13.039-.065-.039.065Zm1.22.478.01.074-.01-.074Zm.193-.556-.074.011.074-.011Zm.016-.145-.074-.012.074.012Zm-.012-.24-.01-.074.01.074ZM7.61 7.372l.027-.07h-.002l-.025.07Zm-1.132.078.018.073-.018-.073Zm-.656.037.054-.052-.054.052ZM8.294 4.71c.002-.024.031-.057.082-.054l.008-.15c-.114-.006-.229.07-.24.191l.15.013Zm.488.79a2.504 2.504 0 0 1-.33-.349c-.104-.14-.171-.29-.158-.44l-.15-.014c-.017.204.075.39.187.543.113.153.254.283.35.371l.101-.11Zm.02.018-.02-.017-.101.11.02.018.1-.11Zm.1.089a4.47 4.47 0 0 1-.1-.089l-.102.11c.031.03.063.058.103.092l.098-.113Zm.116.101a16.032 16.032 0 0 0-.102-.089l-.011-.009-.003-.002v-.001H8.9s-.106.007-.098.113l.098-.113c.008.106-.098.113-.098.113l.001.001.003.003.01.009a123.135 123.135 0 0 1 .102.088l.1-.113Zm.269.479c-.042-.158-.083-.315-.269-.479l-.099.113c.15.132.182.251.223.404l.145-.038Zm.01.038-.01-.038-.145.038.01.039.145-.039Zm.056.236c-.02-.087-.038-.169-.056-.236l-.145.039c.017.064.035.142.055.23l.146-.033Zm0 0-.146.033.146-.033Zm0 0-.146.033.146-.033Zm.45 1.058c-.113-.074-.205-.232-.28-.436a5.194 5.194 0 0 1-.17-.622l-.146.033c.044.193.098.43.176.64.076.208.181.408.338.51l.082-.125Zm.481-.258s-.005.006-.023.018a2.557 2.557 0 0 1-.413.216.343.343 0 0 1-.056.016h-.008l.006.002a.05.05 0 0 1 .013.006l-.082.126a.11.11 0 0 0 .053.016.19.19 0 0 0 .042-.002.483.483 0 0 0 .083-.022 2.69 2.69 0 0 0 .45-.235.286.286 0 0 0 .05-.044l-.115-.097Zm.142-.106a2.876 2.876 0 0 0-.08.054.357.357 0 0 0-.062.052l.114.097.01-.008a.495.495 0 0 1 .025-.019l.076-.051-.083-.125Zm.183-.052a.058.058 0 0 1-.025-.04c-.002-.018.004-.029.005-.03 0 0-.005.008-.024.023a1.644 1.644 0 0 1-.139.099l.083.125c.05-.034.111-.073.153-.109a.252.252 0 0 0 .058-.064.103.103 0 0 0 .013-.062.092.092 0 0 0-.042-.067l-.082.125Zm-.805-1.309c.14.322.265.599.391.818.126.22.258.39.414.491l.082-.125c-.127-.083-.244-.228-.366-.44a8.316 8.316 0 0 1-.383-.803l-.138.06Zm-.827-.618c.163.08.337.166.488.269a.97.97 0 0 1 .341.353l.135-.067a1.114 1.114 0 0 0-.392-.41c-.161-.11-.344-.2-.505-.28l-.067.135Zm-.534-.46a.217.217 0 0 0 .048.15c.03.041.074.078.122.11.096.067.228.132.364.2l.067-.135c-.14-.07-.26-.129-.345-.187a.383.383 0 0 1-.088-.078c-.017-.022-.02-.037-.018-.048l-.15-.013Zm-.067-.06c.05.003.069.038.067.06l.15.012c.01-.123-.093-.215-.209-.222l-.008.15Zm4.387.04c.04-.02.089-.004.107.025l.127-.08a.236.236 0 0 0-.3-.08l.066.134Zm-.485.796c.031-.12.073-.283.149-.435a.756.756 0 0 1 .336-.362l-.066-.135a.905.905 0 0 0-.404.43 2.28 2.28 0 0 0-.16.465l.145.037Zm-.006.024.006-.023-.145-.038-.006.024.145.037Zm-.03.122.03-.122-.145-.037c-.01.039-.02.078-.03.126l.146.033Zm-.031.143a9.862 9.862 0 0 0 .03-.138l.001-.004s-.056-.09-.146-.033l.147.032c-.09.057-.147-.032-.147-.032v.005a2.248 2.248 0 0 0-.013.054 8.061 8.061 0 0 1-.018.082l.146.034Zm-.306.461c.125-.115.252-.231.306-.461l-.146-.034c-.043.182-.137.27-.261.385l.101.11Zm-.03.029.03-.029-.101-.11-.031.029.102.11Zm-.191.17c.071-.062.138-.12.191-.17l-.102-.11a8.032 8.032 0 0 1-.188.167l.099.113Zm-.754.91a.472.472 0 0 1 .075-.204c.045-.076.11-.157.184-.24a6.07 6.07 0 0 1 .495-.466l-.099-.113a6.217 6.217 0 0 0-.507.479 1.707 1.707 0 0 0-.202.263.619.619 0 0 0-.096.27l.15.01Zm.502.203-.009-.002a2.678 2.678 0 0 1-.284-.108 1.544 1.544 0 0 1-.168-.088.298.298 0 0 1-.044-.032l-.003-.003a.05.05 0 0 1 .006.03l-.15-.01a.101.101 0 0 0 .016.059.167.167 0 0 0 .027.033.444.444 0 0 0 .068.05c.05.032.118.067.186.098a2.783 2.783 0 0 0 .28.11.322.322 0 0 0 .065.013l.01-.15Zm.175.047-.095-.03a.4.4 0 0 0-.08-.017l-.01.15c.005 0 .02.003.048.011l.09.029.046-.143Zm.167.106a.058.058 0 0 1 .024-.042c.01-.008.02-.008.018-.008-.004 0-.016 0-.04-.005a1.81 1.81 0 0 1-.17-.05l-.046.142c.059.02.13.043.185.055a.29.29 0 0 0 .086.007.113.113 0 0 0 .055-.02.092.092 0 0 0 .038-.069l-.15-.01Zm.798-1.316c-.227.28-.42.523-.559.736-.137.212-.227.405-.239.58l.15.01c.009-.135.081-.3.215-.508.134-.206.321-.444.55-.723l-.117-.095Zm.133-.947c.012.165.026.34.011.507a.848.848 0 0 1-.146.443l.12.09a.996.996 0 0 0 .176-.52c.015-.182 0-.369-.012-.532l-.15.012Zm.138-.652c-.105.052-.139.162-.15.27-.01.108.001.244.012.382l.15-.012c-.012-.143-.02-.263-.012-.356.01-.096.035-.134.066-.148l-.066-.136Zm.027-.071c.014.022.01.054-.027.071l.066.136c.108-.053.154-.181.088-.287l-.127.08Zm3.153 2.49c.033-.119-.05-.228-.163-.254l-.034.146c.045.01.059.045.052.069l.145.04Zm-.268.15c.112.026.236-.033.268-.15l-.145-.04c-.007.027-.043.054-.09.044l-.034.146Zm-.442.342c.1-.111.188-.206.267-.27.081-.065.135-.08.175-.072l.033-.146c-.11-.026-.214.031-.302.102-.09.072-.186.177-.284.284l.11.102Zm-.917.664c.197-.043.369-.147.519-.27.15-.122.282-.267.398-.394l-.111-.102a3.775 3.775 0 0 1-.382.38 1.09 1.09 0 0 1-.455.24l.031.146Zm-1.516.442c.114-.097.297-.175.555-.245.257-.07.577-.13.958-.197l-.025-.147c-.381.066-.708.127-.972.199-.263.072-.473.157-.613.275l.097.115Zm-.278-.211c.029.05.063.11.095.154a.244.244 0 0 0 .06.06.112.112 0 0 0 .054.02.096.096 0 0 0 .07-.023l-.098-.115a.054.054 0 0 1 .052-.009.023.023 0 0 1 .004.002s-.002 0-.006-.006a1.415 1.415 0 0 1-.1-.157l-.13.074Zm-.067-.109.002.002a.45.45 0 0 1 .022.032l.043.075.131-.074-.046-.08a.332.332 0 0 0-.048-.064l-.104.109Zm-.197-.666c-.035.03-.037.074-.037.094a.38.38 0 0 0 .01.08 2.198 2.198 0 0 0 .184.44.274.274 0 0 0 .04.052l.104-.109a.93.93 0 0 1-.049-.082 2.07 2.07 0 0 1-.077-.17 1.198 1.198 0 0 1-.055-.164.23.23 0 0 1-.007-.047c0-.015.004.004-.016.02l-.097-.114Zm1.354-.248a7.397 7.397 0 0 0-.737.043 2.102 2.102 0 0 0-.347.07.762.762 0 0 0-.27.135l.097.115a.618.618 0 0 1 .217-.107c.094-.029.204-.05.322-.064a7.25 7.25 0 0 1 .722-.042l-.004-.15Zm0 0 .005.15-.006-.15Zm.266-.008a9.436 9.436 0 0 1-.266.008l.004.15c.1-.002.192-.004.27-.008l-.008-.15Zm.044-.002-.044.002.008.15.044-.002-.008-.15Zm.496-.127c-.175.11-.318.118-.496.127l.007.15c.18-.01.358-.017.569-.15l-.08-.127Zm.212.042c-.103-.023-.08-.126-.08-.126h-.002l-.003.003-.012.007a34.108 34.108 0 0 1-.115.074l.08.127.077-.05.039-.024.012-.008.003-.002h.001V7.48s.023-.104-.08-.126l.08.126Zm.039-.2a4.825 4.825 0 0 0-.12.074l.081.126.116-.072-.077-.128Zm.022-.014-.022.014.077.128.023-.013-.078-.129Zm1.088-.31a1.079 1.079 0 0 0-.618.069c-.188.071-.355.172-.47.241l.078.129c.115-.07.272-.164.446-.23s.359-.102.531-.062l.034-.146ZM5.652 7.61c-.021-.022-.02-.055.008-.077l-.092-.118a.199.199 0 0 0-.024.299l.108-.104Zm.987.257a3.054 3.054 0 0 1-.515-.04c-.187-.034-.359-.1-.472-.217l-.108.104c.145.15.354.224.553.261.2.037.401.04.54.042l.002-.15Zm.027 0h-.027l-.002.15h.027l.002-.15Zm.142 0h-.142l-.002.15h.145l-.001-.15Zm.163-.001h-.095l-.048.001h-.02s-.075.076.001.15l-.001-.15c.075.075.001.15.001.15h.068l.095-.001-.001-.15Zm.561.167c-.154-.085-.304-.169-.561-.167v.15c.217-.001.338.065.489.148l.072-.131Zm.038.02-.038-.02-.072.131.038.021.072-.132Zm.227.131c-.084-.049-.161-.094-.227-.13l-.072.131c.063.035.138.08.222.129l.077-.13Zm1.171.469c-.143.019-.338-.037-.554-.135a6.645 6.645 0 0 1-.617-.334l-.077.13c.185.108.41.241.632.341.219.098.448.172.636.146l-.02-.148Zm.13-.47c-.001-.003 0 .003-.003.023a1.998 1.998 0 0 1-.057.244c-.02.062-.04.12-.061.163a.254.254 0 0 1-.026.043c-.01.012-.004 0 .017-.003l.02.148a.129.129 0 0 0 .081-.052.396.396 0 0 0 .043-.07c.025-.053.049-.12.07-.185a2.142 2.142 0 0 0 .062-.27.25.25 0 0 0 .001-.065l-.148.023Zm.015-.17-.014.09a.306.306 0 0 0-.002.08l.148-.024v-.01l.003-.028a2.22 2.22 0 0 1 .013-.083l-.148-.024Zm.072-.152a.053.053 0 0 1-.037-.01.045.045 0 0 1-.016-.02v.028a1.31 1.31 0 0 1-.02.155l.149.024c.009-.055.02-.122.022-.175 0-.025 0-.057-.011-.085a.106.106 0 0 0-.037-.049.097.097 0 0 0-.07-.017l.02.149Zm-1.602-.42c.355.14.663.257.925.333.262.075.488.112.677.087l-.02-.149c-.157.021-.359-.009-.615-.082a10.685 10.685 0 0 1-.912-.328l-.055.14Zm-1.086.082c.18-.045.37-.094.56-.117.19-.022.371-.018.53.037l.049-.142a1.333 1.333 0 0 0-.596-.043c-.201.024-.402.075-.58.12l.037.145Zm-.728.016c.077.08.2.085.314.072.12-.013.264-.05.414-.088l-.037-.145a3.194 3.194 0 0 1-.394.084c-.112.013-.166-.003-.189-.027l-.108.104Zm-.11-.006a.085.085 0 0 1 .11.006l.108-.104a.235.235 0 0 0-.31-.02l.093.118Z"/><path fill="#FFC125" fill-rule="evenodd" d="M8.35 13.245c-.083.005-.155-.05-.161-.122-.03-.353.319-.675.512-.852l.02-.018.1-.09.117-.1c.168-.149.205-.287.246-.443l.01-.038a5.96 5.96 0 0 0 .056-.233c.088-.387.212-.928.482-1.104.066-.043.53.213.579.272a.9.9 0 0 0 .126.092c.104.07.225.15.183.177-.283.185-.498.632-.777 1.276-.149.304-.54.496-.863.656-.276.137-.504.25-.492.387.006.072-.056.135-.138.14Zm4.553-.1a.161.161 0 0 1-.203.054c-.35-.17-.463-.605-.525-.846l-.006-.024a3.67 3.67 0 0 1-.03-.124l-.032-.142c-.048-.206-.158-.309-.283-.424l-.03-.028c-.053-.05-.12-.107-.192-.17-.322-.282-.777-.679-.777-.96 0-.127.49-.278.572-.283a.919.919 0 0 0 .156-.044c.121-.04.263-.087.266-.04.02.312.325.715.781 1.274.205.277.175.672.15 1-.023.281-.04.513.096.579.072.034.097.115.057.179Zm2.91-2.348c.079-.018.127-.09.107-.162-.02-.071-.1-.114-.18-.096-.149.034-.313-.146-.513-.364-.233-.256-.515-.564-.877-.642-.762-.132-1.295-.243-1.548-.458-.039-.033-.106.087-.165.19a.724.724 0 0 1-.08.127c-.056.054-.26.504-.2.554.241.206.862.22 1.307.23.1.003.191.005.267.009l.045.002c.179.009.338.017.531.138l.133.085.117.073.023.013c.23.139.647.39 1.033.301Zm-10.23-.443a.124.124 0 0 1-.017-.188c.26-.27.762-.276 1.04-.28h.171l.163.001c.236.001.372-.074.525-.158l.037-.02c.065-.036.142-.081.225-.13.371-.219.889-.523 1.22-.478.08.01.204.483.193.556a.658.658 0 0 0 .016.145c.018.114.04.247-.012.24-.347-.048-.855.134-1.564.414-.347.12-.776.012-1.132-.079-.305-.077-.556-.14-.656-.036a.16.16 0 0 1-.21.013Z" clip-rule="evenodd"/><path fill="#984111" d="m8.189 13.123.075-.007-.075.007Zm.512-.852.051.055-.05-.055Zm.02-.018.05.055-.05-.055Zm.1-.09-.048-.056.098.113-.05-.057Zm.117-.1.05.055-.05-.056Zm.246-.443-.073-.019.073.02Zm.01-.038-.073-.019.073.02Zm.056-.233.073.017-.073-.017Zm0 0-.073-.016.073.016Zm0 0 .073.017-.073-.017Zm.482-1.104.04.063-.04-.063Zm.579.272.057-.049-.057.049Zm.126.092-.041.063.041-.063Zm.183.177-.041-.063.04.063Zm-.777 1.276.069.03-.002.003-.067-.033Zm-.863.656-.033-.067.033.067Zm-.492.387.074-.007-.074.007Zm4.212.094.032-.068-.032.068Zm.203-.053-.064-.04.064.04Zm-.728-.793.073-.019-.073.019Zm-.006-.024.072-.019-.072.02Zm-.03-.124-.073.016.146-.033-.073.017Zm-.032-.142.073-.017-.073.017Zm-.283-.424-.05.055.05-.055Zm-.03-.028-.051.055.05-.055Zm-.192-.17-.05.056.05-.057Zm0 0 .048-.058h.001l-.049.057Zm0 0-.048.057-.001-.001.049-.057Zm-.205-1.243-.005-.075.005.075Zm.156-.044.023.071-.023-.071Zm.266-.04.075-.005-.075.005Zm.781 1.274.058-.047.002.003-.06.044Zm.15 1 .074.007-.075-.006Zm.096.579.032-.068-.032.068Zm3.074-2.332-.072.02.072-.02Zm-.107.162.016.073-.017-.073Zm-.072-.258.017.073-.017-.073Zm-.514-.364-.055.05.055-.05Zm-.877-.642.013-.074h.003l-.016.074Zm-1.548-.458.048-.057-.048.057Zm-.165.19-.065-.036.065.036Zm-.08.127.052.054-.052-.054Zm-.2.554-.05.057.05-.057Zm1.307.23.001-.075h.001l-.002.075Zm0 0-.002.075h-.001l.003-.075Zm.267.009-.003.075.003-.075Zm.045.002-.004.075.004-.075Zm.531.138.04-.063-.04.063Zm.133.085-.04.063.08-.127-.04.064Zm.117.073.039-.065-.04.065Zm.023.013.038-.064-.038.064Zm-9.214-.33.054.052-.054-.052Zm.017.188.046-.06-.046.06Zm1.024-.468-.002-.075.002.075Zm.027 0 .001.074-.001-.075Zm.143 0V9.81v.15-.075Zm.163.001v-.075.075Zm.525-.158-.036-.066.036.066Zm.037-.02.036.065-.036-.066Zm.225-.13.038.064-.038-.064Zm1.22-.478.01-.075-.01.075Zm.193.556-.074-.012.074.012Zm.016.145-.074.012.074-.012Zm-.012.24-.01.074.01-.075Zm-1.564.414.027.07h-.003l-.024-.07Zm-1.132-.079.018-.072-.018.072Zm-.656-.036.054.052-.054-.052Zm2.472 2.775c.002.024.03.057.081.054l.01.15c-.115.007-.23-.07-.24-.19l.149-.014Zm.488-.79c-.097.09-.228.21-.33.35-.104.14-.171.29-.158.44l-.15.013c-.018-.203.074-.39.187-.543.112-.153.253-.282.35-.37l.101.11Zm.02-.018-.02.018-.101-.11.019-.018.101.11Zm.099-.088c-.04.034-.07.06-.1.088l-.101-.11a4.47 4.47 0 0 1 .103-.091l.098.113Zm.117-.102-.068.06-.035.03-.01.009c-.002 0-.003.002-.003.002H8.87v.001s-.106-.008-.099-.113l.1.113c.006-.106-.1-.114-.1-.114h.002l.003-.003.01-.01.035-.029.067-.058.099.112Zm.268-.478c-.041.158-.082.315-.268.478l-.1-.112c.151-.132.183-.252.223-.405l.145.039Zm.01-.039-.01.039-.145-.039.01-.038.145.038Zm.057-.235c-.02.087-.039.168-.057.236l-.145-.04a4.41 4.41 0 0 0 .056-.23l.146.034Zm0 0-.146-.033.146.033Zm0 0-.146-.033.146.033Zm.45-1.058c-.113.074-.205.232-.28.436a5.07 5.07 0 0 0-.17.622l-.146-.033c.044-.193.098-.43.175-.641.077-.208.182-.408.339-.51l.082.126Zm.48.257a1.091 1.091 0 0 0-.084-.058 2.562 2.562 0 0 0-.175-.098 1.557 1.557 0 0 0-.176-.077.343.343 0 0 0-.056-.016l-.008-.001.005-.001a.047.047 0 0 0 .014-.006l-.082-.126a.11.11 0 0 1 .053-.017.189.189 0 0 1 .041.003.483.483 0 0 1 .083.022c.058.02.127.052.194.086a2.704 2.704 0 0 1 .256.15.291.291 0 0 1 .05.042l-.114.097Zm.143.107-.08-.054a.351.351 0 0 1-.062-.053l.114-.097.01.009a.656.656 0 0 0 .025.019l.075.05-.082.126Zm.183.051a.057.057 0 0 0-.025.041c-.002.018.004.028.004.029 0 0-.005-.007-.023-.023a1.634 1.634 0 0 0-.14-.098l.083-.125c.051.033.112.073.154.109a.25.25 0 0 1 .057.064.103.103 0 0 1 .014.062.093.093 0 0 1-.042.067l-.082-.126Zm-.805 1.31c.14-.322.265-.599.39-.819.127-.218.258-.389.415-.49l.082.125c-.127.082-.244.228-.366.44a8.19 8.19 0 0 0-.383.803l-.138-.06Zm-.827.618c.163-.08.336-.166.488-.27a.97.97 0 0 0 .34-.352l.135.066c-.082.169-.23.302-.39.411-.162.11-.346.2-.507.28l-.066-.135Zm-.534.46a.217.217 0 0 1 .048-.15.527.527 0 0 1 .122-.111c.096-.066.228-.131.364-.199l.066.135c-.14.069-.26.129-.345.187a.384.384 0 0 0-.087.078c-.017.022-.02.037-.019.047l-.15.013Zm-.068.06c.05-.003.07-.038.068-.06l.15-.013c.01.124-.094.215-.209.222l-.009-.15Zm4.387-.04c.041.02.09.004.107-.025l.127.08a.236.236 0 0 1-.299.08l.065-.135Zm-.484-.797c.031.121.073.283.149.435a.757.757 0 0 0 .335.362l-.065.135a.905.905 0 0 1-.405-.43 2.38 2.38 0 0 1-.16-.464l.146-.038Zm-.006-.024.006.024-.146.038-.006-.024.146-.038Zm-.03-.122c.01.047.02.085.03.122l-.146.038c-.01-.04-.02-.079-.03-.127l.146-.033Zm-.032-.142.02.083.008.042a.318.318 0 0 1 .004.016v.001s-.057.09-.146.033l.146-.033c-.09-.056-.146.033-.146.033v-.001l-.001-.004-.003-.013-.01-.041a12.072 12.072 0 0 0-.018-.082l.146-.034Zm-.305-.462c.125.116.252.232.305.462l-.146.034c-.042-.182-.137-.271-.26-.386l.101-.11Zm-.03-.028.03.028-.102.11-.03-.028.102-.11Zm-.194-.172c.073.063.14.122.194.172l-.103.11a7.779 7.779 0 0 0-.19-.17l.1-.112Zm0 0-.098.113.098-.113Zm-.001-.001-.096.115.096-.115Zm-.75-.902c0 .051.021.115.066.191.044.075.107.155.182.238.15.166.341.332.503.474l-.098.113a6.348 6.348 0 0 1-.516-.486 1.643 1.643 0 0 1-.2-.263.54.54 0 0 1-.087-.267h.15Zm.501-.208a.726.726 0 0 0-.107.025 1.955 1.955 0 0 0-.186.065.924.924 0 0 0-.163.083.2.2 0 0 0-.041.034c-.008.01-.004.01-.004.001h-.15c0-.04.019-.073.038-.096a.345.345 0 0 1 .072-.063c.054-.037.123-.07.192-.098.069-.028.14-.052.2-.07a.792.792 0 0 1 .14-.031l.01.15Zm.175-.048-.094.03a.398.398 0 0 1-.08.018l-.01-.15a2.857 2.857 0 0 0 .137-.04l.047.142Zm.168-.106a.06.06 0 0 0 .024.043c.01.007.019.008.017.008-.003 0-.015 0-.04.005-.045.01-.106.03-.169.05l-.047-.142c.06-.02.13-.043.186-.055a.29.29 0 0 1 .086-.008.112.112 0 0 1 .054.02.092.092 0 0 1 .039.07l-.15.01Zm.798 1.317a8.96 8.96 0 0 1-.559-.737c-.137-.212-.228-.404-.239-.58l.15-.01c.008.136.08.301.215.509.133.205.321.443.55.723l-.117.095Zm.132.947c.013-.165.027-.34.012-.508a.848.848 0 0 0-.146-.442l.12-.09c.114.154.16.338.176.52.015.181 0 .368-.012.532l-.15-.012Zm.139.651c-.106-.05-.14-.162-.15-.269-.01-.109 0-.244.011-.382l.15.012c-.011.142-.02.263-.011.356.01.096.035.133.065.148l-.065.135Zm.026.072c.015-.022.01-.054-.026-.072l.065-.135c.108.052.155.18.088.287l-.127-.08Zm3.154-2.491c.033.12-.05.229-.164.255l-.033-.146c.045-.01.059-.046.052-.069l.145-.04Zm-.269-.15c.112-.025.237.034.269.15l-.145.04c-.007-.027-.044-.054-.09-.043l-.034-.146Zm-.441-.341c.1.11.187.205.267.269.081.065.135.082.174.073l.034.146c-.111.025-.214-.031-.302-.102a2.829 2.829 0 0 1-.284-.285l.11-.101Zm-.917-.664c.197.042.369.146.518.27.15.122.282.267.399.394l-.111.101a3.77 3.77 0 0 0-.383-.38 1.09 1.09 0 0 0-.454-.238l.031-.147Zm-1.516-.442c.114.096.297.174.555.245a11 11 0 0 0 .958.196l-.025.148a10.712 10.712 0 0 1-.972-.2c-.263-.071-.473-.156-.613-.275l.097-.114Zm-.278.21c.028-.05.062-.11.095-.154a.253.253 0 0 1 .06-.06.113.113 0 0 1 .054-.02.096.096 0 0 1 .07.024l-.098.114a.053.053 0 0 0 .051.01l.005-.003-.006.006a1.452 1.452 0 0 0-.1.157l-.13-.073Zm-.067.11.002-.003a.403.403 0 0 0 .022-.032c.013-.02.027-.046.043-.074l.13.073a2.427 2.427 0 0 1-.045.08.336.336 0 0 1-.048.064l-.104-.108Zm-.197.665a.12.12 0 0 1-.038-.093c0-.026.005-.054.011-.081a2.198 2.198 0 0 1 .184-.44.27.27 0 0 1 .04-.051l.104.108s-.005.005-.016.023a2.07 2.07 0 0 0-.11.23 1.05 1.05 0 0 0-.055.164.23.23 0 0 0-.008.047c0 .015.005-.004-.015-.021l-.097.114Zm1.354.248c-.222-.005-.492-.011-.738-.042a2.11 2.11 0 0 1-.346-.07.763.763 0 0 1-.27-.136l.097-.114c.05.042.123.078.217.107.094.028.203.05.321.064.237.03.5.036.722.041l-.003.15Zm-.001 0 .005-.15-.005.15Zm.266.009a9.279 9.279 0 0 0-.265-.009l.003-.15c.1.003.193.005.27.009l-.008.15Zm.045.002-.044-.002.007-.15.044.002-.007.15Zm.495.127c-.175-.11-.317-.118-.495-.127l.007-.15c.18.009.358.017.568.15l-.08.127Zm.213-.042c-.104.022-.08.126-.08.126h-.002l-.003-.003-.013-.008-.038-.025c-.03-.018-.062-.04-.077-.048l.08-.127.078.05.039.024.012.008a.062.062 0 0 0 .003.002h.001s.023.104-.08.127l.08-.126Zm.038.2a5.445 5.445 0 0 1-.119-.074l.081-.127c.044.029.08.05.116.072l-.078.129Zm.023.014-.023-.014.078-.129.022.014-.077.129Zm1.088.31c-.213.048-.43.002-.618-.07-.188-.07-.355-.171-.47-.24l.077-.129c.116.07.272.163.447.23a.931.931 0 0 0 .53.062l.034.146ZM5.62 10.217c-.02.022-.02.054.009.076l-.092.119a.199.199 0 0 1-.025-.3l.108.105Zm.988-.257a3.05 3.05 0 0 0-.515.04c-.187.034-.359.099-.473.217l-.108-.104c.146-.151.355-.224.554-.261.2-.038.4-.04.54-.042l.002.15Zm.027 0h-.027l-.003-.15h.028l.002.15Zm.141 0h-.14l-.003-.15h.145l-.002.15Zm.164.001-.096-.001h-.068s-.074-.077.002-.15l-.002.15c.076-.075.002-.15.002-.15h.006a11.962 11.962 0 0 0 .156.001v.15Zm.561-.167c-.154.085-.305.168-.561.167v-.15c.216.001.338-.065.489-.149l.072.132Zm.037-.02-.037.02-.072-.132a9.05 9.05 0 0 1 .037-.02l.072.131Zm.227-.132c-.083.05-.16.095-.227.131l-.072-.131a8.56 8.56 0 0 0 .223-.129l.076.13Zm1.172-.468c-.143-.02-.338.037-.554.134a6.645 6.645 0 0 0-.618.334l-.076-.129c.185-.109.41-.242.632-.341.218-.099.448-.172.636-.147l-.02.15Zm.129.47-.002-.023a1.998 1.998 0 0 0-.057-.244 1.2 1.2 0 0 0-.062-.163.254.254 0 0 0-.025-.044c-.01-.012-.004.001.017.004l.02-.149a.129.129 0 0 1 .08.052c.017.02.03.046.043.071.026.052.05.119.07.185a2.15 2.15 0 0 1 .063.27.25.25 0 0 1 .001.065l-.148-.024Zm.016.169-.014-.09a.306.306 0 0 1-.002-.079l.148.024v.01l.003.027c.003.024.007.052.013.083l-.148.025Zm.072.153a.053.053 0 0 0-.038.01.045.045 0 0 0-.016.02s.002-.006.002-.028a1.308 1.308 0 0 0-.02-.155l.148-.025c.009.056.02.123.022.176 0 .025 0 .057-.011.085a.106.106 0 0 1-.037.049.097.097 0 0 1-.07.017l.02-.149Zm-1.602.419c.355-.14.662-.257.925-.332.262-.076.488-.113.677-.087l-.02.149c-.158-.022-.36.008-.615.082-.255.073-.557.187-.912.327l-.055-.14Zm-1.086-.081c.179.045.37.093.56.116.19.023.37.019.529-.036l.05.142a1.333 1.333 0 0 1-.597.043 4.622 4.622 0 0 1-.579-.12l.037-.145Zm-.728-.016c.077-.08.2-.085.314-.073.12.014.264.05.414.089l-.037.145a3.2 3.2 0 0 0-.394-.084c-.112-.013-.166.003-.19.027l-.107-.104Zm-.11.005a.085.085 0 0 0 .11-.005l.108.104a.235.235 0 0 1-.31.02l.093-.119Z"/><path fill="#FFC125" fill-rule="evenodd" d="M10.875 4.06a.293.293 0 0 0-.29.246l-.46 2.911h1.5l-.461-2.911a.293.293 0 0 0-.29-.247Zm3.93 1.446a.315.315 0 0 0-.376-.023l-2.666 1.785 1.06.943 2.009-2.37a.235.235 0 0 0-.027-.335Zm1.408 3.244a.252.252 0 0 1 0 .5l-3.333.417V8.333l3.333.417Zm-1.408 3.744a.235.235 0 0 0 .027-.335l-2.009-2.37-1.06.943 2.666 1.785a.315.315 0 0 0 .376-.023Zm-3.641 1.2a.293.293 0 0 1-.578 0l-.461-2.911h1.5l-.461 2.91Zm-4.22-1.2c.102.09.262.1.377.023l2.666-1.785-1.06-.943-2.009 2.37a.235.235 0 0 0 .026.335ZM5.537 9.25a.252.252 0 0 1 0-.5l3.332-.417v1.334L5.537 9.25Zm1.407-3.744a.235.235 0 0 0-.026.335l2.008 2.37 1.06-.943-2.665-1.785a.315.315 0 0 0-.377.023Z" clip-rule="evenodd"/><path fill="#984111" d="m10.586 4.306-.074-.012.074.012Zm-.461 2.911-.074-.012-.014.087h.088v-.075Zm1.5 0v.075h.088l-.014-.087-.074.012Zm-.461-2.911.074-.012-.074.012Zm3.265 1.177-.042-.063.042.063Zm.376.023-.05.056.05-.056Zm-3.042 1.762-.042-.063-.08.054.072.065.05-.056Zm1.06.943-.05.056.058.05.05-.058-.058-.048Zm2.009-2.37.057.048-.057-.048Zm1.38 2.91.01-.075-.01.074Zm0 .499-.009-.075.01.075Zm-3.332.417h-.075v.085l.085-.011-.01-.074Zm0-1.334.01-.074-.085-.01v.084h.075Zm1.951 3.826-.057.048.058-.048Zm-.026.335-.05-.056.05.056Zm-1.982-2.705.058-.048-.05-.059-.057.051.05.056Zm-1.06.943-.05-.056-.073.064.081.054.042-.062Zm2.666 1.785-.042.062.042-.062Zm-3.265 1.177.074.011-.074-.011Zm-.578 0-.074.011.074-.011Zm-.461-2.911v-.075h-.088l.014.087.074-.012Zm1.5 0 .074.012.014-.087h-.088v.075ZM7.32 12.517l-.042-.062.042.062Zm-.377-.023-.05.056.05-.056Zm3.043-1.762.042.062.08-.054-.072-.064-.05.056Zm-1.06-.943.049-.056-.057-.05-.05.058.057.048Zm-2.009 2.37.057.048-.057-.048Zm-1.381-2.91-.01.075.01-.074Zm0-.499.01.075-.01-.075Zm3.332-.417h.075v-.085l-.084.01.009.075Zm0 1.334-.01.074.085.01v-.084h-.075ZM6.918 5.84l.057-.049-.057.049Zm.026-.335-.05-.056.05.056ZM8.926 8.21l-.057.048.05.059.057-.051-.05-.056Zm1.06-.943.05.056.073-.065-.08-.054-.042.063ZM7.322 5.483l-.042.062.042-.062Zm3.339-1.165a.218.218 0 0 1 .215-.184v-.15a.368.368 0 0 0-.363.31l.148.024Zm-.461 2.91.46-2.91-.147-.024-.461 2.911.148.024Zm1.426-.086h-1.5v.15h1.5v-.15Zm-.535-2.824.46 2.91.149-.023-.461-2.91-.148.023Zm-.215-.184c.107 0 .198.078.215.184l.148-.024a.368.368 0 0 0-.363-.31v.15Zm3.595 1.411a.24.24 0 0 1 .285.017l.1-.112a.39.39 0 0 0-.468-.03l.083.125ZM11.805 7.33l2.665-1.785-.083-.125-2.666 1.785.084.125Zm1.068.825-1.06-.943-.1.112 1.06.943.1-.112Zm1.901-2.363-2.008 2.37.115.097 2.008-2.37-.115-.097Zm-.019-.23a.16.16 0 0 1 .02.23l.114.097a.31.31 0 0 0-.034-.439l-.1.112ZM16.508 9a.327.327 0 0 0-.286-.324l-.019.149a.177.177 0 0 1 .155.175h.15Zm-.286.324A.327.327 0 0 0 16.508 9h-.15c0 .09-.066.164-.155.175l.019.15Zm-3.332.417 3.332-.417-.019-.149-3.332.417.019.149Zm-.085-1.408v1.334h.15V8.333h-.15Zm3.417.343-3.332-.417-.019.149 3.332.417.019-.15Zm-1.448 3.531a.16.16 0 0 1-.019.23l.1.113a.31.31 0 0 0 .034-.44l-.115.097Zm-2.008-2.37 2.008 2.37.115-.097-2.008-2.37-.115.098Zm-.953.951 1.06-.943-.1-.112-1.06.943.1.112Zm2.657 1.667-2.665-1.785-.084.124 2.666 1.785.083-.124Zm.285-.018a.24.24 0 0 1-.285.018l-.083.124a.39.39 0 0 0 .468-.03l-.1-.111Zm-3.88 1.579c.18 0 .335-.132.363-.31l-.148-.024a.218.218 0 0 1-.215.184v.15Zm-.363-.31c.028.178.182.31.363.31v-.15a.218.218 0 0 1-.215-.184l-.148.024Zm-.461-2.911.46 2.91.149-.023-.461-2.91-.148.023Zm1.574-.087h-1.5v.15h1.5v-.15Zm-.387 2.998.46-2.911-.147-.024-.461 2.911.148.024Zm-3.959-1.251a.24.24 0 0 1-.285-.018l-.1.113a.39.39 0 0 0 .469.03l-.084-.125Zm2.666-1.785L7.28 12.455l.084.124 2.666-1.785-.084-.124Zm-1.069-.825 1.061.943.1-.112-1.061-.943-.1.112Zm-1.9 2.362 2.007-2.37-.114-.096-2.008 2.37.114.096Zm.018.23a.16.16 0 0 1-.019-.23l-.114-.097a.31.31 0 0 0 .034.44l.1-.113ZM5.241 9c0 .165.123.304.287.324l.018-.149A.177.177 0 0 1 5.391 9h-.15Zm.287-.324A.327.327 0 0 0 5.24 9h.15c0-.09.067-.164.155-.175l-.018-.15Zm3.332-.417-3.332.417.018.149 3.332-.417-.018-.15Zm.084 1.408V8.333h-.15v1.334h.15Zm-3.416-.343 3.332.417.018-.149-3.332-.417-.018.15Zm1.447-3.532a.16.16 0 0 1 .02-.23l-.1-.112a.31.31 0 0 0-.034.44l.114-.098Zm2.008 2.37-2.008-2.37-.114.097 2.008 2.37.114-.097Zm.954-.95-1.06.943.099.112 1.06-.943-.1-.112ZM7.279 5.545 9.945 7.33l.083-.125L7.363 5.42l-.084.125Zm-.285.017a.24.24 0 0 1 .285-.017l.084-.125a.39.39 0 0 0-.468.03l.1.112Z"/><path fill="#FFC125" fill-rule="evenodd" stroke="#984111" stroke-width=".15" d="M10.875 10.842c1.2 0 2.175-.854 2.175-1.908 0-1.053-.974-1.908-2.175-1.908-1.202 0-2.175.855-2.175 1.908 0 1.054.973 1.908 2.175 1.908Z" clip-rule="evenodd"/><g fill="#984111"><path d="m10.665 8.436-.14-.08a.956.956 0 0 0-.21-.094.345.345 0 0 0-.091-.014c-.133 0-.32.073-.556.223l-.088-.107c.26-.164.473-.248.644-.248.044 0 .09.007.136.02.077.021.153.056.245.108l.14.081a.709.709 0 0 0 .054.027c.179 0 .19.57.063.744a.529.529 0 0 1-.132.124l-.097.064c-.044.03-.058.048-.058.07 0 .003.054.015.174.01l.082-.005c.086-.006.097-.006.124-.006v.131c-.021 0-.033 0-.112.006a3.243 3.243 0 0 1-.087.005c-.211.009-.331-.017-.331-.142 0-.071.039-.12.116-.173l.096-.063a.391.391 0 0 0 .098-.092c.04-.053.063-.192.06-.34a.82.82 0 0 0-.029-.205.387.387 0 0 1-.1-.044Z"/><path fill-rule="evenodd" d="M11.27 8.39a6.51 6.51 0 0 1-.08.046.388.388 0 0 1-.1.044.82.82 0 0 0-.03.205c-.003.148.021.287.06.34a.391.391 0 0 0 .098.092l.06.04.037.023c.077.053.116.102.116.173 0 .125-.12.151-.332.142a3.243 3.243 0 0 1-.086-.005 1.592 1.592 0 0 0-.113-.006v-.131c.028 0 .039 0 .124.006l.082.005a.471.471 0 0 0 .175-.01c0-.022-.014-.04-.059-.07l-.029-.02a3.858 3.858 0 0 1-.068-.044.528.528 0 0 1-.131-.124c-.127-.175-.116-.744.063-.744h.001l.053-.027.073-.043.066-.038c.093-.052.169-.087.245-.108a.511.511 0 0 1 .137-.02c.17 0 .384.084.643.248l-.087.107c-.237-.15-.424-.223-.556-.223a.346.346 0 0 0-.092.014.957.957 0 0 0-.209.093l-.06.035Zm-.176.08-.002.004.002-.003Z" clip-rule="evenodd"/><path d="m10.505 9.721-.03-.068.03.068Zm.746.001-.035.066.036-.066Zm.08.042.058.046.055-.07-.079-.042-.035.066Zm-.056.07.06.046-.06-.046Zm-.793.008.054-.052-.054.052Zm-.074-.077-.03-.069-.099.043.075.078.054-.052Zm.271.053-.02-.073-.147.041.123.092.044-.06Zm.41-.002.05.056.099-.089-.127-.039-.022.072Zm-.658-.042-.035-.066-.083.044.061.07.057-.048Zm.881 0 .062.042.043-.063-.063-.042-.042.063Zm-.965-.125.036.065-.036-.065Zm1.06.008-.043.061.043-.061Zm.051.035-.042.062.042-.062Zm.062.042.062.042.041-.062-.06-.042-.043.062Zm-.042.062.062.042-.062-.042Zm-.033.05-.062-.042.062.041Zm-1.14.011-.057.048.057-.048Zm-.048-.057.058-.048-.058.048Zm-.058-.07-.036-.065-.08.044.058.07.058-.049Zm.08-.044-.037-.065.037.065Zm.614-.122c-.145 0-.285.03-.418.089l.06.137a.87.87 0 0 1 .358-.076v-.15Zm.394.092a.824.824 0 0 0-.394-.092v.15c.123 0 .23.025.323.074l.07-.132Zm.079.042-.08-.042-.07.132.079.042.07-.132Zm-.032.182.055-.07-.118-.092-.055.07.118.092Zm-.441.244c.177 0 .324-.093.441-.244l-.118-.092c-.098.126-.206.186-.323.186v.15Zm-.465-.23c.136.141.292.23.465.23v-.15c-.118 0-.237-.06-.357-.184l-.108.104Zm-.074-.077.074.077.108-.104-.074-.077-.108.104Zm.121-.164-.098.043.061.137.098-.043-.061-.137Zm.418.17a.282.282 0 0 1-.169-.066l-.09.12a.43.43 0 0 0 .259.097v-.15Zm.146-.063a.213.213 0 0 1-.146.064v.15a.362.362 0 0 0 .246-.102l-.1-.112Zm-.146.104a.59.59 0 0 1 .174.024l.044-.144a.74.74 0 0 0-.218-.03v.15Zm-.194.026a.721.721 0 0 1 .194-.026v-.15a.87.87 0 0 0-.234.031l.04.145Zm.194.065c-.128 0-.263-.065-.405-.23l-.114.098c.16.186.333.282.519.282v-.15Zm.357-.224c-.111.161-.23.224-.357.224v.15c.188 0 .35-.099.48-.289l-.122-.085Zm-.357.001c.151 0 .276.037.378.104l.083-.125a.817.817 0 0 0-.461-.129v.15Zm-.427.108a.891.891 0 0 1 .427-.108v-.15c-.175 0-.341.042-.497.126l.07.132Zm.427-.408c-.206 0-.4.051-.582.15l.072.132c.16-.087.33-.132.51-.132v-.15Zm.556.163a.962.962 0 0 0-.556-.163v.15c.181 0 .34.046.471.136l.085-.123Zm.052.035-.052-.035-.085.123.052.036.085-.124Zm.061.042-.061-.042-.085.124.061.042.085-.124Zm-.022.166.042-.062-.125-.084-.041.062.124.084Zm-.033.05.033-.05-.124-.084-.033.05.124.083Zm-.614.367c.257 0 .462-.142.614-.368l-.124-.083c-.133.197-.297.301-.49.301v.15Zm-.645-.35c.18.215.395.35.645.35v-.15c-.19 0-.367-.101-.53-.296l-.115.096Zm-.048-.057.048.057.115-.096-.048-.057-.115.096Zm-.059-.07.059.07.115-.096-.059-.07-.115.096Zm.101-.157-.08.044.073.131.08-.044-.072-.131Zm.069-.038-.069.038.073.131.068-.038-.072-.131ZM9.83 8.452l.03.069-.03-.07Zm-.104.067-.053-.053.053.053Zm0 .23.053-.053-.053.053Zm.104.067.03-.069-.03.07Zm.59 0-.03-.069.03.07Zm.104-.067-.054-.053.054.053Zm0-.23-.054.053.054-.053Zm-.105-.067.03-.07-.03.07Zm-.594.183-.001-.075v.075Zm.008.008.053-.052-.053.052Zm.056.035.03-.069-.03.07Zm.472 0-.03-.069.03.07Zm.056-.035.053.053-.053-.053Zm.008-.008V8.56v.075Zm0-.002-.001-.075.001.075Zm-.008-.009.053-.052-.053.052Zm-.056-.034.029-.07-.03.07Zm-.472 0-.03-.07.03.07Zm-.056.034-.054-.052.054.052Zm-.008.009-.001.075v-.075Zm1.505-.181-.03-.07.03.07Zm-.104.067-.053-.053.053.053Zm0 .23-.053.053.053-.053Zm.104.067-.03.069.03-.069Zm.59 0-.03-.069.03.07Zm.104-.067-.054-.053.054.053Zm0-.23-.054.053.054-.053Zm-.105-.067-.029.069.03-.07Zm-.586.191-.054.053.054-.053Zm.056.035.03-.069-.03.07Zm.472 0-.03-.069.03.07Zm.056-.035.053.053-.053-.053Zm.008-.008V8.56v.075Zm0-.002-.001-.075.001.075Zm-.008-.009.053-.052-.053.052Zm-.056-.034-.03.069.03-.07Zm-.472 0 .03.069-.03-.07Zm-.056.034-.054-.052.054.052Zm-.008.009v.075-.075ZM9.86 8.52a.698.698 0 0 1 .265-.047v-.15a.846.846 0 0 0-.324.059l.059.138Zm-.08.05a.253.253 0 0 1 .08-.05l-.06-.138a.401.401 0 0 0-.127.083l.106.106Zm-.03.063a.09.09 0 0 1 .03-.062l-.107-.106a.238.238 0 0 0-.073.168h.15Zm.03.062a.09.09 0 0 1-.03-.062H9.6c0 .073.035.13.073.168l.106-.106Zm.08.051a.253.253 0 0 1-.08-.05l-.107.105a.401.401 0 0 0 .128.083l.059-.138Zm.265.047a.697.697 0 0 1-.265-.047l-.06.138a.845.845 0 0 0 .325.059v-.15Zm.265-.047a.698.698 0 0 1-.265.047v.15a.84.84 0 0 0 .324-.059l-.059-.138Zm.08-.05a.252.252 0 0 1-.08.05l.059.138a.402.402 0 0 0 .128-.083l-.107-.106Zm.03-.063c0 .022-.01.043-.03.062l.107.106a.238.238 0 0 0 .073-.168h-.15Zm-.03-.062c.02.019.03.04.03.062h.15a.238.238 0 0 0-.073-.168l-.107.106Zm-.08-.051a.252.252 0 0 1 .08.05l.107-.105a.402.402 0 0 0-.128-.083l-.059.138Zm-.265-.047c.103 0 .197.018.265.047l.059-.138a.845.845 0 0 0-.324-.06v.15Zm-.3.236a.075.075 0 0 0 .075-.076h-.15a.069.069 0 0 1 .006-.028.076.076 0 0 1 .068-.046l.001.15ZM9.758 8.6a.083.083 0 0 0-.008.03v.017a.075.075 0 0 0 .075.062l-.001-.15a.075.075 0 0 1 .075.063v.017a.075.075 0 0 1-.006.027L9.758 8.6Zm.128-.01.007.01-.135.066c.005.01.013.02.021.03l.107-.106Zm.033.018a.176.176 0 0 1-.031-.017l-.002-.001-.107.105a.25.25 0 0 0 .08.051l.06-.138Zm.206.035a.551.551 0 0 1-.206-.035l-.06.138a.697.697 0 0 0 .266.047v-.15Zm.206-.035a.551.551 0 0 1-.206.035v.15a.698.698 0 0 0 .265-.047l-.059-.138Zm.033-.018-.002.001a.181.181 0 0 1-.03.017l.058.138a.252.252 0 0 0 .08-.05l-.106-.106Zm-.007.01.007-.01.106.105a.11.11 0 0 0 .022-.03l-.135-.065Zm.139.01a.074.074 0 0 0-.004-.01l-.135.066a.095.095 0 0 1-.003-.008l.142-.048Zm-.072.1a.075.075 0 0 0 .075-.066v-.025a.057.057 0 0 0-.003-.008l-.142.048-.002-.008a.07.07 0 0 1-.002-.01v-.015a.075.075 0 0 1 .076-.066l-.002.15Zm.001-.15-.6-.002v.15l.6.001v-.15Zm-.075.073v.012l.15-.022v.01h-.15Zm.074-.076a.075.075 0 0 0-.062.034c-.004.005-.005.01-.006.012a.075.075 0 0 0-.003.008l-.002.009a.085.085 0 0 0-.001.013h.15a.064.064 0 0 1-.003.019l-.003.009-.006.011a.075.075 0 0 1-.062.034l-.002-.15Zm.068.109a.076.076 0 0 0 .006-.02l.002-.01-.001-.017a.075.075 0 0 0-.075-.063l.002.15a.075.075 0 0 1-.076-.08l.001-.01a.11.11 0 0 1 .006-.016l.135.066Zm-.128.01-.007-.01.135-.066a.11.11 0 0 0-.022-.03l-.106.106Zm-.033-.018a.18.18 0 0 1 .03.017l.003.001.106-.105a.252.252 0 0 0-.08-.051l-.059.138Zm-.206-.035a.54.54 0 0 1 .206.035l.059-.138a.698.698 0 0 0-.265-.047v.15Zm-.206.035a.551.551 0 0 1 .206-.035v-.15a.698.698 0 0 0-.265.047l.059.138Zm-.033.018.002-.001a.175.175 0 0 1 .03-.017L9.86 8.52a.253.253 0 0 0-.08.05l.106.106Zm.007-.01-.007.01-.107-.105a.111.111 0 0 0-.021.03l.135.065Zm-.14-.01a.085.085 0 0 0 .005.01l.135-.066.003.008-.142.048Zm.072-.1a.075.075 0 0 0-.075.066v.016a.075.075 0 0 0 .004.018l.142-.048a.071.071 0 0 1 .003.017v.016a.075.075 0 0 1-.075.066l.001-.15Zm0 .15.6.003v-.15l-.6-.002v.15Zm.075-.073a.08.08 0 0 0-.001-.012l-.148.022-.001-.01h.15Zm0-.005-.15.009.15-.009Zm1.46-.108a.698.698 0 0 1 .265-.047v-.15a.846.846 0 0 0-.324.059l.059.138Zm-.08.05a.254.254 0 0 1 .08-.05l-.06-.138a.401.401 0 0 0-.127.083l.106.106Zm-.03.063c0-.022.01-.043.03-.062l-.107-.106a.238.238 0 0 0-.073.168h.15Zm.03.062a.089.089 0 0 1-.03-.062h-.15c0 .073.035.13.073.168l.106-.106Zm.08.051a.254.254 0 0 1-.08-.05l-.107.105a.401.401 0 0 0 .128.083l.059-.138Zm.265.047a.697.697 0 0 1-.265-.047l-.06.138a.845.845 0 0 0 .325.059v-.15Zm.265-.047a.697.697 0 0 1-.265.047v.15a.84.84 0 0 0 .324-.059l-.059-.138Zm.08-.05a.254.254 0 0 1-.08.05l.059.138a.401.401 0 0 0 .128-.083l-.107-.106Zm.03-.063c0 .022-.01.043-.03.062l.107.106a.238.238 0 0 0 .073-.168H12Zm-.03-.062c.02.019.03.04.03.062h.15a.238.238 0 0 0-.073-.168l-.107.106Zm-.08-.051a.254.254 0 0 1 .08.05l.107-.105a.401.401 0 0 0-.128-.083l-.059.138Zm-.265-.047c.103 0 .197.018.265.047l.059-.138a.846.846 0 0 0-.324-.06v.15Zm-.3.236a.075.075 0 0 0 .063-.034l.006-.012.003-.009a.074.074 0 0 0 .003-.022h-.15a.075.075 0 0 1 .006-.027.067.067 0 0 1 .018-.026.075.075 0 0 1 .05-.02l.001.15Zm-.067-.109a.092.092 0 0 0-.008.03.078.078 0 0 0 .01.043c.009.014.03.037.065.036v-.15a.075.075 0 0 1 .074.063v.017a.07.07 0 0 1-.006.027l-.135-.066Zm.128-.01.007.01-.135.066c.005.01.013.02.021.03l.107-.106Zm.033.018a.17.17 0 0 1-.031-.017l-.002-.001-.107.105a.25.25 0 0 0 .08.051l.06-.138Zm.206.035a.551.551 0 0 1-.206-.035l-.06.138a.697.697 0 0 0 .266.047v-.15Zm.206-.035a.55.55 0 0 1-.206.035v.15a.697.697 0 0 0 .265-.047l-.059-.138Zm.033-.018-.002.001a.17.17 0 0 1-.03.017l.058.138a.254.254 0 0 0 .08-.05l-.106-.106Zm-.007.01.007-.01.106.105a.114.114 0 0 0 .022-.03l-.135-.065Zm.139.01a.08.08 0 0 0-.004-.01l-.135.065a.056.056 0 0 1-.003-.007l.142-.048Zm-.072.1A.075.075 0 0 0 12 8.644V8.62a.079.079 0 0 0-.003-.008l-.142.048a.062.062 0 0 1-.002-.008l-.002-.01v-.016c.001-.003.003-.013.009-.025a.075.075 0 0 1 .067-.04l-.002.15Zm.001-.15-.6-.002v.15l.6.001v-.15Zm-.075.073v.011l.15-.02a.07.07 0 0 1 0 .009h-.15Zm.074-.076a.075.075 0 0 0-.062.034c-.004.005-.005.01-.006.012l-.003.008a.066.066 0 0 0-.003.022H12a.077.077 0 0 1-.006.028.03.03 0 0 1-.006.011.075.075 0 0 1-.062.034l-.002-.15Zm.068.109a.091.091 0 0 0 .008-.03.078.078 0 0 0-.01-.043.075.075 0 0 0-.066-.036l.002.15a.075.075 0 0 1-.075-.063v-.017a.07.07 0 0 1 .006-.027l.135.066Zm-.128.01-.007-.01.135-.066a.114.114 0 0 0-.022-.03l-.106.106Zm-.033-.018a.169.169 0 0 1 .03.017l.003.001.106-.105a.254.254 0 0 0-.08-.051l-.059.138Zm-.206-.035a.55.55 0 0 1 .206.035l.059-.138a.697.697 0 0 0-.265-.047v.15Zm-.206.035a.551.551 0 0 1 .206-.035v-.15a.698.698 0 0 0-.265.047l.059.138Zm-.033.018.002-.001a.169.169 0 0 1 .03-.017l-.058-.138a.254.254 0 0 0-.08.05l.106.106Zm.007-.01-.007.01-.107-.105a.114.114 0 0 0-.021.03l.135.065Zm-.14-.01a.095.095 0 0 0 .005.01l.135-.066.003.008-.142.048Zm.072-.1c-.04 0-.06.028-.067.04-.006.012-.007.023-.008.026v.016l.001.01.003.008.142-.048a.06.06 0 0 1 .002.008l.001.01a.07.07 0 0 1 0 .015.075.075 0 0 1-.075.065l.001-.15Zm0 .15.6.003v-.15l-.6-.002v.15Zm.075-.073-.001-.012-.148.022-.001-.01h.15Zm0-.005-.15.009.15-.009Z"/></g></g></g></g></g><defs><clipPath id="b"><rect width="36" height="24" x="3" y="2" fill="#fff" rx="2"/></clipPath><filter id="a" width="42" height="30" x="0" y="0" color-interpolation-filters="sRGB" filterUnits="userSpaceOnUse"><feFlood flood-opacity="0" result="BackgroundImageFix"/><feColorMatrix in="SourceAlpha" result="hardAlpha" values="0 0 0 0 0 0 0 0 0 0 0 0 0 0 0 0 0 0 127 0"/><feOffset dy="1"/><feGaussianBlur stdDeviation="1"/><feColorMatrix values="0 0 0 0 0.0627451 0 0 0 0 0.0941176 0 0 0 0 0.156863 0 0 0 0.06 0"/><feBlend in2="BackgroundImageFix" result="effect1_dropShadow_91_24234"/><feColorMatrix in="SourceAlpha" result="hardAlpha" values="0 0 0 0 0 0 0 0 0 0 0 0 0 0 0 0 0 0 127 0"/><feOffset dy="1"/><feGaussianBlur stdDeviation="1.5"/><feColorMatrix values="0 0 0 0 0.0627451 0 0 0 0 0.0941176 0 0 0 0 0.156863 0 0 0 0.1 0"/><feBlend in2="effect1_dropShadow_91_24234" result="effect2_dropShadow_91_24234"/><feBlend in="SourceGraphic" in2="effect2_dropShadow_91_24234" result="shape"/></filter></defs></svg>