<svg xmlns="http://www.w3.org/2000/svg" fill="none" aria-hidden="true" viewBox="0 0 42 30"><g filter="url(#a)"><g clip-path="url(#b)"><mask id="c" width="36" height="24" x="3" y="2" maskUnits="userSpaceOnUse" style="mask-type:alpha"><path fill="#fff" d="M3 2h36v24H3z"/></mask><g mask="url(#c)"><path fill="#F7FCFF" fill-rule="evenodd" d="M3 2h36v24H3V2Z" clip-rule="evenodd"/><path fill="#FFDC17" fill-rule="evenodd" d="M3 2h15.75v24H3V2Z" clip-rule="evenodd"/><path fill="#AF0100" d="m28.63 14.752-.389.022c.093 1.186.38 2.102.866 2.748.784 1.043 1.82 1.849 2.512 1.849.157 0 .194.052.142.18-.074.182-.307.361-.607.43-.5.114-1.635.174-3.387.174v.335c1.787 0 2.943-.06 3.487-.185.422-.097.757-.355.875-.644.135-.335-.07-.625-.51-.625-.514 0-1.469-.744-2.185-1.696-.446-.592-.716-1.455-.804-2.588Zm-1.84 0 .389.022c-.093 1.186-.38 2.102-.866 2.748-.784 1.043-1.82 1.849-2.512 1.849-.157 0-.194.052-.142.18.074.182.307.361.607.43.5.114 1.635.174 3.387.174v.335c-1.787 0-2.943-.06-3.487-.185-.422-.097-.758-.355-.875-.644-.135-.335.07-.625.51-.625.514 0 1.469-.744 2.185-1.696.446-.592.716-1.455.804-2.588Z"/><g fill-rule="evenodd" clip-rule="evenodd"><path fill="#F4B300" d="m34.575 8.798-10.284 7.126a4.19 4.19 0 0 0-1.162-.161c-1.669 0-3.065.947-3.065 2.177s1.396 2.176 3.065 2.176c.191 0 .379-.012.561-.036a.978.978 0 0 1-.358-.42c-.075-.187-.045-.36.074-.477-.09.008-.183.013-.277.013-1.126 0-1.995-.59-1.995-1.256 0-.667.869-1.256 1.995-1.256 1.125 0 1.994.59 1.994 1.256a.9.9 0 0 1-.226.575l.082-.067c.357-.294-.444.922-1.137.922-.157 0-.194.052-.142.18.07.171.278.34.551.417 1.128-.314 1.943-1.088 1.943-2.027 0-.384-.137-.74-.375-1.05l5.527-4.17.37.34.266-.214.924.608-.386.265.787.851 1.59-1.09.027-.012-.005-.003.099-.067-.788-.851-.381.26-1.032-.634.12-.097-.331-.305.499-.377.265.243.285-.23.895.63-.377.258.788.852 1.362-.933.156-.076-.023-.016.216-.147-.788-.852-.445.305-.98-.668.133-.108-.228-.208 1.018-.768-.806-.878Z"/><path fill="#BFBFBF" d="M20.647 16.726c.296 0 .536-.169.536-.377s-.24-.377-.536-.377c-.295 0-.535.169-.535.377s.24.377.535.377Zm.195 3.432c.296 0 .535-.169.535-.377s-.24-.376-.535-.376c-.295 0-.535.168-.535.377 0 .207.24.376.535.376Zm5.303-.377c0 .209-.24.377-.535.377-.296 0-.536-.169-.536-.377s.24-.376.535-.376c.296 0 .536.168.536.377Z"/></g><g fill-rule="evenodd" clip-rule="evenodd"><path fill="#BFBFBF" d="M29.307 17.94c0-.553.282-1.048.744-1.427l-5.906-4.065-.067.046.172.139-.465.428-.246-.198-.904.619.346.237-.788.851-1.573-1.078-.044-.024.005-.002-.098-.068.787-.851.381.26 1.033-.634-.121-.097.446-.41-.52-.358-.358.33-.274-.222-.884.637.354.242-.788.852-1.318-.904-.2-.105.023-.016-.215-.147.787-.852.445.305.98-.668-.132-.107.269-.248-1.06-.729.669-.719 10.217 7.033a4.133 4.133 0 0 1 1.368-.227c1.668 0 3.065.947 3.065 2.177s-1.397 2.177-3.065 2.177c-.192 0-.38-.013-.562-.037a.979.979 0 0 0 .358-.42c.076-.187.045-.36-.074-.476.09.008.183.012.278.012 1.126 0 1.994-.59 1.994-1.256 0-.667-.868-1.256-1.994-1.256s-1.995.59-1.995 1.256a.9.9 0 0 0 .227.575 4.739 4.739 0 0 1-.083-.067c-.356-.294.445.922 1.137.922.158 0 .194.052.142.18-.069.171-.278.34-.55.417-1.129-.314-1.943-1.088-1.943-2.027Z"/><path fill="#F4B300" d="M34.853 16.726c-.296 0-.535-.168-.535-.377 0-.208.24-.376.535-.376.296 0 .535.168.535.376 0 .209-.24.377-.535.377Zm-.195 3.433c-.295 0-.535-.169-.535-.377s.24-.377.535-.377c.296 0 .536.169.536.377s-.24.377-.536.377Zm-5.302-.377c0 .208.24.377.535.377.296 0 .535-.169.535-.377s-.24-.377-.535-.377c-.296 0-.535.169-.535.377Z"/></g><path fill="#AF0100" fill-rule="evenodd" d="M27.442 13.795a.13.13 0 0 0-.13.13v.54h-.555a.126.126 0 0 0 0 .251h.555v7.154c0 .072.058.13.13.13h.324a.13.13 0 0 0 .13-.13v-7.154h.848a.126.126 0 1 0 0-.25h-.848v-.54a.13.13 0 0 0-.13-.13h-.324Z" clip-rule="evenodd"/><path fill="#979797" fill-rule="evenodd" d="m21.85 9.594.237.145c.555-.674 1.055-.809 1.563-.455.877.61.953 2.1.015 2.598-1.119.595-1.686 1.754-1.19 2.385.458.583 1.561.362 2.65-.37.194-.129.378-.268.552-.413l-.23-.158a6.117 6.117 0 0 1-.5.374c-.973.652-1.906.839-2.23.427-.387-.492.108-1.503 1.101-2.031 1.124-.598 1.037-2.296.015-3.008-.66-.458-1.342-.274-1.984.506Zm4.283 3.051.238.146c.413-.495.695-1.032.789-1.56l-.289-.038c-.086.487-.35.987-.738 1.452Zm7.545-3.051-.238.145c-.555-.674-1.054-.809-1.562-.455-.877.61-.953 2.1-.015 2.598 1.118.595 1.685 1.754 1.19 2.385-.459.583-1.562.362-2.651-.37a6.417 6.417 0 0 1-.551-.413l.23-.158c.158.131.325.256.5.374.972.652 1.905.839 2.23.427.386-.492-.108-1.503-1.102-2.031-1.124-.598-1.037-2.296-.015-3.008.66-.458 1.342-.274 1.984.506Zm-4.284 3.051-.237.146c-.413-.495-.695-1.032-.79-1.56l.29-.038c.086.487.35.987.737 1.452Z" clip-rule="evenodd"/><path fill="#AF0100" fill-rule="evenodd" d="M27.604 22.017c.323 0 .584-.116.584-.26 0-.143-.261-.259-.584-.259-.322 0-.584.116-.584.26 0 .143.262.259.584.259Zm-.097-10.797c1.129 0 2.043-.136 2.043-.303 0-.167-.914-.303-2.043-.303-1.128 0-2.043.136-2.043.303 0 .167.915.303 2.043.303Z" clip-rule="evenodd"/><path fill="#F4B300" fill-rule="evenodd" d="M27.622 4.039h-.292v.299h-.276v.25h.276v.734h.292v-.733h.337v-.251h-.337v-.3Zm-2.195 3.618-.13-.195a4.68 4.68 0 0 1 .218-.075l-.38-.74.268-.102.39.762a8.7 8.7 0 0 1 .255-.059.33.33 0 0 1-.098-.234c0-.185.153-.335.34-.335.189 0 .341.15.341.335a.33.33 0 0 1-.033.146c.23-.027.472-.044.724-.05v-.285h-.366v-.202h.366v-.24h.386v.24h.446v.202h-.446v.282c.287.005.556.022.806.053a.329.329 0 0 1-.034-.146c0-.185.153-.335.34-.335.189 0 .341.15.341.335 0 .095-.04.18-.104.241a4.3 4.3 0 0 1 .313.086l.28-.545.267.101-.277.54.065.028-.147.189-.024-.01-.045.087-.267-.102.044-.085c-.426-.135-.945-.209-1.558-.219v.09h-.386v-.088c-.727.02-1.359.13-1.895.33Zm-.13.223.068.102-.23.088.38.74a4.669 4.669 0 0 0-.218.075l.13.195c.536-.2 1.168-.31 1.895-.33v.088h.386v-.09c.613.01 1.132.084 1.558.22l-.044.085.267.101.045-.087.024.01.147-.189a3.1 3.1 0 0 0-.065-.027l.277-.54-.267-.102-.28.545c-.1-.032-.204-.06-.313-.085a.331.331 0 0 0 .104-.242.338.338 0 0 0-.34-.334.337.337 0 0 0-.307.481 7.493 7.493 0 0 0-.806-.054v-.28h.446v-.202h-.446v-.241h-.386v.24h-.366v.203h.366v.283a7.95 7.95 0 0 0-.724.051.33.33 0 0 0 .034-.146.338.338 0 0 0-.341-.334c-.188 0-.34.15-.34.334 0 .092.036.174.096.235-.086.017-.17.037-.253.058l-.341-.664c.59-.215 1.292-.323 2.11-.323.828 0 1.492.11 1.995.33l.147-.19c-.552-.24-1.266-.358-2.142-.358-.873 0-1.629.118-2.266.355Zm0 1.424.068.102-.23.087.38.74a4.669 4.669 0 0 0-.218.075l.13.195c.536-.2 1.168-.31 1.895-.33v.088h.386v-.09c.613.01 1.132.084 1.558.22l-.044.085.267.101.045-.087.024.01.147-.188a3.525 3.525 0 0 0-.065-.028l.277-.54-.267-.101-.28.544c-.1-.031-.204-.06-.313-.085a.331.331 0 0 0 .104-.241.338.338 0 0 0-.34-.335.337.337 0 0 0-.307.481 7.49 7.49 0 0 0-.806-.053v-.282h.446V9.47h-.446v-.24h-.386v.24h-.366v.202h.366v.284a7.954 7.954 0 0 0-.724.05.33.33 0 0 0 .034-.145.338.338 0 0 0-.341-.335c-.188 0-.34.15-.34.335a.33.33 0 0 0 .096.234c-.086.018-.17.037-.253.058l-.341-.664c.59-.215 1.292-.323 2.11-.323.828 0 1.492.11 1.995.33l.147-.189c-.552-.24-1.266-.36-2.142-.36-.873 0-1.629.12-2.266.357Zm0 1.423.13.195c.595-.222 1.306-.333 2.136-.333.828 0 1.492.11 1.995.33l.147-.189c-.552-.24-1.266-.359-2.142-.359-.873 0-1.629.118-2.266.356Z" clip-rule="evenodd"/></g></g></g><defs><clipPath id="b"><rect width="36" height="24" x="3" y="2" fill="#fff" rx="2"/></clipPath><filter id="a" width="42" height="30" x="0" y="0" color-interpolation-filters="sRGB" filterUnits="userSpaceOnUse"><feFlood flood-opacity="0" result="BackgroundImageFix"/><feColorMatrix in="SourceAlpha" result="hardAlpha" values="0 0 0 0 0 0 0 0 0 0 0 0 0 0 0 0 0 0 127 0"/><feOffset dy="1"/><feGaussianBlur stdDeviation="1"/><feColorMatrix values="0 0 0 0 0.0627451 0 0 0 0 0.0941176 0 0 0 0 0.156863 0 0 0 0.06 0"/><feBlend in2="BackgroundImageFix" result="effect1_dropShadow_91_24129"/><feColorMatrix in="SourceAlpha" result="hardAlpha" values="0 0 0 0 0 0 0 0 0 0 0 0 0 0 0 0 0 0 127 0"/><feOffset dy="1"/><feGaussianBlur stdDeviation="1.5"/><feColorMatrix values="0 0 0 0 0.0627451 0 0 0 0 0.0941176 0 0 0 0 0.156863 0 0 0 0.1 0"/><feBlend in2="effect1_dropShadow_91_24129" result="effect2_dropShadow_91_24129"/><feBlend in="SourceGraphic" in2="effect2_dropShadow_91_24129" result="shape"/></filter></defs></svg>