<svg xmlns="http://www.w3.org/2000/svg" fill="none" aria-hidden="true" viewBox="0 0 42 30"><g id="Country=WS - Samoa, Size=sm (36x24)" filter="url(#filter0_dd_91_23891)"><g clip-path="url(#clip0_91_23891)"><g id="flag"><mask id="mask0_91_23891" width="36" height="24" x="3" y="2" maskUnits="userSpaceOnUse" style="mask-type:alpha"><rect id="mask" width="36" height="24" x="3" y="2" fill="white"/></mask><g mask="url(#mask0_91_23891)"><g id="contents"><path id="background" fill="#C51918" fill-rule="evenodd" d="M3 2V26H39V2H3Z" clip-rule="evenodd"/><mask id="mask1_91_23891" width="36" height="24" x="3" y="2" maskUnits="userSpaceOnUse" style="mask-type:alpha"><path id="background_2" fill="white" fill-rule="evenodd" d="M3 2V26H39V2H3Z" clip-rule="evenodd"/></mask><g mask="url(#mask1_91_23891)"><g id="mark"><path id="top" fill="#2E42A5" fill-rule="evenodd" d="M3 2V16H21V2H3Z" clip-rule="evenodd"/><path id="Star 5" fill="#FEFFFF" fill-rule="evenodd" d="M7.0113 9.77177L5.81875 10.4117L6.09076 9.16292L5.09766 8.22832L6.44238 8.17779L7.0113 7.01172L7.58022 8.17779H8.92266L7.93184 9.16292L8.23013 10.4117L7.0113 9.77177Z" clip-rule="evenodd"/><path id="Star 5_2" fill="#FEFFFF" fill-rule="evenodd" d="M16.0113 9.77177L14.8187 10.4117L15.0908 9.16292L14.0977 8.22832L15.4424 8.17779L16.0113 7.01172L16.5802 8.17779H17.9227L16.9318 9.16292L17.2301 10.4117L16.0113 9.77177Z" clip-rule="evenodd"/><path id="Star 5_3" fill="#FEFFFF" fill-rule="evenodd" d="M11.3987 6.13773L10.2763 6.74004L10.5323 5.5647L9.59766 4.68508L10.8633 4.63751L11.3987 3.54004L11.9342 4.63751H13.1977L12.2651 5.5647L12.5459 6.74004L11.3987 6.13773Z" clip-rule="evenodd"/><path id="Star 5_4" fill="#FEFFFF" fill-rule="evenodd" d="M12.6144 10.4253L11.9129 10.8018L12.0729 10.0672L11.4888 9.51741L12.2798 9.48768L12.6144 8.80176L12.9491 9.48768H13.7388L13.1559 10.0672L13.3314 10.8018L12.6144 10.4253Z" clip-rule="evenodd"/><path id="Star 5_5" fill="#FEFFFF" fill-rule="evenodd" d="M11.3349 14.8282L9.65131 15.7316L10.0353 13.9686L8.6333 12.6492L10.5317 12.5779L11.3349 10.9316L12.1381 12.5779H14.0333L12.6345 13.9686L13.0556 15.7316L11.3349 14.8282Z" clip-rule="evenodd"/></g></g></g></g></g></g></g><defs><filter id="filter0_dd_91_23891" width="42" height="30" x="0" y="0" color-interpolation-filters="sRGB" filterUnits="userSpaceOnUse"><feFlood flood-opacity="0" result="BackgroundImageFix"/><feColorMatrix in="SourceAlpha" result="hardAlpha" values="0 0 0 0 0 0 0 0 0 0 0 0 0 0 0 0 0 0 127 0"/><feOffset dy="1"/><feGaussianBlur stdDeviation="1"/><feColorMatrix values="0 0 0 0 0.0627451 0 0 0 0 0.0941176 0 0 0 0 0.156863 0 0 0 0.06 0"/><feBlend in2="BackgroundImageFix" result="effect1_dropShadow_91_23891"/><feColorMatrix in="SourceAlpha" result="hardAlpha" values="0 0 0 0 0 0 0 0 0 0 0 0 0 0 0 0 0 0 127 0"/><feOffset dy="1"/><feGaussianBlur stdDeviation="1.5"/><feColorMatrix values="0 0 0 0 0.0627451 0 0 0 0 0.0941176 0 0 0 0 0.156863 0 0 0 0.1 0"/><feBlend in2="effect1_dropShadow_91_23891" result="effect2_dropShadow_91_23891"/><feBlend in="SourceGraphic" in2="effect2_dropShadow_91_23891" result="shape"/></filter><clipPath id="clip0_91_23891"><rect width="36" height="24" x="3" y="2" fill="white" rx="2"/></clipPath></defs></svg>