<svg xmlns="http://www.w3.org/2000/svg" fill="none" stroke="currentColor" aria-hidden="true" viewBox="0 0 32 32"><g id="Icon-ClockClockwise"><g clip-path="url(#clip0_11_1302)"><g id="size=md (32px)"><g id="ClockClockwise"><path id="Vector" stroke-linecap="round" stroke-linejoin="round" stroke-width="2" d="M16 10V16"/><path id="Vector_2" stroke-linecap="round" stroke-linejoin="round" stroke-width="2" d="M21.2 19L16 16"/><path id="Vector_3" stroke-linecap="round" stroke-linejoin="round" stroke-width="2" d="M23.0254 12.4625H28.0254V7.46252"/><path id="Vector_4" stroke-linecap="round" stroke-linejoin="round" stroke-width="2" d="M23.7755 23.775C22.2375 25.3143 20.2775 26.3628 18.1434 26.788C16.0094 27.2132 13.7972 26.9958 11.7867 26.1635C9.77619 25.3312 8.05769 23.9213 6.8486 22.1122C5.63951 20.3031 4.99414 18.176 4.99414 16C4.99414 13.824 5.63951 11.6969 6.8486 9.8878C8.05769 8.07866 9.77619 6.66877 11.7867 5.83647C13.7972 5.00417 16.0094 4.78686 18.1434 5.21202C20.2775 5.63719 22.2375 6.68573 23.7755 8.22501L28.0255 12.4625"/></g></g></g></g><defs><clipPath id="clip0_11_1302"><rect width="32" height="32" fill="white" rx="5"/></clipPath></defs></svg>