<svg xmlns="http://www.w3.org/2000/svg" fill="none" stroke="currentColor" aria-hidden="true" viewBox="0 0 32 32"><g stroke="#101828" stroke-linecap="round" stroke-linejoin="round" stroke-width="2" clip-path="url(#a)"><path d="m16 16-7.6-5.7a1.012 1.012 0 0 1-.4-.8V5a1 1 0 0 1 1-1h14a1 1 0 0 1 1 1v4.45a1.012 1.012 0 0 1-.4.8L16 16Zm0 0-7.6 5.7a1.012 1.012 0 0 0-.4.8V27a1 1 0 0 0 1 1h14a1 1 0 0 0 1-1v-4.45a1.013 1.013 0 0 0-.4-.8L16 16ZM8 8h16"/></g><defs><clipPath id="a"><rect width="32" height="32" fill="#fff" rx="5"/></clipPath></defs></svg>