<svg width="32" height="32" viewBox="0 0 32 32" fill="none" xmlns="http://www.w3.org/2000/svg"><g id="Icon-Watch"><g clip-path="url(#clip0_11_1087)"><g id="size=md (32px)"><g id="Watch"><path id="Vector" d="M16 25C20.9706 25 25 20.9706 25 16C25 11.0294 20.9706 7 16 7C11.0294 7 7 11.0294 7 16C7 20.9706 11.0294 25 16 25Z" stroke="#101828" stroke-width="2" stroke-miterlimit="10"/><path id="Vector_2" d="M16 11V16H21" stroke="#101828" stroke-width="2" stroke-linecap="round" stroke-linejoin="round"/><path id="Vector_3" d="M11 8.5125L11.85 3.825C11.8912 3.59327 12.0128 3.38348 12.1934 3.23258C12.3741 3.08167 12.6021 2.99931 12.8375 3H19.1625C19.3979 2.99931 19.6259 3.08167 19.8066 3.23258C19.9872 3.38348 20.1088 3.59327 20.15 3.825L21 8.5125" stroke="#101828" stroke-width="2" stroke-linecap="round" stroke-linejoin="round"/><path id="Vector_4" d="M11 23.4875L11.85 28.175C11.8912 28.4067 12.0128 28.6165 12.1934 28.7674C12.3741 28.9183 12.6021 29.0007 12.8375 29H19.1625C19.3979 29.0007 19.6259 28.9183 19.8066 28.7674C19.9872 28.6165 20.1088 28.4067 20.15 28.175L21 23.4875" stroke="#101828" stroke-width="2" stroke-linecap="round" stroke-linejoin="round"/></g></g></g></g><defs><clipPath id="clip0_11_1087"><rect width="32" height="32" rx="5" fill="white"/></clipPath></defs></svg>