<svg width="32" height="32" viewBox="0 0 32 32" fill="none" xmlns="http://www.w3.org/2000/svg"><g id="Icon-UserList"><g clip-path="url(#clip0_11_212)"><g id="size=md (32px)"><g id="UserList"><path id="Vector" d="M10 18C12.7614 18 15 15.7614 15 13C15 10.2386 12.7614 8 10 8C7.23858 8 5 10.2386 5 13C5 15.7614 7.23858 18 10 18Z" stroke="#101828" stroke-width="2" stroke-linecap="round" stroke-linejoin="round"/><path id="Vector_2" d="M19 10H31" stroke="#101828" stroke-width="2" stroke-linecap="round" stroke-linejoin="round"/><path id="Vector_3" d="M19 16H31" stroke="#101828" stroke-width="2" stroke-linecap="round" stroke-linejoin="round"/><path id="Vector_4" d="M22 22H31" stroke="#101828" stroke-width="2" stroke-linecap="round" stroke-linejoin="round"/><path id="Vector_5" d="M2.25 24C2.6906 22.2792 3.6914 20.7539 5.09462 19.6647C6.49784 18.5755 8.22366 17.9843 10 17.9843C11.7763 17.9843 13.5022 18.5755 14.9054 19.6647C16.3086 20.7539 17.3094 22.2792 17.75 24" stroke="#101828" stroke-width="2" stroke-linecap="round" stroke-linejoin="round"/></g></g></g><rect x="0.5" y="0.5" width="31" height="31" rx="4.5" stroke="#3D90E3" stroke-dasharray="10 5"/></g><defs><clipPath id="clip0_11_212"><rect width="32" height="32" rx="5" fill="white"/></clipPath></defs></svg>