<svg width="32" height="32" viewBox="0 0 32 32" fill="none" xmlns="http://www.w3.org/2000/svg"><g id="Icon-UserSwitch"><g clip-path="url(#clip0_11_21)"><g id="size=md (32px)"><g id="UserSwitch"><path id="Vector" d="M16 20C18.7614 20 21 17.7614 21 15C21 12.2386 18.7614 10 16 10C13.2386 10 11 12.2386 11 15C11 17.7614 13.2386 20 16 20Z" stroke="#101828" stroke-width="2" stroke-linecap="round" stroke-linejoin="round"/><path id="Vector_2" d="M7.97461 24.925C8.727 23.443 9.87506 22.1983 11.2915 21.3289C12.708 20.4595 14.3376 19.9992 15.9996 19.9992C17.6616 19.9992 19.2912 20.4595 20.7077 21.3289C22.1242 22.1983 23.2722 23.443 24.0246 24.925" stroke="#101828" stroke-width="2" stroke-linecap="round" stroke-linejoin="round"/><path id="Vector_3" d="M25 16L28 19L31 16" stroke="#101828" stroke-width="2" stroke-linecap="round" stroke-linejoin="round"/><path id="Vector_4" d="M1 16L4 13L7 16" stroke="#101828" stroke-width="2" stroke-linecap="round" stroke-linejoin="round"/><path id="Vector_5" d="M27.9996 19V16C28.0024 13.4073 27.1655 10.8835 25.6141 8.80623C24.0627 6.72898 21.8802 5.21005 19.3934 4.47681C16.9065 3.74357 14.2491 3.83546 11.8189 4.73873C9.38867 5.64199 7.31634 7.30805 5.91211 9.48751" stroke="#101828" stroke-width="2" stroke-linecap="round" stroke-linejoin="round"/><path id="Vector_6" d="M4.00001 13V16C3.99718 18.5927 4.83411 21.1165 6.38554 23.1938C7.93696 25.271 10.1194 26.79 12.6062 27.5232C15.0931 28.2564 17.7505 28.1646 20.1807 27.2613C22.6109 26.358 24.6833 24.692 26.0875 22.5125" stroke="#101828" stroke-width="2" stroke-linecap="round" stroke-linejoin="round"/></g></g></g><rect x="0.5" y="0.5" width="31" height="31" rx="4.5" stroke="#3D90E3" stroke-dasharray="10 5"/></g><defs><clipPath id="clip0_11_21"><rect width="32" height="32" rx="5" fill="white"/></clipPath></defs></svg>