<svg width="32" height="32" viewBox="0 0 32 32" fill="none" xmlns="http://www.w3.org/2000/svg"><g id="Icon-FileZip"><g clip-path="url(#clip0_12_1143)"><g id="size=md (32px)"><g id="FileZip"><path id="Vector" d="M6 16V5C6 4.73478 6.10536 4.48043 6.29289 4.29289C6.48043 4.10536 6.73478 4 7 4H19L26 11V16" stroke="#101828" stroke-width="2" stroke-linecap="round" stroke-linejoin="round"/><path id="Vector_2" d="M19 4V11H26" stroke="#101828" stroke-width="2" stroke-linecap="round" stroke-linejoin="round"/><path id="Vector_3" d="M21 25H23C23.5304 25 24.0391 24.7893 24.4142 24.4142C24.7893 24.0391 25 23.5304 25 23C25 22.4696 24.7893 21.9609 24.4142 21.5858C24.0391 21.2107 23.5304 21 23 21H21V27" stroke="#101828" stroke-width="2" stroke-linecap="round" stroke-linejoin="round"/><path id="Vector_4" d="M16 21V27" stroke="#101828" stroke-width="2" stroke-linecap="round" stroke-linejoin="round"/><path id="Vector_5" d="M7 21H11L7 27H11" stroke="#101828" stroke-width="2" stroke-linecap="round" stroke-linejoin="round"/></g></g></g></g><defs><clipPath id="clip0_12_1143"><rect width="32" height="32" rx="5" fill="white"/></clipPath></defs></svg>