<svg xmlns="http://www.w3.org/2000/svg" width="32" height="32" fill="none"><g clip-path="url(#a)" stroke="#101828" stroke-linecap="round" stroke-linejoin="round" stroke-width="2"><path d="M4 26V8a1 1 0 0 1 1-1h6.662c.217 0 .427.071.6.2l3.476 2.6c.173.129.383.2.6.2H25a1 1 0 0 1 1 1v3"/><path d="m4 26 3.75-9.375A.988.988 0 0 1 8.675 16H14.7a1.05 1.05 0 0 0 .55-.162l2.5-1.675A1.05 1.05 0 0 1 18.3 14h10.313a1 1 0 0 1 .95 1.313L26 26H4Z"/></g><defs><clipPath id="a"><rect width="32" height="32" fill="#fff" rx="5"/></clipPath></defs></svg>