<svg width="32" height="32" viewBox="0 0 32 32" fill="none" xmlns="http://www.w3.org/2000/svg"><g id="Icon-PaperclipHorizontal"><g clip-path="url(#clip0_12_373)"><g id="size=md (32px)"><g id="PaperclipHorizontal"><path id="Vector" d="M9.74961 18H23.7496C24.28 18 24.7887 17.7893 25.1638 17.4142C25.5389 17.0391 25.7496 16.5304 25.7496 16C25.7496 15.4696 25.5389 14.9609 25.1638 14.5858C24.7887 14.2107 24.28 14 23.7496 14H5.74961C3.59961 14 1.84961 15.7875 1.84961 18C1.84961 20.2125 3.59961 22 5.74961 22H23.9996C25.5909 22 27.117 21.3679 28.2423 20.2426C29.3675 19.1174 29.9996 17.5913 29.9996 16C29.9996 14.4087 29.3675 12.8826 28.2423 11.7574C27.117 10.6321 25.5909 10 23.9996 10H9.99961" stroke="#101828" stroke-width="2" stroke-linecap="round" stroke-linejoin="round"/></g></g></g></g><defs><clipPath id="clip0_12_373"><rect width="32" height="32" rx="5" fill="white"/></clipPath></defs></svg>