<svg width="32" height="32" viewBox="0 0 32 32" fill="none" xmlns="http://www.w3.org/2000/svg"><g id="Icon-PushPin"><g clip-path="url(#clip0_12_217)"><g id="size=md (32px)"><g id="PushPin"><path id="Vector" d="M11 21L6 26" stroke="#101828" stroke-width="2" stroke-linecap="round" stroke-linejoin="round"/><path id="Vector_2" d="M19.2875 3.71251L11.5 11.5C11.5 11.5 8.03754 9.76251 4.32504 12.7625C4.2158 12.8509 4.12642 12.9613 4.06272 13.0866C3.99903 13.2119 3.96245 13.3492 3.95537 13.4895C3.94829 13.6299 3.97088 13.7701 4.02165 13.9012C4.07243 14.0322 4.15025 14.1511 4.25004 14.25L17.725 27.725C17.8259 27.8276 17.9477 27.9073 18.0822 27.9585C18.2167 28.0098 18.3606 28.0314 18.5042 28.0219C18.6478 28.0124 18.7877 27.972 18.9142 27.9035C19.0408 27.835 19.1511 27.74 19.2375 27.625C20.2875 26.2375 21.9375 23.3625 20.5 20.5L28.2875 12.7125C28.382 12.6195 28.4571 12.5086 28.5083 12.3862C28.5595 12.2639 28.5859 12.1326 28.5859 12C28.5859 11.8674 28.5595 11.7361 28.5083 11.6138C28.4571 11.4915 28.382 11.3806 28.2875 11.2875L20.7125 3.71251C20.6195 3.61803 20.5086 3.54299 20.3863 3.49178C20.2639 3.44056 20.1327 3.41418 20 3.41418C19.8674 3.41418 19.7361 3.44056 19.6138 3.49178C19.4915 3.54299 19.3806 3.61803 19.2875 3.71251Z" stroke="#101828" stroke-width="2" stroke-linecap="round" stroke-linejoin="round"/></g></g></g></g><defs><clipPath id="clip0_12_217"><rect width="32" height="32" rx="5" fill="white"/></clipPath></defs></svg>