<svg xmlns="http://www.w3.org/2000/svg" fill="none" stroke="currentColor" aria-hidden="true" viewBox="0 0 32 32"><g stroke="#101828" stroke-linecap="round" stroke-linejoin="round" stroke-width="2" clip-path="url(#a)"><path d="M16 6V3m12 17c-1.825 6.375-10.275 8.6-11.775 8.95a.914.914 0 0 1-.45 0C14.275 28.6 5.825 26.375 4 20v-4.275a1 1 0 0 1 .688-.95l11-3.675c.203-.063.42-.063.624 0l11 3.675a1 1 0 0 1 .688.95V20Zm-12 1v-9.95"/><path d="M7 14V7a1 1 0 0 1 1-1h16a1 1 0 0 1 1 1v7"/></g><defs><clipPath id="a"><rect width="32" height="32" fill="#fff" rx="5"/></clipPath></defs></svg>