<svg xmlns="http://www.w3.org/2000/svg" fill="none" stroke="currentColor" aria-hidden="true" viewBox="0 0 32 32"><g id="Icon-Door"><g clip-path="url(#clip0_10_1884)"><g id="size=md (32px)"><g id="Door"><path id="Vector" stroke-linecap="round" stroke-linejoin="round" stroke-width="2" d="M3 28H29"/><path id="Vector_2" stroke-linecap="round" stroke-linejoin="round" stroke-width="2" d="M7 28V5C7 4.73478 7.10536 4.48043 7.29289 4.29289C7.48043 4.10536 7.73478 4 8 4H24C24.2652 4 24.5196 4.10536 24.7071 4.29289C24.8946 4.48043 25 4.73478 25 5V28"/><path id="Vector_3" fill="#101828" d="M19.5 17.5C20.3284 17.5 21 16.8284 21 16C21 15.1716 20.3284 14.5 19.5 14.5C18.6716 14.5 18 15.1716 18 16C18 16.8284 18.6716 17.5 19.5 17.5Z"/></g></g></g></g><defs><clipPath id="clip0_10_1884"><rect width="32" height="32" fill="white" rx="5"/></clipPath></defs></svg>