<svg xmlns="http://www.w3.org/2000/svg" fill="none" stroke="currentColor" aria-hidden="true" viewBox="0 0 32 32"><g id="Icon-GasPump"><g clip-path="url(#clip0_10_1808)"><g id="size=md (32px)"><g id="GasPump"><path id="Vector" stroke-linecap="round" stroke-linejoin="round" stroke-width="2" d="M7 27V7C7 6.46957 7.21071 5.96086 7.58579 5.58579C7.96086 5.21071 8.46957 5 9 5H19C19.5304 5 20.0391 5.21071 20.4142 5.58579C20.7893 5.96086 21 6.46957 21 7V27"/><path id="Vector_2" stroke-linecap="round" stroke-linejoin="round" stroke-width="2" d="M4 27H24"/><path id="Vector_3" stroke-linecap="round" stroke-linejoin="round" stroke-width="2" d="M21 14H24C24.5304 14 25.0391 14.2107 25.4142 14.5858C25.7893 14.9609 26 15.4696 26 16V21C26 21.5304 26.2107 22.0391 26.5858 22.4142C26.9609 22.7893 27.4696 23 28 23C28.5304 23 29.0391 22.7893 29.4142 22.4142C29.7893 22.0391 30 21.5304 30 21V10.825C29.9977 10.2952 29.7866 9.78764 29.4125 9.4125L27 7"/><path id="Vector_4" stroke-linecap="round" stroke-linejoin="round" stroke-width="2" d="M17 14H11"/></g></g></g></g><defs><clipPath id="clip0_10_1808"><rect width="32" height="32" fill="white" rx="5"/></clipPath></defs></svg>