<svg xmlns="http://www.w3.org/2000/svg" fill="none" stroke="currentColor" aria-hidden="true" viewBox="0 0 32 32"><g stroke="#101828" stroke-linecap="round" stroke-linejoin="round" stroke-width="2" clip-path="url(#a)"><path d="M16 28c6.627 0 12-5.373 12-12S22.627 4 16 4 4 9.373 4 16s5.373 12 12 12Z"/><path d="m6.2 22.925 1.463-.887a1 1 0 0 0 .475-.85l.025-4.513a.962.962 0 0 1 .162-.525l2.475-3.887a1.012 1.012 0 0 1 1.438-.275l2.45 1.774c.211.148.468.214.725.188l3.937-.537a.975.975 0 0 0 .613-.338l2.775-3.2a1.01 1.01 0 0 0 .237-.7l-.137-3.037m.55 19.324-1.35-1.35a1.025 1.025 0 0 0-.45-.262l-2.688-.7a1 1 0 0 1-.725-1.112l.288-2.026a1.025 1.025 0 0 1 .612-.774l3.8-1.588a1 1 0 0 1 1.063.188l3.112 2.85"/></g><defs><clipPath id="a"><rect width="32" height="32" fill="#fff" rx="5"/></clipPath></defs></svg>