<svg xmlns="http://www.w3.org/2000/svg" fill="none" stroke="currentColor" aria-hidden="true" viewBox="0 0 32 32"><g id="Icon-GlobeStand"><g clip-path="url(#clip0_10_1704)"><g id="size=md (32px)"><g id="GlobeStand"><path id="Vector" stroke-linecap="round" stroke-linejoin="round" stroke-width="2" d="M16 21C20.9706 21 25 16.9706 25 12C25 7.02944 20.9706 3 16 3C11.0294 3 7 7.02944 7 12C7 16.9706 11.0294 21 16 21Z"/><path id="Vector_2" stroke-linecap="round" stroke-linejoin="round" stroke-width="2" d="M25.1874 21.1875C22.7507 23.6242 19.4459 24.9931 15.9999 24.9931C12.5539 24.9931 9.2491 23.6242 6.81242 21.1875C4.37575 18.7508 3.00684 15.446 3.00684 12C3.00684 8.55402 4.37575 5.24918 6.81242 2.8125"/><path id="Vector_3" stroke-linecap="round" stroke-linejoin="round" stroke-width="2" d="M12 29H20"/><path id="Vector_4" stroke-linecap="round" stroke-linejoin="round" stroke-width="2" d="M16 25V29"/></g></g></g></g><defs><clipPath id="clip0_10_1704"><rect width="32" height="32" fill="white" rx="5"/></clipPath></defs></svg>