<svg xmlns="http://www.w3.org/2000/svg" fill="none" stroke="currentColor" aria-hidden="true" viewBox="0 0 32 32"><g stroke="#101828" stroke-linecap="round" stroke-linejoin="round" stroke-width="2" clip-path="url(#a)"><path d="M16 28c6.627 0 12-5.373 12-12S22.627 4 16 4 4 9.373 4 16s5.373 12 12 12Z"/><path d="m26.775 21.3-6.788-4.175a.9.9 0 0 0-.387-.137l-2.863-.388a.975.975 0 0 0-1.037.587l-1.713 3.838a1 1 0 0 0 .175 1.088l2.35 2.537a1.025 1.025 0 0 1 .25.875L16.275 28"/><path d="M8.125 6.95 7 9.6a1 1 0 0 0-.012.738l1.437 3.825a.988.988 0 0 0 .725.637l2.675.575a.975.975 0 0 1 .688.537l.475.988a1.025 1.025 0 0 0 .9.563h1.687"/><path d="m19.063 4.388 1.162 2.1a1.013 1.013 0 0 1-.2 1.225l-3.362 3.037a.897.897 0 0 1-.188.137l-1.537.85c-.147.078-.31.121-.475.126h-2.675a1.013 1.013 0 0 0-.925.612l-1.038 2.463"/></g><defs><clipPath id="a"><rect width="32" height="32" fill="#fff" rx="5"/></clipPath></defs></svg>