<svg xmlns="http://www.w3.org/2000/svg" fill="none" stroke="currentColor" aria-hidden="true" viewBox="0 0 32 32"><g id="Icon-Headlights"><g clip-path="url(#clip0_10_1679)"><g id="size=md (32px)"><g id="Headlights"><path id="Vector" stroke-linecap="round" stroke-linejoin="round" stroke-width="2" d="M21 10H30"/><path id="Vector_2" stroke-linecap="round" stroke-linejoin="round" stroke-width="2" d="M21 22H30"/><path id="Vector_3" stroke-linecap="round" stroke-linejoin="round" stroke-width="2" d="M21 14H30"/><path id="Vector_4" stroke-linecap="round" stroke-linejoin="round" stroke-width="2" d="M21 18H30"/><path id="Vector_5" stroke-linecap="round" stroke-linejoin="round" stroke-width="2" d="M11.0002 25C9.81304 25 8.63759 24.7652 7.54157 24.309C6.44554 23.8528 5.45061 23.1843 4.61406 22.3419C3.77751 21.4995 3.11588 20.5 2.66728 19.4008C2.21868 18.3017 1.99197 17.1246 2.00022 15.9375C2.03772 10.975 6.15022 7 11.1127 7H16.0002C16.2654 7 16.5198 7.10536 16.7073 7.29289C16.8949 7.48043 17.0002 7.73478 17.0002 8V24C17.0002 24.2652 16.8949 24.5196 16.7073 24.7071C16.5198 24.8946 16.2654 25 16.0002 25H11.0002Z"/></g></g></g></g><defs><clipPath id="clip0_10_1679"><rect width="32" height="32" fill="white" rx="5"/></clipPath></defs></svg>