<svg xmlns="http://www.w3.org/2000/svg" fill="none" stroke="currentColor" aria-hidden="true" viewBox="0 0 32 32"><g clip-path="url(#a)"><path stroke-linecap="round" stroke-linejoin="round" stroke-width="2" d="M19 26v-6a1 1 0 0 0-1-1h-4a1 1 0 0 0-1 1v6a1 1 0 0 1-1 1H6a1 1 0 0 1-1-1V14.437a1.038 1.038 0 0 1 .325-.737l10-9.087a1 1 0 0 1 1.35 0l10 9.087a1.039 1.039 0 0 1 .325.738V26a1 1 0 0 1-1 1h-6a1 1 0 0 1-1-1Z"/></g><defs><clipPath id="a"><rect width="32" height="32" fill="#fff" rx="5"/></clipPath></defs></svg>