<svg xmlns="http://www.w3.org/2000/svg" fill="none" stroke="currentColor" aria-hidden="true" viewBox="0 0 32 32"><g id="Icon-Jeep"><g clip-path="url(#clip0_10_1600)"><g id="size=md (32px)"><g id="Jeep"><path id="Vector" stroke-linecap="round" stroke-linejoin="round" stroke-width="2" d="M27.5 22V26C27.5 26.2652 27.3946 26.5196 27.2071 26.7071C27.0196 26.8946 26.7652 27 26.5 27H23.5C23.2348 27 22.9804 26.8946 22.7929 26.7071C22.6054 26.5196 22.5 26.2652 22.5 26V22"/><path id="Vector_2" stroke-linecap="round" stroke-linejoin="round" stroke-width="2" d="M9.5 22V26C9.5 26.2652 9.39464 26.5196 9.20711 26.7071C9.01957 26.8946 8.76522 27 8.5 27H5.5C5.23478 27 4.98043 26.8946 4.79289 26.7071C4.60536 26.5196 4.5 26.2652 4.5 26V22"/><path id="Vector_3" stroke-linecap="round" stroke-linejoin="round" stroke-width="2" d="M2 12H30"/><path id="Vector_4" stroke-linecap="round" stroke-linejoin="round" stroke-width="2" d="M18 16V22"/><path id="Vector_5" stroke-linecap="round" stroke-linejoin="round" stroke-width="2" d="M14 16V22"/><path id="Vector_6" stroke-linecap="round" stroke-linejoin="round" stroke-width="2" d="M27.5 22H4.5V12L5.375 5.8625C5.40812 5.62391 5.52625 5.40529 5.70767 5.24683C5.8891 5.08837 6.12162 5.00072 6.3625 5H25.6375C25.8784 5.00072 26.1109 5.08837 26.2923 5.24683C26.4738 5.40529 26.5919 5.62391 26.625 5.8625L27.5 12V22Z"/><path id="Vector_7" fill="#101828" d="M9 18C9.82843 18 10.5 17.3284 10.5 16.5C10.5 15.6716 9.82843 15 9 15C8.17157 15 7.5 15.6716 7.5 16.5C7.5 17.3284 8.17157 18 9 18Z"/><path id="Vector_8" fill="#101828" d="M23 18C23.8284 18 24.5 17.3284 24.5 16.5C24.5 15.6716 23.8284 15 23 15C22.1716 15 21.5 15.6716 21.5 16.5C21.5 17.3284 22.1716 18 23 18Z"/></g></g></g></g><defs><clipPath id="clip0_10_1600"><rect width="32" height="32" fill="white" rx="5"/></clipPath></defs></svg>