<svg xmlns="http://www.w3.org/2000/svg" fill="none" stroke="currentColor" aria-hidden="true" viewBox="0 0 32 32"><g id="Icon-Path"><g clip-path="url(#clip0_10_1517)"><g id="size=md (32px)"><g id="Path"><path id="Vector" stroke-linecap="round" stroke-linejoin="round" stroke-width="2" d="M25 28C26.6569 28 28 26.6569 28 25C28 23.3431 26.6569 22 25 22C23.3431 22 22 23.3431 22 25C22 26.6569 23.3431 28 25 28Z"/><path id="Vector_2" stroke-linecap="round" stroke-linejoin="round" stroke-width="2" d="M9 7H21C22.0609 7 23.0783 7.42143 23.8284 8.17157C24.5786 8.92172 25 9.93913 25 11C25 12.0609 24.5786 13.0783 23.8284 13.8284C23.0783 14.5786 22.0609 15 21 15H9C7.67392 15 6.40215 15.5268 5.46447 16.4645C4.52678 17.4021 4 18.6739 4 20C4 21.3261 4.52678 22.5979 5.46447 23.5355C6.40215 24.4732 7.67392 25 9 25H22"/></g></g></g></g><defs><clipPath id="clip0_10_1517"><rect width="32" height="32" fill="white" rx="5"/></clipPath></defs></svg>