<svg xmlns="http://www.w3.org/2000/svg" fill="none" stroke="currentColor" aria-hidden="true" viewBox="0 0 32 32"><g id="Icon-Rocket"><g clip-path="url(#clip0_10_1461)"><g id="size=md (32px)"><g id="Rocket"><path id="Vector" stroke-linecap="round" stroke-linejoin="round" stroke-width="2" d="M18 28H14"/><path id="Vector_2" stroke-linecap="round" stroke-linejoin="round" stroke-width="2" d="M15.3749 2.47502C12.9999 4.37502 5.06243 11.975 11.9999 24H19.9999C26.7999 11.975 18.9749 4.38752 16.6249 2.47502C16.4496 2.32857 16.2284 2.24835 15.9999 2.24835C15.7715 2.24835 15.5503 2.32857 15.3749 2.47502Z"/><path id="Vector_3" stroke-linecap="round" stroke-linejoin="round" stroke-width="2" d="M9.23769 13.925L5.31269 18.625C5.21381 18.7403 5.14404 18.8777 5.10924 19.0256C5.07444 19.1735 5.07562 19.3276 5.11269 19.475L6.65019 26.4375C6.68729 26.603 6.76587 26.7563 6.87855 26.8831C6.99123 27.0099 7.1343 27.1059 7.2943 27.1621C7.45431 27.2184 7.62599 27.233 7.79321 27.2047C7.96043 27.1763 8.11768 27.1059 8.25019 27L12.0002 24"/><path id="Vector_4" stroke-linecap="round" stroke-linejoin="round" stroke-width="2" d="M22.6875 13.825L26.6875 18.625C26.7864 18.7404 26.8561 18.8778 26.8909 19.0257C26.9257 19.1736 26.9246 19.3277 26.8875 19.475L25.35 26.4375C25.3129 26.603 25.2343 26.7564 25.1216 26.8831C25.009 27.0099 24.8659 27.1059 24.7059 27.1622C24.5459 27.2184 24.3742 27.233 24.207 27.2047C24.0398 27.1763 23.8825 27.1059 23.75 27L20 24"/><path id="Vector_5" fill="#101828" d="M16 13.5C16.8284 13.5 17.5 12.8284 17.5 12C17.5 11.1716 16.8284 10.5 16 10.5C15.1716 10.5 14.5 11.1716 14.5 12C14.5 12.8284 15.1716 13.5 16 13.5Z"/></g></g></g></g><defs><clipPath id="clip0_10_1461"><rect width="32" height="32" fill="white" rx="5"/></clipPath></defs></svg>