<svg xmlns="http://www.w3.org/2000/svg" fill="none" stroke="currentColor" aria-hidden="true" viewBox="0 0 32 32"><g stroke="#101828" stroke-linecap="round" stroke-linejoin="round" stroke-width="2" clip-path="url(#a)"><path d="M23 4H9a1 1 0 0 0-1 1v22a1 1 0 0 0 1 1h14a1 1 0 0 0 1-1V5a1 1 0 0 0-1-1Z"/><path d="M16 14a3 3 0 1 0 0-6 3 3 0 0 0 0 6Zm0 10a3 3 0 1 0 0-6 3 3 0 0 0 0 6Zm8-15h3m-3 10h3M5 9h3M5 19h3"/></g><defs><clipPath id="a"><rect width="32" height="32" fill="#fff" rx="5"/></clipPath></defs></svg>