<svg xmlns="http://www.w3.org/2000/svg" fill="none" stroke="currentColor" aria-hidden="true" viewBox="0 0 32 32"><g id="Icon-Truck"><g clip-path="url(#clip0_10_1161)"><g id="size=md (32px)"><g id="Truck"><path id="Vector" stroke-linecap="round" stroke-linejoin="round" stroke-width="2" d="M22 10H27.325C27.5242 9.99872 27.7192 10.0577 27.8843 10.1693C28.0494 10.2808 28.1769 10.4397 28.25 10.625L30 15"/><path id="Vector_2" stroke-linecap="round" stroke-linejoin="round" stroke-width="2" d="M2 18H22"/><path id="Vector_3" stroke-miterlimit="10" stroke-width="2" d="M23.5 27C25.1569 27 26.5 25.6569 26.5 24C26.5 22.3431 25.1569 21 23.5 21C21.8431 21 20.5 22.3431 20.5 24C20.5 25.6569 21.8431 27 23.5 27Z"/><path id="Vector_4" stroke-miterlimit="10" stroke-width="2" d="M8.5 27C10.1569 27 11.5 25.6569 11.5 24C11.5 22.3431 10.1569 21 8.5 21C6.84315 21 5.5 22.3431 5.5 24C5.5 25.6569 6.84315 27 8.5 27Z"/><path id="Vector_5" stroke-linecap="round" stroke-linejoin="round" stroke-width="2" d="M20.5 24H11.5"/><path id="Vector_6" stroke-linecap="round" stroke-linejoin="round" stroke-width="2" d="M5.5 24H3C2.73478 24 2.48043 23.8946 2.29289 23.7071C2.10536 23.5196 2 23.2652 2 23V9C2 8.73478 2.10536 8.48043 2.29289 8.29289C2.48043 8.10536 2.73478 8 3 8H22V21.4"/><path id="Vector_7" stroke-linecap="round" stroke-linejoin="round" stroke-width="2" d="M22 15H30V23C30 23.2652 29.8946 23.5196 29.7071 23.7071C29.5196 23.8946 29.2652 24 29 24H26.5"/></g></g></g></g><defs><clipPath id="clip0_10_1161"><rect width="32" height="32" fill="white" rx="5"/></clipPath></defs></svg>