<svg xmlns="http://www.w3.org/2000/svg" fill="none" stroke="currentColor" aria-hidden="true" viewBox="0 0 32 32"><g stroke="#101828" stroke-width="2" clip-path="url(#a)"><path stroke-linecap="round" stroke-linejoin="round" d="M22 10h5.325a.987.987 0 0 1 .925.625L30 15M2 18h20"/><path stroke-miterlimit="10" d="M23.5 27a3 3 0 1 0 0-6 3 3 0 0 0 0 6Zm-15 0a3 3 0 1 0 0-6 3 3 0 0 0 0 6Z"/><path stroke-linecap="round" stroke-linejoin="round" d="M20.5 24h-9m-6 0H3a1 1 0 0 1-1-1V9a1 1 0 0 1 1-1h19v13.4m0-6.4h8v8a1 1 0 0 1-1 1h-2.5"/></g><defs><clipPath id="a"><rect width="32" height="32" fill="#fff" rx="5"/></clipPath></defs></svg>