<svg xmlns="http://www.w3.org/2000/svg" fill="none" stroke="currentColor" aria-hidden="true" viewBox="0 0 32 32"><g stroke="#101828" stroke-linecap="round" stroke-linejoin="round" stroke-width="2" clip-path="url(#a)"><path d="M16 18a3 3 0 1 0 0-6 3 3 0 0 0 0 6Z"/><path d="M16.363 28h-.725a2 2 0 0 1-1.963-1.613l-1.2-6A1.998 1.998 0 0 1 14.438 18h3.125a2 2 0 0 1 1.962 2.387l-1.2 6A2 2 0 0 1 16.363 28v0Z"/><path d="M8.537 18.9a8 8 0 1 1 14.925 0"/><path d="M9.55 26.112a12 12 0 1 1 12.9 0"/></g><defs><clipPath id="a"><rect width="32" height="32" fill="#fff" rx="5"/></clipPath></defs></svg>