<svg xmlns="http://www.w3.org/2000/svg" fill="none" stroke="currentColor" aria-hidden="true" viewBox="0 0 32 32"><g stroke="#101828" stroke-linecap="round" stroke-linejoin="round" stroke-width="2" clip-path="url(#a)"><path d="M20.25 20.25a4.25 4.25 0 1 0 0-8.5 4.25 4.25 0 0 0 0 8.5ZM16 11.75v-8.5h-4.25a4.25 4.25 0 1 0 0 8.5H16Z"/><path d="M16 20.25v-8.5h-4.25a4.25 4.25 0 0 0 0 8.5H16Zm0-8.5v-8.5h4.25a4.25 4.25 0 1 1 0 8.5H16Zm0 8.5v4.25a4.25 4.25 0 1 1-4.25-4.25H16Z"/></g><defs><clipPath id="a"><rect width="32" height="32" fill="#fff" rx="5"/></clipPath></defs></svg>