<svg xmlns="http://www.w3.org/2000/svg" fill="none" stroke="currentColor" aria-hidden="true" viewBox="0 0 32 32"><g stroke="#101828" stroke-linecap="round" stroke-linejoin="round" stroke-width="2" clip-path="url(#a)"><path d="M10.375 14h11.25l2.825-7.538a.5.5 0 0 1 .95.05l3.425 12.813a1.025 1.025 0 0 1-.4 1.075l-11.85 8.2a1.013 1.013 0 0 1-1.15 0l-11.85-8.2a1.025 1.025 0 0 1-.4-1.075L6.6 6.512a.5.5 0 0 1 .95-.05L10.375 14Z"/><path d="M16.088 28.775 21.625 14H27.4M4.6 14h5.775l5.537 14.775"/></g><defs><clipPath id="a"><rect width="32" height="32" fill="#fff" rx="5"/></clipPath></defs></svg>