<svg xmlns="http://www.w3.org/2000/svg" fill="none" stroke="currentColor" aria-hidden="true" viewBox="0 0 32 32"><g clip-path="url(#a)"><path stroke-miterlimit="10" stroke-width="2" d="M16 21a5 5 0 1 0 0-10 5 5 0 0 0 0 10Z"/><path stroke-linecap="round" stroke-linejoin="round" stroke-width="2" d="M21.5 4.5h-11a6 6 0 0 0-6 6v11a6 6 0 0 0 6 6h11a6 6 0 0 0 6-6v-11a6 6 0 0 0-6-6Z"/><path fill="#101828" d="M22.5 11a1.5 1.5 0 1 0 0-3 1.5 1.5 0 0 0 0 3Z"/></g><defs><clipPath id="a"><rect width="32" height="32" fill="#fff" rx="5"/></clipPath></defs></svg>