<svg xmlns="http://www.w3.org/2000/svg" fill="none" stroke="currentColor" aria-hidden="true" viewBox="0 0 32 32"><g stroke="#101828" stroke-linecap="round" stroke-linejoin="round" stroke-width="2" clip-path="url(#a)"><path d="M19 12h7m-7 8h7M8 9V5a1 1 0 0 1 1-1h16a1 1 0 0 1 1 1v22a1 1 0 0 1-1 1H9a1 1 0 0 1-1-1v-4"/><path d="m8 13 1.5 6 2-4.5 2 4.5 1.5-6"/><path d="M18 9H5a1 1 0 0 0-1 1v12a1 1 0 0 0 1 1h13a1 1 0 0 0 1-1V10a1 1 0 0 0-1-1Z"/></g><defs><clipPath id="a"><rect width="32" height="32" fill="#fff" rx="5"/></clipPath></defs></svg>