<svg xmlns="http://www.w3.org/2000/svg" fill="none" stroke="currentColor" aria-hidden="true" viewBox="0 0 32 32"><g clip-path="url(#a)"><path stroke-linecap="round" stroke-linejoin="round" stroke-width="2" d="M23.5 6a2 2 0 1 0 0-4 2 2 0 0 0 0 4Zm-3.375 16a8.987 8.987 0 0 1-8.25 0"/><path stroke-linecap="round" stroke-linejoin="round" stroke-width="2" d="m16 9 1-6 4.525.7m-14.1 7.538C9.712 9.838 12.712 9 16 9c3.287 0 6.287.838 8.575 2.238a3 3 0 1 1 3.95 4.35v0c.314.765.475 1.585.475 2.412 0 4.975-5.825 9-13 9S3 22.975 3 18a6.312 6.312 0 0 1 .475-2.412v0a3 3 0 1 1 3.95-4.35v0Z"/><path fill="#101828" d="M11 18.5a2 2 0 1 0 0-4 2 2 0 0 0 0 4Zm10 0a2 2 0 1 0 0-4 2 2 0 0 0 0 4Z"/></g><defs><clipPath id="a"><rect width="32" height="32" fill="#fff" rx="5"/></clipPath></defs></svg>