<svg xmlns="http://www.w3.org/2000/svg" fill="none" stroke="currentColor" aria-hidden="true" viewBox="0 0 32 32"><g stroke="#101828" stroke-linecap="round" stroke-linejoin="round" stroke-width="2" clip-path="url(#a)"><path d="M16 13v3H7a3 3 0 0 1 0-6h6a3 3 0 0 1 3 3v0Z"/><path d="M16 10h-3a2.987 2.987 0 0 1-3-3v0a2.988 2.988 0 0 1 3-3v0a2.987 2.987 0 0 1 3 3v3Z"/><path d="M19 16h-3V7a3 3 0 0 1 6 0v6a3 3 0 0 1-3 3v0Z"/><path d="M22 16v-3a2.988 2.988 0 0 1 3-3v0a2.987 2.987 0 0 1 3 3v0a2.986 2.986 0 0 1-3 3h-3Z"/><path d="M16 19v-3h9a3 3 0 0 1 3 3v0a3 3 0 0 1-3 3h-6a3 3 0 0 1-3-3Z"/><path d="M16 22h3a2.988 2.988 0 0 1 3 3v0a2.986 2.986 0 0 1-3 3 2.986 2.986 0 0 1-3-3v-3Z"/><path d="M13 16h3v9a3 3 0 0 1-3 3v0a3 3 0 0 1-3-3v-6a3 3 0 0 1 3-3v0Z"/><path d="M10 16v3a2.986 2.986 0 0 1-3 3v0a2.986 2.986 0 0 1-3-3 2.987 2.987 0 0 1 3-3h3Z"/></g><defs><clipPath id="a"><rect width="32" height="32" fill="#fff" rx="5"/></clipPath></defs></svg>