<svg xmlns="http://www.w3.org/2000/svg" fill="none" stroke="currentColor" aria-hidden="true" viewBox="0 0 32 32"><g id="Icon-SpotifyLogo"><g clip-path="url(#clip0_11_3379)"><g id="size=md (32px)"><path id="Vector" stroke-linecap="round" stroke-linejoin="round" stroke-width="2" d="M16 28C22.6274 28 28 22.6274 28 16C28 9.37258 22.6274 4 16 4C9.37258 4 4 9.37258 4 16C4 22.6274 9.37258 28 16 28Z"/><path id="Vector_2" stroke-linecap="round" stroke-linejoin="round" stroke-width="2" d="M22.3871 13.5375C20.4075 12.5248 18.2154 11.9978 15.9918 12C13.7683 12.0022 11.5772 12.5335 9.59961 13.55"/><path id="Vector_3" stroke-linecap="round" stroke-linejoin="round" stroke-width="2" d="M20.5377 17.0876C19.1299 16.3708 17.5722 15.9982 15.9924 16.0004C14.4127 16.0025 12.856 16.3794 11.4502 17.1001"/><path id="Vector_4" stroke-linecap="round" stroke-linejoin="round" stroke-width="2" d="M18.6873 20.6375C17.8544 20.2158 16.9334 19.9974 15.9998 20C15.0627 20.0019 14.1387 20.22 13.2998 20.6375"/></g></g></g><defs><clipPath id="clip0_11_3379"><rect width="32" height="32" fill="white" rx="5"/></clipPath></defs></svg>