<svg xmlns="http://www.w3.org/2000/svg" fill="none" stroke="currentColor" aria-hidden="true" viewBox="0 0 32 32"><g id="Icon-Balloon"><g clip-path="url(#clip0_12_7012)"><g id="size=md (32px)"><g id="Balloon"><path id="Vector" stroke-linecap="round" stroke-linejoin="round" stroke-width="2" d="M26 13C26 18.525 21.525 25 16 25C10.475 25 6 18.525 6 13C6 10.3478 7.05357 7.8043 8.92893 5.92893C10.8043 4.05357 13.3478 3 16 3C18.6522 3 21.1957 4.05357 23.0711 5.92893C24.9464 7.8043 26 10.3478 26 13V13Z"/><path id="Vector_2" stroke-linecap="round" stroke-linejoin="round" stroke-width="2" d="M17.35 24.875L19 29H13L14.65 24.875"/><path id="Vector_3" stroke-linecap="round" stroke-linejoin="round" stroke-width="2" d="M17 7.0874C18.2287 7.29199 19.3628 7.87549 20.2436 8.7563C21.1244 9.6371 21.7079 10.7712 21.9125 11.9999"/></g></g></g></g><defs><clipPath id="clip0_12_7012"><rect width="32" height="32" fill="white" rx="5"/></clipPath></defs></svg>