<svg xmlns="http://www.w3.org/2000/svg" fill="none" stroke="currentColor" aria-hidden="true" viewBox="0 0 32 32"><g id="Icon-Buildings"><g clip-path="url(#clip0_12_6850)"><g id="size=md (32px)"><g id="Buildings"><path id="Vector" stroke-linecap="round" stroke-linejoin="round" stroke-width="2" d="M2 27H30"/><path id="Vector_2" stroke-linecap="round" stroke-linejoin="round" stroke-width="2" d="M18 27V5C18 4.73478 17.8946 4.48043 17.7071 4.29289C17.5196 4.10536 17.2652 4 17 4H5C4.73478 4 4.48043 4.10536 4.29289 4.29289C4.10536 4.48043 4 4.73478 4 5V27"/><path id="Vector_3" stroke-linecap="round" stroke-linejoin="round" stroke-width="2" d="M28 27V13C28 12.7348 27.8946 12.4804 27.7071 12.2929C27.5196 12.1054 27.2652 12 27 12H18"/><path id="Vector_4" stroke-linecap="round" stroke-linejoin="round" stroke-width="2" d="M8 9H12"/><path id="Vector_5" stroke-linecap="round" stroke-linejoin="round" stroke-width="2" d="M10 17H14"/><path id="Vector_6" stroke-linecap="round" stroke-linejoin="round" stroke-width="2" d="M8 22H12"/><path id="Vector_7" stroke-linecap="round" stroke-linejoin="round" stroke-width="2" d="M22 22H24"/><path id="Vector_8" stroke-linecap="round" stroke-linejoin="round" stroke-width="2" d="M22 17H24"/></g></g></g></g><defs><clipPath id="clip0_12_6850"><rect width="32" height="32" fill="white" rx="5"/></clipPath></defs></svg>