<svg xmlns="http://www.w3.org/2000/svg" fill="none" stroke="currentColor" aria-hidden="true" viewBox="0 0 32 32"><g id="Icon-Cookie"><g clip-path="url(#clip0_12_6659)"><g id="size=md (32px)"><g id="Cookie"><path id="Vector" stroke-linecap="round" stroke-linejoin="round" stroke-width="2" d="M27.9996 15.925C28.0112 17.5149 27.7054 19.0912 27.1001 20.5615C26.4948 22.0318 25.6022 23.3665 24.4746 24.4875C19.8621 29.1 12.3121 29.15 7.63708 24.6C5.92193 22.931 4.745 20.7873 4.25749 18.4443C3.76998 16.1013 3.99416 13.666 4.90123 11.4514C5.80831 9.23684 7.35684 7.34403 9.34786 6.01622C11.3389 4.68841 13.6814 3.98625 16.0746 3.99995C16.2243 4.00216 16.3717 4.03756 16.5061 4.10359C16.6405 4.16962 16.7586 4.26464 16.8519 4.38181C16.9451 4.49898 17.0112 4.63538 17.0454 4.78118C17.0796 4.92697 17.081 5.07854 17.0496 5.22495C16.9193 5.8057 16.9203 6.40819 17.0525 6.9885C17.1846 7.56882 17.4446 8.11232 17.8135 8.5794C18.1824 9.04648 18.6508 9.42536 19.1847 9.68841C19.7186 9.95146 20.3045 10.0921 20.8996 10.1C21.1648 10.1 21.4191 10.2053 21.6067 10.3928C21.7942 10.5804 21.8996 10.8347 21.8996 11.1C21.9075 11.6951 22.0481 12.2809 22.3111 12.8148C22.5742 13.3487 22.953 13.8172 23.4201 14.186C23.8872 14.5549 24.4307 14.8149 25.011 14.947C25.5913 15.0792 26.1938 15.0802 26.7746 14.95C26.921 14.9185 27.0726 14.9199 27.2184 14.9541C27.3642 14.9883 27.5005 15.0544 27.6177 15.1477C27.7349 15.2409 27.8299 15.359 27.8959 15.4934C27.962 15.6278 27.9974 15.7752 27.9996 15.925V15.925Z"/><path id="Vector_2" fill="#101828" d="M19.5 23C20.3284 23 21 22.3284 21 21.5C21 20.6716 20.3284 20 19.5 20C18.6716 20 18 20.6716 18 21.5C18 22.3284 18.6716 23 19.5 23Z"/><path id="Vector_3" fill="#101828" d="M11.5 22C12.3284 22 13 21.3284 13 20.5C13 19.6716 12.3284 19 11.5 19C10.6716 19 10 19.6716 10 20.5C10 21.3284 10.6716 22 11.5 22Z"/><path id="Vector_4" fill="#101828" d="M10.5 15C11.3284 15 12 14.3284 12 13.5C12 12.6716 11.3284 12 10.5 12C9.67157 12 9 12.6716 9 13.5C9 14.3284 9.67157 15 10.5 15Z"/><path id="Vector_5" fill="#101828" d="M17 17C17.8284 17 18.5 16.3284 18.5 15.5C18.5 14.6716 17.8284 14 17 14C16.1716 14 15.5 14.6716 15.5 15.5C15.5 16.3284 16.1716 17 17 17Z"/></g></g></g></g><defs><clipPath id="clip0_12_6659"><rect width="32" height="32" fill="white" rx="5"/></clipPath></defs></svg>