<svg xmlns="http://www.w3.org/2000/svg" fill="none" stroke="currentColor" aria-hidden="true" viewBox="0 0 32 32"><g id="Icon-CurrencyCircleDollar"><g clip-path="url(#clip0_12_6556)"><g id="size=md (32px)"><g id="CurrencyCircleDollar"><path id="Vector" stroke-linecap="round" stroke-linejoin="round" stroke-width="2" d="M16 9V11"/><path id="Vector_2" stroke-linecap="round" stroke-linejoin="round" stroke-width="2" d="M16 21V23"/><path id="Vector_3" stroke-linecap="round" stroke-linejoin="round" stroke-width="2" d="M16 28C22.6274 28 28 22.6274 28 16C28 9.37258 22.6274 4 16 4C9.37258 4 4 9.37258 4 16C4 22.6274 9.37258 28 16 28Z"/><path id="Vector_4" stroke-linecap="round" stroke-linejoin="round" stroke-width="2" d="M13 21H17.5C18.163 21 18.7989 20.7366 19.2678 20.2678C19.7366 19.7989 20 19.163 20 18.5C20 17.837 19.7366 17.2011 19.2678 16.7322C18.7989 16.2634 18.163 16 17.5 16H14.5C13.837 16 13.2011 15.7366 12.7322 15.2678C12.2634 14.7989 12 14.163 12 13.5C12 12.837 12.2634 12.2011 12.7322 11.7322C13.2011 11.2634 13.837 11 14.5 11H19"/></g></g></g></g><defs><clipPath id="clip0_12_6556"><rect width="32" height="32" fill="white" rx="5"/></clipPath></defs></svg>