<svg xmlns="http://www.w3.org/2000/svg" fill="none" stroke="currentColor" aria-hidden="true" viewBox="0 0 32 32"><g stroke="#101828" stroke-linecap="round" stroke-linejoin="round" stroke-width="2" clip-path="url(#a)"><path d="M27 10H5a1 1 0 0 0-1 1v4a1 1 0 0 0 1 1h22a1 1 0 0 0 1-1v-4a1 1 0 0 0-1-1Zm-1 6v9a1 1 0 0 1-1 1H7a1 1 0 0 1-1-1v-9m10-6v16m5.663-17.413C20.238 10 16 10 16 10s0-4.238 1.413-5.663a3.005 3.005 0 0 1 4.25 4.25v0Zm-11.326 0C11.762 10 16 10 16 10s0-4.238-1.413-5.663a3.005 3.005 0 1 0-4.25 4.25v0Z"/></g><defs><clipPath id="a"><rect width="32" height="32" fill="#fff" rx="5"/></clipPath></defs></svg>