<svg xmlns="http://www.w3.org/2000/svg" fill="none" stroke="currentColor" aria-hidden="true" viewBox="0 0 32 32"><g stroke="#101828" stroke-linecap="round" stroke-linejoin="round" stroke-width="2" clip-path="url(#a)"><path d="M6.1 12a1 1 0 0 1-.975-1.213C5.925 6.938 10.488 4 16 4s10.075 2.938 10.875 6.787A1 1 0 0 1 25.9 12H6.1ZM26 21v2a4 4 0 0 1-4 4H10a4 4 0 0 1-4-4v-2"/><path d="m3.5 22 5-2 5 2 5-2 5 2 5-2M3 16h26"/></g><defs><clipPath id="a"><rect width="32" height="32" fill="#fff" rx="5"/></clipPath></defs></svg>