<svg xmlns="http://www.w3.org/2000/svg" fill="none" stroke="currentColor" aria-hidden="true" viewBox="0 0 32 32"><g stroke="#101828" stroke-linecap="round" stroke-linejoin="round" stroke-width="2" clip-path="url(#a)"><path d="M12 7v18m-9-4.1a.987.987 0 0 1 .8-.975 4.013 4.013 0 0 0 0-7.85.987.987 0 0 1-.8-.975V8a1 1 0 0 1 1-1h24a1 1 0 0 1 1 1v3.1a.987.987 0 0 1-.8.975 4.012 4.012 0 0 0 0 7.85.987.987 0 0 1 .8.975V24a1 1 0 0 1-1 1H4a1 1 0 0 1-1-1v-3.1Z"/></g><defs><clipPath id="a"><rect width="32" height="32" fill="#fff" rx="5"/></clipPath></defs></svg>