<svg xmlns="http://www.w3.org/2000/svg" fill="none" stroke="currentColor" aria-hidden="true" viewBox="0 0 32 32"><g id="Icon-Wallet"><g clip-path="url(#clip0_12_5549)"><g id="size=md (32px)"><g id="Wallet"><path id="Vector" stroke-linecap="round" stroke-linejoin="round" stroke-width="2" d="M5 8V24C5 24.5304 5.21071 25.0391 5.58579 25.4142C5.96086 25.7893 6.46957 26 7 26H27C27.2652 26 27.5196 25.8946 27.7071 25.7071C27.8946 25.5196 28 25.2652 28 25V11C28 10.7348 27.8946 10.4804 27.7071 10.2929C27.5196 10.1054 27.2652 10 27 10H7C6.46957 10 5.96086 9.78929 5.58579 9.41421C5.21071 9.03914 5 8.53043 5 8ZM5 8C5 7.46957 5.21071 6.96086 5.58579 6.58579C5.96086 6.21071 6.46957 6 7 6H24"/><path id="Vector_2" fill="#101828" d="M22.5 19.5C23.3284 19.5 24 18.8284 24 18C24 17.1716 23.3284 16.5 22.5 16.5C21.6716 16.5 21 17.1716 21 18C21 18.8284 21.6716 19.5 22.5 19.5Z"/></g></g></g></g><defs><clipPath id="clip0_12_5549"><rect width="32" height="32" fill="white" rx="5"/></clipPath></defs></svg>