<svg width="32" height="32" viewBox="0 0 32 32" fill="none" xmlns="http://www.w3.org/2000/svg"><g id="Icon-CameraSlash"><g clip-path="url(#clip0_12_3896)"><g id="size=md (32px)"><path id="Vector" d="M4.1875 3L27.8125 29" stroke="#101828" stroke-width="2" stroke-linecap="round" stroke-linejoin="round"/><path id="Vector_2" d="M11.75 5.375L12 5H20L22 8H26C26.5304 8 27.0391 8.21071 27.4142 8.58579C27.7893 8.96086 28 9.46957 28 10V23.25" stroke="#101828" stroke-width="2" stroke-linecap="round" stroke-linejoin="round"/><path id="Vector_3" d="M25.0875 26H6C5.46957 26 4.96086 25.7893 4.58579 25.4142C4.21071 25.0391 4 24.5304 4 24V10C4 9.46957 4.21071 8.96086 4.58579 8.58579C4.96086 8.21071 5.46957 8 6 8H8.725" stroke="#101828" stroke-width="2" stroke-linecap="round" stroke-linejoin="round"/><path id="Vector_4" d="M19.2624 19.6C18.8342 20.0414 18.3201 20.3904 17.7517 20.6254C17.1834 20.8604 16.5729 20.9764 15.958 20.9663C15.3431 20.9561 14.7368 20.82 14.1765 20.5664C13.6162 20.3128 13.1139 19.9471 12.7005 19.4917C12.2871 19.0364 11.9714 18.5012 11.773 17.9191C11.5745 17.337 11.4975 16.7204 11.5466 16.1073C11.5958 15.4943 11.77 14.8978 12.0587 14.3548C12.3473 13.8117 12.7442 13.3336 13.2249 12.95" stroke="#101828" stroke-width="2" stroke-linecap="round" stroke-linejoin="round"/></g></g></g><defs><clipPath id="clip0_12_3896"><rect width="32" height="32" rx="5" fill="white"/></clipPath></defs></svg>