<svg width="32" height="32" viewBox="0 0 32 32" fill="none" xmlns="http://www.w3.org/2000/svg"><g id="Icon-ClosedCaptioning"><g clip-path="url(#clip0_12_3880)"><g id="size=md (32px)"><path id="Vector" d="M27 6H5C4.44772 6 4 6.44772 4 7V25C4 25.5523 4.44772 26 5 26H27C27.5523 26 28 25.5523 28 25V7C28 6.44772 27.5523 6 27 6Z" stroke="#101828" stroke-width="2" stroke-linecap="round" stroke-linejoin="round"/><path id="Vector_2" d="M14.5005 18.45C14.0138 18.9465 13.3903 19.2868 12.7095 19.4275C12.0287 19.5683 11.3214 19.5031 10.6778 19.2402C10.0342 18.9774 9.48339 18.5288 9.0957 17.9518C8.70802 17.3747 8.50098 16.6952 8.50098 16C8.50098 15.3048 8.70802 14.6253 9.0957 14.0482C9.48339 13.4712 10.0342 13.0226 10.6778 12.7598C11.3214 12.4969 12.0287 12.4317 12.7095 12.5725C13.3903 12.7132 14.0138 13.0535 14.5005 13.55" stroke="#101828" stroke-width="2" stroke-linecap="round" stroke-linejoin="round"/><path id="Vector_3" d="M23.5005 18.45C23.0138 18.9465 22.3903 19.2868 21.7095 19.4275C21.0287 19.5683 20.3214 19.5031 19.6778 19.2402C19.0342 18.9774 18.4834 18.5288 18.0957 17.9518C17.708 17.3747 17.501 16.6952 17.501 16C17.501 15.3048 17.708 14.6253 18.0957 14.0482C18.4834 13.4712 19.0342 13.0226 19.6778 12.7598C20.3214 12.4969 21.0287 12.4317 21.7095 12.5725C22.3903 12.7132 23.0138 13.0535 23.5005 13.55" stroke="#101828" stroke-width="2" stroke-linecap="round" stroke-linejoin="round"/></g></g></g><defs><clipPath id="clip0_12_3880"><rect width="32" height="32" rx="5" fill="white"/></clipPath></defs></svg>