<svg width="32" height="32" viewBox="0 0 32 32" fill="none" xmlns="http://www.w3.org/2000/svg"><g id="Icon-EarSlash"><g clip-path="url(#clip0_12_3759)"><g id="size=md (32px)"><path id="Vector" d="M6 5L26 27" stroke="#101828" stroke-width="2" stroke-linecap="round" stroke-linejoin="round"/><path id="Vector_2" d="M11.425 10.9751C11.1419 11.6125 10.9971 12.3027 11 13.0001" stroke="#101828" stroke-width="2" stroke-linecap="round" stroke-linejoin="round"/><path id="Vector_3" d="M10.875 4.4124C12.3929 3.50644 14.1238 3.01905 15.8914 2.99986C17.6591 2.98067 19.4002 3.43037 20.9374 4.30316C22.4746 5.17594 23.753 6.44061 24.6423 7.96833C25.5316 9.49604 26.0001 11.2322 26 12.9999" stroke="#101828" stroke-width="2" stroke-linecap="round" stroke-linejoin="round"/><path id="Vector_4" d="M20.2375 27C19.5162 27.8718 18.5437 28.4998 17.4524 28.7986C16.3612 29.0974 15.2044 29.0523 14.1396 28.6696C13.0749 28.2869 12.1541 27.5852 11.5028 26.6601C10.8515 25.7349 10.5013 24.6315 10.5 23.5C10.5 18.3125 6.00001 20 6.00001 13C5.99788 10.8845 6.66756 8.82297 7.9125 7.11255" stroke="#101828" stroke-width="2" stroke-linecap="round" stroke-linejoin="round"/><path id="Vector_5" d="M20.3875 14.875C20.7972 14.3369 21.013 13.6762 21 13C21.0022 12.2032 20.8135 11.4174 20.4496 10.7085C20.0857 9.99957 19.5573 9.38817 18.9085 8.92547C18.2598 8.46278 17.5096 8.16226 16.7208 8.04909C15.9321 7.93592 15.1277 8.01339 14.375 8.27502" stroke="#101828" stroke-width="2" stroke-linecap="round" stroke-linejoin="round"/><path id="Vector_6" d="M20.8626 21.35C20.4844 21.486 20.0792 21.5293 19.6808 21.4762C19.2825 21.4232 18.9027 21.2753 18.5733 21.0451C18.2439 20.8149 17.9745 20.509 17.7878 20.1532C17.6011 19.7974 17.5024 19.4019 17.5001 19C17.4969 18.6119 17.5647 18.2264 17.7001 17.8625" stroke="#101828" stroke-width="2" stroke-linecap="round" stroke-linejoin="round"/></g></g></g><defs><clipPath id="clip0_12_3759"><rect width="32" height="32" rx="5" fill="white"/></clipPath></defs></svg>