<svg width="32" height="32" viewBox="0 0 32 32" fill="none" xmlns="http://www.w3.org/2000/svg"><g id="Icon-Television"><g clip-path="url(#clip0_12_2737)"><g id="size=md (32px)"><path id="Vector" d="M27 9H5C4.44772 9 4 9.44772 4 10V25C4 25.5523 4.44772 26 5 26H27C27.5523 26 28 25.5523 28 25V10C28 9.44772 27.5523 9 27 9Z" stroke="#101828" stroke-width="2" stroke-linecap="round" stroke-linejoin="round"/><path id="Vector_2" d="M10 3L16 9L22 3" stroke="#101828" stroke-width="2" stroke-linecap="round" stroke-linejoin="round"/><path id="Vector_3" d="M23.5 16C24.3284 16 25 15.3284 25 14.5C25 13.6716 24.3284 13 23.5 13C22.6716 13 22 13.6716 22 14.5C22 15.3284 22.6716 16 23.5 16Z" fill="#101828"/><path id="Vector_4" d="M23.5 22C24.3284 22 25 21.3284 25 20.5C25 19.6716 24.3284 19 23.5 19C22.6716 19 22 19.6716 22 20.5C22 21.3284 22.6716 22 23.5 22Z" fill="#101828"/><path id="Vector_5" d="M19 26V9" stroke="#101828" stroke-width="2" stroke-linecap="round" stroke-linejoin="round"/></g></g></g><defs><clipPath id="clip0_12_2737"><rect width="32" height="32" rx="5" fill="white"/></clipPath></defs></svg>