<svg xmlns="http://www.w3.org/2000/svg" width="32" height="32" fill="none"><g clip-path="url(#a)"><path stroke="#101828" stroke-linecap="round" stroke-linejoin="round" stroke-width="2" d="M6.175 11.825a4 4 0 0 1 5.65-5.65l14 14a4 4 0 0 1-5.65 5.65l-14-14Z"/><path stroke="#101828" stroke-linecap="round" stroke-linejoin="round" stroke-width="2" d="M20.175 6.175a4 4 0 0 1 5.65 5.65l-14 14a4 4 0 0 1-5.65-5.65l14-14Z"/><path stroke="#101828" stroke-linecap="round" stroke-linejoin="round" stroke-width="2" d="M16 16.5a.5.5 0 1 0 0-1 .5.5 0 0 0 0 1Z" opacity=".5"/><path fill="#101828" d="M16 17.5a1.5 1.5 0 1 0 0-3 1.5 1.5 0 0 0 0 3Z"/></g><defs><clipPath id="a"><rect width="32" height="32" fill="#fff" rx="5"/></clipPath></defs></svg>