<svg width="32" height="32" viewBox="0 0 32 32" fill="none" xmlns="http://www.w3.org/2000/svg"><g id="Icon-Bandaids"><g clip-path="url(#clip0_12_4463)"><g id="size=md (32px)"><g id="Bandaids"><path id="Vector" d="M6.17546 11.825C5.48602 11.0641 5.11559 10.0672 5.14086 9.04071C5.16613 8.01423 5.58517 7.03678 6.31122 6.31073C7.03727 5.58469 8.01472 5.16565 9.04119 5.14037C10.0677 5.1151 11.0646 5.48553 11.8255 6.17497L25.8255 20.175C26.5149 20.9359 26.8853 21.9328 26.8601 22.9592C26.8348 23.9857 26.4157 24.9632 25.6897 25.6892C24.9636 26.4152 23.9862 26.8343 22.9597 26.8596C21.9332 26.8848 20.9364 26.5144 20.1755 25.825L6.17546 11.825Z" stroke="#101828" stroke-width="2" stroke-linecap="round" stroke-linejoin="round"/><path id="Vector_2" d="M20.1755 6.17497C20.9364 5.48553 21.9332 5.1151 22.9597 5.14037C23.9862 5.16565 24.9636 5.58469 25.6897 6.31073C26.4157 7.03678 26.8348 8.01423 26.8601 9.04071C26.8853 10.0672 26.5149 11.0641 25.8255 11.825L11.8255 25.825C11.0646 26.5144 10.0677 26.8848 9.04119 26.8596C8.01472 26.8343 7.03727 26.4152 6.31122 25.6892C5.58517 24.9632 5.16613 23.9857 5.14086 22.9592C5.11559 21.9328 5.48602 20.9359 6.17546 20.175L20.1755 6.17497Z" stroke="#101828" stroke-width="2" stroke-linecap="round" stroke-linejoin="round"/><path id="Vector_3" opacity="0.5" d="M16 16.5C16.2761 16.5 16.5 16.2761 16.5 16C16.5 15.7239 16.2761 15.5 16 15.5C15.7239 15.5 15.5 15.7239 15.5 16C15.5 16.2761 15.7239 16.5 16 16.5Z" stroke="#101828" stroke-width="2" stroke-linecap="round" stroke-linejoin="round"/><path id="Vector_4" d="M16 17.5C16.8284 17.5 17.5 16.8284 17.5 16C17.5 15.1716 16.8284 14.5 16 14.5C15.1716 14.5 14.5 15.1716 14.5 16C14.5 16.8284 15.1716 17.5 16 17.5Z" fill="#101828"/></g></g></g></g><defs><clipPath id="clip0_12_4463"><rect width="32" height="32" rx="5" fill="white"/></clipPath></defs></svg>